# https://github.com/mikedh/trimesh

o 1.obj
v -0.22922173 -0.06718207 -0.28789111
v -0.22711555 -0.07218051 -0.29599775
v -0.22058495 -0.06708381 -0.29978600
v -0.22925047 -0.08029259 -0.28786431
v -0.22708254 -0.08462225 -0.29602921
v -0.22060554 -0.08022424 -0.29978989
v -0.20987888 -0.06707954 -0.29993475
v -0.20988238 -0.08018540 -0.29993514
v -0.22924853 -0.09334680 -0.28785732
v -0.22709963 -0.09702475 -0.29603736
v -0.22061330 -0.09331845 -0.29978794
v -0.22901589 -0.10260616 -0.28791014
v -0.22691748 -0.10571785 -0.29590493
v -0.22057330 -0.10256033 -0.29970910
v -0.20987927 -0.09328583 -0.29993398
v -0.20987539 -0.10256110 -0.29985125
v -0.22939495 -0.06718323 -0.27549714
v -0.22939456 -0.08030696 -0.27549326
v -0.22939456 -0.06718284 -0.26236836
v -0.22939456 -0.08030813 -0.26236836
v -0.22939107 -0.09336700 -0.27549520
v -0.22920154 -0.10252731 -0.27549520
v -0.22939068 -0.09336816 -0.26236836
v -0.22920853 -0.10245546 -0.26235943
v -0.22939456 -0.06718284 -0.24924852
v -0.22939456 -0.08030813 -0.24924852
v -0.22939456 -0.06718284 -0.23612867
v -0.22939456 -0.08030813 -0.23612867
v -0.22939068 -0.09336816 -0.24924852
v -0.22920853 -0.10245391 -0.24924036
v -0.22939068 -0.09336816 -0.23612867
v -0.22920853 -0.10245391 -0.23612052
v -0.22939456 -0.06718284 -0.22300883
v -0.22939456 -0.08030813 -0.22300883
v -0.22939456 -0.06718284 -0.20988898
v -0.22939456 -0.08030813 -0.20988898
v -0.22939068 -0.09336816 -0.22300883
v -0.22920659 -0.10245585 -0.22299951
v -0.22939068 -0.09336816 -0.20988898
v -0.22920115 -0.10246129 -0.20987966
v -0.22588322 -0.10939192 -0.29411372
v -0.22689534 -0.10898878 -0.28780683
v -0.22049795 -0.11094544 -0.28781149
v -0.22050184 -0.10897791 -0.29589832
v -0.20987267 -0.11096214 -0.28789072
v -0.20988160 -0.10893596 -0.29606183
v -0.22704836 -0.10888703 -0.27550180
v -0.22054029 -0.11101496 -0.27550802
v -0.22705225 -0.10888314 -0.26236992
v -0.22055310 -0.11094155 -0.26237264
v -0.20986374 -0.11113691 -0.27549403
v -0.20986762 -0.11113730 -0.26237031
v -0.22706001 -0.10880974 -0.24924308
v -0.22056204 -0.11080446 -0.24924658
v -0.22706001 -0.10880974 -0.23612440
v -0.22056204 -0.11073999 -0.23613061
v -0.20987228 -0.11100797 -0.24924968
v -0.20987422 -0.11094350 -0.23613450
v -0.22705846 -0.10881129 -0.22300339
v -0.22056087 -0.11080485 -0.22301310
v -0.22705458 -0.10875071 -0.20988510
v -0.22056243 -0.11080640 -0.20988898
v -0.20987189 -0.11094350 -0.22301893
v -0.20987112 -0.11094350 -0.20989830
v -0.22939456 -0.06718284 -0.19676952
v -0.22939456 -0.08030813 -0.19676952
v -0.22939456 -0.06718284 -0.18364968
v -0.22939456 -0.08030813 -0.18364968
v -0.22939068 -0.09336816 -0.19676914
v -0.22919727 -0.10246517 -0.19676137
v -0.22939068 -0.09336816 -0.18364929
v -0.22919727 -0.10246556 -0.18364152
v -0.22939456 -0.06718284 -0.17052983
v -0.22939456 -0.08030813 -0.17052983
v -0.22939456 -0.06718284 -0.15740999
v -0.22939456 -0.08030813 -0.15740999
v -0.22939068 -0.09336816 -0.17052983
v -0.22919727 -0.10246556 -0.17052168
v -0.22939068 -0.09336816 -0.15740999
v -0.22919727 -0.10246556 -0.15740183
v -0.22939456 -0.06718284 -0.14429014
v -0.22939456 -0.08030813 -0.14429014
v -0.22939456 -0.06718284 -0.13117030
v -0.22939456 -0.08030813 -0.13117030
v -0.22939068 -0.09336816 -0.14429014
v -0.22919727 -0.10246556 -0.14428199
v -0.22939068 -0.09336816 -0.13117030
v -0.22919727 -0.10246556 -0.13116214
v -0.22939456 -0.06718284 -0.11805045
v -0.22939456 -0.08030813 -0.11805045
v -0.22939456 -0.06718284 -0.10493061
v -0.22939456 -0.08030813 -0.10493061
v -0.22939068 -0.09336816 -0.11805045
v -0.22919727 -0.10246556 -0.11804230
v -0.22939068 -0.09336816 -0.10493061
v -0.22919727 -0.10246556 -0.10492245
v -0.22705069 -0.10868779 -0.19676603
v -0.22055893 -0.11081222 -0.19676914
v -0.22704487 -0.10869128 -0.18364968
v -0.22055621 -0.11075125 -0.18365162
v -0.20987112 -0.11094350 -0.19677846
v -0.20987228 -0.11087864 -0.18365745
v -0.22704487 -0.10869128 -0.17052983
v -0.22055427 -0.11075125 -0.17053372
v -0.22704487 -0.10869128 -0.15740999
v -0.22055427 -0.11068678 -0.15741426
v -0.20987112 -0.11094311 -0.17054071
v -0.20987461 -0.11094311 -0.15741776
v -0.22704487 -0.10869128 -0.14429014
v -0.22055310 -0.11062192 -0.14429636
v -0.22704487 -0.10869128 -0.13117030
v -0.22055194 -0.11062192 -0.13117884
v -0.20987772 -0.11094311 -0.14429791
v -0.20987888 -0.11087864 -0.13117923
v -0.22704487 -0.10869128 -0.11805084
v -0.22055194 -0.11062192 -0.11805900
v -0.22704487 -0.10869128 -0.10493099
v -0.22055194 -0.11062192 -0.10493915
v -0.20987772 -0.11087864 -0.11806171
v -0.20987772 -0.11087864 -0.10494187
v -0.22939456 -0.06718284 -0.09181076
v -0.22939456 -0.08030813 -0.09181076
v -0.22939456 -0.06718284 -0.07869092
v -0.22939456 -0.08030813 -0.07869092
v -0.22939068 -0.09336816 -0.09181076
v -0.22919727 -0.10246556 -0.09180299
v -0.22939068 -0.09336816 -0.07869092
v -0.22919727 -0.10246556 -0.07868315
v -0.22939456 -0.06718284 -0.06557146
v -0.22939456 -0.08030813 -0.06557107
v -0.22939456 -0.06718284 -0.05245161
v -0.22939456 -0.08030813 -0.05245161
v -0.22939068 -0.09336816 -0.06557107
v -0.22919727 -0.10246556 -0.06556330
v -0.22939068 -0.09336816 -0.05245122
v -0.22919727 -0.10246556 -0.05244346
v -0.22939456 -0.06718284 -0.03933177
v -0.22939456 -0.08030813 -0.03933177
v -0.22939456 -0.06718246 -0.02621115
v -0.22939456 -0.08030774 -0.02621115
v -0.22939068 -0.09336816 -0.03933177
v -0.22919727 -0.10246556 -0.03932361
v -0.22939068 -0.09336816 -0.02621192
v -0.22919727 -0.10246556 -0.02620377
v -0.22936233 -0.06714983 -0.01309169
v -0.22936233 -0.08027395 -0.01309130
v -0.22936233 -0.06715061 0.00002699
v -0.22939456 -0.08030619 0.00002738
v -0.22939068 -0.09336622 -0.01309091
v -0.22919921 -0.10246362 -0.01308509
v -0.22935844 -0.09333437 0.00002777
v -0.22920464 -0.10245624 0.00003515
v -0.22704487 -0.10869128 -0.09181115
v -0.22055194 -0.11062192 -0.09181931
v -0.22704487 -0.10869128 -0.07869130
v -0.22055194 -0.11062192 -0.07869946
v -0.20987772 -0.11081378 -0.09182202
v -0.20987655 -0.11074931 -0.07870451
v -0.22704487 -0.10869128 -0.06557146
v -0.22055194 -0.11062192 -0.06557961
v -0.22704487 -0.10869128 -0.05245161
v -0.22055194 -0.11062192 -0.05245977
v -0.20987578 -0.11074931 -0.06558661
v -0.20987578 -0.11074931 -0.05246676
v -0.22704487 -0.10869128 -0.03933177
v -0.22055194 -0.11062192 -0.03934031
v -0.22704487 -0.10869128 -0.02621192
v -0.22055194 -0.11062192 -0.02622047
v -0.20987578 -0.11074931 -0.03934730
v -0.20987578 -0.11074931 -0.02622746
v -0.22704681 -0.10868973 -0.01309363
v -0.22055194 -0.11062192 -0.01310062
v -0.22705030 -0.10875071 0.00002777
v -0.22055155 -0.11074970 0.00001689
v -0.20987578 -0.11074931 -0.01310761
v -0.20987112 -0.11087864 0.00001029
v -0.19677185 -0.06707954 -0.29993514
v -0.19677185 -0.08018579 -0.29993514
v -0.18365201 -0.06707954 -0.29993514
v -0.18365201 -0.08018579 -0.29993514
v -0.19677185 -0.09328388 -0.29993475
v -0.19677069 -0.10255838 -0.29985203
v -0.18365201 -0.09328388 -0.29993475
v -0.18365084 -0.10255838 -0.29985203
v -0.17053216 -0.06707954 -0.29993514
v -0.17053216 -0.08018579 -0.29993514
v -0.15741232 -0.06707954 -0.29993514
v -0.15741232 -0.08018579 -0.29993514
v -0.17053216 -0.09328388 -0.29993475
v -0.17053100 -0.10255838 -0.29985203
v -0.15741232 -0.09328388 -0.29993475
v -0.15741115 -0.10255838 -0.29985203
v -0.14429247 -0.06707954 -0.29993514
v -0.14429247 -0.08018579 -0.29993514
v -0.13117263 -0.06707954 -0.29993514
v -0.13117263 -0.08018579 -0.29993514
v -0.14429247 -0.09328388 -0.29993475
v -0.14429131 -0.10255838 -0.29985203
v -0.13117263 -0.09328388 -0.29993475
v -0.13117146 -0.10255838 -0.29985203
v -0.11805278 -0.06707954 -0.29993514
v -0.11805278 -0.08018579 -0.29993514
v -0.10493332 -0.06707954 -0.29993514
v -0.10493332 -0.08018579 -0.29993514
v -0.11805278 -0.09328388 -0.29993475
v -0.11805162 -0.10255838 -0.29985203
v -0.10493332 -0.09328388 -0.29993475
v -0.10493216 -0.10255838 -0.29985203
v -0.19677457 -0.11096408 -0.28789188
v -0.19677341 -0.10893674 -0.29606106
v -0.18365473 -0.11096408 -0.28789188
v -0.18365356 -0.10893674 -0.29606106
v -0.19677341 -0.11113846 -0.27549637
v -0.19677185 -0.11113846 -0.26237108
v -0.18365356 -0.11113846 -0.27549637
v -0.18365201 -0.11113846 -0.26237108
v -0.17053488 -0.11096408 -0.28789188
v -0.17053372 -0.10893674 -0.29606106
v -0.15741504 -0.11096408 -0.28789188
v -0.15741387 -0.10893674 -0.29606106
v -0.17053372 -0.11113846 -0.27549637
v -0.17053216 -0.11113846 -0.26237108
v -0.15741387 -0.11113846 -0.27549637
v -0.15741232 -0.11113846 -0.26237108
v -0.19677613 -0.11107360 -0.24924891
v -0.19677962 -0.11094427 -0.23613256
v -0.18365434 -0.11113846 -0.24925007
v -0.18365978 -0.11100913 -0.23612906
v -0.19677846 -0.11075008 -0.22301815
v -0.19677496 -0.11081494 -0.20990452
v -0.18366599 -0.11087980 -0.22301271
v -0.18366521 -0.11075047 -0.20990141
v -0.17053216 -0.11113846 -0.24925124
v -0.17053644 -0.11113846 -0.23612906
v -0.15741232 -0.11113846 -0.24925124
v -0.15741232 -0.11113846 -0.23613139
v -0.17054304 -0.11094427 -0.22300922
v -0.17054615 -0.11081494 -0.20989597
v -0.15741892 -0.11107360 -0.22300844
v -0.15742552 -0.11094427 -0.20989170
v -0.14429519 -0.11096408 -0.28789188
v -0.14429403 -0.10893674 -0.29606106
v -0.13117535 -0.11096408 -0.28789188
v -0.13117418 -0.10893674 -0.29606106
v -0.14429403 -0.11113846 -0.27549637
v -0.14429247 -0.11113846 -0.26237108
v -0.13117418 -0.11113846 -0.27549637
v -0.13117302 -0.11113846 -0.26237108
v -0.11805550 -0.11096408 -0.28789188
v -0.11805434 -0.10893674 -0.29606106
v -0.10493566 -0.11096408 -0.28789188
v -0.10493449 -0.10893674 -0.29606106
v -0.11805434 -0.11113846 -0.27549637
v -0.11805317 -0.11113846 -0.26237108
v -0.10493449 -0.11113846 -0.27549637
v -0.10493332 -0.11113846 -0.26237108
v -0.14429247 -0.11113846 -0.24925124
v -0.14429247 -0.11113846 -0.23613139
v -0.13117302 -0.11113846 -0.24925124
v -0.13117302 -0.11113846 -0.23613139
v -0.14429480 -0.11113846 -0.22301038
v -0.14430024 -0.11094427 -0.20988937
v -0.13117302 -0.11113846 -0.22301155
v -0.13117923 -0.11107360 -0.20988859
v -0.11805317 -0.11113846 -0.24925124
v -0.11805317 -0.11113846 -0.23613139
v -0.10493332 -0.11113846 -0.24925124
v -0.10493332 -0.11113846 -0.23613139
v -0.11805317 -0.11113846 -0.22301155
v -0.11805511 -0.11113846 -0.20989054
v -0.10493332 -0.11113846 -0.22301155
v -0.10493332 -0.11113846 -0.20989170
v -0.09181348 -0.06707954 -0.29993514
v -0.09181348 -0.08018579 -0.29993514
v -0.07869363 -0.06707954 -0.29993514
v -0.07869363 -0.08018579 -0.29993514
v -0.09181348 -0.09328388 -0.29993475
v -0.09181231 -0.10255838 -0.29985203
v -0.07869363 -0.09328388 -0.29993475
v -0.07868276 -0.10255800 -0.29985164
v -0.06557379 -0.06707954 -0.29993514
v -0.06557379 -0.08018579 -0.29993514
v -0.05245394 -0.06707954 -0.29993514
v -0.05245394 -0.08018579 -0.29993514
v -0.06557379 -0.09328388 -0.29993475
v -0.06557495 -0.10254945 -0.29938092
v -0.05245394 -0.09328388 -0.29993475
v -0.05247414 -0.10256110 -0.29936733
v -0.03933410 -0.06707954 -0.29993514
v -0.03933410 -0.08018579 -0.29993514
v -0.02621425 -0.06707954 -0.29993514
v -0.02621425 -0.08018579 -0.29993514
v -0.03933410 -0.09328388 -0.29993475
v -0.03934264 -0.10257004 -0.29983766
v -0.02621425 -0.09328388 -0.29993475
v -0.02621309 -0.10255877 -0.29985164
v -0.01309441 -0.06707954 -0.29993514
v -0.01309441 -0.08018579 -0.29993514
v 0.00002311 -0.06707992 -0.29993514
v 0.00002078 -0.08018656 -0.29993553
v -0.01309441 -0.09328388 -0.29993475
v -0.01309324 -0.10255838 -0.29985203
v 0.00002117 -0.09328505 -0.29993475
v 0.00002466 -0.10255994 -0.29985164
v -0.09181620 -0.11096408 -0.28789188
v -0.09181464 -0.10893674 -0.29606106
v -0.07869635 -0.11096408 -0.28789188
v -0.07868548 -0.10893635 -0.29606067
v -0.09181464 -0.11113846 -0.27549637
v -0.09181348 -0.11113846 -0.26237108
v -0.07869480 -0.11113846 -0.27549637
v -0.07869363 -0.11113846 -0.26237108
v -0.06556641 -0.11096369 -0.28789344
v -0.06558622 -0.10892858 -0.29559189
v -0.05245860 -0.11095515 -0.28742194
v -0.05245472 -0.10894761 -0.29604940
v -0.06557534 -0.11113846 -0.27549637
v -0.06557379 -0.11113846 -0.26237108
v -0.05245472 -0.11113846 -0.27549792
v -0.05245394 -0.11113846 -0.26237108
v -0.09181348 -0.11113846 -0.24925124
v -0.09181348 -0.11113846 -0.23613139
v -0.07869363 -0.11113846 -0.24925124
v -0.07869363 -0.11113846 -0.23613139
v -0.09181348 -0.11113846 -0.22301155
v -0.09181348 -0.11113846 -0.20989170
v -0.07869363 -0.11113846 -0.22301155
v -0.07869363 -0.11113846 -0.20989170
v -0.06557379 -0.11113846 -0.24925124
v -0.06557379 -0.11113846 -0.23613139
v -0.05245394 -0.11113846 -0.24925124
v -0.05245394 -0.11113846 -0.23613139
v -0.06557379 -0.11113846 -0.22301155
v -0.06557379 -0.11113846 -0.20989170
v -0.05245394 -0.11113846 -0.22301155
v -0.05245394 -0.11113846 -0.20989170
v -0.03935740 -0.11096680 -0.28740874
v -0.03934691 -0.10892897 -0.29559034
v -0.02622668 -0.11097573 -0.28787829
v -0.02622513 -0.10894839 -0.29604669
v -0.03933487 -0.11113846 -0.27549870
v -0.03933410 -0.11113846 -0.26237108
v -0.02621542 -0.11113846 -0.27549714
v -0.02621425 -0.11113846 -0.26237108
v -0.01309713 -0.11096447 -0.28789149
v -0.01309596 -0.10893713 -0.29606067
v 0.00002078 -0.11089922 -0.28789188
v 0.00002272 -0.10893713 -0.29606067
v -0.01309557 -0.11113846 -0.27549598
v -0.01309441 -0.11113846 -0.26237108
v 0.00002311 -0.11100913 -0.27549831
v 0.00002544 -0.11100913 -0.26237535
v -0.03933410 -0.11113846 -0.24925124
v -0.03933410 -0.11113846 -0.23613139
v -0.02621425 -0.11113846 -0.24925124
v -0.02621425 -0.11113846 -0.23613139
v -0.03933410 -0.11113846 -0.22301155
v -0.03933410 -0.11113846 -0.20989170
v -0.02621425 -0.11113846 -0.22301155
v -0.02621425 -0.11113846 -0.20989170
v -0.01309441 -0.11113846 -0.24925124
v -0.01309441 -0.11113846 -0.23613139
v 0.00002544 -0.11100913 -0.24925551
v 0.00002544 -0.11100913 -0.23613566
v -0.01309441 -0.11113846 -0.22301155
v -0.01309441 -0.11113846 -0.20989170
v 0.00002544 -0.11100913 -0.22301582
v 0.00002544 -0.11100913 -0.20989597
v -0.19677613 -0.11087980 -0.19678273
v -0.19677962 -0.11087980 -0.18365978
v -0.18365978 -0.11075047 -0.19678584
v -0.18365861 -0.11075047 -0.18366521
v -0.19677846 -0.11094427 -0.17054187
v -0.19677846 -0.11094427 -0.15741892
v -0.18365628 -0.11075008 -0.17054615
v -0.18365550 -0.11081494 -0.15742552
v -0.17054615 -0.11075047 -0.19678273
v -0.17054537 -0.11075047 -0.18366521
v -0.15742747 -0.11075047 -0.19677729
v -0.15742552 -0.11075047 -0.18366521
v -0.17054537 -0.11075047 -0.17054537
v -0.17054304 -0.11075047 -0.15742630
v -0.15742552 -0.11075047 -0.17054537
v -0.15742552 -0.11075047 -0.15742552
v -0.19677846 -0.11094427 -0.14429908
v -0.19678040 -0.11087980 -0.13117806
v -0.18365628 -0.11087980 -0.14430335
v -0.18365978 -0.11087980 -0.13118040
v -0.19678040 -0.11087980 -0.11806171
v -0.19678040 -0.11094427 -0.10494187
v -0.18366055 -0.11087980 -0.11806171
v -0.18365861 -0.11094427 -0.10494303
v -0.17053993 -0.11075047 -0.14430684
v -0.17053877 -0.11075047 -0.13118583
v -0.15742552 -0.11075047 -0.14430568
v -0.15742552 -0.11075047 -0.13118583
v -0.17053877 -0.11075047 -0.11806599
v -0.17053644 -0.11075008 -0.10494731
v -0.15742552 -0.11081494 -0.11806599
v -0.15742630 -0.11087980 -0.10494420
v -0.14430568 -0.11081494 -0.19677496
v -0.14430684 -0.11075047 -0.18366288
v -0.13118583 -0.11094427 -0.19677185
v -0.13118777 -0.11075047 -0.18365745
v -0.14430568 -0.11075047 -0.17054537
v -0.14430568 -0.11075047 -0.15742552
v -0.13118583 -0.11075047 -0.17054537
v -0.13118583 -0.11081494 -0.15742552
v -0.11806055 -0.11100913 -0.19676991
v -0.11806715 -0.11094427 -0.18365317
v -0.10493760 -0.11113846 -0.19676991
v -0.10494187 -0.11107360 -0.18365084
v -0.11806909 -0.11087980 -0.17053877
v -0.11806599 -0.11094466 -0.15742203
v -0.10494420 -0.11100913 -0.17053333
v -0.10494187 -0.11100913 -0.15741776
v -0.14430568 -0.11075047 -0.14430568
v -0.14430568 -0.11081494 -0.13118583
v -0.13118700 -0.11087980 -0.14430335
v -0.13118583 -0.11094466 -0.13118273
v -0.14430451 -0.11094466 -0.11806482
v -0.14430335 -0.11087980 -0.10494070
v -0.13118156 -0.11087980 -0.11806171
v -0.13118040 -0.11087980 -0.10494070
v -0.11806366 -0.11094466 -0.14430024
v -0.11806055 -0.11100913 -0.13118040
v -0.10494070 -0.11107399 -0.14429713
v -0.10493954 -0.11113846 -0.13117612
v -0.11806288 -0.11100913 -0.11805628
v -0.11806366 -0.11107399 -0.10493760
v -0.10493954 -0.11113846 -0.11805317
v -0.10493760 -0.11107360 -0.10493449
v -0.15625883 -0.10571280 -0.01398807
v -0.16391651 -0.10266635 -0.00328550
v -0.19678389 -0.11094427 -0.09181892
v -0.19678700 -0.11094466 -0.07869907
v -0.18365861 -0.11094427 -0.09182008
v -0.18365861 -0.11100913 -0.07870024
v -0.19678817 -0.11087980 -0.06558039
v -0.19678700 -0.11087980 -0.05246249
v -0.18366172 -0.11100913 -0.06557690
v -0.18366288 -0.11100913 -0.05245822
v -0.17053566 -0.11087980 -0.09182630
v -0.17053566 -0.11107399 -0.07870334
v -0.15742319 -0.11094466 -0.09182435
v -0.15741581 -0.11087980 -0.07870334
v -0.17053760 -0.11100913 -0.06557612
v -0.17053644 -0.11107360 -0.05245822
v -0.15741348 -0.11087941 -0.06558156
v -0.15741232 -0.11100913 -0.05246365
v -0.19678700 -0.11087980 -0.03934264
v -0.19678700 -0.11087980 -0.02622318
v -0.18366949 -0.11100913 -0.03935002
v -0.18369939 -0.11100758 -0.02623445
v -0.19678700 -0.11087980 -0.01310334
v -0.19678273 -0.11094466 0.00001456
v -0.18371803 -0.11100641 -0.01309790
v -0.18369784 -0.11100797 0.00001922
v -0.17054420 -0.11113652 -0.03938187
v -0.17052401 -0.11108059 -0.02766718
v -0.15741154 -0.11100447 -0.03940789
v -0.15737426 -0.11098311 -0.02901913
v -0.17226006 -0.11101574 -0.01447937
v -0.17404544 -0.11100486 -0.00068219
v -0.16125067 -0.10993488 -0.01795731
v -0.16505058 -0.10896315 -0.00776118
v -0.14429908 -0.11087980 -0.09182319
v -0.14430024 -0.11087980 -0.07870101
v -0.13118156 -0.11094427 -0.09182202
v -0.13118273 -0.11087980 -0.07870024
v -0.14430141 -0.11094466 -0.06558233
v -0.14429791 -0.11081494 -0.05246249
v -0.13117923 -0.11081494 -0.06558350
v -0.13118156 -0.11075047 -0.05246249
v -0.11806288 -0.11094427 -0.09181659
v -0.11806171 -0.11087980 -0.07869907
v -0.10493954 -0.11100913 -0.09181348
v -0.10494303 -0.11100913 -0.07869674
v -0.11806366 -0.11087980 -0.06558156
v -0.11806715 -0.11087980 -0.05246171
v -0.10494420 -0.11100913 -0.06557806
v -0.10494420 -0.11100913 -0.05245822
v -0.14429364 -0.11093961 -0.03941333
v -0.14429403 -0.11087048 -0.02897097
v -0.13117806 -0.11087475 -0.03941760
v -0.13117496 -0.11080368 -0.02897097
v -0.14850484 -0.10891421 -0.02289361
v -0.13555471 -0.10887382 -0.02278253
v -0.11806366 -0.11093961 -0.03941333
v -0.11805938 -0.11080368 -0.02896903
v -0.10494226 -0.11100486 -0.03940867
v -0.10494032 -0.11086854 -0.02896631
v -0.12243331 -0.10887110 -0.02278175
v -0.10931502 -0.10887227 -0.02277942
v -0.09181348 -0.11113846 -0.19677185
v -0.09181542 -0.11113846 -0.18365084
v -0.07869363 -0.11113846 -0.19677185
v -0.07869363 -0.11113846 -0.18365201
v -0.09181892 -0.11113846 -0.17053139
v -0.09182008 -0.11113846 -0.15741232
v -0.07869363 -0.11113846 -0.17053216
v -0.07869363 -0.11113846 -0.15741232
v -0.06557379 -0.11113846 -0.19677185
v -0.06557379 -0.11113846 -0.18365201
v -0.05245394 -0.11113846 -0.19677185
v -0.05245394 -0.11113846 -0.18365201
v -0.06557379 -0.11113846 -0.17053216
v -0.06557379 -0.11113846 -0.15741232
v -0.05245394 -0.11113846 -0.17053216
v -0.05245394 -0.11113846 -0.15741232
v -0.09181775 -0.11113846 -0.14429364
v -0.09181464 -0.11113846 -0.13117379
v -0.07869363 -0.11113846 -0.14429247
v -0.07869363 -0.11113846 -0.13117302
v -0.09181348 -0.11113846 -0.11805317
v -0.09181542 -0.11113846 -0.10493216
v -0.07869363 -0.11113846 -0.11805317
v -0.07869363 -0.11113846 -0.10493332
v -0.06557379 -0.11113846 -0.14429247
v -0.06557379 -0.11113846 -0.13117302
v -0.05245394 -0.11107360 -0.14429247
v -0.05245278 -0.11107360 -0.13117496
v -0.06557379 -0.11113846 -0.11805317
v -0.06557379 -0.11113846 -0.10493332
v -0.05245278 -0.11113846 -0.11805511
v -0.05245394 -0.11113846 -0.10493332
v -0.03933410 -0.11113846 -0.19677185
v -0.03933410 -0.11113846 -0.18365201
v -0.02621425 -0.11113846 -0.19677185
v -0.02621425 -0.11113846 -0.18365201
v -0.03933410 -0.11113846 -0.17053216
v -0.03933410 -0.11113846 -0.15741232
v -0.02621425 -0.11113846 -0.17053216
v -0.02621425 -0.11113846 -0.15741232
v -0.01309441 -0.11113846 -0.19677185
v -0.01309441 -0.11113846 -0.18365201
v 0.00002544 -0.11100913 -0.19677613
v 0.00002544 -0.11100913 -0.18365628
v -0.01309441 -0.11113846 -0.17053216
v -0.01309441 -0.11113846 -0.15741232
v 0.00002544 -0.11100913 -0.17053644
v 0.00002544 -0.11100913 -0.15741659
v -0.03933643 -0.11107360 -0.14429170
v -0.03933643 -0.11113846 -0.13117496
v -0.02621658 -0.11113846 -0.14429170
v -0.02621542 -0.11107360 -0.13117379
v -0.03933526 -0.11107360 -0.11805395
v -0.03933293 -0.11113846 -0.10493527
v -0.02621542 -0.11107360 -0.11805395
v -0.02621425 -0.11113846 -0.10493643
v -0.01309480 -0.11113846 -0.14429247
v -0.01309674 -0.11113846 -0.13117185
v 0.00002544 -0.11100913 -0.14429713
v 0.00002544 -0.11100913 -0.13117729
v -0.01309790 -0.11113846 -0.11805317
v -0.01309557 -0.11113846 -0.10493449
v 0.00002544 -0.11100913 -0.11805744
v 0.00002544 -0.11100913 -0.10493760
v -0.09181892 -0.11113846 -0.09181231
v -0.09182008 -0.11113846 -0.07869363
v -0.07869363 -0.11113846 -0.09181348
v -0.07869363 -0.11113846 -0.07869363
v -0.09182008 -0.11113846 -0.06557379
v -0.09182008 -0.11113846 -0.05245394
v -0.07869363 -0.11113846 -0.06557379
v -0.07869363 -0.11113846 -0.05245394
v -0.06557379 -0.11113846 -0.09181348
v -0.06557379 -0.11107360 -0.07869363
v -0.05245394 -0.11113846 -0.09181348
v -0.05245627 -0.11107360 -0.07869247
v -0.06557262 -0.11107360 -0.06557612
v -0.06557262 -0.11113846 -0.05245627
v -0.05245627 -0.11113846 -0.06557612
v -0.05245511 -0.11107360 -0.05245511
v -0.09181270 -0.11113497 -0.03939507
v -0.09183872 -0.11093884 -0.02902457
v -0.07868276 -0.11113691 -0.03936633
v -0.07808466 -0.11098195 -0.02759688
v -0.09622197 -0.10887848 -0.02284778
v -0.08247878 -0.10893208 -0.02136417
v -0.06557068 -0.11113846 -0.03934031
v -0.06493918 -0.11107826 -0.02616881
v -0.05245278 -0.11113846 -0.03933643
v -0.05245783 -0.11113846 -0.02621697
v -0.06645657 -0.10942610 -0.01504368
v -0.05183059 -0.11095010 -0.01303149
v -0.05900241 -0.10882217 0.00021419
v -0.05127871 -0.11079669 0.00009263
v -0.03933410 -0.11113846 -0.09181348
v -0.03933643 -0.11113846 -0.07869247
v -0.02621425 -0.11113846 -0.09181348
v -0.02621425 -0.11113846 -0.07869363
v -0.03933526 -0.11107360 -0.06557495
v -0.03933526 -0.11107360 -0.05245511
v -0.02621658 -0.11113846 -0.06557262
v -0.02621775 -0.11113846 -0.05245394
v -0.01309441 -0.11113846 -0.09181348
v -0.01309441 -0.11113846 -0.07869363
v 0.00002544 -0.11100913 -0.09181775
v 0.00002544 -0.11100913 -0.07869791
v -0.01309480 -0.11113846 -0.06557379
v -0.01309480 -0.11113846 -0.05245394
v 0.00002544 -0.11100913 -0.06557806
v 0.00002544 -0.11107360 -0.05245822
v -0.03933410 -0.11113846 -0.03933759
v -0.03933410 -0.11113846 -0.02621425
v -0.02621542 -0.11113846 -0.03933526
v -0.02621425 -0.11113846 -0.02621425
v -0.03934575 -0.11100874 -0.01308897
v -0.03935934 -0.11087941 0.00002544
v -0.02621852 -0.11100913 -0.01309246
v -0.02622318 -0.11087980 0.00002311
v -0.01309441 -0.11113846 -0.03933410
v -0.01309441 -0.11113846 -0.02621425
v 0.00002427 -0.11113846 -0.03933643
v 0.00002350 -0.11113846 -0.02621425
v -0.01309907 -0.11107360 -0.01309246
v -0.01312198 -0.11100797 0.00000835
v 0.00002117 -0.11113846 -0.01309363
v 0.00000175 -0.11106778 -0.00004097
v -0.22939456 -0.06718362 0.01314606
v -0.22936233 -0.08027512 0.01314684
v -0.22939456 -0.06718284 0.02626746
v -0.22939456 -0.08030852 0.02626629
v -0.22935805 -0.09333437 0.01314723
v -0.22920853 -0.10245158 0.01315577
v -0.22939068 -0.09336777 0.02626591
v -0.22920853 -0.10245313 0.02627484
v -0.22939456 -0.06718284 0.03938731
v -0.22939456 -0.08030813 0.03938731
v -0.22939456 -0.06718284 0.05250715
v -0.22939456 -0.08030813 0.05250715
v -0.22939068 -0.09336816 0.03938731
v -0.22920853 -0.10245391 0.03939546
v -0.22939068 -0.09336816 0.05250715
v -0.22920853 -0.10245391 0.05251531
v -0.22939456 -0.06718284 0.06562700
v -0.22939456 -0.08030813 0.06562700
v -0.22939456 -0.06718284 0.07874645
v -0.22939456 -0.08030813 0.07874645
v -0.22939068 -0.09336816 0.06562700
v -0.22920853 -0.10245391 0.06563476
v -0.22939068 -0.09336816 0.07874684
v -0.22920853 -0.10245391 0.07875461
v -0.22939456 -0.06718284 0.09186630
v -0.22939456 -0.08030813 0.09186630
v -0.22939456 -0.06718284 0.10498614
v -0.22939456 -0.08030813 0.10498614
v -0.22939068 -0.09336816 0.09186669
v -0.22920853 -0.10245391 0.09187446
v -0.22939068 -0.09336816 0.10498614
v -0.22920853 -0.10245391 0.10499430
v -0.22705458 -0.10881324 0.01314839
v -0.22055699 -0.11080873 0.01314101
v -0.22706001 -0.10880974 0.02627173
v -0.22056087 -0.11086932 0.02626552
v -0.20986917 -0.11100797 0.01313519
v -0.20986879 -0.11113730 0.02625930
v -0.22706001 -0.10880974 0.03939158
v -0.22056281 -0.11086932 0.03938731
v -0.22706001 -0.10880974 0.05251103
v -0.22056281 -0.11086932 0.05250715
v -0.20987112 -0.11113769 0.03938459
v -0.20987112 -0.11113769 0.05250443
v -0.22706001 -0.10880974 0.06563088
v -0.22056281 -0.11086932 0.06562700
v -0.22706001 -0.10880974 0.07875073
v -0.22056281 -0.11086932 0.07874684
v -0.20987112 -0.11113769 0.06562428
v -0.20987112 -0.11113769 0.07874412
v -0.22706001 -0.10880974 0.09187057
v -0.22056281 -0.11086932 0.09186669
v -0.22706001 -0.10880974 0.10499042
v -0.22056281 -0.11086932 0.10498653
v -0.20987112 -0.11113769 0.09186397
v -0.20987112 -0.11113769 0.10498381
v -0.22939456 -0.06718284 0.11810599
v -0.22939456 -0.08030813 0.11810599
v -0.22939456 -0.06718284 0.13122584
v -0.22939456 -0.08030813 0.13122584
v -0.22939068 -0.09336816 0.11810599
v -0.22920853 -0.10245391 0.11811415
v -0.22939068 -0.09336816 0.13122584
v -0.22920853 -0.10245391 0.13123399
v -0.22939456 -0.06718284 0.14434568
v -0.22939456 -0.08030813 0.14434568
v -0.22939456 -0.06718284 0.15746553
v -0.22939456 -0.08030813 0.15746553
v -0.22939068 -0.09336816 0.14434568
v -0.22920853 -0.10245391 0.14435384
v -0.22939068 -0.09336816 0.15746553
v -0.22920853 -0.10245391 0.15747368
v -0.22939456 -0.06718284 0.17058537
v -0.22939456 -0.08030813 0.17058537
v -0.22939456 -0.06718284 0.18370522
v -0.22939456 -0.08030813 0.18370522
v -0.22939068 -0.09336816 0.17058537
v -0.22920853 -0.10245391 0.17059353
v -0.22939068 -0.09336816 0.18370522
v -0.22920853 -0.10245391 0.18371337
v -0.22939456 -0.06718284 0.19682506
v -0.22939456 -0.08030813 0.19682506
v -0.22939456 -0.06718284 0.20994452
v -0.22939456 -0.08030813 0.20994452
v -0.22939068 -0.09336816 0.19682506
v -0.22920853 -0.10245391 0.19683283
v -0.22939068 -0.09336816 0.20994491
v -0.22920853 -0.10245391 0.20995268
v -0.22706001 -0.10880974 0.11811026
v -0.22056281 -0.11086932 0.11810638
v -0.22706001 -0.10880974 0.13123011
v -0.22056281 -0.11086932 0.13122584
v -0.20987112 -0.11107283 0.11810366
v -0.20986995 -0.11100797 0.13122117
v -0.22706001 -0.10880974 0.14434995
v -0.22056281 -0.11086932 0.14434568
v -0.22706001 -0.10880974 0.15746980
v -0.22056281 -0.11086932 0.15746553
v -0.20986879 -0.11100797 0.14433869
v -0.20986879 -0.11100797 0.15745854
v -0.22706001 -0.10880974 0.17058964
v -0.22056281 -0.11086932 0.17058537
v -0.22706001 -0.10880974 0.18370910
v -0.22056281 -0.11080485 0.18370522
v -0.20986879 -0.11100797 0.17057838
v -0.20987112 -0.11100797 0.18369939
v -0.22706001 -0.10880974 0.19682895
v -0.22056204 -0.11073999 0.19682273
v -0.22706001 -0.10880974 0.20994879
v -0.22056087 -0.11073999 0.20994064
v -0.20987422 -0.11107283 0.19681924
v -0.20987655 -0.11100797 0.20993986
v -0.22939456 -0.06718284 0.22306437
v -0.22939456 -0.08030813 0.22306437
v -0.22939456 -0.06718284 0.23618421
v -0.22939456 -0.08030813 0.23618421
v -0.22939068 -0.09336816 0.22306475
v -0.22920853 -0.10245391 0.22307252
v -0.22939068 -0.09336894 0.23618499
v -0.22920309 -0.10246012 0.23618576
v -0.22939456 -0.06718284 0.24930406
v -0.22939456 -0.08030813 0.24930406
v -0.22939456 -0.06718284 0.26242390
v -0.22939456 -0.08030813 0.26242390
v -0.22939107 -0.09337127 0.24930483
v -0.22918872 -0.10254052 0.24929318
v -0.22939107 -0.09337282 0.26242390
v -0.22918289 -0.10261198 0.26241342
v -0.22939495 -0.06718246 0.27553443
v -0.22939456 -0.08030774 0.27553404
v -0.22925047 -0.06716614 0.28788295
v -0.22925047 -0.08028133 0.28788373
v -0.22939145 -0.09337438 0.27553481
v -0.22918717 -0.10261159 0.27553443
v -0.22921008 -0.09338331 0.28791985
v -0.22911648 -0.10257858 0.28783168
v -0.22710778 -0.06714129 0.29597018
v -0.22059583 -0.08021414 0.29970600
v -0.22707283 -0.08027007 0.29606610
v -0.20987383 -0.08020831 0.29988310
v -0.22060437 -0.09334680 0.29975687
v -0.22709730 -0.09338680 0.29603736
v -0.22055427 -0.10256654 0.29964696
v -0.22707438 -0.10256343 0.29587036
v -0.20987189 -0.09331340 0.29994718
v -0.20986529 -0.10249819 0.29971881
v -0.22706001 -0.10880974 0.22306864
v -0.22056087 -0.11073999 0.22306048
v -0.22705458 -0.10881518 0.23618149
v -0.22056087 -0.11080485 0.23618033
v -0.20987539 -0.11100797 0.22305776
v -0.20987306 -0.11107283 0.23617644
v -0.22704409 -0.10888897 0.24929629
v -0.22055466 -0.11087514 0.24929474
v -0.22703904 -0.10882955 0.26241419
v -0.22054262 -0.11088912 0.26240604
v -0.20987112 -0.11100797 0.24929823
v -0.20986917 -0.11100797 0.26241769
v -0.22702817 -0.10890295 0.27552161
v -0.22053369 -0.11102428 0.27551190
v -0.22705302 -0.10886023 0.28778158
v -0.22053407 -0.11078310 0.28783596
v -0.20986568 -0.11094311 0.27552511
v -0.20985869 -0.11077067 0.28783867
v -0.22371296 -0.10882955 0.29586881
v -0.22748373 -0.10792152 0.29405935
v -0.21422485 -0.10893635 0.29598959
v -0.16750513 -0.10269199 0.01249475
v -0.16755368 -0.10271296 0.02625659
v -0.16751407 -0.10278131 0.03856782
v -0.16481017 -0.10255062 0.05209392
v -0.15862484 -0.10232536 0.06792115
v -0.15276614 -0.10233507 0.07686825
v -0.14327181 -0.10226322 0.08202748
v -0.13208998 -0.10221234 0.08191757
v -0.11894411 -0.10239216 0.08290406
v -0.10500207 -0.10267762 0.08391695
v -0.19677729 -0.11100913 0.01313635
v -0.19677185 -0.11113846 0.02625853
v -0.18371648 -0.11106933 0.01313363
v -0.18372580 -0.11113303 0.02626591
v -0.19677185 -0.11107360 0.03938459
v -0.19677069 -0.11100913 0.05250249
v -0.18369162 -0.11107244 0.03938536
v -0.18370366 -0.11107050 0.05250599
v -0.17406525 -0.11099670 0.01241435
v -0.17401981 -0.11099399 0.02625542
v -0.16856192 -0.10896703 0.00885525
v -0.16857434 -0.10895150 0.02114396
v -0.17404933 -0.11099748 0.03864162
v -0.17405593 -0.11093456 0.05175369
v -0.16858910 -0.10894334 0.03428672
v -0.16855531 -0.10901325 0.04807380
v -0.19676991 -0.11100913 0.06562001
v -0.19676991 -0.11100913 0.07873985
v -0.18370405 -0.11100564 0.06563709
v -0.18366793 -0.11100874 0.07874607
v -0.19676991 -0.11100913 0.09185970
v -0.19676991 -0.11100913 0.10497954
v -0.18365628 -0.11100913 0.09185970
v -0.18365628 -0.11100913 0.10497954
v -0.17221967 -0.11087475 0.06655872
v -0.17050342 -0.11094233 0.07971507
v -0.16679790 -0.10912355 0.06140725
v -0.15990766 -0.10960126 0.07843420
v -0.17054809 -0.11100874 0.09186630
v -0.17053644 -0.11100913 0.10497954
v -0.15736416 -0.11107399 0.09284463
v -0.15741892 -0.11113846 0.10498381
v -0.14422800 -0.11097767 0.09373635
v -0.14412353 -0.10904044 0.08677348
v -0.14429519 -0.11113807 0.10499158
v -0.13117729 -0.11094505 0.09367576
v -0.13119205 -0.10898140 0.08659949
v -0.13117768 -0.11113807 0.10499857
v -0.11805472 -0.11094544 0.09367615
v -0.11804890 -0.10895033 0.08659949
v -0.11805822 -0.11113807 0.10499857
v -0.10493449 -0.11094505 0.09367576
v -0.10492905 -0.10890722 0.08660026
v -0.10493837 -0.11113807 0.10499857
v -0.19677185 -0.11094427 0.11810016
v -0.19677419 -0.11094427 0.13121807
v -0.18365861 -0.11100913 0.11810016
v -0.18365978 -0.11094427 0.13121884
v -0.19677496 -0.11094427 0.14433675
v -0.19677496 -0.11100913 0.15745659
v -0.18365861 -0.11094427 0.14433675
v -0.18365628 -0.11087980 0.15745543
v -0.17053644 -0.11094427 0.11809900
v -0.17053760 -0.11087980 0.13121807
v -0.15742125 -0.11100913 0.11810444
v -0.15742203 -0.11094427 0.13122001
v -0.17053760 -0.11087980 0.14433442
v -0.17053993 -0.11087980 0.15745543
v -0.15742203 -0.11087980 0.14433675
v -0.15742125 -0.11087980 0.15745426
v -0.19677613 -0.11100913 0.17057838
v -0.19677613 -0.11107360 0.18369823
v -0.18365434 -0.11087941 0.17057411
v -0.18365201 -0.11087941 0.18369279
v -0.19677496 -0.11094427 0.19681924
v -0.19677419 -0.11087941 0.20993675
v -0.18365550 -0.11087941 0.19681574
v -0.18365978 -0.11094427 0.20993442
v -0.17054110 -0.11094427 0.17057411
v -0.17054187 -0.11087980 0.18369590
v -0.15741892 -0.11081494 0.17057294
v -0.15741892 -0.11075008 0.18369279
v -0.17054110 -0.11087980 0.19681380
v -0.17053877 -0.11081494 0.20993248
v -0.15741892 -0.11075047 0.19680953
v -0.15742125 -0.11075047 0.20993015
v -0.14429713 -0.11107360 0.11810560
v -0.14430024 -0.11100913 0.13122234
v -0.13117496 -0.11113846 0.11810444
v -0.13117806 -0.11107360 0.13122428
v -0.14430257 -0.11081494 0.14433986
v -0.14430024 -0.11075008 0.15745232
v -0.13118467 -0.11094427 0.14434413
v -0.13118777 -0.11087980 0.15745737
v -0.11805317 -0.11113846 0.11810366
v -0.11805511 -0.11113846 0.13122428
v -0.10493332 -0.11113846 0.11810366
v -0.10493332 -0.11113846 0.13122312
v -0.11806055 -0.11113846 0.14434529
v -0.11806482 -0.11100913 0.15746397
v -0.10493332 -0.11113846 0.14434296
v -0.10493760 -0.11113846 0.15746514
v -0.14430141 -0.11075047 0.17057100
v -0.14430451 -0.11075047 0.18369085
v -0.13118777 -0.11075047 0.17057411
v -0.13118583 -0.11075047 0.18368968
v -0.14430568 -0.11075047 0.19680953
v -0.14430568 -0.11075047 0.20992937
v -0.13118583 -0.11075047 0.19680953
v -0.13118583 -0.11075047 0.20992937
v -0.11806832 -0.11094427 0.17058071
v -0.11806909 -0.11087980 0.18369590
v -0.10494187 -0.11107360 0.17058382
v -0.10494420 -0.11100913 0.18370133
v -0.11806832 -0.11087980 0.19681380
v -0.11806832 -0.11087980 0.20993365
v -0.10494420 -0.11100913 0.19681807
v -0.10494420 -0.11100913 0.20993792
v -0.09195951 -0.10249741 0.08294134
v -0.07761006 -0.10226632 0.07997218
v -0.05911659 -0.10885285 0.01314062
v -0.05135444 -0.11076523 0.01313557
v -0.05912009 -0.10891577 0.02626474
v -0.05135522 -0.11076135 0.02625697
v -0.05912397 -0.10891344 0.03938808
v -0.05135638 -0.11082349 0.03937954
v -0.05912397 -0.10891305 0.05250832
v -0.05135832 -0.11082349 0.05250133
v -0.09181503 -0.11094505 0.09367576
v -0.09185348 -0.10892470 0.08660531
v -0.09181853 -0.11113807 0.10499857
v -0.07871150 -0.11095049 0.09366721
v -0.07814641 -0.10899577 0.08561456
v -0.07869868 -0.11113807 0.10499857
v -0.05908280 -0.10892781 0.06555282
v -0.05135832 -0.11082349 0.06562117
v -0.06443700 -0.10875925 0.07994383
v -0.05131017 -0.11084058 0.07866295
v -0.06499976 -0.11097107 0.09269782
v -0.06557457 -0.11113807 0.10498420
v -0.05186244 -0.11099787 0.09177736
v -0.05245588 -0.11113846 0.10497216
v -0.03936206 -0.11075008 0.01313635
v -0.03935973 -0.11081494 0.02625192
v -0.02622746 -0.11075047 0.01313868
v -0.02622513 -0.11075047 0.02625076
v -0.03935895 -0.11087941 0.03937294
v -0.03935934 -0.11087941 0.05249589
v -0.02622202 -0.11075047 0.03937061
v -0.02622085 -0.11075047 0.05249162
v -0.01318140 -0.11087242 0.01312548
v -0.01321791 -0.11086660 0.02625542
v 0.00048178 -0.11232419 0.01379465
v 0.00088531 -0.11363730 0.02694169
v -0.01321830 -0.11086660 0.03937643
v -0.01321791 -0.11086660 0.05249705
v 0.00075249 -0.11361322 0.03937488
v 0.00075365 -0.11361516 0.05249006
v -0.03935934 -0.11087941 0.06561573
v -0.03935934 -0.11087941 0.07873558
v -0.02622085 -0.11075047 0.06561146
v -0.02622085 -0.11075047 0.07873131
v -0.03935041 -0.11094427 0.09185193
v -0.03933643 -0.11094427 0.10497372
v -0.02621891 -0.11075008 0.09184999
v -0.02621775 -0.11081494 0.10497061
v -0.01319344 -0.11087087 0.06562972
v -0.01313946 -0.11087708 0.07874840
v 0.00090162 -0.11365672 0.06460051
v 0.00049499 -0.11234593 0.07774249
v -0.01310955 -0.11087980 0.09185504
v -0.01310761 -0.11087980 0.10497410
v -0.00002816 -0.11100447 0.09189698
v 0.00001262 -0.11100913 0.10497915
v -0.09181348 -0.11113846 0.11810366
v -0.09181348 -0.11113846 0.13122312
v -0.07869363 -0.11113846 0.11810366
v -0.07869363 -0.11113846 0.13122312
v -0.09181348 -0.11113846 0.14434296
v -0.09181348 -0.11113846 0.15746281
v -0.07869363 -0.11113846 0.14434296
v -0.07869363 -0.11113846 0.15746281
v -0.06557379 -0.11113846 0.11810366
v -0.06557379 -0.11113846 0.13122312
v -0.05245394 -0.11113846 0.11810366
v -0.05245394 -0.11113846 0.13122312
v -0.06557379 -0.11113846 0.14434296
v -0.06557379 -0.11113846 0.15746281
v -0.05245394 -0.11113846 0.14434296
v -0.05245394 -0.11113846 0.15746281
v -0.09181542 -0.11113846 0.17058382
v -0.09181892 -0.11113846 0.18370366
v -0.07869363 -0.11113846 0.17058265
v -0.07869363 -0.11113846 0.18370250
v -0.09182008 -0.11113846 0.19682234
v -0.09182008 -0.11113846 0.20994219
v -0.07869363 -0.11113846 0.19682234
v -0.07869363 -0.11113846 0.20994219
v -0.06557379 -0.11113846 0.17058265
v -0.06557379 -0.11113846 0.18370250
v -0.05245394 -0.11113846 0.17058265
v -0.05245394 -0.11113846 0.18370250
v -0.06557379 -0.11113846 0.19682234
v -0.06557379 -0.11113846 0.20994219
v -0.05245394 -0.11113846 0.19682234
v -0.05245394 -0.11113846 0.20994219
v -0.03933099 -0.11100913 0.11809706
v -0.03933216 -0.11100913 0.13121884
v -0.02621658 -0.11087980 0.11809162
v -0.02621658 -0.11087980 0.13121457
v -0.03933216 -0.11100913 0.14433869
v -0.03933216 -0.11107360 0.15745854
v -0.02621658 -0.11087980 0.14433442
v -0.02621425 -0.11094427 0.15745310
v -0.01310412 -0.11087980 0.11809395
v -0.01310334 -0.11087980 0.13121457
v 0.00001262 -0.11100913 0.11809900
v 0.00001262 -0.11100913 0.13121884
v -0.01310334 -0.11087980 0.14433442
v -0.01310101 -0.11087980 0.15745310
v 0.00001262 -0.11100913 0.14433869
v 0.00001262 -0.11100913 0.15745854
v -0.03933293 -0.11113846 0.17058071
v -0.03933410 -0.11113846 0.18370250
v -0.02621231 -0.11094427 0.17057527
v -0.02621115 -0.11100913 0.18369590
v -0.03933410 -0.11113846 0.19682234
v -0.03933410 -0.11113846 0.20994219
v -0.02621231 -0.11100913 0.19681807
v -0.02621231 -0.11100913 0.20993792
v -0.01309984 -0.11094427 0.17057411
v -0.01309907 -0.11100913 0.18369512
v 0.00001456 -0.11100913 0.17057722
v 0.00001806 -0.11100913 0.18369706
v -0.01309907 -0.11100913 0.19681807
v -0.01309907 -0.11100913 0.20993792
v 0.00001922 -0.11100913 0.19681807
v 0.00001922 -0.11100913 0.20993792
v -0.19676564 -0.08017375 0.29989708
v -0.18364347 -0.08017103 0.29989708
v -0.19676331 -0.09327146 0.29983183
v -0.19676525 -0.10249819 0.29971687
v -0.18364541 -0.09327068 0.29989630
v -0.18364968 -0.10249974 0.29978095
v -0.17052362 -0.08017103 0.29989708
v -0.15740377 -0.08017103 0.29989708
v -0.17052362 -0.09326951 0.29989630
v -0.17052673 -0.10249935 0.29978095
v -0.15740377 -0.09326951 0.29989630
v -0.15740688 -0.10249935 0.29978095
v -0.14428393 -0.08017103 0.29989708
v -0.13116408 -0.08017103 0.29989708
v -0.14428393 -0.09326951 0.29989630
v -0.14428704 -0.10249935 0.29978095
v -0.13116408 -0.09326951 0.29989630
v -0.13116719 -0.10249935 0.29978095
v -0.11804424 -0.08017103 0.29989708
v -0.10493332 -0.08017724 0.29989747
v -0.11804424 -0.09326951 0.29989630
v -0.11804890 -0.10249741 0.29978290
v -0.10492439 -0.09326951 0.29989630
v -0.10492905 -0.10249469 0.29978639
v -0.19677419 -0.11087941 0.22305349
v -0.19677185 -0.11087941 0.23617217
v -0.18366172 -0.11087980 0.22305543
v -0.18366055 -0.11087980 0.23617295
v -0.19677302 -0.11087941 0.24929396
v -0.19677419 -0.11094427 0.26241264
v -0.18366055 -0.11087980 0.24929279
v -0.18365861 -0.11081494 0.26241186
v -0.17053877 -0.11075008 0.22305233
v -0.17053877 -0.11075047 0.23616868
v -0.15742436 -0.11075047 0.22305000
v -0.15742552 -0.11075047 0.23616868
v -0.17053877 -0.11075047 0.24928852
v -0.17054110 -0.11075047 0.26240953
v -0.15742552 -0.11075047 0.24928852
v -0.15742552 -0.11075047 0.26240837
v -0.19677729 -0.11087941 0.27552549
v -0.19677185 -0.11077416 0.28783557
v -0.18365861 -0.11075008 0.27552122
v -0.18365123 -0.11064600 0.28783013
v -0.20113918 -0.10880780 0.29598998
v -0.18802167 -0.10874682 0.29598765
v -0.17054420 -0.11075047 0.27551889
v -0.17053760 -0.11064600 0.28783013
v -0.15742552 -0.11075047 0.27551811
v -0.15741814 -0.11064600 0.28783013
v -0.17490532 -0.10874876 0.29598649
v -0.16178547 -0.10874876 0.29598649
v -0.14430568 -0.11075047 0.22304883
v -0.14430568 -0.11075047 0.23616868
v -0.13118583 -0.11075047 0.22304883
v -0.13118583 -0.11075047 0.23616868
v -0.14430568 -0.11075047 0.24928852
v -0.14430568 -0.11075047 0.26240837
v -0.13118583 -0.11075047 0.24928852
v -0.13118583 -0.11075047 0.26240837
v -0.11806832 -0.11087980 0.22305349
v -0.11806832 -0.11087980 0.23617295
v -0.10494420 -0.11100913 0.22305776
v -0.10494420 -0.11100913 0.23617761
v -0.11806832 -0.11087980 0.24929279
v -0.11806832 -0.11087980 0.26241264
v -0.10494420 -0.11100913 0.24929745
v -0.10494420 -0.11100913 0.26241691
v -0.14430568 -0.11075047 0.27551811
v -0.14429830 -0.11064600 0.28783013
v -0.13118583 -0.11075047 0.27551811
v -0.13117845 -0.11064600 0.28783013
v -0.14866601 -0.10874876 0.29598649
v -0.13554617 -0.10874876 0.29598649
v -0.11806832 -0.11087980 0.27552239
v -0.11806094 -0.11070892 0.28783440
v -0.10494420 -0.11100913 0.27552666
v -0.10493915 -0.11077067 0.28783984
v -0.12242749 -0.10874682 0.29598882
v -0.10930764 -0.10881091 0.29599192
v -0.09181736 -0.08021686 0.29994873
v -0.07869868 -0.08022385 0.29988426
v -0.09181426 -0.09327728 0.29989669
v -0.09180765 -0.10249353 0.29978717
v -0.07870451 -0.09332078 0.29988349
v -0.07868742 -0.10249275 0.29978717
v -0.06558311 -0.08026424 0.29987067
v -0.05245783 -0.08026502 0.29987067
v -0.06558272 -0.09335806 0.29993436
v -0.06556874 -0.10249353 0.29972270
v -0.05245550 -0.09335729 0.29986950
v -0.05244928 -0.10249353 0.29965784
v -0.03933798 -0.08026502 0.29987067
v -0.02621814 -0.08026308 0.29987067
v -0.03933759 -0.09335884 0.29986950
v -0.03934070 -0.10249391 0.29965784
v -0.02621775 -0.09335923 0.29986950
v -0.02623367 -0.10256149 0.29965473
v -0.01309674 -0.08022657 0.29990291
v 0.00002078 -0.08022268 0.29996776
v -0.01309907 -0.09335845 0.29993475
v -0.01311150 -0.10262946 0.29965357
v 0.00001884 -0.09332311 0.29990252
v 0.00001534 -0.10262946 0.29972037
v -0.09182008 -0.11113846 0.22306204
v -0.09182008 -0.11113846 0.23618188
v -0.07869363 -0.11113846 0.22306204
v -0.07869363 -0.11113846 0.23618188
v -0.09182008 -0.11113846 0.24930173
v -0.09182008 -0.11113846 0.26242157
v -0.07869363 -0.11113846 0.24930173
v -0.07869363 -0.11113846 0.26242157
v -0.06557379 -0.11113846 0.22306204
v -0.06557379 -0.11113846 0.23618188
v -0.05245394 -0.11113846 0.22306204
v -0.05245394 -0.11113846 0.23618188
v -0.06557379 -0.11113846 0.24930173
v -0.06557379 -0.11113846 0.26242157
v -0.05245394 -0.11113846 0.24930173
v -0.05245394 -0.11113846 0.26242157
v -0.09182008 -0.11113846 0.27553093
v -0.09181659 -0.11089922 0.28784489
v -0.07869363 -0.11113846 0.27553093
v -0.07869053 -0.11089922 0.28784528
v -0.09618702 -0.10887343 0.29599620
v -0.08306251 -0.10887266 0.29599736
v -0.06557379 -0.11113846 0.27553093
v -0.06557068 -0.11089883 0.28784528
v -0.05245394 -0.11113846 0.27553093
v -0.05245084 -0.11089883 0.28784528
v -0.06994150 -0.10887033 0.29599736
v -0.05682166 -0.10886722 0.29599697
v -0.03933410 -0.11113846 0.22306204
v -0.03933410 -0.11113846 0.23618188
v -0.02621231 -0.11100913 0.22305776
v -0.02621231 -0.11107360 0.23617761
v -0.03933410 -0.11113846 0.24930173
v -0.03933410 -0.11113846 0.26242157
v -0.02621348 -0.11113846 0.24929940
v -0.02621425 -0.11113846 0.26242157
v -0.01309907 -0.11100913 0.22305776
v -0.01309674 -0.11107360 0.23617644
v 0.00001922 -0.11100913 0.22305776
v 0.00002117 -0.11100913 0.23617644
v -0.01309480 -0.11107360 0.24929823
v -0.01309363 -0.11113846 0.26241924
v 0.00002233 -0.11107360 0.24929745
v 0.00002350 -0.11113846 0.26241808
v -0.03933449 -0.11113846 0.27553093
v -0.03933915 -0.11089883 0.28784528
v -0.02621464 -0.11113846 0.27553015
v -0.02623212 -0.11096641 0.28784178
v -0.04371113 -0.10886606 0.29599697
v -0.03059595 -0.10893324 0.29599387
v -0.01309441 -0.11113846 0.27552977
v -0.01310878 -0.11103205 0.28784023
v 0.00002350 -0.11113846 0.27552977
v 0.00001767 -0.11103088 0.28784178
v -0.01747610 -0.10893247 0.29599542
v -0.00436286 -0.10900199 0.29599192
v 0.01287808 -0.06711138 -0.29996776
v 0.01261165 -0.08021686 -0.29996776
v 0.02599326 -0.06711294 -0.29996776
v 0.02599365 -0.08018851 -0.29993553
v 0.01262253 -0.09330408 -0.29993475
v 0.01262757 -0.10261237 -0.29981552
v 0.02572567 -0.09337088 -0.29996582
v 0.02568411 -0.10266674 -0.29949821
v 0.03937993 -0.06708109 -0.29993514
v 0.03911932 -0.08021763 -0.29996776
v 0.03883542 -0.09335302 -0.29996621
v 0.03882260 -0.10262169 -0.29952579
v 0.01267612 -0.11083475 -0.28789149
v 0.01264855 -0.10894140 -0.29602416
v 0.02576451 -0.11096758 -0.28785421
v 0.02573460 -0.10896043 -0.29574142
v 0.01267535 -0.11100913 -0.27550064
v 0.01267573 -0.11094427 -0.26237652
v 0.02579131 -0.11100913 -0.27549714
v 0.02579286 -0.11094427 -0.26237535
v 0.03884979 -0.11100331 -0.28753807
v 0.03884823 -0.10903422 -0.29601212
v 0.03891542 -0.11107399 -0.27549442
v 0.03891348 -0.11107399 -0.26237302
v 0.01267651 -0.11094427 -0.24925862
v 0.01267651 -0.11094427 -0.23613877
v 0.02579286 -0.11094427 -0.24925862
v 0.02579286 -0.11094427 -0.23613877
v 0.01267651 -0.11094427 -0.22301893
v 0.01267651 -0.11094427 -0.20989947
v 0.02579286 -0.11094427 -0.22301893
v 0.02579286 -0.11094427 -0.20989947
v 0.03891232 -0.11107399 -0.24925434
v 0.03891232 -0.11107399 -0.23613450
v 0.03891232 -0.11107399 -0.22301465
v 0.03891232 -0.11107399 -0.20989481
v 0.01267651 -0.11094427 -0.19677962
v 0.01267651 -0.11094427 -0.18365978
v 0.02579286 -0.11094427 -0.19677962
v 0.02579286 -0.11094427 -0.18365978
v 0.01267651 -0.11094427 -0.17053993
v 0.01267651 -0.11094427 -0.15742009
v 0.02579286 -0.11094427 -0.17053993
v 0.02579286 -0.11094427 -0.15742009
v 0.03891232 -0.11107399 -0.19677535
v 0.03891232 -0.11107399 -0.18365550
v 0.03891232 -0.11107399 -0.17053566
v 0.03891232 -0.11107399 -0.15741581
v 0.01267651 -0.11094427 -0.14430024
v 0.01267651 -0.11094427 -0.13118040
v 0.02579286 -0.11094427 -0.14430024
v 0.02579286 -0.11094427 -0.13118040
v 0.01267651 -0.11094427 -0.11806055
v 0.01267651 -0.11094427 -0.10494070
v 0.02579286 -0.11094427 -0.11806055
v 0.02579286 -0.11094427 -0.10494070
v 0.03891232 -0.11107399 -0.14429597
v 0.03891232 -0.11107399 -0.13117612
v 0.03891232 -0.11107399 -0.11805628
v 0.03891232 -0.11107399 -0.10493643
v 0.01267651 -0.11094427 -0.09182086
v 0.01267651 -0.11094427 -0.07870101
v 0.02579286 -0.11094427 -0.09182086
v 0.02579286 -0.11094427 -0.07870101
v 0.01267651 -0.11094427 -0.06558156
v 0.01267884 -0.11100913 -0.05246249
v 0.02579286 -0.11094427 -0.06558156
v 0.02579519 -0.11094427 -0.05246249
v 0.03891232 -0.11107399 -0.09181659
v 0.03891232 -0.11107399 -0.07869674
v 0.03891232 -0.11107399 -0.06557728
v 0.03891232 -0.11107399 -0.05245744
v 0.01268156 -0.11100913 -0.03934070
v 0.01268272 -0.11107360 -0.02621969
v 0.02579636 -0.11100913 -0.03934187
v 0.02579752 -0.11107399 -0.02622085
v 0.01268156 -0.11107360 -0.01309790
v 0.01268117 -0.11106389 -0.00007593
v 0.02579791 -0.11107360 -0.01309790
v 0.02581267 -0.11106661 -0.00005729
v 0.03891465 -0.11107399 -0.03933876
v 0.03891814 -0.11107360 -0.02621891
v 0.03891931 -0.11107360 -0.01309790
v 0.03893446 -0.11107127 -0.00000913
v 0.01266175 -0.11370915 0.01447043
v 0.01306450 -0.11832309 0.02776039
v 0.02522388 -0.11373478 0.01462812
v 0.02563596 -0.11829552 0.02474890
v 0.01058586 -0.11847379 0.04007823
v 0.01049071 -0.11845864 0.05247297
v 0.03887853 -0.11241934 0.01395622
v 0.03862375 -0.11646470 0.02888475
v 0.01059169 -0.11838718 0.06361403
v 0.01409254 -0.11647868 0.07669115
v 0.03003707 -0.11837669 0.07929252
v 0.01319189 -0.11241196 0.09089341
v 0.01266408 -0.11107166 0.10500479
v 0.02580956 -0.11373478 0.09001994
v 0.02578587 -0.11106700 0.10504790
v 0.01267535 -0.11107360 0.11810016
v 0.01267535 -0.11107360 0.13122001
v 0.02579791 -0.11107360 0.11810016
v 0.02579791 -0.11107360 0.13122001
v 0.01267535 -0.11107360 0.14433986
v 0.01267535 -0.11107360 0.15745970
v 0.02579791 -0.11107360 0.14433986
v 0.02579791 -0.11107360 0.15745970
v 0.01267535 -0.11107360 0.17057955
v 0.01267535 -0.11107360 0.18369939
v 0.02579791 -0.11107360 0.17057955
v 0.02579791 -0.11107360 0.18369939
v 0.01267535 -0.11107360 0.19681924
v 0.01267535 -0.11107360 0.20993869
v 0.02579791 -0.11107360 0.19681924
v 0.02579791 -0.11107360 0.20993869
v 0.01261282 -0.08018307 0.29993514
v 0.02599249 -0.08022152 0.29996776
v 0.01261398 -0.09328660 0.29993475
v 0.01260738 -0.10262790 0.29978406
v 0.02572917 -0.09328583 0.29993475
v 0.02572761 -0.10259256 0.29981824
v 0.01267535 -0.11107360 0.22305854
v 0.01267535 -0.11107360 0.23617839
v 0.02579791 -0.11107360 0.22305854
v 0.02579791 -0.11107360 0.23617839
v 0.01267729 -0.11107360 0.24929707
v 0.01268039 -0.11107360 0.26241691
v 0.02579791 -0.11107360 0.24929823
v 0.02579791 -0.11107360 0.26241808
v 0.01268195 -0.11107360 0.27552705
v 0.01264311 -0.11099903 0.28783945
v 0.02579791 -0.11107360 0.27552782
v 0.02575946 -0.11096563 0.28787402
v 0.00849949 -0.10900587 0.29599309
v 0.02138747 -0.10893985 0.29602688
v 0.01900399 -0.12369594 0.03485919
v 0.01804896 -0.12322017 0.04080373
v 0.02574509 -0.12515702 0.04075867
v 0.02571829 -0.12298831 0.03346607
v 0.01790332 -0.12322522 0.05245783
v 0.02570819 -0.12524945 0.05247142
v 0.03039904 -0.12203678 0.03288700
v 0.03331577 -0.12305161 0.03726132
v 0.03346413 -0.12321745 0.04811108
v 0.01787691 -0.12305899 0.06367850
v 0.02567285 -0.12511624 0.06369597
v 0.02184964 -0.12301316 0.07051864
v 0.01752349 -0.12212844 0.06917096
v 0.03344044 -0.12315026 0.06029105
v 0.03046273 -0.12215057 0.06932709
f 2 4 1
f 2 5 4
f 2 6 5
f 2 3 6
f 3 8 6
f 3 7 8
f 5 9 4
f 5 10 9
f 5 11 10
f 5 6 11
f 10 12 9
f 10 13 12
f 10 14 13
f 10 11 14
f 6 15 11
f 6 8 15
f 11 16 14
f 11 15 16
f 1 18 17
f 1 4 18
f 17 20 19
f 17 18 20
f 4 21 18
f 4 9 21
f 9 22 21
f 9 12 22
f 18 23 20
f 18 21 23
f 21 24 23
f 21 22 24
f 19 26 25
f 19 20 26
f 25 28 27
f 25 26 28
f 20 29 26
f 20 23 29
f 23 30 29
f 23 24 30
f 26 31 28
f 26 29 31
f 29 32 31
f 29 30 32
f 27 34 33
f 27 28 34
f 33 36 35
f 33 34 36
f 28 37 34
f 28 31 37
f 31 38 37
f 31 32 38
f 34 39 36
f 34 37 39
f 37 40 39
f 37 38 40
f 41 43 42
f 41 44 43
f 13 42 12
f 13 41 42
f 13 44 41
f 13 14 44
f 44 45 43
f 44 46 45
f 14 46 44
f 14 16 46
f 42 48 47
f 42 43 48
f 12 47 22
f 12 42 47
f 47 50 49
f 47 48 50
f 22 49 24
f 22 47 49
f 43 51 48
f 43 45 51
f 48 52 50
f 48 51 52
f 49 54 53
f 49 50 54
f 24 53 30
f 24 49 53
f 53 56 55
f 53 54 56
f 30 55 32
f 30 53 55
f 50 57 54
f 50 52 57
f 54 58 56
f 54 57 58
f 55 60 59
f 55 56 60
f 32 59 38
f 32 55 59
f 59 62 61
f 59 60 62
f 38 61 40
f 38 59 61
f 56 63 60
f 56 58 63
f 60 64 62
f 60 63 64
f 35 66 65
f 35 36 66
f 65 68 67
f 65 66 68
f 36 69 66
f 36 39 69
f 39 70 69
f 39 40 70
f 66 71 68
f 66 69 71
f 69 72 71
f 69 70 72
f 67 74 73
f 67 68 74
f 73 76 75
f 73 74 76
f 68 77 74
f 68 71 77
f 71 78 77
f 71 72 78
f 74 79 76
f 74 77 79
f 77 80 79
f 77 78 80
f 75 82 81
f 75 76 82
f 81 84 83
f 81 82 84
f 76 85 82
f 76 79 85
f 79 86 85
f 79 80 86
f 82 87 84
f 82 85 87
f 85 88 87
f 85 86 88
f 83 90 89
f 83 84 90
f 89 92 91
f 89 90 92
f 84 93 90
f 84 87 93
f 87 94 93
f 87 88 94
f 90 95 92
f 90 93 95
f 93 96 95
f 93 94 96
f 61 98 97
f 61 62 98
f 40 97 70
f 40 61 97
f 97 100 99
f 97 98 100
f 70 99 72
f 70 97 99
f 62 101 98
f 62 64 101
f 98 102 100
f 98 101 102
f 99 104 103
f 99 100 104
f 72 103 78
f 72 99 103
f 103 106 105
f 103 104 106
f 78 105 80
f 78 103 105
f 100 107 104
f 100 102 107
f 104 108 106
f 104 107 108
f 105 110 109
f 105 106 110
f 80 109 86
f 80 105 109
f 109 112 111
f 109 110 112
f 86 111 88
f 86 109 111
f 106 113 110
f 106 108 113
f 110 114 112
f 110 113 114
f 111 116 115
f 111 112 116
f 88 115 94
f 88 111 115
f 115 118 117
f 115 116 118
f 94 117 96
f 94 115 117
f 112 119 116
f 112 114 119
f 116 120 118
f 116 119 120
f 91 122 121
f 91 92 122
f 121 124 123
f 121 122 124
f 92 125 122
f 92 95 125
f 95 126 125
f 95 96 126
f 122 127 124
f 122 125 127
f 125 128 127
f 125 126 128
f 123 130 129
f 123 124 130
f 129 132 131
f 129 130 132
f 124 133 130
f 124 127 133
f 127 134 133
f 127 128 134
f 130 135 132
f 130 133 135
f 133 136 135
f 133 134 136
f 131 138 137
f 131 132 138
f 137 140 139
f 137 138 140
f 132 141 138
f 132 135 141
f 135 142 141
f 135 136 142
f 138 143 140
f 138 141 143
f 141 144 143
f 141 142 144
f 139 146 145
f 139 140 146
f 145 148 147
f 145 146 148
f 140 149 146
f 140 143 149
f 143 150 149
f 143 144 150
f 146 151 148
f 146 149 151
f 149 152 151
f 149 150 152
f 117 154 153
f 117 118 154
f 96 153 126
f 96 117 153
f 153 156 155
f 153 154 156
f 126 155 128
f 126 153 155
f 118 157 154
f 118 120 157
f 154 158 156
f 154 157 158
f 155 160 159
f 155 156 160
f 128 159 134
f 128 155 159
f 159 162 161
f 159 160 162
f 134 161 136
f 134 159 161
f 156 163 160
f 156 158 163
f 160 164 162
f 160 163 164
f 161 166 165
f 161 162 166
f 136 165 142
f 136 161 165
f 165 168 167
f 165 166 168
f 142 167 144
f 142 165 167
f 162 169 166
f 162 164 169
f 166 170 168
f 166 169 170
f 167 172 171
f 167 168 172
f 144 171 150
f 144 167 171
f 171 174 173
f 171 172 174
f 150 173 152
f 150 171 173
f 168 175 172
f 168 170 175
f 172 176 174
f 172 175 176
f 7 178 8
f 7 177 178
f 177 180 178
f 177 179 180
f 8 181 15
f 8 178 181
f 15 182 16
f 15 181 182
f 178 183 181
f 178 180 183
f 181 184 182
f 181 183 184
f 179 186 180
f 179 185 186
f 185 188 186
f 185 187 188
f 180 189 183
f 180 186 189
f 183 190 184
f 183 189 190
f 186 191 189
f 186 188 191
f 189 192 190
f 189 191 192
f 187 194 188
f 187 193 194
f 193 196 194
f 193 195 196
f 188 197 191
f 188 194 197
f 191 198 192
f 191 197 198
f 194 199 197
f 194 196 199
f 197 200 198
f 197 199 200
f 195 202 196
f 195 201 202
f 201 204 202
f 201 203 204
f 196 205 199
f 196 202 205
f 199 206 200
f 199 205 206
f 202 207 205
f 202 204 207
f 205 208 206
f 205 207 208
f 46 209 45
f 46 210 209
f 16 210 46
f 16 182 210
f 210 211 209
f 210 212 211
f 182 212 210
f 182 184 212
f 45 213 51
f 45 209 213
f 51 214 52
f 51 213 214
f 209 215 213
f 209 211 215
f 213 216 214
f 213 215 216
f 212 217 211
f 212 218 217
f 184 218 212
f 184 190 218
f 218 219 217
f 218 220 219
f 190 220 218
f 190 192 220
f 211 221 215
f 211 217 221
f 215 222 216
f 215 221 222
f 217 223 221
f 217 219 223
f 221 224 222
f 221 223 224
f 52 225 57
f 52 214 225
f 57 226 58
f 57 225 226
f 214 227 225
f 214 216 227
f 225 228 226
f 225 227 228
f 58 229 63
f 58 226 229
f 63 230 64
f 63 229 230
f 226 231 229
f 226 228 231
f 229 232 230
f 229 231 232
f 216 233 227
f 216 222 233
f 227 234 228
f 227 233 234
f 222 235 233
f 222 224 235
f 233 236 234
f 233 235 236
f 228 237 231
f 228 234 237
f 231 238 232
f 231 237 238
f 234 239 237
f 234 236 239
f 237 240 238
f 237 239 240
f 220 241 219
f 220 242 241
f 192 242 220
f 192 198 242
f 242 243 241
f 242 244 243
f 198 244 242
f 198 200 244
f 219 245 223
f 219 241 245
f 223 246 224
f 223 245 246
f 241 247 245
f 241 243 247
f 245 248 246
f 245 247 248
f 244 249 243
f 244 250 249
f 200 250 244
f 200 206 250
f 250 251 249
f 250 252 251
f 206 252 250
f 206 208 252
f 243 253 247
f 243 249 253
f 247 254 248
f 247 253 254
f 249 255 253
f 249 251 255
f 253 256 254
f 253 255 256
f 224 257 235
f 224 246 257
f 235 258 236
f 235 257 258
f 246 259 257
f 246 248 259
f 257 260 258
f 257 259 260
f 236 261 239
f 236 258 261
f 239 262 240
f 239 261 262
f 258 263 261
f 258 260 263
f 261 264 262
f 261 263 264
f 248 265 259
f 248 254 265
f 259 266 260
f 259 265 266
f 254 267 265
f 254 256 267
f 265 268 266
f 265 267 268
f 260 269 263
f 260 266 269
f 263 270 264
f 263 269 270
f 266 271 269
f 266 268 271
f 269 272 270
f 269 271 272
f 203 274 204
f 203 273 274
f 273 276 274
f 273 275 276
f 204 277 207
f 204 274 277
f 207 278 208
f 207 277 278
f 274 279 277
f 274 276 279
f 277 280 278
f 277 279 280
f 275 282 276
f 275 281 282
f 281 284 282
f 281 283 284
f 276 285 279
f 276 282 285
f 279 286 280
f 279 285 286
f 282 287 285
f 282 284 287
f 285 288 286
f 285 287 288
f 283 290 284
f 283 289 290
f 289 292 290
f 289 291 292
f 284 293 287
f 284 290 293
f 287 294 288
f 287 293 294
f 290 295 293
f 290 292 295
f 293 296 294
f 293 295 296
f 291 298 292
f 291 297 298
f 297 300 298
f 297 299 300
f 292 301 295
f 292 298 301
f 295 302 296
f 295 301 302
f 298 303 301
f 298 300 303
f 301 304 302
f 301 303 304
f 252 305 251
f 252 306 305
f 208 306 252
f 208 278 306
f 306 307 305
f 306 308 307
f 278 308 306
f 278 280 308
f 251 309 255
f 251 305 309
f 255 310 256
f 255 309 310
f 305 311 309
f 305 307 311
f 309 312 310
f 309 311 312
f 308 313 307
f 308 314 313
f 280 314 308
f 280 286 314
f 314 315 313
f 314 316 315
f 286 316 314
f 286 288 316
f 307 317 311
f 307 313 317
f 311 318 312
f 311 317 318
f 313 319 317
f 313 315 319
f 317 320 318
f 317 319 320
f 256 321 267
f 256 310 321
f 267 322 268
f 267 321 322
f 310 323 321
f 310 312 323
f 321 324 322
f 321 323 324
f 268 325 271
f 268 322 325
f 271 326 272
f 271 325 326
f 322 327 325
f 322 324 327
f 325 328 326
f 325 327 328
f 312 329 323
f 312 318 329
f 323 330 324
f 323 329 330
f 318 331 329
f 318 320 331
f 329 332 330
f 329 331 332
f 324 333 327
f 324 330 333
f 327 334 328
f 327 333 334
f 330 335 333
f 330 332 335
f 333 336 334
f 333 335 336
f 316 337 315
f 316 338 337
f 288 338 316
f 288 294 338
f 338 339 337
f 338 340 339
f 294 340 338
f 294 296 340
f 315 341 319
f 315 337 341
f 319 342 320
f 319 341 342
f 337 343 341
f 337 339 343
f 341 344 342
f 341 343 344
f 340 345 339
f 340 346 345
f 296 346 340
f 296 302 346
f 346 347 345
f 346 348 347
f 302 348 346
f 302 304 348
f 339 349 343
f 339 345 349
f 343 350 344
f 343 349 350
f 345 351 349
f 345 347 351
f 349 352 350
f 349 351 352
f 320 353 331
f 320 342 353
f 331 354 332
f 331 353 354
f 342 355 353
f 342 344 355
f 353 356 354
f 353 355 356
f 332 357 335
f 332 354 357
f 335 358 336
f 335 357 358
f 354 359 357
f 354 356 359
f 357 360 358
f 357 359 360
f 344 361 355
f 344 350 361
f 355 362 356
f 355 361 362
f 350 363 361
f 350 352 363
f 361 364 362
f 361 363 364
f 356 365 359
f 356 362 365
f 359 366 360
f 359 365 366
f 362 367 365
f 362 364 367
f 365 368 366
f 365 367 368
f 64 369 101
f 64 230 369
f 101 370 102
f 101 369 370
f 230 371 369
f 230 232 371
f 369 372 370
f 369 371 372
f 102 373 107
f 102 370 373
f 107 374 108
f 107 373 374
f 370 375 373
f 370 372 375
f 373 376 374
f 373 375 376
f 232 377 371
f 232 238 377
f 371 378 372
f 371 377 378
f 238 379 377
f 238 240 379
f 377 380 378
f 377 379 380
f 372 381 375
f 372 378 381
f 375 382 376
f 375 381 382
f 378 383 381
f 378 380 383
f 381 384 382
f 381 383 384
f 108 385 113
f 108 374 385
f 113 386 114
f 113 385 386
f 374 387 385
f 374 376 387
f 385 388 386
f 385 387 388
f 114 389 119
f 114 386 389
f 119 390 120
f 119 389 390
f 386 391 389
f 386 388 391
f 389 392 390
f 389 391 392
f 376 393 387
f 376 382 393
f 387 394 388
f 387 393 394
f 382 395 393
f 382 384 395
f 393 396 394
f 393 395 396
f 388 397 391
f 388 394 397
f 391 398 392
f 391 397 398
f 394 399 397
f 394 396 399
f 397 400 398
f 397 399 400
f 240 401 379
f 240 262 401
f 379 402 380
f 379 401 402
f 262 403 401
f 262 264 403
f 401 404 402
f 401 403 404
f 380 405 383
f 380 402 405
f 383 406 384
f 383 405 406
f 402 407 405
f 402 404 407
f 405 408 406
f 405 407 408
f 264 409 403
f 264 270 409
f 403 410 404
f 403 409 410
f 270 411 409
f 270 272 411
f 409 412 410
f 409 411 412
f 404 413 407
f 404 410 413
f 407 414 408
f 407 413 414
f 410 415 413
f 410 412 415
f 413 416 414
f 413 415 416
f 384 417 395
f 384 406 417
f 395 418 396
f 395 417 418
f 406 419 417
f 406 408 419
f 417 420 418
f 417 419 420
f 396 421 399
f 396 418 421
f 399 422 400
f 399 421 422
f 418 423 421
f 418 420 423
f 421 424 422
f 421 423 424
f 408 425 419
f 408 414 425
f 419 426 420
f 419 425 426
f 414 427 425
f 414 416 427
f 425 428 426
f 425 427 428
f 420 429 423
f 420 426 429
f 423 430 424
f 423 429 430
f 426 431 429
f 426 428 431
f 429 432 430
f 429 431 432
f 120 435 157
f 120 390 435
f 157 436 158
f 157 435 436
f 390 437 435
f 390 392 437
f 435 438 436
f 435 437 438
f 158 439 163
f 158 436 439
f 163 440 164
f 163 439 440
f 436 441 439
f 436 438 441
f 439 442 440
f 439 441 442
f 392 443 437
f 392 398 443
f 437 444 438
f 437 443 444
f 398 445 443
f 398 400 445
f 443 446 444
f 443 445 446
f 438 447 441
f 438 444 447
f 441 448 442
f 441 447 448
f 444 449 447
f 444 446 449
f 447 450 448
f 447 449 450
f 164 451 169
f 164 440 451
f 169 452 170
f 169 451 452
f 440 453 451
f 440 442 453
f 451 454 452
f 451 453 454
f 170 455 175
f 170 452 455
f 175 456 176
f 175 455 456
f 452 457 455
f 452 454 457
f 455 458 456
f 455 457 458
f 442 459 453
f 442 448 459
f 453 460 454
f 453 459 460
f 448 461 459
f 448 450 461
f 459 462 460
f 459 461 462
f 454 463 457
f 454 460 463
f 457 464 458
f 457 463 464
f 460 465 463
f 460 462 465
f 433 466 465
f 433 434 466
f 463 466 464
f 463 465 466
f 400 467 445
f 400 422 467
f 445 468 446
f 445 467 468
f 422 469 467
f 422 424 469
f 467 470 468
f 467 469 470
f 446 471 449
f 446 468 471
f 449 472 450
f 449 471 472
f 468 473 471
f 468 470 473
f 471 474 472
f 471 473 474
f 424 475 469
f 424 430 475
f 469 476 470
f 469 475 476
f 430 477 475
f 430 432 477
f 475 478 476
f 475 477 478
f 470 479 473
f 470 476 479
f 473 480 474
f 473 479 480
f 476 481 479
f 476 478 481
f 479 482 480
f 479 481 482
f 450 483 461
f 450 472 483
f 461 484 462
f 461 483 484
f 472 485 483
f 472 474 485
f 483 486 484
f 483 485 486
f 433 465 487
f 462 487 465
f 462 484 487
f 484 488 487
f 484 486 488
f 474 489 485
f 474 480 489
f 485 490 486
f 485 489 490
f 480 491 489
f 480 482 491
f 489 492 490
f 489 491 492
f 486 493 488
f 486 490 493
f 490 494 493
f 490 492 494
f 272 495 411
f 272 326 495
f 411 496 412
f 411 495 496
f 326 497 495
f 326 328 497
f 495 498 496
f 495 497 498
f 412 499 415
f 412 496 499
f 415 500 416
f 415 499 500
f 496 501 499
f 496 498 501
f 499 502 500
f 499 501 502
f 328 503 497
f 328 334 503
f 497 504 498
f 497 503 504
f 334 505 503
f 334 336 505
f 503 506 504
f 503 505 506
f 498 507 501
f 498 504 507
f 501 508 502
f 501 507 508
f 504 509 507
f 504 506 509
f 507 510 508
f 507 509 510
f 416 511 427
f 416 500 511
f 427 512 428
f 427 511 512
f 500 513 511
f 500 502 513
f 511 514 512
f 511 513 514
f 428 515 431
f 428 512 515
f 431 516 432
f 431 515 516
f 512 517 515
f 512 514 517
f 515 518 516
f 515 517 518
f 502 519 513
f 502 508 519
f 513 520 514
f 513 519 520
f 508 521 519
f 508 510 521
f 519 522 520
f 519 521 522
f 514 523 517
f 514 520 523
f 517 524 518
f 517 523 524
f 520 525 523
f 520 522 525
f 523 526 524
f 523 525 526
f 336 527 505
f 336 358 527
f 505 528 506
f 505 527 528
f 358 529 527
f 358 360 529
f 527 530 528
f 527 529 530
f 506 531 509
f 506 528 531
f 509 532 510
f 509 531 532
f 528 533 531
f 528 530 533
f 531 534 532
f 531 533 534
f 360 535 529
f 360 366 535
f 529 536 530
f 529 535 536
f 366 537 535
f 366 368 537
f 535 538 536
f 535 537 538
f 530 539 533
f 530 536 539
f 533 540 534
f 533 539 540
f 536 541 539
f 536 538 541
f 539 542 540
f 539 541 542
f 510 543 521
f 510 532 543
f 521 544 522
f 521 543 544
f 532 545 543
f 532 534 545
f 543 546 544
f 543 545 546
f 522 547 525
f 522 544 547
f 525 548 526
f 525 547 548
f 544 549 547
f 544 546 549
f 547 550 548
f 547 549 550
f 534 551 545
f 534 540 551
f 545 552 546
f 545 551 552
f 540 553 551
f 540 542 553
f 551 554 552
f 551 553 554
f 546 555 549
f 546 552 555
f 549 556 550
f 549 555 556
f 552 557 555
f 552 554 557
f 555 558 556
f 555 557 558
f 432 559 477
f 432 516 559
f 477 560 478
f 477 559 560
f 516 561 559
f 516 518 561
f 559 562 560
f 559 561 562
f 478 563 481
f 478 560 563
f 481 564 482
f 481 563 564
f 560 565 563
f 560 562 565
f 563 566 564
f 563 565 566
f 518 567 561
f 518 524 567
f 561 568 562
f 561 567 568
f 524 569 567
f 524 526 569
f 567 570 568
f 567 569 570
f 562 571 565
f 562 568 571
f 565 572 566
f 565 571 572
f 568 573 571
f 568 570 573
f 571 574 572
f 571 573 574
f 482 575 491
f 482 564 575
f 491 576 492
f 491 575 576
f 564 577 575
f 564 566 577
f 575 578 576
f 575 577 578
f 492 579 494
f 492 576 579
f 576 580 579
f 576 578 580
f 566 581 577
f 566 572 581
f 577 582 578
f 577 581 582
f 572 583 581
f 572 574 583
f 581 584 582
f 581 583 584
f 578 585 580
f 578 582 585
f 582 586 585
f 582 584 586
f 585 588 587
f 585 586 588
f 526 589 569
f 526 548 589
f 569 590 570
f 569 589 590
f 548 591 589
f 548 550 591
f 589 592 590
f 589 591 592
f 570 593 573
f 570 590 593
f 573 594 574
f 573 593 594
f 590 595 593
f 590 592 595
f 593 596 594
f 593 595 596
f 550 597 591
f 550 556 597
f 591 598 592
f 591 597 598
f 556 599 597
f 556 558 599
f 597 600 598
f 597 599 600
f 592 601 595
f 592 598 601
f 595 602 596
f 595 601 602
f 598 603 601
f 598 600 603
f 601 604 602
f 601 603 604
f 574 605 583
f 574 594 605
f 583 606 584
f 583 605 606
f 594 607 605
f 594 596 607
f 605 608 606
f 605 607 608
f 584 609 586
f 584 606 609
f 586 610 588
f 586 609 610
f 606 611 609
f 606 608 611
f 609 612 610
f 609 611 612
f 596 613 607
f 596 602 613
f 607 614 608
f 607 613 614
f 602 615 613
f 602 604 615
f 613 616 614
f 613 615 616
f 608 617 611
f 608 614 617
f 611 618 612
f 611 617 618
f 614 619 617
f 614 616 619
f 617 620 618
f 617 619 620
f 147 622 621
f 147 148 622
f 621 624 623
f 621 622 624
f 148 625 622
f 148 151 625
f 151 626 625
f 151 152 626
f 622 627 624
f 622 625 627
f 625 628 627
f 625 626 628
f 623 630 629
f 623 624 630
f 629 632 631
f 629 630 632
f 624 633 630
f 624 627 633
f 627 634 633
f 627 628 634
f 630 635 632
f 630 633 635
f 633 636 635
f 633 634 636
f 631 638 637
f 631 632 638
f 637 640 639
f 637 638 640
f 632 641 638
f 632 635 641
f 635 642 641
f 635 636 642
f 638 643 640
f 638 641 643
f 641 644 643
f 641 642 644
f 639 646 645
f 639 640 646
f 645 648 647
f 645 646 648
f 640 649 646
f 640 643 649
f 643 650 649
f 643 644 650
f 646 651 648
f 646 649 651
f 649 652 651
f 649 650 652
f 173 654 653
f 173 174 654
f 152 653 626
f 152 173 653
f 653 656 655
f 653 654 656
f 626 655 628
f 626 653 655
f 174 657 654
f 174 176 657
f 654 658 656
f 654 657 658
f 655 660 659
f 655 656 660
f 628 659 634
f 628 655 659
f 659 662 661
f 659 660 662
f 634 661 636
f 634 659 661
f 656 663 660
f 656 658 663
f 660 664 662
f 660 663 664
f 661 666 665
f 661 662 666
f 636 665 642
f 636 661 665
f 665 668 667
f 665 666 668
f 642 667 644
f 642 665 667
f 662 669 666
f 662 664 669
f 666 670 668
f 666 669 670
f 667 672 671
f 667 668 672
f 644 671 650
f 644 667 671
f 671 674 673
f 671 672 674
f 650 673 652
f 650 671 673
f 668 675 672
f 668 670 675
f 672 676 674
f 672 675 676
f 647 678 677
f 647 648 678
f 677 680 679
f 677 678 680
f 648 681 678
f 648 651 681
f 651 682 681
f 651 652 682
f 678 683 680
f 678 681 683
f 681 684 683
f 681 682 684
f 679 686 685
f 679 680 686
f 685 688 687
f 685 686 688
f 680 689 686
f 680 683 689
f 683 690 689
f 683 684 690
f 686 691 688
f 686 689 691
f 689 692 691
f 689 690 692
f 687 694 693
f 687 688 694
f 693 696 695
f 693 694 696
f 688 697 694
f 688 691 697
f 691 698 697
f 691 692 698
f 694 699 696
f 694 697 699
f 697 700 699
f 697 698 700
f 695 702 701
f 695 696 702
f 701 704 703
f 701 702 704
f 696 705 702
f 696 699 705
f 699 706 705
f 699 700 706
f 702 707 704
f 702 705 707
f 705 708 707
f 705 706 708
f 673 710 709
f 673 674 710
f 652 709 682
f 652 673 709
f 709 712 711
f 709 710 712
f 682 711 684
f 682 709 711
f 674 713 710
f 674 676 713
f 710 714 712
f 710 713 714
f 711 716 715
f 711 712 716
f 684 715 690
f 684 711 715
f 715 718 717
f 715 716 718
f 690 717 692
f 690 715 717
f 712 719 716
f 712 714 719
f 716 720 718
f 716 719 720
f 717 722 721
f 717 718 722
f 692 721 698
f 692 717 721
f 721 724 723
f 721 722 724
f 698 723 700
f 698 721 723
f 718 725 722
f 718 720 725
f 722 726 724
f 722 725 726
f 723 728 727
f 723 724 728
f 700 727 706
f 700 723 727
f 727 730 729
f 727 728 730
f 706 729 708
f 706 727 729
f 724 731 728
f 724 726 731
f 728 732 730
f 728 731 732
f 703 734 733
f 703 704 734
f 733 736 735
f 733 734 736
f 704 737 734
f 704 707 737
f 707 738 737
f 707 708 738
f 734 739 736
f 734 737 739
f 737 740 739
f 737 738 740
f 735 742 741
f 735 736 742
f 741 744 743
f 741 742 744
f 736 745 742
f 736 739 745
f 739 746 745
f 739 740 746
f 742 747 744
f 742 745 747
f 745 748 747
f 745 746 748
f 743 750 749
f 743 744 750
f 749 752 751
f 749 750 752
f 744 753 750
f 744 747 753
f 747 754 753
f 747 748 754
f 750 755 752
f 750 753 755
f 753 756 755
f 753 754 756
f 757 759 758
f 751 759 757
f 751 752 759
f 759 761 758
f 759 762 761
f 752 762 759
f 752 755 762
f 762 763 761
f 762 764 763
f 755 764 762
f 755 756 764
f 758 765 760
f 758 761 765
f 761 766 765
f 761 763 766
f 729 768 767
f 729 730 768
f 708 767 738
f 708 729 767
f 767 770 769
f 767 768 770
f 738 769 740
f 738 767 769
f 730 771 768
f 730 732 771
f 768 772 770
f 768 771 772
f 769 774 773
f 769 770 774
f 740 773 746
f 740 769 773
f 773 776 775
f 773 774 776
f 746 775 748
f 746 773 775
f 770 777 774
f 770 772 777
f 774 778 776
f 774 777 778
f 775 780 779
f 775 776 780
f 748 779 754
f 748 775 779
f 779 782 781
f 779 780 782
f 754 781 756
f 754 779 781
f 776 783 780
f 776 778 783
f 780 784 782
f 780 783 784
f 764 785 763
f 764 786 785
f 781 785 786
f 781 782 785
f 756 786 764
f 756 781 786
f 763 787 766
f 763 785 787
f 782 787 785
f 782 784 787
f 176 798 657
f 176 456 798
f 657 799 658
f 657 798 799
f 456 800 798
f 456 458 800
f 798 801 799
f 798 800 801
f 658 802 663
f 658 799 802
f 663 803 664
f 663 802 803
f 799 804 802
f 799 801 804
f 802 805 803
f 802 804 805
f 458 806 800
f 458 464 806
f 800 807 801
f 800 806 807
f 434 808 466
f 434 788 808
f 464 808 806
f 464 466 808
f 788 809 808
f 788 789 809
f 806 809 807
f 806 808 809
f 801 810 804
f 801 807 810
f 804 811 805
f 804 810 811
f 789 812 809
f 789 790 812
f 807 812 810
f 807 809 812
f 790 813 812
f 790 791 813
f 810 813 811
f 810 812 813
f 664 814 669
f 664 803 814
f 669 815 670
f 669 814 815
f 803 816 814
f 803 805 816
f 814 817 815
f 814 816 817
f 670 818 675
f 670 815 818
f 675 819 676
f 675 818 819
f 815 820 818
f 815 817 820
f 818 821 819
f 818 820 821
f 805 822 816
f 805 811 822
f 816 823 817
f 816 822 823
f 791 824 813
f 791 792 824
f 811 824 822
f 811 813 824
f 792 825 824
f 822 825 823
f 822 824 825
f 817 826 820
f 817 823 826
f 820 827 821
f 820 826 827
f 823 828 826
f 823 825 828
f 826 829 827
f 826 828 829
f 825 830 828
f 825 831 830
f 793 831 825
f 793 794 831
f 828 832 829
f 828 830 832
f 831 833 830
f 831 834 833
f 794 834 831
f 794 795 834
f 830 835 832
f 830 833 835
f 834 836 833
f 834 837 836
f 795 837 834
f 795 796 837
f 833 838 835
f 833 836 838
f 837 839 836
f 837 840 839
f 796 840 837
f 796 797 840
f 836 841 838
f 836 839 841
f 676 842 713
f 676 819 842
f 713 843 714
f 713 842 843
f 819 844 842
f 819 821 844
f 842 845 843
f 842 844 845
f 714 846 719
f 714 843 846
f 719 847 720
f 719 846 847
f 843 848 846
f 843 845 848
f 846 849 847
f 846 848 849
f 821 850 844
f 821 827 850
f 844 851 845
f 844 850 851
f 827 852 850
f 827 829 852
f 850 853 851
f 850 852 853
f 845 854 848
f 845 851 854
f 848 855 849
f 848 854 855
f 851 856 854
f 851 853 856
f 854 857 855
f 854 856 857
f 720 858 725
f 720 847 858
f 725 859 726
f 725 858 859
f 847 860 858
f 847 849 860
f 858 861 859
f 858 860 861
f 726 862 731
f 726 859 862
f 731 863 732
f 731 862 863
f 859 864 862
f 859 861 864
f 862 865 863
f 862 864 865
f 849 866 860
f 849 855 866
f 860 867 861
f 860 866 867
f 855 868 866
f 855 857 868
f 866 869 867
f 866 868 869
f 861 870 864
f 861 867 870
f 864 871 865
f 864 870 871
f 867 872 870
f 867 869 872
f 870 873 871
f 870 872 873
f 829 874 852
f 829 832 874
f 852 875 853
f 852 874 875
f 832 876 874
f 832 835 876
f 874 877 875
f 874 876 877
f 853 878 856
f 853 875 878
f 856 879 857
f 856 878 879
f 875 880 878
f 875 877 880
f 878 881 879
f 878 880 881
f 835 882 876
f 835 838 882
f 876 883 877
f 876 882 883
f 838 884 882
f 838 841 884
f 882 885 883
f 882 884 885
f 877 886 880
f 877 883 886
f 880 887 881
f 880 886 887
f 883 888 886
f 883 885 888
f 886 889 887
f 886 888 889
f 857 890 868
f 857 879 890
f 868 891 869
f 868 890 891
f 879 892 890
f 879 881 892
f 890 893 891
f 890 892 893
f 869 894 872
f 869 891 894
f 872 895 873
f 872 894 895
f 891 896 894
f 891 893 896
f 894 897 895
f 894 896 897
f 881 898 892
f 881 887 898
f 892 899 893
f 892 898 899
f 887 900 898
f 887 889 900
f 898 901 899
f 898 900 901
f 893 902 896
f 893 899 902
f 896 903 897
f 896 902 903
f 899 904 902
f 899 901 904
f 902 905 903
f 902 904 905
f 587 909 908
f 587 588 909
f 908 911 910
f 908 909 911
f 910 913 912
f 910 911 913
f 912 915 914
f 912 913 915
f 840 916 839
f 840 917 916
f 797 917 840
f 797 906 917
f 839 918 841
f 839 916 918
f 917 919 916
f 917 920 919
f 906 920 917
f 906 907 920
f 916 921 918
f 916 919 921
f 914 923 922
f 914 915 923
f 922 925 924
f 922 923 925
f 920 926 919
f 920 924 926
f 907 924 920
f 919 927 921
f 919 926 927
f 924 928 926
f 924 925 928
f 926 929 927
f 926 928 929
f 588 930 909
f 588 610 930
f 909 931 911
f 909 930 931
f 610 932 930
f 610 612 932
f 930 933 931
f 930 932 933
f 911 934 913
f 911 931 934
f 913 935 915
f 913 934 935
f 931 936 934
f 931 933 936
f 934 937 935
f 934 936 937
f 612 938 932
f 612 618 938
f 932 939 933
f 932 938 939
f 618 940 938
f 618 620 940
f 938 941 939
f 938 940 941
f 933 942 936
f 933 939 942
f 936 943 937
f 936 942 943
f 939 944 942
f 939 941 944
f 942 945 943
f 942 944 945
f 915 946 923
f 915 935 946
f 923 947 925
f 923 946 947
f 935 948 946
f 935 937 948
f 946 949 947
f 946 948 949
f 925 950 928
f 925 947 950
f 928 951 929
f 928 950 951
f 947 952 950
f 947 949 952
f 950 953 951
f 950 952 953
f 937 954 948
f 937 943 954
f 948 955 949
f 948 954 955
f 943 956 954
f 943 945 956
f 954 957 955
f 954 956 957
f 949 958 952
f 949 955 958
f 952 959 953
f 952 958 959
f 955 960 958
f 955 957 960
f 958 961 959
f 958 960 961
f 841 962 884
f 841 918 962
f 884 963 885
f 884 962 963
f 918 964 962
f 918 921 964
f 962 965 963
f 962 964 965
f 885 966 888
f 885 963 966
f 888 967 889
f 888 966 967
f 963 968 966
f 963 965 968
f 966 969 967
f 966 968 969
f 921 970 964
f 921 927 970
f 964 971 965
f 964 970 971
f 927 972 970
f 927 929 972
f 970 973 971
f 970 972 973
f 965 974 968
f 965 971 974
f 968 975 969
f 968 974 975
f 971 976 974
f 971 973 976
f 974 977 975
f 974 976 977
f 889 978 900
f 889 967 978
f 900 979 901
f 900 978 979
f 967 980 978
f 967 969 980
f 978 981 979
f 978 980 981
f 901 982 904
f 901 979 982
f 904 983 905
f 904 982 983
f 979 984 982
f 979 981 984
f 982 985 983
f 982 984 985
f 969 986 980
f 969 975 986
f 980 987 981
f 980 986 987
f 975 988 986
f 975 977 988
f 986 989 987
f 986 988 989
f 981 990 984
f 981 987 990
f 984 991 985
f 984 990 991
f 987 992 990
f 987 989 992
f 990 993 991
f 990 992 993
f 929 994 972
f 929 951 994
f 972 995 973
f 972 994 995
f 951 996 994
f 951 953 996
f 994 997 995
f 994 996 997
f 973 998 976
f 973 995 998
f 976 999 977
f 976 998 999
f 995 1000 998
f 995 997 1000
f 998 1001 999
f 998 1000 1001
f 953 1002 996
f 953 959 1002
f 996 1003 997
f 996 1002 1003
f 959 1004 1002
f 959 961 1004
f 1002 1005 1003
f 1002 1004 1005
f 997 1006 1000
f 997 1003 1006
f 1000 1007 1001
f 1000 1006 1007
f 1003 1008 1006
f 1003 1005 1008
f 1006 1009 1007
f 1006 1008 1009
f 977 1010 988
f 977 999 1010
f 988 1011 989
f 988 1010 1011
f 999 1012 1010
f 999 1001 1012
f 1010 1013 1011
f 1010 1012 1013
f 989 1014 992
f 989 1011 1014
f 992 1015 993
f 992 1014 1015
f 1011 1016 1014
f 1011 1013 1016
f 1014 1017 1015
f 1014 1016 1017
f 1001 1018 1012
f 1001 1007 1018
f 1012 1019 1013
f 1012 1018 1019
f 1007 1020 1018
f 1007 1009 1020
f 1018 1021 1019
f 1018 1020 1021
f 1013 1022 1016
f 1013 1019 1022
f 1016 1023 1017
f 1016 1022 1023
f 1019 1024 1022
f 1019 1021 1024
f 1022 1025 1023
f 1022 1024 1025
f 760 1028 1026
f 760 765 1028
f 765 1029 1028
f 765 766 1029
f 1026 1030 1027
f 1026 1028 1030
f 1028 1031 1030
f 1028 1029 1031
f 1027 1034 1032
f 1027 1030 1034
f 1030 1035 1034
f 1030 1031 1035
f 1032 1036 1033
f 1032 1034 1036
f 1034 1037 1036
f 1034 1035 1037
f 1033 1040 1038
f 1033 1036 1040
f 1036 1041 1040
f 1036 1037 1041
f 1038 1042 1039
f 1038 1040 1042
f 1040 1043 1042
f 1040 1041 1043
f 1039 1046 1044
f 1039 1042 1046
f 1042 1047 1046
f 1042 1043 1047
f 1044 1048 1045
f 1044 1046 1048
f 1046 1049 1048
f 1046 1047 1049
f 732 1050 771
f 732 863 1050
f 771 1051 772
f 771 1050 1051
f 863 1052 1050
f 863 865 1052
f 1050 1053 1051
f 1050 1052 1053
f 772 1054 777
f 772 1051 1054
f 777 1055 778
f 777 1054 1055
f 1051 1056 1054
f 1051 1053 1056
f 1054 1057 1055
f 1054 1056 1057
f 865 1058 1052
f 865 871 1058
f 1052 1059 1053
f 1052 1058 1059
f 871 1060 1058
f 871 873 1060
f 1058 1061 1059
f 1058 1060 1061
f 1053 1062 1056
f 1053 1059 1062
f 1056 1063 1057
f 1056 1062 1063
f 1059 1064 1062
f 1059 1061 1064
f 1062 1065 1063
f 1062 1064 1065
f 778 1066 783
f 778 1055 1066
f 783 1067 784
f 783 1066 1067
f 1055 1068 1066
f 1055 1057 1068
f 1066 1069 1067
f 1066 1068 1069
f 766 1070 1029
f 766 787 1070
f 784 1070 787
f 784 1067 1070
f 1029 1071 1031
f 1029 1070 1071
f 1067 1071 1070
f 1067 1069 1071
f 1057 1072 1068
f 1057 1063 1072
f 1068 1073 1069
f 1068 1072 1073
f 1063 1074 1072
f 1063 1065 1074
f 1072 1075 1073
f 1072 1074 1075
f 1031 1076 1035
f 1031 1071 1076
f 1069 1076 1071
f 1069 1073 1076
f 1035 1077 1037
f 1035 1076 1077
f 1073 1077 1076
f 1073 1075 1077
f 873 1078 1060
f 873 895 1078
f 1060 1079 1061
f 1060 1078 1079
f 895 1080 1078
f 895 897 1080
f 1078 1081 1079
f 1078 1080 1081
f 1061 1082 1064
f 1061 1079 1082
f 1064 1083 1065
f 1064 1082 1083
f 1079 1084 1082
f 1079 1081 1084
f 1082 1085 1083
f 1082 1084 1085
f 897 1086 1080
f 897 903 1086
f 1080 1087 1081
f 1080 1086 1087
f 903 1088 1086
f 903 905 1088
f 1086 1089 1087
f 1086 1088 1089
f 1081 1090 1084
f 1081 1087 1090
f 1084 1091 1085
f 1084 1090 1091
f 1087 1092 1090
f 1087 1089 1092
f 1090 1093 1091
f 1090 1092 1093
f 1065 1094 1074
f 1065 1083 1094
f 1074 1095 1075
f 1074 1094 1095
f 1083 1096 1094
f 1083 1085 1096
f 1094 1097 1095
f 1094 1096 1097
f 1037 1098 1041
f 1037 1077 1098
f 1075 1098 1077
f 1075 1095 1098
f 1041 1099 1043
f 1041 1098 1099
f 1095 1099 1098
f 1095 1097 1099
f 1085 1100 1096
f 1085 1091 1100
f 1096 1101 1097
f 1096 1100 1101
f 1091 1102 1100
f 1091 1093 1102
f 1100 1103 1101
f 1100 1102 1103
f 1043 1104 1047
f 1043 1099 1104
f 1097 1104 1099
f 1097 1101 1104
f 1047 1105 1049
f 1047 1104 1105
f 1101 1105 1104
f 1101 1103 1105
f 1045 1108 1106
f 1045 1048 1108
f 1048 1109 1108
f 1048 1049 1109
f 1106 1110 1107
f 1106 1108 1110
f 1108 1111 1110
f 1108 1109 1111
f 1107 1114 1112
f 1107 1110 1114
f 1110 1115 1114
f 1110 1111 1115
f 1112 1116 1113
f 1112 1114 1116
f 1114 1117 1116
f 1114 1115 1117
f 1113 1120 1118
f 1113 1116 1120
f 1116 1121 1120
f 1116 1117 1121
f 1118 1122 1119
f 1118 1120 1122
f 1120 1123 1122
f 1120 1121 1123
f 1119 1126 1124
f 1119 1122 1126
f 1122 1127 1126
f 1122 1123 1127
f 1124 1128 1125
f 1124 1126 1128
f 1126 1129 1128
f 1126 1127 1129
f 905 1130 1088
f 905 983 1130
f 1088 1131 1089
f 1088 1130 1131
f 983 1132 1130
f 983 985 1132
f 1130 1133 1131
f 1130 1132 1133
f 1089 1134 1092
f 1089 1131 1134
f 1092 1135 1093
f 1092 1134 1135
f 1131 1136 1134
f 1131 1133 1136
f 1134 1137 1135
f 1134 1136 1137
f 985 1138 1132
f 985 991 1138
f 1132 1139 1133
f 1132 1138 1139
f 991 1140 1138
f 991 993 1140
f 1138 1141 1139
f 1138 1140 1141
f 1133 1142 1136
f 1133 1139 1142
f 1136 1143 1137
f 1136 1142 1143
f 1139 1144 1142
f 1139 1141 1144
f 1142 1145 1143
f 1142 1144 1145
f 1093 1146 1102
f 1093 1135 1146
f 1102 1147 1103
f 1102 1146 1147
f 1135 1148 1146
f 1135 1137 1148
f 1146 1149 1147
f 1146 1148 1149
f 1049 1150 1109
f 1049 1105 1150
f 1103 1150 1105
f 1103 1147 1150
f 1109 1151 1111
f 1109 1150 1151
f 1147 1151 1150
f 1147 1149 1151
f 1137 1152 1148
f 1137 1143 1152
f 1148 1153 1149
f 1148 1152 1153
f 1143 1154 1152
f 1143 1145 1154
f 1152 1155 1153
f 1152 1154 1155
f 1111 1156 1115
f 1111 1151 1156
f 1149 1156 1151
f 1149 1153 1156
f 1115 1157 1117
f 1115 1156 1157
f 1153 1157 1156
f 1153 1155 1157
f 993 1158 1140
f 993 1015 1158
f 1140 1159 1141
f 1140 1158 1159
f 1015 1160 1158
f 1015 1017 1160
f 1158 1161 1159
f 1158 1160 1161
f 1141 1162 1144
f 1141 1159 1162
f 1144 1163 1145
f 1144 1162 1163
f 1159 1164 1162
f 1159 1161 1164
f 1162 1165 1163
f 1162 1164 1165
f 1017 1166 1160
f 1017 1023 1166
f 1160 1167 1161
f 1160 1166 1167
f 1023 1168 1166
f 1023 1025 1168
f 1166 1169 1167
f 1166 1168 1169
f 1161 1170 1164
f 1161 1167 1170
f 1164 1171 1165
f 1164 1170 1171
f 1167 1172 1170
f 1167 1169 1172
f 1170 1173 1171
f 1170 1172 1173
f 1145 1174 1154
f 1145 1163 1174
f 1154 1175 1155
f 1154 1174 1175
f 1163 1176 1174
f 1163 1165 1176
f 1174 1177 1175
f 1174 1176 1177
f 1117 1178 1121
f 1117 1157 1178
f 1155 1178 1157
f 1155 1175 1178
f 1121 1179 1123
f 1121 1178 1179
f 1175 1179 1178
f 1175 1177 1179
f 1165 1180 1176
f 1165 1171 1180
f 1176 1181 1177
f 1176 1180 1181
f 1171 1182 1180
f 1171 1173 1182
f 1180 1183 1181
f 1180 1182 1183
f 1123 1184 1127
f 1123 1179 1184
f 1177 1184 1179
f 1177 1181 1184
f 1127 1185 1129
f 1127 1184 1185
f 1181 1185 1184
f 1181 1183 1185
f 299 1187 300
f 299 1186 1187
f 1186 1189 1187
f 1186 1188 1189
f 300 1190 303
f 300 1187 1190
f 303 1191 304
f 303 1190 1191
f 1187 1192 1190
f 1187 1189 1192
f 1190 1193 1191
f 1190 1192 1193
f 1188 1195 1189
f 1188 1194 1195
f 1189 1196 1192
f 1189 1195 1196
f 1192 1197 1193
f 1192 1196 1197
f 348 1198 347
f 348 1199 1198
f 304 1199 348
f 304 1191 1199
f 1199 1200 1198
f 1199 1201 1200
f 1191 1201 1199
f 1191 1193 1201
f 347 1202 351
f 347 1198 1202
f 351 1203 352
f 351 1202 1203
f 1198 1204 1202
f 1198 1200 1204
f 1202 1205 1203
f 1202 1204 1205
f 1201 1206 1200
f 1201 1207 1206
f 1193 1207 1201
f 1193 1197 1207
f 1200 1208 1204
f 1200 1206 1208
f 1204 1209 1205
f 1204 1208 1209
f 352 1210 363
f 352 1203 1210
f 363 1211 364
f 363 1210 1211
f 1203 1212 1210
f 1203 1205 1212
f 1210 1213 1211
f 1210 1212 1213
f 364 1214 367
f 364 1211 1214
f 367 1215 368
f 367 1214 1215
f 1211 1216 1214
f 1211 1213 1216
f 1214 1217 1215
f 1214 1216 1217
f 1205 1218 1212
f 1205 1209 1218
f 1212 1219 1213
f 1212 1218 1219
f 1213 1220 1216
f 1213 1219 1220
f 1216 1221 1217
f 1216 1220 1221
f 368 1222 537
f 368 1215 1222
f 537 1223 538
f 537 1222 1223
f 1215 1224 1222
f 1215 1217 1224
f 1222 1225 1223
f 1222 1224 1225
f 538 1226 541
f 538 1223 1226
f 541 1227 542
f 541 1226 1227
f 1223 1228 1226
f 1223 1225 1228
f 1226 1229 1227
f 1226 1228 1229
f 1217 1230 1224
f 1217 1221 1230
f 1224 1231 1225
f 1224 1230 1231
f 1225 1232 1228
f 1225 1231 1232
f 1228 1233 1229
f 1228 1232 1233
f 542 1234 553
f 542 1227 1234
f 553 1235 554
f 553 1234 1235
f 1227 1236 1234
f 1227 1229 1236
f 1234 1237 1235
f 1234 1236 1237
f 554 1238 557
f 554 1235 1238
f 557 1239 558
f 557 1238 1239
f 1235 1240 1238
f 1235 1237 1240
f 1238 1241 1239
f 1238 1240 1241
f 1229 1242 1236
f 1229 1233 1242
f 1236 1243 1237
f 1236 1242 1243
f 1237 1244 1240
f 1237 1243 1244
f 1240 1245 1241
f 1240 1244 1245
f 558 1246 599
f 558 1239 1246
f 599 1247 600
f 599 1246 1247
f 1239 1248 1246
f 1239 1241 1248
f 1246 1249 1247
f 1246 1248 1249
f 600 1250 603
f 600 1247 1250
f 603 1251 604
f 603 1250 1251
f 1247 1252 1250
f 1247 1249 1252
f 1250 1253 1251
f 1250 1252 1253
f 1241 1254 1248
f 1241 1245 1254
f 1248 1255 1249
f 1248 1254 1255
f 1249 1256 1252
f 1249 1255 1256
f 1252 1257 1253
f 1252 1256 1257
f 604 1258 615
f 604 1251 1258
f 615 1259 616
f 615 1258 1259
f 1251 1260 1258
f 1251 1253 1260
f 1258 1261 1259
f 1258 1260 1261
f 616 1262 619
f 616 1259 1262
f 619 1263 620
f 619 1262 1263
f 1259 1264 1262
f 1259 1261 1264
f 1262 1265 1263
f 1262 1264 1265
f 1253 1266 1260
f 1253 1257 1266
f 1260 1267 1261
f 1260 1266 1267
f 1261 1268 1264
f 1261 1267 1268
f 1264 1269 1265
f 1264 1268 1269
f 620 1270 940
f 620 1263 1270
f 940 1271 941
f 940 1270 1271
f 1263 1272 1270
f 1263 1265 1272
f 1270 1273 1271
f 1270 1272 1273
f 941 1274 944
f 941 1271 1274
f 944 1275 945
f 944 1274 1275
f 1265 1276 1272
f 1265 1269 1276
f 1272 1277 1273
f 1272 1276 1277
f 945 1278 956
f 945 1275 1278
f 956 1279 957
f 956 1278 1279
f 957 1281 960
f 957 1279 1281
f 960 1282 961
f 960 1281 1282
f 1279 1283 1281
f 1279 1280 1283
f 1281 1284 1282
f 1281 1283 1284
f 961 1285 1004
f 961 1282 1285
f 1004 1286 1005
f 1004 1285 1286
f 1282 1287 1285
f 1282 1284 1287
f 1285 1288 1286
f 1285 1287 1288
f 1005 1289 1008
f 1005 1286 1289
f 1008 1290 1009
f 1008 1289 1290
f 1286 1291 1289
f 1286 1288 1291
f 1289 1292 1290
f 1289 1291 1292
f 1009 1293 1020
f 1009 1290 1293
f 1020 1294 1021
f 1020 1293 1294
f 1290 1295 1293
f 1290 1292 1295
f 1293 1296 1294
f 1293 1295 1296
f 1021 1297 1024
f 1021 1294 1297
f 1024 1298 1025
f 1024 1297 1298
f 1294 1299 1297
f 1294 1296 1299
f 1297 1300 1298
f 1297 1299 1300
f 1125 1303 1301
f 1125 1128 1303
f 1128 1304 1303
f 1128 1129 1304
f 1301 1305 1302
f 1301 1303 1305
f 1303 1306 1305
f 1303 1304 1306
f 1025 1307 1168
f 1025 1298 1307
f 1168 1308 1169
f 1168 1307 1308
f 1298 1309 1307
f 1298 1300 1309
f 1307 1310 1308
f 1307 1309 1310
f 1169 1311 1172
f 1169 1308 1311
f 1172 1312 1173
f 1172 1311 1312
f 1308 1313 1311
f 1308 1310 1313
f 1311 1314 1312
f 1311 1313 1314
f 1173 1315 1182
f 1173 1312 1315
f 1182 1316 1183
f 1182 1315 1316
f 1312 1317 1315
f 1312 1314 1317
f 1315 1318 1316
f 1315 1317 1318
f 1129 1319 1304
f 1129 1185 1319
f 1183 1319 1185
f 1183 1316 1319
f 1304 1320 1306
f 1304 1319 1320
f 1316 1320 1319
f 1316 1318 1320
f 1321 1323 1322
f 1321 1324 1323
f 1271 1322 1274
f 1271 1321 1322
f 1271 1324 1321
f 1271 1273 1324
f 1322 1326 1325
f 1322 1323 1326
f 1274 1325 1275
f 1274 1322 1325
f 1277 1328 1327
f 1324 1328 1323
f 1324 1327 1328
f 1273 1327 1324
f 1273 1277 1327
f 1323 1329 1326
f 1323 1328 1329
f 1325 1331 1330
f 1325 1326 1331
f 1275 1330 1278
f 1275 1325 1330
f 1279 1332 1280
f 1279 1333 1332
f 1330 1332 1333
f 1330 1331 1332
f 1278 1333 1279
f 1278 1330 1333
f 1326 1334 1331
f 1326 1329 1334
f 1280 1332 1335
f 1331 1335 1332
f 1331 1334 1335

