# https://github.com/mikedh/trimesh
v -0.28200000 0.23800000 -0.90200000
v -0.28200000 0.23800000 -0.89800000
v -0.28200000 0.24200000 -0.90200000
v -0.28200000 0.24200000 -0.89800000
v -0.27800000 0.23800000 -0.90200000
v -0.27800000 0.23800000 -0.89800000
v -0.27800000 0.24200000 -0.90200000
v -0.28200000 0.23800000 -0.89400000
v -0.28200000 0.24200000 -0.89400000
v -0.27800000 0.23800000 -0.89400000
v -0.28200000 0.23800000 -0.89000000
v -0.28200000 0.24200000 -0.89000000
v -0.27800000 0.23800000 -0.89000000
v -0.27800000 0.24200000 -0.89000000
v -0.28200000 0.24600000 -0.90200000
v -0.28200000 0.24600000 -0.89800000
v -0.27800000 0.24600000 -0.90200000
v -0.28200000 0.24600000 -0.89400000
v -0.28200000 0.24600000 -0.89000000
v -0.27800000 0.24600000 -0.89000000
v -0.28200000 0.25000000 -0.90200000
v -0.28200000 0.25000000 -0.89800000
v -0.27800000 0.25000000 -0.90200000
v -0.28200000 0.25000000 -0.89400000
v -0.28200000 0.25000000 -0.89000000
v -0.27800000 0.25000000 -0.89000000
v -0.28200000 0.25400000 -0.90200000
v -0.28200000 0.25400000 -0.89800000
v -0.27800000 0.25400000 -0.90200000
v -0.28200000 0.25400000 -0.89400000
v -0.28200000 0.25400000 -0.89000000
v -0.27800000 0.25400000 -0.89000000
v -0.28200000 0.25800000 -0.90200000
v -0.28200000 0.25800000 -0.89800000
v -0.27800000 0.25800000 -0.90200000
v -0.28200000 0.25800000 -0.89400000
v -0.28200000 0.25800000 -0.89000000
v -0.27800000 0.25800000 -0.89000000
v -0.28200000 0.26200000 -0.90200000
v -0.28200000 0.26200000 -0.89800000
v -0.27800000 0.26200000 -0.90200000
v -0.28200000 0.26200000 -0.89400000
v -0.28200000 0.26200000 -0.89000000
v -0.27800000 0.26200000 -0.89000000
v -0.28200000 0.26600000 -0.90200000
v -0.28200000 0.26600000 -0.89800000
v -0.27800000 0.26600000 -0.90200000
v -0.27800000 0.26600000 -0.89800000
v -0.28200000 0.26600000 -0.89400000
v -0.27800000 0.26600000 -0.89400000
v -0.28200000 0.26600000 -0.89000000
v -0.27800000 0.26600000 -0.89000000
v -0.27800000 0.23400000 -0.90200000
v -0.27800000 0.23400000 -0.89800000
v -0.27400000 0.23400000 -0.90200000
v -0.27400000 0.23400000 -0.89800000
v -0.27400000 0.23800000 -0.90200000
v -0.27800000 0.23400000 -0.89400000
v -0.27400000 0.23400000 -0.89400000
v -0.27800000 0.23400000 -0.89000000
v -0.27400000 0.23400000 -0.89000000
v -0.27400000 0.23800000 -0.89000000
v -0.27400000 0.24200000 -0.90200000
v -0.27400000 0.24200000 -0.89000000
v -0.27400000 0.24600000 -0.90200000
v -0.27400000 0.24600000 -0.89000000
v -0.27400000 0.25000000 -0.90200000
v -0.27400000 0.25000000 -0.89000000
v -0.27400000 0.25400000 -0.90200000
v -0.27400000 0.25400000 -0.89000000
v -0.27400000 0.25800000 -0.90200000
v -0.27400000 0.25800000 -0.89000000
v -0.27400000 0.26200000 -0.90200000
v -0.27400000 0.26200000 -0.89000000
v -0.27400000 0.26600000 -0.90200000
v -0.27400000 0.26600000 -0.89000000
v -0.27800000 0.27000000 -0.90200000
v -0.27800000 0.27000000 -0.89800000
v -0.27400000 0.27000000 -0.90200000
v -0.27800000 0.27000000 -0.89400000
v -0.27800000 0.27000000 -0.89000000
v -0.27400000 0.27000000 -0.89000000
v -0.27800000 0.27400000 -0.90200000
v -0.27800000 0.27400000 -0.89800000
v -0.27400000 0.27400000 -0.90200000
v -0.27400000 0.27400000 -0.89800000
v -0.27800000 0.27400000 -0.89400000
v -0.27400000 0.27400000 -0.89400000
v -0.27800000 0.27400000 -0.89000000
v -0.27400000 0.27400000 -0.89000000
v -0.27400000 0.23000000 -0.90200000
v -0.27400000 0.23000000 -0.89800000
v -0.27000000 0.23000000 -0.90200000
v -0.27000000 0.23000000 -0.89800000
v -0.27000000 0.23400000 -0.90200000
v -0.27400000 0.23000000 -0.89400000
v -0.27000000 0.23000000 -0.89400000
v -0.27400000 0.23000000 -0.89000000
v -0.27000000 0.23000000 -0.89000000
v -0.27000000 0.23400000 -0.89000000
v -0.27000000 0.23800000 -0.90200000
v -0.27000000 0.23800000 -0.89000000
v -0.27000000 0.24200000 -0.90200000
v -0.27000000 0.24200000 -0.89000000
v -0.27000000 0.24600000 -0.90200000
v -0.27400000 0.24200000 -0.88600000
v -0.27400000 0.24600000 -0.88600000
v -0.27000000 0.24200000 -0.88600000
v -0.27400000 0.24200000 -0.88200000
v -0.27400000 0.24600000 -0.88200000
v -0.27000000 0.24200000 -0.88200000
v -0.27400000 0.24200000 -0.87800000
v -0.27400000 0.24600000 -0.87800000
v -0.27000000 0.24200000 -0.87800000
v -0.27400000 0.24200000 -0.87400000
v -0.27400000 0.24600000 -0.87400000
v -0.27000000 0.24200000 -0.87400000
v -0.27400000 0.24200000 -0.87000000
v -0.27400000 0.24600000 -0.87000000
v -0.27000000 0.24200000 -0.87000000
v -0.27400000 0.24200000 -0.86600000
v -0.27400000 0.24600000 -0.86600000
v -0.27000000 0.24200000 -0.86600000
v -0.27400000 0.24200000 -0.86200000
v -0.27400000 0.24600000 -0.86200000
v -0.27000000 0.24200000 -0.86200000
v -0.27400000 0.24200000 -0.85800000
v -0.27400000 0.24600000 -0.85800000
v -0.27000000 0.24200000 -0.85800000
v -0.27400000 0.24200000 -0.85400000
v -0.27400000 0.24600000 -0.85400000
v -0.27000000 0.24200000 -0.85400000
v -0.27400000 0.24200000 -0.85000000
v -0.27400000 0.24600000 -0.85000000
v -0.27000000 0.24200000 -0.85000000
v -0.27000000 0.24600000 -0.85000000
v -0.27000000 0.25000000 -0.90200000
v -0.27400000 0.25000000 -0.88600000
v -0.27400000 0.25000000 -0.88200000
v -0.27400000 0.25000000 -0.87800000
v -0.27400000 0.25000000 -0.87400000
v -0.27400000 0.25000000 -0.87000000
v -0.27400000 0.25000000 -0.86600000
v -0.27400000 0.25000000 -0.86200000
v -0.27400000 0.25000000 -0.85800000
v -0.27400000 0.25000000 -0.85400000
v -0.27400000 0.25000000 -0.85000000
v -0.27000000 0.25000000 -0.85000000
v -0.27000000 0.25400000 -0.90200000
v -0.27400000 0.25400000 -0.88600000
v -0.27400000 0.25400000 -0.88200000
v -0.27400000 0.25400000 -0.87800000
v -0.27400000 0.25400000 -0.87400000
v -0.27400000 0.25400000 -0.87000000
v -0.27400000 0.25400000 -0.86600000
v -0.27400000 0.25400000 -0.86200000
v -0.27400000 0.25400000 -0.85800000
v -0.27400000 0.25400000 -0.85400000
v -0.27400000 0.25400000 -0.85000000
v -0.27000000 0.25400000 -0.85000000
v -0.27000000 0.25800000 -0.90200000
v -0.27400000 0.25800000 -0.88600000
v -0.27400000 0.25800000 -0.88200000
v -0.27400000 0.25800000 -0.87800000
v -0.27400000 0.25800000 -0.87400000
v -0.27400000 0.25800000 -0.87000000
v -0.27400000 0.25800000 -0.86600000
v -0.27400000 0.25800000 -0.86200000
v -0.27400000 0.25800000 -0.85800000
v -0.27400000 0.25800000 -0.85400000
v -0.27400000 0.25800000 -0.85000000
v -0.27000000 0.25800000 -0.85000000
v -0.27000000 0.26200000 -0.90200000
v -0.27400000 0.26200000 -0.88600000
v -0.27000000 0.26200000 -0.89000000
v -0.27000000 0.26200000 -0.88600000
v -0.27400000 0.26200000 -0.88200000
v -0.27000000 0.26200000 -0.88200000
v -0.27400000 0.26200000 -0.87800000
v -0.27000000 0.26200000 -0.87800000
v -0.27400000 0.26200000 -0.87400000
v -0.27000000 0.26200000 -0.87400000
v -0.27400000 0.26200000 -0.87000000
v -0.27000000 0.26200000 -0.87000000
v -0.27400000 0.26200000 -0.86600000
v -0.27000000 0.26200000 -0.86600000
v -0.27400000 0.26200000 -0.86200000
v -0.27000000 0.26200000 -0.86200000
v -0.27400000 0.26200000 -0.85800000
v -0.27000000 0.26200000 -0.85800000
v -0.27400000 0.26200000 -0.85400000
v -0.27000000 0.26200000 -0.85400000
v -0.27400000 0.26200000 -0.85000000
v -0.27000000 0.26200000 -0.85000000
v -0.27000000 0.26600000 -0.90200000
v -0.27000000 0.26600000 -0.89000000
v -0.27000000 0.27000000 -0.90200000
v -0.27000000 0.27000000 -0.89000000
v -0.27000000 0.27400000 -0.90200000
v -0.27000000 0.27400000 -0.89800000
v -0.27000000 0.27400000 -0.89400000
v -0.27000000 0.27400000 -0.89000000
v -0.27000000 0.22600000 -0.90200000
v -0.27000000 0.22600000 -0.89800000
v -0.26600000 0.22600000 -0.90200000
v -0.26600000 0.22600000 -0.89800000
v -0.26600000 0.23000000 -0.90200000
v -0.27000000 0.22600000 -0.89400000
v -0.26600000 0.22600000 -0.89400000
v -0.27000000 0.22600000 -0.89000000
v -0.26600000 0.22600000 -0.89000000
v -0.26600000 0.23000000 -0.89000000
v -0.26600000 0.23400000 -0.90200000
v -0.26600000 0.23400000 -0.89000000
v -0.26600000 0.23800000 -0.90200000
v -0.26600000 0.23800000 -0.89000000
v -0.26600000 0.24200000 -0.90200000
v -0.27000000 0.23800000 -0.88600000
v -0.26600000 0.23800000 -0.88600000
v -0.27000000 0.23800000 -0.88200000
v -0.26600000 0.23800000 -0.88200000
v -0.27000000 0.23800000 -0.87800000
v -0.26600000 0.23800000 -0.87800000
v -0.27000000 0.23800000 -0.87400000
v -0.26600000 0.23800000 -0.87400000
v -0.27000000 0.23800000 -0.87000000
v -0.26600000 0.23800000 -0.87000000
v -0.27000000 0.23800000 -0.86600000
v -0.26600000 0.23800000 -0.86600000
v -0.27000000 0.23800000 -0.86200000
v -0.26600000 0.23800000 -0.86200000
v -0.27000000 0.23800000 -0.85800000
v -0.26600000 0.23800000 -0.85800000
v -0.27000000 0.23800000 -0.85400000
v -0.26600000 0.23800000 -0.85400000
v -0.27000000 0.23800000 -0.85000000
v -0.26600000 0.23800000 -0.85000000
v -0.26600000 0.24200000 -0.85000000
v -0.26600000 0.24600000 -0.90200000
v -0.26600000 0.24600000 -0.85000000
v -0.26600000 0.25000000 -0.90200000
v -0.26600000 0.25000000 -0.85000000
v -0.26600000 0.25400000 -0.90200000
v -0.26600000 0.25400000 -0.85000000
v -0.26600000 0.25800000 -0.90200000
v -0.26600000 0.25800000 -0.85000000
v -0.26600000 0.26200000 -0.90200000
v -0.26600000 0.26200000 -0.85000000
v -0.26600000 0.26600000 -0.90200000
v -0.27000000 0.26600000 -0.88600000
v -0.26600000 0.26600000 -0.89000000
v -0.26600000 0.26600000 -0.88600000
v -0.27000000 0.26600000 -0.88200000
v -0.26600000 0.26600000 -0.88200000
v -0.27000000 0.26600000 -0.87800000
v -0.26600000 0.26600000 -0.87800000
v -0.27000000 0.26600000 -0.87400000
v -0.26600000 0.26600000 -0.87400000
v -0.27000000 0.26600000 -0.87000000
v -0.26600000 0.26600000 -0.87000000
v -0.27000000 0.26600000 -0.86600000
v -0.26600000 0.26600000 -0.86600000
v -0.27000000 0.26600000 -0.86200000
v -0.26600000 0.26600000 -0.86200000
v -0.27000000 0.26600000 -0.85800000
v -0.26600000 0.26600000 -0.85800000
v -0.27000000 0.26600000 -0.85400000
v -0.26600000 0.26600000 -0.85400000
v -0.27000000 0.26600000 -0.85000000
v -0.26600000 0.26600000 -0.85000000
v -0.26600000 0.27000000 -0.90200000
v -0.26600000 0.27000000 -0.89000000
v -0.26600000 0.27400000 -0.90200000
v -0.26600000 0.27400000 -0.89000000
v -0.27000000 0.27800000 -0.90200000
v -0.27000000 0.27800000 -0.89800000
v -0.26600000 0.27800000 -0.90200000
v -0.26600000 0.27800000 -0.89800000
v -0.27000000 0.27800000 -0.89400000
v -0.26600000 0.27800000 -0.89400000
v -0.27000000 0.27800000 -0.89000000
v -0.26600000 0.27800000 -0.89000000
v -0.26200000 0.22600000 -0.90200000
v -0.26200000 0.22600000 -0.89800000
v -0.26200000 0.23000000 -0.90200000
v -0.26200000 0.22600000 -0.89400000
v -0.26200000 0.22600000 -0.89000000
v -0.26200000 0.23000000 -0.89000000
v -0.26200000 0.23400000 -0.90200000
v -0.26200000 0.23400000 -0.89000000
v -0.26200000 0.23800000 -0.90200000
v -0.26600000 0.23400000 -0.88600000
v -0.26200000 0.23400000 -0.88600000
v -0.26600000 0.23400000 -0.88200000
v -0.26200000 0.23400000 -0.88200000
v -0.26600000 0.23400000 -0.87800000
v -0.26200000 0.23400000 -0.87800000
v -0.26600000 0.23400000 -0.87400000
v -0.26200000 0.23400000 -0.87400000
v -0.26600000 0.23400000 -0.87000000
v -0.26200000 0.23400000 -0.87000000
v -0.26600000 0.23400000 -0.86600000
v -0.26200000 0.23400000 -0.86600000
v -0.26600000 0.23400000 -0.86200000
v -0.26200000 0.23400000 -0.86200000
v -0.26600000 0.23400000 -0.85800000
v -0.26200000 0.23400000 -0.85800000
v -0.26600000 0.23400000 -0.85400000
v -0.26200000 0.23400000 -0.85400000
v -0.26600000 0.23400000 -0.85000000
v -0.26200000 0.23400000 -0.85000000
v -0.26200000 0.23800000 -0.85000000
v -0.26200000 0.24200000 -0.90200000
v -0.26200000 0.24200000 -0.85000000
v -0.26200000 0.24600000 -0.90200000
v -0.26200000 0.24600000 -0.85000000
v -0.26200000 0.25000000 -0.90200000
v -0.26200000 0.25000000 -0.85000000
v -0.26200000 0.25400000 -0.90200000
v -0.26200000 0.25400000 -0.85000000
v -0.26200000 0.25800000 -0.90200000
v -0.26200000 0.25800000 -0.85000000
v -0.26200000 0.26200000 -0.90200000
v -0.26200000 0.26200000 -0.85000000
v -0.26200000 0.26600000 -0.90200000
v -0.26200000 0.26600000 -0.85000000
v -0.26200000 0.27000000 -0.90200000
v -0.26600000 0.27000000 -0.88600000
v -0.26200000 0.27000000 -0.89000000
v -0.26200000 0.27000000 -0.88600000
v -0.26600000 0.27000000 -0.88200000
v -0.26200000 0.27000000 -0.88200000
v -0.26600000 0.27000000 -0.87800000
v -0.26200000 0.27000000 -0.87800000
v -0.26600000 0.27000000 -0.87400000
v -0.26200000 0.27000000 -0.87400000
v -0.26600000 0.27000000 -0.87000000
v -0.26200000 0.27000000 -0.87000000
v -0.26600000 0.27000000 -0.86600000
v -0.26200000 0.27000000 -0.86600000
v -0.26600000 0.27000000 -0.86200000
v -0.26200000 0.27000000 -0.86200000
v -0.26600000 0.27000000 -0.85800000
v -0.26200000 0.27000000 -0.85800000
v -0.26600000 0.27000000 -0.85400000
v -0.26200000 0.27000000 -0.85400000
v -0.26600000 0.27000000 -0.85000000
v -0.26200000 0.27000000 -0.85000000
v -0.26200000 0.27400000 -0.90200000
v -0.26200000 0.27400000 -0.89000000
v -0.26200000 0.27800000 -0.90200000
v -0.26200000 0.27800000 -0.89800000
v -0.26200000 0.27800000 -0.89400000
v -0.26200000 0.27800000 -0.89000000
v -0.26200000 0.22200000 -0.90200000
v -0.26200000 0.22200000 -0.89800000
v -0.25800000 0.22200000 -0.90200000
v -0.25800000 0.22200000 -0.89800000
v -0.25800000 0.22600000 -0.90200000
v -0.26200000 0.22200000 -0.89400000
v -0.25800000 0.22200000 -0.89400000
v -0.26200000 0.22200000 -0.89000000
v -0.25800000 0.22200000 -0.89000000
v -0.25800000 0.22600000 -0.89000000
v -0.25800000 0.23000000 -0.90200000
v -0.25800000 0.23000000 -0.89000000
v -0.25800000 0.23400000 -0.90200000
v -0.25800000 0.23400000 -0.89000000
v -0.25800000 0.23800000 -0.90200000
v -0.25800000 0.23400000 -0.88600000
v -0.25800000 0.23400000 -0.88200000
v -0.25800000 0.23400000 -0.87800000
v -0.25800000 0.23400000 -0.87400000
v -0.25800000 0.23400000 -0.87000000
v -0.25800000 0.23400000 -0.86600000
v -0.25800000 0.23400000 -0.86200000
v -0.25800000 0.23400000 -0.85800000
v -0.25800000 0.23400000 -0.85400000
v -0.25800000 0.23400000 -0.85000000
v -0.25800000 0.23800000 -0.85000000
v -0.25800000 0.24200000 -0.90200000
v -0.25800000 0.24200000 -0.85000000
v -0.25800000 0.24600000 -0.90200000
v -0.25800000 0.24600000 -0.85000000
v -0.25800000 0.25000000 -0.90200000
v -0.25800000 0.25000000 -0.85000000
v -0.25800000 0.25400000 -0.90200000
v -0.25800000 0.25400000 -0.85000000
v -0.25800000 0.25800000 -0.90200000
v -0.25800000 0.25800000 -0.85000000
v -0.25800000 0.26200000 -0.90200000
v -0.25800000 0.26200000 -0.85000000
v -0.25800000 0.26600000 -0.90200000
v -0.25800000 0.26600000 -0.85000000
v -0.25800000 0.27000000 -0.90200000
v -0.25800000 0.27000000 -0.89000000
v -0.25800000 0.27000000 -0.88600000
v -0.25800000 0.27000000 -0.88200000
v -0.25800000 0.27000000 -0.87800000
v -0.25800000 0.27000000 -0.87400000
v -0.25800000 0.27000000 -0.87000000
v -0.25800000 0.27000000 -0.86600000
v -0.25800000 0.27000000 -0.86200000
v -0.25800000 0.27000000 -0.85800000
v -0.25800000 0.27000000 -0.85400000
v -0.25800000 0.27000000 -0.85000000
v -0.25800000 0.27400000 -0.90200000
v -0.25800000 0.27400000 -0.89000000
v -0.25800000 0.27800000 -0.90200000
v -0.25800000 0.27800000 -0.89000000
v -0.26200000 0.28200000 -0.90200000
v -0.26200000 0.28200000 -0.89800000
v -0.25800000 0.28200000 -0.90200000
v -0.25800000 0.28200000 -0.89800000
v -0.26200000 0.28200000 -0.89400000
v -0.25800000 0.28200000 -0.89400000
v -0.26200000 0.28200000 -0.89000000
v -0.25800000 0.28200000 -0.89000000
v -0.25400000 0.22200000 -0.90200000
v -0.25400000 0.22200000 -0.89800000
v -0.25400000 0.22600000 -0.90200000
v -0.25400000 0.22200000 -0.89400000
v -0.25400000 0.22200000 -0.89000000
v -0.25400000 0.22600000 -0.89000000
v -0.25400000 0.23000000 -0.90200000
v -0.25400000 0.23000000 -0.89000000
v -0.25400000 0.23400000 -0.90200000
v -0.25800000 0.23000000 -0.88600000
v -0.25400000 0.23000000 -0.88600000
v -0.25800000 0.23000000 -0.88200000
v -0.25400000 0.23000000 -0.88200000
v -0.25800000 0.23000000 -0.87800000
v -0.25400000 0.23000000 -0.87800000
v -0.25800000 0.23000000 -0.87400000
v -0.25400000 0.23000000 -0.87400000
v -0.25800000 0.23000000 -0.87000000
v -0.25400000 0.23000000 -0.87000000
v -0.25800000 0.23000000 -0.86600000
v -0.25400000 0.23000000 -0.86600000
v -0.25800000 0.23000000 -0.86200000
v -0.25400000 0.23000000 -0.86200000
v -0.25800000 0.23000000 -0.85800000
v -0.25400000 0.23000000 -0.85800000
v -0.25800000 0.23000000 -0.85400000
v -0.25400000 0.23000000 -0.85400000
v -0.25800000 0.23000000 -0.85000000
v -0.25400000 0.23000000 -0.85000000
v -0.25400000 0.23400000 -0.85000000
v -0.25400000 0.23800000 -0.90200000
v -0.25400000 0.23800000 -0.85000000
v -0.25400000 0.24200000 -0.90200000
v -0.25400000 0.24200000 -0.85000000
v -0.25400000 0.24600000 -0.90200000
v -0.25400000 0.24600000 -0.85000000
v -0.25400000 0.25000000 -0.90200000
v -0.25400000 0.25000000 -0.85000000
v -0.25400000 0.25400000 -0.90200000
v -0.25400000 0.25400000 -0.85000000
v -0.25400000 0.25800000 -0.90200000
v -0.25400000 0.25800000 -0.85000000
v -0.25400000 0.26200000 -0.90200000
v -0.25400000 0.26200000 -0.85000000
v -0.25400000 0.26600000 -0.90200000
v -0.25400000 0.26600000 -0.85000000
v -0.25400000 0.27000000 -0.90200000
v -0.25400000 0.27000000 -0.85000000
v -0.25400000 0.27400000 -0.90200000
v -0.25800000 0.27400000 -0.88600000
v -0.25400000 0.27400000 -0.89000000
v -0.25400000 0.27400000 -0.88600000
v -0.25800000 0.27400000 -0.88200000
v -0.25400000 0.27400000 -0.88200000
v -0.25800000 0.27400000 -0.87800000
v -0.25400000 0.27400000 -0.87800000
v -0.25800000 0.27400000 -0.87400000
v -0.25400000 0.27400000 -0.87400000
v -0.25800000 0.27400000 -0.87000000
v -0.25400000 0.27400000 -0.87000000
v -0.25800000 0.27400000 -0.86600000
v -0.25400000 0.27400000 -0.86600000
v -0.25800000 0.27400000 -0.86200000
v -0.25400000 0.27400000 -0.86200000
v -0.25800000 0.27400000 -0.85800000
v -0.25400000 0.27400000 -0.85800000
v -0.25800000 0.27400000 -0.85400000
v -0.25400000 0.27400000 -0.85400000
v -0.25800000 0.27400000 -0.85000000
v -0.25400000 0.27400000 -0.85000000
v -0.25400000 0.27800000 -0.90200000
v -0.25400000 0.27800000 -0.89000000
v -0.25400000 0.28200000 -0.90200000
v -0.25400000 0.28200000 -0.89800000
v -0.25400000 0.28200000 -0.89400000
v -0.25400000 0.28200000 -0.89000000
v -0.25000000 0.22200000 -0.90200000
v -0.25000000 0.22200000 -0.89800000
v -0.25000000 0.22600000 -0.90200000
v -0.25000000 0.22200000 -0.89400000
v -0.25000000 0.22200000 -0.89000000
v -0.25000000 0.22600000 -0.89000000
v -0.25000000 0.23000000 -0.90200000
v -0.25000000 0.23000000 -0.89000000
v -0.25000000 0.23400000 -0.90200000
v -0.25000000 0.23000000 -0.88600000
v -0.25000000 0.23000000 -0.88200000
v -0.25000000 0.23000000 -0.87800000
v -0.25000000 0.23000000 -0.87400000
v -0.25000000 0.23000000 -0.87000000
v -0.25000000 0.23000000 -0.86600000
v -0.25000000 0.23000000 -0.86200000
v -0.25000000 0.23000000 -0.85800000
v -0.25000000 0.23000000 -0.85400000
v -0.25000000 0.23000000 -0.85000000
v -0.25000000 0.23400000 -0.85000000
v -0.25000000 0.23800000 -0.90200000
v -0.25000000 0.23800000 -0.85000000
v -0.25000000 0.24200000 -0.90200000
v -0.25000000 0.24200000 -0.85000000
v -0.25000000 0.24600000 -0.90200000
v -0.25000000 0.24600000 -0.85000000
v -0.25000000 0.25000000 -0.90200000
v -0.25000000 0.25000000 -0.85000000
v -0.25000000 0.25400000 -0.90200000
v -0.25000000 0.25400000 -0.85000000
v -0.25000000 0.25800000 -0.90200000
v -0.25000000 0.25800000 -0.85000000
v -0.25000000 0.26200000 -0.90200000
v -0.25000000 0.26200000 -0.85000000
v -0.25000000 0.26600000 -0.90200000
v -0.25000000 0.26600000 -0.85000000
v -0.25000000 0.27000000 -0.90200000
v -0.25000000 0.27000000 -0.85000000
v -0.25000000 0.27400000 -0.90200000
v -0.25000000 0.27400000 -0.89000000
v -0.25000000 0.27400000 -0.88600000
v -0.25000000 0.27400000 -0.88200000
v -0.25000000 0.27400000 -0.87800000
v -0.25000000 0.27400000 -0.87400000
v -0.25000000 0.27400000 -0.87000000
v -0.25000000 0.27400000 -0.86600000
v -0.25000000 0.27400000 -0.86200000
v -0.25000000 0.27400000 -0.85800000
v -0.25000000 0.27400000 -0.85400000
v -0.25000000 0.27400000 -0.85000000
v -0.25000000 0.27800000 -0.90200000
v -0.25000000 0.27800000 -0.89000000
v -0.25000000 0.28200000 -0.90200000
v -0.25000000 0.28200000 -0.89800000
v -0.25000000 0.28200000 -0.89400000
v -0.25000000 0.28200000 -0.89000000
v -0.24600000 0.22200000 -0.90200000
v -0.24600000 0.22200000 -0.89800000
v -0.24600000 0.22600000 -0.90200000
v -0.24600000 0.22200000 -0.89400000
v -0.24600000 0.22200000 -0.89000000
v -0.24600000 0.22600000 -0.89000000
v -0.24600000 0.23000000 -0.90200000
v -0.24600000 0.23000000 -0.89000000
v -0.24600000 0.23400000 -0.90200000
v -0.24600000 0.23000000 -0.88600000
v -0.24600000 0.23400000 -0.89000000
v -0.24600000 0.23400000 -0.88600000
v -0.24600000 0.23000000 -0.88200000
v -0.24600000 0.23400000 -0.88200000
v -0.24600000 0.23000000 -0.87800000
v -0.24600000 0.23400000 -0.87800000
v -0.24600000 0.23000000 -0.87400000
v -0.24600000 0.23400000 -0.87400000
v -0.24600000 0.23000000 -0.87000000
v -0.24600000 0.23400000 -0.87000000
v -0.24600000 0.23000000 -0.86600000
v -0.24600000 0.23400000 -0.86600000
v -0.24600000 0.23000000 -0.86200000
v -0.24600000 0.23400000 -0.86200000
v -0.24600000 0.23000000 -0.85800000
v -0.24600000 0.23400000 -0.85800000
v -0.24600000 0.23000000 -0.85400000
v -0.24600000 0.23400000 -0.85400000
v -0.24600000 0.23000000 -0.85000000
v -0.24600000 0.23400000 -0.85000000
v -0.24600000 0.23800000 -0.90200000
v -0.24600000 0.23800000 -0.85000000
v -0.24600000 0.24200000 -0.90200000
v -0.24600000 0.24200000 -0.85000000
v -0.24600000 0.24600000 -0.90200000
v -0.24600000 0.24600000 -0.85000000
v -0.24600000 0.25000000 -0.90200000
v -0.24600000 0.25000000 -0.85000000
v -0.24600000 0.25400000 -0.90200000
v -0.24600000 0.25400000 -0.85000000
v -0.24600000 0.25800000 -0.90200000
v -0.24600000 0.25800000 -0.85000000
v -0.24600000 0.26200000 -0.90200000
v -0.24600000 0.26200000 -0.85000000
v -0.24600000 0.26600000 -0.90200000
v -0.24600000 0.26600000 -0.85000000
v -0.24600000 0.27000000 -0.90200000
v -0.24600000 0.27000000 -0.85000000
v -0.24600000 0.27400000 -0.90200000
v -0.24600000 0.27400000 -0.89000000
v -0.24600000 0.27400000 -0.88600000
v -0.24600000 0.27400000 -0.88200000
v -0.24600000 0.27400000 -0.87800000
v -0.24600000 0.27400000 -0.87400000
v -0.24600000 0.27400000 -0.87000000
v -0.24600000 0.27400000 -0.86600000
v -0.24600000 0.27400000 -0.86200000
v -0.24600000 0.27400000 -0.85800000
v -0.24600000 0.27400000 -0.85400000
v -0.24600000 0.27400000 -0.85000000
v -0.24600000 0.27800000 -0.90200000
v -0.24600000 0.27800000 -0.89000000
v -0.24600000 0.28200000 -0.90200000
v -0.24600000 0.28200000 -0.89800000
v -0.24600000 0.28200000 -0.89400000
v -0.24600000 0.28200000 -0.89000000
v -0.24200000 0.22200000 -0.90200000
v -0.24200000 0.22200000 -0.89800000
v -0.24200000 0.22600000 -0.90200000
v -0.24200000 0.22200000 -0.89400000
v -0.24200000 0.22200000 -0.89000000
v -0.24200000 0.22600000 -0.89000000
v -0.24200000 0.23000000 -0.90200000
v -0.24200000 0.23000000 -0.89000000
v -0.24200000 0.23400000 -0.90200000
v -0.24200000 0.23400000 -0.89000000
v -0.24200000 0.23800000 -0.90200000
v -0.24200000 0.23400000 -0.88600000
v -0.24200000 0.23400000 -0.88200000
v -0.24200000 0.23400000 -0.87800000
v -0.24200000 0.23400000 -0.87400000
v -0.24200000 0.23400000 -0.87000000
v -0.24200000 0.23400000 -0.86600000
v -0.24200000 0.23400000 -0.86200000
v -0.24200000 0.23400000 -0.85800000
v -0.24200000 0.23400000 -0.85400000
v -0.24200000 0.23400000 -0.85000000
v -0.24200000 0.23800000 -0.85000000
v -0.24200000 0.24200000 -0.90200000
v -0.24200000 0.24200000 -0.85000000
v -0.24200000 0.24600000 -0.90200000
v -0.24200000 0.24600000 -0.85000000
v -0.24200000 0.25000000 -0.90200000
v -0.24200000 0.25000000 -0.85000000
v -0.24200000 0.25400000 -0.90200000
v -0.24200000 0.25400000 -0.85000000
v -0.24200000 0.25800000 -0.90200000
v -0.24200000 0.25800000 -0.85000000
v -0.24200000 0.26200000 -0.90200000
v -0.24200000 0.26200000 -0.85000000
v -0.24200000 0.26600000 -0.90200000
v -0.24200000 0.26600000 -0.85000000
v -0.24200000 0.27000000 -0.90200000
v -0.24200000 0.27000000 -0.85000000
v -0.24200000 0.27400000 -0.90200000
v -0.24200000 0.27000000 -0.89000000
v -0.24200000 0.27000000 -0.88600000
v -0.24200000 0.27400000 -0.89000000
v -0.24200000 0.27400000 -0.88600000
v -0.24200000 0.27000000 -0.88200000
v -0.24200000 0.27400000 -0.88200000
v -0.24200000 0.27000000 -0.87800000
v -0.24200000 0.27400000 -0.87800000
v -0.24200000 0.27000000 -0.87400000
v -0.24200000 0.27400000 -0.87400000
v -0.24200000 0.27000000 -0.87000000
v -0.24200000 0.27400000 -0.87000000
v -0.24200000 0.27000000 -0.86600000
v -0.24200000 0.27400000 -0.86600000
v -0.24200000 0.27000000 -0.86200000
v -0.24200000 0.27400000 -0.86200000
v -0.24200000 0.27000000 -0.85800000
v -0.24200000 0.27400000 -0.85800000
v -0.24200000 0.27000000 -0.85400000
v -0.24200000 0.27400000 -0.85400000
v -0.24200000 0.27400000 -0.85000000
v -0.24200000 0.27800000 -0.90200000
v -0.24200000 0.27800000 -0.89000000
v -0.24200000 0.28200000 -0.90200000
v -0.24200000 0.28200000 -0.89800000
v -0.24200000 0.28200000 -0.89400000
v -0.24200000 0.28200000 -0.89000000
v -0.23800000 0.22200000 -0.90200000
v -0.23800000 0.22200000 -0.89800000
v -0.23800000 0.22600000 -0.90200000
v -0.23800000 0.22600000 -0.89800000
v -0.23800000 0.22200000 -0.89400000
v -0.23800000 0.22600000 -0.89400000
v -0.23800000 0.22200000 -0.89000000
v -0.23800000 0.22600000 -0.89000000
v -0.23800000 0.23000000 -0.90200000
v -0.23800000 0.23000000 -0.89000000
v -0.23800000 0.23400000 -0.90200000
v -0.23800000 0.23400000 -0.89000000
v -0.23800000 0.23800000 -0.90200000
v -0.23800000 0.23400000 -0.88600000
v -0.23800000 0.23400000 -0.88200000
v -0.23800000 0.23400000 -0.87800000
v -0.23800000 0.23400000 -0.87400000
v -0.23800000 0.23400000 -0.87000000
v -0.23800000 0.23400000 -0.86600000
v -0.23800000 0.23400000 -0.86200000
v -0.23800000 0.23400000 -0.85800000
v -0.23800000 0.23400000 -0.85400000
v -0.23800000 0.23400000 -0.85000000
v -0.23800000 0.23800000 -0.85000000
v -0.23800000 0.24200000 -0.90200000
v -0.23800000 0.24200000 -0.85000000
v -0.23800000 0.24600000 -0.90200000
v -0.23800000 0.24600000 -0.85000000
v -0.23800000 0.25000000 -0.90200000
v -0.23800000 0.25000000 -0.85000000
v -0.23800000 0.25400000 -0.90200000
v -0.23800000 0.25400000 -0.85000000
v -0.23800000 0.25800000 -0.90200000
v -0.23800000 0.25800000 -0.85000000
v -0.23800000 0.26200000 -0.90200000
v -0.23800000 0.26200000 -0.85000000
v -0.23800000 0.26600000 -0.90200000
v -0.23800000 0.26600000 -0.85000000
v -0.23800000 0.27000000 -0.90200000
v -0.23800000 0.27000000 -0.89000000
v -0.23800000 0.27000000 -0.88600000
v -0.23800000 0.27000000 -0.88200000
v -0.23800000 0.27000000 -0.87800000
v -0.23800000 0.27000000 -0.87400000
v -0.23800000 0.27000000 -0.87000000
v -0.23800000 0.27000000 -0.86600000
v -0.23800000 0.27000000 -0.86200000
v -0.23800000 0.27000000 -0.85800000
v -0.23800000 0.27000000 -0.85400000
v -0.23800000 0.27000000 -0.85000000
v -0.23800000 0.27400000 -0.90200000
v -0.23800000 0.27400000 -0.89000000
v -0.23800000 0.27800000 -0.90200000
v -0.23800000 0.27800000 -0.89000000
v -0.23800000 0.27800000 -0.89800000
v -0.23800000 0.28200000 -0.90200000
v -0.23800000 0.28200000 -0.89800000
v -0.23800000 0.27800000 -0.89400000
v -0.23800000 0.28200000 -0.89400000
v -0.23800000 0.28200000 -0.89000000
v -0.23400000 0.22600000 -0.90200000
v -0.23400000 0.22600000 -0.89800000
v -0.23400000 0.23000000 -0.90200000
v -0.23400000 0.22600000 -0.89400000
v -0.23400000 0.22600000 -0.89000000
v -0.23400000 0.23000000 -0.89000000
v -0.23400000 0.23400000 -0.90200000
v -0.23400000 0.23400000 -0.89000000
v -0.23400000 0.23800000 -0.90200000
v -0.23400000 0.23400000 -0.88600000
v -0.23400000 0.23800000 -0.89000000
v -0.23400000 0.23800000 -0.88600000
v -0.23400000 0.23400000 -0.88200000
v -0.23400000 0.23800000 -0.88200000
v -0.23400000 0.23400000 -0.87800000
v -0.23400000 0.23800000 -0.87800000
v -0.23400000 0.23400000 -0.87400000
v -0.23400000 0.23800000 -0.87400000
v -0.23400000 0.23400000 -0.87000000
v -0.23400000 0.23800000 -0.87000000
v -0.23400000 0.23400000 -0.86600000
v -0.23400000 0.23800000 -0.86600000
v -0.23400000 0.23400000 -0.86200000
v -0.23400000 0.23800000 -0.86200000
v -0.23400000 0.23400000 -0.85800000
v -0.23400000 0.23800000 -0.85800000
v -0.23400000 0.23400000 -0.85400000
v -0.23400000 0.23800000 -0.85400000
v -0.23400000 0.23400000 -0.85000000
v -0.23400000 0.23800000 -0.85000000
v -0.23400000 0.24200000 -0.90200000
v -0.23400000 0.24200000 -0.85000000
v -0.23400000 0.24600000 -0.90200000
v -0.23400000 0.24600000 -0.85000000
v -0.23400000 0.25000000 -0.90200000
v -0.23400000 0.25000000 -0.85000000
v -0.23400000 0.25400000 -0.90200000
v -0.23400000 0.25400000 -0.85000000
v -0.23400000 0.25800000 -0.90200000
v -0.23400000 0.25800000 -0.85000000
v -0.23400000 0.26200000 -0.90200000
v -0.23400000 0.26200000 -0.85000000
v -0.23400000 0.26600000 -0.90200000
v -0.23400000 0.26600000 -0.85000000
v -0.23400000 0.27000000 -0.90200000
v -0.23400000 0.26600000 -0.89000000
v -0.23400000 0.26600000 -0.88600000
v -0.23400000 0.27000000 -0.89000000
v -0.23400000 0.27000000 -0.88600000
v -0.23400000 0.26600000 -0.88200000
v -0.23400000 0.27000000 -0.88200000
v -0.23400000 0.26600000 -0.87800000
v -0.23400000 0.27000000 -0.87800000
v -0.23400000 0.26600000 -0.87400000
v -0.23400000 0.27000000 -0.87400000
v -0.23400000 0.26600000 -0.87000000
v -0.23400000 0.27000000 -0.87000000
v -0.23400000 0.26600000 -0.86600000
v -0.23400000 0.27000000 -0.86600000
v -0.23400000 0.26600000 -0.86200000
v -0.23400000 0.27000000 -0.86200000
v -0.23400000 0.26600000 -0.85800000
v -0.23400000 0.27000000 -0.85800000
v -0.23400000 0.26600000 -0.85400000
v -0.23400000 0.27000000 -0.85400000
v -0.23400000 0.27000000 -0.85000000
v -0.23400000 0.27400000 -0.90200000
v -0.23400000 0.27400000 -0.89000000
v -0.23400000 0.27800000 -0.90200000
v -0.23400000 0.27800000 -0.89800000
v -0.23400000 0.27800000 -0.89400000
v -0.23400000 0.27800000 -0.89000000
v -0.23000000 0.22600000 -0.90200000
v -0.23000000 0.22600000 -0.89800000
v -0.23000000 0.23000000 -0.90200000
v -0.23000000 0.23000000 -0.89800000
v -0.23000000 0.22600000 -0.89400000
v -0.23000000 0.23000000 -0.89400000
v -0.23000000 0.22600000 -0.89000000
v -0.23000000 0.23000000 -0.89000000
v -0.23000000 0.23400000 -0.90200000
v -0.23000000 0.23400000 -0.89000000
v -0.23000000 0.23800000 -0.90200000
v -0.23000000 0.23800000 -0.89000000
v -0.23000000 0.24200000 -0.90200000
v -0.23000000 0.23800000 -0.88600000
v -0.23000000 0.24200000 -0.89000000
v -0.23000000 0.24200000 -0.88600000
v -0.23000000 0.23800000 -0.88200000
v -0.23000000 0.24200000 -0.88200000
v -0.23000000 0.23800000 -0.87800000
v -0.23000000 0.24200000 -0.87800000
v -0.23000000 0.23800000 -0.87400000
v -0.23000000 0.24200000 -0.87400000
v -0.23000000 0.23800000 -0.87000000
v -0.23000000 0.24200000 -0.87000000
v -0.23000000 0.23800000 -0.86600000
v -0.23000000 0.24200000 -0.86600000
v -0.23000000 0.23800000 -0.86200000
v -0.23000000 0.24200000 -0.86200000
v -0.23000000 0.23800000 -0.85800000
v -0.23000000 0.24200000 -0.85800000
v -0.23000000 0.23800000 -0.85400000
v -0.23000000 0.24200000 -0.85400000
v -0.23000000 0.23800000 -0.85000000
v -0.23000000 0.24200000 -0.85000000
v -0.23000000 0.24600000 -0.90200000
v -0.23000000 0.24600000 -0.89000000
v -0.23000000 0.24600000 -0.88600000
v -0.23000000 0.24600000 -0.88200000
v -0.23000000 0.24600000 -0.87800000
v -0.23000000 0.24600000 -0.87400000
v -0.23000000 0.24600000 -0.87000000
v -0.23000000 0.24600000 -0.86600000
v -0.23000000 0.24600000 -0.86200000
v -0.23000000 0.24600000 -0.85800000
v -0.23000000 0.24600000 -0.85400000
v -0.23000000 0.24600000 -0.85000000
v -0.23000000 0.25000000 -0.90200000
v -0.23000000 0.25000000 -0.89000000
v -0.23000000 0.25000000 -0.88600000
v -0.23000000 0.25000000 -0.88200000
v -0.23000000 0.25000000 -0.87800000
v -0.23000000 0.25000000 -0.87400000
v -0.23000000 0.25000000 -0.87000000
v -0.23000000 0.25000000 -0.86600000
v -0.23000000 0.25000000 -0.86200000
v -0.23000000 0.25000000 -0.85800000
v -0.23000000 0.25000000 -0.85400000
v -0.23000000 0.25000000 -0.85000000
v -0.23000000 0.25400000 -0.90200000
v -0.23000000 0.25400000 -0.89000000
v -0.23000000 0.25400000 -0.88600000
v -0.23000000 0.25400000 -0.88200000
v -0.23000000 0.25400000 -0.87800000
v -0.23000000 0.25400000 -0.87400000
v -0.23000000 0.25400000 -0.87000000
v -0.23000000 0.25400000 -0.86600000
v -0.23000000 0.25400000 -0.86200000
v -0.23000000 0.25400000 -0.85800000
v -0.23000000 0.25400000 -0.85400000
v -0.23000000 0.25400000 -0.85000000
v -0.23000000 0.25800000 -0.90200000
v -0.23000000 0.25800000 -0.89000000
v -0.23000000 0.25800000 -0.88600000
v -0.23000000 0.25800000 -0.88200000
v -0.23000000 0.25800000 -0.87800000
v -0.23000000 0.25800000 -0.87400000
v -0.23000000 0.25800000 -0.87000000
v -0.23000000 0.25800000 -0.86600000
v -0.23000000 0.25800000 -0.86200000
v -0.23000000 0.25800000 -0.85800000
v -0.23000000 0.25800000 -0.85400000
v -0.23000000 0.25800000 -0.85000000
v -0.23000000 0.26200000 -0.90200000
v -0.23000000 0.26200000 -0.89000000
v -0.23000000 0.26200000 -0.88600000
v -0.23000000 0.26200000 -0.88200000
v -0.23000000 0.26200000 -0.87800000
v -0.23000000 0.26200000 -0.87400000
v -0.23000000 0.26200000 -0.87000000
v -0.23000000 0.26200000 -0.86600000
v -0.23000000 0.26200000 -0.86200000
v -0.23000000 0.26200000 -0.85800000
v -0.23000000 0.26200000 -0.85400000
v -0.23000000 0.26200000 -0.85000000
v -0.23000000 0.26600000 -0.90200000
v -0.23000000 0.26600000 -0.89000000
v -0.23000000 0.26600000 -0.88600000
v -0.23000000 0.26600000 -0.88200000
v -0.23000000 0.26600000 -0.87800000
v -0.23000000 0.26600000 -0.87400000
v -0.23000000 0.26600000 -0.87000000
v -0.23000000 0.26600000 -0.86600000
v -0.23000000 0.26600000 -0.86200000
v -0.23000000 0.26600000 -0.85800000
v -0.23000000 0.26600000 -0.85400000
v -0.23000000 0.26600000 -0.85000000
v -0.23000000 0.27000000 -0.90200000
v -0.23000000 0.27000000 -0.89000000
v -0.23000000 0.27400000 -0.90200000
v -0.23000000 0.27400000 -0.89000000
v -0.23000000 0.27400000 -0.89800000
v -0.23000000 0.27800000 -0.90200000
v -0.23000000 0.27800000 -0.89800000
v -0.23000000 0.27400000 -0.89400000
v -0.23000000 0.27800000 -0.89400000
v -0.23000000 0.27800000 -0.89000000
v -0.22600000 0.23000000 -0.90200000
v -0.22600000 0.23000000 -0.89800000
v -0.22600000 0.23400000 -0.90200000
v -0.22600000 0.23400000 -0.89800000
v -0.22600000 0.23000000 -0.89400000
v -0.22600000 0.23400000 -0.89400000
v -0.22600000 0.23000000 -0.89000000
v -0.22600000 0.23400000 -0.89000000
v -0.22600000 0.23800000 -0.90200000
v -0.22600000 0.23800000 -0.89000000
v -0.22600000 0.24200000 -0.90200000
v -0.22600000 0.24200000 -0.89000000
v -0.22600000 0.24600000 -0.90200000
v -0.22600000 0.24600000 -0.89000000
v -0.22600000 0.25000000 -0.90200000
v -0.22600000 0.25000000 -0.89000000
v -0.22600000 0.25400000 -0.90200000
v -0.22600000 0.25400000 -0.89000000
v -0.22600000 0.25800000 -0.90200000
v -0.22600000 0.25800000 -0.89000000
v -0.22600000 0.26200000 -0.90200000
v -0.22600000 0.26200000 -0.89000000
v -0.22600000 0.26600000 -0.90200000
v -0.22600000 0.26600000 -0.89000000
v -0.22600000 0.27000000 -0.90200000
v -0.22600000 0.27000000 -0.89000000
v -0.22600000 0.27000000 -0.89800000
v -0.22600000 0.27400000 -0.90200000
v -0.22600000 0.27400000 -0.89800000
v -0.22600000 0.27000000 -0.89400000
v -0.22600000 0.27400000 -0.89400000
v -0.22600000 0.27400000 -0.89000000
v -0.22200000 0.23400000 -0.90200000
v -0.22200000 0.23400000 -0.89800000
v -0.22200000 0.23800000 -0.90200000
v -0.22200000 0.23800000 -0.89800000
v -0.22200000 0.23400000 -0.89400000
v -0.22200000 0.23800000 -0.89400000
v -0.22200000 0.23400000 -0.89000000
v -0.22200000 0.23800000 -0.89000000
v -0.22200000 0.24200000 -0.90200000
v -0.22200000 0.24200000 -0.89800000
v -0.22200000 0.24200000 -0.89400000
v -0.22200000 0.24200000 -0.89000000
v -0.22200000 0.24600000 -0.90200000
v -0.22200000 0.24600000 -0.89000000
v -0.22200000 0.25000000 -0.90200000
v -0.22200000 0.25000000 -0.89000000
v -0.22200000 0.25400000 -0.90200000
v -0.22200000 0.25400000 -0.89000000
v -0.22200000 0.25800000 -0.90200000
v -0.22200000 0.25800000 -0.89000000
v -0.22200000 0.26200000 -0.90200000
v -0.22200000 0.26200000 -0.89000000
v -0.22200000 0.26600000 -0.90200000
v -0.22200000 0.26200000 -0.89800000
v -0.22200000 0.26200000 -0.89400000
v -0.22200000 0.26600000 -0.89800000
v -0.22200000 0.26600000 -0.89400000
v -0.22200000 0.26600000 -0.89000000
v -0.22200000 0.27000000 -0.90200000
v -0.22200000 0.27000000 -0.89800000
v -0.22200000 0.27000000 -0.89400000
v -0.22200000 0.27000000 -0.89000000
v -0.21800000 0.24200000 -0.90200000
v -0.21800000 0.24200000 -0.89800000
v -0.21800000 0.24600000 -0.90200000
v -0.21800000 0.24600000 -0.89800000
v -0.21800000 0.24200000 -0.89400000
v -0.21800000 0.24600000 -0.89400000
v -0.21800000 0.24200000 -0.89000000
v -0.21800000 0.24600000 -0.89000000
v -0.21800000 0.25000000 -0.90200000
v -0.21800000 0.25000000 -0.89800000
v -0.21800000 0.25000000 -0.89400000
v -0.21800000 0.25000000 -0.89000000
v -0.21800000 0.25400000 -0.90200000
v -0.21800000 0.25400000 -0.89800000
v -0.21800000 0.25400000 -0.89400000
v -0.21800000 0.25400000 -0.89000000
v -0.21800000 0.25800000 -0.90200000
v -0.21800000 0.25800000 -0.89800000
v -0.21800000 0.25800000 -0.89400000
v -0.21800000 0.25800000 -0.89000000
v -0.21800000 0.26200000 -0.90200000
v -0.21800000 0.26200000 -0.89800000
v -0.21800000 0.26200000 -0.89400000
v -0.21800000 0.26200000 -0.89000000
v -0.21800000 0.26600000 -0.90200000
v -0.21800000 0.26600000 -0.89800000
v -0.21800000 0.26600000 -0.89400000
v -0.21800000 0.26600000 -0.89000000
f 2 4 1
f 5 2 1
f 1 4 3
f 3 5 1
f 6 2 5
f 7 5 3
f 8 9 2
f 6 8 2
f 2 9 4
f 10 8 6
f 11 12 8
f 10 11 8
f 8 12 9
f 11 14 12
f 13 11 10
f 13 14 11
f 4 16 3
f 3 16 15
f 15 7 3
f 17 7 15
f 9 18 4
f 4 18 16
f 12 19 9
f 9 19 18
f 12 20 19
f 14 20 12
f 16 22 15
f 15 22 21
f 21 17 15
f 23 17 21
f 18 24 16
f 16 24 22
f 19 25 18
f 18 25 24
f 19 26 25
f 20 26 19
f 22 28 21
f 21 28 27
f 27 23 21
f 29 23 27
f 24 30 22
f 22 30 28
f 25 31 24
f 24 31 30
f 25 32 31
f 26 32 25
f 28 34 27
f 27 34 33
f 33 29 27
f 35 29 33
f 30 36 28
f 28 36 34
f 31 37 30
f 30 37 36
f 31 38 37
f 32 38 31
f 34 40 33
f 33 40 39
f 39 35 33
f 41 35 39
f 36 42 34
f 34 42 40
f 37 43 36
f 36 43 42
f 37 44 43
f 38 44 37
f 40 46 39
f 39 46 45
f 45 41 39
f 46 48 45
f 47 41 45
f 45 48 47
f 42 49 40
f 40 49 46
f 49 50 46
f 46 50 48
f 43 51 42
f 42 51 49
f 43 52 51
f 44 52 43
f 51 52 49
f 49 52 50
f 54 6 53
f 55 54 53
f 53 6 5
f 5 55 53
f 56 54 55
f 57 55 5
f 58 10 54
f 56 58 54
f 54 10 6
f 59 58 56
f 60 13 58
f 59 60 58
f 58 13 10
f 60 62 13
f 61 60 59
f 61 62 60
f 7 57 5
f 63 57 7
f 13 64 14
f 62 64 13
f 17 63 7
f 65 63 17
f 14 66 20
f 64 66 14
f 23 65 17
f 67 65 23
f 20 68 26
f 66 68 20
f 29 67 23
f 69 67 29
f 26 70 32
f 68 70 26
f 35 69 29
f 71 69 35
f 32 72 38
f 70 72 32
f 41 71 35
f 73 71 41
f 38 74 44
f 72 74 38
f 47 73 41
f 75 73 47
f 44 76 52
f 74 76 44
f 48 78 47
f 47 78 77
f 77 75 47
f 79 75 77
f 50 80 48
f 48 80 78
f 52 81 50
f 50 81 80
f 52 82 81
f 76 82 52
f 78 84 77
f 77 84 83
f 83 79 77
f 84 86 83
f 85 79 83
f 83 86 85
f 80 87 78
f 78 87 84
f 87 88 84
f 84 88 86
f 81 89 80
f 80 89 87
f 81 90 89
f 82 90 81
f 89 90 87
f 87 90 88
f 92 56 91
f 93 92 91
f 91 56 55
f 55 93 91
f 94 92 93
f 95 93 55
f 96 59 92
f 94 96 92
f 92 59 56
f 97 96 94
f 98 61 96
f 97 98 96
f 96 61 59
f 98 100 61
f 99 98 97
f 99 100 98
f 57 95 55
f 101 95 57
f 61 102 62
f 100 102 61
f 63 101 57
f 103 101 63
f 62 104 64
f 102 104 62
f 65 103 63
f 105 103 65
f 106 107 64
f 104 106 64
f 64 107 66
f 108 106 104
f 109 110 106
f 108 109 106
f 106 110 107
f 111 109 108
f 112 113 109
f 111 112 109
f 109 113 110
f 114 112 111
f 115 116 112
f 114 115 112
f 112 116 113
f 117 115 114
f 118 119 115
f 117 118 115
f 115 119 116
f 120 118 117
f 121 122 118
f 120 121 118
f 118 122 119
f 123 121 120
f 124 125 121
f 123 124 121
f 121 125 122
f 126 124 123
f 127 128 124
f 126 127 124
f 124 128 125
f 129 127 126
f 130 131 127
f 129 130 127
f 127 131 128
f 132 130 129
f 133 134 130
f 132 133 130
f 130 134 131
f 133 136 134
f 135 133 132
f 135 136 133
f 67 105 65
f 137 105 67
f 107 138 66
f 66 138 68
f 110 139 107
f 107 139 138
f 113 140 110
f 110 140 139
f 116 141 113
f 113 141 140
f 119 142 116
f 116 142 141
f 122 143 119
f 119 143 142
f 125 144 122
f 122 144 143
f 128 145 125
f 125 145 144
f 131 146 128
f 128 146 145
f 134 147 131
f 131 147 146
f 134 148 147
f 136 148 134
f 69 137 67
f 149 137 69
f 138 150 68
f 68 150 70
f 139 151 138
f 138 151 150
f 140 152 139
f 139 152 151
f 141 153 140
f 140 153 152
f 142 154 141
f 141 154 153
f 143 155 142
f 142 155 154
f 144 156 143
f 143 156 155
f 145 157 144
f 144 157 156
f 146 158 145
f 145 158 157
f 147 159 146
f 146 159 158
f 147 160 159
f 148 160 147
f 71 149 69
f 161 149 71
f 150 162 70
f 70 162 72
f 151 163 150
f 150 163 162
f 152 164 151
f 151 164 163
f 153 165 152
f 152 165 164
f 154 166 153
f 153 166 165
f 155 167 154
f 154 167 166
f 156 168 155
f 155 168 167
f 157 169 156
f 156 169 168
f 158 170 157
f 157 170 169
f 159 171 158
f 158 171 170
f 159 172 171
f 160 172 159
f 73 161 71
f 173 161 73
f 162 174 72
f 72 174 74
f 174 176 74
f 74 176 175
f 163 177 162
f 162 177 174
f 177 178 174
f 174 178 176
f 164 179 163
f 163 179 177
f 179 180 177
f 177 180 178
f 165 181 164
f 164 181 179
f 181 182 179
f 179 182 180
f 166 183 165
f 165 183 181
f 183 184 181
f 181 184 182
f 167 185 166
f 166 185 183
f 185 186 183
f 183 186 184
f 168 187 167
f 167 187 185
f 187 188 185
f 185 188 186
f 169 189 168
f 168 189 187
f 189 190 187
f 187 190 188
f 170 191 169
f 169 191 189
f 191 192 189
f 189 192 190
f 171 193 170
f 170 193 191
f 171 194 193
f 172 194 171
f 193 194 191
f 191 194 192
f 75 173 73
f 195 173 75
f 74 196 76
f 175 196 74
f 79 195 75
f 197 195 79
f 76 198 82
f 196 198 76
f 85 197 79
f 86 200 85
f 199 197 85
f 85 200 199
f 88 201 86
f 86 201 200
f 82 202 90
f 198 202 82
f 90 202 88
f 88 202 201
f 204 94 203
f 205 204 203
f 203 94 93
f 93 205 203
f 206 204 205
f 207 205 93
f 208 97 204
f 206 208 204
f 204 97 94
f 209 208 206
f 210 99 208
f 209 210 208
f 208 99 97
f 210 212 99
f 211 210 209
f 211 212 210
f 95 207 93
f 213 207 95
f 99 214 100
f 212 214 99
f 101 213 95
f 215 213 101
f 100 216 102
f 214 216 100
f 103 215 101
f 217 215 103
f 218 108 102
f 216 218 102
f 102 108 104
f 219 218 216
f 220 111 218
f 219 220 218
f 218 111 108
f 221 220 219
f 222 114 220
f 221 222 220
f 220 114 111
f 223 222 221
f 224 117 222
f 223 224 222
f 222 117 114
f 225 224 223
f 226 120 224
f 225 226 224
f 224 120 117
f 227 226 225
f 228 123 226
f 227 228 226
f 226 123 120
f 229 228 227
f 230 126 228
f 229 230 228
f 228 126 123
f 231 230 229
f 232 129 230
f 231 232 230
f 230 129 126
f 233 232 231
f 234 132 232
f 233 234 232
f 232 132 129
f 235 234 233
f 236 135 234
f 235 236 234
f 234 135 132
f 236 238 135
f 237 236 235
f 237 238 236
f 105 217 103
f 239 217 105
f 135 240 136
f 238 240 135
f 137 239 105
f 241 239 137
f 136 242 148
f 240 242 136
f 149 241 137
f 243 241 149
f 148 244 160
f 242 244 148
f 161 243 149
f 245 243 161
f 160 246 172
f 244 246 160
f 173 245 161
f 247 245 173
f 172 248 194
f 246 248 172
f 195 247 173
f 249 247 195
f 176 250 175
f 175 250 196
f 250 252 196
f 196 252 251
f 178 253 176
f 176 253 250
f 253 254 250
f 250 254 252
f 180 255 178
f 178 255 253
f 255 256 253
f 253 256 254
f 182 257 180
f 180 257 255
f 257 258 255
f 255 258 256
f 184 259 182
f 182 259 257
f 259 260 257
f 257 260 258
f 186 261 184
f 184 261 259
f 261 262 259
f 259 262 260
f 188 263 186
f 186 263 261
f 263 264 261
f 261 264 262
f 190 265 188
f 188 265 263
f 265 266 263
f 263 266 264
f 192 267 190
f 190 267 265
f 267 268 265
f 265 268 266
f 194 269 192
f 192 269 267
f 194 270 269
f 248 270 194
f 269 270 267
f 267 270 268
f 197 249 195
f 271 249 197
f 196 272 198
f 251 272 196
f 199 271 197
f 273 271 199
f 198 274 202
f 272 274 198
f 200 276 199
f 199 276 275
f 275 273 199
f 276 278 275
f 277 273 275
f 275 278 277
f 201 279 200
f 200 279 276
f 279 280 276
f 276 280 278
f 202 281 201
f 201 281 279
f 202 282 281
f 274 282 202
f 281 282 279
f 279 282 280
f 283 206 205
f 207 283 205
f 284 206 283
f 285 283 207
f 284 209 206
f 286 209 284
f 286 211 209
f 211 288 212
f 287 211 286
f 287 288 211
f 213 285 207
f 289 285 213
f 212 290 214
f 288 290 212
f 215 289 213
f 291 289 215
f 292 219 214
f 290 292 214
f 214 219 216
f 293 292 290
f 294 221 292
f 293 294 292
f 292 221 219
f 295 294 293
f 296 223 294
f 295 296 294
f 294 223 221
f 297 296 295
f 298 225 296
f 297 298 296
f 296 225 223
f 299 298 297
f 300 227 298
f 299 300 298
f 298 227 225
f 301 300 299
f 302 229 300
f 301 302 300
f 300 229 227
f 303 302 301
f 304 231 302
f 303 304 302
f 302 231 229
f 305 304 303
f 306 233 304
f 305 306 304
f 304 233 231
f 307 306 305
f 308 235 306
f 307 308 306
f 306 235 233
f 309 308 307
f 310 237 308
f 309 310 308
f 308 237 235
f 310 312 237
f 311 310 309
f 311 312 310
f 217 291 215
f 313 291 217
f 237 314 238
f 312 314 237
f 239 313 217
f 315 313 239
f 238 316 240
f 314 316 238
f 241 315 239
f 317 315 241
f 240 318 242
f 316 318 240
f 243 317 241
f 319 317 243
f 242 320 244
f 318 320 242
f 245 319 243
f 321 319 245
f 244 322 246
f 320 322 244
f 247 321 245
f 323 321 247
f 246 324 248
f 322 324 246
f 249 323 247
f 325 323 249
f 248 326 270
f 324 326 248
f 271 325 249
f 327 325 271
f 252 328 251
f 251 328 272
f 328 330 272
f 272 330 329
f 254 331 252
f 252 331 328
f 331 332 328
f 328 332 330
f 256 333 254
f 254 333 331
f 333 334 331
f 331 334 332
f 258 335 256
f 256 335 333
f 335 336 333
f 333 336 334
f 260 337 258
f 258 337 335
f 337 338 335
f 335 338 336
f 262 339 260
f 260 339 337
f 339 340 337
f 337 340 338
f 264 341 262
f 262 341 339
f 341 342 339
f 339 342 340
f 266 343 264
f 264 343 341
f 343 344 341
f 341 344 342
f 268 345 266
f 266 345 343
f 345 346 343
f 343 346 344
f 270 347 268
f 268 347 345
f 270 348 347
f 326 348 270
f 347 348 345
f 345 348 346
f 273 327 271
f 349 327 273
f 272 350 274
f 329 350 272
f 277 349 273
f 278 352 277
f 351 349 277
f 277 352 351
f 280 353 278
f 278 353 352
f 274 354 282
f 350 354 274
f 282 354 280
f 280 354 353
f 356 284 355
f 357 356 355
f 355 284 283
f 283 357 355
f 358 356 357
f 359 357 283
f 360 286 356
f 358 360 356
f 356 286 284
f 361 360 358
f 362 287 360
f 361 362 360
f 360 287 286
f 362 364 287
f 363 362 361
f 363 364 362
f 285 359 283
f 365 359 285
f 287 366 288
f 364 366 287
f 289 365 285
f 367 365 289
f 288 368 290
f 366 368 288
f 291 367 289
f 369 367 291
f 368 293 290
f 370 293 368
f 370 295 293
f 371 295 370
f 371 297 295
f 372 297 371
f 372 299 297
f 373 299 372
f 373 301 299
f 374 301 373
f 374 303 301
f 375 303 374
f 375 305 303
f 376 305 375
f 376 307 305
f 377 307 376
f 377 309 307
f 378 309 377
f 378 311 309
f 311 380 312
f 379 311 378
f 379 380 311
f 313 369 291
f 381 369 313
f 312 382 314
f 380 382 312
f 315 381 313
f 383 381 315
f 314 384 316
f 382 384 314
f 317 383 315
f 385 383 317
f 316 386 318
f 384 386 316
f 319 385 317
f 387 385 319
f 318 388 320
f 386 388 318
f 321 387 319
f 389 387 321
f 320 390 322
f 388 390 320
f 323 389 321
f 391 389 323
f 322 392 324
f 390 392 322
f 325 391 323
f 393 391 325
f 324 394 326
f 392 394 324
f 327 393 325
f 395 393 327
f 330 397 329
f 329 397 396
f 332 398 330
f 330 398 397
f 334 399 332
f 332 399 398
f 336 400 334
f 334 400 399
f 338 401 336
f 336 401 400
f 340 402 338
f 338 402 401
f 342 403 340
f 340 403 402
f 344 404 342
f 342 404 403
f 346 405 344
f 344 405 404
f 326 406 348
f 394 406 326
f 348 406 346
f 346 406 405
f 349 395 327
f 407 395 349
f 329 408 350
f 396 408 329
f 351 407 349
f 409 407 351
f 350 410 354
f 408 410 350
f 352 412 351
f 351 412 411
f 411 409 351
f 412 414 411
f 413 409 411
f 411 414 413
f 353 415 352
f 352 415 412
f 415 416 412
f 412 416 414
f 354 417 353
f 353 417 415
f 354 418 417
f 410 418 354
f 417 418 415
f 415 418 416
f 419 358 357
f 359 419 357
f 420 358 419
f 421 419 359
f 420 361 358
f 422 361 420
f 422 363 361
f 363 424 364
f 423 363 422
f 423 424 363
f 365 421 359
f 425 421 365
f 364 426 366
f 424 426 364
f 367 425 365
f 427 425 367
f 428 370 366
f 426 428 366
f 366 370 368
f 429 428 426
f 430 371 428
f 429 430 428
f 428 371 370
f 431 430 429
f 432 372 430
f 431 432 430
f 430 372 371
f 433 432 431
f 434 373 432
f 433 434 432
f 432 373 372
f 435 434 433
f 436 374 434
f 435 436 434
f 434 374 373
f 437 436 435
f 438 375 436
f 437 438 436
f 436 375 374
f 439 438 437
f 440 376 438
f 439 440 438
f 438 376 375
f 441 440 439
f 442 377 440
f 441 442 440
f 440 377 376
f 443 442 441
f 444 378 442
f 443 444 442
f 442 378 377
f 445 444 443
f 446 379 444
f 445 446 444
f 444 379 378
f 446 448 379
f 447 446 445
f 447 448 446
f 369 427 367
f 449 427 369
f 379 450 380
f 448 450 379
f 381 449 369
f 451 449 381
f 380 452 382
f 450 452 380
f 383 451 381
f 453 451 383
f 382 454 384
f 452 454 382
f 385 453 383
f 455 453 385
f 384 456 386
f 454 456 384
f 387 455 385
f 457 455 387
f 386 458 388
f 456 458 386
f 389 457 387
f 459 457 389
f 388 460 390
f 458 460 388
f 391 459 389
f 461 459 391
f 390 462 392
f 460 462 390
f 393 461 391
f 463 461 393
f 392 464 394
f 462 464 392
f 395 463 393
f 465 463 395
f 394 466 406
f 464 466 394
f 407 465 395
f 467 465 407
f 397 468 396
f 396 468 408
f 468 470 408
f 408 470 469
f 398 471 397
f 397 471 468
f 471 472 468
f 468 472 470
f 399 473 398
f 398 473 471
f 473 474 471
f 471 474 472
f 400 475 399
f 399 475 473
f 475 476 473
f 473 476 474
f 401 477 400
f 400 477 475
f 477 478 475
f 475 478 476
f 402 479 401
f 401 479 477
f 479 480 477
f 477 480 478
f 403 481 402
f 402 481 479
f 481 482 479
f 479 482 480
f 404 483 403
f 403 483 481
f 483 484 481
f 481 484 482
f 405 485 404
f 404 485 483
f 485 486 483
f 483 486 484
f 406 487 405
f 405 487 485
f 406 488 487
f 466 488 406
f 487 488 485
f 485 488 486
f 409 467 407
f 489 467 409
f 408 490 410
f 469 490 408
f 413 489 409
f 414 492 413
f 491 489 413
f 413 492 491
f 416 493 414
f 414 493 492
f 410 494 418
f 490 494 410
f 418 494 416
f 416 494 493
f 495 420 419
f 421 495 419
f 496 420 495
f 497 495 421
f 496 422 420
f 498 422 496
f 498 423 422
f 423 500 424
f 499 423 498
f 499 500 423
f 425 497 421
f 501 497 425
f 424 502 426
f 500 502 424
f 427 501 425
f 503 501 427
f 502 429 426
f 504 429 502
f 504 431 429
f 505 431 504
f 505 433 431
f 506 433 505
f 506 435 433
f 507 435 506
f 507 437 435
f 508 437 507
f 508 439 437
f 509 439 508
f 509 441 439
f 510 441 509
f 510 443 441
f 511 443 510
f 511 445 443
f 512 445 511
f 512 447 445
f 447 514 448
f 513 447 512
f 513 514 447
f 449 503 427
f 515 503 449
f 448 516 450
f 514 516 448
f 451 515 449
f 517 515 451
f 450 518 452
f 516 518 450
f 453 517 451
f 519 517 453
f 452 520 454
f 518 520 452
f 455 519 453
f 521 519 455
f 454 522 456
f 520 522 454
f 457 521 455
f 523 521 457
f 456 524 458
f 522 524 456
f 459 523 457
f 525 523 459
f 458 526 460
f 524 526 458
f 461 525 459
f 527 525 461
f 460 528 462
f 526 528 460
f 463 527 461
f 529 527 463
f 462 530 464
f 528 530 462
f 465 529 463
f 531 529 465
f 464 532 466
f 530 532 464
f 467 531 465
f 533 531 467
f 470 535 469
f 469 535 534
f 472 536 470
f 470 536 535
f 474 537 472
f 472 537 536
f 476 538 474
f 474 538 537
f 478 539 476
f 476 539 538
f 480 540 478
f 478 540 539
f 482 541 480
f 480 541 540
f 484 542 482
f 482 542 541
f 486 543 484
f 484 543 542
f 466 544 488
f 532 544 466
f 488 544 486
f 486 544 543
f 489 533 467
f 545 533 489
f 469 546 490
f 534 546 469
f 491 545 489
f 492 548 491
f 547 545 491
f 491 548 547
f 493 549 492
f 492 549 548
f 490 550 494
f 546 550 490
f 494 550 493
f 493 550 549
f 551 496 495
f 497 551 495
f 552 496 551
f 553 551 497
f 552 498 496
f 554 498 552
f 554 499 498
f 499 556 500
f 555 499 554
f 555 556 499
f 501 553 497
f 557 553 501
f 500 558 502
f 556 558 500
f 503 557 501
f 559 557 503
f 558 504 502
f 560 504 558
f 561 560 558
f 562 560 561
f 560 505 504
f 563 505 560
f 562 563 560
f 564 563 562
f 563 506 505
f 565 506 563
f 564 565 563
f 566 565 564
f 565 507 506
f 567 507 565
f 566 567 565
f 568 567 566
f 567 508 507
f 569 508 567
f 568 569 567
f 570 569 568
f 569 509 508
f 571 509 569
f 570 571 569
f 572 571 570
f 571 510 509
f 573 510 571
f 572 573 571
f 574 573 572
f 573 511 510
f 575 511 573
f 574 575 573
f 576 575 574
f 575 512 511
f 577 512 575
f 576 577 575
f 578 577 576
f 577 513 512
f 513 580 514
f 579 513 577
f 579 580 513
f 578 579 577
f 580 579 578
f 515 559 503
f 581 559 515
f 514 582 516
f 580 582 514
f 517 581 515
f 583 581 517
f 516 584 518
f 582 584 516
f 519 583 517
f 585 583 519
f 518 586 520
f 584 586 518
f 521 585 519
f 587 585 521
f 520 588 522
f 586 588 520
f 523 587 521
f 589 587 523
f 522 590 524
f 588 590 522
f 525 589 523
f 591 589 525
f 524 592 526
f 590 592 524
f 527 591 525
f 593 591 527
f 526 594 528
f 592 594 526
f 529 593 527
f 595 593 529
f 528 596 530
f 594 596 528
f 531 595 529
f 597 595 531
f 530 598 532
f 596 598 530
f 533 597 531
f 599 597 533
f 535 601 534
f 534 601 600
f 536 602 535
f 535 602 601
f 537 603 536
f 536 603 602
f 538 604 537
f 537 604 603
f 539 605 538
f 538 605 604
f 540 606 539
f 539 606 605
f 541 607 540
f 540 607 606
f 542 608 541
f 541 608 607
f 543 609 542
f 542 609 608
f 532 610 544
f 598 610 532
f 544 610 543
f 543 610 609
f 545 599 533
f 611 599 545
f 534 612 546
f 600 612 534
f 547 611 545
f 548 614 547
f 613 611 547
f 547 614 613
f 549 615 548
f 548 615 614
f 546 616 550
f 612 616 546
f 550 616 549
f 549 616 615
f 617 552 551
f 553 617 551
f 618 552 617
f 619 617 553
f 618 554 552
f 620 554 618
f 620 555 554
f 555 622 556
f 621 555 620
f 621 622 555
f 557 619 553
f 623 619 557
f 556 624 558
f 622 624 556
f 559 623 557
f 625 623 559
f 558 626 561
f 624 626 558
f 581 625 559
f 627 625 581
f 626 562 561
f 628 562 626
f 628 564 562
f 629 564 628
f 629 566 564
f 630 566 629
f 630 568 566
f 631 568 630
f 631 570 568
f 632 570 631
f 632 572 570
f 633 572 632
f 633 574 572
f 634 574 633
f 634 576 574
f 635 576 634
f 635 578 576
f 636 578 635
f 636 580 578
f 580 638 582
f 637 580 636
f 637 638 580
f 583 627 581
f 639 627 583
f 582 640 584
f 638 640 582
f 585 639 583
f 641 639 585
f 584 642 586
f 640 642 584
f 587 641 585
f 643 641 587
f 586 644 588
f 642 644 586
f 589 643 587
f 645 643 589
f 588 646 590
f 644 646 588
f 591 645 589
f 647 645 591
f 590 648 592
f 646 648 590
f 593 647 591
f 649 647 593
f 592 650 594
f 648 650 592
f 595 649 593
f 651 649 595
f 594 652 596
f 650 652 594
f 597 651 595
f 653 651 597
f 596 654 598
f 652 654 596
f 599 653 597
f 655 653 599
f 601 659 600
f 600 659 658
f 658 657 656
f 659 657 658
f 602 661 601
f 601 661 659
f 659 660 657
f 661 660 659
f 603 663 602
f 602 663 661
f 661 662 660
f 663 662 661
f 604 665 603
f 603 665 663
f 663 664 662
f 665 664 663
f 605 667 604
f 604 667 665
f 665 666 664
f 667 666 665
f 606 669 605
f 605 669 667
f 667 668 666
f 669 668 667
f 607 671 606
f 606 671 669
f 669 670 668
f 671 670 669
f 608 673 607
f 607 673 671
f 671 672 670
f 673 672 671
f 609 675 608
f 608 675 673
f 673 674 672
f 675 674 673
f 598 676 610
f 654 676 598
f 610 676 609
f 609 676 675
f 675 654 674
f 676 654 675
f 611 655 599
f 677 655 611
f 600 678 612
f 658 678 600
f 613 677 611
f 614 680 613
f 679 677 613
f 613 680 679
f 615 681 614
f 614 681 680
f 612 682 616
f 678 682 612
f 616 682 615
f 615 682 681
f 683 618 617
f 619 683 617
f 684 618 683
f 685 683 619
f 685 684 683
f 686 684 685
f 684 620 618
f 687 620 684
f 686 687 684
f 688 687 686
f 687 621 620
f 621 690 622
f 689 621 687
f 689 690 621
f 688 689 687
f 690 689 688
f 623 685 619
f 691 685 623
f 622 692 624
f 690 692 622
f 625 691 623
f 693 691 625
f 624 694 626
f 692 694 624
f 627 693 625
f 695 693 627
f 694 628 626
f 696 628 694
f 696 629 628
f 697 629 696
f 697 630 629
f 698 630 697
f 698 631 630
f 699 631 698
f 699 632 631
f 700 632 699
f 700 633 632
f 701 633 700
f 701 634 633
f 702 634 701
f 702 635 634
f 703 635 702
f 703 636 635
f 704 636 703
f 704 637 636
f 637 706 638
f 705 637 704
f 705 706 637
f 639 695 627
f 707 695 639
f 638 708 640
f 706 708 638
f 641 707 639
f 709 707 641
f 640 710 642
f 708 710 640
f 643 709 641
f 711 709 643
f 642 712 644
f 710 712 642
f 645 711 643
f 713 711 645
f 644 714 646
f 712 714 644
f 647 713 645
f 715 713 647
f 646 716 648
f 714 716 646
f 649 715 647
f 717 715 649
f 648 718 650
f 716 718 648
f 651 717 649
f 719 717 651
f 650 720 652
f 718 720 650
f 653 719 651
f 721 719 653
f 657 723 656
f 656 723 722
f 660 724 657
f 657 724 723
f 662 725 660
f 660 725 724
f 664 726 662
f 662 726 725
f 666 727 664
f 664 727 726
f 668 728 666
f 666 728 727
f 670 729 668
f 668 729 728
f 672 730 670
f 670 730 729
f 674 731 672
f 672 731 730
f 652 732 654
f 720 732 652
f 654 732 674
f 674 732 731
f 655 721 653
f 733 721 655
f 656 734 658
f 722 734 656
f 677 733 655
f 735 733 677
f 658 736 678
f 734 736 658
f 679 735 677
f 680 739 679
f 738 735 679
f 679 739 738
f 738 737 735
f 739 737 738
f 681 741 680
f 680 741 739
f 739 740 737
f 741 740 739
f 678 742 682
f 736 742 678
f 682 742 681
f 681 742 741
f 741 736 740
f 742 736 741
f 743 686 685
f 691 743 685
f 744 686 743
f 745 743 691
f 744 688 686
f 746 688 744
f 746 690 688
f 690 748 692
f 747 690 746
f 747 748 690
f 693 745 691
f 749 745 693
f 692 750 694
f 748 750 692
f 695 749 693
f 751 749 695
f 750 696 694
f 752 696 750
f 753 752 750
f 754 752 753
f 752 697 696
f 755 697 752
f 754 755 752
f 756 755 754
f 755 698 697
f 757 698 755
f 756 757 755
f 758 757 756
f 757 699 698
f 759 699 757
f 758 759 757
f 760 759 758
f 759 700 699
f 761 700 759
f 760 761 759
f 762 761 760
f 761 701 700
f 763 701 761
f 762 763 761
f 764 763 762
f 763 702 701
f 765 702 763
f 764 765 763
f 766 765 764
f 765 703 702
f 767 703 765
f 766 767 765
f 768 767 766
f 767 704 703
f 769 704 767
f 768 769 767
f 770 769 768
f 769 705 704
f 705 772 706
f 771 705 769
f 771 772 705
f 770 771 769
f 772 771 770
f 707 751 695
f 773 751 707
f 706 774 708
f 772 774 706
f 709 773 707
f 775 773 709
f 708 776 710
f 774 776 708
f 711 775 709
f 777 775 711
f 710 778 712
f 776 778 710
f 713 777 711
f 779 777 713
f 712 780 714
f 778 780 712
f 715 779 713
f 781 779 715
f 714 782 716
f 780 782 714
f 717 781 715
f 783 781 717
f 716 784 718
f 782 784 716
f 719 783 717
f 785 783 719
f 718 786 720
f 784 786 718
f 721 785 719
f 787 785 721
f 723 791 722
f 722 791 790
f 790 789 788
f 791 789 790
f 724 793 723
f 723 793 791
f 791 792 789
f 793 792 791
f 725 795 724
f 724 795 793
f 793 794 792
f 795 794 793
f 726 797 725
f 725 797 795
f 795 796 794
f 797 796 795
f 727 799 726
f 726 799 797
f 797 798 796
f 799 798 797
f 728 801 727
f 727 801 799
f 799 800 798
f 801 800 799
f 729 803 728
f 728 803 801
f 801 802 800
f 803 802 801
f 730 805 729
f 729 805 803
f 803 804 802
f 805 804 803
f 731 807 730
f 730 807 805
f 805 806 804
f 807 806 805
f 720 808 732
f 786 808 720
f 732 808 731
f 731 808 807
f 807 786 806
f 808 786 807
f 733 787 721
f 809 787 733
f 722 810 734
f 790 810 722
f 735 809 733
f 737 812 735
f 811 809 735
f 735 812 811
f 740 813 737
f 737 813 812
f 734 814 736
f 810 814 734
f 736 814 740
f 740 814 813
f 815 744 743
f 745 815 743
f 816 744 815
f 817 815 745
f 817 816 815
f 818 816 817
f 816 746 744
f 819 746 816
f 818 819 816
f 820 819 818
f 819 747 746
f 747 822 748
f 821 747 819
f 821 822 747
f 820 821 819
f 822 821 820
f 749 817 745
f 823 817 749
f 748 824 750
f 822 824 748
f 751 823 749
f 825 823 751
f 750 826 753
f 824 826 750
f 773 825 751
f 827 825 773
f 826 754 753
f 828 754 826
f 829 828 826
f 830 828 829
f 828 756 754
f 831 756 828
f 830 831 828
f 832 831 830
f 831 758 756
f 833 758 831
f 832 833 831
f 834 833 832
f 833 760 758
f 835 760 833
f 834 835 833
f 836 835 834
f 835 762 760
f 837 762 835
f 836 837 835
f 838 837 836
f 837 764 762
f 839 764 837
f 838 839 837
f 840 839 838
f 839 766 764
f 841 766 839
f 840 841 839
f 842 841 840
f 841 768 766
f 843 768 841
f 842 843 841
f 844 843 842
f 843 770 768
f 845 770 843
f 844 845 843
f 846 845 844
f 845 772 770
f 772 848 774
f 847 772 845
f 847 848 772
f 846 847 845
f 848 847 846
f 775 827 773
f 849 827 775
f 850 830 829
f 851 830 850
f 851 832 830
f 852 832 851
f 852 834 832
f 853 834 852
f 853 836 834
f 854 836 853
f 854 838 836
f 855 838 854
f 855 840 838
f 856 840 855
f 856 842 840
f 857 842 856
f 857 844 842
f 858 844 857
f 858 846 844
f 859 846 858
f 774 860 776
f 848 860 774
f 859 848 846
f 860 848 859
f 777 849 775
f 861 849 777
f 862 851 850
f 863 851 862
f 863 852 851
f 864 852 863
f 864 853 852
f 865 853 864
f 865 854 853
f 866 854 865
f 866 855 854
f 867 855 866
f 867 856 855
f 868 856 867
f 868 857 856
f 869 857 868
f 869 858 857
f 870 858 869
f 870 859 858
f 871 859 870
f 776 872 778
f 860 872 776
f 871 860 859
f 872 860 871
f 779 861 777
f 873 861 779
f 874 863 862
f 875 863 874
f 875 864 863
f 876 864 875
f 876 865 864
f 877 865 876
f 877 866 865
f 878 866 877
f 878 867 866
f 879 867 878
f 879 868 867
f 880 868 879
f 880 869 868
f 881 869 880
f 881 870 869
f 882 870 881
f 882 871 870
f 883 871 882
f 778 884 780
f 872 884 778
f 883 872 871
f 884 872 883
f 781 873 779
f 885 873 781
f 886 875 874
f 887 875 886
f 887 876 875
f 888 876 887
f 888 877 876
f 889 877 888
f 889 878 877
f 890 878 889
f 890 879 878
f 891 879 890
f 891 880 879
f 892 880 891
f 892 881 880
f 893 881 892
f 893 882 881
f 894 882 893
f 894 883 882
f 895 883 894
f 780 896 782
f 884 896 780
f 895 884 883
f 896 884 895
f 783 885 781
f 897 885 783
f 898 887 886
f 899 887 898
f 899 888 887
f 900 888 899
f 900 889 888
f 901 889 900
f 901 890 889
f 902 890 901
f 902 891 890
f 903 891 902
f 903 892 891
f 904 892 903
f 904 893 892
f 905 893 904
f 905 894 893
f 906 894 905
f 906 895 894
f 907 895 906
f 782 908 784
f 896 908 782
f 907 896 895
f 908 896 907
f 785 897 783
f 909 897 785
f 789 911 788
f 788 911 910
f 910 899 898
f 911 899 910
f 792 912 789
f 789 912 911
f 911 900 899
f 912 900 911
f 794 913 792
f 792 913 912
f 912 901 900
f 913 901 912
f 796 914 794
f 794 914 913
f 913 902 901
f 914 902 913
f 798 915 796
f 796 915 914
f 914 903 902
f 915 903 914
f 800 916 798
f 798 916 915
f 915 904 903
f 916 904 915
f 802 917 800
f 800 917 916
f 916 905 904
f 917 905 916
f 804 918 802
f 802 918 917
f 917 906 905
f 918 906 917
f 806 919 804
f 804 919 918
f 918 907 906
f 919 907 918
f 784 920 786
f 908 920 784
f 786 920 806
f 806 920 919
f 919 908 907
f 920 908 919
f 787 909 785
f 921 909 787
f 788 922 790
f 910 922 788
f 809 921 787
f 923 921 809
f 790 924 810
f 922 924 790
f 811 923 809
f 812 927 811
f 926 923 811
f 811 927 926
f 926 925 923
f 927 925 926
f 813 929 812
f 812 929 927
f 927 928 925
f 929 928 927
f 810 930 814
f 924 930 810
f 814 930 813
f 813 930 929
f 929 924 928
f 930 924 929
f 931 818 817
f 823 931 817
f 932 818 931
f 933 931 823
f 933 932 931
f 934 932 933
f 932 820 818
f 935 820 932
f 934 935 932
f 936 935 934
f 935 822 820
f 822 938 824
f 937 822 935
f 937 938 822
f 936 937 935
f 938 937 936
f 825 933 823
f 939 933 825
f 824 940 826
f 938 940 824
f 827 939 825
f 941 939 827
f 826 942 829
f 940 942 826
f 849 941 827
f 943 941 849
f 829 944 850
f 942 944 829
f 861 943 849
f 945 943 861
f 850 946 862
f 944 946 850
f 873 945 861
f 947 945 873
f 862 948 874
f 946 948 862
f 885 947 873
f 949 947 885
f 874 950 886
f 948 950 874
f 897 949 885
f 951 949 897
f 886 952 898
f 950 952 886
f 909 951 897
f 953 951 909
f 898 954 910
f 952 954 898
f 921 953 909
f 955 953 921
f 910 956 922
f 954 956 910
f 923 955 921
f 925 959 923
f 958 955 923
f 923 959 958
f 958 957 955
f 959 957 958
f 928 961 925
f 925 961 959
f 959 960 957
f 961 960 959
f 922 962 924
f 956 962 922
f 924 962 928
f 928 962 961
f 961 956 960
f 962 956 961
f 963 934 933
f 939 963 933
f 964 934 963
f 965 963 939
f 965 964 963
f 966 964 965
f 964 936 934
f 967 936 964
f 966 967 964
f 968 967 966
f 967 938 936
f 938 970 940
f 969 938 967
f 969 970 938
f 968 969 967
f 970 969 968
f 941 965 939
f 971 965 941
f 971 966 965
f 972 966 971
f 972 968 966
f 973 968 972
f 940 974 942
f 970 974 940
f 973 970 968
f 974 970 973
f 943 971 941
f 975 971 943
f 942 976 944
f 974 976 942
f 945 975 943
f 977 975 945
f 944 978 946
f 976 978 944
f 947 977 945
f 979 977 947
f 946 980 948
f 978 980 946
f 949 979 947
f 981 979 949
f 948 982 950
f 980 982 948
f 951 981 949
f 983 981 951
f 950 984 952
f 982 984 950
f 953 983 951
f 985 983 953
f 988 987 986
f 989 987 988
f 952 990 954
f 984 990 952
f 955 985 953
f 957 992 955
f 991 985 955
f 955 992 991
f 991 988 985
f 992 988 991
f 960 993 957
f 957 993 992
f 992 989 988
f 993 989 992
f 954 994 956
f 990 994 954
f 956 994 960
f 960 994 993
f 993 990 989
f 994 990 993
f 995 972 971
f 975 995 971
f 996 972 995
f 997 995 975
f 997 996 995
f 998 996 997
f 996 973 972
f 999 973 996
f 998 999 996
f 1000 999 998
f 999 974 973
f 974 1002 976
f 1001 974 999
f 1001 1002 974
f 1000 1001 999
f 1002 1001 1000
f 977 997 975
f 1003 997 977
f 1003 998 997
f 1004 998 1003
f 1004 1000 998
f 1005 1000 1004
f 976 1006 978
f 1002 1006 976
f 1005 1002 1000
f 1006 1002 1005
f 979 1003 977
f 1007 1003 979
f 1007 1004 1003
f 1008 1004 1007
f 1008 1005 1004
f 1009 1005 1008
f 978 1010 980
f 1006 1010 978
f 1009 1006 1005
f 1010 1006 1009
f 981 1007 979
f 1011 1007 981
f 1011 1008 1007
f 1012 1008 1011
f 1012 1009 1008
f 1013 1009 1012
f 980 1014 982
f 1010 1014 980
f 1013 1010 1009
f 1014 1010 1013
f 983 1011 981
f 1015 1011 983
f 1015 1012 1011
f 1016 1012 1015
f 987 1017 986
f 986 1017 1016
f 1016 1013 1012
f 1017 1013 1016
f 982 1018 984
f 1014 1018 982
f 1017 1014 1013
f 1018 1014 1017
f 985 1015 983
f 986 1020 988
f 1016 1020 986
f 988 1020 985
f 1019 1015 985
f 985 1020 1019
f 1019 1016 1015
f 1020 1016 1019
f 989 1017 987
f 984 1022 990
f 1018 1022 984
f 990 1022 989
f 1021 1017 989
f 989 1022 1021
f 1021 1018 1017
f 1022 1018 1021

