# https://github.com/mikedh/trimesh
v 0.17789496 0.15043610 -0.02698558
v -0.17766383 0.15043610 -0.02698558
v 0.18004552 0.15133069 -0.06524797
v 0.13990163 0.15043610 -0.02698558
v -0.17981438 0.15133069 -0.06524797
v -0.18268158 0.15133069 -0.02698558
v 0.17717770 0.15043610 0.02258235
v 0.10047499 0.15043610 -0.02698558
v 0.16714219 0.15133069 -0.07655351
v -0.17981438 0.15133069 -0.07394435
v 0.18004552 0.15043610 -0.02698558
v 0.13990163 0.15133069 0.02258235
v 0.10047499 0.15133069 0.02258235
v 0.06033110 0.15043610 -0.02698558
v -0.16691105 0.15133069 -0.07655351
v 0.18004552 0.15133069 -0.07394435
v -0.17981438 0.15043610 -0.02698558
v 0.18291272 0.15133069 -0.02698558
v 0.18147881 0.15133069 -0.07394435
v 0.13990163 0.15401445 0.07302041
v 0.06033110 0.15133069 0.02258235
v 0.02018721 0.15043610 -0.02698558
v 0.16714219 0.15490904 -0.07742303
v 0.18004552 0.15133069 -0.07568338
v -0.18124768 0.15133069 -0.07394435
v -0.17694657 0.15043610 0.02258235
v -0.17981438 0.15133069 -0.07568338
v -0.18626605 0.15580362 -0.02698558
v 0.18219607 0.15222528 -0.07394435
v 0.18506328 0.15311986 0.02258235
v 0.17861161 0.15311986 0.07302041
v 0.10047499 0.15490904 0.07302041
v -0.01995607 0.15043610 -0.02698558
v -0.16691105 0.15490904 -0.07742303
v 0.18004552 0.15311986 -0.07655351
v -0.18196494 0.15222528 -0.07394435
v -0.13967049 0.15043610 -0.02698558
v -0.16691105 0.15311986 -0.07742303
v -0.18268158 0.15401445 -0.07394435
v -0.18483214 0.15311986 0.02258235
v 0.18649718 0.15580362 -0.02698558
v 0.18291272 0.15401445 -0.07394435
v 0.18147881 0.15222528 -0.07568338
v 0.17502715 0.15759341 0.12258835
v 0.06033110 0.15490904 0.07302041
v 0.02018721 0.15222528 0.02258235
v -0.06009996 0.15043610 -0.02698558
v 0.18004552 0.20501017 -0.07742303
v 0.18076217 0.15311986 -0.07655351
v 0.16714219 0.15311986 -0.07742303
v -0.18196494 0.15311986 -0.07568338
v -0.18124768 0.15222528 -0.07568338
v -0.10024386 0.15043610 -0.02698558
v -0.13967049 0.15133069 0.02258235
v -0.17981438 0.15311986 -0.07655351
v -0.18411549 0.15938258 -0.07394435
v -0.19128380 0.15938258 0.02258235
v -0.18841660 0.16117176 -0.02698558
v 0.18219607 0.15311986 -0.07568338
v 0.19151494 0.15938258 0.02258235
v 0.18649718 0.15490904 0.07302041
v 0.18721383 0.16027717 0.12258835
v 0.13846772 0.15848800 0.12258835
v 0.09904109 0.15938258 0.12258835
v -0.01995607 0.15222528 0.02258235
v -0.06009996 0.15133069 0.02258235
v -0.17981438 0.15490904 -0.07742303
v 0.18004552 0.15490904 -0.07742303
v -0.18053103 0.15311986 -0.07655351
v -0.10024386 0.15133069 0.02258235
v -0.17838047 0.15311986 0.07302041
v -0.13967049 0.15401445 0.07302041
v -0.18626605 0.15490904 0.07302041
v 0.18864774 0.16117176 -0.02698558
v 0.18434663 0.15938258 -0.07394435
v 0.18291272 0.15401445 -0.07568338
v 0.17789496 0.16385613 0.17302579
v 0.14061827 0.16564530 0.17215628
v 0.05961445 0.16027717 0.12258835
v 0.02018721 0.15490904 0.07302041
v -0.17981438 0.20501017 -0.07742303
v 0.18219607 0.19427452 -0.07742303
v 0.18147881 0.15401445 -0.07655351
v -0.18124768 0.15401445 -0.07655351
v -0.18268158 0.15401445 -0.07568338
v -0.18483214 0.16385613 -0.07394435
v -0.19415100 0.16922365 0.02258235
v -0.19271771 0.16117176 0.07215029
v -0.18984990 0.17280261 -0.02698558
v 0.18506328 0.16385613 -0.07394435
v 0.19438214 0.16922365 0.02258235
v 0.19294885 0.16117176 0.07215029
v 0.18936438 0.16653989 0.17215628
v 0.10047499 0.16653989 0.17215628
v 0.02018721 0.16027717 0.12258835
v 0.06033110 0.16743447 0.17215628
v -0.01995607 0.15490904 0.07302041
v -0.06009996 0.15490904 0.07302041
v -0.18196494 0.19427452 -0.07742303
v 0.18004552 0.20679996 -0.07655351
v 0.18147881 0.20501017 -0.07655351
v 0.18219607 0.16475071 -0.07742303
v 0.18147881 0.15490904 -0.07655351
v -0.17479601 0.15759341 0.12258835
v -0.18698269 0.16027717 0.12258835
v -0.10024386 0.15490904 0.07302041
v 0.19008103 0.17280261 -0.02698558
v 0.18434663 0.16475071 -0.07568338
v 0.19581605 0.17101343 0.12171822
v 0.18004552 0.17101343 0.22259373
v 0.14205218 0.17369719 0.22172421
v 0.10190829 0.17548637 0.22172421
v 0.02018721 0.16832906 0.17215628
v -0.18196494 0.16475071 -0.07742303
v -0.18124768 0.20501017 -0.07655351
v 0.18076217 0.20679996 -0.07655351
v -0.17981438 0.20679996 -0.07655351
v 0.18362937 0.19516911 -0.07655351
v 0.18147881 0.20590476 -0.07655351
v 0.18291272 0.18443285 -0.07742303
v -0.18124768 0.15490904 -0.07655351
v -0.18411549 0.16475071 -0.07568338
v -0.13823658 0.15848800 0.12258835
v -0.09880995 0.15938258 0.12258835
v -0.18554879 0.17459178 -0.07394435
v -0.19486826 0.17906533 0.02258235
v -0.19558491 0.17011823 0.07215029
v -0.19558491 0.17101343 0.12171822
v -0.18984990 0.18443285 -0.02698558
v 0.18362937 0.16475071 -0.07655351
v 0.18577992 0.17459178 -0.07394435
v 0.19509940 0.17906533 0.02258235
v 0.19581605 0.17011823 0.07215029
v 0.19796660 0.17638095 0.17128615
v 0.19151494 0.17459178 0.22172421
v 0.06104775 0.17638095 0.22172421
v -0.01995607 0.16027717 0.12258835
v 0.02018721 0.17727554 0.22085408
v -0.18339823 0.16475071 -0.07655351
v -0.18268158 0.17459178 -0.07742303
v -0.18339823 0.19516911 -0.07655351
v -0.18124768 0.20590476 -0.07655351
v 0.18004552 0.20769455 -0.07568338
v -0.18053103 0.20679996 -0.07655351
v 0.18291272 0.20590476 -0.07568338
v 0.18434663 0.18443285 -0.07655351
v 0.18291272 0.17459178 -0.07742303
v -0.14038714 0.16564530 0.17215628
v -0.17766383 0.16385613 0.17302579
v -0.18913325 0.16653989 0.17215628
v 0.19008103 0.18443285 -0.02698558
v 0.18434663 0.17459178 -0.07655351
v 0.18577992 0.17459178 -0.07568338
v 0.19868325 0.18443285 0.11997919
v 0.18291272 0.18085450 0.27129153
v 0.14420274 0.18443285 0.27042202
v 0.10334220 0.18622263 0.27042202
v 0.06248166 0.18801180 0.27042202
v -0.01995607 0.16832906 0.17215628
v -0.05938332 0.16027717 0.12258835
v -0.18411549 0.17459178 -0.07655351
v -0.18268158 0.18443285 -0.07742303
v -0.18411549 0.18443285 -0.07655351
v -0.18268158 0.20590476 -0.07568338
v 0.18147881 0.20769455 -0.07568338
v -0.18124768 0.20769455 -0.07568338
v -0.17981438 0.20769455 -0.07568338
v 0.18434663 0.19516911 -0.07568338
v 0.18577992 0.18532743 -0.07568338
v 0.18219607 0.20679996 -0.07568338
v -0.18554879 0.17459178 -0.07568338
v -0.10024386 0.16653989 0.17215628
v -0.18554879 0.18532743 -0.07394435
v -0.19415100 0.18980098 0.02171284
v -0.19630156 0.18174909 0.07128077
v -0.19845211 0.18443285 0.11997919
v -0.19773547 0.17638095 0.17128615
v -0.18841660 0.19606370 -0.02698558
v 0.18577992 0.18532743 -0.07394435
v 0.19438214 0.18980098 0.02171284
v 0.19653270 0.18174909 0.07128077
v 0.20155107 0.19069556 0.16954712
v 0.20011716 0.18353826 0.21998457
v 0.19438214 0.18353826 0.27129153
v 0.02090447 0.18890639 0.26955250
v -0.01995607 0.17727554 0.22085408
v -0.18554879 0.18532743 -0.07568338
v -0.18411549 0.19516911 -0.07568338
v -0.18196494 0.20679996 -0.07568338
v 0.18147881 0.20858913 -0.07394435
v 0.18004552 0.20858913 -0.07394435
v 0.18291272 0.20590476 -0.07394435
v -0.06009996 0.16743447 0.17215628
v -0.10167715 0.17548637 0.22172421
v -0.14182104 0.17369719 0.22172421
v -0.17981438 0.17101343 0.22259373
v -0.19128380 0.17459178 0.22172421
v 0.18864774 0.19606370 -0.02698558
v 0.19581605 0.19248474 0.07041125
v 0.19868325 0.20411559 0.16693857
v 0.20370162 0.19785287 0.21824553
v 0.18577992 0.19337994 0.31998995
v 0.10477610 0.19964265 0.31912043
v 0.06319830 0.20143183 0.31825091
v 0.02090447 0.20232641 0.31825091
v -0.02067333 0.18890639 0.26955250
v -0.18268158 0.20590476 -0.07394435
v 0.18219607 0.20679996 -0.07394435
v -0.18124768 0.20858913 -0.07394435
v -0.18196494 0.20679996 -0.07394435
v 0.02305502 0.20858913 -0.07394435
v 0.18506328 0.19516911 -0.07394435
v -0.06081661 0.17638095 0.22172421
v -0.18483214 0.19516911 -0.07394435
v -0.19558491 0.19248474 0.07041125
v -0.19128380 0.19874746 0.02171284
v -0.20131993 0.19069556 0.16954712
v -0.19988602 0.18353826 0.21998457
v -0.18626605 0.20143183 -0.02698558
v 0.19151494 0.19874746 0.02171284
v 0.19294885 0.20143183 0.06954174
v 0.19653270 0.19874746 0.11910967
v 0.20155107 0.21127289 0.21563637
v 0.20298436 0.19337994 0.26868298
v 0.19724996 0.19516911 0.31998995
v 0.14706994 0.19695828 0.31912043
v 0.17789496 0.20769455 -0.02698558
v 0.18004552 0.20679996 -0.02698558
v -0.17981438 0.20858913 -0.07394435
v -0.02282389 0.20858913 -0.07394435
v 0.18291272 0.20590476 -0.02698558
v -0.06225052 0.18801180 0.27042202
v -0.10311106 0.18622263 0.27042202
v -0.14397160 0.18443285 0.27042202
v -0.18268158 0.18085450 0.27129153
v -0.19271771 0.20143183 0.06954174
v -0.19630156 0.19874746 0.11910967
v -0.19845211 0.20411559 0.16693857
v -0.19415100 0.18353826 0.27129153
v 0.18649718 0.20143183 -0.02698558
v 0.19079829 0.21485185 0.16606844
v 0.19366549 0.22200916 0.21389734
v 0.20441827 0.22021937 0.26346527
v 0.20656882 0.20679996 0.26607443
v 0.18864774 0.20679996 0.36868836
v 0.14922049 0.21127289 0.36781885
v 0.10692666 0.21395727 0.36607981
v 0.06463221 0.21664103 0.36607981
v 0.02162112 0.21753561 0.36521030
v -0.02067333 0.20232641 0.31825091
v -0.18268158 0.20590476 -0.02698558
v -0.17766383 0.20769455 -0.02698558
v -0.17981438 0.20679996 -0.02698558
v 0.02305502 0.20769455 -0.02698558
v 0.18434663 0.20053724 -0.07394435
v -0.18411549 0.20053724 -0.07394435
v -0.18483214 0.20501017 0.02171284
v -0.18698269 0.20769455 0.06954174
v -0.20347048 0.19785287 0.21824553
v -0.20131993 0.21127289 0.21563637
v -0.20275322 0.19337994 0.26868298
v 0.18506328 0.20501017 0.02171284
v 0.18721383 0.20769455 0.06954174
v 0.18793048 0.20948372 0.11824015
v 0.19724996 0.23095564 0.26085672
v 0.20585217 0.20411559 0.31738140
v 0.20011716 0.20858913 0.36781885
v 0.17789496 0.20769455 0.02171284
v -0.02282389 0.20769455 -0.02698558
v -0.06296717 0.20143183 0.31825091
v -0.10454497 0.19964265 0.31912043
v -0.14683880 0.19695828 0.31912043
v -0.18554879 0.19337994 0.31998995
v -0.18769934 0.20948372 0.11824015
v -0.19056715 0.21485185 0.16606844
v -0.19343436 0.22200916 0.21389734
v -0.19701882 0.19516911 0.31998995
v 0.17932826 0.21932479 0.16519892
v 0.18291272 0.22737668 0.21302782
v 0.18577992 0.23632377 0.25998721
v 0.20800273 0.23095564 0.31129417
v 0.20083381 0.24169129 0.30868501
v 0.21015328 0.21753561 0.31390272
v 0.20370162 0.22379833 0.41564775
v 0.15208831 0.22648209 0.41477823
v 0.10907721 0.23095564 0.41390810
v 0.06534886 0.23363940 0.41303859
v 0.02162112 0.23453398 0.41216907
v -0.02138998 0.21753561 0.36521030
v -0.17766383 0.20769455 0.02171284
v 0.02305502 0.20858913 0.02171284
v 0.15242767 0.20784130 0.02171284
v -0.17909712 0.21037831 0.06954174
v -0.20633769 0.20679996 0.26607443
v -0.19701882 0.23095564 0.26085672
v -0.20562104 0.20411559 0.31738140
v 0.17932826 0.21037831 0.06954174
v 0.17717770 0.21395727 0.11737064
v 0.19008103 0.24705942 0.30694598
v 0.21302049 0.23006105 0.36173162
v 0.20943603 0.21664103 0.36607981
v 0.19223159 0.22200916 0.41651726
v -0.02282389 0.20858913 0.02171284
v -0.06440107 0.21664103 0.36607981
v -0.10669552 0.21395727 0.36607981
v -0.14898936 0.21127289 0.36781885
v -0.18841660 0.20679996 0.36868836
v -0.17909712 0.21932479 0.16519892
v -0.17694657 0.21395727 0.11737064
v -0.18268158 0.22737668 0.21302782
v -0.20418713 0.22021937 0.26346527
v -0.18554879 0.23632377 0.25998721
v -0.19988602 0.20858913 0.36781885
v 0.15997327 0.22827126 0.21215831
v 0.15997327 0.22021937 0.16519892
v 0.15997327 0.23811294 0.25998721
v 0.15997327 0.24974379 0.30607646
v 0.20441827 0.25421673 0.35564440
v 0.19366549 0.25869027 0.35390475
v 0.21230384 0.23185022 0.41303859
v 0.19581605 0.23900753 0.46347604
v 0.15495551 0.24437566 0.46173700
v 0.11122777 0.24884859 0.45999797
v 0.06678277 0.25242755 0.45912845
v 0.02233776 0.25332214 0.45651929
v -0.02138998 0.23453398 0.41216907
v 0.15997327 0.20769455 0.02171284
v -0.15219654 0.20784130 0.02171284
v -0.02282389 0.21216748 0.06954174
v -0.15974213 0.21037831 0.06954174
v -0.20992215 0.21753561 0.31390272
v -0.18984990 0.24705942 0.30694598
v -0.20777159 0.23095564 0.31129417
v -0.20920489 0.21664103 0.36607981
v 0.15997327 0.21037831 0.06954174
v 0.15997327 0.21485185 0.11737064
v 0.15997327 0.26316320 0.35303524
v 0.21158658 0.24348107 0.35825294
v 0.20728547 0.23990212 0.46347604
v 0.02305502 0.21216748 0.06954174
v -0.06870218 0.20858913 0.02171284
v -0.06511772 0.23363940 0.41303859
v -0.10884607 0.23095564 0.41390810
v -0.15185717 0.22648209 0.41477823
v -0.19200045 0.22200916 0.41651726
v -0.15974213 0.22827126 0.21215831
v -0.15974213 0.22021937 0.16519892
v -0.15974213 0.20769455 0.02171284
v -0.15974213 0.21485185 0.11737064
v -0.15974213 0.23811294 0.25998721
v -0.21278935 0.23006105 0.36173162
v -0.20060267 0.24169129 0.30868501
v -0.15974213 0.24974379 0.30607646
v -0.20347048 0.22379833 0.41564775
v 0.11409497 0.23095564 0.21215831
v 0.11409497 0.22200916 0.16519892
v 0.11409497 0.21574644 0.11737064
v 0.11409497 0.24079670 0.25911708
v 0.11409497 0.25332214 0.30607646
v 0.21517104 0.25779568 0.40521233
v 0.20871938 0.26763675 0.40173365
v 0.19796660 0.27300488 0.39999462
v 0.15997327 0.27837301 0.39825497
v 0.21660495 0.24437566 0.40956052
v 0.21660495 0.24795401 0.46086749
v 0.19868325 0.24527025 0.48347736
v 0.15495551 0.24884859 0.47304194
v 0.11122777 0.25153297 0.46521568
v 0.06678277 0.25242755 0.45999797
v -0.02210663 0.25332214 0.45651929
v -0.02282389 0.21664103 0.11737064
v 0.06893332 0.20858913 0.02171284
v -0.06870218 0.21216748 0.06954174
v -0.11386383 0.21127289 0.06954174
v -0.19343436 0.25869027 0.35390475
v -0.15974213 0.26316320 0.35303524
v -0.21135544 0.24348107 0.35825294
v -0.21207270 0.23185022 0.41303859
v 0.11409497 0.21127289 0.06954174
v 0.11409497 0.26674216 0.35129620
v 0.11409497 0.28195136 0.39738546
v 0.20943603 0.24795401 0.48260784
v 0.02233776 0.26137403 0.46782423
v -0.02210663 0.26137403 0.46782423
v 0.11409497 0.20858913 0.02171284
v 0.02305502 0.21664103 0.11737064
v -0.06870218 0.21664103 0.11737064
v 0.06893332 0.21216748 0.06954174
v -0.06655163 0.25242755 0.45912845
v -0.11099663 0.24884859 0.45999797
v -0.15472437 0.24437566 0.46173700
v -0.19558491 0.23900753 0.46347604
v -0.11386383 0.23095564 0.21215831
v -0.11386383 0.22200916 0.16519892
v -0.11386383 0.21574644 0.11737064
v -0.11386383 0.24079670 0.25911708
v -0.20418713 0.25421673 0.35564440
v -0.11386383 0.25332214 0.30607646
v -0.21637381 0.24437566 0.40956052
v -0.20705433 0.23990212 0.46347604
v 0.06893332 0.23185022 0.21215831
v 0.06893332 0.22379833 0.16432941
v 0.06893332 0.21664103 0.11737064
v 0.06893332 0.24258649 0.25911708
v 0.06893332 0.25511131 0.30520695
v 0.21947215 0.27300488 0.45130158
v 0.21230384 0.28374053 0.44782291
v 0.20226771 0.28910867 0.44608387
v 0.15997327 0.29447680 0.44347533
v 0.22090606 0.26047944 0.45651929
v 0.21875550 0.25511131 0.47999868
v 0.20800273 0.24974379 0.48869507
v 0.15495551 0.25690049 0.48434687
v 0.11122777 0.25958486 0.47652061
v 0.06678277 0.26047944 0.47043339
v -0.06655163 0.25242755 0.45999797
v -0.02282389 0.22379833 0.16432941
v -0.06870218 0.22379833 0.16432941
v -0.11386383 0.20858913 0.02171284
v -0.21493990 0.25779568 0.40521233
v -0.19773547 0.27300488 0.39999462
v -0.15974213 0.27837301 0.39825497
v -0.11386383 0.26674216 0.35129620
v -0.20848824 0.26763675 0.40173365
v -0.21637381 0.24795401 0.46086749
v 0.06893332 0.26942592 0.35129620
v 0.11409497 0.29984493 0.44173568
v 0.22305661 0.26763675 0.47565110
v 0.21588769 0.25958486 0.49043410
v 0.20441827 0.25242755 0.49304326
v 0.19868325 0.25332214 0.49391277
v 0.02233776 0.27300488 0.47304194
v -0.02210663 0.27300488 0.47304194
v -0.06655163 0.26047944 0.47043339
v 0.02305502 0.22379833 0.16432941
v -0.11099663 0.25153297 0.46521568
v -0.15472437 0.24884859 0.47304194
v -0.19845211 0.24527025 0.48347736
v -0.06870218 0.23185022 0.21215831
v -0.06870218 0.24258649 0.25911708
v -0.11386383 0.28195136 0.39738546
v -0.06870218 0.25511131 0.30520695
v -0.22067492 0.26047944 0.45651929
v -0.21924101 0.27300488 0.45130158
v -0.20920489 0.24795401 0.48260784
v 0.02305502 0.24348107 0.25824756
v 0.02305502 0.25600590 0.30520695
v 0.06893332 0.28463512 0.39651594
v 0.02305502 0.27032051 0.35042669
v 0.22162271 0.28016219 0.47043339
v 0.21517104 0.29089784 0.46695471
v 0.20441827 0.29626597 0.46521568
v 0.15997327 0.29894973 0.45478026
v 0.11409497 0.30073952 0.44782291
v 0.06893332 0.30252869 0.44086617
v 0.22018880 0.27211030 0.48782555
v 0.15638942 0.26942592 0.48956458
v 0.11194441 0.27121571 0.48173832
v 0.06749941 0.27300488 0.47652061
v -0.02282389 0.23274481 0.21215831
v -0.21207270 0.28374053 0.44782291
v -0.20203658 0.28910867 0.44608387
v -0.15974213 0.29447680 0.44347533
v -0.06870218 0.26942592 0.35129620
v -0.21852437 0.25511131 0.47999868
v 0.02305502 0.23274481 0.21215831
v 0.02305502 0.28552971 0.39564643
v 0.06893332 0.30252869 0.44173568
v 0.21947215 0.28463512 0.48173832
v 0.20943603 0.26405779 0.49739084
v 0.20011716 0.26584758 0.50000000
v -0.02210663 0.28731949 0.47217242
v 0.06749941 0.28642491 0.47478097
v -0.06726828 0.27300488 0.47652061
v -0.11099663 0.25958486 0.47652061
v -0.15472437 0.25690049 0.48434687
v -0.20777159 0.24974379 0.48869507
v -0.02282389 0.24348107 0.25824756
v -0.02282389 0.25600590 0.30520695
v -0.11386383 0.29984493 0.44173568
v -0.06870218 0.28463512 0.39651594
v -0.02282389 0.27032051 0.35042669
v -0.22282548 0.26763675 0.47565110
v -0.21493990 0.29089784 0.46695471
v -0.21565655 0.25958486 0.49043410
v 0.02305502 0.30252869 0.43912713
v -0.02282389 0.28552971 0.39564643
v 0.21373713 0.29358221 0.47304194
v 0.15925662 0.29984493 0.46869374
v 0.11409497 0.30252869 0.46086749
v 0.06893332 0.30342328 0.45564978
v 0.21230384 0.27658323 0.49565181
v 0.11266106 0.28552971 0.48086881
v 0.15710606 0.28284595 0.48869507
v -0.06726828 0.28642491 0.47478097
v 0.02233776 0.28731949 0.47217242
v -0.19845211 0.25332214 0.49391277
v -0.20418713 0.25242755 0.49304326
v -0.20418713 0.29626597 0.46521568
v -0.15974213 0.29894973 0.45478026
v -0.11386383 0.30073952 0.44782291
v -0.21995766 0.27211030 0.48782555
v -0.22139157 0.28016219 0.47043339
v -0.02282389 0.30252869 0.43912713
v 0.20943603 0.29537138 0.47739013
v 0.20441827 0.29716056 0.47912916
v 0.02305502 0.30431786 0.45217110
v 0.21230384 0.28821408 0.48869507
v 0.20155107 0.28016219 0.49913048
v -0.02282389 0.29805515 0.46434555
v 0.02305502 0.29805515 0.46434555
v 0.11337832 0.29626597 0.47304194
v -0.11171328 0.27121571 0.48173832
v -0.11242993 0.28552971 0.48086881
v -0.15615828 0.26942592 0.48956458
v -0.06870218 0.30252869 0.44173568
v -0.06870218 0.30252869 0.44086617
v -0.21924101 0.28463512 0.48173832
v -0.21350600 0.29358221 0.47304194
v -0.20920489 0.26405779 0.49739084
v 0.15853997 0.29447680 0.48086881
v 0.06821667 0.29805515 0.46695471
v 0.20298436 0.29089784 0.49130361
v -0.06798553 0.29805515 0.46695471
v -0.11314718 0.29626597 0.47304194
v -0.19988602 0.26584758 0.50000000
v -0.15902548 0.29984493 0.46869374
v -0.11386383 0.30252869 0.46086749
v -0.06870218 0.30342328 0.45564978
v -0.21207270 0.27658323 0.49565181
v -0.20920489 0.29537138 0.47739013
v -0.02282389 0.30431786 0.45217110
v -0.15830883 0.29447680 0.48086881
v -0.15687493 0.28284595 0.48869507
v -0.20418713 0.29716056 0.47912916
v -0.21207270 0.28821408 0.48869507
v -0.20131993 0.28016219 0.49913048
v -0.20275322 0.29089784 0.49130361
v 0.21432476 -0.29744245 -0.03546673
v -0.21290186 -0.29744245 -0.13465457
v 0.21432476 -0.29744245 -0.13465457
v -0.21290186 -0.29744245 -0.03546673
v -0.18930140 -0.26954577 -0.13931645
v 0.16519342 -0.30431786 -0.12324813
v -0.18987925 0.20976867 -0.13465457
v 0.23758952 -0.28619560 -0.03546673
v -0.16377052 -0.30431786 -0.04687378
v -0.19714723 -0.27803181 -0.02703572
v -0.18987925 0.20976867 -0.03546673
v -0.16377052 -0.30431786 -0.12324813
v -0.23929186 -0.28250597 -0.03546673
v 0.19092976 -0.26954577 -0.13931645
v -0.23929186 -0.28250597 -0.13465457
v 0.19278314 0.20976867 -0.13465457
v 0.16519342 -0.30431786 -0.04687378
v 0.23758952 -0.28619560 -0.13465457
v 0.19870710 -0.27803181 -0.02703572
v 0.25093617 -0.25862179 -0.03546673
v 0.19278314 0.20976867 -0.03546673
v -0.16883292 0.20976867 -0.13931645
v -0.24764766 -0.25862179 -0.13465457
v 0.17173620 0.20976867 -0.13931645
v -0.18029806 0.21269579 -0.12596246
v 0.25093617 -0.25862179 -0.13465457
v 0.21566878 -0.26010706 -0.02703572
v 0.23263046 -0.24218291 -0.02703572
v -0.13353373 -0.22885094 -0.02019210
v -0.17582940 0.19035803 -0.02703572
v -0.21324490 -0.26010706 -0.02703572
v -0.24764766 -0.25862179 -0.03546673
v 0.18320195 0.21269579 -0.04415883
v -0.20476375 -0.25227040 -0.13931645
v -0.22022549 -0.23499565 -0.13931645
v -0.20232336 0.17800197 -0.12771189
v 0.22351400 -0.23499565 -0.13931645
v 0.18320195 0.21269579 -0.12596246
v 0.25319067 -0.22992102 -0.12870370
v 0.25319067 -0.22992102 -0.04141820
v 0.00105663 -0.22885094 -0.02019210
v -0.14448034 -0.21469042 -0.02019210
v 0.17873329 0.19035803 -0.02703572
v -0.15542634 -0.20052990 -0.02019210
v -0.22934196 -0.24218291 -0.02703572
v -0.25319067 -0.22481399 -0.04241002
v -0.18029806 0.21269579 -0.04415883
v 0.20722188 -0.25227040 -0.13931645
v -0.25319067 -0.22481399 -0.12771189
v 0.20739248 0.18226272 -0.12870370
v 0.13564699 -0.22885094 -0.02019210
v 0.20739248 0.18226272 -0.04141820
v -0.12492112 -0.21130652 -0.01775048
v -0.12263543 0.14117716 -0.02019210
v -0.20232336 0.17800197 -0.04241002
v 0.14718123 -0.21469042 -0.02019210
v 0.15871485 -0.20052990 -0.02019210
v 0.12730954 -0.21130652 -0.01775048
v 0.00119421 -0.21130652 -0.01775048
v -0.13729858 -0.19529385 -0.01775048
v 0.00164425 0.14117716 -0.02019210
v 0.12592394 0.14117716 -0.02019210
v -0.10669430 0.12363274 -0.01775048
v 0.14056263 -0.19503520 -0.01775048
v 0.10998281 0.12363274 -0.01775048
v 0.00119421 0.12363274 -0.01775048
v 0.12647426 0.20976867 -0.13931645
v 0.12647426 0.15566604 -0.13931645
v 0.18057689 0.20976867 -0.13931645
v 0.14257866 0.17176983 -0.19625386
v 0.18057689 0.15566604 -0.13931645
v 0.14257866 0.22120996 -0.19625386
v 0.19201879 0.17176983 -0.19625386
v 0.14282936 0.22178291 -0.19910456
v 0.14773828 0.17692945 -0.25483737
v 0.19259175 0.17202114 -0.19910456
v 0.19259175 0.22178291 -0.19910456
v 0.14773828 0.22178291 -0.25483737
v 0.19259175 0.17692945 -0.25483737
v 0.14722770 0.22178291 -0.25987042
v 0.19259175 0.17641948 -0.25987042
v 0.14180331 0.21103381 -0.31336096
v 0.18184264 0.17099509 -0.31336096
v 0.19259175 0.22178291 -0.25987042
v 0.14180331 0.17099509 -0.31336096
v 0.18057689 0.17084344 -0.31965792
v 0.14165228 0.20976867 -0.31965792
v 0.18057689 0.20976867 -0.31965792
v 0.14029114 0.19861599 -0.37629877
v 0.16942421 0.16948291 -0.37629877
v 0.16880234 0.19799351 -0.37945887
v 0.14029114 0.16948291 -0.37629877
v 0.16880234 0.16986814 -0.37945887
v 0.14067698 0.19799351 -0.37945887
v 0.16880234 0.19799351 -0.44019905
v 0.14792417 0.19799351 -0.43887215
v 0.16880234 0.17711595 -0.43887215
v 0.16880234 0.17747733 -0.44019905
v 0.14828555 0.19799351 -0.44019905
v 0.14792417 0.17711595 -0.43887215
v 0.18057689 0.19376150 -0.50000000
v 0.16456972 0.20976867 -0.50000000
v 0.18057689 0.20976867 -0.50000000
v 0.16456972 0.19376150 -0.50000000
v 0.23558755 -0.28050339 -0.13401924
v 0.18148493 -0.22640077 -0.13401924
v 0.18148493 -0.28050339 -0.13401924
v 0.23558755 -0.22640077 -0.13401924
v 0.19758871 -0.24250516 -0.19095666
v 0.19758871 -0.29194530 -0.19095666
v 0.24702946 -0.24250516 -0.19095666
v 0.19784003 -0.29251825 -0.19380674
v 0.24760180 -0.24275587 -0.19380674
v 0.20274833 -0.24766478 -0.24954017
v 0.24760180 -0.29251825 -0.19380674
v 0.20274833 -0.29251825 -0.24954017
v 0.24760180 -0.24766478 -0.24954017
v 0.20223836 -0.29251825 -0.25457322
v 0.24760180 -0.24715420 -0.25457322
v 0.19681397 -0.28176853 -0.30806314
v 0.23685269 -0.24172981 -0.30806314
v 0.24760180 -0.29251825 -0.25457322
v 0.19681397 -0.24172981 -0.30806314
v 0.23558755 -0.24157878 -0.31436072
v 0.23558755 -0.28050339 -0.31436072
v 0.19666233 -0.28050339 -0.31436072
v 0.19530180 -0.26935071 -0.37100096
v 0.22443488 -0.24021764 -0.37100096
v 0.22381239 -0.26872884 -0.37416106
v 0.19530180 -0.24021764 -0.37100096
v 0.22381239 -0.24060348 -0.37416106
v 0.19568703 -0.26872884 -0.37416106
v 0.22381239 -0.26872884 -0.43490185
v 0.20293483 -0.26872884 -0.43357434
v 0.22381239 -0.24785067 -0.43357434
v 0.22381239 -0.24821205 -0.43490185
v 0.20329621 -0.26872884 -0.43490185
v 0.20293483 -0.24785067 -0.43357434
v 0.23558755 -0.26449622 -0.49470219
v 0.21958038 -0.28050339 -0.49470219
v 0.23558755 -0.28050339 -0.49470219
v 0.21958038 -0.26449622 -0.49470219
v -0.18518924 -0.28050339 -0.13401924
v -0.18518924 -0.22640077 -0.13401924
v -0.23929186 -0.28050339 -0.13401924
v -0.20129302 -0.24250516 -0.19095666
v -0.23929186 -0.22640077 -0.13401924
v -0.20129302 -0.29194530 -0.19095666
v -0.25073377 -0.24250516 -0.19095666
v -0.20154434 -0.29251825 -0.19380674
v -0.20645325 -0.24766478 -0.24954017
v -0.25130611 -0.24275587 -0.19380674
v -0.25130611 -0.29251825 -0.19380674
v -0.20645325 -0.29251825 -0.24954017
v -0.25130611 -0.24766478 -0.24954017
v -0.20594267 -0.29251825 -0.25457322
v -0.25130611 -0.24715420 -0.25457322
v -0.20051829 -0.28176853 -0.30806314
v -0.24055700 -0.24172981 -0.30806314
v -0.25130611 -0.29251825 -0.25457322
v -0.20051829 -0.24172981 -0.30806314
v -0.23929186 -0.24157878 -0.31436072
v -0.20036725 -0.28050339 -0.31436072
v -0.23929186 -0.28050339 -0.31436072
v -0.19900611 -0.26935071 -0.37100096
v -0.22813919 -0.24021764 -0.37100096
v -0.22751732 -0.26872884 -0.37416106
v -0.19900611 -0.24021764 -0.37100096
v -0.22751732 -0.24060348 -0.37416106
v -0.19939195 -0.26872884 -0.37416106
v -0.22751732 -0.26872884 -0.43490185
v -0.20663914 -0.26872884 -0.43357434
v -0.22751732 -0.24785067 -0.43357434
v -0.22751732 -0.24821205 -0.43490185
v -0.20700052 -0.26872884 -0.43490185
v -0.20663914 -0.24785067 -0.43357434
v -0.23929186 -0.26449622 -0.49470219
v -0.22328469 -0.28050339 -0.49470219
v -0.23929186 -0.28050339 -0.49470219
v -0.22328469 -0.26449622 -0.49470219
v -0.18267425 0.20976867 -0.13931645
v -0.12857223 0.15566604 -0.13931645
v -0.12857223 0.20976867 -0.13931645
v -0.18267425 0.15566604 -0.13931645
v -0.14467602 0.17176983 -0.19625386
v -0.14467602 0.22120996 -0.19625386
v -0.19411615 0.17176983 -0.19625386
v -0.14492733 0.22178291 -0.19910456
v -0.19468910 0.17202114 -0.19910456
v -0.14983564 0.17692945 -0.25483737
v -0.19468910 0.22178291 -0.19910456
v -0.14983564 0.22178291 -0.25483737
v -0.19468910 0.17692945 -0.25483737
v -0.14932567 0.22178291 -0.25987042
v -0.19468910 0.17641948 -0.25987042
v -0.14390128 0.21103381 -0.31336096
v -0.18394000 0.17099509 -0.31336096
v -0.19468910 0.22178291 -0.25987042
v -0.14390128 0.17099509 -0.31336096
v -0.18267425 0.17084344 -0.31965792
v -0.18267425 0.20976867 -0.31965792
v -0.14374963 0.20976867 -0.31965792
v -0.14238910 0.19861599 -0.37629877
v -0.17152218 0.16948291 -0.37629877
v -0.17089970 0.19799351 -0.37945887
v -0.14238910 0.16948291 -0.37629877
v -0.17089970 0.16986814 -0.37945887
v -0.14277433 0.19799351 -0.37945887
v -0.17089970 0.19799351 -0.44019905
v -0.15002152 0.19799351 -0.43887215
v -0.17089970 0.17711595 -0.43887215
v -0.17089970 0.17747733 -0.44019905
v -0.15038291 0.19799351 -0.44019905
v -0.15002152 0.17711595 -0.43887215
v -0.18267425 0.19376150 -0.50000000
v -0.16666769 0.20976867 -0.50000000
v -0.18267425 0.20976867 -0.50000000
v -0.16666769 0.19376150 -0.50000000
f 1 2 3
f 2 1 4
f 5 3 2
f 4 6 1
f 4 1 7
f 2 4 8
f 5 9 3
f 10 2 5
f 8 6 4
f 1 6 11
f 7 1 11
f 4 7 12
f 8 4 13
f 2 8 14
f 5 15 9
f 9 16 3
f 17 10 2
f 10 15 5
f 14 6 8
f 11 6 18
f 1 19 11
f 7 11 18
f 12 7 20
f 13 4 12
f 21 8 13
f 14 8 21
f 2 14 22
f 23 9 15
f 9 24 16
f 10 17 25
f 6 2 17
f 17 2 26
f 27 15 10
f 22 6 14
f 18 6 28
f 11 29 18
f 1 16 19
f 11 19 29
f 7 18 30
f 20 7 31
f 13 12 20
f 21 13 32
f 22 14 21
f 2 22 33
f 23 15 34
f 35 24 9
f 24 19 16
f 36 25 17
f 25 27 10
f 2 6 37
f 6 36 17
f 6 17 26
f 2 37 26
f 38 15 27
f 33 6 22
f 28 39 6
f 28 6 40
f 18 28 41
f 18 29 42
f 43 29 19
f 30 18 41
f 7 30 31
f 20 31 44
f 13 20 32
f 21 32 45
f 22 21 46
f 33 22 46
f 2 33 47
f 34 48 23
f 49 24 35
f 35 9 50
f 24 43 19
f 51 25 36
f 52 27 25
f 37 6 53
f 2 53 37
f 6 39 36
f 40 6 26
f 26 37 54
f 38 27 55
f 53 6 33
f 28 56 39
f 57 28 40
f 41 28 58
f 42 41 18
f 29 59 42
f 43 59 29
f 30 41 60
f 31 30 61
f 44 31 62
f 63 20 44
f 32 20 63
f 45 32 64
f 46 21 45
f 33 46 65
f 33 47 53
f 47 33 66
f 2 47 53
f 48 34 67
f 23 48 68
f 49 43 24
f 68 49 35
f 68 35 50
f 25 51 52
f 39 51 36
f 69 27 52
f 37 53 70
f 40 26 71
f 37 70 54
f 26 54 72
f 55 27 69
f 67 38 55
f 58 56 28
f 57 58 28
f 57 40 73
f 41 58 74
f 41 42 75
f 59 76 42
f 59 43 49
f 60 41 74
f 30 60 61
f 31 61 62
f 44 62 77
f 63 44 78
f 64 32 63
f 79 45 64
f 46 45 80
f 65 46 80
f 66 33 65
f 53 47 66
f 34 38 67
f 48 67 81
f 48 82 68
f 68 50 23
f 68 83 49
f 84 52 51
f 85 51 39
f 84 69 52
f 53 66 70
f 71 26 72
f 73 40 71
f 54 70 72
f 67 55 69
f 58 86 56
f 87 58 57
f 88 57 73
f 74 58 89
f 41 75 74
f 76 59 83
f 42 76 90
f 83 59 49
f 60 74 91
f 61 60 92
f 61 92 62
f 77 62 93
f 78 44 77
f 94 63 78
f 64 63 94
f 95 45 79
f 79 64 96
f 80 45 95
f 65 80 97
f 66 65 98
f 81 67 99
f 100 48 81
f 101 82 48
f 82 102 68
f 103 83 68
f 84 51 85
f 86 85 39
f 67 69 84
f 70 66 98
f 71 72 104
f 105 73 71
f 72 70 106
f 89 86 58
f 87 89 58
f 88 87 57
f 88 73 105
f 74 89 107
f 74 75 90
f 103 76 83
f 90 76 108
f 91 74 107
f 92 60 91
f 62 92 109
f 93 62 109
f 77 93 110
f 78 77 111
f 94 78 112
f 96 64 94
f 95 79 113
f 113 79 96
f 97 80 95
f 98 65 97
f 99 67 114
f 81 99 115
f 116 48 100
f 100 81 117
f 101 118 82
f 119 101 48
f 82 120 102
f 102 103 68
f 121 84 85
f 86 122 85
f 67 84 121
f 70 98 106
f 104 72 123
f 105 71 104
f 72 106 124
f 89 125 86
f 126 89 87
f 127 87 88
f 105 128 88
f 107 89 129
f 74 90 107
f 130 76 103
f 108 76 130
f 90 108 131
f 91 107 132
f 92 91 133
f 109 92 133
f 93 109 134
f 110 93 135
f 111 77 110
f 112 78 111
f 136 94 112
f 96 94 136
f 137 95 113
f 113 96 138
f 97 95 137
f 98 97 137
f 114 67 139
f 99 114 140
f 115 99 141
f 142 81 115
f 116 119 48
f 143 116 100
f 117 81 144
f 117 143 100
f 145 118 101
f 118 146 82
f 145 101 119
f 82 146 120
f 120 147 102
f 130 103 102
f 139 121 85
f 125 122 86
f 139 85 122
f 139 67 121
f 106 98 124
f 72 124 123
f 104 123 148
f 105 104 149
f 129 125 89
f 126 129 89
f 127 126 87
f 128 127 88
f 150 128 105
f 107 129 151
f 107 90 131
f 152 108 130
f 131 108 153
f 132 107 151
f 133 91 132
f 109 133 154
f 134 109 154
f 93 134 135
f 110 135 155
f 111 110 156
f 112 111 157
f 136 112 158
f 138 96 136
f 137 113 159
f 159 113 138
f 98 137 160
f 161 114 139
f 140 114 161
f 99 140 162
f 141 99 163
f 164 115 141
f 144 81 142
f 142 115 164
f 165 119 116
f 143 165 116
f 166 117 144
f 167 143 117
f 145 168 118
f 118 169 146
f 170 145 119
f 146 152 120
f 120 152 147
f 147 130 102
f 125 171 122
f 122 161 139
f 124 98 160
f 123 124 172
f 148 123 172
f 149 104 148
f 150 105 149
f 129 173 125
f 126 174 129
f 127 175 126
f 128 176 127
f 177 128 150
f 151 129 178
f 107 179 151
f 107 131 179
f 153 108 152
f 152 130 147
f 131 153 169
f 132 151 180
f 133 132 181
f 154 133 181
f 134 154 182
f 135 134 183
f 155 135 184
f 156 110 155
f 157 111 156
f 158 112 157
f 185 136 158
f 138 136 185
f 160 137 159
f 159 138 186
f 163 140 161
f 162 140 163
f 99 162 163
f 141 163 187
f 164 141 188
f 144 142 189
f 189 142 164
f 165 170 119
f 143 190 165
f 166 167 117
f 166 144 189
f 167 191 143
f 192 168 145
f 168 169 118
f 169 152 146
f 170 192 145
f 173 171 125
f 161 122 171
f 124 160 193
f 172 124 193
f 148 172 194
f 149 148 195
f 150 149 196
f 178 173 129
f 175 174 126
f 174 178 129
f 176 175 127
f 177 176 128
f 177 150 197
f 151 178 198
f 151 179 198
f 131 169 179
f 169 153 152
f 180 151 198
f 199 132 180
f 181 132 199
f 154 181 199
f 182 154 200
f 201 134 182
f 183 134 201
f 135 183 184
f 155 184 202
f 156 155 202
f 157 156 203
f 158 157 204
f 185 158 205
f 206 138 185
f 193 160 159
f 206 186 138
f 193 159 186
f 163 161 171
f 187 163 171
f 141 187 188
f 207 164 188
f 207 189 164
f 165 208 170
f 191 190 143
f 208 165 190
f 209 167 166
f 210 166 189
f 167 211 191
f 212 168 192
f 212 169 168
f 208 192 170
f 173 187 171
f 172 193 213
f 194 172 213
f 195 148 194
f 196 149 195
f 197 150 196
f 178 214 173
f 175 215 174
f 216 178 174
f 176 215 175
f 177 217 176
f 218 177 197
f 198 178 219
f 198 179 212
f 179 169 212
f 180 198 220
f 199 180 221
f 154 199 222
f 200 154 222
f 223 182 200
f 201 182 223
f 224 183 201
f 184 183 224
f 202 184 225
f 156 202 226
f 203 156 226
f 204 157 203
f 205 158 204
f 206 185 205
f 213 186 206
f 213 193 186
f 214 188 187
f 207 188 214
f 207 210 189
f 227 190 191
f 228 208 190
f 209 229 167
f 209 166 210
f 211 167 230
f 211 227 191
f 208 231 192
f 214 187 173
f 194 213 232
f 195 194 233
f 196 195 234
f 197 196 235
f 219 214 178
f 215 236 174
f 216 219 178
f 236 216 174
f 176 237 215
f 218 217 177
f 217 238 176
f 218 197 239
f 198 219 240
f 198 212 240
f 220 198 240
f 221 180 220
f 222 199 221
f 200 222 241
f 223 200 242
f 243 201 223
f 224 201 244
f 184 224 225
f 202 225 245
f 226 202 246
f 203 226 247
f 204 203 248
f 205 204 249
f 206 205 250
f 232 213 206
f 251 210 207
f 227 228 190
f 228 231 208
f 209 252 229
f 230 167 229
f 253 209 210
f 230 254 211
f 254 227 211
f 231 255 192
f 233 194 232
f 234 195 233
f 235 196 234
f 239 197 235
f 219 256 214
f 237 236 215
f 216 257 219
f 236 258 216
f 238 237 176
f 218 259 217
f 260 238 217
f 261 218 239
f 240 219 251
f 240 212 255
f 262 220 240
f 263 221 220
f 222 221 264
f 241 222 264
f 242 200 241
f 265 223 242
f 244 201 243
f 243 223 265
f 266 224 244
f 225 224 266
f 245 225 267
f 246 202 245
f 247 226 246
f 248 203 247
f 249 204 248
f 250 205 249
f 232 206 250
f 251 253 210
f 251 207 256
f 268 228 227
f 228 254 227
f 268 231 228
f 231 253 228
f 209 253 252
f 229 252 269
f 229 269 230
f 269 254 230
f 254 268 227
f 231 240 255
f 233 232 270
f 234 233 271
f 235 234 272
f 239 235 273
f 219 251 256
f 237 274 236
f 216 258 257
f 219 257 251
f 236 274 258
f 238 275 237
f 261 259 218
f 259 260 217
f 260 276 238
f 261 239 277
f 240 251 231
f 262 263 220
f 231 262 240
f 263 264 221
f 278 241 264
f 279 242 241
f 280 265 242
f 281 244 243
f 282 243 265
f 266 244 283
f 225 266 267
f 245 267 284
f 246 245 285
f 247 246 286
f 248 247 287
f 249 248 288
f 289 250 249
f 270 232 250
f 231 251 253
f 251 290 253
f 254 228 269
f 268 262 231
f 228 253 252
f 253 290 252
f 228 252 269
f 290 269 252
f 269 291 254
f 254 292 268
f 271 233 270
f 272 234 271
f 273 235 272
f 277 239 273
f 275 274 237
f 258 293 257
f 257 290 251
f 274 293 258
f 276 275 238
f 261 294 259
f 294 260 259
f 295 276 260
f 296 261 277
f 297 263 262
f 297 264 263
f 278 279 241
f 298 278 264
f 279 280 242
f 280 299 265
f 283 244 281
f 281 243 282
f 299 282 265
f 300 266 283
f 267 266 301
f 267 301 284
f 245 284 302
f 285 245 302
f 286 246 285
f 287 247 286
f 288 248 287
f 289 249 288
f 270 250 289
f 268 297 262
f 290 303 269
f 303 291 269
f 292 254 291
f 271 270 304
f 272 271 305
f 273 272 306
f 277 273 307
f 275 308 274
f 257 293 290
f 274 309 293
f 276 310 275
f 296 294 261
f 294 311 260
f 295 312 276
f 311 295 260
f 296 277 313
f 298 264 297
f 314 279 278
f 315 278 298
f 316 280 279
f 317 299 280
f 300 283 281
f 318 281 282
f 299 319 282
f 301 266 300
f 284 301 320
f 302 284 321
f 285 302 322
f 286 285 323
f 287 286 324
f 288 287 325
f 289 288 326
f 304 270 289
f 327 297 268
f 303 290 328
f 329 291 303
f 305 271 304
f 306 272 305
f 307 273 306
f 313 277 307
f 275 310 308
f 274 308 309
f 293 330 290
f 293 309 330
f 276 312 310
f 296 331 294
f 331 311 294
f 295 332 312
f 333 295 311
f 334 296 313
f 335 298 297
f 316 279 314
f 314 278 315
f 315 298 336
f 317 280 316
f 317 337 299
f 300 281 338
f 338 281 318
f 319 318 282
f 337 319 299
f 320 301 300
f 284 320 339
f 321 284 339
f 322 302 321
f 323 285 322
f 324 286 323
f 325 287 324
f 326 288 325
f 304 289 326
f 335 297 327
f 329 340 291
f 341 329 303
f 305 304 342
f 306 305 343
f 307 306 344
f 313 307 345
f 310 346 308
f 308 347 309
f 290 330 348
f 309 349 330
f 312 350 310
f 351 331 296
f 331 333 311
f 352 332 295
f 332 353 312
f 333 352 295
f 334 351 296
f 334 313 354
f 336 298 335
f 355 316 314
f 356 314 315
f 357 315 336
f 358 317 316
f 359 337 317
f 360 300 338
f 361 338 318
f 319 362 318
f 363 319 337
f 320 300 364
f 339 320 365
f 321 339 366
f 367 322 321
f 323 322 368
f 324 323 369
f 325 324 369
f 370 326 325
f 342 304 326
f 292 335 327
f 371 340 329
f 340 372 291
f 373 329 341
f 343 305 342
f 344 306 343
f 345 307 344
f 354 313 345
f 310 350 346
f 308 346 347
f 309 347 349
f 330 374 348
f 349 374 330
f 312 353 350
f 351 333 331
f 352 375 332
f 332 376 353
f 377 352 333
f 378 351 334
f 378 334 354
f 379 336 335
f 358 316 355
f 355 314 356
f 356 315 357
f 379 357 336
f 359 317 358
f 380 337 359
f 364 300 360
f 360 338 361
f 362 361 318
f 363 362 319
f 381 363 337
f 365 320 364
f 339 365 382
f 366 339 382
f 367 321 366
f 368 322 367
f 369 323 368
f 325 369 383
f 342 326 370
f 370 325 384
f 335 292 385
f 371 386 340
f 387 371 329
f 340 388 372
f 387 329 373
f 374 373 341
f 343 342 389
f 344 343 390
f 345 344 391
f 354 345 392
f 346 350 393
f 346 394 347
f 347 395 349
f 374 328 348
f 349 395 374
f 353 396 350
f 351 377 333
f 397 375 352
f 375 376 332
f 376 398 353
f 377 397 352
f 378 399 351
f 378 354 400
f 379 335 385
f 401 358 355
f 401 355 356
f 402 356 357
f 403 357 379
f 404 359 358
f 380 381 337
f 405 380 359
f 406 364 360
f 407 360 361
f 362 408 361
f 409 362 363
f 381 409 363
f 365 364 410
f 382 365 411
f 366 382 412
f 367 366 413
f 368 367 414
f 369 368 415
f 383 369 415
f 384 325 383
f 389 342 370
f 416 370 384
f 417 386 371
f 386 388 340
f 418 371 387
f 388 379 372
f 395 387 373
f 395 373 374
f 374 341 419
f 390 343 389
f 391 344 390
f 392 345 391
f 400 354 392
f 350 396 393
f 346 393 394
f 347 394 395
f 328 374 419
f 353 398 396
f 420 377 351
f 397 421 375
f 375 422 376
f 376 423 398
f 424 397 377
f 425 399 378
f 399 420 351
f 425 378 400
f 372 379 385
f 401 404 358
f 401 356 402
f 402 357 403
f 403 379 388
f 405 359 404
f 426 381 380
f 426 380 405
f 410 364 406
f 406 360 407
f 408 407 361
f 409 408 362
f 427 409 381
f 428 365 410
f 411 365 428
f 382 411 429
f 412 382 429
f 366 412 430
f 413 366 431
f 414 367 413
f 415 368 414
f 432 383 415
f 433 384 383
f 389 370 416
f 416 384 434
f 417 435 386
f 418 417 371
f 386 403 388
f 395 418 387
f 390 389 416
f 391 390 436
f 392 391 437
f 400 392 438
f 396 439 393
f 393 439 394
f 394 418 395
f 398 440 396
f 420 424 377
f 424 421 397
f 421 422 375
f 422 441 376
f 376 441 423
f 423 442 398
f 425 443 399
f 444 420 399
f 425 400 445
f 446 404 401
f 435 401 402
f 435 402 403
f 447 405 404
f 448 381 426
f 449 426 405
f 450 410 406
f 451 406 407
f 408 452 407
f 453 408 409
f 454 409 427
f 455 427 381
f 428 410 450
f 456 411 428
f 429 411 456
f 429 430 412
f 366 430 431
f 457 413 431
f 458 414 413
f 459 415 414
f 433 383 432
f 432 415 459
f 433 434 384
f 436 416 434
f 460 435 417
f 435 403 386
f 439 417 418
f 390 416 436
f 391 436 437
f 438 392 437
f 445 400 438
f 396 440 439
f 394 439 418
f 398 442 440
f 461 424 420
f 424 462 421
f 421 463 422
f 463 441 422
f 441 464 423
f 423 464 442
f 465 443 425
f 443 444 399
f 444 461 420
f 465 425 445
f 447 404 446
f 466 446 401
f 466 401 435
f 449 405 447
f 455 381 448
f 467 448 426
f 467 426 449
f 450 406 451
f 452 451 407
f 453 452 408
f 454 453 409
f 468 454 427
f 468 427 455
f 469 428 450
f 456 428 469
f 456 470 429
f 470 430 429
f 471 431 430
f 458 413 457
f 457 431 471
f 459 414 458
f 472 433 432
f 473 432 459
f 474 434 433
f 436 434 475
f 460 466 435
f 439 460 417
f 437 436 476
f 438 437 476
f 445 438 477
f 439 440 478
f 442 479 440
f 461 462 424
f 462 463 421
f 463 480 441
f 441 481 464
f 464 482 442
f 465 483 443
f 483 444 443
f 484 461 444
f 465 445 485
f 479 447 446
f 478 446 466
f 482 449 447
f 486 455 448
f 486 448 467
f 487 467 449
f 488 450 451
f 452 488 451
f 489 452 453
f 490 453 454
f 491 454 468
f 486 468 455
f 469 450 488
f 492 456 469
f 492 470 456
f 471 430 470
f 493 458 457
f 494 457 471
f 493 459 458
f 472 495 433
f 472 432 496
f 496 432 473
f 473 459 493
f 474 475 434
f 495 474 433
f 476 436 475
f 460 478 466
f 439 478 460
f 438 476 497
f 477 438 498
f 485 445 477
f 440 479 478
f 442 482 479
f 461 499 462
f 462 500 463
f 463 501 480
f 480 481 441
f 481 482 464
f 502 483 465
f 483 503 444
f 484 499 461
f 503 484 444
f 485 502 465
f 482 447 479
f 479 446 478
f 487 449 482
f 504 486 467
f 504 467 487
f 452 505 488
f 489 506 452
f 490 489 453
f 491 490 454
f 507 491 468
f 507 468 486
f 505 469 488
f 492 469 508
f 509 470 492
f 509 471 470
f 493 457 494
f 494 471 509
f 510 495 472
f 510 472 496
f 511 496 473
f 512 473 493
f 474 513 475
f 495 514 474
f 513 476 475
f 515 497 476
f 498 438 497
f 485 477 498
f 499 500 462
f 500 501 463
f 501 516 480
f 480 517 481
f 481 487 482
f 502 518 483
f 518 503 483
f 484 519 499
f 519 484 503
f 502 485 520
f 504 507 486
f 481 504 487
f 506 505 452
f 521 506 489
f 512 489 490
f 522 490 491
f 511 491 507
f 505 508 469
f 523 492 508
f 523 509 492
f 521 493 494
f 523 494 509
f 524 495 510
f 510 496 511
f 511 473 522
f 522 473 512
f 512 493 521
f 514 513 474
f 525 514 495
f 513 515 476
f 515 526 497
f 526 498 497
f 520 485 498
f 499 527 500
f 500 528 501
f 501 529 516
f 480 516 517
f 517 504 481
f 530 518 502
f 518 519 503
f 519 531 499
f 530 502 520
f 532 507 504
f 506 508 505
f 521 523 506
f 512 521 489
f 522 512 490
f 511 522 491
f 532 511 507
f 523 508 506
f 521 494 523
f 524 525 495
f 529 524 510
f 510 511 532
f 514 515 513
f 525 533 514
f 534 526 515
f 526 520 498
f 535 527 499
f 500 527 528
f 528 529 501
f 529 532 516
f 516 504 517
f 530 536 518
f 518 531 519
f 531 535 499
f 537 530 520
f 516 532 504
f 528 525 524
f 528 524 529
f 529 510 532
f 514 534 515
f 527 533 525
f 533 534 514
f 534 537 526
f 537 520 526
f 535 533 527
f 527 525 528
f 538 536 530
f 518 536 531
f 536 535 531
f 538 530 537
f 533 538 534
f 538 537 534
f 535 538 533
f 536 538 535
f 539 540 541
f 540 539 542
f 543 541 540
f 544 540 541
f 540 545 541
f 539 544 541
f 539 541 546
f 547 539 542
f 539 548 542
f 549 542 539
f 550 542 540
f 551 540 542
f 541 543 552
f 540 544 550
f 553 545 540
f 541 545 554
f 544 539 555
f 546 541 556
f 546 557 539
f 558 539 546
f 539 547 555
f 542 550 547
f 548 539 557
f 548 551 542
f 549 551 542
f 549 539 559
f 551 553 540
f 543 560 552
f 555 550 544
f 545 553 561
f 562 545 554
f 563 554 545
f 541 554 564
f 541 564 556
f 564 546 556
f 546 565 557
f 559 539 558
f 558 546 564
f 558 566 546
f 550 555 547
f 557 567 548
f 548 568 557
f 548 569 551
f 551 549 570
f 571 549 559
f 568 559 549
f 561 553 551
f 572 560 543
f 552 560 562
f 545 573 561
f 545 561 574
f 545 562 560
f 575 562 554
f 554 563 576
f 549 563 545
f 564 575 554
f 554 577 564
f 554 558 564
f 564 556 575
f 546 566 565
f 566 557 565
f 557 566 565
f 558 559 566
f 559 558 578
f 558 554 559
f 577 558 564
f 567 557 579
f 580 548 567
f 569 568 548
f 557 568 581
f 582 569 548
f 569 583 551
f 568 549 570
f 549 584 570
f 583 570 551
f 561 551 570
f 549 571 585
f 559 576 571
f 559 568 581
f 560 572 573
f 552 562 586
f 560 573 545
f 574 561 587
f 574 549 545
f 586 562 575
f 585 576 563
f 576 559 554
f 563 549 585
f 577 554 588
f 556 586 575
f 557 566 589
f 557 581 566
f 566 559 581
f 558 577 578
f 578 590 559
f 590 554 559
f 579 557 589
f 579 591 567
f 548 580 582
f 591 580 567
f 568 569 583
f 592 581 568
f 569 582 583
f 568 570 583
f 549 593 584
f 584 561 570
f 576 585 571
f 561 584 587
f 574 587 584
f 549 574 593
f 554 590 588
f 588 578 577
f 566 594 589
f 566 581 595
f 578 588 590
f 589 596 579
f 579 597 591
f 598 582 580
f 591 598 580
f 592 568 583
f 581 592 599
f 592 583 582
f 574 584 593
f 594 566 595
f 594 596 589
f 581 600 595
f 597 579 596
f 601 591 597
f 601 582 598
f 591 601 598
f 599 592 601
f 581 599 600
f 601 592 582
f 595 602 594
f 594 602 596
f 595 600 603
f 596 604 597
f 601 597 604
f 604 599 601
f 600 599 603
f 595 603 602
f 603 596 602
f 604 596 603
f 599 604 603
f 605 606 607
f 606 605 608
f 609 607 606
f 605 607 610
f 610 608 605
f 608 611 606
f 609 611 607
f 609 606 611
f 610 607 612
f 608 610 613
f 611 608 614
f 611 614 607
f 615 612 607
f 612 616 610
f 613 610 616
f 613 617 608
f 614 608 617
f 615 607 614
f 612 615 616
f 616 618 613
f 617 613 619
f 617 615 614
f 616 615 618
f 620 613 618
f 619 613 621
f 617 619 615
f 622 618 615
f 623 613 620
f 618 622 620
f 623 621 613
f 621 624 619
f 622 615 619
f 620 625 623
f 620 622 625
f 621 623 624
f 624 626 619
f 622 619 626
f 627 623 625
f 626 625 622
f 624 623 628
f 626 624 629
f 630 623 627
f 625 626 627
f 630 628 623
f 628 631 624
f 631 629 624
f 629 632 626
f 627 632 630
f 627 626 632
f 628 630 631
f 629 631 633
f 632 629 634
f 634 630 632
f 631 630 635
f 636 633 631
f 633 637 629
f 634 629 637
f 638 630 634
f 638 635 630
f 635 636 631
f 636 639 633
f 637 633 640
f 634 637 638
f 635 638 636
f 636 638 639
f 641 633 639
f 641 640 633
f 637 640 642
f 642 638 637
f 642 639 638
f 641 639 640
f 642 640 639
f 643 644 645
f 644 643 646
f 647 645 644
f 648 643 645
f 643 649 646
f 649 644 646
f 645 647 648
f 644 649 647
f 650 643 648
f 643 651 649
f 652 648 647
f 651 647 649
f 643 650 653
f 648 654 650
f 651 643 653
f 654 648 652
f 647 655 652
f 655 647 651
f 654 653 650
f 651 653 655
f 652 656 654
f 657 652 655
f 656 653 654
f 653 657 655
f 656 652 658
f 659 652 657
f 653 656 660
f 657 653 660
f 658 652 661
f 658 660 656
f 652 659 661
f 657 662 659
f 663 657 660
f 661 664 658
f 664 660 658
f 662 661 659
f 657 663 662
f 660 664 663
f 664 661 665
f 666 661 662
f 667 662 663
f 665 663 664
f 665 661 668
f 661 666 668
f 662 669 666
f 662 667 669
f 663 670 667
f 670 663 665
f 668 670 665
f 669 668 666
f 671 669 667
f 672 667 670
f 670 668 672
f 673 668 669
f 669 671 674
f 667 675 671
f 675 667 672
f 672 668 676
f 668 673 676
f 669 674 673
f 671 677 674
f 678 671 675
f 676 675 672
f 674 676 673
f 677 671 679
f 677 676 674
f 671 678 679
f 680 678 675
f 675 676 680
f 678 677 679
f 676 677 680
f 677 678 680
f 681 682 683
f 682 681 684
f 685 683 682
f 681 683 686
f 686 684 681
f 684 687 682
f 685 687 683
f 685 682 687
f 686 683 688
f 684 686 689
f 687 684 690
f 687 690 683
f 691 688 683
f 688 692 686
f 689 686 692
f 689 693 684
f 690 684 693
f 691 683 690
f 688 691 692
f 692 694 689
f 693 689 695
f 693 691 690
f 692 691 694
f 696 689 694
f 695 689 697
f 693 695 691
f 698 694 691
f 699 689 696
f 694 698 696
f 699 697 689
f 697 700 695
f 698 691 695
f 696 701 699
f 696 698 701
f 697 699 700
f 700 702 695
f 698 695 702
f 703 699 701
f 702 701 698
f 700 699 704
f 702 700 705
f 706 699 703
f 701 702 703
f 706 704 699
f 704 707 700
f 707 705 700
f 705 708 702
f 703 708 706
f 703 702 708
f 704 706 707
f 705 707 709
f 708 705 710
f 710 706 708
f 707 706 711
f 712 709 707
f 709 713 705
f 710 705 713
f 714 706 710
f 714 711 706
f 711 712 707
f 712 715 709
f 713 709 716
f 710 713 714
f 711 714 712
f 712 714 715
f 717 709 715
f 717 716 709
f 713 716 718
f 718 714 713
f 718 715 714
f 717 715 716
f 718 716 715
f 719 720 721
f 720 719 722
f 723 721 720
f 724 719 721
f 719 725 722
f 725 720 722
f 721 723 724
f 720 725 723
f 726 719 724
f 719 727 725
f 728 724 723
f 727 723 725
f 719 726 729
f 724 730 726
f 727 719 729
f 730 724 728
f 723 731 728
f 731 723 727
f 730 729 726
f 727 729 731
f 728 732 730
f 733 728 731
f 732 729 730
f 729 733 731
f 732 728 734
f 735 728 733
f 729 732 736
f 733 729 736
f 734 728 737
f 734 736 732
f 728 735 737
f 733 738 735
f 739 733 736
f 737 740 734
f 740 736 734
f 738 737 735
f 733 739 738
f 736 740 739
f 740 737 741
f 742 737 738
f 743 738 739
f 741 739 740
f 741 737 744
f 737 742 744
f 738 745 742
f 738 743 745
f 739 746 743
f 746 739 741
f 744 746 741
f 745 744 742
f 747 745 743
f 748 743 746
f 746 744 748
f 749 744 745
f 745 747 750
f 743 751 747
f 751 743 748
f 748 744 752
f 744 749 752
f 745 750 749
f 747 753 750
f 754 747 751
f 752 751 748
f 750 752 749
f 753 747 755
f 753 752 750
f 747 754 755
f 756 754 751
f 751 752 756
f 754 753 755
f 752 753 756
f 753 754 756

