# https://github.com/mikedh/trimesh

o 2.obj
v -0.29865717 -0.11999887 -0.33565418
v -0.29263445 -0.12732277 -0.33564841
v -0.28080991 -0.12874359 -0.33553508
v -0.29866189 -0.11995690 -0.31806926
v -0.29268430 -0.12727713 -0.31808972
v -0.28075430 -0.12875041 -0.31804198
v -0.29871173 -0.11991073 -0.30051162
v -0.29268902 -0.12727450 -0.30054258
v -0.28080414 -0.12874726 -0.30052579
v -0.29875738 -0.11990181 -0.28248178
v -0.29273781 -0.12722728 -0.28246342
v -0.28085608 -0.12869899 -0.28244505
v -0.29875738 -0.11990181 -0.26489476
v -0.29273991 -0.12722676 -0.26489004
v -0.28085871 -0.12869794 -0.26488532
v -0.29875738 -0.11990181 -0.24733502
v -0.29273991 -0.12722676 -0.24733030
v -0.28085923 -0.12869794 -0.24732558
v -0.29875738 -0.11990181 -0.22977476
v -0.29273991 -0.12722676 -0.22977004
v -0.28085923 -0.12869794 -0.22976532
v -0.29875738 -0.11990181 -0.21221503
v -0.29273991 -0.12722676 -0.21221031
v -0.28085923 -0.12869794 -0.21220559
v -0.29875738 -0.11990181 -0.19465529
v -0.29273991 -0.12722676 -0.19465005
v -0.28085923 -0.12869794 -0.19464532
v -0.29875738 -0.11990181 -0.17709503
v -0.29273991 -0.12722676 -0.17709031
v -0.28085923 -0.12869794 -0.17708559
v -0.29875738 -0.11990181 -0.15953530
v -0.29273991 -0.12722676 -0.15953058
v -0.28085923 -0.12869794 -0.15952585
v -0.29875738 -0.11990181 -0.14197504
v -0.29273991 -0.12722676 -0.14197032
v -0.28085923 -0.12869794 -0.14196559
v -0.29875738 -0.11990181 -0.12441530
v -0.29273991 -0.12722676 -0.12441058
v -0.28085923 -0.12869794 -0.12440586
v -0.29875738 -0.11990181 -0.10685504
v -0.29273991 -0.12722676 -0.10685032
v -0.28085923 -0.12869794 -0.10684560
v -0.29875738 -0.11990181 -0.08929531
v -0.29273991 -0.12722676 -0.08929058
v -0.28085923 -0.12869794 -0.08928586
v -0.29875738 -0.11990181 -0.07173505
v -0.29273991 -0.12722676 -0.07173032
v -0.28085923 -0.12869794 -0.07172560
v -0.29875738 -0.11990181 -0.05417531
v -0.29273991 -0.12722676 -0.05417059
v -0.28085923 -0.12869794 -0.05416587
v -0.29875738 -0.11990181 -0.03661557
v -0.29273991 -0.12722676 -0.03661085
v -0.28085923 -0.12869794 -0.03660613
v -0.29875738 -0.11990181 -0.01905531
v -0.29273991 -0.12722676 -0.01905059
v -0.28085923 -0.12869794 -0.01904587
v -0.29875738 -0.11990181 -0.00149558
v -0.29273991 -0.12722676 -0.00149086
v -0.28085923 -0.12869794 -0.00148613
v -0.26330422 -0.12870214 -0.33286712
v -0.26339446 -0.12884065 -0.31800210
v -0.24572822 -0.12855418 -0.33036968
v -0.24583158 -0.12878871 -0.31789349
v -0.26337557 -0.12884485 -0.30048119
v -0.26337662 -0.12888840 -0.28244505
v -0.24581006 -0.12880078 -0.30043869
v -0.24580797 -0.12888840 -0.28244768
v -0.22826030 -0.12848440 -0.33047094
v -0.22825400 -0.12878399 -0.31786936
v -0.21069794 -0.12847863 -0.33047619
v -0.21069427 -0.12878399 -0.31786936
v -0.22825243 -0.12880078 -0.30043922
v -0.22824876 -0.12888840 -0.28244820
v -0.21069269 -0.12880078 -0.30043922
v -0.21068902 -0.12888840 -0.28244820
v -0.19313768 -0.12847810 -0.33047619
v -0.19313401 -0.12878399 -0.31786936
v -0.17557794 -0.12847810 -0.33047619
v -0.17557427 -0.12878399 -0.31786988
v -0.19313243 -0.12880078 -0.30043922
v -0.19312876 -0.12888840 -0.28244820
v -0.17557270 -0.12880078 -0.30043922
v -0.17556902 -0.12888840 -0.28244820
v -0.15801768 -0.12847810 -0.33047671
v -0.15801453 -0.12869689 -0.31786988
v -0.14045795 -0.12847810 -0.33047619
v -0.14045742 -0.12860927 -0.31786831
v -0.15801086 -0.12862606 -0.30044184
v -0.15800614 -0.12871368 -0.28245397
v -0.14045690 -0.12853896 -0.30044341
v -0.14045323 -0.12853896 -0.28245712
v -0.12289769 -0.12847810 -0.33047619
v -0.12290031 -0.12860927 -0.31786673
v -0.10533795 -0.12847810 -0.33047619
v -0.10534005 -0.12860927 -0.31786673
v -0.12290136 -0.12845134 -0.30044341
v -0.12289926 -0.12836372 -0.28245869
v -0.10534425 -0.12845134 -0.30044236
v -0.10534687 -0.12836425 -0.28245712
v -0.08777822 -0.12847810 -0.33047619
v -0.08778031 -0.12860927 -0.31786673
v -0.07021796 -0.12847810 -0.33047619
v -0.07022005 -0.12860927 -0.31786673
v -0.08778451 -0.12845134 -0.30044236
v -0.08778661 -0.12836425 -0.28245712
v -0.07022425 -0.12845134 -0.30044236
v -0.07025363 -0.12836215 -0.28248178
v -0.05265822 -0.12847810 -0.33047619
v -0.05266032 -0.12860927 -0.31786673
v -0.03509953 -0.12847810 -0.33047776
v -0.03510478 -0.12869689 -0.31786778
v -0.05266452 -0.12853896 -0.30044236
v -0.05269442 -0.12852900 -0.28255313
v -0.03510950 -0.12871368 -0.30044079
v -0.03509061 -0.12861452 -0.28257097
v -0.01753770 -0.12852165 -0.33052446
v -0.01688553 -0.12882806 -0.31791605
v 0.00002466 -0.12847758 -0.33048038
v 0.00068155 -0.12878399 -0.31787303
v -0.01623284 -0.12871368 -0.30044394
v -0.01625383 -0.12879500 -0.28252533
v 0.00067945 -0.12884485 -0.30048801
v 0.00129332 -0.12887790 -0.28255104
v -0.26337820 -0.12888840 -0.26488374
v -0.26337820 -0.12888840 -0.24732348
v -0.24580902 -0.12888840 -0.26488374
v -0.24580902 -0.12888840 -0.24732348
v -0.26337820 -0.12888840 -0.22976375
v -0.26337820 -0.12888840 -0.21220349
v -0.24580902 -0.12888840 -0.22976375
v -0.24580902 -0.12888840 -0.21220349
v -0.22824876 -0.12888840 -0.26488374
v -0.22824876 -0.12888840 -0.24732348
v -0.21068902 -0.12888840 -0.26488374
v -0.21068902 -0.12888840 -0.24732348
v -0.22824876 -0.12888840 -0.22976375
v -0.22824876 -0.12888840 -0.21220349
v -0.21068902 -0.12888840 -0.22976375
v -0.21068902 -0.12888840 -0.21220349
v -0.26337820 -0.12888840 -0.19464375
v -0.26337820 -0.12888840 -0.17708402
v -0.24580902 -0.12888840 -0.19464375
v -0.24580902 -0.12888840 -0.17708402
v -0.26337820 -0.12888840 -0.15952375
v -0.26337820 -0.12888840 -0.14196402
v -0.24580902 -0.12888840 -0.15952375
v -0.24580902 -0.12888840 -0.14196402
v -0.22824876 -0.12888840 -0.19464375
v -0.22824876 -0.12888840 -0.17708402
v -0.21068902 -0.12888840 -0.19464375
v -0.21068902 -0.12888840 -0.17708402
v -0.22824876 -0.12888840 -0.15952375
v -0.22824876 -0.12888840 -0.14196402
v -0.21068902 -0.12888840 -0.15952375
v -0.21068902 -0.12888840 -0.14196402
v -0.19312876 -0.12888840 -0.26488374
v -0.19312876 -0.12888840 -0.24732348
v -0.17556902 -0.12888840 -0.26488374
v -0.17556902 -0.12888840 -0.24732348
v -0.19312876 -0.12888840 -0.22976375
v -0.19312876 -0.12888840 -0.21220349
v -0.17556902 -0.12888840 -0.22976375
v -0.17556902 -0.12888840 -0.21220349
v -0.15800614 -0.12871368 -0.26488951
v -0.15800614 -0.12871368 -0.24732925
v -0.14045218 -0.12853844 -0.26489529
v -0.14045218 -0.12853844 -0.24733555
v -0.15800614 -0.12871368 -0.22976952
v -0.15800614 -0.12871368 -0.21220978
v -0.14045218 -0.12853844 -0.22977529
v -0.14045218 -0.12853844 -0.21221555
v -0.19312876 -0.12888840 -0.19464375
v -0.19312876 -0.12888840 -0.17708402
v -0.17556902 -0.12888840 -0.19464375
v -0.17556902 -0.12888840 -0.17708402
v -0.19312876 -0.12888840 -0.15952375
v -0.19312876 -0.12888840 -0.14196402
v -0.17556902 -0.12888840 -0.15952375
v -0.17556902 -0.12888840 -0.14196402
v -0.15800614 -0.12871368 -0.19464952
v -0.15800614 -0.12871368 -0.17708979
v -0.14045218 -0.12853844 -0.19465529
v -0.14045218 -0.12853844 -0.17709556
v -0.15800614 -0.12871368 -0.15952953
v -0.15800614 -0.12871368 -0.14196979
v -0.14045218 -0.12853844 -0.15953530
v -0.14045218 -0.12853844 -0.14197556
v -0.26337820 -0.12888840 -0.12440376
v -0.26337820 -0.12888840 -0.10684402
v -0.24580902 -0.12888840 -0.12440376
v -0.24580902 -0.12888840 -0.10684402
v -0.26337820 -0.12888840 -0.08928376
v -0.26337820 -0.12888840 -0.07172403
v -0.24580902 -0.12888840 -0.08928376
v -0.24580902 -0.12888840 -0.07172403
v -0.22824876 -0.12888840 -0.12440376
v -0.22824876 -0.12888840 -0.10684402
v -0.21068902 -0.12888840 -0.12440376
v -0.21068902 -0.12888840 -0.10684402
v -0.22824876 -0.12888840 -0.08928376
v -0.22824876 -0.12888840 -0.07172403
v -0.21068902 -0.12888840 -0.08928376
v -0.21068902 -0.12888840 -0.07172403
v -0.26337820 -0.12888840 -0.05416429
v -0.26337820 -0.12888840 -0.03660403
v -0.24580902 -0.12888840 -0.05416429
v -0.24580902 -0.12888840 -0.03660403
v -0.26337820 -0.12888840 -0.01904430
v -0.26337820 -0.12888840 -0.00148404
v -0.24580902 -0.12888840 -0.01904430
v -0.24580902 -0.12888840 -0.00148404
v -0.22824876 -0.12888840 -0.05416429
v -0.22824876 -0.12888840 -0.03660403
v -0.21068902 -0.12888840 -0.05416429
v -0.21068902 -0.12888840 -0.03660403
v -0.22824876 -0.12888840 -0.01904430
v -0.22824876 -0.12888840 -0.00148404
v -0.21068902 -0.12888840 -0.01904430
v -0.21068902 -0.12888840 -0.00148404
v -0.19312876 -0.12888840 -0.12440376
v -0.19312876 -0.12888840 -0.10684402
v -0.17556902 -0.12888840 -0.12440376
v -0.17556902 -0.12888840 -0.10684402
v -0.19312876 -0.12888840 -0.08928376
v -0.19312876 -0.12888840 -0.07172403
v -0.17556902 -0.12888840 -0.08928376
v -0.17556902 -0.12888840 -0.07172403
v -0.15800614 -0.12871368 -0.12440953
v -0.15800614 -0.12871368 -0.10684979
v -0.14045218 -0.12853844 -0.12441530
v -0.14045218 -0.12853844 -0.10685557
v -0.15800614 -0.12871368 -0.08928953
v -0.15800614 -0.12871368 -0.07172980
v -0.14045218 -0.12862606 -0.08929583
v -0.14045323 -0.12871368 -0.07173295
v -0.19312876 -0.12888840 -0.05416429
v -0.19312876 -0.12888840 -0.03660403
v -0.17556902 -0.12888840 -0.05416429
v -0.17556902 -0.12888840 -0.03660403
v -0.19312876 -0.12888840 -0.01904430
v -0.19312876 -0.12888840 -0.00148404
v -0.17556902 -0.12888840 -0.01904430
v -0.17556902 -0.12888840 -0.00148404
v -0.15800614 -0.12880078 -0.05417006
v -0.15800771 -0.12888840 -0.03660718
v -0.14045218 -0.12880078 -0.05417111
v -0.14044903 -0.12880078 -0.03660823
v -0.15800929 -0.12888840 -0.01904430
v -0.15800929 -0.12888840 -0.00148404
v -0.14044745 -0.12888840 -0.01904692
v -0.14044903 -0.12888840 -0.00148404
v -0.12289769 -0.12836372 -0.26490106
v -0.12289769 -0.12836372 -0.24734132
v -0.10534687 -0.12836425 -0.26490106
v -0.10534687 -0.12836425 -0.24734132
v -0.12289769 -0.12836372 -0.22978106
v -0.12289769 -0.12836372 -0.21222133
v -0.10534687 -0.12836425 -0.22978106
v -0.10534687 -0.12836425 -0.21222133
v -0.08778661 -0.12836425 -0.26490106
v -0.08778661 -0.12836425 -0.24734132
v -0.07033391 -0.12835166 -0.26492834
v -0.07039897 -0.12842616 -0.24736388
v -0.08778661 -0.12836425 -0.22978106
v -0.08778661 -0.12836425 -0.21222133
v -0.07043307 -0.12850171 -0.22979837
v -0.07045668 -0.12849384 -0.21221450
v -0.12289769 -0.12836372 -0.19466106
v -0.12289769 -0.12836372 -0.17710133
v -0.10534687 -0.12836425 -0.19466106
v -0.10534687 -0.12836425 -0.17710133
v -0.12289769 -0.12836372 -0.15954107
v -0.12289769 -0.12836372 -0.14198133
v -0.10534687 -0.12845134 -0.15954107
v -0.10534792 -0.12853896 -0.14197819
v -0.08778661 -0.12845134 -0.19466106
v -0.08778818 -0.12853896 -0.17709818
v -0.07045353 -0.12858251 -0.19465634
v -0.07045091 -0.12858409 -0.17709346
v -0.08778661 -0.12862658 -0.15953687
v -0.08778399 -0.12862606 -0.14197399
v -0.07044671 -0.12867223 -0.15953320
v -0.07044671 -0.12875933 -0.14196874
v -0.05162199 -0.13088687 -0.26339105
v -0.05065502 -0.13333972 -0.24587171
v -0.03413256 -0.13347666 -0.26171787
v -0.03303023 -0.14370200 -0.24382811
v -0.05084233 -0.13484710 -0.22986606
v -0.05084443 -0.13644997 -0.21224966
v -0.03693484 -0.14521043 -0.22821964
v -0.03708909 -0.14528126 -0.21229793
v -0.01649150 -0.13127041 -0.26335642
v -0.01604186 -0.13999466 -0.24295663
v 0.00146751 -0.13122634 -0.26345558
v 0.00138041 -0.13601555 -0.24423683
v -0.01090741 -0.14538672 -0.22230710
v 0.00110391 -0.13989602 -0.22829571
v -0.01083186 -0.14537045 -0.20643471
v 0.00117107 -0.14289243 -0.21231367
v -0.05086909 -0.13643423 -0.19464637
v -0.05086751 -0.13652238 -0.17708506
v -0.03709801 -0.14680334 -0.19465634
v -0.03709906 -0.14679546 -0.17707667
v -0.05086646 -0.13661052 -0.15952375
v -0.05086332 -0.13661105 -0.14196087
v -0.03709486 -0.14679704 -0.15951693
v -0.03709381 -0.14679756 -0.14195510
v -0.01084760 -0.14690617 -0.18879995
v 0.00112752 -0.14441345 -0.19466998
v -0.01084813 -0.14690670 -0.17122342
v 0.00114326 -0.14441660 -0.17706827
v -0.01084813 -0.14690670 -0.15366316
v 0.00114326 -0.14441660 -0.15950801
v -0.01084813 -0.14690670 -0.13610343
v 0.00114326 -0.14441660 -0.14194828
v -0.12289769 -0.12845134 -0.12442160
v -0.12289926 -0.12853896 -0.10685871
v -0.10534687 -0.12862658 -0.12441688
v -0.10534372 -0.12862606 -0.10685399
v -0.12289769 -0.12862606 -0.08929688
v -0.12289506 -0.12862606 -0.07173400
v -0.10533953 -0.12871368 -0.08929426
v -0.10533953 -0.12880130 -0.07172980
v -0.08777927 -0.12871368 -0.12441425
v -0.08777927 -0.12880130 -0.10684979
v -0.07044514 -0.12884695 -0.12440743
v -0.07044252 -0.12884695 -0.10684455
v -0.08777769 -0.12888840 -0.08928849
v -0.08777507 -0.12888840 -0.07172560
v -0.07043779 -0.12884695 -0.08928481
v -0.07043674 -0.12884642 -0.07172298
v -0.12289034 -0.12871368 -0.05417426
v -0.12289034 -0.12880078 -0.03660980
v -0.10533795 -0.12888840 -0.05416849
v -0.10533480 -0.12888840 -0.03660561
v -0.12288929 -0.12888840 -0.01904849
v -0.12288929 -0.12888840 -0.00148404
v -0.10533061 -0.12888840 -0.01904535
v -0.10532903 -0.12888840 -0.00148404
v -0.08777087 -0.12888840 -0.05416534
v -0.08776930 -0.12888840 -0.03660403
v -0.07043622 -0.12884642 -0.05416324
v -0.07043622 -0.12884642 -0.03660351
v -0.08776930 -0.12888840 -0.01904430
v -0.08776930 -0.12888840 -0.00148404
v -0.07043622 -0.12884642 -0.01904325
v -0.07043622 -0.12884642 -0.00148351
v -0.05085912 -0.13661105 -0.12440061
v -0.05085754 -0.13661105 -0.10683930
v -0.03709381 -0.14679756 -0.12439536
v -0.03709381 -0.14679756 -0.10683510
v -0.05085754 -0.13661105 -0.08927904
v -0.05085754 -0.13661105 -0.07171931
v -0.03709381 -0.14679756 -0.08927537
v -0.03709381 -0.14679756 -0.07171563
v -0.01084813 -0.14690670 -0.11854317
v 0.00114326 -0.14441660 -0.12438802
v -0.01084813 -0.14690670 -0.10098343
v 0.00114326 -0.14441660 -0.10682828
v -0.01084813 -0.14690670 -0.08342317
v 0.00114326 -0.14441660 -0.08926855
v -0.01084813 -0.14690670 -0.06586344
v 0.00114326 -0.14441660 -0.07170829
v -0.05085754 -0.13661105 -0.05415957
v -0.05085754 -0.13661105 -0.03659931
v -0.03709381 -0.14679756 -0.05415537
v -0.03709381 -0.14679756 -0.03659564
v -0.05085754 -0.13661105 -0.01903957
v -0.05085754 -0.13661105 -0.00147931
v -0.03709381 -0.14679756 -0.01903538
v -0.03709381 -0.14679756 -0.00147564
v -0.01084813 -0.14690670 -0.04830318
v 0.00114326 -0.14441660 -0.05414855
v -0.01084813 -0.14690670 -0.03074344
v 0.00114326 -0.14441660 -0.03658829
v -0.01084813 -0.14690670 -0.01318318
v 0.00114326 -0.14441660 -0.01902856
v -0.01084813 -0.14690670 0.00437655
v 0.00114326 -0.14441660 -0.00146830
v -0.29875738 -0.11990181 0.01606468
v -0.29273991 -0.12722676 0.01606940
v -0.28085923 -0.12869794 0.01607413
v -0.29875738 -0.11990181 0.03362442
v -0.29273991 -0.12722676 0.03362914
v -0.28085923 -0.12869794 0.03363386
v -0.29875738 -0.11990181 0.05118468
v -0.29273991 -0.12722676 0.05118940
v -0.28085923 -0.12869794 0.05119412
v -0.29875738 -0.11990181 0.06874441
v -0.29273991 -0.12722676 0.06874914
v -0.28085923 -0.12869794 0.06875386
v -0.29875738 -0.11990181 0.08630467
v -0.29273991 -0.12722676 0.08630940
v -0.28085923 -0.12869794 0.08631412
v -0.29875738 -0.11990181 0.10386441
v -0.29273991 -0.12722676 0.10386913
v -0.28085923 -0.12869794 0.10387385
v -0.29875738 -0.11990181 0.12142414
v -0.29273991 -0.12722676 0.12142887
v -0.28085923 -0.12869794 0.12143359
v -0.29875738 -0.11990181 0.13898440
v -0.29273991 -0.12722676 0.13898913
v -0.28085923 -0.12869794 0.13899385
v -0.29875738 -0.11990181 0.15654414
v -0.29273991 -0.12722676 0.15654886
v -0.28085923 -0.12869794 0.15655358
v -0.29875738 -0.11990181 0.17410440
v -0.29273991 -0.12722676 0.17410912
v -0.28085923 -0.12869794 0.17411384
v -0.29875738 -0.11990181 0.19166414
v -0.29273991 -0.12722676 0.19166886
v -0.28085923 -0.12869794 0.19167358
v -0.29875738 -0.11990181 0.20922440
v -0.29273991 -0.12722676 0.20922912
v -0.28085923 -0.12869794 0.20923384
v -0.29875738 -0.11990181 0.22678413
v -0.29273991 -0.12722676 0.22678885
v -0.28085923 -0.12869794 0.22679358
v -0.29875738 -0.11990181 0.24434439
v -0.29273991 -0.12722676 0.24434859
v -0.28085923 -0.12869794 0.24435331
v -0.29875738 -0.11990181 0.26190413
v -0.29273991 -0.12722676 0.26190885
v -0.28085923 -0.12861032 0.26191357
v -0.29875738 -0.11990181 0.27946386
v -0.29273991 -0.12722676 0.27946859
v -0.28085766 -0.12852322 0.27947068
v -0.29875738 -0.11990181 0.29702412
v -0.29273991 -0.12713914 0.29702885
v -0.28085923 -0.12852322 0.29702937
v -0.29875738 -0.11990181 0.31458281
v -0.29273781 -0.12713914 0.31458281
v -0.28086028 -0.12869794 0.31458438
v -0.29871331 -0.11994850 0.33125532
v -0.29269322 -0.12718321 0.33124903
v -0.28086343 -0.12847968 0.33129363
v -0.29871908 -0.11994640 0.34880299
v -0.29268744 -0.12713074 0.34784127
v -0.28075849 -0.12867643 0.34697976
v -0.29254001 -0.12724512 0.36647081
v -0.28348941 -0.12792195 0.36370894
v -0.27189678 -0.12663493 0.37493115
v -0.26337820 -0.12888840 0.01607570
v -0.26337820 -0.12888840 0.03363596
v -0.24580902 -0.12888840 0.01607570
v -0.24580902 -0.12888840 0.03363596
v -0.26337820 -0.12888840 0.05119570
v -0.26337820 -0.12888840 0.06875543
v -0.24580902 -0.12888840 0.05119570
v -0.24580902 -0.12888840 0.06875543
v -0.22824876 -0.12888840 0.01607570
v -0.22824876 -0.12888840 0.03363596
v -0.21068902 -0.12888840 0.01607570
v -0.21068902 -0.12888840 0.03363596
v -0.22824876 -0.12888840 0.05119570
v -0.22824876 -0.12888840 0.06875543
v -0.21068902 -0.12888840 0.05119570
v -0.21068902 -0.12888840 0.06875543
v -0.26337820 -0.12888840 0.08631569
v -0.26337820 -0.12888840 0.10387543
v -0.24580902 -0.12888840 0.08631569
v -0.24580902 -0.12888840 0.10387543
v -0.26337820 -0.12888840 0.12143569
v -0.26337820 -0.12888840 0.13899542
v -0.24580902 -0.12888840 0.12143569
v -0.24580902 -0.12888840 0.13899542
v -0.22824876 -0.12888840 0.08631569
v -0.22824876 -0.12888840 0.10387543
v -0.21068902 -0.12888840 0.08631569
v -0.21068902 -0.12888840 0.10387543
v -0.22824876 -0.12888840 0.12143569
v -0.22824876 -0.12888840 0.13899542
v -0.21068902 -0.12888840 0.12143569
v -0.21068902 -0.12888840 0.13899542
v -0.19312876 -0.12888840 0.01607570
v -0.19312876 -0.12888840 0.03363596
v -0.17556902 -0.12888840 0.01607570
v -0.17556902 -0.12888840 0.03363596
v -0.19312876 -0.12888840 0.05119570
v -0.19312876 -0.12888840 0.06875596
v -0.17556902 -0.12888840 0.05119570
v -0.17556902 -0.12888840 0.06875596
v -0.15800929 -0.12888840 0.01607570
v -0.15800929 -0.12888840 0.03363596
v -0.14044903 -0.12888840 0.01607570
v -0.14044903 -0.12888840 0.03363596
v -0.15800929 -0.12888840 0.05119570
v -0.15800929 -0.12888840 0.06875596
v -0.14044903 -0.12888840 0.05119570
v -0.14044903 -0.12888840 0.06875596
v -0.19312876 -0.12888840 0.08631569
v -0.19312876 -0.12888840 0.10387543
v -0.17556902 -0.12888840 0.08631569
v -0.17556902 -0.12888840 0.10387543
v -0.19312876 -0.12888840 0.12143569
v -0.19312876 -0.12888840 0.13899542
v -0.17556902 -0.12888840 0.12143569
v -0.17556902 -0.12888840 0.13899542
v -0.15800929 -0.12888840 0.08631569
v -0.15800929 -0.12888840 0.10387595
v -0.14044903 -0.12888840 0.08631569
v -0.14044903 -0.12888840 0.10387595
v -0.15800929 -0.12888840 0.12143569
v -0.15800929 -0.12888840 0.13899542
v -0.14044903 -0.12888840 0.12143569
v -0.14044903 -0.12888840 0.13899542
v -0.26337820 -0.12888840 0.15655568
v -0.26337820 -0.12888840 0.17411542
v -0.24580902 -0.12888840 0.15655568
v -0.24580902 -0.12888840 0.17411542
v -0.26337820 -0.12888840 0.19167568
v -0.26337820 -0.12888840 0.20923541
v -0.24580902 -0.12880078 0.19167568
v -0.24580744 -0.12871368 0.20923279
v -0.22824876 -0.12880078 0.15655568
v -0.22824771 -0.12871368 0.17411280
v -0.21069164 -0.12880078 0.15655726
v -0.21069479 -0.12880078 0.17411384
v -0.22824876 -0.12862606 0.19167096
v -0.22825190 -0.12862606 0.20922807
v -0.21069899 -0.12871368 0.19167410
v -0.21069899 -0.12853844 0.20922964
v -0.26337820 -0.12880078 0.22679515
v -0.26337715 -0.12871368 0.24435226
v -0.24580902 -0.12862606 0.22679095
v -0.24581164 -0.12862606 0.24434807
v -0.26337820 -0.12862606 0.26191095
v -0.26338134 -0.12862606 0.27946806
v -0.24581636 -0.12853896 0.26190833
v -0.24581636 -0.12845134 0.27946386
v -0.22825610 -0.12853896 0.22678833
v -0.22825610 -0.12845134 0.24434387
v -0.21069899 -0.12836372 0.22678518
v -0.21070056 -0.12836372 0.24433915
v -0.22825767 -0.12836372 0.26190203
v -0.22826082 -0.12845134 0.27945914
v -0.21070476 -0.12836425 0.26189941
v -0.21070371 -0.12853896 0.27945652
v -0.19313191 -0.12888840 0.15655726
v -0.19313348 -0.12880078 0.17411542
v -0.17556902 -0.12888840 0.15655568
v -0.17557217 -0.12888840 0.17411699
v -0.19313506 -0.12871368 0.19167410
v -0.19314083 -0.12862606 0.20923279
v -0.17557637 -0.12888840 0.19167725
v -0.17558057 -0.12888840 0.20923699
v -0.15800929 -0.12888840 0.15655568
v -0.15800929 -0.12888840 0.17411542
v -0.14044903 -0.12888840 0.15655568
v -0.14044903 -0.12888840 0.17411542
v -0.15800929 -0.12888840 0.19167568
v -0.15800929 -0.12888840 0.20923541
v -0.14044903 -0.12888840 0.19167568
v -0.14044903 -0.12888840 0.20923541
v -0.19314817 -0.12862606 0.22678938
v -0.19315080 -0.12845134 0.24434649
v -0.17558214 -0.12880078 0.22679567
v -0.17558634 -0.12862606 0.24435541
v -0.19314817 -0.12836425 0.26190098
v -0.19314083 -0.12853896 0.27945494
v -0.17558949 -0.12862606 0.26190833
v -0.17558529 -0.12862606 0.27946386
v -0.15801191 -0.12888840 0.22679672
v -0.15801926 -0.12888840 0.24435856
v -0.14044903 -0.12888840 0.22679567
v -0.14044903 -0.12888840 0.24435541
v -0.15802240 -0.12880078 0.26191567
v -0.15802083 -0.12862606 0.27947226
v -0.14045218 -0.12888840 0.26191672
v -0.14045952 -0.12871368 0.27947803
v -0.12288929 -0.12888840 0.01607570
v -0.12288929 -0.12888840 0.03363596
v -0.10532903 -0.12888840 0.01607570
v -0.10532903 -0.12888840 0.03363596
v -0.12288929 -0.12888840 0.05119570
v -0.12288929 -0.12888840 0.06875596
v -0.10532903 -0.12888840 0.05119570
v -0.10532903 -0.12888840 0.06875596
v -0.08776930 -0.12888840 0.01607570
v -0.08776930 -0.12888840 0.03363596
v -0.07043622 -0.12884642 0.01607675
v -0.07043622 -0.12884642 0.03363648
v -0.08776930 -0.12888840 0.05119570
v -0.08776930 -0.12888840 0.06875596
v -0.07043622 -0.12884642 0.05119674
v -0.07043622 -0.12884642 0.06875648
v -0.12288929 -0.12888840 0.08631569
v -0.12288929 -0.12888840 0.10387595
v -0.10532903 -0.12888840 0.08631569
v -0.10532903 -0.12888840 0.10387595
v -0.12288929 -0.12888840 0.12143569
v -0.12288929 -0.12888840 0.13899542
v -0.10532903 -0.12888840 0.12143569
v -0.10532903 -0.12888840 0.13899542
v -0.08776930 -0.12888840 0.08631569
v -0.08776930 -0.12888840 0.10387595
v -0.07043622 -0.12884642 0.08631674
v -0.07043622 -0.12884642 0.10387648
v -0.08776930 -0.12888840 0.12143569
v -0.08776930 -0.12888840 0.13899542
v -0.07043622 -0.12884642 0.12143621
v -0.07043622 -0.12884642 0.13899647
v -0.05085754 -0.13661105 0.01608042
v -0.05085754 -0.13661105 0.03364068
v -0.03709381 -0.14679756 0.01608462
v -0.03709381 -0.14679756 0.03364435
v -0.05085754 -0.13661105 0.05120042
v -0.05085754 -0.13661105 0.06876068
v -0.03709381 -0.14679756 0.05120462
v -0.03709381 -0.14679756 0.06876435
v -0.01084813 -0.14690670 0.02193629
v 0.00114326 -0.14441660 0.01609144
v -0.01084813 -0.14690670 0.03949655
v 0.00114326 -0.14441660 0.03365170
v -0.01084813 -0.14690670 0.05705629
v 0.00114326 -0.14441660 0.05121144
v -0.01084813 -0.14690670 0.07461655
v 0.00114326 -0.14441660 0.06877117
v -0.05085754 -0.13661105 0.08632041
v -0.05085754 -0.13661105 0.10388015
v -0.03709381 -0.14679756 0.08632409
v -0.03709381 -0.14679756 0.10388435
v -0.05085754 -0.13661105 0.12144041
v -0.05085754 -0.13661105 0.13900014
v -0.03709381 -0.14679756 0.12144408
v -0.03709381 -0.14679756 0.13900434
v -0.01084813 -0.14690670 0.09217628
v 0.00114326 -0.14441660 0.08633143
v -0.01084813 -0.14690670 0.10973654
v 0.00114326 -0.14441660 0.10389117
v -0.01084813 -0.14690670 0.12729628
v 0.00114326 -0.14441660 0.12145143
v -0.01084813 -0.14690670 0.14485654
v 0.00114326 -0.14441660 0.13901116
v -0.12288929 -0.12888840 0.15655568
v -0.12288929 -0.12888840 0.17411542
v -0.10532903 -0.12888840 0.15655568
v -0.10532903 -0.12888840 0.17411542
v -0.12288929 -0.12888840 0.19167568
v -0.12288929 -0.12888840 0.20923541
v -0.10532903 -0.12888840 0.19167568
v -0.10532903 -0.12888840 0.20923541
v -0.08776930 -0.12888840 0.15655568
v -0.08776930 -0.12888840 0.17411542
v -0.07043622 -0.12884642 0.15655621
v -0.07043622 -0.12884642 0.17411647
v -0.08776930 -0.12888840 0.19167568
v -0.08776930 -0.12888840 0.20923541
v -0.07043674 -0.12884642 0.19167620
v -0.07042468 -0.12885062 0.20925011
v -0.12288929 -0.12888840 0.22679567
v -0.12288929 -0.12888840 0.24435541
v -0.10532903 -0.12888840 0.22679567
v -0.10532903 -0.12888840 0.24435541
v -0.12288929 -0.12888840 0.26191567
v -0.12289506 -0.12871368 0.27947803
v -0.10532903 -0.12880078 0.26191567
v -0.10533375 -0.12862606 0.27947541
v -0.08776930 -0.12888840 0.22679567
v -0.08776930 -0.12888840 0.24435541
v -0.07039320 -0.12886111 0.22680984
v -0.07034020 -0.12887371 0.24437850
v -0.08777192 -0.12871368 0.26191672
v -0.08777664 -0.12862606 0.27947226
v -0.07026360 -0.12870896 0.26194033
v -0.07021796 -0.12853844 0.27947068
v -0.05085754 -0.13661105 0.15656041
v -0.05085754 -0.13661105 0.17412014
v -0.03709381 -0.14679756 0.15656408
v -0.03709381 -0.14679756 0.17412434
v -0.05085754 -0.13661105 0.19168040
v -0.05084495 -0.13661682 0.20926322
v -0.03709381 -0.14679756 0.19168407
v -0.03709224 -0.14679966 0.20925378
v -0.01084813 -0.14690670 0.16241627
v 0.00114326 -0.14441660 0.15657142
v -0.01084813 -0.14690670 0.17997601
v 0.00114326 -0.14441660 0.17413116
v -0.01084813 -0.14690670 0.19753627
v 0.00114326 -0.14441660 0.19169089
v -0.01083973 -0.14691981 0.21512066
v 0.00115953 -0.14442290 0.20927267
v -0.05085125 -0.13507586 0.22786024
v -0.05071326 -0.13360205 0.24476990
v -0.03711480 -0.14524768 0.22786653
v -0.03694323 -0.14528179 0.24301330
v -0.05165400 -0.13118489 0.26129236
v -0.05273115 -0.12861609 0.27954466
v -0.03182768 -0.13993327 0.26134220
v -0.03404809 -0.13109622 0.27890666
v -0.01077047 -0.14534947 0.23373709
v 0.00118261 -0.14292548 0.22782561
v -0.01104330 -0.14527916 0.24899981
v 0.00141137 -0.13994744 0.24575786
v -0.01537815 -0.13361517 0.27819363
v -0.01241847 -0.13866881 0.26476989
v 0.00117946 -0.13600873 0.26167852
v 0.00106718 -0.13120168 0.27896280
v -0.26338292 -0.12871368 0.29702675
v -0.26337820 -0.12871368 0.31458333
v -0.24581164 -0.12853896 0.29701940
v -0.24581164 -0.12871368 0.31458019
v -0.26338449 -0.12871368 0.33133770
v -0.26337505 -0.12872785 0.34703590
v -0.24581636 -0.12880130 0.33133403
v -0.24581006 -0.12877139 0.34708626
v -0.22826082 -0.12862606 0.29701940
v -0.22825610 -0.12871368 0.31458019
v -0.21069899 -0.12862606 0.29702098
v -0.21069479 -0.12880130 0.31458176
v -0.22825400 -0.12880130 0.33133245
v -0.22824718 -0.12877139 0.34708679
v -0.21069532 -0.12875723 0.33129205
v -0.21068640 -0.12872785 0.34704114
v -0.25735338 -0.12604205 0.37110419
v -0.26901528 -0.12738888 0.35889612
v -0.23995157 -0.12607563 0.37114249
v -0.25166541 -0.12745919 0.35904302
v -0.22239026 -0.12607563 0.37114249
v -0.23410095 -0.12745919 0.35904250
v -0.20482948 -0.12607615 0.37114040
v -0.21654017 -0.12745919 0.35904093
v -0.19313768 -0.12871368 0.29702203
v -0.19313348 -0.12888840 0.31458333
v -0.17557637 -0.12871368 0.29702360
v -0.17556902 -0.12888840 0.31458333
v -0.19313663 -0.12875723 0.33129730
v -0.19312876 -0.12877192 0.34708469
v -0.17557532 -0.12880130 0.33134190
v -0.17556797 -0.12872785 0.34704219
v -0.15801506 -0.12862606 0.29702517
v -0.15800771 -0.12871368 0.31458019
v -0.14045952 -0.12862606 0.29702937
v -0.14045480 -0.12853896 0.31458176
v -0.15801086 -0.12871368 0.33133507
v -0.15800719 -0.12877087 0.34708417
v -0.14045375 -0.12862606 0.33132720
v -0.14044588 -0.12868377 0.34707892
v -0.18727027 -0.12607615 0.37113935
v -0.19898200 -0.12741564 0.35899843
v -0.16971106 -0.12607615 0.37114144
v -0.18142174 -0.12741564 0.35899790
v -0.15215027 -0.12607563 0.37114249
v -0.16386306 -0.12745919 0.35904250
v -0.13459001 -0.12607563 0.37114249
v -0.14629965 -0.12745919 0.35903935
v -0.12289769 -0.12853844 0.29703094
v -0.12289926 -0.12836372 0.31458176
v -0.10533953 -0.12853896 0.29702937
v -0.10534687 -0.12836372 0.31458333
v -0.12289664 -0.12845134 0.33131986
v -0.12288719 -0.12859615 0.34707262
v -0.10534530 -0.12845134 0.33131986
v -0.10533323 -0.12859615 0.34707105
v -0.08778084 -0.12845134 0.29702780
v -0.08778504 -0.12836425 0.31458019
v -0.07022215 -0.12836372 0.29702675
v -0.07022530 -0.12836425 0.31457599
v -0.08778556 -0.12845134 0.33131986
v -0.08777349 -0.12859615 0.34707105
v -0.07022583 -0.12845134 0.33131986
v -0.07021323 -0.12859615 0.34707105
v -0.11703028 -0.12607563 0.37114249
v -0.12873939 -0.12745866 0.35903410
v -0.09947002 -0.12607563 0.37114249
v -0.11118123 -0.12745866 0.35903253
v -0.08191028 -0.12607563 0.37114249
v -0.09362097 -0.12745866 0.35903253
v -0.06435054 -0.12607563 0.37114249
v -0.07606123 -0.12745866 0.35903253
v -0.05266819 -0.12836372 0.29702937
v -0.05266661 -0.12836425 0.31457442
v -0.03513469 -0.12862081 0.29708079
v -0.03511737 -0.12853896 0.31458333
v -0.05266557 -0.12845134 0.33131986
v -0.05265350 -0.12859615 0.34707105
v -0.03511422 -0.12853896 0.33132720
v -0.03509743 -0.12859615 0.34707525
v -0.01625540 -0.12878241 0.29715949
v -0.01624071 -0.12871368 0.31458491
v 0.00136100 -0.12887266 0.29713745
v 0.00132900 -0.12888840 0.31458753
v -0.01624281 -0.12867013 0.33128838
v -0.01688501 -0.12873414 0.34701281
v 0.00132217 -0.12884485 0.33129415
v 0.00067840 -0.12877717 0.34706265
v -0.04679028 -0.12607563 0.37114249
v -0.05850097 -0.12745866 0.35903253
v -0.02923055 -0.12607563 0.37114249
v -0.04094124 -0.12745866 0.35903253
v -0.01167081 -0.12608192 0.37111993
v -0.02338570 -0.12746548 0.35901522
v -0.00517065 -0.12750221 0.35900000
f 2 6 5
f 2 3 6
f 1 5 4
f 1 2 5
f 5 9 8
f 5 6 9
f 4 8 7
f 4 5 8
f 8 12 11
f 8 9 12
f 7 11 10
f 7 8 11
f 11 15 14
f 11 12 15
f 10 14 13
f 10 11 14
f 14 18 17
f 14 15 18
f 13 17 16
f 13 14 17
f 17 21 20
f 17 18 21
f 16 20 19
f 16 17 20
f 20 24 23
f 20 21 24
f 19 23 22
f 19 20 23
f 23 27 26
f 23 24 27
f 22 26 25
f 22 23 26
f 26 30 29
f 26 27 30
f 25 29 28
f 25 26 29
f 29 33 32
f 29 30 33
f 28 32 31
f 28 29 32
f 32 36 35
f 32 33 36
f 31 35 34
f 31 32 35
f 35 39 38
f 35 36 39
f 34 38 37
f 34 35 38
f 38 42 41
f 38 39 42
f 37 41 40
f 37 38 41
f 41 45 44
f 41 42 45
f 40 44 43
f 40 41 44
f 44 48 47
f 44 45 48
f 43 47 46
f 43 44 47
f 47 51 50
f 47 48 51
f 46 50 49
f 46 47 50
f 50 54 53
f 50 51 54
f 49 53 52
f 49 50 53
f 53 57 56
f 53 54 57
f 52 56 55
f 52 53 56
f 56 60 59
f 56 57 60
f 55 59 58
f 55 56 59
f 3 62 6
f 3 61 62
f 61 64 62
f 61 63 64
f 6 65 9
f 6 62 65
f 9 66 12
f 9 65 66
f 62 67 65
f 62 64 67
f 65 68 66
f 65 67 68
f 63 70 64
f 63 69 70
f 69 72 70
f 69 71 72
f 64 73 67
f 64 70 73
f 67 74 68
f 67 73 74
f 70 75 73
f 70 72 75
f 73 76 74
f 73 75 76
f 71 78 72
f 71 77 78
f 77 80 78
f 77 79 80
f 72 81 75
f 72 78 81
f 75 82 76
f 75 81 82
f 78 83 81
f 78 80 83
f 81 84 82
f 81 83 84
f 79 86 80
f 79 85 86
f 85 88 86
f 85 87 88
f 80 89 83
f 80 86 89
f 83 90 84
f 83 89 90
f 86 91 89
f 86 88 91
f 89 92 90
f 89 91 92
f 87 94 88
f 87 93 94
f 93 96 94
f 93 95 96
f 88 97 91
f 88 94 97
f 91 98 92
f 91 97 98
f 94 99 97
f 94 96 99
f 97 100 98
f 97 99 100
f 95 102 96
f 95 101 102
f 101 104 102
f 101 103 104
f 96 105 99
f 96 102 105
f 99 106 100
f 99 105 106
f 102 107 105
f 102 104 107
f 105 108 106
f 105 107 108
f 103 110 104
f 103 109 110
f 109 112 110
f 109 111 112
f 104 113 107
f 104 110 113
f 107 114 108
f 107 113 114
f 110 115 113
f 110 112 115
f 113 116 114
f 113 115 116
f 111 118 112
f 111 117 118
f 117 120 118
f 117 119 120
f 112 121 115
f 112 118 121
f 115 122 116
f 115 121 122
f 118 123 121
f 118 120 123
f 121 124 122
f 121 123 124
f 12 125 15
f 12 66 125
f 15 126 18
f 15 125 126
f 66 127 125
f 66 68 127
f 125 128 126
f 125 127 128
f 18 129 21
f 18 126 129
f 21 130 24
f 21 129 130
f 126 131 129
f 126 128 131
f 129 132 130
f 129 131 132
f 68 133 127
f 68 74 133
f 127 134 128
f 127 133 134
f 74 135 133
f 74 76 135
f 133 136 134
f 133 135 136
f 128 137 131
f 128 134 137
f 131 138 132
f 131 137 138
f 134 139 137
f 134 136 139
f 137 140 138
f 137 139 140
f 24 141 27
f 24 130 141
f 27 142 30
f 27 141 142
f 130 143 141
f 130 132 143
f 141 144 142
f 141 143 144
f 30 145 33
f 30 142 145
f 33 146 36
f 33 145 146
f 142 147 145
f 142 144 147
f 145 148 146
f 145 147 148
f 132 149 143
f 132 138 149
f 143 150 144
f 143 149 150
f 138 151 149
f 138 140 151
f 149 152 150
f 149 151 152
f 144 153 147
f 144 150 153
f 147 154 148
f 147 153 154
f 150 155 153
f 150 152 155
f 153 156 154
f 153 155 156
f 76 157 135
f 76 82 157
f 135 158 136
f 135 157 158
f 82 159 157
f 82 84 159
f 157 160 158
f 157 159 160
f 136 161 139
f 136 158 161
f 139 162 140
f 139 161 162
f 158 163 161
f 158 160 163
f 161 164 162
f 161 163 164
f 84 165 159
f 84 90 165
f 159 166 160
f 159 165 166
f 90 167 165
f 90 92 167
f 165 168 166
f 165 167 168
f 160 169 163
f 160 166 169
f 163 170 164
f 163 169 170
f 166 171 169
f 166 168 171
f 169 172 170
f 169 171 172
f 140 173 151
f 140 162 173
f 151 174 152
f 151 173 174
f 162 175 173
f 162 164 175
f 173 176 174
f 173 175 176
f 152 177 155
f 152 174 177
f 155 178 156
f 155 177 178
f 174 179 177
f 174 176 179
f 177 180 178
f 177 179 180
f 164 181 175
f 164 170 181
f 175 182 176
f 175 181 182
f 170 183 181
f 170 172 183
f 181 184 182
f 181 183 184
f 176 185 179
f 176 182 185
f 179 186 180
f 179 185 186
f 182 187 185
f 182 184 187
f 185 188 186
f 185 187 188
f 36 189 39
f 36 146 189
f 39 190 42
f 39 189 190
f 146 191 189
f 146 148 191
f 189 192 190
f 189 191 192
f 42 193 45
f 42 190 193
f 45 194 48
f 45 193 194
f 190 195 193
f 190 192 195
f 193 196 194
f 193 195 196
f 148 197 191
f 148 154 197
f 191 198 192
f 191 197 198
f 154 199 197
f 154 156 199
f 197 200 198
f 197 199 200
f 192 201 195
f 192 198 201
f 195 202 196
f 195 201 202
f 198 203 201
f 198 200 203
f 201 204 202
f 201 203 204
f 48 205 51
f 48 194 205
f 51 206 54
f 51 205 206
f 194 207 205
f 194 196 207
f 205 208 206
f 205 207 208
f 54 209 57
f 54 206 209
f 57 210 60
f 57 209 210
f 206 211 209
f 206 208 211
f 209 212 210
f 209 211 212
f 196 213 207
f 196 202 213
f 207 214 208
f 207 213 214
f 202 215 213
f 202 204 215
f 213 216 214
f 213 215 216
f 208 217 211
f 208 214 217
f 211 218 212
f 211 217 218
f 214 219 217
f 214 216 219
f 217 220 218
f 217 219 220
f 156 221 199
f 156 178 221
f 199 222 200
f 199 221 222
f 178 223 221
f 178 180 223
f 221 224 222
f 221 223 224
f 200 225 203
f 200 222 225
f 203 226 204
f 203 225 226
f 222 227 225
f 222 224 227
f 225 228 226
f 225 227 228
f 180 229 223
f 180 186 229
f 223 230 224
f 223 229 230
f 186 231 229
f 186 188 231
f 229 232 230
f 229 231 232
f 224 233 227
f 224 230 233
f 227 234 228
f 227 233 234
f 230 235 233
f 230 232 235
f 233 236 234
f 233 235 236
f 204 237 215
f 204 226 237
f 215 238 216
f 215 237 238
f 226 239 237
f 226 228 239
f 237 240 238
f 237 239 240
f 216 241 219
f 216 238 241
f 219 242 220
f 219 241 242
f 238 243 241
f 238 240 243
f 241 244 242
f 241 243 244
f 228 245 239
f 228 234 245
f 239 246 240
f 239 245 246
f 234 247 245
f 234 236 247
f 245 248 246
f 245 247 248
f 240 249 243
f 240 246 249
f 243 250 244
f 243 249 250
f 246 251 249
f 246 248 251
f 249 252 250
f 249 251 252
f 92 253 167
f 92 98 253
f 167 254 168
f 167 253 254
f 98 255 253
f 98 100 255
f 253 256 254
f 253 255 256
f 168 257 171
f 168 254 257
f 171 258 172
f 171 257 258
f 254 259 257
f 254 256 259
f 257 260 258
f 257 259 260
f 100 261 255
f 100 106 261
f 255 262 256
f 255 261 262
f 106 263 261
f 106 108 263
f 261 264 262
f 261 263 264
f 256 265 259
f 256 262 265
f 259 266 260
f 259 265 266
f 262 267 265
f 262 264 267
f 265 268 266
f 265 267 268
f 172 269 183
f 172 258 269
f 183 270 184
f 183 269 270
f 258 271 269
f 258 260 271
f 269 272 270
f 269 271 272
f 184 273 187
f 184 270 273
f 187 274 188
f 187 273 274
f 270 275 273
f 270 272 275
f 273 276 274
f 273 275 276
f 260 277 271
f 260 266 277
f 271 278 272
f 271 277 278
f 266 279 277
f 266 268 279
f 277 280 278
f 277 279 280
f 272 281 275
f 272 278 281
f 275 282 276
f 275 281 282
f 278 283 281
f 278 280 283
f 281 284 282
f 281 283 284
f 108 285 263
f 108 114 285
f 263 286 264
f 263 285 286
f 114 287 285
f 114 116 287
f 285 288 286
f 285 287 288
f 264 289 267
f 264 286 289
f 267 290 268
f 267 289 290
f 286 291 289
f 286 288 291
f 289 292 290
f 289 291 292
f 116 293 287
f 116 122 293
f 287 294 288
f 287 293 294
f 122 295 293
f 122 124 295
f 293 296 294
f 293 295 296
f 294 298 297
f 294 296 298
f 297 300 299
f 297 298 300
f 268 301 279
f 268 290 301
f 279 302 280
f 279 301 302
f 290 303 301
f 290 292 303
f 301 304 302
f 301 303 304
f 280 305 283
f 280 302 305
f 283 306 284
f 283 305 306
f 302 307 305
f 302 304 307
f 305 308 306
f 305 307 308
f 299 310 309
f 299 300 310
f 309 312 311
f 309 310 312
f 311 314 313
f 311 312 314
f 313 316 315
f 313 314 316
f 188 317 231
f 188 274 317
f 231 318 232
f 231 317 318
f 274 319 317
f 274 276 319
f 317 320 318
f 317 319 320
f 232 321 235
f 232 318 321
f 235 322 236
f 235 321 322
f 318 323 321
f 318 320 323
f 321 324 322
f 321 323 324
f 276 325 319
f 276 282 325
f 319 326 320
f 319 325 326
f 282 327 325
f 282 284 327
f 325 328 326
f 325 327 328
f 320 329 323
f 320 326 329
f 323 330 324
f 323 329 330
f 326 331 329
f 326 328 331
f 329 332 330
f 329 331 332
f 236 333 247
f 236 322 333
f 247 334 248
f 247 333 334
f 322 335 333
f 322 324 335
f 333 336 334
f 333 335 336
f 248 337 251
f 248 334 337
f 251 338 252
f 251 337 338
f 334 339 337
f 334 336 339
f 337 340 338
f 337 339 340
f 324 341 335
f 324 330 341
f 335 342 336
f 335 341 342
f 330 343 341
f 330 332 343
f 341 344 342
f 341 343 344
f 336 345 339
f 336 342 345
f 339 346 340
f 339 345 346
f 342 347 345
f 342 344 347
f 345 348 346
f 345 347 348
f 284 349 327
f 284 306 349
f 327 350 328
f 327 349 350
f 306 351 349
f 306 308 351
f 349 352 350
f 349 351 352
f 328 353 331
f 328 350 353
f 331 354 332
f 331 353 354
f 350 355 353
f 350 352 355
f 353 356 354
f 353 355 356
f 315 358 357
f 315 316 358
f 357 360 359
f 357 358 360
f 359 362 361
f 359 360 362
f 361 364 363
f 361 362 364
f 332 365 343
f 332 354 365
f 343 366 344
f 343 365 366
f 354 367 365
f 354 356 367
f 365 368 366
f 365 367 368
f 344 369 347
f 344 366 369
f 347 370 348
f 347 369 370
f 366 371 369
f 366 368 371
f 369 372 370
f 369 371 372
f 363 374 373
f 363 364 374
f 373 376 375
f 373 374 376
f 375 378 377
f 375 376 378
f 377 380 379
f 377 378 380
f 59 383 382
f 59 60 383
f 58 382 381
f 58 59 382
f 382 386 385
f 382 383 386
f 381 385 384
f 381 382 385
f 385 389 388
f 385 386 389
f 384 388 387
f 384 385 388
f 388 392 391
f 388 389 392
f 387 391 390
f 387 388 391
f 391 395 394
f 391 392 395
f 390 394 393
f 390 391 394
f 394 398 397
f 394 395 398
f 393 397 396
f 393 394 397
f 397 401 400
f 397 398 401
f 396 400 399
f 396 397 400
f 400 404 403
f 400 401 404
f 399 403 402
f 399 400 403
f 403 407 406
f 403 404 407
f 402 406 405
f 402 403 406
f 406 410 409
f 406 407 410
f 405 409 408
f 405 406 409
f 409 413 412
f 409 410 413
f 408 412 411
f 408 409 412
f 412 416 415
f 412 413 416
f 411 415 414
f 411 412 415
f 415 419 418
f 415 416 419
f 414 418 417
f 414 415 418
f 418 422 421
f 418 419 422
f 417 421 420
f 417 418 421
f 421 425 424
f 421 422 425
f 420 424 423
f 420 421 424
f 424 428 427
f 424 425 428
f 423 427 426
f 423 424 427
f 427 431 430
f 427 428 431
f 426 430 429
f 426 427 430
f 430 434 433
f 430 431 434
f 429 433 432
f 429 430 433
f 433 437 436
f 433 434 437
f 432 436 435
f 432 433 436
f 436 440 439
f 436 437 440
f 435 439 438
f 435 436 439
f 439 442 441
f 439 440 442
f 438 439 441
f 60 444 383
f 60 210 444
f 383 445 386
f 383 444 445
f 210 446 444
f 210 212 446
f 444 447 445
f 444 446 447
f 386 448 389
f 386 445 448
f 389 449 392
f 389 448 449
f 445 450 448
f 445 447 450
f 448 451 449
f 448 450 451
f 212 452 446
f 212 218 452
f 446 453 447
f 446 452 453
f 218 454 452
f 218 220 454
f 452 455 453
f 452 454 455
f 447 456 450
f 447 453 456
f 450 457 451
f 450 456 457
f 453 458 456
f 453 455 458
f 456 459 457
f 456 458 459
f 392 460 395
f 392 449 460
f 395 461 398
f 395 460 461
f 449 462 460
f 449 451 462
f 460 463 461
f 460 462 463
f 398 464 401
f 398 461 464
f 401 465 404
f 401 464 465
f 461 466 464
f 461 463 466
f 464 467 465
f 464 466 467
f 451 468 462
f 451 457 468
f 462 469 463
f 462 468 469
f 457 470 468
f 457 459 470
f 468 471 469
f 468 470 471
f 463 472 466
f 463 469 472
f 466 473 467
f 466 472 473
f 469 474 472
f 469 471 474
f 472 475 473
f 472 474 475
f 220 476 454
f 220 242 476
f 454 477 455
f 454 476 477
f 242 478 476
f 242 244 478
f 476 479 477
f 476 478 479
f 455 480 458
f 455 477 480
f 458 481 459
f 458 480 481
f 477 482 480
f 477 479 482
f 480 483 481
f 480 482 483
f 244 484 478
f 244 250 484
f 478 485 479
f 478 484 485
f 250 486 484
f 250 252 486
f 484 487 485
f 484 486 487
f 479 488 482
f 479 485 488
f 482 489 483
f 482 488 489
f 485 490 488
f 485 487 490
f 488 491 489
f 488 490 491
f 459 492 470
f 459 481 492
f 470 493 471
f 470 492 493
f 481 494 492
f 481 483 494
f 492 495 493
f 492 494 495
f 471 496 474
f 471 493 496
f 474 497 475
f 474 496 497
f 493 498 496
f 493 495 498
f 496 499 497
f 496 498 499
f 483 500 494
f 483 489 500
f 494 501 495
f 494 500 501
f 489 502 500
f 489 491 502
f 500 503 501
f 500 502 503
f 495 504 498
f 495 501 504
f 498 505 499
f 498 504 505
f 501 506 504
f 501 503 506
f 504 507 505
f 504 506 507
f 404 508 407
f 404 465 508
f 407 509 410
f 407 508 509
f 465 510 508
f 465 467 510
f 508 511 509
f 508 510 511
f 410 512 413
f 410 509 512
f 413 513 416
f 413 512 513
f 509 514 512
f 509 511 514
f 512 515 513
f 512 514 515
f 467 516 510
f 467 473 516
f 510 517 511
f 510 516 517
f 473 518 516
f 473 475 518
f 516 519 517
f 516 518 519
f 511 520 514
f 511 517 520
f 514 521 515
f 514 520 521
f 517 522 520
f 517 519 522
f 520 523 521
f 520 522 523
f 416 524 419
f 416 513 524
f 419 525 422
f 419 524 525
f 513 526 524
f 513 515 526
f 524 527 525
f 524 526 527
f 422 528 425
f 422 525 528
f 425 529 428
f 425 528 529
f 525 530 528
f 525 527 530
f 528 531 529
f 528 530 531
f 515 532 526
f 515 521 532
f 526 533 527
f 526 532 533
f 521 534 532
f 521 523 534
f 532 535 533
f 532 534 535
f 527 536 530
f 527 533 536
f 530 537 531
f 530 536 537
f 533 538 536
f 533 535 538
f 536 539 537
f 536 538 539
f 475 540 518
f 475 497 540
f 518 541 519
f 518 540 541
f 497 542 540
f 497 499 542
f 540 543 541
f 540 542 543
f 519 544 522
f 519 541 544
f 522 545 523
f 522 544 545
f 541 546 544
f 541 543 546
f 544 547 545
f 544 546 547
f 499 548 542
f 499 505 548
f 542 549 543
f 542 548 549
f 505 550 548
f 505 507 550
f 548 551 549
f 548 550 551
f 543 552 546
f 543 549 552
f 546 553 547
f 546 552 553
f 549 554 552
f 549 551 554
f 552 555 553
f 552 554 555
f 523 556 534
f 523 545 556
f 534 557 535
f 534 556 557
f 545 558 556
f 545 547 558
f 556 559 557
f 556 558 559
f 535 560 538
f 535 557 560
f 538 561 539
f 538 560 561
f 557 562 560
f 557 559 562
f 560 563 561
f 560 562 563
f 547 564 558
f 547 553 564
f 558 565 559
f 558 564 565
f 553 566 564
f 553 555 566
f 564 567 565
f 564 566 567
f 559 568 562
f 559 565 568
f 562 569 563
f 562 568 569
f 565 570 568
f 565 567 570
f 568 571 569
f 568 570 571
f 252 572 486
f 252 338 572
f 486 573 487
f 486 572 573
f 338 574 572
f 338 340 574
f 572 575 573
f 572 574 575
f 487 576 490
f 487 573 576
f 490 577 491
f 490 576 577
f 573 578 576
f 573 575 578
f 576 579 577
f 576 578 579
f 340 580 574
f 340 346 580
f 574 581 575
f 574 580 581
f 346 582 580
f 346 348 582
f 580 583 581
f 580 582 583
f 575 584 578
f 575 581 584
f 578 585 579
f 578 584 585
f 581 586 584
f 581 583 586
f 584 587 585
f 584 586 587
f 491 588 502
f 491 577 588
f 502 589 503
f 502 588 589
f 577 590 588
f 577 579 590
f 588 591 589
f 588 590 591
f 503 592 506
f 503 589 592
f 506 593 507
f 506 592 593
f 589 594 592
f 589 591 594
f 592 595 593
f 592 594 595
f 579 596 590
f 579 585 596
f 590 597 591
f 590 596 597
f 585 598 596
f 585 587 598
f 596 599 597
f 596 598 599
f 591 600 594
f 591 597 600
f 594 601 595
f 594 600 601
f 597 602 600
f 597 599 602
f 600 603 601
f 600 602 603
f 348 604 582
f 348 370 604
f 582 605 583
f 582 604 605
f 370 606 604
f 370 372 606
f 604 607 605
f 604 606 607
f 583 608 586
f 583 605 608
f 586 609 587
f 586 608 609
f 605 610 608
f 605 607 610
f 608 611 609
f 608 610 611
f 379 613 612
f 379 380 613
f 612 615 614
f 612 613 615
f 614 617 616
f 614 615 617
f 616 619 618
f 616 617 619
f 587 620 598
f 587 609 620
f 598 621 599
f 598 620 621
f 609 622 620
f 609 611 622
f 620 623 621
f 620 622 623
f 599 624 602
f 599 621 624
f 602 625 603
f 602 624 625
f 621 626 624
f 621 623 626
f 624 627 625
f 624 626 627
f 618 629 628
f 618 619 629
f 628 631 630
f 628 629 631
f 630 633 632
f 630 631 633
f 632 635 634
f 632 633 635
f 507 636 550
f 507 593 636
f 550 637 551
f 550 636 637
f 593 638 636
f 593 595 638
f 636 639 637
f 636 638 639
f 551 640 554
f 551 637 640
f 554 641 555
f 554 640 641
f 637 642 640
f 637 639 642
f 640 643 641
f 640 642 643
f 595 644 638
f 595 601 644
f 638 645 639
f 638 644 645
f 601 646 644
f 601 603 646
f 644 647 645
f 644 646 647
f 639 648 642
f 639 645 648
f 642 649 643
f 642 648 649
f 645 650 648
f 645 647 650
f 648 651 649
f 648 650 651
f 555 652 566
f 555 641 652
f 566 653 567
f 566 652 653
f 641 654 652
f 641 643 654
f 652 655 653
f 652 654 655
f 567 656 570
f 567 653 656
f 570 657 571
f 570 656 657
f 653 658 656
f 653 655 658
f 656 659 657
f 656 658 659
f 643 660 654
f 643 649 660
f 654 661 655
f 654 660 661
f 649 662 660
f 649 651 662
f 660 663 661
f 660 662 663
f 655 664 658
f 655 661 664
f 658 665 659
f 658 664 665
f 661 666 664
f 661 663 666
f 664 667 665
f 664 666 667
f 603 668 646
f 603 625 668
f 646 669 647
f 646 668 669
f 625 670 668
f 625 627 670
f 668 671 669
f 668 670 671
f 647 672 650
f 647 669 672
f 650 673 651
f 650 672 673
f 669 674 672
f 669 671 674
f 672 675 673
f 672 674 675
f 634 677 676
f 634 635 677
f 676 679 678
f 676 677 679
f 678 681 680
f 678 679 681
f 680 683 682
f 680 681 683
f 651 684 662
f 651 673 684
f 662 685 663
f 662 684 685
f 673 686 684
f 673 675 686
f 684 687 685
f 684 686 687
f 663 688 666
f 663 685 688
f 666 689 667
f 666 688 689
f 685 690 688
f 685 687 690
f 688 691 689
f 688 690 691
f 682 693 692
f 682 683 693
f 692 695 694
f 692 693 695
f 694 698 697
f 694 695 698
f 697 699 696
f 697 698 699
f 428 700 431
f 428 529 700
f 431 701 434
f 431 700 701
f 529 702 700
f 529 531 702
f 700 703 701
f 700 702 703
f 434 704 437
f 434 701 704
f 437 705 440
f 437 704 705
f 701 706 704
f 701 703 706
f 704 707 705
f 704 706 707
f 531 708 702
f 531 537 708
f 702 709 703
f 702 708 709
f 537 710 708
f 537 539 710
f 708 711 709
f 708 710 711
f 703 712 706
f 703 709 712
f 706 713 707
f 706 712 713
f 709 714 712
f 709 711 714
f 712 715 713
f 712 714 715
f 443 717 716
f 443 442 717
f 440 717 442
f 440 705 717
f 716 719 718
f 716 717 719
f 705 719 717
f 705 707 719
f 718 721 720
f 718 719 721
f 707 721 719
f 707 713 721
f 720 723 722
f 720 721 723
f 713 723 721
f 713 715 723
f 539 724 710
f 539 561 724
f 710 725 711
f 710 724 725
f 561 726 724
f 561 563 726
f 724 727 725
f 724 726 727
f 711 728 714
f 711 725 728
f 714 729 715
f 714 728 729
f 725 730 728
f 725 727 730
f 728 731 729
f 728 730 731
f 563 732 726
f 563 569 732
f 726 733 727
f 726 732 733
f 569 734 732
f 569 571 734
f 732 735 733
f 732 734 735
f 727 736 730
f 727 733 736
f 730 737 731
f 730 736 737
f 733 738 736
f 733 735 738
f 736 739 737
f 736 738 739
f 722 741 740
f 722 723 741
f 715 741 723
f 715 729 741
f 740 743 742
f 740 741 743
f 729 743 741
f 729 731 743
f 742 745 744
f 742 743 745
f 731 745 743
f 731 737 745
f 744 747 746
f 744 745 747
f 737 747 745
f 737 739 747
f 571 748 734
f 571 657 748
f 734 749 735
f 734 748 749
f 657 750 748
f 657 659 750
f 748 751 749
f 748 750 751
f 735 752 738
f 735 749 752
f 738 753 739
f 738 752 753
f 749 754 752
f 749 751 754
f 752 755 753
f 752 754 755
f 659 756 750
f 659 665 756
f 750 757 751
f 750 756 757
f 665 758 756
f 665 667 758
f 756 759 757
f 756 758 759
f 751 760 754
f 751 757 760
f 754 761 755
f 754 760 761
f 757 762 760
f 757 759 762
f 760 763 761
f 760 762 763
f 746 765 764
f 746 747 765
f 739 765 747
f 739 753 765
f 764 767 766
f 764 765 767
f 753 767 765
f 753 755 767
f 766 769 768
f 766 767 769
f 755 769 767
f 755 761 769
f 768 771 770
f 768 769 771
f 761 771 769
f 761 763 771
f 667 772 758
f 667 689 772
f 758 773 759
f 758 772 773
f 689 774 772
f 689 691 774
f 772 775 773
f 772 774 775
f 759 776 762
f 759 773 776
f 762 777 763
f 762 776 777
f 773 778 776
f 773 775 778
f 776 779 777
f 776 778 779
f 691 780 774
f 691 696 780
f 774 781 775
f 774 780 781
f 696 782 780
f 696 699 782
f 780 783 781
f 780 782 783
f 775 784 778
f 775 781 784
f 778 785 779
f 778 784 785
f 781 786 784
f 781 783 786
f 784 787 785
f 784 786 787
f 770 789 788
f 770 771 789
f 763 789 771
f 763 777 789
f 788 791 790
f 788 789 791
f 777 791 789
f 777 779 791
f 790 793 792
f 790 791 793
f 779 793 791
f 779 785 793
f 792 793 794
f 785 794 793
f 785 787 794

