# https://github.com/mikedh/trimesh

o 3.obj
v -0.03303023 -0.14370200 -0.24382811
v -0.03693484 -0.14521043 -0.22821964
v -0.03708909 -0.14528126 -0.21229793
v -0.01604186 -0.13999466 -0.24295663
v -0.01090741 -0.14538672 -0.22230710
v -0.01083186 -0.14537045 -0.20643471
v -0.03709801 -0.14680334 -0.19465634
v -0.03709906 -0.14679546 -0.17707667
v -0.03709486 -0.14679704 -0.15951693
v -0.03709381 -0.14679756 -0.14195510
v -0.01084760 -0.14690617 -0.18879995
v -0.01084813 -0.14690670 -0.17122342
v -0.01084813 -0.14690670 -0.15366316
v -0.01084813 -0.14690670 -0.13610343
v -0.02324613 -0.15134333 -0.23565372
v -0.02169363 -0.15394937 -0.23083775
v -0.02348486 -0.15518970 -0.23381737
v -0.02511135 -0.15400446 -0.22664877
v -0.02171199 -0.15555172 -0.21811707
v -0.02535584 -0.15550713 -0.21227694
v -0.02173770 -0.15709478 -0.20050119
v -0.02534063 -0.15703235 -0.19466054
v -0.02173560 -0.15709583 -0.18292047
v -0.02534325 -0.15702500 -0.17707457
v -0.02173560 -0.15709583 -0.16536021
v -0.02534325 -0.15702500 -0.15951431
v -0.02173560 -0.15709583 -0.14780047
v -0.02534325 -0.15702500 -0.14195458
v -0.03709381 -0.14679756 -0.12439536
v -0.03709381 -0.14679756 -0.10683510
v -0.03709381 -0.14679756 -0.08927537
v -0.03709381 -0.14679756 -0.07171563
v -0.01084813 -0.14690670 -0.11854317
v -0.01084813 -0.14690670 -0.10098343
v -0.01084813 -0.14690670 -0.08342317
v -0.01084813 -0.14690670 -0.06586344
v -0.03709381 -0.14679756 -0.05415537
v -0.03709381 -0.14679756 -0.03659564
v -0.03709381 -0.14679756 -0.01903538
v -0.03709381 -0.14679756 -0.00147564
v -0.01084813 -0.14690670 -0.04830318
v -0.01084813 -0.14690670 -0.03074344
v -0.01084813 -0.14690670 -0.01318318
v -0.01084813 -0.14690670 0.00437655
v -0.02173560 -0.15709583 -0.13024074
v -0.02534325 -0.15702500 -0.12439431
v -0.02173560 -0.15709583 -0.11268048
v -0.02534325 -0.15702500 -0.10683458
v -0.02173560 -0.15709583 -0.09512074
v -0.02534325 -0.15702500 -0.08927432
v -0.02173560 -0.15709583 -0.07756048
v -0.02534325 -0.15702500 -0.07171458
v -0.02173560 -0.15709583 -0.06000075
v -0.02534325 -0.15702500 -0.05415485
v -0.02173560 -0.15709583 -0.04244049
v -0.02534325 -0.15702500 -0.03659459
v -0.02173560 -0.15709583 -0.02488075
v -0.02534325 -0.15702500 -0.01903485
v -0.02173560 -0.15709583 -0.00732049
v -0.02534325 -0.15702500 -0.00147459
v -0.03709381 -0.14679756 0.01608462
v -0.03709381 -0.14679756 0.03364435
v -0.03709381 -0.14679756 0.05120462
v -0.03709381 -0.14679756 0.06876435
v -0.01084813 -0.14690670 0.02193629
v -0.01084813 -0.14690670 0.03949655
v -0.01084813 -0.14690670 0.05705629
v -0.01084813 -0.14690670 0.07461655
v -0.03709381 -0.14679756 0.08632409
v -0.03709381 -0.14679756 0.10388435
v -0.03709381 -0.14679756 0.12144408
v -0.03709381 -0.14679756 0.13900434
v -0.01084813 -0.14690670 0.09217628
v -0.01084813 -0.14690670 0.10973654
v -0.01084813 -0.14690670 0.12729628
v -0.01084813 -0.14690670 0.14485654
v -0.02173560 -0.15709583 0.01023924
v -0.02534325 -0.15702500 0.01608514
v -0.02173560 -0.15709583 0.02779898
v -0.02534325 -0.15702500 0.03364540
v -0.02173560 -0.15709583 0.04535924
v -0.02534325 -0.15702500 0.05120514
v -0.02173560 -0.15709583 0.06291898
v -0.02534325 -0.15702500 0.06876540
v -0.02173560 -0.15709583 0.08047924
v -0.02534325 -0.15702500 0.08632514
v -0.02173560 -0.15709583 0.09803897
v -0.02534325 -0.15702500 0.10388487
v -0.02173560 -0.15709583 0.11559923
v -0.02534325 -0.15702500 0.12144513
v -0.02173560 -0.15709583 0.13315897
v -0.02534325 -0.15702500 0.13900487
v -0.03709381 -0.14679756 0.15656408
v -0.03709381 -0.14679756 0.17412434
v -0.03709381 -0.14679756 0.19168407
v -0.03709224 -0.14679966 0.20925378
v -0.01084813 -0.14690670 0.16241627
v -0.01084813 -0.14690670 0.17997601
v -0.01084813 -0.14690670 0.19753627
v -0.01083973 -0.14691981 0.21512066
v -0.03711480 -0.14524768 0.22786653
v -0.03694323 -0.14528179 0.24301330
v -0.03182768 -0.13993327 0.26134220
v -0.03404809 -0.13109622 0.27890666
v -0.01077047 -0.14534947 0.23373709
v -0.01104330 -0.14527916 0.24899981
v -0.01537815 -0.13361517 0.27819363
v -0.01241847 -0.13866881 0.26476989
v -0.02173560 -0.15709583 0.15071870
v -0.02534325 -0.15702500 0.15656513
v -0.02173560 -0.15709583 0.16827896
v -0.02534325 -0.15702500 0.17412486
v -0.02173560 -0.15709583 0.18583870
v -0.02534325 -0.15702500 0.19168512
v -0.02173560 -0.15709583 0.20339896
v -0.02534325 -0.15702500 0.20924486
v -0.02173928 -0.15710685 0.22096289
v -0.02534692 -0.15701871 0.22680774
v -0.02180486 -0.15549139 0.23898014
v -0.02545343 -0.15538120 0.24412613
v -0.02354782 -0.15121321 0.25214155
v -0.02633278 -0.15117858 0.25280893
f 4 16 15
f 4 5 16
f 17 16 18
f 17 15 16
f 1 18 2
f 1 17 18
f 1 15 17
f 1 4 15
f 5 19 16
f 5 6 19
f 18 19 20
f 18 16 19
f 2 20 3
f 2 18 20
f 6 21 19
f 6 11 21
f 20 21 22
f 20 19 21
f 3 22 7
f 3 20 22
f 11 23 21
f 11 12 23
f 22 23 24
f 22 21 23
f 7 24 8
f 7 22 24
f 12 25 23
f 12 13 25
f 24 25 26
f 24 23 25
f 8 26 9
f 8 24 26
f 13 27 25
f 13 14 27
f 26 27 28
f 26 25 27
f 9 28 10
f 9 26 28
f 14 45 27
f 14 33 45
f 28 45 46
f 28 27 45
f 10 46 29
f 10 28 46
f 33 47 45
f 33 34 47
f 46 47 48
f 46 45 47
f 29 48 30
f 29 46 48
f 34 49 47
f 34 35 49
f 48 49 50
f 48 47 49
f 30 50 31
f 30 48 50
f 35 51 49
f 35 36 51
f 50 51 52
f 50 49 51
f 31 52 32
f 31 50 52
f 36 53 51
f 36 41 53
f 52 53 54
f 52 51 53
f 32 54 37
f 32 52 54
f 41 55 53
f 41 42 55
f 54 55 56
f 54 53 55
f 37 56 38
f 37 54 56
f 42 57 55
f 42 43 57
f 56 57 58
f 56 55 57
f 38 58 39
f 38 56 58
f 43 59 57
f 43 44 59
f 58 59 60
f 58 57 59
f 39 60 40
f 39 58 60
f 44 77 59
f 44 65 77
f 60 77 78
f 60 59 77
f 40 78 61
f 40 60 78
f 65 79 77
f 65 66 79
f 78 79 80
f 78 77 79
f 61 80 62
f 61 78 80
f 66 81 79
f 66 67 81
f 80 81 82
f 80 79 81
f 62 82 63
f 62 80 82
f 67 83 81
f 67 68 83
f 82 83 84
f 82 81 83
f 63 84 64
f 63 82 84
f 68 85 83
f 68 73 85
f 84 85 86
f 84 83 85
f 64 86 69
f 64 84 86
f 73 87 85
f 73 74 87
f 86 87 88
f 86 85 87
f 69 88 70
f 69 86 88
f 74 89 87
f 74 75 89
f 88 89 90
f 88 87 89
f 70 90 71
f 70 88 90
f 75 91 89
f 75 76 91
f 90 91 92
f 90 89 91
f 71 92 72
f 71 90 92
f 103 107 104
f 103 108 107
f 76 109 91
f 76 97 109
f 92 109 110
f 92 91 109
f 72 110 93
f 72 92 110
f 97 111 109
f 97 98 111
f 110 111 112
f 110 109 111
f 93 112 94
f 93 110 112
f 98 113 111
f 98 99 113
f 112 113 114
f 112 111 113
f 94 114 95
f 94 112 114
f 99 115 113
f 99 100 115
f 114 115 116
f 114 113 115
f 95 116 96
f 95 114 116
f 100 117 115
f 100 105 117
f 116 117 118
f 116 115 117
f 96 118 101
f 96 116 118
f 105 119 117
f 105 106 119
f 118 119 120
f 118 117 119
f 101 120 102
f 101 118 120
f 106 121 119
f 106 108 121
f 103 121 108
f 103 122 121
f 120 121 122
f 120 119 121
f 102 122 103
f 102 120 122

