# https://github.com/mikedh/trimesh

o 1.obj
v 0.00002466 -0.12847758 -0.33048038
v 0.00068155 -0.12878399 -0.31787303
v 0.00067945 -0.12884485 -0.30048801
v 0.00129332 -0.12887790 -0.28255104
v 0.00146751 -0.13122634 -0.26345558
v 0.00138041 -0.13601555 -0.24423683
v 0.00110391 -0.13989602 -0.22829571
v 0.00117107 -0.14289243 -0.21231367
v 0.00112752 -0.14441345 -0.19466998
v 0.00114326 -0.14441660 -0.17706827
v 0.00114326 -0.14441660 -0.15950801
v 0.00114326 -0.14441660 -0.14194828
v 0.00114326 -0.14441660 -0.12438802
v 0.00114326 -0.14441660 -0.10682828
v 0.00114326 -0.14441660 -0.08926855
v 0.00114326 -0.14441660 -0.07170829
v 0.00114326 -0.14441660 -0.05414855
v 0.00114326 -0.14441660 -0.03658829
v 0.00114326 -0.14441660 -0.01902856
v 0.00114326 -0.14441660 -0.00146830
v 0.00114326 -0.14441660 0.01609144
v 0.00114326 -0.14441660 0.03365170
v 0.00114326 -0.14441660 0.05121144
v 0.00114326 -0.14441660 0.06877117
v 0.00114326 -0.14441660 0.08633143
v 0.00114326 -0.14441660 0.10389117
v 0.00114326 -0.14441660 0.12145143
v 0.00114326 -0.14441660 0.13901116
v 0.00114326 -0.14441660 0.15657142
v 0.00114326 -0.14441660 0.17413116
v 0.00114326 -0.14441660 0.19169089
v 0.00115953 -0.14442290 0.20927267
v 0.00118261 -0.14292548 0.22782561
v 0.00141137 -0.13994744 0.24575786
v 0.00117946 -0.13600873 0.26167852
v 0.00106718 -0.13120168 0.27896280
v 0.00136100 -0.12887266 0.29713745
v 0.00132900 -0.12888840 0.31458753
v 0.00132217 -0.12884485 0.33129415
v 0.00067840 -0.12877717 0.34706265
v -0.01167081 -0.12608192 0.37111993
v 0.00588997 -0.12608192 0.37112203
v -0.00517065 -0.12750221 0.35900000
v 0.00003305 -0.12609137 0.38093760
v 0.01758125 -0.12843823 -0.33043054
v 0.01758912 -0.12882806 -0.31791658
v 0.03513993 -0.12848230 -0.33047304
v 0.03514675 -0.12878399 -0.31787041
v 0.01824548 -0.12875723 -0.30048749
v 0.01892283 -0.12870109 -0.28257202
v 0.03514780 -0.12862606 -0.30043817
v 0.03516932 -0.12862186 -0.28249542
v 0.05270177 -0.12847810 -0.33047619
v 0.05270544 -0.12878399 -0.31786936
v 0.07026150 -0.12847810 -0.33047671
v 0.07026518 -0.12878399 -0.31786936
v 0.05270124 -0.12862606 -0.30043607
v 0.05270177 -0.12853896 -0.28245292
v 0.07026098 -0.12862606 -0.30043607
v 0.07025888 -0.12853896 -0.28245135
v 0.08782176 -0.12843403 -0.33043316
v 0.08782544 -0.12878399 -0.31786988
v 0.10537993 -0.12843823 -0.33042949
v 0.10538517 -0.12878399 -0.31786988
v 0.08782124 -0.12862606 -0.30043607
v 0.08781862 -0.12853896 -0.28245135
v 0.10538097 -0.12862606 -0.30043607
v 0.10537888 -0.12853896 -0.28245135
v 0.12293966 -0.12848230 -0.33047304
v 0.12294491 -0.12878399 -0.31786936
v 0.14050149 -0.12847810 -0.33047619
v 0.14050517 -0.12878399 -0.31786936
v 0.12294123 -0.12862606 -0.30043607
v 0.12293861 -0.12862606 -0.28245135
v 0.14050097 -0.12871368 -0.30043607
v 0.14049992 -0.12880130 -0.28244977
v 0.15806176 -0.12847810 -0.33047619
v 0.15806490 -0.12878399 -0.31786936
v 0.17562149 -0.12847810 -0.33047619
v 0.17562516 -0.12878399 -0.31786988
v 0.15806385 -0.12880078 -0.30043764
v 0.15806595 -0.12880078 -0.28244820
v 0.17562674 -0.12880078 -0.30043922
v 0.17562726 -0.12888840 -0.28244663
v 0.19318175 -0.12847810 -0.33047671
v 0.19318490 -0.12878399 -0.31786988
v 0.21074149 -0.12847810 -0.33047619
v 0.21074516 -0.12878399 -0.31786936
v 0.19318700 -0.12880078 -0.30043922
v 0.19319015 -0.12880078 -0.28244820
v 0.21074673 -0.12880078 -0.30043922
v 0.21074726 -0.12871368 -0.28244663
v 0.22830437 -0.12839730 -0.33047409
v 0.22830647 -0.12878399 -0.31787251
v 0.24585991 -0.12842668 -0.33045363
v 0.24586516 -0.12869689 -0.31787460
v 0.22830647 -0.12880078 -0.30043922
v 0.22830437 -0.12871368 -0.28244558
v 0.24586830 -0.12880078 -0.30044236
v 0.24586411 -0.12871368 -0.28244558
v 0.26331891 -0.12849069 -0.33039434
v 0.26342174 -0.12860980 -0.31787565
v 0.28068032 -0.12855890 -0.33295789
v 0.28085293 -0.12859668 -0.31796275
v 0.26342646 -0.12880130 -0.30044709
v 0.26342279 -0.12880078 -0.28244558
v 0.28082303 -0.12865229 -0.30044341
v 0.28075954 -0.12878399 -0.28244453
v 0.01794380 -0.13354906 -0.26175512
v 0.01700673 -0.14384890 -0.24389317
v 0.03406068 -0.13100912 -0.26336167
v 0.03298668 -0.13984146 -0.24296503
v 0.01333402 -0.14527969 -0.22824902
v 0.01322647 -0.14528861 -0.21231262
v 0.05276368 -0.12844347 -0.26495510
v 0.05166921 -0.13109359 -0.24576101
v 0.07025573 -0.12853896 -0.26489371
v 0.07030400 -0.12853477 -0.24735654
v 0.03698678 -0.14528913 -0.22232704
v 0.05070014 -0.13336280 -0.22825741
v 0.03712844 -0.14516898 -0.20644521
v 0.05089637 -0.13489065 -0.21230580
v 0.07038008 -0.12852322 -0.22979208
v 0.07043255 -0.12850906 -0.21223444
v 0.01322489 -0.14677343 -0.19467995
v 0.01323748 -0.14676451 -0.17707772
v 0.01323696 -0.14676451 -0.15951746
v 0.01323696 -0.14676451 -0.14195772
v 0.03716989 -0.14682695 -0.18880834
v 0.05094884 -0.13645784 -0.19468835
v 0.03716884 -0.14691561 -0.17122342
v 0.05096615 -0.13645417 -0.17708769
v 0.07046508 -0.12832227 -0.19467261
v 0.07047977 -0.12840517 -0.17710028
v 0.03716832 -0.14691614 -0.15366054
v 0.05096773 -0.13662889 -0.15952638
v 0.03716832 -0.14691614 -0.13610081
v 0.05096563 -0.13671651 -0.14196087
v 0.07048501 -0.12857989 -0.15954054
v 0.07048869 -0.12857989 -0.14197346
v 0.08781862 -0.12853896 -0.26489529
v 0.08781862 -0.12853896 -0.24733502
v 0.10537888 -0.12853896 -0.26489529
v 0.10537888 -0.12853896 -0.24733555
v 0.08781809 -0.12862606 -0.22977529
v 0.08781599 -0.12845134 -0.21221241
v 0.10538150 -0.12853896 -0.22977686
v 0.10537730 -0.12836372 -0.21221241
v 0.12293704 -0.12862606 -0.26489214
v 0.12293704 -0.12853896 -0.24733240
v 0.14049887 -0.12853844 -0.26488637
v 0.14049992 -0.12853896 -0.24733398
v 0.12293861 -0.12853896 -0.22977529
v 0.12293284 -0.12836372 -0.21221241
v 0.14049887 -0.12853896 -0.22977529
v 0.14049310 -0.12836372 -0.21221241
v 0.08781284 -0.12836372 -0.19465529
v 0.08781389 -0.12836425 -0.17710238
v 0.10537415 -0.12836425 -0.19466002
v 0.10537310 -0.12836425 -0.17710133
v 0.08782124 -0.12836372 -0.15954422
v 0.08782439 -0.12845134 -0.14198133
v 0.10537310 -0.12836425 -0.15954107
v 0.10537573 -0.12836425 -0.14198291
v 0.12293284 -0.12836425 -0.19466106
v 0.12293284 -0.12836425 -0.17710133
v 0.14049310 -0.12836425 -0.19466106
v 0.14049310 -0.12836425 -0.17710133
v 0.12293284 -0.12836425 -0.15954107
v 0.12293284 -0.12836425 -0.14198133
v 0.14049310 -0.12836425 -0.15954107
v 0.14049310 -0.12836425 -0.14198133
v 0.01323696 -0.14676451 -0.12439746
v 0.01323696 -0.14676451 -0.10683773
v 0.01323696 -0.14676451 -0.08927747
v 0.01323696 -0.14676451 -0.07171773
v 0.03716832 -0.14682852 -0.11854107
v 0.05096090 -0.13662941 -0.12439641
v 0.03716884 -0.14674090 -0.10098343
v 0.05095671 -0.13662889 -0.10683930
v 0.07048711 -0.12866751 -0.12441058
v 0.07048396 -0.12866751 -0.10684875
v 0.03716937 -0.14674090 -0.08342632
v 0.05095513 -0.13645417 -0.08928062
v 0.03716937 -0.14674090 -0.06586606
v 0.05095723 -0.13636655 -0.07172613
v 0.07047714 -0.12857989 -0.08928586
v 0.07047190 -0.12857989 -0.07173032
v 0.01323696 -0.14676451 -0.05415800
v 0.01323696 -0.14676451 -0.03659774
v 0.01323696 -0.14676451 -0.01903800
v 0.01323696 -0.14676451 -0.00147774
v 0.03716937 -0.14674090 -0.04830632
v 0.05095881 -0.13636655 -0.05416901
v 0.03716937 -0.14674090 -0.03074659
v 0.05095881 -0.13636655 -0.03660928
v 0.07047032 -0.12840517 -0.05417164
v 0.07047347 -0.12831755 -0.03661767
v 0.03716937 -0.14674090 -0.01318633
v 0.05095881 -0.13636655 -0.01904902
v 0.03716937 -0.14682799 0.00437341
v 0.05096195 -0.13654179 -0.00149086
v 0.07047504 -0.12831755 -0.01906056
v 0.07048082 -0.12849227 -0.00150345
v 0.08782544 -0.12853896 -0.12442002
v 0.08782544 -0.12862606 -0.10685557
v 0.10538045 -0.12836372 -0.12442265
v 0.10538465 -0.12836372 -0.10686291
v 0.08782071 -0.12862606 -0.08929111
v 0.08781914 -0.12871368 -0.07173295
v 0.10538622 -0.12845134 -0.08930160
v 0.10538727 -0.12862606 -0.07173977
v 0.12293284 -0.12836425 -0.12442160
v 0.12293284 -0.12836425 -0.10686134
v 0.14049310 -0.12836425 -0.12442160
v 0.14049310 -0.12836425 -0.10686134
v 0.12293599 -0.12836425 -0.08930265
v 0.12294333 -0.12836372 -0.07174449
v 0.14049310 -0.12836425 -0.08930160
v 0.14049310 -0.12836425 -0.07174134
v 0.08781232 -0.12862606 -0.05416692
v 0.08780760 -0.12862606 -0.03661138
v 0.10538307 -0.12862606 -0.05417111
v 0.10538150 -0.12871368 -0.03661295
v 0.08780655 -0.12845134 -0.01905269
v 0.08781494 -0.12853896 -0.00150187
v 0.10537415 -0.12862606 -0.01904692
v 0.10537573 -0.12871368 -0.00149453
v 0.12294596 -0.12845134 -0.05418161
v 0.12294753 -0.12862606 -0.03662030
v 0.14049572 -0.12836425 -0.05418318
v 0.14050307 -0.12836372 -0.03662449
v 0.12294333 -0.12862606 -0.01905112
v 0.12294438 -0.12871368 -0.00149453
v 0.14050622 -0.12845134 -0.01906161
v 0.14050727 -0.12862606 -0.00150030
v 0.15805861 -0.12862606 -0.26488217
v 0.15805703 -0.12862606 -0.24733240
v 0.17561992 -0.12871368 -0.26488059
v 0.17561992 -0.12853896 -0.24732925
v 0.15805703 -0.12845134 -0.22977267
v 0.15805441 -0.12836372 -0.21221555
v 0.17561729 -0.12836372 -0.22977267
v 0.17561415 -0.12836425 -0.21221975
v 0.19318595 -0.12862606 -0.26488374
v 0.19318018 -0.12853896 -0.24732925
v 0.21074306 -0.12862606 -0.26488637
v 0.21073834 -0.12845134 -0.24733083
v 0.19317283 -0.12836372 -0.22977267
v 0.19317283 -0.12836425 -0.21222133
v 0.21073414 -0.12836372 -0.22977529
v 0.21073257 -0.12836425 -0.21222133
v 0.15805284 -0.12836425 -0.19466106
v 0.15805284 -0.12836425 -0.17710133
v 0.17561257 -0.12836425 -0.19466106
v 0.17561257 -0.12836425 -0.17710133
v 0.15805284 -0.12836425 -0.15954107
v 0.15805284 -0.12836425 -0.14198133
v 0.17561257 -0.12836425 -0.15954107
v 0.17561257 -0.12836425 -0.14198133
v 0.19317283 -0.12836425 -0.19466106
v 0.19317283 -0.12836425 -0.17710133
v 0.21073257 -0.12836425 -0.19466106
v 0.21073257 -0.12836425 -0.17710133
v 0.19317283 -0.12836425 -0.15954107
v 0.19317283 -0.12836425 -0.14198133
v 0.21073257 -0.12836425 -0.15954107
v 0.21073257 -0.12836425 -0.14198133
v 0.22830122 -0.12853844 -0.26488794
v 0.22829702 -0.12836372 -0.24733240
v 0.24585833 -0.12853844 -0.26488637
v 0.24585256 -0.12836372 -0.24733240
v 0.22829440 -0.12836425 -0.22977949
v 0.22829283 -0.12836425 -0.21222133
v 0.24585256 -0.12836425 -0.22978106
v 0.24585256 -0.12836425 -0.21222133
v 0.26341545 -0.12871368 -0.26488374
v 0.26340810 -0.12853896 -0.24732663
v 0.28076584 -0.12868902 -0.26488007
v 0.28076479 -0.12859825 -0.24732296
v 0.26340810 -0.12853896 -0.22977529
v 0.26340810 -0.12853896 -0.21221555
v 0.28076374 -0.12859825 -0.22976899
v 0.28076374 -0.12859825 -0.21220873
v 0.22829283 -0.12836425 -0.19466106
v 0.22829283 -0.12836425 -0.17710133
v 0.24585256 -0.12836425 -0.19466106
v 0.24585256 -0.12836425 -0.17710133
v 0.22829283 -0.12836425 -0.15954107
v 0.22829283 -0.12836425 -0.14198133
v 0.24585256 -0.12836425 -0.15954107
v 0.24585256 -0.12836425 -0.14198133
v 0.26340810 -0.12853896 -0.19465529
v 0.26340810 -0.12853896 -0.17709556
v 0.28076374 -0.12859825 -0.19464900
v 0.28076374 -0.12859825 -0.17708874
v 0.26340810 -0.12853896 -0.15953530
v 0.26340810 -0.12853896 -0.14197556
v 0.28076374 -0.12859825 -0.15952900
v 0.28076374 -0.12859825 -0.14196927
v 0.15805284 -0.12836425 -0.12442160
v 0.15805284 -0.12836425 -0.10686134
v 0.17561257 -0.12836425 -0.12442160
v 0.17561257 -0.12836425 -0.10686134
v 0.15805284 -0.12836425 -0.08930160
v 0.15805284 -0.12836425 -0.07174134
v 0.17561257 -0.12836425 -0.08930160
v 0.17561257 -0.12836425 -0.07174134
v 0.19317283 -0.12836425 -0.12442160
v 0.19317283 -0.12836425 -0.10686134
v 0.21073257 -0.12836425 -0.12442160
v 0.21073257 -0.12836425 -0.10686134
v 0.19317283 -0.12836425 -0.08930160
v 0.19317283 -0.12836425 -0.07174134
v 0.21073257 -0.12836425 -0.08930160
v 0.21073257 -0.12836425 -0.07174134
v 0.15805284 -0.12836425 -0.05418161
v 0.15805284 -0.12836425 -0.03662135
v 0.17561257 -0.12836425 -0.05418161
v 0.17561257 -0.12836425 -0.03662135
v 0.15805598 -0.12836425 -0.01906318
v 0.15806280 -0.12836372 -0.00150450
v 0.17561257 -0.12836425 -0.01906161
v 0.17561257 -0.12836425 -0.00150135
v 0.19317283 -0.12836425 -0.05418161
v 0.19317283 -0.12836425 -0.03662135
v 0.21073257 -0.12836425 -0.05418161
v 0.21073257 -0.12836425 -0.03662135
v 0.19317283 -0.12836425 -0.01906161
v 0.19317283 -0.12836425 -0.00150135
v 0.21073257 -0.12836425 -0.01906161
v 0.21073257 -0.12836425 -0.00150135
v 0.22829283 -0.12836425 -0.12442160
v 0.22829283 -0.12836425 -0.10686134
v 0.24585256 -0.12836425 -0.12442160
v 0.24585256 -0.12836425 -0.10686134
v 0.22829283 -0.12836425 -0.08930160
v 0.22829283 -0.12836425 -0.07174134
v 0.24585256 -0.12836425 -0.08930160
v 0.24585256 -0.12836425 -0.07174134
v 0.26340810 -0.12853896 -0.12441530
v 0.26340810 -0.12853896 -0.10685557
v 0.28076374 -0.12859825 -0.12440901
v 0.28076374 -0.12859825 -0.10684927
v 0.26340810 -0.12853896 -0.08929583
v 0.26340810 -0.12853896 -0.07173557
v 0.28076374 -0.12859825 -0.08928901
v 0.28076374 -0.12859825 -0.07172927
v 0.22829283 -0.12836425 -0.05418161
v 0.22829283 -0.12836425 -0.03662135
v 0.24585256 -0.12836425 -0.05418161
v 0.24585256 -0.12836425 -0.03662135
v 0.22829283 -0.12836425 -0.01906161
v 0.22829283 -0.12836425 -0.00150135
v 0.24585256 -0.12836425 -0.01906161
v 0.24585256 -0.12845134 -0.00150135
v 0.26340810 -0.12853896 -0.05417583
v 0.26340810 -0.12853896 -0.03661557
v 0.28076374 -0.12859825 -0.05416901
v 0.28076374 -0.12859773 -0.03660928
v 0.26340810 -0.12853896 -0.01905584
v 0.26341072 -0.12862658 -0.00149715
v 0.28076426 -0.12859773 -0.01904902
v 0.28076689 -0.12859773 -0.00149086
v 0.29266016 -0.12731858 -0.34123512
v 0.29264285 -0.12722623 -0.32383751
v 0.29259353 -0.12727136 -0.30657054
v 0.29269426 -0.12726401 -0.28831823
v 0.29253686 -0.12730494 -0.27072964
v 0.29245134 -0.12729706 -0.25316151
v 0.29245449 -0.12729549 -0.23560755
v 0.29245449 -0.12729549 -0.21804729
v 0.29245449 -0.12729549 -0.20048755
v 0.29245449 -0.12729549 -0.18292729
v 0.29245449 -0.12729549 -0.16536756
v 0.29245449 -0.12729549 -0.14780782
v 0.29245449 -0.12729549 -0.13024756
v 0.29245449 -0.12729549 -0.11268782
v 0.29245449 -0.12729549 -0.09512756
v 0.29245449 -0.12729549 -0.07756783
v 0.29245449 -0.12729549 -0.06000757
v 0.29245501 -0.12729497 -0.04244783
v 0.29245501 -0.12729234 -0.02488652
v 0.29245449 -0.12728815 -0.00732626
v 0.01323696 -0.14676451 0.01608200
v 0.01323696 -0.14676451 0.03364226
v 0.01323696 -0.14676451 0.05120199
v 0.01323696 -0.14676451 0.06876225
v 0.03716884 -0.14691561 0.02193629
v 0.05096458 -0.13662889 0.01607465
v 0.03716832 -0.14691614 0.03949865
v 0.05096458 -0.13671651 0.03363911
v 0.07048396 -0.12866698 0.01606363
v 0.07048606 -0.12884223 0.03362966
v 0.03716832 -0.14691614 0.05705891
v 0.05096405 -0.13671651 0.05120199
v 0.03716832 -0.14691614 0.07461865
v 0.05096405 -0.13671651 0.06876173
v 0.07048606 -0.12884223 0.05119674
v 0.07048606 -0.12884223 0.06875648
v 0.01323696 -0.14676451 0.08632199
v 0.01323696 -0.14676451 0.10388172
v 0.01323696 -0.14676451 0.12144198
v 0.01323696 -0.14676451 0.13900172
v 0.03716832 -0.14691614 0.09217891
v 0.05096405 -0.13671651 0.08632199
v 0.03716832 -0.14691614 0.10973864
v 0.05096405 -0.13671651 0.10388172
v 0.07048606 -0.12884223 0.08631674
v 0.07048606 -0.12884223 0.10387648
v 0.03716832 -0.14691614 0.12729890
v 0.05096405 -0.13671651 0.12144146
v 0.03716832 -0.14691614 0.14485864
v 0.05096405 -0.13671651 0.13900172
v 0.07048606 -0.12884223 0.12143621
v 0.07048606 -0.12884223 0.13899647
v 0.08782229 -0.12871368 0.01606153
v 0.08782858 -0.12888840 0.03362704
v 0.10538150 -0.12871368 0.01606730
v 0.10539042 -0.12888840 0.03362704
v 0.08782858 -0.12888840 0.05119570
v 0.08782858 -0.12888840 0.06875596
v 0.10539042 -0.12888840 0.05119570
v 0.10539042 -0.12888840 0.06875596
v 0.12294438 -0.12880078 0.01606993
v 0.12294910 -0.12888840 0.03363019
v 0.14050884 -0.12862606 0.01606573
v 0.14051304 -0.12880078 0.03362547
v 0.12295015 -0.12888840 0.05119570
v 0.12295015 -0.12888840 0.06875596
v 0.14051199 -0.12888840 0.05119307
v 0.14051041 -0.12888840 0.06875596
v 0.08782858 -0.12888840 0.08631569
v 0.08782858 -0.12888840 0.10387595
v 0.10539042 -0.12888840 0.08631569
v 0.10539042 -0.12888840 0.10387595
v 0.08782858 -0.12888840 0.12143569
v 0.08782858 -0.12888840 0.13899542
v 0.10539042 -0.12888840 0.12143569
v 0.10539042 -0.12888840 0.13899542
v 0.12295015 -0.12888840 0.08631569
v 0.12295015 -0.12888840 0.10387595
v 0.14051041 -0.12888840 0.08631569
v 0.14051041 -0.12888840 0.10387595
v 0.12295015 -0.12888840 0.12143569
v 0.12295015 -0.12888840 0.13899542
v 0.14051041 -0.12888840 0.12143569
v 0.14051041 -0.12888840 0.13899542
v 0.01323696 -0.14676451 0.15656198
v 0.01323696 -0.14676451 0.17412171
v 0.01323696 -0.14676451 0.19168198
v 0.01323906 -0.14676976 0.20924748
v 0.03716832 -0.14691614 0.16241890
v 0.05096405 -0.13671651 0.15656145
v 0.03716832 -0.14691614 0.17997863
v 0.05096405 -0.13671651 0.17412171
v 0.07048606 -0.12884223 0.15655621
v 0.07048606 -0.12884223 0.17411647
v 0.03716832 -0.14691614 0.19753837
v 0.05096405 -0.13671651 0.19168145
v 0.03716464 -0.14692244 0.21511175
v 0.05096405 -0.13671651 0.20924171
v 0.07048606 -0.12884223 0.19167620
v 0.07048606 -0.12884223 0.20923646
v 0.01328051 -0.14525450 0.22779255
v 0.01337810 -0.14526919 0.24299546
v 0.01911854 -0.13991911 0.26126350
v 0.01912326 -0.13112717 0.27891086
v 0.03420287 -0.13347666 0.27813907
v 0.03619033 -0.13851771 0.26464082
v 0.03713946 -0.14532376 0.23371033
v 0.05094044 -0.13672963 0.22683030
v 0.03685089 -0.14536888 0.24889173
v 0.05090791 -0.13514616 0.24541105
v 0.07048606 -0.12884223 0.22679620
v 0.07046665 -0.12884905 0.24437220
v 0.05068912 -0.13346879 0.26229816
v 0.05164927 -0.13093987 0.27885052
v 0.07042835 -0.12868587 0.26193456
v 0.07035962 -0.12852427 0.27949954
v 0.08782858 -0.12888840 0.15655568
v 0.08782858 -0.12888840 0.17411542
v 0.10539042 -0.12888840 0.15655568
v 0.10539042 -0.12888840 0.17411542
v 0.08782858 -0.12888840 0.19167568
v 0.08782858 -0.12888840 0.20923541
v 0.10539042 -0.12888840 0.19167568
v 0.10539042 -0.12888840 0.20923541
v 0.12295015 -0.12888840 0.15655568
v 0.12295015 -0.12888840 0.17411542
v 0.14051041 -0.12888840 0.15655568
v 0.14051041 -0.12888840 0.17411542
v 0.12295015 -0.12888840 0.19167568
v 0.12295015 -0.12888840 0.20923541
v 0.14051041 -0.12888840 0.19167568
v 0.14051041 -0.12888840 0.20923541
v 0.08782858 -0.12888840 0.22679567
v 0.08782858 -0.12888840 0.24435541
v 0.10539042 -0.12888840 0.22679567
v 0.10539042 -0.12888840 0.24435541
v 0.08782334 -0.12880078 0.26191829
v 0.08781652 -0.12862606 0.27947541
v 0.10538727 -0.12888840 0.26191672
v 0.10538045 -0.12862606 0.27947803
v 0.12295015 -0.12888840 0.22679567
v 0.12295015 -0.12888840 0.24435541
v 0.14051041 -0.12888840 0.22679567
v 0.14051041 -0.12888840 0.24435541
v 0.12295015 -0.12888840 0.26191567
v 0.12294176 -0.12871368 0.27947960
v 0.14051041 -0.12888840 0.26191567
v 0.14050464 -0.12880078 0.27947803
v 0.15806595 -0.12845134 0.01605839
v 0.15807015 -0.12871368 0.03361812
v 0.17561572 -0.12836425 0.01605681
v 0.17562569 -0.12853896 0.03361392
v 0.15807172 -0.12880078 0.05118835
v 0.15807172 -0.12888840 0.06875281
v 0.17563041 -0.12871368 0.05118258
v 0.17563198 -0.12888840 0.06874861
v 0.19317283 -0.12845134 0.01605839
v 0.19317703 -0.12862658 0.03361812
v 0.21073572 -0.12853896 0.01605681
v 0.21073991 -0.12862606 0.03362127
v 0.19318280 -0.12871368 0.05118415
v 0.19319015 -0.12888840 0.06874704
v 0.21074463 -0.12880130 0.05118573
v 0.21074883 -0.12888840 0.06875018
v 0.15807015 -0.12888840 0.08631569
v 0.15807015 -0.12888840 0.10387595
v 0.17563041 -0.12888840 0.08631569
v 0.17563041 -0.12888840 0.10387595
v 0.15807015 -0.12888840 0.12143569
v 0.15807015 -0.12888840 0.13899542
v 0.17563041 -0.12888840 0.12143569
v 0.17563041 -0.12888840 0.13899542
v 0.19319015 -0.12888840 0.08631569
v 0.19319015 -0.12888840 0.10387595
v 0.21075041 -0.12888840 0.08631569
v 0.21075041 -0.12888840 0.10387595
v 0.19319015 -0.12888840 0.12143569
v 0.19319015 -0.12888840 0.13899542
v 0.21075041 -0.12888840 0.12143569
v 0.21075041 -0.12888840 0.13899542
v 0.22829860 -0.12853896 0.01605524
v 0.22830122 -0.12871368 0.03362284
v 0.24585729 -0.12862658 0.01605839
v 0.24586306 -0.12871368 0.03362442
v 0.22830594 -0.12888840 0.05118730
v 0.22830857 -0.12888840 0.06875438
v 0.24587040 -0.12888840 0.05118730
v 0.24587040 -0.12888840 0.06875596
v 0.26341650 -0.12862606 0.01606416
v 0.26342227 -0.12880130 0.03362547
v 0.28075797 -0.12869269 0.01606888
v 0.28074800 -0.12879028 0.03362861
v 0.26342699 -0.12888840 0.05118992
v 0.26342856 -0.12888840 0.06875596
v 0.28074747 -0.12879343 0.05119465
v 0.28074852 -0.12879343 0.06875596
v 0.22831014 -0.12888840 0.08631569
v 0.22831014 -0.12888840 0.10387595
v 0.24587040 -0.12888840 0.08631569
v 0.24587040 -0.12888840 0.10387595
v 0.22831014 -0.12888840 0.12143569
v 0.22831014 -0.12888840 0.13899542
v 0.24587040 -0.12888840 0.12143569
v 0.24587040 -0.12888840 0.13899542
v 0.26342856 -0.12888840 0.08631569
v 0.26342856 -0.12888840 0.10387595
v 0.28074852 -0.12879343 0.08631622
v 0.28074852 -0.12879343 0.10387595
v 0.26342856 -0.12888840 0.12143569
v 0.26342856 -0.12888840 0.13899542
v 0.28074852 -0.12879343 0.12143621
v 0.28074852 -0.12879343 0.13899595
v 0.15807015 -0.12888840 0.15655568
v 0.15807015 -0.12888840 0.17411542
v 0.17563041 -0.12888840 0.15655568
v 0.17563041 -0.12888840 0.17411542
v 0.15807015 -0.12888840 0.19167568
v 0.15807015 -0.12888840 0.20923541
v 0.17563041 -0.12888840 0.19167568
v 0.17563041 -0.12888840 0.20923541
v 0.19319015 -0.12888840 0.15655568
v 0.19319015 -0.12888840 0.17411542
v 0.21075041 -0.12888840 0.15655568
v 0.21075041 -0.12888840 0.17411542
v 0.19319015 -0.12888840 0.19167568
v 0.19319015 -0.12888840 0.20923541
v 0.21075041 -0.12888840 0.19167568
v 0.21075041 -0.12888840 0.20923541
v 0.15807015 -0.12888840 0.22679567
v 0.15807015 -0.12888840 0.24435541
v 0.17563041 -0.12888840 0.22679567
v 0.17563041 -0.12888840 0.24435541
v 0.15807015 -0.12888840 0.26191567
v 0.15806753 -0.12888840 0.27947698
v 0.17563041 -0.12888840 0.26191567
v 0.17563041 -0.12888840 0.27947541
v 0.19319015 -0.12888840 0.22679567
v 0.19319015 -0.12888840 0.24435541
v 0.21075041 -0.12888840 0.22679567
v 0.21075041 -0.12888840 0.24435541
v 0.19319015 -0.12888840 0.26191567
v 0.19319015 -0.12888840 0.27947541
v 0.21075041 -0.12888840 0.26191567
v 0.21075041 -0.12888840 0.27947541
v 0.22831014 -0.12888840 0.15655568
v 0.22831014 -0.12888840 0.17411542
v 0.24587040 -0.12888840 0.15655568
v 0.24587040 -0.12888840 0.17411542
v 0.22831014 -0.12888840 0.19167568
v 0.22831014 -0.12888840 0.20923541
v 0.24587040 -0.12888840 0.19167568
v 0.24587040 -0.12888840 0.20923541
v 0.26342856 -0.12888840 0.15655568
v 0.26342856 -0.12888840 0.17411542
v 0.28074852 -0.12879343 0.15655568
v 0.28074852 -0.12879343 0.17411594
v 0.26342856 -0.12888840 0.19167568
v 0.26342856 -0.12888840 0.20923541
v 0.28074852 -0.12879343 0.19167568
v 0.28074852 -0.12879343 0.20923594
v 0.22831014 -0.12888840 0.22679567
v 0.22831014 -0.12888840 0.24435541
v 0.24587040 -0.12888840 0.22679567
v 0.24587040 -0.12888840 0.24435541
v 0.22831014 -0.12888840 0.26191567
v 0.22831014 -0.12888840 0.27947541
v 0.24587040 -0.12888840 0.26191567
v 0.24587040 -0.12888840 0.27947541
v 0.26342856 -0.12888840 0.22679567
v 0.26342856 -0.12888840 0.24435541
v 0.28074852 -0.12879343 0.22679567
v 0.28074852 -0.12879343 0.24435594
v 0.26342856 -0.12888840 0.26191515
v 0.26342856 -0.12888840 0.27947541
v 0.28074852 -0.12879343 0.26191567
v 0.28074852 -0.12879343 0.27947593
v 0.01890185 -0.12879186 0.29709863
v 0.01890395 -0.12888840 0.31458229
v 0.03512367 -0.12869427 0.29715634
v 0.03515515 -0.12880078 0.31458229
v 0.01889817 -0.12884485 0.33129153
v 0.01890132 -0.12885797 0.34699969
v 0.03515043 -0.12888840 0.33124955
v 0.03515620 -0.12881389 0.34704482
v 0.05273220 -0.12843455 0.29713116
v 0.05271174 -0.12862606 0.31457337
v 0.07028144 -0.12836058 0.29705193
v 0.07026308 -0.12862606 0.31456969
v 0.05271069 -0.12888840 0.33124063
v 0.05271279 -0.12885744 0.34700232
v 0.07026780 -0.12880130 0.33123801
v 0.07027567 -0.12885744 0.34699812
v 0.02344971 -0.12607510 0.37114564
v 0.01239329 -0.12750903 0.35897796
v 0.01759331 -0.12608402 0.38091294
v 0.04100892 -0.12607458 0.37114617
v 0.02930138 -0.12750169 0.35900262
v 0.03515305 -0.12608402 0.38091294
v 0.05856970 -0.12607458 0.37114722
v 0.04685849 -0.12754523 0.35895908
v 0.05271279 -0.12608402 0.38091294
v 0.07612944 -0.12607458 0.37114722
v 0.06442085 -0.12754523 0.35895908
v 0.07027305 -0.12608402 0.38091294
v 0.08781127 -0.12836372 0.29702937
v 0.08782176 -0.12853896 0.31456864
v 0.10537310 -0.12845134 0.29703094
v 0.10537730 -0.12853896 0.31457284
v 0.08782596 -0.12871368 0.33123644
v 0.08783541 -0.12885744 0.34699392
v 0.10538202 -0.12871368 0.33123644
v 0.10539409 -0.12885744 0.34699235
v 0.12293441 -0.12853896 0.29703252
v 0.12293704 -0.12853896 0.31457704
v 0.14049730 -0.12862606 0.29703514
v 0.14049730 -0.12853896 0.31458176
v 0.12294176 -0.12871368 0.33123644
v 0.12295435 -0.12885744 0.34699235
v 0.14050149 -0.12871368 0.33123644
v 0.14051409 -0.12885744 0.34699235
v 0.09368917 -0.12607458 0.37114722
v 0.08198059 -0.12754523 0.35895908
v 0.08783278 -0.12608402 0.38091294
v 0.11124944 -0.12607458 0.37114722
v 0.09954032 -0.12754523 0.35895908
v 0.10539304 -0.12608402 0.38091294
v 0.12880917 -0.12607458 0.37114722
v 0.11710058 -0.12754523 0.35895908
v 0.12295278 -0.12608402 0.38091294
v 0.14636943 -0.12607458 0.37114722
v 0.13466032 -0.12754523 0.35895908
v 0.14051304 -0.12608402 0.38091294
v 0.15806018 -0.12862606 0.29703829
v 0.15805861 -0.12862606 0.31458281
v 0.17562149 -0.12871368 0.29703986
v 0.17561992 -0.12871368 0.31458438
v 0.15806018 -0.12871368 0.33123958
v 0.15807382 -0.12885744 0.34699235
v 0.17562044 -0.12871368 0.33124378
v 0.17563408 -0.12885744 0.34699235
v 0.19318437 -0.12880078 0.29703829
v 0.19318280 -0.12880078 0.31458753
v 0.21074726 -0.12888840 0.29703672
v 0.21074568 -0.12880078 0.31459016
v 0.19318018 -0.12871368 0.33124798
v 0.19319382 -0.12885744 0.34699235
v 0.21074149 -0.12880130 0.33124955
v 0.21075250 -0.12885744 0.34699550
v 0.16392917 -0.12607458 0.37114722
v 0.15222058 -0.12754523 0.35895908
v 0.15807277 -0.12608402 0.38091294
v 0.18148943 -0.12607458 0.37114722
v 0.16978031 -0.12754523 0.35895908
v 0.17563303 -0.12608402 0.38091294
v 0.19904916 -0.12607458 0.37114722
v 0.18734057 -0.12754523 0.35895908
v 0.19319277 -0.12608402 0.38091294
v 0.21660942 -0.12607458 0.37114722
v 0.20490031 -0.12754523 0.35895908
v 0.21075250 -0.12608402 0.38091294
v 0.22831014 -0.12888840 0.29703514
v 0.22830752 -0.12888840 0.31459173
v 0.24587040 -0.12888840 0.29703514
v 0.24587040 -0.12888840 0.31459068
v 0.22830280 -0.12888840 0.33125113
v 0.22831224 -0.12885744 0.34699969
v 0.24586830 -0.12888840 0.33125113
v 0.24587460 -0.12885744 0.34700074
v 0.26342856 -0.12888840 0.29703567
v 0.26342909 -0.12888840 0.31459173
v 0.28074852 -0.12879343 0.29703462
v 0.28082145 -0.12874411 0.31459120
v 0.26343119 -0.12884485 0.33129835
v 0.26339446 -0.12881704 0.34702278
v 0.28085661 -0.12864810 0.33135291
v 0.28080834 -0.12868325 0.34793781
v 0.23416916 -0.12607458 0.37114722
v 0.22246057 -0.12754523 0.35895908
v 0.22831277 -0.12608402 0.38091294
v 0.25172889 -0.12607458 0.37114722
v 0.24002030 -0.12754523 0.35895908
v 0.24587250 -0.12608455 0.38091347
v 0.26888883 -0.12603051 0.37113095
v 0.25753754 -0.12754838 0.35893337
v 0.26322604 -0.12611970 0.38105828
v 0.27623267 -0.12681961 0.37632521
v 0.27846987 -0.12764807 0.36690314
v 0.27171471 -0.12567111 0.37763794
v 0.27913043 -0.12652003 0.38244236
v 0.29244819 -0.12730074 0.01021668
v 0.29253476 -0.12731123 0.02775228
v 0.29261347 -0.12731910 0.04531779
v 0.29260927 -0.12732225 0.06289799
v 0.29260874 -0.12732225 0.08045772
v 0.29260874 -0.12732225 0.09801798
v 0.29260874 -0.12732225 0.11557772
v 0.29260874 -0.12732225 0.13313798
v 0.29260874 -0.12732225 0.15069772
v 0.29260874 -0.12732225 0.16825798
v 0.29260874 -0.12732225 0.18581771
v 0.29260874 -0.12732225 0.20337797
v 0.29260874 -0.12732225 0.22093771
v 0.29260874 -0.12732225 0.23849797
v 0.29260874 -0.12732225 0.25605770
v 0.29260874 -0.12732225 0.27361744
v 0.29260874 -0.12732225 0.29117665
v 0.29268115 -0.12727293 0.30873639
v 0.29264180 -0.12726978 0.32589842
v 0.29270791 -0.12718426 0.34305521
v 0.29262606 -0.12717062 0.35927283
v 0.29148122 -0.12683011 0.37740184
v 0.02367217 -0.15131394 -0.23565214
v 0.02520264 -0.15393993 -0.23092642
v 0.02347332 -0.15519285 -0.23388872
v 0.02187779 -0.15400814 -0.22659473
v 0.02538680 -0.15556117 -0.21813911
v 0.02163592 -0.15550503 -0.21228166
v 0.02540883 -0.15714200 -0.20051379
v 0.02161913 -0.15697883 -0.19464532
v 0.02540516 -0.15714515 -0.18292624
v 0.02161493 -0.15696624 -0.17706827
v 0.02540464 -0.15714515 -0.16536651
v 0.02161493 -0.15696624 -0.15950854
v 0.02540464 -0.15714515 -0.14780625
v 0.02161493 -0.15696624 -0.14194828
v 0.02540464 -0.15714515 -0.13024651
v 0.02161493 -0.15696624 -0.12438854
v 0.02540464 -0.15714515 -0.11268625
v 0.02161493 -0.15696624 -0.10682881
v 0.02540464 -0.15714515 -0.09512651
v 0.02161493 -0.15696624 -0.08926855
v 0.02540464 -0.15714515 -0.07756678
v 0.02161493 -0.15696624 -0.07170881
v 0.02540464 -0.15714515 -0.06000652
v 0.02161493 -0.15696624 -0.05414855
v 0.02540464 -0.15714515 -0.04244678
v 0.02161493 -0.15696624 -0.03658882
v 0.02540464 -0.15714515 -0.02488652
v 0.02161493 -0.15696624 -0.01902856
v 0.02540464 -0.15714515 -0.00732679
v 0.02161493 -0.15696624 -0.00146882
v 0.02540464 -0.15714515 0.01023347
v 0.02161493 -0.15696624 0.01609092
v 0.02540464 -0.15714515 0.02779321
v 0.02161493 -0.15696624 0.03365118
v 0.02540464 -0.15714515 0.04535347
v 0.02161493 -0.15696624 0.05121091
v 0.02540464 -0.15714515 0.06291320
v 0.02161493 -0.15696624 0.06877117
v 0.02540464 -0.15714515 0.08047294
v 0.02161493 -0.15696624 0.08633091
v 0.02540464 -0.15714515 0.09803320
v 0.02161493 -0.15696624 0.10389117
v 0.02540464 -0.15714515 0.11559294
v 0.02161493 -0.15696624 0.12145090
v 0.02540464 -0.15714515 0.13315320
v 0.02161493 -0.15696624 0.13901116
v 0.02540464 -0.15714515 0.15071293
v 0.02161493 -0.15696624 0.15657090
v 0.02540464 -0.15714515 0.16827319
v 0.02161493 -0.15696624 0.17413063
v 0.02540464 -0.15714515 0.18583293
v 0.02161493 -0.15696624 0.19169089
v 0.02540464 -0.15714515 0.20339266
v 0.02161493 -0.15696624 0.20925063
v 0.02541198 -0.15714043 0.22096447
v 0.02162647 -0.15695994 0.22681037
v 0.02525511 -0.15551185 0.23890931
v 0.02151104 -0.15531562 0.24401437
v 0.02352998 -0.15128141 0.25207229
v 0.02074397 -0.15125623 0.25257965
f 41 43 42
f 41 42 44
f 1 46 2
f 1 45 46
f 45 48 46
f 45 47 48
f 2 49 3
f 2 46 49
f 3 50 4
f 3 49 50
f 46 51 49
f 46 48 51
f 49 52 50
f 49 51 52
f 47 54 48
f 47 53 54
f 53 56 54
f 53 55 56
f 48 57 51
f 48 54 57
f 51 58 52
f 51 57 58
f 54 59 57
f 54 56 59
f 57 60 58
f 57 59 60
f 55 62 56
f 55 61 62
f 61 64 62
f 61 63 64
f 56 65 59
f 56 62 65
f 59 66 60
f 59 65 66
f 62 67 65
f 62 64 67
f 65 68 66
f 65 67 68
f 63 70 64
f 63 69 70
f 69 72 70
f 69 71 72
f 64 73 67
f 64 70 73
f 67 74 68
f 67 73 74
f 70 75 73
f 70 72 75
f 73 76 74
f 73 75 76
f 71 78 72
f 71 77 78
f 77 80 78
f 77 79 80
f 72 81 75
f 72 78 81
f 75 82 76
f 75 81 82
f 78 83 81
f 78 80 83
f 81 84 82
f 81 83 84
f 79 86 80
f 79 85 86
f 85 88 86
f 85 87 88
f 80 89 83
f 80 86 89
f 83 90 84
f 83 89 90
f 86 91 89
f 86 88 91
f 89 92 90
f 89 91 92
f 87 94 88
f 87 93 94
f 93 96 94
f 93 95 96
f 88 97 91
f 88 94 97
f 91 98 92
f 91 97 98
f 94 99 97
f 94 96 99
f 97 100 98
f 97 99 100
f 95 102 96
f 95 101 102
f 101 104 102
f 101 103 104
f 96 105 99
f 96 102 105
f 99 106 100
f 99 105 106
f 102 107 105
f 102 104 107
f 105 108 106
f 105 107 108
f 4 109 5
f 4 50 109
f 5 110 6
f 5 109 110
f 50 111 109
f 50 52 111
f 109 112 110
f 109 111 112
f 6 113 7
f 6 110 113
f 7 114 8
f 7 113 114
f 52 115 111
f 52 58 115
f 111 116 112
f 111 115 116
f 58 117 115
f 58 60 117
f 115 118 116
f 115 117 118
f 112 120 119
f 112 116 120
f 119 122 121
f 119 120 122
f 116 123 120
f 116 118 123
f 120 124 122
f 120 123 124
f 8 125 9
f 8 114 125
f 9 126 10
f 9 125 126
f 10 127 11
f 10 126 127
f 11 128 12
f 11 127 128
f 121 130 129
f 121 122 130
f 129 132 131
f 129 130 132
f 122 133 130
f 122 124 133
f 130 134 132
f 130 133 134
f 131 136 135
f 131 132 136
f 135 138 137
f 135 136 138
f 132 139 136
f 132 134 139
f 136 140 138
f 136 139 140
f 60 141 117
f 60 66 141
f 117 142 118
f 117 141 142
f 66 143 141
f 66 68 143
f 141 144 142
f 141 143 144
f 118 145 123
f 118 142 145
f 123 146 124
f 123 145 146
f 142 147 145
f 142 144 147
f 145 148 146
f 145 147 148
f 68 149 143
f 68 74 149
f 143 150 144
f 143 149 150
f 74 151 149
f 74 76 151
f 149 152 150
f 149 151 152
f 144 153 147
f 144 150 153
f 147 154 148
f 147 153 154
f 150 155 153
f 150 152 155
f 153 156 154
f 153 155 156
f 124 157 133
f 124 146 157
f 133 158 134
f 133 157 158
f 146 159 157
f 146 148 159
f 157 160 158
f 157 159 160
f 134 161 139
f 134 158 161
f 139 162 140
f 139 161 162
f 158 163 161
f 158 160 163
f 161 164 162
f 161 163 164
f 148 165 159
f 148 154 165
f 159 166 160
f 159 165 166
f 154 167 165
f 154 156 167
f 165 168 166
f 165 167 168
f 160 169 163
f 160 166 169
f 163 170 164
f 163 169 170
f 166 171 169
f 166 168 171
f 169 172 170
f 169 171 172
f 12 173 13
f 12 128 173
f 13 174 14
f 13 173 174
f 14 175 15
f 14 174 175
f 15 176 16
f 15 175 176
f 137 178 177
f 137 138 178
f 177 180 179
f 177 178 180
f 138 181 178
f 138 140 181
f 178 182 180
f 178 181 182
f 179 184 183
f 179 180 184
f 183 186 185
f 183 184 186
f 180 187 184
f 180 182 187
f 184 188 186
f 184 187 188
f 16 189 17
f 16 176 189
f 17 190 18
f 17 189 190
f 18 191 19
f 18 190 191
f 19 192 20
f 19 191 192
f 185 194 193
f 185 186 194
f 193 196 195
f 193 194 196
f 186 197 194
f 186 188 197
f 194 198 196
f 194 197 198
f 195 200 199
f 195 196 200
f 199 202 201
f 199 200 202
f 196 203 200
f 196 198 203
f 200 204 202
f 200 203 204
f 140 205 181
f 140 162 205
f 181 206 182
f 181 205 206
f 162 207 205
f 162 164 207
f 205 208 206
f 205 207 208
f 182 209 187
f 182 206 209
f 187 210 188
f 187 209 210
f 206 211 209
f 206 208 211
f 209 212 210
f 209 211 212
f 164 213 207
f 164 170 213
f 207 214 208
f 207 213 214
f 170 215 213
f 170 172 215
f 213 216 214
f 213 215 216
f 208 217 211
f 208 214 217
f 211 218 212
f 211 217 218
f 214 219 217
f 214 216 219
f 217 220 218
f 217 219 220
f 188 221 197
f 188 210 221
f 197 222 198
f 197 221 222
f 210 223 221
f 210 212 223
f 221 224 222
f 221 223 224
f 198 225 203
f 198 222 225
f 203 226 204
f 203 225 226
f 222 227 225
f 222 224 227
f 225 228 226
f 225 227 228
f 212 229 223
f 212 218 229
f 223 230 224
f 223 229 230
f 218 231 229
f 218 220 231
f 229 232 230
f 229 231 232
f 224 233 227
f 224 230 233
f 227 234 228
f 227 233 234
f 230 235 233
f 230 232 235
f 233 236 234
f 233 235 236
f 76 237 151
f 76 82 237
f 151 238 152
f 151 237 238
f 82 239 237
f 82 84 239
f 237 240 238
f 237 239 240
f 152 241 155
f 152 238 241
f 155 242 156
f 155 241 242
f 238 243 241
f 238 240 243
f 241 244 242
f 241 243 244
f 84 245 239
f 84 90 245
f 239 246 240
f 239 245 246
f 90 247 245
f 90 92 247
f 245 248 246
f 245 247 248
f 240 249 243
f 240 246 249
f 243 250 244
f 243 249 250
f 246 251 249
f 246 248 251
f 249 252 250
f 249 251 252
f 156 253 167
f 156 242 253
f 167 254 168
f 167 253 254
f 242 255 253
f 242 244 255
f 253 256 254
f 253 255 256
f 168 257 171
f 168 254 257
f 171 258 172
f 171 257 258
f 254 259 257
f 254 256 259
f 257 260 258
f 257 259 260
f 244 261 255
f 244 250 261
f 255 262 256
f 255 261 262
f 250 263 261
f 250 252 263
f 261 264 262
f 261 263 264
f 256 265 259
f 256 262 265
f 259 266 260
f 259 265 266
f 262 267 265
f 262 264 267
f 265 268 266
f 265 267 268
f 92 269 247
f 92 98 269
f 247 270 248
f 247 269 270
f 98 271 269
f 98 100 271
f 269 272 270
f 269 271 272
f 248 273 251
f 248 270 273
f 251 274 252
f 251 273 274
f 270 275 273
f 270 272 275
f 273 276 274
f 273 275 276
f 100 277 271
f 100 106 277
f 271 278 272
f 271 277 278
f 106 279 277
f 106 108 279
f 277 280 278
f 277 279 280
f 272 281 275
f 272 278 281
f 275 282 276
f 275 281 282
f 278 283 281
f 278 280 283
f 281 284 282
f 281 283 284
f 252 285 263
f 252 274 285
f 263 286 264
f 263 285 286
f 274 287 285
f 274 276 287
f 285 288 286
f 285 287 288
f 264 289 267
f 264 286 289
f 267 290 268
f 267 289 290
f 286 291 289
f 286 288 291
f 289 292 290
f 289 291 292
f 276 293 287
f 276 282 293
f 287 294 288
f 287 293 294
f 282 295 293
f 282 284 295
f 293 296 294
f 293 295 296
f 288 297 291
f 288 294 297
f 291 298 292
f 291 297 298
f 294 299 297
f 294 296 299
f 297 300 298
f 297 299 300
f 172 301 215
f 172 258 301
f 215 302 216
f 215 301 302
f 258 303 301
f 258 260 303
f 301 304 302
f 301 303 304
f 216 305 219
f 216 302 305
f 219 306 220
f 219 305 306
f 302 307 305
f 302 304 307
f 305 308 306
f 305 307 308
f 260 309 303
f 260 266 309
f 303 310 304
f 303 309 310
f 266 311 309
f 266 268 311
f 309 312 310
f 309 311 312
f 304 313 307
f 304 310 313
f 307 314 308
f 307 313 314
f 310 315 313
f 310 312 315
f 313 316 314
f 313 315 316
f 220 317 231
f 220 306 317
f 231 318 232
f 231 317 318
f 306 319 317
f 306 308 319
f 317 320 318
f 317 319 320
f 232 321 235
f 232 318 321
f 235 322 236
f 235 321 322
f 318 323 321
f 318 320 323
f 321 324 322
f 321 323 324
f 308 325 319
f 308 314 325
f 319 326 320
f 319 325 326
f 314 327 325
f 314 316 327
f 325 328 326
f 325 327 328
f 320 329 323
f 320 326 329
f 323 330 324
f 323 329 330
f 326 331 329
f 326 328 331
f 329 332 330
f 329 331 332
f 268 333 311
f 268 290 333
f 311 334 312
f 311 333 334
f 290 335 333
f 290 292 335
f 333 336 334
f 333 335 336
f 312 337 315
f 312 334 337
f 315 338 316
f 315 337 338
f 334 339 337
f 334 336 339
f 337 340 338
f 337 339 340
f 292 341 335
f 292 298 341
f 335 342 336
f 335 341 342
f 298 343 341
f 298 300 343
f 341 344 342
f 341 343 344
f 336 345 339
f 336 342 345
f 339 346 340
f 339 345 346
f 342 347 345
f 342 344 347
f 345 348 346
f 345 347 348
f 316 349 327
f 316 338 349
f 327 350 328
f 327 349 350
f 338 351 349
f 338 340 351
f 349 352 350
f 349 351 352
f 328 353 331
f 328 350 353
f 331 354 332
f 331 353 354
f 350 355 353
f 350 352 355
f 353 356 354
f 353 355 356
f 340 357 351
f 340 346 357
f 351 358 352
f 351 357 358
f 346 359 357
f 346 348 359
f 357 360 358
f 357 359 360
f 352 361 355
f 352 358 361
f 355 362 356
f 355 361 362
f 358 363 361
f 358 360 363
f 361 364 362
f 361 363 364
f 103 366 104
f 103 365 366
f 104 367 107
f 104 366 367
f 107 368 108
f 107 367 368
f 108 369 279
f 108 368 369
f 279 370 280
f 279 369 370
f 280 371 283
f 280 370 371
f 283 372 284
f 283 371 372
f 284 373 295
f 284 372 373
f 295 374 296
f 295 373 374
f 296 375 299
f 296 374 375
f 299 376 300
f 299 375 376
f 300 377 343
f 300 376 377
f 343 378 344
f 343 377 378
f 344 379 347
f 344 378 379
f 347 380 348
f 347 379 380
f 348 381 359
f 348 380 381
f 359 382 360
f 359 381 382
f 360 383 363
f 360 382 383
f 363 384 364
f 363 383 384
f 20 385 21
f 20 192 385
f 21 386 22
f 21 385 386
f 22 387 23
f 22 386 387
f 23 388 24
f 23 387 388
f 201 390 389
f 201 202 390
f 389 392 391
f 389 390 392
f 202 393 390
f 202 204 393
f 390 394 392
f 390 393 394
f 391 396 395
f 391 392 396
f 395 398 397
f 395 396 398
f 392 399 396
f 392 394 399
f 396 400 398
f 396 399 400
f 24 401 25
f 24 388 401
f 25 402 26
f 25 401 402
f 26 403 27
f 26 402 403
f 27 404 28
f 27 403 404
f 397 406 405
f 397 398 406
f 405 408 407
f 405 406 408
f 398 409 406
f 398 400 409
f 406 410 408
f 406 409 410
f 407 412 411
f 407 408 412
f 411 414 413
f 411 412 414
f 408 415 412
f 408 410 415
f 412 416 414
f 412 415 416
f 204 417 393
f 204 226 417
f 393 418 394
f 393 417 418
f 226 419 417
f 226 228 419
f 417 420 418
f 417 419 420
f 394 421 399
f 394 418 421
f 399 422 400
f 399 421 422
f 418 423 421
f 418 420 423
f 421 424 422
f 421 423 424
f 228 425 419
f 228 234 425
f 419 426 420
f 419 425 426
f 234 427 425
f 234 236 427
f 425 428 426
f 425 427 428
f 420 429 423
f 420 426 429
f 423 430 424
f 423 429 430
f 426 431 429
f 426 428 431
f 429 432 430
f 429 431 432
f 400 433 409
f 400 422 433
f 409 434 410
f 409 433 434
f 422 435 433
f 422 424 435
f 433 436 434
f 433 435 436
f 410 437 415
f 410 434 437
f 415 438 416
f 415 437 438
f 434 439 437
f 434 436 439
f 437 440 438
f 437 439 440
f 424 441 435
f 424 430 441
f 435 442 436
f 435 441 442
f 430 443 441
f 430 432 443
f 441 444 442
f 441 443 444
f 436 445 439
f 436 442 445
f 439 446 440
f 439 445 446
f 442 447 445
f 442 444 447
f 445 448 446
f 445 447 448
f 28 449 29
f 28 404 449
f 29 450 30
f 29 449 450
f 30 451 31
f 30 450 451
f 31 452 32
f 31 451 452
f 413 454 453
f 413 414 454
f 453 456 455
f 453 454 456
f 414 457 454
f 414 416 457
f 454 458 456
f 454 457 458
f 455 460 459
f 455 456 460
f 459 462 461
f 459 460 462
f 456 463 460
f 456 458 463
f 460 464 462
f 460 463 464
f 32 465 33
f 32 452 465
f 33 466 34
f 33 465 466
f 34 467 35
f 34 466 467
f 35 468 36
f 35 467 468
f 467 469 468
f 467 470 469
f 461 472 471
f 461 462 472
f 471 474 473
f 471 472 474
f 462 475 472
f 462 464 475
f 472 476 474
f 472 475 476
f 473 477 470
f 473 474 477
f 470 478 469
f 470 477 478
f 474 479 477
f 474 476 479
f 477 480 478
f 477 479 480
f 416 481 457
f 416 438 481
f 457 482 458
f 457 481 482
f 438 483 481
f 438 440 483
f 481 484 482
f 481 483 484
f 458 485 463
f 458 482 485
f 463 486 464
f 463 485 486
f 482 487 485
f 482 484 487
f 485 488 486
f 485 487 488
f 440 489 483
f 440 446 489
f 483 490 484
f 483 489 490
f 446 491 489
f 446 448 491
f 489 492 490
f 489 491 492
f 484 493 487
f 484 490 493
f 487 494 488
f 487 493 494
f 490 495 493
f 490 492 495
f 493 496 494
f 493 495 496
f 464 497 475
f 464 486 497
f 475 498 476
f 475 497 498
f 486 499 497
f 486 488 499
f 497 500 498
f 497 499 500
f 476 501 479
f 476 498 501
f 479 502 480
f 479 501 502
f 498 503 501
f 498 500 503
f 501 504 502
f 501 503 504
f 488 505 499
f 488 494 505
f 499 506 500
f 499 505 506
f 494 507 505
f 494 496 507
f 505 508 506
f 505 507 508
f 500 509 503
f 500 506 509
f 503 510 504
f 503 509 510
f 506 511 509
f 506 508 511
f 509 512 510
f 509 511 512
f 236 513 427
f 236 322 513
f 427 514 428
f 427 513 514
f 322 515 513
f 322 324 515
f 513 516 514
f 513 515 516
f 428 517 431
f 428 514 517
f 431 518 432
f 431 517 518
f 514 519 517
f 514 516 519
f 517 520 518
f 517 519 520
f 324 521 515
f 324 330 521
f 515 522 516
f 515 521 522
f 330 523 521
f 330 332 523
f 521 524 522
f 521 523 524
f 516 525 519
f 516 522 525
f 519 526 520
f 519 525 526
f 522 527 525
f 522 524 527
f 525 528 526
f 525 527 528
f 432 529 443
f 432 518 529
f 443 530 444
f 443 529 530
f 518 531 529
f 518 520 531
f 529 532 530
f 529 531 532
f 444 533 447
f 444 530 533
f 447 534 448
f 447 533 534
f 530 535 533
f 530 532 535
f 533 536 534
f 533 535 536
f 520 537 531
f 520 526 537
f 531 538 532
f 531 537 538
f 526 539 537
f 526 528 539
f 537 540 538
f 537 539 540
f 532 541 535
f 532 538 541
f 535 542 536
f 535 541 542
f 538 543 541
f 538 540 543
f 541 544 542
f 541 543 544
f 332 545 523
f 332 354 545
f 523 546 524
f 523 545 546
f 354 547 545
f 354 356 547
f 545 548 546
f 545 547 548
f 524 549 527
f 524 546 549
f 527 550 528
f 527 549 550
f 546 551 549
f 546 548 551
f 549 552 550
f 549 551 552
f 356 553 547
f 356 362 553
f 547 554 548
f 547 553 554
f 362 555 553
f 362 364 555
f 553 556 554
f 553 555 556
f 548 557 551
f 548 554 557
f 551 558 552
f 551 557 558
f 554 559 557
f 554 556 559
f 557 560 558
f 557 559 560
f 528 561 539
f 528 550 561
f 539 562 540
f 539 561 562
f 550 563 561
f 550 552 563
f 561 564 562
f 561 563 564
f 540 565 543
f 540 562 565
f 543 566 544
f 543 565 566
f 562 567 565
f 562 564 567
f 565 568 566
f 565 567 568
f 552 569 563
f 552 558 569
f 563 570 564
f 563 569 570
f 558 571 569
f 558 560 571
f 569 572 570
f 569 571 572
f 564 573 567
f 564 570 573
f 567 574 568
f 567 573 574
f 570 575 573
f 570 572 575
f 573 576 574
f 573 575 576
f 448 577 491
f 448 534 577
f 491 578 492
f 491 577 578
f 534 579 577
f 534 536 579
f 577 580 578
f 577 579 580
f 492 581 495
f 492 578 581
f 495 582 496
f 495 581 582
f 578 583 581
f 578 580 583
f 581 584 582
f 581 583 584
f 536 585 579
f 536 542 585
f 579 586 580
f 579 585 586
f 542 587 585
f 542 544 587
f 585 588 586
f 585 587 588
f 580 589 583
f 580 586 589
f 583 590 584
f 583 589 590
f 586 591 589
f 586 588 591
f 589 592 590
f 589 591 592
f 496 593 507
f 496 582 593
f 507 594 508
f 507 593 594
f 582 595 593
f 582 584 595
f 593 596 594
f 593 595 596
f 508 597 511
f 508 594 597
f 511 598 512
f 511 597 598
f 594 599 597
f 594 596 599
f 597 600 598
f 597 599 600
f 584 601 595
f 584 590 601
f 595 602 596
f 595 601 602
f 590 603 601
f 590 592 603
f 601 604 602
f 601 603 604
f 596 605 599
f 596 602 605
f 599 606 600
f 599 605 606
f 602 607 605
f 602 604 607
f 605 608 606
f 605 607 608
f 544 609 587
f 544 566 609
f 587 610 588
f 587 609 610
f 566 611 609
f 566 568 611
f 609 612 610
f 609 611 612
f 588 613 591
f 588 610 613
f 591 614 592
f 591 613 614
f 610 615 613
f 610 612 615
f 613 616 614
f 613 615 616
f 568 617 611
f 568 574 617
f 611 618 612
f 611 617 618
f 574 619 617
f 574 576 619
f 617 620 618
f 617 619 620
f 612 621 615
f 612 618 621
f 615 622 616
f 615 621 622
f 618 623 621
f 618 620 623
f 621 624 622
f 621 623 624
f 592 625 603
f 592 614 625
f 603 626 604
f 603 625 626
f 614 627 625
f 614 616 627
f 625 628 626
f 625 627 628
f 604 629 607
f 604 626 629
f 607 630 608
f 607 629 630
f 626 631 629
f 626 628 631
f 629 632 630
f 629 631 632
f 616 633 627
f 616 622 633
f 627 634 628
f 627 633 634
f 622 635 633
f 622 624 635
f 633 636 634
f 633 635 636
f 628 637 631
f 628 634 637
f 631 638 632
f 631 637 638
f 634 639 637
f 634 636 639
f 637 640 638
f 637 639 640
f 36 641 37
f 36 468 641
f 37 642 38
f 37 641 642
f 468 643 641
f 468 469 643
f 641 644 642
f 641 643 644
f 38 645 39
f 38 642 645
f 39 646 40
f 39 645 646
f 642 647 645
f 642 644 647
f 645 648 646
f 645 647 648
f 469 649 643
f 469 478 649
f 643 650 644
f 643 649 650
f 478 651 649
f 478 480 651
f 649 652 650
f 649 651 652
f 644 653 647
f 644 650 653
f 647 654 648
f 647 653 654
f 650 655 653
f 650 652 655
f 653 656 654
f 653 655 656
f 42 658 657
f 42 43 658
f 40 658 43
f 40 646 658
f 42 659 44
f 42 657 659
f 657 661 660
f 657 658 661
f 646 661 658
f 646 648 661
f 657 662 659
f 657 660 662
f 660 664 663
f 660 661 664
f 648 664 661
f 648 654 664
f 660 665 662
f 660 663 665
f 663 667 666
f 663 664 667
f 654 667 664
f 654 656 667
f 663 668 665
f 663 666 668
f 480 669 651
f 480 502 669
f 651 670 652
f 651 669 670
f 502 671 669
f 502 504 671
f 669 672 670
f 669 671 672
f 652 673 655
f 652 670 673
f 655 674 656
f 655 673 674
f 670 675 673
f 670 672 675
f 673 676 674
f 673 675 676
f 504 677 671
f 504 510 677
f 671 678 672
f 671 677 678
f 510 679 677
f 510 512 679
f 677 680 678
f 677 679 680
f 672 681 675
f 672 678 681
f 675 682 676
f 675 681 682
f 678 683 681
f 678 680 683
f 681 684 682
f 681 683 684
f 666 686 685
f 666 667 686
f 656 686 667
f 656 674 686
f 666 687 668
f 666 685 687
f 685 689 688
f 685 686 689
f 674 689 686
f 674 676 689
f 685 690 687
f 685 688 690
f 688 692 691
f 688 689 692
f 676 692 689
f 676 682 692
f 688 693 690
f 688 691 693
f 691 695 694
f 691 692 695
f 682 695 692
f 682 684 695
f 691 696 693
f 691 694 696
f 512 697 679
f 512 598 697
f 679 698 680
f 679 697 698
f 598 699 697
f 598 600 699
f 697 700 698
f 697 699 700
f 680 701 683
f 680 698 701
f 683 702 684
f 683 701 702
f 698 703 701
f 698 700 703
f 701 704 702
f 701 703 704
f 600 705 699
f 600 606 705
f 699 706 700
f 699 705 706
f 606 707 705
f 606 608 707
f 705 708 706
f 705 707 708
f 700 709 703
f 700 706 709
f 703 710 704
f 703 709 710
f 706 711 709
f 706 708 711
f 709 712 710
f 709 711 712
f 694 714 713
f 694 695 714
f 684 714 695
f 684 702 714
f 694 715 696
f 694 713 715
f 713 717 716
f 713 714 717
f 702 717 714
f 702 704 717
f 713 718 715
f 713 716 718
f 716 720 719
f 716 717 720
f 704 720 717
f 704 710 720
f 716 721 718
f 716 719 721
f 719 723 722
f 719 720 723
f 710 723 720
f 710 712 723
f 719 724 721
f 719 722 724
f 608 725 707
f 608 630 725
f 707 726 708
f 707 725 726
f 630 727 725
f 630 632 727
f 725 728 726
f 725 727 728
f 708 729 711
f 708 726 729
f 711 730 712
f 711 729 730
f 726 731 729
f 726 728 731
f 729 732 730
f 729 731 732
f 632 733 727
f 632 638 733
f 727 734 728
f 727 733 734
f 638 735 733
f 638 640 735
f 733 736 734
f 733 735 736
f 728 737 731
f 728 734 737
f 731 738 732
f 731 737 738
f 734 739 737
f 734 736 739
f 737 740 738
f 737 739 740
f 722 742 741
f 722 723 742
f 712 742 723
f 712 730 742
f 722 743 724
f 722 741 743
f 741 745 744
f 741 742 745
f 730 745 742
f 730 732 745
f 741 746 743
f 741 744 746
f 744 748 747
f 744 745 748
f 732 748 745
f 732 738 748
f 744 749 746
f 744 747 749
f 747 751 750
f 747 748 751
f 738 751 748
f 738 740 751
f 747 752 749
f 747 750 752
f 364 754 555
f 364 384 754
f 555 755 556
f 555 754 755
f 556 756 559
f 556 755 756
f 559 757 560
f 559 756 757
f 560 758 571
f 560 757 758
f 571 759 572
f 571 758 759
f 572 760 575
f 572 759 760
f 575 761 576
f 575 760 761
f 576 762 619
f 576 761 762
f 619 763 620
f 619 762 763
f 620 764 623
f 620 763 764
f 623 765 624
f 623 764 765
f 624 766 635
f 624 765 766
f 635 767 636
f 635 766 767
f 636 768 639
f 636 767 768
f 639 769 640
f 639 768 769
f 640 770 735
f 640 769 770
f 735 771 736
f 735 770 771
f 736 772 739
f 736 771 772
f 739 773 740
f 739 772 773
f 740 774 751
f 740 773 774
f 751 775 753
f 751 774 775
f 750 753 752
f 750 751 753
f 112 777 776
f 112 119 777
f 778 777 779
f 778 776 777
f 110 779 113
f 110 778 779
f 110 776 778
f 110 112 776
f 119 780 777
f 119 121 780
f 779 780 781
f 779 777 780
f 113 781 114
f 113 779 781
f 121 782 780
f 121 129 782
f 781 782 783
f 781 780 782
f 114 783 125
f 114 781 783
f 129 784 782
f 129 131 784
f 783 784 785
f 783 782 784
f 125 785 126
f 125 783 785
f 131 786 784
f 131 135 786
f 785 786 787
f 785 784 786
f 126 787 127
f 126 785 787
f 135 788 786
f 135 137 788
f 787 788 789
f 787 786 788
f 127 789 128
f 127 787 789
f 137 790 788
f 137 177 790
f 789 790 791
f 789 788 790
f 128 791 173
f 128 789 791
f 177 792 790
f 177 179 792
f 791 792 793
f 791 790 792
f 173 793 174
f 173 791 793
f 179 794 792
f 179 183 794
f 793 794 795
f 793 792 794
f 174 795 175
f 174 793 795
f 183 796 794
f 183 185 796
f 795 796 797
f 795 794 796
f 175 797 176
f 175 795 797
f 185 798 796
f 185 193 798
f 797 798 799
f 797 796 798
f 176 799 189
f 176 797 799
f 193 800 798
f 193 195 800
f 799 800 801
f 799 798 800
f 189 801 190
f 189 799 801
f 195 802 800
f 195 199 802
f 801 802 803
f 801 800 802
f 190 803 191
f 190 801 803
f 199 804 802
f 199 201 804
f 803 804 805
f 803 802 804
f 191 805 192
f 191 803 805
f 201 806 804
f 201 389 806
f 805 806 807
f 805 804 806
f 192 807 385
f 192 805 807
f 389 808 806
f 389 391 808
f 807 808 809
f 807 806 808
f 385 809 386
f 385 807 809
f 391 810 808
f 391 395 810
f 809 810 811
f 809 808 810
f 386 811 387
f 386 809 811
f 395 812 810
f 395 397 812
f 811 812 813
f 811 810 812
f 387 813 388
f 387 811 813
f 397 814 812
f 397 405 814
f 813 814 815
f 813 812 814
f 388 815 401
f 388 813 815
f 405 816 814
f 405 407 816
f 815 816 817
f 815 814 816
f 401 817 402
f 401 815 817
f 407 818 816
f 407 411 818
f 817 818 819
f 817 816 818
f 402 819 403
f 402 817 819
f 411 820 818
f 411 413 820
f 819 820 821
f 819 818 820
f 403 821 404
f 403 819 821
f 413 822 820
f 413 453 822
f 821 822 823
f 821 820 822
f 404 823 449
f 404 821 823
f 453 824 822
f 453 455 824
f 823 824 825
f 823 822 824
f 449 825 450
f 449 823 825
f 455 826 824
f 455 459 826
f 825 826 827
f 825 824 826
f 450 827 451
f 450 825 827
f 459 828 826
f 459 461 828
f 827 828 829
f 827 826 828
f 451 829 452
f 451 827 829
f 461 830 828
f 461 471 830
f 829 830 831
f 829 828 830
f 452 831 465
f 452 829 831
f 471 832 830
f 471 473 832
f 831 832 833
f 831 830 832
f 465 833 466
f 465 831 833
f 473 834 832
f 473 470 834
f 467 834 470
f 467 835 834
f 833 834 835
f 833 832 834
f 466 835 467
f 466 833 835

