# https://github.com/mikedh/trimesh
v -0.48916313 0.29566026 0.16081139
v -0.48991922 -0.30187224 0.16081139
v -0.48991922 0.30140680 0.16081139
v -0.48916313 -0.29612569 0.16081139
v -0.49911587 -0.33327145 0.16081139
v -0.48916313 0.30715335 0.16081139
v -0.48916313 0.29566026 0.18301395
v -0.48694479 0.29030552 0.16081139
v -0.48916313 -0.30761878 0.16081139
v -0.48991922 -0.30187224 0.18301395
v -0.49911587 0.33280601 0.16081139
v -0.48694479 0.31250808 0.16081139
v -0.48991922 0.30140680 0.18301395
v -0.48694479 0.29030552 0.18301395
v -0.48694479 -0.29077096 0.16081139
v -0.48916313 -0.30761878 0.18301395
v -0.48916313 -0.29612569 0.18301395
v -0.48694479 -0.31297352 0.16081139
v -0.49911587 0.33280601 0.18301395
v -0.48916313 0.30715335 0.18301395
v -0.48341658 0.31710609 0.16081139
v -0.48341658 0.28570752 0.18301395
v -0.48341658 0.28570752 0.16081139
v -0.48694479 -0.31297352 0.18301395
v -0.49911587 -0.33327145 0.18301395
v -0.48341658 -0.31757152 0.16081139
v 0.50000000 0.33280601 0.16081139
v -0.48694479 0.31250808 0.18301395
v -0.48694479 -0.29077096 0.18301395
v -0.48341658 -0.28617231 0.18301395
v -0.48341658 -0.28617231 0.16081139
v -0.47881794 -0.32110037 0.16081139
v -0.48341658 -0.31757152 0.18301395
v 0.50000000 -0.33327145 0.18301395
v 0.50000000 0.33280601 0.18301395
v -0.46771666 0.32360936 0.16081139
v -0.47881794 0.32063494 0.16081139
v -0.48341658 0.31710609 0.18301395
v -0.47881794 0.28217867 0.16081139
v -0.47881794 -0.28264410 0.18301395
v -0.47346320 -0.32331807 0.16081139
v -0.47881794 -0.28264410 0.16081139
v 0.50000000 -0.33327145 0.16081139
v -0.46771666 -0.32407480 0.18301395
v -0.46771666 0.32360936 0.18301395
v -0.47346320 0.32285263 0.16081139
v -0.46197075 0.32285263 0.16081139
v -0.47881794 0.32063494 0.18301395
v -0.47881794 0.28217867 0.18301395
v -0.47881794 -0.32110037 0.18301395
v -0.46771666 -0.32407480 0.16081139
v -0.47346320 -0.28042641 0.16081139
v -0.47346320 -0.32331807 0.18301395
v -0.46197075 -0.32331807 0.18301395
v -0.47346320 0.32285263 0.18301395
v -0.46197075 0.32285263 0.18301395
v 0.49080335 0.30140680 0.18301395
v -0.46771666 0.27920424 0.16081139
v -0.45661538 0.32063494 0.16081139
v -0.47346320 0.27996097 0.16081139
v -0.47346320 -0.28042641 0.18301395
v -0.46197075 -0.32331807 0.16081139
v 0.49080335 0.30140680 0.16081139
v -0.45661538 -0.32110037 0.18301395
v -0.45661538 0.32063494 0.18301395
v 0.49004662 0.30715335 0.18301395
v 0.49080335 -0.30187224 0.18301395
v -0.45201737 0.31710609 0.16081139
v -0.45661538 0.28217867 0.16081139
v -0.46197075 0.27996097 0.16081139
v -0.47346320 0.27996097 0.18301395
v -0.46771666 -0.27966968 0.16081139
v -0.46771666 -0.27966968 0.18301395
v -0.46197075 -0.28042641 0.16081139
v -0.45661538 -0.32110037 0.16081139
v 0.49080335 -0.30187224 0.16081139
v 0.49004662 0.30715335 0.16081139
v -0.45201737 -0.31757152 0.18301395
v -0.45201737 0.31710609 0.18301395
v 0.48782893 0.31250808 0.18301395
v 0.49004662 -0.30761878 0.18301395
v 0.49004662 0.29566026 0.18301395
v -0.44848916 0.31250808 0.16081139
v -0.46771666 0.27920424 0.18301395
v -0.45201737 -0.31757152 0.16081139
v 0.49004662 -0.30761878 0.16081139
v 0.49004662 -0.29612569 0.16081139
v 0.48782893 0.31250808 0.16081139
v 0.49004662 0.29566026 0.16081139
v -0.44848916 -0.31297352 0.18301395
v -0.44848916 0.31250808 0.18301395
v 0.48430008 0.31710609 0.18301395
v 0.48782893 -0.31297352 0.18301395
v 0.49004662 -0.29612569 0.18301395
v -0.44627083 0.30715335 0.16081139
v -0.45201737 0.28570752 0.16081139
v -0.45661538 -0.28264410 0.16081139
v -0.46197075 0.27996097 0.18301395
v -0.46197075 -0.28042641 0.18301395
v -0.45201737 -0.28617231 0.16081139
v -0.44848916 -0.31297352 0.16081139
v 0.48782893 -0.31297352 0.16081139
v 0.48430008 0.31710609 0.16081139
v 0.48782893 0.29030552 0.16081139
v -0.44627083 -0.30761878 0.18301395
v -0.44627083 0.30715335 0.18301395
v 0.47970207 0.32063494 0.18301395
v 0.48430008 -0.31757152 0.18301395
v 0.48782893 0.29030552 0.18301395
v -0.44551410 0.30140680 0.16081139
v -0.44848916 0.29030552 0.16081139
v -0.45661538 0.28217867 0.18301395
v -0.45661538 -0.28264410 0.18301395
v -0.44848916 -0.29077096 0.16081139
v -0.44627083 -0.30761878 0.16081139
v 0.48430008 -0.31757152 0.16081139
v 0.48782893 -0.29077096 0.16081139
v 0.48782893 -0.29077096 0.18301395
v 0.47970207 0.32063494 0.16081139
v 0.48430008 0.28570752 0.16081139
v -0.44551410 -0.30187224 0.18301395
v -0.44551410 0.30140680 0.18301395
v 0.47434734 0.32285263 0.18301395
v 0.47970207 -0.32110037 0.18301395
v 0.46285425 0.32285263 0.16081139
v -0.44627083 0.29566026 0.16081139
v -0.44848916 0.29030552 0.18301395
v -0.45201737 0.28570752 0.18301395
v -0.45201737 -0.28617231 0.18301395
v -0.44551410 -0.30187224 0.16081139
v 0.47970207 -0.32110037 0.16081139
v 0.48430008 -0.28617231 0.16081139
v 0.47434734 0.32285263 0.16081139
v 0.47970207 0.28217867 0.16081139
v 0.46285425 -0.32331807 0.18301395
v 0.46285425 0.32285263 0.18301395
v 0.46860079 0.32360936 0.18301395
v 0.47434734 -0.32331807 0.18301395
v 0.48430008 0.28570752 0.18301395
v 0.46860079 0.32360936 0.16081139
v 0.45749951 0.32063494 0.16081139
v -0.44627083 -0.29612569 0.16081139
v -0.44627083 0.29566026 0.18301395
v -0.44848916 -0.29077096 0.18301395
v 0.46285425 -0.32331807 0.16081139
v 0.47434734 -0.32331807 0.16081139
v 0.48430008 -0.28617231 0.18301395
v 0.47434734 0.27996097 0.16081139
v 0.47970207 -0.28264410 0.16081139
v 0.47970207 0.28217867 0.18301395
v 0.46860079 -0.32407480 0.18301395
v 0.45749951 -0.32110037 0.18301395
v 0.45749951 0.32063494 0.18301395
v 0.46285425 0.27996097 0.16081139
v 0.45749951 0.28217867 0.16081139
v 0.45290087 0.31710609 0.16081139
v 0.45749951 -0.32110037 0.16081139
v -0.44627083 -0.29612569 0.18301395
v 0.46860079 -0.32407480 0.16081139
v 0.46860079 0.27920424 0.16081139
v 0.47434734 -0.28042641 0.16081139
v 0.47434734 0.27996097 0.18301395
v 0.45290087 0.31710609 0.18301395
v 0.45290087 0.28570752 0.16081139
v 0.44937266 0.31250808 0.16081139
v 0.45290087 -0.31757152 0.16081139
v 0.46285425 -0.28042641 0.16081139
v 0.46860079 -0.27966968 0.16081139
v 0.46860079 0.27920424 0.18301395
v 0.47970207 -0.28264410 0.18301395
v 0.45290087 -0.31757152 0.18301395
v 0.44937266 0.31250808 0.18301395
v 0.45749951 -0.28264410 0.16081139
v 0.45749951 0.28217867 0.18301395
v 0.46285425 0.27996097 0.18301395
v 0.45290087 -0.28617231 0.16081139
v 0.45290087 0.28570752 0.18301395
v 0.44937266 0.29030552 0.16081139
v 0.44715496 0.30715335 0.16081139
v 0.44937266 -0.31297352 0.16081139
v 0.47434734 -0.28042641 0.18301395
v 0.44937266 -0.31297352 0.18301395
v 0.44715496 0.30715335 0.18301395
v 0.44937266 -0.29077096 0.16081139
v 0.44715496 0.29566026 0.16081139
v 0.44639823 0.30140680 0.16081139
v 0.44715496 -0.30761878 0.16081139
v 0.46285425 -0.28042641 0.18301395
v 0.46860079 -0.27966968 0.18301395
v 0.44715496 -0.30761878 0.18301395
v 0.44639823 0.30140680 0.18301395
v 0.45749951 -0.28264410 0.18301395
v 0.44937266 -0.29077096 0.18301395
v 0.44937266 0.29030552 0.18301395
v 0.44715496 -0.29612569 0.16081139
v 0.44639823 -0.30187224 0.16081139
v 0.44639823 -0.30187224 0.18301395
v 0.45290087 -0.28617231 0.18301395
v 0.44715496 -0.29612569 0.18301395
v 0.44715496 0.29566026 0.18301395
v -0.49004726 0.29612569 -0.10592856
v -0.49080335 -0.30140680 -0.10592856
v -0.49080335 0.30187224 -0.10592856
v -0.49004726 -0.29566026 -0.10592856
v -0.50000000 -0.33280601 -0.10592856
v -0.49004726 0.30761878 -0.10592856
v -0.49004726 0.29612569 -0.08372600
v -0.48782893 0.29077096 -0.10592856
v -0.49004726 -0.30715335 -0.10592856
v -0.49080335 -0.30140680 -0.08372600
v -0.50000000 0.33327145 -0.10592856
v -0.48782893 0.31297352 -0.10592856
v -0.49080335 0.30187224 -0.08372600
v -0.48782893 0.29077096 -0.08372600
v -0.48782893 -0.29030552 -0.10592856
v -0.49004726 -0.30715335 -0.08372600
v -0.49004726 -0.29566026 -0.08372600
v -0.48782893 -0.31250808 -0.10592856
v -0.50000000 0.33327145 -0.08372600
v -0.49004726 0.30761878 -0.08372600
v -0.48430072 0.31757152 -0.10592856
v -0.48430072 0.28617231 -0.08372600
v -0.48430072 0.28617231 -0.10592856
v -0.48782893 -0.31250808 -0.08372600
v -0.50000000 -0.33280601 -0.08372600
v -0.48430072 -0.31710673 -0.10592856
v 0.49911587 0.33327145 -0.10592856
v -0.48782893 0.31297352 -0.08372600
v -0.48782893 -0.29030552 -0.08372600
v -0.48430072 -0.28570752 -0.08372600
v -0.48430072 -0.28570752 -0.10592856
v -0.47970207 -0.32063494 -0.10592856
v -0.48430072 -0.31710673 -0.08372600
v 0.49911587 -0.33280601 -0.08372600
v 0.49911587 0.33327145 -0.08372600
v -0.46860079 0.32407480 -0.10592856
v -0.47970207 0.32110037 -0.10592856
v -0.48430072 0.31757152 -0.08372600
v -0.47970207 0.28264410 -0.10592856
v -0.47970207 -0.28217867 -0.08372600
v -0.47434734 -0.32285327 -0.10592856
v -0.47970207 -0.28217867 -0.10592856
v 0.49911587 -0.33280601 -0.10592856
v -0.46860079 -0.32360936 -0.08372600
v -0.46860079 0.32407480 -0.08372600
v -0.47434734 0.32331807 -0.10592856
v -0.46285489 0.32331807 -0.10592856
v -0.47970207 0.32110037 -0.08372600
v -0.47970207 0.28264410 -0.08372600
v -0.47970207 -0.32063494 -0.08372600
v -0.46860079 -0.32360936 -0.10592856
v -0.47434734 -0.27996097 -0.10592856
v -0.47434734 -0.32285327 -0.08372600
v -0.46285489 -0.32285327 -0.08372600
v -0.47434734 0.32331807 -0.08372600
v -0.46285489 0.32331807 -0.08372600
v 0.48991922 0.30187224 -0.08372600
v -0.46860079 0.27966968 -0.10592856
v -0.45749951 0.32110037 -0.10592856
v -0.47434734 0.28042577 -0.10592856
v -0.47434734 -0.27996097 -0.08372600
v -0.46285489 -0.32285327 -0.10592856
v 0.48991922 0.30187224 -0.10592856
v -0.45749951 -0.32063494 -0.08372600
v -0.45749951 0.32110037 -0.08372600
v 0.48916249 0.30761878 -0.08372600
v 0.48991922 -0.30140680 -0.08372600
v -0.45290151 0.31757152 -0.10592856
v -0.45749951 0.28264410 -0.10592856
v -0.46285489 0.28042577 -0.10592856
v -0.47434734 0.28042577 -0.08372600
v -0.46860079 -0.27920424 -0.10592856
v -0.46860079 -0.27920424 -0.08372600
v -0.46285489 -0.27996097 -0.10592856
v -0.45749951 -0.32063494 -0.10592856
v 0.48991922 -0.30140680 -0.10592856
v 0.48916249 0.30761878 -0.10592856
v -0.45290151 -0.31710673 -0.08372600
v -0.45290151 0.31757152 -0.08372600
v 0.48694479 0.31297352 -0.08372600
v 0.48916249 -0.30715335 -0.08372600
v 0.48916249 0.29612569 -0.08372600
v -0.44937330 0.31297352 -0.10592856
v -0.46860079 0.27966968 -0.08372600
v -0.45290151 -0.31710673 -0.10592856
v 0.48916249 -0.30715335 -0.10592856
v 0.48916249 -0.29566026 -0.10592856
v 0.48694479 0.31297352 -0.10592856
v 0.48916249 0.29612569 -0.10592856
v -0.44937330 -0.31250808 -0.08372600
v -0.44937330 0.31297352 -0.08372600
v 0.48341658 0.31757152 -0.08372600
v 0.48694479 -0.31250808 -0.08372600
v 0.48916249 -0.29566026 -0.08372600
v -0.44715496 0.30761878 -0.10592856
v -0.45290151 0.28617231 -0.10592856
v -0.45749951 -0.28217867 -0.10592856
v -0.46285489 0.28042577 -0.08372600
v -0.46285489 -0.27996097 -0.08372600
v -0.45290151 -0.28570752 -0.10592856
v -0.44937330 -0.31250808 -0.10592856
v 0.48694479 -0.31250808 -0.10592856
v 0.48341658 0.31757152 -0.10592856
v 0.48694479 0.29077096 -0.10592856
v -0.44715496 -0.30715335 -0.08372600
v -0.44715496 0.30761878 -0.08372600
v 0.47881794 0.32110037 -0.08372600
v 0.48341658 -0.31710673 -0.08372600
v 0.48694479 0.29077096 -0.08372600
v -0.44639823 0.30187224 -0.10592856
v -0.44937330 0.29077096 -0.10592856
v -0.45749951 0.28264410 -0.08372600
v -0.45749951 -0.28217867 -0.08372600
v -0.44937330 -0.29030552 -0.10592856
v -0.44715496 -0.30715335 -0.10592856
v 0.48341658 -0.31710673 -0.10592856
v 0.48694479 -0.29030552 -0.10592856
v 0.48694479 -0.29030552 -0.08372600
v 0.47881794 0.32110037 -0.10592856
v 0.48341658 0.28617231 -0.10592856
v -0.44639823 -0.30140680 -0.08372600
v -0.44639823 0.30187224 -0.08372600
v 0.47346320 0.32331807 -0.08372600
v 0.47881794 -0.32063494 -0.08372600
v 0.46197011 0.32331807 -0.10592856
v -0.44715496 0.29612569 -0.10592856
v -0.44937330 0.29077096 -0.08372600
v -0.45290151 0.28617231 -0.08372600
v -0.45290151 -0.28570752 -0.08372600
v -0.44639823 -0.30140680 -0.10592856
v 0.47881794 -0.32063494 -0.10592856
v 0.48341658 -0.28570752 -0.10592856
v 0.47346320 0.32331807 -0.10592856
v 0.47881794 0.28264410 -0.10592856
v 0.46197011 -0.32285327 -0.08372600
v 0.46197011 0.32331807 -0.08372600
v 0.46771666 0.32407480 -0.08372600
v 0.47346320 -0.32285327 -0.08372600
v 0.48341658 0.28617231 -0.08372600
v 0.46771666 0.32407480 -0.10592856
v 0.45661538 0.32110037 -0.10592856
v -0.44715496 -0.29566026 -0.10592856
v -0.44715496 0.29612569 -0.08372600
v -0.44937330 -0.29030552 -0.08372600
v 0.46197011 -0.32285327 -0.10592856
v 0.47346320 -0.32285327 -0.10592856
v 0.48341658 -0.28570752 -0.08372600
v 0.47346320 0.28042577 -0.10592856
v 0.47881794 -0.28217867 -0.10592856
v 0.47881794 0.28264410 -0.08372600
v 0.46771666 -0.32360936 -0.08372600
v 0.45661538 -0.32063494 -0.08372600
v 0.45661538 0.32110037 -0.08372600
v 0.46197011 0.28042577 -0.10592856
v 0.45661538 0.28264410 -0.10592856
v 0.45201737 0.31757152 -0.10592856
v 0.45661538 -0.32063494 -0.10592856
v -0.44715496 -0.29566026 -0.08372600
v 0.46771666 -0.32360936 -0.10592856
v 0.46771666 0.27966968 -0.10592856
v 0.47346320 -0.27996097 -0.10592856
v 0.47346320 0.28042577 -0.08372600
v 0.45201737 0.31757152 -0.08372600
v 0.45201737 0.28617231 -0.10592856
v 0.44848852 0.31297352 -0.10592856
v 0.45201737 -0.31710673 -0.10592856
v 0.46197011 -0.27996097 -0.10592856
v 0.46771666 -0.27920424 -0.10592856
v 0.46771666 0.27966968 -0.08372600
v 0.47881794 -0.28217867 -0.08372600
v 0.45201737 -0.31710673 -0.08372600
v 0.44848852 0.31297352 -0.08372600
v 0.45661538 -0.28217867 -0.10592856
v 0.45661538 0.28264410 -0.08372600
v 0.46197011 0.28042577 -0.08372600
v 0.45201737 -0.28570752 -0.10592856
v 0.45201737 0.28617231 -0.08372600
v 0.44848852 0.29077096 -0.10592856
v 0.44627083 0.30761878 -0.10592856
v 0.44848852 -0.31250808 -0.10592856
v 0.47346320 -0.27996097 -0.08372600
v 0.44848852 -0.31250808 -0.08372600
v 0.44627083 0.30761878 -0.08372600
v 0.44848852 -0.29030552 -0.10592856
v 0.44627083 0.29612569 -0.10592856
v 0.44551410 0.30187224 -0.10592856
v 0.44627083 -0.30715335 -0.10592856
v 0.46197011 -0.27996097 -0.08372600
v 0.46771666 -0.27920424 -0.08372600
v 0.44627083 -0.30715335 -0.08372600
v 0.44551410 0.30187224 -0.08372600
v 0.45661538 -0.28217867 -0.08372600
v 0.44848852 -0.29030552 -0.08372600
v 0.44848852 0.29077096 -0.08372600
v 0.44627083 -0.29566026 -0.10592856
v 0.44551410 -0.30140680 -0.10592856
v 0.44551410 -0.30140680 -0.08372600
v 0.45201737 -0.28570752 -0.08372600
v 0.44627083 -0.29566026 -0.08372600
v 0.44627083 0.29612569 -0.08372600
v 0.12218899 0.33327145 0.01618553
v 0.12218899 -0.33280601 0.03838809
v 0.12218899 -0.33280601 0.01618553
v 0.12218899 0.33327145 0.03838809
v -0.25689797 -0.33280601 0.01618553
v -0.29521979 0.33327145 0.03838809
v -0.27301723 -0.33280601 0.01618553
v -0.25689797 0.33327145 0.01618553
v -0.29521979 -0.33280601 0.03838809
v -0.27301723 0.33327145 0.01618553
v -0.29521979 -0.33280601 -0.08328169
v -0.29521979 0.33327145 -0.08328169
v -0.27301723 -0.33280601 -0.08372600
v -0.27301723 0.33327145 -0.08372600
v -0.01656933 0.33280601 0.16081139
v 0.25629553 0.33327145 -0.08372600
v 0.21189041 0.33327145 -0.08372600
v 0.02783579 0.33280601 0.16081139
v 0.21189041 -0.33280345 -0.08499298
v 0.02783579 -0.33326889 0.15954441
v 0.25629553 -0.33280345 -0.08499298
v -0.01656933 -0.33326889 0.15954441
v -0.49338853 -0.29474347 0.26803350
v -0.49435909 -0.30163088 0.24139043
v -0.49435909 -0.30163088 0.26803350
v -0.49338853 -0.29474347 0.24139043
v -0.49351337 -0.30853429 0.24139043
v -0.49351337 -0.30853429 0.26803350
v -0.49066891 -0.28834199 0.26803350
v -0.49091027 -0.31498378 0.26803350
v -0.49066891 -0.28834199 0.24139043
v -0.49091027 -0.31498378 0.24139043
v -0.48638461 -0.28286241 0.26803350
v -0.48672648 -0.32054019 0.26803350
v -0.48672648 -0.32054019 0.24139043
v -0.48638461 -0.28286241 0.24139043
v -0.48991922 -0.30187224 0.24139043
v -0.48916313 -0.30761878 0.24139043
v -0.48082884 -0.27867863 0.24139043
v -0.48916313 -0.29612569 0.24139043
v -0.48124754 -0.32482385 0.26803350
v -0.48694479 -0.31297352 0.24139043
v -0.48082884 -0.27867863 0.26803350
v -0.48341658 -0.28617231 0.24139043
v -0.48694479 -0.29077096 0.24139043
v -0.48916313 -0.29612569 -0.22584031
v -0.48991922 -0.30187224 -0.22584031
v -0.48124754 -0.32482385 0.24139043
v -0.48916313 -0.30761878 -0.22584031
v -0.48341658 -0.31757152 0.24139043
v -0.47437871 -0.27607552 0.24139043
v -0.47881794 -0.28264410 0.24139043
v -0.48694479 -0.29077096 -0.22584031
v -0.47484606 -0.32754411 0.26803350
v -0.48694479 -0.31297352 -0.22584031
v -0.47437871 -0.27607552 0.26803350
v -0.48341658 -0.28617231 -0.22584031
v -0.49098709 -0.28889706 -0.22584031
v -0.48683596 -0.28331633 -0.22584031
v -0.49058888 -0.31553693 -0.22584031
v -0.47881794 -0.32110037 0.24139043
v -0.47484606 -0.32754411 0.24139043
v -0.48627257 -0.32099089 -0.22584031
v -0.48341658 -0.31757152 -0.22584031
v -0.46747530 -0.27523044 0.24139043
v -0.47346320 -0.28042641 0.24139043
v -0.47881794 -0.28264410 -0.22584031
v -0.46795866 -0.32851403 0.26803350
v -0.47881794 -0.32110037 -0.22584031
v -0.46747530 -0.27523044 0.26803350
v -0.48138199 -0.27900001 -0.22584031
v -0.49334627 -0.30915209 -0.22584031
v -0.49098709 -0.28889706 -0.25248402
v -0.48627257 -0.32099089 -0.25248402
v -0.47346320 -0.32331807 -0.22584031
v -0.47346320 -0.32331807 0.24139043
v -0.46795866 -0.32851403 0.24139043
v -0.48069184 -0.32514267 -0.22584031
v -0.46058789 -0.27620037 0.24139043
v -0.46771666 -0.27966968 0.24139043
v -0.47346320 -0.28042641 -0.22584031
v -0.47499651 -0.27624262 -0.22584031
v -0.48138199 -0.27900001 -0.25248402
v -0.46105461 -0.32766895 0.26803350
v -0.49355242 -0.29536192 -0.22584031
v -0.49058888 -0.31553693 -0.25248402
v -0.48683596 -0.28331633 -0.25248402
v -0.49355242 -0.29536192 -0.25248402
v -0.47422698 -0.32770736 -0.22584031
v -0.46058789 -0.27620037 0.26803350
v -0.46197075 -0.28042641 0.24139043
v -0.47499651 -0.27624262 -0.25248402
v -0.49435717 -0.30227045 -0.22584031
v -0.49334627 -0.30915209 -0.25248402
v -0.48069184 -0.32514267 -0.25248402
v -0.46771666 -0.32407480 -0.22584031
v -0.46731845 -0.32851211 -0.22584031
v -0.46771666 -0.32407480 0.24139043
v -0.46105461 -0.32766895 0.24139043
v -0.45418641 -0.27892063 0.24139043
v -0.45661538 -0.28264410 0.24139043
v -0.46771666 -0.27966968 -0.22584031
v -0.46811487 -0.27523237 -0.22584031
v -0.46811487 -0.27523237 -0.25248402
v -0.45460511 -0.32506585 0.26803350
v -0.49435717 -0.30227045 -0.25248402
v -0.47422698 -0.32770736 -0.25248402
v -0.45418641 -0.27892063 0.26803350
v -0.46197075 -0.28042641 -0.22584031
v -0.46197075 -0.32331807 -0.22584031
v -0.46731845 -0.32851211 -0.25248402
v -0.46197075 -0.32331807 0.24139043
v -0.45460511 -0.32506585 0.24139043
v -0.44870748 -0.28320429 0.24139043
v -0.45201737 -0.28617231 0.24139043
v -0.45661538 -0.28264410 -0.22584031
v -0.46120634 -0.27603647 -0.22584031
v -0.46120634 -0.27603647 -0.25248402
v -0.44904935 -0.32088206 0.26803350
v -0.46043744 -0.32750121 -0.22584031
v -0.45661538 -0.32110037 0.24139043
v -0.44870748 -0.28320429 0.26803350
v -0.45661538 -0.32110037 -0.22584031
v -0.46043744 -0.32750121 -0.25248402
v -0.45201737 -0.31757152 0.24139043
v -0.44904935 -0.32088206 0.24139043
v -0.44452369 -0.28876069 0.26803350
v -0.44848916 -0.29077096 0.24139043
v -0.45201737 -0.28617231 -0.22584031
v -0.45474148 -0.27860180 -0.22584031
v -0.45474148 -0.27860180 -0.25248402
v -0.44476505 -0.31540248 0.26803350
v -0.45405197 -0.32474382 -0.22584031
v -0.45201737 -0.31757152 -0.22584031
v -0.44476505 -0.31540248 0.24139043
v -0.44452369 -0.28876069 0.24139043
v -0.44848916 -0.29077096 -0.22584031
v -0.45405197 -0.32474382 -0.25248402
v -0.44848916 -0.31297352 0.24139043
v -0.44191995 -0.29521019 0.26803350
v -0.44204543 -0.30900100 0.26803350
v -0.44627083 -0.29612569 0.24139043
v -0.44627083 -0.29612569 -0.22584031
v -0.44916139 -0.28275294 -0.22584031
v -0.44916139 -0.28275294 -0.25248402
v -0.44204543 -0.30900100 0.24139043
v -0.44859800 -0.32042815 -0.22584031
v -0.44848916 -0.31297352 -0.22584031
v -0.44627083 -0.30761878 0.24139043
v -0.44191995 -0.29521019 0.24139043
v -0.44551410 -0.30187224 0.24139043
v -0.44484508 -0.28820755 -0.22584031
v -0.44859800 -0.32042815 -0.25248402
v -0.44107487 -0.30211360 0.26803350
v -0.44107487 -0.30211360 0.24139043
v -0.44551410 -0.30187224 -0.22584031
v -0.44444686 -0.31484742 -0.22584031
v -0.44444686 -0.31484742 -0.25248402
v -0.44627083 -0.30761878 -0.22584031
v -0.44484508 -0.28820755 -0.25248402
v -0.44208768 -0.29459238 -0.22584031
v -0.44188153 -0.30838255 -0.25248402
v -0.44208768 -0.29459238 -0.25248402
v -0.44188153 -0.30838255 -0.22584031
v -0.44107679 -0.30147402 -0.22584031
v -0.44107679 -0.30147402 -0.25248402
v 0.44216387 -0.29378315 0.26803350
v 0.44119330 -0.30066992 0.24139043
v 0.44119330 -0.30066992 0.26803350
v 0.44216387 -0.29378315 0.24139043
v 0.44203902 -0.30757397 0.24139043
v 0.44203902 -0.30757397 0.26803350
v 0.44488349 -0.28738167 0.26803350
v 0.44464213 -0.31402347 0.26803350
v 0.44488349 -0.28738167 0.24139043
v 0.44464213 -0.31402347 0.24139043
v 0.44916779 -0.28190210 0.26803350
v 0.44882591 -0.31957987 0.26803350
v 0.44882591 -0.31957987 0.24139043
v 0.44916779 -0.28190210 0.24139043
v 0.44563318 -0.30091192 0.24139043
v 0.44638927 -0.30665846 0.24139043
v 0.45472355 -0.27771831 0.24139043
v 0.44638927 -0.29516537 0.24139043
v 0.45430549 -0.32386353 0.26803350
v 0.44860760 -0.31201320 0.24139043
v 0.45472355 -0.27771831 0.26803350
v 0.45213581 -0.28521199 0.24139043
v 0.44860760 -0.28981064 0.24139043
v 0.44638927 -0.29516537 -0.22584031
v 0.44563318 -0.30091192 -0.22584031
v 0.45430549 -0.32386353 0.24139043
v 0.44638927 -0.30665846 -0.22584031
v 0.45213581 -0.31661120 0.24139043
v 0.46117369 -0.27511521 0.24139043
v 0.45673446 -0.28168378 0.24139043
v 0.44860760 -0.28981064 -0.22584031
v 0.46070633 -0.32658315 0.26803350
v 0.44860760 -0.31201320 -0.22584031
v 0.46117369 -0.27511521 0.26803350
v 0.45213581 -0.28521199 -0.22584031
v 0.44456530 -0.28793674 -0.22584031
v 0.44871644 -0.28235601 -0.22584031
v 0.44496351 -0.31457661 -0.22584031
v 0.45673446 -0.32014005 0.24139043
v 0.46070633 -0.32658315 0.24139043
v 0.44927983 -0.32003058 -0.22584031
v 0.45213581 -0.31661120 -0.22584031
v 0.46807710 -0.27426949 0.24139043
v 0.46208919 -0.27946545 0.24139043
v 0.45673446 -0.28168378 -0.22584031
v 0.46759374 -0.32755371 0.26803350
v 0.45673446 -0.32014005 -0.22584031
v 0.46807710 -0.27426949 0.26803350
v 0.45417041 -0.27803970 -0.22584031
v 0.44220612 -0.30819177 -0.22584031
v 0.44456530 -0.28793674 -0.25248402
v 0.44927983 -0.32003058 -0.25248402
v 0.46208919 -0.32235775 -0.22584031
v 0.46208919 -0.32235775 0.24139043
v 0.46759374 -0.32755371 0.24139043
v 0.45486056 -0.32418171 -0.22584031
v 0.47496450 -0.27524005 0.24139043
v 0.46783574 -0.27870936 0.24139043
v 0.46208919 -0.27946545 -0.22584031
v 0.46055588 -0.27528230 -0.22584031
v 0.45417041 -0.27803970 -0.25248402
v 0.47449779 -0.32670863 0.26803350
v 0.44199997 -0.29440160 -0.22584031
v 0.44496351 -0.31457661 -0.25248402
v 0.44871644 -0.28235601 -0.25248402
v 0.44199997 -0.29440160 -0.25248402
v 0.46132542 -0.32674704 -0.22584031
v 0.47496450 -0.27524005 0.26803350
v 0.47358228 -0.27946545 0.24139043
v 0.46055588 -0.27528230 -0.25248402
v 0.44119523 -0.30131013 -0.22584031
v 0.44220612 -0.30819177 -0.25248402
v 0.45486056 -0.32418171 -0.25248402
v 0.46783574 -0.32311448 -0.22584031
v 0.46823395 -0.32755179 -0.22584031
v 0.46783574 -0.32311448 0.24139043
v 0.47449779 -0.32670863 0.24139043
v 0.48136598 -0.27795967 0.24139043
v 0.47893702 -0.28168378 0.24139043
v 0.46783574 -0.27870936 -0.22584031
v 0.46743752 -0.27427141 -0.22584031
v 0.46743752 -0.27427141 -0.25248402
v 0.48094728 -0.32410553 0.26803350
v 0.44119523 -0.30131013 -0.25248402
v 0.46132542 -0.32674704 -0.25248402
v 0.48136598 -0.27795967 0.26803350
v 0.47358228 -0.27946545 -0.22584031
v 0.47358228 -0.32235775 -0.22584031
v 0.46823395 -0.32755179 -0.25248402
v 0.47358228 -0.32235775 0.24139043
v 0.48094728 -0.32410553 0.24139043
v 0.48684492 -0.28224397 0.24139043
v 0.48353502 -0.28521199 0.24139043
v 0.47893702 -0.28168378 -0.22584031
v 0.47434606 -0.27507615 -0.22584031
v 0.47434606 -0.27507615 -0.25248402
v 0.48650369 -0.31992110 0.26803350
v 0.47511495 -0.32654089 -0.22584031
v 0.47893702 -0.32014005 0.24139043
v 0.48684492 -0.28224397 0.26803350
v 0.47893702 -0.32014005 -0.22584031
v 0.47511495 -0.32654089 -0.25248402
v 0.48353502 -0.31661120 0.24139043
v 0.48650369 -0.31992110 0.24139043
v 0.49102871 -0.28780037 0.26803350
v 0.48706323 -0.28981064 0.24139043
v 0.48353502 -0.28521199 -0.22584031
v 0.48081092 -0.27764148 -0.22584031
v 0.48081092 -0.27764148 -0.25248402
v 0.49078735 -0.31444216 0.26803350
v 0.48150043 -0.32378350 -0.22584031
v 0.48353502 -0.31661120 -0.22584031
v 0.49078735 -0.31444216 0.24139043
v 0.49102871 -0.28780037 0.24139043
v 0.48706323 -0.28981064 -0.22584031
v 0.48150043 -0.32378350 -0.25248402
v 0.48706323 -0.31201320 0.24139043
v 0.49363245 -0.29424987 0.26803350
v 0.49350697 -0.30804068 0.26803350
v 0.48928157 -0.29516537 0.24139043
v 0.48928157 -0.29516537 -0.22584031
v 0.48639165 -0.28179262 -0.22584031
v 0.48639165 -0.28179262 -0.25248402
v 0.49350697 -0.30804068 0.24139043
v 0.48695440 -0.31946783 -0.22584031
v 0.48706323 -0.31201320 -0.22584031
v 0.48928157 -0.30665846 0.24139043
v 0.49363245 -0.29424987 0.24139043
v 0.49003830 -0.30091192 0.24139043
v 0.49070732 -0.28724659 -0.22584031
v 0.48695440 -0.31946783 -0.25248402
v 0.49447753 -0.30115328 0.26803350
v 0.49447753 -0.30115328 0.24139043
v 0.49003830 -0.30091192 -0.22584031
v 0.49110553 -0.31388710 -0.22584031
v 0.49110553 -0.31388710 -0.25248402
v 0.48928157 -0.30665846 -0.22584031
v 0.49070732 -0.28724659 -0.25248402
v 0.49346471 -0.29363206 -0.22584031
v 0.49367086 -0.30742224 -0.25248402
v 0.49346471 -0.29363206 -0.25248402
v 0.49367086 -0.30742224 -0.22584031
v 0.49447561 -0.30051371 -0.22584031
v 0.49447561 -0.30051371 -0.25248402
v -0.49478739 0.30975773 0.25248338
v -0.49575795 0.30287033 0.22584031
v -0.49575795 0.30287033 0.25248338
v -0.49478739 0.30975773 0.22584031
v -0.49491223 0.29596628 0.22584031
v -0.49491223 0.29596628 0.25248338
v -0.49206777 0.31615857 0.25248338
v -0.49230913 0.28951678 0.25248338
v -0.49206777 0.31615857 0.22584031
v -0.49230913 0.28951678 0.22584031
v -0.48778347 0.32163815 0.25248338
v -0.48812534 0.28396102 0.25248338
v -0.48812534 0.28396102 0.22584031
v -0.48778347 0.32163815 0.22584031
v -0.49131808 0.30262833 0.22584031
v -0.49056199 0.29688242 0.22584031
v -0.48222771 0.32582194 0.22584031
v -0.49056199 0.30837487 0.22584031
v -0.48264577 0.27967672 0.25248338
v -0.48834366 0.29152705 0.22584031
v -0.48222771 0.32582194 0.25248338
v -0.48481545 0.31832825 0.22584031
v -0.48834366 0.31372961 0.22584031
v -0.49056199 0.30837487 -0.24139043
v -0.49131808 0.30262833 -0.24139043
v -0.48264577 0.27967672 0.22584031
v -0.49056199 0.29688242 -0.24139043
v -0.48481545 0.28692904 0.22584031
v -0.47577757 0.32842504 0.22584031
v -0.48021680 0.32185646 0.22584031
v -0.48834366 0.31372961 -0.24139043
v -0.47624428 0.27695710 0.25248338
v -0.48834366 0.29152705 -0.24139043
v -0.47577757 0.32842504 0.25248338
v -0.48481545 0.31832825 -0.24139043
v -0.49238596 0.31560351 -0.24139043
v -0.48823482 0.32118424 -0.24139043
v -0.49198774 0.28896364 -0.24139043
v -0.48021680 0.28340083 0.22584031
v -0.47624428 0.27695710 0.22584031
v -0.48767143 0.28350967 -0.24139043
v -0.48481545 0.28692904 -0.24139043
v -0.46887416 0.32927076 0.22584031
v -0.47486207 0.32407480 0.22584031
v -0.48021680 0.32185646 -0.24139043
v -0.46935752 0.27598654 0.25248338
v -0.48021680 0.28340083 -0.24139043
v -0.46887416 0.32927076 0.25248338
v -0.48278085 0.32550055 -0.24139043
v -0.49474514 0.29534911 -0.24139043
v -0.49238596 0.31560351 -0.26803350
v -0.48767143 0.28350967 -0.26803350
v -0.47486207 0.28118250 -0.24139043
v -0.47486207 0.28118250 0.22584031
v -0.46935752 0.27598654 0.22584031
v -0.48209070 0.27935853 -0.24139043
v -0.46198676 0.32830020 0.22584031
v -0.46911552 0.32483089 0.22584031
v -0.47486207 0.32407480 -0.24139043
v -0.47639537 0.32825794 -0.24139043
v -0.48278085 0.32550055 -0.26803350
v -0.46245347 0.27683162 0.25248338
v -0.49495129 0.30913865 -0.24139043
v -0.49198774 0.28896364 -0.26803350
v -0.48823482 0.32118424 -0.26803350
v -0.49495129 0.30913865 -0.26803350
v -0.47562584 0.27679320 -0.24139043
v -0.46198676 0.32830020 0.25248338
v -0.46336898 0.32407480 0.22584031
v -0.47639537 0.32825794 -0.26803350
v -0.49575603 0.30223012 -0.24139043
v -0.49474514 0.29534911 -0.26803350
v -0.48209070 0.27935853 -0.26803350
v -0.46911552 0.28042577 -0.24139043
v -0.46871731 0.27598846 -0.24139043
v -0.46911552 0.28042577 0.22584031
v -0.46245347 0.27683162 0.22584031
v -0.45558528 0.32558058 0.22584031
v -0.45801424 0.32185646 0.22584031
v -0.46911552 0.32483089 -0.24139043
v -0.46951373 0.32926884 -0.24139043
v -0.46951373 0.32926884 -0.26803350
v -0.45600397 0.27943536 0.25248338
v -0.49575603 0.30223012 -0.26803350
v -0.47562584 0.27679320 -0.26803350
v -0.45558528 0.32558058 0.25248338
v -0.46336898 0.32407480 -0.24139043
v -0.46336898 0.28118250 -0.24139043
v -0.46871731 0.27598846 -0.26803350
v -0.46336898 0.28118250 0.22584031
v -0.45600397 0.27943536 0.22584031
v -0.45010634 0.32129628 0.22584031
v -0.45341624 0.31832825 0.22584031
v -0.45801424 0.32185646 -0.24139043
v -0.46260520 0.32846409 -0.24139043
v -0.46260520 0.32846409 -0.26803350
v -0.45044757 0.28361915 0.25248338
v -0.46183631 0.27699935 -0.24139043
v -0.45801424 0.28340083 0.22584031
v -0.45010634 0.32129628 0.25248338
v -0.45801424 0.28340083 -0.24139043
v -0.46183631 0.27699935 -0.26803350
v -0.45341624 0.28692904 0.22584031
v -0.45044757 0.28361915 0.22584031
v -0.44592255 0.31574051 0.25248338
v -0.44988803 0.31372961 0.22584031
v -0.45341624 0.31832825 -0.24139043
v -0.45614034 0.32589876 -0.24139043
v -0.45614034 0.32589876 -0.26803350
v -0.44616391 0.28909808 0.25248338
v -0.45545083 0.27975674 -0.24139043
v -0.45341624 0.28692904 -0.24139043
v -0.44616391 0.28909808 0.22584031
v -0.44592255 0.31574051 0.22584031
v -0.44988803 0.31372961 -0.24139043
v -0.45545083 0.27975674 -0.26803350
v -0.44988803 0.29152705 0.22584031
v -0.44331881 0.30929038 0.25248338
v -0.44344429 0.29549956 0.25248338
v -0.44766969 0.30837487 0.22584031
v -0.44766969 0.30837487 -0.24139043
v -0.45055961 0.32174763 -0.24139043
v -0.45055961 0.32174763 -0.26803350
v -0.44344429 0.29549956 0.22584031
v -0.44999686 0.28407306 -0.24139043
v -0.44988803 0.29152705 -0.24139043
v -0.44766969 0.29688242 0.22584031
v -0.44331881 0.30929038 0.22584031
v -0.44691296 0.30262833 0.22584031
v -0.44624394 0.31629366 -0.24139043
v -0.44999686 0.28407306 -0.26803350
v -0.44247373 0.30238697 0.25248338
v -0.44247373 0.30238697 0.22584031
v -0.44691296 0.30262833 -0.24139043
v -0.44584573 0.28965315 -0.24139043
v -0.44584573 0.28965315 -0.26803350
v -0.44766969 0.29688242 -0.24139043
v -0.44624394 0.31629366 -0.26803350
v -0.44348654 0.30990818 -0.24139043
v -0.44328040 0.29611801 -0.26803350
v -0.44348654 0.30990818 -0.26803350
v -0.44328040 0.29611801 -0.24139043
v -0.44247565 0.30302718 -0.24139043
v -0.44247565 0.30302718 -0.26803350
v 0.43680849 0.30733965 0.26275111
v 0.43583793 0.30045225 0.23610803
v 0.43583793 0.30045225 0.26275111
v 0.43680849 0.30733965 0.23610803
v 0.43668301 0.29354884 0.23610803
v 0.43668301 0.29354884 0.26275111
v 0.43952811 0.31374113 0.26275111
v 0.43928675 0.28709934 0.26275111
v 0.43952811 0.31374113 0.23610803
v 0.43928675 0.28709934 0.23610803
v 0.44381177 0.31922071 0.26275111
v 0.44347054 0.28154294 0.26275111
v 0.44347054 0.28154294 0.23610803
v 0.44381177 0.31922071 0.23610803
v 0.44027716 0.30021089 0.23610803
v 0.44103389 0.29446434 0.23610803
v 0.44936817 0.32340450 0.23610803
v 0.44103389 0.30595743 0.23610803
v 0.44894948 0.27725928 0.26275111
v 0.44325159 0.28910961 0.23610803
v 0.44936817 0.32340450 0.26275111
v 0.44678044 0.31591017 0.23610803
v 0.44325159 0.31131217 0.23610803
v 0.44103389 0.30595743 -0.23112334
v 0.44027716 0.30021089 -0.23112334
v 0.44894948 0.27725928 0.23610803
v 0.44103389 0.29446434 -0.23112334
v 0.44678044 0.28451096 0.23610803
v 0.45581767 0.32600760 0.23610803
v 0.45137844 0.31943902 0.23610803
v 0.44325159 0.31131217 -0.23112334
v 0.45535096 0.27453902 0.26275111
v 0.44325159 0.28910961 -0.23112334
v 0.45581767 0.32600760 0.26275111
v 0.44678044 0.31591017 -0.23112334
v 0.43920993 0.31318607 -0.23112334
v 0.44336106 0.31876680 -0.23112334
v 0.43960814 0.28654620 -0.23112334
v 0.45137844 0.28098275 0.23610803
v 0.45535096 0.27453902 0.23610803
v 0.44392381 0.28109159 -0.23112334
v 0.44678044 0.28451096 -0.23112334
v 0.46272172 0.32685268 0.23610803
v 0.45673318 0.32165672 0.23610803
v 0.45137844 0.31943902 -0.23112334
v 0.46223836 0.27356909 0.26275111
v 0.45137844 0.28098275 -0.23112334
v 0.46272172 0.32685268 0.26275111
v 0.44881503 0.32308311 -0.23112334
v 0.43685074 0.29293103 -0.23112334
v 0.43920993 0.31318607 -0.25776641
v 0.44392381 0.28109159 -0.25776641
v 0.45673318 0.27876506 -0.23112334
v 0.45673318 0.27876506 0.23610803
v 0.46223836 0.27356909 0.23610803
v 0.44950454 0.27694045 -0.23112334
v 0.46960848 0.32588276 0.23610803
v 0.46247972 0.32241345 0.23610803
v 0.45673318 0.32165672 -0.23112334
v 0.45520051 0.32583986 -0.23112334
v 0.44881503 0.32308311 -0.25776641
v 0.46914177 0.27441417 0.26275111
v 0.43664460 0.30672120 -0.23112334
v 0.43960814 0.28654620 -0.25776641
v 0.44336106 0.31876680 -0.25776641
v 0.43664460 0.30672120 -0.25776641
v 0.45596940 0.27437576 -0.23112334
v 0.46960848 0.32588276 0.26275111
v 0.46822627 0.32165672 0.23610803
v 0.45520051 0.32583986 -0.25776641
v 0.43583985 0.29981267 -0.23112334
v 0.43685074 0.29293103 -0.25776641
v 0.44950454 0.27694045 -0.25776641
v 0.46247972 0.27800833 -0.23112334
v 0.46287793 0.27357101 -0.23112334
v 0.46247972 0.27800833 0.23610803
v 0.46914177 0.27441417 0.23610803
v 0.47600997 0.32316249 0.23610803
v 0.47358100 0.31943902 0.23610803
v 0.46247972 0.32241345 -0.23112334
v 0.46208151 0.32685076 -0.23112334
v 0.46208151 0.32685076 -0.25776641
v 0.47559191 0.27701728 0.26275111
v 0.43583985 0.29981267 -0.25776641
v 0.45596940 0.27437576 -0.25776641
v 0.47600997 0.32316249 0.26275111
v 0.46822627 0.32165672 -0.23112334
v 0.46822627 0.27876506 -0.23112334
v 0.46287793 0.27357101 -0.25776641
v 0.46822627 0.27876506 0.23610803
v 0.47559191 0.27701728 0.23610803
v 0.48148954 0.31887883 0.23610803
v 0.47817965 0.31591017 0.23610803
v 0.47358100 0.31943902 -0.23112334
v 0.46899004 0.32604601 -0.23112334
v 0.46899004 0.32604601 -0.25776641
v 0.48114767 0.28120106 0.26275111
v 0.46975957 0.27458127 -0.23112334
v 0.47358100 0.28098275 0.23610803
v 0.48148954 0.31887883 0.26275111
v 0.47358100 0.28098275 -0.23112334
v 0.46975957 0.27458127 -0.25776641
v 0.47817965 0.28451096 0.23610803
v 0.48114767 0.28120106 0.23610803
v 0.48567333 0.31332243 0.26275111
v 0.48170786 0.31131217 0.23610803
v 0.47817965 0.31591017 -0.23112334
v 0.47545490 0.32348068 -0.23112334
v 0.47545490 0.32348068 -0.25776641
v 0.48543197 0.28668064 0.26275111
v 0.47614505 0.27733866 -0.23112334
v 0.47817965 0.28451096 -0.23112334
v 0.48543197 0.28668064 0.23610803
v 0.48567333 0.31332243 0.23610803
v 0.48170786 0.31131217 -0.23112334
v 0.47614505 0.27733866 -0.25776641
v 0.48170786 0.28910961 0.23610803
v 0.48827643 0.30687293 0.26275111
v 0.48815159 0.29308212 0.26275111
v 0.48392619 0.30595743 0.23610803
v 0.48392619 0.30595743 -0.23112334
v 0.48103563 0.31933018 -0.23112334
v 0.48103563 0.31933018 -0.25776641
v 0.48815159 0.29308212 0.23610803
v 0.48159902 0.28165497 -0.23112334
v 0.48170786 0.28910961 -0.23112334
v 0.48392619 0.29446434 0.23610803
v 0.48827643 0.30687293 0.23610803
v 0.48468228 0.30021089 0.23610803
v 0.48535194 0.31387558 -0.23112334
v 0.48159902 0.28165497 -0.25776641
v 0.48912215 0.29996953 0.26275111
v 0.48912215 0.29996953 0.23610803
v 0.48468228 0.30021089 -0.23112334
v 0.48575016 0.28723570 -0.23112334
v 0.48575016 0.28723570 -0.25776641
v 0.48392619 0.29446434 -0.23112334
v 0.48535194 0.31387558 -0.25776641
v 0.48810934 0.30749074 -0.23112334
v 0.48831549 0.29370057 -0.25776641
v 0.48810934 0.30749074 -0.25776641
v 0.48831549 0.29370057 -0.23112334
v 0.48912023 0.30060910 -0.23112334
v 0.48912023 0.30060910 -0.25776641
f 1 2 3
f 2 1 4
f 3 2 1
f 4 1 2
f 2 5 3
f 3 5 2
f 6 1 3
f 3 1 6
f 3 7 1
f 1 7 3
f 4 1 8
f 8 1 4
f 4 9 2
f 2 9 4
f 4 10 2
f 2 10 4
f 9 5 2
f 2 5 9
f 11 3 5
f 5 3 11
f 1 6 12
f 12 6 1
f 3 11 6
f 6 11 3
f 6 13 3
f 3 13 6
f 7 3 13
f 13 3 7
f 14 1 7
f 7 1 14
f 1 12 8
f 8 12 1
f 1 14 8
f 8 14 1
f 4 8 15
f 15 8 4
f 9 4 15
f 15 4 9
f 2 16 9
f 9 16 2
f 10 4 17
f 17 4 10
f 16 2 10
f 10 2 16
f 18 5 9
f 9 5 18
f 5 19 11
f 11 19 5
f 6 11 12
f 12 11 6
f 12 20 6
f 6 20 12
f 13 6 20
f 20 6 13
f 10 7 13
f 13 7 10
f 7 17 14
f 14 17 7
f 8 12 21
f 21 12 8
f 22 8 14
f 14 8 22
f 15 8 23
f 23 8 15
f 15 17 4
f 4 17 15
f 9 15 18
f 18 15 9
f 24 9 16
f 16 9 24
f 7 10 17
f 17 10 7
f 10 25 16
f 16 25 10
f 26 5 18
f 18 5 26
f 9 24 18
f 18 24 9
f 19 5 25
f 25 5 19
f 19 27 11
f 11 27 19
f 12 11 21
f 21 11 12
f 20 12 28
f 28 12 20
f 20 19 13
f 13 19 20
f 19 10 13
f 13 10 19
f 14 17 29
f 29 17 14
f 21 28 12
f 12 28 21
f 8 21 23
f 23 21 8
f 8 22 23
f 23 22 8
f 14 30 22
f 22 30 14
f 15 23 31
f 31 23 15
f 17 15 29
f 29 15 17
f 18 15 31
f 31 15 18
f 16 25 24
f 24 25 16
f 25 10 19
f 19 10 25
f 32 5 26
f 26 5 32
f 18 31 26
f 26 31 18
f 18 33 26
f 26 33 18
f 33 18 24
f 24 18 33
f 5 34 25
f 25 34 5
f 27 19 35
f 35 19 27
f 36 11 27
f 27 11 36
f 21 11 37
f 37 11 21
f 28 19 20
f 20 19 28
f 14 29 30
f 30 29 14
f 28 21 38
f 38 21 28
f 23 21 39
f 39 21 23
f 22 39 23
f 23 39 22
f 22 30 40
f 40 30 22
f 31 23 39
f 39 23 31
f 31 29 15
f 15 29 31
f 24 25 33
f 33 25 24
f 41 5 32
f 32 5 41
f 26 42 32
f 32 42 26
f 33 32 26
f 26 32 33
f 26 31 42
f 42 31 26
f 34 5 43
f 43 5 34
f 44 25 34
f 34 25 44
f 19 45 35
f 35 45 19
f 34 27 35
f 35 27 34
f 46 11 36
f 36 11 46
f 36 27 47
f 47 27 36
f 37 11 46
f 46 11 37
f 39 21 37
f 37 21 39
f 48 21 37
f 37 21 48
f 38 19 28
f 28 19 38
f 29 31 30
f 30 31 29
f 21 48 38
f 38 48 21
f 39 22 49
f 49 22 39
f 31 40 30
f 30 40 31
f 22 40 49
f 49 40 22
f 31 39 42
f 42 39 31
f 33 25 50
f 50 25 33
f 51 5 41
f 41 5 51
f 32 52 41
f 41 52 32
f 50 41 32
f 32 41 50
f 32 42 52
f 52 42 32
f 32 33 50
f 50 33 32
f 40 31 42
f 42 31 40
f 5 51 43
f 43 51 5
f 27 34 43
f 43 34 27
f 53 25 44
f 44 25 53
f 44 34 54
f 54 34 44
f 45 19 55
f 55 19 45
f 35 45 56
f 56 45 35
f 35 57 34
f 34 57 35
f 58 46 36
f 36 46 58
f 45 46 36
f 36 46 45
f 47 27 59
f 59 27 47
f 58 36 47
f 47 36 58
f 56 36 47
f 47 36 56
f 60 37 46
f 46 37 60
f 55 37 46
f 46 37 55
f 39 37 60
f 60 37 39
f 37 55 48
f 48 55 37
f 48 19 38
f 38 19 48
f 49 60 39
f 39 60 49
f 49 40 61
f 61 40 49
f 42 39 60
f 60 39 42
f 50 25 53
f 53 25 50
f 41 52 51
f 51 52 41
f 53 51 41
f 41 51 53
f 41 50 53
f 53 50 41
f 42 60 52
f 52 60 42
f 61 42 52
f 52 42 61
f 42 61 40
f 40 61 42
f 43 51 62
f 62 51 43
f 43 63 27
f 27 63 43
f 51 53 44
f 44 53 51
f 54 34 64
f 64 34 54
f 62 44 54
f 54 44 62
f 55 19 48
f 48 19 55
f 46 45 55
f 55 45 46
f 36 56 45
f 45 56 36
f 35 56 65
f 65 56 35
f 35 66 57
f 57 66 35
f 67 34 57
f 57 34 67
f 60 46 58
f 58 46 60
f 59 27 68
f 68 27 59
f 69 47 59
f 59 47 69
f 65 47 59
f 59 47 65
f 58 47 70
f 70 47 58
f 47 65 56
f 56 65 47
f 60 49 71
f 71 49 60
f 49 61 71
f 71 61 49
f 51 52 72
f 72 52 51
f 52 60 72
f 72 60 52
f 52 73 61
f 61 73 52
f 51 74 62
f 62 74 51
f 44 62 51
f 51 62 44
f 43 62 75
f 75 62 43
f 43 76 63
f 63 76 43
f 77 27 63
f 63 27 77
f 64 34 78
f 78 34 64
f 75 54 64
f 64 54 75
f 54 75 62
f 62 75 54
f 35 65 79
f 79 65 35
f 35 80 66
f 66 80 35
f 66 63 57
f 57 63 66
f 81 34 67
f 67 34 81
f 82 67 57
f 57 67 82
f 72 60 58
f 58 60 72
f 71 58 60
f 60 58 71
f 68 27 83
f 83 27 68
f 69 59 68
f 68 59 69
f 79 59 68
f 68 59 79
f 70 47 69
f 69 47 70
f 59 79 65
f 65 79 59
f 74 58 70
f 70 58 74
f 84 70 58
f 58 70 84
f 71 61 73
f 73 61 71
f 73 52 72
f 72 52 73
f 51 72 74
f 74 72 51
f 62 74 75
f 75 74 62
f 43 75 85
f 85 75 43
f 43 86 76
f 76 86 43
f 87 63 76
f 76 63 87
f 88 27 77
f 77 27 88
f 89 77 63
f 63 77 89
f 63 66 77
f 77 66 63
f 78 34 90
f 90 34 78
f 85 64 78
f 78 64 85
f 64 85 75
f 75 85 64
f 35 79 91
f 91 79 35
f 35 92 80
f 80 92 35
f 80 77 66
f 66 77 80
f 89 57 63
f 63 57 89
f 93 34 81
f 81 34 93
f 67 86 81
f 81 86 67
f 82 94 67
f 67 94 82
f 57 89 82
f 82 89 57
f 72 58 74
f 74 58 72
f 58 71 84
f 84 71 58
f 83 27 95
f 95 27 83
f 96 68 83
f 83 68 96
f 83 79 68
f 68 79 83
f 69 68 96
f 96 68 69
f 97 70 69
f 69 70 97
f 98 69 70
f 70 69 98
f 74 70 97
f 97 70 74
f 70 84 98
f 98 84 70
f 71 73 84
f 84 73 71
f 72 99 73
f 73 99 72
f 99 72 74
f 74 72 99
f 75 74 97
f 97 74 75
f 75 100 85
f 85 100 75
f 43 85 101
f 101 85 43
f 43 102 86
f 86 102 43
f 86 87 76
f 76 87 86
f 86 67 76
f 76 67 86
f 87 89 63
f 63 89 87
f 76 94 87
f 87 94 76
f 103 27 88
f 88 27 103
f 104 88 77
f 77 88 104
f 77 80 88
f 88 80 77
f 104 77 89
f 89 77 104
f 90 34 105
f 105 34 90
f 90 85 78
f 78 85 90
f 79 83 91
f 91 83 79
f 35 91 106
f 106 91 35
f 35 107 92
f 92 107 35
f 92 88 80
f 80 88 92
f 108 34 93
f 93 34 108
f 81 102 93
f 93 102 81
f 102 81 86
f 86 81 102
f 109 94 82
f 82 94 109
f 94 76 67
f 67 76 94
f 104 82 89
f 89 82 104
f 95 27 110
f 110 27 95
f 111 83 95
f 95 83 111
f 95 91 83
f 83 91 95
f 96 83 111
f 111 83 96
f 100 69 96
f 96 69 100
f 112 96 69
f 69 96 112
f 97 69 100
f 100 69 97
f 69 98 112
f 112 98 69
f 113 74 97
f 97 74 113
f 84 99 98
f 98 99 84
f 84 73 99
f 99 73 84
f 74 113 99
f 99 113 74
f 75 97 100
f 100 97 75
f 85 100 114
f 114 100 85
f 85 114 101
f 101 114 85
f 85 90 101
f 101 90 85
f 43 101 115
f 115 101 43
f 43 116 102
f 102 116 43
f 102 87 86
f 86 87 102
f 117 89 87
f 87 89 117
f 118 87 94
f 94 87 118
f 119 27 103
f 103 27 119
f 120 103 88
f 88 103 120
f 88 92 103
f 103 92 88
f 120 88 104
f 104 88 120
f 117 104 89
f 89 104 117
f 105 34 121
f 121 34 105
f 105 101 90
f 90 101 105
f 91 95 106
f 106 95 91
f 35 106 122
f 122 106 35
f 35 123 107
f 107 123 35
f 119 92 107
f 107 92 119
f 124 34 108
f 108 34 124
f 93 116 108
f 108 116 93
f 116 93 102
f 102 93 116
f 109 118 94
f 94 118 109
f 82 104 109
f 109 104 82
f 110 27 125
f 125 27 110
f 126 95 110
f 110 95 126
f 110 106 95
f 95 106 110
f 111 95 126
f 126 95 111
f 114 96 111
f 111 96 114
f 96 127 111
f 111 127 96
f 100 96 114
f 114 96 100
f 96 112 128
f 128 112 96
f 129 97 100
f 100 97 129
f 98 113 112
f 112 113 98
f 97 129 113
f 113 129 97
f 98 99 113
f 113 99 98
f 114 129 100
f 100 129 114
f 101 114 115
f 115 114 101
f 101 105 115
f 115 105 101
f 43 115 130
f 130 115 43
f 43 131 116
f 116 131 43
f 116 132 102
f 102 132 116
f 102 117 87
f 87 117 102
f 87 118 117
f 117 118 87
f 133 27 119
f 119 27 133
f 134 119 103
f 103 119 134
f 92 119 103
f 103 119 92
f 134 103 120
f 120 103 134
f 132 120 104
f 104 120 132
f 120 109 104
f 104 109 120
f 132 104 117
f 117 104 132
f 121 34 135
f 135 34 121
f 121 115 105
f 105 115 121
f 106 110 122
f 122 110 106
f 35 122 136
f 136 122 35
f 35 137 123
f 123 137 35
f 133 107 123
f 123 107 133
f 107 133 119
f 119 133 107
f 138 34 124
f 124 34 138
f 116 124 108
f 108 124 116
f 139 118 109
f 109 118 139
f 125 27 140
f 140 27 125
f 110 125 141
f 141 125 110
f 130 126 110
f 110 126 130
f 126 122 110
f 110 122 126
f 142 111 126
f 126 111 142
f 111 143 126
f 126 143 111
f 114 111 142
f 142 111 114
f 127 96 128
f 128 96 127
f 143 111 127
f 127 111 143
f 112 129 128
f 128 129 112
f 112 113 129
f 129 113 112
f 129 114 144
f 144 114 129
f 115 114 142
f 142 114 115
f 115 142 130
f 130 142 115
f 115 121 130
f 130 121 115
f 43 130 145
f 145 130 43
f 43 146 131
f 131 146 43
f 131 132 116
f 116 132 131
f 124 116 131
f 131 116 124
f 102 132 117
f 117 132 102
f 147 117 118
f 118 117 147
f 140 27 133
f 133 27 140
f 148 133 119
f 119 133 148
f 148 119 134
f 134 119 148
f 149 134 120
f 120 134 149
f 150 120 134
f 134 120 150
f 149 120 132
f 132 120 149
f 109 120 139
f 139 120 109
f 117 147 132
f 132 147 117
f 135 34 151
f 151 34 135
f 121 135 152
f 152 135 121
f 136 122 153
f 153 122 136
f 35 136 137
f 137 136 35
f 140 123 137
f 137 123 140
f 123 140 133
f 133 140 123
f 151 34 138
f 138 34 151
f 131 138 124
f 124 138 131
f 139 147 118
f 118 147 139
f 154 125 140
f 140 125 154
f 137 125 140
f 140 125 137
f 155 141 125
f 125 141 155
f 136 141 125
f 125 141 136
f 110 141 156
f 156 141 110
f 142 126 130
f 130 126 142
f 157 130 110
f 110 130 157
f 122 126 143
f 143 126 122
f 142 144 114
f 114 144 142
f 128 144 127
f 127 144 128
f 127 158 143
f 143 158 127
f 128 129 144
f 144 129 128
f 130 158 142
f 142 158 130
f 158 130 121
f 121 130 158
f 145 130 157
f 157 130 145
f 43 145 159
f 159 145 43
f 43 159 146
f 146 159 43
f 146 149 131
f 131 149 146
f 138 131 146
f 146 131 138
f 131 149 132
f 132 149 131
f 160 140 133
f 133 140 160
f 160 133 148
f 148 133 160
f 161 148 134
f 134 148 161
f 162 134 148
f 148 134 162
f 161 134 149
f 149 134 161
f 120 150 139
f 139 150 120
f 134 162 150
f 150 162 134
f 147 149 132
f 132 149 147
f 159 135 151
f 151 135 159
f 145 152 135
f 135 152 145
f 121 152 122
f 122 152 121
f 153 122 163
f 163 122 153
f 141 136 153
f 153 136 141
f 125 137 136
f 136 137 125
f 146 151 138
f 138 151 146
f 150 147 139
f 139 147 150
f 155 125 154
f 154 125 155
f 154 140 160
f 160 140 154
f 164 141 155
f 155 141 164
f 164 156 141
f 141 156 164
f 153 156 141
f 141 156 153
f 110 156 165
f 165 156 110
f 157 110 166
f 166 110 157
f 143 121 122
f 122 121 143
f 144 142 158
f 158 142 144
f 127 144 158
f 158 144 127
f 143 158 121
f 121 158 143
f 157 167 145
f 145 167 157
f 152 145 157
f 157 145 152
f 145 168 159
f 159 168 145
f 135 159 145
f 145 159 135
f 159 161 146
f 146 161 159
f 151 146 159
f 159 146 151
f 146 161 149
f 149 161 146
f 168 160 148
f 148 160 168
f 169 148 160
f 160 148 169
f 168 148 161
f 161 148 168
f 148 169 162
f 162 169 148
f 170 161 149
f 149 161 170
f 162 170 150
f 150 170 162
f 149 147 170
f 170 147 149
f 122 152 171
f 171 152 122
f 163 122 172
f 172 122 163
f 156 153 163
f 163 153 156
f 150 170 147
f 147 170 150
f 173 155 154
f 154 155 173
f 174 154 155
f 155 154 174
f 167 154 160
f 160 154 167
f 175 160 154
f 154 160 175
f 176 164 155
f 155 164 176
f 177 155 164
f 164 155 177
f 178 156 164
f 164 156 178
f 178 165 156
f 156 165 178
f 156 172 165
f 165 172 156
f 110 165 179
f 179 165 110
f 166 110 180
f 180 110 166
f 166 173 157
f 157 173 166
f 171 157 166
f 166 157 171
f 157 173 167
f 167 173 157
f 145 167 168
f 168 167 145
f 157 171 152
f 152 171 157
f 159 168 161
f 161 168 159
f 167 160 168
f 168 160 167
f 160 175 169
f 169 175 160
f 181 168 161
f 161 168 181
f 169 181 162
f 162 181 169
f 161 170 181
f 181 170 161
f 162 181 170
f 170 181 162
f 122 171 182
f 182 171 122
f 172 122 183
f 183 122 172
f 172 156 163
f 163 156 172
f 176 155 173
f 173 155 176
f 173 154 167
f 167 154 173
f 154 174 175
f 175 174 154
f 155 177 174
f 174 177 155
f 184 164 176
f 176 164 184
f 178 177 164
f 164 177 178
f 184 178 164
f 164 178 184
f 185 165 178
f 178 165 185
f 183 165 172
f 172 165 183
f 185 179 165
f 165 179 185
f 165 183 179
f 179 183 165
f 110 179 186
f 186 179 110
f 180 110 187
f 187 110 180
f 180 176 166
f 166 176 180
f 180 171 166
f 166 171 180
f 166 176 173
f 173 176 166
f 188 173 167
f 167 173 188
f 189 167 168
f 168 167 189
f 175 189 169
f 169 189 175
f 168 181 189
f 189 181 168
f 169 189 181
f 181 189 169
f 171 180 182
f 182 180 171
f 122 182 190
f 190 182 122
f 183 122 191
f 191 122 183
f 192 176 173
f 173 176 192
f 174 188 175
f 175 188 174
f 177 192 174
f 174 192 177
f 180 184 176
f 176 184 180
f 176 193 184
f 184 193 176
f 177 178 194
f 194 178 177
f 195 178 184
f 184 178 195
f 195 185 178
f 178 185 195
f 185 194 178
f 178 194 185
f 179 185 186
f 186 185 179
f 191 179 183
f 183 179 191
f 179 191 186
f 186 191 179
f 196 110 186
f 186 110 196
f 187 110 196
f 196 110 187
f 187 184 180
f 180 184 187
f 187 182 180
f 180 182 187
f 173 188 192
f 192 188 173
f 167 189 188
f 188 189 167
f 175 188 189
f 189 188 175
f 182 187 190
f 190 187 182
f 122 190 197
f 197 190 122
f 122 197 191
f 191 197 122
f 176 192 198
f 198 192 176
f 174 192 188
f 188 192 174
f 177 198 192
f 192 198 177
f 193 176 198
f 198 176 193
f 199 184 193
f 193 184 199
f 194 198 177
f 177 198 194
f 187 195 184
f 184 195 187
f 184 199 195
f 195 199 184
f 196 185 195
f 195 185 196
f 194 185 200
f 200 185 194
f 185 196 186
f 186 196 185
f 186 200 185
f 185 200 186
f 200 186 191
f 191 186 200
f 195 187 196
f 196 187 195
f 196 190 187
f 187 190 196
f 190 196 197
f 197 196 190
f 197 200 191
f 191 200 197
f 194 193 198
f 198 193 194
f 200 199 193
f 193 199 200
f 197 195 199
f 199 195 197
f 195 197 196
f 196 197 195
f 200 193 194
f 194 193 200
f 200 197 199
f 199 197 200
f 201 202 203
f 202 201 204
f 203 202 201
f 204 201 202
f 202 205 203
f 203 205 202
f 206 201 203
f 203 201 206
f 203 207 201
f 201 207 203
f 204 201 208
f 208 201 204
f 204 209 202
f 202 209 204
f 204 210 202
f 202 210 204
f 209 205 202
f 202 205 209
f 211 203 205
f 205 203 211
f 201 206 212
f 212 206 201
f 203 211 206
f 206 211 203
f 206 213 203
f 203 213 206
f 207 203 213
f 213 203 207
f 214 201 207
f 207 201 214
f 201 212 208
f 208 212 201
f 201 214 208
f 208 214 201
f 204 208 215
f 215 208 204
f 209 204 215
f 215 204 209
f 202 216 209
f 209 216 202
f 210 204 217
f 217 204 210
f 216 202 210
f 210 202 216
f 218 205 209
f 209 205 218
f 205 219 211
f 211 219 205
f 206 211 212
f 212 211 206
f 212 220 206
f 206 220 212
f 213 206 220
f 220 206 213
f 210 207 213
f 213 207 210
f 207 217 214
f 214 217 207
f 208 212 221
f 221 212 208
f 222 208 214
f 214 208 222
f 215 208 223
f 223 208 215
f 215 217 204
f 204 217 215
f 209 215 218
f 218 215 209
f 224 209 216
f 216 209 224
f 207 210 217
f 217 210 207
f 210 225 216
f 216 225 210
f 226 205 218
f 218 205 226
f 209 224 218
f 218 224 209
f 219 205 225
f 225 205 219
f 219 227 211
f 211 227 219
f 212 211 221
f 221 211 212
f 220 212 228
f 228 212 220
f 220 219 213
f 213 219 220
f 219 210 213
f 213 210 219
f 214 217 229
f 229 217 214
f 221 228 212
f 212 228 221
f 208 221 223
f 223 221 208
f 208 222 223
f 223 222 208
f 214 230 222
f 222 230 214
f 215 223 231
f 231 223 215
f 217 215 229
f 229 215 217
f 218 215 231
f 231 215 218
f 216 225 224
f 224 225 216
f 225 210 219
f 219 210 225
f 232 205 226
f 226 205 232
f 218 231 226
f 226 231 218
f 218 233 226
f 226 233 218
f 233 218 224
f 224 218 233
f 205 234 225
f 225 234 205
f 227 219 235
f 235 219 227
f 236 211 227
f 227 211 236
f 221 211 237
f 237 211 221
f 228 219 220
f 220 219 228
f 214 229 230
f 230 229 214
f 228 221 238
f 238 221 228
f 223 221 239
f 239 221 223
f 222 239 223
f 223 239 222
f 222 230 240
f 240 230 222
f 231 223 239
f 239 223 231
f 231 229 215
f 215 229 231
f 224 225 233
f 233 225 224
f 241 205 232
f 232 205 241
f 226 242 232
f 232 242 226
f 233 232 226
f 226 232 233
f 226 231 242
f 242 231 226
f 234 205 243
f 243 205 234
f 244 225 234
f 234 225 244
f 219 245 235
f 235 245 219
f 234 227 235
f 235 227 234
f 246 211 236
f 236 211 246
f 236 227 247
f 247 227 236
f 237 211 246
f 246 211 237
f 239 221 237
f 237 221 239
f 248 221 237
f 237 221 248
f 238 219 228
f 228 219 238
f 229 231 230
f 230 231 229
f 221 248 238
f 238 248 221
f 239 222 249
f 249 222 239
f 231 240 230
f 230 240 231
f 222 240 249
f 249 240 222
f 231 239 242
f 242 239 231
f 233 225 250
f 250 225 233
f 251 205 241
f 241 205 251
f 232 252 241
f 241 252 232
f 250 241 232
f 232 241 250
f 232 242 252
f 252 242 232
f 232 233 250
f 250 233 232
f 240 231 242
f 242 231 240
f 205 251 243
f 243 251 205
f 227 234 243
f 243 234 227
f 253 225 244
f 244 225 253
f 244 234 254
f 254 234 244
f 245 219 255
f 255 219 245
f 235 245 256
f 256 245 235
f 235 257 234
f 234 257 235
f 258 246 236
f 236 246 258
f 245 246 236
f 236 246 245
f 247 227 259
f 259 227 247
f 258 236 247
f 247 236 258
f 256 236 247
f 247 236 256
f 260 237 246
f 246 237 260
f 255 237 246
f 246 237 255
f 239 237 260
f 260 237 239
f 237 255 248
f 248 255 237
f 248 219 238
f 238 219 248
f 249 260 239
f 239 260 249
f 249 240 261
f 261 240 249
f 242 239 260
f 260 239 242
f 250 225 253
f 253 225 250
f 241 252 251
f 251 252 241
f 253 251 241
f 241 251 253
f 241 250 253
f 253 250 241
f 242 260 252
f 252 260 242
f 261 242 252
f 252 242 261
f 242 261 240
f 240 261 242
f 243 251 262
f 262 251 243
f 243 263 227
f 227 263 243
f 251 253 244
f 244 253 251
f 254 234 264
f 264 234 254
f 262 244 254
f 254 244 262
f 255 219 248
f 248 219 255
f 246 245 255
f 255 245 246
f 236 256 245
f 245 256 236
f 235 256 265
f 265 256 235
f 235 266 257
f 257 266 235
f 267 234 257
f 257 234 267
f 260 246 258
f 258 246 260
f 259 227 268
f 268 227 259
f 269 247 259
f 259 247 269
f 265 247 259
f 259 247 265
f 258 247 270
f 270 247 258
f 247 265 256
f 256 265 247
f 260 249 271
f 271 249 260
f 249 261 271
f 271 261 249
f 251 252 272
f 272 252 251
f 252 260 272
f 272 260 252
f 252 273 261
f 261 273 252
f 251 274 262
f 262 274 251
f 244 262 251
f 251 262 244
f 243 262 275
f 275 262 243
f 243 276 263
f 263 276 243
f 277 227 263
f 263 227 277
f 264 234 278
f 278 234 264
f 275 254 264
f 264 254 275
f 254 275 262
f 262 275 254
f 235 265 279
f 279 265 235
f 235 280 266
f 266 280 235
f 266 263 257
f 257 263 266
f 281 234 267
f 267 234 281
f 282 267 257
f 257 267 282
f 272 260 258
f 258 260 272
f 271 258 260
f 260 258 271
f 268 227 283
f 283 227 268
f 269 259 268
f 268 259 269
f 279 259 268
f 268 259 279
f 270 247 269
f 269 247 270
f 259 279 265
f 265 279 259
f 274 258 270
f 270 258 274
f 284 270 258
f 258 270 284
f 271 261 273
f 273 261 271
f 273 252 272
f 272 252 273
f 251 272 274
f 274 272 251
f 262 274 275
f 275 274 262
f 243 275 285
f 285 275 243
f 243 286 276
f 276 286 243
f 287 263 276
f 276 263 287
f 288 227 277
f 277 227 288
f 289 277 263
f 263 277 289
f 263 266 277
f 277 266 263
f 278 234 290
f 290 234 278
f 285 264 278
f 278 264 285
f 264 285 275
f 275 285 264
f 235 279 291
f 291 279 235
f 235 292 280
f 280 292 235
f 280 277 266
f 266 277 280
f 289 257 263
f 263 257 289
f 293 234 281
f 281 234 293
f 267 286 281
f 281 286 267
f 282 294 267
f 267 294 282
f 257 289 282
f 282 289 257
f 272 258 274
f 274 258 272
f 258 271 284
f 284 271 258
f 283 227 295
f 295 227 283
f 296 268 283
f 283 268 296
f 283 279 268
f 268 279 283
f 269 268 296
f 296 268 269
f 297 270 269
f 269 270 297
f 298 269 270
f 270 269 298
f 274 270 297
f 297 270 274
f 270 284 298
f 298 284 270
f 271 273 284
f 284 273 271
f 272 299 273
f 273 299 272
f 299 272 274
f 274 272 299
f 275 274 297
f 297 274 275
f 275 300 285
f 285 300 275
f 243 285 301
f 301 285 243
f 243 302 286
f 286 302 243
f 286 287 276
f 276 287 286
f 286 267 276
f 276 267 286
f 287 289 263
f 263 289 287
f 276 294 287
f 287 294 276
f 303 227 288
f 288 227 303
f 304 288 277
f 277 288 304
f 277 280 288
f 288 280 277
f 304 277 289
f 289 277 304
f 290 234 305
f 305 234 290
f 290 285 278
f 278 285 290
f 279 283 291
f 291 283 279
f 235 291 306
f 306 291 235
f 235 307 292
f 292 307 235
f 292 288 280
f 280 288 292
f 308 234 293
f 293 234 308
f 281 302 293
f 293 302 281
f 302 281 286
f 286 281 302
f 309 294 282
f 282 294 309
f 294 276 267
f 267 276 294
f 304 282 289
f 289 282 304
f 295 227 310
f 310 227 295
f 311 283 295
f 295 283 311
f 295 291 283
f 283 291 295
f 296 283 311
f 311 283 296
f 300 269 296
f 296 269 300
f 312 296 269
f 269 296 312
f 297 269 300
f 300 269 297
f 269 298 312
f 312 298 269
f 313 274 297
f 297 274 313
f 284 299 298
f 298 299 284
f 284 273 299
f 299 273 284
f 274 313 299
f 299 313 274
f 275 297 300
f 300 297 275
f 285 300 314
f 314 300 285
f 285 314 301
f 301 314 285
f 285 290 301
f 301 290 285
f 243 301 315
f 315 301 243
f 243 316 302
f 302 316 243
f 302 287 286
f 286 287 302
f 317 289 287
f 287 289 317
f 318 287 294
f 294 287 318
f 319 227 303
f 303 227 319
f 320 303 288
f 288 303 320
f 288 292 303
f 303 292 288
f 320 288 304
f 304 288 320
f 317 304 289
f 289 304 317
f 305 234 321
f 321 234 305
f 305 301 290
f 290 301 305
f 291 295 306
f 306 295 291
f 235 306 322
f 322 306 235
f 235 323 307
f 307 323 235
f 319 292 307
f 307 292 319
f 324 234 308
f 308 234 324
f 293 316 308
f 308 316 293
f 316 293 302
f 302 293 316
f 309 318 294
f 294 318 309
f 282 304 309
f 309 304 282
f 310 227 325
f 325 227 310
f 326 295 310
f 310 295 326
f 310 306 295
f 295 306 310
f 311 295 326
f 326 295 311
f 314 296 311
f 311 296 314
f 296 327 311
f 311 327 296
f 300 296 314
f 314 296 300
f 296 312 328
f 328 312 296
f 329 297 300
f 300 297 329
f 298 313 312
f 312 313 298
f 297 329 313
f 313 329 297
f 298 299 313
f 313 299 298
f 314 329 300
f 300 329 314
f 301 314 315
f 315 314 301
f 301 305 315
f 315 305 301
f 243 315 330
f 330 315 243
f 243 331 316
f 316 331 243
f 316 332 302
f 302 332 316
f 302 317 287
f 287 317 302
f 287 318 317
f 317 318 287
f 333 227 319
f 319 227 333
f 334 319 303
f 303 319 334
f 292 319 303
f 303 319 292
f 334 303 320
f 320 303 334
f 332 320 304
f 304 320 332
f 320 309 304
f 304 309 320
f 332 304 317
f 317 304 332
f 321 234 335
f 335 234 321
f 321 315 305
f 305 315 321
f 306 310 322
f 322 310 306
f 235 322 336
f 336 322 235
f 235 337 323
f 323 337 235
f 333 307 323
f 323 307 333
f 307 333 319
f 319 333 307
f 338 234 324
f 324 234 338
f 316 324 308
f 308 324 316
f 339 318 309
f 309 318 339
f 325 227 340
f 340 227 325
f 310 325 341
f 341 325 310
f 330 326 310
f 310 326 330
f 326 322 310
f 310 322 326
f 342 311 326
f 326 311 342
f 311 343 326
f 326 343 311
f 314 311 342
f 342 311 314
f 327 296 328
f 328 296 327
f 343 311 327
f 327 311 343
f 312 329 328
f 328 329 312
f 312 313 329
f 329 313 312
f 329 314 344
f 344 314 329
f 315 314 342
f 342 314 315
f 315 342 330
f 330 342 315
f 315 321 330
f 330 321 315
f 243 330 345
f 345 330 243
f 243 346 331
f 331 346 243
f 331 332 316
f 316 332 331
f 324 316 331
f 331 316 324
f 302 332 317
f 317 332 302
f 347 317 318
f 318 317 347
f 340 227 333
f 333 227 340
f 348 333 319
f 319 333 348
f 348 319 334
f 334 319 348
f 349 334 320
f 320 334 349
f 350 320 334
f 334 320 350
f 349 320 332
f 332 320 349
f 309 320 339
f 339 320 309
f 317 347 332
f 332 347 317
f 335 234 351
f 351 234 335
f 321 335 352
f 352 335 321
f 336 322 353
f 353 322 336
f 235 336 337
f 337 336 235
f 340 323 337
f 337 323 340
f 323 340 333
f 333 340 323
f 351 234 338
f 338 234 351
f 331 338 324
f 324 338 331
f 339 347 318
f 318 347 339
f 354 325 340
f 340 325 354
f 337 325 340
f 340 325 337
f 355 341 325
f 325 341 355
f 336 341 325
f 325 341 336
f 310 341 356
f 356 341 310
f 342 326 330
f 330 326 342
f 357 330 310
f 310 330 357
f 322 326 343
f 343 326 322
f 342 344 314
f 314 344 342
f 328 344 327
f 327 344 328
f 327 358 343
f 343 358 327
f 328 329 344
f 344 329 328
f 330 358 342
f 342 358 330
f 358 330 321
f 321 330 358
f 345 330 357
f 357 330 345
f 243 345 359
f 359 345 243
f 243 359 346
f 346 359 243
f 346 349 331
f 331 349 346
f 338 331 346
f 346 331 338
f 331 349 332
f 332 349 331
f 360 340 333
f 333 340 360
f 360 333 348
f 348 333 360
f 361 348 334
f 334 348 361
f 362 334 348
f 348 334 362
f 361 334 349
f 349 334 361
f 320 350 339
f 339 350 320
f 334 362 350
f 350 362 334
f 347 349 332
f 332 349 347
f 359 335 351
f 351 335 359
f 345 352 335
f 335 352 345
f 321 352 322
f 322 352 321
f 353 322 363
f 363 322 353
f 341 336 353
f 353 336 341
f 325 337 336
f 336 337 325
f 346 351 338
f 338 351 346
f 350 347 339
f 339 347 350
f 355 325 354
f 354 325 355
f 354 340 360
f 360 340 354
f 364 341 355
f 355 341 364
f 364 356 341
f 341 356 364
f 353 356 341
f 341 356 353
f 310 356 365
f 365 356 310
f 357 310 366
f 366 310 357
f 343 321 322
f 322 321 343
f 344 342 358
f 358 342 344
f 327 344 358
f 358 344 327
f 343 358 321
f 321 358 343
f 357 367 345
f 345 367 357
f 352 345 357
f 357 345 352
f 345 368 359
f 359 368 345
f 335 359 345
f 345 359 335
f 359 361 346
f 346 361 359
f 351 346 359
f 359 346 351
f 346 361 349
f 349 361 346
f 368 360 348
f 348 360 368
f 369 348 360
f 360 348 369
f 368 348 361
f 361 348 368
f 348 369 362
f 362 369 348
f 370 361 349
f 349 361 370
f 362 370 350
f 350 370 362
f 349 347 370
f 370 347 349
f 322 352 371
f 371 352 322
f 363 322 372
f 372 322 363
f 356 353 363
f 363 353 356
f 350 370 347
f 347 370 350
f 373 355 354
f 354 355 373
f 374 354 355
f 355 354 374
f 367 354 360
f 360 354 367
f 375 360 354
f 354 360 375
f 376 364 355
f 355 364 376
f 377 355 364
f 364 355 377
f 378 356 364
f 364 356 378
f 378 365 356
f 356 365 378
f 356 372 365
f 365 372 356
f 310 365 379
f 379 365 310
f 366 310 380
f 380 310 366
f 366 373 357
f 357 373 366
f 371 357 366
f 366 357 371
f 357 373 367
f 367 373 357
f 345 367 368
f 368 367 345
f 357 371 352
f 352 371 357
f 359 368 361
f 361 368 359
f 367 360 368
f 368 360 367
f 360 375 369
f 369 375 360
f 381 368 361
f 361 368 381
f 369 381 362
f 362 381 369
f 361 370 381
f 381 370 361
f 362 381 370
f 370 381 362
f 322 371 382
f 382 371 322
f 372 322 383
f 383 322 372
f 372 356 363
f 363 356 372
f 376 355 373
f 373 355 376
f 373 354 367
f 367 354 373
f 354 374 375
f 375 374 354
f 355 377 374
f 374 377 355
f 384 364 376
f 376 364 384
f 378 377 364
f 364 377 378
f 384 378 364
f 364 378 384
f 385 365 378
f 378 365 385
f 383 365 372
f 372 365 383
f 385 379 365
f 365 379 385
f 365 383 379
f 379 383 365
f 310 379 386
f 386 379 310
f 380 310 387
f 387 310 380
f 380 376 366
f 366 376 380
f 380 371 366
f 366 371 380
f 366 376 373
f 373 376 366
f 388 373 367
f 367 373 388
f 389 367 368
f 368 367 389
f 375 389 369
f 369 389 375
f 368 381 389
f 389 381 368
f 369 389 381
f 381 389 369
f 371 380 382
f 382 380 371
f 322 382 390
f 390 382 322
f 383 322 391
f 391 322 383
f 392 376 373
f 373 376 392
f 374 388 375
f 375 388 374
f 377 392 374
f 374 392 377
f 380 384 376
f 376 384 380
f 376 393 384
f 384 393 376
f 377 378 394
f 394 378 377
f 395 378 384
f 384 378 395
f 395 385 378
f 378 385 395
f 385 394 378
f 378 394 385
f 379 385 386
f 386 385 379
f 391 379 383
f 383 379 391
f 379 391 386
f 386 391 379
f 396 310 386
f 386 310 396
f 387 310 396
f 396 310 387
f 387 384 380
f 380 384 387
f 387 382 380
f 380 382 387
f 373 388 392
f 392 388 373
f 367 389 388
f 388 389 367
f 375 388 389
f 389 388 375
f 382 387 390
f 390 387 382
f 322 390 397
f 397 390 322
f 322 397 391
f 391 397 322
f 376 392 398
f 398 392 376
f 374 392 388
f 388 392 374
f 377 398 392
f 392 398 377
f 393 376 398
f 398 376 393
f 399 384 393
f 393 384 399
f 394 398 377
f 377 398 394
f 387 395 384
f 384 395 387
f 384 399 395
f 395 399 384
f 396 385 395
f 395 385 396
f 394 385 400
f 400 385 394
f 385 396 386
f 386 396 385
f 386 400 385
f 385 400 386
f 400 386 391
f 391 386 400
f 395 387 396
f 396 387 395
f 396 390 387
f 387 390 396
f 390 396 397
f 397 396 390
f 397 400 391
f 391 400 397
f 394 393 398
f 398 393 394
f 400 399 393
f 393 399 400
f 397 395 399
f 399 395 397
f 395 397 396
f 396 397 395
f 400 393 394
f 394 393 400
f 400 397 399
f 399 397 400
f 401 402 403
f 402 401 404
f 403 402 401
f 404 401 402
f 402 405 403
f 403 405 402
f 405 401 403
f 403 401 405
f 401 406 404
f 404 406 401
f 406 402 404
f 404 402 406
f 405 402 407
f 407 402 405
f 401 405 408
f 408 405 401
f 408 406 401
f 401 406 408
f 402 406 409
f 409 406 402
f 409 407 402
f 402 407 409
f 407 408 405
f 405 408 407
f 410 406 408
f 408 406 410
f 406 411 409
f 409 411 406
f 411 407 409
f 409 407 411
f 408 407 410
f 410 407 408
f 410 412 406
f 406 412 410
f 411 406 412
f 412 406 411
f 407 411 413
f 413 411 407
f 407 414 410
f 410 414 407
f 412 410 414
f 414 410 412
f 414 411 412
f 412 411 414
f 411 414 413
f 413 414 411
f 414 407 413
f 413 407 414
f 415 416 417
f 416 415 418
f 417 416 415
f 418 415 416
f 419 415 417
f 417 415 419
f 418 421 416
f 416 421 418
f 415 419 422
f 422 419 415
f 421 418 420
f 420 418 421
f 420 419 421
f 421 419 420
f 419 420 422
f 422 420 419
f 416 419 417
f 417 419 416
f 415 420 418
f 418 420 415
f 419 416 421
f 421 416 419
f 420 415 422
f 422 415 420
f 423 424 425
f 424 423 426
f 427 425 424
f 428 423 425
f 429 426 423
f 425 427 428
f 423 428 430
f 426 429 431
f 423 430 429
f 432 428 427
f 428 432 430
f 433 431 429
f 429 430 434
f 435 430 432
f 431 433 436
f 429 434 433
f 430 435 434
f 433 439 436
f 433 434 441
f 435 441 434
f 439 433 443
f 433 441 443
f 440 446 437
f 437 447 438
f 441 435 448
f 438 449 442
f 443 451 439
f 445 453 440
f 443 441 454
f 447 437 446
f 446 440 453
f 449 438 447
f 448 454 441
f 455 442 449
f 442 455 450
f 451 443 456
f 444 457 445
f 444 452 457
f 453 445 457
f 443 454 456
f 454 448 462
f 464 450 455
f 456 465 451
f 467 457 452
f 456 454 468
f 461 450 469
f 462 468 454
f 464 469 450
f 465 456 470
f 452 466 467
f 456 468 470
f 459 473 458
f 460 474 463
f 469 475 461
f 468 462 477
f 470 479 465
f 481 467 466
f 483 459 471
f 470 468 484
f 472 486 460
f 473 459 487
f 488 458 473
f 474 460 486
f 474 478 463
f 476 461 475
f 477 484 468
f 479 470 490
f 466 480 481
f 492 471 482
f 459 483 487
f 471 492 483
f 470 484 490
f 458 488 485
f 486 472 494
f 478 474 495
f 475 496 476
f 484 477 499
f 495 489 478
f 490 500 479
f 480 491 502
f 502 481 480
f 482 504 492
f 490 484 505
f 485 506 493
f 493 494 472
f 506 485 488
f 498 476 496
f 507 497 489
f 499 505 484
f 489 495 507
f 500 490 508
f 491 501 509
f 509 502 491
f 504 482 503
f 490 505 508
f 494 493 506
f 496 510 498
f 497 507 511
f 505 499 513
f 508 514 500
f 516 509 501
f 503 518 504
f 508 505 519
f 512 498 510
f 511 520 497
f 513 519 505
f 514 508 522
f 501 515 516
f 518 503 517
f 508 519 522
f 510 523 512
f 520 511 524
f 521 512 523
f 519 513 526
f 527 514 522
f 529 516 515
f 517 531 518
f 522 519 532
f 524 533 520
f 523 534 521
f 525 521 534
f 535 519 526
f 514 527 536
f 522 532 527
f 528 537 515
f 529 515 537
f 531 517 530
f 519 535 532
f 533 524 538
f 525 534 539
f 540 536 527
f 527 532 541
f 537 528 543
f 530 545 531
f 546 532 535
f 538 547 533
f 548 539 534
f 536 540 550
f 527 541 540
f 532 546 541
f 542 543 528
f 545 530 544
f 547 538 553
f 539 548 549
f 554 550 540
f 540 541 554
f 555 541 546
f 551 556 542
f 543 542 556
f 552 545 544
f 558 547 553
f 559 549 548
f 549 559 551
f 550 554 555
f 541 555 554
f 556 551 559
f 545 552 560
f 547 558 557
f 561 560 552
f 562 557 558
f 560 561 563
f 557 562 564
f 565 563 561
f 566 564 562
f 564 566 565
f 563 565 566
f 425 424 423
f 426 423 424
f 424 425 427
f 425 423 428
f 423 426 429
f 426 427 424
f 424 427 426
f 428 427 425
f 430 428 423
f 431 429 426
f 429 430 423
f 427 426 432
f 432 426 427
f 427 428 432
f 430 432 428
f 429 431 433
f 432 426 431
f 431 426 432
f 434 430 429
f 432 430 435
f 436 433 431
f 433 434 429
f 432 431 437
f 437 431 432
f 434 435 430
f 432 438 435
f 435 438 432
f 436 439 433
f 440 431 436
f 436 431 440
f 441 434 433
f 431 440 437
f 437 440 431
f 432 437 438
f 438 437 432
f 434 441 435
f 435 438 442
f 442 438 435
f 443 433 439
f 444 436 439
f 439 436 444
f 440 436 445
f 445 436 440
f 443 441 433
f 437 446 440
f 438 447 437
f 448 435 441
f 442 449 438
f 435 442 450
f 450 442 435
f 439 451 443
f 445 436 444
f 444 436 445
f 444 439 452
f 452 439 444
f 440 453 445
f 454 441 443
f 446 437 447
f 453 440 446
f 447 438 449
f 435 450 448
f 448 450 435
f 441 454 448
f 449 442 455
f 450 455 442
f 456 443 451
f 452 439 451
f 451 439 452
f 445 457 444
f 457 452 444
f 457 445 453
f 456 454 443
f 458 447 446
f 446 447 458
f 459 446 453
f 453 446 459
f 460 449 447
f 447 449 460
f 448 450 461
f 461 450 448
f 462 448 454
f 449 463 455
f 455 463 449
f 455 450 464
f 451 465 456
f 452 451 466
f 466 451 452
f 452 457 467
f 459 453 457
f 457 453 459
f 468 454 456
f 458 460 447
f 447 460 458
f 458 446 459
f 459 446 458
f 449 460 463
f 463 460 449
f 469 450 461
f 448 461 462
f 462 461 448
f 454 468 462
f 455 463 464
f 464 463 455
f 450 469 464
f 470 456 465
f 466 451 465
f 465 451 466
f 467 466 452
f 471 457 467
f 467 457 471
f 459 457 471
f 471 457 459
f 470 468 456
f 458 472 460
f 460 472 458
f 458 473 459
f 463 474 460
f 461 475 469
f 462 461 476
f 476 461 462
f 477 462 468
f 464 463 478
f 478 463 464
f 464 478 469
f 469 478 464
f 465 479 470
f 466 465 480
f 480 465 466
f 466 467 481
f 471 467 482
f 482 467 471
f 471 459 483
f 484 468 470
f 485 472 458
f 458 472 485
f 460 486 472
f 487 459 473
f 473 458 488
f 486 460 474
f 463 478 474
f 475 461 476
f 469 489 475
f 475 489 469
f 462 476 477
f 477 476 462
f 468 484 477
f 469 478 489
f 489 478 469
f 490 470 479
f 491 465 479
f 479 465 491
f 480 465 491
f 491 465 480
f 481 480 466
f 482 467 481
f 481 467 482
f 482 471 492
f 487 483 459
f 483 492 471
f 490 484 470
f 472 485 493
f 493 485 472
f 485 488 458
f 494 472 486
f 486 473 487
f 487 473 486
f 494 488 473
f 473 488 494
f 486 487 474
f 474 487 486
f 495 474 478
f 476 496 475
f 475 489 497
f 497 489 475
f 477 476 498
f 498 476 477
f 499 477 484
f 478 489 495
f 479 500 490
f 491 479 501
f 501 479 491
f 502 491 480
f 480 481 502
f 482 481 503
f 503 481 482
f 492 504 482
f 474 487 483
f 483 487 474
f 495 483 492
f 492 483 495
f 505 484 490
f 493 506 485
f 472 494 493
f 488 485 506
f 494 473 486
f 486 473 494
f 488 494 506
f 506 494 488
f 474 483 495
f 495 483 474
f 496 476 498
f 475 497 496
f 496 497 475
f 489 497 507
f 477 498 499
f 499 498 477
f 484 505 499
f 507 495 489
f 508 490 500
f 501 479 500
f 500 479 501
f 509 501 491
f 491 502 509
f 503 481 502
f 502 481 503
f 503 482 504
f 507 492 504
f 504 492 507
f 495 492 507
f 507 492 495
f 508 505 490
f 506 493 494
f 498 510 496
f 496 497 510
f 510 497 496
f 511 507 497
f 499 498 512
f 512 498 499
f 513 499 505
f 500 514 508
f 501 500 515
f 515 500 501
f 501 509 516
f 517 502 509
f 509 502 517
f 503 502 517
f 517 502 503
f 504 518 503
f 507 504 511
f 511 504 507
f 519 505 508
f 510 498 512
f 510 497 520
f 520 497 510
f 497 520 511
f 499 512 521
f 521 512 499
f 499 521 513
f 513 521 499
f 505 519 513
f 522 508 514
f 515 500 514
f 514 500 515
f 516 515 501
f 517 509 516
f 516 509 517
f 517 503 518
f 511 504 518
f 518 504 511
f 522 519 508
f 512 523 510
f 510 520 523
f 523 520 510
f 524 511 520
f 523 512 521
f 513 521 525
f 525 521 513
f 526 513 519
f 522 514 527
f 515 514 528
f 528 514 515
f 515 516 529
f 517 516 530
f 530 516 517
f 518 531 517
f 511 518 524
f 524 518 511
f 532 519 522
f 523 520 533
f 533 520 523
f 520 533 524
f 521 534 523
f 534 521 525
f 513 525 526
f 526 525 513
f 526 519 535
f 536 527 514
f 527 532 522
f 528 514 536
f 536 514 528
f 515 537 528
f 530 516 529
f 529 516 530
f 537 515 529
f 530 517 531
f 524 518 531
f 531 518 524
f 532 535 519
f 523 533 534
f 534 533 523
f 538 524 533
f 539 534 525
f 526 525 539
f 539 525 526
f 526 539 535
f 535 539 526
f 527 536 540
f 541 532 527
f 528 536 542
f 542 536 528
f 543 528 537
f 530 529 544
f 544 529 530
f 544 529 537
f 537 529 544
f 531 545 530
f 524 531 538
f 538 531 524
f 535 532 546
f 534 533 547
f 547 533 534
f 533 547 538
f 534 539 548
f 535 539 549
f 549 539 535
f 550 540 536
f 540 541 527
f 541 546 532
f 542 536 551
f 551 536 542
f 528 543 542
f 552 537 543
f 543 537 552
f 544 530 545
f 544 537 552
f 552 537 544
f 538 531 545
f 545 531 538
f 535 536 546
f 546 536 535
f 534 547 548
f 548 547 534
f 553 538 547
f 549 548 539
f 535 549 551
f 551 549 535
f 540 550 554
f 546 536 550
f 550 536 546
f 554 541 540
f 546 541 555
f 551 536 535
f 535 536 551
f 542 556 551
f 556 542 543
f 552 543 556
f 556 543 552
f 544 545 552
f 538 545 553
f 553 545 538
f 548 547 557
f 557 547 548
f 553 547 558
f 548 549 559
f 551 559 549
f 555 554 550
f 546 550 555
f 555 550 546
f 554 555 541
f 559 551 556
f 556 557 552
f 552 557 556
f 560 552 545
f 553 545 560
f 560 545 553
f 557 558 547
f 548 557 559
f 559 557 548
f 553 560 558
f 558 560 553
f 559 557 556
f 556 557 559
f 552 557 561
f 561 557 552
f 552 560 561
f 558 557 562
f 558 560 563
f 563 560 558
f 561 557 564
f 564 557 561
f 563 561 560
f 564 562 557
f 558 563 562
f 562 563 558
f 561 564 565
f 565 564 561
f 561 563 565
f 562 564 566
f 562 563 566
f 566 563 562
f 565 566 564
f 566 565 563
f 567 568 569
f 568 567 570
f 571 569 568
f 572 567 569
f 573 570 567
f 569 571 572
f 567 572 574
f 570 573 575
f 567 574 573
f 576 572 571
f 572 576 574
f 577 575 573
f 573 574 578
f 579 574 576
f 575 577 580
f 573 578 577
f 574 579 578
f 577 583 580
f 577 578 585
f 579 585 578
f 583 577 587
f 577 585 587
f 584 590 581
f 581 591 582
f 585 579 592
f 582 593 586
f 587 595 583
f 589 597 584
f 587 585 598
f 591 581 590
f 590 584 597
f 593 582 591
f 592 598 585
f 599 586 593
f 586 599 594
f 595 587 600
f 588 601 589
f 588 596 601
f 597 589 601
f 587 598 600
f 598 592 606
f 608 594 599
f 600 609 595
f 611 601 596
f 600 598 612
f 605 594 613
f 606 612 598
f 608 613 594
f 609 600 614
f 596 610 611
f 600 612 614
f 603 617 602
f 604 618 607
f 613 619 605
f 612 606 621
f 614 623 609
f 625 611 610
f 627 603 615
f 614 612 628
f 616 630 604
f 617 603 631
f 632 602 617
f 618 604 630
f 618 622 607
f 620 605 619
f 621 628 612
f 623 614 634
f 610 624 625
f 636 615 626
f 603 627 631
f 615 636 627
f 614 628 634
f 602 632 629
f 630 616 638
f 622 618 639
f 619 640 620
f 628 621 643
f 639 633 622
f 634 644 623
f 624 635 646
f 646 625 624
f 626 648 636
f 634 628 649
f 629 650 637
f 637 638 616
f 650 629 632
f 642 620 640
f 651 641 633
f 643 649 628
f 633 639 651
f 644 634 652
f 635 645 653
f 653 646 635
f 648 626 647
f 634 649 652
f 638 637 650
f 640 654 642
f 641 651 655
f 649 643 657
f 652 658 644
f 660 653 645
f 647 662 648
f 652 649 663
f 656 642 654
f 655 664 641
f 657 663 649
f 658 652 666
f 645 659 660
f 662 647 661
f 652 663 666
f 654 667 656
f 664 655 668
f 665 656 667
f 663 657 670
f 671 658 666
f 673 660 659
f 661 675 662
f 666 663 676
f 668 677 664
f 667 678 665
f 669 665 678
f 679 663 670
f 658 671 680
f 666 676 671
f 672 681 659
f 673 659 681
f 675 661 674
f 663 679 676
f 677 668 682
f 669 678 683
f 684 680 671
f 671 676 685
f 681 672 687
f 674 689 675
f 690 676 679
f 682 691 677
f 692 683 678
f 680 684 694
f 671 685 684
f 676 690 685
f 686 687 672
f 689 674 688
f 691 682 697
f 683 692 693
f 698 694 684
f 684 685 698
f 699 685 690
f 695 700 686
f 687 686 700
f 696 689 688
f 702 691 697
f 703 693 692
f 693 703 695
f 694 698 699
f 685 699 698
f 700 695 703
f 689 696 704
f 691 702 701
f 705 704 696
f 706 701 702
f 704 705 707
f 701 706 708
f 709 707 705
f 710 708 706
f 708 710 709
f 707 709 710
f 569 568 567
f 570 567 568
f 568 569 571
f 569 567 572
f 567 570 573
f 570 571 568
f 568 571 570
f 572 571 569
f 574 572 567
f 575 573 570
f 573 574 567
f 571 570 576
f 576 570 571
f 571 572 576
f 574 576 572
f 573 575 577
f 576 570 575
f 575 570 576
f 578 574 573
f 576 574 579
f 580 577 575
f 577 578 573
f 576 575 581
f 581 575 576
f 578 579 574
f 576 582 579
f 579 582 576
f 580 583 577
f 584 575 580
f 580 575 584
f 585 578 577
f 575 584 581
f 581 584 575
f 576 581 582
f 582 581 576
f 578 585 579
f 579 582 586
f 586 582 579
f 587 577 583
f 588 580 583
f 583 580 588
f 584 580 589
f 589 580 584
f 587 585 577
f 581 590 584
f 582 591 581
f 592 579 585
f 586 593 582
f 579 586 594
f 594 586 579
f 583 595 587
f 589 580 588
f 588 580 589
f 588 583 596
f 596 583 588
f 584 597 589
f 598 585 587
f 590 581 591
f 597 584 590
f 591 582 593
f 579 594 592
f 592 594 579
f 585 598 592
f 593 586 599
f 594 599 586
f 600 587 595
f 596 583 595
f 595 583 596
f 589 601 588
f 601 596 588
f 601 589 597
f 600 598 587
f 602 591 590
f 590 591 602
f 603 590 597
f 597 590 603
f 604 593 591
f 591 593 604
f 592 594 605
f 605 594 592
f 606 592 598
f 593 607 599
f 599 607 593
f 599 594 608
f 595 609 600
f 596 595 610
f 610 595 596
f 596 601 611
f 603 597 601
f 601 597 603
f 612 598 600
f 602 604 591
f 591 604 602
f 602 590 603
f 603 590 602
f 593 604 607
f 607 604 593
f 613 594 605
f 592 605 606
f 606 605 592
f 598 612 606
f 599 607 608
f 608 607 599
f 594 613 608
f 614 600 609
f 610 595 609
f 609 595 610
f 611 610 596
f 615 601 611
f 611 601 615
f 603 601 615
f 615 601 603
f 614 612 600
f 602 616 604
f 604 616 602
f 602 617 603
f 607 618 604
f 605 619 613
f 606 605 620
f 620 605 606
f 621 606 612
f 608 607 622
f 622 607 608
f 608 622 613
f 613 622 608
f 609 623 614
f 610 609 624
f 624 609 610
f 610 611 625
f 615 611 626
f 626 611 615
f 615 603 627
f 628 612 614
f 629 616 602
f 602 616 629
f 604 630 616
f 631 603 617
f 617 602 632
f 630 604 618
f 607 622 618
f 619 605 620
f 613 633 619
f 619 633 613
f 606 620 621
f 621 620 606
f 612 628 621
f 613 622 633
f 633 622 613
f 634 614 623
f 635 609 623
f 623 609 635
f 624 609 635
f 635 609 624
f 625 624 610
f 626 611 625
f 625 611 626
f 626 615 636
f 631 627 603
f 627 636 615
f 634 628 614
f 616 629 637
f 637 629 616
f 629 632 602
f 638 616 630
f 630 617 631
f 631 617 630
f 638 632 617
f 617 632 638
f 630 631 618
f 618 631 630
f 639 618 622
f 620 640 619
f 619 633 641
f 641 633 619
f 621 620 642
f 642 620 621
f 643 621 628
f 622 633 639
f 623 644 634
f 635 623 645
f 645 623 635
f 646 635 624
f 624 625 646
f 626 625 647
f 647 625 626
f 636 648 626
f 618 631 627
f 627 631 618
f 639 627 636
f 636 627 639
f 649 628 634
f 637 650 629
f 616 638 637
f 632 629 650
f 638 617 630
f 630 617 638
f 632 638 650
f 650 638 632
f 618 627 639
f 639 627 618
f 640 620 642
f 619 641 640
f 640 641 619
f 633 641 651
f 621 642 643
f 643 642 621
f 628 649 643
f 651 639 633
f 652 634 644
f 645 623 644
f 644 623 645
f 653 645 635
f 635 646 653
f 647 625 646
f 646 625 647
f 647 626 648
f 651 636 648
f 648 636 651
f 639 636 651
f 651 636 639
f 652 649 634
f 650 637 638
f 642 654 640
f 640 641 654
f 654 641 640
f 655 651 641
f 643 642 656
f 656 642 643
f 657 643 649
f 644 658 652
f 645 644 659
f 659 644 645
f 645 653 660
f 661 646 653
f 653 646 661
f 647 646 661
f 661 646 647
f 648 662 647
f 651 648 655
f 655 648 651
f 663 649 652
f 654 642 656
f 654 641 664
f 664 641 654
f 641 664 655
f 643 656 665
f 665 656 643
f 643 665 657
f 657 665 643
f 649 663 657
f 666 652 658
f 659 644 658
f 658 644 659
f 660 659 645
f 661 653 660
f 660 653 661
f 661 647 662
f 655 648 662
f 662 648 655
f 666 663 652
f 656 667 654
f 654 664 667
f 667 664 654
f 668 655 664
f 667 656 665
f 657 665 669
f 669 665 657
f 670 657 663
f 666 658 671
f 659 658 672
f 672 658 659
f 659 660 673
f 661 660 674
f 674 660 661
f 662 675 661
f 655 662 668
f 668 662 655
f 676 663 666
f 667 664 677
f 677 664 667
f 664 677 668
f 665 678 667
f 678 665 669
f 657 669 670
f 670 669 657
f 670 663 679
f 680 671 658
f 671 676 666
f 672 658 680
f 680 658 672
f 659 681 672
f 674 660 673
f 673 660 674
f 681 659 673
f 674 661 675
f 668 662 675
f 675 662 668
f 676 679 663
f 667 677 678
f 678 677 667
f 682 668 677
f 683 678 669
f 670 669 683
f 683 669 670
f 670 683 679
f 679 683 670
f 671 680 684
f 685 676 671
f 672 680 686
f 686 680 672
f 687 672 681
f 674 673 688
f 688 673 674
f 688 673 681
f 681 673 688
f 675 689 674
f 668 675 682
f 682 675 668
f 679 676 690
f 678 677 691
f 691 677 678
f 677 691 682
f 678 683 692
f 679 683 693
f 693 683 679
f 694 684 680
f 684 685 671
f 685 690 676
f 686 680 695
f 695 680 686
f 672 687 686
f 696 681 687
f 687 681 696
f 688 674 689
f 688 681 696
f 696 681 688
f 682 675 689
f 689 675 682
f 679 680 690
f 690 680 679
f 678 691 692
f 692 691 678
f 697 682 691
f 693 692 683
f 679 693 695
f 695 693 679
f 684 694 698
f 690 680 694
f 694 680 690
f 698 685 684
f 690 685 699
f 695 680 679
f 679 680 695
f 686 700 695
f 700 686 687
f 696 687 700
f 700 687 696
f 688 689 696
f 682 689 697
f 697 689 682
f 692 691 701
f 701 691 692
f 697 691 702
f 692 693 703
f 695 703 693
f 699 698 694
f 690 694 699
f 699 694 690
f 698 699 685
f 703 695 700
f 700 701 696
f 696 701 700
f 704 696 689
f 697 689 704
f 704 689 697
f 701 702 691
f 692 701 703
f 703 701 692
f 697 704 702
f 702 704 697
f 703 701 700
f 700 701 703
f 696 701 705
f 705 701 696
f 696 704 705
f 702 701 706
f 702 704 707
f 707 704 702
f 705 701 708
f 708 701 705
f 707 705 704
f 708 706 701
f 702 707 706
f 706 707 702
f 705 708 709
f 709 708 705
f 705 707 709
f 706 708 710
f 706 707 710
f 710 707 706
f 709 710 708
f 710 709 707
f 711 712 713
f 712 711 714
f 715 713 712
f 716 711 713
f 717 714 711
f 713 715 716
f 711 716 718
f 714 717 719
f 711 718 717
f 720 716 715
f 716 720 718
f 721 719 717
f 717 718 722
f 723 718 720
f 719 721 724
f 717 722 721
f 718 723 722
f 721 727 724
f 721 722 729
f 723 729 722
f 727 721 731
f 721 729 731
f 728 734 725
f 725 735 726
f 729 723 736
f 726 737 730
f 731 739 727
f 733 741 728
f 731 729 742
f 735 725 734
f 734 728 741
f 737 726 735
f 736 742 729
f 743 730 737
f 730 743 738
f 739 731 744
f 732 745 733
f 732 740 745
f 741 733 745
f 731 742 744
f 742 736 750
f 752 738 743
f 744 753 739
f 755 745 740
f 744 742 756
f 749 738 757
f 750 756 742
f 752 757 738
f 753 744 758
f 740 754 755
f 744 756 758
f 747 761 746
f 748 762 751
f 757 763 749
f 756 750 765
f 758 767 753
f 769 755 754
f 771 747 759
f 758 756 772
f 760 774 748
f 761 747 775
f 776 746 761
f 762 748 774
f 762 766 751
f 764 749 763
f 765 772 756
f 767 758 778
f 754 768 769
f 780 759 770
f 747 771 775
f 759 780 771
f 758 772 778
f 746 776 773
f 774 760 782
f 766 762 783
f 763 784 764
f 772 765 787
f 783 777 766
f 778 788 767
f 768 779 790
f 790 769 768
f 770 792 780
f 778 772 793
f 773 794 781
f 781 782 760
f 794 773 776
f 786 764 784
f 795 785 777
f 787 793 772
f 777 783 795
f 788 778 796
f 779 789 797
f 797 790 779
f 792 770 791
f 778 793 796
f 782 781 794
f 784 798 786
f 785 795 799
f 793 787 801
f 796 802 788
f 804 797 789
f 791 806 792
f 796 793 807
f 800 786 798
f 799 808 785
f 801 807 793
f 802 796 810
f 789 803 804
f 806 791 805
f 796 807 810
f 798 811 800
f 808 799 812
f 809 800 811
f 807 801 814
f 815 802 810
f 817 804 803
f 805 819 806
f 810 807 820
f 812 821 808
f 811 822 809
f 813 809 822
f 823 807 814
f 802 815 824
f 810 820 815
f 816 825 803
f 817 803 825
f 819 805 818
f 807 823 820
f 821 812 826
f 813 822 827
f 828 824 815
f 815 820 829
f 825 816 831
f 818 833 819
f 834 820 823
f 826 835 821
f 836 827 822
f 824 828 838
f 815 829 828
f 820 834 829
f 830 831 816
f 833 818 832
f 835 826 841
f 827 836 837
f 842 838 828
f 828 829 842
f 843 829 834
f 839 844 830
f 831 830 844
f 840 833 832
f 846 835 841
f 847 837 836
f 837 847 839
f 838 842 843
f 829 843 842
f 844 839 847
f 833 840 848
f 835 846 845
f 849 848 840
f 850 845 846
f 848 849 851
f 845 850 852
f 853 851 849
f 854 852 850
f 852 854 853
f 851 853 854
f 713 712 711
f 714 711 712
f 712 713 715
f 713 711 716
f 711 714 717
f 714 715 712
f 712 715 714
f 716 715 713
f 718 716 711
f 719 717 714
f 717 718 711
f 715 714 720
f 720 714 715
f 715 716 720
f 718 720 716
f 717 719 721
f 720 714 719
f 719 714 720
f 722 718 717
f 720 718 723
f 724 721 719
f 721 722 717
f 720 719 725
f 725 719 720
f 722 723 718
f 720 726 723
f 723 726 720
f 724 727 721
f 728 719 724
f 724 719 728
f 729 722 721
f 719 728 725
f 725 728 719
f 720 725 726
f 726 725 720
f 722 729 723
f 723 726 730
f 730 726 723
f 731 721 727
f 732 724 727
f 727 724 732
f 728 724 733
f 733 724 728
f 731 729 721
f 725 734 728
f 726 735 725
f 736 723 729
f 730 737 726
f 723 730 738
f 738 730 723
f 727 739 731
f 733 724 732
f 732 724 733
f 732 727 740
f 740 727 732
f 728 741 733
f 742 729 731
f 734 725 735
f 741 728 734
f 735 726 737
f 723 738 736
f 736 738 723
f 729 742 736
f 737 730 743
f 738 743 730
f 744 731 739
f 740 727 739
f 739 727 740
f 733 745 732
f 745 740 732
f 745 733 741
f 744 742 731
f 746 735 734
f 734 735 746
f 747 734 741
f 741 734 747
f 748 737 735
f 735 737 748
f 736 738 749
f 749 738 736
f 750 736 742
f 737 751 743
f 743 751 737
f 743 738 752
f 739 753 744
f 740 739 754
f 754 739 740
f 740 745 755
f 747 741 745
f 745 741 747
f 756 742 744
f 746 748 735
f 735 748 746
f 746 734 747
f 747 734 746
f 737 748 751
f 751 748 737
f 757 738 749
f 736 749 750
f 750 749 736
f 742 756 750
f 743 751 752
f 752 751 743
f 738 757 752
f 758 744 753
f 754 739 753
f 753 739 754
f 755 754 740
f 759 745 755
f 755 745 759
f 747 745 759
f 759 745 747
f 758 756 744
f 746 760 748
f 748 760 746
f 746 761 747
f 751 762 748
f 749 763 757
f 750 749 764
f 764 749 750
f 765 750 756
f 752 751 766
f 766 751 752
f 752 766 757
f 757 766 752
f 753 767 758
f 754 753 768
f 768 753 754
f 754 755 769
f 759 755 770
f 770 755 759
f 759 747 771
f 772 756 758
f 773 760 746
f 746 760 773
f 748 774 760
f 775 747 761
f 761 746 776
f 774 748 762
f 751 766 762
f 763 749 764
f 757 777 763
f 763 777 757
f 750 764 765
f 765 764 750
f 756 772 765
f 757 766 777
f 777 766 757
f 778 758 767
f 779 753 767
f 767 753 779
f 768 753 779
f 779 753 768
f 769 768 754
f 770 755 769
f 769 755 770
f 770 759 780
f 775 771 747
f 771 780 759
f 778 772 758
f 760 773 781
f 781 773 760
f 773 776 746
f 782 760 774
f 774 761 775
f 775 761 774
f 782 776 761
f 761 776 782
f 774 775 762
f 762 775 774
f 783 762 766
f 764 784 763
f 763 777 785
f 785 777 763
f 765 764 786
f 786 764 765
f 787 765 772
f 766 777 783
f 767 788 778
f 779 767 789
f 789 767 779
f 790 779 768
f 768 769 790
f 770 769 791
f 791 769 770
f 780 792 770
f 762 775 771
f 771 775 762
f 783 771 780
f 780 771 783
f 793 772 778
f 781 794 773
f 760 782 781
f 776 773 794
f 782 761 774
f 774 761 782
f 776 782 794
f 794 782 776
f 762 771 783
f 783 771 762
f 784 764 786
f 763 785 784
f 784 785 763
f 777 785 795
f 765 786 787
f 787 786 765
f 772 793 787
f 795 783 777
f 796 778 788
f 789 767 788
f 788 767 789
f 797 789 779
f 779 790 797
f 791 769 790
f 790 769 791
f 791 770 792
f 795 780 792
f 792 780 795
f 783 780 795
f 795 780 783
f 796 793 778
f 794 781 782
f 786 798 784
f 784 785 798
f 798 785 784
f 799 795 785
f 787 786 800
f 800 786 787
f 801 787 793
f 788 802 796
f 789 788 803
f 803 788 789
f 789 797 804
f 805 790 797
f 797 790 805
f 791 790 805
f 805 790 791
f 792 806 791
f 795 792 799
f 799 792 795
f 807 793 796
f 798 786 800
f 798 785 808
f 808 785 798
f 785 808 799
f 787 800 809
f 809 800 787
f 787 809 801
f 801 809 787
f 793 807 801
f 810 796 802
f 803 788 802
f 802 788 803
f 804 803 789
f 805 797 804
f 804 797 805
f 805 791 806
f 799 792 806
f 806 792 799
f 810 807 796
f 800 811 798
f 798 808 811
f 811 808 798
f 812 799 808
f 811 800 809
f 801 809 813
f 813 809 801
f 814 801 807
f 810 802 815
f 803 802 816
f 816 802 803
f 803 804 817
f 805 804 818
f 818 804 805
f 806 819 805
f 799 806 812
f 812 806 799
f 820 807 810
f 811 808 821
f 821 808 811
f 808 821 812
f 809 822 811
f 822 809 813
f 801 813 814
f 814 813 801
f 814 807 823
f 824 815 802
f 815 820 810
f 816 802 824
f 824 802 816
f 803 825 816
f 818 804 817
f 817 804 818
f 825 803 817
f 818 805 819
f 812 806 819
f 819 806 812
f 820 823 807
f 811 821 822
f 822 821 811
f 826 812 821
f 827 822 813
f 814 813 827
f 827 813 814
f 814 827 823
f 823 827 814
f 815 824 828
f 829 820 815
f 816 824 830
f 830 824 816
f 831 816 825
f 818 817 832
f 832 817 818
f 832 817 825
f 825 817 832
f 819 833 818
f 812 819 826
f 826 819 812
f 823 820 834
f 822 821 835
f 835 821 822
f 821 835 826
f 822 827 836
f 823 827 837
f 837 827 823
f 838 828 824
f 828 829 815
f 829 834 820
f 830 824 839
f 839 824 830
f 816 831 830
f 840 825 831
f 831 825 840
f 832 818 833
f 832 825 840
f 840 825 832
f 826 819 833
f 833 819 826
f 823 824 834
f 834 824 823
f 822 835 836
f 836 835 822
f 841 826 835
f 837 836 827
f 823 837 839
f 839 837 823
f 828 838 842
f 834 824 838
f 838 824 834
f 842 829 828
f 834 829 843
f 839 824 823
f 823 824 839
f 830 844 839
f 844 830 831
f 840 831 844
f 844 831 840
f 832 833 840
f 826 833 841
f 841 833 826
f 836 835 845
f 845 835 836
f 841 835 846
f 836 837 847
f 839 847 837
f 843 842 838
f 834 838 843
f 843 838 834
f 842 843 829
f 847 839 844
f 844 845 840
f 840 845 844
f 848 840 833
f 841 833 848
f 848 833 841
f 845 846 835
f 836 845 847
f 847 845 836
f 841 848 846
f 846 848 841
f 847 845 844
f 844 845 847
f 840 845 849
f 849 845 840
f 840 848 849
f 846 845 850
f 846 848 851
f 851 848 846
f 849 845 852
f 852 845 849
f 851 849 848
f 852 850 845
f 846 851 850
f 850 851 846
f 849 852 853
f 853 852 849
f 849 851 853
f 850 852 854
f 850 851 854
f 854 851 850
f 853 854 852
f 854 853 851
f 855 856 857
f 856 855 858
f 859 857 856
f 860 855 857
f 861 858 855
f 857 859 860
f 855 860 862
f 858 861 863
f 855 862 861
f 864 860 859
f 860 864 862
f 865 863 861
f 861 862 866
f 867 862 864
f 863 865 868
f 861 866 865
f 862 867 866
f 865 871 868
f 865 866 873
f 867 873 866
f 871 865 875
f 865 873 875
f 872 878 869
f 869 879 870
f 873 867 880
f 870 881 874
f 875 883 871
f 877 885 872
f 875 873 886
f 879 869 878
f 878 872 885
f 881 870 879
f 880 886 873
f 887 874 881
f 874 887 882
f 883 875 888
f 876 889 877
f 876 884 889
f 885 877 889
f 875 886 888
f 886 880 894
f 896 882 887
f 888 897 883
f 899 889 884
f 888 886 900
f 893 882 901
f 894 900 886
f 896 901 882
f 897 888 902
f 884 898 899
f 888 900 902
f 891 905 890
f 892 906 895
f 901 907 893
f 900 894 909
f 902 911 897
f 913 899 898
f 915 891 903
f 902 900 916
f 904 918 892
f 905 891 919
f 920 890 905
f 906 892 918
f 906 910 895
f 908 893 907
f 909 916 900
f 911 902 922
f 898 912 913
f 924 903 914
f 891 915 919
f 903 924 915
f 902 916 922
f 890 920 917
f 918 904 926
f 910 906 927
f 907 928 908
f 916 909 931
f 927 921 910
f 922 932 911
f 912 923 934
f 934 913 912
f 914 936 924
f 922 916 937
f 917 938 925
f 925 926 904
f 938 917 920
f 930 908 928
f 939 929 921
f 931 937 916
f 921 927 939
f 932 922 940
f 923 933 941
f 941 934 923
f 936 914 935
f 922 937 940
f 926 925 938
f 928 942 930
f 929 939 943
f 937 931 945
f 940 946 932
f 948 941 933
f 935 950 936
f 940 937 951
f 944 930 942
f 943 952 929
f 945 951 937
f 946 940 954
f 933 947 948
f 950 935 949
f 940 951 954
f 942 955 944
f 952 943 956
f 953 944 955
f 951 945 958
f 959 946 954
f 961 948 947
f 949 963 950
f 954 951 964
f 956 965 952
f 955 966 953
f 957 953 966
f 967 951 958
f 946 959 968
f 954 964 959
f 960 969 947
f 961 947 969
f 963 949 962
f 951 967 964
f 965 956 970
f 957 966 971
f 972 968 959
f 959 964 973
f 969 960 975
f 962 977 963
f 978 964 967
f 970 979 965
f 980 971 966
f 968 972 982
f 959 973 972
f 964 978 973
f 974 975 960
f 977 962 976
f 979 970 985
f 971 980 981
f 986 982 972
f 972 973 986
f 987 973 978
f 983 988 974
f 975 974 988
f 984 977 976
f 990 979 985
f 991 981 980
f 981 991 983
f 982 986 987
f 973 987 986
f 988 983 991
f 977 984 992
f 979 990 989
f 993 992 984
f 994 989 990
f 992 993 995
f 989 994 996
f 997 995 993
f 998 996 994
f 996 998 997
f 995 997 998
f 857 856 855
f 858 855 856
f 856 857 859
f 857 855 860
f 855 858 861
f 858 859 856
f 856 859 858
f 860 859 857
f 862 860 855
f 863 861 858
f 861 862 855
f 859 858 864
f 864 858 859
f 859 860 864
f 862 864 860
f 861 863 865
f 864 858 863
f 863 858 864
f 866 862 861
f 864 862 867
f 868 865 863
f 865 866 861
f 864 863 869
f 869 863 864
f 866 867 862
f 864 870 867
f 867 870 864
f 868 871 865
f 872 863 868
f 868 863 872
f 873 866 865
f 863 872 869
f 869 872 863
f 864 869 870
f 870 869 864
f 866 873 867
f 867 870 874
f 874 870 867
f 875 865 871
f 876 868 871
f 871 868 876
f 872 868 877
f 877 868 872
f 875 873 865
f 869 878 872
f 870 879 869
f 880 867 873
f 874 881 870
f 867 874 882
f 882 874 867
f 871 883 875
f 877 868 876
f 876 868 877
f 876 871 884
f 884 871 876
f 872 885 877
f 886 873 875
f 878 869 879
f 885 872 878
f 879 870 881
f 867 882 880
f 880 882 867
f 873 886 880
f 881 874 887
f 882 887 874
f 888 875 883
f 884 871 883
f 883 871 884
f 877 889 876
f 889 884 876
f 889 877 885
f 888 886 875
f 890 879 878
f 878 879 890
f 891 878 885
f 885 878 891
f 892 881 879
f 879 881 892
f 880 882 893
f 893 882 880
f 894 880 886
f 881 895 887
f 887 895 881
f 887 882 896
f 883 897 888
f 884 883 898
f 898 883 884
f 884 889 899
f 891 885 889
f 889 885 891
f 900 886 888
f 890 892 879
f 879 892 890
f 890 878 891
f 891 878 890
f 881 892 895
f 895 892 881
f 901 882 893
f 880 893 894
f 894 893 880
f 886 900 894
f 887 895 896
f 896 895 887
f 882 901 896
f 902 888 897
f 898 883 897
f 897 883 898
f 899 898 884
f 903 889 899
f 899 889 903
f 891 889 903
f 903 889 891
f 902 900 888
f 890 904 892
f 892 904 890
f 890 905 891
f 895 906 892
f 893 907 901
f 894 893 908
f 908 893 894
f 909 894 900
f 896 895 910
f 910 895 896
f 896 910 901
f 901 910 896
f 897 911 902
f 898 897 912
f 912 897 898
f 898 899 913
f 903 899 914
f 914 899 903
f 903 891 915
f 916 900 902
f 917 904 890
f 890 904 917
f 892 918 904
f 919 891 905
f 905 890 920
f 918 892 906
f 895 910 906
f 907 893 908
f 901 921 907
f 907 921 901
f 894 908 909
f 909 908 894
f 900 916 909
f 901 910 921
f 921 910 901
f 922 902 911
f 923 897 911
f 911 897 923
f 912 897 923
f 923 897 912
f 913 912 898
f 914 899 913
f 913 899 914
f 914 903 924
f 919 915 891
f 915 924 903
f 922 916 902
f 904 917 925
f 925 917 904
f 917 920 890
f 926 904 918
f 918 905 919
f 919 905 918
f 926 920 905
f 905 920 926
f 918 919 906
f 906 919 918
f 927 906 910
f 908 928 907
f 907 921 929
f 929 921 907
f 909 908 930
f 930 908 909
f 931 909 916
f 910 921 927
f 911 932 922
f 923 911 933
f 933 911 923
f 934 923 912
f 912 913 934
f 914 913 935
f 935 913 914
f 924 936 914
f 906 919 915
f 915 919 906
f 927 915 924
f 924 915 927
f 937 916 922
f 925 938 917
f 904 926 925
f 920 917 938
f 926 905 918
f 918 905 926
f 920 926 938
f 938 926 920
f 906 915 927
f 927 915 906
f 928 908 930
f 907 929 928
f 928 929 907
f 921 929 939
f 909 930 931
f 931 930 909
f 916 937 931
f 939 927 921
f 940 922 932
f 933 911 932
f 932 911 933
f 941 933 923
f 923 934 941
f 935 913 934
f 934 913 935
f 935 914 936
f 939 924 936
f 936 924 939
f 927 924 939
f 939 924 927
f 940 937 922
f 938 925 926
f 930 942 928
f 928 929 942
f 942 929 928
f 943 939 929
f 931 930 944
f 944 930 931
f 945 931 937
f 932 946 940
f 933 932 947
f 947 932 933
f 933 941 948
f 949 934 941
f 941 934 949
f 935 934 949
f 949 934 935
f 936 950 935
f 939 936 943
f 943 936 939
f 951 937 940
f 942 930 944
f 942 929 952
f 952 929 942
f 929 952 943
f 931 944 953
f 953 944 931
f 931 953 945
f 945 953 931
f 937 951 945
f 954 940 946
f 947 932 946
f 946 932 947
f 948 947 933
f 949 941 948
f 948 941 949
f 949 935 950
f 943 936 950
f 950 936 943
f 954 951 940
f 944 955 942
f 942 952 955
f 955 952 942
f 956 943 952
f 955 944 953
f 945 953 957
f 957 953 945
f 958 945 951
f 954 946 959
f 947 946 960
f 960 946 947
f 947 948 961
f 949 948 962
f 962 948 949
f 950 963 949
f 943 950 956
f 956 950 943
f 964 951 954
f 955 952 965
f 965 952 955
f 952 965 956
f 953 966 955
f 966 953 957
f 945 957 958
f 958 957 945
f 958 951 967
f 968 959 946
f 959 964 954
f 960 946 968
f 968 946 960
f 947 969 960
f 962 948 961
f 961 948 962
f 969 947 961
f 962 949 963
f 956 950 963
f 963 950 956
f 964 967 951
f 955 965 966
f 966 965 955
f 970 956 965
f 971 966 957
f 958 957 971
f 971 957 958
f 958 971 967
f 967 971 958
f 959 968 972
f 973 964 959
f 960 968 974
f 974 968 960
f 975 960 969
f 962 961 976
f 976 961 962
f 976 961 969
f 969 961 976
f 963 977 962
f 956 963 970
f 970 963 956
f 967 964 978
f 966 965 979
f 979 965 966
f 965 979 970
f 966 971 980
f 967 971 981
f 981 971 967
f 982 972 968
f 972 973 959
f 973 978 964
f 974 968 983
f 983 968 974
f 960 975 974
f 984 969 975
f 975 969 984
f 976 962 977
f 976 969 984
f 984 969 976
f 970 963 977
f 977 963 970
f 967 968 978
f 978 968 967
f 966 979 980
f 980 979 966
f 985 970 979
f 981 980 971
f 967 981 983
f 983 981 967
f 972 982 986
f 978 968 982
f 982 968 978
f 986 973 972
f 978 973 987
f 983 968 967
f 967 968 983
f 974 988 983
f 988 974 975
f 984 975 988
f 988 975 984
f 976 977 984
f 970 977 985
f 985 977 970
f 980 979 989
f 989 979 980
f 985 979 990
f 980 981 991
f 983 991 981
f 987 986 982
f 978 982 987
f 987 982 978
f 986 987 973
f 991 983 988
f 988 989 984
f 984 989 988
f 992 984 977
f 985 977 992
f 992 977 985
f 989 990 979
f 980 989 991
f 991 989 980
f 985 992 990
f 990 992 985
f 991 989 988
f 988 989 991
f 984 989 993
f 993 989 984
f 984 992 993
f 990 989 994
f 990 992 995
f 995 992 990
f 993 989 996
f 996 989 993
f 995 993 992
f 996 994 989
f 990 995 994
f 994 995 990
f 993 996 997
f 997 996 993
f 993 995 997
f 994 996 998
f 994 995 998
f 998 995 994
f 997 998 996
f 998 997 995

