# https://github.com/mikedh/trimesh
v -0.50000000 -0.33050854 0.14830499
v 0.50000000 0.33050854 0.14830499
v 0.50000000 -0.33050854 0.14830499
v -0.50000000 0.33050854 0.14830499
v 0.50000000 -0.33050854 0.19067794
v -0.50000000 0.33050854 0.19067794
v 0.50000000 0.33050854 0.19067794
v -0.50000000 -0.33050854 0.19067794
v 0.49576264 -0.28601723 -0.02118615
v -0.49576264 0.28601723 -0.02118615
v 0.49576264 0.28601723 -0.02118615
v -0.49576264 -0.28601723 -0.02118615
v 0.49576264 0.28601723 -0.00423736
v -0.49576264 -0.28601723 -0.00423736
v -0.49576264 0.28601723 -0.00423736
v 0.49576264 -0.28601723 -0.00423736
v 0.45762705 -0.33050854 -0.19067794
v 0.50000000 -0.28813559 -0.19067794
v 0.50000000 -0.33050854 -0.19067794
v 0.45762705 -0.28813559 -0.19067794
v 0.45762705 -0.28813559 0.14830499
v 0.50000000 -0.28813559 0.14830499
v 0.45762705 -0.33050854 0.14830499
v -0.50000000 -0.33050854 -0.19067794
v -0.45762705 -0.28813559 -0.19067794
v -0.45762705 -0.33050854 -0.19067794
v -0.50000000 -0.28813559 -0.19067794
v -0.45762705 -0.33050854 0.14830499
v -0.50000000 -0.28813559 0.14830499
v -0.45762705 -0.28813559 0.14830499
v -0.50000000 0.28813559 -0.19067794
v -0.45762705 0.33050854 -0.19067794
v -0.45762705 0.28813559 -0.19067794
v -0.50000000 0.33050854 -0.19067794
v -0.45762705 0.28813559 0.14830499
v -0.45762705 0.33050854 0.14830499
v -0.50000000 0.28813559 0.14830499
v 0.45762705 0.28813559 -0.19067794
v 0.50000000 0.33050854 -0.19067794
v 0.50000000 0.28813559 -0.19067794
v 0.45762705 0.33050854 -0.19067794
v 0.50000000 0.28813559 0.14830499
v 0.45762705 0.33050854 0.14830499
v 0.45762705 0.28813559 0.14830499
f 1 2 3
f 2 1 4
f 3 2 1
f 4 1 2
f 2 5 3
f 3 5 2
f 5 1 3
f 3 1 5
f 1 6 4
f 4 6 1
f 6 2 4
f 4 2 6
f 5 2 7
f 7 2 5
f 1 5 8
f 8 5 1
f 6 1 8
f 8 1 6
f 2 6 7
f 7 6 2
f 6 5 7
f 7 5 6
f 5 6 8
f 8 6 5
f 9 10 11
f 10 9 12
f 10 13 11
f 13 9 11
f 9 14 12
f 14 10 12
f 13 10 15
f 9 13 16
f 14 9 16
f 10 14 15
f 15 16 13
f 16 15 14
f 11 10 9
f 12 9 10
f 11 13 10
f 11 9 13
f 12 14 9
f 12 10 14
f 15 10 13
f 16 13 9
f 16 9 14
f 15 14 10
f 13 16 15
f 14 15 16
f 17 18 19
f 18 17 20
f 18 3 19
f 3 17 19
f 17 21 20
f 21 18 20
f 3 18 22
f 17 3 23
f 21 17 23
f 18 21 22
f 21 3 22
f 3 21 23
f 19 18 17
f 20 17 18
f 19 3 18
f 19 17 3
f 20 21 17
f 20 18 21
f 22 18 3
f 23 3 17
f 23 17 21
f 22 21 18
f 22 3 21
f 23 21 3
f 24 25 26
f 25 24 27
f 25 28 26
f 28 24 26
f 24 29 27
f 29 25 27
f 28 25 30
f 24 28 1
f 29 24 1
f 25 29 30
f 29 28 30
f 28 29 1
f 26 25 24
f 27 24 25
f 26 28 25
f 26 24 28
f 27 29 24
f 27 25 29
f 30 25 28
f 1 28 24
f 1 24 29
f 30 29 25
f 30 28 29
f 1 29 28
f 31 32 33
f 32 31 34
f 32 35 33
f 35 31 33
f 31 4 34
f 4 32 34
f 35 32 36
f 31 35 37
f 4 31 37
f 32 4 36
f 4 35 36
f 35 4 37
f 33 32 31
f 34 31 32
f 33 35 32
f 33 31 35
f 34 4 31
f 34 32 4
f 36 32 35
f 37 35 31
f 37 31 4
f 36 4 32
f 36 35 4
f 37 4 35
f 38 39 40
f 39 38 41
f 39 42 40
f 42 38 40
f 38 43 41
f 43 39 41
f 42 39 2
f 38 42 44
f 43 38 44
f 39 43 2
f 43 42 2
f 42 43 44
f 40 39 38
f 41 38 39
f 40 42 39
f 40 38 42
f 41 43 38
f 41 39 43
f 2 39 42
f 44 42 38
f 44 38 43
f 2 43 39
f 2 42 43
f 44 43 42

