# https://github.com/mikedh/trimesh
v 0.49996407 -0.06595691 0.35370795
v 0.46585768 -0.19310955 0.40974066
v 0.46585768 -0.19310955 0.35370795
v 0.49996407 -0.06595691 0.40974066
v 0.40000339 -0.30710225 0.35370795
v 0.30710225 0.40000339 0.35370795
v 0.50000000 0.06569017 0.35370795
v 0.30710225 0.40000339 0.40974066
v 0.40000339 -0.30710225 0.40974066
v 0.19311024 0.46585768 0.35370795
v 0.40016716 0.30689010 0.35370795
v 0.50000000 0.06569017 0.40974066
v 0.40016716 0.30689010 0.40974066
v 0.19311024 0.46585768 0.40974066
v 0.30689079 -0.40016716 0.35370795
v 0.06595760 0.49996407 0.35370795
v 0.46596064 0.19286147 0.35370795
v 0.06595760 0.49996407 0.40974066
v 0.30689079 -0.40016716 0.40974066
v 0.46596064 0.19286147 0.40974066
v 0.19286216 -0.46596064 0.35370795
v -0.06569017 0.50000000 0.35370795
v -0.06569017 0.50000000 0.40974066
v 0.19286216 -0.46596064 0.40974066
v 0.06569087 -0.50000000 0.35370795
v -0.19286147 0.46595995 0.35370795
v -0.19286147 0.46595995 0.40974066
v 0.06569087 -0.50000000 0.40974066
v -0.06595691 -0.49996407 0.35370795
v -0.30689010 0.40016647 0.35370795
v -0.30689010 0.40016647 0.40974066
v -0.06595691 -0.49996407 0.40974066
v -0.19310955 -0.46585768 0.35370795
v -0.40000270 0.30710156 0.35370795
v -0.40000270 0.30710156 0.40974066
v -0.19310955 -0.46585768 0.40974066
v -0.30710156 -0.40000339 0.40974066
v -0.46585699 0.19310955 0.35370795
v -0.46585699 0.19310955 0.40974066
v -0.30710156 -0.40000339 0.35370795
v -0.49996338 0.06595691 0.40974066
v -0.40016647 -0.30689079 0.40974066
v -0.50000000 -0.06569087 0.40974066
v -0.49996338 0.06595691 0.35370795
v -0.40016647 -0.30689079 0.35370795
v -0.50000000 -0.06569087 0.35370795
v -0.46595995 -0.19286216 0.40974066
v -0.46595995 -0.19286216 0.35370795
v -0.02652408 -0.02034214 -0.11790219
v -0.03314137 -0.00435451 -0.11790219
v -0.03088447 -0.01278368 -0.11790219
v -0.02035527 -0.02651371 -0.11790219
v -0.05177287 -0.02142913 -0.35370795
v -0.04446248 -0.03409913 -0.35370795
v -0.03313860 0.00437179 -0.11790219
v -0.05555486 -0.00729899 -0.35370795
v -0.03412193 -0.04444520 -0.35370795
v -0.01279957 -0.03087825 -0.11790219
v -0.05555072 0.00732870 -0.35370795
v -0.03087825 0.01279957 -0.11790219
v -0.02145608 -0.05176181 -0.35370795
v -0.00437179 -0.03313929 -0.11790219
v -0.05176112 0.02145608 -0.35370795
v -0.02651302 0.02035527 -0.11790219
v -0.00732801 -0.05555141 -0.35370795
v 0.00435451 -0.03314137 -0.11790219
v -0.04444451 0.03412193 -0.35370795
v -0.02034145 0.02652408 -0.11790219
v -0.03409844 0.04446248 -0.35370795
v 0.00729899 -0.05555556 -0.35370795
v 0.01278368 -0.03088516 -0.11790219
v -0.01278298 0.03088447 -0.11790219
v -0.02142913 0.05177287 -0.35370795
v 0.02142913 -0.05177356 -0.35370795
v 0.02034214 -0.02652408 -0.11790219
v -0.00435382 0.03314137 -0.11790219
v -0.00729829 0.05555486 -0.35370795
v 0.03409913 -0.04446317 -0.35370795
v 0.02651371 -0.02035527 -0.11790219
v 0.00437248 0.03313860 -0.11790219
v 0.00732870 0.05555141 -0.35370795
v 0.04444520 -0.03412263 -0.35370795
v 0.03087825 -0.01280026 -0.11790219
v 0.01280026 0.03087825 -0.11790219
v 0.02145677 0.05176112 -0.35370795
v 0.05176181 -0.02145677 -0.35370795
v 0.03313929 -0.00437248 -0.11790219
v 0.05555141 -0.00732870 -0.35370795
v 0.02035527 0.02651371 -0.11790219
v 0.03412263 0.04444451 -0.35370795
v 0.05555556 0.00729899 -0.35370795
v 0.03314206 0.00435382 -0.11790219
v 0.02652477 0.02034145 -0.11790219
v 0.04446317 0.03409844 -0.35370795
v 0.05177356 0.02142913 -0.35370795
v 0.03088516 0.01278298 -0.11790219
v -0.05177287 -0.02142913 0.11790219
v -0.05555486 -0.00729899 0.11790219
v -0.04446248 -0.03409913 0.11790219
v -0.05555072 0.00732870 0.11790219
v -0.03412193 -0.04444520 0.11790219
v -0.05176112 0.02145608 0.11790219
v -0.02145608 -0.05176181 0.11790219
v -0.04444451 0.03412193 0.11790219
v -0.00732801 -0.05555141 0.11790219
v 0.00729899 -0.05555556 0.11790219
v -0.03409844 0.04446248 0.11790219
v 0.02142913 -0.05177356 0.11790219
v -0.02142913 0.05177287 0.11790219
v 0.03409913 -0.04446317 0.11790219
v -0.00729829 0.05555486 0.11790219
v 0.04444520 -0.03412263 0.11790219
v 0.00732870 0.05555141 0.11790219
v 0.05176181 -0.02145677 0.11790219
v 0.02145677 0.05176112 0.11790219
v 0.03412263 0.04444451 0.11790219
v 0.05555141 -0.00732870 0.11790219
v 0.04446317 0.03409844 0.11790219
v 0.05555556 0.00729829 0.11790219
v 0.05177356 0.02142913 0.11790219
v -0.02652408 -0.02034214 0.35370795
v -0.03314137 -0.00435451 0.35370795
v -0.03088447 -0.01278368 0.35370795
v -0.02035527 -0.02651371 0.35370795
v -0.03313860 0.00437179 0.35370795
v -0.01279957 -0.03087825 0.35370795
v -0.03087825 0.01279957 0.35370795
v -0.00437179 -0.03313929 0.35370795
v -0.02651302 0.02035527 0.35370795
v 0.00435451 -0.03314137 0.35370795
v -0.02034145 0.02652408 0.35370795
v 0.01278368 -0.03088516 0.35370795
v -0.01278298 0.03088447 0.35370795
v 0.02034214 -0.02652408 0.35370795
v -0.00435382 0.03314137 0.35370795
v 0.02651371 -0.02035527 0.35370795
v 0.00437248 0.03313860 0.35370795
v 0.03087825 -0.01280026 0.35370795
v 0.01280026 0.03087825 0.35370795
v 0.03313929 -0.00437248 0.35370795
v 0.02035527 0.02651371 0.35370795
v 0.03314206 0.00435382 0.35370795
v 0.02652477 0.02034145 0.35370795
v 0.03088516 0.01278298 0.35370795
v -0.08799795 -0.21228766 -0.40974066
v 0.08799864 0.21228696 -0.40974066
v 0.21228766 -0.08799864 -0.40974066
v -0.21228696 0.08799795 -0.40974066
v 0.21228766 -0.08799864 -0.35370795
v -0.21228696 0.08799795 -0.35370795
v 0.08799864 0.21228696 -0.35370795
v -0.08799795 -0.21228766 -0.35370795
f 1 2 3
f 2 1 4
f 3 2 1
f 4 1 2
f 2 5 3
f 3 5 2
f 6 1 3
f 3 1 6
f 7 4 1
f 1 4 7
f 4 8 2
f 2 8 4
f 5 2 9
f 9 2 5
f 10 3 5
f 5 3 10
f 11 1 6
f 6 1 11
f 6 3 10
f 10 3 6
f 4 7 12
f 12 7 4
f 11 7 1
f 1 7 11
f 4 13 8
f 8 13 4
f 2 8 14
f 14 8 2
f 2 14 9
f 9 14 2
f 9 15 5
f 5 15 9
f 10 5 16
f 16 5 10
f 6 13 11
f 11 13 6
f 10 8 6
f 6 8 10
f 17 12 7
f 7 12 17
f 12 13 4
f 4 13 12
f 7 11 17
f 17 11 7
f 13 6 8
f 8 6 13
f 8 10 14
f 14 10 8
f 9 14 18
f 18 14 9
f 15 9 19
f 19 9 15
f 16 5 15
f 15 5 16
f 18 10 16
f 16 10 18
f 20 11 13
f 13 11 20
f 12 17 20
f 20 17 12
f 13 12 20
f 20 12 13
f 11 20 17
f 17 20 11
f 10 18 14
f 14 18 10
f 9 18 19
f 19 18 9
f 19 21 15
f 15 21 19
f 16 15 22
f 22 15 16
f 16 23 18
f 18 23 16
f 19 18 23
f 23 18 19
f 21 19 24
f 24 19 21
f 22 15 21
f 21 15 22
f 23 16 22
f 22 16 23
f 19 23 24
f 24 23 19
f 24 25 21
f 21 25 24
f 22 21 26
f 26 21 22
f 22 27 23
f 23 27 22
f 24 23 27
f 27 23 24
f 25 24 28
f 28 24 25
f 26 21 25
f 25 21 26
f 27 22 26
f 26 22 27
f 24 27 28
f 28 27 24
f 28 29 25
f 25 29 28
f 26 25 30
f 30 25 26
f 26 31 27
f 27 31 26
f 28 27 31
f 31 27 28
f 29 28 32
f 32 28 29
f 30 25 29
f 29 25 30
f 31 26 30
f 30 26 31
f 28 31 32
f 32 31 28
f 32 33 29
f 29 33 32
f 30 29 34
f 34 29 30
f 30 35 31
f 31 35 30
f 32 31 35
f 35 31 32
f 33 32 36
f 36 32 33
f 34 29 33
f 33 29 34
f 35 30 34
f 34 30 35
f 32 35 36
f 36 35 32
f 37 33 36
f 36 33 37
f 34 33 38
f 38 33 34
f 34 39 35
f 35 39 34
f 36 35 39
f 39 35 36
f 33 37 40
f 40 37 33
f 36 41 37
f 37 41 36
f 38 33 40
f 40 33 38
f 39 34 38
f 38 34 39
f 36 39 41
f 41 39 36
f 42 40 37
f 37 40 42
f 37 41 43
f 43 41 37
f 38 40 44
f 44 40 38
f 44 39 38
f 38 39 44
f 39 44 41
f 41 44 39
f 40 42 45
f 45 42 40
f 37 43 42
f 42 43 37
f 41 46 43
f 43 46 41
f 44 40 45
f 45 40 44
f 46 41 44
f 44 41 46
f 47 45 42
f 42 45 47
f 42 43 47
f 47 43 42
f 48 43 46
f 46 43 48
f 44 45 46
f 46 45 44
f 45 47 48
f 48 47 45
f 43 48 47
f 47 48 43
f 46 45 48
f 48 45 46
f 49 50 51
f 50 49 52
f 51 50 49
f 52 49 50
f 50 53 51
f 51 53 50
f 53 49 51
f 51 49 53
f 54 52 49
f 49 52 54
f 50 52 55
f 55 52 50
f 53 50 56
f 56 50 53
f 49 53 54
f 54 53 49
f 52 54 57
f 57 54 52
f 55 52 58
f 58 52 55
f 55 56 50
f 50 56 55
f 54 56 53
f 53 56 54
f 59 54 57
f 57 54 59
f 57 58 52
f 52 58 57
f 55 58 60
f 60 58 55
f 56 55 59
f 59 55 56
f 56 54 59
f 59 54 56
f 59 57 61
f 61 57 59
f 58 57 61
f 61 57 58
f 60 58 62
f 62 58 60
f 60 59 55
f 55 59 60
f 59 61 63
f 63 61 59
f 61 62 58
f 58 62 61
f 60 62 64
f 64 62 60
f 59 60 63
f 63 60 59
f 63 61 65
f 65 61 63
f 62 61 65
f 65 61 62
f 64 62 66
f 66 62 64
f 67 60 64
f 64 60 67
f 60 67 63
f 63 67 60
f 63 65 67
f 67 65 63
f 65 66 62
f 62 66 65
f 64 66 68
f 68 66 64
f 64 69 67
f 67 69 64
f 67 65 70
f 70 65 67
f 66 65 70
f 70 65 66
f 68 66 71
f 71 66 68
f 69 64 68
f 68 64 69
f 67 70 69
f 69 70 67
f 70 71 66
f 66 71 70
f 68 71 72
f 72 71 68
f 68 73 69
f 69 73 68
f 69 70 73
f 73 70 69
f 71 70 74
f 74 70 71
f 72 71 75
f 75 71 72
f 73 68 72
f 72 68 73
f 73 70 74
f 74 70 73
f 74 75 71
f 71 75 74
f 72 75 76
f 76 75 72
f 72 77 73
f 73 77 72
f 73 74 78
f 78 74 73
f 75 74 78
f 78 74 75
f 76 75 79
f 79 75 76
f 77 72 76
f 76 72 77
f 73 78 77
f 77 78 73
f 78 79 75
f 75 79 78
f 76 79 80
f 80 79 76
f 76 81 77
f 77 81 76
f 77 78 81
f 81 78 77
f 79 78 82
f 82 78 79
f 80 79 83
f 83 79 80
f 81 76 80
f 80 76 81
f 81 78 82
f 82 78 81
f 82 83 79
f 79 83 82
f 80 83 84
f 84 83 80
f 80 85 81
f 81 85 80
f 81 82 85
f 85 82 81
f 83 82 86
f 86 82 83
f 84 83 87
f 87 83 84
f 85 80 84
f 84 80 85
f 85 82 86
f 86 82 85
f 88 83 86
f 86 83 88
f 83 88 87
f 87 88 83
f 84 87 89
f 89 87 84
f 84 90 85
f 85 90 84
f 85 86 88
f 88 86 85
f 91 87 88
f 88 87 91
f 89 87 92
f 92 87 89
f 90 84 89
f 89 84 90
f 85 88 90
f 90 88 85
f 87 91 92
f 92 91 87
f 90 88 91
f 91 88 90
f 89 92 93
f 93 92 89
f 89 94 90
f 90 94 89
f 95 92 91
f 91 92 95
f 90 91 94
f 94 91 90
f 93 92 96
f 96 92 93
f 94 89 93
f 93 89 94
f 92 95 96
f 96 95 92
f 94 91 95
f 95 91 94
f 96 94 93
f 93 94 96
f 94 96 95
f 95 96 94
f 50 49 51
f 49 50 55
f 51 49 50
f 55 50 49
f 49 97 51
f 51 97 49
f 97 50 51
f 51 50 97
f 98 55 50
f 50 55 98
f 49 55 52
f 52 55 49
f 97 49 99
f 99 49 97
f 50 97 98
f 98 97 50
f 55 98 100
f 100 98 55
f 52 55 60
f 60 55 52
f 52 99 49
f 49 99 52
f 98 99 97
f 97 99 98
f 101 98 100
f 100 98 101
f 100 60 55
f 55 60 100
f 52 60 58
f 58 60 52
f 99 52 101
f 101 52 99
f 99 98 101
f 101 98 99
f 101 100 102
f 102 100 101
f 60 100 102
f 102 100 60
f 58 60 64
f 64 60 58
f 58 101 52
f 52 101 58
f 101 102 103
f 103 102 101
f 102 64 60
f 60 64 102
f 58 64 62
f 62 64 58
f 101 58 103
f 103 58 101
f 103 102 104
f 104 102 103
f 64 102 104
f 104 102 64
f 62 64 68
f 68 64 62
f 105 58 62
f 62 58 105
f 58 105 103
f 103 105 58
f 103 104 105
f 105 104 103
f 104 68 64
f 64 68 104
f 62 68 66
f 66 68 62
f 62 106 105
f 105 106 62
f 105 104 107
f 107 104 105
f 68 104 107
f 107 104 68
f 66 68 72
f 72 68 66
f 106 62 66
f 66 62 106
f 105 107 106
f 106 107 105
f 107 72 68
f 68 72 107
f 66 72 71
f 71 72 66
f 66 108 106
f 106 108 66
f 106 107 108
f 108 107 106
f 72 107 109
f 109 107 72
f 71 72 76
f 76 72 71
f 108 66 71
f 71 66 108
f 108 107 109
f 109 107 108
f 109 76 72
f 72 76 109
f 71 76 75
f 75 76 71
f 71 110 108
f 108 110 71
f 108 109 111
f 111 109 108
f 76 109 111
f 111 109 76
f 75 76 80
f 80 76 75
f 110 71 75
f 75 71 110
f 108 111 110
f 110 111 108
f 111 80 76
f 76 80 111
f 75 80 79
f 79 80 75
f 75 112 110
f 110 112 75
f 110 111 112
f 112 111 110
f 80 111 113
f 113 111 80
f 79 80 84
f 84 80 79
f 112 75 79
f 79 75 112
f 112 111 113
f 113 111 112
f 113 84 80
f 80 84 113
f 79 84 83
f 83 84 79
f 79 114 112
f 112 114 79
f 112 113 114
f 114 113 112
f 84 113 115
f 115 113 84
f 83 84 89
f 89 84 83
f 114 79 83
f 83 79 114
f 114 113 115
f 115 113 114
f 116 84 115
f 115 84 116
f 84 116 89
f 89 116 84
f 83 89 87
f 87 89 83
f 83 117 114
f 114 117 83
f 114 115 116
f 116 115 114
f 118 89 116
f 116 89 118
f 87 89 93
f 93 89 87
f 117 83 87
f 87 83 117
f 114 116 117
f 117 116 114
f 89 118 93
f 93 118 89
f 117 116 118
f 118 116 117
f 87 93 92
f 92 93 87
f 87 119 117
f 117 119 87
f 120 93 118
f 118 93 120
f 117 118 119
f 119 118 117
f 92 93 96
f 96 93 92
f 119 87 92
f 92 87 119
f 93 120 96
f 96 120 93
f 119 118 120
f 120 118 119
f 96 119 92
f 92 119 96
f 119 96 120
f 120 96 119
f 121 122 123
f 122 121 124
f 123 122 121
f 124 121 122
f 122 97 123
f 123 97 122
f 97 121 123
f 123 121 97
f 99 124 121
f 121 124 99
f 122 124 125
f 125 124 122
f 97 122 98
f 98 122 97
f 121 97 99
f 99 97 121
f 124 99 101
f 101 99 124
f 125 124 126
f 126 124 125
f 125 98 122
f 122 98 125
f 99 98 97
f 97 98 99
f 100 99 101
f 101 99 100
f 101 126 124
f 124 126 101
f 125 126 127
f 127 126 125
f 98 125 100
f 100 125 98
f 98 99 100
f 100 99 98
f 100 101 103
f 103 101 100
f 126 101 103
f 103 101 126
f 127 126 128
f 128 126 127
f 127 100 125
f 125 100 127
f 100 103 102
f 102 103 100
f 103 128 126
f 126 128 103
f 127 128 129
f 129 128 127
f 100 127 102
f 102 127 100
f 102 103 105
f 105 103 102
f 128 103 105
f 105 103 128
f 129 128 130
f 130 128 129
f 104 127 129
f 129 127 104
f 127 104 102
f 102 104 127
f 102 105 104
f 104 105 102
f 105 130 128
f 128 130 105
f 129 130 131
f 131 130 129
f 129 107 104
f 104 107 129
f 104 105 106
f 106 105 104
f 130 105 106
f 106 105 130
f 131 130 132
f 132 130 131
f 107 129 131
f 131 129 107
f 104 106 107
f 107 106 104
f 106 132 130
f 130 132 106
f 131 132 133
f 133 132 131
f 131 109 107
f 107 109 131
f 107 106 109
f 109 106 107
f 132 106 108
f 108 106 132
f 133 132 134
f 134 132 133
f 109 131 133
f 133 131 109
f 109 106 108
f 108 106 109
f 108 134 132
f 132 134 108
f 133 134 135
f 135 134 133
f 133 111 109
f 109 111 133
f 109 108 110
f 110 108 109
f 134 108 110
f 110 108 134
f 135 134 136
f 136 134 135
f 111 133 135
f 135 133 111
f 109 110 111
f 111 110 109
f 110 136 134
f 134 136 110
f 135 136 137
f 137 136 135
f 135 113 111
f 111 113 135
f 111 110 113
f 113 110 111
f 136 110 112
f 112 110 136
f 137 136 138
f 138 136 137
f 113 135 137
f 137 135 113
f 113 110 112
f 112 110 113
f 112 138 136
f 136 138 112
f 137 138 139
f 139 138 137
f 137 115 113
f 113 115 137
f 113 112 115
f 115 112 113
f 138 112 114
f 114 112 138
f 139 138 140
f 140 138 139
f 115 137 139
f 139 137 115
f 115 112 114
f 114 112 115
f 117 138 114
f 114 138 117
f 138 117 140
f 140 117 138
f 139 140 141
f 141 140 139
f 139 116 115
f 115 116 139
f 115 114 117
f 117 114 115
f 119 140 117
f 117 140 119
f 141 140 142
f 142 140 141
f 116 139 141
f 141 139 116
f 115 117 116
f 116 117 115
f 140 119 142
f 142 119 140
f 116 117 119
f 119 117 116
f 141 142 143
f 143 142 141
f 141 118 116
f 116 118 141
f 120 142 119
f 119 142 120
f 116 119 118
f 118 119 116
f 143 142 144
f 144 142 143
f 118 141 143
f 143 141 118
f 142 120 144
f 144 120 142
f 118 119 120
f 120 119 118
f 144 118 143
f 143 118 144
f 118 144 120
f 120 144 118
f 145 146 147
f 146 145 148
f 147 146 145
f 148 145 146
f 146 149 147
f 147 149 146
f 149 145 147
f 147 145 149
f 145 150 148
f 148 150 145
f 150 146 148
f 148 146 150
f 149 146 151
f 151 146 149
f 145 149 152
f 152 149 145
f 150 145 152
f 152 145 150
f 146 150 151
f 151 150 146
f 150 149 151
f 151 149 150
f 149 150 152
f 152 150 149

