# https://github.com/mikedh/trimesh
v -0.33333303 0.00000000 -0.50000000
v -0.33333303 0.03571442 0.47619039
v -0.33333303 0.00000000 0.47619039
v -0.33333303 0.03571442 -0.50000000
v 0.33333303 0.03571442 0.47619039
v -0.34047603 0.00000000 0.47619039
v -0.34047603 0.00000000 -0.50000000
v -0.35714264 0.03571442 0.50000000
v 0.33333303 0.00000000 0.47619039
v 0.35714264 0.03571442 0.50000000
v -0.34047603 0.00000000 0.48333278
v -0.35714264 -0.03571442 -0.50000000
v -0.35714264 0.03571442 -0.50000000
v 0.33333303 0.00000000 -0.50000000
v 0.34047603 0.00000000 0.48333278
v 0.35714264 0.03571442 -0.50000000
v 0.33333303 0.00000000 0.48333278
v -0.34047603 -0.03571442 -0.50000000
v 0.35714264 -0.03571442 0.50000000
v 0.33333303 0.03571442 -0.50000000
v 0.34047603 0.00000000 -0.50000000
v 0.34047603 0.00000000 0.47619039
v 0.35714264 -0.03571442 -0.50000000
v -0.34047603 -0.03571442 0.48333278
v 0.34047603 -0.03571442 0.48333278
v -0.35714264 -0.03571442 0.50000000
v 0.34047603 -0.03571442 -0.50000000
v 0.29285681 -0.01666661 -0.42857117
v 0.25714301 -0.01666661 -0.39285736
v 0.11904775 -0.01666661 -0.42857117
v 0.29285681 -0.01666661 0.43571417
v 0.15476217 -0.01666661 -0.39285736
v 0.29285681 -0.01904781 -0.42857117
v 0.25714301 -0.01666661 0.39999976
v 0.11904775 -0.01666661 0.43571417
v 0.15476217 -0.01904781 -0.39285736
v 0.11904775 -0.01904781 -0.42857117
v 0.29285681 -0.01904781 0.43571417
v 0.15476217 -0.01666661 0.39999976
v 0.25714301 -0.01904781 0.39999976
v 0.11904775 -0.01904781 0.43571417
v 0.25714301 -0.01904781 -0.39285736
v 0.07142853 -0.01904781 -0.49761879
v 0.34047603 -0.01904781 0.48333278
v 0.15476217 -0.01904781 0.39999976
v 0.07142853 -0.01904781 0.48333278
v 0.34047603 -0.01904781 -0.49761879
v 0.02380931 -0.01904781 -0.42857117
v 0.34047603 0.00000000 -0.49761879
v 0.07142853 0.00000000 0.48333278
v 0.02380931 -0.01904781 0.43571417
v -0.29285681 -0.01904781 -0.42857117
v 0.07142853 0.00000000 -0.49761879
v -0.29285681 -0.01904781 0.43571417
v 0.02380931 -0.01666661 0.43571417
v -0.34047603 -0.01904781 -0.49761879
v -0.29285681 -0.01666661 -0.42857117
v 0.11904775 0.00000000 -0.42857117
v 0.29285681 0.00000000 -0.42857117
v 0.11904775 0.00000000 0.43571417
v -0.34047603 -0.01904781 0.48333278
v -0.29285681 0.00000000 0.43571417
v 0.02380931 -0.01666661 -0.42857117
v -0.34047603 0.00000000 -0.49761879
v 0.29285681 0.00000000 0.43571417
v -0.29285681 0.00000000 -0.42857117
v 0.02380931 0.00000000 0.43571417
v -0.29285681 -0.01666661 0.43571417
v -0.01190450 -0.01666661 -0.39285736
v 0.02380931 0.00000000 -0.42857117
v 0.29285681 -0.00238059 -0.42857117
v 0.11904775 -0.00238059 0.43571417
v -0.29285681 -0.00238059 0.43571417
v -0.25714301 -0.01666661 0.39999976
v -0.01190450 -0.01666661 0.39999976
v -0.25714301 -0.01666661 -0.39285736
v 0.11904775 -0.00238059 -0.42857117
v 0.29285681 -0.00238059 0.43571417
v -0.29285681 -0.00238059 -0.42857117
v 0.02380931 -0.00238059 -0.42857117
v 0.02380931 -0.00238059 0.43571417
v -0.01190450 -0.01904781 0.39999976
v -0.25714301 -0.01904781 -0.39285736
v 0.15476217 -0.00238059 -0.39285736
v 0.25714301 -0.00238059 -0.39285736
v 0.15476217 -0.00238059 0.39999976
v -0.25714301 -0.00238059 -0.39285736
v -0.25714301 -0.00238059 0.39999976
v -0.01190450 -0.01904781 -0.39285736
v 0.25714301 -0.00238059 0.39999976
v -0.01190450 -0.00238059 -0.39285736
v -0.01190450 -0.00238059 0.39999976
v -0.25714301 -0.01904781 0.39999976
v 0.25714301 0.00000000 -0.39285736
v 0.15476217 0.00000000 0.39999976
v -0.25714301 0.00000000 0.39999976
v 0.15476217 0.00000000 -0.39285736
v 0.25714301 0.00000000 0.39999976
v -0.01190450 0.00000000 -0.39285736
v -0.25714301 0.00000000 -0.39285736
v -0.01190450 0.00000000 0.39999976
f 1 2 3
f 2 1 4
f 3 2 1
f 4 1 2
f 5 3 2
f 2 3 5
f 6 1 3
f 3 1 6
f 7 4 1
f 1 4 7
f 4 8 2
f 2 8 4
f 3 5 9
f 9 5 3
f 10 5 2
f 2 5 10
f 1 6 7
f 7 6 1
f 6 3 11
f 11 3 6
f 12 4 7
f 7 4 12
f 8 4 13
f 13 4 8
f 10 2 8
f 8 2 10
f 5 14 9
f 9 14 5
f 9 15 3
f 3 15 9
f 16 5 10
f 10 5 16
f 11 7 6
f 6 7 11
f 11 3 17
f 17 3 11
f 4 12 13
f 13 12 4
f 12 7 18
f 18 7 12
f 12 8 13
f 13 8 12
f 8 19 10
f 10 19 8
f 14 5 20
f 20 5 14
f 21 9 14
f 14 9 21
f 9 22 15
f 15 22 9
f 17 3 15
f 15 3 17
f 5 16 20
f 20 16 5
f 23 10 16
f 16 10 23
f 24 7 11
f 11 7 24
f 25 11 17
f 17 11 25
f 7 24 18
f 18 24 7
f 24 12 18
f 18 12 24
f 8 12 26
f 26 12 8
f 19 8 26
f 26 8 19
f 10 23 19
f 19 23 10
f 20 21 14
f 14 21 20
f 9 21 22
f 22 21 9
f 21 15 22
f 22 15 21
f 25 17 15
f 15 17 25
f 21 20 16
f 16 20 21
f 23 21 16
f 16 21 23
f 11 25 24
f 24 25 11
f 12 24 26
f 26 24 12
f 26 24 19
f 19 24 26
f 19 27 23
f 23 27 19
f 27 15 21
f 21 15 27
f 15 27 25
f 25 27 15
f 21 23 27
f 27 23 21
f 25 19 24
f 24 19 25
f 27 19 25
f 25 19 27
f 28 29 30
f 29 28 31
f 30 29 28
f 31 28 29
f 32 30 29
f 29 30 32
f 30 33 28
f 28 33 30
f 33 31 28
f 28 31 33
f 29 31 34
f 34 31 29
f 30 32 35
f 35 32 30
f 29 36 32
f 32 36 29
f 33 30 37
f 37 30 33
f 31 33 38
f 38 33 31
f 34 31 39
f 39 31 34
f 40 29 34
f 34 29 40
f 35 32 39
f 39 32 35
f 41 30 35
f 35 30 41
f 36 29 42
f 42 29 36
f 36 39 32
f 32 39 36
f 30 41 37
f 37 41 30
f 37 43 33
f 33 43 37
f 33 44 38
f 38 44 33
f 41 31 38
f 38 31 41
f 35 39 31
f 31 39 35
f 39 40 34
f 34 40 39
f 29 40 42
f 42 40 29
f 31 41 35
f 35 41 31
f 40 36 42
f 42 36 40
f 39 36 45
f 45 36 39
f 46 37 41
f 41 37 46
f 43 37 46
f 46 37 43
f 47 33 43
f 43 33 47
f 33 47 44
f 44 47 33
f 38 44 41
f 41 44 38
f 40 39 45
f 45 39 40
f 36 40 45
f 45 40 36
f 46 41 44
f 44 41 46
f 46 48 43
f 43 48 46
f 43 49 47
f 47 49 43
f 49 44 47
f 47 44 49
f 44 50 46
f 46 50 44
f 48 46 51
f 51 46 48
f 52 43 48
f 48 43 52
f 49 43 53
f 53 43 49
f 44 49 15
f 15 49 44
f 50 44 15
f 15 44 50
f 11 46 50
f 50 46 11
f 51 46 54
f 54 46 51
f 55 48 51
f 51 48 55
f 52 56 43
f 43 56 52
f 48 57 52
f 52 57 48
f 56 53 43
f 43 53 56
f 53 58 49
f 49 58 53
f 49 59 15
f 15 59 49
f 60 50 15
f 15 50 60
f 46 11 61
f 61 11 46
f 62 11 50
f 50 11 62
f 61 54 46
f 46 54 61
f 54 55 51
f 51 55 54
f 48 55 63
f 63 55 48
f 56 52 61
f 61 52 56
f 57 48 63
f 63 48 57
f 57 54 52
f 52 54 57
f 53 56 64
f 64 56 53
f 58 53 50
f 50 53 58
f 59 49 58
f 58 49 59
f 15 59 65
f 65 59 15
f 58 50 60
f 60 50 58
f 15 65 60
f 60 65 15
f 11 56 61
f 61 56 11
f 66 11 62
f 62 11 66
f 50 67 62
f 62 67 50
f 61 52 54
f 54 52 61
f 55 54 68
f 68 54 55
f 69 63 55
f 55 63 69
f 63 69 57
f 57 69 63
f 54 57 68
f 68 57 54
f 56 11 64
f 64 11 56
f 64 66 53
f 53 66 64
f 53 70 50
f 50 70 53
f 58 71 59
f 59 71 58
f 71 65 59
f 59 65 71
f 72 58 60
f 60 58 72
f 65 72 60
f 60 72 65
f 66 64 11
f 11 64 66
f 73 66 62
f 62 66 73
f 50 70 67
f 67 70 50
f 67 73 62
f 62 73 67
f 68 74 55
f 55 74 68
f 69 55 75
f 75 55 69
f 76 57 69
f 69 57 76
f 57 76 68
f 68 76 57
f 70 53 66
f 66 53 70
f 71 58 77
f 77 58 71
f 65 71 78
f 78 71 65
f 58 72 77
f 77 72 58
f 72 65 78
f 78 65 72
f 66 73 79
f 79 73 66
f 80 67 70
f 70 67 80
f 73 67 81
f 81 67 73
f 68 76 74
f 74 76 68
f 75 55 74
f 74 55 75
f 82 69 75
f 75 69 82
f 69 83 76
f 76 83 69
f 66 80 70
f 70 80 66
f 77 84 71
f 71 84 77
f 71 85 78
f 78 85 71
f 84 77 72
f 72 77 84
f 86 72 78
f 78 72 86
f 87 79 73
f 73 79 87
f 80 66 79
f 79 66 80
f 67 80 81
f 81 80 67
f 88 73 81
f 81 73 88
f 83 74 76
f 76 74 83
f 74 82 75
f 75 82 74
f 69 82 89
f 89 82 69
f 83 69 89
f 89 69 83
f 85 71 84
f 84 71 85
f 78 85 90
f 90 85 78
f 84 72 86
f 86 72 84
f 78 90 86
f 86 90 78
f 79 87 80
f 80 87 79
f 87 73 88
f 88 73 87
f 80 91 81
f 81 91 80
f 81 92 88
f 88 92 81
f 74 83 93
f 93 83 74
f 82 74 93
f 93 74 82
f 82 83 89
f 89 83 82
f 84 94 85
f 85 94 84
f 94 90 85
f 85 90 94
f 95 84 86
f 86 84 95
f 90 95 86
f 86 95 90
f 91 80 87
f 87 80 91
f 96 87 88
f 88 87 96
f 81 91 92
f 92 91 81
f 92 96 88
f 88 96 92
f 83 82 93
f 93 82 83
f 94 84 97
f 97 84 94
f 90 94 98
f 98 94 90
f 84 95 97
f 97 95 84
f 95 90 98
f 98 90 95
f 87 99 91
f 91 99 87
f 87 96 100
f 100 96 87
f 99 92 91
f 91 92 99
f 96 92 101
f 101 92 96
f 95 94 97
f 97 94 95
f 94 95 98
f 98 95 94
f 99 87 100
f 100 87 99
f 96 99 100
f 100 99 96
f 92 99 101
f 101 99 92
f 99 96 101
f 101 96 99

