# https://github.com/mikedh/trimesh
v -0.00200000 -0.02200000 -0.02200000
v -0.00200000 -0.02200000 -0.01800000
v -0.00200000 -0.01800000 -0.02200000
v -0.00200000 -0.01800000 -0.01800000
v 0.00200000 -0.02200000 -0.02200000
v 0.00200000 -0.02200000 -0.01800000
v 0.00200000 -0.01800000 -0.02200000
v 0.00200000 -0.01800000 -0.01800000
v -0.00200000 -0.02200000 -0.01400000
v -0.00200000 -0.01800000 -0.01400000
v 0.00200000 -0.02200000 -0.01400000
v 0.00200000 -0.01800000 -0.01400000
v -0.00200000 -0.02200000 -0.01000000
v -0.00200000 -0.01800000 -0.01000000
v 0.00200000 -0.02200000 -0.01000000
v 0.00200000 -0.01800000 -0.01000000
v -0.00200000 -0.02200000 -0.00600000
v -0.00200000 -0.02200000 -0.00200000
v -0.00200000 -0.01800000 -0.00600000
v -0.00200000 -0.01800000 -0.00200000
v 0.00200000 -0.02200000 -0.00600000
v 0.00200000 -0.02200000 -0.00200000
v 0.00200000 -0.01800000 -0.00600000
v 0.00200000 -0.01800000 -0.00200000
v -0.00200000 -0.01400000 -0.02200000
v -0.00200000 -0.01400000 -0.01800000
v 0.00200000 -0.01400000 -0.02200000
v 0.00200000 -0.01400000 -0.01800000
v -0.00200000 -0.01400000 -0.01400000
v 0.00200000 -0.01400000 -0.01400000
v -0.00200000 -0.01400000 -0.01000000
v 0.00200000 -0.01400000 -0.01000000
v -0.00200000 -0.01400000 -0.00600000
v 0.00200000 -0.01400000 -0.00600000
v -0.00200000 -0.01400000 -0.00200000
v 0.00200000 -0.01400000 -0.00200000
v -0.00200000 -0.01800000 0.00200000
v -0.00200000 -0.01400000 0.00200000
v 0.00200000 -0.01800000 0.00200000
v 0.00200000 -0.01400000 0.00200000
v -0.00200000 -0.01800000 0.00600000
v -0.00200000 -0.01400000 0.00600000
v 0.00200000 -0.01800000 0.00600000
v 0.00200000 -0.01400000 0.00600000
v -0.00200000 -0.01800000 0.01000000
v -0.00200000 -0.01400000 0.01000000
v 0.00200000 -0.01800000 0.01000000
v 0.00200000 -0.01400000 0.01000000
v -0.00200000 -0.01800000 0.01400000
v -0.00200000 -0.01400000 0.01400000
v 0.00200000 -0.01800000 0.01400000
v 0.00200000 -0.01400000 0.01400000
v -0.00200000 -0.01800000 0.01800000
v -0.00200000 -0.01400000 0.01800000
v 0.00200000 -0.01800000 0.01800000
v 0.00200000 -0.01400000 0.01800000
v -0.00200000 -0.01800000 0.02200000
v -0.00200000 -0.01400000 0.02200000
v 0.00200000 -0.01800000 0.02200000
v 0.00200000 -0.01400000 0.02200000
v -0.00200000 -0.01800000 0.02600000
v -0.00200000 -0.01800000 0.03000000
v -0.00200000 -0.01400000 0.02600000
v -0.00200000 -0.01400000 0.03000000
v 0.00200000 -0.01800000 0.02600000
v 0.00200000 -0.01800000 0.03000000
v 0.00200000 -0.01400000 0.02600000
v 0.00200000 -0.01400000 0.03000000
v -0.00200000 -0.01000000 -0.02200000
v -0.00200000 -0.01000000 -0.01800000
v 0.00200000 -0.01000000 -0.02200000
v 0.00200000 -0.01000000 -0.01800000
v -0.00200000 -0.01000000 -0.01400000
v 0.00200000 -0.01000000 -0.01400000
v -0.00200000 -0.01000000 -0.01000000
v 0.00200000 -0.01000000 -0.01000000
v -0.00200000 -0.01000000 -0.00600000
v 0.00200000 -0.01000000 -0.00600000
v -0.00200000 -0.01000000 -0.00200000
v 0.00200000 -0.01000000 -0.00200000
v -0.00200000 -0.01000000 0.00200000
v 0.00200000 -0.01000000 0.00200000
v -0.00200000 -0.01000000 0.00600000
v 0.00200000 -0.01000000 0.00600000
v -0.00200000 -0.01000000 0.01000000
v 0.00200000 -0.01000000 0.01000000
v -0.00200000 -0.01000000 0.01400000
v 0.00200000 -0.01000000 0.01400000
v -0.00200000 -0.01000000 0.01800000
v 0.00200000 -0.01000000 0.01800000
v -0.00200000 -0.01000000 0.02200000
v 0.00200000 -0.01000000 0.02200000
v -0.00200000 -0.01000000 0.02600000
v 0.00200000 -0.01000000 0.02600000
v -0.00200000 -0.01000000 0.03000000
v 0.00200000 -0.01000000 0.03000000
v -0.00200000 -0.01400000 0.03400000
v -0.00200000 -0.01000000 0.03400000
v 0.00200000 -0.01400000 0.03400000
v 0.00200000 -0.01000000 0.03400000
v -0.00200000 -0.01400000 0.03800000
v -0.00200000 -0.01000000 0.03800000
v 0.00200000 -0.01400000 0.03800000
v 0.00200000 -0.01000000 0.03800000
v -0.00200000 -0.01400000 0.04200000
v -0.00200000 -0.01000000 0.04200000
v 0.00200000 -0.01400000 0.04200000
v 0.00200000 -0.01000000 0.04200000
v -0.00200000 -0.01400000 0.04600000
v -0.00200000 -0.01000000 0.04600000
v 0.00200000 -0.01400000 0.04600000
v 0.00200000 -0.01000000 0.04600000
v -0.00200000 -0.01400000 0.05000000
v -0.00200000 -0.01000000 0.05000000
v 0.00200000 -0.01400000 0.05000000
v 0.00200000 -0.01000000 0.05000000
v -0.00200000 -0.01400000 0.05400000
v -0.00200000 -0.01000000 0.05400000
v 0.00200000 -0.01400000 0.05400000
v 0.00200000 -0.01000000 0.05400000
v -0.00200000 -0.00600000 -0.02200000
v -0.00200000 -0.00600000 -0.01800000
v 0.00200000 -0.00600000 -0.02200000
v 0.00200000 -0.00600000 -0.01800000
v -0.00200000 -0.00600000 -0.01400000
v 0.00200000 -0.00600000 -0.01400000
v -0.00200000 -0.00600000 -0.01000000
v 0.00200000 -0.00600000 -0.01000000
v -0.00200000 -0.00600000 -0.00600000
v 0.00200000 -0.00600000 -0.00600000
v -0.00200000 -0.00600000 -0.00200000
v 0.00200000 -0.00600000 -0.00200000
v -0.00200000 -0.00600000 0.00200000
v 0.00200000 -0.00600000 0.00200000
v -0.00200000 -0.00600000 0.00600000
v 0.00200000 -0.00600000 0.00600000
v -0.00200000 -0.00600000 0.01000000
v 0.00200000 -0.00600000 0.01000000
v -0.00200000 -0.00600000 0.01400000
v 0.00200000 -0.00600000 0.01400000
v -0.00200000 -0.00600000 0.01800000
v 0.00200000 -0.00600000 0.01800000
v -0.00200000 -0.00600000 0.02200000
v 0.00200000 -0.00600000 0.02200000
v -0.00200000 -0.00600000 0.02600000
v 0.00200000 -0.00600000 0.02600000
v -0.00200000 -0.00600000 0.03000000
v 0.00200000 -0.00600000 0.03000000
v -0.00200000 -0.00600000 0.03400000
v 0.00200000 -0.00600000 0.03400000
v -0.00200000 -0.00600000 0.03800000
v 0.00200000 -0.00600000 0.03800000
v -0.00200000 -0.00600000 0.04200000
v 0.00200000 -0.00600000 0.04200000
v -0.00200000 -0.00600000 0.04600000
v 0.00200000 -0.00600000 0.04600000
v -0.00200000 -0.00600000 0.05000000
v 0.00200000 -0.00600000 0.05000000
v -0.00200000 -0.00600000 0.05400000
v 0.00200000 -0.00600000 0.05400000
v -0.00200000 -0.01000000 0.05800000
v -0.00200000 -0.00600000 0.05800000
v 0.00200000 -0.01000000 0.05800000
v 0.00200000 -0.00600000 0.05800000
v -0.00200000 -0.01000000 0.06200000
v -0.00200000 -0.00600000 0.06200000
v 0.00200000 -0.01000000 0.06200000
v 0.00200000 -0.00600000 0.06200000
v -0.00200000 -0.01000000 0.06600000
v -0.00200000 -0.00600000 0.06600000
v 0.00200000 -0.01000000 0.06600000
v 0.00200000 -0.00600000 0.06600000
v -0.00200000 -0.01000000 0.07000000
v -0.00200000 -0.00600000 0.07000000
v 0.00200000 -0.01000000 0.07000000
v 0.00200000 -0.00600000 0.07000000
v -0.00200000 -0.01000000 0.07400000
v -0.00200000 -0.00600000 0.07400000
v 0.00200000 -0.01000000 0.07400000
v 0.00200000 -0.00600000 0.07400000
v -0.00200000 -0.01000000 0.07800000
v -0.00200000 -0.00600000 0.07800000
v 0.00200000 -0.01000000 0.07800000
v 0.00200000 -0.00600000 0.07800000
v -0.00200000 -0.01000000 0.08200000
v -0.00200000 -0.00600000 0.08200000
v 0.00200000 -0.01000000 0.08200000
v 0.00200000 -0.00600000 0.08200000
v -0.00200000 -0.00200000 -0.02200000
v -0.00200000 -0.00200000 -0.01800000
v 0.00200000 -0.00200000 -0.02200000
v 0.00200000 -0.00200000 -0.01800000
v -0.00200000 -0.00200000 -0.01400000
v 0.00200000 -0.00200000 -0.01400000
v -0.00200000 -0.00200000 -0.01000000
v 0.00200000 -0.00200000 -0.01000000
v -0.00200000 -0.00200000 -0.00600000
v 0.00200000 -0.00200000 -0.00600000
v -0.00200000 -0.00200000 -0.00200000
v 0.00200000 -0.00200000 -0.00200000
v -0.00200000 -0.00200000 0.00200000
v 0.00200000 -0.00200000 0.00200000
v -0.00200000 -0.00200000 0.00600000
v 0.00200000 -0.00200000 0.00600000
v -0.00200000 -0.00200000 0.01000000
v 0.00200000 -0.00200000 0.01000000
v -0.00200000 -0.00200000 0.01400000
v 0.00200000 -0.00200000 0.01400000
v -0.00200000 -0.00200000 0.01800000
v 0.00200000 -0.00200000 0.01800000
v -0.00200000 -0.00200000 0.02200000
v 0.00200000 -0.00200000 0.02200000
v -0.00200000 -0.00200000 0.02600000
v 0.00200000 -0.00200000 0.02600000
v -0.00200000 -0.00200000 0.03000000
v 0.00200000 -0.00200000 0.03000000
v -0.00200000 -0.00200000 0.03400000
v 0.00200000 -0.00200000 0.03400000
v -0.00200000 -0.00200000 0.03800000
v 0.00200000 -0.00200000 0.03800000
v -0.00200000 -0.00200000 0.04200000
v 0.00200000 -0.00200000 0.04200000
v -0.00200000 -0.00200000 0.04600000
v 0.00200000 -0.00200000 0.04600000
v -0.00200000 -0.00200000 0.05000000
v 0.00200000 -0.00200000 0.05000000
v -0.00200000 -0.00200000 0.05400000
v 0.00200000 -0.00200000 0.05400000
v -0.00200000 -0.00200000 0.05800000
v 0.00200000 -0.00200000 0.05800000
v -0.00200000 -0.00200000 0.06200000
v 0.00200000 -0.00200000 0.06200000
v -0.00200000 -0.00200000 0.06600000
v 0.00200000 -0.00200000 0.06600000
v -0.00200000 -0.00200000 0.07000000
v 0.00200000 -0.00200000 0.07000000
v -0.00200000 -0.00200000 0.07400000
v 0.00200000 -0.00200000 0.07400000
v -0.00200000 -0.00200000 0.07800000
v 0.00200000 -0.00200000 0.07800000
v -0.00200000 -0.00200000 0.08200000
v 0.00200000 -0.00200000 0.08200000
v -0.00200000 -0.00600000 0.08600000
v -0.00200000 -0.00200000 0.08600000
v 0.00200000 -0.00600000 0.08600000
v 0.00200000 -0.00200000 0.08600000
v -0.00200000 -0.00600000 0.09000000
v -0.00200000 -0.00200000 0.09000000
v 0.00200000 -0.00600000 0.09000000
v 0.00200000 -0.00200000 0.09000000
v -0.00200000 -0.00600000 0.09400000
v -0.00200000 -0.00200000 0.09400000
v 0.00200000 -0.00600000 0.09400000
v 0.00200000 -0.00200000 0.09400000
v -0.00200000 -0.00600000 0.09800000
v -0.00200000 -0.00200000 0.09800000
v 0.00200000 -0.00600000 0.09800000
v 0.00200000 -0.00200000 0.09800000
v -0.00200000 -0.00600000 0.10200000
v -0.00200000 -0.00200000 0.10200000
v 0.00200000 -0.00600000 0.10200000
v 0.00200000 -0.00200000 0.10200000
v -0.00200000 -0.00600000 0.10600000
v -0.00200000 -0.00200000 0.10600000
v 0.00200000 -0.00600000 0.10600000
v 0.00200000 -0.00200000 0.10600000
v -0.00200000 -0.00600000 0.11000000
v -0.00200000 -0.00200000 0.11000000
v 0.00200000 -0.00600000 0.11000000
v 0.00200000 -0.00200000 0.11000000
v -0.00200000 0.00200000 -0.02200000
v -0.00200000 0.00200000 -0.01800000
v 0.00200000 0.00200000 -0.02200000
v 0.00200000 0.00200000 -0.01800000
v -0.00200000 0.00200000 -0.01400000
v 0.00200000 0.00200000 -0.01400000
v -0.00200000 0.00200000 -0.01000000
v 0.00200000 0.00200000 -0.01000000
v -0.00200000 0.00200000 -0.00600000
v 0.00200000 0.00200000 -0.00600000
v -0.00200000 0.00200000 -0.00200000
v 0.00200000 0.00200000 -0.00200000
v -0.00200000 0.00200000 0.00200000
v 0.00200000 0.00200000 0.00200000
v -0.00200000 0.00200000 0.00600000
v 0.00200000 0.00200000 0.00600000
v -0.00200000 0.00200000 0.01000000
v 0.00200000 0.00200000 0.01000000
v -0.00200000 0.00200000 0.01400000
v 0.00200000 0.00200000 0.01400000
v -0.00200000 0.00200000 0.01800000
v 0.00200000 0.00200000 0.01800000
v -0.00200000 0.00200000 0.02200000
v 0.00200000 0.00200000 0.02200000
v -0.00200000 0.00200000 0.02600000
v 0.00200000 0.00200000 0.02600000
v -0.00200000 0.00200000 0.03000000
v 0.00200000 0.00200000 0.03000000
v -0.00200000 0.00200000 0.03400000
v 0.00200000 0.00200000 0.03400000
v -0.00200000 0.00200000 0.03800000
v 0.00200000 0.00200000 0.03800000
v -0.00200000 0.00200000 0.04200000
v 0.00200000 0.00200000 0.04200000
v -0.00200000 0.00200000 0.04600000
v 0.00200000 0.00200000 0.04600000
v -0.00200000 0.00200000 0.05000000
v 0.00200000 0.00200000 0.05000000
v -0.00200000 0.00200000 0.05400000
v 0.00200000 0.00200000 0.05400000
v -0.00200000 0.00200000 0.05800000
v 0.00200000 0.00200000 0.05800000
v -0.00200000 0.00200000 0.06200000
v 0.00200000 0.00200000 0.06200000
v -0.00200000 0.00200000 0.06600000
v 0.00200000 0.00200000 0.06600000
v -0.00200000 0.00200000 0.07000000
v 0.00200000 0.00200000 0.07000000
v -0.00200000 0.00200000 0.07400000
v 0.00200000 0.00200000 0.07400000
v -0.00200000 0.00200000 0.07800000
v 0.00200000 0.00200000 0.07800000
v -0.00200000 0.00200000 0.08200000
v 0.00200000 0.00200000 0.08200000
v -0.00200000 0.00200000 0.08600000
v 0.00200000 0.00200000 0.08600000
v -0.00200000 0.00200000 0.09000000
v 0.00200000 0.00200000 0.09000000
v -0.00200000 0.00200000 0.09400000
v 0.00200000 0.00200000 0.09400000
v -0.00200000 0.00200000 0.09800000
v 0.00200000 0.00200000 0.09800000
v -0.00200000 0.00200000 0.10200000
v 0.00200000 0.00200000 0.10200000
v -0.00200000 0.00200000 0.10600000
v 0.00200000 0.00200000 0.10600000
v -0.00200000 0.00200000 0.11000000
v 0.00200000 0.00200000 0.11000000
v -0.00200000 -0.00200000 0.11400000
v -0.00200000 0.00200000 0.11400000
v 0.00200000 -0.00200000 0.11400000
v 0.00200000 0.00200000 0.11400000
v -0.00200000 -0.00200000 0.11800000
v -0.00200000 0.00200000 0.11800000
v 0.00200000 -0.00200000 0.11800000
v 0.00200000 0.00200000 0.11800000
v -0.00200000 -0.00200000 0.12200000
v -0.00200000 0.00200000 0.12200000
v 0.00200000 -0.00200000 0.12200000
v 0.00200000 0.00200000 0.12200000
v -0.00200000 -0.00200000 0.12600000
v -0.00200000 0.00200000 0.12600000
v 0.00200000 -0.00200000 0.12600000
v 0.00200000 0.00200000 0.12600000
v -0.00200000 -0.00200000 0.13000000
v -0.00200000 -0.00200000 0.13400000
v -0.00200000 0.00200000 0.13000000
v -0.00200000 0.00200000 0.13400000
v 0.00200000 -0.00200000 0.13000000
v 0.00200000 -0.00200000 0.13400000
v 0.00200000 0.00200000 0.13000000
v 0.00200000 0.00200000 0.13400000
v -0.00200000 0.00200000 -0.02600000
v -0.00200000 0.00600000 -0.02600000
v -0.00200000 0.00600000 -0.02200000
v 0.00200000 0.00200000 -0.02600000
v 0.00200000 0.00600000 -0.02600000
v 0.00200000 0.00600000 -0.02200000
v -0.00200000 0.00600000 -0.01800000
v 0.00200000 0.00600000 -0.01800000
v -0.00200000 0.00600000 -0.01400000
v 0.00200000 0.00600000 -0.01400000
v -0.00200000 0.00600000 -0.01000000
v 0.00200000 0.00600000 -0.01000000
v -0.00200000 0.00600000 -0.00600000
v 0.00200000 0.00600000 -0.00600000
v -0.00200000 0.00600000 -0.00200000
v 0.00200000 0.00600000 -0.00200000
v -0.00200000 0.00600000 0.00200000
v 0.00200000 0.00600000 0.00200000
v -0.00200000 0.00600000 0.00600000
v 0.00200000 0.00600000 0.00600000
v -0.00200000 0.00600000 0.01000000
v 0.00200000 0.00600000 0.01000000
v -0.00200000 0.00600000 0.01400000
v 0.00200000 0.00600000 0.01400000
v -0.00200000 0.00600000 0.01800000
v 0.00200000 0.00600000 0.01800000
v -0.00200000 0.00600000 0.02200000
v 0.00200000 0.00600000 0.02200000
v -0.00200000 0.00600000 0.02600000
v 0.00200000 0.00600000 0.02600000
v -0.00200000 0.00600000 0.03000000
v 0.00200000 0.00600000 0.03000000
v -0.00200000 0.00600000 0.03400000
v 0.00200000 0.00600000 0.03400000
v -0.00200000 0.00600000 0.03800000
v 0.00200000 0.00600000 0.03800000
v -0.00200000 0.00600000 0.04200000
v 0.00200000 0.00600000 0.04200000
v -0.00200000 0.00600000 0.04600000
v 0.00200000 0.00600000 0.04600000
v -0.00200000 0.00600000 0.05000000
v 0.00200000 0.00600000 0.05000000
v -0.00200000 0.00600000 0.05400000
v 0.00200000 0.00600000 0.05400000
v -0.00200000 0.00600000 0.05800000
v 0.00200000 0.00600000 0.05800000
v -0.00200000 0.00600000 0.06200000
v 0.00200000 0.00600000 0.06200000
v -0.00200000 0.00600000 0.06600000
v 0.00200000 0.00600000 0.06600000
v -0.00200000 0.00600000 0.07000000
v 0.00200000 0.00600000 0.07000000
v -0.00200000 0.00600000 0.07400000
v 0.00200000 0.00600000 0.07400000
v -0.00200000 0.00600000 0.07800000
v 0.00200000 0.00600000 0.07800000
v -0.00200000 0.00600000 0.08200000
v 0.00200000 0.00600000 0.08200000
v -0.00200000 0.00600000 0.08600000
v 0.00200000 0.00600000 0.08600000
v -0.00200000 0.00600000 0.09000000
v 0.00200000 0.00600000 0.09000000
v -0.00200000 0.00600000 0.09400000
v 0.00200000 0.00600000 0.09400000
v -0.00200000 0.00600000 0.09800000
v 0.00200000 0.00600000 0.09800000
v -0.00200000 0.00600000 0.10200000
v 0.00200000 0.00600000 0.10200000
v -0.00200000 0.00600000 0.10600000
v 0.00200000 0.00600000 0.10600000
v -0.00200000 0.00600000 0.11000000
v 0.00200000 0.00600000 0.11000000
v -0.00200000 0.00600000 0.11400000
v 0.00200000 0.00600000 0.11400000
v -0.00200000 0.00600000 0.11800000
v 0.00200000 0.00600000 0.11800000
v -0.00200000 0.00600000 0.12200000
v 0.00200000 0.00600000 0.12200000
v -0.00200000 0.00600000 0.12600000
v 0.00200000 0.00600000 0.12600000
v -0.00200000 0.00600000 0.13000000
v 0.00200000 0.00600000 0.13000000
v -0.00200000 0.00600000 0.13400000
v 0.00200000 0.00600000 0.13400000
v -0.00200000 0.00200000 0.13800000
v -0.00200000 0.00600000 0.13800000
v 0.00200000 0.00200000 0.13800000
v 0.00200000 0.00600000 0.13800000
v -0.00200000 0.00200000 0.14200000
v -0.00200000 0.00600000 0.14200000
v 0.00200000 0.00200000 0.14200000
v 0.00200000 0.00600000 0.14200000
v -0.00200000 0.00200000 0.14600000
v -0.00200000 0.00600000 0.14600000
v 0.00200000 0.00200000 0.14600000
v 0.00200000 0.00600000 0.14600000
v -0.00200000 0.00200000 0.15000000
v -0.00200000 0.00600000 0.15000000
v 0.00200000 0.00200000 0.15000000
v 0.00200000 0.00600000 0.15000000
v -0.00200000 0.01000000 -0.02600000
v -0.00200000 0.01000000 -0.02200000
v 0.00200000 0.01000000 -0.02600000
v 0.00200000 0.01000000 -0.02200000
v -0.00200000 0.01000000 -0.01800000
v 0.00200000 0.01000000 -0.01800000
v -0.00200000 0.01000000 -0.01400000
v 0.00200000 0.01000000 -0.01400000
v -0.00200000 0.01000000 -0.01000000
v 0.00200000 0.01000000 -0.01000000
v -0.00200000 0.01000000 -0.00600000
v 0.00200000 0.01000000 -0.00600000
v -0.00200000 0.01000000 -0.00200000
v 0.00200000 0.01000000 -0.00200000
v -0.00200000 0.01000000 0.00200000
v 0.00200000 0.01000000 0.00200000
v -0.00200000 0.01000000 0.00600000
v 0.00200000 0.01000000 0.00600000
v -0.00200000 0.01000000 0.01000000
v 0.00200000 0.01000000 0.01000000
v -0.00200000 0.01000000 0.01400000
v 0.00200000 0.01000000 0.01400000
v -0.00200000 0.01000000 0.01800000
v 0.00200000 0.01000000 0.01800000
v -0.00200000 0.01000000 0.02200000
v 0.00200000 0.01000000 0.02200000
v -0.00200000 0.01000000 0.02600000
v 0.00200000 0.01000000 0.02600000
v -0.00200000 0.01000000 0.03000000
v 0.00200000 0.01000000 0.03000000
v -0.00200000 0.01000000 0.03400000
v 0.00200000 0.01000000 0.03400000
v -0.00200000 0.01000000 0.03800000
v 0.00200000 0.01000000 0.03800000
v -0.00200000 0.01000000 0.04200000
v 0.00200000 0.01000000 0.04200000
v -0.00200000 0.01000000 0.04600000
v 0.00200000 0.01000000 0.04600000
v -0.00200000 0.01000000 0.05000000
v 0.00200000 0.01000000 0.05000000
v -0.00200000 0.01000000 0.05400000
v 0.00200000 0.01000000 0.05400000
v -0.00200000 0.01000000 0.05800000
v 0.00200000 0.01000000 0.05800000
v -0.00200000 0.01000000 0.06200000
v 0.00200000 0.01000000 0.06200000
v -0.00200000 0.01000000 0.06600000
v 0.00200000 0.01000000 0.06600000
v -0.00200000 0.01000000 0.07000000
v 0.00200000 0.01000000 0.07000000
v -0.00200000 0.01000000 0.07400000
v 0.00200000 0.01000000 0.07400000
v -0.00200000 0.01000000 0.07800000
v 0.00200000 0.01000000 0.07800000
v -0.00200000 0.01000000 0.08200000
v 0.00200000 0.01000000 0.08200000
v -0.00200000 0.01000000 0.08600000
v 0.00200000 0.01000000 0.08600000
v -0.00200000 0.01000000 0.09000000
v 0.00200000 0.01000000 0.09000000
v -0.00200000 0.01000000 0.09400000
v 0.00200000 0.01000000 0.09400000
v -0.00200000 0.01000000 0.09800000
v 0.00200000 0.01000000 0.09800000
v -0.00200000 0.01000000 0.10200000
v 0.00200000 0.01000000 0.10200000
v -0.00200000 0.01000000 0.10600000
v 0.00200000 0.01000000 0.10600000
v -0.00200000 0.01000000 0.11000000
v 0.00200000 0.01000000 0.11000000
v -0.00200000 0.01000000 0.11400000
v 0.00200000 0.01000000 0.11400000
v -0.00200000 0.01000000 0.11800000
v 0.00200000 0.01000000 0.11800000
v -0.00200000 0.01000000 0.12200000
v 0.00200000 0.01000000 0.12200000
v -0.00200000 0.01000000 0.12600000
v 0.00200000 0.01000000 0.12600000
v -0.00200000 0.01000000 0.13000000
v 0.00200000 0.01000000 0.13000000
v -0.00200000 0.01000000 0.13400000
v 0.00200000 0.01000000 0.13400000
v -0.00200000 0.01000000 0.13800000
v 0.00200000 0.01000000 0.13800000
v -0.00200000 0.01000000 0.14200000
v 0.00200000 0.01000000 0.14200000
v -0.00200000 0.01000000 0.14600000
v 0.00200000 0.01000000 0.14600000
v -0.00200000 0.01000000 0.15000000
v 0.00200000 0.01000000 0.15000000
v -0.00200000 0.00600000 0.15400000
v -0.00200000 0.01000000 0.15400000
v 0.00200000 0.00600000 0.15400000
v 0.00200000 0.01000000 0.15400000
v -0.00200000 0.01400000 0.00200000
v -0.00200000 0.01400000 0.00600000
v 0.00200000 0.01400000 0.00200000
v 0.00200000 0.01400000 0.00600000
v -0.00200000 0.01400000 0.01000000
v 0.00200000 0.01400000 0.01000000
v -0.00200000 0.01400000 0.01400000
v 0.00200000 0.01400000 0.01400000
v -0.00200000 0.01400000 0.01800000
v 0.00200000 0.01400000 0.01800000
v -0.00200000 0.01400000 0.02200000
v 0.00200000 0.01400000 0.02200000
v -0.00200000 0.01400000 0.02600000
v 0.00200000 0.01400000 0.02600000
v -0.00200000 0.01400000 0.03000000
v 0.00200000 0.01400000 0.03000000
v -0.00200000 0.01400000 0.03400000
v 0.00200000 0.01400000 0.03400000
v -0.00200000 0.01400000 0.03800000
v 0.00200000 0.01400000 0.03800000
v -0.00200000 0.01400000 0.04200000
v 0.00200000 0.01400000 0.04200000
v -0.00200000 0.01400000 0.04600000
v 0.00200000 0.01400000 0.04600000
v -0.00200000 0.01400000 0.05000000
v 0.00200000 0.01400000 0.05000000
v -0.00200000 0.01400000 0.05400000
v 0.00200000 0.01400000 0.05400000
v -0.00200000 0.01400000 0.05800000
v 0.00200000 0.01400000 0.05800000
v -0.00200000 0.01400000 0.06200000
v 0.00200000 0.01400000 0.06200000
v -0.00200000 0.01400000 0.06600000
v 0.00200000 0.01400000 0.06600000
v -0.00200000 0.01400000 0.07000000
v 0.00200000 0.01400000 0.07000000
v -0.00200000 0.01400000 0.07400000
v 0.00200000 0.01400000 0.07400000
v -0.00200000 0.01400000 0.07800000
v 0.00200000 0.01400000 0.07800000
v -0.00200000 0.01400000 0.08200000
v 0.00200000 0.01400000 0.08200000
v -0.00200000 0.01400000 0.08600000
v 0.00200000 0.01400000 0.08600000
v -0.00200000 0.01400000 0.09000000
v 0.00200000 0.01400000 0.09000000
v -0.00200000 0.01400000 0.09400000
v 0.00200000 0.01400000 0.09400000
v -0.00200000 0.01400000 0.09800000
v 0.00200000 0.01400000 0.09800000
v -0.00200000 0.01400000 0.10200000
v 0.00200000 0.01400000 0.10200000
v -0.00200000 0.01400000 0.10600000
v 0.00200000 0.01400000 0.10600000
v -0.00200000 0.01400000 0.11000000
v 0.00200000 0.01400000 0.11000000
v -0.00200000 0.01400000 0.11400000
v 0.00200000 0.01400000 0.11400000
v -0.00200000 0.01400000 0.11800000
v 0.00200000 0.01400000 0.11800000
v -0.00200000 0.01400000 0.12200000
v 0.00200000 0.01400000 0.12200000
v -0.00200000 0.01400000 0.12600000
v 0.00200000 0.01400000 0.12600000
v -0.00200000 0.01400000 0.13000000
v 0.00200000 0.01400000 0.13000000
v -0.00200000 0.01400000 0.13400000
v 0.00200000 0.01400000 0.13400000
v -0.00200000 0.01400000 0.13800000
v 0.00200000 0.01400000 0.13800000
v -0.00200000 0.01400000 0.14200000
v 0.00200000 0.01400000 0.14200000
v -0.00200000 0.01400000 0.14600000
v 0.00200000 0.01400000 0.14600000
v -0.00200000 0.01400000 0.15000000
v 0.00200000 0.01400000 0.15000000
v -0.00200000 0.01800000 0.04600000
v -0.00200000 0.01800000 0.05000000
v 0.00200000 0.01800000 0.04600000
v 0.00200000 0.01800000 0.05000000
v -0.00200000 0.01800000 0.05400000
v 0.00200000 0.01800000 0.05400000
v -0.00200000 0.01800000 0.05800000
v 0.00200000 0.01800000 0.05800000
v -0.00200000 0.01800000 0.06200000
v 0.00200000 0.01800000 0.06200000
v -0.00200000 0.01800000 0.06600000
v 0.00200000 0.01800000 0.06600000
v -0.00200000 0.01800000 0.07000000
v 0.00200000 0.01800000 0.07000000
v -0.00200000 0.01800000 0.07400000
v 0.00200000 0.01800000 0.07400000
v -0.00200000 0.01800000 0.07800000
v 0.00200000 0.01800000 0.07800000
v -0.00200000 0.01800000 0.08200000
v 0.00200000 0.01800000 0.08200000
v -0.00200000 0.01800000 0.08600000
v 0.00200000 0.01800000 0.08600000
v -0.00200000 0.01800000 0.09000000
v 0.00200000 0.01800000 0.09000000
v -0.00200000 0.01800000 0.09400000
v 0.00200000 0.01800000 0.09400000
v -0.00200000 0.01800000 0.09800000
v 0.00200000 0.01800000 0.09800000
v -0.00200000 0.01800000 0.10200000
v 0.00200000 0.01800000 0.10200000
v -0.00200000 0.01800000 0.10600000
v 0.00200000 0.01800000 0.10600000
v -0.00200000 0.01800000 0.11000000
v 0.00200000 0.01800000 0.11000000
v -0.00200000 0.01800000 0.11400000
v 0.00200000 0.01800000 0.11400000
v -0.00200000 0.01800000 0.11800000
v 0.00200000 0.01800000 0.11800000
v -0.00200000 0.01800000 0.12200000
v 0.00200000 0.01800000 0.12200000
v -0.00200000 0.01800000 0.12600000
v 0.00200000 0.01800000 0.12600000
v -0.00200000 0.01800000 0.13000000
v 0.00200000 0.01800000 0.13000000
v -0.00200000 0.01800000 0.13400000
v 0.00200000 0.01800000 0.13400000
v -0.00200000 0.01800000 0.13800000
v 0.00200000 0.01800000 0.13800000
v -0.00200000 0.01800000 0.14200000
v 0.00200000 0.01800000 0.14200000
v -0.00200000 0.01800000 0.14600000
v 0.00200000 0.01800000 0.14600000
v -0.00200000 0.02200000 0.09000000
v -0.00200000 0.02200000 0.09400000
v 0.00200000 0.02200000 0.09000000
v 0.00200000 0.02200000 0.09400000
v -0.00200000 0.02200000 0.09800000
v 0.00200000 0.02200000 0.09800000
v -0.00200000 0.02200000 0.10200000
v 0.00200000 0.02200000 0.10200000
v -0.00200000 0.02200000 0.10600000
v 0.00200000 0.02200000 0.10600000
v -0.00200000 0.02200000 0.11000000
v 0.00200000 0.02200000 0.11000000
v -0.00200000 0.02200000 0.11400000
v 0.00200000 0.02200000 0.11400000
v -0.00200000 0.02200000 0.11800000
v 0.00200000 0.02200000 0.11800000
v -0.00200000 0.02200000 0.12200000
v 0.00200000 0.02200000 0.12200000
v -0.00200000 0.02200000 0.12600000
v 0.00200000 0.02200000 0.12600000
v -0.00200000 0.02200000 0.13000000
v 0.00200000 0.02200000 0.13000000
v -0.00200000 0.02200000 0.13400000
v 0.00200000 0.02200000 0.13400000
v -0.00200000 0.02200000 0.13800000
v 0.00200000 0.02200000 0.13800000
v -0.00200000 0.02200000 0.14200000
v 0.00200000 0.02200000 0.14200000
v -0.00200000 0.02200000 0.14600000
v 0.00200000 0.02200000 0.14600000
v -0.00200000 0.02600000 0.13000000
v -0.00200000 0.02600000 0.13400000
v 0.00200000 0.02600000 0.13000000
v 0.00200000 0.02600000 0.13400000
f 2 4 1
f 5 2 1
f 1 4 3
f 3 5 1
f 6 2 5
f 7 5 3
f 7 6 5
f 8 6 7
f 9 10 2
f 6 9 2
f 2 10 4
f 11 9 6
f 8 11 6
f 12 11 8
f 13 14 9
f 11 13 9
f 9 14 10
f 13 16 14
f 15 13 11
f 15 16 13
f 12 15 11
f 16 15 12
f 18 20 17
f 21 18 17
f 17 20 19
f 19 21 17
f 18 24 20
f 22 18 21
f 22 24 18
f 23 21 19
f 23 22 21
f 24 22 23
f 4 26 3
f 3 26 25
f 25 7 3
f 27 7 25
f 27 8 7
f 28 8 27
f 10 29 4
f 4 29 26
f 28 12 8
f 30 12 28
f 14 31 10
f 10 31 29
f 30 16 12
f 32 16 30
f 19 33 14
f 16 19 14
f 14 33 31
f 23 19 16
f 32 23 16
f 34 23 32
f 20 35 19
f 19 35 33
f 34 24 23
f 36 24 34
f 37 38 20
f 24 37 20
f 20 38 35
f 39 37 24
f 36 39 24
f 40 39 36
f 41 42 37
f 39 41 37
f 37 42 38
f 43 41 39
f 40 43 39
f 44 43 40
f 45 46 41
f 43 45 41
f 41 46 42
f 47 45 43
f 44 47 43
f 48 47 44
f 49 50 45
f 47 49 45
f 45 50 46
f 51 49 47
f 48 51 47
f 52 51 48
f 53 54 49
f 51 53 49
f 49 54 50
f 55 53 51
f 52 55 51
f 56 55 52
f 57 58 53
f 55 57 53
f 53 58 54
f 57 60 58
f 59 57 55
f 59 60 57
f 56 59 55
f 60 59 56
f 62 64 61
f 65 62 61
f 61 64 63
f 63 65 61
f 62 68 64
f 66 62 65
f 66 68 62
f 67 65 63
f 67 66 65
f 68 66 67
f 26 70 25
f 25 70 69
f 69 27 25
f 71 27 69
f 71 28 27
f 72 28 71
f 29 73 26
f 26 73 70
f 72 30 28
f 74 30 72
f 31 75 29
f 29 75 73
f 74 32 30
f 76 32 74
f 33 77 31
f 31 77 75
f 76 34 32
f 78 34 76
f 35 79 33
f 33 79 77
f 78 36 34
f 80 36 78
f 38 81 35
f 35 81 79
f 80 40 36
f 82 40 80
f 42 83 38
f 38 83 81
f 82 44 40
f 84 44 82
f 46 85 42
f 42 85 83
f 84 48 44
f 86 48 84
f 50 87 46
f 46 87 85
f 86 52 48
f 88 52 86
f 54 89 50
f 50 89 87
f 88 56 52
f 90 56 88
f 58 91 54
f 54 91 89
f 90 60 56
f 92 60 90
f 63 93 58
f 60 63 58
f 58 93 91
f 67 63 60
f 92 67 60
f 94 67 92
f 64 95 63
f 63 95 93
f 94 68 67
f 96 68 94
f 97 98 64
f 68 97 64
f 64 98 95
f 99 97 68
f 96 99 68
f 100 99 96
f 101 102 97
f 99 101 97
f 97 102 98
f 103 101 99
f 100 103 99
f 104 103 100
f 105 106 101
f 103 105 101
f 101 106 102
f 107 105 103
f 104 107 103
f 108 107 104
f 109 110 105
f 107 109 105
f 105 110 106
f 111 109 107
f 108 111 107
f 112 111 108
f 113 114 109
f 111 113 109
f 109 114 110
f 115 113 111
f 112 115 111
f 116 115 112
f 117 118 113
f 115 117 113
f 113 118 114
f 117 120 118
f 119 117 115
f 119 120 117
f 116 119 115
f 120 119 116
f 70 122 69
f 69 122 121
f 121 71 69
f 123 71 121
f 123 72 71
f 124 72 123
f 73 125 70
f 70 125 122
f 124 74 72
f 126 74 124
f 75 127 73
f 73 127 125
f 126 76 74
f 128 76 126
f 77 129 75
f 75 129 127
f 128 78 76
f 130 78 128
f 79 131 77
f 77 131 129
f 130 80 78
f 132 80 130
f 81 133 79
f 79 133 131
f 132 82 80
f 134 82 132
f 83 135 81
f 81 135 133
f 134 84 82
f 136 84 134
f 85 137 83
f 83 137 135
f 136 86 84
f 138 86 136
f 87 139 85
f 85 139 137
f 138 88 86
f 140 88 138
f 89 141 87
f 87 141 139
f 140 90 88
f 142 90 140
f 91 143 89
f 89 143 141
f 142 92 90
f 144 92 142
f 93 145 91
f 91 145 143
f 144 94 92
f 146 94 144
f 95 147 93
f 93 147 145
f 146 96 94
f 148 96 146
f 98 149 95
f 95 149 147
f 148 100 96
f 150 100 148
f 102 151 98
f 98 151 149
f 150 104 100
f 152 104 150
f 106 153 102
f 102 153 151
f 152 108 104
f 154 108 152
f 110 155 106
f 106 155 153
f 154 112 108
f 156 112 154
f 114 157 110
f 110 157 155
f 156 116 112
f 158 116 156
f 118 159 114
f 114 159 157
f 158 120 116
f 160 120 158
f 161 162 118
f 120 161 118
f 118 162 159
f 163 161 120
f 160 163 120
f 164 163 160
f 165 166 161
f 163 165 161
f 161 166 162
f 167 165 163
f 164 167 163
f 168 167 164
f 169 170 165
f 167 169 165
f 165 170 166
f 171 169 167
f 168 171 167
f 172 171 168
f 173 174 169
f 171 173 169
f 169 174 170
f 175 173 171
f 172 175 171
f 176 175 172
f 177 178 173
f 175 177 173
f 173 178 174
f 179 177 175
f 176 179 175
f 180 179 176
f 181 182 177
f 179 181 177
f 177 182 178
f 183 181 179
f 180 183 179
f 184 183 180
f 185 186 181
f 183 185 181
f 181 186 182
f 185 188 186
f 187 185 183
f 187 188 185
f 184 187 183
f 188 187 184
f 122 190 121
f 121 190 189
f 189 123 121
f 191 123 189
f 191 124 123
f 192 124 191
f 125 193 122
f 122 193 190
f 192 126 124
f 194 126 192
f 127 195 125
f 125 195 193
f 194 128 126
f 196 128 194
f 129 197 127
f 127 197 195
f 196 130 128
f 198 130 196
f 131 199 129
f 129 199 197
f 198 132 130
f 200 132 198
f 133 201 131
f 131 201 199
f 200 134 132
f 202 134 200
f 135 203 133
f 133 203 201
f 202 136 134
f 204 136 202
f 137 205 135
f 135 205 203
f 204 138 136
f 206 138 204
f 139 207 137
f 137 207 205
f 206 140 138
f 208 140 206
f 141 209 139
f 139 209 207
f 208 142 140
f 210 142 208
f 143 211 141
f 141 211 209
f 210 144 142
f 212 144 210
f 145 213 143
f 143 213 211
f 212 146 144
f 214 146 212
f 147 215 145
f 145 215 213
f 214 148 146
f 216 148 214
f 149 217 147
f 147 217 215
f 216 150 148
f 218 150 216
f 151 219 149
f 149 219 217
f 218 152 150
f 220 152 218
f 153 221 151
f 151 221 219
f 220 154 152
f 222 154 220
f 155 223 153
f 153 223 221
f 222 156 154
f 224 156 222
f 157 225 155
f 155 225 223
f 224 158 156
f 226 158 224
f 159 227 157
f 157 227 225
f 226 160 158
f 228 160 226
f 162 229 159
f 159 229 227
f 228 164 160
f 230 164 228
f 166 231 162
f 162 231 229
f 230 168 164
f 232 168 230
f 170 233 166
f 166 233 231
f 232 172 168
f 234 172 232
f 174 235 170
f 170 235 233
f 234 176 172
f 236 176 234
f 178 237 174
f 174 237 235
f 236 180 176
f 238 180 236
f 182 239 178
f 178 239 237
f 238 184 180
f 240 184 238
f 186 241 182
f 182 241 239
f 240 188 184
f 242 188 240
f 243 244 186
f 188 243 186
f 186 244 241
f 245 243 188
f 242 245 188
f 246 245 242
f 247 248 243
f 245 247 243
f 243 248 244
f 249 247 245
f 246 249 245
f 250 249 246
f 251 252 247
f 249 251 247
f 247 252 248
f 253 251 249
f 250 253 249
f 254 253 250
f 255 256 251
f 253 255 251
f 251 256 252
f 257 255 253
f 254 257 253
f 258 257 254
f 259 260 255
f 257 259 255
f 255 260 256
f 261 259 257
f 258 261 257
f 262 261 258
f 263 264 259
f 261 263 259
f 259 264 260
f 265 263 261
f 262 265 261
f 266 265 262
f 267 268 263
f 265 267 263
f 263 268 264
f 267 270 268
f 269 267 265
f 269 270 267
f 266 269 265
f 270 269 266
f 190 272 189
f 189 272 271
f 271 191 189
f 273 191 271
f 273 192 191
f 274 192 273
f 193 275 190
f 190 275 272
f 274 194 192
f 276 194 274
f 195 277 193
f 193 277 275
f 276 196 194
f 278 196 276
f 197 279 195
f 195 279 277
f 278 198 196
f 280 198 278
f 199 281 197
f 197 281 279
f 280 200 198
f 282 200 280
f 201 283 199
f 199 283 281
f 282 202 200
f 284 202 282
f 203 285 201
f 201 285 283
f 284 204 202
f 286 204 284
f 205 287 203
f 203 287 285
f 286 206 204
f 288 206 286
f 207 289 205
f 205 289 287
f 288 208 206
f 290 208 288
f 209 291 207
f 207 291 289
f 290 210 208
f 292 210 290
f 211 293 209
f 209 293 291
f 292 212 210
f 294 212 292
f 213 295 211
f 211 295 293
f 294 214 212
f 296 214 294
f 215 297 213
f 213 297 295
f 296 216 214
f 298 216 296
f 217 299 215
f 215 299 297
f 298 218 216
f 300 218 298
f 219 301 217
f 217 301 299
f 300 220 218
f 302 220 300
f 221 303 219
f 219 303 301
f 302 222 220
f 304 222 302
f 223 305 221
f 221 305 303
f 304 224 222
f 306 224 304
f 225 307 223
f 223 307 305
f 306 226 224
f 308 226 306
f 227 309 225
f 225 309 307
f 308 228 226
f 310 228 308
f 229 311 227
f 227 311 309
f 310 230 228
f 312 230 310
f 231 313 229
f 229 313 311
f 312 232 230
f 314 232 312
f 233 315 231
f 231 315 313
f 314 234 232
f 316 234 314
f 235 317 233
f 233 317 315
f 316 236 234
f 318 236 316
f 237 319 235
f 235 319 317
f 318 238 236
f 320 238 318
f 239 321 237
f 237 321 319
f 320 240 238
f 322 240 320
f 241 323 239
f 239 323 321
f 322 242 240
f 324 242 322
f 244 325 241
f 241 325 323
f 324 246 242
f 326 246 324
f 248 327 244
f 244 327 325
f 326 250 246
f 328 250 326
f 252 329 248
f 248 329 327
f 328 254 250
f 330 254 328
f 256 331 252
f 252 331 329
f 330 258 254
f 332 258 330
f 260 333 256
f 256 333 331
f 332 262 258
f 334 262 332
f 264 335 260
f 260 335 333
f 334 266 262
f 336 266 334
f 268 337 264
f 264 337 335
f 336 270 266
f 338 270 336
f 339 340 268
f 270 339 268
f 268 340 337
f 341 339 270
f 338 341 270
f 342 341 338
f 343 344 339
f 341 343 339
f 339 344 340
f 345 343 341
f 342 345 341
f 346 345 342
f 347 348 343
f 345 347 343
f 343 348 344
f 349 347 345
f 346 349 345
f 350 349 346
f 351 352 347
f 349 351 347
f 347 352 348
f 351 354 352
f 353 351 349
f 353 354 351
f 350 353 349
f 354 353 350
f 356 358 355
f 359 356 355
f 355 358 357
f 357 359 355
f 356 362 358
f 360 356 359
f 360 362 356
f 361 359 357
f 361 360 359
f 362 360 361
f 271 365 363
f 366 271 363
f 363 365 364
f 364 366 363
f 273 271 366
f 367 366 364
f 367 273 366
f 368 273 367
f 272 369 271
f 271 369 365
f 368 274 273
f 370 274 368
f 275 371 272
f 272 371 369
f 370 276 274
f 372 276 370
f 277 373 275
f 275 373 371
f 372 278 276
f 374 278 372
f 279 375 277
f 277 375 373
f 374 280 278
f 376 280 374
f 281 377 279
f 279 377 375
f 376 282 280
f 378 282 376
f 283 379 281
f 281 379 377
f 378 284 282
f 380 284 378
f 285 381 283
f 283 381 379
f 380 286 284
f 382 286 380
f 287 383 285
f 285 383 381
f 382 288 286
f 384 288 382
f 289 385 287
f 287 385 383
f 384 290 288
f 386 290 384
f 291 387 289
f 289 387 385
f 386 292 290
f 388 292 386
f 293 389 291
f 291 389 387
f 388 294 292
f 390 294 388
f 295 391 293
f 293 391 389
f 390 296 294
f 392 296 390
f 297 393 295
f 295 393 391
f 392 298 296
f 394 298 392
f 299 395 297
f 297 395 393
f 394 300 298
f 396 300 394
f 301 397 299
f 299 397 395
f 396 302 300
f 398 302 396
f 303 399 301
f 301 399 397
f 398 304 302
f 400 304 398
f 305 401 303
f 303 401 399
f 400 306 304
f 402 306 400
f 307 403 305
f 305 403 401
f 402 308 306
f 404 308 402
f 309 405 307
f 307 405 403
f 404 310 308
f 406 310 404
f 311 407 309
f 309 407 405
f 406 312 310
f 408 312 406
f 313 409 311
f 311 409 407
f 408 314 312
f 410 314 408
f 315 411 313
f 313 411 409
f 410 316 314
f 412 316 410
f 317 413 315
f 315 413 411
f 412 318 316
f 414 318 412
f 319 415 317
f 317 415 413
f 414 320 318
f 416 320 414
f 321 417 319
f 319 417 415
f 416 322 320
f 418 322 416
f 323 419 321
f 321 419 417
f 418 324 322
f 420 324 418
f 325 421 323
f 323 421 419
f 420 326 324
f 422 326 420
f 327 423 325
f 325 423 421
f 422 328 326
f 424 328 422
f 329 425 327
f 327 425 423
f 424 330 328
f 426 330 424
f 331 427 329
f 329 427 425
f 426 332 330
f 428 332 426
f 333 429 331
f 331 429 427
f 428 334 332
f 430 334 428
f 335 431 333
f 333 431 429
f 430 336 334
f 432 336 430
f 337 433 335
f 335 433 431
f 432 338 336
f 434 338 432
f 340 435 337
f 337 435 433
f 434 342 338
f 436 342 434
f 344 437 340
f 340 437 435
f 436 346 342
f 438 346 436
f 348 439 344
f 344 439 437
f 438 350 346
f 440 350 438
f 352 441 348
f 348 441 439
f 440 354 350
f 442 354 440
f 357 443 352
f 354 357 352
f 352 443 441
f 361 357 354
f 442 361 354
f 444 361 442
f 358 445 357
f 357 445 443
f 444 362 361
f 446 362 444
f 447 448 358
f 362 447 358
f 358 448 445
f 449 447 362
f 446 449 362
f 450 449 446
f 451 452 447
f 449 451 447
f 447 452 448
f 453 451 449
f 450 453 449
f 454 453 450
f 455 456 451
f 453 455 451
f 451 456 452
f 457 455 453
f 454 457 453
f 458 457 454
f 459 460 455
f 457 459 455
f 455 460 456
f 459 462 460
f 461 459 457
f 461 462 459
f 458 461 457
f 462 461 458
f 365 464 364
f 364 464 463
f 463 367 364
f 464 466 463
f 465 367 463
f 463 466 465
f 465 368 367
f 466 368 465
f 369 467 365
f 365 467 464
f 467 468 464
f 464 468 466
f 466 370 368
f 468 370 466
f 371 469 369
f 369 469 467
f 469 470 467
f 467 470 468
f 468 372 370
f 470 372 468
f 373 471 371
f 371 471 469
f 471 472 469
f 469 472 470
f 470 374 372
f 472 374 470
f 375 473 373
f 373 473 471
f 473 474 471
f 471 474 472
f 472 376 374
f 474 376 472
f 377 475 375
f 375 475 473
f 475 476 473
f 473 476 474
f 474 378 376
f 476 378 474
f 379 477 377
f 377 477 475
f 477 478 475
f 475 478 476
f 476 380 378
f 478 380 476
f 381 479 379
f 379 479 477
f 478 382 380
f 480 382 478
f 383 481 381
f 381 481 479
f 480 384 382
f 482 384 480
f 385 483 383
f 383 483 481
f 482 386 384
f 484 386 482
f 387 485 385
f 385 485 483
f 484 388 386
f 486 388 484
f 389 487 387
f 387 487 485
f 486 390 388
f 488 390 486
f 391 489 389
f 389 489 487
f 488 392 390
f 490 392 488
f 393 491 391
f 391 491 489
f 490 394 392
f 492 394 490
f 395 493 393
f 393 493 491
f 492 396 394
f 494 396 492
f 397 495 395
f 395 495 493
f 494 398 396
f 496 398 494
f 399 497 397
f 397 497 495
f 496 400 398
f 498 400 496
f 401 499 399
f 399 499 497
f 498 402 400
f 500 402 498
f 403 501 401
f 401 501 499
f 500 404 402
f 502 404 500
f 405 503 403
f 403 503 501
f 502 406 404
f 504 406 502
f 407 505 405
f 405 505 503
f 504 408 406
f 506 408 504
f 409 507 407
f 407 507 505
f 506 410 408
f 508 410 506
f 411 509 409
f 409 509 507
f 508 412 410
f 510 412 508
f 413 511 411
f 411 511 509
f 510 414 412
f 512 414 510
f 415 513 413
f 413 513 511
f 512 416 414
f 514 416 512
f 417 515 415
f 415 515 513
f 514 418 416
f 516 418 514
f 419 517 417
f 417 517 515
f 516 420 418
f 518 420 516
f 421 519 419
f 419 519 517
f 518 422 420
f 520 422 518
f 423 521 421
f 421 521 519
f 520 424 422
f 522 424 520
f 425 523 423
f 423 523 521
f 522 426 424
f 524 426 522
f 427 525 425
f 425 525 523
f 524 428 426
f 526 428 524
f 429 527 427
f 427 527 525
f 526 430 428
f 528 430 526
f 431 529 429
f 429 529 527
f 528 432 430
f 530 432 528
f 433 531 431
f 431 531 529
f 530 434 432
f 532 434 530
f 435 533 433
f 433 533 531
f 532 436 434
f 534 436 532
f 437 535 435
f 435 535 533
f 534 438 436
f 536 438 534
f 439 537 437
f 437 537 535
f 536 440 438
f 538 440 536
f 441 539 439
f 439 539 537
f 538 442 440
f 540 442 538
f 443 541 441
f 441 541 539
f 540 444 442
f 542 444 540
f 445 543 443
f 443 543 541
f 542 446 444
f 544 446 542
f 448 545 445
f 445 545 543
f 544 450 446
f 546 450 544
f 452 547 448
f 448 547 545
f 546 454 450
f 548 454 546
f 456 549 452
f 452 549 547
f 548 458 454
f 550 458 548
f 460 551 456
f 456 551 549
f 550 462 458
f 552 462 550
f 553 554 460
f 462 553 460
f 460 554 551
f 553 556 554
f 555 553 462
f 555 556 553
f 554 556 551
f 551 556 552
f 552 555 462
f 556 555 552
f 479 558 477
f 477 558 557
f 557 478 477
f 558 560 557
f 559 478 557
f 557 560 559
f 559 480 478
f 560 480 559
f 481 561 479
f 479 561 558
f 561 562 558
f 558 562 560
f 560 482 480
f 562 482 560
f 483 563 481
f 481 563 561
f 563 564 561
f 561 564 562
f 562 484 482
f 564 484 562
f 485 565 483
f 483 565 563
f 565 566 563
f 563 566 564
f 564 486 484
f 566 486 564
f 487 567 485
f 485 567 565
f 567 568 565
f 565 568 566
f 566 488 486
f 568 488 566
f 489 569 487
f 487 569 567
f 569 570 567
f 567 570 568
f 568 490 488
f 570 490 568
f 491 571 489
f 489 571 569
f 571 572 569
f 569 572 570
f 570 492 490
f 572 492 570
f 493 573 491
f 491 573 571
f 573 574 571
f 571 574 572
f 572 494 492
f 574 494 572
f 495 575 493
f 493 575 573
f 575 576 573
f 573 576 574
f 574 496 494
f 576 496 574
f 497 577 495
f 495 577 575
f 577 578 575
f 575 578 576
f 576 498 496
f 578 498 576
f 499 579 497
f 497 579 577
f 579 580 577
f 577 580 578
f 578 500 498
f 580 500 578
f 501 581 499
f 499 581 579
f 580 502 500
f 582 502 580
f 503 583 501
f 501 583 581
f 582 504 502
f 584 504 582
f 505 585 503
f 503 585 583
f 584 506 504
f 586 506 584
f 507 587 505
f 505 587 585
f 586 508 506
f 588 508 586
f 509 589 507
f 507 589 587
f 588 510 508
f 590 510 588
f 511 591 509
f 509 591 589
f 590 512 510
f 592 512 590
f 513 593 511
f 511 593 591
f 592 514 512
f 594 514 592
f 515 595 513
f 513 595 593
f 594 516 514
f 596 516 594
f 517 597 515
f 515 597 595
f 596 518 516
f 598 518 596
f 519 599 517
f 517 599 597
f 598 520 518
f 600 520 598
f 521 601 519
f 519 601 599
f 600 522 520
f 602 522 600
f 523 603 521
f 521 603 601
f 602 524 522
f 604 524 602
f 525 605 523
f 523 605 603
f 604 526 524
f 606 526 604
f 527 607 525
f 525 607 605
f 606 528 526
f 608 528 606
f 529 609 527
f 527 609 607
f 608 530 528
f 610 530 608
f 531 611 529
f 529 611 609
f 610 532 530
f 612 532 610
f 533 613 531
f 531 613 611
f 612 534 532
f 614 534 612
f 535 615 533
f 533 615 613
f 614 536 534
f 616 536 614
f 537 617 535
f 535 617 615
f 616 538 536
f 618 538 616
f 539 619 537
f 537 619 617
f 618 540 538
f 620 540 618
f 541 621 539
f 539 621 619
f 620 542 540
f 622 542 620
f 543 623 541
f 541 623 621
f 622 544 542
f 624 544 622
f 545 625 543
f 543 625 623
f 624 546 544
f 626 546 624
f 547 627 545
f 545 627 625
f 626 548 546
f 628 548 626
f 549 629 547
f 547 629 627
f 628 550 548
f 630 550 628
f 551 631 549
f 549 631 629
f 551 632 631
f 552 632 551
f 631 632 629
f 629 632 630
f 630 552 550
f 632 552 630
f 581 634 579
f 579 634 633
f 633 580 579
f 634 636 633
f 635 580 633
f 633 636 635
f 635 582 580
f 636 582 635
f 583 637 581
f 581 637 634
f 637 638 634
f 634 638 636
f 636 584 582
f 638 584 636
f 585 639 583
f 583 639 637
f 639 640 637
f 637 640 638
f 638 586 584
f 640 586 638
f 587 641 585
f 585 641 639
f 641 642 639
f 639 642 640
f 640 588 586
f 642 588 640
f 589 643 587
f 587 643 641
f 643 644 641
f 641 644 642
f 642 590 588
f 644 590 642
f 591 645 589
f 589 645 643
f 645 646 643
f 643 646 644
f 644 592 590
f 646 592 644
f 593 647 591
f 591 647 645
f 647 648 645
f 645 648 646
f 646 594 592
f 648 594 646
f 595 649 593
f 593 649 647
f 649 650 647
f 647 650 648
f 648 596 594
f 650 596 648
f 597 651 595
f 595 651 649
f 651 652 649
f 649 652 650
f 650 598 596
f 652 598 650
f 599 653 597
f 597 653 651
f 653 654 651
f 651 654 652
f 652 600 598
f 654 600 652
f 601 655 599
f 599 655 653
f 655 656 653
f 653 656 654
f 654 602 600
f 656 602 654
f 603 657 601
f 601 657 655
f 656 604 602
f 658 604 656
f 605 659 603
f 603 659 657
f 658 606 604
f 660 606 658
f 607 661 605
f 605 661 659
f 660 608 606
f 662 608 660
f 609 663 607
f 607 663 661
f 662 610 608
f 664 610 662
f 611 665 609
f 609 665 663
f 664 612 610
f 666 612 664
f 613 667 611
f 611 667 665
f 666 614 612
f 668 614 666
f 615 669 613
f 613 669 667
f 668 616 614
f 670 616 668
f 617 671 615
f 615 671 669
f 670 618 616
f 672 618 670
f 619 673 617
f 617 673 671
f 672 620 618
f 674 620 672
f 621 675 619
f 619 675 673
f 674 622 620
f 676 622 674
f 623 677 621
f 621 677 675
f 676 624 622
f 678 624 676
f 625 679 623
f 623 679 677
f 678 626 624
f 680 626 678
f 627 681 625
f 625 681 679
f 680 628 626
f 682 628 680
f 629 683 627
f 627 683 681
f 629 684 683
f 630 684 629
f 682 630 628
f 684 630 682
f 657 686 655
f 655 686 685
f 685 656 655
f 686 688 685
f 687 656 685
f 685 688 687
f 687 658 656
f 688 658 687
f 659 689 657
f 657 689 686
f 689 690 686
f 686 690 688
f 688 660 658
f 690 660 688
f 661 691 659
f 659 691 689
f 691 692 689
f 689 692 690
f 690 662 660
f 692 662 690
f 663 693 661
f 661 693 691
f 693 694 691
f 691 694 692
f 692 664 662
f 694 664 692
f 665 695 663
f 663 695 693
f 695 696 693
f 693 696 694
f 694 666 664
f 696 666 694
f 667 697 665
f 665 697 695
f 697 698 695
f 695 698 696
f 696 668 666
f 698 668 696
f 669 699 667
f 667 699 697
f 699 700 697
f 697 700 698
f 698 670 668
f 700 670 698
f 671 701 669
f 669 701 699
f 701 702 699
f 699 702 700
f 700 672 670
f 702 672 700
f 673 703 671
f 671 703 701
f 703 704 701
f 701 704 702
f 702 674 672
f 704 674 702
f 675 705 673
f 673 705 703
f 705 706 703
f 703 706 704
f 704 676 674
f 706 676 704
f 677 707 675
f 675 707 705
f 706 678 676
f 708 678 706
f 679 709 677
f 677 709 707
f 709 710 707
f 707 710 708
f 708 680 678
f 710 680 708
f 681 711 679
f 679 711 709
f 711 712 709
f 709 712 710
f 710 682 680
f 712 682 710
f 683 713 681
f 681 713 711
f 683 714 713
f 684 714 683
f 713 714 711
f 711 714 712
f 712 684 682
f 714 684 712
f 707 716 705
f 705 716 715
f 715 706 705
f 707 718 716
f 708 718 707
f 716 718 715
f 717 706 715
f 715 718 717
f 717 708 706
f 718 708 717

