# https://github.com/mikedh/trimesh
v 0.18181821 0.19090897 0.16818193
v -0.00000027 -0.19090897 0.16818193
v 0.18181821 -0.19090897 0.16818193
v -0.00000027 0.19090897 0.16818193
v 0.18181821 -0.19090897 0.15681814
v -0.00000027 0.19090897 0.15681814
v -0.00000027 -0.19090897 0.15681814
v 0.18181821 0.19090897 0.15681814
v -0.18181821 -0.19090897 0.16818193
v -0.18181821 0.19090897 0.16818193
v -0.18181821 0.19090897 0.15681814
v -0.18181821 -0.19090897 0.15681814
v -0.50000000 0.19090897 0.15681814
v -0.50000000 -0.19090897 0.15681814
v -0.50000000 -0.19090897 0.16818193
v -0.50000000 0.19090897 0.16818193
v 0.50000000 -0.19090897 0.15681814
v 0.50000000 0.19090897 0.15681814
v 0.50000000 0.19090897 0.16818193
v 0.50000000 -0.19090897 0.16818193
v -0.28749983 0.16000021 -0.16818193
v -0.31613637 0.18863621 -0.16818193
v -0.28749983 0.18863621 -0.16818193
v -0.31613637 0.16000021 -0.16818193
v -0.28749983 0.18863621 0.15681814
v -0.31613637 0.16000021 0.15681814
v -0.31613637 0.18863621 0.15681814
v -0.28749983 0.16000021 0.15681814
v 0.28749983 0.18863621 -0.16818193
v 0.31613637 0.16000021 -0.16818193
v 0.28749983 0.16000021 -0.16818193
v 0.31613637 0.18863621 -0.16818193
v 0.28749983 0.16000021 0.15681814
v 0.31613637 0.18863621 0.15681814
v 0.31613637 0.16000021 0.15681814
v 0.28749983 0.18863621 0.15681814
v 0.28749983 -0.15999968 -0.16818193
v 0.31613637 -0.18863621 -0.16818193
v 0.28749983 -0.18863621 -0.16818193
v 0.31613637 -0.15999968 -0.16818193
v 0.28749983 -0.18863621 0.15681814
v 0.31613637 -0.15999968 0.15681814
v 0.31613637 -0.18863621 0.15681814
v 0.28749983 -0.15999968 0.15681814
v -0.28749983 -0.18863621 -0.16818193
v -0.31613637 -0.15999968 -0.16818193
v -0.28749983 -0.15999968 -0.16818193
v -0.31613637 -0.18863621 -0.16818193
v -0.28749983 -0.15999968 0.15681814
v -0.31613637 -0.18863621 0.15681814
v -0.31613637 -0.15999968 0.15681814
v -0.28749983 -0.18863621 0.15681814
v -0.24999987 -0.11069566 0.15056806
v -0.49545448 -0.11044301 0.15089746
v -0.49545448 -0.11069566 0.15056806
v -0.24999987 -0.11044301 0.15089746
v -0.49545448 -0.09612208 0.15056806
v -0.24999987 -0.11085450 0.15018429
v -0.24999987 -0.09637473 0.15089746
v -0.24999987 -0.11011361 0.15115010
v -0.49545448 -0.09596324 0.15018429
v -0.49545448 -0.09637473 0.15089746
v -0.49545448 -0.11085450 0.15018429
v -0.24999987 -0.09612208 0.15056806
v -0.24999987 -0.09670413 0.15115010
v -0.49545448 -0.11011361 0.15115010
v -0.24999987 -0.11090886 0.14977280
v -0.24999987 -0.09596324 0.15018429
v -0.49545448 -0.09670413 0.15115010
v -0.24999987 -0.10972984 0.15130947
v -0.24999987 -0.09708790 0.15130947
v -0.49545448 -0.09590888 0.14977280
v -0.49545448 -0.11090886 0.14977280
v -0.49545448 -0.09708790 0.15130947
v -0.49545448 -0.10972984 0.15130947
v -0.24999987 -0.11085450 0.14936079
v -0.24999987 -0.09590888 0.14977280
v -0.24999987 -0.10931783 0.15136331
v -0.24999987 -0.09749991 0.15136331
v -0.49545448 -0.09749991 0.15136331
v -0.49545448 -0.09596324 0.14936079
v -0.49545448 -0.11085450 0.14936079
v -0.49545448 -0.10931783 0.15136331
v -0.24999987 -0.11069566 0.14897702
v -0.24999987 -0.09596324 0.14936079
v -0.24999987 -0.10772732 0.15136331
v -0.24999987 -0.09909095 0.15136331
v -0.49545448 -0.09909095 0.15136331
v -0.49545448 -0.10772732 0.15136331
v -0.49545448 -0.09612208 0.14897702
v -0.49545448 -0.11069566 0.14897702
v -0.24999987 -0.11044301 0.14864762
v -0.24999987 -0.09612208 0.14897702
v -0.49545448 -0.10772732 0.15681814
v -0.24999987 -0.09909095 0.15681814
v -0.49545448 -0.09637473 0.14864762
v -0.49545448 -0.11044301 0.14864762
v -0.24999987 -0.10772732 0.15681814
v -0.49545448 -0.09909095 0.15681814
v -0.49545448 -0.11011361 0.14839497
v -0.24999987 -0.09637473 0.14864762
v -0.49545448 -0.09670413 0.14839497
v -0.24999987 -0.11011361 0.14839497
v -0.24999987 -0.09670413 0.14839497
v -0.49545448 -0.10972984 0.14823613
v -0.49545448 -0.09708790 0.14823613
v -0.24999987 -0.09708790 0.14823613
v -0.24999987 -0.10972984 0.14823613
v -0.49545448 -0.10931783 0.14818177
v -0.49545448 -0.09749991 0.14818177
v -0.24999987 -0.09749991 0.14818177
v -0.24999987 -0.10931783 0.14818177
v -0.31431827 -0.15999968 0.15681814
v -0.30522724 -0.10772732 0.15681814
v -0.31431827 -0.10772732 0.15681814
v -0.30522724 -0.15999968 0.15681814
v -0.30522724 -0.10772732 0.15136331
v -0.31431827 -0.10772732 0.15136331
v -0.30522724 -0.15999968 0.12045455
v -0.30522724 -0.10931783 0.15136331
v -0.31431827 -0.10931783 0.15136331
v -0.31431827 -0.15999968 0.12045455
v -0.30522724 -0.10972984 0.14823613
v -0.30522724 -0.10972984 0.15130947
v -0.31431827 -0.10972984 0.15130947
v -0.31431827 -0.10972984 0.14823613
v -0.31431827 0.16000021 0.12045455
v -0.30522724 -0.10931783 0.14818177
v -0.30522724 -0.11011361 0.14839497
v -0.30522724 -0.11011361 0.15115010
v -0.31431827 -0.11011361 0.15115010
v -0.31431827 -0.10931783 0.14818177
v -0.31431827 -0.11011361 0.14839497
v -0.30522724 0.16000021 0.12045455
v -0.30522724 -0.11044301 0.14864762
v -0.30522724 -0.11044301 0.15089746
v -0.31431827 -0.11044301 0.15089746
v -0.31431827 -0.11044301 0.14864762
v -0.30522724 0.16000021 0.15681814
v -0.31431827 0.10931836 0.14818177
v -0.30522724 -0.09749991 0.14818177
v -0.30522724 -0.11069566 0.14897702
v -0.30522724 -0.11069566 0.15056806
v -0.31431827 -0.11069566 0.15056806
v -0.31431827 -0.11069566 0.14897702
v -0.31431827 0.16000021 0.15681814
v -0.30522724 0.10972984 0.14823613
v -0.31431827 0.10972984 0.14823613
v -0.31431827 -0.09749991 0.14818177
v -0.30522724 0.10931836 0.14818177
v -0.30522724 -0.11085450 0.14936079
v -0.30522724 -0.11085450 0.15018429
v -0.31431827 -0.11085450 0.15018429
v -0.31431827 -0.11085450 0.14936079
v -0.31431827 0.10772732 0.15681814
v -0.30522724 0.11011361 0.14839497
v -0.31431827 0.09749991 0.14818177
v -0.30522724 0.09749991 0.14818177
v -0.30522724 -0.11090886 0.14977280
v -0.31431827 -0.11090886 0.14977280
v -0.30522724 -0.09708790 0.14823613
v -0.31431827 0.11011361 0.14839497
v -0.30522724 0.10772732 0.15681814
v -0.31431827 0.10931836 0.15136331
v -0.30522724 0.11044301 0.14864762
v -0.31431827 -0.09708790 0.14823613
v -0.31431827 0.11044301 0.14864762
v -0.30522724 0.10772732 0.15136331
v -0.31431827 0.10972984 0.15130947
v -0.31431827 0.10772732 0.15136331
v -0.30522724 0.11069619 0.14897702
v -0.31431827 0.09708843 0.14823613
v -0.30522724 0.09708843 0.14823613
v -0.30522724 -0.09670413 0.14839497
v -0.31431827 0.11069619 0.14897702
v -0.30522724 0.10931836 0.15136331
v -0.31431827 0.11011361 0.15115010
v -0.30522724 0.11085503 0.14936079
v -0.31431827 -0.09670413 0.14839497
v -0.31431827 0.11085503 0.14936079
v -0.30522724 0.10972984 0.15130947
v -0.31431827 0.11044301 0.15089746
v -0.30522724 0.11090940 0.14977280
v -0.31431827 0.09670466 0.14839497
v -0.30522724 0.09670466 0.14839497
v -0.30522724 -0.09637473 0.14864762
v -0.31431827 0.11090940 0.14977280
v -0.30522724 0.11011361 0.15115010
v -0.31431827 0.11069619 0.15056806
v -0.30522724 0.11085503 0.15018429
v -0.31431827 -0.09637473 0.14864762
v -0.31431827 0.11085503 0.15018429
v -0.30522724 0.11044301 0.15089746
v -0.30522724 0.11069619 0.15056806
v -0.31431827 0.09637526 0.14864762
v -0.30522724 0.09637526 0.14864762
v -0.31431827 -0.09612208 0.14897702
v -0.30522724 -0.09612208 0.14897702
v -0.31431827 0.09612261 0.14897702
v -0.30522724 0.09612261 0.14897702
v -0.31431827 -0.09596324 0.14936079
v -0.30522724 -0.09596324 0.14936079
v -0.31431827 0.09596324 0.14936079
v -0.30522724 0.09596324 0.14936079
v -0.31431827 -0.09590888 0.14977280
v -0.30522724 -0.09590888 0.14977280
v -0.31431827 0.09590941 0.14977280
v -0.30522724 0.09590941 0.14977280
v -0.31431827 -0.09596324 0.15018429
v -0.30522724 -0.09596324 0.15018429
v -0.31431827 0.09596324 0.15018429
v -0.30522724 0.09596324 0.15018429
v -0.31431827 -0.09612208 0.15056806
v -0.30522724 -0.09612208 0.15056806
v -0.31431827 0.09612261 0.15056806
v -0.30522724 0.09612261 0.15056806
v -0.31431827 -0.09637473 0.15089746
v -0.30522724 -0.09637473 0.15089746
v -0.31431827 0.09637526 0.15089746
v -0.30522724 0.09637526 0.15089746
v -0.31431827 -0.09670413 0.15115010
v -0.30522724 -0.09670413 0.15115010
v -0.31431827 0.09670466 0.15115010
v -0.30522724 0.09670466 0.15115010
v -0.31431827 -0.09708790 0.15130947
v -0.30522724 -0.09708790 0.15130947
v -0.31431827 0.09708843 0.15130947
v -0.30522724 0.09708843 0.15130947
v -0.31431827 -0.09749991 0.15136331
v -0.30522724 -0.09749991 0.15136331
v -0.31431827 0.09749991 0.15136331
v -0.30522724 0.09749991 0.15136331
v -0.31431827 -0.09909095 0.15136331
v -0.31431827 -0.09909095 0.15681814
v -0.30522724 -0.09909095 0.15136331
v -0.31431827 0.09909095 0.15136331
v -0.30522724 -0.09909095 0.15681814
v -0.31431827 0.09909095 0.15681814
v -0.30522724 0.09909095 0.15136331
v -0.30522724 0.09909095 0.15681814
v -0.24999987 0.09612261 0.15056806
v -0.49545448 0.09637526 0.15089746
v -0.49545448 0.09612261 0.15056806
v -0.24999987 0.09637526 0.15089746
v -0.49545448 0.11069619 0.15056806
v -0.24999987 0.09596324 0.15018429
v -0.24999987 0.11044301 0.15089746
v -0.24999987 0.09670466 0.15115010
v -0.49545448 0.11085503 0.15018429
v -0.49545448 0.11044301 0.15089746
v -0.49545448 0.09596324 0.15018429
v -0.24999987 0.11069619 0.15056806
v -0.24999987 0.11011361 0.15115010
v -0.49545448 0.09670466 0.15115010
v -0.24999987 0.09590941 0.14977280
v -0.24999987 0.11085503 0.15018429
v -0.49545448 0.11011361 0.15115010
v -0.24999987 0.09708843 0.15130947
v -0.24999987 0.10972984 0.15130947
v -0.49545448 0.11090940 0.14977280
v -0.49545448 0.09590941 0.14977280
v -0.49545448 0.10972984 0.15130947
v -0.49545448 0.09708843 0.15130947
v -0.24999987 0.09596324 0.14936079
v -0.24999987 0.11090940 0.14977280
v -0.24999987 0.09749991 0.15136331
v -0.24999987 0.10931836 0.15136331
v -0.49545448 0.10931836 0.15136331
v -0.49545448 0.11085503 0.14936079
v -0.49545448 0.09596324 0.14936079
v -0.49545448 0.09749991 0.15136331
v -0.24999987 0.09612261 0.14897702
v -0.24999987 0.11085503 0.14936079
v -0.24999987 0.09909095 0.15136331
v -0.24999987 0.10772732 0.15136331
v -0.49545448 0.10772732 0.15136331
v -0.49545448 0.09909095 0.15136331
v -0.49545448 0.11069619 0.14897702
v -0.49545448 0.09612261 0.14897702
v -0.24999987 0.09637526 0.14864762
v -0.24999987 0.11069619 0.14897702
v -0.49545448 0.09909095 0.15681814
v -0.24999987 0.10772732 0.15681814
v -0.49545448 0.11044301 0.14864762
v -0.49545448 0.09637526 0.14864762
v -0.24999987 0.09909095 0.15681814
v -0.49545448 0.10772732 0.15681814
v -0.49545448 0.09670466 0.14839497
v -0.24999987 0.11044301 0.14864762
v -0.49545448 0.11011361 0.14839497
v -0.24999987 0.09670466 0.14839497
v -0.24999987 0.11011361 0.14839497
v -0.49545448 0.09708843 0.14823613
v -0.49545448 0.10972984 0.14823613
v -0.24999987 0.10972984 0.14823613
v -0.24999987 0.09708843 0.14823613
v -0.49545448 0.09749991 0.14818177
v -0.49545448 0.10931836 0.14818177
v -0.24999987 0.10931836 0.14818177
v -0.24999987 0.09749991 0.14818177
v -0.28749983 0.17772762 0.15681814
v -0.28749983 0.18681811 0.12045455
v -0.28749983 0.17772762 0.12045455
v -0.28749983 0.18681811 0.15681814
v 0.28749983 0.17772762 0.12045455
v 0.28749983 0.17772762 0.15681814
v 0.28749983 0.18681811 0.15681814
v 0.28749983 0.18681811 0.12045455
v 0.24999987 0.11069619 0.15056806
v 0.49545448 0.11044301 0.15089746
v 0.49545448 0.11069619 0.15056806
v 0.24999987 0.11044301 0.15089746
v 0.49545448 0.09612261 0.15056806
v 0.24999987 0.11085503 0.15018429
v 0.24999987 0.09637526 0.15089746
v 0.24999987 0.11011361 0.15115010
v 0.49545448 0.09596324 0.15018429
v 0.49545448 0.09637526 0.15089746
v 0.49545448 0.11085503 0.15018429
v 0.24999987 0.09612261 0.15056806
v 0.24999987 0.09670466 0.15115010
v 0.49545448 0.11011361 0.15115010
v 0.24999987 0.11090940 0.14977280
v 0.24999987 0.09596324 0.15018429
v 0.49545448 0.09670466 0.15115010
v 0.24999987 0.10972984 0.15130947
v 0.24999987 0.09708843 0.15130947
v 0.49545448 0.09590941 0.14977280
v 0.49545448 0.11090940 0.14977280
v 0.49545448 0.09708843 0.15130947
v 0.49545448 0.10972984 0.15130947
v 0.24999987 0.11085503 0.14936079
v 0.24999987 0.09590941 0.14977280
v 0.24999987 0.10931836 0.15136331
v 0.24999987 0.09749991 0.15136331
v 0.49545448 0.09749991 0.15136331
v 0.49545448 0.09596324 0.14936079
v 0.49545448 0.11085503 0.14936079
v 0.49545448 0.10931836 0.15136331
v 0.24999987 0.11069619 0.14897702
v 0.24999987 0.09596324 0.14936079
v 0.24999987 0.10772732 0.15136331
v 0.24999987 0.09909095 0.15136331
v 0.49545448 0.09909095 0.15136331
v 0.49545448 0.10772732 0.15136331
v 0.49545448 0.09612261 0.14897702
v 0.49545448 0.11069619 0.14897702
v 0.24999987 0.11044301 0.14864762
v 0.24999987 0.09612261 0.14897702
v 0.49545448 0.10772732 0.15681814
v 0.24999987 0.09909095 0.15681814
v 0.49545448 0.09637526 0.14864762
v 0.49545448 0.11044301 0.14864762
v 0.24999987 0.10772732 0.15681814
v 0.49545448 0.09909095 0.15681814
v 0.49545448 0.11011361 0.14839497
v 0.24999987 0.09637526 0.14864762
v 0.49545448 0.09670466 0.14839497
v 0.24999987 0.11011361 0.14839497
v 0.24999987 0.09670466 0.14839497
v 0.49545448 0.10972984 0.14823613
v 0.49545448 0.09708843 0.14823613
v 0.24999987 0.09708843 0.14823613
v 0.24999987 0.10972984 0.14823613
v 0.49545448 0.10931836 0.14818177
v 0.49545448 0.09749991 0.14818177
v 0.24999987 0.09749991 0.14818177
v 0.24999987 0.10931836 0.14818177
v 0.31431827 0.16000021 0.15681814
v 0.30522724 0.10772732 0.15681814
v 0.31431827 0.10772732 0.15681814
v 0.30522724 0.16000021 0.15681814
v 0.30522724 0.10772732 0.15136331
v 0.31431827 0.10772732 0.15136331
v 0.30522724 0.16000021 0.12045455
v 0.30522724 0.10931836 0.15136331
v 0.31431827 0.10931836 0.15136331
v 0.31431827 0.16000021 0.12045455
v 0.30522724 0.10972984 0.14823613
v 0.30522724 0.10972984 0.15130947
v 0.31431827 0.10972984 0.15130947
v 0.31431827 0.10972984 0.14823613
v 0.31431827 -0.15999968 0.12045455
v 0.30522724 0.10931836 0.14818177
v 0.30522724 0.11011361 0.14839497
v 0.30522724 0.11011361 0.15115010
v 0.31431827 0.11011361 0.15115010
v 0.31431827 0.10931836 0.14818177
v 0.31431827 0.11011361 0.14839497
v 0.30522724 -0.15999968 0.12045455
v 0.30522724 0.11044301 0.14864762
v 0.30522724 0.11044301 0.15089746
v 0.31431827 0.11044301 0.15089746
v 0.31431827 0.11044301 0.14864762
v 0.30522724 -0.15999968 0.15681814
v 0.31431827 -0.10931783 0.14818177
v 0.30522724 0.09749991 0.14818177
v 0.30522724 0.11069619 0.14897702
v 0.30522724 0.11069619 0.15056806
v 0.31431827 0.11069619 0.15056806
v 0.31431827 0.11069619 0.14897702
v 0.31431827 -0.15999968 0.15681814
v 0.30522724 -0.10972984 0.14823613
v 0.31431827 -0.10972984 0.14823613
v 0.31431827 0.09749991 0.14818177
v 0.30522724 -0.10931783 0.14818177
v 0.30522724 0.11085503 0.14936079
v 0.30522724 0.11085503 0.15018429
v 0.31431827 0.11085503 0.15018429
v 0.31431827 0.11085503 0.14936079
v 0.31431827 -0.10772732 0.15681814
v 0.30522724 -0.11011361 0.14839497
v 0.31431827 -0.09749991 0.14818177
v 0.30522724 -0.09749991 0.14818177
v 0.30522724 0.11090940 0.14977280
v 0.31431827 0.11090940 0.14977280
v 0.30522724 0.09708843 0.14823613
v 0.31431827 -0.11011361 0.14839497
v 0.30522724 -0.10772732 0.15681814
v 0.31431827 -0.10931783 0.15136331
v 0.30522724 -0.11044301 0.14864762
v 0.31431827 0.09708843 0.14823613
v 0.31431827 -0.11044301 0.14864762
v 0.30522724 -0.10772732 0.15136331
v 0.31431827 -0.10972984 0.15130947
v 0.31431827 -0.10772732 0.15136331
v 0.30522724 -0.11069566 0.14897702
v 0.31431827 -0.09708790 0.14823613
v 0.30522724 -0.09708790 0.14823613
v 0.30522724 0.09670466 0.14839497
v 0.31431827 -0.11069566 0.14897702
v 0.30522724 -0.10931783 0.15136331
v 0.31431827 -0.11011361 0.15115010
v 0.30522724 -0.11085450 0.14936079
v 0.31431827 0.09670466 0.14839497
v 0.31431827 -0.11085450 0.14936079
v 0.30522724 -0.10972984 0.15130947
v 0.31431827 -0.11044301 0.15089746
v 0.30522724 -0.11090886 0.14977280
v 0.31431827 -0.09670413 0.14839497
v 0.30522724 -0.09670413 0.14839497
v 0.30522724 0.09637526 0.14864762
v 0.31431827 -0.11090886 0.14977280
v 0.30522724 -0.11011361 0.15115010
v 0.31431827 -0.11069566 0.15056806
v 0.30522724 -0.11085450 0.15018429
v 0.31431827 0.09637526 0.14864762
v 0.31431827 -0.11085450 0.15018429
v 0.30522724 -0.11044301 0.15089746
v 0.30522724 -0.11069566 0.15056806
v 0.31431827 -0.09637473 0.14864762
v 0.30522724 -0.09637473 0.14864762
v 0.31431827 0.09612261 0.14897702
v 0.30522724 0.09612261 0.14897702
v 0.31431827 -0.09612208 0.14897702
v 0.30522724 -0.09612208 0.14897702
v 0.31431827 0.09596324 0.14936079
v 0.30522724 0.09596324 0.14936079
v 0.31431827 -0.09596324 0.14936079
v 0.30522724 -0.09596324 0.14936079
v 0.31431827 0.09590941 0.14977280
v 0.30522724 0.09590941 0.14977280
v 0.31431827 -0.09590888 0.14977280
v 0.30522724 -0.09590888 0.14977280
v 0.31431827 0.09596324 0.15018429
v 0.30522724 0.09596324 0.15018429
v 0.31431827 -0.09596324 0.15018429
v 0.30522724 -0.09596324 0.15018429
v 0.31431827 0.09612261 0.15056806
v 0.30522724 0.09612261 0.15056806
v 0.31431827 -0.09612208 0.15056806
v 0.30522724 -0.09612208 0.15056806
v 0.31431827 0.09637526 0.15089746
v 0.30522724 0.09637526 0.15089746
v 0.31431827 -0.09637473 0.15089746
v 0.30522724 -0.09637473 0.15089746
v 0.31431827 0.09670466 0.15115010
v 0.30522724 0.09670466 0.15115010
v 0.31431827 -0.09670413 0.15115010
v 0.30522724 -0.09670413 0.15115010
v 0.31431827 0.09708843 0.15130947
v 0.30522724 0.09708843 0.15130947
v 0.31431827 -0.09708790 0.15130947
v 0.30522724 -0.09708790 0.15130947
v 0.31431827 0.09749991 0.15136331
v 0.30522724 0.09749991 0.15136331
v 0.31431827 -0.09749991 0.15136331
v 0.30522724 -0.09749991 0.15136331
v 0.31431827 0.09909095 0.15136331
v 0.31431827 0.09909095 0.15681814
v 0.30522724 0.09909095 0.15136331
v 0.31431827 -0.09909095 0.15136331
v 0.30522724 0.09909095 0.15681814
v 0.31431827 -0.09909095 0.15681814
v 0.30522724 -0.09909095 0.15136331
v 0.30522724 -0.09909095 0.15681814
v 0.24999987 -0.09612208 0.15056806
v 0.49545448 -0.09637473 0.15089746
v 0.49545448 -0.09612208 0.15056806
v 0.24999987 -0.09637473 0.15089746
v 0.49545448 -0.11069566 0.15056806
v 0.24999987 -0.09596324 0.15018429
v 0.24999987 -0.11044301 0.15089746
v 0.24999987 -0.09670413 0.15115010
v 0.49545448 -0.11085450 0.15018429
v 0.49545448 -0.11044301 0.15089746
v 0.49545448 -0.09596324 0.15018429
v 0.24999987 -0.11069566 0.15056806
v 0.24999987 -0.11011361 0.15115010
v 0.49545448 -0.09670413 0.15115010
v 0.24999987 -0.09590888 0.14977280
v 0.24999987 -0.11085450 0.15018429
v 0.49545448 -0.11011361 0.15115010
v 0.24999987 -0.09708790 0.15130947
v 0.24999987 -0.10972984 0.15130947
v 0.49545448 -0.11090886 0.14977280
v 0.49545448 -0.09590888 0.14977280
v 0.49545448 -0.10972984 0.15130947
v 0.49545448 -0.09708790 0.15130947
v 0.24999987 -0.09596324 0.14936079
v 0.24999987 -0.11090886 0.14977280
v 0.24999987 -0.09749991 0.15136331
v 0.24999987 -0.10931783 0.15136331
v 0.49545448 -0.10931783 0.15136331
v 0.49545448 -0.11085450 0.14936079
v 0.49545448 -0.09596324 0.14936079
v 0.49545448 -0.09749991 0.15136331
v 0.24999987 -0.09612208 0.14897702
v 0.24999987 -0.11085450 0.14936079
v 0.24999987 -0.09909095 0.15136331
v 0.24999987 -0.10772732 0.15136331
v 0.49545448 -0.10772732 0.15136331
v 0.49545448 -0.09909095 0.15136331
v 0.49545448 -0.11069566 0.14897702
v 0.49545448 -0.09612208 0.14897702
v 0.24999987 -0.09637473 0.14864762
v 0.24999987 -0.11069566 0.14897702
v 0.49545448 -0.09909095 0.15681814
v 0.24999987 -0.10772732 0.15681814
v 0.49545448 -0.11044301 0.14864762
v 0.49545448 -0.09637473 0.14864762
v 0.24999987 -0.09909095 0.15681814
v 0.49545448 -0.10772732 0.15681814
v 0.49545448 -0.09670413 0.14839497
v 0.24999987 -0.11044301 0.14864762
v 0.49545448 -0.11011361 0.14839497
v 0.24999987 -0.09670413 0.14839497
v 0.24999987 -0.11011361 0.14839497
v 0.49545448 -0.09708790 0.14823613
v 0.49545448 -0.10972984 0.14823613
v 0.24999987 -0.10972984 0.14823613
v 0.24999987 -0.09708790 0.14823613
v 0.49545448 -0.09749991 0.14818177
v 0.49545448 -0.10931783 0.14818177
v 0.24999987 -0.10931783 0.14818177
v 0.24999987 -0.09749991 0.14818177
v 0.28749983 -0.17772708 0.15681814
v 0.28749983 -0.18681811 0.12045455
v 0.28749983 -0.17772708 0.12045455
v 0.28749983 -0.18681811 0.15681814
v -0.28749983 -0.17772708 0.12045455
v -0.28749983 -0.17772708 0.15681814
v -0.28749983 -0.18681811 0.15681814
v -0.28749983 -0.18681811 0.12045455
f 1 2 3
f 2 1 4
f 2 5 3
f 5 1 3
f 1 6 4
f 6 2 4
f 5 2 7
f 1 5 8
f 6 1 8
f 2 6 7
f 6 5 7
f 5 6 8
f 3 2 1
f 4 1 2
f 3 5 2
f 3 1 5
f 4 6 1
f 4 2 6
f 7 2 5
f 8 5 1
f 8 1 6
f 7 6 2
f 7 5 6
f 8 6 5
f 9 4 10
f 4 9 2
f 4 11 10
f 11 9 10
f 9 7 2
f 7 4 2
f 11 4 6
f 9 11 12
f 7 9 12
f 4 7 6
f 7 11 6
f 11 7 12
f 10 4 9
f 2 9 4
f 10 11 4
f 10 9 11
f 2 7 9
f 2 4 7
f 6 4 11
f 12 11 9
f 12 9 7
f 6 7 4
f 6 11 7
f 12 7 11
f 12 13 11
f 13 12 14
f 11 13 12
f 14 12 13
f 13 10 11
f 11 10 13
f 10 12 11
f 11 12 10
f 12 15 14
f 14 15 12
f 15 13 14
f 14 13 15
f 10 13 16
f 16 13 10
f 12 10 9
f 9 10 12
f 15 12 9
f 9 12 15
f 13 15 16
f 16 15 13
f 15 10 16
f 16 10 15
f 10 15 9
f 9 15 10
f 8 17 5
f 17 8 18
f 5 17 8
f 18 8 17
f 17 3 5
f 5 3 17
f 3 8 5
f 5 8 3
f 8 19 18
f 18 19 8
f 19 17 18
f 18 17 19
f 3 17 20
f 20 17 3
f 8 3 1
f 1 3 8
f 19 8 1
f 1 8 19
f 17 19 20
f 20 19 17
f 19 3 20
f 20 3 19
f 3 19 1
f 1 19 3
f 21 22 23
f 22 21 24
f 23 22 21
f 24 21 22
f 22 25 23
f 23 25 22
f 25 21 23
f 23 21 25
f 21 26 24
f 24 26 21
f 26 22 24
f 24 22 26
f 25 22 27
f 27 22 25
f 21 25 28
f 28 25 21
f 26 21 28
f 28 21 26
f 22 26 27
f 27 26 22
f 26 25 27
f 27 25 26
f 25 26 28
f 28 26 25
f 29 30 31
f 30 29 32
f 31 30 29
f 32 29 30
f 30 33 31
f 31 33 30
f 33 29 31
f 31 29 33
f 29 34 32
f 32 34 29
f 34 30 32
f 32 30 34
f 33 30 35
f 35 30 33
f 29 33 36
f 36 33 29
f 34 29 36
f 36 29 34
f 30 34 35
f 35 34 30
f 34 33 35
f 35 33 34
f 33 34 36
f 36 34 33
f 37 38 39
f 38 37 40
f 39 38 37
f 40 37 38
f 38 41 39
f 39 41 38
f 41 37 39
f 39 37 41
f 37 42 40
f 40 42 37
f 42 38 40
f 40 38 42
f 41 38 43
f 43 38 41
f 37 41 44
f 44 41 37
f 42 37 44
f 44 37 42
f 38 42 43
f 43 42 38
f 42 41 43
f 43 41 42
f 41 42 44
f 44 42 41
f 45 46 47
f 46 45 48
f 47 46 45
f 48 45 46
f 46 49 47
f 47 49 46
f 49 45 47
f 47 45 49
f 45 50 48
f 48 50 45
f 50 46 48
f 48 46 50
f 49 46 51
f 51 46 49
f 45 49 52
f 52 49 45
f 50 45 52
f 52 45 50
f 46 50 51
f 51 50 46
f 50 49 51
f 51 49 50
f 49 50 52
f 52 50 49
f 53 54 55
f 54 53 56
f 55 58 53
f 60 54 56
f 58 55 63
f 54 60 66
f 64 61 57
f 59 57 62
f 63 67 58
f 57 59 64
f 59 69 65
f 70 66 60
f 61 64 68
f 69 59 62
f 67 63 73
f 74 65 69
f 66 70 75
f 65 74 71
f 68 72 61
f 73 76 67
f 78 75 70
f 80 71 74
f 72 68 77
f 76 73 82
f 75 78 83
f 71 80 79
f 77 81 72
f 82 84 76
f 81 77 85
f 84 82 91
f 85 90 81
f 91 92 84
f 86 94 89
f 88 95 87
f 90 85 93
f 92 91 97
f 94 86 98
f 95 88 99
f 93 96 90
f 100 92 97
f 96 93 101
f 92 100 103
f 96 104 102
f 104 96 101
f 105 103 100
f 107 102 104
f 103 105 108
f 102 107 106
f 109 108 105
f 111 106 107
f 108 109 112
f 106 111 110
f 110 112 109
f 112 110 111
f 55 54 53
f 56 53 54
f 54 55 57
f 53 58 55
f 53 59 56
f 56 59 53
f 56 54 60
f 57 55 61
f 62 54 57
f 63 55 58
f 58 64 53
f 53 64 58
f 53 64 59
f 59 64 53
f 56 59 65
f 65 59 56
f 66 60 54
f 56 65 60
f 60 65 56
f 55 63 61
f 57 61 64
f 66 54 62
f 62 57 59
f 58 67 63
f 58 68 64
f 64 68 58
f 64 59 57
f 65 69 59
f 60 66 70
f 60 65 71
f 71 65 60
f 61 63 72
f 68 64 61
f 69 66 62
f 62 59 69
f 73 63 67
f 67 68 58
f 58 68 67
f 69 65 74
f 75 70 66
f 60 71 70
f 70 71 60
f 71 74 65
f 63 73 72
f 61 72 68
f 75 66 69
f 67 76 73
f 67 77 68
f 68 77 67
f 74 75 69
f 70 75 78
f 70 71 79
f 79 71 70
f 74 71 80
f 72 73 81
f 77 68 72
f 82 73 76
f 76 77 67
f 67 77 76
f 83 75 74
f 83 78 75
f 70 79 78
f 78 79 70
f 79 80 71
f 80 83 74
f 73 82 81
f 72 81 77
f 76 84 82
f 76 85 77
f 77 85 76
f 86 83 78
f 78 83 86
f 78 79 87
f 87 79 78
f 88 79 80
f 80 79 88
f 89 83 80
f 81 82 90
f 85 77 81
f 91 82 84
f 84 85 76
f 76 85 84
f 83 86 89
f 89 86 83
f 78 87 86
f 86 87 78
f 79 88 87
f 87 88 79
f 88 89 80
f 82 91 90
f 81 90 85
f 84 92 91
f 84 93 85
f 85 93 84
f 89 94 86
f 95 86 87
f 87 86 95
f 87 95 88
f 89 88 94
f 90 91 96
f 93 85 90
f 97 91 92
f 92 93 84
f 84 93 92
f 98 86 94
f 86 95 98
f 98 95 86
f 99 88 95
f 99 94 88
f 91 97 96
f 90 96 93
f 97 92 100
f 92 101 93
f 93 101 92
f 95 94 98
f 98 94 95
f 94 95 99
f 99 95 94
f 96 97 102
f 101 93 96
f 103 100 92
f 97 100 102
f 103 101 92
f 92 101 103
f 102 104 96
f 101 96 104
f 100 103 105
f 102 100 106
f 103 104 101
f 101 104 103
f 104 102 107
f 108 105 103
f 100 105 106
f 106 107 102
f 108 104 103
f 103 104 108
f 108 107 104
f 104 107 108
f 105 108 109
f 106 105 110
f 107 106 111
f 112 107 108
f 108 107 112
f 112 109 108
f 109 110 105
f 110 111 106
f 107 112 111
f 111 112 107
f 109 112 110
f 111 110 112
f 57 55 54
f 61 55 57
f 57 54 62
f 61 63 55
f 62 54 66
f 72 63 61
f 62 66 69
f 72 73 63
f 69 66 75
f 69 75 74
f 81 73 72
f 74 75 83
f 74 83 80
f 81 82 73
f 80 83 89
f 90 82 81
f 80 89 88
f 90 91 82
f 94 88 89
f 96 91 90
f 88 94 99
f 96 97 91
f 102 97 96
f 102 100 97
f 106 100 102
f 106 105 100
f 110 105 106
f 105 110 109
f 113 114 115
f 114 113 116
f 115 114 113
f 116 113 114
f 117 115 114
f 114 115 117
f 118 113 115
f 115 113 118
f 113 119 116
f 116 119 113
f 116 120 114
f 114 120 116
f 115 117 118
f 118 117 115
f 114 120 117
f 117 120 114
f 121 113 118
f 118 113 121
f 119 113 122
f 122 113 119
f 119 123 116
f 116 123 119
f 116 124 120
f 120 124 116
f 117 121 118
f 118 121 117
f 121 117 120
f 120 117 121
f 125 113 121
f 121 113 125
f 126 122 113
f 113 122 126
f 127 119 122
f 122 119 127
f 123 119 128
f 128 119 123
f 116 123 129
f 129 123 116
f 116 130 124
f 124 130 116
f 125 120 124
f 124 120 125
f 120 125 121
f 121 125 120
f 131 113 125
f 125 113 131
f 132 122 126
f 126 122 132
f 126 113 133
f 133 113 126
f 119 127 134
f 134 127 119
f 122 132 127
f 127 132 122
f 128 119 134
f 134 119 128
f 128 126 123
f 123 126 128
f 123 133 129
f 129 133 123
f 116 129 135
f 135 129 116
f 116 136 130
f 130 136 116
f 131 124 130
f 130 124 131
f 124 131 125
f 125 131 124
f 137 113 131
f 131 113 137
f 126 128 132
f 132 128 126
f 133 113 138
f 138 113 133
f 133 123 126
f 126 123 133
f 127 139 134
f 134 139 127
f 140 127 132
f 132 127 140
f 128 134 141
f 141 134 128
f 138 129 133
f 133 129 138
f 129 138 135
f 135 138 129
f 116 135 142
f 142 135 116
f 116 143 136
f 136 143 116
f 137 130 136
f 136 130 137
f 130 137 131
f 131 137 130
f 144 113 137
f 137 113 144
f 141 132 128
f 128 132 141
f 138 113 145
f 145 113 138
f 139 127 146
f 146 127 139
f 147 134 139
f 139 134 147
f 148 127 140
f 140 127 148
f 140 132 149
f 149 132 140
f 134 150 141
f 141 150 134
f 145 135 138
f 138 135 145
f 135 145 142
f 142 145 135
f 116 142 151
f 151 142 116
f 116 152 143
f 143 152 116
f 143 137 136
f 136 137 143
f 153 113 144
f 144 113 153
f 137 143 144
f 144 143 137
f 132 141 149
f 149 141 132
f 145 113 154
f 154 113 145
f 127 148 146
f 146 148 127
f 155 139 146
f 146 139 155
f 150 134 147
f 147 134 150
f 147 139 156
f 156 139 147
f 150 148 140
f 140 148 150
f 140 149 157
f 157 149 140
f 158 141 150
f 150 141 158
f 154 142 145
f 145 142 154
f 142 154 151
f 151 154 142
f 116 151 159
f 159 151 116
f 116 159 152
f 152 159 116
f 152 144 143
f 143 144 152
f 160 113 153
f 153 113 160
f 144 152 153
f 153 152 144
f 161 149 141
f 141 149 161
f 154 113 160
f 160 113 154
f 146 148 162
f 162 148 146
f 139 155 163
f 163 155 139
f 146 164 155
f 155 164 146
f 148 150 147
f 147 150 148
f 156 139 165
f 165 139 156
f 162 147 156
f 156 147 162
f 140 158 150
f 150 158 140
f 166 157 149
f 149 157 166
f 158 140 157
f 157 140 158
f 141 158 161
f 161 158 141
f 160 151 154
f 154 151 160
f 151 160 159
f 159 160 151
f 159 153 152
f 152 153 159
f 153 159 160
f 160 159 153
f 149 161 166
f 166 161 149
f 147 162 148
f 148 162 147
f 146 162 167
f 167 162 146
f 155 168 163
f 163 168 155
f 168 139 163
f 163 139 168
f 146 169 164
f 164 169 146
f 155 164 170
f 170 164 155
f 165 139 171
f 171 139 165
f 167 156 165
f 165 156 167
f 156 167 162
f 162 167 156
f 157 166 172
f 172 166 157
f 157 173 158
f 158 173 157
f 161 158 173
f 173 158 161
f 174 166 161
f 161 166 174
f 146 167 175
f 175 167 146
f 168 155 170
f 170 155 168
f 176 139 168
f 168 139 176
f 146 177 169
f 169 177 146
f 169 176 164
f 164 176 169
f 164 168 170
f 170 168 164
f 171 139 178
f 178 139 171
f 175 165 171
f 171 165 175
f 165 175 167
f 167 175 165
f 172 166 179
f 179 166 172
f 173 157 172
f 172 157 173
f 161 173 174
f 174 173 161
f 166 174 179
f 179 174 166
f 146 175 180
f 180 175 146
f 181 139 176
f 176 139 181
f 168 164 176
f 176 164 168
f 146 182 177
f 177 182 146
f 177 181 169
f 169 181 177
f 176 169 181
f 181 169 176
f 178 139 183
f 183 139 178
f 180 171 178
f 178 171 180
f 171 180 175
f 175 180 171
f 172 179 184
f 184 179 172
f 172 185 173
f 173 185 172
f 174 173 185
f 185 173 174
f 186 179 174
f 174 179 186
f 146 180 187
f 187 180 146
f 188 139 181
f 181 139 188
f 146 189 182
f 182 189 146
f 182 188 177
f 177 188 182
f 181 177 188
f 188 177 181
f 183 139 190
f 190 139 183
f 187 178 183
f 183 178 187
f 178 187 180
f 180 187 178
f 184 179 191
f 191 179 184
f 185 172 184
f 184 172 185
f 174 185 186
f 186 185 174
f 179 186 191
f 191 186 179
f 146 187 192
f 192 187 146
f 193 139 188
f 188 139 193
f 146 192 189
f 189 192 146
f 194 182 189
f 189 182 194
f 188 182 193
f 193 182 188
f 190 139 194
f 194 139 190
f 192 183 190
f 190 183 192
f 183 192 187
f 187 192 183
f 184 191 195
f 195 191 184
f 184 196 185
f 185 196 184
f 186 185 196
f 196 185 186
f 186 197 191
f 191 197 186
f 194 139 193
f 193 139 194
f 190 189 192
f 192 189 190
f 182 194 193
f 193 194 182
f 189 190 194
f 194 190 189
f 195 191 197
f 197 191 195
f 196 184 195
f 195 184 196
f 186 196 198
f 198 196 186
f 197 186 198
f 198 186 197
f 195 197 199
f 199 197 195
f 199 196 195
f 195 196 199
f 198 196 200
f 200 196 198
f 198 201 197
f 197 201 198
f 199 197 201
f 201 197 199
f 196 199 200
f 200 199 196
f 198 200 202
f 202 200 198
f 201 198 202
f 202 198 201
f 199 201 203
f 203 201 199
f 203 200 199
f 199 200 203
f 202 200 204
f 204 200 202
f 202 205 201
f 201 205 202
f 203 201 205
f 205 201 203
f 200 203 204
f 204 203 200
f 202 204 206
f 206 204 202
f 205 202 206
f 206 202 205
f 203 205 207
f 207 205 203
f 207 204 203
f 203 204 207
f 206 204 208
f 208 204 206
f 206 209 205
f 205 209 206
f 207 205 209
f 209 205 207
f 204 207 208
f 208 207 204
f 206 208 210
f 210 208 206
f 209 206 210
f 210 206 209
f 207 209 211
f 211 209 207
f 211 208 207
f 207 208 211
f 210 208 212
f 212 208 210
f 210 213 209
f 209 213 210
f 211 209 213
f 213 209 211
f 208 211 212
f 212 211 208
f 210 212 214
f 214 212 210
f 213 210 214
f 214 210 213
f 211 213 215
f 215 213 211
f 215 212 211
f 211 212 215
f 214 212 216
f 216 212 214
f 214 217 213
f 213 217 214
f 215 213 217
f 217 213 215
f 212 215 216
f 216 215 212
f 214 216 218
f 218 216 214
f 217 214 218
f 218 214 217
f 215 217 219
f 219 217 215
f 219 216 215
f 215 216 219
f 218 216 220
f 220 216 218
f 218 221 217
f 217 221 218
f 219 217 221
f 221 217 219
f 216 219 220
f 220 219 216
f 218 220 222
f 222 220 218
f 221 218 222
f 222 218 221
f 219 221 223
f 223 221 219
f 223 220 219
f 219 220 223
f 222 220 224
f 224 220 222
f 222 225 221
f 221 225 222
f 223 221 225
f 225 221 223
f 220 223 224
f 224 223 220
f 222 224 226
f 226 224 222
f 225 222 226
f 226 222 225
f 223 225 227
f 227 225 223
f 227 224 223
f 223 224 227
f 226 224 228
f 228 224 226
f 226 229 225
f 225 229 226
f 227 225 229
f 229 225 227
f 224 227 228
f 228 227 224
f 226 228 230
f 230 228 226
f 229 226 230
f 230 226 229
f 227 229 231
f 231 229 227
f 231 228 227
f 227 228 231
f 230 228 232
f 232 228 230
f 230 233 229
f 229 233 230
f 229 234 231
f 231 234 229
f 228 231 232
f 232 231 228
f 230 232 235
f 235 232 230
f 233 230 235
f 235 230 233
f 234 229 233
f 233 229 234
f 231 234 236
f 236 234 231
f 236 232 231
f 231 232 236
f 235 232 237
f 237 232 235
f 235 234 233
f 233 234 235
f 236 234 238
f 238 234 236
f 232 236 239
f 239 236 232
f 232 240 237
f 237 240 232
f 234 235 237
f 237 235 234
f 237 238 234
f 234 238 237
f 238 239 236
f 236 239 238
f 240 232 239
f 239 232 240
f 238 237 240
f 240 237 238
f 239 238 240
f 240 238 239
f 241 242 243
f 242 241 244
f 243 246 241
f 248 242 244
f 246 243 251
f 242 248 254
f 252 249 245
f 247 245 250
f 251 255 246
f 245 247 252
f 247 257 253
f 258 254 248
f 249 252 256
f 257 247 250
f 255 251 261
f 262 253 257
f 254 258 263
f 253 262 259
f 256 260 249
f 261 264 255
f 266 263 258
f 268 259 262
f 260 256 265
f 264 261 270
f 263 266 271
f 259 268 267
f 265 269 260
f 270 272 264
f 269 265 273
f 272 270 279
f 273 278 269
f 279 280 272
f 274 282 277
f 276 283 275
f 278 273 281
f 280 279 285
f 282 274 286
f 283 276 287
f 281 284 278
f 288 280 285
f 284 281 289
f 280 288 291
f 284 292 290
f 292 284 289
f 293 291 288
f 295 290 292
f 291 293 296
f 290 295 294
f 297 296 293
f 299 294 295
f 296 297 300
f 294 299 298
f 298 300 297
f 300 298 299
f 243 242 241
f 244 241 242
f 242 243 245
f 241 246 243
f 241 247 244
f 244 247 241
f 244 242 248
f 245 243 249
f 250 242 245
f 251 243 246
f 246 252 241
f 241 252 246
f 241 252 247
f 247 252 241
f 244 247 253
f 253 247 244
f 254 248 242
f 244 253 248
f 248 253 244
f 243 251 249
f 245 249 252
f 254 242 250
f 250 245 247
f 246 255 251
f 246 256 252
f 252 256 246
f 252 247 245
f 253 257 247
f 248 254 258
f 248 253 259
f 259 253 248
f 249 251 260
f 256 252 249
f 257 254 250
f 250 247 257
f 261 251 255
f 255 256 246
f 246 256 255
f 257 253 262
f 263 258 254
f 248 259 258
f 258 259 248
f 259 262 253
f 251 261 260
f 249 260 256
f 263 254 257
f 255 264 261
f 255 265 256
f 256 265 255
f 262 263 257
f 258 263 266
f 258 259 267
f 267 259 258
f 262 259 268
f 260 261 269
f 265 256 260
f 270 261 264
f 264 265 255
f 255 265 264
f 271 263 262
f 271 266 263
f 258 267 266
f 266 267 258
f 267 268 259
f 268 271 262
f 261 270 269
f 260 269 265
f 264 272 270
f 264 273 265
f 265 273 264
f 274 271 266
f 266 271 274
f 266 267 275
f 275 267 266
f 276 267 268
f 268 267 276
f 277 271 268
f 269 270 278
f 273 265 269
f 279 270 272
f 272 273 264
f 264 273 272
f 271 274 277
f 277 274 271
f 266 275 274
f 274 275 266
f 267 276 275
f 275 276 267
f 276 277 268
f 270 279 278
f 269 278 273
f 272 280 279
f 272 281 273
f 273 281 272
f 277 282 274
f 283 274 275
f 275 274 283
f 275 283 276
f 277 276 282
f 278 279 284
f 281 273 278
f 285 279 280
f 280 281 272
f 272 281 280
f 286 274 282
f 274 283 286
f 286 283 274
f 287 276 283
f 287 282 276
f 279 285 284
f 278 284 281
f 285 280 288
f 280 289 281
f 281 289 280
f 283 282 286
f 286 282 283
f 282 283 287
f 287 283 282
f 284 285 290
f 289 281 284
f 291 288 280
f 285 288 290
f 291 289 280
f 280 289 291
f 290 292 284
f 289 284 292
f 288 291 293
f 290 288 294
f 291 292 289
f 289 292 291
f 292 290 295
f 296 293 291
f 288 293 294
f 294 295 290
f 296 292 291
f 291 292 296
f 296 295 292
f 292 295 296
f 293 296 297
f 294 293 298
f 295 294 299
f 300 295 296
f 296 295 300
f 300 297 296
f 297 298 293
f 298 299 294
f 295 300 299
f 299 300 295
f 297 300 298
f 299 298 300
f 245 243 242
f 249 243 245
f 245 242 250
f 249 251 243
f 250 242 254
f 260 251 249
f 250 254 257
f 260 261 251
f 257 254 263
f 257 263 262
f 269 261 260
f 262 263 271
f 262 271 268
f 269 270 261
f 268 271 277
f 278 270 269
f 268 277 276
f 278 279 270
f 282 276 277
f 284 279 278
f 276 282 287
f 284 285 279
f 290 285 284
f 290 288 285
f 294 288 290
f 294 293 288
f 298 293 294
f 293 298 297
f 301 302 303
f 302 301 304
f 303 302 301
f 304 301 302
f 302 305 303
f 303 305 302
f 305 301 303
f 303 301 305
f 306 304 301
f 301 304 306
f 307 302 304
f 304 302 307
f 305 302 308
f 308 302 305
f 301 305 306
f 306 305 301
f 304 306 307
f 307 306 304
f 302 307 308
f 308 307 302
f 307 305 308
f 308 305 307
f 305 307 306
f 306 307 305
f 309 310 311
f 310 309 312
f 311 314 309
f 316 310 312
f 314 311 319
f 310 316 322
f 320 317 313
f 315 313 318
f 319 323 314
f 313 315 320
f 315 325 321
f 326 322 316
f 317 320 324
f 325 315 318
f 323 319 329
f 330 321 325
f 322 326 331
f 321 330 327
f 324 328 317
f 329 332 323
f 334 331 326
f 336 327 330
f 328 324 333
f 332 329 338
f 331 334 339
f 327 336 335
f 333 337 328
f 338 340 332
f 337 333 341
f 340 338 347
f 341 346 337
f 347 348 340
f 342 350 345
f 344 351 343
f 346 341 349
f 348 347 353
f 350 342 354
f 351 344 355
f 349 352 346
f 356 348 353
f 352 349 357
f 348 356 359
f 352 360 358
f 360 352 357
f 361 359 356
f 363 358 360
f 359 361 364
f 358 363 362
f 365 364 361
f 367 362 363
f 364 365 368
f 362 367 366
f 366 368 365
f 368 366 367
f 311 310 309
f 312 309 310
f 310 311 313
f 309 314 311
f 309 315 312
f 312 315 309
f 312 310 316
f 313 311 317
f 318 310 313
f 319 311 314
f 314 320 309
f 309 320 314
f 309 320 315
f 315 320 309
f 312 315 321
f 321 315 312
f 322 316 310
f 312 321 316
f 316 321 312
f 311 319 317
f 313 317 320
f 322 310 318
f 318 313 315
f 314 323 319
f 314 324 320
f 320 324 314
f 320 315 313
f 321 325 315
f 316 322 326
f 316 321 327
f 327 321 316
f 317 319 328
f 324 320 317
f 325 322 318
f 318 315 325
f 329 319 323
f 323 324 314
f 314 324 323
f 325 321 330
f 331 326 322
f 316 327 326
f 326 327 316
f 327 330 321
f 319 329 328
f 317 328 324
f 331 322 325
f 323 332 329
f 323 333 324
f 324 333 323
f 330 331 325
f 326 331 334
f 326 327 335
f 335 327 326
f 330 327 336
f 328 329 337
f 333 324 328
f 338 329 332
f 332 333 323
f 323 333 332
f 339 331 330
f 339 334 331
f 326 335 334
f 334 335 326
f 335 336 327
f 336 339 330
f 329 338 337
f 328 337 333
f 332 340 338
f 332 341 333
f 333 341 332
f 342 339 334
f 334 339 342
f 334 335 343
f 343 335 334
f 344 335 336
f 336 335 344
f 345 339 336
f 337 338 346
f 341 333 337
f 347 338 340
f 340 341 332
f 332 341 340
f 339 342 345
f 345 342 339
f 334 343 342
f 342 343 334
f 335 344 343
f 343 344 335
f 344 345 336
f 338 347 346
f 337 346 341
f 340 348 347
f 340 349 341
f 341 349 340
f 345 350 342
f 351 342 343
f 343 342 351
f 343 351 344
f 345 344 350
f 346 347 352
f 349 341 346
f 353 347 348
f 348 349 340
f 340 349 348
f 354 342 350
f 342 351 354
f 354 351 342
f 355 344 351
f 355 350 344
f 347 353 352
f 346 352 349
f 353 348 356
f 348 357 349
f 349 357 348
f 351 350 354
f 354 350 351
f 350 351 355
f 355 351 350
f 352 353 358
f 357 349 352
f 359 356 348
f 353 356 358
f 359 357 348
f 348 357 359
f 358 360 352
f 357 352 360
f 356 359 361
f 358 356 362
f 359 360 357
f 357 360 359
f 360 358 363
f 364 361 359
f 356 361 362
f 362 363 358
f 364 360 359
f 359 360 364
f 364 363 360
f 360 363 364
f 361 364 365
f 362 361 366
f 363 362 367
f 368 363 364
f 364 363 368
f 368 365 364
f 365 366 361
f 366 367 362
f 363 368 367
f 367 368 363
f 365 368 366
f 367 366 368
f 313 311 310
f 317 311 313
f 313 310 318
f 317 319 311
f 318 310 322
f 328 319 317
f 318 322 325
f 328 329 319
f 325 322 331
f 325 331 330
f 337 329 328
f 330 331 339
f 330 339 336
f 337 338 329
f 336 339 345
f 346 338 337
f 336 345 344
f 346 347 338
f 350 344 345
f 352 347 346
f 344 350 355
f 352 353 347
f 358 353 352
f 358 356 353
f 362 356 358
f 362 361 356
f 366 361 362
f 361 366 365
f 369 370 371
f 370 369 372
f 371 370 369
f 372 369 370
f 373 371 370
f 370 371 373
f 374 369 371
f 371 369 374
f 369 375 372
f 372 375 369
f 372 376 370
f 370 376 372
f 371 373 374
f 374 373 371
f 370 376 373
f 373 376 370
f 377 369 374
f 374 369 377
f 375 369 378
f 378 369 375
f 375 379 372
f 372 379 375
f 372 380 376
f 376 380 372
f 373 377 374
f 374 377 373
f 377 373 376
f 376 373 377
f 381 369 377
f 377 369 381
f 382 378 369
f 369 378 382
f 383 375 378
f 378 375 383
f 379 375 384
f 384 375 379
f 372 379 385
f 385 379 372
f 372 386 380
f 380 386 372
f 381 376 380
f 380 376 381
f 376 381 377
f 377 381 376
f 387 369 381
f 381 369 387
f 388 378 382
f 382 378 388
f 382 369 389
f 389 369 382
f 375 383 390
f 390 383 375
f 378 388 383
f 383 388 378
f 384 375 390
f 390 375 384
f 384 382 379
f 379 382 384
f 379 389 385
f 385 389 379
f 372 385 391
f 391 385 372
f 372 392 386
f 386 392 372
f 387 380 386
f 386 380 387
f 380 387 381
f 381 387 380
f 393 369 387
f 387 369 393
f 382 384 388
f 388 384 382
f 389 369 394
f 394 369 389
f 389 379 382
f 382 379 389
f 383 395 390
f 390 395 383
f 396 383 388
f 388 383 396
f 384 390 397
f 397 390 384
f 394 385 389
f 389 385 394
f 385 394 391
f 391 394 385
f 372 391 398
f 398 391 372
f 372 399 392
f 392 399 372
f 393 386 392
f 392 386 393
f 386 393 387
f 387 393 386
f 400 369 393
f 393 369 400
f 397 388 384
f 384 388 397
f 394 369 401
f 401 369 394
f 395 383 402
f 402 383 395
f 403 390 395
f 395 390 403
f 404 383 396
f 396 383 404
f 396 388 405
f 405 388 396
f 390 406 397
f 397 406 390
f 401 391 394
f 394 391 401
f 391 401 398
f 398 401 391
f 372 398 407
f 407 398 372
f 372 408 399
f 399 408 372
f 399 393 392
f 392 393 399
f 409 369 400
f 400 369 409
f 393 399 400
f 400 399 393
f 388 397 405
f 405 397 388
f 401 369 410
f 410 369 401
f 383 404 402
f 402 404 383
f 411 395 402
f 402 395 411
f 406 390 403
f 403 390 406
f 403 395 412
f 412 395 403
f 406 404 396
f 396 404 406
f 396 405 413
f 413 405 396
f 414 397 406
f 406 397 414
f 410 398 401
f 401 398 410
f 398 410 407
f 407 410 398
f 372 407 415
f 415 407 372
f 372 415 408
f 408 415 372
f 408 400 399
f 399 400 408
f 416 369 409
f 409 369 416
f 400 408 409
f 409 408 400
f 417 405 397
f 397 405 417
f 410 369 416
f 416 369 410
f 402 404 418
f 418 404 402
f 395 411 419
f 419 411 395
f 402 420 411
f 411 420 402
f 404 406 403
f 403 406 404
f 412 395 421
f 421 395 412
f 418 403 412
f 412 403 418
f 396 414 406
f 406 414 396
f 422 413 405
f 405 413 422
f 414 396 413
f 413 396 414
f 397 414 417
f 417 414 397
f 416 407 410
f 410 407 416
f 407 416 415
f 415 416 407
f 415 409 408
f 408 409 415
f 409 415 416
f 416 415 409
f 405 417 422
f 422 417 405
f 403 418 404
f 404 418 403
f 402 418 423
f 423 418 402
f 411 424 419
f 419 424 411
f 424 395 419
f 419 395 424
f 402 425 420
f 420 425 402
f 411 420 426
f 426 420 411
f 421 395 427
f 427 395 421
f 423 412 421
f 421 412 423
f 412 423 418
f 418 423 412
f 413 422 428
f 428 422 413
f 413 429 414
f 414 429 413
f 417 414 429
f 429 414 417
f 430 422 417
f 417 422 430
f 402 423 431
f 431 423 402
f 424 411 426
f 426 411 424
f 432 395 424
f 424 395 432
f 402 433 425
f 425 433 402
f 425 432 420
f 420 432 425
f 420 424 426
f 426 424 420
f 427 395 434
f 434 395 427
f 431 421 427
f 427 421 431
f 421 431 423
f 423 431 421
f 428 422 435
f 435 422 428
f 429 413 428
f 428 413 429
f 417 429 430
f 430 429 417
f 422 430 435
f 435 430 422
f 402 431 436
f 436 431 402
f 437 395 432
f 432 395 437
f 424 420 432
f 432 420 424
f 402 438 433
f 433 438 402
f 433 437 425
f 425 437 433
f 432 425 437
f 437 425 432
f 434 395 439
f 439 395 434
f 436 427 434
f 434 427 436
f 427 436 431
f 431 436 427
f 428 435 440
f 440 435 428
f 428 441 429
f 429 441 428
f 430 429 441
f 441 429 430
f 442 435 430
f 430 435 442
f 402 436 443
f 443 436 402
f 444 395 437
f 437 395 444
f 402 445 438
f 438 445 402
f 438 444 433
f 433 444 438
f 437 433 444
f 444 433 437
f 439 395 446
f 446 395 439
f 443 434 439
f 439 434 443
f 434 443 436
f 436 443 434
f 440 435 447
f 447 435 440
f 441 428 440
f 440 428 441
f 430 441 442
f 442 441 430
f 435 442 447
f 447 442 435
f 402 443 448
f 448 443 402
f 449 395 444
f 444 395 449
f 402 448 445
f 445 448 402
f 450 438 445
f 445 438 450
f 444 438 449
f 449 438 444
f 446 395 450
f 450 395 446
f 448 439 446
f 446 439 448
f 439 448 443
f 443 448 439
f 440 447 451
f 451 447 440
f 440 452 441
f 441 452 440
f 442 441 452
f 452 441 442
f 442 453 447
f 447 453 442
f 450 395 449
f 449 395 450
f 446 445 448
f 448 445 446
f 438 450 449
f 449 450 438
f 445 446 450
f 450 446 445
f 451 447 453
f 453 447 451
f 452 440 451
f 451 440 452
f 442 452 454
f 454 452 442
f 453 442 454
f 454 442 453
f 451 453 455
f 455 453 451
f 455 452 451
f 451 452 455
f 454 452 456
f 456 452 454
f 454 457 453
f 453 457 454
f 455 453 457
f 457 453 455
f 452 455 456
f 456 455 452
f 454 456 458
f 458 456 454
f 457 454 458
f 458 454 457
f 455 457 459
f 459 457 455
f 459 456 455
f 455 456 459
f 458 456 460
f 460 456 458
f 458 461 457
f 457 461 458
f 459 457 461
f 461 457 459
f 456 459 460
f 460 459 456
f 458 460 462
f 462 460 458
f 461 458 462
f 462 458 461
f 459 461 463
f 463 461 459
f 463 460 459
f 459 460 463
f 462 460 464
f 464 460 462
f 462 465 461
f 461 465 462
f 463 461 465
f 465 461 463
f 460 463 464
f 464 463 460
f 462 464 466
f 466 464 462
f 465 462 466
f 466 462 465
f 463 465 467
f 467 465 463
f 467 464 463
f 463 464 467
f 466 464 468
f 468 464 466
f 466 469 465
f 465 469 466
f 467 465 469
f 469 465 467
f 464 467 468
f 468 467 464
f 466 468 470
f 470 468 466
f 469 466 470
f 470 466 469
f 467 469 471
f 471 469 467
f 471 468 467
f 467 468 471
f 470 468 472
f 472 468 470
f 470 473 469
f 469 473 470
f 471 469 473
f 473 469 471
f 468 471 472
f 472 471 468
f 470 472 474
f 474 472 470
f 473 470 474
f 474 470 473
f 471 473 475
f 475 473 471
f 475 472 471
f 471 472 475
f 474 472 476
f 476 472 474
f 474 477 473
f 473 477 474
f 475 473 477
f 477 473 475
f 472 475 476
f 476 475 472
f 474 476 478
f 478 476 474
f 477 474 478
f 478 474 477
f 475 477 479
f 479 477 475
f 479 476 475
f 475 476 479
f 478 476 480
f 480 476 478
f 478 481 477
f 477 481 478
f 479 477 481
f 481 477 479
f 476 479 480
f 480 479 476
f 478 480 482
f 482 480 478
f 481 478 482
f 482 478 481
f 479 481 483
f 483 481 479
f 483 480 479
f 479 480 483
f 482 480 484
f 484 480 482
f 482 485 481
f 481 485 482
f 483 481 485
f 485 481 483
f 480 483 484
f 484 483 480
f 482 484 486
f 486 484 482
f 485 482 486
f 486 482 485
f 483 485 487
f 487 485 483
f 487 484 483
f 483 484 487
f 486 484 488
f 488 484 486
f 486 489 485
f 485 489 486
f 485 490 487
f 487 490 485
f 484 487 488
f 488 487 484
f 486 488 491
f 491 488 486
f 489 486 491
f 491 486 489
f 490 485 489
f 489 485 490
f 487 490 492
f 492 490 487
f 492 488 487
f 487 488 492
f 491 488 493
f 493 488 491
f 491 490 489
f 489 490 491
f 492 490 494
f 494 490 492
f 488 492 495
f 495 492 488
f 488 496 493
f 493 496 488
f 490 491 493
f 493 491 490
f 493 494 490
f 490 494 493
f 494 495 492
f 492 495 494
f 496 488 495
f 495 488 496
f 494 493 496
f 496 493 494
f 495 494 496
f 496 494 495
f 497 498 499
f 498 497 500
f 499 502 497
f 504 498 500
f 502 499 507
f 498 504 510
f 508 505 501
f 503 501 506
f 507 511 502
f 501 503 508
f 503 513 509
f 514 510 504
f 505 508 512
f 513 503 506
f 511 507 517
f 518 509 513
f 510 514 519
f 509 518 515
f 512 516 505
f 517 520 511
f 522 519 514
f 524 515 518
f 516 512 521
f 520 517 526
f 519 522 527
f 515 524 523
f 521 525 516
f 526 528 520
f 525 521 529
f 528 526 535
f 529 534 525
f 535 536 528
f 530 538 533
f 532 539 531
f 534 529 537
f 536 535 541
f 538 530 542
f 539 532 543
f 537 540 534
f 544 536 541
f 540 537 545
f 536 544 547
f 540 548 546
f 548 540 545
f 549 547 544
f 551 546 548
f 547 549 552
f 546 551 550
f 553 552 549
f 555 550 551
f 552 553 556
f 550 555 554
f 554 556 553
f 556 554 555
f 499 498 497
f 500 497 498
f 498 499 501
f 497 502 499
f 497 503 500
f 500 503 497
f 500 498 504
f 501 499 505
f 506 498 501
f 507 499 502
f 502 508 497
f 497 508 502
f 497 508 503
f 503 508 497
f 500 503 509
f 509 503 500
f 510 504 498
f 500 509 504
f 504 509 500
f 499 507 505
f 501 505 508
f 510 498 506
f 506 501 503
f 502 511 507
f 502 512 508
f 508 512 502
f 508 503 501
f 509 513 503
f 504 510 514
f 504 509 515
f 515 509 504
f 505 507 516
f 512 508 505
f 513 510 506
f 506 503 513
f 517 507 511
f 511 512 502
f 502 512 511
f 513 509 518
f 519 514 510
f 504 515 514
f 514 515 504
f 515 518 509
f 507 517 516
f 505 516 512
f 519 510 513
f 511 520 517
f 511 521 512
f 512 521 511
f 518 519 513
f 514 519 522
f 514 515 523
f 523 515 514
f 518 515 524
f 516 517 525
f 521 512 516
f 526 517 520
f 520 521 511
f 511 521 520
f 527 519 518
f 527 522 519
f 514 523 522
f 522 523 514
f 523 524 515
f 524 527 518
f 517 526 525
f 516 525 521
f 520 528 526
f 520 529 521
f 521 529 520
f 530 527 522
f 522 527 530
f 522 523 531
f 531 523 522
f 532 523 524
f 524 523 532
f 533 527 524
f 525 526 534
f 529 521 525
f 535 526 528
f 528 529 520
f 520 529 528
f 527 530 533
f 533 530 527
f 522 531 530
f 530 531 522
f 523 532 531
f 531 532 523
f 532 533 524
f 526 535 534
f 525 534 529
f 528 536 535
f 528 537 529
f 529 537 528
f 533 538 530
f 539 530 531
f 531 530 539
f 531 539 532
f 533 532 538
f 534 535 540
f 537 529 534
f 541 535 536
f 536 537 528
f 528 537 536
f 542 530 538
f 530 539 542
f 542 539 530
f 543 532 539
f 543 538 532
f 535 541 540
f 534 540 537
f 541 536 544
f 536 545 537
f 537 545 536
f 539 538 542
f 542 538 539
f 538 539 543
f 543 539 538
f 540 541 546
f 545 537 540
f 547 544 536
f 541 544 546
f 547 545 536
f 536 545 547
f 546 548 540
f 545 540 548
f 544 547 549
f 546 544 550
f 547 548 545
f 545 548 547
f 548 546 551
f 552 549 547
f 544 549 550
f 550 551 546
f 552 548 547
f 547 548 552
f 552 551 548
f 548 551 552
f 549 552 553
f 550 549 554
f 551 550 555
f 556 551 552
f 552 551 556
f 556 553 552
f 553 554 549
f 554 555 550
f 551 556 555
f 555 556 551
f 553 556 554
f 555 554 556
f 501 499 498
f 505 499 501
f 501 498 506
f 505 507 499
f 506 498 510
f 516 507 505
f 506 510 513
f 516 517 507
f 513 510 519
f 513 519 518
f 525 517 516
f 518 519 527
f 518 527 524
f 525 526 517
f 524 527 533
f 534 526 525
f 524 533 532
f 534 535 526
f 538 532 533
f 540 535 534
f 532 538 543
f 540 541 535
f 546 541 540
f 546 544 541
f 550 544 546
f 550 549 544
f 554 549 550
f 549 554 553
f 557 558 559
f 558 557 560
f 559 558 557
f 560 557 558
f 558 561 559
f 559 561 558
f 561 557 559
f 559 557 561
f 562 560 557
f 557 560 562
f 563 558 560
f 560 558 563
f 561 558 564
f 564 558 561
f 557 561 562
f 562 561 557
f 560 562 563
f 563 562 560
f 558 563 564
f 564 563 558
f 563 561 564
f 564 561 563
f 561 563 562
f 562 563 561

