# https://github.com/mikedh/trimesh
v 0.22371135 0.27465765 0.45215552
v -0.18993835 0.17474764 0.07928627
v -0.22371135 0.27465765 0.45215552
v 0.18993901 0.17474764 0.07928627
v 0.18038261 0.14647641 -0.02622155
v 0.21242825 0.14575086 -0.02892968
v 0.19640576 0.14195080 -0.02646033
v 0.16865287 0.15811537 -0.02827781
v 0.24406803 0.28295175 0.49976122
v 0.22804489 0.28747736 0.50000000
v 0.21631514 0.29911632 0.49794374
v 0.22415799 0.15685899 -0.03296852
v 0.26009118 0.28675181 0.49729187
v 0.16435946 0.17374911 -0.03207787
v 0.22845140 0.17229802 -0.03749413
v 0.27182093 0.29785928 0.49325303
v 0.21202174 0.31474940 0.49414368
v 0.27611433 0.31329831 0.48872742
v 0.16865287 0.18918814 -0.03660348
v 0.27182093 0.32893205 0.48492736
v 0.21631514 0.33018843 0.48961807
v 0.22415799 0.18793110 -0.04129419
v 0.22804489 0.34129656 0.48557923
v 0.21242825 0.19957007 -0.04335045
v 0.26009118 0.34057102 0.48287110
v 0.18038261 0.20029561 -0.04064232
v 0.24406803 0.34509662 0.48310988
v 0.19640576 0.20409567 -0.04311167
v -0.21242825 0.14575086 -0.02892968
v -0.18038261 0.14647641 -0.02622155
v -0.19640510 0.14195080 -0.02646033
v -0.22415799 0.15685899 -0.03296852
v -0.24406803 0.28295175 0.49976122
v -0.26009118 0.28675181 0.49729187
v -0.27182093 0.29785928 0.49325303
v -0.16865287 0.15811537 -0.02827781
v -0.22804489 0.28747736 0.50000000
v -0.22845140 0.17229802 -0.03749413
v -0.16435946 0.17374911 -0.03207787
v -0.21631514 0.29911632 0.49794374
v -0.27611367 0.31329831 0.48872742
v -0.21202174 0.31474940 0.49414368
v -0.27182093 0.32893205 0.48492736
v -0.22415799 0.18793110 -0.04129419
v -0.16865287 0.18918814 -0.03660348
v -0.21631514 0.33018843 0.48961807
v -0.26009118 0.34057102 0.48287110
v -0.22804489 0.34129656 0.48557923
v -0.18038261 0.20029561 -0.04064232
v -0.21242825 0.19957007 -0.04335045
v -0.24406803 0.34509662 0.48310988
v -0.19640510 0.20409567 -0.04311167
v 0.20467749 0.16642131 0.04821350
v 0.20467749 0.17474764 0.07928627
v 0.20467749 0.16642131 0.06486550
v 0.20467749 0.17474764 0.03379274
v -0.20467683 0.16642131 0.06486550
v -0.20467683 0.16642131 0.04821350
v -0.20467683 0.17474764 0.03379274
v 0.20467749 0.18916841 0.08761194
v -0.20467683 0.17474764 0.07928627
v 0.20467749 0.18916841 0.02546707
v 0.20467749 0.20581975 0.08761194
v -0.20467683 0.18916841 0.08761194
v -0.20467683 0.18916841 0.02546707
v -0.20467683 0.20581975 0.08761194
v 0.20467749 0.20581975 0.02546707
v -0.20467683 0.22024051 0.07928627
v -0.20467683 0.20581975 0.02546707
v 0.20467749 0.22024051 0.07928627
v -0.20467683 0.22024051 0.03379274
v 0.20467749 0.22856619 0.06486550
v -0.20467683 0.22856619 0.06486550
v 0.20467749 0.22024051 0.03379274
v -0.20467683 0.22856619 0.04821350
v 0.20467749 0.22856619 0.04821350
v 0.24126453 0.27465765 0.45215552
v 0.24126453 0.28298332 0.48322763
v 0.24126453 0.27465765 0.46880752
v 0.24126453 0.28298332 0.43773475
v -0.24126387 0.27465765 0.46880752
v -0.24126387 0.27465765 0.45215552
v -0.24126387 0.28298332 0.43773475
v 0.24126453 0.29740409 0.49155395
v -0.24126387 0.28298332 0.48322763
v 0.24126453 0.29740409 0.42940908
v 0.24126453 0.31405543 0.49155395
v -0.24126387 0.29740409 0.49155395
v -0.24126387 0.29740409 0.42940908
v -0.24126387 0.31405543 0.49155395
v 0.24126453 0.31405543 0.42940908
v -0.24126387 0.32847620 0.48322763
v -0.24126387 0.31405543 0.42940908
v 0.24126453 0.32847620 0.48322763
v -0.24126387 0.32847620 0.43773475
v 0.24126453 0.33680253 0.46880752
v -0.24126387 0.33680253 0.46880752
v 0.24126453 0.32847620 0.43773475
v -0.24126387 0.33680253 0.45215552
v 0.24126453 0.33680253 0.45215552
v 0.18993901 0.10887045 0.01038719
v -0.22371135 -0.27715200 0.01038719
v -0.18993835 0.10887045 0.01038719
v 0.22371135 -0.27715200 0.01038719
v 0.24513826 -0.15296815 -0.05395011
v 0.21309196 -0.15577166 -0.05395011
v 0.22911511 -0.15436991 -0.04964025
v 0.25686800 -0.15194200 -0.06572458
v 0.24406803 -0.32528262 -0.04964025
v 0.26009118 -0.32388087 -0.05395011
v 0.27182093 -0.32285471 -0.06572458
v 0.20136222 -0.15679782 -0.06572458
v 0.22804489 -0.32668437 -0.05395011
v 0.26116141 -0.15156640 -0.08180890
v 0.19706881 -0.15717342 -0.08180890
v 0.21631514 -0.32771053 -0.06572458
v 0.27611433 -0.32247911 -0.08180890
v 0.21202174 -0.32808613 -0.08180890
v 0.27182093 -0.32285471 -0.09789322
v 0.25686800 -0.15194200 -0.09789322
v 0.21631514 -0.32771053 -0.09789322
v 0.20136222 -0.15679782 -0.09789322
v 0.24513826 -0.15296815 -0.10966770
v 0.22804489 -0.32668437 -0.10966770
v 0.21309196 -0.15577166 -0.10966770
v 0.26009118 -0.32388087 -0.10966770
v 0.24406803 -0.32528262 -0.11397755
v 0.22911511 -0.15436991 -0.11397755
v -0.21309196 -0.15577166 -0.05395011
v -0.24513826 -0.15296815 -0.05395011
v -0.22911511 -0.15436991 -0.04964025
v -0.20136222 -0.15679782 -0.06572458
v -0.24406803 -0.32528262 -0.04964025
v -0.21631514 -0.32771053 -0.06572458
v -0.25686735 -0.15194200 -0.06572458
v -0.26009118 -0.32388087 -0.05395011
v -0.22804489 -0.32668437 -0.05395011
v -0.19706881 -0.15717342 -0.08180890
v -0.26116075 -0.15156640 -0.08180890
v -0.27182093 -0.32285471 -0.06572458
v -0.21202174 -0.32808613 -0.08180890
v -0.27611367 -0.32247911 -0.08180890
v -0.20136222 -0.15679782 -0.09789322
v -0.25686735 -0.15194200 -0.09789322
v -0.27182093 -0.32285471 -0.09789322
v -0.21631514 -0.32771053 -0.09789322
v -0.21309196 -0.15577166 -0.10966770
v -0.24513826 -0.15296815 -0.10966770
v -0.26009118 -0.32388087 -0.10966770
v -0.22804489 -0.32668437 -0.10966770
v -0.24406803 -0.32528262 -0.11397755
v -0.22911511 -0.15436991 -0.11397755
v 0.21242825 0.22090357 0.01038719
v 0.18038261 0.21810006 0.01038719
v 0.19640576 0.21950181 0.01469704
v 0.22415799 0.22192972 -0.00138728
v 0.24406803 -0.32528262 0.01469704
v 0.26009118 -0.32388087 0.01038719
v 0.27182093 -0.32285471 -0.00138728
v 0.16865287 0.21707391 -0.00138728
v 0.22804489 -0.32668437 0.01038719
v 0.22845140 0.22230532 -0.01747161
v 0.16435946 0.21669831 -0.01747161
v 0.21631514 -0.32771053 -0.00138728
v 0.27611433 -0.32247911 -0.01747161
v 0.21202174 -0.32808613 -0.01747161
v 0.27182093 -0.32285471 -0.03355593
v 0.22415799 0.22192972 -0.03355593
v 0.16865287 0.21707391 -0.03355593
v 0.21631514 -0.32771053 -0.03355593
v 0.26009118 -0.32388087 -0.04533040
v 0.22804489 -0.32668437 -0.04533040
v 0.18038261 0.21810006 -0.04533040
v 0.21242825 0.22090357 -0.04533040
v 0.19640576 0.21950181 -0.04964025
v -0.18038261 0.21810006 0.01038719
v -0.21242825 0.22090357 0.01038719
v -0.19640510 0.21950181 0.01469704
v -0.16865287 0.21707391 -0.00138728
v -0.24406803 -0.32528262 0.01469704
v -0.22804489 -0.32668437 0.01038719
v -0.21631514 -0.32771053 -0.00138728
v -0.22415799 0.22192972 -0.00138728
v -0.26009118 -0.32388087 0.01038719
v -0.16435946 0.21669831 -0.01747161
v -0.22845140 0.22230532 -0.01747161
v -0.27182093 -0.32285471 -0.00138728
v -0.21202174 -0.32808613 -0.01747161
v -0.27611367 -0.32247911 -0.01747161
v -0.16865287 0.21707391 -0.03355593
v -0.27182093 -0.32285471 -0.03355593
v -0.21631514 -0.32771053 -0.03355593
v -0.22415799 0.22192972 -0.03355593
v -0.22804489 -0.32668437 -0.04533040
v -0.21242825 0.22090357 -0.04533040
v -0.26009118 -0.32388087 -0.04533040
v -0.18038261 0.21810006 -0.04533040
v -0.19640510 0.21950181 -0.04964025
v -0.20467683 0.14103910 0.01038719
v -0.20467683 0.10887045 0.01038719
v -0.20467683 0.12495478 0.01469704
v -0.20467683 0.15281357 -0.00138728
v 0.20467749 0.12495478 0.01469704
v 0.20467749 0.14103910 0.01038719
v 0.20467749 0.15281357 -0.00138728
v -0.20467683 0.09709598 -0.00138728
v 0.20467749 0.10887045 0.01038719
v -0.20467683 0.15712342 -0.01747161
v -0.20467683 0.09278613 -0.01747161
v 0.20467749 0.09709598 -0.00138728
v 0.20467749 0.15712342 -0.01747161
v 0.20467749 0.09278613 -0.01747161
v -0.20467683 0.15281357 -0.03355593
v 0.20467749 0.09709598 -0.03355593
v 0.20467749 0.15281357 -0.03355593
v -0.20467683 0.09709598 -0.03355593
v 0.20467749 0.14103910 -0.04533040
v -0.20467683 0.10887045 -0.04533040
v 0.20467749 0.10887045 -0.04533040
v -0.20467683 0.14103910 -0.04533040
v 0.20467749 0.12495478 -0.04964025
v -0.20467683 0.12495478 -0.04964025
v -0.24126387 -0.27715200 0.01038719
v -0.24126387 -0.30932065 0.01038719
v -0.24126387 -0.29323632 0.01469704
v -0.24126387 -0.26537753 -0.00138728
v 0.24126453 -0.29323632 0.01469704
v 0.24126453 -0.27715200 0.01038719
v 0.24126453 -0.26537753 -0.00138728
v -0.24126387 -0.32109512 -0.00138728
v 0.24126453 -0.30932065 0.01038719
v -0.24126387 -0.26106833 -0.01747161
v -0.24126387 -0.32540497 -0.01747161
v 0.24126453 -0.32109512 -0.00138728
v 0.24126453 -0.26106833 -0.01747161
v 0.24126453 -0.32540497 -0.01747161
v -0.24126387 -0.26537753 -0.03355593
v 0.24126453 -0.32109512 -0.03355593
v 0.24126453 -0.26537753 -0.03355593
v -0.24126387 -0.32109512 -0.03355593
v 0.24126453 -0.27715200 -0.04533040
v -0.24126387 -0.30932065 -0.04533040
v 0.24126453 -0.30932065 -0.04533040
v -0.24126387 -0.27715200 -0.04533040
v 0.24126453 -0.29323632 -0.04964025
v -0.24126387 -0.29323632 -0.04964025
v 0.21608689 -0.33372340 -0.46588034
v 0.21177704 0.28422589 0.12932251
v 0.21177704 -0.32235018 -0.47725356
v 0.21608689 0.27285267 0.14069573
v 0.21608689 -0.31097697 -0.48862678
v 0.27180448 -0.33372340 -0.46588034
v 0.22786136 0.26452700 0.14902206
v 0.27611433 0.28422589 0.12932251
v 0.21608689 0.29559911 0.11794929
v 0.27611433 -0.32235018 -0.47725356
v 0.26003001 -0.34204973 -0.45755467
v 0.22786136 -0.34204973 -0.45755467
v 0.27180448 0.27285267 0.14069573
v 0.27180448 0.29559911 0.11794929
v 0.22786136 -0.30265130 -0.49695245
v 0.27180448 -0.31097697 -0.48862678
v 0.24394568 -0.34509662 -0.45450712
v 0.26003001 0.26452700 0.14902206
v 0.26003001 0.30392478 0.10962362
v 0.22786136 0.30392478 0.10962362
v 0.24394568 0.26147945 0.15206895
v 0.24394568 0.30697233 0.10657608
v 0.26003001 -0.30265130 -0.49695245
v 0.24394568 -0.29960375 -0.50000000
v 0.28042418 -0.33372340 -0.03369472
v 0.27611433 0.13258187 -0.47725356
v 0.28042418 0.12120865 -0.48862678
v 0.27611433 -0.32235018 -0.02232150
v 0.33614178 0.12120865 -0.48862678
v 0.29219866 -0.34204973 -0.04202039
v 0.34045097 -0.32235018 -0.02232150
v 0.28042418 0.14395509 -0.46588034
v 0.34045097 0.13258187 -0.47725356
v 0.32436665 0.11288298 -0.49695245
v 0.29219866 0.11288298 -0.49695245
v 0.33614178 -0.33372340 -0.03369472
v 0.33614178 -0.31097697 -0.01094829
v 0.28042418 -0.31097697 -0.01094829
v 0.30828298 0.10983543 -0.50000000
v 0.32436665 -0.34204973 -0.04202039
v 0.29219866 0.15228076 -0.45755467
v 0.33614178 0.14395509 -0.46588034
v 0.30828298 -0.34509662 -0.04506794
v 0.32436665 -0.30265130 -0.00262196
v 0.29219866 -0.30265130 -0.00262196
v 0.30828298 -0.29960375 0.00042493
v 0.32436665 0.15228076 -0.45755467
v 0.30828298 0.15532831 -0.45450712
v -0.33614112 -0.33372340 -0.03369472
v -0.34045097 0.13258187 -0.47725356
v -0.33614112 0.12120865 -0.48862678
v -0.34045097 -0.32235018 -0.02232150
v -0.28042353 0.12120865 -0.48862678
v -0.32436665 -0.34204973 -0.04202039
v -0.27611367 -0.32235018 -0.02232150
v -0.33614112 0.14395509 -0.46588034
v -0.27611367 0.13258187 -0.47725356
v -0.29219800 0.11288298 -0.49695245
v -0.32436665 0.11288298 -0.49695245
v -0.28042353 -0.33372340 -0.03369472
v -0.28042353 -0.31097697 -0.01094829
v -0.33614112 -0.31097697 -0.01094829
v -0.30828232 0.10983543 -0.50000000
v -0.29219800 -0.34204973 -0.04202039
v -0.32436665 0.15228076 -0.45755467
v -0.28042353 0.14395509 -0.46588034
v -0.30828232 -0.34509662 -0.04506794
v -0.29219800 -0.30265130 -0.00262196
v -0.32436665 -0.30265130 -0.00262196
v -0.30828232 -0.29960375 0.00042493
v -0.29219800 0.15228076 -0.45755467
v -0.30828232 0.15532831 -0.45450712
v -0.27180448 -0.33372340 -0.46588034
v -0.27611367 0.28422589 0.12932251
v -0.27611367 -0.32235018 -0.47725356
v -0.27180448 0.27285267 0.14069573
v -0.27180448 -0.31097697 -0.48862678
v -0.21608689 -0.33372340 -0.46588034
v -0.26003001 0.26452700 0.14902206
v -0.21177704 0.28422589 0.12932251
v -0.27180448 0.29559911 0.11794929
v -0.21177704 -0.32235018 -0.47725356
v -0.22786136 -0.34204973 -0.45755467
v -0.26003001 -0.34204973 -0.45755467
v -0.21608689 0.27285267 0.14069573
v -0.21608689 0.29559911 0.11794929
v -0.26003001 -0.30265130 -0.49695245
v -0.21608689 -0.31097697 -0.48862678
v -0.24394568 -0.34509662 -0.45450712
v -0.22786136 0.26452700 0.14902206
v -0.22786136 0.30392478 0.10962362
v -0.26003001 0.30392478 0.10962362
v -0.24394568 0.26147945 0.15206895
v -0.24394568 0.30697233 0.10657608
v -0.22786136 -0.30265130 -0.49695245
v -0.24394568 -0.29960375 -0.50000000
v 0.30828298 0.00812636 -0.38209280
v -0.30828232 0.01884902 -0.38496604
v 0.30828298 0.01884902 -0.38496604
v -0.30828232 0.00812636 -0.38209280
v -0.30828232 0.02957169 -0.38209280
v 0.30828298 0.02957169 -0.38209280
v -0.30828232 0.00027627 -0.37424338
v 0.30828298 0.03742111 -0.37424338
v 0.30828298 0.00027627 -0.37424338
v -0.30828232 -0.00259696 -0.36352071
v -0.30828232 0.03742111 -0.37424338
v 0.30828298 -0.00259696 -0.36352071
v 0.30828298 0.04029435 -0.36352071
v -0.30828232 0.00027627 -0.35279739
v -0.30828232 0.04029435 -0.36352071
v 0.30828298 0.03742111 -0.35279739
v 0.30828298 0.00027627 -0.35279739
v -0.30828232 0.00812636 -0.34494796
v -0.30828232 0.03742111 -0.35279739
v 0.30828298 0.00812636 -0.34494796
v 0.30828298 0.02957169 -0.34494796
v 0.30828298 0.01884902 -0.34207473
v -0.30828232 0.02957169 -0.34494796
v -0.30828232 0.01884902 -0.34207473
v 0.24394568 -0.21934000 -0.38209280
v -0.24394568 -0.20861733 -0.38496604
v 0.24394568 -0.20861733 -0.38496604
v -0.24394568 -0.21934000 -0.38209280
v -0.24394568 -0.19789467 -0.38209280
v 0.24394568 -0.19789467 -0.38209280
v -0.24394568 -0.22718943 -0.37424338
v 0.24394568 -0.19004459 -0.37424338
v 0.24394568 -0.22718943 -0.37424338
v -0.24394568 -0.23006266 -0.36352071
v -0.24394568 -0.19004459 -0.37424338
v 0.24394568 -0.23006266 -0.36352071
v 0.24394568 -0.18717135 -0.36352071
v -0.24394568 -0.22718943 -0.35279739
v -0.24394568 -0.18717135 -0.36352071
v 0.24394568 -0.19004459 -0.35279739
v 0.24394568 -0.22718943 -0.35279739
v -0.24394568 -0.21934000 -0.34494796
v -0.24394568 -0.19004459 -0.35279739
v 0.24394568 -0.21934000 -0.34494796
v 0.24394568 -0.19789467 -0.34494796
v 0.24394568 -0.20861733 -0.34207473
v -0.24394568 -0.19789467 -0.34494796
v -0.24394568 -0.20861733 -0.34207473
f 1 2 3
f 2 1 4
f 3 2 1
f 4 1 2
f 5 6 7
f 6 5 8
f 6 9 7
f 7 10 5
f 5 11 8
f 6 8 12
f 9 6 13
f 10 7 9
f 11 5 10
f 11 14 8
f 12 8 15
f 12 13 6
f 13 10 9
f 10 16 11
f 14 11 17
f 15 8 14
f 18 12 15
f 13 12 16
f 10 13 16
f 11 16 18
f 11 18 17
f 17 19 14
f 15 14 19
f 12 18 16
f 15 20 18
f 17 18 20
f 19 17 21
f 15 19 22
f 20 15 22
f 17 20 21
f 23 19 21
f 22 19 24
f 24 20 22
f 21 20 25
f 19 23 26
f 21 25 23
f 24 19 26
f 20 24 25
f 27 26 23
f 23 25 27
f 24 26 28
f 28 25 24
f 26 27 28
f 25 28 27
f 7 6 5
f 8 5 6
f 7 9 6
f 5 10 7
f 8 11 5
f 12 8 6
f 13 6 9
f 9 7 10
f 10 5 11
f 8 14 11
f 15 8 12
f 6 13 12
f 9 10 13
f 11 16 10
f 17 11 14
f 14 8 15
f 15 12 18
f 16 12 13
f 16 13 10
f 18 16 11
f 17 18 11
f 14 19 17
f 19 14 15
f 16 18 12
f 18 20 15
f 20 18 17
f 21 17 19
f 22 19 15
f 22 15 20
f 21 20 17
f 21 19 23
f 24 19 22
f 22 20 24
f 25 20 21
f 26 23 19
f 23 25 21
f 26 19 24
f 25 24 20
f 23 26 27
f 27 25 23
f 28 26 24
f 24 25 28
f 28 27 26
f 27 28 25
f 29 30 31
f 30 29 32
f 30 33 31
f 31 34 29
f 29 35 32
f 30 32 36
f 33 30 37
f 34 31 33
f 35 29 34
f 35 38 32
f 36 32 39
f 36 37 30
f 37 34 33
f 34 40 35
f 38 35 41
f 39 32 38
f 42 36 39
f 37 36 40
f 34 37 40
f 35 40 42
f 35 42 41
f 43 38 41
f 39 38 44
f 36 42 40
f 45 42 39
f 41 42 46
f 38 43 44
f 41 46 43
f 39 44 45
f 42 45 46
f 47 44 43
f 43 46 48
f 45 44 49
f 49 46 45
f 44 47 50
f 43 48 47
f 46 49 48
f 49 44 50
f 51 50 47
f 47 48 51
f 52 48 49
f 49 50 52
f 50 51 52
f 48 52 51
f 31 30 29
f 32 29 30
f 31 33 30
f 29 34 31
f 32 35 29
f 36 32 30
f 37 30 33
f 33 31 34
f 34 29 35
f 32 38 35
f 39 32 36
f 30 37 36
f 33 34 37
f 35 40 34
f 41 35 38
f 38 32 39
f 39 36 42
f 40 36 37
f 40 37 34
f 42 40 35
f 41 42 35
f 41 38 43
f 44 38 39
f 40 42 36
f 39 42 45
f 46 42 41
f 44 43 38
f 43 46 41
f 45 44 39
f 46 45 42
f 43 44 47
f 48 46 43
f 49 44 45
f 45 46 49
f 50 47 44
f 47 48 43
f 48 49 46
f 50 44 49
f 47 50 51
f 51 48 47
f 49 48 52
f 52 50 49
f 52 51 50
f 51 52 48
f 53 54 55
f 54 53 56
f 54 57 55
f 55 58 53
f 53 59 56
f 54 56 60
f 57 54 61
f 58 55 57
f 59 53 58
f 59 62 56
f 60 56 63
f 60 61 54
f 61 58 57
f 58 64 59
f 62 59 65
f 63 56 62
f 66 60 63
f 61 60 64
f 58 61 64
f 59 64 66
f 59 66 65
f 65 67 62
f 63 62 67
f 60 66 64
f 63 68 66
f 65 66 68
f 67 65 69
f 63 67 70
f 68 63 70
f 65 68 69
f 71 67 69
f 70 67 72
f 72 68 70
f 69 68 73
f 67 71 74
f 69 73 71
f 72 67 74
f 68 72 73
f 75 74 71
f 71 73 75
f 72 74 76
f 76 73 72
f 74 75 76
f 73 76 75
f 55 54 53
f 56 53 54
f 55 57 54
f 53 58 55
f 56 59 53
f 60 56 54
f 61 54 57
f 57 55 58
f 58 53 59
f 56 62 59
f 63 56 60
f 54 61 60
f 57 58 61
f 59 64 58
f 65 59 62
f 62 56 63
f 63 60 66
f 64 60 61
f 64 61 58
f 66 64 59
f 65 66 59
f 62 67 65
f 67 62 63
f 64 66 60
f 66 68 63
f 68 66 65
f 69 65 67
f 70 67 63
f 70 63 68
f 69 68 65
f 69 67 71
f 72 67 70
f 70 68 72
f 73 68 69
f 74 71 67
f 71 73 69
f 74 67 72
f 73 72 68
f 71 74 75
f 75 73 71
f 76 74 72
f 72 73 76
f 76 75 74
f 75 76 73
f 77 78 79
f 78 77 80
f 78 81 79
f 79 82 77
f 77 83 80
f 78 80 84
f 81 78 85
f 82 79 81
f 83 77 82
f 83 86 80
f 84 80 87
f 84 85 78
f 85 82 81
f 82 88 83
f 86 83 89
f 87 80 86
f 90 84 87
f 85 84 88
f 82 85 88
f 83 88 90
f 83 90 89
f 89 91 86
f 87 86 91
f 84 90 88
f 87 92 90
f 89 90 92
f 91 89 93
f 87 91 94
f 92 87 94
f 89 92 93
f 95 91 93
f 94 91 96
f 96 92 94
f 93 92 97
f 91 95 98
f 93 97 95
f 96 91 98
f 92 96 97
f 99 98 95
f 95 97 99
f 96 98 100
f 100 97 96
f 98 99 100
f 97 100 99
f 79 78 77
f 80 77 78
f 79 81 78
f 77 82 79
f 80 83 77
f 84 80 78
f 85 78 81
f 81 79 82
f 82 77 83
f 80 86 83
f 87 80 84
f 78 85 84
f 81 82 85
f 83 88 82
f 89 83 86
f 86 80 87
f 87 84 90
f 88 84 85
f 88 85 82
f 90 88 83
f 89 90 83
f 86 91 89
f 91 86 87
f 88 90 84
f 90 92 87
f 92 90 89
f 93 89 91
f 94 91 87
f 94 87 92
f 93 92 89
f 93 91 95
f 96 91 94
f 94 92 96
f 97 92 93
f 98 95 91
f 95 97 93
f 98 91 96
f 97 96 92
f 95 98 99
f 99 97 95
f 100 98 96
f 96 97 100
f 100 99 98
f 99 100 97
f 101 102 103
f 102 101 104
f 103 102 101
f 104 101 102
f 105 106 107
f 106 105 108
f 106 109 107
f 107 110 105
f 105 111 108
f 106 108 112
f 109 106 113
f 110 107 109
f 111 105 110
f 111 114 108
f 112 108 115
f 112 113 106
f 113 110 109
f 110 116 111
f 114 111 117
f 115 108 114
f 118 112 115
f 113 112 116
f 110 113 116
f 111 116 118
f 111 118 117
f 119 114 117
f 115 114 120
f 112 118 116
f 115 121 118
f 117 118 121
f 114 119 120
f 117 121 119
f 115 120 122
f 121 115 122
f 119 123 120
f 119 121 124
f 122 120 125
f 125 121 122
f 123 119 126
f 125 120 123
f 121 125 124
f 119 124 126
f 127 123 126
f 125 123 128
f 128 124 125
f 126 124 127
f 123 127 128
f 124 128 127
f 107 106 105
f 108 105 106
f 107 109 106
f 105 110 107
f 108 111 105
f 112 108 106
f 113 106 109
f 109 107 110
f 110 105 111
f 108 114 111
f 115 108 112
f 106 113 112
f 109 110 113
f 111 116 110
f 117 111 114
f 114 108 115
f 115 112 118
f 116 112 113
f 116 113 110
f 118 116 111
f 117 118 111
f 117 114 119
f 120 114 115
f 116 118 112
f 118 121 115
f 121 118 117
f 120 119 114
f 119 121 117
f 122 120 115
f 122 115 121
f 120 123 119
f 124 121 119
f 125 120 122
f 122 121 125
f 126 119 123
f 123 120 125
f 124 125 121
f 126 124 119
f 126 123 127
f 128 123 125
f 125 124 128
f 127 124 126
f 128 127 123
f 127 128 124
f 129 130 131
f 130 129 132
f 130 133 131
f 133 129 131
f 129 134 132
f 130 132 135
f 133 130 136
f 129 133 137
f 134 129 137
f 134 138 132
f 135 132 139
f 135 136 130
f 136 137 133
f 137 140 134
f 138 134 141
f 139 132 138
f 142 135 139
f 136 135 140
f 137 136 140
f 134 140 142
f 134 142 141
f 141 143 138
f 139 138 143
f 135 142 140
f 144 142 139
f 141 142 145
f 143 141 146
f 139 143 144
f 142 144 145
f 141 145 146
f 146 147 143
f 144 143 148
f 144 149 145
f 146 145 149
f 147 146 150
f 148 143 147
f 149 144 148
f 146 149 150
f 151 147 150
f 148 147 152
f 152 149 148
f 150 149 151
f 147 151 152
f 149 152 151
f 131 130 129
f 132 129 130
f 131 133 130
f 131 129 133
f 132 134 129
f 135 132 130
f 136 130 133
f 137 133 129
f 137 129 134
f 132 138 134
f 139 132 135
f 130 136 135
f 133 137 136
f 134 140 137
f 141 134 138
f 138 132 139
f 139 135 142
f 140 135 136
f 140 136 137
f 142 140 134
f 141 142 134
f 138 143 141
f 143 138 139
f 140 142 135
f 139 142 144
f 145 142 141
f 146 141 143
f 144 143 139
f 145 144 142
f 146 145 141
f 143 147 146
f 148 143 144
f 145 149 144
f 149 145 146
f 150 146 147
f 147 143 148
f 148 144 149
f 150 149 146
f 150 147 151
f 152 147 148
f 148 149 152
f 151 149 150
f 152 151 147
f 151 152 149
f 153 154 155
f 154 153 156
f 154 157 155
f 155 158 153
f 153 159 156
f 154 156 160
f 157 154 161
f 158 155 157
f 159 153 158
f 159 162 156
f 160 156 163
f 160 161 154
f 161 158 157
f 158 164 159
f 162 159 165
f 163 156 162
f 166 160 163
f 161 160 164
f 158 161 164
f 159 164 166
f 159 166 165
f 167 162 165
f 163 162 168
f 160 166 164
f 169 166 163
f 165 166 170
f 162 167 168
f 165 170 167
f 163 168 169
f 166 169 170
f 171 168 167
f 167 170 172
f 169 168 173
f 173 170 169
f 168 171 174
f 167 172 171
f 170 173 172
f 173 168 174
f 109 174 171
f 171 172 109
f 175 172 173
f 173 174 175
f 174 109 175
f 172 175 109
f 155 154 153
f 156 153 154
f 155 157 154
f 153 158 155
f 156 159 153
f 160 156 154
f 161 154 157
f 157 155 158
f 158 153 159
f 156 162 159
f 163 156 160
f 154 161 160
f 157 158 161
f 159 164 158
f 165 159 162
f 162 156 163
f 163 160 166
f 164 160 161
f 164 161 158
f 166 164 159
f 165 166 159
f 165 162 167
f 168 162 163
f 164 166 160
f 163 166 169
f 170 166 165
f 168 167 162
f 167 170 165
f 169 168 163
f 170 169 166
f 167 168 171
f 172 170 167
f 173 168 169
f 169 170 173
f 174 171 168
f 171 172 167
f 172 173 170
f 174 168 173
f 171 174 109
f 109 172 171
f 173 172 175
f 175 174 173
f 175 109 174
f 109 175 172
f 176 177 178
f 177 176 179
f 177 180 178
f 178 181 176
f 176 182 179
f 177 179 183
f 180 177 184
f 181 178 180
f 182 176 181
f 182 185 179
f 183 179 186
f 183 184 177
f 184 181 180
f 181 187 182
f 185 182 188
f 186 179 185
f 189 183 186
f 184 183 187
f 181 184 187
f 182 187 189
f 182 189 188
f 188 190 185
f 186 185 190
f 183 189 187
f 186 191 189
f 188 189 191
f 190 188 192
f 186 190 193
f 191 186 193
f 188 191 192
f 194 190 192
f 193 190 195
f 195 191 193
f 192 191 196
f 190 194 197
f 192 196 194
f 195 190 197
f 191 195 196
f 133 197 194
f 194 196 133
f 195 197 198
f 198 196 195
f 197 133 198
f 196 198 133
f 178 177 176
f 179 176 177
f 178 180 177
f 176 181 178
f 179 182 176
f 183 179 177
f 184 177 180
f 180 178 181
f 181 176 182
f 179 185 182
f 186 179 183
f 177 184 183
f 180 181 184
f 182 187 181
f 188 182 185
f 185 179 186
f 186 183 189
f 187 183 184
f 187 184 181
f 189 187 182
f 188 189 182
f 185 190 188
f 190 185 186
f 187 189 183
f 189 191 186
f 191 189 188
f 192 188 190
f 193 190 186
f 193 186 191
f 192 191 188
f 192 190 194
f 195 190 193
f 193 191 195
f 196 191 192
f 197 194 190
f 194 196 192
f 197 190 195
f 196 195 191
f 194 197 133
f 133 196 194
f 198 197 195
f 195 196 198
f 198 133 197
f 133 198 196
f 199 200 201
f 200 199 202
f 200 203 201
f 201 204 199
f 199 205 202
f 200 202 206
f 203 200 207
f 204 201 203
f 205 199 204
f 205 208 202
f 206 202 209
f 206 207 200
f 207 204 203
f 204 210 205
f 208 205 211
f 209 202 208
f 212 206 209
f 207 206 210
f 204 207 210
f 205 210 212
f 205 212 211
f 211 213 208
f 209 208 213
f 206 212 210
f 209 214 212
f 211 212 214
f 213 211 215
f 209 213 216
f 214 209 216
f 211 214 215
f 217 213 215
f 216 213 218
f 218 214 216
f 215 214 219
f 213 217 220
f 215 219 217
f 218 213 220
f 214 218 219
f 221 220 217
f 217 219 221
f 218 220 222
f 222 219 218
f 220 221 222
f 219 222 221
f 201 200 199
f 202 199 200
f 201 203 200
f 199 204 201
f 202 205 199
f 206 202 200
f 207 200 203
f 203 201 204
f 204 199 205
f 202 208 205
f 209 202 206
f 200 207 206
f 203 204 207
f 205 210 204
f 211 205 208
f 208 202 209
f 209 206 212
f 210 206 207
f 210 207 204
f 212 210 205
f 211 212 205
f 208 213 211
f 213 208 209
f 210 212 206
f 212 214 209
f 214 212 211
f 215 211 213
f 216 213 209
f 216 209 214
f 215 214 211
f 215 213 217
f 218 213 216
f 216 214 218
f 219 214 215
f 220 217 213
f 217 219 215
f 220 213 218
f 219 218 214
f 217 220 221
f 221 219 217
f 222 220 218
f 218 219 222
f 222 221 220
f 221 222 219
f 223 224 225
f 224 223 226
f 224 227 225
f 225 228 223
f 223 229 226
f 224 226 230
f 227 224 231
f 228 225 227
f 229 223 228
f 229 232 226
f 230 226 233
f 230 231 224
f 231 228 227
f 228 234 229
f 232 229 235
f 233 226 232
f 236 230 233
f 231 230 234
f 228 231 234
f 229 234 236
f 229 236 235
f 235 237 232
f 233 232 237
f 230 236 234
f 233 238 236
f 235 236 238
f 237 235 239
f 233 237 240
f 238 233 240
f 235 238 239
f 241 237 239
f 240 237 242
f 242 238 240
f 239 238 243
f 237 241 244
f 239 243 241
f 242 237 244
f 238 242 243
f 245 244 241
f 241 243 245
f 242 244 246
f 246 243 242
f 244 245 246
f 243 246 245
f 225 224 223
f 226 223 224
f 225 227 224
f 223 228 225
f 226 229 223
f 230 226 224
f 231 224 227
f 227 225 228
f 228 223 229
f 226 232 229
f 233 226 230
f 224 231 230
f 227 228 231
f 229 234 228
f 235 229 232
f 232 226 233
f 233 230 236
f 234 230 231
f 234 231 228
f 236 234 229
f 235 236 229
f 232 237 235
f 237 232 233
f 234 236 230
f 236 238 233
f 238 236 235
f 239 235 237
f 240 237 233
f 240 233 238
f 239 238 235
f 239 237 241
f 242 237 240
f 240 238 242
f 243 238 239
f 244 241 237
f 241 243 239
f 244 237 242
f 243 242 238
f 241 244 245
f 245 243 241
f 246 244 242
f 242 243 246
f 246 245 244
f 245 246 243
f 247 248 249
f 248 247 250
f 248 251 249
f 249 252 247
f 247 253 250
f 254 248 250
f 251 248 255
f 251 256 249
f 249 256 252
f 247 252 257
f 253 247 258
f 259 250 253
f 260 248 254
f 254 250 259
f 260 255 248
f 255 261 251
f 251 262 256
f 254 252 256
f 259 257 252
f 247 257 258
f 263 253 258
f 259 253 264
f 254 262 260
f 252 254 259
f 265 255 260
f 261 255 266
f 261 262 251
f 262 254 256
f 257 259 264
f 258 257 263
f 253 263 267
f 264 253 267
f 262 265 260
f 265 266 255
f 268 261 266
f 261 269 262
f 267 257 264
f 257 267 263
f 265 262 269
f 266 265 268
f 261 268 270
f 269 261 270
f 270 265 269
f 265 270 268
f 249 248 247
f 250 247 248
f 249 251 248
f 247 252 249
f 250 253 247
f 250 248 254
f 255 248 251
f 249 256 251
f 252 256 249
f 257 252 247
f 258 247 253
f 253 250 259
f 254 248 260
f 259 250 254
f 248 255 260
f 251 261 255
f 256 262 251
f 256 252 254
f 252 257 259
f 258 257 247
f 258 253 263
f 264 253 259
f 260 262 254
f 259 254 252
f 260 255 265
f 266 255 261
f 251 262 261
f 256 254 262
f 264 259 257
f 263 257 258
f 267 263 253
f 267 253 264
f 260 265 262
f 255 266 265
f 266 261 268
f 262 269 261
f 264 257 267
f 263 267 257
f 269 262 265
f 268 265 266
f 270 268 261
f 270 261 269
f 269 265 270
f 268 270 265
f 271 272 273
f 272 271 274
f 272 275 273
f 273 276 271
f 277 274 271
f 274 278 272
f 272 279 275
f 273 275 280
f 276 273 281
f 282 271 276
f 283 274 277
f 277 271 282
f 278 274 284
f 278 279 272
f 277 275 279
f 282 280 275
f 273 280 281
f 285 276 281
f 282 276 286
f 283 284 274
f 279 283 277
f 275 277 282
f 284 287 278
f 278 288 279
f 280 282 286
f 281 280 285
f 276 285 289
f 286 276 289
f 290 284 283
f 283 279 288
f 287 284 291
f 287 288 278
f 289 280 286
f 280 289 285
f 290 291 284
f 288 290 283
f 292 287 291
f 287 293 288
f 291 290 292
f 290 288 293
f 287 292 294
f 293 287 294
f 290 294 292
f 294 290 293
f 273 272 271
f 274 271 272
f 273 275 272
f 271 276 273
f 271 274 277
f 272 278 274
f 275 279 272
f 280 275 273
f 281 273 276
f 276 271 282
f 277 274 283
f 282 271 277
f 284 274 278
f 272 279 278
f 279 275 277
f 275 280 282
f 281 280 273
f 281 276 285
f 286 276 282
f 274 284 283
f 277 283 279
f 282 277 275
f 278 287 284
f 279 288 278
f 286 282 280
f 285 280 281
f 289 285 276
f 289 276 286
f 283 284 290
f 288 279 283
f 291 284 287
f 278 288 287
f 286 280 289
f 285 289 280
f 284 291 290
f 283 290 288
f 291 287 292
f 288 293 287
f 292 290 291
f 293 288 290
f 294 292 287
f 294 287 293
f 292 294 290
f 293 290 294
f 295 296 297
f 296 295 298
f 296 299 297
f 297 300 295
f 301 298 295
f 298 302 296
f 296 303 299
f 297 299 304
f 300 297 305
f 306 295 300
f 307 298 301
f 301 295 306
f 302 298 308
f 302 303 296
f 301 299 303
f 306 304 299
f 297 304 305
f 309 300 305
f 306 300 310
f 307 308 298
f 303 307 301
f 299 301 306
f 308 311 302
f 302 312 303
f 304 306 310
f 305 304 309
f 300 309 313
f 310 300 313
f 314 308 307
f 307 303 312
f 311 308 315
f 311 312 302
f 313 304 310
f 304 313 309
f 314 315 308
f 312 314 307
f 316 311 315
f 311 317 312
f 315 314 316
f 314 312 317
f 311 316 318
f 317 311 318
f 314 318 316
f 318 314 317
f 297 296 295
f 298 295 296
f 297 299 296
f 295 300 297
f 295 298 301
f 296 302 298
f 299 303 296
f 304 299 297
f 305 297 300
f 300 295 306
f 301 298 307
f 306 295 301
f 308 298 302
f 296 303 302
f 303 299 301
f 299 304 306
f 305 304 297
f 305 300 309
f 310 300 306
f 298 308 307
f 301 307 303
f 306 301 299
f 302 311 308
f 303 312 302
f 310 306 304
f 309 304 305
f 313 309 300
f 313 300 310
f 307 308 314
f 312 303 307
f 315 308 311
f 302 312 311
f 310 304 313
f 309 313 304
f 308 315 314
f 307 314 312
f 315 311 316
f 312 317 311
f 316 314 315
f 317 312 314
f 318 316 311
f 318 311 317
f 316 318 314
f 317 314 318
f 319 320 321
f 320 319 322
f 320 323 321
f 321 324 319
f 319 325 322
f 326 320 322
f 323 320 327
f 323 328 321
f 321 328 324
f 319 324 329
f 325 319 330
f 331 322 325
f 332 320 326
f 326 322 331
f 332 327 320
f 327 333 323
f 323 334 328
f 326 324 328
f 331 329 324
f 319 329 330
f 335 325 330
f 331 325 336
f 326 334 332
f 324 326 331
f 337 327 332
f 333 327 338
f 333 334 323
f 334 326 328
f 329 331 336
f 330 329 335
f 325 335 339
f 336 325 339
f 334 337 332
f 337 338 327
f 340 333 338
f 333 341 334
f 339 329 336
f 329 339 335
f 337 334 341
f 338 337 340
f 333 340 342
f 341 333 342
f 342 337 341
f 337 342 340
f 321 320 319
f 322 319 320
f 321 323 320
f 319 324 321
f 322 325 319
f 322 320 326
f 327 320 323
f 321 328 323
f 324 328 321
f 329 324 319
f 330 319 325
f 325 322 331
f 326 320 332
f 331 322 326
f 320 327 332
f 323 333 327
f 328 334 323
f 328 324 326
f 324 329 331
f 330 329 319
f 330 325 335
f 336 325 331
f 332 334 326
f 331 326 324
f 332 327 337
f 338 327 333
f 323 334 333
f 328 326 334
f 336 331 329
f 335 329 330
f 339 335 325
f 339 325 336
f 332 337 334
f 327 338 337
f 338 333 340
f 334 341 333
f 336 329 339
f 335 339 329
f 341 334 337
f 340 337 338
f 342 340 333
f 342 333 341
f 341 337 342
f 340 342 337
f 343 344 345
f 344 343 346
f 347 345 344
f 348 343 345
f 343 349 346
f 346 347 344
f 345 347 348
f 343 348 350
f 349 343 351
f 347 346 349
f 347 350 348
f 343 350 351
f 351 352 349
f 347 349 353
f 350 347 353
f 351 350 354
f 352 351 354
f 353 349 352
f 353 355 350
f 354 350 355
f 354 356 352
f 353 352 357
f 355 353 357
f 354 355 358
f 356 354 359
f 357 352 356
f 357 358 355
f 354 358 359
f 359 360 356
f 357 356 361
f 358 357 361
f 359 358 362
f 360 359 362
f 361 356 360
f 361 363 358
f 362 358 363
f 364 360 362
f 361 360 365
f 363 361 365
f 362 363 364
f 360 364 366
f 365 360 366
f 366 363 365
f 363 366 364
f 345 344 343
f 346 343 344
f 344 345 347
f 345 343 348
f 346 349 343
f 344 347 346
f 348 347 345
f 350 348 343
f 351 343 349
f 349 346 347
f 348 350 347
f 351 350 343
f 349 352 351
f 353 349 347
f 353 347 350
f 354 350 351
f 354 351 352
f 352 349 353
f 350 355 353
f 355 350 354
f 352 356 354
f 357 352 353
f 357 353 355
f 358 355 354
f 359 354 356
f 356 352 357
f 355 358 357
f 359 358 354
f 356 360 359
f 361 356 357
f 361 357 358
f 362 358 359
f 362 359 360
f 360 356 361
f 358 363 361
f 363 358 362
f 362 360 364
f 365 360 361
f 365 361 363
f 364 363 362
f 366 364 360
f 366 360 365
f 365 363 366
f 364 366 363
f 367 368 369
f 368 367 370
f 371 369 368
f 372 367 369
f 367 373 370
f 370 371 368
f 369 371 372
f 367 372 374
f 373 367 375
f 371 370 373
f 371 374 372
f 367 374 375
f 375 376 373
f 371 373 377
f 374 371 377
f 375 374 378
f 376 375 378
f 377 373 376
f 377 379 374
f 378 374 379
f 378 380 376
f 377 376 381
f 379 377 381
f 378 379 382
f 380 378 383
f 381 376 380
f 381 382 379
f 378 382 383
f 383 384 380
f 381 380 385
f 382 381 385
f 383 382 386
f 384 383 386
f 385 380 384
f 385 387 382
f 386 382 387
f 388 384 386
f 385 384 389
f 387 385 389
f 386 387 388
f 384 388 390
f 389 384 390
f 390 387 389
f 387 390 388
f 369 368 367
f 370 367 368
f 368 369 371
f 369 367 372
f 370 373 367
f 368 371 370
f 372 371 369
f 374 372 367
f 375 367 373
f 373 370 371
f 372 374 371
f 375 374 367
f 373 376 375
f 377 373 371
f 377 371 374
f 378 374 375
f 378 375 376
f 376 373 377
f 374 379 377
f 379 374 378
f 376 380 378
f 381 376 377
f 381 377 379
f 382 379 378
f 383 378 380
f 380 376 381
f 379 382 381
f 383 382 378
f 380 384 383
f 385 380 381
f 385 381 382
f 386 382 383
f 386 383 384
f 384 380 385
f 382 387 385
f 387 382 386
f 386 384 388
f 389 384 385
f 389 385 387
f 388 387 386
f 390 388 384
f 390 384 389
f 389 387 390
f 388 390 387

