# https://github.com/mikedh/trimesh
v 0.16666707 0.38224659 -0.36956540
v 0.15217421 0.38224659 -0.36956540
v 0.16666707 0.38224659 0.50000000
v 0.15217421 0.38224659 0.50000000
v 0.16666707 -0.22282625 -0.36956540
v 0.15217421 -0.22282625 0.50000000
v 0.16666707 -0.22282625 0.50000000
v 0.15217421 -0.22282625 -0.36956540
v 0.16666707 -0.29166662 0.50000000
v 0.15217421 -0.29166662 0.50000000
v 0.16666707 -0.29166662 -0.36956540
v 0.15217421 -0.29166662 -0.36956540
v -0.16666646 0.38224659 0.50000000
v -0.15217359 0.38224659 -0.36956540
v -0.16666646 0.38224659 -0.36956540
v -0.15217359 0.38224659 0.50000000
v -0.16666646 -0.22282625 -0.36956540
v -0.15217359 -0.22282625 0.50000000
v -0.16666646 -0.22282625 0.50000000
v -0.15217359 -0.22282625 -0.36956540
v -0.15217359 -0.29166662 0.50000000
v -0.16666646 -0.29166662 0.50000000
v -0.16666646 -0.29166662 -0.36956540
v -0.15217359 -0.29166662 -0.36956540
v -0.10869560 0.34239135 0.44202914
v 0.10869560 0.34239135 -0.31159454
v -0.10869560 0.34239135 -0.31159454
v 0.10869560 0.34239135 0.44202914
v 0.10869560 0.32789848 -0.31159454
v -0.10869560 0.32789848 -0.31159454
v 0.10869560 0.32789848 0.44202914
v -0.10869560 0.32789848 0.44202914
v -0.15217359 0.36050759 0.46376813
v 0.15217421 0.36050759 -0.34782641
v -0.15217359 0.36050759 -0.34782641
v 0.15217421 0.36050759 0.46376813
v 0.15217421 0.34963748 0.46376813
v -0.15217359 0.34963748 0.46376813
v -0.15217359 0.34963748 -0.34782641
v 0.15217421 0.34963748 -0.34782641
v 0.15217421 -0.29166662 -0.33333354
v -0.15217359 0.34963748 -0.33333354
v -0.15217359 -0.29166662 -0.33333354
v 0.15217421 0.34963748 -0.33333354
v 0.15217421 0.09963779 0.47826100
v -0.15217359 0.36050759 0.47826100
v -0.15217359 0.09963779 0.47826100
v 0.15217421 0.36050759 0.47826100
v -0.15217359 0.09963779 0.46376813
v 0.15217421 0.09963779 0.46376813
v 0.17391320 -0.29166662 -0.36956540
v 0.13043521 -0.31340561 -0.36956540
v 0.13043521 -0.29166662 -0.36956540
v 0.17391320 -0.31340561 -0.36956540
v 0.13043521 -0.29166662 0.50000000
v 0.17391320 -0.31340561 0.50000000
v 0.13043521 -0.31340561 0.50000000
v 0.17391320 -0.29166662 0.50000000
v -0.13043460 -0.29166662 -0.36956540
v -0.17391320 -0.31340561 -0.36956540
v -0.17391320 -0.29166662 -0.36956540
v -0.13043460 -0.31340561 -0.36956540
v -0.17391320 -0.29166662 0.50000000
v -0.13043460 -0.31340561 0.50000000
v -0.17391320 -0.31340561 0.50000000
v -0.13043460 -0.29166662 0.50000000
v -0.13043460 -0.31340561 -0.32608741
v 0.13043521 -0.31340561 -0.32608741
v 0.13043521 -0.29166662 -0.32608741
v -0.13043460 -0.29166662 -0.32608741
v 0.13043521 -0.31340561 0.45652200
v -0.13043460 -0.31340561 0.45652200
v -0.13043460 -0.29166662 0.45652200
v 0.13043521 -0.29166662 0.45652200
v 0.15217421 0.38224659 0.41304340
v -0.15217359 0.38224659 0.41304340
v -0.15217359 0.36050759 0.41304340
v 0.15217421 0.36050759 0.50000000
v 0.15217421 0.36050759 0.41304340
v -0.15217359 0.36050759 0.50000000
v 0.02173900 0.36050759 -0.32971017
v -0.15217359 0.36050759 -0.32971017
v 0.02173900 0.36050759 -0.27666665
v -0.15217359 0.36050759 -0.27666665
v -0.10869560 -0.31340561 0.44202914
v -0.12318847 -0.31340561 -0.31159454
v -0.10869560 -0.31340561 -0.31159454
v -0.12318847 -0.31340561 0.44202914
v -0.12318847 -0.26268088 -0.31159454
v -0.10869560 -0.26268088 -0.31159454
v -0.12318847 -0.26268088 0.44202914
v -0.10869560 -0.26268088 0.44202914
v 0.12318847 -0.31340561 0.44202914
v 0.10869560 -0.31340561 -0.31159454
v 0.12318847 -0.31340561 -0.31159454
v 0.10869560 -0.31340561 0.44202914
v 0.10869560 -0.26268088 -0.31159454
v 0.12318847 -0.26268088 -0.31159454
v 0.10869560 -0.26268088 0.44202914
v 0.12318847 -0.26268088 0.44202914
v 0.10869560 0.29166662 -0.31159454
v 0.10869560 -0.26268088 -0.26086980
v 0.10869560 0.29166662 -0.26086980
v 0.12318847 0.29166662 -0.26086980
v 0.12318847 -0.26268088 -0.26086980
v 0.12318847 0.29166662 -0.31159454
v 0.12318847 -0.26268088 -0.08212585
v 0.12318847 0.29166662 -0.02415499
v 0.12318847 -0.26268088 -0.02415499
v 0.12318847 0.29166662 -0.08212585
v 0.10869560 -0.26268088 -0.02415499
v 0.10869560 0.29166662 -0.08212585
v 0.10869560 0.29166662 -0.02415499
v 0.10869560 -0.26268088 -0.08212585
v 0.12318847 -0.26268088 0.14734284
v 0.12318847 0.29166662 0.20531371
v 0.12318847 -0.26268088 0.20531371
v 0.12318847 0.29166662 0.14734284
v 0.10869560 -0.26268088 0.20531371
v 0.10869560 0.29166662 0.14734284
v 0.10869560 0.29166662 0.20531371
v 0.10869560 -0.26268088 0.14734284
v 0.10869560 0.29166662 0.39130440
v 0.10869560 0.29166662 0.44202914
v 0.10869560 -0.26268088 0.39130440
v 0.12318847 0.29166662 0.44202914
v 0.12318847 -0.26268088 0.39130440
v 0.12318847 0.29166662 0.39130440
v -0.12318847 0.29166662 -0.31159454
v -0.12318847 -0.26268088 -0.26086980
v -0.12318847 0.29166662 -0.26086980
v -0.10869560 0.29166662 -0.26086980
v -0.10869560 -0.26268088 -0.26086980
v -0.10869560 0.29166662 -0.31159454
v -0.10869560 -0.26268088 -0.08212585
v -0.10869560 0.29166662 -0.02415499
v -0.10869560 -0.26268088 -0.02415499
v -0.10869560 0.29166662 -0.08212585
v -0.12318847 -0.26268088 -0.02415499
v -0.12318847 0.29166662 -0.08212585
v -0.12318847 0.29166662 -0.02415499
v -0.12318847 -0.26268088 -0.08212585
v -0.10869560 -0.26268088 0.14734284
v -0.10869560 0.29166662 0.20531371
v -0.10869560 -0.26268088 0.20531371
v -0.10869560 0.29166662 0.14734284
v -0.12318847 -0.26268088 0.20531371
v -0.12318847 0.29166662 0.14734284
v -0.12318847 0.29166662 0.20531371
v -0.12318847 -0.26268088 0.14734284
v -0.12318847 0.29166662 0.39130440
v -0.12318847 0.29166662 0.44202914
v -0.12318847 -0.26268088 0.39130440
v -0.10869560 0.29166662 0.44202914
v -0.10869560 -0.26268088 0.39130440
v -0.10869560 0.29166662 0.39130440
v 0.12318847 0.34239135 -0.31159454
v 0.12318847 0.34239135 0.44202914
v -0.12318847 0.34239135 -0.31159454
v -0.12318847 0.34239135 0.44202914
v -0.15217359 0.38224659 -0.50000000
v -0.16666646 0.38224659 -0.50000000
v -0.16666646 -0.22282625 -0.50000000
v -0.15217359 -0.22282625 -0.50000000
v 0.15217421 0.38224659 -0.32971017
v -0.15217359 0.38224659 -0.32971017
v 0.15217421 0.36050759 -0.32971017
v 0.15217421 0.38224659 -0.50000000
v 0.16666707 0.38224659 -0.50000000
v 0.16666707 -0.22282625 -0.50000000
v 0.15217421 -0.22282625 -0.50000000
v 0.15217421 -0.22282625 -0.34782641
v -0.15217359 -0.22282625 -0.34782641
v 0.08152185 -0.32789848 0.40760865
v -0.08152185 -0.32789848 -0.27717405
v 0.08152185 -0.32789848 -0.27717405
v -0.08152185 -0.32789848 0.40760865
v -0.08152185 -0.33514522 0.49456525
v -0.16847784 -0.33514522 -0.36413065
v -0.08152185 -0.33514522 -0.36413065
v -0.16847784 -0.33514522 0.49456525
v -0.08152185 -0.31340561 -0.36413065
v -0.16847784 -0.31340561 0.49456525
v -0.16847784 -0.31340561 -0.36413065
v -0.08152185 -0.31340561 0.49456525
v 0.16847845 -0.33514522 0.49456525
v 0.08152185 -0.33514522 -0.36413065
v 0.16847845 -0.33514522 -0.36413065
v 0.08152185 -0.33514522 0.49456525
v 0.16847845 -0.31340561 -0.36413065
v 0.08152185 -0.31340561 0.49456525
v 0.08152185 -0.31340561 -0.36413065
v 0.16847845 -0.31340561 0.49456525
v 0.08152185 -0.33514522 0.40760865
v -0.08152185 -0.31340561 0.40760865
v -0.08152185 -0.33514522 0.40760865
v 0.08152185 -0.31340561 0.40760865
v -0.10869560 -0.29891336 0.44202914
v 0.10869560 -0.29891336 -0.31159454
v -0.10869560 -0.29891336 -0.31159454
v 0.10869560 -0.29891336 0.44202914
v 0.08152185 -0.31340561 -0.27717405
v -0.08152185 -0.31340561 -0.27717405
v -0.08152185 -0.33514522 -0.27717405
v 0.08152185 -0.33514522 -0.27717405
v 0.10960159 -0.33514522 0.44495192
v 0.10960159 -0.36703418 0.44701089
v 0.10960159 -0.36909315 0.44495192
v 0.10960159 -0.33514522 0.45722198
v 0.08312966 -0.33514522 0.44495192
v 0.10960159 -0.36594234 0.45108664
v 0.08312966 -0.36909315 0.44495192
v 0.08312966 -0.33514522 0.45722198
v 0.10960159 -0.36703418 0.45516301
v 0.08312966 -0.36703418 0.44701089
v 0.08312966 -0.36909315 0.45722198
v 0.10960159 -0.36909315 0.45722198
v 0.08312966 -0.36594234 0.45108664
v 0.08312966 -0.36703418 0.45516301
v 0.10960159 -0.37001810 0.44402697
v 0.10960159 -0.37817022 0.44402697
v 0.10960159 -0.37409446 0.44293452
v -0.10960098 -0.37409446 0.44293452
v -0.10960098 -0.37001810 0.44402697
v -0.10960098 -0.36703418 0.44701089
v 0.10960159 -0.38115414 0.44701089
v -0.10960098 -0.37817022 0.44402697
v -0.10960098 -0.38115414 0.44701089
v -0.10960098 -0.36594234 0.45108664
v 0.10960159 -0.38224659 0.45108664
v -0.10960098 -0.38224659 0.45108664
v -0.10960098 -0.36703418 0.45516301
v 0.10960159 -0.38115414 0.45516301
v -0.10960098 -0.38115414 0.45516301
v 0.10960159 -0.37001810 0.45814693
v -0.10960098 -0.37001810 0.45814693
v 0.10960159 -0.37817022 0.45814693
v -0.10960098 -0.37409446 0.45923938
v 0.10960159 -0.37409446 0.45923938
v -0.10960098 -0.37817022 0.45814693
v -0.10960159 -0.36909315 0.45722198
v -0.08312905 -0.33514522 0.45722198
v -0.10960159 -0.33514522 0.45722198
v -0.08312905 -0.36909315 0.45722198
v -0.10960159 -0.33514522 0.44495192
v -0.10960159 -0.36703418 0.45516301
v -0.08312905 -0.36703418 0.45516301
v -0.08312905 -0.33514522 0.44495192
v -0.10960159 -0.36703418 0.44701089
v -0.10960159 -0.36594234 0.45108664
v -0.08312905 -0.36594234 0.45108664
v -0.08312905 -0.36703418 0.44701089
v -0.08312905 -0.36909315 0.44495192
v -0.10960159 -0.36909315 0.44495192
v 0.10869560 0.32789848 -0.30434780
v -0.10869560 -0.29891336 -0.30434780
v -0.10869560 0.32789848 -0.30434780
v 0.10869560 -0.29891336 -0.30434780
v -0.10869560 0.32789848 -0.28985554
v 0.10869560 -0.29891336 -0.28985554
v -0.10869560 -0.29891336 -0.28985554
v 0.10869560 0.32789848 -0.28985554
v 0.10869560 -0.29891336 -0.07125635
v -0.10869560 0.32789848 -0.07125635
v -0.10869560 -0.29891336 -0.07125635
v 0.10869560 0.32789848 -0.07125635
v -0.10869560 -0.29891336 -0.08212585
v 0.10869560 0.32789848 -0.08212585
v -0.10869560 0.32789848 -0.08212585
v 0.10869560 -0.29891336 -0.08212585
v 0.10869560 -0.29891336 0.15821234
v -0.10869560 0.32789848 0.15821234
v -0.10869560 -0.29891336 0.15821234
v 0.10869560 0.32789848 0.15821234
v -0.10869560 -0.29891336 0.14734284
v 0.10869560 0.32789848 0.14734284
v -0.10869560 0.32789848 0.14734284
v 0.10869560 -0.29891336 0.14734284
f 1 2 3
f 4 3 2
f 4 6 3
f 4 2 6
f 7 3 6
f 8 6 2
f 3 2 1
f 2 3 4
f 5 3 1
f 3 6 4
f 6 2 4
f 3 5 7
f 6 3 7
f 2 6 8
f 1 3 5
f 7 5 3
f 9 7 10
f 6 10 7
f 6 8 10
f 5 11 8
f 12 10 8
f 12 8 11
f 10 7 9
f 7 11 9
f 7 10 6
f 11 7 5
f 10 8 6
f 8 11 5
f 8 10 12
f 11 8 12
f 9 11 7
f 5 7 11
f 13 14 15
f 14 13 16
f 13 18 16
f 18 14 16
f 18 13 19
f 14 18 20
f 15 14 13
f 16 13 14
f 15 13 17
f 16 18 13
f 16 14 18
f 19 17 13
f 19 13 18
f 20 18 14
f 17 13 15
f 13 17 19
f 21 19 22
f 19 21 18
f 21 20 18
f 20 21 24
f 20 23 17
f 23 20 24
f 22 19 21
f 18 21 19
f 22 23 19
f 18 20 21
f 17 19 23
f 24 21 20
f 17 23 20
f 24 20 23
f 19 23 22
f 23 19 17
f 25 26 27
f 26 25 28
f 29 27 26
f 30 25 27
f 25 31 28
f 31 26 28
f 27 29 30
f 26 31 29
f 25 30 32
f 31 25 32
f 31 30 29
f 30 31 32
f 27 26 25
f 28 25 26
f 26 27 29
f 27 25 30
f 28 31 25
f 28 26 31
f 30 29 27
f 29 31 26
f 32 30 25
f 32 25 31
f 29 30 31
f 32 31 30
f 33 34 35
f 34 33 36
f 33 37 36
f 37 33 38
f 39 37 38
f 37 39 40
f 35 34 33
f 36 33 34
f 36 37 33
f 38 33 37
f 38 37 39
f 40 39 37
f 41 42 43
f 42 41 44
f 43 42 41
f 44 41 42
f 45 46 47
f 46 45 48
f 46 49 47
f 49 45 47
f 45 36 48
f 36 46 48
f 49 46 33
f 45 49 50
f 36 45 50
f 46 36 33
f 36 49 33
f 49 36 50
f 47 46 45
f 48 45 46
f 47 49 46
f 47 45 49
f 48 36 45
f 48 46 36
f 33 46 49
f 50 49 45
f 50 45 36
f 33 36 46
f 33 49 36
f 50 36 49
f 51 52 53
f 52 51 54
f 55 51 53
f 51 55 58
f 56 55 57
f 55 56 58
f 53 52 51
f 54 51 52
f 53 55 52
f 53 51 55
f 54 56 51
f 54 52 56
f 57 52 55
f 58 55 51
f 58 51 56
f 57 56 52
f 57 55 56
f 58 56 55
f 52 55 53
f 51 56 54
f 56 52 54
f 55 52 57
f 56 51 58
f 52 56 57
f 59 60 61
f 60 59 62
f 63 59 61
f 59 63 66
f 64 63 65
f 63 64 66
f 61 60 59
f 62 59 60
f 61 63 60
f 61 59 63
f 62 64 59
f 62 60 64
f 65 60 63
f 66 63 59
f 66 59 64
f 65 64 60
f 65 63 64
f 66 64 63
f 60 63 61
f 59 64 62
f 64 60 62
f 63 60 65
f 64 59 66
f 60 64 65
f 52 67 62
f 67 52 68
f 59 52 62
f 69 67 68
f 52 59 53
f 67 69 70
f 62 67 52
f 68 52 67
f 62 52 59
f 68 67 69
f 53 59 52
f 70 69 67
f 53 69 59
f 70 59 69
f 59 69 53
f 69 59 70
f 71 64 72
f 64 71 57
f 73 71 72
f 55 64 57
f 71 73 74
f 64 55 66
f 72 64 71
f 57 71 64
f 72 71 73
f 57 64 55
f 74 73 71
f 66 55 64
f 74 55 73
f 66 73 55
f 73 55 74
f 55 73 66
f 16 75 76
f 75 16 4
f 75 77 76
f 16 78 4
f 77 75 79
f 78 16 80
f 33 78 80
f 78 33 36
f 76 75 16
f 4 16 75
f 76 77 75
f 4 78 16
f 79 75 77
f 80 16 78
f 80 78 33
f 36 33 78
f 81 82 83
f 81 83 82
f 84 83 82
f 84 82 83
f 85 86 87
f 86 85 88
f 89 87 86
f 90 85 87
f 85 91 88
f 91 86 88
f 87 89 90
f 86 91 89
f 85 90 92
f 91 85 92
f 91 90 89
f 90 91 92
f 87 86 85
f 88 85 86
f 86 87 89
f 87 85 90
f 88 91 85
f 88 86 91
f 90 89 87
f 89 91 86
f 92 90 85
f 92 85 91
f 89 90 91
f 92 91 90
f 93 94 95
f 94 93 96
f 97 95 94
f 98 93 95
f 93 99 96
f 99 94 96
f 95 97 98
f 94 99 97
f 93 98 100
f 99 93 100
f 99 98 97
f 98 99 100
f 95 94 93
f 96 93 94
f 94 95 97
f 95 93 98
f 96 99 93
f 96 94 99
f 98 97 95
f 97 99 94
f 100 98 93
f 100 93 99
f 97 98 99
f 100 99 98
f 101 102 103
f 102 101 97
f 103 102 101
f 97 101 102
f 102 104 103
f 103 104 102
f 104 101 103
f 103 101 104
f 101 98 97
f 97 98 101
f 98 102 97
f 97 102 98
f 104 102 105
f 105 102 104
f 101 104 106
f 106 104 101
f 98 101 106
f 106 101 98
f 102 98 105
f 105 98 102
f 98 104 105
f 105 104 98
f 104 98 106
f 106 98 104
f 107 108 109
f 108 107 110
f 109 108 107
f 110 107 108
f 108 111 109
f 109 111 108
f 111 107 109
f 109 107 111
f 107 112 110
f 110 112 107
f 112 108 110
f 110 108 112
f 111 108 113
f 113 108 111
f 107 111 114
f 114 111 107
f 112 107 114
f 114 107 112
f 108 112 113
f 113 112 108
f 112 111 113
f 113 111 112
f 111 112 114
f 114 112 111
f 115 116 117
f 116 115 118
f 117 116 115
f 118 115 116
f 116 119 117
f 117 119 116
f 119 115 117
f 117 115 119
f 115 120 118
f 118 120 115
f 120 116 118
f 118 116 120
f 119 116 121
f 121 116 119
f 115 119 122
f 122 119 115
f 120 115 122
f 122 115 120
f 116 120 121
f 121 120 116
f 120 119 121
f 121 119 120
f 119 120 122
f 122 120 119
f 123 99 124
f 99 123 125
f 124 99 123
f 125 123 99
f 99 126 124
f 124 126 99
f 126 123 124
f 124 123 126
f 123 127 125
f 125 127 123
f 127 99 125
f 125 99 127
f 126 99 100
f 100 99 126
f 123 126 128
f 128 126 123
f 127 123 128
f 128 123 127
f 99 127 100
f 100 127 99
f 127 126 100
f 100 126 127
f 126 127 128
f 128 127 126
f 129 130 131
f 130 129 89
f 131 130 129
f 89 129 130
f 130 132 131
f 131 132 130
f 132 129 131
f 131 129 132
f 129 90 89
f 89 90 129
f 90 130 89
f 89 130 90
f 132 130 133
f 133 130 132
f 129 132 134
f 134 132 129
f 90 129 134
f 134 129 90
f 130 90 133
f 133 90 130
f 90 132 133
f 133 132 90
f 132 90 134
f 134 90 132
f 135 136 137
f 136 135 138
f 137 136 135
f 138 135 136
f 136 139 137
f 137 139 136
f 139 135 137
f 137 135 139
f 135 140 138
f 138 140 135
f 140 136 138
f 138 136 140
f 139 136 141
f 141 136 139
f 135 139 142
f 142 139 135
f 140 135 142
f 142 135 140
f 136 140 141
f 141 140 136
f 140 139 141
f 141 139 140
f 139 140 142
f 142 140 139
f 143 144 145
f 144 143 146
f 145 144 143
f 146 143 144
f 144 147 145
f 145 147 144
f 147 143 145
f 145 143 147
f 143 148 146
f 146 148 143
f 148 144 146
f 146 144 148
f 147 144 149
f 149 144 147
f 143 147 150
f 150 147 143
f 148 143 150
f 150 143 148
f 144 148 149
f 149 148 144
f 148 147 149
f 149 147 148
f 147 148 150
f 150 148 147
f 151 91 152
f 91 151 153
f 152 91 151
f 153 151 91
f 91 154 152
f 152 154 91
f 154 151 152
f 152 151 154
f 151 155 153
f 153 155 151
f 155 91 153
f 153 91 155
f 154 91 92
f 92 91 154
f 151 154 156
f 156 154 151
f 155 151 156
f 156 151 155
f 91 155 92
f 92 155 91
f 155 154 92
f 92 154 155
f 154 155 156
f 156 155 154
f 126 101 106
f 101 126 124
f 26 106 101
f 157 126 106
f 126 28 124
f 28 101 124
f 106 26 157
f 101 28 26
f 126 157 158
f 28 126 158
f 28 157 26
f 157 28 158
f 106 101 126
f 124 126 101
f 101 106 26
f 106 126 157
f 124 28 126
f 124 101 28
f 157 26 106
f 26 28 101
f 158 157 126
f 158 126 28
f 26 157 28
f 158 28 157
f 154 129 134
f 129 154 152
f 159 134 129
f 27 154 134
f 154 160 152
f 160 129 152
f 134 159 27
f 129 160 159
f 154 27 25
f 160 154 25
f 160 27 159
f 27 160 25
f 134 129 154
f 152 154 129
f 129 134 159
f 134 154 27
f 152 160 154
f 152 129 160
f 27 159 134
f 159 160 129
f 25 27 154
f 25 154 160
f 159 27 160
f 25 160 27
f 15 161 162
f 161 15 14
f 162 161 15
f 14 15 161
f 162 15 163
f 17 163 15
f 17 20 163
f 164 163 20
f 163 15 162
f 15 163 17
f 163 20 17
f 20 163 164
f 82 165 166
f 165 82 167
f 168 166 165
f 166 168 161
f 166 165 82
f 167 82 165
f 165 166 168
f 161 168 166
f 169 168 1
f 2 1 168
f 1 168 169
f 168 1 2
f 170 1 169
f 1 170 5
f 170 8 5
f 8 170 171
f 169 1 170
f 5 170 1
f 5 8 170
f 171 170 8
f 172 164 171
f 164 172 173
f 171 164 172
f 173 172 164
f 174 175 176
f 175 174 177
f 176 175 174
f 177 174 175
f 178 179 180
f 179 178 181
f 179 182 180
f 182 178 180
f 178 183 181
f 183 179 181
f 182 179 184
f 178 182 185
f 183 178 185
f 179 183 184
f 183 182 184
f 182 183 185
f 180 179 178
f 181 178 179
f 180 182 179
f 180 178 182
f 181 183 178
f 181 179 183
f 184 179 182
f 185 182 178
f 185 178 183
f 184 183 179
f 184 182 183
f 185 183 182
f 186 187 188
f 187 186 189
f 187 190 188
f 190 186 188
f 186 191 189
f 191 187 189
f 190 187 192
f 186 190 193
f 191 186 193
f 187 191 192
f 191 190 192
f 190 191 193
f 188 187 186
f 189 186 187
f 188 190 187
f 188 186 190
f 189 191 186
f 189 187 191
f 192 187 190
f 193 190 186
f 193 186 191
f 192 191 187
f 192 190 191
f 193 191 190
f 191 178 189
f 178 191 185
f 178 194 189
f 191 195 185
f 194 178 196
f 195 191 197
f 195 194 196
f 194 195 197
f 189 178 191
f 185 191 178
f 189 194 178
f 185 195 191
f 196 178 194
f 197 191 195
f 196 194 195
f 197 195 194
f 198 199 200
f 199 198 201
f 94 200 199
f 87 198 200
f 198 96 201
f 96 199 201
f 200 94 87
f 199 96 94
f 198 87 85
f 96 198 85
f 96 87 94
f 87 96 85
f 200 199 198
f 201 198 199
f 199 200 94
f 200 198 87
f 201 96 198
f 201 199 96
f 87 94 200
f 94 96 199
f 85 87 198
f 85 198 96
f 94 87 96
f 85 96 87
f 195 202 203
f 202 195 197
f 203 202 195
f 197 195 202
f 202 204 205
f 204 202 203
f 204 187 205
f 202 182 203
f 187 204 180
f 182 202 192
f 182 187 180
f 187 182 192
f 205 204 202
f 203 202 204
f 205 187 204
f 203 182 202
f 180 204 187
f 192 202 182
f 180 187 182
f 192 182 187
f 206 207 208
f 207 206 209
f 208 210 206
f 210 209 206
f 207 209 211
f 210 208 212
f 209 210 213
f 211 209 214
f 215 210 212
f 210 215 213
f 216 209 213
f 214 209 217
f 213 215 218
f 209 216 217
f 213 219 216
f 213 218 219
f 208 207 206
f 209 206 207
f 206 210 208
f 206 209 210
f 211 209 207
f 212 208 210
f 213 210 209
f 214 209 211
f 212 210 215
f 213 215 210
f 213 209 216
f 217 209 214
f 218 215 213
f 217 216 209
f 216 219 213
f 219 218 213
f 220 221 222
f 221 220 207
f 221 207 226
f 226 207 211
f 227 224 223
f 224 228 225
f 226 211 230
f 224 227 228
f 225 228 229
f 230 211 214
f 229 228 231
f 230 214 233
f 229 231 232
f 233 214 235
f 232 231 234
f 233 235 237
f 232 234 236
f 237 235 239
f 236 234 240
f 236 240 238
f 222 221 220
f 207 220 221
f 222 223 221
f 220 224 222
f 207 225 220
f 226 207 221
f 227 221 223
f 223 222 224
f 224 220 225
f 207 211 225
f 211 207 226
f 226 221 228
f 227 228 221
f 223 224 227
f 225 228 224
f 229 225 211
f 230 211 226
f 228 231 226
f 228 227 224
f 229 228 225
f 211 214 229
f 214 211 230
f 230 226 231
f 231 228 229
f 232 229 214
f 233 214 230
f 231 234 230
f 232 231 229
f 214 235 232
f 235 214 233
f 233 230 234
f 234 231 232
f 236 232 235
f 237 235 233
f 233 234 237
f 236 234 232
f 236 235 238
f 239 235 237
f 240 237 234
f 240 234 236
f 239 238 235
f 238 240 236
f 237 240 239
f 238 239 240
f 221 223 222
f 222 224 220
f 220 225 207
f 223 221 227
f 224 222 223
f 225 220 224
f 225 211 207
f 228 221 226
f 221 228 227
f 211 225 229
f 226 231 228
f 229 214 211
f 231 226 230
f 214 229 232
f 230 234 231
f 232 235 214
f 234 230 233
f 235 232 236
f 237 234 233
f 238 235 236
f 234 237 240
f 235 238 239
f 239 240 237
f 240 239 238
f 241 242 243
f 242 241 244
f 242 245 243
f 243 246 241
f 247 242 244
f 245 242 248
f 245 249 243
f 243 250 246
f 251 242 247
f 252 248 242
f 253 245 248
f 249 245 254
f 243 249 250
f 252 242 251
f 248 252 253
f 245 253 254
f 243 242 241
f 244 241 242
f 243 245 242
f 241 246 243
f 244 242 247
f 248 242 245
f 243 249 245
f 246 250 243
f 247 242 251
f 242 248 252
f 248 245 253
f 254 245 249
f 250 249 243
f 251 242 252
f 253 252 248
f 254 253 245
f 255 256 257
f 256 255 258
f 256 259 257
f 259 255 257
f 255 260 258
f 260 256 258
f 259 256 261
f 255 259 262
f 260 255 262
f 256 260 261
f 260 259 261
f 259 260 262
f 257 256 255
f 258 255 256
f 257 259 256
f 257 255 259
f 258 260 255
f 258 256 260
f 261 256 259
f 262 259 255
f 262 255 260
f 261 260 256
f 261 259 260
f 262 260 259
f 263 264 265
f 264 263 266
f 265 264 263
f 266 263 264
f 264 267 265
f 265 267 264
f 267 263 265
f 265 263 267
f 263 268 266
f 266 268 263
f 268 264 266
f 266 264 268
f 267 264 269
f 269 264 267
f 263 267 270
f 270 267 263
f 268 263 270
f 270 263 268
f 264 268 269
f 269 268 264
f 268 267 269
f 269 267 268
f 267 268 270
f 270 268 267
f 271 272 273
f 272 271 274
f 273 272 271
f 274 271 272
f 272 275 273
f 273 275 272
f 275 271 273
f 273 271 275
f 271 276 274
f 274 276 271
f 276 272 274
f 274 272 276
f 275 272 277
f 277 272 275
f 271 275 278
f 278 275 271
f 276 271 278
f 278 271 276
f 272 276 277
f 277 276 272
f 276 275 277
f 277 275 276
f 275 276 278
f 278 276 275

