# https://github.com/mikedh/trimesh
v 0.19219921 -0.15093424 -0.15587373
v 0.19159218 -0.23749632 -0.07087149
v 0.18953096 -0.23882692 -0.15501185
v 0.19140136 -0.15127938 -0.08042454
v 0.19235865 -0.29858039 -0.09103733
v 0.18103893 -0.14969328 -0.21688865
v 0.19171576 -0.05734264 -0.15679132
v 0.17483287 -0.23565986 -0.05407889
v 0.17421944 -0.29841903 -0.07254722
v 0.18811776 -0.29986617 -0.15441314
v 0.17925754 -0.05523020 -0.21781520
v 0.17959819 -0.23925018 -0.21601012
v 0.19067138 -0.06033809 -0.12941282
v 0.17470993 -0.15285586 -0.06696100
v 0.17923129 -0.31720497 -0.09342319
v 0.18039156 -0.31730614 -0.10536211
v 0.16874272 -0.13844720 -0.23020170
v 0.16525165 -0.22434334 -0.22935903
v 0.18762022 0.01778959 -0.16813152
v 0.17425338 0.02079849 -0.21859320
v 0.16212685 -0.23396811 -0.05409618
v 0.16204169 -0.29331626 -0.06923481
v 0.16576903 -0.31716271 -0.08838061
v 0.17649132 -0.31776782 -0.15423769
v 0.17917494 -0.30120318 -0.21540181
v 0.16587213 -0.04784210 -0.23109112
v 0.16601620 -0.28376833 -0.22877697
v 0.18970129 0.01699430 -0.15241660
v 0.17588621 -0.06531088 -0.11759621
v 0.16275181 -0.15957930 -0.06185119
v 0.14776494 -0.33912403 -0.11066786
v 0.15396779 -0.33447525 -0.11383748
v 0.15698053 -0.33244349 -0.12661139
v 0.15550650 -0.12744125 -0.24013703
v 0.15584331 -0.20865339 -0.23934046
v 0.15541749 -0.26483127 -0.23878914
v 0.18474195 0.12048601 -0.16921112
v 0.17154287 0.12153615 -0.21965358
v 0.16173689 0.12204713 -0.23287123
v 0.13436159 -0.23270923 -0.10824998
v 0.13450503 -0.28338541 -0.09885637
v 0.13469520 -0.31728373 -0.10576359
v 0.13508068 -0.33812064 -0.10901133
v 0.15838541 -0.32841775 -0.16221938
v 0.16833035 -0.31899276 -0.21522764
v 0.15561215 -0.30082922 -0.22860921
v 0.15364763 -0.04178203 -0.24097714
v 0.14558270 -0.28097458 -0.23973362
v 0.18671096 0.12036050 -0.15745406
v 0.17450631 -0.02822245 -0.13360312
v 0.16082058 -0.07371454 -0.11078952
v 0.13735192 -0.16351284 -0.12819492
v 0.13508068 -0.34321445 -0.11434142
v 0.13477589 -0.34428956 -0.17239291
v 0.14037875 -0.28987257 -0.23964590
v 0.14578952 0.12124736 -0.24378882
v -0.19196613 -0.23270923 -0.10824998
v -0.19210956 -0.28338541 -0.09885637
v -0.19230230 -0.31728373 -0.10576359
v -0.19268714 -0.33812064 -0.10901133
v -0.19268714 -0.34321445 -0.11434142
v 0.15285234 -0.32880771 -0.21513159
v 0.15138471 -0.31023180 -0.22733047
v 0.12021931 -0.30377986 -0.23951015
v 0.16073990 -0.03504386 -0.13929884
v 0.13585548 -0.09594352 -0.14129282
v -0.19495902 -0.16351284 -0.12819492
v -0.19268714 -0.37020234 -0.14297112
v 0.13456586 -0.34414420 -0.21498111
v 0.17474387 0.11706922 -0.14665941
v -0.22035826 -0.15957930 -0.06185119
v -0.21973138 -0.23396811 -0.05409618
v -0.21964878 -0.29331626 -0.06923481
v -0.22337613 -0.31716271 -0.08838061
v -0.20537203 -0.33786451 -0.11068131
v 0.13508068 -0.37020234 -0.14297112
v 0.13469072 -0.32494077 -0.22718576
v 0.15978773 0.11365755 -0.14998783
v 0.12389095 0.11350708 -0.16848755
v -0.19346257 -0.09594352 -0.14129282
v -0.21842767 -0.07371454 -0.11078952
v -0.21157233 -0.33541845 -0.11382788
v -0.19217231 -0.37132932 -0.16412115
v -0.19217231 -0.34414420 -0.21498111
v -0.19229782 -0.32494077 -0.22718576
v -0.23349267 -0.06531088 -0.11759621
v -0.23231703 -0.15285586 -0.06696100
v -0.23243997 -0.23565986 -0.05407889
v -0.23182589 -0.29841903 -0.07254722
v -0.23683774 -0.31720497 -0.09342319
v -0.19238298 -0.34428956 -0.17239291
v 0.13456586 -0.37132932 -0.16412115
v -0.17782385 -0.30377986 -0.23951015
v -0.18149805 0.11350708 -0.16848755
v -0.21834699 -0.03504386 -0.13929884
v -0.23211084 -0.02822245 -0.13360312
v -0.23799801 -0.31730614 -0.10536211
v -0.21458763 -0.33244349 -0.12661074
v -0.21045879 -0.32880771 -0.21513159
v -0.20899180 -0.31023180 -0.22733047
v -0.24730838 0.01699430 -0.15241660
v -0.24827848 -0.06033809 -0.12941282
v -0.24900845 -0.15127938 -0.08042454
v -0.24919927 -0.23749632 -0.07087149
v -0.24996574 -0.29858039 -0.09103733
v -0.21599251 -0.32841775 -0.16221938
v -0.19798585 -0.28987257 -0.23964590
v -0.21739483 0.11365755 -0.14998783
v -0.23235032 0.11706922 -0.14665941
v -0.24572485 -0.29986617 -0.15441314
v -0.23409778 -0.31776782 -0.15423769
v -0.22593424 -0.31899276 -0.21522764
v -0.21321861 -0.30082922 -0.22860921
v -0.21125472 -0.04178203 -0.24097714
v -0.21987482 0.11422232 -0.14943587
v -0.24522732 0.01778959 -0.16813152
v -0.24932221 -0.05734264 -0.15679132
v -0.24980630 -0.15093424 -0.15587373
v -0.24713805 -0.23882692 -0.15501185
v -0.20318979 -0.28097458 -0.23973362
v -0.20339598 0.12124736 -0.24378882
v -0.21311359 -0.12744125 -0.24013703
v -0.24234904 0.12048601 -0.16921112
v -0.23720529 -0.23925018 -0.21601012
v -0.23678203 -0.30120318 -0.21540181
v -0.22362265 -0.28376833 -0.22877697
v -0.21934398 0.12204713 -0.23287123
v -0.22347922 -0.04784210 -0.23109112
v -0.24431613 0.12036050 -0.15745406
v -0.22914932 0.12153615 -0.21965358
v -0.23186047 0.02079849 -0.21859320
v -0.23686463 -0.05523020 -0.21781520
v -0.23864539 -0.14969328 -0.21688865
v -0.21302395 -0.26483127 -0.23878914
v -0.21344785 -0.20865339 -0.23934046
v -0.22634917 -0.13844720 -0.23020170
v -0.22285874 -0.22434334 -0.22935903
v -0.21409073 0.12036050 -0.15745406
v 0.16893033 0.12036050 -0.15745406
v 0.17606102 0.11743229 -0.14784722
v -0.04708299 -0.08263495 -0.32708331
v -0.03451015 -0.07776205 -0.44959531
v -0.04215438 -0.08540821 -0.44959531
v -0.03728213 -0.07283345 -0.32708331
v -0.03451015 -0.07776205 -0.23958763
v -0.04215438 -0.08540821 -0.23958763
v -0.02468048 -0.07503106 -0.44959531
v -0.02468048 -0.06933470 -0.32708331
v -0.04488474 -0.09523596 -0.44959531
v -0.05058366 -0.09523596 -0.32708331
v -0.02468048 -0.07503106 -0.23958763
v -0.04488474 -0.09523596 -0.23958763
v -0.01485208 -0.07776205 -0.44959531
v -0.01207946 -0.07283345 -0.32708331
v -0.04215438 -0.10506627 -0.44959531
v -0.04708299 -0.10783697 -0.32708331
v -0.01485208 -0.07776205 -0.23958763
v -0.04215438 -0.10506627 -0.23958763
v -0.00227861 -0.08263495 -0.32708331
v -0.00720721 -0.08540821 -0.44959531
v -0.03451015 -0.11270923 -0.44959531
v -0.03728213 -0.11763783 -0.32708331
v -0.00720721 -0.08540821 -0.23958763
v -0.03451015 -0.11270923 -0.23958763
v 0.00122143 -0.09523596 -0.32708331
v -0.00447557 -0.09523596 -0.44959531
v -0.02468048 -0.12113978 -0.32708331
v -0.02468048 -0.11544023 -0.44959531
v -0.00447557 -0.09523596 -0.23958763
v -0.02468048 -0.11544023 -0.23958763
v -0.00720721 -0.10506627 -0.44959531
v -0.00227861 -0.10783697 -0.32708331
v -0.01207946 -0.11763783 -0.32708331
v -0.01485208 -0.11270923 -0.44959531
v -0.00720721 -0.10506627 -0.23958763
v -0.01485208 -0.11270923 -0.23958763
v -0.00227861 -0.10503682 -0.35508612
v -0.00367836 -0.11063713 -0.37748799
v 0.14473554 -0.10153807 -0.37888839
v 0.14473554 -0.09523596 -0.37678812
v 0.14473554 -0.10853877 -0.38728949
v 0.00052155 -0.09523596 -0.34528527
v 0.25884581 -0.09943651 -0.40689121
v 0.25884581 -0.09523596 -0.40549081
v -0.00157937 -0.11203752 -0.40689121
v 0.14473554 -0.08893642 -0.37888839
v 0.25884581 -0.09103541 -0.40689121
v 0.27284722 -0.09523596 -0.42683806
v 0.14473554 -0.11063713 -0.39288980
v 0.25884581 -0.10643722 -0.41389191
v -0.00227861 -0.08543510 -0.35508612
v 0.25884581 -0.08403471 -0.41389191
v 0.14473554 -0.11343792 -0.41249152
v 0.14473554 -0.08193571 -0.38728949
v 0.27284722 -0.09817699 -0.42911187
v 0.25884581 -0.11063713 -0.42369277
v -0.00367836 -0.07983416 -0.37748799
v 0.27284722 -0.09229429 -0.42911187
v 0.25884581 -0.07983416 -0.42369277
v 0.27284722 -0.08967343 -0.43769418
v 0.27284722 -0.09988026 -0.43248447
v 0.27284722 -0.10079785 -0.43769418
v 0.27284722 -0.09059358 -0.43248447
v 0.25884581 -0.11273868 -0.43769418
v 0.14473554 -0.07983416 -0.39288980
v 0.25884581 -0.07773580 -0.43769418
v -0.00157937 -0.07843440 -0.40689121
v 0.14473554 -0.07703400 -0.41249152
v 0.06293430 -0.36488634 -0.40549081
v 0.03366364 -0.25441442 -0.37888839
v 0.02767145 -0.25636102 -0.37678812
v 0.06692931 -0.36358968 -0.40689121
v 0.05894058 -0.36618493 -0.40689121
v 0.02167926 -0.25830761 -0.37888839
v 0.06726100 -0.37820196 -0.42683806
v 0.07358680 -0.36142473 -0.41389191
v -0.01689281 -0.11920343 -0.34528527
v -0.02707978 -0.11957162 -0.35508612
v 0.01502113 -0.26047192 -0.38728949
v 0.04032176 -0.25225075 -0.38728949
v -0.00843600 -0.11351348 -0.35508612
v -0.03283953 -0.11996990 -0.37748799
v 0.05228245 -0.36834667 -0.41389191
v 0.07005795 -0.37729269 -0.42911187
v 0.07758116 -0.36012807 -0.42369277
v -0.03352020 -0.12239867 -0.40689121
v 0.01302459 -0.26111929 -0.39288980
v 0.06446276 -0.37911122 -0.42911187
v 0.07167606 -0.37676827 -0.43248447
v 0.06197125 -0.37992252 -0.43769418
v 0.07255139 -0.37648396 -0.43769418
v 0.06284466 -0.37963821 -0.43248447
v 0.04232023 -0.25160018 -0.39288980
v -0.00354389 -0.11045143 -0.37748799
v 0.04828552 -0.36964654 -0.42369277
v 0.07957962 -0.35947877 -0.43769418
v 0.04628962 -0.37029391 -0.43769418
v 0.01036082 -0.26198374 -0.41249152
v 0.04498335 -0.25073574 -0.41249152
v -0.00156144 -0.11201511 -0.40689121
v -0.04507044 -0.11004995 -0.34528527
v -0.04856535 -0.10047320 -0.35508612
v -0.16174137 -0.19481591 -0.37678812
v -0.15803772 -0.19991420 -0.37888839
v -0.16544439 -0.18971890 -0.37888839
v -0.25158897 -0.26528847 -0.40689121
v -0.25405808 -0.26189025 -0.40549081
v -0.03704393 -0.11633220 -0.35508612
v -0.05072517 -0.09512198 -0.37748799
v -0.25652654 -0.25849203 -0.40689121
v -0.26538676 -0.27011782 -0.42683806
v -0.24747423 -0.27095153 -0.41389191
v -0.15392297 -0.20557790 -0.38728949
v -0.16955977 -0.18405584 -0.38728949
v -0.03261990 -0.12004162 -0.37748799
v -0.05324742 -0.09522251 -0.40689121
v -0.26064257 -0.25282833 -0.41389191
v -0.26365723 -0.27249984 -0.42911187
v -0.24500576 -0.27434975 -0.42369277
v -0.15268842 -0.20727605 -0.39288980
v -0.17079369 -0.18235513 -0.39288980
v -0.26711628 -0.26773900 -0.42911187
v -0.26265832 -0.27387526 -0.43248447
v -0.26865563 -0.26561760 -0.43769418
v -0.26211660 -0.27461868 -0.43769418
v -0.26811519 -0.26636358 -0.43248447
v -0.03349587 -0.12240699 -0.40689121
v -0.17244061 -0.18009093 -0.41249152
v -0.26311103 -0.24943011 -0.42369277
v -0.24377121 -0.27604790 -0.43769418
v -0.26434494 -0.24772940 -0.43769418
v -0.15104213 -0.20954281 -0.41249152
v -0.03704393 -0.07413972 -0.35508612
v -0.16174137 0.00434398 -0.37678812
v -0.04507044 -0.08042070 -0.34528527
v -0.16544439 -0.00075303 -0.37888839
v -0.15803772 0.00944291 -0.37888839
v -0.25405808 0.07141641 -0.40549081
v -0.25652654 0.06802011 -0.40689121
v -0.04856535 -0.08999808 -0.35508612
v -0.03261990 -0.07043222 -0.37748799
v -0.25158897 0.07481398 -0.40689121
v -0.26538676 0.07964654 -0.42683806
v -0.26064257 0.06235449 -0.41389191
v -0.16955977 -0.00641544 -0.38728949
v -0.15392297 0.01510597 -0.38728949
v -0.05072517 -0.09535186 -0.37748799
v -0.03349587 -0.06806429 -0.40689121
v -0.24747423 0.08047961 -0.41389191
v -0.26711628 0.07726772 -0.42911187
v -0.26311103 0.05895819 -0.42369277
v -0.17079369 -0.00811552 -0.39288980
v -0.15268842 0.01680412 -0.39288980
v -0.26365723 0.08202792 -0.42911187
v -0.26811519 0.07588974 -0.43248447
v -0.26211660 0.08414740 -0.43769418
v -0.26865563 0.07514567 -0.43769418
v -0.26265832 0.08340398 -0.43248447
v -0.05324742 -0.09524941 -0.40689121
v -0.15104213 0.01906896 -0.41249152
v -0.24500576 0.08387590 -0.42369277
v -0.26434494 0.05725812 -0.43769418
v -0.24377121 0.08557662 -0.43769418
v -0.17244061 -0.01038100 -0.41249152
v 0.06284466 0.18916629 -0.43248447
v 0.07255139 0.18601204 -0.43769418
v 0.06197125 0.18944868 -0.43769418
v 0.07167606 0.18629634 -0.43248447
v 0.07005795 0.18682077 -0.42911187
v 0.06446276 0.18863994 -0.42911187
v 0.06726100 0.18773004 -0.42683806
v 0.04628962 0.17982199 -0.43769418
v 0.04828552 0.17917462 -0.42369277
v 0.05228245 0.17787603 -0.41389191
v 0.07358680 0.17095345 -0.41389191
v 0.07758116 0.16965614 -0.42369277
v 0.07957962 0.16900685 -0.43769418
v 0.05894058 0.17571172 -0.40689121
v 0.06692931 0.17311776 -0.40689121
v 0.01302459 0.07064801 -0.39288980
v 0.01502113 0.06999808 -0.38728949
v 0.06293430 0.17441442 -0.40549081
v 0.02167926 0.06783633 -0.37888839
v 0.04032176 0.06177883 -0.38728949
v 0.04232023 0.06112890 -0.39288980
v 0.04498335 0.06026446 -0.41249152
v 0.01036082 0.07151181 -0.41249152
v 0.02767145 0.06588974 -0.37678812
v 0.03366364 0.06394058 -0.37888839
v -0.03283953 -0.07050202 -0.37748799
v -0.03352020 -0.06807325 -0.40689121
v -0.02707978 -0.07090222 -0.35508612
v -0.01689281 -0.07126721 -0.34528527
v -0.00354389 -0.08002049 -0.37748799
v -0.00156144 -0.07845681 -0.40689121
v -0.00843600 -0.07695844 -0.35508612
v 0.08467343 -0.35929436 -0.48599859
v 0.08467343 -0.35929436 -0.45799577
v 0.08575367 -0.36262342 -0.47199718
v 0.08142761 -0.34930781 -0.49649997
v 0.08142761 -0.34930781 -0.44749504
v 0.07710220 -0.33599219 -0.50000000
v 0.07710220 -0.33599219 -0.44399437
v 0.07277358 -0.32267593 -0.49649997
v 0.07277358 -0.32267593 -0.44749504
v 0.06974483 -0.31335468 -0.48599859
v 0.06974483 -0.31335468 -0.45799577
v 0.06844753 -0.30936031 -0.47199718
v 0.04206025 -0.37314145 -0.48599859
v 0.04314241 -0.37647051 -0.47199718
v 0.03881635 -0.36315490 -0.49649997
v 0.03449094 -0.34983864 -0.50000000
v 0.03016232 -0.33652046 -0.49649997
v 0.02713421 -0.32720113 -0.48599859
v 0.02583627 -0.32320484 -0.47199718
v 0.02713421 -0.32720113 -0.45799577
v 0.03016232 -0.33652046 -0.44749504
v 0.03449094 -0.34983864 -0.44399437
v 0.03881635 -0.36315490 -0.44749504
v 0.04206025 -0.37314145 -0.45799577
v -0.25986521 -0.23841647 -0.49649997
v -0.23720977 -0.22195556 -0.49649997
v -0.24853589 -0.23018634 -0.50000000
v -0.26835916 -0.24458859 -0.48599859
v -0.22927931 -0.21619645 -0.48599859
v -0.27119133 -0.24664532 -0.47199718
v -0.22588301 -0.21372799 -0.47199718
v -0.26835916 -0.24458859 -0.45799577
v -0.22927931 -0.21619645 -0.45799577
v -0.25986521 -0.23841647 -0.44749504
v -0.23720977 -0.22195556 -0.44749504
v -0.24853589 -0.23018634 -0.44399437
v -0.24202376 -0.28083563 -0.48599859
v -0.24485529 -0.28289428 -0.47199718
v -0.24202376 -0.28083563 -0.45799577
v -0.23352917 -0.27466351 -0.44749504
v -0.22220241 -0.26643337 -0.44399437
v -0.21087373 -0.25820452 -0.44749504
v -0.20294583 -0.25244285 -0.45799577
v -0.19954697 -0.24997375 -0.47199718
v -0.20294583 -0.25244285 -0.48599859
v -0.21087373 -0.25820452 -0.49649997
v -0.22220241 -0.26643337 -0.50000000
v -0.23352917 -0.27466351 -0.49649997
v -0.23720977 0.03148428 -0.44749504
v -0.22220241 0.07596145 -0.44399437
v -0.24853589 0.03971505 -0.44399437
v -0.21087373 0.06773068 -0.44749504
v -0.23352917 0.08419223 -0.49649997
v -0.21087373 0.06773068 -0.49649997
v -0.22220241 0.07596145 -0.50000000
v -0.24202376 0.09036435 -0.48599859
v -0.20294583 0.06197157 -0.48599859
v -0.24485529 0.09242044 -0.47199718
v -0.19954697 0.05950247 -0.47199718
v -0.24202376 0.09036435 -0.45799577
v -0.20294583 0.06197157 -0.45799577
v -0.23352917 0.08419223 -0.44749504
v -0.25986521 0.04794327 -0.44749504
v -0.23720977 0.03148428 -0.49649997
v -0.25986521 0.04794327 -0.49649997
v -0.24853589 0.03971505 -0.50000000
v -0.22927931 0.02572453 -0.48599859
v -0.26835916 0.05411731 -0.48599859
v -0.22588301 0.02325415 -0.47199718
v -0.27119133 0.05617340 -0.47199718
v -0.22927931 0.02572453 -0.45799577
v -0.26835916 0.05411731 -0.45799577
v 0.06974483 0.12288276 -0.48599859
v 0.06974483 0.12288276 -0.45799577
v 0.06844753 0.11888839 -0.47199718
v 0.07277358 0.13220401 -0.49649997
v 0.07277358 0.13220401 -0.44749504
v 0.07710220 0.14552027 -0.50000000
v 0.07710220 0.14552027 -0.44399437
v 0.08142761 0.15883588 -0.49649997
v 0.08142761 0.15883588 -0.44749504
v 0.08467343 0.16882308 -0.48599859
v 0.08467343 0.16882308 -0.45799577
v 0.08575367 0.17215150 -0.47199718
v 0.04314241 0.18599859 -0.47199718
v 0.04206025 0.18266953 -0.48599859
v 0.04206025 0.18266953 -0.45799577
v 0.03881635 0.17268297 -0.44749504
v 0.03449094 0.15936415 -0.44399437
v 0.03016232 0.14604854 -0.44749504
v 0.02713421 0.13672728 -0.45799577
v 0.02583627 0.13273292 -0.47199718
v 0.02713421 0.13672728 -0.48599859
v 0.03016232 0.14604854 -0.49649997
v 0.03449094 0.15936415 -0.50000000
v 0.03881635 0.17268297 -0.49649997
v 0.24974611 -0.11763783 -0.49649997
v 0.22174329 -0.11763783 -0.49649997
v 0.23574470 -0.11763783 -0.50000000
v 0.26024621 -0.11763783 -0.48599859
v 0.21194243 -0.11763783 -0.48599859
v 0.26374688 -0.11763783 -0.47199718
v 0.20774188 -0.11763783 -0.47199718
v 0.26024621 -0.11763783 -0.45799577
v 0.21194243 -0.11763783 -0.45799577
v 0.24974611 -0.11763783 -0.44749504
v 0.22174329 -0.11763783 -0.44749504
v 0.23574470 -0.11763783 -0.44399437
v 0.26024621 -0.07283345 -0.48599859
v 0.26374688 -0.07283345 -0.47199718
v 0.26024621 -0.07283345 -0.45799577
v 0.24974611 -0.07283345 -0.44749504
v 0.23574470 -0.07283345 -0.44399437
v 0.22174329 -0.07283345 -0.44749504
v 0.21194243 -0.07283345 -0.45799577
v 0.20774188 -0.07283345 -0.47199718
v 0.21194243 -0.07283345 -0.48599859
v 0.22174329 -0.07283345 -0.49649997
v 0.23574470 -0.07283345 -0.50000000
v 0.24974611 -0.07283345 -0.49649997
v 0.07332874 0.33407441 0.32759237
v 0.02944323 0.28447205 0.38288660
v 0.02944323 0.34500480 0.35857463
v 0.07332874 0.27354357 0.35190369
v 0.00785906 0.28821092 0.39348530
v 0.00786098 0.34874368 0.36917398
v -0.08474259 0.28846385 0.39330793
v -0.13110873 0.27710380 0.36110328
v -0.12543606 0.27354357 0.35190369
v -0.13458763 0.25197989 0.29237434
v -0.08154991 0.28447205 0.38288660
v -0.12493469 0.30275149 0.44248895
v -0.14675450 0.25507140 0.30024332
v -0.12543606 0.33407441 0.32759237
v -0.05781936 0.29324710 0.40686752
v -0.15933502 0.28507652 0.38499136
v -0.08604630 0.31122943 0.47391625
v -0.14905648 0.24849395 0.28159890
v -0.13458763 0.31406480 0.26743805
v -0.05996830 0.28821092 0.39348530
v -0.13689921 0.31443683 0.45521163
v -0.09651758 0.32579753 0.48741756
v -0.05781936 0.25323622 0.29344753
v -0.05780848 0.25733816 0.30596209
v -0.15820164 0.35142793 0.38284049
v -0.04884517 0.29085420 0.40008772
v -0.02880931 0.30894666 0.47483383
v -0.17130211 0.29447909 0.39863226
v -0.02880931 0.32579753 0.48741756
v -0.15354453 0.23584555 0.24414740
v -0.19490523 0.26267913 0.34367420
v -0.05780848 0.32097586 0.28040149
v -0.12771691 0.37117244 0.43881731
v -0.17948358 0.33628994 0.33993213
v -0.05564929 0.28447205 0.38288660
v -0.14587341 0.33068963 0.46610040
v -0.10698758 0.34264840 0.50000000
v -0.02880931 0.34627265 0.49854453
v -0.05034161 0.25443299 0.29683806
v -0.06978517 0.23823846 0.25092784
v -0.18557694 0.26827496 0.14711917
v -0.08154991 0.34500480 0.35857463
v -0.13415093 0.36478389 0.45499072
v -0.19800122 0.32654095 0.30949222
v -0.16639656 0.34415381 0.39650573
v -0.05564929 0.34500480 0.35857463
v -0.02880931 0.29145226 0.40178267
v 0.04162739 0.31122943 0.47391625
v -0.19672889 0.27893193 0.35456298
v -0.18027502 0.30772299 0.40685855
v 0.05209867 0.32579753 0.48741756
v -0.17292470 0.23525005 0.24245246
v -0.16830921 0.21256515 0.16641673
v -0.02880931 0.16848947 -0.15087405
v -0.18311936 0.27338733 0.16160786
v -0.09404207 0.37992252 0.47156560
v -0.09853333 0.37663444 0.48858744
v -0.21213069 0.31769674 0.28441506
v -0.18890600 0.32814305 0.35112057
v -0.05996830 0.34874368 0.36917398
v -0.00326151 0.29085420 0.40008772
v 0.00571268 0.29324710 0.40686752
v -0.23428411 0.22290837 0.31901005
v -0.14950022 0.34157072 0.46638855
v -0.10705289 0.35336300 0.49981623
v -0.02880931 0.35543062 0.49898636
v 0.06256739 0.34264840 0.50000000
v -0.04585484 0.24003266 0.25601268
v 0.00354453 0.34500480 0.35857463
v 0.00570116 0.32097586 0.28040149
v -0.16000672 0.16369981 -0.14934430
v -0.19295415 0.27948069 0.17888327
v -0.19274989 0.26161042 0.16250432
v -0.10692547 0.36410258 0.49912467
v -0.14405936 0.35287699 0.46730102
v -0.22098130 0.30446565 0.25282897
v -0.21327496 0.31783057 0.31892361
v -0.17768041 0.33155664 0.40685855
v -0.02880931 0.25742332 0.30531280
v -0.00176506 0.25443299 0.29683806
v 0.08051578 0.30275149 0.44248895
v 0.03263527 0.28846385 0.39330793
v -0.20719696 0.28554652 0.36158161
v -0.23860697 0.23617468 0.32916309
v -0.18331402 0.31960556 0.40693987
v 0.09248095 0.31443683 0.45521163
v -0.24608536 0.20057565 0.30669271
v -0.21668214 0.18328552 0.20526926
v -0.02880931 0.24063136 0.25770763
v 0.14115803 0.26827496 0.14711917
v -0.16830537 0.14559198 -0.16639431
v -0.20131235 0.25532241 0.11351348
v -0.21530928 0.28952552 0.21047704
v -0.20315393 0.26909266 0.18035986
v -0.19535154 0.25724211 0.14676250
v -0.02880931 0.37992252 0.47156560
v -0.02880931 0.37663444 0.48858744
v -0.02880931 0.36410258 0.49912467
v -0.22343696 0.30934046 0.29205225
v -0.20114907 0.31486457 0.35953960
v 0.00354453 0.28447205 0.38288660
v 0.06263207 0.35336300 0.49981623
v 0.10145515 0.33068963 0.46610040
v -0.25296504 0.18309278 0.29242876
v -0.25057277 0.17477044 0.25706794
v -0.20420663 0.18373375 0.17799705
v 0.12389095 0.21256515 0.16641673
v 0.00570116 0.25733816 0.30596209
v 0.08248031 0.31406480 0.26743805
v 0.11558846 0.16369981 -0.14934430
v -0.18963021 0.15078952 -0.15165909
v -0.02880931 0.15080041 -0.16806877
v -0.18016937 0.16861433 -0.13541269
v -0.22679932 0.28073510 0.21336748
v -0.21600147 0.25594288 0.18044247
v -0.20515624 0.24922200 0.16139271
v -0.23279919 0.29731959 0.25784978
v -0.22874400 0.30766024 0.32454697
v -0.21065409 0.29740667 0.36093680
v 0.04962317 0.37992252 0.47156560
v -0.00625248 0.24003266 0.25601268
v 0.11491676 0.28507652 0.38499136
v 0.07900141 0.27710380 0.36110328
v -0.24758180 0.25369085 0.33567330
v -0.25356310 0.20718448 0.31758468
v 0.12688128 0.29447909 0.39863226
v -0.26553019 0.17536915 0.25876289
v -0.22514599 0.18153999 0.20983992
v -0.21766825 0.16594672 0.15611385
v 0.13585548 0.18207146 0.07997119
v 0.08248031 0.25197989 0.29237434
v 0.13869853 0.27338733 0.16160786
v 0.15689409 0.25532241 0.11351348
v 0.12388647 0.14559198 -0.16639431
v -0.20190337 0.13368253 -0.16615355
v -0.17966991 0.12453608 -0.18002049
v -0.22491484 0.22504963 0.02769482
v -0.21199366 0.24455785 0.11080745
v -0.24065474 0.27088942 0.21372991
v -0.20786739 0.24358776 0.14541461
v 0.05411251 0.37663444 0.48858744
v -0.23714894 0.30057437 0.29581994
v -0.23990683 0.28844592 0.32730230
v 0.01767785 0.23823846 0.25092784
v 0.00571268 0.25323622 0.29344753
v 0.06250656 0.36410258 0.49912467
v 0.10508196 0.34157072 0.46638855
v 0.13585548 0.30772299 0.40685855
v -0.26253730 0.18307485 0.29630531
v -0.21916277 0.18198886 0.18256771
v -0.18027502 0.18207146 0.07997119
v 0.17324998 0.16594672 0.15611385
v 0.14853333 0.27948069 0.17888327
v 0.14833163 0.26161042 0.16250432
v 0.15093264 0.25724211 0.14676250
v 0.13574854 0.16861433 -0.13541269
v 0.14521067 0.15078952 -0.15165909
v -0.20003298 0.15411603 -0.14222898
v -0.21274861 0.13715118 -0.15632068
v 0.13525037 0.12826151 -0.18151694
v -0.02880931 0.13156624 -0.18224179
v -0.19000416 0.17175962 -0.12649741
v -0.24691202 0.28736377 0.26043414
v -0.22606230 0.22278543 0.19356919
v -0.21527150 0.21559390 0.17318627
v -0.21814721 0.20926746 0.15524941
v -0.25237594 0.27370109 0.30436832
v 0.08329609 0.37117244 0.43881731
v 0.15048697 0.26267913 0.34367420
v 0.09464654 0.25507140 0.30024332
v -0.26403375 0.21684831 0.32144394
v 0.15230806 0.27893193 0.35456298
v -0.27284722 0.18790741 0.29823526
v -0.26717071 0.18084651 0.25075751
v -0.24010149 0.19036050 0.20629826
v -0.22664244 0.16980662 0.16230326
v -0.23561664 0.13014728 0.12598322
v 0.13735192 0.14728373 0.01653775
v 0.15978773 0.18373375 0.17799705
v 0.19119581 0.13014728 0.12598322
v 0.10143658 0.23584555 0.24414740
v 0.09694980 0.24849395 0.28159890
v 0.17089038 0.29048921 0.21008965
v 0.15873311 0.26909266 0.18035986
v 0.16757732 0.24455785 0.11080745
v 0.18049657 0.22504963 0.02769482
v 0.15748255 0.13368253 -0.16615355
v -0.21669623 0.10762246 -0.15578408
v -0.19006691 0.11205609 -0.17525005
v -0.22049081 0.19635013 -0.05366588
v -0.23696132 0.21253890 0.02003586
v -0.22521963 0.23036371 0.10792790
v -0.25363930 0.24347762 0.22435359
v -0.23613466 0.19632580 0.11855926
v 0.08973202 0.36478389 0.45499072
v -0.26244765 0.25958251 0.27001153
v 0.09964046 0.35287699 0.46730102
v 0.13889575 0.31960556 0.40693987
v 0.16277870 0.28554652 0.36158161
v -0.23112922 0.19259397 0.18217904
v -0.18177147 0.14728373 0.01653775
v 0.16427515 0.18328552 0.20526926
v 0.17474387 0.18198886 0.18256771
v 0.18222354 0.16980662 0.16230326
v 0.12850387 0.23525005 0.24245246
v 0.11378274 0.35142793 0.38284049
v 0.17656304 0.30542870 0.25244093
v 0.18238106 0.28073510 0.21336748
v 0.17158321 0.25594288 0.18044247
v 0.16073798 0.24922200 0.16139271
v 0.16344913 0.24358776 0.14541461
v 0.14558270 0.17175962 -0.12649741
v 0.15561215 0.15515336 -0.14264583
v 0.16833035 0.13715118 -0.15632068
v -0.21043446 0.16118397 -0.12555228
v -0.22359320 0.14343664 -0.13849971
v -0.22554236 0.10429148 -0.14234552
v -0.18954953 0.11083499 -0.17450855
v 0.14564801 0.11205609 -0.17525005
v -0.19983832 0.17746110 -0.11033617
v -0.23412019 0.18256259 0.16492092
v -0.25206922 0.15109816 0.13304988
v 0.18641512 0.22290837 0.31901005
v 0.19418870 0.23617468 0.32916309
v -0.24459147 0.13901646 0.13209771
v -0.25954697 0.06291029 0.05429596
v 0.13436159 0.11375424 -0.04933726
v 0.21512807 0.06291029 0.05429596
v 0.18072773 0.18153999 0.20983992
v 0.20017001 0.13901646 0.13209771
v 0.13506467 0.33628994 0.33993213
v 0.16771179 0.31769674 0.28441506
v 0.18837965 0.29731959 0.25785042
v 0.19623647 0.27088942 0.21372991
v 0.18080137 0.23036371 0.10792790
v 0.19254178 0.21253890 0.02003586
v 0.17607191 0.19635013 -0.05366588
v 0.17227989 0.10762246 -0.15578408
v -0.22609560 0.07666709 -0.14290709
v 0.14512999 0.11083499 -0.17450855
v -0.23227861 0.18218352 -0.06602036
v -0.25124896 0.19698021 0.01329000
v -0.26131427 0.16325158 0.02479670
v -0.26866460 0.08206570 0.05627777
v 0.12197765 0.34415381 0.39650573
v 0.13326215 0.33155664 0.40685855
v 0.16623327 0.29740667 0.36093680
v 0.20316354 0.25369085 0.33567330
v -0.17878050 0.11375424 -0.04933726
v 0.20615387 0.17477044 0.25706794
v 0.22111129 0.17536915 0.25876289
v 0.19568259 0.19036050 0.20629826
v 0.18671096 0.19259397 0.18217904
v 0.18970129 0.18256259 0.16492092
v 0.15358295 0.32654095 0.30949222
v 0.17901806 0.30847538 0.29239931
v 0.20249120 0.28736377 0.26043414
v 0.18164404 0.22278543 0.19356919
v 0.17085196 0.21559390 0.17318627
v 0.17372895 0.20926746 0.15524941
v 0.19171576 0.19632580 0.11855926
v 0.15541749 0.17649549 -0.10994941
v 0.16601620 0.16118397 -0.12555228
v 0.17917494 0.14343664 -0.13849971
v 0.18112153 0.10429148 -0.14234552
v -0.24636966 0.16533073 -0.07643209
v -0.23253666 0.11062048 -0.12440866
v -0.23561664 0.05646283 -0.12308318
v -0.25968976 0.06971121 0.05930524
v 0.20166709 0.20057565 0.30669271
v 0.20914484 0.20718448 0.31758468
v -0.25356310 0.02488058 -0.01557597
v 0.12987418 0.09195428 -0.09863546
v 0.20914484 0.02488058 -0.01557597
v 0.22410226 0.06971121 0.05930524
v 0.21093648 0.18309278 0.29242876
v 0.23158065 0.18084651 0.25075751
v 0.20765032 0.15109816 0.13304988
v 0.14448774 0.32814305 0.35112057
v 0.16407601 0.31783057 0.31892361
v 0.19273068 0.30057437 0.29581994
v 0.20922040 0.24347762 0.22435359
v 0.21689537 0.16325158 0.02479670
v 0.20683070 0.19698021 0.01329000
v 0.18786034 0.18218352 -0.06602036
v 0.18167734 0.07666709 -0.14290645
v -0.21227797 0.06997567 -0.14159442
v -0.18464078 0.11083499 -0.17450855
v -0.25555901 0.13218928 -0.06325863
v -0.26268073 0.03838189 -0.02486905
v -0.26253730 0.02428443 -0.01727156
v 0.15673017 0.31486457 0.35953960
v 0.19548793 0.28844592 0.32730230
v 0.21961484 0.21684831 0.32144394
v -0.17429308 0.09195428 -0.09863546
v 0.21811904 0.18307485 0.29630531
v 0.23008356 0.18790741 0.29823526
v 0.18432509 0.30411411 0.32597106
v 0.21802939 0.25958571 0.27001153
v 0.23307710 0.08206570 0.05627777
v 0.20194884 0.16533073 -0.07643209
v 0.18811776 0.11062048 -0.12440866
v 0.19119581 0.05646283 -0.12308318
v -0.24758180 0.04018057 -0.09525709
v -0.22364955 0.04323366 -0.11777038
v 0.14022251 0.11083499 -0.17450855
v -0.22813697 0.02286611 -0.08249856
v 0.12389095 0.08643465 -0.13512198
v 0.18371806 0.02286611 -0.08249856
v 0.21811904 0.02428443 -0.01727156
v 0.20795703 0.27370109 0.30436832
v 0.22709259 0.03838189 -0.02486905
v 0.21114010 0.13218928 -0.06325863
v 0.16785970 0.06997567 -0.14159442
v -0.19527086 0.06788500 -0.14075495
v -0.16869661 0.10304988 -0.17138119
v -0.23561664 0.02401293 -0.08876353
v -0.16830921 0.08643465 -0.13512198
v 0.20316354 0.04018057 -0.09525709
v 0.17923129 0.04323366 -0.11777038
v -0.21018794 0.03882564 -0.11599987
v 0.12427579 0.10304988 -0.17138119
v 0.12427579 0.09570916 -0.15468080
v 0.16576903 0.03882564 -0.11599987
v 0.19119581 0.02401293 -0.08876353
v 0.15085196 0.06788500 -0.14075495
v -0.16869661 0.09570916 -0.15468080
v -0.09929340 0.29893193 0.43662483
v -0.10595729 0.29766216 0.43290197
v -0.09641897 0.29767113 0.43292694
v -0.10892777 0.29826919 0.43467824
v -0.10729942 0.30017097 0.44026317
v -0.11264936 0.29853365 0.43545687
v -0.11462093 0.30032529 0.44071140
v -0.11724819 0.29833387 0.43487289
v -0.12075207 0.29992700 0.43954409
v -0.12097106 0.29767113 0.43292694
v -0.12666421 0.29899725 0.43681949
v -0.12191298 0.29720753 0.43156496
v -0.13060415 0.29727412 0.43175962
v -0.13104341 0.29641224 0.42922969
v -0.13109976 0.29541781 0.42631043
v -0.10389223 0.29541781 0.42631043
v -0.09556989 0.29707562 0.43117564
v -0.09556989 0.29528270 0.42592111
v -0.10654895 0.29459115 0.42389063
v -0.09973202 0.29349299 0.42066658
v -0.10848915 0.29430685 0.42305308
v -0.10673657 0.29243132 0.41755331
v -0.11264936 0.29419415 0.42272267
v -0.11330761 0.29229942 0.41716399
v -0.11740955 0.29422296 0.42280784
v -0.12009573 0.29243132 0.41755331
v -0.11957130 0.29472306 0.42427995
v -0.12775917 0.29369277 0.42125056
v -0.12950919 0.29472306 0.42427995
v -0.08615643 0.30019146 0.44032208
v -0.09272427 0.30012678 0.44012743
v -0.09272427 0.28918038 0.40801754
v -0.08965774 0.28904847 0.40762823
v -0.08462157 0.29727412 0.43175962
v -0.08440450 0.29508612 0.42533777
v -0.08506083 0.28904847 0.40762823
v -0.08593680 0.29926362 0.43759749
v -0.07980566 0.29833387 0.43487289
v -0.07827272 0.30025869 0.44051674
v -0.07498911 0.29846898 0.43526221
v -0.07060927 0.30025869 0.44051674
v -0.06995230 0.29800218 0.43390024
v -0.06360216 0.29939617 0.43798681
v -0.06710604 0.29714030 0.43137030
v -0.05900525 0.29813729 0.43428956
v -0.06644906 0.29594608 0.42786707
v -0.05747038 0.29621246 0.42864571
v -0.06841871 0.29468720 0.42416981
v -0.05966159 0.29415637 0.42261318
v -0.07148524 0.29422296 0.42280784
v -0.06425850 0.29289492 0.41891528
v -0.07564545 0.29415637 0.42261318
v -0.07038964 0.29223154 0.41696933
v -0.07958603 0.29428892 0.42300186
v -0.07674041 0.29216687 0.41677467
v -0.08243293 0.29475251 0.42436447
v -0.08484120 0.29282961 0.41872127
v -0.02769130 0.29919703 0.43740283
v -0.02878690 0.29734008 0.43195428
v -0.02002785 0.29216687 0.41677467
v -0.03316610 0.29820196 0.43448422
v -0.02747423 0.29329385 0.42008260
v -0.02002785 0.30025869 0.44051674
v -0.03425914 0.30019146 0.44032208
v -0.02791093 0.29216687 0.41677467
v -0.02769130 0.30025869 0.44051674
v -0.03842127 0.29846898 0.43526221
v -0.04126689 0.30032529 0.44071140
v -0.04389479 0.29793750 0.43370558
v -0.04805500 0.29979510 0.43915413
v -0.04674169 0.29700839 0.43098098
v -0.05360344 0.29839278 0.43504450
v -0.04717840 0.29561439 0.42689441
v -0.05571845 0.29680861 0.43039700
v -0.04367772 0.29428892 0.42300186
v -0.05528174 0.29508612 0.42533777
v -0.05241179 0.29341231 0.42042966
v -0.04520939 0.29229942 0.41716399
v -0.03754594 0.29216687 0.41677467
v -0.03798265 0.29408913 0.42241852
v -0.03338573 0.29236601 0.41735865
v -0.03294647 0.29415637 0.42261318
v -0.02769130 0.29554972 0.42669975
v -0.00501089 0.30007236 0.43996990
v -0.01013735 0.29940065 0.43799577
v -0.00842703 0.29707050 0.43116412
v -0.00569476 0.29784786 0.43344112
v -0.01679932 0.29225908 0.41704489
v -0.00091151 0.30027918 0.44057694
v -0.00859736 0.29225908 0.41704489
v -0.01679932 0.30017545 0.44027342
v -0.00176506 0.29841711 0.43511174
v 0.00404143 0.30022732 0.44042518
v 0.00165109 0.29846898 0.43526285
v 0.00916725 0.29976116 0.43905872
v 0.00489755 0.29820900 0.43450407
v 0.01412019 0.29888071 0.43647756
v 0.00677691 0.29769162 0.43298585
v 0.01702600 0.29774284 0.43313761
v 0.03229782 0.30027598 0.44056733
v 0.02762214 0.29808094 0.43412691
v 0.03253026 0.29843504 0.43516617
v 0.02575174 0.29999168 0.43973618
v 0.03930941 0.30013575 0.44015176
v 0.02504995 0.29708907 0.43121854
v 0.03720593 0.29829353 0.43474995
v 0.01967375 0.29871742 0.43599667
v 0.04655600 0.29900173 0.43682782
v 0.02458187 0.29546008 0.42643978
v 0.04094672 0.29751425 0.43246462
v 0.05076359 0.29744253 0.43225716
v 0.01569988 0.29609848 0.42830953
v 0.01780336 0.29404431 0.42228405
v 0.02364827 0.29269770 0.41833707
v 0.02902446 0.29418582 0.42269962
v 0.03182910 0.29213293 0.41667478
v 0.03580361 0.29411603 0.42249216
v 0.04024300 0.29241532 0.41750592
v 0.04164788 0.29489339 0.42477749
v 0.04772588 0.29347698 0.42062240
v 0.05052987 0.29489339 0.42477749
v 0.05914612 0.29626689 0.42880515
v 0.05342928 0.29398156 0.42209835
v 0.05960332 0.29266440 0.41823718
v 0.06034097 0.29744701 0.43227188
v 0.06086028 0.29495101 0.42494397
v 0.05102805 0.29533265 0.42606198
v 0.06669111 0.29225011 0.41701799
v 0.06669111 0.29412051 0.42250496
v 0.05728277 0.29955753 0.43846001
v 0.07435071 0.29242236 0.41752641
v 0.06526894 0.30027406 0.44056477
v 0.07195140 0.29415381 0.42260677
v 0.06470673 0.29836524 0.43496190
v 0.08109784 0.29325351 0.41996478
v 0.07267753 0.30024076 0.44046296
v 0.07572357 0.29474355 0.42433438
v 0.07190401 0.29839662 0.43505347
v 0.08589902 0.29477685 0.42443555
v 0.07938176 0.29955753 0.43845873
v 0.07778286 0.29547160 0.42646795
v 0.07640936 0.29751425 0.43246334
v 0.08647019 0.29699494 0.43093936
v 0.08384037 0.29841455 0.43510533
v 0.07801146 0.29640520 0.42921176
v 0.08570628 0.29142793 0.41460972
v -0.08264808 0.28975411 0.40969777
v 0.08575751 0.28978549 0.40978741
v -0.08264808 0.29142793 0.41460972
v -0.13118685 0.29138503 0.41448358
v -0.13118685 0.28959531 0.40923161
v -0.09523564 0.29138503 0.41448358
v -0.09523564 0.28959531 0.40923161
f 1 2 3
f 3 2 1
f 1 4 2
f 2 4 1
f 2 5 3
f 3 5 2
f 6 1 3
f 3 1 6
f 7 4 1
f 1 4 7
f 4 8 2
f 2 8 4
f 2 9 5
f 5 9 2
f 3 5 10
f 10 5 3
f 11 1 6
f 6 1 11
f 6 3 12
f 12 3 6
f 7 13 4
f 4 13 7
f 11 7 1
f 1 7 11
f 4 14 8
f 8 14 4
f 2 8 9
f 9 8 2
f 9 15 5
f 5 15 9
f 5 16 10
f 10 16 5
f 3 10 12
f 12 10 3
f 11 6 17
f 17 6 11
f 6 12 18
f 18 12 6
f 19 13 7
f 7 13 19
f 4 13 14
f 14 13 4
f 20 7 11
f 11 7 20
f 8 14 21
f 21 14 8
f 8 22 9
f 9 22 8
f 9 23 15
f 15 23 9
f 5 15 16
f 16 15 5
f 10 16 24
f 24 16 10
f 12 10 25
f 25 10 12
f 26 11 17
f 17 11 26
f 17 6 18
f 18 6 17
f 12 27 18
f 18 27 12
f 19 28 13
f 13 28 19
f 20 19 7
f 7 19 20
f 13 29 14
f 14 29 13
f 20 11 26
f 26 11 20
f 14 30 21
f 21 30 14
f 8 21 22
f 22 21 8
f 9 22 23
f 23 22 9
f 23 31 15
f 15 31 23
f 15 32 16
f 16 32 15
f 16 33 24
f 24 33 16
f 10 24 25
f 25 24 10
f 12 25 27
f 27 25 12
f 17 34 26
f 26 34 17
f 17 18 35
f 35 18 17
f 27 36 18
f 18 36 27
f 37 28 19
f 19 28 37
f 13 28 29
f 29 28 13
f 38 19 20
f 20 19 38
f 29 30 14
f 14 30 29
f 39 20 26
f 26 20 39
f 30 40 21
f 21 40 30
f 21 41 22
f 22 41 21
f 23 22 42
f 42 22 23
f 23 43 31
f 31 43 23
f 15 31 32
f 32 31 15
f 16 32 33
f 33 32 16
f 33 44 24
f 24 44 33
f 25 24 45
f 45 24 25
f 25 46 27
f 27 46 25
f 26 34 47
f 47 34 26
f 17 35 34
f 34 35 17
f 35 18 36
f 36 18 35
f 27 48 36
f 36 48 27
f 37 49 28
f 28 49 37
f 38 37 19
f 19 37 38
f 28 50 29
f 29 50 28
f 39 38 20
f 20 38 39
f 29 51 30
f 30 51 29
f 26 47 39
f 39 47 26
f 30 52 40
f 40 52 30
f 40 41 21
f 21 41 40
f 41 42 22
f 22 42 41
f 23 42 43
f 43 42 23
f 43 53 31
f 31 53 43
f 31 53 32
f 32 53 31
f 32 54 33
f 33 54 32
f 33 54 44
f 44 54 33
f 24 44 45
f 45 44 24
f 25 45 46
f 46 45 25
f 27 46 48
f 48 46 27
f 34 55 47
f 47 55 34
f 35 48 34
f 34 48 35
f 35 36 48
f 48 36 35
f 29 50 51
f 51 50 29
f 51 52 30
f 30 52 51
f 39 47 56
f 56 47 39
f 52 57 40
f 40 57 52
f 41 40 58
f 58 40 41
f 42 41 59
f 59 41 42
f 43 42 60
f 60 42 43
f 43 61 53
f 53 61 43
f 32 53 54
f 54 53 32
f 44 54 62
f 62 54 44
f 44 62 45
f 45 62 44
f 45 63 46
f 46 63 45
f 46 55 48
f 48 55 46
f 47 55 64
f 64 55 47
f 34 48 55
f 55 48 34
f 50 65 51
f 51 65 50
f 51 66 52
f 52 66 51
f 47 64 56
f 56 64 47
f 52 67 57
f 57 67 52
f 40 57 58
f 58 57 40
f 41 58 59
f 59 58 41
f 42 59 60
f 60 59 42
f 60 61 43
f 43 61 60
f 61 68 53
f 53 68 61
f 54 69 62
f 62 69 54
f 45 62 63
f 63 62 45
f 46 63 55
f 55 63 46
f 63 64 55
f 55 64 63
f 70 65 50
f 50 65 70
f 65 66 51
f 51 66 65
f 52 66 67
f 67 66 52
f 71 57 67
f 67 57 71
f 57 72 58
f 58 72 57
f 58 73 59
f 59 73 58
f 59 74 60
f 60 74 59
f 60 75 61
f 61 75 60
f 53 68 76
f 76 68 53
f 62 69 77
f 77 69 62
f 62 77 63
f 63 77 62
f 63 77 64
f 64 77 63
f 70 78 65
f 65 78 70
f 65 79 66
f 66 79 65
f 66 80 67
f 67 80 66
f 81 71 67
f 67 71 81
f 71 72 57
f 57 72 71
f 72 73 58
f 58 73 72
f 59 73 74
f 74 73 59
f 74 75 60
f 60 75 74
f 75 82 61
f 61 82 75
f 68 83 76
f 76 83 68
f 77 69 84
f 84 69 77
f 77 85 64
f 64 85 77
f 65 78 79
f 79 78 65
f 66 79 80
f 80 79 66
f 81 67 80
f 80 67 81
f 81 86 71
f 71 86 81
f 72 71 87
f 87 71 72
f 73 72 88
f 88 72 73
f 73 89 74
f 74 89 73
f 74 90 75
f 75 90 74
f 90 82 75
f 75 82 90
f 82 91 61
f 61 91 82
f 76 83 92
f 92 83 76
f 83 84 69
f 69 84 83
f 77 84 85
f 85 84 77
f 64 85 93
f 93 85 64
f 79 94 80
f 80 94 79
f 95 81 80
f 80 81 95
f 81 96 86
f 86 96 81
f 71 86 87
f 87 86 71
f 72 87 88
f 88 87 72
f 73 88 89
f 89 88 73
f 89 90 74
f 74 90 89
f 90 97 82
f 82 97 90
f 82 98 91
f 91 98 82
f 83 69 92
f 92 69 83
f 84 99 85
f 85 99 84
f 93 85 100
f 100 85 93
f 94 95 80
f 80 95 94
f 95 96 81
f 81 96 95
f 96 101 86
f 86 101 96
f 87 86 102
f 102 86 87
f 87 103 88
f 88 103 87
f 89 88 104
f 104 88 89
f 89 105 90
f 90 105 89
f 105 97 90
f 90 97 105
f 97 98 82
f 82 98 97
f 98 106 91
f 91 106 98
f 85 99 100
f 100 99 85
f 91 99 84
f 84 99 91
f 93 100 107
f 107 100 93
f 94 108 95
f 95 108 94
f 95 109 96
f 96 109 95
f 86 101 102
f 102 101 86
f 87 102 103
f 103 102 87
f 103 104 88
f 88 104 103
f 104 105 89
f 89 105 104
f 105 110 97
f 97 110 105
f 97 111 98
f 98 111 97
f 98 111 106
f 106 111 98
f 106 99 91
f 91 99 106
f 100 99 112
f 112 99 100
f 107 100 113
f 113 100 107
f 93 107 114
f 114 107 93
f 95 115 109
f 115 95 108
f 108 95 115
f 109 115 95
f 116 102 101
f 101 102 116
f 117 103 102
f 102 103 117
f 118 104 103
f 103 104 118
f 104 119 105
f 105 119 104
f 119 110 105
f 105 110 119
f 110 111 97
f 97 111 110
f 111 112 106
f 106 112 111
f 106 112 99
f 99 112 106
f 100 112 113
f 113 112 100
f 107 113 120
f 120 113 107
f 93 114 121
f 121 114 93
f 107 122 114
f 114 122 107
f 123 116 101
f 101 116 123
f 116 117 102
f 102 117 116
f 117 118 103
f 103 118 117
f 118 119 104
f 104 119 118
f 119 124 110
f 110 124 119
f 110 125 111
f 111 125 110
f 125 112 111
f 111 112 125
f 113 112 125
f 125 112 113
f 120 113 126
f 126 113 120
f 107 120 122
f 122 120 107
f 121 114 127
f 127 114 121
f 114 122 128
f 128 122 114
f 123 101 129
f 129 101 123
f 130 116 123
f 123 116 130
f 131 117 116
f 116 117 131
f 132 118 117
f 117 118 132
f 133 119 118
f 118 119 133
f 133 124 119
f 119 124 133
f 124 125 110
f 110 125 124
f 113 125 126
f 126 125 113
f 120 126 134
f 134 126 120
f 120 135 122
f 122 135 120
f 114 128 127
f 127 128 114
f 122 136 128
f 128 136 122
f 130 131 116
f 116 131 130
f 131 132 117
f 117 132 131
f 132 133 118
f 118 133 132
f 137 124 133
f 133 124 137
f 126 125 124
f 124 125 126
f 134 126 137
f 137 126 134
f 120 134 135
f 135 134 120
f 122 135 136
f 136 135 122
f 127 128 131
f 131 128 127
f 128 136 132
f 132 136 128
f 127 131 130
f 130 131 127
f 131 128 132
f 132 128 131
f 132 136 133
f 133 136 132
f 136 137 133
f 133 137 136
f 137 126 124
f 124 126 137
f 135 134 137
f 137 134 135
f 135 137 136
f 136 137 135
f 53 76 92
f 53 92 54
f 69 54 92
f 64 56 93
f 121 93 56
f 56 93 121
f 93 56 64
f 130 39 127
f 39 56 127
f 38 39 130
f 127 56 121
f 123 38 130
f 37 38 123
f 129 37 123
f 129 49 37
f 49 129 138
f 49 138 139
f 109 138 129
f 140 49 139
f 138 109 115
f 96 109 129
f 50 140 70
f 140 50 49
f 129 101 96
f 49 50 28
f 61 91 68
f 84 68 91
f 84 83 68
f 141 142 143
f 142 141 144
f 145 141 146
f 141 145 144
f 144 147 142
f 147 144 148
f 141 149 150
f 149 141 143
f 145 148 144
f 148 145 151
f 146 150 152
f 150 146 141
f 148 153 147
f 153 148 154
f 150 155 156
f 155 150 149
f 151 154 148
f 154 151 157
f 158 150 156
f 150 158 152
f 153 159 160
f 159 153 154
f 156 161 162
f 161 156 155
f 159 157 163
f 157 159 154
f 164 156 162
f 156 164 158
f 160 165 166
f 165 160 159
f 167 161 168
f 161 167 162
f 159 169 165
f 169 159 163
f 170 162 167
f 162 170 164
f 171 165 172
f 165 171 166
f 173 168 174
f 168 173 167
f 165 175 172
f 175 165 169
f 176 167 173
f 167 176 170
f 174 172 173
f 172 174 171
f 172 176 173
f 176 172 175
f 144 141 142
f 143 142 141
f 144 145 141
f 146 141 145
f 148 144 147
f 142 147 144
f 143 141 149
f 150 149 141
f 151 145 148
f 144 148 145
f 141 146 150
f 152 150 146
f 154 148 153
f 147 153 148
f 149 150 155
f 156 155 150
f 157 151 154
f 148 154 151
f 152 158 150
f 156 150 158
f 154 153 159
f 160 159 153
f 155 156 161
f 162 161 156
f 154 159 157
f 163 157 159
f 158 164 156
f 162 156 164
f 159 160 165
f 166 165 160
f 162 167 161
f 168 161 167
f 163 159 169
f 165 169 159
f 164 170 162
f 167 162 170
f 166 171 165
f 172 165 171
f 167 173 168
f 174 168 173
f 169 165 175
f 172 175 165
f 170 176 167
f 173 167 176
f 171 174 172
f 173 172 174
f 175 172 176
f 173 176 172
f 177 178 179
f 179 178 177
f 180 177 179
f 179 177 180
f 178 181 179
f 179 181 178
f 182 177 180
f 180 177 182
f 183 180 179
f 180 183 184
f 184 183 180
f 179 180 183
f 178 185 181
f 181 185 178
f 179 181 183
f 183 181 179
f 186 182 180
f 180 182 186
f 184 186 180
f 186 184 187
f 187 184 186
f 180 186 184
f 184 183 188
f 188 183 184
f 181 185 189
f 189 185 181
f 183 181 190
f 190 181 183
f 182 186 191
f 191 186 182
f 187 184 188
f 188 184 187
f 192 186 187
f 187 186 192
f 188 183 190
f 190 183 188
f 189 185 193
f 193 185 189
f 181 189 190
f 190 189 181
f 191 186 194
f 194 186 191
f 192 187 188
f 188 187 192
f 186 192 194
f 194 192 186
f 188 190 195
f 195 190 188
f 189 193 196
f 196 193 189
f 189 196 190
f 190 196 189
f 191 194 197
f 197 194 191
f 192 188 198
f 198 188 192
f 194 192 199
f 199 192 194
f 200 201 202
f 201 200 195
f 195 200 188
f 188 200 198
f 198 200 203
f 203 200 198
f 198 200 188
f 188 200 195
f 195 200 201
f 202 201 200
f 195 190 196
f 196 190 195
f 193 204 196
f 196 204 193
f 197 194 205
f 205 194 197
f 199 192 198
f 198 192 199
f 194 199 205
f 205 199 194
f 203 200 206
f 206 200 203
f 199 198 203
f 203 198 199
f 195 196 201
f 201 196 195
f 201 204 202
f 202 204 201
f 196 204 201
f 201 204 196
f 197 205 207
f 207 205 197
f 205 199 206
f 206 199 205
f 199 203 206
f 206 203 199
f 205 208 207
f 207 208 205
f 205 206 208
f 208 206 205
f 209 210 211
f 210 209 212
f 212 209 210
f 211 210 209
f 213 211 214
f 211 213 209
f 209 213 211
f 214 211 213
f 209 215 212
f 212 215 209
f 210 212 216
f 216 212 210
f 210 217 211
f 211 217 210
f 211 218 214
f 214 218 211
f 214 219 213
f 213 219 214
f 209 213 215
f 215 213 209
f 216 212 215
f 215 212 216
f 220 210 216
f 216 210 220
f 211 217 218
f 218 217 211
f 221 217 210
f 210 217 221
f 218 222 214
f 214 222 218
f 222 219 214
f 214 219 222
f 213 219 223
f 223 219 213
f 213 223 215
f 215 223 213
f 216 215 224
f 224 215 216
f 220 216 225
f 225 216 220
f 221 210 220
f 220 210 221
f 222 226 219
f 219 226 222
f 219 227 223
f 223 227 219
f 223 228 215
f 215 228 223
f 225 216 224
f 224 216 225
f 229 230 231
f 230 229 232
f 232 229 228
f 228 229 224
f 228 224 215
f 215 224 228
f 224 229 228
f 228 229 232
f 232 229 230
f 231 230 229
f 233 220 225
f 225 220 233
f 234 221 220
f 220 221 234
f 226 227 219
f 219 227 226
f 227 235 223
f 223 235 227
f 223 235 228
f 228 235 223
f 225 224 229
f 229 224 225
f 236 229 231
f 231 229 236
f 235 232 228
f 228 232 235
f 232 237 230
f 230 237 232
f 233 225 236
f 236 225 233
f 234 220 233
f 233 220 234
f 226 238 227
f 227 238 226
f 227 238 235
f 235 238 227
f 236 225 229
f 229 225 236
f 235 237 232
f 232 237 235
f 239 233 236
f 236 233 239
f 234 233 240
f 240 233 234
f 238 237 235
f 235 237 238
f 240 233 239
f 239 233 240
f 241 242 243
f 243 242 241
f 241 243 244
f 244 243 241
f 242 245 243
f 243 245 242
f 246 243 247
f 243 246 244
f 244 246 243
f 247 243 246
f 248 241 244
f 244 241 248
f 242 249 245
f 245 249 242
f 247 245 250
f 245 247 243
f 243 247 245
f 250 245 247
f 247 251 246
f 246 251 247
f 244 246 252
f 252 246 244
f 248 244 253
f 253 244 248
f 249 254 245
f 245 254 249
f 245 254 250
f 250 254 245
f 250 251 247
f 247 251 250
f 246 251 252
f 252 251 246
f 244 252 253
f 253 252 244
f 248 253 255
f 255 253 248
f 249 256 254
f 254 256 249
f 254 257 250
f 250 257 254
f 257 251 250
f 250 251 257
f 252 251 258
f 258 251 252
f 253 252 259
f 259 252 253
f 255 253 260
f 260 253 255
f 254 256 261
f 261 256 254
f 254 261 257
f 257 261 254
f 257 262 251
f 251 262 257
f 252 258 259
f 259 258 252
f 263 264 265
f 264 263 258
f 264 258 251
f 264 251 262
f 264 262 266
f 266 262 264
f 262 251 264
f 251 258 264
f 258 263 264
f 265 264 263
f 253 259 260
f 260 259 253
f 255 260 267
f 267 260 255
f 261 256 268
f 268 256 261
f 261 269 257
f 257 269 261
f 269 262 257
f 257 262 269
f 259 258 263
f 263 258 259
f 263 265 270
f 270 265 263
f 269 266 262
f 262 266 269
f 271 264 266
f 266 264 271
f 260 259 270
f 270 259 260
f 260 272 267
f 267 272 260
f 261 268 269
f 269 268 261
f 259 263 270
f 270 263 259
f 271 266 269
f 269 266 271
f 260 270 272
f 272 270 260
f 268 271 269
f 269 271 268
f 273 274 275
f 275 274 273
f 275 274 276
f 276 274 275
f 273 277 274
f 274 277 273
f 276 278 279
f 278 276 274
f 274 276 278
f 279 278 276
f 275 276 280
f 280 276 275
f 273 281 277
f 277 281 273
f 274 282 278
f 282 274 277
f 277 274 282
f 278 282 274
f 283 279 278
f 278 279 283
f 276 279 284
f 284 279 276
f 280 276 285
f 285 276 280
f 281 286 277
f 277 286 281
f 277 286 282
f 282 286 277
f 278 282 283
f 283 282 278
f 283 284 279
f 279 284 283
f 276 284 285
f 285 284 276
f 280 285 287
f 287 285 280
f 281 288 286
f 286 288 281
f 286 289 282
f 282 289 286
f 282 289 283
f 283 289 282
f 283 290 284
f 284 290 283
f 285 284 291
f 291 284 285
f 287 285 292
f 292 285 287
f 286 288 293
f 293 288 286
f 286 293 289
f 289 293 286
f 289 294 283
f 283 294 289
f 290 291 284
f 284 291 290
f 295 296 297
f 296 295 290
f 296 290 283
f 296 283 294
f 296 294 298
f 298 294 296
f 294 283 296
f 283 290 296
f 290 295 296
f 297 296 295
f 285 291 292
f 292 291 285
f 287 292 299
f 299 292 287
f 293 288 300
f 300 288 293
f 293 301 289
f 289 301 293
f 289 301 294
f 294 301 289
f 290 295 291
f 291 295 290
f 295 297 302
f 302 297 295
f 301 298 294
f 294 298 301
f 298 303 296
f 296 303 298
f 292 291 302
f 302 291 292
f 292 304 299
f 299 304 292
f 293 300 301
f 301 300 293
f 295 302 291
f 291 302 295
f 301 303 298
f 298 303 301
f 292 302 304
f 304 302 292
f 300 303 301
f 301 303 300
f 305 306 307
f 306 305 308
f 308 305 309
f 309 305 310
f 309 310 311
f 311 310 309
f 310 305 309
f 309 305 308
f 308 305 306
f 307 306 305
f 305 307 312
f 312 307 305
f 313 310 305
f 305 310 313
f 314 311 310
f 310 311 314
f 315 309 311
f 311 309 315
f 309 316 308
f 308 316 309
f 308 317 306
f 306 317 308
f 313 305 312
f 312 305 313
f 314 310 313
f 313 310 314
f 318 311 314
f 314 311 318
f 311 319 315
f 315 319 311
f 309 315 316
f 316 315 309
f 308 316 317
f 317 316 308
f 312 320 313
f 313 320 312
f 313 321 314
f 314 321 313
f 322 311 318
f 318 311 322
f 318 314 323
f 323 314 318
f 319 324 315
f 315 324 319
f 322 319 311
f 311 319 322
f 315 325 316
f 316 325 315
f 316 326 317
f 317 326 316
f 313 320 321
f 321 320 313
f 312 327 320
f 320 327 312
f 314 321 323
f 323 321 314
f 328 318 323
f 318 328 322
f 322 328 318
f 323 318 328
f 319 329 324
f 324 329 319
f 315 324 325
f 325 324 315
f 329 322 328
f 322 329 319
f 319 329 322
f 328 322 329
f 316 325 326
f 326 325 316
f 320 330 321
f 321 330 320
f 327 331 320
f 320 331 327
f 321 332 323
f 323 332 321
f 328 323 333
f 333 323 328
f 329 334 324
f 324 334 329
f 324 335 325
f 325 335 324
f 329 328 336
f 336 328 329
f 325 335 326
f 326 335 325
f 321 330 332
f 332 330 321
f 320 331 330
f 330 331 320
f 323 332 333
f 333 332 323
f 328 333 336
f 336 333 328
f 329 336 334
f 334 336 329
f 324 334 335
f 335 334 324
f 337 338 339
f 338 337 340
f 338 340 341
f 341 340 342
f 341 342 343
f 343 342 344
f 343 344 345
f 345 344 346
f 345 346 347
f 347 346 348
f 348 346 347
f 347 346 345
f 346 344 345
f 345 344 343
f 344 342 343
f 343 342 341
f 342 340 341
f 341 340 338
f 340 337 338
f 339 338 337
f 339 349 337
f 349 339 350
f 350 339 349
f 337 349 339
f 340 349 351
f 349 340 337
f 337 340 349
f 351 349 340
f 342 351 352
f 351 342 340
f 340 342 351
f 352 351 342
f 344 352 353
f 352 344 342
f 342 344 352
f 353 352 344
f 354 344 353
f 344 354 346
f 346 354 344
f 353 344 354
f 355 346 354
f 346 355 348
f 348 355 346
f 354 346 355
f 356 348 355
f 348 356 347
f 347 356 348
f 355 348 356
f 357 347 356
f 347 357 345
f 345 357 347
f 356 347 357
f 358 345 357
f 345 358 343
f 343 358 345
f 357 345 358
f 359 343 358
f 343 359 341
f 341 359 343
f 358 343 359
f 360 341 359
f 341 360 338
f 338 360 341
f 359 341 360
f 338 350 339
f 350 338 360
f 360 338 350
f 339 350 338
f 360 349 350
f 349 360 359
f 349 359 351
f 351 359 358
f 351 358 352
f 352 358 357
f 352 357 353
f 353 357 356
f 353 356 354
f 354 356 355
f 355 356 354
f 354 356 353
f 356 357 353
f 353 357 352
f 357 358 352
f 352 358 351
f 358 359 351
f 351 359 349
f 359 360 349
f 350 349 360
f 361 362 363
f 362 361 364
f 362 364 365
f 365 364 366
f 365 366 367
f 367 366 368
f 367 368 369
f 369 368 370
f 369 370 371
f 371 370 372
f 372 370 371
f 371 370 369
f 370 368 369
f 369 368 367
f 368 366 367
f 367 366 365
f 366 364 365
f 365 364 362
f 364 361 362
f 363 362 361
f 366 373 374
f 373 366 364
f 364 366 373
f 374 373 366
f 375 366 374
f 366 375 368
f 368 375 366
f 374 366 375
f 375 370 368
f 370 375 376
f 376 375 370
f 368 370 375
f 376 372 370
f 372 376 377
f 377 376 372
f 370 372 376
f 377 371 372
f 371 377 378
f 378 377 371
f 372 371 377
f 378 369 371
f 369 378 379
f 379 378 369
f 371 369 378
f 380 369 379
f 369 380 367
f 367 380 369
f 379 369 380
f 365 380 381
f 380 365 367
f 367 365 380
f 381 380 365
f 365 382 362
f 382 365 381
f 381 365 382
f 362 382 365
f 362 383 363
f 383 362 382
f 382 362 383
f 363 383 362
f 363 384 361
f 384 363 383
f 383 363 384
f 361 384 363
f 361 373 364
f 373 361 384
f 384 361 373
f 364 373 361
f 382 384 383
f 384 382 381
f 384 381 373
f 373 381 380
f 373 380 374
f 374 380 379
f 374 379 375
f 375 379 378
f 375 378 376
f 376 378 377
f 377 378 376
f 376 378 375
f 378 379 375
f 375 379 374
f 379 380 374
f 374 380 373
f 380 381 373
f 373 381 384
f 381 382 384
f 383 384 382
f 385 386 387
f 386 385 388
f 388 385 386
f 387 386 385
f 389 390 391
f 390 389 392
f 390 392 393
f 393 392 394
f 393 394 395
f 395 394 396
f 395 396 397
f 397 396 398
f 397 398 388
f 388 398 386
f 386 398 388
f 388 398 397
f 398 396 397
f 397 396 395
f 396 394 395
f 395 394 393
f 394 392 393
f 393 392 390
f 392 389 390
f 391 390 389
f 387 398 399
f 398 387 386
f 386 387 398
f 399 398 387
f 400 401 402
f 401 400 403
f 401 403 404
f 404 403 405
f 404 405 406
f 406 405 407
f 406 407 408
f 408 407 385
f 408 385 399
f 399 385 387
f 387 385 399
f 399 385 408
f 385 407 408
f 408 407 406
f 407 405 406
f 406 405 404
f 405 403 404
f 404 403 401
f 403 400 401
f 402 401 400
f 407 388 385
f 388 407 397
f 397 407 388
f 385 388 407
f 406 392 404
f 392 406 394
f 394 406 392
f 404 392 406
f 396 406 408
f 406 396 394
f 394 396 406
f 408 406 396
f 399 396 408
f 396 399 398
f 398 399 396
f 408 396 399
f 395 407 405
f 407 395 397
f 397 395 407
f 405 407 395
f 403 395 405
f 395 403 393
f 393 403 395
f 405 395 403
f 390 403 400
f 403 390 393
f 393 390 403
f 400 403 390
f 391 400 402
f 400 391 390
f 390 391 400
f 402 400 391
f 389 402 401
f 402 389 391
f 391 389 402
f 401 402 389
f 392 401 404
f 401 392 389
f 389 392 401
f 404 401 392
f 409 410 411
f 410 409 412
f 410 412 413
f 413 412 414
f 413 414 415
f 415 414 416
f 415 416 417
f 417 416 418
f 417 418 419
f 419 418 420
f 420 418 419
f 419 418 417
f 418 416 417
f 417 416 415
f 416 414 415
f 415 414 413
f 414 412 413
f 413 412 410
f 412 409 410
f 411 410 409
f 421 418 422
f 418 421 420
f 420 421 418
f 422 418 421
f 423 420 421
f 420 423 419
f 419 423 420
f 421 420 423
f 417 423 424
f 423 417 419
f 419 417 423
f 424 423 417
f 415 424 425
f 424 415 417
f 417 415 424
f 425 424 415
f 413 425 426
f 425 413 415
f 415 413 425
f 426 425 413
f 413 427 410
f 427 413 426
f 426 413 427
f 410 427 413
f 410 428 411
f 428 410 427
f 427 410 428
f 411 428 410
f 411 429 409
f 429 411 428
f 428 411 429
f 409 429 411
f 409 430 412
f 430 409 429
f 429 409 430
f 412 430 409
f 431 412 430
f 412 431 414
f 414 431 412
f 430 412 431
f 432 414 431
f 414 432 416
f 416 432 414
f 431 414 432
f 422 416 432
f 416 422 418
f 418 422 416
f 432 416 422
f 427 429 428
f 429 427 426
f 429 426 430
f 430 426 425
f 430 425 431
f 431 425 424
f 431 424 432
f 432 424 423
f 432 423 422
f 422 423 421
f 421 423 422
f 422 423 432
f 423 424 432
f 432 424 431
f 424 425 431
f 431 425 430
f 425 426 430
f 430 426 429
f 426 427 429
f 428 429 427
f 433 434 435
f 434 433 436
f 434 436 437
f 437 436 438
f 437 438 439
f 439 438 440
f 439 440 441
f 441 440 442
f 441 442 443
f 443 442 444
f 444 442 443
f 443 442 441
f 442 440 441
f 441 440 439
f 440 438 439
f 439 438 437
f 438 436 437
f 437 436 434
f 436 433 434
f 435 434 433
f 445 438 436
f 438 445 446
f 446 445 438
f 436 438 445
f 446 440 438
f 440 446 447
f 447 446 440
f 438 440 446
f 447 442 440
f 442 447 448
f 448 447 442
f 440 442 447
f 442 449 444
f 449 442 448
f 448 442 449
f 444 449 442
f 444 450 443
f 450 444 449
f 449 444 450
f 443 450 444
f 450 441 443
f 441 450 451
f 451 450 441
f 443 441 450
f 451 439 441
f 439 451 452
f 452 451 439
f 441 439 451
f 452 437 439
f 437 452 453
f 453 452 437
f 439 437 452
f 453 434 437
f 434 453 454
f 454 453 434
f 437 434 453
f 455 434 454
f 434 455 435
f 435 455 434
f 454 434 455
f 456 435 455
f 435 456 433
f 433 456 435
f 455 435 456
f 456 436 433
f 436 456 445
f 445 456 436
f 433 436 456
f 454 456 455
f 456 454 453
f 456 453 445
f 445 453 452
f 445 452 446
f 446 452 451
f 446 451 447
f 447 451 450
f 447 450 448
f 448 450 449
f 449 450 448
f 448 450 447
f 450 451 447
f 447 451 446
f 451 452 446
f 446 452 445
f 452 453 445
f 445 453 456
f 453 454 456
f 455 456 454
f 457 458 459
f 460 458 457
f 458 461 459
f 459 461 462
f 463 464 465
f 465 464 463
f 464 466 465
f 465 466 464
f 463 465 467
f 467 465 463
f 468 464 463
f 463 464 468
f 464 469 466
f 466 469 464
f 470 465 466
f 466 465 470
f 471 463 467
f 467 463 471
f 468 472 464
f 464 472 468
f 473 468 463
f 463 468 473
f 469 474 466
f 466 474 469
f 472 469 464
f 464 469 472
f 470 466 475
f 475 466 470
f 471 467 476
f 476 467 471
f 473 463 471
f 471 463 473
f 477 472 468
f 468 472 477
f 478 468 473
f 473 468 478
f 479 466 474
f 474 466 479
f 472 474 469
f 469 474 472
f 480 475 466
f 466 475 480
f 481 470 475
f 475 470 481
f 471 476 482
f 482 476 471
f 483 473 471
f 471 473 483
f 477 484 472
f 472 484 477
f 478 477 468
f 468 477 478
f 485 478 473
f 473 478 485
f 480 466 479
f 479 466 480
f 479 474 486
f 486 474 479
f 472 487 474
f 474 487 472
f 488 475 480
f 480 475 488
f 489 470 481
f 481 470 489
f 481 475 490
f 490 475 481
f 482 476 491
f 491 476 482
f 483 471 482
f 482 471 483
f 485 473 483
f 483 473 485
f 484 487 472
f 472 487 484
f 492 484 477
f 477 484 492
f 493 477 478
f 478 477 493
f 494 478 485
f 485 478 494
f 480 479 495
f 495 479 480
f 487 486 474
f 474 486 487
f 479 486 496
f 496 486 479
f 488 480 491
f 491 480 488
f 488 497 475
f 475 497 488
f 489 498 470
f 470 498 489
f 499 489 481
f 481 489 499
f 490 475 500
f 500 475 490
f 501 481 490
f 490 481 501
f 502 491 476
f 476 491 502
f 482 491 495
f 495 491 482
f 483 482 503
f 503 482 483
f 504 485 483
f 483 485 504
f 484 505 487
f 487 505 484
f 492 506 484
f 484 506 492
f 493 492 477
f 477 492 493
f 494 493 478
f 478 493 494
f 507 494 485
f 485 494 507
f 491 480 495
f 495 480 491
f 495 479 496
f 496 479 495
f 487 508 486
f 486 508 487
f 496 486 509
f 509 486 496
f 502 488 491
f 491 488 502
f 488 510 497
f 497 510 488
f 475 497 511
f 511 497 475
f 512 498 489
f 489 498 512
f 513 489 499
f 499 489 513
f 499 481 501
f 501 481 499
f 500 475 514
f 514 475 500
f 515 490 500
f 500 490 515
f 501 490 515
f 515 490 501
f 516 502 476
f 476 502 516
f 503 482 495
f 495 482 503
f 483 503 517
f 517 503 483
f 507 485 504
f 504 485 507
f 483 518 504
f 504 518 483
f 506 505 484
f 484 505 506
f 487 505 519
f 519 505 487
f 520 506 492
f 492 506 520
f 493 521 492
f 492 521 493
f 522 493 494
f 494 493 522
f 523 494 507
f 507 494 523
f 495 496 524
f 524 496 495
f 487 519 508
f 508 519 487
f 486 508 509
f 509 508 486
f 524 496 509
f 509 496 524
f 525 488 502
f 502 488 525
f 526 510 488
f 488 510 526
f 497 510 527
f 527 510 497
f 475 511 528
f 528 511 475
f 511 497 529
f 529 497 511
f 512 516 498
f 498 516 512
f 513 512 489
f 489 512 513
f 530 513 499
f 499 513 530
f 531 499 501
f 501 499 531
f 514 475 532
f 532 475 514
f 533 500 514
f 514 500 533
f 515 500 533
f 533 500 515
f 534 501 515
f 515 501 534
f 462 502 516
f 516 502 462
f 503 495 535
f 535 495 503
f 483 517 518
f 518 517 483
f 503 536 517
f 517 536 503
f 507 504 537
f 537 504 507
f 504 518 538
f 538 518 504
f 506 539 505
f 505 539 506
f 505 540 519
f 519 540 505
f 521 520 492
f 492 520 521
f 520 541 506
f 506 541 520
f 522 521 493
f 493 521 522
f 523 522 494
f 494 522 523
f 523 507 542
f 542 507 523
f 535 495 524
f 524 495 535
f 508 519 543
f 543 519 508
f 508 544 509
f 509 544 508
f 545 524 509
f 509 524 545
f 462 525 502
f 502 525 462
f 525 526 488
f 488 526 525
f 526 546 510
f 510 546 526
f 510 547 527
f 527 547 510
f 497 527 548
f 548 527 497
f 475 528 549
f 549 528 475
f 528 511 550
f 550 511 528
f 511 529 550
f 550 529 511
f 497 551 529
f 529 551 497
f 552 516 512
f 512 516 552
f 553 512 513
f 513 512 553
f 554 513 530
f 530 513 554
f 530 499 531
f 531 499 530
f 531 501 534
f 534 501 531
f 475 549 532
f 532 549 475
f 555 514 532
f 532 514 555
f 533 514 555
f 555 514 533
f 556 515 533
f 533 515 556
f 534 515 556
f 556 515 534
f 552 462 516
f 516 462 552
f 503 535 536
f 536 535 503
f 518 517 461
f 461 517 518
f 517 536 557
f 557 536 517
f 507 537 542
f 542 537 507
f 504 538 537
f 537 538 504
f 518 458 538
f 538 458 518
f 541 539 506
f 506 539 541
f 505 539 540
f 540 539 505
f 519 540 543
f 543 540 519
f 530 520 521
f 521 520 530
f 531 541 520
f 520 541 531
f 554 521 522
f 522 521 554
f 558 522 523
f 523 522 558
f 559 523 542
f 542 523 559
f 535 524 545
f 545 524 535
f 508 543 560
f 560 543 508
f 561 544 508
f 508 544 561
f 544 562 509
f 509 562 544
f 545 509 563
f 563 509 545
f 462 557 525
f 525 557 462
f 525 564 526
f 526 564 525
f 526 565 546
f 546 565 526
f 546 566 510
f 510 566 546
f 527 547 567
f 567 547 527
f 568 547 510
f 510 547 568
f 548 527 569
f 569 527 548
f 497 548 551
f 551 548 497
f 528 570 549
f 549 570 528
f 528 550 570
f 570 550 528
f 550 529 571
f 571 529 550
f 529 551 572
f 572 551 529
f 553 552 512
f 512 552 553
f 553 513 554
f 554 513 553
f 554 530 521
f 521 530 554
f 530 531 520
f 520 531 530
f 531 534 541
f 541 534 531
f 573 532 549
f 549 532 573
f 555 532 573
f 573 532 555
f 574 533 555
f 555 533 574
f 556 533 574
f 574 533 556
f 534 556 575
f 575 556 534
f 576 462 552
f 552 462 576
f 535 577 536
f 536 577 535
f 518 461 458
f 458 461 518
f 517 557 461
f 461 557 517
f 557 536 564
f 564 536 557
f 542 537 578
f 578 537 542
f 537 538 579
f 579 538 537
f 538 458 460
f 460 458 538
f 541 575 539
f 539 575 541
f 539 580 540
f 540 580 539
f 540 581 543
f 543 581 540
f 558 554 522
f 522 554 558
f 559 558 523
f 523 558 559
f 559 542 582
f 582 542 559
f 535 545 577
f 577 545 535
f 581 560 543
f 543 560 581
f 560 561 508
f 508 561 560
f 583 544 561
f 561 544 583
f 584 562 544
f 544 562 584
f 562 585 509
f 509 585 562
f 509 586 563
f 563 586 509
f 545 563 577
f 577 563 545
f 462 461 557
f 557 461 462
f 525 557 564
f 564 557 525
f 587 526 564
f 564 526 587
f 565 526 587
f 587 526 565
f 565 588 546
f 546 588 565
f 546 589 566
f 566 589 546
f 590 510 566
f 566 510 590
f 569 527 567
f 567 527 569
f 567 547 591
f 591 547 567
f 590 568 510
f 510 568 590
f 568 592 547
f 547 592 568
f 548 569 593
f 593 569 548
f 551 548 594
f 594 548 551
f 573 549 570
f 570 549 573
f 595 570 550
f 550 570 595
f 550 571 595
f 595 571 550
f 571 529 572
f 572 529 571
f 551 596 572
f 572 596 551
f 553 576 552
f 552 576 553
f 597 553 554
f 554 553 597
f 534 575 541
f 541 575 534
f 598 555 573
f 573 555 598
f 574 555 598
f 598 555 574
f 556 574 599
f 599 574 556
f 556 599 575
f 575 599 556
f 576 459 462
f 462 459 576
f 536 577 600
f 600 577 536
f 564 536 601
f 601 536 564
f 542 578 582
f 582 578 542
f 537 579 578
f 578 579 537
f 538 460 579
f 579 460 538
f 539 575 580
f 580 575 539
f 540 580 581
f 581 580 540
f 558 602 554
f 554 602 558
f 603 558 559
f 559 558 603
f 559 582 604
f 604 582 559
f 581 605 560
f 560 605 581
f 605 561 560
f 560 561 605
f 605 583 561
f 561 583 605
f 583 584 544
f 544 584 583
f 584 606 562
f 562 606 584
f 606 585 562
f 562 585 606
f 509 585 607
f 607 585 509
f 509 607 586
f 586 607 509
f 563 586 608
f 608 586 563
f 577 563 600
f 600 563 577
f 564 601 587
f 587 601 564
f 565 587 460
f 460 587 565
f 565 609 588
f 588 609 565
f 588 610 546
f 546 610 588
f 546 611 589
f 589 611 546
f 589 612 566
f 566 612 589
f 566 613 590
f 590 613 566
f 569 567 614
f 614 567 569
f 567 591 615
f 615 591 567
f 547 592 591
f 591 592 547
f 616 568 590
f 590 568 616
f 617 592 568
f 568 592 617
f 593 569 618
f 618 569 593
f 548 593 594
f 594 593 548
f 551 594 596
f 596 594 551
f 619 573 570
f 570 573 619
f 619 570 595
f 595 570 619
f 595 571 620
f 620 571 595
f 571 572 621
f 621 572 571
f 572 596 622
f 622 596 572
f 597 576 553
f 553 576 597
f 602 597 554
f 554 597 602
f 598 573 619
f 619 573 598
f 574 598 623
f 623 598 574
f 574 623 599
f 599 623 574
f 575 599 580
f 580 599 575
f 576 624 459
f 459 624 576
f 536 600 601
f 601 600 536
f 582 578 625
f 625 578 582
f 578 579 626
f 626 579 578
f 579 460 587
f 587 460 579
f 580 627 581
f 581 627 580
f 603 602 558
f 558 602 603
f 603 559 604
f 604 559 603
f 604 582 628
f 628 582 604
f 581 627 605
f 605 627 581
f 629 583 605
f 605 583 629
f 583 630 584
f 584 630 583
f 584 631 606
f 606 631 584
f 606 632 585
f 585 632 606
f 607 585 633
f 633 585 607
f 607 634 586
f 586 634 607
f 635 563 608
f 608 563 635
f 586 636 608
f 608 636 586
f 600 563 637
f 637 563 600
f 601 638 587
f 587 638 601
f 457 565 460
f 460 565 457
f 565 639 609
f 609 639 565
f 609 640 588
f 588 640 609
f 588 640 610
f 610 640 588
f 546 610 611
f 611 610 546
f 611 641 589
f 589 641 611
f 589 642 612
f 612 642 589
f 612 613 566
f 566 613 612
f 613 643 590
f 590 643 613
f 618 569 614
f 614 569 618
f 614 567 615
f 615 567 614
f 591 644 615
f 615 644 591
f 592 645 591
f 591 645 592
f 643 616 590
f 590 616 643
f 616 617 568
f 568 617 616
f 593 618 646
f 646 618 593
f 594 593 647
f 647 593 594
f 594 648 596
f 596 648 594
f 619 595 649
f 649 595 619
f 595 620 649
f 649 620 595
f 571 621 620
f 620 621 571
f 572 622 621
f 621 622 572
f 596 650 622
f 622 650 596
f 597 624 576
f 576 624 597
f 602 651 597
f 597 651 602
f 598 619 652
f 652 619 598
f 598 652 623
f 623 652 598
f 599 623 627
f 627 623 599
f 599 627 580
f 580 627 599
f 624 457 459
f 459 457 624
f 601 600 637
f 637 600 601
f 582 625 628
f 628 625 582
f 578 638 625
f 625 638 578
f 579 587 626
f 626 587 579
f 578 626 638
f 638 626 578
f 603 653 602
f 602 653 603
f 603 604 654
f 654 604 603
f 604 628 655
f 655 628 604
f 605 627 629
f 629 627 605
f 629 630 583
f 583 630 629
f 630 631 584
f 584 631 630
f 631 656 606
f 606 656 631
f 606 656 632
f 632 656 606
f 585 632 633
f 633 632 585
f 607 633 657
f 657 633 607
f 607 657 634
f 634 657 607
f 586 634 636
f 636 634 586
f 658 563 635
f 635 563 658
f 659 635 608
f 608 635 659
f 636 660 608
f 608 660 636
f 637 563 661
f 661 563 637
f 601 637 638
f 638 637 601
f 626 587 638
f 638 587 626
f 662 565 457
f 457 565 662
f 565 663 639
f 639 663 565
f 664 609 639
f 639 609 664
f 664 640 609
f 609 640 664
f 640 665 610
f 610 665 640
f 610 666 611
f 611 666 610
f 611 667 641
f 641 667 611
f 589 641 642
f 642 641 589
f 642 668 612
f 612 668 642
f 612 669 613
f 613 669 612
f 613 670 643
f 643 670 613
f 671 618 614
f 614 618 671
f 672 614 615
f 615 614 672
f 615 644 673
f 673 644 615
f 645 644 591
f 591 644 645
f 592 674 645
f 645 674 592
f 643 675 616
f 616 675 643
f 646 618 676
f 676 618 646
f 593 646 647
f 647 646 593
f 594 647 648
f 648 647 594
f 596 648 650
f 650 648 596
f 619 649 652
f 652 649 619
f 649 620 631
f 631 620 649
f 620 621 656
f 656 621 620
f 621 622 677
f 677 622 621
f 622 650 678
f 678 650 622
f 597 651 624
f 624 651 597
f 602 653 651
f 651 653 602
f 623 652 629
f 629 652 623
f 623 629 627
f 627 629 623
f 624 662 457
f 457 662 624
f 679 628 625
f 625 628 679
f 625 638 637
f 637 638 625
f 653 603 654
f 654 603 653
f 654 604 655
f 655 604 654
f 680 655 628
f 628 655 680
f 652 630 629
f 629 630 652
f 649 631 630
f 630 631 649
f 620 656 631
f 631 656 620
f 656 677 632
f 632 677 656
f 632 681 633
f 633 681 632
f 657 633 682
f 682 633 657
f 657 683 634
f 634 683 657
f 634 684 636
f 636 684 634
f 661 563 658
f 658 563 661
f 685 658 635
f 635 658 685
f 685 635 659
f 659 635 685
f 659 608 660
f 660 608 659
f 686 660 636
f 636 660 686
f 625 637 661
f 661 637 625
f 662 687 565
f 565 687 662
f 688 663 565
f 565 663 688
f 689 639 663
f 663 639 689
f 689 664 639
f 639 664 689
f 690 640 664
f 664 640 690
f 690 665 640
f 640 665 690
f 665 666 610
f 610 666 665
f 611 666 667
f 667 666 611
f 641 667 691
f 691 667 641
f 641 692 642
f 642 692 641
f 642 693 668
f 668 693 642
f 668 669 612
f 612 669 668
f 669 670 613
f 613 670 669
f 694 643 670
f 670 643 694
f 676 618 671
f 671 618 676
f 671 614 672
f 672 614 671
f 672 615 673
f 673 615 672
f 644 695 673
f 673 695 644
f 674 644 645
f 645 644 674
f 694 675 643
f 643 675 694
f 675 696 616
f 616 696 675
f 646 676 697
f 697 676 646
f 647 646 697
f 697 646 647
f 648 647 698
f 698 647 648
f 648 699 650
f 650 699 648
f 652 649 630
f 630 649 652
f 621 677 656
f 656 677 621
f 622 678 677
f 677 678 622
f 650 700 678
f 678 700 650
f 651 662 624
f 624 662 651
f 653 701 651
f 651 701 653
f 625 661 679
f 679 661 625
f 680 628 679
f 679 628 680
f 653 654 702
f 702 654 653
f 654 655 703
f 703 655 654
f 704 655 680
f 680 655 704
f 632 677 681
f 681 677 632
f 633 681 682
f 682 681 633
f 657 682 705
f 705 682 657
f 657 705 683
f 683 705 657
f 634 683 684
f 684 683 634
f 684 686 636
f 636 686 684
f 706 661 658
f 658 661 706
f 707 658 685
f 685 658 707
f 685 659 708
f 708 659 685
f 659 660 709
f 709 660 659
f 686 710 660
f 660 710 686
f 701 687 662
f 662 687 701
f 687 711 565
f 565 711 687
f 711 688 565
f 565 688 711
f 712 663 688
f 688 663 712
f 712 689 663
f 663 689 712
f 713 664 689
f 689 664 713
f 713 690 664
f 664 690 713
f 690 714 665
f 665 714 690
f 665 715 666
f 666 715 665
f 666 716 667
f 667 716 666
f 667 717 691
f 691 717 667
f 641 691 692
f 692 691 641
f 642 692 693
f 693 692 642
f 693 718 668
f 668 718 693
f 719 669 668
f 668 669 719
f 720 670 669
f 669 670 720
f 670 721 694
f 694 721 670
f 697 676 671
f 671 676 697
f 722 671 672
f 672 671 722
f 672 673 723
f 723 673 672
f 673 695 724
f 724 695 673
f 674 695 644
f 644 695 674
f 694 696 675
f 675 696 694
f 647 697 698
f 698 697 647
f 648 698 699
f 699 698 648
f 650 699 700
f 700 699 650
f 677 678 681
f 681 678 677
f 678 700 725
f 725 700 678
f 651 701 662
f 662 701 651
f 653 702 701
f 701 702 653
f 679 661 726
f 726 661 679
f 726 680 679
f 679 680 726
f 702 654 703
f 703 654 702
f 704 703 655
f 655 703 704
f 727 704 680
f 680 704 727
f 681 725 682
f 682 725 681
f 705 682 728
f 728 682 705
f 705 729 683
f 683 729 705
f 683 730 684
f 684 730 683
f 731 686 684
f 684 686 731
f 732 661 706
f 706 661 732
f 707 706 658
f 658 706 707
f 707 685 733
f 733 685 707
f 733 685 708
f 708 685 733
f 708 659 709
f 709 659 708
f 709 660 710
f 710 660 709
f 734 710 686
f 686 710 734
f 701 735 687
f 687 735 701
f 735 711 687
f 687 711 735
f 736 688 711
f 711 688 736
f 736 712 688
f 688 712 736
f 737 689 712
f 712 689 737
f 737 713 689
f 689 713 737
f 713 738 690
f 690 738 713
f 690 738 714
f 714 738 690
f 665 714 715
f 715 714 665
f 666 715 716
f 716 715 666
f 667 716 717
f 717 716 667
f 691 717 739
f 739 717 691
f 691 740 692
f 692 740 691
f 692 741 693
f 693 741 692
f 693 741 718
f 718 741 693
f 718 719 668
f 668 719 718
f 719 720 669
f 669 720 719
f 720 721 670
f 670 721 720
f 694 721 742
f 742 721 694
f 697 671 722
f 722 671 697
f 722 672 723
f 723 672 722
f 723 673 724
f 724 673 723
f 743 724 695
f 695 724 743
f 744 695 674
f 674 695 744
f 742 696 694
f 694 696 742
f 698 697 722
f 722 697 698
f 698 745 699
f 699 745 698
f 699 746 700
f 700 746 699
f 678 725 681
f 681 725 678
f 700 747 725
f 725 747 700
f 702 735 701
f 701 735 702
f 726 661 732
f 732 661 726
f 727 680 726
f 726 680 727
f 702 703 748
f 748 703 702
f 703 704 749
f 749 704 703
f 750 704 727
f 727 704 750
f 705 728 751
f 751 728 705
f 705 751 729
f 729 751 705
f 683 729 730
f 730 729 683
f 731 684 730
f 730 684 731
f 734 686 731
f 731 686 734
f 752 732 706
f 706 732 752
f 752 706 707
f 707 706 752
f 753 707 733
f 733 707 753
f 738 733 708
f 708 733 738
f 714 708 709
f 709 708 714
f 715 709 710
f 710 709 715
f 716 710 734
f 734 710 716
f 735 736 711
f 711 736 735
f 754 712 736
f 736 712 754
f 754 737 712
f 712 737 754
f 737 755 713
f 713 755 737
f 713 755 738
f 738 755 713
f 738 708 714
f 714 708 738
f 714 709 715
f 715 709 714
f 715 710 716
f 716 710 715
f 716 734 717
f 717 734 716
f 717 756 739
f 739 756 717
f 691 739 740
f 740 739 691
f 692 740 741
f 741 740 692
f 741 719 718
f 718 719 741
f 757 720 719
f 719 720 757
f 720 758 721
f 721 758 720
f 721 759 742
f 742 759 721
f 722 723 745
f 745 723 722
f 723 724 760
f 760 724 723
f 743 761 724
f 724 761 743
f 744 743 695
f 695 743 744
f 742 762 696
f 696 762 742
f 698 722 745
f 745 722 698
f 699 745 746
f 746 745 699
f 700 746 747
f 747 746 700
f 725 747 728
f 728 747 725
f 702 748 735
f 735 748 702
f 727 726 732
f 732 726 727
f 748 703 749
f 749 703 748
f 749 704 750
f 750 704 749
f 750 727 752
f 752 727 750
f 751 728 763
f 763 728 751
f 751 764 729
f 729 764 751
f 729 765 730
f 730 765 729
f 731 730 766
f 766 730 731
f 734 731 756
f 756 731 734
f 727 732 752
f 752 732 727
f 753 752 707
f 707 752 753
f 755 753 733
f 733 753 755
f 755 733 738
f 738 733 755
f 748 736 735
f 735 736 748
f 748 754 736
f 736 754 748
f 754 767 737
f 737 767 754
f 737 767 755
f 755 767 737
f 717 734 756
f 756 734 717
f 739 756 768
f 768 756 739
f 740 739 769
f 769 739 740
f 740 757 741
f 741 757 740
f 741 757 719
f 719 757 741
f 757 758 720
f 720 758 757
f 758 759 721
f 721 759 758
f 759 770 742
f 742 770 759
f 745 723 760
f 760 723 745
f 760 724 761
f 761 724 760
f 771 761 743
f 743 761 771
f 772 743 744
f 744 743 772
f 742 770 762
f 762 770 742
f 745 760 746
f 746 760 745
f 746 773 747
f 747 773 746
f 728 747 763
f 763 747 728
f 748 749 754
f 754 749 748
f 749 750 767
f 767 750 749
f 753 750 752
f 752 750 753
f 751 763 774
f 774 763 751
f 751 774 764
f 764 774 751
f 729 764 765
f 765 764 729
f 730 765 766
f 766 765 730
f 756 731 766
f 766 731 756
f 767 753 755
f 755 753 767
f 754 749 767
f 767 749 754
f 756 766 768
f 768 766 756
f 739 768 769
f 769 768 739
f 740 769 757
f 757 769 740
f 757 769 758
f 758 769 757
f 758 775 759
f 759 775 758
f 759 776 770
f 770 776 759
f 773 760 761
f 761 760 773
f 771 777 761
f 761 777 771
f 772 771 743
f 743 771 772
f 770 778 762
f 762 778 770
f 760 773 746
f 746 773 760
f 747 773 763
f 763 773 747
f 767 750 753
f 753 750 767
f 774 763 777
f 777 763 774
f 764 774 779
f 779 774 764
f 764 780 765
f 765 780 764
f 766 765 781
f 781 765 766
f 768 766 781
f 781 766 768
f 769 768 775
f 775 768 769
f 769 775 758
f 758 775 769
f 775 776 759
f 759 776 775
f 776 782 770
f 770 782 776
f 773 761 777
f 777 761 773
f 777 771 783
f 783 771 777
f 771 772 783
f 783 772 771
f 770 782 778
f 778 782 770
f 763 773 777
f 777 773 763
f 777 783 774
f 774 783 777
f 774 783 779
f 779 783 774
f 780 764 779
f 779 764 780
f 765 780 781
f 781 780 765
f 775 768 781
f 781 768 775
f 781 776 775
f 775 776 781
f 776 780 782
f 782 780 776
f 783 772 778
f 778 772 783
f 782 779 778
f 778 779 782
f 783 778 779
f 779 778 783
f 780 779 782
f 782 779 780
f 781 780 776
f 776 780 781
f 516 476 467
f 516 467 498
f 467 465 498
f 498 465 470
f 784 785 786
f 784 787 785
f 788 787 784
f 788 789 787
f 790 789 788
f 790 791 789
f 790 792 791
f 792 793 791
f 792 794 793
f 794 795 793
f 794 796 795
f 796 797 795
f 795 797 798
f 795 798 799
f 795 799 800
f 800 799 801
f 799 802 801
f 801 802 803
f 802 804 803
f 804 805 803
f 804 806 805
f 806 807 805
f 808 807 806
f 808 809 807
f 810 809 808
f 810 811 809
f 810 812 811
f 786 785 784
f 785 787 784
f 784 787 788
f 787 789 788
f 788 789 790
f 789 791 790
f 791 792 790
f 791 793 792
f 793 794 792
f 793 795 794
f 795 796 794
f 795 797 796
f 798 797 795
f 799 798 795
f 800 799 795
f 801 799 800
f 801 802 799
f 803 802 801
f 803 804 802
f 803 805 804
f 805 806 804
f 805 807 806
f 806 807 808
f 807 809 808
f 808 809 810
f 809 811 810
f 811 812 810
f 813 814 815
f 813 815 816
f 813 816 817
f 817 816 818
f 818 816 819
f 815 814 813
f 816 815 813
f 817 816 813
f 818 816 817
f 819 816 818
f 820 817 821
f 822 820 821
f 822 821 823
f 822 823 824
f 824 823 825
f 824 825 826
f 826 825 827
f 826 827 828
f 828 827 829
f 828 829 830
f 830 829 831
f 830 831 832
f 831 833 832
f 833 834 832
f 833 835 834
f 835 836 834
f 837 836 835
f 837 838 836
f 839 838 837
f 839 840 838
f 818 840 839
f 821 817 820
f 821 820 822
f 823 821 822
f 824 823 822
f 825 823 824
f 826 825 824
f 827 825 826
f 828 827 826
f 829 827 828
f 830 829 828
f 831 829 830
f 832 831 830
f 832 833 831
f 832 834 833
f 834 835 833
f 834 836 835
f 835 836 837
f 836 838 837
f 837 838 839
f 838 840 839
f 839 840 818
f 841 842 843
f 841 844 842
f 842 845 843
f 846 841 843
f 847 844 841
f 845 848 843
f 849 841 846
f 847 850 844
f 851 850 847
f 851 852 850
f 851 853 852
f 853 854 852
f 853 855 854
f 855 856 854
f 855 857 856
f 857 858 856
f 857 859 858
f 859 860 858
f 858 860 861
f 858 861 862
f 858 862 863
f 863 862 864
f 865 863 864
f 865 864 845
f 866 865 845
f 843 842 841
f 842 844 841
f 843 845 842
f 843 841 846
f 841 844 847
f 843 848 845
f 846 841 849
f 844 850 847
f 847 850 851
f 850 852 851
f 852 853 851
f 852 854 853
f 854 855 853
f 854 856 855
f 856 857 855
f 856 858 857
f 858 859 857
f 858 860 859
f 861 860 858
f 862 861 858
f 863 862 858
f 864 862 863
f 864 863 865
f 845 864 865
f 845 865 866
f 867 868 869
f 867 869 870
f 868 871 869
f 872 867 870
f 869 871 873
f 874 871 868
f 872 870 875
f 872 875 876
f 876 875 877
f 876 877 878
f 878 877 879
f 878 879 880
f 880 879 881
f 880 881 882
f 869 868 867
f 870 869 867
f 869 871 868
f 870 867 872
f 873 871 869
f 868 871 874
f 875 870 872
f 876 875 872
f 877 875 876
f 878 877 876
f 879 877 878
f 880 879 878
f 881 879 880
f 882 881 880
f 883 884 885
f 883 886 884
f 883 885 887
f 886 888 884
f 887 885 889
f 886 890 888
f 887 889 891
f 890 892 888
f 891 889 893
f 890 882 892
f 891 893 894
f 882 895 892
f 895 896 892
f 892 896 897
f 892 897 898
f 898 897 899
f 898 899 900
f 900 899 901
f 902 900 901
f 902 901 903
f 902 903 904
f 885 884 883
f 884 886 883
f 887 885 883
f 884 888 886
f 889 885 887
f 888 890 886
f 891 889 887
f 888 892 890
f 893 889 891
f 892 882 890
f 894 893 891
f 892 895 882
f 892 896 895
f 897 896 892
f 898 897 892
f 899 897 898
f 900 899 898
f 901 899 900
f 901 900 902
f 903 901 902
f 904 903 902
f 905 906 907
f 908 906 905
f 905 907 909
f 908 910 906
f 909 907 911
f 908 894 910
f 909 911 912
f 913 894 908
f 912 911 914
f 915 913 908
f 916 912 914
f 915 908 917
f 916 914 918
f 915 917 919
f 920 916 918
f 919 917 921
f 922 920 918
f 919 921 923
f 924 920 922
f 923 921 925
f 926 924 922
f 923 925 927
f 926 928 924
f 927 925 928
f 927 928 926
f 907 906 905
f 905 906 908
f 909 907 905
f 906 910 908
f 911 907 909
f 910 894 908
f 912 911 909
f 908 894 913
f 914 911 912
f 908 913 915
f 914 912 916
f 917 908 915
f 918 914 916
f 919 917 915
f 918 916 920
f 921 917 919
f 918 920 922
f 923 921 919
f 922 920 924
f 925 921 923
f 922 924 926
f 927 925 923
f 924 928 926
f 928 925 927
f 926 928 927
f 929 930 931
f 932 930 929
f 931 930 929
f 929 930 932
f 933 934 935
f 935 934 936
f 935 934 933
f 936 934 935

