# https://github.com/mikedh/trimesh
v 0.19197930 -0.16782364 0.49156524
v 0.19849960 -0.15967852 0.49156524
v 0.19197930 -0.15967852 0.49156524
v 0.19794130 -0.16146809 0.49156524
v 0.19711220 -0.16316560 0.49156524
v 0.19603598 -0.16471828 0.49156524
v 0.19473795 -0.16609060 0.49156524
v 0.19428033 -0.16644701 0.49156524
v 0.19324718 -0.16725081 0.49156524
v 0.19197930 -0.16795931 0.49156524
v 0.18609322 -0.15967852 0.49228236
v 0.18609322 -0.16932518 0.49228236
v 0.16594013 -0.15967852 0.49419844
v 0.16594013 -0.17400099 0.49419844
v 0.13309532 -0.15967852 0.49663675
v 0.13309532 -0.18019987 0.49663675
v 0.10002223 -0.15967852 0.49797570
v 0.10002223 -0.18503181 0.49797570
v 0.06677741 -0.15967852 0.49900831
v 0.06677741 -0.18848981 0.49900831
v 0.03341737 -0.15967852 0.49950469
v 0.03341737 -0.19056633 0.49950469
v 0.00000027 -0.15967852 0.50000000
v 0.00000027 -0.19125922 0.50000000
v -0.03341684 -0.15967852 0.49950469
v -0.03341684 -0.19056633 0.49950469
v -0.06677687 -0.15967852 0.49900831
v -0.06677687 -0.18848981 0.49900831
v -0.10002223 -0.15967852 0.49797570
v -0.10002223 -0.18503181 0.49797570
v -0.13309532 -0.15967852 0.49663675
v -0.13309532 -0.18019987 0.49663675
v -0.16594013 -0.15967852 0.49419844
v -0.16594013 -0.17400099 0.49419844
v -0.18609322 -0.15967852 0.49228236
v -0.18609322 -0.16932518 0.49228236
v -0.19197930 -0.16795931 0.49156524
v -0.19197930 -0.15967852 0.49156524
v -0.19794076 -0.16146809 0.49156524
v -0.19849960 -0.15967852 0.49156524
v -0.19711166 -0.16316560 0.49156524
v -0.19603598 -0.16471828 0.49156524
v -0.19473741 -0.16609060 0.49156524
v -0.19427979 -0.16644701 0.49156524
v -0.19324664 -0.16725081 0.49156524
v -0.19849960 -0.15967852 -0.46929578
v 0.19849960 -0.14163426 -0.46929578
v -0.19849960 -0.14163426 -0.46929578
v 0.19849960 -0.15967852 -0.46929578
v -0.19794076 -0.16146809 -0.46929578
v 0.19794130 -0.16146809 -0.46929578
v -0.19711166 -0.16316560 -0.46929578
v 0.19711220 -0.16316560 -0.46929578
v -0.19603598 -0.16471828 -0.46929578
v 0.19603598 -0.16471828 -0.46929578
v -0.19473741 -0.16609060 -0.46929578
v 0.19473795 -0.16609060 -0.46929578
v -0.19427979 -0.16644701 -0.46929578
v 0.19428033 -0.16644701 -0.46929578
v -0.19324664 -0.16725081 -0.46929578
v 0.19324718 -0.16725081 -0.46929578
v -0.19197930 -0.16795931 -0.46929578
v 0.19197930 -0.16795931 -0.46929578
v -0.18609322 -0.16932518 -0.46929578
v 0.18609322 -0.16932518 -0.46929578
v -0.16594013 -0.17400099 -0.46929578
v 0.16594013 -0.17400099 -0.46929578
v -0.13309532 -0.18019987 -0.46929578
v 0.13309532 -0.18019987 -0.46929578
v -0.10002223 -0.18503181 -0.46929578
v 0.10002223 -0.18503181 -0.46929578
v -0.06677687 -0.18848981 -0.46929578
v 0.06677741 -0.18848981 -0.46929578
v -0.03341684 -0.19056633 -0.46929578
v 0.03341737 -0.19056633 -0.46929578
v 0.00000027 -0.19125922 -0.46929578
v -0.19849960 -0.14163426 0.15648218
v -0.19104091 -0.14163426 0.14902403
v 0.19849960 -0.14163426 0.15648218
v 0.19389001 -0.14163426 0.14902403
v 0.19389001 -0.14163426 -0.46183763
v -0.19104091 -0.14163426 -0.46183763
v 0.18643186 -0.14163426 0.14156534
v -0.18358276 -0.13712319 0.14156534
v 0.18643186 -0.13712319 0.14156534
v -0.18358276 -0.14163426 0.14156534
v -0.18358276 -0.14163426 -0.45437895
v 0.18643186 -0.14163426 -0.45437895
v -0.18358276 -0.13712319 -0.45437895
v 0.18643186 -0.13712319 -0.45437895
v 0.19849960 0.19125922 0.48254256
v 0.19849960 -0.13712319 -0.46929578
v 0.19849960 0.19125922 -0.46929578
v 0.19849960 -0.13712319 0.48254256
v -0.19849960 -0.13712319 0.48254256
v -0.19849960 -0.13712319 -0.46929578
v 0.16930391 -0.13712319 0.48254256
v -0.19849960 0.19125922 -0.46929578
v -0.19849960 0.19125922 0.48254256
v 0.18643186 -0.14163426 0.47047537
v -0.18643186 -0.13712319 0.47047537
v 0.18643186 -0.13712319 0.47047537
v -0.18643186 -0.14163426 0.47047537
v -0.18643186 -0.14163426 0.17507020
v -0.18643186 -0.13712319 0.17507020
v 0.18643186 -0.13712319 0.17507020
v 0.18643186 -0.14163426 0.17507020
v -0.19104091 -0.13712319 -0.46183763
v 0.19389001 -0.13712319 -0.46183763
v -0.19104091 -0.13712319 0.14902403
v 0.19389001 -0.13712319 0.14902403
v -0.19389001 -0.13712319 0.16761206
v -0.19389001 -0.13712319 0.47793351
v 0.19389001 -0.13712319 0.16761206
v 0.19389001 -0.13712319 0.47793351
v -0.19849960 -0.14163426 0.48254310
v -0.19389001 -0.14163426 0.47793351
v -0.19849960 -0.14163426 0.16300247
v 0.19849960 -0.14163426 0.48254310
v 0.19389001 -0.14163426 0.47793351
v 0.19389001 -0.14163426 0.16761206
v -0.19389001 -0.14163426 0.16761206
v 0.19849960 -0.14163426 0.16300247
v -0.16151628 -0.15447887 0.16300247
v -0.16262318 -0.15456071 0.16300247
v -0.19849960 -0.15967852 0.16300247
v -0.16371555 -0.15475667 0.16300247
v -0.16478208 -0.15506355 0.16300247
v -0.16581145 -0.15547918 0.16300247
v -0.16591590 -0.15773929 0.16300247
v -0.16568655 -0.15998971 0.16300247
v -0.19794076 -0.16146809 0.16300247
v -0.16526662 -0.16164145 0.16300247
v -0.19711166 -0.16316560 0.16300247
v -0.16512879 -0.16218198 0.16300247
v -0.16425447 -0.16426819 0.16300247
v -0.19603598 -0.16471828 0.16300247
v -0.16308242 -0.16620259 0.16300247
v -0.19473741 -0.16609060 0.16300247
v -0.19427979 -0.16644701 0.16300247
v -0.16171009 -0.16785702 0.16300247
v -0.19324664 -0.16725081 0.16300247
v -0.19197930 -0.16795931 0.16300247
v -0.16163795 -0.16794370 0.16300247
v -0.16139676 -0.16816013 0.16300247
v -0.18609322 -0.16932518 0.16300247
v -0.16125785 -0.16829472 0.16300247
v -0.16076416 -0.16872704 0.16300247
v -0.15995337 -0.16945331 0.16300247
v -0.16845920 -0.17341685 0.16300247
v -0.15915495 -0.16997930 0.16300247
v -0.15890622 -0.17015751 0.16300247
v -0.15806474 -0.17069858 0.16300247
v -0.15806474 -0.17473264 0.16300247
v -0.16594013 -0.17400099 0.16300247
v -0.15897944 -0.17531463 0.16300247
v 0.19849960 -0.15967852 0.16300247
v -0.16040668 -0.15451117 0.16300247
v -0.15930624 -0.15465815 0.16300247
v -0.15822733 -0.15491765 0.16300247
v -0.15806474 -0.15497526 0.16300247
v -0.15718072 -0.15528752 0.16300247
v -0.15617772 -0.15576290 0.16300247
v -0.15522910 -0.15633951 0.16300247
v -0.15434509 -0.15701032 0.16300247
v -0.15353483 -0.15776890 0.16300247
v -0.14864259 -0.16248724 0.16300247
v 0.19794130 -0.16146809 0.16300247
v 0.19711220 -0.16316560 0.16300247
v -0.14341494 -0.16683033 0.16300247
v 0.19603598 -0.16471828 0.16300247
v 0.19473795 -0.16609060 0.16300247
v 0.19428033 -0.16644701 0.16300247
v 0.19324718 -0.16725081 0.16300247
v -0.13788042 -0.17077557 0.16300247
v 0.19197930 -0.16795931 0.16300247
v 0.18609322 -0.16932518 0.16300247
v 0.16594013 -0.17400099 0.16300247
v -0.13206971 -0.17430032 0.16300247
v 0.13309532 -0.18019987 0.16300247
v -0.12601350 -0.17738523 0.16300247
v -0.11974624 -0.18001413 0.16300247
v -0.11330132 -0.18217248 0.16300247
v 0.10002223 -0.18503181 0.16300247
v -0.10671481 -0.18384791 0.16300247
v -0.10002223 -0.18503181 0.16300247
v -0.06677687 -0.18848981 0.16300247
v 0.06677741 -0.18848981 0.16300247
v -0.03341684 -0.19056633 0.16300247
v 0.03341737 -0.19056633 0.16300247
v 0.00000027 -0.19125922 0.16300247
v 0.19849960 -0.15967852 0.48254310
v -0.19849960 -0.15967852 0.48254310
v -0.16845920 -0.17341685 0.35276823
v -0.16843066 -0.17342331 0.35292974
v -0.16831006 -0.17345130 0.35328830
v -0.16813725 -0.17349114 0.35362425
v -0.16791705 -0.17354229 0.35392843
v -0.16765378 -0.17360366 0.35419493
v -0.16735391 -0.17367311 0.35441728
v -0.16702496 -0.17374956 0.35459010
v -0.16667393 -0.17383086 0.35470854
v -0.16630945 -0.17391538 0.35477153
v -0.16594013 -0.17400099 0.35477584
v -0.10002223 -0.18503181 0.35710379
v -0.09827305 -0.18521378 0.35710379
v -0.09820252 -0.18522132 0.35709356
v -0.09813253 -0.18522832 0.35707741
v -0.09806469 -0.18523585 0.35705587
v -0.09799793 -0.18524231 0.35702949
v -0.09793387 -0.18524931 0.35699773
v -0.09787195 -0.18525577 0.35696165
v -0.09781327 -0.18526169 0.35692020
v -0.09775782 -0.18526762 0.35687498
v -0.09770613 -0.18527300 0.35682545
v -0.09767598 -0.18527623 0.35679153
v -0.09765876 -0.18527785 0.35677215
v -0.09761515 -0.18528215 0.35671508
v -0.09757585 -0.18528646 0.35665478
v -0.09744125 -0.18530046 0.35637213
v -0.09736157 -0.18530853 0.35606849
v -0.09733950 -0.18531123 0.35575569
v -0.09733950 -0.18531123 0.35106480
v -0.09974982 -0.18506034 0.34859796
v -0.10002223 -0.18503181 0.34850482
v -0.09948332 -0.18508780 0.34870725
v -0.09922382 -0.18511526 0.34883161
v -0.09897240 -0.18514110 0.34897159
v -0.09872959 -0.18516640 0.34912664
v -0.09849593 -0.18519063 0.34929569
v -0.09827305 -0.18521378 0.34947820
v -0.09808515 -0.18523370 0.34965695
v -0.09791395 -0.18525147 0.34985130
v -0.09776105 -0.18526708 0.35006073
v -0.09762699 -0.18528108 0.35028308
v -0.09751339 -0.18529292 0.35051673
v -0.09742079 -0.18530261 0.35075954
v -0.09735027 -0.18531015 0.35100935
v -0.13309532 -0.18019987 0.35621654
v -0.12791720 -0.17814165 0.34926016
v -0.12858210 -0.17840599 0.35035253
v -0.13541788 -0.17653352 0.35077139
v -0.13625721 -0.17709343 0.35179700
v -0.13466038 -0.17602852 0.34965802
v -0.12068786 -0.18026770 0.34884400
v -0.12933529 -0.17870533 0.35137652
v -0.14321682 -0.17591007 0.35242205
v -0.14227250 -0.17500129 0.35147935
v -0.12734544 -0.17791445 0.34810857
v -0.12035138 -0.18017672 0.34781300
v -0.12109542 -0.18037699 0.34984699
v -0.13717084 -0.17770287 0.35272678
v -0.14422412 -0.17687915 0.35322962
v -0.14140087 -0.17416250 0.35041067
v -0.13399064 -0.17558166 0.34846605
v -0.11352044 -0.18219994 0.34794490
v -0.11369003 -0.18222094 0.34883430
v -0.13016977 -0.17903697 0.35232407
v -0.12157242 -0.18050513 0.35081715
v -0.14985501 -0.17703690 0.35361564
v -0.14895000 -0.17560212 0.35301481
v -0.14808375 -0.17422926 0.35223577
v -0.12687113 -0.17772602 0.34690691
v -0.12008757 -0.18010619 0.34675940
v -0.11339877 -0.18218487 0.34704689
v -0.11390753 -0.18224839 0.34971348
v -0.12211564 -0.18065157 0.35174854
v -0.13815068 -0.17835646 0.35355157
v -0.14528419 -0.17789938 0.35389398
v -0.14726703 -0.17293554 0.35128823
v -0.14060945 -0.17340123 0.34922732
v -0.13341404 -0.17519672 0.34720571
v -0.10676057 -0.18384738 0.34829485
v -0.10672611 -0.18384791 0.34753305
v -0.10681818 -0.18384576 0.34905558
v -0.12272293 -0.18081469 0.35263740
v -0.13107963 -0.17939876 0.35318817
v -0.11417134 -0.18228124 0.35057919
v -0.15442584 -0.17617388 0.35333676
v -0.15896706 -0.17531732 0.35172808
v -0.15897944 -0.17531463 0.35152296
v -0.15892883 -0.17532432 0.35192944
v -0.15886692 -0.17533616 0.35212433
v -0.15878078 -0.17535231 0.35231007
v -0.15867257 -0.17537277 0.35248289
v -0.15854389 -0.17539700 0.35264117
v -0.15839638 -0.17542500 0.35278115
v -0.15823325 -0.17545568 0.35290175
v -0.15805612 -0.17548906 0.35299973
v -0.15786877 -0.17552460 0.35307511
v -0.15767334 -0.17556120 0.35312571
v -0.15747306 -0.17559889 0.35315048
v -0.13918975 -0.17904935 0.35426600
v -0.13309532 -0.18019987 0.35463748
v -0.15363927 -0.17431271 0.35291305
v -0.12649804 -0.17757797 0.34566434
v -0.11989806 -0.18005504 0.34568856
v -0.11332555 -0.18217571 0.34614403
v -0.10671481 -0.18384791 0.34677016
v -0.10689893 -0.18384415 0.34981469
v -0.11448198 -0.18232000 0.35142929
v -0.12489313 -0.18139830 0.35499873
v -0.11669095 -0.18259672 0.35535944
v -0.10835632 -0.18381454 0.35572608
v -0.10002223 -0.18503181 0.35609271
v -0.13205732 -0.17978747 0.35396128
v -0.15403283 -0.17524356 0.35312464
v -0.15806474 -0.17473264 0.35305895
v -0.15287801 -0.17251076 0.35225300
v -0.14650900 -0.17173388 0.35018294
v -0.13990741 -0.17272557 0.34794006
v -0.13293542 -0.17487747 0.34588722
v -0.10002223 -0.18503181 0.34945344
v -0.12339052 -0.18099397 0.35347781
v -0.11483785 -0.18236468 0.35226162
v -0.10700230 -0.18384199 0.35057003
v -0.10002223 -0.18503181 0.35514409
v -0.10002223 -0.18503181 0.35419547
v -0.10002223 -0.18503181 0.35324739
v -0.10002223 -0.18503181 0.35229877
v -0.10002223 -0.18503181 0.35135014
v -0.10002223 -0.18503181 0.35040206
v -0.10809682 -0.18381992 0.35500842
v -0.11616549 -0.18253104 0.35462402
v -0.12411518 -0.18118887 0.35426654
v -0.15806474 -0.17069858 0.35305895
v -0.12622992 -0.17747137 0.34439107
v -0.11978393 -0.18002436 0.34460642
v -0.11330132 -0.18217248 0.34523848
v -0.10712828 -0.18383984 0.35132269
v -0.10744862 -0.18383284 0.35281453
v -0.10764243 -0.18382907 0.35355211
v -0.10785832 -0.18382476 0.35428376
v -0.15215227 -0.17079333 0.35136683
v -0.15890622 -0.17015751 0.35305895
v -0.15743591 -0.17237939 0.35234560
v -0.14581826 -0.17063936 0.34893229
v -0.13930120 -0.17214251 0.34656289
v -0.13255909 -0.17462658 0.34452136
v -0.11523787 -0.18241475 0.35307295
v -0.10727741 -0.18383661 0.35207103
v -0.11568095 -0.18247021 0.35386114
v -0.15915495 -0.16997930 0.35305895
v -0.15683185 -0.17011713 0.35136522
v -0.12606787 -0.17740676 0.34309681
v -0.11974624 -0.18001413 0.34351890
v -0.15147284 -0.16918466 0.35026531
v -0.16262318 -0.15456071 0.35305895
v -0.16040668 -0.15451117 0.35305895
v -0.16151628 -0.15447887 0.35305895
v -0.15930624 -0.15465815 0.35305895
v -0.16371555 -0.15475667 0.35305895
v -0.15822733 -0.15491765 0.35305895
v -0.16478208 -0.15506355 0.35305895
v -0.15806474 -0.15497526 0.35305895
v -0.15718072 -0.15528752 0.35305895
v -0.16581145 -0.15547918 0.35305895
v -0.15617772 -0.15576290 0.35305895
v -0.16591590 -0.15773929 0.35305895
v -0.15522910 -0.15633951 0.35305895
v -0.15434509 -0.15701032 0.35305895
v -0.15353483 -0.15776890 0.35305895
v -0.16568655 -0.15998971 0.35305895
v -0.15523987 -0.16263637 0.35305895
v -0.16526662 -0.16164145 0.35305895
v -0.16512879 -0.16218198 0.35305895
v -0.16425447 -0.16426819 0.35305895
v -0.15665257 -0.16666774 0.35305895
v -0.16308242 -0.16620259 0.35305895
v -0.16171009 -0.16785702 0.35305895
v -0.16139676 -0.16816013 0.35305895
v -0.16076416 -0.16872704 0.35305895
v -0.15995337 -0.16945331 0.35305895
v -0.15626009 -0.16797492 0.35012964
v -0.14520289 -0.16966435 0.34755027
v -0.13879674 -0.17165689 0.34510819
v -0.13228775 -0.17444569 0.34312050
v -0.15572710 -0.16597916 0.34865449
v -0.15523987 -0.16415513 0.34695752
v -0.15353483 -0.15776890 0.33094078
v -0.16163795 -0.16794370 0.35305895
v -0.16125785 -0.16829472 0.35305895
v -0.15084832 -0.16770681 0.34896567
v -0.12601350 -0.17738523 0.34179232
v -0.15386162 -0.15899209 0.33841777
v -0.15411143 -0.15992779 0.34076402
v -0.15442692 -0.16111061 0.34298752
v -0.15480486 -0.16252547 0.34506082
v -0.15028841 -0.16638186 0.34748459
v -0.14466990 -0.16881910 0.34605305
v -0.13839888 -0.17127410 0.34359104
v -0.13212408 -0.17433640 0.34169542
v -0.14980064 -0.16522704 0.34584415
v -0.14939147 -0.16425958 0.34406697
v -0.14906737 -0.16349239 0.34217780
v -0.14883264 -0.16293679 0.34020303
v -0.14869050 -0.16259976 0.33817120
v -0.15326887 -0.15802570 0.33157499
v -0.13206971 -0.17430032 0.34025849
v -0.14864259 -0.16248724 0.33611029
v -0.15297115 -0.15831266 0.33218121
v -0.14422520 -0.16811436 0.34445783
v -0.13811192 -0.17099792 0.34202652
v -0.14387364 -0.16755768 0.34278294
v -0.14362006 -0.16715498 0.34104667
v -0.14346662 -0.16691217 0.33927002
v -0.14341494 -0.16683033 0.33747292
v -0.14915351 -0.16199462 0.33592347
v -0.15264327 -0.15862923 0.33275619
v -0.13793856 -0.17083102 0.34043077
v -0.14965366 -0.16151278 0.33568712
v -0.15228633 -0.15897325 0.33329672
v -0.13788042 -0.17077557 0.33881833
v -0.15013982 -0.16104331 0.33540124
v -0.15190247 -0.15934311 0.33380118
v -0.15061036 -0.16058946 0.33506799
v -0.15149384 -0.15973721 0.33426580
v -0.15106260 -0.16015337 0.33468897
v 0.19849960 -0.15967852 0.15648218
v 0.19794130 -0.16146809 0.15648218
v -0.16151628 -0.15447887 0.15648218
v -0.16040668 -0.15451117 0.15648218
v -0.15930624 -0.15465815 0.15648218
v -0.15822733 -0.15491765 0.15648218
v -0.15806474 -0.15497526 0.15648218
v -0.15718072 -0.15528752 0.15648218
v -0.15617772 -0.15576290 0.15648218
v -0.15522910 -0.15633951 0.15648218
v -0.15434509 -0.15701032 0.15648218
v -0.15353483 -0.15776890 0.15648218
v -0.14864259 -0.16248724 0.15648218
v 0.19711220 -0.16316560 0.15648218
v -0.14341494 -0.16683033 0.15648218
v 0.19603598 -0.16471828 0.15648218
v 0.19473795 -0.16609060 0.15648218
v 0.19428033 -0.16644701 0.15648218
v 0.19324718 -0.16725081 0.15648218
v -0.13788042 -0.17077557 0.15648218
v 0.19197930 -0.16795931 0.15648218
v 0.18609322 -0.16932518 0.15648218
v 0.16594013 -0.17400099 0.15648218
v -0.13206971 -0.17430032 0.15648218
v 0.13309532 -0.18019987 0.15648218
v -0.12601350 -0.17738523 0.15648218
v -0.11974624 -0.18001413 0.15648218
v -0.11330132 -0.18217248 0.15648218
v 0.10002223 -0.18503181 0.15648218
v -0.10671481 -0.18384791 0.15648218
v -0.10002223 -0.18503181 0.15648218
v 0.06677741 -0.18848981 0.15648218
v -0.06677687 -0.18848981 0.15648218
v 0.03341737 -0.19056633 0.15648218
v -0.03341684 -0.19056633 0.15648218
v 0.00000027 -0.19125922 0.15648218
v -0.16262318 -0.15456071 0.15648218
v -0.19849960 -0.15967852 0.15648218
v -0.16371555 -0.15475667 0.15648218
v -0.16478208 -0.15506355 0.15648218
v -0.16581145 -0.15547918 0.15648218
v -0.16591590 -0.15773929 0.15648218
v -0.16568655 -0.15998971 0.15648218
v -0.19794076 -0.16146809 0.15648218
v -0.16526662 -0.16164145 0.15648218
v -0.19711166 -0.16316560 0.15648218
v -0.16512879 -0.16218198 0.15648218
v -0.16425447 -0.16426819 0.15648218
v -0.19603598 -0.16471828 0.15648218
v -0.16308242 -0.16620259 0.15648218
v -0.19473741 -0.16609060 0.15648218
v -0.19427979 -0.16644701 0.15648218
v -0.16171009 -0.16785702 0.15648218
v -0.19324664 -0.16725081 0.15648218
v -0.19197930 -0.16795931 0.15648218
v -0.16163795 -0.16794370 0.15648218
v -0.16139676 -0.16816013 0.15648218
v -0.18609322 -0.16932518 0.15648218
v -0.16125785 -0.16829472 0.15648218
v -0.16076416 -0.16872704 0.15648218
v -0.15995337 -0.16945331 0.15648218
v -0.16845920 -0.17341685 0.15648218
v -0.15915495 -0.16997930 0.15648218
v -0.15890622 -0.17015751 0.15648218
v -0.15806474 -0.17069858 0.15648218
v -0.15806474 -0.17473264 0.15648218
v -0.16594013 -0.17400099 0.15648218
v -0.15897944 -0.17531463 0.15648218
v -0.10002223 -0.18503181 -0.12689563
v -0.09974982 -0.18506034 -0.12698877
v -0.09948332 -0.18508780 -0.12709806
v -0.09922382 -0.18511526 -0.12722242
v -0.09897240 -0.18514110 -0.12736240
v -0.09872959 -0.18516640 -0.12751745
v -0.09849593 -0.18519063 -0.12768650
v -0.09827305 -0.18521378 -0.12786901
v -0.09808515 -0.18523370 -0.12804722
v -0.09791395 -0.18525147 -0.12824211
v -0.09776105 -0.18526708 -0.12845154
v -0.09762699 -0.18528108 -0.12867389
v -0.09751339 -0.18529292 -0.12890755
v -0.09742079 -0.18530261 -0.12915035
v -0.09735027 -0.18531015 -0.12940016
v -0.09733950 -0.18531123 -0.12945561
v -0.09733950 -0.18531123 -0.13414650
v -0.10002223 -0.18503181 -0.13549460
v -0.09827305 -0.18521378 -0.13549460
v -0.09820252 -0.18522132 -0.13548383
v -0.09813253 -0.18522832 -0.13546822
v -0.09806469 -0.18523585 -0.13544668
v -0.09799793 -0.18524231 -0.13542030
v -0.09793387 -0.18524931 -0.13538854
v -0.09787195 -0.18525577 -0.13535193
v -0.09781327 -0.18526169 -0.13531101
v -0.09775782 -0.18526762 -0.13526579
v -0.09770613 -0.18527300 -0.13521626
v -0.09767598 -0.18527623 -0.13518180
v -0.09765876 -0.18527785 -0.13516242
v -0.09761515 -0.18528215 -0.13510589
v -0.09757585 -0.18528646 -0.13504559
v -0.09744125 -0.18530046 -0.13476240
v -0.09736157 -0.18530853 -0.13445930
v -0.16845920 -0.17341685 -0.13105083
v -0.16841128 -0.17342761 -0.13129417
v -0.16828691 -0.17345669 -0.13164250
v -0.16811140 -0.17349706 -0.13196661
v -0.16789013 -0.17354875 -0.13226002
v -0.16762740 -0.17360959 -0.13251468
v -0.16732968 -0.17367850 -0.13272464
v -0.16700450 -0.17375387 -0.13288562
v -0.16665886 -0.17383409 -0.13299383
v -0.16633368 -0.17391000 -0.13304121
v -0.16630138 -0.17391754 -0.13304605
v -0.16594013 -0.17400099 -0.13304121
v -0.13309532 -0.18019987 -0.13460735
v -0.16294621 -0.17456628 -0.13329802
v -0.15897944 -0.17531463 -0.12991377
v -0.15767334 -0.17556120 -0.13151652
v -0.15786877 -0.17552460 -0.13146592
v -0.15805612 -0.17548906 -0.13139054
v -0.15823325 -0.17545568 -0.13129202
v -0.15839638 -0.17542500 -0.13117196
v -0.15854389 -0.17539700 -0.13103198
v -0.15867257 -0.17537277 -0.13087370
v -0.15878078 -0.17535231 -0.13070088
v -0.15886692 -0.17533616 -0.13051514
v -0.15892883 -0.17532432 -0.13032025
v -0.15896706 -0.17531732 -0.13011836
v -0.15747306 -0.17559889 -0.13154129
v -0.15442584 -0.17617388 -0.13172703
v -0.14985501 -0.17703690 -0.13200591
v -0.14528419 -0.17789938 -0.13228479
v -0.13918975 -0.17904935 -0.13265681
v -0.13309532 -0.18019987 -0.13302829
v -0.11974624 -0.18001413 -0.12190971
v -0.11330132 -0.18217248 -0.12362929
v -0.10671481 -0.18384791 -0.12516097
v -0.12601350 -0.17738523 -0.12018313
v -0.13206971 -0.17430032 -0.11864876
v -0.13788042 -0.17077557 -0.11720914
v -0.14341494 -0.16683033 -0.11586373
v -0.14864259 -0.16248724 -0.11450110
v -0.15353483 -0.15776890 -0.10933159
v -0.15326887 -0.15802570 -0.10996580
v -0.15297115 -0.15831266 -0.11057148
v -0.15264327 -0.15862923 -0.11114646
v -0.15228633 -0.15897325 -0.11168753
v -0.15190247 -0.15934311 -0.11219199
v -0.15149384 -0.15973721 -0.11265661
v -0.15106260 -0.16015337 -0.11307924
v -0.15061036 -0.16058946 -0.11345880
v -0.15013982 -0.16104331 -0.11379205
v -0.14965366 -0.16151278 -0.11407739
v -0.14915351 -0.16199462 -0.11431428
v -0.12606787 -0.17740676 -0.12148762
v -0.12622992 -0.17747137 -0.12278135
v -0.13228775 -0.17444569 -0.12151131
v -0.11978393 -0.18002436 -0.12299723
v -0.13255909 -0.17462658 -0.12291217
v -0.13212408 -0.17433640 -0.12008623
v -0.12649804 -0.17757797 -0.12405515
v -0.13293542 -0.17487747 -0.12427804
v -0.13839888 -0.17127410 -0.12198185
v -0.13879674 -0.17165689 -0.12349900
v -0.11989806 -0.18005504 -0.12407937
v -0.13930120 -0.17214251 -0.12495316
v -0.13811192 -0.17099792 -0.12041733
v -0.12687113 -0.17772602 -0.12529718
v -0.13341404 -0.17519672 -0.12559598
v -0.11332555 -0.18217571 -0.12453484
v -0.13990741 -0.17272557 -0.12633087
v -0.14422520 -0.16811436 -0.12284864
v -0.14466990 -0.16881910 -0.12444386
v -0.13793856 -0.17083102 -0.11882104
v -0.14520289 -0.16966435 -0.12594108
v -0.12008757 -0.18010619 -0.12514967
v -0.14581826 -0.17063936 -0.12732310
v -0.14387364 -0.16755768 -0.12117321
v -0.12734544 -0.17791445 -0.12649938
v -0.13399064 -0.17558166 -0.12685686
v -0.14060945 -0.17340123 -0.12761813
v -0.11339877 -0.18218487 -0.12543770
v -0.14650900 -0.17173388 -0.12857375
v -0.14980064 -0.16522704 -0.12423497
v -0.15028841 -0.16638186 -0.12587540
v -0.15084832 -0.16770681 -0.12735648
v -0.14362006 -0.16715498 -0.11943748
v -0.15147284 -0.16918466 -0.12865612
v -0.12035138 -0.18017672 -0.12620327
v -0.10672611 -0.18384791 -0.12592386
v -0.15215227 -0.17079333 -0.12975711
v -0.14939147 -0.16425958 -0.12245778
v -0.14346662 -0.16691217 -0.11766083
v -0.12791720 -0.17814165 -0.12765097
v -0.13466038 -0.17602852 -0.12804883
v -0.14140087 -0.17416250 -0.12880149
v -0.14726703 -0.17293554 -0.12967904
v -0.11352044 -0.18219994 -0.12633518
v -0.15287801 -0.17251076 -0.13064381
v -0.15523987 -0.16415513 -0.12534833
v -0.15572710 -0.16597916 -0.12704476
v -0.15626009 -0.16797492 -0.12852045
v -0.15683185 -0.17011713 -0.12975603
v -0.14906737 -0.16349239 -0.12056861
v -0.15743591 -0.17237939 -0.13073641
v -0.12068786 -0.18026770 -0.12723481
v -0.10676057 -0.18384738 -0.12668566
v -0.15806474 -0.17473264 -0.13144977
v -0.15480486 -0.16252547 -0.12345163
v -0.14883264 -0.16293679 -0.11859384
v -0.12858210 -0.17840599 -0.12874280
v -0.13541788 -0.17653352 -0.12916220
v -0.14227250 -0.17500129 -0.12987016
v -0.14808375 -0.17422926 -0.13062659
v -0.15363927 -0.17431271 -0.13130386
v -0.11369003 -0.18222094 -0.12722512
v -0.10681818 -0.18384576 -0.12744639
v -0.15353483 -0.15776890 -0.13144977
v -0.15442692 -0.16111061 -0.12137833
v -0.15411143 -0.15992779 -0.11915483
v -0.15386162 -0.15899209 -0.11680858
v -0.15523987 -0.16263637 -0.13144977
v -0.15665257 -0.16666774 -0.13144977
v -0.15806474 -0.17069858 -0.13144977
v -0.14869050 -0.16259976 -0.11656201
v -0.12109542 -0.18037699 -0.12823780
v -0.10002223 -0.18503181 -0.12784425
v -0.15434509 -0.15701032 -0.13144977
v -0.13625721 -0.17709343 -0.13018781
v -0.12933529 -0.17870533 -0.12976733
v -0.14321682 -0.17591007 -0.13081286
v -0.14895000 -0.17560212 -0.13140508
v -0.15403283 -0.17524356 -0.13151545
v -0.11390753 -0.18224839 -0.12810429
v -0.10002223 -0.18503181 -0.12879287
v -0.10002223 -0.18503181 -0.12974095
v -0.10002223 -0.18503181 -0.13068958
v -0.10002223 -0.18503181 -0.13163766
v -0.10002223 -0.18503181 -0.13258628
v -0.10002223 -0.18503181 -0.13353490
v -0.10002223 -0.18503181 -0.13448352
v -0.10689893 -0.18384415 -0.12820496
v -0.16040668 -0.15451117 -0.13144977
v -0.16262318 -0.15456071 -0.13144977
v -0.16151628 -0.15447887 -0.13144977
v -0.15930624 -0.15465815 -0.13144977
v -0.16371555 -0.15475667 -0.13144977
v -0.15822733 -0.15491765 -0.13144977
v -0.16478208 -0.15506355 -0.13144977
v -0.15806474 -0.15497526 -0.13144977
v -0.15718072 -0.15528752 -0.13144977
v -0.16581145 -0.15547918 -0.13144977
v -0.15617772 -0.15576290 -0.13144977
v -0.16591590 -0.15773929 -0.13144977
v -0.15522910 -0.15633951 -0.13144977
v -0.16568655 -0.15998971 -0.13144977
v -0.16526662 -0.16164145 -0.13144977
v -0.16512879 -0.16218198 -0.13144977
v -0.16425447 -0.16426819 -0.13144977
v -0.16308242 -0.16620259 -0.13144977
v -0.16171009 -0.16785702 -0.13144977
v -0.16139676 -0.16816013 -0.13144977
v -0.16076416 -0.16872704 -0.13144977
v -0.15915495 -0.16997930 -0.13144977
v -0.15995337 -0.16945331 -0.13144977
v -0.15890622 -0.17015751 -0.13144977
v -0.12157242 -0.18050513 -0.12920796
v -0.12489313 -0.18139830 -0.13338954
v -0.11669095 -0.18259672 -0.13375025
v -0.10835632 -0.18381454 -0.13411689
v -0.10809682 -0.18381992 -0.13339923
v -0.10785832 -0.18382476 -0.13267457
v -0.10764243 -0.18382907 -0.13194292
v -0.10744862 -0.18383284 -0.13120480
v -0.10712828 -0.18383984 -0.12971350
v -0.10700230 -0.18384199 -0.12896084
v -0.16125785 -0.16829472 -0.13144977
v -0.16163795 -0.16794370 -0.13144977
v -0.13717084 -0.17770287 -0.13111705
v -0.14422412 -0.17687915 -0.13162043
v -0.12211564 -0.18065157 -0.13013935
v -0.11417134 -0.18228124 -0.12897000
v -0.12411518 -0.18118887 -0.13265735
v -0.11616549 -0.18253104 -0.13301483
v -0.10727741 -0.18383661 -0.13046184
v -0.13016977 -0.17903697 -0.13071488
v -0.13205732 -0.17978747 -0.13235209
v -0.11568095 -0.18247021 -0.13225195
v -0.11523787 -0.18241475 -0.13146376
v -0.11448198 -0.18232000 -0.12982010
v -0.11483785 -0.18236468 -0.13065243
v -0.13815068 -0.17835646 -0.13194238
v -0.12272293 -0.18081469 -0.13102822
v -0.12339052 -0.18099397 -0.13186862
v -0.13107963 -0.17939876 -0.13157898
v 0.19849960 -0.15967852 -0.50000000
v 0.11165604 -0.14163426 -0.50000000
v 0.19849960 -0.14163426 -0.50000000
v 0.11402275 -0.14607749 -0.50000000
v 0.11682177 -0.15026122 -0.50000000
v 0.12002620 -0.15414400 -0.50000000
v 0.12360318 -0.15768599 -0.50000000
v 0.12751719 -0.16085219 -0.50000000
v 0.19794130 -0.16146809 -0.50000000
v 0.13067100 -0.16291794 -0.50000000
v 0.19711220 -0.16316560 -0.50000000
v 0.13289989 -0.16379011 -0.50000000
v 0.19603598 -0.16471828 -0.50000000
v 0.13498395 -0.16460522 -0.50000000
v 0.13615707 -0.16506445 -0.50000000
v 0.19473795 -0.16609060 -0.50000000
v 0.14215675 -0.16697785 -0.50000000
v 0.19428033 -0.16644701 -0.50000000
v 0.19324718 -0.16725081 -0.50000000
v 0.14609175 -0.16795985 -0.50000000
v 0.19197930 -0.16795985 -0.50000000
v 0.18581434 -0.16924227 -0.50000000
v 0.14826626 -0.16850200 -0.50000000
v 0.15446137 -0.16963151 -0.50000000
v 0.17957993 -0.17012628 -0.50000000
v 0.16071625 -0.17036048 -0.50000000
v 0.17330136 -0.17060813 -0.50000000
v 0.16700450 -0.17068673 -0.50000000
v 0.19849960 -0.14163426 -0.47313388
v 0.19849960 -0.15967852 -0.47313388
v 0.19794130 -0.16146809 -0.47313388
v 0.11165604 -0.14163426 -0.47313388
v 0.11402275 -0.14607749 -0.47313388
v 0.11682177 -0.15026122 -0.47313388
v 0.12002620 -0.15414400 -0.47313388
v 0.12360318 -0.15768599 -0.47313388
v 0.12751719 -0.16085219 -0.47313388
v 0.13067100 -0.16291794 -0.47313388
v 0.19711220 -0.16316560 -0.47313388
v 0.13289989 -0.16379011 -0.47313388
v 0.19603598 -0.16471828 -0.47313388
v 0.13498395 -0.16460522 -0.47313388
v 0.13615707 -0.16506445 -0.47313388
v 0.19473795 -0.16609060 -0.47313388
v 0.14215675 -0.16697785 -0.47313388
v 0.19428033 -0.16644701 -0.47313388
v 0.19324718 -0.16725081 -0.47313388
v 0.14609175 -0.16795985 -0.47313388
v 0.19197930 -0.16795985 -0.47313388
v 0.18581434 -0.16924227 -0.47313388
v 0.14826626 -0.16850200 -0.47313388
v 0.15446137 -0.16963151 -0.47313388
v 0.17957993 -0.17012628 -0.47313388
v 0.16071625 -0.17036048 -0.47313388
v 0.17330136 -0.17060813 -0.47313388
v 0.16700450 -0.17068673 -0.47313388
v -0.13498341 -0.16460522 -0.50000000
v -0.13498341 -0.16460522 -0.47313388
v -0.13289935 -0.16379011 -0.50000000
v -0.13289935 -0.16379011 -0.47313388
v -0.13067100 -0.16291794 -0.50000000
v -0.13067100 -0.16291794 -0.47313388
v -0.16700450 -0.17068673 -0.47313388
v -0.17330083 -0.17060813 -0.47313388
v -0.16071571 -0.17036048 -0.47313388
v -0.17957939 -0.17012628 -0.47313388
v -0.15446084 -0.16963151 -0.47313388
v -0.18581380 -0.16924227 -0.47313388
v -0.14826626 -0.16850200 -0.47313388
v -0.14609122 -0.16795985 -0.47313388
v -0.19197930 -0.16795985 -0.47313388
v -0.19324664 -0.16725081 -0.47313388
v -0.14215621 -0.16697785 -0.47313388
v -0.19427979 -0.16644701 -0.47313388
v -0.19473741 -0.16609060 -0.47313388
v -0.13615707 -0.16506445 -0.47313388
v -0.19603598 -0.16471828 -0.47313388
v -0.19711166 -0.16316560 -0.47313388
v -0.19794076 -0.16146809 -0.47313388
v -0.12751665 -0.16085219 -0.47313388
v -0.19849960 -0.15967852 -0.47313388
v -0.12360318 -0.15768599 -0.47313388
v -0.12002620 -0.15414400 -0.47313388
v -0.11682177 -0.15026122 -0.47313388
v -0.11402221 -0.14607749 -0.47313388
v -0.11165604 -0.14163426 -0.47313388
v -0.19849960 -0.14163426 -0.47313388
v -0.13615707 -0.16506445 -0.50000000
v -0.12751665 -0.16085219 -0.50000000
v -0.12360318 -0.15768599 -0.50000000
v -0.12002620 -0.15414400 -0.50000000
v -0.11682177 -0.15026122 -0.50000000
v -0.11402221 -0.14607749 -0.50000000
v -0.11165604 -0.14163426 -0.50000000
v -0.19849960 -0.14163426 -0.50000000
v -0.19849960 -0.15967852 -0.50000000
v -0.19794076 -0.16146809 -0.50000000
v -0.19711166 -0.16316560 -0.50000000
v -0.19603598 -0.16471828 -0.50000000
v -0.19473741 -0.16609060 -0.50000000
v -0.19427979 -0.16644701 -0.50000000
v -0.19324664 -0.16725081 -0.50000000
v -0.19197930 -0.16795985 -0.50000000
v -0.18581380 -0.16924227 -0.50000000
v -0.17957939 -0.17012628 -0.50000000
v -0.17330083 -0.17060813 -0.50000000
v -0.16700450 -0.17068673 -0.50000000
v -0.16071571 -0.17036048 -0.50000000
v -0.15446084 -0.16963151 -0.50000000
v -0.14826626 -0.16850200 -0.50000000
v -0.14609122 -0.16795985 -0.50000000
v -0.14215621 -0.16697785 -0.50000000
v -0.16579046 0.18249497 -0.47313388
v -0.16403965 0.17826709 -0.50000000
v -0.16579046 0.18249497 -0.50000000
v -0.16403965 0.17826709 -0.47313388
v -0.16857656 0.18612525 -0.47313388
v -0.16857656 0.18612525 -0.50000000
v -0.16344259 0.17373072 -0.47313388
v -0.16344259 0.17373072 -0.50000000
v -0.17643418 0.19066162 -0.50000000
v -0.18550746 0.19066162 -0.50000000
v -0.18097109 0.19125922 -0.50000000
v -0.17220684 0.18891082 -0.50000000
v -0.18973534 0.18891082 -0.50000000
v -0.19336563 0.18612525 -0.50000000
v -0.19615119 0.18249497 -0.50000000
v -0.19790200 0.17826709 -0.50000000
v -0.19849960 0.17373072 -0.50000000
v -0.16403965 0.16919381 -0.50000000
v -0.19790200 0.16919381 -0.50000000
v -0.16579046 0.16496647 -0.50000000
v -0.19615119 0.16496647 -0.50000000
v -0.16857656 0.16133619 -0.50000000
v -0.19336563 0.16133619 -0.50000000
v -0.17220684 0.15855008 -0.50000000
v -0.18973534 0.15855008 -0.50000000
v -0.17643418 0.15679928 -0.50000000
v -0.18550746 0.15679928 -0.50000000
v -0.18097109 0.15620168 -0.50000000
v -0.17220684 0.18891082 -0.47313388
v -0.16403965 0.16919381 -0.47313388
v -0.16579046 0.16496647 -0.47313388
v -0.16857656 0.16133619 -0.47313388
v -0.17220684 0.15855008 -0.47313388
v -0.17643418 0.15679928 -0.47313388
v -0.18097109 0.15620168 -0.47313388
v -0.18550746 0.15679928 -0.47313388
v -0.18973534 0.15855008 -0.47313388
v -0.19336563 0.16133619 -0.47313388
v -0.19615119 0.16496647 -0.47313388
v -0.19790200 0.16919381 -0.47313388
v -0.19849960 0.17373072 -0.47313388
v -0.19790200 0.17826709 -0.47313388
v -0.19615119 0.18249497 -0.47313388
v -0.19336563 0.18612525 -0.47313388
v -0.18973534 0.18891082 -0.47313388
v -0.18550746 0.19066162 -0.47313388
v -0.18097109 0.19125922 -0.47313388
v -0.17643418 0.19066162 -0.47313388
v 0.16579100 0.16496647 -0.50000000
v 0.16403965 0.16919381 -0.47313388
v 0.16403965 0.16919381 -0.50000000
v 0.16579100 0.16496647 -0.47313388
v 0.16857656 0.16133619 -0.50000000
v 0.16857656 0.16133619 -0.47313388
v 0.16344259 0.17373072 -0.50000000
v 0.16344259 0.17373072 -0.47313388
v 0.18550800 0.19066162 -0.50000000
v 0.17643472 0.19066162 -0.50000000
v 0.18097109 0.19125922 -0.50000000
v 0.18973534 0.18891082 -0.50000000
v 0.17220684 0.18891082 -0.50000000
v 0.19336563 0.18612525 -0.50000000
v 0.16857656 0.18612525 -0.50000000
v 0.19615119 0.18249497 -0.50000000
v 0.16579100 0.18249497 -0.50000000
v 0.19790253 0.17826709 -0.50000000
v 0.16403965 0.17826709 -0.50000000
v 0.19849960 0.17373072 -0.50000000
v 0.19790253 0.16919381 -0.50000000
v 0.19615119 0.16496647 -0.50000000
v 0.19336563 0.16133619 -0.50000000
v 0.18973534 0.15855008 -0.50000000
v 0.17220684 0.15855008 -0.50000000
v 0.18550800 0.15679928 -0.50000000
v 0.17643472 0.15679928 -0.50000000
v 0.18097109 0.15620168 -0.50000000
v 0.17220684 0.15855008 -0.47313388
v 0.16403965 0.17826709 -0.47313388
v 0.16579100 0.18249497 -0.47313388
v 0.16857656 0.18612525 -0.47313388
v 0.17220684 0.18891082 -0.47313388
v 0.17643472 0.19066162 -0.47313388
v 0.18097109 0.19125922 -0.47313388
v 0.18550800 0.19066162 -0.47313388
v 0.18973534 0.18891082 -0.47313388
v 0.19336563 0.18612525 -0.47313388
v 0.19615119 0.18249497 -0.47313388
v 0.19790253 0.17826709 -0.47313388
v 0.19849960 0.17373072 -0.47313388
v 0.19790253 0.16919381 -0.47313388
v 0.19615119 0.16496647 -0.47313388
v 0.19336563 0.16133619 -0.47313388
v 0.18973534 0.15855008 -0.47313388
v 0.18550800 0.15679928 -0.47313388
v 0.18097109 0.15620168 -0.47313388
v 0.17643472 0.15679928 -0.47313388
f 1 2 3
f 2 1 4
f 4 1 5
f 5 1 6
f 6 1 7
f 7 1 8
f 8 1 9
f 9 1 10
f 10 1 9
f 9 1 8
f 8 1 7
f 7 1 6
f 6 1 5
f 5 1 4
f 4 1 2
f 3 2 1
f 1 11 3
f 11 1 12
f 12 1 10
f 10 1 12
f 12 1 11
f 3 11 1
f 12 13 11
f 13 12 14
f 14 12 13
f 11 13 12
f 14 15 13
f 15 14 16
f 16 14 15
f 13 15 14
f 16 17 15
f 17 16 18
f 18 16 17
f 15 17 16
f 18 19 17
f 19 18 20
f 20 18 19
f 17 19 18
f 20 21 19
f 21 20 22
f 22 20 21
f 19 21 20
f 22 23 21
f 23 22 24
f 24 22 23
f 21 23 22
f 24 25 23
f 25 24 26
f 26 24 25
f 23 25 24
f 26 27 25
f 27 26 28
f 28 26 27
f 25 27 26
f 28 29 27
f 29 28 30
f 30 28 29
f 27 29 28
f 30 31 29
f 31 30 32
f 32 30 31
f 29 31 30
f 32 33 31
f 33 32 34
f 34 32 33
f 31 33 32
f 34 35 33
f 35 34 36
f 36 34 35
f 33 35 34
f 37 35 38
f 35 37 36
f 36 37 35
f 38 35 37
f 39 38 40
f 38 39 37
f 37 39 41
f 37 41 42
f 37 42 43
f 37 43 44
f 37 44 45
f 45 44 37
f 44 43 37
f 43 42 37
f 42 41 37
f 41 39 37
f 37 39 38
f 40 38 39
f 46 47 48
f 47 46 49
f 49 46 50
f 49 50 51
f 51 50 52
f 51 52 53
f 53 52 54
f 53 54 55
f 55 54 56
f 55 56 57
f 57 56 58
f 57 58 59
f 59 58 60
f 59 60 61
f 61 60 62
f 61 62 63
f 63 62 64
f 63 64 65
f 65 64 66
f 65 66 67
f 67 66 68
f 67 68 69
f 69 68 70
f 69 70 71
f 71 70 72
f 71 72 73
f 73 72 74
f 73 74 75
f 75 74 76
f 77 78 48
f 78 77 79
f 78 79 80
f 80 79 81
f 48 82 47
f 82 48 78
f 47 82 81
f 47 81 79
f 83 84 85
f 84 83 86
f 83 87 86
f 87 83 88
f 84 87 89
f 87 84 86
f 83 90 88
f 90 83 85
f 87 90 89
f 90 87 88
f 91 92 93
f 92 91 94
f 92 95 96
f 95 92 97
f 97 92 94
f 92 98 93
f 98 92 96
f 91 93 99
f 98 99 93
f 95 97 99
f 99 94 91
f 94 99 97
f 95 98 96
f 98 95 99
f 103 100 101
f 102 101 100
f 103 101 104
f 105 104 101
f 102 100 106
f 107 106 100
f 107 104 106
f 105 106 104
f 100 101 102
f 101 100 103
f 101 104 105
f 104 101 103
f 100 106 107
f 106 100 102
f 104 106 105
f 106 104 107
f 81 108 109
f 108 81 82
f 78 108 82
f 108 78 110
f 108 89 110
f 89 108 109
f 89 109 90
f 90 109 85
f 110 84 111
f 84 110 89
f 111 84 85
f 111 85 109
f 111 81 109
f 81 111 80
f 78 111 110
f 111 78 80
f 100 104 103
f 104 100 107
f 112 105 113
f 105 112 114
f 105 114 106
f 106 114 102
f 113 101 115
f 101 113 105
f 115 101 102
f 115 102 114
f 116 117 118
f 117 116 119
f 117 119 120
f 120 119 121
f 118 122 123
f 122 118 117
f 123 122 121
f 123 121 119
f 120 117 115
f 113 115 117
f 120 115 121
f 114 121 115
f 113 117 112
f 122 112 117
f 122 121 112
f 114 112 121
f 117 115 113
f 115 117 120
f 115 121 114
f 121 115 120
f 117 112 122
f 112 117 113
f 121 112 114
f 112 121 122
f 118 124 123
f 124 118 125
f 125 118 126
f 125 126 127
f 127 126 128
f 128 126 129
f 129 126 130
f 130 126 131
f 131 126 132
f 131 132 133
f 133 132 134
f 133 134 135
f 135 134 136
f 136 134 137
f 136 137 138
f 138 137 139
f 138 139 140
f 138 140 141
f 141 140 142
f 141 142 143
f 141 143 144
f 144 143 145
f 145 143 146
f 145 146 147
f 147 146 148
f 148 146 149
f 149 146 150
f 149 150 151
f 151 150 152
f 152 150 153
f 153 150 154
f 154 150 155
f 154 155 156
f 124 157 123
f 157 124 158
f 157 158 159
f 157 159 160
f 157 160 161
f 157 161 162
f 157 162 163
f 157 163 164
f 157 164 165
f 157 165 166
f 157 166 167
f 157 167 168
f 168 167 169
f 169 167 170
f 169 170 171
f 171 170 172
f 172 170 173
f 173 170 174
f 174 170 175
f 174 175 176
f 176 175 177
f 177 175 178
f 178 175 179
f 178 179 180
f 180 179 181
f 180 181 182
f 180 182 183
f 180 183 184
f 184 183 185
f 184 185 186
f 184 186 187
f 184 187 188
f 188 187 189
f 188 189 190
f 190 189 191
f 192 123 157
f 123 192 119
f 116 126 118
f 126 116 193
f 193 132 126
f 132 193 39
f 39 193 40
f 39 134 132
f 134 39 41
f 41 137 134
f 137 41 42
f 42 139 137
f 139 42 43
f 44 139 43
f 139 44 140
f 45 140 44
f 140 45 142
f 37 142 45
f 142 37 143
f 36 143 37
f 143 36 146
f 34 146 36
f 146 34 194
f 194 34 195
f 195 34 196
f 196 34 197
f 197 34 198
f 198 34 199
f 199 34 200
f 200 34 201
f 201 34 202
f 202 34 203
f 203 34 204
f 150 146 194
f 28 205 30
f 205 28 206
f 206 28 207
f 207 28 208
f 208 28 209
f 209 28 210
f 210 28 211
f 211 28 212
f 212 28 213
f 213 28 214
f 214 28 215
f 215 28 216
f 216 28 217
f 217 28 218
f 218 28 219
f 219 28 220
f 220 28 221
f 221 28 222
f 222 28 223
f 224 186 225
f 186 224 187
f 187 224 226
f 187 226 227
f 187 227 228
f 187 228 229
f 187 229 230
f 187 230 231
f 187 231 232
f 187 232 233
f 187 233 234
f 187 234 235
f 187 235 236
f 187 236 237
f 187 237 238
f 187 238 223
f 187 223 28
f 26 187 28
f 187 26 189
f 24 189 26
f 189 24 191
f 22 191 24
f 191 22 190
f 20 190 22
f 190 20 188
f 18 188 20
f 188 18 184
f 16 184 18
f 184 16 180
f 14 180 16
f 180 14 178
f 12 178 14
f 178 12 177
f 10 177 12
f 177 10 176
f 9 176 10
f 176 9 174
f 8 174 9
f 174 8 173
f 7 173 8
f 173 7 172
f 7 171 172
f 171 7 6
f 6 169 171
f 169 6 5
f 5 168 169
f 168 5 4
f 4 157 168
f 157 4 192
f 192 4 2
f 192 193 119
f 116 119 193
f 2 3 192
f 3 11 192
f 11 13 192
f 13 15 192
f 15 17 192
f 17 19 192
f 19 21 192
f 21 23 192
f 23 25 192
f 25 27 192
f 27 29 192
f 29 31 192
f 31 33 192
f 33 35 192
f 35 38 192
f 192 38 193
f 40 193 38
f 32 204 34
f 204 32 239
f 30 239 32
f 239 30 205
f 191 189 190
f 190 189 188
f 189 187 188
f 188 187 184
f 187 186 184
f 186 185 184
f 185 183 184
f 184 183 180
f 183 182 180
f 182 181 180
f 181 179 180
f 180 179 178
f 179 175 178
f 178 175 177
f 177 175 176
f 176 175 174
f 175 170 174
f 174 170 173
f 173 170 172
f 172 170 171
f 171 170 169
f 170 167 169
f 169 167 168
f 168 167 157
f 167 166 157
f 166 165 157
f 165 164 157
f 164 163 157
f 163 162 157
f 162 161 157
f 161 160 157
f 160 159 157
f 159 158 157
f 158 124 157
f 123 157 124
f 156 155 154
f 155 150 154
f 154 150 153
f 153 150 152
f 152 150 151
f 151 150 149
f 150 146 149
f 149 146 148
f 148 146 147
f 147 146 145
f 146 143 145
f 145 143 144
f 144 143 141
f 143 142 141
f 142 140 141
f 141 140 138
f 140 139 138
f 139 137 138
f 138 137 136
f 137 134 136
f 136 134 135
f 135 134 133
f 134 132 133
f 133 132 131
f 132 126 131
f 131 126 130
f 130 126 129
f 129 126 128
f 128 126 127
f 127 126 125
f 126 118 125
f 125 118 124
f 123 124 118
f 119 192 123
f 157 123 192
f 193 116 126
f 118 126 116
f 40 193 39
f 39 193 132
f 126 132 193
f 41 39 134
f 132 134 39
f 42 41 137
f 134 137 41
f 43 42 139
f 137 139 42
f 140 44 139
f 43 139 44
f 142 45 140
f 44 140 45
f 143 37 142
f 45 142 37
f 146 36 143
f 37 143 36
f 194 146 150
f 204 34 203
f 203 34 202
f 202 34 201
f 201 34 200
f 200 34 199
f 199 34 198
f 198 34 197
f 197 34 196
f 196 34 195
f 195 34 194
f 194 34 146
f 36 146 34
f 28 223 187
f 223 238 187
f 238 237 187
f 237 236 187
f 236 235 187
f 235 234 187
f 234 233 187
f 233 232 187
f 232 231 187
f 231 230 187
f 230 229 187
f 229 228 187
f 228 227 187
f 227 226 187
f 226 224 187
f 187 224 186
f 225 186 224
f 223 28 222
f 222 28 221
f 221 28 220
f 220 28 219
f 219 28 218
f 218 28 217
f 217 28 216
f 216 28 215
f 215 28 214
f 214 28 213
f 213 28 212
f 212 28 211
f 211 28 210
f 210 28 209
f 209 28 208
f 208 28 207
f 207 28 206
f 206 28 205
f 30 205 28
f 189 26 187
f 28 187 26
f 191 24 189
f 26 189 24
f 190 22 191
f 24 191 22
f 188 20 190
f 22 190 20
f 184 18 188
f 20 188 18
f 180 16 184
f 18 184 16
f 178 14 180
f 16 180 14
f 177 12 178
f 14 178 12
f 176 10 177
f 12 177 10
f 174 9 176
f 10 176 9
f 173 8 174
f 9 174 8
f 172 7 173
f 8 173 7
f 6 7 171
f 172 171 7
f 5 6 169
f 171 169 6
f 4 5 168
f 169 168 5
f 2 4 192
f 192 4 157
f 168 157 4
f 193 119 116
f 119 193 192
f 38 193 40
f 193 38 192
f 192 38 35
f 192 35 33
f 192 33 31
f 192 31 29
f 192 29 27
f 192 27 25
f 192 25 23
f 192 23 21
f 192 21 19
f 192 19 17
f 192 17 15
f 192 15 13
f 192 13 11
f 192 11 3
f 192 3 2
f 239 32 204
f 34 204 32
f 205 30 239
f 32 239 30
f 195 150 194
f 150 195 155
f 155 195 196
f 155 196 197
f 155 197 198
f 155 198 199
f 155 199 200
f 155 200 201
f 155 201 202
f 155 202 203
f 155 203 204
f 204 203 155
f 203 202 155
f 202 201 155
f 201 200 155
f 200 199 155
f 199 198 155
f 198 197 155
f 197 196 155
f 196 195 155
f 155 195 150
f 194 150 195
f 240 241 242
f 242 241 240
f 241 243 242
f 242 243 241
f 240 242 244
f 244 242 240
f 245 241 240
f 240 241 245
f 241 246 243
f 243 246 241
f 242 243 247
f 247 243 242
f 244 242 248
f 248 242 244
f 249 240 244
f 244 240 249
f 250 245 240
f 240 245 250
f 245 241 251
f 251 241 245
f 246 252 243
f 243 252 246
f 251 241 246
f 246 241 251
f 243 253 247
f 247 253 243
f 242 247 248
f 248 247 242
f 244 248 254
f 254 248 244
f 249 244 255
f 255 244 249
f 250 249 240
f 240 249 250
f 256 245 250
f 250 245 256
f 257 251 245
f 245 251 257
f 246 258 252
f 252 258 246
f 243 252 253
f 253 252 243
f 251 259 246
f 246 259 251
f 260 247 253
f 253 247 260
f 247 261 248
f 248 261 247
f 254 248 262
f 262 248 254
f 255 244 254
f 254 244 255
f 263 249 255
f 255 249 263
f 264 249 250
f 250 249 264
f 256 257 245
f 245 257 256
f 265 250 256
f 256 250 265
f 257 266 251
f 251 266 257
f 267 258 246
f 246 258 267
f 258 268 252
f 252 268 258
f 269 253 252
f 252 253 269
f 259 267 246
f 246 267 259
f 266 259 251
f 251 259 266
f 260 261 247
f 247 261 260
f 269 253 260
f 260 253 269
f 261 262 248
f 248 262 261
f 262 270 254
f 254 270 262
f 255 254 271
f 271 254 255
f 263 255 272
f 272 255 263
f 264 263 249
f 249 263 264
f 265 264 250
f 250 264 265
f 273 257 256
f 256 257 273
f 274 256 265
f 265 256 274
f 275 266 257
f 257 266 275
f 267 276 258
f 258 276 267
f 258 277 268
f 268 277 258
f 252 268 269
f 269 268 252
f 278 267 259
f 259 267 278
f 266 278 259
f 259 278 266
f 260 279 261
f 261 279 260
f 204 280 281
f 280 204 282
f 282 204 283
f 283 204 284
f 284 204 285
f 285 204 286
f 286 204 287
f 287 204 288
f 288 204 289
f 289 204 290
f 290 204 291
f 291 204 239
f 291 239 292
f 292 239 279
f 279 239 260
f 260 239 269
f 269 239 293
f 293 239 294
f 204 156 155
f 156 204 281
f 281 204 156
f 155 156 204
f 294 239 293
f 293 239 269
f 269 239 260
f 260 239 279
f 279 239 292
f 292 239 291
f 239 204 291
f 291 204 290
f 290 204 289
f 289 204 288
f 288 204 287
f 287 204 286
f 286 204 285
f 285 204 284
f 284 204 283
f 283 204 282
f 282 204 280
f 281 280 204
f 279 261 262
f 262 261 279
f 295 270 262
f 262 270 295
f 271 254 270
f 270 254 271
f 272 255 271
f 271 255 272
f 296 263 272
f 272 263 296
f 297 263 264
f 264 263 297
f 298 264 265
f 265 264 298
f 273 275 257
f 257 275 273
f 274 273 256
f 256 273 274
f 299 274 265
f 265 274 299
f 275 300 266
f 266 300 275
f 276 277 258
f 258 277 276
f 301 276 267
f 267 276 301
f 277 293 268
f 268 293 277
f 293 269 268
f 268 269 293
f 278 301 267
f 267 301 278
f 300 278 266
f 266 278 300
f 205 294 239
f 294 205 302
f 302 205 303
f 303 205 304
f 304 205 305
f 305 205 304
f 304 205 303
f 303 205 302
f 302 205 294
f 239 294 205
f 306 293 294
f 294 293 306
f 292 307 295
f 307 292 279
f 279 292 307
f 295 307 292
f 292 291 308
f 308 291 292
f 291 308 290
f 290 308 291
f 290 308 289
f 289 308 290
f 289 308 288
f 288 308 289
f 288 308 287
f 287 308 288
f 287 308 286
f 286 308 287
f 308 285 286
f 286 285 308
f 308 284 285
f 285 284 308
f 308 283 284
f 284 283 308
f 308 282 283
f 283 282 308
f 308 280 282
f 282 280 308
f 308 281 280
f 280 281 308
f 308 156 281
f 156 308 154
f 154 308 156
f 281 156 308
f 295 279 262
f 279 295 307
f 307 295 279
f 262 279 295
f 295 309 270
f 270 309 295
f 271 270 310
f 310 270 271
f 272 271 311
f 311 271 272
f 296 272 312
f 312 272 296
f 297 296 263
f 263 296 297
f 298 297 264
f 264 297 298
f 299 265 298
f 298 265 299
f 225 275 273
f 273 275 225
f 225 273 274
f 274 273 225
f 225 274 299
f 299 274 225
f 313 300 275
f 275 300 313
f 276 314 277
f 277 314 276
f 301 315 276
f 276 315 301
f 277 306 293
f 293 306 277
f 316 301 278
f 278 301 316
f 300 316 278
f 278 316 300
f 206 305 205
f 305 206 317
f 317 206 318
f 318 206 319
f 319 206 320
f 320 206 321
f 321 206 322
f 322 206 313
f 313 206 225
f 225 206 224
f 224 206 226
f 226 206 227
f 227 206 228
f 228 206 229
f 229 206 230
f 230 206 231
f 231 206 207
f 231 207 232
f 232 207 208
f 232 208 209
f 232 209 233
f 233 209 210
f 233 210 211
f 233 211 212
f 233 212 234
f 234 212 213
f 234 213 214
f 234 214 235
f 235 214 215
f 235 215 216
f 235 216 219
f 235 219 236
f 236 219 220
f 236 220 237
f 237 220 221
f 237 221 238
f 238 221 222
f 238 222 223
f 223 222 238
f 222 221 238
f 238 221 237
f 221 220 237
f 237 220 236
f 220 219 236
f 236 219 235
f 219 216 235
f 216 215 235
f 215 214 235
f 235 214 234
f 214 213 234
f 213 212 234
f 234 212 233
f 212 211 233
f 211 210 233
f 210 209 233
f 233 209 232
f 209 208 232
f 208 207 232
f 232 207 231
f 207 206 231
f 231 206 230
f 230 206 229
f 229 206 228
f 228 206 227
f 227 206 226
f 226 206 224
f 224 206 225
f 225 206 313
f 313 206 322
f 322 206 321
f 321 206 320
f 320 206 319
f 319 206 318
f 318 206 317
f 317 206 305
f 205 305 206
f 305 323 304
f 304 323 305
f 323 303 304
f 304 303 323
f 324 302 303
f 303 302 324
f 325 294 302
f 302 294 325
f 325 306 294
f 294 306 325
f 292 309 295
f 295 309 292
f 292 308 309
f 309 308 292
f 308 153 154
f 153 308 326
f 326 308 153
f 154 153 308
f 270 309 310
f 310 309 270
f 311 271 310
f 310 271 311
f 312 272 311
f 311 272 312
f 327 312 296
f 296 312 327
f 328 296 297
f 297 296 328
f 329 297 298
f 298 297 329
f 299 329 298
f 298 329 299
f 225 275 313
f 313 275 225
f 322 300 313
f 313 300 322
f 315 314 276
f 276 314 315
f 314 306 277
f 277 306 314
f 330 315 301
f 301 315 330
f 316 330 301
f 301 330 316
f 322 300 316
f 316 300 322
f 217 219 216
f 219 217 218
f 218 217 219
f 216 219 217
f 322 316 321
f 321 316 322
f 320 330 321
f 321 330 320
f 319 331 320
f 320 331 319
f 318 332 319
f 319 332 318
f 317 333 318
f 318 333 317
f 305 323 317
f 317 323 305
f 323 324 303
f 303 324 323
f 324 325 302
f 302 325 324
f 314 325 306
f 306 325 314
f 308 334 309
f 309 334 308
f 153 335 152
f 335 153 326
f 326 153 335
f 152 335 153
f 326 336 308
f 308 336 326
f 309 334 310
f 310 334 309
f 311 310 337
f 337 310 311
f 312 311 338
f 338 311 312
f 327 339 312
f 312 339 327
f 328 327 296
f 296 327 328
f 329 328 297
f 297 328 329
f 315 340 314
f 314 340 315
f 330 341 315
f 315 341 330
f 321 330 316
f 316 330 321
f 320 341 330
f 330 341 320
f 320 331 341
f 341 331 320
f 319 332 331
f 331 332 319
f 318 333 332
f 332 333 318
f 317 323 333
f 333 323 317
f 333 323 324
f 324 323 333
f 342 324 325
f 325 324 342
f 340 325 314
f 314 325 340
f 308 336 334
f 334 336 308
f 326 343 335
f 335 343 326
f 335 151 343
f 151 335 152
f 152 335 151
f 343 151 335
f 326 336 344
f 344 336 326
f 310 334 337
f 337 334 310
f 338 311 337
f 337 311 338
f 339 338 312
f 312 338 339
f 345 339 327
f 327 339 345
f 346 327 328
f 328 327 346
f 329 346 328
f 328 346 329
f 341 340 315
f 315 340 341
f 341 331 340
f 340 331 341
f 331 332 342
f 342 332 331
f 332 333 324
f 324 333 332
f 340 342 325
f 325 342 340
f 332 324 342
f 342 324 332
f 336 347 334
f 334 347 336
f 348 349 350
f 349 348 351
f 351 348 352
f 351 352 353
f 353 352 354
f 353 354 355
f 355 354 356
f 356 354 357
f 356 357 358
f 358 357 359
f 358 359 360
f 360 359 361
f 361 359 362
f 362 359 363
f 362 363 364
f 364 363 365
f 364 365 366
f 364 366 367
f 364 367 368
f 368 367 369
f 368 369 370
f 368 370 326
f 326 370 371
f 326 371 372
f 326 372 343
f 343 372 373
f 373 372 343
f 343 372 326
f 372 371 326
f 371 370 326
f 326 370 368
f 370 369 368
f 369 367 368
f 368 367 364
f 367 366 364
f 366 365 364
f 365 363 364
f 364 363 362
f 363 359 362
f 362 359 361
f 361 359 360
f 360 359 358
f 359 357 358
f 358 357 356
f 357 354 356
f 356 354 355
f 355 354 353
f 354 352 353
f 353 352 351
f 352 348 351
f 351 348 349
f 350 349 348
f 343 149 373
f 149 343 151
f 151 343 149
f 373 149 343
f 326 344 374
f 374 344 326
f 336 344 347
f 347 344 336
f 334 347 337
f 337 347 334
f 338 337 375
f 375 337 338
f 339 376 338
f 338 376 339
f 345 377 339
f 339 377 345
f 346 345 327
f 327 345 346
f 331 342 340
f 340 342 331
f 326 374 368
f 368 374 326
f 368 378 364
f 364 378 368
f 364 379 362
f 362 379 364
f 362 165 361
f 165 362 166
f 166 362 380
f 380 362 166
f 166 362 165
f 361 165 362
f 361 164 360
f 164 361 165
f 165 361 164
f 360 164 361
f 360 163 358
f 163 360 164
f 164 360 163
f 358 163 360
f 358 162 356
f 162 358 163
f 163 358 162
f 356 162 358
f 356 161 355
f 161 356 162
f 162 356 161
f 355 161 356
f 355 160 353
f 160 355 161
f 161 355 160
f 353 160 355
f 353 159 351
f 159 353 160
f 160 353 159
f 351 159 353
f 351 158 349
f 158 351 159
f 159 351 158
f 349 158 351
f 349 124 350
f 124 349 158
f 158 349 124
f 350 124 349
f 350 125 348
f 125 350 124
f 124 350 125
f 348 125 350
f 348 127 352
f 127 348 125
f 125 348 127
f 352 127 348
f 352 128 354
f 128 352 127
f 127 352 128
f 354 128 352
f 354 129 357
f 129 354 128
f 128 354 129
f 357 129 354
f 357 130 129
f 130 357 359
f 359 357 130
f 129 130 357
f 359 131 130
f 131 359 363
f 363 359 131
f 130 131 359
f 363 133 131
f 133 363 365
f 365 363 133
f 131 133 363
f 365 135 133
f 135 365 366
f 366 365 135
f 133 135 365
f 366 136 135
f 136 366 367
f 367 366 136
f 135 136 366
f 367 138 136
f 138 367 369
f 369 367 138
f 136 138 367
f 369 141 138
f 141 369 370
f 370 369 141
f 138 141 369
f 371 370 381
f 381 370 371
f 372 371 382
f 382 371 372
f 373 148 372
f 148 373 149
f 149 373 148
f 372 148 373
f 344 374 383
f 383 374 344
f 344 383 347
f 347 383 344
f 375 337 347
f 347 337 375
f 376 375 338
f 338 375 376
f 377 376 339
f 339 376 377
f 384 377 345
f 345 377 384
f 346 384 345
f 345 384 346
f 368 374 378
f 378 374 368
f 364 378 379
f 379 378 364
f 362 385 380
f 385 362 386
f 386 362 387
f 387 362 388
f 388 362 379
f 379 362 388
f 388 362 387
f 387 362 386
f 386 362 385
f 380 385 362
f 370 144 141
f 144 370 381
f 381 370 144
f 141 144 370
f 371 144 381
f 144 371 145
f 145 371 144
f 381 144 371
f 372 147 382
f 147 372 148
f 148 372 147
f 382 147 372
f 382 145 371
f 145 382 147
f 147 382 145
f 371 145 382
f 389 374 383
f 383 374 389
f 375 347 383
f 383 347 375
f 376 390 375
f 375 390 376
f 377 391 376
f 376 391 377
f 384 392 377
f 377 392 384
f 374 389 378
f 378 389 374
f 378 393 379
f 379 393 378
f 394 388 379
f 379 388 394
f 395 388 387
f 387 388 395
f 396 387 386
f 386 387 396
f 397 385 386
f 386 385 397
f 398 380 385
f 385 380 398
f 390 389 383
f 383 389 390
f 390 383 375
f 375 383 390
f 391 390 376
f 376 390 391
f 392 391 377
f 377 391 392
f 384 399 392
f 392 399 384
f 393 378 389
f 389 378 393
f 394 379 393
f 393 379 394
f 395 394 388
f 388 394 395
f 396 395 387
f 387 395 396
f 397 386 396
f 396 386 397
f 400 385 397
f 397 385 400
f 401 398 385
f 385 398 401
f 402 389 390
f 390 389 402
f 391 402 390
f 390 402 391
f 392 403 391
f 391 403 392
f 399 403 392
f 392 403 399
f 402 393 389
f 389 393 402
f 404 394 393
f 393 394 404
f 405 395 394
f 394 395 405
f 406 396 395
f 395 396 406
f 407 397 396
f 396 397 407
f 400 408 385
f 385 408 400
f 407 400 397
f 397 400 407
f 409 401 385
f 385 401 409
f 403 402 391
f 391 402 403
f 399 410 403
f 403 410 399
f 404 393 402
f 402 393 404
f 405 394 404
f 404 394 405
f 406 395 405
f 405 395 406
f 407 396 406
f 406 396 407
f 408 411 385
f 385 411 408
f 412 409 385
f 385 409 412
f 403 404 402
f 402 404 403
f 399 413 410
f 410 413 399
f 410 404 403
f 403 404 410
f 410 405 404
f 404 405 410
f 413 406 405
f 405 406 413
f 413 407 406
f 406 407 413
f 411 414 385
f 385 414 411
f 415 412 385
f 385 412 415
f 413 405 410
f 410 405 413
f 414 416 385
f 385 416 414
f 417 415 385
f 385 415 417
f 416 418 385
f 385 418 416
f 418 417 385
f 385 417 418
f 183 329 182
f 346 182 329
f 185 299 183
f 329 183 299
f 182 346 181
f 384 181 346
f 186 225 185
f 299 185 225
f 181 384 179
f 399 179 384
f 179 399 175
f 413 175 399
f 175 413 170
f 407 170 413
f 170 407 167
f 400 167 407
f 400 408 167
f 408 411 167
f 411 414 167
f 414 416 167
f 416 418 167
f 418 417 167
f 417 415 167
f 415 412 167
f 412 409 167
f 409 401 167
f 401 398 167
f 167 398 166
f 380 166 398
f 329 182 346
f 182 329 183
f 299 183 329
f 183 299 185
f 346 181 384
f 181 346 182
f 225 185 299
f 185 225 186
f 384 179 399
f 179 384 181
f 399 175 413
f 175 399 179
f 413 170 407
f 170 413 175
f 407 167 400
f 167 407 170
f 398 166 380
f 166 398 167
f 167 398 401
f 167 401 409
f 167 409 412
f 167 412 415
f 167 415 417
f 167 417 418
f 167 418 416
f 167 416 414
f 167 414 411
f 167 411 408
f 167 408 400
f 419 47 49
f 47 419 79
f 420 49 51
f 49 420 419
f 419 77 79
f 77 419 421
f 421 419 422
f 422 419 423
f 423 419 424
f 424 419 425
f 425 419 426
f 426 419 427
f 427 419 428
f 428 419 429
f 429 419 430
f 430 419 431
f 431 419 420
f 431 420 432
f 431 432 433
f 433 432 434
f 433 434 435
f 433 435 436
f 433 436 437
f 433 437 438
f 438 437 439
f 438 439 440
f 438 440 441
f 438 441 442
f 442 441 443
f 442 443 444
f 444 443 445
f 445 443 446
f 446 443 447
f 446 447 448
f 448 447 449
f 449 447 450
f 449 450 451
f 451 450 452
f 451 452 453
f 453 452 454
f 77 455 456
f 455 77 421
f 456 455 457
f 456 457 458
f 456 458 459
f 456 459 460
f 456 460 461
f 456 461 462
f 462 461 463
f 462 463 464
f 464 463 465
f 464 465 466
f 464 466 467
f 467 466 468
f 467 468 469
f 469 468 470
f 470 468 471
f 470 471 472
f 472 471 473
f 473 471 474
f 473 474 475
f 473 475 476
f 476 475 477
f 476 477 478
f 476 478 479
f 476 479 480
f 480 479 481
f 480 481 482
f 480 482 483
f 480 483 484
f 480 484 485
f 485 484 486
f 432 51 53
f 51 432 420
f 77 46 48
f 46 77 456
f 434 53 55
f 53 434 432
f 435 55 57
f 55 435 434
f 435 59 436
f 59 435 57
f 436 61 437
f 61 436 59
f 437 63 439
f 63 437 61
f 439 65 440
f 65 439 63
f 440 67 441
f 67 440 65
f 441 69 443
f 69 441 67
f 443 71 447
f 71 443 69
f 447 73 450
f 73 447 71
f 450 75 452
f 75 450 73
f 452 76 454
f 76 452 75
f 454 74 453
f 74 454 76
f 453 72 451
f 72 453 74
f 451 487 449
f 487 451 488
f 488 451 489
f 489 451 490
f 490 451 491
f 491 451 492
f 492 451 493
f 493 451 494
f 494 451 495
f 495 451 496
f 496 451 497
f 497 451 498
f 498 451 499
f 499 451 500
f 500 451 501
f 501 451 502
f 502 451 503
f 504 72 70
f 72 504 505
f 72 505 506
f 72 506 507
f 72 507 508
f 72 508 509
f 72 509 510
f 72 510 511
f 72 511 512
f 72 512 513
f 72 513 514
f 72 514 515
f 72 515 516
f 72 516 517
f 72 517 518
f 72 518 519
f 72 519 520
f 72 520 503
f 72 503 451
f 480 64 476
f 64 480 521
f 64 521 66
f 66 521 522
f 66 522 523
f 66 523 524
f 66 524 525
f 66 525 526
f 66 526 527
f 66 527 528
f 66 528 529
f 66 529 530
f 66 530 531
f 66 531 532
f 476 62 473
f 62 476 64
f 473 60 472
f 60 473 62
f 472 58 470
f 58 472 60
f 470 56 469
f 56 470 58
f 467 56 54
f 56 467 469
f 464 54 52
f 54 464 467
f 462 52 50
f 52 462 464
f 456 50 46
f 50 456 462
f 533 70 68
f 70 533 504
f 532 531 530
f 532 68 66
f 68 532 534
f 68 534 533
f 79 419 47
f 49 47 419
f 419 420 49
f 51 49 420
f 486 484 485
f 485 484 480
f 484 483 480
f 483 482 480
f 482 481 480
f 481 479 480
f 480 479 476
f 479 478 476
f 478 477 476
f 477 475 476
f 476 475 473
f 475 474 473
f 474 471 473
f 473 471 472
f 472 471 470
f 471 468 470
f 470 468 469
f 469 468 467
f 468 466 467
f 467 466 464
f 466 465 464
f 465 463 464
f 464 463 462
f 463 461 462
f 462 461 456
f 461 460 456
f 460 459 456
f 459 458 456
f 458 457 456
f 457 455 456
f 421 77 455
f 456 455 77
f 454 452 453
f 453 452 451
f 452 450 451
f 451 450 449
f 450 447 449
f 449 447 448
f 448 447 446
f 447 443 446
f 446 443 445
f 445 443 444
f 444 443 442
f 443 441 442
f 442 441 438
f 441 440 438
f 440 439 438
f 439 437 438
f 438 437 433
f 437 436 433
f 436 435 433
f 435 434 433
f 434 432 433
f 433 432 431
f 432 420 431
f 420 419 431
f 431 419 430
f 430 419 429
f 429 419 428
f 428 419 427
f 427 419 426
f 426 419 425
f 425 419 424
f 424 419 423
f 423 419 422
f 422 419 421
f 421 419 77
f 79 77 419
f 420 432 51
f 53 51 432
f 456 77 46
f 48 46 77
f 432 434 53
f 55 53 434
f 434 435 55
f 57 55 435
f 57 435 59
f 436 59 435
f 59 436 61
f 437 61 436
f 61 437 63
f 439 63 437
f 63 439 65
f 440 65 439
f 65 440 67
f 441 67 440
f 67 441 69
f 443 69 441
f 69 443 71
f 447 71 443
f 71 447 73
f 450 73 447
f 73 450 75
f 452 75 450
f 75 452 76
f 454 76 452
f 76 454 74
f 453 74 454
f 74 453 72
f 451 72 453
f 451 503 72
f 503 520 72
f 520 519 72
f 519 518 72
f 518 517 72
f 517 516 72
f 516 515 72
f 515 514 72
f 514 513 72
f 513 512 72
f 512 511 72
f 511 510 72
f 510 509 72
f 509 508 72
f 508 507 72
f 507 506 72
f 506 505 72
f 505 504 72
f 70 72 504
f 503 451 502
f 502 451 501
f 501 451 500
f 500 451 499
f 499 451 498
f 498 451 497
f 497 451 496
f 496 451 495
f 495 451 494
f 494 451 493
f 493 451 492
f 492 451 491
f 491 451 490
f 490 451 489
f 489 451 488
f 488 451 487
f 449 487 451
f 532 531 66
f 531 530 66
f 530 529 66
f 529 528 66
f 528 527 66
f 527 526 66
f 526 525 66
f 525 524 66
f 524 523 66
f 523 522 66
f 522 521 66
f 66 521 64
f 521 480 64
f 476 64 480
f 64 476 62
f 473 62 476
f 62 473 60
f 472 60 473
f 60 472 58
f 470 58 472
f 58 470 56
f 469 56 470
f 469 467 56
f 54 56 467
f 467 464 54
f 52 54 464
f 464 462 52
f 50 52 462
f 462 456 50
f 46 50 456
f 504 533 70
f 68 70 533
f 530 531 532
f 533 534 68
f 534 532 68
f 66 68 532
f 486 532 485
f 532 486 534
f 534 486 535
f 534 536 533
f 536 534 537
f 537 534 538
f 538 534 539
f 539 534 540
f 540 534 541
f 541 534 542
f 542 534 543
f 543 534 544
f 544 534 545
f 545 534 546
f 546 534 535
f 533 536 547
f 533 547 548
f 533 548 549
f 533 549 550
f 533 550 551
f 533 551 552
f 485 521 480
f 521 485 522
f 522 485 523
f 523 485 524
f 524 485 525
f 525 485 526
f 526 485 527
f 527 485 528
f 528 485 529
f 529 485 530
f 530 485 532
f 552 551 533
f 551 550 533
f 550 549 533
f 549 548 533
f 548 547 533
f 547 536 533
f 535 534 546
f 546 534 545
f 545 534 544
f 544 534 543
f 543 534 542
f 542 534 541
f 541 534 540
f 540 534 539
f 539 534 538
f 538 534 537
f 537 534 536
f 533 536 534
f 535 486 534
f 534 486 532
f 485 532 486
f 532 485 530
f 530 485 529
f 529 485 528
f 528 485 527
f 527 485 526
f 526 485 525
f 525 485 524
f 524 485 523
f 523 485 522
f 522 485 521
f 480 521 485
f 554 446 553
f 445 553 446
f 555 448 554
f 446 554 448
f 553 445 556
f 444 556 445
f 487 449 555
f 448 555 449
f 556 444 557
f 442 557 444
f 557 442 558
f 438 558 442
f 558 438 559
f 433 559 438
f 559 433 560
f 431 560 433
f 560 431 572
f 572 431 571
f 571 431 570
f 570 431 569
f 569 431 568
f 568 431 567
f 567 431 566
f 566 431 565
f 565 431 564
f 564 431 563
f 563 431 562
f 562 431 561
f 430 561 431
f 446 553 445
f 553 446 554
f 448 554 446
f 554 448 555
f 445 556 444
f 556 445 553
f 449 555 448
f 555 449 487
f 444 557 442
f 557 444 556
f 442 558 438
f 558 442 557
f 438 559 433
f 559 438 558
f 433 560 431
f 560 433 559
f 431 561 430
f 561 431 562
f 562 431 563
f 563 431 564
f 564 431 565
f 565 431 566
f 566 431 567
f 567 431 568
f 568 431 569
f 569 431 570
f 570 431 571
f 571 431 572
f 572 431 560
f 553 573 556
f 556 573 553
f 553 574 573
f 573 574 553
f 556 573 575
f 575 573 556
f 553 576 574
f 574 576 553
f 573 574 577
f 577 574 573
f 556 575 578
f 578 575 556
f 573 577 575
f 575 577 573
f 576 579 574
f 574 579 576
f 554 576 553
f 553 576 554
f 574 580 577
f 577 580 574
f 578 575 581
f 581 575 578
f 556 578 557
f 557 578 556
f 575 577 582
f 582 577 575
f 576 583 579
f 579 583 576
f 574 579 580
f 580 579 574
f 554 583 576
f 576 583 554
f 577 580 584
f 584 580 577
f 578 581 585
f 585 581 578
f 575 582 581
f 581 582 575
f 557 578 585
f 585 578 557
f 577 584 582
f 582 584 577
f 583 586 579
f 579 586 583
f 579 580 587
f 587 580 579
f 554 588 583
f 583 588 554
f 580 584 589
f 589 584 580
f 585 581 590
f 590 581 585
f 581 582 591
f 591 582 581
f 557 585 592
f 592 585 557
f 582 584 593
f 593 584 582
f 583 594 586
f 586 594 583
f 579 587 586
f 586 587 579
f 580 589 587
f 587 589 580
f 555 588 554
f 554 588 555
f 588 594 583
f 583 594 588
f 584 595 589
f 589 595 584
f 585 590 596
f 596 590 585
f 581 591 590
f 590 591 581
f 582 593 591
f 591 593 582
f 557 592 558
f 558 592 557
f 592 585 596
f 596 585 592
f 584 593 595
f 595 593 584
f 594 597 586
f 586 597 594
f 586 587 598
f 598 587 586
f 587 589 599
f 599 589 587
f 555 588 600
f 600 588 555
f 588 600 594
f 594 600 588
f 589 595 601
f 601 595 589
f 596 590 602
f 602 590 596
f 590 591 603
f 603 591 590
f 591 593 604
f 604 593 591
f 558 592 605
f 605 592 558
f 592 596 605
f 605 596 592
f 593 606 595
f 595 606 593
f 594 607 597
f 597 607 594
f 586 598 597
f 597 598 586
f 587 599 598
f 598 599 587
f 589 601 599
f 599 601 589
f 555 600 608
f 608 600 555
f 600 607 594
f 594 607 600
f 601 595 609
f 609 595 601
f 596 602 610
f 610 602 596
f 590 603 602
f 602 603 590
f 591 604 603
f 603 604 591
f 593 604 606
f 606 604 593
f 558 605 611
f 611 605 558
f 605 596 610
f 610 596 605
f 609 595 606
f 606 595 609
f 607 612 597
f 597 612 607
f 597 598 613
f 613 598 597
f 598 599 614
f 614 599 598
f 599 601 615
f 615 601 599
f 608 600 616
f 616 600 608
f 487 555 608
f 608 555 487
f 600 616 607
f 607 616 600
f 617 601 609
f 609 601 617
f 610 602 618
f 618 602 610
f 602 603 619
f 619 603 602
f 603 604 620
f 620 604 603
f 621 606 604
f 604 606 621
f 558 611 559
f 559 611 558
f 611 605 622
f 622 605 611
f 605 610 622
f 622 610 605
f 623 609 606
f 606 609 623
f 607 612 624
f 624 612 607
f 597 613 612
f 612 613 597
f 598 614 613
f 613 614 598
f 599 615 614
f 614 615 599
f 615 601 617
f 617 601 615
f 608 616 625
f 625 616 608
f 487 608 625
f 625 608 487
f 616 607 624
f 624 607 616
f 626 617 609
f 609 617 626
f 610 618 627
f 627 618 610
f 619 618 602
f 602 618 619
f 620 619 603
f 603 619 620
f 621 604 620
f 620 604 621
f 623 606 621
f 621 606 623
f 559 611 628
f 628 611 559
f 611 622 628
f 628 622 611
f 622 627 610
f 610 627 622
f 626 609 623
f 623 609 626
f 624 612 629
f 629 612 624
f 612 613 630
f 630 613 612
f 613 614 631
f 631 614 613
f 632 614 615
f 615 614 632
f 633 615 617
f 617 615 633
f 625 616 634
f 634 616 625
f 487 625 635
f 635 625 487
f 616 624 634
f 634 624 616
f 547 617 626
f 626 617 547
f 636 627 618
f 627 636 637
f 637 636 638
f 638 636 639
f 639 636 561
f 561 636 639
f 639 636 638
f 638 636 637
f 637 636 627
f 618 627 636
f 618 619 640
f 640 619 618
f 619 620 641
f 641 620 619
f 620 621 642
f 642 621 620
f 621 623 642
f 642 623 621
f 559 628 643
f 643 628 559
f 628 637 622
f 622 637 628
f 622 637 627
f 627 637 622
f 623 642 626
f 626 642 623
f 612 630 629
f 629 630 612
f 624 644 629
f 629 644 624
f 613 631 630
f 630 631 613
f 614 632 631
f 631 632 614
f 633 632 615
f 615 632 633
f 547 633 617
f 617 633 547
f 625 634 635
f 635 634 625
f 645 635 487
f 487 635 645
f 634 624 644
f 644 624 634
f 547 626 536
f 536 626 547
f 618 640 636
f 636 640 618
f 430 646 429
f 646 430 636
f 636 430 561
f 561 430 636
f 636 430 646
f 429 646 430
f 562 639 561
f 561 639 562
f 643 638 639
f 639 638 643
f 628 638 637
f 637 638 628
f 619 641 640
f 640 641 619
f 620 642 641
f 641 642 620
f 643 628 638
f 638 628 643
f 559 643 560
f 560 643 559
f 484 642 626
f 642 484 483
f 483 484 642
f 626 642 484
f 629 630 647
f 647 630 629
f 644 648 629
f 629 648 644
f 630 631 649
f 649 631 630
f 650 631 632
f 632 631 650
f 548 633 632
f 633 548 651
f 651 548 633
f 632 633 548
f 651 547 633
f 547 651 548
f 548 651 547
f 633 547 651
f 635 634 652
f 652 634 635
f 488 645 487
f 645 488 653
f 653 488 654
f 654 488 655
f 655 488 656
f 656 488 657
f 657 488 658
f 658 488 659
f 659 488 504
f 504 488 505
f 505 488 489
f 505 489 490
f 505 490 491
f 505 491 492
f 505 492 493
f 505 493 494
f 505 494 506
f 506 494 495
f 506 495 507
f 507 495 508
f 508 495 496
f 508 496 509
f 509 496 510
f 510 496 511
f 511 496 497
f 511 497 512
f 512 497 513
f 513 497 498
f 513 498 514
f 514 498 515
f 515 498 518
f 518 498 499
f 518 499 519
f 519 499 500
f 519 500 520
f 520 500 501
f 520 501 503
f 503 501 502
f 502 501 503
f 503 501 520
f 501 500 520
f 520 500 519
f 500 499 519
f 519 499 518
f 499 498 518
f 518 498 515
f 515 498 514
f 514 498 513
f 498 497 513
f 513 497 512
f 512 497 511
f 497 496 511
f 511 496 510
f 510 496 509
f 509 496 508
f 496 495 508
f 508 495 507
f 507 495 506
f 495 494 506
f 506 494 505
f 494 493 505
f 493 492 505
f 492 491 505
f 491 490 505
f 490 489 505
f 489 488 505
f 505 488 504
f 504 488 659
f 659 488 658
f 658 488 657
f 657 488 656
f 656 488 655
f 655 488 654
f 654 488 653
f 653 488 645
f 487 645 488
f 645 635 660
f 660 635 645
f 634 644 652
f 652 644 634
f 536 537 626
f 626 537 536
f 661 662 663
f 662 661 664
f 662 664 665
f 665 664 666
f 665 666 667
f 667 666 668
f 667 668 669
f 667 669 670
f 670 669 671
f 670 671 672
f 672 671 673
f 672 673 646
f 672 646 636
f 672 636 674
f 674 636 640
f 674 640 675
f 675 640 676
f 676 640 677
f 677 640 641
f 677 641 678
f 678 641 679
f 679 641 642
f 679 642 680
f 680 642 681
f 681 642 682
f 681 682 683
f 683 682 681
f 682 642 681
f 681 642 680
f 680 642 679
f 642 641 679
f 679 641 678
f 678 641 677
f 641 640 677
f 677 640 676
f 676 640 675
f 675 640 674
f 640 636 674
f 674 636 672
f 636 646 672
f 646 673 672
f 673 671 672
f 672 671 670
f 671 669 670
f 670 669 667
f 669 668 667
f 668 666 667
f 667 666 665
f 666 664 665
f 665 664 662
f 664 661 662
f 663 662 661
f 429 673 428
f 673 429 646
f 646 429 673
f 428 673 429
f 563 639 562
f 562 639 563
f 560 643 639
f 639 643 560
f 642 482 684
f 482 642 483
f 483 642 482
f 684 482 642
f 486 626 535
f 626 486 484
f 484 486 626
f 535 626 486
f 629 647 648
f 648 647 629
f 630 649 647
f 647 649 630
f 644 648 685
f 685 648 644
f 649 631 650
f 650 631 649
f 548 632 650
f 650 632 548
f 635 652 660
f 660 652 635
f 686 533 552
f 533 686 504
f 504 686 687
f 504 687 688
f 504 688 659
f 659 688 504
f 688 687 504
f 687 686 504
f 504 686 533
f 552 533 686
f 658 689 659
f 659 689 658
f 657 690 658
f 658 690 657
f 656 691 657
f 657 691 656
f 655 692 656
f 656 692 655
f 654 693 655
f 655 693 654
f 654 694 653
f 653 694 654
f 645 660 653
f 653 660 645
f 518 516 515
f 516 518 517
f 517 518 516
f 515 516 518
f 652 644 685
f 685 644 652
f 537 538 626
f 626 538 537
f 642 684 682
f 682 684 642
f 481 683 479
f 683 481 682
f 682 481 683
f 479 683 481
f 479 681 478
f 681 479 683
f 683 479 681
f 478 681 479
f 681 695 680
f 680 695 681
f 680 696 679
f 679 696 680
f 468 679 678
f 679 468 471
f 471 468 679
f 678 679 468
f 466 678 677
f 678 466 468
f 468 466 678
f 677 678 466
f 465 677 676
f 677 465 466
f 466 465 677
f 676 677 465
f 463 676 675
f 676 463 465
f 465 463 676
f 675 676 463
f 461 675 674
f 675 461 463
f 463 461 675
f 674 675 461
f 460 674 672
f 674 460 461
f 461 460 674
f 672 674 460
f 459 672 670
f 672 459 460
f 460 459 672
f 670 672 459
f 458 670 459
f 670 458 667
f 667 458 670
f 459 670 458
f 457 667 458
f 667 457 665
f 665 457 667
f 458 667 457
f 455 665 457
f 665 455 662
f 662 455 665
f 457 665 455
f 421 662 455
f 662 421 663
f 663 421 662
f 455 662 421
f 422 663 421
f 663 422 661
f 661 422 663
f 421 663 422
f 423 661 422
f 661 423 664
f 664 423 661
f 422 661 423
f 424 664 423
f 664 424 666
f 666 424 664
f 423 664 424
f 425 666 424
f 666 425 668
f 668 425 666
f 424 666 425
f 426 668 425
f 668 426 669
f 669 426 668
f 425 668 426
f 427 669 426
f 669 427 671
f 671 427 669
f 426 669 427
f 428 671 427
f 671 428 673
f 673 428 671
f 427 671 428
f 564 639 563
f 563 639 564
f 560 639 572
f 572 639 560
f 482 682 481
f 682 482 684
f 684 482 682
f 481 682 482
f 626 546 535
f 535 546 626
f 648 647 697
f 697 647 648
f 647 649 698
f 698 649 647
f 685 648 699
f 699 648 685
f 549 649 650
f 650 649 549
f 549 650 548
f 548 650 549
f 660 652 700
f 700 652 660
f 701 686 552
f 552 686 701
f 702 687 686
f 686 687 702
f 689 688 687
f 687 688 689
f 659 688 689
f 689 688 659
f 658 690 689
f 689 690 658
f 657 691 690
f 690 691 657
f 656 692 691
f 691 692 656
f 655 703 692
f 692 703 655
f 654 694 693
f 693 694 654
f 655 693 703
f 703 693 655
f 653 694 660
f 660 694 653
f 652 685 700
f 700 685 652
f 538 539 626
f 626 539 538
f 478 695 477
f 695 478 681
f 681 478 695
f 477 695 478
f 477 680 475
f 680 477 695
f 695 477 680
f 475 680 477
f 471 696 679
f 696 471 474
f 474 471 696
f 679 696 471
f 475 696 474
f 696 475 680
f 680 475 696
f 474 696 475
f 565 639 564
f 564 639 565
f 572 639 571
f 571 639 572
f 626 545 546
f 546 545 626
f 648 697 704
f 704 697 648
f 647 698 697
f 697 698 647
f 549 698 649
f 649 698 549
f 699 648 704
f 704 648 699
f 700 685 699
f 699 685 700
f 660 700 694
f 694 700 660
f 701 552 705
f 705 552 701
f 702 686 701
f 701 686 702
f 689 687 702
f 702 687 689
f 690 702 689
f 689 702 690
f 691 702 690
f 690 702 691
f 692 706 691
f 691 706 692
f 703 707 692
f 692 707 703
f 694 708 693
f 693 708 694
f 693 709 703
f 703 709 693
f 539 540 626
f 626 540 539
f 566 639 565
f 565 639 566
f 571 639 570
f 570 639 571
f 545 626 544
f 544 626 545
f 704 697 710
f 710 697 704
f 550 697 698
f 698 697 550
f 550 549 698
f 698 549 550
f 699 704 711
f 711 704 699
f 700 699 708
f 708 699 700
f 694 700 708
f 708 700 694
f 705 552 551
f 551 552 705
f 712 705 701
f 701 705 712
f 706 701 702
f 702 701 706
f 691 706 702
f 702 706 691
f 692 707 706
f 706 707 692
f 703 709 707
f 707 709 703
f 693 708 709
f 709 708 693
f 540 541 626
f 626 541 540
f 567 639 566
f 566 639 567
f 570 639 569
f 569 639 570
f 544 626 543
f 543 626 544
f 704 710 713
f 713 710 704
f 697 550 710
f 710 550 697
f 711 704 713
f 713 704 711
f 708 699 711
f 711 699 708
f 713 551 705
f 705 551 713
f 712 713 705
f 705 713 712
f 707 712 701
f 701 712 707
f 707 701 706
f 706 701 707
f 709 712 707
f 707 712 709
f 708 711 709
f 709 711 708
f 542 626 541
f 541 626 542
f 568 639 567
f 567 639 568
f 569 639 568
f 568 639 569
f 543 626 542
f 542 626 543
f 713 710 551
f 551 710 713
f 551 710 550
f 550 710 551
f 711 713 712
f 712 713 711
f 709 711 712
f 712 711 709
f 714 715 716
f 715 714 717
f 717 714 718
f 718 714 719
f 719 714 720
f 720 714 721
f 721 714 722
f 721 722 723
f 723 722 724
f 723 724 725
f 725 724 726
f 725 726 727
f 727 726 728
f 728 726 729
f 728 729 730
f 730 729 731
f 730 731 732
f 730 732 733
f 733 732 734
f 733 734 735
f 733 735 736
f 736 735 737
f 737 735 738
f 737 738 739
f 739 738 740
f 739 740 741
f 741 740 739
f 740 738 739
f 739 738 737
f 738 735 737
f 737 735 736
f 736 735 733
f 735 734 733
f 734 732 733
f 733 732 730
f 732 731 730
f 731 729 730
f 730 729 728
f 729 726 728
f 728 726 727
f 727 726 725
f 726 724 725
f 725 724 723
f 724 722 723
f 723 722 721
f 722 714 721
f 721 714 720
f 720 714 719
f 719 714 718
f 718 714 717
f 717 714 715
f 716 715 714
f 714 742 716
f 742 714 743
f 744 714 722
f 714 744 743
f 743 745 742
f 745 743 746
f 746 743 747
f 747 743 748
f 748 743 749
f 749 743 750
f 750 743 744
f 750 744 751
f 751 744 752
f 751 752 753
f 753 752 754
f 753 754 755
f 755 754 756
f 756 754 757
f 756 757 758
f 758 757 759
f 758 759 760
f 758 760 761
f 761 760 762
f 761 762 763
f 761 763 764
f 764 763 765
f 765 763 766
f 765 766 767
f 767 766 768
f 767 768 769
f 752 722 724
f 722 752 744
f 753 723 751
f 723 753 725
f 751 721 750
f 721 751 723
f 750 720 749
f 720 750 721
f 749 719 748
f 719 749 720
f 747 719 718
f 719 747 748
f 746 718 717
f 718 746 747
f 745 717 715
f 717 745 746
f 754 724 726
f 724 754 752
f 757 726 729
f 726 757 754
f 757 731 759
f 731 757 729
f 759 732 760
f 732 759 731
f 760 734 762
f 734 760 732
f 762 735 763
f 735 762 734
f 763 738 766
f 738 763 735
f 766 740 768
f 740 766 738
f 768 741 769
f 741 768 740
f 769 739 767
f 739 769 741
f 767 737 765
f 737 767 739
f 765 736 764
f 736 765 737
f 764 733 761
f 733 764 736
f 761 730 758
f 730 761 733
f 758 728 756
f 728 758 730
f 756 727 755
f 727 756 728
f 755 725 753
f 725 755 727
f 743 714 742
f 716 742 714
f 743 744 714
f 722 714 744
f 769 768 767
f 768 766 767
f 767 766 765
f 766 763 765
f 765 763 764
f 764 763 761
f 763 762 761
f 762 760 761
f 761 760 758
f 760 759 758
f 759 757 758
f 758 757 756
f 757 754 756
f 756 754 755
f 755 754 753
f 754 752 753
f 753 752 751
f 752 744 751
f 751 744 750
f 744 743 750
f 750 743 749
f 749 743 748
f 748 743 747
f 747 743 746
f 746 743 745
f 742 745 743
f 744 752 722
f 724 722 752
f 725 753 723
f 751 723 753
f 723 751 721
f 750 721 751
f 721 750 720
f 749 720 750
f 720 749 719
f 748 719 749
f 748 747 719
f 718 719 747
f 747 746 718
f 717 718 746
f 746 745 717
f 715 717 745
f 752 754 724
f 726 724 754
f 754 757 726
f 729 726 757
f 729 757 731
f 759 731 757
f 731 759 732
f 760 732 759
f 732 760 734
f 762 734 760
f 734 762 735
f 763 735 762
f 735 763 738
f 766 738 763
f 738 766 740
f 768 740 766
f 740 768 741
f 769 741 768
f 741 769 739
f 767 739 769
f 739 767 737
f 765 737 767
f 737 765 736
f 764 736 765
f 736 764 733
f 761 733 764
f 733 761 730
f 758 730 761
f 730 758 728
f 756 728 758
f 728 756 727
f 755 727 756
f 727 755 725
f 753 725 755
f 770 771 772
f 773 772 771
f 772 773 774
f 775 774 773
f 776 777 778
f 777 779 778
f 778 779 780
f 779 781 780
f 780 781 782
f 782 781 783
f 781 784 783
f 784 785 783
f 783 785 786
f 785 787 786
f 787 788 786
f 786 788 789
f 788 790 789
f 789 790 771
f 771 790 773
f 790 791 773
f 773 791 775
f 791 792 775
f 775 792 793
f 792 794 793
f 793 794 795
f 795 794 796
f 796 794 797
f 797 794 798
f 798 794 799
f 800 799 794
f 801 789 770
f 771 770 789
f 774 775 802
f 793 802 775
f 802 793 803
f 795 803 793
f 803 795 804
f 796 804 795
f 796 797 804
f 805 804 797
f 797 798 805
f 806 805 798
f 798 799 806
f 807 806 799
f 808 800 807
f 799 807 800
f 794 809 800
f 808 800 809
f 794 792 809
f 810 809 792
f 792 791 810
f 811 810 791
f 791 790 811
f 812 811 790
f 790 788 812
f 813 812 788
f 813 788 814
f 787 814 788
f 814 787 815
f 785 815 787
f 815 785 816
f 784 816 785
f 816 784 817
f 781 817 784
f 817 781 818
f 779 818 781
f 818 779 819
f 777 819 779
f 819 777 820
f 776 820 777
f 820 776 821
f 778 821 776
f 821 778 822
f 780 822 778
f 822 780 823
f 782 823 780
f 823 782 824
f 783 824 782
f 824 783 825
f 786 825 783
f 825 786 801
f 789 801 786
f 826 827 828
f 827 826 829
f 830 828 831
f 828 830 826
f 827 832 833
f 832 827 829
f 834 835 836
f 835 834 837
f 835 837 838
f 838 837 831
f 838 831 839
f 839 831 828
f 839 828 840
f 840 828 827
f 840 827 841
f 841 827 833
f 841 833 842
f 842 833 843
f 842 843 844
f 844 843 845
f 844 845 846
f 846 845 847
f 846 847 848
f 848 847 849
f 848 849 850
f 850 849 851
f 850 851 852
f 852 851 853
f 854 831 837
f 831 854 830
f 832 843 833
f 843 832 855
f 855 845 843
f 845 855 856
f 856 847 845
f 847 856 857
f 847 858 849
f 858 847 857
f 849 859 851
f 859 849 858
f 851 860 853
f 860 851 859
f 853 861 852
f 861 853 860
f 852 862 850
f 862 852 861
f 850 863 848
f 863 850 862
f 848 864 846
f 864 848 863
f 846 865 844
f 865 846 864
f 844 866 842
f 866 844 865
f 842 867 841
f 867 842 866
f 841 868 840
f 868 841 867
f 840 869 839
f 869 840 868
f 869 838 839
f 838 869 870
f 870 835 838
f 835 870 871
f 871 836 835
f 836 871 872
f 872 834 836
f 834 872 873
f 873 837 834
f 837 873 854
f 877 874 875
f 876 875 874
f 879 878 877
f 874 877 878
f 881 875 880
f 876 880 875
f 901 899 900
f 900 899 898
f 899 897 898
f 898 897 878
f 897 896 878
f 878 896 874
f 896 895 874
f 874 895 876
f 895 894 876
f 876 894 880
f 894 893 880
f 880 893 892
f 893 891 892
f 892 891 890
f 891 889 890
f 890 889 888
f 889 887 888
f 888 887 886
f 887 885 886
f 886 885 883
f 885 882 883
f 884 883 882
f 902 898 879
f 878 879 898
f 903 881 892
f 880 892 881
f 904 903 890
f 892 890 903
f 905 904 888
f 890 888 904
f 886 906 888
f 905 888 906
f 883 907 886
f 906 886 907
f 884 908 883
f 907 883 908
f 882 909 884
f 908 884 909
f 885 910 882
f 909 882 910
f 887 911 885
f 910 885 911
f 912 911 889
f 887 889 911
f 913 912 891
f 889 891 912
f 914 913 893
f 891 893 913
f 915 914 894
f 893 894 914
f 915 894 916
f 895 916 894
f 916 895 917
f 896 917 895
f 917 896 918
f 897 918 896
f 918 897 919
f 899 919 897
f 919 899 920
f 901 920 899
f 920 901 921
f 900 921 901
f 921 900 902
f 898 902 900
f 874 875 876
f 875 874 877
f 878 877 874
f 877 878 879
f 875 880 876
f 880 875 881
f 882 883 884
f 883 882 885
f 883 885 886
f 886 885 887
f 886 887 888
f 888 887 889
f 888 889 890
f 890 889 891
f 890 891 892
f 892 891 893
f 892 893 880
f 880 893 894
f 880 894 876
f 876 894 895
f 876 895 874
f 874 895 896
f 874 896 878
f 878 896 897
f 878 897 898
f 898 897 899
f 898 899 900
f 900 899 901
f 898 879 878
f 879 898 902
f 881 892 880
f 892 881 903
f 903 890 892
f 890 903 904
f 904 888 890
f 888 904 905
f 906 888 905
f 888 906 886
f 907 886 906
f 886 907 883
f 908 883 907
f 883 908 884
f 909 884 908
f 884 909 882
f 910 882 909
f 882 910 885
f 911 885 910
f 885 911 887
f 911 889 887
f 889 911 912
f 912 891 889
f 891 912 913
f 913 893 891
f 893 913 914
f 914 894 893
f 894 914 915
f 894 916 895
f 916 894 915
f 895 917 896
f 917 895 916
f 896 918 897
f 918 896 917
f 897 919 899
f 919 897 918
f 899 920 901
f 920 899 919
f 901 921 900
f 921 901 920
f 900 902 898
f 902 900 921

