# https://github.com/mikedh/trimesh

o 0.obj
v -0.24935200 0.50000000 -0.25194940
v -0.24935200 0.50000000 0.24780437
v -0.24935200 -0.49950814 -0.25194940
v -0.24935200 -0.49950814 0.24780437
v 0.25040237 0.50000000 0.25194940
v -0.24935200 0.50000000 0.25194940
v 0.25040237 0.46077049 0.25194940
v -0.24935200 0.46077049 0.25194940
v 0.25040237 0.50000000 0.24915322
v 0.25040237 -0.50000000 -0.25060056
v 0.25040237 0.50000000 -0.25060056
v 0.25040237 -0.50000000 0.24915322
v 0.25040237 0.50000000 -0.25061857
v 0.25040237 0.50000000 0.24860731
v 0.25040237 -0.50000000 -0.25061857
v -0.24935200 0.50000000 -0.25060056
v 0.25040237 0.45833283 0.24915322
v -0.24935200 -0.49950814 0.24915322
v 0.25040177 -0.50000000 0.24915322
v 0.25040177 -0.50000000 -0.25060056
v 0.25040237 -0.50000000 0.24860731
v -0.24935200 0.50000000 0.24915322
v 0.20875622 0.45835385 0.24915322
v 0.25040237 0.45835385 0.24915322
v -0.25040237 0.45835385 0.24915322
v 0.25040237 -0.45833343 0.24915322
v -0.24935200 -0.49950814 -0.25060056
v -0.24935200 0.45835385 0.24915322
v -0.20770585 0.45835385 0.24915322
v 0.20875622 -0.45786200 0.24915322
v 0.25040237 -0.45786200 0.24915322
v -0.25040237 0.50000000 0.24915322
v -0.24935200 -0.45786200 0.24915322
v 0.20875622 0.45835385 -0.18552853
v 0.20875622 -0.45786200 -0.18552853
v -0.20770585 -0.45786200 0.24915322
v 0.25040237 -0.49950814 0.24915322
v -0.20770585 -0.45786200 -0.18552853
v 0.20875622 0.45835385 0.24655041
v -0.22592552 -0.45786200 -0.18552853
v -0.20770585 0.45835385 -0.18552853
v 0.20875622 -0.45786200 0.24655041
v -0.22592552 -0.45786200 0.24915322
v -0.20874121 0.50000000 0.24915322
v -0.20874121 -0.49950814 0.24915322
f 1 2 3
f 1 3 2
f 4 3 2
f 4 2 3
f 5 6 7
f 5 7 6
f 8 7 6
f 8 6 7
f 9 10 11
f 10 9 12
f 11 10 9
f 12 9 10
f 12 9 17
f 17 9 12
f 18 10 12
f 12 10 18
f 9 23 17
f 17 23 9
f 12 17 26
f 26 17 12
f 10 18 27
f 27 18 10
f 26 18 12
f 12 18 26
f 28 9 22
f 22 9 28
f 23 9 29
f 29 9 23
f 30 17 23
f 23 17 30
f 17 30 26
f 26 30 17
f 18 26 33
f 33 26 18
f 29 9 28
f 28 9 29
f 34 30 23
f 23 30 34
f 33 26 30
f 30 26 33
f 33 29 28
f 28 29 33
f 30 34 35
f 35 34 30
f 33 30 36
f 36 30 33
f 29 33 36
f 36 33 29
f 38 30 35
f 35 30 38
f 30 38 36
f 36 38 30
f 38 29 36
f 36 29 38
f 29 38 41
f 41 38 29
f 13 14 15
f 13 15 14
f 11 16 9
f 11 9 16
f 19 18 20
f 19 20 18
f 21 15 14
f 21 14 15
f 22 9 16
f 22 16 9
f 24 9 25
f 24 25 9
f 27 20 18
f 27 18 20
f 24 23 31
f 24 31 23
f 32 25 9
f 32 9 25
f 30 31 23
f 30 23 31
f 33 18 31
f 33 31 18
f 37 31 18
f 37 18 31
f 35 34 38
f 35 38 34
f 34 35 39
f 34 39 35
f 35 40 30
f 35 30 40
f 29 36 41
f 29 41 36
f 41 38 34
f 41 34 38
f 42 39 35
f 42 35 39
f 43 30 40
f 43 40 30
f 38 41 36
f 38 36 41
f 44 22 45
f 44 45 22
f 18 45 22
f 18 22 45

