# https://github.com/mikedh/trimesh
v -0.00200000 -0.02600000 -0.03800000
v -0.00200000 -0.02600000 -0.03400000
v -0.00200000 -0.02200000 -0.03800000
v -0.00200000 -0.02200000 -0.03400000
v 0.00200000 -0.02600000 -0.03800000
v 0.00200000 -0.02600000 -0.03400000
v 0.00200000 -0.02200000 -0.03800000
v 0.00200000 -0.02200000 -0.03400000
v -0.00200000 -0.02600000 -0.03000000
v -0.00200000 -0.02200000 -0.03000000
v 0.00200000 -0.02600000 -0.03000000
v 0.00200000 -0.02200000 -0.03000000
v -0.00200000 -0.01800000 -0.03800000
v -0.00200000 -0.01800000 -0.03400000
v 0.00200000 -0.01800000 -0.03800000
v 0.00200000 -0.01800000 -0.03400000
v -0.00200000 -0.01800000 -0.03000000
v 0.00200000 -0.01800000 -0.03000000
v -0.00200000 -0.02200000 -0.02600000
v -0.00200000 -0.01800000 -0.02600000
v 0.00200000 -0.02200000 -0.02600000
v 0.00200000 -0.01800000 -0.02600000
v -0.00200000 -0.02200000 -0.02200000
v -0.00200000 -0.01800000 -0.02200000
v 0.00200000 -0.02200000 -0.02200000
v 0.00200000 -0.01800000 -0.02200000
v -0.00200000 -0.02200000 -0.01800000
v -0.00200000 -0.01800000 -0.01800000
v 0.00200000 -0.02200000 -0.01800000
v 0.00200000 -0.01800000 -0.01800000
v -0.00200000 -0.01400000 -0.03800000
v -0.00200000 -0.01400000 -0.03400000
v 0.00200000 -0.01400000 -0.03800000
v 0.00200000 -0.01400000 -0.03400000
v -0.00200000 -0.01400000 -0.03000000
v 0.00200000 -0.01400000 -0.03000000
v -0.00200000 -0.01400000 -0.02600000
v 0.00200000 -0.01400000 -0.02600000
v -0.00200000 -0.01400000 -0.02200000
v 0.00200000 -0.01400000 -0.02200000
v -0.00200000 -0.01400000 -0.01800000
v 0.00200000 -0.01400000 -0.01800000
v -0.00200000 -0.01000000 -0.03800000
v -0.00200000 -0.01000000 -0.03400000
v 0.00200000 -0.01000000 -0.03800000
v 0.00200000 -0.01000000 -0.03400000
v -0.00200000 -0.01000000 -0.03000000
v 0.00200000 -0.01000000 -0.03000000
v -0.00200000 -0.01000000 -0.02600000
v 0.00200000 -0.01000000 -0.02600000
v -0.00200000 -0.01000000 -0.02200000
v 0.00200000 -0.01000000 -0.02200000
v -0.00200000 -0.01000000 -0.01800000
v 0.00200000 -0.01000000 -0.01800000
v -0.00200000 -0.00600000 -0.03800000
v -0.00200000 -0.00600000 -0.03400000
v 0.00200000 -0.00600000 -0.03800000
v 0.00200000 -0.00600000 -0.03400000
v -0.00200000 -0.00600000 -0.03000000
v 0.00200000 -0.00600000 -0.03000000
v -0.00200000 -0.00600000 -0.02600000
v 0.00200000 -0.00600000 -0.02600000
v -0.00200000 -0.00600000 -0.02200000
v 0.00200000 -0.00600000 -0.02200000
v -0.00200000 -0.00600000 -0.01800000
v 0.00200000 -0.00600000 -0.01800000
v -0.00200000 -0.00600000 -0.13800000
v -0.00200000 -0.00600000 -0.13400000
v -0.00200000 -0.00200000 -0.13800000
v -0.00200000 -0.00200000 -0.13400000
v 0.00200000 -0.00600000 -0.13800000
v 0.00200000 -0.00600000 -0.13400000
v 0.00200000 -0.00200000 -0.13800000
v 0.00200000 -0.00200000 -0.13400000
v -0.00200000 -0.00600000 -0.13000000
v -0.00200000 -0.00200000 -0.13000000
v 0.00200000 -0.00600000 -0.13000000
v 0.00200000 -0.00200000 -0.13000000
v -0.00200000 -0.00600000 -0.12600000
v -0.00200000 -0.00200000 -0.12600000
v 0.00200000 -0.00600000 -0.12600000
v 0.00200000 -0.00200000 -0.12600000
v -0.00200000 -0.00600000 -0.12200000
v -0.00200000 -0.00200000 -0.12200000
v 0.00200000 -0.00600000 -0.12200000
v 0.00200000 -0.00200000 -0.12200000
v -0.00200000 -0.00600000 -0.11800000
v -0.00200000 -0.00200000 -0.11800000
v 0.00200000 -0.00600000 -0.11800000
v 0.00200000 -0.00200000 -0.11800000
v -0.00200000 -0.00600000 -0.11400000
v -0.00200000 -0.00200000 -0.11400000
v 0.00200000 -0.00600000 -0.11400000
v 0.00200000 -0.00200000 -0.11400000
v -0.00200000 -0.00600000 -0.11000000
v -0.00200000 -0.00200000 -0.11000000
v 0.00200000 -0.00600000 -0.11000000
v 0.00200000 -0.00200000 -0.11000000
v -0.00200000 -0.00600000 -0.10600000
v -0.00200000 -0.00200000 -0.10600000
v 0.00200000 -0.00600000 -0.10600000
v 0.00200000 -0.00200000 -0.10600000
v -0.00200000 -0.00600000 -0.10200000
v -0.00200000 -0.00200000 -0.10200000
v 0.00200000 -0.00600000 -0.10200000
v 0.00200000 -0.00200000 -0.10200000
v -0.00200000 -0.00600000 -0.09800000
v -0.00200000 -0.00200000 -0.09800000
v 0.00200000 -0.00600000 -0.09800000
v 0.00200000 -0.00200000 -0.09800000
v -0.00200000 -0.00600000 -0.09400000
v -0.00200000 -0.00200000 -0.09400000
v 0.00200000 -0.00600000 -0.09400000
v 0.00200000 -0.00200000 -0.09400000
v -0.00200000 -0.00600000 -0.09000000
v -0.00200000 -0.00200000 -0.09000000
v 0.00200000 -0.00600000 -0.09000000
v 0.00200000 -0.00200000 -0.09000000
v -0.00200000 -0.00600000 -0.08600000
v -0.00200000 -0.00200000 -0.08600000
v 0.00200000 -0.00600000 -0.08600000
v 0.00200000 -0.00200000 -0.08600000
v -0.00200000 -0.00600000 -0.08200000
v -0.00200000 -0.00200000 -0.08200000
v 0.00200000 -0.00600000 -0.08200000
v 0.00200000 -0.00200000 -0.08200000
v -0.00200000 -0.00600000 -0.07800000
v -0.00200000 -0.00200000 -0.07800000
v 0.00200000 -0.00600000 -0.07800000
v 0.00200000 -0.00200000 -0.07800000
v -0.00200000 -0.00600000 -0.07400000
v -0.00200000 -0.00200000 -0.07400000
v 0.00200000 -0.00600000 -0.07400000
v 0.00200000 -0.00200000 -0.07400000
v -0.00200000 -0.00200000 -0.03800000
v -0.00200000 -0.00200000 -0.03400000
v 0.00200000 -0.00200000 -0.03800000
v 0.00200000 -0.00200000 -0.03400000
v -0.00200000 -0.00200000 -0.03000000
v 0.00200000 -0.00200000 -0.03000000
v -0.00200000 -0.00200000 -0.02600000
v 0.00200000 -0.00200000 -0.02600000
v -0.00200000 -0.00200000 -0.02200000
v 0.00200000 -0.00200000 -0.02200000
v -0.00200000 -0.00200000 -0.01800000
v 0.00200000 -0.00200000 -0.01800000
v -0.00200000 0.00200000 -0.13800000
v -0.00200000 0.00200000 -0.13400000
v 0.00200000 0.00200000 -0.13800000
v 0.00200000 0.00200000 -0.13400000
v -0.00200000 0.00200000 -0.13000000
v 0.00200000 0.00200000 -0.13000000
v -0.00200000 0.00200000 -0.12600000
v 0.00200000 0.00200000 -0.12600000
v -0.00200000 0.00200000 -0.12200000
v 0.00200000 0.00200000 -0.12200000
v -0.00200000 0.00200000 -0.11800000
v 0.00200000 0.00200000 -0.11800000
v -0.00200000 0.00200000 -0.11400000
v 0.00200000 0.00200000 -0.11400000
v -0.00200000 0.00200000 -0.11000000
v 0.00200000 0.00200000 -0.11000000
v -0.00200000 0.00200000 -0.10600000
v 0.00200000 0.00200000 -0.10600000
v -0.00200000 0.00200000 -0.10200000
v 0.00200000 0.00200000 -0.10200000
v -0.00200000 0.00200000 -0.09800000
v 0.00200000 0.00200000 -0.09800000
v -0.00200000 0.00200000 -0.09400000
v 0.00200000 0.00200000 -0.09400000
v -0.00200000 0.00200000 -0.09000000
v 0.00200000 0.00200000 -0.09000000
v -0.00200000 0.00200000 -0.08600000
v 0.00200000 0.00200000 -0.08600000
v -0.00200000 0.00200000 -0.08200000
v 0.00200000 0.00200000 -0.08200000
v -0.00200000 0.00200000 -0.07800000
v 0.00200000 0.00200000 -0.07800000
v -0.00200000 0.00200000 -0.07400000
v 0.00200000 0.00200000 -0.07400000
v -0.00200000 -0.00200000 -0.07000000
v -0.00200000 0.00200000 -0.07000000
v 0.00200000 -0.00200000 -0.07000000
v 0.00200000 0.00200000 -0.07000000
v -0.00200000 -0.00200000 -0.06600000
v -0.00200000 0.00200000 -0.06600000
v 0.00200000 -0.00200000 -0.06600000
v 0.00200000 0.00200000 -0.06600000
v -0.00200000 -0.00200000 -0.06200000
v -0.00200000 0.00200000 -0.06200000
v 0.00200000 -0.00200000 -0.06200000
v 0.00200000 0.00200000 -0.06200000
v -0.00200000 -0.00200000 -0.05800000
v -0.00200000 0.00200000 -0.05800000
v 0.00200000 -0.00200000 -0.05800000
v 0.00200000 0.00200000 -0.05800000
v -0.00200000 -0.00200000 -0.05400000
v -0.00200000 0.00200000 -0.05400000
v 0.00200000 -0.00200000 -0.05400000
v 0.00200000 0.00200000 -0.05400000
v -0.00200000 -0.00200000 -0.05000000
v -0.00200000 0.00200000 -0.05000000
v 0.00200000 -0.00200000 -0.05000000
v 0.00200000 0.00200000 -0.05000000
v -0.00200000 -0.00200000 -0.04600000
v -0.00200000 0.00200000 -0.04600000
v 0.00200000 -0.00200000 -0.04600000
v 0.00200000 0.00200000 -0.04600000
v -0.00200000 -0.00200000 -0.04200000
v -0.00200000 0.00200000 -0.04200000
v 0.00200000 -0.00200000 -0.04200000
v 0.00200000 0.00200000 -0.04200000
v -0.00200000 0.00200000 -0.03800000
v 0.00200000 0.00200000 -0.03800000
v -0.00200000 0.00200000 -0.03400000
v 0.00200000 0.00200000 -0.03400000
v -0.00200000 0.00200000 -0.03000000
v 0.00200000 0.00200000 -0.03000000
v -0.00200000 0.00200000 -0.02600000
v 0.00200000 0.00200000 -0.02600000
v -0.00200000 0.00200000 -0.02200000
v 0.00200000 0.00200000 -0.02200000
v -0.00200000 0.00200000 -0.01800000
v 0.00200000 0.00200000 -0.01800000
v -0.00200000 0.00600000 -0.11800000
v -0.00200000 0.00600000 -0.11400000
v 0.00200000 0.00600000 -0.11800000
v 0.00200000 0.00600000 -0.11400000
v -0.00200000 0.00600000 -0.11000000
v 0.00200000 0.00600000 -0.11000000
v -0.00200000 0.00600000 -0.10600000
v 0.00200000 0.00600000 -0.10600000
v -0.00200000 0.00600000 -0.10200000
v 0.00200000 0.00600000 -0.10200000
v -0.00200000 0.00600000 -0.09800000
v 0.00200000 0.00600000 -0.09800000
v -0.00200000 0.00600000 -0.09400000
v 0.00200000 0.00600000 -0.09400000
v -0.00200000 0.00600000 -0.09000000
v 0.00200000 0.00600000 -0.09000000
v -0.00200000 0.00600000 -0.08600000
v 0.00200000 0.00600000 -0.08600000
v -0.00200000 0.00600000 -0.08200000
v 0.00200000 0.00600000 -0.08200000
v -0.00200000 0.00600000 -0.07800000
v 0.00200000 0.00600000 -0.07800000
v -0.00200000 0.00600000 -0.07400000
v 0.00200000 0.00600000 -0.07400000
v -0.00200000 0.00600000 -0.07000000
v 0.00200000 0.00600000 -0.07000000
v -0.00200000 0.00600000 -0.06600000
v 0.00200000 0.00600000 -0.06600000
v -0.00200000 0.00600000 -0.06200000
v 0.00200000 0.00600000 -0.06200000
v -0.00200000 0.00600000 -0.05800000
v 0.00200000 0.00600000 -0.05800000
v -0.00200000 0.00600000 -0.05400000
v 0.00200000 0.00600000 -0.05400000
v -0.00200000 0.00600000 -0.05000000
v 0.00200000 0.00600000 -0.05000000
v -0.00200000 0.00600000 -0.04600000
v 0.00200000 0.00600000 -0.04600000
v -0.00200000 0.00600000 -0.04200000
v 0.00200000 0.00600000 -0.04200000
v -0.00200000 0.00600000 -0.03800000
v 0.00200000 0.00600000 -0.03800000
v -0.00200000 0.00600000 -0.03400000
v 0.00200000 0.00600000 -0.03400000
v -0.00200000 0.00600000 -0.03000000
v 0.00200000 0.00600000 -0.03000000
v -0.00200000 0.00600000 -0.02600000
v 0.00200000 0.00600000 -0.02600000
v -0.00200000 0.00600000 -0.02200000
v 0.00200000 0.00600000 -0.02200000
v -0.00200000 0.00600000 -0.01800000
v 0.00200000 0.00600000 -0.01800000
v -0.00200000 0.01000000 -0.04200000
v -0.00200000 0.01000000 -0.03800000
v 0.00200000 0.01000000 -0.04200000
v 0.00200000 0.01000000 -0.03800000
v -0.00200000 0.01000000 -0.03400000
v 0.00200000 0.01000000 -0.03400000
v -0.00200000 0.01000000 -0.03000000
v 0.00200000 0.01000000 -0.03000000
v -0.00200000 0.01000000 -0.02600000
v 0.00200000 0.01000000 -0.02600000
v -0.00200000 0.01000000 -0.02200000
v 0.00200000 0.01000000 -0.02200000
v -0.00200000 0.01000000 -0.01800000
v 0.00200000 0.01000000 -0.01800000
f 2 4 1
f 5 2 1
f 1 4 3
f 3 5 1
f 6 2 5
f 7 5 3
f 7 6 5
f 8 6 7
f 9 10 2
f 6 9 2
f 2 10 4
f 9 12 10
f 11 9 6
f 11 12 9
f 8 11 6
f 12 11 8
f 4 14 3
f 3 14 13
f 13 7 3
f 15 7 13
f 15 8 7
f 16 8 15
f 10 17 4
f 4 17 14
f 16 12 8
f 18 12 16
f 19 20 10
f 12 19 10
f 10 20 17
f 21 19 12
f 18 21 12
f 22 21 18
f 23 24 19
f 21 23 19
f 19 24 20
f 25 23 21
f 22 25 21
f 26 25 22
f 27 28 23
f 25 27 23
f 23 28 24
f 27 30 28
f 29 27 25
f 29 30 27
f 26 29 25
f 30 29 26
f 14 32 13
f 13 32 31
f 31 15 13
f 33 15 31
f 33 16 15
f 34 16 33
f 17 35 14
f 14 35 32
f 34 18 16
f 36 18 34
f 20 37 17
f 17 37 35
f 36 22 18
f 38 22 36
f 24 39 20
f 20 39 37
f 38 26 22
f 40 26 38
f 28 41 24
f 24 41 39
f 28 42 41
f 30 42 28
f 40 30 26
f 42 30 40
f 32 44 31
f 31 44 43
f 43 33 31
f 45 33 43
f 45 34 33
f 46 34 45
f 35 47 32
f 32 47 44
f 46 36 34
f 48 36 46
f 37 49 35
f 35 49 47
f 48 38 36
f 50 38 48
f 39 51 37
f 37 51 49
f 50 40 38
f 52 40 50
f 41 53 39
f 39 53 51
f 41 54 53
f 42 54 41
f 52 42 40
f 54 42 52
f 44 56 43
f 43 56 55
f 55 45 43
f 57 45 55
f 57 46 45
f 58 46 57
f 47 59 44
f 44 59 56
f 58 48 46
f 60 48 58
f 49 61 47
f 47 61 59
f 60 50 48
f 62 50 60
f 51 63 49
f 49 63 61
f 62 52 50
f 64 52 62
f 53 65 51
f 51 65 63
f 53 66 65
f 54 66 53
f 64 54 52
f 66 54 64
f 68 70 67
f 71 68 67
f 67 70 69
f 69 71 67
f 72 68 71
f 73 71 69
f 73 72 71
f 74 72 73
f 75 76 68
f 72 75 68
f 68 76 70
f 77 75 72
f 74 77 72
f 78 77 74
f 79 80 75
f 77 79 75
f 75 80 76
f 81 79 77
f 78 81 77
f 82 81 78
f 83 84 79
f 81 83 79
f 79 84 80
f 85 83 81
f 82 85 81
f 86 85 82
f 87 88 83
f 85 87 83
f 83 88 84
f 89 87 85
f 86 89 85
f 90 89 86
f 91 92 87
f 89 91 87
f 87 92 88
f 93 91 89
f 90 93 89
f 94 93 90
f 95 96 91
f 93 95 91
f 91 96 92
f 97 95 93
f 94 97 93
f 98 97 94
f 99 100 95
f 97 99 95
f 95 100 96
f 101 99 97
f 98 101 97
f 102 101 98
f 103 104 99
f 101 103 99
f 99 104 100
f 105 103 101
f 102 105 101
f 106 105 102
f 107 108 103
f 105 107 103
f 103 108 104
f 109 107 105
f 106 109 105
f 110 109 106
f 111 112 107
f 109 111 107
f 107 112 108
f 113 111 109
f 110 113 109
f 114 113 110
f 115 116 111
f 113 115 111
f 111 116 112
f 117 115 113
f 114 117 113
f 118 117 114
f 119 120 115
f 117 119 115
f 115 120 116
f 121 119 117
f 118 121 117
f 122 121 118
f 123 124 119
f 121 123 119
f 119 124 120
f 125 123 121
f 122 125 121
f 126 125 122
f 127 128 123
f 125 127 123
f 123 128 124
f 129 127 125
f 126 129 125
f 130 129 126
f 131 132 127
f 129 131 127
f 127 132 128
f 131 134 132
f 133 131 129
f 133 134 131
f 130 133 129
f 134 133 130
f 56 136 55
f 55 136 135
f 135 57 55
f 137 57 135
f 137 58 57
f 138 58 137
f 59 139 56
f 56 139 136
f 138 60 58
f 140 60 138
f 61 141 59
f 59 141 139
f 140 62 60
f 142 62 140
f 63 143 61
f 61 143 141
f 142 64 62
f 144 64 142
f 65 145 63
f 63 145 143
f 65 146 145
f 66 146 65
f 144 66 64
f 146 66 144
f 70 148 69
f 69 148 147
f 147 73 69
f 148 150 147
f 149 73 147
f 147 150 149
f 149 74 73
f 150 74 149
f 76 151 70
f 70 151 148
f 151 152 148
f 148 152 150
f 150 78 74
f 152 78 150
f 80 153 76
f 76 153 151
f 153 154 151
f 151 154 152
f 152 82 78
f 154 82 152
f 84 155 80
f 80 155 153
f 155 156 153
f 153 156 154
f 154 86 82
f 156 86 154
f 88 157 84
f 84 157 155
f 157 158 155
f 155 158 156
f 156 90 86
f 158 90 156
f 92 159 88
f 88 159 157
f 158 94 90
f 160 94 158
f 96 161 92
f 92 161 159
f 160 98 94
f 162 98 160
f 100 163 96
f 96 163 161
f 162 102 98
f 164 102 162
f 104 165 100
f 100 165 163
f 164 106 102
f 166 106 164
f 108 167 104
f 104 167 165
f 166 110 106
f 168 110 166
f 112 169 108
f 108 169 167
f 168 114 110
f 170 114 168
f 116 171 112
f 112 171 169
f 170 118 114
f 172 118 170
f 120 173 116
f 116 173 171
f 172 122 118
f 174 122 172
f 124 175 120
f 120 175 173
f 174 126 122
f 176 126 174
f 128 177 124
f 124 177 175
f 176 130 126
f 178 130 176
f 132 179 128
f 128 179 177
f 178 134 130
f 180 134 178
f 181 182 132
f 134 181 132
f 132 182 179
f 183 181 134
f 180 183 134
f 184 183 180
f 185 186 181
f 183 185 181
f 181 186 182
f 187 185 183
f 184 187 183
f 188 187 184
f 189 190 185
f 187 189 185
f 185 190 186
f 191 189 187
f 188 191 187
f 192 191 188
f 193 194 189
f 191 193 189
f 189 194 190
f 195 193 191
f 192 195 191
f 196 195 192
f 197 198 193
f 195 197 193
f 193 198 194
f 199 197 195
f 196 199 195
f 200 199 196
f 201 202 197
f 199 201 197
f 197 202 198
f 203 201 199
f 200 203 199
f 204 203 200
f 205 206 201
f 203 205 201
f 201 206 202
f 207 205 203
f 204 207 203
f 208 207 204
f 209 210 205
f 207 209 205
f 205 210 206
f 211 209 207
f 208 211 207
f 212 211 208
f 135 213 209
f 211 135 209
f 209 213 210
f 137 135 211
f 212 137 211
f 214 137 212
f 136 215 135
f 135 215 213
f 214 138 137
f 216 138 214
f 139 217 136
f 136 217 215
f 216 140 138
f 218 140 216
f 141 219 139
f 139 219 217
f 218 142 140
f 220 142 218
f 143 221 141
f 141 221 219
f 220 144 142
f 222 144 220
f 145 223 143
f 143 223 221
f 145 224 223
f 146 224 145
f 222 146 144
f 224 146 222
f 159 226 157
f 157 226 225
f 225 158 157
f 226 228 225
f 227 158 225
f 225 228 227
f 227 160 158
f 228 160 227
f 161 229 159
f 159 229 226
f 229 230 226
f 226 230 228
f 228 162 160
f 230 162 228
f 163 231 161
f 161 231 229
f 231 232 229
f 229 232 230
f 230 164 162
f 232 164 230
f 165 233 163
f 163 233 231
f 233 234 231
f 231 234 232
f 232 166 164
f 234 166 232
f 167 235 165
f 165 235 233
f 235 236 233
f 233 236 234
f 234 168 166
f 236 168 234
f 169 237 167
f 167 237 235
f 237 238 235
f 235 238 236
f 236 170 168
f 238 170 236
f 171 239 169
f 169 239 237
f 239 240 237
f 237 240 238
f 238 172 170
f 240 172 238
f 173 241 171
f 171 241 239
f 241 242 239
f 239 242 240
f 240 174 172
f 242 174 240
f 175 243 173
f 173 243 241
f 243 244 241
f 241 244 242
f 242 176 174
f 244 176 242
f 177 245 175
f 175 245 243
f 245 246 243
f 243 246 244
f 244 178 176
f 246 178 244
f 179 247 177
f 177 247 245
f 247 248 245
f 245 248 246
f 246 180 178
f 248 180 246
f 182 249 179
f 179 249 247
f 249 250 247
f 247 250 248
f 248 184 180
f 250 184 248
f 186 251 182
f 182 251 249
f 251 252 249
f 249 252 250
f 250 188 184
f 252 188 250
f 190 253 186
f 186 253 251
f 253 254 251
f 251 254 252
f 252 192 188
f 254 192 252
f 194 255 190
f 190 255 253
f 255 256 253
f 253 256 254
f 254 196 192
f 256 196 254
f 198 257 194
f 194 257 255
f 257 258 255
f 255 258 256
f 256 200 196
f 258 200 256
f 202 259 198
f 198 259 257
f 259 260 257
f 257 260 258
f 258 204 200
f 260 204 258
f 206 261 202
f 202 261 259
f 261 262 259
f 259 262 260
f 260 208 204
f 262 208 260
f 210 263 206
f 206 263 261
f 263 264 261
f 261 264 262
f 262 212 208
f 264 212 262
f 213 265 210
f 210 265 263
f 264 214 212
f 266 214 264
f 215 267 213
f 213 267 265
f 266 216 214
f 268 216 266
f 217 269 215
f 215 269 267
f 268 218 216
f 270 218 268
f 219 271 217
f 217 271 269
f 270 220 218
f 272 220 270
f 221 273 219
f 219 273 271
f 272 222 220
f 274 222 272
f 223 275 221
f 221 275 273
f 223 276 275
f 224 276 223
f 274 224 222
f 276 224 274
f 265 278 263
f 263 278 277
f 277 264 263
f 278 280 277
f 279 264 277
f 277 280 279
f 279 266 264
f 280 266 279
f 267 281 265
f 265 281 278
f 281 282 278
f 278 282 280
f 280 268 266
f 282 268 280
f 269 283 267
f 267 283 281
f 283 284 281
f 281 284 282
f 282 270 268
f 284 270 282
f 271 285 269
f 269 285 283
f 285 286 283
f 283 286 284
f 284 272 270
f 286 272 284
f 273 287 271
f 271 287 285
f 287 288 285
f 285 288 286
f 286 274 272
f 288 274 286
f 275 289 273
f 273 289 287
f 275 290 289
f 276 290 275
f 289 290 287
f 287 290 288
f 288 276 274
f 290 276 288

