# https://github.com/mikedh/trimesh
v -0.50000000 -0.23222464 0.15408510
v 0.49876229 0.23296503 0.15408510
v 0.49876229 -0.23222464 0.15408510
v -0.50000000 0.23296503 0.15408510
v 0.49876229 -0.23222464 0.15718608
v -0.50000000 0.23296503 0.15718608
v 0.49876229 0.23296503 0.15718608
v -0.50000000 -0.23222464 0.15718608
v -0.26627191 0.19918407 0.11878193
v -0.49886702 0.23329826 0.11878193
v -0.26627191 0.23329826 0.11878193
v -0.49886702 0.19918407 0.11878193
v -0.26627191 0.23329826 0.15289556
v -0.49886702 0.19918407 0.15289556
v -0.49886702 0.23329826 0.15289556
v -0.26627191 0.19918407 0.15289556
v 0.23306836 0.19914990 0.11991211
v -0.23212132 0.23326353 0.11991211
v 0.23306836 0.23326353 0.11991211
v -0.23212132 0.19914990 0.11991211
v 0.23306836 0.23326353 0.15402574
v -0.23212132 0.19914990 0.15402574
v -0.23212132 0.23326353 0.15402574
v 0.23306836 0.19914990 0.15402574
v 0.49988743 0.19904741 0.11958728
v 0.26729287 0.23316104 0.11958728
v 0.49988743 0.23316104 0.11958728
v 0.26729287 0.19904741 0.11958728
v 0.49988743 0.23316104 0.15370091
v 0.26729287 0.19904741 0.15370091
v 0.26729287 0.23316104 0.15370091
v 0.49988743 0.19904741 0.15370091
v 0.23305940 -0.23190934 0.12000843
v -0.23213028 -0.19779571 0.12000843
v 0.23305940 -0.19779571 0.12000843
v -0.23213028 -0.23190934 0.12000843
v 0.23305940 -0.19779571 0.15412262
v -0.23213028 -0.23190934 0.15412262
v -0.23213028 -0.19779571 0.15412262
v 0.23305940 -0.23190934 0.15412262
v -0.26627639 -0.23187517 0.11887826
v -0.49887150 -0.19776099 0.11887826
v -0.26627639 -0.19776099 0.11887826
v -0.49887150 -0.23187517 0.11887826
v -0.26627639 -0.19776099 0.15299245
v -0.49887150 -0.23187517 0.15299245
v -0.49887150 -0.19776099 0.15299245
v -0.26627639 -0.23187517 0.15299245
v 0.49988295 -0.23201183 0.11968361
v 0.26728839 -0.19789820 0.11968361
v 0.49988295 -0.19789820 0.11968361
v 0.26728839 -0.23201183 0.11968361
v 0.49988295 -0.19789820 0.15379780
v 0.26728839 -0.23201183 0.15379780
v 0.26728839 -0.19789820 0.15379780
v 0.49988295 -0.23201183 0.15379780
v -0.49912745 -0.23316104 -0.02877105
v -0.26653289 0.23202863 -0.02877105
v -0.26653289 -0.23316104 -0.02877105
v -0.49912745 0.23202863 -0.02877105
v -0.26653289 -0.23316104 -0.02567007
v -0.49912745 0.23202863 -0.02567007
v -0.26653289 0.23202863 -0.02567007
v -0.49912745 -0.23316104 -0.02567007
v 0.26740544 -0.23329826 -0.02796570
v 0.50000000 0.23189142 -0.02796570
v 0.50000000 -0.23329826 -0.02796570
v 0.26740544 0.23189142 -0.02796570
v 0.50000000 -0.23329826 -0.02486472
v 0.26740544 0.23189142 -0.02486472
v 0.50000000 0.23189142 -0.02486472
v 0.26740544 -0.23329826 -0.02486472
v -0.26624335 -0.23194574 -0.15703095
v -0.23212916 -0.19783155 -0.15703095
v -0.23212916 -0.23194574 -0.15703095
v -0.26624335 -0.19783155 -0.15703095
v -0.23212916 -0.23194574 0.11975697
v -0.26624335 -0.19783155 0.11975697
v -0.23212916 -0.19783155 0.11975697
v -0.26624335 -0.23194574 0.11975697
v 0.23339486 -0.23181917 -0.15710880
v 0.26750905 -0.19770554 -0.15710880
v 0.26750905 -0.23181917 -0.15710880
v 0.23339486 -0.19770554 -0.15710880
v 0.26750905 -0.23181917 0.11967913
v 0.23339486 -0.19770554 0.11967913
v 0.26750905 -0.19770554 0.11967913
v 0.23339486 -0.23181917 0.11967913
v 0.23252399 0.19784667 -0.15718608
v 0.26663762 0.23196030 -0.15718608
v 0.26663762 0.19784667 -0.15718608
v 0.23252399 0.23196030 -0.15718608
v 0.26663762 0.19784667 0.11960184
v 0.23252399 0.23196030 0.11960184
v 0.26663762 0.23196030 0.11960184
v 0.23252399 0.19784667 0.11960184
v -0.26629487 0.19915046 -0.15688366
v -0.23218124 0.23326465 -0.15688366
v -0.23218124 0.19915046 -0.15688366
v -0.26629487 0.23326465 -0.15688366
v -0.23218124 0.19915046 0.11990371
v -0.26629487 0.23326465 0.11990371
v -0.23218124 0.23326465 0.11990371
v -0.26629487 0.19915046 0.11990371
v -0.23237726 0.19895837 -0.06186652
v -0.26649145 -0.23350491 -0.06186652
v -0.26649145 0.19895837 -0.06186652
v -0.23237726 -0.23350491 -0.06186652
v -0.26649145 0.19895837 -0.02775233
v -0.23237726 -0.23350491 -0.02775233
v -0.26649145 -0.23350491 -0.02775233
v -0.23237726 0.19895837 -0.02775233
v 0.26703189 0.19915046 -0.06207989
v 0.23291770 -0.23331282 -0.06207989
v 0.23291770 0.19915046 -0.06207989
v 0.26703189 -0.23331282 -0.06207989
v 0.23291770 0.19915046 -0.02796570
v 0.26703189 -0.23331282 -0.02796570
v 0.23291770 -0.23331282 -0.02796570
v 0.26703189 0.19915046 -0.02796570
v -0.26653289 0.19791444 -0.06288524
v -0.49912745 0.23202863 -0.06288524
v -0.26653289 0.23202863 -0.06288524
v -0.49912745 0.19791444 -0.06288524
v -0.49912745 0.19791444 -0.02877105
v -0.26653289 0.19791444 -0.02877105
v 0.23254695 0.19788028 -0.06175507
v -0.23264272 0.23199390 -0.06175507
v 0.23254695 0.23199390 -0.06175507
v -0.23264272 0.19788028 -0.06175507
v 0.23254695 0.23199390 -0.02764144
v -0.23264272 0.19788028 -0.02764144
v -0.23264272 0.23199390 -0.02764144
v 0.23254695 0.19788028 -0.02764144
v 0.49962645 0.19777779 -0.06207989
v 0.26703189 0.23189142 -0.06207989
v 0.49962645 0.23189142 -0.06207989
v 0.26703189 0.19777779 -0.06207989
v 0.49962645 0.23189142 -0.02796570
v 0.26703189 0.19777779 -0.02796570
v 0.26703189 0.23189142 -0.02796570
v 0.49962645 0.19777779 -0.02796570
v 0.23253799 -0.23317897 -0.06165874
v -0.23265168 -0.19906534 -0.06165874
v 0.23253799 -0.19906534 -0.06165874
v -0.23265168 -0.23317897 -0.06165874
v 0.23253799 -0.19906534 -0.02754455
v -0.23265168 -0.23317897 -0.02754455
v -0.23265168 -0.19906534 -0.02754455
v 0.23253799 -0.23317897 -0.02754455
v 0.49962197 -0.23328145 -0.06198301
v 0.26702741 -0.19916783 -0.06198301
v 0.49962197 -0.19916783 -0.06198301
v 0.26702741 -0.23328145 -0.06198301
v 0.49962197 -0.19916783 -0.02786938
v 0.26702741 -0.23328145 -0.02786938
v 0.26702741 -0.19916783 -0.02786938
v 0.49962197 -0.23328145 -0.02786938
v -0.26653737 -0.23314480 -0.06278835
v -0.49913193 -0.19903061 -0.06278835
v -0.26653737 -0.19903061 -0.06278835
v -0.49913193 -0.23314480 -0.06278835
v -0.26653737 -0.19903061 -0.02867473
v -0.49913193 -0.23314480 -0.02867473
v -0.49913193 -0.19903061 -0.02867473
v -0.26653737 -0.23314480 -0.02867473
v -0.23215828 0.23329826 0.11991211
v -0.26627191 -0.23189142 0.11991211
v -0.26627191 0.23329826 0.11991211
v -0.23215828 -0.23189142 0.11991211
v -0.26627191 0.23329826 0.15402574
v -0.23215828 -0.23189142 0.15402574
v -0.26627191 -0.23189142 0.15402574
v -0.23215828 0.23329826 0.15402574
v 0.26725087 0.23350491 0.11969817
v 0.23313724 -0.23168476 0.11969817
v 0.23313724 0.23350491 0.11969817
v 0.26725087 -0.23168476 0.11969817
v 0.23313724 0.23350491 0.15381236
v 0.26725087 -0.23168476 0.15381236
v 0.23313724 -0.23168476 0.15381236
v 0.26725087 0.23350491 0.15381236
f 1 2 3
f 2 1 4
f 3 2 1
f 4 1 2
f 2 5 3
f 3 5 2
f 5 1 3
f 3 1 5
f 1 6 4
f 4 6 1
f 6 2 4
f 4 2 6
f 5 2 7
f 7 2 5
f 1 5 8
f 8 5 1
f 6 1 8
f 8 1 6
f 2 6 7
f 7 6 2
f 6 5 7
f 7 5 6
f 5 6 8
f 8 6 5
f 9 10 11
f 10 9 12
f 10 13 11
f 13 9 11
f 9 14 12
f 14 10 12
f 13 10 15
f 9 13 16
f 14 9 16
f 10 14 15
f 14 13 15
f 13 14 16
f 11 10 9
f 12 9 10
f 11 13 10
f 11 9 13
f 12 14 9
f 12 10 14
f 15 10 13
f 16 13 9
f 16 9 14
f 15 14 10
f 15 13 14
f 16 14 13
f 17 18 19
f 18 17 20
f 18 21 19
f 21 17 19
f 17 22 20
f 22 18 20
f 21 18 23
f 17 21 24
f 22 17 24
f 18 22 23
f 22 21 23
f 21 22 24
f 19 18 17
f 20 17 18
f 19 21 18
f 19 17 21
f 20 22 17
f 20 18 22
f 23 18 21
f 24 21 17
f 24 17 22
f 23 22 18
f 23 21 22
f 24 22 21
f 25 26 27
f 26 25 28
f 26 29 27
f 29 25 27
f 25 30 28
f 30 26 28
f 29 26 31
f 25 29 32
f 30 25 32
f 26 30 31
f 30 29 31
f 29 30 32
f 27 26 25
f 28 25 26
f 27 29 26
f 27 25 29
f 28 30 25
f 28 26 30
f 31 26 29
f 32 29 25
f 32 25 30
f 31 30 26
f 31 29 30
f 32 30 29
f 33 34 35
f 34 33 36
f 34 37 35
f 37 33 35
f 33 38 36
f 38 34 36
f 37 34 39
f 33 37 40
f 38 33 40
f 34 38 39
f 38 37 39
f 37 38 40
f 35 34 33
f 36 33 34
f 35 37 34
f 35 33 37
f 36 38 33
f 36 34 38
f 39 34 37
f 40 37 33
f 40 33 38
f 39 38 34
f 39 37 38
f 40 38 37
f 41 42 43
f 42 41 44
f 42 45 43
f 45 41 43
f 41 46 44
f 46 42 44
f 45 42 47
f 41 45 48
f 46 41 48
f 42 46 47
f 46 45 47
f 45 46 48
f 43 42 41
f 44 41 42
f 43 45 42
f 43 41 45
f 44 46 41
f 44 42 46
f 47 42 45
f 48 45 41
f 48 41 46
f 47 46 42
f 47 45 46
f 48 46 45
f 49 50 51
f 50 49 52
f 50 53 51
f 53 49 51
f 49 54 52
f 54 50 52
f 53 50 55
f 49 53 56
f 54 49 56
f 50 54 55
f 54 53 55
f 53 54 56
f 51 50 49
f 52 49 50
f 51 53 50
f 51 49 53
f 52 54 49
f 52 50 54
f 55 50 53
f 56 53 49
f 56 49 54
f 55 54 50
f 55 53 54
f 56 54 53
f 57 58 59
f 58 57 60
f 59 58 57
f 60 57 58
f 58 61 59
f 59 61 58
f 61 57 59
f 59 57 61
f 57 62 60
f 60 62 57
f 62 58 60
f 60 58 62
f 61 58 63
f 63 58 61
f 57 61 64
f 64 61 57
f 62 57 64
f 64 57 62
f 58 62 63
f 63 62 58
f 62 61 63
f 63 61 62
f 61 62 64
f 64 62 61
f 65 66 67
f 66 65 68
f 67 66 65
f 68 65 66
f 66 69 67
f 67 69 66
f 69 65 67
f 67 65 69
f 65 70 68
f 68 70 65
f 70 66 68
f 68 66 70
f 69 66 71
f 71 66 69
f 65 69 72
f 72 69 65
f 70 65 72
f 72 65 70
f 66 70 71
f 71 70 66
f 70 69 71
f 71 69 70
f 69 70 72
f 72 70 69
f 73 74 75
f 74 73 76
f 74 77 75
f 77 73 75
f 73 78 76
f 76 79 74
f 77 74 79
f 73 77 80
f 78 73 80
f 79 76 78
f 75 74 73
f 76 73 74
f 75 77 74
f 75 73 77
f 76 78 73
f 74 79 76
f 79 74 77
f 80 77 73
f 80 73 78
f 78 76 79
f 81 82 83
f 82 81 84
f 82 85 83
f 85 81 83
f 81 86 84
f 84 87 82
f 85 82 87
f 81 85 88
f 86 81 88
f 87 84 86
f 83 82 81
f 84 81 82
f 83 85 82
f 83 81 85
f 84 86 81
f 82 87 84
f 87 82 85
f 88 85 81
f 88 81 86
f 86 84 87
f 89 90 91
f 90 89 92
f 90 93 91
f 93 89 91
f 89 94 92
f 92 95 90
f 93 90 95
f 89 93 96
f 94 89 96
f 95 92 94
f 91 90 89
f 92 89 90
f 91 93 90
f 91 89 93
f 92 94 89
f 90 95 92
f 95 90 93
f 96 93 89
f 96 89 94
f 94 92 95
f 97 98 99
f 98 97 100
f 98 101 99
f 101 97 99
f 97 102 100
f 100 103 98
f 101 98 103
f 97 101 104
f 102 97 104
f 103 100 102
f 99 98 97
f 100 97 98
f 99 101 98
f 99 97 101
f 100 102 97
f 98 103 100
f 103 98 101
f 104 101 97
f 104 97 102
f 102 100 103
f 105 106 107
f 106 105 108
f 106 109 107
f 109 105 107
f 105 110 108
f 110 106 108
f 109 106 111
f 105 109 112
f 110 105 112
f 106 110 111
f 110 109 111
f 109 110 112
f 107 106 105
f 108 105 106
f 107 109 106
f 107 105 109
f 108 110 105
f 108 106 110
f 111 106 109
f 112 109 105
f 112 105 110
f 111 110 106
f 111 109 110
f 112 110 109
f 113 114 115
f 114 113 116
f 114 117 115
f 117 113 115
f 113 118 116
f 118 114 116
f 117 114 119
f 113 117 120
f 118 113 120
f 114 118 119
f 118 117 119
f 117 118 120
f 115 114 113
f 116 113 114
f 115 117 114
f 115 113 117
f 116 118 113
f 116 114 118
f 119 114 117
f 120 117 113
f 120 113 118
f 119 118 114
f 119 117 118
f 120 118 117
f 121 122 123
f 122 121 124
f 122 58 123
f 58 121 123
f 121 125 124
f 125 122 124
f 58 122 60
f 121 58 126
f 125 121 126
f 122 125 60
f 125 58 60
f 58 125 126
f 123 122 121
f 124 121 122
f 123 58 122
f 123 121 58
f 124 125 121
f 124 122 125
f 60 122 58
f 126 58 121
f 126 121 125
f 60 125 122
f 60 58 125
f 126 125 58
f 127 128 129
f 128 127 130
f 128 131 129
f 131 127 129
f 127 132 130
f 132 128 130
f 131 128 133
f 127 131 134
f 132 127 134
f 128 132 133
f 132 131 133
f 131 132 134
f 129 128 127
f 130 127 128
f 129 131 128
f 129 127 131
f 130 132 127
f 130 128 132
f 133 128 131
f 134 131 127
f 134 127 132
f 133 132 128
f 133 131 132
f 134 132 131
f 135 136 137
f 136 135 138
f 136 139 137
f 139 135 137
f 135 140 138
f 140 136 138
f 139 136 141
f 135 139 142
f 140 135 142
f 136 140 141
f 140 139 141
f 139 140 142
f 137 136 135
f 138 135 136
f 137 139 136
f 137 135 139
f 138 140 135
f 138 136 140
f 141 136 139
f 142 139 135
f 142 135 140
f 141 140 136
f 141 139 140
f 142 140 139
f 143 144 145
f 144 143 146
f 144 147 145
f 147 143 145
f 143 148 146
f 148 144 146
f 147 144 149
f 143 147 150
f 148 143 150
f 144 148 149
f 148 147 149
f 147 148 150
f 145 144 143
f 146 143 144
f 145 147 144
f 145 143 147
f 146 148 143
f 146 144 148
f 149 144 147
f 150 147 143
f 150 143 148
f 149 148 144
f 149 147 148
f 150 148 147
f 151 152 153
f 152 151 154
f 152 155 153
f 155 151 153
f 151 156 154
f 156 152 154
f 155 152 157
f 151 155 158
f 156 151 158
f 152 156 157
f 156 155 157
f 155 156 158
f 153 152 151
f 154 151 152
f 153 155 152
f 153 151 155
f 154 156 151
f 154 152 156
f 157 152 155
f 158 155 151
f 158 151 156
f 157 156 152
f 157 155 156
f 158 156 155
f 159 160 161
f 160 159 162
f 160 163 161
f 163 159 161
f 159 164 162
f 164 160 162
f 163 160 165
f 159 163 166
f 164 159 166
f 160 164 165
f 164 163 165
f 163 164 166
f 161 160 159
f 162 159 160
f 161 163 160
f 161 159 163
f 162 164 159
f 162 160 164
f 165 160 163
f 166 163 159
f 166 159 164
f 165 164 160
f 165 163 164
f 166 164 163
f 167 168 169
f 168 167 170
f 168 171 169
f 171 167 169
f 167 172 170
f 172 168 170
f 171 168 173
f 167 171 174
f 172 167 174
f 168 172 173
f 172 171 173
f 171 172 174
f 169 168 167
f 170 167 168
f 169 171 168
f 169 167 171
f 170 172 167
f 170 168 172
f 173 168 171
f 174 171 167
f 174 167 172
f 173 172 168
f 173 171 172
f 174 172 171
f 175 176 177
f 176 175 178
f 176 179 177
f 179 175 177
f 175 180 178
f 180 176 178
f 179 176 181
f 175 179 182
f 180 175 182
f 176 180 181
f 180 179 181
f 179 180 182
f 177 176 175
f 178 175 176
f 177 179 176
f 177 175 179
f 178 180 175
f 178 176 180
f 181 176 179
f 182 179 175
f 182 175 180
f 181 180 176
f 181 179 180
f 182 180 179

