# https://github.com/mikedh/trimesh

o 0.obj
v 0.06890617 -0.00000009 0.01859392
v 0.06655831 -0.01783436 -0.01673764
v 0.06890617 -0.00000009 -0.01673764
v 0.06655831 -0.01783436 0.01859392
v 0.05967453 -0.03445317 -0.01673764
v 0.05967453 -0.03445317 0.01859392
v 0.06655831 0.01783418 0.01859392
v 0.06655831 0.01783418 -0.01673764
v 0.00058697 -0.00445852 0.02734382
v 0.04872404 -0.04872413 -0.01673764
v 0.04872404 -0.04872413 0.01317219
v 0.05967453 0.03445317 0.01859392
v 0.05967453 0.03445317 -0.01673764
v 0.03445308 -0.05967462 -0.01673764
v 0.03445308 -0.05967462 0.00878981
v 0.04872404 0.04872395 0.01859392
v 0.04872404 0.04872395 -0.01673764
v 0.01783427 -0.06655822 -0.01673764
v 0.01783427 -0.06655822 0.00442783
v 0.03445308 0.05967444 -0.01673764
v 0.03445308 0.05967444 0.01859392
v -0.00000000 -0.06890626 0.00878981
v -0.00000000 -0.06890626 -0.01673764
v 0.01783427 0.06655822 -0.01673764
v 0.01783427 0.06655822 0.01859392
v -0.01783427 -0.06655822 0.00878981
v -0.01783427 -0.06655822 -0.01673764
v -0.00000000 0.06890626 -0.01673764
v -0.00000000 0.06890626 0.01169475
v -0.03445308 -0.05967462 -0.01673764
v -0.03445308 -0.05967462 0.01317219
v -0.01783427 0.06655822 0.01169475
v -0.01783427 0.06655822 -0.01673764
v -0.04872404 -0.04872413 0.01859392
v -0.04872404 -0.04872413 -0.01673764
v -0.02582272 0.06324938 0.01352615
v -0.03445308 0.05967444 -0.01673764
v -0.03445308 0.05967444 0.01859392
v -0.05967453 -0.03445317 -0.01673764
v -0.05967453 -0.03445317 0.01859392
v -0.03803626 0.05692500 0.01859392
v -0.04872404 0.04872395 -0.01673764
v -0.04872404 0.04872395 0.01859392
v -0.06655831 -0.01783436 -0.01673764
v -0.06655831 -0.01783436 0.01859392
v -0.05967453 0.03445317 0.01859392
v -0.05967453 0.03445317 -0.01673764
v -0.06890635 -0.00000009 -0.01673764
v -0.06890635 -0.00000009 0.01859392
v -0.06773224 -0.00891713 0.01859392
v -0.06655831 0.01783418 0.01859392
v -0.06655831 0.01783418 -0.01673764
f 1 2 3
f 2 1 4
f 4 1 2
f 3 2 1
f 4 5 2
f 5 4 6
f 6 4 5
f 2 5 4
f 7 3 8
f 3 7 1
f 1 7 3
f 8 3 7
f 1 4 9
f 9 4 1
f 6 10 5
f 10 6 11
f 11 6 10
f 5 10 6
f 9 4 6
f 6 4 9
f 12 8 13
f 8 12 7
f 7 12 8
f 13 8 12
f 7 9 1
f 1 9 7
f 9 11 6
f 6 11 9
f 11 14 10
f 14 11 15
f 15 11 14
f 10 14 11
f 16 13 17
f 13 16 12
f 12 16 13
f 17 13 16
f 12 9 7
f 7 9 12
f 9 15 11
f 11 15 9
f 15 18 14
f 18 15 19
f 19 15 18
f 14 18 15
f 20 16 17
f 16 20 21
f 21 20 16
f 17 16 20
f 16 9 12
f 12 9 16
f 9 19 15
f 15 19 9
f 22 18 19
f 18 22 23
f 23 22 18
f 19 18 22
f 24 21 20
f 21 24 25
f 25 24 21
f 20 21 24
f 21 9 16
f 16 9 21
f 9 22 19
f 19 22 9
f 26 23 22
f 23 26 27
f 27 26 23
f 22 23 26
f 28 25 24
f 25 28 29
f 29 28 25
f 24 25 28
f 25 21 9
f 9 21 25
f 9 26 22
f 22 26 9
f 26 30 27
f 30 26 31
f 31 26 30
f 27 30 26
f 28 32 29
f 32 28 33
f 33 28 32
f 29 32 28
f 29 9 25
f 25 9 29
f 9 31 26
f 26 31 9
f 34 30 31
f 30 34 35
f 35 34 30
f 31 30 34
f 33 36 32
f 36 33 37
f 36 37 38
f 38 37 36
f 37 33 36
f 32 36 33
f 29 32 9
f 9 32 29
f 9 34 31
f 31 34 9
f 34 39 35
f 39 34 40
f 40 34 39
f 35 39 34
f 37 41 38
f 41 37 42
f 41 42 43
f 43 42 41
f 42 37 41
f 38 41 37
f 36 38 9
f 9 38 36
f 32 36 9
f 9 36 32
f 9 34 40
f 40 34 9
f 40 44 39
f 44 40 45
f 45 40 44
f 39 44 40
f 46 42 47
f 42 46 43
f 43 46 42
f 47 42 46
f 41 9 43
f 43 9 41
f 38 9 41
f 41 9 38
f 9 40 45
f 45 40 9
f 45 48 44
f 48 45 49
f 49 45 50
f 50 45 49
f 49 45 48
f 44 48 45
f 51 47 52
f 47 51 46
f 46 51 47
f 52 47 51
f 43 9 46
f 46 9 43
f 9 45 50
f 50 45 9
f 49 52 48
f 52 49 51
f 51 49 52
f 48 52 49
f 49 9 50
f 50 9 49
f 46 9 51
f 51 9 46
f 51 9 49
f 49 9 51

