# https://github.com/mikedh/trimesh

o 1.obj
v 0.06655831 -0.01783436 -0.01673764
v 0.05967453 -0.03445317 -0.02734382
v 0.06655831 -0.01783436 -0.02734382
v 0.05967453 -0.03445317 -0.01673764
v 0.06890617 -0.00000009 -0.01673764
v 0.06890617 -0.00000009 -0.02734382
v 0.04872404 -0.04872413 -0.02734382
v 0.04872404 -0.04872413 -0.01673764
v 0.06655831 0.01783418 -0.01673764
v 0.06655831 0.01783418 -0.02734382
v 0.03445308 -0.05967462 -0.01673764
v 0.04158865 -0.05419937 -0.02734382
v 0.03445308 -0.05967462 -0.02734382
v 0.05967453 0.03445317 -0.01673764
v 0.05967453 0.03445317 -0.02734382
v 0.01783427 -0.06655822 -0.01673764
v 0.01783427 -0.06655822 -0.02734382
v 0.04872404 0.04872395 -0.01673764
v 0.04872404 0.04872395 -0.02734382
v -0.00000000 -0.06890626 -0.02734382
v -0.00000000 -0.06890626 -0.01673764
v 0.03445308 0.05967444 -0.01673764
v 0.03445308 0.05967444 -0.02734382
v -0.00891722 -0.06773233 -0.02734382
v -0.01783427 -0.06655822 -0.01673764
v -0.01783427 -0.06655822 -0.02734382
v 0.01783427 0.06655822 -0.01673764
v 0.01783427 0.06655822 -0.02734382
v -0.03445308 -0.05967462 -0.01673764
v -0.03445308 -0.05967462 -0.02734382
v -0.00000000 0.06890626 -0.01673764
v -0.00000000 0.06890626 -0.02734382
v -0.04872404 -0.04872413 -0.02734382
v -0.04872404 -0.04872413 -0.01673764
v -0.01783427 0.06655822 -0.02734382
v -0.01783427 0.06655822 -0.01673764
v -0.05967453 -0.03445317 -0.02734382
v -0.05967453 -0.03445317 -0.01673764
v -0.03445308 0.05967444 -0.02734382
v -0.03445308 0.05967444 -0.01673764
v -0.06655831 -0.01783436 -0.02734382
v -0.06655831 -0.01783436 -0.01673764
v -0.04872404 0.04872395 -0.02734382
v -0.04872404 0.04872395 -0.01673764
v -0.06890635 -0.00000009 -0.02734382
v -0.06890635 -0.00000009 -0.01673764
v -0.05967453 0.03445317 -0.01673764
v -0.05967453 0.03445317 -0.02734382
v -0.06655831 0.01783418 -0.02734382
v -0.06655831 0.01783418 -0.01673764
f 4 1 2
f 3 2 1
f 1 5 3
f 6 3 5
f 8 4 7
f 2 7 4
f 5 9 6
f 10 6 9
f 13 11 12
f 12 11 7
f 8 7 11
f 9 14 10
f 15 10 14
f 17 16 13
f 11 13 16
f 14 18 15
f 19 15 18
f 21 16 20
f 17 20 16
f 23 19 22
f 18 22 19
f 26 25 24
f 25 21 24
f 20 24 21
f 28 23 27
f 22 27 23
f 30 29 26
f 25 26 29
f 32 28 31
f 27 31 28
f 34 29 33
f 30 33 29
f 36 35 31
f 32 31 35
f 38 34 37
f 33 37 34
f 40 39 36
f 35 36 39
f 42 38 41
f 37 41 38
f 44 43 40
f 39 40 43
f 46 42 45
f 41 45 42
f 44 47 43
f 48 43 47
f 50 46 49
f 45 49 46
f 47 50 48
f 49 48 50
f 1 2 3
f 2 1 4
f 5 3 6
f 3 5 1
f 4 7 2
f 7 4 8
f 9 6 10
f 6 9 5
f 11 7 8
f 7 11 12
f 12 11 13
f 14 10 15
f 10 14 9
f 16 13 11
f 13 16 17
f 18 15 19
f 15 18 14
f 16 20 17
f 20 16 21
f 19 22 18
f 22 19 23
f 21 24 20
f 24 21 25
f 24 25 26
f 23 27 22
f 27 23 28
f 29 26 25
f 26 29 30
f 28 31 27
f 31 28 32
f 29 33 30
f 33 29 34
f 35 31 32
f 31 35 36
f 34 37 33
f 37 34 38
f 39 36 35
f 36 39 40
f 38 41 37
f 41 38 42
f 43 40 39
f 40 43 44
f 42 45 41
f 45 42 46
f 47 43 48
f 43 47 44
f 46 49 45
f 49 46 50
f 50 48 49
f 48 50 47

