# https://github.com/mikedh/trimesh

o 3.obj
v -0.14437723 0.10701108 -0.10477882
v -0.13669085 0.10677631 -0.10433990
v -0.14441289 0.09958840 -0.10477882
v -0.14441429 0.09191943 -0.10477882
v -0.13672764 0.09958081 -0.10431659
v -0.13673101 0.09191241 -0.10431659
v -0.13026088 0.10676845 -0.10431575
v -0.12259584 0.10676929 -0.10431575
v -0.13026200 0.09957211 -0.10431547
v -0.13026256 0.09190932 -0.10431547
v -0.12259388 0.09957267 -0.10436237
v -0.12259304 0.09191073 -0.10431575
v -0.14441457 0.08425440 -0.10477882
v -0.14441457 0.07659021 -0.10477882
v -0.13673101 0.08424794 -0.10431659
v -0.13673129 0.07658319 -0.10431659
v -0.14441457 0.06892546 -0.10477882
v -0.14441486 0.06126071 -0.10477882
v -0.13673157 0.06891872 -0.10431659
v -0.13673157 0.06125397 -0.10431659
v -0.13026228 0.08424457 -0.10426885
v -0.13026368 0.07657842 -0.10431547
v -0.12259247 0.08424542 -0.10431575
v -0.12259304 0.07657926 -0.10436237
v -0.13026284 0.06891563 -0.10431547
v -0.13026284 0.06125088 -0.10426885
v -0.12259304 0.06891704 -0.10431575
v -0.12259247 0.06125173 -0.10431575
v -0.14441486 0.05359624 -0.10477882
v -0.14441486 0.04593177 -0.10477882
v -0.13673157 0.05358950 -0.10431659
v -0.13673157 0.04592475 -0.10431659
v -0.14441486 0.03826702 -0.10477882
v -0.14441486 0.03060256 -0.10477882
v -0.13673157 0.03826028 -0.10431659
v -0.13673157 0.03059553 -0.10431659
v -0.13026396 0.05358473 -0.10431547
v -0.13026284 0.04592167 -0.10431547
v -0.12259304 0.05358557 -0.10431575
v -0.12259388 0.04592167 -0.10426885
v -0.13026284 0.03825692 -0.10426885
v -0.13026396 0.03059076 -0.10431547
v -0.12259304 0.03825635 -0.10431575
v -0.12259304 0.03059160 -0.10431575
v -0.14441486 0.02293781 -0.10477882
v -0.14441514 0.01527306 -0.10477882
v -0.13673157 0.02293107 -0.10431659
v -0.13673157 0.01526632 -0.10431659
v -0.14441514 0.00760859 -0.10477882
v -0.14441682 -0.00005616 -0.10477911
v -0.13673185 0.00760185 -0.10431659
v -0.13673185 -0.00005982 -0.10431659
v -0.13026284 0.02292798 -0.10436237
v -0.13026228 0.01526491 -0.10431547
v -0.12259556 0.02292713 -0.10431575
v -0.12259472 0.01526407 -0.10431547
v -0.13026312 0.00759876 -0.10426885
v -0.13026396 -0.00006459 -0.10426857
v -0.12259247 0.00759932 -0.10431575
v -0.12259163 -0.00006290 -0.10426885
v -0.11493138 0.10676929 -0.10431575
v -0.10726663 0.10676929 -0.10431575
v -0.11493081 0.09957183 -0.10431575
v -0.11492997 0.09190989 -0.10431547
v -0.10726466 0.09957267 -0.10426885
v -0.10726550 0.09190764 -0.10431575
v -0.09960216 0.10676929 -0.10436265
v -0.09193909 0.10676845 -0.10436237
v -0.09959766 0.09957492 -0.10436237
v -0.09959851 0.09190989 -0.10431575
v -0.09193712 0.09957407 -0.10436237
v -0.09193544 0.09191157 -0.10436237
v -0.11492941 0.08424457 -0.10436237
v -0.11492997 0.07658095 -0.10431547
v -0.10726634 0.08424373 -0.10431575
v -0.10726550 0.07658095 -0.10426885
v -0.11492997 0.06891620 -0.10431547
v -0.11492941 0.06125088 -0.10436237
v -0.10726550 0.06891395 -0.10431575
v -0.10726634 0.06125004 -0.10431575
v -0.09960019 0.08424457 -0.10426885
v -0.09959935 0.07657926 -0.10431575
v -0.09193319 0.08424710 -0.10431575
v -0.09193460 0.07657926 -0.10436237
v -0.09959935 0.06891479 -0.10431575
v -0.09960019 0.06125088 -0.10426885
v -0.09193460 0.06891704 -0.10431575
v -0.09193404 0.06125173 -0.10431575
v -0.08427434 0.10676845 -0.10431575
v -0.07660819 0.10676929 -0.10431575
v -0.08427322 0.09957267 -0.10436237
v -0.08427237 0.09191073 -0.10436237
v -0.07660791 0.09957183 -0.10426885
v -0.07660931 0.09190764 -0.10431547
v -0.06894372 0.10676929 -0.10431575
v -0.06127925 0.10676929 -0.10431575
v -0.06894007 0.09957351 -0.10426885
v -0.06894175 0.09190680 -0.10426885
v -0.06127560 0.09957351 -0.10426885
v -0.06127560 0.09190764 -0.10426885
v -0.08427097 0.08424710 -0.10436237
v -0.08427181 0.07658095 -0.10431547
v -0.07660875 0.08424457 -0.10431547
v -0.07660706 0.07658095 -0.10426885
v -0.08427181 0.06891620 -0.10431547
v -0.08427097 0.06125088 -0.10436237
v -0.07660706 0.06891395 -0.10431575
v -0.07660791 0.06125004 -0.10431575
v -0.06894259 0.08424317 -0.10426885
v -0.06894091 0.07657926 -0.10431575
v -0.06127560 0.08424317 -0.10426885
v -0.06127700 0.07657758 -0.10431575
v -0.06894091 0.06891479 -0.10431575
v -0.06894175 0.06125088 -0.10426885
v -0.06127700 0.06891535 -0.10426885
v -0.06127644 0.06125004 -0.10431575
v -0.11492857 0.05358782 -0.10426885
v -0.11492857 0.04592082 -0.10431575
v -0.10726382 0.05358782 -0.10426885
v -0.10726466 0.04591942 -0.10426885
v -0.11492857 0.03825635 -0.10431575
v -0.11492941 0.03059245 -0.10426885
v -0.10726550 0.03825551 -0.10426885
v -0.10726382 0.03059160 -0.10426885
v -0.09959935 0.05358557 -0.10426885
v -0.09959851 0.04591998 -0.10426885
v -0.09193600 0.05358922 -0.10426885
v -0.09194555 0.04592307 -0.10426885
v -0.09959851 0.03825551 -0.10426885
v -0.09959851 0.03059104 -0.10431575
v -0.09195117 0.03825551 -0.10426885
v -0.09195285 0.03059020 -0.10431575
v -0.11492997 0.02292629 -0.10431575
v -0.11492941 0.01526323 -0.10436237
v -0.10726466 0.02292545 -0.10426885
v -0.10726691 0.01526098 -0.10426885
v -0.11492857 0.00760016 -0.10431575
v -0.11492772 -0.00006234 -0.10426885
v -0.10726634 0.00759791 -0.10426885
v -0.10726382 -0.00006375 -0.10426885
v -0.09959766 0.02292798 -0.10431575
v -0.09959766 0.01526323 -0.10426885
v -0.09195004 0.02292489 -0.10426913
v -0.09194049 0.01525958 -0.10431575
v -0.09959851 0.00759707 -0.10426885
v -0.09959851 -0.00006459 -0.10426885
v -0.09193319 0.00759876 -0.10426885
v -0.09193404 -0.00006459 -0.10426885
v -0.08427153 0.05360018 -0.10426885
v -0.08428613 0.04593683 -0.10420988
v -0.07660566 0.05360523 -0.10426885
v -0.07661801 0.04595059 -0.10415063
v -0.08429990 0.03826871 -0.10415063
v -0.08431029 0.03059469 -0.10415091
v -0.07663178 0.03828247 -0.10409165
v -0.07664582 0.03060593 -0.10403240
v -0.06894091 0.05360298 -0.10426885
v -0.06894484 0.04595930 -0.10415091
v -0.06127195 0.05360074 -0.10426885
v -0.06127728 0.04595649 -0.10415091
v -0.06895523 0.03829651 -0.10403240
v -0.06896983 0.03062081 -0.10396079
v -0.06128458 0.03829932 -0.10403240
v -0.06129666 0.03062081 -0.10396079
v -0.08430663 0.02292882 -0.10419780
v -0.08429063 0.01526295 -0.10425678
v -0.07665031 0.02293472 -0.10403268
v -0.07663571 0.01525845 -0.10415091
v -0.08427603 0.00759454 -0.10426885
v -0.08426929 -0.00006459 -0.10426885
v -0.07662223 0.00759426 -0.10425678
v -0.07660482 -0.00006487 -0.10431575
v -0.06896983 0.02294735 -0.10396079
v -0.06896366 0.01527081 -0.10403268
v -0.06129497 0.02294595 -0.10391389
v -0.06128908 0.01526940 -0.10407902
v -0.06895579 0.00759595 -0.10419752
v -0.06894259 -0.00006796 -0.10426885
v -0.06127897 0.00760072 -0.10415091
v -0.06127644 -0.00006964 -0.10431575
v -0.05361450 0.10676929 -0.10431575
v -0.04595003 0.10676929 -0.10431575
v -0.05361085 0.09957351 -0.10426885
v -0.05361085 0.09190764 -0.10426885
v -0.04594638 0.09957351 -0.10426885
v -0.04594638 0.09190764 -0.10426885
v -0.03828528 0.10676929 -0.10431575
v -0.03062081 0.10676929 -0.10431575
v -0.03828163 0.09957351 -0.10426885
v -0.03828163 0.09190764 -0.10426885
v -0.03061716 0.09957351 -0.10426885
v -0.03061716 0.09190764 -0.10426885
v -0.05361085 0.08424317 -0.10426885
v -0.05361253 0.07657758 -0.10426885
v -0.04594638 0.08424317 -0.10426885
v -0.04594638 0.07657842 -0.10426885
v -0.05361169 0.06891479 -0.10431575
v -0.05361169 0.06125004 -0.10431575
v -0.04594778 0.06891311 -0.10426885
v -0.04594862 0.06124920 -0.10426885
v -0.03828163 0.08424317 -0.10426885
v -0.03828163 0.07657842 -0.10426885
v -0.03061716 0.08424317 -0.10426885
v -0.03061716 0.07657842 -0.10426885
v -0.03828163 0.06891395 -0.10426885
v -0.03828163 0.06124920 -0.10426885
v -0.03061716 0.06891395 -0.10426885
v -0.03061716 0.06124920 -0.10426885
v -0.02295606 0.10676929 -0.10431575
v -0.01529159 0.10676929 -0.10431575
v -0.02295269 0.09957351 -0.10426885
v -0.02295269 0.09190764 -0.10426885
v -0.01528794 0.09957351 -0.10426885
v -0.01528794 0.09190764 -0.10426885
v -0.00762684 0.10676929 -0.10436265
v 0.00003623 0.10676845 -0.10440926
v -0.00762263 0.09957492 -0.10436237
v -0.00762178 0.09191073 -0.10431575
v 0.00003903 0.09957576 -0.10436237
v 0.00003960 0.09191157 -0.10431547
v -0.02295269 0.08424317 -0.10431575
v -0.02295185 0.07658010 -0.10431575
v -0.01528962 0.08424233 -0.10431575
v -0.01528962 0.07658010 -0.10426885
v -0.02295185 0.06891535 -0.10426885
v -0.02295269 0.06124920 -0.10426885
v -0.01528878 0.06891479 -0.10431575
v -0.01528710 0.06125088 -0.10426885
v -0.00762403 0.08424373 -0.10426885
v -0.00762403 0.07657926 -0.10431575
v 0.00004128 0.08424542 -0.10431575
v 0.00004044 0.07657926 -0.10426885
v -0.00762403 0.06891479 -0.10431575
v -0.00762347 0.06125173 -0.10426885
v 0.00003903 0.06891395 -0.10426885
v 0.00004044 0.06125004 -0.10426885
v -0.05360804 0.05359287 -0.10426885
v -0.05361141 0.04594076 -0.10420988
v -0.04594722 0.05358557 -0.10426885
v -0.04594160 0.04592672 -0.10426913
v -0.05360776 0.03828415 -0.10415091
v -0.05362011 0.03061463 -0.10403268
v -0.04594273 0.03827208 -0.10421016
v -0.04594610 0.03060508 -0.10415091
v -0.03828444 0.05358754 -0.10426885
v -0.03829258 0.04592279 -0.10426885
v -0.03061997 0.05359540 -0.10426885
v -0.03063345 0.04593627 -0.10422055
v -0.03829623 0.03825635 -0.10431575
v -0.03829258 0.03059329 -0.10431575
v -0.03064693 0.03826899 -0.10421887
v -0.03065423 0.03059778 -0.10417225
v -0.05361871 0.02294005 -0.10407902
v -0.05361843 0.01526912 -0.10413855
v -0.04595087 0.02292798 -0.10415091
v -0.04595564 0.01526519 -0.10415091
v -0.05361450 0.00760634 -0.10415091
v -0.05361253 -0.00007105 -0.10426913
v -0.04594862 0.00759932 -0.10420988
v -0.04594525 -0.00006852 -0.10426913
v -0.03828865 0.02292517 -0.10426913
v -0.03828135 0.01525901 -0.10426913
v -0.03065226 0.02292882 -0.10421915
v -0.03063597 0.01526435 -0.10422055
v -0.03827798 0.00759623 -0.10426913
v -0.03828078 -0.00006543 -0.10426885
v -0.03062334 0.00759286 -0.10426885
v -0.03061716 -0.00006459 -0.10426885
v -0.02295269 0.05360102 -0.10426885
v -0.02296589 0.04594975 -0.10417225
v -0.01528513 0.05359821 -0.10426885
v -0.01529047 0.04595536 -0.10417225
v -0.02297965 0.03828247 -0.10412367
v -0.02299313 0.03060677 -0.10412198
v -0.01530395 0.03829595 -0.10407537
v -0.01531742 0.03062025 -0.10397848
v -0.00762066 0.05359007 -0.10426885
v -0.00762431 0.04593992 -0.10426745
v 0.00004128 0.05358473 -0.10426885
v 0.00004409 0.04592560 -0.10436265
v -0.00762122 0.03828500 -0.10421915
v -0.00762852 0.03061940 -0.10407537
v 0.00004297 0.03827489 -0.10431435
v 0.00004072 0.03060901 -0.10426576
v -0.02299509 0.02293837 -0.10412198
v -0.02297965 0.01526182 -0.10417225
v -0.01532023 0.02294230 -0.10397820
v -0.01531490 0.01526744 -0.10407537
v -0.02296870 0.00759454 -0.10422083
v -0.02295325 -0.00006627 -0.10426885
v -0.01530226 0.00759848 -0.10417225
v -0.01528878 -0.00006852 -0.10426885
v -0.00762909 0.02293696 -0.10407509
v -0.00762824 0.01526632 -0.10412367
v 0.00004240 0.02293472 -0.10417197
v 0.00003903 0.01526632 -0.10417197
v -0.00762796 0.00759932 -0.10417197
v -0.00762347 -0.00006936 -0.10426913
v 0.00004100 0.00759735 -0.10426745
v 0.00004268 -0.00006627 -0.10431575
v 0.00769901 0.10676760 -0.10436237
v 0.01536545 0.10676845 -0.10431575
v 0.00770182 0.09957492 -0.10431547
v 0.00770350 0.09190989 -0.10440926
v 0.01536797 0.09957351 -0.10431547
v 0.01536573 0.09190764 -0.10431547
v 0.02303160 0.10676929 -0.10436265
v 0.03069438 0.10676845 -0.10436237
v 0.02303413 0.09957407 -0.10431575
v 0.02303357 0.09190932 -0.10426885
v 0.03069803 0.09957492 -0.10426885
v 0.03069888 0.09190848 -0.10431575
v 0.00770575 0.08424766 -0.10431547
v 0.00770575 0.07658095 -0.10426885
v 0.01536741 0.08424626 -0.10426885
v 0.01536966 0.07657926 -0.10426885
v 0.00770575 0.06891395 -0.10426885
v 0.00770575 0.06124920 -0.10431575
v 0.01537050 0.06891395 -0.10426885
v 0.01536882 0.06124864 -0.10436237
v 0.02303413 0.08424373 -0.10426885
v 0.02303497 0.07657842 -0.10426885
v 0.03070028 0.08424457 -0.10431575
v 0.03070028 0.07658010 -0.10431575
v 0.02303497 0.06891395 -0.10426885
v 0.02303188 0.06124780 -0.10431575
v 0.03070028 0.06891535 -0.10426885
v 0.03069803 0.06124864 -0.10426885
v 0.03835913 0.10676845 -0.10431575
v 0.04602529 0.10676929 -0.10431575
v 0.03836335 0.09957407 -0.10431575
v 0.03836335 0.09190848 -0.10431575
v 0.04602725 0.09957267 -0.10426885
v 0.04602641 0.09190764 -0.10426885
v 0.05368976 0.10676929 -0.10431575
v 0.06135451 0.10676929 -0.10431575
v 0.05369341 0.09957351 -0.10426885
v 0.05369341 0.09190764 -0.10426885
v 0.06135788 0.09957351 -0.10426885
v 0.06135788 0.09190764 -0.10426885
v 0.03836278 0.08424457 -0.10431575
v 0.03836278 0.07658010 -0.10426885
v 0.04602641 0.08424317 -0.10426885
v 0.04602810 0.07657926 -0.10431575
v 0.03836335 0.06891479 -0.10431575
v 0.03836503 0.06125088 -0.10426885
v 0.04602810 0.06891479 -0.10431575
v 0.04602894 0.06125173 -0.10426885
v 0.05369341 0.08424317 -0.10426885
v 0.05369172 0.07657758 -0.10426885
v 0.06135788 0.08424317 -0.10426885
v 0.06135788 0.07657842 -0.10426885
v 0.05369116 0.06891395 -0.10426885
v 0.05369257 0.06125004 -0.10426885
v 0.06135788 0.06891395 -0.10426885
v 0.06135788 0.06124920 -0.10426885
v 0.00770659 0.05358613 -0.10431575
v 0.00770350 0.04591998 -0.10431575
v 0.01536966 0.05358782 -0.10431575
v 0.01536882 0.04592167 -0.10431575
v 0.00770350 0.03825776 -0.10436237
v 0.00770659 0.03059469 -0.10436265
v 0.01536741 0.03825635 -0.10431575
v 0.01536657 0.03059245 -0.10436237
v 0.02303272 0.05358698 -0.10431547
v 0.02303357 0.04592167 -0.10436237
v 0.03069719 0.05358473 -0.10431575
v 0.03069663 0.04592082 -0.10431575
v 0.02303413 0.03825860 -0.10426885
v 0.02303104 0.03059020 -0.10426885
v 0.03069888 0.03825860 -0.10426885
v 0.03069972 0.03059104 -0.10426885
v 0.00771052 0.02293107 -0.10431575
v 0.00771137 0.01526323 -0.10426913
v 0.01536882 0.02293022 -0.10431547
v 0.01537050 0.01526407 -0.10431575
v 0.00770744 0.00759567 -0.10436265
v 0.00770575 -0.00006234 -0.10431575
v 0.01536797 0.00759707 -0.10440926
v 0.01536966 -0.00005925 -0.10436237
v 0.02303188 0.02292713 -0.10426885
v 0.02303272 0.01526182 -0.10436237
v 0.03069972 0.02292629 -0.10426885
v 0.03069663 0.01526014 -0.10436237
v 0.02303104 0.00759876 -0.10440926
v 0.02303188 -0.00005925 -0.10440898
v 0.03069495 0.00759932 -0.10445588
v 0.03069579 -0.00005841 -0.10445588
v 0.03836278 0.05358389 -0.10426885
v 0.03836194 0.04591998 -0.10426885
v 0.04602894 0.05358473 -0.10426885
v 0.04602894 0.04591998 -0.10426885
v 0.03836335 0.03825635 -0.10426885
v 0.03836419 0.03059104 -0.10426885
v 0.04602894 0.03825551 -0.10426885
v 0.04602894 0.03059104 -0.10426885
v 0.05369341 0.05358473 -0.10426885
v 0.05369341 0.04591998 -0.10426885
v 0.06135788 0.05358473 -0.10426885
v 0.06135788 0.04591998 -0.10426885
v 0.05369341 0.03825551 -0.10426885
v 0.05369341 0.03059104 -0.10426885
v 0.06135788 0.03825551 -0.10426885
v 0.06135788 0.03059104 -0.10431575
v 0.03836419 0.02292629 -0.10426885
v 0.03836110 0.01526014 -0.10436237
v 0.04602894 0.02292629 -0.10426885
v 0.04602557 0.01526014 -0.10436237
v 0.03835801 0.00759876 -0.10445588
v 0.03835801 -0.00005841 -0.10445588
v 0.04602248 0.00759876 -0.10445588
v 0.04602248 -0.00005841 -0.10445588
v 0.05369341 0.02292629 -0.10426885
v 0.05369032 0.01526014 -0.10431575
v 0.06135872 0.02292798 -0.10431575
v 0.06135732 0.01526238 -0.10426885
v 0.05368639 0.00759707 -0.10440926
v 0.05368639 -0.00005982 -0.10445588
v 0.06135254 0.00759567 -0.10436237
v 0.06135114 -0.00006234 -0.10436237
v 0.06901898 0.10676929 -0.10431575
v 0.07668373 0.10676929 -0.10436265
v 0.06902263 0.09957351 -0.10426885
v 0.06902263 0.09190764 -0.10426885
v 0.07668794 0.09957492 -0.10436237
v 0.07668878 0.09191073 -0.10431575
v 0.08434679 0.10676845 -0.10440926
v 0.09200958 0.10676760 -0.10436237
v 0.08434960 0.09957576 -0.10436237
v 0.08435016 0.09191157 -0.10431547
v 0.09201239 0.09957492 -0.10431547
v 0.09201407 0.09190989 -0.10440926
v 0.06902263 0.08424317 -0.10426885
v 0.06902263 0.07657842 -0.10426885
v 0.07668794 0.08424457 -0.10426885
v 0.07668710 0.07657842 -0.10426885
v 0.06902263 0.06891395 -0.10426885
v 0.06902263 0.06124920 -0.10426885
v 0.07668710 0.06891395 -0.10426885
v 0.07668710 0.06124920 -0.10426885
v 0.08435185 0.08424542 -0.10431575
v 0.08435269 0.07658010 -0.10426885
v 0.09201632 0.08424766 -0.10431547
v 0.09201632 0.07658095 -0.10426885
v 0.08435185 0.06891395 -0.10426885
v 0.08435185 0.06124920 -0.10426885
v 0.09201632 0.06891395 -0.10426885
v 0.09201632 0.06124920 -0.10426885
v 0.09967573 0.10676845 -0.10431575
v 0.10734189 0.10676929 -0.10431575
v 0.09967854 0.09957351 -0.10431547
v 0.09967629 0.09190764 -0.10431547
v 0.10734413 0.09957267 -0.10426885
v 0.10734329 0.09190764 -0.10426885
v 0.11500664 0.10676929 -0.10431575
v 0.12267110 0.10676929 -0.10431575
v 0.11501029 0.09957351 -0.10426885
v 0.11501029 0.09190764 -0.10426885
v 0.12267476 0.09957351 -0.10426885
v 0.12267476 0.09190764 -0.10426885
v 0.09967798 0.08424626 -0.10426885
v 0.09968022 0.07657926 -0.10426885
v 0.10734469 0.08424373 -0.10426885
v 0.10734554 0.07657842 -0.10426885
v 0.09968107 0.06891395 -0.10426885
v 0.09968107 0.06124920 -0.10426885
v 0.10734554 0.06891395 -0.10426885
v 0.10734554 0.06124920 -0.10426885
v 0.11501029 0.08424317 -0.10426885
v 0.11501029 0.07657842 -0.10426885
v 0.12267476 0.08424317 -0.10426885
v 0.12267476 0.07657842 -0.10426885
v 0.11501029 0.06891395 -0.10427952
v 0.11501029 0.06124976 -0.10429048
v 0.12267447 0.06891367 -0.10429048
v 0.12267419 0.06124976 -0.10430115
v 0.06902235 0.05358473 -0.10426885
v 0.06902235 0.04591998 -0.10426885
v 0.07668710 0.05358529 -0.10426885
v 0.07668682 0.04605337 -0.10426885
v 0.06902263 0.03825523 -0.10426885
v 0.06902094 0.03059020 -0.10431575
v 0.07668682 0.03838890 -0.10428514
v 0.07668597 0.03059076 -0.10430115
v 0.08435185 0.05358585 -0.10426885
v 0.08435100 0.04618648 -0.10426885
v 0.09201632 0.05358585 -0.10426885
v 0.09201575 0.04618676 -0.10426885
v 0.08435072 0.03838946 -0.10430115
v 0.08435072 0.03072471 -0.10431715
v 0.09201463 0.03852257 -0.10430115
v 0.09201435 0.03085810 -0.10438034
v 0.06902094 0.02292798 -0.10426885
v 0.06902179 0.01526238 -0.10431575
v 0.07668710 0.02292826 -0.10434804
v 0.07668710 0.01526351 -0.10434804
v 0.06902038 0.00759707 -0.10426885
v 0.06901785 -0.00006459 -0.10431547
v 0.07668766 0.00760044 -0.10430115
v 0.07668625 -0.00006431 -0.10430115
v 0.08434960 0.02292741 -0.10433344
v 0.08434904 0.01526379 -0.10433344
v 0.09201547 0.02293050 -0.10441235
v 0.09201547 0.01526660 -0.10436574
v 0.08435044 0.00760016 -0.10433344
v 0.08435129 -0.00006262 -0.10433344
v 0.09201491 0.00760044 -0.10441235
v 0.09201547 -0.00005982 -0.10441235
v 0.09968107 0.05358585 -0.10426885
v 0.09968022 0.04618676 -0.10426885
v 0.10734582 0.05358557 -0.10426885
v 0.10734526 0.04618676 -0.10426885
v 0.09967938 0.03852257 -0.10430115
v 0.09967657 0.03085698 -0.10438006
v 0.10734413 0.03852257 -0.10430115
v 0.10734132 0.03085698 -0.10433344
v 0.11501085 0.05358585 -0.10429048
v 0.11501029 0.04605421 -0.10429581
v 0.12267419 0.05358585 -0.10431182
v 0.12267447 0.04592167 -0.10432277
v 0.11500916 0.03839002 -0.10431715
v 0.11500776 0.03085810 -0.10433344
v 0.12267335 0.03839031 -0.10432811
v 0.12267251 0.03072584 -0.10434945
v 0.09967629 0.02293022 -0.10436546
v 0.09967714 0.01526575 -0.10441235
v 0.10734160 0.02292938 -0.10441235
v 0.10734160 0.01526575 -0.10441235
v 0.09967714 0.00760100 -0.10441235
v 0.09967629 -0.00005982 -0.10436546
v 0.10734076 0.00760185 -0.10436546
v 0.10734160 -0.00006066 -0.10441235
v 0.11500551 0.02292798 -0.10436574
v 0.11500467 0.01526491 -0.10436546
v 0.12267167 0.02292882 -0.10436574
v 0.12267167 0.01526491 -0.10436546
v 0.11500607 0.00760100 -0.10436546
v 0.11500551 -0.00006234 -0.10436546
v 0.12267167 0.00760044 -0.10436546
v 0.12267167 -0.00006150 -0.10436546
v 0.13033585 0.10676929 -0.10431575
v 0.13798853 0.10676929 -0.10431575
v 0.13033951 0.09957351 -0.10426885
v 0.13033951 0.09190764 -0.10426885
v 0.13799190 0.09957351 -0.10426885
v 0.13799162 0.09190764 -0.10426885
v 0.14480632 0.10677940 -0.10431575
v 0.14480744 0.09957941 -0.10426885
v 0.14516437 0.09185316 -0.10450025
v 0.13033951 0.08424317 -0.10426885
v 0.13033951 0.07657842 -0.10426885
v 0.13799134 0.08424317 -0.10426885
v 0.13799162 0.07657814 -0.10426885
v 0.13033866 0.06891339 -0.10429048
v 0.13033838 0.06124976 -0.10431182
v 0.13799246 0.06891311 -0.10429019
v 0.13799274 0.06124976 -0.10431182
v 0.14558336 0.08388456 -0.10473221
v 0.14558588 0.07602941 -0.10473277
v 0.14519975 0.06866935 -0.10454659
v 0.14487007 0.06125201 -0.10435984
v 0.13033810 0.05358585 -0.10433344
v 0.13033782 0.04592195 -0.10434411
v 0.13799162 0.05358613 -0.10433344
v 0.13799050 0.04592195 -0.10434411
v 0.13033782 0.03825804 -0.10435478
v 0.13033698 0.03059357 -0.10441235
v 0.13799050 0.03825748 -0.10435478
v 0.13798937 0.03059273 -0.10441235
v 0.14486698 0.05358473 -0.10438090
v 0.14486614 0.04592054 -0.10439185
v 0.14486586 0.03825663 -0.10440252
v 0.14486389 0.03059104 -0.10441319
v 0.13033698 0.02293078 -0.10441235
v 0.13033698 0.01526660 -0.10436546
v 0.13798937 0.02293107 -0.10436546
v 0.13798993 0.01526575 -0.10441235
v 0.13033614 0.00760044 -0.10436546
v 0.13033614 -0.00006150 -0.10436546
v 0.13799162 0.00760185 -0.10436546
v 0.13799078 -0.00006122 -0.10436546
v 0.14486529 0.02292882 -0.10446009
v 0.14486529 0.01526407 -0.10446009
v 0.14486614 0.00760128 -0.10441319
v 0.14486642 -0.00006262 -0.10441319
f 1 5 2
f 1 3 5
f 3 6 5
f 3 4 6
f 2 9 7
f 2 5 9
f 5 10 9
f 5 6 10
f 7 11 8
f 7 9 11
f 9 12 11
f 9 10 12
f 4 15 6
f 4 13 15
f 13 16 15
f 13 14 16
f 14 19 16
f 14 17 19
f 17 20 19
f 17 18 20
f 6 21 10
f 6 15 21
f 15 22 21
f 15 16 22
f 10 23 12
f 10 21 23
f 21 24 23
f 21 22 24
f 16 25 22
f 16 19 25
f 19 26 25
f 19 20 26
f 22 27 24
f 22 25 27
f 25 28 27
f 25 26 28
f 18 31 20
f 18 29 31
f 29 32 31
f 29 30 32
f 30 35 32
f 30 33 35
f 33 36 35
f 33 34 36
f 20 37 26
f 20 31 37
f 31 38 37
f 31 32 38
f 26 39 28
f 26 37 39
f 37 40 39
f 37 38 40
f 32 41 38
f 32 35 41
f 35 42 41
f 35 36 42
f 38 43 40
f 38 41 43
f 41 44 43
f 41 42 44
f 34 47 36
f 34 45 47
f 45 48 47
f 45 46 48
f 46 51 48
f 46 49 51
f 49 52 51
f 49 50 52
f 36 53 42
f 36 47 53
f 47 54 53
f 47 48 54
f 42 55 44
f 42 53 55
f 53 56 55
f 53 54 56
f 48 57 54
f 48 51 57
f 51 58 57
f 51 52 58
f 54 59 56
f 54 57 59
f 57 60 59
f 57 58 60
f 8 63 61
f 8 11 63
f 11 64 63
f 11 12 64
f 61 65 62
f 61 63 65
f 63 66 65
f 63 64 66
f 62 69 67
f 62 65 69
f 65 70 69
f 65 66 70
f 67 71 68
f 67 69 71
f 69 72 71
f 69 70 72
f 12 73 64
f 12 23 73
f 23 74 73
f 23 24 74
f 64 75 66
f 64 73 75
f 73 76 75
f 73 74 76
f 24 77 74
f 24 27 77
f 27 78 77
f 27 28 78
f 74 79 76
f 74 77 79
f 77 80 79
f 77 78 80
f 66 81 70
f 66 75 81
f 75 82 81
f 75 76 82
f 70 83 72
f 70 81 83
f 81 84 83
f 81 82 84
f 76 85 82
f 76 79 85
f 79 86 85
f 79 80 86
f 82 87 84
f 82 85 87
f 85 88 87
f 85 86 88
f 68 91 89
f 68 71 91
f 71 92 91
f 71 72 92
f 89 93 90
f 89 91 93
f 91 94 93
f 91 92 94
f 90 97 95
f 90 93 97
f 93 98 97
f 93 94 98
f 95 99 96
f 95 97 99
f 97 100 99
f 97 98 100
f 72 101 92
f 72 83 101
f 83 102 101
f 83 84 102
f 92 103 94
f 92 101 103
f 101 104 103
f 101 102 104
f 84 105 102
f 84 87 105
f 87 106 105
f 87 88 106
f 102 107 104
f 102 105 107
f 105 108 107
f 105 106 108
f 94 109 98
f 94 103 109
f 103 110 109
f 103 104 110
f 98 111 100
f 98 109 111
f 109 112 111
f 109 110 112
f 104 113 110
f 104 107 113
f 107 114 113
f 107 108 114
f 110 115 112
f 110 113 115
f 113 116 115
f 113 114 116
f 28 117 78
f 28 39 117
f 39 118 117
f 39 40 118
f 78 119 80
f 78 117 119
f 117 120 119
f 117 118 120
f 40 121 118
f 40 43 121
f 43 122 121
f 43 44 122
f 118 123 120
f 118 121 123
f 121 124 123
f 121 122 124
f 80 125 86
f 80 119 125
f 119 126 125
f 119 120 126
f 86 127 88
f 86 125 127
f 125 128 127
f 125 126 128
f 120 129 126
f 120 123 129
f 123 130 129
f 123 124 130
f 126 131 128
f 126 129 131
f 129 132 131
f 129 130 132
f 44 133 122
f 44 55 133
f 55 134 133
f 55 56 134
f 122 135 124
f 122 133 135
f 133 136 135
f 133 134 136
f 56 137 134
f 56 59 137
f 59 138 137
f 59 60 138
f 134 139 136
f 134 137 139
f 137 140 139
f 137 138 140
f 124 141 130
f 124 135 141
f 135 142 141
f 135 136 142
f 130 143 132
f 130 141 143
f 141 144 143
f 141 142 144
f 136 145 142
f 136 139 145
f 139 146 145
f 139 140 146
f 142 147 144
f 142 145 147
f 145 148 147
f 145 146 148
f 88 149 106
f 88 127 149
f 127 150 149
f 127 128 150
f 106 151 108
f 106 149 151
f 149 152 151
f 149 150 152
f 128 153 150
f 128 131 153
f 131 154 153
f 131 132 154
f 150 155 152
f 150 153 155
f 153 156 155
f 153 154 156
f 108 157 114
f 108 151 157
f 151 158 157
f 151 152 158
f 114 159 116
f 114 157 159
f 157 160 159
f 157 158 160
f 152 161 158
f 152 155 161
f 155 162 161
f 155 156 162
f 158 163 160
f 158 161 163
f 161 164 163
f 161 162 164
f 132 165 154
f 132 143 165
f 143 166 165
f 143 144 166
f 154 167 156
f 154 165 167
f 165 168 167
f 165 166 168
f 144 169 166
f 144 147 169
f 147 170 169
f 147 148 170
f 166 171 168
f 166 169 171
f 169 172 171
f 169 170 172
f 156 173 162
f 156 167 173
f 167 174 173
f 167 168 174
f 162 175 164
f 162 173 175
f 173 176 175
f 173 174 176
f 168 177 174
f 168 171 177
f 171 178 177
f 171 172 178
f 174 179 176
f 174 177 179
f 177 180 179
f 177 178 180
f 96 183 181
f 96 99 183
f 99 184 183
f 99 100 184
f 181 185 182
f 181 183 185
f 183 186 185
f 183 184 186
f 182 189 187
f 182 185 189
f 185 190 189
f 185 186 190
f 187 191 188
f 187 189 191
f 189 192 191
f 189 190 192
f 100 193 184
f 100 111 193
f 111 194 193
f 111 112 194
f 184 195 186
f 184 193 195
f 193 196 195
f 193 194 196
f 112 197 194
f 112 115 197
f 115 198 197
f 115 116 198
f 194 199 196
f 194 197 199
f 197 200 199
f 197 198 200
f 186 201 190
f 186 195 201
f 195 202 201
f 195 196 202
f 190 203 192
f 190 201 203
f 201 204 203
f 201 202 204
f 196 205 202
f 196 199 205
f 199 206 205
f 199 200 206
f 202 207 204
f 202 205 207
f 205 208 207
f 205 206 208
f 188 211 209
f 188 191 211
f 191 212 211
f 191 192 212
f 209 213 210
f 209 211 213
f 211 214 213
f 211 212 214
f 210 217 215
f 210 213 217
f 213 218 217
f 213 214 218
f 215 219 216
f 215 217 219
f 217 220 219
f 217 218 220
f 192 221 212
f 192 203 221
f 203 222 221
f 203 204 222
f 212 223 214
f 212 221 223
f 221 224 223
f 221 222 224
f 204 225 222
f 204 207 225
f 207 226 225
f 207 208 226
f 222 227 224
f 222 225 227
f 225 228 227
f 225 226 228
f 214 229 218
f 214 223 229
f 223 230 229
f 223 224 230
f 218 231 220
f 218 229 231
f 229 232 231
f 229 230 232
f 224 233 230
f 224 227 233
f 227 234 233
f 227 228 234
f 230 235 232
f 230 233 235
f 233 236 235
f 233 234 236
f 116 237 198
f 116 159 237
f 159 238 237
f 159 160 238
f 198 239 200
f 198 237 239
f 237 240 239
f 237 238 240
f 160 241 238
f 160 163 241
f 163 242 241
f 163 164 242
f 238 243 240
f 238 241 243
f 241 244 243
f 241 242 244
f 200 245 206
f 200 239 245
f 239 246 245
f 239 240 246
f 206 247 208
f 206 245 247
f 245 248 247
f 245 246 248
f 240 249 246
f 240 243 249
f 243 250 249
f 243 244 250
f 246 251 248
f 246 249 251
f 249 252 251
f 249 250 252
f 164 253 242
f 164 175 253
f 175 254 253
f 175 176 254
f 242 255 244
f 242 253 255
f 253 256 255
f 253 254 256
f 176 257 254
f 176 179 257
f 179 258 257
f 179 180 258
f 254 259 256
f 254 257 259
f 257 260 259
f 257 258 260
f 244 261 250
f 244 255 261
f 255 262 261
f 255 256 262
f 250 263 252
f 250 261 263
f 261 264 263
f 261 262 264
f 256 265 262
f 256 259 265
f 259 266 265
f 259 260 266
f 262 267 264
f 262 265 267
f 265 268 267
f 265 266 268
f 208 269 226
f 208 247 269
f 247 270 269
f 247 248 270
f 226 271 228
f 226 269 271
f 269 272 271
f 269 270 272
f 248 273 270
f 248 251 273
f 251 274 273
f 251 252 274
f 270 275 272
f 270 273 275
f 273 276 275
f 273 274 276
f 228 277 234
f 228 271 277
f 271 278 277
f 271 272 278
f 234 279 236
f 234 277 279
f 277 280 279
f 277 278 280
f 272 281 278
f 272 275 281
f 275 282 281
f 275 276 282
f 278 283 280
f 278 281 283
f 281 284 283
f 281 282 284
f 252 285 274
f 252 263 285
f 263 286 285
f 263 264 286
f 274 287 276
f 274 285 287
f 285 288 287
f 285 286 288
f 264 289 286
f 264 267 289
f 267 290 289
f 267 268 290
f 286 291 288
f 286 289 291
f 289 292 291
f 289 290 292
f 276 293 282
f 276 287 293
f 287 294 293
f 287 288 294
f 282 295 284
f 282 293 295
f 293 296 295
f 293 294 296
f 288 297 294
f 288 291 297
f 291 298 297
f 291 292 298
f 294 299 296
f 294 297 299
f 297 300 299
f 297 298 300
f 216 303 301
f 216 219 303
f 219 304 303
f 219 220 304
f 301 305 302
f 301 303 305
f 303 306 305
f 303 304 306
f 302 309 307
f 302 305 309
f 305 310 309
f 305 306 310
f 307 311 308
f 307 309 311
f 309 312 311
f 309 310 312
f 220 313 304
f 220 231 313
f 231 314 313
f 231 232 314
f 304 315 306
f 304 313 315
f 313 316 315
f 313 314 316
f 232 317 314
f 232 235 317
f 235 318 317
f 235 236 318
f 314 319 316
f 314 317 319
f 317 320 319
f 317 318 320
f 306 321 310
f 306 315 321
f 315 322 321
f 315 316 322
f 310 323 312
f 310 321 323
f 321 324 323
f 321 322 324
f 316 325 322
f 316 319 325
f 319 326 325
f 319 320 326
f 322 327 324
f 322 325 327
f 325 328 327
f 325 326 328
f 308 331 329
f 308 311 331
f 311 332 331
f 311 312 332
f 329 333 330
f 329 331 333
f 331 334 333
f 331 332 334
f 330 337 335
f 330 333 337
f 333 338 337
f 333 334 338
f 335 339 336
f 335 337 339
f 337 340 339
f 337 338 340
f 312 341 332
f 312 323 341
f 323 342 341
f 323 324 342
f 332 343 334
f 332 341 343
f 341 344 343
f 341 342 344
f 324 345 342
f 324 327 345
f 327 346 345
f 327 328 346
f 342 347 344
f 342 345 347
f 345 348 347
f 345 346 348
f 334 349 338
f 334 343 349
f 343 350 349
f 343 344 350
f 338 351 340
f 338 349 351
f 349 352 351
f 349 350 352
f 344 353 350
f 344 347 353
f 347 354 353
f 347 348 354
f 350 355 352
f 350 353 355
f 353 356 355
f 353 354 356
f 236 357 318
f 236 279 357
f 279 358 357
f 279 280 358
f 318 359 320
f 318 357 359
f 357 360 359
f 357 358 360
f 280 361 358
f 280 283 361
f 283 362 361
f 283 284 362
f 358 363 360
f 358 361 363
f 361 364 363
f 361 362 364
f 320 365 326
f 320 359 365
f 359 366 365
f 359 360 366
f 326 367 328
f 326 365 367
f 365 368 367
f 365 366 368
f 360 369 366
f 360 363 369
f 363 370 369
f 363 364 370
f 366 371 368
f 366 369 371
f 369 372 371
f 369 370 372
f 284 373 362
f 284 295 373
f 295 374 373
f 295 296 374
f 362 375 364
f 362 373 375
f 373 376 375
f 373 374 376
f 296 377 374
f 296 299 377
f 299 378 377
f 299 300 378
f 374 379 376
f 374 377 379
f 377 380 379
f 377 378 380
f 364 381 370
f 364 375 381
f 375 382 381
f 375 376 382
f 370 383 372
f 370 381 383
f 381 384 383
f 381 382 384
f 376 385 382
f 376 379 385
f 379 386 385
f 379 380 386
f 382 387 384
f 382 385 387
f 385 388 387
f 385 386 388
f 328 389 346
f 328 367 389
f 367 390 389
f 367 368 390
f 346 391 348
f 346 389 391
f 389 392 391
f 389 390 392
f 368 393 390
f 368 371 393
f 371 394 393
f 371 372 394
f 390 395 392
f 390 393 395
f 393 396 395
f 393 394 396
f 348 397 354
f 348 391 397
f 391 398 397
f 391 392 398
f 354 399 356
f 354 397 399
f 397 400 399
f 397 398 400
f 392 401 398
f 392 395 401
f 395 402 401
f 395 396 402
f 398 403 400
f 398 401 403
f 401 404 403
f 401 402 404
f 372 405 394
f 372 383 405
f 383 406 405
f 383 384 406
f 394 407 396
f 394 405 407
f 405 408 407
f 405 406 408
f 384 409 406
f 384 387 409
f 387 410 409
f 387 388 410
f 406 411 408
f 406 409 411
f 409 412 411
f 409 410 412
f 396 413 402
f 396 407 413
f 407 414 413
f 407 408 414
f 402 415 404
f 402 413 415
f 413 416 415
f 413 414 416
f 408 417 414
f 408 411 417
f 411 418 417
f 411 412 418
f 414 419 416
f 414 417 419
f 417 420 419
f 417 418 420
f 336 423 421
f 336 339 423
f 339 424 423
f 339 340 424
f 421 425 422
f 421 423 425
f 423 426 425
f 423 424 426
f 422 429 427
f 422 425 429
f 425 430 429
f 425 426 430
f 427 431 428
f 427 429 431
f 429 432 431
f 429 430 432
f 340 433 424
f 340 351 433
f 351 434 433
f 351 352 434
f 424 435 426
f 424 433 435
f 433 436 435
f 433 434 436
f 352 437 434
f 352 355 437
f 355 438 437
f 355 356 438
f 434 439 436
f 434 437 439
f 437 440 439
f 437 438 440
f 426 441 430
f 426 435 441
f 435 442 441
f 435 436 442
f 430 443 432
f 430 441 443
f 441 444 443
f 441 442 444
f 436 445 442
f 436 439 445
f 439 446 445
f 439 440 446
f 442 447 444
f 442 445 447
f 445 448 447
f 445 446 448
f 428 451 449
f 428 431 451
f 431 452 451
f 431 432 452
f 449 453 450
f 449 451 453
f 451 454 453
f 451 452 454
f 450 457 455
f 450 453 457
f 453 458 457
f 453 454 458
f 455 459 456
f 455 457 459
f 457 460 459
f 457 458 460
f 432 461 452
f 432 443 461
f 443 462 461
f 443 444 462
f 452 463 454
f 452 461 463
f 461 464 463
f 461 462 464
f 444 465 462
f 444 447 465
f 447 466 465
f 447 448 466
f 462 467 464
f 462 465 467
f 465 468 467
f 465 466 468
f 454 469 458
f 454 463 469
f 463 470 469
f 463 464 470
f 458 471 460
f 458 469 471
f 469 472 471
f 469 470 472
f 464 473 470
f 464 467 473
f 467 474 473
f 467 468 474
f 470 475 472
f 470 473 475
f 473 476 475
f 473 474 476
f 356 477 438
f 356 399 477
f 399 478 477
f 399 400 478
f 438 479 440
f 438 477 479
f 477 480 479
f 477 478 480
f 400 481 478
f 400 403 481
f 403 482 481
f 403 404 482
f 478 483 480
f 478 481 483
f 481 484 483
f 481 482 484
f 440 485 446
f 440 479 485
f 479 486 485
f 479 480 486
f 446 487 448
f 446 485 487
f 485 488 487
f 485 486 488
f 480 489 486
f 480 483 489
f 483 490 489
f 483 484 490
f 486 491 488
f 486 489 491
f 489 492 491
f 489 490 492
f 404 493 482
f 404 415 493
f 415 494 493
f 415 416 494
f 482 495 484
f 482 493 495
f 493 496 495
f 493 494 496
f 416 497 494
f 416 419 497
f 419 498 497
f 419 420 498
f 494 499 496
f 494 497 499
f 497 500 499
f 497 498 500
f 484 501 490
f 484 495 501
f 495 502 501
f 495 496 502
f 490 503 492
f 490 501 503
f 501 504 503
f 501 502 504
f 496 505 502
f 496 499 505
f 499 506 505
f 499 500 506
f 502 507 504
f 502 505 507
f 505 508 507
f 505 506 508
f 448 509 466
f 448 487 509
f 487 510 509
f 487 488 510
f 466 511 468
f 466 509 511
f 509 512 511
f 509 510 512
f 488 513 510
f 488 491 513
f 491 514 513
f 491 492 514
f 510 515 512
f 510 513 515
f 513 516 515
f 513 514 516
f 468 517 474
f 468 511 517
f 511 518 517
f 511 512 518
f 474 519 476
f 474 517 519
f 517 520 519
f 517 518 520
f 512 521 518
f 512 515 521
f 515 522 521
f 515 516 522
f 518 523 520
f 518 521 523
f 521 524 523
f 521 522 524
f 492 525 514
f 492 503 525
f 503 526 525
f 503 504 526
f 514 527 516
f 514 525 527
f 525 528 527
f 525 526 528
f 504 529 526
f 504 507 529
f 507 530 529
f 507 508 530
f 526 531 528
f 526 529 531
f 529 532 531
f 529 530 532
f 516 533 522
f 516 527 533
f 527 534 533
f 527 528 534
f 522 535 524
f 522 533 535
f 533 536 535
f 533 534 536
f 528 537 534
f 528 531 537
f 531 538 537
f 531 532 538
f 534 539 536
f 534 537 539
f 537 540 539
f 537 538 540
f 456 543 541
f 456 459 543
f 459 544 543
f 459 460 544
f 541 545 542
f 541 543 545
f 543 546 545
f 543 544 546
f 542 548 547
f 542 545 548
f 545 549 548
f 545 546 549
f 460 550 544
f 460 471 550
f 471 551 550
f 471 472 551
f 544 552 546
f 544 550 552
f 550 553 552
f 550 551 553
f 472 554 551
f 472 475 554
f 475 555 554
f 475 476 555
f 551 556 553
f 551 554 556
f 554 557 556
f 554 555 557
f 546 558 549
f 546 552 558
f 552 559 558
f 552 553 559
f 553 560 559
f 553 556 560
f 556 561 560
f 556 557 561
f 476 562 555
f 476 519 562
f 519 563 562
f 519 520 563
f 555 564 557
f 555 562 564
f 562 565 564
f 562 563 565
f 520 566 563
f 520 523 566
f 523 567 566
f 523 524 567
f 563 568 565
f 563 566 568
f 566 569 568
f 566 567 569
f 557 570 561
f 557 564 570
f 564 571 570
f 564 565 571
f 565 572 571
f 565 568 572
f 568 573 572
f 568 569 573
f 524 574 567
f 524 535 574
f 535 575 574
f 535 536 575
f 567 576 569
f 567 574 576
f 574 577 576
f 574 575 577
f 536 578 575
f 536 539 578
f 539 579 578
f 539 540 579
f 575 580 577
f 575 578 580
f 578 581 580
f 578 579 581
f 569 582 573
f 569 576 582
f 576 583 582
f 576 577 583
f 577 584 583
f 577 580 584
f 580 585 584
f 580 581 585

