# https://github.com/mikedh/trimesh
v 0.41288961 -0.06893251 0.50000000
v 0.41288961 0.10074787 -0.49546025
v 0.41288961 0.10074787 0.50000000
v 0.41288961 -0.06893251 -0.49546025
v 0.42702991 0.10074787 -0.49546025
v 0.42702991 -0.06893251 0.50000000
v 0.42702991 -0.06893251 -0.49546025
v 0.42702991 0.10074787 0.50000000
v -0.42702991 -0.06893251 0.49546025
v -0.42702991 0.10074787 -0.50000000
v -0.42702991 0.10074787 0.49546025
v -0.42702991 -0.06893251 -0.50000000
v -0.41288961 0.10074787 -0.50000000
v -0.41288961 -0.06893251 0.49546025
v -0.41288961 -0.06893251 -0.50000000
v -0.41288961 0.10074787 0.49546025
v 0.01131231 -0.06893251 -0.49546025
v 0.01131231 0.10074787 -0.49546025
v 0.01131231 -0.06893251 -0.48131994
v 0.01131231 0.10074787 -0.48131994
v 0.41288961 -0.06893251 -0.48131994
v 0.41288961 0.10074787 -0.48131994
v -0.14705674 -0.06893251 0.49849087
v -0.14705674 0.10074787 -0.49696938
v -0.14705674 0.10074787 0.49849087
v -0.14705674 -0.06893251 -0.49696938
v -0.13291644 0.10074787 -0.49696938
v -0.13291644 -0.06893251 0.49849087
v -0.13291644 -0.06893251 -0.49696938
v -0.13291644 0.10074787 0.49849087
v -0.00282800 -0.06893251 0.50000000
v -0.00282800 0.10074787 -0.49546025
v -0.00282800 0.10074787 0.50000000
v -0.00282800 -0.06893251 -0.49546025
v 0.01131231 -0.06893251 0.50000000
v 0.01131231 0.10074787 0.50000000
v 0.41288961 0.10074787 -0.34557551
v 0.01131231 -0.06893251 -0.34557551
v 0.01131231 0.10074787 -0.34557551
v 0.41288961 -0.06893251 -0.34557551
v 0.01131231 -0.06893251 -0.33143521
v 0.01131231 0.10074787 -0.33143521
v 0.41288961 -0.06893251 -0.33143521
v 0.41288961 0.10074787 -0.33143521
v 0.41288961 0.06893251 -0.16940782
v 0.01131231 -0.10074787 -0.16940782
v 0.01131231 0.06893251 -0.16940782
v 0.41288961 -0.10074787 -0.16940782
v 0.01131231 -0.10074787 -0.15526752
v 0.01131231 0.06893251 -0.15526752
v 0.41288961 -0.10074787 -0.15526752
v 0.41288961 0.06893251 -0.15526752
v 0.41288961 0.10074787 0.08948565
v 0.01131231 -0.06893251 0.08948565
v 0.01131231 0.10074787 0.08948565
v 0.41288961 -0.06893251 0.08948565
v 0.01131231 -0.06893251 0.10362595
v 0.01131231 0.10074787 0.10362595
v 0.41288961 -0.06893251 0.10362595
v 0.41288961 0.10074787 0.10362595
v 0.41288961 0.10074787 0.22622858
v 0.01131231 -0.06893251 0.22622858
v 0.01131231 0.10074787 0.22622858
v 0.41288961 -0.06893251 0.22622858
v 0.01131231 -0.06893251 0.24036888
v 0.01131231 0.10074787 0.24036888
v 0.41288961 -0.06893251 0.24036888
v 0.41288961 0.10074787 0.24036888
v 0.41288961 0.10074787 0.37496000
v 0.01131231 -0.06893251 0.37496000
v 0.01131231 0.10074787 0.37496000
v 0.41288961 -0.06893251 0.37496000
v 0.01131231 -0.06893251 0.38910030
v 0.01131231 0.10074787 0.38910030
v 0.41288961 -0.06893251 0.38910030
v 0.41288961 0.10074787 0.38910030
v -0.13291644 0.10074787 0.34280509
v -0.00282800 -0.06893251 0.34280509
v -0.00282800 0.10074787 0.34280509
v -0.13291644 -0.06893251 0.34280509
v -0.00282800 0.10074787 0.32866478
v -0.13291644 -0.06893251 0.32866478
v -0.00282800 -0.06893251 0.32866478
v -0.13291644 0.10074787 0.32866478
v -0.13291644 0.10074787 0.16031400
v -0.00282800 -0.06893251 0.16031400
v -0.00282800 0.10074787 0.16031400
v -0.13291644 -0.06893251 0.16031400
v -0.00282800 0.10074787 0.14617370
v -0.13291644 -0.06893251 0.14617370
v -0.00282800 -0.06893251 0.14617370
v -0.13291644 0.10074787 0.14617370
v -0.13291644 0.10074787 0.00536197
v -0.00282800 -0.06893251 0.00536197
v -0.00282800 0.10074787 0.00536197
v -0.13291644 -0.06893251 0.00536197
v -0.00282800 0.10074787 -0.00877833
v -0.13291644 -0.06893251 -0.00877833
v -0.00282800 -0.06893251 -0.00877833
v -0.13291644 0.10074787 -0.00877833
v -0.13291644 0.10074787 -0.25172444
v -0.00282800 -0.06893251 -0.25172444
v -0.00282800 0.10074787 -0.25172444
v -0.13291644 -0.06893251 -0.25172444
v -0.00282800 0.10074787 -0.26586475
v -0.13291644 -0.06893251 -0.26586475
v -0.00282800 -0.06893251 -0.26586475
v -0.13291644 0.10074787 -0.26586475
v -0.14705674 0.10074787 -0.42197790
v -0.41288961 -0.06893251 -0.42197790
v -0.41288961 0.10074787 -0.42197790
v -0.14705674 -0.06893251 -0.42197790
v -0.41288961 -0.06893251 -0.40783825
v -0.41288961 0.10074787 -0.40783825
v -0.14705674 -0.06893251 -0.40783825
v -0.14705674 0.10074787 -0.40783825
v -0.13291644 0.10074787 -0.41004665
v -0.00282800 -0.06893251 -0.41004665
v -0.00282800 0.10074787 -0.41004665
v -0.13291644 -0.06893251 -0.41004665
v -0.00282800 0.10074787 -0.42418696
v -0.13291644 -0.06893251 -0.42418696
v -0.00282800 -0.06893251 -0.42418696
v -0.13291644 0.10074787 -0.42418696
v -0.14705674 0.10074787 -0.23999290
v -0.41288961 -0.06893251 -0.23999290
v -0.41288961 0.10074787 -0.23999290
v -0.14705674 -0.06893251 -0.23999290
v -0.41288961 -0.06893251 -0.22585324
v -0.41288961 0.10074787 -0.22585324
v -0.14705674 -0.06893251 -0.22585324
v -0.14705674 0.10074787 -0.22585324
v -0.14705674 0.10074787 0.00076042
v -0.41288961 -0.06893251 0.00076042
v -0.41288961 0.10074787 0.00076042
v -0.14705674 -0.06893251 0.00076042
v -0.41288961 -0.06893251 0.01490072
v -0.41288961 0.10074787 0.01490072
v -0.14705674 -0.06893251 0.01490072
v -0.14705674 0.10074787 0.01490072
v -0.14705674 0.10074787 0.13554928
v -0.41288961 -0.06893251 0.13554928
v -0.41288961 0.10074787 0.13554928
v -0.14705674 -0.06893251 0.13554928
v -0.41288961 -0.06893251 0.14968959
v -0.41288961 0.10074787 0.14968959
v -0.14705674 -0.06893251 0.14968959
v -0.14705674 0.10074787 0.14968959
v -0.14705674 0.10074787 0.27282627
v -0.41288961 -0.06893251 0.27282627
v -0.41288961 0.10074787 0.27282627
v -0.14705674 -0.06893251 0.27282627
v -0.41288961 -0.06893251 0.28696657
v -0.41288961 0.10074787 0.28696657
v -0.14705674 -0.06893251 0.28696657
v -0.14705674 0.10074787 0.28696657
v -0.14705674 0.10074787 0.40696009
v -0.41288961 -0.06893251 0.40696009
v -0.41288961 0.10074787 0.40696009
v -0.14705674 -0.06893251 0.40696009
v -0.41288961 -0.06893251 0.42109974
v -0.41288961 0.10074787 0.42109974
v -0.14705674 -0.06893251 0.42109974
v -0.14705674 0.10074787 0.42109974
f 1 2 3
f 2 1 4
f 3 2 1
f 4 1 2
f 3 5 2
f 2 5 3
f 6 3 1
f 1 3 6
f 4 6 1
f 1 6 4
f 2 7 4
f 4 7 2
f 5 3 8
f 8 3 5
f 7 2 5
f 5 2 7
f 3 6 8
f 8 6 3
f 6 4 7
f 7 4 6
f 6 5 8
f 8 5 6
f 5 6 7
f 7 6 5
f 9 10 11
f 10 9 12
f 11 10 9
f 12 9 10
f 11 13 10
f 10 13 11
f 14 11 9
f 9 11 14
f 12 14 9
f 9 14 12
f 10 15 12
f 12 15 10
f 13 11 16
f 16 11 13
f 15 10 13
f 13 10 15
f 11 14 16
f 16 14 11
f 14 12 15
f 15 12 14
f 14 13 16
f 16 13 14
f 13 14 15
f 15 14 13
f 2 17 18
f 17 2 4
f 18 19 17
f 20 2 18
f 2 21 4
f 21 17 4
f 19 18 20
f 17 21 19
f 2 20 22
f 21 2 22
f 21 20 19
f 20 21 22
f 18 17 2
f 4 2 17
f 4 21 2
f 22 2 21
f 17 19 18
f 18 2 20
f 4 17 21
f 20 18 19
f 19 21 17
f 22 20 2
f 19 20 21
f 22 21 20
f 23 24 25
f 24 23 26
f 25 24 23
f 26 23 24
f 25 27 24
f 24 27 25
f 28 25 23
f 23 25 28
f 26 28 23
f 23 28 26
f 24 29 26
f 26 29 24
f 27 25 30
f 30 25 27
f 29 24 27
f 27 24 29
f 25 28 30
f 30 28 25
f 28 26 29
f 29 26 28
f 28 27 30
f 30 27 28
f 27 28 29
f 29 28 27
f 31 32 33
f 32 31 34
f 33 32 31
f 34 31 32
f 33 18 32
f 32 18 33
f 35 33 31
f 31 33 35
f 34 35 31
f 31 35 34
f 32 17 34
f 34 17 32
f 18 33 36
f 36 33 18
f 17 32 18
f 18 32 17
f 33 35 36
f 36 35 33
f 35 34 17
f 17 34 35
f 35 18 36
f 36 18 35
f 18 35 17
f 17 35 18
f 37 38 39
f 38 37 40
f 39 41 38
f 42 37 39
f 37 43 40
f 43 38 40
f 41 39 42
f 38 43 41
f 37 42 44
f 43 37 44
f 43 42 41
f 42 43 44
f 39 38 37
f 40 37 38
f 40 43 37
f 44 37 43
f 38 41 39
f 39 37 42
f 40 38 43
f 42 39 41
f 41 43 38
f 44 42 37
f 41 42 43
f 44 43 42
f 45 46 47
f 46 45 48
f 47 49 46
f 50 45 47
f 45 51 48
f 51 46 48
f 49 47 50
f 46 51 49
f 45 50 52
f 51 45 52
f 51 50 49
f 50 51 52
f 47 46 45
f 48 45 46
f 48 51 45
f 52 45 51
f 46 49 47
f 47 45 50
f 48 46 51
f 50 47 49
f 49 51 46
f 52 50 45
f 49 50 51
f 52 51 50
f 53 54 55
f 54 53 56
f 55 57 54
f 58 53 55
f 53 59 56
f 59 54 56
f 57 55 58
f 54 59 57
f 53 58 60
f 59 53 60
f 59 58 57
f 58 59 60
f 55 54 53
f 56 53 54
f 56 59 53
f 60 53 59
f 54 57 55
f 55 53 58
f 56 54 59
f 58 55 57
f 57 59 54
f 60 58 53
f 57 58 59
f 60 59 58
f 61 62 63
f 62 61 64
f 63 65 62
f 66 61 63
f 61 67 64
f 67 62 64
f 65 63 66
f 62 67 65
f 61 66 68
f 67 61 68
f 67 66 65
f 66 67 68
f 63 62 61
f 64 61 62
f 64 67 61
f 68 61 67
f 62 65 63
f 63 61 66
f 64 62 67
f 66 63 65
f 65 67 62
f 68 66 61
f 65 66 67
f 68 67 66
f 69 70 71
f 70 69 72
f 71 73 70
f 74 69 71
f 69 75 72
f 75 70 72
f 73 71 74
f 70 75 73
f 69 74 76
f 75 69 76
f 75 74 73
f 74 75 76
f 71 70 69
f 72 69 70
f 72 75 69
f 76 69 75
f 70 73 71
f 71 69 74
f 72 70 75
f 74 71 73
f 73 75 70
f 76 74 69
f 73 74 75
f 76 75 74
f 77 78 79
f 78 77 80
f 78 81 79
f 81 77 79
f 77 82 80
f 82 78 80
f 81 78 83
f 77 81 84
f 82 77 84
f 78 82 83
f 82 81 83
f 81 82 84
f 79 78 77
f 80 77 78
f 79 81 78
f 79 77 81
f 80 82 77
f 80 78 82
f 83 78 81
f 84 81 77
f 84 77 82
f 83 82 78
f 83 81 82
f 84 82 81
f 85 86 87
f 86 85 88
f 86 89 87
f 89 85 87
f 85 90 88
f 90 86 88
f 89 86 91
f 85 89 92
f 90 85 92
f 86 90 91
f 90 89 91
f 89 90 92
f 87 86 85
f 88 85 86
f 87 89 86
f 87 85 89
f 88 90 85
f 88 86 90
f 91 86 89
f 92 89 85
f 92 85 90
f 91 90 86
f 91 89 90
f 92 90 89
f 93 94 95
f 94 93 96
f 94 97 95
f 97 93 95
f 93 98 96
f 98 94 96
f 97 94 99
f 93 97 100
f 98 93 100
f 94 98 99
f 98 97 99
f 97 98 100
f 95 94 93
f 96 93 94
f 95 97 94
f 95 93 97
f 96 98 93
f 96 94 98
f 99 94 97
f 100 97 93
f 100 93 98
f 99 98 94
f 99 97 98
f 100 98 97
f 101 102 103
f 102 101 104
f 102 105 103
f 105 101 103
f 101 106 104
f 106 102 104
f 105 102 107
f 101 105 108
f 106 101 108
f 102 106 107
f 106 105 107
f 105 106 108
f 103 102 101
f 104 101 102
f 103 105 102
f 103 101 105
f 104 106 101
f 104 102 106
f 107 102 105
f 108 105 101
f 108 101 106
f 107 106 102
f 107 105 106
f 108 106 105
f 109 110 111
f 110 109 112
f 111 113 110
f 114 109 111
f 109 115 112
f 115 110 112
f 113 111 114
f 110 115 113
f 109 114 116
f 115 109 116
f 115 114 113
f 114 115 116
f 111 110 109
f 112 109 110
f 112 115 109
f 116 109 115
f 110 113 111
f 111 109 114
f 112 110 115
f 114 111 113
f 113 115 110
f 116 114 109
f 113 114 115
f 116 115 114
f 117 118 119
f 118 117 120
f 118 121 119
f 121 117 119
f 117 122 120
f 122 118 120
f 121 118 123
f 117 121 124
f 122 117 124
f 118 122 123
f 122 121 123
f 121 122 124
f 119 118 117
f 120 117 118
f 119 121 118
f 119 117 121
f 120 122 117
f 120 118 122
f 123 118 121
f 124 121 117
f 124 117 122
f 123 122 118
f 123 121 122
f 124 122 121
f 125 126 127
f 126 125 128
f 127 129 126
f 130 125 127
f 125 131 128
f 131 126 128
f 129 127 130
f 126 131 129
f 125 130 132
f 131 125 132
f 131 130 129
f 130 131 132
f 127 126 125
f 128 125 126
f 128 131 125
f 132 125 131
f 126 129 127
f 127 125 130
f 128 126 131
f 130 127 129
f 129 131 126
f 132 130 125
f 129 130 131
f 132 131 130
f 133 134 135
f 134 133 136
f 135 137 134
f 138 133 135
f 133 139 136
f 139 134 136
f 137 135 138
f 134 139 137
f 133 138 140
f 139 133 140
f 139 138 137
f 138 139 140
f 135 134 133
f 136 133 134
f 136 139 133
f 140 133 139
f 134 137 135
f 135 133 138
f 136 134 139
f 138 135 137
f 137 139 134
f 140 138 133
f 137 138 139
f 140 139 138
f 141 142 143
f 142 141 144
f 143 145 142
f 146 141 143
f 141 147 144
f 147 142 144
f 145 143 146
f 142 147 145
f 141 146 148
f 147 141 148
f 147 146 145
f 146 147 148
f 143 142 141
f 144 141 142
f 144 147 141
f 148 141 147
f 142 145 143
f 143 141 146
f 144 142 147
f 146 143 145
f 145 147 142
f 148 146 141
f 145 146 147
f 148 147 146
f 149 150 151
f 150 149 152
f 151 153 150
f 154 149 151
f 149 155 152
f 155 150 152
f 153 151 154
f 150 155 153
f 149 154 156
f 155 149 156
f 155 154 153
f 154 155 156
f 151 150 149
f 152 149 150
f 152 155 149
f 156 149 155
f 150 153 151
f 151 149 154
f 152 150 155
f 154 151 153
f 153 155 150
f 156 154 149
f 153 154 155
f 156 155 154
f 157 158 159
f 158 157 160
f 159 161 158
f 162 157 159
f 157 163 160
f 163 158 160
f 161 159 162
f 158 163 161
f 157 162 164
f 163 157 164
f 163 162 161
f 162 163 164
f 159 158 157
f 160 157 158
f 160 163 157
f 164 157 163
f 158 161 159
f 159 157 162
f 160 158 163
f 162 159 161
f 161 163 158
f 164 162 157
f 161 162 163
f 164 163 162

