# https://github.com/mikedh/trimesh
v -0.27119174 0.06879603 -0.50000000
v -0.19457614 -0.06879603 -0.50000000
v -0.27119174 -0.06879603 -0.50000000
v -0.19457614 0.00000030 -0.50000000
v -0.19457614 0.06879603 -0.50000000
v -0.19457614 0.06879603 0.33188561
v -0.19457614 -0.06879603 0.33188561
v -0.27119174 -0.06879603 0.50000000
v -0.27119174 0.06879603 0.50000000
v 0.19235354 0.06879603 0.33188561
v 0.19235354 -0.06879603 0.33188561
v 0.27119174 0.06879603 0.50000000
v 0.27119174 -0.06879603 0.50000000
v 0.19235354 0.00000030 -0.50000000
v 0.19235354 -0.06879603 -0.50000000
v 0.19235354 0.06879603 -0.50000000
v 0.27119174 0.00000030 -0.50000000
v 0.27119174 -0.06879603 -0.50000000
v 0.27119174 0.06879603 -0.50000000
v 0.19235354 0.00386948 0.33189829
v 0.18074539 0.00386948 0.32029074
v 0.19235354 0.00386948 -0.50000000
v -0.19457614 0.00386948 0.33189829
v -0.18296799 0.00386948 0.32029074
v -0.18296799 0.00386948 -0.50000000
v -0.19457614 0.00386948 -0.50000000
v 0.18074539 0.00386948 -0.50000000
v -0.19457614 0.02708518 -0.50000000
v -0.18296799 0.02708518 -0.50000000
v -0.18296799 0.00773867 -0.49613082
v -0.18296799 0.02321600 -0.49613082
v -0.18296799 0.00773867 0.32029074
v -0.18296799 0.02708518 0.32029074
v -0.18296799 0.02321600 0.32029074
v 0.18074539 0.00773867 0.32029074
v 0.18074539 0.02708518 -0.50000000
v 0.18074539 0.02321600 -0.49613082
v 0.18074539 0.02708518 0.32029074
v 0.18074539 0.00773867 -0.49613082
v 0.18074539 0.02321600 0.32029074
v 0.19235354 0.02708518 -0.50000000
v 0.19235354 0.02708518 0.33189829
v -0.19457614 0.02708518 0.33189829
v 0.15586440 0.02321600 -0.10378622
v 0.15586440 0.02708518 -0.10378622
v 0.15330728 0.02321600 -0.10182446
v 0.15330728 0.02708518 -0.10182446
v 0.14713398 0.02321600 -0.10017003
v 0.14393864 0.02321600 -0.10059088
v 0.15032992 0.02321600 -0.10059088
v 0.14096068 0.02321600 -0.10182446
v 0.13840417 0.02321600 -0.10378622
v 0.15782676 0.02321600 -0.10634333
v 0.13644180 0.02321600 -0.10634333
v 0.15905973 0.02321600 -0.10932130
v 0.13520823 0.02321600 -0.10932130
v 0.15948058 0.02321600 -0.11251663
v 0.13478798 0.02321600 -0.11251663
v 0.15905973 0.02321600 -0.11571197
v 0.13520823 0.02321600 -0.11571197
v 0.15782676 0.02321600 -0.11868994
v 0.13644180 0.02321600 -0.11868994
v 0.15586440 0.02321600 -0.12124705
v 0.13840417 0.02321600 -0.12124705
v 0.15330728 0.02321600 -0.12320881
v 0.14096068 0.02321600 -0.12320881
v 0.15032992 0.02321600 -0.12444239
v 0.14393864 0.02321600 -0.12444239
v 0.14713398 0.02321600 -0.12486324
v 0.15032992 0.02708518 -0.10059088
v 0.14713398 0.02708518 -0.10017003
v 0.14393864 0.02708518 -0.10059088
v 0.14096068 0.02708518 -0.10182446
v 0.13840417 0.02708518 -0.10378622
v 0.13644180 0.02708518 -0.10634333
v 0.15782676 0.02708518 -0.10634333
v 0.14313075 0.02708518 -0.10865591
v 0.13520823 0.02708518 -0.10932130
v 0.13478798 0.02708518 -0.11251663
v 0.13520823 0.02708518 -0.11571197
v 0.14313075 0.02708518 -0.11639427
v 0.15086912 0.02708518 -0.11639427
v 0.13644180 0.02708518 -0.11868994
v 0.15086912 0.02708518 -0.10865591
v 0.15905973 0.02708518 -0.10932130
v 0.15948058 0.02708518 -0.11251663
v 0.15905973 0.02708518 -0.11571197
v 0.15782676 0.02708518 -0.11868994
v 0.13840417 0.02708518 -0.12124705
v 0.15586440 0.02708518 -0.12124705
v 0.14096068 0.02708518 -0.12320881
v 0.15330728 0.02708518 -0.12320881
v 0.14393864 0.02708518 -0.12444239
v 0.15032992 0.02708518 -0.12444239
v 0.14713398 0.02708518 -0.12486324
v 0.14313075 0.05030088 -0.11639427
v 0.15086912 0.05803984 -0.11639427
v 0.09669936 0.05803984 -0.11639427
v 0.09669936 0.05030088 -0.11639427
v 0.15086912 0.05803984 -0.10865591
v 0.09669936 0.05803984 -0.10865591
v 0.09669936 0.05030088 -0.10865591
v 0.14313075 0.05030088 -0.10865591
v 0.15586440 0.00386948 -0.10378622
v 0.15330728 0.00773867 -0.10182446
v 0.15330728 0.00386948 -0.10182446
v 0.15586440 0.00773867 -0.10378622
v 0.14393864 0.00773867 -0.12444239
v 0.15032992 0.00773867 -0.12444239
v 0.14713398 0.00773867 -0.12486324
v 0.14096068 0.00773867 -0.12320881
v 0.15330728 0.00773867 -0.12320881
v 0.13840417 0.00773867 -0.12124705
v 0.15586440 0.00773867 -0.12124705
v 0.13644180 0.00773867 -0.11868994
v 0.15782676 0.00773867 -0.11868994
v 0.13520823 0.00773867 -0.11571197
v 0.15905973 0.00773867 -0.11571197
v 0.13478798 0.00773867 -0.11251663
v 0.15948058 0.00773867 -0.11251663
v 0.13520823 0.00773867 -0.10932130
v 0.15905973 0.00773867 -0.10932130
v 0.13644180 0.00773867 -0.10634333
v 0.15782676 0.00773867 -0.10634333
v 0.13840417 0.00773867 -0.10378622
v 0.14096068 0.00773867 -0.10182446
v 0.14393864 0.00773867 -0.10059088
v 0.15032992 0.00773867 -0.10059088
v 0.14713398 0.00773867 -0.10017003
v 0.15032992 0.00386948 -0.10059088
v 0.15032992 0.00386948 -0.12444239
v 0.14393864 0.00386948 -0.12444239
v 0.14713398 0.00386948 -0.12486324
v 0.15330728 0.00386948 -0.12320881
v 0.14096068 0.00386948 -0.12320881
v 0.15586440 0.00386948 -0.12124705
v 0.13840417 0.00386948 -0.12124705
v 0.15782676 0.00386948 -0.11868994
v 0.13644180 0.00386948 -0.11868994
v 0.15905973 0.00386948 -0.11571197
v 0.15086912 0.00386948 -0.11639427
v 0.15086912 0.00386948 -0.10865591
v 0.15948058 0.00386948 -0.11251663
v 0.15905973 0.00386948 -0.10932130
v 0.15782676 0.00386948 -0.10634333
v 0.14313075 0.00386948 -0.10865591
v 0.14313075 0.00386948 -0.11639427
v 0.13520823 0.00386948 -0.11571197
v 0.13478798 0.00386948 -0.11251663
v 0.13520823 0.00386948 -0.10932130
v 0.13644180 0.00386948 -0.10634333
v 0.13840417 0.00386948 -0.10378622
v 0.14096068 0.00386948 -0.10182446
v 0.14393864 0.00386948 -0.10059088
v 0.14713398 0.00386948 -0.10017003
v 0.14313075 -0.01934621 -0.11639427
v 0.09669936 -0.02708458 -0.11639427
v 0.09669936 -0.01934621 -0.11639427
v 0.15086912 -0.02708458 -0.11639427
v 0.15086912 -0.02708458 -0.10865591
v 0.09669936 -0.02708458 -0.10865591
v 0.09669936 -0.01934621 -0.10865591
v 0.14313075 -0.01934621 -0.10865591
f 1 2 3
f 2 1 4
f 4 1 5
f 6 4 5
f 4 6 2
f 2 6 7
f 8 1 3
f 1 8 9
f 7 10 11
f 10 7 6
f 12 8 13
f 8 12 9
f 11 14 15
f 14 11 16
f 16 11 10
f 17 13 18
f 13 17 19
f 13 19 12
f 14 19 17
f 19 14 16
f 15 17 18
f 17 15 14
f 5 1 4
f 4 1 2
f 3 2 1
f 7 6 2
f 2 6 4
f 5 4 6
f 9 8 1
f 3 1 8
f 6 7 10
f 11 10 7
f 9 12 8
f 13 8 12
f 10 11 16
f 16 11 14
f 15 14 11
f 12 19 13
f 19 17 13
f 18 13 17
f 16 14 19
f 17 19 14
f 14 15 17
f 18 17 15
f 13 11 18
f 11 13 8
f 11 8 7
f 7 8 2
f 2 8 3
f 15 18 11
f 11 18 15
f 3 8 2
f 2 8 7
f 7 8 11
f 8 13 11
f 18 11 13
f 1 6 5
f 6 1 9
f 12 10 9
f 10 12 19
f 10 19 16
f 9 10 6
f 6 10 9
f 16 19 10
f 19 12 10
f 9 10 12
f 9 1 6
f 5 6 1
f 20 21 22
f 21 20 23
f 21 23 24
f 24 23 25
f 25 23 26
f 27 22 21
f 28 25 26
f 25 28 29
f 25 30 24
f 30 25 31
f 24 30 32
f 29 31 25
f 31 29 33
f 31 33 34
f 32 21 24
f 21 32 35
f 36 37 38
f 37 36 39
f 38 37 40
f 27 39 36
f 39 27 21
f 39 21 35
f 36 22 27
f 22 36 41
f 42 22 41
f 22 42 20
f 20 43 23
f 43 20 42
f 23 28 26
f 28 23 43
f 28 33 29
f 36 42 41
f 42 36 38
f 42 38 43
f 43 38 33
f 43 33 28
f 31 39 30
f 39 31 37
f 32 39 35
f 39 32 30
f 33 40 34
f 40 33 38
f 31 40 37
f 40 31 34
f 35 34 32
f 34 35 40
f 44 45 46
f 47 46 45
f 48 49 50
f 50 49 46
f 49 51 46
f 46 51 44
f 51 52 44
f 44 52 53
f 52 54 53
f 53 54 55
f 54 56 55
f 55 56 57
f 56 58 57
f 57 58 59
f 58 60 59
f 59 60 61
f 60 62 61
f 61 62 63
f 62 64 63
f 63 64 65
f 64 66 65
f 65 66 67
f 66 68 67
f 69 67 68
f 46 47 50
f 70 50 47
f 71 70 72
f 72 70 73
f 70 47 73
f 73 47 74
f 47 45 74
f 74 45 75
f 45 76 75
f 76 77 75
f 75 77 78
f 78 77 79
f 79 77 80
f 77 81 80
f 82 83 81
f 80 81 83
f 77 76 84
f 76 85 84
f 85 86 84
f 86 87 84
f 84 87 82
f 82 87 83
f 87 88 83
f 83 88 89
f 88 90 89
f 89 90 91
f 90 92 91
f 91 92 93
f 92 94 93
f 95 93 94
f 44 53 45
f 76 45 53
f 49 72 51
f 73 51 72
f 48 71 49
f 72 49 71
f 50 70 48
f 71 48 70
f 53 55 76
f 85 76 55
f 55 57 85
f 86 85 57
f 57 59 86
f 87 86 59
f 59 61 87
f 88 87 61
f 61 63 88
f 90 88 63
f 90 63 92
f 65 92 63
f 92 65 94
f 67 94 65
f 94 67 95
f 69 95 67
f 95 69 93
f 68 93 69
f 93 68 91
f 66 91 68
f 91 66 89
f 64 89 66
f 64 62 89
f 83 89 62
f 62 60 83
f 80 83 60
f 60 58 80
f 79 80 58
f 58 56 79
f 78 79 56
f 56 54 78
f 75 78 54
f 54 52 75
f 74 75 52
f 51 73 52
f 74 52 73
f 82 96 97
f 97 96 98
f 99 98 96
f 81 96 82
f 84 82 100
f 97 100 82
f 101 100 98
f 97 98 100
f 99 102 98
f 101 98 102
f 103 102 96
f 99 96 102
f 81 77 96
f 103 96 77
f 84 100 77
f 77 100 103
f 103 100 102
f 101 102 100
f 104 105 106
f 105 104 107
f 108 109 110
f 109 108 111
f 109 111 112
f 112 111 113
f 112 113 114
f 114 113 115
f 114 115 116
f 116 115 117
f 116 117 118
f 118 117 119
f 118 119 120
f 120 119 121
f 120 121 122
f 122 121 123
f 122 123 124
f 124 123 125
f 124 125 107
f 107 125 126
f 107 126 105
f 105 126 127
f 105 127 128
f 128 127 129
f 106 128 130
f 128 106 105
f 131 132 133
f 132 131 134
f 132 134 135
f 135 134 136
f 135 136 137
f 137 136 138
f 137 138 139
f 139 138 140
f 139 140 141
f 141 140 142
f 142 140 143
f 142 143 144
f 142 144 145
f 142 145 146
f 139 147 148
f 147 139 141
f 148 147 146
f 148 146 149
f 149 146 150
f 150 146 151
f 151 146 145
f 151 145 104
f 151 104 152
f 152 104 106
f 152 106 153
f 153 106 130
f 153 130 154
f 154 130 155
f 124 104 145
f 104 124 107
f 154 126 153
f 126 154 127
f 155 127 154
f 127 155 129
f 130 129 155
f 129 130 128
f 122 145 144
f 145 122 124
f 120 144 143
f 144 120 122
f 118 143 140
f 143 118 120
f 116 140 138
f 140 116 118
f 114 138 136
f 138 114 116
f 114 134 112
f 134 114 136
f 112 131 109
f 131 112 134
f 109 133 110
f 133 109 131
f 110 132 108
f 132 110 133
f 108 135 111
f 135 108 132
f 111 137 113
f 137 111 135
f 115 137 139
f 137 115 113
f 117 139 148
f 139 117 115
f 119 148 149
f 148 119 117
f 121 149 150
f 149 121 119
f 123 150 151
f 150 123 121
f 125 151 152
f 151 125 123
f 153 125 152
f 125 153 126
f 141 156 147
f 156 157 158
f 157 156 159
f 159 156 141
f 141 160 159
f 160 141 142
f 160 157 159
f 157 160 161
f 162 157 161
f 157 162 158
f 162 156 158
f 156 162 163
f 146 156 163
f 156 146 147
f 160 162 161
f 162 160 163
f 163 160 146
f 146 160 142

