# https://github.com/mikedh/trimesh
v 0.07000000 -0.04200000 -0.06200000
v 0.07000000 -0.04200000 -0.05800000
v 0.07000000 -0.03800000 -0.06200000
v 0.07000000 -0.03800000 -0.05800000
v 0.07400000 -0.04200000 -0.06200000
v 0.07400000 -0.04200000 -0.05800000
v 0.07400000 -0.03800000 -0.06200000
v 0.07000000 -0.04200000 -0.05400000
v 0.07000000 -0.03800000 -0.05400000
v 0.07400000 -0.04200000 -0.05400000
v 0.07000000 -0.04200000 -0.05000000
v 0.07000000 -0.03800000 -0.05000000
v 0.07400000 -0.04200000 -0.05000000
v 0.07000000 -0.04200000 -0.04600000
v 0.07000000 -0.03800000 -0.04600000
v 0.07400000 -0.04200000 -0.04600000
v 0.07000000 -0.04200000 -0.04200000
v 0.07000000 -0.03800000 -0.04200000
v 0.07400000 -0.04200000 -0.04200000
v 0.07000000 -0.04200000 -0.03800000
v 0.07000000 -0.03800000 -0.03800000
v 0.07400000 -0.04200000 -0.03800000
v 0.07400000 -0.03800000 -0.03800000
v 0.07000000 -0.03800000 -0.07400000
v 0.07000000 -0.03800000 -0.07000000
v 0.07000000 -0.03400000 -0.07400000
v 0.07000000 -0.03400000 -0.07000000
v 0.07400000 -0.03800000 -0.07400000
v 0.07400000 -0.03800000 -0.07000000
v 0.07400000 -0.03400000 -0.07400000
v 0.07000000 -0.03800000 -0.06600000
v 0.07000000 -0.03400000 -0.06600000
v 0.07400000 -0.03800000 -0.06600000
v 0.07000000 -0.03400000 -0.06200000
v 0.07000000 -0.03400000 -0.05800000
v 0.07000000 -0.03400000 -0.05400000
v 0.07400000 -0.03800000 -0.05800000
v 0.07400000 -0.03800000 -0.05400000
v 0.07400000 -0.03400000 -0.05800000
v 0.07400000 -0.03400000 -0.05400000
v 0.07000000 -0.03400000 -0.05000000
v 0.07400000 -0.03800000 -0.05000000
v 0.07400000 -0.03400000 -0.05000000
v 0.07000000 -0.03400000 -0.04600000
v 0.07400000 -0.03800000 -0.04600000
v 0.07400000 -0.03400000 -0.04600000
v 0.07000000 -0.03400000 -0.04200000
v 0.07400000 -0.03800000 -0.04200000
v 0.07400000 -0.03400000 -0.04200000
v 0.07000000 -0.03400000 -0.03800000
v 0.07000000 -0.03800000 -0.03400000
v 0.07000000 -0.03400000 -0.03400000
v 0.07400000 -0.03800000 -0.03400000
v 0.07000000 -0.03800000 -0.03000000
v 0.07000000 -0.03400000 -0.03000000
v 0.07400000 -0.03800000 -0.03000000
v 0.07000000 -0.03800000 -0.02600000
v 0.07000000 -0.03400000 -0.02600000
v 0.07400000 -0.03800000 -0.02600000
v 0.07400000 -0.03400000 -0.02600000
v 0.07000000 -0.03400000 -0.07800000
v 0.07000000 -0.03000000 -0.07800000
v 0.07000000 -0.03000000 -0.07400000
v 0.07400000 -0.03400000 -0.07800000
v 0.07400000 -0.03000000 -0.07800000
v 0.07000000 -0.03000000 -0.07000000
v 0.07000000 -0.03000000 -0.06600000
v 0.07400000 -0.03400000 -0.07000000
v 0.07400000 -0.03400000 -0.06600000
v 0.07400000 -0.03000000 -0.07000000
v 0.07400000 -0.03000000 -0.06600000
v 0.07000000 -0.03000000 -0.06200000
v 0.07400000 -0.03400000 -0.06200000
v 0.07400000 -0.03000000 -0.06200000
v 0.07000000 -0.03000000 -0.05800000
v 0.07400000 -0.03000000 -0.05800000
v 0.07000000 -0.03000000 -0.04200000
v 0.07000000 -0.03000000 -0.03800000
v 0.07400000 -0.03400000 -0.03800000
v 0.07400000 -0.03000000 -0.04200000
v 0.07400000 -0.03000000 -0.03800000
v 0.07000000 -0.03000000 -0.03400000
v 0.07400000 -0.03400000 -0.03400000
v 0.07400000 -0.03000000 -0.03400000
v 0.07000000 -0.03000000 -0.03000000
v 0.07400000 -0.03400000 -0.03000000
v 0.07400000 -0.03000000 -0.03000000
v 0.07000000 -0.03000000 -0.02600000
v 0.07000000 -0.03400000 -0.02200000
v 0.07000000 -0.03000000 -0.02200000
v 0.07400000 -0.03400000 -0.02200000
v 0.07400000 -0.03000000 -0.02200000
v 0.07000000 -0.03000000 -0.08200000
v 0.07000000 -0.02600000 -0.08200000
v 0.07000000 -0.02600000 -0.07800000
v 0.07400000 -0.03000000 -0.08200000
v 0.07400000 -0.02600000 -0.08200000
v 0.07000000 -0.02600000 -0.07400000
v 0.07000000 -0.02600000 -0.07000000
v 0.07400000 -0.03000000 -0.07400000
v 0.07400000 -0.02600000 -0.07400000
v 0.07400000 -0.02600000 -0.07000000
v 0.07000000 -0.02600000 -0.06600000
v 0.07400000 -0.02600000 -0.06600000
v 0.07000000 -0.02600000 -0.03400000
v 0.07000000 -0.02600000 -0.03000000
v 0.07400000 -0.02600000 -0.03400000
v 0.07400000 -0.02600000 -0.03000000
v 0.07000000 -0.02600000 -0.02600000
v 0.07400000 -0.03000000 -0.02600000
v 0.07400000 -0.02600000 -0.02600000
v 0.07000000 -0.02600000 -0.02200000
v 0.07000000 -0.03000000 -0.01800000
v 0.07000000 -0.02600000 -0.01800000
v 0.07400000 -0.03000000 -0.01800000
v 0.07400000 -0.02600000 -0.01800000
v 0.07000000 -0.02600000 -0.08600000
v 0.07000000 -0.02200000 -0.08600000
v 0.07000000 -0.02200000 -0.08200000
v 0.07400000 -0.02600000 -0.08600000
v 0.07400000 -0.02200000 -0.08600000
v 0.07000000 -0.02200000 -0.07800000
v 0.07000000 -0.02200000 -0.07400000
v 0.07400000 -0.02600000 -0.07800000
v 0.07400000 -0.02200000 -0.07800000
v 0.07400000 -0.02200000 -0.07400000
v 0.07000000 -0.02200000 -0.03000000
v 0.07000000 -0.02200000 -0.02600000
v 0.07400000 -0.02200000 -0.03000000
v 0.07400000 -0.02200000 -0.02600000
v 0.07000000 -0.02200000 -0.02200000
v 0.07400000 -0.02600000 -0.02200000
v 0.07400000 -0.02200000 -0.02200000
v 0.07000000 -0.02200000 -0.01800000
v 0.07000000 -0.02600000 -0.01400000
v 0.07000000 -0.02200000 -0.01400000
v 0.07400000 -0.02600000 -0.01400000
v 0.07400000 -0.02200000 -0.01400000
v 0.07000000 -0.01800000 -0.08600000
v 0.07000000 -0.01800000 -0.08200000
v 0.07400000 -0.01800000 -0.08600000
v 0.07000000 -0.01800000 -0.07800000
v 0.07400000 -0.02200000 -0.08200000
v 0.07400000 -0.01800000 -0.08200000
v 0.07400000 -0.01800000 -0.07800000
v 0.07000000 -0.01800000 -0.07400000
v 0.07400000 -0.01800000 -0.07400000
v 0.07000000 -0.01800000 -0.02600000
v 0.07000000 -0.01800000 -0.02200000
v 0.07400000 -0.01800000 -0.02600000
v 0.07400000 -0.01800000 -0.02200000
v 0.07000000 -0.01800000 -0.01800000
v 0.07400000 -0.02200000 -0.01800000
v 0.07400000 -0.01800000 -0.01800000
v 0.07000000 -0.01800000 -0.01400000
v 0.07400000 -0.01800000 -0.01400000
v 0.07000000 -0.01800000 -0.09000000
v 0.07000000 -0.01400000 -0.09000000
v 0.07000000 -0.01400000 -0.08600000
v 0.07400000 -0.01800000 -0.09000000
v 0.07400000 -0.01400000 -0.09000000
v 0.07000000 -0.01400000 -0.08200000
v 0.07000000 -0.01400000 -0.07800000
v 0.07400000 -0.01400000 -0.08200000
v 0.07400000 -0.01400000 -0.07800000
v 0.07000000 -0.01400000 -0.02200000
v 0.07000000 -0.01400000 -0.01800000
v 0.07400000 -0.01400000 -0.02200000
v 0.07400000 -0.01400000 -0.01800000
v 0.07000000 -0.01400000 -0.01400000
v 0.07000000 -0.01800000 -0.01000000
v 0.07000000 -0.01400000 -0.01000000
v 0.07400000 -0.01800000 -0.01000000
v 0.07400000 -0.01400000 -0.01000000
v 0.07000000 -0.01000000 -0.09000000
v 0.07000000 -0.01000000 -0.08600000
v 0.07400000 -0.01000000 -0.09000000
v 0.07000000 -0.01000000 -0.08200000
v 0.07400000 -0.01400000 -0.08600000
v 0.07400000 -0.01000000 -0.08600000
v 0.07400000 -0.01000000 -0.08200000
v 0.07000000 -0.01000000 -0.01800000
v 0.07000000 -0.01000000 -0.01400000
v 0.07400000 -0.01400000 -0.01400000
v 0.07400000 -0.01000000 -0.01800000
v 0.07400000 -0.01000000 -0.01400000
v 0.07000000 -0.01000000 -0.01000000
v 0.07400000 -0.01000000 -0.01000000
v 0.07000000 -0.00600000 -0.09000000
v 0.07000000 -0.00600000 -0.08600000
v 0.07400000 -0.00600000 -0.09000000
v 0.07000000 -0.00600000 -0.08200000
v 0.07400000 -0.00600000 -0.08600000
v 0.07400000 -0.00600000 -0.08200000
v 0.07000000 -0.00600000 -0.01800000
v 0.07000000 -0.00600000 -0.01400000
v 0.07400000 -0.00600000 -0.01800000
v 0.07400000 -0.00600000 -0.01400000
v 0.07000000 -0.00600000 -0.01000000
v 0.07400000 -0.00600000 -0.01000000
v 0.07000000 -0.00200000 -0.09000000
v 0.07000000 -0.00200000 -0.08600000
v 0.07400000 -0.00200000 -0.09000000
v 0.07000000 -0.00200000 -0.08200000
v 0.07400000 -0.00200000 -0.08600000
v 0.07400000 -0.00200000 -0.08200000
v 0.07000000 -0.00200000 -0.01800000
v 0.07000000 -0.00200000 -0.01400000
v 0.07400000 -0.00200000 -0.01800000
v 0.07400000 -0.00200000 -0.01400000
v 0.07000000 -0.00200000 -0.01000000
v 0.07400000 -0.00200000 -0.01000000
v 0.07000000 0.00200000 -0.09000000
v 0.07000000 0.00200000 -0.08600000
v 0.07400000 0.00200000 -0.09000000
v 0.07000000 0.00200000 -0.08200000
v 0.07400000 0.00200000 -0.08600000
v 0.07400000 0.00200000 -0.08200000
v 0.07000000 0.00200000 -0.01800000
v 0.07000000 0.00200000 -0.01400000
v 0.07400000 0.00200000 -0.01800000
v 0.07400000 0.00200000 -0.01400000
v 0.07000000 0.00200000 -0.01000000
v 0.07400000 0.00200000 -0.01000000
v 0.07000000 0.00600000 -0.09000000
v 0.07000000 0.00600000 -0.08600000
v 0.07400000 0.00600000 -0.09000000
v 0.07000000 0.00600000 -0.08200000
v 0.07400000 0.00600000 -0.08600000
v 0.07400000 0.00600000 -0.08200000
v 0.07000000 0.00600000 -0.01800000
v 0.07000000 0.00600000 -0.01400000
v 0.07400000 0.00600000 -0.01800000
v 0.07400000 0.00600000 -0.01400000
v 0.07000000 0.00600000 -0.01000000
v 0.07400000 0.00600000 -0.01000000
v 0.07000000 0.01000000 -0.09000000
v 0.07000000 0.01000000 -0.08600000
v 0.07400000 0.01000000 -0.09000000
v 0.07000000 0.01000000 -0.08200000
v 0.07400000 0.01000000 -0.08600000
v 0.07400000 0.01000000 -0.08200000
v 0.07000000 0.01000000 -0.01800000
v 0.07000000 0.01000000 -0.01400000
v 0.07400000 0.01000000 -0.01800000
v 0.07400000 0.01000000 -0.01400000
v 0.07000000 0.01000000 -0.01000000
v 0.07400000 0.01000000 -0.01000000
v 0.07000000 0.01400000 -0.09000000
v 0.07000000 0.01400000 -0.08600000
v 0.07400000 0.01400000 -0.09000000
v 0.07000000 0.01400000 -0.08200000
v 0.07400000 0.01400000 -0.08600000
v 0.07400000 0.01400000 -0.08200000
v 0.07000000 0.01400000 -0.01800000
v 0.07000000 0.01400000 -0.01400000
v 0.07400000 0.01400000 -0.01800000
v 0.07400000 0.01400000 -0.01400000
v 0.07000000 0.01400000 -0.01000000
v 0.07400000 0.01400000 -0.01000000
v 0.07000000 0.01800000 -0.09000000
v 0.07000000 0.01800000 -0.08600000
v 0.07400000 0.01800000 -0.09000000
v 0.07400000 0.01800000 -0.08600000
v 0.07000000 0.01800000 -0.08200000
v 0.07000000 0.01400000 -0.07800000
v 0.07000000 0.01800000 -0.07800000
v 0.07400000 0.01400000 -0.07800000
v 0.07400000 0.01800000 -0.08200000
v 0.07400000 0.01800000 -0.07800000
v 0.07000000 0.01400000 -0.02200000
v 0.07000000 0.01800000 -0.02200000
v 0.07000000 0.01800000 -0.01800000
v 0.07400000 0.01400000 -0.02200000
v 0.07400000 0.01800000 -0.02200000
v 0.07400000 0.01800000 -0.01800000
v 0.07000000 0.01800000 -0.01400000
v 0.07000000 0.01800000 -0.01000000
v 0.07400000 0.01800000 -0.01400000
v 0.07400000 0.01800000 -0.01000000
v 0.07000000 0.02200000 -0.08600000
v 0.07000000 0.02200000 -0.08200000
v 0.07400000 0.02200000 -0.08600000
v 0.07000000 0.02200000 -0.07800000
v 0.07400000 0.02200000 -0.08200000
v 0.07400000 0.02200000 -0.07800000
v 0.07000000 0.01800000 -0.07400000
v 0.07000000 0.02200000 -0.07400000
v 0.07400000 0.01800000 -0.07400000
v 0.07400000 0.02200000 -0.07400000
v 0.07000000 0.01800000 -0.02600000
v 0.07000000 0.02200000 -0.02600000
v 0.07000000 0.02200000 -0.02200000
v 0.07400000 0.01800000 -0.02600000
v 0.07400000 0.02200000 -0.02600000
v 0.07400000 0.02200000 -0.02200000
v 0.07000000 0.02200000 -0.01800000
v 0.07400000 0.02200000 -0.01800000
v 0.07000000 0.02200000 -0.01400000
v 0.07400000 0.02200000 -0.01400000
v 0.07000000 0.02600000 -0.08600000
v 0.07000000 0.02600000 -0.08200000
v 0.07400000 0.02600000 -0.08600000
v 0.07400000 0.02600000 -0.08200000
v 0.07000000 0.02600000 -0.07800000
v 0.07000000 0.02600000 -0.07400000
v 0.07400000 0.02600000 -0.07800000
v 0.07400000 0.02600000 -0.07400000
v 0.07000000 0.02200000 -0.03000000
v 0.07000000 0.02600000 -0.03000000
v 0.07000000 0.02600000 -0.02600000
v 0.07400000 0.02200000 -0.03000000
v 0.07400000 0.02600000 -0.03000000
v 0.07400000 0.02600000 -0.02600000
v 0.07000000 0.02600000 -0.02200000
v 0.07400000 0.02600000 -0.02200000
v 0.07000000 0.02600000 -0.01800000
v 0.07000000 0.02600000 -0.01400000
v 0.07400000 0.02600000 -0.01800000
v 0.07400000 0.02600000 -0.01400000
v 0.07000000 0.03000000 -0.08200000
v 0.07000000 0.03000000 -0.07800000
v 0.07400000 0.03000000 -0.08200000
v 0.07400000 0.03000000 -0.07800000
v 0.07000000 0.03000000 -0.07400000
v 0.07000000 0.02600000 -0.07000000
v 0.07000000 0.03000000 -0.07000000
v 0.07400000 0.02600000 -0.07000000
v 0.07400000 0.03000000 -0.07400000
v 0.07400000 0.03000000 -0.07000000
v 0.07000000 0.02600000 -0.06600000
v 0.07000000 0.03000000 -0.06600000
v 0.07400000 0.02600000 -0.06600000
v 0.07400000 0.03000000 -0.06600000
v 0.07000000 0.02600000 -0.03400000
v 0.07000000 0.03000000 -0.03400000
v 0.07000000 0.03000000 -0.03000000
v 0.07400000 0.02600000 -0.03400000
v 0.07400000 0.03000000 -0.03400000
v 0.07400000 0.03000000 -0.03000000
v 0.07000000 0.03000000 -0.02600000
v 0.07400000 0.03000000 -0.02600000
v 0.07000000 0.03000000 -0.02200000
v 0.07000000 0.03000000 -0.01800000
v 0.07400000 0.03000000 -0.02200000
v 0.07400000 0.03000000 -0.01800000
v 0.07000000 0.03400000 -0.07800000
v 0.07000000 0.03400000 -0.07400000
v 0.07400000 0.03400000 -0.07800000
v 0.07400000 0.03400000 -0.07400000
v 0.07000000 0.03400000 -0.07000000
v 0.07000000 0.03400000 -0.06600000
v 0.07400000 0.03400000 -0.07000000
v 0.07400000 0.03400000 -0.06600000
v 0.07000000 0.03000000 -0.06200000
v 0.07000000 0.03400000 -0.06200000
v 0.07400000 0.03000000 -0.06200000
v 0.07400000 0.03400000 -0.06200000
v 0.07000000 0.03000000 -0.05800000
v 0.07000000 0.03400000 -0.05800000
v 0.07400000 0.03000000 -0.05800000
v 0.07400000 0.03400000 -0.05800000
v 0.07000000 0.03000000 -0.04200000
v 0.07000000 0.03000000 -0.03800000
v 0.07000000 0.03400000 -0.04200000
v 0.07000000 0.03400000 -0.03800000
v 0.07400000 0.03000000 -0.04200000
v 0.07400000 0.03000000 -0.03800000
v 0.07400000 0.03400000 -0.04200000
v 0.07400000 0.03400000 -0.03800000
v 0.07000000 0.03400000 -0.03400000
v 0.07400000 0.03400000 -0.03400000
v 0.07000000 0.03400000 -0.03000000
v 0.07400000 0.03400000 -0.03000000
v 0.07000000 0.03400000 -0.02600000
v 0.07000000 0.03400000 -0.02200000
v 0.07400000 0.03400000 -0.02600000
v 0.07400000 0.03400000 -0.02200000
v 0.07000000 0.03800000 -0.07400000
v 0.07000000 0.03800000 -0.07000000
v 0.07400000 0.03800000 -0.07400000
v 0.07400000 0.03800000 -0.07000000
v 0.07000000 0.03800000 -0.06600000
v 0.07400000 0.03800000 -0.06600000
v 0.07000000 0.03800000 -0.06200000
v 0.07400000 0.03800000 -0.06200000
v 0.07000000 0.03800000 -0.05800000
v 0.07000000 0.03400000 -0.05400000
v 0.07000000 0.03800000 -0.05400000
v 0.07400000 0.03400000 -0.05400000
v 0.07400000 0.03800000 -0.05800000
v 0.07400000 0.03800000 -0.05400000
v 0.07000000 0.03400000 -0.05000000
v 0.07000000 0.03800000 -0.05000000
v 0.07400000 0.03400000 -0.05000000
v 0.07400000 0.03800000 -0.05000000
v 0.07000000 0.03400000 -0.04600000
v 0.07000000 0.03800000 -0.04600000
v 0.07400000 0.03400000 -0.04600000
v 0.07400000 0.03800000 -0.04600000
v 0.07000000 0.03800000 -0.04200000
v 0.07400000 0.03800000 -0.04200000
v 0.07000000 0.03800000 -0.03800000
v 0.07000000 0.03800000 -0.03400000
v 0.07400000 0.03800000 -0.03800000
v 0.07400000 0.03800000 -0.03400000
v 0.07000000 0.03800000 -0.03000000
v 0.07400000 0.03800000 -0.03000000
v 0.07000000 0.03800000 -0.02600000
v 0.07400000 0.03800000 -0.02600000
v 0.07000000 0.04200000 -0.06200000
v 0.07000000 0.04200000 -0.05800000
v 0.07400000 0.04200000 -0.06200000
v 0.07400000 0.04200000 -0.05800000
v 0.07000000 0.04200000 -0.05400000
v 0.07400000 0.04200000 -0.05400000
v 0.07000000 0.04200000 -0.05000000
v 0.07400000 0.04200000 -0.05000000
v 0.07000000 0.04200000 -0.04600000
v 0.07400000 0.04200000 -0.04600000
v 0.07000000 0.04200000 -0.04200000
v 0.07400000 0.04200000 -0.04200000
v 0.07000000 0.04200000 -0.03800000
v 0.07400000 0.04200000 -0.03800000
v 0.07800000 -0.04200000 -0.06200000
v 0.07800000 -0.04200000 -0.05800000
v 0.07800000 -0.03800000 -0.06200000
v 0.07800000 -0.04200000 -0.05400000
v 0.07800000 -0.03800000 -0.05800000
v 0.07800000 -0.03800000 -0.05400000
v 0.07800000 -0.04200000 -0.05000000
v 0.07800000 -0.03800000 -0.05000000
v 0.07800000 -0.04200000 -0.04600000
v 0.07800000 -0.03800000 -0.04600000
v 0.07800000 -0.04200000 -0.04200000
v 0.07800000 -0.03800000 -0.04200000
v 0.07800000 -0.04200000 -0.03800000
v 0.07800000 -0.03800000 -0.03800000
v 0.07800000 -0.03800000 -0.07400000
v 0.07800000 -0.03800000 -0.07000000
v 0.07800000 -0.03400000 -0.07400000
v 0.07800000 -0.03800000 -0.06600000
v 0.07800000 -0.03400000 -0.07000000
v 0.07800000 -0.03400000 -0.06600000
v 0.07800000 -0.03400000 -0.06200000
v 0.07800000 -0.03400000 -0.05800000
v 0.07800000 -0.03400000 -0.04200000
v 0.07800000 -0.03400000 -0.03800000
v 0.07800000 -0.03800000 -0.03400000
v 0.07800000 -0.03400000 -0.03400000
v 0.07800000 -0.03800000 -0.03000000
v 0.07800000 -0.03400000 -0.03000000
v 0.07800000 -0.03800000 -0.02600000
v 0.07800000 -0.03400000 -0.02600000
v 0.07800000 -0.03400000 -0.07800000
v 0.07800000 -0.03000000 -0.07800000
v 0.07800000 -0.03000000 -0.07400000
v 0.07800000 -0.03000000 -0.07000000
v 0.07800000 -0.03000000 -0.03000000
v 0.07800000 -0.03000000 -0.02600000
v 0.07800000 -0.03400000 -0.02200000
v 0.07800000 -0.03000000 -0.02200000
v 0.07800000 -0.03000000 -0.08200000
v 0.07800000 -0.02600000 -0.08200000
v 0.07800000 -0.02600000 -0.07800000
v 0.07800000 -0.02600000 -0.07400000
v 0.07800000 -0.02600000 -0.02600000
v 0.07800000 -0.02600000 -0.02200000
v 0.07800000 -0.03000000 -0.01800000
v 0.07800000 -0.02600000 -0.01800000
v 0.07800000 -0.02600000 -0.08600000
v 0.07800000 -0.02200000 -0.08600000
v 0.07800000 -0.02200000 -0.08200000
v 0.07800000 -0.02200000 -0.07800000
v 0.07800000 -0.02200000 -0.02200000
v 0.07800000 -0.02200000 -0.01800000
v 0.07800000 -0.02600000 -0.01400000
v 0.07800000 -0.02200000 -0.01400000
v 0.07800000 -0.01800000 -0.08600000
v 0.07800000 -0.01800000 -0.08200000
v 0.07800000 -0.01800000 -0.01800000
v 0.07800000 -0.01800000 -0.01400000
v 0.07800000 -0.01800000 -0.09000000
v 0.07800000 -0.01400000 -0.09000000
v 0.07800000 -0.01400000 -0.08600000
v 0.07800000 -0.01400000 -0.08200000
v 0.07800000 -0.01400000 -0.01800000
v 0.07800000 -0.01400000 -0.01400000
v 0.07800000 -0.01800000 -0.01000000
v 0.07800000 -0.01400000 -0.01000000
v 0.07800000 -0.01000000 -0.09000000
v 0.07800000 -0.01000000 -0.08600000
v 0.07800000 -0.01000000 -0.01400000
v 0.07800000 -0.01000000 -0.01000000
v 0.07800000 -0.00600000 -0.09000000
v 0.07800000 -0.00600000 -0.08600000
v 0.07800000 -0.00600000 -0.01400000
v 0.07800000 -0.00600000 -0.01000000
v 0.07800000 -0.00200000 -0.09000000
v 0.07800000 -0.00200000 -0.08600000
v 0.07800000 -0.00200000 -0.01400000
v 0.07800000 -0.00200000 -0.01000000
v 0.07800000 0.00200000 -0.09000000
v 0.07800000 0.00200000 -0.08600000
v 0.07800000 0.00200000 -0.01400000
v 0.07800000 0.00200000 -0.01000000
v 0.07800000 0.00600000 -0.09000000
v 0.07800000 0.00600000 -0.08600000
v 0.07800000 0.00600000 -0.01400000
v 0.07800000 0.00600000 -0.01000000
v 0.07800000 0.01000000 -0.09000000
v 0.07800000 0.01000000 -0.08600000
v 0.07800000 0.01000000 -0.01400000
v 0.07800000 0.01000000 -0.01000000
v 0.07800000 0.01400000 -0.09000000
v 0.07800000 0.01400000 -0.08600000
v 0.07800000 0.01400000 -0.01400000
v 0.07800000 0.01400000 -0.01000000
v 0.07800000 0.01800000 -0.09000000
v 0.07800000 0.01800000 -0.08600000
v 0.07800000 0.01400000 -0.08200000
v 0.07800000 0.01800000 -0.08200000
v 0.07800000 0.01400000 -0.01800000
v 0.07800000 0.01800000 -0.01800000
v 0.07800000 0.01800000 -0.01400000
v 0.07800000 0.01800000 -0.01000000
v 0.07800000 0.02200000 -0.08600000
v 0.07800000 0.02200000 -0.08200000
v 0.07800000 0.02200000 -0.01800000
v 0.07800000 0.02200000 -0.01400000
v 0.07800000 0.02600000 -0.08600000
v 0.07800000 0.02600000 -0.08200000
v 0.07800000 0.02200000 -0.07800000
v 0.07800000 0.02600000 -0.07800000
v 0.07800000 0.02200000 -0.02200000
v 0.07800000 0.02600000 -0.02200000
v 0.07800000 0.02600000 -0.01800000
v 0.07800000 0.02600000 -0.01400000
v 0.07800000 0.03000000 -0.08200000
v 0.07800000 0.03000000 -0.07800000
v 0.07800000 0.02600000 -0.07400000
v 0.07800000 0.03000000 -0.07400000
v 0.07800000 0.02600000 -0.02600000
v 0.07800000 0.03000000 -0.02600000
v 0.07800000 0.03000000 -0.02200000
v 0.07800000 0.03000000 -0.01800000
v 0.07800000 0.03400000 -0.07800000
v 0.07800000 0.03400000 -0.07400000
v 0.07800000 0.03000000 -0.07000000
v 0.07800000 0.03400000 -0.07000000
v 0.07800000 0.03000000 -0.03000000
v 0.07800000 0.03400000 -0.03000000
v 0.07800000 0.03400000 -0.02600000
v 0.07800000 0.03400000 -0.02200000
v 0.07800000 0.03800000 -0.07400000
v 0.07800000 0.03800000 -0.07000000
v 0.07800000 0.03400000 -0.06600000
v 0.07800000 0.03800000 -0.06600000
v 0.07800000 0.03400000 -0.06200000
v 0.07800000 0.03800000 -0.06200000
v 0.07800000 0.03400000 -0.05800000
v 0.07800000 0.03800000 -0.05800000
v 0.07800000 0.03400000 -0.04200000
v 0.07800000 0.03400000 -0.03800000
v 0.07800000 0.03800000 -0.04200000
v 0.07800000 0.03400000 -0.03400000
v 0.07800000 0.03800000 -0.03800000
v 0.07800000 0.03800000 -0.03400000
v 0.07800000 0.03800000 -0.03000000
v 0.07800000 0.03800000 -0.02600000
v 0.07800000 0.04200000 -0.06200000
v 0.07800000 0.04200000 -0.05800000
v 0.07800000 0.03800000 -0.05400000
v 0.07800000 0.04200000 -0.05400000
v 0.07800000 0.03800000 -0.05000000
v 0.07800000 0.04200000 -0.05000000
v 0.07800000 0.03800000 -0.04600000
v 0.07800000 0.04200000 -0.04600000
v 0.07800000 0.04200000 -0.04200000
v 0.07800000 0.04200000 -0.03800000
v 0.08200000 -0.04200000 -0.06200000
v 0.08200000 -0.04200000 -0.05800000
v 0.08200000 -0.03800000 -0.06200000
v 0.08200000 -0.04200000 -0.05400000
v 0.08200000 -0.03800000 -0.05800000
v 0.08200000 -0.03800000 -0.05400000
v 0.08200000 -0.04200000 -0.05000000
v 0.08200000 -0.03800000 -0.05000000
v 0.08200000 -0.04200000 -0.04600000
v 0.08200000 -0.03800000 -0.04600000
v 0.08200000 -0.04200000 -0.04200000
v 0.08200000 -0.03800000 -0.04200000
v 0.08200000 -0.04200000 -0.03800000
v 0.08200000 -0.03800000 -0.03800000
v 0.08200000 -0.03800000 -0.07400000
v 0.08200000 -0.03800000 -0.07000000
v 0.08200000 -0.03400000 -0.07400000
v 0.08200000 -0.03800000 -0.06600000
v 0.08200000 -0.03400000 -0.07000000
v 0.08200000 -0.03400000 -0.06600000
v 0.08200000 -0.03400000 -0.06200000
v 0.08200000 -0.03400000 -0.05800000
v 0.08200000 -0.03400000 -0.04200000
v 0.08200000 -0.03400000 -0.03800000
v 0.08200000 -0.03800000 -0.03400000
v 0.08200000 -0.03400000 -0.03400000
v 0.08200000 -0.03800000 -0.03000000
v 0.08200000 -0.03400000 -0.03000000
v 0.08200000 -0.03800000 -0.02600000
v 0.08200000 -0.03400000 -0.02600000
v 0.08200000 -0.03400000 -0.07800000
v 0.08200000 -0.03000000 -0.07800000
v 0.08200000 -0.03000000 -0.07400000
v 0.08200000 -0.03000000 -0.07000000
v 0.08200000 -0.03000000 -0.03000000
v 0.08200000 -0.03000000 -0.02600000
v 0.08200000 -0.03400000 -0.02200000
v 0.08200000 -0.03000000 -0.02200000
v 0.08200000 -0.03000000 -0.08200000
v 0.08200000 -0.02600000 -0.08200000
v 0.08200000 -0.02600000 -0.07800000
v 0.08200000 -0.02600000 -0.07400000
v 0.08200000 -0.02600000 -0.02600000
v 0.08200000 -0.02600000 -0.02200000
v 0.08200000 -0.03000000 -0.01800000
v 0.08200000 -0.02600000 -0.01800000
v 0.08200000 -0.02600000 -0.08600000
v 0.08200000 -0.02200000 -0.08600000
v 0.08200000 -0.02200000 -0.08200000
v 0.08200000 -0.02200000 -0.07800000
v 0.08200000 -0.02200000 -0.02200000
v 0.08200000 -0.02200000 -0.01800000
v 0.08200000 -0.02600000 -0.01400000
v 0.08200000 -0.02200000 -0.01400000
v 0.08200000 -0.01800000 -0.08600000
v 0.08200000 -0.01800000 -0.08200000
v 0.08200000 -0.01800000 -0.01800000
v 0.08200000 -0.01800000 -0.01400000
v 0.08200000 -0.01800000 -0.09000000
v 0.08200000 -0.01400000 -0.09000000
v 0.08200000 -0.01400000 -0.08600000
v 0.08200000 -0.01400000 -0.08200000
v 0.08200000 -0.01000000 -0.09000000
v 0.08200000 -0.01000000 -0.08600000
v 0.08200000 -0.00600000 -0.09000000
v 0.08200000 -0.00600000 -0.08600000
v 0.08200000 -0.00200000 -0.09000000
v 0.08200000 -0.00200000 -0.08600000
v 0.08200000 0.00200000 -0.09000000
v 0.08200000 0.00200000 -0.08600000
v 0.08200000 0.00600000 -0.09000000
v 0.08200000 0.00600000 -0.08600000
v 0.08200000 0.01000000 -0.09000000
v 0.08200000 0.01000000 -0.08600000
v 0.08200000 0.01400000 -0.09000000
v 0.08200000 0.01400000 -0.08600000
v 0.08200000 0.01800000 -0.09000000
v 0.08200000 0.01800000 -0.08600000
v 0.08200000 0.01400000 -0.08200000
v 0.08200000 0.01800000 -0.08200000
v 0.08200000 0.02200000 -0.08600000
v 0.08200000 0.02200000 -0.08200000
v 0.08200000 0.01800000 -0.01800000
v 0.08200000 0.01800000 -0.01400000
v 0.08200000 0.02200000 -0.01800000
v 0.08200000 0.02200000 -0.01400000
v 0.08200000 0.02600000 -0.08600000
v 0.08200000 0.02600000 -0.08200000
v 0.08200000 0.02200000 -0.07800000
v 0.08200000 0.02600000 -0.07800000
v 0.08200000 0.02200000 -0.02200000
v 0.08200000 0.02600000 -0.02200000
v 0.08200000 0.02600000 -0.01800000
v 0.08200000 0.02600000 -0.01400000
v 0.08200000 0.03000000 -0.08200000
v 0.08200000 0.03000000 -0.07800000
v 0.08200000 0.02600000 -0.07400000
v 0.08200000 0.03000000 -0.07400000
v 0.08200000 0.02600000 -0.02600000
v 0.08200000 0.03000000 -0.02600000
v 0.08200000 0.03000000 -0.02200000
v 0.08200000 0.03000000 -0.01800000
v 0.08200000 0.03400000 -0.07800000
v 0.08200000 0.03400000 -0.07400000
v 0.08200000 0.03000000 -0.07000000
v 0.08200000 0.03400000 -0.07000000
v 0.08200000 0.03000000 -0.03000000
v 0.08200000 0.03400000 -0.03000000
v 0.08200000 0.03400000 -0.02600000
v 0.08200000 0.03400000 -0.02200000
v 0.08200000 0.03800000 -0.07400000
v 0.08200000 0.03800000 -0.07000000
v 0.08200000 0.03400000 -0.06600000
v 0.08200000 0.03800000 -0.06600000
v 0.08200000 0.03400000 -0.06200000
v 0.08200000 0.03800000 -0.06200000
v 0.08200000 0.03400000 -0.05800000
v 0.08200000 0.03800000 -0.05800000
v 0.08200000 0.03400000 -0.04200000
v 0.08200000 0.03400000 -0.03800000
v 0.08200000 0.03800000 -0.04200000
v 0.08200000 0.03400000 -0.03400000
v 0.08200000 0.03800000 -0.03800000
v 0.08200000 0.03800000 -0.03400000
v 0.08200000 0.03800000 -0.03000000
v 0.08200000 0.03800000 -0.02600000
v 0.08200000 0.04200000 -0.06200000
v 0.08200000 0.04200000 -0.05800000
v 0.08200000 0.03800000 -0.05400000
v 0.08200000 0.04200000 -0.05400000
v 0.08200000 0.03800000 -0.05000000
v 0.08200000 0.04200000 -0.05000000
v 0.08200000 0.03800000 -0.04600000
v 0.08200000 0.04200000 -0.04600000
v 0.08200000 0.04200000 -0.04200000
v 0.08200000 0.04200000 -0.03800000
v 0.08600000 -0.04200000 -0.06200000
v 0.08600000 -0.04200000 -0.05800000
v 0.08600000 -0.03800000 -0.06200000
v 0.08600000 -0.04200000 -0.05400000
v 0.08600000 -0.03800000 -0.05800000
v 0.08600000 -0.03800000 -0.05400000
v 0.08600000 -0.04200000 -0.05000000
v 0.08600000 -0.03800000 -0.05000000
v 0.08600000 -0.04200000 -0.04600000
v 0.08600000 -0.03800000 -0.04600000
v 0.08600000 -0.04200000 -0.04200000
v 0.08600000 -0.03800000 -0.04200000
v 0.08600000 -0.04200000 -0.03800000
v 0.08600000 -0.03800000 -0.03800000
v 0.08600000 -0.03800000 -0.07400000
v 0.08600000 -0.03800000 -0.07000000
v 0.08600000 -0.03400000 -0.07400000
v 0.08600000 -0.03800000 -0.06600000
v 0.08600000 -0.03400000 -0.07000000
v 0.08600000 -0.03400000 -0.06600000
v 0.08600000 -0.03400000 -0.06200000
v 0.08600000 -0.03400000 -0.05800000
v 0.08600000 -0.03400000 -0.04200000
v 0.08600000 -0.03400000 -0.03800000
v 0.08600000 -0.03800000 -0.03400000
v 0.08600000 -0.03400000 -0.03400000
v 0.08600000 -0.03800000 -0.03000000
v 0.08600000 -0.03400000 -0.03000000
v 0.08600000 -0.03800000 -0.02600000
v 0.08600000 -0.03400000 -0.02600000
v 0.08600000 -0.03400000 -0.07800000
v 0.08600000 -0.03000000 -0.07800000
v 0.08600000 -0.03000000 -0.07400000
v 0.08600000 -0.03000000 -0.07000000
v 0.08600000 -0.03000000 -0.03000000
v 0.08600000 -0.03000000 -0.02600000
v 0.08600000 -0.03400000 -0.02200000
v 0.08600000 -0.03000000 -0.02200000
v 0.08600000 -0.03000000 -0.08200000
v 0.08600000 -0.02600000 -0.08200000
v 0.08600000 -0.02600000 -0.07800000
v 0.08600000 -0.02600000 -0.07400000
v 0.08600000 -0.02600000 -0.02600000
v 0.08600000 -0.02600000 -0.02200000
v 0.08600000 -0.03000000 -0.01800000
v 0.08600000 -0.02600000 -0.01800000
v 0.08600000 -0.02600000 -0.08600000
v 0.08600000 -0.02200000 -0.08600000
v 0.08600000 -0.02200000 -0.08200000
v 0.08600000 -0.02200000 -0.07800000
v 0.08600000 -0.02200000 -0.02200000
v 0.08600000 -0.02200000 -0.01800000
v 0.08600000 -0.02600000 -0.01400000
v 0.08600000 -0.02200000 -0.01400000
v 0.08600000 -0.01800000 -0.08600000
v 0.08600000 -0.01800000 -0.08200000
v 0.08600000 -0.01800000 -0.01800000
v 0.08600000 -0.01800000 -0.01400000
v 0.08600000 -0.01800000 -0.09000000
v 0.08600000 -0.01400000 -0.09000000
v 0.08600000 -0.01400000 -0.08600000
v 0.08600000 -0.01400000 -0.08200000
v 0.08600000 -0.01000000 -0.09000000
v 0.08600000 -0.01000000 -0.08600000
v 0.08600000 -0.00600000 -0.09000000
v 0.08600000 -0.00600000 -0.08600000
v 0.08600000 -0.00200000 -0.09000000
v 0.08600000 -0.00200000 -0.08600000
v 0.08600000 0.00200000 -0.09000000
v 0.08600000 0.00200000 -0.08600000
v 0.08600000 0.00600000 -0.09000000
v 0.08600000 0.00600000 -0.08600000
v 0.08600000 0.01000000 -0.09000000
v 0.08600000 0.01000000 -0.08600000
v 0.08600000 0.01400000 -0.09000000
v 0.08600000 0.01400000 -0.08600000
v 0.08600000 0.01800000 -0.09000000
v 0.08600000 0.01800000 -0.08600000
v 0.08600000 0.01400000 -0.08200000
v 0.08600000 0.01800000 -0.08200000
v 0.08600000 0.02200000 -0.08600000
v 0.08600000 0.02200000 -0.08200000
v 0.08600000 0.01800000 -0.01800000
v 0.08600000 0.01800000 -0.01400000
v 0.08600000 0.02200000 -0.01800000
v 0.08600000 0.02200000 -0.01400000
v 0.08600000 0.02600000 -0.08600000
v 0.08600000 0.02600000 -0.08200000
v 0.08600000 0.02200000 -0.07800000
v 0.08600000 0.02600000 -0.07800000
v 0.08600000 0.02200000 -0.02200000
v 0.08600000 0.02600000 -0.02200000
v 0.08600000 0.02600000 -0.01800000
v 0.08600000 0.02600000 -0.01400000
v 0.08600000 0.03000000 -0.08200000
v 0.08600000 0.03000000 -0.07800000
v 0.08600000 0.02600000 -0.07400000
v 0.08600000 0.03000000 -0.07400000
v 0.08600000 0.02600000 -0.02600000
v 0.08600000 0.03000000 -0.02600000
v 0.08600000 0.03000000 -0.02200000
v 0.08600000 0.03000000 -0.01800000
v 0.08600000 0.03400000 -0.07800000
v 0.08600000 0.03400000 -0.07400000
v 0.08600000 0.03000000 -0.07000000
v 0.08600000 0.03400000 -0.07000000
v 0.08600000 0.03000000 -0.03000000
v 0.08600000 0.03400000 -0.03000000
v 0.08600000 0.03400000 -0.02600000
v 0.08600000 0.03400000 -0.02200000
v 0.08600000 0.03800000 -0.07400000
v 0.08600000 0.03800000 -0.07000000
v 0.08600000 0.03400000 -0.06600000
v 0.08600000 0.03800000 -0.06600000
v 0.08600000 0.03400000 -0.06200000
v 0.08600000 0.03800000 -0.06200000
v 0.08600000 0.03400000 -0.05800000
v 0.08600000 0.03800000 -0.05800000
v 0.08600000 0.03400000 -0.04200000
v 0.08600000 0.03400000 -0.03800000
v 0.08600000 0.03800000 -0.04200000
v 0.08600000 0.03400000 -0.03400000
v 0.08600000 0.03800000 -0.03800000
v 0.08600000 0.03800000 -0.03400000
v 0.08600000 0.03800000 -0.03000000
v 0.08600000 0.03800000 -0.02600000
v 0.08600000 0.04200000 -0.06200000
v 0.08600000 0.04200000 -0.05800000
v 0.08600000 0.03800000 -0.05400000
v 0.08600000 0.04200000 -0.05400000
v 0.08600000 0.03800000 -0.05000000
v 0.08600000 0.04200000 -0.05000000
v 0.08600000 0.03800000 -0.04600000
v 0.08600000 0.04200000 -0.04600000
v 0.08600000 0.04200000 -0.04200000
v 0.08600000 0.04200000 -0.03800000
v 0.09000000 -0.04200000 -0.06200000
v 0.09000000 -0.04200000 -0.05800000
v 0.09000000 -0.03800000 -0.06200000
v 0.09000000 -0.03800000 -0.05800000
v 0.09000000 -0.04200000 -0.05400000
v 0.09000000 -0.03800000 -0.05400000
v 0.09000000 -0.04200000 -0.05000000
v 0.09000000 -0.03800000 -0.05000000
v 0.09000000 -0.04200000 -0.04600000
v 0.09000000 -0.03800000 -0.04600000
v 0.09000000 -0.04200000 -0.04200000
v 0.09000000 -0.03800000 -0.04200000
v 0.09000000 -0.04200000 -0.03800000
v 0.09000000 -0.03800000 -0.03800000
v 0.09000000 -0.03800000 -0.07400000
v 0.09000000 -0.03800000 -0.07000000
v 0.09000000 -0.03400000 -0.07400000
v 0.09000000 -0.03400000 -0.07000000
v 0.09000000 -0.03800000 -0.06600000
v 0.09000000 -0.03400000 -0.06600000
v 0.09000000 -0.03400000 -0.06200000
v 0.09000000 -0.03400000 -0.05800000
v 0.08600000 -0.03400000 -0.05400000
v 0.09000000 -0.03400000 -0.05400000
v 0.08600000 -0.03400000 -0.05000000
v 0.09000000 -0.03400000 -0.05000000
v 0.08600000 -0.03400000 -0.04600000
v 0.09000000 -0.03400000 -0.04600000
v 0.09000000 -0.03400000 -0.04200000
v 0.09000000 -0.03400000 -0.03800000
v 0.09000000 -0.03800000 -0.03400000
v 0.09000000 -0.03400000 -0.03400000
v 0.09000000 -0.03800000 -0.03000000
v 0.09000000 -0.03400000 -0.03000000
v 0.09000000 -0.03800000 -0.02600000
v 0.09000000 -0.03400000 -0.02600000
v 0.09000000 -0.03400000 -0.07800000
v 0.09000000 -0.03000000 -0.07800000
v 0.09000000 -0.03000000 -0.07400000
v 0.09000000 -0.03000000 -0.07000000
v 0.08600000 -0.03000000 -0.06600000
v 0.09000000 -0.03000000 -0.06600000
v 0.08600000 -0.03000000 -0.06200000
v 0.09000000 -0.03000000 -0.06200000
v 0.08600000 -0.03000000 -0.05800000
v 0.09000000 -0.03000000 -0.05800000
v 0.08600000 -0.03000000 -0.05400000
v 0.09000000 -0.03000000 -0.05400000
v 0.08600000 -0.03000000 -0.05000000
v 0.09000000 -0.03000000 -0.05000000
v 0.08600000 -0.03000000 -0.04600000
v 0.09000000 -0.03000000 -0.04600000
v 0.08600000 -0.03000000 -0.04200000
v 0.09000000 -0.03000000 -0.04200000
v 0.08600000 -0.03000000 -0.03800000
v 0.09000000 -0.03000000 -0.03800000
v 0.08600000 -0.03000000 -0.03400000
v 0.09000000 -0.03000000 -0.03400000
v 0.09000000 -0.03000000 -0.03000000
v 0.09000000 -0.03000000 -0.02600000
v 0.09000000 -0.03400000 -0.02200000
v 0.09000000 -0.03000000 -0.02200000
v 0.09000000 -0.03000000 -0.08200000
v 0.09000000 -0.02600000 -0.08200000
v 0.09000000 -0.02600000 -0.07800000
v 0.09000000 -0.02600000 -0.07400000
v 0.08600000 -0.02600000 -0.07000000
v 0.09000000 -0.02600000 -0.07000000
v 0.08600000 -0.02600000 -0.06600000
v 0.09000000 -0.02600000 -0.06600000
v 0.08600000 -0.02600000 -0.03400000
v 0.08600000 -0.02600000 -0.03000000
v 0.09000000 -0.02600000 -0.03400000
v 0.09000000 -0.02600000 -0.03000000
v 0.09000000 -0.02600000 -0.02600000
v 0.09000000 -0.02600000 -0.02200000
v 0.09000000 -0.03000000 -0.01800000
v 0.09000000 -0.02600000 -0.01800000
v 0.09000000 -0.02600000 -0.08600000
v 0.09000000 -0.02200000 -0.08600000
v 0.09000000 -0.02200000 -0.08200000
v 0.09000000 -0.02200000 -0.07800000
v 0.08600000 -0.02200000 -0.07400000
v 0.09000000 -0.02200000 -0.07400000
v 0.08600000 -0.02200000 -0.03000000
v 0.08600000 -0.02200000 -0.02600000
v 0.09000000 -0.02200000 -0.03000000
v 0.09000000 -0.02200000 -0.02600000
v 0.09000000 -0.02200000 -0.02200000
v 0.09000000 -0.02200000 -0.01800000
v 0.09000000 -0.02600000 -0.01400000
v 0.09000000 -0.02200000 -0.01400000
v 0.09000000 -0.01800000 -0.08600000
v 0.09000000 -0.01800000 -0.08200000
v 0.08600000 -0.01800000 -0.07800000
v 0.09000000 -0.01800000 -0.07800000
v 0.08600000 -0.01800000 -0.07400000
v 0.09000000 -0.01800000 -0.07400000
v 0.08600000 -0.01800000 -0.02600000
v 0.08600000 -0.01800000 -0.02200000
v 0.09000000 -0.01800000 -0.02600000
v 0.09000000 -0.01800000 -0.02200000
v 0.09000000 -0.01800000 -0.01800000
v 0.09000000 -0.01800000 -0.01400000
v 0.09000000 -0.01800000 -0.09000000
v 0.09000000 -0.01400000 -0.09000000
v 0.09000000 -0.01400000 -0.08600000
v 0.09000000 -0.01400000 -0.08200000
v 0.08600000 -0.01400000 -0.07800000
v 0.09000000 -0.01400000 -0.07800000
v 0.08600000 -0.01400000 -0.02200000
v 0.08600000 -0.01400000 -0.01800000
v 0.09000000 -0.01400000 -0.02200000
v 0.09000000 -0.01400000 -0.01800000
v 0.08600000 -0.01400000 -0.01400000
v 0.09000000 -0.01400000 -0.01400000
v 0.09000000 -0.01000000 -0.09000000
v 0.09000000 -0.01000000 -0.08600000
v 0.08600000 -0.01000000 -0.08200000
v 0.09000000 -0.01000000 -0.08200000
v 0.08600000 -0.01000000 -0.01800000
v 0.08600000 -0.01000000 -0.01400000
v 0.09000000 -0.01000000 -0.01800000
v 0.09000000 -0.01000000 -0.01400000
v 0.09000000 -0.00600000 -0.09000000
v 0.09000000 -0.00600000 -0.08600000
v 0.08600000 -0.00600000 -0.08200000
v 0.09000000 -0.00600000 -0.08200000
v 0.08600000 -0.00600000 -0.01800000
v 0.08600000 -0.00600000 -0.01400000
v 0.09000000 -0.00600000 -0.01800000
v 0.09000000 -0.00600000 -0.01400000
v 0.09000000 -0.00200000 -0.09000000
v 0.09000000 -0.00200000 -0.08600000
v 0.08600000 -0.00200000 -0.08200000
v 0.09000000 -0.00200000 -0.08200000
v 0.08600000 -0.00200000 -0.01800000
v 0.08600000 -0.00200000 -0.01400000
v 0.09000000 -0.00200000 -0.01800000
v 0.09000000 -0.00200000 -0.01400000
v 0.09000000 0.00200000 -0.09000000
v 0.09000000 0.00200000 -0.08600000
v 0.08600000 0.00200000 -0.08200000
v 0.09000000 0.00200000 -0.08200000
v 0.08600000 0.00200000 -0.01800000
v 0.08600000 0.00200000 -0.01400000
v 0.09000000 0.00200000 -0.01800000
v 0.09000000 0.00200000 -0.01400000
v 0.09000000 0.00600000 -0.09000000
v 0.09000000 0.00600000 -0.08600000
v 0.08600000 0.00600000 -0.08200000
v 0.09000000 0.00600000 -0.08200000
v 0.08600000 0.00600000 -0.01800000
v 0.08600000 0.00600000 -0.01400000
v 0.09000000 0.00600000 -0.01800000
v 0.09000000 0.00600000 -0.01400000
v 0.09000000 0.01000000 -0.09000000
v 0.09000000 0.01000000 -0.08600000
v 0.08600000 0.01000000 -0.08200000
v 0.09000000 0.01000000 -0.08200000
v 0.08600000 0.01000000 -0.01800000
v 0.08600000 0.01000000 -0.01400000
v 0.09000000 0.01000000 -0.01800000
v 0.09000000 0.01000000 -0.01400000
v 0.09000000 0.01400000 -0.09000000
v 0.09000000 0.01400000 -0.08600000
v 0.09000000 0.01400000 -0.08200000
v 0.08600000 0.01400000 -0.01800000
v 0.08600000 0.01400000 -0.01400000
v 0.09000000 0.01400000 -0.01800000
v 0.09000000 0.01400000 -0.01400000
v 0.09000000 0.01800000 -0.09000000
v 0.09000000 0.01800000 -0.08600000
v 0.09000000 0.01800000 -0.08200000
v 0.08600000 0.01400000 -0.07800000
v 0.08600000 0.01800000 -0.07800000
v 0.09000000 0.01400000 -0.07800000
v 0.09000000 0.01800000 -0.07800000
v 0.08600000 0.01400000 -0.02200000
v 0.08600000 0.01800000 -0.02200000
v 0.09000000 0.01400000 -0.02200000
v 0.09000000 0.01800000 -0.02200000
v 0.09000000 0.01800000 -0.01800000
v 0.09000000 0.01800000 -0.01400000
v 0.09000000 0.02200000 -0.08600000
v 0.09000000 0.02200000 -0.08200000
v 0.09000000 0.02200000 -0.07800000
v 0.08600000 0.01800000 -0.07400000
v 0.08600000 0.02200000 -0.07400000
v 0.09000000 0.01800000 -0.07400000
v 0.09000000 0.02200000 -0.07400000
v 0.08600000 0.01800000 -0.02600000
v 0.08600000 0.02200000 -0.02600000
v 0.09000000 0.01800000 -0.02600000
v 0.09000000 0.02200000 -0.02600000
v 0.09000000 0.02200000 -0.02200000
v 0.09000000 0.02200000 -0.01800000
v 0.09000000 0.02200000 -0.01400000
v 0.09000000 0.02600000 -0.08600000
v 0.09000000 0.02600000 -0.08200000
v 0.09000000 0.02600000 -0.07800000
v 0.09000000 0.02600000 -0.07400000
v 0.08600000 0.02200000 -0.03000000
v 0.08600000 0.02600000 -0.03000000
v 0.09000000 0.02200000 -0.03000000
v 0.09000000 0.02600000 -0.03000000
v 0.09000000 0.02600000 -0.02600000
v 0.09000000 0.02600000 -0.02200000
v 0.09000000 0.02600000 -0.01800000
v 0.09000000 0.02600000 -0.01400000
v 0.09000000 0.03000000 -0.08200000
v 0.09000000 0.03000000 -0.07800000
v 0.09000000 0.03000000 -0.07400000
v 0.08600000 0.02600000 -0.07000000
v 0.09000000 0.02600000 -0.07000000
v 0.09000000 0.03000000 -0.07000000
v 0.08600000 0.02600000 -0.06600000
v 0.08600000 0.03000000 -0.06600000
v 0.09000000 0.02600000 -0.06600000
v 0.09000000 0.03000000 -0.06600000
v 0.08600000 0.02600000 -0.03400000
v 0.08600000 0.03000000 -0.03400000
v 0.09000000 0.02600000 -0.03400000
v 0.09000000 0.03000000 -0.03400000
v 0.09000000 0.03000000 -0.03000000
v 0.09000000 0.03000000 -0.02600000
v 0.09000000 0.03000000 -0.02200000
v 0.09000000 0.03000000 -0.01800000
v 0.09000000 0.03400000 -0.07800000
v 0.09000000 0.03400000 -0.07400000
v 0.09000000 0.03400000 -0.07000000
v 0.09000000 0.03400000 -0.06600000
v 0.08600000 0.03000000 -0.06200000
v 0.09000000 0.03000000 -0.06200000
v 0.09000000 0.03400000 -0.06200000
v 0.08600000 0.03000000 -0.05800000
v 0.09000000 0.03000000 -0.05800000
v 0.09000000 0.03400000 -0.05800000
v 0.08600000 0.03000000 -0.05400000
v 0.08600000 0.03400000 -0.05400000
v 0.09000000 0.03000000 -0.05400000
v 0.09000000 0.03400000 -0.05400000
v 0.08600000 0.03000000 -0.05000000
v 0.08600000 0.03400000 -0.05000000
v 0.09000000 0.03000000 -0.05000000
v 0.09000000 0.03400000 -0.05000000
v 0.08600000 0.03000000 -0.04600000
v 0.08600000 0.03400000 -0.04600000
v 0.09000000 0.03000000 -0.04600000
v 0.09000000 0.03400000 -0.04600000
v 0.08600000 0.03000000 -0.04200000
v 0.09000000 0.03000000 -0.04200000
v 0.09000000 0.03400000 -0.04200000
v 0.08600000 0.03000000 -0.03800000
v 0.09000000 0.03000000 -0.03800000
v 0.09000000 0.03400000 -0.03800000
v 0.09000000 0.03400000 -0.03400000
v 0.09000000 0.03400000 -0.03000000
v 0.09000000 0.03400000 -0.02600000
v 0.09000000 0.03400000 -0.02200000
v 0.09000000 0.03800000 -0.07400000
v 0.09000000 0.03800000 -0.07000000
v 0.09000000 0.03800000 -0.06600000
v 0.09000000 0.03800000 -0.06200000
v 0.09000000 0.03800000 -0.05800000
v 0.09000000 0.03800000 -0.05400000
v 0.09000000 0.03800000 -0.05000000
v 0.09000000 0.03800000 -0.04600000
v 0.09000000 0.03800000 -0.04200000
v 0.09000000 0.03800000 -0.03800000
v 0.09000000 0.03800000 -0.03400000
v 0.09000000 0.03800000 -0.03000000
v 0.09000000 0.03800000 -0.02600000
v 0.09000000 0.04200000 -0.06200000
v 0.09000000 0.04200000 -0.05800000
v 0.09000000 0.04200000 -0.05400000
v 0.09000000 0.04200000 -0.05000000
v 0.09000000 0.04200000 -0.04600000
v 0.09000000 0.04200000 -0.04200000
v 0.09000000 0.04200000 -0.03800000
f 2 4 1
f 5 2 1
f 1 4 3
f 3 5 1
f 6 2 5
f 7 5 3
f 8 9 2
f 6 8 2
f 2 9 4
f 10 8 6
f 11 12 8
f 10 11 8
f 8 12 9
f 13 11 10
f 14 15 11
f 13 14 11
f 11 15 12
f 16 14 13
f 17 18 14
f 16 17 14
f 14 18 15
f 19 17 16
f 20 21 17
f 19 20 17
f 17 21 18
f 20 23 21
f 22 20 19
f 22 23 20
f 25 27 24
f 28 25 24
f 24 27 26
f 26 28 24
f 29 25 28
f 30 28 26
f 31 32 25
f 29 31 25
f 25 32 27
f 33 31 29
f 3 34 31
f 33 3 31
f 31 34 32
f 7 3 33
f 4 35 3
f 3 35 34
f 9 36 4
f 4 36 35
f 36 40 35
f 35 40 39
f 39 38 37
f 40 38 39
f 12 41 9
f 9 41 36
f 41 43 36
f 36 43 40
f 40 42 38
f 43 42 40
f 15 44 12
f 12 44 41
f 44 46 41
f 41 46 43
f 43 45 42
f 46 45 43
f 18 47 15
f 15 47 44
f 47 49 44
f 44 49 46
f 46 48 45
f 49 48 46
f 21 50 18
f 18 50 47
f 51 52 21
f 23 51 21
f 21 52 50
f 53 51 23
f 54 55 51
f 53 54 51
f 51 55 52
f 56 54 53
f 57 58 54
f 56 57 54
f 54 58 55
f 57 60 58
f 59 57 56
f 59 60 57
f 26 63 61
f 64 26 61
f 61 63 62
f 62 64 61
f 30 26 64
f 65 64 62
f 27 66 26
f 26 66 63
f 32 67 27
f 27 67 66
f 70 69 68
f 71 69 70
f 34 72 32
f 32 72 67
f 72 74 67
f 67 74 71
f 71 73 69
f 74 73 71
f 35 75 34
f 34 75 72
f 35 76 75
f 39 76 35
f 75 76 72
f 72 76 74
f 74 39 73
f 76 39 74
f 50 78 47
f 47 78 77
f 77 49 47
f 78 81 77
f 80 49 77
f 77 81 80
f 80 79 49
f 81 79 80
f 52 82 50
f 50 82 78
f 82 84 78
f 78 84 81
f 81 83 79
f 84 83 81
f 55 85 52
f 52 85 82
f 84 86 83
f 87 86 84
f 58 88 55
f 55 88 85
f 89 90 58
f 60 89 58
f 58 90 88
f 89 92 90
f 91 89 60
f 91 92 89
f 62 95 93
f 96 62 93
f 93 95 94
f 94 96 93
f 65 62 96
f 97 96 94
f 63 98 62
f 62 98 95
f 66 99 63
f 63 99 98
f 99 102 98
f 98 102 101
f 101 70 100
f 102 70 101
f 67 103 66
f 66 103 99
f 67 104 103
f 71 104 67
f 103 104 99
f 99 104 102
f 102 71 70
f 104 71 102
f 85 106 82
f 82 106 105
f 105 84 82
f 106 108 105
f 107 84 105
f 105 108 107
f 107 87 84
f 108 87 107
f 88 109 85
f 85 109 106
f 108 110 87
f 111 110 108
f 90 112 88
f 88 112 109
f 113 114 90
f 92 113 90
f 90 114 112
f 113 116 114
f 115 113 92
f 115 116 113
f 94 119 117
f 120 94 117
f 117 119 118
f 118 120 117
f 97 94 120
f 121 120 118
f 95 122 94
f 94 122 119
f 98 123 95
f 95 123 122
f 98 126 123
f 101 126 98
f 125 101 124
f 126 101 125
f 109 128 106
f 106 128 127
f 127 108 106
f 128 130 127
f 129 108 127
f 127 130 129
f 129 111 108
f 130 111 129
f 112 131 109
f 109 131 128
f 130 132 111
f 133 132 130
f 114 134 112
f 112 134 131
f 135 136 114
f 116 135 114
f 114 136 134
f 135 138 136
f 137 135 116
f 137 138 135
f 119 140 118
f 118 140 139
f 139 121 118
f 141 121 139
f 122 142 119
f 119 142 140
f 144 125 143
f 145 125 144
f 123 146 122
f 122 146 142
f 123 147 146
f 126 147 123
f 146 147 142
f 142 147 145
f 145 126 125
f 147 126 145
f 131 149 128
f 128 149 148
f 148 130 128
f 149 151 148
f 150 130 148
f 148 151 150
f 150 133 130
f 151 133 150
f 134 152 131
f 131 152 149
f 151 153 133
f 154 153 151
f 136 155 134
f 134 155 152
f 136 156 155
f 138 156 136
f 139 159 157
f 160 139 157
f 157 159 158
f 158 160 157
f 141 139 160
f 161 160 158
f 140 162 139
f 139 162 159
f 142 163 140
f 140 163 162
f 142 165 163
f 145 165 142
f 163 165 162
f 162 165 164
f 164 145 144
f 165 145 164
f 152 167 149
f 149 167 166
f 166 151 149
f 167 169 166
f 168 151 166
f 166 169 168
f 168 154 151
f 169 154 168
f 155 170 152
f 152 170 167
f 171 172 155
f 156 171 155
f 155 172 170
f 171 174 172
f 173 171 156
f 173 174 171
f 159 176 158
f 158 176 175
f 175 161 158
f 177 161 175
f 162 178 159
f 159 178 176
f 162 181 178
f 164 181 162
f 180 164 179
f 181 164 180
f 170 183 167
f 167 183 182
f 182 169 167
f 185 169 182
f 185 184 169
f 186 184 185
f 172 187 170
f 170 187 183
f 172 188 187
f 174 188 172
f 176 190 175
f 175 190 189
f 189 177 175
f 191 177 189
f 178 192 176
f 176 192 190
f 178 194 192
f 181 194 178
f 193 181 180
f 194 181 193
f 183 196 182
f 182 196 195
f 195 185 182
f 197 185 195
f 197 186 185
f 198 186 197
f 187 199 183
f 183 199 196
f 187 200 199
f 188 200 187
f 190 202 189
f 189 202 201
f 201 191 189
f 203 191 201
f 192 204 190
f 190 204 202
f 192 206 204
f 194 206 192
f 205 194 193
f 206 194 205
f 196 208 195
f 195 208 207
f 207 197 195
f 209 197 207
f 209 198 197
f 210 198 209
f 199 211 196
f 196 211 208
f 199 212 211
f 200 212 199
f 202 214 201
f 201 214 213
f 213 203 201
f 215 203 213
f 204 216 202
f 202 216 214
f 204 218 216
f 206 218 204
f 217 206 205
f 218 206 217
f 208 220 207
f 207 220 219
f 219 209 207
f 221 209 219
f 221 210 209
f 222 210 221
f 211 223 208
f 208 223 220
f 211 224 223
f 212 224 211
f 214 226 213
f 213 226 225
f 225 215 213
f 227 215 225
f 216 228 214
f 214 228 226
f 216 230 228
f 218 230 216
f 229 218 217
f 230 218 229
f 220 232 219
f 219 232 231
f 231 221 219
f 233 221 231
f 233 222 221
f 234 222 233
f 223 235 220
f 220 235 232
f 223 236 235
f 224 236 223
f 226 238 225
f 225 238 237
f 237 227 225
f 239 227 237
f 228 240 226
f 226 240 238
f 228 242 240
f 230 242 228
f 241 230 229
f 242 230 241
f 232 244 231
f 231 244 243
f 243 233 231
f 245 233 243
f 245 234 233
f 246 234 245
f 235 247 232
f 232 247 244
f 235 248 247
f 236 248 235
f 238 250 237
f 237 250 249
f 249 239 237
f 251 239 249
f 240 252 238
f 238 252 250
f 240 254 252
f 242 254 240
f 253 242 241
f 254 242 253
f 244 256 243
f 243 256 255
f 255 245 243
f 257 245 255
f 257 246 245
f 258 246 257
f 247 259 244
f 244 259 256
f 247 260 259
f 248 260 247
f 250 262 249
f 249 262 261
f 261 251 249
f 262 264 261
f 263 251 261
f 261 264 263
f 252 265 250
f 250 265 262
f 266 267 252
f 254 266 252
f 252 267 265
f 266 270 267
f 268 266 254
f 268 270 266
f 269 268 254
f 270 268 269
f 255 273 271
f 274 255 271
f 271 273 272
f 272 274 271
f 257 255 274
f 275 274 272
f 275 257 274
f 276 257 275
f 256 277 255
f 255 277 273
f 259 278 256
f 256 278 277
f 259 280 278
f 260 280 259
f 278 280 277
f 277 280 279
f 265 282 262
f 262 282 281
f 281 264 262
f 283 264 281
f 267 284 265
f 265 284 282
f 285 270 269
f 286 270 285
f 287 288 267
f 270 287 267
f 267 288 284
f 287 290 288
f 289 287 270
f 289 290 287
f 286 289 270
f 290 289 286
f 272 293 291
f 294 272 291
f 291 293 292
f 292 294 291
f 275 272 294
f 295 294 292
f 295 275 294
f 296 275 295
f 273 297 272
f 272 297 293
f 296 276 275
f 298 276 296
f 277 299 273
f 273 299 297
f 277 300 299
f 279 300 277
f 282 302 281
f 281 302 301
f 301 283 281
f 302 304 301
f 303 283 301
f 301 304 303
f 284 305 282
f 282 305 302
f 288 306 284
f 284 306 305
f 288 308 306
f 290 308 288
f 307 290 286
f 308 290 307
f 292 311 309
f 312 292 309
f 309 311 310
f 310 312 309
f 295 292 312
f 313 312 310
f 313 295 312
f 314 295 313
f 293 315 292
f 292 315 311
f 314 296 295
f 316 296 314
f 297 317 293
f 293 317 315
f 299 318 297
f 297 318 317
f 299 320 318
f 300 320 299
f 318 320 317
f 317 320 319
f 305 322 302
f 302 322 321
f 321 304 302
f 322 324 321
f 323 304 321
f 321 324 323
f 306 325 305
f 305 325 322
f 326 327 306
f 308 326 306
f 306 327 325
f 328 326 308
f 329 328 308
f 330 328 329
f 331 332 326
f 328 331 326
f 326 332 327
f 331 334 332
f 333 331 328
f 333 334 331
f 330 333 328
f 334 333 330
f 310 337 335
f 338 310 335
f 335 337 336
f 336 338 335
f 313 310 338
f 339 338 336
f 339 313 338
f 340 313 339
f 311 341 310
f 310 341 337
f 340 314 313
f 342 314 340
f 315 343 311
f 311 343 341
f 317 344 315
f 315 344 343
f 317 346 344
f 319 346 317
f 344 346 343
f 343 346 345
f 325 348 322
f 322 348 347
f 347 324 322
f 348 350 347
f 349 324 347
f 347 350 349
f 327 351 325
f 325 351 348
f 332 352 327
f 327 352 351
f 353 334 330
f 354 334 353
f 355 356 332
f 334 355 332
f 332 356 352
f 357 355 334
f 354 357 334
f 358 357 354
f 359 360 355
f 357 359 355
f 355 360 356
f 359 362 360
f 361 359 357
f 361 362 359
f 358 361 357
f 362 361 358
f 364 366 363
f 367 364 363
f 363 366 365
f 365 367 363
f 368 364 367
f 369 367 365
f 369 368 367
f 370 368 369
f 336 371 364
f 368 336 364
f 364 371 366
f 339 336 368
f 370 339 368
f 372 339 370
f 337 373 336
f 336 373 371
f 372 340 339
f 374 340 372
f 341 375 337
f 337 375 373
f 343 376 341
f 341 376 375
f 343 378 376
f 345 378 343
f 376 378 375
f 375 378 377
f 351 380 348
f 348 380 379
f 379 350 348
f 380 382 379
f 381 350 379
f 379 382 381
f 352 383 351
f 351 383 380
f 383 384 380
f 380 384 382
f 356 385 352
f 352 385 383
f 385 386 383
f 383 386 384
f 360 387 356
f 356 387 385
f 388 389 360
f 362 388 360
f 360 389 387
f 390 388 362
f 391 390 362
f 392 390 391
f 393 394 388
f 390 393 388
f 388 394 389
f 395 393 390
f 392 395 390
f 396 395 392
f 397 398 393
f 395 397 393
f 393 398 394
f 399 397 395
f 396 399 395
f 400 399 396
f 365 401 397
f 399 365 397
f 397 401 398
f 369 365 399
f 400 369 399
f 402 369 400
f 366 403 365
f 365 403 401
f 371 404 366
f 366 404 403
f 404 406 403
f 403 406 405
f 373 407 371
f 371 407 404
f 407 408 404
f 404 408 406
f 375 409 373
f 373 409 407
f 375 410 409
f 377 410 375
f 409 410 407
f 407 410 408
f 387 412 385
f 385 412 411
f 411 386 385
f 412 414 411
f 413 386 411
f 411 414 413
f 389 415 387
f 387 415 412
f 415 416 412
f 412 416 414
f 394 417 389
f 389 417 415
f 417 418 415
f 415 418 416
f 398 419 394
f 394 419 417
f 419 420 417
f 417 420 418
f 401 421 398
f 398 421 419
f 421 422 419
f 419 422 420
f 403 423 401
f 401 423 421
f 403 424 423
f 405 424 403
f 423 424 421
f 421 424 422
f 425 6 5
f 7 425 5
f 426 6 425
f 427 425 7
f 426 10 6
f 428 10 426
f 38 430 37
f 37 430 429
f 428 13 10
f 431 13 428
f 42 432 38
f 38 432 430
f 431 16 13
f 433 16 431
f 45 434 42
f 42 434 432
f 433 19 16
f 435 19 433
f 48 436 45
f 45 436 434
f 435 22 19
f 22 438 23
f 437 22 435
f 437 438 22
f 439 29 28
f 30 439 28
f 440 29 439
f 441 439 30
f 440 33 29
f 442 33 440
f 69 444 68
f 68 444 443
f 442 7 33
f 427 7 442
f 73 445 69
f 69 445 444
f 37 446 39
f 429 446 37
f 39 446 73
f 73 446 445
f 49 436 48
f 79 448 49
f 447 436 49
f 49 448 447
f 438 53 23
f 449 53 438
f 83 450 79
f 79 450 448
f 449 56 53
f 451 56 449
f 86 452 83
f 83 452 450
f 451 59 56
f 59 454 60
f 453 59 451
f 453 454 59
f 455 30 64
f 65 455 64
f 441 30 455
f 456 455 65
f 68 458 70
f 443 458 68
f 70 458 100
f 100 458 457
f 87 452 86
f 110 460 87
f 459 452 87
f 87 460 459
f 454 91 60
f 91 462 92
f 461 91 454
f 461 462 91
f 463 65 96
f 97 463 96
f 456 65 463
f 464 463 97
f 100 466 101
f 457 466 100
f 101 466 124
f 124 466 465
f 111 460 110
f 132 468 111
f 467 460 111
f 111 468 467
f 462 115 92
f 115 470 116
f 469 115 462
f 469 470 115
f 471 97 120
f 121 471 120
f 464 97 471
f 472 471 121
f 124 474 125
f 465 474 124
f 125 474 143
f 143 474 473
f 133 468 132
f 153 476 133
f 475 468 133
f 133 476 475
f 470 137 116
f 137 478 138
f 477 137 470
f 477 478 137
f 141 472 121
f 143 480 144
f 473 480 143
f 479 472 141
f 154 476 153
f 138 482 156
f 478 482 138
f 481 476 154
f 483 141 160
f 161 483 160
f 479 141 483
f 484 483 161
f 144 486 164
f 480 486 144
f 164 486 179
f 179 486 485
f 169 481 154
f 184 488 169
f 487 481 169
f 169 488 487
f 487 482 481
f 488 482 487
f 482 173 156
f 173 490 174
f 489 173 482
f 489 490 173
f 488 489 482
f 490 489 488
f 177 484 161
f 179 492 180
f 485 492 179
f 491 484 177
f 186 488 184
f 174 494 188
f 490 494 174
f 493 488 186
f 493 490 488
f 494 490 493
f 191 491 177
f 180 496 193
f 492 496 180
f 495 491 191
f 198 493 186
f 188 498 200
f 494 498 188
f 497 493 198
f 497 494 493
f 498 494 497
f 203 495 191
f 193 500 205
f 496 500 193
f 499 495 203
f 210 497 198
f 200 502 212
f 498 502 200
f 501 497 210
f 501 498 497
f 502 498 501
f 215 499 203
f 205 504 217
f 500 504 205
f 503 499 215
f 222 501 210
f 212 506 224
f 502 506 212
f 505 501 222
f 505 502 501
f 506 502 505
f 227 503 215
f 217 508 229
f 504 508 217
f 507 503 227
f 234 505 222
f 224 510 236
f 506 510 224
f 509 505 234
f 509 506 505
f 510 506 509
f 239 507 227
f 229 512 241
f 508 512 229
f 511 507 239
f 246 509 234
f 236 514 248
f 510 514 236
f 513 509 246
f 513 510 509
f 514 510 513
f 251 511 239
f 241 516 253
f 512 516 241
f 515 511 251
f 258 513 246
f 248 518 260
f 514 518 248
f 517 513 258
f 517 514 513
f 518 514 517
f 263 515 251
f 264 520 263
f 519 515 263
f 263 520 519
f 516 254 253
f 254 522 269
f 521 254 516
f 521 522 254
f 523 258 257
f 276 523 257
f 517 258 523
f 524 523 276
f 524 517 523
f 525 517 524
f 260 526 280
f 518 526 260
f 280 526 279
f 279 526 525
f 525 518 517
f 526 518 525
f 283 520 264
f 269 528 285
f 522 528 269
f 527 520 283
f 298 524 276
f 279 530 300
f 525 530 279
f 529 524 298
f 303 527 283
f 304 532 303
f 531 527 303
f 303 532 531
f 528 286 285
f 286 534 307
f 533 286 528
f 533 534 286
f 535 298 296
f 316 535 296
f 529 298 535
f 536 535 316
f 300 538 320
f 530 538 300
f 320 538 319
f 319 538 537
f 323 532 304
f 324 540 323
f 539 532 323
f 323 540 539
f 534 308 307
f 308 542 329
f 541 308 534
f 541 542 308
f 543 316 314
f 342 543 314
f 536 316 543
f 544 543 342
f 319 546 346
f 537 546 319
f 346 546 345
f 345 546 545
f 349 540 324
f 350 548 349
f 547 540 349
f 349 548 547
f 542 330 329
f 330 550 353
f 549 330 542
f 549 550 330
f 551 342 340
f 374 551 340
f 544 342 551
f 552 551 374
f 345 554 378
f 545 554 345
f 378 554 377
f 377 554 553
f 381 548 350
f 382 556 381
f 555 548 381
f 381 556 555
f 550 354 353
f 557 354 550
f 384 558 382
f 382 558 556
f 557 358 354
f 559 358 557
f 386 560 384
f 384 560 558
f 559 362 358
f 362 562 391
f 561 362 559
f 561 562 362
f 563 370 369
f 402 563 369
f 564 370 563
f 565 563 402
f 564 372 370
f 566 372 564
f 406 568 405
f 405 568 567
f 566 374 372
f 552 374 566
f 408 569 406
f 406 569 568
f 377 570 410
f 553 570 377
f 410 570 408
f 408 570 569
f 413 560 386
f 414 572 413
f 571 560 413
f 413 572 571
f 562 392 391
f 573 392 562
f 416 574 414
f 414 574 572
f 573 396 392
f 575 396 573
f 418 576 416
f 416 576 574
f 575 400 396
f 577 400 575
f 420 578 418
f 418 578 576
f 577 402 400
f 565 402 577
f 422 579 420
f 420 579 578
f 405 580 424
f 567 580 405
f 424 580 422
f 422 580 579
f 581 426 425
f 427 581 425
f 582 426 581
f 583 581 427
f 582 428 426
f 584 428 582
f 430 586 429
f 429 586 585
f 584 431 428
f 587 431 584
f 432 588 430
f 430 588 586
f 587 433 431
f 589 433 587
f 434 590 432
f 432 590 588
f 589 435 433
f 591 435 589
f 436 592 434
f 434 592 590
f 591 437 435
f 437 594 438
f 593 437 591
f 593 594 437
f 595 440 439
f 441 595 439
f 596 440 595
f 597 595 441
f 596 442 440
f 598 442 596
f 444 600 443
f 443 600 599
f 598 427 442
f 583 427 598
f 445 601 444
f 444 601 600
f 429 602 446
f 585 602 429
f 446 602 445
f 445 602 601
f 447 592 436
f 448 604 447
f 603 592 447
f 447 604 603
f 594 449 438
f 605 449 594
f 450 606 448
f 448 606 604
f 605 451 449
f 607 451 605
f 452 608 450
f 450 608 606
f 607 453 451
f 453 610 454
f 609 453 607
f 609 610 453
f 611 441 455
f 456 611 455
f 597 441 611
f 612 611 456
f 443 614 458
f 599 614 443
f 458 614 457
f 457 614 613
f 459 608 452
f 460 616 459
f 615 608 459
f 459 616 615
f 610 461 454
f 461 618 462
f 617 461 610
f 617 618 461
f 619 456 463
f 464 619 463
f 612 456 619
f 620 619 464
f 457 622 466
f 613 622 457
f 466 622 465
f 465 622 621
f 467 616 460
f 468 624 467
f 623 616 467
f 467 624 623
f 618 469 462
f 469 626 470
f 625 469 618
f 625 626 469
f 627 464 471
f 472 627 471
f 620 464 627
f 628 627 472
f 465 630 474
f 621 630 465
f 474 630 473
f 473 630 629
f 475 624 468
f 476 632 475
f 631 624 475
f 475 632 631
f 626 477 470
f 477 634 478
f 633 477 626
f 633 634 477
f 479 628 472
f 473 636 480
f 629 636 473
f 635 628 479
f 481 632 476
f 478 638 482
f 634 638 478
f 482 638 481
f 637 632 481
f 481 638 637
f 639 479 483
f 484 639 483
f 635 479 639
f 640 639 484
f 480 642 486
f 636 642 480
f 486 642 485
f 485 642 641
f 491 640 484
f 485 644 492
f 641 644 485
f 643 640 491
f 495 643 491
f 492 646 496
f 644 646 492
f 645 643 495
f 499 645 495
f 496 648 500
f 646 648 496
f 647 645 499
f 503 647 499
f 500 650 504
f 648 650 500
f 649 647 503
f 507 649 503
f 504 652 508
f 650 652 504
f 651 649 507
f 511 651 507
f 508 654 512
f 652 654 508
f 653 651 511
f 515 653 511
f 512 656 516
f 654 656 512
f 655 653 515
f 519 655 515
f 520 658 519
f 657 655 519
f 519 658 657
f 656 521 516
f 521 660 522
f 659 521 656
f 659 660 521
f 527 658 520
f 522 662 528
f 660 662 522
f 661 658 527
f 663 525 524
f 529 663 524
f 525 666 530
f 664 525 663
f 664 666 525
f 665 663 529
f 531 661 527
f 532 668 531
f 667 661 531
f 531 668 667
f 662 533 528
f 533 670 534
f 669 533 662
f 669 670 533
f 671 529 535
f 536 671 535
f 665 529 671
f 672 671 536
f 530 674 538
f 666 674 530
f 538 674 537
f 537 674 673
f 539 668 532
f 540 676 539
f 675 668 539
f 539 676 675
f 670 541 534
f 541 678 542
f 677 541 670
f 677 678 541
f 679 536 543
f 544 679 543
f 672 536 679
f 680 679 544
f 537 682 546
f 673 682 537
f 546 682 545
f 545 682 681
f 547 676 540
f 548 684 547
f 683 676 547
f 547 684 683
f 678 549 542
f 549 686 550
f 685 549 678
f 685 686 549
f 687 544 551
f 552 687 551
f 680 544 687
f 688 687 552
f 545 690 554
f 681 690 545
f 554 690 553
f 553 690 689
f 555 684 548
f 556 692 555
f 691 684 555
f 555 692 691
f 686 557 550
f 693 557 686
f 558 694 556
f 556 694 692
f 693 559 557
f 695 559 693
f 560 696 558
f 558 696 694
f 695 561 559
f 561 698 562
f 697 561 695
f 697 698 561
f 699 564 563
f 565 699 563
f 700 564 699
f 701 699 565
f 700 566 564
f 702 566 700
f 568 704 567
f 567 704 703
f 702 552 566
f 688 552 702
f 569 705 568
f 568 705 704
f 553 706 570
f 689 706 553
f 570 706 569
f 569 706 705
f 571 696 560
f 572 708 571
f 707 696 571
f 571 708 707
f 698 573 562
f 709 573 698
f 574 710 572
f 572 710 708
f 709 575 573
f 711 575 709
f 576 712 574
f 574 712 710
f 711 577 575
f 713 577 711
f 578 714 576
f 576 714 712
f 713 565 577
f 701 565 713
f 579 715 578
f 578 715 714
f 567 716 580
f 703 716 567
f 580 716 579
f 579 716 715
f 717 582 581
f 583 717 581
f 718 582 717
f 719 717 583
f 718 584 582
f 720 584 718
f 586 722 585
f 585 722 721
f 720 587 584
f 723 587 720
f 588 724 586
f 586 724 722
f 723 589 587
f 725 589 723
f 590 726 588
f 588 726 724
f 725 591 589
f 727 591 725
f 592 728 590
f 590 728 726
f 727 593 591
f 593 730 594
f 729 593 727
f 729 730 593
f 731 596 595
f 597 731 595
f 732 596 731
f 733 731 597
f 732 598 596
f 734 598 732
f 600 736 599
f 599 736 735
f 734 583 598
f 719 583 734
f 601 737 600
f 600 737 736
f 585 738 602
f 721 738 585
f 602 738 601
f 601 738 737
f 603 728 592
f 604 740 603
f 739 728 603
f 603 740 739
f 730 605 594
f 741 605 730
f 606 742 604
f 604 742 740
f 741 607 605
f 743 607 741
f 608 744 606
f 606 744 742
f 743 609 607
f 609 746 610
f 745 609 743
f 745 746 609
f 747 597 611
f 612 747 611
f 733 597 747
f 748 747 612
f 599 750 614
f 735 750 599
f 614 750 613
f 613 750 749
f 615 744 608
f 616 752 615
f 751 744 615
f 615 752 751
f 746 617 610
f 617 754 618
f 753 617 746
f 753 754 617
f 755 612 619
f 620 755 619
f 748 612 755
f 756 755 620
f 613 758 622
f 749 758 613
f 622 758 621
f 621 758 757
f 623 752 616
f 624 760 623
f 759 752 623
f 623 760 759
f 754 625 618
f 625 762 626
f 761 625 754
f 761 762 625
f 763 620 627
f 628 763 627
f 756 620 763
f 764 763 628
f 621 766 630
f 757 766 621
f 630 766 629
f 629 766 765
f 631 760 624
f 632 768 631
f 767 760 631
f 631 768 767
f 762 633 626
f 633 770 634
f 769 633 762
f 769 770 633
f 635 764 628
f 629 772 636
f 765 772 629
f 771 764 635
f 637 768 632
f 634 774 638
f 770 774 634
f 638 774 637
f 773 768 637
f 637 774 773
f 775 635 639
f 640 775 639
f 771 635 775
f 776 775 640
f 636 778 642
f 772 778 636
f 642 778 641
f 641 778 777
f 643 776 640
f 641 780 644
f 777 780 641
f 779 776 643
f 645 779 643
f 644 782 646
f 780 782 644
f 781 779 645
f 647 781 645
f 646 784 648
f 782 784 646
f 783 781 647
f 649 783 647
f 648 786 650
f 784 786 648
f 785 783 649
f 651 785 649
f 650 788 652
f 786 788 650
f 787 785 651
f 653 787 651
f 652 790 654
f 788 790 652
f 789 787 653
f 655 789 653
f 654 792 656
f 790 792 654
f 791 789 655
f 657 791 655
f 658 794 657
f 793 791 657
f 657 794 793
f 792 659 656
f 659 796 660
f 795 659 792
f 795 796 659
f 661 794 658
f 660 798 662
f 796 798 660
f 797 794 661
f 799 664 663
f 665 799 663
f 664 802 666
f 800 664 799
f 800 802 664
f 801 799 665
f 667 797 661
f 668 804 667
f 803 797 667
f 667 804 803
f 798 669 662
f 669 806 670
f 805 669 798
f 805 806 669
f 807 665 671
f 672 807 671
f 801 665 807
f 808 807 672
f 666 810 674
f 802 810 666
f 674 810 673
f 673 810 809
f 675 804 668
f 676 812 675
f 811 804 675
f 675 812 811
f 806 677 670
f 677 814 678
f 813 677 806
f 813 814 677
f 815 672 679
f 680 815 679
f 808 672 815
f 816 815 680
f 673 818 682
f 809 818 673
f 682 818 681
f 681 818 817
f 683 812 676
f 684 820 683
f 819 812 683
f 683 820 819
f 814 685 678
f 685 822 686
f 821 685 814
f 821 822 685
f 823 680 687
f 688 823 687
f 816 680 823
f 824 823 688
f 681 826 690
f 817 826 681
f 690 826 689
f 689 826 825
f 691 820 684
f 692 828 691
f 827 820 691
f 691 828 827
f 822 693 686
f 829 693 822
f 694 830 692
f 692 830 828
f 829 695 693
f 831 695 829
f 696 832 694
f 694 832 830
f 831 697 695
f 697 834 698
f 833 697 831
f 833 834 697
f 835 700 699
f 701 835 699
f 836 700 835
f 837 835 701
f 836 702 700
f 838 702 836
f 704 840 703
f 703 840 839
f 838 688 702
f 824 688 838
f 705 841 704
f 704 841 840
f 689 842 706
f 825 842 689
f 706 842 705
f 705 842 841
f 707 832 696
f 708 844 707
f 843 832 707
f 707 844 843
f 834 709 698
f 845 709 834
f 710 846 708
f 708 846 844
f 845 711 709
f 847 711 845
f 712 848 710
f 710 848 846
f 847 713 711
f 849 713 847
f 714 850 712
f 712 850 848
f 849 701 713
f 837 701 849
f 715 851 714
f 714 851 850
f 703 852 716
f 839 852 703
f 716 852 715
f 715 852 851
f 853 718 717
f 719 853 717
f 854 718 853
f 855 853 719
f 855 854 853
f 856 854 855
f 854 720 718
f 857 720 854
f 856 857 854
f 858 857 856
f 857 723 720
f 859 723 857
f 858 859 857
f 860 859 858
f 859 725 723
f 861 725 859
f 860 861 859
f 862 861 860
f 861 727 725
f 863 727 861
f 862 863 861
f 864 863 862
f 863 729 727
f 729 866 730
f 865 729 863
f 865 866 729
f 864 865 863
f 866 865 864
f 867 732 731
f 733 867 731
f 868 732 867
f 869 867 733
f 869 868 867
f 870 868 869
f 868 734 732
f 871 734 868
f 870 871 868
f 872 871 870
f 871 719 734
f 855 719 871
f 872 855 871
f 873 855 872
f 873 856 855
f 874 856 873
f 722 875 721
f 721 875 738
f 874 858 856
f 876 858 874
f 724 877 722
f 722 877 875
f 876 860 858
f 878 860 876
f 726 879 724
f 724 879 877
f 878 862 860
f 880 862 878
f 728 739 726
f 726 739 879
f 880 864 862
f 881 864 880
f 881 866 864
f 882 866 881
f 866 741 730
f 883 741 866
f 882 883 866
f 884 883 882
f 883 743 741
f 885 743 883
f 884 885 883
f 886 885 884
f 885 745 743
f 745 888 746
f 887 745 885
f 887 888 745
f 886 887 885
f 888 887 886
f 889 733 747
f 748 889 747
f 869 733 889
f 890 889 748
f 890 869 889
f 891 869 890
f 891 870 869
f 892 870 891
f 736 893 735
f 735 893 750
f 892 872 870
f 894 872 892
f 737 895 736
f 736 895 893
f 895 896 893
f 893 896 894
f 894 873 872
f 896 873 894
f 738 897 737
f 737 897 895
f 897 898 895
f 895 898 896
f 896 874 873
f 898 874 896
f 875 899 738
f 738 899 897
f 899 900 897
f 897 900 898
f 898 876 874
f 900 876 898
f 877 901 875
f 875 901 899
f 901 902 899
f 899 902 900
f 900 878 876
f 902 878 900
f 879 903 877
f 877 903 901
f 903 904 901
f 901 904 902
f 902 880 878
f 904 880 902
f 739 905 879
f 879 905 903
f 905 906 903
f 903 906 904
f 904 881 880
f 906 881 904
f 740 907 739
f 739 907 905
f 907 908 905
f 905 908 906
f 906 882 881
f 908 882 906
f 742 909 740
f 740 909 907
f 909 910 907
f 907 910 908
f 908 884 882
f 910 884 908
f 744 751 742
f 742 751 909
f 910 886 884
f 911 886 910
f 911 888 886
f 912 888 911
f 888 753 746
f 753 914 754
f 913 753 888
f 913 914 753
f 912 913 888
f 914 913 912
f 915 748 755
f 756 915 755
f 890 748 915
f 916 915 756
f 916 890 915
f 917 890 916
f 917 891 890
f 918 891 917
f 750 919 749
f 749 919 758
f 919 920 758
f 758 920 918
f 918 892 891
f 920 892 918
f 893 921 750
f 750 921 919
f 893 922 921
f 894 922 893
f 921 922 919
f 919 922 920
f 920 894 892
f 922 894 920
f 751 924 909
f 909 924 923
f 923 910 909
f 924 926 923
f 925 910 923
f 923 926 925
f 925 911 910
f 926 911 925
f 752 759 751
f 751 759 924
f 926 912 911
f 927 912 926
f 927 914 912
f 928 914 927
f 914 761 754
f 761 930 762
f 929 761 914
f 929 930 761
f 928 929 914
f 930 929 928
f 931 756 763
f 764 931 763
f 916 756 931
f 932 931 764
f 932 916 931
f 933 916 932
f 933 917 916
f 934 917 933
f 758 935 757
f 757 935 766
f 758 936 935
f 918 936 758
f 934 918 917
f 936 918 934
f 759 938 924
f 924 938 937
f 937 926 924
f 938 940 937
f 939 926 937
f 937 940 939
f 939 927 926
f 940 927 939
f 760 767 759
f 759 767 938
f 940 928 927
f 941 928 940
f 941 930 928
f 942 930 941
f 930 769 762
f 769 944 770
f 943 769 930
f 943 944 769
f 942 943 930
f 944 943 942
f 771 932 764
f 945 932 771
f 945 933 932
f 946 933 945
f 766 947 765
f 765 947 772
f 946 934 933
f 948 934 946
f 935 949 766
f 766 949 947
f 935 950 949
f 936 950 935
f 949 950 947
f 947 950 948
f 948 936 934
f 950 936 948
f 767 952 938
f 938 952 951
f 951 940 938
f 952 954 951
f 953 940 951
f 951 954 953
f 953 941 940
f 954 941 953
f 768 773 767
f 767 773 952
f 954 942 941
f 955 942 954
f 770 956 774
f 944 956 770
f 955 944 942
f 956 944 955
f 957 771 775
f 776 957 775
f 945 771 957
f 958 957 776
f 958 945 957
f 959 945 958
f 959 946 945
f 960 946 959
f 947 961 772
f 772 961 778
f 947 962 961
f 948 962 947
f 961 962 778
f 778 962 960
f 960 948 946
f 962 948 960
f 773 964 952
f 952 964 963
f 963 954 952
f 964 966 963
f 965 954 963
f 963 966 965
f 965 955 954
f 966 955 965
f 774 967 773
f 773 967 964
f 774 968 967
f 956 968 774
f 966 956 955
f 968 956 966
f 779 958 776
f 969 958 779
f 969 959 958
f 970 959 969
f 778 971 777
f 777 971 780
f 778 972 971
f 960 972 778
f 970 960 959
f 972 960 970
f 967 974 964
f 964 974 973
f 973 966 964
f 967 976 974
f 968 976 967
f 975 966 973
f 975 968 966
f 976 968 975
f 781 969 779
f 977 969 781
f 977 970 969
f 978 970 977
f 971 979 780
f 780 979 782
f 971 980 979
f 972 980 971
f 978 972 970
f 980 972 978
f 974 982 973
f 973 982 981
f 981 975 973
f 974 984 982
f 976 984 974
f 983 975 981
f 983 976 975
f 984 976 983
f 783 977 781
f 985 977 783
f 985 978 977
f 986 978 985
f 979 987 782
f 782 987 784
f 979 988 987
f 980 988 979
f 986 980 978
f 988 980 986
f 982 990 981
f 981 990 989
f 989 983 981
f 982 992 990
f 984 992 982
f 991 983 989
f 991 984 983
f 992 984 991
f 785 985 783
f 993 985 785
f 993 986 985
f 994 986 993
f 987 995 784
f 784 995 786
f 987 996 995
f 988 996 987
f 994 988 986
f 996 988 994
f 990 998 989
f 989 998 997
f 997 991 989
f 990 1000 998
f 992 1000 990
f 999 991 997
f 999 992 991
f 1000 992 999
f 787 993 785
f 1001 993 787
f 1001 994 993
f 1002 994 1001
f 995 1003 786
f 786 1003 788
f 995 1004 1003
f 996 1004 995
f 1002 996 994
f 1004 996 1002
f 998 1006 997
f 997 1006 1005
f 1005 999 997
f 998 1008 1006
f 1000 1008 998
f 1007 999 1005
f 1007 1000 999
f 1008 1000 1007
f 789 1001 787
f 1009 1001 789
f 1009 1002 1001
f 1010 1002 1009
f 1003 1011 788
f 788 1011 790
f 1003 1012 1011
f 1004 1012 1003
f 1010 1004 1002
f 1012 1004 1010
f 1006 1014 1005
f 1005 1014 1013
f 1013 1007 1005
f 1006 1016 1014
f 1008 1016 1006
f 1015 1007 1013
f 1015 1008 1007
f 1016 1008 1015
f 791 1009 789
f 1017 1009 791
f 1017 1010 1009
f 1018 1010 1017
f 1011 795 790
f 790 795 792
f 1011 1019 795
f 1012 1019 1011
f 1018 1012 1010
f 1019 1012 1018
f 1014 1021 1013
f 1013 1021 1020
f 1020 1015 1013
f 1014 1023 1021
f 1016 1023 1014
f 1022 1015 1020
f 1022 1016 1015
f 1023 1016 1022
f 793 1017 791
f 794 1025 793
f 1024 1017 793
f 793 1025 1024
f 1024 1018 1017
f 1025 1018 1024
f 1025 1019 1018
f 1026 1019 1025
f 1027 1028 795
f 1019 1027 795
f 795 1028 796
f 1027 1030 1028
f 1029 1027 1019
f 1029 1030 1027
f 1026 1029 1019
f 1030 1029 1026
f 1020 799 1031
f 1033 1020 1031
f 1031 799 1032
f 1032 1033 1031
f 1022 1020 1033
f 1034 1033 1032
f 1034 1022 1033
f 1035 1022 1034
f 1021 800 1020
f 1020 800 799
f 1021 1036 800
f 1023 1036 1021
f 1035 1023 1022
f 1036 1023 1035
f 797 1025 794
f 1037 1025 797
f 1037 1026 1025
f 1038 1026 1037
f 1028 805 796
f 796 805 798
f 1038 1030 1026
f 1039 1030 1038
f 1040 1041 1028
f 1030 1040 1028
f 1028 1041 805
f 1040 1043 1041
f 1042 1040 1030
f 1042 1043 1040
f 1039 1042 1030
f 1043 1042 1039
f 1032 807 1044
f 1046 1032 1044
f 1044 807 1045
f 1045 1046 1044
f 1034 1032 1046
f 1047 1046 1045
f 1047 1034 1046
f 1048 1034 1047
f 799 801 1032
f 1032 801 807
f 1048 1035 1034
f 1049 1035 1048
f 800 1050 802
f 1036 1050 800
f 1049 1036 1035
f 1050 1036 1049
f 803 1037 797
f 804 1052 803
f 1051 1037 803
f 803 1052 1051
f 1051 1038 1037
f 1052 1038 1051
f 1052 1039 1038
f 1053 1039 1052
f 1041 813 805
f 805 813 806
f 1041 1054 813
f 1043 1054 1041
f 1053 1043 1039
f 1054 1043 1053
f 1045 815 1055
f 1057 1045 1055
f 1055 815 1056
f 1056 1057 1055
f 1047 1045 1057
f 1058 1057 1056
f 1058 1047 1057
f 1059 1047 1058
f 807 808 1045
f 1045 808 815
f 1059 1048 1047
f 1060 1048 1059
f 1060 1049 1048
f 1061 1049 1060
f 802 1062 810
f 1050 1062 802
f 810 1062 809
f 809 1062 1061
f 1061 1050 1049
f 1062 1050 1061
f 811 1052 804
f 812 1064 811
f 1063 1052 811
f 811 1064 1063
f 1063 1053 1052
f 1064 1053 1063
f 1064 1054 1053
f 1065 1054 1064
f 1066 821 813
f 1054 1066 813
f 813 821 814
f 1067 1066 1054
f 1065 1067 1054
f 1068 1067 1065
f 1069 1070 1066
f 1067 1069 1066
f 1066 1070 821
f 1069 1072 1070
f 1071 1069 1067
f 1071 1072 1069
f 1068 1071 1067
f 1072 1071 1068
f 1056 823 1073
f 1075 1056 1073
f 1073 823 1074
f 1074 1075 1073
f 1058 1056 1075
f 1076 1075 1074
f 1076 1058 1075
f 1077 1058 1076
f 815 816 1056
f 1056 816 823
f 1077 1059 1058
f 1078 1059 1077
f 1078 1060 1059
f 1079 1060 1078
f 809 1080 818
f 1061 1080 809
f 818 1080 817
f 817 1080 1079
f 1079 1061 1060
f 1080 1061 1079
f 819 1064 812
f 820 1082 819
f 1081 1064 819
f 819 1082 1081
f 1081 1065 1064
f 1082 1065 1081
f 1082 1068 1065
f 1083 1068 1082
f 1070 829 821
f 821 829 822
f 1083 1072 1068
f 1084 1072 1083
f 1085 831 1070
f 1072 1085 1070
f 1070 831 829
f 1086 1085 1072
f 1084 1086 1072
f 1087 1086 1084
f 1088 833 1085
f 1086 1088 1085
f 1085 833 831
f 1089 1088 1086
f 1087 1089 1086
f 1090 1089 1087
f 1091 1092 1088
f 1089 1091 1088
f 1088 1092 833
f 1093 1091 1089
f 1090 1093 1089
f 1094 1093 1090
f 1095 1096 1091
f 1093 1095 1091
f 1091 1096 1092
f 1097 1095 1093
f 1094 1097 1093
f 1098 1097 1094
f 1099 1100 1095
f 1097 1099 1095
f 1095 1100 1096
f 1101 1099 1097
f 1098 1101 1097
f 1102 1101 1098
f 1103 835 1099
f 1101 1103 1099
f 1099 835 1100
f 1104 1103 1101
f 1102 1104 1101
f 1105 1104 1102
f 1106 836 1103
f 1104 1106 1103
f 1103 836 835
f 1107 1106 1104
f 1105 1107 1104
f 1108 1107 1105
f 1074 838 1106
f 1107 1074 1106
f 1106 838 836
f 1076 1074 1107
f 1108 1076 1107
f 1109 1076 1108
f 823 824 1074
f 1074 824 838
f 1109 1077 1076
f 1110 1077 1109
f 1110 1078 1077
f 1111 1078 1110
f 817 1112 826
f 1079 1112 817
f 826 1112 825
f 825 1112 1111
f 1111 1079 1078
f 1112 1079 1111
f 827 1082 820
f 828 1114 827
f 1113 1082 827
f 827 1114 1113
f 1113 1083 1082
f 1114 1083 1113
f 830 1115 828
f 828 1115 1114
f 1114 1084 1083
f 1115 1084 1114
f 832 1116 830
f 830 1116 1115
f 1115 1087 1084
f 1116 1087 1115
f 1116 1090 1087
f 1117 1090 1116
f 1092 845 833
f 833 845 834
f 1117 1094 1090
f 1118 1094 1117
f 1096 847 1092
f 1092 847 845
f 1118 1098 1094
f 1119 1098 1118
f 1100 849 1096
f 1096 849 847
f 1119 1102 1098
f 1120 1102 1119
f 835 837 1100
f 1100 837 849
f 1120 1105 1102
f 1121 1105 1120
f 1121 1108 1105
f 1122 1108 1121
f 840 1123 839
f 839 1123 1122
f 1122 1109 1108
f 1123 1109 1122
f 841 1124 840
f 840 1124 1123
f 1123 1110 1109
f 1124 1110 1123
f 825 1125 842
f 1111 1125 825
f 842 1125 841
f 841 1125 1124
f 1124 1111 1110
f 1125 1111 1124
f 843 1116 832
f 844 1127 843
f 1126 1116 843
f 843 1127 1126
f 1126 1117 1116
f 1127 1117 1126
f 846 1128 844
f 844 1128 1127
f 1127 1118 1117
f 1128 1118 1127
f 848 1129 846
f 846 1129 1128
f 1128 1119 1118
f 1129 1119 1128
f 850 1130 848
f 848 1130 1129
f 1129 1120 1119
f 1130 1120 1129
f 851 1131 850
f 850 1131 1130
f 1130 1121 1120
f 1131 1121 1130
f 839 1132 852
f 1122 1132 839
f 852 1132 851
f 851 1132 1131
f 1131 1122 1121
f 1132 1122 1131

