# https://github.com/mikedh/trimesh
v 0.07400000 -0.02200000 -0.01800000
v 0.07400000 -0.02200000 -0.01400000
v 0.07400000 -0.01800000 -0.01800000
v 0.07400000 -0.01800000 -0.01400000
v 0.07800000 -0.02200000 -0.01800000
v 0.07800000 -0.02200000 -0.01400000
v 0.07800000 -0.01800000 -0.01800000
v 0.07400000 -0.02200000 -0.01000000
v 0.07400000 -0.01800000 -0.01000000
v 0.07800000 -0.02200000 -0.01000000
v 0.07400000 -0.02200000 -0.00600000
v 0.07400000 -0.01800000 -0.00600000
v 0.07800000 -0.02200000 -0.00600000
v 0.07400000 -0.02200000 -0.00200000
v 0.07400000 -0.01800000 -0.00200000
v 0.07800000 -0.02200000 -0.00200000
v 0.07400000 -0.02200000 0.00200000
v 0.07400000 -0.01800000 0.00200000
v 0.07800000 -0.02200000 0.00200000
v 0.07800000 -0.01800000 0.00200000
v 0.07400000 -0.01400000 -0.01800000
v 0.07400000 -0.01400000 -0.01400000
v 0.07800000 -0.01800000 -0.01400000
v 0.07800000 -0.01400000 -0.01800000
v 0.07800000 -0.01400000 -0.01400000
v 0.07400000 -0.01400000 -0.01000000
v 0.07800000 -0.01800000 -0.01000000
v 0.07800000 -0.01400000 -0.01000000
v 0.07400000 -0.01400000 -0.00600000
v 0.07800000 -0.01800000 -0.00600000
v 0.07800000 -0.01400000 -0.00600000
v 0.07400000 -0.01400000 -0.00200000
v 0.07400000 -0.01400000 0.00200000
v 0.07800000 -0.01400000 0.00200000
v 0.07400000 -0.01000000 -0.01400000
v 0.07400000 -0.01000000 -0.01000000
v 0.07800000 -0.01000000 -0.01400000
v 0.07800000 -0.01000000 -0.01000000
v 0.07400000 -0.01000000 -0.00600000
v 0.07800000 -0.01000000 -0.00600000
v 0.07400000 -0.01000000 -0.00200000
v 0.07400000 -0.01000000 0.00200000
v 0.07800000 -0.01000000 0.00200000
v 0.07400000 -0.00600000 -0.01400000
v 0.07400000 -0.00600000 -0.01000000
v 0.07800000 -0.00600000 -0.01400000
v 0.07800000 -0.00600000 -0.01000000
v 0.07400000 -0.00600000 -0.00600000
v 0.07800000 -0.00600000 -0.00600000
v 0.07400000 -0.00600000 -0.00200000
v 0.07400000 -0.00600000 0.00200000
v 0.07800000 -0.00600000 0.00200000
v 0.07400000 -0.00200000 -0.01400000
v 0.07400000 -0.00200000 -0.01000000
v 0.07800000 -0.00200000 -0.01400000
v 0.07800000 -0.00200000 -0.01000000
v 0.07400000 -0.00200000 -0.00600000
v 0.07800000 -0.00200000 -0.00600000
v 0.07400000 -0.00200000 -0.00200000
v 0.07400000 -0.00200000 0.00200000
v 0.07800000 -0.00200000 0.00200000
v 0.07400000 0.00200000 -0.01400000
v 0.07400000 0.00200000 -0.01000000
v 0.07800000 0.00200000 -0.01400000
v 0.07800000 0.00200000 -0.01000000
v 0.07400000 0.00200000 -0.00600000
v 0.07800000 0.00200000 -0.00600000
v 0.07400000 0.00200000 -0.00200000
v 0.07400000 0.00200000 0.00200000
v 0.07800000 0.00200000 0.00200000
v 0.07400000 0.00600000 -0.01400000
v 0.07400000 0.00600000 -0.01000000
v 0.07800000 0.00600000 -0.01400000
v 0.07800000 0.00600000 -0.01000000
v 0.07400000 0.00600000 -0.00600000
v 0.07800000 0.00600000 -0.00600000
v 0.07400000 0.00600000 -0.00200000
v 0.07400000 0.00600000 0.00200000
v 0.07800000 0.00600000 0.00200000
v 0.07400000 0.01000000 -0.01400000
v 0.07400000 0.01000000 -0.01000000
v 0.07800000 0.01000000 -0.01400000
v 0.07800000 0.01000000 -0.01000000
v 0.07400000 0.01000000 -0.00600000
v 0.07800000 0.01000000 -0.00600000
v 0.07400000 0.01000000 -0.00200000
v 0.07400000 0.01000000 0.00200000
v 0.07800000 0.01000000 0.00200000
v 0.07400000 0.01400000 -0.01400000
v 0.07400000 0.01400000 -0.01000000
v 0.07800000 0.01400000 -0.01400000
v 0.07800000 0.01400000 -0.01000000
v 0.07400000 0.01400000 -0.00600000
v 0.07800000 0.01400000 -0.00600000
v 0.07400000 0.01400000 -0.00200000
v 0.07400000 0.01400000 0.00200000
v 0.07800000 0.01400000 0.00200000
v 0.07400000 0.01400000 -0.01800000
v 0.07400000 0.01800000 -0.01800000
v 0.07400000 0.01800000 -0.01400000
v 0.07800000 0.01400000 -0.01800000
v 0.07800000 0.01800000 -0.01800000
v 0.07800000 0.01800000 -0.01400000
v 0.07400000 0.01800000 -0.01000000
v 0.07800000 0.01800000 -0.01000000
v 0.07400000 0.01800000 -0.00600000
v 0.07800000 0.01800000 -0.00600000
v 0.07400000 0.01800000 -0.00200000
v 0.07400000 0.01800000 0.00200000
v 0.07800000 0.01800000 0.00200000
v 0.07400000 0.02200000 -0.01800000
v 0.07400000 0.02200000 -0.01400000
v 0.07800000 0.02200000 -0.01800000
v 0.07800000 0.02200000 -0.01400000
v 0.07400000 0.02200000 -0.01000000
v 0.07800000 0.02200000 -0.01000000
v 0.07400000 0.02200000 -0.00600000
v 0.07800000 0.02200000 -0.00600000
v 0.07400000 0.02200000 -0.00200000
v 0.07800000 0.02200000 -0.00200000
v 0.07400000 0.02200000 0.00200000
v 0.07800000 0.02200000 0.00200000
v 0.08200000 -0.02200000 -0.01800000
v 0.08200000 -0.02200000 -0.01400000
v 0.08200000 -0.01800000 -0.01800000
v 0.08200000 -0.01800000 -0.01400000
v 0.08200000 -0.02200000 -0.01000000
v 0.08200000 -0.01800000 -0.01000000
v 0.08200000 -0.02200000 -0.00600000
v 0.08200000 -0.01800000 -0.00600000
v 0.08200000 -0.02200000 -0.00200000
v 0.08200000 -0.02200000 0.00200000
v 0.08200000 -0.01800000 0.00200000
v 0.08200000 -0.01400000 -0.00600000
v 0.08200000 -0.01400000 0.00200000
v 0.08200000 -0.01000000 -0.00600000
v 0.08200000 -0.01000000 0.00200000
v 0.08200000 -0.00600000 -0.00600000
v 0.08200000 -0.00600000 0.00200000
v 0.08200000 -0.00200000 -0.00600000
v 0.08200000 -0.00200000 0.00200000
v 0.08200000 0.00200000 -0.00600000
v 0.08200000 0.00200000 0.00200000
v 0.08200000 0.00600000 -0.00600000
v 0.08200000 0.00600000 0.00200000
v 0.08200000 0.01000000 -0.00600000
v 0.08200000 0.01000000 0.00200000
v 0.08200000 0.01400000 -0.00600000
v 0.08200000 0.01400000 0.00200000
v 0.08200000 0.01800000 -0.00600000
v 0.08200000 0.01800000 0.00200000
v 0.08200000 0.01800000 -0.01800000
v 0.08200000 0.01800000 -0.01400000
v 0.08200000 0.02200000 -0.01800000
v 0.08200000 0.02200000 -0.01400000
v 0.08200000 0.01800000 -0.01000000
v 0.08200000 0.02200000 -0.01000000
v 0.08200000 0.02200000 -0.00600000
v 0.08200000 0.02200000 -0.00200000
v 0.08200000 0.02200000 0.00200000
v 0.08600000 -0.02200000 -0.01800000
v 0.08600000 -0.02200000 -0.01400000
v 0.08600000 -0.01800000 -0.01800000
v 0.08600000 -0.01800000 -0.01400000
v 0.08600000 -0.02200000 -0.01000000
v 0.08600000 -0.02200000 -0.00600000
v 0.08600000 -0.02200000 -0.00200000
v 0.08600000 -0.02200000 0.00200000
v 0.08600000 -0.01800000 0.00200000
v 0.08200000 -0.01400000 -0.01400000
v 0.08200000 -0.01400000 -0.01000000
v 0.08600000 -0.01400000 -0.01400000
v 0.08600000 -0.01400000 -0.01000000
v 0.08600000 -0.01400000 -0.00600000
v 0.08600000 -0.01400000 0.00200000
v 0.08600000 -0.01000000 -0.00600000
v 0.08600000 -0.01000000 0.00200000
v 0.08600000 -0.00600000 -0.00600000
v 0.08600000 -0.00600000 0.00200000
v 0.08600000 -0.00200000 -0.00600000
v 0.08600000 -0.00200000 0.00200000
v 0.08600000 0.00200000 -0.00600000
v 0.08600000 0.00200000 0.00200000
v 0.08600000 0.00600000 -0.00600000
v 0.08600000 0.00600000 0.00200000
v 0.08600000 0.01000000 -0.00600000
v 0.08600000 0.01000000 0.00200000
v 0.08600000 0.01400000 -0.00600000
v 0.08600000 0.01400000 0.00200000
v 0.08200000 0.01400000 -0.01400000
v 0.08200000 0.01400000 -0.01000000
v 0.08600000 0.01400000 -0.01400000
v 0.08600000 0.01400000 -0.01000000
v 0.08600000 0.01800000 -0.01400000
v 0.08600000 0.01800000 0.00200000
v 0.08600000 0.01800000 -0.01800000
v 0.08600000 0.02200000 -0.01800000
v 0.08600000 0.02200000 -0.01400000
v 0.08600000 0.02200000 -0.01000000
v 0.08600000 0.02200000 -0.00600000
v 0.08600000 0.02200000 -0.00200000
v 0.08600000 0.02200000 0.00200000
v 0.09000000 -0.02200000 -0.01800000
v 0.09000000 -0.02200000 -0.01400000
v 0.09000000 -0.01800000 -0.01800000
v 0.09000000 -0.01800000 -0.01400000
v 0.09000000 -0.02200000 -0.01000000
v 0.09000000 -0.01800000 -0.01000000
v 0.09000000 -0.02200000 -0.00600000
v 0.09000000 -0.01800000 -0.00600000
v 0.09000000 -0.02200000 -0.00200000
v 0.09000000 -0.01800000 -0.00200000
v 0.09000000 -0.02200000 0.00200000
v 0.09000000 -0.01800000 0.00200000
v 0.08600000 -0.01400000 -0.01800000
v 0.09000000 -0.01400000 -0.01800000
v 0.09000000 -0.01400000 -0.01400000
v 0.09000000 -0.01400000 -0.01000000
v 0.09000000 -0.01400000 -0.00600000
v 0.09000000 -0.01400000 -0.00200000
v 0.09000000 -0.01400000 0.00200000
v 0.08600000 -0.01000000 -0.01800000
v 0.08600000 -0.01000000 -0.01400000
v 0.09000000 -0.01000000 -0.01800000
v 0.09000000 -0.01000000 -0.01400000
v 0.08600000 -0.01000000 -0.01000000
v 0.09000000 -0.01000000 -0.01000000
v 0.09000000 -0.01000000 -0.00600000
v 0.09000000 -0.01000000 -0.00200000
v 0.09000000 -0.01000000 0.00200000
v 0.08600000 -0.00600000 -0.01800000
v 0.08600000 -0.00600000 -0.01400000
v 0.09000000 -0.00600000 -0.01800000
v 0.09000000 -0.00600000 -0.01400000
v 0.08600000 -0.00600000 -0.01000000
v 0.09000000 -0.00600000 -0.01000000
v 0.09000000 -0.00600000 -0.00600000
v 0.09000000 -0.00600000 -0.00200000
v 0.09000000 -0.00600000 0.00200000
v 0.08600000 -0.00200000 -0.01800000
v 0.08600000 -0.00200000 -0.01400000
v 0.09000000 -0.00200000 -0.01800000
v 0.09000000 -0.00200000 -0.01400000
v 0.08600000 -0.00200000 -0.01000000
v 0.09000000 -0.00200000 -0.01000000
v 0.09000000 -0.00200000 -0.00600000
v 0.09000000 -0.00200000 -0.00200000
v 0.09000000 -0.00200000 0.00200000
v 0.08600000 0.00200000 -0.01800000
v 0.08600000 0.00200000 -0.01400000
v 0.09000000 0.00200000 -0.01800000
v 0.09000000 0.00200000 -0.01400000
v 0.08600000 0.00200000 -0.01000000
v 0.09000000 0.00200000 -0.01000000
v 0.09000000 0.00200000 -0.00600000
v 0.09000000 0.00200000 -0.00200000
v 0.09000000 0.00200000 0.00200000
v 0.08600000 0.00600000 -0.01800000
v 0.08600000 0.00600000 -0.01400000
v 0.09000000 0.00600000 -0.01800000
v 0.09000000 0.00600000 -0.01400000
v 0.08600000 0.00600000 -0.01000000
v 0.09000000 0.00600000 -0.01000000
v 0.09000000 0.00600000 -0.00600000
v 0.09000000 0.00600000 -0.00200000
v 0.09000000 0.00600000 0.00200000
v 0.08600000 0.01000000 -0.01800000
v 0.08600000 0.01000000 -0.01400000
v 0.09000000 0.01000000 -0.01800000
v 0.09000000 0.01000000 -0.01400000
v 0.08600000 0.01000000 -0.01000000
v 0.09000000 0.01000000 -0.01000000
v 0.09000000 0.01000000 -0.00600000
v 0.09000000 0.01000000 -0.00200000
v 0.09000000 0.01000000 0.00200000
v 0.08600000 0.01400000 -0.01800000
v 0.09000000 0.01400000 -0.01800000
v 0.09000000 0.01400000 -0.01400000
v 0.09000000 0.01400000 -0.01000000
v 0.09000000 0.01400000 -0.00600000
v 0.09000000 0.01400000 -0.00200000
v 0.09000000 0.01400000 0.00200000
v 0.09000000 0.01800000 -0.01800000
v 0.09000000 0.01800000 -0.01400000
v 0.09000000 0.01800000 -0.01000000
v 0.09000000 0.01800000 -0.00600000
v 0.09000000 0.01800000 -0.00200000
v 0.09000000 0.01800000 0.00200000
v 0.09000000 0.02200000 -0.01800000
v 0.09000000 0.02200000 -0.01400000
v 0.09000000 0.02200000 -0.01000000
v 0.09000000 0.02200000 -0.00600000
v 0.09000000 0.02200000 -0.00200000
v 0.09000000 0.02200000 0.00200000
f 2 4 1
f 5 2 1
f 1 4 3
f 3 5 1
f 6 2 5
f 7 5 3
f 8 9 2
f 6 8 2
f 2 9 4
f 10 8 6
f 11 12 8
f 10 11 8
f 8 12 9
f 13 11 10
f 14 15 11
f 13 14 11
f 11 15 12
f 16 14 13
f 17 18 14
f 16 17 14
f 14 18 15
f 17 20 18
f 19 17 16
f 19 20 17
f 4 22 3
f 3 22 21
f 21 7 3
f 22 25 21
f 24 7 21
f 21 25 24
f 24 23 7
f 25 23 24
f 9 26 4
f 4 26 22
f 25 27 23
f 28 27 25
f 12 29 9
f 9 29 26
f 28 30 27
f 31 30 28
f 15 32 12
f 12 32 29
f 18 33 15
f 15 33 32
f 18 34 33
f 20 34 18
f 26 36 22
f 22 36 35
f 35 25 22
f 37 25 35
f 37 28 25
f 38 28 37
f 29 39 26
f 26 39 36
f 38 31 28
f 40 31 38
f 32 41 29
f 29 41 39
f 33 42 32
f 32 42 41
f 33 43 42
f 34 43 33
f 36 45 35
f 35 45 44
f 44 37 35
f 46 37 44
f 46 38 37
f 47 38 46
f 39 48 36
f 36 48 45
f 47 40 38
f 49 40 47
f 41 50 39
f 39 50 48
f 42 51 41
f 41 51 50
f 42 52 51
f 43 52 42
f 45 54 44
f 44 54 53
f 53 46 44
f 55 46 53
f 55 47 46
f 56 47 55
f 48 57 45
f 45 57 54
f 56 49 47
f 58 49 56
f 50 59 48
f 48 59 57
f 51 60 50
f 50 60 59
f 51 61 60
f 52 61 51
f 54 63 53
f 53 63 62
f 62 55 53
f 64 55 62
f 64 56 55
f 65 56 64
f 57 66 54
f 54 66 63
f 65 58 56
f 67 58 65
f 59 68 57
f 57 68 66
f 60 69 59
f 59 69 68
f 60 70 69
f 61 70 60
f 63 72 62
f 62 72 71
f 71 64 62
f 73 64 71
f 73 65 64
f 74 65 73
f 66 75 63
f 63 75 72
f 74 67 65
f 76 67 74
f 68 77 66
f 66 77 75
f 69 78 68
f 68 78 77
f 69 79 78
f 70 79 69
f 72 81 71
f 71 81 80
f 80 73 71
f 82 73 80
f 82 74 73
f 83 74 82
f 75 84 72
f 72 84 81
f 83 76 74
f 85 76 83
f 77 86 75
f 75 86 84
f 78 87 77
f 77 87 86
f 78 88 87
f 79 88 78
f 81 90 80
f 80 90 89
f 89 82 80
f 91 82 89
f 91 83 82
f 92 83 91
f 84 93 81
f 81 93 90
f 92 85 83
f 94 85 92
f 86 95 84
f 84 95 93
f 87 96 86
f 86 96 95
f 87 97 96
f 88 97 87
f 89 100 98
f 101 89 98
f 98 100 99
f 99 101 98
f 91 89 101
f 102 101 99
f 102 91 101
f 103 91 102
f 90 104 89
f 89 104 100
f 103 92 91
f 105 92 103
f 93 106 90
f 90 106 104
f 105 94 92
f 107 94 105
f 95 108 93
f 93 108 106
f 96 109 95
f 95 109 108
f 96 110 109
f 97 110 96
f 100 112 99
f 99 112 111
f 111 102 99
f 112 114 111
f 113 102 111
f 111 114 113
f 104 115 100
f 100 115 112
f 115 116 112
f 112 116 114
f 106 117 104
f 104 117 115
f 117 118 115
f 115 118 116
f 108 119 106
f 106 119 117
f 119 120 117
f 117 120 118
f 109 121 108
f 108 121 119
f 109 122 121
f 110 122 109
f 121 122 119
f 119 122 120
f 123 6 5
f 7 123 5
f 124 6 123
f 23 126 7
f 125 123 7
f 7 126 125
f 124 10 6
f 127 10 124
f 27 128 23
f 23 128 126
f 127 13 10
f 129 13 127
f 30 130 27
f 27 130 128
f 129 16 13
f 131 16 129
f 131 19 16
f 19 133 20
f 132 19 131
f 132 133 19
f 31 130 30
f 134 130 31
f 20 135 34
f 133 135 20
f 40 134 31
f 136 134 40
f 34 137 43
f 135 137 34
f 49 136 40
f 138 136 49
f 43 139 52
f 137 139 43
f 58 138 49
f 140 138 58
f 52 141 61
f 139 141 52
f 67 140 58
f 142 140 67
f 61 143 70
f 141 143 61
f 76 142 67
f 144 142 76
f 70 145 79
f 143 145 70
f 85 144 76
f 146 144 85
f 79 147 88
f 145 147 79
f 94 146 85
f 148 146 94
f 88 149 97
f 147 149 88
f 107 148 94
f 150 148 107
f 97 151 110
f 149 151 97
f 152 103 102
f 113 152 102
f 153 103 152
f 114 155 113
f 154 152 113
f 113 155 154
f 153 105 103
f 156 105 153
f 116 157 114
f 114 157 155
f 156 107 105
f 150 107 156
f 118 158 116
f 116 158 157
f 120 159 118
f 118 159 158
f 110 160 122
f 151 160 110
f 122 160 120
f 120 160 159
f 161 124 123
f 125 161 123
f 162 124 161
f 126 164 125
f 163 161 125
f 125 164 163
f 162 127 124
f 165 127 162
f 165 129 127
f 166 129 165
f 166 131 129
f 167 131 166
f 167 132 131
f 132 169 133
f 168 132 167
f 168 169 132
f 128 171 126
f 126 171 170
f 170 164 126
f 171 173 170
f 172 164 170
f 170 173 172
f 130 134 128
f 128 134 171
f 134 174 171
f 171 174 173
f 133 175 135
f 169 175 133
f 136 174 134
f 176 174 136
f 135 177 137
f 175 177 135
f 138 176 136
f 178 176 138
f 137 179 139
f 177 179 137
f 140 178 138
f 180 178 140
f 139 181 141
f 179 181 139
f 142 180 140
f 182 180 142
f 141 183 143
f 181 183 141
f 144 182 142
f 184 182 144
f 143 185 145
f 183 185 143
f 146 184 144
f 186 184 146
f 145 187 147
f 185 187 145
f 148 186 146
f 188 186 148
f 147 189 149
f 187 189 147
f 191 156 190
f 192 191 190
f 190 156 153
f 153 192 190
f 193 191 192
f 194 192 153
f 148 150 191
f 193 148 191
f 191 150 156
f 188 148 193
f 149 195 151
f 189 195 149
f 196 153 152
f 154 196 152
f 194 153 196
f 155 198 154
f 197 196 154
f 154 198 197
f 157 199 155
f 155 199 198
f 158 200 157
f 157 200 199
f 159 201 158
f 158 201 200
f 151 202 160
f 195 202 151
f 160 202 159
f 159 202 201
f 203 162 161
f 163 203 161
f 204 162 203
f 205 203 163
f 205 204 203
f 206 204 205
f 204 165 162
f 207 165 204
f 206 207 204
f 208 207 206
f 207 166 165
f 209 166 207
f 208 209 207
f 210 209 208
f 209 167 166
f 211 167 209
f 210 211 209
f 212 211 210
f 211 168 167
f 168 214 169
f 213 168 211
f 213 214 168
f 212 213 211
f 214 213 212
f 164 172 163
f 163 172 215
f 215 205 163
f 216 205 215
f 216 206 205
f 217 206 216
f 217 208 206
f 218 208 217
f 218 210 208
f 219 210 218
f 219 212 210
f 220 212 219
f 169 221 175
f 214 221 169
f 220 214 212
f 221 214 220
f 172 223 215
f 215 223 222
f 222 216 215
f 224 216 222
f 224 217 216
f 225 217 224
f 173 226 172
f 172 226 223
f 225 218 217
f 227 218 225
f 174 176 173
f 173 176 226
f 227 219 218
f 228 219 227
f 228 220 219
f 229 220 228
f 175 230 177
f 221 230 175
f 229 221 220
f 230 221 229
f 223 232 222
f 222 232 231
f 231 224 222
f 233 224 231
f 233 225 224
f 234 225 233
f 226 235 223
f 223 235 232
f 234 227 225
f 236 227 234
f 176 178 226
f 226 178 235
f 236 228 227
f 237 228 236
f 237 229 228
f 238 229 237
f 177 239 179
f 230 239 177
f 238 230 229
f 239 230 238
f 232 241 231
f 231 241 240
f 240 233 231
f 242 233 240
f 242 234 233
f 243 234 242
f 235 244 232
f 232 244 241
f 243 236 234
f 245 236 243
f 178 180 235
f 235 180 244
f 245 237 236
f 246 237 245
f 246 238 237
f 247 238 246
f 179 248 181
f 239 248 179
f 247 239 238
f 248 239 247
f 241 250 240
f 240 250 249
f 249 242 240
f 251 242 249
f 251 243 242
f 252 243 251
f 244 253 241
f 241 253 250
f 252 245 243
f 254 245 252
f 180 182 244
f 244 182 253
f 254 246 245
f 255 246 254
f 255 247 246
f 256 247 255
f 181 257 183
f 248 257 181
f 256 248 247
f 257 248 256
f 250 259 249
f 249 259 258
f 258 251 249
f 260 251 258
f 260 252 251
f 261 252 260
f 253 262 250
f 250 262 259
f 261 254 252
f 263 254 261
f 182 184 253
f 253 184 262
f 263 255 254
f 264 255 263
f 264 256 255
f 265 256 264
f 183 266 185
f 257 266 183
f 265 257 256
f 266 257 265
f 259 268 258
f 258 268 267
f 267 260 258
f 269 260 267
f 269 261 260
f 270 261 269
f 262 271 259
f 259 271 268
f 270 263 261
f 272 263 270
f 184 186 262
f 262 186 271
f 272 264 263
f 273 264 272
f 273 265 264
f 274 265 273
f 185 275 187
f 266 275 185
f 274 266 265
f 275 266 274
f 268 192 267
f 267 192 276
f 276 269 267
f 277 269 276
f 277 270 269
f 278 270 277
f 271 193 268
f 268 193 192
f 278 272 270
f 279 272 278
f 186 188 271
f 271 188 193
f 279 273 272
f 280 273 279
f 280 274 273
f 281 274 280
f 187 282 189
f 275 282 187
f 281 275 274
f 282 275 281
f 192 194 276
f 276 194 196
f 196 277 276
f 283 277 196
f 283 278 277
f 284 278 283
f 284 279 278
f 285 279 284
f 285 280 279
f 286 280 285
f 286 281 280
f 287 281 286
f 189 288 195
f 282 288 189
f 287 282 281
f 288 282 287
f 197 283 196
f 198 290 197
f 289 283 197
f 197 290 289
f 289 284 283
f 290 284 289
f 199 291 198
f 198 291 290
f 290 285 284
f 291 285 290
f 200 292 199
f 199 292 291
f 291 286 285
f 292 286 291
f 201 293 200
f 200 293 292
f 292 287 286
f 293 287 292
f 195 294 202
f 288 294 195
f 202 294 201
f 201 294 293
f 293 288 287
f 294 288 293

