# https://github.com/mikedh/trimesh

o 3.obj
v -0.17177219 0.11580355 -0.10067475
v -0.17286066 0.11673394 -0.09609051
v -0.17496578 0.11326467 -0.09813106
v -0.17283487 0.11123617 -0.10122995
v -0.16808629 0.11254561 -0.10195239
v -0.16577706 0.11606066 -0.10092922
v -0.16810340 0.11744721 -0.09741224
v -0.17495663 0.10748618 -0.09918724
v -0.17288981 0.11697804 -0.08948235
v -0.17500000 0.11447242 -0.09233184
v -0.16812966 0.11795036 -0.09182941
v -0.17246257 0.10912358 -0.09317837
v -0.16563368 0.10742858 -0.09102698
v -0.16814340 0.10080211 -0.09528543
v -0.17270571 0.10002449 -0.09717151
v -0.16092269 0.11255212 -0.10200323
v -0.15836670 0.11608042 -0.10095404
v -0.16091763 0.11751276 -0.09743393
v -0.16091546 0.11804289 -0.09182773
v -0.15325738 0.11255308 -0.10200323
v -0.15070212 0.11608042 -0.10095404
v -0.15325208 0.11751300 -0.09743562
v -0.15324847 0.11804289 -0.09182917
v -0.15891106 0.10788836 -0.09065468
v -0.16126607 0.10129514 -0.09472420
v -0.15125804 0.10785149 -0.09065155
v -0.15328967 0.10126622 -0.09472179
v -0.17289632 0.11254296 -0.08487980
v -0.16813328 0.11152004 -0.08481184
v -0.16090871 0.11214536 -0.08443183
v -0.15326172 0.11233308 -0.08441785
v -0.14559353 0.11255308 -0.10200323
v -0.14303826 0.11608042 -0.10095404
v -0.14558823 0.11751300 -0.09743562
v -0.14558461 0.11804289 -0.09182917
v -0.13792967 0.11255308 -0.10200323
v -0.13537441 0.11608042 -0.10095404
v -0.13792413 0.11751300 -0.09743562
v -0.13792075 0.11804289 -0.09182917
v -0.14304694 0.10781896 -0.09065106
v -0.14614511 0.10123369 -0.09472204
v -0.13537513 0.10782016 -0.09065058
v -0.13793834 0.10124260 -0.09471987
v -0.13026581 0.11255308 -0.10200323
v -0.12771055 0.11608042 -0.10095404
v -0.13026027 0.11751300 -0.09743562
v -0.13025690 0.11804289 -0.09182917
v -0.12260196 0.11255308 -0.10200323
v -0.12004669 0.11608042 -0.10095404
v -0.12259641 0.11751300 -0.09743562
v -0.12259304 0.11804289 -0.09182917
v -0.12771127 0.10782016 -0.09065058
v -0.13027135 0.10124381 -0.09467962
v -0.12004742 0.10782016 -0.09065058
v -0.12260220 0.10124622 -0.09467962
v -0.14560630 0.11225283 -0.08441352
v -0.13792895 0.11225307 -0.08441328
v -0.13026485 0.11225307 -0.08441328
v -0.12260099 0.11225307 -0.08441328
v -0.11493810 0.11255308 -0.10200323
v -0.11238284 0.11608042 -0.10095404
v -0.11493256 0.11751300 -0.09743562
v -0.11492918 0.11804289 -0.09182917
v -0.10727424 0.11255308 -0.10200323
v -0.10471898 0.11608042 -0.10095404
v -0.10726870 0.11751300 -0.09743562
v -0.10726532 0.11804289 -0.09182917
v -0.11238356 0.10782016 -0.09065058
v -0.11493930 0.10124574 -0.09471987
v -0.10471970 0.10782016 -0.09065058
v -0.10728075 0.10124333 -0.09471987
v -0.09961038 0.11255308 -0.10200323
v -0.09705512 0.11608042 -0.10095404
v -0.09960484 0.11751300 -0.09743562
v -0.09960147 0.11804289 -0.09182917
v -0.09194653 0.11255308 -0.10200323
v -0.08939126 0.11608042 -0.10095404
v -0.09194098 0.11751300 -0.09743562
v -0.09193761 0.11804289 -0.09182917
v -0.09705560 0.10782016 -0.09065058
v -0.09961593 0.10124381 -0.09467962
v -0.08939175 0.10782016 -0.09065058
v -0.09194773 0.10124574 -0.09471987
v -0.11493713 0.11225307 -0.08441328
v -0.10727328 0.11225307 -0.08441328
v -0.09960942 0.11225307 -0.08441328
v -0.09194556 0.11225307 -0.08441328
v -0.08428267 0.11255308 -0.10200323
v -0.08172717 0.11608042 -0.10095404
v -0.08427713 0.11751300 -0.09743562
v -0.08427375 0.11804289 -0.09182917
v -0.07661881 0.11255308 -0.10200323
v -0.07406331 0.11608042 -0.10095404
v -0.07661327 0.11751300 -0.09743562
v -0.07660990 0.11804289 -0.09182917
v -0.08172789 0.10782016 -0.09065058
v -0.08428918 0.10124333 -0.09471987
v -0.07406403 0.10782016 -0.09065058
v -0.07662532 0.10124333 -0.09471987
v -0.06895495 0.11255308 -0.10200323
v -0.06639945 0.11608042 -0.10095404
v -0.06894941 0.11751300 -0.09743562
v -0.06894604 0.11804289 -0.09182917
v -0.06129110 0.11255308 -0.10200323
v -0.05873560 0.11608042 -0.10095404
v -0.06128556 0.11751300 -0.09743562
v -0.06128218 0.11804289 -0.09182917
v -0.06640018 0.10782016 -0.09065058
v -0.06896146 0.10124333 -0.09471987
v -0.05873632 0.10782016 -0.09065058
v -0.06129640 0.10124381 -0.09467962
v -0.08428171 0.11225307 -0.08441328
v -0.07661785 0.11225307 -0.08441328
v -0.06895399 0.11225307 -0.08441328
v -0.06129013 0.11225307 -0.08441328
v -0.05362724 0.11255308 -0.10200323
v -0.05107174 0.11608042 -0.10095404
v -0.05362170 0.11751300 -0.09743562
v -0.05361832 0.11804289 -0.09182917
v -0.04596338 0.11255308 -0.10200323
v -0.04340788 0.11608042 -0.10095404
v -0.04595784 0.11751300 -0.09743562
v -0.04595447 0.11804289 -0.09182917
v -0.05107246 0.10782016 -0.09065058
v -0.05362845 0.10124574 -0.09471987
v -0.04340860 0.10782016 -0.09065058
v -0.04596965 0.10124333 -0.09471987
v -0.03829953 0.11255308 -0.10200323
v -0.03574402 0.11608042 -0.10095404
v -0.03829398 0.11751300 -0.09743562
v -0.03829061 0.11804289 -0.09182917
v -0.03063567 0.11255308 -0.10200323
v -0.02808017 0.11608042 -0.10095404
v -0.03063013 0.11751300 -0.09743562
v -0.03062675 0.11804289 -0.09182917
v -0.03576017 0.10781944 -0.09064889
v -0.03830483 0.10124381 -0.09467962
v -0.02814041 0.10753557 -0.09065106
v -0.03064724 0.10124309 -0.09468131
v -0.05362628 0.11225307 -0.08441328
v -0.04596242 0.11225307 -0.08441328
v -0.03830459 0.11225307 -0.08441014
v -0.03065471 0.11210295 -0.08440918
v -0.02297181 0.11255308 -0.10200323
v -0.02041631 0.11608042 -0.10095404
v -0.02296627 0.11751300 -0.09743562
v -0.02296290 0.11804289 -0.09182917
v -0.01530771 0.11255308 -0.10200323
v -0.01275245 0.11608042 -0.10095404
v -0.01530241 0.11751300 -0.09743562
v -0.01529904 0.11804289 -0.09182917
v -0.02034474 0.10737894 -0.09077854
v -0.02302531 0.10110814 -0.09468637
v -0.01271028 0.10728545 -0.09100168
v -0.01529567 0.10095561 -0.09466709
v -0.00764386 0.11255308 -0.10200323
v -0.00508859 0.11608042 -0.10095404
v -0.00763856 0.11751300 -0.09743562
v -0.00763518 0.11804289 -0.09182917
v 0.00002000 0.11255308 -0.10200323
v 0.00257526 0.11608042 -0.10095404
v 0.00002530 0.11751300 -0.09743562
v 0.00002868 0.11804289 -0.09182917
v -0.00538186 0.10726472 -0.09075492
v -0.00759012 0.10095223 -0.09470420
v 0.00181717 0.10728400 -0.09075830
v 0.00000964 0.10096452 -0.09473023
v -0.02298940 0.11199090 -0.08459184
v -0.01526145 0.11168848 -0.08450870
v -0.00793736 0.11170775 -0.08452629
v -0.00015494 0.11172679 -0.08479738
v 0.00768386 0.11255308 -0.10200323
v 0.01023912 0.11608042 -0.10095404
v 0.00768916 0.11751300 -0.09743562
v 0.00769277 0.11804289 -0.09182917
v 0.01534771 0.11255308 -0.10200323
v 0.01790298 0.11608042 -0.10095404
v 0.01535302 0.11751300 -0.09743562
v 0.01535639 0.11804289 -0.09182917
v 0.01000996 0.10726304 -0.09088577
v 0.00752554 0.10096693 -0.09457263
v 0.01714223 0.10722978 -0.09034744
v 0.01519325 0.10097199 -0.09456950
v 0.02301157 0.11255308 -0.10200323
v 0.02556683 0.11608042 -0.10095404
v 0.02301687 0.11751300 -0.09743562
v 0.02302049 0.11804289 -0.09182917
v 0.03067543 0.11255308 -0.10200323
v 0.03323069 0.11608042 -0.10095404
v 0.03068073 0.11751300 -0.09743562
v 0.03068435 0.11804289 -0.09182917
v 0.02525719 0.10757268 -0.09049949
v 0.02272915 0.10095874 -0.09466637
v 0.03295767 0.10770618 -0.09064889
v 0.03040024 0.10113055 -0.09466709
v 0.00713661 0.11170559 -0.08428677
v 0.01465155 0.11170872 -0.08434701
v 0.02273060 0.11182222 -0.08438797
v 0.03007927 0.11198969 -0.08423905
v 0.03833929 0.11255308 -0.10200323
v 0.04089455 0.11608042 -0.10095404
v 0.03834459 0.11751300 -0.09743562
v 0.03834820 0.11804289 -0.09182917
v 0.04600314 0.11255308 -0.10200323
v 0.04855841 0.11608042 -0.10095404
v 0.04600845 0.11751300 -0.09743562
v 0.04601206 0.11804289 -0.09182917
v 0.04090226 0.10789269 -0.09067540
v 0.03834772 0.10131851 -0.09469119
v 0.04856250 0.10789245 -0.09067540
v 0.04600748 0.10131827 -0.09469119
v 0.05366700 0.11255308 -0.10200323
v 0.05622226 0.11608042 -0.10095404
v 0.05367230 0.11751300 -0.09743562
v 0.05367592 0.11804289 -0.09182917
v 0.06133086 0.11255308 -0.10200323
v 0.06388612 0.11608042 -0.10095404
v 0.06133616 0.11751300 -0.09743562
v 0.06133977 0.11804289 -0.09182917
v 0.05622636 0.10789245 -0.09067540
v 0.05367037 0.10131779 -0.09473143
v 0.06389022 0.10789245 -0.09067540
v 0.06132893 0.10131538 -0.09473143
v 0.03835591 0.11232585 -0.08443617
v 0.04600869 0.11232561 -0.08443858
v 0.05367254 0.11232561 -0.08443858
v 0.06133640 0.11232561 -0.08443858
v 0.06899472 0.11255308 -0.10200323
v 0.07154998 0.11608042 -0.10095404
v 0.06900002 0.11751300 -0.09743562
v 0.06900363 0.11804289 -0.09182917
v 0.07665857 0.11255308 -0.10200323
v 0.07921383 0.11608042 -0.10095404
v 0.07666411 0.11751300 -0.09743562
v 0.07666749 0.11804289 -0.09182917
v 0.07155407 0.10789245 -0.09067540
v 0.06899375 0.10131586 -0.09469119
v 0.07922130 0.10789438 -0.09067323
v 0.07666195 0.10131779 -0.09473143
v 0.08432243 0.11255308 -0.10200323
v 0.08687769 0.11608042 -0.10095404
v 0.08432797 0.11751300 -0.09743562
v 0.08433135 0.11804289 -0.09182917
v 0.09198629 0.11255308 -0.10200323
v 0.09454155 0.11608042 -0.10095404
v 0.09199183 0.11751300 -0.09743562
v 0.09199520 0.11804289 -0.09182917
v 0.08688588 0.10793727 -0.09065974
v 0.08432412 0.10131706 -0.09472902
v 0.09455625 0.10797920 -0.09064769
v 0.09198797 0.10132188 -0.09472252
v 0.06900026 0.11232561 -0.08443858
v 0.07666411 0.11232561 -0.08443858
v 0.08433616 0.11236729 -0.08442822
v 0.09199882 0.11237187 -0.08442291
v 0.09965014 0.11255308 -0.10200323
v 0.10220541 0.11608042 -0.10095404
v 0.09965569 0.11751300 -0.09743562
v 0.09965906 0.11804289 -0.09182917
v 0.10731400 0.11255308 -0.10200323
v 0.10986926 0.11608042 -0.10095428
v 0.10731954 0.11751300 -0.09743562
v 0.10732292 0.11804289 -0.09182917
v 0.10221529 0.10798209 -0.09064287
v 0.09964822 0.10132478 -0.09471842
v 0.10987914 0.10798209 -0.09064287
v 0.10731328 0.10132526 -0.09467818
v 0.11497786 0.11255284 -0.10200347
v 0.11752878 0.11608042 -0.10095958
v 0.11497015 0.11751300 -0.09743634
v 0.11497810 0.11804289 -0.09182484
v 0.12264172 0.11255236 -0.10200395
v 0.12519288 0.11608042 -0.10097501
v 0.12263039 0.11766120 -0.09745393
v 0.12263569 0.11815157 -0.09183640
v 0.11754300 0.10798209 -0.09064287
v 0.11498220 0.10132791 -0.09467818
v 0.12520686 0.10798209 -0.09064287
v 0.12264605 0.10132791 -0.09467818
v 0.09966292 0.11241476 -0.08441014
v 0.10732533 0.11241476 -0.08440966
v 0.11498918 0.11241476 -0.08440966
v 0.12265304 0.11241476 -0.08440966
v 0.13030557 0.11255164 -0.10200468
v 0.13286083 0.11608018 -0.10098488
v 0.13029136 0.11778939 -0.09747321
v 0.13029160 0.11809109 -0.09184267
v 0.13796943 0.11255140 -0.10200492
v 0.14052493 0.11607994 -0.10098537
v 0.13796003 0.11778891 -0.09748357
v 0.13795883 0.11830001 -0.09185785
v 0.13287071 0.10798209 -0.09064287
v 0.13030991 0.10132791 -0.09467818
v 0.14053457 0.10798209 -0.09064287
v 0.13797377 0.10132791 -0.09467818
v 0.14563329 0.11255140 -0.10200492
v 0.14818879 0.11607994 -0.10098513
v 0.14546147 0.11778891 -0.09748333
v 0.14546629 0.11829977 -0.09186484
v 0.15329714 0.11255140 -0.10200492
v 0.15585265 0.11607994 -0.10098513
v 0.15315834 0.11778891 -0.09748502
v 0.15332052 0.11834025 -0.09185978
v 0.14820252 0.10798017 -0.09064865
v 0.14564124 0.10132405 -0.09467842
v 0.15584831 0.10796956 -0.09088770
v 0.15331257 0.10130863 -0.09495048
v 0.13031690 0.11241476 -0.08440966
v 0.13798076 0.11241476 -0.08440966
v 0.14562774 0.11241525 -0.08441231
v 0.15328799 0.11222536 -0.08443279
v 0.16095618 0.11255115 -0.10200492
v 0.16351554 0.11607994 -0.10097934
v 0.16089907 0.11778891 -0.09748044
v 0.16095618 0.10696833 -0.10215022
v 0.16070654 0.11829977 -0.09186797
v 0.16814557 0.11255911 -0.10192973
v 0.17043118 0.11604018 -0.10091789
v 0.16804315 0.11758168 -0.09746887
v 0.16815737 0.10697242 -0.10205889
v 0.16816099 0.11813181 -0.09185809
v 0.16350349 0.10792812 -0.09107734
v 0.16094534 0.10130670 -0.09491891
v 0.17045672 0.10741678 -0.09148796
v 0.16812508 0.10130815 -0.09525217
v 0.17336091 0.11578957 -0.10064680
v 0.17288620 0.11275911 -0.10113959
v 0.17497012 0.11328925 -0.09814094
v 0.17287801 0.11648429 -0.09763731
v 0.17289174 0.10698495 -0.10144008
v 0.17500000 0.10747846 -0.09920579
v 0.17497614 0.11450953 -0.09234292
v 0.17279150 0.11711467 -0.09185375
v 0.17398069 0.11023614 -0.09425720
v 0.17290957 0.10338773 -0.09659101
v 0.16094293 0.11199114 -0.08445810
v 0.16811544 0.11204897 -0.08443858
v 0.17290764 0.11257742 -0.08737530
f 1 3 2
f 1 4 3
f 1 5 4
f 1 6 5
f 1 7 6
f 1 2 7
f 4 8 3
f 2 10 9
f 2 3 10
f 2 11 7
f 2 9 11
f 3 12 10
f 3 8 12
f 12 14 13
f 12 15 14
f 8 15 12
f 6 16 5
f 6 17 16
f 6 18 17
f 6 7 18
f 7 19 18
f 7 11 19
f 17 20 16
f 17 21 20
f 17 22 21
f 17 18 22
f 18 23 22
f 18 19 23
f 13 25 24
f 13 14 25
f 24 27 26
f 24 25 27
f 12 29 28
f 12 13 29
f 10 12 28
f 13 30 29
f 13 24 30
f 24 31 30
f 24 26 31
f 21 32 20
f 21 33 32
f 21 34 33
f 21 22 34
f 22 35 34
f 22 23 35
f 33 36 32
f 33 37 36
f 33 38 37
f 33 34 38
f 34 39 38
f 34 35 39
f 26 41 40
f 26 27 41
f 40 43 42
f 40 41 43
f 37 44 36
f 37 45 44
f 37 46 45
f 37 38 46
f 38 47 46
f 38 39 47
f 45 48 44
f 45 49 48
f 45 50 49
f 45 46 50
f 46 51 50
f 46 47 51
f 42 53 52
f 42 43 53
f 52 55 54
f 52 53 55
f 26 56 31
f 26 40 56
f 40 57 56
f 40 42 57
f 42 58 57
f 42 52 58
f 52 59 58
f 52 54 59
f 49 60 48
f 49 61 60
f 49 62 61
f 49 50 62
f 50 63 62
f 50 51 63
f 61 64 60
f 61 65 64
f 61 66 65
f 61 62 66
f 62 67 66
f 62 63 67
f 54 69 68
f 54 55 69
f 68 71 70
f 68 69 71
f 65 72 64
f 65 73 72
f 65 74 73
f 65 66 74
f 66 75 74
f 66 67 75
f 73 76 72
f 73 77 76
f 73 78 77
f 73 74 78
f 74 79 78
f 74 75 79
f 70 81 80
f 70 71 81
f 80 83 82
f 80 81 83
f 54 84 59
f 54 68 84
f 68 85 84
f 68 70 85
f 70 86 85
f 70 80 86
f 80 87 86
f 80 82 87
f 77 88 76
f 77 89 88
f 77 90 89
f 77 78 90
f 78 91 90
f 78 79 91
f 89 92 88
f 89 93 92
f 89 94 93
f 89 90 94
f 90 95 94
f 90 91 95
f 82 97 96
f 82 83 97
f 96 99 98
f 96 97 99
f 93 100 92
f 93 101 100
f 93 102 101
f 93 94 102
f 94 103 102
f 94 95 103
f 101 104 100
f 101 105 104
f 101 106 105
f 101 102 106
f 102 107 106
f 102 103 107
f 98 109 108
f 98 99 109
f 108 111 110
f 108 109 111
f 82 112 87
f 82 96 112
f 96 113 112
f 96 98 113
f 98 114 113
f 98 108 114
f 108 115 114
f 108 110 115
f 105 116 104
f 105 117 116
f 105 118 117
f 105 106 118
f 106 119 118
f 106 107 119
f 117 120 116
f 117 121 120
f 117 122 121
f 117 118 122
f 118 123 122
f 118 119 123
f 110 125 124
f 110 111 125
f 124 127 126
f 124 125 127
f 121 128 120
f 121 129 128
f 121 130 129
f 121 122 130
f 122 131 130
f 122 123 131
f 129 132 128
f 129 133 132
f 129 134 133
f 129 130 134
f 130 135 134
f 130 131 135
f 126 137 136
f 126 127 137
f 136 139 138
f 136 137 139
f 110 140 115
f 110 124 140
f 124 141 140
f 124 126 141
f 126 142 141
f 126 136 142
f 136 143 142
f 136 138 143
f 133 144 132
f 133 145 144
f 133 146 145
f 133 134 146
f 134 147 146
f 134 135 147
f 145 148 144
f 145 149 148
f 145 150 149
f 145 146 150
f 146 151 150
f 146 147 151
f 138 153 152
f 138 139 153
f 152 155 154
f 152 153 155
f 149 156 148
f 149 157 156
f 149 158 157
f 149 150 158
f 150 159 158
f 150 151 159
f 157 160 156
f 157 161 160
f 157 162 161
f 157 158 162
f 158 163 162
f 158 159 163
f 154 165 164
f 154 155 165
f 164 167 166
f 164 165 167
f 138 168 143
f 138 152 168
f 152 169 168
f 152 154 169
f 154 170 169
f 154 164 170
f 164 171 170
f 164 166 171
f 161 172 160
f 161 173 172
f 161 174 173
f 161 162 174
f 162 175 174
f 162 163 175
f 173 176 172
f 173 177 176
f 173 178 177
f 173 174 178
f 174 179 178
f 174 175 179
f 166 181 180
f 166 167 181
f 180 183 182
f 180 181 183
f 177 184 176
f 177 185 184
f 177 186 185
f 177 178 186
f 178 187 186
f 178 179 187
f 185 188 184
f 185 189 188
f 185 190 189
f 185 186 190
f 186 191 190
f 186 187 191
f 182 193 192
f 182 183 193
f 192 195 194
f 192 193 195
f 166 196 171
f 166 180 196
f 180 197 196
f 180 182 197
f 182 198 197
f 182 192 198
f 192 199 198
f 192 194 199
f 189 200 188
f 189 201 200
f 189 202 201
f 189 190 202
f 190 203 202
f 190 191 203
f 201 204 200
f 201 205 204
f 201 206 205
f 201 202 206
f 202 207 206
f 202 203 207
f 194 209 208
f 194 195 209
f 208 211 210
f 208 209 211
f 205 212 204
f 205 213 212
f 205 214 213
f 205 206 214
f 206 215 214
f 206 207 215
f 213 216 212
f 213 217 216
f 213 218 217
f 213 214 218
f 214 219 218
f 214 215 219
f 210 221 220
f 210 211 221
f 220 223 222
f 220 221 223
f 194 224 199
f 194 208 224
f 208 225 224
f 208 210 225
f 210 226 225
f 210 220 226
f 220 227 226
f 220 222 227
f 217 228 216
f 217 229 228
f 217 230 229
f 217 218 230
f 218 231 230
f 218 219 231
f 229 232 228
f 229 233 232
f 229 234 233
f 229 230 234
f 230 235 234
f 230 231 235
f 222 237 236
f 222 223 237
f 236 239 238
f 236 237 239
f 233 240 232
f 233 241 240
f 233 242 241
f 233 234 242
f 234 243 242
f 234 235 243
f 241 244 240
f 241 245 244
f 241 246 245
f 241 242 246
f 242 247 246
f 242 243 247
f 238 249 248
f 238 239 249
f 248 251 250
f 248 249 251
f 222 252 227
f 222 236 252
f 236 253 252
f 236 238 253
f 238 254 253
f 238 248 254
f 248 255 254
f 248 250 255
f 245 256 244
f 245 257 256
f 245 258 257
f 245 246 258
f 246 259 258
f 246 247 259
f 257 260 256
f 257 261 260
f 257 262 261
f 257 258 262
f 258 263 262
f 258 259 263
f 250 265 264
f 250 251 265
f 264 267 266
f 264 265 267
f 261 268 260
f 261 269 268
f 261 270 269
f 261 262 270
f 262 271 270
f 262 263 271
f 269 272 268
f 269 273 272
f 269 274 273
f 269 270 274
f 270 275 274
f 270 271 275
f 266 277 276
f 266 267 277
f 276 279 278
f 276 277 279
f 250 280 255
f 250 264 280
f 264 281 280
f 264 266 281
f 266 282 281
f 266 276 282
f 276 283 282
f 276 278 283
f 273 284 272
f 273 285 284
f 273 286 285
f 273 274 286
f 274 287 286
f 274 275 287
f 285 288 284
f 285 289 288
f 285 290 289
f 285 286 290
f 286 291 290
f 286 287 291
f 278 293 292
f 278 279 293
f 292 295 294
f 292 293 295
f 289 296 288
f 289 297 296
f 289 298 297
f 289 290 298
f 290 299 298
f 290 291 299
f 297 300 296
f 297 301 300
f 297 302 301
f 297 298 302
f 298 303 302
f 298 299 303
f 294 305 304
f 294 295 305
f 304 307 306
f 304 305 307
f 278 308 283
f 278 292 308
f 292 309 308
f 292 294 309
f 294 310 309
f 294 304 310
f 304 311 310
f 304 306 311
f 301 312 300
f 301 313 312
f 301 314 313
f 301 302 314
f 300 312 315
f 302 316 314
f 302 303 316
f 313 317 312
f 313 318 317
f 313 319 318
f 313 314 319
f 312 320 315
f 312 317 320
f 314 321 319
f 314 316 321
f 306 323 322
f 306 307 323
f 322 325 324
f 322 323 325
f 326 328 327
f 326 329 328
f 318 327 317
f 318 326 327
f 318 329 326
f 318 319 329
f 327 331 330
f 327 328 331
f 317 330 320
f 317 327 330
f 329 332 328
f 329 333 332
f 319 333 329
f 319 321 333
f 328 334 331
f 328 332 334
f 331 334 335
f 324 335 334
f 324 325 335
f 306 336 311
f 306 322 336
f 322 337 336
f 322 324 337
f 332 338 334
f 324 338 337
f 324 334 338

