# https://github.com/mikedh/trimesh

o 0.obj
v -0.14547534 0.11643351 -0.08408038
v -0.14547844 0.11751978 -0.07642203
v -0.13781932 0.11643351 -0.08407986
v -0.13782164 0.11760562 -0.07642307
v -0.14547792 0.11751360 -0.06881577
v -0.14547715 0.11747055 -0.06115743
v -0.13782010 0.11759944 -0.06881783
v -0.13781881 0.11747055 -0.06116078
v -0.13016201 0.11643351 -0.08407986
v -0.13016691 0.11764867 -0.07642152
v -0.12250367 0.11647630 -0.08408115
v -0.12251012 0.11764867 -0.07642229
v -0.13016640 0.11759944 -0.06881937
v -0.13016279 0.11751360 -0.06116232
v -0.12250960 0.11768528 -0.06881989
v -0.12250522 0.11759944 -0.06116439
v -0.14547792 0.11747055 -0.05349857
v -0.14547792 0.11747055 -0.04584100
v -0.13782010 0.11747055 -0.05349857
v -0.13782010 0.11747055 -0.04584100
v -0.14547792 0.11747055 -0.03818369
v -0.14547792 0.11747055 -0.03052613
v -0.13782010 0.11747055 -0.03818369
v -0.13782010 0.11747055 -0.03052613
v -0.13016201 0.11747055 -0.05349986
v -0.13016279 0.11747055 -0.04584100
v -0.12250393 0.11747055 -0.05350347
v -0.12250522 0.11747055 -0.04584100
v -0.13016279 0.11747055 -0.03818369
v -0.13016279 0.11747055 -0.03052613
v -0.12250522 0.11747055 -0.03818369
v -0.12250522 0.11747055 -0.03052613
v -0.14547792 0.11747055 -0.02286856
v -0.14547792 0.11747055 -0.01521125
v -0.13782010 0.11747055 -0.02286856
v -0.13782010 0.11747055 -0.01521125
v -0.14547792 0.11747055 -0.00755368
v -0.14547792 0.11747055 0.00010363
v -0.13782010 0.11747055 -0.00755368
v -0.13782010 0.11747055 0.00010363
v -0.13016279 0.11747055 -0.02286856
v -0.13016279 0.11747055 -0.01521125
v -0.12250522 0.11747055 -0.02286856
v -0.12250522 0.11747055 -0.01521125
v -0.13016279 0.11747055 -0.00755368
v -0.13016279 0.11747055 0.00010363
v -0.12250522 0.11747055 -0.00755368
v -0.12250522 0.11747055 0.00010363
v -0.11484765 0.11647656 -0.08408295
v -0.11485358 0.11769146 -0.07642307
v -0.10719163 0.11651935 -0.08408192
v -0.10719679 0.11773451 -0.07642384
v -0.11485436 0.11772833 -0.06882015
v -0.11485152 0.11764223 -0.06116593
v -0.10719833 0.11772833 -0.06882144
v -0.10719627 0.11772833 -0.06116593
v -0.09953561 0.11651960 -0.08407909
v -0.09954154 0.11773477 -0.07642410
v -0.09187753 0.11651960 -0.08407831
v -0.09188397 0.11773477 -0.07642410
v -0.09954154 0.11772833 -0.06882221
v -0.09954154 0.11772833 -0.06116439
v -0.09188423 0.11772833 -0.06882221
v -0.09188423 0.11772833 -0.06116439
v -0.08421996 0.11651960 -0.08407831
v -0.08422641 0.11773477 -0.07642410
v -0.07656265 0.11651960 -0.08407831
v -0.07656910 0.11773477 -0.07642410
v -0.08422666 0.11772833 -0.06882221
v -0.08422666 0.11772833 -0.06116439
v -0.07656936 0.11772833 -0.06882221
v -0.07656936 0.11772833 -0.06116439
v -0.06890509 0.11651960 -0.08407831
v -0.06891153 0.11773477 -0.07642410
v -0.06124778 0.11651960 -0.08407831
v -0.06125422 0.11773477 -0.07642410
v -0.06891179 0.11772833 -0.06882221
v -0.06891179 0.11772833 -0.06116439
v -0.06125422 0.11772833 -0.06882221
v -0.06125422 0.11772833 -0.06116439
v -0.11484714 0.11755639 -0.05350630
v -0.11484636 0.11747055 -0.04584384
v -0.10719189 0.11759944 -0.05350836
v -0.10718957 0.11751360 -0.04584667
v -0.11484791 0.11747055 -0.03818369
v -0.11484791 0.11747055 -0.03052613
v -0.10718957 0.11747055 -0.03818498
v -0.10719034 0.11747055 -0.03052613
v -0.09953716 0.11768528 -0.05350914
v -0.09953303 0.11759944 -0.04584951
v -0.09188269 0.11772833 -0.05350785
v -0.09187908 0.11759944 -0.04585106
v -0.09953149 0.11747055 -0.03818859
v -0.09953303 0.11747055 -0.03052613
v -0.09187547 0.11751360 -0.03818988
v -0.09187469 0.11747055 -0.03052767
v -0.11484791 0.11747055 -0.02286856
v -0.11484791 0.11747055 -0.01521125
v -0.10719034 0.11747055 -0.02286856
v -0.10719034 0.11747055 -0.01521125
v -0.11484791 0.11747055 -0.00755368
v -0.11484791 0.11747055 0.00010363
v -0.10719034 0.11747055 -0.00755368
v -0.10719034 0.11747055 0.00010363
v -0.09953303 0.11747055 -0.02286856
v -0.09953303 0.11747055 -0.01521125
v -0.09187547 0.11747055 -0.02286856
v -0.09187547 0.11747055 -0.01521125
v -0.09953303 0.11747055 -0.00755368
v -0.09953303 0.11747055 0.00010363
v -0.09187547 0.11747055 -0.00755368
v -0.09187547 0.11747055 0.00010363
v -0.08422666 0.11772833 -0.05350708
v -0.08422228 0.11768528 -0.04585183
v -0.07656936 0.11772833 -0.05350708
v -0.07656781 0.11772833 -0.04585028
v -0.08421816 0.11759944 -0.03819220
v -0.08421661 0.11747055 -0.03053102
v -0.07656420 0.11764223 -0.03819349
v -0.07655982 0.11755639 -0.03053412
v -0.06891179 0.11772833 -0.05350708
v -0.06891179 0.11772833 -0.04584951
v -0.06125422 0.11772833 -0.05350708
v -0.06125422 0.11772833 -0.04584951
v -0.06890895 0.11772833 -0.03819349
v -0.06890457 0.11759944 -0.03053618
v -0.06125422 0.11772833 -0.03819220
v -0.06125010 0.11768528 -0.03053695
v -0.08421816 0.11747055 -0.02286856
v -0.08421816 0.11747055 -0.01521125
v -0.07655930 0.11747055 -0.02287165
v -0.07656059 0.11747055 -0.01521125
v -0.08421816 0.11747055 -0.00755368
v -0.08421816 0.11747055 0.00010363
v -0.07656059 0.11747055 -0.00755368
v -0.07656059 0.11747055 0.00010363
v -0.06890251 0.11751360 -0.02287449
v -0.06890251 0.11747055 -0.01521254
v -0.06124571 0.11759944 -0.02287732
v -0.06124417 0.11747055 -0.01521615
v -0.06890328 0.11747055 -0.00755368
v -0.06890328 0.11747055 0.00010363
v -0.06124571 0.11747055 -0.00755368
v -0.06124571 0.11747055 0.00010363
v -0.05359021 0.11651960 -0.08407831
v -0.05359665 0.11773477 -0.07642410
v -0.04593290 0.11651960 -0.08407831
v -0.04593934 0.11773477 -0.07642410
v -0.05359691 0.11772833 -0.06882221
v -0.05359691 0.11772833 -0.06116439
v -0.04593934 0.11772833 -0.06882221
v -0.04593934 0.11772833 -0.06116439
v -0.03827533 0.11651960 -0.08407831
v -0.03828178 0.11773477 -0.07642410
v -0.03061802 0.11651960 -0.08407831
v -0.03062447 0.11773477 -0.07642410
v -0.03828204 0.11772833 -0.06882221
v -0.03828204 0.11772833 -0.06116439
v -0.03062447 0.11772833 -0.06882221
v -0.03062447 0.11772833 -0.06116439
v -0.02296046 0.11651960 -0.08407831
v -0.02296690 0.11773477 -0.07642410
v -0.01530315 0.11651960 -0.08407831
v -0.01530959 0.11773477 -0.07642410
v -0.02296716 0.11772833 -0.06882221
v -0.02296716 0.11772833 -0.06116439
v -0.01530959 0.11772833 -0.06882221
v -0.01530959 0.11772833 -0.06116439
v -0.00764558 0.11651960 -0.08407831
v -0.00765202 0.11773477 -0.07642410
v 0.00001173 0.11651960 -0.08407831
v 0.00000528 0.11773477 -0.07642410
v -0.00765228 0.11772833 -0.06882221
v -0.00765228 0.11772833 -0.06116439
v 0.00000528 0.11772833 -0.06882221
v 0.00000528 0.11772833 -0.06116439
v -0.05359691 0.11772833 -0.05350708
v -0.05359691 0.11772833 -0.04584951
v -0.04593934 0.11772833 -0.05350708
v -0.04593934 0.11772833 -0.04584951
v -0.05359691 0.11772833 -0.03819220
v -0.05359537 0.11772833 -0.03053541
v -0.04593934 0.11772833 -0.03819220
v -0.04593934 0.11772833 -0.03053463
v -0.03828204 0.11772833 -0.05350708
v -0.03828204 0.11772833 -0.04584951
v -0.03062447 0.11772833 -0.05350708
v -0.03062447 0.11772833 -0.04584951
v -0.03828204 0.11772833 -0.03819220
v -0.03828204 0.11772833 -0.03053463
v -0.03062447 0.11772833 -0.03819220
v -0.03062447 0.11772833 -0.03053463
v -0.05359176 0.11759944 -0.02287861
v -0.05358841 0.11751360 -0.01521769
v -0.04593522 0.11768528 -0.02287939
v -0.04593084 0.11759944 -0.01521976
v -0.05358763 0.11747055 -0.00755523
v -0.05358815 0.11747055 0.00010363
v -0.04592929 0.11747055 -0.00755884
v -0.04593084 0.11747055 0.00010363
v -0.03828049 0.11772833 -0.02287810
v -0.03827688 0.11764223 -0.01522130
v -0.03062447 0.11772833 -0.02287732
v -0.03062163 0.11772833 -0.01522130
v -0.03827276 0.11755639 -0.00756167
v -0.03827198 0.11747055 0.00010079
v -0.03061751 0.11759944 -0.00756374
v -0.03061519 0.11751360 0.00009796
v -0.02296716 0.11772833 -0.05350708
v -0.02296716 0.11772833 -0.04584951
v -0.01530959 0.11772833 -0.05350708
v -0.01530959 0.11772833 -0.04584951
v -0.02296716 0.11772833 -0.03819220
v -0.02296716 0.11772833 -0.03053463
v -0.01530959 0.11772833 -0.03819220
v -0.01530959 0.11772833 -0.03053463
v -0.00765228 0.11772833 -0.05350708
v -0.00765228 0.11772833 -0.04584951
v 0.00000528 0.11772833 -0.05350708
v 0.00000528 0.11772833 -0.04584951
v -0.00765228 0.11772833 -0.03819220
v -0.00765228 0.11772833 -0.03053463
v 0.00000528 0.11772833 -0.03819220
v 0.00000528 0.11772833 -0.03053463
v -0.02296716 0.11772833 -0.02287732
v -0.02296716 0.11772833 -0.01521976
v -0.01530959 0.11772833 -0.02287732
v -0.01530959 0.11772833 -0.01521976
v -0.02296278 0.11768528 -0.00756451
v -0.02295839 0.11759944 0.00009512
v -0.01530830 0.11772833 -0.00756296
v -0.01530469 0.11759944 0.00009357
v -0.00765228 0.11772833 -0.02287732
v -0.00765228 0.11772833 -0.01521976
v 0.00000528 0.11772833 -0.02287732
v 0.00000528 0.11772833 -0.01521976
v -0.00765228 0.11772833 -0.00756245
v -0.00764790 0.11768528 0.00009306
v 0.00000528 0.11772833 -0.00756245
v 0.00000657 0.11772833 0.00009435
v -0.14548076 0.11755665 0.00776248
v -0.14548205 0.11764249 0.01541644
v -0.13782293 0.11755665 0.00776248
v -0.13782603 0.11764249 0.01541721
v -0.14548282 0.11772833 0.02307091
v -0.14548205 0.11772833 0.03072487
v -0.13782886 0.11772833 0.02307169
v -0.13782886 0.11772833 0.03072487
v -0.13016562 0.11755665 0.00776248
v -0.13016846 0.11764249 0.01541721
v -0.12250806 0.11755665 0.00776248
v -0.12251089 0.11764249 0.01541721
v -0.13017129 0.11772833 0.02307169
v -0.13017129 0.11772833 0.03072487
v -0.12251398 0.11772833 0.02307169
v -0.12251398 0.11772833 0.03072487
v -0.14548205 0.11772833 0.03838218
v -0.14548205 0.11772833 0.04603975
v -0.13782886 0.11772833 0.03838218
v -0.13782886 0.11772833 0.04603975
v -0.14548205 0.11772833 0.05369706
v -0.14548205 0.11772833 0.06135463
v -0.13782886 0.11772833 0.05369706
v -0.13782886 0.11772833 0.06135463
v -0.13017129 0.11772833 0.03838218
v -0.13017129 0.11772833 0.04603975
v -0.12251398 0.11772833 0.03838218
v -0.12251398 0.11772833 0.04603975
v -0.13017129 0.11772833 0.05369706
v -0.13017129 0.11772833 0.06135463
v -0.12251398 0.11772833 0.05369706
v -0.12251398 0.11772833 0.06135463
v -0.14548205 0.11772833 0.06901219
v -0.14548205 0.11772833 0.07666950
v -0.13782886 0.11772833 0.06901219
v -0.13782886 0.11772833 0.07666950
v -0.14548359 0.11772833 0.08432758
v -0.14548565 0.11772833 0.09198515
v -0.13782886 0.11772833 0.08432707
v -0.13782886 0.11772833 0.09198438
v -0.13017129 0.11772833 0.06901219
v -0.13017129 0.11772833 0.07666950
v -0.12251398 0.11772833 0.06901219
v -0.12251398 0.11772833 0.07666950
v -0.13017129 0.11772833 0.08432707
v -0.13017129 0.11772833 0.09198438
v -0.12251398 0.11772833 0.08432707
v -0.12251398 0.11772833 0.09198438
v -0.14548643 0.11773451 0.09958343
v -0.13782860 0.11773451 0.09958343
v -0.13017104 0.11773451 0.09958343
v -0.12251373 0.11773451 0.09958343
v -0.11485075 0.11755665 0.00776248
v -0.11485358 0.11764249 0.01541721
v -0.10719318 0.11755665 0.00776248
v -0.10719601 0.11764249 0.01541721
v -0.11485642 0.11772833 0.02307169
v -0.11485642 0.11772833 0.03072487
v -0.10719911 0.11772833 0.02307169
v -0.10719911 0.11772833 0.03072487
v -0.09953587 0.11755665 0.00776248
v -0.09953871 0.11764249 0.01541721
v -0.09187830 0.11755665 0.00776248
v -0.09188114 0.11764249 0.01541721
v -0.09954154 0.11772833 0.02307169
v -0.09954154 0.11772833 0.03072487
v -0.09188397 0.11772833 0.02307169
v -0.09188397 0.11772833 0.03072487
v -0.11485642 0.11772833 0.03838218
v -0.11485642 0.11772833 0.04603975
v -0.10719911 0.11772833 0.03838218
v -0.10719911 0.11772833 0.04603975
v -0.11485642 0.11772833 0.05369706
v -0.11485642 0.11772833 0.06135463
v -0.10719911 0.11772833 0.05369706
v -0.10719911 0.11772833 0.06135463
v -0.09954154 0.11772833 0.03838218
v -0.09954154 0.11772833 0.04603975
v -0.09188397 0.11772833 0.03838218
v -0.09188397 0.11772833 0.04603975
v -0.09954154 0.11772833 0.05369706
v -0.09954154 0.11772833 0.06135463
v -0.09188397 0.11772833 0.05369706
v -0.09188397 0.11772833 0.06135463
v -0.08422099 0.11755665 0.00776248
v -0.08422383 0.11764249 0.01541721
v -0.07656343 0.11755665 0.00776248
v -0.07656626 0.11764249 0.01541721
v -0.08422666 0.11772833 0.02307169
v -0.08422666 0.11772833 0.03072487
v -0.07656910 0.11772833 0.02307169
v -0.07656910 0.11772833 0.03072487
v -0.06890612 0.11755665 0.00776248
v -0.06890895 0.11764249 0.01541721
v -0.06124855 0.11755665 0.00776248
v -0.06125139 0.11764249 0.01541721
v -0.06891179 0.11772833 0.02307169
v -0.06891179 0.11772833 0.03072487
v -0.06125422 0.11772833 0.02307169
v -0.06125422 0.11772833 0.03072487
v -0.08422666 0.11772833 0.03838218
v -0.08422666 0.11772833 0.04603975
v -0.07656910 0.11772833 0.03838218
v -0.07656910 0.11772833 0.04603975
v -0.08422666 0.11772833 0.05369706
v -0.08422666 0.11772833 0.06135463
v -0.07656910 0.11772833 0.05369706
v -0.07656910 0.11772833 0.06135463
v -0.06891179 0.11772833 0.03838218
v -0.06891179 0.11772833 0.04603975
v -0.06125422 0.11772833 0.03838218
v -0.06125422 0.11772833 0.04603975
v -0.06891179 0.11772833 0.05369706
v -0.06891179 0.11772833 0.06135463
v -0.06125422 0.11772833 0.05369706
v -0.06125422 0.11772833 0.06135463
v -0.11485642 0.11772833 0.06901219
v -0.11485642 0.11772833 0.07666950
v -0.10719911 0.11772833 0.06901219
v -0.10719911 0.11772833 0.07666950
v -0.11485642 0.11772833 0.08432707
v -0.11485642 0.11772833 0.09198438
v -0.10719911 0.11772833 0.08432707
v -0.10719911 0.11772833 0.09198438
v -0.09954154 0.11772833 0.06901219
v -0.09954154 0.11772833 0.07666950
v -0.09188397 0.11772833 0.06901219
v -0.09188397 0.11772833 0.07666950
v -0.09954154 0.11772833 0.08432707
v -0.09954154 0.11772833 0.09198438
v -0.09188397 0.11772833 0.08432707
v -0.09188397 0.11772833 0.09198438
v -0.11485616 0.11773451 0.09958343
v -0.10719885 0.11773451 0.09958343
v -0.09954128 0.11773451 0.09958343
v -0.09188397 0.11773451 0.09958343
v -0.08422666 0.11772833 0.06901219
v -0.08422666 0.11772833 0.07666950
v -0.07656910 0.11772833 0.06901219
v -0.07656910 0.11772833 0.07666950
v -0.08422666 0.11772833 0.08432707
v -0.08422666 0.11772833 0.09198438
v -0.07656910 0.11772833 0.08432707
v -0.07656910 0.11772833 0.09198438
v -0.06891179 0.11772833 0.06901219
v -0.06891179 0.11772833 0.07666950
v -0.06125422 0.11772833 0.06901219
v -0.06125422 0.11772833 0.07666950
v -0.06891179 0.11772833 0.08432707
v -0.06891179 0.11772833 0.09198438
v -0.06125422 0.11772833 0.08432707
v -0.06125422 0.11772833 0.09198438
v -0.08422589 0.11773451 0.09958395
v -0.07656832 0.11773400 0.09958575
v -0.06891153 0.11773374 0.09958678
v -0.06125422 0.11773374 0.09958678
v -0.05359124 0.11755665 0.00776248
v -0.05359408 0.11764249 0.01541721
v -0.04593367 0.11755665 0.00776248
v -0.04593651 0.11764249 0.01541721
v -0.05359691 0.11772833 0.02307169
v -0.05359691 0.11772833 0.03072487
v -0.04593934 0.11772833 0.02307169
v -0.04593934 0.11772833 0.03072487
v -0.03827636 0.11755665 0.00776248
v -0.03827920 0.11764249 0.01541721
v -0.03061802 0.11755665 0.00776119
v -0.03062163 0.11764249 0.01541721
v -0.03828204 0.11772833 0.02307169
v -0.03828204 0.11772833 0.03072487
v -0.03062447 0.11772833 0.02307169
v -0.03062447 0.11772833 0.03072487
v -0.05359691 0.11772833 0.03838218
v -0.05359691 0.11772833 0.04603975
v -0.04593934 0.11772833 0.03838218
v -0.04593934 0.11772833 0.04603975
v -0.05359691 0.11772833 0.05369706
v -0.05359691 0.11772833 0.06135463
v -0.04593934 0.11772833 0.05369706
v -0.04593934 0.11772833 0.06135463
v -0.03828204 0.11772833 0.03838218
v -0.03828204 0.11772833 0.04603975
v -0.03062447 0.11772833 0.03838218
v -0.03062447 0.11772833 0.04603975
v -0.03828204 0.11772833 0.05369706
v -0.03828204 0.11772833 0.06135463
v -0.03062447 0.11772833 0.05369706
v -0.03062447 0.11772833 0.06135463
v -0.02295994 0.11755665 0.00775759
v -0.02296432 0.11764249 0.01541721
v -0.01530392 0.11755639 0.00775604
v -0.01530676 0.11759944 0.01541721
v -0.02296716 0.11772833 0.02307169
v -0.02296716 0.11772833 0.03072487
v -0.01531037 0.11772833 0.02307323
v -0.01530959 0.11772833 0.03072487
v -0.00764506 0.11759944 0.00775320
v -0.00764713 0.11755665 0.01541489
v 0.00001018 0.11759944 0.00775114
v 0.00001096 0.11751360 0.01541361
v -0.00765280 0.11764249 0.02307530
v -0.00765357 0.11772833 0.03072771
v 0.00000735 0.11759944 0.02307607
v 0.00000451 0.11768528 0.03073054
v -0.02296716 0.11772833 0.03838218
v -0.02296716 0.11772833 0.04603975
v -0.01530959 0.11772833 0.03838218
v -0.01530959 0.11772833 0.04603975
v -0.02296716 0.11772833 0.05369706
v -0.02296716 0.11772833 0.06135463
v -0.01530959 0.11772833 0.05369706
v -0.01530959 0.11772833 0.06135463
v -0.00765228 0.11772833 0.03838218
v -0.00765228 0.11772833 0.04603975
v 0.00000451 0.11772833 0.03838373
v 0.00000528 0.11772833 0.04603975
v -0.00765228 0.11772833 0.05369706
v -0.00765228 0.11772833 0.06135463
v 0.00000528 0.11772833 0.05369706
v 0.00000528 0.11772833 0.06135463
v -0.05359691 0.11772833 0.06901219
v -0.05359691 0.11772833 0.07666950
v -0.04593934 0.11772833 0.06901219
v -0.04593934 0.11772833 0.07666950
v -0.05359691 0.11772833 0.08432707
v -0.05359691 0.11772833 0.09198438
v -0.04593934 0.11772833 0.08432707
v -0.04593934 0.11772833 0.09198438
v -0.03828204 0.11772833 0.06901219
v -0.03828204 0.11772833 0.07666950
v -0.03062447 0.11772833 0.06901219
v -0.03062447 0.11772833 0.07666950
v -0.03828204 0.11772833 0.08432707
v -0.03828204 0.11772833 0.09198438
v -0.03062447 0.11772833 0.08432707
v -0.03062447 0.11772833 0.09198438
v -0.05359665 0.11773374 0.09958678
v -0.04593934 0.11773374 0.09958678
v -0.03828178 0.11773374 0.09958678
v -0.03062447 0.11773374 0.09958678
v -0.02296716 0.11772833 0.06901219
v -0.02296716 0.11772833 0.07666950
v -0.01530959 0.11772833 0.06901219
v -0.01530959 0.11772833 0.07666950
v -0.02296716 0.11772833 0.08432707
v -0.02296716 0.11772833 0.09198438
v -0.01530959 0.11772833 0.08432707
v -0.01530959 0.11772833 0.09198438
v -0.00765228 0.11772833 0.06901219
v -0.00765228 0.11772833 0.07666950
v 0.00000528 0.11772833 0.06901219
v 0.00000528 0.11772833 0.07666950
v -0.00765228 0.11772833 0.08432707
v -0.00765228 0.11772833 0.09198438
v 0.00000528 0.11772833 0.08432707
v 0.00000528 0.11772833 0.09198438
v -0.02296690 0.11773374 0.09958678
v -0.01531011 0.11773400 0.09958627
v -0.00765280 0.11773426 0.09958446
v 0.00000554 0.11773451 0.09958343
v 0.00766930 0.11651960 -0.08407831
v 0.00766285 0.11773477 -0.07642410
v 0.01532661 0.11651960 -0.08407831
v 0.01532016 0.11773477 -0.07642410
v 0.00766259 0.11772833 -0.06882221
v 0.00766259 0.11772833 -0.06116439
v 0.01532016 0.11772833 -0.06882221
v 0.01532016 0.11772833 -0.06116439
v 0.02298417 0.11651960 -0.08407831
v 0.02297773 0.11773477 -0.07642410
v 0.03064174 0.11651960 -0.08407831
v 0.03063504 0.11773477 -0.07642410
v 0.02297747 0.11772833 -0.06882221
v 0.02297747 0.11772833 -0.06116439
v 0.03063504 0.11772833 -0.06882221
v 0.03063504 0.11772833 -0.06116439
v 0.03829905 0.11651960 -0.08407831
v 0.03829260 0.11773477 -0.07642410
v 0.04595662 0.11651960 -0.08407831
v 0.04595017 0.11773477 -0.07642410
v 0.03829235 0.11772833 -0.06882221
v 0.03829235 0.11772833 -0.06116439
v 0.04594991 0.11772833 -0.06882221
v 0.04594991 0.11772833 -0.06116439
v 0.05361393 0.11651960 -0.08407831
v 0.05360748 0.11773477 -0.07642410
v 0.06127149 0.11651960 -0.08407831
v 0.06126505 0.11773477 -0.07642410
v 0.05360722 0.11772833 -0.06882221
v 0.05360722 0.11772833 -0.06116439
v 0.06126479 0.11772833 -0.06882221
v 0.06126479 0.11772833 -0.06116439
v 0.00766259 0.11772833 -0.05350708
v 0.00766259 0.11772833 -0.04584951
v 0.01532016 0.11772833 -0.05350708
v 0.01532016 0.11772833 -0.04584951
v 0.00766259 0.11772833 -0.03819220
v 0.00766259 0.11772833 -0.03053463
v 0.01532016 0.11772833 -0.03819220
v 0.01532016 0.11772833 -0.03053463
v 0.02297747 0.11772833 -0.05350708
v 0.02297747 0.11772833 -0.04584951
v 0.03063504 0.11772833 -0.05350708
v 0.03063504 0.11772833 -0.04584951
v 0.02297747 0.11772833 -0.03819220
v 0.02297747 0.11772833 -0.03053463
v 0.03063504 0.11772833 -0.03819220
v 0.03063504 0.11772833 -0.03053463
v 0.00766259 0.11772833 -0.02287732
v 0.00766259 0.11772833 -0.01521976
v 0.01532016 0.11772833 -0.02287732
v 0.01532016 0.11772833 -0.01521976
v 0.00766259 0.11772833 -0.00756245
v 0.00766259 0.11772833 0.00009512
v 0.01532016 0.11772833 -0.00756245
v 0.01532016 0.11772833 0.00009512
v 0.02297747 0.11772833 -0.02287732
v 0.02297747 0.11772833 -0.01521976
v 0.03063504 0.11772833 -0.02287732
v 0.03063504 0.11772833 -0.01521976
v 0.02297747 0.11772833 -0.00756245
v 0.02297747 0.11772833 0.00009512
v 0.03063504 0.11772833 -0.00756245
v 0.03063504 0.11772833 0.00009512
v 0.03829235 0.11772833 -0.05350708
v 0.03829235 0.11772833 -0.04584951
v 0.04594991 0.11772833 -0.05350708
v 0.04594991 0.11772833 -0.04584951
v 0.03829235 0.11772833 -0.03819220
v 0.03829235 0.11772833 -0.03053463
v 0.04594991 0.11772833 -0.03819220
v 0.04594991 0.11772833 -0.03053463
v 0.05360722 0.11772833 -0.05350708
v 0.05360722 0.11772833 -0.04584951
v 0.06126479 0.11772833 -0.05350708
v 0.06126479 0.11772833 -0.04584951
v 0.05360722 0.11772833 -0.03819220
v 0.05360722 0.11772833 -0.03053463
v 0.06126479 0.11772833 -0.03819220
v 0.06126479 0.11772833 -0.03053463
v 0.03829235 0.11772833 -0.02287732
v 0.03829235 0.11772833 -0.01521976
v 0.04594991 0.11772833 -0.02287732
v 0.04594991 0.11772833 -0.01521976
v 0.03829235 0.11772833 -0.00756245
v 0.03829235 0.11772833 0.00009512
v 0.04594991 0.11772833 -0.00756245
v 0.04594991 0.11772833 0.00009512
v 0.05360722 0.11772833 -0.02287732
v 0.05360722 0.11772833 -0.01521976
v 0.06126479 0.11772833 -0.02287732
v 0.06126479 0.11772833 -0.01521976
v 0.05360722 0.11772833 -0.00756245
v 0.05360722 0.11772833 0.00009512
v 0.06126479 0.11772833 -0.00756245
v 0.06126479 0.11772833 0.00009512
v 0.06892880 0.11651960 -0.08407831
v 0.06892236 0.11773477 -0.07642410
v 0.07658637 0.11651960 -0.08407831
v 0.07657992 0.11773477 -0.07642410
v 0.06892210 0.11772833 -0.06882221
v 0.06892210 0.11772833 -0.06116439
v 0.07657967 0.11772833 -0.06882221
v 0.07657967 0.11772833 -0.06116439
v 0.08424368 0.11651960 -0.08407831
v 0.08423723 0.11773477 -0.07642410
v 0.09190125 0.11651960 -0.08407831
v 0.09189480 0.11773477 -0.07642410
v 0.08423723 0.11772833 -0.06882221
v 0.08423723 0.11772833 -0.06116439
v 0.09189454 0.11772833 -0.06882221
v 0.09189454 0.11772833 -0.06116439
v 0.09955855 0.11651960 -0.08407831
v 0.09955211 0.11773477 -0.07642410
v 0.10721612 0.11651960 -0.08407831
v 0.10720968 0.11773477 -0.07642410
v 0.09955211 0.11772833 -0.06882221
v 0.09955211 0.11772833 -0.06116439
v 0.10720942 0.11772833 -0.06882221
v 0.10720942 0.11772833 -0.06116439
v 0.11487420 0.11651960 -0.08407986
v 0.11486699 0.11773477 -0.07642410
v 0.12253177 0.11651960 -0.08408218
v 0.12252455 0.11773477 -0.07642410
v 0.11486699 0.11772833 -0.06882221
v 0.11486699 0.11772833 -0.06116439
v 0.12252430 0.11772833 -0.06882221
v 0.12252430 0.11772833 -0.06116439
v 0.06892210 0.11772833 -0.05350708
v 0.06892210 0.11772833 -0.04584951
v 0.07657967 0.11772833 -0.05350708
v 0.07657967 0.11772833 -0.04584951
v 0.06892210 0.11772833 -0.03819220
v 0.06892210 0.11772833 -0.03053463
v 0.07657967 0.11772833 -0.03819220
v 0.07657967 0.11772833 -0.03053463
v 0.08423723 0.11772833 -0.05350708
v 0.08423723 0.11772833 -0.04584951
v 0.09189454 0.11772833 -0.05350708
v 0.09189454 0.11772833 -0.04584951
v 0.08423723 0.11772833 -0.03819220
v 0.08423723 0.11772833 -0.03053463
v 0.09189454 0.11772833 -0.03819220
v 0.09189454 0.11772833 -0.03053463
v 0.06892210 0.11772833 -0.02287732
v 0.06892210 0.11772833 -0.01521976
v 0.07657967 0.11772833 -0.02287732
v 0.07657967 0.11772833 -0.01521976
v 0.06892210 0.11772833 -0.00756245
v 0.06892210 0.11772833 0.00009512
v 0.07657967 0.11772833 -0.00756245
v 0.07657967 0.11772833 0.00009512
v 0.08423723 0.11772833 -0.02287732
v 0.08423723 0.11772833 -0.01521976
v 0.09189454 0.11772833 -0.02287732
v 0.09189454 0.11772833 -0.01521976
v 0.08423723 0.11772833 -0.00756245
v 0.08423723 0.11772833 0.00009512
v 0.09189454 0.11772833 -0.00756245
v 0.09189454 0.11772833 0.00009512
v 0.09955211 0.11772833 -0.05350708
v 0.09955211 0.11772833 -0.04584951
v 0.10720942 0.11772833 -0.05350708
v 0.10720942 0.11772833 -0.04584951
v 0.09955211 0.11772833 -0.03819220
v 0.09955211 0.11772833 -0.03053463
v 0.10720942 0.11772833 -0.03819220
v 0.10720942 0.11772833 -0.03053463
v 0.11486699 0.11772833 -0.05350708
v 0.11486699 0.11772833 -0.04584951
v 0.12252430 0.11772833 -0.05350708
v 0.12252430 0.11772833 -0.04584951
v 0.11486699 0.11772833 -0.03819220
v 0.11486699 0.11772833 -0.03053463
v 0.12252430 0.11772833 -0.03819220
v 0.12252430 0.11772833 -0.03053463
v 0.09955211 0.11772833 -0.02287732
v 0.09955211 0.11772833 -0.01521976
v 0.10720942 0.11772833 -0.02287732
v 0.10720942 0.11772833 -0.01521976
v 0.09955211 0.11772833 -0.00756245
v 0.09955211 0.11772833 0.00009512
v 0.10720942 0.11772833 -0.00756245
v 0.10720942 0.11772833 0.00009512
v 0.11486699 0.11772833 -0.02287732
v 0.11486699 0.11772833 -0.01521976
v 0.12252430 0.11772833 -0.02287732
v 0.12252430 0.11772833 -0.01521976
v 0.11486699 0.11772833 -0.00756245
v 0.11486699 0.11772833 0.00009512
v 0.12252430 0.11772833 -0.00756245
v 0.12252430 0.11772833 0.00009512
v 0.13018831 0.11651960 -0.08408295
v 0.13018186 0.11773477 -0.07642410
v 0.13784587 0.11651960 -0.08408295
v 0.13783943 0.11773477 -0.07642410
v 0.13018186 0.11772833 -0.06882221
v 0.13018186 0.11772833 -0.06116439
v 0.13783917 0.11772833 -0.06882221
v 0.13783917 0.11772833 -0.06116439
v 0.14550318 0.11651960 -0.08408295
v 0.14549674 0.11773477 -0.07642410
v 0.14549674 0.11772833 -0.06882221
v 0.14549674 0.11772833 -0.06116439
v 0.15309553 0.11773451 -0.06882195
v 0.15309553 0.11773451 -0.06116439
v 0.13018186 0.11772833 -0.05350708
v 0.13018186 0.11772833 -0.04584951
v 0.13783917 0.11772833 -0.05350708
v 0.13783917 0.11772833 -0.04584951
v 0.13018186 0.11772833 -0.03819220
v 0.13018186 0.11772833 -0.03053463
v 0.13783917 0.11772833 -0.03819220
v 0.13783917 0.11772833 -0.03053463
v 0.14549674 0.11772833 -0.05350708
v 0.14549674 0.11772833 -0.04584951
v 0.15309553 0.11773451 -0.05350682
v 0.15309553 0.11773451 -0.04584951
v 0.14549674 0.11772833 -0.03819220
v 0.14549674 0.11772833 -0.03053463
v 0.15309553 0.11773451 -0.03819194
v 0.15309553 0.11773451 -0.03053463
v 0.13018186 0.11772833 -0.02287732
v 0.13018186 0.11772833 -0.01521976
v 0.13783917 0.11772833 -0.02287732
v 0.13783917 0.11772833 -0.01521976
v 0.13018186 0.11772833 -0.00756245
v 0.13018186 0.11772833 0.00009512
v 0.13783917 0.11772833 -0.00756245
v 0.13783917 0.11772833 0.00009512
v 0.14549674 0.11772833 -0.02287732
v 0.14549674 0.11772833 -0.01521976
v 0.15309553 0.11773451 -0.02287707
v 0.15309553 0.11773451 -0.01521976
v 0.14549674 0.11772833 -0.00756245
v 0.14549674 0.11772833 0.00009512
v 0.15309553 0.11773451 -0.00756219
v 0.15309553 0.11773451 0.00009538
v 0.00766698 0.11764223 0.00775037
v 0.00767058 0.11755639 0.01541129
v 0.01532300 0.11764223 0.00775114
v 0.01532583 0.11755639 0.01541129
v 0.00766775 0.11751360 0.02307452
v 0.00766259 0.11759944 0.03073338
v 0.01532738 0.11747055 0.02307246
v 0.01532377 0.11759944 0.03073493
v 0.02298031 0.11764223 0.00775114
v 0.02298314 0.11755639 0.01541129
v 0.03063787 0.11764223 0.00775114
v 0.03064071 0.11755639 0.01541129
v 0.02298623 0.11747055 0.02307169
v 0.02298185 0.11751360 0.03073570
v 0.03064354 0.11747055 0.02307169
v 0.03064226 0.11747055 0.03073415
v 0.00766130 0.11772833 0.03838734
v 0.00766259 0.11772833 0.04603975
v 0.01532016 0.11768528 0.03838863
v 0.01531939 0.11772833 0.04604104
v 0.00766259 0.11772833 0.05369706
v 0.00766259 0.11772833 0.06135463
v 0.01532016 0.11772833 0.05369706
v 0.01532016 0.11772833 0.06135463
v 0.02297773 0.11759944 0.03839095
v 0.02297618 0.11772833 0.04604465
v 0.03063865 0.11755665 0.03839224
v 0.03063426 0.11764249 0.04604748
v 0.02297747 0.11772833 0.05369706
v 0.02297747 0.11772833 0.06135463
v 0.03063349 0.11772833 0.05370015
v 0.03063504 0.11772833 0.06135463
v 0.03829518 0.11764223 0.00775114
v 0.03829828 0.11755639 0.01541129
v 0.04595275 0.11764223 0.00775114
v 0.04595558 0.11755639 0.01541129
v 0.03830111 0.11747055 0.02307169
v 0.03830111 0.11747055 0.03073338
v 0.04595842 0.11747055 0.02307169
v 0.04595842 0.11747055 0.03073338
v 0.05361032 0.11764223 0.00775114
v 0.05361315 0.11755639 0.01541129
v 0.06126763 0.11764223 0.00775114
v 0.06127046 0.11755639 0.01541129
v 0.05361599 0.11747055 0.02307169
v 0.05361599 0.11747055 0.03073338
v 0.06127330 0.11747055 0.02307169
v 0.06127330 0.11747055 0.03073338
v 0.03829828 0.11747055 0.03839224
v 0.03829389 0.11759944 0.04604980
v 0.04595842 0.11747055 0.03839095
v 0.04595430 0.11751360 0.04605058
v 0.03829183 0.11768528 0.05370299
v 0.03829183 0.11772833 0.06135617
v 0.04594991 0.11759944 0.05370582
v 0.04594837 0.11772833 0.06135952
v 0.05361599 0.11747055 0.03839095
v 0.05361444 0.11747055 0.04604903
v 0.06127330 0.11747055 0.03839095
v 0.06127330 0.11747055 0.04604826
v 0.05361083 0.11759944 0.05370711
v 0.05360748 0.11768528 0.06136107
v 0.06126917 0.11751360 0.05370789
v 0.06126479 0.11759944 0.06136313
v 0.00766259 0.11772833 0.06901219
v 0.00766259 0.11772833 0.07666950
v 0.01532016 0.11772833 0.06901219
v 0.01532016 0.11772833 0.07666950
v 0.00766259 0.11772833 0.08432707
v 0.00766259 0.11772833 0.09198438
v 0.01532016 0.11772833 0.08432707
v 0.01532016 0.11772833 0.09198438
v 0.02297747 0.11772833 0.06901219
v 0.02297747 0.11772833 0.07666950
v 0.03063504 0.11772833 0.06901219
v 0.03063504 0.11772833 0.07666950
v 0.02297747 0.11772833 0.08432707
v 0.02297747 0.11772833 0.09198438
v 0.03063504 0.11772833 0.08432707
v 0.03063504 0.11772833 0.09198438
v 0.00766285 0.11773451 0.09958343
v 0.01532042 0.11773451 0.09958343
v 0.02297773 0.11773451 0.09958343
v 0.03063530 0.11773451 0.09958343
v 0.03829260 0.11772833 0.06901219
v 0.03829260 0.11772833 0.07666950
v 0.04594991 0.11772833 0.06901219
v 0.04594991 0.11772833 0.07666950
v 0.03829260 0.11772833 0.08432707
v 0.03829260 0.11772833 0.09198438
v 0.04594991 0.11772833 0.08432707
v 0.04594991 0.11772833 0.09198438
v 0.05360671 0.11772833 0.06901348
v 0.05360748 0.11772833 0.07666950
v 0.06126350 0.11772833 0.06901709
v 0.06126479 0.11772833 0.07666950
v 0.05360748 0.11772833 0.08432707
v 0.05360748 0.11772833 0.09198438
v 0.06126479 0.11772833 0.08432707
v 0.06126479 0.11772833 0.09198438
v 0.03829260 0.11773451 0.09958343
v 0.04595017 0.11773451 0.09958343
v 0.05360748 0.11773451 0.09958343
v 0.06126505 0.11773451 0.09958343
v 0.06892519 0.11764223 0.00775114
v 0.06892803 0.11755639 0.01541129
v 0.07658250 0.11764223 0.00775114
v 0.07658534 0.11755639 0.01541129
v 0.06893086 0.11747055 0.02307169
v 0.06893086 0.11747055 0.03073338
v 0.07658817 0.11747055 0.02307169
v 0.07658817 0.11747055 0.03073338
v 0.08424007 0.11764223 0.00775114
v 0.08424290 0.11755639 0.01541129
v 0.09189738 0.11764223 0.00775114
v 0.09190021 0.11755639 0.01541129
v 0.08424574 0.11747055 0.02307169
v 0.08424574 0.11747055 0.03073338
v 0.09190305 0.11747055 0.02307169
v 0.09190305 0.11747055 0.03073338
v 0.06893086 0.11747055 0.03839095
v 0.06893086 0.11747055 0.04604826
v 0.07658817 0.11747055 0.03839095
v 0.07658817 0.11747055 0.04604826
v 0.06892932 0.11747055 0.05370660
v 0.06892597 0.11755665 0.06136468
v 0.07658817 0.11747055 0.05370582
v 0.07658534 0.11747055 0.06136468
v 0.08424574 0.11747055 0.03839095
v 0.08424574 0.11747055 0.04604826
v 0.09190305 0.11747055 0.03839095
v 0.09190305 0.11747055 0.04604826
v 0.08424574 0.11747055 0.05370582
v 0.08424574 0.11747055 0.06136313
v 0.09190305 0.11747055 0.05370582
v 0.09190305 0.11747055 0.06136313
v 0.09955495 0.11764223 0.00775114
v 0.09955778 0.11755639 0.01541129
v 0.10721225 0.11764223 0.00775114
v 0.10721509 0.11755639 0.01541129
v 0.09956062 0.11747055 0.02307169
v 0.09956062 0.11747055 0.03073338
v 0.10721793 0.11747055 0.02307169
v 0.10721793 0.11747055 0.03073338
v 0.11486982 0.11764223 0.00775114
v 0.11487266 0.11755639 0.01541129
v 0.12252713 0.11764223 0.00775114
v 0.12252997 0.11755639 0.01541129
v 0.11487549 0.11747055 0.02307169
v 0.11487549 0.11747055 0.03073338
v 0.12253306 0.11747055 0.02307169
v 0.12253306 0.11747055 0.03073338
v 0.09956062 0.11747055 0.03839095
v 0.09956062 0.11747055 0.04604826
v 0.10721793 0.11747055 0.03839095
v 0.10721793 0.11747055 0.04604826
v 0.09956062 0.11747055 0.05370582
v 0.09956062 0.11747055 0.06136313
v 0.10721793 0.11747055 0.05370582
v 0.10721793 0.11747055 0.06136313
v 0.11487549 0.11747055 0.03839095
v 0.11487549 0.11747055 0.04604826
v 0.12253306 0.11747055 0.03839095
v 0.12253306 0.11747055 0.04604826
v 0.11487549 0.11747055 0.05370582
v 0.11487549 0.11747055 0.06136313
v 0.12253306 0.11747055 0.05370582
v 0.12253306 0.11747055 0.06136313
v 0.06892158 0.11764249 0.06901993
v 0.06892081 0.11772833 0.07667234
v 0.07658121 0.11759944 0.06902199
v 0.07657889 0.11768528 0.07667517
v 0.06892236 0.11772833 0.08432707
v 0.06892236 0.11772833 0.09198438
v 0.07657889 0.11772833 0.08432836
v 0.07657967 0.11772833 0.09198438
v 0.08424136 0.11751360 0.06902276
v 0.08423723 0.11759944 0.07667801
v 0.09190176 0.11747055 0.06902147
v 0.09189815 0.11759944 0.07667956
v 0.08423569 0.11772833 0.08433197
v 0.08423723 0.11772833 0.09198438
v 0.09189454 0.11768528 0.08433351
v 0.09189377 0.11772833 0.09198593
v 0.06892236 0.11773451 0.09958343
v 0.07657992 0.11773451 0.09958343
v 0.08423723 0.11773451 0.09958343
v 0.09189480 0.11773451 0.09958343
v 0.09956062 0.11747055 0.06902070
v 0.09955623 0.11751360 0.07668033
v 0.10721793 0.11747055 0.06902070
v 0.10721664 0.11747055 0.07667878
v 0.09955211 0.11759944 0.08433558
v 0.09955056 0.11772833 0.09198953
v 0.10721303 0.11755665 0.08433686
v 0.10720865 0.11764249 0.09199237
v 0.11487549 0.11747055 0.06902070
v 0.11487549 0.11747055 0.07667801
v 0.12253306 0.11747055 0.06902070
v 0.12253306 0.11747055 0.07667801
v 0.11487266 0.11747055 0.08433686
v 0.11486828 0.11759944 0.09199443
v 0.12253306 0.11747055 0.08433558
v 0.12252868 0.11751360 0.09199521
v 0.09955211 0.11773451 0.09958343
v 0.10720813 0.11773477 0.09958627
v 0.11486647 0.11764867 0.09958910
v 0.12252584 0.11751978 0.09959116
v 0.13018470 0.11764223 0.00775114
v 0.13018753 0.11755639 0.01541129
v 0.13784201 0.11764223 0.00775114
v 0.13784484 0.11755639 0.01541129
v 0.13019037 0.11747055 0.02307169
v 0.13019037 0.11747055 0.03073338
v 0.13784794 0.11747055 0.02307169
v 0.13784794 0.11747055 0.03073338
v 0.14549957 0.11764223 0.00775114
v 0.14550241 0.11755639 0.01541129
v 0.15309837 0.11764842 0.00775114
v 0.15310120 0.11756232 0.01541154
v 0.14550525 0.11747055 0.02307169
v 0.14550525 0.11747055 0.03073338
v 0.15310404 0.11747648 0.02307169
v 0.15310404 0.11747648 0.03073364
v 0.13019037 0.11747055 0.03839095
v 0.13019037 0.11747055 0.04604826
v 0.13784794 0.11747055 0.03839095
v 0.13784794 0.11747055 0.04604826
v 0.13019037 0.11747055 0.05370582
v 0.13019037 0.11747055 0.06136313
v 0.13784794 0.11747055 0.05370582
v 0.13784794 0.11747055 0.06136313
v 0.14550525 0.11747055 0.03839095
v 0.14550525 0.11747055 0.04604826
v 0.15310404 0.11747648 0.03839095
v 0.15310404 0.11747648 0.04604851
v 0.14550525 0.11747055 0.05370582
v 0.14550525 0.11747055 0.06136313
v 0.15310404 0.11747648 0.05370582
v 0.15310404 0.11747648 0.06136339
v 0.13019037 0.11747055 0.06902070
v 0.13019037 0.11747055 0.07667801
v 0.13784794 0.11747055 0.06902070
v 0.13784794 0.11747055 0.07667801
v 0.13019037 0.11747055 0.08433558
v 0.13018908 0.11747055 0.09199366
v 0.13784794 0.11747055 0.08433558
v 0.13784794 0.11747055 0.09199289
v 0.14550525 0.11747055 0.06902070
v 0.14550525 0.11747055 0.07667801
v 0.15310404 0.11747648 0.06902070
v 0.15310404 0.11747648 0.07667827
v 0.14550525 0.11747055 0.08433558
v 0.14550525 0.11747055 0.09199289
v 0.15310404 0.11747648 0.08433558
v 0.15310404 0.11747648 0.09199314
v 0.13018831 0.11751953 0.09959194
v 0.13784665 0.11747648 0.09959271
v 0.14550550 0.11747648 0.09959194
v 0.15311358 0.11747880 0.09960147
f 1 4 2
f 1 3 4
f 2 7 5
f 2 4 7
f 5 8 6
f 5 7 8
f 3 10 4
f 3 9 10
f 9 12 10
f 9 11 12
f 4 13 7
f 4 10 13
f 7 14 8
f 7 13 14
f 10 15 13
f 10 12 15
f 13 16 14
f 13 15 16
f 6 19 17
f 6 8 19
f 17 20 18
f 17 19 20
f 18 23 21
f 18 20 23
f 21 24 22
f 21 23 24
f 8 25 19
f 8 14 25
f 19 26 20
f 19 25 26
f 14 27 25
f 14 16 27
f 25 28 26
f 25 27 28
f 20 29 23
f 20 26 29
f 23 30 24
f 23 29 30
f 26 31 29
f 26 28 31
f 29 32 30
f 29 31 32
f 22 35 33
f 22 24 35
f 33 36 34
f 33 35 36
f 34 39 37
f 34 36 39
f 37 40 38
f 37 39 40
f 24 41 35
f 24 30 41
f 35 42 36
f 35 41 42
f 30 43 41
f 30 32 43
f 41 44 42
f 41 43 44
f 36 45 39
f 36 42 45
f 39 46 40
f 39 45 46
f 42 47 45
f 42 44 47
f 45 48 46
f 45 47 48
f 11 50 12
f 11 49 50
f 49 52 50
f 49 51 52
f 12 53 15
f 12 50 53
f 15 54 16
f 15 53 54
f 50 55 53
f 50 52 55
f 53 56 54
f 53 55 56
f 51 58 52
f 51 57 58
f 57 60 58
f 57 59 60
f 52 61 55
f 52 58 61
f 55 62 56
f 55 61 62
f 58 63 61
f 58 60 63
f 61 64 62
f 61 63 64
f 59 66 60
f 59 65 66
f 65 68 66
f 65 67 68
f 60 69 63
f 60 66 69
f 63 70 64
f 63 69 70
f 66 71 69
f 66 68 71
f 69 72 70
f 69 71 72
f 67 74 68
f 67 73 74
f 73 76 74
f 73 75 76
f 68 77 71
f 68 74 77
f 71 78 72
f 71 77 78
f 74 79 77
f 74 76 79
f 77 80 78
f 77 79 80
f 16 81 27
f 16 54 81
f 27 82 28
f 27 81 82
f 54 83 81
f 54 56 83
f 81 84 82
f 81 83 84
f 28 85 31
f 28 82 85
f 31 86 32
f 31 85 86
f 82 87 85
f 82 84 87
f 85 88 86
f 85 87 88
f 56 89 83
f 56 62 89
f 83 90 84
f 83 89 90
f 62 91 89
f 62 64 91
f 89 92 90
f 89 91 92
f 84 93 87
f 84 90 93
f 87 94 88
f 87 93 94
f 90 95 93
f 90 92 95
f 93 96 94
f 93 95 96
f 32 97 43
f 32 86 97
f 43 98 44
f 43 97 98
f 86 99 97
f 86 88 99
f 97 100 98
f 97 99 100
f 44 101 47
f 44 98 101
f 47 102 48
f 47 101 102
f 98 103 101
f 98 100 103
f 101 104 102
f 101 103 104
f 88 105 99
f 88 94 105
f 99 106 100
f 99 105 106
f 94 107 105
f 94 96 107
f 105 108 106
f 105 107 108
f 100 109 103
f 100 106 109
f 103 110 104
f 103 109 110
f 106 111 109
f 106 108 111
f 109 112 110
f 109 111 112
f 64 113 91
f 64 70 113
f 91 114 92
f 91 113 114
f 70 115 113
f 70 72 115
f 113 116 114
f 113 115 116
f 92 117 95
f 92 114 117
f 95 118 96
f 95 117 118
f 114 119 117
f 114 116 119
f 117 120 118
f 117 119 120
f 72 121 115
f 72 78 121
f 115 122 116
f 115 121 122
f 78 123 121
f 78 80 123
f 121 124 122
f 121 123 124
f 116 125 119
f 116 122 125
f 119 126 120
f 119 125 126
f 122 127 125
f 122 124 127
f 125 128 126
f 125 127 128
f 96 129 107
f 96 118 129
f 107 130 108
f 107 129 130
f 118 131 129
f 118 120 131
f 129 132 130
f 129 131 132
f 108 133 111
f 108 130 133
f 111 134 112
f 111 133 134
f 130 135 133
f 130 132 135
f 133 136 134
f 133 135 136
f 120 137 131
f 120 126 137
f 131 138 132
f 131 137 138
f 126 139 137
f 126 128 139
f 137 140 138
f 137 139 140
f 132 141 135
f 132 138 141
f 135 142 136
f 135 141 142
f 138 143 141
f 138 140 143
f 141 144 142
f 141 143 144
f 75 146 76
f 75 145 146
f 145 148 146
f 145 147 148
f 76 149 79
f 76 146 149
f 79 150 80
f 79 149 150
f 146 151 149
f 146 148 151
f 149 152 150
f 149 151 152
f 147 154 148
f 147 153 154
f 153 156 154
f 153 155 156
f 148 157 151
f 148 154 157
f 151 158 152
f 151 157 158
f 154 159 157
f 154 156 159
f 157 160 158
f 157 159 160
f 155 162 156
f 155 161 162
f 161 164 162
f 161 163 164
f 156 165 159
f 156 162 165
f 159 166 160
f 159 165 166
f 162 167 165
f 162 164 167
f 165 168 166
f 165 167 168
f 163 170 164
f 163 169 170
f 169 172 170
f 169 171 172
f 164 173 167
f 164 170 173
f 167 174 168
f 167 173 174
f 170 175 173
f 170 172 175
f 173 176 174
f 173 175 176
f 80 177 123
f 80 150 177
f 123 178 124
f 123 177 178
f 150 179 177
f 150 152 179
f 177 180 178
f 177 179 180
f 124 181 127
f 124 178 181
f 127 182 128
f 127 181 182
f 178 183 181
f 178 180 183
f 181 184 182
f 181 183 184
f 152 185 179
f 152 158 185
f 179 186 180
f 179 185 186
f 158 187 185
f 158 160 187
f 185 188 186
f 185 187 188
f 180 189 183
f 180 186 189
f 183 190 184
f 183 189 190
f 186 191 189
f 186 188 191
f 189 192 190
f 189 191 192
f 128 193 139
f 128 182 193
f 139 194 140
f 139 193 194
f 182 195 193
f 182 184 195
f 193 196 194
f 193 195 196
f 140 197 143
f 140 194 197
f 143 198 144
f 143 197 198
f 194 199 197
f 194 196 199
f 197 200 198
f 197 199 200
f 184 201 195
f 184 190 201
f 195 202 196
f 195 201 202
f 190 203 201
f 190 192 203
f 201 204 202
f 201 203 204
f 196 205 199
f 196 202 205
f 199 206 200
f 199 205 206
f 202 207 205
f 202 204 207
f 205 208 206
f 205 207 208
f 160 209 187
f 160 166 209
f 187 210 188
f 187 209 210
f 166 211 209
f 166 168 211
f 209 212 210
f 209 211 212
f 188 213 191
f 188 210 213
f 191 214 192
f 191 213 214
f 210 215 213
f 210 212 215
f 213 216 214
f 213 215 216
f 168 217 211
f 168 174 217
f 211 218 212
f 211 217 218
f 174 219 217
f 174 176 219
f 217 220 218
f 217 219 220
f 212 221 215
f 212 218 221
f 215 222 216
f 215 221 222
f 218 223 221
f 218 220 223
f 221 224 222
f 221 223 224
f 192 225 203
f 192 214 225
f 203 226 204
f 203 225 226
f 214 227 225
f 214 216 227
f 225 228 226
f 225 227 228
f 204 229 207
f 204 226 229
f 207 230 208
f 207 229 230
f 226 231 229
f 226 228 231
f 229 232 230
f 229 231 232
f 216 233 227
f 216 222 233
f 227 234 228
f 227 233 234
f 222 235 233
f 222 224 235
f 233 236 234
f 233 235 236
f 228 237 231
f 228 234 237
f 231 238 232
f 231 237 238
f 234 239 237
f 234 236 239
f 237 240 238
f 237 239 240
f 38 243 241
f 38 40 243
f 241 244 242
f 241 243 244
f 242 247 245
f 242 244 247
f 245 248 246
f 245 247 248
f 40 249 243
f 40 46 249
f 243 250 244
f 243 249 250
f 46 251 249
f 46 48 251
f 249 252 250
f 249 251 252
f 244 253 247
f 244 250 253
f 247 254 248
f 247 253 254
f 250 255 253
f 250 252 255
f 253 256 254
f 253 255 256
f 246 259 257
f 246 248 259
f 257 260 258
f 257 259 260
f 258 263 261
f 258 260 263
f 261 264 262
f 261 263 264
f 248 265 259
f 248 254 265
f 259 266 260
f 259 265 266
f 254 267 265
f 254 256 267
f 265 268 266
f 265 267 268
f 260 269 263
f 260 266 269
f 263 270 264
f 263 269 270
f 266 271 269
f 266 268 271
f 269 272 270
f 269 271 272
f 262 275 273
f 262 264 275
f 273 276 274
f 273 275 276
f 274 279 277
f 274 276 279
f 277 280 278
f 277 279 280
f 264 281 275
f 264 270 281
f 275 282 276
f 275 281 282
f 270 283 281
f 270 272 283
f 281 284 282
f 281 283 284
f 276 285 279
f 276 282 285
f 279 286 280
f 279 285 286
f 282 287 285
f 282 284 287
f 285 288 286
f 285 287 288
f 278 290 289
f 278 280 290
f 280 291 290
f 280 286 291
f 286 292 291
f 286 288 292
f 48 293 251
f 48 102 293
f 251 294 252
f 251 293 294
f 102 295 293
f 102 104 295
f 293 296 294
f 293 295 296
f 252 297 255
f 252 294 297
f 255 298 256
f 255 297 298
f 294 299 297
f 294 296 299
f 297 300 298
f 297 299 300
f 104 301 295
f 104 110 301
f 295 302 296
f 295 301 302
f 110 303 301
f 110 112 303
f 301 304 302
f 301 303 304
f 296 305 299
f 296 302 305
f 299 306 300
f 299 305 306
f 302 307 305
f 302 304 307
f 305 308 306
f 305 307 308
f 256 309 267
f 256 298 309
f 267 310 268
f 267 309 310
f 298 311 309
f 298 300 311
f 309 312 310
f 309 311 312
f 268 313 271
f 268 310 313
f 271 314 272
f 271 313 314
f 310 315 313
f 310 312 315
f 313 316 314
f 313 315 316
f 300 317 311
f 300 306 317
f 311 318 312
f 311 317 318
f 306 319 317
f 306 308 319
f 317 320 318
f 317 319 320
f 312 321 315
f 312 318 321
f 315 322 316
f 315 321 322
f 318 323 321
f 318 320 323
f 321 324 322
f 321 323 324
f 112 325 303
f 112 134 325
f 303 326 304
f 303 325 326
f 134 327 325
f 134 136 327
f 325 328 326
f 325 327 328
f 304 329 307
f 304 326 329
f 307 330 308
f 307 329 330
f 326 331 329
f 326 328 331
f 329 332 330
f 329 331 332
f 136 333 327
f 136 142 333
f 327 334 328
f 327 333 334
f 142 335 333
f 142 144 335
f 333 336 334
f 333 335 336
f 328 337 331
f 328 334 337
f 331 338 332
f 331 337 338
f 334 339 337
f 334 336 339
f 337 340 338
f 337 339 340
f 308 341 319
f 308 330 341
f 319 342 320
f 319 341 342
f 330 343 341
f 330 332 343
f 341 344 342
f 341 343 344
f 320 345 323
f 320 342 345
f 323 346 324
f 323 345 346
f 342 347 345
f 342 344 347
f 345 348 346
f 345 347 348
f 332 349 343
f 332 338 349
f 343 350 344
f 343 349 350
f 338 351 349
f 338 340 351
f 349 352 350
f 349 351 352
f 344 353 347
f 344 350 353
f 347 354 348
f 347 353 354
f 350 355 353
f 350 352 355
f 353 356 354
f 353 355 356
f 272 357 283
f 272 314 357
f 283 358 284
f 283 357 358
f 314 359 357
f 314 316 359
f 357 360 358
f 357 359 360
f 284 361 287
f 284 358 361
f 287 362 288
f 287 361 362
f 358 363 361
f 358 360 363
f 361 364 362
f 361 363 364
f 316 365 359
f 316 322 365
f 359 366 360
f 359 365 366
f 322 367 365
f 322 324 367
f 365 368 366
f 365 367 368
f 360 369 363
f 360 366 369
f 363 370 364
f 363 369 370
f 366 371 369
f 366 368 371
f 369 372 370
f 369 371 372
f 288 373 292
f 288 362 373
f 362 374 373
f 362 364 374
f 364 375 374
f 364 370 375
f 370 376 375
f 370 372 376
f 324 377 367
f 324 346 377
f 367 378 368
f 367 377 378
f 346 379 377
f 346 348 379
f 377 380 378
f 377 379 380
f 368 381 371
f 368 378 381
f 371 382 372
f 371 381 382
f 378 383 381
f 378 380 383
f 381 384 382
f 381 383 384
f 348 385 379
f 348 354 385
f 379 386 380
f 379 385 386
f 354 387 385
f 354 356 387
f 385 388 386
f 385 387 388
f 380 389 383
f 380 386 389
f 383 390 384
f 383 389 390
f 386 391 389
f 386 388 391
f 389 392 390
f 389 391 392
f 372 393 376
f 372 382 393
f 382 394 393
f 382 384 394
f 384 395 394
f 384 390 395
f 390 396 395
f 390 392 396
f 144 397 335
f 144 198 397
f 335 398 336
f 335 397 398
f 198 399 397
f 198 200 399
f 397 400 398
f 397 399 400
f 336 401 339
f 336 398 401
f 339 402 340
f 339 401 402
f 398 403 401
f 398 400 403
f 401 404 402
f 401 403 404
f 200 405 399
f 200 206 405
f 399 406 400
f 399 405 406
f 206 407 405
f 206 208 407
f 405 408 406
f 405 407 408
f 400 409 403
f 400 406 409
f 403 410 404
f 403 409 410
f 406 411 409
f 406 408 411
f 409 412 410
f 409 411 412
f 340 413 351
f 340 402 413
f 351 414 352
f 351 413 414
f 402 415 413
f 402 404 415
f 413 416 414
f 413 415 416
f 352 417 355
f 352 414 417
f 355 418 356
f 355 417 418
f 414 419 417
f 414 416 419
f 417 420 418
f 417 419 420
f 404 421 415
f 404 410 421
f 415 422 416
f 415 421 422
f 410 423 421
f 410 412 423
f 421 424 422
f 421 423 424
f 416 425 419
f 416 422 425
f 419 426 420
f 419 425 426
f 422 427 425
f 422 424 427
f 425 428 426
f 425 427 428
f 208 429 407
f 208 230 429
f 407 430 408
f 407 429 430
f 230 431 429
f 230 232 431
f 429 432 430
f 429 431 432
f 408 433 411
f 408 430 433
f 411 434 412
f 411 433 434
f 430 435 433
f 430 432 435
f 433 436 434
f 433 435 436
f 232 437 431
f 232 238 437
f 431 438 432
f 431 437 438
f 238 439 437
f 238 240 439
f 437 440 438
f 437 439 440
f 432 441 435
f 432 438 441
f 435 442 436
f 435 441 442
f 438 443 441
f 438 440 443
f 441 444 442
f 441 443 444
f 412 445 423
f 412 434 445
f 423 446 424
f 423 445 446
f 434 447 445
f 434 436 447
f 445 448 446
f 445 447 448
f 424 449 427
f 424 446 449
f 427 450 428
f 427 449 450
f 446 451 449
f 446 448 451
f 449 452 450
f 449 451 452
f 436 453 447
f 436 442 453
f 447 454 448
f 447 453 454
f 442 455 453
f 442 444 455
f 453 456 454
f 453 455 456
f 448 457 451
f 448 454 457
f 451 458 452
f 451 457 458
f 454 459 457
f 454 456 459
f 457 460 458
f 457 459 460
f 356 461 387
f 356 418 461
f 387 462 388
f 387 461 462
f 418 463 461
f 418 420 463
f 461 464 462
f 461 463 464
f 388 465 391
f 388 462 465
f 391 466 392
f 391 465 466
f 462 467 465
f 462 464 467
f 465 468 466
f 465 467 468
f 420 469 463
f 420 426 469
f 463 470 464
f 463 469 470
f 426 471 469
f 426 428 471
f 469 472 470
f 469 471 472
f 464 473 467
f 464 470 473
f 467 474 468
f 467 473 474
f 470 475 473
f 470 472 475
f 473 476 474
f 473 475 476
f 392 477 396
f 392 466 477
f 466 478 477
f 466 468 478
f 468 479 478
f 468 474 479
f 474 480 479
f 474 476 480
f 428 481 471
f 428 450 481
f 471 482 472
f 471 481 482
f 450 483 481
f 450 452 483
f 481 484 482
f 481 483 484
f 472 485 475
f 472 482 485
f 475 486 476
f 475 485 486
f 482 487 485
f 482 484 487
f 485 488 486
f 485 487 488
f 452 489 483
f 452 458 489
f 483 490 484
f 483 489 490
f 458 491 489
f 458 460 491
f 489 492 490
f 489 491 492
f 484 493 487
f 484 490 493
f 487 494 488
f 487 493 494
f 490 495 493
f 490 492 495
f 493 496 494
f 493 495 496
f 476 497 480
f 476 486 497
f 486 498 497
f 486 488 498
f 488 499 498
f 488 494 499
f 494 500 499
f 494 496 500
f 171 502 172
f 171 501 502
f 501 504 502
f 501 503 504
f 172 505 175
f 172 502 505
f 175 506 176
f 175 505 506
f 502 507 505
f 502 504 507
f 505 508 506
f 505 507 508
f 503 510 504
f 503 509 510
f 509 512 510
f 509 511 512
f 504 513 507
f 504 510 513
f 507 514 508
f 507 513 514
f 510 515 513
f 510 512 515
f 513 516 514
f 513 515 516
f 511 518 512
f 511 517 518
f 517 520 518
f 517 519 520
f 512 521 515
f 512 518 521
f 515 522 516
f 515 521 522
f 518 523 521
f 518 520 523
f 521 524 522
f 521 523 524
f 519 526 520
f 519 525 526
f 525 528 526
f 525 527 528
f 520 529 523
f 520 526 529
f 523 530 524
f 523 529 530
f 526 531 529
f 526 528 531
f 529 532 530
f 529 531 532
f 176 533 219
f 176 506 533
f 219 534 220
f 219 533 534
f 506 535 533
f 506 508 535
f 533 536 534
f 533 535 536
f 220 537 223
f 220 534 537
f 223 538 224
f 223 537 538
f 534 539 537
f 534 536 539
f 537 540 538
f 537 539 540
f 508 541 535
f 508 514 541
f 535 542 536
f 535 541 542
f 514 543 541
f 514 516 543
f 541 544 542
f 541 543 544
f 536 545 539
f 536 542 545
f 539 546 540
f 539 545 546
f 542 547 545
f 542 544 547
f 545 548 546
f 545 547 548
f 224 549 235
f 224 538 549
f 235 550 236
f 235 549 550
f 538 551 549
f 538 540 551
f 549 552 550
f 549 551 552
f 236 553 239
f 236 550 553
f 239 554 240
f 239 553 554
f 550 555 553
f 550 552 555
f 553 556 554
f 553 555 556
f 540 557 551
f 540 546 557
f 551 558 552
f 551 557 558
f 546 559 557
f 546 548 559
f 557 560 558
f 557 559 560
f 552 561 555
f 552 558 561
f 555 562 556
f 555 561 562
f 558 563 561
f 558 560 563
f 561 564 562
f 561 563 564
f 516 565 543
f 516 522 565
f 543 566 544
f 543 565 566
f 522 567 565
f 522 524 567
f 565 568 566
f 565 567 568
f 544 569 547
f 544 566 569
f 547 570 548
f 547 569 570
f 566 571 569
f 566 568 571
f 569 572 570
f 569 571 572
f 524 573 567
f 524 530 573
f 567 574 568
f 567 573 574
f 530 575 573
f 530 532 575
f 573 576 574
f 573 575 576
f 568 577 571
f 568 574 577
f 571 578 572
f 571 577 578
f 574 579 577
f 574 576 579
f 577 580 578
f 577 579 580
f 548 581 559
f 548 570 581
f 559 582 560
f 559 581 582
f 570 583 581
f 570 572 583
f 581 584 582
f 581 583 584
f 560 585 563
f 560 582 585
f 563 586 564
f 563 585 586
f 582 587 585
f 582 584 587
f 585 588 586
f 585 587 588
f 572 589 583
f 572 578 589
f 583 590 584
f 583 589 590
f 578 591 589
f 578 580 591
f 589 592 590
f 589 591 592
f 584 593 587
f 584 590 593
f 587 594 588
f 587 593 594
f 590 595 593
f 590 592 595
f 593 596 594
f 593 595 596
f 527 598 528
f 527 597 598
f 597 600 598
f 597 599 600
f 528 601 531
f 528 598 601
f 531 602 532
f 531 601 602
f 598 603 601
f 598 600 603
f 601 604 602
f 601 603 604
f 599 606 600
f 599 605 606
f 605 608 606
f 605 607 608
f 600 609 603
f 600 606 609
f 603 610 604
f 603 609 610
f 606 611 609
f 606 608 611
f 609 612 610
f 609 611 612
f 607 614 608
f 607 613 614
f 613 616 614
f 613 615 616
f 608 617 611
f 608 614 617
f 611 618 612
f 611 617 618
f 614 619 617
f 614 616 619
f 617 620 618
f 617 619 620
f 615 622 616
f 615 621 622
f 621 624 622
f 621 623 624
f 616 625 619
f 616 622 625
f 619 626 620
f 619 625 626
f 622 627 625
f 622 624 627
f 625 628 626
f 625 627 628
f 532 629 575
f 532 602 629
f 575 630 576
f 575 629 630
f 602 631 629
f 602 604 631
f 629 632 630
f 629 631 632
f 576 633 579
f 576 630 633
f 579 634 580
f 579 633 634
f 630 635 633
f 630 632 635
f 633 636 634
f 633 635 636
f 604 637 631
f 604 610 637
f 631 638 632
f 631 637 638
f 610 639 637
f 610 612 639
f 637 640 638
f 637 639 640
f 632 641 635
f 632 638 641
f 635 642 636
f 635 641 642
f 638 643 641
f 638 640 643
f 641 644 642
f 641 643 644
f 580 645 591
f 580 634 645
f 591 646 592
f 591 645 646
f 634 647 645
f 634 636 647
f 645 648 646
f 645 647 648
f 592 649 595
f 592 646 649
f 595 650 596
f 595 649 650
f 646 651 649
f 646 648 651
f 649 652 650
f 649 651 652
f 636 653 647
f 636 642 653
f 647 654 648
f 647 653 654
f 642 655 653
f 642 644 655
f 653 656 654
f 653 655 656
f 648 657 651
f 648 654 657
f 651 658 652
f 651 657 658
f 654 659 657
f 654 656 659
f 657 660 658
f 657 659 660
f 612 661 639
f 612 618 661
f 639 662 640
f 639 661 662
f 618 663 661
f 618 620 663
f 661 664 662
f 661 663 664
f 640 665 643
f 640 662 665
f 643 666 644
f 643 665 666
f 662 667 665
f 662 664 667
f 665 668 666
f 665 667 668
f 620 669 663
f 620 626 669
f 663 670 664
f 663 669 670
f 626 671 669
f 626 628 671
f 669 672 670
f 669 671 672
f 664 673 667
f 664 670 673
f 667 674 668
f 667 673 674
f 670 675 673
f 670 672 675
f 673 676 674
f 673 675 676
f 644 677 655
f 644 666 677
f 655 678 656
f 655 677 678
f 666 679 677
f 666 668 679
f 677 680 678
f 677 679 680
f 656 681 659
f 656 678 681
f 659 682 660
f 659 681 682
f 678 683 681
f 678 680 683
f 681 684 682
f 681 683 684
f 668 685 679
f 668 674 685
f 679 686 680
f 679 685 686
f 674 687 685
f 674 676 687
f 685 688 686
f 685 687 688
f 680 689 683
f 680 686 689
f 683 690 684
f 683 689 690
f 686 691 689
f 686 688 691
f 689 692 690
f 689 691 692
f 623 694 624
f 623 693 694
f 693 696 694
f 693 695 696
f 624 697 627
f 624 694 697
f 627 698 628
f 627 697 698
f 694 699 697
f 694 696 699
f 697 700 698
f 697 699 700
f 695 702 696
f 695 701 702
f 696 703 699
f 696 702 703
f 699 704 700
f 699 703 704
f 702 705 703
f 703 706 704
f 703 705 706
f 628 707 671
f 628 698 707
f 671 708 672
f 671 707 708
f 698 709 707
f 698 700 709
f 707 710 708
f 707 709 710
f 672 711 675
f 672 708 711
f 675 712 676
f 675 711 712
f 708 713 711
f 708 710 713
f 711 714 712
f 711 713 714
f 700 715 709
f 700 704 715
f 709 716 710
f 709 715 716
f 704 717 715
f 704 706 717
f 715 718 716
f 715 717 718
f 710 719 713
f 710 716 719
f 713 720 714
f 713 719 720
f 716 721 719
f 716 718 721
f 719 722 720
f 719 721 722
f 676 723 687
f 676 712 723
f 687 724 688
f 687 723 724
f 712 725 723
f 712 714 725
f 723 726 724
f 723 725 726
f 688 727 691
f 688 724 727
f 691 728 692
f 691 727 728
f 724 729 727
f 724 726 729
f 727 730 728
f 727 729 730
f 714 731 725
f 714 720 731
f 725 732 726
f 725 731 732
f 720 733 731
f 720 722 733
f 731 734 732
f 731 733 734
f 726 735 729
f 726 732 735
f 729 736 730
f 729 735 736
f 732 737 735
f 732 734 737
f 735 738 736
f 735 737 738
f 240 739 439
f 240 554 739
f 439 740 440
f 439 739 740
f 554 741 739
f 554 556 741
f 739 742 740
f 739 741 742
f 440 743 443
f 440 740 743
f 443 744 444
f 443 743 744
f 740 745 743
f 740 742 745
f 743 746 744
f 743 745 746
f 556 747 741
f 556 562 747
f 741 748 742
f 741 747 748
f 562 749 747
f 562 564 749
f 747 750 748
f 747 749 750
f 742 751 745
f 742 748 751
f 745 752 746
f 745 751 752
f 748 753 751
f 748 750 753
f 751 754 752
f 751 753 754
f 444 755 455
f 444 744 755
f 455 756 456
f 455 755 756
f 744 757 755
f 744 746 757
f 755 758 756
f 755 757 758
f 456 759 459
f 456 756 759
f 459 760 460
f 459 759 760
f 756 761 759
f 756 758 761
f 759 762 760
f 759 761 762
f 746 763 757
f 746 752 763
f 757 764 758
f 757 763 764
f 752 765 763
f 752 754 765
f 763 766 764
f 763 765 766
f 758 767 761
f 758 764 767
f 761 768 762
f 761 767 768
f 764 769 767
f 764 766 769
f 767 770 768
f 767 769 770
f 564 771 749
f 564 586 771
f 749 772 750
f 749 771 772
f 586 773 771
f 586 588 773
f 771 774 772
f 771 773 774
f 750 775 753
f 750 772 775
f 753 776 754
f 753 775 776
f 772 777 775
f 772 774 777
f 775 778 776
f 775 777 778
f 588 779 773
f 588 594 779
f 773 780 774
f 773 779 780
f 594 781 779
f 594 596 781
f 779 782 780
f 779 781 782
f 774 783 777
f 774 780 783
f 777 784 778
f 777 783 784
f 780 785 783
f 780 782 785
f 783 786 784
f 783 785 786
f 754 787 765
f 754 776 787
f 765 788 766
f 765 787 788
f 776 789 787
f 776 778 789
f 787 790 788
f 787 789 790
f 766 791 769
f 766 788 791
f 769 792 770
f 769 791 792
f 788 793 791
f 788 790 793
f 791 794 792
f 791 793 794
f 778 795 789
f 778 784 795
f 789 796 790
f 789 795 796
f 784 797 795
f 784 786 797
f 795 798 796
f 795 797 798
f 790 799 793
f 790 796 799
f 793 800 794
f 793 799 800
f 796 801 799
f 796 798 801
f 799 802 800
f 799 801 802
f 460 803 491
f 460 760 803
f 491 804 492
f 491 803 804
f 760 805 803
f 760 762 805
f 803 806 804
f 803 805 806
f 492 807 495
f 492 804 807
f 495 808 496
f 495 807 808
f 804 809 807
f 804 806 809
f 807 810 808
f 807 809 810
f 762 811 805
f 762 768 811
f 805 812 806
f 805 811 812
f 768 813 811
f 768 770 813
f 811 814 812
f 811 813 814
f 806 815 809
f 806 812 815
f 809 816 810
f 809 815 816
f 812 817 815
f 812 814 817
f 815 818 816
f 815 817 818
f 496 819 500
f 496 808 819
f 808 820 819
f 808 810 820
f 810 821 820
f 810 816 821
f 816 822 821
f 816 818 822
f 770 823 813
f 770 792 823
f 813 824 814
f 813 823 824
f 792 825 823
f 792 794 825
f 823 826 824
f 823 825 826
f 814 827 817
f 814 824 827
f 817 828 818
f 817 827 828
f 824 829 827
f 824 826 829
f 827 830 828
f 827 829 830
f 794 831 825
f 794 800 831
f 825 832 826
f 825 831 832
f 800 833 831
f 800 802 833
f 831 834 832
f 831 833 834
f 826 835 829
f 826 832 835
f 829 836 830
f 829 835 836
f 832 837 835
f 832 834 837
f 835 838 836
f 835 837 838
f 818 839 822
f 818 828 839
f 828 840 839
f 828 830 840
f 830 841 840
f 830 836 841
f 836 842 841
f 836 838 842
f 596 843 781
f 596 650 843
f 781 844 782
f 781 843 844
f 650 845 843
f 650 652 845
f 843 846 844
f 843 845 846
f 782 847 785
f 782 844 847
f 785 848 786
f 785 847 848
f 844 849 847
f 844 846 849
f 847 850 848
f 847 849 850
f 652 851 845
f 652 658 851
f 845 852 846
f 845 851 852
f 658 853 851
f 658 660 853
f 851 854 852
f 851 853 854
f 846 855 849
f 846 852 855
f 849 856 850
f 849 855 856
f 852 857 855
f 852 854 857
f 855 858 856
f 855 857 858
f 786 859 797
f 786 848 859
f 797 860 798
f 797 859 860
f 848 861 859
f 848 850 861
f 859 862 860
f 859 861 862
f 798 863 801
f 798 860 863
f 801 864 802
f 801 863 864
f 860 865 863
f 860 862 865
f 863 866 864
f 863 865 866
f 850 867 861
f 850 856 867
f 861 868 862
f 861 867 868
f 856 869 867
f 856 858 869
f 867 870 868
f 867 869 870
f 862 871 865
f 862 868 871
f 865 872 866
f 865 871 872
f 868 873 871
f 868 870 873
f 871 874 872
f 871 873 874
f 660 875 853
f 660 682 875
f 853 876 854
f 853 875 876
f 682 877 875
f 682 684 877
f 875 878 876
f 875 877 878
f 854 879 857
f 854 876 879
f 857 880 858
f 857 879 880
f 876 881 879
f 876 878 881
f 879 882 880
f 879 881 882
f 684 883 877
f 684 690 883
f 877 884 878
f 877 883 884
f 690 885 883
f 690 692 885
f 883 886 884
f 883 885 886
f 878 887 881
f 878 884 887
f 881 888 882
f 881 887 888
f 884 889 887
f 884 886 889
f 887 890 888
f 887 889 890
f 858 891 869
f 858 880 891
f 869 892 870
f 869 891 892
f 880 893 891
f 880 882 893
f 891 894 892
f 891 893 894
f 870 895 873
f 870 892 895
f 873 896 874
f 873 895 896
f 892 897 895
f 892 894 897
f 895 898 896
f 895 897 898
f 882 899 893
f 882 888 899
f 893 900 894
f 893 899 900
f 888 901 899
f 888 890 901
f 899 902 900
f 899 901 902
f 894 903 897
f 894 900 903
f 897 904 898
f 897 903 904
f 900 905 903
f 900 902 905
f 903 906 904
f 903 905 906
f 802 907 833
f 802 864 907
f 833 908 834
f 833 907 908
f 864 909 907
f 864 866 909
f 907 910 908
f 907 909 910
f 834 911 837
f 834 908 911
f 837 912 838
f 837 911 912
f 908 913 911
f 908 910 913
f 911 914 912
f 911 913 914
f 866 915 909
f 866 872 915
f 909 916 910
f 909 915 916
f 872 917 915
f 872 874 917
f 915 918 916
f 915 917 918
f 910 919 913
f 910 916 919
f 913 920 914
f 913 919 920
f 916 921 919
f 916 918 921
f 919 922 920
f 919 921 922
f 838 923 842
f 838 912 923
f 912 924 923
f 912 914 924
f 914 925 924
f 914 920 925
f 920 926 925
f 920 922 926
f 874 927 917
f 874 896 927
f 917 928 918
f 917 927 928
f 896 929 927
f 896 898 929
f 927 930 928
f 927 929 930
f 918 931 921
f 918 928 931
f 921 932 922
f 921 931 932
f 928 933 931
f 928 930 933
f 931 934 932
f 931 933 934
f 898 935 929
f 898 904 935
f 929 936 930
f 929 935 936
f 904 937 935
f 904 906 937
f 935 938 936
f 935 937 938
f 930 939 933
f 930 936 939
f 933 940 934
f 933 939 940
f 936 941 939
f 936 938 941
f 939 942 940
f 939 941 942
f 922 943 926
f 922 932 943
f 932 944 943
f 932 934 944
f 934 945 944
f 934 940 945
f 940 946 945
f 940 942 946
f 692 947 885
f 692 728 947
f 885 948 886
f 885 947 948
f 728 949 947
f 728 730 949
f 947 950 948
f 947 949 950
f 886 951 889
f 886 948 951
f 889 952 890
f 889 951 952
f 948 953 951
f 948 950 953
f 951 954 952
f 951 953 954
f 730 955 949
f 730 736 955
f 949 956 950
f 949 955 956
f 736 957 955
f 736 738 957
f 955 958 956
f 955 957 958
f 950 959 953
f 950 956 959
f 953 960 954
f 953 959 960
f 956 961 959
f 956 958 961
f 959 962 960
f 959 961 962
f 890 963 901
f 890 952 963
f 901 964 902
f 901 963 964
f 952 965 963
f 952 954 965
f 963 966 964
f 963 965 966
f 902 967 905
f 902 964 967
f 905 968 906
f 905 967 968
f 964 969 967
f 964 966 969
f 967 970 968
f 967 969 970
f 954 971 965
f 954 960 971
f 965 972 966
f 965 971 972
f 960 973 971
f 960 962 973
f 971 974 972
f 971 973 974
f 966 975 969
f 966 972 975
f 969 976 970
f 969 975 976
f 972 977 975
f 972 974 977
f 975 978 976
f 975 977 978
f 906 979 937
f 906 968 979
f 937 980 938
f 937 979 980
f 968 981 979
f 968 970 981
f 979 982 980
f 979 981 982
f 938 983 941
f 938 980 983
f 941 984 942
f 941 983 984
f 980 985 983
f 980 982 985
f 983 986 984
f 983 985 986
f 970 987 981
f 970 976 987
f 981 988 982
f 981 987 988
f 976 989 987
f 976 978 989
f 987 990 988
f 987 989 990
f 982 991 985
f 982 988 991
f 985 992 986
f 985 991 992
f 988 993 991
f 988 990 993
f 991 994 992
f 991 993 994
f 942 995 946
f 942 984 995
f 984 996 995
f 984 986 996
f 986 997 996
f 986 992 997
f 992 998 997
f 992 994 998

