# https://github.com/mikedh/trimesh
v -0.06600000 -0.08600000 -0.12200000
v -0.06600000 -0.08600000 -0.11800000
v -0.06600000 -0.08200000 -0.12200000
v -0.06600000 -0.08200000 -0.11800000
v -0.06200000 -0.08600000 -0.12200000
v -0.06200000 -0.08600000 -0.11800000
v -0.06200000 -0.08200000 -0.12200000
v -0.06600000 -0.08600000 -0.11400000
v -0.06600000 -0.08200000 -0.11400000
v -0.06200000 -0.08600000 -0.11400000
v -0.06200000 -0.08200000 -0.11400000
v -0.06600000 -0.07800000 -0.12200000
v -0.06600000 -0.07800000 -0.11800000
v -0.06200000 -0.07800000 -0.12200000
v -0.06200000 -0.07800000 -0.11800000
v -0.06600000 -0.07800000 -0.11400000
v -0.06200000 -0.07800000 -0.11400000
v -0.06600000 -0.07000000 -0.12200000
v -0.06600000 -0.07000000 -0.11800000
v -0.06600000 -0.06600000 -0.12200000
v -0.06600000 -0.06600000 -0.11800000
v -0.06200000 -0.07000000 -0.12200000
v -0.06200000 -0.07000000 -0.11800000
v -0.06200000 -0.06600000 -0.12200000
v -0.06600000 -0.07000000 -0.11400000
v -0.06600000 -0.06600000 -0.11400000
v -0.06200000 -0.07000000 -0.11400000
v -0.06200000 -0.06600000 -0.11400000
v -0.06600000 -0.06200000 -0.12200000
v -0.06600000 -0.06200000 -0.11800000
v -0.06200000 -0.06200000 -0.12200000
v -0.06600000 -0.06200000 -0.11400000
v -0.06200000 -0.06200000 -0.11400000
v -0.06600000 -0.05800000 -0.12200000
v -0.06600000 -0.05800000 -0.11800000
v -0.06200000 -0.05800000 -0.12200000
v -0.06600000 -0.05800000 -0.11400000
v -0.06200000 -0.05800000 -0.11400000
v -0.06600000 -0.05400000 -0.12200000
v -0.06600000 -0.05400000 -0.11800000
v -0.06200000 -0.05400000 -0.12200000
v -0.06200000 -0.05400000 -0.11800000
v -0.06600000 -0.05400000 -0.11400000
v -0.06200000 -0.05400000 -0.11400000
v -0.06200000 -0.09000000 -0.12200000
v -0.06200000 -0.09000000 -0.11800000
v -0.05800000 -0.09000000 -0.12200000
v -0.05800000 -0.09000000 -0.11800000
v -0.05800000 -0.08600000 -0.12200000
v -0.06200000 -0.09000000 -0.11400000
v -0.05800000 -0.09000000 -0.11400000
v -0.05800000 -0.08600000 -0.11400000
v -0.05800000 -0.08200000 -0.12200000
v -0.05800000 -0.08200000 -0.11400000
v -0.05800000 -0.08200000 -0.11800000
v -0.05800000 -0.07800000 -0.12200000
v -0.05800000 -0.07800000 -0.11800000
v -0.05800000 -0.07800000 -0.11400000
v -0.06200000 -0.07400000 -0.12200000
v -0.06200000 -0.07400000 -0.11800000
v -0.05800000 -0.07400000 -0.12200000
v -0.05800000 -0.07400000 -0.11800000
v -0.05800000 -0.07000000 -0.12200000
v -0.06200000 -0.07400000 -0.11400000
v -0.05800000 -0.07400000 -0.11400000
v -0.05800000 -0.07000000 -0.11400000
v -0.05800000 -0.06600000 -0.12200000
v -0.05800000 -0.06600000 -0.11400000
v -0.05800000 -0.06600000 -0.11800000
v -0.05800000 -0.06200000 -0.12200000
v -0.05800000 -0.06200000 -0.11800000
v -0.05800000 -0.06200000 -0.11400000
v -0.05800000 -0.05800000 -0.12200000
v -0.05800000 -0.05800000 -0.11400000
v -0.05800000 -0.05400000 -0.12200000
v -0.05800000 -0.05400000 -0.11800000
v -0.05800000 -0.05400000 -0.11400000
v -0.05400000 -0.09000000 -0.12200000
v -0.05400000 -0.09000000 -0.11800000
v -0.05400000 -0.08600000 -0.12200000
v -0.05400000 -0.09000000 -0.11400000
v -0.05400000 -0.08600000 -0.11400000
v -0.05400000 -0.08200000 -0.12200000
v -0.05400000 -0.08200000 -0.11800000
v -0.05400000 -0.08200000 -0.11400000
v -0.05400000 -0.07400000 -0.12200000
v -0.05400000 -0.07400000 -0.11800000
v -0.05400000 -0.07000000 -0.12200000
v -0.05400000 -0.07400000 -0.11400000
v -0.05400000 -0.07000000 -0.11400000
v -0.05400000 -0.06600000 -0.12200000
v -0.05400000 -0.06600000 -0.11800000
v -0.05400000 -0.06600000 -0.11400000
v -0.05400000 -0.06200000 -0.12200000
v -0.05400000 -0.06200000 -0.11800000
v -0.05400000 -0.05800000 -0.12200000
v -0.05400000 -0.05800000 -0.11800000
v -0.05400000 -0.06200000 -0.11400000
v -0.05400000 -0.05800000 -0.11400000
v -0.05400000 -0.05400000 -0.12200000
v -0.05400000 -0.05400000 -0.11400000
v -0.05800000 -0.05000000 -0.12200000
v -0.05800000 -0.05000000 -0.11800000
v -0.05400000 -0.05000000 -0.12200000
v -0.05400000 -0.05000000 -0.11800000
v -0.05800000 -0.05000000 -0.11400000
v -0.05400000 -0.05000000 -0.11400000
v -0.05000000 -0.09000000 -0.12200000
v -0.05000000 -0.09000000 -0.11800000
v -0.05000000 -0.08600000 -0.12200000
v -0.05000000 -0.09000000 -0.11400000
v -0.05000000 -0.08600000 -0.11400000
v -0.05000000 -0.08200000 -0.12200000
v -0.05000000 -0.08200000 -0.11800000
v -0.05000000 -0.08200000 -0.11400000
v -0.05000000 -0.07400000 -0.12200000
v -0.05000000 -0.07400000 -0.11800000
v -0.05000000 -0.07000000 -0.12200000
v -0.05000000 -0.07400000 -0.11400000
v -0.05000000 -0.07000000 -0.11400000
v -0.05000000 -0.06600000 -0.12200000
v -0.05000000 -0.06600000 -0.11800000
v -0.05000000 -0.06600000 -0.11400000
v -0.05000000 -0.05800000 -0.12200000
v -0.05000000 -0.05800000 -0.11800000
v -0.05000000 -0.05400000 -0.12200000
v -0.05000000 -0.05800000 -0.11400000
v -0.05000000 -0.05400000 -0.11400000
v -0.05000000 -0.05000000 -0.12200000
v -0.05000000 -0.05000000 -0.11800000
v -0.05000000 -0.05000000 -0.11400000
v -0.04600000 -0.09000000 -0.12200000
v -0.04600000 -0.09000000 -0.11800000
v -0.04600000 -0.08600000 -0.12200000
v -0.04600000 -0.08600000 -0.11800000
v -0.04600000 -0.09000000 -0.11400000
v -0.04600000 -0.08600000 -0.11400000
v -0.04600000 -0.08200000 -0.12200000
v -0.04600000 -0.08200000 -0.11400000
v -0.05000000 -0.07800000 -0.12200000
v -0.05000000 -0.07800000 -0.11800000
v -0.04600000 -0.07800000 -0.12200000
v -0.05000000 -0.07800000 -0.11400000
v -0.04600000 -0.07800000 -0.11400000
v -0.04600000 -0.07400000 -0.12200000
v -0.04600000 -0.07400000 -0.11400000
v -0.04600000 -0.07000000 -0.12200000
v -0.04600000 -0.07000000 -0.11400000
v -0.04600000 -0.07000000 -0.11800000
v -0.04600000 -0.06600000 -0.12200000
v -0.04600000 -0.06600000 -0.11800000
v -0.04600000 -0.06600000 -0.11400000
v -0.05000000 -0.06200000 -0.12200000
v -0.05000000 -0.06200000 -0.11800000
v -0.04600000 -0.06200000 -0.12200000
v -0.04600000 -0.06200000 -0.11800000
v -0.04600000 -0.05800000 -0.12200000
v -0.05000000 -0.06200000 -0.11400000
v -0.04600000 -0.06200000 -0.11400000
v -0.04600000 -0.05800000 -0.11400000
v -0.04600000 -0.05400000 -0.12200000
v -0.04600000 -0.05400000 -0.11400000
v -0.04600000 -0.05400000 -0.11800000
v -0.04600000 -0.05000000 -0.12200000
v -0.04600000 -0.05000000 -0.11800000
v -0.04600000 -0.05000000 -0.11400000
v -0.04200000 -0.08600000 -0.12200000
v -0.04200000 -0.08600000 -0.11800000
v -0.04200000 -0.08200000 -0.12200000
v -0.04200000 -0.08200000 -0.11800000
v -0.04200000 -0.08600000 -0.11400000
v -0.04200000 -0.08200000 -0.11400000
v -0.04200000 -0.07800000 -0.12200000
v -0.04200000 -0.07800000 -0.11400000
v -0.04200000 -0.07400000 -0.12200000
v -0.04200000 -0.07400000 -0.11400000
v -0.04200000 -0.07400000 -0.11800000
v -0.04200000 -0.07000000 -0.12200000
v -0.04200000 -0.07000000 -0.11800000
v -0.04200000 -0.07000000 -0.11400000
v -0.04200000 -0.06200000 -0.12200000
v -0.04200000 -0.06200000 -0.11800000
v -0.04200000 -0.05800000 -0.12200000
v -0.04200000 -0.05800000 -0.11800000
v -0.04200000 -0.06200000 -0.11400000
v -0.04200000 -0.05800000 -0.11400000
v -0.04200000 -0.05400000 -0.12200000
v -0.04200000 -0.05400000 -0.11800000
v -0.04200000 -0.05400000 -0.11400000
v -0.03800000 -0.08200000 -0.12200000
v -0.03800000 -0.08200000 -0.11800000
v -0.03800000 -0.07800000 -0.12200000
v -0.03800000 -0.08200000 -0.11400000
v -0.03800000 -0.07800000 -0.11400000
v -0.03800000 -0.07400000 -0.12200000
v -0.03800000 -0.07400000 -0.11800000
v -0.03800000 -0.07400000 -0.11400000
v -0.03800000 -0.09800000 -0.12200000
v -0.03800000 -0.09800000 -0.11800000
v -0.03800000 -0.09400000 -0.12200000
v -0.03800000 -0.09400000 -0.11800000
v -0.03400000 -0.09800000 -0.12200000
v -0.03400000 -0.09800000 -0.11800000
v -0.03400000 -0.09400000 -0.12200000
v -0.03800000 -0.09800000 -0.11400000
v -0.03800000 -0.09400000 -0.11400000
v -0.03400000 -0.09800000 -0.11400000
v -0.03400000 -0.09400000 -0.11400000
v -0.03800000 -0.09000000 -0.12200000
v -0.03800000 -0.09000000 -0.11800000
v -0.03400000 -0.09000000 -0.12200000
v -0.03800000 -0.09000000 -0.11400000
v -0.03400000 -0.09000000 -0.11400000
v -0.03800000 -0.08600000 -0.12200000
v -0.03800000 -0.08600000 -0.11800000
v -0.03400000 -0.08600000 -0.12200000
v -0.03800000 -0.08600000 -0.11400000
v -0.03400000 -0.08600000 -0.11400000
v -0.03400000 -0.08200000 -0.12200000
v -0.03400000 -0.08200000 -0.11400000
v -0.03400000 -0.07800000 -0.12200000
v -0.03400000 -0.07800000 -0.11400000
v -0.03400000 -0.07400000 -0.12200000
v -0.03400000 -0.07400000 -0.11400000
v -0.03800000 -0.07000000 -0.12200000
v -0.03800000 -0.07000000 -0.11800000
v -0.03400000 -0.07000000 -0.12200000
v -0.03800000 -0.07000000 -0.11400000
v -0.03400000 -0.07000000 -0.11400000
v -0.03800000 -0.06600000 -0.12200000
v -0.03800000 -0.06600000 -0.11800000
v -0.03400000 -0.06600000 -0.12200000
v -0.03800000 -0.06600000 -0.11400000
v -0.03400000 -0.06600000 -0.11400000
v -0.03800000 -0.06200000 -0.12200000
v -0.03800000 -0.06200000 -0.11800000
v -0.03400000 -0.06200000 -0.12200000
v -0.03400000 -0.06200000 -0.11800000
v -0.03800000 -0.06200000 -0.11400000
v -0.03400000 -0.06200000 -0.11400000
v -0.03000000 -0.09800000 -0.12200000
v -0.03000000 -0.09800000 -0.11800000
v -0.03000000 -0.09400000 -0.12200000
v -0.03000000 -0.09400000 -0.11800000
v -0.03000000 -0.09800000 -0.11400000
v -0.03000000 -0.09400000 -0.11400000
v -0.03000000 -0.09000000 -0.12200000
v -0.03000000 -0.09000000 -0.11800000
v -0.03000000 -0.09000000 -0.11400000
v -0.03000000 -0.08600000 -0.12200000
v -0.03000000 -0.08600000 -0.11400000
v -0.03000000 -0.08200000 -0.12200000
v -0.03000000 -0.08200000 -0.11400000
v -0.03000000 -0.08200000 -0.11800000
v -0.03000000 -0.07800000 -0.12200000
v -0.03000000 -0.07800000 -0.11800000
v -0.03000000 -0.07800000 -0.11400000
v -0.03000000 -0.07400000 -0.12200000
v -0.03000000 -0.07400000 -0.11800000
v -0.03000000 -0.07400000 -0.11400000
v -0.03000000 -0.07000000 -0.12200000
v -0.03000000 -0.07000000 -0.11800000
v -0.03000000 -0.07000000 -0.11400000
v -0.03000000 -0.06600000 -0.12200000
v -0.03000000 -0.06600000 -0.11800000
v -0.03000000 -0.06600000 -0.11400000
v -0.03000000 -0.06200000 -0.12200000
v -0.03000000 -0.06200000 -0.11800000
v -0.03000000 -0.06200000 -0.11400000
v -0.02600000 -0.09000000 -0.12200000
v -0.02600000 -0.09000000 -0.11800000
v -0.02600000 -0.08600000 -0.12200000
v -0.02600000 -0.09000000 -0.11400000
v -0.02600000 -0.08600000 -0.11400000
v -0.02600000 -0.08200000 -0.12200000
v -0.02600000 -0.08200000 -0.11800000
v -0.02600000 -0.08200000 -0.11400000
v -0.02600000 -0.06600000 -0.12200000
v -0.02600000 -0.06600000 -0.11800000
v -0.02600000 -0.06200000 -0.12200000
v -0.02600000 -0.06600000 -0.11400000
v -0.02600000 -0.06200000 -0.11400000
v -0.03000000 -0.05800000 -0.12200000
v -0.03000000 -0.05800000 -0.11800000
v -0.02600000 -0.05800000 -0.12200000
v -0.02600000 -0.05800000 -0.11800000
v -0.03000000 -0.05800000 -0.11400000
v -0.02600000 -0.05800000 -0.11400000
v -0.02200000 -0.09000000 -0.12200000
v -0.02200000 -0.09000000 -0.11800000
v -0.02200000 -0.08600000 -0.12200000
v -0.02200000 -0.08600000 -0.11800000
v -0.02200000 -0.09000000 -0.11400000
v -0.02200000 -0.08600000 -0.11400000
v -0.02200000 -0.08200000 -0.12200000
v -0.02200000 -0.08200000 -0.11400000
v -0.02600000 -0.07800000 -0.12200000
v -0.02600000 -0.07800000 -0.11800000
v -0.02200000 -0.07800000 -0.12200000
v -0.02200000 -0.07800000 -0.11800000
v -0.02600000 -0.07800000 -0.11400000
v -0.02200000 -0.07800000 -0.11400000
v -0.02600000 -0.07000000 -0.12200000
v -0.02600000 -0.07000000 -0.11800000
v -0.02200000 -0.07000000 -0.12200000
v -0.02200000 -0.07000000 -0.11800000
v -0.02200000 -0.06600000 -0.12200000
v -0.02600000 -0.07000000 -0.11400000
v -0.02200000 -0.07000000 -0.11400000
v -0.02200000 -0.06600000 -0.11400000
v -0.02200000 -0.06200000 -0.12200000
v -0.02200000 -0.06200000 -0.11400000
v -0.02200000 -0.06200000 -0.11800000
v -0.02200000 -0.05800000 -0.12200000
v -0.02200000 -0.05800000 -0.11800000
v -0.02200000 -0.05800000 -0.11400000
v -0.01800000 -0.08600000 -0.12200000
v -0.01800000 -0.08600000 -0.11800000
v -0.01800000 -0.08200000 -0.12200000
v -0.01800000 -0.08200000 -0.11800000
v -0.01800000 -0.08600000 -0.11400000
v -0.01800000 -0.08200000 -0.11400000
v -0.01800000 -0.07800000 -0.12200000
v -0.01800000 -0.07800000 -0.11400000
v -0.02200000 -0.07400000 -0.12200000
v -0.02200000 -0.07400000 -0.11800000
v -0.01800000 -0.07400000 -0.12200000
v -0.02200000 -0.07400000 -0.11400000
v -0.01800000 -0.07400000 -0.11400000
v -0.01800000 -0.07000000 -0.12200000
v -0.01800000 -0.07000000 -0.11400000
v -0.01800000 -0.06600000 -0.12200000
v -0.01800000 -0.06600000 -0.11400000
v -0.01800000 -0.06600000 -0.11800000
v -0.01800000 -0.06200000 -0.12200000
v -0.01800000 -0.06200000 -0.11800000
v -0.01800000 -0.06200000 -0.11400000
v -0.01400000 -0.08200000 -0.12200000
v -0.01400000 -0.08200000 -0.11800000
v -0.01400000 -0.07800000 -0.12200000
v -0.01400000 -0.08200000 -0.11400000
v -0.01400000 -0.07800000 -0.11400000
v -0.01400000 -0.07400000 -0.12200000
v -0.01400000 -0.07400000 -0.11400000
v -0.01400000 -0.07000000 -0.12200000
v -0.01400000 -0.07000000 -0.11400000
v -0.01400000 -0.06600000 -0.12200000
v -0.01400000 -0.06600000 -0.11800000
v -0.01400000 -0.06600000 -0.11400000
v -0.01400000 -0.09000000 -0.12200000
v -0.01400000 -0.09000000 -0.11800000
v -0.01400000 -0.08600000 -0.12200000
v -0.01400000 -0.08600000 -0.11800000
v -0.01000000 -0.09000000 -0.12200000
v -0.01000000 -0.09000000 -0.11800000
v -0.01000000 -0.08600000 -0.12200000
v -0.01400000 -0.09000000 -0.11400000
v -0.01400000 -0.08600000 -0.11400000
v -0.01000000 -0.09000000 -0.11400000
v -0.01000000 -0.08600000 -0.11400000
v -0.01000000 -0.08200000 -0.12200000
v -0.01000000 -0.08200000 -0.11400000
v -0.01000000 -0.07800000 -0.12200000
v -0.01000000 -0.07800000 -0.11400000
v -0.01000000 -0.07400000 -0.12200000
v -0.01000000 -0.07400000 -0.11400000
v -0.01000000 -0.07000000 -0.12200000
v -0.01000000 -0.07000000 -0.11400000
v -0.01000000 -0.06600000 -0.12200000
v -0.01000000 -0.06600000 -0.11400000
v -0.01400000 -0.06200000 -0.12200000
v -0.01400000 -0.06200000 -0.11800000
v -0.01000000 -0.06200000 -0.12200000
v -0.01000000 -0.06200000 -0.11800000
v -0.01400000 -0.06200000 -0.11400000
v -0.01000000 -0.06200000 -0.11400000
v -0.00600000 -0.09000000 -0.12200000
v -0.00600000 -0.09000000 -0.11800000
v -0.00600000 -0.08600000 -0.12200000
v -0.00600000 -0.09000000 -0.11400000
v -0.00600000 -0.08600000 -0.11400000
v -0.00600000 -0.08200000 -0.12200000
v -0.00600000 -0.08200000 -0.11400000
v -0.00600000 -0.08200000 -0.11800000
v -0.00600000 -0.07800000 -0.12200000
v -0.00600000 -0.07800000 -0.11800000
v -0.00600000 -0.07800000 -0.11400000
v -0.00600000 -0.07400000 -0.12200000
v -0.00600000 -0.07400000 -0.11400000
v -0.00600000 -0.07000000 -0.12200000
v -0.00600000 -0.07000000 -0.11400000
v -0.00600000 -0.07000000 -0.11800000
v -0.00600000 -0.06600000 -0.12200000
v -0.00600000 -0.06600000 -0.11800000
v -0.00600000 -0.06600000 -0.11400000
v -0.00600000 -0.06200000 -0.12200000
v -0.00600000 -0.06200000 -0.11400000
v -0.01000000 -0.05800000 -0.12200000
v -0.01000000 -0.05800000 -0.11800000
v -0.00600000 -0.05800000 -0.12200000
v -0.00600000 -0.05800000 -0.11800000
v -0.01000000 -0.05800000 -0.11400000
v -0.00600000 -0.05800000 -0.11400000
v -0.00200000 -0.09000000 -0.12200000
v -0.00200000 -0.09000000 -0.11800000
v -0.00200000 -0.08600000 -0.12200000
v -0.00200000 -0.09000000 -0.11400000
v -0.00200000 -0.08600000 -0.11400000
v -0.00200000 -0.08200000 -0.12200000
v -0.00200000 -0.08200000 -0.11800000
v -0.00200000 -0.08200000 -0.11400000
v -0.00200000 -0.07800000 -0.12200000
v -0.00200000 -0.07800000 -0.11800000
v -0.00200000 -0.07400000 -0.12200000
v -0.00200000 -0.07800000 -0.11400000
v -0.00200000 -0.07400000 -0.11400000
v -0.00200000 -0.07000000 -0.12200000
v -0.00200000 -0.07000000 -0.11800000
v -0.00200000 -0.07000000 -0.11400000
v -0.00200000 -0.06600000 -0.12200000
v -0.00200000 -0.06600000 -0.11800000
v -0.00200000 -0.06200000 -0.12200000
v -0.00200000 -0.06600000 -0.11400000
v -0.00200000 -0.06200000 -0.11400000
v -0.00200000 -0.05800000 -0.12200000
v -0.00200000 -0.05800000 -0.11800000
v -0.00200000 -0.05800000 -0.11400000
v 0.00200000 -0.09000000 -0.12200000
v 0.00200000 -0.09000000 -0.11800000
v 0.00200000 -0.08600000 -0.12200000
v 0.00200000 -0.09000000 -0.11400000
v 0.00200000 -0.08600000 -0.11400000
v 0.00200000 -0.08200000 -0.12200000
v 0.00200000 -0.08200000 -0.11400000
v 0.00200000 -0.07800000 -0.12200000
v 0.00200000 -0.07800000 -0.11400000
v 0.00200000 -0.07400000 -0.12200000
v 0.00200000 -0.07400000 -0.11400000
v 0.00200000 -0.07000000 -0.12200000
v 0.00200000 -0.07000000 -0.11400000
v 0.00200000 -0.06600000 -0.12200000
v 0.00200000 -0.06600000 -0.11400000
v 0.00200000 -0.06200000 -0.12200000
v 0.00200000 -0.06200000 -0.11400000
v 0.00200000 -0.06200000 -0.11800000
v 0.00200000 -0.05800000 -0.12200000
v 0.00200000 -0.05800000 -0.11800000
v 0.00200000 -0.05800000 -0.11400000
v 0.00600000 -0.09000000 -0.12200000
v 0.00600000 -0.09000000 -0.11800000
v 0.00600000 -0.08600000 -0.12200000
v 0.00600000 -0.08600000 -0.11800000
v 0.00600000 -0.09000000 -0.11400000
v 0.00600000 -0.08600000 -0.11400000
v 0.00600000 -0.08200000 -0.12200000
v 0.00600000 -0.08200000 -0.11800000
v 0.00600000 -0.08200000 -0.11400000
v 0.00600000 -0.07800000 -0.12200000
v 0.00600000 -0.07800000 -0.11800000
v 0.00600000 -0.07800000 -0.11400000
v 0.00600000 -0.07400000 -0.12200000
v 0.00600000 -0.07400000 -0.11400000
v 0.00600000 -0.07000000 -0.12200000
v 0.00600000 -0.07000000 -0.11400000
v 0.00600000 -0.07000000 -0.11800000
v 0.00600000 -0.06600000 -0.12200000
v 0.00600000 -0.06600000 -0.11800000
v 0.00600000 -0.06600000 -0.11400000
v 0.00600000 -0.06200000 -0.12200000
v 0.00600000 -0.06200000 -0.11800000
v 0.00600000 -0.06200000 -0.11400000
v 0.01000000 -0.07800000 -0.12200000
v 0.01000000 -0.07800000 -0.11800000
v 0.01000000 -0.07400000 -0.12200000
v 0.01000000 -0.07800000 -0.11400000
v 0.01000000 -0.07400000 -0.11400000
v 0.01000000 -0.07000000 -0.12200000
v 0.01000000 -0.07000000 -0.11800000
v 0.01000000 -0.07000000 -0.11400000
v 0.01000000 -0.08600000 -0.12200000
v 0.01000000 -0.08600000 -0.11800000
v 0.01000000 -0.08200000 -0.12200000
v 0.01000000 -0.08200000 -0.11800000
v 0.01400000 -0.08600000 -0.12200000
v 0.01400000 -0.08600000 -0.11800000
v 0.01400000 -0.08200000 -0.12200000
v 0.01000000 -0.08600000 -0.11400000
v 0.01000000 -0.08200000 -0.11400000
v 0.01400000 -0.08600000 -0.11400000
v 0.01400000 -0.08200000 -0.11400000
v 0.01400000 -0.07800000 -0.12200000
v 0.01400000 -0.07800000 -0.11400000
v 0.01400000 -0.07400000 -0.12200000
v 0.01400000 -0.07400000 -0.11400000
v 0.01400000 -0.07000000 -0.12200000
v 0.01400000 -0.07000000 -0.11400000
v 0.01000000 -0.06600000 -0.12200000
v 0.01000000 -0.06600000 -0.11800000
v 0.01400000 -0.06600000 -0.12200000
v 0.01000000 -0.06600000 -0.11400000
v 0.01400000 -0.06600000 -0.11400000
v 0.01000000 -0.06200000 -0.12200000
v 0.01000000 -0.06200000 -0.11800000
v 0.01400000 -0.06200000 -0.12200000
v 0.01400000 -0.06200000 -0.11800000
v 0.01000000 -0.06200000 -0.11400000
v 0.01400000 -0.06200000 -0.11400000
v 0.01400000 -0.09000000 -0.12200000
v 0.01400000 -0.09000000 -0.11800000
v 0.01800000 -0.09000000 -0.12200000
v 0.01800000 -0.09000000 -0.11800000
v 0.01800000 -0.08600000 -0.12200000
v 0.01400000 -0.09000000 -0.11400000
v 0.01800000 -0.09000000 -0.11400000
v 0.01800000 -0.08600000 -0.11400000
v 0.01800000 -0.08200000 -0.12200000
v 0.01800000 -0.08200000 -0.11400000
v 0.01800000 -0.08200000 -0.11800000
v 0.01800000 -0.07800000 -0.12200000
v 0.01800000 -0.07800000 -0.11800000
v 0.01800000 -0.07800000 -0.11400000
v 0.01800000 -0.07400000 -0.12200000
v 0.01800000 -0.07400000 -0.11800000
v 0.01800000 -0.07400000 -0.11400000
v 0.01800000 -0.07000000 -0.12200000
v 0.01800000 -0.07000000 -0.11800000
v 0.01800000 -0.07000000 -0.11400000
v 0.01800000 -0.06600000 -0.12200000
v 0.01800000 -0.06600000 -0.11800000
v 0.01800000 -0.06600000 -0.11400000
v 0.01800000 -0.06200000 -0.12200000
v 0.01800000 -0.06200000 -0.11800000
v 0.01800000 -0.06200000 -0.11400000
v 0.02200000 -0.09000000 -0.12200000
v 0.02200000 -0.09000000 -0.11800000
v 0.02200000 -0.08600000 -0.12200000
v 0.02200000 -0.09000000 -0.11400000
v 0.02200000 -0.08600000 -0.11400000
v 0.02200000 -0.08200000 -0.12200000
v 0.02200000 -0.08200000 -0.11800000
v 0.02200000 -0.08200000 -0.11400000
v 0.02200000 -0.06600000 -0.12200000
v 0.02200000 -0.06600000 -0.11800000
v 0.02200000 -0.06200000 -0.12200000
v 0.02200000 -0.06600000 -0.11400000
v 0.02200000 -0.06200000 -0.11400000
v 0.01800000 -0.05800000 -0.12200000
v 0.01800000 -0.05800000 -0.11800000
v 0.02200000 -0.05800000 -0.12200000
v 0.02200000 -0.05800000 -0.11800000
v 0.01800000 -0.05800000 -0.11400000
v 0.02200000 -0.05800000 -0.11400000
v 0.02600000 -0.09000000 -0.12200000
v 0.02600000 -0.09000000 -0.11800000
v 0.02600000 -0.08600000 -0.12200000
v 0.02600000 -0.09000000 -0.11400000
v 0.02600000 -0.08600000 -0.11400000
v 0.02600000 -0.08200000 -0.12200000
v 0.02600000 -0.08200000 -0.11800000
v 0.02600000 -0.08200000 -0.11400000
v 0.02200000 -0.07000000 -0.12200000
v 0.02200000 -0.07000000 -0.11800000
v 0.02600000 -0.07000000 -0.12200000
v 0.02600000 -0.07000000 -0.11800000
v 0.02600000 -0.06600000 -0.12200000
v 0.02200000 -0.07000000 -0.11400000
v 0.02600000 -0.07000000 -0.11400000
v 0.02600000 -0.06600000 -0.11400000
v 0.02600000 -0.06200000 -0.12200000
v 0.02600000 -0.06200000 -0.11400000
v 0.02600000 -0.06200000 -0.11800000
v 0.02600000 -0.05800000 -0.12200000
v 0.02600000 -0.05800000 -0.11800000
v 0.02600000 -0.05800000 -0.11400000
v 0.03000000 -0.09000000 -0.12200000
v 0.03000000 -0.09000000 -0.11800000
v 0.03000000 -0.08600000 -0.12200000
v 0.03000000 -0.08600000 -0.11800000
v 0.03000000 -0.09000000 -0.11400000
v 0.03000000 -0.08600000 -0.11400000
v 0.03000000 -0.08200000 -0.12200000
v 0.03000000 -0.08200000 -0.11400000
v 0.02600000 -0.07800000 -0.12200000
v 0.02600000 -0.07800000 -0.11800000
v 0.03000000 -0.07800000 -0.12200000
v 0.03000000 -0.07800000 -0.11800000
v 0.02600000 -0.07800000 -0.11400000
v 0.03000000 -0.07800000 -0.11400000
v 0.03000000 -0.07000000 -0.12200000
v 0.03000000 -0.07000000 -0.11800000
v 0.03000000 -0.06600000 -0.12200000
v 0.03000000 -0.07000000 -0.11400000
v 0.03000000 -0.06600000 -0.11400000
v 0.03000000 -0.06200000 -0.12200000
v 0.03000000 -0.06200000 -0.11800000
v 0.03000000 -0.06200000 -0.11400000
v 0.03400000 -0.08600000 -0.12200000
v 0.03400000 -0.08600000 -0.11800000
v 0.03400000 -0.08200000 -0.12200000
v 0.03400000 -0.08600000 -0.11400000
v 0.03400000 -0.08200000 -0.11400000
v 0.03400000 -0.07800000 -0.12200000
v 0.03400000 -0.07800000 -0.11400000
v 0.03000000 -0.07400000 -0.12200000
v 0.03000000 -0.07400000 -0.11800000
v 0.03400000 -0.07400000 -0.12200000
v 0.03000000 -0.07400000 -0.11400000
v 0.03400000 -0.07400000 -0.11400000
v 0.03400000 -0.07000000 -0.12200000
v 0.03400000 -0.07000000 -0.11400000
v 0.03400000 -0.06600000 -0.12200000
v 0.03400000 -0.06600000 -0.11400000
v 0.03400000 -0.06200000 -0.12200000
v 0.03400000 -0.06200000 -0.11800000
v 0.03400000 -0.06200000 -0.11400000
v 0.03400000 -0.09000000 -0.12200000
v 0.03400000 -0.09000000 -0.11800000
v 0.03800000 -0.09000000 -0.12200000
v 0.03800000 -0.09000000 -0.11800000
v 0.03800000 -0.08600000 -0.12200000
v 0.03400000 -0.09000000 -0.11400000
v 0.03800000 -0.09000000 -0.11400000
v 0.03800000 -0.08600000 -0.11400000
v 0.03800000 -0.08200000 -0.12200000
v 0.03800000 -0.08200000 -0.11400000
v 0.03800000 -0.08200000 -0.11800000
v 0.03800000 -0.07800000 -0.12200000
v 0.03800000 -0.07800000 -0.11800000
v 0.03800000 -0.07800000 -0.11400000
v 0.03800000 -0.07400000 -0.12200000
v 0.03800000 -0.07400000 -0.11400000
v 0.03800000 -0.07000000 -0.12200000
v 0.03800000 -0.07000000 -0.11400000
v 0.03800000 -0.06600000 -0.12200000
v 0.03800000 -0.06600000 -0.11400000
v 0.03800000 -0.06200000 -0.12200000
v 0.03800000 -0.06200000 -0.11800000
v 0.03800000 -0.06200000 -0.11400000
v 0.04200000 -0.09000000 -0.12200000
v 0.04200000 -0.09000000 -0.11800000
v 0.04200000 -0.08600000 -0.12200000
v 0.04200000 -0.09000000 -0.11400000
v 0.04200000 -0.08600000 -0.11400000
v 0.04200000 -0.08200000 -0.12200000
v 0.04200000 -0.08200000 -0.11800000
v 0.04200000 -0.08200000 -0.11400000
v 0.04200000 -0.07800000 -0.12200000
v 0.04200000 -0.07800000 -0.11800000
v 0.04200000 -0.07400000 -0.12200000
v 0.04200000 -0.07800000 -0.11400000
v 0.04200000 -0.07400000 -0.11400000
v 0.04200000 -0.07000000 -0.12200000
v 0.04200000 -0.07000000 -0.11400000
v 0.04200000 -0.07000000 -0.11800000
v 0.04200000 -0.06600000 -0.12200000
v 0.04200000 -0.06600000 -0.11800000
v 0.04200000 -0.06600000 -0.11400000
v 0.04200000 -0.06200000 -0.12200000
v 0.04200000 -0.06200000 -0.11400000
v 0.03800000 -0.05800000 -0.12200000
v 0.03800000 -0.05800000 -0.11800000
v 0.04200000 -0.05800000 -0.12200000
v 0.04200000 -0.05800000 -0.11800000
v 0.03800000 -0.05800000 -0.11400000
v 0.04200000 -0.05800000 -0.11400000
v 0.04600000 -0.09000000 -0.12200000
v 0.04600000 -0.09000000 -0.11800000
v 0.04600000 -0.08600000 -0.12200000
v 0.04600000 -0.09000000 -0.11400000
v 0.04600000 -0.08600000 -0.11400000
v 0.04600000 -0.08200000 -0.12200000
v 0.04600000 -0.08200000 -0.11800000
v 0.04600000 -0.08200000 -0.11400000
v 0.04600000 -0.07800000 -0.12200000
v 0.04600000 -0.07800000 -0.11800000
v 0.04600000 -0.07400000 -0.12200000
v 0.04600000 -0.07800000 -0.11400000
v 0.04600000 -0.07400000 -0.11400000
v 0.04600000 -0.07000000 -0.12200000
v 0.04600000 -0.07000000 -0.11800000
v 0.04600000 -0.07000000 -0.11400000
v 0.04600000 -0.06600000 -0.12200000
v 0.04600000 -0.06600000 -0.11800000
v 0.04600000 -0.06200000 -0.12200000
v 0.04600000 -0.06600000 -0.11400000
v 0.04600000 -0.06200000 -0.11400000
v 0.04600000 -0.06200000 -0.11800000
v 0.04600000 -0.05800000 -0.12200000
v 0.04600000 -0.05800000 -0.11800000
v 0.04600000 -0.05800000 -0.11400000
v 0.05000000 -0.09000000 -0.12200000
v 0.05000000 -0.09000000 -0.11800000
v 0.05000000 -0.08600000 -0.12200000
v 0.05000000 -0.09000000 -0.11400000
v 0.05000000 -0.08600000 -0.11400000
v 0.05000000 -0.08200000 -0.12200000
v 0.05000000 -0.08200000 -0.11800000
v 0.05000000 -0.08200000 -0.11400000
v 0.05000000 -0.07800000 -0.12200000
v 0.05000000 -0.07800000 -0.11800000
v 0.05000000 -0.07400000 -0.12200000
v 0.05000000 -0.07800000 -0.11400000
v 0.05000000 -0.07400000 -0.11400000
v 0.05000000 -0.07000000 -0.12200000
v 0.05000000 -0.07000000 -0.11400000
v 0.05000000 -0.06600000 -0.12200000
v 0.05000000 -0.06600000 -0.11400000
v 0.05000000 -0.06200000 -0.12200000
v 0.05000000 -0.06200000 -0.11800000
v 0.05000000 -0.06200000 -0.11400000
v 0.05400000 -0.09000000 -0.12200000
v 0.05400000 -0.09000000 -0.11800000
v 0.05400000 -0.08600000 -0.12200000
v 0.05400000 -0.08600000 -0.11800000
v 0.05400000 -0.09000000 -0.11400000
v 0.05400000 -0.08600000 -0.11400000
v 0.05400000 -0.08200000 -0.12200000
v 0.05400000 -0.08200000 -0.11800000
v 0.05400000 -0.08200000 -0.11400000
v 0.05400000 -0.07800000 -0.12200000
v 0.05400000 -0.07800000 -0.11800000
v 0.05400000 -0.07800000 -0.11400000
v 0.05400000 -0.07400000 -0.12200000
v 0.05400000 -0.07400000 -0.11800000
v 0.05400000 -0.07400000 -0.11400000
v 0.05400000 -0.07000000 -0.12200000
v 0.05400000 -0.07000000 -0.11800000
v 0.05400000 -0.07000000 -0.11400000
v 0.05400000 -0.06600000 -0.12200000
v 0.05400000 -0.06600000 -0.11800000
v 0.05400000 -0.06600000 -0.11400000
v 0.05400000 -0.06200000 -0.12200000
v 0.05400000 -0.06200000 -0.11800000
v 0.05400000 -0.06200000 -0.11400000
f 2 4 1
f 5 2 1
f 1 4 3
f 3 5 1
f 6 2 5
f 7 5 3
f 8 9 2
f 6 8 2
f 2 9 4
f 8 11 9
f 10 8 6
f 10 11 8
f 4 13 3
f 3 13 12
f 12 7 3
f 13 15 12
f 14 7 12
f 12 15 14
f 9 16 4
f 4 16 13
f 9 17 16
f 11 17 9
f 16 17 13
f 13 17 15
f 19 21 18
f 22 19 18
f 18 21 20
f 20 22 18
f 23 19 22
f 24 22 20
f 25 26 19
f 23 25 19
f 19 26 21
f 25 28 26
f 27 25 23
f 27 28 25
f 21 30 20
f 20 30 29
f 29 24 20
f 31 24 29
f 26 32 21
f 21 32 30
f 26 33 32
f 28 33 26
f 30 35 29
f 29 35 34
f 34 31 29
f 36 31 34
f 32 37 30
f 30 37 35
f 32 38 37
f 33 38 32
f 35 40 34
f 34 40 39
f 39 36 34
f 40 42 39
f 41 36 39
f 39 42 41
f 37 43 35
f 35 43 40
f 37 44 43
f 38 44 37
f 43 44 40
f 40 44 42
f 46 6 45
f 47 46 45
f 45 6 5
f 5 47 45
f 48 46 47
f 49 47 5
f 50 10 46
f 48 50 46
f 46 10 6
f 50 52 10
f 51 50 48
f 51 52 50
f 7 49 5
f 53 49 7
f 10 54 11
f 52 54 10
f 14 53 7
f 15 57 14
f 56 53 14
f 14 57 56
f 56 55 53
f 57 55 56
f 11 58 17
f 54 58 11
f 17 58 15
f 15 58 57
f 57 54 55
f 58 54 57
f 60 23 59
f 61 60 59
f 59 23 22
f 22 61 59
f 62 60 61
f 63 61 22
f 64 27 60
f 62 64 60
f 60 27 23
f 64 66 27
f 65 64 62
f 65 66 64
f 24 63 22
f 67 63 24
f 27 68 28
f 66 68 27
f 31 67 24
f 70 67 31
f 70 69 67
f 71 69 70
f 28 72 33
f 68 72 28
f 71 68 69
f 72 68 71
f 36 70 31
f 73 70 36
f 33 74 38
f 72 74 33
f 41 73 36
f 42 76 41
f 75 73 41
f 41 76 75
f 38 77 44
f 74 77 38
f 44 77 42
f 42 77 76
f 78 48 47
f 49 78 47
f 79 48 78
f 80 78 49
f 79 51 48
f 51 82 52
f 81 51 79
f 81 82 51
f 53 80 49
f 55 84 53
f 83 80 53
f 53 84 83
f 52 85 54
f 82 85 52
f 54 85 55
f 55 85 84
f 86 62 61
f 63 86 61
f 87 62 86
f 88 86 63
f 87 65 62
f 65 90 66
f 89 65 87
f 89 90 65
f 67 88 63
f 69 92 67
f 91 88 67
f 67 92 91
f 66 93 68
f 90 93 66
f 68 93 69
f 69 93 92
f 94 71 70
f 73 94 70
f 95 71 94
f 96 94 73
f 96 95 94
f 97 95 96
f 95 72 71
f 72 99 74
f 98 72 95
f 98 99 72
f 97 98 95
f 99 98 97
f 75 96 73
f 100 96 75
f 74 101 77
f 99 101 74
f 76 103 75
f 75 103 102
f 102 100 75
f 103 105 102
f 104 100 102
f 102 105 104
f 77 106 76
f 76 106 103
f 77 107 106
f 101 107 77
f 106 107 103
f 103 107 105
f 108 79 78
f 80 108 78
f 109 79 108
f 110 108 80
f 109 81 79
f 81 112 82
f 111 81 109
f 111 112 81
f 83 110 80
f 84 114 83
f 113 110 83
f 83 114 113
f 82 115 85
f 112 115 82
f 85 115 84
f 84 115 114
f 116 87 86
f 88 116 86
f 117 87 116
f 118 116 88
f 117 89 87
f 89 120 90
f 119 89 117
f 119 120 89
f 91 118 88
f 92 122 91
f 121 118 91
f 91 122 121
f 90 123 93
f 120 123 90
f 93 123 92
f 92 123 122
f 124 97 96
f 100 124 96
f 125 97 124
f 126 124 100
f 125 99 97
f 99 128 101
f 127 99 125
f 127 128 99
f 104 126 100
f 105 130 104
f 129 126 104
f 104 130 129
f 101 131 107
f 128 131 101
f 107 131 105
f 105 131 130
f 132 109 108
f 110 132 108
f 133 109 132
f 134 132 110
f 134 133 132
f 135 133 134
f 133 111 109
f 111 137 112
f 136 111 133
f 136 137 111
f 135 136 133
f 137 136 135
f 113 134 110
f 138 134 113
f 112 139 115
f 137 139 112
f 114 141 113
f 113 141 140
f 140 138 113
f 142 138 140
f 115 143 114
f 114 143 141
f 115 144 143
f 139 144 115
f 141 117 140
f 140 117 116
f 116 142 140
f 145 142 116
f 143 119 141
f 141 119 117
f 143 146 119
f 144 146 143
f 118 145 116
f 147 145 118
f 119 148 120
f 146 148 119
f 121 147 118
f 122 151 121
f 150 147 121
f 121 151 150
f 150 149 147
f 151 149 150
f 120 152 123
f 148 152 120
f 123 152 122
f 122 152 151
f 151 148 149
f 152 148 151
f 154 125 153
f 155 154 153
f 153 125 124
f 124 155 153
f 156 154 155
f 157 155 124
f 158 127 154
f 156 158 154
f 154 127 125
f 158 160 127
f 159 158 156
f 159 160 158
f 126 157 124
f 161 157 126
f 127 162 128
f 160 162 127
f 129 161 126
f 130 165 129
f 164 161 129
f 129 165 164
f 164 163 161
f 165 163 164
f 128 166 131
f 162 166 128
f 131 166 130
f 130 166 165
f 165 162 163
f 166 162 165
f 167 135 134
f 138 167 134
f 168 135 167
f 169 167 138
f 169 168 167
f 170 168 169
f 168 137 135
f 137 172 139
f 171 137 168
f 171 172 137
f 170 171 168
f 172 171 170
f 142 169 138
f 173 169 142
f 139 174 144
f 172 174 139
f 145 173 142
f 175 173 145
f 144 176 146
f 174 176 144
f 147 175 145
f 149 179 147
f 178 175 147
f 147 179 178
f 178 177 175
f 179 177 178
f 146 180 148
f 176 180 146
f 148 180 149
f 149 180 179
f 179 176 177
f 180 176 179
f 181 156 155
f 157 181 155
f 182 156 181
f 183 181 157
f 183 182 181
f 184 182 183
f 182 159 156
f 159 186 160
f 185 159 182
f 185 186 159
f 184 185 182
f 186 185 184
f 161 183 157
f 163 188 161
f 187 183 161
f 161 188 187
f 187 184 183
f 188 184 187
f 160 189 162
f 186 189 160
f 162 189 163
f 163 189 188
f 188 186 184
f 189 186 188
f 190 170 169
f 173 190 169
f 191 170 190
f 192 190 173
f 191 172 170
f 172 194 174
f 193 172 191
f 193 194 172
f 175 192 173
f 177 196 175
f 195 192 175
f 175 196 195
f 174 197 176
f 194 197 174
f 176 197 177
f 177 197 196
f 199 201 198
f 202 199 198
f 198 201 200
f 200 202 198
f 203 199 202
f 204 202 200
f 205 206 199
f 203 205 199
f 199 206 201
f 205 208 206
f 207 205 203
f 207 208 205
f 201 210 200
f 200 210 209
f 209 204 200
f 211 204 209
f 206 212 201
f 201 212 210
f 206 213 212
f 208 213 206
f 210 215 209
f 209 215 214
f 214 211 209
f 216 211 214
f 212 217 210
f 210 217 215
f 212 218 217
f 213 218 212
f 215 191 214
f 214 191 190
f 190 216 214
f 219 216 190
f 217 193 215
f 215 193 191
f 217 220 193
f 218 220 217
f 192 219 190
f 221 219 192
f 193 222 194
f 220 222 193
f 195 221 192
f 223 221 195
f 194 224 197
f 222 224 194
f 196 226 195
f 195 226 225
f 225 223 195
f 227 223 225
f 197 228 196
f 196 228 226
f 197 229 228
f 224 229 197
f 226 231 225
f 225 231 230
f 230 227 225
f 232 227 230
f 228 233 226
f 226 233 231
f 228 234 233
f 229 234 228
f 231 236 230
f 230 236 235
f 235 232 230
f 236 238 235
f 237 232 235
f 235 238 237
f 233 239 231
f 231 239 236
f 233 240 239
f 234 240 233
f 239 240 236
f 236 240 238
f 241 203 202
f 204 241 202
f 242 203 241
f 243 241 204
f 243 242 241
f 244 242 243
f 242 207 203
f 207 246 208
f 245 207 242
f 245 246 207
f 244 245 242
f 246 245 244
f 211 243 204
f 247 243 211
f 247 244 243
f 248 244 247
f 208 249 213
f 246 249 208
f 248 246 244
f 249 246 248
f 216 247 211
f 250 247 216
f 213 251 218
f 249 251 213
f 219 250 216
f 252 250 219
f 218 253 220
f 251 253 218
f 221 252 219
f 255 252 221
f 255 254 252
f 256 254 255
f 220 257 222
f 253 257 220
f 256 253 254
f 257 253 256
f 223 255 221
f 258 255 223
f 258 256 255
f 259 256 258
f 222 260 224
f 257 260 222
f 259 257 256
f 260 257 259
f 227 258 223
f 261 258 227
f 261 259 258
f 262 259 261
f 224 263 229
f 260 263 224
f 262 260 259
f 263 260 262
f 232 261 227
f 264 261 232
f 264 262 261
f 265 262 264
f 229 266 234
f 263 266 229
f 265 263 262
f 266 263 265
f 237 264 232
f 238 268 237
f 267 264 237
f 237 268 267
f 234 269 240
f 266 269 234
f 240 269 238
f 238 269 268
f 270 248 247
f 250 270 247
f 271 248 270
f 272 270 250
f 271 249 248
f 249 274 251
f 273 249 271
f 273 274 249
f 252 272 250
f 254 276 252
f 275 272 252
f 252 276 275
f 251 277 253
f 274 277 251
f 253 277 254
f 254 277 276
f 278 265 264
f 267 278 264
f 279 265 278
f 280 278 267
f 279 266 265
f 266 282 269
f 281 266 279
f 281 282 266
f 268 284 267
f 267 284 283
f 283 280 267
f 284 286 283
f 285 280 283
f 283 286 285
f 269 287 268
f 268 287 284
f 269 288 287
f 282 288 269
f 287 288 284
f 284 288 286
f 289 271 270
f 272 289 270
f 290 271 289
f 291 289 272
f 291 290 289
f 292 290 291
f 290 273 271
f 273 294 274
f 293 273 290
f 293 294 273
f 292 293 290
f 294 293 292
f 275 291 272
f 295 291 275
f 274 296 277
f 294 296 274
f 276 298 275
f 275 298 297
f 297 295 275
f 298 300 297
f 299 295 297
f 297 300 299
f 277 301 276
f 276 301 298
f 277 302 301
f 296 302 277
f 301 302 298
f 298 302 300
f 304 279 303
f 305 304 303
f 303 279 278
f 278 305 303
f 306 304 305
f 307 305 278
f 308 281 304
f 306 308 304
f 304 281 279
f 308 310 281
f 309 308 306
f 309 310 308
f 280 307 278
f 311 307 280
f 281 312 282
f 310 312 281
f 285 311 280
f 286 315 285
f 314 311 285
f 285 315 314
f 314 313 311
f 315 313 314
f 282 316 288
f 312 316 282
f 288 316 286
f 286 316 315
f 315 312 313
f 316 312 315
f 317 292 291
f 295 317 291
f 318 292 317
f 319 317 295
f 319 318 317
f 320 318 319
f 318 294 292
f 294 322 296
f 321 294 318
f 321 322 294
f 320 321 318
f 322 321 320
f 299 319 295
f 323 319 299
f 296 324 302
f 322 324 296
f 300 326 299
f 299 326 325
f 325 323 299
f 327 323 325
f 302 328 300
f 300 328 326
f 302 329 328
f 324 329 302
f 326 306 325
f 325 306 305
f 305 327 325
f 330 327 305
f 328 309 326
f 326 309 306
f 328 331 309
f 329 331 328
f 307 330 305
f 332 330 307
f 309 333 310
f 331 333 309
f 311 332 307
f 313 336 311
f 335 332 311
f 311 336 335
f 335 334 332
f 336 334 335
f 310 337 312
f 333 337 310
f 312 337 313
f 313 337 336
f 336 333 334
f 337 333 336
f 338 320 319
f 323 338 319
f 339 320 338
f 340 338 323
f 339 322 320
f 322 342 324
f 341 322 339
f 341 342 322
f 327 340 323
f 343 340 327
f 324 344 329
f 342 344 324
f 330 343 327
f 345 343 330
f 329 346 331
f 344 346 329
f 332 345 330
f 334 348 332
f 347 345 332
f 332 348 347
f 331 349 333
f 346 349 331
f 333 349 334
f 334 349 348
f 351 353 350
f 354 351 350
f 350 353 352
f 352 354 350
f 355 351 354
f 356 354 352
f 357 358 351
f 355 357 351
f 351 358 353
f 357 360 358
f 359 357 355
f 359 360 357
f 353 339 352
f 352 339 338
f 338 356 352
f 361 356 338
f 358 341 353
f 353 341 339
f 358 362 341
f 360 362 358
f 340 361 338
f 363 361 340
f 341 364 342
f 362 364 341
f 343 363 340
f 365 363 343
f 342 366 344
f 364 366 342
f 345 365 343
f 367 365 345
f 344 368 346
f 366 368 344
f 347 367 345
f 369 367 347
f 346 370 349
f 368 370 346
f 348 372 347
f 347 372 371
f 371 369 347
f 372 374 371
f 373 369 371
f 371 374 373
f 349 375 348
f 348 375 372
f 349 376 375
f 370 376 349
f 375 376 372
f 372 376 374
f 377 355 354
f 356 377 354
f 378 355 377
f 379 377 356
f 378 359 355
f 359 381 360
f 380 359 378
f 380 381 359
f 361 379 356
f 382 379 361
f 360 383 362
f 381 383 360
f 363 382 361
f 385 382 363
f 385 384 382
f 386 384 385
f 362 387 364
f 383 387 362
f 386 383 384
f 387 383 386
f 365 385 363
f 388 385 365
f 364 389 366
f 387 389 364
f 367 388 365
f 390 388 367
f 366 391 368
f 389 391 366
f 369 390 367
f 393 390 369
f 393 392 390
f 394 392 393
f 368 395 370
f 391 395 368
f 394 391 392
f 395 391 394
f 373 393 369
f 396 393 373
f 370 397 376
f 395 397 370
f 374 399 373
f 373 399 398
f 398 396 373
f 399 401 398
f 400 396 398
f 398 401 400
f 376 402 374
f 374 402 399
f 376 403 402
f 397 403 376
f 402 403 399
f 399 403 401
f 404 378 377
f 379 404 377
f 405 378 404
f 406 404 379
f 405 380 378
f 380 408 381
f 407 380 405
f 407 408 380
f 382 406 379
f 384 410 382
f 409 406 382
f 382 410 409
f 381 411 383
f 408 411 381
f 383 411 384
f 384 411 410
f 412 386 385
f 388 412 385
f 413 386 412
f 414 412 388
f 413 387 386
f 387 416 389
f 415 387 413
f 415 416 387
f 390 414 388
f 392 418 390
f 417 414 390
f 390 418 417
f 389 419 391
f 416 419 389
f 391 419 392
f 392 419 418
f 420 394 393
f 396 420 393
f 421 394 420
f 422 420 396
f 421 395 394
f 395 424 397
f 423 395 421
f 423 424 395
f 400 422 396
f 401 426 400
f 425 422 400
f 400 426 425
f 397 427 403
f 424 427 397
f 403 427 401
f 401 427 426
f 428 405 404
f 406 428 404
f 429 405 428
f 430 428 406
f 429 407 405
f 407 432 408
f 431 407 429
f 431 432 407
f 409 430 406
f 433 430 409
f 408 434 411
f 432 434 408
f 410 413 409
f 409 413 412
f 412 433 409
f 435 433 412
f 411 415 410
f 410 415 413
f 411 436 415
f 434 436 411
f 414 435 412
f 437 435 414
f 415 438 416
f 436 438 415
f 417 437 414
f 439 437 417
f 416 440 419
f 438 440 416
f 418 421 417
f 417 421 420
f 420 439 417
f 441 439 420
f 419 423 418
f 418 423 421
f 419 442 423
f 440 442 419
f 422 441 420
f 443 441 422
f 423 444 424
f 442 444 423
f 425 443 422
f 426 447 425
f 446 443 425
f 425 447 446
f 446 445 443
f 447 445 446
f 424 448 427
f 444 448 424
f 427 448 426
f 426 448 447
f 447 444 445
f 448 444 447
f 449 429 428
f 430 449 428
f 450 429 449
f 451 449 430
f 451 450 449
f 452 450 451
f 450 431 429
f 431 454 432
f 453 431 450
f 453 454 431
f 452 453 450
f 454 453 452
f 433 451 430
f 455 451 433
f 455 452 451
f 456 452 455
f 432 457 434
f 454 457 432
f 456 454 452
f 457 454 456
f 435 455 433
f 458 455 435
f 458 456 455
f 459 456 458
f 434 460 436
f 457 460 434
f 459 457 456
f 460 457 459
f 437 458 435
f 461 458 437
f 436 462 438
f 460 462 436
f 439 461 437
f 463 461 439
f 438 464 440
f 462 464 438
f 441 463 439
f 466 463 441
f 466 465 463
f 467 465 466
f 440 468 442
f 464 468 440
f 467 464 465
f 468 464 467
f 443 466 441
f 445 470 443
f 469 466 443
f 443 470 469
f 469 467 466
f 470 467 469
f 442 471 444
f 468 471 442
f 444 471 445
f 445 471 470
f 470 468 467
f 471 468 470
f 472 459 458
f 461 472 458
f 473 459 472
f 474 472 461
f 473 460 459
f 460 476 462
f 475 460 473
f 475 476 460
f 463 474 461
f 465 478 463
f 477 474 463
f 463 478 477
f 462 479 464
f 476 479 462
f 464 479 465
f 465 479 478
f 481 483 480
f 484 481 480
f 480 483 482
f 482 484 480
f 485 481 484
f 486 484 482
f 487 488 481
f 485 487 481
f 481 488 483
f 487 490 488
f 489 487 485
f 489 490 487
f 483 473 482
f 482 473 472
f 472 486 482
f 491 486 472
f 488 475 483
f 483 475 473
f 488 492 475
f 490 492 488
f 474 491 472
f 493 491 474
f 475 494 476
f 492 494 475
f 477 493 474
f 495 493 477
f 476 496 479
f 494 496 476
f 478 498 477
f 477 498 497
f 497 495 477
f 499 495 497
f 479 500 478
f 478 500 498
f 479 501 500
f 496 501 479
f 498 503 497
f 497 503 502
f 502 499 497
f 503 505 502
f 504 499 502
f 502 505 504
f 500 506 498
f 498 506 503
f 500 507 506
f 501 507 500
f 506 507 503
f 503 507 505
f 509 485 508
f 510 509 508
f 508 485 484
f 484 510 508
f 511 509 510
f 512 510 484
f 513 489 509
f 511 513 509
f 509 489 485
f 513 515 489
f 514 513 511
f 514 515 513
f 486 512 484
f 516 512 486
f 489 517 490
f 515 517 489
f 491 516 486
f 519 516 491
f 519 518 516
f 520 518 519
f 490 521 492
f 517 521 490
f 520 517 518
f 521 517 520
f 493 519 491
f 522 519 493
f 522 520 519
f 523 520 522
f 492 524 494
f 521 524 492
f 523 521 520
f 524 521 523
f 495 522 493
f 525 522 495
f 525 523 522
f 526 523 525
f 494 527 496
f 524 527 494
f 526 524 523
f 527 524 526
f 499 525 495
f 528 525 499
f 528 526 525
f 529 526 528
f 496 530 501
f 527 530 496
f 529 527 526
f 530 527 529
f 504 528 499
f 505 532 504
f 531 528 504
f 504 532 531
f 501 533 507
f 530 533 501
f 507 533 505
f 505 533 532
f 534 511 510
f 512 534 510
f 535 511 534
f 536 534 512
f 535 514 511
f 514 538 515
f 537 514 535
f 537 538 514
f 516 536 512
f 518 540 516
f 539 536 516
f 516 540 539
f 515 541 517
f 538 541 515
f 517 541 518
f 518 541 540
f 542 529 528
f 531 542 528
f 543 529 542
f 544 542 531
f 543 530 529
f 530 546 533
f 545 530 543
f 545 546 530
f 532 548 531
f 531 548 547
f 547 544 531
f 548 550 547
f 549 544 547
f 547 550 549
f 533 551 532
f 532 551 548
f 533 552 551
f 546 552 533
f 551 552 548
f 548 552 550
f 553 535 534
f 536 553 534
f 554 535 553
f 555 553 536
f 554 537 535
f 537 557 538
f 556 537 554
f 556 557 537
f 539 555 536
f 540 559 539
f 558 555 539
f 539 559 558
f 538 560 541
f 557 560 538
f 541 560 540
f 540 560 559
f 562 543 561
f 563 562 561
f 561 543 542
f 542 563 561
f 564 562 563
f 565 563 542
f 566 545 562
f 564 566 562
f 562 545 543
f 566 568 545
f 567 566 564
f 567 568 566
f 544 565 542
f 569 565 544
f 545 570 546
f 568 570 545
f 549 569 544
f 550 573 549
f 572 569 549
f 549 573 572
f 572 571 569
f 573 571 572
f 546 574 552
f 570 574 546
f 552 574 550
f 550 574 573
f 573 570 571
f 574 570 573
f 575 554 553
f 555 575 553
f 576 554 575
f 577 575 555
f 577 576 575
f 578 576 577
f 576 556 554
f 556 580 557
f 579 556 576
f 579 580 556
f 578 579 576
f 580 579 578
f 558 577 555
f 581 577 558
f 557 582 560
f 580 582 557
f 559 584 558
f 558 584 583
f 583 581 558
f 584 586 583
f 585 581 583
f 583 586 585
f 560 587 559
f 559 587 584
f 560 588 587
f 582 588 560
f 587 588 584
f 584 588 586
f 589 564 563
f 565 589 563
f 590 564 589
f 591 589 565
f 590 567 564
f 567 593 568
f 592 567 590
f 592 593 567
f 569 591 565
f 571 595 569
f 594 591 569
f 569 595 594
f 568 596 570
f 593 596 568
f 570 596 571
f 571 596 595
f 597 578 577
f 581 597 577
f 598 578 597
f 599 597 581
f 598 580 578
f 580 601 582
f 600 580 598
f 600 601 580
f 585 599 581
f 602 599 585
f 582 603 588
f 601 603 582
f 586 605 585
f 585 605 604
f 604 602 585
f 606 602 604
f 588 607 586
f 586 607 605
f 588 608 607
f 603 608 588
f 605 590 604
f 604 590 589
f 589 606 604
f 609 606 589
f 607 592 605
f 605 592 590
f 607 610 592
f 608 610 607
f 591 609 589
f 611 609 591
f 592 612 593
f 610 612 592
f 594 611 591
f 595 614 594
f 613 611 594
f 594 614 613
f 593 615 596
f 612 615 593
f 596 615 595
f 595 615 614
f 617 598 616
f 618 617 616
f 616 598 597
f 597 618 616
f 619 617 618
f 620 618 597
f 621 600 617
f 619 621 617
f 617 600 598
f 621 623 600
f 622 621 619
f 622 623 621
f 599 620 597
f 624 620 599
f 600 625 601
f 623 625 600
f 602 624 599
f 627 624 602
f 627 626 624
f 628 626 627
f 601 629 603
f 625 629 601
f 628 625 626
f 629 625 628
f 606 627 602
f 630 627 606
f 603 631 608
f 629 631 603
f 609 630 606
f 632 630 609
f 608 633 610
f 631 633 608
f 611 632 609
f 634 632 611
f 610 635 612
f 633 635 610
f 613 634 611
f 614 637 613
f 636 634 613
f 613 637 636
f 612 638 615
f 635 638 612
f 615 638 614
f 614 638 637
f 639 619 618
f 620 639 618
f 640 619 639
f 641 639 620
f 640 622 619
f 622 643 623
f 642 622 640
f 642 643 622
f 624 641 620
f 626 645 624
f 644 641 624
f 624 645 644
f 623 646 625
f 643 646 623
f 625 646 626
f 626 646 645
f 647 628 627
f 630 647 627
f 648 628 647
f 649 647 630
f 648 629 628
f 629 651 631
f 650 629 648
f 650 651 629
f 632 649 630
f 652 649 632
f 631 653 633
f 651 653 631
f 634 652 632
f 655 652 634
f 655 654 652
f 656 654 655
f 633 657 635
f 653 657 633
f 656 653 654
f 657 653 656
f 636 655 634
f 658 655 636
f 635 659 638
f 657 659 635
f 637 661 636
f 636 661 660
f 660 658 636
f 661 663 660
f 662 658 660
f 660 663 662
f 638 664 637
f 637 664 661
f 638 665 664
f 659 665 638
f 664 665 661
f 661 665 663
f 666 640 639
f 641 666 639
f 667 640 666
f 668 666 641
f 667 642 640
f 642 670 643
f 669 642 667
f 669 670 642
f 644 668 641
f 645 672 644
f 671 668 644
f 644 672 671
f 643 673 646
f 670 673 643
f 646 673 645
f 645 673 672
f 674 648 647
f 649 674 647
f 675 648 674
f 676 674 649
f 675 650 648
f 650 678 651
f 677 650 675
f 677 678 650
f 652 676 649
f 654 680 652
f 679 676 652
f 652 680 679
f 651 681 653
f 678 681 651
f 653 681 654
f 654 681 680
f 682 656 655
f 658 682 655
f 683 656 682
f 684 682 658
f 683 657 656
f 657 686 659
f 685 657 683
f 685 686 657
f 662 684 658
f 663 689 662
f 688 684 662
f 662 689 688
f 688 687 684
f 689 687 688
f 659 690 665
f 686 690 659
f 665 690 663
f 663 690 689
f 689 686 687
f 690 686 689
f 691 667 666
f 668 691 666
f 692 667 691
f 693 691 668
f 692 669 667
f 669 695 670
f 694 669 692
f 694 695 669
f 671 693 668
f 672 697 671
f 696 693 671
f 671 697 696
f 670 698 673
f 695 698 670
f 673 698 672
f 672 698 697
f 699 675 674
f 676 699 674
f 700 675 699
f 701 699 676
f 700 677 675
f 677 703 678
f 702 677 700
f 702 703 677
f 679 701 676
f 704 701 679
f 678 705 681
f 703 705 678
f 680 683 679
f 679 683 682
f 682 704 679
f 706 704 682
f 681 685 680
f 680 685 683
f 681 707 685
f 705 707 681
f 684 706 682
f 687 709 684
f 708 706 684
f 684 709 708
f 685 710 686
f 707 710 685
f 686 710 687
f 687 710 709
f 711 692 691
f 693 711 691
f 712 692 711
f 713 711 693
f 713 712 711
f 714 712 713
f 712 694 692
f 694 716 695
f 715 694 712
f 715 716 694
f 714 715 712
f 716 715 714
f 696 713 693
f 717 713 696
f 717 714 713
f 718 714 717
f 695 719 698
f 716 719 695
f 718 716 714
f 719 716 718
f 697 700 696
f 696 700 699
f 699 717 696
f 720 717 699
f 720 718 717
f 721 718 720
f 698 702 697
f 697 702 700
f 698 722 702
f 719 722 698
f 721 719 718
f 722 719 721
f 701 720 699
f 723 720 701
f 723 721 720
f 724 721 723
f 702 725 703
f 722 725 702
f 724 722 721
f 725 722 724
f 704 723 701
f 726 723 704
f 726 724 723
f 727 724 726
f 703 728 705
f 725 728 703
f 727 725 724
f 728 725 727
f 706 726 704
f 729 726 706
f 729 727 726
f 730 727 729
f 705 731 707
f 728 731 705
f 730 728 727
f 731 728 730
f 708 729 706
f 709 733 708
f 732 729 708
f 708 733 732
f 732 730 729
f 733 730 732
f 707 734 710
f 731 734 707
f 710 734 709
f 709 734 733
f 733 731 730
f 734 731 733

