# https://github.com/mikedh/trimesh

o 6.obj
v -0.28390938 -0.16880232 -0.77670941
v -0.28506403 -0.16726888 -0.76429008
v -0.28758284 -0.17637981 -0.76905690
v -0.28515186 -0.18077607 -0.77868110
v -0.27679302 -0.17630478 -0.78258055
v -0.27268130 -0.16720026 -0.77870763
v -0.27679027 -0.16406936 -0.76883731
v -0.28769538 -0.19095106 -0.76907062
v -0.28518754 -0.19678560 -0.77872136
v -0.27682138 -0.19097851 -0.78278550
v -0.28770545 -0.20837509 -0.76903402
v -0.28517382 -0.21416571 -0.77872684
v -0.27682046 -0.20839156 -0.78278275
v -0.28755174 -0.22179901 -0.76906605
v -0.28503933 -0.22572775 -0.77848256
v -0.27682687 -0.22188227 -0.78203982
v -0.28382704 -0.23026948 -0.77654747
v -0.28501828 -0.22968850 -0.76903036
v -0.27676831 -0.23180383 -0.76907428
v -0.27674269 -0.22974614 -0.77806626
v -0.29051155 -0.16498887 -0.75061730
v -0.29357658 -0.17492049 -0.75436487
v -0.27666035 -0.16415719 -0.75789560
v -0.29367357 -0.18955396 -0.75435115
v -0.28251959 -0.15724486 -0.74507553
v -0.29338628 -0.20722684 -0.75431638
v -0.29178972 -0.22362522 -0.75436487
v -0.28525708 -0.23631263 -0.75437127
v -0.27395763 -0.24090377 -0.75442708
v -0.27587442 -0.25065332 -0.74330605
v -0.26277347 -0.17619316 -0.78279922
v -0.25695448 -0.16707034 -0.77875429
v -0.26277621 -0.16377017 -0.76885470
v -0.26275791 -0.19099864 -0.78313866
v -0.24535676 -0.17618950 -0.78279831
v -0.23954967 -0.16707675 -0.77875704
v -0.24533755 -0.16377109 -0.76884738
v -0.24533938 -0.19099681 -0.78313866
v -0.23114325 -0.17617212 -0.78247167
v -0.22688788 -0.16721216 -0.77851458
v -0.23116429 -0.16392480 -0.76895351
v -0.23113410 -0.19098400 -0.78280105
v -0.22178620 -0.16879957 -0.77657949
v -0.22252273 -0.17627642 -0.77851915
v -0.21971113 -0.17624897 -0.76910813
v -0.22253828 -0.16722771 -0.76903860
v -0.22230863 -0.19096845 -0.77876436
v -0.21979165 -0.19098126 -0.76917950
v -0.26275334 -0.20840894 -0.78313592
v -0.26277164 -0.22191613 -0.78236097
v -0.24532199 -0.20842175 -0.78313775
v -0.24534395 -0.22206617 -0.78274798
v -0.26279085 -0.23174710 -0.76873941
v -0.26280091 -0.22995932 -0.77871038
v -0.24535951 -0.23145981 -0.76872386
v -0.24535768 -0.22967660 -0.77830414
v -0.23096209 -0.20840894 -0.78279190
v -0.23112861 -0.22198109 -0.78259428
v -0.22246234 -0.20838424 -0.77875887
v -0.21977518 -0.20838973 -0.76914930
v -0.22279172 -0.22182372 -0.77931149
v -0.21996182 -0.22172490 -0.77033415
v -0.23137930 -0.23151196 -0.77031127
v -0.23141041 -0.22955583 -0.77927581
v -0.22422817 -0.22861254 -0.78038837
v -0.22266271 -0.22950368 -0.77439554
v -0.26256120 -0.16379305 -0.75763668
v -0.26406901 -0.15965205 -0.74669863
v -0.24439242 -0.16364666 -0.75731919
v -0.24554158 -0.16032178 -0.74640036
v -0.22604248 -0.16544084 -0.75571348
v -0.22409550 -0.16376468 -0.74482393
v -0.21002746 -0.18178616 -0.75441245
v -0.21330384 -0.17150961 -0.75429350
v -0.20975115 -0.19669411 -0.75447924
v -0.26027935 -0.24202548 -0.75444630
v -0.25966177 -0.25634696 -0.74348355
v -0.24371537 -0.24262843 -0.75446002
v -0.24242531 -0.25855561 -0.74349361
v -0.20963404 -0.21430295 -0.75445179
v -0.21147214 -0.22966197 -0.75512427
v -0.22703427 -0.24179675 -0.75510597
v -0.22375332 -0.25866358 -0.74350002
v -0.21914387 -0.23424854 -0.76049219
v -0.20656260 -0.25388213 -0.74463728
f 1 3 2
f 1 4 3
f 1 5 4
f 1 6 5
f 1 7 6
f 1 2 7
f 4 8 3
f 4 9 8
f 4 10 9
f 4 5 10
f 9 11 8
f 9 12 11
f 9 13 12
f 9 10 13
f 12 14 11
f 12 15 14
f 12 16 15
f 12 13 16
f 17 19 18
f 17 20 19
f 15 18 14
f 15 17 18
f 15 20 17
f 15 16 20
f 2 22 21
f 2 3 22
f 2 23 7
f 2 21 23
f 3 24 22
f 3 8 24
f 21 25 23
f 8 26 24
f 8 11 26
f 11 27 26
f 11 14 27
f 18 29 28
f 18 19 29
f 14 28 27
f 14 18 28
f 28 29 30
f 6 31 5
f 6 32 31
f 6 33 32
f 6 7 33
f 5 34 10
f 5 31 34
f 32 35 31
f 32 36 35
f 32 37 36
f 32 33 37
f 31 38 34
f 31 35 38
f 36 39 35
f 36 40 39
f 36 41 40
f 36 37 41
f 35 42 38
f 35 39 42
f 43 45 44
f 43 46 45
f 40 44 39
f 40 43 44
f 40 46 43
f 40 41 46
f 44 48 47
f 44 45 48
f 39 47 42
f 39 44 47
f 10 49 13
f 10 34 49
f 13 50 16
f 13 49 50
f 34 51 49
f 34 38 51
f 49 52 50
f 49 51 52
f 20 53 19
f 20 54 53
f 16 54 20
f 16 50 54
f 54 55 53
f 54 56 55
f 50 56 54
f 50 52 56
f 38 57 51
f 38 42 57
f 51 58 52
f 51 57 58
f 47 60 59
f 47 48 60
f 42 59 57
f 42 47 59
f 59 62 61
f 59 60 62
f 57 61 58
f 57 59 61
f 56 63 55
f 56 64 63
f 52 64 56
f 52 58 64
f 61 66 65
f 61 62 66
f 64 66 63
f 64 65 66
f 58 65 64
f 58 61 65
f 7 67 33
f 7 23 67
f 23 68 67
f 23 25 68
f 33 69 37
f 33 67 69
f 67 70 69
f 67 68 70
f 37 71 41
f 37 69 71
f 69 72 71
f 69 70 72
f 46 73 45
f 46 74 73
f 41 74 46
f 41 71 74
f 45 75 48
f 45 73 75
f 19 76 29
f 19 53 76
f 29 77 30
f 29 76 77
f 53 78 76
f 53 55 78
f 76 79 77
f 76 78 79
f 48 80 60
f 48 75 80
f 60 81 62
f 60 80 81
f 55 82 78
f 55 63 82
f 78 83 79
f 78 82 83
f 62 84 66
f 62 81 84
f 63 84 82
f 63 66 84
f 81 85 84
f 82 85 83
f 82 84 85

