# https://github.com/mikedh/trimesh

o 3.obj
v 0.20662939 -0.15284493 -0.73804792
v 0.20305291 -0.16676018 -0.73797106
v 0.22014024 -0.15003242 -0.73979910
v 0.21382444 -0.16009579 -0.74240026
v 0.20288456 -0.18418420 -0.73790244
v 0.20518288 -0.20370343 -0.73790427
v 0.21110251 -0.17199361 -0.74328043
v 0.21078503 -0.18908277 -0.74320632
v 0.21117570 -0.22552005 -0.73797289
v 0.21383267 -0.20860748 -0.74324383
v 0.22349256 -0.23351750 -0.74153839
v 0.22373044 -0.16595504 -0.77512566
v 0.22241660 -0.16343531 -0.76368257
v 0.21954553 -0.17439257 -0.76792604
v 0.22231870 -0.17976232 -0.77657400
v 0.23105450 -0.17436055 -0.77947984
v 0.23535469 -0.16343622 -0.77662707
v 0.23113227 -0.15844434 -0.76780069
v 0.21928660 -0.19094649 -0.76790499
v 0.22220707 -0.19677097 -0.77661609
v 0.23094745 -0.19092179 -0.77966465
v 0.24537232 -0.17433676 -0.77969302
v 0.25120411 -0.16339230 -0.77667190
v 0.24538970 -0.15829795 -0.76784186
v 0.24536866 -0.19092728 -0.77999952
v 0.26278444 -0.17433127 -0.77968936
v 0.26862448 -0.16338682 -0.77666458
v 0.26287045 -0.15829886 -0.76782631
v 0.26277896 -0.19092270 -0.77999586
v 0.27661277 -0.17433767 -0.77936364
v 0.28071626 -0.16358536 -0.77644225
v 0.27666126 -0.15847270 -0.76790591
v 0.27660271 -0.19093551 -0.77966099
v 0.21940097 -0.20781698 -0.76794617
v 0.22231229 -0.21423433 -0.77641023
v 0.23092732 -0.20842266 -0.77945056
v 0.22367189 -0.22174595 -0.77500855
v 0.22229765 -0.21977426 -0.76785193
v 0.23096026 -0.22630232 -0.76776501
v 0.23098862 -0.22030492 -0.77654381
v 0.24537049 -0.20841077 -0.77978542
v 0.24535493 -0.22630049 -0.76800106
v 0.24537232 -0.22044857 -0.77671765
v 0.26283843 -0.20851507 -0.77969576
v 0.26287502 -0.22629683 -0.76800015
v 0.26286404 -0.22036257 -0.77679084
v 0.27676008 -0.20837051 -0.77951552
v 0.27656703 -0.22618064 -0.76791231
v 0.27662833 -0.22010547 -0.77669843
v 0.21828475 -0.16304554 -0.75044895
v 0.21607793 -0.17437610 -0.75413980
v 0.23041862 -0.15863190 -0.75777758
v 0.21577325 -0.19097302 -0.75408947
v 0.22733620 -0.15552295 -0.74500325
v 0.24541349 -0.15827782 -0.75767236
v 0.24285624 -0.15590173 -0.74667393
v 0.23794670 -0.15084580 -0.74155486
v 0.25647505 -0.15096291 -0.74149905
v 0.26312297 -0.15816071 -0.75760923
v 0.26151269 -0.15615517 -0.74662086
v 0.27944724 -0.15914243 -0.75593032
v 0.28004012 -0.15760351 -0.74485229
v 0.27508392 -0.15192451 -0.74148441
v 0.29229202 -0.15198306 -0.73971035
v 0.21755555 -0.20882615 -0.75422854
v 0.22210552 -0.22137174 -0.75409039
v 0.23088615 -0.22598301 -0.75410777
v 0.23424213 -0.23477828 -0.74286688
v 0.24569254 -0.22660517 -0.75527980
v 0.24817385 -0.23347542 -0.74423288
v 0.26318061 -0.22675888 -0.75522948
v 0.26585039 -0.23401065 -0.74307640
v 0.27848107 -0.22700042 -0.75419744
v 0.28296791 -0.23413234 -0.74434450
v 0.28551692 -0.16603921 -0.77498385
v 0.28485268 -0.17443374 -0.77642761
v 0.28717204 -0.17444381 -0.76800289
v 0.28490757 -0.16357072 -0.76796812
v 0.28505396 -0.19093459 -0.77663073
v 0.28707872 -0.19096662 -0.76802942
v 0.28463492 -0.20827261 -0.77666092
v 0.28682985 -0.20836502 -0.76797270
v 0.28358458 -0.21719232 -0.77724191
v 0.28487647 -0.22012102 -0.77215212
v 0.29314839 -0.17580706 -0.75431546
v 0.29051887 -0.16494220 -0.75421208
v 0.29320238 -0.19238934 -0.75434108
v 0.30152280 -0.17585646 -0.74288792
v 0.29816773 -0.16106837 -0.74291354
v 0.30186956 -0.19239392 -0.74293550
v 0.29176410 -0.20977036 -0.75428801
v 0.28659105 -0.22099936 -0.75972547
v 0.30062982 -0.20987375 -0.74293733
v 0.29580903 -0.22725660 -0.74358968
f 1 4 2
f 1 3 4
f 2 7 5
f 2 4 7
f 5 8 6
f 5 7 8
f 6 10 9
f 6 8 10
f 9 10 11
f 12 14 13
f 12 15 14
f 12 16 15
f 12 17 16
f 12 18 17
f 12 13 18
f 15 19 14
f 15 20 19
f 15 21 20
f 15 16 21
f 17 22 16
f 17 23 22
f 17 24 23
f 17 18 24
f 16 25 21
f 16 22 25
f 23 26 22
f 23 27 26
f 23 28 27
f 23 24 28
f 22 29 25
f 22 26 29
f 27 30 26
f 27 31 30
f 27 32 31
f 27 28 32
f 26 33 29
f 26 30 33
f 20 34 19
f 20 35 34
f 20 36 35
f 20 21 36
f 37 39 38
f 37 40 39
f 35 38 34
f 35 37 38
f 35 40 37
f 35 36 40
f 21 41 36
f 21 25 41
f 40 42 39
f 40 43 42
f 36 43 40
f 36 41 43
f 25 44 41
f 25 29 44
f 43 45 42
f 43 46 45
f 41 46 43
f 41 44 46
f 29 47 44
f 29 33 47
f 46 48 45
f 46 49 48
f 44 49 46
f 44 47 49
f 13 51 50
f 13 14 51
f 13 52 18
f 13 50 52
f 14 53 51
f 14 19 53
f 50 7 4
f 50 51 7
f 50 54 52
f 50 4 54
f 51 8 7
f 51 53 8
f 18 55 24
f 18 52 55
f 52 56 55
f 52 54 56
f 3 54 4
f 3 57 54
f 57 56 54
f 57 58 56
f 24 59 28
f 24 55 59
f 55 60 59
f 55 56 60
f 28 61 32
f 28 59 61
f 59 62 61
f 59 60 62
f 58 60 56
f 58 63 60
f 63 62 60
f 63 64 62
f 19 65 53
f 19 34 65
f 38 67 66
f 38 39 67
f 34 66 65
f 34 38 66
f 53 10 8
f 53 65 10
f 66 68 11
f 66 67 68
f 65 11 10
f 65 66 11
f 39 69 67
f 39 42 69
f 67 70 68
f 67 69 70
f 42 71 69
f 42 45 71
f 69 72 70
f 69 71 72
f 45 73 71
f 45 48 73
f 71 74 72
f 71 73 74
f 75 77 76
f 75 78 77
f 31 76 30
f 31 75 76
f 31 78 75
f 31 32 78
f 76 80 79
f 76 77 80
f 30 79 33
f 30 76 79
f 79 82 81
f 79 80 82
f 33 81 47
f 33 79 81
f 81 84 83
f 81 82 84
f 49 84 48
f 49 83 84
f 47 83 49
f 47 81 83
f 78 85 77
f 78 86 85
f 32 86 78
f 32 61 86
f 77 87 80
f 77 85 87
f 86 88 85
f 86 89 88
f 61 89 86
f 61 62 89
f 85 90 87
f 85 88 90
f 64 89 62
f 80 91 82
f 80 87 91
f 82 92 84
f 82 91 92
f 48 92 73
f 48 84 92
f 87 93 91
f 87 90 93
f 91 94 92
f 91 93 94
f 73 94 74
f 73 92 94

