# https://github.com/mikedh/trimesh

o 5.obj
v -0.28383985 0.32103470 -0.79389006
v -0.28505945 0.32227627 -0.78143688
v -0.28757827 0.31376097 -0.78610763
v -0.28517931 0.30957422 -0.79575196
v -0.27681040 0.31375456 -0.79943366
v -0.27268404 0.32227352 -0.79578215
v -0.27670427 0.32491677 -0.78611952
v -0.28778870 0.29967371 -0.78612227
v -0.28522140 0.29384740 -0.79579221
v -0.27685066 0.29965633 -0.79964226
v -0.28494509 0.32233482 -0.76556093
v -0.28754808 0.31387167 -0.77122712
v -0.27663565 0.32506682 -0.77120059
v -0.28788203 0.29967280 -0.77120699
v -0.29124716 0.32814192 -0.74874534
v -0.29341830 0.31524133 -0.75442434
v -0.27800347 0.33033044 -0.75421482
v -0.29362508 0.30098664 -0.75436944
v -0.30159965 0.32283072 -0.74300595
v -0.28576853 0.33561511 -0.74282479
v -0.30223644 0.30683125 -0.74291537
v -0.28778322 0.28227714 -0.78612775
v -0.28521225 0.27644443 -0.79579770
v -0.27684791 0.28224877 -0.79963952
v -0.28762493 0.26842776 -0.78615154
v -0.28507409 0.26443041 -0.79565589
v -0.27685432 0.26839849 -0.79947849
v -0.28790216 0.28224603 -0.77113197
v -0.28777407 0.26847717 -0.77113197
v -0.28387004 0.25961785 -0.79386811
v -0.28505396 0.26009179 -0.78606462
v -0.27678387 0.25786850 -0.78617716
v -0.27676831 0.26006983 -0.79564491
v -0.28520767 0.26023818 -0.77126646
v -0.27683510 0.25782458 -0.77131862
v -0.29303037 0.28296608 -0.75429167
v -0.28983450 0.26471587 -0.75437036
v -0.30167925 0.28888297 -0.74292086
v -0.29896006 0.26905815 -0.74289433
v -0.28206853 0.25118124 -0.75435663
v -0.28249123 0.23821935 -0.74172962
v -0.31023755 0.27710684 -0.73103494
v -0.30708103 0.25692429 -0.73108984
v -0.26278902 0.31387167 -0.79965232
v -0.25696271 0.32239429 -0.79582515
v -0.26277072 0.32511897 -0.78615337
v -0.26277713 0.29965541 -0.80000000
v -0.26275059 0.32523059 -0.77119876
v -0.24536957 0.31387167 -0.79964958
v -0.23956156 0.32238606 -0.79582973
v -0.24538512 0.32511531 -0.78615612
v -0.24535859 0.29965358 -0.79999817
v -0.24533938 0.32524615 -0.77113654
v -0.23136923 0.31387625 -0.79932752
v -0.22723373 0.32225705 -0.79558910
v -0.23140034 0.32495611 -0.78616618
v -0.23136649 0.29965084 -0.79966147
v -0.23141773 0.32511348 -0.77114569
v -0.22228759 0.32095236 -0.79376838
v -0.22296647 0.31377835 -0.79559184
v -0.22029578 0.31380580 -0.78610031
v -0.22291249 0.32222137 -0.78608750
v -0.22275238 0.29967097 -0.79583705
v -0.22021801 0.29965999 -0.78617442
v -0.22047876 0.31384972 -0.77130672
v -0.22303784 0.32238331 -0.77127470
v -0.22028663 0.29963254 -0.77129940
v -0.26407816 0.33051709 -0.75413980
v -0.26992643 0.33605702 -0.74260063
v -0.24608231 0.33015752 -0.75415260
v -0.25199736 0.33564987 -0.74268389
v -0.22774884 0.32706138 -0.75433742
v -0.23217804 0.33302401 -0.74271866
v -0.21035226 0.30795570 -0.75442617
v -0.21413094 0.31920209 -0.75434291
v -0.20973925 0.29362599 -0.75447375
v -0.20420298 0.32519125 -0.74171406
v -0.26277164 0.28225426 -0.79999726
v -0.26276889 0.26842136 -0.79982342
v -0.24534304 0.28224328 -0.79999817
v -0.24533663 0.26840489 -0.79981793
v -0.26281189 0.25771570 -0.78631349
v -0.26279725 0.26011283 -0.79598344
v -0.26280000 0.25733875 -0.77130581
v -0.24539793 0.25756566 -0.78631440
v -0.24536774 0.26010734 -0.79597429
v -0.24538604 0.25748331 -0.77130215
v -0.23118716 0.28223413 -0.79964775
v -0.23125944 0.26847809 -0.79956724
v -0.22289694 0.28224694 -0.79582698
v -0.22021618 0.28225792 -0.78617076
v -0.22304607 0.26848083 -0.79585534
v -0.22053640 0.26840855 -0.78616801
v -0.22028022 0.28224969 -0.77128751
v -0.22059130 0.26843691 -0.77127104
v -0.23155131 0.25786667 -0.78633270
v -0.23144151 0.26032876 -0.79593037
v -0.23158241 0.25762147 -0.77126280
v -0.22438005 0.26150262 -0.79673185
v -0.22306071 0.26032784 -0.79090372
v -0.22312110 0.26014211 -0.77697200
v -0.25658942 0.24691307 -0.75449205
v -0.23866218 0.24647573 -0.75448564
v -0.20944465 0.27571065 -0.75445636
v -0.20935224 0.25924639 -0.75444996
v -0.22238274 0.24632659 -0.75446460
v -0.21758116 0.25446220 -0.75996244
f 1 3 2
f 1 4 3
f 1 5 4
f 1 6 5
f 1 7 6
f 1 2 7
f 4 8 3
f 4 9 8
f 4 10 9
f 4 5 10
f 2 12 11
f 2 3 12
f 2 13 7
f 2 11 13
f 3 14 12
f 3 8 14
f 11 16 15
f 11 12 16
f 11 17 13
f 11 15 17
f 12 18 16
f 12 14 18
f 15 16 19
f 15 20 17
f 16 21 19
f 16 18 21
f 9 22 8
f 9 23 22
f 9 24 23
f 9 10 24
f 23 25 22
f 23 26 25
f 23 27 26
f 23 24 27
f 8 28 14
f 8 22 28
f 22 29 28
f 22 25 29
f 30 32 31
f 30 33 32
f 26 31 25
f 26 30 31
f 26 33 30
f 26 27 33
f 31 32 35
f 25 34 29
f 25 31 34
f 14 36 18
f 14 28 36
f 28 37 36
f 28 29 37
f 18 38 21
f 18 36 38
f 36 39 38
f 36 37 39
f 29 40 37
f 29 34 40
f 37 41 39
f 37 40 41
f 42 39 43
f 42 38 39
f 43 39 41
f 6 44 5
f 6 45 44
f 6 46 45
f 6 7 46
f 5 47 10
f 5 44 47
f 7 48 46
f 7 13 48
f 45 49 44
f 45 50 49
f 45 51 50
f 45 46 51
f 44 52 47
f 44 49 52
f 46 53 51
f 46 48 53
f 50 54 49
f 50 55 54
f 50 56 55
f 50 51 56
f 49 57 52
f 49 54 57
f 51 58 56
f 51 53 58
f 59 61 60
f 59 62 61
f 55 60 54
f 55 59 60
f 55 62 59
f 55 56 62
f 60 64 63
f 60 61 64
f 54 63 57
f 54 60 63
f 62 65 61
f 62 66 65
f 56 66 62
f 56 58 66
f 61 67 64
f 61 65 67
f 13 68 48
f 13 17 68
f 17 69 68
f 17 20 69
f 48 70 53
f 48 68 70
f 68 71 70
f 68 69 71
f 53 72 58
f 53 70 72
f 70 73 72
f 70 71 73
f 66 74 65
f 66 75 74
f 58 75 66
f 58 72 75
f 65 76 67
f 65 74 76
f 72 77 75
f 72 73 77
f 10 78 24
f 10 47 78
f 24 79 27
f 24 78 79
f 47 80 78
f 47 52 80
f 78 81 79
f 78 80 81
f 33 82 32
f 33 83 82
f 27 83 33
f 27 79 83
f 32 84 35
f 32 82 84
f 83 85 82
f 83 86 85
f 79 86 83
f 79 81 86
f 82 87 84
f 82 85 87
f 52 88 80
f 52 57 88
f 80 89 81
f 80 88 89
f 63 91 90
f 63 64 91
f 57 90 88
f 57 63 90
f 90 93 92
f 90 91 93
f 88 92 89
f 88 90 92
f 64 94 91
f 64 67 94
f 91 95 93
f 91 94 95
f 86 96 85
f 86 97 96
f 81 97 86
f 81 89 97
f 85 98 87
f 85 96 98
f 92 100 99
f 92 93 100
f 97 100 96
f 97 99 100
f 89 99 97
f 89 92 99
f 93 101 100
f 93 95 101
f 96 101 98
f 96 100 101
f 35 84 102
f 84 103 102
f 84 87 103
f 67 104 94
f 67 76 104
f 94 105 95
f 94 104 105
f 87 106 103
f 87 98 106
f 95 107 101
f 95 105 107
f 98 107 106
f 98 101 107

