# https://github.com/mikedh/trimesh

o 3.obj
v 0.01381240 0.17392455 0.10820263
v 0.02066808 0.17392455 0.10719549
v 0.02066808 0.17392455 0.10820263
v 0.01780679 0.17392455 0.10719549
v 0.02066808 0.17500000 0.10820263
v 0.01667369 0.17392455 0.10719549
v 0.01780679 0.17500000 0.10719549
v 0.02066808 0.17500000 0.10719549
v 0.01381240 0.17500000 0.10820263
v 0.01381240 0.17392455 0.10719549
v 0.01780679 0.17392455 0.09968176
v 0.01381240 0.17500000 0.10719549
v 0.01667369 0.17392455 0.09968176
v 0.01780679 0.17500000 0.09968176
v 0.01667369 0.17500000 0.10719549
v 0.01667369 0.17500000 0.09968176
v -0.02301294 0.17392455 0.10820263
v -0.02128477 0.17392455 0.09968176
v -0.02014007 0.17392455 0.09968176
v -0.02205720 0.17392455 0.10206235
v -0.02128477 0.17500000 0.09968176
v -0.02301294 0.17500000 0.10820263
v -0.02237212 0.17392455 0.10302938
v -0.02014007 0.17500000 0.09968176
v -0.02440927 0.17392455 0.10820263
v -0.02368259 0.17392455 0.10704664
v -0.02531363 0.17392455 0.10206235
v -0.02205720 0.17500000 0.10206235
v -0.02440927 0.17500000 0.10820263
v -0.02237212 0.17500000 0.10302938
v -0.02499870 0.17392455 0.10302938
v -0.02531363 0.17500000 0.10206235
v -0.02368259 0.17500000 0.10704664
v -0.02728215 0.17500000 0.09968176
v -0.02728215 0.17392455 0.09968176
v -0.02608606 0.17392455 0.09968176
v -0.02499870 0.17500000 0.10302938
v -0.02608606 0.17500000 0.09968176
v -0.01415428 0.17392455 0.10820263
v -0.01528739 0.17392455 0.10723560
v -0.01415428 0.17392455 0.09968176
v -0.01641485 0.17392455 0.10820263
v -0.01528739 0.17392455 0.10064879
v -0.01415428 0.17500000 0.10820263
v -0.01637474 0.17392455 0.10723560
v -0.01659785 0.17392455 0.09968176
v -0.01528739 0.17392455 0.10474032
v -0.01415428 0.17500000 0.09968176
v -0.01641485 0.17500000 0.10820263
v -0.01730761 0.17392455 0.10720113
v -0.01637474 0.17500000 0.10723560
v -0.01620866 0.17392455 0.10064879
v -0.01659785 0.17500000 0.09968176
v -0.01528739 0.17500000 0.10474032
v -0.01528739 0.17392455 0.10379617
v -0.01528739 0.17500000 0.10064879
v -0.01528739 0.17500000 0.10723560
v -0.01777953 0.17392455 0.10814246
v -0.01730761 0.17500000 0.10720113
v -0.01738188 0.17392455 0.10071741
v -0.01738752 0.17500000 0.09972093
v -0.01657498 0.17392455 0.10474032
v -0.01777953 0.17500000 0.10814246
v -0.01791992 0.17392455 0.10701249
v -0.01791992 0.17500000 0.10701249
v -0.01620866 0.17500000 0.10064879
v -0.01738752 0.17392455 0.09972093
v -0.01738188 0.17500000 0.10071741
v -0.01528739 0.17500000 0.10379617
v -0.01657498 0.17500000 0.10474032
v -0.01657498 0.17392455 0.10379617
v -0.01822513 0.17392455 0.10804187
v -0.01778517 0.17392455 0.10082458
v -0.01801706 0.17500000 0.09983907
v -0.01778517 0.17500000 0.10082458
v -0.01657498 0.17500000 0.10379617
v -0.01735900 0.17392455 0.10479484
v -0.01822513 0.17500000 0.10804187
v -0.01811733 0.17392455 0.10685706
v -0.01811733 0.17500000 0.10685706
v -0.01801706 0.17392455 0.09983907
v -0.01747620 0.17500000 0.10375606
v -0.01735900 0.17500000 0.10479484
v -0.01747620 0.17392455 0.10375606
v -0.01865224 0.17392455 0.10785950
v -0.01825176 0.17392455 0.10665463
v -0.01813739 0.17392455 0.10100915
v -0.01854946 0.17500000 0.10005153
v -0.01813739 0.17500000 0.10100915
v -0.01787981 0.17392455 0.10502078
v -0.01865224 0.17500000 0.10785950
v -0.01825176 0.17500000 0.10665463
v -0.01854946 0.17392455 0.10005153
v -0.01787981 0.17500000 0.10502078
v -0.01806281 0.17392455 0.10357306
v -0.01806281 0.17500000 0.10357306
v -0.01904864 0.17392455 0.10757528
v -0.01835486 0.17392455 0.10611973
v -0.01841471 0.17392455 0.10124762
v -0.01904707 0.17500000 0.10037397
v -0.01841471 0.17500000 0.10124762
v -0.01810010 0.17392455 0.10521255
v -0.01835486 0.17500000 0.10611973
v -0.01904864 0.17500000 0.10757528
v -0.01883743 0.17392455 0.10478043
v -0.01860649 0.17392455 0.10151585
v -0.01904707 0.17392455 0.10037397
v -0.01860649 0.17500000 0.10151585
v -0.01810010 0.17500000 0.10521255
v -0.01841064 0.17392455 0.10333208
v -0.01841064 0.17500000 0.10333208
v -0.01883743 0.17500000 0.10478043
v -0.01932189 0.17500000 0.10721554
v -0.01921597 0.17392455 0.10520409
v -0.01833762 0.17392455 0.10446018
v -0.01941213 0.17500000 0.10073183
v -0.01871804 0.17500000 0.10184112
v -0.01824612 0.17500000 0.10545572
v -0.01824612 0.17392455 0.10545572
v -0.01833762 0.17500000 0.10446018
v -0.01921597 0.17500000 0.10520409
v -0.01932189 0.17392455 0.10721554
v -0.01871804 0.17392455 0.10184112
v -0.01941213 0.17392455 0.10073183
v -0.01951648 0.17500000 0.10366174
v -0.01875533 0.17500000 0.10225099
v -0.01833762 0.17392455 0.10441443
v -0.01861808 0.17392455 0.10304379
v -0.01948076 0.17500000 0.10678279
v -0.01945412 0.17500000 0.10571048
v -0.01945412 0.17392455 0.10571048
v -0.01875533 0.17392455 0.10225099
v -0.01951648 0.17392455 0.10366174
v -0.01969384 0.17392455 0.10117523
v -0.01901291 0.17500000 0.10412300
v -0.01969384 0.17500000 0.10117523
v -0.01833762 0.17500000 0.10441443
v -0.01901291 0.17392455 0.10412300
v -0.01861808 0.17500000 0.10304379
v -0.01948076 0.17392455 0.10678279
v -0.01982984 0.17500000 0.10304724
v -0.01872086 0.17500000 0.10268970
v -0.01872086 0.17392455 0.10268970
v -0.01953372 0.17500000 0.10627985
v -0.01953372 0.17392455 0.10627985
v -0.01982984 0.17392455 0.10304724
v -0.01987403 0.17392455 0.10169885
v -0.01987403 0.17500000 0.10169885
v -0.01993419 0.17500000 0.10229674
v -0.01993419 0.17392455 0.10229674
v -0.01275795 0.17392455 0.10820263
v -0.00945013 0.17392455 0.10733274
v -0.00945013 0.17392455 0.10820263
v -0.01053749 0.17392455 0.10733274
v -0.00945013 0.17500000 0.10820263
v -0.01167059 0.17392455 0.10733274
v -0.01053749 0.17500000 0.10733274
v -0.00945013 0.17500000 0.10733274
v -0.01275795 0.17500000 0.10820263
v -0.01275795 0.17392455 0.10733274
v -0.01053749 0.17392455 0.10055133
v -0.01275795 0.17500000 0.10733274
v -0.01167059 0.17392455 0.10055133
v -0.01053749 0.17500000 0.10055133
v -0.01167059 0.17500000 0.10733274
v -0.01275795 0.17392455 0.09968176
v -0.01167059 0.17500000 0.10055133
v -0.00945013 0.17500000 0.10055133
v -0.00945013 0.17392455 0.09968176
v -0.01275795 0.17392455 0.10055133
v -0.00945013 0.17392455 0.10055133
v -0.01275795 0.17500000 0.09968176
v -0.01275795 0.17500000 0.10055133
v -0.00945013 0.17500000 0.09968176
v -0.01618547 0.15109884 -0.09922896
v -0.02304146 0.15109884 -0.10023609
v -0.02304146 0.15109884 -0.09922896
v -0.02018018 0.15109884 -0.10023609
v -0.02304146 0.15002339 -0.09922896
v -0.01904707 0.15109884 -0.10023609
v -0.02018018 0.15002339 -0.10023609
v -0.02304146 0.15002339 -0.10023609
v -0.01618547 0.15002339 -0.09922896
v -0.01618547 0.15109884 -0.10023609
v -0.02018018 0.15109884 -0.10775013
v -0.01618547 0.15002339 -0.10023609
v -0.01904707 0.15109884 -0.10775013
v -0.02018018 0.15002339 -0.10775013
v -0.01904707 0.15002339 -0.10023609
v -0.01904707 0.15002339 -0.10775013
v -0.01478915 0.15109884 -0.10020758
v -0.01458954 0.15109884 -0.10270536
v -0.01463466 0.15109884 -0.10349221
v -0.01424641 0.15109884 -0.09970902
v -0.01463466 0.15002339 -0.10349221
v -0.01479510 0.15109884 -0.10676556
v -0.01478915 0.15002339 -0.10020758
v -0.01445448 0.15109884 -0.10200438
v -0.01458954 0.15002339 -0.10270536
v -0.01459079 0.15002339 -0.10428156
v -0.01522503 0.15109884 -0.10084840
v -0.01459079 0.15109884 -0.10428156
v -0.01424641 0.15002339 -0.09970902
v -0.01423481 0.15109884 -0.10140210
v -0.01479510 0.15002339 -0.10676556
v -0.01523004 0.15109884 -0.10613320
v -0.01424860 0.15109884 -0.10727226
v -0.01360183 0.15109884 -0.09934615
v -0.01522503 0.15002339 -0.10084840
v -0.01445448 0.15002339 -0.10200438
v -0.01445886 0.15002339 -0.10497221
v -0.01424860 0.15002339 -0.10727226
v -0.01554747 0.15109884 -0.10160391
v -0.01523004 0.15002339 -0.10613320
v -0.01445886 0.15109884 -0.10497221
v -0.01360183 0.15002339 -0.09934615
v -0.01393649 0.15109884 -0.10091138
v -0.01423481 0.15002339 -0.10140210
v -0.01555029 0.15109884 -0.10536923
v -0.01555029 0.15002339 -0.10536923
v -0.01423889 0.15109884 -0.10556477
v -0.01360465 0.15002339 -0.10763545
v -0.01286575 0.15109884 -0.09912524
v -0.01554747 0.15002339 -0.10160391
v -0.01355545 0.15109884 -0.10051874
v -0.01423889 0.15002339 -0.10556477
v -0.01574708 0.15109884 -0.10248225
v -0.01360465 0.15109884 -0.10763545
v -0.01393649 0.15002339 -0.10091138
v -0.01286575 0.15002339 -0.09912524
v -0.01574771 0.15109884 -0.10448524
v -0.01574771 0.15002339 -0.10448524
v -0.01574708 0.15002339 -0.10248225
v -0.01393085 0.15002339 -0.10605893
v -0.01393085 0.15109884 -0.10605893
v -0.01286919 0.15002339 -0.10785448
v -0.01355545 0.15002339 -0.10051874
v -0.01204819 0.15109884 -0.09905160
v -0.01312113 0.15109884 -0.10024455
v -0.01581352 0.15109884 -0.10349221
v -0.01354887 0.15109884 -0.10644813
v -0.01286919 0.15109884 -0.10785448
v -0.01354887 0.15002339 -0.10644813
v -0.01312113 0.15002339 -0.10024455
v -0.01204819 0.15002339 -0.09905160
v -0.01262101 0.15109884 -0.10008380
v -0.01581352 0.15002339 -0.10349221
v -0.01204819 0.15002339 -0.10792750
v -0.01310672 0.15002339 -0.10672639
v -0.01262101 0.15002339 -0.10008380
v -0.01122124 0.15109884 -0.09912743
v -0.01204224 0.15109884 -0.10003022
v -0.01310672 0.15109884 -0.10672639
v -0.01204819 0.15109884 -0.10792750
v -0.01260472 0.15002339 -0.10689310
v -0.01204224 0.15002339 -0.10003022
v -0.01122124 0.15002339 -0.09912743
v -0.01260472 0.15109884 -0.10689310
v -0.01124756 0.15002339 -0.10785668
v -0.01204224 0.15002339 -0.10694887
v -0.01048014 0.15109884 -0.09935493
v -0.01147662 0.15109884 -0.10008505
v -0.01147662 0.15002339 -0.10008505
v -0.01204224 0.15109884 -0.10694887
v -0.01124756 0.15109884 -0.10785668
v -0.01048014 0.15002339 -0.09935493
v -0.01096930 0.15109884 -0.10025051
v -0.01051743 0.15002339 -0.10764422
v -0.01148039 0.15002339 -0.10689310
v -0.01148039 0.15109884 -0.10689310
v -0.01096930 0.15002339 -0.10025051
v -0.00983619 0.15109884 -0.09971968
v -0.01052652 0.15109884 -0.10052595
v -0.01051743 0.15109884 -0.10764422
v -0.01097870 0.15002339 -0.10672639
v -0.01052652 0.15002339 -0.10052595
v -0.00983619 0.15002339 -0.09971968
v -0.01015394 0.15109884 -0.10091138
v -0.01097870 0.15109884 -0.10672639
v -0.00986564 0.15002339 -0.10728292
v -0.01053749 0.15002339 -0.10644813
v -0.01015394 0.15002339 -0.10091138
v -0.00930129 0.15109884 -0.10020758
v -0.00985906 0.15109884 -0.10139646
v -0.01053749 0.15109884 -0.10644813
v -0.00986564 0.15109884 -0.10728292
v -0.01015676 0.15002339 -0.10605893
v -0.00985906 0.15002339 -0.10139646
v -0.00930129 0.15002339 -0.10020758
v -0.00963877 0.15109884 -0.10199310
v -0.01015676 0.15109884 -0.10605893
v -0.00930129 0.15002339 -0.10676556
v -0.00984998 0.15002339 -0.10556477
v -0.00963877 0.15002339 -0.10199310
v -0.00886916 0.15002339 -0.10083555
v -0.00950152 0.15109884 -0.10269408
v -0.00984998 0.15109884 -0.10556477
v -0.00930129 0.15109884 -0.10676556
v -0.00950152 0.15002339 -0.10269408
v -0.00886916 0.15109884 -0.10083555
v -0.00886196 0.15002339 -0.10613195
v -0.00945577 0.15109884 -0.10349221
v -0.00886196 0.15109884 -0.10613195
v -0.00963094 0.15002339 -0.10497221
v -0.00945577 0.15002339 -0.10349221
v -0.00854578 0.15002339 -0.10159827
v -0.00963094 0.15109884 -0.10497221
v -0.00949964 0.15002339 -0.10428156
v -0.00854578 0.15109884 -0.10159827
v -0.00854014 0.15002339 -0.10536359
v -0.00949964 0.15109884 -0.10428156
v -0.00854014 0.15109884 -0.10536359
v -0.00834397 0.15002339 -0.10248664
v -0.00834397 0.15109884 -0.10248664
v -0.00834272 0.15109884 -0.10447804
v -0.00834272 0.15002339 -0.10447804
v -0.00827691 0.15002339 -0.10349221
v -0.00827691 0.15109884 -0.10349221
v 0.00568073 0.15109884 -0.09922896
v 0.00454763 0.15109884 -0.10257093
v 0.00454763 0.15109884 -0.09922896
v 0.00454763 0.15109884 -0.10357807
v 0.00454763 0.15002339 -0.09922896
v 0.00454763 0.15109884 -0.10775013
v 0.00062750 0.15109884 -0.10357807
v 0.00454763 0.15002339 -0.10257093
v 0.00568073 0.15002339 -0.09922896
v 0.00568073 0.15109884 -0.10775013
v 0.00454763 0.15002339 -0.10357807
v 0.00062750 0.15109884 -0.10257093
v 0.00062750 0.15002339 -0.10257093
v 0.00568073 0.15002339 -0.10775013
v 0.00454763 0.15002339 -0.10775013
v 0.00062750 0.15109884 -0.10775013
v 0.00062750 0.15002339 -0.10357807
v 0.00062750 0.15109884 -0.09922896
v 0.00062750 0.15002339 -0.10775013
v -0.00050561 0.15109884 -0.10775013
v 0.00062750 0.15002339 -0.09922896
v -0.00050561 0.15109884 -0.09922896
v -0.00050561 0.15002339 -0.10775013
v -0.00050561 0.15002339 -0.09922896
v -0.00734530 0.15109884 -0.10101542
v -0.00735908 0.15109884 -0.10198088
v -0.00739543 0.15109884 -0.10151241
v -0.00724972 0.15109884 -0.10239075
v -0.00739543 0.15002339 -0.10151241
v -0.00734530 0.15002339 -0.10101542
v -0.00719394 0.15109884 -0.10056011
v -0.00735908 0.15002339 -0.10198088
v -0.00719394 0.15002339 -0.10056011
v -0.00707424 0.15109884 -0.10274610
v -0.00724972 0.15002339 -0.10239075
v -0.00694169 0.15002339 -0.10014679
v -0.00694169 0.15109884 -0.10014679
v -0.00707424 0.15002339 -0.10274610
v -0.00684048 0.15109884 -0.10305163
v -0.00658853 0.15002339 -0.09977546
v -0.00684048 0.15002339 -0.10305163
v -0.00658853 0.15109884 -0.09977546
v -0.00655156 0.15109884 -0.10331077
v -0.00615735 0.15109884 -0.09946868
v -0.00655156 0.15002339 -0.10331077
v -0.00615735 0.15002339 -0.09946868
v -0.00621658 0.15109884 -0.10139208
v -0.00622253 0.15002339 -0.10351508
v -0.00567008 0.15109884 -0.09924964
v -0.00621658 0.15002339 -0.10139208
v -0.00609499 0.15109884 -0.10084902
v -0.00622253 0.15109884 -0.10351508
v -0.00567008 0.15002339 -0.09924964
v -0.00609499 0.15002339 -0.10084902
v -0.00614513 0.15109884 -0.10187998
v -0.00543255 0.15002339 -0.10380714
v -0.00614513 0.15002339 -0.10187998
v -0.00512734 0.15109884 -0.09911834
v -0.00573024 0.15109884 -0.10042223
v -0.00543255 0.15109884 -0.10380714
v -0.00573024 0.15002339 -0.10042223
v -0.00512734 0.15002339 -0.09911834
v -0.00516808 0.15109884 -0.10014522
v -0.00593048 0.15109884 -0.10225632
v -0.00593048 0.15002339 -0.10225632
v -0.00461437 0.15002339 -0.10400737
v -0.00516808 0.15002339 -0.10014522
v -0.00452851 0.15109884 -0.09907447
v -0.00445424 0.15109884 -0.10005309
v -0.00558014 0.15109884 -0.10253364
v -0.00461437 0.15109884 -0.10400737
v -0.00510070 0.15002339 -0.10272542
v -0.00558014 0.15002339 -0.10253364
v -0.00445424 0.15002339 -0.10005309
v -0.00452851 0.15002339 -0.09907447
v -0.00510070 0.15109884 -0.10272542
v -0.00389333 0.15002339 -0.10419633
v -0.00421954 0.15002339 -0.10294571
v -0.00383254 0.15109884 -0.09911019
v -0.00377175 0.15002339 -0.10012234
v -0.00421954 0.15109884 -0.10294571
v -0.00389333 0.15109884 -0.10419633
v -0.00383254 0.15002339 -0.09911019
v -0.00377175 0.15109884 -0.10012234
v -0.00341828 0.15002339 -0.10439218
v -0.00335529 0.15002339 -0.10317196
v -0.00335529 0.15109884 -0.10317196
v -0.00317511 0.15109884 -0.09921736
v -0.00312059 0.15002339 -0.10033041
v -0.00317511 0.15002339 -0.09921736
v -0.00341828 0.15109884 -0.10439218
v -0.00312059 0.15109884 -0.10033041
v -0.00309207 0.15002339 -0.10467107
v -0.00259289 0.15109884 -0.10350944
v -0.00256061 0.15109884 -0.09939065
v -0.00254275 0.15002339 -0.10063155
v -0.00256061 0.15002339 -0.09939065
v -0.00309207 0.15109884 -0.10467107
v -0.00259289 0.15002339 -0.10350944
v -0.00254275 0.15109884 -0.10063155
v -0.00290312 0.15109884 -0.10503895
v -0.00290312 0.15002339 -0.10503895
v -0.00206770 0.15109884 -0.10398450
v -0.00199343 0.15109884 -0.09962379
v -0.00207930 0.15002339 -0.10098001
v -0.00199343 0.15002339 -0.09962379
v -0.00284044 0.15002339 -0.10550084
v -0.00206770 0.15002339 -0.10398450
v -0.00243402 0.15109884 -0.10713188
v -0.00284044 0.15109884 -0.10550084
v -0.00207930 0.15109884 -0.10098001
v -0.00243402 0.15002339 -0.10713188
v -0.00176312 0.15002339 -0.10459116
v -0.00210844 0.15109884 -0.10675710
v -0.00199343 0.15002339 -0.10098001
v -0.00199343 0.15109884 -0.10098001
v -0.00296046 0.15109884 -0.10607962
v -0.00287241 0.15002339 -0.10746090
v -0.00210844 0.15002339 -0.10675710
v -0.00176312 0.15109884 -0.10459116
v -0.00186464 0.15002339 -0.10630774
v -0.00287241 0.15109884 -0.10746090
v -0.00186464 0.15109884 -0.10630774
v -0.00296046 0.15002339 -0.10607962
v -0.00166159 0.15002339 -0.10532348
v -0.00171235 0.15002339 -0.10581859
v -0.00332114 0.15109884 -0.10653399
v -0.00332114 0.15002339 -0.10653399
v -0.00336407 0.15109884 -0.10770407
v -0.00166159 0.15109884 -0.10532348
v -0.00171235 0.15109884 -0.10581859
v -0.00336407 0.15002339 -0.10770407
v -0.00359000 0.15002339 -0.10670539
v -0.00359000 0.15109884 -0.10670539
v -0.00394692 0.15109884 -0.10785448
v -0.00391621 0.15109884 -0.10682792
v -0.00391621 0.15002339 -0.10682792
v -0.00394692 0.15002339 -0.10785448
v -0.00466012 0.15109884 -0.10790462
v -0.00474034 0.15002339 -0.10692600
v -0.00466012 0.15002339 -0.10790462
v -0.00474034 0.15109884 -0.10692600
v -0.00551779 0.15109884 -0.10785668
v -0.00541124 0.15109884 -0.10685361
v -0.00541124 0.15002339 -0.10685361
v -0.00551779 0.15002339 -0.10785668
v -0.00623663 0.15109884 -0.10771284
v -0.00610784 0.15109884 -0.10663708
v -0.00610784 0.15002339 -0.10663708
v -0.00623663 0.15002339 -0.10771284
v -0.00745842 0.15109884 -0.10724061
v -0.00678031 0.15109884 -0.10628863
v -0.00678031 0.15002339 -0.10628863
v -0.00745842 0.15002339 -0.10724061
v -0.00737851 0.15109884 -0.10582141
v -0.00737851 0.15002339 -0.10582141
v -0.00745842 0.15002339 -0.10582141
v -0.00745842 0.15109884 -0.10582141
v 0.01038488 0.15109884 -0.09922896
v 0.00707706 0.15109884 -0.10009884
v 0.00707706 0.15109884 -0.09922896
v 0.00816442 0.15109884 -0.10009884
v 0.00707706 0.15002339 -0.09922896
v 0.00929752 0.15109884 -0.10009884
v 0.00816442 0.15002339 -0.10009884
v 0.00707706 0.15002339 -0.10009884
v 0.01038488 0.15002339 -0.09922896
v 0.01038488 0.15109884 -0.10009884
v 0.00816442 0.15109884 -0.10688025
v 0.01038488 0.15002339 -0.10009884
v 0.00929752 0.15109884 -0.10688025
v 0.00816442 0.15002339 -0.10688025
v 0.00929752 0.15002339 -0.10009884
v 0.01038488 0.15109884 -0.10775013
v 0.00929752 0.15002339 -0.10688025
v 0.00707706 0.15002339 -0.10688025
v 0.00707706 0.15109884 -0.10775013
v 0.01038488 0.15109884 -0.10688025
v 0.00707706 0.15109884 -0.10688025
v 0.01038488 0.15002339 -0.10775013
v 0.01038488 0.15002339 -0.10688025
v 0.00707706 0.15002339 -0.10775013
v 0.01178121 0.15109884 -0.09922896
v 0.01291432 0.15109884 -0.10019598
v 0.01178121 0.15109884 -0.10775013
v 0.01404147 0.15109884 -0.09922896
v 0.01291432 0.15109884 -0.10678279
v 0.01178121 0.15002339 -0.09922896
v 0.01400136 0.15109884 -0.10019598
v 0.01422479 0.15109884 -0.10775013
v 0.01291432 0.15109884 -0.10269126
v 0.01178121 0.15002339 -0.10775013
v 0.01404147 0.15002339 -0.09922896
v 0.01493423 0.15109884 -0.10023045
v 0.01400136 0.15002339 -0.10019598
v 0.01383559 0.15109884 -0.10678279
v 0.01422479 0.15002339 -0.10775013
v 0.01291432 0.15002339 -0.10269126
v 0.01291432 0.15109884 -0.10363541
v 0.01291432 0.15002339 -0.10678279
v 0.01291432 0.15002339 -0.10019598
v 0.01540646 0.15109884 -0.09928912
v 0.01493423 0.15002339 -0.10023045
v 0.01500881 0.15109884 -0.10671417
v 0.01501445 0.15002339 -0.10771065
v 0.01420191 0.15109884 -0.10269126
v 0.01540646 0.15002339 -0.09928912
v 0.01554653 0.15109884 -0.10041910
v 0.01554653 0.15002339 -0.10041910
v 0.01383559 0.15002339 -0.10678279
v 0.01501445 0.15109884 -0.10771065
v 0.01500881 0.15002339 -0.10671417
v 0.01291432 0.15002339 -0.10363541
v 0.01420191 0.15002339 -0.10269126
v 0.01420191 0.15109884 -0.10363541
v 0.01585206 0.15109884 -0.09939002
v 0.01541210 0.15109884 -0.10660700
v 0.01564399 0.15002339 -0.10759251
v 0.01541210 0.15002339 -0.10660700
v 0.01420191 0.15002339 -0.10363541
v 0.01498593 0.15109884 -0.10263674
v 0.01585206 0.15002339 -0.09939002
v 0.01574395 0.15109884 -0.10057452
v 0.01574395 0.15002339 -0.10057452
v 0.01564399 0.15109884 -0.10759251
v 0.01510313 0.15002339 -0.10367552
v 0.01498593 0.15002339 -0.10263674
v 0.01510313 0.15109884 -0.10367552
v 0.01627917 0.15109884 -0.09957240
v 0.01587870 0.15109884 -0.10077695
v 0.01576401 0.15109884 -0.10642243
v 0.01617607 0.15002339 -0.10738006
v 0.01576401 0.15002339 -0.10642243
v 0.01550642 0.15109884 -0.10241081
v 0.01627917 0.15002339 -0.09957240
v 0.01587870 0.15002339 -0.10077695
v 0.01617607 0.15109884 -0.10738006
v 0.01550642 0.15002339 -0.10241081
v 0.01568974 0.15109884 -0.10385853
v 0.01568974 0.15002339 -0.10385853
v 0.01667557 0.15109884 -0.09985630
v 0.01598148 0.15109884 -0.10131186
v 0.01604164 0.15109884 -0.10618428
v 0.01667400 0.15002339 -0.10705761
v 0.01604164 0.15002339 -0.10618428
v 0.01572703 0.15109884 -0.10221903
v 0.01598148 0.15002339 -0.10131186
v 0.01667557 0.15002339 -0.09985630
v 0.01646436 0.15109884 -0.10265115
v 0.01623342 0.15109884 -0.10591573
v 0.01667400 0.15109884 -0.10705761
v 0.01623342 0.15002339 -0.10591573
v 0.01572703 0.15002339 -0.10221903
v 0.01603725 0.15109884 -0.10409950
v 0.01603725 0.15002339 -0.10409950
v 0.01646436 0.15002339 -0.10265115
v 0.01694882 0.15002339 -0.10021604
v 0.01684290 0.15109884 -0.10222749
v 0.01596456 0.15109884 -0.10297172
v 0.01703875 0.15002339 -0.10669975
v 0.01634497 0.15002339 -0.10559046
v 0.01587274 0.15002339 -0.10197586
v 0.01587274 0.15109884 -0.10197586
v 0.01596456 0.15002339 -0.10297172
v 0.01684290 0.15002339 -0.10222749
v 0.01694882 0.15109884 -0.10021604
v 0.01634497 0.15109884 -0.10559046
v 0.01703875 0.15109884 -0.10669975
v 0.01714341 0.15002339 -0.10376985
v 0.01638226 0.15002339 -0.10518059
v 0.01596456 0.15109884 -0.10301747
v 0.01624470 0.15109884 -0.10438779
v 0.01710738 0.15002339 -0.10064879
v 0.01708105 0.15002339 -0.10172110
v 0.01708105 0.15109884 -0.10172110
v 0.01638226 0.15109884 -0.10518059
v 0.01714341 0.15109884 -0.10376985
v 0.01732077 0.15109884 -0.10625635
v 0.01663953 0.15002339 -0.10330858
v 0.01732077 0.15002339 -0.10625635
v 0.01596456 0.15002339 -0.10301747
v 0.01663953 0.15109884 -0.10330858
v 0.01624470 0.15002339 -0.10438779
v 0.01710738 0.15109884 -0.10064879
v 0.01745646 0.15002339 -0.10438434
v 0.01634779 0.15002339 -0.10474189
v 0.01634779 0.15109884 -0.10474189
v 0.01716033 0.15002339 -0.10115173
v 0.01716033 0.15109884 -0.10115173
v 0.01745646 0.15109884 -0.10438434
v 0.01750096 0.15109884 -0.10573273
v 0.01750096 0.15002339 -0.10573273
v 0.01756112 0.15002339 -0.10513484
v 0.01756112 0.15109884 -0.10513484
v 0.02063988 0.15109884 -0.09922896
v 0.01891170 0.15109884 -0.10775013
v 0.01776700 0.15109884 -0.10775013
v 0.01968413 0.15109884 -0.10536923
v 0.01891170 0.15002339 -0.10775013
v 0.02063988 0.15002339 -0.09922896
v 0.01999874 0.15109884 -0.10440220
v 0.01776700 0.15002339 -0.10775013
v 0.02203620 0.15109884 -0.09922896
v 0.02130952 0.15109884 -0.10038494
v 0.02294025 0.15109884 -0.10536923
v 0.01968413 0.15002339 -0.10536923
v 0.02203620 0.15002339 -0.09922896
v 0.01999874 0.15002339 -0.10440220
v 0.02262563 0.15109884 -0.10440220
v 0.02294025 0.15002339 -0.10536923
v 0.02130952 0.15002339 -0.10038494
v 0.02490908 0.15002339 -0.10775013
v 0.02490908 0.15109884 -0.10775013
v 0.02371299 0.15109884 -0.10775013
v 0.02262563 0.15002339 -0.10440220
v 0.02371299 0.15002339 -0.10775013
v 0.00497191 0.17392455 0.10641648
v 0.00498602 0.17392455 0.10545070
v 0.00502236 0.17392455 0.10591918
v 0.00487634 0.17392455 0.10504083
v 0.00502236 0.17500000 0.10591918
v 0.00497191 0.17500000 0.10641648
v 0.00482056 0.17392455 0.10687148
v 0.00498602 0.17500000 0.10545070
v 0.00482056 0.17500000 0.10687148
v 0.00470117 0.17392455 0.10468548
v 0.00487634 0.17500000 0.10504083
v 0.00456862 0.17500000 0.10728480
v 0.00456862 0.17392455 0.10728480
v 0.00470117 0.17500000 0.10468548
v 0.00446741 0.17392455 0.10437996
v 0.00421546 0.17500000 0.10765613
v 0.00446741 0.17500000 0.10437996
v 0.00421546 0.17392455 0.10765613
v 0.00417818 0.17392455 0.10412112
v 0.00378428 0.17392455 0.10796291
v 0.00417818 0.17500000 0.10412112
v 0.00378428 0.17500000 0.10796291
v 0.00384351 0.17392455 0.10603951
v 0.00384915 0.17500000 0.10391650
v 0.00329701 0.17392455 0.10818194
v 0.00384351 0.17500000 0.10603951
v 0.00372192 0.17392455 0.10658256
v 0.00384915 0.17392455 0.10391650
v 0.00329701 0.17500000 0.10818194
v 0.00372192 0.17500000 0.10658256
v 0.00377206 0.17392455 0.10555161
v 0.00305948 0.17500000 0.10362445
v 0.00377206 0.17500000 0.10555161
v 0.00275396 0.17392455 0.10831324
v 0.00335717 0.17392455 0.10700967
v 0.00305948 0.17392455 0.10362445
v 0.00335717 0.17500000 0.10700967
v 0.00275396 0.17500000 0.10831324
v 0.00279469 0.17392455 0.10728636
v 0.00355741 0.17392455 0.10517526
v 0.00355741 0.17500000 0.10517526
v 0.00224130 0.17500000 0.10342421
v 0.00279469 0.17500000 0.10728636
v 0.00215544 0.17392455 0.10835711
v 0.00208086 0.17392455 0.10737849
v 0.00320676 0.17392455 0.10489794
v 0.00224130 0.17392455 0.10342421
v 0.00272764 0.17500000 0.10470616
v 0.00320676 0.17500000 0.10489794
v 0.00208086 0.17500000 0.10737849
v 0.00215544 0.17500000 0.10835711
v 0.00272764 0.17392455 0.10470616
v 0.00152026 0.17500000 0.10323525
v 0.00184647 0.17500000 0.10448587
v 0.00145947 0.17392455 0.10832139
v 0.00139837 0.17500000 0.10730924
v 0.00184647 0.17392455 0.10448587
v 0.00152026 0.17392455 0.10323525
v 0.00145947 0.17500000 0.10832139
v 0.00139837 0.17392455 0.10730924
v 0.00104521 0.17500000 0.10303941
v 0.00098222 0.17500000 0.10425963
v 0.00098222 0.17392455 0.10425963
v 0.00080204 0.17392455 0.10821422
v 0.00074752 0.17500000 0.10710117
v 0.00080204 0.17500000 0.10821422
v 0.00104521 0.17392455 0.10303941
v 0.00074752 0.17392455 0.10710117
v 0.00071900 0.17500000 0.10276052
v 0.00021951 0.17392455 0.10392214
v 0.00018755 0.17392455 0.10804093
v 0.00016968 0.17500000 0.10680003
v 0.00018755 0.17500000 0.10804093
v 0.00071900 0.17392455 0.10276052
v 0.00021951 0.17500000 0.10392214
v 0.00016968 0.17392455 0.10680003
v 0.00053005 0.17392455 0.10239263
v 0.00053005 0.17500000 0.10239263
v -0.00030537 0.17392455 0.10344709
v -0.00037995 0.17392455 0.10780779
v -0.00029409 0.17500000 0.10645157
v -0.00037995 0.17500000 0.10780779
v 0.00046706 0.17500000 0.10193074
v -0.00030537 0.17500000 0.10344709
v 0.00006095 0.17392455 0.10029971
v 0.00046706 0.17392455 0.10193074
v -0.00029409 0.17392455 0.10645157
v 0.00006095 0.17500000 0.10029971
v -0.00061027 0.17500000 0.10284042
v -0.00026463 0.17392455 0.10067448
v -0.00037995 0.17500000 0.10645157
v -0.00037995 0.17392455 0.10645157
v 0.00058739 0.17392455 0.10135197
v 0.00049934 0.17500000 0.09997068
v -0.00026463 0.17500000 0.10067448
v -0.00061027 0.17392455 0.10284042
v -0.00050843 0.17500000 0.10112384
v 0.00049934 0.17392455 0.09997068
v -0.00050843 0.17392455 0.10112384
v 0.00058739 0.17500000 0.10135197
v -0.00071180 0.17500000 0.10210810
v -0.00066103 0.17500000 0.10161299
v 0.00094775 0.17392455 0.10089760
v 0.00094775 0.17500000 0.10089760
v 0.00099069 0.17392455 0.09972751
v -0.00071180 0.17392455 0.10210810
v -0.00066103 0.17392455 0.10161299
v 0.00099069 0.17500000 0.09972751
v 0.00121693 0.17500000 0.10072619
v 0.00121693 0.17392455 0.10072619
v 0.00157385 0.17392455 0.09957710
v 0.00154314 0.17392455 0.10060366
v 0.00154314 0.17500000 0.10060366
v 0.00157385 0.17500000 0.09957710
v 0.00228705 0.17392455 0.09952728
v 0.00236696 0.17500000 0.10050558
v 0.00228705 0.17500000 0.09952728
v 0.00236696 0.17392455 0.10050558
v 0.00314472 0.17392455 0.09957491
v 0.00303817 0.17392455 0.10057797
v 0.00303817 0.17500000 0.10057797
v 0.00314472 0.17500000 0.09957491
v 0.00386356 0.17392455 0.09971874
v 0.00373477 0.17392455 0.10079481
v 0.00373477 0.17500000 0.10079481
v 0.00386356 0.17500000 0.09971874
v 0.00508535 0.17392455 0.10019097
v 0.00440724 0.17392455 0.10114296
v 0.00440724 0.17500000 0.10114296
v 0.00508535 0.17500000 0.10019097
v 0.00500513 0.17392455 0.10161017
v 0.00500513 0.17500000 0.10161017
v 0.00508535 0.17500000 0.10161017
v 0.00508535 0.17392455 0.10161017
v 0.01241608 0.17392455 0.10722400
v 0.01221647 0.17392455 0.10472622
v 0.01226159 0.17392455 0.10393937
v 0.01187302 0.17392455 0.10772256
v 0.01226159 0.17500000 0.10393937
v 0.01242172 0.17392455 0.10066602
v 0.01241608 0.17500000 0.10722400
v 0.01208141 0.17392455 0.10542720
v 0.01221647 0.17500000 0.10472622
v 0.01221772 0.17500000 0.10315002
v 0.01285165 0.17392455 0.10658318
v 0.01221772 0.17392455 0.10315002
v 0.01187302 0.17500000 0.10772256
v 0.01186174 0.17392455 0.10602948
v 0.01242172 0.17500000 0.10066602
v 0.01285666 0.17392455 0.10129838
v 0.01187522 0.17392455 0.10015932
v 0.01122876 0.17392455 0.10808543
v 0.01285165 0.17500000 0.10658318
v 0.01208141 0.17500000 0.10542720
v 0.01208548 0.17500000 0.10245938
v 0.01187522 0.17500000 0.10015932
v 0.01317440 0.17392455 0.10582768
v 0.01285666 0.17500000 0.10129838
v 0.01208548 0.17392455 0.10245938
v 0.01122876 0.17500000 0.10808543
v 0.01156343 0.17392455 0.10652020
v 0.01186174 0.17500000 0.10602948
v 0.01317723 0.17392455 0.10206235
v 0.01317723 0.17500000 0.10206235
v 0.01186550 0.17392455 0.10186682
v 0.01123158 0.17500000 0.09979614
v 0.01049268 0.17392455 0.10830635
v 0.01317440 0.17500000 0.10582768
v 0.01118207 0.17392455 0.10691284
v 0.01186550 0.17500000 0.10186682
v 0.01337401 0.17392455 0.10494933
v 0.01123158 0.17392455 0.09979614
v 0.01156343 0.17500000 0.10652020
v 0.01049268 0.17500000 0.10830635
v 0.01337464 0.17392455 0.10294634
v 0.01337464 0.17500000 0.10294634
v 0.01337401 0.17500000 0.10494933
v 0.01155778 0.17500000 0.10137265
v 0.01155778 0.17392455 0.10137265
v 0.01049612 0.17500000 0.09957710
v 0.01118207 0.17500000 0.10691284
v 0.00967481 0.17392455 0.10837999
v 0.01074806 0.17392455 0.10718703
v 0.01344045 0.17392455 0.10393937
v 0.01117580 0.17392455 0.10098346
v 0.01049612 0.17392455 0.09957710
v 0.01117580 0.17500000 0.10098346
v 0.01074806 0.17500000 0.10718703
v 0.00967481 0.17500000 0.10837999
v 0.01024794 0.17392455 0.10734778
v 0.01344045 0.17500000 0.10393937
v 0.00967481 0.17500000 0.09950409
v 0.01073365 0.17500000 0.10070519
v 0.01024794 0.17500000 0.10734778
v 0.00884785 0.17392455 0.10830415
v 0.00966917 0.17392455 0.10740137
v 0.01073365 0.17392455 0.10070519
v 0.00967481 0.17392455 0.09950409
v 0.01023134 0.17500000 0.10053849
v 0.00966917 0.17500000 0.10740137
v 0.00884785 0.17500000 0.10830415
v 0.01023134 0.17392455 0.10053849
v 0.00887449 0.17500000 0.09957491
v 0.00966917 0.17500000 0.10048271
v 0.00810707 0.17392455 0.10807665
v 0.00910324 0.17392455 0.10734653
v 0.00910324 0.17500000 0.10734653
v 0.00966917 0.17392455 0.10048271
v 0.00887449 0.17392455 0.09957491
v 0.00810707 0.17500000 0.10807665
v 0.00859623 0.17392455 0.10718107
v 0.00814405 0.17500000 0.09978736
v 0.00910700 0.17500000 0.10053849
v 0.00910700 0.17392455 0.10053849
v 0.00859623 0.17500000 0.10718107
v 0.00746312 0.17392455 0.10771190
v 0.00815345 0.17392455 0.10690594
v 0.00814405 0.17392455 0.09978736
v 0.00860563 0.17500000 0.10070519
v 0.00815345 0.17500000 0.10690594
v 0.00746312 0.17500000 0.10771190
v 0.00778087 0.17392455 0.10652020
v 0.00860563 0.17392455 0.10070519
v 0.00749258 0.17500000 0.10014867
v 0.00816442 0.17500000 0.10098346
v 0.00778087 0.17500000 0.10652020
v 0.00692822 0.17392455 0.10722400
v 0.00748600 0.17392455 0.10603512
v 0.00816442 0.17392455 0.10098346
v 0.00749258 0.17392455 0.10014867
v 0.00778369 0.17500000 0.10137265
v 0.00748600 0.17500000 0.10603512
v 0.00692822 0.17500000 0.10722400
v 0.00726570 0.17392455 0.10543880
v 0.00778369 0.17392455 0.10137265
v 0.00692822 0.17500000 0.10066602
v 0.00747691 0.17500000 0.10186682
v 0.00726570 0.17500000 0.10543880
v 0.00649609 0.17500000 0.10659603
v 0.00712845 0.17392455 0.10473750
v 0.00747691 0.17392455 0.10186682
v 0.00692822 0.17392455 0.10066602
v 0.00712845 0.17500000 0.10473750
v 0.00649609 0.17392455 0.10659603
v 0.00648889 0.17500000 0.10129963
v 0.00708270 0.17392455 0.10393937
v 0.00648889 0.17392455 0.10129963
v 0.00725787 0.17500000 0.10245938
v 0.00708270 0.17500000 0.10393937
v 0.00617271 0.17500000 0.10583363
v 0.00725787 0.17392455 0.10245938
v 0.00712626 0.17500000 0.10315002
v 0.00617271 0.17392455 0.10583363
v 0.00616707 0.17500000 0.10206799
v 0.00712626 0.17392455 0.10315002
v 0.00616707 0.17392455 0.10206799
v 0.00597090 0.17500000 0.10494494
v 0.00597090 0.17392455 0.10494494
v 0.00596965 0.17392455 0.10295354
v 0.00596965 0.17500000 0.10295354
v 0.00590384 0.17500000 0.10393937
v 0.00590384 0.17392455 0.10393937
v -0.00805380 0.17392455 0.10820263
v -0.00692070 0.17392455 0.10486065
v -0.00692070 0.17392455 0.10820263
v -0.00692070 0.17392455 0.10385351
v -0.00692070 0.17500000 0.10820263
v -0.00692070 0.17392455 0.09968176
v -0.00300088 0.17392455 0.10385351
v -0.00692070 0.17500000 0.10486065
v -0.00805380 0.17500000 0.10820263
v -0.00805380 0.17392455 0.09968176
v -0.00692070 0.17500000 0.10385351
v -0.00300088 0.17392455 0.10486065
v -0.00300088 0.17500000 0.10486065
v -0.00805380 0.17500000 0.09968176
v -0.00692070 0.17500000 0.09968176
v -0.00300088 0.17392455 0.09968176
v -0.00300088 0.17500000 0.10385351
v -0.00300088 0.17392455 0.10820263
v -0.00300088 0.17500000 0.09968176
v -0.00186778 0.17392455 0.09968176
v -0.00300088 0.17500000 0.10820263
v -0.00186778 0.17392455 0.10820263
v -0.00186778 0.17500000 0.09968176
v -0.00186778 0.17500000 0.10820263
f 1 2 3
f 2 1 4
f 3 2 1
f 4 1 2
f 2 5 3
f 3 5 2
f 5 1 3
f 3 1 5
f 4 1 6
f 6 1 4
f 7 2 4
f 4 2 7
f 5 2 8
f 8 2 5
f 1 5 9
f 9 5 1
f 6 1 10
f 10 1 6
f 4 6 11
f 11 6 4
f 2 7 8
f 8 7 2
f 11 7 4
f 4 7 11
f 7 5 8
f 8 5 7
f 5 7 9
f 9 7 5
f 12 1 9
f 9 1 12
f 1 12 10
f 10 12 1
f 12 6 10
f 10 6 12
f 13 11 6
f 6 11 13
f 7 11 14
f 14 11 7
f 9 7 15
f 15 7 9
f 9 15 12
f 12 15 9
f 6 12 15
f 15 12 6
f 16 11 13
f 13 11 16
f 6 16 13
f 13 16 6
f 11 16 14
f 14 16 11
f 16 7 14
f 14 7 16
f 15 7 16
f 16 7 15
f 16 6 15
f 15 6 16
f 17 18 19
f 18 17 20
f 19 18 17
f 20 17 18
f 21 19 18
f 18 19 21
f 19 22 17
f 17 22 19
f 20 17 23
f 23 17 20
f 20 21 18
f 18 21 20
f 19 21 24
f 24 21 19
f 22 19 24
f 24 19 22
f 22 25 17
f 17 25 22
f 23 17 26
f 26 17 23
f 23 27 20
f 20 27 23
f 21 20 28
f 28 20 21
f 21 22 24
f 24 22 21
f 25 22 29
f 29 22 25
f 26 17 25
f 25 17 26
f 26 30 23
f 23 30 26
f 27 23 31
f 31 23 27
f 32 20 27
f 27 20 32
f 20 32 28
f 28 32 20
f 22 21 28
f 28 21 22
f 22 33 29
f 29 33 22
f 34 25 29
f 29 25 34
f 26 25 31
f 31 25 26
f 30 26 33
f 33 26 30
f 30 31 23
f 23 31 30
f 31 35 27
f 27 35 31
f 36 32 27
f 27 32 36
f 32 30 28
f 28 30 32
f 22 28 30
f 30 28 22
f 22 30 33
f 33 30 22
f 29 33 37
f 37 33 29
f 25 34 35
f 35 34 25
f 29 37 34
f 34 37 29
f 31 25 35
f 35 25 31
f 31 33 26
f 26 33 31
f 31 30 37
f 37 30 31
f 27 35 36
f 36 35 27
f 32 36 38
f 38 36 32
f 30 32 37
f 37 32 30
f 33 31 37
f 37 31 33
f 34 36 35
f 35 36 34
f 34 37 32
f 32 37 34
f 36 34 38
f 38 34 36
f 34 32 38
f 38 32 34
f 39 40 41
f 40 39 42
f 41 40 39
f 42 39 40
f 43 41 40
f 40 41 43
f 41 44 39
f 39 44 41
f 44 42 39
f 39 42 44
f 40 42 45
f 45 42 40
f 41 43 46
f 46 43 41
f 43 40 47
f 47 40 43
f 44 41 48
f 48 41 44
f 42 44 49
f 49 44 42
f 45 42 50
f 50 42 45
f 51 40 45
f 45 40 51
f 46 43 52
f 52 43 46
f 53 41 46
f 46 41 53
f 40 54 47
f 47 54 40
f 43 47 55
f 55 47 43
f 41 53 48
f 48 53 41
f 48 56 44
f 44 56 48
f 44 57 49
f 49 57 44
f 49 58 42
f 42 58 49
f 50 42 58
f 58 42 50
f 59 45 50
f 50 45 59
f 40 51 57
f 57 51 40
f 45 59 51
f 51 59 45
f 56 52 43
f 43 52 56
f 46 52 60
f 60 52 46
f 46 61 53
f 53 61 46
f 54 40 57
f 57 40 54
f 54 62 47
f 47 62 54
f 62 55 47
f 47 55 62
f 55 56 43
f 43 56 55
f 56 48 53
f 53 48 56
f 57 44 56
f 56 44 57
f 49 57 51
f 51 57 49
f 58 49 63
f 63 49 58
f 50 58 64
f 64 58 50
f 50 65 59
f 59 65 50
f 49 51 59
f 59 51 49
f 52 56 66
f 66 56 52
f 66 60 52
f 52 60 66
f 46 60 67
f 67 60 46
f 61 46 67
f 67 46 61
f 68 53 61
f 61 53 68
f 57 69 54
f 54 69 57
f 62 54 70
f 70 54 62
f 55 62 71
f 71 62 55
f 56 55 69
f 69 55 56
f 56 53 66
f 66 53 56
f 57 56 69
f 69 56 57
f 49 59 63
f 63 59 49
f 63 72 58
f 58 72 63
f 64 58 72
f 72 58 64
f 65 50 64
f 64 50 65
f 63 59 65
f 65 59 63
f 60 66 68
f 68 66 60
f 67 60 73
f 73 60 67
f 67 74 61
f 61 74 67
f 66 53 68
f 68 53 66
f 68 61 75
f 75 61 68
f 76 54 69
f 69 54 76
f 54 76 70
f 70 76 54
f 70 77 62
f 62 77 70
f 71 62 77
f 77 62 71
f 76 55 71
f 71 55 76
f 55 76 69
f 69 76 55
f 72 63 78
f 78 63 72
f 64 72 79
f 79 72 64
f 64 80 65
f 65 80 64
f 63 65 78
f 78 65 63
f 68 73 60
f 60 73 68
f 67 73 81
f 81 73 67
f 74 67 81
f 81 67 74
f 75 61 74
f 74 61 75
f 73 68 75
f 75 68 73
f 70 76 82
f 82 76 70
f 77 70 83
f 83 70 77
f 71 77 84
f 84 77 71
f 71 82 76
f 76 82 71
f 78 85 72
f 72 85 78
f 79 72 86
f 86 72 79
f 80 64 79
f 79 64 80
f 78 65 80
f 80 65 78
f 81 73 87
f 87 73 81
f 81 88 74
f 74 88 81
f 75 74 89
f 89 74 75
f 75 87 73
f 73 87 75
f 70 82 83
f 83 82 70
f 83 90 77
f 77 90 83
f 84 77 90
f 90 77 84
f 82 71 84
f 84 71 82
f 85 78 91
f 91 78 85
f 86 72 85
f 85 72 86
f 86 80 79
f 79 80 86
f 78 80 92
f 92 80 78
f 81 87 93
f 93 87 81
f 88 81 93
f 93 81 88
f 89 74 88
f 88 74 89
f 87 75 89
f 89 75 87
f 83 82 94
f 94 82 83
f 90 83 94
f 94 83 90
f 84 90 95
f 95 90 84
f 84 96 82
f 82 96 84
f 78 92 91
f 91 92 78
f 91 97 85
f 85 97 91
f 86 85 98
f 98 85 86
f 80 86 92
f 92 86 80
f 93 87 99
f 99 87 93
f 93 100 88
f 88 100 93
f 89 88 101
f 101 88 89
f 89 99 87
f 87 99 89
f 94 82 96
f 96 82 94
f 94 102 90
f 90 102 94
f 95 90 102
f 102 90 95
f 96 84 95
f 95 84 96
f 91 92 103
f 103 92 91
f 97 91 104
f 104 91 97
f 105 85 97
f 97 85 105
f 105 98 85
f 85 98 105
f 98 92 86
f 86 92 98
f 93 99 106
f 106 99 93
f 100 93 107
f 107 93 100
f 108 88 100
f 100 88 108
f 101 88 108
f 108 88 101
f 99 89 101
f 101 89 99
f 94 96 109
f 109 96 94
f 102 94 109
f 109 94 102
f 95 102 110
f 110 102 95
f 95 111 96
f 96 111 95
f 92 98 103
f 103 98 92
f 103 112 91
f 91 112 103
f 91 112 104
f 104 112 91
f 113 97 104
f 104 97 113
f 105 97 114
f 114 97 105
f 115 98 105
f 105 98 115
f 99 108 106
f 106 108 99
f 93 106 107
f 107 106 93
f 107 116 100
f 100 116 107
f 108 100 117
f 117 100 108
f 108 99 101
f 101 99 108
f 109 96 111
f 111 96 109
f 118 102 109
f 109 102 118
f 110 102 119
f 119 102 110
f 111 95 110
f 110 95 111
f 119 103 98
f 98 103 119
f 103 120 112
f 112 120 103
f 104 112 121
f 121 112 104
f 97 113 122
f 122 113 97
f 104 121 113
f 113 121 104
f 114 97 122
f 122 97 114
f 114 112 105
f 105 112 114
f 98 115 119
f 119 115 98
f 112 115 105
f 105 115 112
f 117 106 108
f 108 106 117
f 107 106 123
f 123 106 107
f 116 107 124
f 124 107 116
f 125 100 116
f 116 100 125
f 117 100 126
f 126 100 117
f 109 111 118
f 118 111 109
f 102 118 119
f 119 118 102
f 110 119 127
f 127 119 110
f 128 111 110
f 110 111 128
f 103 119 118
f 118 119 103
f 118 120 103
f 103 120 118
f 115 112 120
f 120 112 115
f 112 114 121
f 121 114 112
f 129 122 113
f 113 122 129
f 113 121 130
f 130 121 113
f 114 122 131
f 131 122 114
f 127 119 115
f 115 119 127
f 106 117 123
f 123 117 106
f 107 123 132
f 132 123 107
f 107 133 124
f 124 133 107
f 134 116 124
f 124 116 134
f 135 100 125
f 125 100 135
f 125 116 136
f 136 116 125
f 126 100 135
f 135 100 126
f 126 123 117
f 117 123 126
f 118 111 137
f 137 111 118
f 110 127 138
f 138 127 110
f 111 128 139
f 139 128 111
f 110 138 128
f 128 138 110
f 120 118 137
f 137 118 120
f 137 115 120
f 120 115 137
f 131 121 114
f 114 121 131
f 122 129 140
f 140 129 122
f 113 130 129
f 129 130 113
f 121 131 130
f 130 131 121
f 131 122 140
f 140 122 131
f 115 137 127
f 127 137 115
f 123 126 132
f 132 126 123
f 107 132 138
f 138 132 107
f 107 138 133
f 133 138 107
f 124 133 134
f 134 133 124
f 116 134 136
f 136 134 116
f 133 135 125
f 125 135 133
f 125 136 141
f 141 136 125
f 135 142 126
f 126 142 135
f 137 111 135
f 135 111 137
f 137 138 127
f 127 138 137
f 143 139 128
f 128 139 143
f 135 111 139
f 139 111 135
f 128 138 143
f 143 138 128
f 144 140 129
f 129 140 144
f 129 130 144
f 144 130 129
f 145 130 131
f 131 130 145
f 131 140 145
f 145 140 131
f 142 132 126
f 126 132 142
f 143 138 132
f 132 138 143
f 135 133 138
f 138 133 135
f 134 133 146
f 146 133 134
f 147 136 134
f 134 136 147
f 141 133 125
f 125 133 141
f 141 136 148
f 148 136 141
f 135 139 142
f 142 139 135
f 138 137 135
f 135 137 138
f 139 143 142
f 142 143 139
f 140 144 145
f 145 144 140
f 130 145 144
f 144 145 130
f 132 142 143
f 143 142 132
f 133 141 146
f 146 141 133
f 134 146 147
f 147 146 134
f 136 147 148
f 148 147 136
f 141 148 149
f 149 148 141
f 149 146 141
f 141 146 149
f 147 146 150
f 150 146 147
f 150 148 147
f 147 148 150
f 148 150 149
f 149 150 148
f 146 149 150
f 150 149 146
f 151 152 153
f 152 151 154
f 153 152 151
f 154 151 152
f 152 155 153
f 153 155 152
f 155 151 153
f 153 151 155
f 154 151 156
f 156 151 154
f 157 152 154
f 154 152 157
f 155 152 158
f 158 152 155
f 151 155 159
f 159 155 151
f 156 151 160
f 160 151 156
f 154 156 161
f 161 156 154
f 152 157 158
f 158 157 152
f 161 157 154
f 154 157 161
f 157 155 158
f 158 155 157
f 155 157 159
f 159 157 155
f 162 151 159
f 159 151 162
f 151 162 160
f 160 162 151
f 162 156 160
f 160 156 162
f 163 161 156
f 156 161 163
f 157 161 164
f 164 161 157
f 159 157 165
f 165 157 159
f 159 165 162
f 162 165 159
f 156 162 165
f 165 162 156
f 166 161 163
f 163 161 166
f 156 167 163
f 163 167 156
f 161 168 164
f 164 168 161
f 164 167 157
f 157 167 164
f 165 157 167
f 167 157 165
f 167 156 165
f 165 156 167
f 169 161 166
f 166 161 169
f 166 163 170
f 170 163 166
f 167 170 163
f 163 170 167
f 168 161 171
f 171 161 168
f 168 172 164
f 164 172 168
f 164 172 167
f 167 172 164
f 161 169 171
f 171 169 161
f 172 169 166
f 166 169 172
f 170 172 166
f 166 172 170
f 170 167 173
f 173 167 170
f 169 168 171
f 171 168 169
f 172 168 174
f 174 168 172
f 167 172 173
f 173 172 167
f 169 172 174
f 174 172 169
f 172 170 173
f 173 170 172
f 168 169 174
f 174 169 168
f 175 176 177
f 176 175 178
f 177 176 175
f 178 175 176
f 176 179 177
f 177 179 176
f 179 175 177
f 177 175 179
f 178 175 180
f 180 175 178
f 181 176 178
f 178 176 181
f 179 176 182
f 182 176 179
f 175 179 183
f 183 179 175
f 180 175 184
f 184 175 180
f 178 180 185
f 185 180 178
f 176 181 182
f 182 181 176
f 185 181 178
f 178 181 185
f 181 179 182
f 182 179 181
f 179 181 183
f 183 181 179
f 186 175 183
f 183 175 186
f 175 186 184
f 184 186 175
f 186 180 184
f 184 180 186
f 187 185 180
f 180 185 187
f 181 185 188
f 188 185 181
f 183 181 189
f 189 181 183
f 183 189 186
f 186 189 183
f 180 186 189
f 189 186 180
f 190 185 187
f 187 185 190
f 180 190 187
f 187 190 180
f 185 190 188
f 188 190 185
f 190 181 188
f 188 181 190
f 189 181 190
f 190 181 189
f 190 180 189
f 189 180 190
f 191 192 193
f 192 191 194
f 193 192 191
f 194 191 192
f 192 195 193
f 193 195 192
f 196 191 193
f 193 191 196
f 197 194 191
f 191 194 197
f 192 194 198
f 198 194 192
f 195 192 199
f 199 192 195
f 200 193 195
f 195 193 200
f 196 201 191
f 191 201 196
f 196 193 202
f 202 193 196
f 194 197 203
f 203 197 194
f 201 197 191
f 191 197 201
f 198 194 204
f 204 194 198
f 198 199 192
f 192 199 198
f 199 197 195
f 195 197 199
f 193 200 202
f 202 200 193
f 195 205 200
f 200 205 195
f 206 201 196
f 196 201 206
f 196 202 207
f 207 202 196
f 197 199 203
f 203 199 197
f 203 208 194
f 194 208 203
f 197 201 209
f 209 201 197
f 204 194 208
f 208 194 204
f 204 210 198
f 198 210 204
f 199 198 210
f 210 198 199
f 197 205 195
f 195 205 197
f 211 202 200
f 200 202 211
f 200 205 212
f 212 205 200
f 206 213 201
f 201 213 206
f 196 214 206
f 206 214 196
f 207 202 215
f 215 202 207
f 212 196 207
f 207 196 212
f 203 199 210
f 210 199 203
f 208 203 216
f 216 203 208
f 213 209 201
f 201 209 213
f 209 205 197
f 197 205 209
f 204 208 217
f 217 208 204
f 210 204 218
f 218 204 210
f 202 211 215
f 215 211 202
f 200 212 211
f 211 212 200
f 196 212 205
f 205 212 196
f 219 213 206
f 206 213 219
f 214 196 205
f 205 196 214
f 220 206 214
f 214 206 220
f 207 215 221
f 221 215 207
f 207 222 212
f 212 222 207
f 203 210 218
f 218 210 203
f 203 218 216
f 216 218 203
f 216 223 208
f 208 223 216
f 209 213 224
f 224 213 209
f 209 214 205
f 205 214 209
f 217 208 225
f 225 208 217
f 217 218 204
f 204 218 217
f 226 215 211
f 211 215 226
f 211 212 226
f 226 212 211
f 219 227 213
f 213 227 219
f 206 220 219
f 219 220 206
f 224 220 214
f 214 220 224
f 215 226 221
f 221 226 215
f 207 221 228
f 228 221 207
f 222 207 228
f 228 207 222
f 226 212 222
f 222 212 226
f 216 218 229
f 229 218 216
f 223 216 230
f 230 216 223
f 225 208 223
f 223 208 225
f 227 224 213
f 213 224 227
f 224 214 209
f 209 214 224
f 225 229 217
f 217 229 225
f 218 217 229
f 229 217 218
f 231 227 219
f 219 227 231
f 232 219 220
f 220 219 232
f 233 220 224
f 224 220 233
f 234 221 226
f 226 221 234
f 228 221 235
f 235 221 228
f 228 236 222
f 222 236 228
f 226 222 234
f 234 222 226
f 216 229 237
f 237 229 216
f 216 237 230
f 230 237 216
f 230 238 223
f 223 238 230
f 225 223 239
f 239 223 225
f 224 227 233
f 233 227 224
f 229 225 237
f 237 225 229
f 227 231 240
f 240 231 227
f 219 232 231
f 231 232 219
f 233 232 220
f 220 232 233
f 221 234 235
f 235 234 221
f 228 235 241
f 241 235 228
f 236 228 242
f 242 228 236
f 243 222 236
f 236 222 243
f 234 222 243
f 243 222 234
f 230 237 244
f 244 237 230
f 238 230 245
f 245 230 238
f 246 223 238
f 238 223 246
f 239 223 246
f 246 223 239
f 244 225 239
f 239 225 244
f 240 233 227
f 227 233 240
f 225 244 237
f 237 244 225
f 231 247 240
f 240 247 231
f 247 231 232
f 232 231 247
f 232 233 247
f 247 233 232
f 243 235 234
f 234 235 243
f 235 243 241
f 241 243 235
f 228 241 242
f 242 241 228
f 242 248 236
f 236 248 242
f 243 236 249
f 249 236 243
f 230 244 250
f 250 244 230
f 230 250 245
f 245 250 230
f 245 251 238
f 238 251 245
f 246 238 252
f 252 238 246
f 250 239 246
f 246 239 250
f 239 250 244
f 244 250 239
f 233 240 247
f 247 240 233
f 243 253 241
f 241 253 243
f 242 241 253
f 253 241 242
f 248 242 254
f 254 242 248
f 255 236 248
f 248 236 255
f 249 236 255
f 255 236 249
f 253 243 249
f 249 243 253
f 245 250 256
f 256 250 245
f 251 245 257
f 257 245 251
f 252 238 251
f 251 238 252
f 256 246 252
f 252 246 256
f 246 256 250
f 250 256 246
f 242 253 258
f 258 253 242
f 242 258 254
f 254 258 242
f 254 259 248
f 248 259 254
f 255 248 260
f 260 248 255
f 258 249 255
f 255 249 258
f 249 258 253
f 253 258 249
f 245 256 257
f 257 256 245
f 257 261 251
f 251 261 257
f 252 251 262
f 262 251 252
f 252 263 256
f 256 263 252
f 254 258 264
f 264 258 254
f 259 254 265
f 265 254 259
f 260 248 259
f 259 248 260
f 264 255 260
f 260 255 264
f 255 264 258
f 258 264 255
f 257 256 263
f 263 256 257
f 261 257 266
f 266 257 261
f 267 251 261
f 261 251 267
f 262 251 267
f 267 251 262
f 263 252 262
f 262 252 263
f 254 264 265
f 265 264 254
f 265 268 259
f 259 268 265
f 260 259 269
f 269 259 260
f 260 270 264
f 264 270 260
f 257 263 271
f 271 263 257
f 257 271 266
f 266 271 257
f 266 272 261
f 261 272 266
f 267 261 273
f 273 261 267
f 271 262 267
f 267 262 271
f 262 271 263
f 263 271 262
f 265 264 270
f 270 264 265
f 268 265 274
f 274 265 268
f 275 259 268
f 268 259 275
f 269 259 275
f 275 259 269
f 270 260 269
f 269 260 270
f 266 271 276
f 276 271 266
f 272 266 277
f 277 266 272
f 278 261 272
f 272 261 278
f 273 261 278
f 278 261 273
f 276 267 273
f 273 267 276
f 267 276 271
f 271 276 267
f 265 270 279
f 279 270 265
f 265 279 274
f 274 279 265
f 274 280 268
f 268 280 274
f 275 268 281
f 281 268 275
f 279 269 275
f 275 269 279
f 269 279 270
f 270 279 269
f 266 276 282
f 282 276 266
f 266 282 277
f 277 282 266
f 277 283 272
f 272 283 277
f 278 272 284
f 284 272 278
f 278 276 273
f 273 276 278
f 274 279 285
f 285 279 274
f 280 274 286
f 286 274 280
f 287 268 280
f 280 268 287
f 281 268 287
f 287 268 281
f 285 275 281
f 281 275 285
f 275 285 279
f 279 285 275
f 276 278 282
f 282 278 276
f 277 282 288
f 288 282 277
f 283 277 289
f 289 277 283
f 290 272 283
f 283 272 290
f 284 272 290
f 290 272 284
f 284 282 278
f 278 282 284
f 274 285 291
f 291 285 274
f 274 291 286
f 286 291 274
f 286 292 280
f 280 292 286
f 287 280 293
f 293 280 287
f 287 285 281
f 281 285 287
f 282 284 288
f 288 284 282
f 277 288 294
f 294 288 277
f 277 294 289
f 289 294 277
f 295 283 289
f 289 283 295
f 290 283 296
f 296 283 290
f 290 288 284
f 284 288 290
f 285 287 291
f 291 287 285
f 286 291 297
f 297 291 286
f 292 286 298
f 298 286 292
f 293 280 292
f 292 280 293
f 293 291 287
f 287 291 293
f 288 290 294
f 294 290 288
f 289 294 299
f 299 294 289
f 283 295 300
f 300 295 283
f 289 301 295
f 295 301 289
f 296 283 302
f 302 283 296
f 296 294 290
f 290 294 296
f 291 293 297
f 297 293 291
f 286 297 298
f 298 297 286
f 303 292 298
f 298 292 303
f 293 292 304
f 304 292 293
f 294 296 299
f 299 296 294
f 289 299 305
f 305 299 289
f 306 300 295
f 295 300 306
f 298 283 300
f 300 283 298
f 289 292 301
f 301 292 289
f 295 301 306
f 306 301 295
f 298 302 283
f 283 302 298
f 302 299 296
f 296 299 302
f 304 297 293
f 293 297 304
f 298 297 307
f 307 297 298
f 292 303 301
f 301 303 292
f 298 300 303
f 303 300 298
f 304 292 308
f 308 292 304
f 299 302 305
f 305 302 299
f 289 305 292
f 292 305 289
f 300 306 309
f 309 306 300
f 306 301 310
f 310 301 306
f 298 311 302
f 302 311 298
f 297 304 307
f 307 304 297
f 298 307 311
f 311 307 298
f 312 301 303
f 303 301 312
f 303 300 309
f 309 300 303
f 308 292 305
f 305 292 308
f 308 307 304
f 304 307 308
f 311 305 302
f 302 305 311
f 313 309 306
f 306 309 313
f 301 312 310
f 310 312 301
f 306 310 313
f 313 310 306
f 307 308 311
f 311 308 307
f 303 309 312
f 312 309 303
f 305 311 308
f 308 311 305
f 309 313 314
f 314 313 309
f 315 310 312
f 312 310 315
f 313 310 316
f 316 310 313
f 312 309 314
f 314 309 312
f 317 314 313
f 313 314 317
f 310 315 316
f 316 315 310
f 312 314 315
f 315 314 312
f 313 316 317
f 317 316 313
f 314 317 318
f 318 317 314
f 318 316 315
f 315 316 318
f 315 314 318
f 318 314 315
f 316 318 317
f 317 318 316
f 319 320 321
f 320 319 322
f 321 320 319
f 322 319 320
f 320 323 321
f 321 323 320
f 323 319 321
f 321 319 323
f 322 319 324
f 324 319 322
f 325 320 322
f 322 320 325
f 323 320 326
f 326 320 323
f 319 323 327
f 327 323 319
f 324 319 328
f 328 319 324
f 324 329 322
f 322 329 324
f 320 325 330
f 330 325 320
f 329 325 322
f 322 325 329
f 320 331 326
f 326 331 320
f 326 332 323
f 323 332 326
f 323 332 327
f 327 332 323
f 332 319 327
f 327 319 332
f 319 332 328
f 328 332 319
f 332 324 328
f 328 324 332
f 329 324 333
f 333 324 329
f 334 330 325
f 325 330 334
f 331 320 330
f 330 320 331
f 325 329 335
f 335 329 325
f 331 329 326
f 326 329 331
f 329 332 326
f 326 332 329
f 324 332 333
f 333 332 324
f 332 329 333
f 333 329 332
f 334 336 330
f 330 336 334
f 325 337 334
f 334 337 325
f 336 331 330
f 330 331 336
f 329 331 335
f 335 331 329
f 337 325 335
f 335 325 337
f 338 336 334
f 334 336 338
f 337 338 334
f 334 338 337
f 331 336 339
f 339 336 331
f 339 335 331
f 331 335 339
f 339 337 335
f 335 337 339
f 336 338 340
f 340 338 336
f 338 337 341
f 341 337 338
f 336 342 339
f 339 342 336
f 342 337 339
f 339 337 342
f 338 342 340
f 340 342 338
f 342 336 340
f 340 336 342
f 337 342 341
f 341 342 337
f 342 338 341
f 341 338 342
f 343 344 345
f 344 343 346
f 345 344 343
f 346 343 344
f 344 347 345
f 345 347 344
f 345 348 343
f 343 348 345
f 346 343 349
f 349 343 346
f 346 350 344
f 344 350 346
f 347 344 350
f 350 344 347
f 348 345 347
f 347 345 348
f 351 343 348
f 348 343 351
f 343 351 349
f 349 351 343
f 346 349 352
f 352 349 346
f 350 346 353
f 353 346 350
f 350 348 347
f 347 348 350
f 348 353 351
f 351 353 348
f 354 349 351
f 351 349 354
f 352 349 355
f 355 349 352
f 352 353 346
f 346 353 352
f 348 350 353
f 353 350 348
f 351 353 356
f 356 353 351
f 349 354 355
f 355 354 349
f 351 356 354
f 354 356 351
f 352 355 357
f 357 355 352
f 353 352 356
f 356 352 353
f 358 355 354
f 354 355 358
f 354 356 359
f 359 356 354
f 357 355 360
f 360 355 357
f 357 356 352
f 352 356 357
f 355 358 360
f 360 358 355
f 354 359 358
f 358 359 354
f 356 357 359
f 359 357 356
f 357 360 361
f 361 360 357
f 358 362 360
f 360 362 358
f 358 359 363
f 363 359 358
f 357 363 359
f 359 363 357
f 361 360 362
f 362 360 361
f 363 357 361
f 361 357 363
f 362 358 364
f 364 358 362
f 358 363 364
f 364 363 358
f 361 362 365
f 365 362 361
f 361 366 363
f 363 366 361
f 364 367 362
f 362 367 364
f 364 363 368
f 368 363 364
f 365 362 369
f 369 362 365
f 361 365 370
f 370 365 361
f 366 361 370
f 370 361 366
f 368 363 366
f 366 363 368
f 367 364 371
f 371 364 367
f 369 362 367
f 367 362 369
f 364 368 372
f 372 368 364
f 369 368 365
f 365 368 369
f 373 370 365
f 365 370 373
f 370 374 366
f 366 374 370
f 366 375 368
f 368 375 366
f 364 372 371
f 371 372 364
f 371 376 367
f 367 376 371
f 369 367 377
f 377 367 369
f 368 369 372
f 372 369 368
f 375 365 368
f 368 365 375
f 370 373 378
f 378 373 370
f 365 375 373
f 373 375 365
f 374 370 378
f 378 370 374
f 375 366 374
f 374 366 375
f 371 372 379
f 379 372 371
f 376 371 380
f 380 371 376
f 381 367 376
f 376 367 381
f 377 367 381
f 381 367 377
f 377 372 369
f 369 372 377
f 378 373 382
f 382 373 378
f 383 373 375
f 375 373 383
f 378 384 374
f 374 384 378
f 375 374 383
f 383 374 375
f 372 377 379
f 379 377 372
f 371 379 385
f 385 379 371
f 371 385 380
f 380 385 371
f 380 386 376
f 376 386 380
f 381 376 387
f 387 376 381
f 385 377 381
f 381 377 385
f 373 383 382
f 382 383 373
f 378 382 388
f 388 382 378
f 384 378 389
f 389 378 384
f 390 374 384
f 384 374 390
f 383 374 391
f 391 374 383
f 377 385 379
f 379 385 377
f 380 385 392
f 392 385 380
f 386 380 393
f 393 380 386
f 387 376 386
f 386 376 387
f 392 381 387
f 387 381 392
f 381 392 385
f 385 392 381
f 383 388 382
f 382 388 383
f 378 388 394
f 394 388 378
f 378 394 389
f 389 394 378
f 389 395 384
f 384 395 389
f 391 374 390
f 390 374 391
f 390 384 396
f 396 384 390
f 388 383 391
f 391 383 388
f 380 392 393
f 393 392 380
f 393 397 386
f 386 397 393
f 387 386 397
f 397 386 387
f 387 398 392
f 392 398 387
f 391 394 388
f 388 394 391
f 389 394 399
f 399 394 389
f 395 389 400
f 400 389 395
f 396 384 395
f 395 384 396
f 394 391 390
f 390 391 394
f 399 390 396
f 396 390 399
f 393 392 401
f 401 392 393
f 397 393 401
f 401 393 397
f 387 397 402
f 402 397 387
f 398 387 402
f 402 387 398
f 401 392 398
f 398 392 401
f 390 399 394
f 394 399 390
f 389 399 400
f 400 399 389
f 400 403 395
f 395 403 400
f 396 395 404
f 404 395 396
f 396 405 399
f 399 405 396
f 401 406 397
f 397 406 401
f 402 397 406
f 406 397 402
f 402 407 398
f 398 407 402
f 401 398 408
f 408 398 401
f 400 399 405
f 405 399 400
f 403 400 409
f 409 400 403
f 404 395 403
f 403 395 404
f 405 396 404
f 404 396 405
f 406 401 408
f 408 401 406
f 402 406 410
f 410 406 402
f 407 402 410
f 410 402 407
f 408 398 407
f 407 398 408
f 400 405 409
f 409 405 400
f 409 411 403
f 403 411 409
f 404 403 411
f 411 403 404
f 404 412 405
f 405 412 404
f 408 413 406
f 406 413 408
f 410 406 413
f 413 406 410
f 410 414 407
f 407 414 410
f 408 407 415
f 415 407 408
f 409 405 416
f 416 405 409
f 411 409 416
f 416 409 411
f 404 411 417
f 417 411 404
f 412 404 417
f 417 404 412
f 416 405 412
f 412 405 416
f 413 408 415
f 415 408 413
f 410 413 418
f 418 413 410
f 414 410 418
f 418 410 414
f 415 407 414
f 414 407 415
f 419 411 416
f 416 411 419
f 417 411 420
f 420 411 417
f 417 421 412
f 412 421 417
f 416 412 419
f 419 412 416
f 415 422 413
f 413 422 415
f 418 413 422
f 422 413 418
f 418 423 414
f 414 423 418
f 415 414 424
f 424 414 415
f 411 419 420
f 420 419 411
f 417 420 425
f 425 420 417
f 421 417 426
f 426 417 421
f 427 412 421
f 421 412 427
f 419 412 428
f 428 412 419
f 422 415 424
f 424 415 422
f 418 422 429
f 429 422 418
f 423 418 429
f 429 418 423
f 424 414 423
f 423 414 424
f 428 420 419
f 419 420 428
f 420 428 425
f 425 428 420
f 425 430 417
f 417 430 425
f 417 430 426
f 426 430 417
f 431 421 426
f 426 421 431
f 427 428 412
f 412 428 427
f 427 421 432
f 432 421 427
f 433 422 424
f 424 422 433
f 429 422 434
f 434 422 429
f 429 433 423
f 423 433 429
f 424 423 433
f 433 423 424
f 435 425 428
f 428 425 435
f 425 436 430
f 430 436 425
f 426 430 437
f 437 430 426
f 421 431 438
f 438 431 421
f 426 439 431
f 431 439 426
f 440 428 427
f 427 428 440
f 432 421 441
f 441 421 432
f 432 430 427
f 427 430 432
f 422 433 434
f 434 433 422
f 433 429 434
f 434 429 433
f 425 435 442
f 442 435 425
f 440 435 428
f 428 435 440
f 442 436 425
f 425 436 442
f 440 430 436
f 436 430 440
f 430 432 437
f 437 432 430
f 426 437 439
f 439 437 426
f 443 438 431
f 431 438 443
f 441 421 438
f 438 421 441
f 431 439 444
f 444 439 431
f 430 440 427
f 427 440 430
f 441 437 432
f 432 437 441
f 445 442 435
f 435 442 445
f 440 445 435
f 435 445 440
f 446 436 442
f 442 436 446
f 436 447 440
f 440 447 436
f 437 441 439
f 439 441 437
f 438 443 448
f 448 443 438
f 431 444 443
f 443 444 431
f 441 438 449
f 449 438 441
f 439 449 444
f 444 449 439
f 442 445 446
f 446 445 442
f 447 445 440
f 440 445 447
f 446 450 436
f 436 450 446
f 447 436 450
f 450 436 447
f 449 439 441
f 441 439 449
f 444 448 443
f 443 448 444
f 449 438 448
f 448 438 449
f 448 444 449
f 449 444 448
f 445 451 446
f 446 451 445
f 447 452 445
f 445 452 447
f 451 450 446
f 446 450 451
f 450 453 447
f 447 453 450
f 451 445 452
f 452 445 451
f 447 454 452
f 452 454 447
f 455 450 451
f 451 450 455
f 453 450 456
f 456 450 453
f 453 454 447
f 447 454 453
f 452 455 451
f 451 455 452
f 455 452 454
f 454 452 455
f 455 456 450
f 450 456 455
f 456 457 453
f 453 457 456
f 457 454 453
f 453 454 457
f 454 458 455
f 455 458 454
f 455 459 456
f 456 459 455
f 457 456 459
f 459 456 457
f 457 460 454
f 454 460 457
f 458 454 460
f 460 454 458
f 458 459 455
f 455 459 458
f 459 461 457
f 457 461 459
f 457 462 460
f 460 462 457
f 460 463 458
f 458 463 460
f 463 459 458
f 458 459 463
f 461 459 464
f 464 459 461
f 461 462 457
f 457 462 461
f 463 460 462
f 462 460 463
f 463 464 459
f 459 464 463
f 464 465 461
f 461 465 464
f 461 466 462
f 462 466 461
f 462 467 463
f 463 467 462
f 467 464 463
f 463 464 467
f 465 464 468
f 468 464 465
f 465 466 461
f 461 466 465
f 467 462 466
f 466 462 467
f 467 468 464
f 464 468 467
f 468 469 465
f 465 469 468
f 465 470 466
f 466 470 465
f 466 471 467
f 467 471 466
f 471 468 467
f 467 468 471
f 469 468 472
f 472 468 469
f 469 473 465
f 465 473 469
f 465 473 470
f 470 473 465
f 471 466 470
f 470 466 471
f 474 468 471
f 471 468 474
f 468 475 472
f 472 475 468
f 475 469 472
f 472 469 475
f 473 469 476
f 476 469 473
f 474 470 473
f 473 470 474
f 470 474 471
f 471 474 470
f 475 468 474
f 474 468 475
f 469 475 476
f 476 475 469
f 475 473 476
f 476 473 475
f 473 475 474
f 474 475 473
f 477 478 479
f 478 477 480
f 479 478 477
f 480 477 478
f 478 481 479
f 479 481 478
f 481 477 479
f 479 477 481
f 480 477 482
f 482 477 480
f 483 478 480
f 480 478 483
f 481 478 484
f 484 478 481
f 477 481 485
f 485 481 477
f 482 477 486
f 486 477 482
f 480 482 487
f 487 482 480
f 478 483 484
f 484 483 478
f 487 483 480
f 480 483 487
f 483 481 484
f 484 481 483
f 481 483 485
f 485 483 481
f 488 477 485
f 485 477 488
f 477 488 486
f 486 488 477
f 488 482 486
f 486 482 488
f 489 487 482
f 482 487 489
f 483 487 490
f 490 487 483
f 485 483 491
f 491 483 485
f 485 491 488
f 488 491 485
f 482 488 491
f 491 488 482
f 492 487 489
f 489 487 492
f 482 493 489
f 489 493 482
f 487 494 490
f 490 494 487
f 490 493 483
f 483 493 490
f 491 483 493
f 493 483 491
f 493 482 491
f 491 482 493
f 495 487 492
f 492 487 495
f 492 489 496
f 496 489 492
f 493 496 489
f 489 496 493
f 494 487 497
f 497 487 494
f 494 498 490
f 490 498 494
f 490 498 493
f 493 498 490
f 487 495 497
f 497 495 487
f 498 495 492
f 492 495 498
f 496 498 492
f 492 498 496
f 496 493 499
f 499 493 496
f 495 494 497
f 497 494 495
f 498 494 500
f 500 494 498
f 493 498 499
f 499 498 493
f 495 498 500
f 500 498 495
f 498 496 499
f 499 496 498
f 494 495 500
f 500 495 494
f 501 502 503
f 502 501 504
f 503 502 501
f 504 501 502
f 505 503 502
f 502 503 505
f 503 506 501
f 501 506 503
f 506 504 501
f 501 504 506
f 502 504 507
f 507 504 502
f 503 505 508
f 508 505 503
f 505 502 509
f 509 502 505
f 506 503 510
f 510 503 506
f 504 506 511
f 511 506 504
f 507 504 512
f 512 504 507
f 513 502 507
f 507 502 513
f 508 505 514
f 514 505 508
f 515 503 508
f 508 503 515
f 502 516 509
f 509 516 502
f 505 509 517
f 517 509 505
f 503 515 510
f 510 515 503
f 510 518 506
f 506 518 510
f 506 519 511
f 511 519 506
f 511 520 504
f 504 520 511
f 512 504 520
f 520 504 512
f 521 507 512
f 512 507 521
f 502 513 519
f 519 513 502
f 507 521 513
f 513 521 507
f 518 514 505
f 505 514 518
f 508 514 522
f 522 514 508
f 508 523 515
f 515 523 508
f 516 502 519
f 519 502 516
f 516 524 509
f 509 524 516
f 524 517 509
f 509 517 524
f 517 518 505
f 505 518 517
f 518 510 515
f 515 510 518
f 519 506 518
f 518 506 519
f 511 519 513
f 513 519 511
f 520 511 525
f 525 511 520
f 512 520 526
f 526 520 512
f 512 527 521
f 521 527 512
f 511 513 521
f 521 513 511
f 514 518 528
f 528 518 514
f 528 522 514
f 514 522 528
f 508 522 529
f 529 522 508
f 523 508 529
f 529 508 523
f 530 515 523
f 523 515 530
f 519 531 516
f 516 531 519
f 524 516 532
f 532 516 524
f 517 524 533
f 533 524 517
f 518 517 531
f 531 517 518
f 518 515 528
f 528 515 518
f 519 518 531
f 531 518 519
f 511 521 525
f 525 521 511
f 525 534 520
f 520 534 525
f 526 520 534
f 534 520 526
f 527 512 526
f 526 512 527
f 525 521 527
f 527 521 525
f 522 528 530
f 530 528 522
f 529 522 535
f 535 522 529
f 529 536 523
f 523 536 529
f 528 515 530
f 530 515 528
f 530 523 537
f 537 523 530
f 538 516 531
f 531 516 538
f 516 538 532
f 532 538 516
f 532 539 524
f 524 539 532
f 533 524 539
f 539 524 533
f 538 517 533
f 533 517 538
f 517 538 531
f 531 538 517
f 534 525 540
f 540 525 534
f 526 534 541
f 541 534 526
f 526 542 527
f 527 542 526
f 525 527 540
f 540 527 525
f 530 535 522
f 522 535 530
f 529 535 543
f 543 535 529
f 536 529 543
f 543 529 536
f 537 523 536
f 536 523 537
f 535 530 537
f 537 530 535
f 532 538 544
f 544 538 532
f 539 532 545
f 545 532 539
f 533 539 546
f 546 539 533
f 533 544 538
f 538 544 533
f 540 547 534
f 534 547 540
f 541 534 548
f 548 534 541
f 542 526 541
f 541 526 542
f 540 527 542
f 542 527 540
f 543 535 549
f 549 535 543
f 543 550 536
f 536 550 543
f 537 536 551
f 551 536 537
f 537 549 535
f 535 549 537
f 532 544 545
f 545 544 532
f 545 552 539
f 539 552 545
f 546 539 552
f 552 539 546
f 544 533 546
f 546 533 544
f 547 540 553
f 553 540 547
f 548 534 547
f 547 534 548
f 548 542 541
f 541 542 548
f 540 542 554
f 554 542 540
f 543 549 555
f 555 549 543
f 550 543 555
f 555 543 550
f 551 536 550
f 550 536 551
f 549 537 551
f 551 537 549
f 545 544 556
f 556 544 545
f 552 545 556
f 556 545 552
f 546 552 557
f 557 552 546
f 546 558 544
f 544 558 546
f 540 554 553
f 553 554 540
f 553 559 547
f 547 559 553
f 548 547 560
f 560 547 548
f 542 548 554
f 554 548 542
f 555 549 561
f 561 549 555
f 555 562 550
f 550 562 555
f 551 550 563
f 563 550 551
f 551 561 549
f 549 561 551
f 556 544 558
f 558 544 556
f 556 564 552
f 552 564 556
f 557 552 564
f 564 552 557
f 558 546 557
f 557 546 558
f 553 554 565
f 565 554 553
f 559 553 566
f 566 553 559
f 567 547 559
f 559 547 567
f 567 560 547
f 547 560 567
f 560 554 548
f 548 554 560
f 555 561 568
f 568 561 555
f 562 555 569
f 569 555 562
f 570 550 562
f 562 550 570
f 563 550 570
f 570 550 563
f 561 551 563
f 563 551 561
f 556 558 571
f 571 558 556
f 564 556 571
f 571 556 564
f 557 564 572
f 572 564 557
f 557 573 558
f 558 573 557
f 554 560 565
f 565 560 554
f 565 574 553
f 553 574 565
f 553 574 566
f 566 574 553
f 575 559 566
f 566 559 575
f 567 559 576
f 576 559 567
f 577 560 567
f 567 560 577
f 561 570 568
f 568 570 561
f 555 568 569
f 569 568 555
f 569 578 562
f 562 578 569
f 570 562 579
f 579 562 570
f 570 561 563
f 563 561 570
f 571 558 573
f 573 558 571
f 580 564 571
f 571 564 580
f 572 564 581
f 581 564 572
f 573 557 572
f 572 557 573
f 581 565 560
f 560 565 581
f 565 582 574
f 574 582 565
f 566 574 583
f 583 574 566
f 559 575 584
f 584 575 559
f 566 583 575
f 575 583 566
f 576 559 584
f 584 559 576
f 576 574 567
f 567 574 576
f 560 577 581
f 581 577 560
f 574 577 567
f 567 577 574
f 579 568 570
f 570 568 579
f 569 568 585
f 585 568 569
f 578 569 586
f 586 569 578
f 587 562 578
f 578 562 587
f 579 562 588
f 588 562 579
f 571 573 580
f 580 573 571
f 564 580 581
f 581 580 564
f 572 581 589
f 589 581 572
f 590 573 572
f 572 573 590
f 565 581 580
f 580 581 565
f 580 582 565
f 565 582 580
f 577 574 582
f 582 574 577
f 574 576 583
f 583 576 574
f 591 584 575
f 575 584 591
f 575 583 592
f 592 583 575
f 576 584 593
f 593 584 576
f 589 581 577
f 577 581 589
f 568 579 585
f 585 579 568
f 569 585 594
f 594 585 569
f 569 595 586
f 586 595 569
f 596 578 586
f 586 578 596
f 597 562 587
f 587 562 597
f 587 578 598
f 598 578 587
f 588 562 597
f 597 562 588
f 588 585 579
f 579 585 588
f 580 573 599
f 599 573 580
f 572 589 600
f 600 589 572
f 573 590 601
f 601 590 573
f 572 600 590
f 590 600 572
f 582 580 599
f 599 580 582
f 599 577 582
f 582 577 599
f 593 583 576
f 576 583 593
f 584 591 602
f 602 591 584
f 575 592 591
f 591 592 575
f 583 593 592
f 592 593 583
f 593 584 602
f 602 584 593
f 577 599 589
f 589 599 577
f 585 588 594
f 594 588 585
f 569 594 600
f 600 594 569
f 569 600 595
f 595 600 569
f 586 595 596
f 596 595 586
f 578 596 598
f 598 596 578
f 595 597 587
f 587 597 595
f 587 598 603
f 603 598 587
f 597 604 588
f 588 604 597
f 599 573 597
f 597 573 599
f 599 600 589
f 589 600 599
f 605 601 590
f 590 601 605
f 597 573 601
f 601 573 597
f 590 600 605
f 605 600 590
f 606 602 591
f 591 602 606
f 591 592 606
f 606 592 591
f 607 592 593
f 593 592 607
f 593 602 607
f 607 602 593
f 604 594 588
f 588 594 604
f 605 600 594
f 594 600 605
f 597 595 600
f 600 595 597
f 596 595 608
f 608 595 596
f 609 598 596
f 596 598 609
f 603 595 587
f 587 595 603
f 603 598 610
f 610 598 603
f 597 601 604
f 604 601 597
f 600 599 597
f 597 599 600
f 601 605 604
f 604 605 601
f 602 606 607
f 607 606 602
f 592 607 606
f 606 607 592
f 594 604 605
f 605 604 594
f 595 603 608
f 608 603 595
f 596 608 609
f 609 608 596
f 598 609 610
f 610 609 598
f 603 610 611
f 611 610 603
f 611 608 603
f 603 608 611
f 609 608 612
f 612 608 609
f 612 610 609
f 609 610 612
f 610 612 611
f 611 612 610
f 608 611 612
f 612 611 608
f 613 614 615
f 614 613 616
f 615 614 613
f 616 613 614
f 617 615 614
f 614 615 617
f 615 618 613
f 613 618 615
f 616 613 619
f 619 613 616
f 616 617 614
f 614 617 616
f 615 617 620
f 620 617 615
f 618 615 620
f 620 615 618
f 618 621 613
f 613 621 618
f 619 613 622
f 622 613 619
f 619 623 616
f 616 623 619
f 617 616 624
f 624 616 617
f 617 618 620
f 620 618 617
f 621 618 625
f 625 618 621
f 622 613 621
f 621 613 622
f 622 626 619
f 619 626 622
f 623 619 627
f 627 619 623
f 628 616 623
f 623 616 628
f 616 628 624
f 624 628 616
f 618 617 624
f 624 617 618
f 618 629 625
f 625 629 618
f 630 621 625
f 625 621 630
f 622 621 627
f 627 621 622
f 626 622 629
f 629 622 626
f 626 627 619
f 619 627 626
f 627 631 623
f 623 631 627
f 632 628 623
f 623 628 632
f 628 626 624
f 624 626 628
f 618 624 626
f 626 624 618
f 618 626 629
f 629 626 618
f 625 629 633
f 633 629 625
f 621 630 631
f 631 630 621
f 625 633 630
f 630 633 625
f 627 621 631
f 631 621 627
f 627 629 622
f 622 629 627
f 627 626 633
f 633 626 627
f 623 631 632
f 632 631 623
f 628 632 634
f 634 632 628
f 626 628 633
f 633 628 626
f 629 627 633
f 633 627 629
f 630 632 631
f 631 632 630
f 630 633 628
f 628 633 630
f 632 630 634
f 634 630 632
f 630 628 634
f 634 628 630
f 635 636 637
f 636 635 638
f 637 636 635
f 638 635 636
f 636 639 637
f 637 639 636
f 637 640 635
f 635 640 637
f 638 635 641
f 641 635 638
f 638 642 636
f 636 642 638
f 639 636 642
f 642 636 639
f 640 637 639
f 639 637 640
f 643 635 640
f 640 635 643
f 635 643 641
f 641 643 635
f 638 641 644
f 644 641 638
f 642 638 645
f 645 638 642
f 642 640 639
f 639 640 642
f 640 645 643
f 643 645 640
f 646 641 643
f 643 641 646
f 644 641 647
f 647 641 644
f 644 645 638
f 638 645 644
f 640 642 645
f 645 642 640
f 643 645 648
f 648 645 643
f 641 646 647
f 647 646 641
f 643 648 646
f 646 648 643
f 644 647 649
f 649 647 644
f 645 644 648
f 648 644 645
f 650 647 646
f 646 647 650
f 646 648 651
f 651 648 646
f 649 647 652
f 652 647 649
f 649 648 644
f 644 648 649
f 647 650 652
f 652 650 647
f 646 651 650
f 650 651 646
f 648 649 651
f 651 649 648
f 649 652 653
f 653 652 649
f 650 654 652
f 652 654 650
f 650 651 655
f 655 651 650
f 649 655 651
f 651 655 649
f 653 652 654
f 654 652 653
f 655 649 653
f 653 649 655
f 654 650 656
f 656 650 654
f 650 655 656
f 656 655 650
f 653 654 657
f 657 654 653
f 653 658 655
f 655 658 653
f 656 659 654
f 654 659 656
f 656 655 660
f 660 655 656
f 657 654 661
f 661 654 657
f 653 657 662
f 662 657 653
f 658 653 662
f 662 653 658
f 660 655 658
f 658 655 660
f 659 656 663
f 663 656 659
f 661 654 659
f 659 654 661
f 656 660 664
f 664 660 656
f 661 660 657
f 657 660 661
f 665 662 657
f 657 662 665
f 662 666 658
f 658 666 662
f 658 667 660
f 660 667 658
f 656 664 663
f 663 664 656
f 663 668 659
f 659 668 663
f 661 659 669
f 669 659 661
f 660 661 664
f 664 661 660
f 667 657 660
f 660 657 667
f 662 665 670
f 670 665 662
f 657 667 665
f 665 667 657
f 666 662 670
f 670 662 666
f 667 658 666
f 666 658 667
f 663 664 671
f 671 664 663
f 668 663 672
f 672 663 668
f 673 659 668
f 668 659 673
f 669 659 673
f 673 659 669
f 669 664 661
f 661 664 669
f 670 665 674
f 674 665 670
f 675 665 667
f 667 665 675
f 670 676 666
f 666 676 670
f 667 666 675
f 675 666 667
f 664 669 671
f 671 669 664
f 663 671 677
f 677 671 663
f 663 677 672
f 672 677 663
f 672 678 668
f 668 678 672
f 673 668 679
f 679 668 673
f 677 669 673
f 673 669 677
f 665 675 674
f 674 675 665
f 670 674 680
f 680 674 670
f 676 670 681
f 681 670 676
f 682 666 676
f 676 666 682
f 675 666 683
f 683 666 675
f 669 677 671
f 671 677 669
f 672 677 684
f 684 677 672
f 678 672 685
f 685 672 678
f 679 668 678
f 678 668 679
f 684 673 679
f 679 673 684
f 673 684 677
f 677 684 673
f 675 680 674
f 674 680 675
f 670 680 686
f 686 680 670
f 670 686 681
f 681 686 670
f 681 687 676
f 676 687 681
f 683 666 682
f 682 666 683
f 682 676 688
f 688 676 682
f 680 675 683
f 683 675 680
f 672 684 685
f 685 684 672
f 685 689 678
f 678 689 685
f 679 678 689
f 689 678 679
f 679 690 684
f 684 690 679
f 683 686 680
f 680 686 683
f 681 686 691
f 691 686 681
f 687 681 692
f 692 681 687
f 688 676 687
f 687 676 688
f 686 683 682
f 682 683 686
f 691 682 688
f 688 682 691
f 685 684 693
f 693 684 685
f 689 685 693
f 693 685 689
f 679 689 694
f 694 689 679
f 690 679 694
f 694 679 690
f 693 684 690
f 690 684 693
f 682 691 686
f 686 691 682
f 681 691 692
f 692 691 681
f 692 695 687
f 687 695 692
f 688 687 696
f 696 687 688
f 688 697 691
f 691 697 688
f 693 698 689
f 689 698 693
f 694 689 698
f 698 689 694
f 694 699 690
f 690 699 694
f 693 690 700
f 700 690 693
f 692 691 697
f 697 691 692
f 695 692 701
f 701 692 695
f 696 687 695
f 695 687 696
f 697 688 696
f 696 688 697
f 698 693 700
f 700 693 698
f 694 698 702
f 702 698 694
f 699 694 702
f 702 694 699
f 700 690 699
f 699 690 700
f 692 697 701
f 701 697 692
f 701 703 695
f 695 703 701
f 696 695 703
f 703 695 696
f 696 704 697
f 697 704 696
f 700 705 698
f 698 705 700
f 702 698 705
f 705 698 702
f 702 706 699
f 699 706 702
f 700 699 707
f 707 699 700
f 701 697 708
f 708 697 701
f 703 701 708
f 708 701 703
f 696 703 709
f 709 703 696
f 704 696 709
f 709 696 704
f 708 697 704
f 704 697 708
f 705 700 707
f 707 700 705
f 702 705 710
f 710 705 702
f 706 702 710
f 710 702 706
f 707 699 706
f 706 699 707
f 711 703 708
f 708 703 711
f 709 703 712
f 712 703 709
f 709 713 704
f 704 713 709
f 708 704 711
f 711 704 708
f 707 714 705
f 705 714 707
f 710 705 714
f 714 705 710
f 710 715 706
f 706 715 710
f 707 706 716
f 716 706 707
f 703 711 712
f 712 711 703
f 709 712 717
f 717 712 709
f 713 709 718
f 718 709 713
f 719 704 713
f 713 704 719
f 711 704 720
f 720 704 711
f 714 707 716
f 716 707 714
f 710 714 721
f 721 714 710
f 715 710 721
f 721 710 715
f 716 706 715
f 715 706 716
f 720 712 711
f 711 712 720
f 712 720 717
f 717 720 712
f 717 722 709
f 709 722 717
f 709 722 718
f 718 722 709
f 723 713 718
f 718 713 723
f 719 720 704
f 704 720 719
f 719 713 724
f 724 713 719
f 725 714 716
f 716 714 725
f 721 714 726
f 726 714 721
f 721 725 715
f 715 725 721
f 716 715 725
f 725 715 716
f 727 717 720
f 720 717 727
f 717 728 722
f 722 728 717
f 718 722 729
f 729 722 718
f 713 723 730
f 730 723 713
f 718 731 723
f 723 731 718
f 732 720 719
f 719 720 732
f 724 713 733
f 733 713 724
f 724 722 719
f 719 722 724
f 714 725 726
f 726 725 714
f 725 721 726
f 726 721 725
f 717 727 734
f 734 727 717
f 732 727 720
f 720 727 732
f 734 728 717
f 717 728 734
f 732 722 728
f 728 722 732
f 722 724 729
f 729 724 722
f 718 729 731
f 731 729 718
f 735 730 723
f 723 730 735
f 733 713 730
f 730 713 733
f 723 731 736
f 736 731 723
f 722 732 719
f 719 732 722
f 733 729 724
f 724 729 733
f 737 734 727
f 727 734 737
f 732 737 727
f 727 737 732
f 738 728 734
f 734 728 738
f 728 739 732
f 732 739 728
f 729 733 731
f 731 733 729
f 730 735 740
f 740 735 730
f 723 736 735
f 735 736 723
f 733 730 741
f 741 730 733
f 731 741 736
f 736 741 731
f 734 737 738
f 738 737 734
f 739 737 732
f 732 737 739
f 738 742 728
f 728 742 738
f 739 728 742
f 742 728 739
f 741 731 733
f 733 731 741
f 736 740 735
f 735 740 736
f 741 730 740
f 740 730 741
f 740 736 741
f 741 736 740
f 737 743 738
f 738 743 737
f 739 744 737
f 737 744 739
f 743 742 738
f 738 742 743
f 742 745 739
f 739 745 742
f 743 737 744
f 744 737 743
f 739 746 744
f 744 746 739
f 747 742 743
f 743 742 747
f 745 742 748
f 748 742 745
f 745 746 739
f 739 746 745
f 744 747 743
f 743 747 744
f 747 744 746
f 746 744 747
f 747 748 742
f 742 748 747
f 748 749 745
f 745 749 748
f 749 746 745
f 745 746 749
f 746 750 747
f 747 750 746
f 747 751 748
f 748 751 747
f 749 748 751
f 751 748 749
f 749 752 746
f 746 752 749
f 750 746 752
f 752 746 750
f 750 751 747
f 747 751 750
f 751 753 749
f 749 753 751
f 749 754 752
f 752 754 749
f 752 755 750
f 750 755 752
f 755 751 750
f 750 751 755
f 753 751 756
f 756 751 753
f 753 754 749
f 749 754 753
f 755 752 754
f 754 752 755
f 755 756 751
f 751 756 755
f 756 757 753
f 753 757 756
f 753 758 754
f 754 758 753
f 754 759 755
f 755 759 754
f 759 756 755
f 755 756 759
f 757 756 760
f 760 756 757
f 757 758 753
f 753 758 757
f 759 754 758
f 758 754 759
f 759 760 756
f 756 760 759
f 760 761 757
f 757 761 760
f 757 762 758
f 758 762 757
f 758 763 759
f 759 763 758
f 763 760 759
f 759 760 763
f 761 760 764
f 764 760 761
f 761 765 757
f 757 765 761
f 757 765 762
f 762 765 757
f 763 758 762
f 762 758 763
f 766 760 763
f 763 760 766
f 760 767 764
f 764 767 760
f 767 761 764
f 764 761 767
f 765 761 768
f 768 761 765
f 766 762 765
f 765 762 766
f 762 766 763
f 763 766 762
f 767 760 766
f 766 760 767
f 761 767 768
f 768 767 761
f 767 765 768
f 768 765 767
f 765 767 766
f 766 767 765
f 769 770 771
f 770 769 772
f 771 770 769
f 772 769 770
f 770 773 771
f 771 773 770
f 774 769 771
f 771 769 774
f 775 772 769
f 769 772 775
f 770 772 776
f 776 772 770
f 773 770 777
f 777 770 773
f 778 771 773
f 773 771 778
f 774 779 769
f 769 779 774
f 774 771 780
f 780 771 774
f 772 775 781
f 781 775 772
f 779 775 769
f 769 775 779
f 776 772 782
f 782 772 776
f 776 777 770
f 770 777 776
f 777 775 773
f 773 775 777
f 771 778 780
f 780 778 771
f 773 783 778
f 778 783 773
f 784 779 774
f 774 779 784
f 774 780 785
f 785 780 774
f 775 777 781
f 781 777 775
f 781 786 772
f 772 786 781
f 775 779 787
f 787 779 775
f 782 772 786
f 786 772 782
f 782 788 776
f 776 788 782
f 777 776 788
f 788 776 777
f 775 783 773
f 773 783 775
f 789 780 778
f 778 780 789
f 778 783 790
f 790 783 778
f 784 791 779
f 779 791 784
f 774 792 784
f 784 792 774
f 785 780 793
f 793 780 785
f 790 774 785
f 785 774 790
f 781 777 788
f 788 777 781
f 786 781 794
f 794 781 786
f 791 787 779
f 779 787 791
f 787 783 775
f 775 783 787
f 782 786 795
f 795 786 782
f 788 782 796
f 796 782 788
f 780 789 793
f 793 789 780
f 778 790 789
f 789 790 778
f 774 790 783
f 783 790 774
f 797 791 784
f 784 791 797
f 792 774 783
f 783 774 792
f 798 784 792
f 792 784 798
f 785 793 799
f 799 793 785
f 785 800 790
f 790 800 785
f 781 788 796
f 796 788 781
f 781 796 794
f 794 796 781
f 794 801 786
f 786 801 794
f 787 791 802
f 802 791 787
f 787 792 783
f 783 792 787
f 795 786 803
f 803 786 795
f 795 796 782
f 782 796 795
f 804 793 789
f 789 793 804
f 789 790 804
f 804 790 789
f 797 805 791
f 791 805 797
f 784 798 797
f 797 798 784
f 802 798 792
f 792 798 802
f 793 804 799
f 799 804 793
f 785 799 806
f 806 799 785
f 800 785 806
f 806 785 800
f 804 790 800
f 800 790 804
f 794 796 807
f 807 796 794
f 801 794 808
f 808 794 801
f 803 786 801
f 801 786 803
f 805 802 791
f 791 802 805
f 802 792 787
f 787 792 802
f 803 807 795
f 795 807 803
f 796 795 807
f 807 795 796
f 809 805 797
f 797 805 809
f 810 797 798
f 798 797 810
f 811 798 802
f 802 798 811
f 812 799 804
f 804 799 812
f 806 799 813
f 813 799 806
f 806 814 800
f 800 814 806
f 804 800 812
f 812 800 804
f 794 807 815
f 815 807 794
f 794 815 808
f 808 815 794
f 808 816 801
f 801 816 808
f 803 801 817
f 817 801 803
f 802 805 811
f 811 805 802
f 807 803 815
f 815 803 807
f 805 809 818
f 818 809 805
f 797 810 809
f 809 810 797
f 811 810 798
f 798 810 811
f 799 812 813
f 813 812 799
f 806 813 819
f 819 813 806
f 814 806 820
f 820 806 814
f 821 800 814
f 814 800 821
f 812 800 821
f 821 800 812
f 808 815 822
f 822 815 808
f 816 808 823
f 823 808 816
f 824 801 816
f 816 801 824
f 817 801 824
f 824 801 817
f 822 803 817
f 817 803 822
f 818 811 805
f 805 811 818
f 803 822 815
f 815 822 803
f 809 825 818
f 818 825 809
f 825 809 810
f 810 809 825
f 810 811 825
f 825 811 810
f 821 813 812
f 812 813 821
f 813 821 819
f 819 821 813
f 806 819 820
f 820 819 806
f 820 826 814
f 814 826 820
f 821 814 827
f 827 814 821
f 808 822 828
f 828 822 808
f 808 828 823
f 823 828 808
f 823 829 816
f 816 829 823
f 824 816 830
f 830 816 824
f 828 817 824
f 824 817 828
f 817 828 822
f 822 828 817
f 811 818 825
f 825 818 811
f 821 831 819
f 819 831 821
f 820 819 831
f 831 819 820
f 826 820 832
f 832 820 826
f 833 814 826
f 826 814 833
f 827 814 833
f 833 814 827
f 831 821 827
f 827 821 831
f 823 828 834
f 834 828 823
f 829 823 835
f 835 823 829
f 830 816 829
f 829 816 830
f 834 824 830
f 830 824 834
f 824 834 828
f 828 834 824
f 820 831 836
f 836 831 820
f 820 836 832
f 832 836 820
f 832 837 826
f 826 837 832
f 833 826 838
f 838 826 833
f 836 827 833
f 833 827 836
f 827 836 831
f 831 836 827
f 823 834 835
f 835 834 823
f 835 839 829
f 829 839 835
f 830 829 840
f 840 829 830
f 830 841 834
f 834 841 830
f 832 836 842
f 842 836 832
f 837 832 843
f 843 832 837
f 838 826 837
f 837 826 838
f 842 833 838
f 838 833 842
f 833 842 836
f 836 842 833
f 835 834 841
f 841 834 835
f 839 835 844
f 844 835 839
f 845 829 839
f 839 829 845
f 840 829 845
f 845 829 840
f 841 830 840
f 840 830 841
f 832 842 843
f 843 842 832
f 843 846 837
f 837 846 843
f 838 837 847
f 847 837 838
f 838 848 842
f 842 848 838
f 835 841 849
f 849 841 835
f 835 849 844
f 844 849 835
f 844 850 839
f 839 850 844
f 845 839 851
f 851 839 845
f 849 840 845
f 845 840 849
f 840 849 841
f 841 849 840
f 843 842 848
f 848 842 843
f 846 843 852
f 852 843 846
f 853 837 846
f 846 837 853
f 847 837 853
f 853 837 847
f 848 838 847
f 847 838 848
f 844 849 854
f 854 849 844
f 850 844 855
f 855 844 850
f 856 839 850
f 850 839 856
f 851 839 856
f 856 839 851
f 854 845 851
f 851 845 854
f 845 854 849
f 849 854 845
f 843 848 857
f 857 848 843
f 843 857 852
f 852 857 843
f 852 858 846
f 846 858 852
f 853 846 859
f 859 846 853
f 857 847 853
f 853 847 857
f 847 857 848
f 848 857 847
f 844 854 860
f 860 854 844
f 844 860 855
f 855 860 844
f 855 861 850
f 850 861 855
f 856 850 862
f 862 850 856
f 856 854 851
f 851 854 856
f 852 857 863
f 863 857 852
f 858 852 864
f 864 852 858
f 865 846 858
f 858 846 865
f 859 846 865
f 865 846 859
f 863 853 859
f 859 853 863
f 853 863 857
f 857 863 853
f 854 856 860
f 860 856 854
f 855 860 866
f 866 860 855
f 861 855 867
f 867 855 861
f 868 850 861
f 861 850 868
f 862 850 868
f 868 850 862
f 862 860 856
f 856 860 862
f 852 863 869
f 869 863 852
f 852 869 864
f 864 869 852
f 864 870 858
f 858 870 864
f 865 858 871
f 871 858 865
f 865 863 859
f 859 863 865
f 860 862 866
f 866 862 860
f 855 866 872
f 872 866 855
f 855 872 867
f 867 872 855
f 873 861 867
f 867 861 873
f 868 861 874
f 874 861 868
f 868 866 862
f 862 866 868
f 863 865 869
f 869 865 863
f 864 869 875
f 875 869 864
f 870 864 876
f 876 864 870
f 871 858 870
f 870 858 871
f 871 869 865
f 865 869 871
f 866 868 872
f 872 868 866
f 867 872 877
f 877 872 867
f 861 873 878
f 878 873 861
f 867 879 873
f 873 879 867
f 874 861 880
f 880 861 874
f 874 872 868
f 868 872 874
f 869 871 875
f 875 871 869
f 864 875 876
f 876 875 864
f 881 870 876
f 876 870 881
f 871 870 882
f 882 870 871
f 872 874 877
f 877 874 872
f 867 877 883
f 883 877 867
f 884 878 873
f 873 878 884
f 876 861 878
f 878 861 876
f 867 870 879
f 879 870 867
f 873 879 884
f 884 879 873
f 876 880 861
f 861 880 876
f 880 877 874
f 874 877 880
f 882 875 871
f 871 875 882
f 876 875 885
f 885 875 876
f 870 881 879
f 879 881 870
f 876 878 881
f 881 878 876
f 882 870 886
f 886 870 882
f 877 880 883
f 883 880 877
f 867 883 870
f 870 883 867
f 878 884 887
f 887 884 878
f 884 879 888
f 888 879 884
f 876 889 880
f 880 889 876
f 875 882 885
f 885 882 875
f 876 885 889
f 889 885 876
f 890 879 881
f 881 879 890
f 881 878 887
f 887 878 881
f 886 870 883
f 883 870 886
f 886 885 882
f 882 885 886
f 889 883 880
f 880 883 889
f 891 887 884
f 884 887 891
f 879 890 888
f 888 890 879
f 884 888 891
f 891 888 884
f 885 886 889
f 889 886 885
f 881 887 890
f 890 887 881
f 883 889 886
f 886 889 883
f 887 891 892
f 892 891 887
f 893 888 890
f 890 888 893
f 891 888 894
f 894 888 891
f 890 887 892
f 892 887 890
f 895 892 891
f 891 892 895
f 888 893 894
f 894 893 888
f 890 892 893
f 893 892 890
f 891 894 895
f 895 894 891
f 892 895 896
f 896 895 892
f 896 894 893
f 893 894 896
f 893 892 896
f 896 892 893
f 894 896 895
f 895 896 894
f 897 898 899
f 898 897 900
f 899 898 897
f 900 897 898
f 898 901 899
f 899 901 898
f 901 897 899
f 899 897 901
f 900 897 902
f 902 897 900
f 903 898 900
f 900 898 903
f 901 898 904
f 904 898 901
f 897 901 905
f 905 901 897
f 902 897 906
f 906 897 902
f 902 907 900
f 900 907 902
f 898 903 908
f 908 903 898
f 907 903 900
f 900 903 907
f 898 909 904
f 904 909 898
f 904 910 901
f 901 910 904
f 901 910 905
f 905 910 901
f 910 897 905
f 905 897 910
f 897 910 906
f 906 910 897
f 910 902 906
f 906 902 910
f 907 902 911
f 911 902 907
f 912 908 903
f 903 908 912
f 909 898 908
f 908 898 909
f 903 907 913
f 913 907 903
f 909 907 904
f 904 907 909
f 907 910 904
f 904 910 907
f 902 910 911
f 911 910 902
f 910 907 911
f 911 907 910
f 912 914 908
f 908 914 912
f 903 915 912
f 912 915 903
f 914 909 908
f 908 909 914
f 907 909 913
f 913 909 907
f 915 903 913
f 913 903 915
f 916 914 912
f 912 914 916
f 915 916 912
f 912 916 915
f 909 914 917
f 917 914 909
f 917 913 909
f 909 913 917
f 917 915 913
f 913 915 917
f 914 916 918
f 918 916 914
f 916 915 919
f 919 915 916
f 914 920 917
f 917 920 914
f 920 915 917
f 917 915 920
f 916 920 918
f 918 920 916
f 920 914 918
f 918 914 920
f 915 920 919
f 919 920 915
f 920 916 919
f 919 916 920

