# https://github.com/mikedh/trimesh

o 2.obj
v -0.03469807 0.06038861 -0.07639856
v -0.03215831 0.06116337 -0.07542266
v -0.03452784 0.06191148 -0.07639856
v -0.03224477 0.06038861 -0.07542266
v -0.03190431 0.06188528 -0.07542266
v -0.03445841 0.06188953 -0.07835013
v -0.03452784 0.05886574 -0.07639856
v -0.02724947 0.06116337 -0.07542266
v -0.03402903 0.06333042 -0.07639856
v -0.02750347 0.06188528 -0.07542266
v -0.03462639 0.06038861 -0.07835013
v -0.03396676 0.06328809 -0.07835013
v -0.03215831 0.05961385 -0.07542266
v -0.02716302 0.06038861 -0.07542266
v -0.03150069 0.06250526 -0.07542266
v -0.02790709 0.06250526 -0.07542266
v -0.02478162 0.06038861 -0.07835013
v -0.02494938 0.06188953 -0.07835013
v -0.03190431 0.05889173 -0.07542266
v -0.03445841 0.05888769 -0.07835013
v -0.02487994 0.06191148 -0.07639856
v -0.02470972 0.06038861 -0.07639856
v -0.03323523 0.06454890 -0.07639856
v -0.03318461 0.06448909 -0.07835013
v -0.02537876 0.06333042 -0.07639856
v -0.02494938 0.05888769 -0.07835013
v -0.02544102 0.06328809 -0.07835013
v -0.03402903 0.05744680 -0.07639856
v -0.02724947 0.05961385 -0.07542266
v -0.02487994 0.05886574 -0.07639856
v -0.03097433 0.06298101 -0.07542266
v -0.02843345 0.06298101 -0.07542266
v -0.02617233 0.06454890 -0.07639856
v -0.03150069 0.05827196 -0.07542266
v -0.02750347 0.05889173 -0.07542266
v -0.02544102 0.05748914 -0.07835013
v -0.03396676 0.05748914 -0.07835013
v -0.03220087 0.06548403 -0.07639856
v -0.02622318 0.06448909 -0.07835013
v -0.03323523 0.05622811 -0.07639856
v -0.03036151 0.06328003 -0.07542266
v -0.02904628 0.06328003 -0.07542266
v -0.03216503 0.06541079 -0.07835013
v -0.02720669 0.06548403 -0.07639856
v -0.03097433 0.05779600 -0.07542266
v -0.02790709 0.05827196 -0.07542266
v -0.02537876 0.05744680 -0.07639856
v -0.03318461 0.05628791 -0.07835013
v -0.03099651 0.06607176 -0.07639856
v -0.02724275 0.06541079 -0.07835013
v -0.03220087 0.05529320 -0.07639856
v -0.02622318 0.05628791 -0.07835013
v -0.02970389 0.06338216 -0.07542266
v -0.02841128 0.06607176 -0.07639856
v -0.03097792 0.06599001 -0.07835013
v -0.03036151 0.05749720 -0.07542266
v -0.02843345 0.05779600 -0.07542266
v -0.02617233 0.05622811 -0.07639856
v -0.02724275 0.05536644 -0.07835013
v -0.03216503 0.05536644 -0.07835013
v -0.02970389 0.06627223 -0.07639856
v -0.02842987 0.06599001 -0.07835013
v -0.03099651 0.05470524 -0.07639856
v -0.02720669 0.05529320 -0.07639856
v -0.02970389 0.06618756 -0.07835013
v -0.02970389 0.05739506 -0.07542266
v -0.02904628 0.05749720 -0.07542266
v -0.02841128 0.05470524 -0.07639856
v -0.02842987 0.05478721 -0.07835013
v -0.03097792 0.05478721 -0.07835013
v -0.02970389 0.05450477 -0.07639856
v -0.02970389 0.05458966 -0.07835013
v -0.00970210 0.06072011 -0.07689289
v -0.00759396 0.06123236 -0.07616427
v -0.00956077 0.06172714 -0.07689289
v -0.00766586 0.06072011 -0.07616427
v -0.00738342 0.06170990 -0.07616427
v -0.00950320 0.06171258 -0.07835013
v -0.00956077 0.05971308 -0.07689289
v -0.00351969 0.06123236 -0.07616427
v -0.00914684 0.06266564 -0.07689289
v -0.00373046 0.06170990 -0.07616427
v -0.00964252 0.06072011 -0.07835013
v -0.00909510 0.06263764 -0.07835013
v -0.00759396 0.06020786 -0.07616427
v -0.00344779 0.06072011 -0.07616427
v -0.00704811 0.06211979 -0.07616427
v -0.00406554 0.06211979 -0.07616427
v -0.00147135 0.06072011 -0.07835013
v -0.00161045 0.06171258 -0.07835013
v -0.00738342 0.05973032 -0.07616427
v -0.00950320 0.05972764 -0.07835013
v -0.00155288 0.06172714 -0.07689289
v -0.00141155 0.06072011 -0.07689289
v -0.00848811 0.06347153 -0.07689289
v -0.00844577 0.06343189 -0.07835013
v -0.00196703 0.06266564 -0.07689289
v -0.00161045 0.05972764 -0.07835013
v -0.00201855 0.06263764 -0.07835013
v -0.00914684 0.05877458 -0.07689289
v -0.00351969 0.06020786 -0.07616427
v -0.00155288 0.05971308 -0.07689289
v -0.00661134 0.06243448 -0.07616427
v -0.00450231 0.06243448 -0.07616427
v -0.00262577 0.06347153 -0.07689289
v -0.00704811 0.05932043 -0.07616427
v -0.00373046 0.05973032 -0.07616427
v -0.00201855 0.05880258 -0.07835013
v -0.00909510 0.05880258 -0.07835013
v -0.00762957 0.06408973 -0.07689289
v -0.00266788 0.06343189 -0.07835013
v -0.00848811 0.05796891 -0.07689289
v -0.00610267 0.06263226 -0.07616427
v -0.00501098 0.06263226 -0.07616427
v -0.00759956 0.06404112 -0.07835013
v -0.00348430 0.06408973 -0.07689289
v -0.00661134 0.05900573 -0.07616427
v -0.00406554 0.05932043 -0.07616427
v -0.00196703 0.05877458 -0.07689289
v -0.00844577 0.05800856 -0.07835013
v -0.00662971 0.06447834 -0.07689289
v -0.00351409 0.06404112 -0.07835013
v -0.00762957 0.05735049 -0.07689289
v -0.00266788 0.05800856 -0.07835013
v -0.00555705 0.06269968 -0.07616427
v -0.00448394 0.06447834 -0.07689289
v -0.00661425 0.06442436 -0.07835013
v -0.00610267 0.05880818 -0.07616427
v -0.00450231 0.05900573 -0.07616427
v -0.00262577 0.05796891 -0.07689289
v -0.00351409 0.05739910 -0.07835013
v -0.00759956 0.05739910 -0.07835013
v -0.00555705 0.06461094 -0.07689289
v -0.00449940 0.06442436 -0.07835013
v -0.00662971 0.05696188 -0.07689289
v -0.00348430 0.05735049 -0.07689289
v -0.00555705 0.06455494 -0.07835013
v -0.00555705 0.05874054 -0.07616427
v -0.00501098 0.05880818 -0.07616427
v -0.00448394 0.05696188 -0.07689289
v -0.00449940 0.05701586 -0.07835013
v -0.00661425 0.05701586 -0.07835013
v -0.00555705 0.05682928 -0.07689289
v -0.00555705 0.05688528 -0.07835013
v -0.16539511 0.02231286 -0.07249541
v -0.15329526 0.03236639 -0.07249541
v -0.16539511 0.03236639 -0.07249541
v -0.15329526 0.02231286 -0.07249541
v -0.15103167 0.03391592 -0.07835013
v -0.16765892 0.02076356 -0.07835013
v -0.15103167 0.02076356 -0.07835013
v -0.16765892 0.03391592 -0.07835013
v -0.16479595 -0.00704162 -0.07249541
v -0.15232182 0.00732070 -0.07249541
v -0.16479595 0.00732070 -0.07249541
v -0.15232182 -0.00704162 -0.07249541
v -0.14998813 0.00953389 -0.07835013
v -0.16712964 -0.00925503 -0.07835013
v -0.14998813 -0.00925503 -0.07835013
v -0.16712964 0.00953389 -0.07835013
v -0.16465126 -0.04524705 -0.07249541
v -0.13515545 -0.03088474 -0.07249541
v -0.16465126 -0.03088474 -0.07249541
v -0.13515545 -0.04524705 -0.07249541
v -0.13267728 -0.02867155 -0.07835013
v -0.16712964 -0.02867155 -0.07835013
v -0.13267728 -0.04746047 -0.07835013
v -0.16712964 -0.04746047 -0.07835013
v -0.16528916 -0.02614434 -0.07249541
v -0.14338575 -0.01178224 -0.07249541
v -0.16528916 -0.01178224 -0.07249541
v -0.14338575 -0.02614434 -0.07249541
v -0.14154527 -0.00956883 -0.07835013
v -0.16712964 -0.00956883 -0.07835013
v -0.14154527 -0.02835775 -0.07835013
v -0.16712964 -0.02835775 -0.07835013
v -0.16419186 -0.06434977 -0.07249541
v -0.12922770 -0.04998746 -0.07249541
v -0.16419186 -0.04998746 -0.07249541
v -0.12922770 -0.06434977 -0.07249541
v -0.12628993 -0.04777427 -0.07835013
v -0.16712964 -0.04777427 -0.07835013
v -0.12628993 -0.06656319 -0.07835013
v -0.16712964 -0.06656319 -0.07835013
v -0.14121355 -0.08345249 -0.07249541
v -0.14384245 -0.06687699 -0.07835013
v -0.14384245 -0.08566591 -0.07835013
v -0.14121355 -0.06909040 -0.07249541
v -0.12152556 -0.08566591 -0.07835013
v -0.12415446 -0.06909040 -0.07249541
v -0.12152556 -0.06687699 -0.07835013
v -0.12415446 -0.08345249 -0.07249541
v -0.16450074 -0.08345249 -0.07249541
v -0.16712964 -0.06687699 -0.07835013
v -0.16712964 -0.08566591 -0.07835013
v -0.16450074 -0.06909040 -0.07249541
v -0.14481275 -0.08566591 -0.07835013
v -0.14744165 -0.06909040 -0.07249541
v -0.14481275 -0.06687699 -0.07835013
v -0.14744165 -0.08345249 -0.07249541
v -0.11792635 -0.08345249 -0.07249541
v -0.12055526 -0.06687699 -0.07835013
v -0.12055526 -0.08566591 -0.07835013
v -0.11792635 -0.06909040 -0.07249541
v -0.09823859 -0.08566591 -0.07835013
v -0.10086749 -0.06909040 -0.07249541
v -0.09823859 -0.06687699 -0.07835013
v -0.10086749 -0.08345249 -0.07249541
v -0.09390024 -0.08345249 -0.07249541
v 0.01598687 -0.06909040 -0.07249541
v -0.09390024 -0.06909040 -0.07249541
v 0.01598687 -0.08345249 -0.07249541
v 0.01995991 -0.06687699 -0.07835013
v -0.09787305 -0.06687699 -0.07835013
v 0.01995991 -0.08566591 -0.07835013
v -0.09787305 -0.08566591 -0.07835013
v -0.12321171 -0.06434977 -0.07249541
v -0.11073758 -0.04998746 -0.07249541
v -0.12321171 -0.04998746 -0.07249541
v -0.11073758 -0.06434977 -0.07249541
v -0.10840389 -0.04777427 -0.07835013
v -0.12554540 -0.06656319 -0.07835013
v -0.10840389 -0.06656319 -0.07835013
v -0.12554540 -0.04777427 -0.07835013
v -0.10557004 -0.06434977 -0.07249541
v -0.09309591 -0.04998746 -0.07249541
v -0.10557004 -0.04998746 -0.07249541
v -0.09309591 -0.06434977 -0.07249541
v -0.09076222 -0.04777427 -0.07835013
v -0.10790373 -0.06656319 -0.07835013
v -0.09076222 -0.06656319 -0.07835013
v -0.10790373 -0.04777427 -0.07835013
v -0.11187049 -0.04524705 -0.07249541
v -0.09939659 -0.03088474 -0.07249541
v -0.11187049 -0.03088474 -0.07249541
v -0.09939659 -0.04524705 -0.07249541
v -0.09706267 -0.02867155 -0.07835013
v -0.11420441 -0.04746047 -0.07835013
v -0.09706267 -0.04746047 -0.07835013
v -0.11420441 -0.02867155 -0.07835013
v -0.12951239 -0.04524705 -0.07249541
v -0.11703826 -0.03088474 -0.07249541
v -0.12951239 -0.03088474 -0.07249541
v -0.11703826 -0.04524705 -0.07249541
v -0.11470456 -0.02867155 -0.07835013
v -0.13184608 -0.04746047 -0.07835013
v -0.11470456 -0.04746047 -0.07835013
v -0.13184608 -0.02867155 -0.07835013
v -0.13833311 -0.02614434 -0.07249541
v -0.12585920 -0.01178224 -0.07249541
v -0.13833311 -0.01178224 -0.07249541
v -0.12585920 -0.02614434 -0.07249541
v -0.12352551 -0.00956883 -0.07835013
v -0.14066703 -0.02835775 -0.07835013
v -0.12352551 -0.02835775 -0.07835013
v -0.14066703 -0.00956883 -0.07835013
v -0.12069144 -0.02614434 -0.07249541
v -0.10821731 -0.01178224 -0.07249541
v -0.12069144 -0.01178224 -0.07249541
v -0.10821731 -0.02614434 -0.07249541
v -0.10588362 -0.00956883 -0.07835013
v -0.12302513 -0.02835775 -0.07835013
v -0.10588362 -0.02835775 -0.07835013
v -0.12302513 -0.00956883 -0.07835013
v -0.12951239 -0.00704162 -0.07249541
v -0.11703826 0.00732070 -0.07249541
v -0.12951239 0.00732070 -0.07249541
v -0.11703826 -0.00704162 -0.07249541
v -0.11470456 0.00953389 -0.07835013
v -0.13184608 -0.00925503 -0.07835013
v -0.11470456 -0.00925503 -0.07835013
v -0.13184608 0.00953389 -0.07835013
v -0.14715406 -0.00704162 -0.07249541
v -0.13468015 0.00732070 -0.07249541
v -0.14715406 0.00732070 -0.07249541
v -0.13468015 -0.00704162 -0.07249541
v -0.13234623 0.00953389 -0.07835013
v -0.14948775 -0.00925503 -0.07835013
v -0.13234623 -0.00925503 -0.07835013
v -0.14948775 0.00953389 -0.07835013
v -0.11187049 -0.00704162 -0.07249541
v -0.09939659 0.00732070 -0.07249541
v -0.11187049 0.00732070 -0.07249541
v -0.09939659 -0.00704162 -0.07249541
v -0.09706267 0.00953389 -0.07835013
v -0.11420441 -0.00925503 -0.07835013
v -0.09706267 -0.00925503 -0.07835013
v -0.11420441 0.00953389 -0.07835013
v -0.10304977 -0.02614434 -0.07249541
v -0.09057564 -0.01178224 -0.07249541
v -0.10304977 -0.01178224 -0.07249541
v -0.09057564 -0.02614434 -0.07249541
v -0.08824195 -0.00956883 -0.07835013
v -0.10538346 -0.02835775 -0.07835013
v -0.08824195 -0.02835775 -0.07835013
v -0.10538346 -0.00956883 -0.07835013
v -0.08540788 -0.02614434 -0.07249541
v -0.07293397 -0.01178224 -0.07249541
v -0.08540788 -0.01178224 -0.07249541
v -0.07293397 -0.02614434 -0.07249541
v -0.07060005 -0.00956883 -0.07835013
v -0.08774179 -0.02835775 -0.07835013
v -0.07060005 -0.02835775 -0.07835013
v -0.08774179 -0.00956883 -0.07835013
v -0.09422882 -0.04524705 -0.07249541
v -0.08175469 -0.03088474 -0.07249541
v -0.09422882 -0.03088474 -0.07249541
v -0.08175469 -0.04524705 -0.07249541
v -0.07942100 -0.02867155 -0.07835013
v -0.09656251 -0.04746047 -0.07835013
v -0.07942100 -0.04746047 -0.07835013
v -0.09656251 -0.02867155 -0.07835013
v -0.06177933 -0.04746047 -0.07835013
v -0.07892084 -0.02867155 -0.07835013
v -0.06177933 -0.02867155 -0.07835013
v -0.07892084 -0.04746047 -0.07835013
v -0.07658693 -0.03088474 -0.07249541
v -0.06411302 -0.03088474 -0.07249541
v -0.07658693 -0.04524705 -0.07249541
v -0.06411302 -0.04524705 -0.07249541
v -0.06878377 -0.04281929 -0.07249541
v -0.06878377 -0.04371993 -0.07249541
v -0.07256417 -0.04281929 -0.07249541
v -0.07256417 -0.04371993 -0.07249541
v -0.06878377 -0.04281929 -0.07190991
v -0.07256417 -0.04371993 -0.07190991
v -0.07256417 -0.04281929 -0.07190991
v -0.06878377 -0.04371993 -0.07190991
v -0.08792815 -0.06434977 -0.07249541
v -0.07545402 -0.04998746 -0.07249541
v -0.08792815 -0.04998746 -0.07249541
v -0.07545402 -0.06434977 -0.07249541
v -0.07312032 -0.04777427 -0.07835013
v -0.09026184 -0.06656319 -0.07835013
v -0.07312032 -0.06656319 -0.07835013
v -0.09026184 -0.04777427 -0.07835013
v -0.07028648 -0.06434977 -0.07249541
v -0.05781235 -0.04998746 -0.07249541
v -0.07028648 -0.04998746 -0.07249541
v -0.05781235 -0.06434977 -0.07249541
v -0.05547865 -0.04777427 -0.07835013
v -0.07262017 -0.06656319 -0.07835013
v -0.05547865 -0.06656319 -0.07835013
v -0.07262017 -0.04777427 -0.07835013
v -0.05264458 -0.06434977 -0.07249541
v -0.04017068 -0.04998746 -0.07249541
v -0.05264458 -0.04998746 -0.07249541
v -0.04017068 -0.06434977 -0.07249541
v -0.03783676 -0.04777427 -0.07835013
v -0.05497827 -0.06656319 -0.07835013
v -0.03783676 -0.06656319 -0.07835013
v -0.05497827 -0.04777427 -0.07835013
v -0.03500291 -0.06434977 -0.07249541
v -0.02252878 -0.04998746 -0.07249541
v -0.03500291 -0.04998746 -0.07249541
v -0.02252878 -0.06434977 -0.07249541
v -0.02019509 -0.04777427 -0.07835013
v -0.03733660 -0.06656319 -0.07835013
v -0.02019509 -0.06656319 -0.07835013
v -0.03733660 -0.04777427 -0.07835013
v -0.01736102 -0.06434977 -0.07249541
v -0.00488689 -0.04998746 -0.07249541
v -0.01736102 -0.04998746 -0.07249541
v -0.00488689 -0.06434977 -0.07249541
v -0.00255320 -0.04777427 -0.07835013
v -0.01969493 -0.06656319 -0.07835013
v -0.00255320 -0.06656319 -0.07835013
v -0.01969493 -0.04777427 -0.07835013
v 0.00028065 -0.06434977 -0.07249541
v 0.01275478 -0.04998746 -0.07249541
v 0.00028065 -0.04998746 -0.07249541
v 0.01275478 -0.06434977 -0.07249541
v 0.01508847 -0.04777427 -0.07835013
v -0.00205304 -0.06656319 -0.07835013
v 0.01508847 -0.06656319 -0.07835013
v -0.00205304 -0.04777427 -0.07835013
v 0.01792232 -0.06434977 -0.07249541
v 0.03039645 -0.04998746 -0.07249541
v 0.01792232 -0.04998746 -0.07249541
v 0.03039645 -0.06434977 -0.07249541
v 0.03273037 -0.04777427 -0.07835013
v 0.01558863 -0.06656319 -0.07835013
v 0.03273037 -0.06656319 -0.07835013
v 0.01558863 -0.04777427 -0.07835013
v 0.07169802 -0.06434977 -0.07249541
v 0.10875980 -0.04998746 -0.07249541
v 0.07169802 -0.04998746 -0.07249541
v 0.10875980 -0.06434977 -0.07249541
v 0.11187408 -0.04777427 -0.07835013
v 0.06858397 -0.04777427 -0.07835013
v 0.11187408 -0.06656319 -0.07835013
v 0.06858397 -0.06656319 -0.07835013
v 0.03556422 -0.06434977 -0.07249541
v 0.04803835 -0.04998746 -0.07249541
v 0.03556422 -0.04998746 -0.07249541
v 0.04803835 -0.06434977 -0.07249541
v 0.05037204 -0.04777427 -0.07835013
v 0.03323052 -0.06656319 -0.07835013
v 0.05037204 -0.06656319 -0.07835013
v 0.03323052 -0.04777427 -0.07835013
v 0.05320589 -0.06434977 -0.07249541
v 0.06568002 -0.04998746 -0.07249541
v 0.05320589 -0.04998746 -0.07249541
v 0.06568002 -0.06434977 -0.07249541
v 0.06801371 -0.04777427 -0.07835013
v 0.05087219 -0.06656319 -0.07835013
v 0.06801371 -0.06656319 -0.07835013
v 0.05087219 -0.04777427 -0.07835013
v 0.02325807 -0.08345249 -0.07249541
v 0.02062917 -0.06687699 -0.07835013
v 0.02062917 -0.08566591 -0.07835013
v 0.02325807 -0.06909040 -0.07249541
v 0.04294606 -0.08566591 -0.07835013
v 0.04031716 -0.06909040 -0.07249541
v 0.04294606 -0.06687699 -0.07835013
v 0.04031716 -0.08345249 -0.07249541
v 0.04594029 -0.08345249 -0.07249541
v 0.04331138 -0.06687699 -0.07835013
v 0.04331138 -0.08566591 -0.07835013
v 0.04594029 -0.06909040 -0.07249541
v 0.06562828 -0.08566591 -0.07835013
v 0.06299937 -0.06909040 -0.07249541
v 0.06562828 -0.06687699 -0.07835013
v 0.06299937 -0.08345249 -0.07249541
v 0.06922748 -0.08345249 -0.07249541
v 0.06659858 -0.06687699 -0.07835013
v 0.06659858 -0.08566591 -0.07835013
v 0.06922748 -0.06909040 -0.07249541
v 0.08891547 -0.08566591 -0.07835013
v 0.08628657 -0.06909040 -0.07249541
v 0.08891547 -0.06687699 -0.07835013
v 0.08628657 -0.08345249 -0.07249541
v 0.09251467 -0.08345249 -0.07249541
v 0.08988577 -0.06687699 -0.07835013
v 0.08988577 -0.08566591 -0.07835013
v 0.09251467 -0.06909040 -0.07249541
v 0.11220266 -0.08566591 -0.07835013
v 0.10957376 -0.06909040 -0.07249541
v 0.11220266 -0.06687699 -0.07835013
v 0.10957376 -0.08345249 -0.07249541
v 0.11421718 -0.08345249 -0.07249541
v 0.12669108 -0.06909040 -0.07249541
v 0.11421718 -0.06909040 -0.07249541
v 0.12669108 -0.08345249 -0.07249541
v 0.12902477 -0.06687699 -0.07835013
v 0.11188326 -0.08566591 -0.07835013
v 0.12902477 -0.08566591 -0.07835013
v 0.11188326 -0.06687699 -0.07835013
v 0.14950052 -0.08345249 -0.07249541
v 0.16197464 -0.06909040 -0.07249541
v 0.14950052 -0.06909040 -0.07249541
v 0.16197464 -0.08345249 -0.07249541
v 0.16430834 -0.06687699 -0.07835013
v 0.14716682 -0.08566591 -0.07835013
v 0.16430834 -0.08566591 -0.07835013
v 0.14716682 -0.06687699 -0.07835013
v 0.13185885 -0.08345249 -0.07249541
v 0.14433297 -0.06909040 -0.07249541
v 0.13185885 -0.06909040 -0.07249541
v 0.14433297 -0.08345249 -0.07249541
v 0.14666667 -0.06687699 -0.07835013
v 0.12952515 -0.08566591 -0.07835013
v 0.14666667 -0.08566591 -0.07835013
v 0.12952515 -0.06687699 -0.07835013
v 0.13185885 -0.06434977 -0.07249541
v 0.14433297 -0.04998746 -0.07249541
v 0.13185885 -0.04998746 -0.07249541
v 0.14433297 -0.06434977 -0.07249541
v 0.14666667 -0.04777427 -0.07835013
v 0.12952515 -0.06656319 -0.07835013
v 0.14666667 -0.06656319 -0.07835013
v 0.12952515 -0.04777427 -0.07835013
v 0.16455920 -0.02991175 -0.07887694
v 0.11289388 -0.02991175 -0.07835013
v 0.11289388 -0.02991175 -0.07887694
v 0.16455920 -0.02991175 -0.07835013
v 0.11289388 -0.04765018 -0.07887694
v 0.16455920 -0.04765018 -0.07887694
v 0.16455920 -0.02991175 -0.07249541
v 0.11289388 -0.04765018 -0.07835013
v 0.16455920 -0.04765018 -0.07835013
v 0.11289388 -0.02991175 -0.07249541
v 0.11289388 -0.04765018 -0.07249541
v 0.16455920 -0.04765018 -0.07249541
v 0.15016149 -0.02614434 -0.07249541
v 0.16226134 -0.01178224 -0.07249541
v 0.15016149 -0.01178224 -0.07249541
v 0.16226134 -0.02614434 -0.07249541
v 0.16452515 -0.00956883 -0.07835013
v 0.14789768 -0.02835775 -0.07835013
v 0.16452515 -0.02835775 -0.07835013
v 0.14789768 -0.00956883 -0.07835013
v 0.15016149 -0.00704162 -0.07249541
v 0.16226134 0.00732070 -0.07249541
v 0.15016149 0.00732070 -0.07249541
v 0.16226134 -0.00704162 -0.07249541
v 0.16452515 0.00953389 -0.07835013
v 0.14789768 -0.00925503 -0.07835013
v 0.16452515 -0.00925503 -0.07835013
v 0.14789768 0.00953389 -0.07835013
v 0.11487793 -0.02614434 -0.07249541
v 0.12697778 -0.01178224 -0.07249541
v 0.11487793 -0.01178224 -0.07249541
v 0.12697778 -0.02614434 -0.07249541
v 0.12924137 -0.00956883 -0.07835013
v 0.11261412 -0.02835775 -0.07835013
v 0.12924137 -0.02835775 -0.07835013
v 0.11261412 -0.00956883 -0.07835013
v 0.13251960 -0.02614434 -0.07249541
v 0.14461945 -0.01178224 -0.07249541
v 0.13251960 -0.01178224 -0.07249541
v 0.14461945 -0.02614434 -0.07249541
v 0.14688326 -0.00956883 -0.07835013
v 0.13025601 -0.02835775 -0.07835013
v 0.14688326 -0.02835775 -0.07835013
v 0.13025601 -0.00956883 -0.07835013
v 0.13251960 -0.00704162 -0.07249541
v 0.14461945 0.00732070 -0.07249541
v 0.13251960 0.00732070 -0.07249541
v 0.14461945 -0.00704162 -0.07249541
v 0.14688326 0.00953389 -0.07835013
v 0.13025601 -0.00925503 -0.07835013
v 0.14688326 -0.00925503 -0.07835013
v 0.13025601 0.00953389 -0.07835013
v 0.11487793 -0.00704162 -0.07249541
v 0.12697778 0.00732070 -0.07249541
v 0.11487793 0.00732070 -0.07249541
v 0.12697778 -0.00704162 -0.07249541
v 0.12924137 0.00953389 -0.07835013
v 0.11261412 -0.00925503 -0.07835013
v 0.12924137 -0.00925503 -0.07835013
v 0.11261412 0.00953389 -0.07835013
v 0.15016149 0.02231286 -0.07249541
v 0.16226134 0.03236639 -0.07249541
v 0.15016149 0.03236639 -0.07249541
v 0.16226134 0.02231286 -0.07249541
v 0.16452515 0.03391592 -0.07835013
v 0.14789768 0.02076356 -0.07835013
v 0.16452515 0.02076356 -0.07835013
v 0.14789768 0.03391592 -0.07835013
v 0.13251960 0.02231286 -0.07249541
v 0.14461945 0.03236639 -0.07249541
v 0.13251960 0.03236639 -0.07249541
v 0.14461945 0.02231286 -0.07249541
v 0.14688326 0.03391592 -0.07835013
v 0.13025601 0.02076356 -0.07835013
v 0.14688326 0.02076356 -0.07835013
v 0.13025601 0.03391592 -0.07835013
v 0.11487793 0.02231286 -0.07249541
v 0.12697778 0.03236639 -0.07249541
v 0.11487793 0.03236639 -0.07249541
v 0.12697778 0.02231286 -0.07249541
v 0.12924137 0.03391592 -0.07835013
v 0.11261412 0.02076356 -0.07835013
v 0.12924137 0.02076356 -0.07835013
v 0.11261412 0.03391592 -0.07835013
v 0.09923129 0.02231286 -0.07249541
v 0.11133136 0.03236639 -0.07249541
v 0.09923129 0.03236639 -0.07249541
v 0.11133136 0.02231286 -0.07249541
v 0.11359495 0.03391592 -0.07835013
v 0.09696748 0.02076356 -0.07835013
v 0.11359495 0.02076356 -0.07835013
v 0.09696748 0.03391592 -0.07835013
v 0.08158962 0.02231286 -0.07249541
v 0.09368947 0.03236639 -0.07249541
v 0.08158962 0.03236639 -0.07249541
v 0.09368947 0.02231286 -0.07249541
v 0.09595328 0.03391592 -0.07835013
v 0.07932581 0.02076356 -0.07835013
v 0.09595328 0.02076356 -0.07835013
v 0.07932581 0.03391592 -0.07835013
v 0.06394795 0.02231286 -0.07249541
v 0.07604757 0.03236639 -0.07249541
v 0.06394795 0.03236639 -0.07249541
v 0.07604757 0.02231286 -0.07249541
v 0.07831138 0.03391592 -0.07835013
v 0.06168414 0.02076356 -0.07835013
v 0.07831138 0.02076356 -0.07835013
v 0.06168414 0.03391592 -0.07835013
v 0.04630605 0.02231286 -0.07249541
v 0.05840590 0.03236639 -0.07249541
v 0.04630605 0.03236639 -0.07249541
v 0.05840590 0.02231286 -0.07249541
v 0.06066971 0.03391592 -0.07835013
v 0.04404224 0.02076356 -0.07835013
v 0.06066971 0.02076356 -0.07835013
v 0.04404224 0.03391592 -0.07835013
v 0.08280383 -0.00704162 -0.07249541
v 0.10878981 0.00732070 -0.07249541
v 0.08280383 0.00732070 -0.07249541
v 0.10878981 -0.00704162 -0.07249541
v 0.11173834 0.00953389 -0.07835013
v 0.07985508 0.00953389 -0.07835013
v 0.11173834 -0.00925503 -0.07835013
v 0.07985508 -0.00925503 -0.07835013
v 0.08920463 -0.02481835 -0.07249541
v 0.11011692 -0.01160507 -0.07249541
v 0.08920463 -0.01160507 -0.07249541
v 0.11011692 -0.02481835 -0.07249541
v 0.11187408 -0.00956883 -0.07835013
v 0.08744748 -0.00956883 -0.07835013
v 0.11187408 -0.02685459 -0.07835013
v 0.08744748 -0.02685459 -0.07835013
v 0.07994535 -0.04388254 -0.07249541
v 0.10939927 -0.02952045 -0.07249541
v 0.07994535 -0.02952045 -0.07249541
v 0.10939927 -0.04388254 -0.07249541
v 0.11187408 -0.02730704 -0.07835013
v 0.07747055 -0.02730704 -0.07835013
v 0.11187408 -0.04609595 -0.07835013
v 0.07747055 -0.04609595 -0.07835013
v 0.06408480 -0.04512700 -0.07249541
v 0.07440958 -0.03086883 -0.07249541
v 0.06408480 -0.03086883 -0.07249541
v 0.07440958 -0.04512700 -0.07249541
v 0.07634122 -0.02867155 -0.07835013
v 0.06215316 -0.04732406 -0.07835013
v 0.07634122 -0.04732406 -0.07835013
v 0.06215316 -0.02867155 -0.07835013
v 0.07276867 -0.02614434 -0.07249541
v 0.08486852 -0.01178224 -0.07249541
v 0.07276867 -0.01178224 -0.07249541
v 0.08486852 -0.02614434 -0.07249541
v 0.08713233 -0.00956883 -0.07835013
v 0.07050508 -0.02835775 -0.07835013
v 0.08713233 -0.02835775 -0.07835013
v 0.07050508 -0.00956883 -0.07835013
v 0.04690543 -0.00704162 -0.07249541
v 0.05937934 0.00732070 -0.07249541
v 0.04690543 0.00732070 -0.07249541
v 0.05937934 -0.00704162 -0.07249541
v 0.06171303 0.00953389 -0.07835013
v 0.04457152 -0.00925503 -0.07835013
v 0.06171303 -0.00925503 -0.07835013
v 0.04457152 0.00953389 -0.07835013
v 0.06454710 -0.00704162 -0.07249541
v 0.07702123 0.00732070 -0.07249541
v 0.06454710 0.00732070 -0.07249541
v 0.07702123 -0.00704162 -0.07249541
v 0.07935493 0.00953389 -0.07835013
v 0.06221341 -0.00925503 -0.07835013
v 0.07935493 -0.00925503 -0.07835013
v 0.06221341 0.00953389 -0.07835013
v 0.05565627 -0.02614434 -0.07249541
v 0.06775590 -0.01178224 -0.07249541
v 0.05565627 -0.01178224 -0.07249541
v 0.06775590 -0.02614434 -0.07249541
v 0.07001971 -0.00956883 -0.07835013
v 0.05339247 -0.02835775 -0.07835013
v 0.07001971 -0.02835775 -0.07835013
v 0.05339247 -0.00956883 -0.07835013
v 0.03808449 -0.02614434 -0.07249541
v 0.05055862 -0.01178224 -0.07249541
v 0.03808449 -0.01178224 -0.07249541
v 0.05055862 -0.02614434 -0.07249541
v 0.05289231 -0.00956883 -0.07835013
v 0.03575080 -0.02835775 -0.07835013
v 0.05289231 -0.02835775 -0.07835013
v 0.03575080 -0.00956883 -0.07835013
v 0.04690543 -0.04524705 -0.07249541
v 0.05937934 -0.03088474 -0.07249541
v 0.04690543 -0.03088474 -0.07249541
v 0.05937934 -0.04524705 -0.07249541
v 0.06171303 -0.02867155 -0.07835013
v 0.04457152 -0.04746047 -0.07835013
v 0.06171303 -0.04746047 -0.07835013
v 0.04457152 -0.02867155 -0.07835013
v 0.01162165 -0.04524705 -0.07249541
v 0.02409578 -0.03088474 -0.07249541
v 0.01162165 -0.03088474 -0.07249541
v 0.02409578 -0.04524705 -0.07249541
v 0.02642969 -0.02867155 -0.07835013
v 0.00928795 -0.04746047 -0.07835013
v 0.02642969 -0.04746047 -0.07835013
v 0.00928795 -0.02867155 -0.07835013
v 0.02926354 -0.04524705 -0.07249541
v 0.04173767 -0.03088474 -0.07249541
v 0.02926354 -0.03088474 -0.07249541
v 0.04173767 -0.04524705 -0.07249541
v 0.04407136 -0.02867155 -0.07835013
v 0.02692985 -0.04746047 -0.07835013
v 0.04407136 -0.04746047 -0.07835013
v 0.02692985 -0.02867155 -0.07835013
v 0.01162165 -0.00704162 -0.07249541
v 0.02409578 0.00732070 -0.07249541
v 0.01162165 0.00732070 -0.07249541
v 0.02409578 -0.00704162 -0.07249541
v 0.02642969 0.00953389 -0.07835013
v 0.00928795 -0.00925503 -0.07835013
v 0.02642969 -0.00925503 -0.07835013
v 0.00928795 0.00953389 -0.07835013
v 0.02926354 -0.00704162 -0.07249541
v 0.04173767 0.00732070 -0.07249541
v 0.02926354 0.00732070 -0.07249541
v 0.04173767 -0.00704162 -0.07249541
v 0.04407136 0.00953389 -0.07835013
v 0.02692985 -0.00925503 -0.07835013
v 0.04407136 -0.00925503 -0.07835013
v 0.02692985 0.00953389 -0.07835013
v 0.02044259 -0.02614434 -0.07249541
v 0.03291672 -0.01178224 -0.07249541
v 0.02044259 -0.01178224 -0.07249541
v 0.03291672 -0.02614434 -0.07249541
v 0.03525041 -0.00956883 -0.07835013
v 0.01810890 -0.02835775 -0.07835013
v 0.03525041 -0.02835775 -0.07835013
v 0.01810890 -0.00956883 -0.07835013
v 0.01984344 0.02231286 -0.07249541
v 0.03194329 0.03236639 -0.07249541
v 0.01984344 0.03236639 -0.07249541
v 0.03194329 0.02231286 -0.07249541
v 0.03420710 0.03391592 -0.07835013
v 0.01757963 0.02076356 -0.07835013
v 0.03420710 0.02076356 -0.07835013
v 0.01757963 0.03391592 -0.07835013
v 0.00220176 0.02231286 -0.07249541
v 0.01430139 0.03236639 -0.07249541
v 0.00220176 0.03236639 -0.07249541
v 0.01430139 0.02231286 -0.07249541
v 0.01656520 0.03391592 -0.07835013
v -0.00006204 0.02076356 -0.07835013
v 0.01656520 0.02076356 -0.07835013
v -0.00006204 0.03391592 -0.07835013
v -0.01544013 0.02231286 -0.07249541
v -0.00334028 0.03236639 -0.07249541
v -0.01544013 0.03236639 -0.07249541
v -0.00334028 0.02231286 -0.07249541
v -0.00107647 0.03391592 -0.07835013
v -0.01770394 0.02076356 -0.07835013
v -0.00107647 0.02076356 -0.07835013
v -0.01770394 0.03391592 -0.07835013
v -0.03182166 0.02231286 -0.07249541
v -0.01972181 0.03236639 -0.07249541
v -0.03182166 0.03236639 -0.07249541
v -0.01972181 0.02231286 -0.07249541
v -0.01745823 0.03391592 -0.07835013
v -0.03408547 0.02076356 -0.07835013
v -0.01745823 0.02076356 -0.07835013
v -0.03408547 0.03391592 -0.07835013
v -0.05828450 0.02231286 -0.07249541
v -0.04618465 0.03236639 -0.07249541
v -0.05828450 0.03236639 -0.07249541
v -0.04618465 0.02231286 -0.07249541
v -0.04392084 0.03391592 -0.07835013
v -0.06054809 0.02076356 -0.07835013
v -0.04392084 0.02076356 -0.07835013
v -0.06054809 0.03391592 -0.07835013
v -0.07592617 0.02231286 -0.07249541
v -0.06382632 0.03236639 -0.07249541
v -0.07592617 0.03236639 -0.07249541
v -0.06382632 0.02231286 -0.07249541
v -0.06156274 0.03391592 -0.07835013
v -0.07818998 0.02076356 -0.07835013
v -0.06156274 0.02076356 -0.07835013
v -0.07818998 0.03391592 -0.07835013
v -0.09356784 0.02231286 -0.07249541
v -0.08146822 0.03236639 -0.07249541
v -0.09356784 0.03236639 -0.07249541
v -0.08146822 0.02231286 -0.07249541
v -0.07920441 0.03391592 -0.07835013
v -0.09583165 0.02076356 -0.07835013
v -0.07920441 0.02076356 -0.07835013
v -0.09583165 0.03391592 -0.07835013
v -0.11120974 0.02231286 -0.07249541
v -0.09910989 0.03236639 -0.07249541
v -0.11120974 0.03236639 -0.07249541
v -0.09910989 0.02231286 -0.07249541
v -0.09684608 0.03391592 -0.07835013
v -0.11347332 0.02076356 -0.07835013
v -0.09684608 0.02076356 -0.07835013
v -0.11347332 0.03391592 -0.07835013
v -0.05894526 -0.00704162 -0.07249541
v -0.04647135 0.00732070 -0.07249541
v -0.05894526 0.00732070 -0.07249541
v -0.04647135 -0.00704162 -0.07249541
v -0.04413744 0.00953389 -0.07835013
v -0.06127895 -0.00925503 -0.07835013
v -0.04413744 -0.00925503 -0.07835013
v -0.06127895 0.00953389 -0.07835013
v -0.04130359 -0.00704162 -0.07249541
v -0.02882946 0.00732070 -0.07249541
v -0.04130359 0.00732070 -0.07249541
v -0.02882946 -0.00704162 -0.07249541
v -0.02649554 0.00953389 -0.07835013
v -0.04363728 -0.00925503 -0.07835013
v -0.02649554 -0.00925503 -0.07835013
v -0.04363728 0.00953389 -0.07835013
v -0.02366169 -0.00704162 -0.07249541
v -0.01118756 0.00732070 -0.07249541
v -0.02366169 0.00732070 -0.07249541
v -0.01118756 -0.00704162 -0.07249541
v -0.00885387 0.00953389 -0.07835013
v -0.02599561 -0.00925503 -0.07835013
v -0.00885387 -0.00925503 -0.07835013
v -0.02599561 0.00953389 -0.07835013
v -0.00602002 -0.00704162 -0.07249541
v 0.00645411 0.00732070 -0.07249541
v -0.00602002 0.00732070 -0.07249541
v 0.00645411 -0.00704162 -0.07249541
v 0.00878780 0.00953389 -0.07835013
v -0.00835372 -0.00925503 -0.07835013
v 0.00878780 -0.00925503 -0.07835013
v -0.00835372 0.00953389 -0.07835013
v 0.00280092 -0.02614434 -0.07249541
v 0.01527483 -0.01178224 -0.07249541
v 0.00280092 -0.01178224 -0.07249541
v 0.01527483 -0.02614434 -0.07249541
v 0.01760874 -0.00956883 -0.07835013
v 0.00046723 -0.02835775 -0.07835013
v 0.01760874 -0.02835775 -0.07835013
v 0.00046723 -0.00956883 -0.07835013
v -0.01484075 -0.02614434 -0.07249541
v -0.00236684 -0.01178224 -0.07249541
v -0.01484075 -0.01178224 -0.07249541
v -0.00236684 -0.02614434 -0.07249541
v -0.00003315 -0.00956883 -0.07835013
v -0.01717466 -0.02835775 -0.07835013
v -0.00003315 -0.02835775 -0.07835013
v -0.01717466 -0.00956883 -0.07835013
v -0.03248264 -0.02614434 -0.07249541
v -0.02000851 -0.01178224 -0.07249541
v -0.03248264 -0.01178224 -0.07249541
v -0.02000851 -0.02614434 -0.07249541
v -0.01767482 -0.00956883 -0.07835013
v -0.03481633 -0.02835775 -0.07835013
v -0.01767482 -0.02835775 -0.07835013
v -0.03481633 -0.00956883 -0.07835013
v -0.05012431 -0.02614434 -0.07249541
v -0.03765041 -0.01178224 -0.07249541
v -0.05012431 -0.01178224 -0.07249541
v -0.03765041 -0.02614434 -0.07249541
v -0.03531649 -0.00956883 -0.07835013
v -0.05245823 -0.02835775 -0.07835013
v -0.03531649 -0.02835775 -0.07835013
v -0.05245823 -0.00956883 -0.07835013
v -0.06776621 -0.02614434 -0.07249541
v -0.05529208 -0.01178224 -0.07249541
v -0.06776621 -0.01178224 -0.07249541
v -0.05529208 -0.02614434 -0.07249541
v -0.05295838 -0.00956883 -0.07835013
v -0.07009990 -0.02835775 -0.07835013
v -0.05295838 -0.02835775 -0.07835013
v -0.07009990 -0.00956883 -0.07835013
v -0.05894526 -0.04524705 -0.07249541
v -0.04647135 -0.03088474 -0.07249541
v -0.05894526 -0.03088474 -0.07249541
v -0.04647135 -0.04524705 -0.07249541
v -0.04413744 -0.02867155 -0.07835013
v -0.06127895 -0.04746047 -0.07835013
v -0.04413744 -0.04746047 -0.07835013
v -0.06127895 -0.02867155 -0.07835013
v -0.02366169 -0.04524705 -0.07249541
v -0.01118756 -0.03088474 -0.07249541
v -0.02366169 -0.03088474 -0.07249541
v -0.01936120 -0.04259620 -0.07249541
v -0.00885387 -0.02867155 -0.07835013
v -0.02599561 -0.04746047 -0.07835013
v -0.01936120 -0.04349684 -0.07249541
v -0.01558079 -0.04259620 -0.07249541
v -0.02599561 -0.02867155 -0.07835013
v -0.00885387 -0.04746047 -0.07835013
v -0.01558079 -0.04349684 -0.07249541
v -0.01936120 -0.04349684 -0.07190991
v -0.01118756 -0.04524705 -0.07249541
v -0.01558079 -0.04259620 -0.07190991
v -0.01558079 -0.04349684 -0.07190991
v -0.01936120 -0.04259620 -0.07190991
v -0.04130359 -0.04524705 -0.07249541
v -0.02882946 -0.03088474 -0.07249541
v -0.04130359 -0.03088474 -0.07249541
v -0.02882946 -0.04524705 -0.07249541
v -0.02649554 -0.02867155 -0.07835013
v -0.04363728 -0.04746047 -0.07835013
v -0.02649554 -0.04746047 -0.07835013
v -0.04363728 -0.02867155 -0.07835013
v -0.00602002 -0.04524705 -0.07249541
v 0.00645411 -0.03088474 -0.07249541
v -0.00602002 -0.03088474 -0.07249541
v 0.00645411 -0.04524705 -0.07249541
v 0.00878780 -0.02867155 -0.07835013
v -0.00835372 -0.04746047 -0.07835013
v 0.00878780 -0.04746047 -0.07835013
v -0.00835372 -0.02867155 -0.07835013
v -0.07658693 -0.00704162 -0.07249541
v -0.06411302 0.00732070 -0.07249541
v -0.07658693 0.00732070 -0.07249541
v -0.06411302 -0.00704162 -0.07249541
v -0.06177933 0.00953389 -0.07835013
v -0.07892084 -0.00925503 -0.07835013
v -0.06177933 -0.00925503 -0.07835013
v -0.07892084 0.00953389 -0.07835013
v -0.09422882 -0.00704162 -0.07249541
v -0.08175469 0.00732070 -0.07249541
v -0.09422882 0.00732070 -0.07249541
v -0.08175469 -0.00704162 -0.07249541
v -0.07942100 0.00953389 -0.07835013
v -0.09656251 -0.00925503 -0.07835013
v -0.07942100 -0.00925503 -0.07835013
v -0.09656251 0.00953389 -0.07835013
f 1 2 3
f 2 1 4
f 3 2 1
f 4 1 2
f 5 3 2
f 2 3 5
f 6 1 3
f 3 1 6
f 7 4 1
f 1 4 7
f 8 2 4
f 4 2 8
f 3 5 9
f 9 5 3
f 10 5 2
f 2 5 10
f 1 6 11
f 11 6 1
f 3 12 6
f 6 12 3
f 4 7 13
f 13 7 4
f 11 7 1
f 1 7 11
f 10 2 8
f 8 2 10
f 8 4 14
f 14 4 8
f 15 9 5
f 5 9 15
f 12 3 9
f 9 3 12
f 16 5 10
f 10 5 16
f 6 17 11
f 11 17 6
f 12 18 6
f 6 18 12
f 7 19 13
f 13 19 7
f 14 4 13
f 13 4 14
f 7 11 20
f 20 11 7
f 21 10 8
f 8 10 21
f 22 8 14
f 14 8 22
f 9 15 23
f 23 15 9
f 16 15 5
f 5 15 16
f 9 24 12
f 12 24 9
f 25 16 10
f 10 16 25
f 6 18 17
f 17 18 6
f 11 17 26
f 26 17 11
f 12 27 18
f 18 27 12
f 19 7 28
f 28 7 19
f 29 13 19
f 19 13 29
f 14 13 29
f 29 13 14
f 11 26 20
f 20 26 11
f 20 28 7
f 7 28 20
f 10 21 25
f 25 21 10
f 8 22 21
f 21 22 8
f 14 30 22
f 22 30 14
f 31 23 15
f 15 23 31
f 24 9 23
f 23 9 24
f 32 15 16
f 16 15 32
f 24 27 12
f 12 27 24
f 16 25 33
f 33 25 16
f 21 17 18
f 18 17 21
f 22 26 17
f 17 26 22
f 25 18 27
f 27 18 25
f 28 34 19
f 19 34 28
f 29 19 35
f 35 19 29
f 30 14 29
f 29 14 30
f 20 26 36
f 36 26 20
f 28 20 37
f 37 20 28
f 18 25 21
f 21 25 18
f 17 21 22
f 22 21 17
f 26 22 30
f 30 22 26
f 23 31 38
f 38 31 23
f 32 31 15
f 15 31 32
f 38 24 23
f 23 24 38
f 33 32 16
f 16 32 33
f 24 39 27
f 27 39 24
f 27 33 25
f 25 33 27
f 34 28 40
f 40 28 34
f 35 19 34
f 34 19 35
f 35 30 29
f 29 30 35
f 30 36 26
f 26 36 30
f 20 36 37
f 37 36 20
f 37 40 28
f 28 40 37
f 41 38 31
f 31 38 41
f 42 31 32
f 32 31 42
f 24 38 43
f 43 38 24
f 32 33 44
f 44 33 32
f 43 39 24
f 24 39 43
f 33 27 39
f 39 27 33
f 40 45 34
f 34 45 40
f 35 34 46
f 46 34 35
f 30 35 47
f 47 35 30
f 36 30 47
f 47 30 36
f 37 36 48
f 48 36 37
f 40 37 48
f 48 37 40
f 38 41 49
f 49 41 38
f 42 41 31
f 31 41 42
f 44 42 32
f 32 42 44
f 49 43 38
f 38 43 49
f 39 44 33
f 33 44 39
f 43 50 39
f 39 50 43
f 45 40 51
f 51 40 45
f 46 34 45
f 45 34 46
f 46 47 35
f 35 47 46
f 47 52 36
f 36 52 47
f 48 36 52
f 52 36 48
f 48 51 40
f 40 51 48
f 53 49 41
f 41 49 53
f 41 42 53
f 53 42 41
f 42 44 54
f 54 44 42
f 43 49 55
f 55 49 43
f 44 39 50
f 50 39 44
f 55 50 43
f 43 50 55
f 51 56 45
f 45 56 51
f 46 45 57
f 57 45 46
f 47 46 58
f 58 46 47
f 52 47 58
f 58 47 52
f 48 52 59
f 59 52 48
f 51 48 60
f 60 48 51
f 49 53 61
f 61 53 49
f 54 53 42
f 42 53 54
f 50 54 44
f 44 54 50
f 61 55 49
f 49 55 61
f 55 62 50
f 50 62 55
f 56 51 63
f 63 51 56
f 57 45 56
f 56 45 57
f 57 58 46
f 46 58 57
f 64 52 58
f 58 52 64
f 52 64 59
f 59 64 52
f 48 59 60
f 60 59 48
f 60 63 51
f 51 63 60
f 53 54 61
f 61 54 53
f 54 50 62
f 62 50 54
f 55 61 65
f 65 61 55
f 62 55 65
f 65 55 62
f 63 66 56
f 56 66 63
f 57 56 67
f 67 56 57
f 58 57 64
f 64 57 58
f 68 59 64
f 64 59 68
f 60 59 69
f 69 59 60
f 63 60 70
f 70 60 63
f 54 65 61
f 61 65 54
f 65 54 62
f 62 54 65
f 66 63 71
f 71 63 66
f 67 56 66
f 66 56 67
f 67 64 57
f 57 64 67
f 59 68 69
f 69 68 59
f 64 67 68
f 68 67 64
f 60 69 70
f 70 69 60
f 70 71 63
f 63 71 70
f 68 66 71
f 71 66 68
f 66 68 67
f 67 68 66
f 71 69 68
f 68 69 71
f 70 69 72
f 72 69 70
f 71 70 72
f 72 70 71
f 69 71 72
f 72 71 69
f 73 74 75
f 74 73 76
f 75 74 73
f 76 73 74
f 77 75 74
f 74 75 77
f 78 73 75
f 75 73 78
f 79 76 73
f 73 76 79
f 80 74 76
f 76 74 80
f 75 77 81
f 81 77 75
f 82 77 74
f 74 77 82
f 73 78 83
f 83 78 73
f 75 84 78
f 78 84 75
f 76 79 85
f 85 79 76
f 83 79 73
f 73 79 83
f 82 74 80
f 80 74 82
f 80 76 86
f 86 76 80
f 87 81 77
f 77 81 87
f 84 75 81
f 81 75 84
f 88 77 82
f 82 77 88
f 78 89 83
f 83 89 78
f 84 90 78
f 78 90 84
f 79 91 85
f 85 91 79
f 86 76 85
f 85 76 86
f 79 83 92
f 92 83 79
f 93 82 80
f 80 82 93
f 94 80 86
f 86 80 94
f 81 87 95
f 95 87 81
f 88 87 77
f 77 87 88
f 81 96 84
f 84 96 81
f 97 88 82
f 82 88 97
f 78 90 89
f 89 90 78
f 83 89 98
f 98 89 83
f 84 99 90
f 90 99 84
f 91 79 100
f 100 79 91
f 101 85 91
f 91 85 101
f 86 85 101
f 101 85 86
f 83 98 92
f 92 98 83
f 92 100 79
f 79 100 92
f 82 93 97
f 97 93 82
f 80 94 93
f 93 94 80
f 86 102 94
f 94 102 86
f 103 95 87
f 87 95 103
f 96 81 95
f 95 81 96
f 104 87 88
f 88 87 104
f 96 99 84
f 84 99 96
f 88 97 105
f 105 97 88
f 93 89 90
f 90 89 93
f 94 98 89
f 89 98 94
f 97 90 99
f 99 90 97
f 100 106 91
f 91 106 100
f 101 91 107
f 107 91 101
f 102 86 101
f 101 86 102
f 92 98 108
f 108 98 92
f 100 92 109
f 109 92 100
f 90 97 93
f 93 97 90
f 89 93 94
f 94 93 89
f 98 94 102
f 102 94 98
f 95 103 110
f 110 103 95
f 104 103 87
f 87 103 104
f 110 96 95
f 95 96 110
f 105 104 88
f 88 104 105
f 96 111 99
f 99 111 96
f 99 105 97
f 97 105 99
f 106 100 112
f 112 100 106
f 107 91 106
f 106 91 107
f 107 102 101
f 101 102 107
f 102 108 98
f 98 108 102
f 92 108 109
f 109 108 92
f 109 112 100
f 100 112 109
f 113 110 103
f 103 110 113
f 114 103 104
f 104 103 114
f 96 110 115
f 115 110 96
f 104 105 116
f 116 105 104
f 115 111 96
f 96 111 115
f 105 99 111
f 111 99 105
f 112 117 106
f 106 117 112
f 107 106 118
f 118 106 107
f 102 107 119
f 119 107 102
f 108 102 119
f 119 102 108
f 109 108 120
f 120 108 109
f 112 109 120
f 120 109 112
f 110 113 121
f 121 113 110
f 114 113 103
f 103 113 114
f 116 114 104
f 104 114 116
f 121 115 110
f 110 115 121
f 111 116 105
f 105 116 111
f 115 122 111
f 111 122 115
f 117 112 123
f 123 112 117
f 118 106 117
f 117 106 118
f 118 119 107
f 107 119 118
f 119 124 108
f 108 124 119
f 120 108 124
f 124 108 120
f 120 123 112
f 112 123 120
f 125 121 113
f 113 121 125
f 113 114 125
f 125 114 113
f 114 116 126
f 126 116 114
f 115 121 127
f 127 121 115
f 116 111 122
f 122 111 116
f 127 122 115
f 115 122 127
f 123 128 117
f 117 128 123
f 118 117 129
f 129 117 118
f 119 118 130
f 130 118 119
f 124 119 130
f 130 119 124
f 120 124 131
f 131 124 120
f 123 120 132
f 132 120 123
f 121 125 133
f 133 125 121
f 126 125 114
f 114 125 126
f 122 126 116
f 116 126 122
f 133 127 121
f 121 127 133
f 127 134 122
f 122 134 127
f 128 123 135
f 135 123 128
f 129 117 128
f 128 117 129
f 129 130 118
f 118 130 129
f 136 124 130
f 130 124 136
f 124 136 131
f 131 136 124
f 120 131 132
f 132 131 120
f 132 135 123
f 123 135 132
f 125 126 133
f 133 126 125
f 126 122 134
f 134 122 126
f 127 133 137
f 137 133 127
f 134 127 137
f 137 127 134
f 135 138 128
f 128 138 135
f 129 128 139
f 139 128 129
f 130 129 136
f 136 129 130
f 140 131 136
f 136 131 140
f 132 131 141
f 141 131 132
f 135 132 142
f 142 132 135
f 126 137 133
f 133 137 126
f 137 126 134
f 134 126 137
f 138 135 143
f 143 135 138
f 139 128 138
f 138 128 139
f 139 136 129
f 129 136 139
f 131 140 141
f 141 140 131
f 136 139 140
f 140 139 136
f 132 141 142
f 142 141 132
f 142 143 135
f 135 143 142
f 140 138 143
f 143 138 140
f 138 140 139
f 139 140 138
f 143 141 140
f 140 141 143
f 142 141 144
f 144 141 142
f 143 142 144
f 144 142 143
f 141 143 144
f 144 143 141
f 145 146 147
f 146 145 148
f 147 146 145
f 148 145 146
f 149 147 146
f 146 147 149
f 147 150 145
f 145 150 147
f 145 151 148
f 148 151 145
f 151 146 148
f 148 146 151
f 147 149 152
f 152 149 147
f 146 151 149
f 149 151 146
f 150 147 152
f 152 147 150
f 151 145 150
f 150 145 151
f 151 152 149
f 149 152 151
f 152 151 150
f 150 151 152
f 153 154 155
f 154 153 156
f 155 154 153
f 156 153 154
f 157 155 154
f 154 155 157
f 155 158 153
f 153 158 155
f 153 159 156
f 156 159 153
f 159 154 156
f 156 154 159
f 155 157 160
f 160 157 155
f 154 159 157
f 157 159 154
f 158 155 160
f 160 155 158
f 159 153 158
f 158 153 159
f 159 160 157
f 157 160 159
f 160 159 158
f 158 159 160
f 161 162 163
f 162 161 164
f 163 162 161
f 164 161 162
f 165 163 162
f 162 163 165
f 166 161 163
f 163 161 166
f 161 167 164
f 164 167 161
f 167 162 164
f 164 162 167
f 163 165 166
f 166 165 163
f 162 167 165
f 165 167 162
f 161 166 168
f 168 166 161
f 167 161 168
f 168 161 167
f 167 166 165
f 165 166 167
f 166 167 168
f 168 167 166
f 169 170 171
f 170 169 172
f 171 170 169
f 172 169 170
f 173 171 170
f 170 171 173
f 174 169 171
f 171 169 174
f 169 175 172
f 172 175 169
f 175 170 172
f 172 170 175
f 171 173 174
f 174 173 171
f 170 175 173
f 173 175 170
f 169 174 176
f 176 174 169
f 175 169 176
f 176 169 175
f 175 174 173
f 173 174 175
f 174 175 176
f 176 175 174
f 177 178 179
f 178 177 180
f 179 178 177
f 180 177 178
f 181 179 178
f 178 179 181
f 182 177 179
f 179 177 182
f 177 183 180
f 180 183 177
f 183 178 180
f 180 178 183
f 179 181 182
f 182 181 179
f 178 183 181
f 181 183 178
f 177 182 184
f 184 182 177
f 183 177 184
f 184 177 183
f 183 182 181
f 181 182 183
f 182 183 184
f 184 183 182
f 185 186 187
f 186 185 188
f 187 186 185
f 188 185 186
f 186 189 187
f 187 189 186
f 189 185 187
f 187 185 189
f 185 190 188
f 188 190 185
f 188 191 186
f 186 191 188
f 189 186 191
f 191 186 189
f 185 189 192
f 192 189 185
f 190 185 192
f 192 185 190
f 191 188 190
f 190 188 191
f 190 189 191
f 191 189 190
f 189 190 192
f 192 190 189
f 193 194 195
f 194 193 196
f 195 194 193
f 196 193 194
f 194 197 195
f 195 197 194
f 197 193 195
f 195 193 197
f 193 198 196
f 196 198 193
f 196 199 194
f 194 199 196
f 197 194 199
f 199 194 197
f 193 197 200
f 200 197 193
f 198 193 200
f 200 193 198
f 199 196 198
f 198 196 199
f 198 197 199
f 199 197 198
f 197 198 200
f 200 198 197
f 201 202 203
f 202 201 204
f 203 202 201
f 204 201 202
f 202 205 203
f 203 205 202
f 205 201 203
f 203 201 205
f 201 206 204
f 204 206 201
f 204 207 202
f 202 207 204
f 205 202 207
f 207 202 205
f 201 205 208
f 208 205 201
f 206 201 208
f 208 201 206
f 207 204 206
f 206 204 207
f 206 205 207
f 207 205 206
f 205 206 208
f 208 206 205
f 209 210 211
f 210 209 212
f 211 210 209
f 212 209 210
f 213 211 210
f 210 211 213
f 214 209 211
f 211 209 214
f 209 215 212
f 212 215 209
f 215 210 212
f 212 210 215
f 211 213 214
f 214 213 211
f 210 215 213
f 213 215 210
f 209 214 216
f 216 214 209
f 215 209 216
f 216 209 215
f 215 214 213
f 213 214 215
f 214 215 216
f 216 215 214
f 217 218 219
f 218 217 220
f 219 218 217
f 220 217 218
f 221 219 218
f 218 219 221
f 219 222 217
f 217 222 219
f 217 223 220
f 220 223 217
f 223 218 220
f 220 218 223
f 219 221 224
f 224 221 219
f 218 223 221
f 221 223 218
f 222 219 224
f 224 219 222
f 223 217 222
f 222 217 223
f 223 224 221
f 221 224 223
f 224 223 222
f 222 223 224
f 225 226 227
f 226 225 228
f 227 226 225
f 228 225 226
f 229 227 226
f 226 227 229
f 227 230 225
f 225 230 227
f 225 231 228
f 228 231 225
f 231 226 228
f 228 226 231
f 227 229 232
f 232 229 227
f 226 231 229
f 229 231 226
f 230 227 232
f 232 227 230
f 231 225 230
f 230 225 231
f 231 232 229
f 229 232 231
f 232 231 230
f 230 231 232
f 233 234 235
f 234 233 236
f 235 234 233
f 236 233 234
f 237 235 234
f 234 235 237
f 235 238 233
f 233 238 235
f 233 239 236
f 236 239 233
f 239 234 236
f 236 234 239
f 235 237 240
f 240 237 235
f 234 239 237
f 237 239 234
f 238 235 240
f 240 235 238
f 239 233 238
f 238 233 239
f 239 240 237
f 237 240 239
f 240 239 238
f 238 239 240
f 241 242 243
f 242 241 244
f 243 242 241
f 244 241 242
f 245 243 242
f 242 243 245
f 243 246 241
f 241 246 243
f 241 247 244
f 244 247 241
f 247 242 244
f 244 242 247
f 243 245 248
f 248 245 243
f 242 247 245
f 245 247 242
f 246 243 248
f 248 243 246
f 247 241 246
f 246 241 247
f 247 248 245
f 245 248 247
f 248 247 246
f 246 247 248
f 249 250 251
f 250 249 252
f 251 250 249
f 252 249 250
f 253 251 250
f 250 251 253
f 251 254 249
f 249 254 251
f 249 255 252
f 252 255 249
f 255 250 252
f 252 250 255
f 251 253 256
f 256 253 251
f 250 255 253
f 253 255 250
f 254 251 256
f 256 251 254
f 255 249 254
f 254 249 255
f 255 256 253
f 253 256 255
f 256 255 254
f 254 255 256
f 257 258 259
f 258 257 260
f 259 258 257
f 260 257 258
f 261 259 258
f 258 259 261
f 259 262 257
f 257 262 259
f 257 263 260
f 260 263 257
f 263 258 260
f 260 258 263
f 259 261 264
f 264 261 259
f 258 263 261
f 261 263 258
f 262 259 264
f 264 259 262
f 263 257 262
f 262 257 263
f 263 264 261
f 261 264 263
f 264 263 262
f 262 263 264
f 265 266 267
f 266 265 268
f 267 266 265
f 268 265 266
f 269 267 266
f 266 267 269
f 267 270 265
f 265 270 267
f 265 271 268
f 268 271 265
f 271 266 268
f 268 266 271
f 267 269 272
f 272 269 267
f 266 271 269
f 269 271 266
f 270 267 272
f 272 267 270
f 271 265 270
f 270 265 271
f 271 272 269
f 269 272 271
f 272 271 270
f 270 271 272
f 273 274 275
f 274 273 276
f 275 274 273
f 276 273 274
f 277 275 274
f 274 275 277
f 275 278 273
f 273 278 275
f 273 279 276
f 276 279 273
f 279 274 276
f 276 274 279
f 275 277 280
f 280 277 275
f 274 279 277
f 277 279 274
f 278 275 280
f 280 275 278
f 279 273 278
f 278 273 279
f 279 280 277
f 277 280 279
f 280 279 278
f 278 279 280
f 281 282 283
f 282 281 284
f 283 282 281
f 284 281 282
f 285 283 282
f 282 283 285
f 283 286 281
f 281 286 283
f 281 287 284
f 284 287 281
f 287 282 284
f 284 282 287
f 283 285 288
f 288 285 283
f 282 287 285
f 285 287 282
f 286 283 288
f 288 283 286
f 287 281 286
f 286 281 287
f 287 288 285
f 285 288 287
f 288 287 286
f 286 287 288
f 289 290 291
f 290 289 292
f 291 290 289
f 292 289 290
f 293 291 290
f 290 291 293
f 291 294 289
f 289 294 291
f 289 295 292
f 292 295 289
f 295 290 292
f 292 290 295
f 291 293 296
f 296 293 291
f 290 295 293
f 293 295 290
f 294 291 296
f 296 291 294
f 295 289 294
f 294 289 295
f 295 296 293
f 293 296 295
f 296 295 294
f 294 295 296
f 297 298 299
f 298 297 300
f 299 298 297
f 300 297 298
f 301 299 298
f 298 299 301
f 299 302 297
f 297 302 299
f 297 303 300
f 300 303 297
f 303 298 300
f 300 298 303
f 299 301 304
f 304 301 299
f 298 303 301
f 301 303 298
f 302 299 304
f 304 299 302
f 303 297 302
f 302 297 303
f 303 304 301
f 301 304 303
f 304 303 302
f 302 303 304
f 305 306 307
f 306 305 308
f 307 306 305
f 308 305 306
f 309 307 306
f 306 307 309
f 307 310 305
f 305 310 307
f 305 311 308
f 308 311 305
f 311 306 308
f 308 306 311
f 307 309 312
f 312 309 307
f 306 311 309
f 309 311 306
f 310 307 312
f 312 307 310
f 311 305 310
f 310 305 311
f 311 312 309
f 309 312 311
f 312 311 310
f 310 311 312
f 313 314 315
f 314 313 316
f 315 314 313
f 316 313 314
f 317 315 314
f 314 315 317
f 318 313 315
f 315 313 318
f 313 319 316
f 316 319 313
f 316 317 314
f 314 317 316
f 315 317 318
f 318 317 315
f 313 318 320
f 320 318 313
f 319 313 320
f 320 313 319
f 317 316 319
f 319 316 317
f 319 318 317
f 317 318 319
f 318 321 320
f 320 321 318
f 320 322 319
f 319 322 320
f 318 319 323
f 323 319 318
f 321 318 323
f 323 318 321
f 320 321 322
f 322 321 320
f 324 319 322
f 322 319 324
f 323 319 324
f 324 319 323
f 323 325 321
f 321 325 323
f 325 322 321
f 321 322 325
f 322 326 324
f 324 326 322
f 326 323 324
f 324 323 326
f 325 323 327
f 327 323 325
f 322 325 328
f 328 325 322
f 326 322 328
f 328 322 326
f 323 326 327
f 327 326 323
f 326 325 327
f 327 325 326
f 325 326 328
f 328 326 325
f 329 330 331
f 330 329 332
f 331 330 329
f 332 329 330
f 333 331 330
f 330 331 333
f 331 334 329
f 329 334 331
f 329 335 332
f 332 335 329
f 335 330 332
f 332 330 335
f 331 333 336
f 336 333 331
f 330 335 333
f 333 335 330
f 334 331 336
f 336 331 334
f 335 329 334
f 334 329 335
f 335 336 333
f 333 336 335
f 336 335 334
f 334 335 336
f 337 338 339
f 338 337 340
f 339 338 337
f 340 337 338
f 341 339 338
f 338 339 341
f 339 342 337
f 337 342 339
f 337 343 340
f 340 343 337
f 343 338 340
f 340 338 343
f 339 341 344
f 344 341 339
f 338 343 341
f 341 343 338
f 342 339 344
f 344 339 342
f 343 337 342
f 342 337 343
f 343 344 341
f 341 344 343
f 344 343 342
f 342 343 344
f 345 346 347
f 346 345 348
f 347 346 345
f 348 345 346
f 349 347 346
f 346 347 349
f 347 350 345
f 345 350 347
f 345 351 348
f 348 351 345
f 351 346 348
f 348 346 351
f 347 349 352
f 352 349 347
f 346 351 349
f 349 351 346
f 350 347 352
f 352 347 350
f 351 345 350
f 350 345 351
f 351 352 349
f 349 352 351
f 352 351 350
f 350 351 352
f 353 354 355
f 354 353 356
f 355 354 353
f 356 353 354
f 357 355 354
f 354 355 357
f 355 358 353
f 353 358 355
f 353 359 356
f 356 359 353
f 359 354 356
f 356 354 359
f 355 357 360
f 360 357 355
f 354 359 357
f 357 359 354
f 358 355 360
f 360 355 358
f 359 353 358
f 358 353 359
f 359 360 357
f 357 360 359
f 360 359 358
f 358 359 360
f 361 362 363
f 362 361 364
f 363 362 361
f 364 361 362
f 365 363 362
f 362 363 365
f 363 366 361
f 361 366 363
f 361 367 364
f 364 367 361
f 367 362 364
f 364 362 367
f 363 365 368
f 368 365 363
f 362 367 365
f 365 367 362
f 366 363 368
f 368 363 366
f 367 361 366
f 366 361 367
f 367 368 365
f 365 368 367
f 368 367 366
f 366 367 368
f 369 370 371
f 370 369 372
f 371 370 369
f 372 369 370
f 373 371 370
f 370 371 373
f 371 374 369
f 369 374 371
f 369 375 372
f 372 375 369
f 375 370 372
f 372 370 375
f 371 373 376
f 376 373 371
f 370 375 373
f 373 375 370
f 374 371 376
f 376 371 374
f 375 369 374
f 374 369 375
f 375 376 373
f 373 376 375
f 376 375 374
f 374 375 376
f 377 378 379
f 378 377 380
f 379 378 377
f 380 377 378
f 381 379 378
f 378 379 381
f 379 382 377
f 377 382 379
f 377 383 380
f 380 383 377
f 383 378 380
f 380 378 383
f 379 381 384
f 384 381 379
f 378 383 381
f 381 383 378
f 382 379 384
f 384 379 382
f 383 377 382
f 382 377 383
f 383 384 381
f 381 384 383
f 384 383 382
f 382 383 384
f 385 386 387
f 386 385 388
f 387 386 385
f 388 385 386
f 389 387 386
f 386 387 389
f 390 385 387
f 387 385 390
f 385 391 388
f 388 391 385
f 391 386 388
f 388 386 391
f 387 389 390
f 390 389 387
f 386 391 389
f 389 391 386
f 385 390 392
f 392 390 385
f 391 385 392
f 392 385 391
f 391 390 389
f 389 390 391
f 390 391 392
f 392 391 390
f 393 394 395
f 394 393 396
f 395 394 393
f 396 393 394
f 397 395 394
f 394 395 397
f 395 398 393
f 393 398 395
f 393 399 396
f 396 399 393
f 399 394 396
f 396 394 399
f 395 397 400
f 400 397 395
f 394 399 397
f 397 399 394
f 398 395 400
f 400 395 398
f 399 393 398
f 398 393 399
f 399 400 397
f 397 400 399
f 400 399 398
f 398 399 400
f 401 402 403
f 402 401 404
f 403 402 401
f 404 401 402
f 405 403 402
f 402 403 405
f 403 406 401
f 401 406 403
f 401 407 404
f 404 407 401
f 407 402 404
f 404 402 407
f 403 405 408
f 408 405 403
f 402 407 405
f 405 407 402
f 406 403 408
f 408 403 406
f 407 401 406
f 406 401 407
f 407 408 405
f 405 408 407
f 408 407 406
f 406 407 408
f 409 410 411
f 410 409 412
f 411 410 409
f 412 409 410
f 410 413 411
f 411 413 410
f 413 409 411
f 411 409 413
f 409 414 412
f 412 414 409
f 412 415 410
f 410 415 412
f 413 410 415
f 415 410 413
f 409 413 416
f 416 413 409
f 414 409 416
f 416 409 414
f 415 412 414
f 414 412 415
f 414 413 415
f 415 413 414
f 413 414 416
f 416 414 413
f 417 418 419
f 418 417 420
f 419 418 417
f 420 417 418
f 418 421 419
f 419 421 418
f 421 417 419
f 419 417 421
f 417 422 420
f 420 422 417
f 420 423 418
f 418 423 420
f 421 418 423
f 423 418 421
f 417 421 424
f 424 421 417
f 422 417 424
f 424 417 422
f 423 420 422
f 422 420 423
f 422 421 423
f 423 421 422
f 421 422 424
f 424 422 421
f 425 426 427
f 426 425 428
f 427 426 425
f 428 425 426
f 426 429 427
f 427 429 426
f 429 425 427
f 427 425 429
f 425 430 428
f 428 430 425
f 428 431 426
f 426 431 428
f 429 426 431
f 431 426 429
f 425 429 432
f 432 429 425
f 430 425 432
f 432 425 430
f 431 428 430
f 430 428 431
f 430 429 431
f 431 429 430
f 429 430 432
f 432 430 429
f 433 434 435
f 434 433 436
f 435 434 433
f 436 433 434
f 434 437 435
f 435 437 434
f 437 433 435
f 435 433 437
f 433 438 436
f 436 438 433
f 436 439 434
f 434 439 436
f 437 434 439
f 439 434 437
f 433 437 440
f 440 437 433
f 438 433 440
f 440 433 438
f 439 436 438
f 438 436 439
f 438 437 439
f 439 437 438
f 437 438 440
f 440 438 437
f 441 442 443
f 442 441 444
f 443 442 441
f 444 441 442
f 445 443 442
f 442 443 445
f 443 446 441
f 441 446 443
f 441 447 444
f 444 447 441
f 447 442 444
f 444 442 447
f 443 445 448
f 448 445 443
f 442 447 445
f 445 447 442
f 446 443 448
f 448 443 446
f 447 441 446
f 446 441 447
f 447 448 445
f 445 448 447
f 448 447 446
f 446 447 448
f 449 450 451
f 450 449 452
f 451 450 449
f 452 449 450
f 453 451 450
f 450 451 453
f 451 454 449
f 449 454 451
f 449 455 452
f 452 455 449
f 455 450 452
f 452 450 455
f 451 453 456
f 456 453 451
f 450 455 453
f 453 455 450
f 454 451 456
f 456 451 454
f 455 449 454
f 454 449 455
f 455 456 453
f 453 456 455
f 456 455 454
f 454 455 456
f 457 458 459
f 458 457 460
f 459 458 457
f 460 457 458
f 461 459 458
f 458 459 461
f 459 462 457
f 457 462 459
f 457 463 460
f 460 463 457
f 463 458 460
f 460 458 463
f 459 461 464
f 464 461 459
f 458 463 461
f 461 463 458
f 462 459 464
f 464 459 462
f 463 457 462
f 462 457 463
f 463 464 461
f 461 464 463
f 464 463 462
f 462 463 464
f 465 466 467
f 466 465 468
f 467 466 465
f 468 465 466
f 469 467 466
f 466 467 469
f 467 470 465
f 465 470 467
f 465 471 468
f 468 471 465
f 471 466 468
f 468 466 471
f 467 469 472
f 472 469 467
f 466 471 469
f 469 471 466
f 470 467 472
f 472 467 470
f 471 465 470
f 470 465 471
f 471 472 469
f 469 472 471
f 472 471 470
f 470 471 472
f 473 474 475
f 474 473 476
f 475 474 473
f 476 473 474
f 474 477 475
f 475 477 474
f 477 473 475
f 475 473 477
f 478 476 473
f 473 476 478
f 477 474 480
f 480 474 477
f 473 477 478
f 478 477 473
f 476 478 481
f 481 478 476
f 481 477 480
f 480 477 481
f 477 481 478
f 478 481 477
f 474 479 476
f 476 479 474
f 479 474 482
f 482 474 479
f 479 481 476
f 476 481 479
f 480 482 474
f 474 482 480
f 483 479 482
f 482 479 483
f 481 479 484
f 484 479 481
f 482 480 483
f 483 480 482
f 481 483 480
f 480 483 481
f 479 483 484
f 484 483 479
f 483 481 484
f 484 481 483
f 485 486 487
f 486 485 488
f 487 486 485
f 488 485 486
f 489 487 486
f 486 487 489
f 487 490 485
f 485 490 487
f 485 491 488
f 488 491 485
f 491 486 488
f 488 486 491
f 487 489 492
f 492 489 487
f 486 491 489
f 489 491 486
f 490 487 492
f 492 487 490
f 491 485 490
f 490 485 491
f 491 492 489
f 489 492 491
f 492 491 490
f 490 491 492
f 493 494 495
f 494 493 496
f 495 494 493
f 496 493 494
f 497 495 494
f 494 495 497
f 495 498 493
f 493 498 495
f 493 499 496
f 496 499 493
f 499 494 496
f 496 494 499
f 495 497 500
f 500 497 495
f 494 499 497
f 497 499 494
f 498 495 500
f 500 495 498
f 499 493 498
f 498 493 499
f 499 500 497
f 497 500 499
f 500 499 498
f 498 499 500
f 501 502 503
f 502 501 504
f 503 502 501
f 504 501 502
f 505 503 502
f 502 503 505
f 503 506 501
f 501 506 503
f 501 507 504
f 504 507 501
f 507 502 504
f 504 502 507
f 503 505 508
f 508 505 503
f 502 507 505
f 505 507 502
f 506 503 508
f 508 503 506
f 507 501 506
f 506 501 507
f 507 508 505
f 505 508 507
f 508 507 506
f 506 507 508
f 509 510 511
f 510 509 512
f 511 510 509
f 512 509 510
f 513 511 510
f 510 511 513
f 511 514 509
f 509 514 511
f 509 515 512
f 512 515 509
f 515 510 512
f 512 510 515
f 511 513 516
f 516 513 511
f 510 515 513
f 513 515 510
f 514 511 516
f 516 511 514
f 515 509 514
f 514 509 515
f 515 516 513
f 513 516 515
f 516 515 514
f 514 515 516
f 517 518 519
f 518 517 520
f 519 518 517
f 520 517 518
f 521 519 518
f 518 519 521
f 519 522 517
f 517 522 519
f 517 523 520
f 520 523 517
f 523 518 520
f 520 518 523
f 519 521 524
f 524 521 519
f 518 523 521
f 521 523 518
f 522 519 524
f 524 519 522
f 523 517 522
f 522 517 523
f 523 524 521
f 521 524 523
f 524 523 522
f 522 523 524
f 525 526 527
f 526 525 528
f 527 526 525
f 528 525 526
f 529 527 526
f 526 527 529
f 527 530 525
f 525 530 527
f 525 531 528
f 528 531 525
f 531 526 528
f 528 526 531
f 527 529 532
f 532 529 527
f 526 531 529
f 529 531 526
f 530 527 532
f 532 527 530
f 531 525 530
f 530 525 531
f 531 532 529
f 529 532 531
f 532 531 530
f 530 531 532
f 533 534 535
f 534 533 536
f 535 534 533
f 536 533 534
f 537 535 534
f 534 535 537
f 535 538 533
f 533 538 535
f 533 539 536
f 536 539 533
f 539 534 536
f 536 534 539
f 535 537 540
f 540 537 535
f 534 539 537
f 537 539 534
f 538 535 540
f 540 535 538
f 539 533 538
f 538 533 539
f 539 540 537
f 537 540 539
f 540 539 538
f 538 539 540
f 541 542 543
f 542 541 544
f 543 542 541
f 544 541 542
f 545 543 542
f 542 543 545
f 543 546 541
f 541 546 543
f 541 547 544
f 544 547 541
f 547 542 544
f 544 542 547
f 543 545 548
f 548 545 543
f 542 547 545
f 545 547 542
f 546 543 548
f 548 543 546
f 547 541 546
f 546 541 547
f 547 548 545
f 545 548 547
f 548 547 546
f 546 547 548
f 549 550 551
f 550 549 552
f 551 550 549
f 552 549 550
f 553 551 550
f 550 551 553
f 551 554 549
f 549 554 551
f 549 555 552
f 552 555 549
f 555 550 552
f 552 550 555
f 551 553 556
f 556 553 551
f 550 555 553
f 553 555 550
f 554 551 556
f 556 551 554
f 555 549 554
f 554 549 555
f 555 556 553
f 553 556 555
f 556 555 554
f 554 555 556
f 557 558 559
f 558 557 560
f 559 558 557
f 560 557 558
f 561 559 558
f 558 559 561
f 559 562 557
f 557 562 559
f 557 563 560
f 560 563 557
f 563 558 560
f 560 558 563
f 559 561 564
f 564 561 559
f 558 563 561
f 561 563 558
f 562 559 564
f 564 559 562
f 563 557 562
f 562 557 563
f 563 564 561
f 561 564 563
f 564 563 562
f 562 563 564
f 565 566 567
f 566 565 568
f 567 566 565
f 568 565 566
f 569 567 566
f 566 567 569
f 567 570 565
f 565 570 567
f 565 571 568
f 568 571 565
f 571 566 568
f 568 566 571
f 567 569 572
f 572 569 567
f 566 571 569
f 569 571 566
f 570 567 572
f 572 567 570
f 571 565 570
f 570 565 571
f 571 572 569
f 569 572 571
f 572 571 570
f 570 571 572
f 573 574 575
f 574 573 576
f 575 574 573
f 576 573 574
f 577 575 574
f 574 575 577
f 575 578 573
f 573 578 575
f 573 579 576
f 576 579 573
f 579 574 576
f 576 574 579
f 575 577 580
f 580 577 575
f 574 579 577
f 577 579 574
f 578 575 580
f 580 575 578
f 579 573 578
f 578 573 579
f 579 580 577
f 577 580 579
f 580 579 578
f 578 579 580
f 581 582 583
f 582 581 584
f 583 582 581
f 584 581 582
f 585 583 582
f 582 583 585
f 583 586 581
f 581 586 583
f 581 587 584
f 584 587 581
f 587 582 584
f 584 582 587
f 583 585 588
f 588 585 583
f 582 587 585
f 585 587 582
f 586 583 588
f 588 583 586
f 587 581 586
f 586 581 587
f 587 588 585
f 585 588 587
f 588 587 586
f 586 587 588
f 589 590 591
f 590 589 592
f 591 590 589
f 592 589 590
f 593 591 590
f 590 591 593
f 594 589 591
f 591 589 594
f 589 595 592
f 592 595 589
f 595 590 592
f 592 590 595
f 591 593 594
f 594 593 591
f 590 595 593
f 593 595 590
f 589 594 596
f 596 594 589
f 595 589 596
f 596 589 595
f 595 594 593
f 593 594 595
f 594 595 596
f 596 595 594
f 597 598 599
f 598 597 600
f 599 598 597
f 600 597 598
f 601 599 598
f 598 599 601
f 602 597 599
f 599 597 602
f 597 603 600
f 600 603 597
f 603 598 600
f 600 598 603
f 599 601 602
f 602 601 599
f 598 603 601
f 601 603 598
f 597 602 604
f 604 602 597
f 603 597 604
f 604 597 603
f 603 602 601
f 601 602 603
f 602 603 604
f 604 603 602
f 605 606 607
f 606 605 608
f 607 606 605
f 608 605 606
f 609 607 606
f 606 607 609
f 610 605 607
f 607 605 610
f 605 611 608
f 608 611 605
f 611 606 608
f 608 606 611
f 607 609 610
f 610 609 607
f 606 611 609
f 609 611 606
f 605 610 612
f 612 610 605
f 611 605 612
f 612 605 611
f 611 610 609
f 609 610 611
f 610 611 612
f 612 611 610
f 613 614 615
f 614 613 616
f 615 614 613
f 616 613 614
f 617 615 614
f 614 615 617
f 615 618 613
f 613 618 615
f 613 619 616
f 616 619 613
f 619 614 616
f 616 614 619
f 615 617 620
f 620 617 615
f 614 619 617
f 617 619 614
f 618 615 620
f 620 615 618
f 619 613 618
f 618 613 619
f 619 620 617
f 617 620 619
f 620 619 618
f 618 619 620
f 621 622 623
f 622 621 624
f 623 622 621
f 624 621 622
f 625 623 622
f 622 623 625
f 623 626 621
f 621 626 623
f 621 627 624
f 624 627 621
f 627 622 624
f 624 622 627
f 623 625 628
f 628 625 623
f 622 627 625
f 625 627 622
f 626 623 628
f 628 623 626
f 627 621 626
f 626 621 627
f 627 628 625
f 625 628 627
f 628 627 626
f 626 627 628
f 629 630 631
f 630 629 632
f 631 630 629
f 632 629 630
f 633 631 630
f 630 631 633
f 631 634 629
f 629 634 631
f 629 635 632
f 632 635 629
f 635 630 632
f 632 630 635
f 631 633 636
f 636 633 631
f 630 635 633
f 633 635 630
f 634 631 636
f 636 631 634
f 635 629 634
f 634 629 635
f 635 636 633
f 633 636 635
f 636 635 634
f 634 635 636
f 637 638 639
f 638 637 640
f 639 638 637
f 640 637 638
f 641 639 638
f 638 639 641
f 639 642 637
f 637 642 639
f 637 643 640
f 640 643 637
f 643 638 640
f 640 638 643
f 639 641 644
f 644 641 639
f 638 643 641
f 641 643 638
f 642 639 644
f 644 639 642
f 643 637 642
f 642 637 643
f 643 644 641
f 641 644 643
f 644 643 642
f 642 643 644
f 645 646 647
f 646 645 648
f 647 646 645
f 648 645 646
f 649 647 646
f 646 647 649
f 647 650 645
f 645 650 647
f 645 651 648
f 648 651 645
f 651 646 648
f 648 646 651
f 647 649 652
f 652 649 647
f 646 651 649
f 649 651 646
f 650 647 652
f 652 647 650
f 651 645 650
f 650 645 651
f 651 652 649
f 649 652 651
f 652 651 650
f 650 651 652
f 653 654 655
f 654 653 656
f 655 654 653
f 656 653 654
f 657 655 654
f 654 655 657
f 655 658 653
f 653 658 655
f 653 659 656
f 656 659 653
f 659 654 656
f 656 654 659
f 655 657 660
f 660 657 655
f 654 659 657
f 657 659 654
f 658 655 660
f 660 655 658
f 659 653 658
f 658 653 659
f 659 660 657
f 657 660 659
f 660 659 658
f 658 659 660
f 661 662 663
f 662 661 664
f 663 662 661
f 664 661 662
f 665 663 662
f 662 663 665
f 663 666 661
f 661 666 663
f 661 667 664
f 664 667 661
f 667 662 664
f 664 662 667
f 663 665 668
f 668 665 663
f 662 667 665
f 665 667 662
f 666 663 668
f 668 663 666
f 667 661 666
f 666 661 667
f 667 668 665
f 665 668 667
f 668 667 666
f 666 667 668
f 669 670 671
f 670 669 672
f 671 670 669
f 672 669 670
f 673 671 670
f 670 671 673
f 671 674 669
f 669 674 671
f 669 675 672
f 672 675 669
f 675 670 672
f 672 670 675
f 671 673 676
f 676 673 671
f 670 675 673
f 673 675 670
f 674 671 676
f 676 671 674
f 675 669 674
f 674 669 675
f 675 676 673
f 673 676 675
f 676 675 674
f 674 675 676
f 677 678 679
f 678 677 680
f 679 678 677
f 680 677 678
f 681 679 678
f 678 679 681
f 679 682 677
f 677 682 679
f 677 683 680
f 680 683 677
f 683 678 680
f 680 678 683
f 679 681 684
f 684 681 679
f 678 683 681
f 681 683 678
f 682 679 684
f 684 679 682
f 683 677 682
f 682 677 683
f 683 684 681
f 681 684 683
f 684 683 682
f 682 683 684
f 685 686 687
f 686 685 688
f 687 686 685
f 688 685 686
f 689 687 686
f 686 687 689
f 687 690 685
f 685 690 687
f 685 691 688
f 688 691 685
f 691 686 688
f 688 686 691
f 687 689 692
f 692 689 687
f 686 691 689
f 689 691 686
f 690 687 692
f 692 687 690
f 691 685 690
f 690 685 691
f 691 692 689
f 689 692 691
f 692 691 690
f 690 691 692
f 693 694 695
f 694 693 696
f 695 694 693
f 696 693 694
f 697 695 694
f 694 695 697
f 695 698 693
f 693 698 695
f 693 699 696
f 696 699 693
f 699 694 696
f 696 694 699
f 695 697 700
f 700 697 695
f 694 699 697
f 697 699 694
f 698 695 700
f 700 695 698
f 699 693 698
f 698 693 699
f 699 700 697
f 697 700 699
f 700 699 698
f 698 699 700
f 701 702 703
f 702 701 704
f 703 702 701
f 704 701 702
f 705 703 702
f 702 703 705
f 703 706 701
f 701 706 703
f 701 707 704
f 704 707 701
f 707 702 704
f 704 702 707
f 703 705 708
f 708 705 703
f 702 707 705
f 705 707 702
f 706 703 708
f 708 703 706
f 707 701 706
f 706 701 707
f 707 708 705
f 705 708 707
f 708 707 706
f 706 707 708
f 709 710 711
f 710 709 712
f 711 710 709
f 712 709 710
f 713 711 710
f 710 711 713
f 711 714 709
f 709 714 711
f 709 715 712
f 712 715 709
f 715 710 712
f 712 710 715
f 711 713 716
f 716 713 711
f 710 715 713
f 713 715 710
f 714 711 716
f 716 711 714
f 715 709 714
f 714 709 715
f 715 716 713
f 713 716 715
f 716 715 714
f 714 715 716
f 717 718 719
f 718 717 720
f 719 718 717
f 720 717 718
f 721 719 718
f 718 719 721
f 719 722 717
f 717 722 719
f 717 723 720
f 720 723 717
f 723 718 720
f 720 718 723
f 719 721 724
f 724 721 719
f 718 723 721
f 721 723 718
f 722 719 724
f 724 719 722
f 723 717 722
f 722 717 723
f 723 724 721
f 721 724 723
f 724 723 722
f 722 723 724
f 725 726 727
f 726 725 728
f 727 726 725
f 728 725 726
f 729 727 726
f 726 727 729
f 727 730 725
f 725 730 727
f 725 731 728
f 728 731 725
f 731 726 728
f 728 726 731
f 727 729 732
f 732 729 727
f 726 731 729
f 729 731 726
f 730 727 732
f 732 727 730
f 731 725 730
f 730 725 731
f 731 732 729
f 729 732 731
f 732 731 730
f 730 731 732
f 733 734 735
f 734 733 736
f 735 734 733
f 736 733 734
f 737 735 734
f 734 735 737
f 735 738 733
f 733 738 735
f 733 739 736
f 736 739 733
f 739 734 736
f 736 734 739
f 735 737 740
f 740 737 735
f 734 739 737
f 737 739 734
f 738 735 740
f 740 735 738
f 739 733 738
f 738 733 739
f 739 740 737
f 737 740 739
f 740 739 738
f 738 739 740
f 741 742 743
f 742 741 744
f 743 742 741
f 744 741 742
f 745 743 742
f 742 743 745
f 743 746 741
f 741 746 743
f 741 747 744
f 744 747 741
f 747 742 744
f 744 742 747
f 743 745 748
f 748 745 743
f 742 747 745
f 745 747 742
f 746 743 748
f 748 743 746
f 747 741 746
f 746 741 747
f 747 748 745
f 745 748 747
f 748 747 746
f 746 747 748
f 749 750 751
f 750 749 752
f 751 750 749
f 752 749 750
f 753 751 750
f 750 751 753
f 751 754 749
f 749 754 751
f 749 755 752
f 752 755 749
f 755 750 752
f 752 750 755
f 751 753 756
f 756 753 751
f 750 755 753
f 753 755 750
f 754 751 756
f 756 751 754
f 755 749 754
f 754 749 755
f 755 756 753
f 753 756 755
f 756 755 754
f 754 755 756
f 757 758 759
f 758 757 760
f 759 758 757
f 760 757 758
f 761 759 758
f 758 759 761
f 759 762 757
f 757 762 759
f 757 763 760
f 760 763 757
f 763 758 760
f 760 758 763
f 759 761 764
f 764 761 759
f 758 763 761
f 761 763 758
f 762 759 764
f 764 759 762
f 763 757 762
f 762 757 763
f 763 764 761
f 761 764 763
f 764 763 762
f 762 763 764
f 765 766 767
f 766 765 768
f 767 766 765
f 768 765 766
f 769 767 766
f 766 767 769
f 767 770 765
f 765 770 767
f 765 771 768
f 768 771 765
f 771 766 768
f 768 766 771
f 767 769 772
f 772 769 767
f 766 771 769
f 769 771 766
f 770 767 772
f 772 767 770
f 771 765 770
f 770 765 771
f 771 772 769
f 769 772 771
f 772 771 770
f 770 771 772
f 773 774 775
f 774 773 776
f 775 774 773
f 776 773 774
f 777 775 774
f 774 775 777
f 775 778 773
f 773 778 775
f 773 779 776
f 776 779 773
f 779 774 776
f 776 774 779
f 775 777 780
f 780 777 775
f 774 779 777
f 777 779 774
f 778 775 780
f 780 775 778
f 779 773 778
f 778 773 779
f 779 780 777
f 777 780 779
f 780 779 778
f 778 779 780
f 781 782 783
f 782 781 784
f 783 782 781
f 784 781 782
f 785 783 782
f 782 783 785
f 783 786 781
f 781 786 783
f 781 787 784
f 784 787 781
f 787 782 784
f 784 782 787
f 783 785 788
f 788 785 783
f 782 787 785
f 785 787 782
f 786 783 788
f 788 783 786
f 787 781 786
f 786 781 787
f 787 788 785
f 785 788 787
f 788 787 786
f 786 787 788
f 789 790 791
f 790 789 792
f 791 790 789
f 792 789 790
f 793 791 790
f 790 791 793
f 791 794 789
f 789 794 791
f 789 795 792
f 792 795 789
f 795 790 792
f 792 790 795
f 791 793 796
f 796 793 791
f 790 795 793
f 793 795 790
f 794 791 796
f 796 791 794
f 795 789 794
f 794 789 795
f 795 796 793
f 793 796 795
f 796 795 794
f 794 795 796
f 797 798 799
f 798 797 800
f 799 798 797
f 800 797 798
f 801 799 798
f 798 799 801
f 799 802 797
f 797 802 799
f 797 803 800
f 800 803 797
f 803 798 800
f 800 798 803
f 799 801 804
f 804 801 799
f 798 803 801
f 801 803 798
f 802 799 804
f 804 799 802
f 803 797 802
f 802 797 803
f 803 804 801
f 801 804 803
f 804 803 802
f 802 803 804
f 805 806 807
f 806 805 808
f 807 806 805
f 808 805 806
f 809 807 806
f 806 807 809
f 807 810 805
f 805 810 807
f 805 811 808
f 808 811 805
f 811 806 808
f 808 806 811
f 807 809 812
f 812 809 807
f 806 811 809
f 809 811 806
f 810 807 812
f 812 807 810
f 811 805 810
f 810 805 811
f 811 812 809
f 809 812 811
f 812 811 810
f 810 811 812
f 813 814 815
f 814 813 816
f 815 814 813
f 816 813 814
f 817 815 814
f 814 815 817
f 815 818 813
f 813 818 815
f 813 819 816
f 816 819 813
f 819 814 816
f 816 814 819
f 815 817 820
f 820 817 815
f 814 819 817
f 817 819 814
f 818 815 820
f 820 815 818
f 819 813 818
f 818 813 819
f 819 820 817
f 817 820 819
f 820 819 818
f 818 819 820
f 821 822 823
f 822 821 824
f 823 822 821
f 824 821 822
f 825 823 822
f 822 823 825
f 823 826 821
f 821 826 823
f 821 827 824
f 824 827 821
f 827 822 824
f 824 822 827
f 823 825 828
f 828 825 823
f 822 827 825
f 825 827 822
f 826 823 828
f 828 823 826
f 827 821 826
f 826 821 827
f 827 828 825
f 825 828 827
f 828 827 826
f 826 827 828
f 829 830 831
f 830 829 832
f 831 830 829
f 832 829 830
f 833 831 830
f 830 831 833
f 831 834 829
f 829 834 831
f 829 835 832
f 832 835 829
f 835 830 832
f 832 830 835
f 831 833 836
f 836 833 831
f 830 835 833
f 833 835 830
f 834 831 836
f 836 831 834
f 835 829 834
f 834 829 835
f 835 836 833
f 833 836 835
f 836 835 834
f 834 835 836
f 837 838 839
f 838 837 840
f 839 838 837
f 840 837 838
f 841 839 838
f 838 839 841
f 839 842 837
f 837 842 839
f 837 843 840
f 840 843 837
f 843 838 840
f 840 838 843
f 839 841 844
f 844 841 839
f 838 843 841
f 841 843 838
f 842 839 844
f 844 839 842
f 843 837 842
f 842 837 843
f 843 844 841
f 841 844 843
f 844 843 842
f 842 843 844
f 845 846 847
f 846 845 848
f 847 846 845
f 848 845 846
f 849 847 846
f 846 847 849
f 847 850 845
f 845 850 847
f 845 851 848
f 848 851 845
f 851 846 848
f 848 846 851
f 847 849 852
f 852 849 847
f 846 851 849
f 849 851 846
f 850 847 852
f 852 847 850
f 851 845 850
f 850 845 851
f 851 852 849
f 849 852 851
f 852 851 850
f 850 851 852
f 853 854 855
f 854 853 856
f 855 854 853
f 856 853 854
f 857 855 854
f 854 855 857
f 855 858 853
f 853 858 855
f 856 853 859
f 859 853 856
f 860 854 856
f 856 854 860
f 855 857 861
f 861 857 855
f 854 862 857
f 857 862 854
f 858 855 861
f 861 855 858
f 862 853 858
f 858 853 862
f 859 853 863
f 863 853 859
f 864 856 859
f 859 856 864
f 854 860 865
f 865 860 854
f 856 866 860
f 860 866 856
f 862 861 857
f 857 861 862
f 862 854 865
f 865 854 862
f 861 862 858
f 858 862 861
f 853 862 865
f 865 862 853
f 865 863 853
f 853 863 865
f 867 859 863
f 863 859 867
f 856 864 868
f 868 864 856
f 859 867 864
f 864 867 859
f 865 860 863
f 863 860 865
f 866 856 868
f 868 856 866
f 866 863 860
f 860 863 866
f 863 866 867
f 867 866 863
f 864 866 868
f 868 866 864
f 866 864 867
f 867 864 866
f 869 870 871
f 870 869 872
f 871 870 869
f 872 869 870
f 873 871 870
f 870 871 873
f 871 874 869
f 869 874 871
f 869 875 872
f 872 875 869
f 875 870 872
f 872 870 875
f 871 873 876
f 876 873 871
f 870 875 873
f 873 875 870
f 874 871 876
f 876 871 874
f 875 869 874
f 874 869 875
f 875 876 873
f 873 876 875
f 876 875 874
f 874 875 876
f 877 878 879
f 878 877 880
f 879 878 877
f 880 877 878
f 881 879 878
f 878 879 881
f 879 882 877
f 877 882 879
f 877 883 880
f 880 883 877
f 883 878 880
f 880 878 883
f 879 881 884
f 884 881 879
f 878 883 881
f 881 883 878
f 882 879 884
f 884 879 882
f 883 877 882
f 882 877 883
f 883 884 881
f 881 884 883
f 884 883 882
f 882 883 884
f 885 886 887
f 886 885 888
f 887 886 885
f 888 885 886
f 889 887 886
f 886 887 889
f 887 890 885
f 885 890 887
f 885 891 888
f 888 891 885
f 891 886 888
f 888 886 891
f 887 889 892
f 892 889 887
f 886 891 889
f 889 891 886
f 890 887 892
f 892 887 890
f 891 885 890
f 890 885 891
f 891 892 889
f 889 892 891
f 892 891 890
f 890 891 892
f 893 894 895
f 894 893 896
f 895 894 893
f 896 893 894
f 897 895 894
f 894 895 897
f 895 898 893
f 893 898 895
f 893 899 896
f 896 899 893
f 899 894 896
f 896 894 899
f 895 897 900
f 900 897 895
f 894 899 897
f 897 899 894
f 898 895 900
f 900 895 898
f 899 893 898
f 898 893 899
f 899 900 897
f 897 900 899
f 900 899 898
f 898 899 900

