# https://github.com/mikedh/trimesh

o 0.obj
v 0.17326748 0.08224096 -0.07835013
v -0.17500000 0.09265981 -0.07835013
v 0.17326748 0.09265981 -0.07835013
v -0.17500000 0.08224096 -0.07835013
v 0.17326748 0.09265981 0.09201115
v -0.17500000 0.08224096 0.09201115
v -0.17500000 0.09265981 0.09201115
v 0.17326748 0.08224096 0.09201115
f 1 2 3
f 2 1 4
f 3 2 1
f 4 1 2
f 2 5 3
f 3 5 2
f 5 1 3
f 3 1 5
f 4 6 1
f 6 2 4
f 4 2 6
f 5 2 7
f 7 2 5
f 1 5 8
f 8 5 1
f 8 1 6
f 2 6 7
f 7 6 2
f 6 5 7
f 7 5 6
f 5 6 8
f 8 6 5
f 1 6 4
f 6 1 8

