# https://github.com/mikedh/trimesh
v -0.10453425 0.01935819 -0.08130442
v -0.10453425 0.01935819 -0.07356114
v -0.10453425 0.02710147 -0.08130442
v -0.10453425 0.02710147 -0.07356114
v -0.09679097 0.01935819 -0.08130442
v -0.09679097 0.01935819 -0.07356114
v -0.09679097 0.02710147 -0.08130442
v -0.10453425 0.01935819 -0.06581786
v -0.10453425 0.02710147 -0.06581786
v -0.09679097 0.01935819 -0.06581786
v -0.10453425 0.01935819 -0.05807458
v -0.10453425 0.02710147 -0.05807458
v -0.09679097 0.01935819 -0.05807458
v -0.10453425 0.01935819 -0.05033131
v -0.10453425 0.02710147 -0.05033131
v -0.09679097 0.01935819 -0.05033131
v -0.10453425 0.01935819 -0.04258803
v -0.10453425 0.02710147 -0.04258803
v -0.09679097 0.01935819 -0.04258803
v -0.10453425 0.01935819 -0.03484475
v -0.10453425 0.02710147 -0.03484475
v -0.09679097 0.01935819 -0.03484475
v -0.10453425 0.01935819 -0.02710147
v -0.10453425 0.02710147 -0.02710147
v -0.09679097 0.01935819 -0.02710147
v -0.10453425 0.01935819 -0.01935819
v -0.10453425 0.02710147 -0.01935819
v -0.09679097 0.01935819 -0.01935819
v -0.10453425 0.01935819 -0.01161492
v -0.10453425 0.02710147 -0.01161492
v -0.09679097 0.01935819 -0.01161492
v -0.10453425 0.01935819 -0.00387164
v -0.10453425 0.02710147 -0.00387164
v -0.09679097 0.01935819 -0.00387164
v -0.10453425 0.01935819 0.00387164
v -0.10453425 0.02710147 0.00387164
v -0.09679097 0.01935819 0.00387164
v -0.10453425 0.01935819 0.01161492
v -0.10453425 0.02710147 0.01161492
v -0.09679097 0.01935819 0.01161492
v -0.10453425 0.01935819 0.01935819
v -0.10453425 0.02710147 0.01935819
v -0.09679097 0.01935819 0.01935819
v -0.10453425 0.01935819 0.02710147
v -0.10453425 0.02710147 0.02710147
v -0.09679097 0.01935819 0.02710147
v -0.09679097 0.02710147 0.02710147
v -0.10453425 0.02710147 -0.08904770
v -0.10453425 0.03484475 -0.08904770
v -0.10453425 0.03484475 -0.08130442
v -0.09679097 0.02710147 -0.08904770
v -0.09679097 0.03484475 -0.08904770
v -0.09679097 0.03484475 -0.08130442
v -0.10453425 0.03484475 -0.07356114
v -0.09679097 0.02710147 -0.07356114
v -0.09679097 0.03484475 -0.07356114
v -0.10453425 0.03484475 -0.06581786
v -0.09679097 0.02710147 -0.06581786
v -0.09679097 0.03484475 -0.06581786
v -0.10453425 0.03484475 -0.05807458
v -0.09679097 0.02710147 -0.05807458
v -0.09679097 0.03484475 -0.05807458
v -0.10453425 0.03484475 -0.05033131
v -0.09679097 0.02710147 -0.05033131
v -0.09679097 0.03484475 -0.05033131
v -0.10453425 0.03484475 -0.04258803
v -0.09679097 0.02710147 -0.04258803
v -0.09679097 0.03484475 -0.04258803
v -0.10453425 0.03484475 -0.03484475
v -0.09679097 0.02710147 -0.03484475
v -0.09679097 0.03484475 -0.03484475
v -0.10453425 0.03484475 -0.02710147
v -0.09679097 0.02710147 -0.02710147
v -0.09679097 0.03484475 -0.02710147
v -0.10453425 0.03484475 -0.01935819
v -0.09679097 0.02710147 -0.01935819
v -0.09679097 0.03484475 -0.01935819
v -0.10453425 0.03484475 -0.01161492
v -0.09679097 0.02710147 -0.01161492
v -0.09679097 0.03484475 -0.01161492
v -0.10453425 0.03484475 -0.00387164
v -0.09679097 0.02710147 -0.00387164
v -0.09679097 0.03484475 -0.00387164
v -0.10453425 0.03484475 0.00387164
v -0.09679097 0.02710147 0.00387164
v -0.09679097 0.03484475 0.00387164
v -0.10453425 0.03484475 0.01161492
v -0.09679097 0.02710147 0.01161492
v -0.09679097 0.03484475 0.01161492
v -0.10453425 0.03484475 0.01935819
v -0.09679097 0.02710147 0.01935819
v -0.09679097 0.03484475 0.01935819
v -0.10453425 0.03484475 0.02710147
v -0.09679097 0.03484475 0.02710147
v -0.10453425 0.04258803 -0.08130442
v -0.10453425 0.04258803 -0.07356114
v -0.09679097 0.04258803 -0.08130442
v -0.10453425 0.04258803 -0.06581786
v -0.09679097 0.04258803 -0.07356114
v -0.09679097 0.04258803 -0.06581786
v -0.10453425 0.04258803 -0.05807458
v -0.09679097 0.04258803 -0.05807458
v -0.10453425 0.04258803 -0.05033131
v -0.09679097 0.04258803 -0.05033131
v -0.10453425 0.04258803 -0.04258803
v -0.09679097 0.04258803 -0.04258803
v -0.10453425 0.04258803 -0.03484475
v -0.09679097 0.04258803 -0.03484475
v -0.10453425 0.04258803 -0.02710147
v -0.09679097 0.04258803 -0.02710147
v -0.10453425 0.04258803 -0.01935819
v -0.09679097 0.04258803 -0.01935819
v -0.10453425 0.04258803 -0.01161492
v -0.09679097 0.04258803 -0.01161492
v -0.10453425 0.04258803 -0.00387164
v -0.09679097 0.04258803 -0.00387164
v -0.10453425 0.04258803 0.00387164
v -0.09679097 0.04258803 0.00387164
v -0.10453425 0.04258803 0.01161492
v -0.09679097 0.04258803 0.01161492
v -0.10453425 0.04258803 0.01935819
v -0.10453425 0.04258803 0.02710147
v -0.09679097 0.04258803 0.01935819
v -0.09679097 0.04258803 0.02710147
v -0.10453425 0.05033131 -0.08130442
v -0.10453425 0.05033131 -0.07356114
v -0.09679097 0.05033131 -0.08130442
v -0.09679097 0.05033131 -0.07356114
v -0.10453425 0.05033131 -0.06581786
v -0.09679097 0.05033131 -0.06581786
v -0.10453425 0.05033131 -0.05807458
v -0.09679097 0.05033131 -0.05807458
v -0.10453425 0.05033131 -0.05033131
v -0.09679097 0.05033131 -0.05033131
v -0.10453425 0.05033131 -0.04258803
v -0.09679097 0.05033131 -0.04258803
v -0.10453425 0.05033131 -0.03484475
v -0.09679097 0.05033131 -0.03484475
v -0.10453425 0.05033131 -0.02710147
v -0.09679097 0.05033131 -0.02710147
v -0.10453425 0.05033131 -0.01935819
v -0.09679097 0.05033131 -0.01935819
v -0.10453425 0.05033131 -0.01161492
v -0.09679097 0.05033131 -0.01161492
v -0.10453425 0.05033131 -0.00387164
v -0.09679097 0.05033131 -0.00387164
v -0.10453425 0.05033131 0.00387164
v -0.09679097 0.05033131 0.00387164
v -0.10453425 0.05033131 0.01161492
v -0.09679097 0.05033131 0.01161492
v -0.10453425 0.05033131 0.01935819
v -0.09679097 0.05033131 0.01935819
v -0.10453425 0.05807458 -0.07356114
v -0.10453425 0.05807458 -0.06581786
v -0.09679097 0.05807458 -0.07356114
v -0.09679097 0.05807458 -0.06581786
v -0.10453425 0.05807458 -0.05807458
v -0.10453425 0.05807458 -0.05033131
v -0.09679097 0.05807458 -0.05807458
v -0.09679097 0.05807458 -0.05033131
v -0.10453425 0.05807458 -0.04258803
v -0.09679097 0.05807458 -0.04258803
v -0.10453425 0.05807458 -0.03484475
v -0.09679097 0.05807458 -0.03484475
v -0.10453425 0.05807458 -0.02710147
v -0.09679097 0.05807458 -0.02710147
v -0.10453425 0.05807458 -0.01935819
v -0.09679097 0.05807458 -0.01935819
v -0.10453425 0.05807458 -0.01161492
v -0.09679097 0.05807458 -0.01161492
v -0.10453425 0.05807458 -0.00387164
v -0.09679097 0.05807458 -0.00387164
v -0.10453425 0.05807458 0.00387164
v -0.10453425 0.05807458 0.01161492
v -0.09679097 0.05807458 0.00387164
v -0.09679097 0.05807458 0.01161492
v -0.10453425 0.06581786 -0.06581786
v -0.10453425 0.06581786 -0.05807458
v -0.09679097 0.06581786 -0.06581786
v -0.09679097 0.06581786 -0.05807458
v -0.10453425 0.06581786 -0.05033131
v -0.09679097 0.06581786 -0.05033131
v -0.10453425 0.06581786 -0.04258803
v -0.09679097 0.06581786 -0.04258803
v -0.10453425 0.06581786 -0.03484475
v -0.09679097 0.06581786 -0.03484475
v -0.10453425 0.06581786 -0.02710147
v -0.09679097 0.06581786 -0.02710147
v -0.10453425 0.06581786 -0.01935819
v -0.09679097 0.06581786 -0.01935819
v -0.10453425 0.06581786 -0.01161492
v -0.09679097 0.06581786 -0.01161492
v -0.10453425 0.06581786 -0.00387164
v -0.09679097 0.06581786 -0.00387164
v -0.10453425 0.06581786 0.00387164
v -0.09679097 0.06581786 0.00387164
v -0.09679097 -0.06581786 -0.05033131
v -0.09679097 -0.06581786 -0.04258803
v -0.09679097 -0.05807458 -0.05033131
v -0.09679097 -0.05807458 -0.04258803
v -0.08904770 -0.06581786 -0.05033131
v -0.08904770 -0.06581786 -0.04258803
v -0.08904770 -0.05807458 -0.05033131
v -0.09679097 -0.06581786 -0.03484475
v -0.09679097 -0.05807458 -0.03484475
v -0.08904770 -0.06581786 -0.03484475
v -0.09679097 -0.06581786 -0.02710147
v -0.09679097 -0.05807458 -0.02710147
v -0.08904770 -0.06581786 -0.02710147
v -0.09679097 -0.06581786 -0.01935819
v -0.09679097 -0.05807458 -0.01935819
v -0.08904770 -0.06581786 -0.01935819
v -0.09679097 -0.06581786 -0.01161492
v -0.09679097 -0.05807458 -0.01161492
v -0.08904770 -0.06581786 -0.01161492
v -0.08904770 -0.05807458 -0.01161492
v -0.09679097 -0.05807458 -0.07356114
v -0.09679097 -0.05807458 -0.06581786
v -0.09679097 -0.05033131 -0.07356114
v -0.09679097 -0.05033131 -0.06581786
v -0.08904770 -0.05807458 -0.07356114
v -0.08904770 -0.05807458 -0.06581786
v -0.08904770 -0.05033131 -0.07356114
v -0.09679097 -0.05807458 -0.05807458
v -0.09679097 -0.05033131 -0.05807458
v -0.08904770 -0.05807458 -0.05807458
v -0.09679097 -0.05033131 -0.05033131
v -0.09679097 -0.05033131 -0.04258803
v -0.08904770 -0.05807458 -0.04258803
v -0.08904770 -0.05033131 -0.05033131
v -0.08904770 -0.05033131 -0.04258803
v -0.09679097 -0.05033131 -0.03484475
v -0.08904770 -0.05807458 -0.03484475
v -0.08904770 -0.05033131 -0.03484475
v -0.09679097 -0.05033131 -0.02710147
v -0.08904770 -0.05807458 -0.02710147
v -0.08904770 -0.05033131 -0.02710147
v -0.09679097 -0.05033131 -0.01935819
v -0.08904770 -0.05807458 -0.01935819
v -0.08904770 -0.05033131 -0.01935819
v -0.09679097 -0.05033131 -0.01161492
v -0.08904770 -0.05033131 -0.01161492
v -0.09679097 -0.05807458 -0.00387164
v -0.09679097 -0.05033131 -0.00387164
v -0.08904770 -0.05807458 -0.00387164
v -0.09679097 -0.05807458 0.00387164
v -0.09679097 -0.05033131 0.00387164
v -0.08904770 -0.05807458 0.00387164
v -0.09679097 -0.05807458 0.01161492
v -0.09679097 -0.05033131 0.01161492
v -0.08904770 -0.05807458 0.01161492
v -0.08904770 -0.05033131 0.01161492
v -0.09679097 -0.05033131 -0.08130442
v -0.09679097 -0.04258803 -0.08130442
v -0.09679097 -0.04258803 -0.07356114
v -0.08904770 -0.05033131 -0.08130442
v -0.08904770 -0.04258803 -0.08130442
v -0.09679097 -0.04258803 -0.06581786
v -0.09679097 -0.04258803 -0.05807458
v -0.08904770 -0.05033131 -0.06581786
v -0.08904770 -0.05033131 -0.05807458
v -0.08904770 -0.04258803 -0.06581786
v -0.08904770 -0.04258803 -0.05807458
v -0.09679097 -0.04258803 -0.05033131
v -0.08904770 -0.04258803 -0.05033131
v -0.09679097 -0.04258803 -0.04258803
v -0.08904770 -0.04258803 -0.04258803
v -0.09679097 -0.04258803 -0.03484475
v -0.08904770 -0.04258803 -0.03484475
v -0.09679097 -0.04258803 -0.02710147
v -0.08904770 -0.04258803 -0.02710147
v -0.09679097 -0.04258803 -0.01935819
v -0.08904770 -0.04258803 -0.01935819
v -0.09679097 -0.04258803 -0.01161492
v -0.08904770 -0.04258803 -0.01161492
v -0.09679097 -0.04258803 -0.00387164
v -0.08904770 -0.05033131 -0.00387164
v -0.08904770 -0.04258803 -0.00387164
v -0.09679097 -0.04258803 0.00387164
v -0.08904770 -0.05033131 0.00387164
v -0.08904770 -0.04258803 0.00387164
v -0.09679097 -0.04258803 0.01161492
v -0.08904770 -0.04258803 0.01161492
v -0.09679097 -0.05033131 0.01935819
v -0.09679097 -0.04258803 0.01935819
v -0.08904770 -0.05033131 0.01935819
v -0.08904770 -0.04258803 0.01935819
v -0.09679097 -0.04258803 -0.08904770
v -0.09679097 -0.03484475 -0.08904770
v -0.09679097 -0.03484475 -0.08130442
v -0.08904770 -0.04258803 -0.08904770
v -0.08904770 -0.03484475 -0.08904770
v -0.09679097 -0.03484475 -0.07356114
v -0.09679097 -0.03484475 -0.06581786
v -0.08904770 -0.04258803 -0.07356114
v -0.08904770 -0.03484475 -0.07356114
v -0.08904770 -0.03484475 -0.06581786
v -0.09679097 -0.03484475 -0.05807458
v -0.08904770 -0.03484475 -0.05807458
v -0.09679097 -0.03484475 -0.05033131
v -0.08904770 -0.03484475 -0.05033131
v -0.09679097 -0.03484475 -0.04258803
v -0.08904770 -0.03484475 -0.04258803
v -0.09679097 -0.03484475 -0.03484475
v -0.08904770 -0.03484475 -0.03484475
v -0.09679097 -0.03484475 -0.02710147
v -0.08904770 -0.03484475 -0.02710147
v -0.09679097 -0.03484475 -0.01935819
v -0.08904770 -0.03484475 -0.01935819
v -0.09679097 -0.03484475 -0.01161492
v -0.08904770 -0.03484475 -0.01161492
v -0.09679097 -0.03484475 -0.00387164
v -0.08904770 -0.03484475 -0.00387164
v -0.09679097 -0.03484475 0.00387164
v -0.08904770 -0.03484475 0.00387164
v -0.09679097 -0.03484475 0.01161492
v -0.08904770 -0.03484475 0.01161492
v -0.09679097 -0.03484475 0.01935819
v -0.08904770 -0.03484475 0.01935819
v -0.09679097 -0.04258803 0.02710147
v -0.09679097 -0.03484475 0.02710147
v -0.08904770 -0.04258803 0.02710147
v -0.08904770 -0.03484475 0.02710147
v -0.09679097 -0.03484475 -0.09679097
v -0.09679097 -0.02710147 -0.09679097
v -0.09679097 -0.02710147 -0.08904770
v -0.08904770 -0.03484475 -0.09679097
v -0.08904770 -0.02710147 -0.09679097
v -0.09679097 -0.02710147 -0.08130442
v -0.09679097 -0.02710147 -0.07356114
v -0.08904770 -0.03484475 -0.08130442
v -0.08904770 -0.02710147 -0.08130442
v -0.08904770 -0.02710147 -0.07356114
v -0.09679097 -0.02710147 -0.06581786
v -0.08904770 -0.02710147 -0.06581786
v -0.09679097 -0.02710147 -0.05807458
v -0.08904770 -0.02710147 -0.05807458
v -0.09679097 -0.02710147 -0.05033131
v -0.08904770 -0.02710147 -0.05033131
v -0.09679097 -0.02710147 -0.04258803
v -0.08904770 -0.02710147 -0.04258803
v -0.09679097 -0.02710147 -0.03484475
v -0.08904770 -0.02710147 -0.03484475
v -0.09679097 -0.02710147 -0.02710147
v -0.08904770 -0.02710147 -0.02710147
v -0.09679097 -0.02710147 -0.01935819
v -0.08904770 -0.02710147 -0.01935819
v -0.09679097 -0.02710147 -0.01161492
v -0.08904770 -0.02710147 -0.01161492
v -0.09679097 -0.02710147 -0.00387164
v -0.08904770 -0.02710147 -0.00387164
v -0.09679097 -0.02710147 0.00387164
v -0.08904770 -0.02710147 0.00387164
v -0.09679097 -0.02710147 0.01161492
v -0.08904770 -0.02710147 0.01161492
v -0.09679097 -0.02710147 0.01935819
v -0.08904770 -0.02710147 0.01935819
v -0.09679097 -0.02710147 0.02710147
v -0.09679097 -0.03484475 0.03484475
v -0.09679097 -0.02710147 0.03484475
v -0.08904770 -0.03484475 0.03484475
v -0.08904770 -0.02710147 0.03484475
v -0.09679097 -0.01935819 -0.09679097
v -0.09679097 -0.01935819 -0.08904770
v -0.08904770 -0.01935819 -0.09679097
v -0.09679097 -0.01935819 -0.08130442
v -0.08904770 -0.02710147 -0.08904770
v -0.08904770 -0.01935819 -0.08904770
v -0.08904770 -0.01935819 -0.08130442
v -0.09679097 -0.01935819 -0.07356114
v -0.08904770 -0.01935819 -0.07356114
v -0.09679097 -0.01935819 -0.06581786
v -0.08904770 -0.01935819 -0.06581786
v -0.09679097 -0.01935819 -0.05807458
v -0.08904770 -0.01935819 -0.05807458
v -0.09679097 -0.01935819 -0.05033131
v -0.08904770 -0.01935819 -0.05033131
v -0.09679097 -0.01935819 -0.04258803
v -0.08904770 -0.01935819 -0.04258803
v -0.09679097 -0.01935819 -0.03484475
v -0.08904770 -0.01935819 -0.03484475
v -0.09679097 -0.01935819 -0.02710147
v -0.08904770 -0.01935819 -0.02710147
v -0.09679097 -0.01935819 -0.01935819
v -0.08904770 -0.01935819 -0.01935819
v -0.09679097 -0.01935819 -0.01161492
v -0.08904770 -0.01935819 -0.01161492
v -0.09679097 -0.01935819 -0.00387164
v -0.08904770 -0.01935819 -0.00387164
v -0.09679097 -0.01935819 0.00387164
v -0.08904770 -0.01935819 0.00387164
v -0.09679097 -0.01935819 0.01161492
v -0.08904770 -0.01935819 0.01161492
v -0.09679097 -0.01935819 0.01935819
v -0.08904770 -0.01935819 0.01935819
v -0.09679097 -0.01935819 0.02710147
v -0.08904770 -0.02710147 0.02710147
v -0.08904770 -0.01935819 0.02710147
v -0.09679097 -0.01935819 0.03484475
v -0.08904770 -0.01935819 0.03484475
v -0.09679097 -0.01161492 -0.09679097
v -0.09679097 -0.01161492 -0.08904770
v -0.08904770 -0.01161492 -0.09679097
v -0.09679097 -0.01161492 -0.08130442
v -0.08904770 -0.01161492 -0.08904770
v -0.08904770 -0.01161492 -0.08130442
v -0.09679097 -0.01161492 -0.07356114
v -0.08904770 -0.01161492 -0.07356114
v -0.09679097 -0.01161492 -0.06581786
v -0.08904770 -0.01161492 -0.06581786
v -0.09679097 -0.01161492 -0.05807458
v -0.08904770 -0.01161492 -0.05807458
v -0.09679097 -0.01161492 -0.05033131
v -0.08904770 -0.01161492 -0.05033131
v -0.09679097 -0.01161492 -0.04258803
v -0.08904770 -0.01161492 -0.04258803
v -0.09679097 -0.01161492 -0.03484475
v -0.08904770 -0.01161492 -0.03484475
v -0.09679097 -0.01161492 -0.02710147
v -0.08904770 -0.01161492 -0.02710147
v -0.09679097 -0.01161492 -0.01935819
v -0.08904770 -0.01161492 -0.01935819
v -0.09679097 -0.01161492 -0.01161492
v -0.08904770 -0.01161492 -0.01161492
v -0.09679097 -0.01161492 -0.00387164
v -0.08904770 -0.01161492 -0.00387164
v -0.09679097 -0.01161492 0.00387164
v -0.08904770 -0.01161492 0.00387164
v -0.09679097 -0.01161492 0.01161492
v -0.08904770 -0.01161492 0.01161492
v -0.09679097 -0.01161492 0.01935819
v -0.08904770 -0.01161492 0.01935819
v -0.09679097 -0.01161492 0.02710147
v -0.08904770 -0.01161492 0.02710147
v -0.09679097 -0.01161492 0.03484475
v -0.09679097 -0.01935819 0.04258803
v -0.09679097 -0.01161492 0.04258803
v -0.08904770 -0.01935819 0.04258803
v -0.08904770 -0.01161492 0.04258803
v -0.09679097 -0.01161492 -0.10453425
v -0.09679097 -0.00387164 -0.10453425
v -0.09679097 -0.00387164 -0.09679097
v -0.08904770 -0.01161492 -0.10453425
v -0.08904770 -0.00387164 -0.10453425
v -0.09679097 -0.00387164 -0.08904770
v -0.08904770 -0.00387164 -0.09679097
v -0.08904770 -0.00387164 -0.08904770
v -0.09679097 -0.00387164 -0.08130442
v -0.08904770 -0.00387164 -0.08130442
v -0.09679097 -0.00387164 -0.07356114
v -0.08904770 -0.00387164 -0.07356114
v -0.09679097 -0.00387164 -0.06581786
v -0.08904770 -0.00387164 -0.06581786
v -0.09679097 -0.00387164 -0.05807458
v -0.08904770 -0.00387164 -0.05807458
v -0.09679097 -0.00387164 -0.05033131
v -0.08904770 -0.00387164 -0.05033131
v -0.09679097 -0.00387164 -0.04258803
v -0.08904770 -0.00387164 -0.04258803
v -0.09679097 -0.00387164 -0.03484475
v -0.08904770 -0.00387164 -0.03484475
v -0.09679097 -0.00387164 -0.02710147
v -0.08904770 -0.00387164 -0.02710147
v -0.09679097 -0.00387164 -0.01935819
v -0.08904770 -0.00387164 -0.01935819
v -0.09679097 -0.00387164 -0.01161492
v -0.08904770 -0.00387164 -0.01161492
v -0.09679097 -0.00387164 -0.00387164
v -0.08904770 -0.00387164 -0.00387164
v -0.09679097 -0.00387164 0.00387164
v -0.08904770 -0.00387164 0.00387164
v -0.09679097 -0.00387164 0.01161492
v -0.08904770 -0.00387164 0.01161492
v -0.09679097 -0.00387164 0.01935819
v -0.08904770 -0.00387164 0.01935819
v -0.09679097 -0.00387164 0.02710147
v -0.08904770 -0.00387164 0.02710147
v -0.09679097 -0.00387164 0.03484475
v -0.08904770 -0.01161492 0.03484475
v -0.08904770 -0.00387164 0.03484475
v -0.09679097 -0.00387164 0.04258803
v -0.08904770 -0.00387164 0.04258803
v -0.09679097 0.00387164 -0.10453425
v -0.09679097 0.00387164 -0.09679097
v -0.08904770 0.00387164 -0.10453425
v -0.09679097 0.00387164 -0.08904770
v -0.08904770 0.00387164 -0.09679097
v -0.08904770 0.00387164 -0.08904770
v -0.09679097 0.00387164 -0.08130442
v -0.08904770 0.00387164 -0.08130442
v -0.09679097 0.00387164 -0.07356114
v -0.08904770 0.00387164 -0.07356114
v -0.09679097 0.00387164 -0.06581786
v -0.08904770 0.00387164 -0.06581786
v -0.09679097 0.00387164 -0.05807458
v -0.08904770 0.00387164 -0.05807458
v -0.09679097 0.00387164 -0.05033131
v -0.08904770 0.00387164 -0.05033131
v -0.09679097 0.00387164 -0.04258803
v -0.08904770 0.00387164 -0.04258803
v -0.09679097 0.00387164 -0.03484475
v -0.08904770 0.00387164 -0.03484475
v -0.09679097 0.00387164 -0.02710147
v -0.08904770 0.00387164 -0.02710147
v -0.09679097 0.00387164 -0.01935819
v -0.08904770 0.00387164 -0.01935819
v -0.09679097 0.00387164 -0.01161492
v -0.08904770 0.00387164 -0.01161492
v -0.09679097 0.00387164 -0.00387164
v -0.08904770 0.00387164 -0.00387164
v -0.09679097 0.00387164 0.00387164
v -0.08904770 0.00387164 0.00387164
v -0.09679097 0.00387164 0.01161492
v -0.08904770 0.00387164 0.01161492
v -0.09679097 0.00387164 0.01935819
v -0.08904770 0.00387164 0.01935819
v -0.09679097 0.00387164 0.02710147
v -0.08904770 0.00387164 0.02710147
v -0.09679097 0.00387164 0.03484475
v -0.08904770 0.00387164 0.03484475
v -0.09679097 0.00387164 0.04258803
v -0.08904770 0.00387164 0.04258803
v -0.09679097 0.01161492 -0.10453425
v -0.09679097 0.01161492 -0.09679097
v -0.08904770 0.01161492 -0.10453425
v -0.09679097 0.01161492 -0.08904770
v -0.08904770 0.01161492 -0.09679097
v -0.08904770 0.01161492 -0.08904770
v -0.09679097 0.01161492 -0.08130442
v -0.08904770 0.01161492 -0.08130442
v -0.09679097 0.01161492 -0.07356114
v -0.08904770 0.01161492 -0.07356114
v -0.09679097 0.01161492 -0.06581786
v -0.08904770 0.01161492 -0.06581786
v -0.09679097 0.01161492 -0.05807458
v -0.08904770 0.01161492 -0.05807458
v -0.09679097 0.01161492 -0.05033131
v -0.08904770 0.01161492 -0.05033131
v -0.09679097 0.01161492 -0.04258803
v -0.08904770 0.01161492 -0.04258803
v -0.09679097 0.01161492 -0.03484475
v -0.08904770 0.01161492 -0.03484475
v -0.09679097 0.01161492 -0.02710147
v -0.08904770 0.01161492 -0.02710147
v -0.09679097 0.01161492 -0.01935819
v -0.08904770 0.01161492 -0.01935819
v -0.09679097 0.01161492 -0.01161492
v -0.08904770 0.01161492 -0.01161492
v -0.09679097 0.01161492 -0.00387164
v -0.08904770 0.01161492 -0.00387164
v -0.09679097 0.01161492 0.00387164
v -0.08904770 0.01161492 0.00387164
v -0.09679097 0.01161492 0.01161492
v -0.08904770 0.01161492 0.01161492
v -0.09679097 0.01161492 0.01935819
v -0.08904770 0.01161492 0.01935819
v -0.09679097 0.01161492 0.02710147
v -0.08904770 0.01161492 0.02710147
v -0.09679097 0.01161492 0.03484475
v -0.08904770 0.01161492 0.03484475
v -0.09679097 0.01161492 0.04258803
v -0.08904770 0.01161492 0.04258803
v -0.09679097 0.01935819 -0.10453425
v -0.09679097 0.01935819 -0.09679097
v -0.08904770 0.01935819 -0.10453425
v -0.08904770 0.01935819 -0.09679097
v -0.09679097 0.01935819 -0.08904770
v -0.08904770 0.01935819 -0.08904770
v -0.08904770 0.01935819 -0.08130442
v -0.08904770 0.01935819 -0.07356114
v -0.08904770 0.01935819 -0.06581786
v -0.08904770 0.01935819 -0.05807458
v -0.08904770 0.01935819 -0.05033131
v -0.08904770 0.01935819 -0.04258803
v -0.08904770 0.01935819 -0.03484475
v -0.08904770 0.01935819 -0.02710147
v -0.08904770 0.01935819 -0.01935819
v -0.08904770 0.01935819 -0.01161492
v -0.08904770 0.01935819 -0.00387164
v -0.08904770 0.01935819 0.00387164
v -0.08904770 0.01935819 0.01161492
v -0.08904770 0.01935819 0.01935819
v -0.08904770 0.01935819 0.02710147
v -0.09679097 0.01935819 0.03484475
v -0.08904770 0.01935819 0.03484475
v -0.09679097 0.01935819 0.04258803
v -0.08904770 0.01935819 0.04258803
v -0.09679097 0.02710147 -0.09679097
v -0.08904770 0.02710147 -0.09679097
v -0.08904770 0.02710147 -0.08904770
v -0.08904770 0.02710147 -0.08130442
v -0.08904770 0.02710147 -0.07356114
v -0.08904770 0.02710147 -0.06581786
v -0.08904770 0.02710147 -0.05807458
v -0.08904770 0.02710147 -0.05033131
v -0.08904770 0.02710147 -0.04258803
v -0.08904770 0.02710147 -0.03484475
v -0.08904770 0.02710147 -0.02710147
v -0.08904770 0.02710147 -0.01935819
v -0.08904770 0.02710147 -0.01161492
v -0.08904770 0.02710147 -0.00387164
v -0.08904770 0.02710147 0.00387164
v -0.08904770 0.02710147 0.01161492
v -0.08904770 0.02710147 0.01935819
v -0.08904770 0.02710147 0.02710147
v -0.09679097 0.02710147 0.03484475
v -0.08904770 0.02710147 0.03484475
v -0.09679097 0.03484475 -0.09679097
v -0.08904770 0.03484475 -0.09679097
v -0.08904770 0.03484475 -0.08904770
v -0.08904770 0.03484475 -0.08130442
v -0.08904770 0.03484475 0.01935819
v -0.08904770 0.03484475 0.02710147
v -0.09679097 0.03484475 0.03484475
v -0.08904770 0.03484475 0.03484475
v -0.09679097 0.04258803 -0.08904770
v -0.08904770 0.04258803 -0.08904770
v -0.08904770 0.03484475 -0.07356114
v -0.08904770 0.04258803 -0.08130442
v -0.08904770 0.04258803 -0.07356114
v -0.08904770 0.03484475 0.01161492
v -0.08904770 0.04258803 0.01161492
v -0.08904770 0.04258803 0.01935819
v -0.09679097 0.04258803 0.03484475
v -0.08904770 0.04258803 0.02710147
v -0.08904770 0.04258803 0.03484475
v -0.09679097 0.05033131 -0.08904770
v -0.08904770 0.05033131 -0.08904770
v -0.08904770 0.05033131 -0.08130442
v -0.08904770 0.05033131 -0.07356114
v -0.08904770 0.05033131 0.01161492
v -0.09679097 0.05033131 0.02710147
v -0.08904770 0.05033131 0.01935819
v -0.08904770 0.05033131 0.02710147
v -0.09679097 0.05807458 -0.08130442
v -0.08904770 0.05807458 -0.08130442
v -0.08904770 0.05807458 -0.07356114
v -0.08904770 0.05033131 -0.06581786
v -0.08904770 0.05807458 -0.06581786
v -0.08904770 0.05033131 -0.05807458
v -0.08904770 0.05807458 -0.05807458
v -0.08904770 0.05033131 -0.00387164
v -0.08904770 0.05033131 0.00387164
v -0.08904770 0.05807458 -0.00387164
v -0.08904770 0.05807458 0.00387164
v -0.09679097 0.05807458 0.01935819
v -0.08904770 0.05807458 0.01161492
v -0.08904770 0.05807458 0.01935819
v -0.08904770 0.06581786 -0.06581786
v -0.08904770 0.06581786 -0.05807458
v -0.08904770 0.05807458 -0.05033131
v -0.08904770 0.06581786 -0.05033131
v -0.08904770 0.05807458 -0.04258803
v -0.08904770 0.06581786 -0.04258803
v -0.08904770 0.05807458 -0.03484475
v -0.08904770 0.06581786 -0.03484475
v -0.08904770 0.05807458 -0.02710147
v -0.08904770 0.06581786 -0.02710147
v -0.08904770 0.05807458 -0.01935819
v -0.08904770 0.06581786 -0.01935819
v -0.08904770 0.05807458 -0.01161492
v -0.08904770 0.06581786 -0.01161492
v -0.08904770 0.06581786 -0.00387164
v -0.08904770 0.06581786 0.00387164
v -0.09679097 0.06581786 0.01161492
v -0.08904770 0.06581786 0.01161492
v -0.09679097 0.07356114 -0.05033131
v -0.09679097 0.07356114 -0.04258803
v -0.08904770 0.07356114 -0.05033131
v -0.08904770 0.07356114 -0.04258803
v -0.09679097 0.07356114 -0.03484475
v -0.08904770 0.07356114 -0.03484475
v -0.09679097 0.07356114 -0.02710147
v -0.08904770 0.07356114 -0.02710147
v -0.09679097 0.07356114 -0.01935819
v -0.08904770 0.07356114 -0.01935819
v -0.09679097 0.07356114 -0.01161492
v -0.08904770 0.07356114 -0.01161492
v -0.08904770 -0.07356114 -0.05033131
v -0.08904770 -0.07356114 -0.04258803
v -0.08130442 -0.07356114 -0.05033131
v -0.08130442 -0.07356114 -0.04258803
v -0.08130442 -0.06581786 -0.05033131
v -0.08904770 -0.07356114 -0.03484475
v -0.08130442 -0.07356114 -0.03484475
v -0.08904770 -0.07356114 -0.02710147
v -0.08130442 -0.07356114 -0.02710147
v -0.08904770 -0.07356114 -0.01935819
v -0.08130442 -0.07356114 -0.01935819
v -0.08904770 -0.07356114 -0.01161492
v -0.08130442 -0.07356114 -0.01161492
v -0.08904770 -0.07356114 -0.00387164
v -0.08904770 -0.06581786 -0.00387164
v -0.08130442 -0.07356114 -0.00387164
v -0.08130442 -0.06581786 -0.00387164
v -0.08904770 -0.06581786 -0.07356114
v -0.08904770 -0.06581786 -0.06581786
v -0.08130442 -0.06581786 -0.07356114
v -0.08130442 -0.06581786 -0.06581786
v -0.08130442 -0.05807458 -0.07356114
v -0.08130442 -0.05807458 -0.06581786
v -0.08904770 -0.06581786 -0.05807458
v -0.08130442 -0.06581786 -0.05807458
v -0.08130442 -0.06581786 -0.04258803
v -0.08130442 -0.05807458 -0.05033131
v -0.08130442 -0.05807458 -0.04258803
v -0.08130442 -0.06581786 -0.03484475
v -0.08130442 -0.05807458 -0.03484475
v -0.08130442 -0.06581786 -0.02710147
v -0.08130442 -0.05807458 -0.02710147
v -0.08130442 -0.06581786 -0.01935819
v -0.08130442 -0.05807458 -0.01935819
v -0.08130442 -0.06581786 -0.01161492
v -0.08130442 -0.05807458 -0.01161492
v -0.08904770 -0.06581786 0.00387164
v -0.08130442 -0.06581786 0.00387164
v -0.08130442 -0.05807458 -0.00387164
v -0.08130442 -0.05807458 0.00387164
v -0.08904770 -0.05807458 -0.08130442
v -0.08130442 -0.05807458 -0.08130442
v -0.08130442 -0.05033131 -0.08130442
v -0.08130442 -0.05033131 -0.07356114
v -0.08130442 -0.05033131 -0.06581786
v -0.08130442 -0.05807458 -0.05807458
v -0.08130442 -0.05033131 -0.05807458
v -0.08130442 -0.05033131 -0.05033131
v -0.08130442 -0.05033131 -0.01161492
v -0.08130442 -0.05033131 -0.00387164
v -0.08130442 -0.05033131 0.00387164
v -0.08130442 -0.05807458 0.01161492
v -0.08130442 -0.05033131 0.01161492
v -0.08904770 -0.05807458 0.01935819
v -0.08130442 -0.05807458 0.01935819
v -0.08130442 -0.05033131 0.01935819
v -0.08904770 -0.05033131 -0.08904770
v -0.08130442 -0.05033131 -0.08904770
v -0.08130442 -0.04258803 -0.08904770
v -0.08130442 -0.04258803 -0.08130442
v -0.08130442 -0.04258803 -0.07356114
v -0.08130442 -0.04258803 -0.06581786
v -0.08130442 -0.04258803 0.01161492
v -0.08130442 -0.04258803 0.01935819
v -0.08904770 -0.05033131 0.02710147
v -0.08130442 -0.05033131 0.02710147
v -0.08130442 -0.04258803 0.02710147
v -0.08904770 -0.04258803 -0.09679097
v -0.08130442 -0.04258803 -0.09679097
v -0.08130442 -0.03484475 -0.09679097
v -0.08130442 -0.03484475 -0.08904770
v -0.08130442 -0.03484475 -0.08130442
v -0.08130442 -0.03484475 -0.07356114
v -0.08130442 -0.03484475 0.01935819
v -0.08130442 -0.03484475 0.02710147
v -0.08904770 -0.04258803 0.03484475
v -0.08130442 -0.04258803 0.03484475
v -0.08130442 -0.03484475 0.03484475
v -0.08130442 -0.02710147 -0.09679097
v -0.08130442 -0.02710147 -0.08904770
v -0.08130442 -0.02710147 -0.08130442
v -0.08130442 -0.02710147 0.01935819
v -0.08130442 -0.02710147 0.02710147
v -0.08130442 -0.02710147 0.03484475
v -0.08130442 -0.01935819 -0.09679097
v -0.08130442 -0.01935819 -0.08904770
v -0.08130442 -0.01935819 0.02710147
v -0.08904770 -0.02710147 0.04258803
v -0.08130442 -0.02710147 0.04258803
v -0.08130442 -0.01935819 0.03484475
v -0.08130442 -0.01935819 0.04258803
v -0.08904770 -0.01935819 -0.10453425
v -0.08130442 -0.01935819 -0.10453425
v -0.08130442 -0.01161492 -0.10453425
v -0.08130442 -0.01161492 -0.09679097
v -0.08130442 -0.01161492 -0.08904770
v -0.08130442 -0.01161492 0.02710147
v -0.08130442 -0.01161492 0.03484475
v -0.08130442 -0.01161492 0.04258803
v -0.08130442 -0.00387164 -0.10453425
v -0.08130442 -0.00387164 -0.09679097
v -0.08130442 -0.00387164 0.03484475
v -0.08130442 -0.00387164 0.04258803
v -0.08130442 0.00387164 -0.10453425
v -0.08130442 0.00387164 -0.09679097
v -0.08130442 0.00387164 0.03484475
v -0.08130442 0.00387164 0.04258803
v -0.08130442 0.01161492 -0.10453425
v -0.08130442 0.01161492 -0.09679097
v -0.08130442 0.01161492 0.03484475
v -0.08130442 0.01161492 0.04258803
v -0.08130442 0.01935819 -0.10453425
v -0.08130442 0.01935819 -0.09679097
v -0.08130442 0.01161492 -0.08904770
v -0.08130442 0.01935819 -0.08904770
v -0.08130442 0.01935819 0.03484475
v -0.08130442 0.01935819 0.04258803
v -0.08130442 0.02710147 -0.09679097
v -0.08130442 0.02710147 -0.08904770
v -0.08130442 0.01935819 0.02710147
v -0.08130442 0.02710147 0.02710147
v -0.08130442 0.02710147 0.03484475
v -0.08904770 0.02710147 0.04258803
v -0.08130442 0.02710147 0.04258803
v -0.08130442 0.03484475 -0.09679097
v -0.08130442 0.03484475 -0.08904770
v -0.08130442 0.03484475 0.02710147
v -0.08130442 0.03484475 0.03484475
v -0.08130442 0.03484475 -0.08130442
v -0.08130442 0.04258803 -0.08904770
v -0.08130442 0.04258803 -0.08130442
v -0.08130442 0.03484475 0.01935819
v -0.08130442 0.04258803 0.01935819
v -0.08130442 0.04258803 0.02710147
v -0.08130442 0.04258803 0.03484475
v -0.08130442 0.05033131 -0.08904770
v -0.08130442 0.05033131 -0.08130442
v -0.08130442 0.04258803 -0.07356114
v -0.08130442 0.05033131 -0.07356114
v -0.08130442 0.04258803 0.01161492
v -0.08130442 0.05033131 0.01161492
v -0.08130442 0.05033131 0.01935819
v -0.08130442 0.05033131 0.02710147
v -0.08130442 0.05033131 -0.06581786
v -0.08130442 0.05807458 -0.07356114
v -0.08130442 0.05807458 -0.06581786
v -0.08130442 0.05033131 0.00387164
v -0.08130442 0.05807458 0.00387164
v -0.08130442 0.05807458 0.01161492
v -0.08130442 0.05807458 0.01935819
v -0.08904770 0.06581786 -0.07356114
v -0.08130442 0.06581786 -0.07356114
v -0.08130442 0.06581786 -0.06581786
v -0.08130442 0.05807458 -0.05807458
v -0.08130442 0.06581786 -0.05807458
v -0.08130442 0.05807458 -0.05033131
v -0.08130442 0.06581786 -0.05033131
v -0.08130442 0.05807458 -0.01161492
v -0.08130442 0.05807458 -0.00387164
v -0.08130442 0.06581786 -0.01161492
v -0.08130442 0.06581786 -0.00387164
v -0.08130442 0.06581786 0.00387164
v -0.08130442 0.06581786 0.01161492
v -0.08904770 0.07356114 -0.05807458
v -0.08130442 0.07356114 -0.05807458
v -0.08130442 0.07356114 -0.05033131
v -0.08130442 0.06581786 -0.04258803
v -0.08130442 0.07356114 -0.04258803
v -0.08130442 0.06581786 -0.03484475
v -0.08130442 0.07356114 -0.03484475
v -0.08130442 0.06581786 -0.02710147
v -0.08130442 0.07356114 -0.02710147
v -0.08130442 0.06581786 -0.01935819
v -0.08130442 0.07356114 -0.01935819
v -0.08130442 0.07356114 -0.01161492
v -0.08904770 0.07356114 -0.00387164
v -0.08130442 0.07356114 -0.00387164
v -0.08130442 -0.07356114 -0.05807458
v -0.07356114 -0.07356114 -0.05807458
v -0.07356114 -0.07356114 -0.05033131
v -0.07356114 -0.06581786 -0.05807458
v -0.07356114 -0.06581786 -0.05033131
v -0.07356114 -0.07356114 -0.04258803
v -0.07356114 -0.06581786 -0.04258803
v -0.07356114 -0.07356114 -0.03484475
v -0.07356114 -0.06581786 -0.03484475
v -0.07356114 -0.07356114 -0.02710147
v -0.07356114 -0.06581786 -0.02710147
v -0.07356114 -0.07356114 -0.01935819
v -0.07356114 -0.06581786 -0.01935819
v -0.07356114 -0.07356114 -0.01161492
v -0.07356114 -0.06581786 -0.01161492
v -0.07356114 -0.07356114 -0.00387164
v -0.07356114 -0.06581786 -0.00387164
v -0.07356114 -0.06581786 -0.06581786
v -0.07356114 -0.05807458 -0.06581786
v -0.07356114 -0.05807458 -0.05807458
v -0.07356114 -0.05807458 -0.05033131
v -0.07356114 -0.05807458 -0.01161492
v -0.07356114 -0.05807458 -0.00387164
v -0.07356114 -0.05807458 0.01161492
v -0.07356114 -0.05807458 0.01935819
v -0.07356114 -0.05033131 0.01161492
v -0.07356114 -0.05033131 0.01935819
v -0.07356114 -0.05033131 0.02710147
v -0.07356114 -0.04258803 0.01935819
v -0.07356114 -0.04258803 0.02710147
v -0.07356114 -0.04258803 0.03484475
v -0.07356114 -0.03484475 0.02710147
v -0.07356114 -0.03484475 0.03484475
v -0.07356114 -0.02710147 0.02710147
v -0.07356114 -0.02710147 0.03484475
v -0.07356114 -0.01935819 0.02710147
v -0.07356114 -0.01935819 0.03484475
v 0.08130442 0.01161492 0.03484475
v 0.08130442 0.01161492 0.04258803
v 0.08130442 0.01935819 0.03484475
v 0.08130442 0.01935819 0.04258803
v 0.08904770 0.01161492 0.03484475
v 0.08904770 0.01161492 0.04258803
v 0.08904770 0.01935819 0.03484475
v 0.08904770 0.01935819 0.04258803
v 0.08904770 0.01161492 0.02710147
v 0.08904770 0.01935819 0.02710147
v 0.09679097 0.01161492 0.02710147
v 0.09679097 0.01161492 0.03484475
v 0.09679097 0.01935819 0.02710147
v 0.09679097 0.01935819 0.03484475
v 0.09679097 0.01161492 0.04258803
v 0.09679097 0.01935819 0.04258803
v 0.08904770 0.02710147 0.02710147
v 0.08904770 0.02710147 0.03484475
v 0.09679097 0.02710147 0.02710147
v 0.09679097 0.02710147 0.03484475
v 0.08904770 0.03484475 -0.08904770
v 0.08904770 0.03484475 -0.08130442
v 0.08904770 0.04258803 -0.08904770
v 0.08904770 0.04258803 -0.08130442
v 0.09679097 0.03484475 -0.08904770
v 0.09679097 0.03484475 -0.08130442
v 0.09679097 0.04258803 -0.08904770
v 0.09679097 0.04258803 -0.08130442
v 0.08904770 0.03484475 -0.07356114
v 0.08904770 0.04258803 -0.07356114
v 0.09679097 0.03484475 -0.07356114
v 0.09679097 0.04258803 -0.07356114
v 0.08904770 0.05033131 -0.08904770
v 0.08904770 0.05033131 -0.08130442
v 0.09679097 0.05033131 -0.08904770
v 0.09679097 0.05033131 -0.08130442
v 0.08904770 0.05033131 -0.07356114
v 0.09679097 0.05033131 -0.07356114
f 2 4 1
f 5 2 1
f 1 4 3
f 3 5 1
f 6 2 5
f 7 5 3
f 8 9 2
f 6 8 2
f 2 9 4
f 10 8 6
f 11 12 8
f 10 11 8
f 8 12 9
f 13 11 10
f 14 15 11
f 13 14 11
f 11 15 12
f 16 14 13
f 17 18 14
f 16 17 14
f 14 18 15
f 19 17 16
f 20 21 17
f 19 20 17
f 17 21 18
f 22 20 19
f 23 24 20
f 22 23 20
f 20 24 21
f 25 23 22
f 26 27 23
f 25 26 23
f 23 27 24
f 28 26 25
f 29 30 26
f 28 29 26
f 26 30 27
f 31 29 28
f 32 33 29
f 31 32 29
f 29 33 30
f 34 32 31
f 35 36 32
f 34 35 32
f 32 36 33
f 37 35 34
f 38 39 35
f 37 38 35
f 35 39 36
f 40 38 37
f 41 42 38
f 40 41 38
f 38 42 39
f 43 41 40
f 44 45 41
f 43 44 41
f 41 45 42
f 44 47 45
f 46 44 43
f 46 47 44
f 3 50 48
f 51 3 48
f 48 50 49
f 49 51 48
f 7 3 51
f 50 53 49
f 52 51 49
f 49 53 52
f 4 54 3
f 3 54 50
f 53 55 7
f 56 55 53
f 9 57 4
f 4 57 54
f 56 58 55
f 59 58 56
f 12 60 9
f 9 60 57
f 59 61 58
f 62 61 59
f 15 63 12
f 12 63 60
f 62 64 61
f 65 64 62
f 18 66 15
f 15 66 63
f 65 67 64
f 68 67 65
f 21 69 18
f 18 69 66
f 68 70 67
f 71 70 68
f 24 72 21
f 21 72 69
f 71 73 70
f 74 73 71
f 27 75 24
f 24 75 72
f 74 76 73
f 77 76 74
f 30 78 27
f 27 78 75
f 77 79 76
f 80 79 77
f 33 81 30
f 30 81 78
f 80 82 79
f 83 82 80
f 36 84 33
f 33 84 81
f 83 85 82
f 86 85 83
f 39 87 36
f 36 87 84
f 86 88 85
f 89 88 86
f 42 90 39
f 39 90 87
f 89 91 88
f 92 91 89
f 45 93 42
f 42 93 90
f 45 94 93
f 47 94 45
f 54 96 50
f 50 96 95
f 95 53 50
f 97 53 95
f 57 98 54
f 54 98 96
f 99 59 56
f 100 59 99
f 60 101 57
f 57 101 98
f 100 62 59
f 102 62 100
f 63 103 60
f 60 103 101
f 102 65 62
f 104 65 102
f 66 105 63
f 63 105 103
f 104 68 65
f 106 68 104
f 69 107 66
f 66 107 105
f 106 71 68
f 108 71 106
f 72 109 69
f 69 109 107
f 108 74 71
f 110 74 108
f 75 111 72
f 72 111 109
f 110 77 74
f 112 77 110
f 78 113 75
f 75 113 111
f 112 80 77
f 114 80 112
f 81 115 78
f 78 115 113
f 114 83 80
f 116 83 114
f 84 117 81
f 81 117 115
f 116 86 83
f 118 86 116
f 87 119 84
f 84 119 117
f 118 89 86
f 120 89 118
f 90 121 87
f 87 121 119
f 93 122 90
f 90 122 121
f 93 124 122
f 94 124 93
f 122 124 121
f 121 124 123
f 96 126 95
f 95 126 125
f 125 97 95
f 126 128 125
f 127 97 125
f 125 128 127
f 98 129 96
f 96 129 126
f 128 100 99
f 130 100 128
f 101 131 98
f 98 131 129
f 130 102 100
f 132 102 130
f 103 133 101
f 101 133 131
f 132 104 102
f 134 104 132
f 105 135 103
f 103 135 133
f 134 106 104
f 136 106 134
f 107 137 105
f 105 137 135
f 136 108 106
f 138 108 136
f 109 139 107
f 107 139 137
f 138 110 108
f 140 110 138
f 111 141 109
f 109 141 139
f 140 112 110
f 142 112 140
f 113 143 111
f 111 143 141
f 142 114 112
f 144 114 142
f 115 145 113
f 113 145 143
f 144 116 114
f 146 116 144
f 117 147 115
f 115 147 145
f 146 118 116
f 148 118 146
f 119 149 117
f 117 149 147
f 148 120 118
f 150 120 148
f 121 151 119
f 119 151 149
f 121 152 151
f 123 152 121
f 151 152 149
f 149 152 150
f 129 154 126
f 126 154 153
f 153 128 126
f 154 156 153
f 155 128 153
f 153 156 155
f 131 157 129
f 129 157 154
f 133 158 131
f 131 158 157
f 159 134 132
f 160 134 159
f 135 161 133
f 133 161 158
f 160 136 134
f 162 136 160
f 137 163 135
f 135 163 161
f 162 138 136
f 164 138 162
f 139 165 137
f 137 165 163
f 164 140 138
f 166 140 164
f 141 167 139
f 139 167 165
f 166 142 140
f 168 142 166
f 143 169 141
f 141 169 167
f 168 144 142
f 170 144 168
f 145 171 143
f 143 171 169
f 170 146 144
f 172 146 170
f 147 173 145
f 145 173 171
f 149 174 147
f 147 174 173
f 149 176 174
f 150 176 149
f 174 176 173
f 173 176 175
f 157 178 154
f 154 178 177
f 177 156 154
f 178 180 177
f 179 156 177
f 177 180 179
f 158 181 157
f 157 181 178
f 181 182 178
f 178 182 180
f 161 183 158
f 158 183 181
f 183 184 181
f 181 184 182
f 163 185 161
f 161 185 183
f 185 186 183
f 183 186 184
f 165 187 163
f 163 187 185
f 187 188 185
f 185 188 186
f 167 189 165
f 165 189 187
f 189 190 187
f 187 190 188
f 169 191 167
f 167 191 189
f 191 192 189
f 189 192 190
f 171 193 169
f 169 193 191
f 193 194 191
f 191 194 192
f 173 195 171
f 171 195 193
f 173 196 195
f 175 196 173
f 195 196 193
f 193 196 194
f 198 200 197
f 201 198 197
f 197 200 199
f 199 201 197
f 202 198 201
f 203 201 199
f 204 205 198
f 202 204 198
f 198 205 200
f 206 204 202
f 207 208 204
f 206 207 204
f 204 208 205
f 209 207 206
f 210 211 207
f 209 210 207
f 207 211 208
f 212 210 209
f 213 214 210
f 212 213 210
f 210 214 211
f 213 216 214
f 215 213 212
f 215 216 213
f 218 220 217
f 221 218 217
f 217 220 219
f 219 221 217
f 222 218 221
f 223 221 219
f 224 225 218
f 222 224 218
f 218 225 220
f 226 224 222
f 199 227 224
f 226 199 224
f 224 227 225
f 203 199 226
f 200 228 199
f 199 228 227
f 230 229 203
f 231 229 230
f 205 232 200
f 200 232 228
f 231 233 229
f 234 233 231
f 208 235 205
f 205 235 232
f 234 236 233
f 237 236 234
f 211 238 208
f 208 238 235
f 237 239 236
f 240 239 237
f 214 241 211
f 211 241 238
f 240 216 239
f 242 216 240
f 243 244 214
f 216 243 214
f 214 244 241
f 245 243 216
f 246 247 243
f 245 246 243
f 243 247 244
f 248 246 245
f 249 250 246
f 248 249 246
f 246 250 247
f 249 252 250
f 251 249 248
f 251 252 249
f 219 255 253
f 256 219 253
f 253 255 254
f 254 256 253
f 223 219 256
f 257 256 254
f 220 258 219
f 219 258 255
f 225 259 220
f 220 259 258
f 262 261 260
f 263 261 262
f 227 264 225
f 225 264 259
f 263 230 261
f 265 230 263
f 228 266 227
f 227 266 264
f 265 231 230
f 267 231 265
f 232 268 228
f 228 268 266
f 267 234 231
f 269 234 267
f 235 270 232
f 232 270 268
f 269 237 234
f 271 237 269
f 238 272 235
f 235 272 270
f 271 240 237
f 273 240 271
f 241 274 238
f 238 274 272
f 273 242 240
f 275 242 273
f 244 276 241
f 241 276 274
f 275 277 242
f 278 277 275
f 247 279 244
f 244 279 276
f 278 280 277
f 281 280 278
f 250 282 247
f 247 282 279
f 281 252 280
f 283 252 281
f 284 285 250
f 252 284 250
f 250 285 282
f 284 287 285
f 286 284 252
f 286 287 284
f 254 290 288
f 291 254 288
f 288 290 289
f 289 291 288
f 257 254 291
f 292 291 289
f 255 293 254
f 254 293 290
f 258 294 255
f 255 294 293
f 296 262 295
f 297 262 296
f 259 298 258
f 258 298 294
f 297 263 262
f 299 263 297
f 264 300 259
f 259 300 298
f 299 265 263
f 301 265 299
f 266 302 264
f 264 302 300
f 301 267 265
f 303 267 301
f 268 304 266
f 266 304 302
f 303 269 267
f 305 269 303
f 270 306 268
f 268 306 304
f 305 271 269
f 307 271 305
f 272 308 270
f 270 308 306
f 307 273 271
f 309 273 307
f 274 310 272
f 272 310 308
f 309 275 273
f 311 275 309
f 276 312 274
f 274 312 310
f 311 278 275
f 313 278 311
f 279 314 276
f 276 314 312
f 313 281 278
f 315 281 313
f 282 316 279
f 279 316 314
f 315 283 281
f 317 283 315
f 285 318 282
f 282 318 316
f 317 287 283
f 319 287 317
f 320 321 285
f 287 320 285
f 285 321 318
f 320 323 321
f 322 320 287
f 322 323 320
f 289 326 324
f 327 289 324
f 324 326 325
f 325 327 324
f 292 289 327
f 328 327 325
f 290 329 289
f 289 329 326
f 293 330 290
f 290 330 329
f 332 296 331
f 333 296 332
f 294 334 293
f 293 334 330
f 333 297 296
f 335 297 333
f 298 336 294
f 294 336 334
f 335 299 297
f 337 299 335
f 300 338 298
f 298 338 336
f 337 301 299
f 339 301 337
f 302 340 300
f 300 340 338
f 339 303 301
f 341 303 339
f 304 342 302
f 302 342 340
f 341 305 303
f 343 305 341
f 306 344 304
f 304 344 342
f 343 307 305
f 345 307 343
f 308 346 306
f 306 346 344
f 345 309 307
f 347 309 345
f 310 348 308
f 308 348 346
f 347 311 309
f 349 311 347
f 312 350 310
f 310 350 348
f 349 313 311
f 351 313 349
f 314 352 312
f 312 352 350
f 351 315 313
f 353 315 351
f 316 354 314
f 314 354 352
f 353 317 315
f 355 317 353
f 318 356 316
f 316 356 354
f 355 319 317
f 357 319 355
f 321 358 318
f 318 358 356
f 359 360 321
f 323 359 321
f 321 360 358
f 359 362 360
f 361 359 323
f 361 362 359
f 326 364 325
f 325 364 363
f 363 328 325
f 365 328 363
f 329 366 326
f 326 366 364
f 368 332 367
f 369 332 368
f 330 370 329
f 329 370 366
f 369 333 332
f 371 333 369
f 334 372 330
f 330 372 370
f 371 335 333
f 373 335 371
f 336 374 334
f 334 374 372
f 373 337 335
f 375 337 373
f 338 376 336
f 336 376 374
f 375 339 337
f 377 339 375
f 340 378 338
f 338 378 376
f 377 341 339
f 379 341 377
f 342 380 340
f 340 380 378
f 379 343 341
f 381 343 379
f 344 382 342
f 342 382 380
f 381 345 343
f 383 345 381
f 346 384 344
f 344 384 382
f 383 347 345
f 385 347 383
f 348 386 346
f 346 386 384
f 385 349 347
f 387 349 385
f 350 388 348
f 348 388 386
f 387 351 349
f 389 351 387
f 352 390 350
f 350 390 388
f 389 353 351
f 391 353 389
f 354 392 352
f 352 392 390
f 391 355 353
f 393 355 391
f 356 394 354
f 354 394 392
f 393 357 355
f 395 357 393
f 358 396 356
f 356 396 394
f 395 397 357
f 398 397 395
f 360 399 358
f 358 399 396
f 360 400 399
f 362 400 360
f 364 402 363
f 363 402 401
f 401 365 363
f 403 365 401
f 366 404 364
f 364 404 402
f 405 369 368
f 406 369 405
f 370 407 366
f 366 407 404
f 406 371 369
f 408 371 406
f 372 409 370
f 370 409 407
f 408 373 371
f 410 373 408
f 374 411 372
f 372 411 409
f 410 375 373
f 412 375 410
f 376 413 374
f 374 413 411
f 412 377 375
f 414 377 412
f 378 415 376
f 376 415 413
f 414 379 377
f 416 379 414
f 380 417 378
f 378 417 415
f 416 381 379
f 418 381 416
f 382 419 380
f 380 419 417
f 418 383 381
f 420 383 418
f 384 421 382
f 382 421 419
f 420 385 383
f 422 385 420
f 386 423 384
f 384 423 421
f 422 387 385
f 424 387 422
f 388 425 386
f 386 425 423
f 424 389 387
f 426 389 424
f 390 427 388
f 388 427 425
f 426 391 389
f 428 391 426
f 392 429 390
f 390 429 427
f 428 393 391
f 430 393 428
f 394 431 392
f 392 431 429
f 430 395 393
f 432 395 430
f 396 433 394
f 394 433 431
f 432 398 395
f 434 398 432
f 399 435 396
f 396 435 433
f 436 437 399
f 400 436 399
f 399 437 435
f 436 439 437
f 438 436 400
f 438 439 436
f 401 442 440
f 443 401 440
f 440 442 441
f 441 443 440
f 403 401 443
f 444 443 441
f 402 445 401
f 401 445 442
f 446 405 403
f 447 405 446
f 404 448 402
f 402 448 445
f 447 406 405
f 449 406 447
f 407 450 404
f 404 450 448
f 449 408 406
f 451 408 449
f 409 452 407
f 407 452 450
f 451 410 408
f 453 410 451
f 411 454 409
f 409 454 452
f 453 412 410
f 455 412 453
f 413 456 411
f 411 456 454
f 455 414 412
f 457 414 455
f 415 458 413
f 413 458 456
f 457 416 414
f 459 416 457
f 417 460 415
f 415 460 458
f 459 418 416
f 461 418 459
f 419 462 417
f 417 462 460
f 461 420 418
f 463 420 461
f 421 464 419
f 419 464 462
f 463 422 420
f 465 422 463
f 423 466 421
f 421 466 464
f 465 424 422
f 467 424 465
f 425 468 423
f 423 468 466
f 467 426 424
f 469 426 467
f 427 470 425
f 425 470 468
f 469 428 426
f 471 428 469
f 429 472 427
f 427 472 470
f 471 430 428
f 473 430 471
f 431 474 429
f 429 474 472
f 473 432 430
f 475 432 473
f 433 476 431
f 431 476 474
f 475 434 432
f 477 434 475
f 435 478 433
f 433 478 476
f 477 479 434
f 480 479 477
f 437 481 435
f 435 481 478
f 437 482 481
f 439 482 437
f 442 484 441
f 441 484 483
f 483 444 441
f 485 444 483
f 445 486 442
f 442 486 484
f 487 447 446
f 488 447 487
f 448 489 445
f 445 489 486
f 488 449 447
f 490 449 488
f 450 491 448
f 448 491 489
f 490 451 449
f 492 451 490
f 452 493 450
f 450 493 491
f 492 453 451
f 494 453 492
f 454 495 452
f 452 495 493
f 494 455 453
f 496 455 494
f 456 497 454
f 454 497 495
f 496 457 455
f 498 457 496
f 458 499 456
f 456 499 497
f 498 459 457
f 500 459 498
f 460 501 458
f 458 501 499
f 500 461 459
f 502 461 500
f 462 503 460
f 460 503 501
f 502 463 461
f 504 463 502
f 464 505 462
f 462 505 503
f 504 465 463
f 506 465 504
f 466 507 464
f 464 507 505
f 506 467 465
f 508 467 506
f 468 509 466
f 466 509 507
f 508 469 467
f 510 469 508
f 470 511 468
f 468 511 509
f 510 471 469
f 512 471 510
f 472 513 470
f 470 513 511
f 512 473 471
f 514 473 512
f 474 515 472
f 472 515 513
f 514 475 473
f 516 475 514
f 476 517 474
f 474 517 515
f 516 477 475
f 518 477 516
f 478 519 476
f 476 519 517
f 518 480 477
f 520 480 518
f 481 521 478
f 478 521 519
f 481 522 521
f 482 522 481
f 484 524 483
f 483 524 523
f 523 485 483
f 525 485 523
f 486 526 484
f 484 526 524
f 527 488 487
f 528 488 527
f 489 529 486
f 486 529 526
f 528 490 488
f 530 490 528
f 491 531 489
f 489 531 529
f 530 492 490
f 532 492 530
f 493 533 491
f 491 533 531
f 532 494 492
f 534 494 532
f 495 535 493
f 493 535 533
f 534 496 494
f 536 496 534
f 497 537 495
f 495 537 535
f 536 498 496
f 538 498 536
f 499 539 497
f 497 539 537
f 538 500 498
f 540 500 538
f 501 541 499
f 499 541 539
f 540 502 500
f 542 502 540
f 503 543 501
f 501 543 541
f 542 504 502
f 544 504 542
f 505 545 503
f 503 545 543
f 544 506 504
f 546 506 544
f 507 547 505
f 505 547 545
f 546 508 506
f 548 508 546
f 509 549 507
f 507 549 547
f 548 510 508
f 550 510 548
f 511 551 509
f 509 551 549
f 550 512 510
f 552 512 550
f 513 553 511
f 511 553 551
f 552 514 512
f 554 514 552
f 515 555 513
f 513 555 553
f 554 516 514
f 556 516 554
f 517 557 515
f 515 557 555
f 556 518 516
f 558 518 556
f 519 559 517
f 517 559 557
f 558 520 518
f 560 520 558
f 521 561 519
f 519 561 559
f 521 562 561
f 522 562 521
f 524 564 523
f 523 564 563
f 563 525 523
f 564 566 563
f 565 525 563
f 563 566 565
f 526 567 524
f 524 567 564
f 529 5 526
f 526 5 567
f 568 530 528
f 569 530 568
f 531 6 529
f 529 6 5
f 569 532 530
f 570 532 569
f 533 10 531
f 531 10 6
f 570 534 532
f 571 534 570
f 535 13 533
f 533 13 10
f 571 536 534
f 572 536 571
f 537 16 535
f 535 16 13
f 572 538 536
f 573 538 572
f 539 19 537
f 537 19 16
f 573 540 538
f 574 540 573
f 541 22 539
f 539 22 19
f 574 542 540
f 575 542 574
f 543 25 541
f 541 25 22
f 575 544 542
f 576 544 575
f 545 28 543
f 543 28 25
f 576 546 544
f 577 546 576
f 547 31 545
f 545 31 28
f 577 548 546
f 578 548 577
f 549 34 547
f 547 34 31
f 578 550 548
f 579 550 578
f 551 37 549
f 549 37 34
f 579 552 550
f 580 552 579
f 553 40 551
f 551 40 37
f 580 554 552
f 581 554 580
f 555 43 553
f 553 43 40
f 581 556 554
f 582 556 581
f 557 46 555
f 555 46 43
f 582 558 556
f 583 558 582
f 559 584 557
f 557 584 46
f 583 560 558
f 585 560 583
f 561 586 559
f 559 586 584
f 561 587 586
f 562 587 561
f 586 587 584
f 584 587 585
f 567 51 564
f 564 51 588
f 588 566 564
f 589 566 588
f 5 7 567
f 567 7 51
f 590 569 568
f 591 569 590
f 55 592 7
f 7 592 591
f 591 570 569
f 592 570 591
f 58 593 55
f 55 593 592
f 592 571 570
f 593 571 592
f 61 594 58
f 58 594 593
f 593 572 571
f 594 572 593
f 64 595 61
f 61 595 594
f 594 573 572
f 595 573 594
f 67 596 64
f 64 596 595
f 595 574 573
f 596 574 595
f 70 597 67
f 67 597 596
f 596 575 574
f 597 575 596
f 73 598 70
f 70 598 597
f 597 576 575
f 598 576 597
f 76 599 73
f 73 599 598
f 598 577 576
f 599 577 598
f 79 600 76
f 76 600 599
f 599 578 577
f 600 578 599
f 82 601 79
f 79 601 600
f 600 579 578
f 601 579 600
f 85 602 82
f 82 602 601
f 601 580 579
f 602 580 601
f 88 603 85
f 85 603 602
f 602 581 580
f 603 581 602
f 91 604 88
f 88 604 603
f 603 582 581
f 604 582 603
f 604 583 582
f 605 583 604
f 584 606 46
f 46 606 47
f 584 607 606
f 585 607 584
f 51 52 588
f 588 52 608
f 608 589 588
f 52 610 608
f 609 589 608
f 608 610 609
f 7 611 53
f 591 611 7
f 610 591 590
f 611 591 610
f 92 604 91
f 612 604 92
f 612 605 604
f 613 605 612
f 606 614 47
f 47 614 94
f 606 615 614
f 607 615 606
f 53 97 52
f 52 97 616
f 616 610 52
f 617 610 616
f 611 56 53
f 56 620 99
f 618 56 611
f 618 620 56
f 619 618 611
f 620 618 619
f 621 92 89
f 120 621 89
f 612 92 621
f 622 621 120
f 622 612 621
f 623 612 622
f 614 624 94
f 94 624 124
f 614 626 624
f 615 626 614
f 624 626 124
f 124 626 625
f 97 127 616
f 616 127 627
f 627 617 616
f 127 629 627
f 628 617 627
f 627 629 628
f 99 630 128
f 620 630 99
f 150 622 120
f 631 622 150
f 124 632 123
f 123 632 152
f 124 634 632
f 625 634 124
f 632 634 152
f 152 634 633
f 128 155 127
f 127 155 635
f 635 629 127
f 155 637 635
f 636 629 635
f 635 637 636
f 636 630 629
f 637 630 636
f 630 130 128
f 638 130 630
f 156 639 155
f 155 639 637
f 638 132 130
f 132 641 159
f 640 132 638
f 640 641 132
f 639 640 638
f 641 640 639
f 642 148 146
f 172 642 146
f 643 148 642
f 644 642 172
f 644 643 642
f 645 643 644
f 643 150 148
f 631 150 643
f 152 646 150
f 150 646 176
f 152 648 646
f 633 648 152
f 646 648 176
f 176 648 647
f 179 639 156
f 180 650 179
f 649 639 179
f 179 650 649
f 641 160 159
f 651 160 641
f 182 652 180
f 180 652 650
f 651 162 160
f 653 162 651
f 652 653 651
f 654 653 652
f 653 164 162
f 655 164 653
f 654 655 653
f 656 655 654
f 655 166 164
f 657 166 655
f 656 657 655
f 658 657 656
f 657 168 166
f 659 168 657
f 658 659 657
f 660 659 658
f 659 170 168
f 661 170 659
f 660 661 659
f 662 661 660
f 661 172 170
f 644 172 661
f 194 663 192
f 192 663 662
f 196 664 194
f 194 664 663
f 176 665 175
f 175 665 196
f 176 666 665
f 647 666 176
f 665 666 196
f 196 666 664
f 184 668 182
f 182 668 667
f 667 652 182
f 668 670 667
f 669 652 667
f 667 670 669
f 186 671 184
f 184 671 668
f 671 672 668
f 668 672 670
f 188 673 186
f 186 673 671
f 673 674 671
f 671 674 672
f 190 675 188
f 188 675 673
f 675 676 673
f 673 676 674
f 192 677 190
f 190 677 675
f 192 678 677
f 662 678 192
f 677 678 675
f 675 678 676
f 680 202 679
f 681 680 679
f 679 202 201
f 201 681 679
f 682 680 681
f 683 681 201
f 684 206 680
f 682 684 680
f 680 206 202
f 685 684 682
f 686 209 684
f 685 686 684
f 684 209 206
f 687 686 685
f 688 212 686
f 687 688 686
f 686 212 209
f 689 688 687
f 690 215 688
f 689 690 688
f 688 215 212
f 691 690 689
f 692 693 690
f 691 692 690
f 690 693 215
f 692 695 693
f 694 692 691
f 694 695 692
f 697 222 696
f 698 697 696
f 696 222 221
f 221 698 696
f 699 697 698
f 700 698 221
f 700 699 698
f 701 699 700
f 702 226 697
f 699 702 697
f 697 226 222
f 703 702 699
f 201 203 702
f 703 201 702
f 702 203 226
f 683 201 703
f 229 706 203
f 203 706 705
f 705 704 683
f 706 704 705
f 233 708 229
f 229 708 706
f 706 707 704
f 708 707 706
f 236 710 233
f 233 710 708
f 708 709 707
f 710 709 708
f 239 712 236
f 236 712 710
f 710 711 709
f 712 711 710
f 216 714 239
f 239 714 712
f 712 713 711
f 714 713 712
f 693 245 215
f 215 245 216
f 715 248 693
f 695 715 693
f 693 248 245
f 715 718 248
f 716 715 695
f 716 718 715
f 717 716 695
f 718 716 717
f 221 223 719
f 720 221 719
f 719 223 256
f 256 720 719
f 700 221 720
f 721 720 256
f 721 700 720
f 722 700 721
f 722 701 700
f 723 701 722
f 261 725 260
f 260 725 723
f 723 724 701
f 725 724 723
f 203 726 230
f 705 726 203
f 230 726 261
f 261 726 725
f 725 705 724
f 726 705 725
f 242 714 216
f 277 728 242
f 727 714 242
f 242 728 727
f 727 717 714
f 728 717 727
f 280 729 277
f 277 729 728
f 728 718 717
f 729 718 728
f 718 251 248
f 730 251 718
f 252 731 280
f 280 731 729
f 729 730 718
f 731 730 729
f 732 286 251
f 730 732 251
f 251 286 252
f 732 734 286
f 733 732 730
f 733 734 732
f 256 257 735
f 736 256 735
f 735 257 291
f 291 736 735
f 721 256 736
f 737 736 291
f 737 721 736
f 738 721 737
f 738 722 721
f 739 722 738
f 260 740 262
f 723 740 260
f 262 740 295
f 295 740 739
f 739 723 722
f 740 723 739
f 283 731 252
f 287 742 283
f 741 731 283
f 283 742 741
f 741 734 731
f 742 734 741
f 743 322 286
f 734 743 286
f 286 322 287
f 743 745 322
f 744 743 734
f 744 745 743
f 291 292 746
f 747 291 746
f 746 292 327
f 327 747 746
f 737 291 747
f 748 747 327
f 748 737 747
f 749 737 748
f 749 738 737
f 750 738 749
f 295 751 296
f 739 751 295
f 296 751 331
f 331 751 750
f 750 739 738
f 751 739 750
f 319 742 287
f 752 742 319
f 752 745 742
f 753 745 752
f 754 361 322
f 745 754 322
f 322 361 323
f 754 756 361
f 755 754 745
f 755 756 754
f 328 748 327
f 757 748 328
f 757 749 748
f 758 749 757
f 331 759 332
f 750 759 331
f 332 759 367
f 367 759 758
f 758 750 749
f 759 750 758
f 357 752 319
f 397 761 357
f 760 752 357
f 357 761 760
f 760 753 752
f 761 753 760
f 361 762 362
f 756 762 361
f 365 757 328
f 367 764 368
f 758 764 367
f 763 757 365
f 763 758 757
f 764 758 763
f 398 761 397
f 765 761 398
f 766 438 362
f 762 766 362
f 362 438 400
f 766 769 438
f 767 766 762
f 767 769 766
f 768 767 762
f 769 767 768
f 365 403 770
f 771 365 770
f 770 403 443
f 443 771 770
f 763 365 771
f 772 771 443
f 772 763 771
f 773 763 772
f 368 774 405
f 764 774 368
f 405 774 403
f 403 774 773
f 773 764 763
f 774 764 773
f 434 765 398
f 479 776 434
f 775 765 434
f 434 776 775
f 775 768 765
f 776 768 775
f 438 777 439
f 769 777 438
f 776 769 768
f 777 769 776
f 444 772 443
f 403 779 446
f 773 779 403
f 778 772 444
f 778 773 772
f 779 773 778
f 480 776 479
f 439 781 482
f 777 781 439
f 780 776 480
f 780 777 776
f 781 777 780
f 485 778 444
f 446 783 487
f 779 783 446
f 782 778 485
f 782 779 778
f 783 779 782
f 520 780 480
f 482 785 522
f 781 785 482
f 784 780 520
f 784 781 780
f 785 781 784
f 525 782 485
f 487 787 527
f 783 787 487
f 786 782 525
f 786 783 782
f 787 783 786
f 560 784 520
f 522 789 562
f 785 789 522
f 788 784 560
f 788 785 784
f 789 785 788
f 565 786 525
f 566 791 565
f 790 786 565
f 565 791 790
f 790 787 786
f 791 787 790
f 787 528 527
f 528 793 568
f 792 528 787
f 792 793 528
f 791 792 787
f 793 792 791
f 585 788 560
f 562 795 587
f 789 795 562
f 794 788 585
f 794 789 788
f 795 789 794
f 589 791 566
f 568 797 590
f 793 797 568
f 796 791 589
f 796 793 791
f 797 793 796
f 798 585 583
f 605 798 583
f 794 585 798
f 799 798 605
f 799 794 798
f 800 794 799
f 587 801 585
f 585 801 607
f 587 802 801
f 795 802 587
f 801 802 607
f 607 802 800
f 800 795 794
f 802 795 800
f 609 796 589
f 590 804 610
f 797 804 590
f 610 804 609
f 803 796 609
f 609 804 803
f 803 797 796
f 804 797 803
f 613 799 605
f 607 806 615
f 800 806 607
f 805 799 613
f 805 800 799
f 806 800 805
f 804 611 610
f 617 804 610
f 611 809 619
f 807 611 804
f 807 809 611
f 808 804 617
f 808 807 804
f 809 807 808
f 810 613 612
f 623 810 612
f 805 613 810
f 811 810 623
f 811 805 810
f 812 805 811
f 615 813 626
f 806 813 615
f 626 813 625
f 625 813 812
f 812 806 805
f 813 806 812
f 628 808 617
f 629 815 628
f 814 808 628
f 628 815 814
f 814 809 808
f 815 809 814
f 809 620 619
f 620 817 630
f 816 620 809
f 816 817 620
f 630 817 629
f 629 817 815
f 815 816 809
f 817 816 815
f 818 623 622
f 631 818 622
f 811 623 818
f 819 818 631
f 819 811 818
f 820 811 819
f 625 821 634
f 812 821 625
f 634 821 633
f 633 821 820
f 820 812 811
f 821 812 820
f 817 638 630
f 637 817 630
f 638 824 639
f 822 638 817
f 822 824 638
f 823 817 637
f 823 822 817
f 824 822 823
f 825 631 643
f 645 825 643
f 819 631 825
f 826 825 645
f 826 819 825
f 827 819 826
f 633 828 648
f 820 828 633
f 648 828 647
f 647 828 827
f 827 820 819
f 828 820 827
f 639 649 637
f 637 649 829
f 829 823 637
f 649 831 829
f 830 823 829
f 829 831 830
f 830 824 823
f 831 824 830
f 824 641 639
f 832 641 824
f 650 833 649
f 649 833 831
f 831 832 824
f 833 832 831
f 832 651 641
f 651 835 652
f 834 651 832
f 834 835 651
f 833 834 832
f 835 834 833
f 836 644 661
f 662 836 661
f 837 644 836
f 838 836 662
f 838 837 836
f 839 837 838
f 837 645 644
f 826 645 837
f 664 840 663
f 663 840 839
f 839 826 837
f 840 826 839
f 647 841 666
f 827 841 647
f 666 841 664
f 664 841 840
f 840 827 826
f 841 827 840
f 652 669 650
f 650 669 842
f 842 833 650
f 669 844 842
f 843 833 842
f 842 844 843
f 843 835 833
f 844 835 843
f 835 654 652
f 845 654 835
f 670 846 669
f 669 846 844
f 844 845 835
f 846 845 844
f 845 656 654
f 847 656 845
f 672 848 670
f 670 848 846
f 846 847 845
f 848 847 846
f 847 658 656
f 849 658 847
f 674 850 672
f 672 850 848
f 848 849 847
f 850 849 848
f 849 660 658
f 851 660 849
f 676 852 674
f 674 852 850
f 850 851 849
f 852 851 850
f 851 662 660
f 838 662 851
f 678 853 676
f 676 853 852
f 852 838 851
f 853 838 852
f 663 854 662
f 662 854 678
f 663 855 854
f 839 855 663
f 854 855 678
f 678 855 853
f 853 839 838
f 855 839 853
f 681 683 856
f 857 681 856
f 856 683 703
f 703 857 856
f 858 681 857
f 859 857 703
f 859 858 857
f 860 858 859
f 858 682 681
f 861 682 858
f 704 862 683
f 683 862 860
f 860 861 858
f 862 861 860
f 861 685 682
f 863 685 861
f 707 864 704
f 704 864 862
f 862 863 861
f 864 863 862
f 863 687 685
f 865 687 863
f 709 866 707
f 707 866 864
f 864 865 863
f 866 865 864
f 865 689 687
f 867 689 865
f 711 868 709
f 709 868 866
f 866 867 865
f 868 867 866
f 867 691 689
f 869 691 867
f 713 870 711
f 711 870 868
f 868 869 867
f 870 869 868
f 869 694 691
f 694 872 695
f 871 694 869
f 871 872 694
f 870 871 869
f 872 871 870
f 873 703 699
f 701 873 699
f 859 703 873
f 724 875 701
f 874 873 701
f 701 875 874
f 874 859 873
f 875 859 874
f 683 876 705
f 860 876 683
f 705 876 724
f 724 876 875
f 875 860 859
f 876 860 875
f 714 870 713
f 695 878 717
f 872 878 695
f 717 878 714
f 877 870 714
f 714 878 877
f 877 872 870
f 878 872 877
f 879 733 730
f 731 879 730
f 733 882 734
f 880 733 879
f 880 882 733
f 734 882 731
f 881 879 731
f 731 882 881
f 881 880 879
f 882 880 881
f 882 744 734
f 742 882 734
f 744 885 745
f 883 744 882
f 883 885 744
f 745 885 742
f 884 882 742
f 742 885 884
f 884 883 882
f 885 883 884
f 885 755 745
f 753 885 745
f 755 888 756
f 886 755 885
f 886 888 755
f 887 885 753
f 887 886 885
f 888 886 887
f 761 887 753
f 756 890 762
f 888 890 756
f 889 887 761
f 889 888 887
f 890 888 889
f 765 889 761
f 762 892 768
f 890 892 762
f 768 892 765
f 891 889 765
f 765 892 891
f 891 890 889
f 892 890 891
f 894 896 893
f 897 894 893
f 893 896 895
f 895 897 893
f 894 900 896
f 898 894 897
f 898 900 894
f 896 900 895
f 899 897 895
f 895 900 899
f 897 899 901
f 903 897 901
f 901 899 902
f 902 903 901
f 904 897 903
f 905 903 902
f 905 904 903
f 906 904 905
f 904 898 897
f 898 908 900
f 907 898 904
f 907 908 898
f 900 908 899
f 899 908 906
f 906 907 904
f 908 907 906
f 899 910 902
f 902 910 909
f 909 905 902
f 899 912 910
f 906 912 899
f 910 912 909
f 911 905 909
f 909 912 911
f 911 906 905
f 912 906 911
f 914 916 913
f 917 914 913
f 913 916 915
f 915 917 913
f 918 914 917
f 919 917 915
f 919 918 917
f 920 918 919
f 921 922 914
f 918 921 914
f 914 922 916
f 921 924 922
f 923 921 918
f 923 924 921
f 920 923 918
f 924 923 920
f 916 926 915
f 915 926 925
f 925 919 915
f 926 928 925
f 927 919 925
f 925 928 927
f 927 920 919
f 928 920 927
f 922 929 916
f 916 929 926
f 922 930 929
f 924 930 922
f 929 930 926
f 926 930 928
f 928 924 920
f 930 924 928

