# https://github.com/mikedh/trimesh
v 0.00000029 -0.25000015 0.17903684
v 0.50000000 0.25000015 0.17903684
v 0.50000000 -0.25000015 0.17903684
v 0.00000029 0.25000015 0.17903684
v 0.50000000 -0.25000015 0.18554696
v -0.50000000 -0.25000015 0.17903684
v 0.50000000 0.25000015 0.18554696
v -0.50000000 0.25000015 0.17903684
v 0.00000029 -0.25000015 0.18554696
v -0.50000000 0.25000015 0.18554696
v 0.00000029 0.25000015 0.18554696
v -0.50000000 -0.25000015 0.18554696
v -0.38020814 -0.12883715 -0.18554696
v -0.42187503 -0.12883715 0.17903684
v -0.42187503 -0.12883715 -0.18554696
v -0.38020814 -0.12883715 0.17903684
v -0.42187503 -0.08717085 -0.18554696
v -0.38020814 -0.08717085 0.17903684
v -0.42187503 -0.08717085 0.17903684
v -0.38020814 -0.08717085 -0.18554696
v -0.38020814 0.08718786 -0.18554696
v -0.42187503 0.08718786 0.17903684
v -0.42187503 0.08718786 -0.18554696
v -0.38020814 0.08718786 0.17903684
v -0.42187503 0.12885475 -0.18554696
v -0.38020814 0.12885475 0.17903684
v -0.42187503 0.12885475 0.17903684
v -0.38020814 0.12885475 -0.18554696
v 0.42187503 0.08723949 -0.18554696
v 0.38020814 0.08723949 0.17903684
v 0.38020814 0.08723949 -0.18554696
v 0.42187503 0.08723949 0.17903684
v 0.38020814 0.12890638 -0.18554696
v 0.42187503 0.12890638 0.17903684
v 0.38020814 0.12890638 0.17903684
v 0.42187503 0.12890638 -0.18554696
v 0.42187503 -0.12878552 -0.18554696
v 0.38020814 -0.12878552 0.17903684
v 0.38020814 -0.12878552 -0.18554696
v 0.42187503 -0.12878552 0.17903684
v 0.38020814 -0.08711922 -0.18554696
v 0.42187503 -0.08711922 0.17903684
v 0.38020814 -0.08711922 0.17903684
v 0.42187503 -0.08711922 -0.18554696
v 0.43229146 0.12885475 -0.02938032
v 0.42187503 -0.12895801 -0.02938032
v 0.42187503 0.12885475 -0.02938032
v 0.43229146 -0.12895801 -0.02938032
v 0.42187503 0.12885475 0.01228656
v 0.43229146 -0.12895801 0.01228656
v 0.42187503 -0.12895801 0.01228656
v 0.43229146 0.12885475 0.01228656
v 0.43229146 0.12885475 0.07487021
v 0.42187503 -0.12895801 0.07487021
v 0.42187503 0.12885475 0.07487021
v 0.43229146 -0.12895801 0.07487021
v 0.42187503 0.12885475 0.11653651
v 0.43229146 -0.12895801 0.11653651
v 0.42187503 -0.12895801 0.11653651
v 0.43229146 0.12885475 0.11653651
v -0.42187503 0.12897503 -0.02929642
v -0.43229146 -0.12883715 -0.02929642
v -0.43229146 0.12897503 -0.02929642
v -0.42187503 -0.12883715 -0.02929642
v -0.43229146 0.12897503 0.01236988
v -0.42187503 -0.12883715 0.01236988
v -0.43229146 -0.12883715 0.01236988
v -0.42187503 0.12897503 0.01236988
v -0.42187503 0.12897503 0.07487021
v -0.43229146 -0.12883715 0.07487021
v -0.43229146 0.12897503 0.07487021
v -0.42187503 -0.12883715 0.07487021
v -0.43229146 0.12897503 0.11653651
v -0.42187503 -0.12883715 0.11653651
v -0.43229146 -0.12883715 0.11653651
v -0.42187503 0.12897503 0.11653651
v -0.42187503 0.13927118 0.11653651
v 0.42187503 0.13927118 0.11653651
v -0.42187503 0.12885475 0.11653651
v 0.42187503 0.13927118 0.07487021
v -0.42187503 0.12885475 0.07487021
v -0.42187503 0.13927118 0.07487021
v -0.42187503 0.13927118 0.01236988
v 0.42187503 0.12885475 0.01236988
v 0.42187503 0.13927118 0.01236988
v -0.42187503 0.12885475 0.01236988
v 0.42187503 0.13927118 -0.02929642
v -0.42187503 0.12885475 -0.02929642
v 0.42187503 0.12885475 -0.02929642
v -0.42187503 0.13927118 -0.02929642
v 0.07812527 -0.14576429 0.14257816
v 0.42187503 -0.12883715 0.14257816
v 0.42187503 -0.14576429 0.14257816
v -0.42187503 -0.14576429 0.14257816
v 0.42187503 -0.12883715 0.17903684
v 0.07812527 -0.14576429 0.17903684
v -0.42187503 -0.14576429 0.17903684
v -0.42187503 -0.12883715 0.14257816
v 0.42187503 -0.14576429 0.17903684
v 0.07812527 -0.12883715 0.17903684
v 0.07812527 -0.12883715 0.14257816
v -0.42187503 -0.07019208 0.17903684
v -0.07812527 -0.07019208 0.14257816
v -0.42187503 -0.07019208 0.14257816
v -0.07812527 -0.07019208 0.17903684
v -0.42187503 -0.08711922 0.14257816
v -0.42187503 -0.08711922 0.17903684
v 0.42187503 -0.07019208 0.14257816
v 0.42187503 -0.07019208 0.17903684
v -0.07812527 -0.08711922 0.14257816
v 0.42187503 -0.08711922 0.14257816
v -0.07812527 -0.08711922 0.17903684
v 0.42187503 0.08718786 0.17903684
v 0.07812527 0.08718786 0.17903684
v -0.42187503 0.07026073 0.17903684
v 0.42187503 0.08718786 0.14257816
v 0.07812527 0.08718786 0.14257816
v -0.42187503 0.08718786 0.14257816
v 0.07812527 0.07026073 0.17903684
v 0.42187503 0.07026073 0.14257816
v -0.42187503 0.07026073 0.14257816
v 0.07812527 0.07026073 0.14257816
v 0.42187503 0.07026073 0.17903684
v -0.42187503 0.14583352 0.17903684
v -0.07812527 0.14583352 0.14257816
v -0.42187503 0.14583352 0.14257816
v -0.07812527 0.14583352 0.17903684
v -0.42187503 0.12890638 0.14257816
v -0.42187503 0.12890638 0.17903684
v 0.42187503 0.14583352 0.14257816
v 0.42187503 0.14583352 0.17903684
v -0.07812527 0.12890638 0.14257816
v 0.42187503 0.12890638 0.14257816
v -0.07812527 0.12890638 0.17903684
f 1 2 3
f 2 1 4
f 4 1 6
f 4 6 8
f 7 9 5
f 9 7 11
f 9 11 10
f 9 10 12
f 3 2 1
f 4 1 2
f 3 5 2
f 1 6 3
f 6 1 4
f 7 4 2
f 7 2 5
f 3 6 5
f 8 6 4
f 4 7 8
f 5 9 7
f 5 6 9
f 8 10 6
f 7 11 8
f 11 7 9
f 12 9 6
f 12 6 10
f 10 8 11
f 10 11 9
f 12 10 9
f 2 5 3
f 3 6 1
f 2 4 7
f 5 2 7
f 5 6 3
f 8 7 4
f 9 6 5
f 6 10 8
f 8 11 7
f 6 9 12
f 10 6 12
f 11 8 10
f 13 14 15
f 14 13 16
f 14 17 15
f 17 13 15
f 13 18 16
f 18 14 16
f 17 14 19
f 13 17 20
f 18 13 20
f 14 18 19
f 18 17 19
f 17 18 20
f 15 14 13
f 16 13 14
f 15 17 14
f 15 13 17
f 16 18 13
f 16 14 18
f 19 14 17
f 20 17 13
f 20 13 18
f 19 18 14
f 19 17 18
f 20 18 17
f 21 22 23
f 22 21 24
f 22 25 23
f 25 21 23
f 21 26 24
f 26 22 24
f 25 22 27
f 21 25 28
f 26 21 28
f 22 26 27
f 26 25 27
f 25 26 28
f 23 22 21
f 24 21 22
f 23 25 22
f 23 21 25
f 24 26 21
f 24 22 26
f 27 22 25
f 28 25 21
f 28 21 26
f 27 26 22
f 27 25 26
f 28 26 25
f 29 30 31
f 30 29 32
f 30 33 31
f 33 29 31
f 29 34 32
f 34 30 32
f 33 30 35
f 29 33 36
f 34 29 36
f 30 34 35
f 34 33 35
f 33 34 36
f 31 30 29
f 32 29 30
f 31 33 30
f 31 29 33
f 32 34 29
f 32 30 34
f 35 30 33
f 36 33 29
f 36 29 34
f 35 34 30
f 35 33 34
f 36 34 33
f 37 38 39
f 38 37 40
f 38 41 39
f 41 37 39
f 37 42 40
f 42 38 40
f 41 38 43
f 37 41 44
f 42 37 44
f 38 42 43
f 42 41 43
f 41 42 44
f 39 38 37
f 40 37 38
f 39 41 38
f 39 37 41
f 40 42 37
f 40 38 42
f 43 38 41
f 44 41 37
f 44 37 42
f 43 42 38
f 43 41 42
f 44 42 41
f 45 46 47
f 46 45 48
f 46 49 47
f 49 45 47
f 45 50 48
f 50 46 48
f 49 46 51
f 45 49 52
f 50 45 52
f 46 50 51
f 50 49 51
f 49 50 52
f 47 46 45
f 48 45 46
f 47 49 46
f 47 45 49
f 48 50 45
f 48 46 50
f 51 46 49
f 52 49 45
f 52 45 50
f 51 50 46
f 51 49 50
f 52 50 49
f 53 54 55
f 54 53 56
f 54 57 55
f 57 53 55
f 53 58 56
f 58 54 56
f 57 54 59
f 53 57 60
f 58 53 60
f 54 58 59
f 58 57 59
f 57 58 60
f 55 54 53
f 56 53 54
f 55 57 54
f 55 53 57
f 56 58 53
f 56 54 58
f 59 54 57
f 60 57 53
f 60 53 58
f 59 58 54
f 59 57 58
f 60 58 57
f 61 62 63
f 62 61 64
f 62 65 63
f 65 61 63
f 61 66 64
f 66 62 64
f 65 62 67
f 61 65 68
f 66 61 68
f 62 66 67
f 66 65 67
f 65 66 68
f 63 62 61
f 64 61 62
f 63 65 62
f 63 61 65
f 64 66 61
f 64 62 66
f 67 62 65
f 68 65 61
f 68 61 66
f 67 66 62
f 67 65 66
f 68 66 65
f 69 70 71
f 70 69 72
f 70 73 71
f 73 69 71
f 69 74 72
f 74 70 72
f 73 70 75
f 69 73 76
f 74 69 76
f 70 74 75
f 74 73 75
f 73 74 76
f 71 70 69
f 72 69 70
f 71 73 70
f 71 69 73
f 72 74 69
f 72 70 74
f 75 70 73
f 76 73 69
f 76 69 74
f 75 74 70
f 75 73 74
f 76 74 73
f 77 57 78
f 57 77 79
f 57 80 78
f 80 77 78
f 77 81 79
f 81 57 79
f 80 57 55
f 77 80 82
f 81 77 82
f 57 81 55
f 81 80 55
f 80 81 82
f 78 57 77
f 79 77 57
f 78 80 57
f 78 77 80
f 79 81 77
f 79 57 81
f 55 57 80
f 82 80 77
f 82 77 81
f 55 81 57
f 55 80 81
f 82 81 80
f 83 84 85
f 84 83 86
f 84 87 85
f 87 83 85
f 83 88 86
f 88 84 86
f 87 84 89
f 83 87 90
f 88 83 90
f 84 88 89
f 88 87 89
f 87 88 90
f 85 84 83
f 86 83 84
f 85 87 84
f 85 83 87
f 86 88 83
f 86 84 88
f 89 84 87
f 90 87 83
f 90 83 88
f 89 88 84
f 89 87 88
f 90 88 87
f 91 92 93
f 92 91 94
f 95 93 92
f 92 94 98
f 93 95 99
f 97 98 94
f 92 98 101
f 98 97 14
f 93 92 91
f 94 91 92
f 92 93 95
f 93 91 96
f 94 97 91
f 98 94 92
f 99 95 93
f 95 100 92
f 96 91 97
f 99 93 96
f 94 98 97
f 101 98 92
f 92 100 101
f 14 97 98
f 98 101 14
f 100 14 101
f 96 91 93
f 91 97 94
f 92 100 95
f 97 91 96
f 96 93 99
f 101 100 92
f 14 101 98
f 101 14 100
f 102 103 104
f 103 102 105
f 103 105 108
f 108 105 109
f 110 107 106
f 107 110 112
f 112 110 111
f 112 111 42
f 104 103 102
f 105 102 103
f 104 106 103
f 102 107 104
f 108 105 103
f 103 106 108
f 106 104 107
f 109 105 108
f 106 110 108
f 106 107 110
f 111 108 110
f 112 110 107
f 111 110 112
f 42 111 112
f 103 106 104
f 104 107 102
f 108 106 103
f 107 104 106
f 108 110 106
f 110 108 111
f 22 113 114
f 113 22 115
f 118 115 22
f 113 115 119
f 113 120 116
f 115 118 121
f 123 113 119
f 116 118 117
f 120 113 123
f 118 116 120
f 121 118 122
f 118 120 122
f 114 113 22
f 115 22 113
f 113 114 116
f 114 22 117
f 22 115 118
f 119 115 113
f 116 114 117
f 116 120 113
f 118 117 22
f 121 118 115
f 119 122 115
f 119 113 123
f 117 118 116
f 123 113 120
f 120 116 118
f 122 118 121
f 121 115 122
f 120 122 119
f 123 120 119
f 122 120 118
f 116 114 113
f 117 22 114
f 117 114 116
f 22 117 118
f 115 122 119
f 122 115 121
f 119 122 120
f 119 120 123
f 124 125 126
f 125 124 127
f 125 127 130
f 130 127 131
f 132 129 128
f 129 132 134
f 134 132 133
f 134 133 34
f 126 125 124
f 127 124 125
f 126 128 125
f 124 129 126
f 130 127 125
f 125 128 130
f 128 126 129
f 131 127 130
f 128 132 130
f 128 129 132
f 133 130 132
f 134 132 129
f 133 132 134
f 34 133 134
f 125 128 126
f 126 129 124
f 130 128 125
f 129 126 128
f 130 132 128
f 132 130 133

