# https://github.com/mikedh/trimesh
v -0.03400000 -0.16200000 -0.09000000
v -0.03400000 -0.16200000 -0.08600000
v -0.03400000 -0.15800000 -0.09000000
v -0.03400000 -0.15800000 -0.08600000
v -0.03000000 -0.16200000 -0.09000000
v -0.03000000 -0.16200000 -0.08600000
v -0.03000000 -0.15800000 -0.09000000
v -0.03000000 -0.15800000 -0.08600000
v -0.03400000 -0.15400000 -0.09000000
v -0.03400000 -0.15400000 -0.08600000
v -0.03000000 -0.15400000 -0.09000000
v -0.03000000 -0.15400000 -0.08600000
v -0.03400000 -0.15000000 -0.09000000
v -0.03400000 -0.15000000 -0.08600000
v -0.03000000 -0.15000000 -0.09000000
v -0.03000000 -0.15000000 -0.08600000
v -0.03400000 -0.14600000 -0.09000000
v -0.03400000 -0.14600000 -0.08600000
v -0.03000000 -0.14600000 -0.09000000
v -0.03000000 -0.14600000 -0.08600000
v -0.03400000 -0.14200000 -0.09000000
v -0.03400000 -0.14200000 -0.08600000
v -0.03000000 -0.14200000 -0.09000000
v -0.03000000 -0.14200000 -0.08600000
v -0.03400000 -0.13800000 -0.09000000
v -0.03400000 -0.13800000 -0.08600000
v -0.03000000 -0.13800000 -0.09000000
v -0.03000000 -0.13800000 -0.08600000
v -0.03400000 -0.13400000 -0.09000000
v -0.03400000 -0.13400000 -0.08600000
v -0.03000000 -0.13400000 -0.09000000
v -0.03000000 -0.13400000 -0.08600000
v -0.03400000 -0.13000000 -0.09000000
v -0.03400000 -0.13000000 -0.08600000
v -0.03000000 -0.13000000 -0.09000000
v -0.03000000 -0.13000000 -0.08600000
v -0.03400000 -0.12600000 -0.09000000
v -0.03400000 -0.12600000 -0.08600000
v -0.03000000 -0.12600000 -0.09000000
v -0.03000000 -0.12600000 -0.08600000
v -0.03400000 -0.12200000 -0.09000000
v -0.03400000 -0.12200000 -0.08600000
v -0.03000000 -0.12200000 -0.09000000
v -0.03000000 -0.12200000 -0.08600000
v -0.03400000 -0.11800000 -0.09000000
v -0.03400000 -0.11800000 -0.08600000
v -0.03000000 -0.11800000 -0.09000000
v -0.03000000 -0.11800000 -0.08600000
v -0.03400000 -0.11400000 -0.09000000
v -0.03400000 -0.11400000 -0.08600000
v -0.03000000 -0.11400000 -0.09000000
v -0.03000000 -0.11400000 -0.08600000
v -0.03400000 -0.11000000 -0.09000000
v -0.03400000 -0.11000000 -0.08600000
v -0.03000000 -0.11000000 -0.09000000
v -0.03000000 -0.11000000 -0.08600000
v -0.03400000 -0.10600000 -0.09000000
v -0.03400000 -0.10600000 -0.08600000
v -0.03000000 -0.10600000 -0.09000000
v -0.03000000 -0.10600000 -0.08600000
v -0.02600000 -0.16200000 -0.09000000
v -0.02600000 -0.16200000 -0.08600000
v -0.02600000 -0.15800000 -0.09000000
v -0.02600000 -0.15800000 -0.08600000
v -0.02600000 -0.15400000 -0.09000000
v -0.02600000 -0.15400000 -0.08600000
v -0.02600000 -0.15000000 -0.09000000
v -0.02600000 -0.15000000 -0.08600000
v -0.02600000 -0.14600000 -0.09000000
v -0.02600000 -0.14600000 -0.08600000
v -0.02600000 -0.14200000 -0.09000000
v -0.02600000 -0.14200000 -0.08600000
v -0.02600000 -0.13800000 -0.09000000
v -0.02600000 -0.13800000 -0.08600000
v -0.02600000 -0.13400000 -0.09000000
v -0.02600000 -0.13400000 -0.08600000
v -0.02600000 -0.13000000 -0.09000000
v -0.02600000 -0.13000000 -0.08600000
v -0.02600000 -0.12600000 -0.09000000
v -0.02600000 -0.12600000 -0.08600000
v -0.02600000 -0.12200000 -0.09000000
v -0.02600000 -0.12200000 -0.08600000
v -0.02600000 -0.11800000 -0.09000000
v -0.02600000 -0.11800000 -0.08600000
v -0.02600000 -0.11400000 -0.09000000
v -0.02600000 -0.11400000 -0.08600000
v -0.02600000 -0.11000000 -0.09000000
v -0.02600000 -0.11000000 -0.08600000
v -0.02600000 -0.10600000 -0.09000000
v -0.02600000 -0.10600000 -0.08600000
v -0.02200000 -0.16200000 -0.09000000
v -0.02200000 -0.16200000 -0.08600000
v -0.02200000 -0.15800000 -0.09000000
v -0.02200000 -0.15800000 -0.08600000
v -0.02200000 -0.15400000 -0.09000000
v -0.02200000 -0.15400000 -0.08600000
v -0.02200000 -0.15000000 -0.09000000
v -0.02200000 -0.15000000 -0.08600000
v -0.02200000 -0.14600000 -0.09000000
v -0.02200000 -0.14600000 -0.08600000
v -0.02200000 -0.14200000 -0.09000000
v -0.02200000 -0.14200000 -0.08600000
v -0.02200000 -0.13800000 -0.09000000
v -0.02200000 -0.13800000 -0.08600000
v -0.02200000 -0.13400000 -0.09000000
v -0.02200000 -0.13400000 -0.08600000
v -0.02200000 -0.13000000 -0.09000000
v -0.02200000 -0.13000000 -0.08600000
v -0.02200000 -0.12600000 -0.09000000
v -0.02200000 -0.12600000 -0.08600000
v -0.02200000 -0.12200000 -0.09000000
v -0.02200000 -0.12200000 -0.08600000
v -0.02200000 -0.11800000 -0.09000000
v -0.02200000 -0.11800000 -0.08600000
v -0.02200000 -0.11400000 -0.09000000
v -0.02200000 -0.11400000 -0.08600000
v -0.02200000 -0.11000000 -0.09000000
v -0.02200000 -0.11000000 -0.08600000
v -0.02200000 -0.10600000 -0.09000000
v -0.02200000 -0.10600000 -0.08600000
v -0.01800000 -0.16200000 -0.09000000
v -0.01800000 -0.16200000 -0.08600000
v -0.01800000 -0.15800000 -0.09000000
v -0.01800000 -0.15800000 -0.08600000
v -0.01800000 -0.15400000 -0.09000000
v -0.01800000 -0.15400000 -0.08600000
v -0.01800000 -0.15000000 -0.09000000
v -0.01800000 -0.15000000 -0.08600000
v -0.01800000 -0.14600000 -0.09000000
v -0.01800000 -0.14600000 -0.08600000
v -0.01800000 -0.14200000 -0.09000000
v -0.01800000 -0.14200000 -0.08600000
v -0.01800000 -0.13800000 -0.09000000
v -0.01800000 -0.13800000 -0.08600000
v -0.01800000 -0.13400000 -0.09000000
v -0.01800000 -0.13400000 -0.08600000
v -0.01800000 -0.13000000 -0.09000000
v -0.01800000 -0.13000000 -0.08600000
v -0.01800000 -0.12600000 -0.09000000
v -0.01800000 -0.12600000 -0.08600000
v -0.01800000 -0.12200000 -0.09000000
v -0.01800000 -0.12200000 -0.08600000
v -0.01800000 -0.11800000 -0.09000000
v -0.01800000 -0.11800000 -0.08600000
v -0.01800000 -0.11400000 -0.09000000
v -0.01800000 -0.11400000 -0.08600000
v -0.01800000 -0.11000000 -0.09000000
v -0.01800000 -0.11000000 -0.08600000
v -0.01800000 -0.10600000 -0.09000000
v -0.01800000 -0.10600000 -0.08600000
v -0.01400000 -0.16200000 -0.09000000
v -0.01400000 -0.16200000 -0.08600000
v -0.01400000 -0.15800000 -0.09000000
v -0.01400000 -0.15800000 -0.08600000
v -0.01400000 -0.15400000 -0.09000000
v -0.01400000 -0.15400000 -0.08600000
v -0.01400000 -0.15000000 -0.09000000
v -0.01400000 -0.15000000 -0.08600000
v -0.01400000 -0.14600000 -0.09000000
v -0.01400000 -0.14600000 -0.08600000
v -0.01400000 -0.14200000 -0.09000000
v -0.01400000 -0.14200000 -0.08600000
v -0.01400000 -0.13800000 -0.09000000
v -0.01400000 -0.13800000 -0.08600000
v -0.01400000 -0.13400000 -0.09000000
v -0.01400000 -0.13400000 -0.08600000
v -0.01400000 -0.13000000 -0.09000000
v -0.01400000 -0.13000000 -0.08600000
v -0.01400000 -0.12600000 -0.09000000
v -0.01400000 -0.12600000 -0.08600000
v -0.01400000 -0.12200000 -0.09000000
v -0.01400000 -0.12200000 -0.08600000
v -0.01400000 -0.11800000 -0.09000000
v -0.01400000 -0.11800000 -0.08600000
v -0.01400000 -0.11400000 -0.09000000
v -0.01400000 -0.11400000 -0.08600000
v -0.01400000 -0.11000000 -0.09000000
v -0.01400000 -0.11000000 -0.08600000
v -0.01400000 -0.10600000 -0.09000000
v -0.01400000 -0.10600000 -0.08600000
v -0.01000000 -0.16200000 -0.09000000
v -0.01000000 -0.16200000 -0.08600000
v -0.01000000 -0.15800000 -0.09000000
v -0.01000000 -0.15800000 -0.08600000
v -0.01000000 -0.15400000 -0.09000000
v -0.01000000 -0.15400000 -0.08600000
v -0.01000000 -0.15000000 -0.09000000
v -0.01000000 -0.15000000 -0.08600000
v -0.01000000 -0.14600000 -0.09000000
v -0.01000000 -0.14600000 -0.08600000
v -0.01000000 -0.14200000 -0.09000000
v -0.01000000 -0.14200000 -0.08600000
v -0.01000000 -0.13800000 -0.09000000
v -0.01000000 -0.13800000 -0.08600000
v -0.01000000 -0.13400000 -0.09000000
v -0.01000000 -0.13400000 -0.08600000
v -0.01000000 -0.13000000 -0.09000000
v -0.01000000 -0.13000000 -0.08600000
v -0.01000000 -0.12600000 -0.09000000
v -0.01000000 -0.12600000 -0.08600000
v -0.01000000 -0.12200000 -0.09000000
v -0.01000000 -0.12200000 -0.08600000
v -0.01000000 -0.11800000 -0.09000000
v -0.01000000 -0.11800000 -0.08600000
v -0.01000000 -0.11400000 -0.09000000
v -0.01000000 -0.11400000 -0.08600000
v -0.01000000 -0.11000000 -0.09000000
v -0.01000000 -0.11000000 -0.08600000
v -0.01000000 -0.10600000 -0.09000000
v -0.01000000 -0.10600000 -0.08600000
v -0.00600000 -0.16200000 -0.09000000
v -0.00600000 -0.16200000 -0.08600000
v -0.00600000 -0.15800000 -0.09000000
v -0.00600000 -0.15800000 -0.08600000
v -0.00600000 -0.15400000 -0.09000000
v -0.00600000 -0.15400000 -0.08600000
v -0.00600000 -0.15000000 -0.09000000
v -0.00600000 -0.15000000 -0.08600000
v -0.00600000 -0.14600000 -0.09000000
v -0.00600000 -0.14600000 -0.08600000
v -0.00600000 -0.14200000 -0.09000000
v -0.00600000 -0.14200000 -0.08600000
v -0.00600000 -0.13800000 -0.09000000
v -0.00600000 -0.13800000 -0.08600000
v -0.00600000 -0.13400000 -0.09000000
v -0.00600000 -0.13400000 -0.08600000
v -0.00600000 -0.13000000 -0.09000000
v -0.00600000 -0.13000000 -0.08600000
v -0.00600000 -0.12600000 -0.09000000
v -0.00600000 -0.12600000 -0.08600000
v -0.00600000 -0.12200000 -0.09000000
v -0.00600000 -0.12200000 -0.08600000
v -0.00600000 -0.11800000 -0.09000000
v -0.00600000 -0.11800000 -0.08600000
v -0.00600000 -0.11400000 -0.09000000
v -0.00600000 -0.11400000 -0.08600000
v -0.00600000 -0.11000000 -0.09000000
v -0.00600000 -0.11000000 -0.08600000
v -0.00600000 -0.10600000 -0.09000000
v -0.00600000 -0.10600000 -0.08600000
v -0.00200000 -0.16200000 -0.09000000
v -0.00200000 -0.16200000 -0.08600000
v -0.00200000 -0.15800000 -0.09000000
v -0.00200000 -0.15800000 -0.08600000
v -0.00200000 -0.15400000 -0.09000000
v -0.00200000 -0.15400000 -0.08600000
v -0.00200000 -0.15000000 -0.09000000
v -0.00200000 -0.15000000 -0.08600000
v -0.00200000 -0.14600000 -0.09000000
v -0.00200000 -0.14600000 -0.08600000
v -0.00200000 -0.14200000 -0.09000000
v -0.00200000 -0.14200000 -0.08600000
v -0.00200000 -0.13800000 -0.09000000
v -0.00200000 -0.13800000 -0.08600000
v -0.00200000 -0.13400000 -0.09000000
v -0.00200000 -0.13400000 -0.08600000
v -0.00200000 -0.13000000 -0.09000000
v -0.00200000 -0.13000000 -0.08600000
v -0.00200000 -0.12600000 -0.09000000
v -0.00200000 -0.12600000 -0.08600000
v -0.00200000 -0.12200000 -0.09000000
v -0.00200000 -0.12200000 -0.08600000
v -0.00200000 -0.11800000 -0.09000000
v -0.00200000 -0.11800000 -0.08600000
v -0.00200000 -0.11400000 -0.09000000
v -0.00200000 -0.11400000 -0.08600000
v -0.00200000 -0.11000000 -0.09000000
v -0.00200000 -0.11000000 -0.08600000
v -0.00200000 -0.10600000 -0.09000000
v -0.00200000 -0.10600000 -0.08600000
v 0.00200000 -0.16200000 -0.09000000
v 0.00200000 -0.16200000 -0.08600000
v 0.00200000 -0.15800000 -0.09000000
v 0.00200000 -0.15800000 -0.08600000
v 0.00200000 -0.15400000 -0.09000000
v 0.00200000 -0.15400000 -0.08600000
v 0.00200000 -0.15000000 -0.09000000
v 0.00200000 -0.15000000 -0.08600000
v 0.00200000 -0.14600000 -0.09000000
v 0.00200000 -0.14600000 -0.08600000
v 0.00200000 -0.14200000 -0.09000000
v 0.00200000 -0.14200000 -0.08600000
v 0.00200000 -0.13800000 -0.09000000
v 0.00200000 -0.13800000 -0.08600000
v 0.00200000 -0.13400000 -0.09000000
v 0.00200000 -0.13400000 -0.08600000
v 0.00200000 -0.13000000 -0.09000000
v 0.00200000 -0.13000000 -0.08600000
v 0.00200000 -0.12600000 -0.09000000
v 0.00200000 -0.12600000 -0.08600000
v 0.00200000 -0.12200000 -0.09000000
v 0.00200000 -0.12200000 -0.08600000
v 0.00200000 -0.11800000 -0.09000000
v 0.00200000 -0.11800000 -0.08600000
v 0.00200000 -0.11400000 -0.09000000
v 0.00200000 -0.11400000 -0.08600000
v 0.00200000 -0.11000000 -0.09000000
v 0.00200000 -0.11000000 -0.08600000
v 0.00200000 -0.10600000 -0.09000000
v 0.00200000 -0.10600000 -0.08600000
v 0.00600000 -0.16200000 -0.09000000
v 0.00600000 -0.16200000 -0.08600000
v 0.00600000 -0.15800000 -0.09000000
v 0.00600000 -0.15800000 -0.08600000
v 0.00600000 -0.15400000 -0.09000000
v 0.00600000 -0.15400000 -0.08600000
v 0.00600000 -0.15000000 -0.09000000
v 0.00600000 -0.15000000 -0.08600000
v 0.00600000 -0.14600000 -0.09000000
v 0.00600000 -0.14600000 -0.08600000
v 0.00600000 -0.14200000 -0.09000000
v 0.00600000 -0.14200000 -0.08600000
v 0.00600000 -0.13800000 -0.09000000
v 0.00600000 -0.13800000 -0.08600000
v 0.00600000 -0.13400000 -0.09000000
v 0.00600000 -0.13400000 -0.08600000
v 0.00600000 -0.13000000 -0.09000000
v 0.00600000 -0.13000000 -0.08600000
v 0.00600000 -0.12600000 -0.09000000
v 0.00600000 -0.12600000 -0.08600000
v 0.00600000 -0.12200000 -0.09000000
v 0.00600000 -0.12200000 -0.08600000
v 0.00600000 -0.11800000 -0.09000000
v 0.00600000 -0.11800000 -0.08600000
v 0.00600000 -0.11400000 -0.09000000
v 0.00600000 -0.11400000 -0.08600000
v 0.00600000 -0.11000000 -0.09000000
v 0.00600000 -0.11000000 -0.08600000
v 0.00600000 -0.10600000 -0.09000000
v 0.00600000 -0.10600000 -0.08600000
v 0.01000000 -0.16200000 -0.09000000
v 0.01000000 -0.16200000 -0.08600000
v 0.01000000 -0.15800000 -0.09000000
v 0.01000000 -0.15800000 -0.08600000
v 0.01000000 -0.15400000 -0.09000000
v 0.01000000 -0.15400000 -0.08600000
v 0.01000000 -0.15000000 -0.09000000
v 0.01000000 -0.15000000 -0.08600000
v 0.01000000 -0.14600000 -0.09000000
v 0.01000000 -0.14600000 -0.08600000
v 0.01000000 -0.14200000 -0.09000000
v 0.01000000 -0.14200000 -0.08600000
v 0.01000000 -0.13800000 -0.09000000
v 0.01000000 -0.13800000 -0.08600000
v 0.01000000 -0.13400000 -0.09000000
v 0.01000000 -0.13400000 -0.08600000
v 0.01000000 -0.13000000 -0.09000000
v 0.01000000 -0.13000000 -0.08600000
v 0.01000000 -0.12600000 -0.09000000
v 0.01000000 -0.12600000 -0.08600000
v 0.01000000 -0.12200000 -0.09000000
v 0.01000000 -0.12200000 -0.08600000
v 0.01000000 -0.11800000 -0.09000000
v 0.01000000 -0.11800000 -0.08600000
v 0.01000000 -0.11400000 -0.09000000
v 0.01000000 -0.11400000 -0.08600000
v 0.01000000 -0.11000000 -0.09000000
v 0.01000000 -0.11000000 -0.08600000
v 0.01000000 -0.10600000 -0.09000000
v 0.01000000 -0.10600000 -0.08600000
v 0.01400000 -0.16200000 -0.09000000
v 0.01400000 -0.16200000 -0.08600000
v 0.01400000 -0.15800000 -0.09000000
v 0.01400000 -0.15800000 -0.08600000
v 0.01400000 -0.15400000 -0.09000000
v 0.01400000 -0.15400000 -0.08600000
v 0.01400000 -0.15000000 -0.09000000
v 0.01400000 -0.15000000 -0.08600000
v 0.01400000 -0.14600000 -0.09000000
v 0.01400000 -0.14600000 -0.08600000
v 0.01400000 -0.14200000 -0.09000000
v 0.01400000 -0.14200000 -0.08600000
v 0.01400000 -0.13800000 -0.09000000
v 0.01400000 -0.13800000 -0.08600000
v 0.01400000 -0.13400000 -0.09000000
v 0.01400000 -0.13400000 -0.08600000
v 0.01400000 -0.13000000 -0.09000000
v 0.01400000 -0.13000000 -0.08600000
v 0.01400000 -0.12600000 -0.09000000
v 0.01400000 -0.12600000 -0.08600000
v 0.01400000 -0.12200000 -0.09000000
v 0.01400000 -0.12200000 -0.08600000
v 0.01400000 -0.11800000 -0.09000000
v 0.01400000 -0.11800000 -0.08600000
v 0.01400000 -0.11400000 -0.09000000
v 0.01400000 -0.11400000 -0.08600000
v 0.01400000 -0.11000000 -0.09000000
v 0.01400000 -0.11000000 -0.08600000
v 0.01400000 -0.10600000 -0.09000000
v 0.01400000 -0.10600000 -0.08600000
v 0.01800000 -0.16200000 -0.09000000
v 0.01800000 -0.16200000 -0.08600000
v 0.01800000 -0.15800000 -0.09000000
v 0.01800000 -0.15800000 -0.08600000
v 0.01800000 -0.15400000 -0.09000000
v 0.01800000 -0.15400000 -0.08600000
v 0.01800000 -0.15000000 -0.09000000
v 0.01800000 -0.15000000 -0.08600000
v 0.01800000 -0.14600000 -0.09000000
v 0.01800000 -0.14600000 -0.08600000
v 0.01800000 -0.14200000 -0.09000000
v 0.01800000 -0.14200000 -0.08600000
v 0.01800000 -0.13800000 -0.09000000
v 0.01800000 -0.13800000 -0.08600000
v 0.01800000 -0.13400000 -0.09000000
v 0.01800000 -0.13400000 -0.08600000
v 0.01800000 -0.13000000 -0.09000000
v 0.01800000 -0.13000000 -0.08600000
v 0.01800000 -0.12600000 -0.09000000
v 0.01800000 -0.12600000 -0.08600000
v 0.01800000 -0.12200000 -0.09000000
v 0.01800000 -0.12200000 -0.08600000
v 0.01800000 -0.11800000 -0.09000000
v 0.01800000 -0.11800000 -0.08600000
v 0.01800000 -0.11400000 -0.09000000
v 0.01800000 -0.11400000 -0.08600000
v 0.01800000 -0.11000000 -0.09000000
v 0.01800000 -0.11000000 -0.08600000
v 0.01800000 -0.10600000 -0.09000000
v 0.01800000 -0.10600000 -0.08600000
v 0.02200000 -0.16200000 -0.09000000
v 0.02200000 -0.16200000 -0.08600000
v 0.02200000 -0.15800000 -0.09000000
v 0.02200000 -0.15800000 -0.08600000
v 0.02200000 -0.15400000 -0.09000000
v 0.02200000 -0.15400000 -0.08600000
v 0.02200000 -0.15000000 -0.09000000
v 0.02200000 -0.15000000 -0.08600000
v 0.02200000 -0.14600000 -0.09000000
v 0.02200000 -0.14600000 -0.08600000
v 0.02200000 -0.14200000 -0.09000000
v 0.02200000 -0.14200000 -0.08600000
v 0.02200000 -0.13800000 -0.09000000
v 0.02200000 -0.13800000 -0.08600000
v 0.02200000 -0.13400000 -0.09000000
v 0.02200000 -0.13400000 -0.08600000
v 0.02200000 -0.13000000 -0.09000000
v 0.02200000 -0.13000000 -0.08600000
v 0.02200000 -0.12600000 -0.09000000
v 0.02200000 -0.12600000 -0.08600000
v 0.02200000 -0.12200000 -0.09000000
v 0.02200000 -0.12200000 -0.08600000
v 0.02200000 -0.11800000 -0.09000000
v 0.02200000 -0.11800000 -0.08600000
v 0.02200000 -0.11400000 -0.09000000
v 0.02200000 -0.11400000 -0.08600000
v 0.02200000 -0.11000000 -0.09000000
v 0.02200000 -0.11000000 -0.08600000
v 0.02200000 -0.10600000 -0.09000000
v 0.02200000 -0.10600000 -0.08600000
v 0.02600000 -0.16200000 -0.09000000
v 0.02600000 -0.16200000 -0.08600000
v 0.02600000 -0.15800000 -0.09000000
v 0.02600000 -0.15800000 -0.08600000
v 0.02600000 -0.15400000 -0.09000000
v 0.02600000 -0.15400000 -0.08600000
v 0.02600000 -0.15000000 -0.09000000
v 0.02600000 -0.15000000 -0.08600000
v 0.02600000 -0.14600000 -0.09000000
v 0.02600000 -0.14600000 -0.08600000
v 0.02600000 -0.14200000 -0.09000000
v 0.02600000 -0.14200000 -0.08600000
v 0.02600000 -0.13800000 -0.09000000
v 0.02600000 -0.13800000 -0.08600000
v 0.02600000 -0.13400000 -0.09000000
v 0.02600000 -0.13400000 -0.08600000
v 0.02600000 -0.13000000 -0.09000000
v 0.02600000 -0.13000000 -0.08600000
v 0.02600000 -0.12600000 -0.09000000
v 0.02600000 -0.12600000 -0.08600000
v 0.02600000 -0.12200000 -0.09000000
v 0.02600000 -0.12200000 -0.08600000
v 0.02600000 -0.11800000 -0.09000000
v 0.02600000 -0.11800000 -0.08600000
v 0.02600000 -0.11400000 -0.09000000
v 0.02600000 -0.11400000 -0.08600000
v 0.02600000 -0.11000000 -0.09000000
v 0.02600000 -0.11000000 -0.08600000
v 0.02600000 -0.10600000 -0.09000000
v 0.02600000 -0.10600000 -0.08600000
v 0.03000000 -0.16200000 -0.09000000
v 0.03000000 -0.16200000 -0.08600000
v 0.03000000 -0.15800000 -0.09000000
v 0.03000000 -0.15800000 -0.08600000
v 0.03000000 -0.15400000 -0.09000000
v 0.03000000 -0.15400000 -0.08600000
v 0.03000000 -0.15000000 -0.09000000
v 0.03000000 -0.15000000 -0.08600000
v 0.03000000 -0.14600000 -0.09000000
v 0.03000000 -0.14600000 -0.08600000
v 0.03000000 -0.14200000 -0.09000000
v 0.03000000 -0.14200000 -0.08600000
v 0.03000000 -0.13800000 -0.09000000
v 0.03000000 -0.13800000 -0.08600000
v 0.03000000 -0.13400000 -0.09000000
v 0.03000000 -0.13400000 -0.08600000
v 0.03000000 -0.13000000 -0.09000000
v 0.03000000 -0.13000000 -0.08600000
v 0.03000000 -0.12600000 -0.09000000
v 0.03000000 -0.12600000 -0.08600000
v 0.03000000 -0.12200000 -0.09000000
v 0.03000000 -0.12200000 -0.08600000
v 0.03000000 -0.11800000 -0.09000000
v 0.03000000 -0.11800000 -0.08600000
v 0.03000000 -0.11400000 -0.09000000
v 0.03000000 -0.11400000 -0.08600000
v 0.03000000 -0.11000000 -0.09000000
v 0.03000000 -0.11000000 -0.08600000
v 0.03000000 -0.10600000 -0.09000000
v 0.03000000 -0.10600000 -0.08600000
v 0.03400000 -0.16200000 -0.09000000
v 0.03400000 -0.16200000 -0.08600000
v 0.03400000 -0.15800000 -0.09000000
v 0.03400000 -0.15800000 -0.08600000
v 0.03400000 -0.15400000 -0.09000000
v 0.03400000 -0.15400000 -0.08600000
v 0.03400000 -0.15000000 -0.09000000
v 0.03400000 -0.15000000 -0.08600000
v 0.03400000 -0.14600000 -0.09000000
v 0.03400000 -0.14600000 -0.08600000
v 0.03400000 -0.14200000 -0.09000000
v 0.03400000 -0.14200000 -0.08600000
v 0.03400000 -0.13800000 -0.09000000
v 0.03400000 -0.13800000 -0.08600000
v 0.03400000 -0.13400000 -0.09000000
v 0.03400000 -0.13400000 -0.08600000
v 0.03400000 -0.13000000 -0.09000000
v 0.03400000 -0.13000000 -0.08600000
v 0.03400000 -0.12600000 -0.09000000
v 0.03400000 -0.12600000 -0.08600000
v 0.03400000 -0.12200000 -0.09000000
v 0.03400000 -0.12200000 -0.08600000
v 0.03400000 -0.11800000 -0.09000000
v 0.03400000 -0.11800000 -0.08600000
v 0.03400000 -0.11400000 -0.09000000
v 0.03400000 -0.11400000 -0.08600000
v 0.03400000 -0.11000000 -0.09000000
v 0.03400000 -0.11000000 -0.08600000
v 0.03400000 -0.10600000 -0.09000000
v 0.03400000 -0.10600000 -0.08600000
v 0.03800000 -0.16200000 -0.09000000
v 0.03800000 -0.16200000 -0.08600000
v 0.03800000 -0.15800000 -0.09000000
v 0.03800000 -0.15800000 -0.08600000
v 0.03800000 -0.15400000 -0.09000000
v 0.03800000 -0.15400000 -0.08600000
v 0.03800000 -0.15000000 -0.09000000
v 0.03800000 -0.15000000 -0.08600000
v 0.03800000 -0.14600000 -0.09000000
v 0.03800000 -0.14600000 -0.08600000
v 0.03800000 -0.14200000 -0.09000000
v 0.03800000 -0.14200000 -0.08600000
v 0.03800000 -0.13800000 -0.09000000
v 0.03800000 -0.13800000 -0.08600000
v 0.03800000 -0.13400000 -0.09000000
v 0.03800000 -0.13400000 -0.08600000
v 0.03800000 -0.13000000 -0.09000000
v 0.03800000 -0.13000000 -0.08600000
v 0.03800000 -0.12600000 -0.09000000
v 0.03800000 -0.12600000 -0.08600000
v 0.03800000 -0.12200000 -0.09000000
v 0.03800000 -0.12200000 -0.08600000
v 0.03800000 -0.11800000 -0.09000000
v 0.03800000 -0.11800000 -0.08600000
v 0.03800000 -0.11400000 -0.09000000
v 0.03800000 -0.11400000 -0.08600000
v 0.03800000 -0.11000000 -0.09000000
v 0.03800000 -0.11000000 -0.08600000
v 0.03800000 -0.10600000 -0.09000000
v 0.03800000 -0.10600000 -0.08600000
v 0.04200000 -0.16200000 -0.09000000
v 0.04200000 -0.16200000 -0.08600000
v 0.04200000 -0.15800000 -0.09000000
v 0.04200000 -0.15800000 -0.08600000
v 0.04200000 -0.15400000 -0.09000000
v 0.04200000 -0.15400000 -0.08600000
v 0.04200000 -0.15000000 -0.09000000
v 0.04200000 -0.15000000 -0.08600000
v 0.04200000 -0.14600000 -0.09000000
v 0.04200000 -0.14600000 -0.08600000
v 0.04200000 -0.14200000 -0.09000000
v 0.04200000 -0.14200000 -0.08600000
v 0.04200000 -0.13800000 -0.09000000
v 0.04200000 -0.13800000 -0.08600000
v 0.04200000 -0.13400000 -0.09000000
v 0.04200000 -0.13400000 -0.08600000
v 0.04200000 -0.13000000 -0.09000000
v 0.04200000 -0.13000000 -0.08600000
v 0.04200000 -0.12600000 -0.09000000
v 0.04200000 -0.12600000 -0.08600000
v 0.04200000 -0.12200000 -0.09000000
v 0.04200000 -0.12200000 -0.08600000
v 0.04200000 -0.11800000 -0.09000000
v 0.04200000 -0.11800000 -0.08600000
v 0.04200000 -0.11400000 -0.09000000
v 0.04200000 -0.11400000 -0.08600000
v 0.04200000 -0.11000000 -0.09000000
v 0.04200000 -0.11000000 -0.08600000
v 0.04200000 -0.10600000 -0.09000000
v 0.04200000 -0.10600000 -0.08600000
v 0.04600000 -0.16200000 -0.09000000
v 0.04600000 -0.16200000 -0.08600000
v 0.04600000 -0.15800000 -0.09000000
v 0.04600000 -0.15800000 -0.08600000
v 0.04600000 -0.15400000 -0.09000000
v 0.04600000 -0.15400000 -0.08600000
v 0.04600000 -0.15000000 -0.09000000
v 0.04600000 -0.15000000 -0.08600000
v 0.04600000 -0.14600000 -0.09000000
v 0.04600000 -0.14600000 -0.08600000
v 0.04600000 -0.14200000 -0.09000000
v 0.04600000 -0.14200000 -0.08600000
v 0.04600000 -0.13800000 -0.09000000
v 0.04600000 -0.13800000 -0.08600000
v 0.04600000 -0.13400000 -0.09000000
v 0.04600000 -0.13400000 -0.08600000
v 0.04600000 -0.13000000 -0.09000000
v 0.04600000 -0.13000000 -0.08600000
v 0.04600000 -0.12600000 -0.09000000
v 0.04600000 -0.12600000 -0.08600000
v 0.04600000 -0.12200000 -0.09000000
v 0.04600000 -0.12200000 -0.08600000
v 0.04600000 -0.11800000 -0.09000000
v 0.04600000 -0.11800000 -0.08600000
v 0.04600000 -0.11400000 -0.09000000
v 0.04600000 -0.11400000 -0.08600000
v 0.04600000 -0.11000000 -0.09000000
v 0.04600000 -0.11000000 -0.08600000
v 0.04600000 -0.10600000 -0.09000000
v 0.04600000 -0.10600000 -0.08600000
v 0.05000000 -0.16200000 -0.09000000
v 0.05000000 -0.16200000 -0.08600000
v 0.05000000 -0.15800000 -0.09000000
v 0.05000000 -0.15800000 -0.08600000
v 0.05000000 -0.15400000 -0.09000000
v 0.05000000 -0.15400000 -0.08600000
v 0.05000000 -0.15000000 -0.09000000
v 0.05000000 -0.15000000 -0.08600000
v 0.05000000 -0.14600000 -0.09000000
v 0.05000000 -0.14600000 -0.08600000
v 0.05000000 -0.14200000 -0.09000000
v 0.05000000 -0.14200000 -0.08600000
v 0.05000000 -0.13800000 -0.09000000
v 0.05000000 -0.13800000 -0.08600000
v 0.05000000 -0.13400000 -0.09000000
v 0.05000000 -0.13400000 -0.08600000
v 0.05000000 -0.13000000 -0.09000000
v 0.05000000 -0.13000000 -0.08600000
v 0.05000000 -0.12600000 -0.09000000
v 0.05000000 -0.12600000 -0.08600000
v 0.05000000 -0.12200000 -0.09000000
v 0.05000000 -0.12200000 -0.08600000
v 0.05000000 -0.11800000 -0.09000000
v 0.05000000 -0.11800000 -0.08600000
v 0.05000000 -0.11400000 -0.09000000
v 0.05000000 -0.11400000 -0.08600000
v 0.05000000 -0.11000000 -0.09000000
v 0.05000000 -0.11000000 -0.08600000
v 0.05000000 -0.10600000 -0.09000000
v 0.05000000 -0.10600000 -0.08600000
f 2 4 1
f 5 2 1
f 1 4 3
f 3 5 1
f 2 8 4
f 6 2 5
f 6 8 2
f 7 5 3
f 4 10 3
f 3 10 9
f 9 7 3
f 4 12 10
f 8 12 4
f 11 7 9
f 10 14 9
f 9 14 13
f 13 11 9
f 10 16 14
f 12 16 10
f 15 11 13
f 14 18 13
f 13 18 17
f 17 15 13
f 14 20 18
f 16 20 14
f 19 15 17
f 18 22 17
f 17 22 21
f 21 19 17
f 18 24 22
f 20 24 18
f 23 19 21
f 22 26 21
f 21 26 25
f 25 23 21
f 22 28 26
f 24 28 22
f 27 23 25
f 26 30 25
f 25 30 29
f 29 27 25
f 26 32 30
f 28 32 26
f 31 27 29
f 30 34 29
f 29 34 33
f 33 31 29
f 30 36 34
f 32 36 30
f 35 31 33
f 34 38 33
f 33 38 37
f 37 35 33
f 34 40 38
f 36 40 34
f 39 35 37
f 38 42 37
f 37 42 41
f 41 39 37
f 38 44 42
f 40 44 38
f 43 39 41
f 42 46 41
f 41 46 45
f 45 43 41
f 42 48 46
f 44 48 42
f 47 43 45
f 46 50 45
f 45 50 49
f 49 47 45
f 46 52 50
f 48 52 46
f 51 47 49
f 50 54 49
f 49 54 53
f 53 51 49
f 50 56 54
f 52 56 50
f 55 51 53
f 54 58 53
f 53 58 57
f 57 55 53
f 54 60 58
f 56 60 54
f 58 60 57
f 59 55 57
f 57 60 59
f 61 6 5
f 7 61 5
f 6 64 8
f 62 6 61
f 62 64 6
f 63 61 7
f 11 63 7
f 8 66 12
f 64 66 8
f 65 63 11
f 15 65 11
f 12 68 16
f 66 68 12
f 67 65 15
f 19 67 15
f 16 70 20
f 68 70 16
f 69 67 19
f 23 69 19
f 20 72 24
f 70 72 20
f 71 69 23
f 27 71 23
f 24 74 28
f 72 74 24
f 73 71 27
f 31 73 27
f 28 76 32
f 74 76 28
f 75 73 31
f 35 75 31
f 32 78 36
f 76 78 32
f 77 75 35
f 39 77 35
f 36 80 40
f 78 80 36
f 79 77 39
f 43 79 39
f 40 82 44
f 80 82 40
f 81 79 43
f 47 81 43
f 44 84 48
f 82 84 44
f 83 81 47
f 51 83 47
f 48 86 52
f 84 86 48
f 85 83 51
f 55 85 51
f 52 88 56
f 86 88 52
f 87 85 55
f 59 87 55
f 56 90 60
f 88 90 56
f 60 90 59
f 89 87 59
f 59 90 89
f 91 62 61
f 63 91 61
f 62 94 64
f 92 62 91
f 92 94 62
f 93 91 63
f 65 93 63
f 64 96 66
f 94 96 64
f 95 93 65
f 67 95 65
f 66 98 68
f 96 98 66
f 97 95 67
f 69 97 67
f 68 100 70
f 98 100 68
f 99 97 69
f 71 99 69
f 70 102 72
f 100 102 70
f 101 99 71
f 73 101 71
f 72 104 74
f 102 104 72
f 103 101 73
f 75 103 73
f 74 106 76
f 104 106 74
f 105 103 75
f 77 105 75
f 76 108 78
f 106 108 76
f 107 105 77
f 79 107 77
f 78 110 80
f 108 110 78
f 109 107 79
f 81 109 79
f 80 112 82
f 110 112 80
f 111 109 81
f 83 111 81
f 82 114 84
f 112 114 82
f 113 111 83
f 85 113 83
f 84 116 86
f 114 116 84
f 115 113 85
f 87 115 85
f 86 118 88
f 116 118 86
f 117 115 87
f 89 117 87
f 88 120 90
f 118 120 88
f 90 120 89
f 119 117 89
f 89 120 119
f 121 92 91
f 93 121 91
f 92 124 94
f 122 92 121
f 122 124 92
f 123 121 93
f 95 123 93
f 94 126 96
f 124 126 94
f 125 123 95
f 97 125 95
f 96 128 98
f 126 128 96
f 127 125 97
f 99 127 97
f 98 130 100
f 128 130 98
f 129 127 99
f 101 129 99
f 100 132 102
f 130 132 100
f 131 129 101
f 103 131 101
f 102 134 104
f 132 134 102
f 133 131 103
f 105 133 103
f 104 136 106
f 134 136 104
f 135 133 105
f 107 135 105
f 106 138 108
f 136 138 106
f 137 135 107
f 109 137 107
f 108 140 110
f 138 140 108
f 139 137 109
f 111 139 109
f 110 142 112
f 140 142 110
f 141 139 111
f 113 141 111
f 112 144 114
f 142 144 112
f 143 141 113
f 115 143 113
f 114 146 116
f 144 146 114
f 145 143 115
f 117 145 115
f 116 148 118
f 146 148 116
f 147 145 117
f 119 147 117
f 118 150 120
f 148 150 118
f 120 150 119
f 149 147 119
f 119 150 149
f 151 122 121
f 123 151 121
f 122 154 124
f 152 122 151
f 152 154 122
f 153 151 123
f 125 153 123
f 124 156 126
f 154 156 124
f 155 153 125
f 127 155 125
f 126 158 128
f 156 158 126
f 157 155 127
f 129 157 127
f 128 160 130
f 158 160 128
f 159 157 129
f 131 159 129
f 130 162 132
f 160 162 130
f 161 159 131
f 133 161 131
f 132 164 134
f 162 164 132
f 163 161 133
f 135 163 133
f 134 166 136
f 164 166 134
f 165 163 135
f 137 165 135
f 136 168 138
f 166 168 136
f 167 165 137
f 139 167 137
f 138 170 140
f 168 170 138
f 169 167 139
f 141 169 139
f 140 172 142
f 170 172 140
f 171 169 141
f 143 171 141
f 142 174 144
f 172 174 142
f 173 171 143
f 145 173 143
f 144 176 146
f 174 176 144
f 175 173 145
f 147 175 145
f 146 178 148
f 176 178 146
f 177 175 147
f 149 177 147
f 148 180 150
f 178 180 148
f 150 180 149
f 179 177 149
f 149 180 179
f 181 152 151
f 153 181 151
f 152 184 154
f 182 152 181
f 182 184 152
f 183 181 153
f 155 183 153
f 154 186 156
f 184 186 154
f 185 183 155
f 157 185 155
f 156 188 158
f 186 188 156
f 187 185 157
f 159 187 157
f 158 190 160
f 188 190 158
f 189 187 159
f 161 189 159
f 160 192 162
f 190 192 160
f 191 189 161
f 163 191 161
f 162 194 164
f 192 194 162
f 193 191 163
f 165 193 163
f 164 196 166
f 194 196 164
f 195 193 165
f 167 195 165
f 166 198 168
f 196 198 166
f 197 195 167
f 169 197 167
f 168 200 170
f 198 200 168
f 199 197 169
f 171 199 169
f 170 202 172
f 200 202 170
f 201 199 171
f 173 201 171
f 172 204 174
f 202 204 172
f 203 201 173
f 175 203 173
f 174 206 176
f 204 206 174
f 205 203 175
f 177 205 175
f 176 208 178
f 206 208 176
f 207 205 177
f 179 207 177
f 178 210 180
f 208 210 178
f 180 210 179
f 209 207 179
f 179 210 209
f 211 182 181
f 183 211 181
f 182 214 184
f 212 182 211
f 212 214 182
f 213 211 183
f 185 213 183
f 184 216 186
f 214 216 184
f 215 213 185
f 187 215 185
f 186 218 188
f 216 218 186
f 217 215 187
f 189 217 187
f 188 220 190
f 218 220 188
f 219 217 189
f 191 219 189
f 190 222 192
f 220 222 190
f 221 219 191
f 193 221 191
f 192 224 194
f 222 224 192
f 223 221 193
f 195 223 193
f 194 226 196
f 224 226 194
f 225 223 195
f 197 225 195
f 196 228 198
f 226 228 196
f 227 225 197
f 199 227 197
f 198 230 200
f 228 230 198
f 229 227 199
f 201 229 199
f 200 232 202
f 230 232 200
f 231 229 201
f 203 231 201
f 202 234 204
f 232 234 202
f 233 231 203
f 205 233 203
f 204 236 206
f 234 236 204
f 235 233 205
f 207 235 205
f 206 238 208
f 236 238 206
f 237 235 207
f 209 237 207
f 208 240 210
f 238 240 208
f 210 240 209
f 239 237 209
f 209 240 239
f 241 212 211
f 213 241 211
f 212 244 214
f 242 212 241
f 242 244 212
f 243 241 213
f 215 243 213
f 214 246 216
f 244 246 214
f 245 243 215
f 217 245 215
f 216 248 218
f 246 248 216
f 247 245 217
f 219 247 217
f 218 250 220
f 248 250 218
f 249 247 219
f 221 249 219
f 220 252 222
f 250 252 220
f 251 249 221
f 223 251 221
f 222 254 224
f 252 254 222
f 253 251 223
f 225 253 223
f 224 256 226
f 254 256 224
f 255 253 225
f 227 255 225
f 226 258 228
f 256 258 226
f 257 255 227
f 229 257 227
f 228 260 230
f 258 260 228
f 259 257 229
f 231 259 229
f 230 262 232
f 260 262 230
f 261 259 231
f 233 261 231
f 232 264 234
f 262 264 232
f 263 261 233
f 235 263 233
f 234 266 236
f 264 266 234
f 265 263 235
f 237 265 235
f 236 268 238
f 266 268 236
f 267 265 237
f 239 267 237
f 238 270 240
f 268 270 238
f 240 270 239
f 269 267 239
f 239 270 269
f 271 242 241
f 243 271 241
f 242 274 244
f 272 242 271
f 272 274 242
f 273 271 243
f 245 273 243
f 244 276 246
f 274 276 244
f 275 273 245
f 247 275 245
f 246 278 248
f 276 278 246
f 277 275 247
f 249 277 247
f 248 280 250
f 278 280 248
f 279 277 249
f 251 279 249
f 250 282 252
f 280 282 250
f 281 279 251
f 253 281 251
f 252 284 254
f 282 284 252
f 283 281 253
f 255 283 253
f 254 286 256
f 284 286 254
f 285 283 255
f 257 285 255
f 256 288 258
f 286 288 256
f 287 285 257
f 259 287 257
f 258 290 260
f 288 290 258
f 289 287 259
f 261 289 259
f 260 292 262
f 290 292 260
f 291 289 261
f 263 291 261
f 262 294 264
f 292 294 262
f 293 291 263
f 265 293 263
f 264 296 266
f 294 296 264
f 295 293 265
f 267 295 265
f 266 298 268
f 296 298 266
f 297 295 267
f 269 297 267
f 268 300 270
f 298 300 268
f 270 300 269
f 299 297 269
f 269 300 299
f 301 272 271
f 273 301 271
f 272 304 274
f 302 272 301
f 302 304 272
f 303 301 273
f 275 303 273
f 274 306 276
f 304 306 274
f 305 303 275
f 277 305 275
f 276 308 278
f 306 308 276
f 307 305 277
f 279 307 277
f 278 310 280
f 308 310 278
f 309 307 279
f 281 309 279
f 280 312 282
f 310 312 280
f 311 309 281
f 283 311 281
f 282 314 284
f 312 314 282
f 313 311 283
f 285 313 283
f 284 316 286
f 314 316 284
f 315 313 285
f 287 315 285
f 286 318 288
f 316 318 286
f 317 315 287
f 289 317 287
f 288 320 290
f 318 320 288
f 319 317 289
f 291 319 289
f 290 322 292
f 320 322 290
f 321 319 291
f 293 321 291
f 292 324 294
f 322 324 292
f 323 321 293
f 295 323 293
f 294 326 296
f 324 326 294
f 325 323 295
f 297 325 295
f 296 328 298
f 326 328 296
f 327 325 297
f 299 327 297
f 298 330 300
f 328 330 298
f 300 330 299
f 329 327 299
f 299 330 329
f 331 302 301
f 303 331 301
f 302 334 304
f 332 302 331
f 332 334 302
f 333 331 303
f 305 333 303
f 304 336 306
f 334 336 304
f 335 333 305
f 307 335 305
f 306 338 308
f 336 338 306
f 337 335 307
f 309 337 307
f 308 340 310
f 338 340 308
f 339 337 309
f 311 339 309
f 310 342 312
f 340 342 310
f 341 339 311
f 313 341 311
f 312 344 314
f 342 344 312
f 343 341 313
f 315 343 313
f 314 346 316
f 344 346 314
f 345 343 315
f 317 345 315
f 316 348 318
f 346 348 316
f 347 345 317
f 319 347 317
f 318 350 320
f 348 350 318
f 349 347 319
f 321 349 319
f 320 352 322
f 350 352 320
f 351 349 321
f 323 351 321
f 322 354 324
f 352 354 322
f 353 351 323
f 325 353 323
f 324 356 326
f 354 356 324
f 355 353 325
f 327 355 325
f 326 358 328
f 356 358 326
f 357 355 327
f 329 357 327
f 328 360 330
f 358 360 328
f 330 360 329
f 359 357 329
f 329 360 359
f 361 332 331
f 333 361 331
f 332 364 334
f 362 332 361
f 362 364 332
f 363 361 333
f 335 363 333
f 334 366 336
f 364 366 334
f 365 363 335
f 337 365 335
f 336 368 338
f 366 368 336
f 367 365 337
f 339 367 337
f 338 370 340
f 368 370 338
f 369 367 339
f 341 369 339
f 340 372 342
f 370 372 340
f 371 369 341
f 343 371 341
f 342 374 344
f 372 374 342
f 373 371 343
f 345 373 343
f 344 376 346
f 374 376 344
f 375 373 345
f 347 375 345
f 346 378 348
f 376 378 346
f 377 375 347
f 349 377 347
f 348 380 350
f 378 380 348
f 379 377 349
f 351 379 349
f 350 382 352
f 380 382 350
f 381 379 351
f 353 381 351
f 352 384 354
f 382 384 352
f 383 381 353
f 355 383 353
f 354 386 356
f 384 386 354
f 385 383 355
f 357 385 355
f 356 388 358
f 386 388 356
f 387 385 357
f 359 387 357
f 358 390 360
f 388 390 358
f 360 390 359
f 389 387 359
f 359 390 389
f 391 362 361
f 363 391 361
f 362 394 364
f 392 362 391
f 392 394 362
f 393 391 363
f 365 393 363
f 364 396 366
f 394 396 364
f 395 393 365
f 367 395 365
f 366 398 368
f 396 398 366
f 397 395 367
f 369 397 367
f 368 400 370
f 398 400 368
f 399 397 369
f 371 399 369
f 370 402 372
f 400 402 370
f 401 399 371
f 373 401 371
f 372 404 374
f 402 404 372
f 403 401 373
f 375 403 373
f 374 406 376
f 404 406 374
f 405 403 375
f 377 405 375
f 376 408 378
f 406 408 376
f 407 405 377
f 379 407 377
f 378 410 380
f 408 410 378
f 409 407 379
f 381 409 379
f 380 412 382
f 410 412 380
f 411 409 381
f 383 411 381
f 382 414 384
f 412 414 382
f 413 411 383
f 385 413 383
f 384 416 386
f 414 416 384
f 415 413 385
f 387 415 385
f 386 418 388
f 416 418 386
f 417 415 387
f 389 417 387
f 388 420 390
f 418 420 388
f 390 420 389
f 419 417 389
f 389 420 419
f 421 392 391
f 393 421 391
f 392 424 394
f 422 392 421
f 422 424 392
f 423 421 393
f 395 423 393
f 394 426 396
f 424 426 394
f 425 423 395
f 397 425 395
f 396 428 398
f 426 428 396
f 427 425 397
f 399 427 397
f 398 430 400
f 428 430 398
f 429 427 399
f 401 429 399
f 400 432 402
f 430 432 400
f 431 429 401
f 403 431 401
f 402 434 404
f 432 434 402
f 433 431 403
f 405 433 403
f 404 436 406
f 434 436 404
f 435 433 405
f 407 435 405
f 406 438 408
f 436 438 406
f 437 435 407
f 409 437 407
f 408 440 410
f 438 440 408
f 439 437 409
f 411 439 409
f 410 442 412
f 440 442 410
f 441 439 411
f 413 441 411
f 412 444 414
f 442 444 412
f 443 441 413
f 415 443 413
f 414 446 416
f 444 446 414
f 445 443 415
f 417 445 415
f 416 448 418
f 446 448 416
f 447 445 417
f 419 447 417
f 418 450 420
f 448 450 418
f 420 450 419
f 449 447 419
f 419 450 449
f 451 422 421
f 423 451 421
f 422 454 424
f 452 422 451
f 452 454 422
f 453 451 423
f 425 453 423
f 424 456 426
f 454 456 424
f 455 453 425
f 427 455 425
f 426 458 428
f 456 458 426
f 457 455 427
f 429 457 427
f 428 460 430
f 458 460 428
f 459 457 429
f 431 459 429
f 430 462 432
f 460 462 430
f 461 459 431
f 433 461 431
f 432 464 434
f 462 464 432
f 463 461 433
f 435 463 433
f 434 466 436
f 464 466 434
f 465 463 435
f 437 465 435
f 436 468 438
f 466 468 436
f 467 465 437
f 439 467 437
f 438 470 440
f 468 470 438
f 469 467 439
f 441 469 439
f 440 472 442
f 470 472 440
f 471 469 441
f 443 471 441
f 442 474 444
f 472 474 442
f 473 471 443
f 445 473 443
f 444 476 446
f 474 476 444
f 475 473 445
f 447 475 445
f 446 478 448
f 476 478 446
f 477 475 447
f 449 477 447
f 448 480 450
f 478 480 448
f 450 480 449
f 479 477 449
f 449 480 479
f 481 452 451
f 453 481 451
f 452 484 454
f 482 452 481
f 482 484 452
f 483 481 453
f 455 483 453
f 454 486 456
f 484 486 454
f 485 483 455
f 457 485 455
f 456 488 458
f 486 488 456
f 487 485 457
f 459 487 457
f 458 490 460
f 488 490 458
f 489 487 459
f 461 489 459
f 460 492 462
f 490 492 460
f 491 489 461
f 463 491 461
f 462 494 464
f 492 494 462
f 493 491 463
f 465 493 463
f 464 496 466
f 494 496 464
f 495 493 465
f 467 495 465
f 466 498 468
f 496 498 466
f 497 495 467
f 469 497 467
f 468 500 470
f 498 500 468
f 499 497 469
f 471 499 469
f 470 502 472
f 500 502 470
f 501 499 471
f 473 501 471
f 472 504 474
f 502 504 472
f 503 501 473
f 475 503 473
f 474 506 476
f 504 506 474
f 505 503 475
f 477 505 475
f 476 508 478
f 506 508 476
f 507 505 477
f 479 507 477
f 478 510 480
f 508 510 478
f 480 510 479
f 509 507 479
f 479 510 509
f 511 482 481
f 483 511 481
f 482 514 484
f 512 482 511
f 512 514 482
f 513 511 483
f 485 513 483
f 484 516 486
f 514 516 484
f 515 513 485
f 487 515 485
f 486 518 488
f 516 518 486
f 517 515 487
f 489 517 487
f 488 520 490
f 518 520 488
f 519 517 489
f 491 519 489
f 490 522 492
f 520 522 490
f 521 519 491
f 493 521 491
f 492 524 494
f 522 524 492
f 523 521 493
f 495 523 493
f 494 526 496
f 524 526 494
f 525 523 495
f 497 525 495
f 496 528 498
f 526 528 496
f 527 525 497
f 499 527 497
f 498 530 500
f 528 530 498
f 529 527 499
f 501 529 499
f 500 532 502
f 530 532 500
f 531 529 501
f 503 531 501
f 502 534 504
f 532 534 502
f 533 531 503
f 505 533 503
f 504 536 506
f 534 536 504
f 535 533 505
f 507 535 505
f 506 538 508
f 536 538 506
f 537 535 507
f 509 537 507
f 508 540 510
f 538 540 508
f 510 540 509
f 539 537 509
f 509 540 539
f 541 512 511
f 513 541 511
f 512 544 514
f 542 512 541
f 542 544 512
f 543 541 513
f 515 543 513
f 514 546 516
f 544 546 514
f 545 543 515
f 517 545 515
f 516 548 518
f 546 548 516
f 547 545 517
f 519 547 517
f 518 550 520
f 548 550 518
f 549 547 519
f 521 549 519
f 520 552 522
f 550 552 520
f 551 549 521
f 523 551 521
f 522 554 524
f 552 554 522
f 553 551 523
f 525 553 523
f 524 556 526
f 554 556 524
f 555 553 525
f 527 555 525
f 526 558 528
f 556 558 526
f 557 555 527
f 529 557 527
f 528 560 530
f 558 560 528
f 559 557 529
f 531 559 529
f 530 562 532
f 560 562 530
f 561 559 531
f 533 561 531
f 532 564 534
f 562 564 532
f 563 561 533
f 535 563 533
f 534 566 536
f 564 566 534
f 565 563 535
f 537 565 535
f 536 568 538
f 566 568 536
f 567 565 537
f 539 567 537
f 538 570 540
f 568 570 538
f 540 570 539
f 569 567 539
f 539 570 569
f 571 542 541
f 543 571 541
f 542 574 544
f 572 542 571
f 572 574 542
f 573 571 543
f 545 573 543
f 544 576 546
f 574 576 544
f 575 573 545
f 547 575 545
f 546 578 548
f 576 578 546
f 577 575 547
f 549 577 547
f 548 580 550
f 578 580 548
f 579 577 549
f 551 579 549
f 550 582 552
f 580 582 550
f 581 579 551
f 553 581 551
f 552 584 554
f 582 584 552
f 583 581 553
f 555 583 553
f 554 586 556
f 584 586 554
f 585 583 555
f 557 585 555
f 556 588 558
f 586 588 556
f 587 585 557
f 559 587 557
f 558 590 560
f 588 590 558
f 589 587 559
f 561 589 559
f 560 592 562
f 590 592 560
f 591 589 561
f 563 591 561
f 562 594 564
f 592 594 562
f 593 591 563
f 565 593 563
f 564 596 566
f 594 596 564
f 595 593 565
f 567 595 565
f 566 598 568
f 596 598 566
f 597 595 567
f 569 597 567
f 568 600 570
f 598 600 568
f 570 600 569
f 599 597 569
f 569 600 599
f 601 572 571
f 573 601 571
f 572 604 574
f 602 572 601
f 602 604 572
f 603 601 573
f 575 603 573
f 574 606 576
f 604 606 574
f 605 603 575
f 577 605 575
f 576 608 578
f 606 608 576
f 607 605 577
f 579 607 577
f 578 610 580
f 608 610 578
f 609 607 579
f 581 609 579
f 580 612 582
f 610 612 580
f 611 609 581
f 583 611 581
f 582 614 584
f 612 614 582
f 613 611 583
f 585 613 583
f 584 616 586
f 614 616 584
f 615 613 585
f 587 615 585
f 586 618 588
f 616 618 586
f 617 615 587
f 589 617 587
f 588 620 590
f 618 620 588
f 619 617 589
f 591 619 589
f 590 622 592
f 620 622 590
f 621 619 591
f 593 621 591
f 592 624 594
f 622 624 592
f 623 621 593
f 595 623 593
f 594 626 596
f 624 626 594
f 625 623 595
f 597 625 595
f 596 628 598
f 626 628 596
f 627 625 597
f 599 627 597
f 598 630 600
f 628 630 598
f 600 630 599
f 629 627 599
f 599 630 629
f 631 602 601
f 603 631 601
f 602 634 604
f 632 602 631
f 632 634 602
f 633 631 603
f 633 632 631
f 634 632 633
f 605 633 603
f 604 636 606
f 634 636 604
f 635 633 605
f 635 634 633
f 636 634 635
f 607 635 605
f 606 638 608
f 636 638 606
f 637 635 607
f 637 636 635
f 638 636 637
f 609 637 607
f 608 640 610
f 638 640 608
f 639 637 609
f 639 638 637
f 640 638 639
f 611 639 609
f 610 642 612
f 640 642 610
f 641 639 611
f 641 640 639
f 642 640 641
f 613 641 611
f 612 644 614
f 642 644 612
f 643 641 613
f 643 642 641
f 644 642 643
f 615 643 613
f 614 646 616
f 644 646 614
f 645 643 615
f 645 644 643
f 646 644 645
f 617 645 615
f 616 648 618
f 646 648 616
f 647 645 617
f 647 646 645
f 648 646 647
f 619 647 617
f 618 650 620
f 648 650 618
f 649 647 619
f 649 648 647
f 650 648 649
f 621 649 619
f 620 652 622
f 650 652 620
f 651 649 621
f 651 650 649
f 652 650 651
f 623 651 621
f 622 654 624
f 652 654 622
f 653 651 623
f 653 652 651
f 654 652 653
f 625 653 623
f 624 656 626
f 654 656 624
f 655 653 625
f 655 654 653
f 656 654 655
f 627 655 625
f 626 658 628
f 656 658 626
f 657 655 627
f 657 656 655
f 658 656 657
f 629 657 627
f 628 660 630
f 658 660 628
f 630 660 629
f 659 657 629
f 629 660 659
f 659 658 657
f 660 658 659

