# https://github.com/mikedh/trimesh
v -0.02600000 0.11800000 -0.01800000
v -0.02600000 0.11800000 -0.01400000
v -0.02600000 0.12200000 -0.01800000
v -0.02600000 0.12200000 -0.01400000
v -0.02200000 0.11800000 -0.01800000
v -0.02200000 0.11800000 -0.01400000
v -0.02200000 0.12200000 -0.01800000
v -0.02200000 0.12200000 -0.01400000
v -0.02600000 0.11800000 -0.01000000
v -0.02600000 0.12200000 -0.01000000
v -0.02200000 0.11800000 -0.01000000
v -0.02200000 0.12200000 -0.01000000
v -0.02600000 0.11800000 -0.00600000
v -0.02600000 0.12200000 -0.00600000
v -0.02200000 0.11800000 -0.00600000
v -0.02200000 0.12200000 -0.00600000
v -0.02600000 0.12600000 -0.01000000
v -0.02600000 0.12600000 -0.00600000
v -0.02200000 0.12600000 -0.01000000
v -0.02200000 0.12600000 -0.00600000
v -0.02600000 0.12200000 -0.00200000
v -0.02600000 0.12600000 -0.00200000
v -0.02200000 0.12200000 -0.00200000
v -0.02200000 0.12600000 -0.00200000
v -0.02600000 0.12200000 0.00200000
v -0.02600000 0.12600000 0.00200000
v -0.02200000 0.12200000 0.00200000
v -0.02200000 0.12600000 0.00200000
v -0.02600000 0.12200000 0.00600000
v -0.02600000 0.12600000 0.00600000
v -0.02200000 0.12200000 0.00600000
v -0.02200000 0.12600000 0.00600000
v -0.02600000 0.12600000 0.01000000
v -0.02600000 0.13000000 0.00600000
v -0.02600000 0.13000000 0.01000000
v -0.02200000 0.12600000 0.01000000
v -0.02200000 0.13000000 0.00600000
v -0.02200000 0.13000000 0.01000000
v -0.02600000 0.12600000 0.01400000
v -0.02600000 0.13000000 0.01400000
v -0.02200000 0.12600000 0.01400000
v -0.02200000 0.13000000 0.01400000
v -0.02600000 0.12600000 0.01800000
v -0.02600000 0.13000000 0.01800000
v -0.02200000 0.12600000 0.01800000
v -0.02200000 0.13000000 0.01800000
v -0.02600000 0.12600000 0.02200000
v -0.02600000 0.13000000 0.02200000
v -0.02200000 0.12600000 0.02200000
v -0.02200000 0.13000000 0.02200000
v -0.02600000 0.13000000 0.02600000
v -0.02600000 0.13400000 0.02200000
v -0.02600000 0.13400000 0.02600000
v -0.02200000 0.13000000 0.02600000
v -0.02200000 0.13400000 0.02200000
v -0.02200000 0.13400000 0.02600000
v -0.02600000 0.13000000 0.03000000
v -0.02600000 0.13400000 0.03000000
v -0.02200000 0.13000000 0.03000000
v -0.02200000 0.13400000 0.03000000
v -0.02600000 0.13000000 0.03400000
v -0.02600000 0.13400000 0.03400000
v -0.02200000 0.13000000 0.03400000
v -0.02200000 0.13400000 0.03400000
v -0.02600000 0.13000000 0.03800000
v -0.02600000 0.13400000 0.03800000
v -0.02200000 0.13000000 0.03800000
v -0.02200000 0.13400000 0.03800000
v -0.02600000 0.13800000 0.03400000
v -0.02600000 0.13800000 0.03800000
v -0.02200000 0.13800000 0.03400000
v -0.02200000 0.13800000 0.03800000
v -0.02600000 0.13400000 0.04200000
v -0.02600000 0.13800000 0.04200000
v -0.02200000 0.13400000 0.04200000
v -0.02200000 0.13800000 0.04200000
v -0.01800000 0.11800000 -0.01800000
v -0.01800000 0.11800000 -0.01400000
v -0.01800000 0.12200000 -0.01800000
v -0.01800000 0.12200000 -0.01400000
v -0.01800000 0.11800000 -0.01000000
v -0.01800000 0.12200000 -0.01000000
v -0.01800000 0.11800000 -0.00600000
v -0.01800000 0.12200000 -0.00600000
v -0.01800000 0.12600000 -0.01000000
v -0.01800000 0.12600000 -0.00600000
v -0.01800000 0.12200000 -0.00200000
v -0.01800000 0.12600000 -0.00200000
v -0.01800000 0.12200000 0.00200000
v -0.01800000 0.12600000 0.00200000
v -0.01800000 0.12200000 0.00600000
v -0.01800000 0.12600000 0.00600000
v -0.01800000 0.12600000 0.01000000
v -0.01800000 0.13000000 0.00600000
v -0.01800000 0.13000000 0.01000000
v -0.01800000 0.12600000 0.01400000
v -0.01800000 0.13000000 0.01400000
v -0.01800000 0.12600000 0.01800000
v -0.01800000 0.13000000 0.01800000
v -0.01800000 0.12600000 0.02200000
v -0.01800000 0.13000000 0.02200000
v -0.01800000 0.13000000 0.02600000
v -0.01800000 0.13400000 0.02200000
v -0.01800000 0.13400000 0.02600000
v -0.01800000 0.13000000 0.03000000
v -0.01800000 0.13400000 0.03000000
v -0.01800000 0.13000000 0.03400000
v -0.01800000 0.13400000 0.03400000
v -0.01800000 0.13000000 0.03800000
v -0.01800000 0.13400000 0.03800000
v -0.01800000 0.13800000 0.03400000
v -0.01800000 0.13800000 0.03800000
v -0.01800000 0.13400000 0.04200000
v -0.01800000 0.13800000 0.04200000
v -0.01400000 0.11800000 -0.01800000
v -0.01400000 0.11800000 -0.01400000
v -0.01400000 0.12200000 -0.01800000
v -0.01400000 0.12200000 -0.01400000
v -0.01400000 0.11800000 -0.01000000
v -0.01400000 0.12200000 -0.01000000
v -0.01400000 0.11800000 -0.00600000
v -0.01400000 0.12200000 -0.00600000
v -0.01400000 0.12600000 -0.01000000
v -0.01400000 0.12600000 -0.00600000
v -0.01400000 0.12200000 -0.00200000
v -0.01400000 0.12600000 -0.00200000
v -0.01400000 0.12200000 0.00200000
v -0.01400000 0.12600000 0.00200000
v -0.01400000 0.12200000 0.00600000
v -0.01400000 0.12600000 0.00600000
v -0.01400000 0.12600000 0.01000000
v -0.01400000 0.13000000 0.00600000
v -0.01400000 0.13000000 0.01000000
v -0.01400000 0.12600000 0.01400000
v -0.01400000 0.13000000 0.01400000
v -0.01400000 0.12600000 0.01800000
v -0.01400000 0.13000000 0.01800000
v -0.01400000 0.12600000 0.02200000
v -0.01400000 0.13000000 0.02200000
v -0.01400000 0.13000000 0.02600000
v -0.01400000 0.13400000 0.02200000
v -0.01400000 0.13400000 0.02600000
v -0.01400000 0.13000000 0.03000000
v -0.01400000 0.13400000 0.03000000
v -0.01400000 0.13000000 0.03400000
v -0.01400000 0.13400000 0.03400000
v -0.01400000 0.13000000 0.03800000
v -0.01400000 0.13400000 0.03800000
v -0.01400000 0.13800000 0.03400000
v -0.01400000 0.13800000 0.03800000
v -0.01400000 0.13400000 0.04200000
v -0.01400000 0.13800000 0.04200000
v -0.01000000 0.11800000 -0.01800000
v -0.01000000 0.11800000 -0.01400000
v -0.01000000 0.12200000 -0.01800000
v -0.01000000 0.12200000 -0.01400000
v -0.01000000 0.11800000 -0.01000000
v -0.01000000 0.12200000 -0.01000000
v -0.01000000 0.11800000 -0.00600000
v -0.01000000 0.12200000 -0.00600000
v -0.01000000 0.12600000 -0.01000000
v -0.01000000 0.12600000 -0.00600000
v -0.01000000 0.12200000 -0.00200000
v -0.01000000 0.12600000 -0.00200000
v -0.01000000 0.12200000 0.00200000
v -0.01000000 0.12600000 0.00200000
v -0.01000000 0.12200000 0.00600000
v -0.01000000 0.12600000 0.00600000
v -0.01000000 0.12600000 0.01000000
v -0.01000000 0.13000000 0.00600000
v -0.01000000 0.13000000 0.01000000
v -0.01000000 0.12600000 0.01400000
v -0.01000000 0.13000000 0.01400000
v -0.01000000 0.12600000 0.01800000
v -0.01000000 0.13000000 0.01800000
v -0.01000000 0.12600000 0.02200000
v -0.01000000 0.13000000 0.02200000
v -0.01000000 0.13000000 0.02600000
v -0.01000000 0.13400000 0.02200000
v -0.01000000 0.13400000 0.02600000
v -0.01000000 0.13000000 0.03000000
v -0.01000000 0.13400000 0.03000000
v -0.01000000 0.13000000 0.03400000
v -0.01000000 0.13400000 0.03400000
v -0.01000000 0.13000000 0.03800000
v -0.01000000 0.13400000 0.03800000
v -0.01000000 0.13800000 0.03400000
v -0.01000000 0.13800000 0.03800000
v -0.01000000 0.13400000 0.04200000
v -0.01000000 0.13800000 0.04200000
v -0.00600000 0.11800000 -0.01800000
v -0.00600000 0.11800000 -0.01400000
v -0.00600000 0.12200000 -0.01800000
v -0.00600000 0.12200000 -0.01400000
v -0.00600000 0.11800000 -0.01000000
v -0.00600000 0.12200000 -0.01000000
v -0.00600000 0.11800000 -0.00600000
v -0.00600000 0.12200000 -0.00600000
v -0.00600000 0.12600000 -0.01000000
v -0.00600000 0.12600000 -0.00600000
v -0.00600000 0.12200000 -0.00200000
v -0.00600000 0.12600000 -0.00200000
v -0.00600000 0.12200000 0.00200000
v -0.00600000 0.12600000 0.00200000
v -0.00600000 0.12200000 0.00600000
v -0.00600000 0.12600000 0.00600000
v -0.00600000 0.12600000 0.01000000
v -0.00600000 0.13000000 0.00600000
v -0.00600000 0.13000000 0.01000000
v -0.00600000 0.12600000 0.01400000
v -0.00600000 0.13000000 0.01400000
v -0.00600000 0.12600000 0.01800000
v -0.00600000 0.13000000 0.01800000
v -0.00600000 0.12600000 0.02200000
v -0.00600000 0.13000000 0.02200000
v -0.00600000 0.13000000 0.02600000
v -0.00600000 0.13400000 0.02200000
v -0.00600000 0.13400000 0.02600000
v -0.00600000 0.13000000 0.03000000
v -0.00600000 0.13400000 0.03000000
v -0.00600000 0.13000000 0.03400000
v -0.00600000 0.13400000 0.03400000
v -0.00600000 0.13000000 0.03800000
v -0.00600000 0.13400000 0.03800000
v -0.00600000 0.13800000 0.03400000
v -0.00600000 0.13800000 0.03800000
v -0.00600000 0.13400000 0.04200000
v -0.00600000 0.13800000 0.04200000
v -0.00200000 0.11800000 -0.01800000
v -0.00200000 0.11800000 -0.01400000
v -0.00200000 0.12200000 -0.01800000
v -0.00200000 0.12200000 -0.01400000
v -0.00200000 0.11800000 -0.01000000
v -0.00200000 0.12200000 -0.01000000
v -0.00200000 0.11800000 -0.00600000
v -0.00200000 0.12200000 -0.00600000
v -0.00200000 0.12600000 -0.01000000
v -0.00200000 0.12600000 -0.00600000
v -0.00200000 0.12200000 -0.00200000
v -0.00200000 0.12600000 -0.00200000
v -0.00200000 0.12200000 0.00200000
v -0.00200000 0.12600000 0.00200000
v -0.00200000 0.12200000 0.00600000
v -0.00200000 0.12600000 0.00600000
v -0.00200000 0.12600000 0.01000000
v -0.00200000 0.13000000 0.00600000
v -0.00200000 0.13000000 0.01000000
v -0.00200000 0.12600000 0.01400000
v -0.00200000 0.13000000 0.01400000
v -0.00200000 0.12600000 0.01800000
v -0.00200000 0.13000000 0.01800000
v -0.00200000 0.12600000 0.02200000
v -0.00200000 0.13000000 0.02200000
v -0.00200000 0.13000000 0.02600000
v -0.00200000 0.13400000 0.02200000
v -0.00200000 0.13400000 0.02600000
v -0.00200000 0.13000000 0.03000000
v -0.00200000 0.13400000 0.03000000
v -0.00200000 0.13000000 0.03400000
v -0.00200000 0.13400000 0.03400000
v -0.00200000 0.13000000 0.03800000
v -0.00200000 0.13400000 0.03800000
v -0.00200000 0.13800000 0.03400000
v -0.00200000 0.13800000 0.03800000
v -0.00200000 0.13400000 0.04200000
v -0.00200000 0.13800000 0.04200000
v 0.00200000 0.11800000 -0.01800000
v 0.00200000 0.11800000 -0.01400000
v 0.00200000 0.12200000 -0.01800000
v 0.00200000 0.12200000 -0.01400000
v 0.00200000 0.11800000 -0.01000000
v 0.00200000 0.12200000 -0.01000000
v 0.00200000 0.11800000 -0.00600000
v 0.00200000 0.12200000 -0.00600000
v 0.00200000 0.12600000 -0.01000000
v 0.00200000 0.12600000 -0.00600000
v 0.00200000 0.12200000 -0.00200000
v 0.00200000 0.12600000 -0.00200000
v 0.00200000 0.12200000 0.00200000
v 0.00200000 0.12600000 0.00200000
v 0.00200000 0.12200000 0.00600000
v 0.00200000 0.12600000 0.00600000
v 0.00200000 0.12600000 0.01000000
v 0.00200000 0.13000000 0.00600000
v 0.00200000 0.13000000 0.01000000
v 0.00200000 0.12600000 0.01400000
v 0.00200000 0.13000000 0.01400000
v 0.00200000 0.12600000 0.01800000
v 0.00200000 0.13000000 0.01800000
v 0.00200000 0.12600000 0.02200000
v 0.00200000 0.13000000 0.02200000
v 0.00200000 0.13000000 0.02600000
v 0.00200000 0.13400000 0.02200000
v 0.00200000 0.13400000 0.02600000
v 0.00200000 0.13000000 0.03000000
v 0.00200000 0.13400000 0.03000000
v 0.00200000 0.13000000 0.03400000
v 0.00200000 0.13400000 0.03400000
v 0.00200000 0.13000000 0.03800000
v 0.00200000 0.13400000 0.03800000
v 0.00200000 0.13800000 0.03400000
v 0.00200000 0.13800000 0.03800000
v 0.00200000 0.13400000 0.04200000
v 0.00200000 0.13800000 0.04200000
v 0.00600000 0.11800000 -0.01800000
v 0.00600000 0.11800000 -0.01400000
v 0.00600000 0.12200000 -0.01800000
v 0.00600000 0.12200000 -0.01400000
v 0.00600000 0.11800000 -0.01000000
v 0.00600000 0.12200000 -0.01000000
v 0.00600000 0.11800000 -0.00600000
v 0.00600000 0.12200000 -0.00600000
v 0.00600000 0.12600000 -0.01000000
v 0.00600000 0.12600000 -0.00600000
v 0.00600000 0.12200000 -0.00200000
v 0.00600000 0.12600000 -0.00200000
v 0.00600000 0.12200000 0.00200000
v 0.00600000 0.12600000 0.00200000
v 0.00600000 0.12200000 0.00600000
v 0.00600000 0.12600000 0.00600000
v 0.00600000 0.12600000 0.01000000
v 0.00600000 0.13000000 0.00600000
v 0.00600000 0.13000000 0.01000000
v 0.00600000 0.12600000 0.01400000
v 0.00600000 0.13000000 0.01400000
v 0.00600000 0.12600000 0.01800000
v 0.00600000 0.13000000 0.01800000
v 0.00600000 0.12600000 0.02200000
v 0.00600000 0.13000000 0.02200000
v 0.00600000 0.13000000 0.02600000
v 0.00600000 0.13400000 0.02200000
v 0.00600000 0.13400000 0.02600000
v 0.00600000 0.13000000 0.03000000
v 0.00600000 0.13400000 0.03000000
v 0.00600000 0.13000000 0.03400000
v 0.00600000 0.13400000 0.03400000
v 0.00600000 0.13000000 0.03800000
v 0.00600000 0.13400000 0.03800000
v 0.00600000 0.13800000 0.03400000
v 0.00600000 0.13800000 0.03800000
v 0.00600000 0.13400000 0.04200000
v 0.00600000 0.13800000 0.04200000
v 0.01000000 0.11800000 -0.01800000
v 0.01000000 0.11800000 -0.01400000
v 0.01000000 0.12200000 -0.01800000
v 0.01000000 0.12200000 -0.01400000
v 0.01000000 0.11800000 -0.01000000
v 0.01000000 0.12200000 -0.01000000
v 0.01000000 0.11800000 -0.00600000
v 0.01000000 0.12200000 -0.00600000
v 0.01000000 0.12600000 -0.01000000
v 0.01000000 0.12600000 -0.00600000
v 0.01000000 0.12200000 -0.00200000
v 0.01000000 0.12600000 -0.00200000
v 0.01000000 0.12200000 0.00200000
v 0.01000000 0.12600000 0.00200000
v 0.01000000 0.12200000 0.00600000
v 0.01000000 0.12600000 0.00600000
v 0.01000000 0.12600000 0.01000000
v 0.01000000 0.13000000 0.00600000
v 0.01000000 0.13000000 0.01000000
v 0.01000000 0.12600000 0.01400000
v 0.01000000 0.13000000 0.01400000
v 0.01000000 0.12600000 0.01800000
v 0.01000000 0.13000000 0.01800000
v 0.01000000 0.12600000 0.02200000
v 0.01000000 0.13000000 0.02200000
v 0.01000000 0.13000000 0.02600000
v 0.01000000 0.13400000 0.02200000
v 0.01000000 0.13400000 0.02600000
v 0.01000000 0.13000000 0.03000000
v 0.01000000 0.13400000 0.03000000
v 0.01000000 0.13000000 0.03400000
v 0.01000000 0.13400000 0.03400000
v 0.01000000 0.13000000 0.03800000
v 0.01000000 0.13400000 0.03800000
v 0.01000000 0.13800000 0.03400000
v 0.01000000 0.13800000 0.03800000
v 0.01000000 0.13400000 0.04200000
v 0.01000000 0.13800000 0.04200000
v 0.01400000 0.11800000 -0.01800000
v 0.01400000 0.11800000 -0.01400000
v 0.01400000 0.12200000 -0.01800000
v 0.01400000 0.12200000 -0.01400000
v 0.01400000 0.11800000 -0.01000000
v 0.01400000 0.12200000 -0.01000000
v 0.01400000 0.11800000 -0.00600000
v 0.01400000 0.12200000 -0.00600000
v 0.01400000 0.12600000 -0.01000000
v 0.01400000 0.12600000 -0.00600000
v 0.01400000 0.12200000 -0.00200000
v 0.01400000 0.12600000 -0.00200000
v 0.01400000 0.12200000 0.00200000
v 0.01400000 0.12600000 0.00200000
v 0.01400000 0.12200000 0.00600000
v 0.01400000 0.12600000 0.00600000
v 0.01400000 0.12600000 0.01000000
v 0.01400000 0.13000000 0.00600000
v 0.01400000 0.13000000 0.01000000
v 0.01400000 0.12600000 0.01400000
v 0.01400000 0.13000000 0.01400000
v 0.01400000 0.12600000 0.01800000
v 0.01400000 0.13000000 0.01800000
v 0.01400000 0.12600000 0.02200000
v 0.01400000 0.13000000 0.02200000
v 0.01400000 0.13000000 0.02600000
v 0.01400000 0.13400000 0.02200000
v 0.01400000 0.13400000 0.02600000
v 0.01400000 0.13000000 0.03000000
v 0.01400000 0.13400000 0.03000000
v 0.01400000 0.13000000 0.03400000
v 0.01400000 0.13400000 0.03400000
v 0.01400000 0.13000000 0.03800000
v 0.01400000 0.13400000 0.03800000
v 0.01400000 0.13800000 0.03400000
v 0.01400000 0.13800000 0.03800000
v 0.01400000 0.13400000 0.04200000
v 0.01400000 0.13800000 0.04200000
v 0.01800000 0.11800000 -0.01800000
v 0.01800000 0.11800000 -0.01400000
v 0.01800000 0.12200000 -0.01800000
v 0.01800000 0.12200000 -0.01400000
v 0.01800000 0.11800000 -0.01000000
v 0.01800000 0.12200000 -0.01000000
v 0.01800000 0.11800000 -0.00600000
v 0.01800000 0.12200000 -0.00600000
v 0.01800000 0.12600000 -0.01000000
v 0.01800000 0.12600000 -0.00600000
v 0.01800000 0.12200000 -0.00200000
v 0.01800000 0.12600000 -0.00200000
v 0.01800000 0.12200000 0.00200000
v 0.01800000 0.12600000 0.00200000
v 0.01800000 0.12200000 0.00600000
v 0.01800000 0.12600000 0.00600000
v 0.01800000 0.12600000 0.01000000
v 0.01800000 0.13000000 0.00600000
v 0.01800000 0.13000000 0.01000000
v 0.01800000 0.12600000 0.01400000
v 0.01800000 0.13000000 0.01400000
v 0.01800000 0.12600000 0.01800000
v 0.01800000 0.13000000 0.01800000
v 0.01800000 0.12600000 0.02200000
v 0.01800000 0.13000000 0.02200000
v 0.01800000 0.13000000 0.02600000
v 0.01800000 0.13400000 0.02200000
v 0.01800000 0.13400000 0.02600000
v 0.01800000 0.13000000 0.03000000
v 0.01800000 0.13400000 0.03000000
v 0.01800000 0.13000000 0.03400000
v 0.01800000 0.13400000 0.03400000
v 0.01800000 0.13000000 0.03800000
v 0.01800000 0.13400000 0.03800000
v 0.01800000 0.13800000 0.03400000
v 0.01800000 0.13800000 0.03800000
v 0.01800000 0.13400000 0.04200000
v 0.01800000 0.13800000 0.04200000
v 0.02200000 0.11800000 -0.01800000
v 0.02200000 0.11800000 -0.01400000
v 0.02200000 0.12200000 -0.01800000
v 0.02200000 0.12200000 -0.01400000
v 0.02200000 0.11800000 -0.01000000
v 0.02200000 0.12200000 -0.01000000
v 0.02200000 0.11800000 -0.00600000
v 0.02200000 0.12200000 -0.00600000
v 0.02200000 0.12600000 -0.01000000
v 0.02200000 0.12600000 -0.00600000
v 0.02200000 0.12200000 -0.00200000
v 0.02200000 0.12600000 -0.00200000
v 0.02200000 0.12200000 0.00200000
v 0.02200000 0.12600000 0.00200000
v 0.02200000 0.12200000 0.00600000
v 0.02200000 0.12600000 0.00600000
v 0.02200000 0.12600000 0.01000000
v 0.02200000 0.13000000 0.00600000
v 0.02200000 0.13000000 0.01000000
v 0.02200000 0.12600000 0.01400000
v 0.02200000 0.13000000 0.01400000
v 0.02200000 0.12600000 0.01800000
v 0.02200000 0.13000000 0.01800000
v 0.02200000 0.12600000 0.02200000
v 0.02200000 0.13000000 0.02200000
v 0.02200000 0.13000000 0.02600000
v 0.02200000 0.13400000 0.02200000
v 0.02200000 0.13400000 0.02600000
v 0.02200000 0.13000000 0.03000000
v 0.02200000 0.13400000 0.03000000
v 0.02200000 0.13000000 0.03400000
v 0.02200000 0.13400000 0.03400000
v 0.02200000 0.13000000 0.03800000
v 0.02200000 0.13400000 0.03800000
v 0.02200000 0.13800000 0.03400000
v 0.02200000 0.13800000 0.03800000
v 0.02200000 0.13400000 0.04200000
v 0.02200000 0.13800000 0.04200000
f 2 4 1
f 5 2 1
f 1 4 3
f 3 5 1
f 6 2 5
f 4 8 3
f 7 5 3
f 3 8 7
f 9 10 2
f 6 9 2
f 2 10 4
f 11 9 6
f 10 12 4
f 4 12 8
f 13 14 9
f 11 13 9
f 9 14 10
f 13 16 14
f 15 13 11
f 15 16 13
f 14 18 10
f 10 18 17
f 17 12 10
f 18 20 17
f 19 12 17
f 17 20 19
f 21 22 14
f 16 21 14
f 14 22 18
f 23 21 16
f 22 24 18
f 18 24 20
f 25 26 21
f 23 25 21
f 21 26 22
f 27 25 23
f 26 28 22
f 22 28 24
f 29 30 25
f 27 29 25
f 25 30 26
f 29 32 30
f 31 29 27
f 31 32 29
f 30 32 26
f 26 32 28
f 33 35 30
f 32 33 30
f 30 35 34
f 34 32 30
f 36 33 32
f 35 38 34
f 37 32 34
f 34 38 37
f 39 40 33
f 36 39 33
f 33 40 35
f 41 39 36
f 40 42 35
f 35 42 38
f 43 44 39
f 41 43 39
f 39 44 40
f 45 43 41
f 44 46 40
f 40 46 42
f 47 48 43
f 45 47 43
f 43 48 44
f 47 50 48
f 49 47 45
f 49 50 47
f 48 50 44
f 44 50 46
f 51 53 48
f 50 51 48
f 48 53 52
f 52 50 48
f 54 51 50
f 53 56 52
f 55 50 52
f 52 56 55
f 57 58 51
f 54 57 51
f 51 58 53
f 59 57 54
f 58 60 53
f 53 60 56
f 61 62 57
f 59 61 57
f 57 62 58
f 63 61 59
f 62 64 58
f 58 64 60
f 65 66 61
f 63 65 61
f 61 66 62
f 65 68 66
f 67 65 63
f 67 68 65
f 66 70 62
f 62 70 69
f 69 64 62
f 70 72 69
f 71 64 69
f 69 72 71
f 73 74 66
f 68 73 66
f 66 74 70
f 73 76 74
f 75 73 68
f 75 76 73
f 74 76 70
f 70 76 72
f 77 6 5
f 7 77 5
f 78 6 77
f 8 80 7
f 79 77 7
f 7 80 79
f 78 11 6
f 81 11 78
f 12 82 8
f 8 82 80
f 81 15 11
f 15 84 16
f 83 15 81
f 83 84 15
f 19 82 12
f 20 86 19
f 85 82 19
f 19 86 85
f 84 23 16
f 87 23 84
f 24 88 20
f 20 88 86
f 87 27 23
f 89 27 87
f 28 90 24
f 24 90 88
f 89 31 27
f 31 92 32
f 91 31 89
f 91 92 31
f 32 92 28
f 28 92 90
f 92 36 32
f 37 92 32
f 93 36 92
f 38 95 37
f 94 92 37
f 37 95 94
f 93 41 36
f 96 41 93
f 42 97 38
f 38 97 95
f 96 45 41
f 98 45 96
f 46 99 42
f 42 99 97
f 98 49 45
f 49 101 50
f 100 49 98
f 100 101 49
f 50 101 46
f 46 101 99
f 101 54 50
f 55 101 50
f 102 54 101
f 56 104 55
f 103 101 55
f 55 104 103
f 102 59 54
f 105 59 102
f 60 106 56
f 56 106 104
f 105 63 59
f 107 63 105
f 64 108 60
f 60 108 106
f 107 67 63
f 67 110 68
f 109 67 107
f 109 110 67
f 71 108 64
f 72 112 71
f 111 108 71
f 71 112 111
f 110 75 68
f 75 114 76
f 113 75 110
f 113 114 75
f 76 114 72
f 72 114 112
f 115 78 77
f 79 115 77
f 116 78 115
f 80 118 79
f 117 115 79
f 79 118 117
f 116 81 78
f 119 81 116
f 82 120 80
f 80 120 118
f 119 83 81
f 83 122 84
f 121 83 119
f 121 122 83
f 85 120 82
f 86 124 85
f 123 120 85
f 85 124 123
f 122 87 84
f 125 87 122
f 88 126 86
f 86 126 124
f 125 89 87
f 127 89 125
f 90 128 88
f 88 128 126
f 127 91 89
f 91 130 92
f 129 91 127
f 129 130 91
f 92 130 90
f 90 130 128
f 130 93 92
f 94 130 92
f 131 93 130
f 95 133 94
f 132 130 94
f 94 133 132
f 131 96 93
f 134 96 131
f 97 135 95
f 95 135 133
f 134 98 96
f 136 98 134
f 99 137 97
f 97 137 135
f 136 100 98
f 100 139 101
f 138 100 136
f 138 139 100
f 101 139 99
f 99 139 137
f 139 102 101
f 103 139 101
f 140 102 139
f 104 142 103
f 141 139 103
f 103 142 141
f 140 105 102
f 143 105 140
f 106 144 104
f 104 144 142
f 143 107 105
f 145 107 143
f 108 146 106
f 106 146 144
f 145 109 107
f 109 148 110
f 147 109 145
f 147 148 109
f 111 146 108
f 112 150 111
f 149 146 111
f 111 150 149
f 148 113 110
f 113 152 114
f 151 113 148
f 151 152 113
f 114 152 112
f 112 152 150
f 153 116 115
f 117 153 115
f 154 116 153
f 118 156 117
f 155 153 117
f 117 156 155
f 154 119 116
f 157 119 154
f 120 158 118
f 118 158 156
f 157 121 119
f 121 160 122
f 159 121 157
f 159 160 121
f 123 158 120
f 124 162 123
f 161 158 123
f 123 162 161
f 160 125 122
f 163 125 160
f 126 164 124
f 124 164 162
f 163 127 125
f 165 127 163
f 128 166 126
f 126 166 164
f 165 129 127
f 129 168 130
f 167 129 165
f 167 168 129
f 130 168 128
f 128 168 166
f 168 131 130
f 132 168 130
f 169 131 168
f 133 171 132
f 170 168 132
f 132 171 170
f 169 134 131
f 172 134 169
f 135 173 133
f 133 173 171
f 172 136 134
f 174 136 172
f 137 175 135
f 135 175 173
f 174 138 136
f 138 177 139
f 176 138 174
f 176 177 138
f 139 177 137
f 137 177 175
f 177 140 139
f 141 177 139
f 178 140 177
f 142 180 141
f 179 177 141
f 141 180 179
f 178 143 140
f 181 143 178
f 144 182 142
f 142 182 180
f 181 145 143
f 183 145 181
f 146 184 144
f 144 184 182
f 183 147 145
f 147 186 148
f 185 147 183
f 185 186 147
f 149 184 146
f 150 188 149
f 187 184 149
f 149 188 187
f 186 151 148
f 151 190 152
f 189 151 186
f 189 190 151
f 152 190 150
f 150 190 188
f 191 154 153
f 155 191 153
f 192 154 191
f 156 194 155
f 193 191 155
f 155 194 193
f 192 157 154
f 195 157 192
f 158 196 156
f 156 196 194
f 195 159 157
f 159 198 160
f 197 159 195
f 197 198 159
f 161 196 158
f 162 200 161
f 199 196 161
f 161 200 199
f 198 163 160
f 201 163 198
f 164 202 162
f 162 202 200
f 201 165 163
f 203 165 201
f 166 204 164
f 164 204 202
f 203 167 165
f 167 206 168
f 205 167 203
f 205 206 167
f 168 206 166
f 166 206 204
f 206 169 168
f 170 206 168
f 207 169 206
f 171 209 170
f 208 206 170
f 170 209 208
f 207 172 169
f 210 172 207
f 173 211 171
f 171 211 209
f 210 174 172
f 212 174 210
f 175 213 173
f 173 213 211
f 212 176 174
f 176 215 177
f 214 176 212
f 214 215 176
f 177 215 175
f 175 215 213
f 215 178 177
f 179 215 177
f 216 178 215
f 180 218 179
f 217 215 179
f 179 218 217
f 216 181 178
f 219 181 216
f 182 220 180
f 180 220 218
f 219 183 181
f 221 183 219
f 184 222 182
f 182 222 220
f 221 185 183
f 185 224 186
f 223 185 221
f 223 224 185
f 187 222 184
f 188 226 187
f 225 222 187
f 187 226 225
f 224 189 186
f 189 228 190
f 227 189 224
f 227 228 189
f 190 228 188
f 188 228 226
f 229 192 191
f 193 229 191
f 230 192 229
f 194 232 193
f 231 229 193
f 193 232 231
f 230 195 192
f 233 195 230
f 196 234 194
f 194 234 232
f 233 197 195
f 197 236 198
f 235 197 233
f 235 236 197
f 199 234 196
f 200 238 199
f 237 234 199
f 199 238 237
f 236 201 198
f 239 201 236
f 202 240 200
f 200 240 238
f 239 203 201
f 241 203 239
f 204 242 202
f 202 242 240
f 241 205 203
f 205 244 206
f 243 205 241
f 243 244 205
f 206 244 204
f 204 244 242
f 244 207 206
f 208 244 206
f 245 207 244
f 209 247 208
f 246 244 208
f 208 247 246
f 245 210 207
f 248 210 245
f 211 249 209
f 209 249 247
f 248 212 210
f 250 212 248
f 213 251 211
f 211 251 249
f 250 214 212
f 214 253 215
f 252 214 250
f 252 253 214
f 215 253 213
f 213 253 251
f 253 216 215
f 217 253 215
f 254 216 253
f 218 256 217
f 255 253 217
f 217 256 255
f 254 219 216
f 257 219 254
f 220 258 218
f 218 258 256
f 257 221 219
f 259 221 257
f 222 260 220
f 220 260 258
f 259 223 221
f 223 262 224
f 261 223 259
f 261 262 223
f 225 260 222
f 226 264 225
f 263 260 225
f 225 264 263
f 262 227 224
f 227 266 228
f 265 227 262
f 265 266 227
f 228 266 226
f 226 266 264
f 267 230 229
f 231 267 229
f 268 230 267
f 232 270 231
f 269 267 231
f 231 270 269
f 268 233 230
f 271 233 268
f 234 272 232
f 232 272 270
f 271 235 233
f 235 274 236
f 273 235 271
f 273 274 235
f 237 272 234
f 238 276 237
f 275 272 237
f 237 276 275
f 274 239 236
f 277 239 274
f 240 278 238
f 238 278 276
f 277 241 239
f 279 241 277
f 242 280 240
f 240 280 278
f 279 243 241
f 243 282 244
f 281 243 279
f 281 282 243
f 244 282 242
f 242 282 280
f 282 245 244
f 246 282 244
f 283 245 282
f 247 285 246
f 284 282 246
f 246 285 284
f 283 248 245
f 286 248 283
f 249 287 247
f 247 287 285
f 286 250 248
f 288 250 286
f 251 289 249
f 249 289 287
f 288 252 250
f 252 291 253
f 290 252 288
f 290 291 252
f 253 291 251
f 251 291 289
f 291 254 253
f 255 291 253
f 292 254 291
f 256 294 255
f 293 291 255
f 255 294 293
f 292 257 254
f 295 257 292
f 258 296 256
f 256 296 294
f 295 259 257
f 297 259 295
f 260 298 258
f 258 298 296
f 297 261 259
f 261 300 262
f 299 261 297
f 299 300 261
f 263 298 260
f 264 302 263
f 301 298 263
f 263 302 301
f 300 265 262
f 265 304 266
f 303 265 300
f 303 304 265
f 266 304 264
f 264 304 302
f 305 268 267
f 269 305 267
f 306 268 305
f 270 308 269
f 307 305 269
f 269 308 307
f 306 271 268
f 309 271 306
f 272 310 270
f 270 310 308
f 309 273 271
f 273 312 274
f 311 273 309
f 311 312 273
f 275 310 272
f 276 314 275
f 313 310 275
f 275 314 313
f 312 277 274
f 315 277 312
f 278 316 276
f 276 316 314
f 315 279 277
f 317 279 315
f 280 318 278
f 278 318 316
f 317 281 279
f 281 320 282
f 319 281 317
f 319 320 281
f 282 320 280
f 280 320 318
f 320 283 282
f 284 320 282
f 321 283 320
f 285 323 284
f 322 320 284
f 284 323 322
f 321 286 283
f 324 286 321
f 287 325 285
f 285 325 323
f 324 288 286
f 326 288 324
f 289 327 287
f 287 327 325
f 326 290 288
f 290 329 291
f 328 290 326
f 328 329 290
f 291 329 289
f 289 329 327
f 329 292 291
f 293 329 291
f 330 292 329
f 294 332 293
f 331 329 293
f 293 332 331
f 330 295 292
f 333 295 330
f 296 334 294
f 294 334 332
f 333 297 295
f 335 297 333
f 298 336 296
f 296 336 334
f 335 299 297
f 299 338 300
f 337 299 335
f 337 338 299
f 301 336 298
f 302 340 301
f 339 336 301
f 301 340 339
f 338 303 300
f 303 342 304
f 341 303 338
f 341 342 303
f 304 342 302
f 302 342 340
f 343 306 305
f 307 343 305
f 344 306 343
f 308 346 307
f 345 343 307
f 307 346 345
f 344 309 306
f 347 309 344
f 310 348 308
f 308 348 346
f 347 311 309
f 311 350 312
f 349 311 347
f 349 350 311
f 313 348 310
f 314 352 313
f 351 348 313
f 313 352 351
f 350 315 312
f 353 315 350
f 316 354 314
f 314 354 352
f 353 317 315
f 355 317 353
f 318 356 316
f 316 356 354
f 355 319 317
f 319 358 320
f 357 319 355
f 357 358 319
f 320 358 318
f 318 358 356
f 358 321 320
f 322 358 320
f 359 321 358
f 323 361 322
f 360 358 322
f 322 361 360
f 359 324 321
f 362 324 359
f 325 363 323
f 323 363 361
f 362 326 324
f 364 326 362
f 327 365 325
f 325 365 363
f 364 328 326
f 328 367 329
f 366 328 364
f 366 367 328
f 329 367 327
f 327 367 365
f 367 330 329
f 331 367 329
f 368 330 367
f 332 370 331
f 369 367 331
f 331 370 369
f 368 333 330
f 371 333 368
f 334 372 332
f 332 372 370
f 371 335 333
f 373 335 371
f 336 374 334
f 334 374 372
f 373 337 335
f 337 376 338
f 375 337 373
f 375 376 337
f 339 374 336
f 340 378 339
f 377 374 339
f 339 378 377
f 376 341 338
f 341 380 342
f 379 341 376
f 379 380 341
f 342 380 340
f 340 380 378
f 381 344 343
f 345 381 343
f 382 344 381
f 346 384 345
f 383 381 345
f 345 384 383
f 382 347 344
f 385 347 382
f 348 386 346
f 346 386 384
f 385 349 347
f 349 388 350
f 387 349 385
f 387 388 349
f 351 386 348
f 352 390 351
f 389 386 351
f 351 390 389
f 388 353 350
f 391 353 388
f 354 392 352
f 352 392 390
f 391 355 353
f 393 355 391
f 356 394 354
f 354 394 392
f 393 357 355
f 357 396 358
f 395 357 393
f 395 396 357
f 358 396 356
f 356 396 394
f 396 359 358
f 360 396 358
f 397 359 396
f 361 399 360
f 398 396 360
f 360 399 398
f 397 362 359
f 400 362 397
f 363 401 361
f 361 401 399
f 400 364 362
f 402 364 400
f 365 403 363
f 363 403 401
f 402 366 364
f 366 405 367
f 404 366 402
f 404 405 366
f 367 405 365
f 365 405 403
f 405 368 367
f 369 405 367
f 406 368 405
f 370 408 369
f 407 405 369
f 369 408 407
f 406 371 368
f 409 371 406
f 372 410 370
f 370 410 408
f 409 373 371
f 411 373 409
f 374 412 372
f 372 412 410
f 411 375 373
f 375 414 376
f 413 375 411
f 413 414 375
f 377 412 374
f 378 416 377
f 415 412 377
f 377 416 415
f 414 379 376
f 379 418 380
f 417 379 414
f 417 418 379
f 380 418 378
f 378 418 416
f 419 382 381
f 383 419 381
f 420 382 419
f 384 422 383
f 421 419 383
f 383 422 421
f 420 385 382
f 423 385 420
f 386 424 384
f 384 424 422
f 423 387 385
f 387 426 388
f 425 387 423
f 425 426 387
f 389 424 386
f 390 428 389
f 427 424 389
f 389 428 427
f 426 391 388
f 429 391 426
f 392 430 390
f 390 430 428
f 429 393 391
f 431 393 429
f 394 432 392
f 392 432 430
f 431 395 393
f 395 434 396
f 433 395 431
f 433 434 395
f 396 434 394
f 394 434 432
f 434 397 396
f 398 434 396
f 435 397 434
f 399 437 398
f 436 434 398
f 398 437 436
f 435 400 397
f 438 400 435
f 401 439 399
f 399 439 437
f 438 402 400
f 440 402 438
f 403 441 401
f 401 441 439
f 440 404 402
f 404 443 405
f 442 404 440
f 442 443 404
f 405 443 403
f 403 443 441
f 443 406 405
f 407 443 405
f 444 406 443
f 408 446 407
f 445 443 407
f 407 446 445
f 444 409 406
f 447 409 444
f 410 448 408
f 408 448 446
f 447 411 409
f 449 411 447
f 412 450 410
f 410 450 448
f 449 413 411
f 413 452 414
f 451 413 449
f 451 452 413
f 415 450 412
f 416 454 415
f 453 450 415
f 415 454 453
f 452 417 414
f 417 456 418
f 455 417 452
f 455 456 417
f 418 456 416
f 416 456 454
f 457 420 419
f 421 457 419
f 458 420 457
f 422 460 421
f 459 457 421
f 421 460 459
f 459 458 457
f 460 458 459
f 458 423 420
f 461 423 458
f 424 462 422
f 422 462 460
f 460 461 458
f 462 461 460
f 461 425 423
f 425 464 426
f 463 425 461
f 463 464 425
f 462 463 461
f 464 463 462
f 427 462 424
f 428 466 427
f 465 462 427
f 427 466 465
f 465 464 462
f 466 464 465
f 464 429 426
f 467 429 464
f 430 468 428
f 428 468 466
f 466 467 464
f 468 467 466
f 467 431 429
f 469 431 467
f 432 470 430
f 430 470 468
f 468 469 467
f 470 469 468
f 469 433 431
f 433 472 434
f 471 433 469
f 471 472 433
f 434 472 432
f 432 472 470
f 470 471 469
f 472 471 470
f 472 435 434
f 436 472 434
f 473 435 472
f 437 475 436
f 474 472 436
f 436 475 474
f 474 473 472
f 475 473 474
f 473 438 435
f 476 438 473
f 439 477 437
f 437 477 475
f 475 476 473
f 477 476 475
f 476 440 438
f 478 440 476
f 441 479 439
f 439 479 477
f 477 478 476
f 479 478 477
f 478 442 440
f 442 481 443
f 480 442 478
f 480 481 442
f 443 481 441
f 441 481 479
f 479 480 478
f 481 480 479
f 481 444 443
f 445 481 443
f 482 444 481
f 446 484 445
f 483 481 445
f 445 484 483
f 483 482 481
f 484 482 483
f 482 447 444
f 485 447 482
f 448 486 446
f 446 486 484
f 484 485 482
f 486 485 484
f 485 449 447
f 487 449 485
f 450 488 448
f 448 488 486
f 486 487 485
f 488 487 486
f 487 451 449
f 451 490 452
f 489 451 487
f 489 490 451
f 488 489 487
f 490 489 488
f 453 488 450
f 454 492 453
f 491 488 453
f 453 492 491
f 491 490 488
f 492 490 491
f 490 455 452
f 455 494 456
f 493 455 490
f 493 494 455
f 456 494 454
f 454 494 492
f 492 493 490
f 494 493 492

