# https://github.com/mikedh/trimesh
v -0.08600000 -0.13800000 -0.10200000
v -0.08600000 -0.13800000 -0.09800000
v -0.08600000 -0.13400000 -0.10200000
v -0.08600000 -0.13400000 -0.09800000
v -0.08200000 -0.13800000 -0.10200000
v -0.08200000 -0.13800000 -0.09800000
v -0.08200000 -0.13400000 -0.10200000
v -0.08200000 -0.13400000 -0.09800000
v -0.08600000 -0.13000000 -0.10200000
v -0.08600000 -0.13000000 -0.09800000
v -0.08200000 -0.13000000 -0.10200000
v -0.08200000 -0.13000000 -0.09800000
v -0.08600000 -0.12600000 -0.10200000
v -0.08600000 -0.12600000 -0.09800000
v -0.08200000 -0.12600000 -0.10200000
v -0.08200000 -0.12600000 -0.09800000
v -0.08600000 -0.12200000 -0.10200000
v -0.08600000 -0.12200000 -0.09800000
v -0.08200000 -0.12200000 -0.10200000
v -0.08200000 -0.12200000 -0.09800000
v -0.08600000 -0.11800000 -0.10200000
v -0.08600000 -0.11800000 -0.09800000
v -0.08200000 -0.11800000 -0.10200000
v -0.08200000 -0.11800000 -0.09800000
v -0.08600000 -0.11400000 -0.10200000
v -0.08600000 -0.11400000 -0.09800000
v -0.08200000 -0.11400000 -0.10200000
v -0.08200000 -0.11400000 -0.09800000
v -0.08600000 -0.11000000 -0.10200000
v -0.08600000 -0.11000000 -0.09800000
v -0.08200000 -0.11000000 -0.10200000
v -0.08200000 -0.11000000 -0.09800000
v -0.08600000 -0.10600000 -0.10200000
v -0.08600000 -0.10600000 -0.09800000
v -0.08200000 -0.10600000 -0.10200000
v -0.08200000 -0.10600000 -0.09800000
v -0.08600000 -0.10200000 -0.10200000
v -0.08600000 -0.10200000 -0.09800000
v -0.08200000 -0.10200000 -0.10200000
v -0.08200000 -0.10200000 -0.09800000
v -0.08600000 -0.09800000 -0.10200000
v -0.08600000 -0.09800000 -0.09800000
v -0.08200000 -0.09800000 -0.10200000
v -0.08200000 -0.09800000 -0.09800000
v -0.08600000 -0.09400000 -0.10200000
v -0.08600000 -0.09400000 -0.09800000
v -0.08200000 -0.09400000 -0.10200000
v -0.08200000 -0.09400000 -0.09800000
v -0.08600000 -0.09000000 -0.10200000
v -0.08600000 -0.09000000 -0.09800000
v -0.08200000 -0.09000000 -0.10200000
v -0.08200000 -0.09000000 -0.09800000
v -0.08600000 -0.08600000 -0.10200000
v -0.08600000 -0.08600000 -0.09800000
v -0.08200000 -0.08600000 -0.10200000
v -0.08200000 -0.08600000 -0.09800000
v -0.08600000 -0.08200000 -0.10200000
v -0.08600000 -0.08200000 -0.09800000
v -0.08200000 -0.08200000 -0.10200000
v -0.08200000 -0.08200000 -0.09800000
v -0.08600000 -0.07800000 -0.10200000
v -0.08600000 -0.07800000 -0.09800000
v -0.08200000 -0.07800000 -0.10200000
v -0.08200000 -0.07800000 -0.09800000
v -0.08600000 -0.07400000 -0.10200000
v -0.08600000 -0.07400000 -0.09800000
v -0.08200000 -0.07400000 -0.10200000
v -0.08200000 -0.07400000 -0.09800000
v -0.08600000 -0.07000000 -0.10200000
v -0.08600000 -0.07000000 -0.09800000
v -0.08200000 -0.07000000 -0.10200000
v -0.08200000 -0.07000000 -0.09800000
v -0.08600000 -0.06600000 -0.10200000
v -0.08600000 -0.06600000 -0.09800000
v -0.08200000 -0.06600000 -0.10200000
v -0.08200000 -0.06600000 -0.09800000
v -0.08600000 -0.06200000 -0.10200000
v -0.08600000 -0.06200000 -0.09800000
v -0.08200000 -0.06200000 -0.10200000
v -0.08200000 -0.06200000 -0.09800000
v -0.08600000 -0.05800000 -0.10200000
v -0.08600000 -0.05800000 -0.09800000
v -0.08200000 -0.05800000 -0.10200000
v -0.08200000 -0.05800000 -0.09800000
v -0.07800000 -0.13800000 -0.10200000
v -0.07800000 -0.13800000 -0.09800000
v -0.07800000 -0.13400000 -0.10200000
v -0.07800000 -0.13400000 -0.09800000
v -0.07800000 -0.13000000 -0.10200000
v -0.07800000 -0.13000000 -0.09800000
v -0.07800000 -0.12600000 -0.10200000
v -0.07800000 -0.12600000 -0.09800000
v -0.07800000 -0.12200000 -0.10200000
v -0.07800000 -0.12200000 -0.09800000
v -0.07800000 -0.11800000 -0.10200000
v -0.07800000 -0.11800000 -0.09800000
v -0.07800000 -0.11400000 -0.10200000
v -0.07800000 -0.11400000 -0.09800000
v -0.07800000 -0.11000000 -0.10200000
v -0.07800000 -0.11000000 -0.09800000
v -0.07800000 -0.10600000 -0.10200000
v -0.07800000 -0.10600000 -0.09800000
v -0.07800000 -0.10200000 -0.10200000
v -0.07800000 -0.10200000 -0.09800000
v -0.07800000 -0.09800000 -0.10200000
v -0.07800000 -0.09800000 -0.09800000
v -0.07800000 -0.09400000 -0.10200000
v -0.07800000 -0.09400000 -0.09800000
v -0.07800000 -0.09000000 -0.10200000
v -0.07800000 -0.09000000 -0.09800000
v -0.07800000 -0.08600000 -0.10200000
v -0.07800000 -0.08600000 -0.09800000
v -0.07800000 -0.08200000 -0.10200000
v -0.07800000 -0.08200000 -0.09800000
v -0.07800000 -0.07800000 -0.10200000
v -0.07800000 -0.07800000 -0.09800000
v -0.07800000 -0.07400000 -0.10200000
v -0.07800000 -0.07400000 -0.09800000
v -0.07800000 -0.07000000 -0.10200000
v -0.07800000 -0.07000000 -0.09800000
v -0.07800000 -0.06600000 -0.10200000
v -0.07800000 -0.06600000 -0.09800000
v -0.07800000 -0.06200000 -0.10200000
v -0.07800000 -0.06200000 -0.09800000
v -0.07800000 -0.05800000 -0.10200000
v -0.07800000 -0.05800000 -0.09800000
v -0.07400000 -0.13800000 -0.10200000
v -0.07400000 -0.13800000 -0.09800000
v -0.07400000 -0.13400000 -0.10200000
v -0.07400000 -0.13400000 -0.09800000
v -0.07400000 -0.13000000 -0.10200000
v -0.07400000 -0.13000000 -0.09800000
v -0.07400000 -0.12600000 -0.10200000
v -0.07400000 -0.12600000 -0.09800000
v -0.07400000 -0.12200000 -0.10200000
v -0.07400000 -0.12200000 -0.09800000
v -0.07400000 -0.11800000 -0.10200000
v -0.07400000 -0.11800000 -0.09800000
v -0.07400000 -0.11400000 -0.10200000
v -0.07400000 -0.11400000 -0.09800000
v -0.07400000 -0.11000000 -0.10200000
v -0.07400000 -0.11000000 -0.09800000
v -0.07400000 -0.10600000 -0.10200000
v -0.07400000 -0.10600000 -0.09800000
v -0.07400000 -0.10200000 -0.10200000
v -0.07400000 -0.10200000 -0.09800000
v -0.07400000 -0.09800000 -0.10200000
v -0.07400000 -0.09800000 -0.09800000
v -0.07400000 -0.09400000 -0.10200000
v -0.07400000 -0.09400000 -0.09800000
v -0.07400000 -0.09000000 -0.10200000
v -0.07400000 -0.09000000 -0.09800000
v -0.07400000 -0.08600000 -0.10200000
v -0.07400000 -0.08600000 -0.09800000
v -0.07400000 -0.08200000 -0.10200000
v -0.07400000 -0.08200000 -0.09800000
v -0.07400000 -0.07800000 -0.10200000
v -0.07400000 -0.07800000 -0.09800000
v -0.07400000 -0.07400000 -0.10200000
v -0.07400000 -0.07400000 -0.09800000
v -0.07400000 -0.07000000 -0.10200000
v -0.07400000 -0.07000000 -0.09800000
v -0.07400000 -0.06600000 -0.10200000
v -0.07400000 -0.06600000 -0.09800000
v -0.07400000 -0.06200000 -0.10200000
v -0.07400000 -0.06200000 -0.09800000
v -0.07400000 -0.05800000 -0.10200000
v -0.07400000 -0.05800000 -0.09800000
v -0.07000000 -0.13800000 -0.10200000
v -0.07000000 -0.13800000 -0.09800000
v -0.07000000 -0.13400000 -0.10200000
v -0.07000000 -0.13400000 -0.09800000
v -0.07000000 -0.13000000 -0.10200000
v -0.07000000 -0.13000000 -0.09800000
v -0.07000000 -0.12600000 -0.10200000
v -0.07000000 -0.12600000 -0.09800000
v -0.07000000 -0.12200000 -0.10200000
v -0.07000000 -0.12200000 -0.09800000
v -0.07000000 -0.11800000 -0.10200000
v -0.07000000 -0.11800000 -0.09800000
v -0.07000000 -0.11400000 -0.10200000
v -0.07000000 -0.11400000 -0.09800000
v -0.07000000 -0.11000000 -0.10200000
v -0.07000000 -0.11000000 -0.09800000
v -0.07000000 -0.10600000 -0.10200000
v -0.07000000 -0.10600000 -0.09800000
v -0.07000000 -0.10200000 -0.10200000
v -0.07000000 -0.10200000 -0.09800000
v -0.07000000 -0.09800000 -0.10200000
v -0.07000000 -0.09800000 -0.09800000
v -0.07000000 -0.09400000 -0.10200000
v -0.07000000 -0.09400000 -0.09800000
v -0.07000000 -0.09000000 -0.10200000
v -0.07000000 -0.09000000 -0.09800000
v -0.07000000 -0.08600000 -0.10200000
v -0.07000000 -0.08600000 -0.09800000
v -0.07000000 -0.08200000 -0.10200000
v -0.07000000 -0.08200000 -0.09800000
v -0.07000000 -0.07800000 -0.10200000
v -0.07000000 -0.07800000 -0.09800000
v -0.07000000 -0.07400000 -0.10200000
v -0.07000000 -0.07400000 -0.09800000
v -0.07000000 -0.07000000 -0.10200000
v -0.07000000 -0.07000000 -0.09800000
v -0.07000000 -0.06600000 -0.10200000
v -0.07000000 -0.06600000 -0.09800000
v -0.07000000 -0.06200000 -0.10200000
v -0.07000000 -0.06200000 -0.09800000
v -0.07000000 -0.05800000 -0.10200000
v -0.07000000 -0.05800000 -0.09800000
v -0.06600000 -0.13800000 -0.10200000
v -0.06600000 -0.13800000 -0.09800000
v -0.06600000 -0.13400000 -0.10200000
v -0.06600000 -0.13400000 -0.09800000
v -0.06600000 -0.13000000 -0.10200000
v -0.06600000 -0.13000000 -0.09800000
v -0.06600000 -0.12600000 -0.10200000
v -0.06600000 -0.12600000 -0.09800000
v -0.06600000 -0.12200000 -0.10200000
v -0.06600000 -0.12200000 -0.09800000
v -0.06600000 -0.11800000 -0.10200000
v -0.06600000 -0.11800000 -0.09800000
v -0.06600000 -0.11400000 -0.10200000
v -0.06600000 -0.11400000 -0.09800000
v -0.06600000 -0.11000000 -0.10200000
v -0.06600000 -0.11000000 -0.09800000
v -0.06600000 -0.10600000 -0.10200000
v -0.06600000 -0.10600000 -0.09800000
v -0.06600000 -0.10200000 -0.10200000
v -0.06600000 -0.10200000 -0.09800000
v -0.06600000 -0.09800000 -0.10200000
v -0.06600000 -0.09800000 -0.09800000
v -0.06600000 -0.09400000 -0.10200000
v -0.06600000 -0.09400000 -0.09800000
v -0.06600000 -0.09000000 -0.10200000
v -0.06600000 -0.09000000 -0.09800000
v -0.06600000 -0.08600000 -0.10200000
v -0.06600000 -0.08600000 -0.09800000
v -0.06600000 -0.08200000 -0.10200000
v -0.06600000 -0.08200000 -0.09800000
v -0.06600000 -0.07800000 -0.10200000
v -0.06600000 -0.07800000 -0.09800000
v -0.06600000 -0.07400000 -0.10200000
v -0.06600000 -0.07400000 -0.09800000
v -0.06600000 -0.07000000 -0.10200000
v -0.06600000 -0.07000000 -0.09800000
v -0.06600000 -0.06600000 -0.10200000
v -0.06600000 -0.06600000 -0.09800000
v -0.06600000 -0.06200000 -0.10200000
v -0.06600000 -0.06200000 -0.09800000
v -0.06600000 -0.05800000 -0.10200000
v -0.06600000 -0.05800000 -0.09800000
v -0.06200000 -0.13800000 -0.10200000
v -0.06200000 -0.13800000 -0.09800000
v -0.06200000 -0.13400000 -0.10200000
v -0.06200000 -0.13400000 -0.09800000
v -0.06200000 -0.13000000 -0.10200000
v -0.06200000 -0.13000000 -0.09800000
v -0.06200000 -0.12600000 -0.10200000
v -0.06200000 -0.12600000 -0.09800000
v -0.06200000 -0.12200000 -0.10200000
v -0.06200000 -0.12200000 -0.09800000
v -0.06200000 -0.11800000 -0.10200000
v -0.06200000 -0.11800000 -0.09800000
v -0.06200000 -0.11400000 -0.10200000
v -0.06200000 -0.11400000 -0.09800000
v -0.06200000 -0.11000000 -0.10200000
v -0.06200000 -0.11000000 -0.09800000
v -0.06200000 -0.10600000 -0.10200000
v -0.06200000 -0.10600000 -0.09800000
v -0.06200000 -0.10200000 -0.10200000
v -0.06200000 -0.10200000 -0.09800000
v -0.06200000 -0.09800000 -0.10200000
v -0.06200000 -0.09800000 -0.09800000
v -0.06200000 -0.09400000 -0.10200000
v -0.06200000 -0.09400000 -0.09800000
v -0.06200000 -0.09000000 -0.10200000
v -0.06200000 -0.09000000 -0.09800000
v -0.06200000 -0.08600000 -0.10200000
v -0.06200000 -0.08600000 -0.09800000
v -0.06200000 -0.08200000 -0.10200000
v -0.06200000 -0.08200000 -0.09800000
v -0.06200000 -0.07800000 -0.10200000
v -0.06200000 -0.07800000 -0.09800000
v -0.06200000 -0.07400000 -0.10200000
v -0.06200000 -0.07400000 -0.09800000
v -0.06200000 -0.07000000 -0.10200000
v -0.06200000 -0.07000000 -0.09800000
v -0.06200000 -0.06600000 -0.10200000
v -0.06200000 -0.06600000 -0.09800000
v -0.06200000 -0.06200000 -0.10200000
v -0.06200000 -0.06200000 -0.09800000
v -0.06200000 -0.05800000 -0.10200000
v -0.06200000 -0.05800000 -0.09800000
v -0.05800000 -0.13800000 -0.10200000
v -0.05800000 -0.13800000 -0.09800000
v -0.05800000 -0.13400000 -0.10200000
v -0.05800000 -0.13400000 -0.09800000
v -0.05800000 -0.13000000 -0.10200000
v -0.05800000 -0.13000000 -0.09800000
v -0.05800000 -0.12600000 -0.10200000
v -0.05800000 -0.12600000 -0.09800000
v -0.05800000 -0.12200000 -0.10200000
v -0.05800000 -0.12200000 -0.09800000
v -0.05800000 -0.11800000 -0.10200000
v -0.05800000 -0.11800000 -0.09800000
v -0.05800000 -0.11400000 -0.10200000
v -0.05800000 -0.11400000 -0.09800000
v -0.05800000 -0.11000000 -0.10200000
v -0.05800000 -0.11000000 -0.09800000
v -0.05800000 -0.10600000 -0.10200000
v -0.05800000 -0.10600000 -0.09800000
v -0.05800000 -0.10200000 -0.10200000
v -0.05800000 -0.10200000 -0.09800000
v -0.05800000 -0.09800000 -0.10200000
v -0.05800000 -0.09800000 -0.09800000
v -0.05800000 -0.09400000 -0.10200000
v -0.05800000 -0.09400000 -0.09800000
v -0.05800000 -0.09000000 -0.10200000
v -0.05800000 -0.09000000 -0.09800000
v -0.05800000 -0.08600000 -0.10200000
v -0.05800000 -0.08600000 -0.09800000
v -0.05800000 -0.08200000 -0.10200000
v -0.05800000 -0.08200000 -0.09800000
v -0.05800000 -0.07800000 -0.10200000
v -0.05800000 -0.07800000 -0.09800000
v -0.05800000 -0.07400000 -0.10200000
v -0.05800000 -0.07400000 -0.09800000
v -0.05800000 -0.07000000 -0.10200000
v -0.05800000 -0.07000000 -0.09800000
v -0.05800000 -0.06600000 -0.10200000
v -0.05800000 -0.06600000 -0.09800000
v -0.05800000 -0.06200000 -0.10200000
v -0.05800000 -0.06200000 -0.09800000
v -0.05800000 -0.05800000 -0.10200000
v -0.05800000 -0.05800000 -0.09800000
v -0.05400000 -0.13800000 -0.10200000
v -0.05400000 -0.13800000 -0.09800000
v -0.05400000 -0.13400000 -0.10200000
v -0.05400000 -0.13400000 -0.09800000
v -0.05400000 -0.13000000 -0.10200000
v -0.05400000 -0.13000000 -0.09800000
v -0.05400000 -0.12600000 -0.10200000
v -0.05400000 -0.12600000 -0.09800000
v -0.05400000 -0.12200000 -0.10200000
v -0.05400000 -0.12200000 -0.09800000
v -0.05400000 -0.11800000 -0.10200000
v -0.05400000 -0.11800000 -0.09800000
v -0.05400000 -0.11400000 -0.10200000
v -0.05400000 -0.11400000 -0.09800000
v -0.05400000 -0.11000000 -0.10200000
v -0.05400000 -0.11000000 -0.09800000
v -0.05400000 -0.10600000 -0.10200000
v -0.05400000 -0.10600000 -0.09800000
v -0.05400000 -0.10200000 -0.10200000
v -0.05400000 -0.10200000 -0.09800000
v -0.05400000 -0.09800000 -0.10200000
v -0.05400000 -0.09800000 -0.09800000
v -0.05400000 -0.09400000 -0.10200000
v -0.05400000 -0.09400000 -0.09800000
v -0.05400000 -0.09000000 -0.10200000
v -0.05400000 -0.09000000 -0.09800000
v -0.05400000 -0.08600000 -0.10200000
v -0.05400000 -0.08600000 -0.09800000
v -0.05400000 -0.08200000 -0.10200000
v -0.05400000 -0.08200000 -0.09800000
v -0.05400000 -0.07800000 -0.10200000
v -0.05400000 -0.07800000 -0.09800000
v -0.05400000 -0.07400000 -0.10200000
v -0.05400000 -0.07400000 -0.09800000
v -0.05400000 -0.07000000 -0.10200000
v -0.05400000 -0.07000000 -0.09800000
v -0.05400000 -0.06600000 -0.10200000
v -0.05400000 -0.06600000 -0.09800000
v -0.05400000 -0.06200000 -0.10200000
v -0.05400000 -0.06200000 -0.09800000
v -0.05400000 -0.05800000 -0.10200000
v -0.05400000 -0.05800000 -0.09800000
v -0.05000000 -0.13800000 -0.10200000
v -0.05000000 -0.13800000 -0.09800000
v -0.05000000 -0.13400000 -0.10200000
v -0.05000000 -0.13400000 -0.09800000
v -0.05000000 -0.13000000 -0.10200000
v -0.05000000 -0.13000000 -0.09800000
v -0.05000000 -0.12600000 -0.10200000
v -0.05000000 -0.12600000 -0.09800000
v -0.05000000 -0.12200000 -0.10200000
v -0.05000000 -0.12200000 -0.09800000
v -0.05000000 -0.11800000 -0.10200000
v -0.05000000 -0.11800000 -0.09800000
v -0.05000000 -0.11400000 -0.10200000
v -0.05000000 -0.11400000 -0.09800000
v -0.05000000 -0.11000000 -0.10200000
v -0.05000000 -0.11000000 -0.09800000
v -0.05000000 -0.10600000 -0.10200000
v -0.05000000 -0.10600000 -0.09800000
v -0.05000000 -0.10200000 -0.10200000
v -0.05000000 -0.10200000 -0.09800000
v -0.05000000 -0.09800000 -0.10200000
v -0.05000000 -0.09800000 -0.09800000
v -0.05000000 -0.09400000 -0.10200000
v -0.05000000 -0.09400000 -0.09800000
v -0.05000000 -0.09000000 -0.10200000
v -0.05000000 -0.09000000 -0.09800000
v -0.05000000 -0.08600000 -0.10200000
v -0.05000000 -0.08600000 -0.09800000
v -0.05000000 -0.08200000 -0.10200000
v -0.05000000 -0.08200000 -0.09800000
v -0.05000000 -0.07800000 -0.10200000
v -0.05000000 -0.07800000 -0.09800000
v -0.05000000 -0.07400000 -0.10200000
v -0.05000000 -0.07400000 -0.09800000
v -0.05000000 -0.07000000 -0.10200000
v -0.05000000 -0.07000000 -0.09800000
v -0.05000000 -0.06600000 -0.10200000
v -0.05000000 -0.06600000 -0.09800000
v -0.05000000 -0.06200000 -0.10200000
v -0.05000000 -0.06200000 -0.09800000
v -0.05000000 -0.05800000 -0.10200000
v -0.05000000 -0.05800000 -0.09800000
v -0.04600000 -0.13800000 -0.10200000
v -0.04600000 -0.13800000 -0.09800000
v -0.04600000 -0.13400000 -0.10200000
v -0.04600000 -0.13400000 -0.09800000
v -0.04600000 -0.13000000 -0.10200000
v -0.04600000 -0.13000000 -0.09800000
v -0.04600000 -0.12600000 -0.10200000
v -0.04600000 -0.12600000 -0.09800000
v -0.04600000 -0.12200000 -0.10200000
v -0.04600000 -0.12200000 -0.09800000
v -0.04600000 -0.11800000 -0.10200000
v -0.04600000 -0.11800000 -0.09800000
v -0.04600000 -0.11400000 -0.10200000
v -0.04600000 -0.11400000 -0.09800000
v -0.04600000 -0.11000000 -0.10200000
v -0.04600000 -0.11000000 -0.09800000
v -0.04600000 -0.10600000 -0.10200000
v -0.04600000 -0.10600000 -0.09800000
v -0.04600000 -0.10200000 -0.10200000
v -0.04600000 -0.10200000 -0.09800000
v -0.04600000 -0.09800000 -0.10200000
v -0.04600000 -0.09800000 -0.09800000
v -0.04600000 -0.09400000 -0.10200000
v -0.04600000 -0.09400000 -0.09800000
v -0.04600000 -0.09000000 -0.10200000
v -0.04600000 -0.09000000 -0.09800000
v -0.04600000 -0.08600000 -0.10200000
v -0.04600000 -0.08600000 -0.09800000
v -0.04600000 -0.08200000 -0.10200000
v -0.04600000 -0.08200000 -0.09800000
v -0.04600000 -0.07800000 -0.10200000
v -0.04600000 -0.07800000 -0.09800000
v -0.04600000 -0.07400000 -0.10200000
v -0.04600000 -0.07400000 -0.09800000
v -0.04600000 -0.07000000 -0.10200000
v -0.04600000 -0.07000000 -0.09800000
v -0.04600000 -0.06600000 -0.10200000
v -0.04600000 -0.06600000 -0.09800000
v -0.04600000 -0.06200000 -0.10200000
v -0.04600000 -0.06200000 -0.09800000
v -0.04600000 -0.05800000 -0.10200000
v -0.04600000 -0.05800000 -0.09800000
v -0.04200000 -0.13800000 -0.10200000
v -0.04200000 -0.13800000 -0.09800000
v -0.04200000 -0.13400000 -0.10200000
v -0.04200000 -0.13400000 -0.09800000
v -0.04200000 -0.13000000 -0.10200000
v -0.04200000 -0.13000000 -0.09800000
v -0.04200000 -0.12600000 -0.10200000
v -0.04200000 -0.12600000 -0.09800000
v -0.04200000 -0.12200000 -0.10200000
v -0.04200000 -0.12200000 -0.09800000
v -0.04200000 -0.11800000 -0.10200000
v -0.04200000 -0.11800000 -0.09800000
v -0.04200000 -0.11400000 -0.10200000
v -0.04200000 -0.11400000 -0.09800000
v -0.04200000 -0.11000000 -0.10200000
v -0.04200000 -0.11000000 -0.09800000
v -0.04200000 -0.10600000 -0.10200000
v -0.04200000 -0.10600000 -0.09800000
v -0.04200000 -0.10200000 -0.10200000
v -0.04200000 -0.10200000 -0.09800000
v -0.04200000 -0.09800000 -0.10200000
v -0.04200000 -0.09800000 -0.09800000
v -0.04200000 -0.09400000 -0.10200000
v -0.04200000 -0.09400000 -0.09800000
v -0.04200000 -0.09000000 -0.10200000
v -0.04200000 -0.09000000 -0.09800000
v -0.04200000 -0.08600000 -0.10200000
v -0.04200000 -0.08600000 -0.09800000
v -0.04200000 -0.08200000 -0.10200000
v -0.04200000 -0.08200000 -0.09800000
v -0.04200000 -0.07800000 -0.10200000
v -0.04200000 -0.07800000 -0.09800000
v -0.04200000 -0.07400000 -0.10200000
v -0.04200000 -0.07400000 -0.09800000
v -0.04200000 -0.07000000 -0.10200000
v -0.04200000 -0.07000000 -0.09800000
v -0.04200000 -0.06600000 -0.10200000
v -0.04200000 -0.06600000 -0.09800000
v -0.04200000 -0.06200000 -0.10200000
v -0.04200000 -0.06200000 -0.09800000
v -0.04200000 -0.05800000 -0.10200000
v -0.04200000 -0.05800000 -0.09800000
v -0.03800000 -0.13800000 -0.10200000
v -0.03800000 -0.13800000 -0.09800000
v -0.03800000 -0.13400000 -0.10200000
v -0.03800000 -0.13400000 -0.09800000
v -0.03800000 -0.13000000 -0.10200000
v -0.03800000 -0.13000000 -0.09800000
v -0.03800000 -0.12600000 -0.10200000
v -0.03800000 -0.12600000 -0.09800000
v -0.03800000 -0.12200000 -0.10200000
v -0.03800000 -0.12200000 -0.09800000
v -0.03800000 -0.11800000 -0.10200000
v -0.03800000 -0.11800000 -0.09800000
v -0.03800000 -0.11400000 -0.10200000
v -0.03800000 -0.11400000 -0.09800000
v -0.03800000 -0.11000000 -0.10200000
v -0.03800000 -0.11000000 -0.09800000
v -0.03800000 -0.10600000 -0.10200000
v -0.03800000 -0.10600000 -0.09800000
v -0.03800000 -0.10200000 -0.10200000
v -0.03800000 -0.10200000 -0.09800000
v -0.03800000 -0.09800000 -0.10200000
v -0.03800000 -0.09800000 -0.09800000
v -0.03800000 -0.09400000 -0.10200000
v -0.03800000 -0.09400000 -0.09800000
v -0.03800000 -0.09000000 -0.10200000
v -0.03800000 -0.09000000 -0.09800000
v -0.03800000 -0.08600000 -0.10200000
v -0.03800000 -0.08600000 -0.09800000
v -0.03800000 -0.08200000 -0.10200000
v -0.03800000 -0.08200000 -0.09800000
v -0.03800000 -0.07800000 -0.10200000
v -0.03800000 -0.07800000 -0.09800000
v -0.03800000 -0.07400000 -0.10200000
v -0.03800000 -0.07400000 -0.09800000
v -0.03800000 -0.07000000 -0.10200000
v -0.03800000 -0.07000000 -0.09800000
v -0.03800000 -0.06600000 -0.10200000
v -0.03800000 -0.06600000 -0.09800000
v -0.03800000 -0.06200000 -0.10200000
v -0.03800000 -0.06200000 -0.09800000
v -0.03800000 -0.05800000 -0.10200000
v -0.03800000 -0.05800000 -0.09800000
v -0.03400000 -0.13800000 -0.10200000
v -0.03400000 -0.13800000 -0.09800000
v -0.03400000 -0.13400000 -0.10200000
v -0.03400000 -0.13400000 -0.09800000
v -0.03400000 -0.13000000 -0.10200000
v -0.03400000 -0.13000000 -0.09800000
v -0.03400000 -0.12600000 -0.10200000
v -0.03400000 -0.12600000 -0.09800000
v -0.03400000 -0.12200000 -0.10200000
v -0.03400000 -0.12200000 -0.09800000
v -0.03400000 -0.11800000 -0.10200000
v -0.03400000 -0.11800000 -0.09800000
v -0.03400000 -0.11400000 -0.10200000
v -0.03400000 -0.11400000 -0.09800000
v -0.03400000 -0.11000000 -0.10200000
v -0.03400000 -0.11000000 -0.09800000
v -0.03400000 -0.10600000 -0.10200000
v -0.03400000 -0.10600000 -0.09800000
v -0.03400000 -0.10200000 -0.10200000
v -0.03400000 -0.10200000 -0.09800000
v -0.03400000 -0.09800000 -0.10200000
v -0.03400000 -0.09800000 -0.09800000
v -0.03400000 -0.09400000 -0.10200000
v -0.03400000 -0.09400000 -0.09800000
v -0.03400000 -0.09000000 -0.10200000
v -0.03400000 -0.09000000 -0.09800000
v -0.03400000 -0.08600000 -0.10200000
v -0.03400000 -0.08600000 -0.09800000
v -0.03400000 -0.08200000 -0.10200000
v -0.03400000 -0.08200000 -0.09800000
v -0.03400000 -0.07800000 -0.10200000
v -0.03400000 -0.07800000 -0.09800000
v -0.03400000 -0.07400000 -0.10200000
v -0.03400000 -0.07400000 -0.09800000
v -0.03400000 -0.07000000 -0.10200000
v -0.03400000 -0.07000000 -0.09800000
v -0.03400000 -0.06600000 -0.10200000
v -0.03400000 -0.06600000 -0.09800000
v -0.03400000 -0.06200000 -0.10200000
v -0.03400000 -0.06200000 -0.09800000
v -0.03400000 -0.05800000 -0.10200000
v -0.03400000 -0.05800000 -0.09800000
v -0.03000000 -0.13800000 -0.10200000
v -0.03000000 -0.13800000 -0.09800000
v -0.03000000 -0.13400000 -0.10200000
v -0.03000000 -0.13400000 -0.09800000
v -0.03000000 -0.13000000 -0.10200000
v -0.03000000 -0.13000000 -0.09800000
v -0.03000000 -0.12600000 -0.10200000
v -0.03000000 -0.12600000 -0.09800000
v -0.03000000 -0.12200000 -0.10200000
v -0.03000000 -0.12200000 -0.09800000
v -0.03000000 -0.11800000 -0.10200000
v -0.03000000 -0.11800000 -0.09800000
v -0.03000000 -0.11400000 -0.10200000
v -0.03000000 -0.11400000 -0.09800000
v -0.03000000 -0.11000000 -0.10200000
v -0.03000000 -0.11000000 -0.09800000
v -0.03000000 -0.10600000 -0.10200000
v -0.03000000 -0.10600000 -0.09800000
v -0.03000000 -0.10200000 -0.10200000
v -0.03000000 -0.10200000 -0.09800000
v -0.03000000 -0.09800000 -0.10200000
v -0.03000000 -0.09800000 -0.09800000
v -0.03000000 -0.09400000 -0.10200000
v -0.03000000 -0.09400000 -0.09800000
v -0.03000000 -0.09000000 -0.10200000
v -0.03000000 -0.09000000 -0.09800000
v -0.03000000 -0.08600000 -0.10200000
v -0.03000000 -0.08600000 -0.09800000
v -0.03000000 -0.08200000 -0.10200000
v -0.03000000 -0.08200000 -0.09800000
v -0.03000000 -0.07800000 -0.10200000
v -0.03000000 -0.07800000 -0.09800000
v -0.03000000 -0.07400000 -0.10200000
v -0.03000000 -0.07400000 -0.09800000
v -0.03000000 -0.07000000 -0.10200000
v -0.03000000 -0.07000000 -0.09800000
v -0.03000000 -0.06600000 -0.10200000
v -0.03000000 -0.06600000 -0.09800000
v -0.03000000 -0.06200000 -0.10200000
v -0.03000000 -0.06200000 -0.09800000
v -0.03000000 -0.05800000 -0.10200000
v -0.03000000 -0.05800000 -0.09800000
v -0.02600000 -0.13800000 -0.10200000
v -0.02600000 -0.13800000 -0.09800000
v -0.02600000 -0.13400000 -0.10200000
v -0.02600000 -0.13400000 -0.09800000
v -0.02600000 -0.13000000 -0.10200000
v -0.02600000 -0.13000000 -0.09800000
v -0.02600000 -0.12600000 -0.10200000
v -0.02600000 -0.12600000 -0.09800000
v -0.02600000 -0.12200000 -0.10200000
v -0.02600000 -0.12200000 -0.09800000
v -0.02600000 -0.11800000 -0.10200000
v -0.02600000 -0.11800000 -0.09800000
v -0.02600000 -0.11400000 -0.10200000
v -0.02600000 -0.11400000 -0.09800000
v -0.02600000 -0.11000000 -0.10200000
v -0.02600000 -0.11000000 -0.09800000
v -0.02600000 -0.10600000 -0.10200000
v -0.02600000 -0.10600000 -0.09800000
v -0.02600000 -0.10200000 -0.10200000
v -0.02600000 -0.10200000 -0.09800000
v -0.02600000 -0.09800000 -0.10200000
v -0.02600000 -0.09800000 -0.09800000
v -0.02600000 -0.09400000 -0.10200000
v -0.02600000 -0.09400000 -0.09800000
v -0.02600000 -0.09000000 -0.10200000
v -0.02600000 -0.09000000 -0.09800000
v -0.02600000 -0.08600000 -0.10200000
v -0.02600000 -0.08600000 -0.09800000
v -0.02600000 -0.08200000 -0.10200000
v -0.02600000 -0.08200000 -0.09800000
v -0.02600000 -0.07800000 -0.10200000
v -0.02600000 -0.07800000 -0.09800000
v -0.02600000 -0.07400000 -0.10200000
v -0.02600000 -0.07400000 -0.09800000
v -0.02600000 -0.07000000 -0.10200000
v -0.02600000 -0.07000000 -0.09800000
v -0.02600000 -0.06600000 -0.10200000
v -0.02600000 -0.06600000 -0.09800000
v -0.02600000 -0.06200000 -0.10200000
v -0.02600000 -0.06200000 -0.09800000
v -0.02600000 -0.05800000 -0.10200000
v -0.02600000 -0.05800000 -0.09800000
v -0.02200000 -0.13800000 -0.10200000
v -0.02200000 -0.13800000 -0.09800000
v -0.02200000 -0.13400000 -0.10200000
v -0.02200000 -0.13400000 -0.09800000
v -0.02200000 -0.13000000 -0.10200000
v -0.02200000 -0.13000000 -0.09800000
v -0.02200000 -0.12600000 -0.10200000
v -0.02200000 -0.12600000 -0.09800000
v -0.02200000 -0.12200000 -0.10200000
v -0.02200000 -0.12200000 -0.09800000
v -0.02200000 -0.11800000 -0.10200000
v -0.02200000 -0.11800000 -0.09800000
v -0.02200000 -0.11400000 -0.10200000
v -0.02200000 -0.11400000 -0.09800000
v -0.02200000 -0.11000000 -0.10200000
v -0.02200000 -0.11000000 -0.09800000
v -0.02200000 -0.10600000 -0.10200000
v -0.02200000 -0.10600000 -0.09800000
v -0.02200000 -0.10200000 -0.10200000
v -0.02200000 -0.10200000 -0.09800000
v -0.02200000 -0.09800000 -0.10200000
v -0.02200000 -0.09800000 -0.09800000
v -0.02200000 -0.09400000 -0.10200000
v -0.02200000 -0.09400000 -0.09800000
v -0.02200000 -0.09000000 -0.10200000
v -0.02200000 -0.09000000 -0.09800000
v -0.02200000 -0.08600000 -0.10200000
v -0.02200000 -0.08600000 -0.09800000
v -0.02200000 -0.08200000 -0.10200000
v -0.02200000 -0.08200000 -0.09800000
v -0.02200000 -0.07800000 -0.10200000
v -0.02200000 -0.07800000 -0.09800000
v -0.02200000 -0.07400000 -0.10200000
v -0.02200000 -0.07400000 -0.09800000
v -0.02200000 -0.07000000 -0.10200000
v -0.02200000 -0.07000000 -0.09800000
v -0.02200000 -0.06600000 -0.10200000
v -0.02200000 -0.06600000 -0.09800000
v -0.02200000 -0.06200000 -0.10200000
v -0.02200000 -0.06200000 -0.09800000
v -0.02200000 -0.05800000 -0.10200000
v -0.02200000 -0.05800000 -0.09800000
v -0.01800000 -0.13800000 -0.10200000
v -0.01800000 -0.13800000 -0.09800000
v -0.01800000 -0.13400000 -0.10200000
v -0.01800000 -0.13400000 -0.09800000
v -0.01800000 -0.13000000 -0.10200000
v -0.01800000 -0.13000000 -0.09800000
v -0.01800000 -0.12600000 -0.10200000
v -0.01800000 -0.12600000 -0.09800000
v -0.01800000 -0.12200000 -0.10200000
v -0.01800000 -0.12200000 -0.09800000
v -0.01800000 -0.11800000 -0.10200000
v -0.01800000 -0.11800000 -0.09800000
v -0.01800000 -0.11400000 -0.10200000
v -0.01800000 -0.11400000 -0.09800000
v -0.01800000 -0.11000000 -0.10200000
v -0.01800000 -0.11000000 -0.09800000
v -0.01800000 -0.10600000 -0.10200000
v -0.01800000 -0.10600000 -0.09800000
v -0.01800000 -0.10200000 -0.10200000
v -0.01800000 -0.10200000 -0.09800000
v -0.01800000 -0.09800000 -0.10200000
v -0.01800000 -0.09800000 -0.09800000
v -0.01800000 -0.09400000 -0.10200000
v -0.01800000 -0.09400000 -0.09800000
v -0.01800000 -0.09000000 -0.10200000
v -0.01800000 -0.09000000 -0.09800000
v -0.01800000 -0.08600000 -0.10200000
v -0.01800000 -0.08600000 -0.09800000
v -0.01800000 -0.08200000 -0.10200000
v -0.01800000 -0.08200000 -0.09800000
v -0.01800000 -0.07800000 -0.10200000
v -0.01800000 -0.07800000 -0.09800000
v -0.01800000 -0.07400000 -0.10200000
v -0.01800000 -0.07400000 -0.09800000
v -0.01800000 -0.07000000 -0.10200000
v -0.01800000 -0.07000000 -0.09800000
v -0.01800000 -0.06600000 -0.10200000
v -0.01800000 -0.06600000 -0.09800000
v -0.01800000 -0.06200000 -0.10200000
v -0.01800000 -0.06200000 -0.09800000
v -0.01800000 -0.05800000 -0.10200000
v -0.01800000 -0.05800000 -0.09800000
v -0.01400000 -0.13800000 -0.10200000
v -0.01400000 -0.13800000 -0.09800000
v -0.01400000 -0.13400000 -0.10200000
v -0.01400000 -0.13400000 -0.09800000
v -0.01400000 -0.13000000 -0.10200000
v -0.01400000 -0.13000000 -0.09800000
v -0.01400000 -0.12600000 -0.10200000
v -0.01400000 -0.12600000 -0.09800000
v -0.01400000 -0.12200000 -0.10200000
v -0.01400000 -0.12200000 -0.09800000
v -0.01400000 -0.11800000 -0.10200000
v -0.01400000 -0.11800000 -0.09800000
v -0.01400000 -0.11400000 -0.10200000
v -0.01400000 -0.11400000 -0.09800000
v -0.01400000 -0.11000000 -0.10200000
v -0.01400000 -0.11000000 -0.09800000
v -0.01400000 -0.10600000 -0.10200000
v -0.01400000 -0.10600000 -0.09800000
v -0.01400000 -0.10200000 -0.10200000
v -0.01400000 -0.10200000 -0.09800000
v -0.01400000 -0.09800000 -0.10200000
v -0.01400000 -0.09800000 -0.09800000
v -0.01400000 -0.09400000 -0.10200000
v -0.01400000 -0.09400000 -0.09800000
v -0.01400000 -0.09000000 -0.10200000
v -0.01400000 -0.09000000 -0.09800000
v -0.01400000 -0.08600000 -0.10200000
v -0.01400000 -0.08600000 -0.09800000
v -0.01400000 -0.08200000 -0.10200000
v -0.01400000 -0.08200000 -0.09800000
v -0.01400000 -0.07800000 -0.10200000
v -0.01400000 -0.07800000 -0.09800000
v -0.01400000 -0.07400000 -0.10200000
v -0.01400000 -0.07400000 -0.09800000
v -0.01400000 -0.07000000 -0.10200000
v -0.01400000 -0.07000000 -0.09800000
v -0.01400000 -0.06600000 -0.10200000
v -0.01400000 -0.06600000 -0.09800000
v -0.01400000 -0.06200000 -0.10200000
v -0.01400000 -0.06200000 -0.09800000
v -0.01400000 -0.05800000 -0.10200000
v -0.01400000 -0.05800000 -0.09800000
v -0.01000000 -0.13800000 -0.10200000
v -0.01000000 -0.13800000 -0.09800000
v -0.01000000 -0.13400000 -0.10200000
v -0.01000000 -0.13400000 -0.09800000
v -0.01000000 -0.13000000 -0.10200000
v -0.01000000 -0.13000000 -0.09800000
v -0.01000000 -0.12600000 -0.10200000
v -0.01000000 -0.12600000 -0.09800000
v -0.01000000 -0.12200000 -0.10200000
v -0.01000000 -0.12200000 -0.09800000
v -0.01000000 -0.11800000 -0.10200000
v -0.01000000 -0.11800000 -0.09800000
v -0.01000000 -0.11400000 -0.10200000
v -0.01000000 -0.11400000 -0.09800000
v -0.01000000 -0.11000000 -0.10200000
v -0.01000000 -0.11000000 -0.09800000
v -0.01000000 -0.10600000 -0.10200000
v -0.01000000 -0.10600000 -0.09800000
v -0.01000000 -0.10200000 -0.10200000
v -0.01000000 -0.10200000 -0.09800000
v -0.01000000 -0.09800000 -0.10200000
v -0.01000000 -0.09800000 -0.09800000
v -0.01000000 -0.09400000 -0.10200000
v -0.01000000 -0.09400000 -0.09800000
v -0.01000000 -0.09000000 -0.10200000
v -0.01000000 -0.09000000 -0.09800000
v -0.01000000 -0.08600000 -0.10200000
v -0.01000000 -0.08600000 -0.09800000
v -0.01000000 -0.08200000 -0.10200000
v -0.01000000 -0.08200000 -0.09800000
v -0.01000000 -0.07800000 -0.10200000
v -0.01000000 -0.07800000 -0.09800000
v -0.01000000 -0.07400000 -0.10200000
v -0.01000000 -0.07400000 -0.09800000
v -0.01000000 -0.07000000 -0.10200000
v -0.01000000 -0.07000000 -0.09800000
v -0.01000000 -0.06600000 -0.10200000
v -0.01000000 -0.06600000 -0.09800000
v -0.01000000 -0.06200000 -0.10200000
v -0.01000000 -0.06200000 -0.09800000
v -0.01000000 -0.05800000 -0.10200000
v -0.01000000 -0.05800000 -0.09800000
v -0.00600000 -0.13800000 -0.10200000
v -0.00600000 -0.13800000 -0.09800000
v -0.00600000 -0.13400000 -0.10200000
v -0.00600000 -0.13400000 -0.09800000
v -0.00600000 -0.13000000 -0.10200000
v -0.00600000 -0.13000000 -0.09800000
v -0.00600000 -0.12600000 -0.10200000
v -0.00600000 -0.12600000 -0.09800000
v -0.00600000 -0.12200000 -0.10200000
v -0.00600000 -0.12200000 -0.09800000
v -0.00600000 -0.11800000 -0.10200000
v -0.00600000 -0.11800000 -0.09800000
v -0.00600000 -0.11400000 -0.10200000
v -0.00600000 -0.11400000 -0.09800000
v -0.00600000 -0.11000000 -0.10200000
v -0.00600000 -0.11000000 -0.09800000
v -0.00600000 -0.10600000 -0.10200000
v -0.00600000 -0.10600000 -0.09800000
v -0.00600000 -0.10200000 -0.10200000
v -0.00600000 -0.10200000 -0.09800000
v -0.00600000 -0.09800000 -0.10200000
v -0.00600000 -0.09800000 -0.09800000
v -0.00600000 -0.09400000 -0.10200000
v -0.00600000 -0.09400000 -0.09800000
v -0.00600000 -0.09000000 -0.10200000
v -0.00600000 -0.09000000 -0.09800000
v -0.00600000 -0.08600000 -0.10200000
v -0.00600000 -0.08600000 -0.09800000
v -0.00600000 -0.08200000 -0.10200000
v -0.00600000 -0.08200000 -0.09800000
v -0.00600000 -0.07800000 -0.10200000
v -0.00600000 -0.07800000 -0.09800000
v -0.00600000 -0.07400000 -0.10200000
v -0.00600000 -0.07400000 -0.09800000
v -0.00600000 -0.07000000 -0.10200000
v -0.00600000 -0.07000000 -0.09800000
v -0.00600000 -0.06600000 -0.10200000
v -0.00600000 -0.06600000 -0.09800000
v -0.00600000 -0.06200000 -0.10200000
v -0.00600000 -0.06200000 -0.09800000
v -0.00600000 -0.05800000 -0.10200000
v -0.00600000 -0.05800000 -0.09800000
f 2 4 1
f 5 2 1
f 1 4 3
f 3 5 1
f 2 8 4
f 6 2 5
f 6 8 2
f 7 5 3
f 4 10 3
f 3 10 9
f 9 7 3
f 4 12 10
f 8 12 4
f 11 7 9
f 10 14 9
f 9 14 13
f 13 11 9
f 10 16 14
f 12 16 10
f 15 11 13
f 14 18 13
f 13 18 17
f 17 15 13
f 14 20 18
f 16 20 14
f 19 15 17
f 18 22 17
f 17 22 21
f 21 19 17
f 18 24 22
f 20 24 18
f 23 19 21
f 22 26 21
f 21 26 25
f 25 23 21
f 22 28 26
f 24 28 22
f 27 23 25
f 26 30 25
f 25 30 29
f 29 27 25
f 26 32 30
f 28 32 26
f 31 27 29
f 30 34 29
f 29 34 33
f 33 31 29
f 30 36 34
f 32 36 30
f 35 31 33
f 34 38 33
f 33 38 37
f 37 35 33
f 34 40 38
f 36 40 34
f 39 35 37
f 38 42 37
f 37 42 41
f 41 39 37
f 38 44 42
f 40 44 38
f 43 39 41
f 42 46 41
f 41 46 45
f 45 43 41
f 42 48 46
f 44 48 42
f 47 43 45
f 46 50 45
f 45 50 49
f 49 47 45
f 46 52 50
f 48 52 46
f 51 47 49
f 50 54 49
f 49 54 53
f 53 51 49
f 50 56 54
f 52 56 50
f 55 51 53
f 54 58 53
f 53 58 57
f 57 55 53
f 54 60 58
f 56 60 54
f 59 55 57
f 58 62 57
f 57 62 61
f 61 59 57
f 58 64 62
f 60 64 58
f 63 59 61
f 62 66 61
f 61 66 65
f 65 63 61
f 62 68 66
f 64 68 62
f 67 63 65
f 66 70 65
f 65 70 69
f 69 67 65
f 66 72 70
f 68 72 66
f 71 67 69
f 70 74 69
f 69 74 73
f 73 71 69
f 70 76 74
f 72 76 70
f 75 71 73
f 74 78 73
f 73 78 77
f 77 75 73
f 74 80 78
f 76 80 74
f 79 75 77
f 78 82 77
f 77 82 81
f 81 79 77
f 78 84 82
f 80 84 78
f 82 84 81
f 83 79 81
f 81 84 83
f 85 6 5
f 7 85 5
f 6 88 8
f 86 6 85
f 86 88 6
f 87 85 7
f 11 87 7
f 8 90 12
f 88 90 8
f 89 87 11
f 15 89 11
f 12 92 16
f 90 92 12
f 91 89 15
f 19 91 15
f 16 94 20
f 92 94 16
f 93 91 19
f 23 93 19
f 20 96 24
f 94 96 20
f 95 93 23
f 27 95 23
f 24 98 28
f 96 98 24
f 97 95 27
f 31 97 27
f 28 100 32
f 98 100 28
f 99 97 31
f 35 99 31
f 32 102 36
f 100 102 32
f 101 99 35
f 39 101 35
f 36 104 40
f 102 104 36
f 103 101 39
f 43 103 39
f 40 106 44
f 104 106 40
f 105 103 43
f 47 105 43
f 44 108 48
f 106 108 44
f 107 105 47
f 51 107 47
f 48 110 52
f 108 110 48
f 109 107 51
f 55 109 51
f 52 112 56
f 110 112 52
f 111 109 55
f 59 111 55
f 56 114 60
f 112 114 56
f 113 111 59
f 63 113 59
f 60 116 64
f 114 116 60
f 115 113 63
f 67 115 63
f 64 118 68
f 116 118 64
f 117 115 67
f 71 117 67
f 68 120 72
f 118 120 68
f 119 117 71
f 75 119 71
f 72 122 76
f 120 122 72
f 121 119 75
f 79 121 75
f 76 124 80
f 122 124 76
f 123 121 79
f 83 123 79
f 80 126 84
f 124 126 80
f 84 126 83
f 125 123 83
f 83 126 125
f 127 86 85
f 87 127 85
f 86 130 88
f 128 86 127
f 128 130 86
f 129 127 87
f 89 129 87
f 88 132 90
f 130 132 88
f 131 129 89
f 91 131 89
f 90 134 92
f 132 134 90
f 133 131 91
f 93 133 91
f 92 136 94
f 134 136 92
f 135 133 93
f 95 135 93
f 94 138 96
f 136 138 94
f 137 135 95
f 97 137 95
f 96 140 98
f 138 140 96
f 139 137 97
f 99 139 97
f 98 142 100
f 140 142 98
f 141 139 99
f 101 141 99
f 100 144 102
f 142 144 100
f 143 141 101
f 103 143 101
f 102 146 104
f 144 146 102
f 145 143 103
f 105 145 103
f 104 148 106
f 146 148 104
f 147 145 105
f 107 147 105
f 106 150 108
f 148 150 106
f 149 147 107
f 109 149 107
f 108 152 110
f 150 152 108
f 151 149 109
f 111 151 109
f 110 154 112
f 152 154 110
f 153 151 111
f 113 153 111
f 112 156 114
f 154 156 112
f 155 153 113
f 115 155 113
f 114 158 116
f 156 158 114
f 157 155 115
f 117 157 115
f 116 160 118
f 158 160 116
f 159 157 117
f 119 159 117
f 118 162 120
f 160 162 118
f 161 159 119
f 121 161 119
f 120 164 122
f 162 164 120
f 163 161 121
f 123 163 121
f 122 166 124
f 164 166 122
f 165 163 123
f 125 165 123
f 124 168 126
f 166 168 124
f 126 168 125
f 167 165 125
f 125 168 167
f 169 128 127
f 129 169 127
f 128 172 130
f 170 128 169
f 170 172 128
f 171 169 129
f 131 171 129
f 130 174 132
f 172 174 130
f 173 171 131
f 133 173 131
f 132 176 134
f 174 176 132
f 175 173 133
f 135 175 133
f 134 178 136
f 176 178 134
f 177 175 135
f 137 177 135
f 136 180 138
f 178 180 136
f 179 177 137
f 139 179 137
f 138 182 140
f 180 182 138
f 181 179 139
f 141 181 139
f 140 184 142
f 182 184 140
f 183 181 141
f 143 183 141
f 142 186 144
f 184 186 142
f 185 183 143
f 145 185 143
f 144 188 146
f 186 188 144
f 187 185 145
f 147 187 145
f 146 190 148
f 188 190 146
f 189 187 147
f 149 189 147
f 148 192 150
f 190 192 148
f 191 189 149
f 151 191 149
f 150 194 152
f 192 194 150
f 193 191 151
f 153 193 151
f 152 196 154
f 194 196 152
f 195 193 153
f 155 195 153
f 154 198 156
f 196 198 154
f 197 195 155
f 157 197 155
f 156 200 158
f 198 200 156
f 199 197 157
f 159 199 157
f 158 202 160
f 200 202 158
f 201 199 159
f 161 201 159
f 160 204 162
f 202 204 160
f 203 201 161
f 163 203 161
f 162 206 164
f 204 206 162
f 205 203 163
f 165 205 163
f 164 208 166
f 206 208 164
f 207 205 165
f 167 207 165
f 166 210 168
f 208 210 166
f 168 210 167
f 209 207 167
f 167 210 209
f 211 170 169
f 171 211 169
f 170 214 172
f 212 170 211
f 212 214 170
f 213 211 171
f 173 213 171
f 172 216 174
f 214 216 172
f 215 213 173
f 175 215 173
f 174 218 176
f 216 218 174
f 217 215 175
f 177 217 175
f 176 220 178
f 218 220 176
f 219 217 177
f 179 219 177
f 178 222 180
f 220 222 178
f 221 219 179
f 181 221 179
f 180 224 182
f 222 224 180
f 223 221 181
f 183 223 181
f 182 226 184
f 224 226 182
f 225 223 183
f 185 225 183
f 184 228 186
f 226 228 184
f 227 225 185
f 187 227 185
f 186 230 188
f 228 230 186
f 229 227 187
f 189 229 187
f 188 232 190
f 230 232 188
f 231 229 189
f 191 231 189
f 190 234 192
f 232 234 190
f 233 231 191
f 193 233 191
f 192 236 194
f 234 236 192
f 235 233 193
f 195 235 193
f 194 238 196
f 236 238 194
f 237 235 195
f 197 237 195
f 196 240 198
f 238 240 196
f 239 237 197
f 199 239 197
f 198 242 200
f 240 242 198
f 241 239 199
f 201 241 199
f 200 244 202
f 242 244 200
f 243 241 201
f 203 243 201
f 202 246 204
f 244 246 202
f 245 243 203
f 205 245 203
f 204 248 206
f 246 248 204
f 247 245 205
f 207 247 205
f 206 250 208
f 248 250 206
f 249 247 207
f 209 249 207
f 208 252 210
f 250 252 208
f 210 252 209
f 251 249 209
f 209 252 251
f 253 212 211
f 213 253 211
f 212 256 214
f 254 212 253
f 254 256 212
f 255 253 213
f 215 255 213
f 214 258 216
f 256 258 214
f 257 255 215
f 217 257 215
f 216 260 218
f 258 260 216
f 259 257 217
f 219 259 217
f 218 262 220
f 260 262 218
f 261 259 219
f 221 261 219
f 220 264 222
f 262 264 220
f 263 261 221
f 223 263 221
f 222 266 224
f 264 266 222
f 265 263 223
f 225 265 223
f 224 268 226
f 266 268 224
f 267 265 225
f 227 267 225
f 226 270 228
f 268 270 226
f 269 267 227
f 229 269 227
f 228 272 230
f 270 272 228
f 271 269 229
f 231 271 229
f 230 274 232
f 272 274 230
f 273 271 231
f 233 273 231
f 232 276 234
f 274 276 232
f 275 273 233
f 235 275 233
f 234 278 236
f 276 278 234
f 277 275 235
f 237 277 235
f 236 280 238
f 278 280 236
f 279 277 237
f 239 279 237
f 238 282 240
f 280 282 238
f 281 279 239
f 241 281 239
f 240 284 242
f 282 284 240
f 283 281 241
f 243 283 241
f 242 286 244
f 284 286 242
f 285 283 243
f 245 285 243
f 244 288 246
f 286 288 244
f 287 285 245
f 247 287 245
f 246 290 248
f 288 290 246
f 289 287 247
f 249 289 247
f 248 292 250
f 290 292 248
f 291 289 249
f 251 291 249
f 250 294 252
f 292 294 250
f 252 294 251
f 293 291 251
f 251 294 293
f 295 254 253
f 255 295 253
f 254 298 256
f 296 254 295
f 296 298 254
f 297 295 255
f 257 297 255
f 256 300 258
f 298 300 256
f 299 297 257
f 259 299 257
f 258 302 260
f 300 302 258
f 301 299 259
f 261 301 259
f 260 304 262
f 302 304 260
f 303 301 261
f 263 303 261
f 262 306 264
f 304 306 262
f 305 303 263
f 265 305 263
f 264 308 266
f 306 308 264
f 307 305 265
f 267 307 265
f 266 310 268
f 308 310 266
f 309 307 267
f 269 309 267
f 268 312 270
f 310 312 268
f 311 309 269
f 271 311 269
f 270 314 272
f 312 314 270
f 313 311 271
f 273 313 271
f 272 316 274
f 314 316 272
f 315 313 273
f 275 315 273
f 274 318 276
f 316 318 274
f 317 315 275
f 277 317 275
f 276 320 278
f 318 320 276
f 319 317 277
f 279 319 277
f 278 322 280
f 320 322 278
f 321 319 279
f 281 321 279
f 280 324 282
f 322 324 280
f 323 321 281
f 283 323 281
f 282 326 284
f 324 326 282
f 325 323 283
f 285 325 283
f 284 328 286
f 326 328 284
f 327 325 285
f 287 327 285
f 286 330 288
f 328 330 286
f 329 327 287
f 289 329 287
f 288 332 290
f 330 332 288
f 331 329 289
f 291 331 289
f 290 334 292
f 332 334 290
f 333 331 291
f 293 333 291
f 292 336 294
f 334 336 292
f 294 336 293
f 335 333 293
f 293 336 335
f 337 296 295
f 297 337 295
f 296 340 298
f 338 296 337
f 338 340 296
f 339 337 297
f 299 339 297
f 298 342 300
f 340 342 298
f 341 339 299
f 301 341 299
f 300 344 302
f 342 344 300
f 343 341 301
f 303 343 301
f 302 346 304
f 344 346 302
f 345 343 303
f 305 345 303
f 304 348 306
f 346 348 304
f 347 345 305
f 307 347 305
f 306 350 308
f 348 350 306
f 349 347 307
f 309 349 307
f 308 352 310
f 350 352 308
f 351 349 309
f 311 351 309
f 310 354 312
f 352 354 310
f 353 351 311
f 313 353 311
f 312 356 314
f 354 356 312
f 355 353 313
f 315 355 313
f 314 358 316
f 356 358 314
f 357 355 315
f 317 357 315
f 316 360 318
f 358 360 316
f 359 357 317
f 319 359 317
f 318 362 320
f 360 362 318
f 361 359 319
f 321 361 319
f 320 364 322
f 362 364 320
f 363 361 321
f 323 363 321
f 322 366 324
f 364 366 322
f 365 363 323
f 325 365 323
f 324 368 326
f 366 368 324
f 367 365 325
f 327 367 325
f 326 370 328
f 368 370 326
f 369 367 327
f 329 369 327
f 328 372 330
f 370 372 328
f 371 369 329
f 331 371 329
f 330 374 332
f 372 374 330
f 373 371 331
f 333 373 331
f 332 376 334
f 374 376 332
f 375 373 333
f 335 375 333
f 334 378 336
f 376 378 334
f 336 378 335
f 377 375 335
f 335 378 377
f 379 338 337
f 339 379 337
f 338 382 340
f 380 338 379
f 380 382 338
f 381 379 339
f 341 381 339
f 340 384 342
f 382 384 340
f 383 381 341
f 343 383 341
f 342 386 344
f 384 386 342
f 385 383 343
f 345 385 343
f 344 388 346
f 386 388 344
f 387 385 345
f 347 387 345
f 346 390 348
f 388 390 346
f 389 387 347
f 349 389 347
f 348 392 350
f 390 392 348
f 391 389 349
f 351 391 349
f 350 394 352
f 392 394 350
f 393 391 351
f 353 393 351
f 352 396 354
f 394 396 352
f 395 393 353
f 355 395 353
f 354 398 356
f 396 398 354
f 397 395 355
f 357 397 355
f 356 400 358
f 398 400 356
f 399 397 357
f 359 399 357
f 358 402 360
f 400 402 358
f 401 399 359
f 361 401 359
f 360 404 362
f 402 404 360
f 403 401 361
f 363 403 361
f 362 406 364
f 404 406 362
f 405 403 363
f 365 405 363
f 364 408 366
f 406 408 364
f 407 405 365
f 367 407 365
f 366 410 368
f 408 410 366
f 409 407 367
f 369 409 367
f 368 412 370
f 410 412 368
f 411 409 369
f 371 411 369
f 370 414 372
f 412 414 370
f 413 411 371
f 373 413 371
f 372 416 374
f 414 416 372
f 415 413 373
f 375 415 373
f 374 418 376
f 416 418 374
f 417 415 375
f 377 417 375
f 376 420 378
f 418 420 376
f 378 420 377
f 419 417 377
f 377 420 419
f 421 380 379
f 381 421 379
f 380 424 382
f 422 380 421
f 422 424 380
f 423 421 381
f 383 423 381
f 382 426 384
f 424 426 382
f 425 423 383
f 385 425 383
f 384 428 386
f 426 428 384
f 427 425 385
f 387 427 385
f 386 430 388
f 428 430 386
f 429 427 387
f 389 429 387
f 388 432 390
f 430 432 388
f 431 429 389
f 391 431 389
f 390 434 392
f 432 434 390
f 433 431 391
f 393 433 391
f 392 436 394
f 434 436 392
f 435 433 393
f 395 435 393
f 394 438 396
f 436 438 394
f 437 435 395
f 397 437 395
f 396 440 398
f 438 440 396
f 439 437 397
f 399 439 397
f 398 442 400
f 440 442 398
f 441 439 399
f 401 441 399
f 400 444 402
f 442 444 400
f 443 441 401
f 403 443 401
f 402 446 404
f 444 446 402
f 445 443 403
f 405 445 403
f 404 448 406
f 446 448 404
f 447 445 405
f 407 447 405
f 406 450 408
f 448 450 406
f 449 447 407
f 409 449 407
f 408 452 410
f 450 452 408
f 451 449 409
f 411 451 409
f 410 454 412
f 452 454 410
f 453 451 411
f 413 453 411
f 412 456 414
f 454 456 412
f 455 453 413
f 415 455 413
f 414 458 416
f 456 458 414
f 457 455 415
f 417 457 415
f 416 460 418
f 458 460 416
f 459 457 417
f 419 459 417
f 418 462 420
f 460 462 418
f 420 462 419
f 461 459 419
f 419 462 461
f 463 422 421
f 423 463 421
f 422 466 424
f 464 422 463
f 464 466 422
f 465 463 423
f 425 465 423
f 424 468 426
f 466 468 424
f 467 465 425
f 427 467 425
f 426 470 428
f 468 470 426
f 469 467 427
f 429 469 427
f 428 472 430
f 470 472 428
f 471 469 429
f 431 471 429
f 430 474 432
f 472 474 430
f 473 471 431
f 433 473 431
f 432 476 434
f 474 476 432
f 475 473 433
f 435 475 433
f 434 478 436
f 476 478 434
f 477 475 435
f 437 477 435
f 436 480 438
f 478 480 436
f 479 477 437
f 439 479 437
f 438 482 440
f 480 482 438
f 481 479 439
f 441 481 439
f 440 484 442
f 482 484 440
f 483 481 441
f 443 483 441
f 442 486 444
f 484 486 442
f 485 483 443
f 445 485 443
f 444 488 446
f 486 488 444
f 487 485 445
f 447 487 445
f 446 490 448
f 488 490 446
f 489 487 447
f 449 489 447
f 448 492 450
f 490 492 448
f 491 489 449
f 451 491 449
f 450 494 452
f 492 494 450
f 493 491 451
f 453 493 451
f 452 496 454
f 494 496 452
f 495 493 453
f 455 495 453
f 454 498 456
f 496 498 454
f 497 495 455
f 457 497 455
f 456 500 458
f 498 500 456
f 499 497 457
f 459 499 457
f 458 502 460
f 500 502 458
f 501 499 459
f 461 501 459
f 460 504 462
f 502 504 460
f 462 504 461
f 503 501 461
f 461 504 503
f 505 464 463
f 465 505 463
f 464 508 466
f 506 464 505
f 506 508 464
f 507 505 465
f 467 507 465
f 466 510 468
f 508 510 466
f 509 507 467
f 469 509 467
f 468 512 470
f 510 512 468
f 511 509 469
f 471 511 469
f 470 514 472
f 512 514 470
f 513 511 471
f 473 513 471
f 472 516 474
f 514 516 472
f 515 513 473
f 475 515 473
f 474 518 476
f 516 518 474
f 517 515 475
f 477 517 475
f 476 520 478
f 518 520 476
f 519 517 477
f 479 519 477
f 478 522 480
f 520 522 478
f 521 519 479
f 481 521 479
f 480 524 482
f 522 524 480
f 523 521 481
f 483 523 481
f 482 526 484
f 524 526 482
f 525 523 483
f 485 525 483
f 484 528 486
f 526 528 484
f 527 525 485
f 487 527 485
f 486 530 488
f 528 530 486
f 529 527 487
f 489 529 487
f 488 532 490
f 530 532 488
f 531 529 489
f 491 531 489
f 490 534 492
f 532 534 490
f 533 531 491
f 493 533 491
f 492 536 494
f 534 536 492
f 535 533 493
f 495 535 493
f 494 538 496
f 536 538 494
f 537 535 495
f 497 537 495
f 496 540 498
f 538 540 496
f 539 537 497
f 499 539 497
f 498 542 500
f 540 542 498
f 541 539 499
f 501 541 499
f 500 544 502
f 542 544 500
f 543 541 501
f 503 543 501
f 502 546 504
f 544 546 502
f 504 546 503
f 545 543 503
f 503 546 545
f 547 506 505
f 507 547 505
f 506 550 508
f 548 506 547
f 548 550 506
f 549 547 507
f 509 549 507
f 508 552 510
f 550 552 508
f 551 549 509
f 511 551 509
f 510 554 512
f 552 554 510
f 553 551 511
f 513 553 511
f 512 556 514
f 554 556 512
f 555 553 513
f 515 555 513
f 514 558 516
f 556 558 514
f 557 555 515
f 517 557 515
f 516 560 518
f 558 560 516
f 559 557 517
f 519 559 517
f 518 562 520
f 560 562 518
f 561 559 519
f 521 561 519
f 520 564 522
f 562 564 520
f 563 561 521
f 523 563 521
f 522 566 524
f 564 566 522
f 565 563 523
f 525 565 523
f 524 568 526
f 566 568 524
f 567 565 525
f 527 567 525
f 526 570 528
f 568 570 526
f 569 567 527
f 529 569 527
f 528 572 530
f 570 572 528
f 571 569 529
f 531 571 529
f 530 574 532
f 572 574 530
f 573 571 531
f 533 573 531
f 532 576 534
f 574 576 532
f 575 573 533
f 535 575 533
f 534 578 536
f 576 578 534
f 577 575 535
f 537 577 535
f 536 580 538
f 578 580 536
f 579 577 537
f 539 579 537
f 538 582 540
f 580 582 538
f 581 579 539
f 541 581 539
f 540 584 542
f 582 584 540
f 583 581 541
f 543 583 541
f 542 586 544
f 584 586 542
f 585 583 543
f 545 585 543
f 544 588 546
f 586 588 544
f 546 588 545
f 587 585 545
f 545 588 587
f 589 548 547
f 549 589 547
f 548 592 550
f 590 548 589
f 590 592 548
f 591 589 549
f 551 591 549
f 550 594 552
f 592 594 550
f 593 591 551
f 553 593 551
f 552 596 554
f 594 596 552
f 595 593 553
f 555 595 553
f 554 598 556
f 596 598 554
f 597 595 555
f 557 597 555
f 556 600 558
f 598 600 556
f 599 597 557
f 559 599 557
f 558 602 560
f 600 602 558
f 601 599 559
f 561 601 559
f 560 604 562
f 602 604 560
f 603 601 561
f 563 603 561
f 562 606 564
f 604 606 562
f 605 603 563
f 565 605 563
f 564 608 566
f 606 608 564
f 607 605 565
f 567 607 565
f 566 610 568
f 608 610 566
f 609 607 567
f 569 609 567
f 568 612 570
f 610 612 568
f 611 609 569
f 571 611 569
f 570 614 572
f 612 614 570
f 613 611 571
f 573 613 571
f 572 616 574
f 614 616 572
f 615 613 573
f 575 615 573
f 574 618 576
f 616 618 574
f 617 615 575
f 577 617 575
f 576 620 578
f 618 620 576
f 619 617 577
f 579 619 577
f 578 622 580
f 620 622 578
f 621 619 579
f 581 621 579
f 580 624 582
f 622 624 580
f 623 621 581
f 583 623 581
f 582 626 584
f 624 626 582
f 625 623 583
f 585 625 583
f 584 628 586
f 626 628 584
f 627 625 585
f 587 627 585
f 586 630 588
f 628 630 586
f 588 630 587
f 629 627 587
f 587 630 629
f 631 590 589
f 591 631 589
f 590 634 592
f 632 590 631
f 632 634 590
f 633 631 591
f 593 633 591
f 592 636 594
f 634 636 592
f 635 633 593
f 595 635 593
f 594 638 596
f 636 638 594
f 637 635 595
f 597 637 595
f 596 640 598
f 638 640 596
f 639 637 597
f 599 639 597
f 598 642 600
f 640 642 598
f 641 639 599
f 601 641 599
f 600 644 602
f 642 644 600
f 643 641 601
f 603 643 601
f 602 646 604
f 644 646 602
f 645 643 603
f 605 645 603
f 604 648 606
f 646 648 604
f 647 645 605
f 607 647 605
f 606 650 608
f 648 650 606
f 649 647 607
f 609 649 607
f 608 652 610
f 650 652 608
f 651 649 609
f 611 651 609
f 610 654 612
f 652 654 610
f 653 651 611
f 613 653 611
f 612 656 614
f 654 656 612
f 655 653 613
f 615 655 613
f 614 658 616
f 656 658 614
f 657 655 615
f 617 657 615
f 616 660 618
f 658 660 616
f 659 657 617
f 619 659 617
f 618 662 620
f 660 662 618
f 661 659 619
f 621 661 619
f 620 664 622
f 662 664 620
f 663 661 621
f 623 663 621
f 622 666 624
f 664 666 622
f 665 663 623
f 625 665 623
f 624 668 626
f 666 668 624
f 667 665 625
f 627 667 625
f 626 670 628
f 668 670 626
f 669 667 627
f 629 669 627
f 628 672 630
f 670 672 628
f 630 672 629
f 671 669 629
f 629 672 671
f 673 632 631
f 633 673 631
f 632 676 634
f 674 632 673
f 674 676 632
f 675 673 633
f 635 675 633
f 634 678 636
f 676 678 634
f 677 675 635
f 637 677 635
f 636 680 638
f 678 680 636
f 679 677 637
f 639 679 637
f 638 682 640
f 680 682 638
f 681 679 639
f 641 681 639
f 640 684 642
f 682 684 640
f 683 681 641
f 643 683 641
f 642 686 644
f 684 686 642
f 685 683 643
f 645 685 643
f 644 688 646
f 686 688 644
f 687 685 645
f 647 687 645
f 646 690 648
f 688 690 646
f 689 687 647
f 649 689 647
f 648 692 650
f 690 692 648
f 691 689 649
f 651 691 649
f 650 694 652
f 692 694 650
f 693 691 651
f 653 693 651
f 652 696 654
f 694 696 652
f 695 693 653
f 655 695 653
f 654 698 656
f 696 698 654
f 697 695 655
f 657 697 655
f 656 700 658
f 698 700 656
f 699 697 657
f 659 699 657
f 658 702 660
f 700 702 658
f 701 699 659
f 661 701 659
f 660 704 662
f 702 704 660
f 703 701 661
f 663 703 661
f 662 706 664
f 704 706 662
f 705 703 663
f 665 705 663
f 664 708 666
f 706 708 664
f 707 705 665
f 667 707 665
f 666 710 668
f 708 710 666
f 709 707 667
f 669 709 667
f 668 712 670
f 710 712 668
f 711 709 669
f 671 711 669
f 670 714 672
f 712 714 670
f 672 714 671
f 713 711 671
f 671 714 713
f 715 674 673
f 675 715 673
f 674 718 676
f 716 674 715
f 716 718 674
f 717 715 675
f 677 717 675
f 676 720 678
f 718 720 676
f 719 717 677
f 679 719 677
f 678 722 680
f 720 722 678
f 721 719 679
f 681 721 679
f 680 724 682
f 722 724 680
f 723 721 681
f 683 723 681
f 682 726 684
f 724 726 682
f 725 723 683
f 685 725 683
f 684 728 686
f 726 728 684
f 727 725 685
f 687 727 685
f 686 730 688
f 728 730 686
f 729 727 687
f 689 729 687
f 688 732 690
f 730 732 688
f 731 729 689
f 691 731 689
f 690 734 692
f 732 734 690
f 733 731 691
f 693 733 691
f 692 736 694
f 734 736 692
f 735 733 693
f 695 735 693
f 694 738 696
f 736 738 694
f 737 735 695
f 697 737 695
f 696 740 698
f 738 740 696
f 739 737 697
f 699 739 697
f 698 742 700
f 740 742 698
f 741 739 699
f 701 741 699
f 700 744 702
f 742 744 700
f 743 741 701
f 703 743 701
f 702 746 704
f 744 746 702
f 745 743 703
f 705 745 703
f 704 748 706
f 746 748 704
f 747 745 705
f 707 747 705
f 706 750 708
f 748 750 706
f 749 747 707
f 709 749 707
f 708 752 710
f 750 752 708
f 751 749 709
f 711 751 709
f 710 754 712
f 752 754 710
f 753 751 711
f 713 753 711
f 712 756 714
f 754 756 712
f 714 756 713
f 755 753 713
f 713 756 755
f 757 716 715
f 717 757 715
f 716 760 718
f 758 716 757
f 758 760 716
f 759 757 717
f 719 759 717
f 718 762 720
f 760 762 718
f 761 759 719
f 721 761 719
f 720 764 722
f 762 764 720
f 763 761 721
f 723 763 721
f 722 766 724
f 764 766 722
f 765 763 723
f 725 765 723
f 724 768 726
f 766 768 724
f 767 765 725
f 727 767 725
f 726 770 728
f 768 770 726
f 769 767 727
f 729 769 727
f 728 772 730
f 770 772 728
f 771 769 729
f 731 771 729
f 730 774 732
f 772 774 730
f 773 771 731
f 733 773 731
f 732 776 734
f 774 776 732
f 775 773 733
f 735 775 733
f 734 778 736
f 776 778 734
f 777 775 735
f 737 777 735
f 736 780 738
f 778 780 736
f 779 777 737
f 739 779 737
f 738 782 740
f 780 782 738
f 781 779 739
f 741 781 739
f 740 784 742
f 782 784 740
f 783 781 741
f 743 783 741
f 742 786 744
f 784 786 742
f 785 783 743
f 745 785 743
f 744 788 746
f 786 788 744
f 787 785 745
f 747 787 745
f 746 790 748
f 788 790 746
f 789 787 747
f 749 789 747
f 748 792 750
f 790 792 748
f 791 789 749
f 751 791 749
f 750 794 752
f 792 794 750
f 793 791 751
f 753 793 751
f 752 796 754
f 794 796 752
f 795 793 753
f 755 795 753
f 754 798 756
f 796 798 754
f 756 798 755
f 797 795 755
f 755 798 797
f 799 758 757
f 759 799 757
f 758 802 760
f 800 758 799
f 800 802 758
f 801 799 759
f 761 801 759
f 760 804 762
f 802 804 760
f 803 801 761
f 763 803 761
f 762 806 764
f 804 806 762
f 805 803 763
f 765 805 763
f 764 808 766
f 806 808 764
f 807 805 765
f 767 807 765
f 766 810 768
f 808 810 766
f 809 807 767
f 769 809 767
f 768 812 770
f 810 812 768
f 811 809 769
f 771 811 769
f 770 814 772
f 812 814 770
f 813 811 771
f 773 813 771
f 772 816 774
f 814 816 772
f 815 813 773
f 775 815 773
f 774 818 776
f 816 818 774
f 817 815 775
f 777 817 775
f 776 820 778
f 818 820 776
f 819 817 777
f 779 819 777
f 778 822 780
f 820 822 778
f 821 819 779
f 781 821 779
f 780 824 782
f 822 824 780
f 823 821 781
f 783 823 781
f 782 826 784
f 824 826 782
f 825 823 783
f 785 825 783
f 784 828 786
f 826 828 784
f 827 825 785
f 787 827 785
f 786 830 788
f 828 830 786
f 829 827 787
f 789 829 787
f 788 832 790
f 830 832 788
f 831 829 789
f 791 831 789
f 790 834 792
f 832 834 790
f 833 831 791
f 793 833 791
f 792 836 794
f 834 836 792
f 835 833 793
f 795 835 793
f 794 838 796
f 836 838 794
f 837 835 795
f 797 837 795
f 796 840 798
f 838 840 796
f 798 840 797
f 839 837 797
f 797 840 839
f 841 800 799
f 801 841 799
f 800 844 802
f 842 800 841
f 842 844 800
f 843 841 801
f 843 842 841
f 844 842 843
f 803 843 801
f 802 846 804
f 844 846 802
f 845 843 803
f 845 844 843
f 846 844 845
f 805 845 803
f 804 848 806
f 846 848 804
f 847 845 805
f 847 846 845
f 848 846 847
f 807 847 805
f 806 850 808
f 848 850 806
f 849 847 807
f 849 848 847
f 850 848 849
f 809 849 807
f 808 852 810
f 850 852 808
f 851 849 809
f 851 850 849
f 852 850 851
f 811 851 809
f 810 854 812
f 852 854 810
f 853 851 811
f 853 852 851
f 854 852 853
f 813 853 811
f 812 856 814
f 854 856 812
f 855 853 813
f 855 854 853
f 856 854 855
f 815 855 813
f 814 858 816
f 856 858 814
f 857 855 815
f 857 856 855
f 858 856 857
f 817 857 815
f 816 860 818
f 858 860 816
f 859 857 817
f 859 858 857
f 860 858 859
f 819 859 817
f 818 862 820
f 860 862 818
f 861 859 819
f 861 860 859
f 862 860 861
f 821 861 819
f 820 864 822
f 862 864 820
f 863 861 821
f 863 862 861
f 864 862 863
f 823 863 821
f 822 866 824
f 864 866 822
f 865 863 823
f 865 864 863
f 866 864 865
f 825 865 823
f 824 868 826
f 866 868 824
f 867 865 825
f 867 866 865
f 868 866 867
f 827 867 825
f 826 870 828
f 868 870 826
f 869 867 827
f 869 868 867
f 870 868 869
f 829 869 827
f 828 872 830
f 870 872 828
f 871 869 829
f 871 870 869
f 872 870 871
f 831 871 829
f 830 874 832
f 872 874 830
f 873 871 831
f 873 872 871
f 874 872 873
f 833 873 831
f 832 876 834
f 874 876 832
f 875 873 833
f 875 874 873
f 876 874 875
f 835 875 833
f 834 878 836
f 876 878 834
f 877 875 835
f 877 876 875
f 878 876 877
f 837 877 835
f 836 880 838
f 878 880 836
f 879 877 837
f 879 878 877
f 880 878 879
f 839 879 837
f 838 882 840
f 880 882 838
f 840 882 839
f 881 879 839
f 839 882 881
f 881 880 879
f 882 880 881

