# https://github.com/mikedh/trimesh
v -0.50000000 -0.21153812 0.36217887
v 0.50000000 -0.07051246 0.36217887
v 0.50000000 -0.21153812 0.36217887
v -0.50000000 -0.07051246 0.36217887
v 0.50000000 -0.21153812 0.38140982
v -0.50000000 -0.07051246 0.38140982
v 0.50000000 -0.07051246 0.38140982
v -0.50000000 -0.21153812 0.38140982
v 0.50000000 0.07051320 0.36217887
v -0.50000000 0.07051320 0.36217887
v -0.50000000 0.07051320 0.38140982
v 0.50000000 0.07051320 0.38140982
v 0.50000000 0.21153812 0.36217887
v -0.50000000 0.21153812 0.36217887
v -0.50000000 0.21153812 0.38140982
v 0.50000000 0.21153812 0.38140982
v 0.39102566 0.09765168 -0.38140982
v 0.43589736 0.14252338 -0.38140982
v 0.43589736 0.09765168 -0.38140982
v 0.39102566 0.14252338 -0.38140982
v 0.43589736 0.09765168 0.36217887
v 0.39102566 0.14252338 0.36217887
v 0.43589736 0.14252338 0.36217887
v 0.39102566 0.09765168 0.36217887
v -0.43589661 0.09765168 -0.38140982
v -0.39102491 0.14252338 -0.38140982
v -0.39102491 0.09765168 -0.38140982
v -0.43589661 0.14252338 -0.38140982
v -0.39102491 0.09765168 0.36217887
v -0.43589661 0.14252338 0.36217887
v -0.39102491 0.14252338 0.36217887
v -0.43589661 0.09765168 0.36217887
v -0.43589661 -0.13954365 -0.38140982
v -0.43589661 -0.09467195 -0.38140982
v -0.39102491 -0.13954365 -0.38140982
v -0.43589661 -0.13954365 0.36217887
v -0.39102491 -0.09467195 -0.38140982
v -0.43589661 -0.09467195 0.36217887
v -0.39102491 -0.09467195 0.36217887
v -0.39102491 -0.13954365 0.36217887
v 0.39102566 -0.13954365 -0.38140982
v 0.39102566 -0.09467195 -0.38140982
v 0.43589736 -0.13954365 -0.38140982
v 0.39102566 -0.13954365 0.36217887
v 0.43589736 -0.09467195 -0.38140982
v 0.39102566 -0.09467195 0.36217887
v 0.43589736 -0.09467195 0.36217887
v 0.43589736 -0.13954365 0.36217887
v 0.40705095 0.10217102 0.36217887
v 0.42628189 -0.09013690 0.36217887
v 0.42628189 0.10217102 0.36217887
v 0.40705095 -0.09013690 0.36217887
v 0.42628189 0.10217102 0.27243548
v 0.40705095 -0.09013690 0.27243548
v 0.42628189 -0.09013690 0.27243548
v 0.40705095 0.10217102 0.27243548
v -0.39102491 -0.12351837 0.27243548
v 0.39102566 -0.12351837 0.27243548
v -0.39102491 -0.12351837 0.36217887
v -0.39102491 -0.10428742 0.27243548
v 0.39102566 -0.12351837 0.36217887
v 0.39102566 -0.10428742 0.27243548
v 0.39102566 -0.10428742 0.36217887
v -0.39102491 -0.10428742 0.36217887
v -0.42628114 0.09763597 0.36217887
v -0.40705095 -0.09467195 0.36217887
v -0.40705095 0.09763597 0.36217887
v -0.42628114 -0.09467195 0.36217887
v -0.40705095 0.09763597 0.27243548
v -0.42628114 -0.09467195 0.27243548
v -0.40705095 -0.09467195 0.27243548
v -0.42628114 0.09763597 0.27243548
v 0.39102566 0.11367771 0.36217887
v -0.39102491 0.11367771 0.27243548
v 0.39102566 0.11367771 0.27243548
v -0.39102491 0.11367771 0.36217887
v 0.39102566 0.13290791 0.27243548
v -0.39102491 0.13290791 0.36217887
v -0.39102491 0.13290791 0.27243548
v 0.39102566 0.13290791 0.36217887
f 1 2 3
f 2 1 4
f 3 2 1
f 4 1 2
f 2 5 3
f 3 5 2
f 5 1 3
f 3 1 5
f 1 6 4
f 4 6 1
f 6 2 4
f 4 2 6
f 5 2 7
f 7 2 5
f 1 5 8
f 8 5 1
f 6 1 8
f 8 1 6
f 2 6 7
f 7 6 2
f 6 5 7
f 7 5 6
f 5 6 8
f 8 6 5
f 4 9 2
f 9 4 10
f 2 9 4
f 10 4 9
f 9 7 2
f 2 7 9
f 7 4 2
f 2 4 7
f 4 11 10
f 10 11 4
f 11 9 10
f 10 9 11
f 7 9 12
f 12 9 7
f 4 7 6
f 6 7 4
f 11 4 6
f 6 4 11
f 9 11 12
f 12 11 9
f 11 7 12
f 12 7 11
f 7 11 6
f 6 11 7
f 10 13 9
f 13 10 14
f 9 13 10
f 14 10 13
f 13 12 9
f 9 12 13
f 12 10 9
f 9 10 12
f 10 15 14
f 14 15 10
f 15 13 14
f 14 13 15
f 12 13 16
f 16 13 12
f 10 12 11
f 11 12 10
f 15 10 11
f 11 10 15
f 13 15 16
f 16 15 13
f 15 12 16
f 16 12 15
f 12 15 11
f 11 15 12
f 17 18 19
f 18 17 20
f 19 18 17
f 20 17 18
f 18 21 19
f 19 21 18
f 21 17 19
f 19 17 21
f 17 22 20
f 20 22 17
f 22 18 20
f 20 18 22
f 21 18 23
f 23 18 21
f 17 21 24
f 24 21 17
f 22 17 24
f 24 17 22
f 18 22 23
f 23 22 18
f 22 21 23
f 23 21 22
f 21 22 24
f 24 22 21
f 25 26 27
f 26 25 28
f 27 26 25
f 28 25 26
f 26 29 27
f 27 29 26
f 29 25 27
f 27 25 29
f 25 30 28
f 28 30 25
f 30 26 28
f 28 26 30
f 29 26 31
f 31 26 29
f 25 29 32
f 32 29 25
f 30 25 32
f 32 25 30
f 26 30 31
f 31 30 26
f 30 29 31
f 31 29 30
f 29 30 32
f 32 30 29
f 33 34 35
f 35 34 33
f 33 36 34
f 34 36 33
f 37 35 34
f 34 35 37
f 33 35 36
f 36 35 33
f 38 34 36
f 36 34 38
f 37 39 35
f 35 39 37
f 37 34 39
f 39 34 37
f 40 36 35
f 35 36 40
f 38 39 34
f 34 39 38
f 38 36 39
f 39 36 38
f 40 35 39
f 39 35 40
f 40 39 36
f 36 39 40
f 41 42 43
f 43 42 41
f 41 44 42
f 42 44 41
f 45 43 42
f 42 43 45
f 41 43 44
f 44 43 41
f 46 42 44
f 44 42 46
f 45 47 43
f 43 47 45
f 45 42 47
f 47 42 45
f 48 44 43
f 43 44 48
f 46 47 42
f 42 47 46
f 46 44 47
f 47 44 46
f 48 43 47
f 47 43 48
f 48 47 44
f 44 47 48
f 49 50 51
f 50 49 52
f 51 50 49
f 52 49 50
f 50 53 51
f 51 53 50
f 53 49 51
f 51 49 53
f 49 54 52
f 52 54 49
f 54 50 52
f 52 50 54
f 53 50 55
f 55 50 53
f 49 53 56
f 56 53 49
f 54 49 56
f 56 49 54
f 50 54 55
f 55 54 50
f 54 53 55
f 55 53 54
f 53 54 56
f 56 54 53
f 57 58 59
f 59 58 57
f 57 60 58
f 58 60 57
f 61 59 58
f 58 59 61
f 57 59 60
f 60 59 57
f 62 58 60
f 60 58 62
f 61 63 59
f 59 63 61
f 61 58 63
f 63 58 61
f 64 60 59
f 59 60 64
f 62 63 58
f 58 63 62
f 62 60 63
f 63 60 62
f 64 59 63
f 63 59 64
f 64 63 60
f 60 63 64
f 65 66 67
f 66 65 68
f 67 66 65
f 68 65 66
f 66 69 67
f 67 69 66
f 69 65 67
f 67 65 69
f 65 70 68
f 68 70 65
f 70 66 68
f 68 66 70
f 69 66 71
f 71 66 69
f 65 69 72
f 72 69 65
f 70 65 72
f 72 65 70
f 66 70 71
f 71 70 66
f 70 69 71
f 71 69 70
f 69 70 72
f 72 70 69
f 73 74 75
f 74 73 76
f 75 74 73
f 76 73 74
f 74 77 75
f 75 77 74
f 77 73 75
f 75 73 77
f 73 78 76
f 76 78 73
f 78 74 76
f 76 74 78
f 77 74 79
f 79 74 77
f 73 77 80
f 80 77 73
f 78 73 80
f 80 73 78
f 74 78 79
f 79 78 74
f 78 77 79
f 79 77 78
f 77 78 80
f 80 78 77

