# https://github.com/mikedh/trimesh
v -0.00000028 0.34999986 0.23127465
v 0.39999972 -0.34999986 0.23127465
v -0.00000028 -0.34999986 0.23127465
v 0.50000000 -0.25000014 0.23127465
v -0.00000028 -0.34999986 0.24377483
v 0.50000000 0.24999958 0.23127465
v 0.39999972 -0.34999986 0.24377483
v -0.00000028 0.34999986 0.24377483
v 0.39999972 0.34999986 0.23127465
v 0.50000000 0.24999958 0.24377483
v 0.50000000 -0.25000014 0.24377483
v 0.39999972 0.34999986 0.24377483
v -0.39999972 -0.34999986 0.23127465
v -0.50000000 -0.25000014 0.23127465
v -0.39999972 -0.34999986 0.24377483
v -0.50000000 0.24999958 0.23127465
v -0.50000000 -0.25000014 0.24377483
v -0.39999972 0.34999986 0.23127465
v -0.50000000 0.24999958 0.24377483
v -0.39999972 0.34999986 0.24377483
v 0.19583318 0.05519649 -0.17754095
v 0.19583318 0.05000014 -0.10210804
v 0.19583318 0.05000014 -0.17710797
v 0.19583318 0.05571224 -0.10280566
v 0.17083339 0.05000014 -0.17710797
v 0.19583318 0.05915583 -0.17807528
v 0.17083339 0.05571224 -0.10280566
v 0.17083339 0.05000014 -0.10210804
v 0.17083339 0.05519649 -0.17754095
v 0.19583318 0.06135846 -0.10392049
v 0.17083339 0.05915583 -0.17807528
v 0.19583318 0.06367652 -0.17895476
v 0.17083339 0.06135846 -0.10392049
v 0.19583318 0.06690727 -0.10544690
v 0.17083339 0.06690727 -0.10544690
v 0.17083339 0.06367652 -0.17895476
v 0.19583318 0.06813866 -0.18009380
v 0.17083339 0.06813866 -0.18009380
v 0.19583318 0.07232884 -0.10737702
v 0.17083339 0.07232884 -0.10737702
v 0.19583318 0.07252760 -0.18148959
v 0.17083339 0.07252760 -0.18148959
v 0.19583318 0.07759444 -0.10969959
v 0.17083339 0.07759444 -0.10969959
v 0.17083339 0.07682814 -0.18313707
v 0.19583318 0.07682814 -0.18313707
v 0.19583318 0.08102621 -0.18503115
v 0.17083339 0.08267480 -0.11240277
v 0.17083339 0.08102621 -0.18503115
v 0.19583318 0.08267480 -0.11240277
v 0.19583318 0.08510772 -0.18716453
v 0.19583318 0.08754346 -0.11547137
v 0.17083339 0.08510772 -0.18716453
v 0.17083339 0.08754346 -0.11547137
v 0.17083339 0.08905862 -0.18953045
v 0.19583318 0.08905862 -0.18953045
v 0.17083339 0.09217338 -0.11888905
v 0.19583318 0.09217338 -0.11888905
v 0.19583318 0.09286593 -0.19212102
v 0.17083339 0.09653980 -0.12263781
v 0.17083339 0.09286593 -0.19212102
v 0.19583318 0.09653980 -0.12263781
v 0.17083339 0.09651728 -0.19492780
v 0.19583318 0.09651728 -0.19492780
v 0.19583318 0.10061963 -0.12669737
v 0.19583318 0.09999972 -0.19794122
v 0.17083339 0.10061963 -0.12669737
v 0.17083339 0.09999972 -0.19794122
v 0.17083339 0.10438979 -0.13104465
v 0.19583318 0.10420511 -0.20285661
v 0.19583318 0.10438979 -0.13104465
v 0.17083339 0.10420511 -0.20285661
v 0.17083339 0.10783112 -0.13565768
v 0.17083339 0.10873481 -0.20747359
v 0.19583318 0.10873481 -0.20747359
v 0.19583318 0.10783112 -0.13565768
v 0.17083339 0.11102640 -0.14028760
v 0.17083339 0.11356856 -0.21177188
v 0.19583318 0.11102640 -0.14028760
v 0.19583318 0.11356856 -0.21177188
v 0.17083339 0.11749355 -0.14828398
v 0.19583318 0.11868382 -0.21573121
v 0.19583318 0.11749355 -0.14828398
v 0.17083339 0.11868382 -0.21573121
v 0.17083339 0.12454738 -0.15576798
v 0.17083339 0.12405641 -0.21933245
v 0.19583318 0.12454738 -0.15576798
v 0.19583318 0.12405641 -0.21933245
v 0.19583318 0.13214850 -0.16269626
v 0.17083339 0.12966209 -0.22256039
v 0.19583318 0.12966209 -0.22256039
v 0.17083339 0.13214850 -0.16269626
v 0.17083339 0.14025241 -0.16902827
v 0.19583318 0.13547441 -0.22539814
v 0.17083339 0.13547441 -0.22539814
v 0.19583318 0.14025241 -0.16902827
v 0.17083339 0.14881240 -0.17472854
v 0.17083339 0.14146634 -0.22783444
v 0.19583318 0.14146634 -0.22783444
v 0.19583318 0.14881240 -0.17472854
v 0.17083339 0.15778002 -0.17976330
v 0.17083339 0.14761029 -0.22985690
v 0.19583318 0.14761029 -0.22985690
v 0.19583318 0.15778002 -0.17976330
v 0.17083339 0.15387812 -0.23145595
v 0.19583318 0.15387812 -0.23145595
v 0.19583318 0.16710350 -0.18410438
v 0.17083339 0.15658862 -0.23195425
v 0.19583318 0.15658862 -0.23195425
v 0.17083339 0.16710350 -0.18410438
v 0.19583318 0.17499965 -0.23544119
v 0.17083339 0.17499965 -0.23544119
v 0.17083339 0.17672876 -0.18772701
v 0.19583318 0.17672876 -0.18772701
v 0.19583318 0.18333329 -0.24377483
v 0.17083339 0.18660120 -0.19060981
v 0.17083339 0.18333329 -0.24377483
v 0.19583318 0.18660120 -0.19060981
v 0.19583318 0.23333343 -0.24377483
v 0.19583318 0.18932860 -0.19118580
v 0.17083339 0.23333343 -0.24377483
v 0.17083339 0.18932860 -0.19118580
v 0.19583318 0.19666339 -0.19273643
v 0.17083339 0.23313974 -0.23701659
v 0.17083339 0.19666339 -0.19273643
v 0.19583318 0.20300666 -0.19507588
v 0.19583318 0.23313974 -0.23701659
v 0.17083339 0.23205757 -0.23034281
v 0.17083339 0.20300666 -0.19507588
v 0.19583318 0.20898621 -0.19823063
v 0.19583318 0.23205757 -0.23034281
v 0.17083339 0.23010661 -0.22386947
v 0.17083339 0.20898621 -0.19823063
v 0.19583318 0.21449842 -0.20214549
v 0.19583318 0.23010661 -0.22386947
v 0.17083339 0.22731954 -0.21770976
v 0.17083339 0.21449842 -0.20214549
v 0.19583318 0.21944703 -0.20675232
v 0.19583318 0.22731954 -0.21770976
v 0.17083339 0.22374532 -0.21197063
v 0.17083339 0.21944703 -0.20675232
v 0.19583318 0.22374532 -0.21197063
v 0.23853006 -0.01250018 -0.17754095
v 0.23333315 -0.01250018 -0.10210861
v 0.23333315 -0.01250018 -0.17710854
v 0.23904581 -0.01250018 -0.10280566
v 0.23333315 0.01250018 -0.17710854
v 0.24248939 -0.01250018 -0.17807585
v 0.23904581 0.01250018 -0.10280566
v 0.23333315 0.01250018 -0.10210861
v 0.23853006 0.01250018 -0.17754095
v 0.24469147 -0.01250018 -0.10392105
v 0.24248939 0.01250018 -0.17807585
v 0.24700952 -0.01250018 -0.17895476
v 0.24469147 0.01250018 -0.10392105
v 0.25024028 -0.01250018 -0.10544747
v 0.25024028 0.01250018 -0.10544747
v 0.24700952 0.01250018 -0.17895476
v 0.25147222 -0.01250018 -0.18009437
v 0.25147222 0.01250018 -0.18009437
v 0.25566241 -0.01250018 -0.10737702
v 0.25566241 0.01250018 -0.10737702
v 0.25586060 -0.01250018 -0.18149016
v 0.25586060 0.01250018 -0.18149016
v 0.26092745 -0.01250018 -0.10970015
v 0.26092745 0.01250018 -0.10970015
v 0.26016114 0.01250018 -0.18313763
v 0.26016114 -0.01250018 -0.18313763
v 0.26435921 -0.01250018 -0.18503115
v 0.26600837 0.01250018 -0.11240277
v 0.26435921 0.01250018 -0.18503115
v 0.26600837 -0.01250018 -0.11240277
v 0.26844073 -0.01250018 -0.18716453
v 0.27087646 -0.01250018 -0.11547193
v 0.26844073 0.01250018 -0.18716453
v 0.27087646 0.01250018 -0.11547193
v 0.27239162 0.01250018 -0.18953101
v 0.27239162 -0.01250018 -0.18953101
v 0.27550639 0.01250018 -0.11888962
v 0.27550639 -0.01250018 -0.11888962
v 0.27619950 -0.01250018 -0.19212158
v 0.27987337 0.01250018 -0.12263838
v 0.27619950 0.01250018 -0.19212158
v 0.27987337 -0.01250018 -0.12263838
v 0.27985029 0.01250018 -0.19492837
v 0.27985029 -0.01250018 -0.19492837
v 0.28395264 -0.01250018 -0.12669737
v 0.28333329 -0.01250018 -0.19794179
v 0.28395264 0.01250018 -0.12669737
v 0.28333329 0.01250018 -0.19794179
v 0.28772335 0.01250018 -0.13104521
v 0.28753811 -0.01250018 -0.20285661
v 0.28772335 -0.01250018 -0.13104521
v 0.28753811 0.01250018 -0.20285661
v 0.29116412 0.01250018 -0.13565824
v 0.29206781 0.01250018 -0.20747415
v 0.29206781 -0.01250018 -0.20747415
v 0.29116412 -0.01250018 -0.13565824
v 0.29435997 0.01250018 -0.14028760
v 0.29690156 0.01250018 -0.21177244
v 0.29435997 -0.01250018 -0.14028760
v 0.29690156 -0.01250018 -0.21177244
v 0.30082655 0.01250018 -0.14828454
v 0.30201683 -0.01250018 -0.21573121
v 0.30082655 -0.01250018 -0.14828454
v 0.30201683 0.01250018 -0.21573121
v 0.30788095 0.01250018 -0.15576854
v 0.30738997 0.01250018 -0.21933302
v 0.30788095 -0.01250018 -0.15576854
v 0.30738997 -0.01250018 -0.21933302
v 0.31548150 -0.01250018 -0.16269626
v 0.31299566 0.01250018 -0.22256039
v 0.31299566 -0.01250018 -0.22256039
v 0.31548150 0.01250018 -0.16269626
v 0.32358542 0.01250018 -0.16902883
v 0.31880798 -0.01250018 -0.22539871
v 0.31880798 0.01250018 -0.22539871
v 0.32358542 -0.01250018 -0.16902883
v 0.33214596 0.01250018 -0.17472854
v 0.32479991 0.01250018 -0.22783501
v 0.32479991 -0.01250018 -0.22783501
v 0.33214596 -0.01250018 -0.17472854
v 0.34111359 0.01250018 -0.17976386
v 0.33094386 0.01250018 -0.22985690
v 0.33094386 -0.01250018 -0.22985690
v 0.34111359 -0.01250018 -0.17976386
v 0.33721112 0.01250018 -0.23145651
v 0.33721112 -0.01250018 -0.23145651
v 0.35043706 -0.01250018 -0.18410494
v 0.33992219 0.01250018 -0.23195425
v 0.33992219 -0.01250018 -0.23195425
v 0.35043706 0.01250018 -0.18410494
v 0.35833322 -0.01250018 -0.23544175
v 0.35833322 0.01250018 -0.23544175
v 0.36006233 0.01250018 -0.18772758
v 0.36006233 -0.01250018 -0.18772758
v 0.36666629 -0.01250018 -0.24377483
v 0.36993421 0.01250018 -0.19060981
v 0.36666629 0.01250018 -0.24377483
v 0.36993421 -0.01250018 -0.19060981
v 0.41666643 -0.01250018 -0.24377483
v 0.37266160 -0.01250018 -0.19118637
v 0.41666643 0.01250018 -0.24377483
v 0.37266160 0.01250018 -0.19118637
v 0.37999640 -0.01250018 -0.19273643
v 0.41647274 0.01250018 -0.23701715
v 0.37999640 0.01250018 -0.19273643
v 0.38633967 -0.01250018 -0.19507645
v 0.41647274 -0.01250018 -0.23701715
v 0.41539113 0.01250018 -0.23034337
v 0.38633967 0.01250018 -0.19507645
v 0.39231921 -0.01250018 -0.19823119
v 0.41539113 -0.01250018 -0.23034337
v 0.41343962 0.01250018 -0.22387004
v 0.39231921 0.01250018 -0.19823119
v 0.39783143 -0.01250018 -0.20214605
v 0.41343962 -0.01250018 -0.22387004
v 0.41065254 0.01250018 -0.21771032
v 0.39783143 0.01250018 -0.20214605
v 0.40278004 -0.01250018 -0.20675289
v 0.41065254 -0.01250018 -0.21771032
v 0.40707889 0.01250018 -0.21197119
v 0.40278004 0.01250018 -0.20675289
v 0.40707889 -0.01250018 -0.21197119
v 0.17186151 -0.05280298 -0.17754095
v 0.17186151 -0.04760607 -0.10210861
v 0.17186151 -0.04760607 -0.17710854
v 0.17186151 -0.05331873 -0.10280566
v 0.19686130 -0.04760607 -0.17710854
v 0.17186151 -0.05676232 -0.17807585
v 0.19686130 -0.05331873 -0.10280566
v 0.19686130 -0.04760607 -0.10210861
v 0.19686130 -0.05280298 -0.17754095
v 0.17186151 -0.05896439 -0.10392105
v 0.19686130 -0.05676232 -0.17807585
v 0.17186151 -0.06128301 -0.17895476
v 0.19686130 -0.05896439 -0.10392105
v 0.17186151 -0.06451320 -0.10544747
v 0.19686130 -0.06451320 -0.10544747
v 0.19686130 -0.06128301 -0.17895476
v 0.17186151 -0.06574515 -0.18009437
v 0.19686130 -0.06574515 -0.18009437
v 0.17186151 -0.06993533 -0.10737702
v 0.19686130 -0.06993533 -0.10737702
v 0.17186151 -0.07013353 -0.18149016
v 0.19686130 -0.07013353 -0.18149016
v 0.17186151 -0.07520037 -0.10970015
v 0.19686130 -0.07520037 -0.10970015
v 0.19686130 -0.07443407 -0.18313763
v 0.17186151 -0.07443407 -0.18313763
v 0.17186151 -0.07863214 -0.18503115
v 0.19686130 -0.08028130 -0.11240277
v 0.19686130 -0.07863214 -0.18503115
v 0.17186151 -0.08028130 -0.11240277
v 0.17186151 -0.08271365 -0.18716453
v 0.17186151 -0.08514939 -0.11547193
v 0.19686130 -0.08271365 -0.18716453
v 0.19686130 -0.08514939 -0.11547193
v 0.19686130 -0.08666455 -0.18953101
v 0.17186151 -0.08666455 -0.18953101
v 0.19686130 -0.08977988 -0.11888962
v 0.17186151 -0.08977988 -0.11888962
v 0.17186151 -0.09047242 -0.19212158
v 0.19686130 -0.09414630 -0.12263838
v 0.19686130 -0.09047242 -0.19212158
v 0.17186151 -0.09414630 -0.12263838
v 0.19686130 -0.09412377 -0.19492837
v 0.17186151 -0.09412377 -0.19492837
v 0.17186151 -0.09822556 -0.12669737
v 0.17186151 -0.09760621 -0.19794179
v 0.19686130 -0.09822556 -0.12669737
v 0.19686130 -0.09760621 -0.19794179
v 0.19686130 -0.10199628 -0.13104521
v 0.17186151 -0.10181104 -0.20285661
v 0.17186151 -0.10199628 -0.13104521
v 0.19686130 -0.10181104 -0.20285661
v 0.19686130 -0.10543705 -0.13565824
v 0.19686130 -0.10634074 -0.20747415
v 0.17186151 -0.10634074 -0.20747415
v 0.17186151 -0.10543705 -0.13565824
v 0.19686130 -0.10863290 -0.14028760
v 0.19686130 -0.11117449 -0.21177244
v 0.17186151 -0.10863290 -0.14028760
v 0.17186151 -0.11117449 -0.21177244
v 0.19686130 -0.11509948 -0.14828454
v 0.17186151 -0.11628975 -0.21573121
v 0.17186151 -0.11509948 -0.14828454
v 0.19686130 -0.11628975 -0.21573121
v 0.19686130 -0.12215387 -0.15576854
v 0.19686130 -0.12166290 -0.21933302
v 0.17186151 -0.12215387 -0.15576854
v 0.17186151 -0.12166290 -0.21933302
v 0.17186151 -0.12975443 -0.16269626
v 0.19686130 -0.12726858 -0.22256039
v 0.17186151 -0.12726858 -0.22256039
v 0.19686130 -0.12975443 -0.16269626
v 0.19686130 -0.13785834 -0.16902883
v 0.17186151 -0.13308090 -0.22539871
v 0.19686130 -0.13308090 -0.22539871
v 0.17186151 -0.13785834 -0.16902883
v 0.19686130 -0.14641889 -0.17472854
v 0.19686130 -0.13907283 -0.22783501
v 0.17186151 -0.13907283 -0.22783501
v 0.17186151 -0.14641889 -0.17472854
v 0.19686130 -0.15538652 -0.17976386
v 0.19686130 -0.14521679 -0.22985690
v 0.17186151 -0.14521679 -0.22985690
v 0.17186151 -0.15538652 -0.17976386
v 0.19686130 -0.15148405 -0.23145651
v 0.17186151 -0.15148405 -0.23145651
v 0.17186151 -0.16470999 -0.18410494
v 0.19686130 -0.15419511 -0.23195425
v 0.17186151 -0.15419511 -0.23195425
v 0.19686130 -0.16470999 -0.18410494
v 0.17186151 -0.17260614 -0.23544175
v 0.19686130 -0.17260614 -0.23544175
v 0.19686130 -0.17433525 -0.18772758
v 0.17186151 -0.17433525 -0.18772758
v 0.17186151 -0.18093922 -0.24377483
v 0.19686130 -0.18420713 -0.19060981
v 0.19686130 -0.18093922 -0.24377483
v 0.17186151 -0.18420713 -0.19060981
v 0.17186151 -0.23093936 -0.24377483
v 0.17186151 -0.18693453 -0.19118637
v 0.19686130 -0.23093936 -0.24377483
v 0.19686130 -0.18693453 -0.19118637
v 0.17186151 -0.19426932 -0.19273643
v 0.19686130 -0.23074567 -0.23701715
v 0.19686130 -0.19426932 -0.19273643
v 0.17186151 -0.20061259 -0.19507645
v 0.17186151 -0.23074567 -0.23701715
v 0.19686130 -0.22966406 -0.23034337
v 0.19686130 -0.20061259 -0.19507645
v 0.17186151 -0.20659214 -0.19823119
v 0.17186151 -0.22966406 -0.23034337
v 0.19686130 -0.22771254 -0.22387004
v 0.19686130 -0.20659214 -0.19823119
v 0.17186151 -0.21210435 -0.20214605
v 0.17186151 -0.22771254 -0.22387004
v 0.19686130 -0.22492547 -0.21771032
v 0.19686130 -0.21210435 -0.20214605
v 0.17186151 -0.21705296 -0.20675289
v 0.17186151 -0.22492547 -0.21771032
v 0.19686130 -0.22135182 -0.21197119
v 0.19686130 -0.21705296 -0.20675289
v 0.17186151 -0.22135182 -0.21197119
v -0.21249989 0.05000014 -0.17710797
v -0.21249989 0.05000014 -0.10210804
v -0.21249989 0.05519649 -0.17754095
v -0.18750011 0.05000014 -0.17710797
v -0.21249989 0.05571224 -0.10280566
v -0.18750011 0.05000014 -0.10210804
v -0.21249989 0.05915583 -0.17807528
v -0.18750011 0.05571224 -0.10280566
v -0.18750011 0.05519649 -0.17754095
v -0.21249989 0.06135846 -0.10392049
v -0.18750011 0.05915583 -0.17807528
v -0.21249989 0.06367652 -0.17895476
v -0.18750011 0.06135846 -0.10392049
v -0.21249989 0.06690727 -0.10544690
v -0.18750011 0.06690727 -0.10544690
v -0.18750011 0.06367652 -0.17895476
v -0.21249989 0.06813866 -0.18009380
v -0.18750011 0.06813866 -0.18009380
v -0.21249989 0.07232884 -0.10737702
v -0.18750011 0.07232884 -0.10737702
v -0.21249989 0.07252760 -0.18148959
v -0.18750011 0.07252760 -0.18148959
v -0.21249989 0.07759444 -0.10969959
v -0.18750011 0.07759444 -0.10969959
v -0.18750011 0.07682814 -0.18313707
v -0.21249989 0.07682814 -0.18313707
v -0.21249989 0.08102621 -0.18503115
v -0.18750011 0.08267480 -0.11240277
v -0.18750011 0.08102621 -0.18503115
v -0.21249989 0.08267480 -0.11240277
v -0.21249989 0.08510772 -0.18716453
v -0.18750011 0.08510772 -0.18716453
v -0.21249989 0.08754346 -0.11547137
v -0.18750011 0.08754346 -0.11547137
v -0.18750011 0.08905862 -0.18953045
v -0.21249989 0.08905862 -0.18953045
v -0.18750011 0.09217338 -0.11888905
v -0.21249989 0.09217338 -0.11888905
v -0.21249989 0.09286593 -0.19212102
v -0.18750011 0.09286593 -0.19212102
v -0.18750011 0.09653980 -0.12263781
v -0.21249989 0.09653980 -0.12263781
v -0.18750011 0.09651728 -0.19492780
v -0.21249989 0.09651728 -0.19492780
v -0.21249989 0.10061963 -0.12669737
v -0.21249989 0.09999972 -0.19794122
v -0.18750011 0.09999972 -0.19794122
v -0.18750011 0.10061963 -0.12669737
v -0.18750011 0.10438979 -0.13104465
v -0.21249989 0.10420511 -0.20285661
v -0.18750011 0.10420511 -0.20285661
v -0.21249989 0.10438979 -0.13104465
v -0.18750011 0.10873481 -0.20747359
v -0.18750011 0.10783112 -0.13565768
v -0.21249989 0.10873481 -0.20747359
v -0.21249989 0.10783112 -0.13565768
v -0.18750011 0.11102640 -0.14028760
v -0.18750011 0.11356856 -0.21177188
v -0.21249989 0.11102640 -0.14028760
v -0.21249989 0.11356856 -0.21177188
v -0.18750011 0.11749355 -0.14828398
v -0.21249989 0.11868382 -0.21573121
v -0.21249989 0.11749355 -0.14828398
v -0.18750011 0.11868382 -0.21573121
v -0.18750011 0.12454738 -0.15576798
v -0.21249989 0.12454738 -0.15576798
v -0.18750011 0.12405641 -0.21933245
v -0.21249989 0.12405641 -0.21933245
v -0.18750011 0.12966209 -0.22256039
v -0.21249989 0.13214850 -0.16269626
v -0.21249989 0.12966209 -0.22256039
v -0.18750011 0.13214850 -0.16269626
v -0.18750011 0.13547441 -0.22539814
v -0.18750011 0.14025241 -0.16902827
v -0.21249989 0.13547441 -0.22539814
v -0.21249989 0.14025241 -0.16902827
v -0.18750011 0.14146634 -0.22783444
v -0.18750011 0.14881240 -0.17472854
v -0.21249989 0.14146634 -0.22783444
v -0.21249989 0.14881240 -0.17472854
v -0.18750011 0.14761029 -0.22985690
v -0.21249989 0.14761029 -0.22985690
v -0.18750011 0.15778002 -0.17976330
v -0.18750011 0.15387812 -0.23145595
v -0.21249989 0.15778002 -0.17976330
v -0.21249989 0.15387812 -0.23145595
v -0.18750011 0.15658862 -0.23195425
v -0.21249989 0.16710350 -0.18410438
v -0.18750011 0.17499965 -0.23544119
v -0.21249989 0.15658862 -0.23195425
v -0.18750011 0.16710350 -0.18410438
v -0.21249989 0.17499965 -0.23544119
v -0.18750011 0.17672876 -0.18772701
v -0.21249989 0.17672876 -0.18772701
v -0.21249989 0.18333329 -0.24377483
v -0.18750011 0.18333329 -0.24377483
v -0.18750011 0.18660120 -0.19060981
v -0.21249989 0.18660120 -0.19060981
v -0.21249989 0.23333343 -0.24377483
v -0.18750011 0.23333343 -0.24377483
v -0.21249989 0.18932860 -0.19118580
v -0.18750011 0.18932860 -0.19118580
v -0.18750011 0.23313974 -0.23701659
v -0.21249989 0.19666339 -0.19273643
v -0.18750011 0.19666339 -0.19273643
v -0.21249989 0.23313974 -0.23701659
v -0.18750011 0.23205757 -0.23034281
v -0.21249989 0.20300666 -0.19507588
v -0.18750011 0.20300666 -0.19507588
v -0.21249989 0.23205757 -0.23034281
v -0.18750011 0.23010661 -0.22386947
v -0.21249989 0.20898621 -0.19823063
v -0.18750011 0.20898621 -0.19823063
v -0.21249989 0.23010661 -0.22386947
v -0.18750011 0.22731954 -0.21770976
v -0.21249989 0.21449842 -0.20214549
v -0.18750011 0.21449842 -0.20214549
v -0.21249989 0.22731954 -0.21770976
v -0.18750011 0.22374532 -0.21197063
v -0.21249989 0.21944703 -0.20675232
v -0.18750011 0.21944703 -0.20675232
v -0.21249989 0.22374532 -0.21197063
v -0.24999986 -0.01250018 -0.17710854
v -0.24999986 -0.01250018 -0.10210861
v -0.25519677 -0.01250018 -0.17754095
v -0.24999986 0.01250018 -0.17710854
v -0.25571252 -0.01250018 -0.10280566
v -0.24999986 0.01250018 -0.10210861
v -0.25915554 -0.01250018 -0.17807585
v -0.25571252 0.01250018 -0.10280566
v -0.25519677 0.01250018 -0.17754095
v -0.26135818 -0.01250018 -0.10392105
v -0.25915554 0.01250018 -0.17807585
v -0.26367624 -0.01250018 -0.17895476
v -0.26135818 0.01250018 -0.10392105
v -0.26690699 -0.01250018 -0.10544747
v -0.26690699 0.01250018 -0.10544747
v -0.26367624 0.01250018 -0.17895476
v -0.26813837 -0.01250018 -0.18009437
v -0.26813837 0.01250018 -0.18009437
v -0.27232856 -0.01250018 -0.10737702
v -0.27232856 0.01250018 -0.10737702
v -0.27252731 -0.01250018 -0.18149016
v -0.27252731 0.01250018 -0.18149016
v -0.27759416 -0.01250018 -0.10970015
v -0.27759416 0.01250018 -0.10970015
v -0.27682786 0.01250018 -0.18313763
v -0.27682786 -0.01250018 -0.18313763
v -0.28102593 -0.01250018 -0.18503115
v -0.28267509 0.01250018 -0.11240277
v -0.28102593 0.01250018 -0.18503115
v -0.28267509 -0.01250018 -0.11240277
v -0.28510744 -0.01250018 -0.18716453
v -0.28510744 0.01250018 -0.18716453
v -0.28754318 -0.01250018 -0.11547193
v -0.28754318 0.01250018 -0.11547193
v -0.28905833 0.01250018 -0.18953101
v -0.28905833 -0.01250018 -0.18953101
v -0.29217310 0.01250018 -0.11888962
v -0.29217310 -0.01250018 -0.11888962
v -0.29286621 -0.01250018 -0.19212158
v -0.29286621 0.01250018 -0.19212158
v -0.29654008 0.01250018 -0.12263838
v -0.29654008 -0.01250018 -0.12263838
v -0.29651700 0.01250018 -0.19492837
v -0.29651700 -0.01250018 -0.19492837
v -0.30061935 -0.01250018 -0.12669737
v -0.30000000 -0.01250018 -0.19794179
v -0.30000000 0.01250018 -0.19794179
v -0.30061935 0.01250018 -0.12669737
v -0.30439007 0.01250018 -0.13104521
v -0.30420482 -0.01250018 -0.20285661
v -0.30420482 0.01250018 -0.20285661
v -0.30439007 -0.01250018 -0.13104521
v -0.30873453 0.01250018 -0.20747415
v -0.30783084 0.01250018 -0.13565824
v -0.30873453 -0.01250018 -0.20747415
v -0.30783084 -0.01250018 -0.13565824
v -0.31102669 0.01250018 -0.14028760
v -0.31356827 0.01250018 -0.21177244
v -0.31102669 -0.01250018 -0.14028760
v -0.31356827 -0.01250018 -0.21177244
v -0.31749326 0.01250018 -0.14828454
v -0.31868354 -0.01250018 -0.21573121
v -0.31749326 -0.01250018 -0.14828454
v -0.31868354 0.01250018 -0.21573121
v -0.32454766 0.01250018 -0.15576854
v -0.32454766 -0.01250018 -0.15576854
v -0.32405669 0.01250018 -0.21933302
v -0.32405669 -0.01250018 -0.21933302
v -0.32966181 0.01250018 -0.22256039
v -0.33214822 -0.01250018 -0.16269626
v -0.32966181 -0.01250018 -0.22256039
v -0.33214822 0.01250018 -0.16269626
v -0.33547413 0.01250018 -0.22539871
v -0.34025213 0.01250018 -0.16902883
v -0.33547413 -0.01250018 -0.22539871
v -0.34025213 -0.01250018 -0.16902883
v -0.34146662 0.01250018 -0.22783501
v -0.34881268 0.01250018 -0.17472854
v -0.34146662 -0.01250018 -0.22783501
v -0.34881268 -0.01250018 -0.17472854
v -0.34761058 0.01250018 -0.22985690
v -0.34761058 -0.01250018 -0.22985690
v -0.35778031 0.01250018 -0.17976386
v -0.35387784 0.01250018 -0.23145651
v -0.35778031 -0.01250018 -0.17976386
v -0.35387784 -0.01250018 -0.23145651
v -0.35658834 0.01250018 -0.23195425
v -0.36710321 -0.01250018 -0.18410494
v -0.37499993 0.01250018 -0.23544175
v -0.35658834 -0.01250018 -0.23195425
v -0.36710321 0.01250018 -0.18410494
v -0.37499993 -0.01250018 -0.23544175
v -0.37672904 0.01250018 -0.18772758
v -0.37672904 -0.01250018 -0.18772758
v -0.38333300 -0.01250018 -0.24377483
v -0.38333300 0.01250018 -0.24377483
v -0.38660092 0.01250018 -0.19060981
v -0.38660092 -0.01250018 -0.19060981
v -0.43333315 -0.01250018 -0.24377483
v -0.43333315 0.01250018 -0.24377483
v -0.38932831 -0.01250018 -0.19118637
v -0.38932831 0.01250018 -0.19118637
v -0.43313946 0.01250018 -0.23701715
v -0.39666311 -0.01250018 -0.19273643
v -0.39666311 0.01250018 -0.19273643
v -0.43313946 -0.01250018 -0.23701715
v -0.43205785 0.01250018 -0.23034337
v -0.40300638 -0.01250018 -0.19507645
v -0.40300638 0.01250018 -0.19507645
v -0.43205785 -0.01250018 -0.23034337
v -0.43010633 0.01250018 -0.22387004
v -0.40898593 -0.01250018 -0.19823119
v -0.40898593 0.01250018 -0.19823119
v -0.43010633 -0.01250018 -0.22387004
v -0.42731926 0.01250018 -0.21771032
v -0.41449814 -0.01250018 -0.20214605
v -0.41449814 0.01250018 -0.20214605
v -0.42731926 -0.01250018 -0.21771032
v -0.42374560 0.01250018 -0.21197119
v -0.41944675 -0.01250018 -0.20675289
v -0.41944675 0.01250018 -0.20675289
v -0.42374560 -0.01250018 -0.21197119
v -0.18852823 -0.04760607 -0.17710854
v -0.18852823 -0.04760607 -0.10210861
v -0.18852823 -0.05280298 -0.17754095
v -0.21352802 -0.04760607 -0.17710854
v -0.18852823 -0.05331873 -0.10280566
v -0.21352802 -0.04760607 -0.10210861
v -0.18852823 -0.05676232 -0.17807585
v -0.21352802 -0.05331873 -0.10280566
v -0.21352802 -0.05280298 -0.17754095
v -0.18852823 -0.05896439 -0.10392105
v -0.21352802 -0.05676232 -0.17807585
v -0.18852823 -0.06128301 -0.17895476
v -0.21352802 -0.05896439 -0.10392105
v -0.18852823 -0.06451320 -0.10544747
v -0.21352802 -0.06451320 -0.10544747
v -0.21352802 -0.06128301 -0.17895476
v -0.18852823 -0.06574515 -0.18009437
v -0.21352802 -0.06574515 -0.18009437
v -0.18852823 -0.06993533 -0.10737702
v -0.21352802 -0.06993533 -0.10737702
v -0.18852823 -0.07013353 -0.18149016
v -0.21352802 -0.07013353 -0.18149016
v -0.18852823 -0.07520037 -0.10970015
v -0.21352802 -0.07520037 -0.10970015
v -0.21352802 -0.07443407 -0.18313763
v -0.18852823 -0.07443407 -0.18313763
v -0.18852823 -0.07863214 -0.18503115
v -0.21352802 -0.08028130 -0.11240277
v -0.21352802 -0.07863214 -0.18503115
v -0.18852823 -0.08028130 -0.11240277
v -0.18852823 -0.08271365 -0.18716453
v -0.21352802 -0.08271365 -0.18716453
v -0.18852823 -0.08514939 -0.11547193
v -0.21352802 -0.08514939 -0.11547193
v -0.21352802 -0.08666455 -0.18953101
v -0.18852823 -0.08666455 -0.18953101
v -0.21352802 -0.08977988 -0.11888962
v -0.18852823 -0.08977988 -0.11888962
v -0.18852823 -0.09047242 -0.19212158
v -0.21352802 -0.09047242 -0.19212158
v -0.21352802 -0.09414630 -0.12263838
v -0.18852823 -0.09414630 -0.12263838
v -0.21352802 -0.09412377 -0.19492837
v -0.18852823 -0.09412377 -0.19492837
v -0.18852823 -0.09822556 -0.12669737
v -0.18852823 -0.09760621 -0.19794179
v -0.21352802 -0.09760621 -0.19794179
v -0.21352802 -0.09822556 -0.12669737
v -0.21352802 -0.10199628 -0.13104521
v -0.18852823 -0.10181104 -0.20285661
v -0.21352802 -0.10181104 -0.20285661
v -0.18852823 -0.10199628 -0.13104521
v -0.21352802 -0.10634074 -0.20747415
v -0.21352802 -0.10543705 -0.13565824
v -0.18852823 -0.10634074 -0.20747415
v -0.18852823 -0.10543705 -0.13565824
v -0.21352802 -0.10863290 -0.14028760
v -0.21352802 -0.11117449 -0.21177244
v -0.18852823 -0.10863290 -0.14028760
v -0.18852823 -0.11117449 -0.21177244
v -0.21352802 -0.11509948 -0.14828454
v -0.18852823 -0.11628975 -0.21573121
v -0.18852823 -0.11509948 -0.14828454
v -0.21352802 -0.11628975 -0.21573121
v -0.21352802 -0.12215387 -0.15576854
v -0.18852823 -0.12215387 -0.15576854
v -0.21352802 -0.12166290 -0.21933302
v -0.18852823 -0.12166290 -0.21933302
v -0.21352802 -0.12726858 -0.22256039
v -0.18852823 -0.12975443 -0.16269626
v -0.18852823 -0.12726858 -0.22256039
v -0.21352802 -0.12975443 -0.16269626
v -0.21352802 -0.13308090 -0.22539871
v -0.21352802 -0.13785834 -0.16902883
v -0.18852823 -0.13308090 -0.22539871
v -0.18852823 -0.13785834 -0.16902883
v -0.21352802 -0.13907283 -0.22783501
v -0.21352802 -0.14641889 -0.17472854
v -0.18852823 -0.13907283 -0.22783501
v -0.18852823 -0.14641889 -0.17472854
v -0.21352802 -0.14521679 -0.22985690
v -0.18852823 -0.14521679 -0.22985690
v -0.21352802 -0.15538652 -0.17976386
v -0.21352802 -0.15148405 -0.23145651
v -0.18852823 -0.15538652 -0.17976386
v -0.18852823 -0.15148405 -0.23145651
v -0.21352802 -0.15419511 -0.23195425
v -0.18852823 -0.16470999 -0.18410494
v -0.21352802 -0.17260614 -0.23544175
v -0.18852823 -0.15419511 -0.23195425
v -0.21352802 -0.16470999 -0.18410494
v -0.18852823 -0.17260614 -0.23544175
v -0.21352802 -0.17433525 -0.18772758
v -0.18852823 -0.17433525 -0.18772758
v -0.18852823 -0.18093922 -0.24377483
v -0.21352802 -0.18093922 -0.24377483
v -0.21352802 -0.18420713 -0.19060981
v -0.18852823 -0.18420713 -0.19060981
v -0.18852823 -0.23093936 -0.24377483
v -0.21352802 -0.23093936 -0.24377483
v -0.18852823 -0.18693453 -0.19118637
v -0.21352802 -0.18693453 -0.19118637
v -0.21352802 -0.23074567 -0.23701715
v -0.18852823 -0.19426932 -0.19273643
v -0.21352802 -0.19426932 -0.19273643
v -0.18852823 -0.23074567 -0.23701715
v -0.21352802 -0.22966406 -0.23034337
v -0.18852823 -0.20061259 -0.19507645
v -0.21352802 -0.20061259 -0.19507645
v -0.18852823 -0.22966406 -0.23034337
v -0.21352802 -0.22771254 -0.22387004
v -0.18852823 -0.20659214 -0.19823119
v -0.21352802 -0.20659214 -0.19823119
v -0.18852823 -0.22771254 -0.22387004
v -0.21352802 -0.22492547 -0.21771032
v -0.18852823 -0.21210435 -0.20214605
v -0.21352802 -0.21210435 -0.20214605
v -0.18852823 -0.22492547 -0.21771032
v -0.21352802 -0.22135182 -0.21197119
v -0.18852823 -0.21705296 -0.20675289
v -0.21352802 -0.21705296 -0.20675289
v -0.18852823 -0.22135182 -0.21197119
v 0.13274110 0.01250018 0.11455811
v -0.15059246 0.01250018 0.06455797
v -0.15059246 0.01250018 0.11455811
v 0.13274110 0.01250018 0.06455797
v -0.15059246 0.00416654 0.07184997
v -0.15059246 -0.01250018 0.11455811
v 0.13274110 0.00416654 0.06455797
v -0.15059246 0.00416654 0.06455797
v 0.13274110 -0.01250018 0.11455811
v 0.13274110 0.00416654 0.07184997
v -0.15059246 -0.00000000 0.07184997
v 0.13274110 -0.01250018 0.06455797
v 0.13274110 -0.00416654 0.07184997
v -0.15059246 -0.00416654 0.07184997
v -0.15059246 -0.01250018 0.06455797
v -0.15059246 -0.00416654 0.06455797
v 0.13274110 -0.00416654 0.06455797
v 0.13274110 0.01250018 -0.10210861
v -0.15059246 0.01250018 -0.17710854
v -0.15059246 0.01250018 -0.10210861
v 0.13274110 0.01250018 -0.17710854
v -0.15059246 0.00416654 -0.10940005
v -0.15059246 0.00416654 -0.10210861
v 0.13274110 -0.01250018 -0.17710854
v -0.15059246 -0.00416654 -0.10940005
v 0.13274110 0.00416654 -0.10210861
v 0.13274110 0.00416654 -0.10940005
v -0.15059246 -0.01250018 -0.17710854
v -0.15059246 -0.01250018 -0.10210861
v 0.13274110 -0.00416654 -0.10940005
v 0.13274110 -0.01250018 -0.10210861
v -0.15059246 -0.00416654 -0.10210861
v 0.13274110 -0.00416654 -0.10210861
v -0.11666671 0.16666657 0.18752488
v -0.24999986 -0.16666657 0.18752488
v -0.11666671 -0.16666657 0.18752488
v -0.24999986 0.16666657 0.18752488
v -0.11666671 -0.16666657 0.17085817
v -0.24999986 0.16666657 0.17085817
v -0.24999986 -0.16666657 0.17085817
v -0.11666671 0.16666657 0.17085817
v -0.16309208 0.01553274 0.17085817
v -0.18523272 0.03767338 -0.18747533
v -0.16309208 0.01553274 -0.18747533
v -0.18523272 0.03767338 0.17085817
v -0.15059246 0.02071051 -0.18747533
v -0.15059246 0.02071051 0.17085817
v -0.18005495 0.05017356 0.17085817
v -0.18005495 0.05017356 -0.18747533
v -0.16309208 -0.01577823 0.17085817
v -0.16309208 -0.01577823 -0.18747533
v -0.15059246 -0.02095600 -0.18747533
v -0.15059246 -0.02095600 0.17085817
v -0.21654425 0.03767338 -0.18747533
v -0.21654425 0.03767338 0.17085817
v -0.22172146 0.05017356 0.17085817
v -0.22172146 0.05017356 -0.18747533
v -0.21654369 0.03767338 0.17085817
v -0.23868433 0.01553274 -0.18747533
v -0.21654369 0.03767338 -0.18747533
v -0.23868433 0.01553274 0.17085817
v -0.25118451 0.02071051 0.17085817
v -0.25118451 0.02071051 -0.18747533
v -0.23868433 -0.01577823 -0.18747533
v -0.23868433 -0.01577823 0.17085817
v -0.25118451 -0.02095600 0.17085817
v -0.25118451 -0.02095600 -0.18747533
v -0.21654369 -0.03791887 -0.18747533
v -0.21654369 -0.03791887 0.17085817
v -0.22172146 -0.05041905 0.17085817
v -0.22172146 -0.05041905 -0.18747533
v -0.21654425 -0.03791887 0.17085817
v -0.18523272 -0.03791887 -0.18747533
v -0.21654425 -0.03791887 -0.18747533
v -0.18523272 -0.03791887 0.17085817
v -0.18005495 -0.05041905 0.17085817
v -0.18005495 -0.05041905 -0.18747533
v 0.31666671 -0.11666643 0.18752488
v -0.31666671 -0.16666657 0.18752488
v -0.31666671 -0.11666643 0.18752488
v 0.31666671 -0.16666657 0.18752488
v -0.31666671 -0.11666643 0.23127465
v 0.31666671 -0.16666657 0.23127465
v -0.31666671 -0.16666657 0.23127465
v 0.31666671 -0.11666643 0.23127465
v 0.24999986 0.16666657 0.18752488
v 0.11666671 -0.16666657 0.18752488
v 0.24999986 -0.16666657 0.18752488
v 0.11666671 0.16666657 0.18752488
v 0.24999986 -0.16666657 0.17085817
v 0.11666671 0.16666657 0.17085817
v 0.11666671 -0.16666657 0.17085817
v 0.24999986 0.16666657 0.17085817
v 0.19869289 -0.03791887 0.17085817
v 0.22083297 -0.01577823 -0.18747533
v 0.19869289 -0.03791887 -0.18747533
v 0.22083297 -0.01577823 0.17085817
v 0.20387066 -0.05041905 -0.18747533
v 0.20387066 -0.05041905 0.17085817
v 0.23333315 -0.02095600 0.17085817
v 0.23333315 -0.02095600 -0.18747533
v 0.16738136 -0.03791887 0.17085817
v 0.16738136 -0.03791887 -0.18747533
v 0.16220359 -0.05041905 -0.18747533
v 0.16220359 -0.05041905 0.17085817
v 0.14524128 -0.01577823 0.17085817
v 0.14524128 -0.01577823 -0.18747533
v 0.13274110 -0.02095600 -0.18747533
v 0.13274110 -0.02095600 0.17085817
v 0.22083297 0.01553274 -0.18747533
v 0.22083297 0.01553274 0.17085817
v 0.23333315 0.02071051 0.17085817
v 0.23333315 0.02071051 -0.18747533
v 0.19869289 0.03767338 -0.18747533
v 0.19869289 0.03767338 0.17085817
v 0.20387066 0.05017356 0.17085817
v 0.20387066 0.05017356 -0.18747533
v 0.16738136 0.03767338 -0.18747533
v 0.16738136 0.03767338 0.17085817
v 0.16220359 0.05017356 0.17085817
v 0.16220359 0.05017356 -0.18747533
v 0.14524128 0.01553274 -0.18747533
v 0.14524128 0.01553274 0.17085817
v 0.13274110 0.02071051 0.17085817
v 0.13274110 0.02071051 -0.18747533
v 0.31666671 0.16666657 0.18752488
v -0.31666671 0.11666643 0.18752488
v -0.31666671 0.16666657 0.18752488
v 0.31666671 0.11666643 0.18752488
v -0.31666671 0.16666657 0.23127465
v 0.31666671 0.11666643 0.23127465
v -0.31666671 0.11666643 0.23127465
v 0.31666671 0.16666657 0.23127465
v -0.00208355 -0.30833336 0.18960815
v -0.00208355 -0.29583318 0.18960815
v -0.00208355 -0.30833336 0.23127465
v -0.38274124 -0.30833336 0.18960815
v -0.00208355 -0.29583318 0.23127465
v -0.37756348 -0.29583318 0.18960815
v -0.37756348 -0.29583318 0.23127465
v -0.38274124 -0.30833336 0.23127465
v -0.45833293 -0.23274110 0.18960815
v -0.45833293 -0.23274110 0.23127465
v -0.44583332 -0.22756334 0.18960815
v -0.44583332 -0.22756334 0.23127465
v -0.45833293 0.23274110 0.18960815
v -0.45833293 0.23274110 0.23127465
v -0.44583332 0.22756334 0.18960815
v -0.44583332 0.22756334 0.23127465
v -0.37756348 0.29583318 0.18960815
v -0.38274124 0.30833336 0.18960815
v -0.37756348 0.29583318 0.23127465
v -0.38274124 0.30833336 0.23127465
v -0.00208355 0.29583318 0.23127465
v -0.00208355 0.30833336 0.18960815
v -0.00208355 0.29583318 0.18960815
v -0.00208355 0.30833336 0.23127465
v 0.00208355 -0.30833336 0.23127465
v 0.00208355 -0.29583318 0.18960815
v 0.00208355 -0.30833336 0.18960815
v 0.00208355 -0.29583318 0.23127465
v 0.38274068 -0.30833336 0.18960815
v 0.37756348 -0.29583318 0.23127465
v 0.37756348 -0.29583318 0.18960815
v 0.38274068 -0.30833336 0.23127465
v 0.45833293 -0.23274110 0.18960815
v 0.45833293 -0.23274110 0.23127465
v 0.44583332 -0.22756334 0.18960815
v 0.44583332 -0.22756334 0.23127465
v 0.45833293 0.23274110 0.18960815
v 0.45833293 0.23274110 0.23127465
v 0.44583332 0.22756334 0.18960815
v 0.44583332 0.22756334 0.23127465
v 0.37756348 0.29583318 0.18960815
v 0.38274068 0.30833336 0.18960815
v 0.37756348 0.29583318 0.23127465
v 0.38274068 0.30833336 0.23127465
v 0.00208355 0.29583318 0.23127465
v 0.00208355 0.30833336 0.18960815
v 0.00208355 0.29583318 0.18960815
v 0.00208355 0.30833336 0.23127465
v 0.10416654 -0.00416654 -0.10731678
v 0.11666671 -0.00416654 0.07080834
v 0.10416654 -0.00416654 0.07080834
v 0.11666671 -0.00416654 -0.10731678
v 0.10416654 0.00416654 0.07080834
v 0.10416654 0.00416654 -0.10731678
v 0.11666671 0.00416654 -0.10731678
v 0.11666671 0.00416654 0.07080834
v 0.07447939 -0.00416654 -0.10731678
v 0.08697901 -0.00416654 0.07080834
v 0.07447939 -0.00416654 0.07080834
v 0.08697901 -0.00416654 -0.10731678
v 0.07447939 0.00416654 0.07080834
v 0.07447939 0.00416654 -0.10731678
v 0.08697901 0.00416654 -0.10731678
v 0.08697901 0.00416654 0.07080834
v 0.04479169 -0.00416654 -0.10731678
v 0.05729186 -0.00416654 0.07080834
v 0.04479169 -0.00416654 0.07080834
v 0.05729186 -0.00416654 -0.10731678
v 0.04479169 0.00416654 0.07080834
v 0.04479169 0.00416654 -0.10731678
v 0.05729186 0.00416654 -0.10731678
v 0.05729186 0.00416654 0.07080834
v 0.01510398 -0.00416654 -0.10731678
v 0.02760416 -0.00416654 0.07080834
v 0.01510398 -0.00416654 0.07080834
v 0.02760416 -0.00416654 -0.10731678
v 0.01510398 0.00416654 0.07080834
v 0.01510398 0.00416654 -0.10731678
v 0.02760416 0.00416654 -0.10731678
v 0.02760416 0.00416654 0.07080834
v -0.01458316 -0.00416654 -0.10731678
v -0.00208355 -0.00416654 0.07080834
v -0.01458316 -0.00416654 0.07080834
v -0.00208355 -0.00416654 -0.10731678
v -0.01458316 0.00416654 0.07080834
v -0.01458316 0.00416654 -0.10731678
v -0.00208355 0.00416654 -0.10731678
v -0.00208355 0.00416654 0.07080834
v -0.04427087 -0.00416654 -0.10731678
v -0.03177069 -0.00416654 0.07080834
v -0.04427087 -0.00416654 0.07080834
v -0.03177069 -0.00416654 -0.10731678
v -0.04427087 0.00416654 0.07080834
v -0.04427087 0.00416654 -0.10731678
v -0.03177069 0.00416654 -0.10731678
v -0.03177069 0.00416654 0.07080834
v -0.07395801 -0.00416654 -0.10731678
v -0.06145840 -0.00416654 0.07080834
v -0.07395801 -0.00416654 0.07080834
v -0.06145840 -0.00416654 -0.10731678
v -0.07395801 0.00416654 0.07080834
v -0.07395801 0.00416654 -0.10731678
v -0.06145840 0.00416654 -0.10731678
v -0.06145840 0.00416654 0.07080834
v -0.10364572 -0.00416654 -0.10731678
v -0.09114554 -0.00416654 0.07080834
v -0.10364572 -0.00416654 0.07080834
v -0.09114554 -0.00416654 -0.10731678
v -0.10364572 0.00416654 0.07080834
v -0.10364572 0.00416654 -0.10731678
v -0.09114554 0.00416654 -0.10731678
v -0.09114554 0.00416654 0.07080834
v -0.13333343 -0.00416654 -0.10731678
v -0.12083325 -0.00416654 0.07080834
v -0.13333343 -0.00416654 0.07080834
v -0.12083325 -0.00416654 -0.10731678
v -0.13333343 0.00416654 0.07080834
v -0.13333343 0.00416654 -0.10731678
v -0.12083325 0.00416654 -0.10731678
v -0.12083325 0.00416654 0.07080834
f 1 2 3
f 2 1 4
f 2 5 3
f 5 1 3
f 4 1 6
f 4 7 2
f 5 2 7
f 1 5 8
f 6 1 9
f 10 4 6
f 7 4 11
f 11 5 7
f 5 11 8
f 12 1 8
f 1 12 9
f 9 10 6
f 4 10 11
f 8 11 10
f 8 10 12
f 10 9 12
f 3 2 1
f 4 1 2
f 3 5 2
f 3 1 5
f 6 1 4
f 2 7 4
f 7 2 5
f 8 5 1
f 9 1 6
f 6 4 10
f 11 4 7
f 7 5 11
f 8 11 5
f 8 1 12
f 9 12 1
f 6 10 9
f 11 10 4
f 10 11 8
f 12 10 8
f 12 9 10
f 3 13 1
f 3 5 13
f 14 1 13
f 3 1 5
f 15 13 5
f 16 1 14
f 13 15 14
f 8 5 1
f 15 5 17
f 18 1 16
f 16 14 19
f 17 14 15
f 8 17 5
f 8 1 20
f 18 20 1
f 16 19 18
f 17 19 14
f 19 17 8
f 20 19 8
f 20 18 19
f 1 13 3
f 13 5 3
f 13 1 14
f 5 1 3
f 5 13 15
f 14 1 16
f 14 15 13
f 1 5 8
f 17 5 15
f 16 1 18
f 19 14 16
f 15 14 17
f 5 17 8
f 20 1 8
f 1 20 18
f 18 19 16
f 14 19 17
f 8 17 19
f 8 19 20
f 19 18 20
f 21 22 23
f 22 21 24
f 24 21 26
f 27 22 24
f 24 26 30
f 22 27 28
f 30 27 24
f 27 25 28
f 25 27 29
f 30 26 32
f 27 30 33
f 29 27 31
f 30 32 34
f 30 35 33
f 31 27 33
f 34 32 37
f 35 30 34
f 36 33 35
f 31 33 36
f 34 37 39
f 34 40 35
f 36 35 38
f 39 37 41
f 40 34 39
f 38 35 40
f 39 41 43
f 39 44 40
f 38 40 42
f 43 41 46
f 44 39 43
f 42 40 44
f 42 44 45
f 43 46 47
f 43 48 44
f 45 44 49
f 43 47 50
f 48 43 50
f 49 44 48
f 50 47 51
f 52 48 50
f 49 48 53
f 50 51 52
f 48 52 54
f 53 48 54
f 52 51 56
f 52 57 54
f 53 54 55
f 52 56 58
f 57 52 58
f 55 54 57
f 58 56 59
f 58 60 57
f 55 57 61
f 58 59 62
f 60 58 62
f 61 57 60
f 62 59 64
f 65 60 62
f 61 60 63
f 62 64 66
f 60 65 67
f 62 66 65
f 63 60 68
f 65 69 67
f 68 60 67
f 65 66 70
f 69 65 71
f 72 67 69
f 68 67 72
f 65 70 71
f 71 73 69
f 72 69 74
f 71 70 75
f 73 71 76
f 74 69 73
f 71 75 76
f 76 77 73
f 74 73 77
f 76 75 79
f 77 76 79
f 74 77 78
f 79 75 80
f 79 81 77
f 78 77 81
f 79 80 83
f 81 79 83
f 78 81 84
f 83 80 82
f 83 85 81
f 84 81 85
f 83 82 87
f 85 83 87
f 84 85 86
f 87 82 88
f 89 85 87
f 86 85 90
f 87 88 91
f 85 89 92
f 87 91 89
f 90 85 92
f 89 93 92
f 89 91 94
f 90 92 95
f 93 89 96
f 95 92 93
f 89 94 96
f 96 97 93
f 95 93 98
f 96 94 99
f 97 96 100
f 98 93 97
f 96 99 100
f 100 101 97
f 98 97 102
f 100 99 103
f 101 100 104
f 105 97 101
f 102 97 105
f 100 103 106
f 100 106 104
f 107 101 104
f 105 101 108
f 104 106 109
f 101 107 110
f 104 111 107
f 108 101 112
f 104 109 111
f 107 113 110
f 112 101 110
f 107 111 114
f 113 107 114
f 112 110 113
f 114 111 115
f 114 116 113
f 112 113 117
f 114 115 118
f 116 114 118
f 117 113 116
f 118 115 119
f 120 116 118
f 117 116 121
f 118 119 120
f 116 120 122
f 121 116 122
f 120 119 123
f 124 119 121
f 120 125 122
f 121 122 125
f 123 119 126
f 125 120 123
f 119 124 127
f 121 128 124
f 121 125 129
f 126 119 130
f 129 123 126
f 123 129 125
f 124 131 127
f 131 119 127
f 121 132 128
f 131 124 128
f 121 129 133
f 130 119 134
f 130 129 126
f 135 119 131
f 121 136 132
f 132 131 128
f 129 130 133
f 121 133 137
f 134 119 138
f 137 130 134
f 139 119 135
f 131 132 135
f 121 140 136
f 136 135 132
f 130 137 133
f 121 137 141
f 138 119 142
f 141 134 138
f 134 141 137
f 142 119 139
f 135 136 139
f 121 141 140
f 140 139 136
f 142 141 138
f 139 140 142
f 141 142 140
f 23 22 21
f 24 21 22
f 22 25 23
f 23 25 22
f 25 21 23
f 23 21 25
f 26 21 24
f 24 22 27
f 25 22 28
f 28 22 25
f 21 25 29
f 29 25 21
f 29 26 21
f 21 26 29
f 30 26 24
f 28 27 22
f 24 27 30
f 28 25 27
f 29 27 25
f 26 29 31
f 31 29 26
f 32 26 30
f 33 30 27
f 31 27 29
f 31 32 26
f 26 32 31
f 34 32 30
f 33 35 30
f 33 27 31
f 32 31 36
f 36 31 32
f 37 32 34
f 34 30 35
f 35 33 36
f 36 33 31
f 38 32 36
f 36 32 38
f 32 38 37
f 37 38 32
f 39 37 34
f 35 40 34
f 38 35 36
f 38 41 37
f 37 41 38
f 41 37 39
f 39 34 40
f 40 35 38
f 41 38 42
f 42 38 41
f 43 41 39
f 40 44 39
f 42 40 38
f 45 41 42
f 42 41 45
f 46 41 43
f 43 39 44
f 44 40 42
f 41 45 46
f 46 45 41
f 45 44 42
f 47 46 43
f 44 48 43
f 49 46 45
f 45 46 49
f 49 44 45
f 46 49 47
f 47 49 46
f 50 47 43
f 50 43 48
f 48 44 49
f 49 51 47
f 47 51 49
f 51 47 50
f 50 48 52
f 53 48 49
f 51 49 53
f 53 49 51
f 52 51 50
f 54 52 48
f 54 48 53
f 55 51 53
f 53 51 55
f 56 51 52
f 54 57 52
f 55 54 53
f 51 55 56
f 56 55 51
f 58 56 52
f 58 52 57
f 57 54 55
f 55 59 56
f 56 59 55
f 59 56 58
f 57 60 58
f 61 57 55
f 59 55 61
f 61 55 59
f 62 59 58
f 62 58 60
f 60 57 61
f 63 59 61
f 61 59 63
f 64 59 62
f 62 60 65
f 63 60 61
f 59 63 64
f 64 63 59
f 66 64 62
f 67 65 60
f 65 66 62
f 68 60 63
f 63 66 64
f 64 66 63
f 67 69 65
f 67 60 68
f 70 66 65
f 66 63 68
f 68 63 66
f 71 65 69
f 69 67 72
f 72 67 68
f 66 72 70
f 70 72 66
f 71 70 65
f 72 66 68
f 68 66 72
f 69 73 71
f 74 69 72
f 74 70 72
f 72 70 74
f 75 70 71
f 76 71 73
f 73 69 74
f 70 74 75
f 75 74 70
f 76 75 71
f 73 77 76
f 77 73 74
f 78 75 74
f 74 75 78
f 79 75 76
f 79 76 77
f 78 77 74
f 75 78 80
f 80 78 75
f 80 75 79
f 77 81 79
f 81 77 78
f 78 82 80
f 80 82 78
f 83 80 79
f 83 79 81
f 84 81 78
f 82 78 84
f 84 78 82
f 82 80 83
f 81 85 83
f 85 81 84
f 86 82 84
f 84 82 86
f 87 82 83
f 87 83 85
f 86 85 84
f 82 86 88
f 88 86 82
f 88 82 87
f 87 85 89
f 90 85 86
f 86 91 88
f 88 91 86
f 91 88 87
f 92 89 85
f 89 91 87
f 92 85 90
f 91 86 90
f 90 86 91
f 92 93 89
f 94 91 89
f 95 92 90
f 95 91 90
f 90 91 95
f 96 89 93
f 93 92 95
f 91 95 94
f 94 95 91
f 96 94 89
f 93 97 96
f 98 93 95
f 98 94 95
f 95 94 98
f 99 94 96
f 100 96 97
f 97 93 98
f 94 98 99
f 99 98 94
f 100 99 96
f 97 101 100
f 102 97 98
f 98 103 99
f 99 103 98
f 103 99 100
f 104 100 101
f 101 97 105
f 105 97 102
f 103 98 102
f 102 98 103
f 106 103 100
f 104 106 100
f 104 101 107
f 108 101 105
f 105 103 102
f 102 103 105
f 103 105 106
f 106 105 103
f 109 106 104
f 110 107 101
f 107 111 104
f 112 101 108
f 109 105 108
f 108 105 109
f 105 109 106
f 106 109 105
f 111 109 104
f 110 113 107
f 110 101 112
f 114 111 107
f 111 108 112
f 112 108 111
f 108 111 109
f 109 111 108
f 114 107 113
f 113 110 112
f 115 111 114
f 112 115 111
f 111 115 112
f 113 116 114
f 117 113 112
f 118 115 114
f 115 112 117
f 117 112 115
f 118 114 116
f 116 113 117
f 119 115 118
f 117 119 115
f 115 119 117
f 118 116 120
f 121 116 117
f 120 119 118
f 119 117 121
f 121 117 119
f 122 120 116
f 122 116 121
f 123 119 120
f 121 119 124
f 122 125 120
f 125 122 121
f 126 119 123
f 123 120 125
f 127 124 119
f 124 128 121
f 129 125 121
f 130 119 126
f 126 123 129
f 125 129 123
f 127 131 124
f 127 119 131
f 128 132 121
f 128 124 131
f 133 129 121
f 134 119 130
f 126 129 130
f 131 119 135
f 132 136 121
f 128 131 132
f 133 130 129
f 137 133 121
f 138 119 134
f 134 130 137
f 135 119 139
f 135 132 131
f 136 140 121
f 132 135 136
f 133 137 130
f 141 137 121
f 142 119 138
f 138 134 141
f 137 141 134
f 139 119 142
f 139 136 135
f 140 141 121
f 136 139 140
f 138 141 142
f 142 140 139
f 140 142 141
f 143 144 145
f 144 143 146
f 146 143 148
f 149 144 146
f 146 148 152
f 144 149 150
f 152 149 146
f 149 147 150
f 147 149 151
f 152 148 154
f 149 152 155
f 151 149 153
f 152 154 156
f 152 157 155
f 153 149 155
f 156 154 159
f 157 152 156
f 158 155 157
f 153 155 158
f 156 159 161
f 156 162 157
f 158 157 160
f 161 159 163
f 162 156 161
f 160 157 162
f 161 163 165
f 161 166 162
f 160 162 164
f 165 163 168
f 166 161 165
f 164 162 166
f 164 166 167
f 165 168 169
f 165 170 166
f 167 166 171
f 165 169 172
f 170 165 172
f 171 166 170
f 172 169 173
f 174 170 172
f 171 170 175
f 172 173 174
f 170 174 176
f 175 170 176
f 174 173 178
f 174 179 176
f 175 176 177
f 174 178 180
f 179 174 180
f 177 176 179
f 180 178 181
f 180 182 179
f 177 179 183
f 180 181 184
f 182 180 184
f 183 179 182
f 184 181 186
f 187 182 184
f 183 182 185
f 184 186 188
f 182 187 189
f 184 188 187
f 185 182 190
f 187 191 189
f 190 182 189
f 187 188 192
f 191 187 193
f 194 189 191
f 190 189 194
f 187 192 193
f 193 195 191
f 194 191 196
f 193 192 197
f 195 193 198
f 196 191 195
f 193 197 198
f 198 199 195
f 196 195 199
f 198 197 201
f 199 198 201
f 196 199 200
f 201 197 202
f 201 203 199
f 200 199 203
f 201 202 205
f 203 201 205
f 200 203 206
f 205 202 204
f 205 207 203
f 206 203 207
f 205 204 209
f 207 205 209
f 206 207 208
f 209 204 210
f 211 207 209
f 208 207 212
f 209 210 213
f 207 211 214
f 209 213 211
f 212 207 214
f 211 215 214
f 211 213 216
f 212 214 217
f 215 211 218
f 217 214 215
f 211 216 218
f 218 219 215
f 217 215 220
f 218 216 221
f 219 218 222
f 220 215 219
f 218 221 222
f 222 223 219
f 220 219 224
f 222 221 225
f 223 222 226
f 227 219 223
f 224 219 227
f 222 225 228
f 222 228 226
f 229 223 226
f 227 223 230
f 226 228 231
f 223 229 232
f 226 233 229
f 230 223 234
f 226 231 233
f 229 235 232
f 234 223 232
f 229 233 236
f 235 229 236
f 234 232 235
f 236 233 237
f 236 238 235
f 234 235 239
f 236 237 240
f 238 236 240
f 239 235 238
f 240 237 241
f 242 238 240
f 239 238 243
f 240 241 242
f 238 242 244
f 243 238 244
f 242 241 245
f 246 241 243
f 242 247 244
f 243 244 247
f 245 241 248
f 247 242 245
f 241 246 249
f 243 250 246
f 243 247 251
f 248 241 252
f 251 245 248
f 245 251 247
f 246 253 249
f 253 241 249
f 243 254 250
f 253 246 250
f 243 251 255
f 252 241 256
f 252 251 248
f 257 241 253
f 243 258 254
f 254 253 250
f 251 252 255
f 243 255 259
f 256 241 260
f 259 252 256
f 261 241 257
f 253 254 257
f 243 262 258
f 258 257 254
f 252 259 255
f 243 259 263
f 260 241 264
f 263 256 260
f 256 263 259
f 264 241 261
f 257 258 261
f 243 263 262
f 262 261 258
f 264 263 260
f 261 262 264
f 263 264 262
f 145 144 143
f 146 143 144
f 144 147 145
f 145 147 144
f 147 143 145
f 145 143 147
f 148 143 146
f 146 144 149
f 147 144 150
f 150 144 147
f 143 147 151
f 151 147 143
f 151 148 143
f 143 148 151
f 152 148 146
f 150 149 144
f 146 149 152
f 150 147 149
f 151 149 147
f 148 151 153
f 153 151 148
f 154 148 152
f 155 152 149
f 153 149 151
f 153 154 148
f 148 154 153
f 156 154 152
f 155 157 152
f 155 149 153
f 154 153 158
f 158 153 154
f 159 154 156
f 156 152 157
f 157 155 158
f 158 155 153
f 160 154 158
f 158 154 160
f 154 160 159
f 159 160 154
f 161 159 156
f 157 162 156
f 160 157 158
f 160 163 159
f 159 163 160
f 163 159 161
f 161 156 162
f 162 157 160
f 163 160 164
f 164 160 163
f 165 163 161
f 162 166 161
f 164 162 160
f 167 163 164
f 164 163 167
f 168 163 165
f 165 161 166
f 166 162 164
f 163 167 168
f 168 167 163
f 167 166 164
f 169 168 165
f 166 170 165
f 171 168 167
f 167 168 171
f 171 166 167
f 168 171 169
f 169 171 168
f 172 169 165
f 172 165 170
f 170 166 171
f 171 173 169
f 169 173 171
f 173 169 172
f 172 170 174
f 175 170 171
f 173 171 175
f 175 171 173
f 174 173 172
f 176 174 170
f 176 170 175
f 177 173 175
f 175 173 177
f 178 173 174
f 176 179 174
f 177 176 175
f 173 177 178
f 178 177 173
f 180 178 174
f 180 174 179
f 179 176 177
f 177 181 178
f 178 181 177
f 181 178 180
f 179 182 180
f 183 179 177
f 181 177 183
f 183 177 181
f 184 181 180
f 184 180 182
f 182 179 183
f 185 181 183
f 183 181 185
f 186 181 184
f 184 182 187
f 185 182 183
f 181 185 186
f 186 185 181
f 188 186 184
f 189 187 182
f 187 188 184
f 190 182 185
f 185 188 186
f 186 188 185
f 189 191 187
f 189 182 190
f 192 188 187
f 188 185 190
f 190 185 188
f 193 187 191
f 191 189 194
f 194 189 190
f 188 194 192
f 192 194 188
f 193 192 187
f 194 188 190
f 190 188 194
f 191 195 193
f 196 191 194
f 196 192 194
f 194 192 196
f 197 192 193
f 198 193 195
f 195 191 196
f 192 196 197
f 197 196 192
f 198 197 193
f 195 199 198
f 199 195 196
f 200 197 196
f 196 197 200
f 201 197 198
f 201 198 199
f 200 199 196
f 197 200 202
f 202 200 197
f 202 197 201
f 199 203 201
f 203 199 200
f 200 204 202
f 202 204 200
f 205 202 201
f 205 201 203
f 206 203 200
f 204 200 206
f 206 200 204
f 204 202 205
f 203 207 205
f 207 203 206
f 208 204 206
f 206 204 208
f 209 204 205
f 209 205 207
f 208 207 206
f 204 208 210
f 210 208 204
f 210 204 209
f 209 207 211
f 212 207 208
f 208 213 210
f 210 213 208
f 213 210 209
f 214 211 207
f 211 213 209
f 214 207 212
f 213 208 212
f 212 208 213
f 214 215 211
f 216 213 211
f 217 214 212
f 217 213 212
f 212 213 217
f 218 211 215
f 215 214 217
f 213 217 216
f 216 217 213
f 218 216 211
f 215 219 218
f 220 215 217
f 220 216 217
f 217 216 220
f 221 216 218
f 222 218 219
f 219 215 220
f 216 220 221
f 221 220 216
f 222 221 218
f 219 223 222
f 224 219 220
f 220 225 221
f 221 225 220
f 225 221 222
f 226 222 223
f 223 219 227
f 227 219 224
f 225 220 224
f 224 220 225
f 228 225 222
f 226 228 222
f 226 223 229
f 230 223 227
f 227 225 224
f 224 225 227
f 225 227 228
f 228 227 225
f 231 228 226
f 232 229 223
f 229 233 226
f 234 223 230
f 231 227 230
f 230 227 231
f 227 231 228
f 228 231 227
f 233 231 226
f 232 235 229
f 232 223 234
f 236 233 229
f 233 230 234
f 234 230 233
f 230 233 231
f 231 233 230
f 236 229 235
f 235 232 234
f 237 233 236
f 234 237 233
f 233 237 234
f 235 238 236
f 239 235 234
f 240 237 236
f 237 234 239
f 239 234 237
f 240 236 238
f 238 235 239
f 241 237 240
f 239 241 237
f 237 241 239
f 240 238 242
f 243 238 239
f 242 241 240
f 241 239 243
f 243 239 241
f 244 242 238
f 244 238 243
f 245 241 242
f 243 241 246
f 244 247 242
f 247 244 243
f 248 241 245
f 245 242 247
f 249 246 241
f 246 250 243
f 251 247 243
f 252 241 248
f 248 245 251
f 247 251 245
f 249 253 246
f 249 241 253
f 250 254 243
f 250 246 253
f 255 251 243
f 256 241 252
f 248 251 252
f 253 241 257
f 254 258 243
f 250 253 254
f 255 252 251
f 259 255 243
f 260 241 256
f 256 252 259
f 257 241 261
f 257 254 253
f 258 262 243
f 254 257 258
f 255 259 252
f 263 259 243
f 264 241 260
f 260 256 263
f 259 263 256
f 261 241 264
f 261 258 257
f 262 263 243
f 258 261 262
f 260 263 264
f 264 262 261
f 262 264 263
f 265 266 267
f 266 265 268
f 268 265 270
f 271 266 268
f 268 270 274
f 266 271 272
f 274 271 268
f 271 269 272
f 269 271 273
f 274 270 276
f 271 274 277
f 273 271 275
f 274 276 278
f 274 279 277
f 275 271 277
f 278 276 281
f 279 274 278
f 280 277 279
f 275 277 280
f 278 281 283
f 278 284 279
f 280 279 282
f 283 281 285
f 284 278 283
f 282 279 284
f 283 285 287
f 283 288 284
f 282 284 286
f 287 285 290
f 288 283 287
f 286 284 288
f 286 288 289
f 287 290 291
f 287 292 288
f 289 288 293
f 287 291 294
f 292 287 294
f 293 288 292
f 294 291 295
f 296 292 294
f 293 292 297
f 294 295 296
f 292 296 298
f 297 292 298
f 296 295 300
f 296 301 298
f 297 298 299
f 296 300 302
f 301 296 302
f 299 298 301
f 302 300 303
f 302 304 301
f 299 301 305
f 302 303 306
f 304 302 306
f 305 301 304
f 306 303 308
f 309 304 306
f 305 304 307
f 306 308 310
f 304 309 311
f 306 310 309
f 307 304 312
f 309 313 311
f 312 304 311
f 309 310 314
f 313 309 315
f 316 311 313
f 312 311 316
f 309 314 315
f 315 317 313
f 316 313 318
f 315 314 319
f 317 315 320
f 318 313 317
f 315 319 320
f 320 321 317
f 318 317 321
f 320 319 323
f 321 320 323
f 318 321 322
f 323 319 324
f 323 325 321
f 322 321 325
f 323 324 327
f 325 323 327
f 322 325 328
f 327 324 326
f 327 329 325
f 328 325 329
f 327 326 331
f 329 327 331
f 328 329 330
f 331 326 332
f 333 329 331
f 330 329 334
f 331 332 335
f 329 333 336
f 331 335 333
f 334 329 336
f 333 337 336
f 333 335 338
f 334 336 339
f 337 333 340
f 339 336 337
f 333 338 340
f 340 341 337
f 339 337 342
f 340 338 343
f 341 340 344
f 342 337 341
f 340 343 344
f 344 345 341
f 342 341 346
f 344 343 347
f 345 344 348
f 349 341 345
f 346 341 349
f 344 347 350
f 344 350 348
f 351 345 348
f 349 345 352
f 348 350 353
f 345 351 354
f 348 355 351
f 352 345 356
f 348 353 355
f 351 357 354
f 356 345 354
f 351 355 358
f 357 351 358
f 356 354 357
f 358 355 359
f 358 360 357
f 356 357 361
f 358 359 362
f 360 358 362
f 361 357 360
f 362 359 363
f 364 360 362
f 361 360 365
f 362 363 364
f 360 364 366
f 365 360 366
f 364 363 367
f 368 363 365
f 364 369 366
f 365 366 369
f 367 363 370
f 369 364 367
f 363 368 371
f 365 372 368
f 365 369 373
f 370 363 374
f 373 367 370
f 367 373 369
f 368 375 371
f 375 363 371
f 365 376 372
f 375 368 372
f 365 373 377
f 374 363 378
f 374 373 370
f 379 363 375
f 365 380 376
f 376 375 372
f 373 374 377
f 365 377 381
f 378 363 382
f 381 374 378
f 383 363 379
f 375 376 379
f 365 384 380
f 380 379 376
f 374 381 377
f 365 381 385
f 382 363 386
f 385 378 382
f 378 385 381
f 386 363 383
f 379 380 383
f 365 385 384
f 384 383 380
f 386 385 382
f 383 384 386
f 385 386 384
f 267 266 265
f 268 265 266
f 266 269 267
f 267 269 266
f 269 265 267
f 267 265 269
f 270 265 268
f 268 266 271
f 269 266 272
f 272 266 269
f 265 269 273
f 273 269 265
f 273 270 265
f 265 270 273
f 274 270 268
f 272 271 266
f 268 271 274
f 272 269 271
f 273 271 269
f 270 273 275
f 275 273 270
f 276 270 274
f 277 274 271
f 275 271 273
f 275 276 270
f 270 276 275
f 278 276 274
f 277 279 274
f 277 271 275
f 276 275 280
f 280 275 276
f 281 276 278
f 278 274 279
f 279 277 280
f 280 277 275
f 282 276 280
f 280 276 282
f 276 282 281
f 281 282 276
f 283 281 278
f 279 284 278
f 282 279 280
f 282 285 281
f 281 285 282
f 285 281 283
f 283 278 284
f 284 279 282
f 285 282 286
f 286 282 285
f 287 285 283
f 284 288 283
f 286 284 282
f 289 285 286
f 286 285 289
f 290 285 287
f 287 283 288
f 288 284 286
f 285 289 290
f 290 289 285
f 289 288 286
f 291 290 287
f 288 292 287
f 293 290 289
f 289 290 293
f 293 288 289
f 290 293 291
f 291 293 290
f 294 291 287
f 294 287 292
f 292 288 293
f 293 295 291
f 291 295 293
f 295 291 294
f 294 292 296
f 297 292 293
f 295 293 297
f 297 293 295
f 296 295 294
f 298 296 292
f 298 292 297
f 299 295 297
f 297 295 299
f 300 295 296
f 298 301 296
f 299 298 297
f 295 299 300
f 300 299 295
f 302 300 296
f 302 296 301
f 301 298 299
f 299 303 300
f 300 303 299
f 303 300 302
f 301 304 302
f 305 301 299
f 303 299 305
f 305 299 303
f 306 303 302
f 306 302 304
f 304 301 305
f 307 303 305
f 305 303 307
f 308 303 306
f 306 304 309
f 307 304 305
f 303 307 308
f 308 307 303
f 310 308 306
f 311 309 304
f 309 310 306
f 312 304 307
f 307 310 308
f 308 310 307
f 311 313 309
f 311 304 312
f 314 310 309
f 310 307 312
f 312 307 310
f 315 309 313
f 313 311 316
f 316 311 312
f 310 316 314
f 314 316 310
f 315 314 309
f 316 310 312
f 312 310 316
f 313 317 315
f 318 313 316
f 318 314 316
f 316 314 318
f 319 314 315
f 320 315 317
f 317 313 318
f 314 318 319
f 319 318 314
f 320 319 315
f 317 321 320
f 321 317 318
f 322 319 318
f 318 319 322
f 323 319 320
f 323 320 321
f 322 321 318
f 319 322 324
f 324 322 319
f 324 319 323
f 321 325 323
f 325 321 322
f 322 326 324
f 324 326 322
f 327 324 323
f 327 323 325
f 328 325 322
f 326 322 328
f 328 322 326
f 326 324 327
f 325 329 327
f 329 325 328
f 330 326 328
f 328 326 330
f 331 326 327
f 331 327 329
f 330 329 328
f 326 330 332
f 332 330 326
f 332 326 331
f 331 329 333
f 334 329 330
f 330 335 332
f 332 335 330
f 335 332 331
f 336 333 329
f 333 335 331
f 336 329 334
f 335 330 334
f 334 330 335
f 336 337 333
f 338 335 333
f 339 336 334
f 339 335 334
f 334 335 339
f 340 333 337
f 337 336 339
f 335 339 338
f 338 339 335
f 340 338 333
f 337 341 340
f 342 337 339
f 342 338 339
f 339 338 342
f 343 338 340
f 344 340 341
f 341 337 342
f 338 342 343
f 343 342 338
f 344 343 340
f 341 345 344
f 346 341 342
f 342 347 343
f 343 347 342
f 347 343 344
f 348 344 345
f 345 341 349
f 349 341 346
f 347 342 346
f 346 342 347
f 350 347 344
f 348 350 344
f 348 345 351
f 352 345 349
f 349 347 346
f 346 347 349
f 347 349 350
f 350 349 347
f 353 350 348
f 354 351 345
f 351 355 348
f 356 345 352
f 353 349 352
f 352 349 353
f 349 353 350
f 350 353 349
f 355 353 348
f 354 357 351
f 354 345 356
f 358 355 351
f 355 352 356
f 356 352 355
f 352 355 353
f 353 355 352
f 358 351 357
f 357 354 356
f 359 355 358
f 356 359 355
f 355 359 356
f 357 360 358
f 361 357 356
f 362 359 358
f 359 356 361
f 361 356 359
f 362 358 360
f 360 357 361
f 363 359 362
f 361 363 359
f 359 363 361
f 362 360 364
f 365 360 361
f 364 363 362
f 363 361 365
f 365 361 363
f 366 364 360
f 366 360 365
f 367 363 364
f 365 363 368
f 366 369 364
f 369 366 365
f 370 363 367
f 367 364 369
f 371 368 363
f 368 372 365
f 373 369 365
f 374 363 370
f 370 367 373
f 369 373 367
f 371 375 368
f 371 363 375
f 372 376 365
f 372 368 375
f 377 373 365
f 378 363 374
f 370 373 374
f 375 363 379
f 376 380 365
f 372 375 376
f 377 374 373
f 381 377 365
f 382 363 378
f 378 374 381
f 379 363 383
f 379 376 375
f 380 384 365
f 376 379 380
f 377 381 374
f 385 381 365
f 386 363 382
f 382 378 385
f 381 385 378
f 383 363 386
f 383 380 379
f 384 385 365
f 380 383 384
f 382 385 386
f 386 384 383
f 384 386 385
f 387 388 389
f 391 389 388
f 393 389 391
f 391 388 394
f 392 394 388
f 392 390 394
f 396 393 391
f 391 394 396
f 395 394 390
f 398 393 396
f 399 396 394
f 397 394 395
f 400 398 396
f 399 401 396
f 399 394 397
f 403 398 400
f 400 396 401
f 401 399 402
f 402 399 397
f 405 403 400
f 401 406 400
f 404 401 402
f 407 403 405
f 405 400 406
f 406 401 404
f 409 407 405
f 406 410 405
f 408 406 404
f 412 407 409
f 409 405 410
f 410 406 408
f 411 410 408
f 413 412 409
f 410 414 409
f 415 410 411
f 416 413 409
f 414 410 415
f 416 409 414
f 417 413 416
f 418 414 415
f 416 414 419
f 419 417 416
f 420 414 418
f 420 419 414
f 422 417 419
f 421 420 418
f 420 423 419
f 424 422 419
f 423 420 421
f 424 419 423
f 425 422 424
f 426 423 421
f 423 427 424
f 428 425 424
f 427 423 426
f 428 424 427
f 430 425 428
f 429 427 426
f 428 427 431
f 432 430 428
f 433 427 429
f 434 431 427
f 431 432 428
f 434 427 433
f 434 435 431
f 436 432 431
f 437 434 433
f 435 434 437
f 438 431 435
f 438 436 431
f 439 435 437
f 435 440 438
f 441 436 438
f 440 435 439
f 442 438 440
f 442 441 438
f 443 440 439
f 440 443 442
f 445 441 442
f 444 443 439
f 445 442 443
f 446 441 445
f 447 443 444
f 443 447 445
f 449 446 445
f 450 447 444
f 449 445 447
f 448 446 449
f 451 447 450
f 447 451 449
f 452 448 449
f 453 451 450
f 452 449 451
f 454 448 452
f 455 451 453
f 452 451 456
f 457 454 452
f 458 451 455
f 458 456 451
f 456 457 452
f 459 458 455
f 458 460 456
f 461 457 456
f 460 458 459
f 462 456 460
f 462 461 456
f 463 460 459
f 460 464 462
f 465 461 462
f 464 460 463
f 466 462 464
f 466 465 462
f 467 464 463
f 464 469 466
f 468 465 466
f 470 464 467
f 469 464 470
f 471 466 469
f 472 468 466
f 473 469 470
f 471 472 466
f 471 469 474
f 475 469 473
f 476 472 471
f 477 474 469
f 474 478 471
f 477 469 475
f 478 476 471
f 477 479 474
f 480 478 474
f 479 477 475
f 480 474 479
f 481 478 480
f 482 479 475
f 479 483 480
f 484 481 480
f 483 479 482
f 484 480 483
f 485 481 484
f 486 483 482
f 484 483 487
f 487 485 484
f 488 483 486
f 486 485 489
f 488 487 483
f 490 485 487
f 491 488 486
f 492 489 485
f 489 493 486
f 488 491 487
f 494 485 490
f 490 487 491
f 495 491 486
f 492 496 489
f 492 485 496
f 493 489 496
f 493 497 486
f 498 485 494
f 494 490 495
f 491 495 490
f 499 495 486
f 496 485 500
f 493 496 497
f 497 501 486
f 502 485 498
f 494 495 498
f 499 498 495
f 503 499 486
f 500 485 504
f 500 497 496
f 497 500 501
f 501 505 486
f 506 485 502
f 502 498 503
f 499 503 498
f 507 503 486
f 504 485 508
f 504 501 500
f 501 504 505
f 505 507 486
f 508 485 506
f 506 502 507
f 503 507 502
f 508 505 504
f 505 508 507
f 506 507 508
f 389 388 387
f 387 390 388
f 388 390 387
f 388 389 391
f 387 389 390
f 390 389 387
f 392 388 390
f 390 388 392
f 391 389 393
f 394 388 391
f 395 390 389
f 389 390 395
f 388 394 392
f 394 390 392
f 389 393 395
f 395 393 389
f 391 393 396
f 396 394 391
f 390 394 395
f 397 395 393
f 393 395 397
f 396 393 398
f 394 396 399
f 395 394 397
f 393 398 397
f 397 398 393
f 396 398 400
f 396 401 399
f 397 394 399
f 402 397 398
f 398 397 402
f 400 398 403
f 401 396 400
f 402 399 401
f 397 399 402
f 402 398 404
f 404 398 402
f 403 404 398
f 398 404 403
f 400 403 405
f 400 406 401
f 402 401 404
f 403 407 404
f 404 407 403
f 405 403 407
f 406 400 405
f 404 401 406
f 408 404 407
f 407 404 408
f 405 407 409
f 405 410 406
f 404 406 408
f 408 407 411
f 411 407 408
f 409 407 412
f 410 405 409
f 408 406 410
f 412 411 407
f 407 411 412
f 408 410 411
f 409 412 413
f 409 414 410
f 411 412 415
f 415 412 411
f 411 410 415
f 413 415 412
f 412 415 413
f 409 413 416
f 415 410 414
f 414 409 416
f 413 417 415
f 415 417 413
f 416 413 417
f 415 414 418
f 419 414 416
f 418 415 417
f 417 415 418
f 416 417 419
f 418 414 420
f 414 419 420
f 418 417 421
f 421 417 418
f 419 417 422
f 418 420 421
f 419 423 420
f 422 421 417
f 417 421 422
f 419 422 424
f 421 420 423
f 423 419 424
f 422 425 421
f 421 425 422
f 424 422 425
f 421 423 426
f 424 427 423
f 426 421 425
f 425 421 426
f 424 425 428
f 426 423 427
f 427 424 428
f 426 425 429
f 429 425 426
f 428 425 430
f 426 427 429
f 431 427 428
f 430 429 425
f 425 429 430
f 428 430 432
f 429 427 433
f 427 431 434
f 428 432 431
f 430 432 429
f 429 432 430
f 433 427 434
f 433 429 432
f 432 429 433
f 431 435 434
f 431 432 436
f 433 434 437
f 433 432 437
f 437 432 433
f 437 434 435
f 435 431 438
f 436 437 432
f 432 437 436
f 431 436 438
f 437 435 439
f 438 440 435
f 437 436 439
f 439 436 437
f 438 436 441
f 439 435 440
f 440 438 442
f 441 439 436
f 436 439 441
f 438 441 442
f 439 440 443
f 442 443 440
f 439 441 444
f 444 441 439
f 442 441 445
f 439 443 444
f 443 442 445
f 446 444 441
f 441 444 446
f 445 441 446
f 444 443 447
f 445 447 443
f 446 448 444
f 444 448 446
f 445 446 449
f 444 447 450
f 447 445 449
f 449 446 448
f 450 444 448
f 448 444 450
f 450 447 451
f 449 451 447
f 449 448 452
f 450 448 453
f 453 448 450
f 450 451 453
f 451 449 452
f 452 448 454
f 454 453 448
f 448 453 454
f 453 451 455
f 456 451 452
f 452 454 457
f 454 457 453
f 453 457 454
f 455 451 458
f 455 453 457
f 457 453 455
f 451 456 458
f 452 457 456
f 455 458 459
f 455 457 459
f 459 457 455
f 456 460 458
f 456 457 461
f 459 458 460
f 461 459 457
f 457 459 461
f 460 456 462
f 456 461 462
f 459 460 463
f 459 461 463
f 463 461 459
f 462 464 460
f 462 461 465
f 463 460 464
f 465 463 461
f 461 463 465
f 464 462 466
f 462 465 466
f 463 464 467
f 465 468 463
f 463 468 465
f 466 469 464
f 466 465 468
f 467 464 470
f 467 463 468
f 468 463 467
f 470 464 469
f 469 466 471
f 466 468 472
f 467 468 470
f 470 468 467
f 470 469 473
f 466 472 471
f 474 469 471
f 472 470 468
f 468 470 472
f 473 469 475
f 473 470 476
f 476 470 473
f 471 472 476
f 469 474 477
f 471 478 474
f 472 476 470
f 470 476 472
f 475 469 477
f 475 473 478
f 478 473 475
f 476 478 473
f 473 478 476
f 471 476 478
f 474 479 477
f 474 478 480
f 475 477 479
f 478 481 475
f 475 481 478
f 479 474 480
f 480 478 481
f 475 479 482
f 482 475 481
f 481 475 482
f 480 483 479
f 480 481 484
f 482 479 483
f 481 485 482
f 482 485 481
f 483 480 484
f 484 481 485
f 482 483 486
f 486 482 485
f 485 482 486
f 487 483 484
f 484 485 487
f 486 483 488
f 489 485 486
f 483 487 488
f 487 485 490
f 486 488 491
f 485 489 492
f 486 493 489
f 487 491 488
f 490 485 494
f 491 487 490
f 486 491 495
f 489 496 492
f 496 485 492
f 496 489 493
f 486 497 493
f 494 485 498
f 495 490 494
f 490 495 491
f 486 495 499
f 500 485 496
f 497 496 493
f 486 501 497
f 498 485 502
f 498 495 494
f 495 498 499
f 486 499 503
f 504 485 500
f 496 497 500
f 501 500 497
f 486 505 501
f 502 485 506
f 503 498 502
f 498 503 499
f 486 503 507
f 508 485 504
f 500 501 504
f 505 504 501
f 486 507 505
f 506 485 508
f 507 502 506
f 502 507 503
f 504 505 508
f 507 508 505
f 508 507 506
f 509 510 511
f 513 511 510
f 515 511 513
f 513 510 516
f 514 516 510
f 514 512 516
f 518 515 513
f 513 516 518
f 517 516 512
f 520 515 518
f 521 518 516
f 519 516 517
f 522 520 518
f 521 523 518
f 521 516 519
f 525 520 522
f 522 518 523
f 523 521 524
f 524 521 519
f 527 525 522
f 523 528 522
f 526 523 524
f 529 525 527
f 527 522 528
f 528 523 526
f 531 529 527
f 528 532 527
f 530 528 526
f 534 529 531
f 531 527 532
f 532 528 530
f 533 532 530
f 535 534 531
f 532 536 531
f 537 532 533
f 538 535 531
f 536 532 537
f 538 531 536
f 539 535 538
f 540 536 537
f 538 536 541
f 541 539 538
f 542 536 540
f 542 541 536
f 544 539 541
f 543 542 540
f 542 545 541
f 546 544 541
f 545 542 543
f 546 541 545
f 547 544 546
f 548 545 543
f 545 549 546
f 550 547 546
f 549 545 548
f 550 546 549
f 552 547 550
f 551 549 548
f 550 549 553
f 554 552 550
f 555 549 551
f 556 553 549
f 553 554 550
f 556 549 555
f 556 557 553
f 558 554 553
f 559 556 555
f 557 556 559
f 560 553 557
f 560 558 553
f 561 557 559
f 557 562 560
f 563 558 560
f 562 557 561
f 564 560 562
f 564 563 560
f 565 562 561
f 562 565 564
f 567 563 564
f 566 565 561
f 567 564 565
f 568 563 567
f 569 565 566
f 565 569 567
f 571 568 567
f 572 569 566
f 571 567 569
f 570 568 571
f 573 569 572
f 569 573 571
f 574 570 571
f 575 573 572
f 574 571 573
f 576 570 574
f 577 573 575
f 574 573 578
f 579 576 574
f 580 573 577
f 580 578 573
f 578 579 574
f 581 580 577
f 580 582 578
f 583 579 578
f 582 580 581
f 584 578 582
f 584 583 578
f 585 582 581
f 582 586 584
f 587 583 584
f 586 582 585
f 588 584 586
f 588 587 584
f 589 586 585
f 586 591 588
f 590 587 588
f 592 586 589
f 591 586 592
f 593 588 591
f 594 590 588
f 595 591 592
f 593 594 588
f 593 591 596
f 597 591 595
f 598 594 593
f 599 596 591
f 596 600 593
f 599 591 597
f 600 598 593
f 599 601 596
f 602 600 596
f 601 599 597
f 602 596 601
f 603 600 602
f 604 601 597
f 601 605 602
f 606 603 602
f 605 601 604
f 606 602 605
f 607 603 606
f 608 605 604
f 606 605 609
f 609 607 606
f 610 605 608
f 608 607 611
f 610 609 605
f 612 607 609
f 613 610 608
f 614 611 607
f 611 615 608
f 610 613 609
f 616 607 612
f 612 609 613
f 617 613 608
f 614 618 611
f 614 607 618
f 615 611 618
f 615 619 608
f 620 607 616
f 616 612 617
f 613 617 612
f 621 617 608
f 618 607 622
f 615 618 619
f 619 623 608
f 624 607 620
f 616 617 620
f 621 620 617
f 625 621 608
f 622 607 626
f 622 619 618
f 619 622 623
f 623 627 608
f 628 607 624
f 624 620 625
f 621 625 620
f 629 625 608
f 626 607 630
f 626 623 622
f 623 626 627
f 627 629 608
f 630 607 628
f 628 624 629
f 625 629 624
f 630 627 626
f 627 630 629
f 628 629 630
f 511 510 509
f 509 512 510
f 510 512 509
f 510 511 513
f 509 511 512
f 512 511 509
f 514 510 512
f 512 510 514
f 513 511 515
f 516 510 513
f 517 512 511
f 511 512 517
f 510 516 514
f 516 512 514
f 511 515 517
f 517 515 511
f 513 515 518
f 518 516 513
f 512 516 517
f 519 517 515
f 515 517 519
f 518 515 520
f 516 518 521
f 517 516 519
f 515 520 519
f 519 520 515
f 518 520 522
f 518 523 521
f 519 516 521
f 524 519 520
f 520 519 524
f 522 520 525
f 523 518 522
f 524 521 523
f 519 521 524
f 524 520 526
f 526 520 524
f 525 526 520
f 520 526 525
f 522 525 527
f 522 528 523
f 524 523 526
f 525 529 526
f 526 529 525
f 527 525 529
f 528 522 527
f 526 523 528
f 530 526 529
f 529 526 530
f 527 529 531
f 527 532 528
f 526 528 530
f 530 529 533
f 533 529 530
f 531 529 534
f 532 527 531
f 530 528 532
f 534 533 529
f 529 533 534
f 530 532 533
f 531 534 535
f 531 536 532
f 533 534 537
f 537 534 533
f 533 532 537
f 535 537 534
f 534 537 535
f 531 535 538
f 537 532 536
f 536 531 538
f 535 539 537
f 537 539 535
f 538 535 539
f 537 536 540
f 541 536 538
f 540 537 539
f 539 537 540
f 538 539 541
f 540 536 542
f 536 541 542
f 540 539 543
f 543 539 540
f 541 539 544
f 540 542 543
f 541 545 542
f 544 543 539
f 539 543 544
f 541 544 546
f 543 542 545
f 545 541 546
f 544 547 543
f 543 547 544
f 546 544 547
f 543 545 548
f 546 549 545
f 548 543 547
f 547 543 548
f 546 547 550
f 548 545 549
f 549 546 550
f 548 547 551
f 551 547 548
f 550 547 552
f 548 549 551
f 553 549 550
f 552 551 547
f 547 551 552
f 550 552 554
f 551 549 555
f 549 553 556
f 550 554 553
f 552 554 551
f 551 554 552
f 555 549 556
f 555 551 554
f 554 551 555
f 553 557 556
f 553 554 558
f 555 556 559
f 555 554 559
f 559 554 555
f 559 556 557
f 557 553 560
f 558 559 554
f 554 559 558
f 553 558 560
f 559 557 561
f 560 562 557
f 559 558 561
f 561 558 559
f 560 558 563
f 561 557 562
f 562 560 564
f 563 561 558
f 558 561 563
f 560 563 564
f 561 562 565
f 564 565 562
f 561 563 566
f 566 563 561
f 564 563 567
f 561 565 566
f 565 564 567
f 568 566 563
f 563 566 568
f 567 563 568
f 566 565 569
f 567 569 565
f 568 570 566
f 566 570 568
f 567 568 571
f 566 569 572
f 569 567 571
f 571 568 570
f 572 566 570
f 570 566 572
f 572 569 573
f 571 573 569
f 571 570 574
f 572 570 575
f 575 570 572
f 572 573 575
f 573 571 574
f 574 570 576
f 576 575 570
f 570 575 576
f 575 573 577
f 578 573 574
f 574 576 579
f 576 579 575
f 575 579 576
f 577 573 580
f 577 575 579
f 579 575 577
f 573 578 580
f 574 579 578
f 577 580 581
f 577 579 581
f 581 579 577
f 578 582 580
f 578 579 583
f 581 580 582
f 583 581 579
f 579 581 583
f 582 578 584
f 578 583 584
f 581 582 585
f 581 583 585
f 585 583 581
f 584 586 582
f 584 583 587
f 585 582 586
f 587 585 583
f 583 585 587
f 586 584 588
f 584 587 588
f 585 586 589
f 587 590 585
f 585 590 587
f 588 591 586
f 588 587 590
f 589 586 592
f 589 585 590
f 590 585 589
f 592 586 591
f 591 588 593
f 588 590 594
f 589 590 592
f 592 590 589
f 592 591 595
f 588 594 593
f 596 591 593
f 594 592 590
f 590 592 594
f 595 591 597
f 595 592 598
f 598 592 595
f 593 594 598
f 591 596 599
f 593 600 596
f 594 598 592
f 592 598 594
f 597 591 599
f 597 595 600
f 600 595 597
f 598 600 595
f 595 600 598
f 593 598 600
f 596 601 599
f 596 600 602
f 597 599 601
f 600 603 597
f 597 603 600
f 601 596 602
f 602 600 603
f 597 601 604
f 604 597 603
f 603 597 604
f 602 605 601
f 602 603 606
f 604 601 605
f 603 607 604
f 604 607 603
f 605 602 606
f 606 603 607
f 604 605 608
f 608 604 607
f 607 604 608
f 609 605 606
f 606 607 609
f 608 605 610
f 611 607 608
f 605 609 610
f 609 607 612
f 608 610 613
f 607 611 614
f 608 615 611
f 609 613 610
f 612 607 616
f 613 609 612
f 608 613 617
f 611 618 614
f 618 607 614
f 618 611 615
f 608 619 615
f 616 607 620
f 617 612 616
f 612 617 613
f 608 617 621
f 622 607 618
f 619 618 615
f 608 623 619
f 620 607 624
f 620 617 616
f 617 620 621
f 608 621 625
f 626 607 622
f 618 619 622
f 623 622 619
f 608 627 623
f 624 607 628
f 625 620 624
f 620 625 621
f 608 625 629
f 630 607 626
f 622 623 626
f 627 626 623
f 608 629 627
f 628 607 630
f 629 624 628
f 624 629 625
f 626 627 630
f 629 630 627
f 630 629 628
f 631 632 633
f 635 633 632
f 637 633 635
f 635 632 638
f 636 638 632
f 636 634 638
f 640 637 635
f 635 638 640
f 639 638 634
f 642 637 640
f 643 640 638
f 641 638 639
f 644 642 640
f 643 645 640
f 643 638 641
f 647 642 644
f 644 640 645
f 645 643 646
f 646 643 641
f 649 647 644
f 645 650 644
f 648 645 646
f 651 647 649
f 649 644 650
f 650 645 648
f 653 651 649
f 650 654 649
f 652 650 648
f 656 651 653
f 653 649 654
f 654 650 652
f 655 654 652
f 657 656 653
f 654 658 653
f 659 654 655
f 660 657 653
f 658 654 659
f 660 653 658
f 661 657 660
f 662 658 659
f 660 658 663
f 663 661 660
f 664 658 662
f 664 663 658
f 666 661 663
f 665 664 662
f 664 667 663
f 668 666 663
f 667 664 665
f 668 663 667
f 669 666 668
f 670 667 665
f 667 671 668
f 672 669 668
f 671 667 670
f 672 668 671
f 674 669 672
f 673 671 670
f 672 671 675
f 676 674 672
f 677 671 673
f 678 675 671
f 675 676 672
f 678 671 677
f 678 679 675
f 680 676 675
f 681 678 677
f 679 678 681
f 682 675 679
f 682 680 675
f 683 679 681
f 679 684 682
f 685 680 682
f 684 679 683
f 686 682 684
f 686 685 682
f 687 684 683
f 684 687 686
f 689 685 686
f 688 687 683
f 689 686 687
f 690 685 689
f 691 687 688
f 687 691 689
f 693 690 689
f 694 691 688
f 693 689 691
f 692 690 693
f 695 691 694
f 691 695 693
f 696 692 693
f 697 695 694
f 696 693 695
f 698 692 696
f 699 695 697
f 696 695 700
f 701 698 696
f 702 695 699
f 702 700 695
f 700 701 696
f 703 702 699
f 702 704 700
f 705 701 700
f 704 702 703
f 706 700 704
f 706 705 700
f 707 704 703
f 704 708 706
f 709 705 706
f 708 704 707
f 710 706 708
f 710 709 706
f 711 708 707
f 708 713 710
f 712 709 710
f 714 708 711
f 713 708 714
f 715 710 713
f 716 712 710
f 717 713 714
f 715 716 710
f 715 713 718
f 719 713 717
f 720 716 715
f 721 718 713
f 718 722 715
f 721 713 719
f 722 720 715
f 721 723 718
f 724 722 718
f 723 721 719
f 724 718 723
f 725 722 724
f 726 723 719
f 723 727 724
f 728 725 724
f 727 723 726
f 728 724 727
f 729 725 728
f 730 727 726
f 728 727 731
f 731 729 728
f 732 727 730
f 730 729 733
f 732 731 727
f 734 729 731
f 735 732 730
f 736 733 729
f 733 737 730
f 732 735 731
f 738 729 734
f 734 731 735
f 739 735 730
f 736 740 733
f 736 729 740
f 737 733 740
f 737 741 730
f 742 729 738
f 738 734 739
f 735 739 734
f 743 739 730
f 740 729 744
f 737 740 741
f 741 745 730
f 746 729 742
f 738 739 742
f 743 742 739
f 747 743 730
f 744 729 748
f 744 741 740
f 741 744 745
f 745 749 730
f 750 729 746
f 746 742 747
f 743 747 742
f 751 747 730
f 748 729 752
f 748 745 744
f 745 748 749
f 749 751 730
f 752 729 750
f 750 746 751
f 747 751 746
f 752 749 748
f 749 752 751
f 750 751 752
f 633 632 631
f 631 634 632
f 632 634 631
f 632 633 635
f 631 633 634
f 634 633 631
f 636 632 634
f 634 632 636
f 635 633 637
f 638 632 635
f 639 634 633
f 633 634 639
f 632 638 636
f 638 634 636
f 633 637 639
f 639 637 633
f 635 637 640
f 640 638 635
f 634 638 639
f 641 639 637
f 637 639 641
f 640 637 642
f 638 640 643
f 639 638 641
f 637 642 641
f 641 642 637
f 640 642 644
f 640 645 643
f 641 638 643
f 646 641 642
f 642 641 646
f 644 642 647
f 645 640 644
f 646 643 645
f 641 643 646
f 646 642 648
f 648 642 646
f 647 648 642
f 642 648 647
f 644 647 649
f 644 650 645
f 646 645 648
f 647 651 648
f 648 651 647
f 649 647 651
f 650 644 649
f 648 645 650
f 652 648 651
f 651 648 652
f 649 651 653
f 649 654 650
f 648 650 652
f 652 651 655
f 655 651 652
f 653 651 656
f 654 649 653
f 652 650 654
f 656 655 651
f 651 655 656
f 652 654 655
f 653 656 657
f 653 658 654
f 655 656 659
f 659 656 655
f 655 654 659
f 657 659 656
f 656 659 657
f 653 657 660
f 659 654 658
f 658 653 660
f 657 661 659
f 659 661 657
f 660 657 661
f 659 658 662
f 663 658 660
f 662 659 661
f 661 659 662
f 660 661 663
f 662 658 664
f 658 663 664
f 662 661 665
f 665 661 662
f 663 661 666
f 662 664 665
f 663 667 664
f 666 665 661
f 661 665 666
f 663 666 668
f 665 664 667
f 667 663 668
f 666 669 665
f 665 669 666
f 668 666 669
f 665 667 670
f 668 671 667
f 670 665 669
f 669 665 670
f 668 669 672
f 670 667 671
f 671 668 672
f 670 669 673
f 673 669 670
f 672 669 674
f 670 671 673
f 675 671 672
f 674 673 669
f 669 673 674
f 672 674 676
f 673 671 677
f 671 675 678
f 672 676 675
f 674 676 673
f 673 676 674
f 677 671 678
f 677 673 676
f 676 673 677
f 675 679 678
f 675 676 680
f 677 678 681
f 677 676 681
f 681 676 677
f 681 678 679
f 679 675 682
f 680 681 676
f 676 681 680
f 675 680 682
f 681 679 683
f 682 684 679
f 681 680 683
f 683 680 681
f 682 680 685
f 683 679 684
f 684 682 686
f 685 683 680
f 680 683 685
f 682 685 686
f 683 684 687
f 686 687 684
f 683 685 688
f 688 685 683
f 686 685 689
f 683 687 688
f 687 686 689
f 690 688 685
f 685 688 690
f 689 685 690
f 688 687 691
f 689 691 687
f 690 692 688
f 688 692 690
f 689 690 693
f 688 691 694
f 691 689 693
f 693 690 692
f 694 688 692
f 692 688 694
f 694 691 695
f 693 695 691
f 693 692 696
f 694 692 697
f 697 692 694
f 694 695 697
f 695 693 696
f 696 692 698
f 698 697 692
f 692 697 698
f 697 695 699
f 700 695 696
f 696 698 701
f 698 701 697
f 697 701 698
f 699 695 702
f 699 697 701
f 701 697 699
f 695 700 702
f 696 701 700
f 699 702 703
f 699 701 703
f 703 701 699
f 700 704 702
f 700 701 705
f 703 702 704
f 705 703 701
f 701 703 705
f 704 700 706
f 700 705 706
f 703 704 707
f 703 705 707
f 707 705 703
f 706 708 704
f 706 705 709
f 707 704 708
f 709 707 705
f 705 707 709
f 708 706 710
f 706 709 710
f 707 708 711
f 709 712 707
f 707 712 709
f 710 713 708
f 710 709 712
f 711 708 714
f 711 707 712
f 712 707 711
f 714 708 713
f 713 710 715
f 710 712 716
f 711 712 714
f 714 712 711
f 714 713 717
f 710 716 715
f 718 713 715
f 716 714 712
f 712 714 716
f 717 713 719
f 717 714 720
f 720 714 717
f 715 716 720
f 713 718 721
f 715 722 718
f 716 720 714
f 714 720 716
f 719 713 721
f 719 717 722
f 722 717 719
f 720 722 717
f 717 722 720
f 715 720 722
f 718 723 721
f 718 722 724
f 719 721 723
f 722 725 719
f 719 725 722
f 723 718 724
f 724 722 725
f 719 723 726
f 726 719 725
f 725 719 726
f 724 727 723
f 724 725 728
f 726 723 727
f 725 729 726
f 726 729 725
f 727 724 728
f 728 725 729
f 726 727 730
f 730 726 729
f 729 726 730
f 731 727 728
f 728 729 731
f 730 727 732
f 733 729 730
f 727 731 732
f 731 729 734
f 730 732 735
f 729 733 736
f 730 737 733
f 731 735 732
f 734 729 738
f 735 731 734
f 730 735 739
f 733 740 736
f 740 729 736
f 740 733 737
f 730 741 737
f 738 729 742
f 739 734 738
f 734 739 735
f 730 739 743
f 744 729 740
f 741 740 737
f 730 745 741
f 742 729 746
f 742 739 738
f 739 742 743
f 730 743 747
f 748 729 744
f 740 741 744
f 745 744 741
f 730 749 745
f 746 729 750
f 747 742 746
f 742 747 743
f 730 747 751
f 752 729 748
f 744 745 748
f 749 748 745
f 730 751 749
f 750 729 752
f 751 746 750
f 746 751 747
f 748 749 752
f 751 752 749
f 752 751 750
f 753 754 755
f 754 753 756
f 754 757 755
f 758 753 755
f 753 759 756
f 759 754 756
f 757 754 760
f 755 757 758
f 753 758 761
f 759 753 762
f 754 759 760
f 759 757 760
f 763 758 757
f 758 764 761
f 761 765 753
f 762 753 765
f 757 759 762
f 766 758 763
f 757 765 763
f 764 758 767
f 764 765 761
f 765 757 762
f 768 758 766
f 763 765 766
f 758 768 767
f 768 764 767
f 765 764 769
f 765 768 766
f 764 768 769
f 768 765 769
f 755 754 753
f 756 753 754
f 755 757 754
f 755 753 758
f 756 759 753
f 756 754 759
f 760 754 757
f 758 757 755
f 761 758 753
f 762 753 759
f 760 759 754
f 760 757 759
f 757 758 763
f 761 764 758
f 753 765 761
f 765 753 762
f 762 759 757
f 763 758 766
f 763 765 757
f 767 758 764
f 761 765 764
f 762 757 765
f 766 758 768
f 766 765 763
f 767 768 758
f 767 764 768
f 769 764 765
f 766 768 765
f 769 768 764
f 769 765 768
f 770 771 772
f 771 770 773
f 775 770 772
f 776 771 773
f 770 775 778
f 771 776 780
f 777 779 774
f 779 775 774
f 775 779 778
f 783 780 776
f 779 777 782
f 780 783 781
f 781 785 784
f 785 777 784
f 777 785 782
f 785 781 783
f 772 771 770
f 773 770 771
f 771 774 772
f 772 774 771
f 772 770 775
f 770 776 773
f 773 776 770
f 773 771 776
f 774 771 777
f 777 771 774
f 772 774 775
f 775 774 772
f 778 775 770
f 776 770 779
f 779 770 776
f 780 776 771
f 771 781 777
f 777 781 771
f 774 779 777
f 774 775 779
f 778 779 775
f 779 770 778
f 778 770 779
f 782 776 779
f 779 776 782
f 776 780 783
f 781 771 780
f 780 771 781
f 777 781 784
f 784 781 777
f 782 777 779
f 776 782 783
f 783 782 776
f 781 783 780
f 784 785 781
f 784 777 785
f 782 785 777
f 783 782 785
f 785 782 783
f 783 781 785
f 786 787 788
f 787 786 789
f 787 790 788
f 790 786 788
f 786 791 789
f 791 787 789
f 790 787 792
f 786 790 793
f 791 786 793
f 787 791 792
f 791 790 792
f 790 791 793
f 788 787 786
f 789 786 787
f 788 790 787
f 788 786 790
f 789 791 786
f 789 787 791
f 792 787 790
f 793 790 786
f 793 786 791
f 792 791 787
f 792 790 791
f 793 791 790
f 794 795 796
f 795 794 797
f 796 795 794
f 797 794 795
f 795 798 796
f 796 798 795
f 796 799 794
f 794 799 796
f 799 797 794
f 794 797 799
f 800 795 797
f 797 795 800
f 798 795 801
f 801 795 798
f 799 796 798
f 798 796 799
f 797 799 800
f 800 799 797
f 795 800 801
f 801 800 795
f 800 798 801
f 801 798 800
f 798 800 799
f 799 800 798
f 802 796 803
f 796 802 794
f 803 796 802
f 794 802 796
f 796 804 803
f 803 804 796
f 803 805 802
f 802 805 803
f 805 794 802
f 802 794 805
f 799 796 794
f 794 796 799
f 804 796 798
f 798 796 804
f 805 803 804
f 804 803 805
f 794 805 799
f 799 805 794
f 796 799 798
f 798 799 796
f 799 804 798
f 798 804 799
f 804 799 805
f 805 799 804
f 797 806 795
f 806 797 807
f 795 806 797
f 807 797 806
f 806 801 795
f 795 801 806
f 795 800 797
f 797 800 795
f 800 807 797
f 797 807 800
f 808 806 807
f 807 806 808
f 801 806 809
f 809 806 801
f 800 795 801
f 801 795 800
f 807 800 808
f 808 800 807
f 806 808 809
f 809 808 806
f 808 801 809
f 809 801 808
f 801 808 800
f 800 808 801
f 810 811 812
f 811 810 813
f 812 811 810
f 813 810 811
f 811 809 812
f 812 809 811
f 812 808 810
f 810 808 812
f 808 813 810
f 810 813 808
f 814 811 813
f 813 811 814
f 809 811 815
f 815 811 809
f 808 812 809
f 809 812 808
f 813 808 814
f 814 808 813
f 811 814 815
f 815 814 811
f 814 809 815
f 815 809 814
f 809 814 808
f 808 814 809
f 813 816 811
f 816 813 817
f 811 816 813
f 817 813 816
f 816 815 811
f 811 815 816
f 811 814 813
f 813 814 811
f 814 817 813
f 813 817 814
f 818 816 817
f 817 816 818
f 815 816 819
f 819 816 815
f 814 811 815
f 815 811 814
f 817 814 818
f 818 814 817
f 816 818 819
f 819 818 816
f 818 815 819
f 819 815 818
f 815 818 814
f 814 818 815
f 817 820 816
f 820 817 821
f 816 820 817
f 821 817 820
f 820 819 816
f 816 819 820
f 816 818 817
f 817 818 816
f 818 821 817
f 817 821 818
f 822 820 821
f 821 820 822
f 819 820 823
f 823 820 819
f 818 816 819
f 819 816 818
f 821 818 822
f 822 818 821
f 820 822 823
f 823 822 820
f 822 819 823
f 823 819 822
f 819 822 818
f 818 822 819
f 824 825 826
f 825 824 827
f 826 825 824
f 827 824 825
f 825 823 826
f 826 823 825
f 826 822 824
f 824 822 826
f 822 827 824
f 824 827 822
f 828 825 827
f 827 825 828
f 823 825 829
f 829 825 823
f 822 826 823
f 823 826 822
f 827 822 828
f 828 822 827
f 825 828 829
f 829 828 825
f 828 823 829
f 829 823 828
f 823 828 822
f 822 828 823
f 827 803 825
f 803 827 802
f 825 803 827
f 802 827 803
f 803 829 825
f 825 829 803
f 825 828 827
f 827 828 825
f 828 802 827
f 827 802 828
f 805 803 802
f 802 803 805
f 829 803 804
f 804 803 829
f 828 825 829
f 829 825 828
f 802 828 805
f 805 828 802
f 803 805 804
f 804 805 803
f 805 829 804
f 804 829 805
f 829 805 828
f 828 805 829
f 830 831 832
f 831 830 833
f 831 834 832
f 834 830 832
f 830 835 833
f 835 831 833
f 834 831 836
f 830 834 837
f 835 830 837
f 831 835 836
f 835 834 836
f 834 835 837
f 832 831 830
f 833 830 831
f 832 834 831
f 832 830 834
f 833 835 830
f 833 831 835
f 836 831 834
f 837 834 830
f 837 830 835
f 836 835 831
f 836 834 835
f 837 835 834
f 838 839 840
f 839 838 841
f 839 842 840
f 842 838 840
f 838 843 841
f 843 839 841
f 842 839 844
f 838 842 845
f 843 838 845
f 839 843 844
f 843 842 844
f 842 843 845
f 840 839 838
f 841 838 839
f 840 842 839
f 840 838 842
f 841 843 838
f 841 839 843
f 844 839 842
f 845 842 838
f 845 838 843
f 844 843 839
f 844 842 843
f 845 843 842
f 846 847 848
f 847 846 849
f 848 847 846
f 849 846 847
f 847 850 848
f 848 850 847
f 848 851 846
f 846 851 848
f 851 849 846
f 846 849 851
f 852 847 849
f 849 847 852
f 850 847 853
f 853 847 850
f 851 848 850
f 850 848 851
f 849 851 852
f 852 851 849
f 847 852 853
f 853 852 847
f 852 850 853
f 853 850 852
f 850 852 851
f 851 852 850
f 854 848 855
f 848 854 846
f 855 848 854
f 846 854 848
f 848 856 855
f 855 856 848
f 855 857 854
f 854 857 855
f 857 846 854
f 854 846 857
f 851 848 846
f 846 848 851
f 856 848 850
f 850 848 856
f 857 855 856
f 856 855 857
f 846 857 851
f 851 857 846
f 848 851 850
f 850 851 848
f 851 856 850
f 850 856 851
f 856 851 857
f 857 851 856
f 858 855 859
f 855 858 854
f 859 855 858
f 854 858 855
f 855 860 859
f 859 860 855
f 859 861 858
f 858 861 859
f 861 854 858
f 858 854 861
f 857 855 854
f 854 855 857
f 860 855 856
f 856 855 860
f 861 859 860
f 860 859 861
f 854 861 857
f 857 861 854
f 855 857 856
f 856 857 855
f 857 860 856
f 856 860 857
f 860 857 861
f 861 857 860
f 849 862 847
f 862 849 863
f 847 862 849
f 863 849 862
f 862 853 847
f 847 853 862
f 847 852 849
f 849 852 847
f 852 863 849
f 849 863 852
f 864 862 863
f 863 862 864
f 853 862 865
f 865 862 853
f 852 847 853
f 853 847 852
f 863 852 864
f 864 852 863
f 862 864 865
f 865 864 862
f 864 853 865
f 865 853 864
f 853 864 852
f 852 864 853
f 863 866 862
f 866 863 867
f 862 866 863
f 867 863 866
f 866 865 862
f 862 865 866
f 862 864 863
f 863 864 862
f 864 867 863
f 863 867 864
f 868 866 867
f 867 866 868
f 865 866 869
f 869 866 865
f 864 862 865
f 865 862 864
f 867 864 868
f 868 864 867
f 866 868 869
f 869 868 866
f 868 865 869
f 869 865 868
f 865 868 864
f 864 868 865
f 867 870 866
f 870 867 871
f 866 870 867
f 871 867 870
f 870 869 866
f 866 869 870
f 866 868 867
f 867 868 866
f 868 871 867
f 867 871 868
f 872 870 871
f 871 870 872
f 869 870 873
f 873 870 869
f 868 866 869
f 869 866 868
f 871 868 872
f 872 868 871
f 870 872 873
f 873 872 870
f 872 869 873
f 873 869 872
f 869 872 868
f 868 872 869
f 871 874 870
f 874 871 875
f 870 874 871
f 875 871 874
f 874 873 870
f 870 873 874
f 870 872 871
f 871 872 870
f 872 875 871
f 871 875 872
f 876 874 875
f 875 874 876
f 873 874 877
f 877 874 873
f 872 870 873
f 873 870 872
f 875 872 876
f 876 872 875
f 874 876 877
f 877 876 874
f 876 873 877
f 877 873 876
f 873 876 872
f 872 876 873
f 875 859 874
f 859 875 858
f 874 859 875
f 858 875 859
f 859 877 874
f 874 877 859
f 874 876 875
f 875 876 874
f 876 858 875
f 875 858 876
f 861 859 858
f 858 859 861
f 877 859 860
f 860 859 877
f 876 874 877
f 877 874 876
f 858 876 861
f 861 876 858
f 859 861 860
f 860 861 859
f 861 877 860
f 860 877 861
f 877 861 876
f 876 861 877
f 878 879 880
f 879 878 881
f 879 882 880
f 882 878 880
f 878 883 881
f 883 879 881
f 882 879 884
f 878 882 885
f 883 878 885
f 879 883 884
f 883 882 884
f 882 883 885
f 880 879 878
f 881 878 879
f 880 882 879
f 880 878 882
f 881 883 878
f 881 879 883
f 884 879 882
f 885 882 878
f 885 878 883
f 884 883 879
f 884 882 883
f 885 883 882
f 886 887 888
f 886 889 887
f 890 888 887
f 886 888 889
f 891 887 889
f 892 888 890
f 890 887 892
f 893 889 888
f 891 892 887
f 894 891 889
f 888 892 893
f 893 895 889
f 891 896 892
f 896 891 894
f 894 889 895
f 895 893 892
f 897 892 896
f 898 896 894
f 895 899 894
f 897 895 892
f 896 900 897
f 900 896 898
f 898 894 899
f 899 895 897
f 901 897 900
f 902 900 898
f 898 899 903
f 901 899 897
f 901 900 904
f 902 904 900
f 903 902 898
f 905 903 899
f 904 899 901
f 904 902 906
f 907 902 903
f 903 905 907
f 905 899 904
f 908 906 902
f 906 905 904
f 908 902 907
f 909 907 905
f 908 907 906
f 909 905 906
f 909 906 907
f 888 887 886
f 887 889 886
f 887 888 890
f 889 888 886
f 889 887 891
f 890 888 892
f 892 887 890
f 888 889 893
f 887 892 891
f 889 891 894
f 893 892 888
f 889 895 893
f 892 896 891
f 894 891 896
f 895 889 894
f 892 893 895
f 896 892 897
f 894 896 898
f 894 899 895
f 892 895 897
f 897 900 896
f 898 896 900
f 899 894 898
f 897 895 899
f 900 897 901
f 898 900 902
f 903 899 898
f 897 899 901
f 904 900 901
f 900 904 902
f 898 902 903
f 899 903 905
f 901 899 904
f 906 902 904
f 903 902 907
f 907 905 903
f 904 899 905
f 902 906 908
f 904 905 906
f 907 902 908
f 905 907 909
f 906 907 908
f 906 905 909
f 907 906 909
f 910 911 912
f 911 910 913
f 911 914 912
f 914 910 912
f 913 910 915
f 915 911 913
f 914 911 916
f 910 914 917
f 917 915 910
f 911 915 916
f 914 916 918
f 914 919 917
f 915 917 919
f 915 920 916
f 918 916 920
f 919 914 918
f 915 919 921
f 920 915 921
f 918 920 922
f 918 923 919
f 921 919 923
f 921 924 920
f 922 920 924
f 923 918 922
f 921 923 925
f 924 921 925
f 922 924 926
f 927 923 922
f 925 923 928
f 928 924 925
f 924 928 926
f 922 926 927
f 923 927 929
f 928 923 929
f 930 926 928
f 927 926 931
f 931 929 927
f 928 929 930
f 926 930 932
f 931 926 932
f 929 931 933
f 930 929 933
f 930 931 932
f 931 930 933
f 912 911 910
f 913 910 911
f 912 914 911
f 912 910 914
f 915 910 913
f 913 911 915
f 916 911 914
f 917 914 910
f 910 915 917
f 916 915 911
f 918 916 914
f 917 919 914
f 919 917 915
f 916 920 915
f 920 916 918
f 918 914 919
f 921 919 915
f 921 915 920
f 922 920 918
f 919 923 918
f 923 919 921
f 920 924 921
f 924 920 922
f 922 918 923
f 925 923 921
f 925 921 924
f 926 924 922
f 922 923 927
f 928 923 925
f 925 924 928
f 926 928 924
f 927 926 922
f 929 927 923
f 929 923 928
f 928 926 930
f 931 926 927
f 927 929 931
f 930 929 928
f 932 930 926
f 932 926 931
f 933 931 929
f 933 929 930
f 932 931 930
f 933 930 931
f 934 935 936
f 935 934 937
f 935 938 936
f 936 939 934
f 934 940 937
f 940 935 937
f 938 935 941
f 939 936 938
f 940 934 939
f 935 940 941
f 940 938 941
f 938 940 939
f 936 935 934
f 937 934 935
f 936 938 935
f 934 939 936
f 937 940 934
f 937 935 940
f 941 935 938
f 938 936 939
f 939 934 940
f 941 940 935
f 941 938 940
f 939 940 938
f 942 943 944
f 943 942 945
f 943 946 944
f 944 947 942
f 942 948 945
f 948 943 945
f 946 943 949
f 947 944 946
f 948 942 947
f 943 948 949
f 948 946 949
f 946 948 947
f 944 943 942
f 945 942 943
f 944 946 943
f 942 947 944
f 945 948 942
f 945 943 948
f 949 943 946
f 946 944 947
f 947 942 948
f 949 948 943
f 949 946 948
f 947 948 946
f 950 951 952
f 951 950 953
f 951 954 952
f 952 955 950
f 950 956 953
f 956 951 953
f 954 951 957
f 955 952 954
f 956 950 955
f 951 956 957
f 956 954 957
f 954 956 955
f 952 951 950
f 953 950 951
f 952 954 951
f 950 955 952
f 953 956 950
f 953 951 956
f 957 951 954
f 954 952 955
f 955 950 956
f 957 956 951
f 957 954 956
f 955 956 954
f 958 959 960
f 959 958 961
f 959 962 960
f 960 963 958
f 958 964 961
f 964 959 961
f 962 959 965
f 963 960 962
f 964 958 963
f 959 964 965
f 964 962 965
f 962 964 963
f 960 959 958
f 961 958 959
f 960 962 959
f 958 963 960
f 961 964 958
f 961 959 964
f 965 959 962
f 962 960 963
f 963 958 964
f 965 964 959
f 965 962 964
f 963 964 962
f 966 967 968
f 967 966 969
f 967 970 968
f 968 971 966
f 966 972 969
f 972 967 969
f 970 967 973
f 971 968 970
f 972 966 971
f 967 972 973
f 972 970 973
f 970 972 971
f 968 967 966
f 969 966 967
f 968 970 967
f 966 971 968
f 969 972 966
f 969 967 972
f 973 967 970
f 970 968 971
f 971 966 972
f 973 972 967
f 973 970 972
f 971 972 970
f 974 975 976
f 975 974 977
f 975 978 976
f 976 979 974
f 974 980 977
f 980 975 977
f 978 975 981
f 979 976 978
f 980 974 979
f 975 980 981
f 980 978 981
f 978 980 979
f 976 975 974
f 977 974 975
f 976 978 975
f 974 979 976
f 977 980 974
f 977 975 980
f 981 975 978
f 978 976 979
f 979 974 980
f 981 980 975
f 981 978 980
f 979 980 978
f 982 983 984
f 983 982 985
f 983 986 984
f 984 987 982
f 982 988 985
f 988 983 985
f 986 983 989
f 987 984 986
f 988 982 987
f 983 988 989
f 988 986 989
f 986 988 987
f 984 983 982
f 985 982 983
f 984 986 983
f 982 987 984
f 985 988 982
f 985 983 988
f 989 983 986
f 986 984 987
f 987 982 988
f 989 988 983
f 989 986 988
f 987 988 986
f 990 991 992
f 991 990 993
f 991 994 992
f 992 995 990
f 990 996 993
f 996 991 993
f 994 991 997
f 995 992 994
f 996 990 995
f 991 996 997
f 996 994 997
f 994 996 995
f 992 991 990
f 993 990 991
f 992 994 991
f 990 995 992
f 993 996 990
f 993 991 996
f 997 991 994
f 994 992 995
f 995 990 996
f 997 996 991
f 997 994 996
f 995 996 994
f 998 999 1000
f 999 998 1001
f 999 1002 1000
f 1000 1003 998
f 998 1004 1001
f 1004 999 1001
f 1002 999 1005
f 1003 1000 1002
f 1004 998 1003
f 999 1004 1005
f 1004 1002 1005
f 1002 1004 1003
f 1000 999 998
f 1001 998 999
f 1000 1002 999
f 998 1003 1000
f 1001 1004 998
f 1001 999 1004
f 1005 999 1002
f 1002 1000 1003
f 1003 998 1004
f 1005 1004 999
f 1005 1002 1004
f 1003 1004 1002

