# https://github.com/mikedh/trimesh
v 0.28205905 0.19527144 -0.46526038
v -0.28526746 0.19484905 -0.46526038
v -0.28205845 0.19527144 -0.46526038
v 0.28526746 0.19484905 -0.46526038
v -0.28205845 0.19527144 -0.45311023
v 0.28205905 0.19527144 -0.45311023
v 0.28526746 0.19484905 -0.45311023
v 0.28825789 0.19361023 -0.46526038
v -0.28526746 0.19484905 -0.45311023
v 0.28825789 0.19361023 -0.45311023
v -0.28825729 0.19361023 -0.46526038
v 0.29082592 0.19164004 -0.45311023
v 0.29082592 0.19164004 -0.46526038
v -0.28825729 0.19361023 -0.45311023
v -0.29082533 0.19164004 -0.46526038
v 0.29279610 0.18907201 -0.46526038
v -0.29082533 0.19164004 -0.45311023
v 0.29279610 0.18907201 -0.45311023
v -0.29279551 0.18907201 -0.45311023
v -0.29279551 0.18907201 -0.46526038
v 0.29403433 0.18608218 -0.46526038
v 0.29403433 0.18608218 -0.45311023
v -0.29403433 0.18608218 -0.46526038
v -0.29403433 0.18608218 -0.45311023
v 0.29445673 0.18287317 -0.46526038
v 0.29445673 0.18287317 -0.45311023
v -0.29445673 0.18287317 -0.46526038
v -0.29445673 0.18287317 -0.45311023
v 0.29445673 -0.18287317 -0.46526038
v 0.29445673 -0.18287317 -0.45311023
v -0.29445673 -0.18287317 -0.46526038
v -0.29445673 -0.18287317 -0.45311023
v 0.29403433 -0.18608218 -0.46526038
v 0.29403433 -0.18608218 -0.45311023
v -0.29403433 -0.18608218 -0.46526038
v -0.29403433 -0.18608218 -0.45311023
v 0.29279610 -0.18907260 -0.46526038
v 0.29279610 -0.18907260 -0.45311023
v -0.29279551 -0.18907260 -0.46526038
v -0.29279551 -0.18907260 -0.45311023
v 0.29082592 -0.19164004 -0.46526038
v 0.29082592 -0.19164004 -0.45311023
v -0.29082533 -0.19164004 -0.46526038
v -0.29082533 -0.19164004 -0.45311023
v 0.28825789 -0.19361082 -0.45311023
v 0.28825789 -0.19361082 -0.46526038
v -0.28825729 -0.19361082 -0.46526038
v -0.28825729 -0.19361082 -0.45311023
v 0.28526746 -0.19484905 -0.45311023
v 0.28526746 -0.19484905 -0.46526038
v -0.28526746 -0.19484905 -0.46526038
v -0.28526746 -0.19484905 -0.45311023
v 0.28205905 -0.19527144 -0.45311023
v 0.28205905 -0.19527144 -0.46526038
v -0.28205845 -0.19527144 -0.46526038
v -0.28205845 -0.19527144 -0.45311023
v 0.28205905 0.19527144 0.48784985
v -0.28526746 0.19484905 0.48784985
v -0.28205845 0.19527144 0.48784985
v 0.28526746 0.19484905 0.48784985
v -0.28205845 0.19527144 0.50000000
v 0.28205905 0.19527144 0.50000000
v 0.28526746 0.19484905 0.50000000
v 0.28825789 0.19361023 0.48784985
v -0.28526746 0.19484905 0.50000000
v 0.28825789 0.19361023 0.50000000
v -0.28825729 0.19361023 0.48784985
v 0.29082592 0.19164004 0.50000000
v 0.29082592 0.19164004 0.48784985
v -0.28825729 0.19361023 0.50000000
v -0.29082533 0.19164004 0.48784985
v 0.29279610 0.18907201 0.48784985
v -0.29082533 0.19164004 0.50000000
v 0.29279610 0.18907201 0.50000000
v -0.29279551 0.18907201 0.50000000
v -0.29279551 0.18907201 0.48784985
v 0.29403433 0.18608218 0.48784985
v 0.29403433 0.18608218 0.50000000
v -0.29403433 0.18608218 0.48784985
v -0.29403433 0.18608218 0.50000000
v 0.29445673 0.18287317 0.48784985
v 0.29445673 0.18287317 0.50000000
v -0.29445673 0.18287317 0.48784985
v -0.29445673 0.18287317 0.50000000
v 0.29445673 -0.18287317 0.48784985
v 0.29445673 -0.18287317 0.50000000
v -0.29445673 -0.18287317 0.48784985
v -0.29445673 -0.18287317 0.50000000
v 0.29403433 -0.18608218 0.48784985
v 0.29403433 -0.18608218 0.50000000
v -0.29403433 -0.18608218 0.48784985
v -0.29403433 -0.18608218 0.50000000
v 0.29279610 -0.18907260 0.48784985
v 0.29279610 -0.18907260 0.50000000
v -0.29279551 -0.18907260 0.48784985
v -0.29279551 -0.18907260 0.50000000
v 0.29082592 -0.19164004 0.48784985
v 0.29082592 -0.19164004 0.50000000
v -0.29082533 -0.19164004 0.48784985
v -0.29082533 -0.19164004 0.50000000
v 0.28825789 -0.19361082 0.50000000
v 0.28825789 -0.19361082 0.48784985
v -0.28825729 -0.19361082 0.48784985
v -0.28825729 -0.19361082 0.50000000
v 0.28526746 -0.19484905 0.50000000
v 0.28526746 -0.19484905 0.48784985
v -0.28526746 -0.19484905 0.48784985
v -0.28526746 -0.19484905 0.50000000
v 0.28205905 -0.19527144 0.50000000
v 0.28205905 -0.19527144 0.48784985
v -0.28205845 -0.19527144 0.48784985
v -0.28205845 -0.19527144 0.50000000
v 0.25805058 -0.18153569 0.48784985
v 0.25635332 -0.17743936 0.18229659
v 0.25805058 -0.18153569 0.18229659
v 0.25635332 -0.17743936 0.48784985
v 0.28746981 -0.18153569 0.18229659
v 0.26074976 -0.18505366 0.48784985
v 0.28916706 -0.17743936 0.48784985
v 0.25577438 -0.17304293 0.18229659
v 0.28916706 -0.17743936 0.18229659
v 0.28477063 -0.18505366 0.18229659
v 0.26074976 -0.18505366 0.18229659
v 0.28746981 -0.18153569 0.48784985
v 0.28974542 -0.17304293 0.48784985
v 0.25577438 -0.17304293 0.48784985
v 0.26426714 -0.18775285 0.18229659
v 0.28477063 -0.18505366 0.48784985
v 0.25635332 -0.16864650 0.18229659
v 0.28974542 -0.17304293 0.18229659
v 0.28125266 -0.18775285 0.18229659
v 0.26426714 -0.18775285 0.48784985
v 0.28916706 -0.16864650 0.48784985
v 0.25635332 -0.16864650 0.48784985
v 0.28125266 -0.18775285 0.48784985
v 0.26836406 -0.18944951 0.18229659
v 0.27715633 -0.18944951 0.18229659
v 0.25805058 -0.16455017 0.18229659
v 0.28916706 -0.16864650 0.18229659
v 0.27715633 -0.18944951 0.48784985
v 0.26836406 -0.18944951 0.48784985
v 0.28746981 -0.16455017 0.48784985
v 0.25805058 -0.16455017 0.48784985
v 0.27275990 -0.19002845 0.18229659
v 0.27275990 -0.19002845 0.48784985
v 0.26074976 -0.16103220 0.18229659
v 0.28746981 -0.16455017 0.18229659
v 0.28477063 -0.16103220 0.48784985
v 0.26074976 -0.16103220 0.48784985
v 0.26426714 -0.15833302 0.48784985
v 0.28477063 -0.16103220 0.18229659
v 0.28125266 -0.15833302 0.48784985
v 0.26426714 -0.15833302 0.18229659
v 0.28125266 -0.15833302 0.18229659
v 0.26836406 -0.15663636 0.48784985
v 0.27715633 -0.15663636 0.48784985
v 0.27715633 -0.15663636 0.18229659
v 0.26836406 -0.15663636 0.18229659
v 0.27275990 -0.15605741 0.48784985
v 0.27275990 -0.15605741 0.18229659
v 0.25805058 -0.18153569 0.17014644
v 0.25635332 -0.17743936 -0.13540682
v 0.25805058 -0.18153569 -0.13540682
v 0.25635332 -0.17743936 0.17014644
v 0.26074976 -0.18505366 0.17014644
v 0.25577438 -0.17304293 -0.13540682
v 0.26074976 -0.18505366 -0.13540682
v 0.25577438 -0.17304293 0.17014644
v 0.26426714 -0.18775285 -0.13540682
v 0.25635332 -0.16864650 -0.13540682
v 0.26426714 -0.18775285 0.17014644
v 0.25635332 -0.16864650 0.17014644
v 0.26836406 -0.18944951 -0.13540682
v 0.25805058 -0.16455017 -0.13540682
v 0.26836406 -0.18944951 0.17014644
v 0.25805058 -0.16455017 0.17014644
v 0.27275990 -0.19002845 -0.13540682
v 0.26074976 -0.16103220 -0.13540682
v 0.27275990 -0.19002845 0.17014644
v 0.26074976 -0.16103220 0.17014644
v 0.27715633 -0.18944951 -0.13540682
v 0.26426714 -0.15833302 0.17014644
v 0.27715633 -0.18944951 0.17014644
v 0.26426714 -0.15833302 -0.13540682
v 0.28125266 -0.18775285 -0.13540682
v 0.26836406 -0.15663636 0.17014644
v 0.28125266 -0.18775285 0.17014644
v 0.26836406 -0.15663636 -0.13540682
v 0.28477063 -0.18505366 -0.13540682
v 0.27275990 -0.15605741 0.17014644
v 0.28477063 -0.18505366 0.17014644
v 0.27275990 -0.15605741 -0.13540682
v 0.28746981 -0.18153569 0.17014644
v 0.27715633 -0.15663636 0.17014644
v 0.28746981 -0.18153569 -0.13540682
v 0.27715633 -0.15663636 -0.13540682
v 0.28916706 -0.17743936 0.17014644
v 0.28125266 -0.15833302 0.17014644
v 0.28916706 -0.17743936 -0.13540682
v 0.28125266 -0.15833302 -0.13540682
v 0.28974542 -0.17304293 0.17014644
v 0.28477063 -0.16103220 0.17014644
v 0.28974542 -0.17304293 -0.13540682
v 0.28477063 -0.16103220 -0.13540682
v 0.28916706 -0.16864650 0.17014644
v 0.28746981 -0.16455017 -0.13540682
v 0.28916706 -0.16864650 -0.13540682
v 0.28746981 -0.16455017 0.17014644
v 0.25805058 -0.18153569 -0.14755697
v 0.25635332 -0.17743936 -0.45311023
v 0.25805058 -0.18153569 -0.45311023
v 0.25635332 -0.17743936 -0.14755697
v 0.26074976 -0.18505366 -0.14755697
v 0.25577438 -0.17304293 -0.45311023
v 0.26074976 -0.18505366 -0.45311023
v 0.25577438 -0.17304293 -0.14755697
v 0.26426714 -0.18775285 -0.45311023
v 0.25635332 -0.16864650 -0.45311023
v 0.26426714 -0.18775285 -0.14755697
v 0.25635332 -0.16864650 -0.14755697
v 0.26836406 -0.18944951 -0.45311023
v 0.25805058 -0.16455017 -0.45311023
v 0.26836406 -0.18944951 -0.14755697
v 0.25805058 -0.16455017 -0.14755697
v 0.27275990 -0.19002845 -0.45311023
v 0.26074976 -0.16103220 -0.45311023
v 0.27275990 -0.19002845 -0.14755697
v 0.26074976 -0.16103220 -0.14755697
v 0.27715633 -0.18944951 -0.45311023
v 0.26426714 -0.15833302 -0.14755697
v 0.27715633 -0.18944951 -0.14755697
v 0.26426714 -0.15833302 -0.45311023
v 0.28125266 -0.18775285 -0.45311023
v 0.26836406 -0.15663636 -0.14755697
v 0.28125266 -0.18775285 -0.14755697
v 0.26836406 -0.15663636 -0.45311023
v 0.28477063 -0.18505366 -0.45311023
v 0.27275990 -0.15605741 -0.14755697
v 0.28477063 -0.18505366 -0.14755697
v 0.27275990 -0.15605741 -0.45311023
v 0.28746981 -0.18153569 -0.14755697
v 0.27715633 -0.15663636 -0.14755697
v 0.28746981 -0.18153569 -0.45311023
v 0.27715633 -0.15663636 -0.45311023
v 0.28916706 -0.17743936 -0.14755697
v 0.28125266 -0.15833302 -0.14755697
v 0.28916706 -0.17743936 -0.45311023
v 0.28125266 -0.15833302 -0.45311023
v 0.28974542 -0.17304293 -0.14755697
v 0.28477063 -0.16103220 -0.14755697
v 0.28974542 -0.17304293 -0.45311023
v 0.28477063 -0.16103220 -0.45311023
v 0.28916706 -0.16864650 -0.14755697
v 0.28746981 -0.16455017 -0.45311023
v 0.28916706 -0.16864650 -0.45311023
v 0.28746981 -0.16455017 -0.14755697
v 0.26836406 0.19051287 -0.14755697
v 0.26426714 0.18881621 -0.45311023
v 0.26426714 0.18881621 -0.14755697
v 0.26836406 0.19051287 -0.45311023
v 0.26074976 0.18611703 -0.45311023
v 0.27275990 0.19109182 -0.14755697
v 0.26074976 0.18611703 -0.14755697
v 0.27275990 0.19109182 -0.45311023
v 0.25805058 0.18259906 -0.14755697
v 0.27715633 0.19051287 -0.14755697
v 0.25805058 0.18259906 -0.45311023
v 0.27715633 0.19051287 -0.45311023
v 0.25635332 0.17850214 -0.14755697
v 0.28125266 0.18881621 -0.14755697
v 0.25635332 0.17850214 -0.45311023
v 0.28125266 0.18881621 -0.45311023
v 0.25577438 0.17410630 -0.14755697
v 0.28477063 0.18611703 -0.14755697
v 0.25577438 0.17410630 -0.45311023
v 0.28477063 0.18611703 -0.45311023
v 0.25635332 0.16970987 -0.14755697
v 0.28746981 0.18259906 -0.45311023
v 0.25635332 0.16970987 -0.45311023
v 0.28746981 0.18259906 -0.14755697
v 0.25805058 0.16561354 -0.14755697
v 0.28916706 0.17850214 -0.45311023
v 0.25805058 0.16561354 -0.45311023
v 0.28916706 0.17850214 -0.14755697
v 0.26074976 0.16209557 -0.14755697
v 0.28974542 0.17410630 -0.45311023
v 0.26074976 0.16209557 -0.45311023
v 0.28974542 0.17410630 -0.14755697
v 0.26426714 0.15939639 -0.45311023
v 0.28916706 0.16970987 -0.45311023
v 0.26426714 0.15939639 -0.14755697
v 0.28916706 0.16970987 -0.14755697
v 0.26836406 0.15769972 -0.45311023
v 0.28746981 0.16561354 -0.45311023
v 0.26836406 0.15769972 -0.14755697
v 0.28746981 0.16561354 -0.14755697
v 0.27275990 0.15712078 -0.45311023
v 0.28477063 0.16209557 -0.45311023
v 0.27275990 0.15712078 -0.14755697
v 0.28477063 0.16209557 -0.14755697
v 0.27715633 0.15769972 -0.45311023
v 0.28125266 0.15939639 -0.14755697
v 0.27715633 0.15769972 -0.14755697
v 0.28125266 0.15939639 -0.45311023
v 0.26836406 0.19051287 0.17014644
v 0.26426714 0.18881621 -0.13540682
v 0.26426714 0.18881621 0.17014644
v 0.26836406 0.19051287 -0.13540682
v 0.26074976 0.18611703 -0.13540682
v 0.27275990 0.19109182 0.17014644
v 0.26074976 0.18611703 0.17014644
v 0.27275990 0.19109182 -0.13540682
v 0.25805058 0.18259906 0.17014644
v 0.27715633 0.19051287 0.17014644
v 0.25805058 0.18259906 -0.13540682
v 0.27715633 0.19051287 -0.13540682
v 0.25635332 0.17850214 0.17014644
v 0.28125266 0.18881621 0.17014644
v 0.25635332 0.17850214 -0.13540682
v 0.28125266 0.18881621 -0.13540682
v 0.25577438 0.17410630 0.17014644
v 0.28477063 0.18611703 0.17014644
v 0.25577438 0.17410630 -0.13540682
v 0.28477063 0.18611703 -0.13540682
v 0.25635332 0.16970987 0.17014644
v 0.28746981 0.18259906 -0.13540682
v 0.25635332 0.16970987 -0.13540682
v 0.28746981 0.18259906 0.17014644
v 0.25805058 0.16561354 0.17014644
v 0.28916706 0.17850214 -0.13540682
v 0.25805058 0.16561354 -0.13540682
v 0.28916706 0.17850214 0.17014644
v 0.26074976 0.16209557 0.17014644
v 0.28974542 0.17410630 -0.13540682
v 0.26074976 0.16209557 -0.13540682
v 0.28974542 0.17410630 0.17014644
v 0.26426714 0.15939639 -0.13540682
v 0.28916706 0.16970987 -0.13540682
v 0.26426714 0.15939639 0.17014644
v 0.28916706 0.16970987 0.17014644
v 0.26836406 0.15769972 -0.13540682
v 0.28746981 0.16561354 -0.13540682
v 0.26836406 0.15769972 0.17014644
v 0.28746981 0.16561354 0.17014644
v 0.27275990 0.15712078 -0.13540682
v 0.28477063 0.16209557 -0.13540682
v 0.27275990 0.15712078 0.17014644
v 0.28477063 0.16209557 0.17014644
v 0.27715633 0.15769972 -0.13540682
v 0.28125266 0.15939639 0.17014644
v 0.27715633 0.15769972 0.17014644
v 0.28125266 0.15939639 -0.13540682
v 0.27275990 0.19109182 0.48784985
v 0.26836406 0.19051287 0.18229659
v 0.26836406 0.19051287 0.48784985
v 0.27275990 0.19109182 0.18229659
v 0.26426714 0.18881621 0.18229659
v 0.27715633 0.19051287 0.48784985
v 0.27715633 0.19051287 0.18229659
v 0.26426714 0.18881621 0.48784985
v 0.28125266 0.18881621 0.18229659
v 0.26074976 0.18611703 0.18229659
v 0.28477063 0.18611703 0.18229659
v 0.28125266 0.18881621 0.48784985
v 0.26074976 0.18611703 0.48784985
v 0.28477063 0.18611703 0.48784985
v 0.25805058 0.18259906 0.48784985
v 0.28746981 0.18259906 0.18229659
v 0.25805058 0.18259906 0.18229659
v 0.28746981 0.18259906 0.48784985
v 0.25635332 0.17850214 0.48784985
v 0.28916706 0.17850214 0.18229659
v 0.25635332 0.17850214 0.18229659
v 0.28916706 0.17850214 0.48784985
v 0.25577438 0.17410630 0.48784985
v 0.28974542 0.17410630 0.18229659
v 0.25577438 0.17410630 0.18229659
v 0.28974542 0.17410630 0.48784985
v 0.25635332 0.16970987 0.48784985
v 0.28916706 0.16970987 0.18229659
v 0.25635332 0.16970987 0.18229659
v 0.28916706 0.16970987 0.48784985
v 0.25805058 0.16561354 0.48784985
v 0.28746981 0.16561354 0.18229659
v 0.25805058 0.16561354 0.18229659
v 0.28746981 0.16561354 0.48784985
v 0.26074976 0.16209557 0.48784985
v 0.28477063 0.16209557 0.18229659
v 0.26074976 0.16209557 0.18229659
v 0.28477063 0.16209557 0.48784985
v 0.26426714 0.15939639 0.18229659
v 0.28125266 0.15939639 0.18229659
v 0.28125266 0.15939639 0.48784985
v 0.26426714 0.15939639 0.48784985
v 0.26836406 0.15769972 0.18229659
v 0.27715633 0.15769972 0.18229659
v 0.27715633 0.15769972 0.48784985
v 0.26836406 0.15769972 0.48784985
v 0.27275990 0.15712078 0.18229659
v 0.27275990 0.15712078 0.48784985
v -0.26426714 0.18881621 0.48784985
v -0.26836347 0.19051287 0.18229659
v -0.26836347 0.19051287 0.48784985
v -0.26426714 0.18881621 0.18229659
v -0.27275990 0.19109182 0.18229659
v -0.28125266 0.18881621 0.48784985
v -0.26074917 0.18611703 0.48784985
v -0.27715633 0.19051287 0.18229659
v -0.27275990 0.19109182 0.48784985
v -0.27715633 0.19051287 0.48784985
v -0.28477063 0.18611703 0.48784985
v -0.26074917 0.18611703 0.18229659
v -0.28125266 0.18881621 0.18229659
v -0.28477063 0.18611703 0.18229659
v -0.25804999 0.18259906 0.18229659
v -0.28746981 0.18259906 0.48784985
v -0.25804999 0.18259906 0.48784985
v -0.28746981 0.18259906 0.18229659
v -0.25635332 0.17850214 0.18229659
v -0.28916647 0.17850214 0.48784985
v -0.25635332 0.17850214 0.48784985
v -0.28916647 0.17850214 0.18229659
v -0.25577438 0.17410630 0.18229659
v -0.28974542 0.17410630 0.48784985
v -0.25577438 0.17410630 0.48784985
v -0.28974542 0.17410630 0.18229659
v -0.25635332 0.16970987 0.18229659
v -0.28916647 0.16970987 0.48784985
v -0.25635332 0.16970987 0.48784985
v -0.28916647 0.16970987 0.18229659
v -0.25804999 0.16561354 0.18229659
v -0.28746981 0.16561354 0.48784985
v -0.25804999 0.16561354 0.48784985
v -0.28746981 0.16561354 0.18229659
v -0.26074917 0.16209557 0.18229659
v -0.28477063 0.16209557 0.48784985
v -0.26074917 0.16209557 0.48784985
v -0.28477063 0.16209557 0.18229659
v -0.26426714 0.15939639 0.48784985
v -0.28125266 0.15939639 0.48784985
v -0.28125266 0.15939639 0.18229659
v -0.26426714 0.15939639 0.18229659
v -0.26836347 0.15769972 0.48784985
v -0.27715633 0.15769972 0.48784985
v -0.27715633 0.15769972 0.18229659
v -0.26836347 0.15769972 0.18229659
v -0.27275990 0.15712078 0.48784985
v -0.27275990 0.15712078 0.18229659
v -0.26426714 0.18881621 0.17014644
v -0.26836347 0.19051287 -0.13540682
v -0.26836347 0.19051287 0.17014644
v -0.26426714 0.18881621 -0.13540682
v -0.27275990 0.19109182 -0.13540682
v -0.26074917 0.18611703 0.17014644
v -0.27275990 0.19109182 0.17014644
v -0.26074917 0.18611703 -0.13540682
v -0.27715633 0.19051287 -0.13540682
v -0.25804999 0.18259906 -0.13540682
v -0.27715633 0.19051287 0.17014644
v -0.25804999 0.18259906 0.17014644
v -0.28125266 0.18881621 -0.13540682
v -0.25635332 0.17850214 -0.13540682
v -0.28125266 0.18881621 0.17014644
v -0.25635332 0.17850214 0.17014644
v -0.28477063 0.18611703 -0.13540682
v -0.25577438 0.17410630 -0.13540682
v -0.28477063 0.18611703 0.17014644
v -0.25577438 0.17410630 0.17014644
v -0.28746981 0.18259906 0.17014644
v -0.25635332 0.16970987 -0.13540682
v -0.28746981 0.18259906 -0.13540682
v -0.25635332 0.16970987 0.17014644
v -0.28916647 0.17850214 0.17014644
v -0.25804999 0.16561354 -0.13540682
v -0.28916647 0.17850214 -0.13540682
v -0.25804999 0.16561354 0.17014644
v -0.28974542 0.17410630 0.17014644
v -0.26074917 0.16209557 -0.13540682
v -0.28974542 0.17410630 -0.13540682
v -0.26074917 0.16209557 0.17014644
v -0.28916647 0.16970987 0.17014644
v -0.26426714 0.15939639 0.17014644
v -0.28916647 0.16970987 -0.13540682
v -0.26426714 0.15939639 -0.13540682
v -0.28746981 0.16561354 0.17014644
v -0.26836347 0.15769972 0.17014644
v -0.28746981 0.16561354 -0.13540682
v -0.26836347 0.15769972 -0.13540682
v -0.28477063 0.16209557 0.17014644
v -0.27275990 0.15712078 0.17014644
v -0.28477063 0.16209557 -0.13540682
v -0.27275990 0.15712078 -0.13540682
v -0.28125266 0.15939639 -0.13540682
v -0.27715633 0.15769972 0.17014644
v -0.28125266 0.15939639 0.17014644
v -0.27715633 0.15769972 -0.13540682
v -0.26426714 0.18881621 -0.14755697
v -0.26836347 0.19051287 -0.45311023
v -0.26836347 0.19051287 -0.14755697
v -0.26426714 0.18881621 -0.45311023
v -0.27275990 0.19109182 -0.45311023
v -0.26074917 0.18611703 -0.14755697
v -0.27275990 0.19109182 -0.14755697
v -0.26074917 0.18611703 -0.45311023
v -0.27715633 0.19051287 -0.45311023
v -0.25804999 0.18259906 -0.45311023
v -0.27715633 0.19051287 -0.14755697
v -0.25804999 0.18259906 -0.14755697
v -0.28125266 0.18881621 -0.45311023
v -0.25635332 0.17850214 -0.45311023
v -0.28125266 0.18881621 -0.14755697
v -0.25635332 0.17850214 -0.14755697
v -0.28477063 0.18611703 -0.45311023
v -0.25577438 0.17410630 -0.45311023
v -0.28477063 0.18611703 -0.14755697
v -0.25577438 0.17410630 -0.14755697
v -0.28746981 0.18259906 -0.14755697
v -0.25635332 0.16970987 -0.45311023
v -0.28746981 0.18259906 -0.45311023
v -0.25635332 0.16970987 -0.14755697
v -0.28916647 0.17850214 -0.14755697
v -0.25804999 0.16561354 -0.45311023
v -0.28916647 0.17850214 -0.45311023
v -0.25804999 0.16561354 -0.14755697
v -0.28974542 0.17410630 -0.14755697
v -0.26074917 0.16209557 -0.45311023
v -0.28974542 0.17410630 -0.45311023
v -0.26074917 0.16209557 -0.14755697
v -0.28916647 0.16970987 -0.14755697
v -0.26426714 0.15939639 -0.14755697
v -0.28916647 0.16970987 -0.45311023
v -0.26426714 0.15939639 -0.45311023
v -0.28746981 0.16561354 -0.14755697
v -0.26836347 0.15769972 -0.14755697
v -0.28746981 0.16561354 -0.45311023
v -0.26836347 0.15769972 -0.45311023
v -0.28477063 0.16209557 -0.14755697
v -0.27275990 0.15712078 -0.14755697
v -0.28477063 0.16209557 -0.45311023
v -0.27275990 0.15712078 -0.45311023
v -0.28125266 0.15939639 -0.45311023
v -0.27715633 0.15769972 -0.14755697
v -0.28125266 0.15939639 -0.14755697
v -0.27715633 0.15769972 -0.45311023
v -0.27275990 -0.15605741 -0.14755697
v -0.27715633 -0.15663636 -0.45311023
v -0.27715633 -0.15663636 -0.14755697
v -0.27275990 -0.15605741 -0.45311023
v -0.28125266 -0.15833302 -0.45311023
v -0.26836347 -0.15663636 -0.14755697
v -0.28125266 -0.15833302 -0.14755697
v -0.26836347 -0.15663636 -0.45311023
v -0.28477063 -0.16103220 -0.45311023
v -0.26426714 -0.15833302 -0.14755697
v -0.28477063 -0.16103220 -0.14755697
v -0.26426714 -0.15833302 -0.45311023
v -0.28746981 -0.16455017 -0.14755697
v -0.26074917 -0.16103220 -0.14755697
v -0.28746981 -0.16455017 -0.45311023
v -0.26074917 -0.16103220 -0.45311023
v -0.28916647 -0.16864650 -0.14755697
v -0.25804999 -0.16455017 -0.45311023
v -0.28916647 -0.16864650 -0.45311023
v -0.25804999 -0.16455017 -0.14755697
v -0.28974542 -0.17304293 -0.14755697
v -0.25635332 -0.16864650 -0.45311023
v -0.28974542 -0.17304293 -0.45311023
v -0.25635332 -0.16864650 -0.14755697
v -0.28916647 -0.17743936 -0.14755697
v -0.25577438 -0.17304293 -0.45311023
v -0.28916647 -0.17743936 -0.45311023
v -0.25577438 -0.17304293 -0.14755697
v -0.28746981 -0.18153569 -0.14755697
v -0.25635332 -0.17743936 -0.45311023
v -0.28746981 -0.18153569 -0.45311023
v -0.25635332 -0.17743936 -0.14755697
v -0.28477063 -0.18505366 -0.14755697
v -0.25804999 -0.18153569 -0.45311023
v -0.28477063 -0.18505366 -0.45311023
v -0.25804999 -0.18153569 -0.14755697
v -0.28125266 -0.18775285 -0.45311023
v -0.26074917 -0.18505366 -0.45311023
v -0.28125266 -0.18775285 -0.14755697
v -0.26074917 -0.18505366 -0.14755697
v -0.27715633 -0.18944951 -0.45311023
v -0.26426714 -0.18775285 -0.14755697
v -0.27715633 -0.18944951 -0.14755697
v -0.26426714 -0.18775285 -0.45311023
v -0.27275990 -0.19002845 -0.45311023
v -0.26836347 -0.18944951 -0.14755697
v -0.27275990 -0.19002845 -0.14755697
v -0.26836347 -0.18944951 -0.45311023
v -0.27275990 -0.15605741 0.17014644
v -0.27715633 -0.15663636 -0.13540682
v -0.27715633 -0.15663636 0.17014644
v -0.27275990 -0.15605741 -0.13540682
v -0.28125266 -0.15833302 -0.13540682
v -0.26836347 -0.15663636 0.17014644
v -0.28125266 -0.15833302 0.17014644
v -0.26836347 -0.15663636 -0.13540682
v -0.28477063 -0.16103220 -0.13540682
v -0.26426714 -0.15833302 0.17014644
v -0.28477063 -0.16103220 0.17014644
v -0.26426714 -0.15833302 -0.13540682
v -0.28746981 -0.16455017 0.17014644
v -0.26074917 -0.16103220 0.17014644
v -0.28746981 -0.16455017 -0.13540682
v -0.26074917 -0.16103220 -0.13540682
v -0.28916647 -0.16864650 0.17014644
v -0.25804999 -0.16455017 -0.13540682
v -0.28916647 -0.16864650 -0.13540682
v -0.25804999 -0.16455017 0.17014644
v -0.28974542 -0.17304293 0.17014644
v -0.25635332 -0.16864650 -0.13540682
v -0.28974542 -0.17304293 -0.13540682
v -0.25635332 -0.16864650 0.17014644
v -0.28916647 -0.17743936 0.17014644
v -0.25577438 -0.17304293 -0.13540682
v -0.28916647 -0.17743936 -0.13540682
v -0.25577438 -0.17304293 0.17014644
v -0.28746981 -0.18153569 0.17014644
v -0.25635332 -0.17743936 -0.13540682
v -0.28746981 -0.18153569 -0.13540682
v -0.25635332 -0.17743936 0.17014644
v -0.28477063 -0.18505366 0.17014644
v -0.25804999 -0.18153569 -0.13540682
v -0.28477063 -0.18505366 -0.13540682
v -0.25804999 -0.18153569 0.17014644
v -0.28125266 -0.18775285 -0.13540682
v -0.26074917 -0.18505366 -0.13540682
v -0.28125266 -0.18775285 0.17014644
v -0.26074917 -0.18505366 0.17014644
v -0.27715633 -0.18944951 -0.13540682
v -0.26426714 -0.18775285 0.17014644
v -0.27715633 -0.18944951 0.17014644
v -0.26426714 -0.18775285 -0.13540682
v -0.27275990 -0.19002845 -0.13540682
v -0.26836347 -0.18944951 0.17014644
v -0.27275990 -0.19002845 0.17014644
v -0.26836347 -0.18944951 -0.13540682
v -0.27275990 -0.15605741 0.48784985
v -0.27715633 -0.15663636 0.18229659
v -0.27715633 -0.15663636 0.48784985
v -0.27275990 -0.15605741 0.18229659
v -0.28125266 -0.15833302 0.18229659
v -0.26836347 -0.15663636 0.48784985
v -0.26836347 -0.15663636 0.18229659
v -0.28125266 -0.15833302 0.48784985
v -0.26426714 -0.15833302 0.18229659
v -0.28477063 -0.16103220 0.18229659
v -0.26074917 -0.16103220 0.18229659
v -0.26426714 -0.15833302 0.48784985
v -0.28477063 -0.16103220 0.48784985
v -0.26074917 -0.16103220 0.48784985
v -0.28746981 -0.16455017 0.48784985
v -0.25804999 -0.16455017 0.18229659
v -0.28746981 -0.16455017 0.18229659
v -0.25804999 -0.16455017 0.48784985
v -0.28916647 -0.16864650 0.48784985
v -0.25635332 -0.16864650 0.18229659
v -0.28916647 -0.16864650 0.18229659
v -0.25635332 -0.16864650 0.48784985
v -0.28974542 -0.17304293 0.48784985
v -0.25577438 -0.17304293 0.18229659
v -0.28974542 -0.17304293 0.18229659
v -0.25577438 -0.17304293 0.48784985
v -0.28916647 -0.17743936 0.48784985
v -0.25635332 -0.17743936 0.18229659
v -0.28916647 -0.17743936 0.18229659
v -0.25635332 -0.17743936 0.48784985
v -0.28746981 -0.18153569 0.48784985
v -0.25804999 -0.18153569 0.18229659
v -0.28746981 -0.18153569 0.18229659
v -0.25804999 -0.18153569 0.48784985
v -0.28477063 -0.18505366 0.48784985
v -0.26074917 -0.18505366 0.18229659
v -0.28477063 -0.18505366 0.18229659
v -0.26074917 -0.18505366 0.48784985
v -0.28125266 -0.18775285 0.18229659
v -0.26426714 -0.18775285 0.18229659
v -0.26426714 -0.18775285 0.48784985
v -0.28125266 -0.18775285 0.48784985
v -0.27715633 -0.18944951 0.18229659
v -0.26836347 -0.18944951 0.18229659
v -0.26836347 -0.18944951 0.48784985
v -0.27715633 -0.18944951 0.48784985
v -0.27275990 -0.19002845 0.18229659
v -0.27275990 -0.19002845 0.48784985
v 0.28205905 0.19527144 -0.14755697
v -0.28526746 0.19484905 -0.14755697
v -0.28205845 0.19527144 -0.14755697
v 0.28526746 0.19484905 -0.14755697
v -0.28205845 0.19527144 -0.13540682
v 0.28205905 0.19527144 -0.13540682
v 0.28526746 0.19484905 -0.13540682
v 0.28825789 0.19361023 -0.14755697
v -0.28526746 0.19484905 -0.13540682
v 0.28825789 0.19361023 -0.13540682
v -0.28825729 0.19361023 -0.14755697
v 0.29082592 0.19164004 -0.13540682
v 0.29082592 0.19164004 -0.14755697
v -0.28825729 0.19361023 -0.13540682
v -0.29082533 0.19164004 -0.14755697
v 0.29279610 0.18907201 -0.14755697
v -0.29082533 0.19164004 -0.13540682
v 0.29279610 0.18907201 -0.13540682
v -0.29279551 0.18907201 -0.13540682
v -0.29279551 0.18907201 -0.14755697
v 0.29403433 0.18608218 -0.14755697
v 0.29403433 0.18608218 -0.13540682
v -0.29403433 0.18608218 -0.14755697
v -0.29403433 0.18608218 -0.13540682
v 0.29445673 0.18287317 -0.14755697
v 0.29445673 0.18287317 -0.13540682
v -0.29445673 0.18287317 -0.14755697
v -0.29445673 0.18287317 -0.13540682
v 0.29445673 -0.18287317 -0.14755697
v 0.29445673 -0.18287317 -0.13540682
v -0.29445673 -0.18287317 -0.14755697
v -0.29445673 -0.18287317 -0.13540682
v 0.29403433 -0.18608218 -0.14755697
v 0.29403433 -0.18608218 -0.13540682
v -0.29403433 -0.18608218 -0.14755697
v -0.29403433 -0.18608218 -0.13540682
v 0.29279610 -0.18907260 -0.14755697
v 0.29279610 -0.18907260 -0.13540682
v -0.29279551 -0.18907260 -0.14755697
v -0.29279551 -0.18907260 -0.13540682
v 0.29082592 -0.19164004 -0.14755697
v 0.29082592 -0.19164004 -0.13540682
v -0.29082533 -0.19164004 -0.14755697
v -0.29082533 -0.19164004 -0.13540682
v 0.28825789 -0.19361082 -0.13540682
v 0.28825789 -0.19361082 -0.14755697
v -0.28825729 -0.19361082 -0.14755697
v -0.28825729 -0.19361082 -0.13540682
v 0.28526746 -0.19484905 -0.13540682
v 0.28526746 -0.19484905 -0.14755697
v -0.28526746 -0.19484905 -0.14755697
v -0.28526746 -0.19484905 -0.13540682
v 0.28205905 -0.19527144 -0.13540682
v 0.28205905 -0.19527144 -0.14755697
v -0.28205845 -0.19527144 -0.14755697
v -0.28205845 -0.19527144 -0.13540682
v 0.28205905 0.19527144 0.17014644
v -0.28526746 0.19484905 0.17014644
v -0.28205845 0.19527144 0.17014644
v 0.28526746 0.19484905 0.17014644
v -0.28205845 0.19527144 0.18229659
v 0.28205905 0.19527144 0.18229659
v 0.28526746 0.19484905 0.18229659
v 0.28825789 0.19361023 0.17014644
v -0.28526746 0.19484905 0.18229659
v 0.28825789 0.19361023 0.18229659
v -0.28825729 0.19361023 0.17014644
v 0.29082592 0.19164004 0.18229659
v 0.29082592 0.19164004 0.17014644
v -0.28825729 0.19361023 0.18229659
v -0.29082533 0.19164004 0.17014644
v 0.29279610 0.18907201 0.17014644
v -0.29082533 0.19164004 0.18229659
v 0.29279610 0.18907201 0.18229659
v -0.29279551 0.18907201 0.18229659
v -0.29279551 0.18907201 0.17014644
v 0.29403433 0.18608218 0.17014644
v 0.29403433 0.18608218 0.18229659
v -0.29403433 0.18608218 0.17014644
v -0.29403433 0.18608218 0.18229659
v 0.29445673 0.18287317 0.17014644
v 0.29445673 0.18287317 0.18229659
v -0.29445673 0.18287317 0.17014644
v -0.29445673 0.18287317 0.18229659
v 0.29445673 -0.18287317 0.17014644
v 0.29445673 -0.18287317 0.18229659
v -0.29445673 -0.18287317 0.17014644
v -0.29445673 -0.18287317 0.18229659
v 0.29403433 -0.18608218 0.17014644
v 0.29403433 -0.18608218 0.18229659
v -0.29403433 -0.18608218 0.17014644
v -0.29403433 -0.18608218 0.18229659
v 0.29279610 -0.18907260 0.17014644
v 0.29279610 -0.18907260 0.18229659
v -0.29279551 -0.18907260 0.17014644
v -0.29279551 -0.18907260 0.18229659
v 0.29082592 -0.19164004 0.17014644
v 0.29082592 -0.19164004 0.18229659
v -0.29082533 -0.19164004 0.17014644
v -0.29082533 -0.19164004 0.18229659
v 0.28825789 -0.19361082 0.18229659
v 0.28825789 -0.19361082 0.17014644
v -0.28825729 -0.19361082 0.17014644
v -0.28825729 -0.19361082 0.18229659
v 0.28526746 -0.19484905 0.18229659
v 0.28526746 -0.19484905 0.17014644
v -0.28526746 -0.19484905 0.17014644
v -0.28526746 -0.19484905 0.18229659
v 0.28205905 -0.19527144 0.18229659
v 0.28205905 -0.19527144 0.17014644
v -0.28205845 -0.19527144 0.17014644
v -0.28205845 -0.19527144 0.18229659
v 0.26836406 -0.15663636 -0.46526038
v 0.27715633 -0.15663636 -0.46526038
v 0.27275990 -0.15605741 -0.46526038
v 0.26426714 -0.15833302 -0.46526038
v 0.27275990 -0.15605741 -0.50000000
v 0.26836406 -0.15663636 -0.50000000
v 0.26426714 -0.15833302 -0.50000000
v 0.28125266 -0.15833302 -0.46526038
v 0.27715633 -0.15663636 -0.50000000
v 0.26074976 -0.16103220 -0.50000000
v 0.26074976 -0.16103220 -0.46526038
v 0.28125266 -0.15833302 -0.50000000
v 0.28477063 -0.16103220 -0.50000000
v 0.28477063 -0.16103220 -0.46526038
v 0.25805058 -0.16455017 -0.46526038
v 0.28746981 -0.16455017 -0.50000000
v 0.25805058 -0.16455017 -0.50000000
v 0.28746981 -0.16455017 -0.46526038
v 0.25635332 -0.16864650 -0.46526038
v 0.28916706 -0.16864650 -0.50000000
v 0.25635332 -0.16864650 -0.50000000
v 0.28916706 -0.16864650 -0.46526038
v 0.25577438 -0.17304293 -0.46526038
v 0.28974542 -0.17304293 -0.50000000
v 0.25577438 -0.17304293 -0.50000000
v 0.28974542 -0.17304293 -0.46526038
v 0.25635332 -0.17743936 -0.46526038
v 0.28916706 -0.17743936 -0.50000000
v 0.25635332 -0.17743936 -0.50000000
v 0.28916706 -0.17743936 -0.46526038
v 0.25805058 -0.18153569 -0.46526038
v 0.28746981 -0.18153569 -0.50000000
v 0.25805058 -0.18153569 -0.50000000
v 0.28746981 -0.18153569 -0.46526038
v 0.26074976 -0.18505366 -0.46526038
v 0.28477063 -0.18505366 -0.50000000
v 0.26074976 -0.18505366 -0.50000000
v 0.28477063 -0.18505366 -0.46526038
v 0.26426714 -0.18775285 -0.50000000
v 0.28125266 -0.18775285 -0.50000000
v 0.26426714 -0.18775285 -0.46526038
v 0.28125266 -0.18775285 -0.46526038
v 0.26836406 -0.18944951 -0.50000000
v 0.27715633 -0.18944951 -0.50000000
v 0.27715633 -0.18944951 -0.46526038
v 0.26836406 -0.18944951 -0.46526038
v 0.27275990 -0.19002845 -0.50000000
v 0.27275990 -0.19002845 -0.46526038
v 0.27715633 0.19051287 -0.50000000
v 0.26836406 0.19051287 -0.50000000
v 0.27275990 0.19109182 -0.50000000
v 0.28125266 0.18881621 -0.50000000
v 0.27275990 0.19109182 -0.46526038
v 0.27715633 0.19051287 -0.46526038
v 0.28125266 0.18881621 -0.46526038
v 0.26426714 0.18881621 -0.50000000
v 0.26836406 0.19051287 -0.46526038
v 0.28477063 0.18611703 -0.46526038
v 0.28477063 0.18611703 -0.50000000
v 0.26426714 0.18881621 -0.46526038
v 0.26074976 0.18611703 -0.46526038
v 0.26074976 0.18611703 -0.50000000
v 0.28746981 0.18259906 -0.50000000
v 0.25805058 0.18259906 -0.46526038
v 0.28746981 0.18259906 -0.46526038
v 0.25805058 0.18259906 -0.50000000
v 0.28916706 0.17850214 -0.50000000
v 0.25635332 0.17850214 -0.46526038
v 0.28916706 0.17850214 -0.46526038
v 0.25635332 0.17850214 -0.50000000
v 0.28974542 0.17410630 -0.50000000
v 0.25577438 0.17410630 -0.46526038
v 0.28974542 0.17410630 -0.46526038
v 0.25577438 0.17410630 -0.50000000
v 0.28916706 0.16970987 -0.50000000
v 0.25635332 0.16970987 -0.46526038
v 0.28916706 0.16970987 -0.46526038
v 0.25635332 0.16970987 -0.50000000
v 0.28746981 0.16561354 -0.50000000
v 0.25805058 0.16561354 -0.46526038
v 0.28746981 0.16561354 -0.46526038
v 0.25805058 0.16561354 -0.50000000
v 0.28477063 0.16209557 -0.50000000
v 0.26074976 0.16209557 -0.46526038
v 0.28477063 0.16209557 -0.46526038
v 0.26074976 0.16209557 -0.50000000
v 0.28125266 0.15939639 -0.46526038
v 0.26426714 0.15939639 -0.46526038
v 0.28125266 0.15939639 -0.50000000
v 0.26426714 0.15939639 -0.50000000
v 0.27715633 0.15769972 -0.46526038
v 0.26836406 0.15769972 -0.46526038
v 0.26836406 0.15769972 -0.50000000
v 0.27715633 0.15769972 -0.50000000
v 0.27275990 0.15712078 -0.46526038
v 0.27275990 0.15712078 -0.50000000
v -0.28746981 0.16561354 -0.46526038
v -0.28916647 0.16970987 -0.50000000
v -0.28746981 0.16561354 -0.50000000
v -0.28916647 0.16970987 -0.46526038
v -0.25804999 0.16561354 -0.50000000
v -0.28477063 0.16209557 -0.46526038
v -0.25635332 0.16970987 -0.46526038
v -0.28974542 0.17410630 -0.50000000
v -0.25635332 0.16970987 -0.50000000
v -0.26074917 0.16209557 -0.50000000
v -0.28477063 0.16209557 -0.50000000
v -0.25804999 0.16561354 -0.46526038
v -0.25577438 0.17410630 -0.46526038
v -0.28974542 0.17410630 -0.46526038
v -0.28125266 0.15939639 -0.50000000
v -0.26074917 0.16209557 -0.46526038
v -0.28916647 0.17850214 -0.50000000
v -0.25577438 0.17410630 -0.50000000
v -0.26426714 0.15939639 -0.50000000
v -0.28125266 0.15939639 -0.46526038
v -0.25635332 0.17850214 -0.46526038
v -0.28916647 0.17850214 -0.46526038
v -0.26426714 0.15939639 -0.46526038
v -0.27715633 0.15769972 -0.50000000
v -0.26836347 0.15769972 -0.50000000
v -0.28746981 0.18259906 -0.50000000
v -0.25635332 0.17850214 -0.50000000
v -0.26836347 0.15769972 -0.46526038
v -0.27715633 0.15769972 -0.46526038
v -0.25804999 0.18259906 -0.46526038
v -0.28746981 0.18259906 -0.46526038
v -0.27275990 0.15712078 -0.50000000
v -0.27275990 0.15712078 -0.46526038
v -0.28477063 0.18611703 -0.50000000
v -0.25804999 0.18259906 -0.50000000
v -0.26074917 0.18611703 -0.46526038
v -0.28477063 0.18611703 -0.46526038
v -0.28125266 0.18881621 -0.46526038
v -0.26074917 0.18611703 -0.50000000
v -0.26426714 0.18881621 -0.46526038
v -0.28125266 0.18881621 -0.50000000
v -0.26426714 0.18881621 -0.50000000
v -0.27715633 0.19051287 -0.46526038
v -0.26836347 0.19051287 -0.46526038
v -0.26836347 0.19051287 -0.50000000
v -0.27715633 0.19051287 -0.50000000
v -0.27275990 0.19109182 -0.46526038
v -0.27275990 0.19109182 -0.50000000
v -0.27715633 -0.15663636 -0.46526038
v -0.26836347 -0.15663636 -0.46526038
v -0.27275990 -0.15605741 -0.46526038
v -0.28125266 -0.15833302 -0.46526038
v -0.27275990 -0.15605741 -0.50000000
v -0.27715633 -0.15663636 -0.50000000
v -0.28125266 -0.15833302 -0.50000000
v -0.26426714 -0.15833302 -0.46526038
v -0.26836347 -0.15663636 -0.50000000
v -0.28477063 -0.16103220 -0.50000000
v -0.28477063 -0.16103220 -0.46526038
v -0.26426714 -0.15833302 -0.50000000
v -0.26074917 -0.16103220 -0.50000000
v -0.26074917 -0.16103220 -0.46526038
v -0.28746981 -0.16455017 -0.46526038
v -0.25804999 -0.16455017 -0.50000000
v -0.28746981 -0.16455017 -0.50000000
v -0.25804999 -0.16455017 -0.46526038
v -0.28916647 -0.16864650 -0.46526038
v -0.25635332 -0.16864650 -0.50000000
v -0.28916647 -0.16864650 -0.50000000
v -0.25635332 -0.16864650 -0.46526038
v -0.28974542 -0.17304293 -0.46526038
v -0.25577438 -0.17304293 -0.50000000
v -0.28974542 -0.17304293 -0.50000000
v -0.25577438 -0.17304293 -0.46526038
v -0.28916647 -0.17743936 -0.46526038
v -0.25635332 -0.17743936 -0.50000000
v -0.28916647 -0.17743936 -0.50000000
v -0.25635332 -0.17743936 -0.46526038
v -0.28746981 -0.18153569 -0.46526038
v -0.25804999 -0.18153569 -0.50000000
v -0.28746981 -0.18153569 -0.50000000
v -0.25804999 -0.18153569 -0.46526038
v -0.28477063 -0.18505366 -0.46526038
v -0.26074917 -0.18505366 -0.50000000
v -0.28477063 -0.18505366 -0.50000000
v -0.26074917 -0.18505366 -0.46526038
v -0.28125266 -0.18775285 -0.50000000
v -0.26426714 -0.18775285 -0.50000000
v -0.28125266 -0.18775285 -0.46526038
v -0.26426714 -0.18775285 -0.46526038
v -0.27715633 -0.18944951 -0.50000000
v -0.26836347 -0.18944951 -0.50000000
v -0.26836347 -0.18944951 -0.46526038
v -0.27715633 -0.18944951 -0.46526038
v -0.27275990 -0.19002845 -0.50000000
v -0.27275990 -0.19002845 -0.46526038
f 1 2 3
f 2 1 4
f 3 2 1
f 4 1 2
f 2 5 3
f 3 5 2
f 3 6 1
f 1 6 3
f 1 7 4
f 4 7 1
f 2 4 8
f 8 4 2
f 5 2 9
f 9 2 5
f 6 3 5
f 5 3 6
f 7 1 6
f 6 1 7
f 10 4 7
f 7 4 10
f 4 10 8
f 8 10 4
f 2 8 11
f 11 8 2
f 11 9 2
f 2 9 11
f 9 6 5
f 5 6 9
f 6 9 7
f 7 9 6
f 7 9 10
f 10 9 7
f 12 8 10
f 10 8 12
f 11 8 13
f 13 8 11
f 9 11 14
f 14 11 9
f 10 9 14
f 14 9 10
f 8 12 13
f 13 12 8
f 10 14 12
f 12 14 10
f 11 13 15
f 15 13 11
f 15 14 11
f 11 14 15
f 12 16 13
f 13 16 12
f 12 14 17
f 17 14 12
f 15 13 16
f 16 13 15
f 14 15 17
f 17 15 14
f 16 12 18
f 18 12 16
f 12 17 19
f 19 17 12
f 15 16 20
f 20 16 15
f 15 19 17
f 17 19 15
f 12 19 18
f 18 19 12
f 18 21 16
f 16 21 18
f 20 16 21
f 21 16 20
f 19 15 20
f 20 15 19
f 18 19 22
f 22 19 18
f 21 18 22
f 22 18 21
f 20 21 23
f 23 21 20
f 20 24 19
f 19 24 20
f 22 19 24
f 24 19 22
f 22 25 21
f 21 25 22
f 23 21 25
f 25 21 23
f 24 20 23
f 23 20 24
f 22 24 26
f 26 24 22
f 25 22 26
f 26 22 25
f 23 25 27
f 27 25 23
f 23 28 24
f 24 28 23
f 26 24 28
f 28 24 26
f 26 29 25
f 25 29 26
f 27 25 29
f 29 25 27
f 28 23 27
f 27 23 28
f 26 28 30
f 30 28 26
f 29 26 30
f 30 26 29
f 27 29 31
f 31 29 27
f 27 32 28
f 28 32 27
f 30 28 32
f 32 28 30
f 30 33 29
f 29 33 30
f 31 29 33
f 33 29 31
f 32 27 31
f 31 27 32
f 30 32 34
f 34 32 30
f 33 30 34
f 34 30 33
f 31 33 35
f 35 33 31
f 31 36 32
f 32 36 31
f 34 32 36
f 36 32 34
f 34 37 33
f 33 37 34
f 35 33 37
f 37 33 35
f 36 31 35
f 35 31 36
f 34 36 38
f 38 36 34
f 37 34 38
f 38 34 37
f 35 37 39
f 39 37 35
f 35 40 36
f 36 40 35
f 38 36 40
f 40 36 38
f 38 41 37
f 37 41 38
f 39 37 41
f 41 37 39
f 40 35 39
f 39 35 40
f 38 40 42
f 42 40 38
f 41 38 42
f 42 38 41
f 39 41 43
f 43 41 39
f 39 44 40
f 40 44 39
f 42 40 44
f 44 40 42
f 45 41 42
f 42 41 45
f 43 41 46
f 46 41 43
f 44 39 43
f 43 39 44
f 42 44 45
f 45 44 42
f 41 45 46
f 46 45 41
f 43 46 47
f 47 46 43
f 47 44 43
f 43 44 47
f 45 44 48
f 48 44 45
f 49 46 45
f 45 46 49
f 47 46 50
f 50 46 47
f 44 47 48
f 48 47 44
f 45 48 49
f 49 48 45
f 46 49 50
f 50 49 46
f 47 50 51
f 51 50 47
f 51 48 47
f 47 48 51
f 49 48 52
f 52 48 49
f 53 50 49
f 49 50 53
f 51 50 54
f 54 50 51
f 48 51 52
f 52 51 48
f 49 52 53
f 53 52 49
f 50 53 54
f 54 53 50
f 51 54 55
f 55 54 51
f 55 52 51
f 51 52 55
f 53 52 56
f 56 52 53
f 56 54 53
f 53 54 56
f 54 56 55
f 55 56 54
f 52 55 56
f 56 55 52
f 57 58 59
f 58 57 60
f 59 58 57
f 60 57 58
f 58 61 59
f 59 61 58
f 59 62 57
f 57 62 59
f 57 63 60
f 60 63 57
f 58 60 64
f 64 60 58
f 61 58 65
f 65 58 61
f 62 59 61
f 61 59 62
f 63 57 62
f 62 57 63
f 66 60 63
f 63 60 66
f 60 66 64
f 64 66 60
f 58 64 67
f 67 64 58
f 67 65 58
f 58 65 67
f 65 62 61
f 61 62 65
f 62 65 63
f 63 65 62
f 63 65 66
f 66 65 63
f 68 64 66
f 66 64 68
f 67 64 69
f 69 64 67
f 65 67 70
f 70 67 65
f 66 65 70
f 70 65 66
f 64 68 69
f 69 68 64
f 66 70 68
f 68 70 66
f 67 69 71
f 71 69 67
f 71 70 67
f 67 70 71
f 68 72 69
f 69 72 68
f 68 70 73
f 73 70 68
f 71 69 72
f 72 69 71
f 70 71 73
f 73 71 70
f 72 68 74
f 74 68 72
f 68 73 75
f 75 73 68
f 71 72 76
f 76 72 71
f 71 75 73
f 73 75 71
f 68 75 74
f 74 75 68
f 74 77 72
f 72 77 74
f 76 72 77
f 77 72 76
f 75 71 76
f 76 71 75
f 74 75 78
f 78 75 74
f 77 74 78
f 78 74 77
f 76 77 79
f 79 77 76
f 76 80 75
f 75 80 76
f 78 75 80
f 80 75 78
f 78 81 77
f 77 81 78
f 79 77 81
f 81 77 79
f 80 76 79
f 79 76 80
f 78 80 82
f 82 80 78
f 81 78 82
f 82 78 81
f 79 81 83
f 83 81 79
f 79 84 80
f 80 84 79
f 82 80 84
f 84 80 82
f 82 85 81
f 81 85 82
f 83 81 85
f 85 81 83
f 84 79 83
f 83 79 84
f 82 84 86
f 86 84 82
f 85 82 86
f 86 82 85
f 83 85 87
f 87 85 83
f 83 88 84
f 84 88 83
f 86 84 88
f 88 84 86
f 86 89 85
f 85 89 86
f 87 85 89
f 89 85 87
f 88 83 87
f 87 83 88
f 86 88 90
f 90 88 86
f 89 86 90
f 90 86 89
f 87 89 91
f 91 89 87
f 87 92 88
f 88 92 87
f 90 88 92
f 92 88 90
f 90 93 89
f 89 93 90
f 91 89 93
f 93 89 91
f 92 87 91
f 91 87 92
f 90 92 94
f 94 92 90
f 93 90 94
f 94 90 93
f 91 93 95
f 95 93 91
f 91 96 92
f 92 96 91
f 94 92 96
f 96 92 94
f 94 97 93
f 93 97 94
f 95 93 97
f 97 93 95
f 96 91 95
f 95 91 96
f 94 96 98
f 98 96 94
f 97 94 98
f 98 94 97
f 95 97 99
f 99 97 95
f 95 100 96
f 96 100 95
f 98 96 100
f 100 96 98
f 101 97 98
f 98 97 101
f 99 97 102
f 102 97 99
f 100 95 99
f 99 95 100
f 98 100 101
f 101 100 98
f 97 101 102
f 102 101 97
f 99 102 103
f 103 102 99
f 103 100 99
f 99 100 103
f 101 100 104
f 104 100 101
f 105 102 101
f 101 102 105
f 103 102 106
f 106 102 103
f 100 103 104
f 104 103 100
f 101 104 105
f 105 104 101
f 102 105 106
f 106 105 102
f 103 106 107
f 107 106 103
f 107 104 103
f 103 104 107
f 105 104 108
f 108 104 105
f 109 106 105
f 105 106 109
f 107 106 110
f 110 106 107
f 104 107 108
f 108 107 104
f 105 108 109
f 109 108 105
f 106 109 110
f 110 109 106
f 107 110 111
f 111 110 107
f 111 108 107
f 107 108 111
f 109 108 112
f 112 108 109
f 112 110 109
f 109 110 112
f 110 112 111
f 111 112 110
f 108 111 112
f 112 111 108
f 113 114 115
f 114 113 116
f 115 114 113
f 116 113 114
f 114 117 115
f 115 117 114
f 115 118 113
f 113 118 115
f 119 116 113
f 113 116 119
f 116 120 114
f 114 120 116
f 114 121 117
f 117 121 114
f 115 117 122
f 122 117 115
f 118 115 123
f 123 115 118
f 124 113 118
f 118 113 124
f 125 116 119
f 119 116 125
f 119 113 124
f 124 113 119
f 120 116 126
f 126 116 120
f 120 121 114
f 114 121 120
f 119 117 121
f 121 117 119
f 124 122 117
f 117 122 124
f 115 122 123
f 123 122 115
f 127 118 123
f 123 118 127
f 124 118 128
f 128 118 124
f 125 126 116
f 116 126 125
f 121 125 119
f 119 125 121
f 117 119 124
f 124 119 117
f 126 129 120
f 120 129 126
f 120 130 121
f 121 130 120
f 122 124 128
f 128 124 122
f 123 122 131
f 131 122 123
f 118 127 132
f 132 127 118
f 123 131 127
f 127 131 123
f 128 118 132
f 132 118 128
f 133 126 125
f 125 126 133
f 125 121 130
f 130 121 125
f 129 126 134
f 134 126 129
f 129 130 120
f 120 130 129
f 135 122 128
f 128 122 135
f 122 135 131
f 131 135 122
f 136 132 127
f 127 132 136
f 127 131 137
f 137 131 127
f 128 132 135
f 135 132 128
f 133 134 126
f 126 134 133
f 130 133 125
f 125 133 130
f 134 138 129
f 129 138 134
f 129 139 130
f 130 139 129
f 140 131 135
f 135 131 140
f 132 136 141
f 141 136 132
f 127 137 136
f 136 137 127
f 131 140 137
f 137 140 131
f 135 132 141
f 141 132 135
f 142 134 133
f 133 134 142
f 133 130 139
f 139 130 133
f 138 134 143
f 143 134 138
f 138 139 129
f 129 139 138
f 135 141 140
f 140 141 135
f 144 141 136
f 136 141 144
f 136 137 144
f 144 137 136
f 145 137 140
f 140 137 145
f 142 143 134
f 134 143 142
f 139 142 133
f 133 142 139
f 143 146 138
f 138 146 143
f 138 147 139
f 139 147 138
f 140 141 145
f 145 141 140
f 141 144 145
f 145 144 141
f 137 145 144
f 144 145 137
f 148 143 142
f 142 143 148
f 142 139 147
f 147 139 142
f 146 143 149
f 149 143 146
f 146 147 138
f 138 147 146
f 148 149 143
f 143 149 148
f 147 148 142
f 142 148 147
f 150 146 149
f 149 146 150
f 146 151 147
f 147 151 146
f 152 149 148
f 148 149 152
f 148 147 151
f 151 147 148
f 146 150 153
f 153 150 146
f 152 150 149
f 149 150 152
f 153 151 146
f 146 151 153
f 148 154 152
f 152 154 148
f 154 148 151
f 151 148 154
f 155 153 150
f 150 153 155
f 156 150 152
f 152 150 156
f 153 154 151
f 151 154 153
f 157 152 154
f 154 152 157
f 153 155 158
f 158 155 153
f 156 155 150
f 150 155 156
f 152 157 156
f 156 157 152
f 158 154 153
f 153 154 158
f 158 157 154
f 154 157 158
f 159 158 155
f 155 158 159
f 155 156 159
f 159 156 155
f 160 156 157
f 157 156 160
f 157 158 160
f 160 158 157
f 158 159 160
f 160 159 158
f 156 160 159
f 159 160 156
f 161 162 163
f 162 161 164
f 163 162 161
f 164 161 162
f 163 165 161
f 161 165 163
f 164 166 162
f 162 166 164
f 165 163 167
f 167 163 165
f 166 164 168
f 168 164 166
f 169 165 167
f 167 165 169
f 168 170 166
f 166 170 168
f 165 169 171
f 171 169 165
f 170 168 172
f 172 168 170
f 173 171 169
f 169 171 173
f 172 174 170
f 170 174 172
f 171 173 175
f 175 173 171
f 174 172 176
f 176 172 174
f 177 175 173
f 173 175 177
f 176 178 174
f 174 178 176
f 175 177 179
f 179 177 175
f 178 176 180
f 180 176 178
f 181 179 177
f 177 179 181
f 182 178 180
f 180 178 182
f 179 181 183
f 183 181 179
f 178 182 184
f 184 182 178
f 185 183 181
f 181 183 185
f 186 184 182
f 182 184 186
f 183 185 187
f 187 185 183
f 184 186 188
f 188 186 184
f 189 187 185
f 185 187 189
f 190 188 186
f 186 188 190
f 187 189 191
f 191 189 187
f 188 190 192
f 192 190 188
f 189 193 191
f 191 193 189
f 194 192 190
f 190 192 194
f 193 189 195
f 195 189 193
f 192 194 196
f 196 194 192
f 195 197 193
f 193 197 195
f 198 196 194
f 194 196 198
f 197 195 199
f 199 195 197
f 196 198 200
f 200 198 196
f 199 201 197
f 197 201 199
f 202 200 198
f 198 200 202
f 201 199 203
f 203 199 201
f 200 202 204
f 204 202 200
f 203 205 201
f 201 205 203
f 202 206 204
f 204 206 202
f 205 203 207
f 207 203 205
f 206 202 208
f 208 202 206
f 207 208 205
f 205 208 207
f 208 207 206
f 206 207 208
f 209 210 211
f 210 209 212
f 211 210 209
f 212 209 210
f 211 213 209
f 209 213 211
f 212 214 210
f 210 214 212
f 213 211 215
f 215 211 213
f 214 212 216
f 216 212 214
f 217 213 215
f 215 213 217
f 216 218 214
f 214 218 216
f 213 217 219
f 219 217 213
f 218 216 220
f 220 216 218
f 221 219 217
f 217 219 221
f 220 222 218
f 218 222 220
f 219 221 223
f 223 221 219
f 222 220 224
f 224 220 222
f 225 223 221
f 221 223 225
f 224 226 222
f 222 226 224
f 223 225 227
f 227 225 223
f 226 224 228
f 228 224 226
f 229 227 225
f 225 227 229
f 230 226 228
f 228 226 230
f 227 229 231
f 231 229 227
f 226 230 232
f 232 230 226
f 233 231 229
f 229 231 233
f 234 232 230
f 230 232 234
f 231 233 235
f 235 233 231
f 232 234 236
f 236 234 232
f 237 235 233
f 233 235 237
f 238 236 234
f 234 236 238
f 235 237 239
f 239 237 235
f 236 238 240
f 240 238 236
f 237 241 239
f 239 241 237
f 242 240 238
f 238 240 242
f 241 237 243
f 243 237 241
f 240 242 244
f 244 242 240
f 243 245 241
f 241 245 243
f 246 244 242
f 242 244 246
f 245 243 247
f 247 243 245
f 244 246 248
f 248 246 244
f 247 249 245
f 245 249 247
f 250 248 246
f 246 248 250
f 249 247 251
f 251 247 249
f 248 250 252
f 252 250 248
f 251 253 249
f 249 253 251
f 250 254 252
f 252 254 250
f 253 251 255
f 255 251 253
f 254 250 256
f 256 250 254
f 255 256 253
f 253 256 255
f 256 255 254
f 254 255 256
f 257 258 259
f 258 257 260
f 259 258 257
f 260 257 258
f 261 259 258
f 258 259 261
f 262 260 257
f 257 260 262
f 259 261 263
f 263 261 259
f 260 262 264
f 264 262 260
f 261 265 263
f 263 265 261
f 266 264 262
f 262 264 266
f 265 261 267
f 267 261 265
f 264 266 268
f 268 266 264
f 267 269 265
f 265 269 267
f 270 268 266
f 266 268 270
f 269 267 271
f 271 267 269
f 268 270 272
f 272 270 268
f 271 273 269
f 269 273 271
f 274 272 270
f 270 272 274
f 273 271 275
f 275 271 273
f 272 274 276
f 276 274 272
f 275 277 273
f 273 277 275
f 274 278 276
f 276 278 274
f 277 275 279
f 279 275 277
f 278 274 280
f 280 274 278
f 279 281 277
f 277 281 279
f 280 282 278
f 278 282 280
f 281 279 283
f 283 279 281
f 282 280 284
f 284 280 282
f 283 285 281
f 281 285 283
f 284 286 282
f 282 286 284
f 285 283 287
f 287 283 285
f 286 284 288
f 288 284 286
f 289 285 287
f 287 285 289
f 288 290 286
f 286 290 288
f 285 289 291
f 291 289 285
f 290 288 292
f 292 288 290
f 293 291 289
f 289 291 293
f 292 294 290
f 290 294 292
f 291 293 295
f 295 293 291
f 294 292 296
f 296 292 294
f 297 295 293
f 293 295 297
f 296 298 294
f 294 298 296
f 295 297 299
f 299 297 295
f 298 296 300
f 300 296 298
f 301 299 297
f 297 299 301
f 302 298 300
f 300 298 302
f 299 301 303
f 303 301 299
f 298 302 304
f 304 302 298
f 304 303 301
f 301 303 304
f 303 304 302
f 302 304 303
f 305 306 307
f 306 305 308
f 307 306 305
f 308 305 306
f 309 307 306
f 306 307 309
f 310 308 305
f 305 308 310
f 307 309 311
f 311 309 307
f 308 310 312
f 312 310 308
f 309 313 311
f 311 313 309
f 314 312 310
f 310 312 314
f 313 309 315
f 315 309 313
f 312 314 316
f 316 314 312
f 315 317 313
f 313 317 315
f 318 316 314
f 314 316 318
f 317 315 319
f 319 315 317
f 316 318 320
f 320 318 316
f 319 321 317
f 317 321 319
f 322 320 318
f 318 320 322
f 321 319 323
f 323 319 321
f 320 322 324
f 324 322 320
f 323 325 321
f 321 325 323
f 322 326 324
f 324 326 322
f 325 323 327
f 327 323 325
f 326 322 328
f 328 322 326
f 327 329 325
f 325 329 327
f 328 330 326
f 326 330 328
f 329 327 331
f 331 327 329
f 330 328 332
f 332 328 330
f 331 333 329
f 329 333 331
f 332 334 330
f 330 334 332
f 333 331 335
f 335 331 333
f 334 332 336
f 336 332 334
f 337 333 335
f 335 333 337
f 336 338 334
f 334 338 336
f 333 337 339
f 339 337 333
f 338 336 340
f 340 336 338
f 341 339 337
f 337 339 341
f 340 342 338
f 338 342 340
f 339 341 343
f 343 341 339
f 342 340 344
f 344 340 342
f 345 343 341
f 341 343 345
f 344 346 342
f 342 346 344
f 343 345 347
f 347 345 343
f 346 344 348
f 348 344 346
f 349 347 345
f 345 347 349
f 350 346 348
f 348 346 350
f 347 349 351
f 351 349 347
f 346 350 352
f 352 350 346
f 352 351 349
f 349 351 352
f 351 352 350
f 350 352 351
f 353 354 355
f 354 353 356
f 355 354 353
f 356 353 354
f 357 355 354
f 354 355 357
f 355 358 353
f 353 358 355
f 358 356 353
f 353 356 358
f 359 354 356
f 356 354 359
f 355 357 360
f 360 357 355
f 354 361 357
f 357 361 354
f 358 355 360
f 360 355 358
f 356 358 359
f 359 358 356
f 354 359 361
f 361 359 354
f 362 360 357
f 357 360 362
f 357 361 363
f 363 361 357
f 358 360 364
f 364 360 358
f 364 359 358
f 358 359 364
f 359 364 361
f 361 364 359
f 360 362 365
f 365 362 360
f 357 363 362
f 362 363 357
f 361 366 363
f 363 366 361
f 364 360 365
f 365 360 364
f 366 361 364
f 364 361 366
f 362 367 365
f 365 367 362
f 362 363 368
f 368 363 362
f 366 368 363
f 363 368 366
f 364 365 366
f 366 365 364
f 367 362 369
f 369 362 367
f 366 365 367
f 367 365 366
f 362 368 369
f 369 368 362
f 368 366 370
f 370 366 368
f 369 371 367
f 367 371 369
f 366 367 370
f 370 367 366
f 369 368 372
f 372 368 369
f 370 372 368
f 368 372 370
f 371 369 373
f 373 369 371
f 370 367 371
f 371 367 370
f 369 372 373
f 373 372 369
f 372 370 374
f 374 370 372
f 373 375 371
f 371 375 373
f 370 371 374
f 374 371 370
f 373 372 376
f 376 372 373
f 374 376 372
f 372 376 374
f 375 373 377
f 377 373 375
f 374 371 375
f 375 371 374
f 373 376 377
f 377 376 373
f 376 374 378
f 378 374 376
f 377 379 375
f 375 379 377
f 374 375 378
f 378 375 374
f 377 376 380
f 380 376 377
f 378 380 376
f 376 380 378
f 379 377 381
f 381 377 379
f 378 375 379
f 379 375 378
f 377 380 381
f 381 380 377
f 380 378 382
f 382 378 380
f 381 383 379
f 379 383 381
f 378 379 382
f 382 379 378
f 381 380 384
f 384 380 381
f 382 384 380
f 380 384 382
f 383 381 385
f 385 381 383
f 382 379 383
f 383 379 382
f 381 384 385
f 385 384 381
f 384 382 386
f 386 382 384
f 385 387 383
f 383 387 385
f 382 383 386
f 386 383 382
f 385 384 388
f 388 384 385
f 386 388 384
f 384 388 386
f 387 385 389
f 389 385 387
f 386 383 387
f 387 383 386
f 385 388 389
f 389 388 385
f 388 386 390
f 390 386 388
f 391 387 389
f 389 387 391
f 386 387 390
f 390 387 386
f 389 388 392
f 392 388 389
f 393 388 390
f 390 388 393
f 387 391 394
f 394 391 387
f 389 392 391
f 391 392 389
f 390 387 394
f 394 387 390
f 388 393 392
f 392 393 388
f 390 394 393
f 393 394 390
f 395 394 391
f 391 394 395
f 391 392 396
f 396 392 391
f 397 392 393
f 393 392 397
f 393 394 398
f 398 394 393
f 394 395 398
f 398 395 394
f 391 396 395
f 395 396 391
f 392 397 396
f 396 397 392
f 393 398 397
f 397 398 393
f 399 398 395
f 395 398 399
f 395 396 399
f 399 396 395
f 400 396 397
f 397 396 400
f 397 398 400
f 400 398 397
f 398 399 400
f 400 399 398
f 396 400 399
f 399 400 396
f 401 402 403
f 402 401 404
f 403 402 401
f 404 401 402
f 405 403 402
f 402 403 405
f 403 406 401
f 401 406 403
f 407 404 401
f 401 404 407
f 408 402 404
f 404 402 408
f 403 405 409
f 409 405 403
f 402 408 405
f 405 408 402
f 403 410 406
f 406 410 403
f 401 406 411
f 411 406 401
f 404 407 412
f 412 407 404
f 401 411 407
f 407 411 401
f 408 404 413
f 413 404 408
f 408 409 405
f 405 409 408
f 410 403 409
f 409 403 410
f 410 413 406
f 406 413 410
f 406 414 411
f 411 414 406
f 407 415 412
f 412 415 407
f 413 404 412
f 412 404 413
f 407 411 416
f 416 411 407
f 413 410 408
f 408 410 413
f 409 408 410
f 410 408 409
f 414 406 413
f 413 406 414
f 414 416 411
f 411 416 414
f 415 407 417
f 417 407 415
f 414 412 415
f 415 412 414
f 413 412 414
f 414 412 413
f 407 416 417
f 417 416 407
f 416 414 418
f 418 414 416
f 417 419 415
f 415 419 417
f 414 415 418
f 418 415 414
f 417 416 420
f 420 416 417
f 418 420 416
f 416 420 418
f 419 417 421
f 421 417 419
f 418 415 419
f 419 415 418
f 417 420 421
f 421 420 417
f 420 418 422
f 422 418 420
f 421 423 419
f 419 423 421
f 418 419 422
f 422 419 418
f 421 420 424
f 424 420 421
f 422 424 420
f 420 424 422
f 423 421 425
f 425 421 423
f 422 419 423
f 423 419 422
f 421 424 425
f 425 424 421
f 424 422 426
f 426 422 424
f 425 427 423
f 423 427 425
f 422 423 426
f 426 423 422
f 425 424 428
f 428 424 425
f 426 428 424
f 424 428 426
f 427 425 429
f 429 425 427
f 426 423 427
f 427 423 426
f 425 428 429
f 429 428 425
f 428 426 430
f 430 426 428
f 429 431 427
f 427 431 429
f 426 427 430
f 430 427 426
f 429 428 432
f 432 428 429
f 430 432 428
f 428 432 430
f 431 429 433
f 433 429 431
f 430 427 431
f 431 427 430
f 429 432 433
f 433 432 429
f 432 430 434
f 434 430 432
f 433 435 431
f 431 435 433
f 430 431 434
f 434 431 430
f 433 432 436
f 436 432 433
f 434 436 432
f 432 436 434
f 435 433 437
f 437 433 435
f 434 431 435
f 435 431 434
f 433 436 437
f 437 436 433
f 436 434 438
f 438 434 436
f 439 435 437
f 437 435 439
f 434 435 438
f 438 435 434
f 437 436 440
f 440 436 437
f 441 436 438
f 438 436 441
f 435 439 442
f 442 439 435
f 437 440 439
f 439 440 437
f 438 435 442
f 442 435 438
f 436 441 440
f 440 441 436
f 438 442 441
f 441 442 438
f 443 442 439
f 439 442 443
f 439 440 444
f 444 440 439
f 445 440 441
f 441 440 445
f 441 442 446
f 446 442 441
f 442 443 446
f 446 443 442
f 439 444 443
f 443 444 439
f 440 445 444
f 444 445 440
f 441 446 445
f 445 446 441
f 447 446 443
f 443 446 447
f 443 444 447
f 447 444 443
f 448 444 445
f 445 444 448
f 445 446 448
f 448 446 445
f 446 447 448
f 448 447 446
f 444 448 447
f 447 448 444
f 449 450 451
f 450 449 452
f 451 450 449
f 452 449 450
f 453 451 450
f 450 451 453
f 454 452 449
f 449 452 454
f 451 453 455
f 455 453 451
f 452 454 456
f 456 454 452
f 457 455 453
f 453 455 457
f 454 458 456
f 456 458 454
f 455 457 459
f 459 457 455
f 458 454 460
f 460 454 458
f 461 459 457
f 457 459 461
f 460 462 458
f 458 462 460
f 459 461 463
f 463 461 459
f 462 460 464
f 464 460 462
f 465 463 461
f 461 463 465
f 464 466 462
f 462 466 464
f 463 465 467
f 467 465 463
f 466 464 468
f 468 464 466
f 465 469 467
f 467 469 465
f 468 470 466
f 466 470 468
f 469 465 471
f 471 465 469
f 470 468 472
f 472 468 470
f 471 473 469
f 469 473 471
f 472 474 470
f 470 474 472
f 473 471 475
f 475 471 473
f 474 472 476
f 476 472 474
f 475 477 473
f 473 477 475
f 476 478 474
f 474 478 476
f 477 475 479
f 479 475 477
f 478 476 480
f 480 476 478
f 479 481 477
f 477 481 479
f 482 478 480
f 480 478 482
f 481 479 483
f 483 479 481
f 478 482 484
f 484 482 478
f 483 485 481
f 481 485 483
f 486 484 482
f 482 484 486
f 485 483 487
f 487 483 485
f 484 486 488
f 488 486 484
f 487 489 485
f 485 489 487
f 490 488 486
f 486 488 490
f 489 487 491
f 491 487 489
f 488 490 492
f 492 490 488
f 493 489 491
f 491 489 493
f 494 492 490
f 490 492 494
f 489 493 495
f 495 493 489
f 492 494 496
f 496 494 492
f 496 495 493
f 493 495 496
f 495 496 494
f 494 496 495
f 497 498 499
f 498 497 500
f 499 498 497
f 500 497 498
f 501 499 498
f 498 499 501
f 502 500 497
f 497 500 502
f 499 501 503
f 503 501 499
f 500 502 504
f 504 502 500
f 505 503 501
f 501 503 505
f 502 506 504
f 504 506 502
f 503 505 507
f 507 505 503
f 506 502 508
f 508 502 506
f 509 507 505
f 505 507 509
f 508 510 506
f 506 510 508
f 507 509 511
f 511 509 507
f 510 508 512
f 512 508 510
f 513 511 509
f 509 511 513
f 512 514 510
f 510 514 512
f 511 513 515
f 515 513 511
f 514 512 516
f 516 512 514
f 513 517 515
f 515 517 513
f 516 518 514
f 514 518 516
f 517 513 519
f 519 513 517
f 518 516 520
f 520 516 518
f 519 521 517
f 517 521 519
f 520 522 518
f 518 522 520
f 521 519 523
f 523 519 521
f 522 520 524
f 524 520 522
f 523 525 521
f 521 525 523
f 524 526 522
f 522 526 524
f 525 523 527
f 527 523 525
f 526 524 528
f 528 524 526
f 527 529 525
f 525 529 527
f 530 526 528
f 528 526 530
f 529 527 531
f 531 527 529
f 526 530 532
f 532 530 526
f 531 533 529
f 529 533 531
f 534 532 530
f 530 532 534
f 533 531 535
f 535 531 533
f 532 534 536
f 536 534 532
f 535 537 533
f 533 537 535
f 538 536 534
f 534 536 538
f 537 535 539
f 539 535 537
f 536 538 540
f 540 538 536
f 541 537 539
f 539 537 541
f 542 540 538
f 538 540 542
f 537 541 543
f 543 541 537
f 540 542 544
f 544 542 540
f 544 543 541
f 541 543 544
f 543 544 542
f 542 544 543
f 545 546 547
f 546 545 548
f 547 546 545
f 548 545 546
f 549 547 546
f 546 547 549
f 550 548 545
f 545 548 550
f 547 549 551
f 551 549 547
f 548 550 552
f 552 550 548
f 553 551 549
f 549 551 553
f 554 552 550
f 550 552 554
f 551 553 555
f 555 553 551
f 552 554 556
f 556 554 552
f 553 557 555
f 555 557 553
f 558 556 554
f 554 556 558
f 557 553 559
f 559 553 557
f 556 558 560
f 560 558 556
f 559 561 557
f 557 561 559
f 558 562 560
f 560 562 558
f 561 559 563
f 563 559 561
f 562 558 564
f 564 558 562
f 563 565 561
f 561 565 563
f 564 566 562
f 562 566 564
f 565 563 567
f 567 563 565
f 566 564 568
f 568 564 566
f 567 569 565
f 565 569 567
f 568 570 566
f 566 570 568
f 569 567 571
f 571 567 569
f 570 568 572
f 572 568 570
f 571 573 569
f 569 573 571
f 572 574 570
f 570 574 572
f 573 571 575
f 575 571 573
f 574 572 576
f 576 572 574
f 575 577 573
f 573 577 575
f 576 578 574
f 574 578 576
f 577 575 579
f 579 575 577
f 578 576 580
f 580 576 578
f 581 577 579
f 579 577 581
f 580 582 578
f 578 582 580
f 577 581 583
f 583 581 577
f 582 580 584
f 584 580 582
f 585 583 581
f 581 583 585
f 586 582 584
f 584 582 586
f 583 585 587
f 587 585 583
f 582 586 588
f 588 586 582
f 589 587 585
f 585 587 589
f 590 588 586
f 586 588 590
f 587 589 591
f 591 589 587
f 588 590 592
f 592 590 588
f 592 591 589
f 589 591 592
f 591 592 590
f 590 592 591
f 593 594 595
f 594 593 596
f 595 594 593
f 596 593 594
f 597 595 594
f 594 595 597
f 598 596 593
f 593 596 598
f 595 597 599
f 599 597 595
f 596 598 600
f 600 598 596
f 601 599 597
f 597 599 601
f 602 600 598
f 598 600 602
f 599 601 603
f 603 601 599
f 600 602 604
f 604 602 600
f 601 605 603
f 603 605 601
f 606 604 602
f 602 604 606
f 605 601 607
f 607 601 605
f 604 606 608
f 608 606 604
f 607 609 605
f 605 609 607
f 606 610 608
f 608 610 606
f 609 607 611
f 611 607 609
f 610 606 612
f 612 606 610
f 611 613 609
f 609 613 611
f 612 614 610
f 610 614 612
f 613 611 615
f 615 611 613
f 614 612 616
f 616 612 614
f 615 617 613
f 613 617 615
f 616 618 614
f 614 618 616
f 617 615 619
f 619 615 617
f 618 616 620
f 620 616 618
f 619 621 617
f 617 621 619
f 620 622 618
f 618 622 620
f 621 619 623
f 623 619 621
f 622 620 624
f 624 620 622
f 623 625 621
f 621 625 623
f 624 626 622
f 622 626 624
f 625 623 627
f 627 623 625
f 626 624 628
f 628 624 626
f 629 625 627
f 627 625 629
f 628 630 626
f 626 630 628
f 625 629 631
f 631 629 625
f 630 628 632
f 632 628 630
f 633 631 629
f 629 631 633
f 634 630 632
f 632 630 634
f 631 633 635
f 635 633 631
f 630 634 636
f 636 634 630
f 637 635 633
f 633 635 637
f 638 636 634
f 634 636 638
f 635 637 639
f 639 637 635
f 636 638 640
f 640 638 636
f 640 639 637
f 637 639 640
f 639 640 638
f 638 640 639
f 641 642 643
f 642 641 644
f 643 642 641
f 644 641 642
f 645 643 642
f 642 643 645
f 643 646 641
f 641 646 643
f 646 644 641
f 641 644 646
f 647 642 644
f 644 642 647
f 643 645 648
f 648 645 643
f 642 649 645
f 645 649 642
f 646 643 648
f 648 643 646
f 644 646 647
f 647 646 644
f 642 647 649
f 649 647 642
f 650 648 645
f 645 648 650
f 645 649 651
f 651 649 645
f 646 648 652
f 652 648 646
f 652 647 646
f 646 647 652
f 647 652 649
f 649 652 647
f 648 650 653
f 653 650 648
f 645 651 650
f 650 651 645
f 649 654 651
f 651 654 649
f 652 648 653
f 653 648 652
f 654 649 652
f 652 649 654
f 650 655 653
f 653 655 650
f 650 651 656
f 656 651 650
f 654 656 651
f 651 656 654
f 652 653 654
f 654 653 652
f 655 650 657
f 657 650 655
f 654 653 655
f 655 653 654
f 650 656 657
f 657 656 650
f 656 654 658
f 658 654 656
f 657 659 655
f 655 659 657
f 654 655 658
f 658 655 654
f 657 656 660
f 660 656 657
f 658 660 656
f 656 660 658
f 659 657 661
f 661 657 659
f 658 655 659
f 659 655 658
f 657 660 661
f 661 660 657
f 660 658 662
f 662 658 660
f 661 663 659
f 659 663 661
f 658 659 662
f 662 659 658
f 661 660 664
f 664 660 661
f 662 664 660
f 660 664 662
f 663 661 665
f 665 661 663
f 662 659 663
f 663 659 662
f 661 664 665
f 665 664 661
f 664 662 666
f 666 662 664
f 665 667 663
f 663 667 665
f 662 663 666
f 666 663 662
f 665 664 668
f 668 664 665
f 666 668 664
f 664 668 666
f 667 665 669
f 669 665 667
f 666 663 667
f 667 663 666
f 665 668 669
f 669 668 665
f 668 666 670
f 670 666 668
f 669 671 667
f 667 671 669
f 666 667 670
f 670 667 666
f 669 668 672
f 672 668 669
f 670 672 668
f 668 672 670
f 671 669 673
f 673 669 671
f 670 667 671
f 671 667 670
f 669 672 673
f 673 672 669
f 672 670 674
f 674 670 672
f 673 675 671
f 671 675 673
f 670 671 674
f 674 671 670
f 673 672 676
f 676 672 673
f 674 676 672
f 672 676 674
f 675 673 677
f 677 673 675
f 674 671 675
f 675 671 674
f 673 676 677
f 677 676 673
f 676 674 678
f 678 674 676
f 679 675 677
f 677 675 679
f 674 675 678
f 678 675 674
f 677 676 680
f 680 676 677
f 681 676 678
f 678 676 681
f 675 679 682
f 682 679 675
f 677 680 679
f 679 680 677
f 678 675 682
f 682 675 678
f 676 681 680
f 680 681 676
f 678 682 681
f 681 682 678
f 683 682 679
f 679 682 683
f 679 680 684
f 684 680 679
f 685 680 681
f 681 680 685
f 681 682 686
f 686 682 681
f 682 683 686
f 686 683 682
f 679 684 683
f 683 684 679
f 680 685 684
f 684 685 680
f 681 686 685
f 685 686 681
f 687 686 683
f 683 686 687
f 683 684 687
f 687 684 683
f 688 684 685
f 685 684 688
f 685 686 688
f 688 686 685
f 686 687 688
f 688 687 686
f 684 688 687
f 687 688 684
f 689 690 691
f 690 689 692
f 691 690 689
f 692 689 690
f 690 693 691
f 691 693 690
f 691 694 689
f 689 694 691
f 689 695 692
f 692 695 689
f 690 692 696
f 696 692 690
f 693 690 697
f 697 690 693
f 694 691 693
f 693 691 694
f 695 689 694
f 694 689 695
f 698 692 695
f 695 692 698
f 692 698 696
f 696 698 692
f 690 696 699
f 699 696 690
f 699 697 690
f 690 697 699
f 697 694 693
f 693 694 697
f 694 697 695
f 695 697 694
f 695 697 698
f 698 697 695
f 700 696 698
f 698 696 700
f 699 696 701
f 701 696 699
f 697 699 702
f 702 699 697
f 698 697 702
f 702 697 698
f 696 700 701
f 701 700 696
f 698 702 700
f 700 702 698
f 699 701 703
f 703 701 699
f 703 702 699
f 699 702 703
f 700 704 701
f 701 704 700
f 700 702 705
f 705 702 700
f 703 701 704
f 704 701 703
f 702 703 705
f 705 703 702
f 704 700 706
f 706 700 704
f 700 705 707
f 707 705 700
f 703 704 708
f 708 704 703
f 703 707 705
f 705 707 703
f 700 707 706
f 706 707 700
f 706 709 704
f 704 709 706
f 708 704 709
f 709 704 708
f 707 703 708
f 708 703 707
f 706 707 710
f 710 707 706
f 709 706 710
f 710 706 709
f 708 709 711
f 711 709 708
f 708 712 707
f 707 712 708
f 710 707 712
f 712 707 710
f 710 713 709
f 709 713 710
f 711 709 713
f 713 709 711
f 712 708 711
f 711 708 712
f 710 712 714
f 714 712 710
f 713 710 714
f 714 710 713
f 711 713 715
f 715 713 711
f 711 716 712
f 712 716 711
f 714 712 716
f 716 712 714
f 714 717 713
f 713 717 714
f 715 713 717
f 717 713 715
f 716 711 715
f 715 711 716
f 714 716 718
f 718 716 714
f 717 714 718
f 718 714 717
f 715 717 719
f 719 717 715
f 715 720 716
f 716 720 715
f 718 716 720
f 720 716 718
f 718 721 717
f 717 721 718
f 719 717 721
f 721 717 719
f 720 715 719
f 719 715 720
f 718 720 722
f 722 720 718
f 721 718 722
f 722 718 721
f 719 721 723
f 723 721 719
f 719 724 720
f 720 724 719
f 722 720 724
f 724 720 722
f 722 725 721
f 721 725 722
f 723 721 725
f 725 721 723
f 724 719 723
f 723 719 724
f 722 724 726
f 726 724 722
f 725 722 726
f 726 722 725
f 723 725 727
f 727 725 723
f 723 728 724
f 724 728 723
f 726 724 728
f 728 724 726
f 726 729 725
f 725 729 726
f 727 725 729
f 729 725 727
f 728 723 727
f 727 723 728
f 726 728 730
f 730 728 726
f 729 726 730
f 730 726 729
f 727 729 731
f 731 729 727
f 727 732 728
f 728 732 727
f 730 728 732
f 732 728 730
f 733 729 730
f 730 729 733
f 731 729 734
f 734 729 731
f 732 727 731
f 731 727 732
f 730 732 733
f 733 732 730
f 729 733 734
f 734 733 729
f 731 734 735
f 735 734 731
f 735 732 731
f 731 732 735
f 733 732 736
f 736 732 733
f 737 734 733
f 733 734 737
f 735 734 738
f 738 734 735
f 732 735 736
f 736 735 732
f 733 736 737
f 737 736 733
f 734 737 738
f 738 737 734
f 735 738 739
f 739 738 735
f 739 736 735
f 735 736 739
f 737 736 740
f 740 736 737
f 741 738 737
f 737 738 741
f 739 738 742
f 742 738 739
f 736 739 740
f 740 739 736
f 737 740 741
f 741 740 737
f 738 741 742
f 742 741 738
f 739 742 743
f 743 742 739
f 743 740 739
f 739 740 743
f 741 740 744
f 744 740 741
f 744 742 741
f 741 742 744
f 742 744 743
f 743 744 742
f 740 743 744
f 744 743 740
f 745 746 747
f 746 745 748
f 747 746 745
f 748 745 746
f 746 749 747
f 747 749 746
f 747 750 745
f 745 750 747
f 745 751 748
f 748 751 745
f 746 748 752
f 752 748 746
f 749 746 753
f 753 746 749
f 750 747 749
f 749 747 750
f 751 745 750
f 750 745 751
f 754 748 751
f 751 748 754
f 748 754 752
f 752 754 748
f 746 752 755
f 755 752 746
f 755 753 746
f 746 753 755
f 753 750 749
f 749 750 753
f 750 753 751
f 751 753 750
f 751 753 754
f 754 753 751
f 756 752 754
f 754 752 756
f 755 752 757
f 757 752 755
f 753 755 758
f 758 755 753
f 754 753 758
f 758 753 754
f 752 756 757
f 757 756 752
f 754 758 756
f 756 758 754
f 755 757 759
f 759 757 755
f 759 758 755
f 755 758 759
f 756 760 757
f 757 760 756
f 756 758 761
f 761 758 756
f 759 757 760
f 760 757 759
f 758 759 761
f 761 759 758
f 760 756 762
f 762 756 760
f 756 761 763
f 763 761 756
f 759 760 764
f 764 760 759
f 759 763 761
f 761 763 759
f 756 763 762
f 762 763 756
f 762 765 760
f 760 765 762
f 764 760 765
f 765 760 764
f 763 759 764
f 764 759 763
f 762 763 766
f 766 763 762
f 765 762 766
f 766 762 765
f 764 765 767
f 767 765 764
f 764 768 763
f 763 768 764
f 766 763 768
f 768 763 766
f 766 769 765
f 765 769 766
f 767 765 769
f 769 765 767
f 768 764 767
f 767 764 768
f 766 768 770
f 770 768 766
f 769 766 770
f 770 766 769
f 767 769 771
f 771 769 767
f 767 772 768
f 768 772 767
f 770 768 772
f 772 768 770
f 770 773 769
f 769 773 770
f 771 769 773
f 773 769 771
f 772 767 771
f 771 767 772
f 770 772 774
f 774 772 770
f 773 770 774
f 774 770 773
f 771 773 775
f 775 773 771
f 771 776 772
f 772 776 771
f 774 772 776
f 776 772 774
f 774 777 773
f 773 777 774
f 775 773 777
f 777 773 775
f 776 771 775
f 775 771 776
f 774 776 778
f 778 776 774
f 777 774 778
f 778 774 777
f 775 777 779
f 779 777 775
f 775 780 776
f 776 780 775
f 778 776 780
f 780 776 778
f 778 781 777
f 777 781 778
f 779 777 781
f 781 777 779
f 780 775 779
f 779 775 780
f 778 780 782
f 782 780 778
f 781 778 782
f 782 778 781
f 779 781 783
f 783 781 779
f 779 784 780
f 780 784 779
f 782 780 784
f 784 780 782
f 782 785 781
f 781 785 782
f 783 781 785
f 785 781 783
f 784 779 783
f 783 779 784
f 782 784 786
f 786 784 782
f 785 782 786
f 786 782 785
f 783 785 787
f 787 785 783
f 783 788 784
f 784 788 783
f 786 784 788
f 788 784 786
f 789 785 786
f 786 785 789
f 787 785 790
f 790 785 787
f 788 783 787
f 787 783 788
f 786 788 789
f 789 788 786
f 785 789 790
f 790 789 785
f 787 790 791
f 791 790 787
f 791 788 787
f 787 788 791
f 789 788 792
f 792 788 789
f 793 790 789
f 789 790 793
f 791 790 794
f 794 790 791
f 788 791 792
f 792 791 788
f 789 792 793
f 793 792 789
f 790 793 794
f 794 793 790
f 791 794 795
f 795 794 791
f 795 792 791
f 791 792 795
f 793 792 796
f 796 792 793
f 797 794 793
f 793 794 797
f 795 794 798
f 798 794 795
f 792 795 796
f 796 795 792
f 793 796 797
f 797 796 793
f 794 797 798
f 798 797 794
f 795 798 799
f 799 798 795
f 799 796 795
f 795 796 799
f 797 796 800
f 800 796 797
f 800 798 797
f 797 798 800
f 798 800 799
f 799 800 798
f 796 799 800
f 800 799 796
f 801 802 803
f 802 801 804
f 803 802 801
f 804 801 802
f 802 805 803
f 803 805 802
f 803 806 801
f 801 806 803
f 801 807 804
f 804 807 801
f 802 804 808
f 808 804 802
f 805 802 809
f 809 802 805
f 806 803 805
f 805 803 806
f 807 801 806
f 806 801 807
f 810 804 807
f 807 804 810
f 808 804 811
f 811 804 808
f 808 809 802
f 802 809 808
f 809 806 805
f 805 806 809
f 806 812 807
f 807 812 806
f 804 810 811
f 811 810 804
f 807 813 810
f 810 813 807
f 808 811 814
f 814 811 808
f 809 808 812
f 812 808 809
f 806 809 812
f 812 809 806
f 807 812 813
f 813 812 807
f 810 815 811
f 811 815 810
f 810 813 816
f 816 813 810
f 814 811 815
f 815 811 814
f 814 812 808
f 808 812 814
f 812 814 813
f 813 814 812
f 815 810 817
f 817 810 815
f 814 816 813
f 813 816 814
f 810 816 817
f 817 816 810
f 814 815 818
f 818 815 814
f 817 819 815
f 815 819 817
f 816 814 818
f 818 814 816
f 817 816 820
f 820 816 817
f 818 815 819
f 819 815 818
f 819 817 821
f 821 817 819
f 818 820 816
f 816 820 818
f 817 820 821
f 821 820 817
f 818 819 822
f 822 819 818
f 821 823 819
f 819 823 821
f 820 818 822
f 822 818 820
f 821 820 824
f 824 820 821
f 822 819 823
f 823 819 822
f 823 821 825
f 825 821 823
f 822 824 820
f 820 824 822
f 821 824 825
f 825 824 821
f 822 823 826
f 826 823 822
f 825 827 823
f 823 827 825
f 824 822 826
f 826 822 824
f 825 824 828
f 828 824 825
f 826 823 827
f 827 823 826
f 827 825 829
f 829 825 827
f 826 828 824
f 824 828 826
f 825 828 829
f 829 828 825
f 826 827 830
f 830 827 826
f 829 831 827
f 827 831 829
f 828 826 830
f 830 826 828
f 829 828 832
f 832 828 829
f 830 827 831
f 831 827 830
f 831 829 833
f 833 829 831
f 830 832 828
f 828 832 830
f 829 832 833
f 833 832 829
f 830 831 834
f 834 831 830
f 833 835 831
f 831 835 833
f 832 830 834
f 834 830 832
f 833 832 836
f 836 832 833
f 834 831 835
f 835 831 834
f 835 833 837
f 837 833 835
f 834 836 832
f 832 836 834
f 833 836 837
f 837 836 833
f 834 835 838
f 838 835 834
f 839 835 837
f 837 835 839
f 836 834 838
f 838 834 836
f 837 836 840
f 840 836 837
f 838 835 841
f 841 835 838
f 835 839 841
f 841 839 835
f 837 840 839
f 839 840 837
f 842 836 838
f 838 836 842
f 836 842 840
f 840 842 836
f 838 841 842
f 842 841 838
f 843 841 839
f 839 841 843
f 839 840 844
f 844 840 839
f 845 840 842
f 842 840 845
f 842 841 846
f 846 841 842
f 841 843 846
f 846 843 841
f 839 844 843
f 843 844 839
f 840 845 844
f 844 845 840
f 842 846 845
f 845 846 842
f 847 846 843
f 843 846 847
f 843 844 847
f 847 844 843
f 848 844 845
f 845 844 848
f 845 846 848
f 848 846 845
f 846 847 848
f 848 847 846
f 844 848 847
f 847 848 844
f 849 850 851
f 850 849 852
f 851 850 849
f 852 849 850
f 850 853 851
f 851 853 850
f 851 854 849
f 849 854 851
f 849 855 852
f 852 855 849
f 850 852 856
f 856 852 850
f 853 850 857
f 857 850 853
f 854 851 853
f 853 851 854
f 855 849 854
f 854 849 855
f 858 852 855
f 855 852 858
f 856 852 859
f 859 852 856
f 856 857 850
f 850 857 856
f 857 854 853
f 853 854 857
f 854 860 855
f 855 860 854
f 852 858 859
f 859 858 852
f 855 861 858
f 858 861 855
f 856 859 862
f 862 859 856
f 857 856 860
f 860 856 857
f 854 857 860
f 860 857 854
f 855 860 861
f 861 860 855
f 858 863 859
f 859 863 858
f 858 861 864
f 864 861 858
f 862 859 863
f 863 859 862
f 862 860 856
f 856 860 862
f 860 862 861
f 861 862 860
f 863 858 865
f 865 858 863
f 862 864 861
f 861 864 862
f 858 864 865
f 865 864 858
f 862 863 866
f 866 863 862
f 865 867 863
f 863 867 865
f 864 862 866
f 866 862 864
f 865 864 868
f 868 864 865
f 866 863 867
f 867 863 866
f 867 865 869
f 869 865 867
f 866 868 864
f 864 868 866
f 865 868 869
f 869 868 865
f 866 867 870
f 870 867 866
f 869 871 867
f 867 871 869
f 868 866 870
f 870 866 868
f 869 868 872
f 872 868 869
f 870 867 871
f 871 867 870
f 871 869 873
f 873 869 871
f 870 872 868
f 868 872 870
f 869 872 873
f 873 872 869
f 870 871 874
f 874 871 870
f 873 875 871
f 871 875 873
f 872 870 874
f 874 870 872
f 873 872 876
f 876 872 873
f 874 871 875
f 875 871 874
f 875 873 877
f 877 873 875
f 874 876 872
f 872 876 874
f 873 876 877
f 877 876 873
f 874 875 878
f 878 875 874
f 877 879 875
f 875 879 877
f 876 874 878
f 878 874 876
f 877 876 880
f 880 876 877
f 878 875 879
f 879 875 878
f 879 877 881
f 881 877 879
f 878 880 876
f 876 880 878
f 877 880 881
f 881 880 877
f 878 879 882
f 882 879 878
f 881 883 879
f 879 883 881
f 880 878 882
f 882 878 880
f 881 880 884
f 884 880 881
f 882 879 883
f 883 879 882
f 883 881 885
f 885 881 883
f 882 884 880
f 880 884 882
f 881 884 885
f 885 884 881
f 882 883 886
f 886 883 882
f 887 883 885
f 885 883 887
f 884 882 886
f 886 882 884
f 885 884 888
f 888 884 885
f 886 883 889
f 889 883 886
f 883 887 889
f 889 887 883
f 885 888 887
f 887 888 885
f 890 884 886
f 886 884 890
f 884 890 888
f 888 890 884
f 886 889 890
f 890 889 886
f 891 889 887
f 887 889 891
f 887 888 892
f 892 888 887
f 893 888 890
f 890 888 893
f 890 889 894
f 894 889 890
f 889 891 894
f 894 891 889
f 887 892 891
f 891 892 887
f 888 893 892
f 892 893 888
f 890 894 893
f 893 894 890
f 895 894 891
f 891 894 895
f 891 892 895
f 895 892 891
f 896 892 893
f 893 892 896
f 893 894 896
f 896 894 893
f 894 895 896
f 896 895 894
f 892 896 895
f 895 896 892
f 897 898 899
f 898 897 900
f 899 898 897
f 900 897 898
f 898 901 899
f 899 901 898
f 899 902 897
f 897 902 899
f 903 900 897
f 897 900 903
f 900 904 898
f 898 904 900
f 898 905 901
f 901 905 898
f 899 901 906
f 906 901 899
f 902 899 907
f 907 899 902
f 908 897 902
f 902 897 908
f 909 900 903
f 903 900 909
f 903 897 908
f 908 897 903
f 904 900 910
f 910 900 904
f 904 905 898
f 898 905 904
f 903 901 905
f 905 901 903
f 908 906 901
f 901 906 908
f 899 906 907
f 907 906 899
f 911 902 907
f 907 902 911
f 908 902 912
f 912 902 908
f 909 910 900
f 900 910 909
f 905 909 903
f 903 909 905
f 901 903 908
f 908 903 901
f 910 913 904
f 904 913 910
f 904 914 905
f 905 914 904
f 906 908 912
f 912 908 906
f 907 906 915
f 915 906 907
f 902 911 916
f 916 911 902
f 907 915 911
f 911 915 907
f 912 902 916
f 916 902 912
f 917 910 909
f 909 910 917
f 909 905 914
f 914 905 909
f 913 910 918
f 918 910 913
f 913 914 904
f 904 914 913
f 919 906 912
f 912 906 919
f 906 919 915
f 915 919 906
f 920 916 911
f 911 916 920
f 911 915 921
f 921 915 911
f 912 916 919
f 919 916 912
f 917 918 910
f 910 918 917
f 914 917 909
f 909 917 914
f 918 922 913
f 913 922 918
f 913 923 914
f 914 923 913
f 924 915 919
f 919 915 924
f 916 920 925
f 925 920 916
f 911 921 920
f 920 921 911
f 915 924 921
f 921 924 915
f 919 916 925
f 925 916 919
f 926 918 917
f 917 918 926
f 917 914 923
f 923 914 917
f 922 918 927
f 927 918 922
f 922 923 913
f 913 923 922
f 919 925 924
f 924 925 919
f 928 925 920
f 920 925 928
f 920 921 928
f 928 921 920
f 929 921 924
f 924 921 929
f 926 927 918
f 918 927 926
f 923 926 917
f 917 926 923
f 927 930 922
f 922 930 927
f 922 931 923
f 923 931 922
f 924 925 929
f 929 925 924
f 925 928 929
f 929 928 925
f 921 929 928
f 928 929 921
f 932 927 926
f 926 927 932
f 926 923 931
f 931 923 926
f 930 927 933
f 933 927 930
f 930 931 922
f 922 931 930
f 932 933 927
f 927 933 932
f 931 932 926
f 926 932 931
f 934 930 933
f 933 930 934
f 930 935 931
f 931 935 930
f 936 933 932
f 932 933 936
f 932 931 935
f 935 931 932
f 930 934 937
f 937 934 930
f 936 934 933
f 933 934 936
f 937 935 930
f 930 935 937
f 932 938 936
f 936 938 932
f 938 932 935
f 935 932 938
f 939 937 934
f 934 937 939
f 940 934 936
f 936 934 940
f 937 938 935
f 935 938 937
f 941 936 938
f 938 936 941
f 937 939 942
f 942 939 937
f 940 939 934
f 934 939 940
f 936 941 940
f 940 941 936
f 942 938 937
f 937 938 942
f 942 941 938
f 938 941 942
f 943 942 939
f 939 942 943
f 939 940 943
f 943 940 939
f 944 940 941
f 941 940 944
f 941 942 944
f 944 942 941
f 942 943 944
f 944 943 942
f 940 944 943
f 943 944 940
f 945 946 947
f 946 945 948
f 947 946 945
f 948 945 946
f 946 949 947
f 947 949 946
f 947 950 945
f 945 950 947
f 945 951 948
f 948 951 945
f 946 948 952
f 952 948 946
f 949 946 953
f 953 946 949
f 950 947 949
f 949 947 950
f 951 945 950
f 950 945 951
f 954 948 951
f 951 948 954
f 952 948 955
f 955 948 952
f 952 953 946
f 946 953 952
f 953 950 949
f 949 950 953
f 950 956 951
f 951 956 950
f 948 954 955
f 955 954 948
f 951 957 954
f 954 957 951
f 952 955 958
f 958 955 952
f 953 952 956
f 956 952 953
f 950 953 956
f 956 953 950
f 951 956 957
f 957 956 951
f 954 959 955
f 955 959 954
f 954 957 960
f 960 957 954
f 958 955 959
f 959 955 958
f 958 956 952
f 952 956 958
f 956 958 957
f 957 958 956
f 959 954 961
f 961 954 959
f 958 960 957
f 957 960 958
f 954 960 961
f 961 960 954
f 958 959 962
f 962 959 958
f 961 963 959
f 959 963 961
f 960 958 962
f 962 958 960
f 961 960 964
f 964 960 961
f 962 959 963
f 963 959 962
f 963 961 965
f 965 961 963
f 962 964 960
f 960 964 962
f 961 964 965
f 965 964 961
f 962 963 966
f 966 963 962
f 965 967 963
f 963 967 965
f 964 962 966
f 966 962 964
f 965 964 968
f 968 964 965
f 966 963 967
f 967 963 966
f 967 965 969
f 969 965 967
f 966 968 964
f 964 968 966
f 965 968 969
f 969 968 965
f 966 967 970
f 970 967 966
f 969 971 967
f 967 971 969
f 968 966 970
f 970 966 968
f 969 968 972
f 972 968 969
f 970 967 971
f 971 967 970
f 971 969 973
f 973 969 971
f 970 972 968
f 968 972 970
f 969 972 973
f 973 972 969
f 970 971 974
f 974 971 970
f 973 975 971
f 971 975 973
f 972 970 974
f 974 970 972
f 973 972 976
f 976 972 973
f 974 971 975
f 975 971 974
f 975 973 977
f 977 973 975
f 974 976 972
f 972 976 974
f 973 976 977
f 977 976 973
f 974 975 978
f 978 975 974
f 977 979 975
f 975 979 977
f 976 974 978
f 978 974 976
f 977 976 980
f 980 976 977
f 978 975 979
f 979 975 978
f 979 977 981
f 981 977 979
f 978 980 976
f 976 980 978
f 977 980 981
f 981 980 977
f 978 979 982
f 982 979 978
f 983 979 981
f 981 979 983
f 980 978 982
f 982 978 980
f 981 980 984
f 984 980 981
f 982 979 985
f 985 979 982
f 979 983 985
f 985 983 979
f 981 984 983
f 983 984 981
f 986 980 982
f 982 980 986
f 980 986 984
f 984 986 980
f 982 985 986
f 986 985 982
f 987 985 983
f 983 985 987
f 983 984 988
f 988 984 983
f 989 984 986
f 986 984 989
f 986 985 990
f 990 985 986
f 985 987 990
f 990 987 985
f 983 988 987
f 987 988 983
f 984 989 988
f 988 989 984
f 986 990 989
f 989 990 986
f 991 990 987
f 987 990 991
f 987 988 991
f 991 988 987
f 992 988 989
f 989 988 992
f 989 990 992
f 992 990 989
f 990 991 992
f 992 991 990
f 988 992 991
f 991 992 988

