# https://github.com/mikedh/trimesh
v 0.04771954 0.25116884 0.50000000
v 0.09614745 0.24415616 0.31365724
v 0.04771954 0.25116884 0.31365724
v 0.09614745 0.24415616 0.50000000
v 0.06272576 0.10777186 0.31365724
v -0.00115762 0.25351354 0.50000000
v 0.06272576 0.10777186 0.50000000
v 0.14368153 0.23253911 0.31365724
v 0.02747558 0.11287704 0.31365724
v 0.09732515 0.09931634 0.31365724
v -0.00115762 0.25351354 0.31365724
v 0.02747558 0.11287704 0.50000000
v 0.09732515 0.09931634 0.50000000
v 0.14368153 0.23253911 0.50000000
v -0.05003411 0.25116884 0.50000000
v -0.00810200 0.11458368 0.50000000
v 0.18988525 0.21642482 0.31365724
v 0.13095708 0.08758681 0.31365724
v -0.00810200 0.11458368 0.31365724
v 0.13095708 0.08758681 0.50000000
v -0.05003411 0.25116884 0.31365724
v -0.04367892 0.11287704 0.50000000
v 0.18988525 0.21642482 0.50000000
v 0.16331086 0.07269174 0.31365724
v -0.04367892 0.11287704 0.31365724
v -0.09846202 0.24415616 0.50000000
v -0.07892910 0.10777186 0.50000000
v 0.16331086 0.07269174 0.50000000
v 0.23433413 0.19596192 0.31365724
v 0.19984387 0.05141803 0.31365724
v -0.07892910 0.10777186 0.31365724
v -0.09846202 0.24415616 0.31365724
v 0.19984387 0.05141803 0.50000000
v 0.23433413 0.19596192 0.50000000
v -0.14599610 0.23253911 0.50000000
v -0.11352916 0.09931634 0.50000000
v -0.11352916 0.09931634 0.31365724
v 0.27662042 0.17133788 0.31365724
v -0.14599610 0.23253911 0.31365724
v 0.27662042 0.17133788 0.50000000
v -0.19220049 0.21642482 0.50000000
v -0.14716042 0.08758681 0.50000000
v -0.14716042 0.08758681 0.31365724
v -0.19220049 0.21642482 0.31365724
v -0.17951487 0.07269174 0.50000000
v -0.17951487 0.07269174 0.31365724
v -0.23664937 0.19596192 0.50000000
v -0.21604720 0.05141803 0.50000000
v -0.21604720 0.05141803 0.31365724
v -0.23664937 0.19596192 0.31365724
v -0.27893499 0.17133788 0.50000000
v -0.27893499 0.17133788 0.31365724
v 0.21322848 0.14088690 -0.05208321
v 0.21322848 0.10384974 0.48263904
v 0.21322848 0.10384974 -0.05208321
v 0.21322848 0.14088690 0.48263904
v 0.17619131 0.10384974 -0.05208321
v 0.17619131 0.14088690 0.48263904
v 0.17619131 0.10384974 0.48263904
v 0.17619131 0.14088690 -0.05208321
v 0.12586060 0.17903816 -0.05208321
v 0.12586060 0.14200100 0.48263904
v 0.12586060 0.14200100 -0.05208321
v 0.12586060 0.17903816 0.48263904
v 0.08882411 0.14200100 -0.05208321
v 0.08882411 0.17903816 0.48263904
v 0.08882411 0.14200100 0.48263904
v 0.08882411 0.17903816 -0.05208321
v 0.03066590 0.21266071 -0.05208321
v 0.03066590 0.17562355 0.48263904
v 0.03066590 0.17562355 -0.05208321
v 0.03066590 0.21266071 0.48263904
v -0.00637126 0.17562355 -0.05208321
v -0.00637126 0.21266071 0.48263904
v -0.00637126 0.17562355 0.48263904
v -0.00637126 0.21266071 -0.05208321
v -0.06691703 0.17647520 -0.05208321
v -0.06691703 0.13943804 0.48263904
v -0.06691703 0.13943804 -0.05208321
v -0.06691703 0.17647520 0.48263904
v -0.10395419 0.13943804 -0.05208321
v -0.10395419 0.17647520 0.48263904
v -0.10395419 0.13943804 0.48263904
v -0.10395419 0.17647520 -0.05208321
v -0.14843989 0.14088690 -0.05208321
v -0.14843989 0.10384974 0.48263904
v -0.14843989 0.10384974 -0.05208321
v -0.14843989 0.14088690 0.48263904
v -0.18547705 0.10384974 -0.05208321
v -0.18547705 0.14088690 0.48263904
v -0.18547705 0.10384974 0.48263904
v -0.18547705 0.14088690 -0.05208321
v 0.26466526 0.17695190 -0.12615754
v 0.23726869 -0.21647637 -0.12615754
v 0.04540497 0.25116884 -0.12615754
v 0.27430585 -0.21647637 -0.12615754
v 0.23726869 -0.25351354 -0.12615754
v 0.28125023 0.17133788 -0.08505297
v 0.09383288 0.24415616 -0.12615754
v 0.27430585 0.17133788 -0.12615754
v -0.14136696 0.23253911 -0.12615754
v 0.28125023 0.17133788 -0.12615754
v 0.04540497 0.25116884 -0.08505297
v 0.14136696 0.23253911 -0.12615754
v 0.27430585 -0.25351354 -0.12615754
v -0.28125023 -0.25351354 -0.12615754
v -0.10077726 0.24415616 -0.12615754
v 0.28054120 0.12795690 -0.08505297
v 0.05234935 0.25116884 -0.08505297
v 0.18757068 0.21642482 -0.12615754
v 0.27430585 -0.25351354 -0.08505297
v -0.28125023 0.17133788 -0.12615754
v 0.25099208 -0.25351354 -0.10836607
v -0.14136696 0.23253911 -0.08505297
v -0.14831134 0.23253911 -0.12615754
v -0.05234935 0.25116884 -0.12615754
v 0.27483545 -0.22109547 -0.08505297
v 0.24797316 0.15256822 -0.05208321
v 0.00347219 0.25351354 -0.08505297
v 0.10077726 0.24415616 -0.08505297
v 0.23201956 0.19596192 -0.12615754
v 0.27430585 -0.23702832 -0.08505297
v -0.28125023 0.17133788 -0.08505297
v -0.23896394 0.19596192 -0.12615754
v -0.28125023 -0.25351354 -0.08505297
v -0.09383288 0.24415616 -0.08505297
v -0.19451506 0.21642482 -0.12615754
v -0.00347219 0.25351354 -0.12615754
v 0.24704117 0.12850458 -0.05208321
v 0.23896394 0.19596192 -0.08505297
v -0.04540497 0.25116884 -0.08505297
v 0.04918983 0.21831759 -0.05208321
v 0.14831134 0.23253911 -0.08505297
v 0.09448701 0.21175751 -0.05208321
v 0.24133609 -0.22054780 -0.05208321
v 0.22767898 -0.25351354 -0.08505297
v -0.13200422 0.20089168 -0.05208321
v 0.22374213 0.16667861 -0.05208321
v 0.19451506 0.21642482 -0.08505297
v -0.04224545 0.21831759 -0.05208321
v 0.00347219 0.22051030 -0.05208321
v 0.13894861 0.20089168 -0.05208321
v 0.27430585 -0.22054780 -0.08505297
v -0.27430585 0.17133788 -0.08505297
v -0.25332406 0.18355616 -0.08505297
v -0.08754262 0.21175751 -0.05208321
v -0.17522183 0.18581918 -0.05208321
v 0.18216622 0.18581918 -0.05208321
v -0.24774150 -0.22054780 -0.05208321
v -0.23201956 0.19596192 -0.08505297
v -0.18757068 0.21642482 -0.08505297
v -0.25913693 0.18017101 -0.08505297
v -0.24164809 0.15220735 -0.05208321
v -0.24347725 0.15327860 -0.05392978
v -0.21679708 0.16667861 -0.05208321
v -0.24254794 0.15168377 -0.05208321
v -0.24421307 0.13430072 -0.12615754
v -0.28125023 0.13430072 -0.12615754
v -0.24421307 0.17133788 -0.12615754
v -0.28125023 0.13430072 -0.15361102
v -0.24421307 0.14124510 -0.15361102
v -0.24421307 0.17133788 -0.15361102
v -0.28125023 0.17133788 -0.15361102
v -0.26504622 0.13430072 -0.15361102
v -0.24421307 0.14124510 -0.21702506
v -0.24421307 0.15513454 -0.15361102
v -0.25115745 0.13430072 -0.15361102
v -0.24421307 0.14124510 -0.50000000
v -0.24421307 0.14124510 -0.19064751
v -0.25595063 0.13430072 -0.19001681
v -0.25115745 0.14124510 -0.15361102
v -0.24421307 0.13430072 -0.50000000
v -0.24421307 0.14124510 -0.34491835
v -0.24421307 0.14166222 -0.21187903
v -0.24421307 0.14603828 -0.19001681
v -0.25115745 0.13430072 -0.19064751
v -0.26041641 0.13430072 -0.18816690
v -0.25595063 0.14603828 -0.15424172
v -0.25115745 0.13430072 -0.50000000
v -0.24421307 0.14124510 -0.44643478
v -0.24421307 0.14166222 -0.22217108
v -0.24421307 0.14290085 -0.20686692
v -0.25157390 0.14166222 -0.21187903
v -0.24421307 0.14603828 -0.15424172
v -0.25115745 0.14124510 -0.19064751
v -0.25281254 0.13430072 -0.20686692
v -0.26425216 0.13430072 -0.18522363
v -0.25595063 0.14603828 -0.19001681
v -0.25595063 0.13430072 -0.15424172
v -0.25115745 0.13430072 -0.44643478
v -0.25115745 0.14124510 -0.50000000
v -0.24421307 0.14525894 -0.49666238
v -0.24421307 0.14163343 -0.36204230
v -0.24421307 0.14163343 -0.32779441
v -0.25115745 0.14124510 -0.21702506
v -0.25281254 0.14290085 -0.20686692
v -0.24421307 0.14492954 -0.20211994
v -0.24421307 0.15050473 -0.18816690
v -0.24421307 0.15513454 -0.19064751
v -0.25157390 0.13430072 -0.21187903
v -0.25484189 0.13430072 -0.20211994
v -0.26504622 0.15513454 -0.19064751
v -0.26719475 0.13430072 -0.18138856
v -0.26041641 0.15050473 -0.18816690
v -0.26041641 0.15050473 -0.15609163
v -0.26041641 0.13430072 -0.15609163
v -0.24421307 0.15050473 -0.15609163
v -0.25154578 0.13430072 -0.36204230
v -0.25517063 0.13430072 -0.49666238
v -0.24421307 0.14525894 -0.44977239
v -0.24421307 0.14279708 -0.37913076
v -0.25115745 0.14124510 -0.34491835
v -0.25154578 0.14163343 -0.32779441
v -0.24421307 0.14279708 -0.31070595
v -0.25157390 0.14166222 -0.22217108
v -0.25484189 0.14492954 -0.20211994
v -0.24421307 0.14769604 -0.19776062
v -0.25115745 0.13430072 -0.21702506
v -0.24421307 0.15112739 -0.19390344
v -0.25760772 0.13430072 -0.19776062
v -0.26504622 0.13430072 -0.19064751
v -0.26904467 0.13430072 -0.17692211
v -0.26719475 0.15728307 -0.18138856
v -0.26425216 0.15433980 -0.18522363
v -0.26425216 0.13430072 -0.15903490
v -0.25115745 0.13430072 -0.34491835
v -0.25270876 0.13430072 -0.37913076
v -0.25860332 0.13430072 -0.49272955
v -0.25517063 0.14525894 -0.49666238
v -0.24421307 0.14869096 -0.49272955
v -0.25115745 0.14124510 -0.44643478
v -0.24421307 0.14473336 -0.39614959
v -0.25154578 0.14163343 -0.36204230
v -0.25270876 0.14279708 -0.31070595
v -0.24421307 0.14290085 -0.22718252
v -0.25157390 0.13430072 -0.22217108
v -0.25760772 0.14769604 -0.19776062
v -0.24421307 0.15433980 -0.18522363
v -0.26103907 0.15112739 -0.19390344
v -0.25464571 0.13430072 -0.29368779
v -0.26103907 0.13430072 -0.19390344
v -0.26967603 0.13430072 -0.17212960
v -0.26904467 0.15913298 -0.17692211
v -0.26425216 0.15433980 -0.15903490
v -0.24421307 0.15433980 -0.15903490
v -0.26719475 0.13430072 -0.16286997
v -0.25154578 0.13430072 -0.32779441
v -0.25464571 0.13430072 -0.39614959
v -0.26136781 0.13430072 -0.48830194
v -0.25860332 0.14869096 -0.49272955
v -0.24421307 0.14869096 -0.45370522
v -0.25517063 0.14525894 -0.44977239
v -0.24421307 0.15513454 -0.44643478
v -0.24421307 0.14743961 -0.41306263
v -0.25270876 0.14279708 -0.37913076
v -0.25464571 0.14473336 -0.29368779
v -0.24421307 0.14473336 -0.29368779
v -0.25281254 0.14290085 -0.22718252
v -0.25281254 0.13430072 -0.22718252
v -0.25270876 0.13430072 -0.31070595
v -0.26904467 0.13430072 -0.16733642
v -0.26967603 0.15976368 -0.17212960
v -0.24421307 0.15728307 -0.18138856
v -0.25735129 0.13430072 -0.41306263
v -0.26339382 0.13430072 -0.48349202
v -0.26136781 0.15145546 -0.48830194
v -0.24421307 0.15145546 -0.45813284
v -0.26504622 0.13430072 -0.44643478
v -0.24421307 0.15090845 -0.42983574
v -0.25464571 0.14473336 -0.39614959
v -0.24421307 0.14492954 -0.23193017
v -0.26082081 0.13430072 -0.26000096
v -0.25735129 0.13430072 -0.27677408
v -0.26904467 0.15913298 -0.16733642
v -0.24421307 0.15913298 -0.17692211
v -0.24421307 0.15728307 -0.16286997
v -0.26719475 0.15728307 -0.16286997
v -0.26082081 0.13430072 -0.42983574
v -0.26463044 0.13430072 -0.47842032
v -0.26339382 0.15348213 -0.48349202
v -0.24421307 0.15145546 -0.48830194
v -0.25860332 0.14869096 -0.45370522
v -0.25517063 0.13430072 -0.44977239
v -0.26504622 0.15513454 -0.44643478
v -0.26082081 0.15090845 -0.42983574
v -0.25735129 0.14743961 -0.41306263
v -0.25735129 0.14743961 -0.27677408
v -0.24421307 0.14743961 -0.27677408
v -0.25484189 0.14492954 -0.23193017
v -0.25484189 0.13430072 -0.23193017
v -0.24421307 0.15976368 -0.17212960
v -0.26504622 0.13430072 -0.47321739
v -0.26463044 0.15471876 -0.47842032
v -0.24421307 0.15348213 -0.46294275
v -0.26136781 0.15145546 -0.45813284
v -0.25860332 0.13430072 -0.45370522
v -0.24421307 0.14769604 -0.23628949
v -0.26082081 0.15090845 -0.26000096
v -0.25760772 0.13430072 -0.23628949
v -0.24421307 0.15913298 -0.16733642
v -0.26463044 0.13430072 -0.46801446
v -0.26504622 0.15513454 -0.47321739
v -0.24421307 0.15348213 -0.48349202
v -0.26136781 0.13430072 -0.45813284
v -0.24421307 0.15090845 -0.26000096
v -0.25760772 0.14769604 -0.23628949
v -0.26504622 0.15513454 -0.24340193
v -0.26103907 0.13430072 -0.24014667
v -0.26339382 0.13430072 -0.46294275
v -0.26463044 0.15471876 -0.46801446
v -0.24421307 0.15471876 -0.47842032
v -0.26339382 0.15348213 -0.46294275
v -0.24421307 0.15112739 -0.24014667
v -0.26504622 0.13430072 -0.24340193
v -0.24421307 0.15513454 -0.47321739
v -0.24421307 0.15471876 -0.46801446
v -0.24421307 0.15513454 -0.24340193
v -0.26103907 0.15112739 -0.24014667
v 0.27430585 0.13430072 -0.12615754
v 0.23726869 0.17133788 -0.12615754
v 0.23726869 0.13430072 -0.12615754
v 0.23726869 0.13430072 -0.15361102
v 0.27430585 0.14124510 -0.15361102
v 0.27430585 0.17133788 -0.15361102
v 0.23726869 0.17133788 -0.15361102
v 0.25347202 0.13430072 -0.15361102
v 0.27430585 0.14124510 -0.21702506
v 0.27430585 0.15513454 -0.15361102
v 0.26736079 0.13430072 -0.15361102
v 0.27430585 0.14124510 -0.50000000
v 0.27430585 0.14124510 -0.19064751
v 0.26256828 0.13430072 -0.19001681
v 0.26736079 0.14124510 -0.15361102
v 0.27430585 0.13430072 -0.50000000
v 0.27430585 0.14124510 -0.34491835
v 0.27430585 0.14166222 -0.21187903
v 0.27430585 0.14603828 -0.19001681
v 0.26736079 0.13430072 -0.19064751
v 0.25810184 0.13430072 -0.18816690
v 0.26256828 0.14603828 -0.15424172
v 0.26736079 0.13430072 -0.50000000
v 0.27430585 0.14124510 -0.44643478
v 0.27430585 0.14166222 -0.22217108
v 0.27430585 0.14290085 -0.20686692
v 0.26694434 0.14166222 -0.21187903
v 0.27430585 0.14603828 -0.15424172
v 0.26736079 0.14124510 -0.19064751
v 0.26570571 0.13430072 -0.20686692
v 0.25426676 0.13430072 -0.18522363
v 0.26256828 0.14603828 -0.19001681
v 0.26256828 0.13430072 -0.15424172
v 0.26736079 0.13430072 -0.44643478
v 0.26736079 0.14124510 -0.50000000
v 0.27430585 0.14525894 -0.49666238
v 0.27430585 0.14163343 -0.36204230
v 0.27430585 0.14163343 -0.32779441
v 0.26736079 0.14124510 -0.21702506
v 0.26570571 0.14290085 -0.20686692
v 0.27430585 0.14492954 -0.20211994
v 0.27430585 0.15050473 -0.18816690
v 0.27430585 0.15513454 -0.19064751
v 0.26694434 0.13430072 -0.21187903
v 0.26367703 0.13430072 -0.20211994
v 0.25347202 0.15513454 -0.19064751
v 0.25132350 0.13430072 -0.18138856
v 0.25810184 0.15050473 -0.18816690
v 0.25810184 0.15050473 -0.15609163
v 0.25810184 0.13430072 -0.15609163
v 0.27430585 0.15050473 -0.15609163
v 0.26697313 0.13430072 -0.36204230
v 0.26334762 0.13430072 -0.49666238
v 0.27430585 0.14525894 -0.44977239
v 0.27430585 0.14279708 -0.37913076
v 0.26736079 0.14124510 -0.34491835
v 0.26697313 0.14163343 -0.32779441
v 0.27430585 0.14279708 -0.31070595
v 0.26694434 0.14166222 -0.22217108
v 0.26367703 0.14492954 -0.20211994
v 0.27430585 0.14769604 -0.19776062
v 0.26736079 0.13430072 -0.21702506
v 0.27430585 0.15112739 -0.19390344
v 0.26091052 0.13430072 -0.19776062
v 0.25347202 0.13430072 -0.19064751
v 0.24947358 0.13430072 -0.17692211
v 0.25132350 0.15728307 -0.18138856
v 0.25426676 0.15433980 -0.18522363
v 0.25426676 0.13430072 -0.15903490
v 0.26736079 0.13430072 -0.34491835
v 0.26580949 0.13430072 -0.37913076
v 0.25991560 0.13430072 -0.49272955
v 0.26334762 0.14525894 -0.49666238
v 0.27430585 0.14869096 -0.49272955
v 0.26736079 0.14124510 -0.44643478
v 0.27430585 0.14473336 -0.39614959
v 0.26697313 0.14163343 -0.36204230
v 0.26580949 0.14279708 -0.31070595
v 0.27430585 0.14290085 -0.22718252
v 0.26694434 0.13430072 -0.22217108
v 0.26091052 0.14769604 -0.19776062
v 0.27430585 0.15433980 -0.18522363
v 0.25747917 0.15112739 -0.19390344
v 0.26387253 0.13430072 -0.29368779
v 0.25747917 0.13430072 -0.19390344
v 0.24884288 0.13430072 -0.17212960
v 0.24947358 0.15913298 -0.17692211
v 0.25426676 0.15433980 -0.15903490
v 0.27430585 0.15433980 -0.15903490
v 0.25132350 0.13430072 -0.16286997
v 0.26697313 0.13430072 -0.32779441
v 0.26387253 0.13430072 -0.39614959
v 0.25715110 0.13430072 -0.48830194
v 0.25991560 0.14869096 -0.49272955
v 0.27430585 0.14869096 -0.45370522
v 0.26334762 0.14525894 -0.44977239
v 0.27430585 0.15513454 -0.44643478
v 0.27430585 0.14743961 -0.41306263
v 0.26580949 0.14279708 -0.37913076
v 0.26387253 0.14473336 -0.29368779
v 0.27430585 0.14473336 -0.29368779
v 0.26570571 0.14290085 -0.22718252
v 0.26570571 0.13430072 -0.22718252
v 0.26580949 0.13430072 -0.31070595
v 0.24947358 0.13430072 -0.16733642
v 0.24884288 0.15976368 -0.17212960
v 0.27430585 0.15728307 -0.18138856
v 0.26116695 0.13430072 -0.41306263
v 0.25512443 0.13430072 -0.48349202
v 0.25715110 0.15145546 -0.48830194
v 0.27430585 0.15145546 -0.45813284
v 0.25347202 0.13430072 -0.44643478
v 0.27430585 0.15090845 -0.42983574
v 0.26387253 0.14473336 -0.39614959
v 0.27430585 0.14492954 -0.23193017
v 0.25769811 0.13430072 -0.26000096
v 0.26116695 0.13430072 -0.27677408
v 0.24947358 0.15913298 -0.16733642
v 0.27430585 0.15913298 -0.17692211
v 0.27430585 0.15728307 -0.16286997
v 0.25132350 0.15728307 -0.16286997
v 0.25769811 0.13430072 -0.42983574
v 0.25388780 0.13430072 -0.47842032
v 0.25512443 0.15348213 -0.48349202
v 0.27430585 0.15145546 -0.48830194
v 0.25991560 0.14869096 -0.45370522
v 0.26334762 0.13430072 -0.44977239
v 0.25347202 0.15513454 -0.44643478
v 0.25769811 0.15090845 -0.42983574
v 0.26116695 0.14743961 -0.41306263
v 0.26116695 0.14743961 -0.27677408
v 0.27430585 0.14743961 -0.27677408
v 0.26367703 0.14492954 -0.23193017
v 0.26367703 0.13430072 -0.23193017
v 0.27430585 0.15976368 -0.17212960
v 0.25347202 0.13430072 -0.47321739
v 0.25388780 0.15471876 -0.47842032
v 0.27430585 0.15348213 -0.46294275
v 0.25715110 0.15145546 -0.45813284
v 0.25991560 0.13430072 -0.45370522
v 0.27430585 0.14769604 -0.23628949
v 0.25769811 0.15090845 -0.26000096
v 0.26091052 0.13430072 -0.23628949
v 0.27430585 0.15913298 -0.16733642
v 0.25388780 0.13430072 -0.46801446
v 0.25347202 0.15513454 -0.47321739
v 0.27430585 0.15348213 -0.48349202
v 0.25715110 0.13430072 -0.45813284
v 0.27430585 0.15090845 -0.26000096
v 0.26091052 0.14769604 -0.23628949
v 0.25347202 0.15513454 -0.24340193
v 0.25747917 0.13430072 -0.24014667
v 0.25512443 0.13430072 -0.46294275
v 0.25388780 0.15471876 -0.46801446
v 0.27430585 0.15471876 -0.47842032
v 0.25512443 0.15348213 -0.46294275
v 0.27430585 0.15112739 -0.24014667
v 0.25347202 0.13430072 -0.24340193
v 0.27430585 0.15513454 -0.47321739
v 0.27430585 0.15471876 -0.46801446
v 0.27430585 0.15513454 -0.24340193
v 0.25747917 0.15112739 -0.24014667
v 0.23726869 -0.25351354 -0.15361102
v 0.27430585 -0.24656915 -0.15361102
v 0.27430585 -0.21647637 -0.15361102
v 0.23726869 -0.21647637 -0.15361102
v 0.25347202 -0.25351354 -0.15361102
v 0.27430585 -0.24656915 -0.21702506
v 0.27430585 -0.23268038 -0.15361102
v 0.26736079 -0.25351354 -0.15361102
v 0.27430585 -0.24656915 -0.50000000
v 0.27430585 -0.24656915 -0.19064751
v 0.26256828 -0.25351354 -0.19001681
v 0.26736079 -0.24656915 -0.15361102
v 0.27430585 -0.25351354 -0.50000000
v 0.27430585 -0.24656915 -0.34491835
v 0.27430585 -0.24615270 -0.21187903
v 0.27430585 -0.24177597 -0.19001681
v 0.26736079 -0.25351354 -0.19064751
v 0.25810184 -0.25351354 -0.18816690
v 0.26256828 -0.24177597 -0.15424172
v 0.26736079 -0.25351354 -0.50000000
v 0.27430585 -0.24656915 -0.44643478
v 0.27430585 -0.24615270 -0.22217108
v 0.27430585 -0.24491340 -0.20686692
v 0.26694434 -0.24615270 -0.21187903
v 0.27430585 -0.24177597 -0.15424172
v 0.26736079 -0.24656915 -0.19064751
v 0.26570571 -0.25351354 -0.20686692
v 0.25426676 -0.25351354 -0.18522363
v 0.26256828 -0.24177597 -0.19001681
v 0.26256828 -0.25351354 -0.15424172
v 0.26736079 -0.25351354 -0.44643478
v 0.26736079 -0.24656915 -0.50000000
v 0.27430585 -0.24255598 -0.49666238
v 0.27430585 -0.24618082 -0.36204230
v 0.27430585 -0.24618082 -0.32779441
v 0.26736079 -0.24656915 -0.21702506
v 0.26570571 -0.24491340 -0.20686692
v 0.27430585 -0.24288472 -0.20211994
v 0.27430585 -0.23730953 -0.18816690
v 0.27430585 -0.23268038 -0.19064751
v 0.26694434 -0.25351354 -0.21187903
v 0.26367703 -0.25351354 -0.20211994
v 0.25347202 -0.23268038 -0.19064751
v 0.25132350 -0.25351354 -0.18138856
v 0.25810184 -0.23730953 -0.18816690
v 0.25810184 -0.23730953 -0.15609163
v 0.25810184 -0.25351354 -0.15609163
v 0.27430585 -0.23730953 -0.15609163
v 0.26697313 -0.25351354 -0.36204230
v 0.26334762 -0.25351354 -0.49666238
v 0.27430585 -0.24255598 -0.44977239
v 0.27430585 -0.24501718 -0.37913076
v 0.26736079 -0.24656915 -0.34491835
v 0.26697313 -0.24618082 -0.32779441
v 0.27430585 -0.24501718 -0.31070595
v 0.26694434 -0.24615270 -0.22217108
v 0.26367703 -0.24288472 -0.20211994
v 0.27430585 -0.24011821 -0.19776062
v 0.26736079 -0.25351354 -0.21702506
v 0.27430585 -0.23668686 -0.19390344
v 0.26091052 -0.25351354 -0.19776062
v 0.25347202 -0.25351354 -0.19064751
v 0.24947358 -0.25351354 -0.17692211
v 0.25132350 -0.23053119 -0.18138856
v 0.25426676 -0.23347445 -0.18522363
v 0.25426676 -0.25351354 -0.15903490
v 0.26736079 -0.25351354 -0.34491835
v 0.26580949 -0.25351354 -0.37913076
v 0.25991560 -0.25351354 -0.49272955
v 0.26334762 -0.24255598 -0.49666238
v 0.27430585 -0.23912329 -0.49272955
v 0.26736079 -0.24656915 -0.44643478
v 0.27430585 -0.24308089 -0.39614959
v 0.26697313 -0.24618082 -0.36204230
v 0.26580949 -0.24501718 -0.31070595
v 0.27430585 -0.24491340 -0.22718252
v 0.26694434 -0.25351354 -0.22217108
v 0.26091052 -0.24011821 -0.19776062
v 0.27430585 -0.23347445 -0.18522363
v 0.25747917 -0.23668686 -0.19390344
v 0.26387253 -0.25351354 -0.29368779
v 0.25747917 -0.25351354 -0.19390344
v 0.24884288 -0.25351354 -0.17212960
v 0.24947358 -0.22868127 -0.17692211
v 0.25426676 -0.23347445 -0.15903490
v 0.27430585 -0.23347445 -0.15903490
v 0.25132350 -0.25351354 -0.16286997
v 0.26697313 -0.25351354 -0.32779441
v 0.26387253 -0.25351354 -0.39614959
v 0.25715110 -0.25351354 -0.48830194
v 0.25991560 -0.23912329 -0.49272955
v 0.27430585 -0.23912329 -0.45370522
v 0.26334762 -0.24255598 -0.44977239
v 0.27430585 -0.23268038 -0.44643478
v 0.27430585 -0.24037464 -0.41306263
v 0.26580949 -0.24501718 -0.37913076
v 0.26387253 -0.24308089 -0.29368779
v 0.27430585 -0.24308089 -0.29368779
v 0.26570571 -0.24491340 -0.22718252
v 0.26570571 -0.25351354 -0.22718252
v 0.26580949 -0.25351354 -0.31070595
v 0.24947358 -0.25351354 -0.16733642
v 0.24884288 -0.22805057 -0.17212960
v 0.27430585 -0.23053119 -0.18138856
v 0.26116695 -0.25351354 -0.41306263
v 0.25512443 -0.25351354 -0.48349202
v 0.25715110 -0.23635879 -0.48830194
v 0.27430585 -0.23635879 -0.45813284
v 0.25347202 -0.25351354 -0.44643478
v 0.27430585 -0.23690580 -0.42983574
v 0.26387253 -0.24308089 -0.39614959
v 0.27430585 -0.24288472 -0.23193017
v 0.25769811 -0.25351354 -0.26000096
v 0.26116695 -0.25351354 -0.27677408
v 0.24947358 -0.22868127 -0.16733642
v 0.27430585 -0.22868127 -0.17692211
v 0.27430585 -0.23053119 -0.16286997
v 0.25132350 -0.23053119 -0.16286997
v 0.25769811 -0.25351354 -0.42983574
v 0.25388780 -0.25351354 -0.47842032
v 0.25512443 -0.23433279 -0.48349202
v 0.27430585 -0.23635879 -0.48830194
v 0.25991560 -0.23912329 -0.45370522
v 0.26334762 -0.25351354 -0.44977239
v 0.25347202 -0.23268038 -0.44643478
v 0.25769811 -0.23690580 -0.42983574
v 0.26116695 -0.24037464 -0.41306263
v 0.26116695 -0.24037464 -0.27677408
v 0.27430585 -0.24037464 -0.27677408
v 0.26367703 -0.24288472 -0.23193017
v 0.26367703 -0.25351354 -0.23193017
v 0.27430585 -0.22805057 -0.17212960
v 0.25347202 -0.25351354 -0.47321739
v 0.25388780 -0.23309616 -0.47842032
v 0.27430585 -0.23433279 -0.46294275
v 0.25715110 -0.23635879 -0.45813284
v 0.25991560 -0.25351354 -0.45370522
v 0.27430585 -0.24011821 -0.23628949
v 0.25769811 -0.23690580 -0.26000096
v 0.26091052 -0.25351354 -0.23628949
v 0.27430585 -0.22868127 -0.16733642
v 0.25388780 -0.25351354 -0.46801446
v 0.25347202 -0.23268038 -0.47321739
v 0.27430585 -0.23433279 -0.48349202
v 0.25715110 -0.25351354 -0.45813284
v 0.27430585 -0.23690580 -0.26000096
v 0.26091052 -0.24011821 -0.23628949
v 0.25347202 -0.23268038 -0.24340193
v 0.25747917 -0.25351354 -0.24014667
v 0.25512443 -0.25351354 -0.46294275
v 0.25388780 -0.23309616 -0.46801446
v 0.27430585 -0.23309616 -0.47842032
v 0.25512443 -0.23433279 -0.46294275
v 0.27430585 -0.23668686 -0.24014667
v 0.25347202 -0.25351354 -0.24340193
v 0.27430585 -0.23268038 -0.47321739
v 0.27430585 -0.23309616 -0.46801446
v 0.27430585 -0.23268038 -0.24340193
v 0.25747917 -0.23668686 -0.24014667
v -0.24421307 -0.25351354 -0.12615754
v -0.28125023 -0.21647637 -0.12615754
v -0.24421307 -0.21647637 -0.12615754
v -0.28125023 -0.25351354 -0.15361102
v -0.24421307 -0.24656915 -0.15361102
v -0.24421307 -0.21647637 -0.15361102
v -0.28125023 -0.21647637 -0.15361102
v -0.26504622 -0.25351354 -0.15361102
v -0.24421307 -0.24656915 -0.21702506
v -0.24421307 -0.23268038 -0.15361102
v -0.25115745 -0.25351354 -0.15361102
v -0.24421307 -0.24656915 -0.50000000
v -0.24421307 -0.24656915 -0.19064751
v -0.25595063 -0.25351354 -0.19001681
v -0.25115745 -0.24656915 -0.15361102
v -0.24421307 -0.25351354 -0.50000000
v -0.24421307 -0.24656915 -0.34491835
v -0.24421307 -0.24615270 -0.21187903
v -0.24421307 -0.24177597 -0.19001681
v -0.25115745 -0.25351354 -0.19064751
v -0.26041641 -0.25351354 -0.18816690
v -0.25595063 -0.24177597 -0.15424172
v -0.25115745 -0.25351354 -0.50000000
v -0.24421307 -0.24656915 -0.44643478
v -0.24421307 -0.24615270 -0.22217108
v -0.24421307 -0.24491340 -0.20686692
v -0.25157390 -0.24615270 -0.21187903
v -0.24421307 -0.24177597 -0.15424172
v -0.25115745 -0.24656915 -0.19064751
v -0.25281254 -0.25351354 -0.20686692
v -0.26425216 -0.25351354 -0.18522363
v -0.25595063 -0.24177597 -0.19001681
v -0.25595063 -0.25351354 -0.15424172
v -0.25115745 -0.25351354 -0.44643478
v -0.25115745 -0.24656915 -0.50000000
v -0.24421307 -0.24255598 -0.49666238
v -0.24421307 -0.24618082 -0.36204230
v -0.24421307 -0.24618082 -0.32779441
v -0.25115745 -0.24656915 -0.21702506
v -0.25281254 -0.24491340 -0.20686692
v -0.24421307 -0.24288472 -0.20211994
v -0.24421307 -0.23730953 -0.18816690
v -0.24421307 -0.23268038 -0.19064751
v -0.25157390 -0.25351354 -0.21187903
v -0.25484189 -0.25351354 -0.20211994
v -0.26504622 -0.23268038 -0.19064751
v -0.26719475 -0.25351354 -0.18138856
v -0.26041641 -0.23730953 -0.18816690
v -0.26041641 -0.23730953 -0.15609163
v -0.26041641 -0.25351354 -0.15609163
v -0.24421307 -0.23730953 -0.15609163
v -0.25154578 -0.25351354 -0.36204230
v -0.25517063 -0.25351354 -0.49666238
v -0.24421307 -0.24255598 -0.44977239
v -0.24421307 -0.24501718 -0.37913076
v -0.25115745 -0.24656915 -0.34491835
v -0.25154578 -0.24618082 -0.32779441
v -0.24421307 -0.24501718 -0.31070595
v -0.25157390 -0.24615270 -0.22217108
v -0.25484189 -0.24288472 -0.20211994
v -0.24421307 -0.24011821 -0.19776062
v -0.25115745 -0.25351354 -0.21702506
v -0.24421307 -0.23668686 -0.19390344
v -0.25760772 -0.25351354 -0.19776062
v -0.26504622 -0.25351354 -0.19064751
v -0.26904467 -0.25351354 -0.17692211
v -0.26719475 -0.23053119 -0.18138856
v -0.26425216 -0.23347445 -0.18522363
v -0.26425216 -0.25351354 -0.15903490
v -0.25115745 -0.25351354 -0.34491835
v -0.25270876 -0.25351354 -0.37913076
v -0.25860332 -0.25351354 -0.49272955
v -0.25517063 -0.24255598 -0.49666238
v -0.24421307 -0.23912329 -0.49272955
v -0.25115745 -0.24656915 -0.44643478
v -0.24421307 -0.24308089 -0.39614959
v -0.25154578 -0.24618082 -0.36204230
v -0.25270876 -0.24501718 -0.31070595
v -0.24421307 -0.24491340 -0.22718252
v -0.25157390 -0.25351354 -0.22217108
v -0.25760772 -0.24011821 -0.19776062
v -0.24421307 -0.23347445 -0.18522363
v -0.26103907 -0.23668686 -0.19390344
v -0.25464571 -0.25351354 -0.29368779
v -0.26103907 -0.25351354 -0.19390344
v -0.26967603 -0.25351354 -0.17212960
v -0.26904467 -0.22868127 -0.17692211
v -0.26425216 -0.23347445 -0.15903490
v -0.24421307 -0.23347445 -0.15903490
v -0.26719475 -0.25351354 -0.16286997
v -0.25154578 -0.25351354 -0.32779441
v -0.25464571 -0.25351354 -0.39614959
v -0.26136781 -0.25351354 -0.48830194
v -0.25860332 -0.23912329 -0.49272955
v -0.24421307 -0.23912329 -0.45370522
v -0.25517063 -0.24255598 -0.44977239
v -0.24421307 -0.23268038 -0.44643478
v -0.24421307 -0.24037464 -0.41306263
v -0.25270876 -0.24501718 -0.37913076
v -0.25464571 -0.24308089 -0.29368779
v -0.24421307 -0.24308089 -0.29368779
v -0.25281254 -0.24491340 -0.22718252
v -0.25281254 -0.25351354 -0.22718252
v -0.25270876 -0.25351354 -0.31070595
v -0.26904467 -0.25351354 -0.16733642
v -0.26967603 -0.22805057 -0.17212960
v -0.24421307 -0.23053119 -0.18138856
v -0.25735129 -0.25351354 -0.41306263
v -0.26339382 -0.25351354 -0.48349202
v -0.26136781 -0.23635879 -0.48830194
v -0.24421307 -0.23635879 -0.45813284
v -0.26504622 -0.25351354 -0.44643478
v -0.24421307 -0.23690580 -0.42983574
v -0.25464571 -0.24308089 -0.39614959
v -0.24421307 -0.24288472 -0.23193017
v -0.26082081 -0.25351354 -0.26000096
v -0.25735129 -0.25351354 -0.27677408
v -0.26904467 -0.22868127 -0.16733642
v -0.24421307 -0.22868127 -0.17692211
v -0.24421307 -0.23053119 -0.16286997
v -0.26719475 -0.23053119 -0.16286997
v -0.26082081 -0.25351354 -0.42983574
v -0.26463044 -0.25351354 -0.47842032
v -0.26339382 -0.23433279 -0.48349202
v -0.24421307 -0.23635879 -0.48830194
v -0.25860332 -0.23912329 -0.45370522
v -0.25517063 -0.25351354 -0.44977239
v -0.26504622 -0.23268038 -0.44643478
v -0.26082081 -0.23690580 -0.42983574
v -0.25735129 -0.24037464 -0.41306263
v -0.25735129 -0.24037464 -0.27677408
v -0.24421307 -0.24037464 -0.27677408
v -0.25484189 -0.24288472 -0.23193017
v -0.25484189 -0.25351354 -0.23193017
v -0.24421307 -0.22805057 -0.17212960
v -0.26504622 -0.25351354 -0.47321739
v -0.26463044 -0.23309616 -0.47842032
v -0.24421307 -0.23433279 -0.46294275
v -0.26136781 -0.23635879 -0.45813284
v -0.25860332 -0.25351354 -0.45370522
v -0.24421307 -0.24011821 -0.23628949
v -0.26082081 -0.23690580 -0.26000096
v -0.25760772 -0.25351354 -0.23628949
v -0.24421307 -0.22868127 -0.16733642
v -0.26463044 -0.25351354 -0.46801446
v -0.26504622 -0.23268038 -0.47321739
v -0.24421307 -0.23433279 -0.48349202
v -0.26136781 -0.25351354 -0.45813284
v -0.24421307 -0.23690580 -0.26000096
v -0.25760772 -0.24011821 -0.23628949
v -0.26504622 -0.23268038 -0.24340193
v -0.26103907 -0.25351354 -0.24014667
v -0.26339382 -0.25351354 -0.46294275
v -0.26463044 -0.23309616 -0.46801446
v -0.24421307 -0.23309616 -0.47842032
v -0.26339382 -0.23433279 -0.46294275
v -0.24421307 -0.23668686 -0.24014667
v -0.26504622 -0.25351354 -0.24340193
v -0.24421307 -0.23268038 -0.47321739
v -0.24421307 -0.23309616 -0.46801446
v -0.24421307 -0.23268038 -0.24340193
v -0.26103907 -0.23668686 -0.24014667
f 1 2 3
f 2 1 4
f 3 2 1
f 4 1 2
f 5 3 2
f 2 3 5
f 3 6 1
f 1 6 3
f 1 7 4
f 4 7 1
f 4 8 2
f 2 8 4
f 9 3 5
f 5 3 9
f 5 2 10
f 10 2 5
f 6 3 11
f 11 3 6
f 6 12 1
f 1 12 6
f 1 12 7
f 7 12 1
f 4 7 13
f 13 7 4
f 8 4 14
f 14 4 8
f 10 2 8
f 8 2 10
f 9 11 3
f 3 11 9
f 7 9 5
f 5 9 7
f 13 5 10
f 10 5 13
f 11 15 6
f 6 15 11
f 6 16 12
f 12 16 6
f 9 7 12
f 12 7 9
f 5 13 7
f 7 13 5
f 4 13 14
f 14 13 4
f 14 17 8
f 8 17 14
f 10 8 18
f 18 8 10
f 19 11 9
f 9 11 19
f 10 20 13
f 13 20 10
f 15 11 21
f 21 11 15
f 15 22 6
f 6 22 15
f 6 22 16
f 16 22 6
f 19 12 16
f 16 12 19
f 12 19 9
f 9 19 12
f 14 13 20
f 20 13 14
f 17 14 23
f 23 14 17
f 24 8 17
f 17 8 24
f 18 8 24
f 24 8 18
f 20 10 18
f 18 10 20
f 25 11 19
f 19 11 25
f 25 21 11
f 11 21 25
f 21 26 15
f 15 26 21
f 15 27 22
f 22 27 15
f 25 16 22
f 22 16 25
f 16 25 19
f 19 25 16
f 14 20 28
f 28 20 14
f 14 28 23
f 23 28 14
f 23 29 17
f 17 29 23
f 24 17 30
f 30 17 24
f 28 18 24
f 24 18 28
f 18 28 20
f 20 28 18
f 31 21 25
f 25 21 31
f 26 21 32
f 32 21 26
f 26 27 15
f 15 27 26
f 31 22 27
f 27 22 31
f 22 31 25
f 25 31 22
f 23 28 33
f 33 28 23
f 29 23 34
f 34 23 29
f 30 17 29
f 29 17 30
f 33 24 30
f 30 24 33
f 24 33 28
f 28 33 24
f 31 32 21
f 21 32 31
f 32 35 26
f 26 35 32
f 26 36 27
f 27 36 26
f 27 37 31
f 31 37 27
f 23 33 34
f 34 33 23
f 34 38 29
f 29 38 34
f 30 29 38
f 38 29 30
f 38 33 30
f 30 33 38
f 37 32 31
f 31 32 37
f 35 32 39
f 39 32 35
f 35 36 26
f 26 36 35
f 37 27 36
f 36 27 37
f 34 33 40
f 40 33 34
f 38 34 40
f 40 34 38
f 33 38 40
f 40 38 33
f 37 39 32
f 32 39 37
f 39 41 35
f 35 41 39
f 35 42 36
f 36 42 35
f 36 43 37
f 37 43 36
f 43 39 37
f 37 39 43
f 41 39 44
f 44 39 41
f 41 45 35
f 35 45 41
f 35 45 42
f 42 45 35
f 43 36 42
f 42 36 43
f 46 39 43
f 43 39 46
f 46 44 39
f 39 44 46
f 44 47 41
f 41 47 44
f 41 48 45
f 45 48 41
f 46 42 45
f 45 42 46
f 42 46 43
f 43 46 42
f 49 44 46
f 46 44 49
f 47 44 50
f 50 44 47
f 47 48 41
f 41 48 47
f 49 45 48
f 48 45 49
f 45 49 46
f 46 49 45
f 49 50 44
f 44 50 49
f 50 51 47
f 47 51 50
f 48 47 51
f 51 47 48
f 51 49 48
f 48 49 51
f 50 49 52
f 52 49 50
f 51 50 52
f 52 50 51
f 49 51 52
f 52 51 49
f 53 54 55
f 54 53 56
f 55 54 53
f 56 53 54
f 54 57 55
f 55 57 54
f 53 58 56
f 56 58 53
f 58 54 56
f 56 54 58
f 57 54 59
f 59 54 57
f 58 53 60
f 60 53 58
f 54 58 59
f 59 58 54
f 58 57 59
f 59 57 58
f 57 58 60
f 60 58 57
f 61 62 63
f 62 61 64
f 63 62 61
f 64 61 62
f 62 65 63
f 63 65 62
f 61 66 64
f 64 66 61
f 66 62 64
f 64 62 66
f 65 62 67
f 67 62 65
f 66 61 68
f 68 61 66
f 62 66 67
f 67 66 62
f 66 65 67
f 67 65 66
f 65 66 68
f 68 66 65
f 69 70 71
f 70 69 72
f 71 70 69
f 72 69 70
f 70 73 71
f 71 73 70
f 69 74 72
f 72 74 69
f 74 70 72
f 72 70 74
f 73 70 75
f 75 70 73
f 74 69 76
f 76 69 74
f 70 74 75
f 75 74 70
f 74 73 75
f 75 73 74
f 73 74 76
f 76 74 73
f 77 78 79
f 78 77 80
f 79 78 77
f 80 77 78
f 78 81 79
f 79 81 78
f 77 82 80
f 80 82 77
f 82 78 80
f 80 78 82
f 81 78 83
f 83 78 81
f 82 77 84
f 84 77 82
f 78 82 83
f 83 82 78
f 82 81 83
f 83 81 82
f 81 82 84
f 84 82 81
f 85 86 87
f 86 85 88
f 87 86 85
f 88 85 86
f 86 89 87
f 87 89 86
f 85 90 88
f 88 90 85
f 90 86 88
f 88 86 90
f 89 86 91
f 91 86 89
f 90 85 92
f 92 85 90
f 86 90 91
f 91 90 86
f 90 89 91
f 91 89 90
f 89 90 92
f 92 90 89
f 93 94 95
f 94 93 96
f 95 94 93
f 96 93 94
f 97 95 94
f 94 95 97
f 93 98 95
f 95 98 93
f 99 93 95
f 95 93 99
f 96 93 100
f 100 93 96
f 96 97 94
f 94 97 96
f 97 101 95
f 95 101 97
f 98 93 102
f 102 93 98
f 95 98 103
f 103 98 95
f 93 99 104
f 104 99 93
f 102 100 93
f 93 100 102
f 100 102 96
f 96 102 100
f 97 96 105
f 105 96 97
f 106 101 97
f 97 101 106
f 103 101 95
f 95 101 103
f 101 107 95
f 95 107 101
f 108 102 98
f 98 102 108
f 109 103 98
f 98 103 109
f 93 104 110
f 110 104 93
f 96 102 105
f 105 102 96
f 96 111 105
f 105 111 96
f 111 97 105
f 105 97 111
f 101 106 112
f 112 106 101
f 97 113 106
f 106 113 97
f 101 103 114
f 114 103 101
f 101 115 107
f 107 115 101
f 95 107 116
f 116 107 95
f 117 102 108
f 108 102 117
f 98 118 108
f 108 118 98
f 119 103 109
f 109 103 119
f 109 98 120
f 120 98 109
f 93 110 121
f 121 110 93
f 102 111 105
f 105 111 102
f 111 96 122
f 122 96 111
f 97 111 113
f 113 111 97
f 106 123 112
f 112 123 106
f 124 101 112
f 112 101 124
f 114 112 101
f 101 112 114
f 113 125 106
f 106 125 113
f 103 126 114
f 114 126 103
f 101 127 115
f 115 127 101
f 95 116 128
f 128 116 95
f 111 102 117
f 117 102 111
f 129 117 108
f 108 117 129
f 130 118 98
f 98 118 130
f 108 118 129
f 129 118 108
f 131 103 119
f 119 103 131
f 119 132 109
f 109 132 119
f 120 98 133
f 133 98 120
f 109 134 120
f 120 134 109
f 122 113 111
f 111 113 122
f 135 122 111
f 111 122 135
f 135 122 111
f 111 122 135
f 123 106 125
f 125 106 123
f 112 114 123
f 123 114 112
f 101 124 127
f 127 124 101
f 125 113 136
f 136 113 125
f 126 103 131
f 131 103 126
f 137 126 114
f 114 126 137
f 117 135 111
f 111 135 117
f 117 129 135
f 135 129 117
f 118 130 138
f 138 130 118
f 139 98 130
f 130 98 139
f 138 129 118
f 118 129 138
f 140 119 131
f 131 119 140
f 132 119 141
f 141 119 132
f 134 109 132
f 132 109 134
f 133 98 139
f 139 98 133
f 120 142 133
f 133 142 120
f 142 120 134
f 134 120 142
f 113 122 143
f 143 122 113
f 122 135 143
f 143 135 122
f 122 135 143
f 143 135 122
f 123 144 125
f 125 144 123
f 123 114 145
f 145 114 123
f 143 136 113
f 113 136 143
f 135 125 136
f 136 125 135
f 146 131 126
f 126 131 146
f 126 137 146
f 146 137 126
f 114 147 137
f 137 147 114
f 138 135 129
f 129 135 138
f 139 138 130
f 130 138 139
f 119 140 141
f 141 140 119
f 131 146 140
f 140 146 131
f 141 135 132
f 132 135 141
f 132 135 134
f 134 135 132
f 133 148 139
f 139 148 133
f 148 133 142
f 142 133 148
f 134 135 142
f 142 135 134
f 136 143 135
f 135 143 136
f 144 123 145
f 145 123 144
f 149 144 125
f 125 144 149
f 114 150 145
f 145 150 114
f 125 135 149
f 149 135 125
f 137 135 146
f 146 135 137
f 147 114 151
f 151 114 147
f 147 135 137
f 137 135 147
f 148 135 138
f 138 135 148
f 138 139 148
f 148 139 138
f 140 135 141
f 141 135 140
f 146 135 140
f 140 135 146
f 142 135 148
f 148 135 142
f 144 145 152
f 152 145 144
f 144 149 153
f 153 149 144
f 150 114 151
f 151 114 150
f 154 145 150
f 150 145 154
f 135 153 149
f 149 153 135
f 151 155 147
f 147 155 151
f 155 135 147
f 147 135 155
f 154 152 145
f 145 152 154
f 152 154 144
f 144 154 152
f 144 153 154
f 154 153 144
f 155 151 150
f 150 151 155
f 154 150 153
f 153 150 154
f 153 135 155
f 155 135 153
f 153 154 156
f 156 154 153
f 153 150 155
f 155 150 153
f 157 112 158
f 112 157 159
f 158 112 157
f 159 157 112
f 112 160 158
f 158 160 112
f 160 157 158
f 158 157 160
f 157 161 159
f 159 161 157
f 162 112 159
f 159 112 162
f 160 112 163
f 163 112 160
f 164 157 160
f 160 157 164
f 161 157 165
f 165 157 161
f 159 161 166
f 166 161 159
f 112 162 163
f 163 162 112
f 159 166 162
f 162 166 159
f 162 160 163
f 163 160 162
f 167 157 164
f 164 157 167
f 160 162 164
f 164 162 160
f 157 168 165
f 165 168 157
f 161 165 169
f 169 165 161
f 161 162 166
f 166 162 161
f 170 157 167
f 167 157 170
f 167 164 171
f 171 164 167
f 164 162 171
f 171 162 164
f 168 157 172
f 172 157 168
f 165 168 173
f 173 168 165
f 174 169 165
f 165 169 174
f 175 161 169
f 169 161 175
f 171 162 161
f 161 162 171
f 176 157 170
f 170 157 176
f 170 167 177
f 177 167 170
f 178 167 171
f 171 167 178
f 157 179 172
f 172 179 157
f 179 168 172
f 172 168 179
f 173 168 180
f 180 168 173
f 165 173 181
f 181 173 165
f 169 174 182
f 182 174 169
f 165 183 174
f 174 183 165
f 161 175 184
f 184 175 161
f 185 175 169
f 169 175 185
f 184 171 161
f 161 171 184
f 186 157 176
f 176 157 186
f 170 185 176
f 176 185 170
f 177 167 187
f 187 167 177
f 177 188 170
f 170 188 177
f 167 178 189
f 189 178 167
f 171 184 178
f 178 184 171
f 179 157 190
f 190 157 179
f 168 179 191
f 191 179 168
f 192 180 168
f 168 180 192
f 180 193 173
f 173 193 180
f 181 173 194
f 194 173 181
f 181 195 165
f 165 195 181
f 174 196 182
f 182 196 174
f 169 182 197
f 197 182 169
f 183 165 195
f 195 165 183
f 196 174 183
f 183 174 196
f 184 175 198
f 198 175 184
f 175 185 188
f 188 185 175
f 199 185 169
f 169 185 199
f 200 157 186
f 186 157 200
f 186 176 201
f 201 176 186
f 185 170 188
f 188 170 185
f 202 176 185
f 185 176 202
f 187 167 203
f 203 167 187
f 187 204 177
f 177 204 187
f 188 177 204
f 204 177 188
f 205 189 178
f 178 189 205
f 206 167 189
f 189 167 206
f 207 178 184
f 184 178 207
f 190 157 208
f 208 157 190
f 179 190 209
f 209 190 179
f 209 191 179
f 179 191 209
f 191 192 168
f 168 192 191
f 180 192 210
f 210 192 180
f 193 180 211
f 211 180 193
f 193 212 173
f 173 212 193
f 173 213 194
f 194 213 173
f 181 194 214
f 214 194 181
f 195 181 215
f 215 181 195
f 216 182 196
f 196 182 216
f 182 216 197
f 197 216 182
f 169 197 217
f 217 197 169
f 218 183 195
f 195 183 218
f 200 196 183
f 183 196 200
f 188 198 175
f 175 198 188
f 184 198 207
f 207 198 184
f 202 185 199
f 199 185 202
f 169 219 199
f 199 219 169
f 218 157 200
f 200 157 218
f 196 200 186
f 186 200 196
f 201 176 220
f 220 176 201
f 216 186 201
f 201 186 216
f 176 202 221
f 221 202 176
f 203 167 222
f 222 167 203
f 223 187 203
f 203 187 223
f 204 187 224
f 224 187 204
f 198 188 204
f 204 188 198
f 189 205 206
f 206 205 189
f 178 207 205
f 205 207 178
f 225 167 206
f 206 167 225
f 208 157 226
f 226 157 208
f 190 208 227
f 227 208 190
f 209 190 228
f 228 190 209
f 191 209 229
f 229 209 191
f 192 191 229
f 229 191 192
f 210 192 230
f 230 192 210
f 210 231 180
f 180 231 210
f 211 180 232
f 232 180 211
f 211 233 193
f 193 233 211
f 212 193 233
f 233 193 212
f 213 173 212
f 212 173 213
f 234 194 213
f 213 194 234
f 194 234 214
f 214 234 194
f 181 214 235
f 235 214 181
f 235 215 181
f 181 215 235
f 236 195 215
f 215 195 236
f 186 216 196
f 196 216 186
f 237 197 216
f 216 197 237
f 197 237 217
f 217 237 197
f 169 217 219
f 219 217 169
f 183 218 200
f 200 218 183
f 195 236 218
f 218 236 195
f 207 198 238
f 238 198 207
f 199 239 202
f 202 239 199
f 239 199 219
f 219 199 239
f 240 157 218
f 218 157 240
f 220 176 241
f 241 176 220
f 237 201 220
f 220 201 237
f 201 237 216
f 216 237 201
f 239 221 202
f 202 221 239
f 221 241 176
f 176 241 221
f 222 167 242
f 242 167 222
f 243 203 222
f 222 203 243
f 187 223 224
f 224 223 187
f 203 243 223
f 223 243 203
f 238 204 224
f 224 204 238
f 204 238 198
f 198 238 204
f 244 206 205
f 205 206 244
f 245 205 207
f 207 205 245
f 246 167 225
f 225 167 246
f 206 244 225
f 225 244 206
f 226 157 247
f 247 157 226
f 212 208 226
f 226 208 212
f 233 227 208
f 208 227 233
f 190 227 248
f 248 227 190
f 228 190 249
f 249 190 228
f 250 209 228
f 228 209 250
f 209 250 229
f 229 250 209
f 250 192 229
f 229 192 250
f 192 250 230
f 230 250 192
f 210 230 251
f 251 230 210
f 231 210 252
f 252 210 231
f 231 253 180
f 180 253 231
f 232 180 254
f 254 180 232
f 232 255 211
f 211 255 232
f 233 211 255
f 255 211 233
f 208 212 233
f 233 212 208
f 226 213 212
f 212 213 226
f 247 234 213
f 213 234 247
f 256 214 234
f 234 214 256
f 235 214 257
f 257 214 235
f 215 235 258
f 258 235 215
f 215 259 236
f 236 259 215
f 239 217 237
f 237 217 239
f 217 239 219
f 219 239 217
f 240 218 236
f 236 218 240
f 207 238 245
f 245 238 207
f 260 157 240
f 240 157 260
f 239 220 241
f 241 220 239
f 220 239 237
f 237 239 220
f 221 239 241
f 241 239 221
f 242 167 261
f 261 167 242
f 262 222 242
f 242 222 262
f 222 262 243
f 243 262 222
f 223 238 224
f 224 238 223
f 243 263 223
f 223 263 243
f 205 245 244
f 244 245 205
f 261 167 246
f 246 167 261
f 244 246 225
f 225 246 244
f 247 157 260
f 260 157 247
f 213 226 247
f 247 226 213
f 227 233 255
f 255 233 227
f 255 248 227
f 227 248 255
f 190 248 264
f 264 248 190
f 249 190 265
f 265 190 249
f 266 228 249
f 249 228 266
f 228 266 250
f 250 266 228
f 266 230 250
f 250 230 266
f 251 230 267
f 267 230 251
f 251 252 210
f 210 252 251
f 252 190 231
f 231 190 252
f 268 253 231
f 231 253 268
f 269 180 253
f 253 180 269
f 254 180 269
f 269 180 254
f 254 270 232
f 232 270 254
f 255 232 270
f 270 232 255
f 234 247 260
f 260 247 234
f 214 256 257
f 257 256 214
f 260 256 234
f 234 256 260
f 235 257 271
f 271 257 235
f 271 258 235
f 235 258 271
f 259 215 258
f 258 215 259
f 272 236 259
f 259 236 272
f 240 236 273
f 273 236 240
f 245 238 263
f 263 238 245
f 256 260 240
f 240 260 256
f 274 242 261
f 261 242 274
f 242 274 262
f 262 274 242
f 262 275 243
f 243 275 262
f 238 223 263
f 263 223 238
f 263 243 275
f 275 243 263
f 276 244 245
f 245 244 276
f 277 261 246
f 246 261 277
f 246 244 277
f 277 244 246
f 248 255 270
f 270 255 248
f 270 264 248
f 248 264 270
f 190 264 278
f 278 264 190
f 265 190 279
f 279 190 265
f 280 249 265
f 265 249 280
f 249 280 266
f 266 280 249
f 230 266 281
f 281 266 230
f 267 230 281
f 281 230 267
f 267 282 251
f 251 282 267
f 252 251 282
f 282 251 252
f 190 252 283
f 283 252 190
f 190 268 231
f 231 268 190
f 253 268 284
f 284 268 253
f 253 285 269
f 269 285 253
f 269 286 254
f 254 286 269
f 270 254 286
f 286 254 270
f 287 257 256
f 256 257 287
f 271 257 288
f 288 257 271
f 258 271 289
f 289 271 258
f 258 290 259
f 259 290 258
f 273 236 272
f 272 236 273
f 272 259 290
f 290 259 272
f 287 240 273
f 273 240 287
f 245 263 276
f 276 263 245
f 240 287 256
f 256 287 240
f 261 277 274
f 274 277 261
f 274 291 262
f 262 291 274
f 275 262 291
f 291 262 275
f 276 263 275
f 275 263 276
f 244 276 277
f 277 276 244
f 264 270 286
f 286 270 264
f 286 278 264
f 264 278 286
f 190 278 268
f 268 278 190
f 279 190 292
f 292 190 279
f 293 265 279
f 279 265 293
f 265 293 280
f 280 293 265
f 280 281 266
f 266 281 280
f 267 281 294
f 294 281 267
f 282 267 295
f 295 267 282
f 296 252 282
f 282 252 296
f 252 296 283
f 283 296 252
f 296 190 283
f 283 190 296
f 268 285 284
f 284 285 268
f 285 253 284
f 284 253 285
f 286 269 285
f 285 269 286
f 257 287 288
f 288 287 257
f 271 288 297
f 297 288 271
f 297 289 271
f 271 289 297
f 290 258 289
f 289 258 290
f 298 273 272
f 272 273 298
f 272 290 299
f 299 290 272
f 273 298 287
f 287 298 273
f 277 300 274
f 274 300 277
f 291 274 300
f 300 274 291
f 300 275 291
f 291 275 300
f 276 275 300
f 300 275 276
f 300 277 276
f 276 277 300
f 278 286 285
f 285 286 278
f 285 268 278
f 278 268 285
f 292 190 301
f 301 190 292
f 302 279 292
f 292 279 302
f 279 302 293
f 293 302 279
f 293 303 280
f 280 303 293
f 281 280 303
f 303 280 281
f 294 281 303
f 303 281 294
f 294 295 267
f 267 295 294
f 304 282 295
f 295 282 304
f 282 304 296
f 296 304 282
f 304 190 296
f 296 190 304
f 298 288 287
f 287 288 298
f 297 288 305
f 305 288 297
f 289 297 306
f 306 297 289
f 289 299 290
f 290 299 289
f 272 307 298
f 298 307 272
f 272 299 308
f 308 299 272
f 301 190 309
f 309 190 301
f 310 292 301
f 301 292 310
f 292 310 302
f 302 310 292
f 302 311 293
f 293 311 302
f 303 293 311
f 311 293 303
f 294 303 311
f 311 303 294
f 295 294 312
f 312 294 295
f 295 309 304
f 304 309 295
f 309 190 304
f 304 190 309
f 288 298 305
f 305 298 288
f 297 305 313
f 313 305 297
f 313 306 297
f 297 306 313
f 299 289 306
f 306 289 299
f 307 272 314
f 314 272 307
f 307 305 298
f 298 305 307
f 306 308 299
f 299 308 306
f 272 308 314
f 314 308 272
f 312 301 309
f 309 301 312
f 301 312 310
f 310 312 301
f 310 315 302
f 302 315 310
f 311 302 315
f 315 302 311
f 294 311 316
f 316 311 294
f 316 312 294
f 294 312 316
f 309 295 312
f 312 295 309
f 313 305 317
f 317 305 313
f 306 313 318
f 318 313 306
f 308 307 314
f 314 307 308
f 305 307 317
f 317 307 305
f 308 306 318
f 318 306 308
f 312 316 310
f 310 316 312
f 315 310 316
f 316 310 315
f 316 311 315
f 315 311 316
f 317 318 313
f 313 318 317
f 307 308 318
f 318 308 307
f 318 317 307
f 307 317 318
f 319 320 321
f 320 319 100
f 321 320 319
f 100 319 320
f 320 322 321
f 321 322 320
f 322 319 321
f 321 319 322
f 319 323 100
f 100 323 319
f 324 320 100
f 100 320 324
f 322 320 325
f 325 320 322
f 326 319 322
f 322 319 326
f 323 319 327
f 327 319 323
f 100 323 328
f 328 323 100
f 320 324 325
f 325 324 320
f 100 328 324
f 324 328 100
f 324 322 325
f 325 322 324
f 329 319 326
f 326 319 329
f 322 324 326
f 326 324 322
f 319 330 327
f 327 330 319
f 323 327 331
f 331 327 323
f 323 324 328
f 328 324 323
f 332 319 329
f 329 319 332
f 329 326 333
f 333 326 329
f 326 324 333
f 333 324 326
f 330 319 334
f 334 319 330
f 327 330 335
f 335 330 327
f 336 331 327
f 327 331 336
f 337 323 331
f 331 323 337
f 333 324 323
f 323 324 333
f 338 319 332
f 332 319 338
f 332 329 339
f 339 329 332
f 340 329 333
f 333 329 340
f 319 341 334
f 334 341 319
f 341 330 334
f 334 330 341
f 335 330 342
f 342 330 335
f 327 335 343
f 343 335 327
f 331 336 344
f 344 336 331
f 327 345 336
f 336 345 327
f 323 337 346
f 346 337 323
f 347 337 331
f 331 337 347
f 346 333 323
f 323 333 346
f 348 319 338
f 338 319 348
f 332 347 338
f 338 347 332
f 339 329 349
f 349 329 339
f 339 350 332
f 332 350 339
f 329 340 351
f 351 340 329
f 333 346 340
f 340 346 333
f 341 319 352
f 352 319 341
f 330 341 353
f 353 341 330
f 354 342 330
f 330 342 354
f 342 355 335
f 335 355 342
f 343 335 356
f 356 335 343
f 343 357 327
f 327 357 343
f 336 358 344
f 344 358 336
f 331 344 359
f 359 344 331
f 345 327 357
f 357 327 345
f 358 336 345
f 345 336 358
f 346 337 360
f 360 337 346
f 337 347 350
f 350 347 337
f 361 347 331
f 331 347 361
f 362 319 348
f 348 319 362
f 348 338 363
f 363 338 348
f 347 332 350
f 350 332 347
f 364 338 347
f 347 338 364
f 349 329 365
f 365 329 349
f 349 366 339
f 339 366 349
f 350 339 366
f 366 339 350
f 367 351 340
f 340 351 367
f 368 329 351
f 351 329 368
f 369 340 346
f 346 340 369
f 352 319 370
f 370 319 352
f 341 352 371
f 371 352 341
f 371 353 341
f 341 353 371
f 353 354 330
f 330 354 353
f 342 354 372
f 372 354 342
f 355 342 373
f 373 342 355
f 355 374 335
f 335 374 355
f 335 375 356
f 356 375 335
f 343 356 376
f 376 356 343
f 357 343 377
f 377 343 357
f 378 344 358
f 358 344 378
f 344 378 359
f 359 378 344
f 331 359 379
f 379 359 331
f 380 345 357
f 357 345 380
f 362 358 345
f 345 358 362
f 350 360 337
f 337 360 350
f 346 360 369
f 369 360 346
f 364 347 361
f 361 347 364
f 331 381 361
f 361 381 331
f 380 319 362
f 362 319 380
f 358 362 348
f 348 362 358
f 363 338 382
f 382 338 363
f 378 348 363
f 363 348 378
f 338 364 383
f 383 364 338
f 365 329 384
f 384 329 365
f 385 349 365
f 365 349 385
f 366 349 386
f 386 349 366
f 360 350 366
f 366 350 360
f 351 367 368
f 368 367 351
f 340 369 367
f 367 369 340
f 387 329 368
f 368 329 387
f 370 319 388
f 388 319 370
f 352 370 389
f 389 370 352
f 371 352 390
f 390 352 371
f 353 371 391
f 391 371 353
f 354 353 391
f 391 353 354
f 372 354 392
f 392 354 372
f 372 393 342
f 342 393 372
f 373 342 394
f 394 342 373
f 373 395 355
f 355 395 373
f 374 355 395
f 395 355 374
f 375 335 374
f 374 335 375
f 396 356 375
f 375 356 396
f 356 396 376
f 376 396 356
f 343 376 397
f 397 376 343
f 397 377 343
f 343 377 397
f 398 357 377
f 377 357 398
f 348 378 358
f 358 378 348
f 399 359 378
f 378 359 399
f 359 399 379
f 379 399 359
f 331 379 381
f 381 379 331
f 345 380 362
f 362 380 345
f 357 398 380
f 380 398 357
f 369 360 400
f 400 360 369
f 361 401 364
f 364 401 361
f 401 361 381
f 381 361 401
f 402 319 380
f 380 319 402
f 382 338 403
f 403 338 382
f 399 363 382
f 382 363 399
f 363 399 378
f 378 399 363
f 401 383 364
f 364 383 401
f 383 403 338
f 338 403 383
f 384 329 404
f 404 329 384
f 405 365 384
f 384 365 405
f 349 385 386
f 386 385 349
f 365 405 385
f 385 405 365
f 400 366 386
f 386 366 400
f 366 400 360
f 360 400 366
f 406 368 367
f 367 368 406
f 407 367 369
f 369 367 407
f 408 329 387
f 387 329 408
f 368 406 387
f 387 406 368
f 388 319 409
f 409 319 388
f 374 370 388
f 388 370 374
f 395 389 370
f 370 389 395
f 352 389 410
f 410 389 352
f 390 352 411
f 411 352 390
f 412 371 390
f 390 371 412
f 371 412 391
f 391 412 371
f 412 354 391
f 391 354 412
f 354 412 392
f 392 412 354
f 372 392 413
f 413 392 372
f 393 372 414
f 414 372 393
f 393 415 342
f 342 415 393
f 394 342 416
f 416 342 394
f 394 417 373
f 373 417 394
f 395 373 417
f 417 373 395
f 370 374 395
f 395 374 370
f 388 375 374
f 374 375 388
f 409 396 375
f 375 396 409
f 418 376 396
f 396 376 418
f 397 376 419
f 419 376 397
f 377 397 420
f 420 397 377
f 377 421 398
f 398 421 377
f 401 379 399
f 399 379 401
f 379 401 381
f 381 401 379
f 402 380 398
f 398 380 402
f 369 400 407
f 407 400 369
f 422 319 402
f 402 319 422
f 401 382 403
f 403 382 401
f 382 401 399
f 399 401 382
f 383 401 403
f 403 401 383
f 404 329 423
f 423 329 404
f 424 384 404
f 404 384 424
f 384 424 405
f 405 424 384
f 385 400 386
f 386 400 385
f 405 425 385
f 385 425 405
f 367 407 406
f 406 407 367
f 423 329 408
f 408 329 423
f 406 408 387
f 387 408 406
f 409 319 422
f 422 319 409
f 375 388 409
f 409 388 375
f 389 395 417
f 417 395 389
f 417 410 389
f 389 410 417
f 352 410 426
f 426 410 352
f 411 352 427
f 427 352 411
f 428 390 411
f 411 390 428
f 390 428 412
f 412 428 390
f 428 392 412
f 412 392 428
f 413 392 429
f 429 392 413
f 413 414 372
f 372 414 413
f 414 352 393
f 393 352 414
f 430 415 393
f 393 415 430
f 431 342 415
f 415 342 431
f 416 342 431
f 431 342 416
f 416 432 394
f 394 432 416
f 417 394 432
f 432 394 417
f 396 409 422
f 422 409 396
f 376 418 419
f 419 418 376
f 422 418 396
f 396 418 422
f 397 419 433
f 433 419 397
f 433 420 397
f 397 420 433
f 421 377 420
f 420 377 421
f 434 398 421
f 421 398 434
f 402 398 435
f 435 398 402
f 407 400 425
f 425 400 407
f 418 422 402
f 402 422 418
f 436 404 423
f 423 404 436
f 404 436 424
f 424 436 404
f 424 437 405
f 405 437 424
f 400 385 425
f 425 385 400
f 425 405 437
f 437 405 425
f 438 406 407
f 407 406 438
f 439 423 408
f 408 423 439
f 408 406 439
f 439 406 408
f 410 417 432
f 432 417 410
f 432 426 410
f 410 426 432
f 352 426 440
f 440 426 352
f 427 352 441
f 441 352 427
f 442 411 427
f 427 411 442
f 411 442 428
f 428 442 411
f 392 428 443
f 443 428 392
f 429 392 443
f 443 392 429
f 429 444 413
f 413 444 429
f 414 413 444
f 444 413 414
f 352 414 445
f 445 414 352
f 352 430 393
f 393 430 352
f 415 430 446
f 446 430 415
f 415 447 431
f 431 447 415
f 431 448 416
f 416 448 431
f 432 416 448
f 448 416 432
f 449 419 418
f 418 419 449
f 433 419 450
f 450 419 433
f 420 433 451
f 451 433 420
f 420 452 421
f 421 452 420
f 435 398 434
f 434 398 435
f 434 421 452
f 452 421 434
f 449 402 435
f 435 402 449
f 407 425 438
f 438 425 407
f 402 449 418
f 418 449 402
f 423 439 436
f 436 439 423
f 436 453 424
f 424 453 436
f 437 424 453
f 453 424 437
f 438 425 437
f 437 425 438
f 406 438 439
f 439 438 406
f 426 432 448
f 448 432 426
f 448 440 426
f 426 440 448
f 352 440 430
f 430 440 352
f 441 352 454
f 454 352 441
f 455 427 441
f 441 427 455
f 427 455 442
f 442 455 427
f 442 443 428
f 428 443 442
f 429 443 456
f 456 443 429
f 444 429 457
f 457 429 444
f 458 414 444
f 444 414 458
f 414 458 445
f 445 458 414
f 458 352 445
f 445 352 458
f 430 447 446
f 446 447 430
f 447 415 446
f 446 415 447
f 448 431 447
f 447 431 448
f 419 449 450
f 450 449 419
f 433 450 459
f 459 450 433
f 459 451 433
f 433 451 459
f 452 420 451
f 451 420 452
f 460 435 434
f 434 435 460
f 434 452 461
f 461 452 434
f 435 460 449
f 449 460 435
f 439 462 436
f 436 462 439
f 453 436 462
f 462 436 453
f 462 437 453
f 453 437 462
f 438 437 462
f 462 437 438
f 462 439 438
f 438 439 462
f 440 448 447
f 447 448 440
f 447 430 440
f 440 430 447
f 454 352 463
f 463 352 454
f 464 441 454
f 454 441 464
f 441 464 455
f 455 464 441
f 455 465 442
f 442 465 455
f 443 442 465
f 465 442 443
f 456 443 465
f 465 443 456
f 456 457 429
f 429 457 456
f 466 444 457
f 457 444 466
f 444 466 458
f 458 466 444
f 466 352 458
f 458 352 466
f 460 450 449
f 449 450 460
f 459 450 467
f 467 450 459
f 451 459 468
f 468 459 451
f 451 461 452
f 452 461 451
f 434 469 460
f 460 469 434
f 434 461 470
f 470 461 434
f 463 352 471
f 471 352 463
f 472 454 463
f 463 454 472
f 454 472 464
f 464 472 454
f 464 473 455
f 455 473 464
f 465 455 473
f 473 455 465
f 456 465 473
f 473 465 456
f 457 456 474
f 474 456 457
f 457 471 466
f 466 471 457
f 471 352 466
f 466 352 471
f 450 460 467
f 467 460 450
f 459 467 475
f 475 467 459
f 475 468 459
f 459 468 475
f 461 451 468
f 468 451 461
f 469 434 476
f 476 434 469
f 469 467 460
f 460 467 469
f 468 470 461
f 461 470 468
f 434 470 476
f 476 470 434
f 474 463 471
f 471 463 474
f 463 474 472
f 472 474 463
f 472 477 464
f 464 477 472
f 473 464 477
f 477 464 473
f 456 473 478
f 478 473 456
f 478 474 456
f 456 474 478
f 471 457 474
f 474 457 471
f 475 467 479
f 479 467 475
f 468 475 480
f 480 475 468
f 470 469 476
f 476 469 470
f 467 469 479
f 479 469 467
f 470 468 480
f 480 468 470
f 474 478 472
f 472 478 474
f 477 472 478
f 478 472 477
f 478 473 477
f 477 473 478
f 479 480 475
f 475 480 479
f 469 470 480
f 480 470 469
f 480 479 469
f 469 479 480
f 105 94 97
f 94 105 96
f 97 94 105
f 96 105 94
f 94 481 97
f 97 481 94
f 481 105 97
f 97 105 481
f 105 482 96
f 96 482 105
f 483 94 96
f 96 94 483
f 481 94 484
f 484 94 481
f 485 105 481
f 481 105 485
f 482 105 486
f 486 105 482
f 96 482 487
f 487 482 96
f 94 483 484
f 484 483 94
f 96 487 483
f 483 487 96
f 483 481 484
f 484 481 483
f 488 105 485
f 485 105 488
f 481 483 485
f 485 483 481
f 105 489 486
f 486 489 105
f 482 486 490
f 490 486 482
f 482 483 487
f 487 483 482
f 491 105 488
f 488 105 491
f 488 485 492
f 492 485 488
f 485 483 492
f 492 483 485
f 489 105 493
f 493 105 489
f 486 489 494
f 494 489 486
f 495 490 486
f 486 490 495
f 496 482 490
f 490 482 496
f 492 483 482
f 482 483 492
f 497 105 491
f 491 105 497
f 491 488 498
f 498 488 491
f 499 488 492
f 492 488 499
f 105 500 493
f 493 500 105
f 500 489 493
f 493 489 500
f 494 489 501
f 501 489 494
f 486 494 502
f 502 494 486
f 490 495 503
f 503 495 490
f 486 504 495
f 495 504 486
f 482 496 505
f 505 496 482
f 506 496 490
f 490 496 506
f 505 492 482
f 482 492 505
f 507 105 497
f 497 105 507
f 491 506 497
f 497 506 491
f 498 488 508
f 508 488 498
f 498 509 491
f 491 509 498
f 488 499 510
f 510 499 488
f 492 505 499
f 499 505 492
f 500 105 511
f 511 105 500
f 489 500 512
f 512 500 489
f 513 501 489
f 489 501 513
f 501 514 494
f 494 514 501
f 502 494 515
f 515 494 502
f 502 516 486
f 486 516 502
f 495 517 503
f 503 517 495
f 490 503 518
f 518 503 490
f 504 486 516
f 516 486 504
f 517 495 504
f 504 495 517
f 505 496 519
f 519 496 505
f 496 506 509
f 509 506 496
f 520 506 490
f 490 506 520
f 521 105 507
f 507 105 521
f 507 497 522
f 522 497 507
f 506 491 509
f 509 491 506
f 523 497 506
f 506 497 523
f 508 488 524
f 524 488 508
f 508 525 498
f 498 525 508
f 509 498 525
f 525 498 509
f 526 510 499
f 499 510 526
f 527 488 510
f 510 488 527
f 528 499 505
f 505 499 528
f 511 105 529
f 529 105 511
f 500 511 530
f 530 511 500
f 530 512 500
f 500 512 530
f 512 513 489
f 489 513 512
f 501 513 531
f 531 513 501
f 514 501 532
f 532 501 514
f 514 533 494
f 494 533 514
f 494 534 515
f 515 534 494
f 502 515 535
f 535 515 502
f 516 502 536
f 536 502 516
f 537 503 517
f 517 503 537
f 503 537 518
f 518 537 503
f 490 518 538
f 538 518 490
f 539 504 516
f 516 504 539
f 521 517 504
f 504 517 521
f 509 519 496
f 496 519 509
f 505 519 528
f 528 519 505
f 523 506 520
f 520 506 523
f 490 540 520
f 520 540 490
f 539 105 521
f 521 105 539
f 517 521 507
f 507 521 517
f 522 497 541
f 541 497 522
f 537 507 522
f 522 507 537
f 497 523 542
f 542 523 497
f 524 488 543
f 543 488 524
f 544 508 524
f 524 508 544
f 525 508 545
f 545 508 525
f 519 509 525
f 525 509 519
f 510 526 527
f 527 526 510
f 499 528 526
f 526 528 499
f 546 488 527
f 527 488 546
f 529 105 547
f 547 105 529
f 511 529 548
f 548 529 511
f 530 511 549
f 549 511 530
f 512 530 550
f 550 530 512
f 513 512 550
f 550 512 513
f 531 513 551
f 551 513 531
f 531 552 501
f 501 552 531
f 532 501 553
f 553 501 532
f 532 554 514
f 514 554 532
f 533 514 554
f 554 514 533
f 534 494 533
f 533 494 534
f 555 515 534
f 534 515 555
f 515 555 535
f 535 555 515
f 502 535 556
f 556 535 502
f 556 536 502
f 502 536 556
f 557 516 536
f 536 516 557
f 507 537 517
f 517 537 507
f 558 518 537
f 537 518 558
f 518 558 538
f 538 558 518
f 490 538 540
f 540 538 490
f 504 539 521
f 521 539 504
f 516 557 539
f 539 557 516
f 528 519 559
f 559 519 528
f 520 560 523
f 523 560 520
f 560 520 540
f 540 520 560
f 561 105 539
f 539 105 561
f 541 497 562
f 562 497 541
f 558 522 541
f 541 522 558
f 522 558 537
f 537 558 522
f 560 542 523
f 523 542 560
f 542 562 497
f 497 562 542
f 543 488 563
f 563 488 543
f 564 524 543
f 543 524 564
f 508 544 545
f 545 544 508
f 524 564 544
f 544 564 524
f 559 525 545
f 545 525 559
f 525 559 519
f 519 559 525
f 565 527 526
f 526 527 565
f 566 526 528
f 528 526 566
f 567 488 546
f 546 488 567
f 527 565 546
f 546 565 527
f 547 105 568
f 568 105 547
f 533 529 547
f 547 529 533
f 554 548 529
f 529 548 554
f 511 548 569
f 569 548 511
f 549 511 570
f 570 511 549
f 571 530 549
f 549 530 571
f 530 571 550
f 550 571 530
f 571 513 550
f 550 513 571
f 513 571 551
f 551 571 513
f 531 551 572
f 572 551 531
f 552 531 573
f 573 531 552
f 552 574 501
f 501 574 552
f 553 501 575
f 575 501 553
f 553 576 532
f 532 576 553
f 554 532 576
f 576 532 554
f 529 533 554
f 554 533 529
f 547 534 533
f 533 534 547
f 568 555 534
f 534 555 568
f 577 535 555
f 555 535 577
f 556 535 578
f 578 535 556
f 536 556 579
f 579 556 536
f 536 580 557
f 557 580 536
f 560 538 558
f 558 538 560
f 538 560 540
f 540 560 538
f 561 539 557
f 557 539 561
f 528 559 566
f 566 559 528
f 581 105 561
f 561 105 581
f 560 541 562
f 562 541 560
f 541 560 558
f 558 560 541
f 542 560 562
f 562 560 542
f 563 488 582
f 582 488 563
f 583 543 563
f 563 543 583
f 543 583 564
f 564 583 543
f 544 559 545
f 545 559 544
f 564 584 544
f 544 584 564
f 526 566 565
f 565 566 526
f 582 488 567
f 567 488 582
f 565 567 546
f 546 567 565
f 568 105 581
f 581 105 568
f 534 547 568
f 568 547 534
f 548 554 576
f 576 554 548
f 576 569 548
f 548 569 576
f 511 569 585
f 585 569 511
f 570 511 586
f 586 511 570
f 587 549 570
f 570 549 587
f 549 587 571
f 571 587 549
f 587 551 571
f 571 551 587
f 572 551 588
f 588 551 572
f 572 573 531
f 531 573 572
f 573 511 552
f 552 511 573
f 589 574 552
f 552 574 589
f 590 501 574
f 574 501 590
f 575 501 590
f 590 501 575
f 575 591 553
f 553 591 575
f 576 553 591
f 591 553 576
f 555 568 581
f 581 568 555
f 535 577 578
f 578 577 535
f 581 577 555
f 555 577 581
f 556 578 592
f 592 578 556
f 592 579 556
f 556 579 592
f 580 536 579
f 579 536 580
f 593 557 580
f 580 557 593
f 561 557 594
f 594 557 561
f 566 559 584
f 584 559 566
f 577 581 561
f 561 581 577
f 595 563 582
f 582 563 595
f 563 595 583
f 583 595 563
f 583 596 564
f 564 596 583
f 559 544 584
f 584 544 559
f 584 564 596
f 596 564 584
f 597 565 566
f 566 565 597
f 598 582 567
f 567 582 598
f 567 565 598
f 598 565 567
f 569 576 591
f 591 576 569
f 591 585 569
f 569 585 591
f 511 585 599
f 599 585 511
f 586 511 600
f 600 511 586
f 601 570 586
f 586 570 601
f 570 601 587
f 587 601 570
f 551 587 602
f 602 587 551
f 588 551 602
f 602 551 588
f 588 603 572
f 572 603 588
f 573 572 603
f 603 572 573
f 511 573 604
f 604 573 511
f 511 589 552
f 552 589 511
f 574 589 605
f 605 589 574
f 574 606 590
f 590 606 574
f 590 607 575
f 575 607 590
f 591 575 607
f 607 575 591
f 608 578 577
f 577 578 608
f 592 578 609
f 609 578 592
f 579 592 610
f 610 592 579
f 579 611 580
f 580 611 579
f 594 557 593
f 593 557 594
f 593 580 611
f 611 580 593
f 608 561 594
f 594 561 608
f 566 584 597
f 597 584 566
f 561 608 577
f 577 608 561
f 582 598 595
f 595 598 582
f 595 612 583
f 583 612 595
f 596 583 612
f 612 583 596
f 597 584 596
f 596 584 597
f 565 597 598
f 598 597 565
f 585 591 607
f 607 591 585
f 607 599 585
f 585 599 607
f 511 599 589
f 589 599 511
f 600 511 613
f 613 511 600
f 614 586 600
f 600 586 614
f 586 614 601
f 601 614 586
f 601 602 587
f 587 602 601
f 588 602 615
f 615 602 588
f 603 588 616
f 616 588 603
f 617 573 603
f 603 573 617
f 573 617 604
f 604 617 573
f 617 511 604
f 604 511 617
f 589 606 605
f 605 606 589
f 606 574 605
f 605 574 606
f 607 590 606
f 606 590 607
f 578 608 609
f 609 608 578
f 592 609 618
f 618 609 592
f 618 610 592
f 592 610 618
f 611 579 610
f 610 579 611
f 619 594 593
f 593 594 619
f 593 611 620
f 620 611 593
f 594 619 608
f 608 619 594
f 598 621 595
f 595 621 598
f 612 595 621
f 621 595 612
f 621 596 612
f 612 596 621
f 597 596 621
f 621 596 597
f 621 598 597
f 597 598 621
f 599 607 606
f 606 607 599
f 606 589 599
f 599 589 606
f 613 511 622
f 622 511 613
f 623 600 613
f 613 600 623
f 600 623 614
f 614 623 600
f 614 624 601
f 601 624 614
f 602 601 624
f 624 601 602
f 615 602 624
f 624 602 615
f 615 616 588
f 588 616 615
f 625 603 616
f 616 603 625
f 603 625 617
f 617 625 603
f 625 511 617
f 617 511 625
f 619 609 608
f 608 609 619
f 618 609 626
f 626 609 618
f 610 618 627
f 627 618 610
f 610 620 611
f 611 620 610
f 593 628 619
f 619 628 593
f 593 620 629
f 629 620 593
f 622 511 630
f 630 511 622
f 631 613 622
f 622 613 631
f 613 631 623
f 623 631 613
f 623 632 614
f 614 632 623
f 624 614 632
f 632 614 624
f 615 624 632
f 632 624 615
f 616 615 633
f 633 615 616
f 616 630 625
f 625 630 616
f 630 511 625
f 625 511 630
f 609 619 626
f 626 619 609
f 618 626 634
f 634 626 618
f 634 627 618
f 618 627 634
f 620 610 627
f 627 610 620
f 628 593 635
f 635 593 628
f 628 626 619
f 619 626 628
f 627 629 620
f 620 629 627
f 593 629 635
f 635 629 593
f 633 622 630
f 630 622 633
f 622 633 631
f 631 633 622
f 631 636 623
f 623 636 631
f 632 623 636
f 636 623 632
f 615 632 637
f 637 632 615
f 637 633 615
f 615 633 637
f 630 616 633
f 633 616 630
f 634 626 638
f 638 626 634
f 627 634 639
f 639 634 627
f 629 628 635
f 635 628 629
f 626 628 638
f 638 628 626
f 629 627 639
f 639 627 629
f 633 637 631
f 631 637 633
f 636 631 637
f 637 631 636
f 637 632 636
f 636 632 637
f 638 639 634
f 634 639 638
f 628 629 639
f 639 629 628
f 639 638 628
f 628 638 639
f 640 641 106
f 641 640 642
f 106 641 640
f 642 640 641
f 641 643 106
f 106 643 641
f 643 640 106
f 106 640 643
f 640 644 642
f 642 644 640
f 645 641 642
f 642 641 645
f 643 641 646
f 646 641 643
f 647 640 643
f 643 640 647
f 644 640 648
f 648 640 644
f 642 644 649
f 649 644 642
f 641 645 646
f 646 645 641
f 642 649 645
f 645 649 642
f 645 643 646
f 646 643 645
f 650 640 647
f 647 640 650
f 643 645 647
f 647 645 643
f 640 651 648
f 648 651 640
f 644 648 652
f 652 648 644
f 644 645 649
f 649 645 644
f 653 640 650
f 650 640 653
f 650 647 654
f 654 647 650
f 647 645 654
f 654 645 647
f 651 640 655
f 655 640 651
f 648 651 656
f 656 651 648
f 657 652 648
f 648 652 657
f 658 644 652
f 652 644 658
f 654 645 644
f 644 645 654
f 659 640 653
f 653 640 659
f 653 650 660
f 660 650 653
f 661 650 654
f 654 650 661
f 640 662 655
f 655 662 640
f 662 651 655
f 655 651 662
f 656 651 663
f 663 651 656
f 648 656 664
f 664 656 648
f 652 657 665
f 665 657 652
f 648 666 657
f 657 666 648
f 644 658 667
f 667 658 644
f 668 658 652
f 652 658 668
f 667 654 644
f 644 654 667
f 669 640 659
f 659 640 669
f 653 668 659
f 659 668 653
f 660 650 670
f 670 650 660
f 660 671 653
f 653 671 660
f 650 661 672
f 672 661 650
f 654 667 661
f 661 667 654
f 662 640 673
f 673 640 662
f 651 662 674
f 674 662 651
f 675 663 651
f 651 663 675
f 663 676 656
f 656 676 663
f 664 656 677
f 677 656 664
f 664 678 648
f 648 678 664
f 657 679 665
f 665 679 657
f 652 665 680
f 680 665 652
f 666 648 678
f 678 648 666
f 679 657 666
f 666 657 679
f 667 658 681
f 681 658 667
f 658 668 671
f 671 668 658
f 682 668 652
f 652 668 682
f 683 640 669
f 669 640 683
f 669 659 684
f 684 659 669
f 668 653 671
f 671 653 668
f 685 659 668
f 668 659 685
f 670 650 686
f 686 650 670
f 670 687 660
f 660 687 670
f 671 660 687
f 687 660 671
f 688 672 661
f 661 672 688
f 689 650 672
f 672 650 689
f 690 661 667
f 667 661 690
f 673 640 691
f 691 640 673
f 662 673 692
f 692 673 662
f 692 674 662
f 662 674 692
f 674 675 651
f 651 675 674
f 663 675 693
f 693 675 663
f 676 663 694
f 694 663 676
f 676 695 656
f 656 695 676
f 656 696 677
f 677 696 656
f 664 677 697
f 697 677 664
f 678 664 698
f 698 664 678
f 699 665 679
f 679 665 699
f 665 699 680
f 680 699 665
f 652 680 700
f 700 680 652
f 701 666 678
f 678 666 701
f 683 679 666
f 666 679 683
f 671 681 658
f 658 681 671
f 667 681 690
f 690 681 667
f 685 668 682
f 682 668 685
f 652 702 682
f 682 702 652
f 701 640 683
f 683 640 701
f 679 683 669
f 669 683 679
f 684 659 703
f 703 659 684
f 699 669 684
f 684 669 699
f 659 685 704
f 704 685 659
f 686 650 705
f 705 650 686
f 706 670 686
f 686 670 706
f 687 670 707
f 707 670 687
f 681 671 687
f 687 671 681
f 672 688 689
f 689 688 672
f 661 690 688
f 688 690 661
f 708 650 689
f 689 650 708
f 691 640 709
f 709 640 691
f 673 691 710
f 710 691 673
f 692 673 711
f 711 673 692
f 674 692 712
f 712 692 674
f 675 674 712
f 712 674 675
f 693 675 713
f 713 675 693
f 693 714 663
f 663 714 693
f 694 663 715
f 715 663 694
f 694 716 676
f 676 716 694
f 695 676 716
f 716 676 695
f 696 656 695
f 695 656 696
f 717 677 696
f 696 677 717
f 677 717 697
f 697 717 677
f 664 697 718
f 718 697 664
f 718 698 664
f 664 698 718
f 719 678 698
f 698 678 719
f 669 699 679
f 679 699 669
f 720 680 699
f 699 680 720
f 680 720 700
f 700 720 680
f 652 700 702
f 702 700 652
f 666 701 683
f 683 701 666
f 678 719 701
f 701 719 678
f 690 681 721
f 721 681 690
f 682 722 685
f 685 722 682
f 722 682 702
f 702 682 722
f 723 640 701
f 701 640 723
f 703 659 724
f 724 659 703
f 720 684 703
f 703 684 720
f 684 720 699
f 699 720 684
f 722 704 685
f 685 704 722
f 704 724 659
f 659 724 704
f 705 650 725
f 725 650 705
f 726 686 705
f 705 686 726
f 670 706 707
f 707 706 670
f 686 726 706
f 706 726 686
f 721 687 707
f 707 687 721
f 687 721 681
f 681 721 687
f 727 689 688
f 688 689 727
f 728 688 690
f 690 688 728
f 729 650 708
f 708 650 729
f 689 727 708
f 708 727 689
f 709 640 730
f 730 640 709
f 695 691 709
f 709 691 695
f 716 710 691
f 691 710 716
f 673 710 731
f 731 710 673
f 711 673 732
f 732 673 711
f 733 692 711
f 711 692 733
f 692 733 712
f 712 733 692
f 733 675 712
f 712 675 733
f 675 733 713
f 713 733 675
f 693 713 734
f 734 713 693
f 714 693 735
f 735 693 714
f 714 736 663
f 663 736 714
f 715 663 737
f 737 663 715
f 715 738 694
f 694 738 715
f 716 694 738
f 738 694 716
f 691 695 716
f 716 695 691
f 709 696 695
f 695 696 709
f 730 717 696
f 696 717 730
f 739 697 717
f 717 697 739
f 718 697 740
f 740 697 718
f 698 718 741
f 741 718 698
f 698 742 719
f 719 742 698
f 722 700 720
f 720 700 722
f 700 722 702
f 702 722 700
f 723 701 719
f 719 701 723
f 690 721 728
f 728 721 690
f 743 640 723
f 723 640 743
f 722 703 724
f 724 703 722
f 703 722 720
f 720 722 703
f 704 722 724
f 724 722 704
f 725 650 744
f 744 650 725
f 745 705 725
f 725 705 745
f 705 745 726
f 726 745 705
f 706 721 707
f 707 721 706
f 726 746 706
f 706 746 726
f 688 728 727
f 727 728 688
f 744 650 729
f 729 650 744
f 727 729 708
f 708 729 727
f 730 640 743
f 743 640 730
f 696 709 730
f 730 709 696
f 710 716 738
f 738 716 710
f 738 731 710
f 710 731 738
f 673 731 747
f 747 731 673
f 732 673 748
f 748 673 732
f 749 711 732
f 732 711 749
f 711 749 733
f 733 749 711
f 749 713 733
f 733 713 749
f 734 713 750
f 750 713 734
f 734 735 693
f 693 735 734
f 735 673 714
f 714 673 735
f 751 736 714
f 714 736 751
f 752 663 736
f 736 663 752
f 737 663 752
f 752 663 737
f 737 753 715
f 715 753 737
f 738 715 753
f 753 715 738
f 717 730 743
f 743 730 717
f 697 739 740
f 740 739 697
f 743 739 717
f 717 739 743
f 718 740 754
f 754 740 718
f 754 741 718
f 718 741 754
f 742 698 741
f 741 698 742
f 755 719 742
f 742 719 755
f 723 719 756
f 756 719 723
f 728 721 746
f 746 721 728
f 739 743 723
f 723 743 739
f 757 725 744
f 744 725 757
f 725 757 745
f 745 757 725
f 745 758 726
f 726 758 745
f 721 706 746
f 746 706 721
f 746 726 758
f 758 726 746
f 759 727 728
f 728 727 759
f 760 744 729
f 729 744 760
f 729 727 760
f 760 727 729
f 731 738 753
f 753 738 731
f 753 747 731
f 731 747 753
f 673 747 761
f 761 747 673
f 748 673 762
f 762 673 748
f 763 732 748
f 748 732 763
f 732 763 749
f 749 763 732
f 713 749 764
f 764 749 713
f 750 713 764
f 764 713 750
f 750 765 734
f 734 765 750
f 735 734 765
f 765 734 735
f 673 735 766
f 766 735 673
f 673 751 714
f 714 751 673
f 736 751 767
f 767 751 736
f 736 768 752
f 752 768 736
f 752 769 737
f 737 769 752
f 753 737 769
f 769 737 753
f 770 740 739
f 739 740 770
f 754 740 771
f 771 740 754
f 741 754 772
f 772 754 741
f 741 773 742
f 742 773 741
f 756 719 755
f 755 719 756
f 755 742 773
f 773 742 755
f 770 723 756
f 756 723 770
f 728 746 759
f 759 746 728
f 723 770 739
f 739 770 723
f 744 760 757
f 757 760 744
f 757 774 745
f 745 774 757
f 758 745 774
f 774 745 758
f 759 746 758
f 758 746 759
f 727 759 760
f 760 759 727
f 747 753 769
f 769 753 747
f 769 761 747
f 747 761 769
f 673 761 751
f 751 761 673
f 762 673 775
f 775 673 762
f 776 748 762
f 762 748 776
f 748 776 763
f 763 776 748
f 763 764 749
f 749 764 763
f 750 764 777
f 777 764 750
f 765 750 778
f 778 750 765
f 779 735 765
f 765 735 779
f 735 779 766
f 766 779 735
f 779 673 766
f 766 673 779
f 751 768 767
f 767 768 751
f 768 736 767
f 767 736 768
f 769 752 768
f 768 752 769
f 740 770 771
f 771 770 740
f 754 771 780
f 780 771 754
f 780 772 754
f 754 772 780
f 773 741 772
f 772 741 773
f 781 756 755
f 755 756 781
f 755 773 782
f 782 773 755
f 756 781 770
f 770 781 756
f 760 783 757
f 757 783 760
f 774 757 783
f 783 757 774
f 783 758 774
f 774 758 783
f 759 758 783
f 783 758 759
f 783 760 759
f 759 760 783
f 761 769 768
f 768 769 761
f 768 751 761
f 761 751 768
f 775 673 784
f 784 673 775
f 785 762 775
f 775 762 785
f 762 785 776
f 776 785 762
f 776 786 763
f 763 786 776
f 764 763 786
f 786 763 764
f 777 764 786
f 786 764 777
f 777 778 750
f 750 778 777
f 787 765 778
f 778 765 787
f 765 787 779
f 779 787 765
f 787 673 779
f 779 673 787
f 781 771 770
f 770 771 781
f 780 771 788
f 788 771 780
f 772 780 789
f 789 780 772
f 772 782 773
f 773 782 772
f 755 790 781
f 781 790 755
f 755 782 791
f 791 782 755
f 784 673 792
f 792 673 784
f 793 775 784
f 784 775 793
f 775 793 785
f 785 793 775
f 785 794 776
f 776 794 785
f 786 776 794
f 794 776 786
f 777 786 794
f 794 786 777
f 778 777 795
f 795 777 778
f 778 792 787
f 787 792 778
f 792 673 787
f 787 673 792
f 771 781 788
f 788 781 771
f 780 788 796
f 796 788 780
f 796 789 780
f 780 789 796
f 782 772 789
f 789 772 782
f 790 755 797
f 797 755 790
f 790 788 781
f 781 788 790
f 789 791 782
f 782 791 789
f 755 791 797
f 797 791 755
f 795 784 792
f 792 784 795
f 784 795 793
f 793 795 784
f 793 798 785
f 785 798 793
f 794 785 798
f 798 785 794
f 777 794 799
f 799 794 777
f 799 795 777
f 777 795 799
f 792 778 795
f 795 778 792
f 796 788 800
f 800 788 796
f 789 796 801
f 801 796 789
f 791 790 797
f 797 790 791
f 788 790 800
f 800 790 788
f 791 789 801
f 801 789 791
f 795 799 793
f 793 799 795
f 798 793 799
f 799 793 798
f 799 794 798
f 798 794 799
f 800 801 796
f 796 801 800
f 790 791 801
f 801 791 790
f 801 800 790
f 790 800 801

