# https://github.com/mikedh/trimesh
v -0.50000000 0.44444440 0.38454897
v 0.50000000 0.44444440 0.49566017
v 0.50000000 0.44444440 0.38454897
v -0.50000000 0.44444440 0.49566017
v 0.50000000 -0.44444440 0.38454897
v -0.50000000 -0.44444440 0.49566017
v 0.50000000 -0.44444440 0.49566017
v -0.50000000 -0.44444440 0.38454897
v -0.42451308 -0.39194621 0.39322862
v -0.20229067 -0.39194621 -0.49566017
v -0.20229067 -0.39194621 0.39322862
v -0.42451308 -0.39194621 -0.49566017
v -0.20229067 -0.16972380 0.39322862
v -0.42451308 -0.16972380 -0.49566017
v -0.20229067 -0.16972380 -0.49566017
v -0.42451308 -0.16972380 0.39322862
v -0.42451308 0.18583155 0.39322862
v -0.20229067 0.18583155 -0.49566017
v -0.20229067 0.18583155 0.39322862
v -0.42451308 0.18583155 -0.49566017
v -0.20229067 0.40805396 0.39322862
v -0.42451308 0.40805396 -0.49566017
v -0.20229067 0.40805396 -0.49566017
v -0.42451308 0.40805396 0.39322862
v 0.21048492 0.18583155 0.39322862
v 0.43270733 0.18583155 -0.49566017
v 0.43270733 0.18583155 0.39322862
v 0.21048492 0.18583155 -0.49566017
v 0.43270733 0.40805396 0.39322862
v 0.21048492 0.40805396 -0.49566017
v 0.43270733 0.40805396 -0.49566017
v 0.21048492 0.40805396 0.39322862
v 0.21048492 -0.39194621 0.39322862
v 0.43270733 -0.39194621 -0.49566017
v 0.43270733 -0.39194621 0.39322862
v 0.21048492 -0.39194621 -0.49566017
v 0.43270733 -0.16972380 0.39322862
v 0.21048492 -0.16972380 -0.49566017
v 0.43270733 -0.16972380 -0.49566017
v 0.21048492 -0.16972380 0.39322862
f 1 2 3
f 2 1 4
f 2 5 3
f 5 1 3
f 1 6 4
f 6 2 4
f 5 2 7
f 1 5 8
f 6 1 8
f 2 6 7
f 6 5 7
f 5 6 8
f 3 2 1
f 4 1 2
f 3 5 2
f 3 1 5
f 4 6 1
f 4 2 6
f 7 2 5
f 8 5 1
f 8 1 6
f 7 6 2
f 7 5 6
f 8 6 5
f 9 10 11
f 10 9 12
f 10 13 11
f 13 9 11
f 9 14 12
f 14 10 12
f 13 10 15
f 9 13 16
f 14 9 16
f 10 14 15
f 14 13 15
f 13 14 16
f 11 10 9
f 12 9 10
f 11 13 10
f 11 9 13
f 12 14 9
f 12 10 14
f 15 10 13
f 16 13 9
f 16 9 14
f 15 14 10
f 15 13 14
f 16 14 13
f 17 18 19
f 18 17 20
f 18 21 19
f 21 17 19
f 17 22 20
f 22 18 20
f 21 18 23
f 17 21 24
f 22 17 24
f 18 22 23
f 22 21 23
f 21 22 24
f 19 18 17
f 20 17 18
f 19 21 18
f 19 17 21
f 20 22 17
f 20 18 22
f 23 18 21
f 24 21 17
f 24 17 22
f 23 22 18
f 23 21 22
f 24 22 21
f 25 26 27
f 26 25 28
f 26 29 27
f 29 25 27
f 25 30 28
f 30 26 28
f 29 26 31
f 25 29 32
f 30 25 32
f 26 30 31
f 30 29 31
f 29 30 32
f 27 26 25
f 28 25 26
f 27 29 26
f 27 25 29
f 28 30 25
f 28 26 30
f 31 26 29
f 32 29 25
f 32 25 30
f 31 30 26
f 31 29 30
f 32 30 29
f 33 34 35
f 34 33 36
f 34 37 35
f 37 33 35
f 33 38 36
f 38 34 36
f 37 34 39
f 33 37 40
f 38 33 40
f 34 38 39
f 38 37 39
f 37 38 40
f 35 34 33
f 36 33 34
f 35 37 34
f 35 33 37
f 36 38 33
f 36 34 38
f 39 34 37
f 40 37 33
f 40 33 38
f 39 38 34
f 39 37 38
f 40 38 37

