# https://github.com/mikedh/trimesh

o 6.obj
v -0.14259317 0.08620739 -0.10869621
v -0.14358807 0.08429277 -0.10820401
v -0.14378594 0.08134263 -0.10802714
v -0.14371022 0.07785247 -0.10800558
v -0.14242045 0.07431921 -0.10833252
v -0.13947251 0.08669075 -0.10908698
v -0.14097619 0.08604351 -0.10430374
v -0.14192908 0.08425601 -0.10555593
v -0.13916796 0.08664902 -0.10550093
v -0.13593344 0.08669710 -0.10539591
v -0.14071088 0.08598603 -0.10071216
v -0.14133352 0.08421373 -0.10179687
v -0.13889934 0.08659706 -0.10190687
v -0.14053539 0.08569723 -0.09758072
v -0.14130754 0.08418914 -0.09832551
v -0.13889796 0.08634060 -0.09878123
v -0.13592543 0.08668025 -0.10191405
v -0.13592211 0.08642406 -0.09878261
v -0.13235347 0.08669710 -0.10539564
v -0.12877461 0.08669710 -0.10539564
v -0.13235016 0.08668025 -0.10191267
v -0.13234684 0.08642489 -0.09878400
v -0.12877129 0.08668025 -0.10191267
v -0.12876742 0.08642544 -0.09878538
v -0.14202000 0.08132521 -0.10554432
v -0.14185667 0.07817388 -0.10558080
v -0.13831926 0.07314219 -0.10807025
v -0.14124702 0.07591463 -0.10553575
v -0.13918648 0.07468013 -0.10548214
v -0.13473376 0.07312174 -0.10812718
v -0.13592709 0.07464227 -0.10554902
v -0.14136503 0.08131692 -0.10179162
v -0.14123320 0.07821036 -0.10182092
v -0.14136641 0.08131775 -0.09825200
v -0.14133490 0.07820179 -0.09851565
v -0.14068159 0.07595443 -0.10183722
v -0.13877387 0.07513419 -0.10184800
v -0.14061554 0.07632282 -0.09874475
v -0.13879902 0.07541774 -0.09875304
v -0.13592405 0.07497915 -0.10185325
v -0.13592156 0.07524197 -0.09874613
v -0.13115573 0.07312340 -0.10817168
v -0.13235126 0.07464421 -0.10559185
v -0.12757797 0.07312340 -0.10817168
v -0.12877599 0.07459805 -0.10559351
v -0.13235126 0.07497915 -0.10185104
v -0.13234739 0.07524170 -0.09874641
v -0.12877378 0.07493300 -0.10185242
v -0.12877129 0.07524170 -0.09874365
v -0.14036985 0.08550903 -0.09602564
v -0.13874762 0.08570635 -0.09640177
v -0.13873933 0.08474738 -0.09485001
v -0.14072359 0.08392051 -0.09539471
v -0.13592460 0.08578898 -0.09637800
v -0.13592460 0.08481730 -0.09480220
v -0.13234463 0.08581386 -0.09639762
v -0.13234435 0.08484217 -0.09482154
v -0.12876438 0.08585310 -0.09642830
v -0.12876576 0.08482836 -0.09481159
v -0.14130340 0.08143382 -0.09548951
v -0.14128488 0.07866773 -0.09592311
v -0.14036377 0.08263820 -0.09374236
v -0.13886037 0.08318125 -0.09388468
v -0.13887668 0.08117266 -0.09346517
v -0.14065423 0.08141199 -0.09391950
v -0.13889022 0.07891674 -0.09377773
v -0.14067965 0.07876418 -0.09420885
v -0.13592570 0.08320889 -0.09382471
v -0.13591990 0.08118952 -0.09340050
v -0.13591990 0.07894658 -0.09373572
v -0.14068048 0.07666910 -0.09609473
v -0.13889713 0.07590358 -0.09638546
v -0.13975633 0.07717760 -0.09476406
v -0.14084823 0.07733291 -0.09475328
v -0.13592432 0.07585328 -0.09640813
v -0.13711792 0.07712343 -0.09470354
v -0.13234712 0.08317241 -0.09379873
v -0.13234518 0.08118151 -0.09339608
v -0.13234822 0.07891591 -0.09369869
v -0.12876797 0.08319645 -0.09381808
v -0.12876604 0.08118178 -0.09339635
v -0.12876770 0.07888744 -0.09366249
v -0.13234850 0.07582537 -0.09637109
v -0.13353933 0.07712122 -0.09470243
v -0.12876797 0.07579718 -0.09633461
v -0.12996047 0.07712122 -0.09470243
v -0.12519547 0.08669710 -0.10539564
v -0.12161660 0.08669710 -0.10539564
v -0.12519243 0.08668025 -0.10191267
v -0.12518856 0.08642517 -0.09878482
v -0.12161356 0.08668025 -0.10191267
v -0.12160969 0.08642489 -0.09878455
v -0.11803774 0.08669710 -0.10539564
v -0.11445887 0.08669710 -0.10539564
v -0.11803442 0.08668025 -0.10191267
v -0.11803083 0.08642489 -0.09878455
v -0.11445555 0.08668025 -0.10191267
v -0.11445196 0.08642489 -0.09878455
v -0.12399827 0.07317038 -0.10817333
v -0.12519270 0.07459778 -0.10560097
v -0.12041886 0.07322012 -0.10817416
v -0.12161301 0.07459778 -0.10560429
v -0.12519381 0.07493300 -0.10185215
v -0.12519408 0.07519582 -0.09874475
v -0.12161356 0.07493300 -0.10185657
v -0.12161301 0.07514967 -0.09874834
v -0.11684027 0.07322233 -0.10817361
v -0.11803331 0.07464393 -0.10560678
v -0.11326527 0.07322206 -0.10817306
v -0.11445583 0.07464393 -0.10560622
v -0.11803138 0.07497888 -0.10186044
v -0.11803138 0.07514967 -0.09875083
v -0.11445473 0.07497888 -0.10186099
v -0.11445390 0.07514995 -0.09875138
v -0.12518469 0.08584481 -0.09642167
v -0.12518552 0.08485986 -0.09483647
v -0.12160582 0.08583652 -0.09641448
v -0.12160610 0.08485931 -0.09483564
v -0.11802696 0.08583652 -0.09641421
v -0.11802723 0.08485074 -0.09482790
v -0.11444809 0.08583652 -0.09641421
v -0.11444837 0.08485074 -0.09482818
v -0.12518717 0.08323652 -0.09384903
v -0.12518717 0.08118261 -0.09339663
v -0.12518717 0.07888744 -0.09366249
v -0.12160803 0.08322768 -0.09384129
v -0.12160886 0.08118289 -0.09339663
v -0.12160859 0.07888799 -0.09366249
v -0.12518828 0.07579690 -0.09633323
v -0.12638160 0.07709331 -0.09466595
v -0.12160886 0.07579690 -0.09633047
v -0.12280108 0.07709303 -0.09466595
v -0.11802917 0.08321911 -0.09383383
v -0.11802972 0.08118399 -0.09339635
v -0.11802723 0.07893304 -0.09362850
v -0.11445030 0.08321939 -0.09383411
v -0.11445003 0.08118427 -0.09339635
v -0.11444782 0.07896206 -0.09360611
v -0.11802779 0.07584140 -0.09629510
v -0.11922028 0.07713780 -0.09463168
v -0.11444754 0.07587042 -0.09627243
v -0.11564197 0.07712426 -0.09464191
v -0.11087973 0.08669710 -0.10539564
v -0.10730086 0.08669710 -0.10539564
v -0.11087669 0.08668025 -0.10191267
v -0.11087310 0.08642489 -0.09878455
v -0.10729782 0.08668025 -0.10191267
v -0.10729396 0.08642489 -0.09878455
v -0.10372504 0.08669710 -0.10539536
v -0.10038357 0.08666947 -0.10539177
v -0.10372117 0.08668025 -0.10191212
v -0.10371592 0.08642406 -0.09878234
v -0.10035510 0.08662663 -0.10191488
v -0.10034792 0.08636022 -0.09879533
v -0.10968751 0.07322261 -0.10812552
v -0.11087835 0.07464476 -0.10560567
v -0.10611086 0.07322427 -0.10807882
v -0.10729948 0.07464752 -0.10560346
v -0.11087586 0.07497888 -0.10186099
v -0.11087503 0.07514967 -0.09875221
v -0.10729700 0.07497888 -0.10186099
v -0.10729589 0.07514967 -0.09875304
v -0.10253033 0.07322123 -0.10803350
v -0.10372366 0.07464946 -0.10560042
v -0.09905538 0.07325798 -0.10805975
v -0.10037887 0.07472518 -0.10554957
v -0.10372034 0.07497888 -0.10186044
v -0.10371868 0.07514967 -0.09875249
v -0.10034930 0.07508307 -0.10186071
v -0.10032498 0.07522677 -0.09877101
v -0.11086923 0.08583652 -0.09641421
v -0.11086950 0.08485074 -0.09482818
v -0.10729036 0.08583652 -0.09641421
v -0.10729064 0.08485074 -0.09482818
v -0.10371260 0.08583541 -0.09641200
v -0.10371343 0.08485599 -0.09483094
v -0.10035455 0.08577931 -0.09644461
v -0.10038384 0.08483167 -0.09485747
v -0.11087116 0.08321939 -0.09383411
v -0.11087116 0.08118317 -0.09339635
v -0.11086978 0.07893166 -0.09362960
v -0.10729230 0.08321939 -0.09383411
v -0.10729257 0.08118234 -0.09339635
v -0.10729202 0.07892972 -0.09368874
v -0.11087033 0.07583974 -0.09629592
v -0.11206200 0.07715300 -0.09461980
v -0.10729257 0.07583863 -0.09635534
v -0.10848424 0.07715162 -0.09467894
v -0.10371481 0.08322464 -0.09383687
v -0.10371537 0.08118206 -0.09339635
v -0.10371675 0.07891591 -0.09369869
v -0.10038025 0.08322547 -0.09387777
v -0.10032802 0.08119477 -0.09347318
v -0.10038578 0.07889877 -0.09370118
v -0.10371703 0.07582537 -0.09636584
v -0.10490841 0.07710713 -0.09465517
v -0.10038302 0.07583504 -0.09634512
v -0.10148099 0.07712260 -0.09470437
v -0.09684643 0.08427287 -0.10555178
v -0.09800687 0.08606756 -0.10549375
v -0.09710013 0.08426652 -0.10180378
v -0.09812101 0.08602831 -0.10186237
v -0.09710013 0.08420876 -0.09831778
v -0.09816688 0.08589179 -0.09854854
v -0.09678204 0.08131388 -0.10550729
v -0.09686467 0.07809788 -0.10550176
v -0.09789467 0.07564242 -0.10675367
v -0.09701114 0.08131167 -0.10179964
v -0.09706890 0.07808821 -0.10183087
v -0.09701087 0.08131112 -0.09823874
v -0.09704458 0.07819239 -0.09850819
v -0.09811603 0.07598676 -0.10301369
v -0.09811327 0.07606801 -0.09969958
v -0.09790462 0.08425021 -0.09566140
v -0.09864112 0.08592938 -0.09697494
v -0.09707858 0.08142719 -0.09547209
v -0.09712335 0.07865557 -0.09590847
v -0.09817186 0.08223803 -0.09395792
v -0.09864692 0.08360242 -0.09414363
v -0.09815058 0.07945840 -0.09393360
v -0.09814698 0.07634576 -0.09671903
v -0.09861293 0.07729616 -0.09473366
f 1 8 7
f 1 2 8
f 1 9 6
f 1 7 9
f 6 9 10
f 7 12 11
f 7 8 12
f 7 13 9
f 7 11 13
f 11 15 14
f 11 12 15
f 11 16 13
f 11 14 16
f 9 17 10
f 9 13 17
f 13 18 17
f 13 16 18
f 10 21 19
f 10 17 21
f 17 22 21
f 17 18 22
f 19 23 20
f 19 21 23
f 21 24 23
f 21 22 24
f 2 25 8
f 2 3 25
f 3 26 25
f 3 4 26
f 5 29 28
f 5 27 29
f 4 28 26
f 4 5 28
f 27 31 29
f 27 30 31
f 8 32 12
f 8 25 32
f 25 33 32
f 25 26 33
f 12 34 15
f 12 32 34
f 32 35 34
f 32 33 35
f 28 37 36
f 28 29 37
f 26 36 33
f 26 28 36
f 36 39 38
f 36 37 39
f 33 38 35
f 33 36 38
f 29 40 37
f 29 31 40
f 37 41 39
f 37 40 41
f 30 43 31
f 30 42 43
f 42 45 43
f 42 44 45
f 31 46 40
f 31 43 46
f 40 47 41
f 40 46 47
f 43 48 46
f 43 45 48
f 46 49 47
f 46 48 49
f 50 52 51
f 50 53 52
f 14 53 50
f 14 15 53
f 14 51 16
f 14 50 51
f 51 55 54
f 51 52 55
f 16 54 18
f 16 51 54
f 54 57 56
f 54 55 57
f 18 56 22
f 18 54 56
f 56 59 58
f 56 57 59
f 22 58 24
f 22 56 58
f 15 60 53
f 15 34 60
f 34 61 60
f 34 35 61
f 62 64 63
f 62 65 64
f 53 65 62
f 53 60 65
f 53 63 52
f 53 62 63
f 65 66 64
f 65 67 66
f 60 67 65
f 60 61 67
f 63 69 68
f 63 64 69
f 52 68 55
f 52 63 68
f 64 70 69
f 64 66 70
f 38 72 71
f 38 39 72
f 35 71 61
f 35 38 71
f 67 73 66
f 67 74 73
f 71 73 74
f 71 72 73
f 61 74 67
f 61 71 74
f 39 75 72
f 39 41 75
f 66 76 70
f 66 73 76
f 72 76 73
f 72 75 76
f 68 78 77
f 68 69 78
f 55 77 57
f 55 68 77
f 69 79 78
f 69 70 79
f 77 81 80
f 77 78 81
f 57 80 59
f 57 77 80
f 78 82 81
f 78 79 82
f 41 83 75
f 41 47 83
f 70 84 79
f 70 76 84
f 75 84 76
f 75 83 84
f 47 85 83
f 47 49 85
f 79 86 82
f 79 84 86
f 83 86 84
f 83 85 86
f 20 89 87
f 20 23 89
f 23 90 89
f 23 24 90
f 87 91 88
f 87 89 91
f 89 92 91
f 89 90 92
f 88 95 93
f 88 91 95
f 91 96 95
f 91 92 96
f 93 97 94
f 93 95 97
f 95 98 97
f 95 96 98
f 44 100 45
f 44 99 100
f 99 102 100
f 99 101 102
f 45 103 48
f 45 100 103
f 48 104 49
f 48 103 104
f 100 105 103
f 100 102 105
f 103 106 104
f 103 105 106
f 101 108 102
f 101 107 108
f 107 110 108
f 107 109 110
f 102 111 105
f 102 108 111
f 105 112 106
f 105 111 112
f 108 113 111
f 108 110 113
f 111 114 112
f 111 113 114
f 58 116 115
f 58 59 116
f 24 115 90
f 24 58 115
f 115 118 117
f 115 116 118
f 90 117 92
f 90 115 117
f 117 120 119
f 117 118 120
f 92 119 96
f 92 117 119
f 119 122 121
f 119 120 122
f 96 121 98
f 96 119 121
f 80 124 123
f 80 81 124
f 59 123 116
f 59 80 123
f 81 125 124
f 81 82 125
f 123 127 126
f 123 124 127
f 116 126 118
f 116 123 126
f 124 128 127
f 124 125 128
f 49 129 85
f 49 104 129
f 82 130 125
f 82 86 130
f 85 130 86
f 85 129 130
f 104 131 129
f 104 106 131
f 125 132 128
f 125 130 132
f 129 132 130
f 129 131 132
f 126 134 133
f 126 127 134
f 118 133 120
f 118 126 133
f 127 135 134
f 127 128 135
f 133 137 136
f 133 134 137
f 120 136 122
f 120 133 136
f 134 138 137
f 134 135 138
f 106 139 131
f 106 112 139
f 128 140 135
f 128 132 140
f 131 140 132
f 131 139 140
f 112 141 139
f 112 114 141
f 135 142 138
f 135 140 142
f 139 142 140
f 139 141 142
f 94 145 143
f 94 97 145
f 97 146 145
f 97 98 146
f 143 147 144
f 143 145 147
f 145 148 147
f 145 146 148
f 144 151 149
f 144 147 151
f 147 152 151
f 147 148 152
f 149 153 150
f 149 151 153
f 151 154 153
f 151 152 154
f 109 156 110
f 109 155 156
f 155 158 156
f 155 157 158
f 110 159 113
f 110 156 159
f 113 160 114
f 113 159 160
f 156 161 159
f 156 158 161
f 159 162 160
f 159 161 162
f 157 164 158
f 157 163 164
f 163 166 164
f 163 165 166
f 158 167 161
f 158 164 167
f 161 168 162
f 161 167 168
f 164 169 167
f 164 166 169
f 167 170 168
f 167 169 170
f 121 172 171
f 121 122 172
f 98 171 146
f 98 121 171
f 171 174 173
f 171 172 174
f 146 173 148
f 146 171 173
f 173 176 175
f 173 174 176
f 148 175 152
f 148 173 175
f 175 178 177
f 175 176 178
f 152 177 154
f 152 175 177
f 136 180 179
f 136 137 180
f 122 179 172
f 122 136 179
f 137 181 180
f 137 138 181
f 179 183 182
f 179 180 183
f 172 182 174
f 172 179 182
f 180 184 183
f 180 181 184
f 114 185 141
f 114 160 185
f 138 186 181
f 138 142 186
f 141 186 142
f 141 185 186
f 160 187 185
f 160 162 187
f 181 188 184
f 181 186 188
f 185 188 186
f 185 187 188
f 182 190 189
f 182 183 190
f 174 189 176
f 174 182 189
f 183 191 190
f 183 184 191
f 189 193 192
f 189 190 193
f 176 192 178
f 176 189 192
f 190 194 193
f 190 191 194
f 162 195 187
f 162 168 195
f 184 196 191
f 184 188 196
f 187 196 188
f 187 195 196
f 168 197 195
f 168 170 197
f 191 198 194
f 191 196 198
f 195 198 196
f 195 197 198
f 200 201 199
f 200 202 201
f 150 202 200
f 150 153 202
f 202 203 201
f 202 204 203
f 153 204 202
f 153 154 204
f 165 207 166
f 199 208 205
f 199 201 208
f 205 209 206
f 205 208 209
f 201 210 208
f 201 203 210
f 208 211 209
f 208 210 211
f 206 212 207
f 206 209 212
f 166 212 169
f 166 207 212
f 209 213 212
f 209 211 213
f 169 213 170
f 169 212 213
f 204 214 203
f 204 215 214
f 177 214 215
f 177 178 214
f 154 215 204
f 154 177 215
f 203 216 210
f 203 214 216
f 210 217 211
f 210 216 217
f 214 218 216
f 214 219 218
f 192 218 219
f 192 193 218
f 178 219 214
f 178 192 219
f 216 220 217
f 216 218 220
f 193 220 218
f 193 194 220
f 211 221 213
f 211 217 221
f 170 221 197
f 170 213 221
f 217 222 221
f 217 220 222
f 194 222 220
f 194 198 222
f 197 222 198
f 197 221 222

