# https://github.com/mikedh/trimesh

o 5.obj
v 0.09680719 0.08622259 -0.10863872
v 0.09574182 0.08428061 -0.10794202
v 0.10040789 0.08669102 -0.10889988
v 0.09828821 0.08607585 -0.10412023
v 0.09713026 0.08427481 -0.10537684
v 0.10052589 0.08667748 -0.10532102
v 0.09827660 0.08604766 -0.10071824
v 0.09723334 0.08427066 -0.10180544
v 0.10051650 0.08665344 -0.10190880
v 0.09828323 0.08575941 -0.09760283
v 0.09723776 0.08423059 -0.09834375
v 0.10051843 0.08639753 -0.09878178
v 0.09557214 0.08131554 -0.10808379
v 0.09565007 0.07784916 -0.10811281
v 0.09691552 0.08131167 -0.10555454
v 0.09700313 0.07804952 -0.10559241
v 0.09720570 0.07432252 -0.10837314
v 0.10146054 0.07314246 -0.10797767
v 0.09803064 0.07579690 -0.10553796
v 0.10038329 0.07467820 -0.10548849
v 0.09714380 0.08131499 -0.10180074
v 0.09720294 0.07808627 -0.10182893
v 0.09714324 0.08131195 -0.09823901
v 0.09717834 0.07819074 -0.09851040
v 0.09824537 0.07594918 -0.10185104
v 0.10050821 0.07501204 -0.10184994
v 0.09824233 0.07619818 -0.09873757
v 0.10048361 0.07529835 -0.09874752
v 0.09878648 0.08552313 -0.09605577
v 0.10051898 0.08576964 -0.09639901
v 0.10047587 0.08477391 -0.09487101
v 0.09804142 0.08397523 -0.09539112
v 0.09718746 0.08142139 -0.09550111
v 0.09720985 0.07867437 -0.09593472
v 0.09874696 0.08261830 -0.09377027
v 0.10047670 0.08316660 -0.09390292
v 0.10049107 0.08117570 -0.09346240
v 0.09825615 0.08140038 -0.09393857
v 0.10046841 0.07892060 -0.09377303
v 0.09823625 0.07876612 -0.09421300
v 0.09823155 0.07667518 -0.09610302
v 0.10046012 0.07590026 -0.09638850
v 0.09937209 0.07718838 -0.09478009
v 0.09798089 0.07732849 -0.09474803
v 0.10385548 0.08669710 -0.10897423
v 0.10385410 0.08669710 -0.10539508
v 0.10743462 0.08669710 -0.10897423
v 0.10743462 0.08669710 -0.10539564
v 0.10385548 0.08668025 -0.10191212
v 0.10385990 0.08642378 -0.09878206
v 0.10743794 0.08668025 -0.10191267
v 0.10744126 0.08642461 -0.09878400
v 0.11101376 0.08669710 -0.10897423
v 0.11101376 0.08669710 -0.10539564
v 0.11459263 0.08669710 -0.10897423
v 0.11459263 0.08669710 -0.10539564
v 0.11101680 0.08668025 -0.10191267
v 0.11102067 0.08642544 -0.09878538
v 0.11459595 0.08668025 -0.10191267
v 0.11459954 0.08642517 -0.09878482
v 0.10505074 0.07312118 -0.10798955
v 0.10385686 0.07464089 -0.10550259
v 0.10743518 0.07464089 -0.10550176
v 0.10385714 0.07497943 -0.10185104
v 0.10385714 0.07524170 -0.09874558
v 0.10743656 0.07497943 -0.10185021
v 0.10744070 0.07524170 -0.09874641
v 0.11101155 0.07459474 -0.10550342
v 0.11459512 0.07459474 -0.10551060
v 0.11101432 0.07493328 -0.10185132
v 0.11101708 0.07524170 -0.09874365
v 0.11459429 0.07493328 -0.10185104
v 0.11459401 0.07519582 -0.09874475
v 0.10386211 0.08577821 -0.09636888
v 0.10386239 0.08480570 -0.09479280
v 0.10744319 0.08580833 -0.09639348
v 0.10744347 0.08483692 -0.09481712
v 0.11102371 0.08585310 -0.09642830
v 0.11102206 0.08482283 -0.09480745
v 0.11460341 0.08584481 -0.09642194
v 0.11460258 0.08486677 -0.09484033
v 0.10385990 0.08319894 -0.09381697
v 0.10386211 0.08118952 -0.09340050
v 0.10386073 0.07891535 -0.09369897
v 0.10744043 0.08316163 -0.09379072
v 0.10744291 0.08118123 -0.09339608
v 0.10744153 0.07888772 -0.09366249
v 0.10385576 0.07582537 -0.09636971
v 0.10266216 0.07709331 -0.09466512
v 0.10744126 0.07579718 -0.09633461
v 0.10625042 0.07712095 -0.09470271
v 0.11101984 0.08319120 -0.09381393
v 0.11102206 0.08118178 -0.09339608
v 0.11102206 0.07888744 -0.09366249
v 0.11460092 0.08324343 -0.09385262
v 0.11460120 0.08118261 -0.09339663
v 0.11460092 0.07888744 -0.09366249
v 0.11102178 0.07579690 -0.09633489
v 0.10982763 0.07709331 -0.09466595
v 0.11459981 0.07579690 -0.09633323
v 0.11340815 0.07709303 -0.09466595
v 0.11817149 0.08669710 -0.10897423
v 0.11817149 0.08669710 -0.10539564
v 0.12175036 0.08669710 -0.10897423
v 0.12175036 0.08669710 -0.10539564
v 0.11817481 0.08668025 -0.10191267
v 0.11817840 0.08642489 -0.09878455
v 0.12175368 0.08668025 -0.10191267
v 0.12175727 0.08642489 -0.09878455
v 0.12532950 0.08669710 -0.10897423
v 0.12532950 0.08669710 -0.10539564
v 0.12890837 0.08669710 -0.10897423
v 0.12890837 0.08669710 -0.10539564
v 0.12533254 0.08668025 -0.10191267
v 0.12533613 0.08642489 -0.09878455
v 0.12891141 0.08668025 -0.10191267
v 0.12891527 0.08642489 -0.09878455
v 0.11817453 0.07459474 -0.10551420
v 0.12175423 0.07464061 -0.10551641
v 0.11817453 0.07493300 -0.10185546
v 0.11817509 0.07514967 -0.09874862
v 0.12175699 0.07497915 -0.10185933
v 0.12175672 0.07514967 -0.09875083
v 0.12533171 0.07464061 -0.10551585
v 0.12891058 0.07464061 -0.10551585
v 0.12533337 0.07497915 -0.10185961
v 0.12533420 0.07514967 -0.09875166
v 0.12891223 0.07497915 -0.10185961
v 0.12891334 0.07514967 -0.09875249
v 0.11818227 0.08583652 -0.09641448
v 0.11818200 0.08487285 -0.09484310
v 0.12176114 0.08583652 -0.09641421
v 0.12176086 0.08486428 -0.09483536
v 0.12534000 0.08583652 -0.09641421
v 0.12533973 0.08486456 -0.09483564
v 0.12891914 0.08583652 -0.09641421
v 0.12891859 0.08486456 -0.09483564
v 0.11818006 0.08323486 -0.09384489
v 0.11817951 0.08118980 -0.09340022
v 0.11817951 0.07888799 -0.09366249
v 0.12175893 0.08323321 -0.09384129
v 0.12175865 0.08119754 -0.09340354
v 0.12176058 0.07892751 -0.09363292
v 0.11817923 0.07579690 -0.09633047
v 0.11698701 0.07709303 -0.09466595
v 0.12176003 0.07583587 -0.09629924
v 0.12056754 0.07713228 -0.09463583
v 0.12533807 0.08323321 -0.09384129
v 0.12533807 0.08119781 -0.09340381
v 0.12534000 0.07895100 -0.09361468
v 0.12891693 0.08323321 -0.09384129
v 0.12891693 0.08119671 -0.09340381
v 0.12891804 0.07892033 -0.09363844
v 0.12534028 0.07585936 -0.09628128
v 0.12414585 0.07711846 -0.09464661
v 0.12891749 0.07582841 -0.09630477
v 0.12772582 0.07714140 -0.09462864
v 0.13248723 0.08669710 -0.10897423
v 0.13248723 0.08669710 -0.10539564
v 0.13606002 0.08669655 -0.10897671
v 0.13605255 0.08669628 -0.10539536
v 0.13249055 0.08668025 -0.10191267
v 0.13249414 0.08642489 -0.09878455
v 0.13605698 0.08667997 -0.10191101
v 0.13606444 0.08642268 -0.09877874
v 0.13929177 0.08662580 -0.10904636
v 0.13898004 0.08666532 -0.10539149
v 0.14290242 0.08600537 -0.10924727
v 0.14205289 0.08422506 -0.10551945
v 0.14110221 0.08601753 -0.10546445
v 0.13900215 0.08662111 -0.10191460
v 0.13901016 0.08635525 -0.09879367
v 0.14141394 0.08426237 -0.10179853
v 0.14080982 0.08601781 -0.10186403
v 0.14143992 0.08419079 -0.09835011
v 0.14078660 0.08587383 -0.09857341
v 0.13248751 0.07464089 -0.10551475
v 0.13605780 0.07459529 -0.10551198
v 0.13249110 0.07497915 -0.10185961
v 0.13249248 0.07514967 -0.09875304
v 0.13605919 0.07497943 -0.10185546
v 0.13606250 0.07514995 -0.09875083
v 0.14215017 0.08131941 -0.10553990
v 0.14199430 0.07816946 -0.10573169
v 0.14149740 0.08131444 -0.10179162
v 0.14136890 0.07820566 -0.10201962
v 0.14149878 0.08131388 -0.09825532
v 0.14147198 0.07820594 -0.09852090
v 0.13893140 0.07515077 -0.10205693
v 0.13903641 0.07523368 -0.09877184
v 0.14081313 0.07590164 -0.10300181
v 0.14074626 0.07618381 -0.09989856
v 0.13249801 0.08583652 -0.09641421
v 0.13249746 0.08486456 -0.09483564
v 0.13607245 0.08583403 -0.09640951
v 0.13607162 0.08486097 -0.09483370
v 0.13902757 0.08576632 -0.09646810
v 0.13900463 0.08481620 -0.09487985
v 0.14091539 0.08424717 -0.09565090
v 0.14053788 0.08590340 -0.09700728
v 0.13249580 0.08323321 -0.09384129
v 0.13249552 0.08119615 -0.09340381
v 0.13249607 0.07892420 -0.09369289
v 0.13606554 0.08322934 -0.09384019
v 0.13606250 0.08119422 -0.09340409
v 0.13606140 0.07891535 -0.09369924
v 0.13249552 0.07583283 -0.09636004
v 0.13130386 0.07714554 -0.09468364
v 0.13606250 0.07582565 -0.09636529
v 0.13487471 0.07710132 -0.09465987
v 0.13896346 0.08323431 -0.09386285
v 0.13900878 0.08120168 -0.09345826
v 0.13895931 0.07891314 -0.09372246
v 0.14143826 0.08141918 -0.09548619
v 0.14138327 0.07867741 -0.09593887
v 0.14079020 0.08222366 -0.09399025
v 0.14050444 0.08358474 -0.09414805
v 0.14074487 0.07947885 -0.09394244
v 0.13896511 0.07585328 -0.09636474
v 0.13807606 0.07713642 -0.09472233
v 0.14077527 0.07636952 -0.09674584
v 0.14052793 0.07730251 -0.09474195
f 1 5 4
f 1 2 5
f 1 6 3
f 1 4 6
f 4 8 7
f 4 5 8
f 4 9 6
f 4 7 9
f 7 11 10
f 7 8 11
f 7 12 9
f 7 10 12
f 2 15 5
f 2 13 15
f 13 16 15
f 13 14 16
f 17 20 19
f 17 18 20
f 14 19 16
f 14 17 19
f 5 21 8
f 5 15 21
f 15 22 21
f 15 16 22
f 8 23 11
f 8 21 23
f 21 24 23
f 21 22 24
f 19 26 25
f 19 20 26
f 16 25 22
f 16 19 25
f 25 28 27
f 25 26 28
f 22 27 24
f 22 25 27
f 29 31 30
f 29 32 31
f 10 32 29
f 10 11 32
f 10 30 12
f 10 29 30
f 11 33 32
f 11 23 33
f 23 34 33
f 23 24 34
f 35 37 36
f 35 38 37
f 32 38 35
f 32 33 38
f 32 36 31
f 32 35 36
f 38 39 37
f 38 40 39
f 33 40 38
f 33 34 40
f 27 42 41
f 27 28 42
f 24 41 34
f 24 27 41
f 40 43 39
f 40 44 43
f 41 43 44
f 41 42 43
f 34 44 40
f 34 41 44
f 3 46 45
f 3 6 46
f 45 48 47
f 45 46 48
f 6 49 46
f 6 9 49
f 9 50 49
f 9 12 50
f 46 51 48
f 46 49 51
f 49 52 51
f 49 50 52
f 47 54 53
f 47 48 54
f 53 56 55
f 53 54 56
f 48 57 54
f 48 51 57
f 51 58 57
f 51 52 58
f 54 59 56
f 54 57 59
f 57 60 59
f 57 58 60
f 18 62 20
f 18 61 62
f 61 63 62
f 20 64 26
f 20 62 64
f 26 65 28
f 26 64 65
f 62 66 64
f 62 63 66
f 64 67 65
f 64 66 67
f 63 70 66
f 63 68 70
f 66 71 67
f 66 70 71
f 68 72 70
f 68 69 72
f 70 73 71
f 70 72 73
f 30 75 74
f 30 31 75
f 12 74 50
f 12 30 74
f 74 77 76
f 74 75 77
f 50 76 52
f 50 74 76
f 76 79 78
f 76 77 79
f 52 78 58
f 52 76 78
f 78 81 80
f 78 79 81
f 58 80 60
f 58 78 80
f 36 83 82
f 36 37 83
f 31 82 75
f 31 36 82
f 37 84 83
f 37 39 84
f 82 86 85
f 82 83 86
f 75 85 77
f 75 82 85
f 83 87 86
f 83 84 87
f 28 88 42
f 28 65 88
f 39 89 84
f 39 43 89
f 42 89 43
f 42 88 89
f 65 90 88
f 65 67 90
f 84 91 87
f 84 89 91
f 88 91 89
f 88 90 91
f 85 93 92
f 85 86 93
f 77 92 79
f 77 85 92
f 86 94 93
f 86 87 94
f 92 96 95
f 92 93 96
f 79 95 81
f 79 92 95
f 93 97 96
f 93 94 97
f 67 98 90
f 67 71 98
f 87 99 94
f 87 91 99
f 90 99 91
f 90 98 99
f 71 100 98
f 71 73 100
f 94 101 97
f 94 99 101
f 98 101 99
f 98 100 101
f 55 103 102
f 55 56 103
f 102 105 104
f 102 103 105
f 56 106 103
f 56 59 106
f 59 107 106
f 59 60 107
f 103 108 105
f 103 106 108
f 106 109 108
f 106 107 109
f 104 111 110
f 104 105 111
f 110 113 112
f 110 111 113
f 105 114 111
f 105 108 114
f 108 115 114
f 108 109 115
f 111 116 113
f 111 114 116
f 114 117 116
f 114 115 117
f 69 120 72
f 69 118 120
f 72 121 73
f 72 120 121
f 118 122 120
f 118 119 122
f 120 123 121
f 120 122 123
f 119 126 122
f 119 124 126
f 122 127 123
f 122 126 127
f 124 128 126
f 124 125 128
f 126 129 127
f 126 128 129
f 80 131 130
f 80 81 131
f 60 130 107
f 60 80 130
f 130 133 132
f 130 131 133
f 107 132 109
f 107 130 132
f 132 135 134
f 132 133 135
f 109 134 115
f 109 132 134
f 134 137 136
f 134 135 137
f 115 136 117
f 115 134 136
f 95 139 138
f 95 96 139
f 81 138 131
f 81 95 138
f 96 140 139
f 96 97 140
f 138 142 141
f 138 139 142
f 131 141 133
f 131 138 141
f 139 143 142
f 139 140 143
f 73 144 100
f 73 121 144
f 97 145 140
f 97 101 145
f 100 145 101
f 100 144 145
f 121 146 144
f 121 123 146
f 140 147 143
f 140 145 147
f 144 147 145
f 144 146 147
f 141 149 148
f 141 142 149
f 133 148 135
f 133 141 148
f 142 150 149
f 142 143 150
f 148 152 151
f 148 149 152
f 135 151 137
f 135 148 151
f 149 153 152
f 149 150 153
f 123 154 146
f 123 127 154
f 143 155 150
f 143 147 155
f 146 155 147
f 146 154 155
f 127 156 154
f 127 129 156
f 150 157 153
f 150 155 157
f 154 157 155
f 154 156 157
f 112 159 158
f 112 113 159
f 158 161 160
f 158 159 161
f 113 162 159
f 113 116 162
f 116 163 162
f 116 117 163
f 159 164 161
f 159 162 164
f 162 165 164
f 162 163 165
f 160 167 166
f 160 161 167
f 168 170 169
f 166 170 168
f 166 167 170
f 161 171 167
f 161 164 171
f 164 172 171
f 164 165 172
f 170 173 169
f 170 174 173
f 167 174 170
f 167 171 174
f 174 175 173
f 174 176 175
f 171 176 174
f 171 172 176
f 125 179 128
f 125 177 179
f 128 180 129
f 128 179 180
f 177 181 179
f 177 178 181
f 179 182 180
f 179 181 182
f 169 185 183
f 169 173 185
f 183 186 184
f 183 185 186
f 173 187 185
f 173 175 187
f 185 188 186
f 185 187 188
f 178 189 181
f 181 190 182
f 181 189 190
f 184 186 191
f 186 192 191
f 186 188 192
f 189 192 190
f 189 191 192
f 136 194 193
f 136 137 194
f 117 193 163
f 117 136 193
f 193 196 195
f 193 194 196
f 163 195 165
f 163 193 195
f 195 198 197
f 195 196 198
f 165 197 172
f 165 195 197
f 176 199 175
f 176 200 199
f 197 199 200
f 197 198 199
f 172 200 176
f 172 197 200
f 151 202 201
f 151 152 202
f 137 201 194
f 137 151 201
f 152 203 202
f 152 153 203
f 201 205 204
f 201 202 205
f 194 204 196
f 194 201 204
f 202 206 205
f 202 203 206
f 129 207 156
f 129 180 207
f 153 208 203
f 153 157 208
f 156 208 157
f 156 207 208
f 180 209 207
f 180 182 209
f 203 210 206
f 203 208 210
f 207 210 208
f 207 209 210
f 204 212 211
f 204 205 212
f 196 211 198
f 196 204 211
f 205 213 212
f 205 206 213
f 175 214 187
f 175 199 214
f 187 215 188
f 187 214 215
f 199 216 214
f 199 217 216
f 211 216 217
f 211 212 216
f 198 217 199
f 198 211 217
f 214 218 215
f 214 216 218
f 212 218 216
f 212 213 218
f 182 219 209
f 182 190 219
f 206 220 213
f 206 210 220
f 209 220 210
f 209 219 220
f 188 221 192
f 188 215 221
f 190 221 219
f 190 192 221
f 215 222 221
f 215 218 222
f 213 222 218
f 213 220 222
f 219 222 220
f 219 221 222

