# https://github.com/mikedh/trimesh

o 7.obj
v -0.01694931 0.07319995 -0.09607345
v -0.01576400 0.07375709 -0.09486189
v -0.01694931 0.07375709 -0.09486189
v -0.01581098 0.07319995 -0.09607345
v -0.01850356 0.07808075 -0.08546095
v -0.01451679 0.07321957 -0.09603089
v -0.01850356 0.07319995 -0.09607345
v -0.01694931 0.07808075 -0.08546095
v -0.01479260 0.07377450 -0.09482458
v -0.01694931 0.07752333 -0.08667278
v -0.01395080 0.07382590 -0.09471238
v -0.01584249 0.07808075 -0.08546095
v -0.01347574 0.07327871 -0.09590239
v -0.01576400 0.07752333 -0.08667278
v -0.01320712 0.07392429 -0.09449848
v -0.01437170 0.07805477 -0.08551732
v -0.01256817 0.07339589 -0.09564758
v -0.01479840 0.07750619 -0.08671009
v -0.01253003 0.07408181 -0.09415634
v -0.01400580 0.07745451 -0.08682230
v -0.01167442 0.07358989 -0.09522530
v -0.01325603 0.07797739 -0.08568563
v -0.01182145 0.07434933 -0.09357461
v -0.01332070 0.07736359 -0.08702017
v -0.01131322 0.07469312 -0.09282705
v -0.01267899 0.07722845 -0.08731422
v -0.01069417 0.07395054 -0.09444155
v -0.01238771 0.07785496 -0.08595204
v -0.01100701 0.07512203 -0.09189433
v -0.01190795 0.07696176 -0.08789402
v -0.01090504 0.07564518 -0.09075656
v -0.01165867 0.07769384 -0.08630219
v -0.01065576 0.07733126 -0.08709064
v -0.01135246 0.07660719 -0.08866479
v -0.01101696 0.07616750 -0.08962072
v -0.00993556 0.07442920 -0.09340077
v -0.00990820 0.07686614 -0.08810184
v -0.00945000 0.07499961 -0.09216075
v -0.00963682 0.07659559 -0.08868994
v -0.00944309 0.07630043 -0.08933220
v -0.00928805 0.07563551 -0.09077812
v 0.00819311 0.07319995 -0.09607345
v 0.00297322 0.07377671 -0.09481906
v 0.00141897 0.07319995 -0.09607345
v 0.00819311 0.07377671 -0.09481906
v 0.00141897 0.07808075 -0.08546095
v 0.00297322 0.07808075 -0.08546095
v 0.01619208 0.07319995 -0.09607345
v 0.01097192 0.07377671 -0.09481906
v 0.00941767 0.07319995 -0.09607345
v 0.01619208 0.07377671 -0.09481906
v 0.00941767 0.07808075 -0.08546095
v 0.01097192 0.07808075 -0.08546095
v -0.00760032 0.07808075 -0.08546095
v -0.00604607 0.07750371 -0.08671534
v -0.00760032 0.07319995 -0.09607345
v -0.00029225 0.07808075 -0.08546095
v -0.00604607 0.07377671 -0.09481906
v -0.00029225 0.07750371 -0.08671534
v -0.00604607 0.07616640 -0.08962348
v -0.00029225 0.07319995 -0.09607345
v -0.00604607 0.07558963 -0.09087788
v -0.00029225 0.07377671 -0.09481906
v -0.00068468 0.07616640 -0.08962348
v -0.00068468 0.07558963 -0.09087788
f 1 2 3
f 2 1 4
f 3 2 1
f 4 1 2
f 5 1 3
f 3 1 5
f 2 4 6
f 6 4 2
f 1 5 7
f 7 5 1
f 5 3 8
f 8 3 5
f 2 6 9
f 9 6 2
f 10 8 3
f 3 8 10
f 9 6 11
f 11 6 9
f 10 12 8
f 8 12 10
f 11 6 13
f 13 6 11
f 12 10 14
f 14 10 12
f 11 13 15
f 15 13 11
f 12 14 16
f 16 14 12
f 15 13 17
f 17 13 15
f 16 14 18
f 18 14 16
f 15 17 19
f 19 17 15
f 16 18 20
f 20 18 16
f 19 17 21
f 21 17 19
f 16 20 22
f 22 20 16
f 19 21 23
f 23 21 19
f 22 20 24
f 24 20 22
f 23 21 25
f 25 21 23
f 22 24 26
f 26 24 22
f 25 21 27
f 27 21 25
f 22 26 28
f 28 26 22
f 25 27 29
f 29 27 25
f 28 26 30
f 30 26 28
f 29 27 31
f 31 27 29
f 28 30 32
f 32 30 28
f 33 31 27
f 27 31 33
f 32 30 34
f 34 30 32
f 33 35 31
f 31 35 33
f 33 27 36
f 36 27 33
f 32 34 33
f 33 34 32
f 33 34 35
f 35 34 33
f 33 36 37
f 37 36 33
f 37 36 38
f 38 36 37
f 37 38 39
f 39 38 37
f 39 38 40
f 40 38 39
f 40 38 41
f 41 38 40
f 42 43 44
f 43 42 45
f 44 43 42
f 45 42 43
f 43 46 44
f 44 46 43
f 46 43 47
f 47 43 46
f 48 49 50
f 49 48 51
f 50 49 48
f 51 48 49
f 49 52 50
f 50 52 49
f 52 49 53
f 53 49 52
f 54 55 56
f 55 54 57
f 56 55 54
f 57 54 55
f 55 58 56
f 56 58 55
f 55 57 59
f 59 57 55
f 58 55 60
f 60 55 58
f 58 61 56
f 56 61 58
f 58 60 62
f 62 60 58
f 61 58 63
f 63 58 61
f 64 62 60
f 60 62 64
f 62 64 65
f 65 64 62

