# https://github.com/mikedh/trimesh

o 3.obj
v -0.06395901 -0.06076618 -0.11915446
v -0.06401308 -0.06452348 -0.11915446
v -0.06415515 -0.06270009 -0.11915446
v -0.06358736 -0.06611847 -0.11915446
v -0.06415515 -0.06270009 -0.11636459
v -0.06395901 -0.06076618 -0.11636459
v -0.06337010 -0.05899521 -0.11915446
v -0.06401308 -0.06452348 -0.11636459
v -0.06337010 -0.05899521 -0.11636459
v -0.06290524 -0.06750190 -0.11915446
v -0.06358736 -0.06611847 -0.11636459
v -0.06238892 -0.05738693 -0.11636459
v -0.06238892 -0.05738693 -0.11915446
v -0.06290524 -0.06750190 -0.11636459
v -0.06199497 -0.06869061 -0.11915446
v -0.06101521 -0.05594160 -0.11636459
v -0.06199497 -0.06869061 -0.11636459
v -0.06101521 -0.05594160 -0.11915446
v -0.06087053 -0.06969813 -0.11915446
v -0.05933673 -0.05474814 -0.11915446
v -0.06087053 -0.06969813 -0.11636459
v -0.05933673 -0.05474814 -0.11636459
v -0.05956774 -0.06223262 -0.11915446
v -0.05959004 -0.07049432 -0.11636459
v -0.05744101 -0.05389550 -0.11915446
v -0.05956774 -0.06223262 -0.11636459
v -0.05909458 -0.06011988 -0.11915446
v -0.05959004 -0.07049432 -0.11915446
v -0.05744101 -0.05389550 -0.11636459
v -0.05909458 -0.06011988 -0.11636459
v -0.05928930 -0.06413096 -0.11915446
v -0.05651698 -0.07163014 -0.11636459
v -0.05928930 -0.06413096 -0.11636459
v -0.05532827 -0.05338416 -0.11915446
v -0.05767486 -0.05845801 -0.11915446
v -0.05651698 -0.07163014 -0.11915446
v -0.05767486 -0.05845801 -0.11636459
v -0.05532827 -0.05338416 -0.11636459
v -0.05548694 -0.05738077 -0.11915446
v -0.05845421 -0.06559526 -0.11915446
v -0.05845421 -0.06559526 -0.11636459
v -0.05333245 -0.07240949 -0.11636459
v -0.05548694 -0.05738077 -0.11636459
v -0.05299851 -0.05321363 -0.11915446
v -0.05270893 -0.05702169 -0.11915446
v -0.05709023 -0.06667511 -0.11915446
v -0.05333245 -0.07240949 -0.11915446
v -0.05522533 -0.06742126 -0.11636459
v -0.05709023 -0.06667511 -0.11636459
v -0.05270893 -0.05702169 -0.11636459
v -0.05299851 -0.05321363 -0.11636459
v -0.05522533 -0.06742126 -0.11915446
v -0.05052646 -0.07314425 -0.11636459
v -0.05179581 -0.06827864 -0.11636459
v -0.05029000 -0.05335285 -0.11915446
v -0.05005330 -0.05729159 -0.11636459
v -0.05179581 -0.06827864 -0.11915446
v -0.05052646 -0.07314425 -0.11915446
v -0.05029000 -0.05335285 -0.11636459
v -0.05005330 -0.05729159 -0.11915446
v -0.04867817 -0.07390700 -0.11636459
v -0.04843340 -0.06915808 -0.11636459
v -0.04843340 -0.06915808 -0.11915446
v -0.04773184 -0.05377028 -0.11915446
v -0.04752029 -0.05810177 -0.11636459
v -0.04773184 -0.05377028 -0.11636459
v -0.04867817 -0.07390700 -0.11915446
v -0.04752029 -0.05810177 -0.11915446
v -0.04740881 -0.07499255 -0.11636459
v -0.04546589 -0.07047202 -0.11915446
v -0.04534066 -0.05444409 -0.11915446
v -0.04527117 -0.05927365 -0.11636459
v -0.04534066 -0.05444409 -0.11636459
v -0.04740881 -0.07499255 -0.11915446
v -0.04546589 -0.07047202 -0.11636459
v -0.04527117 -0.05927365 -0.11915446
v -0.04667405 -0.07642341 -0.11915446
v -0.04667405 -0.07642341 -0.11636459
v -0.04342288 -0.07232031 -0.11915446
v -0.04313329 -0.05535151 -0.11915446
v -0.04346723 -0.06062909 -0.11636459
v -0.04313329 -0.05535151 -0.11636459
v -0.04642905 -0.07822166 -0.11636459
v -0.04342288 -0.07232031 -0.11636459
v -0.04484805 -0.08456842 -0.11915446
v -0.04642905 -0.07822166 -0.11915446
v -0.04346723 -0.06062909 -0.11915446
v -0.04484805 -0.08456842 -0.11636459
v -0.04223701 -0.07468090 -0.11636459
v -0.04358155 -0.08310980 -0.11915446
v -0.04313329 -0.06062909 -0.11636459
v -0.04313329 -0.06062909 -0.11915446
v -0.04689676 -0.08047362 -0.11915446
v -0.04655428 -0.08584868 -0.11636459
v -0.04358155 -0.08310980 -0.11636459
v -0.04223701 -0.07468090 -0.11915446
v -0.04263214 -0.08136160 -0.11636459
v -0.04655428 -0.08584868 -0.11915446
v -0.04263214 -0.08136160 -0.11915446
v -0.04689676 -0.08047362 -0.11636459
v -0.04184164 -0.07753125 -0.11636459
v -0.04203921 -0.07945757 -0.11636459
v -0.04829964 -0.08224127 -0.11915446
v -0.04829964 -0.08224127 -0.11636459
v -0.04846661 -0.08679524 -0.11915446
v -0.04184164 -0.07753125 -0.11915446
v -0.04203921 -0.07945757 -0.11915446
v -0.04846661 -0.08679524 -0.11636459
v -0.04934628 -0.08290868 -0.11636459
v -0.04934628 -0.08290868 -0.11915446
v -0.05073541 -0.08737987 -0.11915446
v -0.05061563 -0.08338516 -0.11915446
v -0.05061563 -0.08338516 -0.11636459
v -0.05073541 -0.08737987 -0.11636459
v -0.05351057 -0.08757459 -0.11915446
v -0.05382245 -0.08376654 -0.11636459
v -0.05351057 -0.08757459 -0.11636459
v -0.05382245 -0.08376654 -0.11915446
v -0.05684807 -0.08738817 -0.11915446
v -0.05643350 -0.08348549 -0.11915446
v -0.05643350 -0.08348549 -0.11636459
v -0.05684807 -0.08738817 -0.11636459
v -0.05964577 -0.08682868 -0.11915446
v -0.05914462 -0.08264210 -0.11915446
v -0.05914462 -0.08264210 -0.11636459
v -0.05964577 -0.08682868 -0.11636459
v -0.06440015 -0.08499130 -0.11915446
v -0.06176136 -0.08128641 -0.11915446
v -0.06176136 -0.08128641 -0.11636459
v -0.06440015 -0.08499130 -0.11636459
v -0.06408827 -0.07946872 -0.11915446
v -0.06408827 -0.07946872 -0.11636459
v -0.06440015 -0.07946872 -0.11636459
v -0.06440015 -0.07946872 -0.11915446
v -0.03184574 -0.06341564 -0.11915446
v -0.03349077 -0.06822291 -0.11915446
v -0.03349077 -0.06470444 -0.11915446
v -0.03033969 -0.06618535 -0.11915446
v -0.03349077 -0.09614817 -0.11915446
v -0.03349077 -0.06470444 -0.11636459
v -0.03002804 -0.06235500 -0.11915446
v -0.03033969 -0.06618535 -0.11636459
v -0.03349077 -0.06209886 -0.11915446
v -0.03349077 -0.08231907 -0.11915446
v -0.03184574 -0.06341564 -0.11636459
v -0.02865006 -0.06559242 -0.11915446
v -0.03349077 -0.06822291 -0.11636459
v -0.02865006 -0.06559242 -0.11636459
v -0.03767735 -0.09614817 -0.11915446
v -0.03349077 -0.08231907 -0.11636459
v -0.03349077 -0.08572630 -0.11915446
v -0.03349077 -0.06209886 -0.11636459
v -0.03002804 -0.06235500 -0.11636459
v -0.02803768 -0.06164514 -0.11915446
v -0.03767735 -0.06209886 -0.11915446
v -0.03349077 -0.09614817 -0.11636459
v -0.03067386 -0.08341030 -0.11915446
v -0.03767735 -0.06209886 -0.11636459
v -0.02689925 -0.06539485 -0.11915446
v -0.02689925 -0.06539485 -0.11636459
v -0.02803768 -0.06164514 -0.11636459
v -0.03767735 -0.09614817 -0.11636459
v -0.03067386 -0.08341030 -0.11636459
v -0.03057354 -0.08704024 -0.11915446
v -0.03349077 -0.08572630 -0.11636459
v -0.02587490 -0.06140868 -0.11915446
v -0.03057354 -0.08704024 -0.11636459
v -0.02799048 -0.08369989 -0.11915446
v -0.02547953 -0.06554166 -0.11915446
v -0.02547953 -0.06554166 -0.11636459
v -0.02587490 -0.06140868 -0.11636459
v -0.02799048 -0.08369989 -0.11636459
v -0.02730007 -0.08746336 -0.11915446
v -0.02730007 -0.08746336 -0.11636459
v -0.02385466 -0.06162024 -0.11915446
v -0.02645526 -0.08355095 -0.11915446
v -0.02427161 -0.06598209 -0.11915446
v -0.02427161 -0.06598209 -0.11636459
v -0.02385466 -0.06162024 -0.11636459
v -0.02645526 -0.08355095 -0.11636459
v -0.02512685 -0.08723282 -0.11915446
v -0.02512685 -0.08723282 -0.11636459
v -0.02327500 -0.06671615 -0.11915446
v -0.02510100 -0.08310411 -0.11915446
v -0.02206969 -0.06225492 -0.11915446
v -0.02327500 -0.06671615 -0.11636459
v -0.02510100 -0.08310411 -0.11636459
v -0.02314978 -0.08654194 -0.11915446
v -0.02314978 -0.08654194 -0.11636459
v -0.02206969 -0.06225492 -0.11636459
v -0.02248996 -0.06774405 -0.11915446
v -0.02392771 -0.08235939 -0.11915446
v -0.02051976 -0.06331271 -0.11915446
v -0.02147106 -0.07056950 -0.11915446
v -0.02248996 -0.06774405 -0.11636459
v -0.02392771 -0.08235939 -0.11636459
v -0.02293537 -0.08131701 -0.11915446
v -0.02136884 -0.08539022 -0.11636459
v -0.02051976 -0.06331271 -0.11636459
v -0.02147106 -0.07056950 -0.11636459
v -0.02293537 -0.08131701 -0.11636459
v -0.02136884 -0.08539022 -0.11915446
v -0.01920535 -0.06479338 -0.11636459
v -0.02113167 -0.07434696 -0.11915446
v -0.02214630 -0.07998789 -0.11636459
v -0.02214630 -0.07998789 -0.11915446
v -0.01978429 -0.08377768 -0.11915446
v -0.02113167 -0.07434696 -0.11636459
v -0.01920535 -0.06479338 -0.11915446
v -0.01978429 -0.08377768 -0.11636459
v -0.02158254 -0.07838318 -0.11915446
v -0.02158254 -0.07838318 -0.11636459
v -0.01815799 -0.06663076 -0.11636459
v -0.01848363 -0.08177713 -0.11636459
v -0.01848363 -0.08177713 -0.11915446
v -0.01815799 -0.06663076 -0.11915446
v -0.01740995 -0.06875726 -0.11636459
v -0.01755462 -0.07946042 -0.11636459
v -0.01755462 -0.07946042 -0.11915446
v -0.01740995 -0.06875726 -0.11915446
v -0.01696098 -0.07117358 -0.11636459
v -0.01699726 -0.07682779 -0.11636459
v -0.01699726 -0.07682779 -0.11915446
v -0.01696098 -0.07117358 -0.11915446
v -0.01681132 -0.07387925 -0.11636459
v -0.01681132 -0.07387925 -0.11915446
v -0.00886127 -0.06189844 -0.11915446
v -0.01217956 -0.06688667 -0.11915446
v -0.01217956 -0.06263344 -0.11915446
v -0.01193456 -0.06688667 -0.11915446
v -0.01217956 -0.06263344 -0.11636459
v -0.00801527 -0.06562847 -0.11915446
v -0.01193456 -0.06688667 -0.11636459
v -0.01217956 -0.06688667 -0.11636459
v -0.00886127 -0.06189844 -0.11636459
v -0.00458575 -0.06149762 -0.11915446
v -0.00801527 -0.06562847 -0.11636459
v -0.00460804 -0.06519420 -0.11915446
v -0.00460804 -0.06519420 -0.11636459
v -0.00458575 -0.06149762 -0.11636459
v -0.00222516 -0.06536141 -0.11915446
v -0.00026563 -0.06189844 -0.11915446
v -0.00222516 -0.06536141 -0.11636459
v -0.00026563 -0.06189844 -0.11636459
v -0.00026563 -0.06604044 -0.11915446
v -0.00026563 -0.06604044 -0.11636459
v 0.00140454 -0.06246078 -0.11915446
v 0.00140454 -0.06246078 -0.11636459
v 0.00044707 -0.06663337 -0.11915446
v 0.00044707 -0.06663337 -0.11636459
v 0.00289660 -0.06334591 -0.11915446
v 0.00098142 -0.06743241 -0.11915446
v 0.00098142 -0.06743241 -0.11636459
v 0.00289660 -0.06334591 -0.11636459
v 0.00142683 -0.06980391 -0.11915446
v 0.00131560 -0.06847621 -0.11915446
v 0.00131560 -0.06847621 -0.11636459
v 0.00142683 -0.06980391 -0.11636459
v 0.00408246 -0.06452063 -0.11915446
v 0.00142683 -0.07060579 -0.11915446
v 0.00559112 -0.08697336 -0.11636459
v 0.00408246 -0.06452063 -0.11636459
v 0.00559112 -0.08697336 -0.11915446
v 0.00142683 -0.07394590 -0.11915446
v 0.00142683 -0.07060579 -0.11636459
v 0.00492301 -0.06599609 -0.11636459
v 0.00142683 -0.08697336 -0.11915446
v 0.00492301 -0.06599609 -0.11915446
v 0.00142683 -0.08084930 -0.11915446
v -0.00234778 -0.07431352 -0.11915446
v 0.00142683 -0.07394590 -0.11636459
v 0.00142683 -0.08432342 -0.11915446
v 0.00542415 -0.06779979 -0.11915446
v -0.00471927 -0.07115129 -0.11915446
v -0.00471927 -0.07115129 -0.11636459
v 0.00142683 -0.08084930 -0.11636459
v -0.00234778 -0.07431352 -0.11636459
v 0.00542415 -0.06779979 -0.11636459
v 0.00142683 -0.08432342 -0.11636459
v 0.00142683 -0.08697336 -0.11636459
v 0.00559112 -0.06995997 -0.11915446
v 0.00005740 -0.08538121 -0.11915446
v -0.00603322 -0.07497049 -0.11915446
v 0.00559112 -0.06995997 -0.11636459
v -0.00157934 -0.08295374 -0.11915446
v -0.00157934 -0.08295374 -0.11636459
v -0.00738060 -0.07166619 -0.11915446
v -0.00738060 -0.07166619 -0.11636459
v -0.00603322 -0.07497049 -0.11636459
v 0.00005740 -0.08538121 -0.11636459
v -0.00160163 -0.08646106 -0.11915446
v -0.00755871 -0.07561892 -0.11915446
v -0.00327750 -0.08359672 -0.11915446
v -0.00327750 -0.08359672 -0.11636459
v -0.00160163 -0.08646106 -0.11636459
v -0.00879462 -0.07654034 -0.11915446
v -0.00966315 -0.07247637 -0.11636459
v -0.00755871 -0.07561892 -0.11636459
v -0.00375066 -0.08735189 -0.11915446
v -0.00961287 -0.07780684 -0.11915446
v -0.00966315 -0.07247637 -0.11915446
v -0.00961287 -0.07780684 -0.11636459
v -0.00879462 -0.07654034 -0.11636459
v -0.00516469 -0.08381112 -0.11915446
v -0.00516469 -0.08381112 -0.11636459
v -0.00375066 -0.08735189 -0.11636459
v -0.01170616 -0.07373173 -0.11636459
v -0.00988586 -0.07949101 -0.11636459
v -0.00665674 -0.08766377 -0.11915446
v -0.00988586 -0.07949101 -0.11915446
v -0.01170616 -0.07373173 -0.11915446
v -0.01087108 -0.08638872 -0.11636459
v -0.00720224 -0.08353838 -0.11915446
v -0.00720224 -0.08353838 -0.11636459
v -0.00665674 -0.08766377 -0.11636459
v -0.01087108 -0.08638872 -0.11915446
v -0.01311474 -0.07536016 -0.11915446
v -0.01200121 -0.08545900 -0.11636459
v -0.00957398 -0.08708459 -0.11636459
v -0.00815426 -0.08751886 -0.11915446
v -0.00957398 -0.08708459 -0.11915446
v -0.00958512 -0.08136705 -0.11636459
v -0.01200121 -0.08545900 -0.11915446
v -0.01311474 -0.07536016 -0.11636459
v -0.01290318 -0.08431488 -0.11915446
v -0.01290318 -0.08431488 -0.11636459
v -0.00868315 -0.08271989 -0.11915446
v -0.00868315 -0.08271989 -0.11636459
v -0.00815426 -0.08751886 -0.11636459
v -0.00958512 -0.08136705 -0.11915446
v -0.01393322 -0.07736713 -0.11915446
v -0.01360474 -0.08293145 -0.11915446
v -0.01393322 -0.07736713 -0.11636459
v -0.01360474 -0.08293145 -0.11636459
v -0.01420597 -0.07975831 -0.11915446
v -0.01405560 -0.08138674 -0.11915446
v -0.01405560 -0.08138674 -0.11636459
v -0.01420597 -0.07975831 -0.11636459
v 0.03099855 -0.07179640 -0.11915446
v 0.03100496 -0.07758912 -0.11915446
v 0.03079957 -0.07468090 -0.11915446
v 0.03159576 -0.06922212 -0.11915446
v 0.03079957 -0.07468090 -0.11636459
v 0.03099855 -0.07179640 -0.11636459
v 0.03159576 -0.06922212 -0.11636459
v 0.03162066 -0.08014514 -0.11915446
v 0.03100496 -0.07758912 -0.11636459
v 0.03259094 -0.06695854 -0.11636459
v 0.03259094 -0.06695854 -0.11915446
v 0.03162066 -0.08014514 -0.11636459
v 0.03264715 -0.08234895 -0.11915446
v 0.03398409 -0.06500494 -0.11636459
v 0.03264715 -0.08234895 -0.11636459
v 0.03398409 -0.06500494 -0.11915446
v 0.03408418 -0.08420080 -0.11915446
v 0.03569885 -0.06343153 -0.11915446
v 0.03408418 -0.08420080 -0.11636459
v 0.03569885 -0.06343153 -0.11636459
v 0.03505303 -0.07176367 -0.11915446
v 0.03765838 -0.06230780 -0.11915446
v 0.03589286 -0.08566724 -0.11636459
v 0.03505303 -0.07176367 -0.11636459
v 0.03567656 -0.06899111 -0.11915446
v 0.03505303 -0.07497049 -0.11915446
v 0.03765838 -0.06230780 -0.11636459
v 0.03710174 -0.06682003 -0.11915446
v 0.03589286 -0.08566724 -0.11915446
v 0.03518941 -0.07701350 -0.11636459
v 0.03505303 -0.07497049 -0.11636459
v 0.03567656 -0.06899111 -0.11636459
v 0.03518941 -0.07701350 -0.11915446
v 0.04821378 -0.07176367 -0.11915446
v 0.03710174 -0.06682003 -0.11636459
v 0.03986314 -0.06163328 -0.11915446
v 0.03922847 -0.06536141 -0.11915446
v 0.03803430 -0.08671436 -0.11636459
v 0.03559853 -0.07880060 -0.11636459
v 0.05228913 -0.07497049 -0.11636459
v 0.05228913 -0.07497049 -0.11915446
v 0.03922847 -0.06536141 -0.11636459
v 0.03986314 -0.06163328 -0.11636459
v 0.03559853 -0.07880060 -0.11915446
v 0.03803430 -0.08671436 -0.11915446
v 0.03628064 -0.08033155 -0.11636459
v 0.04821378 -0.07176367 -0.11636459
v 0.04952772 -0.06416985 -0.11915446
v 0.04231267 -0.06140868 -0.11915446
v 0.04052272 -0.06498549 -0.11915446
v 0.04052272 -0.06498549 -0.11636459
v 0.03628064 -0.08033155 -0.11915446
v 0.04050826 -0.08734287 -0.11636459
v 0.03723526 -0.08160660 -0.11636459
v 0.04952772 -0.06416985 -0.11636459
v 0.04781296 -0.06884644 -0.11636459
v 0.04808025 -0.06293394 -0.11915446
v 0.05070789 -0.06575393 -0.11915446
v 0.05228913 -0.07269884 -0.11915446
v 0.04231267 -0.06140868 -0.11636459
v 0.03723526 -0.08160660 -0.11915446
v 0.04050826 -0.08734287 -0.11915446
v 0.03843085 -0.08261008 -0.11636459
v 0.05070789 -0.06575393 -0.11636459
v 0.04808025 -0.06293394 -0.11636459
v 0.04781296 -0.06884644 -0.11915446
v 0.05157642 -0.06765511 -0.11915446
v 0.05228913 -0.07269884 -0.11636459
v 0.05211101 -0.06994597 -0.11915446
v 0.04449490 -0.06157565 -0.11915446
v 0.04206767 -0.06486026 -0.11915446
v 0.04206767 -0.06486026 -0.11636459
v 0.03843085 -0.08261008 -0.11915446
v 0.04331473 -0.08755230 -0.11636459
v 0.03983516 -0.08332682 -0.11636459
v 0.05157642 -0.06765511 -0.11636459
v 0.04678861 -0.06677544 -0.11636459
v 0.04678861 -0.06677544 -0.11915446
v 0.04641008 -0.06207656 -0.11636459
v 0.05211101 -0.06994597 -0.11636459
v 0.04449490 -0.06157565 -0.11636459
v 0.04362376 -0.06498265 -0.11915446
v 0.03983516 -0.08332682 -0.11915446
v 0.04331473 -0.08755230 -0.11915446
v 0.04144841 -0.08375681 -0.11636459
v 0.04641008 -0.06207656 -0.11915446
v 0.04362376 -0.06498265 -0.11636459
v 0.04490687 -0.06535026 -0.11915446
v 0.04144841 -0.08375681 -0.11915446
v 0.04581999 -0.08737418 -0.11636459
v 0.04327014 -0.08390030 -0.11636459
v 0.04595091 -0.06595150 -0.11915446
v 0.04595091 -0.06595150 -0.11636459
v 0.04490687 -0.06535026 -0.11636459
v 0.04327014 -0.08390030 -0.11915446
v 0.04581999 -0.08737418 -0.11915446
v 0.04597581 -0.08358842 -0.11636459
v 0.04597581 -0.08358842 -0.11915446
v 0.04803566 -0.08686189 -0.11636459
v 0.04803566 -0.08686189 -0.11915446
v 0.04836984 -0.08278677 -0.11636459
v 0.04836984 -0.08278677 -0.11915446
v 0.04999543 -0.08618286 -0.11636459
v 0.04999543 -0.08618286 -0.11915446
v 0.05028501 -0.08179586 -0.11636459
v 0.05028501 -0.08179586 -0.11915446
v 0.05182142 -0.08545900 -0.11636459
v 0.05182142 -0.08545900 -0.11915446
v 0.05157642 -0.08089389 -0.11636459
v 0.05157642 -0.08089389 -0.11915446
v 0.05182142 -0.08089389 -0.11915446
v 0.05182142 -0.08089389 -0.11636459
v 0.00997527 -0.07151867 -0.11915446
v 0.00996697 -0.07765102 -0.11915446
v 0.00975541 -0.07456967 -0.11915446
v 0.01060165 -0.08030381 -0.11915446
v 0.00975541 -0.07456967 -0.11636459
v 0.00997527 -0.07151867 -0.11636459
v 0.01063509 -0.06891332 -0.11915446
v 0.00996697 -0.07765102 -0.11636459
v 0.01063509 -0.06891332 -0.11636459
v 0.01162054 -0.08253347 -0.11915446
v 0.01060165 -0.08030381 -0.11636459
v 0.01166229 -0.06671970 -0.11636459
v 0.01166229 -0.06671970 -0.11915446
v 0.01162054 -0.08253347 -0.11636459
v 0.01298453 -0.08434571 -0.11915446
v 0.01298453 -0.06490485 -0.11636459
v 0.01298453 -0.08434571 -0.11636459
v 0.01298453 -0.06490485 -0.11915446
v 0.01463502 -0.06346569 -0.11915446
v 0.01467130 -0.08574575 -0.11636459
v 0.01409782 -0.07456967 -0.11915446
v 0.01463502 -0.06346569 -0.11636459
v 0.01409782 -0.07456967 -0.11636459
v 0.01467130 -0.08574575 -0.11915446
v 0.01422115 -0.07244768 -0.11915446
v 0.01664767 -0.06239959 -0.11915446
v 0.01421688 -0.07665228 -0.11636459
v 0.01665882 -0.08673950 -0.11636459
v 0.01459067 -0.07058065 -0.11915446
v 0.01421688 -0.07665228 -0.11915446
v 0.01422115 -0.07244768 -0.11636459
v 0.01664767 -0.06239959 -0.11636459
v 0.01520637 -0.06896811 -0.11915446
v 0.01457383 -0.07849156 -0.11636459
v 0.01665882 -0.08673950 -0.11915446
v 0.01516889 -0.08008727 -0.11636459
v 0.01457383 -0.07849156 -0.11915446
v 0.01459067 -0.07058065 -0.11636459
v 0.01520637 -0.06896811 -0.11636459
v 0.01892193 -0.06173977 -0.11915446
v 0.01606873 -0.06761053 -0.11915446
v 0.01516889 -0.08008727 -0.11915446
v 0.01890248 -0.08733244 -0.11636459
v 0.01600185 -0.08143963 -0.11636459
v 0.01606873 -0.06761053 -0.11636459
v 0.01892193 -0.06173977 -0.11636459
v 0.01713411 -0.06653400 -0.11915446
v 0.01600185 -0.08143963 -0.11915446
v 0.01890248 -0.08733244 -0.11915446
v 0.01704636 -0.08251616 -0.11636459
v 0.01713411 -0.06653400 -0.11636459
v 0.02135746 -0.06151992 -0.11915446
v 0.01835959 -0.06576484 -0.11915446
v 0.01704636 -0.08251616 -0.11915446
v 0.02135746 -0.08753000 -0.11636459
v 0.01827610 -0.08328507 -0.11636459
v 0.01835959 -0.06576484 -0.11636459
v 0.02135746 -0.06151992 -0.11636459
v 0.01974515 -0.06530354 -0.11915446
v 0.01827610 -0.08328507 -0.11915446
v 0.02135746 -0.08753000 -0.11915446
v 0.01969084 -0.08374638 -0.11636459
v 0.01974515 -0.06530354 -0.11636459
v 0.02337011 -0.06166459 -0.11915446
v 0.02129081 -0.06514985 -0.11915446
v 0.01969084 -0.08374638 -0.11915446
v 0.02353993 -0.08736303 -0.11636459
v 0.02129081 -0.08390030 -0.11636459
v 0.02129081 -0.06514985 -0.11636459
v 0.02337011 -0.06166459 -0.11636459
v 0.02356222 -0.06548379 -0.11915446
v 0.02129081 -0.08390030 -0.11915446
v 0.02353993 -0.08736303 -0.11915446
v 0.02328947 -0.08368874 -0.11636459
v 0.02356222 -0.06548379 -0.11636459
v 0.02531019 -0.06209886 -0.11915446
v 0.02328947 -0.08368874 -0.11915446
v 0.02545510 -0.08688418 -0.11636459
v 0.02518781 -0.08305407 -0.11636459
v 0.02531019 -0.06209886 -0.11636459
v 0.02561092 -0.06626314 -0.11915446
v 0.02561092 -0.06626314 -0.11636459
v 0.02518781 -0.08305407 -0.11915446
v 0.02545510 -0.08688418 -0.11915446
v 0.02870627 -0.06343509 -0.11915446
v 0.02714757 -0.08627180 -0.11636459
v 0.02693032 -0.08208521 -0.11636459
v 0.02693032 -0.08208521 -0.11915446
v 0.02870627 -0.06343509 -0.11636459
v 0.02731454 -0.06726544 -0.11915446
v 0.02731454 -0.06726544 -0.11636459
v 0.02714757 -0.08627180 -0.11915446
v 0.02870627 -0.06813373 -0.11636459
v 0.02846127 -0.06813373 -0.11915446
v 0.02870627 -0.08557048 -0.11636459
v 0.02846127 -0.08087160 -0.11636459
v 0.02846127 -0.08087160 -0.11915446
v 0.02846127 -0.06813373 -0.11636459
v 0.02870627 -0.06813373 -0.11915446
v 0.02870627 -0.08557048 -0.11915446
v 0.02870627 -0.08087160 -0.11915446
v 0.02870627 -0.08087160 -0.11636459
f 1 2 3
f 2 1 4
f 3 2 1
f 4 1 2
f 2 5 3
f 3 5 2
f 3 6 1
f 1 6 3
f 4 1 7
f 7 1 4
f 4 8 2
f 2 8 4
f 5 2 8
f 8 2 5
f 6 3 5
f 5 3 6
f 9 1 6
f 6 1 9
f 1 9 7
f 7 9 1
f 4 7 10
f 10 7 4
f 8 4 11
f 11 4 8
f 8 6 5
f 5 6 8
f 6 11 9
f 9 11 6
f 12 7 9
f 9 7 12
f 10 7 13
f 13 7 10
f 10 11 4
f 4 11 10
f 6 8 11
f 11 8 6
f 9 11 14
f 14 11 9
f 7 12 13
f 13 12 7
f 9 14 12
f 12 14 9
f 10 13 15
f 15 13 10
f 11 10 14
f 14 10 11
f 16 13 12
f 12 13 16
f 12 14 17
f 17 14 12
f 15 13 18
f 18 13 15
f 15 14 10
f 10 14 15
f 13 16 18
f 18 16 13
f 12 17 16
f 16 17 12
f 14 15 17
f 17 15 14
f 15 18 19
f 19 18 15
f 16 20 18
f 18 20 16
f 16 17 21
f 21 17 16
f 15 21 17
f 17 21 15
f 19 18 20
f 20 18 19
f 21 15 19
f 19 15 21
f 20 16 22
f 22 16 20
f 16 21 22
f 22 21 16
f 19 20 23
f 23 20 19
f 19 24 21
f 21 24 19
f 22 25 20
f 20 25 22
f 22 21 26
f 26 21 22
f 23 20 27
f 27 20 23
f 19 23 28
f 28 23 19
f 24 19 28
f 28 19 24
f 26 21 24
f 24 21 26
f 25 22 29
f 29 22 25
f 27 20 25
f 25 20 27
f 22 26 30
f 30 26 22
f 27 26 23
f 23 26 27
f 31 28 23
f 23 28 31
f 28 32 24
f 24 32 28
f 24 33 26
f 26 33 24
f 22 30 29
f 29 30 22
f 29 34 25
f 25 34 29
f 27 25 35
f 35 25 27
f 26 27 30
f 30 27 26
f 33 23 26
f 26 23 33
f 28 31 36
f 36 31 28
f 23 33 31
f 31 33 23
f 32 28 36
f 36 28 32
f 33 24 32
f 32 24 33
f 29 30 37
f 37 30 29
f 34 29 38
f 38 29 34
f 39 25 34
f 34 25 39
f 35 25 39
f 39 25 35
f 35 30 27
f 27 30 35
f 36 31 40
f 40 31 36
f 41 31 33
f 33 31 41
f 36 42 32
f 32 42 36
f 33 32 41
f 41 32 33
f 30 35 37
f 37 35 30
f 29 37 43
f 43 37 29
f 29 43 38
f 38 43 29
f 38 44 34
f 34 44 38
f 39 34 45
f 45 34 39
f 43 35 39
f 39 35 43
f 31 41 40
f 40 41 31
f 36 40 46
f 46 40 36
f 42 36 47
f 47 36 42
f 48 32 42
f 42 32 48
f 41 32 49
f 49 32 41
f 35 43 37
f 37 43 35
f 38 43 50
f 50 43 38
f 44 38 51
f 51 38 44
f 45 34 44
f 44 34 45
f 50 39 45
f 45 39 50
f 39 50 43
f 43 50 39
f 41 46 40
f 40 46 41
f 36 46 52
f 52 46 36
f 36 52 47
f 47 52 36
f 47 53 42
f 42 53 47
f 49 32 48
f 48 32 49
f 48 42 54
f 54 42 48
f 46 41 49
f 49 41 46
f 38 50 51
f 51 50 38
f 51 55 44
f 44 55 51
f 45 44 55
f 55 44 45
f 45 56 50
f 50 56 45
f 49 52 46
f 46 52 49
f 47 52 57
f 57 52 47
f 53 47 58
f 58 47 53
f 54 42 53
f 53 42 54
f 52 49 48
f 48 49 52
f 57 48 54
f 54 48 57
f 51 50 59
f 59 50 51
f 55 51 59
f 59 51 55
f 45 55 60
f 60 55 45
f 56 45 60
f 60 45 56
f 59 50 56
f 56 50 59
f 48 57 52
f 52 57 48
f 47 57 58
f 58 57 47
f 58 61 53
f 53 61 58
f 54 53 62
f 62 53 54
f 54 63 57
f 57 63 54
f 59 64 55
f 55 64 59
f 60 55 64
f 64 55 60
f 60 65 56
f 56 65 60
f 59 56 66
f 66 56 59
f 58 57 63
f 63 57 58
f 61 58 67
f 67 58 61
f 62 53 61
f 61 53 62
f 63 54 62
f 62 54 63
f 64 59 66
f 66 59 64
f 60 64 68
f 68 64 60
f 65 60 68
f 68 60 65
f 66 56 65
f 65 56 66
f 58 63 67
f 67 63 58
f 67 69 61
f 61 69 67
f 62 61 69
f 69 61 62
f 62 70 63
f 63 70 62
f 66 71 64
f 64 71 66
f 68 64 71
f 71 64 68
f 68 72 65
f 65 72 68
f 66 65 73
f 73 65 66
f 67 63 74
f 74 63 67
f 69 67 74
f 74 67 69
f 62 69 75
f 75 69 62
f 70 62 75
f 75 62 70
f 74 63 70
f 70 63 74
f 71 66 73
f 73 66 71
f 68 71 76
f 76 71 68
f 72 68 76
f 76 68 72
f 73 65 72
f 72 65 73
f 77 69 74
f 74 69 77
f 75 69 78
f 78 69 75
f 75 79 70
f 70 79 75
f 74 70 77
f 77 70 74
f 73 80 71
f 71 80 73
f 76 71 80
f 80 71 76
f 76 81 72
f 72 81 76
f 73 72 82
f 82 72 73
f 69 77 78
f 78 77 69
f 75 78 83
f 83 78 75
f 79 75 84
f 84 75 79
f 85 70 79
f 79 70 85
f 77 70 86
f 86 70 77
f 80 73 82
f 82 73 80
f 76 80 87
f 87 80 76
f 81 76 87
f 87 76 81
f 82 72 81
f 81 72 82
f 86 78 77
f 77 78 86
f 78 86 83
f 83 86 78
f 83 88 75
f 75 88 83
f 75 88 84
f 84 88 75
f 89 79 84
f 84 79 89
f 85 86 70
f 70 86 85
f 85 79 90
f 90 79 85
f 91 80 82
f 82 80 91
f 87 80 92
f 92 80 87
f 87 91 81
f 81 91 87
f 82 81 91
f 91 81 82
f 93 83 86
f 86 83 93
f 83 94 88
f 88 94 83
f 84 88 95
f 95 88 84
f 79 89 96
f 96 89 79
f 84 97 89
f 89 97 84
f 98 86 85
f 85 86 98
f 90 79 99
f 99 79 90
f 90 88 85
f 85 88 90
f 80 91 92
f 92 91 80
f 91 87 92
f 92 87 91
f 83 93 100
f 100 93 83
f 98 93 86
f 86 93 98
f 100 94 83
f 83 94 100
f 98 88 94
f 94 88 98
f 88 90 95
f 95 90 88
f 84 95 97
f 97 95 84
f 101 96 89
f 89 96 101
f 99 79 96
f 96 79 99
f 89 97 102
f 102 97 89
f 88 98 85
f 85 98 88
f 99 95 90
f 90 95 99
f 103 100 93
f 93 100 103
f 98 103 93
f 93 103 98
f 104 94 100
f 100 94 104
f 94 105 98
f 98 105 94
f 95 99 97
f 97 99 95
f 96 101 106
f 106 101 96
f 89 102 101
f 101 102 89
f 99 96 107
f 107 96 99
f 97 107 102
f 102 107 97
f 100 103 104
f 104 103 100
f 105 103 98
f 98 103 105
f 104 108 94
f 94 108 104
f 105 94 108
f 108 94 105
f 107 97 99
f 99 97 107
f 102 106 101
f 101 106 102
f 107 96 106
f 106 96 107
f 106 102 107
f 107 102 106
f 103 109 104
f 104 109 103
f 105 110 103
f 103 110 105
f 109 108 104
f 104 108 109
f 108 111 105
f 105 111 108
f 109 103 110
f 110 103 109
f 105 112 110
f 110 112 105
f 113 108 109
f 109 108 113
f 111 108 114
f 114 108 111
f 111 112 105
f 105 112 111
f 110 113 109
f 109 113 110
f 113 110 112
f 112 110 113
f 113 114 108
f 108 114 113
f 114 115 111
f 111 115 114
f 115 112 111
f 111 112 115
f 112 116 113
f 113 116 112
f 113 117 114
f 114 117 113
f 115 114 117
f 117 114 115
f 115 118 112
f 112 118 115
f 116 112 118
f 118 112 116
f 116 117 113
f 113 117 116
f 117 119 115
f 115 119 117
f 115 120 118
f 118 120 115
f 118 121 116
f 116 121 118
f 121 117 116
f 116 117 121
f 119 117 122
f 122 117 119
f 119 120 115
f 115 120 119
f 121 118 120
f 120 118 121
f 121 122 117
f 117 122 121
f 122 123 119
f 119 123 122
f 119 124 120
f 120 124 119
f 120 125 121
f 121 125 120
f 125 122 121
f 121 122 125
f 123 122 126
f 126 122 123
f 123 124 119
f 119 124 123
f 125 120 124
f 124 120 125
f 125 126 122
f 122 126 125
f 126 127 123
f 123 127 126
f 123 128 124
f 124 128 123
f 124 129 125
f 125 129 124
f 129 126 125
f 125 126 129
f 127 126 130
f 130 126 127
f 127 131 123
f 123 131 127
f 123 131 128
f 128 131 123
f 129 124 128
f 128 124 129
f 132 126 129
f 129 126 132
f 126 133 130
f 130 133 126
f 133 127 130
f 130 127 133
f 131 127 134
f 134 127 131
f 132 128 131
f 131 128 132
f 128 132 129
f 129 132 128
f 133 126 132
f 132 126 133
f 127 133 134
f 134 133 127
f 133 131 134
f 134 131 133
f 131 133 132
f 132 133 131
f 135 136 137
f 136 135 138
f 137 136 135
f 138 135 136
f 139 137 136
f 136 137 139
f 140 135 137
f 137 135 140
f 138 135 141
f 141 135 138
f 142 136 138
f 138 136 142
f 139 143 137
f 137 143 139
f 139 136 144
f 144 136 139
f 135 140 145
f 145 140 135
f 143 140 137
f 137 140 143
f 145 141 135
f 135 141 145
f 138 141 146
f 146 141 138
f 136 142 147
f 147 142 136
f 138 148 142
f 142 148 138
f 149 143 139
f 139 143 149
f 136 150 144
f 144 150 136
f 139 144 151
f 151 144 139
f 140 142 145
f 145 142 140
f 140 143 152
f 152 143 140
f 141 145 153
f 153 145 141
f 146 141 154
f 154 141 146
f 148 138 146
f 146 138 148
f 142 140 147
f 147 140 142
f 150 136 147
f 147 136 150
f 153 142 148
f 148 142 153
f 143 149 155
f 155 149 143
f 156 149 139
f 139 149 156
f 150 157 144
f 144 157 150
f 157 151 144
f 144 151 157
f 151 156 139
f 139 156 151
f 145 142 153
f 153 142 145
f 143 158 152
f 152 158 143
f 152 147 140
f 140 147 152
f 153 154 141
f 141 154 153
f 146 154 159
f 159 154 146
f 146 160 148
f 148 160 146
f 152 150 147
f 147 150 152
f 153 148 161
f 161 148 153
f 149 158 155
f 155 158 149
f 158 143 155
f 155 143 158
f 149 156 162
f 162 156 149
f 157 150 163
f 163 150 157
f 151 157 164
f 164 157 151
f 156 151 165
f 165 151 156
f 158 156 152
f 152 156 158
f 154 153 161
f 161 153 154
f 159 154 166
f 166 154 159
f 160 146 159
f 159 146 160
f 161 148 160
f 160 148 161
f 152 165 150
f 150 165 152
f 158 149 162
f 162 149 158
f 156 158 162
f 162 158 156
f 150 167 163
f 163 167 150
f 163 168 157
f 157 168 163
f 164 157 168
f 168 157 164
f 167 151 164
f 164 151 167
f 151 167 165
f 165 167 151
f 152 156 165
f 165 156 152
f 161 166 154
f 154 166 161
f 159 166 169
f 169 166 159
f 159 170 160
f 160 170 159
f 161 160 171
f 171 160 161
f 167 150 165
f 165 150 167
f 163 167 172
f 172 167 163
f 168 163 172
f 172 163 168
f 164 168 173
f 173 168 164
f 164 174 167
f 167 174 164
f 166 161 171
f 171 161 166
f 169 166 175
f 175 166 169
f 170 159 169
f 169 159 170
f 171 160 170
f 170 160 171
f 172 167 174
f 174 167 172
f 172 176 168
f 168 176 172
f 173 168 176
f 176 168 173
f 174 164 173
f 173 164 174
f 171 175 166
f 166 175 171
f 169 175 177
f 177 175 169
f 169 178 170
f 170 178 169
f 171 170 179
f 179 170 171
f 172 174 180
f 180 174 172
f 176 172 180
f 180 172 176
f 173 176 181
f 181 176 173
f 173 182 174
f 174 182 173
f 175 171 179
f 179 171 175
f 177 175 183
f 183 175 177
f 178 169 177
f 177 169 178
f 179 170 178
f 178 170 179
f 180 174 182
f 182 174 180
f 180 184 176
f 176 184 180
f 181 176 184
f 184 176 181
f 182 173 181
f 181 173 182
f 179 185 175
f 175 185 179
f 183 175 185
f 185 175 183
f 186 177 183
f 183 177 186
f 177 186 178
f 178 186 177
f 179 178 186
f 186 178 179
f 180 182 187
f 187 182 180
f 184 180 187
f 187 180 184
f 181 184 188
f 188 184 181
f 181 189 182
f 182 189 181
f 185 179 190
f 190 179 185
f 183 185 191
f 191 185 183
f 191 186 183
f 183 186 191
f 179 186 190
f 190 186 179
f 187 182 189
f 189 182 187
f 187 192 184
f 184 192 187
f 188 184 192
f 192 184 188
f 189 181 188
f 188 181 189
f 190 193 185
f 185 193 190
f 191 185 194
f 194 185 191
f 186 191 195
f 195 191 186
f 190 186 195
f 195 186 190
f 187 189 196
f 196 189 187
f 192 187 196
f 196 187 192
f 188 192 197
f 197 192 188
f 188 198 189
f 189 198 188
f 193 190 199
f 199 190 193
f 194 185 193
f 193 185 194
f 194 195 191
f 191 195 194
f 190 195 200
f 200 195 190
f 196 189 201
f 201 189 196
f 201 192 196
f 196 192 201
f 192 201 197
f 197 201 192
f 188 197 202
f 202 197 188
f 198 188 202
f 202 188 198
f 201 189 198
f 198 189 201
f 190 200 199
f 199 200 190
f 203 193 199
f 199 193 203
f 194 193 204
f 204 193 194
f 195 194 200
f 200 194 195
f 205 197 201
f 201 197 205
f 202 197 206
f 206 197 202
f 207 198 202
f 202 198 207
f 201 198 205
f 205 198 201
f 199 200 208
f 208 200 199
f 193 203 209
f 209 203 193
f 199 210 203
f 203 210 199
f 207 204 193
f 193 204 207
f 204 200 194
f 194 200 204
f 197 205 206
f 206 205 197
f 202 206 211
f 211 206 202
f 198 207 210
f 210 207 198
f 202 204 207
f 207 204 202
f 205 198 212
f 212 198 205
f 200 204 208
f 208 204 200
f 208 210 199
f 199 210 208
f 213 209 203
f 203 209 213
f 207 193 209
f 209 193 207
f 203 210 214
f 214 210 203
f 212 206 205
f 205 206 212
f 206 212 211
f 211 212 206
f 202 211 204
f 204 211 202
f 215 210 207
f 207 210 215
f 208 198 210
f 210 198 208
f 212 198 208
f 208 198 212
f 211 208 204
f 204 208 211
f 209 213 216
f 216 213 209
f 203 214 213
f 213 214 203
f 207 209 215
f 215 209 207
f 210 215 214
f 214 215 210
f 208 211 212
f 212 211 208
f 217 216 213
f 213 216 217
f 215 209 216
f 216 209 215
f 213 214 218
f 218 214 213
f 219 214 215
f 215 214 219
f 216 217 220
f 220 217 216
f 213 218 217
f 217 218 213
f 215 216 219
f 219 216 215
f 214 219 218
f 218 219 214
f 221 220 217
f 217 220 221
f 219 216 220
f 220 216 219
f 217 218 222
f 222 218 217
f 223 218 219
f 219 218 223
f 220 221 224
f 224 221 220
f 217 222 221
f 221 222 217
f 219 220 223
f 223 220 219
f 218 223 222
f 222 223 218
f 225 224 221
f 221 224 225
f 223 220 224
f 224 220 223
f 221 222 225
f 225 222 221
f 226 222 223
f 223 222 226
f 224 225 226
f 226 225 224
f 223 224 226
f 226 224 223
f 222 226 225
f 225 226 222
f 227 228 229
f 228 227 230
f 229 228 227
f 230 227 228
f 228 231 229
f 229 231 228
f 231 227 229
f 229 227 231
f 230 227 232
f 232 227 230
f 233 228 230
f 230 228 233
f 231 228 234
f 234 228 231
f 227 231 235
f 235 231 227
f 232 227 236
f 236 227 232
f 237 230 232
f 232 230 237
f 228 233 234
f 234 233 228
f 230 237 233
f 233 237 230
f 233 231 234
f 234 231 233
f 231 233 235
f 235 233 231
f 235 236 227
f 227 236 235
f 232 236 238
f 238 236 232
f 232 239 237
f 237 239 232
f 235 233 237
f 237 233 235
f 236 235 240
f 240 235 236
f 238 236 241
f 241 236 238
f 239 232 238
f 238 232 239
f 240 237 239
f 239 237 240
f 235 237 240
f 240 237 235
f 240 242 236
f 236 242 240
f 241 236 242
f 242 236 241
f 243 238 241
f 241 238 243
f 238 243 239
f 239 243 238
f 240 239 243
f 243 239 240
f 242 240 244
f 244 240 242
f 241 242 245
f 245 242 241
f 241 246 243
f 243 246 241
f 240 243 244
f 244 243 240
f 244 247 242
f 242 247 244
f 245 242 247
f 247 242 245
f 246 241 245
f 245 241 246
f 244 243 246
f 246 243 244
f 247 244 248
f 248 244 247
f 245 247 249
f 249 247 245
f 245 250 246
f 246 250 245
f 244 246 250
f 250 246 244
f 244 250 248
f 248 250 244
f 248 251 247
f 247 251 248
f 249 247 252
f 252 247 249
f 250 245 249
f 249 245 250
f 248 250 253
f 253 250 248
f 251 248 254
f 254 248 251
f 255 247 251
f 251 247 255
f 252 247 256
f 256 247 252
f 252 250 249
f 249 250 252
f 250 252 253
f 253 252 250
f 248 253 257
f 257 253 248
f 248 258 254
f 254 258 248
f 254 259 251
f 251 259 254
f 256 247 255
f 255 247 256
f 255 251 260
f 260 251 255
f 256 253 252
f 252 253 256
f 253 256 257
f 257 256 253
f 248 257 258
f 258 257 248
f 258 261 254
f 254 261 258
f 259 254 262
f 262 254 259
f 263 251 259
f 259 251 263
f 255 257 256
f 256 257 255
f 260 251 264
f 264 251 260
f 260 258 255
f 255 258 260
f 257 255 258
f 258 255 257
f 265 261 258
f 258 261 265
f 254 261 262
f 262 261 254
f 266 259 262
f 262 259 266
f 267 251 263
f 263 251 267
f 263 259 268
f 268 259 263
f 264 251 269
f 269 251 264
f 270 260 264
f 264 260 270
f 258 260 265
f 265 260 258
f 271 261 265
f 265 261 271
f 262 261 266
f 266 261 262
f 259 266 268
f 268 266 259
f 272 251 267
f 267 251 272
f 261 267 263
f 263 267 261
f 263 268 273
f 273 268 263
f 269 251 272
f 272 251 269
f 269 271 264
f 264 271 269
f 270 274 260
f 260 274 270
f 271 270 264
f 264 270 271
f 260 275 265
f 265 275 260
f 276 261 271
f 271 261 276
f 265 277 271
f 271 277 265
f 266 261 278
f 278 261 266
f 278 268 266
f 266 268 278
f 267 279 272
f 272 279 267
f 267 261 280
f 280 261 267
f 281 261 263
f 263 261 281
f 268 278 273
f 273 278 268
f 263 273 281
f 281 273 263
f 282 269 272
f 272 269 282
f 271 269 276
f 276 269 271
f 283 274 270
f 270 274 283
f 275 260 274
f 274 260 275
f 270 271 277
f 277 271 270
f 275 277 265
f 265 277 275
f 279 261 276
f 276 261 279
f 278 261 284
f 284 261 278
f 279 267 280
f 280 267 279
f 279 282 272
f 272 282 279
f 261 279 280
f 280 279 261
f 261 281 284
f 284 281 261
f 284 273 278
f 278 273 284
f 273 284 281
f 281 284 273
f 282 285 269
f 269 285 282
f 269 286 276
f 276 286 269
f 283 287 274
f 274 287 283
f 277 283 270
f 270 283 277
f 274 288 275
f 275 288 274
f 275 289 277
f 277 289 275
f 276 290 279
f 279 290 276
f 282 279 290
f 290 279 282
f 291 285 282
f 282 285 291
f 286 269 285
f 285 269 286
f 286 290 276
f 276 290 286
f 292 287 283
f 283 287 292
f 288 274 287
f 287 274 288
f 283 277 289
f 289 277 283
f 288 289 275
f 275 289 288
f 290 291 282
f 282 291 290
f 291 293 285
f 285 293 291
f 285 294 286
f 286 294 285
f 286 295 290
f 290 295 286
f 296 287 292
f 292 287 296
f 289 292 283
f 283 292 289
f 287 297 288
f 288 297 287
f 288 298 289
f 289 298 288
f 291 290 295
f 295 290 291
f 299 293 291
f 291 293 299
f 294 285 293
f 293 285 294
f 294 295 286
f 286 295 294
f 300 287 296
f 296 287 300
f 298 296 292
f 292 296 298
f 292 289 298
f 298 289 292
f 297 287 301
f 301 287 297
f 297 302 288
f 288 302 297
f 288 303 298
f 298 303 288
f 295 299 291
f 291 299 295
f 299 304 293
f 293 304 299
f 293 305 294
f 294 305 293
f 294 306 295
f 295 306 294
f 300 301 287
f 287 301 300
f 296 302 300
f 300 302 296
f 296 298 303
f 303 298 296
f 301 307 297
f 297 307 301
f 297 308 302
f 302 308 297
f 288 302 303
f 303 302 288
f 299 295 306
f 306 295 299
f 309 304 299
f 299 304 309
f 305 293 304
f 304 293 305
f 305 306 294
f 294 306 305
f 310 301 300
f 300 301 310
f 302 296 303
f 303 296 302
f 308 300 302
f 302 300 308
f 307 301 311
f 311 301 307
f 307 312 297
f 297 312 307
f 297 312 308
f 308 312 297
f 306 309 299
f 299 309 306
f 309 313 304
f 304 313 309
f 304 314 305
f 305 314 304
f 305 315 306
f 306 315 305
f 316 301 310
f 310 301 316
f 300 308 310
f 310 308 300
f 316 311 301
f 301 311 316
f 317 307 311
f 311 307 317
f 307 318 312
f 312 318 307
f 319 308 312
f 312 308 319
f 309 306 315
f 315 306 309
f 320 313 309
f 309 313 320
f 314 304 313
f 313 304 314
f 314 315 305
f 305 315 314
f 310 321 316
f 316 321 310
f 322 310 308
f 308 310 322
f 323 311 316
f 316 311 323
f 307 317 324
f 324 317 307
f 325 317 311
f 311 317 325
f 307 326 318
f 318 326 307
f 323 312 318
f 318 312 323
f 308 319 322
f 322 319 308
f 316 319 312
f 312 319 316
f 315 320 309
f 309 320 315
f 320 327 313
f 313 327 320
f 313 328 314
f 314 328 313
f 314 329 315
f 315 329 314
f 321 310 330
f 330 310 321
f 319 316 321
f 321 316 319
f 310 322 330
f 330 322 310
f 325 311 323
f 323 311 325
f 312 323 316
f 316 323 312
f 331 324 317
f 317 324 331
f 324 326 307
f 307 326 324
f 332 317 325
f 325 317 332
f 326 323 318
f 318 323 326
f 322 319 328
f 328 319 322
f 320 315 329
f 329 315 320
f 321 327 320
f 320 327 321
f 328 313 327
f 327 313 328
f 328 329 314
f 314 329 328
f 321 330 327
f 327 330 321
f 321 329 319
f 319 329 321
f 328 330 322
f 322 330 328
f 323 326 325
f 325 326 323
f 324 331 333
f 333 331 324
f 332 331 317
f 317 331 332
f 324 334 326
f 326 334 324
f 325 334 332
f 332 334 325
f 328 319 329
f 329 319 328
f 329 321 320
f 320 321 329
f 330 328 327
f 327 328 330
f 334 325 326
f 326 325 334
f 335 333 331
f 331 333 335
f 333 334 324
f 324 334 333
f 336 331 332
f 332 331 336
f 337 332 334
f 334 332 337
f 333 335 338
f 338 335 333
f 331 336 335
f 335 336 331
f 333 337 334
f 334 337 333
f 332 337 336
f 336 337 332
f 336 338 335
f 335 338 336
f 337 333 338
f 338 333 337
f 338 336 337
f 337 336 338
f 339 340 341
f 340 339 342
f 341 340 339
f 342 339 340
f 340 343 341
f 341 343 340
f 341 344 339
f 339 344 341
f 339 345 342
f 342 345 339
f 340 342 346
f 346 342 340
f 343 340 347
f 347 340 343
f 344 341 343
f 343 341 344
f 345 339 344
f 344 339 345
f 348 342 345
f 345 342 348
f 346 342 349
f 349 342 346
f 346 347 340
f 340 347 346
f 347 344 343
f 343 344 347
f 344 347 345
f 345 347 344
f 342 348 349
f 349 348 342
f 345 350 348
f 348 350 345
f 346 349 351
f 351 349 346
f 347 346 350
f 350 346 347
f 345 347 350
f 350 347 345
f 352 349 348
f 348 349 352
f 348 350 353
f 353 350 348
f 351 349 354
f 354 349 351
f 351 350 346
f 346 350 351
f 349 352 354
f 354 352 349
f 348 353 352
f 352 353 348
f 350 351 353
f 353 351 350
f 351 354 355
f 355 354 351
f 352 356 354
f 354 356 352
f 352 353 357
f 357 353 352
f 355 353 351
f 351 353 355
f 355 354 356
f 356 354 355
f 356 352 358
f 358 352 356
f 353 355 357
f 357 355 353
f 352 357 358
f 358 357 352
f 355 356 359
f 359 356 355
f 358 360 356
f 356 360 358
f 355 361 357
f 357 361 355
f 358 357 362
f 362 357 358
f 359 356 363
f 363 356 359
f 364 355 359
f 359 355 364
f 360 358 365
f 365 358 360
f 366 356 360
f 360 356 366
f 361 355 367
f 367 355 361
f 368 357 361
f 361 357 368
f 362 357 369
f 369 357 362
f 358 362 370
f 370 362 358
f 363 356 366
f 366 356 363
f 363 362 359
f 359 362 363
f 371 355 364
f 364 355 371
f 372 364 359
f 359 364 372
f 358 373 365
f 365 373 358
f 365 374 360
f 360 374 365
f 366 360 375
f 375 360 366
f 355 371 367
f 367 371 355
f 367 376 361
f 361 376 367
f 357 368 369
f 369 368 357
f 368 361 377
f 377 361 368
f 378 362 369
f 369 362 378
f 362 363 370
f 370 363 362
f 358 370 373
f 373 370 358
f 366 370 363
f 363 370 366
f 362 372 359
f 359 372 362
f 364 368 371
f 371 368 364
f 364 372 379
f 379 372 364
f 365 373 380
f 380 373 365
f 374 365 381
f 381 365 374
f 375 360 374
f 374 360 375
f 380 366 375
f 375 366 380
f 367 371 382
f 382 371 367
f 376 367 383
f 383 367 376
f 384 361 376
f 376 361 384
f 368 364 369
f 369 364 368
f 377 361 384
f 384 361 377
f 377 371 368
f 368 371 377
f 362 378 385
f 385 378 362
f 364 378 369
f 369 378 364
f 370 366 373
f 373 366 370
f 372 362 385
f 385 362 372
f 379 372 386
f 386 372 379
f 378 364 379
f 379 364 378
f 366 380 373
f 373 380 366
f 365 380 381
f 381 380 365
f 381 387 374
f 374 387 381
f 375 374 388
f 388 374 375
f 375 389 380
f 380 389 375
f 371 377 382
f 382 377 371
f 367 382 390
f 390 382 367
f 367 390 383
f 383 390 367
f 383 391 376
f 376 391 383
f 384 376 392
f 392 376 384
f 384 382 377
f 377 382 384
f 385 378 393
f 393 378 385
f 394 372 385
f 385 372 394
f 372 395 386
f 386 395 372
f 379 386 396
f 396 386 379
f 397 378 379
f 379 378 397
f 381 380 389
f 389 380 381
f 387 381 398
f 398 381 387
f 388 374 387
f 387 374 388
f 389 375 388
f 388 375 389
f 382 384 390
f 390 384 382
f 383 390 399
f 399 390 383
f 391 383 400
f 400 383 391
f 401 376 391
f 391 376 401
f 392 376 401
f 401 376 392
f 392 390 384
f 384 390 392
f 393 378 402
f 402 378 393
f 403 385 393
f 393 385 403
f 372 394 404
f 404 394 372
f 403 394 385
f 385 394 403
f 404 395 372
f 372 395 404
f 403 386 395
f 395 386 403
f 386 402 396
f 396 402 386
f 379 396 405
f 405 396 379
f 378 397 406
f 406 397 378
f 379 407 397
f 397 407 379
f 381 389 398
f 398 389 381
f 398 408 387
f 387 408 398
f 388 387 409
f 409 387 388
f 388 410 389
f 389 410 388
f 390 392 399
f 399 392 390
f 383 399 411
f 411 399 383
f 383 411 400
f 400 411 383
f 400 412 391
f 391 412 400
f 401 391 413
f 413 391 401
f 411 392 401
f 401 392 411
f 402 378 414
f 414 378 402
f 402 386 393
f 393 386 402
f 386 403 393
f 393 403 386
f 415 404 394
f 394 404 415
f 403 415 394
f 394 415 403
f 416 395 404
f 404 395 416
f 395 417 403
f 403 417 395
f 414 396 402
f 402 396 414
f 396 414 405
f 405 414 396
f 379 405 407
f 407 405 379
f 407 406 397
f 397 406 407
f 418 378 406
f 406 378 418
f 398 389 410
f 410 389 398
f 408 398 419
f 419 398 408
f 420 387 408
f 408 387 420
f 409 387 420
f 420 387 409
f 410 388 409
f 409 388 410
f 392 411 399
f 399 411 392
f 400 411 421
f 421 411 400
f 412 400 422
f 422 400 412
f 423 391 412
f 412 391 423
f 413 391 423
f 423 391 413
f 421 401 413
f 413 401 421
f 401 421 411
f 411 421 401
f 414 378 418
f 418 378 414
f 404 415 416
f 416 415 404
f 417 415 403
f 403 415 417
f 416 424 395
f 395 424 416
f 417 395 424
f 424 395 417
f 418 405 414
f 414 405 418
f 405 418 407
f 407 418 405
f 406 407 418
f 418 407 406
f 398 410 425
f 425 410 398
f 398 425 419
f 419 425 398
f 419 424 408
f 408 424 419
f 420 408 426
f 426 408 420
f 425 409 420
f 420 409 425
f 409 425 410
f 410 425 409
f 400 421 427
f 427 421 400
f 400 427 422
f 422 427 400
f 422 428 412
f 412 428 422
f 423 412 429
f 429 412 423
f 427 413 423
f 423 413 427
f 413 427 421
f 421 427 413
f 415 430 416
f 416 430 415
f 417 431 415
f 415 431 417
f 430 424 416
f 416 424 430
f 424 419 417
f 417 419 424
f 419 425 432
f 432 425 419
f 426 408 424
f 424 408 426
f 432 420 426
f 426 420 432
f 420 432 425
f 425 432 420
f 422 427 433
f 433 427 422
f 428 422 434
f 434 422 428
f 435 412 428
f 428 412 435
f 429 412 435
f 435 412 429
f 433 423 429
f 429 423 433
f 423 433 427
f 427 433 423
f 430 415 431
f 431 415 430
f 417 432 431
f 431 432 417
f 426 424 430
f 430 424 426
f 419 432 417
f 417 432 419
f 426 431 432
f 432 431 426
f 422 433 436
f 436 433 422
f 422 436 434
f 434 436 422
f 434 437 428
f 428 437 434
f 435 428 437
f 437 428 435
f 436 429 435
f 435 429 436
f 429 436 433
f 433 436 429
f 431 426 430
f 430 426 431
f 434 436 438
f 438 436 434
f 437 434 438
f 438 434 437
f 435 437 439
f 439 437 435
f 435 440 436
f 436 440 435
f 438 436 440
f 440 436 438
f 438 441 437
f 437 441 438
f 439 437 441
f 441 437 439
f 440 435 439
f 439 435 440
f 438 440 442
f 442 440 438
f 441 438 442
f 442 438 441
f 439 441 443
f 443 441 439
f 439 444 440
f 440 444 439
f 442 440 444
f 444 440 442
f 442 445 441
f 441 445 442
f 443 441 445
f 445 441 443
f 444 439 443
f 443 439 444
f 442 444 446
f 446 444 442
f 445 442 446
f 446 442 445
f 443 445 447
f 447 445 443
f 443 448 444
f 444 448 443
f 446 444 448
f 448 444 446
f 449 445 446
f 446 445 449
f 447 445 450
f 450 445 447
f 448 443 447
f 447 443 448
f 446 448 449
f 449 448 446
f 445 449 450
f 450 449 445
f 449 447 450
f 450 447 449
f 447 449 448
f 448 449 447
f 451 452 453
f 452 451 454
f 453 452 451
f 454 451 452
f 452 455 453
f 453 455 452
f 453 456 451
f 451 456 453
f 454 451 457
f 457 451 454
f 454 458 452
f 452 458 454
f 455 452 458
f 458 452 455
f 456 453 455
f 455 453 456
f 459 451 456
f 456 451 459
f 451 459 457
f 457 459 451
f 454 457 460
f 460 457 454
f 458 454 461
f 461 454 458
f 458 456 455
f 455 456 458
f 456 461 459
f 459 461 456
f 462 457 459
f 459 457 462
f 460 457 463
f 463 457 460
f 460 461 454
f 454 461 460
f 456 458 461
f 461 458 456
f 459 461 464
f 464 461 459
f 457 462 463
f 463 462 457
f 459 464 462
f 462 464 459
f 460 463 465
f 465 463 460
f 461 460 464
f 464 460 461
f 466 463 462
f 462 463 466
f 462 464 467
f 467 464 462
f 465 463 468
f 468 463 465
f 465 464 460
f 460 464 465
f 463 466 468
f 468 466 463
f 462 467 466
f 466 467 462
f 464 465 467
f 467 465 464
f 465 468 469
f 469 468 465
f 466 469 468
f 468 469 466
f 466 467 470
f 470 467 466
f 465 470 467
f 467 470 465
f 465 469 471
f 471 469 465
f 469 466 472
f 472 466 469
f 466 470 473
f 473 470 466
f 470 465 474
f 474 465 470
f 471 469 475
f 475 469 471
f 471 474 465
f 465 474 471
f 473 472 466
f 466 472 473
f 472 476 469
f 469 476 472
f 473 470 477
f 477 470 473
f 474 478 470
f 470 478 474
f 475 469 479
f 479 469 475
f 475 473 471
f 471 473 475
f 474 471 480
f 480 471 474
f 472 473 481
f 481 473 472
f 476 472 482
f 482 472 476
f 483 469 476
f 476 469 483
f 477 470 484
f 484 470 477
f 477 471 473
f 473 471 477
f 478 474 485
f 485 474 478
f 486 470 478
f 478 470 486
f 479 469 483
f 483 469 479
f 479 481 475
f 475 481 479
f 473 475 481
f 481 475 473
f 471 477 480
f 480 477 471
f 474 480 487
f 487 480 474
f 472 481 488
f 488 481 472
f 472 489 482
f 482 489 472
f 482 490 476
f 476 490 482
f 483 476 491
f 491 476 483
f 484 470 486
f 486 470 484
f 484 480 477
f 477 480 484
f 474 492 485
f 485 492 474
f 485 493 478
f 478 493 485
f 486 478 494
f 494 478 486
f 483 488 479
f 479 488 483
f 481 479 488
f 488 479 481
f 480 484 487
f 487 484 480
f 474 487 492
f 492 487 474
f 472 488 489
f 489 488 472
f 482 489 495
f 495 489 482
f 490 482 496
f 496 482 490
f 497 476 490
f 490 476 497
f 491 476 497
f 497 476 491
f 491 489 483
f 483 489 491
f 486 487 484
f 484 487 486
f 485 492 498
f 498 492 485
f 493 485 499
f 499 485 493
f 500 478 493
f 493 478 500
f 494 478 500
f 500 478 494
f 494 492 486
f 486 492 494
f 488 483 489
f 489 483 488
f 487 486 492
f 492 486 487
f 489 491 495
f 495 491 489
f 482 495 501
f 501 495 482
f 482 501 496
f 496 501 482
f 496 502 490
f 490 502 496
f 497 490 503
f 503 490 497
f 497 495 491
f 491 495 497
f 492 494 498
f 498 494 492
f 485 498 504
f 504 498 485
f 485 504 499
f 499 504 485
f 499 505 493
f 493 505 499
f 500 493 506
f 506 493 500
f 500 498 494
f 494 498 500
f 495 497 501
f 501 497 495
f 496 501 507
f 507 501 496
f 502 496 508
f 508 496 502
f 509 490 502
f 502 490 509
f 503 490 509
f 509 490 503
f 507 497 503
f 503 497 507
f 498 500 504
f 504 500 498
f 499 504 510
f 510 504 499
f 505 499 511
f 511 499 505
f 512 493 505
f 505 493 512
f 506 493 512
f 512 493 506
f 510 500 506
f 506 500 510
f 497 507 501
f 501 507 497
f 496 507 513
f 513 507 496
f 496 513 508
f 508 513 496
f 508 514 502
f 502 514 508
f 509 502 515
f 515 502 509
f 513 503 509
f 509 503 513
f 503 513 507
f 507 513 503
f 500 510 504
f 504 510 500
f 499 510 516
f 516 510 499
f 499 516 511
f 511 516 499
f 511 517 505
f 505 517 511
f 512 505 518
f 518 505 512
f 516 506 512
f 512 506 516
f 506 516 510
f 510 516 506
f 508 513 519
f 519 513 508
f 514 508 520
f 520 508 514
f 521 502 514
f 514 502 521
f 515 502 521
f 521 502 515
f 519 509 515
f 515 509 519
f 509 519 513
f 513 519 509
f 511 516 522
f 522 516 511
f 517 511 523
f 523 511 517
f 524 505 517
f 517 505 524
f 518 505 524
f 524 505 518
f 522 512 518
f 518 512 522
f 512 522 516
f 516 522 512
f 508 519 525
f 525 519 508
f 508 525 520
f 520 525 508
f 520 526 514
f 514 526 520
f 521 514 526
f 526 514 521
f 525 515 521
f 521 515 525
f 515 525 519
f 519 525 515
f 511 522 527
f 527 522 511
f 511 527 523
f 523 527 511
f 523 528 517
f 517 528 523
f 524 517 529
f 529 517 524
f 527 518 524
f 524 518 527
f 518 527 522
f 522 527 518
f 520 525 530
f 530 525 520
f 526 520 530
f 530 520 526
f 521 526 531
f 531 526 521
f 521 532 525
f 525 532 521
f 523 527 533
f 533 527 523
f 528 523 534
f 534 523 528
f 529 517 528
f 528 517 529
f 533 524 529
f 529 524 533
f 524 533 527
f 527 533 524
f 530 525 532
f 532 525 530
f 530 535 526
f 526 535 530
f 531 526 535
f 535 526 531
f 532 521 531
f 531 521 532
f 523 533 534
f 534 533 523
f 534 536 528
f 528 536 534
f 529 528 537
f 537 528 529
f 529 538 533
f 533 538 529
f 530 532 539
f 539 532 530
f 535 530 539
f 539 530 535
f 531 535 540
f 540 535 531
f 531 541 532
f 532 541 531
f 534 533 538
f 538 533 534
f 536 534 542
f 542 534 536
f 537 528 536
f 536 528 537
f 538 529 537
f 537 529 538
f 539 532 541
f 541 532 539
f 543 535 539
f 539 535 543
f 540 535 544
f 544 535 540
f 541 531 540
f 540 531 541
f 534 538 542
f 542 538 534
f 542 545 536
f 536 545 542
f 537 536 546
f 546 536 537
f 537 547 538
f 538 547 537
f 539 541 548
f 548 541 539
f 535 543 549
f 549 543 535
f 539 548 543
f 543 548 539
f 544 535 549
f 549 535 544
f 548 540 544
f 544 540 548
f 540 548 541
f 541 548 540
f 542 538 547
f 547 538 542
f 545 542 550
f 550 542 545
f 546 536 545
f 545 536 546
f 547 537 546
f 546 537 547
f 543 544 549
f 549 544 543
f 544 543 548
f 548 543 544
f 542 547 550
f 550 547 542
f 551 545 550
f 550 545 551
f 546 545 552
f 552 545 546
f 546 551 547
f 547 551 546
f 550 547 551
f 551 547 550
f 545 551 552
f 552 551 545
f 551 546 552
f 552 546 551

