# https://github.com/mikedh/trimesh
v -0.50000000 -0.18313345 0.18669368
v -0.01073932 -0.18313345 0.17155548
v -0.01073932 -0.18313345 0.18669368
v -0.50000000 -0.18313345 0.17155548
v 0.35530134 -0.26238278 0.17155548
v 0.40081064 -0.18238535 0.18669368
v -0.50000000 0.26238278 0.17155548
v 0.40081064 -0.18238535 0.17155548
v 0.35530134 -0.26238278 0.18669368
v 0.37905071 -0.22294968 0.17155548
v 0.42052828 -0.14078942 0.18669368
v 0.37905071 -0.22294968 0.18669368
v -0.50000000 0.26238278 0.18669368
v 0.49978091 0.21149089 0.17155548
v 0.42052828 -0.14078942 0.17155548
v 0.43815466 -0.09826538 0.18669368
v 0.49978091 0.26238278 0.18669368
v 0.49978091 0.26238278 0.17155548
v 0.49793075 0.17036452 0.17155548
v 0.43815466 -0.09826538 0.17155548
v 0.45364627 -0.05491782 0.18669368
v 0.49978091 0.21149089 0.18669368
v 0.49357920 0.12453815 0.17155548
v 0.45364627 -0.05491782 0.17155548
v 0.46696459 -0.01085409 0.18669368
v 0.49793075 0.17036452 0.18669368
v 0.50000000 0.21635053 0.18669368
v 0.48695582 0.07898482 0.17155548
v 0.46696459 -0.01085409 0.17155548
v 0.47807713 0.03381682 0.18669368
v 0.49357920 0.12453815 0.18669368
v 0.47807713 0.03381682 0.17155548
v 0.48695582 0.07898482 0.18669368
v -0.40274943 0.03676244 0.17155548
v -0.40361588 0.03017925 -0.18669368
v -0.40274943 0.03676244 -0.18669368
v -0.40361588 0.03017925 0.17155548
v -0.45361765 0.03676244 -0.18669368
v -0.40361588 0.04334508 0.17155548
v -0.45275119 0.03017925 0.17155548
v -0.40615690 0.02404525 -0.18669368
v -0.40361588 0.04334508 -0.18669368
v -0.45275119 0.03017925 -0.18669368
v -0.45361765 0.03676244 0.17155548
v -0.45021017 0.02404525 0.17155548
v -0.40615690 0.02404525 0.17155548
v -0.45021017 0.02404525 -0.18669368
v -0.45275119 0.04334508 -0.18669368
v -0.40615690 0.04947908 0.17155548
v -0.45275119 0.04334508 0.17155548
v -0.41019853 0.01877770 -0.18669368
v -0.44616800 0.01877770 -0.18669368
v -0.40615690 0.04947908 -0.18669368
v -0.44616800 0.01877770 0.17155548
v -0.41019853 0.01877770 0.17155548
v -0.45021017 0.04947908 -0.18669368
v -0.41019853 0.05474718 0.17155548
v -0.45021017 0.04947908 0.17155548
v -0.41546607 0.01473553 0.17155548
v -0.41546607 0.01473553 -0.18669368
v -0.44090045 0.01473553 -0.18669368
v -0.44616800 0.05474718 -0.18669368
v -0.41019853 0.05474718 -0.18669368
v -0.44090045 0.01473553 0.17155548
v -0.41546607 0.05878880 -0.18669368
v -0.44616800 0.05474718 0.17155548
v -0.42160062 0.01219451 0.17155548
v -0.43476645 0.01219451 0.17155548
v -0.42160062 0.01219451 -0.18669368
v -0.43476645 0.01219451 -0.18669368
v -0.44090045 0.05878880 -0.18669368
v -0.41546607 0.05878880 0.17155548
v -0.44090045 0.05878880 0.17155548
v -0.42160062 0.06132982 -0.18669368
v -0.43476645 0.06132982 -0.18669368
v -0.42818326 0.01132806 0.17155548
v -0.42818326 0.01132806 -0.18669368
v -0.43476645 0.06132982 0.17155548
v -0.42160062 0.06132982 0.17155548
v -0.42818326 0.06219627 -0.18669368
v -0.42818326 0.06219627 0.17155548
v 0.39241471 0.04049194 0.17155548
v 0.39327511 0.04084865 0.17155548
v 0.39708554 0.04378546 0.17155548
v 0.36784073 0.04084865 0.17155548
v 0.39708554 0.04378546 -0.18669368
v 0.36257319 0.04489028 0.17155548
v 0.37397528 0.03830764 0.17155548
v 0.39241471 0.04049194 -0.18669368
v 0.40151635 0.04910200 0.17155548
v 0.36784073 0.04084865 -0.18669368
v 0.37397528 0.03830764 -0.18669368
v 0.38714111 0.03830764 0.17155548
v 0.40151635 0.04910200 -0.18669368
v 0.39854266 0.04489028 0.17155548
v 0.35853156 0.05015782 0.17155548
v 0.36257319 0.04489028 -0.18669368
v 0.38055792 0.03744118 -0.18669368
v 0.38055792 0.03744118 0.17155548
v 0.38714111 0.03830764 -0.18669368
v 0.40442069 0.05538463 0.17155548
v 0.40258483 0.05015782 0.17155548
v 0.35853156 0.05015782 -0.18669368
v 0.40442069 0.05538463 -0.18669368
v 0.35599054 0.05629237 0.17155548
v 0.35599054 0.05629237 -0.18669368
v 0.40559926 0.06220398 0.17155548
v 0.40512530 0.05629237 0.17155548
v 0.40559926 0.06220398 -0.18669368
v 0.35512354 0.06287501 0.17155548
v 0.35512354 0.06287501 -0.18669368
v 0.40497337 0.06909654 0.17155548
v 0.40599231 0.06287501 0.17155548
v 0.40497337 0.06909654 -0.18669368
v 0.35599054 0.06945821 0.17155548
v 0.35599054 0.06945821 -0.18669368
v 0.40258483 0.07559221 0.17155548
v 0.40512530 0.06945821 0.17155548
v 0.40258483 0.07559221 -0.18669368
v 0.35853156 0.07559221 0.17155548
v 0.35853156 0.07559221 -0.18669368
v 0.39854266 0.08085975 0.17155548
v 0.39854266 0.08085975 -0.18669368
v 0.36257319 0.08085975 0.17155548
v 0.36257319 0.08085975 -0.18669368
v 0.39327511 0.08490193 -0.18669368
v 0.39327511 0.08490193 0.17155548
v 0.36784073 0.08490193 -0.18669368
v 0.36784073 0.08490193 0.17155548
v 0.38714111 0.08744294 -0.18669368
v 0.37397528 0.08744294 -0.18669368
v 0.38714111 0.08744294 0.17155548
v 0.37397528 0.08744294 0.17155548
v 0.38055792 0.08830940 -0.18669368
v 0.38055792 0.08830940 0.17155548
f 1 2 3
f 2 1 4
f 5 3 2
f 1 7 4
f 4 8 2
f 3 5 9
f 2 10 5
f 7 1 13
f 7 14 4
f 4 15 8
f 10 2 8
f 5 12 9
f 12 5 10
f 8 11 6
f 10 6 12
f 17 7 13
f 14 7 18
f 4 14 19
f 4 20 15
f 11 8 15
f 6 10 8
f 15 16 11
f 7 17 18
f 17 14 18
f 22 19 14
f 4 19 23
f 4 24 20
f 16 15 20
f 20 21 16
f 14 17 22
f 19 22 26
f 26 23 19
f 4 23 28
f 4 29 24
f 21 20 24
f 24 25 21
f 23 26 31
f 31 28 23
f 4 28 32
f 4 32 29
f 25 24 29
f 29 30 25
f 28 31 33
f 33 32 28
f 30 29 32
f 32 33 30
f 3 2 1
f 4 1 2
f 2 3 5
f 6 1 3
f 3 1 6
f 4 7 1
f 2 8 4
f 9 5 3
f 5 10 2
f 11 1 6
f 6 1 11
f 6 3 12
f 12 3 6
f 13 1 7
f 4 14 7
f 8 15 4
f 8 2 10
f 9 12 5
f 12 3 9
f 9 3 12
f 10 5 12
f 16 1 11
f 11 1 16
f 6 11 8
f 12 6 10
f 1 17 13
f 13 17 1
f 13 7 17
f 18 7 14
f 19 14 4
f 15 20 4
f 15 8 11
f 8 10 6
f 21 1 16
f 16 1 21
f 11 16 15
f 17 1 22
f 22 1 17
f 18 17 7
f 18 14 17
f 14 19 22
f 23 19 4
f 20 24 4
f 20 15 16
f 25 1 21
f 21 1 25
f 16 21 20
f 22 1 26
f 26 1 22
f 22 27 17
f 17 27 22
f 22 17 14
f 26 22 19
f 19 23 26
f 28 23 4
f 24 29 4
f 24 20 21
f 30 1 25
f 25 1 30
f 21 25 24
f 26 1 31
f 31 1 26
f 31 26 23
f 23 28 31
f 32 28 4
f 29 32 4
f 29 24 25
f 33 1 30
f 30 1 33
f 25 30 29
f 31 1 33
f 33 1 31
f 33 31 28
f 28 32 33
f 32 29 30
f 30 33 32
f 34 35 36
f 35 34 37
f 36 35 34
f 37 34 35
f 38 36 35
f 35 36 38
f 36 39 34
f 34 39 36
f 34 40 37
f 37 40 34
f 37 41 35
f 35 41 37
f 38 42 36
f 36 42 38
f 38 35 43
f 43 35 38
f 39 36 42
f 42 36 39
f 39 44 34
f 34 44 39
f 34 44 40
f 40 44 34
f 37 40 45
f 45 40 37
f 41 37 46
f 46 37 41
f 47 35 41
f 41 35 47
f 48 42 38
f 38 42 48
f 43 35 47
f 47 35 43
f 40 38 43
f 43 38 40
f 42 49 39
f 39 49 42
f 39 50 44
f 44 50 39
f 38 40 44
f 44 40 38
f 43 45 40
f 40 45 43
f 37 45 46
f 46 45 37
f 46 51 41
f 41 51 46
f 47 41 52
f 52 41 47
f 48 53 42
f 42 53 48
f 44 48 38
f 38 48 44
f 45 43 47
f 47 43 45
f 49 42 53
f 53 42 49
f 49 50 39
f 39 50 49
f 48 44 50
f 50 44 48
f 46 45 54
f 54 45 46
f 51 46 55
f 55 46 51
f 52 41 51
f 51 41 52
f 54 47 52
f 52 47 54
f 56 53 48
f 48 53 56
f 47 54 45
f 45 54 47
f 53 57 49
f 49 57 53
f 49 58 50
f 50 58 49
f 50 56 48
f 48 56 50
f 46 54 55
f 55 54 46
f 59 51 55
f 55 51 59
f 52 51 60
f 60 51 52
f 61 54 52
f 52 54 61
f 62 53 56
f 56 53 62
f 57 53 63
f 63 53 57
f 57 58 49
f 49 58 57
f 56 50 58
f 58 50 56
f 55 54 64
f 64 54 55
f 51 59 60
f 60 59 51
f 55 64 59
f 59 64 55
f 52 60 61
f 61 60 52
f 54 61 64
f 64 61 54
f 62 63 53
f 53 63 62
f 58 62 56
f 56 62 58
f 65 57 63
f 63 57 65
f 57 66 58
f 58 66 57
f 67 60 59
f 59 60 67
f 59 64 68
f 68 64 59
f 61 60 69
f 69 60 61
f 70 64 61
f 61 64 70
f 71 63 62
f 62 63 71
f 62 58 66
f 66 58 62
f 57 65 72
f 72 65 57
f 71 65 63
f 63 65 71
f 72 66 57
f 57 66 72
f 60 67 69
f 69 67 60
f 59 68 67
f 67 68 59
f 64 70 68
f 68 70 64
f 61 69 70
f 70 69 61
f 62 73 71
f 71 73 62
f 73 62 66
f 66 62 73
f 74 72 65
f 65 72 74
f 75 65 71
f 71 65 75
f 72 73 66
f 66 73 72
f 76 69 67
f 67 69 76
f 67 68 76
f 76 68 67
f 77 68 70
f 70 68 77
f 70 69 77
f 77 69 70
f 78 71 73
f 73 71 78
f 72 74 79
f 79 74 72
f 75 74 65
f 65 74 75
f 71 78 75
f 75 78 71
f 79 73 72
f 72 73 79
f 69 76 77
f 77 76 69
f 68 77 76
f 76 77 68
f 79 78 73
f 73 78 79
f 80 79 74
f 74 79 80
f 74 75 80
f 80 75 74
f 81 75 78
f 78 75 81
f 78 79 81
f 81 79 78
f 79 80 81
f 81 80 79
f 75 81 80
f 80 81 75
f 82 83 84
f 84 83 82
f 84 85 82
f 82 85 84
f 82 86 84
f 84 86 82
f 84 87 85
f 85 87 84
f 82 85 88
f 88 85 82
f 86 82 89
f 89 82 86
f 86 90 84
f 84 90 86
f 90 87 84
f 84 87 90
f 87 91 85
f 85 91 87
f 85 92 88
f 88 92 85
f 82 88 93
f 93 88 82
f 93 89 82
f 82 89 93
f 91 86 89
f 89 86 91
f 90 86 94
f 94 86 90
f 95 90 84
f 84 90 95
f 90 96 87
f 87 96 90
f 91 87 97
f 97 87 91
f 92 85 91
f 91 85 92
f 98 88 92
f 92 88 98
f 93 88 99
f 99 88 93
f 89 93 100
f 100 93 89
f 97 86 91
f 91 86 97
f 91 89 92
f 92 89 91
f 97 94 86
f 86 94 97
f 94 101 90
f 90 101 94
f 102 90 95
f 95 90 102
f 101 96 90
f 90 96 101
f 103 87 96
f 96 87 103
f 87 103 97
f 97 103 87
f 88 98 99
f 99 98 88
f 92 100 98
f 98 100 92
f 99 100 93
f 93 100 99
f 92 89 100
f 100 89 92
f 103 94 97
f 97 94 103
f 101 94 104
f 104 94 101
f 102 101 90
f 90 101 102
f 101 105 96
f 96 105 101
f 96 106 103
f 103 106 96
f 100 99 98
f 98 99 100
f 103 104 94
f 94 104 103
f 104 107 101
f 101 107 104
f 108 101 102
f 102 101 108
f 107 105 101
f 101 105 107
f 106 96 105
f 105 96 106
f 106 104 103
f 103 104 106
f 107 104 109
f 109 104 107
f 108 107 101
f 101 107 108
f 107 110 105
f 105 110 107
f 105 111 106
f 106 111 105
f 106 109 104
f 104 109 106
f 109 112 107
f 107 112 109
f 113 107 108
f 108 107 113
f 112 110 107
f 107 110 112
f 111 105 110
f 110 105 111
f 111 109 106
f 106 109 111
f 112 109 114
f 114 109 112
f 113 112 107
f 107 112 113
f 112 115 110
f 110 115 112
f 110 116 111
f 111 116 110
f 111 114 109
f 109 114 111
f 114 117 112
f 112 117 114
f 118 112 113
f 113 112 118
f 117 115 112
f 112 115 117
f 116 110 115
f 115 110 116
f 116 114 111
f 111 114 116
f 117 114 119
f 119 114 117
f 112 118 117
f 117 118 112
f 117 120 115
f 115 120 117
f 115 121 116
f 116 121 115
f 116 119 114
f 114 119 116
f 119 122 117
f 117 122 119
f 122 120 117
f 117 120 122
f 121 115 120
f 120 115 121
f 121 119 116
f 116 119 121
f 122 119 123
f 123 119 122
f 122 124 120
f 120 124 122
f 120 125 121
f 121 125 120
f 125 119 121
f 121 119 125
f 125 123 119
f 119 123 125
f 126 122 123
f 123 122 126
f 127 124 122
f 122 124 127
f 125 120 124
f 124 120 125
f 128 123 125
f 125 123 128
f 122 126 127
f 127 126 122
f 128 126 123
f 123 126 128
f 127 129 124
f 124 129 127
f 129 125 124
f 124 125 129
f 125 129 128
f 128 129 125
f 130 127 126
f 126 127 130
f 131 126 128
f 128 126 131
f 132 129 127
f 127 129 132
f 133 128 129
f 129 128 133
f 127 130 132
f 132 130 127
f 131 130 126
f 126 130 131
f 128 133 131
f 131 133 128
f 132 133 129
f 129 133 132
f 134 132 130
f 130 132 134
f 130 131 134
f 134 131 130
f 135 131 133
f 133 131 135
f 133 132 135
f 135 132 133
f 132 134 135
f 135 134 132
f 131 135 134
f 134 135 131

