# https://github.com/mikedh/trimesh
v 0.50000000 0.11672825 0.20138909
v 0.50000000 -0.25522477 0.18750012
v 0.50000000 0.11672825 0.18750012
v 0.50000000 -0.25522477 0.20138909
v 0.49561079 -0.25495013 0.18750012
v 0.48337478 0.11891712 0.18750012
v 0.49561079 -0.25495013 0.20138909
v -0.50000000 -0.25478445 0.18750012
v 0.48337478 0.11891712 0.20138909
v -0.48999237 0.11751268 0.18750012
v -0.50000000 -0.25478445 0.20138909
v -0.50000000 0.11725651 0.18750012
v -0.48337032 -0.25697396 0.18750012
v 0.47917356 -0.25826944 0.20138909
v 0.46788192 0.12533399 0.18750012
v -0.48999237 0.11751268 0.20138909
v -0.47391071 0.12226447 0.18750012
v -0.50000000 0.11725651 0.20138909
v -0.48337032 -0.25697396 0.20138909
v 0.47917356 -0.25826944 0.18750012
v 0.46788192 0.12533399 0.20138909
v -0.47391071 0.12226447 0.20138909
v -0.46787427 -0.26339273 0.18750012
v 0.46415606 -0.26573007 0.20138909
v -0.46787427 -0.26339273 0.20138909
v 0.45457792 0.13554234 0.18750012
v -0.45960755 0.13101676 0.18750012
v -0.45960755 0.13101676 0.20138909
v 0.46415606 -0.26573007 0.18750012
v 0.45457792 0.13554234 0.20138909
v -0.45456773 -0.27360363 0.18750012
v 0.45158105 -0.27682353 0.20138909
v -0.45456773 -0.27360363 0.20138909
v 0.44437021 0.14884633 0.20138909
v -0.44805656 0.14317312 0.18750012
v 0.45158105 -0.27682353 0.18750012
v 0.44437021 0.14884633 0.18750012
v -0.44805656 0.14317312 0.20138909
v -0.44435683 -0.28691018 0.18750012
v 0.44230560 -0.29079407 0.18750012
v -0.44435683 -0.28691018 0.20138909
v 0.43795271 0.16433856 0.20138909
v -0.44004536 0.15790513 0.20138909
v -0.44004536 0.15790513 0.18750012
v 0.44230560 -0.29079407 0.20138909
v 0.43795271 0.16433856 0.18750012
v -0.43793805 -0.30240623 0.18750012
v -0.43793805 -0.30240623 0.20138909
v 0.43696182 -0.30668838 0.18750012
v 0.43576384 0.18096442 0.20138909
v -0.43612005 0.17420791 0.20138909
v -0.43612005 0.17420791 0.18750012
v 0.43696182 -0.30668838 0.20138909
v 0.43576384 0.18096442 0.18750012
v -0.43574855 -0.31903590 0.18750012
v -0.43574855 -0.31903590 0.20138909
v 0.43618887 -0.31903590 0.18750012
v -0.43629274 0.18096442 0.18750012
v -0.43629274 0.18096442 0.20138909
v 0.43618887 -0.31903590 0.20138909
v -0.48382403 -0.25866579 -0.20138909
v -0.50000000 -0.25653554 0.20138909
v -0.48382403 -0.25866579 0.20138909
v -0.50000000 -0.25653554 -0.20138909
v -0.50000000 -0.31903590 0.20138909
v -0.46874982 -0.26490933 -0.20138909
v -0.50000000 -0.31382722 -0.20138909
v -0.49826356 -0.31903590 0.20138909
v -0.46874982 -0.26490933 0.20138909
v -0.43749964 -0.31903590 -0.20138909
v -0.49826356 -0.31903590 -0.20138909
v -0.50000000 -0.31903590 -0.20138909
v -0.43749964 -0.31903590 0.20138909
v -0.45580586 -0.27484176 -0.20138909
v -0.45580586 -0.27484176 0.20138909
v -0.44587342 -0.28778572 -0.20138909
v -0.44587342 -0.28778572 0.20138909
v -0.43962989 -0.30285993 -0.20138909
v -0.43962989 -0.30285993 0.20138909
v -0.43962989 0.16478781 -0.20138909
v -0.43749964 0.18096442 0.20138909
v -0.43962989 0.16478781 0.20138909
v -0.43749964 0.18096442 -0.20138909
v -0.50000000 0.18096442 0.20138909
v -0.44587342 0.14971424 -0.20138909
v -0.49479132 0.18096442 -0.20138909
v -0.50000000 0.17922798 0.20138909
v -0.44587342 0.14971424 0.20138909
v -0.50000000 0.11846406 -0.20138909
v -0.50000000 0.17922798 -0.20138909
v -0.50000000 0.18096442 -0.20138909
v -0.50000000 0.11846406 0.20138909
v -0.45580586 0.13677027 -0.20138909
v -0.45580586 0.13677027 0.20138909
v -0.46874982 0.12683784 -0.20138909
v -0.46874982 0.12683784 0.20138909
v -0.48382403 0.12059366 -0.20138909
v -0.48382403 0.12059366 0.20138909
v 0.48382403 -0.25866579 0.20138909
v 0.50000000 -0.25653554 0.20138909
v 0.48382403 -0.25866579 -0.20138909
v 0.50000000 -0.31903590 0.20138909
v 0.50000000 -0.25653554 -0.20138909
v 0.46874982 -0.26490933 -0.20138909
v 0.49826356 -0.31903590 0.20138909
v 0.50000000 -0.31382722 -0.20138909
v 0.43750028 -0.31903590 -0.20138909
v 0.46874982 -0.26490933 0.20138909
v 0.50000000 -0.31903590 -0.20138909
v 0.43750028 -0.31903590 0.20138909
v 0.49826356 -0.31903590 -0.20138909
v 0.45580586 -0.27484176 -0.20138909
v 0.44587342 -0.28778572 -0.20138909
v 0.45580586 -0.27484176 0.20138909
v 0.43962989 -0.30285993 -0.20138909
v 0.44587342 -0.28778572 0.20138909
v 0.43962989 -0.30285993 0.20138909
v 0.43962989 0.16478781 0.20138909
v 0.43750028 0.18096442 0.20138909
v 0.43962989 0.16478781 -0.20138909
v 0.50000000 0.18096442 0.20138909
v 0.43750028 0.18096442 -0.20138909
v 0.44587342 0.14971424 -0.20138909
v 0.50000000 0.17922798 0.20138909
v 0.49479132 0.18096442 -0.20138909
v 0.50000000 0.11846406 -0.20138909
v 0.44587342 0.14971424 0.20138909
v 0.50000000 0.18096442 -0.20138909
v 0.50000000 0.11846406 0.20138909
v 0.50000000 0.17922798 -0.20138909
v 0.45580586 0.13677027 -0.20138909
v 0.46874982 0.12683784 -0.20138909
v 0.45580586 0.13677027 0.20138909
v 0.48382403 0.12059366 -0.20138909
v 0.46874982 0.12683784 0.20138909
v 0.48382403 0.12059366 0.20138909
v 0.47803420 -0.26213676 0.18750012
v 0.46474932 0.12827606 0.18750012
v 0.46474932 -0.26757357 0.18750012
v 0.47863765 0.12252255 0.18750012
v 0.46474932 0.12827606 0.16666667
v 0.47803420 -0.26213676 0.16666667
v 0.46474932 -0.26757357 0.16666667
v 0.47863765 0.12252255 0.16666667
v 0.44229986 0.15952687 0.18750012
v -0.45230494 0.14624199 0.18750012
v 0.45475826 0.14624199 0.18750012
v -0.43912266 0.16013096 0.18750012
v -0.45230494 0.14624199 0.16666667
v 0.44229986 0.15952687 0.16666667
v 0.45475826 0.14624199 0.16666667
v -0.43912266 0.16013096 0.16666667
v -0.44282876 -0.29759836 0.18750012
v 0.45177668 -0.28431348 0.18750012
v -0.45528716 -0.28431348 0.18750012
v 0.43859376 -0.29820245 0.18750012
v 0.45177668 -0.28431348 0.16666667
v -0.44282876 -0.29759836 0.16666667
v -0.45528716 -0.28431348 0.16666667
v 0.43859376 -0.29820245 0.16666667
v -0.47856246 0.12406463 0.18750012
v -0.46527758 -0.26634754 0.18750012
v -0.46527758 0.12950208 0.18750012
v -0.47916655 -0.26059467 0.18750012
v -0.46527758 -0.26634754 0.16666667
v -0.47856246 0.12406463 0.16666667
v -0.46527758 0.12950208 0.16666667
v -0.47916655 -0.26059467 0.16666667
v 0.40224386 0.16757439 0.03472210
v 0.38464178 0.27761879 0.03472210
v 0.38895898 0.16213759 0.03472210
v 0.39853075 0.27186592 0.03472210
v 0.38464178 0.27761879 0.01388929
v 0.40224386 0.16757439 0.01388929
v 0.38895898 0.16213759 0.01388929
v 0.39853075 0.16605461 0.01388929
v 0.39853075 0.27186592 0.01388929
v -0.36005188 0.12459098 0.04861107
v -0.36007164 0.13131244 0.03472210
v -0.36005188 0.12459098 0.03472210
v -0.36007164 0.13131244 0.04861107
v 0.35934456 0.12924846 0.03472210
v 0.35952299 0.12459098 0.03472210
v 0.35934456 0.12924846 0.04861107
v -0.36351138 0.14399769 0.03472210
v 0.36225860 0.14206498 0.03472210
v 0.35952299 0.12459098 0.04861107
v 0.36225860 0.14206498 0.04861107
v -0.36351138 0.14399769 0.04861107
v -0.37011686 0.15536005 0.03472210
v 0.36838934 0.15369052 0.03472210
v 0.36838934 0.15369052 0.04861107
v -0.37011686 0.15536005 0.04861107
v -0.37943883 0.16462595 0.04861107
v 0.37732133 0.16333302 0.03472210
v 0.37732133 0.16333302 0.04861107
v -0.37943883 0.16462595 0.03472210
v -0.39084071 0.17116325 0.04861107
v 0.38844347 0.17033486 0.04861107
v 0.38844347 0.17033486 0.03472210
v -0.39084071 0.17116325 0.03472210
v -0.40354635 0.17452716 0.04861107
v 0.40100000 0.17422002 0.04861107
v 0.40100000 0.17422002 0.03472210
v -0.40354635 0.17452716 0.03472210
v -0.40996831 0.17450805 0.04861107
v 0.40947574 0.17454437 0.04861107
v 0.40947574 0.17454437 0.03472210
v -0.40996831 0.17450805 0.03472210
v -0.40996831 0.26908698 0.04861107
v -0.40996831 0.26908698 0.03472210
v 0.40947574 0.26911884 0.04861107
v 0.40305378 0.26909972 0.04861107
v 0.40305378 0.26909972 0.03472210
v -0.40160409 0.26938838 0.04861107
v 0.40947574 0.26911884 0.03472210
v -0.40160409 0.26938838 0.03472210
v 0.39034814 0.27246364 0.04861107
v 0.39034814 0.27246364 0.03472210
v -0.38903927 0.27324487 0.04861107
v -0.38903927 0.27324487 0.03472210
v 0.37894626 0.27900093 0.04861107
v 0.37894626 0.27900093 0.03472210
v -0.37790057 0.28022186 0.04861107
v -0.37790057 0.28022186 0.03472210
v 0.36962492 0.28826683 0.04861107
v 0.36962492 0.28826683 0.03472210
v -0.36894755 0.28984396 0.03472210
v -0.36894755 0.28984396 0.04861107
v 0.36301881 0.29962984 0.04861107
v 0.36301881 0.29962984 0.03472210
v -0.36279004 0.30145549 0.03472210
v -0.36279004 0.30145549 0.04861107
v 0.35957970 0.31231445 0.04861107
v 0.35957970 0.31231445 0.03472210
v -0.35984797 0.31426563 0.03472210
v -0.35984797 0.31426563 0.04861107
v 0.35955931 0.31903590 0.04861107
v -0.36001938 0.31903590 0.03472210
v -0.36001938 0.31903590 0.04861107
v 0.35955931 0.31903590 0.03472210
v 0.36252113 0.30645452 0.04861107
v 0.36086498 0.31903590 0.04861107
v 0.36252113 0.30645452 -0.20138909
v 0.40947637 0.31903590 0.04861107
v 0.36086498 0.31903590 -0.20138909
v 0.36737743 0.29473021 -0.20138909
v 0.40947637 0.31768562 0.04861107
v 0.40542489 0.31903590 -0.20138909
v 0.40947637 0.27042451 -0.20138909
v 0.36737743 0.29473021 0.04861107
v 0.40947637 0.31903590 -0.20138909
v 0.40947637 0.27042451 0.04861107
v 0.40947637 0.31768562 -0.20138909
v 0.37510251 0.28466268 -0.20138909
v 0.38517068 0.27693696 -0.20138909
v 0.37510251 0.28466268 0.04861107
v 0.39689435 0.27208066 -0.20138909
v 0.38517068 0.27693696 0.04861107
v 0.39689435 0.27208066 0.04861107
v 0.36252113 0.13717300 -0.20138909
v 0.36086498 0.12459098 0.04861107
v 0.36252113 0.13717300 0.04861107
v 0.36086498 0.12459098 -0.20138909
v 0.40947637 0.12459098 0.04861107
v 0.36737743 0.14889668 -0.20138909
v 0.40542489 0.12459098 -0.20138909
v 0.40947637 0.12594190 0.04861107
v 0.36737743 0.14889668 0.04861107
v 0.40947637 0.17320237 -0.20138909
v 0.40947637 0.12594190 -0.20138909
v 0.40947637 0.12459098 -0.20138909
v 0.40947637 0.17320237 0.04861107
v 0.37510251 0.15896484 -0.20138909
v 0.37510251 0.15896484 0.04861107
v 0.38517068 0.16668993 -0.20138909
v 0.38517068 0.16668993 0.04861107
v 0.39689435 0.17154622 -0.20138909
v 0.39689435 0.17154622 0.04861107
v -0.36284421 0.13561180 0.03472210
v 0.37538226 0.14889668 0.03472210
v -0.37530260 0.14889668 0.03472210
v 0.36219997 0.13500771 0.03472210
v 0.37538226 0.14889668 0.01388929
v -0.36284421 0.13561180 0.01388929
v -0.37530260 0.14889668 0.01388929
v 0.36219997 0.13500771 0.01388929
v 0.36231595 0.30801509 0.03472210
v -0.37591115 0.29473021 0.03472210
v 0.37477434 0.29473021 0.03472210
v -0.36272887 0.30861918 0.03472210
v -0.37591115 0.29473021 0.01388929
v 0.36231595 0.30801509 0.01388929
v 0.37477434 0.29473021 0.01388929
v -0.36272887 0.30861918 0.01388929
v -0.36301371 0.30645452 -0.20138909
v -0.36135756 0.31903590 0.04861107
v -0.36301371 0.30645452 0.04861107
v -0.36135756 0.31903590 -0.20138909
v -0.40996831 0.31903590 0.04861107
v -0.36787000 0.29473021 -0.20138909
v -0.40591747 0.31903590 -0.20138909
v -0.40996831 0.31768562 0.04861107
v -0.36787000 0.29473021 0.04861107
v -0.40996831 0.27042451 -0.20138909
v -0.40996831 0.31768562 -0.20138909
v -0.40996831 0.31903590 -0.20138909
v -0.40996831 0.27042451 0.04861107
v -0.37559509 0.28466268 -0.20138909
v -0.37559509 0.28466268 0.04861107
v -0.38566262 0.27693696 -0.20138909
v -0.38566262 0.27693696 0.04861107
v -0.39738693 0.27208066 -0.20138909
v -0.39738693 0.27208066 0.04861107
v -0.36301371 0.13717300 0.04861107
v -0.36135756 0.12459098 0.04861107
v -0.36301371 0.13717300 -0.20138909
v -0.40996831 0.12459098 0.04861107
v -0.36135756 0.12459098 -0.20138909
v -0.36787000 0.14889668 -0.20138909
v -0.40996831 0.12594190 0.04861107
v -0.40591747 0.12459098 -0.20138909
v -0.40996831 0.17320237 -0.20138909
v -0.36787000 0.14889668 0.04861107
v -0.40996831 0.12459098 -0.20138909
v -0.40996831 0.17320237 0.04861107
v -0.40996831 0.12594190 -0.20138909
v -0.37559509 0.15896484 -0.20138909
v -0.38566262 0.16668993 -0.20138909
v -0.37559509 0.15896484 0.04861107
v -0.39738693 0.17154622 -0.20138909
v -0.38566262 0.16668993 0.04861107
v -0.39738693 0.17154622 0.04861107
v -0.40277276 0.27605249 0.03472210
v -0.38517068 0.16600873 0.03472210
v -0.38948788 0.28148994 0.03472210
v -0.39905901 0.17176160 0.03472210
v -0.38517068 0.16600873 0.01388929
v -0.40277276 0.27605249 0.01388929
v -0.38948788 0.28148994 0.01388929
v -0.39905901 0.27757227 0.01388929
v -0.39905901 0.17176160 0.01388929
f 1 2 3
f 2 1 4
f 5 3 2
f 6 1 3
f 1 7 4
f 7 2 4
f 8 3 5
f 2 7 5
f 1 6 9
f 10 6 3
f 1 11 7
f 12 3 8
f 5 13 8
f 14 5 7
f 15 9 6
f 9 16 1
f 17 6 10
f 10 3 12
f 1 18 11
f 19 7 11
f 11 12 8
f 13 5 20
f 13 11 8
f 5 14 20
f 7 19 14
f 9 15 21
f 17 15 6
f 9 22 16
f 1 16 18
f 10 22 17
f 12 16 10
f 12 11 18
f 11 13 19
f 13 20 23
f 24 20 14
f 14 19 25
f 26 21 15
f 21 22 9
f 27 15 17
f 22 10 16
f 16 12 18
f 28 17 22
f 23 19 13
f 23 20 29
f 20 24 29
f 14 25 24
f 19 23 25
f 21 26 30
f 27 26 15
f 21 28 22
f 17 28 27
f 23 29 31
f 32 29 24
f 24 25 33
f 31 25 23
f 26 34 30
f 30 28 21
f 35 26 27
f 28 35 27
f 31 29 36
f 29 32 36
f 24 33 32
f 25 31 33
f 34 26 37
f 34 38 30
f 30 38 28
f 35 37 26
f 35 28 38
f 31 36 39
f 32 40 36
f 32 33 41
f 31 41 33
f 37 42 34
f 34 43 38
f 44 37 35
f 38 44 35
f 39 36 40
f 41 31 39
f 40 32 45
f 32 41 45
f 42 37 46
f 42 43 34
f 44 38 43
f 44 46 37
f 39 40 47
f 39 48 41
f 45 49 40
f 45 41 48
f 46 50 42
f 42 51 43
f 43 52 44
f 52 46 44
f 47 40 49
f 48 39 47
f 49 45 53
f 45 48 53
f 50 46 54
f 50 51 42
f 52 43 51
f 52 54 46
f 47 49 55
f 47 56 48
f 53 57 49
f 53 48 56
f 58 50 54
f 51 50 59
f 51 58 52
f 54 52 58
f 55 49 57
f 56 47 55
f 57 53 60
f 53 56 60
f 50 58 59
f 58 51 59
f 57 56 55
f 56 57 60
f 3 2 1
f 4 1 2
f 2 3 5
f 3 1 6
f 4 7 1
f 4 2 7
f 5 3 8
f 5 7 2
f 9 6 1
f 3 6 10
f 7 11 1
f 8 3 12
f 8 13 5
f 7 5 14
f 6 9 15
f 1 16 9
f 10 6 17
f 12 3 10
f 11 18 1
f 11 7 19
f 8 12 11
f 20 5 13
f 8 11 13
f 20 14 5
f 14 19 7
f 21 15 9
f 6 15 17
f 16 22 9
f 18 16 1
f 17 22 10
f 10 16 12
f 18 11 12
f 19 13 11
f 23 20 13
f 14 20 24
f 25 19 14
f 15 21 26
f 9 22 21
f 17 15 27
f 16 10 22
f 18 12 16
f 22 17 28
f 13 19 23
f 29 20 23
f 29 24 20
f 24 25 14
f 25 23 19
f 30 26 21
f 15 26 27
f 22 28 21
f 27 28 17
f 31 29 23
f 24 29 32
f 33 25 24
f 23 25 31
f 30 34 26
f 21 28 30
f 27 26 35
f 27 35 28
f 36 29 31
f 36 32 29
f 32 33 24
f 33 31 25
f 37 26 34
f 30 38 34
f 28 38 30
f 26 37 35
f 38 28 35
f 39 36 31
f 36 40 32
f 41 33 32
f 33 41 31
f 34 42 37
f 38 43 34
f 35 37 44
f 35 44 38
f 40 36 39
f 39 31 41
f 45 32 40
f 45 41 32
f 46 37 42
f 34 43 42
f 43 38 44
f 37 46 44
f 47 40 39
f 41 48 39
f 40 49 45
f 48 41 45
f 42 50 46
f 43 51 42
f 44 52 43
f 44 46 52
f 49 40 47
f 47 39 48
f 53 45 49
f 53 48 45
f 54 46 50
f 42 51 50
f 51 43 52
f 46 54 52
f 55 49 47
f 48 56 47
f 49 57 53
f 56 48 53
f 54 50 58
f 59 50 51
f 52 58 51
f 58 52 54
f 57 49 55
f 55 47 56
f 60 53 57
f 60 56 53
f 59 58 50
f 59 51 58
f 55 56 57
f 60 57 56
f 61 62 63
f 62 61 64
f 63 62 61
f 64 61 62
f 62 63 65
f 63 66 61
f 61 66 63
f 61 67 64
f 64 67 61
f 67 62 64
f 68 65 63
f 62 67 65
f 66 63 69
f 69 63 66
f 70 61 66
f 66 61 70
f 67 61 71
f 71 61 67
f 72 68 65
f 65 68 72
f 73 68 63
f 65 67 72
f 69 73 63
f 69 74 66
f 66 74 69
f 71 61 70
f 70 61 71
f 70 66 74
f 74 66 70
f 71 72 67
f 67 72 71
f 68 72 73
f 73 72 68
f 75 73 69
f 74 69 75
f 75 69 74
f 70 72 71
f 71 72 70
f 70 74 76
f 76 74 70
f 73 72 70
f 70 72 73
f 77 73 75
f 75 76 74
f 74 76 75
f 70 76 78
f 78 76 70
f 70 79 73
f 73 79 70
f 79 73 77
f 76 75 77
f 77 75 76
f 77 78 76
f 76 78 77
f 79 70 78
f 78 70 79
f 78 77 79
f 79 77 78
f 65 63 62
f 63 65 68
f 63 68 73
f 63 73 69
f 69 73 75
f 75 73 77
f 77 73 79
f 64 62 67
f 65 67 62
f 72 67 65
f 80 81 82
f 81 80 83
f 82 81 80
f 83 80 81
f 81 82 84
f 82 85 80
f 80 85 82
f 80 86 83
f 83 86 80
f 86 81 83
f 87 84 82
f 81 86 84
f 85 82 88
f 88 82 85
f 89 80 85
f 85 80 89
f 86 80 90
f 90 80 86
f 91 87 84
f 84 87 91
f 92 87 82
f 84 86 91
f 88 92 82
f 88 93 85
f 85 93 88
f 90 80 89
f 89 80 90
f 89 85 93
f 93 85 89
f 90 91 86
f 86 91 90
f 87 91 92
f 92 91 87
f 94 92 88
f 93 88 94
f 94 88 93
f 89 91 90
f 90 91 89
f 89 93 95
f 95 93 89
f 92 91 89
f 89 91 92
f 96 92 94
f 94 95 93
f 93 95 94
f 89 95 97
f 97 95 89
f 89 98 92
f 92 98 89
f 98 92 96
f 95 94 96
f 96 94 95
f 96 97 95
f 95 97 96
f 98 89 97
f 97 89 98
f 97 96 98
f 98 96 97
f 84 82 81
f 82 84 87
f 82 87 92
f 82 92 88
f 88 92 94
f 94 92 96
f 96 92 98
f 83 81 86
f 84 86 81
f 91 86 84
f 99 100 101
f 101 100 99
f 102 99 100
f 103 101 100
f 100 101 103
f 101 104 99
f 99 104 101
f 99 102 105
f 102 106 100
f 103 106 101
f 101 106 103
f 103 100 106
f 104 101 107
f 107 101 104
f 108 99 104
f 104 99 108
f 102 105 109
f 109 105 102
f 99 105 110
f 109 106 102
f 111 101 106
f 106 101 111
f 107 101 111
f 111 101 107
f 112 104 107
f 107 104 112
f 99 110 108
f 104 112 108
f 108 112 104
f 110 109 105
f 105 109 110
f 106 109 111
f 111 109 106
f 111 109 107
f 107 109 111
f 113 112 107
f 107 112 113
f 108 110 114
f 114 108 112
f 112 108 114
f 107 109 110
f 110 109 107
f 112 113 114
f 114 113 112
f 115 113 107
f 107 113 115
f 114 110 116
f 110 117 107
f 107 117 110
f 116 114 113
f 113 114 116
f 113 115 116
f 116 115 113
f 115 107 117
f 117 107 115
f 116 110 117
f 117 116 115
f 115 116 117
f 100 99 102
f 105 102 99
f 110 105 99
f 108 110 99
f 114 110 108
f 116 110 114
f 117 110 116
f 100 106 102
f 106 100 103
f 102 106 109
f 118 119 120
f 120 119 118
f 121 118 119
f 122 120 119
f 119 120 122
f 120 123 118
f 118 123 120
f 118 121 124
f 121 125 119
f 122 125 120
f 120 125 122
f 122 119 125
f 123 120 126
f 126 120 123
f 127 118 123
f 123 118 127
f 121 124 128
f 128 124 121
f 118 124 129
f 128 125 121
f 130 120 125
f 125 120 130
f 126 120 130
f 130 120 126
f 131 123 126
f 126 123 131
f 118 129 127
f 123 131 127
f 127 131 123
f 129 128 124
f 124 128 129
f 125 128 130
f 130 128 125
f 130 128 126
f 126 128 130
f 132 131 126
f 126 131 132
f 127 129 133
f 133 127 131
f 131 127 133
f 126 128 129
f 129 128 126
f 131 132 133
f 133 132 131
f 134 132 126
f 126 132 134
f 133 129 135
f 129 136 126
f 126 136 129
f 135 133 132
f 132 133 135
f 132 134 135
f 135 134 132
f 134 126 136
f 136 126 134
f 135 129 136
f 136 135 134
f 134 135 136
f 119 118 121
f 124 121 118
f 129 124 118
f 127 129 118
f 133 129 127
f 135 129 133
f 136 129 135
f 119 125 121
f 125 119 122
f 121 125 128
f 137 138 139
f 138 137 140
f 139 138 137
f 140 137 138
f 141 139 138
f 138 139 141
f 139 142 137
f 137 142 139
f 142 140 137
f 137 140 142
f 140 141 138
f 138 141 140
f 139 141 143
f 143 141 139
f 142 139 143
f 143 139 142
f 140 142 144
f 144 142 140
f 141 140 144
f 144 140 141
f 141 142 143
f 143 142 141
f 142 141 144
f 144 141 142
f 145 146 147
f 146 145 148
f 147 146 145
f 148 145 146
f 149 147 146
f 146 147 149
f 147 150 145
f 145 150 147
f 150 148 145
f 145 148 150
f 148 149 146
f 146 149 148
f 147 149 151
f 151 149 147
f 150 147 151
f 151 147 150
f 148 150 152
f 152 150 148
f 149 148 152
f 152 148 149
f 149 150 151
f 151 150 149
f 150 149 152
f 152 149 150
f 153 154 155
f 154 153 156
f 155 154 153
f 156 153 154
f 157 155 154
f 154 155 157
f 155 158 153
f 153 158 155
f 158 156 153
f 153 156 158
f 156 157 154
f 154 157 156
f 155 157 159
f 159 157 155
f 158 155 159
f 159 155 158
f 156 158 160
f 160 158 156
f 157 156 160
f 160 156 157
f 157 158 159
f 159 158 157
f 158 157 160
f 160 157 158
f 161 162 163
f 162 161 164
f 163 162 161
f 164 161 162
f 165 163 162
f 162 163 165
f 163 166 161
f 161 166 163
f 166 164 161
f 161 164 166
f 164 165 162
f 162 165 164
f 163 165 167
f 167 165 163
f 166 163 167
f 167 163 166
f 164 166 168
f 168 166 164
f 165 164 168
f 168 164 165
f 165 166 167
f 167 166 165
f 166 165 168
f 168 165 166
f 169 170 171
f 170 169 172
f 171 170 169
f 172 169 170
f 173 171 170
f 170 171 173
f 171 174 169
f 169 174 171
f 174 172 169
f 169 172 174
f 172 173 170
f 170 173 172
f 171 173 175
f 175 173 171
f 174 171 176
f 176 171 174
f 172 174 177
f 177 174 172
f 173 172 177
f 177 172 173
f 173 176 175
f 175 176 173
f 176 171 175
f 175 171 176
f 177 174 176
f 176 174 177
f 176 173 177
f 177 173 176
f 178 179 180
f 179 178 181
f 179 182 180
f 183 178 180
f 184 181 178
f 181 185 179
f 179 186 182
f 180 182 183
f 178 183 187
f 188 181 184
f 184 178 187
f 185 181 189
f 185 186 179
f 188 182 186
f 184 183 182
f 183 184 187
f 188 189 181
f 182 188 184
f 189 190 185
f 185 191 186
f 186 192 188
f 192 189 188
f 190 189 193
f 190 191 185
f 192 186 191
f 192 193 189
f 194 190 193
f 190 195 191
f 191 196 192
f 196 193 192
f 190 194 197
f 196 194 193
f 197 195 190
f 196 191 195
f 198 197 194
f 199 194 196
f 197 200 195
f 200 196 195
f 197 198 201
f 199 198 194
f 196 200 199
f 201 200 197
f 202 201 198
f 203 198 199
f 204 199 200
f 201 204 200
f 201 202 205
f 203 202 198
f 199 204 203
f 205 204 201
f 206 205 202
f 202 203 207
f 208 203 204
f 204 205 208
f 205 206 209
f 202 210 206
f 203 208 207
f 207 210 202
f 211 208 205
f 206 211 209
f 211 205 209
f 211 206 210
f 208 212 207
f 207 213 210
f 214 208 211
f 215 211 210
f 212 208 216
f 213 207 212
f 213 215 210
f 208 214 216
f 217 214 211
f 211 215 217
f 214 212 216
f 212 214 213
f 218 215 213
f 217 219 214
f 220 217 215
f 219 213 214
f 218 220 215
f 213 219 218
f 221 219 217
f 217 220 221
f 222 220 218
f 223 218 219
f 221 223 219
f 224 221 220
f 222 224 220
f 218 223 222
f 225 223 221
f 221 224 225
f 226 224 222
f 227 222 223
f 225 227 223
f 224 228 225
f 226 229 224
f 222 227 226
f 228 227 225
f 228 224 229
f 230 229 226
f 227 230 226
f 228 231 227
f 229 232 228
f 230 233 229
f 230 227 231
f 232 231 228
f 232 229 233
f 234 233 230
f 231 234 230
f 232 235 231
f 233 236 232
f 234 237 233
f 234 231 235
f 236 235 232
f 236 233 237
f 238 237 234
f 235 238 234
f 239 235 236
f 237 239 236
f 237 238 240
f 238 235 241
f 235 239 241
f 239 237 240
f 238 239 240
f 239 238 241
f 180 179 178
f 181 178 179
f 180 182 179
f 180 178 183
f 178 181 184
f 179 185 181
f 182 186 179
f 183 182 180
f 187 183 178
f 184 181 188
f 187 178 184
f 189 181 185
f 179 186 185
f 186 182 188
f 182 183 184
f 187 184 183
f 181 189 188
f 184 188 182
f 185 190 189
f 186 191 185
f 188 192 186
f 188 189 192
f 193 189 190
f 185 191 190
f 191 186 192
f 189 193 192
f 193 190 194
f 191 195 190
f 192 196 191
f 192 193 196
f 197 194 190
f 193 194 196
f 190 195 197
f 195 191 196
f 194 197 198
f 196 194 199
f 195 200 197
f 195 196 200
f 201 198 197
f 194 198 199
f 199 200 196
f 197 200 201
f 198 201 202
f 199 198 203
f 200 199 204
f 200 204 201
f 205 202 201
f 198 202 203
f 203 204 199
f 201 204 205
f 202 205 206
f 207 203 202
f 204 203 208
f 208 205 204
f 209 206 205
f 206 210 202
f 207 208 203
f 202 210 207
f 205 208 211
f 209 211 206
f 209 205 211
f 210 206 211
f 207 212 208
f 210 213 207
f 211 208 214
f 210 211 215
f 216 208 212
f 212 207 213
f 210 215 213
f 216 214 208
f 211 214 217
f 217 215 211
f 216 212 214
f 213 214 212
f 213 215 218
f 214 219 217
f 215 217 220
f 214 213 219
f 215 220 218
f 218 219 213
f 217 219 221
f 221 220 217
f 218 220 222
f 219 218 223
f 219 223 221
f 220 221 224
f 220 224 222
f 222 223 218
f 221 223 225
f 225 224 221
f 222 224 226
f 223 222 227
f 223 227 225
f 225 228 224
f 224 229 226
f 226 227 222
f 225 227 228
f 229 224 228
f 226 229 230
f 226 230 227
f 227 231 228
f 228 232 229
f 229 233 230
f 231 227 230
f 228 231 232
f 233 229 232
f 230 233 234
f 230 234 231
f 231 235 232
f 232 236 233
f 233 237 234
f 235 231 234
f 232 235 236
f 237 233 236
f 234 237 238
f 234 238 235
f 236 235 239
f 236 239 237
f 240 238 237
f 241 235 238
f 241 239 235
f 240 237 239
f 240 239 238
f 241 238 239
f 242 243 244
f 244 243 242
f 245 242 243
f 246 244 243
f 243 244 246
f 244 247 242
f 242 247 244
f 242 245 248
f 245 249 243
f 246 249 244
f 244 249 246
f 246 243 249
f 247 244 250
f 250 244 247
f 251 242 247
f 247 242 251
f 245 248 252
f 252 248 245
f 242 248 253
f 252 249 245
f 254 244 249
f 249 244 254
f 250 244 254
f 254 244 250
f 255 247 250
f 250 247 255
f 242 253 251
f 247 255 251
f 251 255 247
f 253 252 248
f 248 252 253
f 249 252 254
f 254 252 249
f 254 252 250
f 250 252 254
f 256 255 250
f 250 255 256
f 251 253 257
f 257 251 255
f 255 251 257
f 250 252 253
f 253 252 250
f 255 256 257
f 257 256 255
f 258 256 250
f 250 256 258
f 257 253 259
f 253 260 250
f 250 260 253
f 259 257 256
f 256 257 259
f 256 258 259
f 259 258 256
f 258 250 260
f 260 250 258
f 259 253 260
f 260 259 258
f 258 259 260
f 243 242 245
f 248 245 242
f 253 248 242
f 251 253 242
f 257 253 251
f 259 253 257
f 260 253 259
f 243 249 245
f 249 243 246
f 245 249 252
f 261 262 263
f 262 261 264
f 263 262 261
f 264 261 262
f 262 263 265
f 263 266 261
f 261 266 263
f 261 267 264
f 264 267 261
f 267 262 264
f 268 265 263
f 262 267 265
f 266 263 269
f 269 263 266
f 270 261 266
f 266 261 270
f 267 261 271
f 271 261 267
f 272 268 265
f 265 268 272
f 273 268 263
f 265 267 272
f 269 273 263
f 269 274 266
f 266 274 269
f 271 261 270
f 270 261 271
f 270 266 274
f 274 266 270
f 271 272 267
f 267 272 271
f 268 272 273
f 273 272 268
f 275 273 269
f 274 269 275
f 275 269 274
f 270 272 271
f 271 272 270
f 270 274 276
f 276 274 270
f 273 272 270
f 270 272 273
f 277 273 275
f 275 276 274
f 274 276 275
f 270 276 278
f 278 276 270
f 270 279 273
f 273 279 270
f 279 273 277
f 276 275 277
f 277 275 276
f 277 278 276
f 276 278 277
f 279 270 278
f 278 270 279
f 278 277 279
f 279 277 278
f 265 263 262
f 263 265 268
f 263 268 273
f 263 273 269
f 269 273 275
f 275 273 277
f 277 273 279
f 264 262 267
f 265 267 262
f 272 267 265
f 280 281 282
f 281 280 283
f 282 281 280
f 283 280 281
f 284 282 281
f 281 282 284
f 282 285 280
f 280 285 282
f 285 283 280
f 280 283 285
f 283 284 281
f 281 284 283
f 282 284 286
f 286 284 282
f 285 282 286
f 286 282 285
f 283 285 287
f 287 285 283
f 284 283 287
f 287 283 284
f 284 285 286
f 286 285 284
f 285 284 287
f 287 284 285
f 288 289 290
f 289 288 291
f 290 289 288
f 291 288 289
f 292 290 289
f 289 290 292
f 290 293 288
f 288 293 290
f 293 291 288
f 288 291 293
f 291 292 289
f 289 292 291
f 290 292 294
f 294 292 290
f 293 290 294
f 294 290 293
f 291 293 295
f 295 293 291
f 292 291 295
f 295 291 292
f 292 293 294
f 294 293 292
f 293 292 295
f 295 292 293
f 296 297 298
f 297 296 299
f 298 297 296
f 299 296 297
f 297 298 300
f 298 301 296
f 296 301 298
f 296 302 299
f 299 302 296
f 302 297 299
f 303 300 298
f 297 302 300
f 301 298 304
f 304 298 301
f 305 296 301
f 301 296 305
f 302 296 306
f 306 296 302
f 307 303 300
f 300 303 307
f 308 303 298
f 300 302 307
f 304 308 298
f 304 309 301
f 301 309 304
f 306 296 305
f 305 296 306
f 305 301 309
f 309 301 305
f 306 307 302
f 302 307 306
f 303 307 308
f 308 307 303
f 310 308 304
f 309 304 310
f 310 304 309
f 305 307 306
f 306 307 305
f 305 309 311
f 311 309 305
f 308 307 305
f 305 307 308
f 312 308 310
f 310 311 309
f 309 311 310
f 305 311 313
f 313 311 305
f 305 314 308
f 308 314 305
f 314 308 312
f 311 310 312
f 312 310 311
f 312 313 311
f 311 313 312
f 314 305 313
f 313 305 314
f 313 312 314
f 314 312 313
f 300 298 297
f 298 300 303
f 298 303 308
f 298 308 304
f 304 308 310
f 310 308 312
f 312 308 314
f 299 297 302
f 300 302 297
f 307 302 300
f 315 316 317
f 317 316 315
f 318 315 316
f 319 317 316
f 316 317 319
f 317 320 315
f 315 320 317
f 315 318 321
f 318 322 316
f 319 322 317
f 317 322 319
f 319 316 322
f 320 317 323
f 323 317 320
f 324 315 320
f 320 315 324
f 318 321 325
f 325 321 318
f 315 321 326
f 325 322 318
f 327 317 322
f 322 317 327
f 323 317 327
f 327 317 323
f 328 320 323
f 323 320 328
f 315 326 324
f 320 328 324
f 324 328 320
f 326 325 321
f 321 325 326
f 322 325 327
f 327 325 322
f 327 325 323
f 323 325 327
f 329 328 323
f 323 328 329
f 324 326 330
f 330 324 328
f 328 324 330
f 323 325 326
f 326 325 323
f 328 329 330
f 330 329 328
f 331 329 323
f 323 329 331
f 330 326 332
f 326 333 323
f 323 333 326
f 332 330 329
f 329 330 332
f 329 331 332
f 332 331 329
f 331 323 333
f 333 323 331
f 332 326 333
f 333 332 331
f 331 332 333
f 316 315 318
f 321 318 315
f 326 321 315
f 324 326 315
f 330 326 324
f 332 326 330
f 333 326 332
f 316 322 318
f 322 316 319
f 318 322 325
f 334 335 336
f 335 334 337
f 336 335 334
f 337 334 335
f 338 336 335
f 335 336 338
f 336 339 334
f 334 339 336
f 339 337 334
f 334 337 339
f 337 338 335
f 335 338 337
f 336 338 340
f 340 338 336
f 339 336 341
f 341 336 339
f 337 339 342
f 342 339 337
f 338 337 342
f 342 337 338
f 338 341 340
f 340 341 338
f 341 336 340
f 340 336 341
f 342 339 341
f 341 339 342
f 341 338 342
f 342 338 341

