# https://github.com/mikedh/trimesh

o 0.obj
v -0.12247371 0.08493771 -0.05354853
v -0.12247420 0.08497850 -0.04589570
v -0.12247420 0.08501929 -0.03824189
v -0.12247371 0.08501929 -0.03058735
v -0.12247371 0.08501929 -0.02293157
v -0.12247371 0.08501929 -0.01527580
v -0.12247371 0.08501929 -0.00762002
v -0.12247371 0.08501929 0.00003575
v -0.11481916 0.08493771 -0.05354803
v -0.11482064 0.08501929 -0.04589570
v -0.10716339 0.08493771 -0.05354803
v -0.10716609 0.08501929 -0.04589496
v -0.11482113 0.08510135 -0.03824263
v -0.11482064 0.08510111 -0.03059005
v -0.10716880 0.08510111 -0.03824189
v -0.10716880 0.08510111 -0.03059005
v -0.09950762 0.08493771 -0.05354803
v -0.09951032 0.08501929 -0.04589496
v -0.09185184 0.08493771 -0.05354803
v -0.09185455 0.08501929 -0.04589496
v -0.09951302 0.08510111 -0.03824189
v -0.09951302 0.08510111 -0.03059005
v -0.09185725 0.08510111 -0.03824189
v -0.09185725 0.08510111 -0.03059005
v -0.11482064 0.08510111 -0.02293428
v -0.11482064 0.08510111 -0.01527850
v -0.10716880 0.08510111 -0.02293428
v -0.10716880 0.08510111 -0.01527850
v -0.11482064 0.08510111 -0.00762273
v -0.11482064 0.08510111 0.00003305
v -0.10716880 0.08510111 -0.00762273
v -0.10716880 0.08510111 0.00003305
v -0.09951302 0.08510111 -0.02293428
v -0.09951302 0.08510111 -0.01527850
v -0.09185725 0.08510111 -0.02293428
v -0.09185725 0.08510111 -0.01527850
v -0.09951302 0.08510111 -0.00762273
v -0.09951302 0.08510111 0.00003305
v -0.09185725 0.08510111 -0.00762273
v -0.09185725 0.08510111 0.00003305
v -0.08419607 0.08493771 -0.05354803
v -0.08419877 0.08501929 -0.04589496
v -0.07654029 0.08493771 -0.05354803
v -0.07654300 0.08501929 -0.04589496
v -0.08420147 0.08510111 -0.03824189
v -0.08420147 0.08510111 -0.03059005
v -0.07654570 0.08510111 -0.03824189
v -0.07654570 0.08510111 -0.03059005
v -0.06888452 0.08493771 -0.05354803
v -0.06888722 0.08501929 -0.04589496
v -0.06122875 0.08493771 -0.05354803
v -0.06123145 0.08501929 -0.04589496
v -0.06888993 0.08510111 -0.03824189
v -0.06888993 0.08510111 -0.03059005
v -0.06123415 0.08510111 -0.03824189
v -0.06123415 0.08510111 -0.03059005
v -0.08420147 0.08510111 -0.02293428
v -0.08420147 0.08510111 -0.01527850
v -0.07654570 0.08510111 -0.02293428
v -0.07654570 0.08510111 -0.01527850
v -0.08420147 0.08510111 -0.00762273
v -0.08420147 0.08510111 0.00003305
v -0.07654570 0.08510111 -0.00762273
v -0.07654570 0.08510111 0.00003305
v -0.06888993 0.08510111 -0.02293428
v -0.06888993 0.08510111 -0.01527850
v -0.06123415 0.08510111 -0.02293428
v -0.06123415 0.08510111 -0.01527850
v -0.06888993 0.08510111 -0.00762273
v -0.06888993 0.08510111 0.00003305
v -0.06123415 0.08510111 -0.00762273
v -0.06123415 0.08510111 0.00003305
v -0.05357297 0.08493771 -0.05354803
v -0.05357568 0.08501929 -0.04589496
v -0.04591720 0.08493771 -0.05354803
v -0.04591990 0.08501929 -0.04589496
v -0.05357838 0.08510111 -0.03824189
v -0.05357838 0.08510111 -0.03059005
v -0.04592260 0.08510111 -0.03824189
v -0.04592260 0.08510111 -0.03059005
v -0.03826143 0.08493771 -0.05354803
v -0.03826413 0.08501929 -0.04589496
v -0.03060565 0.08493771 -0.05354803
v -0.03060835 0.08501929 -0.04589496
v -0.03826683 0.08510111 -0.03824189
v -0.03826683 0.08510111 -0.03059005
v -0.03061106 0.08510111 -0.03824189
v -0.03061106 0.08510111 -0.03059005
v -0.05357838 0.08510111 -0.02293428
v -0.05357838 0.08510111 -0.01527850
v -0.04592260 0.08510111 -0.02293428
v -0.04592260 0.08510111 -0.01527850
v -0.05357838 0.08510111 -0.00762273
v -0.05357838 0.08510111 0.00003305
v -0.04592260 0.08510111 -0.00762273
v -0.04592260 0.08510111 0.00003305
v -0.03826683 0.08510111 -0.02293428
v -0.03826683 0.08510111 -0.01527850
v -0.03061106 0.08510111 -0.02293428
v -0.03061106 0.08510111 -0.01527850
v -0.03826683 0.08510111 -0.00762273
v -0.03826683 0.08510111 0.00003305
v -0.03061106 0.08510111 -0.00762273
v -0.03061106 0.08510111 0.00003305
v -0.02294988 0.08493771 -0.05354803
v -0.02295258 0.08501929 -0.04589496
v -0.01529410 0.08493771 -0.05354803
v -0.01529681 0.08501929 -0.04589496
v -0.02295528 0.08510111 -0.03824189
v -0.02295528 0.08510111 -0.03059005
v -0.01529951 0.08510111 -0.03824189
v -0.01529951 0.08510111 -0.03059005
v -0.00763833 0.08489668 -0.05354803
v -0.00764152 0.08493747 -0.04589349
v 0.00001892 0.08485565 -0.05354853
v 0.00001695 0.08489668 -0.04589275
v -0.00764496 0.08501929 -0.03823919
v -0.00764496 0.08501929 -0.03058735
v 0.00001400 0.08493747 -0.03823771
v 0.00001351 0.08493747 -0.03058464
v -0.02295528 0.08510111 -0.02293428
v -0.02295528 0.08510111 -0.01527850
v -0.01529951 0.08510111 -0.02293428
v -0.01529951 0.08510111 -0.01527850
v -0.02295528 0.08510111 -0.00762273
v -0.02295528 0.08510111 0.00003305
v -0.01529951 0.08510111 -0.00762273
v -0.01529951 0.08510111 0.00003305
v -0.00764496 0.08501929 -0.02293157
v -0.00764496 0.08501929 -0.01527580
v 0.00001351 0.08493747 -0.02292887
v 0.00001351 0.08493747 -0.01527310
v -0.00764496 0.08501929 -0.00762002
v -0.00764496 0.08501929 0.00003575
v 0.00001351 0.08493747 -0.00761732
v 0.00001351 0.08493747 0.00003845
v -0.12247371 0.08501929 0.00769152
v -0.12247371 0.08501929 0.01534730
v -0.12247371 0.08501929 0.02300307
v -0.12247371 0.08501929 0.03065885
v -0.12247371 0.08501929 0.03831462
v -0.12247371 0.08501929 0.04597039
v -0.12247371 0.08501929 0.05362617
v -0.12247371 0.08501929 0.06128194
v -0.12247371 0.08501929 0.06893771
v -0.12247371 0.08497850 0.07659349
v -0.12247297 0.08489668 0.08425000
v -0.12247224 0.08489668 0.09190848
v -0.11482064 0.08510111 0.00768882
v -0.11482064 0.08510111 0.01534459
v -0.10716880 0.08510111 0.00768882
v -0.10716880 0.08510111 0.01534459
v -0.11482064 0.08510111 0.02300037
v -0.11482064 0.08510111 0.03065614
v -0.10716880 0.08510111 0.02300037
v -0.10716880 0.08510111 0.03065614
v -0.09951302 0.08510111 0.00768882
v -0.09951302 0.08510111 0.01534459
v -0.09185725 0.08510111 0.00768882
v -0.09185725 0.08510111 0.01534459
v -0.09951302 0.08510111 0.02300037
v -0.09951302 0.08510111 0.03065614
v -0.09185725 0.08510111 0.02300037
v -0.09185725 0.08510111 0.03065614
v -0.11482064 0.08510111 0.03831192
v -0.11482064 0.08510111 0.04596769
v -0.10716880 0.08510111 0.03831192
v -0.10716880 0.08510111 0.04596769
v -0.11482064 0.08510111 0.05362346
v -0.11482064 0.08510111 0.06127924
v -0.10716880 0.08510111 0.05362346
v -0.10716880 0.08510111 0.06127924
v -0.09951302 0.08510111 0.03831192
v -0.09951302 0.08510111 0.04596769
v -0.09185725 0.08510111 0.03831192
v -0.09185725 0.08510111 0.04596769
v -0.09951302 0.08510111 0.05362346
v -0.09951302 0.08510111 0.06127924
v -0.09185725 0.08510111 0.05362346
v -0.09185725 0.08506007 0.06127924
v -0.08420147 0.08510111 0.00768882
v -0.08420147 0.08510111 0.01534459
v -0.07654570 0.08510111 0.00768882
v -0.07654570 0.08510111 0.01534459
v -0.08420147 0.08510111 0.02300037
v -0.08420147 0.08510111 0.03065614
v -0.07654570 0.08510111 0.02300037
v -0.07654570 0.08510111 0.03065614
v -0.06888993 0.08510111 0.00768882
v -0.06888993 0.08510111 0.01534459
v -0.06123415 0.08510111 0.00768882
v -0.06123415 0.08510111 0.01534459
v -0.06888993 0.08510111 0.02300037
v -0.06888993 0.08510111 0.03065614
v -0.06123415 0.08510111 0.02300037
v -0.06123415 0.08510111 0.03065614
v -0.08420147 0.08510111 0.03831192
v -0.08420147 0.08510111 0.04596769
v -0.07654570 0.08510111 0.03831192
v -0.07654570 0.08510111 0.04596769
v -0.08420147 0.08506007 0.05362346
v -0.08420074 0.08497826 0.06127998
v -0.07654447 0.08501929 0.05362273
v -0.07654226 0.08497826 0.06128047
v -0.06888993 0.08510111 0.03831192
v -0.06888993 0.08506007 0.04596769
v -0.06123415 0.08506007 0.03831192
v -0.06123342 0.08497826 0.04596843
v -0.06888796 0.08497826 0.05362346
v -0.06888649 0.08493747 0.06128268
v -0.06123145 0.08497826 0.05362617
v -0.06122875 0.08489644 0.06128268
v -0.11482064 0.08510111 0.06893501
v -0.11481916 0.08501929 0.07659005
v -0.10716880 0.08506007 0.06893501
v -0.10716683 0.08497826 0.07659079
v -0.11481720 0.08497850 0.08424803
v -0.11481646 0.08489668 0.09190651
v -0.10716536 0.08493747 0.08425000
v -0.10716265 0.08485565 0.09190651
v -0.09951179 0.08501929 0.06893428
v -0.09950958 0.08497826 0.07659226
v -0.09185528 0.08497826 0.06893501
v -0.09185381 0.08493747 0.07659423
v -0.09950762 0.08489644 0.08425000
v -0.09950565 0.08485565 0.09190774
v -0.09185111 0.08485565 0.08425074
v -0.09184988 0.08485565 0.09190995
v -0.08419877 0.08497826 0.06893771
v -0.08419607 0.08489644 0.07659423
v -0.07654152 0.08489644 0.06893919
v -0.07654029 0.08485565 0.07659619
v -0.08419410 0.08485565 0.08425197
v -0.08419337 0.08485565 0.09191044
v -0.07653833 0.08485565 0.08425418
v -0.07653759 0.08485565 0.09191044
v -0.06888378 0.08485565 0.06893919
v -0.06888256 0.08485565 0.07659840
v -0.06122678 0.08485565 0.06894042
v -0.06122604 0.08485565 0.07659889
v -0.06888182 0.08485565 0.08425467
v -0.06888182 0.08485565 0.09191044
v -0.06122604 0.08485565 0.08425467
v -0.06122604 0.08485565 0.09191044
v -0.05357838 0.08510111 0.00768882
v -0.05357838 0.08510111 0.01534459
v -0.04592260 0.08510111 0.00768882
v -0.04592260 0.08510111 0.01534459
v -0.05357838 0.08510111 0.02300037
v -0.05357838 0.08510111 0.03065614
v -0.04592260 0.08510111 0.02300037
v -0.04592260 0.08506007 0.03065614
v -0.03826683 0.08510111 0.00768882
v -0.03826683 0.08510111 0.01534459
v -0.03061106 0.08510111 0.00768882
v -0.03061106 0.08510111 0.01534459
v -0.03826683 0.08510111 0.02300037
v -0.03826536 0.08501929 0.03065541
v -0.03061106 0.08506007 0.02300037
v -0.03060909 0.08497826 0.03065614
v -0.05357690 0.08501929 0.03831118
v -0.05357494 0.08497826 0.04596892
v -0.04592064 0.08497826 0.03831192
v -0.04591916 0.08493747 0.04597113
v -0.05357420 0.08489644 0.05362764
v -0.05357297 0.08485565 0.06128464
v -0.04591646 0.08485565 0.05362764
v -0.04591499 0.08485565 0.06128661
v -0.03826339 0.08497826 0.03831314
v -0.03826143 0.08489644 0.04597113
v -0.03060762 0.08493747 0.03831536
v -0.03060491 0.08485565 0.04597187
v -0.03825921 0.08485565 0.05362887
v -0.03825872 0.08485565 0.06128735
v -0.03060344 0.08485565 0.05363084
v -0.03060295 0.08485565 0.06128735
v -0.02295528 0.08510111 0.00768882
v -0.02295528 0.08506007 0.01534459
v -0.01529951 0.08510111 0.00768882
v -0.01529803 0.08501929 0.01534386
v -0.02295455 0.08497826 0.02300111
v -0.02295258 0.08497826 0.03065885
v -0.01529607 0.08497826 0.02300160
v -0.01529533 0.08489644 0.03066007
v -0.00764496 0.08501929 0.00769152
v -0.00764226 0.08497826 0.01534582
v 0.00001351 0.08493747 0.00769423
v 0.00001474 0.08497850 0.01534926
v -0.00764029 0.08497826 0.02300381
v -0.00763686 0.08493747 0.03065885
v 0.00001622 0.08501929 0.02300430
v 0.00001818 0.08497850 0.03065811
v -0.02294988 0.08489644 0.03831536
v -0.02294767 0.08485565 0.04597310
v -0.01529410 0.08485565 0.03831732
v -0.01529189 0.08485565 0.04597506
v -0.02294717 0.08485565 0.05363157
v -0.02294717 0.08485565 0.06128735
v -0.01529140 0.08485565 0.05363157
v -0.01529115 0.08485565 0.06128735
v -0.00763489 0.08493747 0.03831658
v -0.00763415 0.08493771 0.04597310
v 0.00001818 0.08501929 0.03831585
v 0.00001892 0.08501929 0.04597039
v -0.00763415 0.08493771 0.05362887
v -0.00763415 0.08493771 0.06128464
v 0.00001892 0.08501929 0.05362617
v 0.00001892 0.08501929 0.06128194
v -0.05357076 0.08485565 0.06894238
v -0.05357027 0.08485565 0.07659889
v -0.04591450 0.08485565 0.06894312
v -0.04591450 0.08485565 0.07659889
v -0.05357027 0.08485565 0.08425467
v -0.05357027 0.08485565 0.09191044
v -0.04591450 0.08485565 0.08425467
v -0.04591450 0.08485565 0.09191044
v -0.03825872 0.08485565 0.06894312
v -0.03825872 0.08485565 0.07659889
v -0.03060295 0.08485565 0.06894312
v -0.03060295 0.08485565 0.07659889
v -0.03825872 0.08485565 0.08425467
v -0.03825872 0.08485565 0.09191044
v -0.03060295 0.08485565 0.08425467
v -0.03060295 0.08485565 0.09191044
v -0.02294717 0.08485565 0.06894312
v -0.02294717 0.08485565 0.07659889
v -0.01529115 0.08485565 0.06894312
v -0.01529115 0.08485565 0.07659889
v -0.02294717 0.08485565 0.08425467
v -0.02294717 0.08485565 0.09191044
v -0.01529115 0.08485565 0.08425467
v -0.01529115 0.08485565 0.09191044
v -0.00763415 0.08493771 0.06894042
v -0.00763415 0.08493771 0.07659619
v 0.00001892 0.08501929 0.06893771
v 0.00001892 0.08501929 0.07659349
v -0.00763415 0.08493771 0.08425197
v -0.00763415 0.08489668 0.09190774
v 0.00001892 0.08501929 0.08424926
v 0.00002015 0.08493747 0.09190430
v 0.00767617 0.08485565 -0.05354926
v 0.00767469 0.08485565 -0.04589275
v 0.01533194 0.08485565 -0.05354926
v 0.01533194 0.08485565 -0.04589349
v 0.00767273 0.08485565 -0.03823698
v 0.00767199 0.08485565 -0.03058194
v 0.01533194 0.08485565 -0.03823771
v 0.01533194 0.08485565 -0.03058194
v 0.02298771 0.08485565 -0.05354926
v 0.02298771 0.08485565 -0.04589349
v 0.03064349 0.08485565 -0.05354926
v 0.03064349 0.08485565 -0.04589349
v 0.02298771 0.08485565 -0.03823771
v 0.02298771 0.08485565 -0.03058194
v 0.03064349 0.08485565 -0.03823771
v 0.03064349 0.08485565 -0.03058194
v 0.00767199 0.08485565 -0.02292617
v 0.00767199 0.08485565 -0.01527039
v 0.01533194 0.08485565 -0.02292617
v 0.01533194 0.08485565 -0.01527039
v 0.00767199 0.08485565 -0.00761462
v 0.00767199 0.08485565 0.00004115
v 0.01533194 0.08485565 -0.00761462
v 0.01533194 0.08485565 0.00004115
v 0.02298771 0.08485565 -0.02292617
v 0.02298771 0.08485565 -0.01527039
v 0.03064349 0.08485565 -0.02292617
v 0.03064349 0.08485565 -0.01527039
v 0.02298771 0.08485565 -0.00761462
v 0.02298771 0.08489668 0.00004115
v 0.03064349 0.08485565 -0.00761462
v 0.03064201 0.08493771 0.00004189
v 0.03829926 0.08485565 -0.05354926
v 0.03829926 0.08485565 -0.04589349
v 0.04595504 0.08485565 -0.05354926
v 0.04595504 0.08485565 -0.04589349
v 0.03829926 0.08485565 -0.03823771
v 0.03829926 0.08485565 -0.03058194
v 0.04595504 0.08485565 -0.03823771
v 0.04595504 0.08485565 -0.03058194
v 0.05361081 0.08485565 -0.05354926
v 0.05361081 0.08485565 -0.04589349
v 0.06126658 0.08485565 -0.05354926
v 0.06126658 0.08485565 -0.04589349
v 0.05361081 0.08485565 -0.03823771
v 0.05361081 0.08485565 -0.03058194
v 0.06126658 0.08485565 -0.03823771
v 0.06126658 0.08485565 -0.03058194
v 0.03829926 0.08485565 -0.02292617
v 0.03829926 0.08485565 -0.01527039
v 0.04595504 0.08485565 -0.02292617
v 0.04595504 0.08489668 -0.01527039
v 0.03829926 0.08489668 -0.00761462
v 0.03829705 0.08497850 0.00004115
v 0.04595430 0.08497850 -0.00761536
v 0.04595233 0.08497850 0.00003845
v 0.05361081 0.08485565 -0.02292617
v 0.05360934 0.08493771 -0.01526966
v 0.06126658 0.08489668 -0.02292617
v 0.06126437 0.08497850 -0.01527039
v 0.05360737 0.08497850 -0.00761609
v 0.05360663 0.08506032 0.00003698
v 0.06126314 0.08501929 -0.00761806
v 0.06126044 0.08510111 0.00003698
v 0.06892236 0.08485565 -0.05354926
v 0.06892236 0.08485565 -0.04589349
v 0.07657813 0.08485565 -0.05354926
v 0.07657813 0.08485565 -0.04589349
v 0.06892236 0.08485565 -0.03823771
v 0.06892236 0.08485565 -0.03058194
v 0.07657813 0.08485565 -0.03823771
v 0.07657813 0.08489668 -0.03058194
v 0.08423391 0.08485565 -0.05354926
v 0.08423391 0.08485565 -0.04589349
v 0.09188968 0.08485565 -0.05354926
v 0.09188968 0.08485565 -0.04589349
v 0.08423391 0.08489668 -0.03823771
v 0.08423317 0.08497850 -0.03058268
v 0.09188821 0.08493771 -0.03823698
v 0.09188624 0.08497850 -0.03058342
v 0.06892088 0.08493771 -0.02292543
v 0.06891892 0.08497850 -0.01527187
v 0.07657592 0.08497850 -0.02292617
v 0.07657469 0.08501929 -0.01527383
v 0.06891695 0.08506032 -0.00761806
v 0.06891474 0.08510111 0.00003575
v 0.07657199 0.08510111 -0.00761880
v 0.07657052 0.08510111 0.00003354
v 0.08423120 0.08497850 -0.02292887
v 0.08422850 0.08506032 -0.01527383
v 0.09188550 0.08506032 -0.02293034
v 0.09188428 0.08510111 -0.01527580
v 0.08422629 0.08510111 -0.00762002
v 0.08422580 0.08510111 0.00003305
v 0.09188206 0.08510111 -0.00762224
v 0.09188157 0.08510111 0.00003305
v 0.09954545 0.08485565 -0.05354926
v 0.09954545 0.08489668 -0.04589349
v 0.10720123 0.08489668 -0.05354926
v 0.10720049 0.08497850 -0.04589423
v 0.09954349 0.08497850 -0.03823771
v 0.09954201 0.08501929 -0.03058538
v 0.10719853 0.08497850 -0.03824042
v 0.10719582 0.08506032 -0.03058538
v 0.11485553 0.08489668 -0.05354853
v 0.11485283 0.08489668 -0.04589349
v 0.12251204 0.08493771 -0.05355000
v 0.12251204 0.08497850 -0.04589619
v 0.11485160 0.08497850 -0.03823919
v 0.11485012 0.08501929 -0.03058464
v 0.12251007 0.08501953 -0.03824042
v 0.12250811 0.08501929 -0.03058686
v 0.09953931 0.08510111 -0.02293034
v 0.09953784 0.08510111 -0.01527801
v 0.10719361 0.08510111 -0.02293157
v 0.10719312 0.08510111 -0.01527850
v 0.09953735 0.08510111 -0.00762273
v 0.09953735 0.08510111 0.00003305
v 0.10719312 0.08510111 -0.00762273
v 0.10719312 0.08510111 0.00003305
v 0.11484816 0.08501929 -0.02293108
v 0.11484742 0.08501929 -0.01527580
v 0.12250737 0.08501929 -0.02293157
v 0.12250737 0.08501929 -0.01527580
v 0.11484742 0.08501929 -0.00762002
v 0.11484742 0.08501929 0.00003575
v 0.12250737 0.08501929 -0.00762002
v 0.12250737 0.08501929 0.00003575
v 0.00767199 0.08485565 0.00769693
v 0.00767052 0.08493747 0.01535344
v 0.01533194 0.08489668 0.00769693
v 0.01532973 0.08497850 0.01535270
v 0.00766978 0.08497850 0.02300651
v 0.00767125 0.08506032 0.03065958
v 0.01532850 0.08501929 0.02300504
v 0.01532580 0.08510111 0.03066007
v 0.02298698 0.08497850 0.00769619
v 0.02298477 0.08497850 0.01535000
v 0.03064005 0.08497850 0.00769545
v 0.03063931 0.08506032 0.01534853
v 0.02298206 0.08506032 0.02300504
v 0.02298010 0.08510111 0.03065885
v 0.03063784 0.08510111 0.02300307
v 0.03063587 0.08510111 0.03065688
v 0.00767199 0.08510111 0.03831388
v 0.00767199 0.08510111 0.04596769
v 0.01532432 0.08510111 0.03831265
v 0.01532359 0.08510111 0.04596769
v 0.00767199 0.08510111 0.05362346
v 0.00767199 0.08510111 0.06127924
v 0.01532359 0.08510111 0.05362346
v 0.01532359 0.08510111 0.06127924
v 0.02297936 0.08510111 0.03831192
v 0.02297936 0.08510111 0.04596769
v 0.03063514 0.08510111 0.03831192
v 0.03063514 0.08510111 0.04596769
v 0.02297936 0.08510111 0.05362346
v 0.02297936 0.08510111 0.06127924
v 0.03063514 0.08510111 0.05362346
v 0.03063514 0.08510111 0.06127924
v 0.03829582 0.08501929 0.00769349
v 0.03829312 0.08510111 0.01534853
v 0.04594939 0.08506032 0.00769349
v 0.04594742 0.08510111 0.01534730
v 0.03829165 0.08510111 0.02300111
v 0.03829091 0.08510111 0.03065614
v 0.04594668 0.08510111 0.02300037
v 0.04594668 0.08510111 0.03065614
v 0.05360541 0.08510111 0.00769152
v 0.05360319 0.08510111 0.01534533
v 0.06125897 0.08510111 0.00768931
v 0.06125823 0.08510111 0.01534459
v 0.05360246 0.08510111 0.02300037
v 0.05360246 0.08510111 0.03065614
v 0.06125823 0.08510111 0.02300037
v 0.06125823 0.08510111 0.03065614
v 0.03829091 0.08510111 0.03831192
v 0.03829091 0.08510111 0.04596769
v 0.04594668 0.08510111 0.03831192
v 0.04594668 0.08510111 0.04596769
v 0.03829091 0.08510111 0.05362346
v 0.03829091 0.08510111 0.06127924
v 0.04594668 0.08510111 0.05362346
v 0.04594668 0.08510111 0.06127924
v 0.05360246 0.08510111 0.03831192
v 0.05360246 0.08510111 0.04596769
v 0.06125823 0.08510111 0.03831192
v 0.06125823 0.08510111 0.04596769
v 0.05360246 0.08510111 0.05362346
v 0.05360246 0.08510111 0.06127924
v 0.06125823 0.08510111 0.05362346
v 0.06125823 0.08510111 0.06127924
v 0.00767199 0.08510111 0.06893501
v 0.00767199 0.08510111 0.07659079
v 0.01532359 0.08510111 0.06893501
v 0.01532359 0.08510111 0.07659079
v 0.00767199 0.08510111 0.08424656
v 0.00767469 0.08501929 0.09190111
v 0.01532359 0.08510111 0.08424656
v 0.01532629 0.08501929 0.09190111
v 0.02297936 0.08510111 0.06893501
v 0.02297936 0.08510111 0.07659079
v 0.03063514 0.08510111 0.06893501
v 0.03063514 0.08510111 0.07659079
v 0.02297936 0.08510111 0.08424656
v 0.02298206 0.08501929 0.09190111
v 0.03063514 0.08510111 0.08424656
v 0.03063784 0.08501929 0.09190111
v 0.03829091 0.08510111 0.06893501
v 0.03829091 0.08510111 0.07659079
v 0.04594668 0.08510111 0.06893501
v 0.04594668 0.08510111 0.07659079
v 0.03829091 0.08510111 0.08424656
v 0.03829361 0.08501929 0.09190111
v 0.04594668 0.08510111 0.08424656
v 0.04594939 0.08501929 0.09190111
v 0.05360246 0.08510111 0.06893501
v 0.05360246 0.08510111 0.07659079
v 0.06125823 0.08510111 0.06893501
v 0.06125823 0.08510111 0.07659079
v 0.05360246 0.08510111 0.08424656
v 0.05360516 0.08501929 0.09190111
v 0.06125823 0.08510111 0.08424656
v 0.06126118 0.08501929 0.09190111
v 0.06891400 0.08510111 0.00768882
v 0.06891400 0.08510111 0.01534459
v 0.07656978 0.08510111 0.00768882
v 0.07656978 0.08510111 0.01534459
v 0.06891400 0.08510111 0.02300037
v 0.06891400 0.08510111 0.03065614
v 0.07656978 0.08510111 0.02300037
v 0.07656978 0.08510111 0.03065614
v 0.08422580 0.08510111 0.00768882
v 0.08422580 0.08510111 0.01534459
v 0.09188157 0.08510111 0.00768882
v 0.09188157 0.08510111 0.01534459
v 0.08422580 0.08510111 0.02300037
v 0.08422580 0.08510111 0.03065614
v 0.09188157 0.08510111 0.02300037
v 0.09188157 0.08510111 0.03065614
v 0.06891400 0.08510111 0.03831192
v 0.06891400 0.08510111 0.04596769
v 0.07656978 0.08510111 0.03831192
v 0.07656978 0.08510111 0.04596769
v 0.06891400 0.08510111 0.05362346
v 0.06891400 0.08510111 0.06127924
v 0.07656978 0.08510111 0.05362346
v 0.07656978 0.08510111 0.06127924
v 0.08422580 0.08510111 0.03831192
v 0.08422580 0.08510111 0.04596769
v 0.09188157 0.08510111 0.03831192
v 0.09188157 0.08510111 0.04596769
v 0.08422580 0.08510111 0.05362346
v 0.08422580 0.08510111 0.06127924
v 0.09188157 0.08510111 0.05362346
v 0.09188157 0.08510111 0.06127924
v 0.09953735 0.08510111 0.00768882
v 0.09953735 0.08510111 0.01534459
v 0.10719312 0.08510111 0.00768882
v 0.10719312 0.08510111 0.01534459
v 0.09953735 0.08510111 0.02300037
v 0.09953735 0.08510111 0.03065614
v 0.10719312 0.08510111 0.02300037
v 0.10719312 0.08510111 0.03065614
v 0.11484742 0.08501929 0.00769152
v 0.11484742 0.08501929 0.01534730
v 0.12250737 0.08497826 0.00769152
v 0.12250663 0.08493747 0.01534853
v 0.11484742 0.08501929 0.02300307
v 0.11484742 0.08501929 0.03065885
v 0.12250590 0.08493747 0.02300577
v 0.12250590 0.08493747 0.03066155
v 0.09953735 0.08510111 0.03831192
v 0.09953735 0.08510111 0.04596769
v 0.10719312 0.08510111 0.03831192
v 0.10719312 0.08510111 0.04596769
v 0.09953735 0.08510111 0.05362346
v 0.09953735 0.08510111 0.06127924
v 0.10719312 0.08510111 0.05362346
v 0.10719312 0.08510111 0.06127924
v 0.11484742 0.08501929 0.03831462
v 0.11484742 0.08501929 0.04597039
v 0.12250590 0.08493747 0.03831732
v 0.12250590 0.08493747 0.04597310
v 0.11484742 0.08501929 0.05362617
v 0.11484742 0.08501929 0.06128194
v 0.12250590 0.08493747 0.05362887
v 0.12250590 0.08493747 0.06128464
v 0.06891400 0.08510111 0.06893501
v 0.06891400 0.08510111 0.07659079
v 0.07656978 0.08510111 0.06893501
v 0.07656978 0.08510111 0.07659079
v 0.06891400 0.08510111 0.08424656
v 0.06891695 0.08501929 0.09190111
v 0.07656978 0.08510111 0.08424656
v 0.07657273 0.08501929 0.09190111
v 0.08422580 0.08510111 0.06893501
v 0.08422580 0.08510111 0.07659079
v 0.09188157 0.08510111 0.06893501
v 0.09188157 0.08510111 0.07659079
v 0.08422580 0.08510111 0.08424656
v 0.08422850 0.08501929 0.09190111
v 0.09188157 0.08510111 0.08424656
v 0.09188428 0.08501929 0.09190111
v 0.09953735 0.08510111 0.06893501
v 0.09953735 0.08510111 0.07659079
v 0.10719312 0.08510111 0.06893501
v 0.10719312 0.08510111 0.07659079
v 0.09953735 0.08510111 0.08424656
v 0.09954005 0.08501929 0.09190111
v 0.10719312 0.08510111 0.08424656
v 0.10719582 0.08501929 0.09190111
v 0.11484742 0.08501929 0.06893771
v 0.11484742 0.08501929 0.07659349
v 0.12250590 0.08493747 0.06894042
v 0.12250590 0.08493747 0.07659619
v 0.11484742 0.08501929 0.08424926
v 0.11485012 0.08497826 0.09190381
v 0.12250590 0.08493747 0.08425197
v 0.12250737 0.08493747 0.09190700
f 1 10 2
f 9 12 10
f 9 11 12
f 2 13 3
f 2 10 13
f 3 14 4
f 3 13 14
f 10 15 13
f 10 12 15
f 13 16 14
f 13 15 16
f 11 18 12
f 11 17 18
f 17 20 18
f 17 19 20
f 12 21 15
f 12 18 21
f 15 22 16
f 15 21 22
f 18 23 21
f 18 20 23
f 21 24 22
f 21 23 24
f 4 25 5
f 4 14 25
f 5 26 6
f 5 25 26
f 14 27 25
f 14 16 27
f 25 28 26
f 25 27 28
f 6 29 7
f 6 26 29
f 7 30 8
f 7 29 30
f 26 31 29
f 26 28 31
f 29 32 30
f 29 31 32
f 16 33 27
f 16 22 33
f 27 34 28
f 27 33 34
f 22 35 33
f 22 24 35
f 33 36 34
f 33 35 36
f 28 37 31
f 28 34 37
f 31 38 32
f 31 37 38
f 34 39 37
f 34 36 39
f 37 40 38
f 37 39 40
f 19 42 20
f 19 41 42
f 41 44 42
f 41 43 44
f 20 45 23
f 20 42 45
f 23 46 24
f 23 45 46
f 42 47 45
f 42 44 47
f 45 48 46
f 45 47 48
f 43 50 44
f 43 49 50
f 49 52 50
f 49 51 52
f 44 53 47
f 44 50 53
f 47 54 48
f 47 53 54
f 50 55 53
f 50 52 55
f 53 56 54
f 53 55 56
f 24 57 35
f 24 46 57
f 35 58 36
f 35 57 58
f 46 59 57
f 46 48 59
f 57 60 58
f 57 59 60
f 36 61 39
f 36 58 61
f 39 62 40
f 39 61 62
f 58 63 61
f 58 60 63
f 61 64 62
f 61 63 64
f 48 65 59
f 48 54 65
f 59 66 60
f 59 65 66
f 54 67 65
f 54 56 67
f 65 68 66
f 65 67 68
f 60 69 63
f 60 66 69
f 63 70 64
f 63 69 70
f 66 71 69
f 66 68 71
f 69 72 70
f 69 71 72
f 51 74 52
f 51 73 74
f 73 76 74
f 73 75 76
f 52 77 55
f 52 74 77
f 55 78 56
f 55 77 78
f 74 79 77
f 74 76 79
f 77 80 78
f 77 79 80
f 75 82 76
f 75 81 82
f 81 84 82
f 81 83 84
f 76 85 79
f 76 82 85
f 79 86 80
f 79 85 86
f 82 87 85
f 82 84 87
f 85 88 86
f 85 87 88
f 56 89 67
f 56 78 89
f 67 90 68
f 67 89 90
f 78 91 89
f 78 80 91
f 89 92 90
f 89 91 92
f 68 93 71
f 68 90 93
f 71 94 72
f 71 93 94
f 90 95 93
f 90 92 95
f 93 96 94
f 93 95 96
f 80 97 91
f 80 86 97
f 91 98 92
f 91 97 98
f 86 99 97
f 86 88 99
f 97 100 98
f 97 99 100
f 92 101 95
f 92 98 101
f 95 102 96
f 95 101 102
f 98 103 101
f 98 100 103
f 101 104 102
f 101 103 104
f 83 106 84
f 83 105 106
f 105 108 106
f 105 107 108
f 84 109 87
f 84 106 109
f 87 110 88
f 87 109 110
f 106 111 109
f 106 108 111
f 109 112 110
f 109 111 112
f 107 114 108
f 107 113 114
f 113 116 114
f 113 115 116
f 108 117 111
f 108 114 117
f 111 118 112
f 111 117 118
f 114 119 117
f 114 116 119
f 117 120 118
f 117 119 120
f 88 121 99
f 88 110 121
f 99 122 100
f 99 121 122
f 110 123 121
f 110 112 123
f 121 124 122
f 121 123 124
f 100 125 103
f 100 122 125
f 103 126 104
f 103 125 126
f 122 127 125
f 122 124 127
f 125 128 126
f 125 127 128
f 112 129 123
f 112 118 129
f 123 130 124
f 123 129 130
f 118 131 129
f 118 120 131
f 129 132 130
f 129 131 132
f 124 133 127
f 124 130 133
f 127 134 128
f 127 133 134
f 130 135 133
f 130 132 135
f 133 136 134
f 133 135 136
f 8 149 137
f 8 30 149
f 137 150 138
f 137 149 150
f 30 151 149
f 30 32 151
f 149 152 150
f 149 151 152
f 138 153 139
f 138 150 153
f 139 154 140
f 139 153 154
f 150 155 153
f 150 152 155
f 153 156 154
f 153 155 156
f 32 157 151
f 32 38 157
f 151 158 152
f 151 157 158
f 38 159 157
f 38 40 159
f 157 160 158
f 157 159 160
f 152 161 155
f 152 158 161
f 155 162 156
f 155 161 162
f 158 163 161
f 158 160 163
f 161 164 162
f 161 163 164
f 140 165 141
f 140 154 165
f 141 166 142
f 141 165 166
f 154 167 165
f 154 156 167
f 165 168 166
f 165 167 168
f 142 169 143
f 142 166 169
f 143 170 144
f 143 169 170
f 166 171 169
f 166 168 171
f 169 172 170
f 169 171 172
f 156 173 167
f 156 162 173
f 167 174 168
f 167 173 174
f 162 175 173
f 162 164 175
f 173 176 174
f 173 175 176
f 168 177 171
f 168 174 177
f 171 178 172
f 171 177 178
f 174 179 177
f 174 176 179
f 177 180 178
f 177 179 180
f 40 181 159
f 40 62 181
f 159 182 160
f 159 181 182
f 62 183 181
f 62 64 183
f 181 184 182
f 181 183 184
f 160 185 163
f 160 182 185
f 163 186 164
f 163 185 186
f 182 187 185
f 182 184 187
f 185 188 186
f 185 187 188
f 64 189 183
f 64 70 189
f 183 190 184
f 183 189 190
f 70 191 189
f 70 72 191
f 189 192 190
f 189 191 192
f 184 193 187
f 184 190 193
f 187 194 188
f 187 193 194
f 190 195 193
f 190 192 195
f 193 196 194
f 193 195 196
f 164 197 175
f 164 186 197
f 175 198 176
f 175 197 198
f 186 199 197
f 186 188 199
f 197 200 198
f 197 199 200
f 176 201 179
f 176 198 201
f 179 202 180
f 179 201 202
f 198 203 201
f 198 200 203
f 201 204 202
f 201 203 204
f 188 205 199
f 188 194 205
f 199 206 200
f 199 205 206
f 194 207 205
f 194 196 207
f 205 208 206
f 205 207 208
f 200 209 203
f 200 206 209
f 203 210 204
f 203 209 210
f 206 211 209
f 206 208 211
f 209 212 210
f 209 211 212
f 144 213 145
f 144 170 213
f 145 214 146
f 145 213 214
f 170 215 213
f 170 172 215
f 213 216 214
f 213 215 216
f 146 217 147
f 146 214 217
f 147 218 148
f 147 217 218
f 214 219 217
f 214 216 219
f 217 220 218
f 217 219 220
f 172 221 215
f 172 178 221
f 215 222 216
f 215 221 222
f 178 223 221
f 178 180 223
f 221 224 222
f 221 223 224
f 216 225 219
f 216 222 225
f 219 226 220
f 219 225 226
f 222 227 225
f 222 224 227
f 225 228 226
f 225 227 228
f 180 229 223
f 180 202 229
f 223 230 224
f 223 229 230
f 202 231 229
f 202 204 231
f 229 232 230
f 229 231 232
f 224 233 227
f 224 230 233
f 227 234 228
f 227 233 234
f 230 235 233
f 230 232 235
f 233 236 234
f 233 235 236
f 204 237 231
f 204 210 237
f 231 238 232
f 231 237 238
f 210 239 237
f 210 212 239
f 237 240 238
f 237 239 240
f 232 241 235
f 232 238 241
f 235 242 236
f 235 241 242
f 238 243 241
f 238 240 243
f 241 244 242
f 241 243 244
f 72 245 191
f 72 94 245
f 191 246 192
f 191 245 246
f 94 247 245
f 94 96 247
f 245 248 246
f 245 247 248
f 192 249 195
f 192 246 249
f 195 250 196
f 195 249 250
f 246 251 249
f 246 248 251
f 249 252 250
f 249 251 252
f 96 253 247
f 96 102 253
f 247 254 248
f 247 253 254
f 102 255 253
f 102 104 255
f 253 256 254
f 253 255 256
f 248 257 251
f 248 254 257
f 251 258 252
f 251 257 258
f 254 259 257
f 254 256 259
f 257 260 258
f 257 259 260
f 196 261 207
f 196 250 261
f 207 262 208
f 207 261 262
f 250 263 261
f 250 252 263
f 261 264 262
f 261 263 264
f 208 265 211
f 208 262 265
f 211 266 212
f 211 265 266
f 262 267 265
f 262 264 267
f 265 268 266
f 265 267 268
f 252 269 263
f 252 258 269
f 263 270 264
f 263 269 270
f 258 271 269
f 258 260 271
f 269 272 270
f 269 271 272
f 264 273 267
f 264 270 273
f 267 274 268
f 267 273 274
f 270 275 273
f 270 272 275
f 273 276 274
f 273 275 276
f 104 277 255
f 104 126 277
f 255 278 256
f 255 277 278
f 126 279 277
f 126 128 279
f 277 280 278
f 277 279 280
f 256 281 259
f 256 278 281
f 259 282 260
f 259 281 282
f 278 283 281
f 278 280 283
f 281 284 282
f 281 283 284
f 128 285 279
f 128 134 285
f 279 286 280
f 279 285 286
f 134 287 285
f 134 136 287
f 285 288 286
f 285 287 288
f 280 289 283
f 280 286 289
f 283 290 284
f 283 289 290
f 286 291 289
f 286 288 291
f 289 292 290
f 289 291 292
f 260 293 271
f 260 282 293
f 271 294 272
f 271 293 294
f 282 295 293
f 282 284 295
f 293 296 294
f 293 295 296
f 272 297 275
f 272 294 297
f 275 298 276
f 275 297 298
f 294 299 297
f 294 296 299
f 297 300 298
f 297 299 300
f 284 301 295
f 284 290 301
f 295 302 296
f 295 301 302
f 290 303 301
f 290 292 303
f 301 304 302
f 301 303 304
f 296 305 299
f 296 302 305
f 299 306 300
f 299 305 306
f 302 307 305
f 302 304 307
f 305 308 306
f 305 307 308
f 212 309 239
f 212 266 309
f 239 310 240
f 239 309 310
f 266 311 309
f 266 268 311
f 309 312 310
f 309 311 312
f 240 313 243
f 240 310 313
f 243 314 244
f 243 313 314
f 310 315 313
f 310 312 315
f 313 316 314
f 313 315 316
f 268 317 311
f 268 274 317
f 311 318 312
f 311 317 318
f 274 319 317
f 274 276 319
f 317 320 318
f 317 319 320
f 312 321 315
f 312 318 321
f 315 322 316
f 315 321 322
f 318 323 321
f 318 320 323
f 321 324 322
f 321 323 324
f 276 325 319
f 276 298 325
f 319 326 320
f 319 325 326
f 298 327 325
f 298 300 327
f 325 328 326
f 325 327 328
f 320 329 323
f 320 326 329
f 323 330 324
f 323 329 330
f 326 331 329
f 326 328 331
f 329 332 330
f 329 331 332
f 300 333 327
f 300 306 333
f 327 334 328
f 327 333 334
f 306 335 333
f 306 308 335
f 333 336 334
f 333 335 336
f 328 337 331
f 328 334 337
f 331 338 332
f 331 337 338
f 334 339 337
f 334 336 339
f 337 340 338
f 337 339 340
f 115 342 116
f 115 341 342
f 341 344 342
f 341 343 344
f 116 345 119
f 116 342 345
f 119 346 120
f 119 345 346
f 342 347 345
f 342 344 347
f 345 348 346
f 345 347 348
f 343 350 344
f 343 349 350
f 349 352 350
f 349 351 352
f 344 353 347
f 344 350 353
f 347 354 348
f 347 353 354
f 350 355 353
f 350 352 355
f 353 356 354
f 353 355 356
f 120 357 131
f 120 346 357
f 131 358 132
f 131 357 358
f 346 359 357
f 346 348 359
f 357 360 358
f 357 359 360
f 132 361 135
f 132 358 361
f 135 362 136
f 135 361 362
f 358 363 361
f 358 360 363
f 361 364 362
f 361 363 364
f 348 365 359
f 348 354 365
f 359 366 360
f 359 365 366
f 354 367 365
f 354 356 367
f 365 368 366
f 365 367 368
f 360 369 363
f 360 366 369
f 363 370 364
f 363 369 370
f 366 371 369
f 366 368 371
f 369 372 370
f 369 371 372
f 351 374 352
f 351 373 374
f 373 376 374
f 373 375 376
f 352 377 355
f 352 374 377
f 355 378 356
f 355 377 378
f 374 379 377
f 374 376 379
f 377 380 378
f 377 379 380
f 375 382 376
f 375 381 382
f 381 384 382
f 381 383 384
f 376 385 379
f 376 382 385
f 379 386 380
f 379 385 386
f 382 387 385
f 382 384 387
f 385 388 386
f 385 387 388
f 356 389 367
f 356 378 389
f 367 390 368
f 367 389 390
f 378 391 389
f 378 380 391
f 389 392 390
f 389 391 392
f 368 393 371
f 368 390 393
f 371 394 372
f 371 393 394
f 390 395 393
f 390 392 395
f 393 396 394
f 393 395 396
f 380 397 391
f 380 386 397
f 391 398 392
f 391 397 398
f 386 399 397
f 386 388 399
f 397 400 398
f 397 399 400
f 392 401 395
f 392 398 401
f 395 402 396
f 395 401 402
f 398 403 401
f 398 400 403
f 401 404 402
f 401 403 404
f 383 406 384
f 383 405 406
f 405 408 406
f 405 407 408
f 384 409 387
f 384 406 409
f 387 410 388
f 387 409 410
f 406 411 409
f 406 408 411
f 409 412 410
f 409 411 412
f 407 414 408
f 407 413 414
f 413 416 414
f 413 415 416
f 408 417 411
f 408 414 417
f 411 418 412
f 411 417 418
f 414 419 417
f 414 416 419
f 417 420 418
f 417 419 420
f 388 421 399
f 388 410 421
f 399 422 400
f 399 421 422
f 410 423 421
f 410 412 423
f 421 424 422
f 421 423 424
f 400 425 403
f 400 422 425
f 403 426 404
f 403 425 426
f 422 427 425
f 422 424 427
f 425 428 426
f 425 427 428
f 412 429 423
f 412 418 429
f 423 430 424
f 423 429 430
f 418 431 429
f 418 420 431
f 429 432 430
f 429 431 432
f 424 433 427
f 424 430 433
f 427 434 428
f 427 433 434
f 430 435 433
f 430 432 435
f 433 436 434
f 433 435 436
f 415 438 416
f 415 437 438
f 437 440 438
f 437 439 440
f 416 441 419
f 416 438 441
f 419 442 420
f 419 441 442
f 438 443 441
f 438 440 443
f 441 444 442
f 441 443 444
f 439 446 440
f 439 445 446
f 445 448 446
f 445 447 448
f 440 449 443
f 440 446 449
f 443 450 444
f 443 449 450
f 446 451 449
f 446 448 451
f 449 452 450
f 449 451 452
f 420 453 431
f 420 442 453
f 431 454 432
f 431 453 454
f 442 455 453
f 442 444 455
f 453 456 454
f 453 455 456
f 432 457 435
f 432 454 457
f 435 458 436
f 435 457 458
f 454 459 457
f 454 456 459
f 457 460 458
f 457 459 460
f 444 461 455
f 444 450 461
f 455 462 456
f 455 461 462
f 450 463 461
f 450 452 463
f 461 464 462
f 461 463 464
f 456 465 459
f 456 462 465
f 459 466 460
f 459 465 466
f 462 467 465
f 462 464 467
f 465 468 466
f 465 467 468
f 136 469 287
f 136 362 469
f 287 470 288
f 287 469 470
f 362 471 469
f 362 364 471
f 469 472 470
f 469 471 472
f 288 473 291
f 288 470 473
f 291 474 292
f 291 473 474
f 470 475 473
f 470 472 475
f 473 476 474
f 473 475 476
f 364 477 471
f 364 370 477
f 471 478 472
f 471 477 478
f 370 479 477
f 370 372 479
f 477 480 478
f 477 479 480
f 472 481 475
f 472 478 481
f 475 482 476
f 475 481 482
f 478 483 481
f 478 480 483
f 481 484 482
f 481 483 484
f 292 485 303
f 292 474 485
f 303 486 304
f 303 485 486
f 474 487 485
f 474 476 487
f 485 488 486
f 485 487 488
f 304 489 307
f 304 486 489
f 307 490 308
f 307 489 490
f 486 491 489
f 486 488 491
f 489 492 490
f 489 491 492
f 476 493 487
f 476 482 493
f 487 494 488
f 487 493 494
f 482 495 493
f 482 484 495
f 493 496 494
f 493 495 496
f 488 497 491
f 488 494 497
f 491 498 492
f 491 497 498
f 494 499 497
f 494 496 499
f 497 500 498
f 497 499 500
f 372 501 479
f 372 394 501
f 479 502 480
f 479 501 502
f 394 503 501
f 394 396 503
f 501 504 502
f 501 503 504
f 480 505 483
f 480 502 505
f 483 506 484
f 483 505 506
f 502 507 505
f 502 504 507
f 505 508 506
f 505 507 508
f 396 509 503
f 396 402 509
f 503 510 504
f 503 509 510
f 402 511 509
f 402 404 511
f 509 512 510
f 509 511 512
f 504 513 507
f 504 510 513
f 507 514 508
f 507 513 514
f 510 515 513
f 510 512 515
f 513 516 514
f 513 515 516
f 484 517 495
f 484 506 517
f 495 518 496
f 495 517 518
f 506 519 517
f 506 508 519
f 517 520 518
f 517 519 520
f 496 521 499
f 496 518 521
f 499 522 500
f 499 521 522
f 518 523 521
f 518 520 523
f 521 524 522
f 521 523 524
f 508 525 519
f 508 514 525
f 519 526 520
f 519 525 526
f 514 527 525
f 514 516 527
f 525 528 526
f 525 527 528
f 520 529 523
f 520 526 529
f 523 530 524
f 523 529 530
f 526 531 529
f 526 528 531
f 529 532 530
f 529 531 532
f 308 533 335
f 308 490 533
f 335 534 336
f 335 533 534
f 490 535 533
f 490 492 535
f 533 536 534
f 533 535 536
f 336 537 339
f 336 534 537
f 339 538 340
f 339 537 538
f 534 539 537
f 534 536 539
f 537 540 538
f 537 539 540
f 492 541 535
f 492 498 541
f 535 542 536
f 535 541 542
f 498 543 541
f 498 500 543
f 541 544 542
f 541 543 544
f 536 545 539
f 536 542 545
f 539 546 540
f 539 545 546
f 542 547 545
f 542 544 547
f 545 548 546
f 545 547 548
f 500 549 543
f 500 522 549
f 543 550 544
f 543 549 550
f 522 551 549
f 522 524 551
f 549 552 550
f 549 551 552
f 544 553 547
f 544 550 553
f 547 554 548
f 547 553 554
f 550 555 553
f 550 552 555
f 553 556 554
f 553 555 556
f 524 557 551
f 524 530 557
f 551 558 552
f 551 557 558
f 530 559 557
f 530 532 559
f 557 560 558
f 557 559 560
f 552 561 555
f 552 558 561
f 555 562 556
f 555 561 562
f 558 563 561
f 558 560 563
f 561 564 562
f 561 563 564
f 404 565 511
f 404 426 565
f 511 566 512
f 511 565 566
f 426 567 565
f 426 428 567
f 565 568 566
f 565 567 568
f 512 569 515
f 512 566 569
f 515 570 516
f 515 569 570
f 566 571 569
f 566 568 571
f 569 572 570
f 569 571 572
f 428 573 567
f 428 434 573
f 567 574 568
f 567 573 574
f 434 575 573
f 434 436 575
f 573 576 574
f 573 575 576
f 568 577 571
f 568 574 577
f 571 578 572
f 571 577 578
f 574 579 577
f 574 576 579
f 577 580 578
f 577 579 580
f 516 581 527
f 516 570 581
f 527 582 528
f 527 581 582
f 570 583 581
f 570 572 583
f 581 584 582
f 581 583 584
f 528 585 531
f 528 582 585
f 531 586 532
f 531 585 586
f 582 587 585
f 582 584 587
f 585 588 586
f 585 587 588
f 572 589 583
f 572 578 589
f 583 590 584
f 583 589 590
f 578 591 589
f 578 580 591
f 589 592 590
f 589 591 592
f 584 593 587
f 584 590 593
f 587 594 588
f 587 593 594
f 590 595 593
f 590 592 595
f 593 596 594
f 593 595 596
f 436 597 575
f 436 458 597
f 575 598 576
f 575 597 598
f 458 599 597
f 458 460 599
f 597 600 598
f 597 599 600
f 576 601 579
f 576 598 601
f 579 602 580
f 579 601 602
f 598 603 601
f 598 600 603
f 601 604 602
f 601 603 604
f 460 605 599
f 460 466 605
f 599 606 600
f 599 605 606
f 466 607 605
f 466 468 607
f 605 608 606
f 605 607 608
f 600 609 603
f 600 606 609
f 603 610 604
f 603 609 610
f 606 611 609
f 606 608 611
f 609 612 610
f 609 611 612
f 580 613 591
f 580 602 613
f 591 614 592
f 591 613 614
f 602 615 613
f 602 604 615
f 613 616 614
f 613 615 616
f 592 617 595
f 592 614 617
f 595 618 596
f 595 617 618
f 614 619 617
f 614 616 619
f 617 620 618
f 617 619 620
f 604 621 615
f 604 610 621
f 615 622 616
f 615 621 622
f 610 623 621
f 610 612 623
f 621 624 622
f 621 623 624
f 616 625 619
f 616 622 625
f 619 626 620
f 619 625 626
f 622 627 625
f 622 624 627
f 625 628 626
f 625 627 628
f 532 629 559
f 532 586 629
f 559 630 560
f 559 629 630
f 586 631 629
f 586 588 631
f 629 632 630
f 629 631 632
f 560 633 563
f 560 630 633
f 563 634 564
f 563 633 634
f 630 635 633
f 630 632 635
f 633 636 634
f 633 635 636
f 588 637 631
f 588 594 637
f 631 638 632
f 631 637 638
f 594 639 637
f 594 596 639
f 637 640 638
f 637 639 640
f 632 641 635
f 632 638 641
f 635 642 636
f 635 641 642
f 638 643 641
f 638 640 643
f 641 644 642
f 641 643 644
f 596 645 639
f 596 618 645
f 639 646 640
f 639 645 646
f 618 647 645
f 618 620 647
f 645 648 646
f 645 647 648
f 640 649 643
f 640 646 649
f 643 650 644
f 643 649 650
f 646 651 649
f 646 648 651
f 649 652 650
f 649 651 652
f 620 653 647
f 620 626 653
f 647 654 648
f 647 653 654
f 626 655 653
f 626 628 655
f 653 656 654
f 653 655 656
f 648 657 651
f 648 654 657
f 651 658 652
f 651 657 658
f 654 659 657
f 654 656 659
f 657 660 658
f 657 659 660

