# https://github.com/mikedh/trimesh
v 0.19400000 0.20200000 -0.75400000
v 0.19400000 0.20200000 -0.75000000
v 0.19400000 0.20600000 -0.75400000
v 0.19400000 0.20600000 -0.75000000
v 0.19800000 0.20200000 -0.75400000
v 0.19800000 0.20200000 -0.75000000
v 0.19800000 0.20600000 -0.75400000
v 0.19400000 0.20200000 -0.74600000
v 0.19400000 0.20600000 -0.74600000
v 0.19800000 0.20200000 -0.74600000
v 0.19400000 0.20200000 -0.74200000
v 0.19400000 0.20600000 -0.74200000
v 0.19800000 0.20200000 -0.74200000
v 0.19800000 0.20600000 -0.74200000
v 0.19400000 0.21000000 -0.75400000
v 0.19400000 0.21000000 -0.75000000
v 0.19800000 0.21000000 -0.75400000
v 0.19400000 0.21000000 -0.74600000
v 0.19400000 0.21000000 -0.74200000
v 0.19800000 0.21000000 -0.74200000
v 0.19400000 0.21400000 -0.75400000
v 0.19400000 0.21400000 -0.75000000
v 0.19800000 0.21400000 -0.75400000
v 0.19400000 0.21400000 -0.74600000
v 0.19400000 0.21400000 -0.74200000
v 0.19800000 0.21400000 -0.74200000
v 0.19400000 0.21800000 -0.75400000
v 0.19400000 0.21800000 -0.75000000
v 0.19800000 0.21800000 -0.75400000
v 0.19800000 0.21800000 -0.75000000
v 0.19400000 0.21800000 -0.74600000
v 0.19800000 0.21800000 -0.74600000
v 0.19400000 0.21800000 -0.74200000
v 0.19800000 0.21800000 -0.74200000
v 0.19800000 0.19400000 -0.75400000
v 0.19800000 0.19400000 -0.75000000
v 0.19800000 0.19800000 -0.75400000
v 0.19800000 0.19800000 -0.75000000
v 0.20200000 0.19400000 -0.75400000
v 0.20200000 0.19400000 -0.75000000
v 0.20200000 0.19800000 -0.75400000
v 0.19800000 0.19400000 -0.74600000
v 0.19800000 0.19800000 -0.74600000
v 0.20200000 0.19400000 -0.74600000
v 0.19800000 0.19400000 -0.74200000
v 0.19800000 0.19800000 -0.74200000
v 0.20200000 0.19400000 -0.74200000
v 0.20200000 0.19800000 -0.74200000
v 0.20200000 0.20200000 -0.75400000
v 0.20200000 0.20200000 -0.74200000
v 0.20200000 0.20600000 -0.75400000
v 0.20200000 0.20600000 -0.74200000
v 0.20200000 0.21000000 -0.75400000
v 0.20200000 0.21000000 -0.74200000
v 0.20200000 0.21400000 -0.75400000
v 0.20200000 0.21400000 -0.74200000
v 0.20200000 0.21800000 -0.75400000
v 0.20200000 0.21800000 -0.74200000
v 0.19800000 0.22200000 -0.75400000
v 0.19800000 0.22200000 -0.75000000
v 0.20200000 0.22200000 -0.75400000
v 0.19800000 0.22200000 -0.74600000
v 0.19800000 0.22200000 -0.74200000
v 0.20200000 0.22200000 -0.74200000
v 0.19800000 0.22600000 -0.75400000
v 0.19800000 0.22600000 -0.75000000
v 0.20200000 0.22600000 -0.75400000
v 0.20200000 0.22600000 -0.75000000
v 0.19800000 0.22600000 -0.74600000
v 0.20200000 0.22600000 -0.74600000
v 0.19800000 0.22600000 -0.74200000
v 0.20200000 0.22600000 -0.74200000
v 0.20200000 0.19000000 -0.75400000
v 0.20200000 0.19000000 -0.75000000
v 0.20600000 0.19000000 -0.75400000
v 0.20600000 0.19000000 -0.75000000
v 0.20600000 0.19400000 -0.75400000
v 0.20200000 0.19000000 -0.74600000
v 0.20600000 0.19000000 -0.74600000
v 0.20200000 0.19000000 -0.74200000
v 0.20600000 0.19000000 -0.74200000
v 0.20600000 0.19400000 -0.74200000
v 0.20600000 0.19800000 -0.75400000
v 0.20600000 0.19800000 -0.74200000
v 0.20600000 0.20200000 -0.75400000
v 0.20600000 0.20200000 -0.74200000
v 0.20600000 0.20600000 -0.75400000
v 0.20200000 0.20200000 -0.73800000
v 0.20200000 0.20600000 -0.73800000
v 0.20600000 0.20200000 -0.73800000
v 0.20200000 0.20200000 -0.73400000
v 0.20200000 0.20600000 -0.73400000
v 0.20600000 0.20200000 -0.73400000
v 0.20200000 0.20200000 -0.73000000
v 0.20200000 0.20600000 -0.73000000
v 0.20600000 0.20200000 -0.73000000
v 0.20200000 0.20200000 -0.72600000
v 0.20200000 0.20600000 -0.72600000
v 0.20600000 0.20200000 -0.72600000
v 0.20200000 0.20200000 -0.72200000
v 0.20200000 0.20600000 -0.72200000
v 0.20600000 0.20200000 -0.72200000
v 0.20200000 0.20200000 -0.71800000
v 0.20200000 0.20600000 -0.71800000
v 0.20600000 0.20200000 -0.71800000
v 0.20200000 0.20200000 -0.71400000
v 0.20200000 0.20600000 -0.71400000
v 0.20600000 0.20200000 -0.71400000
v 0.20200000 0.20200000 -0.71000000
v 0.20200000 0.20600000 -0.71000000
v 0.20600000 0.20200000 -0.71000000
v 0.20600000 0.20600000 -0.71000000
v 0.20600000 0.21000000 -0.75400000
v 0.20200000 0.21000000 -0.73800000
v 0.20200000 0.21000000 -0.73400000
v 0.20200000 0.21000000 -0.73000000
v 0.20200000 0.21000000 -0.72600000
v 0.20200000 0.21000000 -0.72200000
v 0.20200000 0.21000000 -0.71800000
v 0.20200000 0.21000000 -0.71400000
v 0.20200000 0.21000000 -0.71000000
v 0.20600000 0.21000000 -0.71000000
v 0.20600000 0.21400000 -0.75400000
v 0.20200000 0.21400000 -0.73800000
v 0.20200000 0.21400000 -0.73400000
v 0.20200000 0.21400000 -0.73000000
v 0.20200000 0.21400000 -0.72600000
v 0.20200000 0.21400000 -0.72200000
v 0.20200000 0.21400000 -0.71800000
v 0.20200000 0.21400000 -0.71400000
v 0.20200000 0.21400000 -0.71000000
v 0.20600000 0.21400000 -0.71000000
v 0.20600000 0.21800000 -0.75400000
v 0.20200000 0.21800000 -0.73800000
v 0.20600000 0.21800000 -0.74200000
v 0.20600000 0.21800000 -0.73800000
v 0.20200000 0.21800000 -0.73400000
v 0.20600000 0.21800000 -0.73400000
v 0.20200000 0.21800000 -0.73000000
v 0.20600000 0.21800000 -0.73000000
v 0.20200000 0.21800000 -0.72600000
v 0.20600000 0.21800000 -0.72600000
v 0.20200000 0.21800000 -0.72200000
v 0.20600000 0.21800000 -0.72200000
v 0.20200000 0.21800000 -0.71800000
v 0.20600000 0.21800000 -0.71800000
v 0.20200000 0.21800000 -0.71400000
v 0.20600000 0.21800000 -0.71400000
v 0.20200000 0.21800000 -0.71000000
v 0.20600000 0.21800000 -0.71000000
v 0.20600000 0.22200000 -0.75400000
v 0.20600000 0.22200000 -0.74200000
v 0.20600000 0.22600000 -0.75400000
v 0.20600000 0.22600000 -0.74200000
v 0.20200000 0.23000000 -0.75400000
v 0.20200000 0.23000000 -0.75000000
v 0.20600000 0.23000000 -0.75400000
v 0.20600000 0.23000000 -0.75000000
v 0.20200000 0.23000000 -0.74600000
v 0.20600000 0.23000000 -0.74600000
v 0.20200000 0.23000000 -0.74200000
v 0.20600000 0.23000000 -0.74200000
v 0.20600000 0.18600000 -0.75400000
v 0.20600000 0.18600000 -0.75000000
v 0.21000000 0.18600000 -0.75400000
v 0.21000000 0.18600000 -0.75000000
v 0.21000000 0.19000000 -0.75400000
v 0.20600000 0.18600000 -0.74600000
v 0.21000000 0.18600000 -0.74600000
v 0.20600000 0.18600000 -0.74200000
v 0.21000000 0.18600000 -0.74200000
v 0.21000000 0.19000000 -0.74200000
v 0.21000000 0.19400000 -0.75400000
v 0.21000000 0.19400000 -0.74200000
v 0.21000000 0.19800000 -0.75400000
v 0.21000000 0.19800000 -0.74200000
v 0.21000000 0.20200000 -0.75400000
v 0.20600000 0.19800000 -0.73800000
v 0.21000000 0.19800000 -0.73800000
v 0.20600000 0.19800000 -0.73400000
v 0.21000000 0.19800000 -0.73400000
v 0.20600000 0.19800000 -0.73000000
v 0.21000000 0.19800000 -0.73000000
v 0.20600000 0.19800000 -0.72600000
v 0.21000000 0.19800000 -0.72600000
v 0.20600000 0.19800000 -0.72200000
v 0.21000000 0.19800000 -0.72200000
v 0.20600000 0.19800000 -0.71800000
v 0.21000000 0.19800000 -0.71800000
v 0.20600000 0.19800000 -0.71400000
v 0.21000000 0.19800000 -0.71400000
v 0.20600000 0.19800000 -0.71000000
v 0.21000000 0.19800000 -0.71000000
v 0.21000000 0.20200000 -0.71000000
v 0.21000000 0.20600000 -0.75400000
v 0.21000000 0.20600000 -0.71000000
v 0.21000000 0.21000000 -0.75400000
v 0.21000000 0.21000000 -0.71000000
v 0.21000000 0.21400000 -0.75400000
v 0.21000000 0.21400000 -0.71000000
v 0.21000000 0.21800000 -0.75400000
v 0.21000000 0.21800000 -0.71000000
v 0.21000000 0.22200000 -0.75400000
v 0.20600000 0.22200000 -0.73800000
v 0.21000000 0.22200000 -0.74200000
v 0.21000000 0.22200000 -0.73800000
v 0.20600000 0.22200000 -0.73400000
v 0.21000000 0.22200000 -0.73400000
v 0.20600000 0.22200000 -0.73000000
v 0.21000000 0.22200000 -0.73000000
v 0.20600000 0.22200000 -0.72600000
v 0.21000000 0.22200000 -0.72600000
v 0.20600000 0.22200000 -0.72200000
v 0.21000000 0.22200000 -0.72200000
v 0.20600000 0.22200000 -0.71800000
v 0.21000000 0.22200000 -0.71800000
v 0.20600000 0.22200000 -0.71400000
v 0.21000000 0.22200000 -0.71400000
v 0.20600000 0.22200000 -0.71000000
v 0.21000000 0.22200000 -0.71000000
v 0.21000000 0.22600000 -0.75400000
v 0.21000000 0.22600000 -0.74200000
v 0.21000000 0.23000000 -0.75400000
v 0.21000000 0.23000000 -0.74200000
v 0.20600000 0.23400000 -0.75400000
v 0.20600000 0.23400000 -0.75000000
v 0.21000000 0.23400000 -0.75400000
v 0.21000000 0.23400000 -0.75000000
v 0.20600000 0.23400000 -0.74600000
v 0.21000000 0.23400000 -0.74600000
v 0.20600000 0.23400000 -0.74200000
v 0.21000000 0.23400000 -0.74200000
v 0.21400000 0.18600000 -0.75400000
v 0.21400000 0.18600000 -0.75000000
v 0.21400000 0.19000000 -0.75400000
v 0.21400000 0.18600000 -0.74600000
v 0.21400000 0.18600000 -0.74200000
v 0.21400000 0.19000000 -0.74200000
v 0.21400000 0.19400000 -0.75400000
v 0.21400000 0.19400000 -0.74200000
v 0.21400000 0.19800000 -0.75400000
v 0.21000000 0.19400000 -0.73800000
v 0.21400000 0.19400000 -0.73800000
v 0.21000000 0.19400000 -0.73400000
v 0.21400000 0.19400000 -0.73400000
v 0.21000000 0.19400000 -0.73000000
v 0.21400000 0.19400000 -0.73000000
v 0.21000000 0.19400000 -0.72600000
v 0.21400000 0.19400000 -0.72600000
v 0.21000000 0.19400000 -0.72200000
v 0.21400000 0.19400000 -0.72200000
v 0.21000000 0.19400000 -0.71800000
v 0.21400000 0.19400000 -0.71800000
v 0.21000000 0.19400000 -0.71400000
v 0.21400000 0.19400000 -0.71400000
v 0.21000000 0.19400000 -0.71000000
v 0.21400000 0.19400000 -0.71000000
v 0.21400000 0.19800000 -0.71000000
v 0.21400000 0.20200000 -0.75400000
v 0.21400000 0.20200000 -0.71000000
v 0.21400000 0.20600000 -0.75400000
v 0.21400000 0.20600000 -0.71000000
v 0.21400000 0.21000000 -0.75400000
v 0.21400000 0.21000000 -0.71000000
v 0.21400000 0.21400000 -0.75400000
v 0.21400000 0.21400000 -0.71000000
v 0.21400000 0.21800000 -0.75400000
v 0.21400000 0.21800000 -0.71000000
v 0.21400000 0.22200000 -0.75400000
v 0.21400000 0.22200000 -0.71000000
v 0.21400000 0.22600000 -0.75400000
v 0.21000000 0.22600000 -0.73800000
v 0.21400000 0.22600000 -0.74200000
v 0.21400000 0.22600000 -0.73800000
v 0.21000000 0.22600000 -0.73400000
v 0.21400000 0.22600000 -0.73400000
v 0.21000000 0.22600000 -0.73000000
v 0.21400000 0.22600000 -0.73000000
v 0.21000000 0.22600000 -0.72600000
v 0.21400000 0.22600000 -0.72600000
v 0.21000000 0.22600000 -0.72200000
v 0.21400000 0.22600000 -0.72200000
v 0.21000000 0.22600000 -0.71800000
v 0.21400000 0.22600000 -0.71800000
v 0.21000000 0.22600000 -0.71400000
v 0.21400000 0.22600000 -0.71400000
v 0.21000000 0.22600000 -0.71000000
v 0.21400000 0.22600000 -0.71000000
v 0.21400000 0.23000000 -0.75400000
v 0.21400000 0.23000000 -0.74200000
v 0.21400000 0.23400000 -0.75400000
v 0.21400000 0.23400000 -0.75000000
v 0.21400000 0.23400000 -0.74600000
v 0.21400000 0.23400000 -0.74200000
v 0.21800000 0.18600000 -0.75400000
v 0.21800000 0.18600000 -0.75000000
v 0.21800000 0.19000000 -0.75400000
v 0.21800000 0.18600000 -0.74600000
v 0.21800000 0.18600000 -0.74200000
v 0.21800000 0.19000000 -0.74200000
v 0.21800000 0.19400000 -0.75400000
v 0.21800000 0.19400000 -0.74200000
v 0.21800000 0.19800000 -0.75400000
v 0.21800000 0.19400000 -0.73800000
v 0.21800000 0.19400000 -0.73400000
v 0.21800000 0.19400000 -0.73000000
v 0.21800000 0.19400000 -0.72600000
v 0.21800000 0.19400000 -0.72200000
v 0.21800000 0.19400000 -0.71800000
v 0.21800000 0.19400000 -0.71400000
v 0.21800000 0.19400000 -0.71000000
v 0.21800000 0.19800000 -0.71000000
v 0.21800000 0.20200000 -0.75400000
v 0.21800000 0.20200000 -0.71000000
v 0.21800000 0.20600000 -0.75400000
v 0.21800000 0.20600000 -0.71000000
v 0.21800000 0.21000000 -0.75400000
v 0.21800000 0.21000000 -0.71000000
v 0.21800000 0.21400000 -0.75400000
v 0.21800000 0.21400000 -0.71000000
v 0.21800000 0.21800000 -0.75400000
v 0.21800000 0.21800000 -0.71000000
v 0.21800000 0.22200000 -0.75400000
v 0.21800000 0.22200000 -0.71000000
v 0.21800000 0.22600000 -0.75400000
v 0.21800000 0.22600000 -0.74200000
v 0.21800000 0.22600000 -0.73800000
v 0.21800000 0.22600000 -0.73400000
v 0.21800000 0.22600000 -0.73000000
v 0.21800000 0.22600000 -0.72600000
v 0.21800000 0.22600000 -0.72200000
v 0.21800000 0.22600000 -0.71800000
v 0.21800000 0.22600000 -0.71400000
v 0.21800000 0.22600000 -0.71000000
v 0.21800000 0.23000000 -0.75400000
v 0.21800000 0.23000000 -0.74200000
v 0.21800000 0.23400000 -0.75400000
v 0.21800000 0.23400000 -0.75000000
v 0.21800000 0.23400000 -0.74600000
v 0.21800000 0.23400000 -0.74200000
v 0.22200000 0.18600000 -0.75400000
v 0.22200000 0.18600000 -0.75000000
v 0.22200000 0.19000000 -0.75400000
v 0.22200000 0.18600000 -0.74600000
v 0.22200000 0.18600000 -0.74200000
v 0.22200000 0.19000000 -0.74200000
v 0.22200000 0.19400000 -0.75400000
v 0.22200000 0.19400000 -0.74200000
v 0.22200000 0.19800000 -0.75400000
v 0.22200000 0.19400000 -0.73800000
v 0.22200000 0.19400000 -0.73400000
v 0.22200000 0.19400000 -0.73000000
v 0.22200000 0.19400000 -0.72600000
v 0.22200000 0.19400000 -0.72200000
v 0.22200000 0.19400000 -0.71800000
v 0.22200000 0.19400000 -0.71400000
v 0.22200000 0.19400000 -0.71000000
v 0.22200000 0.19800000 -0.71000000
v 0.22200000 0.20200000 -0.75400000
v 0.22200000 0.20200000 -0.71000000
v 0.22200000 0.20600000 -0.75400000
v 0.22200000 0.20600000 -0.71000000
v 0.22200000 0.21000000 -0.75400000
v 0.22200000 0.21000000 -0.71000000
v 0.22200000 0.21400000 -0.75400000
v 0.22200000 0.21400000 -0.71000000
v 0.22200000 0.21800000 -0.75400000
v 0.22200000 0.21800000 -0.71000000
v 0.22200000 0.22200000 -0.75400000
v 0.22200000 0.22200000 -0.71000000
v 0.22200000 0.22600000 -0.75400000
v 0.22200000 0.22600000 -0.74200000
v 0.22200000 0.22600000 -0.73800000
v 0.22200000 0.22600000 -0.73400000
v 0.22200000 0.22600000 -0.73000000
v 0.22200000 0.22600000 -0.72600000
v 0.22200000 0.22600000 -0.72200000
v 0.22200000 0.22600000 -0.71800000
v 0.22200000 0.22600000 -0.71400000
v 0.22200000 0.22600000 -0.71000000
v 0.22200000 0.23000000 -0.75400000
v 0.22200000 0.23000000 -0.74200000
v 0.22200000 0.23400000 -0.75400000
v 0.22200000 0.23400000 -0.75000000
v 0.22200000 0.23400000 -0.74600000
v 0.22200000 0.23400000 -0.74200000
v 0.22600000 0.18600000 -0.75400000
v 0.22600000 0.18600000 -0.75000000
v 0.22600000 0.19000000 -0.75400000
v 0.22600000 0.18600000 -0.74600000
v 0.22600000 0.18600000 -0.74200000
v 0.22600000 0.19000000 -0.74200000
v 0.22600000 0.19400000 -0.75400000
v 0.22600000 0.19400000 -0.74200000
v 0.22600000 0.19800000 -0.75400000
v 0.22600000 0.19400000 -0.73800000
v 0.22600000 0.19400000 -0.73400000
v 0.22600000 0.19400000 -0.73000000
v 0.22600000 0.19400000 -0.72600000
v 0.22600000 0.19400000 -0.72200000
v 0.22600000 0.19400000 -0.71800000
v 0.22600000 0.19400000 -0.71400000
v 0.22600000 0.19400000 -0.71000000
v 0.22600000 0.19800000 -0.71000000
v 0.22600000 0.20200000 -0.75400000
v 0.22600000 0.20200000 -0.71000000
v 0.22600000 0.20600000 -0.75400000
v 0.22600000 0.20600000 -0.71000000
v 0.22600000 0.21000000 -0.75400000
v 0.22600000 0.21000000 -0.71000000
v 0.22600000 0.21400000 -0.75400000
v 0.22600000 0.21400000 -0.71000000
v 0.22600000 0.21800000 -0.75400000
v 0.22600000 0.21800000 -0.71000000
v 0.22600000 0.22200000 -0.75400000
v 0.22600000 0.22200000 -0.71000000
v 0.22600000 0.22600000 -0.75400000
v 0.22600000 0.22600000 -0.74200000
v 0.22600000 0.22600000 -0.73800000
v 0.22600000 0.22600000 -0.73400000
v 0.22600000 0.22600000 -0.73000000
v 0.22600000 0.22600000 -0.72600000
v 0.22600000 0.22600000 -0.72200000
v 0.22600000 0.22600000 -0.71800000
v 0.22600000 0.22600000 -0.71400000
v 0.22600000 0.22600000 -0.71000000
v 0.22600000 0.23000000 -0.75400000
v 0.22600000 0.23000000 -0.74200000
v 0.22600000 0.23400000 -0.75400000
v 0.22600000 0.23400000 -0.75000000
v 0.22600000 0.23400000 -0.74600000
v 0.22600000 0.23400000 -0.74200000
v 0.23000000 0.18600000 -0.75400000
v 0.23000000 0.18600000 -0.75000000
v 0.23000000 0.19000000 -0.75400000
v 0.23000000 0.18600000 -0.74600000
v 0.23000000 0.18600000 -0.74200000
v 0.23000000 0.19000000 -0.74200000
v 0.23000000 0.19400000 -0.75400000
v 0.23000000 0.19400000 -0.74200000
v 0.23000000 0.19800000 -0.75400000
v 0.23000000 0.19400000 -0.73800000
v 0.23000000 0.19400000 -0.73400000
v 0.23000000 0.19400000 -0.73000000
v 0.23000000 0.19400000 -0.72600000
v 0.23000000 0.19400000 -0.72200000
v 0.23000000 0.19400000 -0.71800000
v 0.23000000 0.19400000 -0.71400000
v 0.23000000 0.19400000 -0.71000000
v 0.23000000 0.19800000 -0.71000000
v 0.23000000 0.20200000 -0.75400000
v 0.23000000 0.20200000 -0.71000000
v 0.23000000 0.20600000 -0.75400000
v 0.23000000 0.20600000 -0.71000000
v 0.23000000 0.21000000 -0.75400000
v 0.23000000 0.21000000 -0.71000000
v 0.23000000 0.21400000 -0.75400000
v 0.23000000 0.21400000 -0.71000000
v 0.23000000 0.21800000 -0.75400000
v 0.23000000 0.21800000 -0.71000000
v 0.23000000 0.22200000 -0.75400000
v 0.23000000 0.22200000 -0.71000000
v 0.23000000 0.22600000 -0.75400000
v 0.23000000 0.22600000 -0.74200000
v 0.23000000 0.22600000 -0.73800000
v 0.23000000 0.22600000 -0.73400000
v 0.23000000 0.22600000 -0.73000000
v 0.23000000 0.22600000 -0.72600000
v 0.23000000 0.22600000 -0.72200000
v 0.23000000 0.22600000 -0.71800000
v 0.23000000 0.22600000 -0.71400000
v 0.23000000 0.22600000 -0.71000000
v 0.23000000 0.23000000 -0.75400000
v 0.23000000 0.23000000 -0.74200000
v 0.23000000 0.23400000 -0.75400000
v 0.23000000 0.23400000 -0.75000000
v 0.23000000 0.23400000 -0.74600000
v 0.23000000 0.23400000 -0.74200000
v 0.23400000 0.18600000 -0.75400000
v 0.23400000 0.18600000 -0.75000000
v 0.23400000 0.19000000 -0.75400000
v 0.23400000 0.18600000 -0.74600000
v 0.23400000 0.18600000 -0.74200000
v 0.23400000 0.19000000 -0.74200000
v 0.23400000 0.19400000 -0.75400000
v 0.23400000 0.19400000 -0.74200000
v 0.23400000 0.19800000 -0.75400000
v 0.23400000 0.19400000 -0.73800000
v 0.23400000 0.19800000 -0.74200000
v 0.23400000 0.19800000 -0.73800000
v 0.23400000 0.19400000 -0.73400000
v 0.23400000 0.19800000 -0.73400000
v 0.23400000 0.19400000 -0.73000000
v 0.23400000 0.19800000 -0.73000000
v 0.23400000 0.19400000 -0.72600000
v 0.23400000 0.19800000 -0.72600000
v 0.23400000 0.19400000 -0.72200000
v 0.23400000 0.19800000 -0.72200000
v 0.23400000 0.19400000 -0.71800000
v 0.23400000 0.19800000 -0.71800000
v 0.23400000 0.19400000 -0.71400000
v 0.23400000 0.19800000 -0.71400000
v 0.23400000 0.19400000 -0.71000000
v 0.23400000 0.19800000 -0.71000000
v 0.23400000 0.20200000 -0.75400000
v 0.23400000 0.20200000 -0.71000000
v 0.23400000 0.20600000 -0.75400000
v 0.23400000 0.20600000 -0.71000000
v 0.23400000 0.21000000 -0.75400000
v 0.23400000 0.21000000 -0.71000000
v 0.23400000 0.21400000 -0.75400000
v 0.23400000 0.21400000 -0.71000000
v 0.23400000 0.21800000 -0.75400000
v 0.23400000 0.21800000 -0.71000000
v 0.23400000 0.22200000 -0.75400000
v 0.23400000 0.22200000 -0.71000000
v 0.23400000 0.22600000 -0.75400000
v 0.23400000 0.22200000 -0.74200000
v 0.23400000 0.22200000 -0.73800000
v 0.23400000 0.22600000 -0.74200000
v 0.23400000 0.22600000 -0.73800000
v 0.23400000 0.22200000 -0.73400000
v 0.23400000 0.22600000 -0.73400000
v 0.23400000 0.22200000 -0.73000000
v 0.23400000 0.22600000 -0.73000000
v 0.23400000 0.22200000 -0.72600000
v 0.23400000 0.22600000 -0.72600000
v 0.23400000 0.22200000 -0.72200000
v 0.23400000 0.22600000 -0.72200000
v 0.23400000 0.22200000 -0.71800000
v 0.23400000 0.22600000 -0.71800000
v 0.23400000 0.22200000 -0.71400000
v 0.23400000 0.22600000 -0.71400000
v 0.23400000 0.22600000 -0.71000000
v 0.23400000 0.23000000 -0.75400000
v 0.23400000 0.23000000 -0.74200000
v 0.23400000 0.23400000 -0.75400000
v 0.23400000 0.23400000 -0.75000000
v 0.23400000 0.23400000 -0.74600000
v 0.23400000 0.23400000 -0.74200000
v 0.23800000 0.18600000 -0.75400000
v 0.23800000 0.18600000 -0.75000000
v 0.23800000 0.19000000 -0.75400000
v 0.23800000 0.19000000 -0.75000000
v 0.23800000 0.18600000 -0.74600000
v 0.23800000 0.19000000 -0.74600000
v 0.23800000 0.18600000 -0.74200000
v 0.23800000 0.19000000 -0.74200000
v 0.23800000 0.19400000 -0.75400000
v 0.23800000 0.19400000 -0.74200000
v 0.23800000 0.19800000 -0.75400000
v 0.23800000 0.19800000 -0.74200000
v 0.23800000 0.20200000 -0.75400000
v 0.23800000 0.19800000 -0.73800000
v 0.23800000 0.20200000 -0.74200000
v 0.23800000 0.20200000 -0.73800000
v 0.23800000 0.19800000 -0.73400000
v 0.23800000 0.20200000 -0.73400000
v 0.23800000 0.19800000 -0.73000000
v 0.23800000 0.20200000 -0.73000000
v 0.23800000 0.19800000 -0.72600000
v 0.23800000 0.20200000 -0.72600000
v 0.23800000 0.19800000 -0.72200000
v 0.23800000 0.20200000 -0.72200000
v 0.23800000 0.19800000 -0.71800000
v 0.23800000 0.20200000 -0.71800000
v 0.23800000 0.19800000 -0.71400000
v 0.23800000 0.20200000 -0.71400000
v 0.23800000 0.19800000 -0.71000000
v 0.23800000 0.20200000 -0.71000000
v 0.23800000 0.20600000 -0.75400000
v 0.23800000 0.20600000 -0.71000000
v 0.23800000 0.21000000 -0.75400000
v 0.23800000 0.21000000 -0.71000000
v 0.23800000 0.21400000 -0.75400000
v 0.23800000 0.21400000 -0.71000000
v 0.23800000 0.21800000 -0.75400000
v 0.23800000 0.21800000 -0.71000000
v 0.23800000 0.22200000 -0.75400000
v 0.23800000 0.21800000 -0.74200000
v 0.23800000 0.21800000 -0.73800000
v 0.23800000 0.22200000 -0.74200000
v 0.23800000 0.22200000 -0.73800000
v 0.23800000 0.21800000 -0.73400000
v 0.23800000 0.22200000 -0.73400000
v 0.23800000 0.21800000 -0.73000000
v 0.23800000 0.22200000 -0.73000000
v 0.23800000 0.21800000 -0.72600000
v 0.23800000 0.22200000 -0.72600000
v 0.23800000 0.21800000 -0.72200000
v 0.23800000 0.22200000 -0.72200000
v 0.23800000 0.21800000 -0.71800000
v 0.23800000 0.22200000 -0.71800000
v 0.23800000 0.21800000 -0.71400000
v 0.23800000 0.22200000 -0.71400000
v 0.23800000 0.22200000 -0.71000000
v 0.23800000 0.22600000 -0.75400000
v 0.23800000 0.22600000 -0.74200000
v 0.23800000 0.23000000 -0.75400000
v 0.23800000 0.23000000 -0.74200000
v 0.23800000 0.23000000 -0.75000000
v 0.23800000 0.23400000 -0.75400000
v 0.23800000 0.23400000 -0.75000000
v 0.23800000 0.23000000 -0.74600000
v 0.23800000 0.23400000 -0.74600000
v 0.23800000 0.23400000 -0.74200000
v 0.24200000 0.19000000 -0.75400000
v 0.24200000 0.19000000 -0.75000000
v 0.24200000 0.19400000 -0.75400000
v 0.24200000 0.19400000 -0.75000000
v 0.24200000 0.19000000 -0.74600000
v 0.24200000 0.19400000 -0.74600000
v 0.24200000 0.19000000 -0.74200000
v 0.24200000 0.19400000 -0.74200000
v 0.24200000 0.19800000 -0.75400000
v 0.24200000 0.19800000 -0.74200000
v 0.24200000 0.20200000 -0.75400000
v 0.24200000 0.20200000 -0.74200000
v 0.24200000 0.20600000 -0.75400000
v 0.24200000 0.20200000 -0.73800000
v 0.24200000 0.20600000 -0.74200000
v 0.24200000 0.20600000 -0.73800000
v 0.24200000 0.20200000 -0.73400000
v 0.24200000 0.20600000 -0.73400000
v 0.24200000 0.20200000 -0.73000000
v 0.24200000 0.20600000 -0.73000000
v 0.24200000 0.20200000 -0.72600000
v 0.24200000 0.20600000 -0.72600000
v 0.24200000 0.20200000 -0.72200000
v 0.24200000 0.20600000 -0.72200000
v 0.24200000 0.20200000 -0.71800000
v 0.24200000 0.20600000 -0.71800000
v 0.24200000 0.20200000 -0.71400000
v 0.24200000 0.20600000 -0.71400000
v 0.24200000 0.20200000 -0.71000000
v 0.24200000 0.20600000 -0.71000000
v 0.24200000 0.21000000 -0.75400000
v 0.24200000 0.21000000 -0.74200000
v 0.24200000 0.21000000 -0.73800000
v 0.24200000 0.21000000 -0.73400000
v 0.24200000 0.21000000 -0.73000000
v 0.24200000 0.21000000 -0.72600000
v 0.24200000 0.21000000 -0.72200000
v 0.24200000 0.21000000 -0.71800000
v 0.24200000 0.21000000 -0.71400000
v 0.24200000 0.21000000 -0.71000000
v 0.24200000 0.21400000 -0.75400000
v 0.24200000 0.21400000 -0.74200000
v 0.24200000 0.21400000 -0.73800000
v 0.24200000 0.21400000 -0.73400000
v 0.24200000 0.21400000 -0.73000000
v 0.24200000 0.21400000 -0.72600000
v 0.24200000 0.21400000 -0.72200000
v 0.24200000 0.21400000 -0.71800000
v 0.24200000 0.21400000 -0.71400000
v 0.24200000 0.21400000 -0.71000000
v 0.24200000 0.21800000 -0.75400000
v 0.24200000 0.21800000 -0.74200000
v 0.24200000 0.21800000 -0.73800000
v 0.24200000 0.21800000 -0.73400000
v 0.24200000 0.21800000 -0.73000000
v 0.24200000 0.21800000 -0.72600000
v 0.24200000 0.21800000 -0.72200000
v 0.24200000 0.21800000 -0.71800000
v 0.24200000 0.21800000 -0.71400000
v 0.24200000 0.21800000 -0.71000000
v 0.24200000 0.22200000 -0.75400000
v 0.24200000 0.22200000 -0.74200000
v 0.24200000 0.22600000 -0.75400000
v 0.24200000 0.22600000 -0.74200000
v 0.24200000 0.22600000 -0.75000000
v 0.24200000 0.23000000 -0.75400000
v 0.24200000 0.23000000 -0.75000000
v 0.24200000 0.22600000 -0.74600000
v 0.24200000 0.23000000 -0.74600000
v 0.24200000 0.23000000 -0.74200000
v 0.24600000 0.19400000 -0.75400000
v 0.24600000 0.19400000 -0.75000000
v 0.24600000 0.19800000 -0.75400000
v 0.24600000 0.19800000 -0.75000000
v 0.24600000 0.19400000 -0.74600000
v 0.24600000 0.19800000 -0.74600000
v 0.24600000 0.19400000 -0.74200000
v 0.24600000 0.19800000 -0.74200000
v 0.24600000 0.20200000 -0.75400000
v 0.24600000 0.20200000 -0.74200000
v 0.24600000 0.20600000 -0.75400000
v 0.24600000 0.20600000 -0.74200000
v 0.24600000 0.21000000 -0.75400000
v 0.24600000 0.21000000 -0.74200000
v 0.24600000 0.21400000 -0.75400000
v 0.24600000 0.21400000 -0.74200000
v 0.24600000 0.21800000 -0.75400000
v 0.24600000 0.21800000 -0.74200000
v 0.24600000 0.22200000 -0.75400000
v 0.24600000 0.22200000 -0.74200000
v 0.24600000 0.22200000 -0.75000000
v 0.24600000 0.22600000 -0.75400000
v 0.24600000 0.22600000 -0.75000000
v 0.24600000 0.22200000 -0.74600000
v 0.24600000 0.22600000 -0.74600000
v 0.24600000 0.22600000 -0.74200000
v 0.25000000 0.19800000 -0.75400000
v 0.25000000 0.19800000 -0.75000000
v 0.25000000 0.20200000 -0.75400000
v 0.25000000 0.20200000 -0.75000000
v 0.25000000 0.19800000 -0.74600000
v 0.25000000 0.20200000 -0.74600000
v 0.25000000 0.19800000 -0.74200000
v 0.25000000 0.20200000 -0.74200000
v 0.25000000 0.20600000 -0.75400000
v 0.25000000 0.20600000 -0.75000000
v 0.25000000 0.20600000 -0.74600000
v 0.25000000 0.20600000 -0.74200000
v 0.25000000 0.21000000 -0.75400000
v 0.25000000 0.21000000 -0.75000000
v 0.25000000 0.21000000 -0.74600000
v 0.25000000 0.21000000 -0.74200000
v 0.25000000 0.21400000 -0.75400000
v 0.25000000 0.21400000 -0.75000000
v 0.25000000 0.21400000 -0.74600000
v 0.25000000 0.21400000 -0.74200000
v 0.25000000 0.21800000 -0.75400000
v 0.25000000 0.21800000 -0.75000000
v 0.25000000 0.21800000 -0.74600000
v 0.25000000 0.21800000 -0.74200000
v 0.25000000 0.22200000 -0.75400000
v 0.25000000 0.22200000 -0.75000000
v 0.25000000 0.22200000 -0.74600000
v 0.25000000 0.22200000 -0.74200000
f 2 4 1
f 5 2 1
f 1 4 3
f 3 5 1
f 6 2 5
f 7 5 3
f 8 9 2
f 6 8 2
f 2 9 4
f 10 8 6
f 11 12 8
f 10 11 8
f 8 12 9
f 11 14 12
f 13 11 10
f 13 14 11
f 4 16 3
f 3 16 15
f 15 7 3
f 17 7 15
f 9 18 4
f 4 18 16
f 12 19 9
f 9 19 18
f 12 20 19
f 14 20 12
f 16 22 15
f 15 22 21
f 21 17 15
f 23 17 21
f 18 24 16
f 16 24 22
f 19 25 18
f 18 25 24
f 19 26 25
f 20 26 19
f 22 28 21
f 21 28 27
f 27 23 21
f 28 30 27
f 29 23 27
f 27 30 29
f 24 31 22
f 22 31 28
f 31 32 28
f 28 32 30
f 25 33 24
f 24 33 31
f 25 34 33
f 26 34 25
f 33 34 31
f 31 34 32
f 36 38 35
f 39 36 35
f 35 38 37
f 37 39 35
f 40 36 39
f 41 39 37
f 42 43 36
f 40 42 36
f 36 43 38
f 44 42 40
f 45 46 42
f 44 45 42
f 42 46 43
f 45 48 46
f 47 45 44
f 47 48 45
f 38 6 37
f 37 6 5
f 5 41 37
f 49 41 5
f 43 10 38
f 38 10 6
f 46 13 43
f 43 13 10
f 46 50 13
f 48 50 46
f 7 49 5
f 51 49 7
f 13 52 14
f 50 52 13
f 17 51 7
f 53 51 17
f 14 54 20
f 52 54 14
f 23 53 17
f 55 53 23
f 20 56 26
f 54 56 20
f 29 55 23
f 57 55 29
f 26 58 34
f 56 58 26
f 30 60 29
f 29 60 59
f 59 57 29
f 61 57 59
f 32 62 30
f 30 62 60
f 34 63 32
f 32 63 62
f 34 64 63
f 58 64 34
f 60 66 59
f 59 66 65
f 65 61 59
f 66 68 65
f 67 61 65
f 65 68 67
f 62 69 60
f 60 69 66
f 69 70 66
f 66 70 68
f 63 71 62
f 62 71 69
f 63 72 71
f 64 72 63
f 71 72 69
f 69 72 70
f 74 40 73
f 75 74 73
f 73 40 39
f 39 75 73
f 76 74 75
f 77 75 39
f 78 44 74
f 76 78 74
f 74 44 40
f 79 78 76
f 80 47 78
f 79 80 78
f 78 47 44
f 80 82 47
f 81 80 79
f 81 82 80
f 41 77 39
f 83 77 41
f 47 84 48
f 82 84 47
f 49 83 41
f 85 83 49
f 48 86 50
f 84 86 48
f 51 85 49
f 87 85 51
f 88 89 50
f 86 88 50
f 50 89 52
f 90 88 86
f 91 92 88
f 90 91 88
f 88 92 89
f 93 91 90
f 94 95 91
f 93 94 91
f 91 95 92
f 96 94 93
f 97 98 94
f 96 97 94
f 94 98 95
f 99 97 96
f 100 101 97
f 99 100 97
f 97 101 98
f 102 100 99
f 103 104 100
f 102 103 100
f 100 104 101
f 105 103 102
f 106 107 103
f 105 106 103
f 103 107 104
f 108 106 105
f 109 110 106
f 108 109 106
f 106 110 107
f 109 112 110
f 111 109 108
f 111 112 109
f 53 87 51
f 113 87 53
f 89 114 52
f 52 114 54
f 92 115 89
f 89 115 114
f 95 116 92
f 92 116 115
f 98 117 95
f 95 117 116
f 101 118 98
f 98 118 117
f 104 119 101
f 101 119 118
f 107 120 104
f 104 120 119
f 110 121 107
f 107 121 120
f 110 122 121
f 112 122 110
f 55 113 53
f 123 113 55
f 114 124 54
f 54 124 56
f 115 125 114
f 114 125 124
f 116 126 115
f 115 126 125
f 117 127 116
f 116 127 126
f 118 128 117
f 117 128 127
f 119 129 118
f 118 129 128
f 120 130 119
f 119 130 129
f 121 131 120
f 120 131 130
f 121 132 131
f 122 132 121
f 57 123 55
f 133 123 57
f 124 134 56
f 56 134 58
f 134 136 58
f 58 136 135
f 125 137 124
f 124 137 134
f 137 138 134
f 134 138 136
f 126 139 125
f 125 139 137
f 139 140 137
f 137 140 138
f 127 141 126
f 126 141 139
f 141 142 139
f 139 142 140
f 128 143 127
f 127 143 141
f 143 144 141
f 141 144 142
f 129 145 128
f 128 145 143
f 145 146 143
f 143 146 144
f 130 147 129
f 129 147 145
f 147 148 145
f 145 148 146
f 131 149 130
f 130 149 147
f 131 150 149
f 132 150 131
f 149 150 147
f 147 150 148
f 61 133 57
f 151 133 61
f 58 152 64
f 135 152 58
f 67 151 61
f 153 151 67
f 64 154 72
f 152 154 64
f 68 156 67
f 67 156 155
f 155 153 67
f 156 158 155
f 157 153 155
f 155 158 157
f 70 159 68
f 68 159 156
f 159 160 156
f 156 160 158
f 72 161 70
f 70 161 159
f 72 162 161
f 154 162 72
f 161 162 159
f 159 162 160
f 164 76 163
f 165 164 163
f 163 76 75
f 75 165 163
f 166 164 165
f 167 165 75
f 168 79 164
f 166 168 164
f 164 79 76
f 169 168 166
f 170 81 168
f 169 170 168
f 168 81 79
f 170 172 81
f 171 170 169
f 171 172 170
f 77 167 75
f 173 167 77
f 81 174 82
f 172 174 81
f 83 173 77
f 175 173 83
f 82 176 84
f 174 176 82
f 85 175 83
f 177 175 85
f 178 90 84
f 176 178 84
f 84 90 86
f 179 178 176
f 180 93 178
f 179 180 178
f 178 93 90
f 181 180 179
f 182 96 180
f 181 182 180
f 180 96 93
f 183 182 181
f 184 99 182
f 183 184 182
f 182 99 96
f 185 184 183
f 186 102 184
f 185 186 184
f 184 102 99
f 187 186 185
f 188 105 186
f 187 188 186
f 186 105 102
f 189 188 187
f 190 108 188
f 189 190 188
f 188 108 105
f 191 190 189
f 192 111 190
f 191 192 190
f 190 111 108
f 192 194 111
f 193 192 191
f 193 194 192
f 87 177 85
f 195 177 87
f 111 196 112
f 194 196 111
f 113 195 87
f 197 195 113
f 112 198 122
f 196 198 112
f 123 197 113
f 199 197 123
f 122 200 132
f 198 200 122
f 133 199 123
f 201 199 133
f 132 202 150
f 200 202 132
f 151 201 133
f 203 201 151
f 136 204 135
f 135 204 152
f 204 206 152
f 152 206 205
f 138 207 136
f 136 207 204
f 207 208 204
f 204 208 206
f 140 209 138
f 138 209 207
f 209 210 207
f 207 210 208
f 142 211 140
f 140 211 209
f 211 212 209
f 209 212 210
f 144 213 142
f 142 213 211
f 213 214 211
f 211 214 212
f 146 215 144
f 144 215 213
f 215 216 213
f 213 216 214
f 148 217 146
f 146 217 215
f 217 218 215
f 215 218 216
f 150 219 148
f 148 219 217
f 150 220 219
f 202 220 150
f 219 220 217
f 217 220 218
f 153 203 151
f 221 203 153
f 152 222 154
f 205 222 152
f 157 221 153
f 223 221 157
f 154 224 162
f 222 224 154
f 158 226 157
f 157 226 225
f 225 223 157
f 226 228 225
f 227 223 225
f 225 228 227
f 160 229 158
f 158 229 226
f 229 230 226
f 226 230 228
f 162 231 160
f 160 231 229
f 162 232 231
f 224 232 162
f 231 232 229
f 229 232 230
f 233 166 165
f 167 233 165
f 234 166 233
f 235 233 167
f 234 169 166
f 236 169 234
f 236 171 169
f 171 238 172
f 237 171 236
f 237 238 171
f 173 235 167
f 239 235 173
f 172 240 174
f 238 240 172
f 175 239 173
f 241 239 175
f 242 179 174
f 240 242 174
f 174 179 176
f 243 242 240
f 244 181 242
f 243 244 242
f 242 181 179
f 245 244 243
f 246 183 244
f 245 246 244
f 244 183 181
f 247 246 245
f 248 185 246
f 247 248 246
f 246 185 183
f 249 248 247
f 250 187 248
f 249 250 248
f 248 187 185
f 251 250 249
f 252 189 250
f 251 252 250
f 250 189 187
f 253 252 251
f 254 191 252
f 253 254 252
f 252 191 189
f 255 254 253
f 256 193 254
f 255 256 254
f 254 193 191
f 256 258 193
f 257 256 255
f 257 258 256
f 177 241 175
f 259 241 177
f 193 260 194
f 258 260 193
f 195 259 177
f 261 259 195
f 194 262 196
f 260 262 194
f 197 261 195
f 263 261 197
f 196 264 198
f 262 264 196
f 199 263 197
f 265 263 199
f 198 266 200
f 264 266 198
f 201 265 199
f 267 265 201
f 200 268 202
f 266 268 200
f 203 267 201
f 269 267 203
f 202 270 220
f 268 270 202
f 221 269 203
f 271 269 221
f 206 272 205
f 205 272 222
f 272 274 222
f 222 274 273
f 208 275 206
f 206 275 272
f 275 276 272
f 272 276 274
f 210 277 208
f 208 277 275
f 277 278 275
f 275 278 276
f 212 279 210
f 210 279 277
f 279 280 277
f 277 280 278
f 214 281 212
f 212 281 279
f 281 282 279
f 279 282 280
f 216 283 214
f 214 283 281
f 283 284 281
f 281 284 282
f 218 285 216
f 216 285 283
f 285 286 283
f 283 286 284
f 220 287 218
f 218 287 285
f 220 288 287
f 270 288 220
f 287 288 285
f 285 288 286
f 223 271 221
f 289 271 223
f 222 290 224
f 273 290 222
f 227 289 223
f 228 292 227
f 291 289 227
f 227 292 291
f 230 293 228
f 228 293 292
f 224 294 232
f 290 294 224
f 232 294 230
f 230 294 293
f 295 234 233
f 235 295 233
f 296 234 295
f 297 295 235
f 296 236 234
f 298 236 296
f 298 237 236
f 237 300 238
f 299 237 298
f 299 300 237
f 239 297 235
f 301 297 239
f 238 302 240
f 300 302 238
f 241 301 239
f 303 301 241
f 302 243 240
f 304 243 302
f 304 245 243
f 305 245 304
f 305 247 245
f 306 247 305
f 306 249 247
f 307 249 306
f 307 251 249
f 308 251 307
f 308 253 251
f 309 253 308
f 309 255 253
f 310 255 309
f 310 257 255
f 257 312 258
f 311 257 310
f 311 312 257
f 259 303 241
f 313 303 259
f 258 314 260
f 312 314 258
f 261 313 259
f 315 313 261
f 260 316 262
f 314 316 260
f 263 315 261
f 317 315 263
f 262 318 264
f 316 318 262
f 265 317 263
f 319 317 265
f 264 320 266
f 318 320 264
f 267 319 265
f 321 319 267
f 266 322 268
f 320 322 266
f 269 321 267
f 323 321 269
f 268 324 270
f 322 324 268
f 271 323 269
f 325 323 271
f 274 327 273
f 273 327 326
f 276 328 274
f 274 328 327
f 278 329 276
f 276 329 328
f 280 330 278
f 278 330 329
f 282 331 280
f 280 331 330
f 284 332 282
f 282 332 331
f 286 333 284
f 284 333 332
f 270 334 288
f 324 334 270
f 288 334 286
f 286 334 333
f 289 325 271
f 335 325 289
f 273 336 290
f 326 336 273
f 291 335 289
f 292 338 291
f 337 335 291
f 291 338 337
f 293 339 292
f 292 339 338
f 290 340 294
f 336 340 290
f 294 340 293
f 293 340 339
f 341 296 295
f 297 341 295
f 342 296 341
f 343 341 297
f 342 298 296
f 344 298 342
f 344 299 298
f 299 346 300
f 345 299 344
f 345 346 299
f 301 343 297
f 347 343 301
f 300 348 302
f 346 348 300
f 303 347 301
f 349 347 303
f 348 304 302
f 350 304 348
f 350 305 304
f 351 305 350
f 351 306 305
f 352 306 351
f 352 307 306
f 353 307 352
f 353 308 307
f 354 308 353
f 354 309 308
f 355 309 354
f 355 310 309
f 356 310 355
f 356 311 310
f 311 358 312
f 357 311 356
f 357 358 311
f 313 349 303
f 359 349 313
f 312 360 314
f 358 360 312
f 315 359 313
f 361 359 315
f 314 362 316
f 360 362 314
f 317 361 315
f 363 361 317
f 316 364 318
f 362 364 316
f 319 363 317
f 365 363 319
f 318 366 320
f 364 366 318
f 321 365 319
f 367 365 321
f 320 368 322
f 366 368 320
f 323 367 321
f 369 367 323
f 322 370 324
f 368 370 322
f 325 369 323
f 371 369 325
f 327 373 326
f 326 373 372
f 328 374 327
f 327 374 373
f 329 375 328
f 328 375 374
f 330 376 329
f 329 376 375
f 331 377 330
f 330 377 376
f 332 378 331
f 331 378 377
f 333 379 332
f 332 379 378
f 324 380 334
f 370 380 324
f 334 380 333
f 333 380 379
f 335 371 325
f 381 371 335
f 326 382 336
f 372 382 326
f 337 381 335
f 338 384 337
f 383 381 337
f 337 384 383
f 339 385 338
f 338 385 384
f 336 386 340
f 382 386 336
f 340 386 339
f 339 386 385
f 387 342 341
f 343 387 341
f 388 342 387
f 389 387 343
f 388 344 342
f 390 344 388
f 390 345 344
f 345 392 346
f 391 345 390
f 391 392 345
f 347 389 343
f 393 389 347
f 346 394 348
f 392 394 346
f 349 393 347
f 395 393 349
f 394 350 348
f 396 350 394
f 396 351 350
f 397 351 396
f 397 352 351
f 398 352 397
f 398 353 352
f 399 353 398
f 399 354 353
f 400 354 399
f 400 355 354
f 401 355 400
f 401 356 355
f 402 356 401
f 402 357 356
f 357 404 358
f 403 357 402
f 403 404 357
f 359 395 349
f 405 395 359
f 358 406 360
f 404 406 358
f 361 405 359
f 407 405 361
f 360 408 362
f 406 408 360
f 363 407 361
f 409 407 363
f 362 410 364
f 408 410 362
f 365 409 363
f 411 409 365
f 364 412 366
f 410 412 364
f 367 411 365
f 413 411 367
f 366 414 368
f 412 414 366
f 369 413 367
f 415 413 369
f 368 416 370
f 414 416 368
f 371 415 369
f 417 415 371
f 373 419 372
f 372 419 418
f 374 420 373
f 373 420 419
f 375 421 374
f 374 421 420
f 376 422 375
f 375 422 421
f 377 423 376
f 376 423 422
f 378 424 377
f 377 424 423
f 379 425 378
f 378 425 424
f 370 426 380
f 416 426 370
f 380 426 379
f 379 426 425
f 381 417 371
f 427 417 381
f 372 428 382
f 418 428 372
f 383 427 381
f 384 430 383
f 429 427 383
f 383 430 429
f 385 431 384
f 384 431 430
f 382 432 386
f 428 432 382
f 386 432 385
f 385 432 431
f 433 388 387
f 389 433 387
f 434 388 433
f 435 433 389
f 434 390 388
f 436 390 434
f 436 391 390
f 391 438 392
f 437 391 436
f 437 438 391
f 393 435 389
f 439 435 393
f 392 440 394
f 438 440 392
f 395 439 393
f 441 439 395
f 440 396 394
f 442 396 440
f 442 397 396
f 443 397 442
f 443 398 397
f 444 398 443
f 444 399 398
f 445 399 444
f 445 400 399
f 446 400 445
f 446 401 400
f 447 401 446
f 447 402 401
f 448 402 447
f 448 403 402
f 403 450 404
f 449 403 448
f 449 450 403
f 405 441 395
f 451 441 405
f 404 452 406
f 450 452 404
f 407 451 405
f 453 451 407
f 406 454 408
f 452 454 406
f 409 453 407
f 455 453 409
f 408 456 410
f 454 456 408
f 411 455 409
f 457 455 411
f 410 458 412
f 456 458 410
f 413 457 411
f 459 457 413
f 412 460 414
f 458 460 412
f 415 459 413
f 461 459 415
f 414 462 416
f 460 462 414
f 417 461 415
f 463 461 417
f 419 465 418
f 418 465 464
f 420 466 419
f 419 466 465
f 421 467 420
f 420 467 466
f 422 468 421
f 421 468 467
f 423 469 422
f 422 469 468
f 424 470 423
f 423 470 469
f 425 471 424
f 424 471 470
f 416 472 426
f 462 472 416
f 426 472 425
f 425 472 471
f 427 463 417
f 473 463 427
f 418 474 428
f 464 474 418
f 429 473 427
f 430 476 429
f 475 473 429
f 429 476 475
f 431 477 430
f 430 477 476
f 428 478 432
f 474 478 428
f 432 478 431
f 431 478 477
f 479 434 433
f 435 479 433
f 480 434 479
f 481 479 435
f 480 436 434
f 482 436 480
f 482 437 436
f 437 484 438
f 483 437 482
f 483 484 437
f 439 481 435
f 485 481 439
f 438 486 440
f 484 486 438
f 441 485 439
f 487 485 441
f 486 442 440
f 488 442 486
f 489 488 486
f 490 488 489
f 488 443 442
f 491 443 488
f 490 491 488
f 492 491 490
f 491 444 443
f 493 444 491
f 492 493 491
f 494 493 492
f 493 445 444
f 495 445 493
f 494 495 493
f 496 495 494
f 495 446 445
f 497 446 495
f 496 497 495
f 498 497 496
f 497 447 446
f 499 447 497
f 498 499 497
f 500 499 498
f 499 448 447
f 501 448 499
f 500 501 499
f 502 501 500
f 501 449 448
f 449 504 450
f 503 449 501
f 503 504 449
f 502 503 501
f 504 503 502
f 451 487 441
f 505 487 451
f 450 506 452
f 504 506 450
f 453 505 451
f 507 505 453
f 452 508 454
f 506 508 452
f 455 507 453
f 509 507 455
f 454 510 456
f 508 510 454
f 457 509 455
f 511 509 457
f 456 512 458
f 510 512 456
f 459 511 457
f 513 511 459
f 458 514 460
f 512 514 458
f 461 513 459
f 515 513 461
f 460 516 462
f 514 516 460
f 463 515 461
f 517 515 463
f 465 521 464
f 464 521 520
f 520 519 518
f 521 519 520
f 466 523 465
f 465 523 521
f 521 522 519
f 523 522 521
f 467 525 466
f 466 525 523
f 523 524 522
f 525 524 523
f 468 527 467
f 467 527 525
f 525 526 524
f 527 526 525
f 469 529 468
f 468 529 527
f 527 528 526
f 529 528 527
f 470 531 469
f 469 531 529
f 529 530 528
f 531 530 529
f 471 533 470
f 470 533 531
f 531 532 530
f 533 532 531
f 462 534 472
f 516 534 462
f 472 534 471
f 471 534 533
f 533 516 532
f 534 516 533
f 473 517 463
f 535 517 473
f 464 536 474
f 520 536 464
f 475 535 473
f 476 538 475
f 537 535 475
f 475 538 537
f 477 539 476
f 476 539 538
f 474 540 478
f 536 540 474
f 478 540 477
f 477 540 539
f 541 480 479
f 481 541 479
f 542 480 541
f 543 541 481
f 543 542 541
f 544 542 543
f 542 482 480
f 545 482 542
f 544 545 542
f 546 545 544
f 545 483 482
f 483 548 484
f 547 483 545
f 547 548 483
f 546 547 545
f 548 547 546
f 485 543 481
f 549 543 485
f 484 550 486
f 548 550 484
f 487 549 485
f 551 549 487
f 486 552 489
f 550 552 486
f 505 551 487
f 553 551 505
f 552 490 489
f 554 490 552
f 555 554 552
f 556 554 555
f 554 492 490
f 557 492 554
f 556 557 554
f 558 557 556
f 557 494 492
f 559 494 557
f 558 559 557
f 560 559 558
f 559 496 494
f 561 496 559
f 560 561 559
f 562 561 560
f 561 498 496
f 563 498 561
f 562 563 561
f 564 563 562
f 563 500 498
f 565 500 563
f 564 565 563
f 566 565 564
f 565 502 500
f 567 502 565
f 566 567 565
f 568 567 566
f 567 504 502
f 504 570 506
f 569 504 567
f 569 570 504
f 568 569 567
f 570 569 568
f 507 553 505
f 571 553 507
f 506 572 508
f 570 572 506
f 509 571 507
f 573 571 509
f 508 574 510
f 572 574 508
f 511 573 509
f 575 573 511
f 510 576 512
f 574 576 510
f 513 575 511
f 577 575 513
f 512 578 514
f 576 578 512
f 515 577 513
f 579 577 515
f 519 583 518
f 518 583 582
f 582 581 580
f 583 581 582
f 522 585 519
f 519 585 583
f 583 584 581
f 585 584 583
f 524 587 522
f 522 587 585
f 585 586 584
f 587 586 585
f 526 589 524
f 524 589 587
f 587 588 586
f 589 588 587
f 528 591 526
f 526 591 589
f 589 590 588
f 591 590 589
f 530 593 528
f 528 593 591
f 591 592 590
f 593 592 591
f 532 595 530
f 530 595 593
f 593 594 592
f 595 594 593
f 514 596 516
f 578 596 514
f 516 596 532
f 532 596 595
f 595 578 594
f 596 578 595
f 517 579 515
f 597 579 517
f 518 598 520
f 582 598 518
f 535 597 517
f 599 597 535
f 520 600 536
f 598 600 520
f 537 599 535
f 538 603 537
f 602 599 537
f 537 603 602
f 602 601 599
f 603 601 602
f 539 605 538
f 538 605 603
f 603 604 601
f 605 604 603
f 536 606 540
f 600 606 536
f 540 606 539
f 539 606 605
f 605 600 604
f 606 600 605
f 607 544 543
f 549 607 543
f 608 544 607
f 609 607 549
f 609 608 607
f 610 608 609
f 608 546 544
f 611 546 608
f 610 611 608
f 612 611 610
f 611 548 546
f 548 614 550
f 613 548 611
f 613 614 548
f 612 613 611
f 614 613 612
f 551 609 549
f 615 609 551
f 550 616 552
f 614 616 550
f 553 615 551
f 617 615 553
f 552 618 555
f 616 618 552
f 571 617 553
f 619 617 571
f 618 556 555
f 620 556 618
f 621 620 618
f 622 620 621
f 620 558 556
f 623 558 620
f 622 623 620
f 624 623 622
f 623 560 558
f 625 560 623
f 624 625 623
f 626 625 624
f 625 562 560
f 627 562 625
f 626 627 625
f 628 627 626
f 627 564 562
f 629 564 627
f 628 629 627
f 630 629 628
f 629 566 564
f 631 566 629
f 630 631 629
f 632 631 630
f 631 568 566
f 633 568 631
f 632 633 631
f 634 633 632
f 633 570 568
f 570 636 572
f 635 570 633
f 635 636 570
f 634 635 633
f 636 635 634
f 573 619 571
f 637 619 573
f 638 622 621
f 639 622 638
f 639 624 622
f 640 624 639
f 640 626 624
f 641 626 640
f 641 628 626
f 642 628 641
f 642 630 628
f 643 630 642
f 643 632 630
f 644 632 643
f 644 634 632
f 645 634 644
f 572 646 574
f 636 646 572
f 645 636 634
f 646 636 645
f 575 637 573
f 647 637 575
f 648 639 638
f 649 639 648
f 649 640 639
f 650 640 649
f 650 641 640
f 651 641 650
f 651 642 641
f 652 642 651
f 652 643 642
f 653 643 652
f 653 644 643
f 654 644 653
f 654 645 644
f 655 645 654
f 574 656 576
f 646 656 574
f 655 646 645
f 656 646 655
f 577 647 575
f 657 647 577
f 581 659 580
f 580 659 658
f 658 649 648
f 659 649 658
f 584 660 581
f 581 660 659
f 659 650 649
f 660 650 659
f 586 661 584
f 584 661 660
f 660 651 650
f 661 651 660
f 588 662 586
f 586 662 661
f 661 652 651
f 662 652 661
f 590 663 588
f 588 663 662
f 662 653 652
f 663 653 662
f 592 664 590
f 590 664 663
f 663 654 653
f 664 654 663
f 594 665 592
f 592 665 664
f 664 655 654
f 665 655 664
f 576 666 578
f 656 666 576
f 578 666 594
f 594 666 665
f 665 656 655
f 666 656 665
f 579 657 577
f 667 657 579
f 580 668 582
f 658 668 580
f 597 667 579
f 669 667 597
f 582 670 598
f 668 670 582
f 599 669 597
f 601 673 599
f 672 669 599
f 599 673 672
f 672 671 669
f 673 671 672
f 604 675 601
f 601 675 673
f 673 674 671
f 675 674 673
f 598 676 600
f 670 676 598
f 600 676 604
f 604 676 675
f 675 670 674
f 676 670 675
f 677 610 609
f 615 677 609
f 678 610 677
f 679 677 615
f 679 678 677
f 680 678 679
f 678 612 610
f 681 612 678
f 680 681 678
f 682 681 680
f 681 614 612
f 614 684 616
f 683 614 681
f 683 684 614
f 682 683 681
f 684 683 682
f 617 679 615
f 685 679 617
f 616 686 618
f 684 686 616
f 619 685 617
f 687 685 619
f 618 688 621
f 686 688 618
f 637 687 619
f 689 687 637
f 621 690 638
f 688 690 621
f 647 689 637
f 691 689 647
f 638 692 648
f 690 692 638
f 657 691 647
f 693 691 657
f 648 694 658
f 692 694 648
f 667 693 657
f 695 693 667
f 658 696 668
f 694 696 658
f 669 695 667
f 671 699 669
f 698 695 669
f 669 699 698
f 698 697 695
f 699 697 698
f 674 701 671
f 671 701 699
f 699 700 697
f 701 700 699
f 668 702 670
f 696 702 668
f 670 702 674
f 674 702 701
f 701 696 700
f 702 696 701
f 703 680 679
f 685 703 679
f 704 680 703
f 705 703 685
f 705 704 703
f 706 704 705
f 704 682 680
f 707 682 704
f 706 707 704
f 708 707 706
f 707 684 682
f 684 710 686
f 709 684 707
f 709 710 684
f 708 709 707
f 710 709 708
f 687 705 685
f 711 705 687
f 711 706 705
f 712 706 711
f 712 708 706
f 713 708 712
f 686 714 688
f 710 714 686
f 713 710 708
f 714 710 713
f 689 711 687
f 715 711 689
f 715 712 711
f 716 712 715
f 716 713 712
f 717 713 716
f 688 718 690
f 714 718 688
f 717 714 713
f 718 714 717
f 691 715 689
f 719 715 691
f 719 716 715
f 720 716 719
f 720 717 716
f 721 717 720
f 690 722 692
f 718 722 690
f 721 718 717
f 722 718 721
f 693 719 691
f 723 719 693
f 723 720 719
f 724 720 723
f 724 721 720
f 725 721 724
f 692 726 694
f 722 726 692
f 725 722 721
f 726 722 725
f 695 723 693
f 697 728 695
f 727 723 695
f 695 728 727
f 727 724 723
f 728 724 727
f 700 729 697
f 697 729 728
f 728 725 724
f 729 725 728
f 694 730 696
f 726 730 694
f 696 730 700
f 700 730 729
f 729 726 725
f 730 726 729

