# https://github.com/mikedh/trimesh

o 2.obj
v -0.01613337 0.01244251 0.12314251
v -0.01760390 0.01402525 0.12531209
v -0.01844552 0.01137876 0.12442023
v -0.01687654 0.00945121 0.12234451
v -0.01435527 0.01104594 0.12131646
v -0.01353737 0.01350473 0.12211472
v -0.01531139 0.01529788 0.12435290
v -0.01905938 0.00872385 0.12369466
v -0.01729735 0.00655299 0.12171712
v -0.01487936 0.00810717 0.11986200
v -0.01946770 0.00530409 0.12312899
v -0.02108079 0.00685393 0.12511571
v -0.02131491 0.00419086 0.12477193
v -0.01962913 0.00234772 0.12295149
v -0.01748684 0.00343545 0.12137078
v -0.02191960 0.00019650 0.12516672
v -0.01959215 -0.00127454 0.12296424
v -0.01755595 -0.00014652 0.12125219
v -0.01523259 0.00462416 0.11879952
v -0.01558632 0.00119828 0.11871613
v -0.01257436 0.01601835 0.12309864
v -0.01401964 0.01759982 0.12532331
v -0.01101074 0.01453940 0.12138481
v -0.00951879 0.01681125 0.12227896
v -0.01141242 0.01838380 0.12439754
v -0.00823647 0.01497959 0.11987194
v -0.00649255 0.01738100 0.12166407
v -0.00861826 0.01906449 0.12368675
v -0.00531454 0.01946642 0.12306243
v -0.00674248 0.02113613 0.12510781
v -0.00331175 0.01759217 0.12125066
v -0.00217685 0.01980664 0.12291017
v -0.00413220 0.02140647 0.12470358
v -0.00463079 0.01521219 0.11857280
v 0.00019013 0.01771229 0.12105888
v 0.00137553 0.01981505 0.12282244
v -0.00103710 0.02153909 0.12443758
v -0.00112152 0.01563452 0.11843635
v -0.01188653 0.00892838 0.11304747
v -0.01255294 0.00907503 0.11680643
v -0.01358430 0.00681389 0.11602653
v -0.01097351 0.01111786 0.11531600
v -0.00890875 0.01199135 0.11315101
v -0.00654993 0.01319027 0.11099342
v -0.00924718 0.01250754 0.11684698
v -0.00678686 0.01372278 0.11608595
v -0.01409947 0.00345151 0.11525530
v -0.01444428 0.00005955 0.11541139
v -0.01194111 0.01201711 0.11977350
v -0.00350584 0.01413823 0.11136704
v -0.00343443 0.01416425 0.11516910
v 0.00000344 0.01447207 0.11164274
v 0.00006542 0.01454450 0.11526678
v -0.02292903 0.01577683 0.13388559
v -0.02362629 0.01655673 0.13685598
v -0.02473748 0.01400434 0.13559280
v -0.02394177 0.01332569 0.13292233
v -0.02185839 0.01514078 0.13108098
v -0.02086988 0.01737947 0.13232019
v -0.02163830 0.01807163 0.13488890
v -0.02422817 0.01690358 0.14020994
v -0.02535849 0.01462484 0.13861062
v -0.02226670 0.01869137 0.13814034
v -0.02003030 0.01629583 0.12990016
v -0.02095506 0.01393778 0.12885554
v -0.01882067 0.01544503 0.12751610
v -0.01769571 0.01773601 0.12861377
v -0.01872274 0.01859624 0.13091418
v -0.01652612 0.01634888 0.12619910
v -0.01545370 0.01869035 0.12744291
v -0.01636775 0.01991171 0.12995245
v -0.01727261 0.02093134 0.13261679
v -0.01388269 0.02099918 0.12894123
v -0.01500790 0.02185839 0.13132198
v -0.01637387 0.02358268 0.13715412
v -0.01697371 0.02396523 0.14037215
v -0.01873498 0.02221161 0.13815819
v -0.01811754 0.02156459 0.13524416
v -0.01585589 0.02274999 0.13393890
v -0.01390360 0.02462883 0.13599856
v -0.01442362 0.02511340 0.13913038
v -0.01958374 0.01959547 0.13378587
v -0.02034221 0.02031951 0.13691898
v -0.02084310 0.02078750 0.14016200
v -0.02302696 0.01228388 0.13033729
v -0.02492901 0.01045477 0.13228219
v -0.02384843 0.00940351 0.12970863
v -0.02180611 0.01122446 0.12796471
v -0.02562704 0.00748412 0.13163109
v -0.02444291 0.00623139 0.12913608
v -0.02257223 0.00836374 0.12731054
v -0.02323303 0.00058747 0.12656201
v -0.02432764 -0.00063771 0.12826565
v -0.02322844 -0.00075784 0.12664312
v -0.02318126 0.00217634 0.12659287
v -0.02468520 0.00323397 0.12885656
v -0.02300783 0.00529388 0.12684638
v -0.02588539 0.00458055 0.13109245
v -0.02601061 0.00122378 0.13081957
v -0.02738780 0.00926937 0.13710439
v -0.02775301 0.01000973 0.13980214
v -0.02850205 0.00695263 0.13935991
v -0.02785910 0.00640431 0.13635713
v -0.02647886 0.00870370 0.13414088
v -0.02575277 0.01129179 0.13493175
v -0.02629651 0.01232672 0.13740456
v -0.02705013 0.00550760 0.13365479
v -0.02815749 0.00341173 0.13599958
v -0.02725314 0.00239159 0.13327938
v -0.02815239 0.00002869 0.13581544
v -0.02712792 -0.00111106 0.13323704
v -0.02903787 0.00363488 0.13916762
v -0.02906185 0.00009271 0.13900465
v -0.01985994 0.01253968 0.12648397
v -0.02056715 0.00958484 0.12566506
v -0.02455309 0.01713056 0.14396304
v -0.02564081 0.01528870 0.14161009
v -0.02277346 0.01908871 0.14155270
v -0.02440874 0.01711985 0.14746747
v -0.02579970 0.01527110 0.14510738
v -0.02293158 0.01916675 0.14503087
v -0.02403945 0.01679085 0.15117516
v -0.02604530 0.01423846 0.14950596
v -0.02275254 0.01905760 0.14861538
v -0.02335009 0.01633332 0.15429271
v -0.02496191 0.01419842 0.15335801
v -0.02227129 0.01867020 0.15202392
v -0.01702115 0.02424093 0.14381843
v -0.01909687 0.02255744 0.14152388
v -0.01453481 0.02554594 0.14271490
v -0.01700278 0.02416314 0.14751593
v -0.01924020 0.02269159 0.14505101
v -0.01456899 0.02559108 0.14635501
v -0.02108283 0.02104075 0.14389622
v -0.02109992 0.02094766 0.14739835
v -0.01671791 0.02372907 0.15098873
v -0.01905454 0.02253908 0.14858809
v -0.01436445 0.02528351 0.14987525
v -0.01635627 0.02308103 0.15409582
v -0.01874212 0.02205885 0.15197266
v -0.01408519 0.02459083 0.15324681
v -0.02073241 0.02053196 0.15110860
v -0.02012262 0.01992548 0.15432790
v -0.02687212 0.01266949 0.14078199
v -0.02705549 0.01301940 0.14384087
v -0.02792796 0.01045477 0.14268761
v -0.02885297 0.00714926 0.14269577
v -0.02699734 0.01289774 0.14739274
v -0.02802105 0.01042467 0.14629533
v -0.02896468 0.00714697 0.14630706
v -0.02945333 0.00365376 0.14263252
v -0.02953876 0.00002920 0.14264476
v -0.02959028 0.00361882 0.14634277
v -0.02975580 0.00009449 0.14628717
v -0.02696368 0.01275595 0.14916549
v -0.02686523 0.01234483 0.15071763
v -0.02762626 0.01066543 0.15024735
v -0.02867445 0.00720333 0.14970132
v -0.02693945 0.00951343 0.15435035
v -0.02795219 0.00699446 0.15318254
v -0.02644239 0.01218875 0.15241565
v -0.02921359 0.00365554 0.14983802
v -0.02937273 0.00009092 0.14984516
v -0.02849388 0.00353618 0.15329323
v -0.02866935 0.00003915 0.15343579
v -0.01233259 0.02290888 0.13040309
v -0.01323235 0.02390709 0.13324010
v -0.01140477 0.02162503 0.12791089
v -0.00945427 0.02378747 0.12976882
v -0.01050985 0.02462246 0.13216156
v -0.00844229 0.02243579 0.12726566
v -0.00634488 0.02418456 0.12901825
v -0.00762720 0.02527433 0.13156580
v -0.01252488 0.01980511 0.12654773
v -0.00957490 0.02063652 0.12579309
v -0.01129587 0.02546560 0.13490599
v -0.01194545 0.02613813 0.13792917
v -0.00865703 0.02617766 0.13400138
v -0.00921708 0.02695628 0.13709291
v -0.00965115 0.02745972 0.14030099
v -0.00637141 0.02751481 0.13637652
v -0.00696309 0.02792975 0.13921327
v -0.00541681 0.02288159 0.12671223
v -0.00335843 0.02451330 0.12868467
v -0.00462212 0.02572242 0.13101110
v -0.00220771 0.02313816 0.12648117
v 0.00124521 0.02310577 0.12639012
v 0.00004782 0.02456482 0.12853879
v -0.00124342 0.02586601 0.13071755
v -0.00554713 0.02671655 0.13357011
v -0.00227325 0.02702208 0.13324061
v -0.00333904 0.02776882 0.13589425
v -0.00366523 0.02838524 0.13912809
v 0.00118782 0.02694200 0.13308784
v -0.00008072 0.02780912 0.13566191
v -0.00002104 0.02852423 0.13908448
v -0.01225914 0.02661683 0.14139050
v -0.01228209 0.02676016 0.14502832
v -0.00978658 0.02766553 0.14386638
v -0.00714161 0.02822890 0.14262385
v -0.00972205 0.02757755 0.14739555
v -0.00701358 0.02827022 0.14624993
v -0.01211734 0.02656429 0.14872020
v -0.01081488 0.02604555 0.15305273
v -0.00958714 0.02708788 0.15095736
v -0.00693401 0.02794403 0.14970667
v -0.00901459 0.02688411 0.15267681
v -0.00702940 0.02704886 0.15350695
v -0.00898679 0.02644494 0.15425037
v -0.00357622 0.02879942 0.14273606
v -0.00365605 0.02882671 0.14621040
v -0.00002946 0.02899656 0.14262257
v -0.00013402 0.02892387 0.14612573
v -0.00368130 0.02838805 0.14965184
v -0.00363871 0.02765023 0.15305936
v -0.00006542 0.02849031 0.14972861
v -0.00032275 0.02785298 0.15299841
v -0.02293489 0.01586252 0.15606928
v -0.02109966 0.01753096 0.15683005
v -0.02249904 0.01565442 0.15735466
v -0.02356330 0.01394619 0.15724525
v -0.01589695 0.02263166 0.15589994
v -0.01400919 0.02317718 0.15687136
v -0.01575184 0.02220702 0.15708942
v -0.01765108 0.02086018 0.15668468
v -0.01965770 0.01947841 0.15613074
v -0.01930524 0.01910172 0.15744366
v -0.02030217 0.01649858 0.15981676
v -0.01801068 0.01783624 0.16065532
v -0.01965974 0.01585589 0.16138293
v -0.02136209 0.01414002 0.16046633
v -0.01647282 0.01992370 0.15989200
v -0.01412803 0.02100479 0.16038651
v -0.01593317 0.01933763 0.16130922
v -0.01657382 0.01645829 0.16376087
v -0.01437312 0.01776228 0.16406334
v -0.01600024 0.01574062 0.16484273
v -0.01803823 0.01440015 0.16403300
v -0.02654006 0.00890594 0.15608586
v -0.02569564 0.01066568 0.15640873
v -0.02608228 0.00714850 0.15807258
v -0.02713863 0.00711152 0.15575202
v -0.02318483 0.01242389 0.15964869
v -0.02250643 0.01201405 0.16104934
v -0.02350030 0.01037137 0.16046633
v -0.02481526 0.00703858 0.16030974
v -0.02666019 0.00526200 0.15782851
v -0.02728936 0.00381876 0.15702541
v -0.02741509 0.00000625 0.15711237
v -0.02653751 0.00224647 0.15926028
v -0.02578542 0.00359918 0.15995244
v -0.02583081 0.00007230 0.16028934
v -0.02697974 0.00160430 0.15838347
v -0.02639163 -0.00179812 0.15909348
v -0.02268904 0.00872971 0.16291033
v -0.02106039 0.01049583 0.16370783
v -0.02192062 0.00684883 0.16448568
v -0.02345287 0.00685521 0.16261628
v -0.02227945 0.00351298 0.16494398
v -0.02387393 0.00367518 0.16296772
v -0.02234041 0.00005930 0.16508017
v -0.02397492 0.00000625 0.16307151
v -0.01999230 0.01270749 0.16355557
v -0.01927132 0.01224435 0.16454766
v -0.01945826 0.00878837 0.16630816
v -0.01798135 0.01070547 0.16654866
v -0.01748199 0.00692228 0.16853461
v -0.02004050 0.00698680 0.16631020
v -0.01632133 0.01251468 0.16691106
v -0.01416246 0.01400842 0.16733927
v -0.01540448 0.01055525 0.16856114
v -0.01633867 0.00897480 0.16864734
v -0.01868091 0.00349436 0.16836578
v -0.02055363 0.00360351 0.16670448
v -0.01881965 0.00007179 0.16850299
v -0.02064137 0.00008327 0.16685113
v -0.01596530 0.00538825 0.17011098
v -0.01449732 0.00719619 0.17031756
v -0.01422877 0.00340331 0.17128669
v -0.01655290 0.00343034 0.16990951
v -0.01422367 0.00000854 0.17153408
v -0.01666410 0.00018962 0.17007018
v -0.01070394 0.02468061 0.15678593
v -0.01242415 0.02268853 0.15937020
v -0.01066415 0.02346613 0.15932454
v -0.01065038 0.02211776 0.16145893
v -0.00727780 0.02586779 0.15641893
v -0.00715028 0.02375355 0.16072877
v -0.00894802 0.02292265 0.16133498
v -0.01278298 0.01971406 0.16339082
v -0.01065420 0.01999587 0.16416612
v -0.01216580 0.01904740 0.16450430
v -0.01249938 0.01606885 0.16688683
v -0.01081054 0.01766230 0.16639972
v -0.01056392 0.01509920 0.16842291
v -0.00719032 0.02194128 0.16332731
v -0.00891359 0.01895635 0.16620207
v -0.00709519 0.01955925 0.16608194
v -0.00700032 0.01711959 0.16829692
v -0.00894139 0.01598673 0.16862847
v -0.00542803 0.02652706 0.15601572
v -0.00359000 0.02692160 0.15555182
v -0.00358515 0.02591650 0.15784993
v -0.00381188 0.02458114 0.16036840
v -0.00020007 0.02707870 0.15557298
v -0.00005726 0.02599072 0.15807870
v -0.00022838 0.02475253 0.16036050
v -0.00550684 0.02274642 0.16308121
v -0.00358949 0.02326312 0.16264255
v -0.00347855 0.02174005 0.16460988
v -0.00016692 0.02328812 0.16277363
v -0.00017636 0.02184768 0.16473485
v -0.00359892 0.02005657 0.16633035
v -0.00361474 0.01821063 0.16816150
v -0.00005088 0.02020577 0.16646348
v -0.00003991 0.01828484 0.16825535
v -0.00547496 0.01564600 0.16991206
v -0.00351604 0.01624406 0.16966034
v -0.00345075 0.01404158 0.17102401
v -0.00728494 0.01430911 0.17010588
v -0.00009934 0.01636953 0.16981616
v -0.00004119 0.01407243 0.17124079
v -0.01221935 0.01211122 0.16967768
v -0.01061977 0.01280772 0.16992481
v -0.01056724 0.01034791 0.17115408
v -0.01313569 0.01046675 0.16990441
v -0.01060498 0.00705413 0.17227878
v -0.00709774 0.01050526 0.17219207
v -0.00913522 0.00904672 0.17223797
v -0.01192147 0.00361167 0.17239610
v -0.01199237 -0.00000574 0.17261798
v -0.00893425 0.00524313 0.17338563
v -0.00709723 0.00703016 0.17332697
v -0.00688122 0.00339336 0.17405382
v -0.00948742 0.00348900 0.17333972
v -0.00686617 -0.00011005 0.17430120
v -0.00956189 -0.00001951 0.17353355
v -0.00360045 0.01166057 0.17234764
v -0.00543364 0.00865499 0.17334993
v -0.00354639 0.00940836 0.17335758
v -0.00353185 0.00680828 0.17409208
v -0.00006083 0.01177891 0.17243435
v -0.00015289 0.00942851 0.17346724
v -0.00001823 0.00674860 0.17417369
v -0.00364610 0.00348824 0.17460980
v -0.00362851 -0.00007511 0.17481893
v -0.00003328 0.00355302 0.17474497
v -0.00000905 -0.00001415 0.17500000
v -0.01952023 -0.00296695 0.12303437
v -0.02069467 -0.00411741 0.12457529
v -0.01933482 -0.00457571 0.12325268
v -0.01778778 -0.00408119 0.12202571
v -0.01548711 -0.00229034 0.11889465
v -0.01912697 -0.00603910 0.12360004
v -0.01664140 -0.00831758 0.12252405
v -0.01414640 -0.00670423 0.11934198
v -0.01621294 -0.00997173 0.12286019
v -0.01767939 -0.01000769 0.12420243
v -0.01582860 -0.01148638 0.12341463
v -0.01431625 -0.01096790 0.12226366
v -0.01422495 -0.00343647 0.11554400
v -0.01093321 -0.01034842 0.11924226
v -0.01272330 -0.01355599 0.12274925
v -0.01422622 -0.01378144 0.12388925
v -0.01235937 -0.01476919 0.12331823
v -0.01058688 -0.01452257 0.12237766
v -0.00719491 -0.01369473 0.11954575
v -0.00347217 -0.01497857 0.11904869
v -0.00008862 -0.01526931 0.11902803
v -0.00881795 -0.01690817 0.12318663
v -0.01070623 -0.01764165 0.12495351
v -0.00686158 -0.01863526 0.12409200
v -0.00710565 -0.01664063 0.12252277
v -0.00344616 -0.01903541 0.12364748
v -0.00358031 -0.01701758 0.12200097
v 0.00000956 -0.01912059 0.12345748
v -0.00002844 -0.01711780 0.12183189
v -0.02588819 -0.00217404 0.13094938
v -0.02436589 -0.00465885 0.12913659
v -0.02300605 -0.00251809 0.12678772
v -0.02557756 -0.00655554 0.13220058
v -0.02360283 -0.00813803 0.12968543
v -0.02259774 -0.00579477 0.12713712
v -0.02325624 -0.00979882 0.13015596
v -0.02379461 -0.01092990 0.13214167
v -0.02273826 -0.01128337 0.13052755
v -0.02202340 -0.00987584 0.12864896
v -0.02790093 -0.00338291 0.13593531
v -0.02680836 -0.00453745 0.13344719
v -0.02662933 -0.00631224 0.13383816
v -0.02698969 -0.00732447 0.13592817
v -0.02626947 -0.00787509 0.13401770
v -0.02874637 -0.00349385 0.13905744
v -0.02802794 -0.00684143 0.13926173
v -0.02666554 -0.00983019 0.13740405
v -0.02720086 -0.00947926 0.13924387
v -0.02613379 -0.01181053 0.13926275
v -0.02576705 -0.01021197 0.13559943
v -0.02332331 -0.01348177 0.13371931
v -0.02363904 -0.01428386 0.13578127
v -0.02265997 -0.01485871 0.13406514
v -0.02218407 -0.01366463 0.13213631
v -0.02488540 -0.01397782 0.13913854
v -0.02040393 -0.00837343 0.12584358
v -0.01964061 -0.01121146 0.12653269
v -0.01932641 -0.01286510 0.12738680
v -0.01985280 -0.01408136 0.12923988
v -0.01854549 -0.01410993 0.12751738
v -0.01722900 -0.01417011 0.12658624
v -0.02274566 -0.01654296 0.13737141
v -0.02345873 -0.01631343 0.13933747
v -0.02181606 -0.01824225 0.13932574
v -0.02107849 -0.01751668 0.13564788
v -0.01904612 -0.01646415 0.13060916
v -0.02008054 -0.01641518 0.13207893
v -0.01845495 -0.01838125 0.13242118
v -0.01724711 -0.01692296 0.12913532
v -0.01552639 -0.01661870 0.12702567
v -0.01373400 -0.01853580 0.12768774
v -0.01409462 -0.01662763 0.12600706
v -0.01550037 -0.01971125 0.13062064
v -0.01646058 -0.01997139 0.13219369
v -0.01381868 -0.02194179 0.13240869
v -0.01404132 -0.02006932 0.12975071
v -0.01941949 -0.01841593 0.13394043
v -0.01938455 -0.02014609 0.13733672
v -0.02006065 -0.02007519 0.13918394
v -0.01832590 -0.02167247 0.13936961
v -0.01751413 -0.02093517 0.13583380
v -0.01572506 -0.02157811 0.13397588
v -0.01545957 -0.02321773 0.13756880
v -0.01626828 -0.02311291 0.13953920
v -0.01391304 -0.02458420 0.13957491
v -0.01404285 -0.02331336 0.13583737
v -0.02925363 -0.00359484 0.14263175
v -0.02857320 -0.00693044 0.14279396
v -0.02942119 -0.00352190 0.14616475
v -0.02868185 -0.00698629 0.14616093
v -0.02777673 -0.00965600 0.14284955
v -0.02665253 -0.01202196 0.14275723
v -0.02782034 -0.00971848 0.14625172
v -0.02676347 -0.01201328 0.14634302
v -0.02539674 -0.01427111 0.14263864
v -0.02542123 -0.01439607 0.14620479
v -0.02904093 -0.00351629 0.14983394
v -0.02836025 -0.00696487 0.14973600
v -0.02846124 -0.00334516 0.15328609
v -0.02750180 -0.00730228 0.15358550
v -0.02756760 -0.00959760 0.14995329
v -0.02655027 -0.01200691 0.14989693
v -0.02633655 -0.00904953 0.15540007
v -0.02620546 -0.01076438 0.15350185
v -0.02754159 -0.00893655 0.15156766
v -0.02524780 -0.01422163 0.14968296
v -0.02414886 -0.01443943 0.15354087
v -0.02389127 -0.01657611 0.14269577
v -0.02224579 -0.01852942 0.14276845
v -0.02397645 -0.01667659 0.14631114
v -0.02241207 -0.01860721 0.14628819
v -0.02375865 -0.01646288 0.14969035
v -0.02213663 -0.01849321 0.14975462
v -0.02251791 -0.01604666 0.15523302
v -0.02232255 -0.01727363 0.15313052
v -0.02386067 -0.01585360 0.15158781
v -0.02042408 -0.02043581 0.14266746
v -0.01870081 -0.02204355 0.14274295
v -0.02054471 -0.02045162 0.14624789
v -0.01872095 -0.02214530 0.14622800
v -0.01664548 -0.02348551 0.14276233
v -0.01419587 -0.02493870 0.14281742
v -0.01664956 -0.02368367 0.14626830
v -0.01435680 -0.02496879 0.14637133
v -0.02041821 -0.02017924 0.14989718
v -0.01851795 -0.02190557 0.14963475
v -0.01999740 -0.01979694 0.15309098
v -0.01719967 -0.02192495 0.15334806
v -0.01652791 -0.02339931 0.14972733
v -0.01407575 -0.02482725 0.14983394
v -0.01515021 -0.02285073 0.15509454
v -0.01451875 -0.02371173 0.15329552
v -0.01669470 -0.02295326 0.15153910
v -0.01238564 -0.01872095 0.12675355
v -0.01227980 -0.02165334 0.13042936
v -0.01057948 -0.02112976 0.12858419
v -0.00885952 -0.02038710 0.12666377
v -0.00684475 -0.02195301 0.12774028
v -0.00706408 -0.02031058 0.12585990
v -0.00873124 -0.02344930 0.13062574
v -0.01055984 -0.02341308 0.13216258
v -0.00695314 -0.02484077 0.13228857
v -0.00696130 -0.02344649 0.12994403
v -0.01228082 -0.02366633 0.13388559
v -0.01057234 -0.02504735 0.13559943
v -0.01054887 -0.02615012 0.13932854
v -0.00712733 -0.02624524 0.13558234
v -0.00911762 -0.02619296 0.13712045
v -0.00351961 -0.02241360 0.12739190
v -0.00360759 -0.02076557 0.12543731
v -0.00005675 -0.02250669 0.12720572
v 0.00001696 -0.02089844 0.12524068
v -0.00348722 -0.02538297 0.13198711
v -0.00358898 -0.02397492 0.12959106
v 0.00000446 -0.02555690 0.13188408
v -0.00006006 -0.02414656 0.12943396
v -0.00368257 -0.02636996 0.13425947
v -0.00540227 -0.02738678 0.13733086
v -0.00711917 -0.02721310 0.13920817
v -0.00340561 -0.02799198 0.13936272
v -0.00362468 -0.02730644 0.13666522
v -0.00000064 -0.02657704 0.13408452
v -0.00006848 -0.02821437 0.13926351
v -0.00003660 -0.02752042 0.13665221
v -0.01188143 -0.02616210 0.14267792
v -0.01197681 -0.02621234 0.14620505
v -0.00886845 -0.02717127 0.14093526
v -0.00942851 -0.02715546 0.14286001
v -0.00681950 -0.02788971 0.14306455
v -0.00965090 -0.02718862 0.14623948
v -0.00692917 -0.02792108 0.14627799
v -0.01190489 -0.02596777 0.14956666
v -0.01025890 -0.02576960 0.15330215
v -0.00946931 -0.02693205 0.14949525
v -0.00686056 -0.02762167 0.14973218
v -0.00786285 -0.02629880 0.15462349
v -0.00741118 -0.02686574 0.15278392
v -0.00988527 -0.02647503 0.15163576
v -0.00352139 -0.02847960 0.14267154
v -0.00357750 -0.02851250 0.14622315
v -0.00013453 -0.02868083 0.14260294
v -0.00001670 -0.02870301 0.14630017
v -0.00353669 -0.02822661 0.14986888
v -0.00355557 -0.02752883 0.15309864
v -0.00009628 -0.02849567 0.14978930
v -0.00013581 -0.02775887 0.15306727
v -0.02637072 -0.00382641 0.15857449
v -0.02759514 -0.00349461 0.15585480
v -0.02623377 -0.00713319 0.15714757
v -0.02754235 -0.00540559 0.15526694
v -0.02518073 -0.00374149 0.16081293
v -0.02479996 -0.00683174 0.16017611
v -0.02488004 -0.01080008 0.15715777
v -0.02378135 -0.01311809 0.15687213
v -0.02246690 -0.01509002 0.15675201
v -0.02335825 -0.01037214 0.16017815
v -0.02146844 -0.01201634 0.16167877
v -0.02101550 -0.01401531 0.16039237
v -0.02354774 -0.01212346 0.15844671
v -0.02215576 -0.00339617 0.16498479
v -0.02378722 -0.00351808 0.16289146
v -0.02161815 -0.00669300 0.16455429
v -0.02332102 -0.00670805 0.16244744
v -0.02084412 -0.01029843 0.16360581
v -0.02324527 -0.00852492 0.16182669
v -0.01870973 -0.00334465 0.16825076
v -0.02046157 -0.00361933 0.16667567
v -0.01729021 -0.00694574 0.16833798
v -0.01997062 -0.00677207 0.16626047
v -0.01834988 -0.01195514 0.16533495
v -0.01785639 -0.01407703 0.16396822
v -0.02066049 -0.01256212 0.16233676
v -0.01852075 -0.01574368 0.16213630
v -0.01789337 -0.01033873 0.16639538
v -0.02016930 -0.00861265 0.16543467
v -0.01508849 -0.00892864 0.16933185
v -0.01521627 -0.01036831 0.16850503
v -0.01407397 -0.01385132 0.16716610
v -0.01710760 -0.01246572 0.16603247
v -0.01475848 -0.01569114 0.16538340
v -0.02015884 -0.01770260 0.15687672
v -0.01807291 -0.01899945 0.15840795
v -0.01792652 -0.02000862 0.15669029
v -0.02006830 -0.01903439 0.15503945
v -0.01781303 -0.01759497 0.16045817
v -0.02064341 -0.01608925 0.15878795
v -0.01530323 -0.02199279 0.15668289
v -0.01482147 -0.01898848 0.16195191
v -0.01411528 -0.02075945 0.16018299
v -0.01703033 -0.01960567 0.15876015
v -0.01424025 -0.01760747 0.16392461
v -0.01730066 -0.01628359 0.16274303
v -0.01415175 -0.00355863 0.17127394
v -0.01653148 -0.00340484 0.16980137
v -0.01466106 -0.00704393 0.17016454
v -0.01689388 -0.00519059 0.16938184
v -0.01321883 -0.02326797 0.15668825
v -0.01068940 -0.02438477 0.15664234
v -0.00971899 -0.02219300 0.16147398
v -0.01150883 -0.02295223 0.15903814
v -0.01360215 -0.02239728 0.15823963
v -0.00668255 -0.02569947 0.15667779
v -0.00783377 -0.02270460 0.16197920
v -0.00772105 -0.02371020 0.16020110
v -0.00971772 -0.01907163 0.16536734
v -0.01180951 -0.02010426 0.16293252
v -0.01364117 -0.01954395 0.16233676
v -0.00955347 -0.01526676 0.16861546
v -0.01179166 -0.01667608 0.16645098
v -0.01364219 -0.01608772 0.16593249
v -0.00801306 -0.01943607 0.16585573
v -0.00728877 -0.02118331 0.16403274
v -0.00788045 -0.01573756 0.16901178
v -0.00733110 -0.01768781 0.16761445
v -0.00245484 -0.02589891 0.15810879
v -0.00468920 -0.02670788 0.15537559
v -0.00640456 -0.02652043 0.15517385
v -0.00355200 -0.02460843 0.16023859
v 0.00111488 -0.02599021 0.15813353
v -0.00122455 -0.02695654 0.15575992
v -0.00012458 -0.02483006 0.16031943
v -0.00241378 -0.01832182 0.16820026
v -0.00471623 -0.01989309 0.16634540
v -0.00655223 -0.01967427 0.16612989
v -0.00233650 -0.02172475 0.16469507
v 0.00105011 -0.01837207 0.16832345
v -0.00136201 -0.02014762 0.16664455
v 0.00104781 -0.02178290 0.16482794
v -0.00461141 -0.02310602 0.16246020
v -0.00641017 -0.02295377 0.16218986
v -0.00130412 -0.02336896 0.16269381
v -0.01178095 -0.00332119 0.17247006
v -0.01028542 -0.00693427 0.17226858
v -0.00674095 -0.00342652 0.17407677
v -0.00938923 -0.00324136 0.17343919
v -0.00721251 -0.00680547 0.17326066
v -0.00982483 -0.00539207 0.17302348
v -0.00781261 -0.00867054 0.17257972
v -0.01053485 -0.01045681 0.17090159
v -0.01309234 -0.01032011 0.16979678
v -0.01147695 -0.01269499 0.16943183
v -0.01325454 -0.01211810 0.16892966
v -0.00666215 -0.01058381 0.17210791
v -0.00771187 -0.01402143 0.17013394
v -0.00353236 -0.00339643 0.17462000
v -0.00346197 -0.00677793 0.17394671
v 0.00004501 -0.00337424 0.17485973
v -0.00014601 -0.00668612 0.17427315
v -0.00241327 -0.01179931 0.17235019
v -0.00363182 -0.01392579 0.17105206
v -0.00455199 -0.00925763 0.17310254
v -0.00633086 -0.00885085 0.17288831
v 0.00102154 -0.01173861 0.17255167
v -0.00002538 -0.01401684 0.17130455
v -0.00131381 -0.00930737 0.17351060
v -0.00467517 -0.01618897 0.16949610
v -0.00647061 -0.01589619 0.16930839
v -0.00133421 -0.01633765 0.16982458
v 0.00358821 0.01762022 0.12136364
v 0.00458387 0.01960567 0.12312313
v 0.00315338 0.02183620 0.12521569
v 0.00245866 0.01555801 0.11860085
v 0.00633978 0.01936364 0.12331236
v 0.00767999 0.01764879 0.12234068
v 0.00776670 0.01918002 0.12357913
v 0.00766826 0.02049727 0.12494280
v 0.00586644 0.01512598 0.11874163
v 0.01008701 0.01388702 0.12028306
v 0.01151316 0.01626369 0.12286937
v 0.00942188 0.01869545 0.12393465
v 0.01324893 0.01569752 0.12342891
v 0.01437567 0.01373706 0.12284590
v 0.01444989 0.01530221 0.12387369
v 0.01398088 0.01736927 0.12534218
v 0.00354537 0.01436777 0.11535859
v 0.01364372 0.00667541 0.11609437
v 0.01235554 0.00894777 0.11542949
v 0.01409360 0.00339847 0.11522470
v 0.01446901 -0.00007664 0.11534329
v 0.01498367 0.00693605 0.11968679
v 0.01360547 0.01043513 0.12024404
v 0.01522570 0.00347982 0.11854194
v 0.01554067 0.00000064 0.11864803
v 0.01674188 0.01224588 0.12343070
v 0.01659804 0.01054046 0.12260974
v 0.01869596 0.01036984 0.12425089
v 0.01741569 0.01387351 0.12535570
v 0.01793698 0.00711840 0.12248044
v 0.01858196 0.00879296 0.12334909
v 0.01753300 0.00361729 0.12142281
v 0.01763042 0.00020135 0.12132921
v 0.02007825 0.00537473 0.12358780
v 0.01965744 0.00345253 0.12299688
v 0.02140341 0.00348518 0.12472347
v 0.02100708 0.00707377 0.12523609
v 0.01973319 0.00008939 0.12294690
v 0.02149344 0.00016998 0.12451791
v 0.00281775 0.02312540 0.12655079
v 0.00462187 0.02293515 0.12667219
v 0.00403682 0.02400400 0.12830951
v 0.00326814 0.02601036 0.13160303
v 0.00601206 0.02279054 0.12703383
v 0.00831477 0.02379232 0.12950027
v 0.00717783 0.02526770 0.13179176
v 0.00297817 0.02686906 0.13315619
v 0.00457035 0.02672573 0.13350687
v 0.00411690 0.02731664 0.13525513
v 0.00354460 0.02829980 0.13909391
v 0.00615692 0.02647350 0.13383969
v 0.00812069 0.02691165 0.13670424
v 0.00689525 0.02772496 0.13924336
v 0.00991154 0.02350643 0.12992567
v 0.01030889 0.02219147 0.12845718
v 0.01155626 0.02302415 0.13026997
v 0.01116453 0.02396166 0.13203200
v 0.01156697 0.01994793 0.12626490
v 0.01339761 0.01937920 0.12677369
v 0.01452844 0.01900761 0.12726209
v 0.01441673 0.02016343 0.12864233
v 0.01386484 0.02248782 0.13185628
v 0.01016454 0.02578032 0.13547114
v 0.00978301 0.02660663 0.13739538
v 0.01180110 0.02614501 0.13918241
v 0.00949227 0.02701111 0.13912809
v 0.01371284 0.02359441 0.13344464
v 0.01506631 0.02295402 0.13393813
v 0.01455649 0.02379742 0.13558004
v 0.01418261 0.02490147 0.13907019
v 0.00349232 0.02875606 0.14258610
v 0.00348645 0.02866705 0.14617674
v 0.00695186 0.02809578 0.14257794
v 0.00692789 0.02809807 0.14612063
v 0.00346069 0.02829725 0.14960313
v 0.00358617 0.02731052 0.15352837
v 0.00685954 0.02783232 0.14933509
v 0.00715258 0.02718301 0.15186146
v 0.00745556 0.02623351 0.15486832
v 0.00557544 0.02647656 0.15550565
v 0.01209541 0.02648574 0.14271286
v 0.00960117 0.02740361 0.14268608
v 0.01211147 0.02639061 0.14624458
v 0.00959709 0.02739239 0.14626651
v 0.01430197 0.02531717 0.14259299
v 0.01439301 0.02536231 0.14612624
v 0.01186715 0.02608508 0.14979568
v 0.00945988 0.02710828 0.14953733
v 0.01053867 0.02582138 0.15298795
v 0.00872589 0.02697949 0.15141719
v 0.01436598 0.02491855 0.14960109
v 0.01446519 0.02387521 0.15342993
v 0.01695994 0.01611424 0.12655232
v 0.01821879 0.01555036 0.12720572
v 0.01759727 0.01741620 0.12869487
v 0.01680335 0.01947841 0.13015826
v 0.01808719 0.01880409 0.13055331
v 0.01782986 0.01985280 0.13219573
v 0.02046080 0.01595740 0.13025415
v 0.02072094 0.01385362 0.12878898
v 0.02205655 0.01531369 0.13215416
v 0.01987779 0.01778090 0.13192540
v 0.01698748 0.02293795 0.13730867
v 0.01716830 0.02206165 0.13548313
v 0.01874875 0.02204533 0.13919057
v 0.01661615 0.02349724 0.13907683
v 0.01993772 0.01900812 0.13388049
v 0.02220218 0.01734351 0.13560810
v 0.01985509 0.01981327 0.13577030
v 0.02246767 0.01604130 0.13369610
v 0.02214862 0.01870897 0.13919644
v 0.02044983 0.02046514 0.13897864
v 0.02399507 0.01591404 0.13727756
v 0.02397518 0.01454731 0.13516612
v 0.02565484 0.01381408 0.13926453
v 0.02384664 0.01655163 0.13901179
v 0.02028840 0.01227342 0.12684179
v 0.02030344 0.01056061 0.12589790
v 0.02188032 0.01037520 0.12761888
v 0.02194587 0.00886769 0.12686143
v 0.02317080 0.01204414 0.13055203
v 0.02339855 0.01034663 0.12984508
v 0.02460818 0.01066288 0.13198992
v 0.02357299 0.01281486 0.13225439
v 0.02368010 0.00706740 0.12844621
v 0.02586754 0.00721277 0.13200777
v 0.02329857 0.00522477 0.12720827
v 0.02309837 0.00346860 0.12667296
v 0.02468749 0.00344233 0.12889227
v 0.02317514 0.00013861 0.12651636
v 0.02474181 -0.00003354 0.12864004
v 0.02597006 0.00360300 0.13083691
v 0.02605346 0.00013428 0.13066476
v 0.02602770 0.01076999 0.13536530
v 0.02606289 0.00908957 0.13359077
v 0.02593079 0.01254682 0.13724058
v 0.02747196 0.00889625 0.13727985
v 0.02721820 0.00728443 0.13538392
v 0.02834469 0.00702633 0.13909774
v 0.02718403 0.01065216 0.13902174
v 0.02722177 0.00537626 0.13393022
v 0.02712511 0.00368716 0.13323959
v 0.02818325 0.00346835 0.13592587
v 0.02727890 0.00004501 0.13315619
v 0.02830082 0.00002181 0.13575627
v 0.02894479 0.00356092 0.13904316
v 0.02908608 0.00002818 0.13905107
v 0.01900047 0.02230368 0.14263328
v 0.01673423 0.02394891 0.14270265
v 0.01887091 0.02239728 0.14620811
v 0.01682605 0.02395070 0.14620581
v 0.02255387 0.01902393 0.14263966
v 0.02081785 0.02076863 0.14263175
v 0.02259723 0.01902266 0.14614307
v 0.02086401 0.02073088 0.14616781
v 0.01870718 0.02216596 0.14956691
v 0.01658988 0.02365945 0.14971407
v 0.01746669 0.02213485 0.15304227
v 0.01596071 0.02372448 0.15142433
v 0.01606936 0.02239575 0.15512693
v 0.02231847 0.01883419 0.14964700
v 0.02055363 0.02045927 0.14974952
v 0.02176224 0.01837844 0.15297902
v 0.02000148 0.01992880 0.15322845
v 0.02556379 0.01495409 0.14263379
v 0.02417258 0.01693188 0.14259044
v 0.02557960 0.01495894 0.14613772
v 0.02417334 0.01700661 0.14624738
v 0.02580990 0.01376894 0.15001016
v 0.02392009 0.01685155 0.14970973
v 0.02472906 0.01410176 0.15333913
v 0.02326771 0.01638764 0.15321901
v 0.02697133 0.01210612 0.14102019
v 0.02776729 0.01031220 0.14278018
v 0.02679484 0.01282889 0.14263762
v 0.02881166 0.00703756 0.14274346
v 0.02794020 0.01024742 0.14633282
v 0.02682111 0.01279395 0.14628054
v 0.02894581 0.00716201 0.14625682
v 0.02945537 0.00356679 0.14262716
v 0.02966016 0.00002538 0.14267103
v 0.02954029 0.00365121 0.14618872
v 0.02974815 0.00003736 0.14624075
v 0.02666809 0.01176080 0.15171380
v 0.02604198 0.01188118 0.15352046
v 0.02726589 0.01090567 0.14986301
v 0.02656327 0.01323924 0.14801630
v 0.02854260 0.00706000 0.14981175
v 0.02788155 0.00690596 0.15317693
v 0.02699250 0.00950017 0.15358652
v 0.02915749 0.00357827 0.14984975
v 0.02941303 0.00000778 0.14990254
v 0.02854107 0.00355939 0.15316545
v 0.02874866 0.00000217 0.15320728
v 0.00352904 0.02616465 0.15700679
v 0.00165122 0.02716439 0.15512157
v 0.00314751 0.02454926 0.16033270
v 0.00741373 0.02525928 0.15721413
v 0.00699395 0.02357044 0.16061043
v 0.00318220 0.02308944 0.16267545
v 0.00322632 0.02167222 0.16462544
v 0.00888452 0.02206140 0.16225897
v 0.00701486 0.02108640 0.16407253
v 0.00515565 0.02334193 0.16187209
v 0.00338597 0.02005172 0.16633264
v 0.00330436 0.01819762 0.16805311
v 0.00898551 0.01869596 0.16602992
v 0.00718293 0.01764088 0.16760017
v 0.00526353 0.02027820 0.16579962
v 0.01105027 0.02393769 0.15726335
v 0.01268250 0.02251664 0.15888359
v 0.01069577 0.02246537 0.16039595
v 0.00897684 0.02415753 0.15874511
v 0.01426524 0.02256025 0.15693844
v 0.01259247 0.02428224 0.15522359
v 0.01446417 0.02017618 0.16072698
v 0.01078325 0.02045366 0.16309141
v 0.01078861 0.01862430 0.16519697
v 0.01094571 0.01680054 0.16679375
v 0.01033133 0.01521448 0.16828162
v 0.00874756 0.01507880 0.16912680
v 0.01585309 0.01824021 0.16205801
v 0.01414104 0.01767837 0.16393430
v 0.01249658 0.02039551 0.16226509
v 0.01572455 0.01501096 0.16537346
v 0.01397731 0.01390258 0.16719007
v 0.01252259 0.01697116 0.16580778
v 0.00335766 0.01621932 0.16966697
v 0.00348849 0.01389391 0.17110052
v 0.00698400 0.01433895 0.17001407
v 0.00511842 0.01659090 0.16911788
v 0.00335996 0.01158738 0.17228898
v 0.00328778 0.00928186 0.17333717
v 0.00327834 0.00676416 0.17403597
v 0.00698298 0.01020687 0.17217166
v 0.00836756 0.00784168 0.17274549
v 0.00662568 0.00710387 0.17328362
v 0.00518039 0.00978097 0.17290361
v 0.00333802 0.00363157 0.17465825
v 0.00337475 0.00006057 0.17480107
v 0.00680369 0.00359943 0.17398496
v 0.00684169 0.00009934 0.17417114
v 0.01034791 0.01298063 0.16978607
v 0.01038489 0.01056163 0.17088629
v 0.01044788 0.00659609 0.17217421
v 0.01551134 0.00955194 0.16879169
v 0.01264883 0.01161977 0.16934537
v 0.01214641 0.01315074 0.16886029
v 0.01588471 0.00821582 0.16916327
v 0.01418669 0.00757109 0.17017219
v 0.01193856 0.00249998 0.17253891
v 0.00910155 0.00465732 0.17324791
v 0.00888120 0.00646781 0.17304388
v 0.01197146 -0.00104016 0.17254912
v 0.00947110 0.00123475 0.17351570
v 0.01409896 0.00374531 0.17117703
v 0.01417037 0.00013428 0.17135810
v 0.01776508 0.02007672 0.15699480
v 0.01920042 0.01808158 0.15845411
v 0.01774213 0.01774519 0.16049209
v 0.01608083 0.02052634 0.15876449
v 0.02081198 0.01734963 0.15669896
v 0.01921929 0.02010222 0.15486628
v 0.02228736 0.01453609 0.15831053
v 0.02117745 0.01400715 0.16031127
v 0.01977654 0.01706884 0.15894072
v 0.01924071 0.01501122 0.16200776
v 0.01781941 0.01420556 0.16396184
v 0.01633408 0.01729301 0.16261551
v 0.02335749 0.01422163 0.15655436
v 0.02261559 0.01654015 0.15492443
v 0.01903822 0.01108266 0.16520182
v 0.01746975 0.01107093 0.16641426
v 0.01621728 0.01365698 0.16601003
v 0.01760365 0.00667464 0.16818445
v 0.02231006 0.01087787 0.16169943
v 0.02075486 0.01046752 0.16359510
v 0.01985484 0.01369167 0.16252957
v 0.02186553 0.00570474 0.16458438
v 0.01981123 0.00799088 0.16599625
v 0.01933202 0.00975419 0.16554280
v 0.02229374 0.00247396 0.16494959
v 0.02022336 0.00493811 0.16652239
v 0.01866281 0.00248238 0.16840225
v 0.02228022 -0.00100496 0.16498912
v 0.02053374 0.00123195 0.16686133
v 0.01866842 -0.00099196 0.16842648
v 0.02537762 0.01000438 0.15681806
v 0.02330673 0.01075163 0.16007358
v 0.02291449 0.01324765 0.15867217
v 0.02617562 0.00582308 0.15815419
v 0.02481781 0.00693605 0.16017560
v 0.02683794 0.00810692 0.15558573
v 0.02640030 0.00982330 0.15507771
v 0.02671349 0.00242831 0.15835337
v 0.02529906 0.00370961 0.16048725
v 0.02673159 -0.00114855 0.15839316
v 0.02550947 0.00009806 0.16061936
v 0.02743549 0.00474403 0.15584995
v 0.02787415 0.00112126 0.15593360
v 0.02310679 0.00782612 0.16231457
v 0.02275662 0.00959249 0.16191952
v 0.02362655 0.00482692 0.16272059
v 0.02400604 0.00119828 0.16291492
v 0.01639733 0.00489195 0.16965626
v 0.01624253 0.00652035 0.16949099
v 0.01662151 0.00124878 0.17000132
v 0.00341836 -0.01518031 0.11916958
v 0.00705005 -0.01383066 0.11890128
v 0.01421347 -0.00356271 0.11546877
v 0.01204797 -0.00868585 0.11719867
v 0.01536674 -0.00352955 0.11889006
v 0.01416858 -0.00716329 0.11889133
v 0.01284623 -0.00911456 0.11938024
v 0.01091893 -0.01089751 0.11886481
v 0.01083018 -0.01432033 0.12221852
v 0.01465366 -0.01099774 0.12223994
v 0.01266898 -0.01257028 0.12190942
v 0.01405127 -0.01392120 0.12366584
v 0.01608644 -0.01233029 0.12382575
v 0.01261925 -0.01588726 0.12410501
v 0.00345508 -0.01900685 0.12358805
v 0.00361448 -0.01695050 0.12196935
v 0.00689652 -0.01857074 0.12406854
v 0.00711968 -0.01654296 0.12232793
v 0.00892991 -0.01587783 0.12236491
v 0.01086818 -0.01769367 0.12489766
v 0.01824480 -0.00381723 0.12220016
v 0.01692984 -0.00715028 0.12208131
v 0.01903516 -0.00717757 0.12371889
v 0.01978802 -0.00536249 0.12364314
v 0.01922006 -0.00180577 0.12249753
v 0.02131746 -0.00365018 0.12499126
v 0.01610812 -0.00885442 0.12203668
v 0.01738177 -0.01028491 0.12384870
v 0.00356322 -0.02231720 0.12723225
v 0.00357750 -0.02077934 0.12538732
v 0.00683863 -0.02192087 0.12761097
v 0.00712784 -0.02029630 0.12580609
v 0.00356781 -0.02526489 0.13195600
v 0.00350609 -0.02392086 0.12953827
v 0.00712529 -0.02469438 0.13221282
v 0.00695544 -0.02334626 0.12972368
v 0.00352292 -0.02640566 0.13420362
v 0.00340204 -0.02792490 0.13922526
v 0.00341581 -0.02729777 0.13660146
v 0.00719313 -0.02624244 0.13582845
v 0.00543211 -0.02695373 0.13620666
v 0.00710157 -0.02713608 0.13873814
v 0.00895057 -0.02657653 0.13812759
v 0.00884065 -0.01960669 0.12567653
v 0.01068098 -0.02109762 0.12857934
v 0.01245807 -0.01940776 0.12751176
v 0.01423107 -0.01846821 0.12770636
v 0.01414640 -0.01660850 0.12592009
v 0.01210408 -0.02246053 0.13132147
v 0.01405560 -0.02190506 0.13253314
v 0.01437542 -0.01993313 0.12963416
v 0.00889957 -0.02270026 0.12941024
v 0.01036806 -0.02342889 0.13188127
v 0.01065956 -0.02498818 0.13554995
v 0.01084318 -0.02608738 0.13950630
v 0.01246674 -0.02307032 0.13264995
v 0.01392094 -0.02331897 0.13542702
v 0.01565238 -0.02223992 0.13503503
v 0.01401429 -0.02455003 0.13922041
v 0.00353465 -0.02838779 0.14270291
v 0.00349410 -0.02857601 0.14625350
v 0.00691590 -0.02789022 0.14276284
v 0.00682358 -0.02801876 0.14617291
v 0.00337755 -0.02831358 0.14965669
v 0.00339285 -0.02753368 0.15310170
v 0.00680241 -0.02765329 0.14958732
v 0.00631938 -0.02725799 0.15271506
v 0.00906738 -0.02692874 0.13986412
v 0.00950578 -0.02704809 0.14146854
v 0.01203267 -0.02630263 0.14388321
v 0.00963330 -0.02727278 0.14501556
v 0.01200844 -0.02629013 0.14737719
v 0.01432288 -0.02502694 0.14270801
v 0.01430018 -0.02521286 0.14624560
v 0.00952415 -0.02714526 0.14863221
v 0.01179497 -0.02590732 0.15092752
v 0.00902377 -0.02681270 0.15165106
v 0.01115127 -0.02544137 0.15384589
v 0.00868457 -0.02602030 0.15498717
v 0.01407728 -0.02502286 0.14964317
v 0.01365418 -0.02454263 0.15286349
v 0.02079388 -0.00755247 0.12556355
v 0.02254469 -0.00703756 0.12731182
v 0.02330291 -0.00539003 0.12749111
v 0.01757738 -0.01388218 0.12638094
v 0.02009406 -0.01030634 0.12619400
v 0.02218203 -0.01052031 0.12896954
v 0.01914380 -0.01199671 0.12615498
v 0.01983571 -0.01359169 0.12853471
v 0.01871254 -0.01509232 0.12847452
v 0.02228404 -0.01424458 0.13246862
v 0.02283517 -0.01235146 0.13116794
v 0.02277754 -0.00182261 0.12598028
v 0.02396294 -0.00348161 0.12795833
v 0.02582418 -0.00341989 0.13082900
v 0.02398870 -0.00710897 0.12942325
v 0.02577011 -0.00712554 0.13247066
v 0.02327230 -0.00881846 0.12926079
v 0.02396498 -0.01065701 0.13170505
v 0.02703687 -0.00340994 0.13314472
v 0.02799963 -0.00340331 0.13566242
v 0.02658852 -0.00533061 0.13275400
v 0.02708609 -0.00686464 0.13520208
v 0.02646253 -0.00877919 0.13487870
v 0.02883461 -0.00356526 0.13908575
v 0.02822839 -0.00687714 0.13927167
v 0.02594609 -0.01061008 0.13596005
v 0.02350617 -0.01265878 0.13258313
v 0.02383746 -0.01394976 0.13515465
v 0.02281987 -0.01562585 0.13492154
v 0.02513635 -0.01414844 0.13923061
v 0.02651941 -0.01194672 0.14022856
v 0.02690170 -0.00894802 0.13629261
v 0.02721055 -0.00944075 0.13808551
v 0.01583141 -0.01562381 0.12609964
v 0.01727363 -0.01697881 0.12901978
v 0.01574470 -0.01900124 0.12963212
v 0.01642386 -0.01964214 0.13124598
v 0.01895890 -0.01878624 0.13334262
v 0.01927387 -0.01561106 0.12963799
v 0.01991911 -0.01626471 0.13124853
v 0.01763272 -0.02095914 0.13562927
v 0.01936849 -0.01935956 0.13469125
v 0.02121009 -0.01756233 0.13549894
v 0.01975282 -0.01970641 0.13634056
v 0.02007442 -0.01997700 0.13794345
v 0.02224349 -0.01853784 0.14047773
v 0.01866306 -0.02191730 0.14045095
v 0.01587706 -0.02275943 0.13648159
v 0.01632210 -0.02295555 0.13824949
v 0.02320038 -0.01594643 0.13646272
v 0.02349775 -0.01629098 0.13819236
v 0.02943063 -0.00361882 0.14259988
v 0.02878845 -0.00698604 0.14255142
v 0.02945486 -0.00359612 0.14618056
v 0.02879406 -0.00706791 0.14617521
v 0.02574078 -0.01408417 0.14306123
v 0.02666121 -0.01233973 0.14192531
v 0.02744952 -0.01048563 0.14209593
v 0.02781932 -0.01012067 0.14617903
v 0.02687365 -0.01235121 0.14343613
v 0.02673644 -0.01264985 0.14514665
v 0.02534752 -0.01495562 0.14740626
v 0.02915647 -0.00353210 0.14990764
v 0.02856453 -0.00704929 0.14976406
v 0.02848700 -0.00339694 0.15321825
v 0.02784431 -0.00680701 0.15301983
v 0.02634496 -0.01225225 0.15158577
v 0.02522944 -0.01451314 0.15033737
v 0.02486959 -0.01379445 0.15320575
v 0.02573568 -0.01162308 0.15435111
v 0.02776245 -0.00993195 0.14915835
v 0.02677495 -0.01248790 0.14802727
v 0.02725289 -0.00954149 0.15211828
v 0.02051206 -0.02044677 0.14147492
v 0.02243962 -0.01883699 0.14388245
v 0.01887117 -0.02216622 0.14392912
v 0.02072782 -0.02060745 0.14494237
v 0.02243298 -0.01891963 0.14737387
v 0.01885179 -0.02223916 0.14736749
v 0.01665619 -0.02356508 0.14164681
v 0.01668246 -0.02379385 0.14497629
v 0.02060234 -0.02046616 0.14867990
v 0.02212439 -0.01856207 0.15081276
v 0.01847204 -0.02193337 0.15082781
v 0.02026366 -0.02017695 0.15207518
v 0.02165691 -0.01795024 0.15408766
v 0.01803797 -0.02148553 0.15381656
v 0.01661003 -0.02366837 0.14865032
v 0.01617673 -0.02345720 0.15171635
v 0.01568655 -0.02270995 0.15502874
v 0.02388719 -0.01669674 0.14145018
v 0.02413509 -0.01690154 0.14512497
v 0.02396217 -0.01681023 0.14853938
v 0.02359798 -0.01632363 0.15205733
v 0.00459585 -0.02574487 0.15801214
v 0.00217659 -0.02694965 0.15576375
v 0.00342728 -0.02468112 0.16026129
v 0.00538850 -0.02672496 0.15517895
v 0.00756701 -0.02533196 0.15737021
v 0.00653182 -0.02434830 0.15987261
v 0.00446094 -0.01820986 0.16797685
v 0.00229570 -0.02018919 0.16649230
v 0.00450991 -0.02164697 0.16452700
v 0.00735405 -0.01785996 0.16761292
v 0.00568383 -0.01986861 0.16625027
v 0.00743873 -0.02137587 0.16405569
v 0.00237527 -0.02336539 0.16262189
v 0.00873762 -0.02248960 0.16191009
v 0.00532806 -0.02319273 0.16231381
v 0.01046293 -0.02458471 0.15667626
v 0.01156034 -0.02180764 0.16119573
v 0.00948002 -0.02380558 0.15932505
v 0.01323924 -0.02387648 0.15565842
v 0.01513491 -0.02186630 0.15770813
v 0.01238053 -0.02292393 0.15856735
v 0.01407958 -0.02106090 0.16022431
v 0.01002860 -0.02087931 0.16338036
v 0.00872283 -0.01566564 0.16893859
v 0.01138080 -0.01507880 0.16817170
v 0.01000591 -0.01715504 0.16714340
v 0.01184012 -0.01863348 0.16490827
v 0.00886539 -0.01936007 0.16568690
v 0.01552741 -0.01896655 0.16175477
v 0.01284623 -0.01993645 0.16274915
v 0.01423158 -0.01779773 0.16408834
v 0.01555011 -0.01551823 0.16526966
v 0.01275391 -0.01642870 0.16636350
v 0.01399490 -0.01410355 0.16734462
v 0.00338367 -0.00337373 0.17469396
v 0.00308324 -0.00664786 0.17409463
v 0.00682894 -0.00340969 0.17406402
v 0.00636095 -0.00639206 0.17370442
v 0.00442830 -0.01160038 0.17223287
v 0.00342550 -0.01392222 0.17109287
v 0.00225463 -0.00933185 0.17341623
v 0.00764479 -0.01123670 0.17169220
v 0.00660017 -0.01364500 0.17077407
v 0.00869222 -0.00876746 0.17246240
v 0.00524109 -0.00886463 0.17326576
v 0.01183297 -0.00475729 0.17230173
v 0.00948895 -0.00225744 0.17350295
v 0.01119666 -0.00773916 0.17179931
v 0.00898296 -0.00543237 0.17323771
v 0.01412268 -0.00351961 0.17127394
v 0.01374803 -0.00671417 0.17083018
v 0.01040248 -0.01052592 0.17105461
v 0.00939000 -0.01319716 0.17017729
v 0.01575337 -0.00883683 0.16904953
v 0.01503213 -0.01170393 0.16811100
v 0.01317267 -0.00967972 0.17017984
v 0.01239941 -0.01246240 0.16929105
v 0.00230972 -0.01627721 0.16980902
v 0.00542982 -0.01602575 0.16956750
v 0.02209506 -0.00453822 0.16486645
v 0.02048554 -0.00227682 0.16685751
v 0.01852458 -0.00465681 0.16829335
v 0.02148425 -0.00778149 0.16439540
v 0.02012288 -0.00576162 0.16654509
v 0.01800099 -0.00772539 0.16781644
v 0.01735091 -0.01027777 0.16720588
v 0.01875105 -0.01202043 0.16507303
v 0.01785077 -0.01441163 0.16414037
v 0.01648659 -0.01283450 0.16643160
v 0.02200708 -0.01190642 0.16146046
v 0.02121749 -0.01424458 0.16039977
v 0.02019276 -0.01283322 0.16289580
v 0.02087217 -0.01042722 0.16373180
v 0.01903363 -0.01552001 0.16192105
v 0.01961179 -0.00892175 0.16594678
v 0.02643091 -0.00462926 0.15826819
v 0.02537889 -0.00342065 0.16052703
v 0.02566198 -0.00797022 0.15794073
v 0.02478466 -0.00685342 0.16025058
v 0.02776245 -0.00226025 0.15595579
v 0.02722560 -0.00583226 0.15576757
v 0.02415625 -0.01331702 0.15611697
v 0.02491167 -0.01092327 0.15721821
v 0.02410678 -0.00988859 0.15964028
v 0.02328378 -0.01246393 0.15894480
v 0.02211266 -0.01500025 0.15814271
v 0.02666376 -0.00884907 0.15520573
v 0.02396855 -0.00220235 0.16294808
v 0.02356151 -0.00568791 0.16263209
v 0.02297340 -0.00876542 0.16218093
v 0.01727363 -0.02099051 0.15642684
v 0.01878369 -0.01874569 0.15824090
v 0.01654882 -0.02003005 0.15911797
v 0.01784848 -0.01785179 0.16061987
v 0.01959827 -0.01954905 0.15531565
v 0.02100479 -0.01728230 0.15667856
v 0.02016292 -0.01649833 0.15926257
v 0.01672505 -0.01668960 0.16307202
v 0.02295555 -0.01579137 0.15514605
v 0.01658810 -0.00226407 0.16996561
v 0.01627007 -0.00560936 0.16965983
f 1 3 2
f 1 4 3
f 1 5 4
f 1 6 5
f 1 7 6
f 1 2 7
f 4 8 3
f 4 9 8
f 4 10 9
f 4 5 10
f 11 13 12
f 11 14 13
f 11 15 14
f 11 9 15
f 11 8 9
f 11 12 8
f 14 16 13
f 14 17 16
f 14 18 17
f 14 15 18
f 9 19 15
f 9 10 19
f 15 20 18
f 15 19 20
f 21 7 22
f 21 6 7
f 21 23 6
f 21 24 23
f 21 25 24
f 21 22 25
f 24 26 23
f 24 27 26
f 24 28 27
f 24 25 28
f 29 28 30
f 29 27 28
f 29 31 27
f 29 32 31
f 29 33 32
f 29 30 33
f 27 34 26
f 27 31 34
f 32 35 31
f 32 36 35
f 32 37 36
f 32 33 37
f 31 38 34
f 31 35 38
f 39 41 40
f 39 40 42
f 43 42 45
f 43 46 44
f 43 45 46
f 40 10 5
f 40 41 10
f 40 49 42
f 40 5 49
f 6 49 5
f 6 23 49
f 45 49 23
f 45 42 49
f 45 26 46
f 45 23 26
f 41 19 10
f 41 47 19
f 47 20 19
f 47 48 20
f 44 51 50
f 44 46 51
f 50 53 52
f 50 51 53
f 46 34 51
f 46 26 34
f 51 38 53
f 51 34 38
f 54 56 55
f 54 57 56
f 54 58 57
f 54 59 58
f 54 60 59
f 54 55 60
f 55 62 61
f 55 56 62
f 55 63 60
f 55 61 63
f 64 58 59
f 64 65 58
f 64 66 65
f 64 67 66
f 64 68 67
f 64 59 68
f 69 66 67
f 69 2 66
f 69 7 2
f 69 22 7
f 69 70 22
f 69 67 70
f 71 68 72
f 71 67 68
f 71 70 67
f 71 73 70
f 71 74 73
f 71 72 74
f 75 77 76
f 75 78 77
f 75 79 78
f 75 80 79
f 75 81 80
f 75 76 81
f 82 60 83
f 82 59 60
f 82 68 59
f 82 72 68
f 82 78 72
f 82 83 78
f 83 63 84
f 83 60 63
f 83 77 78
f 83 84 77
f 72 79 74
f 72 78 79
f 85 86 57
f 85 87 86
f 85 88 87
f 85 65 88
f 85 58 65
f 85 57 58
f 87 89 86
f 87 90 89
f 87 91 90
f 87 88 91
f 92 94 93
f 92 16 94
f 95 93 96
f 95 92 93
f 95 16 92
f 95 13 16
f 95 97 13
f 95 96 97
f 90 98 89
f 90 96 98
f 90 97 96
f 90 91 97
f 96 99 98
f 96 93 99
f 100 102 101
f 100 103 102
f 100 104 103
f 100 105 104
f 100 106 105
f 100 101 106
f 57 105 56
f 57 86 105
f 86 104 105
f 86 89 104
f 56 106 62
f 56 105 106
f 107 108 103
f 107 109 108
f 107 98 109
f 107 89 98
f 107 104 89
f 107 103 104
f 109 110 108
f 109 111 110
f 109 99 111
f 109 98 99
f 103 112 102
f 103 108 112
f 108 113 112
f 108 110 113
f 114 88 65
f 114 115 88
f 114 3 115
f 114 2 3
f 114 66 2
f 114 65 66
f 115 91 88
f 115 12 91
f 115 8 12
f 115 3 8
f 12 97 91
f 12 13 97
f 61 117 116
f 61 62 117
f 61 118 63
f 61 116 118
f 116 120 119
f 116 117 120
f 116 121 118
f 116 119 121
f 119 123 122
f 119 120 123
f 119 124 121
f 119 122 124
f 122 126 125
f 122 123 126
f 122 127 124
f 122 125 127
f 76 129 128
f 76 77 129
f 76 130 81
f 76 128 130
f 128 132 131
f 128 129 132
f 128 133 130
f 128 131 133
f 84 118 134
f 84 63 118
f 84 129 77
f 84 134 129
f 134 121 135
f 134 118 121
f 134 132 129
f 134 135 132
f 131 137 136
f 131 132 137
f 131 138 133
f 131 136 138
f 136 140 139
f 136 137 140
f 136 141 138
f 136 139 141
f 135 124 142
f 135 121 124
f 135 137 132
f 135 142 137
f 142 127 143
f 142 124 127
f 142 140 137
f 142 143 140
f 144 146 145
f 144 101 146
f 144 106 101
f 144 62 106
f 144 117 62
f 144 145 117
f 101 147 146
f 101 102 147
f 145 149 148
f 145 146 149
f 145 120 117
f 145 148 120
f 146 150 149
f 146 147 150
f 102 151 147
f 102 112 151
f 112 152 151
f 112 113 152
f 147 153 150
f 147 151 153
f 151 154 153
f 151 152 154
f 155 156 123
f 155 157 156
f 148 157 155
f 148 149 157
f 148 123 120
f 148 155 123
f 149 158 157
f 149 150 158
f 157 160 159
f 157 158 160
f 157 161 156
f 157 159 161
f 123 161 126
f 123 156 161
f 150 162 158
f 150 153 162
f 153 163 162
f 153 154 163
f 158 164 160
f 158 162 164
f 162 165 164
f 162 163 165
f 166 74 167
f 166 73 74
f 166 168 73
f 166 169 168
f 166 170 169
f 166 167 170
f 169 171 168
f 169 172 171
f 169 173 172
f 169 170 173
f 174 70 73
f 174 22 70
f 174 25 22
f 174 175 25
f 174 168 175
f 174 73 168
f 175 28 25
f 175 30 28
f 175 171 30
f 175 168 171
f 167 79 80
f 167 74 79
f 167 176 170
f 167 80 176
f 80 177 176
f 80 81 177
f 170 178 173
f 170 176 178
f 179 177 180
f 179 176 177
f 179 178 176
f 179 181 178
f 179 182 181
f 179 180 182
f 172 183 171
f 172 184 183
f 172 185 184
f 172 173 185
f 186 183 184
f 186 33 183
f 186 37 33
f 186 187 37
f 186 188 187
f 186 184 188
f 184 189 188
f 184 185 189
f 30 183 33
f 30 171 183
f 190 178 181
f 190 173 178
f 190 185 173
f 190 191 185
f 190 192 191
f 190 181 192
f 181 193 192
f 181 182 193
f 191 189 185
f 191 194 189
f 191 195 194
f 191 192 195
f 192 196 195
f 192 193 196
f 81 197 177
f 81 130 197
f 130 198 197
f 130 133 198
f 180 197 199
f 180 177 197
f 180 200 182
f 180 199 200
f 199 198 201
f 199 197 198
f 199 202 200
f 199 201 202
f 133 203 198
f 133 138 203
f 138 204 203
f 138 141 204
f 201 203 205
f 201 198 203
f 201 206 202
f 201 205 206
f 207 209 208
f 207 204 209
f 205 204 207
f 205 203 204
f 205 208 206
f 205 207 208
f 182 210 193
f 182 200 210
f 200 211 210
f 200 202 211
f 193 212 196
f 193 210 212
f 210 213 212
f 210 211 213
f 202 214 211
f 202 206 214
f 206 215 214
f 206 208 215
f 211 216 213
f 211 214 216
f 214 217 216
f 214 215 217
f 218 220 219
f 218 221 220
f 125 221 218
f 125 126 221
f 125 219 127
f 125 218 219
f 222 224 223
f 222 225 224
f 139 225 222
f 139 140 225
f 139 223 141
f 139 222 223
f 226 227 225
f 226 219 227
f 143 219 226
f 143 127 219
f 143 225 140
f 143 226 225
f 228 230 229
f 228 231 230
f 219 231 228
f 219 220 231
f 219 229 227
f 219 228 229
f 232 234 233
f 232 229 234
f 225 229 232
f 225 227 229
f 225 233 224
f 225 232 233
f 235 237 236
f 235 238 237
f 229 238 235
f 229 230 238
f 229 236 234
f 229 235 236
f 239 241 240
f 239 242 241
f 159 242 239
f 159 160 242
f 159 240 161
f 159 239 240
f 126 240 221
f 126 161 240
f 243 244 231
f 243 245 244
f 221 245 243
f 221 240 245
f 221 231 220
f 221 243 231
f 240 246 245
f 240 241 246
f 242 247 241
f 242 248 247
f 160 248 242
f 160 164 248
f 164 249 248
f 164 165 249
f 250 252 251
f 250 253 252
f 249 252 253
f 249 254 252
f 248 253 250
f 248 249 253
f 248 251 247
f 248 250 251
f 241 251 246
f 241 247 251
f 255 257 256
f 255 258 257
f 245 258 255
f 245 246 258
f 245 256 244
f 245 255 256
f 258 259 257
f 258 260 259
f 246 260 258
f 246 251 260
f 260 261 259
f 260 262 261
f 251 262 260
f 251 252 262
f 263 264 238
f 263 256 264
f 231 256 263
f 231 244 256
f 231 238 230
f 231 263 238
f 265 267 266
f 265 268 267
f 256 268 265
f 256 257 268
f 256 266 264
f 256 265 266
f 269 271 270
f 269 266 271
f 238 266 269
f 238 264 266
f 238 270 237
f 238 269 270
f 266 272 271
f 266 267 272
f 268 273 267
f 268 274 273
f 257 274 268
f 257 259 274
f 274 275 273
f 274 276 275
f 259 276 274
f 259 261 276
f 277 279 278
f 277 280 279
f 267 280 277
f 267 273 280
f 267 278 272
f 267 277 278
f 280 281 279
f 280 282 281
f 273 282 280
f 273 275 282
f 141 283 204
f 141 223 283
f 284 286 285
f 284 233 286
f 223 233 284
f 223 224 233
f 223 285 283
f 223 284 285
f 204 287 209
f 204 283 287
f 285 289 288
f 285 286 289
f 283 288 287
f 283 285 288
f 290 292 291
f 290 236 292
f 233 236 290
f 233 234 236
f 233 291 286
f 233 290 291
f 293 295 294
f 293 270 295
f 236 270 293
f 236 237 270
f 236 294 292
f 236 293 294
f 286 296 289
f 286 291 296
f 297 299 298
f 297 294 299
f 291 294 297
f 291 292 294
f 291 298 296
f 291 297 298
f 294 300 299
f 294 295 300
f 301 303 302
f 301 287 303
f 208 287 301
f 208 209 287
f 208 302 215
f 208 301 302
f 287 304 303
f 287 288 304
f 302 306 305
f 302 303 306
f 215 305 217
f 215 302 305
f 303 307 306
f 303 304 307
f 308 310 309
f 308 296 310
f 288 296 308
f 288 289 296
f 288 309 304
f 288 308 309
f 309 312 311
f 309 310 312
f 304 311 307
f 304 309 311
f 298 314 313
f 298 299 314
f 296 313 310
f 296 298 313
f 313 316 315
f 313 314 316
f 310 315 312
f 310 313 315
f 317 319 318
f 317 320 319
f 299 320 317
f 299 300 320
f 299 318 314
f 299 317 318
f 318 322 321
f 318 319 322
f 314 321 316
f 314 318 321
f 323 325 324
f 323 326 325
f 270 326 323
f 270 271 326
f 270 324 295
f 270 323 324
f 326 327 325
f 326 278 327
f 271 278 326
f 271 272 278
f 324 328 320
f 324 325 328
f 295 320 300
f 295 324 320
f 325 329 328
f 325 327 329
f 278 330 327
f 278 279 330
f 279 331 330
f 279 281 331
f 332 334 333
f 332 335 334
f 327 335 332
f 327 330 335
f 327 333 329
f 327 332 333
f 335 336 334
f 335 337 336
f 330 337 335
f 330 331 337
f 320 338 319
f 320 328 338
f 339 341 340
f 339 333 341
f 328 333 339
f 328 329 333
f 328 340 338
f 328 339 340
f 319 342 322
f 319 338 342
f 340 344 343
f 340 341 344
f 338 343 342
f 338 340 343
f 333 345 341
f 333 334 345
f 334 346 345
f 334 336 346
f 341 347 344
f 341 345 347
f 345 348 347
f 345 346 348
f 349 351 350
f 349 352 351
f 17 350 16
f 17 349 350
f 17 352 349
f 17 18 352
f 18 353 352
f 18 20 353
f 352 354 351
f 352 355 354
f 352 356 355
f 352 353 356
f 357 359 358
f 357 360 359
f 355 358 354
f 355 357 358
f 355 360 357
f 355 356 360
f 48 353 20
f 48 361 353
f 361 356 353
f 356 362 360
f 363 365 364
f 363 366 365
f 360 364 359
f 360 363 364
f 360 366 363
f 360 362 366
f 362 367 366
f 370 372 371
f 370 373 372
f 366 371 365
f 366 370 371
f 366 373 370
f 366 367 373
f 373 374 372
f 373 375 374
f 367 375 373
f 367 368 375
f 375 376 374
f 375 377 376
f 368 377 375
f 368 369 377
f 93 378 99
f 93 379 378
f 93 380 379
f 93 94 380
f 379 381 378
f 379 382 381
f 379 383 382
f 379 380 383
f 384 386 385
f 384 387 386
f 382 385 381
f 382 384 385
f 382 387 384
f 382 383 387
f 111 388 110
f 111 389 388
f 111 378 389
f 111 99 378
f 390 392 391
f 390 381 392
f 389 391 388
f 389 390 391
f 389 381 390
f 389 378 381
f 110 393 113
f 110 388 393
f 388 394 393
f 388 391 394
f 395 397 396
f 395 398 397
f 391 396 394
f 391 395 396
f 391 398 395
f 391 392 398
f 381 398 392
f 381 385 398
f 399 401 400
f 399 402 401
f 385 400 398
f 385 399 400
f 385 402 399
f 385 386 402
f 398 403 397
f 398 400 403
f 16 380 94
f 16 350 380
f 350 383 380
f 350 404 383
f 350 354 404
f 350 351 354
f 404 387 383
f 404 405 387
f 404 358 405
f 404 354 358
f 406 408 407
f 406 409 408
f 405 407 387
f 405 406 407
f 405 409 406
f 405 358 409
f 387 402 386
f 387 407 402
f 358 364 409
f 358 359 364
f 410 412 411
f 410 413 412
f 400 411 403
f 400 410 411
f 400 413 410
f 400 401 413
f 414 416 415
f 414 417 416
f 407 415 402
f 407 414 415
f 407 417 414
f 407 408 417
f 418 419 417
f 418 420 419
f 409 417 408
f 409 418 417
f 409 420 418
f 409 364 420
f 421 423 422
f 421 424 423
f 417 422 416
f 417 421 422
f 417 424 421
f 417 419 424
f 415 425 413
f 415 416 425
f 402 413 401
f 402 415 413
f 426 428 427
f 426 429 428
f 413 427 412
f 413 426 427
f 413 429 426
f 413 425 429
f 422 430 429
f 422 423 430
f 416 429 425
f 416 422 429
f 431 433 432
f 431 434 433
f 429 432 428
f 429 431 432
f 429 434 431
f 429 430 434
f 113 435 152
f 113 393 435
f 393 436 435
f 393 394 436
f 152 437 154
f 152 435 437
f 435 438 437
f 435 436 438
f 396 440 439
f 396 397 440
f 394 439 436
f 394 396 439
f 439 442 441
f 439 440 442
f 436 441 438
f 436 439 441
f 397 443 440
f 397 403 443
f 440 444 442
f 440 443 444
f 154 445 163
f 154 437 445
f 437 446 445
f 437 438 446
f 163 447 165
f 163 445 447
f 445 448 447
f 445 446 448
f 441 450 449
f 441 442 450
f 438 449 446
f 438 441 449
f 448 452 451
f 448 453 452
f 449 452 453
f 449 450 452
f 446 453 448
f 446 449 453
f 442 454 450
f 442 444 454
f 450 455 452
f 450 454 455
f 411 457 456
f 411 412 457
f 403 456 443
f 403 411 456
f 456 459 458
f 456 457 459
f 443 458 444
f 443 456 458
f 458 461 460
f 458 459 461
f 444 460 454
f 444 458 460
f 455 463 462
f 455 464 463
f 460 463 464
f 460 461 463
f 454 464 455
f 454 460 464
f 427 466 465
f 427 428 466
f 412 465 457
f 412 427 465
f 465 468 467
f 465 466 468
f 457 467 459
f 457 465 467
f 432 470 469
f 432 433 470
f 428 469 466
f 428 432 469
f 469 472 471
f 469 470 472
f 466 471 468
f 466 469 471
f 467 474 473
f 467 468 474
f 459 473 461
f 459 467 473
f 473 476 475
f 473 474 476
f 461 475 463
f 461 473 475
f 471 478 477
f 471 472 478
f 468 477 474
f 468 471 477
f 476 480 479
f 476 481 480
f 477 480 481
f 477 478 480
f 474 481 476
f 474 477 481
f 420 482 419
f 420 371 482
f 364 371 420
f 364 365 371
f 424 483 423
f 424 484 483
f 419 484 424
f 419 482 484
f 485 486 484
f 485 487 486
f 371 484 482
f 371 485 484
f 371 487 485
f 371 372 487
f 488 490 489
f 488 491 490
f 484 489 483
f 484 488 489
f 484 491 488
f 484 486 491
f 492 493 434
f 492 489 493
f 423 434 430
f 423 492 434
f 423 489 492
f 423 483 489
f 434 494 433
f 434 493 494
f 489 495 493
f 489 490 495
f 493 496 494
f 493 495 496
f 487 497 486
f 487 498 497
f 372 498 487
f 372 374 498
f 498 499 497
f 498 500 499
f 374 500 498
f 374 376 500
f 491 501 490
f 491 502 501
f 486 502 491
f 486 497 502
f 502 503 501
f 502 504 503
f 497 504 502
f 497 499 504
f 490 505 495
f 490 501 505
f 506 508 507
f 506 509 508
f 495 507 496
f 495 506 507
f 495 509 506
f 495 505 509
f 501 510 505
f 501 503 510
f 509 511 508
f 509 512 511
f 505 512 509
f 505 510 512
f 433 513 470
f 433 494 513
f 470 514 472
f 470 513 514
f 515 517 516
f 515 507 517
f 494 516 513
f 494 515 516
f 494 507 515
f 494 496 507
f 516 519 518
f 516 517 519
f 513 518 514
f 513 516 518
f 472 520 478
f 472 514 520
f 478 521 480
f 478 520 521
f 518 523 522
f 518 519 523
f 514 522 520
f 514 518 522
f 521 525 524
f 521 526 525
f 522 525 526
f 522 523 525
f 520 526 521
f 520 522 526
f 507 527 517
f 507 508 527
f 517 528 519
f 517 527 528
f 508 529 527
f 508 511 529
f 527 530 528
f 527 529 530
f 519 531 523
f 519 528 531
f 523 532 525
f 523 531 532
f 528 533 531
f 528 530 533
f 531 534 532
f 531 533 534
f 249 535 254
f 249 536 535
f 165 536 249
f 165 447 536
f 536 537 535
f 536 538 537
f 448 537 538
f 448 451 537
f 447 538 536
f 447 448 538
f 254 539 252
f 254 535 539
f 535 540 539
f 535 537 540
f 451 541 537
f 451 452 541
f 455 543 542
f 455 462 543
f 452 542 541
f 452 455 542
f 537 544 540
f 537 541 544
f 544 546 545
f 544 547 546
f 542 546 547
f 542 543 546
f 541 547 544
f 541 542 547
f 262 548 261
f 262 549 548
f 252 549 262
f 252 539 549
f 549 550 548
f 549 551 550
f 539 551 549
f 539 540 551
f 551 552 550
f 551 553 552
f 544 552 553
f 544 545 552
f 540 553 551
f 540 544 553
f 276 554 275
f 276 555 554
f 261 555 276
f 261 548 555
f 555 556 554
f 555 557 556
f 548 557 555
f 548 550 557
f 552 559 558
f 552 560 559
f 546 559 560
f 546 561 559
f 545 560 552
f 545 546 560
f 557 562 556
f 557 563 562
f 552 562 563
f 552 558 562
f 550 563 557
f 550 552 563
f 556 565 564
f 556 562 565
f 562 566 565
f 562 567 566
f 559 566 567
f 559 568 566
f 558 567 562
f 558 559 567
f 462 569 543
f 462 463 569
f 569 571 570
f 569 572 571
f 475 571 572
f 475 476 571
f 463 572 569
f 463 475 572
f 546 573 561
f 546 574 573
f 569 573 574
f 569 570 573
f 543 574 546
f 543 569 574
f 476 575 571
f 476 479 575
f 573 577 576
f 573 578 577
f 571 577 578
f 571 575 577
f 570 578 573
f 570 571 578
f 559 579 568
f 559 580 579
f 573 579 580
f 573 576 579
f 561 580 559
f 561 573 580
f 282 581 281
f 282 582 581
f 275 582 282
f 275 554 582
f 582 583 581
f 582 584 583
f 556 583 584
f 556 564 583
f 554 584 582
f 554 556 584
f 480 586 585
f 480 521 586
f 479 585 575
f 479 480 585
f 577 588 587
f 577 589 588
f 585 588 589
f 585 586 588
f 575 589 577
f 575 585 589
f 521 590 586
f 521 524 590
f 587 592 591
f 587 588 592
f 586 592 588
f 586 590 592
f 579 594 593
f 579 595 594
f 577 594 595
f 577 587 594
f 576 595 579
f 576 577 595
f 566 597 596
f 566 598 597
f 579 597 598
f 579 593 597
f 568 598 566
f 568 579 598
f 593 600 599
f 593 594 600
f 587 600 594
f 587 591 600
f 596 602 601
f 596 597 602
f 593 602 597
f 593 599 602
f 590 604 603
f 590 605 604
f 525 604 605
f 525 532 604
f 524 605 590
f 524 525 605
f 590 606 592
f 590 603 606
f 603 608 607
f 603 604 608
f 532 608 604
f 532 534 608
f 603 609 606
f 603 607 609
f 602 611 610
f 602 612 611
f 600 611 612
f 600 613 611
f 599 612 602
f 599 600 612
f 610 615 614
f 610 611 615
f 613 615 611
f 613 616 615
f 600 617 613
f 600 618 617
f 592 617 618
f 592 606 617
f 591 618 600
f 591 592 618
f 613 619 616
f 613 617 619
f 606 619 617
f 606 609 619
f 281 620 331
f 281 581 620
f 581 621 620
f 581 583 621
f 337 622 336
f 337 623 622
f 331 623 337
f 331 620 623
f 623 624 622
f 623 625 624
f 621 624 625
f 621 626 624
f 620 625 623
f 620 621 625
f 583 627 621
f 583 628 627
f 564 628 583
f 564 565 628
f 628 629 627
f 628 630 629
f 566 629 630
f 566 596 629
f 565 630 628
f 565 566 630
f 621 631 626
f 621 627 631
f 627 632 631
f 627 629 632
f 596 632 629
f 596 601 632
f 336 633 346
f 336 622 633
f 622 634 633
f 622 624 634
f 346 635 348
f 346 633 635
f 633 636 635
f 633 634 636
f 631 638 637
f 631 632 638
f 624 639 634
f 624 640 639
f 631 639 640
f 631 637 639
f 626 640 624
f 626 631 640
f 637 642 641
f 637 638 642
f 634 643 636
f 634 639 643
f 637 643 639
f 637 641 643
f 632 644 638
f 632 645 644
f 602 644 645
f 602 610 644
f 601 645 632
f 601 602 645
f 638 646 642
f 638 644 646
f 610 646 644
f 610 614 646
f 36 647 35
f 36 648 647
f 36 649 648
f 36 37 649
f 35 650 38
f 35 647 650
f 651 653 652
f 651 654 653
f 648 652 647
f 648 651 652
f 648 654 651
f 648 649 654
f 647 655 650
f 647 652 655
f 652 656 655
f 652 657 656
f 652 658 657
f 652 653 658
f 659 661 660
f 659 662 661
f 657 660 656
f 657 659 660
f 657 662 659
f 657 658 662
f 52 53 663
f 53 650 663
f 53 38 650
f 663 650 655
f 665 668 664
f 665 669 668
f 656 660 669
f 664 670 666
f 664 668 670
f 666 671 667
f 666 670 671
f 672 674 673
f 672 675 674
f 660 673 669
f 660 672 673
f 660 675 672
f 660 661 675
f 673 677 676
f 673 674 677
f 669 676 668
f 669 673 676
f 668 678 670
f 668 676 678
f 670 679 671
f 670 678 679
f 680 682 681
f 680 683 682
f 676 681 678
f 676 680 681
f 676 683 680
f 676 677 683
f 681 685 684
f 681 682 685
f 678 684 679
f 678 681 684
f 686 687 649
f 686 688 687
f 187 649 37
f 187 686 649
f 187 688 686
f 187 188 688
f 188 689 688
f 188 189 689
f 688 690 687
f 688 691 690
f 688 692 691
f 688 689 692
f 649 690 654
f 649 687 690
f 693 694 689
f 693 695 694
f 194 689 189
f 194 693 689
f 194 695 693
f 194 195 695
f 195 696 695
f 195 196 696
f 689 697 692
f 689 694 697
f 695 697 694
f 695 698 697
f 695 699 698
f 695 696 699
f 700 702 701
f 700 703 702
f 691 701 690
f 691 700 701
f 691 703 700
f 691 692 703
f 654 658 653
f 654 704 658
f 654 701 704
f 654 690 701
f 705 706 662
f 705 707 706
f 704 662 658
f 704 705 662
f 704 707 705
f 704 701 707
f 701 708 707
f 701 702 708
f 692 709 703
f 692 697 709
f 710 711 709
f 710 712 711
f 698 709 697
f 698 710 709
f 698 712 710
f 698 699 712
f 713 714 708
f 713 715 714
f 703 708 702
f 703 713 708
f 703 715 713
f 703 709 715
f 709 716 715
f 709 711 716
f 196 717 696
f 196 212 717
f 212 718 717
f 212 213 718
f 696 719 699
f 696 717 719
f 717 720 719
f 717 718 720
f 213 721 718
f 213 216 721
f 216 722 721
f 216 217 722
f 718 723 720
f 718 721 723
f 722 725 724
f 722 726 725
f 721 724 723
f 721 722 724
f 712 727 711
f 712 728 727
f 699 728 712
f 699 719 728
f 728 729 727
f 728 730 729
f 719 730 728
f 719 720 730
f 711 731 716
f 711 727 731
f 727 732 731
f 727 729 732
f 730 733 729
f 730 734 733
f 720 734 730
f 720 723 734
f 734 735 733
f 734 736 735
f 724 735 736
f 724 725 735
f 723 736 734
f 723 724 736
f 729 737 732
f 729 733 737
f 733 738 737
f 733 735 738
f 739 740 675
f 739 741 740
f 662 675 661
f 662 739 675
f 662 741 739
f 662 706 741
f 742 743 741
f 742 744 743
f 707 741 706
f 707 742 741
f 707 744 742
f 707 708 744
f 745 747 746
f 745 748 747
f 741 746 740
f 741 745 746
f 741 748 745
f 741 743 748
f 749 751 750
f 749 752 751
f 715 750 714
f 715 749 750
f 715 752 749
f 715 716 752
f 708 750 744
f 708 714 750
f 753 754 748
f 753 755 754
f 744 748 743
f 744 753 748
f 744 755 753
f 744 750 755
f 748 756 747
f 748 754 756
f 755 757 754
f 755 758 757
f 750 758 755
f 750 751 758
f 759 761 760
f 759 762 761
f 754 760 756
f 754 759 760
f 754 762 759
f 754 757 762
f 763 765 764
f 763 746 765
f 675 764 674
f 675 763 764
f 675 746 763
f 675 740 746
f 764 766 683
f 764 765 766
f 674 683 677
f 674 764 683
f 767 769 768
f 767 770 769
f 746 768 765
f 746 767 768
f 746 770 767
f 746 747 770
f 768 772 771
f 768 769 772
f 765 771 766
f 765 768 771
f 773 775 774
f 773 771 775
f 683 774 682
f 683 773 774
f 683 771 773
f 683 766 771
f 774 777 776
f 774 775 777
f 682 776 685
f 682 774 776
f 771 778 775
f 771 772 778
f 775 779 777
f 775 778 779
f 770 780 769
f 770 760 780
f 747 760 770
f 747 756 760
f 769 781 772
f 769 780 781
f 760 782 780
f 760 761 782
f 783 785 784
f 783 786 785
f 780 784 781
f 780 783 784
f 780 786 783
f 780 782 786
f 787 789 788
f 787 784 789
f 772 788 778
f 772 787 788
f 772 784 787
f 772 781 784
f 788 791 790
f 788 789 791
f 778 790 779
f 778 788 790
f 784 792 789
f 784 785 792
f 789 793 791
f 789 792 793
f 752 794 751
f 752 795 794
f 716 795 752
f 716 731 795
f 795 796 794
f 795 797 796
f 731 797 795
f 731 732 797
f 758 798 757
f 758 799 798
f 751 799 758
f 751 794 799
f 799 800 798
f 799 801 800
f 794 801 799
f 794 796 801
f 797 802 796
f 797 803 802
f 732 803 797
f 732 737 803
f 803 804 802
f 803 805 804
f 738 804 805
f 738 806 804
f 737 805 803
f 737 738 805
f 801 807 800
f 801 808 807
f 796 808 801
f 796 802 808
f 808 809 807
f 808 810 809
f 802 810 808
f 802 804 810
f 762 811 761
f 762 812 811
f 757 812 762
f 757 798 812
f 812 813 811
f 812 814 813
f 798 814 812
f 798 800 814
f 814 815 813
f 814 816 815
f 800 816 814
f 800 807 816
f 816 817 815
f 816 818 817
f 807 818 816
f 807 809 818
f 819 820 786
f 819 821 820
f 761 786 782
f 761 819 786
f 761 821 819
f 761 811 821
f 786 822 785
f 786 820 822
f 821 823 820
f 821 824 823
f 811 824 821
f 811 813 824
f 820 825 822
f 820 823 825
f 785 826 792
f 785 822 826
f 792 827 793
f 792 826 827
f 822 828 826
f 822 825 828
f 826 829 827
f 826 828 829
f 815 831 830
f 815 817 831
f 824 832 823
f 824 833 832
f 815 832 833
f 815 830 832
f 813 833 824
f 813 815 833
f 823 834 825
f 823 832 834
f 832 835 834
f 832 836 835
f 830 836 832
f 830 831 836
f 825 837 828
f 825 834 837
f 828 838 829
f 828 837 838
f 834 839 837
f 834 835 839
f 837 840 838
f 837 839 840
f 722 841 726
f 722 842 841
f 305 841 842
f 305 306 841
f 217 842 722
f 217 305 842
f 306 843 841
f 306 307 843
f 726 844 725
f 726 841 844
f 841 845 844
f 841 843 845
f 311 847 846
f 311 312 847
f 307 846 843
f 307 311 846
f 845 849 848
f 845 850 849
f 846 849 850
f 846 847 849
f 843 850 845
f 843 846 850
f 315 852 851
f 315 316 852
f 312 851 847
f 312 315 851
f 849 854 853
f 849 855 854
f 851 854 855
f 851 852 854
f 847 855 849
f 847 851 855
f 725 856 735
f 725 844 856
f 856 858 857
f 856 859 858
f 845 858 859
f 845 848 858
f 844 859 856
f 844 845 859
f 738 860 806
f 738 861 860
f 856 860 861
f 856 857 860
f 735 861 738
f 735 856 861
f 857 862 860
f 857 858 862
f 849 864 863
f 849 853 864
f 848 863 858
f 848 849 863
f 854 866 865
f 854 867 866
f 853 865 864
f 853 854 865
f 862 869 868
f 862 870 869
f 863 869 870
f 863 864 869
f 858 870 862
f 858 863 870
f 869 872 871
f 869 873 872
f 865 872 873
f 865 866 872
f 864 873 869
f 864 865 873
f 321 875 874
f 321 322 875
f 316 874 852
f 316 321 874
f 854 876 867
f 854 877 876
f 874 876 877
f 874 875 876
f 852 877 854
f 852 874 877
f 322 878 875
f 322 342 878
f 343 880 879
f 343 344 880
f 342 879 878
f 342 343 879
f 875 881 876
f 875 878 881
f 881 883 882
f 881 884 883
f 879 883 884
f 879 880 883
f 878 884 881
f 878 879 884
f 344 885 880
f 344 347 885
f 347 886 885
f 347 348 886
f 880 887 883
f 880 885 887
f 885 888 887
f 885 886 888
f 876 890 889
f 876 881 890
f 867 889 866
f 867 876 889
f 881 891 890
f 881 882 891
f 872 893 892
f 872 894 893
f 889 893 894
f 889 890 893
f 866 894 872
f 866 889 894
f 892 896 895
f 892 893 896
f 890 896 893
f 890 891 896
f 891 898 897
f 891 899 898
f 883 898 899
f 883 887 898
f 882 899 891
f 882 883 899
f 897 901 900
f 897 898 901
f 887 901 898
f 887 888 901
f 891 902 896
f 891 897 902
f 897 903 902
f 897 900 903
f 806 904 804
f 806 860 904
f 904 906 905
f 904 907 906
f 862 906 907
f 862 868 906
f 860 907 904
f 860 862 907
f 810 908 809
f 810 909 908
f 904 908 909
f 904 905 908
f 804 909 810
f 804 904 909
f 908 911 910
f 908 912 911
f 906 911 912
f 906 913 911
f 905 912 908
f 905 906 912
f 906 914 913
f 906 915 914
f 869 914 915
f 869 871 914
f 868 915 906
f 868 869 915
f 818 916 817
f 818 917 916
f 908 916 917
f 908 910 916
f 809 917 818
f 809 908 917
f 914 919 918
f 914 920 919
f 872 919 920
f 872 892 919
f 871 920 914
f 871 872 920
f 892 921 919
f 892 895 921
f 911 923 922
f 911 924 923
f 914 923 924
f 914 918 923
f 913 924 911
f 913 914 924
f 923 926 925
f 923 927 926
f 919 926 927
f 919 921 926
f 918 927 923
f 918 919 927
f 925 929 928
f 925 926 929
f 921 929 926
f 921 930 929
f 928 932 931
f 928 929 932
f 930 932 929
f 930 933 932
f 817 934 831
f 817 916 934
f 916 935 934
f 916 936 935
f 911 935 936
f 911 922 935
f 910 936 916
f 910 911 936
f 934 938 937
f 934 935 938
f 836 939 835
f 836 940 939
f 934 939 940
f 934 937 939
f 831 940 836
f 831 934 940
f 937 942 941
f 937 938 942
f 941 944 943
f 941 942 944
f 835 945 839
f 835 939 945
f 937 945 939
f 937 941 945
f 839 946 840
f 839 945 946
f 941 946 945
f 941 943 946
f 935 947 938
f 935 948 947
f 923 947 948
f 923 925 947
f 922 948 935
f 922 923 948
f 938 949 942
f 938 947 949
f 925 949 947
f 925 928 949
f 942 950 944
f 942 949 950
f 928 950 949
f 928 931 950
f 921 951 930
f 921 952 951
f 896 951 952
f 896 902 951
f 895 952 921
f 895 896 952
f 930 953 933
f 930 951 953
f 902 953 951
f 902 903 953
f 667 958 956
f 667 671 958
f 956 958 959
f 957 959 960
f 957 960 961
f 960 963 961
f 960 959 963
f 963 965 964
f 963 966 965
f 962 965 967
f 962 964 965
f 961 964 962
f 961 963 964
f 377 968 376
f 377 969 968
f 369 969 377
f 369 954 969
f 969 970 968
f 969 971 970
f 954 971 969
f 954 955 971
f 962 973 972
f 962 967 973
f 971 973 970
f 971 972 973
f 955 972 971
f 955 962 972
f 671 974 958
f 671 679 974
f 974 976 975
f 974 977 976
f 958 975 959
f 958 974 975
f 684 979 978
f 684 685 979
f 974 979 977
f 974 978 979
f 679 978 974
f 679 684 978
f 975 981 980
f 975 976 981
f 963 981 966
f 963 980 981
f 959 980 963
f 959 975 980
f 500 982 499
f 500 983 982
f 376 983 500
f 376 968 983
f 983 984 982
f 983 985 984
f 968 985 983
f 968 970 985
f 504 986 503
f 504 987 986
f 499 987 504
f 499 982 987
f 987 988 986
f 987 989 988
f 982 989 987
f 982 984 989
f 503 990 510
f 503 986 990
f 512 991 511
f 512 992 991
f 510 992 512
f 510 990 992
f 986 993 990
f 986 988 993
f 993 995 994
f 993 996 995
f 992 995 991
f 992 994 995
f 990 994 992
f 990 993 994
f 973 998 997
f 973 999 998
f 985 998 984
f 985 997 998
f 970 997 985
f 970 973 997
f 973 1000 999
f 973 1001 1000
f 967 1001 973
f 967 965 1001
f 998 1003 1002
f 998 1004 1003
f 999 1004 998
f 999 1000 1004
f 998 1006 1005
f 998 1002 1006
f 989 1006 988
f 989 1005 1006
f 984 1005 989
f 984 998 1005
f 988 1007 993
f 988 1006 1007
f 993 1008 996
f 993 1007 1008
f 1003 1010 1009
f 1003 1011 1010
f 1006 1010 1007
f 1006 1009 1010
f 1002 1009 1006
f 1002 1003 1009
f 1007 1012 1008
f 1007 1010 1012
f 511 1013 529
f 511 991 1013
f 529 1014 530
f 529 1013 1014
f 991 1015 1013
f 991 995 1015
f 1013 1016 1014
f 1013 1015 1016
f 530 1017 533
f 530 1014 1017
f 533 1018 534
f 533 1017 1018
f 1014 1019 1017
f 1014 1016 1019
f 1017 1020 1018
f 1017 1019 1020
f 1008 1022 1021
f 1008 1023 1022
f 995 1022 1015
f 995 1021 1022
f 996 1021 995
f 996 1008 1021
f 1023 1024 1022
f 1023 1025 1024
f 1015 1024 1016
f 1015 1022 1024
f 1008 1026 1023
f 1008 1012 1026
f 1023 1027 1025
f 1023 1026 1027
f 1025 1028 1024
f 1025 1029 1028
f 1016 1028 1019
f 1016 1024 1028
f 1029 1030 1028
f 1029 1031 1030
f 1032 1030 1031
f 1032 1020 1030
f 1019 1030 1020
f 1019 1028 1030
f 1025 1033 1029
f 1025 1027 1033
f 1029 1034 1031
f 1029 1033 1034
f 979 1036 1035
f 979 1037 1036
f 977 1035 976
f 977 979 1035
f 966 1038 965
f 966 981 1038
f 1035 1040 1039
f 1035 1036 1040
f 976 1039 981
f 976 1035 1039
f 1039 1042 1041
f 1039 1040 1042
f 1038 1042 1043
f 1038 1041 1042
f 981 1041 1038
f 981 1039 1041
f 1040 1044 1042
f 1040 1045 1044
f 776 1047 1046
f 776 777 1047
f 979 1047 1037
f 979 1046 1047
f 685 1046 979
f 685 776 1046
f 777 1048 1047
f 777 779 1048
f 1047 1050 1049
f 1047 1048 1050
f 1037 1049 1036
f 1037 1047 1049
f 1049 1052 1051
f 1049 1050 1052
f 1040 1052 1045
f 1040 1051 1052
f 1036 1051 1040
f 1036 1049 1051
f 790 1054 1053
f 790 791 1054
f 779 1053 1048
f 779 790 1053
f 1053 1056 1055
f 1053 1054 1056
f 1050 1056 1057
f 1050 1055 1056
f 1048 1055 1050
f 1048 1053 1055
f 791 1058 1054
f 791 793 1058
f 1054 1059 1056
f 1054 1058 1059
f 1050 1060 1052
f 1050 1057 1060
f 1052 1062 1061
f 1052 1060 1062
f 1044 1062 1063
f 1044 1061 1062
f 1045 1061 1044
f 1045 1052 1061
f 1060 1064 1062
f 1060 1065 1064
f 1056 1067 1066
f 1056 1059 1067
f 1060 1067 1065
f 1060 1066 1067
f 1057 1066 1060
f 1057 1056 1066
f 1038 1069 1068
f 1038 1043 1069
f 1001 1069 1000
f 1001 1068 1069
f 965 1068 1001
f 965 1038 1068
f 1069 1071 1070
f 1069 1072 1071
f 1004 1071 1003
f 1004 1070 1071
f 1000 1070 1004
f 1000 1069 1070
f 1042 1074 1073
f 1042 1044 1074
f 1069 1074 1072
f 1069 1073 1074
f 1043 1073 1069
f 1043 1042 1073
f 1072 1075 1071
f 1072 1076 1075
f 1003 1075 1011
f 1003 1071 1075
f 1044 1077 1074
f 1044 1063 1077
f 1072 1077 1076
f 1072 1074 1077
f 1077 1079 1078
f 1077 1080 1079
f 1075 1079 1081
f 1075 1078 1079
f 1076 1078 1075
f 1076 1077 1078
f 1075 1083 1082
f 1075 1081 1083
f 1010 1083 1012
f 1010 1082 1083
f 1011 1082 1010
f 1011 1075 1082
f 1062 1085 1084
f 1062 1064 1085
f 1077 1085 1080
f 1077 1084 1085
f 1063 1084 1077
f 1063 1062 1084
f 793 1086 1058
f 793 827 1086
f 1058 1087 1059
f 1058 1086 1087
f 827 1088 1086
f 827 829 1088
f 1086 1089 1087
f 1086 1088 1089
f 1065 1090 1064
f 1065 1091 1090
f 1059 1092 1067
f 1059 1087 1092
f 1065 1092 1091
f 1065 1067 1092
f 1087 1093 1092
f 1087 1089 1093
f 1092 1095 1094
f 1092 1093 1095
f 1090 1095 1096
f 1090 1094 1095
f 1091 1094 1090
f 1091 1092 1094
f 829 1097 1088
f 829 838 1097
f 1088 1098 1089
f 1088 1097 1098
f 838 1099 1097
f 838 840 1099
f 1097 1100 1098
f 1097 1099 1100
f 1101 1103 1102
f 1101 1104 1103
f 1089 1105 1093
f 1089 1098 1105
f 1093 1106 1095
f 1093 1105 1106
f 1101 1106 1105
f 1101 1102 1106
f 1096 1106 1102
f 1096 1095 1106
f 1098 1107 1105
f 1098 1100 1107
f 1101 1107 1104
f 1101 1105 1107
f 1080 1108 1079
f 1080 1109 1108
f 1081 1108 1110
f 1081 1079 1108
f 1109 1111 1108
f 1109 1112 1111
f 1110 1111 1113
f 1110 1108 1111
f 1081 1114 1083
f 1081 1110 1114
f 1012 1114 1026
f 1012 1083 1114
f 1110 1115 1114
f 1110 1113 1115
f 1026 1115 1027
f 1026 1114 1115
f 1112 1116 1111
f 1112 1117 1116
f 1113 1116 1118
f 1113 1111 1116
f 1117 1119 1116
f 1117 1120 1119
f 1118 1119 1121
f 1118 1116 1119
f 1113 1122 1115
f 1113 1118 1122
f 1027 1122 1033
f 1027 1115 1122
f 1118 1123 1122
f 1118 1121 1123
f 1124 1123 1121
f 1124 1034 1123
f 1033 1123 1034
f 1033 1122 1123
f 1064 1125 1085
f 1064 1090 1125
f 1080 1125 1109
f 1080 1085 1125
f 1090 1126 1125
f 1090 1096 1126
f 1109 1126 1112
f 1109 1125 1126
f 1096 1127 1126
f 1096 1102 1127
f 1112 1127 1117
f 1112 1126 1127
f 1102 1128 1127
f 1102 1103 1128
f 1117 1128 1120
f 1117 1127 1128
f 607 1130 1129
f 607 608 1130
f 534 1130 608
f 534 1018 1130
f 607 1131 609
f 607 1129 1131
f 1032 1132 1020
f 1032 1133 1132
f 1129 1132 1133
f 1129 1130 1132
f 1018 1132 1130
f 1018 1020 1132
f 1129 1134 1131
f 1129 1133 1134
f 614 1136 1135
f 614 615 1136
f 616 1136 615
f 616 1137 1136
f 1135 1139 1138
f 1135 1136 1139
f 1137 1139 1136
f 1137 1140 1139
f 616 1141 1137
f 616 619 1141
f 609 1141 619
f 609 1131 1141
f 1142 1143 1134
f 1142 1140 1143
f 1137 1143 1140
f 1137 1141 1143
f 1131 1143 1141
f 1131 1134 1143
f 1032 1144 1133
f 1032 1031 1144
f 1142 1146 1145
f 1142 1134 1146
f 1133 1146 1134
f 1133 1144 1146
f 1124 1147 1034
f 1124 1148 1147
f 1031 1147 1144
f 1031 1034 1147
f 1148 1149 1147
f 1148 1150 1149
f 1145 1149 1150
f 1145 1146 1149
f 1144 1149 1146
f 1144 1147 1149
f 1142 1151 1140
f 1142 1145 1151
f 1152 1154 1153
f 1152 1138 1154
f 1155 1156 1151
f 1155 1154 1156
f 1138 1156 1154
f 1138 1139 1156
f 1140 1156 1139
f 1140 1151 1156
f 1157 1158 1150
f 1157 1159 1158
f 1155 1158 1159
f 1155 1151 1158
f 1145 1158 1151
f 1145 1150 1158
f 1160 1161 1159
f 1160 1162 1161
f 1153 1161 1162
f 1153 1154 1161
f 1155 1161 1154
f 1155 1159 1161
f 348 1163 886
f 348 635 1163
f 635 1164 1163
f 635 636 1164
f 886 1165 888
f 886 1163 1165
f 1163 1166 1165
f 1163 1164 1166
f 641 1168 1167
f 641 642 1168
f 636 1169 1164
f 636 643 1169
f 641 1169 643
f 641 1167 1169
f 1167 1171 1170
f 1167 1168 1171
f 1172 1173 1170
f 1172 1166 1173
f 1164 1173 1166
f 1164 1169 1173
f 1167 1173 1169
f 1167 1170 1173
f 900 1175 1174
f 900 901 1175
f 888 1175 901
f 888 1165 1175
f 1174 1177 1176
f 1174 1175 1177
f 1165 1177 1175
f 1165 1166 1177
f 1172 1177 1166
f 1172 1176 1177
f 900 1178 903
f 900 1174 1178
f 1174 1179 1178
f 1174 1176 1179
f 1172 1180 1176
f 1172 1170 1180
f 1170 1181 1180
f 1170 1171 1181
f 1152 1181 1171
f 1152 1153 1181
f 1182 1184 1183
f 1182 1179 1184
f 1176 1184 1179
f 1176 1180 1184
f 1183 1185 1162
f 1183 1184 1185
f 1180 1185 1184
f 1180 1181 1185
f 1153 1185 1181
f 1153 1162 1185
f 642 1186 1168
f 642 646 1186
f 614 1186 646
f 614 1135 1186
f 1152 1187 1138
f 1152 1171 1187
f 1168 1187 1171
f 1168 1186 1187
f 1135 1187 1186
f 1135 1138 1187
f 931 1189 1188
f 931 932 1189
f 933 1189 932
f 933 1190 1189
f 1188 1192 1191
f 1188 1189 1192
f 1190 1192 1189
f 1190 1193 1192
f 1182 1194 1193
f 1182 1183 1194
f 1195 1197 1196
f 1195 1194 1197
f 1183 1197 1194
f 1183 1162 1197
f 1160 1197 1162
f 1160 1196 1197
f 1198 1200 1199
f 1198 1201 1200
f 1195 1200 1201
f 1195 1196 1200
f 1202 1200 1196
f 1202 1199 1200
f 1191 1203 1201
f 1191 1192 1203
f 1193 1203 1192
f 1193 1194 1203
f 1195 1203 1194
f 1195 1201 1203
f 943 1205 1204
f 943 944 1205
f 1204 1207 1206
f 1204 1205 1207
f 840 1208 1099
f 840 946 1208
f 943 1208 946
f 943 1204 1208
f 1099 1209 1100
f 1099 1208 1209
f 1204 1209 1208
f 1204 1206 1209
f 1104 1210 1103
f 1104 1211 1210
f 1206 1212 1211
f 1206 1207 1212
f 1211 1213 1210
f 1211 1212 1213
f 1198 1213 1212
f 1198 1199 1213
f 1214 1213 1199
f 1214 1210 1213
f 1100 1215 1107
f 1100 1209 1215
f 1206 1215 1209
f 1206 1211 1215
f 1104 1215 1211
f 1104 1107 1215
f 944 1216 1205
f 944 950 1216
f 931 1216 950
f 931 1188 1216
f 1205 1217 1207
f 1205 1216 1217
f 1188 1217 1216
f 1188 1191 1217
f 1207 1218 1212
f 1207 1217 1218
f 1191 1218 1217
f 1191 1201 1218
f 1198 1218 1201
f 1198 1212 1218
f 1124 1219 1148
f 1124 1121 1219
f 1220 1221 1219
f 1220 1222 1221
f 1157 1221 1222
f 1157 1150 1221
f 1148 1221 1150
f 1148 1219 1221
f 1120 1223 1119
f 1120 1224 1223
f 1220 1223 1224
f 1220 1219 1223
f 1121 1223 1219
f 1121 1119 1223
f 1214 1225 1224
f 1214 1199 1225
f 1202 1225 1199
f 1202 1222 1225
f 1220 1225 1222
f 1220 1224 1225
f 1202 1226 1222
f 1202 1196 1226
f 1160 1226 1196
f 1160 1159 1226
f 1157 1226 1159
f 1157 1222 1226
f 1103 1227 1128
f 1103 1210 1227
f 1214 1227 1210
f 1214 1224 1227
f 1120 1227 1224
f 1120 1128 1227
f 933 1228 1190
f 933 953 1228
f 903 1228 953
f 903 1178 1228
f 1190 1229 1193
f 1190 1228 1229
f 1178 1229 1228
f 1178 1179 1229
f 1182 1229 1179
f 1182 1193 1229

