# https://github.com/mikedh/trimesh

o 6.obj
v -0.08383735 0.07752469 -0.09201986
v -0.14195775 0.07712360 -0.09171190
v -0.14195775 0.07752469 -0.09201986
v -0.08383735 0.07712360 -0.09171190
v -0.14195775 0.07752469 -0.08866431
v -0.08383735 0.07799192 -0.09221326
v -0.08383735 0.07717069 -0.08812750
v -0.08383999 0.07596292 -0.09015358
v -0.14195775 0.07712360 -0.08897201
v -0.14195775 0.07799192 -0.08847064
v -0.14195775 0.07799192 -0.09221326
v -0.08383708 0.07766094 -0.08800341
v -0.08383761 0.07672912 -0.08837434
v -0.14195775 0.07681564 -0.09131081
v -0.08383735 0.07849328 -0.09227941
v -0.08383682 0.07816654 -0.08801056
v -0.14195775 0.07681564 -0.08937336
v -0.08383920 0.07596980 -0.08964798
v -0.14195775 0.07849328 -0.08840477
v -0.14195775 0.07849328 -0.09227941
v -0.14195775 0.07662197 -0.08984059
v -0.14195775 0.07662197 -0.09084358
v -0.08383867 0.07610764 -0.08916117
v -0.08383735 0.07899491 -0.09221326
v -0.08383682 0.07865335 -0.08814813
v -0.08383814 0.07636666 -0.08872675
v -0.14195775 0.07899491 -0.08847064
v -0.14195775 0.07899491 -0.09221326
v -0.14195775 0.07655609 -0.09034195
v -0.08383735 0.07946214 -0.09201986
v -0.08383708 0.07908777 -0.08840715
v -0.14195775 0.07945420 -0.08870214
v -0.14195775 0.07946214 -0.09201986
v -0.08384105 0.07860334 -0.09172751
v -0.08383735 0.07944018 -0.08876987
v -0.14195775 0.07986323 -0.08897201
v -0.14195775 0.07986323 -0.09171190
v -0.08383788 0.07968702 -0.08921118
v -0.14195775 0.08017119 -0.09131081
v -0.08384079 0.07904491 -0.09148093
v -0.14195775 0.08017119 -0.08937336
v -0.08384026 0.07940737 -0.09112826
v -0.08383841 0.07981111 -0.08970143
v -0.14195775 0.08036459 -0.09084358
v -0.14195775 0.08036459 -0.08984059
v -0.08383973 0.07966639 -0.09069383
v -0.08383893 0.07980396 -0.09020729
v -0.14195775 0.08043073 -0.09034195
f 1 2 3
f 2 1 4
f 2 5 3
f 3 6 1
f 7 4 1
f 8 2 4
f 2 9 5
f 3 5 10
f 6 3 11
f 12 1 6
f 4 7 13
f 7 1 12
f 8 14 2
f 4 13 8
f 14 9 2
f 7 5 9
f 12 10 5
f 3 10 11
f 11 15 6
f 12 6 16
f 7 17 13
f 12 5 7
f 18 14 8
f 13 18 8
f 14 17 9
f 7 9 17
f 16 10 12
f 11 10 19
f 15 11 20
f 16 6 15
f 13 17 21
f 18 22 14
f 18 13 23
f 22 17 14
f 16 19 10
f 11 19 20
f 20 24 15
f 16 15 25
f 22 21 17
f 13 21 26
f 23 22 18
f 23 13 26
f 16 25 19
f 20 19 27
f 24 20 28
f 25 15 24
f 21 22 29
f 26 21 29
f 23 29 22
f 26 29 23
f 25 27 19
f 20 27 28
f 28 30 24
f 25 24 31
f 25 31 27
f 28 27 32
f 30 28 33
f 31 24 30
f 31 32 27
f 28 32 33
f 30 33 34
f 31 30 35
f 31 35 32
f 33 32 36
f 34 33 37
f 38 30 34
f 38 35 30
f 35 36 32
f 33 36 37
f 39 34 37
f 40 38 34
f 35 38 36
f 37 36 41
f 40 34 39
f 37 41 39
f 38 40 42
f 36 38 43
f 36 43 41
f 44 40 39
f 39 41 45
f 42 40 44
f 38 42 46
f 38 47 43
f 41 43 47
f 39 45 44
f 41 47 45
f 48 42 44
f 48 46 42
f 38 46 47
f 44 45 48
f 45 47 46
f 45 46 48
f 3 2 1
f 4 1 2
f 3 5 2
f 1 6 3
f 1 4 7
f 4 2 8
f 5 9 2
f 10 5 3
f 11 3 6
f 6 1 12
f 13 7 4
f 12 1 7
f 2 14 8
f 8 13 4
f 2 9 14
f 9 5 7
f 5 10 12
f 11 10 3
f 6 15 11
f 16 6 12
f 13 17 7
f 7 5 12
f 8 14 18
f 8 18 13
f 9 17 14
f 17 9 7
f 12 10 16
f 19 10 11
f 20 11 15
f 15 6 16
f 21 17 13
f 14 22 18
f 23 13 18
f 14 17 22
f 10 19 16
f 20 19 11
f 15 24 20
f 25 15 16
f 17 21 22
f 26 21 13
f 18 22 23
f 26 13 23
f 19 25 16
f 27 19 20
f 28 20 24
f 24 15 25
f 29 22 21
f 29 21 26
f 22 29 23
f 23 29 26
f 19 27 25
f 28 27 20
f 24 30 28
f 31 24 25
f 27 31 25
f 32 27 28
f 33 28 30
f 30 24 31
f 27 32 31
f 33 32 28
f 34 33 30
f 35 30 31
f 32 35 31
f 36 32 33
f 37 33 34
f 34 30 38
f 30 35 38
f 32 36 35
f 37 36 33
f 37 34 39
f 34 38 40
f 36 38 35
f 41 36 37
f 39 34 40
f 39 41 37
f 42 40 38
f 43 38 36
f 41 43 36
f 39 40 44
f 45 41 39
f 44 40 42
f 46 42 38
f 43 47 38
f 47 43 41
f 44 45 39
f 45 47 41
f 44 42 48
f 42 46 48
f 47 46 38
f 48 45 44
f 46 47 45
f 48 46 45

