# https://github.com/mikedh/trimesh

o 5.obj
v 0.07308730 0.08017119 -0.09131081
v 0.13120770 0.07986323 -0.09171190
v 0.07308730 0.07986323 -0.09171190
v 0.13120770 0.08017119 -0.09131081
v 0.07308730 0.07946214 -0.09201986
v 0.07308625 0.07977354 -0.08988425
v 0.07308439 0.07936980 -0.09131108
v 0.13120638 0.07975952 -0.08995198
v 0.13120770 0.07946214 -0.09201986
v 0.07308677 0.07964945 -0.08939400
v 0.07308572 0.07976640 -0.09038984
v 0.13120770 0.08036459 -0.09084358
v 0.13120691 0.07963543 -0.08946146
v 0.07308730 0.07899491 -0.09221326
v 0.07308730 0.07940261 -0.08895243
v 0.07308492 0.07962855 -0.09087665
v 0.13120585 0.07975237 -0.09045757
v 0.13120744 0.07938859 -0.08902016
v 0.13120770 0.07899491 -0.09221326
v 0.07308757 0.07904994 -0.08858997
v 0.13120532 0.07961480 -0.09094412
v 0.13120770 0.07903618 -0.08865743
v 0.07308730 0.07849328 -0.09227941
v 0.07308783 0.07861551 -0.08833095
v 0.13120797 0.07860175 -0.08839842
v 0.13120770 0.07849328 -0.09227941
v 0.07308730 0.07799192 -0.09221326
v 0.07308783 0.07812897 -0.08819311
v 0.13120797 0.07811494 -0.08826084
v 0.13120770 0.07799192 -0.09221326
v 0.07308730 0.07752469 -0.09201986
v 0.07308757 0.07762337 -0.08818623
v 0.13120797 0.07760935 -0.08825370
v 0.13120770 0.07752469 -0.09201986
v 0.07308730 0.07712360 -0.09171190
v 0.07308730 0.07713312 -0.08831031
v 0.13120770 0.07711910 -0.08837778
v 0.13120770 0.07712360 -0.09171190
v 0.13120770 0.07681564 -0.09131081
v 0.07308730 0.07681564 -0.09131081
v 0.13120717 0.07667753 -0.08862462
v 0.07308704 0.07669155 -0.08855689
v 0.13120770 0.07662197 -0.09084358
v 0.07308730 0.07662197 -0.09084358
v 0.13120664 0.07631507 -0.08897703
v 0.13120770 0.07655609 -0.09034195
v 0.07308651 0.07632883 -0.08890957
v 0.07308598 0.07607008 -0.08934399
f 1 2 3
f 2 1 4
f 2 5 3
f 1 3 6
f 4 1 7
f 8 2 4
f 5 2 9
f 3 5 10
f 3 10 6
f 1 6 11
f 1 11 7
f 12 4 7
f 13 2 8
f 12 8 4
f 2 13 9
f 9 14 5
f 10 5 15
f 13 6 10
f 8 11 6
f 11 16 7
f 12 7 16
f 6 13 8
f 12 17 8
f 13 18 9
f 14 9 19
f 14 20 5
f 5 20 15
f 18 10 15
f 10 18 13
f 11 8 17
f 17 16 11
f 12 16 21
f 17 12 21
f 22 9 18
f 22 19 9
f 19 23 14
f 14 24 20
f 22 15 20
f 15 22 18
f 16 17 21
f 25 19 22
f 23 19 26
f 23 24 14
f 24 22 20
f 25 26 19
f 22 24 25
f 26 27 23
f 23 28 24
f 29 26 25
f 28 25 24
f 27 26 30
f 27 28 23
f 29 30 26
f 25 28 29
f 30 31 27
f 27 32 28
f 33 30 29
f 28 33 29
f 31 30 34
f 31 32 27
f 33 28 32
f 33 34 30
f 34 35 31
f 31 36 32
f 32 37 33
f 33 38 34
f 35 34 38
f 35 36 31
f 37 32 36
f 37 38 33
f 39 35 38
f 40 36 35
f 36 41 37
f 37 39 38
f 35 39 40
f 40 42 36
f 41 36 42
f 39 37 41
f 43 40 39
f 42 40 44
f 42 45 41
f 39 41 45
f 40 43 44
f 39 46 43
f 44 47 42
f 45 42 47
f 46 39 45
f 46 44 43
f 47 44 48
f 47 48 45
f 45 48 46
f 48 44 46
f 3 2 1
f 4 1 2
f 3 5 2
f 6 3 1
f 7 1 4
f 4 2 8
f 9 2 5
f 10 5 3
f 6 10 3
f 11 6 1
f 7 11 1
f 7 4 12
f 8 2 13
f 4 8 12
f 9 13 2
f 5 14 9
f 15 5 10
f 10 6 13
f 6 11 8
f 7 16 11
f 16 7 12
f 8 13 6
f 8 17 12
f 9 18 13
f 19 9 14
f 5 20 14
f 15 20 5
f 15 10 18
f 13 18 10
f 17 8 11
f 11 16 17
f 21 16 12
f 21 12 17
f 18 9 22
f 9 19 22
f 14 23 19
f 20 24 14
f 20 15 22
f 18 22 15
f 21 17 16
f 22 19 25
f 26 19 23
f 14 24 23
f 20 22 24
f 19 26 25
f 25 24 22
f 23 27 26
f 24 28 23
f 25 26 29
f 24 25 28
f 30 26 27
f 23 28 27
f 26 30 29
f 29 28 25
f 27 31 30
f 28 32 27
f 29 30 33
f 29 33 28
f 34 30 31
f 27 32 31
f 32 28 33
f 30 34 33
f 31 35 34
f 32 36 31
f 33 37 32
f 34 38 33
f 38 34 35
f 31 36 35
f 36 32 37
f 33 38 37
f 38 35 39
f 35 36 40
f 37 41 36
f 38 39 37
f 40 39 35
f 36 42 40
f 42 36 41
f 41 37 39
f 39 40 43
f 44 40 42
f 41 45 42
f 45 41 39
f 44 43 40
f 43 46 39
f 42 47 44
f 47 42 45
f 45 39 46
f 43 44 46
f 48 44 47
f 45 48 47
f 46 48 45
f 46 44 48

