# https://github.com/mikedh/trimesh
v -0.46666654 0.20260423 0.47500009
v 0.46666654 0.20260423 -0.47500009
v 0.46666654 0.20260423 0.47500009
v -0.46666654 0.20260423 -0.47500009
v -0.46666654 0.21510382 -0.47500009
v 0.46666654 0.21510382 0.47500009
v 0.46666654 0.21510382 -0.47500009
v -0.46666654 0.21510382 0.47500009
v 0.50000000 0.23177092 -0.47500009
v -0.50000000 -0.14322918 -0.47500009
v 0.50000000 -0.14322918 -0.47500009
v -0.50000000 0.23177092 -0.47500009
v 0.50000000 -0.14322918 -0.49166645
v -0.50000000 0.23177092 -0.49166645
v 0.50000000 0.23177092 -0.49166645
v -0.50000000 -0.14322918 -0.49166645
v 0.50000000 -0.14322918 0.47500009
v -0.50000000 -0.14322918 0.47500009
v 0.50000000 0.23177092 0.47500009
v -0.50000000 0.23177092 0.47500009
v 0.50000000 -0.14322918 0.49166718
v -0.50000000 0.23177092 0.49166718
v 0.50000000 0.23177092 0.49166718
v -0.50000000 -0.14322918 0.49166718
v -0.50000000 0.21510382 0.47500009
v -0.50000000 0.21510382 -0.47500009
v -0.40000037 0.21510382 -0.47500009
v -0.40000037 0.23177092 0.47500009
v -0.40000037 0.21510382 0.47500009
v -0.40000037 0.23177092 -0.47500009
v -0.05000018 0.21510382 0.47500009
v -0.05000018 0.23177092 -0.47500009
v -0.05000018 0.21510382 -0.47500009
v -0.05000018 0.23177092 0.47500009
v 0.05000018 0.21510382 -0.47500009
v 0.05000018 0.23177092 0.47500009
v 0.05000018 0.21510382 0.47500009
v 0.05000018 0.23177092 -0.47500009
v 0.40000037 0.21510382 0.47500009
v 0.40000037 0.23177092 -0.47500009
v 0.40000037 0.21510382 -0.47500009
v 0.40000037 0.23177092 0.47500009
v 0.50000000 0.21510382 -0.47500009
v 0.50000000 0.21510382 0.47500009
v 0.45000018 -0.16822908 0.45000018
v 0.45000018 -0.14322918 -0.45000018
v 0.45000018 -0.16822908 -0.45000018
v 0.45000018 -0.14322918 0.45000018
v 0.50000000 -0.16822908 -0.45000018
v 0.50000000 -0.14322918 0.45000018
v 0.50000000 -0.16822908 0.45000018
v 0.50000000 -0.14322918 -0.45000018
v -0.50000000 -0.16822908 0.45000018
v -0.50000000 -0.14322918 -0.45000018
v -0.50000000 -0.16822908 -0.45000018
v -0.50000000 -0.14322918 0.45000018
v -0.45000018 -0.16822908 -0.45000018
v -0.45000018 -0.14322918 0.45000018
v -0.45000018 -0.16822908 0.45000018
v -0.45000018 -0.14322918 -0.45000018
v -0.50000000 -0.14322918 -0.50000000
v 0.50000000 -0.14322918 -0.50000000
v 0.50000000 -0.16822908 -0.50000000
v -0.50000000 -0.16822908 -0.50000000
v 0.50000000 -0.14322918 0.50000000
v -0.50000000 -0.14322918 0.50000000
v 0.50000000 -0.16822908 0.50000000
v -0.50000000 -0.16822908 0.50000000
v -0.46666654 -0.14322918 -0.47500009
v -0.46666654 -0.14322918 0.47500009
v -0.48333364 -0.14322918 0.47500009
v -0.48333364 0.21510382 -0.47500009
v -0.48333364 -0.14322918 -0.47500009
v -0.48333364 0.21510382 0.47500009
v 0.46666654 -0.14322918 0.47500009
v 0.46666654 -0.14322918 -0.47500009
v 0.48333364 0.21510382 0.47500009
v 0.48333364 -0.14322918 -0.47500009
v 0.48333364 0.21510382 -0.47500009
v 0.48333364 -0.14322918 0.47500009
v -0.45000018 -0.16822908 0.31666709
v 0.45000018 -0.16822908 0.05000018
v 0.45000018 -0.16822908 0.31666709
v -0.45000018 -0.16822908 0.05000018
v 0.45000018 -0.14322918 0.31666709
v -0.45000018 -0.14322918 0.05000018
v -0.45000018 -0.14322918 0.31666709
v 0.45000018 -0.14322918 0.05000018
v 0.14722197 -0.14322918 0.47500009
v 0.14722197 0.20260423 -0.47500009
v 0.14722197 -0.14322918 -0.47500009
v 0.14722197 0.20260423 0.47500009
v 0.17222188 -0.14322918 -0.47500009
v 0.17222188 0.20260423 0.47500009
v 0.17222188 -0.14322918 0.47500009
v 0.17222188 0.20260423 -0.47500009
v -0.17222261 -0.14322918 0.47500009
v -0.17222261 0.20260423 -0.47500009
v -0.17222261 -0.14322918 -0.47500009
v -0.17222261 0.20260423 0.47500009
v -0.14722197 -0.14322918 -0.47500009
v -0.14722197 0.20260423 0.47500009
v -0.14722197 -0.14322918 0.47500009
v -0.14722197 0.20260423 -0.47500009
v 0.18333327 0.21510382 -0.17499973
v 0.18333327 0.21510382 -0.47500009
v 0.09183312 0.21510382 -0.17499973
v 0.09183312 0.21510382 -0.47500009
v -0.39375021 -0.18072940 -0.00624979
v 0.39375021 -0.18072940 -0.39375021
v 0.39375021 -0.18072940 -0.00624979
v -0.39375021 -0.18072940 -0.39375021
v -0.49374984 -0.19322899 0.09375057
v -0.49374984 -0.16822908 -0.00624979
v -0.49374984 -0.19322899 -0.00624979
v -0.49374984 -0.16822908 0.09375057
v 0.49374984 -0.19322899 -0.00624979
v 0.49374984 -0.16822908 0.09375057
v 0.49374984 -0.16822908 -0.00624979
v 0.49374984 -0.19322899 0.09375057
v 0.39375021 -0.16822908 -0.00624979
v 0.49374984 -0.16822908 -0.39375021
v 0.39375021 -0.16822908 -0.39375021
v 0.39375021 -0.18486986 -0.39375021
v 0.42059519 -0.18919746 -0.00624979
v 0.42059519 -0.18919746 -0.39375021
v 0.39375021 -0.18486986 -0.00624979
v 0.42085543 -0.19225748 -0.00624979
v 0.49374984 -0.19322899 -0.39375021
v 0.42253895 -0.19322899 -0.00624979
v 0.42059519 -0.19128523 -0.39375021
v 0.42059519 -0.19128523 -0.00624979
v 0.42156744 -0.19296875 -0.00624979
v 0.42253895 -0.19322899 -0.39375021
v 0.42085543 -0.19225748 -0.39375021
v 0.42156744 -0.19296875 -0.39375021
v -0.49374984 -0.19322899 -0.39375021
v -0.49374984 -0.16822908 -0.49374984
v -0.49374984 -0.19322899 -0.49374984
v -0.49374984 -0.16822908 -0.39375021
v 0.49374984 -0.19322899 -0.49374984
v 0.49374984 -0.16822908 -0.49374984
v -0.39375021 -0.16822908 -0.39375021
v -0.39375021 -0.16822908 -0.00624979
v -0.42059519 -0.18919746 -0.00624979
v -0.39375021 -0.18486986 -0.00624979
v -0.42059519 -0.18919746 -0.39375021
v -0.42253895 -0.19322899 -0.00624979
v -0.39375021 -0.18486986 -0.39375021
v -0.42253895 -0.19322899 -0.39375021
v -0.42156744 -0.19296875 -0.00624979
v -0.42156744 -0.19296875 -0.39375021
v -0.42085616 -0.19225748 -0.00624979
v -0.42059519 -0.19128523 -0.00624979
v -0.42085616 -0.19225748 -0.39375021
v -0.42059519 -0.19128523 -0.39375021
v 0.31685423 -0.22842507 -0.45521084
v 0.33523043 -0.22842507 -0.45502078
v 0.33517122 -0.23177092 -0.45127653
v 0.31685423 -0.22332187 -0.45521084
v 0.35041211 -0.23177092 -0.45026408
v 0.31684765 -0.23177092 -0.45146586
v 0.33523043 -0.22330725 -0.45502078
v 0.31041693 -0.22332772 -0.45521084
v 0.35041211 -0.22842507 -0.45374516
v 0.33517122 -0.23177092 -0.43622351
v 0.30397890 -0.22842507 -0.45521084
v 0.31684765 -0.23177092 -0.43603345
v 0.33523043 -0.22330725 -0.43247927
v 0.31685423 -0.22332187 -0.43228920
v 0.35404232 -0.23134693 -0.44998483
v 0.35041211 -0.23177092 -0.43723524
v 0.30398548 -0.23177092 -0.45146586
v 0.30398548 -0.23177092 -0.43603345
v 0.35041211 -0.22329482 -0.43375488
v 0.35041211 -0.22329482 -0.45374516
v 0.30397890 -0.22332187 -0.45521084
v 0.31041693 -0.22332772 -0.43228920
v 0.35404232 -0.22765677 -0.45335188
v 0.35404232 -0.23134693 -0.43751521
v 0.33523043 -0.22842507 -0.43247927
v 0.31685423 -0.22842507 -0.43228920
v 0.28566191 -0.23177092 -0.45127653
v 0.30397890 -0.22842507 -0.43228920
v 0.35041211 -0.22842507 -0.43375488
v 0.28560270 -0.22842507 -0.45502078
v 0.35768642 -0.23028915 -0.44966099
v 0.28566191 -0.23177092 -0.43622351
v 0.35404232 -0.22252287 -0.43414817
v 0.35404232 -0.22765677 -0.43414817
v 0.35404232 -0.22252287 -0.45335188
v 0.28560270 -0.22330725 -0.45502078
v 0.30397890 -0.22332187 -0.43228920
v 0.35768642 -0.22631244 -0.45274660
v 0.35768642 -0.23028915 -0.43783905
v 0.27042176 -0.23177092 -0.45026408
v 0.28560270 -0.22842507 -0.43247927
v 0.27042176 -0.22842507 -0.45374516
v 0.36150596 -0.22836951 -0.44937444
v 0.36150596 -0.22836951 -0.43812561
v 0.27042176 -0.23177092 -0.43723524
v 0.35768642 -0.22047677 -0.43475345
v 0.35768642 -0.22631244 -0.43475345
v 0.35768642 -0.22047677 -0.45274660
v 0.27042176 -0.22329482 -0.45374516
v 0.28560270 -0.22330725 -0.43247927
v 0.36150596 -0.22388987 -0.45184380
v 0.26679155 -0.23134693 -0.44998483
v 0.26679155 -0.23134693 -0.43751521
v 0.27042176 -0.22842507 -0.43375488
v 0.26679155 -0.22765677 -0.45335188
v 0.27042176 -0.22329482 -0.43375488
v 0.36407839 -0.22677517 -0.44902355
v 0.36407839 -0.22677517 -0.43847650
v 0.36150596 -0.22388987 -0.43565625
v 0.36150596 -0.21646862 -0.43565625
v 0.36150596 -0.21646862 -0.45184380
v 0.26679155 -0.22252287 -0.45335188
v 0.36407839 -0.22207330 -0.45141104
v 0.26314672 -0.23028915 -0.44966099
v 0.26679155 -0.22765677 -0.43414817
v 0.26314672 -0.22631244 -0.45274660
v 0.26679155 -0.22252287 -0.43414817
v 0.36632333 -0.22474003 -0.44876696
v 0.36407839 -0.22207330 -0.43608901
v 0.26314672 -0.23028915 -0.43783905
v 0.36407839 -0.21161104 -0.43608901
v 0.36407839 -0.21161104 -0.45141104
v 0.26314672 -0.22047677 -0.45274660
v 0.36632333 -0.21845990 -0.45082038
v 0.36632333 -0.22474003 -0.43873308
v 0.25932718 -0.22836951 -0.44937444
v 0.25932718 -0.22836951 -0.43812561
v 0.26314672 -0.22631244 -0.43475345
v 0.25932718 -0.22388987 -0.45184380
v 0.26314672 -0.22047677 -0.43475345
v 0.36921668 -0.22162007 -0.44855716
v 0.36921668 -0.22162007 -0.43894215
v 0.36632333 -0.21845990 -0.43667967
v 0.36632333 -0.20250262 -0.43667967
v 0.36632333 -0.20250262 -0.45082038
v 0.25932718 -0.21646862 -0.45184380
v 0.25932718 -0.21646862 -0.43565625
v 0.36860848 -0.21377776 -0.45040516
v 0.25675474 -0.22677517 -0.44902355
v 0.25932718 -0.22388987 -0.43565625
v 0.36860848 -0.19322899 -0.43709415
v 0.25675474 -0.22207330 -0.45141104
v 0.37207129 -0.21640722 -0.44821505
v 0.37207129 -0.21640722 -0.43928427
v 0.36860848 -0.21377776 -0.43709415
v 0.25675474 -0.22677517 -0.43847650
v 0.36860848 -0.19322899 -0.45040516
v 0.25675474 -0.21161104 -0.45141104
v 0.25675474 -0.21161104 -0.43608901
v 0.25675474 -0.22207330 -0.43608901
v 0.37207129 -0.20508310 -0.45058426
v 0.25450980 -0.22474003 -0.43873308
v 0.25450980 -0.22474003 -0.44876696
v 0.37207129 -0.19322899 -0.43691578
v 0.37207129 -0.19322899 -0.45058426
v 0.25450980 -0.21845990 -0.45082038
v 0.37436886 -0.20898963 -0.44842485
v 0.37207129 -0.20508310 -0.43691578
v 0.25450980 -0.20250262 -0.45082038
v 0.25450980 -0.20250262 -0.43667967
v 0.25450980 -0.21845990 -0.43667967
v 0.37564667 -0.20538208 -0.44897603
v 0.37436886 -0.20898963 -0.43907520
v 0.25161645 -0.22162007 -0.43894215
v 0.25161645 -0.22162007 -0.44855716
v 0.37482209 -0.19322899 -0.43593842
v 0.37482209 -0.19322899 -0.45156090
v 0.37482209 -0.20263128 -0.45156090
v 0.25222465 -0.21377776 -0.45040516
v 0.25222465 -0.19322899 -0.43709415
v 0.37564667 -0.20538208 -0.43852328
v 0.37482209 -0.20263128 -0.43593842
v 0.25222465 -0.19322899 -0.45040516
v 0.25222465 -0.21377776 -0.43709415
v 0.37681483 -0.20289883 -0.44894387
v 0.24876185 -0.21640722 -0.43928427
v 0.24876185 -0.21640722 -0.44821505
v 0.37521684 -0.20152672 -0.43327315
v 0.37521684 -0.19322899 -0.43327315
v 0.37521684 -0.19322899 -0.45422690
v 0.24876185 -0.19322899 -0.45058426
v 0.24876185 -0.20508310 -0.43691578
v 0.37931782 -0.20044190 -0.44712145
v 0.37681483 -0.20289883 -0.43855545
v 0.24876185 -0.20508310 -0.45058426
v 0.37931782 -0.20044190 -0.44037859
v 0.37521684 -0.20152672 -0.45422690
v 0.24876185 -0.19322899 -0.43691578
v 0.37931782 -0.20044190 -0.44375002
v 0.24646427 -0.20898963 -0.44842485
v 0.37602753 -0.20100697 -0.43080379
v 0.37602753 -0.19322899 -0.43080379
v 0.37602753 -0.19322899 -0.45669553
v 0.24601178 -0.19322899 -0.45156090
v 0.24601178 -0.20263128 -0.43593842
v 0.24646427 -0.20898963 -0.43907520
v 0.37602753 -0.20100697 -0.45669553
v 0.38395317 -0.19810412 -0.44375002
v 0.24518646 -0.20538208 -0.44897603
v 0.37830390 -0.20005885 -0.42806029
v 0.24601178 -0.20263128 -0.45156090
v 0.24601178 -0.19322899 -0.43593842
v 0.24518646 -0.20538208 -0.43852328
v 0.37830390 -0.20005885 -0.45943902
v 0.37961242 -0.19944991 -0.46024898
v 0.37697492 -0.20059614 -0.42926573
v 0.37961242 -0.19944991 -0.42725106
v 0.37697492 -0.19322899 -0.42926573
v 0.37697492 -0.19322899 -0.45823431
v 0.24561703 -0.19322899 -0.45422690
v 0.24561703 -0.20152672 -0.43327315
v 0.24401830 -0.20289883 -0.43855545
v 0.37697492 -0.20059614 -0.45823431
v 0.38185809 -0.19862241 -0.46041638
v 0.24401830 -0.20289883 -0.44894387
v 0.37830390 -0.19322899 -0.42806029
v 0.37961242 -0.19322899 -0.42725106
v 0.24561703 -0.20152672 -0.45422690
v 0.24561703 -0.19322899 -0.43327315
v 0.24151605 -0.20044190 -0.44037859
v 0.37830390 -0.19322899 -0.45943902
v 0.37961242 -0.19322899 -0.46024898
v 0.38395317 -0.19810412 -0.46007500
v 0.38185809 -0.19862241 -0.42708293
v 0.24151605 -0.20044190 -0.44712145
v 0.38185809 -0.19322899 -0.42708293
v 0.24480561 -0.20100697 -0.45669553
v 0.24480561 -0.19322899 -0.45669553
v 0.24480561 -0.19322899 -0.43080379
v 0.24480561 -0.20100697 -0.43080379
v 0.24151605 -0.20044190 -0.44375002
v 0.38185809 -0.19322899 -0.46041638
v 0.38554386 -0.19322899 -0.45965759
v 0.38395317 -0.19810412 -0.42742504
v 0.24385821 -0.20059614 -0.42926573
v 0.23687996 -0.19810412 -0.44375002
v 0.38554386 -0.19798569 -0.45965759
v 0.38554386 -0.19322899 -0.42784245
v 0.24385821 -0.20059614 -0.45823431
v 0.24385821 -0.19322899 -0.45823431
v 0.24385821 -0.19322899 -0.42926573
v 0.24252923 -0.20005885 -0.42806029
v 0.24122145 -0.19944991 -0.42725106
v 0.38867771 -0.19322899 -0.45810492
v 0.38554386 -0.19798569 -0.42784245
v 0.24122145 -0.19944991 -0.46024898
v 0.24252923 -0.20005885 -0.45943902
v 0.23897578 -0.19862241 -0.42708293
v 0.38867771 -0.19322899 -0.42939512
v 0.38761043 -0.19783218 -0.45884690
v 0.23897578 -0.19862241 -0.46041638
v 0.24252923 -0.19322899 -0.45943902
v 0.24252923 -0.19322899 -0.42806029
v 0.24122145 -0.19322899 -0.42725106
v 0.23687996 -0.19810412 -0.42742504
v 0.39112806 -0.19322899 -0.43242590
v 0.38867771 -0.19783218 -0.45810492
v 0.38761043 -0.19783218 -0.42865315
v 0.23687996 -0.19810412 -0.46007500
v 0.23897578 -0.19322899 -0.46041638
v 0.24122145 -0.19322899 -0.46024898
v 0.23897578 -0.19322899 -0.42708293
v 0.23529001 -0.19798569 -0.45965759
v 0.23529001 -0.19322899 -0.42784245
v 0.39112806 -0.19322899 -0.45507414
v 0.39112806 -0.19783218 -0.43242590
v 0.38867771 -0.19783218 -0.42939512
v 0.23529001 -0.19322899 -0.45965759
v 0.23529001 -0.19798569 -0.42784245
v 0.39293001 -0.19322899 -0.45075093
v 0.39156740 -0.19783218 -0.43347929
v 0.39112806 -0.19783218 -0.45507414
v 0.23322344 -0.19783218 -0.42865315
v 0.23215543 -0.19322899 -0.42939512
v 0.39293001 -0.19322899 -0.43674911
v 0.39279696 -0.19719620 -0.45107112
v 0.39156740 -0.19783218 -0.45402002
v 0.23215543 -0.19322899 -0.45810492
v 0.23322344 -0.19783218 -0.45884690
v 0.39347461 -0.19322899 -0.44011177
v 0.39293001 -0.19702149 -0.45075093
v 0.39279696 -0.19719620 -0.43642893
v 0.23215543 -0.19783218 -0.42939512
v 0.22970507 -0.19322899 -0.45507414
v 0.39347461 -0.19322899 -0.44738827
v 0.39347461 -0.19631021 -0.44011177
v 0.39347461 -0.19631021 -0.44738827
v 0.39293001 -0.19702149 -0.43674911
v 0.23215543 -0.19783218 -0.45810492
v 0.22970507 -0.19322899 -0.43242590
v 0.22970507 -0.19783218 -0.45507414
v 0.39373266 -0.19322899 -0.44170319
v 0.39374143 -0.19519030 -0.44170319
v 0.39347461 -0.19631021 -0.44375002
v 0.22970507 -0.19783218 -0.43242590
v 0.22926573 -0.19783218 -0.45402002
v 0.22790313 -0.19322899 -0.45075093
v 0.39373266 -0.19322899 -0.44579686
v 0.39375021 -0.19519030 -0.44375002
v 0.22790313 -0.19322899 -0.43674911
v 0.22803690 -0.19719620 -0.45107112
v 0.22790313 -0.19702149 -0.45075093
v 0.39375021 -0.19322899 -0.44375002
v 0.39374143 -0.19519030 -0.44579686
v 0.22926573 -0.19783218 -0.43347929
v 0.22803690 -0.19719620 -0.43642893
v 0.22735852 -0.19631021 -0.44738827
v 0.22735852 -0.19322899 -0.44738827
v 0.22790313 -0.19702149 -0.43674911
v 0.22735852 -0.19322899 -0.44011177
v 0.22735852 -0.19631021 -0.44375002
v 0.22735852 -0.19631021 -0.44011177
v 0.22709243 -0.19519030 -0.44579686
v 0.22710121 -0.19322899 -0.44579686
v 0.22710121 -0.19322899 -0.44170319
v 0.22709243 -0.19519030 -0.44170319
v 0.22708366 -0.19519030 -0.44375002
v 0.22708366 -0.19322899 -0.44375002
f 1 2 3
f 2 1 4
f 3 2 1
f 4 1 2
f 5 6 7
f 6 5 8
f 7 6 5
f 8 5 6
f 9 10 11
f 10 9 12
f 13 9 11
f 9 14 12
f 14 10 12
f 9 13 15
f 14 9 15
f 10 14 16
f 11 10 9
f 12 9 10
f 11 9 13
f 12 14 9
f 12 10 14
f 15 13 9
f 15 9 14
f 16 14 10
f 15 14 13
f 16 13 14
f 13 14 15
f 14 13 16
f 17 18 19
f 20 19 18
f 17 19 21
f 20 22 19
f 20 18 22
f 23 21 19
f 23 19 22
f 24 22 18
f 19 18 17
f 18 19 20
f 21 19 17
f 19 22 20
f 22 18 20
f 19 21 23
f 22 19 23
f 18 22 24
f 21 22 23
f 22 21 24
f 23 22 21
f 24 21 22
f 25 12 26
f 12 25 20
f 27 25 26
f 28 12 20
f 25 27 29
f 12 28 30
f 27 28 29
f 28 27 30
f 26 12 25
f 20 25 12
f 26 25 27
f 20 12 28
f 29 27 25
f 30 28 12
f 29 28 27
f 30 27 28
f 31 32 33
f 32 31 34
f 35 31 33
f 36 32 34
f 31 35 37
f 32 36 38
f 35 36 37
f 36 35 38
f 33 32 31
f 34 31 32
f 33 31 35
f 34 32 36
f 37 35 31
f 38 36 32
f 37 36 35
f 38 35 36
f 39 40 41
f 40 39 42
f 43 39 41
f 19 40 42
f 39 43 44
f 40 19 9
f 43 19 44
f 19 43 9
f 41 40 39
f 42 39 40
f 41 39 43
f 42 40 19
f 44 43 39
f 9 19 40
f 44 19 43
f 9 43 19
f 45 46 47
f 46 45 48
f 49 45 47
f 45 49 51
f 49 50 51
f 50 49 52
f 47 46 45
f 48 45 46
f 47 45 49
f 48 46 50
f 51 49 45
f 52 50 46
f 51 50 49
f 52 49 50
f 50 46 48
f 46 50 52
f 53 54 55
f 54 53 56
f 57 53 55
f 53 57 59
f 57 58 59
f 58 57 60
f 55 54 53
f 56 53 54
f 55 53 57
f 56 54 58
f 59 57 53
f 60 58 54
f 59 58 57
f 60 57 58
f 58 54 56
f 54 58 60
f 61 52 62
f 52 61 54
f 52 63 62
f 61 55 54
f 63 52 49
f 55 61 64
f 62 52 61
f 54 61 52
f 62 63 52
f 62 61 63
f 54 55 61
f 54 52 55
f 49 52 63
f 64 63 61
f 64 61 55
f 49 55 52
f 49 63 55
f 64 55 63
f 63 61 62
f 55 52 54
f 61 63 64
f 52 55 49
f 55 63 49
f 63 55 64
f 65 50 66
f 65 67 50
f 56 66 50
f 51 50 67
f 56 53 66
f 68 66 53
f 66 50 65
f 50 67 65
f 50 66 56
f 67 66 65
f 67 50 51
f 66 53 56
f 53 50 56
f 66 67 68
f 50 53 51
f 53 67 51
f 53 66 68
f 67 53 68
f 65 66 67
f 56 50 53
f 68 67 66
f 51 53 50
f 51 67 53
f 68 53 67
f 8 69 5
f 69 8 70
f 5 69 8
f 70 8 69
f 71 72 73
f 72 71 74
f 73 72 71
f 74 71 72
f 75 7 76
f 7 75 6
f 76 7 75
f 6 75 7
f 77 78 79
f 78 77 80
f 79 78 77
f 80 77 78
f 81 82 83
f 82 81 84
f 85 81 83
f 86 82 84
f 81 85 87
f 82 86 88
f 83 82 81
f 84 81 82
f 83 81 85
f 84 82 86
f 87 85 81
f 88 86 82
f 87 86 85
f 88 85 86
f 85 86 87
f 86 85 88
f 89 90 91
f 90 89 92
f 93 89 91
f 94 90 92
f 89 93 95
f 90 94 96
f 93 94 95
f 94 93 96
f 91 90 89
f 92 89 90
f 91 89 93
f 92 90 94
f 95 93 89
f 96 94 90
f 95 94 93
f 96 93 94
f 97 98 99
f 98 97 100
f 101 97 99
f 102 98 100
f 97 101 103
f 98 102 104
f 101 102 103
f 102 101 104
f 99 98 97
f 100 97 98
f 99 97 101
f 100 98 102
f 103 101 97
f 104 102 98
f 103 102 101
f 104 101 102
f 105 106 107
f 105 107 106
f 108 107 106
f 108 106 107
f 109 110 111
f 110 109 112
f 111 110 109
f 112 109 110
f 113 114 115
f 114 113 116
f 114 117 115
f 117 113 115
f 113 118 116
f 118 114 116
f 117 114 119
f 113 117 120
f 118 113 120
f 114 118 119
f 118 117 119
f 117 118 120
f 115 114 113
f 116 113 114
f 115 117 114
f 115 113 117
f 116 118 113
f 116 114 118
f 119 114 117
f 120 117 113
f 120 113 118
f 119 118 114
f 119 117 118
f 120 118 117
f 121 122 123
f 122 121 119
f 122 124 123
f 124 121 123
f 121 125 119
f 117 122 119
f 124 122 126
f 121 124 127
f 125 121 127
f 119 125 128
f 122 117 129
f 119 130 117
f 126 122 131
f 125 124 126
f 124 125 127
f 128 125 132
f 119 128 133
f 117 134 129
f 134 122 129
f 119 133 130
f 134 117 130
f 131 122 135
f 131 125 126
f 125 131 132
f 132 135 128
f 128 136 133
f 136 122 134
f 136 130 133
f 130 136 134
f 135 122 136
f 135 132 131
f 136 128 135
f 123 122 121
f 119 121 122
f 123 124 122
f 123 121 124
f 119 125 121
f 119 122 117
f 126 122 124
f 127 124 121
f 127 121 125
f 128 125 119
f 129 117 122
f 117 130 119
f 131 122 126
f 126 124 125
f 127 125 124
f 132 125 128
f 133 128 119
f 129 134 117
f 129 122 134
f 130 133 119
f 130 117 134
f 135 122 131
f 126 125 131
f 132 131 125
f 128 135 132
f 133 136 128
f 134 122 136
f 133 130 136
f 134 136 130
f 136 122 135
f 131 132 135
f 135 128 136
f 137 138 139
f 138 137 140
f 138 141 139
f 141 137 139
f 137 122 140
f 122 138 140
f 141 138 142
f 137 141 129
f 122 137 129
f 138 122 142
f 122 141 142
f 141 122 129
f 139 138 137
f 140 137 138
f 139 141 138
f 139 137 141
f 140 122 137
f 140 138 122
f 142 138 141
f 129 141 137
f 129 137 122
f 142 122 138
f 142 141 122
f 129 122 141
f 114 143 140
f 143 114 144
f 143 137 140
f 137 114 140
f 114 145 144
f 146 143 144
f 137 143 147
f 114 137 115
f 114 148 145
f 144 145 146
f 143 146 149
f 147 143 149
f 137 147 150
f 137 148 115
f 148 114 115
f 145 148 151
f 147 146 145
f 146 147 149
f 150 147 152
f 148 137 150
f 150 151 148
f 145 151 153
f 154 147 145
f 152 147 155
f 151 150 152
f 151 155 153
f 145 153 154
f 147 154 156
f 156 155 147
f 155 151 152
f 156 153 155
f 153 156 154
f 140 143 114
f 144 114 143
f 140 137 143
f 140 114 137
f 144 145 114
f 144 143 146
f 147 143 137
f 115 137 114
f 145 148 114
f 146 145 144
f 149 146 143
f 149 143 147
f 150 147 137
f 115 148 137
f 115 114 148
f 151 148 145
f 145 146 147
f 149 147 146
f 152 147 150
f 150 137 148
f 148 151 150
f 153 151 145
f 145 147 154
f 155 147 152
f 152 150 151
f 153 155 151
f 154 153 145
f 156 154 147
f 147 155 156
f 152 151 155
f 155 153 156
f 154 156 153
f 143 121 123
f 121 143 144
f 123 121 143
f 144 143 121
f 157 158 159
f 160 158 157
f 159 158 161
f 162 157 159
f 158 160 163
f 157 164 160
f 158 165 161
f 161 166 159
f 162 167 157
f 159 168 162
f 160 169 163
f 163 165 158
f 167 164 157
f 170 160 164
f 165 171 161
f 166 161 172
f 159 166 168
f 167 162 173
f 162 168 174
f 169 160 170
f 175 163 169
f 165 163 176
f 164 167 177
f 170 164 178
f 171 165 179
f 180 161 171
f 161 180 172
f 166 172 181
f 168 166 182
f 162 174 173
f 183 167 173
f 168 184 174
f 170 181 169
f 163 175 176
f 169 185 175
f 176 179 165
f 186 177 167
f 177 178 164
f 178 182 170
f 171 179 187
f 187 180 171
f 185 172 180
f 181 172 185
f 182 166 181
f 184 168 182
f 173 174 183
f 186 167 183
f 188 174 184
f 181 170 182
f 185 169 181
f 189 176 175
f 190 175 185
f 179 176 191
f 177 186 192
f 178 177 193
f 182 178 184
f 187 179 194
f 180 187 195
f 180 190 185
f 183 174 188
f 196 186 183
f 197 188 184
f 176 189 191
f 175 190 189
f 191 194 179
f 198 192 186
f 193 177 192
f 184 178 193
f 187 194 199
f 187 200 195
f 180 195 190
f 183 188 201
f 196 198 186
f 183 201 196
f 201 188 197
f 193 197 184
f 202 191 189
f 203 189 190
f 194 191 204
f 192 198 205
f 193 192 206
f 199 194 207
f 200 187 199
f 195 200 203
f 195 203 190
f 208 198 196
f 209 196 201
f 201 197 210
f 197 193 206
f 191 202 204
f 189 203 202
f 204 207 194
f 211 205 198
f 212 192 205
f 192 212 206
f 199 207 213
f 199 214 200
f 200 215 203
f 208 211 198
f 196 209 208
f 209 201 210
f 206 210 197
f 216 204 202
f 215 202 203
f 207 204 217
f 205 211 218
f 218 212 205
f 210 206 212
f 213 207 219
f 214 199 213
f 200 214 215
f 208 220 211
f 209 220 208
f 209 210 221
f 204 216 217
f 202 215 216
f 217 219 207
f 222 218 211
f 212 218 223
f 212 221 210
f 213 219 224
f 224 214 213
f 214 225 215
f 220 222 211
f 220 209 226
f 209 221 226
f 227 217 216
f 225 216 215
f 219 217 228
f 218 222 229
f 229 223 218
f 221 212 223
f 224 219 230
f 214 224 231
f 214 231 225
f 220 232 222
f 233 220 226
f 226 221 234
f 217 227 228
f 216 225 227
f 228 230 219
f 235 229 222
f 223 229 236
f 223 234 221
f 224 230 237
f 224 238 231
f 231 239 225
f 220 233 232
f 232 235 222
f 226 234 233
f 240 228 227
f 239 227 225
f 230 228 241
f 229 235 242
f 229 243 236
f 234 223 236
f 237 230 244
f 238 224 237
f 231 238 239
f 233 245 232
f 232 245 235
f 233 234 246
f 228 240 247
f 227 239 240
f 228 247 241
f 241 244 230
f 248 242 235
f 243 229 242
f 246 236 243
f 236 246 234
f 237 244 249
f 237 250 238
f 238 251 239
f 245 233 252
f 245 248 235
f 233 246 252
f 240 251 247
f 251 240 239
f 241 247 253
f 244 241 253
f 242 248 254
f 242 255 243
f 243 256 246
f 249 244 257
f 250 237 249
f 238 250 251
f 258 245 252
f 245 259 248
f 252 246 256
f 251 260 247
f 253 257 244
f 262 254 248
f 255 242 254
f 256 243 255
f 249 257 263
f 263 250 249
f 250 264 251
f 245 258 259
f 252 256 258
f 259 262 248
f 260 251 264
f 257 253 261
f 254 262 265
f 254 266 255
f 255 267 256
f 263 257 268
f 250 263 269
f 250 269 264
f 270 259 258
f 258 256 267
f 259 271 262
f 264 272 260
f 261 274 257
f 275 265 262
f 276 254 265
f 266 254 276
f 267 255 266
f 268 257 274
f 268 269 263
f 269 277 264
f 259 270 271
f 258 267 270
f 271 275 262
f 272 264 278
f 274 261 273
f 265 275 279
f 276 265 279
f 280 266 276
f 266 280 267
f 274 281 268
f 269 268 277
f 277 278 264
f 282 271 270
f 270 267 280
f 271 283 275
f 284 272 278
f 286 274 273
f 275 287 279
f 276 288 280
f 274 289 281
f 290 268 281
f 268 290 277
f 290 278 277
f 271 282 283
f 270 280 282
f 283 291 275
f 272 284 285
f 278 292 284
f 274 286 293
f 287 275 291
f 288 276 294
f 282 280 288
f 274 293 289
f 281 289 295
f 281 295 290
f 292 278 290
f 282 296 283
f 283 296 291
f 297 285 284
f 284 292 297
f 299 293 286
f 291 300 287
f 294 301 288
f 282 288 302
f 293 303 289
f 289 304 295
f 290 295 292
f 296 282 302
f 296 305 291
f 285 297 298
f 306 297 292
f 293 299 303
f 300 291 307
f 301 294 308
f 309 288 301
f 302 288 309
f 303 310 289
f 289 311 304
f 292 295 304
f 302 305 296
f 305 307 291
f 312 298 297
f 297 306 312
f 306 292 313
f 315 303 299
f 307 316 300
f 308 317 301
f 318 309 301
f 305 302 309
f 310 303 319
f 310 311 289
f 311 320 304
f 292 304 313
f 307 305 321
f 298 312 314
f 322 312 306
f 323 306 313
f 303 315 319
f 316 307 324
f 317 308 325
f 326 301 317
f 318 305 309
f 326 318 301
f 315 310 319
f 327 311 310
f 328 320 311
f 320 329 304
f 313 304 330
f 305 318 321
f 307 321 331
f 312 322 314
f 306 323 322
f 313 332 323
f 331 324 307
f 333 316 324
f 335 317 325
f 326 317 336
f 337 318 326
f 310 315 327
f 311 327 328
f 320 328 338
f 320 339 329
f 329 340 304
f 330 304 340
f 332 313 330
f 337 321 318
f 331 321 337
f 331 333 324
f 316 333 334
f 317 335 336
f 341 326 336
f 342 337 326
f 320 338 339
f 329 339 343
f 343 340 329
f 330 340 344
f 330 344 332
f 337 342 331
f 331 345 333
f 345 334 333
f 347 336 335
f 326 341 348
f 336 347 341
f 342 326 349
f 343 339 350
f 343 351 340
f 340 351 344
f 342 352 331
f 345 331 353
f 334 345 346
f 347 348 341
f 349 326 348
f 342 349 354
f 343 350 356
f 356 351 343
f 351 355 344
f 342 357 352
f 352 353 331
f 358 345 353
f 345 358 346
f 348 347 359
f 359 349 348
f 360 354 349
f 361 342 354
f 356 350 363
f 351 356 364
f 351 364 355
f 342 365 357
f 366 352 357
f 367 353 352
f 353 367 358
f 349 359 360
f 354 360 368
f 369 342 361
f 354 370 361
f 355 372 362
f 371 363 350
f 363 364 356
f 373 355 364
f 342 369 365
f 357 365 374
f 352 366 367
f 357 374 366
f 354 368 370
f 369 361 375
f 361 370 375
f 372 355 373
f 377 362 372
f 363 371 378
f 363 373 364
f 365 369 374
f 369 375 379
f 375 370 380
f 376 382 371
f 363 372 373
f 362 377 381
f 372 383 377
f 371 383 378
f 378 372 363
f 369 384 374
f 375 380 379
f 369 379 385
f 382 376 387
f 371 382 383
f 381 377 388
f 383 372 378
f 383 388 377
f 369 385 384
f 379 380 389
f 389 385 379
f 381 392 386
f 391 387 376
f 393 382 387
f 388 383 382
f 381 388 394
f 395 384 385
f 396 389 380
f 385 389 395
f 384 397 390
f 392 381 394
f 399 386 392
f 387 391 393
f 400 382 393
f 382 394 388
f 397 384 395
f 389 396 401
f 395 389 401
f 402 390 397
f 386 399 398
f 394 382 392
f 400 399 392
f 404 393 391
f 392 382 400
f 393 405 400
f 395 401 397
f 406 401 396
f 407 390 402
f 397 401 402
f 390 408 403
f 405 398 399
f 399 400 405
f 393 404 410
f 405 393 410
f 401 406 411
f 408 390 407
f 402 412 407
f 402 401 411
f 413 403 408
f 398 405 409
f 409 410 404
f 410 409 405
f 411 406 412
f 407 413 408
f 412 402 411
f 415 407 412
f 403 413 414
f 412 406 415
f 407 417 413
f 407 415 418
f 419 414 413
f 416 415 406
f 407 418 417
f 417 419 413
f 415 416 418
f 414 419 420
f 422 417 418
f 419 417 423
f 421 418 416
f 423 420 419
f 417 422 423
f 418 421 422
f 420 423 424
f 424 422 421
f 422 424 423
f 159 158 157
f 157 158 160
f 161 158 159
f 159 157 162
f 163 160 158
f 160 164 157
f 161 165 158
f 159 166 161
f 157 167 162
f 162 168 159
f 163 169 160
f 158 165 163
f 157 164 167
f 164 160 170
f 161 171 165
f 172 161 166
f 168 166 159
f 173 162 167
f 174 168 162
f 170 160 169
f 169 163 175
f 176 163 165
f 177 167 164
f 178 164 170
f 179 165 171
f 171 161 180
f 172 180 161
f 181 172 166
f 182 166 168
f 173 174 162
f 173 167 183
f 174 184 168
f 169 181 170
f 176 175 163
f 175 185 169
f 165 179 176
f 167 177 186
f 164 178 177
f 170 182 178
f 187 179 171
f 171 180 187
f 180 172 185
f 185 172 181
f 181 166 182
f 182 168 184
f 183 174 173
f 183 167 186
f 184 174 188
f 182 170 181
f 181 169 185
f 175 176 189
f 185 175 190
f 191 176 179
f 192 186 177
f 193 177 178
f 184 178 182
f 194 179 187
f 195 187 180
f 185 190 180
f 188 174 183
f 183 186 196
f 184 188 197
f 191 189 176
f 189 190 175
f 179 194 191
f 186 192 198
f 192 177 193
f 193 178 184
f 199 194 187
f 195 200 187
f 190 195 180
f 201 188 183
f 186 198 196
f 196 201 183
f 197 188 201
f 184 197 193
f 189 191 202
f 190 189 203
f 204 191 194
f 205 198 192
f 206 192 193
f 207 194 199
f 199 187 200
f 203 200 195
f 190 203 195
f 196 198 208
f 201 196 209
f 210 197 201
f 206 193 197
f 204 202 191
f 202 203 189
f 194 207 204
f 198 205 211
f 205 192 212
f 206 212 192
f 213 207 199
f 200 214 199
f 203 215 200
f 198 211 208
f 208 209 196
f 210 201 209
f 197 210 206
f 202 204 216
f 203 202 215
f 217 204 207
f 218 211 205
f 205 212 218
f 212 206 210
f 219 207 213
f 213 199 214
f 215 214 200
f 211 220 208
f 208 220 209
f 221 210 209
f 217 216 204
f 216 215 202
f 207 219 217
f 211 218 222
f 223 218 212
f 210 221 212
f 224 219 213
f 213 214 224
f 215 225 214
f 211 222 220
f 226 209 220
f 226 221 209
f 216 217 227
f 215 216 225
f 228 217 219
f 229 222 218
f 218 223 229
f 223 212 221
f 230 219 224
f 231 224 214
f 225 231 214
f 222 232 220
f 226 220 233
f 234 221 226
f 228 227 217
f 227 225 216
f 219 230 228
f 222 229 235
f 236 229 223
f 221 234 223
f 237 230 224
f 231 238 224
f 225 239 231
f 232 233 220
f 222 235 232
f 233 234 226
f 227 228 240
f 225 227 239
f 241 228 230
f 242 235 229
f 236 243 229
f 236 223 234
f 244 230 237
f 237 224 238
f 239 238 231
f 232 245 233
f 235 245 232
f 246 234 233
f 247 240 228
f 240 239 227
f 241 247 228
f 230 244 241
f 235 242 248
f 242 229 243
f 243 236 246
f 234 246 236
f 249 244 237
f 238 250 237
f 239 251 238
f 252 233 245
f 235 248 245
f 252 246 233
f 247 251 240
f 239 240 251
f 253 247 241
f 253 241 244
f 254 248 242
f 243 255 242
f 246 256 243
f 257 244 249
f 249 237 250
f 251 250 238
f 252 245 258
f 248 259 245
f 256 246 252
f 247 260 251
f 253 261 247
f 244 257 253
f 248 254 262
f 254 242 255
f 255 243 256
f 263 257 249
f 249 250 263
f 251 264 250
f 259 258 245
f 258 256 252
f 248 262 259
f 264 251 260
f 247 261 260
f 261 253 257
f 265 262 254
f 255 266 254
f 256 267 255
f 268 257 263
f 269 263 250
f 264 269 250
f 258 259 270
f 267 256 258
f 262 271 259
f 260 272 264
f 261 273 260
f 257 274 261
f 262 265 275
f 265 254 276
f 276 254 266
f 266 255 267
f 274 257 268
f 263 269 268
f 264 277 269
f 271 270 259
f 270 267 258
f 262 275 271
f 278 264 272
f 260 273 272
f 273 261 274
f 279 275 265
f 279 265 276
f 276 266 280
f 267 280 266
f 268 281 274
f 277 268 269
f 264 278 277
f 270 271 282
f 280 267 270
f 275 283 271
f 278 272 284
f 272 273 285
f 273 274 286
f 279 287 275
f 279 276 287
f 280 288 276
f 281 289 274
f 281 268 290
f 277 290 268
f 277 278 290
f 283 282 271
f 282 280 270
f 275 291 283
f 285 284 272
f 284 292 278
f 273 286 285
f 293 286 274
f 291 275 287
f 294 287 276
f 294 276 288
f 288 280 282
f 289 293 274
f 295 289 281
f 290 295 281
f 290 278 292
f 283 296 282
f 291 296 283
f 284 285 297
f 297 292 284
f 285 286 298
f 286 293 299
f 287 300 291
f 300 287 294
f 288 301 294
f 302 288 282
f 289 303 293
f 295 304 289
f 292 295 290
f 302 282 296
f 291 305 296
f 298 297 285
f 292 297 306
f 286 299 298
f 303 299 293
f 307 291 300
f 308 300 294
f 308 294 301
f 301 288 309
f 309 288 302
f 289 310 303
f 304 311 289
f 304 295 292
f 296 305 302
f 291 307 305
f 297 298 312
f 312 306 297
f 313 292 306
f 298 299 314
f 299 303 315
f 300 316 307
f 316 300 308
f 301 317 308
f 301 309 318
f 309 302 305
f 319 303 310
f 289 311 310
f 304 320 311
f 313 304 292
f 321 305 307
f 314 312 298
f 306 312 322
f 313 306 323
f 299 315 314
f 319 315 303
f 324 307 316
f 325 316 308
f 325 308 317
f 317 301 326
f 309 305 318
f 301 318 326
f 319 310 315
f 310 311 327
f 311 320 328
f 304 329 320
f 330 304 313
f 321 318 305
f 331 321 307
f 314 322 312
f 322 323 306
f 323 332 313
f 314 315 322
f 307 324 331
f 324 316 333
f 334 316 325
f 325 317 335
f 336 317 326
f 326 318 337
f 327 315 310
f 328 327 311
f 338 328 320
f 329 339 320
f 304 340 329
f 340 304 330
f 330 313 332
f 318 321 337
f 337 321 331
f 322 327 323
f 323 338 332
f 315 327 322
f 324 333 331
f 334 333 316
f 335 334 325
f 336 335 317
f 336 326 341
f 326 337 342
f 327 328 323
f 328 338 323
f 339 338 320
f 343 339 329
f 329 340 343
f 344 340 330
f 332 344 330
f 331 342 337
f 332 338 344
f 333 345 331
f 333 334 345
f 346 334 335
f 335 336 347
f 348 341 326
f 341 347 336
f 349 326 342
f 338 339 344
f 350 339 343
f 340 351 343
f 344 351 340
f 331 352 342
f 353 331 345
f 346 345 334
f 347 346 335
f 341 348 347
f 348 326 349
f 354 349 342
f 344 339 355
f 339 350 355
f 356 350 343
f 343 351 356
f 344 355 351
f 352 357 342
f 331 353 352
f 353 345 358
f 346 358 345
f 358 346 347
f 359 347 348
f 348 349 359
f 349 354 360
f 354 342 361
f 355 350 362
f 363 350 356
f 364 356 351
f 355 364 351
f 357 365 342
f 357 352 366
f 352 353 367
f 358 367 353
f 359 358 347
f 360 359 349
f 368 360 354
f 361 342 369
f 361 370 354
f 350 371 362
f 362 372 355
f 350 363 371
f 356 364 363
f 364 355 373
f 365 369 342
f 374 365 357
f 367 366 352
f 366 374 357
f 367 358 359
f 360 367 359
f 368 366 360
f 370 368 354
f 375 361 369
f 375 370 361
f 371 376 362
f 373 355 372
f 372 362 377
f 378 371 363
f 364 373 363
f 374 369 365
f 366 367 360
f 374 366 368
f 370 374 368
f 379 375 369
f 380 370 375
f 362 376 381
f 371 382 376
f 373 372 363
f 381 377 362
f 377 383 372
f 378 383 371
f 363 372 378
f 374 384 369
f 384 374 370
f 379 380 375
f 385 379 369
f 380 384 370
f 381 376 386
f 387 376 382
f 383 382 371
f 388 377 381
f 378 372 383
f 377 388 383
f 384 385 369
f 389 380 379
f 379 385 389
f 390 384 380
f 376 391 386
f 386 392 381
f 376 387 391
f 387 382 393
f 382 383 388
f 394 388 381
f 385 384 395
f 380 389 396
f 395 389 385
f 390 397 384
f 396 390 380
f 386 391 398
f 394 381 392
f 392 386 399
f 393 391 387
f 393 382 400
f 388 394 382
f 395 384 397
f 401 396 389
f 401 389 395
f 397 390 402
f 403 390 396
f 391 404 398
f 398 399 386
f 392 382 394
f 392 399 400
f 391 393 404
f 400 382 392
f 400 405 393
f 397 401 395
f 396 401 406
f 402 390 407
f 402 401 397
f 403 408 390
f 406 403 396
f 409 398 404
f 399 398 405
f 405 400 399
f 410 404 393
f 410 393 405
f 411 406 401
f 407 390 408
f 407 412 402
f 411 401 402
f 408 403 413
f 414 403 406
f 409 405 398
f 404 410 409
f 405 409 410
f 412 406 411
f 408 413 407
f 411 402 412
f 412 407 415
f 414 413 403
f 416 414 406
f 415 406 412
f 413 417 407
f 418 415 407
f 413 414 419
f 420 414 416
f 406 415 416
f 417 418 407
f 413 419 417
f 418 416 415
f 420 419 414
f 421 420 416
f 418 417 422
f 423 417 419
f 416 418 421
f 419 420 423
f 424 420 421
f 423 422 417
f 422 421 418
f 424 423 420
f 421 422 424
f 423 424 422
f 247 261 253
f 260 261 247
f 260 273 261
f 272 273 260
f 285 273 272
f 287 276 279
f 285 286 273
f 276 287 294
f 298 286 285
f 294 287 300
f 298 299 286
f 294 300 308
f 314 299 298
f 308 300 316
f 314 315 299
f 308 316 325
f 322 315 314
f 325 316 334
f 323 327 322
f 332 338 323
f 322 327 315
f 325 334 335
f 323 328 327
f 323 338 328
f 344 338 332
f 335 334 346
f 344 339 338
f 335 346 347
f 355 339 344
f 355 350 339
f 347 346 358
f 362 350 355
f 347 358 359
f 362 371 350
f 359 358 367
f 359 367 360
f 360 366 368
f 362 376 371
f 360 367 366
f 368 366 374
f 368 374 370
f 381 376 362
f 370 374 384
f 370 384 380
f 386 376 381
f 380 384 390
f 386 391 376
f 380 390 396
f 398 391 386
f 396 390 403
f 398 404 391
f 396 403 406
f 404 398 409
f 406 403 414
f 406 414 416
f 416 414 420
f 416 420 421
f 421 420 424

