# https://github.com/mikedh/trimesh
v 0.00181758 -0.15341101 -0.17424962
v 0.49814507 -0.15340989 0.17423839
v 0.49814507 -0.15341494 -0.17424962
v 0.00181758 -0.15341101 0.17423839
v 0.49814451 -0.17613291 0.17423839
v 0.49814451 -0.17613852 -0.17424962
v 0.00181702 -0.17613403 0.17423839
v 0.00181702 -0.17613459 -0.17424962
v 0.04737033 -0.21023541 -0.11581907
v 0.04547609 -0.20868711 -0.11885895
v 0.04737033 -0.20914368 -0.11909426
v 0.04547609 -0.20972774 -0.11573708
v 0.04547609 -0.20675861 -0.12149898
v 0.04926401 -0.20868711 -0.11885895
v 0.04737033 -0.21023541 -0.11269326
v 0.04408953 -0.20834117 -0.11551188
v 0.04737033 -0.20712196 -0.12186233
v 0.04408953 -0.20744038 -0.11821537
v 0.04926401 -0.20972774 -0.11573708
v 0.04926401 -0.20675861 -0.12149898
v 0.04547609 -0.20972774 -0.11269326
v 0.04737033 -0.20435389 -0.12388405
v 0.04408953 -0.20576629 -0.12050665
v 0.05065057 -0.20834117 -0.11551188
v 0.05065057 -0.20744038 -0.11821537
v 0.04547609 -0.20969909 -0.03124991
v 0.04926401 -0.20972774 -0.11269326
v 0.04358185 -0.20644749 -0.11520469
v 0.04408953 -0.20834117 -0.11269383
v 0.04547609 -0.20411858 -0.12342748
v 0.04926401 -0.20411858 -0.12342748
v 0.04358185 -0.20573652 -0.11733648
v 0.05065057 -0.20576629 -0.12050665
v 0.04737033 -0.21020677 -0.03116736
v 0.04926401 -0.20969909 -0.03124991
v 0.04737033 -0.20108095 -0.12497522
v 0.04926401 -0.20099839 -0.12446754
v 0.04358185 -0.20441117 -0.11915154
v 0.04408953 -0.20347500 -0.12218075
v 0.05115825 -0.20644749 -0.11520469
v 0.05065057 -0.20834117 -0.11269383
v 0.05115825 -0.20573652 -0.11733648
v 0.04547609 -0.20865903 -0.02812804
v 0.04408953 -0.20831309 -0.03147511
v 0.04408953 -0.20455325 -0.11489694
v 0.04358185 -0.20644749 -0.11269383
v 0.04547609 -0.20099839 -0.12446754
v 0.05065057 -0.20347500 -0.12218075
v 0.04408953 -0.20403322 -0.11645760
v 0.05115825 -0.20441117 -0.11915154
v 0.04926401 -0.20865903 -0.02812804
v 0.04737033 -0.20911504 -0.02789273
v 0.05065057 -0.20831309 -0.03147511
v 0.04736977 -0.17614751 -0.12500498
v 0.04926401 -0.17614695 -0.12449787
v 0.05065057 -0.20077263 -0.12308154
v 0.04408953 -0.20305549 -0.11779586
v 0.04358185 -0.20259611 -0.12047689
v 0.04408953 -0.20077263 -0.12308154
v 0.05065057 -0.20455325 -0.11489694
v 0.05115825 -0.20644749 -0.11269383
v 0.05065057 -0.20403322 -0.11645760
v 0.04547609 -0.20673053 -0.02548801
v 0.04408953 -0.20741174 -0.02877162
v 0.04358185 -0.20641885 -0.03178286
v 0.04547609 -0.20316669 -0.11467230
v 0.04408953 -0.20455325 -0.11269439
v 0.04547609 -0.17614695 -0.12449787
v 0.05115825 -0.20259611 -0.12047689
v 0.04547609 -0.20278593 -0.11581458
v 0.05065057 -0.20305549 -0.11779586
v 0.04926401 -0.20673053 -0.02548801
v 0.05065057 -0.20741174 -0.02877162
v 0.04737033 -0.20709332 -0.02512466
v 0.05115825 -0.20641885 -0.03178286
v 0.05065057 -0.17614526 -0.12311131
v 0.05115825 -0.20046432 -0.12118786
v 0.04547609 -0.20206317 -0.11680410
v 0.04408953 -0.20171723 -0.11877359
v 0.04358185 -0.20046432 -0.12118786
v 0.04408953 -0.17614526 -0.12311131
v 0.04926401 -0.20316669 -0.11467230
v 0.05065057 -0.20455325 -0.11269439
v 0.04926401 -0.20278593 -0.11581458
v 0.04737033 -0.20432525 -0.02310294
v 0.04408953 -0.20573821 -0.02648034
v 0.04358185 -0.20570844 -0.02965051
v 0.04408953 -0.20452517 -0.03209005
v 0.04737033 -0.20232992 -0.11557871
v 0.04547609 -0.20316669 -0.11269495
v 0.05065057 -0.20171723 -0.11877359
v 0.04737033 -0.20170038 -0.11644075
v 0.04926401 -0.20206317 -0.11680410
v 0.04926401 -0.20408994 -0.02355951
v 0.05065057 -0.20573821 -0.02648034
v 0.05115825 -0.20570844 -0.02965051
v 0.04547609 -0.20408994 -0.02355951
v 0.05065057 -0.20452517 -0.03209005
v 0.04737033 -0.20265957 -0.11458975
v 0.05115825 -0.17614302 -0.12121706
v 0.05065057 -0.20015545 -0.11929418
v 0.04737033 -0.20083834 -0.11707029
v 0.04547609 -0.20107421 -0.11752630
v 0.04408953 -0.20015545 -0.11929418
v 0.04358185 -0.17614302 -0.12121706
v 0.04926401 -0.20316669 -0.11269495
v 0.04737033 -0.20105231 -0.02201177
v 0.04926401 -0.20096975 -0.02251945
v 0.04408953 -0.20344636 -0.02480624
v 0.04358185 -0.20438253 -0.02783545
v 0.04408953 -0.20400458 -0.03052939
v 0.04547609 -0.20313861 -0.03231525
v 0.04737033 -0.20265957 -0.11269495
v 0.04926401 -0.20107365 -0.11752630
v 0.05065057 -0.20344636 -0.02480624
v 0.05115825 -0.20438253 -0.02783545
v 0.05065057 -0.20400458 -0.03052939
v 0.04547609 -0.20096975 -0.02251945
v 0.04737033 -0.20263093 -0.03239780
v 0.04926401 -0.20313861 -0.03231525
v 0.05065057 -0.17614077 -0.11932339
v 0.04926401 -0.19992969 -0.11790818
v 0.04737033 -0.19984714 -0.11740050
v 0.04547609 -0.19992969 -0.11790818
v 0.04408953 -0.17614077 -0.11932339
v 0.04737033 -0.17614751 -0.02198257
v 0.04926401 -0.17614695 -0.02249024
v 0.05065057 -0.20074399 -0.02390545
v 0.04408953 -0.20074399 -0.02390545
v 0.04358185 -0.20256804 -0.02651010
v 0.04408953 -0.20302742 -0.02919113
v 0.04547609 -0.20275785 -0.03117297
v 0.04737033 -0.20230128 -0.03140828
v 0.05115825 -0.20256747 -0.02651010
v 0.05065057 -0.20302742 -0.02919113
v 0.04926401 -0.20275785 -0.03117297
v 0.04547609 -0.17614695 -0.02249024
v 0.04926401 -0.17613909 -0.11793682
v 0.04736977 -0.17613852 -0.11742915
v 0.04547609 -0.17613909 -0.11793682
v 0.05065057 -0.17614526 -0.02387681
v 0.05115825 -0.20043568 -0.02579913
v 0.04408953 -0.17614526 -0.02387681
v 0.04358185 -0.20043568 -0.02579913
v 0.04408953 -0.20168915 -0.02821340
v 0.04547609 -0.20203509 -0.03018345
v 0.04737033 -0.20167174 -0.03054624
v 0.05065057 -0.20168915 -0.02821340
v 0.04926401 -0.20203509 -0.03018345
v 0.05115825 -0.17614302 -0.02577105
v 0.04358185 -0.17614302 -0.02577105
v 0.05065057 -0.20012737 -0.02769281
v 0.04408953 -0.20012737 -0.02769281
v 0.04547609 -0.20104557 -0.02946069
v 0.04737033 -0.20081026 -0.02991726
v 0.04926401 -0.20104557 -0.02946069
v 0.05065057 -0.17614077 -0.02766473
v 0.04408953 -0.17614077 -0.02766473
v 0.04926401 -0.19990161 -0.02907937
v 0.04547609 -0.19990161 -0.02907937
v 0.04737033 -0.19981849 -0.02958649
v 0.04926401 -0.17613909 -0.02905129
v 0.04547609 -0.17613909 -0.02905129
v 0.04737033 -0.17613852 -0.02955897
v -0.49810576 -0.15341494 -0.17424625
v -0.00177827 -0.15341382 0.17424119
v -0.00177827 -0.15341887 -0.17424625
v -0.49810576 -0.15341494 0.17424119
v -0.00177883 -0.17613684 0.17424119
v -0.00177883 -0.17614189 -0.17424625
v -0.49810632 -0.17613796 0.17424119
v -0.49810632 -0.17613852 -0.17424625
v -0.04733046 -0.21023541 -0.11581907
v -0.04922470 -0.20868711 -0.11885895
v -0.04733046 -0.20914368 -0.11909426
v -0.04922470 -0.20972774 -0.11573708
v -0.04922470 -0.20675861 -0.12149898
v -0.04543678 -0.20868711 -0.11885895
v -0.04733046 -0.21023541 -0.11269326
v -0.05061126 -0.20834117 -0.11551188
v -0.04733046 -0.20712196 -0.12186233
v -0.05061126 -0.20744038 -0.11821537
v -0.04543678 -0.20972774 -0.11573708
v -0.04543678 -0.20675861 -0.12149898
v -0.04922470 -0.20972774 -0.11269326
v -0.04733046 -0.20435389 -0.12388405
v -0.05061126 -0.20576629 -0.12050665
v -0.04405022 -0.20834117 -0.11551188
v -0.04405022 -0.20744038 -0.11821537
v -0.04922470 -0.20969909 -0.03124991
v -0.04543678 -0.20972774 -0.11269326
v -0.05111838 -0.20644749 -0.11520469
v -0.05061126 -0.20834117 -0.11269383
v -0.04922470 -0.20411858 -0.12342748
v -0.04543678 -0.20411858 -0.12342748
v -0.05111838 -0.20573652 -0.11733648
v -0.04405022 -0.20576629 -0.12050665
v -0.04733046 -0.21020677 -0.03116736
v -0.04543678 -0.20969909 -0.03124991
v -0.04733046 -0.20108095 -0.12497522
v -0.04543678 -0.20099839 -0.12446754
v -0.05111838 -0.20441117 -0.11915154
v -0.05061126 -0.20347500 -0.12218075
v -0.04354254 -0.20644749 -0.11520469
v -0.04405022 -0.20834117 -0.11269383
v -0.04354254 -0.20573652 -0.11733648
v -0.04922470 -0.20865903 -0.02812804
v -0.05061126 -0.20831309 -0.03147511
v -0.05061126 -0.20455325 -0.11489694
v -0.05111838 -0.20644749 -0.11269383
v -0.04922470 -0.20099839 -0.12446754
v -0.04405022 -0.20347500 -0.12218075
v -0.05061126 -0.20403322 -0.11645760
v -0.04354254 -0.20441117 -0.11915154
v -0.04543678 -0.20865903 -0.02812804
v -0.04733046 -0.20911504 -0.02789273
v -0.04405022 -0.20831309 -0.03147511
v -0.04733046 -0.17614751 -0.12500498
v -0.04543678 -0.17614695 -0.12449787
v -0.04405022 -0.20077263 -0.12308154
v -0.05061126 -0.20305549 -0.11779586
v -0.05111838 -0.20259611 -0.12047689
v -0.05061126 -0.20077263 -0.12308154
v -0.04405022 -0.20455325 -0.11489694
v -0.04354254 -0.20644749 -0.11269383
v -0.04405022 -0.20403322 -0.11645760
v -0.04922470 -0.20673053 -0.02548801
v -0.05061126 -0.20741174 -0.02877162
v -0.05111838 -0.20641885 -0.03178286
v -0.04922470 -0.20316669 -0.11467230
v -0.05061126 -0.20455325 -0.11269439
v -0.04922470 -0.17614695 -0.12449787
v -0.04354254 -0.20259611 -0.12047689
v -0.04922470 -0.20278593 -0.11581458
v -0.04405022 -0.20305549 -0.11779586
v -0.04543678 -0.20673053 -0.02548801
v -0.04405022 -0.20741174 -0.02877162
v -0.04733046 -0.20709332 -0.02512466
v -0.04354254 -0.20641885 -0.03178286
v -0.04405022 -0.17614526 -0.12311131
v -0.04354254 -0.20046432 -0.12118786
v -0.04922470 -0.20206317 -0.11680410
v -0.05061126 -0.20171723 -0.11877359
v -0.05111838 -0.20046432 -0.12118786
v -0.05061126 -0.17614526 -0.12311131
v -0.04543678 -0.20316669 -0.11467230
v -0.04405022 -0.20455325 -0.11269439
v -0.04543678 -0.20278593 -0.11581458
v -0.04733046 -0.20432525 -0.02310294
v -0.05061126 -0.20573821 -0.02648034
v -0.05111838 -0.20570844 -0.02965051
v -0.05061126 -0.20452517 -0.03209005
v -0.04733046 -0.20232992 -0.11557871
v -0.04922470 -0.20316669 -0.11269495
v -0.04405022 -0.20171723 -0.11877359
v -0.04733046 -0.20170038 -0.11644075
v -0.04543678 -0.20206317 -0.11680410
v -0.04543678 -0.20408994 -0.02355951
v -0.04405022 -0.20573821 -0.02648034
v -0.04354254 -0.20570844 -0.02965051
v -0.04922470 -0.20408994 -0.02355951
v -0.04405022 -0.20452517 -0.03209005
v -0.04733046 -0.20265957 -0.11458975
v -0.04354254 -0.17614302 -0.12121706
v -0.04405022 -0.20015545 -0.11929418
v -0.04733046 -0.20083834 -0.11707029
v -0.04922470 -0.20107421 -0.11752630
v -0.05061126 -0.20015545 -0.11929418
v -0.05111838 -0.17614302 -0.12121706
v -0.04543678 -0.20316669 -0.11269495
v -0.04733046 -0.20105231 -0.02201177
v -0.04543678 -0.20096975 -0.02251945
v -0.05061126 -0.20344636 -0.02480624
v -0.05111838 -0.20438253 -0.02783545
v -0.05061126 -0.20400458 -0.03052939
v -0.04922470 -0.20313861 -0.03231525
v -0.04733046 -0.20265957 -0.11269495
v -0.04543678 -0.20107365 -0.11752630
v -0.04405022 -0.20344636 -0.02480624
v -0.04354254 -0.20438253 -0.02783545
v -0.04405022 -0.20400458 -0.03052939
v -0.04922470 -0.20096975 -0.02251945
v -0.04733046 -0.20263093 -0.03239780
v -0.04543678 -0.20313861 -0.03231525
v -0.04405022 -0.17614077 -0.11932339
v -0.04543678 -0.19992969 -0.11790818
v -0.04733046 -0.19984714 -0.11740050
v -0.04922470 -0.19992969 -0.11790818
v -0.05061126 -0.17614077 -0.11932339
v -0.04733046 -0.17614751 -0.02198257
v -0.04543678 -0.17614695 -0.02249024
v -0.04405022 -0.20074399 -0.02390545
v -0.05061126 -0.20074399 -0.02390545
v -0.05111838 -0.20256804 -0.02651010
v -0.05061126 -0.20302742 -0.02919113
v -0.04922470 -0.20275785 -0.03117297
v -0.04733046 -0.20230128 -0.03140828
v -0.04354254 -0.20256747 -0.02651010
v -0.04405022 -0.20302742 -0.02919113
v -0.04543678 -0.20275785 -0.03117297
v -0.04922470 -0.17614695 -0.02249024
v -0.04543678 -0.17613909 -0.11793682
v -0.04733046 -0.17613852 -0.11742915
v -0.04922470 -0.17613909 -0.11793682
v -0.04405022 -0.17614526 -0.02387681
v -0.04354254 -0.20043568 -0.02579913
v -0.05061126 -0.17614526 -0.02387681
v -0.05111838 -0.20043568 -0.02579913
v -0.05061126 -0.20168915 -0.02821340
v -0.04922470 -0.20203509 -0.03018345
v -0.04733046 -0.20167174 -0.03054624
v -0.04405022 -0.20168915 -0.02821340
v -0.04543678 -0.20203509 -0.03018345
v -0.04354254 -0.17614302 -0.02577105
v -0.05111838 -0.17614302 -0.02577105
v -0.04405022 -0.20012737 -0.02769281
v -0.05061126 -0.20012737 -0.02769281
v -0.04922470 -0.20104557 -0.02946069
v -0.04733046 -0.20081026 -0.02991726
v -0.04543678 -0.20104557 -0.02946069
v -0.04405022 -0.17614077 -0.02766473
v -0.05061126 -0.17614077 -0.02766473
v -0.04543678 -0.19990161 -0.02907937
v -0.04922470 -0.19990161 -0.02907937
v -0.04733046 -0.19981849 -0.02958649
v -0.04543678 -0.17613909 -0.02905129
v -0.04922470 -0.17613909 -0.02905129
v -0.04733046 -0.17613852 -0.02955897
v 0.50000000 0.21023036 0.18182490
v 0.50000000 -0.15341999 -0.18182546
v 0.50000000 -0.15341999 0.18182490
v 0.50000000 0.21023036 -0.18182546
v 0.47727192 -0.15341999 -0.18182546
v 0.47727192 0.21023036 -0.18182546
v 0.47727192 0.21023036 0.18182490
v 0.47727192 -0.15341999 0.18182490
v -0.50000000 0.21023036 -0.18182546
v -0.50000000 -0.15341494 0.18182546
v -0.50000000 -0.15341494 -0.18182546
v -0.50000000 0.21023036 0.18182546
v -0.47727136 0.21023036 -0.18182546
v -0.47727136 -0.15341494 -0.18182546
v -0.47727136 0.21023036 0.18182490
v -0.47727136 -0.15341494 0.18182490
v -0.50000000 0.21023036 0.18182490
v -0.50000000 -0.15341494 0.18182490
v 0.47731123 0.17993037 -0.15909738
v -0.47727136 0.17993150 0.15909682
v -0.47727136 0.17993150 -0.15909738
v 0.47731123 0.17993037 0.15909682
v -0.47727136 0.18750734 0.15909682
v 0.47731123 0.18750621 -0.15909738
v 0.47731123 0.18750621 0.15909682
v -0.47727136 0.18750734 -0.15909738
v 0.47731067 0.21023541 -0.18182546
v -0.47727136 0.21023541 -0.18182546
v 0.47731067 -0.15341494 -0.18182546
v -0.47727136 0.21023541 -0.15909738
v 0.47731067 -0.15341494 -0.15909738
v -0.47727136 -0.15341494 -0.15909738
v 0.47731067 0.21023541 -0.15909738
v -0.47727136 0.21023541 0.15909682
v 0.47731123 -0.15341494 0.15909682
v -0.47727136 -0.15341494 0.15909682
v 0.47731123 0.21023541 0.15909682
v -0.47727136 0.21023541 0.18182490
v 0.47731123 -0.15341494 0.18182490
v 0.47731123 0.21023541 0.18182490
v -0.47727136 0.21023036 -0.03788060
v -0.47727136 0.18750228 -0.15909738
v -0.47727136 0.18750228 -0.03788060
v -0.47727136 0.21023036 -0.15909738
v 0.47731123 0.18750228 -0.15909738
v 0.47731123 0.18750228 -0.03788060
v 0.47731123 0.21023036 -0.15909738
v 0.47731123 0.21023036 -0.03788060
v -0.47727136 0.18750734 0.03788003
v -0.47727136 0.21023541 0.03788003
v 0.47731123 0.18750734 0.03788003
v 0.47731123 0.21023541 0.03788003
v 0.47731123 0.18750734 0.15909682
v 0.47731123 -0.15341494 0.04107267
v -0.47727136 0.17993150 0.04107267
v -0.47727136 -0.15341494 0.04107267
v 0.47731123 0.17993150 0.04107267
v -0.47727136 -0.15341494 0.01834459
v 0.47731123 -0.15341494 0.01834459
v 0.47731123 0.17993150 0.01834459
v -0.47727136 0.17993150 0.01834459
f 1 2 3
f 2 1 4
f 3 2 1
f 4 1 2
f 5 3 2
f 2 3 5
f 6 1 3
f 3 1 6
f 1 7 4
f 4 7 1
f 4 5 2
f 2 5 4
f 3 5 6
f 6 5 3
f 1 6 8
f 8 6 1
f 7 1 8
f 8 1 7
f 5 4 7
f 7 4 5
f 5 8 6
f 6 8 5
f 8 5 7
f 7 5 8
f 9 10 11
f 10 9 12
f 11 10 9
f 12 9 10
f 13 11 10
f 10 11 13
f 14 9 11
f 11 9 14
f 15 12 9
f 9 12 15
f 16 10 12
f 12 10 16
f 11 13 17
f 17 13 11
f 18 13 10
f 10 13 18
f 9 14 19
f 19 14 9
f 11 20 14
f 14 20 11
f 12 15 21
f 21 15 12
f 19 15 9
f 9 15 19
f 10 16 18
f 18 16 10
f 21 16 12
f 12 16 21
f 13 22 17
f 17 22 13
f 20 11 17
f 17 11 20
f 13 18 23
f 23 18 13
f 14 24 19
f 19 24 14
f 20 25 14
f 14 25 20
f 15 26 21
f 21 26 15
f 15 19 27
f 27 19 15
f 28 18 16
f 16 18 28
f 16 21 29
f 29 21 16
f 22 13 30
f 30 13 22
f 31 17 22
f 22 17 31
f 17 31 20
f 20 31 17
f 32 23 18
f 18 23 32
f 23 30 13
f 13 30 23
f 24 14 25
f 25 14 24
f 24 27 19
f 19 27 24
f 25 20 33
f 33 20 25
f 26 15 34
f 34 15 26
f 26 29 21
f 21 29 26
f 35 15 27
f 27 15 35
f 18 28 32
f 32 28 18
f 29 28 16
f 16 28 29
f 30 36 22
f 22 36 30
f 22 37 31
f 31 37 22
f 31 33 20
f 20 33 31
f 23 32 38
f 38 32 23
f 30 23 39
f 39 23 30
f 25 40 24
f 24 40 25
f 27 24 41
f 41 24 27
f 33 42 25
f 25 42 33
f 15 35 34
f 34 35 15
f 34 43 26
f 26 43 34
f 29 26 44
f 44 26 29
f 41 35 27
f 27 35 41
f 45 32 28
f 28 32 45
f 28 29 46
f 46 29 28
f 36 30 47
f 47 30 36
f 37 22 36
f 36 22 37
f 37 48 31
f 31 48 37
f 33 31 48
f 48 31 33
f 49 38 32
f 32 38 49
f 38 39 23
f 23 39 38
f 39 47 30
f 30 47 39
f 40 25 42
f 42 25 40
f 40 41 24
f 24 41 40
f 42 33 50
f 50 33 42
f 51 34 35
f 35 34 51
f 43 34 52
f 52 34 43
f 43 44 26
f 26 44 43
f 44 46 29
f 29 46 44
f 35 41 53
f 53 41 35
f 32 45 49
f 49 45 32
f 46 45 28
f 28 45 46
f 47 54 36
f 36 54 47
f 36 55 37
f 37 55 36
f 48 37 56
f 56 37 48
f 48 50 33
f 33 50 48
f 38 49 57
f 57 49 38
f 39 38 58
f 58 38 39
f 47 39 59
f 59 39 47
f 42 60 40
f 40 60 42
f 41 40 61
f 61 40 41
f 50 62 42
f 42 62 50
f 34 51 52
f 52 51 34
f 53 51 35
f 35 51 53
f 52 63 43
f 43 63 52
f 44 43 64
f 64 43 44
f 46 44 65
f 65 44 46
f 61 53 41
f 41 53 61
f 66 49 45
f 45 49 66
f 45 46 67
f 67 46 45
f 54 47 68
f 68 47 54
f 55 36 54
f 54 36 55
f 55 56 37
f 37 56 55
f 56 69 48
f 48 69 56
f 50 48 69
f 69 48 50
f 70 57 49
f 49 57 70
f 57 58 38
f 38 58 57
f 58 59 39
f 39 59 58
f 59 68 47
f 47 68 59
f 60 42 62
f 62 42 60
f 60 61 40
f 40 61 60
f 62 50 71
f 71 50 62
f 72 52 51
f 51 52 72
f 51 53 73
f 73 53 51
f 63 52 74
f 74 52 63
f 63 64 43
f 43 64 63
f 64 65 44
f 44 65 64
f 65 67 46
f 46 67 65
f 53 61 75
f 75 61 53
f 49 66 70
f 70 66 49
f 67 66 45
f 45 66 67
f 68 55 54
f 54 55 68
f 56 55 76
f 76 55 56
f 69 56 77
f 77 56 69
f 69 71 50
f 50 71 69
f 57 70 78
f 78 70 57
f 58 57 79
f 79 57 58
f 59 58 80
f 80 58 59
f 68 59 81
f 81 59 68
f 62 82 60
f 60 82 62
f 61 60 83
f 83 60 61
f 71 84 62
f 62 84 71
f 52 72 74
f 74 72 52
f 73 72 51
f 51 72 73
f 75 73 53
f 53 73 75
f 85 63 74
f 74 63 85
f 64 63 86
f 86 63 64
f 65 64 87
f 87 64 65
f 67 65 88
f 88 65 67
f 83 75 61
f 61 75 83
f 66 89 70
f 70 89 66
f 66 67 90
f 90 67 66
f 55 68 76
f 76 68 55
f 76 77 56
f 56 77 76
f 77 91 69
f 69 91 77
f 71 69 91
f 91 69 71
f 70 92 78
f 78 92 70
f 78 79 57
f 57 79 78
f 79 80 58
f 58 80 79
f 80 81 59
f 59 81 80
f 76 68 81
f 81 68 76
f 82 62 84
f 84 62 82
f 82 83 60
f 60 83 82
f 84 71 93
f 93 71 84
f 94 74 72
f 72 74 94
f 72 73 95
f 95 73 72
f 73 75 96
f 96 75 73
f 63 85 97
f 97 85 63
f 74 94 85
f 85 94 74
f 97 86 63
f 63 86 97
f 86 87 64
f 64 87 86
f 87 88 65
f 65 88 87
f 88 90 67
f 67 90 88
f 75 83 98
f 98 83 75
f 89 66 99
f 99 66 89
f 92 70 89
f 89 70 92
f 90 99 66
f 66 99 90
f 77 76 100
f 100 76 77
f 91 77 101
f 101 77 91
f 91 93 71
f 71 93 91
f 102 78 92
f 92 78 102
f 79 78 103
f 103 78 79
f 80 79 104
f 104 79 80
f 81 80 105
f 105 80 81
f 76 81 100
f 100 81 76
f 89 82 84
f 84 82 89
f 83 82 106
f 106 82 83
f 92 84 93
f 93 84 92
f 95 94 72
f 72 94 95
f 96 95 73
f 73 95 96
f 98 96 75
f 75 96 98
f 107 97 85
f 85 97 107
f 108 85 94
f 94 85 108
f 86 97 109
f 109 97 86
f 87 86 110
f 110 86 87
f 88 87 111
f 111 87 88
f 90 88 112
f 112 88 90
f 106 98 83
f 83 98 106
f 82 89 99
f 99 89 82
f 84 92 89
f 89 92 84
f 99 90 113
f 113 90 99
f 100 101 77
f 77 101 100
f 101 114 91
f 91 114 101
f 93 91 114
f 114 91 93
f 78 102 103
f 103 102 78
f 92 114 102
f 102 114 92
f 103 104 79
f 79 104 103
f 104 105 80
f 80 105 104
f 100 81 105
f 105 81 100
f 99 106 82
f 82 106 99
f 114 92 93
f 93 92 114
f 94 95 115
f 115 95 94
f 95 96 116
f 116 96 95
f 96 98 117
f 117 98 96
f 97 107 118
f 118 107 97
f 85 108 107
f 107 108 85
f 115 108 94
f 94 108 115
f 118 109 97
f 97 109 118
f 109 110 86
f 86 110 109
f 110 111 87
f 87 111 110
f 111 112 88
f 88 112 111
f 119 90 112
f 112 90 119
f 98 106 120
f 120 106 98
f 90 119 113
f 113 119 90
f 106 99 113
f 113 99 106
f 101 100 121
f 121 100 101
f 114 101 122
f 122 101 114
f 123 103 102
f 102 103 123
f 122 102 114
f 114 102 122
f 104 103 124
f 124 103 104
f 105 104 125
f 125 104 105
f 100 105 121
f 121 105 100
f 116 115 95
f 95 115 116
f 117 116 96
f 96 116 117
f 120 117 98
f 98 117 120
f 126 118 107
f 107 118 126
f 127 107 108
f 108 107 127
f 108 115 128
f 128 115 108
f 109 118 129
f 129 118 109
f 110 109 130
f 130 109 110
f 111 110 131
f 131 110 111
f 112 111 132
f 132 111 112
f 112 133 119
f 119 133 112
f 106 119 120
f 120 119 106
f 119 106 113
f 113 106 119
f 121 122 101
f 101 122 121
f 103 123 124
f 124 123 103
f 102 122 123
f 123 122 102
f 124 125 104
f 104 125 124
f 121 105 125
f 125 105 121
f 115 116 134
f 134 116 115
f 116 117 135
f 135 117 116
f 117 120 136
f 136 120 117
f 118 126 137
f 137 126 118
f 107 127 126
f 126 127 107
f 128 127 108
f 108 127 128
f 134 128 115
f 115 128 134
f 137 129 118
f 118 129 137
f 129 130 109
f 109 130 129
f 130 131 110
f 110 131 130
f 131 132 111
f 111 132 131
f 133 112 132
f 132 112 133
f 133 120 119
f 119 120 133
f 122 121 138
f 138 121 122
f 139 124 123
f 123 124 139
f 138 123 122
f 122 123 138
f 125 124 140
f 140 124 125
f 121 125 138
f 138 125 121
f 135 134 116
f 116 134 135
f 136 135 117
f 117 135 136
f 120 133 136
f 136 133 120
f 127 137 126
f 126 137 127
f 127 128 141
f 141 128 127
f 128 134 142
f 142 134 128
f 129 137 143
f 143 137 129
f 130 129 144
f 144 129 130
f 131 130 145
f 145 130 131
f 132 131 146
f 146 131 132
f 132 147 133
f 133 147 132
f 124 139 140
f 140 139 124
f 123 138 139
f 139 138 123
f 138 125 140
f 140 125 138
f 134 135 148
f 148 135 134
f 135 136 149
f 149 136 135
f 147 136 133
f 133 136 147
f 127 143 137
f 137 143 127
f 142 141 128
f 128 141 142
f 141 143 127
f 127 143 141
f 148 142 134
f 134 142 148
f 143 144 129
f 129 144 143
f 144 145 130
f 130 145 144
f 145 146 131
f 131 146 145
f 147 132 146
f 146 132 147
f 138 140 139
f 139 140 138
f 149 148 135
f 135 148 149
f 136 147 149
f 149 147 136
f 141 142 150
f 150 142 141
f 141 151 143
f 143 151 141
f 142 148 152
f 152 148 142
f 144 143 151
f 151 143 144
f 145 144 153
f 153 144 145
f 146 145 154
f 154 145 146
f 146 155 147
f 147 155 146
f 148 149 156
f 156 149 148
f 147 156 149
f 149 156 147
f 152 150 142
f 142 150 152
f 150 151 141
f 141 151 150
f 156 152 148
f 148 152 156
f 151 153 144
f 144 153 151
f 153 154 145
f 145 154 153
f 155 146 154
f 154 146 155
f 156 147 155
f 155 147 156
f 150 152 157
f 157 152 150
f 150 158 151
f 151 158 150
f 152 156 159
f 159 156 152
f 153 151 158
f 158 151 153
f 154 153 160
f 160 153 154
f 154 161 155
f 155 161 154
f 155 159 156
f 156 159 155
f 159 157 152
f 152 157 159
f 157 158 150
f 150 158 157
f 158 160 153
f 153 160 158
f 161 154 160
f 160 154 161
f 159 155 161
f 161 155 159
f 157 159 162
f 162 159 157
f 157 163 158
f 158 163 157
f 160 158 163
f 163 158 160
f 160 164 161
f 161 164 160
f 161 162 159
f 159 162 161
f 162 163 157
f 157 163 162
f 164 160 163
f 163 160 164
f 162 161 164
f 164 161 162
f 163 162 164
f 164 162 163
f 165 166 167
f 166 165 168
f 167 166 165
f 168 165 166
f 169 167 166
f 166 167 169
f 170 165 167
f 167 165 170
f 165 171 168
f 168 171 165
f 168 169 166
f 166 169 168
f 167 169 170
f 170 169 167
f 165 170 172
f 172 170 165
f 171 165 172
f 172 165 171
f 169 168 171
f 171 168 169
f 169 172 170
f 170 172 169
f 172 169 171
f 171 169 172
f 173 174 175
f 174 173 176
f 175 174 173
f 176 173 174
f 177 175 174
f 174 175 177
f 178 173 175
f 175 173 178
f 179 176 173
f 173 176 179
f 180 174 176
f 176 174 180
f 175 177 181
f 181 177 175
f 182 177 174
f 174 177 182
f 173 178 183
f 183 178 173
f 175 184 178
f 178 184 175
f 176 179 185
f 185 179 176
f 183 179 173
f 173 179 183
f 174 180 182
f 182 180 174
f 185 180 176
f 176 180 185
f 177 186 181
f 181 186 177
f 184 175 181
f 181 175 184
f 177 182 187
f 187 182 177
f 178 188 183
f 183 188 178
f 184 189 178
f 178 189 184
f 179 190 185
f 185 190 179
f 179 183 191
f 191 183 179
f 192 182 180
f 180 182 192
f 180 185 193
f 193 185 180
f 186 177 194
f 194 177 186
f 195 181 186
f 186 181 195
f 181 195 184
f 184 195 181
f 196 187 182
f 182 187 196
f 187 194 177
f 177 194 187
f 188 178 189
f 189 178 188
f 188 191 183
f 183 191 188
f 189 184 197
f 197 184 189
f 190 179 198
f 198 179 190
f 190 193 185
f 185 193 190
f 199 179 191
f 191 179 199
f 182 192 196
f 196 192 182
f 193 192 180
f 180 192 193
f 194 200 186
f 186 200 194
f 186 201 195
f 195 201 186
f 195 197 184
f 184 197 195
f 187 196 202
f 202 196 187
f 194 187 203
f 203 187 194
f 189 204 188
f 188 204 189
f 191 188 205
f 205 188 191
f 197 206 189
f 189 206 197
f 179 199 198
f 198 199 179
f 198 207 190
f 190 207 198
f 193 190 208
f 208 190 193
f 205 199 191
f 191 199 205
f 209 196 192
f 192 196 209
f 192 193 210
f 210 193 192
f 200 194 211
f 211 194 200
f 201 186 200
f 200 186 201
f 201 212 195
f 195 212 201
f 197 195 212
f 212 195 197
f 213 202 196
f 196 202 213
f 202 203 187
f 187 203 202
f 203 211 194
f 194 211 203
f 204 189 206
f 206 189 204
f 204 205 188
f 188 205 204
f 206 197 214
f 214 197 206
f 215 198 199
f 199 198 215
f 207 198 216
f 216 198 207
f 207 208 190
f 190 208 207
f 208 210 193
f 193 210 208
f 199 205 217
f 217 205 199
f 196 209 213
f 213 209 196
f 210 209 192
f 192 209 210
f 211 218 200
f 200 218 211
f 200 219 201
f 201 219 200
f 212 201 220
f 220 201 212
f 212 214 197
f 197 214 212
f 202 213 221
f 221 213 202
f 203 202 222
f 222 202 203
f 211 203 223
f 223 203 211
f 206 224 204
f 204 224 206
f 205 204 225
f 225 204 205
f 214 226 206
f 206 226 214
f 198 215 216
f 216 215 198
f 217 215 199
f 199 215 217
f 216 227 207
f 207 227 216
f 208 207 228
f 228 207 208
f 210 208 229
f 229 208 210
f 225 217 205
f 205 217 225
f 230 213 209
f 209 213 230
f 209 210 231
f 231 210 209
f 218 211 232
f 232 211 218
f 219 200 218
f 218 200 219
f 219 220 201
f 201 220 219
f 220 233 212
f 212 233 220
f 214 212 233
f 233 212 214
f 234 221 213
f 213 221 234
f 221 222 202
f 202 222 221
f 222 223 203
f 203 223 222
f 223 232 211
f 211 232 223
f 224 206 226
f 226 206 224
f 224 225 204
f 204 225 224
f 226 214 235
f 235 214 226
f 236 216 215
f 215 216 236
f 215 217 237
f 237 217 215
f 227 216 238
f 238 216 227
f 227 228 207
f 207 228 227
f 228 229 208
f 208 229 228
f 229 231 210
f 210 231 229
f 217 225 239
f 239 225 217
f 213 230 234
f 234 230 213
f 231 230 209
f 209 230 231
f 232 219 218
f 218 219 232
f 220 219 240
f 240 219 220
f 233 220 241
f 241 220 233
f 233 235 214
f 214 235 233
f 221 234 242
f 242 234 221
f 222 221 243
f 243 221 222
f 223 222 244
f 244 222 223
f 232 223 245
f 245 223 232
f 226 246 224
f 224 246 226
f 225 224 247
f 247 224 225
f 235 248 226
f 226 248 235
f 216 236 238
f 238 236 216
f 237 236 215
f 215 236 237
f 239 237 217
f 217 237 239
f 249 227 238
f 238 227 249
f 228 227 250
f 250 227 228
f 229 228 251
f 251 228 229
f 231 229 252
f 252 229 231
f 247 239 225
f 225 239 247
f 230 253 234
f 234 253 230
f 230 231 254
f 254 231 230
f 219 232 240
f 240 232 219
f 240 241 220
f 220 241 240
f 241 255 233
f 233 255 241
f 235 233 255
f 255 233 235
f 234 256 242
f 242 256 234
f 242 243 221
f 221 243 242
f 243 244 222
f 222 244 243
f 244 245 223
f 223 245 244
f 240 232 245
f 245 232 240
f 246 226 248
f 248 226 246
f 246 247 224
f 224 247 246
f 248 235 257
f 257 235 248
f 258 238 236
f 236 238 258
f 236 237 259
f 259 237 236
f 237 239 260
f 260 239 237
f 227 249 261
f 261 249 227
f 238 258 249
f 249 258 238
f 261 250 227
f 227 250 261
f 250 251 228
f 228 251 250
f 251 252 229
f 229 252 251
f 252 254 231
f 231 254 252
f 239 247 262
f 262 247 239
f 253 230 263
f 263 230 253
f 256 234 253
f 253 234 256
f 254 263 230
f 230 263 254
f 241 240 264
f 264 240 241
f 255 241 265
f 265 241 255
f 255 257 235
f 235 257 255
f 266 242 256
f 256 242 266
f 243 242 267
f 267 242 243
f 244 243 268
f 268 243 244
f 245 244 269
f 269 244 245
f 240 245 264
f 264 245 240
f 253 246 248
f 248 246 253
f 247 246 270
f 270 246 247
f 256 248 257
f 257 248 256
f 259 258 236
f 236 258 259
f 260 259 237
f 237 259 260
f 262 260 239
f 239 260 262
f 271 261 249
f 249 261 271
f 272 249 258
f 258 249 272
f 250 261 273
f 273 261 250
f 251 250 274
f 274 250 251
f 252 251 275
f 275 251 252
f 254 252 276
f 276 252 254
f 270 262 247
f 247 262 270
f 246 253 263
f 263 253 246
f 248 256 253
f 253 256 248
f 263 254 277
f 277 254 263
f 264 265 241
f 241 265 264
f 265 278 255
f 255 278 265
f 257 255 278
f 278 255 257
f 242 266 267
f 267 266 242
f 256 278 266
f 266 278 256
f 267 268 243
f 243 268 267
f 268 269 244
f 244 269 268
f 264 245 269
f 269 245 264
f 263 270 246
f 246 270 263
f 278 256 257
f 257 256 278
f 258 259 279
f 279 259 258
f 259 260 280
f 280 260 259
f 260 262 281
f 281 262 260
f 261 271 282
f 282 271 261
f 249 272 271
f 271 272 249
f 279 272 258
f 258 272 279
f 282 273 261
f 261 273 282
f 273 274 250
f 250 274 273
f 274 275 251
f 251 275 274
f 275 276 252
f 252 276 275
f 283 254 276
f 276 254 283
f 262 270 284
f 284 270 262
f 254 283 277
f 277 283 254
f 270 263 277
f 277 263 270
f 265 264 285
f 285 264 265
f 278 265 286
f 286 265 278
f 287 267 266
f 266 267 287
f 286 266 278
f 278 266 286
f 268 267 288
f 288 267 268
f 269 268 289
f 289 268 269
f 264 269 285
f 285 269 264
f 280 279 259
f 259 279 280
f 281 280 260
f 260 280 281
f 284 281 262
f 262 281 284
f 290 282 271
f 271 282 290
f 291 271 272
f 272 271 291
f 272 279 292
f 292 279 272
f 273 282 293
f 293 282 273
f 274 273 294
f 294 273 274
f 275 274 295
f 295 274 275
f 276 275 296
f 296 275 276
f 276 297 283
f 283 297 276
f 270 283 284
f 284 283 270
f 283 270 277
f 277 270 283
f 285 286 265
f 265 286 285
f 267 287 288
f 288 287 267
f 266 286 287
f 287 286 266
f 288 289 268
f 268 289 288
f 285 269 289
f 289 269 285
f 279 280 298
f 298 280 279
f 280 281 299
f 299 281 280
f 281 284 300
f 300 284 281
f 282 290 301
f 301 290 282
f 271 291 290
f 290 291 271
f 292 291 272
f 272 291 292
f 298 292 279
f 279 292 298
f 301 293 282
f 282 293 301
f 293 294 273
f 273 294 293
f 294 295 274
f 274 295 294
f 295 296 275
f 275 296 295
f 297 276 296
f 296 276 297
f 297 284 283
f 283 284 297
f 286 285 302
f 302 285 286
f 303 288 287
f 287 288 303
f 302 287 286
f 286 287 302
f 289 288 304
f 304 288 289
f 285 289 302
f 302 289 285
f 299 298 280
f 280 298 299
f 300 299 281
f 281 299 300
f 284 297 300
f 300 297 284
f 291 301 290
f 290 301 291
f 291 292 305
f 305 292 291
f 292 298 306
f 306 298 292
f 293 301 307
f 307 301 293
f 294 293 308
f 308 293 294
f 295 294 309
f 309 294 295
f 296 295 310
f 310 295 296
f 296 311 297
f 297 311 296
f 288 303 304
f 304 303 288
f 287 302 303
f 303 302 287
f 302 289 304
f 304 289 302
f 298 299 312
f 312 299 298
f 299 300 313
f 313 300 299
f 311 300 297
f 297 300 311
f 291 307 301
f 301 307 291
f 306 305 292
f 292 305 306
f 305 307 291
f 291 307 305
f 312 306 298
f 298 306 312
f 307 308 293
f 293 308 307
f 308 309 294
f 294 309 308
f 309 310 295
f 295 310 309
f 311 296 310
f 310 296 311
f 302 304 303
f 303 304 302
f 313 312 299
f 299 312 313
f 300 311 313
f 313 311 300
f 305 306 314
f 314 306 305
f 305 315 307
f 307 315 305
f 306 312 316
f 316 312 306
f 308 307 315
f 315 307 308
f 309 308 317
f 317 308 309
f 310 309 318
f 318 309 310
f 310 319 311
f 311 319 310
f 312 313 320
f 320 313 312
f 311 320 313
f 313 320 311
f 316 314 306
f 306 314 316
f 314 315 305
f 305 315 314
f 320 316 312
f 312 316 320
f 315 317 308
f 308 317 315
f 317 318 309
f 309 318 317
f 319 310 318
f 318 310 319
f 320 311 319
f 319 311 320
f 314 316 321
f 321 316 314
f 314 322 315
f 315 322 314
f 316 320 323
f 323 320 316
f 317 315 322
f 322 315 317
f 318 317 324
f 324 317 318
f 318 325 319
f 319 325 318
f 319 323 320
f 320 323 319
f 323 321 316
f 316 321 323
f 321 322 314
f 314 322 321
f 322 324 317
f 317 324 322
f 325 318 324
f 324 318 325
f 323 319 325
f 325 319 323
f 321 323 326
f 326 323 321
f 321 327 322
f 322 327 321
f 324 322 327
f 327 322 324
f 324 328 325
f 325 328 324
f 325 326 323
f 323 326 325
f 326 327 321
f 321 327 326
f 328 324 327
f 327 324 328
f 326 325 328
f 328 325 326
f 327 326 328
f 328 326 327
f 329 330 331
f 330 329 332
f 331 330 329
f 332 329 330
f 332 333 334
f 333 332 330
f 334 333 332
f 330 332 333
f 333 335 334
f 334 335 333
f 331 333 330
f 330 333 331
f 335 333 336
f 336 333 335
f 333 331 336
f 336 331 333
f 335 332 334
f 334 332 335
f 332 335 329
f 329 335 332
f 336 329 335
f 335 329 336
f 329 336 331
f 331 336 329
f 337 338 339
f 338 337 340
f 339 338 337
f 340 337 338
f 341 339 337
f 339 341 342
f 337 339 341
f 342 341 339
f 341 344 342
f 342 344 341
f 344 339 342
f 342 339 344
f 344 341 343
f 343 341 344
f 339 344 346
f 346 344 339
f 337 343 341
f 341 343 337
f 343 337 345
f 345 337 343
f 346 343 345
f 345 343 346
f 343 346 344
f 344 346 343
f 347 348 349
f 348 347 350
f 349 348 347
f 350 347 348
f 351 349 348
f 348 349 351
f 349 352 347
f 347 352 349
f 347 353 350
f 350 353 347
f 353 348 350
f 350 348 353
f 349 351 354
f 354 351 349
f 348 353 351
f 351 353 348
f 352 349 354
f 354 349 352
f 353 347 352
f 352 347 353
f 351 352 354
f 354 352 351
f 352 351 353
f 353 351 352
f 355 342 356
f 342 355 357
f 356 342 355
f 357 355 342
f 342 358 356
f 356 358 342
f 355 359 357
f 357 359 355
f 359 342 357
f 357 342 359
f 358 342 360
f 360 342 358
f 359 355 361
f 361 355 359
f 342 359 360
f 360 359 342
f 360 361 358
f 358 361 360
f 361 360 359
f 359 360 361
f 358 355 356
f 356 355 358
f 355 358 361
f 361 358 355
f 362 363 364
f 363 362 365
f 364 363 362
f 365 362 363
f 363 344 364
f 364 344 363
f 364 366 362
f 362 366 364
f 365 367 363
f 363 367 365
f 344 363 367
f 367 363 344
f 366 364 344
f 344 364 366
f 367 365 368
f 368 365 367
f 366 365 362
f 362 365 366
f 365 366 368
f 368 366 365
f 367 366 344
f 344 366 367
f 366 367 368
f 368 367 366
f 369 370 371
f 370 369 372
f 371 370 369
f 372 369 370
f 373 371 370
f 370 371 373
f 374 369 371
f 371 369 374
f 369 375 372
f 372 375 369
f 375 370 372
f 372 370 375
f 371 373 374
f 374 373 371
f 370 375 373
f 373 375 370
f 369 374 376
f 376 374 369
f 375 369 376
f 376 369 375
f 373 376 374
f 374 376 373
f 376 373 375
f 375 373 376
f 362 377 351
f 377 362 378
f 351 377 362
f 378 362 377
f 379 351 377
f 377 351 379
f 351 365 362
f 362 365 351
f 362 380 378
f 378 380 362
f 380 377 378
f 378 377 380
f 351 379 381
f 381 379 351
f 377 380 379
f 379 380 377
f 365 351 381
f 381 351 365
f 380 362 365
f 365 362 380
f 380 381 379
f 379 381 380
f 381 380 365
f 365 380 381
f 382 383 384
f 383 382 385
f 384 383 382
f 385 382 383
f 383 386 384
f 384 386 383
f 384 387 382
f 382 387 384
f 382 388 385
f 385 388 382
f 388 383 385
f 385 383 388
f 386 383 389
f 389 383 386
f 387 384 386
f 386 384 387
f 388 382 387
f 387 382 388
f 383 388 389
f 389 388 383
f 389 387 386
f 386 387 389
f 387 389 388
f 388 389 387

