# https://github.com/mikedh/trimesh

o 5.obj
v 0.15444563 0.07799857 -0.09572987
v 0.15281294 0.07967659 -0.09330245
v 0.15658626 0.07386175 -0.10020724
v 0.15763035 0.07401912 -0.10216098
v 0.15695318 0.07610492 -0.09546179
v 0.15644366 0.07471553 -0.09741079
v 0.16042126 0.07472528 -0.10279756
v 0.15881466 0.07092613 -0.09966609
v 0.15925381 0.06995743 -0.10084724
v 0.16086805 0.07139269 -0.10160032
v 0.15993730 0.06799288 -0.10017034
v 0.15971826 0.06843809 -0.09925752
v 0.16139576 0.06728909 -0.09891617
v 0.16138363 0.06849687 -0.10046319
v 0.15921401 0.07057661 -0.09708209
v 0.15962363 0.06861522 -0.09688730
v 0.16132301 0.06762833 -0.09682246
v 0.15740919 0.07797247 -0.09385177
v 0.15535845 0.08072305 -0.09067207
v 0.16172683 0.07774868 -0.09287965
v 0.16085987 0.07396376 -0.09430463
v 0.15874692 0.07395085 -0.09502634
v 0.15917895 0.08065294 -0.09061750
v 0.16131905 0.07034043 -0.09457982
v 0.15961704 0.07059427 -0.09516130
v 0.16049137 0.06858833 -0.09511438
v 0.15953796 0.06900560 -0.09544387
v 0.16433876 0.07470024 -0.10215439
v 0.16569362 0.07383249 -0.09918635
v 0.16624506 0.07699850 -0.09548525
v 0.16693989 0.07647263 -0.09819023
v 0.16500749 0.07374604 -0.09681297
v 0.16300156 0.07075532 -0.10119044
v 0.16430713 0.07057819 -0.09958543
v 0.16236129 0.06915137 -0.10071993
v 0.16299971 0.06844151 -0.09981475
v 0.16434693 0.07055842 -0.09704071
v 0.16307484 0.06826622 -0.09783623
v 0.16309223 0.07563072 -0.09484473
v 0.16493870 0.07868417 -0.09308367
v 0.16306429 0.07131730 -0.09530443
v 0.16240900 0.06879341 -0.09546127
v -0.17334438 0.07800357 -0.10307117
v -0.17090405 0.07733089 -0.10370510
v -0.16780789 0.07708364 -0.10366662
v -0.17296876 0.07685431 -0.10243196
v -0.17329878 0.07737464 -0.10073495
v -0.17089403 0.07573985 -0.10039940
v -0.17085370 0.07608831 -0.10251920
v -0.17326557 0.07929307 -0.09704387
v -0.17019182 0.07798301 -0.09572091
v -0.17206965 0.07697530 -0.09837132
v -0.17350306 0.07771705 -0.09905561
v -0.16853567 0.07355335 -0.10008757
v -0.16759676 0.07402439 -0.10216705
v -0.16841257 0.07618400 -0.09546417
v -0.16894424 0.07468284 -0.09740631
v -0.17132078 0.07969267 -0.09331484
v -0.16746180 0.07791211 -0.09383385
v -0.16911531 0.08064055 -0.09051233
v -0.16446080 0.07707520 -0.10365924
v -0.16443207 0.07440343 -0.10267525
v -0.16083167 0.07470657 -0.10214622
v -0.16673877 0.07060877 -0.09956276
v -0.16586338 0.06960395 -0.10073152
v -0.16439517 0.07132046 -0.10156790
v -0.16545033 0.06799762 -0.10017482
v -0.16589369 0.06842069 -0.09926147
v -0.16417033 0.06725588 -0.09890114
v -0.16437355 0.06871407 -0.10053515
v -0.16684473 0.07056554 -0.09710503
v -0.16597646 0.06860731 -0.09689626
v -0.16422041 0.06759117 -0.09685198
v -0.16271662 0.07099335 -0.10126372
v -0.16161533 0.07059269 -0.09957383
v -0.15982580 0.07383882 -0.09918319
v -0.16297757 0.06914557 -0.10070886
v -0.16271108 0.06868296 -0.09989198
v -0.16152334 0.07053628 -0.09708157
v -0.16043233 0.07377503 -0.09687966
v -0.16244459 0.06824909 -0.09784467
v -0.16313994 0.07781458 -0.09293764
v -0.16439991 0.07399144 -0.09436472
v -0.16643590 0.07398274 -0.09504743
v -0.16530456 0.08073649 -0.09050996
v -0.16198330 0.07569899 -0.09491141
v -0.16421013 0.07029878 -0.09463543
v -0.16598094 0.07059611 -0.09514469
v -0.16510107 0.06853983 -0.09514917
v -0.16619787 0.06898056 -0.09547814
v -0.16240610 0.07127513 -0.09535609
v -0.16288110 0.06879156 -0.09548604
f 1 6 5
f 4 8 3
f 4 9 8
f 4 10 9
f 4 7 10
f 11 13 12
f 11 14 13
f 9 12 8
f 9 11 12
f 9 14 11
f 9 10 14
f 3 15 6
f 3 8 15
f 12 17 16
f 12 13 17
f 8 16 15
f 8 12 16
f 1 18 2
f 1 5 18
f 2 18 19
f 18 21 20
f 18 22 21
f 5 22 18
f 5 6 22
f 18 23 19
f 18 20 23
f 22 24 21
f 22 25 24
f 6 25 22
f 6 15 25
f 25 26 24
f 25 27 26
f 16 26 27
f 16 17 26
f 15 27 25
f 15 16 27
f 30 32 31
f 29 31 32
f 28 34 33
f 28 29 34
f 7 33 10
f 7 28 33
f 33 36 35
f 33 34 36
f 14 36 13
f 14 35 36
f 10 35 14
f 10 33 35
f 29 37 34
f 29 32 37
f 34 38 36
f 34 37 38
f 13 38 17
f 13 36 38
f 30 39 32
f 30 40 39
f 20 39 40
f 20 21 39
f 32 41 37
f 32 39 41
f 21 41 39
f 21 24 41
f 37 42 38
f 37 41 42
f 24 42 41
f 24 26 42
f 17 42 26
f 17 38 42
f 46 48 47
f 46 49 48
f 43 46 47
f 43 49 46
f 43 44 49
f 50 52 51
f 50 53 52
f 47 52 53
f 47 48 52
f 49 54 48
f 49 55 54
f 44 55 49
f 44 45 55
f 51 57 56
f 51 52 57
f 48 57 52
f 48 54 57
f 50 51 58
f 51 59 58
f 51 56 59
f 58 59 60
f 45 62 55
f 45 61 62
f 61 63 62
f 55 64 54
f 55 65 64
f 55 66 65
f 55 62 66
f 67 69 68
f 67 70 69
f 65 68 64
f 65 67 68
f 65 70 67
f 65 66 70
f 54 71 57
f 54 64 71
f 68 73 72
f 68 69 73
f 64 72 71
f 64 68 72
f 63 75 74
f 63 76 75
f 62 74 66
f 62 63 74
f 74 78 77
f 74 75 78
f 70 78 69
f 70 77 78
f 66 77 70
f 66 74 77
f 76 79 75
f 76 80 79
f 75 81 78
f 75 79 81
f 69 81 73
f 69 78 81
f 59 83 82
f 59 84 83
f 56 84 59
f 56 57 84
f 59 85 60
f 59 82 85
f 82 83 86
f 84 87 83
f 84 88 87
f 57 88 84
f 57 71 88
f 88 89 87
f 88 90 89
f 72 89 90
f 72 73 89
f 71 90 88
f 71 72 90
f 80 91 79
f 80 86 91
f 83 91 86
f 83 87 91
f 79 92 81
f 79 91 92
f 87 92 91
f 87 89 92
f 73 92 89
f 73 81 92

