# https://github.com/mikedh/trimesh

o 2.obj
v -0.16086758 0.03119668 -0.08143963
v -0.15320532 0.03119391 -0.08143963
v -0.16086859 0.02358622 -0.08143460
v -0.16086884 0.01592547 -0.08143460
v -0.15320532 0.02358220 -0.08143460
v -0.15320532 0.01592145 -0.08143460
v -0.16086884 0.00826472 -0.08143460
v -0.16086884 0.00060422 -0.08143460
v -0.15320532 0.00826070 -0.08143460
v -0.15320532 0.00060020 -0.08143460
v -0.14554457 0.03119391 -0.08143963
v -0.13788407 0.03119391 -0.08143963
v -0.13022357 0.03119391 -0.08143963
v -0.12256282 0.03119391 -0.08143963
v -0.14554482 0.02358220 -0.08143460
v -0.14554482 0.01592145 -0.08143460
v -0.13788432 0.02358220 -0.08143460
v -0.13788432 0.01592145 -0.08143460
v -0.14554055 0.00825642 -0.08147684
v -0.14553552 0.00059316 -0.08151883
v -0.13787703 0.00825164 -0.08151883
v -0.13787351 0.00058964 -0.08156083
v -0.13022357 0.02358220 -0.08143460
v -0.13022357 0.01592145 -0.08143460
v -0.12256307 0.02358220 -0.08143460
v -0.12256307 0.01592145 -0.08143460
v -0.13022282 0.00824838 -0.08151909
v -0.13021578 0.00058285 -0.08160307
v -0.12257012 0.00825089 -0.08147709
v -0.12256006 0.00058561 -0.08156083
v -0.11490232 0.03119391 -0.08143963
v -0.10724183 0.03119391 -0.08143963
v -0.09958133 0.03119391 -0.08143963
v -0.09192058 0.03119391 -0.08143963
v -0.11490258 0.02358220 -0.08143460
v -0.11490258 0.01592145 -0.08143460
v -0.10724183 0.02358220 -0.08143460
v -0.10724183 0.01592145 -0.08143460
v -0.11490735 0.00825818 -0.08143485
v -0.11490459 0.00058109 -0.08156108
v -0.10724183 0.00826070 -0.08143460
v -0.10725390 0.00058788 -0.08147709
v -0.09958133 0.02358220 -0.08143460
v -0.09958133 0.01592145 -0.08143460
v -0.09192083 0.02358220 -0.08143460
v -0.09192083 0.01592145 -0.08143460
v -0.09958133 0.00826070 -0.08143460
v -0.09958636 0.00059768 -0.08143485
v -0.09192083 0.00826070 -0.08143460
v -0.09192083 0.00060020 -0.08143460
v -0.08426008 0.03119391 -0.08143963
v -0.07659933 0.03119391 -0.08143963
v -0.06894134 0.03119065 -0.08144038
v -0.06128059 0.03118587 -0.08144139
v -0.08426008 0.02358220 -0.08143460
v -0.08426008 0.01592145 -0.08143460
v -0.07659958 0.02358220 -0.08143460
v -0.07659958 0.01592145 -0.08143460
v -0.08426008 0.00826070 -0.08143460
v -0.08426008 0.00060020 -0.08143460
v -0.07659958 0.00826070 -0.08143460
v -0.07659958 0.00060020 -0.08143460
v -0.06893908 0.02358220 -0.08143460
v -0.06893908 0.01592145 -0.08143460
v -0.06127833 0.02358220 -0.08143460
v -0.06127858 0.01592145 -0.08143460
v -0.06893908 0.00826070 -0.08143460
v -0.06893908 0.00060020 -0.08143460
v -0.06127858 0.00826070 -0.08143460
v -0.06127858 0.00060020 -0.08143460
v -0.05361708 0.03118511 -0.08144164
v -0.04595633 0.03118637 -0.08144139
v -0.03829583 0.03118738 -0.08144114
v -0.03063533 0.03118889 -0.08144089
v -0.05361783 0.02358220 -0.08143460
v -0.05361783 0.01592145 -0.08143460
v -0.04595733 0.02358220 -0.08143460
v -0.04595733 0.01592145 -0.08143460
v -0.05361783 0.00826070 -0.08143460
v -0.05361783 0.00060020 -0.08143460
v -0.04595733 0.00826070 -0.08143460
v -0.04595733 0.00060020 -0.08143460
v -0.03829684 0.02358220 -0.08143460
v -0.03829684 0.01592145 -0.08143460
v -0.03063609 0.02358220 -0.08143460
v -0.03063609 0.01592145 -0.08143460
v -0.03829684 0.00826070 -0.08143460
v -0.03829684 0.00060020 -0.08143460
v -0.03063609 0.00826070 -0.08143460
v -0.03063609 0.00060020 -0.08143460
v -0.02297483 0.03119014 -0.08144064
v -0.01531408 0.03119140 -0.08144013
v -0.00764931 0.03118863 -0.08148212
v 0.00001622 0.03118939 -0.08152411
v -0.02297559 0.02358220 -0.08143460
v -0.02297559 0.01592145 -0.08143460
v -0.01531509 0.02358220 -0.08143460
v -0.01531509 0.01592145 -0.08143460
v -0.02297559 0.00826070 -0.08143460
v -0.02297559 0.00060020 -0.08143460
v -0.01531509 0.00826070 -0.08143460
v -0.01531509 0.00060020 -0.08143460
v -0.00764529 0.02357516 -0.08151883
v -0.00764453 0.01591566 -0.08151883
v 0.00001672 0.02357164 -0.08156083
v 0.00002100 0.01590862 -0.08160282
v -0.00764453 0.00825491 -0.08151883
v -0.00764453 0.00059441 -0.08151883
v 0.00002175 0.00824938 -0.08160282
v 0.00002175 0.00058888 -0.08160282
v -0.16087688 -0.00706307 -0.08147684
v -0.16088367 -0.01472231 -0.08147709
v -0.15321035 -0.00706282 -0.08143485
v -0.15321613 -0.01472533 -0.08147684
v -0.16088946 -0.02238457 -0.08151909
v -0.16088870 -0.03004381 -0.08151909
v -0.15322368 -0.02239110 -0.08151909
v -0.15322544 -0.03004783 -0.08151909
v -0.16088870 -0.03770456 -0.08151909
v -0.16088619 -0.04536003 -0.08151883
v -0.15322544 -0.03770833 -0.08151909
v -0.15322544 -0.04536908 -0.08151909
v -0.16087889 -0.05301525 -0.08147709
v -0.16087135 -0.06067575 -0.08147659
v -0.15321789 -0.05302204 -0.08151883
v -0.15321035 -0.06067725 -0.08147684
v -0.14553502 -0.00706608 -0.08151883
v -0.14554004 -0.01472910 -0.08151909
v -0.13786924 -0.00707312 -0.08160282
v -0.13786873 -0.01473237 -0.08160282
v -0.14554734 -0.02238985 -0.08151909
v -0.14554985 -0.03004783 -0.08151934
v -0.13786873 -0.02239312 -0.08160282
v -0.13786873 -0.03005362 -0.08160282
v -0.13020295 -0.00708092 -0.08168705
v -0.13020245 -0.01473815 -0.08168680
v -0.12255151 -0.00708545 -0.08168705
v -0.12254598 -0.01473815 -0.08168680
v -0.13020245 -0.02239865 -0.08168680
v -0.13020245 -0.03005940 -0.08168680
v -0.12254598 -0.02239865 -0.08168680
v -0.12254598 -0.03005940 -0.08168680
v -0.14554985 -0.03770833 -0.08151934
v -0.14554985 -0.04536908 -0.08151934
v -0.13786873 -0.03771411 -0.08160282
v -0.13786873 -0.04537461 -0.08160282
v -0.14554985 -0.05302958 -0.08151934
v -0.14554482 -0.06068756 -0.08151909
v -0.13786873 -0.05303536 -0.08160282
v -0.13786873 -0.06069586 -0.08160282
v -0.13020245 -0.03771990 -0.08168680
v -0.13020245 -0.04538040 -0.08168680
v -0.12254598 -0.03771990 -0.08168680
v -0.12254598 -0.04538040 -0.08168680
v -0.13020245 -0.05304089 -0.08168680
v -0.13020245 -0.06070164 -0.08168680
v -0.12254598 -0.05304089 -0.08168680
v -0.12254598 -0.06070164 -0.08168680
v -0.16086632 -0.06833599 -0.08143485
v -0.16086884 -0.07600152 -0.08143460
v -0.15320532 -0.06833750 -0.08143485
v -0.15320532 -0.07600554 -0.08143460
v -0.14553753 -0.06834831 -0.08151883
v -0.14553502 -0.07601133 -0.08151883
v -0.13786873 -0.06835636 -0.08160282
v -0.13786873 -0.07601711 -0.08160282
v -0.13020245 -0.06836214 -0.08168680
v -0.13020245 -0.07602264 -0.08168680
v -0.12254598 -0.06836214 -0.08168680
v -0.12254598 -0.07602264 -0.08168680
v -0.11490308 -0.00708620 -0.08164506
v -0.11488598 -0.01473941 -0.08168680
v -0.10724459 -0.00707665 -0.08156108
v -0.10723101 -0.01474544 -0.08168705
v -0.11488548 -0.02239865 -0.08168680
v -0.11488523 -0.03005940 -0.08168680
v -0.10722473 -0.02239865 -0.08168680
v -0.10722473 -0.03005940 -0.08168680
v -0.09957831 -0.00707690 -0.08156108
v -0.09957705 -0.01474444 -0.08164506
v -0.09192485 -0.00707514 -0.08151909
v -0.09192007 -0.01474092 -0.08160307
v -0.09956498 -0.02240016 -0.08168680
v -0.09956423 -0.03005940 -0.08168680
v -0.09190423 -0.02240217 -0.08168680
v -0.09190373 -0.03005940 -0.08168680
v -0.11488523 -0.03771990 -0.08168680
v -0.11488523 -0.04538040 -0.08168680
v -0.10722473 -0.03771990 -0.08168680
v -0.10722473 -0.04538040 -0.08168680
v -0.11488523 -0.05304089 -0.08168680
v -0.11488523 -0.06070164 -0.08168680
v -0.10722473 -0.05304089 -0.08168680
v -0.10722473 -0.06070164 -0.08168680
v -0.09956423 -0.03771990 -0.08168680
v -0.09956423 -0.04538040 -0.08168680
v -0.09190373 -0.03771990 -0.08168680
v -0.09190373 -0.04538040 -0.08168680
v -0.09956423 -0.05304089 -0.08168680
v -0.09956423 -0.06070164 -0.08168680
v -0.09190373 -0.05304089 -0.08168680
v -0.09190373 -0.06070164 -0.08168680
v -0.08426737 -0.00707036 -0.08147709
v -0.08425731 -0.01473538 -0.08156083
v -0.07660461 -0.00706282 -0.08143485
v -0.07660159 -0.01473991 -0.08156108
v -0.08424876 -0.02240669 -0.08168705
v -0.08424298 -0.03005940 -0.08168680
v -0.07660033 -0.02240745 -0.08164506
v -0.07658324 -0.03006066 -0.08168680
v -0.06893908 -0.00706030 -0.08143460
v -0.06895115 -0.01473337 -0.08147709
v -0.06127858 -0.00706030 -0.08143460
v -0.06128336 -0.01472357 -0.08143485
v -0.06894185 -0.02239789 -0.08156108
v -0.06892827 -0.03006669 -0.08168705
v -0.06127557 -0.02239815 -0.08156108
v -0.06127406 -0.03006543 -0.08164506
v -0.08424298 -0.03771990 -0.08168680
v -0.08424298 -0.04538040 -0.08168680
v -0.07658248 -0.03771990 -0.08168680
v -0.07658248 -0.04538040 -0.08168680
v -0.08424298 -0.05304089 -0.08168680
v -0.08424298 -0.06070164 -0.08168680
v -0.07658248 -0.05304089 -0.08168680
v -0.07658248 -0.06070164 -0.08168680
v -0.06892198 -0.03771990 -0.08168680
v -0.06892198 -0.04538040 -0.08168680
v -0.06126199 -0.03772115 -0.08168680
v -0.06126123 -0.04538040 -0.08168680
v -0.06892198 -0.05304089 -0.08168680
v -0.06892198 -0.06070164 -0.08168680
v -0.06126123 -0.05304089 -0.08168680
v -0.06126123 -0.06070164 -0.08168680
v -0.11488523 -0.06836214 -0.08168680
v -0.11488523 -0.07602264 -0.08168680
v -0.10722473 -0.06836214 -0.08168680
v -0.10722473 -0.07602264 -0.08168680
v -0.09956423 -0.06836214 -0.08168680
v -0.09956423 -0.07602264 -0.08168680
v -0.09190373 -0.06836214 -0.08168680
v -0.09190373 -0.07602264 -0.08168680
v -0.08424298 -0.06836214 -0.08168680
v -0.08424298 -0.07602264 -0.08168680
v -0.07658248 -0.06836214 -0.08168680
v -0.07658248 -0.07602264 -0.08168680
v -0.06892198 -0.06836214 -0.08168680
v -0.06892198 -0.07602264 -0.08168680
v -0.06126123 -0.06836214 -0.08168680
v -0.06126123 -0.07602264 -0.08168680
v -0.05361783 -0.00706030 -0.08143460
v -0.05361783 -0.01472105 -0.08143460
v -0.04595733 -0.00706030 -0.08143460
v -0.04595733 -0.01472105 -0.08143460
v -0.05362211 -0.02239639 -0.08151909
v -0.05361708 -0.03006191 -0.08160307
v -0.04596437 -0.02239136 -0.08147709
v -0.04595432 -0.03005663 -0.08156083
v -0.03829684 -0.00706030 -0.08143460
v -0.03829684 -0.01472105 -0.08143460
v -0.03063609 -0.00706030 -0.08143460
v -0.03063609 -0.01472105 -0.08143460
v -0.03830161 -0.02238406 -0.08143485
v -0.03829885 -0.03006116 -0.08156108
v -0.03063609 -0.02238155 -0.08143460
v -0.03064815 -0.03005437 -0.08147709
v -0.05360149 -0.03772342 -0.08168680
v -0.05360073 -0.04538040 -0.08168680
v -0.04594577 -0.03772794 -0.08168705
v -0.04594024 -0.04538040 -0.08168680
v -0.05360073 -0.05304089 -0.08168680
v -0.05360073 -0.06070164 -0.08168680
v -0.04594024 -0.05304089 -0.08168680
v -0.04594024 -0.06070164 -0.08168680
v -0.03829734 -0.03772870 -0.08164506
v -0.03828024 -0.04538190 -0.08168680
v -0.03063885 -0.03771889 -0.08156108
v -0.03062527 -0.04538769 -0.08168705
v -0.03827949 -0.05304089 -0.08168680
v -0.03827949 -0.06070164 -0.08168680
v -0.03061899 -0.05304115 -0.08168680
v -0.03061899 -0.06070164 -0.08168680
v -0.02297559 -0.00706030 -0.08143460
v -0.02297559 -0.01472105 -0.08143460
v -0.01531509 -0.00706030 -0.08143460
v -0.01531509 -0.01472105 -0.08143460
v -0.02297559 -0.02238155 -0.08143460
v -0.02298062 -0.03004456 -0.08143485
v -0.01531509 -0.02238155 -0.08143460
v -0.01531509 -0.03004205 -0.08143460
v -0.00764453 -0.00706608 -0.08151883
v -0.00764453 -0.01472658 -0.08151883
v 0.00002175 -0.00707187 -0.08160282
v 0.00002175 -0.01473237 -0.08160282
v -0.00764453 -0.02238733 -0.08151883
v -0.00764453 -0.03004029 -0.08151883
v 0.00002175 -0.02239287 -0.08160282
v 0.00002175 -0.03003853 -0.08160282
v -0.02297760 -0.03772166 -0.08156108
v -0.02297609 -0.04538920 -0.08164506
v -0.01532691 -0.03771512 -0.08147709
v -0.01532515 -0.04537964 -0.08156108
v -0.02295899 -0.05304240 -0.08168680
v -0.02295849 -0.06070164 -0.08168680
v -0.01531911 -0.05304844 -0.08168705
v -0.01531283 -0.06070164 -0.08168680
v -0.00765208 -0.03769551 -0.08147709
v -0.00766440 -0.04537235 -0.08151909
v 0.00001647 -0.03768847 -0.08151909
v 0.00000113 -0.04535626 -0.08147709
v -0.00767571 -0.05304190 -0.08156133
v -0.00767345 -0.06069737 -0.08160307
v -0.00000918 -0.05302556 -0.08147709
v -0.00001622 -0.06069410 -0.08151909
v -0.05360073 -0.06836214 -0.08168680
v -0.05360073 -0.07602264 -0.08168680
v -0.04594024 -0.06836214 -0.08168680
v -0.04594024 -0.07602264 -0.08168680
v -0.03827949 -0.06836214 -0.08168680
v -0.03827949 -0.07602264 -0.08168680
v -0.03061899 -0.06836214 -0.08168680
v -0.03061899 -0.07602264 -0.08168680
v -0.02295849 -0.06836214 -0.08168680
v -0.02295849 -0.07602264 -0.08168680
v -0.01531283 -0.06836214 -0.08168680
v -0.01531283 -0.07602264 -0.08168680
v -0.00767295 -0.06835636 -0.08160307
v -0.00767295 -0.07601711 -0.08160307
v -0.00001798 -0.06835083 -0.08151909
v -0.00001798 -0.07601133 -0.08151909
v 0.00767747 0.03119693 -0.08156510
v 0.01534325 0.03120724 -0.08160609
v 0.02299947 0.03120976 -0.08160609
v 0.03065494 0.03120724 -0.08160634
v 0.00768200 0.02357214 -0.08160307
v 0.00768728 0.01590083 -0.08168705
v 0.01534124 0.02357893 -0.08160307
v 0.01534451 0.01590007 -0.08168680
v 0.00768803 0.00824360 -0.08168680
v 0.00768803 0.00058310 -0.08168680
v 0.01534451 0.00824360 -0.08168680
v 0.01534451 0.00058310 -0.08168680
v 0.02299947 0.02358144 -0.08160332
v 0.02300501 0.01590007 -0.08168680
v 0.03065494 0.02357893 -0.08160332
v 0.03066576 0.01590007 -0.08168680
v 0.02300501 0.00824360 -0.08168680
v 0.02300501 0.00058310 -0.08168680
v 0.03066576 0.00824360 -0.08168680
v 0.03066576 0.00058310 -0.08168680
v 0.03830790 0.03120976 -0.08156435
v 0.04597971 0.03121730 -0.08156460
v 0.05364398 0.03121931 -0.08156611
v 0.06130373 0.03121478 -0.08160885
v 0.03831192 0.02358245 -0.08156133
v 0.03832047 0.01589630 -0.08168705
v 0.04597519 0.02358521 -0.08156158
v 0.04597393 0.01589806 -0.08164506
v 0.03832625 0.00824360 -0.08168680
v 0.03832625 0.00058310 -0.08168680
v 0.04598600 0.00824234 -0.08168680
v 0.04598675 0.00058310 -0.08168680
v 0.05363518 0.02358999 -0.08156133
v 0.05363845 0.01590913 -0.08160307
v 0.06130624 0.02359477 -0.08160332
v 0.06130473 0.01591818 -0.08160307
v 0.05364675 0.00824033 -0.08168680
v 0.05364725 0.00058310 -0.08168680
v 0.06130800 0.00823957 -0.08168680
v 0.06130800 0.00058310 -0.08168680
v 0.06896297 0.03121428 -0.08160885
v 0.07662347 0.03121428 -0.08160885
v 0.08428397 0.03121428 -0.08160885
v 0.09194472 0.03121428 -0.08160885
v 0.06896297 0.02359653 -0.08160332
v 0.06896272 0.01592069 -0.08160332
v 0.07662347 0.02359653 -0.08160332
v 0.07662347 0.01592069 -0.08160332
v 0.06896850 0.00823957 -0.08168680
v 0.06896850 0.00058310 -0.08168680
v 0.07662900 0.00823957 -0.08168680
v 0.07662900 0.00058310 -0.08168680
v 0.08428397 0.02359653 -0.08160332
v 0.08428397 0.01592069 -0.08160332
v 0.09194446 0.02359653 -0.08160332
v 0.09194446 0.01592069 -0.08160332
v 0.08428975 0.00823957 -0.08168680
v 0.08428975 0.00058310 -0.08168680
v 0.09195025 0.00823957 -0.08168680
v 0.09195025 0.00058310 -0.08168680
v 0.09960521 0.03121428 -0.08160885
v 0.10726571 0.03121428 -0.08160885
v 0.11492646 0.03121428 -0.08160885
v 0.12258696 0.03121428 -0.08160885
v 0.09960521 0.02359653 -0.08160332
v 0.09960521 0.01592069 -0.08160332
v 0.10726571 0.02359653 -0.08160332
v 0.10726571 0.01592069 -0.08160332
v 0.09961075 0.00823957 -0.08168680
v 0.09961075 0.00058310 -0.08168680
v 0.10727150 0.00823957 -0.08168680
v 0.10727150 0.00058310 -0.08168680
v 0.11492621 0.02359653 -0.08160332
v 0.11492621 0.01592069 -0.08160332
v 0.12258696 0.02359653 -0.08160332
v 0.12258696 0.01592069 -0.08160332
v 0.11493200 0.00823957 -0.08168680
v 0.11493200 0.00058310 -0.08168680
v 0.12259249 0.00823957 -0.08168680
v 0.12259249 0.00058310 -0.08168680
v 0.13024243 0.03121177 -0.08160860
v 0.13789514 0.03121177 -0.08156636
v 0.14554507 0.03120020 -0.08160684
v 0.15319753 0.03119467 -0.08152361
v 0.13023992 0.02359653 -0.08160332
v 0.13023237 0.01592069 -0.08160332
v 0.13788533 0.02359150 -0.08156108
v 0.13788231 0.01592597 -0.08151934
v 0.13023816 0.00823957 -0.08168680
v 0.13023816 0.00058310 -0.08168680
v 0.13787804 0.00824536 -0.08160332
v 0.13787804 0.00058863 -0.08160307
v 0.14553929 0.02358697 -0.08156108
v 0.14553753 0.01592069 -0.08156108
v 0.15319275 0.02358672 -0.08147709
v 0.15318948 0.01591415 -0.08151909
v 0.14553275 0.00824988 -0.08160307
v 0.14553527 0.00060145 -0.08156108
v 0.15318772 0.00825743 -0.08151934
v 0.15319275 0.00060472 -0.08147735
v 0.00768803 -0.00707765 -0.08168680
v 0.00768803 -0.01473815 -0.08168680
v 0.01534451 -0.00707765 -0.08168680
v 0.01534451 -0.01473815 -0.08168680
v 0.00768803 -0.02239865 -0.08168680
v 0.00769055 -0.03004683 -0.08168705
v 0.01534451 -0.02239865 -0.08168680
v 0.01534702 -0.03005437 -0.08168680
v 0.02300501 -0.00707765 -0.08168680
v 0.02300501 -0.01473815 -0.08168680
v 0.03066576 -0.00707765 -0.08168680
v 0.03066576 -0.01473815 -0.08168680
v 0.02300501 -0.02239865 -0.08168680
v 0.02300501 -0.03005915 -0.08168680
v 0.03066576 -0.02239865 -0.08168680
v 0.03066576 -0.03005915 -0.08168680
v 0.00768476 -0.03768671 -0.08160332
v 0.00767697 -0.04534167 -0.08151909
v 0.01534300 -0.03769400 -0.08164506
v 0.01534224 -0.04533891 -0.08156108
v 0.00766414 -0.05301399 -0.08143510
v 0.00765434 -0.06068681 -0.08143510
v 0.01532992 -0.05300393 -0.08143510
v 0.01532741 -0.06068429 -0.08143460
v 0.02301129 -0.03770179 -0.08168680
v 0.02300400 -0.04534192 -0.08156133
v 0.03066827 -0.03771487 -0.08168680
v 0.03066550 -0.04535374 -0.08164506
v 0.02299218 -0.05300368 -0.08147709
v 0.02299042 -0.06067952 -0.08143485
v 0.03066726 -0.05300117 -0.08156108
v 0.03065344 -0.06066694 -0.08143510
v 0.03832625 -0.00707765 -0.08168680
v 0.03832625 -0.01473815 -0.08168680
v 0.04598675 -0.00707765 -0.08168680
v 0.04598675 -0.01473815 -0.08168680
v 0.03832625 -0.02239865 -0.08168680
v 0.03832625 -0.03005915 -0.08168680
v 0.04598675 -0.02239865 -0.08168680
v 0.04598675 -0.03005915 -0.08168680
v 0.05364725 -0.00707765 -0.08168680
v 0.05364725 -0.01473815 -0.08168680
v 0.06130800 -0.00707765 -0.08168680
v 0.06130800 -0.01473815 -0.08168680
v 0.05364725 -0.02239865 -0.08168680
v 0.05364725 -0.03005915 -0.08168680
v 0.06130800 -0.02239865 -0.08168680
v 0.06130800 -0.03005915 -0.08168680
v 0.03832625 -0.03771990 -0.08168680
v 0.03833003 -0.04535978 -0.08168680
v 0.04598675 -0.03771990 -0.08168680
v 0.04598927 -0.04536807 -0.08168680
v 0.03832273 -0.05300016 -0.08156133
v 0.03831343 -0.06066418 -0.08147709
v 0.04598499 -0.05300720 -0.08160332
v 0.04597921 -0.06066217 -0.08151909
v 0.05364725 -0.03771990 -0.08168680
v 0.05364977 -0.04537537 -0.08168680
v 0.06130800 -0.03771990 -0.08168680
v 0.06130800 -0.04538040 -0.08168680
v 0.05364599 -0.05301500 -0.08164506
v 0.05364524 -0.06065990 -0.08156108
v 0.06131429 -0.05302279 -0.08168680
v 0.06130674 -0.06066317 -0.08156133
v 0.00765182 -0.06834504 -0.08143510
v 0.00765182 -0.07600554 -0.08143510
v 0.01532741 -0.06834504 -0.08143460
v 0.01532741 -0.07600554 -0.08143460
v 0.02298791 -0.06834504 -0.08143460
v 0.02298791 -0.07600554 -0.08143460
v 0.03064841 -0.06834504 -0.08143460
v 0.03064841 -0.07600554 -0.08143460
v 0.03831167 -0.06834002 -0.08143485
v 0.03830916 -0.07600554 -0.08143460
v 0.04597217 -0.06833247 -0.08143510
v 0.04596965 -0.07600554 -0.08143460
v 0.05363267 -0.06832518 -0.08143510
v 0.05363015 -0.07600554 -0.08143460
v 0.06129493 -0.06832468 -0.08147709
v 0.06129317 -0.07600051 -0.08143485
v 0.06896850 -0.00707765 -0.08168680
v 0.06896850 -0.01473815 -0.08168680
v 0.07662900 -0.00707765 -0.08168680
v 0.07662900 -0.01473815 -0.08168680
v 0.06896850 -0.02239865 -0.08168680
v 0.06896850 -0.03005915 -0.08168680
v 0.07662900 -0.02239865 -0.08168680
v 0.07662900 -0.03005915 -0.08168680
v 0.08428975 -0.00707765 -0.08168680
v 0.08428975 -0.01473815 -0.08168680
v 0.09195025 -0.00707765 -0.08168680
v 0.09195025 -0.01473815 -0.08168680
v 0.08428975 -0.02239865 -0.08168680
v 0.08428975 -0.03005915 -0.08168680
v 0.09195025 -0.02239865 -0.08168680
v 0.09195025 -0.03005915 -0.08168680
v 0.06896850 -0.03771990 -0.08168680
v 0.06896850 -0.04538040 -0.08168680
v 0.07662900 -0.03771990 -0.08168680
v 0.07662900 -0.04538040 -0.08168680
v 0.06897101 -0.05303612 -0.08168680
v 0.06896850 -0.06067499 -0.08164506
v 0.07662900 -0.05304089 -0.08168680
v 0.07663554 -0.06068354 -0.08168680
v 0.08428975 -0.03771990 -0.08168680
v 0.08428975 -0.04538040 -0.08168680
v 0.09195025 -0.03771990 -0.08168680
v 0.09195025 -0.04538040 -0.08168680
v 0.08428975 -0.05304089 -0.08168680
v 0.08429226 -0.06069662 -0.08168680
v 0.09195025 -0.05304089 -0.08168680
v 0.09195025 -0.06070164 -0.08168680
v 0.09961075 -0.00707765 -0.08168680
v 0.09961075 -0.01473815 -0.08168680
v 0.10727150 -0.00707765 -0.08168680
v 0.10727150 -0.01473815 -0.08168680
v 0.09961075 -0.02239865 -0.08168680
v 0.09961075 -0.03005915 -0.08168680
v 0.10727150 -0.02239865 -0.08168680
v 0.10727150 -0.03005915 -0.08168680
v 0.11493200 -0.00707765 -0.08168680
v 0.11493200 -0.01473815 -0.08168680
v 0.12259249 -0.00707765 -0.08168680
v 0.12259249 -0.01473815 -0.08168680
v 0.11493200 -0.02239865 -0.08168680
v 0.11493200 -0.03005915 -0.08168680
v 0.12259249 -0.02239865 -0.08168680
v 0.12259249 -0.03005915 -0.08168680
v 0.09961075 -0.03771990 -0.08168680
v 0.09961075 -0.04538040 -0.08168680
v 0.10727150 -0.03771990 -0.08168680
v 0.10727150 -0.04538040 -0.08168680
v 0.09961075 -0.05304089 -0.08168680
v 0.09961075 -0.06070164 -0.08168680
v 0.10727150 -0.05304089 -0.08168680
v 0.10727150 -0.06070164 -0.08168680
v 0.11493200 -0.03771990 -0.08168680
v 0.11493200 -0.04538040 -0.08168680
v 0.12259249 -0.03771990 -0.08168680
v 0.12259249 -0.04538040 -0.08168680
v 0.11493200 -0.05304089 -0.08168680
v 0.11493200 -0.06070164 -0.08168680
v 0.12259249 -0.05304089 -0.08168680
v 0.12259249 -0.06070164 -0.08168680
v 0.06897026 -0.06832241 -0.08156108
v 0.06895643 -0.07598819 -0.08143510
v 0.07662799 -0.06832367 -0.08156133
v 0.07661618 -0.07598543 -0.08147709
v 0.08428950 -0.06833549 -0.08164506
v 0.08429126 -0.07598291 -0.08156108
v 0.09195402 -0.06834152 -0.08168680
v 0.09194673 -0.07598191 -0.08156133
v 0.09961326 -0.06834982 -0.08168680
v 0.09960899 -0.07598895 -0.08160332
v 0.10727401 -0.06835711 -0.08168680
v 0.10726999 -0.07599674 -0.08164506
v 0.11493200 -0.06836214 -0.08168680
v 0.11493828 -0.07600454 -0.08168680
v 0.12259249 -0.06836214 -0.08168680
v 0.12259501 -0.07601786 -0.08168680
v 0.13023816 -0.00707765 -0.08168680
v 0.13023816 -0.01473815 -0.08168680
v 0.13787804 -0.00707187 -0.08160307
v 0.13787804 -0.01473237 -0.08160307
v 0.13023816 -0.02239865 -0.08168680
v 0.13023816 -0.03005940 -0.08168680
v 0.13787804 -0.02239312 -0.08160307
v 0.13787804 -0.03005362 -0.08160307
v 0.14553552 -0.00706106 -0.08151909
v 0.14553300 -0.01472658 -0.08151909
v 0.15319702 -0.00706005 -0.08151909
v 0.15319929 -0.01472306 -0.08151909
v 0.14553300 -0.02238733 -0.08151909
v 0.14553300 -0.03004783 -0.08151909
v 0.15319778 -0.02238733 -0.08151909
v 0.15319753 -0.03004783 -0.08151909
v 0.13023816 -0.03771990 -0.08168680
v 0.13023816 -0.04538040 -0.08168680
v 0.13787804 -0.03771411 -0.08160307
v 0.13787804 -0.04537461 -0.08160307
v 0.13023816 -0.05304089 -0.08168680
v 0.13023816 -0.06070164 -0.08168680
v 0.13787804 -0.05303536 -0.08160307
v 0.13787804 -0.06069586 -0.08160307
v 0.14553300 -0.03770833 -0.08151909
v 0.14553300 -0.04536908 -0.08151909
v 0.15319753 -0.03770833 -0.08151909
v 0.15319753 -0.04536908 -0.08151909
v 0.14553300 -0.05302958 -0.08151909
v 0.14553728 -0.06069435 -0.08156108
v 0.15319753 -0.05302958 -0.08151909
v 0.15320054 -0.06069511 -0.08156108
v 0.13023816 -0.06836214 -0.08168680
v 0.13023816 -0.07602264 -0.08168680
v 0.13787804 -0.06835636 -0.08160307
v 0.13787804 -0.07601711 -0.08160307
v 0.14554206 -0.06835787 -0.08160332
v 0.14554281 -0.07601711 -0.08160332
v 0.15319903 -0.06835435 -0.08156108
v 0.15320255 -0.07601837 -0.08160332
f 1 5 2
f 1 3 5
f 3 6 5
f 3 4 6
f 4 9 6
f 4 7 9
f 7 10 9
f 7 8 10
f 2 15 11
f 2 5 15
f 5 16 15
f 5 6 16
f 11 17 12
f 11 15 17
f 15 18 17
f 15 16 18
f 6 19 16
f 6 9 19
f 9 20 19
f 9 10 20
f 16 21 18
f 16 19 21
f 19 22 21
f 19 20 22
f 12 23 13
f 12 17 23
f 17 24 23
f 17 18 24
f 13 25 14
f 13 23 25
f 23 26 25
f 23 24 26
f 18 27 24
f 18 21 27
f 21 28 27
f 21 22 28
f 24 29 26
f 24 27 29
f 27 30 29
f 27 28 30
f 14 35 31
f 14 25 35
f 25 36 35
f 25 26 36
f 31 37 32
f 31 35 37
f 35 38 37
f 35 36 38
f 26 39 36
f 26 29 39
f 29 40 39
f 29 30 40
f 36 41 38
f 36 39 41
f 39 42 41
f 39 40 42
f 32 43 33
f 32 37 43
f 37 44 43
f 37 38 44
f 33 45 34
f 33 43 45
f 43 46 45
f 43 44 46
f 38 47 44
f 38 41 47
f 41 48 47
f 41 42 48
f 44 49 46
f 44 47 49
f 47 50 49
f 47 48 50
f 34 55 51
f 34 45 55
f 45 56 55
f 45 46 56
f 51 57 52
f 51 55 57
f 55 58 57
f 55 56 58
f 46 59 56
f 46 49 59
f 49 60 59
f 49 50 60
f 56 61 58
f 56 59 61
f 59 62 61
f 59 60 62
f 52 63 53
f 52 57 63
f 57 64 63
f 57 58 64
f 53 65 54
f 53 63 65
f 63 66 65
f 63 64 66
f 58 67 64
f 58 61 67
f 61 68 67
f 61 62 68
f 64 69 66
f 64 67 69
f 67 70 69
f 67 68 70
f 54 75 71
f 54 65 75
f 65 76 75
f 65 66 76
f 71 77 72
f 71 75 77
f 75 78 77
f 75 76 78
f 66 79 76
f 66 69 79
f 69 80 79
f 69 70 80
f 76 81 78
f 76 79 81
f 79 82 81
f 79 80 82
f 72 83 73
f 72 77 83
f 77 84 83
f 77 78 84
f 73 85 74
f 73 83 85
f 83 86 85
f 83 84 86
f 78 87 84
f 78 81 87
f 81 88 87
f 81 82 88
f 84 89 86
f 84 87 89
f 87 90 89
f 87 88 90
f 74 95 91
f 74 85 95
f 85 96 95
f 85 86 96
f 91 97 92
f 91 95 97
f 95 98 97
f 95 96 98
f 86 99 96
f 86 89 99
f 89 100 99
f 89 90 100
f 96 101 98
f 96 99 101
f 99 102 101
f 99 100 102
f 92 103 93
f 92 97 103
f 97 104 103
f 97 98 104
f 93 105 94
f 93 103 105
f 103 106 105
f 103 104 106
f 98 107 104
f 98 101 107
f 101 108 107
f 101 102 108
f 104 109 106
f 104 107 109
f 107 110 109
f 107 108 110
f 8 113 10
f 8 111 113
f 111 114 113
f 111 112 114
f 112 117 114
f 112 115 117
f 115 118 117
f 115 116 118
f 116 121 118
f 116 119 121
f 119 122 121
f 119 120 122
f 120 125 122
f 120 123 125
f 123 126 125
f 123 124 126
f 10 127 20
f 10 113 127
f 113 128 127
f 113 114 128
f 20 129 22
f 20 127 129
f 127 130 129
f 127 128 130
f 114 131 128
f 114 117 131
f 117 132 131
f 117 118 132
f 128 133 130
f 128 131 133
f 131 134 133
f 131 132 134
f 22 135 28
f 22 129 135
f 129 136 135
f 129 130 136
f 28 137 30
f 28 135 137
f 135 138 137
f 135 136 138
f 130 139 136
f 130 133 139
f 133 140 139
f 133 134 140
f 136 141 138
f 136 139 141
f 139 142 141
f 139 140 142
f 118 143 132
f 118 121 143
f 121 144 143
f 121 122 144
f 132 145 134
f 132 143 145
f 143 146 145
f 143 144 146
f 122 147 144
f 122 125 147
f 125 148 147
f 125 126 148
f 144 149 146
f 144 147 149
f 147 150 149
f 147 148 150
f 134 151 140
f 134 145 151
f 145 152 151
f 145 146 152
f 140 153 142
f 140 151 153
f 151 154 153
f 151 152 154
f 146 155 152
f 146 149 155
f 149 156 155
f 149 150 156
f 152 157 154
f 152 155 157
f 155 158 157
f 155 156 158
f 124 161 126
f 124 159 161
f 159 162 161
f 159 160 162
f 126 163 148
f 126 161 163
f 161 164 163
f 161 162 164
f 148 165 150
f 148 163 165
f 163 166 165
f 163 164 166
f 150 167 156
f 150 165 167
f 165 168 167
f 165 166 168
f 156 169 158
f 156 167 169
f 167 170 169
f 167 168 170
f 30 171 40
f 30 137 171
f 137 172 171
f 137 138 172
f 40 173 42
f 40 171 173
f 171 174 173
f 171 172 174
f 138 175 172
f 138 141 175
f 141 176 175
f 141 142 176
f 172 177 174
f 172 175 177
f 175 178 177
f 175 176 178
f 42 179 48
f 42 173 179
f 173 180 179
f 173 174 180
f 48 181 50
f 48 179 181
f 179 182 181
f 179 180 182
f 174 183 180
f 174 177 183
f 177 184 183
f 177 178 184
f 180 185 182
f 180 183 185
f 183 186 185
f 183 184 186
f 142 187 176
f 142 153 187
f 153 188 187
f 153 154 188
f 176 189 178
f 176 187 189
f 187 190 189
f 187 188 190
f 154 191 188
f 154 157 191
f 157 192 191
f 157 158 192
f 188 193 190
f 188 191 193
f 191 194 193
f 191 192 194
f 178 195 184
f 178 189 195
f 189 196 195
f 189 190 196
f 184 197 186
f 184 195 197
f 195 198 197
f 195 196 198
f 190 199 196
f 190 193 199
f 193 200 199
f 193 194 200
f 196 201 198
f 196 199 201
f 199 202 201
f 199 200 202
f 50 203 60
f 50 181 203
f 181 204 203
f 181 182 204
f 60 205 62
f 60 203 205
f 203 206 205
f 203 204 206
f 182 207 204
f 182 185 207
f 185 208 207
f 185 186 208
f 204 209 206
f 204 207 209
f 207 210 209
f 207 208 210
f 62 211 68
f 62 205 211
f 205 212 211
f 205 206 212
f 68 213 70
f 68 211 213
f 211 214 213
f 211 212 214
f 206 215 212
f 206 209 215
f 209 216 215
f 209 210 216
f 212 217 214
f 212 215 217
f 215 218 217
f 215 216 218
f 186 219 208
f 186 197 219
f 197 220 219
f 197 198 220
f 208 221 210
f 208 219 221
f 219 222 221
f 219 220 222
f 198 223 220
f 198 201 223
f 201 224 223
f 201 202 224
f 220 225 222
f 220 223 225
f 223 226 225
f 223 224 226
f 210 227 216
f 210 221 227
f 221 228 227
f 221 222 228
f 216 229 218
f 216 227 229
f 227 230 229
f 227 228 230
f 222 231 228
f 222 225 231
f 225 232 231
f 225 226 232
f 228 233 230
f 228 231 233
f 231 234 233
f 231 232 234
f 158 235 192
f 158 169 235
f 169 236 235
f 169 170 236
f 192 237 194
f 192 235 237
f 235 238 237
f 235 236 238
f 194 239 200
f 194 237 239
f 237 240 239
f 237 238 240
f 200 241 202
f 200 239 241
f 239 242 241
f 239 240 242
f 202 243 224
f 202 241 243
f 241 244 243
f 241 242 244
f 224 245 226
f 224 243 245
f 243 246 245
f 243 244 246
f 226 247 232
f 226 245 247
f 245 248 247
f 245 246 248
f 232 249 234
f 232 247 249
f 247 250 249
f 247 248 250
f 70 251 80
f 70 213 251
f 213 252 251
f 213 214 252
f 80 253 82
f 80 251 253
f 251 254 253
f 251 252 254
f 214 255 252
f 214 217 255
f 217 256 255
f 217 218 256
f 252 257 254
f 252 255 257
f 255 258 257
f 255 256 258
f 82 259 88
f 82 253 259
f 253 260 259
f 253 254 260
f 88 261 90
f 88 259 261
f 259 262 261
f 259 260 262
f 254 263 260
f 254 257 263
f 257 264 263
f 257 258 264
f 260 265 262
f 260 263 265
f 263 266 265
f 263 264 266
f 218 267 256
f 218 229 267
f 229 268 267
f 229 230 268
f 256 269 258
f 256 267 269
f 267 270 269
f 267 268 270
f 230 271 268
f 230 233 271
f 233 272 271
f 233 234 272
f 268 273 270
f 268 271 273
f 271 274 273
f 271 272 274
f 258 275 264
f 258 269 275
f 269 276 275
f 269 270 276
f 264 277 266
f 264 275 277
f 275 278 277
f 275 276 278
f 270 279 276
f 270 273 279
f 273 280 279
f 273 274 280
f 276 281 278
f 276 279 281
f 279 282 281
f 279 280 282
f 90 283 100
f 90 261 283
f 261 284 283
f 261 262 284
f 100 285 102
f 100 283 285
f 283 286 285
f 283 284 286
f 262 287 284
f 262 265 287
f 265 288 287
f 265 266 288
f 284 289 286
f 284 287 289
f 287 290 289
f 287 288 290
f 102 291 108
f 102 285 291
f 285 292 291
f 285 286 292
f 108 293 110
f 108 291 293
f 291 294 293
f 291 292 294
f 286 295 292
f 286 289 295
f 289 296 295
f 289 290 296
f 292 297 294
f 292 295 297
f 295 298 297
f 295 296 298
f 266 299 288
f 266 277 299
f 277 300 299
f 277 278 300
f 288 301 290
f 288 299 301
f 299 302 301
f 299 300 302
f 278 303 300
f 278 281 303
f 281 304 303
f 281 282 304
f 300 305 302
f 300 303 305
f 303 306 305
f 303 304 306
f 290 307 296
f 290 301 307
f 301 308 307
f 301 302 308
f 296 309 298
f 296 307 309
f 307 310 309
f 307 308 310
f 302 311 308
f 302 305 311
f 305 312 311
f 305 306 312
f 308 313 310
f 308 311 313
f 311 314 313
f 311 312 314
f 234 315 272
f 234 249 315
f 249 316 315
f 249 250 316
f 272 317 274
f 272 315 317
f 315 318 317
f 315 316 318
f 274 319 280
f 274 317 319
f 317 320 319
f 317 318 320
f 280 321 282
f 280 319 321
f 319 322 321
f 319 320 322
f 282 323 304
f 282 321 323
f 321 324 323
f 321 322 324
f 304 325 306
f 304 323 325
f 323 326 325
f 323 324 326
f 306 327 312
f 306 325 327
f 325 328 327
f 325 326 328
f 312 329 314
f 312 327 329
f 327 330 329
f 327 328 330
f 94 335 331
f 94 105 335
f 105 336 335
f 105 106 336
f 331 337 332
f 331 335 337
f 335 338 337
f 335 336 338
f 106 339 336
f 106 109 339
f 109 340 339
f 109 110 340
f 336 341 338
f 336 339 341
f 339 342 341
f 339 340 342
f 332 343 333
f 332 337 343
f 337 344 343
f 337 338 344
f 333 345 334
f 333 343 345
f 343 346 345
f 343 344 346
f 338 347 344
f 338 341 347
f 341 348 347
f 341 342 348
f 344 349 346
f 344 347 349
f 347 350 349
f 347 348 350
f 334 355 351
f 334 345 355
f 345 356 355
f 345 346 356
f 351 357 352
f 351 355 357
f 355 358 357
f 355 356 358
f 346 359 356
f 346 349 359
f 349 360 359
f 349 350 360
f 356 361 358
f 356 359 361
f 359 362 361
f 359 360 362
f 352 363 353
f 352 357 363
f 357 364 363
f 357 358 364
f 353 365 354
f 353 363 365
f 363 366 365
f 363 364 366
f 358 367 364
f 358 361 367
f 361 368 367
f 361 362 368
f 364 369 366
f 364 367 369
f 367 370 369
f 367 368 370
f 354 375 371
f 354 365 375
f 365 376 375
f 365 366 376
f 371 377 372
f 371 375 377
f 375 378 377
f 375 376 378
f 366 379 376
f 366 369 379
f 369 380 379
f 369 370 380
f 376 381 378
f 376 379 381
f 379 382 381
f 379 380 382
f 372 383 373
f 372 377 383
f 377 384 383
f 377 378 384
f 373 385 374
f 373 383 385
f 383 386 385
f 383 384 386
f 378 387 384
f 378 381 387
f 381 388 387
f 381 382 388
f 384 389 386
f 384 387 389
f 387 390 389
f 387 388 390
f 374 395 391
f 374 385 395
f 385 396 395
f 385 386 396
f 391 397 392
f 391 395 397
f 395 398 397
f 395 396 398
f 386 399 396
f 386 389 399
f 389 400 399
f 389 390 400
f 396 401 398
f 396 399 401
f 399 402 401
f 399 400 402
f 392 403 393
f 392 397 403
f 397 404 403
f 397 398 404
f 393 405 394
f 393 403 405
f 403 406 405
f 403 404 406
f 398 407 404
f 398 401 407
f 401 408 407
f 401 402 408
f 404 409 406
f 404 407 409
f 407 410 409
f 407 408 410
f 394 415 411
f 394 405 415
f 405 416 415
f 405 406 416
f 411 417 412
f 411 415 417
f 415 418 417
f 415 416 418
f 406 419 416
f 406 409 419
f 409 420 419
f 409 410 420
f 416 421 418
f 416 419 421
f 419 422 421
f 419 420 422
f 412 423 413
f 412 417 423
f 417 424 423
f 417 418 424
f 413 425 414
f 413 423 425
f 423 426 425
f 423 424 426
f 418 427 424
f 418 421 427
f 421 428 427
f 421 422 428
f 424 429 426
f 424 427 429
f 427 430 429
f 427 428 430
f 110 431 340
f 110 293 431
f 293 432 431
f 293 294 432
f 340 433 342
f 340 431 433
f 431 434 433
f 431 432 434
f 294 435 432
f 294 297 435
f 297 436 435
f 297 298 436
f 432 437 434
f 432 435 437
f 435 438 437
f 435 436 438
f 342 439 348
f 342 433 439
f 433 440 439
f 433 434 440
f 348 441 350
f 348 439 441
f 439 442 441
f 439 440 442
f 434 443 440
f 434 437 443
f 437 444 443
f 437 438 444
f 440 445 442
f 440 443 445
f 443 446 445
f 443 444 446
f 298 447 436
f 298 309 447
f 309 448 447
f 309 310 448
f 436 449 438
f 436 447 449
f 447 450 449
f 447 448 450
f 310 451 448
f 310 313 451
f 313 452 451
f 313 314 452
f 448 453 450
f 448 451 453
f 451 454 453
f 451 452 454
f 438 455 444
f 438 449 455
f 449 456 455
f 449 450 456
f 444 457 446
f 444 455 457
f 455 458 457
f 455 456 458
f 450 459 456
f 450 453 459
f 453 460 459
f 453 454 460
f 456 461 458
f 456 459 461
f 459 462 461
f 459 460 462
f 350 463 360
f 350 441 463
f 441 464 463
f 441 442 464
f 360 465 362
f 360 463 465
f 463 466 465
f 463 464 466
f 442 467 464
f 442 445 467
f 445 468 467
f 445 446 468
f 464 469 466
f 464 467 469
f 467 470 469
f 467 468 470
f 362 471 368
f 362 465 471
f 465 472 471
f 465 466 472
f 368 473 370
f 368 471 473
f 471 474 473
f 471 472 474
f 466 475 472
f 466 469 475
f 469 476 475
f 469 470 476
f 472 477 474
f 472 475 477
f 475 478 477
f 475 476 478
f 446 479 468
f 446 457 479
f 457 480 479
f 457 458 480
f 468 481 470
f 468 479 481
f 479 482 481
f 479 480 482
f 458 483 480
f 458 461 483
f 461 484 483
f 461 462 484
f 480 485 482
f 480 483 485
f 483 486 485
f 483 484 486
f 470 487 476
f 470 481 487
f 481 488 487
f 481 482 488
f 476 489 478
f 476 487 489
f 487 490 489
f 487 488 490
f 482 491 488
f 482 485 491
f 485 492 491
f 485 486 492
f 488 493 490
f 488 491 493
f 491 494 493
f 491 492 494
f 314 495 452
f 314 329 495
f 329 496 495
f 329 330 496
f 452 497 454
f 452 495 497
f 495 498 497
f 495 496 498
f 454 499 460
f 454 497 499
f 497 500 499
f 497 498 500
f 460 501 462
f 460 499 501
f 499 502 501
f 499 500 502
f 462 503 484
f 462 501 503
f 501 504 503
f 501 502 504
f 484 505 486
f 484 503 505
f 503 506 505
f 503 504 506
f 486 507 492
f 486 505 507
f 505 508 507
f 505 506 508
f 492 509 494
f 492 507 509
f 507 510 509
f 507 508 510
f 370 511 380
f 370 473 511
f 473 512 511
f 473 474 512
f 380 513 382
f 380 511 513
f 511 514 513
f 511 512 514
f 474 515 512
f 474 477 515
f 477 516 515
f 477 478 516
f 512 517 514
f 512 515 517
f 515 518 517
f 515 516 518
f 382 519 388
f 382 513 519
f 513 520 519
f 513 514 520
f 388 521 390
f 388 519 521
f 519 522 521
f 519 520 522
f 514 523 520
f 514 517 523
f 517 524 523
f 517 518 524
f 520 525 522
f 520 523 525
f 523 526 525
f 523 524 526
f 478 527 516
f 478 489 527
f 489 528 527
f 489 490 528
f 516 529 518
f 516 527 529
f 527 530 529
f 527 528 530
f 490 531 528
f 490 493 531
f 493 532 531
f 493 494 532
f 528 533 530
f 528 531 533
f 531 534 533
f 531 532 534
f 518 535 524
f 518 529 535
f 529 536 535
f 529 530 536
f 524 537 526
f 524 535 537
f 535 538 537
f 535 536 538
f 530 539 536
f 530 533 539
f 533 540 539
f 533 534 540
f 536 541 538
f 536 539 541
f 539 542 541
f 539 540 542
f 390 543 400
f 390 521 543
f 521 544 543
f 521 522 544
f 400 545 402
f 400 543 545
f 543 546 545
f 543 544 546
f 522 547 544
f 522 525 547
f 525 548 547
f 525 526 548
f 544 549 546
f 544 547 549
f 547 550 549
f 547 548 550
f 402 551 408
f 402 545 551
f 545 552 551
f 545 546 552
f 408 553 410
f 408 551 553
f 551 554 553
f 551 552 554
f 546 555 552
f 546 549 555
f 549 556 555
f 549 550 556
f 552 557 554
f 552 555 557
f 555 558 557
f 555 556 558
f 526 559 548
f 526 537 559
f 537 560 559
f 537 538 560
f 548 561 550
f 548 559 561
f 559 562 561
f 559 560 562
f 538 563 560
f 538 541 563
f 541 564 563
f 541 542 564
f 560 565 562
f 560 563 565
f 563 566 565
f 563 564 566
f 550 567 556
f 550 561 567
f 561 568 567
f 561 562 568
f 556 569 558
f 556 567 569
f 567 570 569
f 567 568 570
f 562 571 568
f 562 565 571
f 565 572 571
f 565 566 572
f 568 573 570
f 568 571 573
f 571 574 573
f 571 572 574
f 494 575 532
f 494 509 575
f 509 576 575
f 509 510 576
f 532 577 534
f 532 575 577
f 575 578 577
f 575 576 578
f 534 579 540
f 534 577 579
f 577 580 579
f 577 578 580
f 540 581 542
f 540 579 581
f 579 582 581
f 579 580 582
f 542 583 564
f 542 581 583
f 581 584 583
f 581 582 584
f 564 585 566
f 564 583 585
f 583 586 585
f 583 584 586
f 566 587 572
f 566 585 587
f 585 588 587
f 585 586 588
f 572 589 574
f 572 587 589
f 587 590 589
f 587 588 590
f 410 591 420
f 410 553 591
f 553 592 591
f 553 554 592
f 420 593 422
f 420 591 593
f 591 594 593
f 591 592 594
f 554 595 592
f 554 557 595
f 557 596 595
f 557 558 596
f 592 597 594
f 592 595 597
f 595 598 597
f 595 596 598
f 422 599 428
f 422 593 599
f 593 600 599
f 593 594 600
f 428 601 430
f 428 599 601
f 599 602 601
f 599 600 602
f 594 603 600
f 594 597 603
f 597 604 603
f 597 598 604
f 600 605 602
f 600 603 605
f 603 606 605
f 603 604 606
f 558 607 596
f 558 569 607
f 569 608 607
f 569 570 608
f 596 609 598
f 596 607 609
f 607 610 609
f 607 608 610
f 570 611 608
f 570 573 611
f 573 612 611
f 573 574 612
f 608 613 610
f 608 611 613
f 611 614 613
f 611 612 614
f 598 615 604
f 598 609 615
f 609 616 615
f 609 610 616
f 604 617 606
f 604 615 617
f 615 618 617
f 615 616 618
f 610 619 616
f 610 613 619
f 613 620 619
f 613 614 620
f 616 621 618
f 616 619 621
f 619 622 621
f 619 620 622
f 574 623 612
f 574 589 623
f 589 624 623
f 589 590 624
f 612 625 614
f 612 623 625
f 623 626 625
f 623 624 626
f 614 627 620
f 614 625 627
f 625 628 627
f 625 626 628
f 620 629 622
f 620 627 629
f 627 630 629
f 627 628 630

