# https://github.com/mikedh/trimesh
v -0.11400000 0.05400000 -0.09400000
v -0.11400000 0.05400000 -0.09000000
v -0.11400000 0.05800000 -0.09400000
v -0.11400000 0.05800000 -0.09000000
v -0.11000000 0.05400000 -0.09400000
v -0.11000000 0.05400000 -0.09000000
v -0.11000000 0.05800000 -0.09400000
v -0.11000000 0.05800000 -0.09000000
v -0.11400000 0.06200000 -0.09400000
v -0.11400000 0.06200000 -0.09000000
v -0.11000000 0.06200000 -0.09400000
v -0.11000000 0.06200000 -0.09000000
v -0.11400000 0.06600000 -0.09400000
v -0.11400000 0.06600000 -0.09000000
v -0.11000000 0.06600000 -0.09400000
v -0.11000000 0.06600000 -0.09000000
v -0.11400000 0.07000000 -0.09400000
v -0.11400000 0.07000000 -0.09000000
v -0.11000000 0.07000000 -0.09400000
v -0.11000000 0.07000000 -0.09000000
v -0.10600000 0.05400000 -0.09400000
v -0.10600000 0.05400000 -0.09000000
v -0.10600000 0.05800000 -0.09400000
v -0.10600000 0.05800000 -0.09000000
v -0.10600000 0.06200000 -0.09400000
v -0.10600000 0.06200000 -0.09000000
v -0.10600000 0.06600000 -0.09400000
v -0.10600000 0.06600000 -0.09000000
v -0.10600000 0.07000000 -0.09400000
v -0.10600000 0.07000000 -0.09000000
v -0.11000000 0.07000000 -0.09800000
v -0.11000000 0.07400000 -0.09800000
v -0.11000000 0.07400000 -0.09400000
v -0.10600000 0.07000000 -0.09800000
v -0.10600000 0.07400000 -0.09800000
v -0.10600000 0.07400000 -0.09400000
v -0.10600000 0.05400000 -0.10200000
v -0.10600000 0.05400000 -0.09800000
v -0.10600000 0.05800000 -0.10200000
v -0.10600000 0.05800000 -0.09800000
v -0.10200000 0.05400000 -0.10200000
v -0.10200000 0.05400000 -0.09800000
v -0.10200000 0.05800000 -0.10200000
v -0.10200000 0.05800000 -0.09800000
v -0.10200000 0.05400000 -0.09400000
v -0.10200000 0.05400000 -0.09000000
v -0.10200000 0.05800000 -0.09400000
v -0.10200000 0.05800000 -0.09000000
v -0.10600000 0.06200000 -0.10200000
v -0.10600000 0.06200000 -0.09800000
v -0.10200000 0.06200000 -0.10200000
v -0.10200000 0.06200000 -0.09800000
v -0.10200000 0.06200000 -0.09400000
v -0.10200000 0.06200000 -0.09000000
v -0.10600000 0.06600000 -0.10200000
v -0.10600000 0.06600000 -0.09800000
v -0.10200000 0.06600000 -0.10200000
v -0.10200000 0.06600000 -0.09800000
v -0.10200000 0.06600000 -0.09400000
v -0.10200000 0.06600000 -0.09000000
v -0.10600000 0.07000000 -0.10200000
v -0.10200000 0.07000000 -0.10200000
v -0.10200000 0.07000000 -0.09800000
v -0.10200000 0.07000000 -0.09400000
v -0.10200000 0.07000000 -0.09000000
v -0.10600000 0.07400000 -0.10200000
v -0.10200000 0.07400000 -0.10200000
v -0.10200000 0.07400000 -0.09800000
v -0.10200000 0.07400000 -0.09400000
v -0.09800000 0.05400000 -0.10200000
v -0.09800000 0.05400000 -0.09800000
v -0.09800000 0.05800000 -0.10200000
v -0.09800000 0.05800000 -0.09800000
v -0.09800000 0.05400000 -0.09400000
v -0.09800000 0.05400000 -0.09000000
v -0.09800000 0.05800000 -0.09400000
v -0.09800000 0.05800000 -0.09000000
v -0.09800000 0.06200000 -0.10200000
v -0.09800000 0.06200000 -0.09800000
v -0.09800000 0.06200000 -0.09400000
v -0.09800000 0.06200000 -0.09000000
v -0.09800000 0.06600000 -0.10200000
v -0.09800000 0.06600000 -0.09800000
v -0.09800000 0.06600000 -0.09400000
v -0.09800000 0.06600000 -0.09000000
v -0.09800000 0.07000000 -0.10200000
v -0.09800000 0.07000000 -0.09800000
v -0.09800000 0.07000000 -0.09400000
v -0.09800000 0.07000000 -0.09000000
v -0.09800000 0.07400000 -0.10200000
v -0.09800000 0.07400000 -0.09800000
v -0.09800000 0.07400000 -0.09400000
v -0.09400000 0.05400000 -0.10200000
v -0.09400000 0.05400000 -0.09800000
v -0.09400000 0.05800000 -0.10200000
v -0.09400000 0.05800000 -0.09800000
v -0.09400000 0.05400000 -0.09400000
v -0.09400000 0.05400000 -0.09000000
v -0.09400000 0.05800000 -0.09400000
v -0.09400000 0.05800000 -0.09000000
v -0.09400000 0.06200000 -0.10200000
v -0.09400000 0.06200000 -0.09800000
v -0.09400000 0.06200000 -0.09400000
v -0.09400000 0.06200000 -0.09000000
v -0.09400000 0.06600000 -0.10200000
v -0.09400000 0.06600000 -0.09800000
v -0.09400000 0.06600000 -0.09400000
v -0.09400000 0.06600000 -0.09000000
v -0.09400000 0.07000000 -0.10200000
v -0.09400000 0.07000000 -0.09800000
v -0.09400000 0.07000000 -0.09400000
v -0.09400000 0.07000000 -0.09000000
v -0.09400000 0.07400000 -0.10200000
v -0.09400000 0.07400000 -0.09800000
v -0.09400000 0.07400000 -0.09400000
v -0.09000000 0.05400000 -0.10200000
v -0.09000000 0.05400000 -0.09800000
v -0.09000000 0.05800000 -0.10200000
v -0.09000000 0.05800000 -0.09800000
v -0.09000000 0.05400000 -0.09400000
v -0.09000000 0.05400000 -0.09000000
v -0.09000000 0.05800000 -0.09400000
v -0.09000000 0.05800000 -0.09000000
v -0.09000000 0.06200000 -0.10200000
v -0.09000000 0.06200000 -0.09800000
v -0.09000000 0.06200000 -0.09400000
v -0.09000000 0.06200000 -0.09000000
v -0.09000000 0.06600000 -0.10200000
v -0.09000000 0.06600000 -0.09800000
v -0.09000000 0.06600000 -0.09400000
v -0.09000000 0.06600000 -0.09000000
v -0.09000000 0.07000000 -0.10200000
v -0.09000000 0.07000000 -0.09800000
v -0.09000000 0.07000000 -0.09400000
v -0.09000000 0.07000000 -0.09000000
v -0.09000000 0.07400000 -0.10200000
v -0.09000000 0.07400000 -0.09800000
v -0.09000000 0.07400000 -0.09400000
v -0.08600000 0.05400000 -0.10200000
v -0.08600000 0.05400000 -0.09800000
v -0.08600000 0.05800000 -0.10200000
v -0.08600000 0.05800000 -0.09800000
v -0.08600000 0.05400000 -0.09400000
v -0.08600000 0.05400000 -0.09000000
v -0.08600000 0.05800000 -0.09400000
v -0.08600000 0.05800000 -0.09000000
v -0.08600000 0.06200000 -0.10200000
v -0.08600000 0.06200000 -0.09800000
v -0.08600000 0.06200000 -0.09400000
v -0.08600000 0.06200000 -0.09000000
v -0.08600000 0.06600000 -0.10200000
v -0.08600000 0.06600000 -0.09800000
v -0.08600000 0.06600000 -0.09400000
v -0.08600000 0.06600000 -0.09000000
v -0.08600000 0.07000000 -0.10200000
v -0.08600000 0.07000000 -0.09800000
v -0.08600000 0.07000000 -0.09400000
v -0.08600000 0.07000000 -0.09000000
v -0.08600000 0.07400000 -0.10200000
v -0.08600000 0.07400000 -0.09800000
v -0.08600000 0.07400000 -0.09400000
v -0.08200000 0.05400000 -0.10200000
v -0.08200000 0.05400000 -0.09800000
v -0.08200000 0.05800000 -0.10200000
v -0.08200000 0.05800000 -0.09800000
v -0.08200000 0.05400000 -0.09400000
v -0.08200000 0.05400000 -0.09000000
v -0.08200000 0.05800000 -0.09400000
v -0.08200000 0.05800000 -0.09000000
v -0.08200000 0.06200000 -0.10200000
v -0.08200000 0.06200000 -0.09800000
v -0.08200000 0.06200000 -0.09400000
v -0.08200000 0.06200000 -0.09000000
v -0.08200000 0.06600000 -0.10200000
v -0.08200000 0.06600000 -0.09800000
v -0.08200000 0.06600000 -0.09400000
v -0.08200000 0.06600000 -0.09000000
v -0.08200000 0.07000000 -0.10200000
v -0.08200000 0.07000000 -0.09800000
v -0.08200000 0.07000000 -0.09400000
v -0.08200000 0.07000000 -0.09000000
v -0.08200000 0.07400000 -0.10200000
v -0.08200000 0.07400000 -0.09800000
v -0.08200000 0.07400000 -0.09400000
v -0.07800000 0.05400000 -0.10200000
v -0.07800000 0.05400000 -0.09800000
v -0.07800000 0.05800000 -0.10200000
v -0.07800000 0.05800000 -0.09800000
v -0.07800000 0.05400000 -0.09400000
v -0.07800000 0.05400000 -0.09000000
v -0.07800000 0.05800000 -0.09400000
v -0.07800000 0.05800000 -0.09000000
v -0.07800000 0.06200000 -0.10200000
v -0.07800000 0.06200000 -0.09800000
v -0.07800000 0.06200000 -0.09400000
v -0.07800000 0.06200000 -0.09000000
v -0.07800000 0.06600000 -0.10200000
v -0.07800000 0.06600000 -0.09800000
v -0.07800000 0.06600000 -0.09400000
v -0.07800000 0.06600000 -0.09000000
v -0.07800000 0.07000000 -0.10200000
v -0.07800000 0.07000000 -0.09800000
v -0.07800000 0.07000000 -0.09400000
v -0.07800000 0.07000000 -0.09000000
v -0.07800000 0.07400000 -0.10200000
v -0.07800000 0.07400000 -0.09800000
v -0.07800000 0.07400000 -0.09400000
v -0.07400000 0.05400000 -0.10200000
v -0.07400000 0.05400000 -0.09800000
v -0.07400000 0.05800000 -0.10200000
v -0.07400000 0.05800000 -0.09800000
v -0.07400000 0.05400000 -0.09400000
v -0.07400000 0.05400000 -0.09000000
v -0.07400000 0.05800000 -0.09400000
v -0.07400000 0.05800000 -0.09000000
v -0.07400000 0.06200000 -0.10200000
v -0.07400000 0.06200000 -0.09800000
v -0.07400000 0.06200000 -0.09400000
v -0.07400000 0.06200000 -0.09000000
v -0.07400000 0.06600000 -0.10200000
v -0.07400000 0.06600000 -0.09800000
v -0.07400000 0.06600000 -0.09400000
v -0.07400000 0.06600000 -0.09000000
v -0.07400000 0.07000000 -0.10200000
v -0.07400000 0.07000000 -0.09800000
v -0.07400000 0.07000000 -0.09400000
v -0.07400000 0.07000000 -0.09000000
v -0.07400000 0.07400000 -0.10200000
v -0.07400000 0.07400000 -0.09800000
v -0.07400000 0.07400000 -0.09400000
v -0.07000000 0.05400000 -0.10200000
v -0.07000000 0.05400000 -0.09800000
v -0.07000000 0.05800000 -0.10200000
v -0.07000000 0.05800000 -0.09800000
v -0.07000000 0.05400000 -0.09400000
v -0.07000000 0.05400000 -0.09000000
v -0.07000000 0.05800000 -0.09400000
v -0.07000000 0.05800000 -0.09000000
v -0.07000000 0.06200000 -0.10200000
v -0.07000000 0.06200000 -0.09800000
v -0.07000000 0.06200000 -0.09400000
v -0.07000000 0.06200000 -0.09000000
v -0.07000000 0.06600000 -0.10200000
v -0.07000000 0.06600000 -0.09800000
v -0.07000000 0.06600000 -0.09400000
v -0.07000000 0.06600000 -0.09000000
v -0.07000000 0.07000000 -0.10200000
v -0.07000000 0.07000000 -0.09800000
v -0.07000000 0.07000000 -0.09400000
v -0.07000000 0.07000000 -0.09000000
v -0.07000000 0.07400000 -0.10200000
v -0.07000000 0.07400000 -0.09800000
v -0.07000000 0.07400000 -0.09400000
v -0.06600000 0.05400000 -0.10200000
v -0.06600000 0.05400000 -0.09800000
v -0.06600000 0.05800000 -0.10200000
v -0.06600000 0.05800000 -0.09800000
v -0.06600000 0.05400000 -0.09400000
v -0.06600000 0.05400000 -0.09000000
v -0.06600000 0.05800000 -0.09400000
v -0.06600000 0.05800000 -0.09000000
v -0.06600000 0.06200000 -0.10200000
v -0.06600000 0.06200000 -0.09800000
v -0.06600000 0.06200000 -0.09400000
v -0.06600000 0.06200000 -0.09000000
v -0.06600000 0.06600000 -0.10200000
v -0.06600000 0.06600000 -0.09800000
v -0.06600000 0.06600000 -0.09400000
v -0.06600000 0.06600000 -0.09000000
v -0.06600000 0.07000000 -0.10200000
v -0.06600000 0.07000000 -0.09800000
v -0.06600000 0.07000000 -0.09400000
v -0.06600000 0.07000000 -0.09000000
v -0.06600000 0.07400000 -0.10200000
v -0.06600000 0.07400000 -0.09800000
v -0.06600000 0.07400000 -0.09400000
v -0.06200000 0.05400000 -0.10200000
v -0.06200000 0.05400000 -0.09800000
v -0.06200000 0.05800000 -0.10200000
v -0.06200000 0.05800000 -0.09800000
v -0.06200000 0.05400000 -0.09400000
v -0.06200000 0.05400000 -0.09000000
v -0.06200000 0.05800000 -0.09400000
v -0.06200000 0.05800000 -0.09000000
v -0.06200000 0.06200000 -0.10200000
v -0.06200000 0.06200000 -0.09800000
v -0.06200000 0.06200000 -0.09400000
v -0.06200000 0.06200000 -0.09000000
v -0.06200000 0.06600000 -0.10200000
v -0.06200000 0.06600000 -0.09800000
v -0.06200000 0.06600000 -0.09400000
v -0.06200000 0.06600000 -0.09000000
v -0.06200000 0.07000000 -0.10200000
v -0.06200000 0.07000000 -0.09800000
v -0.06200000 0.07000000 -0.09400000
v -0.06200000 0.07000000 -0.09000000
v -0.06200000 0.07400000 -0.10200000
v -0.06200000 0.07400000 -0.09800000
v -0.06200000 0.07400000 -0.09400000
v -0.05800000 0.05400000 -0.10200000
v -0.05800000 0.05400000 -0.09800000
v -0.05800000 0.05800000 -0.10200000
v -0.05800000 0.05800000 -0.09800000
v -0.05800000 0.05400000 -0.09400000
v -0.05800000 0.05400000 -0.09000000
v -0.05800000 0.05800000 -0.09400000
v -0.05800000 0.05800000 -0.09000000
v -0.05800000 0.06200000 -0.10200000
v -0.05800000 0.06200000 -0.09800000
v -0.05800000 0.06200000 -0.09400000
v -0.05800000 0.06200000 -0.09000000
v -0.05800000 0.06600000 -0.10200000
v -0.05800000 0.06600000 -0.09800000
v -0.05800000 0.06600000 -0.09400000
v -0.05800000 0.06600000 -0.09000000
v -0.05800000 0.07000000 -0.10200000
v -0.05800000 0.07000000 -0.09800000
v -0.05800000 0.07000000 -0.09400000
v -0.05800000 0.07000000 -0.09000000
v -0.05800000 0.07400000 -0.10200000
v -0.05800000 0.07400000 -0.09800000
v -0.05800000 0.07400000 -0.09400000
v -0.05400000 0.05400000 -0.10200000
v -0.05400000 0.05400000 -0.09800000
v -0.05400000 0.05800000 -0.10200000
v -0.05400000 0.05800000 -0.09800000
v -0.05400000 0.05400000 -0.09400000
v -0.05400000 0.05400000 -0.09000000
v -0.05400000 0.05800000 -0.09400000
v -0.05400000 0.05800000 -0.09000000
v -0.05400000 0.06200000 -0.10200000
v -0.05400000 0.06200000 -0.09800000
v -0.05400000 0.06200000 -0.09400000
v -0.05400000 0.06200000 -0.09000000
v -0.05400000 0.06600000 -0.10200000
v -0.05400000 0.06600000 -0.09800000
v -0.05400000 0.06600000 -0.09400000
v -0.05400000 0.06600000 -0.09000000
v -0.05400000 0.07000000 -0.10200000
v -0.05400000 0.07000000 -0.09800000
v -0.05400000 0.07000000 -0.09400000
v -0.05400000 0.07000000 -0.09000000
v -0.05400000 0.07400000 -0.10200000
v -0.05400000 0.07400000 -0.09800000
v -0.05400000 0.07400000 -0.09400000
v -0.05000000 0.05400000 -0.10200000
v -0.05000000 0.05400000 -0.09800000
v -0.05000000 0.05800000 -0.10200000
v -0.05000000 0.05800000 -0.09800000
v -0.05000000 0.05400000 -0.09400000
v -0.05000000 0.05400000 -0.09000000
v -0.05000000 0.05800000 -0.09400000
v -0.05000000 0.05800000 -0.09000000
v -0.05000000 0.06200000 -0.10200000
v -0.05000000 0.06200000 -0.09800000
v -0.05000000 0.06200000 -0.09400000
v -0.05000000 0.06200000 -0.09000000
v -0.05000000 0.06600000 -0.10200000
v -0.05000000 0.06600000 -0.09800000
v -0.05000000 0.06600000 -0.09400000
v -0.05000000 0.06600000 -0.09000000
v -0.05000000 0.07000000 -0.10200000
v -0.05000000 0.07000000 -0.09800000
v -0.05000000 0.07000000 -0.09400000
v -0.05000000 0.07000000 -0.09000000
v -0.05000000 0.07400000 -0.10200000
v -0.05000000 0.07400000 -0.09800000
v -0.05000000 0.07400000 -0.09400000
v -0.04600000 0.05400000 -0.10200000
v -0.04600000 0.05400000 -0.09800000
v -0.04600000 0.05800000 -0.10200000
v -0.04600000 0.05800000 -0.09800000
v -0.04600000 0.05400000 -0.09400000
v -0.04600000 0.05400000 -0.09000000
v -0.04600000 0.05800000 -0.09400000
v -0.04600000 0.05800000 -0.09000000
v -0.04600000 0.06200000 -0.10200000
v -0.04600000 0.06200000 -0.09800000
v -0.04600000 0.06200000 -0.09400000
v -0.04600000 0.06200000 -0.09000000
v -0.04600000 0.06600000 -0.10200000
v -0.04600000 0.06600000 -0.09800000
v -0.04600000 0.06600000 -0.09400000
v -0.04600000 0.06600000 -0.09000000
v -0.04600000 0.07000000 -0.10200000
v -0.04600000 0.07000000 -0.09800000
v -0.04600000 0.07000000 -0.09400000
v -0.04600000 0.07000000 -0.09000000
v -0.04600000 0.07400000 -0.10200000
v -0.04600000 0.07400000 -0.09800000
v -0.04600000 0.07400000 -0.09400000
v -0.04200000 0.05400000 -0.10200000
v -0.04200000 0.05400000 -0.09800000
v -0.04200000 0.05800000 -0.10200000
v -0.04200000 0.05800000 -0.09800000
v -0.04200000 0.05400000 -0.09400000
v -0.04200000 0.05400000 -0.09000000
v -0.04200000 0.05800000 -0.09400000
v -0.04200000 0.05800000 -0.09000000
v -0.04200000 0.06200000 -0.10200000
v -0.04200000 0.06200000 -0.09800000
v -0.04200000 0.06200000 -0.09400000
v -0.04200000 0.06200000 -0.09000000
v -0.04200000 0.06600000 -0.10200000
v -0.04200000 0.06600000 -0.09800000
v -0.04200000 0.06600000 -0.09400000
v -0.04200000 0.06600000 -0.09000000
v -0.04200000 0.07000000 -0.10200000
v -0.04200000 0.07000000 -0.09800000
v -0.04200000 0.07000000 -0.09400000
v -0.04200000 0.07000000 -0.09000000
v -0.04200000 0.07400000 -0.10200000
v -0.04200000 0.07400000 -0.09800000
v -0.04200000 0.07400000 -0.09400000
v -0.03800000 0.05400000 -0.10200000
v -0.03800000 0.05400000 -0.09800000
v -0.03800000 0.05800000 -0.10200000
v -0.03800000 0.05800000 -0.09800000
v -0.03800000 0.05400000 -0.09400000
v -0.03800000 0.05400000 -0.09000000
v -0.03800000 0.05800000 -0.09400000
v -0.03800000 0.05800000 -0.09000000
v -0.03800000 0.06200000 -0.10200000
v -0.03800000 0.06200000 -0.09800000
v -0.03800000 0.06200000 -0.09400000
v -0.03800000 0.06200000 -0.09000000
v -0.03800000 0.06600000 -0.10200000
v -0.03800000 0.06600000 -0.09800000
v -0.03800000 0.06600000 -0.09400000
v -0.03800000 0.06600000 -0.09000000
v -0.03800000 0.07000000 -0.10200000
v -0.03800000 0.07000000 -0.09800000
v -0.03800000 0.07000000 -0.09400000
v -0.03800000 0.07000000 -0.09000000
v -0.03800000 0.07400000 -0.10200000
v -0.03800000 0.07400000 -0.09800000
v -0.03800000 0.07400000 -0.09400000
v -0.03400000 0.05400000 -0.10200000
v -0.03400000 0.05400000 -0.09800000
v -0.03400000 0.05800000 -0.10200000
v -0.03400000 0.05800000 -0.09800000
v -0.03400000 0.05400000 -0.09400000
v -0.03400000 0.05400000 -0.09000000
v -0.03400000 0.05800000 -0.09400000
v -0.03400000 0.05800000 -0.09000000
v -0.03400000 0.06200000 -0.10200000
v -0.03400000 0.06200000 -0.09800000
v -0.03400000 0.06200000 -0.09400000
v -0.03400000 0.06200000 -0.09000000
v -0.03400000 0.06600000 -0.10200000
v -0.03400000 0.06600000 -0.09800000
v -0.03400000 0.06600000 -0.09400000
v -0.03400000 0.06600000 -0.09000000
v -0.03400000 0.07000000 -0.10200000
v -0.03400000 0.07000000 -0.09800000
v -0.03400000 0.07000000 -0.09400000
v -0.03400000 0.07000000 -0.09000000
v -0.03400000 0.07400000 -0.10200000
v -0.03400000 0.07400000 -0.09800000
v -0.03400000 0.07400000 -0.09400000
v -0.03000000 0.05400000 -0.10200000
v -0.03000000 0.05400000 -0.09800000
v -0.03000000 0.05800000 -0.10200000
v -0.03000000 0.05800000 -0.09800000
v -0.03000000 0.05400000 -0.09400000
v -0.03000000 0.05400000 -0.09000000
v -0.03000000 0.05800000 -0.09400000
v -0.03000000 0.05800000 -0.09000000
v -0.03000000 0.06200000 -0.10200000
v -0.03000000 0.06200000 -0.09800000
v -0.03000000 0.06200000 -0.09400000
v -0.03000000 0.06200000 -0.09000000
v -0.03000000 0.06600000 -0.10200000
v -0.03000000 0.06600000 -0.09800000
v -0.03000000 0.06600000 -0.09400000
v -0.03000000 0.06600000 -0.09000000
v -0.03000000 0.07000000 -0.10200000
v -0.03000000 0.07000000 -0.09800000
v -0.03000000 0.07000000 -0.09400000
v -0.03000000 0.07000000 -0.09000000
v -0.03000000 0.07400000 -0.10200000
v -0.03000000 0.07400000 -0.09800000
v -0.03000000 0.07400000 -0.09400000
v -0.02600000 0.05400000 -0.10200000
v -0.02600000 0.05400000 -0.09800000
v -0.02600000 0.05800000 -0.10200000
v -0.02600000 0.05800000 -0.09800000
v -0.02600000 0.05400000 -0.09400000
v -0.02600000 0.05400000 -0.09000000
v -0.02600000 0.05800000 -0.09400000
v -0.02600000 0.05800000 -0.09000000
v -0.02600000 0.06200000 -0.10200000
v -0.02600000 0.06200000 -0.09800000
v -0.02600000 0.06200000 -0.09400000
v -0.02600000 0.06200000 -0.09000000
v -0.02600000 0.06600000 -0.10200000
v -0.02600000 0.06600000 -0.09800000
v -0.02600000 0.06600000 -0.09400000
v -0.02600000 0.06600000 -0.09000000
v -0.02600000 0.07000000 -0.10200000
v -0.02600000 0.07000000 -0.09800000
v -0.02600000 0.07000000 -0.09400000
v -0.02600000 0.07000000 -0.09000000
v -0.02600000 0.07400000 -0.10200000
v -0.02600000 0.07400000 -0.09800000
v -0.02600000 0.07400000 -0.09400000
v -0.02200000 0.05400000 -0.10200000
v -0.02200000 0.05400000 -0.09800000
v -0.02200000 0.05800000 -0.10200000
v -0.02200000 0.05800000 -0.09800000
v -0.02200000 0.05400000 -0.09400000
v -0.02200000 0.05400000 -0.09000000
v -0.02200000 0.05800000 -0.09400000
v -0.02200000 0.05800000 -0.09000000
v -0.02200000 0.06200000 -0.10200000
v -0.02200000 0.06200000 -0.09800000
v -0.02200000 0.06200000 -0.09400000
v -0.02200000 0.06200000 -0.09000000
v -0.02200000 0.06600000 -0.10200000
v -0.02200000 0.06600000 -0.09800000
v -0.02200000 0.06600000 -0.09400000
v -0.02200000 0.06600000 -0.09000000
v -0.02200000 0.07000000 -0.10200000
v -0.02200000 0.07000000 -0.09800000
v -0.02200000 0.07000000 -0.09400000
v -0.02200000 0.07000000 -0.09000000
v -0.02200000 0.07400000 -0.10200000
v -0.02200000 0.07400000 -0.09800000
v -0.02200000 0.07400000 -0.09400000
v -0.01800000 0.05400000 -0.10200000
v -0.01800000 0.05400000 -0.09800000
v -0.01800000 0.05800000 -0.10200000
v -0.01800000 0.05800000 -0.09800000
v -0.01800000 0.05400000 -0.09400000
v -0.01800000 0.05400000 -0.09000000
v -0.01800000 0.05800000 -0.09400000
v -0.01800000 0.05800000 -0.09000000
v -0.01800000 0.06200000 -0.10200000
v -0.01800000 0.06200000 -0.09800000
v -0.01800000 0.06200000 -0.09400000
v -0.01800000 0.06200000 -0.09000000
v -0.01800000 0.06600000 -0.10200000
v -0.01800000 0.06600000 -0.09800000
v -0.01800000 0.06600000 -0.09400000
v -0.01800000 0.06600000 -0.09000000
v -0.01800000 0.07000000 -0.10200000
v -0.01800000 0.07000000 -0.09800000
v -0.01800000 0.07000000 -0.09400000
v -0.01800000 0.07000000 -0.09000000
v -0.01800000 0.07400000 -0.10200000
v -0.01800000 0.07400000 -0.09800000
v -0.01800000 0.07400000 -0.09400000
v -0.01400000 0.05400000 -0.10200000
v -0.01400000 0.05400000 -0.09800000
v -0.01400000 0.05800000 -0.10200000
v -0.01400000 0.05800000 -0.09800000
v -0.01400000 0.05400000 -0.09400000
v -0.01400000 0.05400000 -0.09000000
v -0.01400000 0.05800000 -0.09400000
v -0.01400000 0.05800000 -0.09000000
v -0.01400000 0.06200000 -0.10200000
v -0.01400000 0.06200000 -0.09800000
v -0.01400000 0.06200000 -0.09400000
v -0.01400000 0.06200000 -0.09000000
v -0.01400000 0.06600000 -0.10200000
v -0.01400000 0.06600000 -0.09800000
v -0.01400000 0.06600000 -0.09400000
v -0.01400000 0.06600000 -0.09000000
v -0.01400000 0.07000000 -0.10200000
v -0.01400000 0.07000000 -0.09800000
v -0.01400000 0.07000000 -0.09400000
v -0.01400000 0.07000000 -0.09000000
v -0.01400000 0.07400000 -0.10200000
v -0.01400000 0.07400000 -0.09800000
v -0.01400000 0.07400000 -0.09400000
v -0.01000000 0.05400000 -0.10200000
v -0.01000000 0.05400000 -0.09800000
v -0.01000000 0.05800000 -0.10200000
v -0.01000000 0.05800000 -0.09800000
v -0.01000000 0.05400000 -0.09400000
v -0.01000000 0.05400000 -0.09000000
v -0.01000000 0.05800000 -0.09400000
v -0.01000000 0.05800000 -0.09000000
v -0.01000000 0.06200000 -0.10200000
v -0.01000000 0.06200000 -0.09800000
v -0.01000000 0.06200000 -0.09400000
v -0.01000000 0.06200000 -0.09000000
v -0.01000000 0.06600000 -0.10200000
v -0.01000000 0.06600000 -0.09800000
v -0.01000000 0.06600000 -0.09400000
v -0.01000000 0.06600000 -0.09000000
v -0.01000000 0.07000000 -0.10200000
v -0.01000000 0.07000000 -0.09800000
v -0.01000000 0.07000000 -0.09400000
v -0.01000000 0.07000000 -0.09000000
v -0.01000000 0.07400000 -0.10200000
v -0.01000000 0.07400000 -0.09800000
v -0.01000000 0.07400000 -0.09400000
v -0.00600000 0.05400000 -0.10200000
v -0.00600000 0.05400000 -0.09800000
v -0.00600000 0.05800000 -0.10200000
v -0.00600000 0.05800000 -0.09800000
v -0.00600000 0.05400000 -0.09400000
v -0.00600000 0.05400000 -0.09000000
v -0.00600000 0.05800000 -0.09400000
v -0.00600000 0.05800000 -0.09000000
v -0.00600000 0.06200000 -0.10200000
v -0.00600000 0.06200000 -0.09800000
v -0.00600000 0.06200000 -0.09400000
v -0.00600000 0.06200000 -0.09000000
v -0.00600000 0.06600000 -0.10200000
v -0.00600000 0.06600000 -0.09800000
v -0.00600000 0.06600000 -0.09400000
v -0.00600000 0.06600000 -0.09000000
v -0.00600000 0.07000000 -0.10200000
v -0.00600000 0.07000000 -0.09800000
v -0.00600000 0.07000000 -0.09400000
v -0.00600000 0.07000000 -0.09000000
v -0.00600000 0.07400000 -0.10200000
v -0.00600000 0.07400000 -0.09800000
v -0.00600000 0.07400000 -0.09400000
v -0.00200000 0.05400000 -0.10200000
v -0.00200000 0.05400000 -0.09800000
v -0.00200000 0.05800000 -0.10200000
v -0.00200000 0.05800000 -0.09800000
v -0.00200000 0.05400000 -0.09400000
v -0.00200000 0.05400000 -0.09000000
v -0.00200000 0.05800000 -0.09400000
v -0.00200000 0.05800000 -0.09000000
v -0.00200000 0.06200000 -0.10200000
v -0.00200000 0.06200000 -0.09800000
v -0.00200000 0.06200000 -0.09400000
v -0.00200000 0.06200000 -0.09000000
v -0.00200000 0.06600000 -0.10200000
v -0.00200000 0.06600000 -0.09800000
v -0.00200000 0.06600000 -0.09400000
v -0.00200000 0.06600000 -0.09000000
v -0.00200000 0.07000000 -0.10200000
v -0.00200000 0.07000000 -0.09800000
v -0.00200000 0.07000000 -0.09400000
v -0.00200000 0.07000000 -0.09000000
v -0.00200000 0.07400000 -0.10200000
v -0.00200000 0.07400000 -0.09800000
v -0.00200000 0.07400000 -0.09400000
v 0.00200000 0.05400000 -0.10200000
v 0.00200000 0.05400000 -0.09800000
v 0.00200000 0.05800000 -0.10200000
v 0.00200000 0.05800000 -0.09800000
v 0.00200000 0.05400000 -0.09400000
v 0.00200000 0.05400000 -0.09000000
v 0.00200000 0.05800000 -0.09400000
v 0.00200000 0.05800000 -0.09000000
v 0.00200000 0.06200000 -0.10200000
v 0.00200000 0.06200000 -0.09800000
v 0.00200000 0.06200000 -0.09400000
v 0.00200000 0.06200000 -0.09000000
v 0.00200000 0.06600000 -0.10200000
v 0.00200000 0.06600000 -0.09800000
v 0.00200000 0.06600000 -0.09400000
v 0.00200000 0.06600000 -0.09000000
v 0.00200000 0.07000000 -0.10200000
v 0.00200000 0.07000000 -0.09800000
v 0.00200000 0.07000000 -0.09400000
v 0.00200000 0.07000000 -0.09000000
v 0.00200000 0.07400000 -0.10200000
v 0.00200000 0.07400000 -0.09800000
v 0.00200000 0.07400000 -0.09400000
v 0.00600000 0.05400000 -0.10200000
v 0.00600000 0.05400000 -0.09800000
v 0.00600000 0.05800000 -0.10200000
v 0.00600000 0.05800000 -0.09800000
v 0.00600000 0.05400000 -0.09400000
v 0.00600000 0.05400000 -0.09000000
v 0.00600000 0.05800000 -0.09400000
v 0.00600000 0.05800000 -0.09000000
v 0.00600000 0.06200000 -0.10200000
v 0.00600000 0.06200000 -0.09800000
v 0.00600000 0.06200000 -0.09400000
v 0.00600000 0.06200000 -0.09000000
v 0.00600000 0.06600000 -0.10200000
v 0.00600000 0.06600000 -0.09800000
v 0.00600000 0.06600000 -0.09400000
v 0.00600000 0.06600000 -0.09000000
v 0.00600000 0.07000000 -0.10200000
v 0.00600000 0.07000000 -0.09800000
v 0.00600000 0.07000000 -0.09400000
v 0.00600000 0.07000000 -0.09000000
v 0.00600000 0.07400000 -0.10200000
v 0.00600000 0.07400000 -0.09800000
v 0.00600000 0.07400000 -0.09400000
v 0.01000000 0.05400000 -0.10200000
v 0.01000000 0.05400000 -0.09800000
v 0.01000000 0.05800000 -0.10200000
v 0.01000000 0.05800000 -0.09800000
v 0.01000000 0.05400000 -0.09400000
v 0.01000000 0.05400000 -0.09000000
v 0.01000000 0.05800000 -0.09400000
v 0.01000000 0.05800000 -0.09000000
v 0.01000000 0.06200000 -0.10200000
v 0.01000000 0.06200000 -0.09800000
v 0.01000000 0.06200000 -0.09400000
v 0.01000000 0.06200000 -0.09000000
v 0.01000000 0.06600000 -0.10200000
v 0.01000000 0.06600000 -0.09800000
v 0.01000000 0.06600000 -0.09400000
v 0.01000000 0.06600000 -0.09000000
v 0.01000000 0.07000000 -0.10200000
v 0.01000000 0.07000000 -0.09800000
v 0.01000000 0.07000000 -0.09400000
v 0.01000000 0.07000000 -0.09000000
v 0.01000000 0.07400000 -0.10200000
v 0.01000000 0.07400000 -0.09800000
v 0.01000000 0.07400000 -0.09400000
v 0.01400000 0.05400000 -0.10200000
v 0.01400000 0.05400000 -0.09800000
v 0.01400000 0.05800000 -0.10200000
v 0.01400000 0.05800000 -0.09800000
v 0.01400000 0.05400000 -0.09400000
v 0.01400000 0.05400000 -0.09000000
v 0.01400000 0.05800000 -0.09400000
v 0.01400000 0.05800000 -0.09000000
v 0.01400000 0.06200000 -0.10200000
v 0.01400000 0.06200000 -0.09800000
v 0.01400000 0.06200000 -0.09400000
v 0.01400000 0.06200000 -0.09000000
v 0.01400000 0.06600000 -0.10200000
v 0.01400000 0.06600000 -0.09800000
v 0.01400000 0.06600000 -0.09400000
v 0.01400000 0.06600000 -0.09000000
v 0.01400000 0.07000000 -0.10200000
v 0.01400000 0.07000000 -0.09800000
v 0.01400000 0.07000000 -0.09400000
v 0.01400000 0.07000000 -0.09000000
v 0.01400000 0.07400000 -0.10200000
v 0.01400000 0.07400000 -0.09800000
v 0.01400000 0.07400000 -0.09400000
v 0.01800000 0.05400000 -0.10200000
v 0.01800000 0.05400000 -0.09800000
v 0.01800000 0.05800000 -0.10200000
v 0.01800000 0.05800000 -0.09800000
v 0.01800000 0.05400000 -0.09400000
v 0.01800000 0.05400000 -0.09000000
v 0.01800000 0.05800000 -0.09400000
v 0.01800000 0.05800000 -0.09000000
v 0.01800000 0.06200000 -0.10200000
v 0.01800000 0.06200000 -0.09800000
v 0.01800000 0.06200000 -0.09400000
v 0.01800000 0.06200000 -0.09000000
v 0.01800000 0.06600000 -0.10200000
v 0.01800000 0.06600000 -0.09800000
v 0.01800000 0.06600000 -0.09400000
v 0.01800000 0.06600000 -0.09000000
v 0.01800000 0.07000000 -0.10200000
v 0.01800000 0.07000000 -0.09800000
v 0.01800000 0.07000000 -0.09400000
v 0.01800000 0.07000000 -0.09000000
v 0.01800000 0.07400000 -0.10200000
v 0.01800000 0.07400000 -0.09800000
v 0.01800000 0.07400000 -0.09400000
v 0.02200000 0.05400000 -0.10200000
v 0.02200000 0.05400000 -0.09800000
v 0.02200000 0.05800000 -0.10200000
v 0.02200000 0.05800000 -0.09800000
v 0.02200000 0.05400000 -0.09400000
v 0.02200000 0.05400000 -0.09000000
v 0.02200000 0.05800000 -0.09400000
v 0.02200000 0.05800000 -0.09000000
v 0.02200000 0.06200000 -0.10200000
v 0.02200000 0.06200000 -0.09800000
v 0.02200000 0.06200000 -0.09400000
v 0.02200000 0.06200000 -0.09000000
v 0.02200000 0.06600000 -0.10200000
v 0.02200000 0.06600000 -0.09800000
v 0.02200000 0.06600000 -0.09400000
v 0.02200000 0.06600000 -0.09000000
v 0.02200000 0.07000000 -0.10200000
v 0.02200000 0.07000000 -0.09800000
v 0.02200000 0.07000000 -0.09400000
v 0.02200000 0.07000000 -0.09000000
v 0.02200000 0.07400000 -0.10200000
v 0.02200000 0.07400000 -0.09800000
v 0.02200000 0.07400000 -0.09400000
v 0.02600000 0.05400000 -0.10200000
v 0.02600000 0.05400000 -0.09800000
v 0.02600000 0.05800000 -0.10200000
v 0.02600000 0.05800000 -0.09800000
v 0.02600000 0.05400000 -0.09400000
v 0.02600000 0.05400000 -0.09000000
v 0.02600000 0.05800000 -0.09400000
v 0.02600000 0.05800000 -0.09000000
v 0.02600000 0.06200000 -0.10200000
v 0.02600000 0.06200000 -0.09800000
v 0.02600000 0.06200000 -0.09400000
v 0.02600000 0.06200000 -0.09000000
v 0.02600000 0.06600000 -0.10200000
v 0.02600000 0.06600000 -0.09800000
v 0.02600000 0.06600000 -0.09400000
v 0.02600000 0.06600000 -0.09000000
v 0.02600000 0.07000000 -0.10200000
v 0.02600000 0.07000000 -0.09800000
v 0.02600000 0.07000000 -0.09400000
v 0.02600000 0.07000000 -0.09000000
v 0.02600000 0.07400000 -0.10200000
v 0.02600000 0.07400000 -0.09800000
v 0.02600000 0.07400000 -0.09400000
v 0.03000000 0.05400000 -0.10200000
v 0.03000000 0.05400000 -0.09800000
v 0.03000000 0.05800000 -0.10200000
v 0.03000000 0.05800000 -0.09800000
v 0.03000000 0.05400000 -0.09400000
v 0.03000000 0.05400000 -0.09000000
v 0.03000000 0.05800000 -0.09400000
v 0.03000000 0.05800000 -0.09000000
v 0.03000000 0.06200000 -0.10200000
v 0.03000000 0.06200000 -0.09800000
v 0.03000000 0.06200000 -0.09400000
v 0.03000000 0.06200000 -0.09000000
v 0.03000000 0.06600000 -0.10200000
v 0.03000000 0.06600000 -0.09800000
v 0.03000000 0.06600000 -0.09400000
v 0.03000000 0.06600000 -0.09000000
v 0.03000000 0.07000000 -0.10200000
v 0.03000000 0.07000000 -0.09800000
v 0.03000000 0.07000000 -0.09400000
v 0.03000000 0.07000000 -0.09000000
v 0.03000000 0.07400000 -0.10200000
v 0.03000000 0.07400000 -0.09800000
v 0.03000000 0.07400000 -0.09400000
v 0.03400000 0.05400000 -0.10200000
v 0.03400000 0.05400000 -0.09800000
v 0.03400000 0.05800000 -0.10200000
v 0.03400000 0.05800000 -0.09800000
v 0.03400000 0.05400000 -0.09400000
v 0.03400000 0.05400000 -0.09000000
v 0.03400000 0.05800000 -0.09400000
v 0.03400000 0.05800000 -0.09000000
v 0.03400000 0.06200000 -0.10200000
v 0.03400000 0.06200000 -0.09800000
v 0.03400000 0.06200000 -0.09400000
v 0.03400000 0.06200000 -0.09000000
v 0.03400000 0.06600000 -0.10200000
v 0.03400000 0.06600000 -0.09800000
v 0.03400000 0.06600000 -0.09400000
v 0.03400000 0.06600000 -0.09000000
v 0.03400000 0.07000000 -0.10200000
v 0.03400000 0.07000000 -0.09800000
v 0.03400000 0.07000000 -0.09400000
v 0.03400000 0.07000000 -0.09000000
v 0.03400000 0.07400000 -0.10200000
v 0.03400000 0.07400000 -0.09800000
v 0.03400000 0.07400000 -0.09400000
v 0.03800000 0.05400000 -0.10200000
v 0.03800000 0.05400000 -0.09800000
v 0.03800000 0.05800000 -0.10200000
v 0.03800000 0.05800000 -0.09800000
v 0.03800000 0.05400000 -0.09400000
v 0.03800000 0.05400000 -0.09000000
v 0.03800000 0.05800000 -0.09400000
v 0.03800000 0.05800000 -0.09000000
v 0.03800000 0.06200000 -0.10200000
v 0.03800000 0.06200000 -0.09800000
v 0.03800000 0.06200000 -0.09400000
v 0.03800000 0.06200000 -0.09000000
v 0.03800000 0.06600000 -0.10200000
v 0.03800000 0.06600000 -0.09800000
v 0.03800000 0.06600000 -0.09400000
v 0.03800000 0.06600000 -0.09000000
v 0.03800000 0.07000000 -0.10200000
v 0.03800000 0.07000000 -0.09800000
v 0.03800000 0.07000000 -0.09400000
v 0.03800000 0.07000000 -0.09000000
v 0.03800000 0.07400000 -0.10200000
v 0.03800000 0.07400000 -0.09800000
v 0.03800000 0.07400000 -0.09400000
v 0.04200000 0.05400000 -0.10200000
v 0.04200000 0.05400000 -0.09800000
v 0.04200000 0.05800000 -0.10200000
v 0.04200000 0.05800000 -0.09800000
v 0.04200000 0.05400000 -0.09400000
v 0.04200000 0.05400000 -0.09000000
v 0.04200000 0.05800000 -0.09400000
v 0.04200000 0.05800000 -0.09000000
v 0.04200000 0.06200000 -0.10200000
v 0.04200000 0.06200000 -0.09800000
v 0.04200000 0.06200000 -0.09400000
v 0.04200000 0.06200000 -0.09000000
v 0.04200000 0.06600000 -0.10200000
v 0.04200000 0.06600000 -0.09800000
v 0.04200000 0.06600000 -0.09400000
v 0.04200000 0.06600000 -0.09000000
v 0.04200000 0.07000000 -0.10200000
v 0.04200000 0.07000000 -0.09800000
v 0.04200000 0.07000000 -0.09400000
v 0.04200000 0.07000000 -0.09000000
v 0.04200000 0.07400000 -0.10200000
v 0.04200000 0.07400000 -0.09800000
v 0.04200000 0.07400000 -0.09400000
v 0.04600000 0.05400000 -0.10200000
v 0.04600000 0.05400000 -0.09800000
v 0.04600000 0.05800000 -0.10200000
v 0.04600000 0.05800000 -0.09800000
v 0.04600000 0.05400000 -0.09400000
v 0.04600000 0.05400000 -0.09000000
v 0.04600000 0.05800000 -0.09400000
v 0.04600000 0.05800000 -0.09000000
v 0.04600000 0.06200000 -0.10200000
v 0.04600000 0.06200000 -0.09800000
v 0.04600000 0.06200000 -0.09400000
v 0.04600000 0.06200000 -0.09000000
v 0.04600000 0.06600000 -0.10200000
v 0.04600000 0.06600000 -0.09800000
v 0.04600000 0.06600000 -0.09400000
v 0.04600000 0.06600000 -0.09000000
v 0.04600000 0.07000000 -0.10200000
v 0.04600000 0.07000000 -0.09800000
v 0.04600000 0.07000000 -0.09400000
v 0.04600000 0.07000000 -0.09000000
v 0.04600000 0.07400000 -0.10200000
v 0.04600000 0.07400000 -0.09800000
v 0.04600000 0.07400000 -0.09400000
v 0.05000000 0.05400000 -0.10200000
v 0.05000000 0.05400000 -0.09800000
v 0.05000000 0.05800000 -0.10200000
v 0.05000000 0.05800000 -0.09800000
v 0.05000000 0.05400000 -0.09400000
v 0.05000000 0.05400000 -0.09000000
v 0.05000000 0.05800000 -0.09400000
v 0.05000000 0.05800000 -0.09000000
v 0.05000000 0.06200000 -0.10200000
v 0.05000000 0.06200000 -0.09800000
v 0.05000000 0.06200000 -0.09400000
v 0.05000000 0.06200000 -0.09000000
v 0.05000000 0.06600000 -0.10200000
v 0.05000000 0.06600000 -0.09800000
v 0.05000000 0.06600000 -0.09400000
v 0.05000000 0.06600000 -0.09000000
v 0.05000000 0.07000000 -0.10200000
v 0.05000000 0.07000000 -0.09800000
v 0.05000000 0.07000000 -0.09400000
v 0.05000000 0.07000000 -0.09000000
v 0.05000000 0.07400000 -0.10200000
v 0.05000000 0.07400000 -0.09800000
v 0.05000000 0.07400000 -0.09400000
v 0.05400000 0.05400000 -0.10200000
v 0.05400000 0.05400000 -0.09800000
v 0.05400000 0.05800000 -0.10200000
v 0.05400000 0.05800000 -0.09800000
v 0.05400000 0.05400000 -0.09400000
v 0.05400000 0.05400000 -0.09000000
v 0.05400000 0.05800000 -0.09400000
v 0.05400000 0.05800000 -0.09000000
v 0.05400000 0.06200000 -0.10200000
v 0.05400000 0.06200000 -0.09800000
v 0.05400000 0.06200000 -0.09400000
v 0.05400000 0.06200000 -0.09000000
v 0.05400000 0.06600000 -0.10200000
v 0.05400000 0.06600000 -0.09800000
v 0.05400000 0.06600000 -0.09400000
v 0.05400000 0.06600000 -0.09000000
v 0.05400000 0.07000000 -0.10200000
v 0.05400000 0.07000000 -0.09800000
v 0.05400000 0.07000000 -0.09400000
v 0.05400000 0.07000000 -0.09000000
v 0.05400000 0.07400000 -0.10200000
v 0.05400000 0.07400000 -0.09800000
v 0.05400000 0.07400000 -0.09400000
v 0.05800000 0.05400000 -0.10200000
v 0.05800000 0.05400000 -0.09800000
v 0.05800000 0.05800000 -0.10200000
v 0.05800000 0.05800000 -0.09800000
v 0.05800000 0.05400000 -0.09400000
v 0.05800000 0.05400000 -0.09000000
v 0.05800000 0.05800000 -0.09400000
v 0.05800000 0.05800000 -0.09000000
v 0.05800000 0.06200000 -0.10200000
v 0.05800000 0.06200000 -0.09800000
v 0.05800000 0.06200000 -0.09400000
v 0.05800000 0.06200000 -0.09000000
v 0.05800000 0.06600000 -0.10200000
v 0.05800000 0.06600000 -0.09800000
v 0.05800000 0.06600000 -0.09400000
v 0.05800000 0.06600000 -0.09000000
v 0.05800000 0.07000000 -0.10200000
v 0.05800000 0.07000000 -0.09800000
v 0.05800000 0.07000000 -0.09400000
v 0.05800000 0.07000000 -0.09000000
v 0.05800000 0.07400000 -0.10200000
v 0.05800000 0.07400000 -0.09800000
v 0.05800000 0.07400000 -0.09400000
v 0.06200000 0.05400000 -0.10200000
v 0.06200000 0.05400000 -0.09800000
v 0.06200000 0.05800000 -0.10200000
v 0.06200000 0.05800000 -0.09800000
v 0.06200000 0.05400000 -0.09400000
v 0.06200000 0.05400000 -0.09000000
v 0.06200000 0.05800000 -0.09400000
v 0.06200000 0.05800000 -0.09000000
v 0.06200000 0.06200000 -0.10200000
v 0.06200000 0.06200000 -0.09800000
v 0.06200000 0.06200000 -0.09400000
v 0.06200000 0.06200000 -0.09000000
v 0.06200000 0.06600000 -0.10200000
v 0.06200000 0.06600000 -0.09800000
v 0.06200000 0.06600000 -0.09400000
v 0.06200000 0.06600000 -0.09000000
v 0.06200000 0.07000000 -0.10200000
v 0.06200000 0.07000000 -0.09800000
v 0.06200000 0.07000000 -0.09400000
v 0.06200000 0.07000000 -0.09000000
v 0.06200000 0.07400000 -0.10200000
v 0.06200000 0.07400000 -0.09800000
v 0.06200000 0.07400000 -0.09400000
v 0.06600000 0.05400000 -0.10200000
v 0.06600000 0.05400000 -0.09800000
v 0.06600000 0.05800000 -0.10200000
v 0.06600000 0.05800000 -0.09800000
v 0.06600000 0.05400000 -0.09400000
v 0.06600000 0.05400000 -0.09000000
v 0.06600000 0.05800000 -0.09400000
v 0.06600000 0.05800000 -0.09000000
v 0.06600000 0.06200000 -0.10200000
v 0.06600000 0.06200000 -0.09800000
v 0.06600000 0.06200000 -0.09400000
v 0.06600000 0.06200000 -0.09000000
v 0.06600000 0.06600000 -0.10200000
v 0.06600000 0.06600000 -0.09800000
v 0.06600000 0.06600000 -0.09400000
v 0.06600000 0.06600000 -0.09000000
v 0.06600000 0.07000000 -0.10200000
v 0.06600000 0.07000000 -0.09800000
v 0.06600000 0.07000000 -0.09400000
v 0.06600000 0.07000000 -0.09000000
v 0.06600000 0.07400000 -0.10200000
v 0.06600000 0.07400000 -0.09800000
v 0.06600000 0.07400000 -0.09400000
v 0.07000000 0.05400000 -0.10200000
v 0.07000000 0.05400000 -0.09800000
v 0.07000000 0.05800000 -0.10200000
v 0.07000000 0.05800000 -0.09800000
v 0.07000000 0.05400000 -0.09400000
v 0.07000000 0.05400000 -0.09000000
v 0.07000000 0.05800000 -0.09400000
v 0.07000000 0.05800000 -0.09000000
v 0.07000000 0.06200000 -0.10200000
v 0.07000000 0.06200000 -0.09800000
v 0.07000000 0.06200000 -0.09400000
v 0.07000000 0.06200000 -0.09000000
v 0.07000000 0.06600000 -0.10200000
v 0.07000000 0.06600000 -0.09800000
v 0.07000000 0.06600000 -0.09400000
v 0.07000000 0.06600000 -0.09000000
v 0.07000000 0.07000000 -0.10200000
v 0.07000000 0.07000000 -0.09800000
v 0.07000000 0.07000000 -0.09400000
v 0.07000000 0.07000000 -0.09000000
v 0.07000000 0.07400000 -0.10200000
v 0.07000000 0.07400000 -0.09800000
v 0.07000000 0.07400000 -0.09400000
v 0.07400000 0.05400000 -0.10200000
v 0.07400000 0.05400000 -0.09800000
v 0.07400000 0.05800000 -0.10200000
v 0.07400000 0.05800000 -0.09800000
v 0.07400000 0.05400000 -0.09400000
v 0.07400000 0.05400000 -0.09000000
v 0.07400000 0.05800000 -0.09400000
v 0.07400000 0.05800000 -0.09000000
v 0.07400000 0.06200000 -0.10200000
v 0.07400000 0.06200000 -0.09800000
v 0.07400000 0.06200000 -0.09400000
v 0.07400000 0.06200000 -0.09000000
v 0.07400000 0.06600000 -0.10200000
v 0.07400000 0.06600000 -0.09800000
v 0.07400000 0.06600000 -0.09400000
v 0.07400000 0.06600000 -0.09000000
v 0.07400000 0.07000000 -0.10200000
v 0.07400000 0.07000000 -0.09800000
v 0.07400000 0.07000000 -0.09400000
v 0.07400000 0.07000000 -0.09000000
v 0.07400000 0.07400000 -0.10200000
v 0.07400000 0.07400000 -0.09800000
v 0.07400000 0.07400000 -0.09400000
v 0.07800000 0.05400000 -0.10200000
v 0.07800000 0.05400000 -0.09800000
v 0.07800000 0.05800000 -0.10200000
v 0.07800000 0.05800000 -0.09800000
v 0.07800000 0.05400000 -0.09400000
v 0.07800000 0.05400000 -0.09000000
v 0.07800000 0.05800000 -0.09400000
v 0.07800000 0.05800000 -0.09000000
v 0.07800000 0.06200000 -0.10200000
v 0.07800000 0.06200000 -0.09800000
v 0.07800000 0.06200000 -0.09400000
v 0.07800000 0.06200000 -0.09000000
v 0.07800000 0.06600000 -0.10200000
v 0.07800000 0.06600000 -0.09800000
v 0.07800000 0.06600000 -0.09400000
v 0.07800000 0.06600000 -0.09000000
v 0.07800000 0.07000000 -0.10200000
v 0.07800000 0.07000000 -0.09800000
v 0.07800000 0.07000000 -0.09400000
v 0.07800000 0.07000000 -0.09000000
v 0.07800000 0.07400000 -0.10200000
v 0.07800000 0.07400000 -0.09800000
v 0.07800000 0.07400000 -0.09400000
v 0.08200000 0.05400000 -0.10200000
v 0.08200000 0.05400000 -0.09800000
v 0.08200000 0.05800000 -0.10200000
v 0.08200000 0.05800000 -0.09800000
v 0.08200000 0.05400000 -0.09400000
v 0.08200000 0.05400000 -0.09000000
v 0.08200000 0.05800000 -0.09400000
v 0.08200000 0.05800000 -0.09000000
v 0.08200000 0.06200000 -0.10200000
v 0.08200000 0.06200000 -0.09800000
v 0.08200000 0.06200000 -0.09400000
v 0.08200000 0.06200000 -0.09000000
v 0.08200000 0.06600000 -0.10200000
v 0.08200000 0.06600000 -0.09800000
v 0.08200000 0.06600000 -0.09400000
v 0.08200000 0.06600000 -0.09000000
v 0.08200000 0.07000000 -0.10200000
v 0.08200000 0.07000000 -0.09800000
v 0.08200000 0.07000000 -0.09400000
v 0.08200000 0.07000000 -0.09000000
v 0.08200000 0.07400000 -0.10200000
v 0.08200000 0.07400000 -0.09800000
v 0.08200000 0.07400000 -0.09400000
v 0.08600000 0.05400000 -0.10200000
v 0.08600000 0.05400000 -0.09800000
v 0.08600000 0.05800000 -0.10200000
v 0.08600000 0.05800000 -0.09800000
v 0.08600000 0.05400000 -0.09400000
v 0.08600000 0.05400000 -0.09000000
v 0.08600000 0.05800000 -0.09400000
v 0.08600000 0.05800000 -0.09000000
v 0.08600000 0.06200000 -0.10200000
v 0.08600000 0.06200000 -0.09800000
v 0.08600000 0.06200000 -0.09400000
v 0.08600000 0.06200000 -0.09000000
v 0.08600000 0.06600000 -0.10200000
v 0.08600000 0.06600000 -0.09800000
v 0.08600000 0.06600000 -0.09400000
v 0.08600000 0.06600000 -0.09000000
v 0.08600000 0.07000000 -0.10200000
v 0.08600000 0.07000000 -0.09800000
v 0.08600000 0.07000000 -0.09400000
v 0.08600000 0.07000000 -0.09000000
v 0.08600000 0.07400000 -0.10200000
v 0.08600000 0.07400000 -0.09800000
v 0.08600000 0.07400000 -0.09400000
v 0.09000000 0.05400000 -0.10200000
v 0.09000000 0.05400000 -0.09800000
v 0.09000000 0.05800000 -0.10200000
v 0.09000000 0.05800000 -0.09800000
v 0.09000000 0.05400000 -0.09400000
v 0.09000000 0.05400000 -0.09000000
v 0.09000000 0.05800000 -0.09400000
v 0.09000000 0.05800000 -0.09000000
v 0.09000000 0.06200000 -0.10200000
v 0.09000000 0.06200000 -0.09800000
v 0.09000000 0.06200000 -0.09400000
v 0.09000000 0.06200000 -0.09000000
v 0.09000000 0.06600000 -0.10200000
v 0.09000000 0.06600000 -0.09800000
v 0.09000000 0.06600000 -0.09400000
v 0.09000000 0.06600000 -0.09000000
v 0.09000000 0.07000000 -0.10200000
v 0.09000000 0.07000000 -0.09800000
v 0.09000000 0.07000000 -0.09400000
v 0.09000000 0.07000000 -0.09000000
v 0.09000000 0.07400000 -0.10200000
v 0.09000000 0.07400000 -0.09800000
v 0.09000000 0.07400000 -0.09400000
v 0.09400000 0.05400000 -0.10200000
v 0.09400000 0.05400000 -0.09800000
v 0.09400000 0.05800000 -0.10200000
v 0.09400000 0.05800000 -0.09800000
v 0.09400000 0.05400000 -0.09400000
v 0.09400000 0.05400000 -0.09000000
v 0.09400000 0.05800000 -0.09400000
v 0.09400000 0.05800000 -0.09000000
v 0.09400000 0.06200000 -0.10200000
v 0.09400000 0.06200000 -0.09800000
v 0.09400000 0.06200000 -0.09400000
v 0.09400000 0.06200000 -0.09000000
v 0.09400000 0.06600000 -0.10200000
v 0.09400000 0.06600000 -0.09800000
v 0.09400000 0.06600000 -0.09400000
v 0.09400000 0.06600000 -0.09000000
v 0.09400000 0.07000000 -0.10200000
v 0.09400000 0.07000000 -0.09800000
v 0.09400000 0.07000000 -0.09400000
v 0.09400000 0.07000000 -0.09000000
v 0.09400000 0.07400000 -0.10200000
v 0.09400000 0.07400000 -0.09800000
v 0.09400000 0.07400000 -0.09400000
v 0.09800000 0.05400000 -0.10200000
v 0.09800000 0.05400000 -0.09800000
v 0.09800000 0.05800000 -0.10200000
v 0.09800000 0.05800000 -0.09800000
v 0.09800000 0.05400000 -0.09400000
v 0.09800000 0.05400000 -0.09000000
v 0.09800000 0.05800000 -0.09400000
v 0.09800000 0.05800000 -0.09000000
v 0.09800000 0.06200000 -0.10200000
v 0.09800000 0.06200000 -0.09800000
v 0.09800000 0.06200000 -0.09400000
v 0.09800000 0.06200000 -0.09000000
v 0.09800000 0.06600000 -0.10200000
v 0.09800000 0.06600000 -0.09800000
v 0.09800000 0.06600000 -0.09400000
v 0.09800000 0.06600000 -0.09000000
v 0.09800000 0.07000000 -0.10200000
v 0.09800000 0.07000000 -0.09400000
v 0.09800000 0.07000000 -0.09000000
v 0.09800000 0.07400000 -0.10200000
v 0.09800000 0.07400000 -0.09800000
v 0.09800000 0.07400000 -0.09400000
v 0.10200000 0.05400000 -0.10200000
v 0.10200000 0.05400000 -0.09800000
v 0.10200000 0.05800000 -0.10200000
v 0.10200000 0.05800000 -0.09800000
v 0.10200000 0.05400000 -0.09400000
v 0.10200000 0.05400000 -0.09000000
v 0.10200000 0.05800000 -0.09400000
v 0.10200000 0.05800000 -0.09000000
v 0.10200000 0.06200000 -0.10200000
v 0.10200000 0.06200000 -0.09800000
v 0.10200000 0.06200000 -0.09400000
v 0.10200000 0.06200000 -0.09000000
v 0.10200000 0.06600000 -0.10200000
v 0.10200000 0.06600000 -0.09800000
v 0.10200000 0.06600000 -0.09400000
v 0.10200000 0.06600000 -0.09000000
v 0.10200000 0.07000000 -0.10200000
v 0.10200000 0.07000000 -0.09800000
v 0.10200000 0.07000000 -0.09400000
v 0.10200000 0.07000000 -0.09000000
v 0.10200000 0.07400000 -0.10200000
v 0.10200000 0.07400000 -0.09800000
v 0.10200000 0.07400000 -0.09400000
v 0.10600000 0.05400000 -0.09400000
v 0.10600000 0.05400000 -0.09000000
v 0.10600000 0.05800000 -0.09400000
v 0.10600000 0.05800000 -0.09000000
v 0.10600000 0.06200000 -0.09400000
v 0.10600000 0.06200000 -0.09000000
v 0.10600000 0.06600000 -0.09400000
v 0.10600000 0.06600000 -0.09000000
v 0.10600000 0.06600000 -0.09800000
v 0.10600000 0.07000000 -0.09800000
v 0.10600000 0.07000000 -0.09400000
v 0.10600000 0.07000000 -0.09000000
v 0.10600000 0.07000000 -0.10200000
v 0.10600000 0.07400000 -0.10200000
v 0.10600000 0.07400000 -0.09800000
v 0.10600000 0.07400000 -0.09400000
f 2 4 1
f 5 2 1
f 1 4 3
f 3 5 1
f 2 8 4
f 6 2 5
f 6 8 2
f 7 5 3
f 4 10 3
f 3 10 9
f 9 7 3
f 4 12 10
f 8 12 4
f 11 7 9
f 10 14 9
f 9 14 13
f 13 11 9
f 10 16 14
f 12 16 10
f 15 11 13
f 14 18 13
f 13 18 17
f 17 15 13
f 14 20 18
f 16 20 14
f 18 20 17
f 19 15 17
f 17 20 19
f 21 6 5
f 7 21 5
f 6 24 8
f 22 6 21
f 22 24 6
f 23 21 7
f 11 23 7
f 8 26 12
f 24 26 8
f 25 23 11
f 15 25 11
f 12 28 16
f 26 28 12
f 27 25 15
f 19 27 15
f 16 30 20
f 28 30 16
f 20 30 19
f 29 27 19
f 19 30 29
f 19 33 31
f 34 19 31
f 31 33 32
f 32 34 31
f 19 36 33
f 29 19 34
f 29 36 19
f 33 36 32
f 35 34 32
f 32 36 35
f 38 40 37
f 41 38 37
f 37 40 39
f 39 41 37
f 38 44 40
f 42 38 41
f 42 44 38
f 43 41 39
f 45 22 21
f 23 45 21
f 22 48 24
f 46 22 45
f 46 48 22
f 47 45 23
f 40 50 39
f 39 50 49
f 49 43 39
f 40 52 50
f 44 52 40
f 51 43 49
f 25 47 23
f 24 54 26
f 48 54 24
f 53 47 25
f 50 56 49
f 49 56 55
f 55 51 49
f 50 58 56
f 52 58 50
f 57 51 55
f 27 53 25
f 26 60 28
f 54 60 26
f 59 53 27
f 56 34 55
f 55 34 61
f 61 57 55
f 56 63 34
f 58 63 56
f 62 57 61
f 29 59 27
f 28 65 30
f 60 65 28
f 30 65 29
f 64 59 29
f 29 65 64
f 34 35 61
f 61 35 66
f 66 62 61
f 35 68 66
f 67 62 66
f 66 68 67
f 63 29 34
f 29 69 36
f 64 29 63
f 64 69 29
f 36 69 35
f 35 69 68
f 70 42 41
f 43 70 41
f 42 73 44
f 71 42 70
f 71 73 42
f 72 70 43
f 74 46 45
f 47 74 45
f 46 77 48
f 75 46 74
f 75 77 46
f 76 74 47
f 51 72 43
f 44 79 52
f 73 79 44
f 78 72 51
f 53 76 47
f 48 81 54
f 77 81 48
f 80 76 53
f 57 78 51
f 52 83 58
f 79 83 52
f 82 78 57
f 59 80 53
f 54 85 60
f 81 85 54
f 84 80 59
f 62 82 57
f 58 87 63
f 83 87 58
f 86 82 62
f 64 84 59
f 60 89 65
f 85 89 60
f 65 89 64
f 88 84 64
f 64 89 88
f 67 86 62
f 68 91 67
f 90 86 67
f 67 91 90
f 87 64 63
f 64 92 69
f 88 64 87
f 88 92 64
f 69 92 68
f 68 92 91
f 93 71 70
f 72 93 70
f 71 96 73
f 94 71 93
f 94 96 71
f 95 93 72
f 97 75 74
f 76 97 74
f 75 100 77
f 98 75 97
f 98 100 75
f 99 97 76
f 78 95 72
f 73 102 79
f 96 102 73
f 101 95 78
f 80 99 76
f 77 104 81
f 100 104 77
f 103 99 80
f 82 101 78
f 79 106 83
f 102 106 79
f 105 101 82
f 84 103 80
f 81 108 85
f 104 108 81
f 107 103 84
f 86 105 82
f 83 110 87
f 106 110 83
f 109 105 86
f 88 107 84
f 85 112 89
f 108 112 85
f 89 112 88
f 111 107 88
f 88 112 111
f 90 109 86
f 91 114 90
f 113 109 90
f 90 114 113
f 110 88 87
f 88 115 92
f 111 88 110
f 111 115 88
f 92 115 91
f 91 115 114
f 116 94 93
f 95 116 93
f 94 119 96
f 117 94 116
f 117 119 94
f 118 116 95
f 120 98 97
f 99 120 97
f 98 123 100
f 121 98 120
f 121 123 98
f 122 120 99
f 101 118 95
f 96 125 102
f 119 125 96
f 124 118 101
f 103 122 99
f 100 127 104
f 123 127 100
f 126 122 103
f 105 124 101
f 102 129 106
f 125 129 102
f 128 124 105
f 107 126 103
f 104 131 108
f 127 131 104
f 130 126 107
f 109 128 105
f 106 133 110
f 129 133 106
f 132 128 109
f 111 130 107
f 108 135 112
f 131 135 108
f 112 135 111
f 134 130 111
f 111 135 134
f 113 132 109
f 114 137 113
f 136 132 113
f 113 137 136
f 133 111 110
f 111 138 115
f 134 111 133
f 134 138 111
f 115 138 114
f 114 138 137
f 139 117 116
f 118 139 116
f 117 142 119
f 140 117 139
f 140 142 117
f 141 139 118
f 143 121 120
f 122 143 120
f 121 146 123
f 144 121 143
f 144 146 121
f 145 143 122
f 124 141 118
f 119 148 125
f 142 148 119
f 147 141 124
f 126 145 122
f 123 150 127
f 146 150 123
f 149 145 126
f 128 147 124
f 125 152 129
f 148 152 125
f 151 147 128
f 130 149 126
f 127 154 131
f 150 154 127
f 153 149 130
f 132 151 128
f 129 156 133
f 152 156 129
f 155 151 132
f 134 153 130
f 131 158 135
f 154 158 131
f 135 158 134
f 157 153 134
f 134 158 157
f 136 155 132
f 137 160 136
f 159 155 136
f 136 160 159
f 156 134 133
f 134 161 138
f 157 134 156
f 157 161 134
f 138 161 137
f 137 161 160
f 162 140 139
f 141 162 139
f 140 165 142
f 163 140 162
f 163 165 140
f 164 162 141
f 166 144 143
f 145 166 143
f 144 169 146
f 167 144 166
f 167 169 144
f 168 166 145
f 147 164 141
f 142 171 148
f 165 171 142
f 170 164 147
f 149 168 145
f 146 173 150
f 169 173 146
f 172 168 149
f 151 170 147
f 148 175 152
f 171 175 148
f 174 170 151
f 153 172 149
f 150 177 154
f 173 177 150
f 176 172 153
f 155 174 151
f 152 179 156
f 175 179 152
f 178 174 155
f 157 176 153
f 154 181 158
f 177 181 154
f 158 181 157
f 180 176 157
f 157 181 180
f 159 178 155
f 160 183 159
f 182 178 159
f 159 183 182
f 179 157 156
f 157 184 161
f 180 157 179
f 180 184 157
f 161 184 160
f 160 184 183
f 185 163 162
f 164 185 162
f 163 188 165
f 186 163 185
f 186 188 163
f 187 185 164
f 189 167 166
f 168 189 166
f 167 192 169
f 190 167 189
f 190 192 167
f 191 189 168
f 170 187 164
f 165 194 171
f 188 194 165
f 193 187 170
f 172 191 168
f 169 196 173
f 192 196 169
f 195 191 172
f 174 193 170
f 171 198 175
f 194 198 171
f 197 193 174
f 176 195 172
f 173 200 177
f 196 200 173
f 199 195 176
f 178 197 174
f 175 202 179
f 198 202 175
f 201 197 178
f 180 199 176
f 177 204 181
f 200 204 177
f 181 204 180
f 203 199 180
f 180 204 203
f 182 201 178
f 183 206 182
f 205 201 182
f 182 206 205
f 202 180 179
f 180 207 184
f 203 180 202
f 203 207 180
f 184 207 183
f 183 207 206
f 208 186 185
f 187 208 185
f 186 211 188
f 209 186 208
f 209 211 186
f 210 208 187
f 212 190 189
f 191 212 189
f 190 215 192
f 213 190 212
f 213 215 190
f 214 212 191
f 193 210 187
f 188 217 194
f 211 217 188
f 216 210 193
f 195 214 191
f 192 219 196
f 215 219 192
f 218 214 195
f 197 216 193
f 194 221 198
f 217 221 194
f 220 216 197
f 199 218 195
f 196 223 200
f 219 223 196
f 222 218 199
f 201 220 197
f 198 225 202
f 221 225 198
f 224 220 201
f 203 222 199
f 200 227 204
f 223 227 200
f 204 227 203
f 226 222 203
f 203 227 226
f 205 224 201
f 206 229 205
f 228 224 205
f 205 229 228
f 225 203 202
f 203 230 207
f 226 203 225
f 226 230 203
f 207 230 206
f 206 230 229
f 231 209 208
f 210 231 208
f 209 234 211
f 232 209 231
f 232 234 209
f 233 231 210
f 235 213 212
f 214 235 212
f 213 238 215
f 236 213 235
f 236 238 213
f 237 235 214
f 216 233 210
f 211 240 217
f 234 240 211
f 239 233 216
f 218 237 214
f 215 242 219
f 238 242 215
f 241 237 218
f 220 239 216
f 217 244 221
f 240 244 217
f 243 239 220
f 222 241 218
f 219 246 223
f 242 246 219
f 245 241 222
f 224 243 220
f 221 248 225
f 244 248 221
f 247 243 224
f 226 245 222
f 223 250 227
f 246 250 223
f 227 250 226
f 249 245 226
f 226 250 249
f 228 247 224
f 229 252 228
f 251 247 228
f 228 252 251
f 248 226 225
f 226 253 230
f 249 226 248
f 249 253 226
f 230 253 229
f 229 253 252
f 254 232 231
f 233 254 231
f 232 257 234
f 255 232 254
f 255 257 232
f 256 254 233
f 258 236 235
f 237 258 235
f 236 261 238
f 259 236 258
f 259 261 236
f 260 258 237
f 239 256 233
f 234 263 240
f 257 263 234
f 262 256 239
f 241 260 237
f 238 265 242
f 261 265 238
f 264 260 241
f 243 262 239
f 240 267 244
f 263 267 240
f 266 262 243
f 245 264 241
f 242 269 246
f 265 269 242
f 268 264 245
f 247 266 243
f 244 271 248
f 267 271 244
f 270 266 247
f 249 268 245
f 246 273 250
f 269 273 246
f 250 273 249
f 272 268 249
f 249 273 272
f 251 270 247
f 252 275 251
f 274 270 251
f 251 275 274
f 271 249 248
f 249 276 253
f 272 249 271
f 272 276 249
f 253 276 252
f 252 276 275
f 277 255 254
f 256 277 254
f 255 280 257
f 278 255 277
f 278 280 255
f 279 277 256
f 281 259 258
f 260 281 258
f 259 284 261
f 282 259 281
f 282 284 259
f 283 281 260
f 262 279 256
f 257 286 263
f 280 286 257
f 285 279 262
f 264 283 260
f 261 288 265
f 284 288 261
f 287 283 264
f 266 285 262
f 263 290 267
f 286 290 263
f 289 285 266
f 268 287 264
f 265 292 269
f 288 292 265
f 291 287 268
f 270 289 266
f 267 294 271
f 290 294 267
f 293 289 270
f 272 291 268
f 269 296 273
f 292 296 269
f 273 296 272
f 295 291 272
f 272 296 295
f 274 293 270
f 275 298 274
f 297 293 274
f 274 298 297
f 294 272 271
f 272 299 276
f 295 272 294
f 295 299 272
f 276 299 275
f 275 299 298
f 300 278 277
f 279 300 277
f 278 303 280
f 301 278 300
f 301 303 278
f 302 300 279
f 304 282 281
f 283 304 281
f 282 307 284
f 305 282 304
f 305 307 282
f 306 304 283
f 285 302 279
f 280 309 286
f 303 309 280
f 308 302 285
f 287 306 283
f 284 311 288
f 307 311 284
f 310 306 287
f 289 308 285
f 286 313 290
f 309 313 286
f 312 308 289
f 291 310 287
f 288 315 292
f 311 315 288
f 314 310 291
f 293 312 289
f 290 317 294
f 313 317 290
f 316 312 293
f 295 314 291
f 292 319 296
f 315 319 292
f 296 319 295
f 318 314 295
f 295 319 318
f 297 316 293
f 298 321 297
f 320 316 297
f 297 321 320
f 317 295 294
f 295 322 299
f 318 295 317
f 318 322 295
f 299 322 298
f 298 322 321
f 323 301 300
f 302 323 300
f 301 326 303
f 324 301 323
f 324 326 301
f 325 323 302
f 327 305 304
f 306 327 304
f 305 330 307
f 328 305 327
f 328 330 305
f 329 327 306
f 308 325 302
f 303 332 309
f 326 332 303
f 331 325 308
f 310 329 306
f 307 334 311
f 330 334 307
f 333 329 310
f 312 331 308
f 309 336 313
f 332 336 309
f 335 331 312
f 314 333 310
f 311 338 315
f 334 338 311
f 337 333 314
f 316 335 312
f 313 340 317
f 336 340 313
f 339 335 316
f 318 337 314
f 315 342 319
f 338 342 315
f 319 342 318
f 341 337 318
f 318 342 341
f 320 339 316
f 321 344 320
f 343 339 320
f 320 344 343
f 340 318 317
f 318 345 322
f 341 318 340
f 341 345 318
f 322 345 321
f 321 345 344
f 346 324 323
f 325 346 323
f 324 349 326
f 347 324 346
f 347 349 324
f 348 346 325
f 350 328 327
f 329 350 327
f 328 353 330
f 351 328 350
f 351 353 328
f 352 350 329
f 331 348 325
f 326 355 332
f 349 355 326
f 354 348 331
f 333 352 329
f 330 357 334
f 353 357 330
f 356 352 333
f 335 354 331
f 332 359 336
f 355 359 332
f 358 354 335
f 337 356 333
f 334 361 338
f 357 361 334
f 360 356 337
f 339 358 335
f 336 363 340
f 359 363 336
f 362 358 339
f 341 360 337
f 338 365 342
f 361 365 338
f 342 365 341
f 364 360 341
f 341 365 364
f 343 362 339
f 344 367 343
f 366 362 343
f 343 367 366
f 363 341 340
f 341 368 345
f 364 341 363
f 364 368 341
f 345 368 344
f 344 368 367
f 369 347 346
f 348 369 346
f 347 372 349
f 370 347 369
f 370 372 347
f 371 369 348
f 373 351 350
f 352 373 350
f 351 376 353
f 374 351 373
f 374 376 351
f 375 373 352
f 354 371 348
f 349 378 355
f 372 378 349
f 377 371 354
f 356 375 352
f 353 380 357
f 376 380 353
f 379 375 356
f 358 377 354
f 355 382 359
f 378 382 355
f 381 377 358
f 360 379 356
f 357 384 361
f 380 384 357
f 383 379 360
f 362 381 358
f 359 386 363
f 382 386 359
f 385 381 362
f 364 383 360
f 361 388 365
f 384 388 361
f 365 388 364
f 387 383 364
f 364 388 387
f 366 385 362
f 367 390 366
f 389 385 366
f 366 390 389
f 386 364 363
f 364 391 368
f 387 364 386
f 387 391 364
f 368 391 367
f 367 391 390
f 392 370 369
f 371 392 369
f 370 395 372
f 393 370 392
f 393 395 370
f 394 392 371
f 396 374 373
f 375 396 373
f 374 399 376
f 397 374 396
f 397 399 374
f 398 396 375
f 377 394 371
f 372 401 378
f 395 401 372
f 400 394 377
f 379 398 375
f 376 403 380
f 399 403 376
f 402 398 379
f 381 400 377
f 378 405 382
f 401 405 378
f 404 400 381
f 383 402 379
f 380 407 384
f 403 407 380
f 406 402 383
f 385 404 381
f 382 409 386
f 405 409 382
f 408 404 385
f 387 406 383
f 384 411 388
f 407 411 384
f 388 411 387
f 410 406 387
f 387 411 410
f 389 408 385
f 390 413 389
f 412 408 389
f 389 413 412
f 409 387 386
f 387 414 391
f 410 387 409
f 410 414 387
f 391 414 390
f 390 414 413
f 415 393 392
f 394 415 392
f 393 418 395
f 416 393 415
f 416 418 393
f 417 415 394
f 419 397 396
f 398 419 396
f 397 422 399
f 420 397 419
f 420 422 397
f 421 419 398
f 400 417 394
f 395 424 401
f 418 424 395
f 423 417 400
f 402 421 398
f 399 426 403
f 422 426 399
f 425 421 402
f 404 423 400
f 401 428 405
f 424 428 401
f 427 423 404
f 406 425 402
f 403 430 407
f 426 430 403
f 429 425 406
f 408 427 404
f 405 432 409
f 428 432 405
f 431 427 408
f 410 429 406
f 407 434 411
f 430 434 407
f 411 434 410
f 433 429 410
f 410 434 433
f 412 431 408
f 413 436 412
f 435 431 412
f 412 436 435
f 432 410 409
f 410 437 414
f 433 410 432
f 433 437 410
f 414 437 413
f 413 437 436
f 438 416 415
f 417 438 415
f 416 441 418
f 439 416 438
f 439 441 416
f 440 438 417
f 442 420 419
f 421 442 419
f 420 445 422
f 443 420 442
f 443 445 420
f 444 442 421
f 423 440 417
f 418 447 424
f 441 447 418
f 446 440 423
f 425 444 421
f 422 449 426
f 445 449 422
f 448 444 425
f 427 446 423
f 424 451 428
f 447 451 424
f 450 446 427
f 429 448 425
f 426 453 430
f 449 453 426
f 452 448 429
f 431 450 427
f 428 455 432
f 451 455 428
f 454 450 431
f 433 452 429
f 430 457 434
f 453 457 430
f 434 457 433
f 456 452 433
f 433 457 456
f 435 454 431
f 436 459 435
f 458 454 435
f 435 459 458
f 455 433 432
f 433 460 437
f 456 433 455
f 456 460 433
f 437 460 436
f 436 460 459
f 461 439 438
f 440 461 438
f 439 464 441
f 462 439 461
f 462 464 439
f 463 461 440
f 465 443 442
f 444 465 442
f 443 468 445
f 466 443 465
f 466 468 443
f 467 465 444
f 446 463 440
f 441 470 447
f 464 470 441
f 469 463 446
f 448 467 444
f 445 472 449
f 468 472 445
f 471 467 448
f 450 469 446
f 447 474 451
f 470 474 447
f 473 469 450
f 452 471 448
f 449 476 453
f 472 476 449
f 475 471 452
f 454 473 450
f 451 478 455
f 474 478 451
f 477 473 454
f 456 475 452
f 453 480 457
f 476 480 453
f 457 480 456
f 479 475 456
f 456 480 479
f 458 477 454
f 459 482 458
f 481 477 458
f 458 482 481
f 478 456 455
f 456 483 460
f 479 456 478
f 479 483 456
f 460 483 459
f 459 483 482
f 484 462 461
f 463 484 461
f 462 487 464
f 485 462 484
f 485 487 462
f 486 484 463
f 488 466 465
f 467 488 465
f 466 491 468
f 489 466 488
f 489 491 466
f 490 488 467
f 469 486 463
f 464 493 470
f 487 493 464
f 492 486 469
f 471 490 467
f 468 495 472
f 491 495 468
f 494 490 471
f 473 492 469
f 470 497 474
f 493 497 470
f 496 492 473
f 475 494 471
f 472 499 476
f 495 499 472
f 498 494 475
f 477 496 473
f 474 501 478
f 497 501 474
f 500 496 477
f 479 498 475
f 476 503 480
f 499 503 476
f 480 503 479
f 502 498 479
f 479 503 502
f 481 500 477
f 482 505 481
f 504 500 481
f 481 505 504
f 501 479 478
f 479 506 483
f 502 479 501
f 502 506 479
f 483 506 482
f 482 506 505
f 507 485 484
f 486 507 484
f 485 510 487
f 508 485 507
f 508 510 485
f 509 507 486
f 511 489 488
f 490 511 488
f 489 514 491
f 512 489 511
f 512 514 489
f 513 511 490
f 492 509 486
f 487 516 493
f 510 516 487
f 515 509 492
f 494 513 490
f 491 518 495
f 514 518 491
f 517 513 494
f 496 515 492
f 493 520 497
f 516 520 493
f 519 515 496
f 498 517 494
f 495 522 499
f 518 522 495
f 521 517 498
f 500 519 496
f 497 524 501
f 520 524 497
f 523 519 500
f 502 521 498
f 499 526 503
f 522 526 499
f 503 526 502
f 525 521 502
f 502 526 525
f 504 523 500
f 505 528 504
f 527 523 504
f 504 528 527
f 524 502 501
f 502 529 506
f 525 502 524
f 525 529 502
f 506 529 505
f 505 529 528
f 530 508 507
f 509 530 507
f 508 533 510
f 531 508 530
f 531 533 508
f 532 530 509
f 534 512 511
f 513 534 511
f 512 537 514
f 535 512 534
f 535 537 512
f 536 534 513
f 515 532 509
f 510 539 516
f 533 539 510
f 538 532 515
f 517 536 513
f 514 541 518
f 537 541 514
f 540 536 517
f 519 538 515
f 516 543 520
f 539 543 516
f 542 538 519
f 521 540 517
f 518 545 522
f 541 545 518
f 544 540 521
f 523 542 519
f 520 547 524
f 543 547 520
f 546 542 523
f 525 544 521
f 522 549 526
f 545 549 522
f 526 549 525
f 548 544 525
f 525 549 548
f 527 546 523
f 528 551 527
f 550 546 527
f 527 551 550
f 547 525 524
f 525 552 529
f 548 525 547
f 548 552 525
f 529 552 528
f 528 552 551
f 553 531 530
f 532 553 530
f 531 556 533
f 554 531 553
f 554 556 531
f 555 553 532
f 557 535 534
f 536 557 534
f 535 560 537
f 558 535 557
f 558 560 535
f 559 557 536
f 538 555 532
f 533 562 539
f 556 562 533
f 561 555 538
f 540 559 536
f 537 564 541
f 560 564 537
f 563 559 540
f 542 561 538
f 539 566 543
f 562 566 539
f 565 561 542
f 544 563 540
f 541 568 545
f 564 568 541
f 567 563 544
f 546 565 542
f 543 570 547
f 566 570 543
f 569 565 546
f 548 567 544
f 545 572 549
f 568 572 545
f 549 572 548
f 571 567 548
f 548 572 571
f 550 569 546
f 551 574 550
f 573 569 550
f 550 574 573
f 570 548 547
f 548 575 552
f 571 548 570
f 571 575 548
f 552 575 551
f 551 575 574
f 576 554 553
f 555 576 553
f 554 579 556
f 577 554 576
f 577 579 554
f 578 576 555
f 580 558 557
f 559 580 557
f 558 583 560
f 581 558 580
f 581 583 558
f 582 580 559
f 561 578 555
f 556 585 562
f 579 585 556
f 584 578 561
f 563 582 559
f 560 587 564
f 583 587 560
f 586 582 563
f 565 584 561
f 562 589 566
f 585 589 562
f 588 584 565
f 567 586 563
f 564 591 568
f 587 591 564
f 590 586 567
f 569 588 565
f 566 593 570
f 589 593 566
f 592 588 569
f 571 590 567
f 568 595 572
f 591 595 568
f 572 595 571
f 594 590 571
f 571 595 594
f 573 592 569
f 574 597 573
f 596 592 573
f 573 597 596
f 593 571 570
f 571 598 575
f 594 571 593
f 594 598 571
f 575 598 574
f 574 598 597
f 599 577 576
f 578 599 576
f 577 602 579
f 600 577 599
f 600 602 577
f 601 599 578
f 603 581 580
f 582 603 580
f 581 606 583
f 604 581 603
f 604 606 581
f 605 603 582
f 584 601 578
f 579 608 585
f 602 608 579
f 607 601 584
f 586 605 582
f 583 610 587
f 606 610 583
f 609 605 586
f 588 607 584
f 585 612 589
f 608 612 585
f 611 607 588
f 590 609 586
f 587 614 591
f 610 614 587
f 613 609 590
f 592 611 588
f 589 616 593
f 612 616 589
f 615 611 592
f 594 613 590
f 591 618 595
f 614 618 591
f 595 618 594
f 617 613 594
f 594 618 617
f 596 615 592
f 597 620 596
f 619 615 596
f 596 620 619
f 616 594 593
f 594 621 598
f 617 594 616
f 617 621 594
f 598 621 597
f 597 621 620
f 622 600 599
f 601 622 599
f 600 625 602
f 623 600 622
f 623 625 600
f 624 622 601
f 626 604 603
f 605 626 603
f 604 629 606
f 627 604 626
f 627 629 604
f 628 626 605
f 607 624 601
f 602 631 608
f 625 631 602
f 630 624 607
f 609 628 605
f 606 633 610
f 629 633 606
f 632 628 609
f 611 630 607
f 608 635 612
f 631 635 608
f 634 630 611
f 613 632 609
f 610 637 614
f 633 637 610
f 636 632 613
f 615 634 611
f 612 639 616
f 635 639 612
f 638 634 615
f 617 636 613
f 614 641 618
f 637 641 614
f 618 641 617
f 640 636 617
f 617 641 640
f 619 638 615
f 620 643 619
f 642 638 619
f 619 643 642
f 639 617 616
f 617 644 621
f 640 617 639
f 640 644 617
f 621 644 620
f 620 644 643
f 645 623 622
f 624 645 622
f 623 648 625
f 646 623 645
f 646 648 623
f 647 645 624
f 649 627 626
f 628 649 626
f 627 652 629
f 650 627 649
f 650 652 627
f 651 649 628
f 630 647 624
f 625 654 631
f 648 654 625
f 653 647 630
f 632 651 628
f 629 656 633
f 652 656 629
f 655 651 632
f 634 653 630
f 631 658 635
f 654 658 631
f 657 653 634
f 636 655 632
f 633 660 637
f 656 660 633
f 659 655 636
f 638 657 634
f 635 662 639
f 658 662 635
f 661 657 638
f 640 659 636
f 637 664 641
f 660 664 637
f 641 664 640
f 663 659 640
f 640 664 663
f 642 661 638
f 643 666 642
f 665 661 642
f 642 666 665
f 662 640 639
f 640 667 644
f 663 640 662
f 663 667 640
f 644 667 643
f 643 667 666
f 668 646 645
f 647 668 645
f 646 671 648
f 669 646 668
f 669 671 646
f 670 668 647
f 672 650 649
f 651 672 649
f 650 675 652
f 673 650 672
f 673 675 650
f 674 672 651
f 653 670 647
f 648 677 654
f 671 677 648
f 676 670 653
f 655 674 651
f 652 679 656
f 675 679 652
f 678 674 655
f 657 676 653
f 654 681 658
f 677 681 654
f 680 676 657
f 659 678 655
f 656 683 660
f 679 683 656
f 682 678 659
f 661 680 657
f 658 685 662
f 681 685 658
f 684 680 661
f 663 682 659
f 660 687 664
f 683 687 660
f 664 687 663
f 686 682 663
f 663 687 686
f 665 684 661
f 666 689 665
f 688 684 665
f 665 689 688
f 685 663 662
f 663 690 667
f 686 663 685
f 686 690 663
f 667 690 666
f 666 690 689
f 691 669 668
f 670 691 668
f 669 694 671
f 692 669 691
f 692 694 669
f 693 691 670
f 695 673 672
f 674 695 672
f 673 698 675
f 696 673 695
f 696 698 673
f 697 695 674
f 676 693 670
f 671 700 677
f 694 700 671
f 699 693 676
f 678 697 674
f 675 702 679
f 698 702 675
f 701 697 678
f 680 699 676
f 677 704 681
f 700 704 677
f 703 699 680
f 682 701 678
f 679 706 683
f 702 706 679
f 705 701 682
f 684 703 680
f 681 708 685
f 704 708 681
f 707 703 684
f 686 705 682
f 683 710 687
f 706 710 683
f 687 710 686
f 709 705 686
f 686 710 709
f 688 707 684
f 689 712 688
f 711 707 688
f 688 712 711
f 708 686 685
f 686 713 690
f 709 686 708
f 709 713 686
f 690 713 689
f 689 713 712
f 714 692 691
f 693 714 691
f 692 717 694
f 715 692 714
f 715 717 692
f 716 714 693
f 718 696 695
f 697 718 695
f 696 721 698
f 719 696 718
f 719 721 696
f 720 718 697
f 699 716 693
f 694 723 700
f 717 723 694
f 722 716 699
f 701 720 697
f 698 725 702
f 721 725 698
f 724 720 701
f 703 722 699
f 700 727 704
f 723 727 700
f 726 722 703
f 705 724 701
f 702 729 706
f 725 729 702
f 728 724 705
f 707 726 703
f 704 731 708
f 727 731 704
f 730 726 707
f 709 728 705
f 706 733 710
f 729 733 706
f 710 733 709
f 732 728 709
f 709 733 732
f 711 730 707
f 712 735 711
f 734 730 711
f 711 735 734
f 731 709 708
f 709 736 713
f 732 709 731
f 732 736 709
f 713 736 712
f 712 736 735
f 737 715 714
f 716 737 714
f 715 740 717
f 738 715 737
f 738 740 715
f 739 737 716
f 741 719 718
f 720 741 718
f 719 744 721
f 742 719 741
f 742 744 719
f 743 741 720
f 722 739 716
f 717 746 723
f 740 746 717
f 745 739 722
f 724 743 720
f 721 748 725
f 744 748 721
f 747 743 724
f 726 745 722
f 723 750 727
f 746 750 723
f 749 745 726
f 728 747 724
f 725 752 729
f 748 752 725
f 751 747 728
f 730 749 726
f 727 754 731
f 750 754 727
f 753 749 730
f 732 751 728
f 729 756 733
f 752 756 729
f 733 756 732
f 755 751 732
f 732 756 755
f 734 753 730
f 735 758 734
f 757 753 734
f 734 758 757
f 754 732 731
f 732 759 736
f 755 732 754
f 755 759 732
f 736 759 735
f 735 759 758
f 760 738 737
f 739 760 737
f 738 763 740
f 761 738 760
f 761 763 738
f 762 760 739
f 764 742 741
f 743 764 741
f 742 767 744
f 765 742 764
f 765 767 742
f 766 764 743
f 745 762 739
f 740 769 746
f 763 769 740
f 768 762 745
f 747 766 743
f 744 771 748
f 767 771 744
f 770 766 747
f 749 768 745
f 746 773 750
f 769 773 746
f 772 768 749
f 751 770 747
f 748 775 752
f 771 775 748
f 774 770 751
f 753 772 749
f 750 777 754
f 773 777 750
f 776 772 753
f 755 774 751
f 752 779 756
f 775 779 752
f 756 779 755
f 778 774 755
f 755 779 778
f 757 776 753
f 758 781 757
f 780 776 757
f 757 781 780
f 777 755 754
f 755 782 759
f 778 755 777
f 778 782 755
f 759 782 758
f 758 782 781
f 783 761 760
f 762 783 760
f 761 786 763
f 784 761 783
f 784 786 761
f 785 783 762
f 787 765 764
f 766 787 764
f 765 790 767
f 788 765 787
f 788 790 765
f 789 787 766
f 768 785 762
f 763 792 769
f 786 792 763
f 791 785 768
f 770 789 766
f 767 794 771
f 790 794 767
f 793 789 770
f 772 791 768
f 769 796 773
f 792 796 769
f 795 791 772
f 774 793 770
f 771 798 775
f 794 798 771
f 797 793 774
f 776 795 772
f 773 800 777
f 796 800 773
f 799 795 776
f 778 797 774
f 775 802 779
f 798 802 775
f 779 802 778
f 801 797 778
f 778 802 801
f 780 799 776
f 781 804 780
f 803 799 780
f 780 804 803
f 800 778 777
f 778 805 782
f 801 778 800
f 801 805 778
f 782 805 781
f 781 805 804
f 806 784 783
f 785 806 783
f 784 809 786
f 807 784 806
f 807 809 784
f 808 806 785
f 810 788 787
f 789 810 787
f 788 813 790
f 811 788 810
f 811 813 788
f 812 810 789
f 791 808 785
f 786 815 792
f 809 815 786
f 814 808 791
f 793 812 789
f 790 817 794
f 813 817 790
f 816 812 793
f 795 814 791
f 792 819 796
f 815 819 792
f 818 814 795
f 797 816 793
f 794 821 798
f 817 821 794
f 820 816 797
f 799 818 795
f 796 823 800
f 819 823 796
f 822 818 799
f 801 820 797
f 798 825 802
f 821 825 798
f 802 825 801
f 824 820 801
f 801 825 824
f 803 822 799
f 804 827 803
f 826 822 803
f 803 827 826
f 823 801 800
f 801 828 805
f 824 801 823
f 824 828 801
f 805 828 804
f 804 828 827
f 829 807 806
f 808 829 806
f 807 832 809
f 830 807 829
f 830 832 807
f 831 829 808
f 833 811 810
f 812 833 810
f 811 836 813
f 834 811 833
f 834 836 811
f 835 833 812
f 814 831 808
f 809 838 815
f 832 838 809
f 837 831 814
f 816 835 812
f 813 840 817
f 836 840 813
f 839 835 816
f 818 837 814
f 815 842 819
f 838 842 815
f 841 837 818
f 820 839 816
f 817 844 821
f 840 844 817
f 843 839 820
f 822 841 818
f 819 846 823
f 842 846 819
f 845 841 822
f 824 843 820
f 821 848 825
f 844 848 821
f 825 848 824
f 847 843 824
f 824 848 847
f 826 845 822
f 827 850 826
f 849 845 826
f 826 850 849
f 846 824 823
f 824 851 828
f 847 824 846
f 847 851 824
f 828 851 827
f 827 851 850
f 852 830 829
f 831 852 829
f 830 855 832
f 853 830 852
f 853 855 830
f 854 852 831
f 856 834 833
f 835 856 833
f 834 859 836
f 857 834 856
f 857 859 834
f 858 856 835
f 837 854 831
f 832 861 838
f 855 861 832
f 860 854 837
f 839 858 835
f 836 863 840
f 859 863 836
f 862 858 839
f 841 860 837
f 838 865 842
f 861 865 838
f 864 860 841
f 843 862 839
f 840 867 844
f 863 867 840
f 866 862 843
f 845 864 841
f 842 869 846
f 865 869 842
f 868 864 845
f 847 866 843
f 844 871 848
f 867 871 844
f 848 871 847
f 870 866 847
f 847 871 870
f 849 868 845
f 850 873 849
f 872 868 849
f 849 873 872
f 869 847 846
f 847 874 851
f 870 847 869
f 870 874 847
f 851 874 850
f 850 874 873
f 875 853 852
f 854 875 852
f 853 878 855
f 876 853 875
f 876 878 853
f 877 875 854
f 879 857 856
f 858 879 856
f 857 882 859
f 880 857 879
f 880 882 857
f 881 879 858
f 860 877 854
f 855 884 861
f 878 884 855
f 883 877 860
f 862 881 858
f 859 886 863
f 882 886 859
f 885 881 862
f 864 883 860
f 861 888 865
f 884 888 861
f 887 883 864
f 866 885 862
f 863 890 867
f 886 890 863
f 889 885 866
f 868 887 864
f 865 892 869
f 888 892 865
f 891 887 868
f 870 889 866
f 867 894 871
f 890 894 867
f 871 894 870
f 893 889 870
f 870 894 893
f 872 891 868
f 873 896 872
f 895 891 872
f 872 896 895
f 892 870 869
f 870 897 874
f 893 870 892
f 893 897 870
f 874 897 873
f 873 897 896
f 898 876 875
f 877 898 875
f 876 901 878
f 899 876 898
f 899 901 876
f 900 898 877
f 902 880 879
f 881 902 879
f 880 905 882
f 903 880 902
f 903 905 880
f 904 902 881
f 883 900 877
f 878 907 884
f 901 907 878
f 906 900 883
f 885 904 881
f 882 909 886
f 905 909 882
f 908 904 885
f 887 906 883
f 884 911 888
f 907 911 884
f 910 906 887
f 889 908 885
f 886 913 890
f 909 913 886
f 912 908 889
f 891 910 887
f 888 915 892
f 911 915 888
f 914 910 891
f 893 912 889
f 890 917 894
f 913 917 890
f 894 917 893
f 916 912 893
f 893 917 916
f 895 914 891
f 896 919 895
f 918 914 895
f 895 919 918
f 915 893 892
f 893 920 897
f 916 893 915
f 916 920 893
f 897 920 896
f 896 920 919
f 921 899 898
f 900 921 898
f 899 924 901
f 922 899 921
f 922 924 899
f 923 921 900
f 925 903 902
f 904 925 902
f 903 928 905
f 926 903 925
f 926 928 903
f 927 925 904
f 906 923 900
f 901 930 907
f 924 930 901
f 929 923 906
f 908 927 904
f 905 932 909
f 928 932 905
f 931 927 908
f 910 929 906
f 907 934 911
f 930 934 907
f 933 929 910
f 912 931 908
f 909 936 913
f 932 936 909
f 935 931 912
f 914 933 910
f 911 938 915
f 934 938 911
f 937 933 914
f 916 935 912
f 913 940 917
f 936 940 913
f 917 940 916
f 939 935 916
f 916 940 939
f 918 937 914
f 919 942 918
f 941 937 918
f 918 942 941
f 938 916 915
f 916 943 920
f 939 916 938
f 939 943 916
f 920 943 919
f 919 943 942
f 944 922 921
f 923 944 921
f 922 947 924
f 945 922 944
f 945 947 922
f 946 944 923
f 948 926 925
f 927 948 925
f 926 951 928
f 949 926 948
f 949 951 926
f 950 948 927
f 929 946 923
f 924 953 930
f 947 953 924
f 952 946 929
f 931 950 927
f 928 955 932
f 951 955 928
f 954 950 931
f 933 952 929
f 930 957 934
f 953 957 930
f 956 952 933
f 935 954 931
f 932 959 936
f 955 959 932
f 958 954 935
f 937 956 933
f 934 961 938
f 957 961 934
f 960 956 937
f 939 958 935
f 936 963 940
f 959 963 936
f 940 963 939
f 962 958 939
f 939 963 962
f 941 960 937
f 942 965 941
f 964 960 941
f 941 965 964
f 961 939 938
f 939 966 943
f 962 939 961
f 962 966 939
f 943 966 942
f 942 966 965
f 967 945 944
f 946 967 944
f 945 970 947
f 968 945 967
f 968 970 945
f 969 967 946
f 971 949 948
f 950 971 948
f 949 974 951
f 972 949 971
f 972 974 949
f 973 971 950
f 952 969 946
f 947 976 953
f 970 976 947
f 975 969 952
f 954 973 950
f 951 978 955
f 974 978 951
f 977 973 954
f 956 975 952
f 953 980 957
f 976 980 953
f 979 975 956
f 958 977 954
f 955 982 959
f 978 982 955
f 981 977 958
f 960 979 956
f 957 984 961
f 980 984 957
f 983 979 960
f 962 981 958
f 959 986 963
f 982 986 959
f 963 986 962
f 985 981 962
f 962 986 985
f 964 983 960
f 965 988 964
f 987 983 964
f 964 988 987
f 984 962 961
f 962 989 966
f 985 962 984
f 985 989 962
f 966 989 965
f 965 989 988
f 990 968 967
f 969 990 967
f 968 993 970
f 991 968 990
f 991 993 968
f 992 990 969
f 994 972 971
f 973 994 971
f 972 997 974
f 995 972 994
f 995 997 972
f 996 994 973
f 975 992 969
f 970 999 976
f 993 999 970
f 998 992 975
f 977 996 973
f 974 1001 978
f 997 1001 974
f 1000 996 977
f 979 998 975
f 976 1003 980
f 999 1003 976
f 1002 998 979
f 981 1000 977
f 978 1005 982
f 1001 1005 978
f 1004 1000 981
f 983 1002 979
f 980 1007 984
f 1003 1007 980
f 1006 1002 983
f 985 1004 981
f 982 1009 986
f 1005 1009 982
f 986 1009 985
f 1008 1004 985
f 985 1009 1008
f 987 1006 983
f 988 1011 987
f 1010 1006 987
f 987 1011 1010
f 1007 985 984
f 985 1012 989
f 1008 985 1007
f 1008 1012 985
f 989 1012 988
f 988 1012 1011
f 1013 991 990
f 992 1013 990
f 991 1016 993
f 1014 991 1013
f 1014 1016 991
f 1015 1013 992
f 1017 995 994
f 996 1017 994
f 995 1020 997
f 1018 995 1017
f 1018 1020 995
f 1019 1017 996
f 998 1015 992
f 993 1022 999
f 1016 1022 993
f 1021 1015 998
f 1000 1019 996
f 997 1024 1001
f 1020 1024 997
f 1023 1019 1000
f 1002 1021 998
f 999 1026 1003
f 1022 1026 999
f 1025 1021 1002
f 1004 1023 1000
f 1001 1028 1005
f 1024 1028 1001
f 1027 1023 1004
f 1006 1025 1002
f 1003 1030 1007
f 1026 1030 1003
f 1029 1025 1006
f 1008 1027 1004
f 1005 1032 1009
f 1028 1032 1005
f 1009 1032 1008
f 1031 1027 1008
f 1008 1032 1031
f 1010 1029 1006
f 1011 1034 1010
f 1033 1029 1010
f 1010 1034 1033
f 1030 1008 1007
f 1008 1035 1012
f 1031 1008 1030
f 1031 1035 1008
f 1012 1035 1011
f 1011 1035 1034
f 1036 1014 1013
f 1015 1036 1013
f 1014 1039 1016
f 1037 1014 1036
f 1037 1039 1014
f 1038 1036 1015
f 1040 1018 1017
f 1019 1040 1017
f 1018 1043 1020
f 1041 1018 1040
f 1041 1043 1018
f 1042 1040 1019
f 1021 1038 1015
f 1016 1045 1022
f 1039 1045 1016
f 1044 1038 1021
f 1023 1042 1019
f 1020 1047 1024
f 1043 1047 1020
f 1046 1042 1023
f 1025 1044 1021
f 1022 1049 1026
f 1045 1049 1022
f 1048 1044 1025
f 1027 1046 1023
f 1024 1051 1028
f 1047 1051 1024
f 1050 1046 1027
f 1029 1048 1025
f 1026 1053 1030
f 1049 1053 1026
f 1052 1048 1029
f 1031 1050 1027
f 1028 1055 1032
f 1051 1055 1028
f 1032 1055 1031
f 1054 1050 1031
f 1031 1055 1054
f 1033 1052 1029
f 1034 1057 1033
f 1056 1052 1033
f 1033 1057 1056
f 1053 1031 1030
f 1031 1058 1035
f 1054 1031 1053
f 1054 1058 1031
f 1035 1058 1034
f 1034 1058 1057
f 1059 1037 1036
f 1038 1059 1036
f 1037 1062 1039
f 1060 1037 1059
f 1060 1062 1037
f 1061 1059 1038
f 1063 1041 1040
f 1042 1063 1040
f 1041 1066 1043
f 1064 1041 1063
f 1064 1066 1041
f 1065 1063 1042
f 1044 1061 1038
f 1039 1068 1045
f 1062 1068 1039
f 1067 1061 1044
f 1046 1065 1042
f 1043 1070 1047
f 1066 1070 1043
f 1069 1065 1046
f 1048 1067 1044
f 1045 1072 1049
f 1068 1072 1045
f 1071 1067 1048
f 1050 1069 1046
f 1047 1074 1051
f 1070 1074 1047
f 1073 1069 1050
f 1052 1071 1048
f 1049 1076 1053
f 1072 1076 1049
f 1075 1071 1052
f 1054 1073 1050
f 1051 1078 1055
f 1074 1078 1051
f 1055 1078 1054
f 1077 1073 1054
f 1054 1078 1077
f 1056 1075 1052
f 1057 1080 1056
f 1079 1075 1056
f 1056 1080 1079
f 1076 1054 1053
f 1054 1081 1058
f 1077 1054 1076
f 1077 1081 1054
f 1058 1081 1057
f 1057 1081 1080
f 1082 1060 1059
f 1061 1082 1059
f 1060 1085 1062
f 1083 1060 1082
f 1083 1085 1060
f 1084 1082 1061
f 1086 1064 1063
f 1065 1086 1063
f 1064 1089 1066
f 1087 1064 1086
f 1087 1089 1064
f 1088 1086 1065
f 1067 1084 1061
f 1062 1091 1068
f 1085 1091 1062
f 1090 1084 1067
f 1069 1088 1065
f 1066 1093 1070
f 1089 1093 1066
f 1092 1088 1069
f 1071 1090 1067
f 1068 1095 1072
f 1091 1095 1068
f 1094 1090 1071
f 1073 1092 1069
f 1070 1097 1074
f 1093 1097 1070
f 1096 1092 1073
f 1075 1094 1071
f 1072 1099 1076
f 1095 1099 1072
f 1098 1094 1075
f 1077 1096 1073
f 1074 1101 1078
f 1097 1101 1074
f 1078 1101 1077
f 1100 1096 1077
f 1077 1101 1100
f 1079 1098 1075
f 1080 1103 1079
f 1102 1098 1079
f 1079 1103 1102
f 1099 1077 1076
f 1077 1104 1081
f 1100 1077 1099
f 1100 1104 1077
f 1081 1104 1080
f 1080 1104 1103
f 1105 1083 1082
f 1084 1105 1082
f 1083 1108 1085
f 1106 1083 1105
f 1106 1108 1083
f 1107 1105 1084
f 1109 1087 1086
f 1088 1109 1086
f 1087 1112 1089
f 1110 1087 1109
f 1110 1112 1087
f 1111 1109 1088
f 1090 1107 1084
f 1085 1114 1091
f 1108 1114 1085
f 1113 1107 1090
f 1092 1111 1088
f 1089 1116 1093
f 1112 1116 1089
f 1115 1111 1092
f 1094 1113 1090
f 1091 1118 1095
f 1114 1118 1091
f 1117 1113 1094
f 1096 1115 1092
f 1093 1120 1097
f 1116 1120 1093
f 1119 1115 1096
f 1098 1117 1094
f 1095 1122 1099
f 1118 1122 1095
f 1121 1117 1098
f 1100 1119 1096
f 1097 1124 1101
f 1120 1124 1097
f 1101 1124 1100
f 1123 1119 1100
f 1100 1124 1123
f 1102 1121 1098
f 1103 1126 1102
f 1125 1121 1102
f 1102 1126 1125
f 1122 1100 1099
f 1100 1127 1104
f 1123 1100 1122
f 1123 1127 1100
f 1104 1127 1103
f 1103 1127 1126
f 1128 1106 1105
f 1107 1128 1105
f 1106 1131 1108
f 1129 1106 1128
f 1129 1131 1106
f 1130 1128 1107
f 1132 1110 1109
f 1111 1132 1109
f 1110 1135 1112
f 1133 1110 1132
f 1133 1135 1110
f 1134 1132 1111
f 1113 1130 1107
f 1108 1137 1114
f 1131 1137 1108
f 1136 1130 1113
f 1115 1134 1111
f 1112 1139 1116
f 1135 1139 1112
f 1138 1134 1115
f 1117 1136 1113
f 1114 1141 1118
f 1137 1141 1114
f 1140 1136 1117
f 1119 1138 1115
f 1116 1143 1120
f 1139 1143 1116
f 1142 1138 1119
f 1121 1140 1117
f 1118 1145 1122
f 1141 1145 1118
f 1144 1140 1121
f 1123 1142 1119
f 1120 1147 1124
f 1143 1147 1120
f 1124 1147 1123
f 1146 1142 1123
f 1123 1147 1146
f 1125 1144 1121
f 1126 1149 1125
f 1148 1144 1125
f 1125 1149 1148
f 1145 1123 1122
f 1123 1150 1127
f 1146 1123 1145
f 1146 1150 1123
f 1127 1150 1126
f 1126 1150 1149
f 1151 1129 1128
f 1130 1151 1128
f 1129 1154 1131
f 1152 1129 1151
f 1152 1154 1129
f 1153 1151 1130
f 1155 1133 1132
f 1134 1155 1132
f 1133 1158 1135
f 1156 1133 1155
f 1156 1158 1133
f 1157 1155 1134
f 1136 1153 1130
f 1131 1160 1137
f 1154 1160 1131
f 1159 1153 1136
f 1138 1157 1134
f 1135 1162 1139
f 1158 1162 1135
f 1161 1157 1138
f 1140 1159 1136
f 1137 1164 1141
f 1160 1164 1137
f 1163 1159 1140
f 1142 1161 1138
f 1139 1166 1143
f 1162 1166 1139
f 1165 1161 1142
f 1144 1163 1140
f 1141 1168 1145
f 1164 1168 1141
f 1167 1163 1144
f 1146 1165 1142
f 1143 1170 1147
f 1166 1170 1143
f 1147 1170 1146
f 1169 1165 1146
f 1146 1170 1169
f 1148 1167 1144
f 1149 1172 1148
f 1171 1167 1148
f 1148 1172 1171
f 1168 1146 1145
f 1146 1173 1150
f 1169 1146 1168
f 1169 1173 1146
f 1150 1173 1149
f 1149 1173 1172
f 1174 1152 1151
f 1153 1174 1151
f 1152 1177 1154
f 1175 1152 1174
f 1175 1177 1152
f 1176 1174 1153
f 1178 1156 1155
f 1157 1178 1155
f 1156 1181 1158
f 1179 1156 1178
f 1179 1181 1156
f 1180 1178 1157
f 1159 1176 1153
f 1154 1183 1160
f 1177 1183 1154
f 1182 1176 1159
f 1161 1180 1157
f 1158 1185 1162
f 1181 1185 1158
f 1184 1180 1161
f 1163 1182 1159
f 1160 1187 1164
f 1183 1187 1160
f 1186 1182 1163
f 1165 1184 1161
f 1162 1189 1166
f 1185 1189 1162
f 1188 1184 1165
f 1167 1186 1163
f 1164 1191 1168
f 1187 1191 1164
f 1190 1186 1167
f 1169 1188 1165
f 1166 1193 1170
f 1189 1193 1166
f 1170 1193 1169
f 1192 1188 1169
f 1169 1193 1192
f 1171 1190 1167
f 1172 1195 1171
f 1194 1190 1171
f 1171 1195 1194
f 1191 1169 1168
f 1169 1196 1173
f 1192 1169 1191
f 1192 1196 1169
f 1173 1196 1172
f 1172 1196 1195
f 1197 1175 1174
f 1176 1197 1174
f 1175 1200 1177
f 1198 1175 1197
f 1198 1200 1175
f 1199 1197 1176
f 1201 1179 1178
f 1180 1201 1178
f 1179 1204 1181
f 1202 1179 1201
f 1202 1204 1179
f 1203 1201 1180
f 1182 1199 1176
f 1177 1206 1183
f 1200 1206 1177
f 1205 1199 1182
f 1184 1203 1180
f 1181 1208 1185
f 1204 1208 1181
f 1207 1203 1184
f 1186 1205 1182
f 1183 1210 1187
f 1206 1210 1183
f 1209 1205 1186
f 1188 1207 1184
f 1185 1212 1189
f 1208 1212 1185
f 1211 1207 1188
f 1190 1209 1186
f 1213 1209 1190
f 1188 1192 1187
f 1210 1188 1187
f 1187 1192 1191
f 1211 1188 1210
f 1189 1215 1193
f 1212 1215 1189
f 1193 1215 1192
f 1192 1215 1214
f 1194 1213 1190
f 1195 1217 1194
f 1216 1213 1194
f 1194 1217 1216
f 1192 1218 1196
f 1214 1218 1192
f 1196 1218 1195
f 1195 1218 1217
f 1219 1198 1197
f 1199 1219 1197
f 1198 1222 1200
f 1220 1198 1219
f 1220 1222 1198
f 1221 1219 1199
f 1221 1220 1219
f 1222 1220 1221
f 1223 1202 1201
f 1203 1223 1201
f 1202 1226 1204
f 1224 1202 1223
f 1224 1226 1202
f 1225 1223 1203
f 1205 1221 1199
f 1200 1228 1206
f 1222 1228 1200
f 1227 1221 1205
f 1227 1222 1221
f 1228 1222 1227
f 1207 1225 1203
f 1204 1230 1208
f 1226 1230 1204
f 1229 1225 1207
f 1209 1227 1205
f 1206 1232 1210
f 1228 1232 1206
f 1231 1227 1209
f 1231 1228 1227
f 1232 1228 1231
f 1211 1229 1207
f 1208 1234 1212
f 1230 1234 1208
f 1233 1229 1211
f 1213 1231 1209
f 1235 1231 1213
f 1235 1232 1231
f 1236 1232 1235
f 1232 1211 1210
f 1233 1211 1232
f 1212 1238 1215
f 1234 1238 1212
f 1215 1238 1214
f 1214 1238 1237
f 1216 1235 1213
f 1217 1240 1216
f 1239 1235 1216
f 1216 1240 1239
f 1214 1241 1218
f 1237 1241 1214
f 1218 1241 1217
f 1217 1241 1240
f 1242 1224 1223
f 1225 1242 1223
f 1224 1245 1226
f 1243 1224 1242
f 1243 1245 1224
f 1244 1242 1225
f 1244 1243 1242
f 1245 1243 1244
f 1229 1244 1225
f 1226 1247 1230
f 1245 1247 1226
f 1246 1244 1229
f 1246 1245 1244
f 1247 1245 1246
f 1233 1246 1229
f 1230 1249 1234
f 1247 1249 1230
f 1248 1246 1233
f 1248 1247 1246
f 1249 1247 1248
f 1250 1233 1232
f 1236 1250 1232
f 1248 1233 1250
f 1251 1250 1236
f 1251 1248 1250
f 1252 1248 1251
f 1234 1253 1238
f 1249 1253 1234
f 1238 1253 1237
f 1237 1253 1252
f 1252 1249 1248
f 1253 1249 1252
f 1254 1236 1235
f 1239 1254 1235
f 1251 1236 1254
f 1240 1256 1239
f 1255 1254 1239
f 1239 1256 1255
f 1255 1251 1254
f 1256 1251 1255
f 1237 1257 1241
f 1252 1257 1237
f 1241 1257 1240
f 1240 1257 1256
f 1256 1252 1251
f 1257 1252 1256

