# https://github.com/mikedh/trimesh
v -0.09000000 -0.04200000 -0.06200000
v -0.09000000 -0.04200000 -0.05800000
v -0.09000000 -0.03800000 -0.06200000
v -0.09000000 -0.03800000 -0.05800000
v -0.08600000 -0.04200000 -0.06200000
v -0.08600000 -0.04200000 -0.05800000
v -0.08600000 -0.03800000 -0.06200000
v -0.09000000 -0.04200000 -0.05400000
v -0.09000000 -0.03800000 -0.05400000
v -0.08600000 -0.04200000 -0.05400000
v -0.09000000 -0.04200000 -0.05000000
v -0.09000000 -0.03800000 -0.05000000
v -0.08600000 -0.04200000 -0.05000000
v -0.09000000 -0.04200000 -0.04600000
v -0.09000000 -0.03800000 -0.04600000
v -0.08600000 -0.04200000 -0.04600000
v -0.09000000 -0.04200000 -0.04200000
v -0.09000000 -0.03800000 -0.04200000
v -0.08600000 -0.04200000 -0.04200000
v -0.09000000 -0.04200000 -0.03800000
v -0.09000000 -0.03800000 -0.03800000
v -0.08600000 -0.04200000 -0.03800000
v -0.08600000 -0.03800000 -0.03800000
v -0.09000000 -0.03800000 -0.07400000
v -0.09000000 -0.03800000 -0.07000000
v -0.09000000 -0.03400000 -0.07400000
v -0.09000000 -0.03400000 -0.07000000
v -0.08600000 -0.03800000 -0.07400000
v -0.08600000 -0.03800000 -0.07000000
v -0.08600000 -0.03400000 -0.07400000
v -0.09000000 -0.03800000 -0.06600000
v -0.09000000 -0.03400000 -0.06600000
v -0.08600000 -0.03800000 -0.06600000
v -0.09000000 -0.03400000 -0.06200000
v -0.09000000 -0.03400000 -0.05800000
v -0.09000000 -0.03400000 -0.05400000
v -0.08600000 -0.03800000 -0.05800000
v -0.08600000 -0.03800000 -0.05400000
v -0.08600000 -0.03400000 -0.05800000
v -0.08600000 -0.03400000 -0.05400000
v -0.09000000 -0.03400000 -0.05000000
v -0.08600000 -0.03800000 -0.05000000
v -0.08600000 -0.03400000 -0.05000000
v -0.09000000 -0.03400000 -0.04600000
v -0.08600000 -0.03800000 -0.04600000
v -0.08600000 -0.03400000 -0.04600000
v -0.09000000 -0.03400000 -0.04200000
v -0.08600000 -0.03800000 -0.04200000
v -0.08600000 -0.03400000 -0.04200000
v -0.09000000 -0.03400000 -0.03800000
v -0.09000000 -0.03800000 -0.03400000
v -0.09000000 -0.03400000 -0.03400000
v -0.08600000 -0.03800000 -0.03400000
v -0.09000000 -0.03800000 -0.03000000
v -0.09000000 -0.03400000 -0.03000000
v -0.08600000 -0.03800000 -0.03000000
v -0.09000000 -0.03800000 -0.02600000
v -0.09000000 -0.03400000 -0.02600000
v -0.08600000 -0.03800000 -0.02600000
v -0.08600000 -0.03400000 -0.02600000
v -0.09000000 -0.03400000 -0.07800000
v -0.09000000 -0.03000000 -0.07800000
v -0.09000000 -0.03000000 -0.07400000
v -0.08600000 -0.03400000 -0.07800000
v -0.08600000 -0.03000000 -0.07800000
v -0.09000000 -0.03000000 -0.07000000
v -0.09000000 -0.03000000 -0.06600000
v -0.08600000 -0.03400000 -0.07000000
v -0.08600000 -0.03400000 -0.06600000
v -0.08600000 -0.03000000 -0.07000000
v -0.08600000 -0.03000000 -0.06600000
v -0.09000000 -0.03000000 -0.06200000
v -0.08600000 -0.03400000 -0.06200000
v -0.08600000 -0.03000000 -0.06200000
v -0.09000000 -0.03000000 -0.05800000
v -0.08600000 -0.03000000 -0.05800000
v -0.09000000 -0.03000000 -0.05400000
v -0.08600000 -0.03000000 -0.05400000
v -0.09000000 -0.03000000 -0.05000000
v -0.08600000 -0.03000000 -0.05000000
v -0.09000000 -0.03000000 -0.04600000
v -0.08600000 -0.03000000 -0.04600000
v -0.09000000 -0.03000000 -0.04200000
v -0.08600000 -0.03000000 -0.04200000
v -0.09000000 -0.03000000 -0.03800000
v -0.08600000 -0.03400000 -0.03800000
v -0.08600000 -0.03000000 -0.03800000
v -0.09000000 -0.03000000 -0.03400000
v -0.08600000 -0.03400000 -0.03400000
v -0.08600000 -0.03000000 -0.03400000
v -0.09000000 -0.03000000 -0.03000000
v -0.08600000 -0.03400000 -0.03000000
v -0.08600000 -0.03000000 -0.03000000
v -0.09000000 -0.03000000 -0.02600000
v -0.09000000 -0.03400000 -0.02200000
v -0.09000000 -0.03000000 -0.02200000
v -0.08600000 -0.03400000 -0.02200000
v -0.08600000 -0.03000000 -0.02200000
v -0.09000000 -0.03000000 -0.08200000
v -0.09000000 -0.02600000 -0.08200000
v -0.09000000 -0.02600000 -0.07800000
v -0.08600000 -0.03000000 -0.08200000
v -0.08600000 -0.02600000 -0.08200000
v -0.09000000 -0.02600000 -0.07400000
v -0.09000000 -0.02600000 -0.07000000
v -0.08600000 -0.03000000 -0.07400000
v -0.08600000 -0.02600000 -0.07400000
v -0.08600000 -0.02600000 -0.07000000
v -0.09000000 -0.02600000 -0.06600000
v -0.08600000 -0.02600000 -0.06600000
v -0.09000000 -0.02600000 -0.03400000
v -0.09000000 -0.02600000 -0.03000000
v -0.08600000 -0.02600000 -0.03400000
v -0.08600000 -0.02600000 -0.03000000
v -0.09000000 -0.02600000 -0.02600000
v -0.08600000 -0.03000000 -0.02600000
v -0.08600000 -0.02600000 -0.02600000
v -0.09000000 -0.02600000 -0.02200000
v -0.09000000 -0.03000000 -0.01800000
v -0.09000000 -0.02600000 -0.01800000
v -0.08600000 -0.03000000 -0.01800000
v -0.08600000 -0.02600000 -0.01800000
v -0.09000000 -0.02600000 -0.08600000
v -0.09000000 -0.02200000 -0.08600000
v -0.09000000 -0.02200000 -0.08200000
v -0.08600000 -0.02600000 -0.08600000
v -0.08600000 -0.02200000 -0.08600000
v -0.09000000 -0.02200000 -0.07800000
v -0.09000000 -0.02200000 -0.07400000
v -0.08600000 -0.02600000 -0.07800000
v -0.08600000 -0.02200000 -0.07800000
v -0.08600000 -0.02200000 -0.07400000
v -0.09000000 -0.02200000 -0.03000000
v -0.09000000 -0.02200000 -0.02600000
v -0.08600000 -0.02200000 -0.03000000
v -0.08600000 -0.02200000 -0.02600000
v -0.09000000 -0.02200000 -0.02200000
v -0.08600000 -0.02600000 -0.02200000
v -0.08600000 -0.02200000 -0.02200000
v -0.09000000 -0.02200000 -0.01800000
v -0.09000000 -0.02600000 -0.01400000
v -0.09000000 -0.02200000 -0.01400000
v -0.08600000 -0.02600000 -0.01400000
v -0.08600000 -0.02200000 -0.01400000
v -0.09000000 -0.01800000 -0.08600000
v -0.09000000 -0.01800000 -0.08200000
v -0.08600000 -0.01800000 -0.08600000
v -0.09000000 -0.01800000 -0.07800000
v -0.08600000 -0.02200000 -0.08200000
v -0.08600000 -0.01800000 -0.08200000
v -0.08600000 -0.01800000 -0.07800000
v -0.09000000 -0.01800000 -0.07400000
v -0.08600000 -0.01800000 -0.07400000
v -0.09000000 -0.01800000 -0.02600000
v -0.09000000 -0.01800000 -0.02200000
v -0.08600000 -0.01800000 -0.02600000
v -0.08600000 -0.01800000 -0.02200000
v -0.09000000 -0.01800000 -0.01800000
v -0.08600000 -0.02200000 -0.01800000
v -0.08600000 -0.01800000 -0.01800000
v -0.09000000 -0.01800000 -0.01400000
v -0.08600000 -0.01800000 -0.01400000
v -0.09000000 -0.01800000 -0.09000000
v -0.09000000 -0.01400000 -0.09000000
v -0.09000000 -0.01400000 -0.08600000
v -0.08600000 -0.01800000 -0.09000000
v -0.08600000 -0.01400000 -0.09000000
v -0.09000000 -0.01400000 -0.08200000
v -0.09000000 -0.01400000 -0.07800000
v -0.08600000 -0.01400000 -0.08200000
v -0.08600000 -0.01400000 -0.07800000
v -0.09000000 -0.01400000 -0.02200000
v -0.09000000 -0.01400000 -0.01800000
v -0.08600000 -0.01400000 -0.02200000
v -0.08600000 -0.01400000 -0.01800000
v -0.09000000 -0.01400000 -0.01400000
v -0.08600000 -0.01400000 -0.01400000
v -0.09000000 -0.01000000 -0.09000000
v -0.09000000 -0.01000000 -0.08600000
v -0.08600000 -0.01000000 -0.09000000
v -0.09000000 -0.01000000 -0.08200000
v -0.08600000 -0.01400000 -0.08600000
v -0.08600000 -0.01000000 -0.08600000
v -0.08600000 -0.01000000 -0.08200000
v -0.09000000 -0.01000000 -0.01800000
v -0.09000000 -0.01000000 -0.01400000
v -0.08600000 -0.01000000 -0.01800000
v -0.08600000 -0.01000000 -0.01400000
v -0.09000000 -0.00600000 -0.09000000
v -0.09000000 -0.00600000 -0.08600000
v -0.08600000 -0.00600000 -0.09000000
v -0.09000000 -0.00600000 -0.08200000
v -0.08600000 -0.00600000 -0.08600000
v -0.08600000 -0.00600000 -0.08200000
v -0.09000000 -0.00600000 -0.01800000
v -0.09000000 -0.00600000 -0.01400000
v -0.08600000 -0.00600000 -0.01800000
v -0.08600000 -0.00600000 -0.01400000
v -0.09000000 -0.00200000 -0.09000000
v -0.09000000 -0.00200000 -0.08600000
v -0.08600000 -0.00200000 -0.09000000
v -0.09000000 -0.00200000 -0.08200000
v -0.08600000 -0.00200000 -0.08600000
v -0.08600000 -0.00200000 -0.08200000
v -0.09000000 -0.00200000 -0.01800000
v -0.09000000 -0.00200000 -0.01400000
v -0.08600000 -0.00200000 -0.01800000
v -0.08600000 -0.00200000 -0.01400000
v -0.09000000 0.00200000 -0.09000000
v -0.09000000 0.00200000 -0.08600000
v -0.08600000 0.00200000 -0.09000000
v -0.09000000 0.00200000 -0.08200000
v -0.08600000 0.00200000 -0.08600000
v -0.08600000 0.00200000 -0.08200000
v -0.09000000 0.00200000 -0.01800000
v -0.09000000 0.00200000 -0.01400000
v -0.08600000 0.00200000 -0.01800000
v -0.08600000 0.00200000 -0.01400000
v -0.09000000 0.00600000 -0.09000000
v -0.09000000 0.00600000 -0.08600000
v -0.08600000 0.00600000 -0.09000000
v -0.09000000 0.00600000 -0.08200000
v -0.08600000 0.00600000 -0.08600000
v -0.08600000 0.00600000 -0.08200000
v -0.09000000 0.00600000 -0.01800000
v -0.09000000 0.00600000 -0.01400000
v -0.08600000 0.00600000 -0.01800000
v -0.08600000 0.00600000 -0.01400000
v -0.09000000 0.01000000 -0.09000000
v -0.09000000 0.01000000 -0.08600000
v -0.08600000 0.01000000 -0.09000000
v -0.09000000 0.01000000 -0.08200000
v -0.08600000 0.01000000 -0.08600000
v -0.08600000 0.01000000 -0.08200000
v -0.09000000 0.01000000 -0.01800000
v -0.09000000 0.01000000 -0.01400000
v -0.08600000 0.01000000 -0.01800000
v -0.08600000 0.01000000 -0.01400000
v -0.09000000 0.01400000 -0.09000000
v -0.09000000 0.01400000 -0.08600000
v -0.08600000 0.01400000 -0.09000000
v -0.09000000 0.01400000 -0.08200000
v -0.08600000 0.01400000 -0.08600000
v -0.08600000 0.01400000 -0.08200000
v -0.09000000 0.01400000 -0.01800000
v -0.09000000 0.01400000 -0.01400000
v -0.08600000 0.01400000 -0.01800000
v -0.08600000 0.01400000 -0.01400000
v -0.09000000 0.01800000 -0.09000000
v -0.09000000 0.01800000 -0.08600000
v -0.08600000 0.01800000 -0.09000000
v -0.08600000 0.01800000 -0.08600000
v -0.09000000 0.01800000 -0.08200000
v -0.09000000 0.01400000 -0.07800000
v -0.09000000 0.01800000 -0.07800000
v -0.08600000 0.01400000 -0.07800000
v -0.08600000 0.01800000 -0.08200000
v -0.08600000 0.01800000 -0.07800000
v -0.09000000 0.01400000 -0.02200000
v -0.09000000 0.01800000 -0.02200000
v -0.09000000 0.01800000 -0.01800000
v -0.08600000 0.01400000 -0.02200000
v -0.08600000 0.01800000 -0.02200000
v -0.08600000 0.01800000 -0.01800000
v -0.09000000 0.01800000 -0.01400000
v -0.08600000 0.01800000 -0.01400000
v -0.09000000 0.02200000 -0.08600000
v -0.09000000 0.02200000 -0.08200000
v -0.08600000 0.02200000 -0.08600000
v -0.09000000 0.02200000 -0.07800000
v -0.08600000 0.02200000 -0.08200000
v -0.08600000 0.02200000 -0.07800000
v -0.09000000 0.01800000 -0.07400000
v -0.09000000 0.02200000 -0.07400000
v -0.08600000 0.01800000 -0.07400000
v -0.08600000 0.02200000 -0.07400000
v -0.09000000 0.01800000 -0.02600000
v -0.09000000 0.02200000 -0.02600000
v -0.09000000 0.02200000 -0.02200000
v -0.08600000 0.01800000 -0.02600000
v -0.08600000 0.02200000 -0.02600000
v -0.08600000 0.02200000 -0.02200000
v -0.09000000 0.02200000 -0.01800000
v -0.08600000 0.02200000 -0.01800000
v -0.09000000 0.02200000 -0.01400000
v -0.08600000 0.02200000 -0.01400000
v -0.09000000 0.02600000 -0.08600000
v -0.09000000 0.02600000 -0.08200000
v -0.08600000 0.02600000 -0.08600000
v -0.08600000 0.02600000 -0.08200000
v -0.09000000 0.02600000 -0.07800000
v -0.09000000 0.02600000 -0.07400000
v -0.08600000 0.02600000 -0.07800000
v -0.08600000 0.02600000 -0.07400000
v -0.09000000 0.02200000 -0.03000000
v -0.09000000 0.02600000 -0.03000000
v -0.09000000 0.02600000 -0.02600000
v -0.08600000 0.02200000 -0.03000000
v -0.08600000 0.02600000 -0.03000000
v -0.08600000 0.02600000 -0.02600000
v -0.09000000 0.02600000 -0.02200000
v -0.08600000 0.02600000 -0.02200000
v -0.09000000 0.02600000 -0.01800000
v -0.09000000 0.02600000 -0.01400000
v -0.08600000 0.02600000 -0.01800000
v -0.08600000 0.02600000 -0.01400000
v -0.09000000 0.03000000 -0.08200000
v -0.09000000 0.03000000 -0.07800000
v -0.08600000 0.03000000 -0.08200000
v -0.08600000 0.03000000 -0.07800000
v -0.09000000 0.03000000 -0.07400000
v -0.09000000 0.02600000 -0.07000000
v -0.09000000 0.03000000 -0.07000000
v -0.08600000 0.02600000 -0.07000000
v -0.08600000 0.03000000 -0.07400000
v -0.08600000 0.03000000 -0.07000000
v -0.09000000 0.02600000 -0.06600000
v -0.09000000 0.03000000 -0.06600000
v -0.08600000 0.02600000 -0.06600000
v -0.08600000 0.03000000 -0.06600000
v -0.09000000 0.02600000 -0.03400000
v -0.09000000 0.03000000 -0.03400000
v -0.09000000 0.03000000 -0.03000000
v -0.08600000 0.02600000 -0.03400000
v -0.08600000 0.03000000 -0.03400000
v -0.08600000 0.03000000 -0.03000000
v -0.09000000 0.03000000 -0.02600000
v -0.08600000 0.03000000 -0.02600000
v -0.09000000 0.03000000 -0.02200000
v -0.09000000 0.03000000 -0.01800000
v -0.08600000 0.03000000 -0.02200000
v -0.08600000 0.03000000 -0.01800000
v -0.09000000 0.03400000 -0.07800000
v -0.09000000 0.03400000 -0.07400000
v -0.08600000 0.03400000 -0.07800000
v -0.08600000 0.03400000 -0.07400000
v -0.09000000 0.03400000 -0.07000000
v -0.09000000 0.03400000 -0.06600000
v -0.08600000 0.03400000 -0.07000000
v -0.08600000 0.03400000 -0.06600000
v -0.09000000 0.03000000 -0.06200000
v -0.09000000 0.03400000 -0.06200000
v -0.08600000 0.03000000 -0.06200000
v -0.08600000 0.03400000 -0.06200000
v -0.09000000 0.03000000 -0.05800000
v -0.09000000 0.03400000 -0.05800000
v -0.08600000 0.03000000 -0.05800000
v -0.08600000 0.03400000 -0.05800000
v -0.09000000 0.03000000 -0.05400000
v -0.09000000 0.03400000 -0.05400000
v -0.08600000 0.03000000 -0.05400000
v -0.08600000 0.03400000 -0.05400000
v -0.09000000 0.03000000 -0.05000000
v -0.09000000 0.03400000 -0.05000000
v -0.08600000 0.03000000 -0.05000000
v -0.08600000 0.03400000 -0.05000000
v -0.09000000 0.03000000 -0.04600000
v -0.09000000 0.03400000 -0.04600000
v -0.08600000 0.03000000 -0.04600000
v -0.08600000 0.03400000 -0.04600000
v -0.09000000 0.03000000 -0.04200000
v -0.09000000 0.03400000 -0.04200000
v -0.08600000 0.03000000 -0.04200000
v -0.08600000 0.03400000 -0.04200000
v -0.09000000 0.03000000 -0.03800000
v -0.09000000 0.03400000 -0.03800000
v -0.08600000 0.03000000 -0.03800000
v -0.08600000 0.03400000 -0.03800000
v -0.09000000 0.03400000 -0.03400000
v -0.08600000 0.03400000 -0.03400000
v -0.09000000 0.03400000 -0.03000000
v -0.08600000 0.03400000 -0.03000000
v -0.09000000 0.03400000 -0.02600000
v -0.09000000 0.03400000 -0.02200000
v -0.08600000 0.03400000 -0.02600000
v -0.08600000 0.03400000 -0.02200000
v -0.09000000 0.03800000 -0.07400000
v -0.09000000 0.03800000 -0.07000000
v -0.08600000 0.03800000 -0.07400000
v -0.08600000 0.03800000 -0.07000000
v -0.09000000 0.03800000 -0.06600000
v -0.08600000 0.03800000 -0.06600000
v -0.09000000 0.03800000 -0.06200000
v -0.08600000 0.03800000 -0.06200000
v -0.09000000 0.03800000 -0.05800000
v -0.09000000 0.03800000 -0.05400000
v -0.08600000 0.03800000 -0.05800000
v -0.08600000 0.03800000 -0.05400000
v -0.09000000 0.03800000 -0.05000000
v -0.08600000 0.03800000 -0.05000000
v -0.09000000 0.03800000 -0.04600000
v -0.08600000 0.03800000 -0.04600000
v -0.09000000 0.03800000 -0.04200000
v -0.08600000 0.03800000 -0.04200000
v -0.09000000 0.03800000 -0.03800000
v -0.09000000 0.03800000 -0.03400000
v -0.08600000 0.03800000 -0.03800000
v -0.08600000 0.03800000 -0.03400000
v -0.09000000 0.03800000 -0.03000000
v -0.08600000 0.03800000 -0.03000000
v -0.09000000 0.03800000 -0.02600000
v -0.08600000 0.03800000 -0.02600000
v -0.09000000 0.04200000 -0.06200000
v -0.09000000 0.04200000 -0.05800000
v -0.08600000 0.04200000 -0.06200000
v -0.08600000 0.04200000 -0.05800000
v -0.09000000 0.04200000 -0.05400000
v -0.08600000 0.04200000 -0.05400000
v -0.09000000 0.04200000 -0.05000000
v -0.08600000 0.04200000 -0.05000000
v -0.09000000 0.04200000 -0.04600000
v -0.08600000 0.04200000 -0.04600000
v -0.09000000 0.04200000 -0.04200000
v -0.08600000 0.04200000 -0.04200000
v -0.09000000 0.04200000 -0.03800000
v -0.08600000 0.04200000 -0.03800000
v -0.08200000 -0.04200000 -0.06200000
v -0.08200000 -0.04200000 -0.05800000
v -0.08200000 -0.03800000 -0.06200000
v -0.08200000 -0.04200000 -0.05400000
v -0.08200000 -0.03800000 -0.05800000
v -0.08200000 -0.03800000 -0.05400000
v -0.08200000 -0.04200000 -0.05000000
v -0.08200000 -0.03800000 -0.05000000
v -0.08200000 -0.04200000 -0.04600000
v -0.08200000 -0.03800000 -0.04600000
v -0.08200000 -0.04200000 -0.04200000
v -0.08200000 -0.03800000 -0.04200000
v -0.08200000 -0.04200000 -0.03800000
v -0.08200000 -0.03800000 -0.03800000
v -0.08200000 -0.03800000 -0.07400000
v -0.08200000 -0.03800000 -0.07000000
v -0.08200000 -0.03400000 -0.07400000
v -0.08200000 -0.03800000 -0.06600000
v -0.08200000 -0.03400000 -0.07000000
v -0.08200000 -0.03400000 -0.06600000
v -0.08200000 -0.03400000 -0.06200000
v -0.08200000 -0.03400000 -0.05800000
v -0.08200000 -0.03400000 -0.04200000
v -0.08200000 -0.03400000 -0.03800000
v -0.08200000 -0.03800000 -0.03400000
v -0.08200000 -0.03400000 -0.03400000
v -0.08200000 -0.03800000 -0.03000000
v -0.08200000 -0.03400000 -0.03000000
v -0.08200000 -0.03800000 -0.02600000
v -0.08200000 -0.03400000 -0.02600000
v -0.08200000 -0.03400000 -0.07800000
v -0.08200000 -0.03000000 -0.07800000
v -0.08200000 -0.03000000 -0.07400000
v -0.08200000 -0.03000000 -0.07000000
v -0.08200000 -0.03000000 -0.03000000
v -0.08200000 -0.03000000 -0.02600000
v -0.08200000 -0.03400000 -0.02200000
v -0.08200000 -0.03000000 -0.02200000
v -0.08200000 -0.03000000 -0.08200000
v -0.08200000 -0.02600000 -0.08200000
v -0.08200000 -0.02600000 -0.07800000
v -0.08200000 -0.02600000 -0.07400000
v -0.08200000 -0.02600000 -0.02600000
v -0.08200000 -0.02600000 -0.02200000
v -0.08200000 -0.03000000 -0.01800000
v -0.08200000 -0.02600000 -0.01800000
v -0.08200000 -0.02600000 -0.08600000
v -0.08200000 -0.02200000 -0.08600000
v -0.08200000 -0.02200000 -0.08200000
v -0.08200000 -0.02200000 -0.07800000
v -0.08200000 -0.02200000 -0.02200000
v -0.08200000 -0.02200000 -0.01800000
v -0.08200000 -0.02600000 -0.01400000
v -0.08200000 -0.02200000 -0.01400000
v -0.08200000 -0.01800000 -0.08600000
v -0.08200000 -0.01800000 -0.08200000
v -0.08200000 -0.01800000 -0.01800000
v -0.08200000 -0.01800000 -0.01400000
v -0.08200000 -0.01800000 -0.09000000
v -0.08200000 -0.01400000 -0.09000000
v -0.08200000 -0.01400000 -0.08600000
v -0.08200000 -0.01400000 -0.08200000
v -0.08200000 -0.01000000 -0.09000000
v -0.08200000 -0.01000000 -0.08600000
v -0.08200000 -0.00600000 -0.09000000
v -0.08200000 -0.00600000 -0.08600000
v -0.08200000 -0.00200000 -0.09000000
v -0.08200000 -0.00200000 -0.08600000
v -0.08200000 0.00200000 -0.09000000
v -0.08200000 0.00200000 -0.08600000
v -0.08200000 0.00600000 -0.09000000
v -0.08200000 0.00600000 -0.08600000
v -0.08200000 0.01000000 -0.09000000
v -0.08200000 0.01000000 -0.08600000
v -0.08200000 0.01400000 -0.09000000
v -0.08200000 0.01400000 -0.08600000
v -0.08200000 0.01800000 -0.09000000
v -0.08200000 0.01800000 -0.08600000
v -0.08200000 0.01400000 -0.08200000
v -0.08200000 0.01800000 -0.08200000
v -0.08200000 0.02200000 -0.08600000
v -0.08200000 0.02200000 -0.08200000
v -0.08200000 0.01800000 -0.01800000
v -0.08200000 0.01800000 -0.01400000
v -0.08200000 0.02200000 -0.01800000
v -0.08200000 0.02200000 -0.01400000
v -0.08200000 0.02600000 -0.08600000
v -0.08200000 0.02600000 -0.08200000
v -0.08200000 0.02200000 -0.07800000
v -0.08200000 0.02600000 -0.07800000
v -0.08200000 0.02200000 -0.02200000
v -0.08200000 0.02600000 -0.02200000
v -0.08200000 0.02600000 -0.01800000
v -0.08200000 0.02600000 -0.01400000
v -0.08200000 0.03000000 -0.08200000
v -0.08200000 0.03000000 -0.07800000
v -0.08200000 0.02600000 -0.07400000
v -0.08200000 0.03000000 -0.07400000
v -0.08200000 0.02600000 -0.02600000
v -0.08200000 0.03000000 -0.02600000
v -0.08200000 0.03000000 -0.02200000
v -0.08200000 0.03000000 -0.01800000
v -0.08200000 0.03400000 -0.07800000
v -0.08200000 0.03400000 -0.07400000
v -0.08200000 0.03000000 -0.07000000
v -0.08200000 0.03400000 -0.07000000
v -0.08200000 0.03000000 -0.03000000
v -0.08200000 0.03400000 -0.03000000
v -0.08200000 0.03400000 -0.02600000
v -0.08200000 0.03400000 -0.02200000
v -0.08200000 0.03800000 -0.07400000
v -0.08200000 0.03800000 -0.07000000
v -0.08200000 0.03400000 -0.06600000
v -0.08200000 0.03800000 -0.06600000
v -0.08200000 0.03400000 -0.06200000
v -0.08200000 0.03800000 -0.06200000
v -0.08200000 0.03400000 -0.05800000
v -0.08200000 0.03800000 -0.05800000
v -0.08200000 0.03400000 -0.04200000
v -0.08200000 0.03400000 -0.03800000
v -0.08200000 0.03800000 -0.04200000
v -0.08200000 0.03400000 -0.03400000
v -0.08200000 0.03800000 -0.03800000
v -0.08200000 0.03800000 -0.03400000
v -0.08200000 0.03800000 -0.03000000
v -0.08200000 0.03800000 -0.02600000
v -0.08200000 0.04200000 -0.06200000
v -0.08200000 0.04200000 -0.05800000
v -0.08200000 0.03800000 -0.05400000
v -0.08200000 0.04200000 -0.05400000
v -0.08200000 0.03800000 -0.05000000
v -0.08200000 0.04200000 -0.05000000
v -0.08200000 0.03800000 -0.04600000
v -0.08200000 0.04200000 -0.04600000
v -0.08200000 0.04200000 -0.04200000
v -0.08200000 0.04200000 -0.03800000
v -0.07800000 -0.04200000 -0.06200000
v -0.07800000 -0.04200000 -0.05800000
v -0.07800000 -0.03800000 -0.06200000
v -0.07800000 -0.04200000 -0.05400000
v -0.07800000 -0.03800000 -0.05800000
v -0.07800000 -0.03800000 -0.05400000
v -0.07800000 -0.04200000 -0.05000000
v -0.07800000 -0.03800000 -0.05000000
v -0.07800000 -0.04200000 -0.04600000
v -0.07800000 -0.03800000 -0.04600000
v -0.07800000 -0.04200000 -0.04200000
v -0.07800000 -0.03800000 -0.04200000
v -0.07800000 -0.04200000 -0.03800000
v -0.07800000 -0.03800000 -0.03800000
v -0.07800000 -0.03800000 -0.07400000
v -0.07800000 -0.03800000 -0.07000000
v -0.07800000 -0.03400000 -0.07400000
v -0.07800000 -0.03800000 -0.06600000
v -0.07800000 -0.03400000 -0.07000000
v -0.07800000 -0.03400000 -0.06600000
v -0.07800000 -0.03400000 -0.06200000
v -0.07800000 -0.03400000 -0.05800000
v -0.07800000 -0.03400000 -0.04200000
v -0.07800000 -0.03400000 -0.03800000
v -0.07800000 -0.03800000 -0.03400000
v -0.07800000 -0.03400000 -0.03400000
v -0.07800000 -0.03800000 -0.03000000
v -0.07800000 -0.03400000 -0.03000000
v -0.07800000 -0.03800000 -0.02600000
v -0.07800000 -0.03400000 -0.02600000
v -0.07800000 -0.03400000 -0.07800000
v -0.07800000 -0.03000000 -0.07800000
v -0.07800000 -0.03000000 -0.07400000
v -0.07800000 -0.03000000 -0.07000000
v -0.07800000 -0.03000000 -0.03000000
v -0.07800000 -0.03000000 -0.02600000
v -0.07800000 -0.03400000 -0.02200000
v -0.07800000 -0.03000000 -0.02200000
v -0.07800000 -0.03000000 -0.08200000
v -0.07800000 -0.02600000 -0.08200000
v -0.07800000 -0.02600000 -0.07800000
v -0.07800000 -0.02600000 -0.07400000
v -0.07800000 -0.02600000 -0.02600000
v -0.07800000 -0.02600000 -0.02200000
v -0.07800000 -0.03000000 -0.01800000
v -0.07800000 -0.02600000 -0.01800000
v -0.07800000 -0.02600000 -0.08600000
v -0.07800000 -0.02200000 -0.08600000
v -0.07800000 -0.02200000 -0.08200000
v -0.07800000 -0.02200000 -0.07800000
v -0.07800000 -0.02200000 -0.02200000
v -0.07800000 -0.02200000 -0.01800000
v -0.07800000 -0.02600000 -0.01400000
v -0.07800000 -0.02200000 -0.01400000
v -0.07800000 -0.01800000 -0.08600000
v -0.07800000 -0.01800000 -0.08200000
v -0.07800000 -0.01800000 -0.01800000
v -0.07800000 -0.01800000 -0.01400000
v -0.07800000 -0.01800000 -0.09000000
v -0.07800000 -0.01400000 -0.09000000
v -0.07800000 -0.01400000 -0.08600000
v -0.07800000 -0.01400000 -0.08200000
v -0.07800000 -0.01000000 -0.09000000
v -0.07800000 -0.01000000 -0.08600000
v -0.07800000 -0.00600000 -0.09000000
v -0.07800000 -0.00600000 -0.08600000
v -0.07800000 -0.00200000 -0.09000000
v -0.07800000 -0.00200000 -0.08600000
v -0.07800000 0.00200000 -0.09000000
v -0.07800000 0.00200000 -0.08600000
v -0.07800000 0.00600000 -0.09000000
v -0.07800000 0.00600000 -0.08600000
v -0.07800000 0.01000000 -0.09000000
v -0.07800000 0.01000000 -0.08600000
v -0.07800000 0.01400000 -0.09000000
v -0.07800000 0.01400000 -0.08600000
v -0.07800000 0.01800000 -0.09000000
v -0.07800000 0.01800000 -0.08600000
v -0.07800000 0.01400000 -0.08200000
v -0.07800000 0.01800000 -0.08200000
v -0.07800000 0.02200000 -0.08600000
v -0.07800000 0.02200000 -0.08200000
v -0.07800000 0.01800000 -0.01800000
v -0.07800000 0.01800000 -0.01400000
v -0.07800000 0.02200000 -0.01800000
v -0.07800000 0.02200000 -0.01400000
v -0.07800000 0.02600000 -0.08600000
v -0.07800000 0.02600000 -0.08200000
v -0.07800000 0.02200000 -0.07800000
v -0.07800000 0.02600000 -0.07800000
v -0.07800000 0.02200000 -0.02200000
v -0.07800000 0.02600000 -0.02200000
v -0.07800000 0.02600000 -0.01800000
v -0.07800000 0.02600000 -0.01400000
v -0.07800000 0.03000000 -0.08200000
v -0.07800000 0.03000000 -0.07800000
v -0.07800000 0.02600000 -0.07400000
v -0.07800000 0.03000000 -0.07400000
v -0.07800000 0.02600000 -0.02600000
v -0.07800000 0.03000000 -0.02600000
v -0.07800000 0.03000000 -0.02200000
v -0.07800000 0.03000000 -0.01800000
v -0.07800000 0.03400000 -0.07800000
v -0.07800000 0.03400000 -0.07400000
v -0.07800000 0.03000000 -0.07000000
v -0.07800000 0.03400000 -0.07000000
v -0.07800000 0.03000000 -0.03000000
v -0.07800000 0.03400000 -0.03000000
v -0.07800000 0.03400000 -0.02600000
v -0.07800000 0.03400000 -0.02200000
v -0.07800000 0.03800000 -0.07400000
v -0.07800000 0.03800000 -0.07000000
v -0.07800000 0.03400000 -0.06600000
v -0.07800000 0.03800000 -0.06600000
v -0.07800000 0.03400000 -0.06200000
v -0.07800000 0.03800000 -0.06200000
v -0.07800000 0.03400000 -0.05800000
v -0.07800000 0.03800000 -0.05800000
v -0.07800000 0.03400000 -0.04200000
v -0.07800000 0.03400000 -0.03800000
v -0.07800000 0.03800000 -0.04200000
v -0.07800000 0.03400000 -0.03400000
v -0.07800000 0.03800000 -0.03800000
v -0.07800000 0.03800000 -0.03400000
v -0.07800000 0.03800000 -0.03000000
v -0.07800000 0.03800000 -0.02600000
v -0.07800000 0.04200000 -0.06200000
v -0.07800000 0.04200000 -0.05800000
v -0.07800000 0.03800000 -0.05400000
v -0.07800000 0.04200000 -0.05400000
v -0.07800000 0.03800000 -0.05000000
v -0.07800000 0.04200000 -0.05000000
v -0.07800000 0.03800000 -0.04600000
v -0.07800000 0.04200000 -0.04600000
v -0.07800000 0.04200000 -0.04200000
v -0.07800000 0.04200000 -0.03800000
v -0.07400000 -0.04200000 -0.06200000
v -0.07400000 -0.04200000 -0.05800000
v -0.07400000 -0.03800000 -0.06200000
v -0.07400000 -0.04200000 -0.05400000
v -0.07400000 -0.03800000 -0.05800000
v -0.07400000 -0.03800000 -0.05400000
v -0.07400000 -0.04200000 -0.05000000
v -0.07400000 -0.03800000 -0.05000000
v -0.07400000 -0.04200000 -0.04600000
v -0.07400000 -0.03800000 -0.04600000
v -0.07400000 -0.04200000 -0.04200000
v -0.07400000 -0.03800000 -0.04200000
v -0.07400000 -0.04200000 -0.03800000
v -0.07400000 -0.03800000 -0.03800000
v -0.07400000 -0.03800000 -0.07400000
v -0.07400000 -0.03800000 -0.07000000
v -0.07400000 -0.03400000 -0.07400000
v -0.07400000 -0.03800000 -0.06600000
v -0.07400000 -0.03400000 -0.07000000
v -0.07400000 -0.03400000 -0.06600000
v -0.07400000 -0.03400000 -0.06200000
v -0.07400000 -0.03400000 -0.05800000
v -0.07400000 -0.03400000 -0.04200000
v -0.07400000 -0.03400000 -0.03800000
v -0.07400000 -0.03800000 -0.03400000
v -0.07400000 -0.03400000 -0.03400000
v -0.07400000 -0.03800000 -0.03000000
v -0.07400000 -0.03400000 -0.03000000
v -0.07400000 -0.03800000 -0.02600000
v -0.07400000 -0.03400000 -0.02600000
v -0.07400000 -0.03400000 -0.07800000
v -0.07400000 -0.03000000 -0.07800000
v -0.07400000 -0.03000000 -0.07400000
v -0.07400000 -0.03000000 -0.07000000
v -0.07400000 -0.03000000 -0.03000000
v -0.07400000 -0.03000000 -0.02600000
v -0.07400000 -0.03400000 -0.02200000
v -0.07400000 -0.03000000 -0.02200000
v -0.07400000 -0.03000000 -0.08200000
v -0.07400000 -0.02600000 -0.08200000
v -0.07400000 -0.02600000 -0.07800000
v -0.07400000 -0.02600000 -0.07400000
v -0.07400000 -0.02600000 -0.02600000
v -0.07400000 -0.02600000 -0.02200000
v -0.07400000 -0.03000000 -0.01800000
v -0.07400000 -0.02600000 -0.01800000
v -0.07400000 -0.02600000 -0.08600000
v -0.07400000 -0.02200000 -0.08600000
v -0.07400000 -0.02200000 -0.08200000
v -0.07400000 -0.02200000 -0.07800000
v -0.07400000 -0.02200000 -0.02200000
v -0.07400000 -0.02200000 -0.01800000
v -0.07400000 -0.02600000 -0.01400000
v -0.07400000 -0.02200000 -0.01400000
v -0.07400000 -0.01800000 -0.08600000
v -0.07400000 -0.01800000 -0.08200000
v -0.07400000 -0.01800000 -0.01800000
v -0.07400000 -0.01800000 -0.01400000
v -0.07400000 -0.01800000 -0.09000000
v -0.07400000 -0.01400000 -0.09000000
v -0.07400000 -0.01400000 -0.08600000
v -0.07400000 -0.01400000 -0.08200000
v -0.07800000 -0.01400000 -0.01800000
v -0.07800000 -0.01400000 -0.01400000
v -0.07400000 -0.01400000 -0.01800000
v -0.07400000 -0.01400000 -0.01400000
v -0.07800000 -0.01800000 -0.01000000
v -0.07800000 -0.01400000 -0.01000000
v -0.07400000 -0.01800000 -0.01000000
v -0.07400000 -0.01400000 -0.01000000
v -0.07400000 -0.01000000 -0.09000000
v -0.07400000 -0.01000000 -0.08600000
v -0.07800000 -0.01000000 -0.01400000
v -0.07800000 -0.01000000 -0.01000000
v -0.07400000 -0.01000000 -0.01400000
v -0.07400000 -0.01000000 -0.01000000
v -0.07400000 -0.00600000 -0.09000000
v -0.07400000 -0.00600000 -0.08600000
v -0.07800000 -0.00600000 -0.01400000
v -0.07800000 -0.00600000 -0.01000000
v -0.07400000 -0.00600000 -0.01400000
v -0.07400000 -0.00600000 -0.01000000
v -0.07400000 -0.00200000 -0.09000000
v -0.07400000 -0.00200000 -0.08600000
v -0.07800000 -0.00200000 -0.01400000
v -0.07800000 -0.00200000 -0.01000000
v -0.07400000 -0.00200000 -0.01400000
v -0.07400000 -0.00200000 -0.01000000
v -0.07400000 0.00200000 -0.09000000
v -0.07400000 0.00200000 -0.08600000
v -0.07800000 0.00200000 -0.01400000
v -0.07800000 0.00200000 -0.01000000
v -0.07400000 0.00200000 -0.01400000
v -0.07400000 0.00200000 -0.01000000
v -0.07400000 0.00600000 -0.09000000
v -0.07400000 0.00600000 -0.08600000
v -0.07800000 0.00600000 -0.01400000
v -0.07800000 0.00600000 -0.01000000
v -0.07400000 0.00600000 -0.01400000
v -0.07400000 0.00600000 -0.01000000
v -0.07400000 0.01000000 -0.09000000
v -0.07400000 0.01000000 -0.08600000
v -0.07800000 0.01000000 -0.01400000
v -0.07800000 0.01000000 -0.01000000
v -0.07400000 0.01000000 -0.01400000
v -0.07400000 0.01000000 -0.01000000
v -0.07400000 0.01400000 -0.09000000
v -0.07400000 0.01400000 -0.08600000
v -0.07800000 0.01400000 -0.01400000
v -0.07800000 0.01400000 -0.01000000
v -0.07400000 0.01400000 -0.01400000
v -0.07400000 0.01400000 -0.01000000
v -0.07400000 0.01800000 -0.09000000
v -0.07400000 0.01800000 -0.08600000
v -0.07400000 0.01400000 -0.08200000
v -0.07400000 0.01800000 -0.08200000
v -0.07800000 0.01400000 -0.01800000
v -0.07400000 0.01400000 -0.01800000
v -0.07400000 0.01800000 -0.01800000
v -0.07800000 0.01800000 -0.01000000
v -0.07400000 0.01800000 -0.01400000
v -0.07400000 0.01800000 -0.01000000
v -0.07400000 0.02200000 -0.08600000
v -0.07400000 0.02200000 -0.08200000
v -0.07400000 0.02200000 -0.01800000
v -0.07400000 0.02200000 -0.01400000
v -0.07400000 0.02600000 -0.08600000
v -0.07400000 0.02600000 -0.08200000
v -0.07400000 0.02200000 -0.07800000
v -0.07400000 0.02600000 -0.07800000
v -0.07400000 0.02200000 -0.02200000
v -0.07400000 0.02600000 -0.02200000
v -0.07400000 0.02600000 -0.01800000
v -0.07400000 0.02600000 -0.01400000
v -0.07400000 0.03000000 -0.08200000
v -0.07400000 0.03000000 -0.07800000
v -0.07400000 0.02600000 -0.07400000
v -0.07400000 0.03000000 -0.07400000
v -0.07400000 0.02600000 -0.02600000
v -0.07400000 0.03000000 -0.02600000
v -0.07400000 0.03000000 -0.02200000
v -0.07400000 0.03000000 -0.01800000
v -0.07400000 0.03400000 -0.07800000
v -0.07400000 0.03400000 -0.07400000
v -0.07400000 0.03000000 -0.07000000
v -0.07400000 0.03400000 -0.07000000
v -0.07400000 0.03000000 -0.03000000
v -0.07400000 0.03400000 -0.03000000
v -0.07400000 0.03400000 -0.02600000
v -0.07400000 0.03400000 -0.02200000
v -0.07400000 0.03800000 -0.07400000
v -0.07400000 0.03800000 -0.07000000
v -0.07400000 0.03400000 -0.06600000
v -0.07400000 0.03800000 -0.06600000
v -0.07400000 0.03400000 -0.06200000
v -0.07400000 0.03800000 -0.06200000
v -0.07400000 0.03400000 -0.05800000
v -0.07400000 0.03800000 -0.05800000
v -0.07400000 0.03400000 -0.04200000
v -0.07400000 0.03400000 -0.03800000
v -0.07400000 0.03800000 -0.04200000
v -0.07400000 0.03400000 -0.03400000
v -0.07400000 0.03800000 -0.03800000
v -0.07400000 0.03800000 -0.03400000
v -0.07400000 0.03800000 -0.03000000
v -0.07400000 0.03800000 -0.02600000
v -0.07400000 0.04200000 -0.06200000
v -0.07400000 0.04200000 -0.05800000
v -0.07400000 0.03800000 -0.05400000
v -0.07400000 0.04200000 -0.05400000
v -0.07400000 0.03800000 -0.05000000
v -0.07400000 0.04200000 -0.05000000
v -0.07400000 0.03800000 -0.04600000
v -0.07400000 0.04200000 -0.04600000
v -0.07400000 0.04200000 -0.04200000
v -0.07400000 0.04200000 -0.03800000
v -0.07000000 -0.04200000 -0.06200000
v -0.07000000 -0.04200000 -0.05800000
v -0.07000000 -0.03800000 -0.06200000
v -0.07000000 -0.03800000 -0.05800000
v -0.07000000 -0.04200000 -0.05400000
v -0.07000000 -0.03800000 -0.05400000
v -0.07000000 -0.04200000 -0.05000000
v -0.07000000 -0.03800000 -0.05000000
v -0.07000000 -0.04200000 -0.04600000
v -0.07000000 -0.03800000 -0.04600000
v -0.07000000 -0.04200000 -0.04200000
v -0.07000000 -0.03800000 -0.04200000
v -0.07000000 -0.04200000 -0.03800000
v -0.07000000 -0.03800000 -0.03800000
v -0.07000000 -0.03800000 -0.07400000
v -0.07000000 -0.03800000 -0.07000000
v -0.07000000 -0.03400000 -0.07400000
v -0.07000000 -0.03400000 -0.07000000
v -0.07000000 -0.03800000 -0.06600000
v -0.07000000 -0.03400000 -0.06600000
v -0.07000000 -0.03400000 -0.06200000
v -0.07000000 -0.03400000 -0.05800000
v -0.07400000 -0.03400000 -0.05400000
v -0.07000000 -0.03400000 -0.05400000
v -0.07400000 -0.03400000 -0.05000000
v -0.07000000 -0.03400000 -0.05000000
v -0.07400000 -0.03400000 -0.04600000
v -0.07000000 -0.03400000 -0.04600000
v -0.07000000 -0.03400000 -0.04200000
v -0.07000000 -0.03400000 -0.03800000
v -0.07000000 -0.03800000 -0.03400000
v -0.07000000 -0.03400000 -0.03400000
v -0.07000000 -0.03800000 -0.03000000
v -0.07000000 -0.03400000 -0.03000000
v -0.07000000 -0.03800000 -0.02600000
v -0.07000000 -0.03400000 -0.02600000
v -0.07000000 -0.03400000 -0.07800000
v -0.07000000 -0.03000000 -0.07800000
v -0.07000000 -0.03000000 -0.07400000
v -0.07000000 -0.03000000 -0.07000000
v -0.07400000 -0.03000000 -0.06600000
v -0.07000000 -0.03000000 -0.06600000
v -0.07400000 -0.03000000 -0.06200000
v -0.07000000 -0.03000000 -0.06200000
v -0.07400000 -0.03000000 -0.05800000
v -0.07000000 -0.03000000 -0.05800000
v -0.07400000 -0.03000000 -0.04200000
v -0.07400000 -0.03000000 -0.03800000
v -0.07000000 -0.03000000 -0.04200000
v -0.07000000 -0.03000000 -0.03800000
v -0.07400000 -0.03000000 -0.03400000
v -0.07000000 -0.03000000 -0.03400000
v -0.07000000 -0.03000000 -0.03000000
v -0.07000000 -0.03000000 -0.02600000
v -0.07000000 -0.03400000 -0.02200000
v -0.07000000 -0.03000000 -0.02200000
v -0.07000000 -0.03000000 -0.08200000
v -0.07000000 -0.02600000 -0.08200000
v -0.07000000 -0.02600000 -0.07800000
v -0.07000000 -0.02600000 -0.07400000
v -0.07400000 -0.02600000 -0.07000000
v -0.07000000 -0.02600000 -0.07000000
v -0.07400000 -0.02600000 -0.06600000
v -0.07000000 -0.02600000 -0.06600000
v -0.07400000 -0.02600000 -0.03400000
v -0.07400000 -0.02600000 -0.03000000
v -0.07000000 -0.02600000 -0.03400000
v -0.07000000 -0.02600000 -0.03000000
v -0.07000000 -0.02600000 -0.02600000
v -0.07000000 -0.02600000 -0.02200000
v -0.07000000 -0.03000000 -0.01800000
v -0.07000000 -0.02600000 -0.01800000
v -0.07000000 -0.02600000 -0.08600000
v -0.07000000 -0.02200000 -0.08600000
v -0.07000000 -0.02200000 -0.08200000
v -0.07000000 -0.02200000 -0.07800000
v -0.07400000 -0.02200000 -0.07400000
v -0.07000000 -0.02200000 -0.07400000
v -0.07400000 -0.02200000 -0.03000000
v -0.07400000 -0.02200000 -0.02600000
v -0.07000000 -0.02200000 -0.03000000
v -0.07000000 -0.02200000 -0.02600000
v -0.07000000 -0.02200000 -0.02200000
v -0.07000000 -0.02200000 -0.01800000
v -0.07000000 -0.02600000 -0.01400000
v -0.07000000 -0.02200000 -0.01400000
v -0.07000000 -0.01800000 -0.08600000
v -0.07000000 -0.01800000 -0.08200000
v -0.07400000 -0.01800000 -0.07800000
v -0.07000000 -0.01800000 -0.07800000
v -0.07400000 -0.01800000 -0.07400000
v -0.07000000 -0.01800000 -0.07400000
v -0.07400000 -0.01800000 -0.02600000
v -0.07400000 -0.01800000 -0.02200000
v -0.07000000 -0.01800000 -0.02600000
v -0.07000000 -0.01800000 -0.02200000
v -0.07000000 -0.01800000 -0.01800000
v -0.07000000 -0.01800000 -0.01400000
v -0.07000000 -0.01800000 -0.09000000
v -0.07000000 -0.01400000 -0.09000000
v -0.07000000 -0.01400000 -0.08600000
v -0.07000000 -0.01400000 -0.08200000
v -0.07400000 -0.01400000 -0.07800000
v -0.07000000 -0.01400000 -0.07800000
v -0.07400000 -0.01400000 -0.02200000
v -0.07000000 -0.01400000 -0.02200000
v -0.07000000 -0.01400000 -0.01800000
v -0.07000000 -0.01400000 -0.01400000
v -0.07000000 -0.01800000 -0.01000000
v -0.07000000 -0.01400000 -0.01000000
v -0.07000000 -0.01000000 -0.09000000
v -0.07000000 -0.01000000 -0.08600000
v -0.07400000 -0.01000000 -0.08200000
v -0.07000000 -0.01000000 -0.08200000
v -0.07400000 -0.01000000 -0.01800000
v -0.07000000 -0.01000000 -0.01800000
v -0.07000000 -0.01000000 -0.01400000
v -0.07000000 -0.01000000 -0.01000000
v -0.07000000 -0.00600000 -0.09000000
v -0.07000000 -0.00600000 -0.08600000
v -0.07400000 -0.00600000 -0.08200000
v -0.07000000 -0.00600000 -0.08200000
v -0.07400000 -0.00600000 -0.01800000
v -0.07000000 -0.00600000 -0.01800000
v -0.07000000 -0.00600000 -0.01400000
v -0.07000000 -0.00600000 -0.01000000
v -0.07000000 -0.00200000 -0.09000000
v -0.07000000 -0.00200000 -0.08600000
v -0.07400000 -0.00200000 -0.08200000
v -0.07000000 -0.00200000 -0.08200000
v -0.07400000 -0.00200000 -0.01800000
v -0.07000000 -0.00200000 -0.01800000
v -0.07000000 -0.00200000 -0.01400000
v -0.07000000 -0.00200000 -0.01000000
v -0.07000000 0.00200000 -0.09000000
v -0.07000000 0.00200000 -0.08600000
v -0.07400000 0.00200000 -0.08200000
v -0.07000000 0.00200000 -0.08200000
v -0.07400000 0.00200000 -0.01800000
v -0.07000000 0.00200000 -0.01800000
v -0.07000000 0.00200000 -0.01400000
v -0.07000000 0.00200000 -0.01000000
v -0.07000000 0.00600000 -0.09000000
v -0.07000000 0.00600000 -0.08600000
v -0.07400000 0.00600000 -0.08200000
v -0.07000000 0.00600000 -0.08200000
v -0.07400000 0.00600000 -0.01800000
v -0.07000000 0.00600000 -0.01800000
v -0.07000000 0.00600000 -0.01400000
v -0.07000000 0.00600000 -0.01000000
v -0.07000000 0.01000000 -0.09000000
v -0.07000000 0.01000000 -0.08600000
v -0.07400000 0.01000000 -0.08200000
v -0.07000000 0.01000000 -0.08200000
v -0.07400000 0.01000000 -0.01800000
v -0.07000000 0.01000000 -0.01800000
v -0.07000000 0.01000000 -0.01400000
v -0.07000000 0.01000000 -0.01000000
v -0.07000000 0.01400000 -0.09000000
v -0.07000000 0.01400000 -0.08600000
v -0.07000000 0.01400000 -0.08200000
v -0.07000000 0.01400000 -0.01800000
v -0.07000000 0.01400000 -0.01400000
v -0.07000000 0.01400000 -0.01000000
v -0.07000000 0.01800000 -0.09000000
v -0.07000000 0.01800000 -0.08600000
v -0.07000000 0.01800000 -0.08200000
v -0.07400000 0.01400000 -0.07800000
v -0.07400000 0.01800000 -0.07800000
v -0.07000000 0.01400000 -0.07800000
v -0.07000000 0.01800000 -0.07800000
v -0.07400000 0.01400000 -0.02200000
v -0.07400000 0.01800000 -0.02200000
v -0.07000000 0.01400000 -0.02200000
v -0.07000000 0.01800000 -0.02200000
v -0.07000000 0.01800000 -0.01800000
v -0.07000000 0.01800000 -0.01400000
v -0.07000000 0.01800000 -0.01000000
v -0.07000000 0.02200000 -0.08600000
v -0.07000000 0.02200000 -0.08200000
v -0.07000000 0.02200000 -0.07800000
v -0.07400000 0.01800000 -0.07400000
v -0.07400000 0.02200000 -0.07400000
v -0.07000000 0.01800000 -0.07400000
v -0.07000000 0.02200000 -0.07400000
v -0.07400000 0.01800000 -0.02600000
v -0.07400000 0.02200000 -0.02600000
v -0.07000000 0.01800000 -0.02600000
v -0.07000000 0.02200000 -0.02600000
v -0.07000000 0.02200000 -0.02200000
v -0.07000000 0.02200000 -0.01800000
v -0.07000000 0.02200000 -0.01400000
v -0.07000000 0.02600000 -0.08600000
v -0.07000000 0.02600000 -0.08200000
v -0.07000000 0.02600000 -0.07800000
v -0.07000000 0.02600000 -0.07400000
v -0.07400000 0.02200000 -0.03000000
v -0.07400000 0.02600000 -0.03000000
v -0.07000000 0.02200000 -0.03000000
v -0.07000000 0.02600000 -0.03000000
v -0.07000000 0.02600000 -0.02600000
v -0.07000000 0.02600000 -0.02200000
v -0.07000000 0.02600000 -0.01800000
v -0.07000000 0.02600000 -0.01400000
v -0.07000000 0.03000000 -0.08200000
v -0.07000000 0.03000000 -0.07800000
v -0.07000000 0.03000000 -0.07400000
v -0.07400000 0.02600000 -0.07000000
v -0.07000000 0.02600000 -0.07000000
v -0.07000000 0.03000000 -0.07000000
v -0.07400000 0.02600000 -0.06600000
v -0.07400000 0.03000000 -0.06600000
v -0.07000000 0.02600000 -0.06600000
v -0.07000000 0.03000000 -0.06600000
v -0.07400000 0.02600000 -0.03400000
v -0.07400000 0.03000000 -0.03400000
v -0.07000000 0.02600000 -0.03400000
v -0.07000000 0.03000000 -0.03400000
v -0.07000000 0.03000000 -0.03000000
v -0.07000000 0.03000000 -0.02600000
v -0.07000000 0.03000000 -0.02200000
v -0.07000000 0.03000000 -0.01800000
v -0.07000000 0.03400000 -0.07800000
v -0.07000000 0.03400000 -0.07400000
v -0.07000000 0.03400000 -0.07000000
v -0.07000000 0.03400000 -0.06600000
v -0.07400000 0.03000000 -0.06200000
v -0.07000000 0.03000000 -0.06200000
v -0.07000000 0.03400000 -0.06200000
v -0.07400000 0.03000000 -0.05800000
v -0.07000000 0.03000000 -0.05800000
v -0.07000000 0.03400000 -0.05800000
v -0.07400000 0.03000000 -0.04200000
v -0.07400000 0.03000000 -0.03800000
v -0.07000000 0.03000000 -0.04200000
v -0.07000000 0.03000000 -0.03800000
v -0.07000000 0.03400000 -0.04200000
v -0.07000000 0.03400000 -0.03800000
v -0.07000000 0.03400000 -0.03400000
v -0.07000000 0.03400000 -0.03000000
v -0.07000000 0.03400000 -0.02600000
v -0.07000000 0.03400000 -0.02200000
v -0.07000000 0.03800000 -0.07400000
v -0.07000000 0.03800000 -0.07000000
v -0.07000000 0.03800000 -0.06600000
v -0.07000000 0.03800000 -0.06200000
v -0.07000000 0.03800000 -0.05800000
v -0.07400000 0.03400000 -0.05400000
v -0.07000000 0.03400000 -0.05400000
v -0.07000000 0.03800000 -0.05400000
v -0.07400000 0.03400000 -0.05000000
v -0.07000000 0.03400000 -0.05000000
v -0.07000000 0.03800000 -0.05000000
v -0.07400000 0.03400000 -0.04600000
v -0.07000000 0.03400000 -0.04600000
v -0.07000000 0.03800000 -0.04600000
v -0.07000000 0.03800000 -0.04200000
v -0.07000000 0.03800000 -0.03800000
v -0.07000000 0.03800000 -0.03400000
v -0.07000000 0.03800000 -0.03000000
v -0.07000000 0.03800000 -0.02600000
v -0.07000000 0.04200000 -0.06200000
v -0.07000000 0.04200000 -0.05800000
v -0.07000000 0.04200000 -0.05400000
v -0.07000000 0.04200000 -0.05000000
v -0.07000000 0.04200000 -0.04600000
v -0.07000000 0.04200000 -0.04200000
v -0.07000000 0.04200000 -0.03800000
f 2 4 1
f 5 2 1
f 1 4 3
f 3 5 1
f 6 2 5
f 7 5 3
f 8 9 2
f 6 8 2
f 2 9 4
f 10 8 6
f 11 12 8
f 10 11 8
f 8 12 9
f 13 11 10
f 14 15 11
f 13 14 11
f 11 15 12
f 16 14 13
f 17 18 14
f 16 17 14
f 14 18 15
f 19 17 16
f 20 21 17
f 19 20 17
f 17 21 18
f 20 23 21
f 22 20 19
f 22 23 20
f 25 27 24
f 28 25 24
f 24 27 26
f 26 28 24
f 29 25 28
f 30 28 26
f 31 32 25
f 29 31 25
f 25 32 27
f 33 31 29
f 3 34 31
f 33 3 31
f 31 34 32
f 7 3 33
f 4 35 3
f 3 35 34
f 9 36 4
f 4 36 35
f 39 38 37
f 40 38 39
f 12 41 9
f 9 41 36
f 40 42 38
f 43 42 40
f 15 44 12
f 12 44 41
f 43 45 42
f 46 45 43
f 18 47 15
f 15 47 44
f 46 48 45
f 49 48 46
f 21 50 18
f 18 50 47
f 51 52 21
f 23 51 21
f 21 52 50
f 53 51 23
f 54 55 51
f 53 54 51
f 51 55 52
f 56 54 53
f 57 58 54
f 56 57 54
f 54 58 55
f 57 60 58
f 59 57 56
f 59 60 57
f 26 63 61
f 64 26 61
f 61 63 62
f 62 64 61
f 30 26 64
f 65 64 62
f 27 66 26
f 26 66 63
f 32 67 27
f 27 67 66
f 70 69 68
f 71 69 70
f 34 72 32
f 32 72 67
f 72 74 67
f 67 74 71
f 71 73 69
f 74 73 71
f 35 75 34
f 34 75 72
f 75 76 72
f 72 76 74
f 74 39 73
f 76 39 74
f 36 77 35
f 35 77 75
f 77 78 75
f 75 78 76
f 76 40 39
f 78 40 76
f 41 79 36
f 36 79 77
f 79 80 77
f 77 80 78
f 78 43 40
f 80 43 78
f 44 81 41
f 41 81 79
f 81 82 79
f 79 82 80
f 80 46 43
f 82 46 80
f 47 83 44
f 44 83 81
f 83 84 81
f 81 84 82
f 82 49 46
f 84 49 82
f 50 85 47
f 47 85 83
f 85 87 83
f 83 87 84
f 84 86 49
f 87 86 84
f 52 88 50
f 50 88 85
f 88 90 85
f 85 90 87
f 87 89 86
f 90 89 87
f 55 91 52
f 52 91 88
f 90 92 89
f 93 92 90
f 58 94 55
f 55 94 91
f 95 96 58
f 60 95 58
f 58 96 94
f 95 98 96
f 97 95 60
f 97 98 95
f 62 101 99
f 102 62 99
f 99 101 100
f 100 102 99
f 65 62 102
f 103 102 100
f 63 104 62
f 62 104 101
f 66 105 63
f 63 105 104
f 105 108 104
f 104 108 107
f 107 70 106
f 108 70 107
f 67 109 66
f 66 109 105
f 67 110 109
f 71 110 67
f 109 110 105
f 105 110 108
f 108 71 70
f 110 71 108
f 91 112 88
f 88 112 111
f 111 90 88
f 112 114 111
f 113 90 111
f 111 114 113
f 113 93 90
f 114 93 113
f 94 115 91
f 91 115 112
f 114 116 93
f 117 116 114
f 96 118 94
f 94 118 115
f 119 120 96
f 98 119 96
f 96 120 118
f 119 122 120
f 121 119 98
f 121 122 119
f 100 125 123
f 126 100 123
f 123 125 124
f 124 126 123
f 103 100 126
f 127 126 124
f 101 128 100
f 100 128 125
f 104 129 101
f 101 129 128
f 104 132 129
f 107 132 104
f 131 107 130
f 132 107 131
f 115 134 112
f 112 134 133
f 133 114 112
f 134 136 133
f 135 114 133
f 133 136 135
f 135 117 114
f 136 117 135
f 118 137 115
f 115 137 134
f 136 138 117
f 139 138 136
f 120 140 118
f 118 140 137
f 141 142 120
f 122 141 120
f 120 142 140
f 141 144 142
f 143 141 122
f 143 144 141
f 125 146 124
f 124 146 145
f 145 127 124
f 147 127 145
f 128 148 125
f 125 148 146
f 150 131 149
f 151 131 150
f 129 152 128
f 128 152 148
f 129 153 152
f 132 153 129
f 152 153 148
f 148 153 151
f 151 132 131
f 153 132 151
f 137 155 134
f 134 155 154
f 154 136 134
f 155 157 154
f 156 136 154
f 154 157 156
f 156 139 136
f 157 139 156
f 140 158 137
f 137 158 155
f 157 159 139
f 160 159 157
f 142 161 140
f 140 161 158
f 142 162 161
f 144 162 142
f 145 165 163
f 166 145 163
f 163 165 164
f 164 166 163
f 147 145 166
f 167 166 164
f 146 168 145
f 145 168 165
f 148 169 146
f 146 169 168
f 148 171 169
f 151 171 148
f 169 171 168
f 168 171 170
f 170 151 150
f 171 151 170
f 158 173 155
f 155 173 172
f 172 157 155
f 173 175 172
f 174 157 172
f 172 175 174
f 174 160 157
f 175 160 174
f 161 176 158
f 158 176 173
f 161 177 176
f 162 177 161
f 175 162 160
f 177 162 175
f 165 179 164
f 164 179 178
f 178 167 164
f 180 167 178
f 168 181 165
f 165 181 179
f 168 184 181
f 170 184 168
f 183 170 182
f 184 170 183
f 176 186 173
f 173 186 185
f 185 175 173
f 176 188 186
f 177 188 176
f 187 175 185
f 187 177 175
f 188 177 187
f 179 190 178
f 178 190 189
f 189 180 178
f 191 180 189
f 181 192 179
f 179 192 190
f 181 194 192
f 184 194 181
f 193 184 183
f 194 184 193
f 186 196 185
f 185 196 195
f 195 187 185
f 186 198 196
f 188 198 186
f 197 187 195
f 197 188 187
f 198 188 197
f 190 200 189
f 189 200 199
f 199 191 189
f 201 191 199
f 192 202 190
f 190 202 200
f 192 204 202
f 194 204 192
f 203 194 193
f 204 194 203
f 196 206 195
f 195 206 205
f 205 197 195
f 196 208 206
f 198 208 196
f 207 197 205
f 207 198 197
f 208 198 207
f 200 210 199
f 199 210 209
f 209 201 199
f 211 201 209
f 202 212 200
f 200 212 210
f 202 214 212
f 204 214 202
f 213 204 203
f 214 204 213
f 206 216 205
f 205 216 215
f 215 207 205
f 206 218 216
f 208 218 206
f 217 207 215
f 217 208 207
f 218 208 217
f 210 220 209
f 209 220 219
f 219 211 209
f 221 211 219
f 212 222 210
f 210 222 220
f 212 224 222
f 214 224 212
f 223 214 213
f 224 214 223
f 216 226 215
f 215 226 225
f 225 217 215
f 216 228 226
f 218 228 216
f 227 217 225
f 227 218 217
f 228 218 227
f 220 230 219
f 219 230 229
f 229 221 219
f 231 221 229
f 222 232 220
f 220 232 230
f 222 234 232
f 224 234 222
f 233 224 223
f 234 224 233
f 226 236 225
f 225 236 235
f 235 227 225
f 226 238 236
f 228 238 226
f 237 227 235
f 237 228 227
f 238 228 237
f 230 240 229
f 229 240 239
f 239 231 229
f 241 231 239
f 232 242 230
f 230 242 240
f 232 244 242
f 234 244 232
f 243 234 233
f 244 234 243
f 236 246 235
f 235 246 245
f 245 237 235
f 236 248 246
f 238 248 236
f 247 237 245
f 247 238 237
f 248 238 247
f 240 250 239
f 239 250 249
f 249 241 239
f 250 252 249
f 251 241 249
f 249 252 251
f 242 253 240
f 240 253 250
f 254 255 242
f 244 254 242
f 242 255 253
f 254 258 255
f 256 254 244
f 256 258 254
f 257 256 244
f 258 256 257
f 245 261 259
f 262 245 259
f 259 261 260
f 260 262 259
f 247 245 262
f 263 262 260
f 263 247 262
f 264 247 263
f 246 265 245
f 245 265 261
f 246 266 265
f 248 266 246
f 264 248 247
f 266 248 264
f 253 268 250
f 250 268 267
f 267 252 250
f 269 252 267
f 255 270 253
f 253 270 268
f 271 258 257
f 272 258 271
f 273 274 255
f 258 273 255
f 255 274 270
f 273 276 274
f 275 273 258
f 275 276 273
f 272 275 258
f 276 275 272
f 260 279 277
f 280 260 277
f 277 279 278
f 278 280 277
f 263 260 280
f 281 280 278
f 281 263 280
f 282 263 281
f 261 283 260
f 260 283 279
f 282 264 263
f 284 264 282
f 265 285 261
f 261 285 283
f 265 286 285
f 266 286 265
f 268 288 267
f 267 288 287
f 287 269 267
f 288 290 287
f 289 269 287
f 287 290 289
f 270 291 268
f 268 291 288
f 274 292 270
f 270 292 291
f 274 294 292
f 276 294 274
f 293 276 272
f 294 276 293
f 278 297 295
f 298 278 295
f 295 297 296
f 296 298 295
f 281 278 298
f 299 298 296
f 299 281 298
f 300 281 299
f 279 301 278
f 278 301 297
f 300 282 281
f 302 282 300
f 283 303 279
f 279 303 301
f 285 304 283
f 283 304 303
f 285 306 304
f 286 306 285
f 304 306 303
f 303 306 305
f 291 308 288
f 288 308 307
f 307 290 288
f 308 310 307
f 309 290 307
f 307 310 309
f 292 311 291
f 291 311 308
f 312 313 292
f 294 312 292
f 292 313 311
f 314 312 294
f 315 314 294
f 316 314 315
f 317 318 312
f 314 317 312
f 312 318 313
f 317 320 318
f 319 317 314
f 319 320 317
f 316 319 314
f 320 319 316
f 296 323 321
f 324 296 321
f 321 323 322
f 322 324 321
f 299 296 324
f 325 324 322
f 325 299 324
f 326 299 325
f 297 327 296
f 296 327 323
f 326 300 299
f 328 300 326
f 301 329 297
f 297 329 327
f 303 330 301
f 301 330 329
f 303 332 330
f 305 332 303
f 330 332 329
f 329 332 331
f 311 334 308
f 308 334 333
f 333 310 308
f 334 336 333
f 335 310 333
f 333 336 335
f 313 337 311
f 311 337 334
f 318 338 313
f 313 338 337
f 339 320 316
f 340 320 339
f 341 342 318
f 320 341 318
f 318 342 338
f 343 341 320
f 340 343 320
f 344 343 340
f 345 346 341
f 343 345 341
f 341 346 342
f 347 345 343
f 344 347 343
f 348 347 344
f 349 350 345
f 347 349 345
f 345 350 346
f 351 349 347
f 348 351 347
f 352 351 348
f 353 354 349
f 351 353 349
f 349 354 350
f 355 353 351
f 352 355 351
f 356 355 352
f 357 358 353
f 355 357 353
f 353 358 354
f 359 357 355
f 356 359 355
f 360 359 356
f 361 362 357
f 359 361 357
f 357 362 358
f 363 361 359
f 360 363 359
f 364 363 360
f 365 366 361
f 363 365 361
f 361 366 362
f 367 365 363
f 364 367 363
f 368 367 364
f 322 369 365
f 367 322 365
f 365 369 366
f 325 322 367
f 368 325 367
f 370 325 368
f 323 371 322
f 322 371 369
f 370 326 325
f 372 326 370
f 327 373 323
f 323 373 371
f 329 374 327
f 327 374 373
f 329 376 374
f 331 376 329
f 374 376 373
f 373 376 375
f 337 378 334
f 334 378 377
f 377 336 334
f 378 380 377
f 379 336 377
f 377 380 379
f 338 381 337
f 337 381 378
f 381 382 378
f 378 382 380
f 342 383 338
f 338 383 381
f 383 384 381
f 381 384 382
f 346 385 342
f 342 385 383
f 350 386 346
f 346 386 385
f 387 352 348
f 388 352 387
f 354 389 350
f 350 389 386
f 388 356 352
f 390 356 388
f 358 391 354
f 354 391 389
f 390 360 356
f 392 360 390
f 362 393 358
f 358 393 391
f 392 364 360
f 394 364 392
f 366 395 362
f 362 395 393
f 369 396 366
f 366 396 395
f 396 398 395
f 395 398 397
f 371 399 369
f 369 399 396
f 399 400 396
f 396 400 398
f 373 401 371
f 371 401 399
f 373 402 401
f 375 402 373
f 401 402 399
f 399 402 400
f 385 404 383
f 383 404 403
f 403 384 383
f 404 406 403
f 405 384 403
f 403 406 405
f 386 407 385
f 385 407 404
f 407 408 404
f 404 408 406
f 389 409 386
f 386 409 407
f 409 410 407
f 407 410 408
f 391 411 389
f 389 411 409
f 411 412 409
f 409 412 410
f 393 413 391
f 391 413 411
f 413 414 411
f 411 414 412
f 395 415 393
f 393 415 413
f 395 416 415
f 397 416 395
f 415 416 413
f 413 416 414
f 417 6 5
f 7 417 5
f 418 6 417
f 419 417 7
f 418 10 6
f 420 10 418
f 38 422 37
f 37 422 421
f 420 13 10
f 423 13 420
f 42 424 38
f 38 424 422
f 423 16 13
f 425 16 423
f 45 426 42
f 42 426 424
f 425 19 16
f 427 19 425
f 48 428 45
f 45 428 426
f 427 22 19
f 22 430 23
f 429 22 427
f 429 430 22
f 431 29 28
f 30 431 28
f 432 29 431
f 433 431 30
f 432 33 29
f 434 33 432
f 69 436 68
f 68 436 435
f 434 7 33
f 419 7 434
f 73 437 69
f 69 437 436
f 37 438 39
f 421 438 37
f 39 438 73
f 73 438 437
f 49 428 48
f 86 440 49
f 439 428 49
f 49 440 439
f 430 53 23
f 441 53 430
f 89 442 86
f 86 442 440
f 441 56 53
f 443 56 441
f 92 444 89
f 89 444 442
f 443 59 56
f 59 446 60
f 445 59 443
f 445 446 59
f 447 30 64
f 65 447 64
f 433 30 447
f 448 447 65
f 68 450 70
f 435 450 68
f 70 450 106
f 106 450 449
f 93 444 92
f 116 452 93
f 451 444 93
f 93 452 451
f 446 97 60
f 97 454 98
f 453 97 446
f 453 454 97
f 455 65 102
f 103 455 102
f 448 65 455
f 456 455 103
f 106 458 107
f 449 458 106
f 107 458 130
f 130 458 457
f 117 452 116
f 138 460 117
f 459 452 117
f 117 460 459
f 454 121 98
f 121 462 122
f 461 121 454
f 461 462 121
f 463 103 126
f 127 463 126
f 456 103 463
f 464 463 127
f 130 466 131
f 457 466 130
f 131 466 149
f 149 466 465
f 139 460 138
f 159 468 139
f 467 460 139
f 139 468 467
f 462 143 122
f 143 470 144
f 469 143 462
f 469 470 143
f 147 464 127
f 149 472 150
f 465 472 149
f 471 464 147
f 160 468 159
f 144 474 162
f 470 474 144
f 162 474 160
f 473 468 160
f 160 474 473
f 475 147 166
f 167 475 166
f 471 147 475
f 476 475 167
f 150 478 170
f 472 478 150
f 170 478 182
f 182 478 477
f 180 476 167
f 182 480 183
f 477 480 182
f 479 476 180
f 191 479 180
f 183 482 193
f 480 482 183
f 481 479 191
f 201 481 191
f 193 484 203
f 482 484 193
f 483 481 201
f 211 483 201
f 203 486 213
f 484 486 203
f 485 483 211
f 221 485 211
f 213 488 223
f 486 488 213
f 487 485 221
f 231 487 221
f 223 490 233
f 488 490 223
f 489 487 231
f 241 489 231
f 233 492 243
f 490 492 233
f 491 489 241
f 251 491 241
f 252 494 251
f 493 491 251
f 251 494 493
f 492 244 243
f 244 496 257
f 495 244 492
f 495 496 244
f 269 494 252
f 257 498 271
f 496 498 257
f 497 494 269
f 499 266 264
f 284 499 264
f 266 502 286
f 500 266 499
f 500 502 266
f 501 499 284
f 289 497 269
f 290 504 289
f 503 497 289
f 289 504 503
f 498 272 271
f 272 506 293
f 505 272 498
f 505 506 272
f 507 284 282
f 302 507 282
f 501 284 507
f 508 507 302
f 286 510 306
f 502 510 286
f 306 510 305
f 305 510 509
f 309 504 290
f 310 512 309
f 511 504 309
f 309 512 511
f 506 294 293
f 294 514 315
f 513 294 506
f 513 514 294
f 515 302 300
f 328 515 300
f 508 302 515
f 516 515 328
f 305 518 332
f 509 518 305
f 332 518 331
f 331 518 517
f 335 512 310
f 336 520 335
f 519 512 335
f 335 520 519
f 514 316 315
f 316 522 339
f 521 316 514
f 521 522 316
f 523 328 326
f 372 523 326
f 516 328 523
f 524 523 372
f 331 526 376
f 517 526 331
f 376 526 375
f 375 526 525
f 379 520 336
f 380 528 379
f 527 520 379
f 379 528 527
f 522 340 339
f 529 340 522
f 382 530 380
f 380 530 528
f 529 344 340
f 531 344 529
f 384 532 382
f 382 532 530
f 531 348 344
f 348 534 387
f 533 348 531
f 533 534 348
f 535 368 364
f 394 535 364
f 536 368 535
f 537 535 394
f 536 370 368
f 538 370 536
f 398 540 397
f 397 540 539
f 538 372 370
f 524 372 538
f 400 541 398
f 398 541 540
f 375 542 402
f 525 542 375
f 402 542 400
f 400 542 541
f 405 532 384
f 406 544 405
f 543 532 405
f 405 544 543
f 534 388 387
f 545 388 534
f 408 546 406
f 406 546 544
f 545 390 388
f 547 390 545
f 410 548 408
f 408 548 546
f 547 392 390
f 549 392 547
f 412 550 410
f 410 550 548
f 549 394 392
f 537 394 549
f 414 551 412
f 412 551 550
f 397 552 416
f 539 552 397
f 416 552 414
f 414 552 551
f 553 418 417
f 419 553 417
f 554 418 553
f 555 553 419
f 554 420 418
f 556 420 554
f 422 558 421
f 421 558 557
f 556 423 420
f 559 423 556
f 424 560 422
f 422 560 558
f 559 425 423
f 561 425 559
f 426 562 424
f 424 562 560
f 561 427 425
f 563 427 561
f 428 564 426
f 426 564 562
f 563 429 427
f 429 566 430
f 565 429 563
f 565 566 429
f 567 432 431
f 433 567 431
f 568 432 567
f 569 567 433
f 568 434 432
f 570 434 568
f 436 572 435
f 435 572 571
f 570 419 434
f 555 419 570
f 437 573 436
f 436 573 572
f 421 574 438
f 557 574 421
f 438 574 437
f 437 574 573
f 439 564 428
f 440 576 439
f 575 564 439
f 439 576 575
f 566 441 430
f 577 441 566
f 442 578 440
f 440 578 576
f 577 443 441
f 579 443 577
f 444 580 442
f 442 580 578
f 579 445 443
f 445 582 446
f 581 445 579
f 581 582 445
f 583 433 447
f 448 583 447
f 569 433 583
f 584 583 448
f 435 586 450
f 571 586 435
f 450 586 449
f 449 586 585
f 451 580 444
f 452 588 451
f 587 580 451
f 451 588 587
f 582 453 446
f 453 590 454
f 589 453 582
f 589 590 453
f 591 448 455
f 456 591 455
f 584 448 591
f 592 591 456
f 449 594 458
f 585 594 449
f 458 594 457
f 457 594 593
f 459 588 452
f 460 596 459
f 595 588 459
f 459 596 595
f 590 461 454
f 461 598 462
f 597 461 590
f 597 598 461
f 599 456 463
f 464 599 463
f 592 456 599
f 600 599 464
f 457 602 466
f 593 602 457
f 466 602 465
f 465 602 601
f 467 596 460
f 468 604 467
f 603 596 467
f 467 604 603
f 598 469 462
f 469 606 470
f 605 469 598
f 605 606 469
f 471 600 464
f 465 608 472
f 601 608 465
f 607 600 471
f 473 604 468
f 470 610 474
f 606 610 470
f 474 610 473
f 609 604 473
f 473 610 609
f 611 471 475
f 476 611 475
f 607 471 611
f 612 611 476
f 472 614 478
f 608 614 472
f 478 614 477
f 477 614 613
f 479 612 476
f 477 616 480
f 613 616 477
f 615 612 479
f 481 615 479
f 480 618 482
f 616 618 480
f 617 615 481
f 483 617 481
f 482 620 484
f 618 620 482
f 619 617 483
f 485 619 483
f 484 622 486
f 620 622 484
f 621 619 485
f 487 621 485
f 486 624 488
f 622 624 486
f 623 621 487
f 489 623 487
f 488 626 490
f 624 626 488
f 625 623 489
f 491 625 489
f 490 628 492
f 626 628 490
f 627 625 491
f 493 627 491
f 494 630 493
f 629 627 493
f 493 630 629
f 628 495 492
f 495 632 496
f 631 495 628
f 631 632 495
f 497 630 494
f 496 634 498
f 632 634 496
f 633 630 497
f 635 500 499
f 501 635 499
f 500 638 502
f 636 500 635
f 636 638 500
f 637 635 501
f 503 633 497
f 504 640 503
f 639 633 503
f 503 640 639
f 634 505 498
f 505 642 506
f 641 505 634
f 641 642 505
f 643 501 507
f 508 643 507
f 637 501 643
f 644 643 508
f 502 646 510
f 638 646 502
f 510 646 509
f 509 646 645
f 511 640 504
f 512 648 511
f 647 640 511
f 511 648 647
f 642 513 506
f 513 650 514
f 649 513 642
f 649 650 513
f 651 508 515
f 516 651 515
f 644 508 651
f 652 651 516
f 509 654 518
f 645 654 509
f 518 654 517
f 517 654 653
f 519 648 512
f 520 656 519
f 655 648 519
f 519 656 655
f 650 521 514
f 521 658 522
f 657 521 650
f 657 658 521
f 659 516 523
f 524 659 523
f 652 516 659
f 660 659 524
f 517 662 526
f 653 662 517
f 526 662 525
f 525 662 661
f 527 656 520
f 528 664 527
f 663 656 527
f 527 664 663
f 658 529 522
f 665 529 658
f 530 666 528
f 528 666 664
f 665 531 529
f 667 531 665
f 532 668 530
f 530 668 666
f 667 533 531
f 533 670 534
f 669 533 667
f 669 670 533
f 671 536 535
f 537 671 535
f 672 536 671
f 673 671 537
f 672 538 536
f 674 538 672
f 540 676 539
f 539 676 675
f 674 524 538
f 660 524 674
f 541 677 540
f 540 677 676
f 525 678 542
f 661 678 525
f 542 678 541
f 541 678 677
f 543 668 532
f 544 680 543
f 679 668 543
f 543 680 679
f 670 545 534
f 681 545 670
f 546 682 544
f 544 682 680
f 681 547 545
f 683 547 681
f 548 684 546
f 546 684 682
f 683 549 547
f 685 549 683
f 550 686 548
f 548 686 684
f 685 537 549
f 673 537 685
f 551 687 550
f 550 687 686
f 539 688 552
f 675 688 539
f 552 688 551
f 551 688 687
f 689 554 553
f 555 689 553
f 690 554 689
f 691 689 555
f 690 556 554
f 692 556 690
f 558 694 557
f 557 694 693
f 692 559 556
f 695 559 692
f 560 696 558
f 558 696 694
f 695 561 559
f 697 561 695
f 562 698 560
f 560 698 696
f 697 563 561
f 699 563 697
f 564 700 562
f 562 700 698
f 699 565 563
f 565 702 566
f 701 565 699
f 701 702 565
f 703 568 567
f 569 703 567
f 704 568 703
f 705 703 569
f 704 570 568
f 706 570 704
f 572 708 571
f 571 708 707
f 706 555 570
f 691 555 706
f 573 709 572
f 572 709 708
f 557 710 574
f 693 710 557
f 574 710 573
f 573 710 709
f 575 700 564
f 576 712 575
f 711 700 575
f 575 712 711
f 702 577 566
f 713 577 702
f 578 714 576
f 576 714 712
f 713 579 577
f 715 579 713
f 580 716 578
f 578 716 714
f 715 581 579
f 581 718 582
f 717 581 715
f 717 718 581
f 719 569 583
f 584 719 583
f 705 569 719
f 720 719 584
f 571 722 586
f 707 722 571
f 586 722 585
f 585 722 721
f 587 716 580
f 588 724 587
f 723 716 587
f 587 724 723
f 718 589 582
f 589 726 590
f 725 589 718
f 725 726 589
f 727 584 591
f 592 727 591
f 720 584 727
f 728 727 592
f 585 730 594
f 721 730 585
f 594 730 593
f 593 730 729
f 595 724 588
f 596 732 595
f 731 724 595
f 595 732 731
f 726 597 590
f 597 734 598
f 733 597 726
f 733 734 597
f 735 592 599
f 600 735 599
f 728 592 735
f 736 735 600
f 593 738 602
f 729 738 593
f 602 738 601
f 601 738 737
f 603 732 596
f 604 740 603
f 739 732 603
f 603 740 739
f 734 605 598
f 605 742 606
f 741 605 734
f 741 742 605
f 607 736 600
f 601 744 608
f 737 744 601
f 743 736 607
f 609 740 604
f 606 746 610
f 742 746 606
f 745 740 609
f 747 607 611
f 612 747 611
f 743 607 747
f 748 747 612
f 608 750 614
f 744 750 608
f 614 750 613
f 613 750 749
f 610 752 609
f 609 752 751
f 751 745 609
f 752 754 751
f 753 745 751
f 751 754 753
f 755 756 610
f 746 755 610
f 610 756 752
f 755 758 756
f 757 755 746
f 757 758 755
f 615 748 612
f 613 760 616
f 749 760 613
f 759 748 615
f 756 762 752
f 752 762 761
f 761 754 752
f 756 764 762
f 758 764 756
f 763 754 761
f 617 759 615
f 616 766 618
f 760 766 616
f 765 759 617
f 762 768 761
f 761 768 767
f 767 763 761
f 762 770 768
f 764 770 762
f 769 763 767
f 619 765 617
f 618 772 620
f 766 772 618
f 771 765 619
f 768 774 767
f 767 774 773
f 773 769 767
f 768 776 774
f 770 776 768
f 775 769 773
f 621 771 619
f 620 778 622
f 772 778 620
f 777 771 621
f 774 780 773
f 773 780 779
f 779 775 773
f 774 782 780
f 776 782 774
f 781 775 779
f 623 777 621
f 622 784 624
f 778 784 622
f 783 777 623
f 780 786 779
f 779 786 785
f 785 781 779
f 780 788 786
f 782 788 780
f 787 781 785
f 625 783 623
f 624 790 626
f 784 790 624
f 789 783 625
f 786 792 785
f 785 792 791
f 791 787 785
f 786 794 792
f 788 794 786
f 793 787 791
f 627 789 625
f 626 796 628
f 790 796 626
f 795 789 627
f 792 798 791
f 791 798 797
f 797 793 791
f 792 800 798
f 794 800 792
f 799 793 797
f 629 795 627
f 630 802 629
f 801 795 629
f 629 802 801
f 796 631 628
f 631 804 632
f 803 631 796
f 803 804 631
f 797 636 805
f 806 797 805
f 805 636 635
f 635 806 805
f 799 797 806
f 807 806 635
f 798 808 797
f 797 808 636
f 798 810 808
f 800 810 798
f 808 810 636
f 636 810 809
f 633 802 630
f 632 812 634
f 804 812 632
f 811 802 633
f 637 807 635
f 636 814 638
f 809 814 636
f 813 807 637
f 639 811 633
f 640 816 639
f 815 811 639
f 639 816 815
f 812 641 634
f 641 818 642
f 817 641 812
f 817 818 641
f 819 637 643
f 644 819 643
f 813 637 819
f 820 819 644
f 638 822 646
f 814 822 638
f 646 822 645
f 645 822 821
f 647 816 640
f 648 824 647
f 823 816 647
f 647 824 823
f 818 649 642
f 649 826 650
f 825 649 818
f 825 826 649
f 827 644 651
f 652 827 651
f 820 644 827
f 828 827 652
f 645 830 654
f 821 830 645
f 654 830 653
f 653 830 829
f 655 824 648
f 656 832 655
f 831 824 655
f 655 832 831
f 826 657 650
f 657 834 658
f 833 657 826
f 833 834 657
f 835 652 659
f 660 835 659
f 828 652 835
f 836 835 660
f 653 838 662
f 829 838 653
f 662 838 661
f 661 838 837
f 663 832 656
f 664 840 663
f 839 832 663
f 663 840 839
f 834 665 658
f 841 665 834
f 666 842 664
f 664 842 840
f 841 667 665
f 843 667 841
f 668 844 666
f 666 844 842
f 843 669 667
f 669 846 670
f 845 669 843
f 845 846 669
f 847 672 671
f 673 847 671
f 848 672 847
f 849 847 673
f 848 674 672
f 850 674 848
f 676 852 675
f 675 852 851
f 850 660 674
f 836 660 850
f 677 853 676
f 676 853 852
f 661 854 678
f 837 854 661
f 678 854 677
f 677 854 853
f 679 844 668
f 680 856 679
f 855 844 679
f 679 856 855
f 846 681 670
f 857 681 846
f 682 858 680
f 680 858 856
f 857 683 681
f 859 683 857
f 684 860 682
f 682 860 858
f 859 685 683
f 861 685 859
f 686 862 684
f 684 862 860
f 861 673 685
f 849 673 861
f 687 863 686
f 686 863 862
f 675 864 688
f 851 864 675
f 688 864 687
f 687 864 863
f 865 690 689
f 691 865 689
f 866 690 865
f 867 865 691
f 867 866 865
f 868 866 867
f 866 692 690
f 869 692 866
f 868 869 866
f 870 869 868
f 869 695 692
f 871 695 869
f 870 871 869
f 872 871 870
f 871 697 695
f 873 697 871
f 872 873 871
f 874 873 872
f 873 699 697
f 875 699 873
f 874 875 873
f 876 875 874
f 875 701 699
f 701 878 702
f 877 701 875
f 877 878 701
f 876 877 875
f 878 877 876
f 879 704 703
f 705 879 703
f 880 704 879
f 881 879 705
f 881 880 879
f 882 880 881
f 880 706 704
f 883 706 880
f 882 883 880
f 884 883 882
f 883 691 706
f 867 691 883
f 884 867 883
f 885 867 884
f 885 868 867
f 886 868 885
f 694 887 693
f 693 887 710
f 887 888 710
f 710 888 886
f 886 870 868
f 888 870 886
f 696 889 694
f 694 889 887
f 889 890 887
f 887 890 888
f 888 872 870
f 890 872 888
f 698 891 696
f 696 891 889
f 891 892 889
f 889 892 890
f 890 874 872
f 892 874 890
f 700 711 698
f 698 711 891
f 711 893 891
f 891 893 892
f 892 876 874
f 893 876 892
f 893 878 876
f 894 878 893
f 878 713 702
f 895 713 878
f 894 895 878
f 896 895 894
f 895 715 713
f 897 715 895
f 896 897 895
f 898 897 896
f 897 717 715
f 717 900 718
f 899 717 897
f 899 900 717
f 898 899 897
f 900 899 898
f 901 705 719
f 720 901 719
f 881 705 901
f 902 901 720
f 902 881 901
f 903 881 902
f 903 882 881
f 904 882 903
f 708 905 707
f 707 905 722
f 904 884 882
f 906 884 904
f 709 907 708
f 708 907 905
f 907 908 905
f 905 908 906
f 906 885 884
f 908 885 906
f 710 909 709
f 709 909 907
f 710 910 909
f 886 910 710
f 909 910 907
f 907 910 908
f 908 886 885
f 910 886 908
f 712 912 711
f 711 912 911
f 911 893 711
f 912 914 911
f 913 893 911
f 911 914 913
f 913 894 893
f 914 894 913
f 714 915 712
f 712 915 912
f 915 916 912
f 912 916 914
f 914 896 894
f 916 896 914
f 716 723 714
f 714 723 915
f 916 898 896
f 917 898 916
f 917 900 898
f 918 900 917
f 900 725 718
f 725 920 726
f 919 725 900
f 919 920 725
f 918 919 900
f 920 919 918
f 921 720 727
f 728 921 727
f 902 720 921
f 922 921 728
f 922 902 921
f 923 902 922
f 923 903 902
f 924 903 923
f 722 925 721
f 721 925 730
f 925 926 730
f 730 926 924
f 924 904 903
f 926 904 924
f 905 927 722
f 722 927 925
f 905 928 927
f 906 928 905
f 927 928 925
f 925 928 926
f 926 906 904
f 928 906 926
f 723 930 915
f 915 930 929
f 929 916 915
f 930 932 929
f 931 916 929
f 929 932 931
f 931 917 916
f 932 917 931
f 724 731 723
f 723 731 930
f 932 918 917
f 933 918 932
f 933 920 918
f 934 920 933
f 920 733 726
f 733 936 734
f 935 733 920
f 935 936 733
f 934 935 920
f 936 935 934
f 937 728 735
f 736 937 735
f 922 728 937
f 938 937 736
f 938 922 937
f 939 922 938
f 939 923 922
f 940 923 939
f 730 941 729
f 729 941 738
f 730 942 941
f 924 942 730
f 940 924 923
f 942 924 940
f 731 944 930
f 930 944 943
f 943 932 930
f 944 946 943
f 945 932 943
f 943 946 945
f 945 933 932
f 946 933 945
f 732 739 731
f 731 739 944
f 946 934 933
f 947 934 946
f 947 936 934
f 948 936 947
f 936 741 734
f 741 950 742
f 949 741 936
f 949 950 741
f 948 949 936
f 950 949 948
f 743 938 736
f 951 938 743
f 951 939 938
f 952 939 951
f 738 953 737
f 737 953 744
f 952 940 939
f 954 940 952
f 941 955 738
f 738 955 953
f 941 956 955
f 942 956 941
f 955 956 953
f 953 956 954
f 954 942 940
f 956 942 954
f 739 958 944
f 944 958 957
f 957 946 944
f 958 960 957
f 959 946 957
f 957 960 959
f 959 947 946
f 960 947 959
f 740 745 739
f 739 745 958
f 960 948 947
f 961 948 960
f 742 962 746
f 950 962 742
f 961 950 948
f 962 950 961
f 963 743 747
f 748 963 747
f 951 743 963
f 964 963 748
f 964 951 963
f 965 951 964
f 965 952 951
f 966 952 965
f 953 967 744
f 744 967 750
f 953 968 967
f 954 968 953
f 967 968 750
f 750 968 966
f 966 954 952
f 968 954 966
f 745 753 958
f 958 753 969
f 969 960 958
f 753 971 969
f 970 960 969
f 969 971 970
f 970 961 960
f 971 961 970
f 971 962 961
f 972 962 971
f 962 757 746
f 757 974 758
f 973 757 962
f 973 974 757
f 972 973 962
f 974 973 972
f 759 964 748
f 975 964 759
f 975 965 964
f 976 965 975
f 750 977 749
f 749 977 760
f 750 978 977
f 966 978 750
f 976 966 965
f 978 966 976
f 754 763 753
f 753 763 979
f 979 971 753
f 980 971 979
f 980 972 971
f 981 972 980
f 758 982 764
f 974 982 758
f 981 974 972
f 982 974 981
f 765 975 759
f 983 975 765
f 983 976 975
f 984 976 983
f 977 985 760
f 760 985 766
f 977 986 985
f 978 986 977
f 984 978 976
f 986 978 984
f 763 769 979
f 979 769 987
f 987 980 979
f 988 980 987
f 988 981 980
f 989 981 988
f 764 990 770
f 982 990 764
f 989 982 981
f 990 982 989
f 771 983 765
f 991 983 771
f 991 984 983
f 992 984 991
f 985 993 766
f 766 993 772
f 985 994 993
f 986 994 985
f 992 986 984
f 994 986 992
f 769 775 987
f 987 775 995
f 995 988 987
f 996 988 995
f 996 989 988
f 997 989 996
f 770 998 776
f 990 998 770
f 997 990 989
f 998 990 997
f 777 991 771
f 999 991 777
f 999 992 991
f 1000 992 999
f 993 1001 772
f 772 1001 778
f 993 1002 1001
f 994 1002 993
f 1000 994 992
f 1002 994 1000
f 775 781 995
f 995 781 1003
f 1003 996 995
f 1004 996 1003
f 1004 997 996
f 1005 997 1004
f 776 1006 782
f 998 1006 776
f 1005 998 997
f 1006 998 1005
f 783 999 777
f 1007 999 783
f 1007 1000 999
f 1008 1000 1007
f 1001 1009 778
f 778 1009 784
f 1001 1010 1009
f 1002 1010 1001
f 1008 1002 1000
f 1010 1002 1008
f 781 787 1003
f 1003 787 1011
f 1011 1004 1003
f 1012 1004 1011
f 1012 1005 1004
f 1013 1005 1012
f 782 1014 788
f 1006 1014 782
f 1013 1006 1005
f 1014 1006 1013
f 789 1007 783
f 1015 1007 789
f 1015 1008 1007
f 1016 1008 1015
f 1009 1017 784
f 784 1017 790
f 1009 1018 1017
f 1010 1018 1009
f 1016 1010 1008
f 1018 1010 1016
f 787 793 1011
f 1011 793 1019
f 1019 1012 1011
f 1020 1012 1019
f 1020 1013 1012
f 1021 1013 1020
f 788 1022 794
f 1014 1022 788
f 1021 1014 1013
f 1022 1014 1021
f 795 1015 789
f 1023 1015 795
f 1023 1016 1015
f 1024 1016 1023
f 1017 803 790
f 790 803 796
f 1017 1025 803
f 1018 1025 1017
f 1024 1018 1016
f 1025 1018 1024
f 793 799 1019
f 1019 799 806
f 806 1020 1019
f 1026 1020 806
f 1026 1021 1020
f 1027 1021 1026
f 794 1028 800
f 1022 1028 794
f 1027 1022 1021
f 1028 1022 1027
f 801 1023 795
f 802 1030 801
f 1029 1023 801
f 801 1030 1029
f 1029 1024 1023
f 1030 1024 1029
f 1030 1025 1024
f 1031 1025 1030
f 1032 1033 803
f 1025 1032 803
f 803 1033 804
f 1032 1035 1033
f 1034 1032 1025
f 1034 1035 1032
f 1031 1034 1025
f 1035 1034 1031
f 806 807 1036
f 1038 806 1036
f 1036 807 1037
f 1037 1038 1036
f 1026 806 1038
f 1039 1038 1037
f 1039 1026 1038
f 1040 1026 1039
f 1040 1027 1026
f 1041 1027 1040
f 800 1042 810
f 1028 1042 800
f 810 1042 809
f 809 1042 1041
f 1041 1028 1027
f 1042 1028 1041
f 811 1030 802
f 1043 1030 811
f 1043 1031 1030
f 1044 1031 1043
f 1033 817 804
f 804 817 812
f 1044 1035 1031
f 1045 1035 1044
f 1046 1047 1033
f 1035 1046 1033
f 1033 1047 817
f 1046 1049 1047
f 1048 1046 1035
f 1048 1049 1046
f 1045 1048 1035
f 1049 1048 1045
f 1037 819 1050
f 1052 1037 1050
f 1050 819 1051
f 1051 1052 1050
f 1039 1037 1052
f 1053 1052 1051
f 1053 1039 1052
f 1054 1039 1053
f 807 813 1037
f 1037 813 819
f 1054 1040 1039
f 1055 1040 1054
f 809 1056 814
f 1041 1056 809
f 1055 1041 1040
f 1056 1041 1055
f 815 1043 811
f 816 1058 815
f 1057 1043 815
f 815 1058 1057
f 1057 1044 1043
f 1058 1044 1057
f 1058 1045 1044
f 1059 1045 1058
f 1047 825 817
f 817 825 818
f 1047 1060 825
f 1049 1060 1047
f 1059 1049 1045
f 1060 1049 1059
f 1051 827 1061
f 1063 1051 1061
f 1061 827 1062
f 1062 1063 1061
f 1053 1051 1063
f 1064 1063 1062
f 1064 1053 1063
f 1065 1053 1064
f 819 820 1051
f 1051 820 827
f 1065 1054 1053
f 1066 1054 1065
f 1066 1055 1054
f 1067 1055 1066
f 814 1068 822
f 1056 1068 814
f 822 1068 821
f 821 1068 1067
f 1067 1056 1055
f 1068 1056 1067
f 823 1058 816
f 824 1070 823
f 1069 1058 823
f 823 1070 1069
f 1069 1059 1058
f 1070 1059 1069
f 1070 1060 1059
f 1071 1060 1070
f 1072 833 825
f 1060 1072 825
f 825 833 826
f 1073 1072 1060
f 1071 1073 1060
f 1074 1073 1071
f 1075 1076 1072
f 1073 1075 1072
f 1072 1076 833
f 1075 1078 1076
f 1077 1075 1073
f 1077 1078 1075
f 1074 1077 1073
f 1078 1077 1074
f 1062 835 1079
f 1081 1062 1079
f 1079 835 1080
f 1080 1081 1079
f 1064 1062 1081
f 1082 1081 1080
f 1082 1064 1081
f 1083 1064 1082
f 827 828 1062
f 1062 828 835
f 1083 1065 1064
f 1084 1065 1083
f 1084 1066 1065
f 1085 1066 1084
f 821 1086 830
f 1067 1086 821
f 830 1086 829
f 829 1086 1085
f 1085 1067 1066
f 1086 1067 1085
f 831 1070 824
f 832 1088 831
f 1087 1070 831
f 831 1088 1087
f 1087 1071 1070
f 1088 1071 1087
f 1088 1074 1071
f 1089 1074 1088
f 1076 841 833
f 833 841 834
f 1089 1078 1074
f 1090 1078 1089
f 1091 843 1076
f 1078 1091 1076
f 1076 843 841
f 1092 1091 1078
f 1090 1092 1078
f 1093 1092 1090
f 1094 845 1091
f 1092 1094 1091
f 1091 845 843
f 1094 1096 845
f 1095 1094 1092
f 1095 1096 1094
f 1093 1095 1092
f 1096 1095 1093
f 1098 848 1097
f 1099 1098 1097
f 1097 848 847
f 847 1099 1097
f 1100 1098 1099
f 1101 1099 847
f 1101 1100 1099
f 1102 1100 1101
f 1080 850 1098
f 1100 1080 1098
f 1098 850 848
f 1082 1080 1100
f 1102 1082 1100
f 1103 1082 1102
f 835 836 1080
f 1080 836 850
f 1103 1083 1082
f 1104 1083 1103
f 1104 1084 1083
f 1105 1084 1104
f 829 1106 838
f 1085 1106 829
f 838 1106 837
f 837 1106 1105
f 1105 1085 1084
f 1106 1085 1105
f 839 1088 832
f 840 1108 839
f 1107 1088 839
f 839 1108 1107
f 1107 1089 1088
f 1108 1089 1107
f 842 1109 840
f 840 1109 1108
f 1108 1090 1089
f 1109 1090 1108
f 844 1110 842
f 842 1110 1109
f 1109 1093 1090
f 1110 1093 1109
f 1110 1096 1093
f 1111 1096 1110
f 1112 857 845
f 1096 1112 845
f 845 857 846
f 1113 1112 1096
f 1111 1113 1096
f 1114 1113 1111
f 1115 859 1112
f 1113 1115 1112
f 1112 859 857
f 1116 1115 1113
f 1114 1116 1113
f 1117 1116 1114
f 1118 861 1115
f 1116 1118 1115
f 1115 861 859
f 1119 1118 1116
f 1117 1119 1116
f 1120 1119 1117
f 847 849 1118
f 1119 847 1118
f 1118 849 861
f 1101 847 1119
f 1120 1101 1119
f 1121 1101 1120
f 1121 1102 1101
f 1122 1102 1121
f 852 1123 851
f 851 1123 1122
f 1122 1103 1102
f 1123 1103 1122
f 853 1124 852
f 852 1124 1123
f 1123 1104 1103
f 1124 1104 1123
f 837 1125 854
f 1105 1125 837
f 854 1125 853
f 853 1125 1124
f 1124 1105 1104
f 1125 1105 1124
f 855 1110 844
f 856 1127 855
f 1126 1110 855
f 855 1127 1126
f 1126 1111 1110
f 1127 1111 1126
f 858 1128 856
f 856 1128 1127
f 1127 1114 1111
f 1128 1114 1127
f 860 1129 858
f 858 1129 1128
f 1128 1117 1114
f 1129 1117 1128
f 862 1130 860
f 860 1130 1129
f 1129 1120 1117
f 1130 1120 1129
f 863 1131 862
f 862 1131 1130
f 1130 1121 1120
f 1131 1121 1130
f 851 1132 864
f 1122 1132 851
f 864 1132 863
f 863 1132 1131
f 1131 1122 1121
f 1132 1122 1131

