# https://github.com/mikedh/trimesh
v 0.23400000 0.24200000 -0.90200000
v 0.23400000 0.24200000 -0.89800000
v 0.23400000 0.24600000 -0.90200000
v 0.23400000 0.24600000 -0.89800000
v 0.23800000 0.24200000 -0.90200000
v 0.23800000 0.24200000 -0.89800000
v 0.23800000 0.24600000 -0.90200000
v 0.23400000 0.24200000 -0.89400000
v 0.23400000 0.24600000 -0.89400000
v 0.23800000 0.24200000 -0.89400000
v 0.23400000 0.24200000 -0.89000000
v 0.23400000 0.24600000 -0.89000000
v 0.23800000 0.24200000 -0.89000000
v 0.23800000 0.24600000 -0.89000000
v 0.23400000 0.25000000 -0.90200000
v 0.23400000 0.25000000 -0.89800000
v 0.23800000 0.25000000 -0.90200000
v 0.23400000 0.25000000 -0.89400000
v 0.23400000 0.25000000 -0.89000000
v 0.23800000 0.25000000 -0.89000000
v 0.23400000 0.25400000 -0.90200000
v 0.23400000 0.25400000 -0.89800000
v 0.23800000 0.25400000 -0.90200000
v 0.23400000 0.25400000 -0.89400000
v 0.23400000 0.25400000 -0.89000000
v 0.23800000 0.25400000 -0.89000000
v 0.23400000 0.25800000 -0.90200000
v 0.23400000 0.25800000 -0.89800000
v 0.23800000 0.25800000 -0.90200000
v 0.23400000 0.25800000 -0.89400000
v 0.23400000 0.25800000 -0.89000000
v 0.23800000 0.25800000 -0.89000000
v 0.23400000 0.26200000 -0.90200000
v 0.23400000 0.26200000 -0.89800000
v 0.23800000 0.26200000 -0.90200000
v 0.23800000 0.26200000 -0.89800000
v 0.23400000 0.26200000 -0.89400000
v 0.23800000 0.26200000 -0.89400000
v 0.23400000 0.26200000 -0.89000000
v 0.23800000 0.26200000 -0.89000000
v 0.23800000 0.23400000 -0.90200000
v 0.23800000 0.23400000 -0.89800000
v 0.23800000 0.23800000 -0.90200000
v 0.23800000 0.23800000 -0.89800000
v 0.24200000 0.23400000 -0.90200000
v 0.24200000 0.23400000 -0.89800000
v 0.24200000 0.23800000 -0.90200000
v 0.23800000 0.23400000 -0.89400000
v 0.23800000 0.23800000 -0.89400000
v 0.24200000 0.23400000 -0.89400000
v 0.23800000 0.23400000 -0.89000000
v 0.23800000 0.23800000 -0.89000000
v 0.24200000 0.23400000 -0.89000000
v 0.24200000 0.23800000 -0.89000000
v 0.24200000 0.24200000 -0.90200000
v 0.24200000 0.24200000 -0.89000000
v 0.24200000 0.24600000 -0.90200000
v 0.24200000 0.24600000 -0.89000000
v 0.24200000 0.25000000 -0.90200000
v 0.24200000 0.25000000 -0.89000000
v 0.24200000 0.25400000 -0.90200000
v 0.24200000 0.25400000 -0.89000000
v 0.24200000 0.25800000 -0.90200000
v 0.24200000 0.25800000 -0.89000000
v 0.24200000 0.26200000 -0.90200000
v 0.24200000 0.26200000 -0.89000000
v 0.23800000 0.26600000 -0.90200000
v 0.23800000 0.26600000 -0.89800000
v 0.24200000 0.26600000 -0.90200000
v 0.23800000 0.26600000 -0.89400000
v 0.23800000 0.26600000 -0.89000000
v 0.24200000 0.26600000 -0.89000000
v 0.23800000 0.27000000 -0.90200000
v 0.23800000 0.27000000 -0.89800000
v 0.24200000 0.27000000 -0.90200000
v 0.24200000 0.27000000 -0.89800000
v 0.23800000 0.27000000 -0.89400000
v 0.24200000 0.27000000 -0.89400000
v 0.23800000 0.27000000 -0.89000000
v 0.24200000 0.27000000 -0.89000000
v 0.24200000 0.23000000 -0.90200000
v 0.24200000 0.23000000 -0.89800000
v 0.24600000 0.23000000 -0.90200000
v 0.24600000 0.23000000 -0.89800000
v 0.24600000 0.23400000 -0.90200000
v 0.24200000 0.23000000 -0.89400000
v 0.24600000 0.23000000 -0.89400000
v 0.24200000 0.23000000 -0.89000000
v 0.24600000 0.23000000 -0.89000000
v 0.24600000 0.23400000 -0.89000000
v 0.24600000 0.23800000 -0.90200000
v 0.24600000 0.23800000 -0.89000000
v 0.24600000 0.24200000 -0.90200000
v 0.24600000 0.24200000 -0.89000000
v 0.24600000 0.24600000 -0.90200000
v 0.24600000 0.24600000 -0.89000000
v 0.24600000 0.25000000 -0.90200000
v 0.24600000 0.25000000 -0.89000000
v 0.24600000 0.25400000 -0.90200000
v 0.24600000 0.25400000 -0.89000000
v 0.24600000 0.25800000 -0.90200000
v 0.24600000 0.25800000 -0.89000000
v 0.24600000 0.26200000 -0.90200000
v 0.24600000 0.26200000 -0.89000000
v 0.24600000 0.26600000 -0.90200000
v 0.24600000 0.26600000 -0.89000000
v 0.24600000 0.27000000 -0.90200000
v 0.24600000 0.27000000 -0.89000000
v 0.24200000 0.27400000 -0.90200000
v 0.24200000 0.27400000 -0.89800000
v 0.24600000 0.27400000 -0.90200000
v 0.24600000 0.27400000 -0.89800000
v 0.24200000 0.27400000 -0.89400000
v 0.24600000 0.27400000 -0.89400000
v 0.24200000 0.27400000 -0.89000000
v 0.24600000 0.27400000 -0.89000000
v 0.24600000 0.22600000 -0.90200000
v 0.24600000 0.22600000 -0.89800000
v 0.25000000 0.22600000 -0.90200000
v 0.25000000 0.22600000 -0.89800000
v 0.25000000 0.23000000 -0.90200000
v 0.24600000 0.22600000 -0.89400000
v 0.25000000 0.22600000 -0.89400000
v 0.24600000 0.22600000 -0.89000000
v 0.25000000 0.22600000 -0.89000000
v 0.25000000 0.23000000 -0.89000000
v 0.25000000 0.23400000 -0.90200000
v 0.25000000 0.23400000 -0.89000000
v 0.25000000 0.23800000 -0.90200000
v 0.25000000 0.23800000 -0.89000000
v 0.25000000 0.24200000 -0.90200000
v 0.25000000 0.24200000 -0.89000000
v 0.25000000 0.24600000 -0.90200000
v 0.24600000 0.24200000 -0.88600000
v 0.24600000 0.24600000 -0.88600000
v 0.25000000 0.24200000 -0.88600000
v 0.24600000 0.24200000 -0.88200000
v 0.24600000 0.24600000 -0.88200000
v 0.25000000 0.24200000 -0.88200000
v 0.24600000 0.24200000 -0.87800000
v 0.24600000 0.24600000 -0.87800000
v 0.25000000 0.24200000 -0.87800000
v 0.24600000 0.24200000 -0.87400000
v 0.24600000 0.24600000 -0.87400000
v 0.25000000 0.24200000 -0.87400000
v 0.24600000 0.24200000 -0.87000000
v 0.24600000 0.24600000 -0.87000000
v 0.25000000 0.24200000 -0.87000000
v 0.24600000 0.24200000 -0.86600000
v 0.24600000 0.24600000 -0.86600000
v 0.25000000 0.24200000 -0.86600000
v 0.24600000 0.24200000 -0.86200000
v 0.24600000 0.24600000 -0.86200000
v 0.25000000 0.24200000 -0.86200000
v 0.24600000 0.24200000 -0.85800000
v 0.24600000 0.24600000 -0.85800000
v 0.25000000 0.24200000 -0.85800000
v 0.24600000 0.24200000 -0.85400000
v 0.24600000 0.24600000 -0.85400000
v 0.25000000 0.24200000 -0.85400000
v 0.24600000 0.24200000 -0.85000000
v 0.24600000 0.24600000 -0.85000000
v 0.25000000 0.24200000 -0.85000000
v 0.25000000 0.24600000 -0.85000000
v 0.25000000 0.25000000 -0.90200000
v 0.24600000 0.25000000 -0.88600000
v 0.24600000 0.25000000 -0.88200000
v 0.24600000 0.25000000 -0.87800000
v 0.24600000 0.25000000 -0.87400000
v 0.24600000 0.25000000 -0.87000000
v 0.24600000 0.25000000 -0.86600000
v 0.24600000 0.25000000 -0.86200000
v 0.24600000 0.25000000 -0.85800000
v 0.24600000 0.25000000 -0.85400000
v 0.24600000 0.25000000 -0.85000000
v 0.25000000 0.25000000 -0.85000000
v 0.25000000 0.25400000 -0.90200000
v 0.24600000 0.25400000 -0.88600000
v 0.24600000 0.25400000 -0.88200000
v 0.24600000 0.25400000 -0.87800000
v 0.24600000 0.25400000 -0.87400000
v 0.24600000 0.25400000 -0.87000000
v 0.24600000 0.25400000 -0.86600000
v 0.24600000 0.25400000 -0.86200000
v 0.24600000 0.25400000 -0.85800000
v 0.24600000 0.25400000 -0.85400000
v 0.24600000 0.25400000 -0.85000000
v 0.25000000 0.25400000 -0.85000000
v 0.25000000 0.25800000 -0.90200000
v 0.24600000 0.25800000 -0.88600000
v 0.24600000 0.25800000 -0.88200000
v 0.24600000 0.25800000 -0.87800000
v 0.24600000 0.25800000 -0.87400000
v 0.24600000 0.25800000 -0.87000000
v 0.24600000 0.25800000 -0.86600000
v 0.24600000 0.25800000 -0.86200000
v 0.24600000 0.25800000 -0.85800000
v 0.24600000 0.25800000 -0.85400000
v 0.24600000 0.25800000 -0.85000000
v 0.25000000 0.25800000 -0.85000000
v 0.25000000 0.26200000 -0.90200000
v 0.24600000 0.26200000 -0.88600000
v 0.24600000 0.26200000 -0.88200000
v 0.24600000 0.26200000 -0.87800000
v 0.24600000 0.26200000 -0.87400000
v 0.24600000 0.26200000 -0.87000000
v 0.24600000 0.26200000 -0.86600000
v 0.24600000 0.26200000 -0.86200000
v 0.24600000 0.26200000 -0.85800000
v 0.24600000 0.26200000 -0.85400000
v 0.24600000 0.26200000 -0.85000000
v 0.25000000 0.26200000 -0.85000000
v 0.25000000 0.26600000 -0.90200000
v 0.24600000 0.26600000 -0.88600000
v 0.25000000 0.26600000 -0.89000000
v 0.25000000 0.26600000 -0.88600000
v 0.24600000 0.26600000 -0.88200000
v 0.25000000 0.26600000 -0.88200000
v 0.24600000 0.26600000 -0.87800000
v 0.25000000 0.26600000 -0.87800000
v 0.24600000 0.26600000 -0.87400000
v 0.25000000 0.26600000 -0.87400000
v 0.24600000 0.26600000 -0.87000000
v 0.25000000 0.26600000 -0.87000000
v 0.24600000 0.26600000 -0.86600000
v 0.25000000 0.26600000 -0.86600000
v 0.24600000 0.26600000 -0.86200000
v 0.25000000 0.26600000 -0.86200000
v 0.24600000 0.26600000 -0.85800000
v 0.25000000 0.26600000 -0.85800000
v 0.24600000 0.26600000 -0.85400000
v 0.25000000 0.26600000 -0.85400000
v 0.24600000 0.26600000 -0.85000000
v 0.25000000 0.26600000 -0.85000000
v 0.25000000 0.27000000 -0.90200000
v 0.25000000 0.27000000 -0.89000000
v 0.25000000 0.27400000 -0.90200000
v 0.25000000 0.27400000 -0.89000000
v 0.24600000 0.27800000 -0.90200000
v 0.24600000 0.27800000 -0.89800000
v 0.25000000 0.27800000 -0.90200000
v 0.25000000 0.27800000 -0.89800000
v 0.24600000 0.27800000 -0.89400000
v 0.25000000 0.27800000 -0.89400000
v 0.24600000 0.27800000 -0.89000000
v 0.25000000 0.27800000 -0.89000000
v 0.25400000 0.22600000 -0.90200000
v 0.25400000 0.22600000 -0.89800000
v 0.25400000 0.23000000 -0.90200000
v 0.25400000 0.22600000 -0.89400000
v 0.25400000 0.22600000 -0.89000000
v 0.25400000 0.23000000 -0.89000000
v 0.25400000 0.23400000 -0.90200000
v 0.25400000 0.23400000 -0.89000000
v 0.25400000 0.23800000 -0.90200000
v 0.25400000 0.23800000 -0.89000000
v 0.25400000 0.24200000 -0.90200000
v 0.25000000 0.23800000 -0.88600000
v 0.25400000 0.23800000 -0.88600000
v 0.25000000 0.23800000 -0.88200000
v 0.25400000 0.23800000 -0.88200000
v 0.25000000 0.23800000 -0.87800000
v 0.25400000 0.23800000 -0.87800000
v 0.25000000 0.23800000 -0.87400000
v 0.25400000 0.23800000 -0.87400000
v 0.25000000 0.23800000 -0.87000000
v 0.25400000 0.23800000 -0.87000000
v 0.25000000 0.23800000 -0.86600000
v 0.25400000 0.23800000 -0.86600000
v 0.25000000 0.23800000 -0.86200000
v 0.25400000 0.23800000 -0.86200000
v 0.25000000 0.23800000 -0.85800000
v 0.25400000 0.23800000 -0.85800000
v 0.25000000 0.23800000 -0.85400000
v 0.25400000 0.23800000 -0.85400000
v 0.25000000 0.23800000 -0.85000000
v 0.25400000 0.23800000 -0.85000000
v 0.25400000 0.24200000 -0.85000000
v 0.25400000 0.24600000 -0.90200000
v 0.25400000 0.24600000 -0.85000000
v 0.25400000 0.25000000 -0.90200000
v 0.25400000 0.25000000 -0.85000000
v 0.25400000 0.25400000 -0.90200000
v 0.25400000 0.25400000 -0.85000000
v 0.25400000 0.25800000 -0.90200000
v 0.25400000 0.25800000 -0.85000000
v 0.25400000 0.26200000 -0.90200000
v 0.25400000 0.26200000 -0.85000000
v 0.25400000 0.26600000 -0.90200000
v 0.25400000 0.26600000 -0.85000000
v 0.25400000 0.27000000 -0.90200000
v 0.25000000 0.27000000 -0.88600000
v 0.25400000 0.27000000 -0.89000000
v 0.25400000 0.27000000 -0.88600000
v 0.25000000 0.27000000 -0.88200000
v 0.25400000 0.27000000 -0.88200000
v 0.25000000 0.27000000 -0.87800000
v 0.25400000 0.27000000 -0.87800000
v 0.25000000 0.27000000 -0.87400000
v 0.25400000 0.27000000 -0.87400000
v 0.25000000 0.27000000 -0.87000000
v 0.25400000 0.27000000 -0.87000000
v 0.25000000 0.27000000 -0.86600000
v 0.25400000 0.27000000 -0.86600000
v 0.25000000 0.27000000 -0.86200000
v 0.25400000 0.27000000 -0.86200000
v 0.25000000 0.27000000 -0.85800000
v 0.25400000 0.27000000 -0.85800000
v 0.25000000 0.27000000 -0.85400000
v 0.25400000 0.27000000 -0.85400000
v 0.25000000 0.27000000 -0.85000000
v 0.25400000 0.27000000 -0.85000000
v 0.25400000 0.27400000 -0.90200000
v 0.25400000 0.27400000 -0.89000000
v 0.25400000 0.27800000 -0.90200000
v 0.25400000 0.27800000 -0.89800000
v 0.25400000 0.27800000 -0.89400000
v 0.25400000 0.27800000 -0.89000000
v 0.25400000 0.22200000 -0.90200000
v 0.25400000 0.22200000 -0.89800000
v 0.25800000 0.22200000 -0.90200000
v 0.25800000 0.22200000 -0.89800000
v 0.25800000 0.22600000 -0.90200000
v 0.25400000 0.22200000 -0.89400000
v 0.25800000 0.22200000 -0.89400000
v 0.25400000 0.22200000 -0.89000000
v 0.25800000 0.22200000 -0.89000000
v 0.25800000 0.22600000 -0.89000000
v 0.25800000 0.23000000 -0.90200000
v 0.25800000 0.23000000 -0.89000000
v 0.25800000 0.23400000 -0.90200000
v 0.25800000 0.23400000 -0.89000000
v 0.25800000 0.23800000 -0.90200000
v 0.25400000 0.23400000 -0.88600000
v 0.25800000 0.23400000 -0.88600000
v 0.25400000 0.23400000 -0.88200000
v 0.25800000 0.23400000 -0.88200000
v 0.25400000 0.23400000 -0.87800000
v 0.25800000 0.23400000 -0.87800000
v 0.25400000 0.23400000 -0.87400000
v 0.25800000 0.23400000 -0.87400000
v 0.25400000 0.23400000 -0.87000000
v 0.25800000 0.23400000 -0.87000000
v 0.25400000 0.23400000 -0.86600000
v 0.25800000 0.23400000 -0.86600000
v 0.25400000 0.23400000 -0.86200000
v 0.25800000 0.23400000 -0.86200000
v 0.25400000 0.23400000 -0.85800000
v 0.25800000 0.23400000 -0.85800000
v 0.25400000 0.23400000 -0.85400000
v 0.25800000 0.23400000 -0.85400000
v 0.25400000 0.23400000 -0.85000000
v 0.25800000 0.23400000 -0.85000000
v 0.25800000 0.23800000 -0.85000000
v 0.25800000 0.24200000 -0.90200000
v 0.25800000 0.24200000 -0.85000000
v 0.25800000 0.24600000 -0.90200000
v 0.25800000 0.24600000 -0.85000000
v 0.25800000 0.25000000 -0.90200000
v 0.25800000 0.25000000 -0.85000000
v 0.25800000 0.25400000 -0.90200000
v 0.25800000 0.25400000 -0.85000000
v 0.25800000 0.25800000 -0.90200000
v 0.25800000 0.25800000 -0.85000000
v 0.25800000 0.26200000 -0.90200000
v 0.25800000 0.26200000 -0.85000000
v 0.25800000 0.26600000 -0.90200000
v 0.25800000 0.26600000 -0.85000000
v 0.25800000 0.27000000 -0.90200000
v 0.25800000 0.27000000 -0.89000000
v 0.25800000 0.27000000 -0.88600000
v 0.25800000 0.27000000 -0.88200000
v 0.25800000 0.27000000 -0.87800000
v 0.25800000 0.27000000 -0.87400000
v 0.25800000 0.27000000 -0.87000000
v 0.25800000 0.27000000 -0.86600000
v 0.25800000 0.27000000 -0.86200000
v 0.25800000 0.27000000 -0.85800000
v 0.25800000 0.27000000 -0.85400000
v 0.25800000 0.27000000 -0.85000000
v 0.25800000 0.27400000 -0.90200000
v 0.25800000 0.27400000 -0.89000000
v 0.25800000 0.27800000 -0.90200000
v 0.25800000 0.27800000 -0.89000000
v 0.25400000 0.28200000 -0.90200000
v 0.25400000 0.28200000 -0.89800000
v 0.25800000 0.28200000 -0.90200000
v 0.25800000 0.28200000 -0.89800000
v 0.25400000 0.28200000 -0.89400000
v 0.25800000 0.28200000 -0.89400000
v 0.25400000 0.28200000 -0.89000000
v 0.25800000 0.28200000 -0.89000000
v 0.26200000 0.22200000 -0.90200000
v 0.26200000 0.22200000 -0.89800000
v 0.26200000 0.22600000 -0.90200000
v 0.26200000 0.22200000 -0.89400000
v 0.26200000 0.22200000 -0.89000000
v 0.26200000 0.22600000 -0.89000000
v 0.26200000 0.23000000 -0.90200000
v 0.26200000 0.23000000 -0.89000000
v 0.26200000 0.23400000 -0.90200000
v 0.26200000 0.23400000 -0.89000000
v 0.26200000 0.23800000 -0.90200000
v 0.26200000 0.23400000 -0.88600000
v 0.26200000 0.23400000 -0.88200000
v 0.26200000 0.23400000 -0.87800000
v 0.26200000 0.23400000 -0.87400000
v 0.26200000 0.23400000 -0.87000000
v 0.26200000 0.23400000 -0.86600000
v 0.26200000 0.23400000 -0.86200000
v 0.26200000 0.23400000 -0.85800000
v 0.26200000 0.23400000 -0.85400000
v 0.26200000 0.23400000 -0.85000000
v 0.26200000 0.23800000 -0.85000000
v 0.26200000 0.24200000 -0.90200000
v 0.26200000 0.24200000 -0.85000000
v 0.26200000 0.24600000 -0.90200000
v 0.26200000 0.24600000 -0.85000000
v 0.26200000 0.25000000 -0.90200000
v 0.26200000 0.25000000 -0.85000000
v 0.26200000 0.25400000 -0.90200000
v 0.26200000 0.25400000 -0.85000000
v 0.26200000 0.25800000 -0.90200000
v 0.26200000 0.25800000 -0.85000000
v 0.26200000 0.26200000 -0.90200000
v 0.26200000 0.26200000 -0.85000000
v 0.26200000 0.26600000 -0.90200000
v 0.26200000 0.26600000 -0.85000000
v 0.26200000 0.27000000 -0.90200000
v 0.26200000 0.27000000 -0.85000000
v 0.26200000 0.27400000 -0.90200000
v 0.25800000 0.27400000 -0.88600000
v 0.26200000 0.27400000 -0.89000000
v 0.26200000 0.27400000 -0.88600000
v 0.25800000 0.27400000 -0.88200000
v 0.26200000 0.27400000 -0.88200000
v 0.25800000 0.27400000 -0.87800000
v 0.26200000 0.27400000 -0.87800000
v 0.25800000 0.27400000 -0.87400000
v 0.26200000 0.27400000 -0.87400000
v 0.25800000 0.27400000 -0.87000000
v 0.26200000 0.27400000 -0.87000000
v 0.25800000 0.27400000 -0.86600000
v 0.26200000 0.27400000 -0.86600000
v 0.25800000 0.27400000 -0.86200000
v 0.26200000 0.27400000 -0.86200000
v 0.25800000 0.27400000 -0.85800000
v 0.26200000 0.27400000 -0.85800000
v 0.25800000 0.27400000 -0.85400000
v 0.26200000 0.27400000 -0.85400000
v 0.25800000 0.27400000 -0.85000000
v 0.26200000 0.27400000 -0.85000000
v 0.26200000 0.27800000 -0.90200000
v 0.26200000 0.27800000 -0.89000000
v 0.26200000 0.28200000 -0.90200000
v 0.26200000 0.28200000 -0.89800000
v 0.26200000 0.28200000 -0.89400000
v 0.26200000 0.28200000 -0.89000000
v 0.26600000 0.22200000 -0.90200000
v 0.26600000 0.22200000 -0.89800000
v 0.26600000 0.22600000 -0.90200000
v 0.26600000 0.22200000 -0.89400000
v 0.26600000 0.22200000 -0.89000000
v 0.26600000 0.22600000 -0.89000000
v 0.26600000 0.23000000 -0.90200000
v 0.26600000 0.23000000 -0.89000000
v 0.26600000 0.23400000 -0.90200000
v 0.26200000 0.23000000 -0.88600000
v 0.26600000 0.23000000 -0.88600000
v 0.26200000 0.23000000 -0.88200000
v 0.26600000 0.23000000 -0.88200000
v 0.26200000 0.23000000 -0.87800000
v 0.26600000 0.23000000 -0.87800000
v 0.26200000 0.23000000 -0.87400000
v 0.26600000 0.23000000 -0.87400000
v 0.26200000 0.23000000 -0.87000000
v 0.26600000 0.23000000 -0.87000000
v 0.26200000 0.23000000 -0.86600000
v 0.26600000 0.23000000 -0.86600000
v 0.26200000 0.23000000 -0.86200000
v 0.26600000 0.23000000 -0.86200000
v 0.26200000 0.23000000 -0.85800000
v 0.26600000 0.23000000 -0.85800000
v 0.26200000 0.23000000 -0.85400000
v 0.26600000 0.23000000 -0.85400000
v 0.26200000 0.23000000 -0.85000000
v 0.26600000 0.23000000 -0.85000000
v 0.26600000 0.23400000 -0.85000000
v 0.26600000 0.23800000 -0.90200000
v 0.26600000 0.23800000 -0.85000000
v 0.26600000 0.24200000 -0.90200000
v 0.26600000 0.24200000 -0.85000000
v 0.26600000 0.24600000 -0.90200000
v 0.26600000 0.24600000 -0.85000000
v 0.26600000 0.25000000 -0.90200000
v 0.26600000 0.25000000 -0.85000000
v 0.26600000 0.25400000 -0.90200000
v 0.26600000 0.25400000 -0.85000000
v 0.26600000 0.25800000 -0.90200000
v 0.26600000 0.25800000 -0.85000000
v 0.26600000 0.26200000 -0.90200000
v 0.26600000 0.26200000 -0.85000000
v 0.26600000 0.26600000 -0.90200000
v 0.26600000 0.26600000 -0.85000000
v 0.26600000 0.27000000 -0.90200000
v 0.26600000 0.27000000 -0.85000000
v 0.26600000 0.27400000 -0.90200000
v 0.26600000 0.27400000 -0.89000000
v 0.26600000 0.27400000 -0.88600000
v 0.26600000 0.27400000 -0.88200000
v 0.26600000 0.27400000 -0.87800000
v 0.26600000 0.27400000 -0.87400000
v 0.26600000 0.27400000 -0.87000000
v 0.26600000 0.27400000 -0.86600000
v 0.26600000 0.27400000 -0.86200000
v 0.26600000 0.27400000 -0.85800000
v 0.26600000 0.27400000 -0.85400000
v 0.26600000 0.27400000 -0.85000000
v 0.26600000 0.27800000 -0.90200000
v 0.26600000 0.27800000 -0.89000000
v 0.26600000 0.28200000 -0.90200000
v 0.26600000 0.28200000 -0.89800000
v 0.26600000 0.28200000 -0.89400000
v 0.26600000 0.28200000 -0.89000000
v 0.27000000 0.22200000 -0.90200000
v 0.27000000 0.22200000 -0.89800000
v 0.27000000 0.22600000 -0.90200000
v 0.27000000 0.22200000 -0.89400000
v 0.27000000 0.22200000 -0.89000000
v 0.27000000 0.22600000 -0.89000000
v 0.27000000 0.23000000 -0.90200000
v 0.27000000 0.23000000 -0.89000000
v 0.27000000 0.23400000 -0.90200000
v 0.27000000 0.23000000 -0.88600000
v 0.27000000 0.23000000 -0.88200000
v 0.27000000 0.23000000 -0.87800000
v 0.27000000 0.23000000 -0.87400000
v 0.27000000 0.23000000 -0.87000000
v 0.27000000 0.23000000 -0.86600000
v 0.27000000 0.23000000 -0.86200000
v 0.27000000 0.23000000 -0.85800000
v 0.27000000 0.23000000 -0.85400000
v 0.27000000 0.23000000 -0.85000000
v 0.27000000 0.23400000 -0.85000000
v 0.27000000 0.23800000 -0.90200000
v 0.27000000 0.23800000 -0.85000000
v 0.27000000 0.24200000 -0.90200000
v 0.27000000 0.24200000 -0.85000000
v 0.27000000 0.24600000 -0.90200000
v 0.27000000 0.24600000 -0.85000000
v 0.27000000 0.25000000 -0.90200000
v 0.27000000 0.25000000 -0.85000000
v 0.27000000 0.25400000 -0.90200000
v 0.27000000 0.25400000 -0.85000000
v 0.27000000 0.25800000 -0.90200000
v 0.27000000 0.25800000 -0.85000000
v 0.27000000 0.26200000 -0.90200000
v 0.27000000 0.26200000 -0.85000000
v 0.27000000 0.26600000 -0.90200000
v 0.27000000 0.26600000 -0.85000000
v 0.27000000 0.27000000 -0.90200000
v 0.27000000 0.27000000 -0.85000000
v 0.27000000 0.27400000 -0.90200000
v 0.27000000 0.27400000 -0.89000000
v 0.27000000 0.27400000 -0.88600000
v 0.27000000 0.27400000 -0.88200000
v 0.27000000 0.27400000 -0.87800000
v 0.27000000 0.27400000 -0.87400000
v 0.27000000 0.27400000 -0.87000000
v 0.27000000 0.27400000 -0.86600000
v 0.27000000 0.27400000 -0.86200000
v 0.27000000 0.27400000 -0.85800000
v 0.27000000 0.27400000 -0.85400000
v 0.27000000 0.27400000 -0.85000000
v 0.27000000 0.27800000 -0.90200000
v 0.27000000 0.27800000 -0.89000000
v 0.27000000 0.28200000 -0.90200000
v 0.27000000 0.28200000 -0.89800000
v 0.27000000 0.28200000 -0.89400000
v 0.27000000 0.28200000 -0.89000000
v 0.27400000 0.22200000 -0.90200000
v 0.27400000 0.22200000 -0.89800000
v 0.27400000 0.22600000 -0.90200000
v 0.27400000 0.22200000 -0.89400000
v 0.27400000 0.22200000 -0.89000000
v 0.27400000 0.22600000 -0.89000000
v 0.27400000 0.23000000 -0.90200000
v 0.27400000 0.23000000 -0.89000000
v 0.27400000 0.23400000 -0.90200000
v 0.27400000 0.23000000 -0.88600000
v 0.27400000 0.23400000 -0.89000000
v 0.27400000 0.23400000 -0.88600000
v 0.27400000 0.23000000 -0.88200000
v 0.27400000 0.23400000 -0.88200000
v 0.27400000 0.23000000 -0.87800000
v 0.27400000 0.23400000 -0.87800000
v 0.27400000 0.23000000 -0.87400000
v 0.27400000 0.23400000 -0.87400000
v 0.27400000 0.23000000 -0.87000000
v 0.27400000 0.23400000 -0.87000000
v 0.27400000 0.23000000 -0.86600000
v 0.27400000 0.23400000 -0.86600000
v 0.27400000 0.23000000 -0.86200000
v 0.27400000 0.23400000 -0.86200000
v 0.27400000 0.23000000 -0.85800000
v 0.27400000 0.23400000 -0.85800000
v 0.27400000 0.23000000 -0.85400000
v 0.27400000 0.23400000 -0.85400000
v 0.27400000 0.23000000 -0.85000000
v 0.27400000 0.23400000 -0.85000000
v 0.27400000 0.23800000 -0.90200000
v 0.27400000 0.23800000 -0.85000000
v 0.27400000 0.24200000 -0.90200000
v 0.27400000 0.24200000 -0.85000000
v 0.27400000 0.24600000 -0.90200000
v 0.27400000 0.24600000 -0.85000000
v 0.27400000 0.25000000 -0.90200000
v 0.27400000 0.25000000 -0.85000000
v 0.27400000 0.25400000 -0.90200000
v 0.27400000 0.25400000 -0.85000000
v 0.27400000 0.25800000 -0.90200000
v 0.27400000 0.25800000 -0.85000000
v 0.27400000 0.26200000 -0.90200000
v 0.27400000 0.26200000 -0.85000000
v 0.27400000 0.26600000 -0.90200000
v 0.27400000 0.26600000 -0.85000000
v 0.27400000 0.27000000 -0.90200000
v 0.27400000 0.27000000 -0.85000000
v 0.27400000 0.27400000 -0.90200000
v 0.27400000 0.27000000 -0.89000000
v 0.27400000 0.27000000 -0.88600000
v 0.27400000 0.27400000 -0.89000000
v 0.27400000 0.27400000 -0.88600000
v 0.27400000 0.27000000 -0.88200000
v 0.27400000 0.27400000 -0.88200000
v 0.27400000 0.27000000 -0.87800000
v 0.27400000 0.27400000 -0.87800000
v 0.27400000 0.27000000 -0.87400000
v 0.27400000 0.27400000 -0.87400000
v 0.27400000 0.27000000 -0.87000000
v 0.27400000 0.27400000 -0.87000000
v 0.27400000 0.27000000 -0.86600000
v 0.27400000 0.27400000 -0.86600000
v 0.27400000 0.27000000 -0.86200000
v 0.27400000 0.27400000 -0.86200000
v 0.27400000 0.27000000 -0.85800000
v 0.27400000 0.27400000 -0.85800000
v 0.27400000 0.27000000 -0.85400000
v 0.27400000 0.27400000 -0.85400000
v 0.27400000 0.27400000 -0.85000000
v 0.27400000 0.27800000 -0.90200000
v 0.27400000 0.27800000 -0.89000000
v 0.27400000 0.28200000 -0.90200000
v 0.27400000 0.28200000 -0.89800000
v 0.27400000 0.28200000 -0.89400000
v 0.27400000 0.28200000 -0.89000000
v 0.27800000 0.22200000 -0.90200000
v 0.27800000 0.22200000 -0.89800000
v 0.27800000 0.22600000 -0.90200000
v 0.27800000 0.22600000 -0.89800000
v 0.27800000 0.22200000 -0.89400000
v 0.27800000 0.22600000 -0.89400000
v 0.27800000 0.22200000 -0.89000000
v 0.27800000 0.22600000 -0.89000000
v 0.27800000 0.23000000 -0.90200000
v 0.27800000 0.23000000 -0.89000000
v 0.27800000 0.23400000 -0.90200000
v 0.27800000 0.23400000 -0.89000000
v 0.27800000 0.23800000 -0.90200000
v 0.27800000 0.23400000 -0.88600000
v 0.27800000 0.23400000 -0.88200000
v 0.27800000 0.23400000 -0.87800000
v 0.27800000 0.23400000 -0.87400000
v 0.27800000 0.23400000 -0.87000000
v 0.27800000 0.23400000 -0.86600000
v 0.27800000 0.23400000 -0.86200000
v 0.27800000 0.23400000 -0.85800000
v 0.27800000 0.23400000 -0.85400000
v 0.27800000 0.23400000 -0.85000000
v 0.27800000 0.23800000 -0.85000000
v 0.27800000 0.24200000 -0.90200000
v 0.27800000 0.24200000 -0.85000000
v 0.27800000 0.24600000 -0.90200000
v 0.27800000 0.24600000 -0.85000000
v 0.27800000 0.25000000 -0.90200000
v 0.27800000 0.25000000 -0.85000000
v 0.27800000 0.25400000 -0.90200000
v 0.27800000 0.25400000 -0.85000000
v 0.27800000 0.25800000 -0.90200000
v 0.27800000 0.25800000 -0.85000000
v 0.27800000 0.26200000 -0.90200000
v 0.27800000 0.26200000 -0.85000000
v 0.27800000 0.26600000 -0.90200000
v 0.27800000 0.26600000 -0.85000000
v 0.27800000 0.27000000 -0.90200000
v 0.27800000 0.27000000 -0.89000000
v 0.27800000 0.27000000 -0.88600000
v 0.27800000 0.27000000 -0.88200000
v 0.27800000 0.27000000 -0.87800000
v 0.27800000 0.27000000 -0.87400000
v 0.27800000 0.27000000 -0.87000000
v 0.27800000 0.27000000 -0.86600000
v 0.27800000 0.27000000 -0.86200000
v 0.27800000 0.27000000 -0.85800000
v 0.27800000 0.27000000 -0.85400000
v 0.27800000 0.27000000 -0.85000000
v 0.27800000 0.27400000 -0.90200000
v 0.27800000 0.27400000 -0.89000000
v 0.27800000 0.27800000 -0.90200000
v 0.27800000 0.27800000 -0.89000000
v 0.27800000 0.27800000 -0.89800000
v 0.27800000 0.28200000 -0.90200000
v 0.27800000 0.28200000 -0.89800000
v 0.27800000 0.27800000 -0.89400000
v 0.27800000 0.28200000 -0.89400000
v 0.27800000 0.28200000 -0.89000000
v 0.28200000 0.22600000 -0.90200000
v 0.28200000 0.22600000 -0.89800000
v 0.28200000 0.23000000 -0.90200000
v 0.28200000 0.22600000 -0.89400000
v 0.28200000 0.22600000 -0.89000000
v 0.28200000 0.23000000 -0.89000000
v 0.28200000 0.23400000 -0.90200000
v 0.28200000 0.23400000 -0.89000000
v 0.28200000 0.23800000 -0.90200000
v 0.28200000 0.23400000 -0.88600000
v 0.28200000 0.23800000 -0.89000000
v 0.28200000 0.23800000 -0.88600000
v 0.28200000 0.23400000 -0.88200000
v 0.28200000 0.23800000 -0.88200000
v 0.28200000 0.23400000 -0.87800000
v 0.28200000 0.23800000 -0.87800000
v 0.28200000 0.23400000 -0.87400000
v 0.28200000 0.23800000 -0.87400000
v 0.28200000 0.23400000 -0.87000000
v 0.28200000 0.23800000 -0.87000000
v 0.28200000 0.23400000 -0.86600000
v 0.28200000 0.23800000 -0.86600000
v 0.28200000 0.23400000 -0.86200000
v 0.28200000 0.23800000 -0.86200000
v 0.28200000 0.23400000 -0.85800000
v 0.28200000 0.23800000 -0.85800000
v 0.28200000 0.23400000 -0.85400000
v 0.28200000 0.23800000 -0.85400000
v 0.28200000 0.23400000 -0.85000000
v 0.28200000 0.23800000 -0.85000000
v 0.28200000 0.24200000 -0.90200000
v 0.28200000 0.24200000 -0.85000000
v 0.28200000 0.24600000 -0.90200000
v 0.28200000 0.24600000 -0.85000000
v 0.28200000 0.25000000 -0.90200000
v 0.28200000 0.25000000 -0.85000000
v 0.28200000 0.25400000 -0.90200000
v 0.28200000 0.25400000 -0.85000000
v 0.28200000 0.25800000 -0.90200000
v 0.28200000 0.25800000 -0.85000000
v 0.28200000 0.26200000 -0.90200000
v 0.28200000 0.26200000 -0.85000000
v 0.28200000 0.26600000 -0.90200000
v 0.28200000 0.26600000 -0.85000000
v 0.28200000 0.27000000 -0.90200000
v 0.28200000 0.26600000 -0.89000000
v 0.28200000 0.26600000 -0.88600000
v 0.28200000 0.27000000 -0.89000000
v 0.28200000 0.27000000 -0.88600000
v 0.28200000 0.26600000 -0.88200000
v 0.28200000 0.27000000 -0.88200000
v 0.28200000 0.26600000 -0.87800000
v 0.28200000 0.27000000 -0.87800000
v 0.28200000 0.26600000 -0.87400000
v 0.28200000 0.27000000 -0.87400000
v 0.28200000 0.26600000 -0.87000000
v 0.28200000 0.27000000 -0.87000000
v 0.28200000 0.26600000 -0.86600000
v 0.28200000 0.27000000 -0.86600000
v 0.28200000 0.26600000 -0.86200000
v 0.28200000 0.27000000 -0.86200000
v 0.28200000 0.26600000 -0.85800000
v 0.28200000 0.27000000 -0.85800000
v 0.28200000 0.26600000 -0.85400000
v 0.28200000 0.27000000 -0.85400000
v 0.28200000 0.27000000 -0.85000000
v 0.28200000 0.27400000 -0.90200000
v 0.28200000 0.27400000 -0.89000000
v 0.28200000 0.27800000 -0.90200000
v 0.28200000 0.27800000 -0.89800000
v 0.28200000 0.27800000 -0.89400000
v 0.28200000 0.27800000 -0.89000000
v 0.28600000 0.22600000 -0.90200000
v 0.28600000 0.22600000 -0.89800000
v 0.28600000 0.23000000 -0.90200000
v 0.28600000 0.23000000 -0.89800000
v 0.28600000 0.22600000 -0.89400000
v 0.28600000 0.23000000 -0.89400000
v 0.28600000 0.22600000 -0.89000000
v 0.28600000 0.23000000 -0.89000000
v 0.28600000 0.23400000 -0.90200000
v 0.28600000 0.23400000 -0.89000000
v 0.28600000 0.23800000 -0.90200000
v 0.28600000 0.23800000 -0.89000000
v 0.28600000 0.24200000 -0.90200000
v 0.28600000 0.23800000 -0.88600000
v 0.28600000 0.24200000 -0.89000000
v 0.28600000 0.24200000 -0.88600000
v 0.28600000 0.23800000 -0.88200000
v 0.28600000 0.24200000 -0.88200000
v 0.28600000 0.23800000 -0.87800000
v 0.28600000 0.24200000 -0.87800000
v 0.28600000 0.23800000 -0.87400000
v 0.28600000 0.24200000 -0.87400000
v 0.28600000 0.23800000 -0.87000000
v 0.28600000 0.24200000 -0.87000000
v 0.28600000 0.23800000 -0.86600000
v 0.28600000 0.24200000 -0.86600000
v 0.28600000 0.23800000 -0.86200000
v 0.28600000 0.24200000 -0.86200000
v 0.28600000 0.23800000 -0.85800000
v 0.28600000 0.24200000 -0.85800000
v 0.28600000 0.23800000 -0.85400000
v 0.28600000 0.24200000 -0.85400000
v 0.28600000 0.23800000 -0.85000000
v 0.28600000 0.24200000 -0.85000000
v 0.28600000 0.24600000 -0.90200000
v 0.28600000 0.24600000 -0.85000000
v 0.28600000 0.25000000 -0.90200000
v 0.28600000 0.25000000 -0.85000000
v 0.28600000 0.25400000 -0.90200000
v 0.28600000 0.25400000 -0.85000000
v 0.28600000 0.25800000 -0.90200000
v 0.28600000 0.25800000 -0.85000000
v 0.28600000 0.26200000 -0.90200000
v 0.28600000 0.26200000 -0.85000000
v 0.28600000 0.26600000 -0.90200000
v 0.28600000 0.26200000 -0.89000000
v 0.28600000 0.26200000 -0.88600000
v 0.28600000 0.26600000 -0.89000000
v 0.28600000 0.26600000 -0.88600000
v 0.28600000 0.26200000 -0.88200000
v 0.28600000 0.26600000 -0.88200000
v 0.28600000 0.26200000 -0.87800000
v 0.28600000 0.26600000 -0.87800000
v 0.28600000 0.26200000 -0.87400000
v 0.28600000 0.26600000 -0.87400000
v 0.28600000 0.26200000 -0.87000000
v 0.28600000 0.26600000 -0.87000000
v 0.28600000 0.26200000 -0.86600000
v 0.28600000 0.26600000 -0.86600000
v 0.28600000 0.26200000 -0.86200000
v 0.28600000 0.26600000 -0.86200000
v 0.28600000 0.26200000 -0.85800000
v 0.28600000 0.26600000 -0.85800000
v 0.28600000 0.26200000 -0.85400000
v 0.28600000 0.26600000 -0.85400000
v 0.28600000 0.26600000 -0.85000000
v 0.28600000 0.27000000 -0.90200000
v 0.28600000 0.27000000 -0.89000000
v 0.28600000 0.27400000 -0.90200000
v 0.28600000 0.27400000 -0.89000000
v 0.28600000 0.27400000 -0.89800000
v 0.28600000 0.27800000 -0.90200000
v 0.28600000 0.27800000 -0.89800000
v 0.28600000 0.27400000 -0.89400000
v 0.28600000 0.27800000 -0.89400000
v 0.28600000 0.27800000 -0.89000000
v 0.29000000 0.23000000 -0.90200000
v 0.29000000 0.23000000 -0.89800000
v 0.29000000 0.23400000 -0.90200000
v 0.29000000 0.23000000 -0.89400000
v 0.29000000 0.23400000 -0.89800000
v 0.29000000 0.23400000 -0.89400000
v 0.29000000 0.23000000 -0.89000000
v 0.29000000 0.23400000 -0.89000000
v 0.29000000 0.23800000 -0.90200000
v 0.29000000 0.23800000 -0.89000000
v 0.29000000 0.24200000 -0.90200000
v 0.29000000 0.24200000 -0.89000000
v 0.29000000 0.24600000 -0.90200000
v 0.29000000 0.24200000 -0.88600000
v 0.29000000 0.24600000 -0.89000000
v 0.29000000 0.24600000 -0.88600000
v 0.29000000 0.24200000 -0.88200000
v 0.29000000 0.24600000 -0.88200000
v 0.29000000 0.24200000 -0.87800000
v 0.29000000 0.24600000 -0.87800000
v 0.29000000 0.24200000 -0.87400000
v 0.29000000 0.24600000 -0.87400000
v 0.29000000 0.24200000 -0.87000000
v 0.29000000 0.24600000 -0.87000000
v 0.29000000 0.24200000 -0.86600000
v 0.29000000 0.24600000 -0.86600000
v 0.29000000 0.24200000 -0.86200000
v 0.29000000 0.24600000 -0.86200000
v 0.29000000 0.24200000 -0.85800000
v 0.29000000 0.24600000 -0.85800000
v 0.29000000 0.24200000 -0.85400000
v 0.29000000 0.24600000 -0.85400000
v 0.29000000 0.24200000 -0.85000000
v 0.29000000 0.24600000 -0.85000000
v 0.29000000 0.25000000 -0.90200000
v 0.29000000 0.25000000 -0.89000000
v 0.29000000 0.25000000 -0.88600000
v 0.29000000 0.25000000 -0.88200000
v 0.29000000 0.25000000 -0.87800000
v 0.29000000 0.25000000 -0.87400000
v 0.29000000 0.25000000 -0.87000000
v 0.29000000 0.25000000 -0.86600000
v 0.29000000 0.25000000 -0.86200000
v 0.29000000 0.25000000 -0.85800000
v 0.29000000 0.25000000 -0.85400000
v 0.29000000 0.25000000 -0.85000000
v 0.29000000 0.25400000 -0.90200000
v 0.29000000 0.25400000 -0.89000000
v 0.29000000 0.25400000 -0.88600000
v 0.29000000 0.25400000 -0.88200000
v 0.29000000 0.25400000 -0.87800000
v 0.29000000 0.25400000 -0.87400000
v 0.29000000 0.25400000 -0.87000000
v 0.29000000 0.25400000 -0.86600000
v 0.29000000 0.25400000 -0.86200000
v 0.29000000 0.25400000 -0.85800000
v 0.29000000 0.25400000 -0.85400000
v 0.29000000 0.25400000 -0.85000000
v 0.29000000 0.25800000 -0.90200000
v 0.29000000 0.25800000 -0.89000000
v 0.29000000 0.25800000 -0.88600000
v 0.29000000 0.25800000 -0.88200000
v 0.29000000 0.25800000 -0.87800000
v 0.29000000 0.25800000 -0.87400000
v 0.29000000 0.25800000 -0.87000000
v 0.29000000 0.25800000 -0.86600000
v 0.29000000 0.25800000 -0.86200000
v 0.29000000 0.25800000 -0.85800000
v 0.29000000 0.25800000 -0.85400000
v 0.29000000 0.25800000 -0.85000000
v 0.29000000 0.26200000 -0.90200000
v 0.29000000 0.26200000 -0.89000000
v 0.29000000 0.26200000 -0.88600000
v 0.29000000 0.26200000 -0.88200000
v 0.29000000 0.26200000 -0.87800000
v 0.29000000 0.26200000 -0.87400000
v 0.29000000 0.26200000 -0.87000000
v 0.29000000 0.26200000 -0.86600000
v 0.29000000 0.26200000 -0.86200000
v 0.29000000 0.26200000 -0.85800000
v 0.29000000 0.26200000 -0.85400000
v 0.29000000 0.26200000 -0.85000000
v 0.29000000 0.26600000 -0.90200000
v 0.29000000 0.26600000 -0.89000000
v 0.29000000 0.27000000 -0.90200000
v 0.29000000 0.27000000 -0.89000000
v 0.29000000 0.27400000 -0.90200000
v 0.29000000 0.27400000 -0.89800000
v 0.29000000 0.27400000 -0.89400000
v 0.29000000 0.27400000 -0.89000000
v 0.29400000 0.23000000 -0.90200000
v 0.29400000 0.23000000 -0.89800000
v 0.29400000 0.23400000 -0.90200000
v 0.29400000 0.23400000 -0.89800000
v 0.29400000 0.23000000 -0.89400000
v 0.29400000 0.23000000 -0.89000000
v 0.29400000 0.23400000 -0.89400000
v 0.29400000 0.23400000 -0.89000000
v 0.29400000 0.23800000 -0.90200000
v 0.29400000 0.23800000 -0.89800000
v 0.29400000 0.23800000 -0.89400000
v 0.29400000 0.23800000 -0.89000000
v 0.29400000 0.24200000 -0.90200000
v 0.29400000 0.24200000 -0.89000000
v 0.29400000 0.24600000 -0.90200000
v 0.29400000 0.24600000 -0.89000000
v 0.29400000 0.25000000 -0.90200000
v 0.29400000 0.25000000 -0.89000000
v 0.29400000 0.25400000 -0.90200000
v 0.29400000 0.25400000 -0.89000000
v 0.29400000 0.25800000 -0.90200000
v 0.29400000 0.25800000 -0.89000000
v 0.29400000 0.26200000 -0.90200000
v 0.29400000 0.26200000 -0.89000000
v 0.29400000 0.26600000 -0.90200000
v 0.29400000 0.26600000 -0.89000000
v 0.29400000 0.26600000 -0.89800000
v 0.29400000 0.27000000 -0.90200000
v 0.29400000 0.27000000 -0.89800000
v 0.29400000 0.26600000 -0.89400000
v 0.29400000 0.27000000 -0.89400000
v 0.29400000 0.27000000 -0.89000000
v 0.29400000 0.27400000 -0.90200000
v 0.29400000 0.27400000 -0.89800000
v 0.29400000 0.27400000 -0.89400000
v 0.29400000 0.27400000 -0.89000000
v 0.29800000 0.23800000 -0.90200000
v 0.29800000 0.23800000 -0.89800000
v 0.29800000 0.24200000 -0.90200000
v 0.29800000 0.24200000 -0.89800000
v 0.29800000 0.23800000 -0.89400000
v 0.29800000 0.24200000 -0.89400000
v 0.29800000 0.23800000 -0.89000000
v 0.29800000 0.24200000 -0.89000000
v 0.29800000 0.24600000 -0.90200000
v 0.29800000 0.24600000 -0.89800000
v 0.29800000 0.24600000 -0.89400000
v 0.29800000 0.24600000 -0.89000000
v 0.29800000 0.25000000 -0.90200000
v 0.29800000 0.25000000 -0.89800000
v 0.29800000 0.25000000 -0.89400000
v 0.29800000 0.25000000 -0.89000000
v 0.29800000 0.25400000 -0.90200000
v 0.29800000 0.25400000 -0.89800000
v 0.29800000 0.25400000 -0.89400000
v 0.29800000 0.25400000 -0.89000000
v 0.29800000 0.25800000 -0.90200000
v 0.29800000 0.25800000 -0.89800000
v 0.29800000 0.25800000 -0.89400000
v 0.29800000 0.25800000 -0.89000000
v 0.29800000 0.26200000 -0.90200000
v 0.29800000 0.26200000 -0.89800000
v 0.29800000 0.26200000 -0.89400000
v 0.29800000 0.26200000 -0.89000000
v 0.29800000 0.26600000 -0.90200000
v 0.29800000 0.26600000 -0.89800000
v 0.29800000 0.26600000 -0.89400000
v 0.29800000 0.26600000 -0.89000000
f 2 4 1
f 5 2 1
f 1 4 3
f 3 5 1
f 6 2 5
f 7 5 3
f 8 9 2
f 6 8 2
f 2 9 4
f 10 8 6
f 11 12 8
f 10 11 8
f 8 12 9
f 11 14 12
f 13 11 10
f 13 14 11
f 4 16 3
f 3 16 15
f 15 7 3
f 17 7 15
f 9 18 4
f 4 18 16
f 12 19 9
f 9 19 18
f 12 20 19
f 14 20 12
f 16 22 15
f 15 22 21
f 21 17 15
f 23 17 21
f 18 24 16
f 16 24 22
f 19 25 18
f 18 25 24
f 19 26 25
f 20 26 19
f 22 28 21
f 21 28 27
f 27 23 21
f 29 23 27
f 24 30 22
f 22 30 28
f 25 31 24
f 24 31 30
f 25 32 31
f 26 32 25
f 28 34 27
f 27 34 33
f 33 29 27
f 34 36 33
f 35 29 33
f 33 36 35
f 30 37 28
f 28 37 34
f 37 38 34
f 34 38 36
f 31 39 30
f 30 39 37
f 31 40 39
f 32 40 31
f 39 40 37
f 37 40 38
f 42 44 41
f 45 42 41
f 41 44 43
f 43 45 41
f 46 42 45
f 47 45 43
f 48 49 42
f 46 48 42
f 42 49 44
f 50 48 46
f 51 52 48
f 50 51 48
f 48 52 49
f 51 54 52
f 53 51 50
f 53 54 51
f 44 6 43
f 43 6 5
f 5 47 43
f 55 47 5
f 49 10 44
f 44 10 6
f 52 13 49
f 49 13 10
f 52 56 13
f 54 56 52
f 7 55 5
f 57 55 7
f 13 58 14
f 56 58 13
f 17 57 7
f 59 57 17
f 14 60 20
f 58 60 14
f 23 59 17
f 61 59 23
f 20 62 26
f 60 62 20
f 29 61 23
f 63 61 29
f 26 64 32
f 62 64 26
f 35 63 29
f 65 63 35
f 32 66 40
f 64 66 32
f 36 68 35
f 35 68 67
f 67 65 35
f 69 65 67
f 38 70 36
f 36 70 68
f 40 71 38
f 38 71 70
f 40 72 71
f 66 72 40
f 68 74 67
f 67 74 73
f 73 69 67
f 74 76 73
f 75 69 73
f 73 76 75
f 70 77 68
f 68 77 74
f 77 78 74
f 74 78 76
f 71 79 70
f 70 79 77
f 71 80 79
f 72 80 71
f 79 80 77
f 77 80 78
f 82 46 81
f 83 82 81
f 81 46 45
f 45 83 81
f 84 82 83
f 85 83 45
f 86 50 82
f 84 86 82
f 82 50 46
f 87 86 84
f 88 53 86
f 87 88 86
f 86 53 50
f 88 90 53
f 89 88 87
f 89 90 88
f 47 85 45
f 91 85 47
f 53 92 54
f 90 92 53
f 55 91 47
f 93 91 55
f 54 94 56
f 92 94 54
f 57 93 55
f 95 93 57
f 56 96 58
f 94 96 56
f 59 95 57
f 97 95 59
f 58 98 60
f 96 98 58
f 61 97 59
f 99 97 61
f 60 100 62
f 98 100 60
f 63 99 61
f 101 99 63
f 62 102 64
f 100 102 62
f 65 101 63
f 103 101 65
f 64 104 66
f 102 104 64
f 69 103 65
f 105 103 69
f 66 106 72
f 104 106 66
f 75 105 69
f 107 105 75
f 72 108 80
f 106 108 72
f 76 110 75
f 75 110 109
f 109 107 75
f 110 112 109
f 111 107 109
f 109 112 111
f 78 113 76
f 76 113 110
f 113 114 110
f 110 114 112
f 80 115 78
f 78 115 113
f 80 116 115
f 108 116 80
f 115 116 113
f 113 116 114
f 118 84 117
f 119 118 117
f 117 84 83
f 83 119 117
f 120 118 119
f 121 119 83
f 122 87 118
f 120 122 118
f 118 87 84
f 123 122 120
f 124 89 122
f 123 124 122
f 122 89 87
f 124 126 89
f 125 124 123
f 125 126 124
f 85 121 83
f 127 121 85
f 89 128 90
f 126 128 89
f 91 127 85
f 129 127 91
f 90 130 92
f 128 130 90
f 93 129 91
f 131 129 93
f 92 132 94
f 130 132 92
f 95 131 93
f 133 131 95
f 134 135 94
f 132 134 94
f 94 135 96
f 136 134 132
f 137 138 134
f 136 137 134
f 134 138 135
f 139 137 136
f 140 141 137
f 139 140 137
f 137 141 138
f 142 140 139
f 143 144 140
f 142 143 140
f 140 144 141
f 145 143 142
f 146 147 143
f 145 146 143
f 143 147 144
f 148 146 145
f 149 150 146
f 148 149 146
f 146 150 147
f 151 149 148
f 152 153 149
f 151 152 149
f 149 153 150
f 154 152 151
f 155 156 152
f 154 155 152
f 152 156 153
f 157 155 154
f 158 159 155
f 157 158 155
f 155 159 156
f 160 158 157
f 161 162 158
f 160 161 158
f 158 162 159
f 161 164 162
f 163 161 160
f 163 164 161
f 97 133 95
f 165 133 97
f 135 166 96
f 96 166 98
f 138 167 135
f 135 167 166
f 141 168 138
f 138 168 167
f 144 169 141
f 141 169 168
f 147 170 144
f 144 170 169
f 150 171 147
f 147 171 170
f 153 172 150
f 150 172 171
f 156 173 153
f 153 173 172
f 159 174 156
f 156 174 173
f 162 175 159
f 159 175 174
f 162 176 175
f 164 176 162
f 99 165 97
f 177 165 99
f 166 178 98
f 98 178 100
f 167 179 166
f 166 179 178
f 168 180 167
f 167 180 179
f 169 181 168
f 168 181 180
f 170 182 169
f 169 182 181
f 171 183 170
f 170 183 182
f 172 184 171
f 171 184 183
f 173 185 172
f 172 185 184
f 174 186 173
f 173 186 185
f 175 187 174
f 174 187 186
f 175 188 187
f 176 188 175
f 101 177 99
f 189 177 101
f 178 190 100
f 100 190 102
f 179 191 178
f 178 191 190
f 180 192 179
f 179 192 191
f 181 193 180
f 180 193 192
f 182 194 181
f 181 194 193
f 183 195 182
f 182 195 194
f 184 196 183
f 183 196 195
f 185 197 184
f 184 197 196
f 186 198 185
f 185 198 197
f 187 199 186
f 186 199 198
f 187 200 199
f 188 200 187
f 103 189 101
f 201 189 103
f 190 202 102
f 102 202 104
f 191 203 190
f 190 203 202
f 192 204 191
f 191 204 203
f 193 205 192
f 192 205 204
f 194 206 193
f 193 206 205
f 195 207 194
f 194 207 206
f 196 208 195
f 195 208 207
f 197 209 196
f 196 209 208
f 198 210 197
f 197 210 209
f 199 211 198
f 198 211 210
f 199 212 211
f 200 212 199
f 105 201 103
f 213 201 105
f 202 214 104
f 104 214 106
f 214 216 106
f 106 216 215
f 203 217 202
f 202 217 214
f 217 218 214
f 214 218 216
f 204 219 203
f 203 219 217
f 219 220 217
f 217 220 218
f 205 221 204
f 204 221 219
f 221 222 219
f 219 222 220
f 206 223 205
f 205 223 221
f 223 224 221
f 221 224 222
f 207 225 206
f 206 225 223
f 225 226 223
f 223 226 224
f 208 227 207
f 207 227 225
f 227 228 225
f 225 228 226
f 209 229 208
f 208 229 227
f 229 230 227
f 227 230 228
f 210 231 209
f 209 231 229
f 231 232 229
f 229 232 230
f 211 233 210
f 210 233 231
f 211 234 233
f 212 234 211
f 233 234 231
f 231 234 232
f 107 213 105
f 235 213 107
f 106 236 108
f 215 236 106
f 111 235 107
f 237 235 111
f 108 238 116
f 236 238 108
f 112 240 111
f 111 240 239
f 239 237 111
f 240 242 239
f 241 237 239
f 239 242 241
f 114 243 112
f 112 243 240
f 243 244 240
f 240 244 242
f 116 245 114
f 114 245 243
f 116 246 245
f 238 246 116
f 245 246 243
f 243 246 244
f 247 120 119
f 121 247 119
f 248 120 247
f 249 247 121
f 248 123 120
f 250 123 248
f 250 125 123
f 125 252 126
f 251 125 250
f 251 252 125
f 127 249 121
f 253 249 127
f 126 254 128
f 252 254 126
f 129 253 127
f 255 253 129
f 128 256 130
f 254 256 128
f 131 255 129
f 257 255 131
f 258 136 130
f 256 258 130
f 130 136 132
f 259 258 256
f 260 139 258
f 259 260 258
f 258 139 136
f 261 260 259
f 262 142 260
f 261 262 260
f 260 142 139
f 263 262 261
f 264 145 262
f 263 264 262
f 262 145 142
f 265 264 263
f 266 148 264
f 265 266 264
f 264 148 145
f 267 266 265
f 268 151 266
f 267 268 266
f 266 151 148
f 269 268 267
f 270 154 268
f 269 270 268
f 268 154 151
f 271 270 269
f 272 157 270
f 271 272 270
f 270 157 154
f 273 272 271
f 274 160 272
f 273 274 272
f 272 160 157
f 275 274 273
f 276 163 274
f 275 276 274
f 274 163 160
f 276 278 163
f 277 276 275
f 277 278 276
f 133 257 131
f 279 257 133
f 163 280 164
f 278 280 163
f 165 279 133
f 281 279 165
f 164 282 176
f 280 282 164
f 177 281 165
f 283 281 177
f 176 284 188
f 282 284 176
f 189 283 177
f 285 283 189
f 188 286 200
f 284 286 188
f 201 285 189
f 287 285 201
f 200 288 212
f 286 288 200
f 213 287 201
f 289 287 213
f 212 290 234
f 288 290 212
f 235 289 213
f 291 289 235
f 216 292 215
f 215 292 236
f 292 294 236
f 236 294 293
f 218 295 216
f 216 295 292
f 295 296 292
f 292 296 294
f 220 297 218
f 218 297 295
f 297 298 295
f 295 298 296
f 222 299 220
f 220 299 297
f 299 300 297
f 297 300 298
f 224 301 222
f 222 301 299
f 301 302 299
f 299 302 300
f 226 303 224
f 224 303 301
f 303 304 301
f 301 304 302
f 228 305 226
f 226 305 303
f 305 306 303
f 303 306 304
f 230 307 228
f 228 307 305
f 307 308 305
f 305 308 306
f 232 309 230
f 230 309 307
f 309 310 307
f 307 310 308
f 234 311 232
f 232 311 309
f 234 312 311
f 290 312 234
f 311 312 309
f 309 312 310
f 237 291 235
f 313 291 237
f 236 314 238
f 293 314 236
f 241 313 237
f 242 316 241
f 315 313 241
f 241 316 315
f 244 317 242
f 242 317 316
f 238 318 246
f 314 318 238
f 246 318 244
f 244 318 317
f 320 248 319
f 321 320 319
f 319 248 247
f 247 321 319
f 322 320 321
f 323 321 247
f 324 250 320
f 322 324 320
f 320 250 248
f 325 324 322
f 326 251 324
f 325 326 324
f 324 251 250
f 326 328 251
f 327 326 325
f 327 328 326
f 249 323 247
f 329 323 249
f 251 330 252
f 328 330 251
f 253 329 249
f 331 329 253
f 252 332 254
f 330 332 252
f 255 331 253
f 333 331 255
f 334 259 254
f 332 334 254
f 254 259 256
f 335 334 332
f 336 261 334
f 335 336 334
f 334 261 259
f 337 336 335
f 338 263 336
f 337 338 336
f 336 263 261
f 339 338 337
f 340 265 338
f 339 340 338
f 338 265 263
f 341 340 339
f 342 267 340
f 341 342 340
f 340 267 265
f 343 342 341
f 344 269 342
f 343 344 342
f 342 269 267
f 345 344 343
f 346 271 344
f 345 346 344
f 344 271 269
f 347 346 345
f 348 273 346
f 347 348 346
f 346 273 271
f 349 348 347
f 350 275 348
f 349 350 348
f 348 275 273
f 351 350 349
f 352 277 350
f 351 352 350
f 350 277 275
f 352 354 277
f 353 352 351
f 353 354 352
f 257 333 255
f 355 333 257
f 277 356 278
f 354 356 277
f 279 355 257
f 357 355 279
f 278 358 280
f 356 358 278
f 281 357 279
f 359 357 281
f 280 360 282
f 358 360 280
f 283 359 281
f 361 359 283
f 282 362 284
f 360 362 282
f 285 361 283
f 363 361 285
f 284 364 286
f 362 364 284
f 287 363 285
f 365 363 287
f 286 366 288
f 364 366 286
f 289 365 287
f 367 365 289
f 288 368 290
f 366 368 288
f 291 367 289
f 369 367 291
f 294 371 293
f 293 371 370
f 296 372 294
f 294 372 371
f 298 373 296
f 296 373 372
f 300 374 298
f 298 374 373
f 302 375 300
f 300 375 374
f 304 376 302
f 302 376 375
f 306 377 304
f 304 377 376
f 308 378 306
f 306 378 377
f 310 379 308
f 308 379 378
f 290 380 312
f 368 380 290
f 312 380 310
f 310 380 379
f 313 369 291
f 381 369 313
f 293 382 314
f 370 382 293
f 315 381 313
f 383 381 315
f 314 384 318
f 382 384 314
f 316 386 315
f 315 386 385
f 385 383 315
f 386 388 385
f 387 383 385
f 385 388 387
f 317 389 316
f 316 389 386
f 389 390 386
f 386 390 388
f 318 391 317
f 317 391 389
f 318 392 391
f 384 392 318
f 391 392 389
f 389 392 390
f 393 322 321
f 323 393 321
f 394 322 393
f 395 393 323
f 394 325 322
f 396 325 394
f 396 327 325
f 327 398 328
f 397 327 396
f 397 398 327
f 329 395 323
f 399 395 329
f 328 400 330
f 398 400 328
f 331 399 329
f 401 399 331
f 330 402 332
f 400 402 330
f 333 401 331
f 403 401 333
f 402 335 332
f 404 335 402
f 404 337 335
f 405 337 404
f 405 339 337
f 406 339 405
f 406 341 339
f 407 341 406
f 407 343 341
f 408 343 407
f 408 345 343
f 409 345 408
f 409 347 345
f 410 347 409
f 410 349 347
f 411 349 410
f 411 351 349
f 412 351 411
f 412 353 351
f 353 414 354
f 413 353 412
f 413 414 353
f 355 403 333
f 415 403 355
f 354 416 356
f 414 416 354
f 357 415 355
f 417 415 357
f 356 418 358
f 416 418 356
f 359 417 357
f 419 417 359
f 358 420 360
f 418 420 358
f 361 419 359
f 421 419 361
f 360 422 362
f 420 422 360
f 363 421 361
f 423 421 363
f 362 424 364
f 422 424 362
f 365 423 363
f 425 423 365
f 364 426 366
f 424 426 364
f 367 425 365
f 427 425 367
f 366 428 368
f 426 428 366
f 369 427 367
f 429 427 369
f 368 430 380
f 428 430 368
f 381 429 369
f 431 429 381
f 371 432 370
f 370 432 382
f 432 434 382
f 382 434 433
f 372 435 371
f 371 435 432
f 435 436 432
f 432 436 434
f 373 437 372
f 372 437 435
f 437 438 435
f 435 438 436
f 374 439 373
f 373 439 437
f 439 440 437
f 437 440 438
f 375 441 374
f 374 441 439
f 441 442 439
f 439 442 440
f 376 443 375
f 375 443 441
f 443 444 441
f 441 444 442
f 377 445 376
f 376 445 443
f 445 446 443
f 443 446 444
f 378 447 377
f 377 447 445
f 447 448 445
f 445 448 446
f 379 449 378
f 378 449 447
f 449 450 447
f 447 450 448
f 380 451 379
f 379 451 449
f 380 452 451
f 430 452 380
f 451 452 449
f 449 452 450
f 383 431 381
f 453 431 383
f 382 454 384
f 433 454 382
f 387 453 383
f 388 456 387
f 455 453 387
f 387 456 455
f 390 457 388
f 388 457 456
f 384 458 392
f 454 458 384
f 392 458 390
f 390 458 457
f 459 394 393
f 395 459 393
f 460 394 459
f 461 459 395
f 460 396 394
f 462 396 460
f 462 397 396
f 397 464 398
f 463 397 462
f 463 464 397
f 399 461 395
f 465 461 399
f 398 466 400
f 464 466 398
f 401 465 399
f 467 465 401
f 468 404 400
f 466 468 400
f 400 404 402
f 469 468 466
f 470 405 468
f 469 470 468
f 468 405 404
f 471 470 469
f 472 406 470
f 471 472 470
f 470 406 405
f 473 472 471
f 474 407 472
f 473 474 472
f 472 407 406
f 475 474 473
f 476 408 474
f 475 476 474
f 474 408 407
f 477 476 475
f 478 409 476
f 477 478 476
f 476 409 408
f 479 478 477
f 480 410 478
f 479 480 478
f 478 410 409
f 481 480 479
f 482 411 480
f 481 482 480
f 480 411 410
f 483 482 481
f 484 412 482
f 483 484 482
f 482 412 411
f 485 484 483
f 486 413 484
f 485 486 484
f 484 413 412
f 486 488 413
f 487 486 485
f 487 488 486
f 403 467 401
f 489 467 403
f 413 490 414
f 488 490 413
f 415 489 403
f 491 489 415
f 414 492 416
f 490 492 414
f 417 491 415
f 493 491 417
f 416 494 418
f 492 494 416
f 419 493 417
f 495 493 419
f 418 496 420
f 494 496 418
f 421 495 419
f 497 495 421
f 420 498 422
f 496 498 420
f 423 497 421
f 499 497 423
f 422 500 424
f 498 500 422
f 425 499 423
f 501 499 425
f 424 502 426
f 500 502 424
f 427 501 425
f 503 501 427
f 426 504 428
f 502 504 426
f 429 503 427
f 505 503 429
f 428 506 430
f 504 506 428
f 431 505 429
f 507 505 431
f 434 509 433
f 433 509 508
f 436 510 434
f 434 510 509
f 438 511 436
f 436 511 510
f 440 512 438
f 438 512 511
f 442 513 440
f 440 513 512
f 444 514 442
f 442 514 513
f 446 515 444
f 444 515 514
f 448 516 446
f 446 516 515
f 450 517 448
f 448 517 516
f 430 518 452
f 506 518 430
f 452 518 450
f 450 518 517
f 453 507 431
f 519 507 453
f 433 520 454
f 508 520 433
f 455 519 453
f 456 522 455
f 521 519 455
f 455 522 521
f 457 523 456
f 456 523 522
f 454 524 458
f 520 524 454
f 458 524 457
f 457 524 523
f 525 460 459
f 461 525 459
f 526 460 525
f 527 525 461
f 526 462 460
f 528 462 526
f 528 463 462
f 463 530 464
f 529 463 528
f 529 530 463
f 465 527 461
f 531 527 465
f 464 532 466
f 530 532 464
f 467 531 465
f 533 531 467
f 532 469 466
f 534 469 532
f 534 471 469
f 535 471 534
f 535 473 471
f 536 473 535
f 536 475 473
f 537 475 536
f 537 477 475
f 538 477 537
f 538 479 477
f 539 479 538
f 539 481 479
f 540 481 539
f 540 483 481
f 541 483 540
f 541 485 483
f 542 485 541
f 542 487 485
f 487 544 488
f 543 487 542
f 543 544 487
f 489 533 467
f 545 533 489
f 488 546 490
f 544 546 488
f 491 545 489
f 547 545 491
f 490 548 492
f 546 548 490
f 493 547 491
f 549 547 493
f 492 550 494
f 548 550 492
f 495 549 493
f 551 549 495
f 494 552 496
f 550 552 494
f 497 551 495
f 553 551 497
f 496 554 498
f 552 554 496
f 499 553 497
f 555 553 499
f 498 556 500
f 554 556 498
f 501 555 499
f 557 555 501
f 500 558 502
f 556 558 500
f 503 557 501
f 559 557 503
f 502 560 504
f 558 560 502
f 505 559 503
f 561 559 505
f 504 562 506
f 560 562 504
f 507 561 505
f 563 561 507
f 509 565 508
f 508 565 564
f 510 566 509
f 509 566 565
f 511 567 510
f 510 567 566
f 512 568 511
f 511 568 567
f 513 569 512
f 512 569 568
f 514 570 513
f 513 570 569
f 515 571 514
f 514 571 570
f 516 572 515
f 515 572 571
f 517 573 516
f 516 573 572
f 506 574 518
f 562 574 506
f 518 574 517
f 517 574 573
f 519 563 507
f 575 563 519
f 508 576 520
f 564 576 508
f 521 575 519
f 522 578 521
f 577 575 521
f 521 578 577
f 523 579 522
f 522 579 578
f 520 580 524
f 576 580 520
f 524 580 523
f 523 580 579
f 581 526 525
f 527 581 525
f 582 526 581
f 583 581 527
f 582 528 526
f 584 528 582
f 584 529 528
f 529 586 530
f 585 529 584
f 585 586 529
f 531 583 527
f 587 583 531
f 530 588 532
f 586 588 530
f 533 587 531
f 589 587 533
f 588 534 532
f 590 534 588
f 591 590 588
f 592 590 591
f 590 535 534
f 593 535 590
f 592 593 590
f 594 593 592
f 593 536 535
f 595 536 593
f 594 595 593
f 596 595 594
f 595 537 536
f 597 537 595
f 596 597 595
f 598 597 596
f 597 538 537
f 599 538 597
f 598 599 597
f 600 599 598
f 599 539 538
f 601 539 599
f 600 601 599
f 602 601 600
f 601 540 539
f 603 540 601
f 602 603 601
f 604 603 602
f 603 541 540
f 605 541 603
f 604 605 603
f 606 605 604
f 605 542 541
f 607 542 605
f 606 607 605
f 608 607 606
f 607 543 542
f 543 610 544
f 609 543 607
f 609 610 543
f 608 609 607
f 610 609 608
f 545 589 533
f 611 589 545
f 544 612 546
f 610 612 544
f 547 611 545
f 613 611 547
f 546 614 548
f 612 614 546
f 549 613 547
f 615 613 549
f 548 616 550
f 614 616 548
f 551 615 549
f 617 615 551
f 550 618 552
f 616 618 550
f 553 617 551
f 619 617 553
f 552 620 554
f 618 620 552
f 555 619 553
f 621 619 555
f 554 622 556
f 620 622 554
f 557 621 555
f 623 621 557
f 556 624 558
f 622 624 556
f 559 623 557
f 625 623 559
f 558 626 560
f 624 626 558
f 561 625 559
f 627 625 561
f 560 628 562
f 626 628 560
f 563 627 561
f 629 627 563
f 565 633 564
f 564 633 632
f 632 631 630
f 633 631 632
f 566 635 565
f 565 635 633
f 633 634 631
f 635 634 633
f 567 637 566
f 566 637 635
f 635 636 634
f 637 636 635
f 568 639 567
f 567 639 637
f 637 638 636
f 639 638 637
f 569 641 568
f 568 641 639
f 639 640 638
f 641 640 639
f 570 643 569
f 569 643 641
f 641 642 640
f 643 642 641
f 571 645 570
f 570 645 643
f 643 644 642
f 645 644 643
f 572 647 571
f 571 647 645
f 645 646 644
f 647 646 645
f 573 649 572
f 572 649 647
f 647 648 646
f 649 648 647
f 562 650 574
f 628 650 562
f 574 650 573
f 573 650 649
f 649 628 648
f 650 628 649
f 575 629 563
f 651 629 575
f 564 652 576
f 632 652 564
f 577 651 575
f 578 654 577
f 653 651 577
f 577 654 653
f 579 655 578
f 578 655 654
f 576 656 580
f 652 656 576
f 580 656 579
f 579 656 655
f 657 582 581
f 583 657 581
f 658 582 657
f 659 657 583
f 659 658 657
f 660 658 659
f 658 584 582
f 661 584 658
f 660 661 658
f 662 661 660
f 661 585 584
f 585 664 586
f 663 585 661
f 663 664 585
f 662 663 661
f 664 663 662
f 587 659 583
f 665 659 587
f 586 666 588
f 664 666 586
f 589 665 587
f 667 665 589
f 588 668 591
f 666 668 588
f 611 667 589
f 669 667 611
f 668 592 591
f 670 592 668
f 670 594 592
f 671 594 670
f 671 596 594
f 672 596 671
f 672 598 596
f 673 598 672
f 673 600 598
f 674 600 673
f 674 602 600
f 675 602 674
f 675 604 602
f 676 604 675
f 676 606 604
f 677 606 676
f 677 608 606
f 678 608 677
f 678 610 608
f 610 680 612
f 679 610 678
f 679 680 610
f 613 669 611
f 681 669 613
f 612 682 614
f 680 682 612
f 615 681 613
f 683 681 615
f 614 684 616
f 682 684 614
f 617 683 615
f 685 683 617
f 616 686 618
f 684 686 616
f 619 685 617
f 687 685 619
f 618 688 620
f 686 688 618
f 621 687 619
f 689 687 621
f 620 690 622
f 688 690 620
f 623 689 621
f 691 689 623
f 622 692 624
f 690 692 622
f 625 691 623
f 693 691 625
f 624 694 626
f 692 694 624
f 627 693 625
f 695 693 627
f 631 697 630
f 630 697 696
f 634 698 631
f 631 698 697
f 636 699 634
f 634 699 698
f 638 700 636
f 636 700 699
f 640 701 638
f 638 701 700
f 642 702 640
f 640 702 701
f 644 703 642
f 642 703 702
f 646 704 644
f 644 704 703
f 648 705 646
f 646 705 704
f 626 706 628
f 694 706 626
f 628 706 648
f 648 706 705
f 629 695 627
f 707 695 629
f 630 708 632
f 696 708 630
f 651 707 629
f 709 707 651
f 632 710 652
f 708 710 632
f 653 709 651
f 654 713 653
f 712 709 653
f 653 713 712
f 712 711 709
f 713 711 712
f 655 715 654
f 654 715 713
f 713 714 711
f 715 714 713
f 652 716 656
f 710 716 652
f 656 716 655
f 655 716 715
f 715 710 714
f 716 710 715
f 717 660 659
f 665 717 659
f 718 660 717
f 719 717 665
f 718 662 660
f 720 662 718
f 720 664 662
f 664 722 666
f 721 664 720
f 721 722 664
f 667 719 665
f 723 719 667
f 666 724 668
f 722 724 666
f 669 723 667
f 725 723 669
f 724 670 668
f 726 670 724
f 727 726 724
f 728 726 727
f 726 671 670
f 729 671 726
f 728 729 726
f 730 729 728
f 729 672 671
f 731 672 729
f 730 731 729
f 732 731 730
f 731 673 672
f 733 673 731
f 732 733 731
f 734 733 732
f 733 674 673
f 735 674 733
f 734 735 733
f 736 735 734
f 735 675 674
f 737 675 735
f 736 737 735
f 738 737 736
f 737 676 675
f 739 676 737
f 738 739 737
f 740 739 738
f 739 677 676
f 741 677 739
f 740 741 739
f 742 741 740
f 741 678 677
f 743 678 741
f 742 743 741
f 744 743 742
f 743 679 678
f 679 746 680
f 745 679 743
f 745 746 679
f 744 745 743
f 746 745 744
f 681 725 669
f 747 725 681
f 680 748 682
f 746 748 680
f 683 747 681
f 749 747 683
f 682 750 684
f 748 750 682
f 685 749 683
f 751 749 685
f 684 752 686
f 750 752 684
f 687 751 685
f 753 751 687
f 686 754 688
f 752 754 686
f 689 753 687
f 755 753 689
f 688 756 690
f 754 756 688
f 691 755 689
f 757 755 691
f 690 758 692
f 756 758 690
f 693 757 691
f 759 757 693
f 692 760 694
f 758 760 692
f 695 759 693
f 761 759 695
f 697 765 696
f 696 765 764
f 764 763 762
f 765 763 764
f 698 767 697
f 697 767 765
f 765 766 763
f 767 766 765
f 699 769 698
f 698 769 767
f 767 768 766
f 769 768 767
f 700 771 699
f 699 771 769
f 769 770 768
f 771 770 769
f 701 773 700
f 700 773 771
f 771 772 770
f 773 772 771
f 702 775 701
f 701 775 773
f 773 774 772
f 775 774 773
f 703 777 702
f 702 777 775
f 775 776 774
f 777 776 775
f 704 779 703
f 703 779 777
f 777 778 776
f 779 778 777
f 705 781 704
f 704 781 779
f 779 780 778
f 781 780 779
f 694 782 706
f 760 782 694
f 706 782 705
f 705 782 781
f 781 760 780
f 782 760 781
f 707 761 695
f 783 761 707
f 696 784 708
f 764 784 696
f 709 783 707
f 711 786 709
f 785 783 709
f 709 786 785
f 714 787 711
f 711 787 786
f 708 788 710
f 784 788 708
f 710 788 714
f 714 788 787
f 789 718 717
f 719 789 717
f 790 718 789
f 791 789 719
f 791 790 789
f 792 790 791
f 790 720 718
f 793 720 790
f 792 793 790
f 794 793 792
f 793 721 720
f 721 796 722
f 795 721 793
f 795 796 721
f 794 795 793
f 796 795 794
f 723 791 719
f 797 791 723
f 722 798 724
f 796 798 722
f 725 797 723
f 799 797 725
f 724 800 727
f 798 800 724
f 747 799 725
f 801 799 747
f 800 728 727
f 802 728 800
f 803 802 800
f 804 802 803
f 802 730 728
f 805 730 802
f 804 805 802
f 806 805 804
f 805 732 730
f 807 732 805
f 806 807 805
f 808 807 806
f 807 734 732
f 809 734 807
f 808 809 807
f 810 809 808
f 809 736 734
f 811 736 809
f 810 811 809
f 812 811 810
f 811 738 736
f 813 738 811
f 812 813 811
f 814 813 812
f 813 740 738
f 815 740 813
f 814 815 813
f 816 815 814
f 815 742 740
f 817 742 815
f 816 817 815
f 818 817 816
f 817 744 742
f 819 744 817
f 818 819 817
f 820 819 818
f 819 746 744
f 746 822 748
f 821 746 819
f 821 822 746
f 820 821 819
f 822 821 820
f 749 801 747
f 823 801 749
f 748 824 750
f 822 824 748
f 751 823 749
f 825 823 751
f 750 826 752
f 824 826 750
f 753 825 751
f 827 825 753
f 752 828 754
f 826 828 752
f 755 827 753
f 829 827 755
f 754 830 756
f 828 830 754
f 757 829 755
f 831 829 757
f 756 832 758
f 830 832 756
f 759 831 757
f 833 831 759
f 763 837 762
f 762 837 836
f 836 835 834
f 837 835 836
f 766 839 763
f 763 839 837
f 837 838 835
f 839 838 837
f 768 841 766
f 766 841 839
f 839 840 838
f 841 840 839
f 770 843 768
f 768 843 841
f 841 842 840
f 843 842 841
f 772 845 770
f 770 845 843
f 843 844 842
f 845 844 843
f 774 847 772
f 772 847 845
f 845 846 844
f 847 846 845
f 776 849 774
f 774 849 847
f 847 848 846
f 849 848 847
f 778 851 776
f 776 851 849
f 849 850 848
f 851 850 849
f 780 853 778
f 778 853 851
f 851 852 850
f 853 852 851
f 758 854 760
f 832 854 758
f 760 854 780
f 780 854 853
f 853 832 852
f 854 832 853
f 761 833 759
f 855 833 761
f 762 856 764
f 836 856 762
f 783 855 761
f 857 855 783
f 764 858 784
f 856 858 764
f 785 857 783
f 786 861 785
f 860 857 785
f 785 861 860
f 860 859 857
f 861 859 860
f 787 863 786
f 786 863 861
f 861 862 859
f 863 862 861
f 784 864 788
f 858 864 784
f 788 864 787
f 787 864 863
f 863 858 862
f 864 858 863
f 865 792 791
f 797 865 791
f 866 792 865
f 867 865 797
f 866 794 792
f 868 794 866
f 869 868 866
f 870 868 869
f 868 796 794
f 796 872 798
f 871 796 868
f 871 872 796
f 799 867 797
f 873 867 799
f 798 874 800
f 872 874 798
f 801 873 799
f 875 873 801
f 800 876 803
f 874 876 800
f 823 875 801
f 877 875 823
f 876 804 803
f 878 804 876
f 879 878 876
f 880 878 879
f 878 806 804
f 881 806 878
f 880 881 878
f 882 881 880
f 881 808 806
f 883 808 881
f 882 883 881
f 884 883 882
f 883 810 808
f 885 810 883
f 884 885 883
f 886 885 884
f 885 812 810
f 887 812 885
f 886 887 885
f 888 887 886
f 887 814 812
f 889 814 887
f 888 889 887
f 890 889 888
f 889 816 814
f 891 816 889
f 890 891 889
f 892 891 890
f 891 818 816
f 893 818 891
f 892 893 891
f 894 893 892
f 893 820 818
f 895 820 893
f 894 895 893
f 896 895 894
f 895 822 820
f 822 898 824
f 897 822 895
f 897 898 822
f 896 897 895
f 898 897 896
f 825 877 823
f 899 877 825
f 900 880 879
f 901 880 900
f 901 882 880
f 902 882 901
f 902 884 882
f 903 884 902
f 903 886 884
f 904 886 903
f 904 888 886
f 905 888 904
f 905 890 888
f 906 890 905
f 906 892 890
f 907 892 906
f 907 894 892
f 908 894 907
f 908 896 894
f 909 896 908
f 824 910 826
f 898 910 824
f 909 898 896
f 910 898 909
f 827 899 825
f 911 899 827
f 912 901 900
f 913 901 912
f 913 902 901
f 914 902 913
f 914 903 902
f 915 903 914
f 915 904 903
f 916 904 915
f 916 905 904
f 917 905 916
f 917 906 905
f 918 906 917
f 918 907 906
f 919 907 918
f 919 908 907
f 920 908 919
f 920 909 908
f 921 909 920
f 826 922 828
f 910 922 826
f 921 910 909
f 922 910 921
f 829 911 827
f 923 911 829
f 924 913 912
f 925 913 924
f 925 914 913
f 926 914 925
f 926 915 914
f 927 915 926
f 927 916 915
f 928 916 927
f 928 917 916
f 929 917 928
f 929 918 917
f 930 918 929
f 930 919 918
f 931 919 930
f 931 920 919
f 932 920 931
f 932 921 920
f 933 921 932
f 828 934 830
f 922 934 828
f 933 922 921
f 934 922 933
f 831 923 829
f 935 923 831
f 835 937 834
f 834 937 936
f 936 925 924
f 937 925 936
f 838 938 835
f 835 938 937
f 937 926 925
f 938 926 937
f 840 939 838
f 838 939 938
f 938 927 926
f 939 927 938
f 842 940 840
f 840 940 939
f 939 928 927
f 940 928 939
f 844 941 842
f 842 941 940
f 940 929 928
f 941 929 940
f 846 942 844
f 844 942 941
f 941 930 929
f 942 930 941
f 848 943 846
f 846 943 942
f 942 931 930
f 943 931 942
f 850 944 848
f 848 944 943
f 943 932 931
f 944 932 943
f 852 945 850
f 850 945 944
f 944 933 932
f 945 933 944
f 830 946 832
f 934 946 830
f 832 946 852
f 852 946 945
f 945 934 933
f 946 934 945
f 833 935 831
f 947 935 833
f 834 948 836
f 936 948 834
f 855 947 833
f 949 947 855
f 836 950 856
f 948 950 836
f 857 949 855
f 859 952 857
f 951 949 857
f 857 952 951
f 862 953 859
f 859 953 952
f 856 954 858
f 950 954 856
f 858 954 862
f 862 954 953
f 955 866 865
f 867 955 865
f 866 958 869
f 956 866 955
f 956 958 866
f 957 955 867
f 957 956 955
f 958 956 957
f 959 871 868
f 870 959 868
f 871 962 872
f 960 871 959
f 960 962 871
f 961 959 870
f 961 960 959
f 962 960 961
f 873 957 867
f 963 957 873
f 963 958 957
f 964 958 963
f 958 870 869
f 961 870 958
f 964 961 958
f 965 961 964
f 872 966 874
f 962 966 872
f 965 962 961
f 966 962 965
f 875 963 873
f 967 963 875
f 874 968 876
f 966 968 874
f 877 967 875
f 969 967 877
f 876 970 879
f 968 970 876
f 899 969 877
f 971 969 899
f 879 972 900
f 970 972 879
f 911 971 899
f 973 971 911
f 900 974 912
f 972 974 900
f 923 973 911
f 975 973 923
f 912 976 924
f 974 976 912
f 935 975 923
f 977 975 935
f 924 978 936
f 976 978 924
f 947 977 935
f 979 977 947
f 936 980 948
f 978 980 936
f 949 979 947
f 982 979 949
f 982 981 979
f 983 981 982
f 983 984 981
f 985 984 983
f 948 986 950
f 980 986 948
f 985 980 984
f 986 980 985
f 951 982 949
f 952 988 951
f 987 982 951
f 951 988 987
f 987 983 982
f 988 983 987
f 953 989 952
f 952 989 988
f 988 985 983
f 989 985 988
f 950 990 954
f 986 990 950
f 954 990 953
f 953 990 989
f 989 986 985
f 990 986 989
f 991 964 963
f 967 991 963
f 992 964 991
f 993 991 967
f 993 992 991
f 994 992 993
f 992 965 964
f 995 965 992
f 994 995 992
f 996 995 994
f 995 966 965
f 966 998 968
f 997 966 995
f 997 998 966
f 996 997 995
f 998 997 996
f 969 993 967
f 999 993 969
f 999 994 993
f 1000 994 999
f 1000 996 994
f 1001 996 1000
f 968 1002 970
f 998 1002 968
f 1001 998 996
f 1002 998 1001
f 971 999 969
f 1003 999 971
f 1003 1000 999
f 1004 1000 1003
f 1004 1001 1000
f 1005 1001 1004
f 970 1006 972
f 1002 1006 970
f 1005 1002 1001
f 1006 1002 1005
f 973 1003 971
f 1007 1003 973
f 1007 1004 1003
f 1008 1004 1007
f 1008 1005 1004
f 1009 1005 1008
f 972 1010 974
f 1006 1010 972
f 1009 1006 1005
f 1010 1006 1009
f 975 1007 973
f 1011 1007 975
f 1011 1008 1007
f 1012 1008 1011
f 1012 1009 1008
f 1013 1009 1012
f 974 1014 976
f 1010 1014 974
f 1013 1010 1009
f 1014 1010 1013
f 977 1011 975
f 1015 1011 977
f 1015 1012 1011
f 1016 1012 1015
f 1016 1013 1012
f 1017 1013 1016
f 976 1018 978
f 1014 1018 976
f 1017 1014 1013
f 1018 1014 1017
f 979 1015 977
f 981 1020 979
f 1019 1015 979
f 979 1020 1019
f 1019 1016 1015
f 1020 1016 1019
f 984 1021 981
f 981 1021 1020
f 1020 1017 1016
f 1021 1017 1020
f 978 1022 980
f 1018 1022 978
f 980 1022 984
f 984 1022 1021
f 1021 1018 1017
f 1022 1018 1021

