# https://github.com/mikedh/trimesh
v 0.21800000 -0.20600000 -0.90200000
v 0.21800000 -0.20600000 -0.89800000
v 0.21800000 -0.20200000 -0.90200000
v 0.21800000 -0.20200000 -0.89800000
v 0.22200000 -0.20600000 -0.90200000
v 0.22200000 -0.20600000 -0.89800000
v 0.22200000 -0.20200000 -0.90200000
v 0.21800000 -0.20600000 -0.89400000
v 0.21800000 -0.20200000 -0.89400000
v 0.22200000 -0.20600000 -0.89400000
v 0.21800000 -0.20600000 -0.89000000
v 0.21800000 -0.20200000 -0.89000000
v 0.22200000 -0.20600000 -0.89000000
v 0.22200000 -0.20200000 -0.89000000
v 0.21800000 -0.19800000 -0.90200000
v 0.21800000 -0.19800000 -0.89800000
v 0.22200000 -0.19800000 -0.90200000
v 0.22200000 -0.19800000 -0.89800000
v 0.21800000 -0.19800000 -0.89400000
v 0.22200000 -0.19800000 -0.89400000
v 0.21800000 -0.19800000 -0.89000000
v 0.22200000 -0.19800000 -0.89000000
v 0.22200000 -0.21800000 -0.90200000
v 0.22200000 -0.21800000 -0.89800000
v 0.22200000 -0.21400000 -0.90200000
v 0.22200000 -0.21400000 -0.89800000
v 0.22600000 -0.21800000 -0.90200000
v 0.22600000 -0.21800000 -0.89800000
v 0.22600000 -0.21400000 -0.90200000
v 0.22200000 -0.21800000 -0.89400000
v 0.22200000 -0.21400000 -0.89400000
v 0.22600000 -0.21800000 -0.89400000
v 0.22200000 -0.21800000 -0.89000000
v 0.22200000 -0.21400000 -0.89000000
v 0.22600000 -0.21800000 -0.89000000
v 0.22600000 -0.21400000 -0.89000000
v 0.22200000 -0.21000000 -0.90200000
v 0.22200000 -0.21000000 -0.89800000
v 0.22600000 -0.21000000 -0.90200000
v 0.22200000 -0.21000000 -0.89400000
v 0.22200000 -0.21000000 -0.89000000
v 0.22600000 -0.21000000 -0.89000000
v 0.22600000 -0.20600000 -0.90200000
v 0.22600000 -0.20600000 -0.89000000
v 0.22600000 -0.20200000 -0.90200000
v 0.22600000 -0.20200000 -0.89000000
v 0.22600000 -0.19800000 -0.90200000
v 0.22600000 -0.19800000 -0.89000000
v 0.22200000 -0.19400000 -0.90200000
v 0.22200000 -0.19400000 -0.89800000
v 0.22600000 -0.19400000 -0.90200000
v 0.22200000 -0.19400000 -0.89400000
v 0.22200000 -0.19400000 -0.89000000
v 0.22600000 -0.19400000 -0.89000000
v 0.22200000 -0.19000000 -0.90200000
v 0.22200000 -0.19000000 -0.89800000
v 0.22600000 -0.19000000 -0.90200000
v 0.22200000 -0.19000000 -0.89400000
v 0.22200000 -0.19000000 -0.89000000
v 0.22600000 -0.19000000 -0.89000000
v 0.22200000 -0.18600000 -0.90200000
v 0.22200000 -0.18600000 -0.89800000
v 0.22600000 -0.18600000 -0.90200000
v 0.22600000 -0.18600000 -0.89800000
v 0.22200000 -0.18600000 -0.89400000
v 0.22600000 -0.18600000 -0.89400000
v 0.22200000 -0.18600000 -0.89000000
v 0.22600000 -0.18600000 -0.89000000
v 0.22600000 -0.22200000 -0.90200000
v 0.22600000 -0.22200000 -0.89800000
v 0.23000000 -0.22200000 -0.90200000
v 0.23000000 -0.22200000 -0.89800000
v 0.23000000 -0.21800000 -0.90200000
v 0.22600000 -0.22200000 -0.89400000
v 0.23000000 -0.22200000 -0.89400000
v 0.22600000 -0.22200000 -0.89000000
v 0.23000000 -0.22200000 -0.89000000
v 0.23000000 -0.21800000 -0.89000000
v 0.23000000 -0.21400000 -0.90200000
v 0.23000000 -0.21400000 -0.89000000
v 0.23000000 -0.21000000 -0.90200000
v 0.23000000 -0.21000000 -0.89000000
v 0.23000000 -0.20600000 -0.90200000
v 0.23000000 -0.20600000 -0.89000000
v 0.23000000 -0.20200000 -0.90200000
v 0.23000000 -0.20200000 -0.89000000
v 0.23000000 -0.19800000 -0.90200000
v 0.23000000 -0.19800000 -0.89000000
v 0.23000000 -0.19400000 -0.90200000
v 0.23000000 -0.19400000 -0.89000000
v 0.23000000 -0.19000000 -0.90200000
v 0.23000000 -0.19000000 -0.89000000
v 0.23000000 -0.18600000 -0.90200000
v 0.23000000 -0.18600000 -0.89000000
v 0.22600000 -0.18200000 -0.90200000
v 0.22600000 -0.18200000 -0.89800000
v 0.23000000 -0.18200000 -0.90200000
v 0.23000000 -0.18200000 -0.89800000
v 0.22600000 -0.18200000 -0.89400000
v 0.23000000 -0.18200000 -0.89400000
v 0.22600000 -0.18200000 -0.89000000
v 0.23000000 -0.18200000 -0.89000000
v 0.23000000 -0.22600000 -0.90200000
v 0.23000000 -0.22600000 -0.89800000
v 0.23400000 -0.22600000 -0.90200000
v 0.23400000 -0.22600000 -0.89800000
v 0.23400000 -0.22200000 -0.90200000
v 0.23000000 -0.22600000 -0.89400000
v 0.23400000 -0.22600000 -0.89400000
v 0.23000000 -0.22600000 -0.89000000
v 0.23400000 -0.22600000 -0.89000000
v 0.23400000 -0.22200000 -0.89000000
v 0.23400000 -0.21800000 -0.90200000
v 0.23400000 -0.21800000 -0.89000000
v 0.23400000 -0.21400000 -0.90200000
v 0.23400000 -0.21400000 -0.89000000
v 0.23400000 -0.21000000 -0.90200000
v 0.23400000 -0.21000000 -0.89000000
v 0.23400000 -0.20600000 -0.90200000
v 0.23000000 -0.21000000 -0.88600000
v 0.23000000 -0.20600000 -0.88600000
v 0.23400000 -0.21000000 -0.88600000
v 0.23000000 -0.21000000 -0.88200000
v 0.23000000 -0.20600000 -0.88200000
v 0.23400000 -0.21000000 -0.88200000
v 0.23000000 -0.21000000 -0.87800000
v 0.23000000 -0.20600000 -0.87800000
v 0.23400000 -0.21000000 -0.87800000
v 0.23000000 -0.21000000 -0.87400000
v 0.23000000 -0.20600000 -0.87400000
v 0.23400000 -0.21000000 -0.87400000
v 0.23000000 -0.21000000 -0.87000000
v 0.23000000 -0.20600000 -0.87000000
v 0.23400000 -0.21000000 -0.87000000
v 0.23000000 -0.21000000 -0.86600000
v 0.23000000 -0.20600000 -0.86600000
v 0.23400000 -0.21000000 -0.86600000
v 0.23000000 -0.21000000 -0.86200000
v 0.23000000 -0.20600000 -0.86200000
v 0.23400000 -0.21000000 -0.86200000
v 0.23000000 -0.21000000 -0.85800000
v 0.23000000 -0.20600000 -0.85800000
v 0.23400000 -0.21000000 -0.85800000
v 0.23000000 -0.21000000 -0.85400000
v 0.23000000 -0.20600000 -0.85400000
v 0.23400000 -0.21000000 -0.85400000
v 0.23000000 -0.21000000 -0.85000000
v 0.23000000 -0.20600000 -0.85000000
v 0.23400000 -0.21000000 -0.85000000
v 0.23400000 -0.20600000 -0.85000000
v 0.23400000 -0.20200000 -0.90200000
v 0.23000000 -0.20200000 -0.88600000
v 0.23000000 -0.20200000 -0.88200000
v 0.23000000 -0.20200000 -0.87800000
v 0.23000000 -0.20200000 -0.87400000
v 0.23000000 -0.20200000 -0.87000000
v 0.23000000 -0.20200000 -0.86600000
v 0.23000000 -0.20200000 -0.86200000
v 0.23000000 -0.20200000 -0.85800000
v 0.23000000 -0.20200000 -0.85400000
v 0.23000000 -0.20200000 -0.85000000
v 0.23400000 -0.20200000 -0.85000000
v 0.23400000 -0.19800000 -0.90200000
v 0.23000000 -0.19800000 -0.88600000
v 0.23000000 -0.19800000 -0.88200000
v 0.23000000 -0.19800000 -0.87800000
v 0.23000000 -0.19800000 -0.87400000
v 0.23000000 -0.19800000 -0.87000000
v 0.23000000 -0.19800000 -0.86600000
v 0.23000000 -0.19800000 -0.86200000
v 0.23000000 -0.19800000 -0.85800000
v 0.23000000 -0.19800000 -0.85400000
v 0.23000000 -0.19800000 -0.85000000
v 0.23400000 -0.19800000 -0.85000000
v 0.23400000 -0.19400000 -0.90200000
v 0.23000000 -0.19400000 -0.88600000
v 0.23400000 -0.19400000 -0.89000000
v 0.23400000 -0.19400000 -0.88600000
v 0.23000000 -0.19400000 -0.88200000
v 0.23400000 -0.19400000 -0.88200000
v 0.23000000 -0.19400000 -0.87800000
v 0.23400000 -0.19400000 -0.87800000
v 0.23000000 -0.19400000 -0.87400000
v 0.23400000 -0.19400000 -0.87400000
v 0.23000000 -0.19400000 -0.87000000
v 0.23400000 -0.19400000 -0.87000000
v 0.23000000 -0.19400000 -0.86600000
v 0.23400000 -0.19400000 -0.86600000
v 0.23000000 -0.19400000 -0.86200000
v 0.23400000 -0.19400000 -0.86200000
v 0.23000000 -0.19400000 -0.85800000
v 0.23400000 -0.19400000 -0.85800000
v 0.23000000 -0.19400000 -0.85400000
v 0.23400000 -0.19400000 -0.85400000
v 0.23000000 -0.19400000 -0.85000000
v 0.23400000 -0.19400000 -0.85000000
v 0.23400000 -0.19000000 -0.90200000
v 0.23400000 -0.19000000 -0.89000000
v 0.23400000 -0.18600000 -0.90200000
v 0.23400000 -0.18600000 -0.89000000
v 0.23400000 -0.18200000 -0.90200000
v 0.23400000 -0.18200000 -0.89000000
v 0.23000000 -0.17800000 -0.90200000
v 0.23000000 -0.17800000 -0.89800000
v 0.23400000 -0.17800000 -0.90200000
v 0.23400000 -0.17800000 -0.89800000
v 0.23000000 -0.17800000 -0.89400000
v 0.23400000 -0.17800000 -0.89400000
v 0.23000000 -0.17800000 -0.89000000
v 0.23400000 -0.17800000 -0.89000000
v 0.23400000 -0.23000000 -0.90200000
v 0.23400000 -0.23000000 -0.89800000
v 0.23800000 -0.23000000 -0.90200000
v 0.23800000 -0.23000000 -0.89800000
v 0.23800000 -0.22600000 -0.90200000
v 0.23400000 -0.23000000 -0.89400000
v 0.23800000 -0.23000000 -0.89400000
v 0.23400000 -0.23000000 -0.89000000
v 0.23800000 -0.23000000 -0.89000000
v 0.23800000 -0.22600000 -0.89000000
v 0.23800000 -0.22200000 -0.90200000
v 0.23800000 -0.22200000 -0.89000000
v 0.23800000 -0.21800000 -0.90200000
v 0.23800000 -0.21800000 -0.89000000
v 0.23800000 -0.21400000 -0.90200000
v 0.23400000 -0.21800000 -0.88600000
v 0.23400000 -0.21400000 -0.88600000
v 0.23800000 -0.21800000 -0.88600000
v 0.23400000 -0.21800000 -0.88200000
v 0.23400000 -0.21400000 -0.88200000
v 0.23800000 -0.21800000 -0.88200000
v 0.23400000 -0.21800000 -0.87800000
v 0.23400000 -0.21400000 -0.87800000
v 0.23800000 -0.21800000 -0.87800000
v 0.23400000 -0.21800000 -0.87400000
v 0.23400000 -0.21400000 -0.87400000
v 0.23800000 -0.21800000 -0.87400000
v 0.23400000 -0.21800000 -0.87000000
v 0.23400000 -0.21400000 -0.87000000
v 0.23800000 -0.21800000 -0.87000000
v 0.23400000 -0.21800000 -0.86600000
v 0.23400000 -0.21400000 -0.86600000
v 0.23800000 -0.21800000 -0.86600000
v 0.23400000 -0.21800000 -0.86200000
v 0.23400000 -0.21400000 -0.86200000
v 0.23800000 -0.21800000 -0.86200000
v 0.23400000 -0.21800000 -0.85800000
v 0.23400000 -0.21400000 -0.85800000
v 0.23800000 -0.21800000 -0.85800000
v 0.23400000 -0.21800000 -0.85400000
v 0.23400000 -0.21400000 -0.85400000
v 0.23800000 -0.21800000 -0.85400000
v 0.23400000 -0.21800000 -0.85000000
v 0.23400000 -0.21400000 -0.85000000
v 0.23800000 -0.21800000 -0.85000000
v 0.23800000 -0.21400000 -0.85000000
v 0.23800000 -0.21000000 -0.90200000
v 0.23800000 -0.21000000 -0.85000000
v 0.23800000 -0.20600000 -0.90200000
v 0.23800000 -0.20600000 -0.85000000
v 0.23800000 -0.20200000 -0.90200000
v 0.23800000 -0.20200000 -0.85000000
v 0.23800000 -0.19800000 -0.90200000
v 0.23800000 -0.19800000 -0.85000000
v 0.23800000 -0.19400000 -0.90200000
v 0.23800000 -0.19400000 -0.85000000
v 0.23800000 -0.19000000 -0.90200000
v 0.23400000 -0.19000000 -0.88600000
v 0.23400000 -0.19000000 -0.88200000
v 0.23400000 -0.19000000 -0.87800000
v 0.23400000 -0.19000000 -0.87400000
v 0.23400000 -0.19000000 -0.87000000
v 0.23400000 -0.19000000 -0.86600000
v 0.23400000 -0.19000000 -0.86200000
v 0.23400000 -0.19000000 -0.85800000
v 0.23400000 -0.19000000 -0.85400000
v 0.23400000 -0.19000000 -0.85000000
v 0.23800000 -0.19000000 -0.85000000
v 0.23800000 -0.18600000 -0.90200000
v 0.23400000 -0.18600000 -0.88600000
v 0.23800000 -0.18600000 -0.89000000
v 0.23800000 -0.18600000 -0.88600000
v 0.23400000 -0.18600000 -0.88200000
v 0.23800000 -0.18600000 -0.88200000
v 0.23400000 -0.18600000 -0.87800000
v 0.23800000 -0.18600000 -0.87800000
v 0.23400000 -0.18600000 -0.87400000
v 0.23800000 -0.18600000 -0.87400000
v 0.23400000 -0.18600000 -0.87000000
v 0.23800000 -0.18600000 -0.87000000
v 0.23400000 -0.18600000 -0.86600000
v 0.23800000 -0.18600000 -0.86600000
v 0.23400000 -0.18600000 -0.86200000
v 0.23800000 -0.18600000 -0.86200000
v 0.23400000 -0.18600000 -0.85800000
v 0.23800000 -0.18600000 -0.85800000
v 0.23400000 -0.18600000 -0.85400000
v 0.23800000 -0.18600000 -0.85400000
v 0.23400000 -0.18600000 -0.85000000
v 0.23800000 -0.18600000 -0.85000000
v 0.23800000 -0.18200000 -0.90200000
v 0.23800000 -0.18200000 -0.89000000
v 0.23800000 -0.17800000 -0.90200000
v 0.23800000 -0.17800000 -0.89000000
v 0.23400000 -0.17400000 -0.90200000
v 0.23400000 -0.17400000 -0.89800000
v 0.23800000 -0.17400000 -0.90200000
v 0.23800000 -0.17400000 -0.89800000
v 0.23400000 -0.17400000 -0.89400000
v 0.23800000 -0.17400000 -0.89400000
v 0.23400000 -0.17400000 -0.89000000
v 0.23800000 -0.17400000 -0.89000000
v 0.24200000 -0.23000000 -0.90200000
v 0.24200000 -0.23000000 -0.89800000
v 0.24200000 -0.22600000 -0.90200000
v 0.24200000 -0.23000000 -0.89400000
v 0.24200000 -0.23000000 -0.89000000
v 0.24200000 -0.22600000 -0.89000000
v 0.24200000 -0.22200000 -0.90200000
v 0.24200000 -0.22200000 -0.89000000
v 0.24200000 -0.21800000 -0.90200000
v 0.23800000 -0.22200000 -0.88600000
v 0.24200000 -0.22200000 -0.88600000
v 0.23800000 -0.22200000 -0.88200000
v 0.24200000 -0.22200000 -0.88200000
v 0.23800000 -0.22200000 -0.87800000
v 0.24200000 -0.22200000 -0.87800000
v 0.23800000 -0.22200000 -0.87400000
v 0.24200000 -0.22200000 -0.87400000
v 0.23800000 -0.22200000 -0.87000000
v 0.24200000 -0.22200000 -0.87000000
v 0.23800000 -0.22200000 -0.86600000
v 0.24200000 -0.22200000 -0.86600000
v 0.23800000 -0.22200000 -0.86200000
v 0.24200000 -0.22200000 -0.86200000
v 0.23800000 -0.22200000 -0.85800000
v 0.24200000 -0.22200000 -0.85800000
v 0.23800000 -0.22200000 -0.85400000
v 0.24200000 -0.22200000 -0.85400000
v 0.23800000 -0.22200000 -0.85000000
v 0.24200000 -0.22200000 -0.85000000
v 0.24200000 -0.21800000 -0.85000000
v 0.24200000 -0.21400000 -0.90200000
v 0.24200000 -0.21400000 -0.85000000
v 0.24200000 -0.21000000 -0.90200000
v 0.24200000 -0.21000000 -0.85000000
v 0.24200000 -0.20600000 -0.90200000
v 0.24200000 -0.20600000 -0.85000000
v 0.24200000 -0.20200000 -0.90200000
v 0.24200000 -0.20200000 -0.85000000
v 0.24200000 -0.19800000 -0.90200000
v 0.24200000 -0.19800000 -0.85000000
v 0.24200000 -0.19400000 -0.90200000
v 0.24200000 -0.19400000 -0.85000000
v 0.24200000 -0.19000000 -0.90200000
v 0.24200000 -0.19000000 -0.85000000
v 0.24200000 -0.18600000 -0.90200000
v 0.24200000 -0.18600000 -0.89000000
v 0.24200000 -0.18600000 -0.88600000
v 0.24200000 -0.18600000 -0.88200000
v 0.24200000 -0.18600000 -0.87800000
v 0.24200000 -0.18600000 -0.87400000
v 0.24200000 -0.18600000 -0.87000000
v 0.24200000 -0.18600000 -0.86600000
v 0.24200000 -0.18600000 -0.86200000
v 0.24200000 -0.18600000 -0.85800000
v 0.24200000 -0.18600000 -0.85400000
v 0.24200000 -0.18600000 -0.85000000
v 0.24200000 -0.18200000 -0.90200000
v 0.24200000 -0.18200000 -0.89000000
v 0.24200000 -0.17800000 -0.90200000
v 0.24200000 -0.17800000 -0.89000000
v 0.24200000 -0.17400000 -0.90200000
v 0.24200000 -0.17400000 -0.89800000
v 0.24200000 -0.17400000 -0.89400000
v 0.24200000 -0.17400000 -0.89000000
v 0.24600000 -0.23000000 -0.90200000
v 0.24600000 -0.23000000 -0.89800000
v 0.24600000 -0.22600000 -0.90200000
v 0.24600000 -0.23000000 -0.89400000
v 0.24600000 -0.23000000 -0.89000000
v 0.24600000 -0.22600000 -0.89000000
v 0.24600000 -0.22200000 -0.90200000
v 0.24600000 -0.22200000 -0.89000000
v 0.24600000 -0.21800000 -0.90200000
v 0.24600000 -0.22200000 -0.88600000
v 0.24600000 -0.22200000 -0.88200000
v 0.24600000 -0.22200000 -0.87800000
v 0.24600000 -0.22200000 -0.87400000
v 0.24600000 -0.22200000 -0.87000000
v 0.24600000 -0.22200000 -0.86600000
v 0.24600000 -0.22200000 -0.86200000
v 0.24600000 -0.22200000 -0.85800000
v 0.24600000 -0.22200000 -0.85400000
v 0.24600000 -0.22200000 -0.85000000
v 0.24600000 -0.21800000 -0.85000000
v 0.24600000 -0.21400000 -0.90200000
v 0.24600000 -0.21400000 -0.85000000
v 0.24600000 -0.21000000 -0.90200000
v 0.24600000 -0.21000000 -0.85000000
v 0.24600000 -0.20600000 -0.90200000
v 0.24600000 -0.20600000 -0.85000000
v 0.24600000 -0.20200000 -0.90200000
v 0.24600000 -0.20200000 -0.85000000
v 0.24600000 -0.19800000 -0.90200000
v 0.24600000 -0.19800000 -0.85000000
v 0.24600000 -0.19400000 -0.90200000
v 0.24600000 -0.19400000 -0.85000000
v 0.24600000 -0.19000000 -0.90200000
v 0.24600000 -0.19000000 -0.85000000
v 0.24600000 -0.18600000 -0.90200000
v 0.24600000 -0.18600000 -0.85000000
v 0.24600000 -0.18200000 -0.90200000
v 0.24200000 -0.18200000 -0.88600000
v 0.24600000 -0.18200000 -0.89000000
v 0.24600000 -0.18200000 -0.88600000
v 0.24200000 -0.18200000 -0.88200000
v 0.24600000 -0.18200000 -0.88200000
v 0.24200000 -0.18200000 -0.87800000
v 0.24600000 -0.18200000 -0.87800000
v 0.24200000 -0.18200000 -0.87400000
v 0.24600000 -0.18200000 -0.87400000
v 0.24200000 -0.18200000 -0.87000000
v 0.24600000 -0.18200000 -0.87000000
v 0.24200000 -0.18200000 -0.86600000
v 0.24600000 -0.18200000 -0.86600000
v 0.24200000 -0.18200000 -0.86200000
v 0.24600000 -0.18200000 -0.86200000
v 0.24200000 -0.18200000 -0.85800000
v 0.24600000 -0.18200000 -0.85800000
v 0.24200000 -0.18200000 -0.85400000
v 0.24600000 -0.18200000 -0.85400000
v 0.24200000 -0.18200000 -0.85000000
v 0.24600000 -0.18200000 -0.85000000
v 0.24600000 -0.17800000 -0.90200000
v 0.24600000 -0.17800000 -0.89000000
v 0.24600000 -0.17400000 -0.90200000
v 0.24600000 -0.17400000 -0.89800000
v 0.24600000 -0.17400000 -0.89400000
v 0.24600000 -0.17400000 -0.89000000
v 0.24600000 -0.23400000 -0.90200000
v 0.24600000 -0.23400000 -0.89800000
v 0.25000000 -0.23400000 -0.90200000
v 0.25000000 -0.23400000 -0.89800000
v 0.25000000 -0.23000000 -0.90200000
v 0.24600000 -0.23400000 -0.89400000
v 0.25000000 -0.23400000 -0.89400000
v 0.24600000 -0.23400000 -0.89000000
v 0.25000000 -0.23400000 -0.89000000
v 0.25000000 -0.23000000 -0.89000000
v 0.25000000 -0.22600000 -0.90200000
v 0.25000000 -0.22600000 -0.89000000
v 0.25000000 -0.22200000 -0.90200000
v 0.25000000 -0.22200000 -0.89000000
v 0.25000000 -0.21800000 -0.90200000
v 0.25000000 -0.22200000 -0.88600000
v 0.25000000 -0.22200000 -0.88200000
v 0.25000000 -0.22200000 -0.87800000
v 0.25000000 -0.22200000 -0.87400000
v 0.25000000 -0.22200000 -0.87000000
v 0.25000000 -0.22200000 -0.86600000
v 0.25000000 -0.22200000 -0.86200000
v 0.25000000 -0.22200000 -0.85800000
v 0.25000000 -0.22200000 -0.85400000
v 0.25000000 -0.22200000 -0.85000000
v 0.25000000 -0.21800000 -0.85000000
v 0.25000000 -0.21400000 -0.90200000
v 0.25000000 -0.21400000 -0.85000000
v 0.25000000 -0.21000000 -0.90200000
v 0.25000000 -0.21000000 -0.85000000
v 0.25000000 -0.20600000 -0.90200000
v 0.25000000 -0.20600000 -0.85000000
v 0.25000000 -0.20200000 -0.90200000
v 0.25000000 -0.20200000 -0.85000000
v 0.25000000 -0.19800000 -0.90200000
v 0.25000000 -0.19800000 -0.85000000
v 0.25000000 -0.19400000 -0.90200000
v 0.25000000 -0.19400000 -0.85000000
v 0.25000000 -0.19000000 -0.90200000
v 0.25000000 -0.19000000 -0.85000000
v 0.25000000 -0.18600000 -0.90200000
v 0.25000000 -0.18600000 -0.85000000
v 0.25000000 -0.18200000 -0.90200000
v 0.25000000 -0.18200000 -0.89000000
v 0.25000000 -0.18200000 -0.88600000
v 0.25000000 -0.18200000 -0.88200000
v 0.25000000 -0.18200000 -0.87800000
v 0.25000000 -0.18200000 -0.87400000
v 0.25000000 -0.18200000 -0.87000000
v 0.25000000 -0.18200000 -0.86600000
v 0.25000000 -0.18200000 -0.86200000
v 0.25000000 -0.18200000 -0.85800000
v 0.25000000 -0.18200000 -0.85400000
v 0.25000000 -0.18200000 -0.85000000
v 0.25000000 -0.17800000 -0.90200000
v 0.25000000 -0.17800000 -0.89000000
v 0.25000000 -0.17400000 -0.90200000
v 0.25000000 -0.17400000 -0.89800000
v 0.25000000 -0.17400000 -0.89400000
v 0.25000000 -0.17400000 -0.89000000
v 0.25400000 -0.23400000 -0.90200000
v 0.25400000 -0.23400000 -0.89800000
v 0.25400000 -0.23000000 -0.90200000
v 0.25400000 -0.23400000 -0.89400000
v 0.25400000 -0.23400000 -0.89000000
v 0.25400000 -0.23000000 -0.89000000
v 0.25400000 -0.22600000 -0.90200000
v 0.25400000 -0.22600000 -0.89000000
v 0.25400000 -0.22200000 -0.90200000
v 0.25400000 -0.22200000 -0.89000000
v 0.25400000 -0.21800000 -0.90200000
v 0.25400000 -0.22200000 -0.88600000
v 0.25400000 -0.22200000 -0.88200000
v 0.25400000 -0.22200000 -0.87800000
v 0.25400000 -0.22200000 -0.87400000
v 0.25400000 -0.22200000 -0.87000000
v 0.25400000 -0.22200000 -0.86600000
v 0.25400000 -0.22200000 -0.86200000
v 0.25400000 -0.22200000 -0.85800000
v 0.25400000 -0.22200000 -0.85400000
v 0.25400000 -0.22200000 -0.85000000
v 0.25400000 -0.21800000 -0.85000000
v 0.25400000 -0.21400000 -0.90200000
v 0.25400000 -0.21400000 -0.85000000
v 0.25400000 -0.21000000 -0.90200000
v 0.25400000 -0.21000000 -0.85000000
v 0.25400000 -0.20600000 -0.90200000
v 0.25400000 -0.20600000 -0.85000000
v 0.25400000 -0.20200000 -0.90200000
v 0.25400000 -0.20200000 -0.85000000
v 0.25400000 -0.19800000 -0.90200000
v 0.25400000 -0.19800000 -0.85000000
v 0.25400000 -0.19400000 -0.90200000
v 0.25400000 -0.19400000 -0.85000000
v 0.25400000 -0.19000000 -0.90200000
v 0.25400000 -0.19000000 -0.85000000
v 0.25400000 -0.18600000 -0.90200000
v 0.25400000 -0.18600000 -0.85000000
v 0.25400000 -0.18200000 -0.90200000
v 0.25400000 -0.18200000 -0.89000000
v 0.25400000 -0.18200000 -0.88600000
v 0.25400000 -0.18200000 -0.88200000
v 0.25400000 -0.18200000 -0.87800000
v 0.25400000 -0.18200000 -0.87400000
v 0.25400000 -0.18200000 -0.87000000
v 0.25400000 -0.18200000 -0.86600000
v 0.25400000 -0.18200000 -0.86200000
v 0.25400000 -0.18200000 -0.85800000
v 0.25400000 -0.18200000 -0.85400000
v 0.25400000 -0.18200000 -0.85000000
v 0.25400000 -0.17800000 -0.90200000
v 0.25400000 -0.17800000 -0.89000000
v 0.25400000 -0.17400000 -0.90200000
v 0.25400000 -0.17400000 -0.89800000
v 0.25400000 -0.17400000 -0.89400000
v 0.25400000 -0.17400000 -0.89000000
v 0.25800000 -0.23400000 -0.90200000
v 0.25800000 -0.23400000 -0.89800000
v 0.25800000 -0.23000000 -0.90200000
v 0.25800000 -0.23400000 -0.89400000
v 0.25800000 -0.23400000 -0.89000000
v 0.25800000 -0.23000000 -0.89000000
v 0.25800000 -0.22600000 -0.90200000
v 0.25800000 -0.22600000 -0.89000000
v 0.25800000 -0.22200000 -0.90200000
v 0.25800000 -0.22200000 -0.89000000
v 0.25800000 -0.21800000 -0.90200000
v 0.25800000 -0.22200000 -0.88600000
v 0.25800000 -0.22200000 -0.88200000
v 0.25800000 -0.22200000 -0.87800000
v 0.25800000 -0.22200000 -0.87400000
v 0.25800000 -0.22200000 -0.87000000
v 0.25800000 -0.22200000 -0.86600000
v 0.25800000 -0.22200000 -0.86200000
v 0.25800000 -0.22200000 -0.85800000
v 0.25800000 -0.22200000 -0.85400000
v 0.25800000 -0.22200000 -0.85000000
v 0.25800000 -0.21800000 -0.85000000
v 0.25800000 -0.21400000 -0.90200000
v 0.25800000 -0.21400000 -0.85000000
v 0.25800000 -0.21000000 -0.90200000
v 0.25800000 -0.21000000 -0.85000000
v 0.25800000 -0.20600000 -0.90200000
v 0.25800000 -0.20600000 -0.85000000
v 0.25800000 -0.20200000 -0.90200000
v 0.25800000 -0.20200000 -0.85000000
v 0.25800000 -0.19800000 -0.90200000
v 0.25800000 -0.19800000 -0.85000000
v 0.25800000 -0.19400000 -0.90200000
v 0.25800000 -0.19400000 -0.85000000
v 0.25800000 -0.19000000 -0.90200000
v 0.25800000 -0.19000000 -0.85000000
v 0.25800000 -0.18600000 -0.90200000
v 0.25800000 -0.18600000 -0.85000000
v 0.25800000 -0.18200000 -0.90200000
v 0.25800000 -0.18200000 -0.89000000
v 0.25800000 -0.18200000 -0.88600000
v 0.25800000 -0.18200000 -0.88200000
v 0.25800000 -0.18200000 -0.87800000
v 0.25800000 -0.18200000 -0.87400000
v 0.25800000 -0.18200000 -0.87000000
v 0.25800000 -0.18200000 -0.86600000
v 0.25800000 -0.18200000 -0.86200000
v 0.25800000 -0.18200000 -0.85800000
v 0.25800000 -0.18200000 -0.85400000
v 0.25800000 -0.18200000 -0.85000000
v 0.25800000 -0.17800000 -0.90200000
v 0.25800000 -0.17800000 -0.89000000
v 0.25800000 -0.17400000 -0.90200000
v 0.25800000 -0.17400000 -0.89800000
v 0.25800000 -0.17400000 -0.89400000
v 0.25800000 -0.17400000 -0.89000000
v 0.26200000 -0.23400000 -0.90200000
v 0.26200000 -0.23400000 -0.89800000
v 0.26200000 -0.23000000 -0.90200000
v 0.26200000 -0.23000000 -0.89800000
v 0.26200000 -0.23400000 -0.89400000
v 0.26200000 -0.23000000 -0.89400000
v 0.26200000 -0.23400000 -0.89000000
v 0.26200000 -0.23000000 -0.89000000
v 0.26200000 -0.22600000 -0.90200000
v 0.26200000 -0.22600000 -0.89000000
v 0.26200000 -0.22200000 -0.90200000
v 0.26200000 -0.22200000 -0.89000000
v 0.26200000 -0.21800000 -0.90200000
v 0.26200000 -0.22200000 -0.88600000
v 0.26200000 -0.22200000 -0.88200000
v 0.26200000 -0.22200000 -0.87800000
v 0.26200000 -0.22200000 -0.87400000
v 0.26200000 -0.22200000 -0.87000000
v 0.26200000 -0.22200000 -0.86600000
v 0.26200000 -0.22200000 -0.86200000
v 0.26200000 -0.22200000 -0.85800000
v 0.26200000 -0.22200000 -0.85400000
v 0.26200000 -0.22200000 -0.85000000
v 0.26200000 -0.21800000 -0.85000000
v 0.26200000 -0.21400000 -0.90200000
v 0.26200000 -0.21400000 -0.85000000
v 0.26200000 -0.21000000 -0.90200000
v 0.26200000 -0.21000000 -0.85000000
v 0.26200000 -0.20600000 -0.90200000
v 0.26200000 -0.20600000 -0.85000000
v 0.26200000 -0.20200000 -0.90200000
v 0.26200000 -0.20200000 -0.85000000
v 0.26200000 -0.19800000 -0.90200000
v 0.26200000 -0.19800000 -0.85000000
v 0.26200000 -0.19400000 -0.90200000
v 0.26200000 -0.19400000 -0.85000000
v 0.26200000 -0.19000000 -0.90200000
v 0.26200000 -0.19000000 -0.85000000
v 0.26200000 -0.18600000 -0.90200000
v 0.26200000 -0.18600000 -0.85000000
v 0.26200000 -0.18200000 -0.90200000
v 0.26200000 -0.18200000 -0.89000000
v 0.26200000 -0.18200000 -0.88600000
v 0.26200000 -0.18200000 -0.88200000
v 0.26200000 -0.18200000 -0.87800000
v 0.26200000 -0.18200000 -0.87400000
v 0.26200000 -0.18200000 -0.87000000
v 0.26200000 -0.18200000 -0.86600000
v 0.26200000 -0.18200000 -0.86200000
v 0.26200000 -0.18200000 -0.85800000
v 0.26200000 -0.18200000 -0.85400000
v 0.26200000 -0.18200000 -0.85000000
v 0.26200000 -0.17800000 -0.90200000
v 0.26200000 -0.17800000 -0.89000000
v 0.26200000 -0.17400000 -0.90200000
v 0.26200000 -0.17400000 -0.89800000
v 0.26200000 -0.17400000 -0.89400000
v 0.26200000 -0.17400000 -0.89000000
v 0.26600000 -0.23000000 -0.90200000
v 0.26600000 -0.23000000 -0.89800000
v 0.26600000 -0.22600000 -0.90200000
v 0.26600000 -0.23000000 -0.89400000
v 0.26600000 -0.23000000 -0.89000000
v 0.26600000 -0.22600000 -0.89000000
v 0.26600000 -0.22200000 -0.90200000
v 0.26600000 -0.22200000 -0.89000000
v 0.26600000 -0.21800000 -0.90200000
v 0.26600000 -0.22200000 -0.88600000
v 0.26600000 -0.21800000 -0.89000000
v 0.26600000 -0.21800000 -0.88600000
v 0.26600000 -0.22200000 -0.88200000
v 0.26600000 -0.21800000 -0.88200000
v 0.26600000 -0.22200000 -0.87800000
v 0.26600000 -0.21800000 -0.87800000
v 0.26600000 -0.22200000 -0.87400000
v 0.26600000 -0.21800000 -0.87400000
v 0.26600000 -0.22200000 -0.87000000
v 0.26600000 -0.21800000 -0.87000000
v 0.26600000 -0.22200000 -0.86600000
v 0.26600000 -0.21800000 -0.86600000
v 0.26600000 -0.22200000 -0.86200000
v 0.26600000 -0.21800000 -0.86200000
v 0.26600000 -0.22200000 -0.85800000
v 0.26600000 -0.21800000 -0.85800000
v 0.26600000 -0.22200000 -0.85400000
v 0.26600000 -0.21800000 -0.85400000
v 0.26600000 -0.22200000 -0.85000000
v 0.26600000 -0.21800000 -0.85000000
v 0.26600000 -0.21400000 -0.90200000
v 0.26600000 -0.21400000 -0.85000000
v 0.26600000 -0.21000000 -0.90200000
v 0.26600000 -0.21000000 -0.85000000
v 0.26600000 -0.20600000 -0.90200000
v 0.26600000 -0.20600000 -0.85000000
v 0.26600000 -0.20200000 -0.90200000
v 0.26600000 -0.20200000 -0.85000000
v 0.26600000 -0.19800000 -0.90200000
v 0.26600000 -0.19800000 -0.85000000
v 0.26600000 -0.19400000 -0.90200000
v 0.26600000 -0.19400000 -0.85000000
v 0.26600000 -0.19000000 -0.90200000
v 0.26600000 -0.19000000 -0.85000000
v 0.26600000 -0.18600000 -0.90200000
v 0.26600000 -0.18600000 -0.85000000
v 0.26600000 -0.18200000 -0.90200000
v 0.26600000 -0.18600000 -0.89000000
v 0.26600000 -0.18600000 -0.88600000
v 0.26600000 -0.18200000 -0.89000000
v 0.26600000 -0.18200000 -0.88600000
v 0.26600000 -0.18600000 -0.88200000
v 0.26600000 -0.18200000 -0.88200000
v 0.26600000 -0.18600000 -0.87800000
v 0.26600000 -0.18200000 -0.87800000
v 0.26600000 -0.18600000 -0.87400000
v 0.26600000 -0.18200000 -0.87400000
v 0.26600000 -0.18600000 -0.87000000
v 0.26600000 -0.18200000 -0.87000000
v 0.26600000 -0.18600000 -0.86600000
v 0.26600000 -0.18200000 -0.86600000
v 0.26600000 -0.18600000 -0.86200000
v 0.26600000 -0.18200000 -0.86200000
v 0.26600000 -0.18600000 -0.85800000
v 0.26600000 -0.18200000 -0.85800000
v 0.26600000 -0.18600000 -0.85400000
v 0.26600000 -0.18200000 -0.85400000
v 0.26600000 -0.18200000 -0.85000000
v 0.26600000 -0.17800000 -0.90200000
v 0.26600000 -0.17800000 -0.89000000
v 0.26600000 -0.17400000 -0.90200000
v 0.26600000 -0.17400000 -0.89800000
v 0.26600000 -0.17400000 -0.89400000
v 0.26600000 -0.17400000 -0.89000000
v 0.27000000 -0.23000000 -0.90200000
v 0.27000000 -0.23000000 -0.89800000
v 0.27000000 -0.22600000 -0.90200000
v 0.27000000 -0.22600000 -0.89800000
v 0.27000000 -0.23000000 -0.89400000
v 0.27000000 -0.22600000 -0.89400000
v 0.27000000 -0.23000000 -0.89000000
v 0.27000000 -0.22600000 -0.89000000
v 0.27000000 -0.22200000 -0.90200000
v 0.27000000 -0.22200000 -0.89000000
v 0.27000000 -0.21800000 -0.90200000
v 0.27000000 -0.21800000 -0.89000000
v 0.27000000 -0.21400000 -0.90200000
v 0.27000000 -0.21800000 -0.88600000
v 0.27000000 -0.21400000 -0.89000000
v 0.27000000 -0.21400000 -0.88600000
v 0.27000000 -0.21800000 -0.88200000
v 0.27000000 -0.21400000 -0.88200000
v 0.27000000 -0.21800000 -0.87800000
v 0.27000000 -0.21400000 -0.87800000
v 0.27000000 -0.21800000 -0.87400000
v 0.27000000 -0.21400000 -0.87400000
v 0.27000000 -0.21800000 -0.87000000
v 0.27000000 -0.21400000 -0.87000000
v 0.27000000 -0.21800000 -0.86600000
v 0.27000000 -0.21400000 -0.86600000
v 0.27000000 -0.21800000 -0.86200000
v 0.27000000 -0.21400000 -0.86200000
v 0.27000000 -0.21800000 -0.85800000
v 0.27000000 -0.21400000 -0.85800000
v 0.27000000 -0.21800000 -0.85400000
v 0.27000000 -0.21400000 -0.85400000
v 0.27000000 -0.21800000 -0.85000000
v 0.27000000 -0.21400000 -0.85000000
v 0.27000000 -0.21000000 -0.90200000
v 0.27000000 -0.21000000 -0.85000000
v 0.27000000 -0.20600000 -0.90200000
v 0.27000000 -0.20600000 -0.85000000
v 0.27000000 -0.20200000 -0.90200000
v 0.27000000 -0.20200000 -0.85000000
v 0.27000000 -0.19800000 -0.90200000
v 0.27000000 -0.19800000 -0.85000000
v 0.27000000 -0.19400000 -0.90200000
v 0.27000000 -0.19400000 -0.85000000
v 0.27000000 -0.19000000 -0.90200000
v 0.27000000 -0.19000000 -0.85000000
v 0.27000000 -0.18600000 -0.90200000
v 0.27000000 -0.19000000 -0.89000000
v 0.27000000 -0.19000000 -0.88600000
v 0.27000000 -0.18600000 -0.89000000
v 0.27000000 -0.18600000 -0.88600000
v 0.27000000 -0.19000000 -0.88200000
v 0.27000000 -0.18600000 -0.88200000
v 0.27000000 -0.19000000 -0.87800000
v 0.27000000 -0.18600000 -0.87800000
v 0.27000000 -0.19000000 -0.87400000
v 0.27000000 -0.18600000 -0.87400000
v 0.27000000 -0.19000000 -0.87000000
v 0.27000000 -0.18600000 -0.87000000
v 0.27000000 -0.19000000 -0.86600000
v 0.27000000 -0.18600000 -0.86600000
v 0.27000000 -0.19000000 -0.86200000
v 0.27000000 -0.18600000 -0.86200000
v 0.27000000 -0.19000000 -0.85800000
v 0.27000000 -0.18600000 -0.85800000
v 0.27000000 -0.19000000 -0.85400000
v 0.27000000 -0.18600000 -0.85400000
v 0.27000000 -0.18600000 -0.85000000
v 0.27000000 -0.18200000 -0.90200000
v 0.27000000 -0.18200000 -0.89000000
v 0.27000000 -0.17800000 -0.90200000
v 0.27000000 -0.17800000 -0.89000000
v 0.27000000 -0.17800000 -0.89800000
v 0.27000000 -0.17400000 -0.90200000
v 0.27000000 -0.17400000 -0.89800000
v 0.27000000 -0.17800000 -0.89400000
v 0.27000000 -0.17400000 -0.89400000
v 0.27000000 -0.17400000 -0.89000000
v 0.27400000 -0.22600000 -0.90200000
v 0.27400000 -0.22600000 -0.89800000
v 0.27400000 -0.22200000 -0.90200000
v 0.27400000 -0.22200000 -0.89800000
v 0.27400000 -0.22600000 -0.89400000
v 0.27400000 -0.22200000 -0.89400000
v 0.27400000 -0.22600000 -0.89000000
v 0.27400000 -0.22200000 -0.89000000
v 0.27400000 -0.21800000 -0.90200000
v 0.27400000 -0.21800000 -0.89000000
v 0.27400000 -0.21400000 -0.90200000
v 0.27400000 -0.21400000 -0.89000000
v 0.27400000 -0.21000000 -0.90200000
v 0.27400000 -0.21400000 -0.88600000
v 0.27400000 -0.21000000 -0.89000000
v 0.27400000 -0.21000000 -0.88600000
v 0.27400000 -0.21400000 -0.88200000
v 0.27400000 -0.21000000 -0.88200000
v 0.27400000 -0.21400000 -0.87800000
v 0.27400000 -0.21000000 -0.87800000
v 0.27400000 -0.21400000 -0.87400000
v 0.27400000 -0.21000000 -0.87400000
v 0.27400000 -0.21400000 -0.87000000
v 0.27400000 -0.21000000 -0.87000000
v 0.27400000 -0.21400000 -0.86600000
v 0.27400000 -0.21000000 -0.86600000
v 0.27400000 -0.21400000 -0.86200000
v 0.27400000 -0.21000000 -0.86200000
v 0.27400000 -0.21400000 -0.85800000
v 0.27400000 -0.21000000 -0.85800000
v 0.27400000 -0.21400000 -0.85400000
v 0.27400000 -0.21000000 -0.85400000
v 0.27400000 -0.21400000 -0.85000000
v 0.27400000 -0.21000000 -0.85000000
v 0.27400000 -0.20600000 -0.90200000
v 0.27400000 -0.20600000 -0.89000000
v 0.27400000 -0.20600000 -0.88600000
v 0.27400000 -0.20600000 -0.88200000
v 0.27400000 -0.20600000 -0.87800000
v 0.27400000 -0.20600000 -0.87400000
v 0.27400000 -0.20600000 -0.87000000
v 0.27400000 -0.20600000 -0.86600000
v 0.27400000 -0.20600000 -0.86200000
v 0.27400000 -0.20600000 -0.85800000
v 0.27400000 -0.20600000 -0.85400000
v 0.27400000 -0.20600000 -0.85000000
v 0.27400000 -0.20200000 -0.90200000
v 0.27400000 -0.20200000 -0.89000000
v 0.27400000 -0.20200000 -0.88600000
v 0.27400000 -0.20200000 -0.88200000
v 0.27400000 -0.20200000 -0.87800000
v 0.27400000 -0.20200000 -0.87400000
v 0.27400000 -0.20200000 -0.87000000
v 0.27400000 -0.20200000 -0.86600000
v 0.27400000 -0.20200000 -0.86200000
v 0.27400000 -0.20200000 -0.85800000
v 0.27400000 -0.20200000 -0.85400000
v 0.27400000 -0.20200000 -0.85000000
v 0.27400000 -0.19800000 -0.90200000
v 0.27400000 -0.19800000 -0.89000000
v 0.27400000 -0.19800000 -0.88600000
v 0.27400000 -0.19800000 -0.88200000
v 0.27400000 -0.19800000 -0.87800000
v 0.27400000 -0.19800000 -0.87400000
v 0.27400000 -0.19800000 -0.87000000
v 0.27400000 -0.19800000 -0.86600000
v 0.27400000 -0.19800000 -0.86200000
v 0.27400000 -0.19800000 -0.85800000
v 0.27400000 -0.19800000 -0.85400000
v 0.27400000 -0.19800000 -0.85000000
v 0.27400000 -0.19400000 -0.90200000
v 0.27400000 -0.19400000 -0.89000000
v 0.27400000 -0.19400000 -0.88600000
v 0.27400000 -0.19400000 -0.88200000
v 0.27400000 -0.19400000 -0.87800000
v 0.27400000 -0.19400000 -0.87400000
v 0.27400000 -0.19400000 -0.87000000
v 0.27400000 -0.19400000 -0.86600000
v 0.27400000 -0.19400000 -0.86200000
v 0.27400000 -0.19400000 -0.85800000
v 0.27400000 -0.19400000 -0.85400000
v 0.27400000 -0.19400000 -0.85000000
v 0.27400000 -0.19000000 -0.90200000
v 0.27400000 -0.19000000 -0.89000000
v 0.27400000 -0.19000000 -0.88600000
v 0.27400000 -0.19000000 -0.88200000
v 0.27400000 -0.19000000 -0.87800000
v 0.27400000 -0.19000000 -0.87400000
v 0.27400000 -0.19000000 -0.87000000
v 0.27400000 -0.19000000 -0.86600000
v 0.27400000 -0.19000000 -0.86200000
v 0.27400000 -0.19000000 -0.85800000
v 0.27400000 -0.19000000 -0.85400000
v 0.27400000 -0.19000000 -0.85000000
v 0.27400000 -0.18600000 -0.90200000
v 0.27400000 -0.18600000 -0.89000000
v 0.27400000 -0.18200000 -0.90200000
v 0.27400000 -0.18200000 -0.89000000
v 0.27400000 -0.18200000 -0.89800000
v 0.27400000 -0.17800000 -0.90200000
v 0.27400000 -0.17800000 -0.89800000
v 0.27400000 -0.18200000 -0.89400000
v 0.27400000 -0.17800000 -0.89400000
v 0.27400000 -0.17800000 -0.89000000
v 0.27800000 -0.22200000 -0.90200000
v 0.27800000 -0.22200000 -0.89800000
v 0.27800000 -0.21800000 -0.90200000
v 0.27800000 -0.21800000 -0.89800000
v 0.27800000 -0.22200000 -0.89400000
v 0.27800000 -0.21800000 -0.89400000
v 0.27800000 -0.22200000 -0.89000000
v 0.27800000 -0.21800000 -0.89000000
v 0.27800000 -0.21400000 -0.90200000
v 0.27800000 -0.21400000 -0.89000000
v 0.27800000 -0.21000000 -0.90200000
v 0.27800000 -0.21000000 -0.89000000
v 0.27800000 -0.20600000 -0.90200000
v 0.27800000 -0.20600000 -0.89000000
v 0.27800000 -0.20200000 -0.90200000
v 0.27800000 -0.20200000 -0.89000000
v 0.27800000 -0.19800000 -0.90200000
v 0.27800000 -0.19800000 -0.89000000
v 0.27800000 -0.19400000 -0.90200000
v 0.27800000 -0.19400000 -0.89000000
v 0.27800000 -0.19000000 -0.90200000
v 0.27800000 -0.19000000 -0.89000000
v 0.27800000 -0.18600000 -0.90200000
v 0.27800000 -0.18600000 -0.89000000
v 0.27800000 -0.18600000 -0.89800000
v 0.27800000 -0.18200000 -0.90200000
v 0.27800000 -0.18200000 -0.89800000
v 0.27800000 -0.18600000 -0.89400000
v 0.27800000 -0.18200000 -0.89400000
v 0.27800000 -0.18200000 -0.89000000
v 0.28200000 -0.21800000 -0.90200000
v 0.28200000 -0.21800000 -0.89800000
v 0.28200000 -0.21400000 -0.90200000
v 0.28200000 -0.21400000 -0.89800000
v 0.28200000 -0.21800000 -0.89400000
v 0.28200000 -0.21400000 -0.89400000
v 0.28200000 -0.21800000 -0.89000000
v 0.28200000 -0.21400000 -0.89000000
v 0.28200000 -0.21000000 -0.90200000
v 0.28200000 -0.21000000 -0.89000000
v 0.28200000 -0.20600000 -0.90200000
v 0.28200000 -0.20600000 -0.89000000
v 0.28200000 -0.20200000 -0.90200000
v 0.28200000 -0.20200000 -0.89000000
v 0.28200000 -0.19800000 -0.90200000
v 0.28200000 -0.19800000 -0.89000000
v 0.28200000 -0.19400000 -0.90200000
v 0.28200000 -0.19400000 -0.89000000
v 0.28200000 -0.19000000 -0.90200000
v 0.28200000 -0.19000000 -0.89000000
v 0.28200000 -0.19000000 -0.89800000
v 0.28200000 -0.18600000 -0.90200000
v 0.28200000 -0.18600000 -0.89800000
v 0.28200000 -0.19000000 -0.89400000
v 0.28200000 -0.18600000 -0.89400000
v 0.28200000 -0.18600000 -0.89000000
v 0.28600000 -0.21400000 -0.90200000
v 0.28600000 -0.21400000 -0.89800000
v 0.28600000 -0.21000000 -0.90200000
v 0.28600000 -0.21000000 -0.89800000
v 0.28600000 -0.21400000 -0.89400000
v 0.28600000 -0.21000000 -0.89400000
v 0.28600000 -0.21400000 -0.89000000
v 0.28600000 -0.21000000 -0.89000000
v 0.28600000 -0.20600000 -0.90200000
v 0.28600000 -0.20600000 -0.89800000
v 0.28600000 -0.20600000 -0.89400000
v 0.28600000 -0.20600000 -0.89000000
v 0.28600000 -0.20200000 -0.90200000
v 0.28600000 -0.20200000 -0.89800000
v 0.28600000 -0.20200000 -0.89400000
v 0.28600000 -0.20200000 -0.89000000
v 0.28600000 -0.19800000 -0.90200000
v 0.28600000 -0.19800000 -0.89800000
v 0.28600000 -0.19800000 -0.89400000
v 0.28600000 -0.19800000 -0.89000000
v 0.28600000 -0.19400000 -0.90200000
v 0.28600000 -0.19400000 -0.89800000
v 0.28600000 -0.19400000 -0.89400000
v 0.28600000 -0.19400000 -0.89000000
v 0.28600000 -0.19000000 -0.90200000
v 0.28600000 -0.19000000 -0.89800000
v 0.28600000 -0.19000000 -0.89400000
v 0.28600000 -0.19000000 -0.89000000
f 2 4 1
f 5 2 1
f 1 4 3
f 3 5 1
f 6 2 5
f 7 5 3
f 8 9 2
f 6 8 2
f 2 9 4
f 10 8 6
f 11 12 8
f 10 11 8
f 8 12 9
f 11 14 12
f 13 11 10
f 13 14 11
f 4 16 3
f 3 16 15
f 15 7 3
f 16 18 15
f 17 7 15
f 15 18 17
f 9 19 4
f 4 19 16
f 19 20 16
f 16 20 18
f 12 21 9
f 9 21 19
f 12 22 21
f 14 22 12
f 21 22 19
f 19 22 20
f 24 26 23
f 27 24 23
f 23 26 25
f 25 27 23
f 28 24 27
f 29 27 25
f 30 31 24
f 28 30 24
f 24 31 26
f 32 30 28
f 33 34 30
f 32 33 30
f 30 34 31
f 33 36 34
f 35 33 32
f 35 36 33
f 26 38 25
f 25 38 37
f 37 29 25
f 39 29 37
f 31 40 26
f 26 40 38
f 34 41 31
f 31 41 40
f 34 42 41
f 36 42 34
f 38 6 37
f 37 6 5
f 5 39 37
f 43 39 5
f 40 10 38
f 38 10 6
f 41 13 40
f 40 13 10
f 41 44 13
f 42 44 41
f 7 43 5
f 45 43 7
f 13 46 14
f 44 46 13
f 17 45 7
f 47 45 17
f 14 48 22
f 46 48 14
f 18 50 17
f 17 50 49
f 49 47 17
f 51 47 49
f 20 52 18
f 18 52 50
f 22 53 20
f 20 53 52
f 22 54 53
f 48 54 22
f 50 56 49
f 49 56 55
f 55 51 49
f 57 51 55
f 52 58 50
f 50 58 56
f 53 59 52
f 52 59 58
f 53 60 59
f 54 60 53
f 56 62 55
f 55 62 61
f 61 57 55
f 62 64 61
f 63 57 61
f 61 64 63
f 58 65 56
f 56 65 62
f 65 66 62
f 62 66 64
f 59 67 58
f 58 67 65
f 59 68 67
f 60 68 59
f 67 68 65
f 65 68 66
f 70 28 69
f 71 70 69
f 69 28 27
f 27 71 69
f 72 70 71
f 73 71 27
f 74 32 70
f 72 74 70
f 70 32 28
f 75 74 72
f 76 35 74
f 75 76 74
f 74 35 32
f 76 78 35
f 77 76 75
f 77 78 76
f 29 73 27
f 79 73 29
f 35 80 36
f 78 80 35
f 39 79 29
f 81 79 39
f 36 82 42
f 80 82 36
f 43 81 39
f 83 81 43
f 42 84 44
f 82 84 42
f 45 83 43
f 85 83 45
f 44 86 46
f 84 86 44
f 47 85 45
f 87 85 47
f 46 88 48
f 86 88 46
f 51 87 47
f 89 87 51
f 48 90 54
f 88 90 48
f 57 89 51
f 91 89 57
f 54 92 60
f 90 92 54
f 63 91 57
f 93 91 63
f 60 94 68
f 92 94 60
f 64 96 63
f 63 96 95
f 95 93 63
f 96 98 95
f 97 93 95
f 95 98 97
f 66 99 64
f 64 99 96
f 99 100 96
f 96 100 98
f 68 101 66
f 66 101 99
f 68 102 101
f 94 102 68
f 101 102 99
f 99 102 100
f 104 72 103
f 105 104 103
f 103 72 71
f 71 105 103
f 106 104 105
f 107 105 71
f 108 75 104
f 106 108 104
f 104 75 72
f 109 108 106
f 110 77 108
f 109 110 108
f 108 77 75
f 110 112 77
f 111 110 109
f 111 112 110
f 73 107 71
f 113 107 73
f 77 114 78
f 112 114 77
f 79 113 73
f 115 113 79
f 78 116 80
f 114 116 78
f 81 115 79
f 117 115 81
f 80 118 82
f 116 118 80
f 83 117 81
f 119 117 83
f 120 121 82
f 118 120 82
f 82 121 84
f 122 120 118
f 123 124 120
f 122 123 120
f 120 124 121
f 125 123 122
f 126 127 123
f 125 126 123
f 123 127 124
f 128 126 125
f 129 130 126
f 128 129 126
f 126 130 127
f 131 129 128
f 132 133 129
f 131 132 129
f 129 133 130
f 134 132 131
f 135 136 132
f 134 135 132
f 132 136 133
f 137 135 134
f 138 139 135
f 137 138 135
f 135 139 136
f 140 138 137
f 141 142 138
f 140 141 138
f 138 142 139
f 143 141 140
f 144 145 141
f 143 144 141
f 141 145 142
f 146 144 143
f 147 148 144
f 146 147 144
f 144 148 145
f 147 150 148
f 149 147 146
f 149 150 147
f 85 119 83
f 151 119 85
f 121 152 84
f 84 152 86
f 124 153 121
f 121 153 152
f 127 154 124
f 124 154 153
f 130 155 127
f 127 155 154
f 133 156 130
f 130 156 155
f 136 157 133
f 133 157 156
f 139 158 136
f 136 158 157
f 142 159 139
f 139 159 158
f 145 160 142
f 142 160 159
f 148 161 145
f 145 161 160
f 148 162 161
f 150 162 148
f 87 151 85
f 163 151 87
f 152 164 86
f 86 164 88
f 153 165 152
f 152 165 164
f 154 166 153
f 153 166 165
f 155 167 154
f 154 167 166
f 156 168 155
f 155 168 167
f 157 169 156
f 156 169 168
f 158 170 157
f 157 170 169
f 159 171 158
f 158 171 170
f 160 172 159
f 159 172 171
f 161 173 160
f 160 173 172
f 161 174 173
f 162 174 161
f 89 163 87
f 175 163 89
f 164 176 88
f 88 176 90
f 176 178 90
f 90 178 177
f 165 179 164
f 164 179 176
f 179 180 176
f 176 180 178
f 166 181 165
f 165 181 179
f 181 182 179
f 179 182 180
f 167 183 166
f 166 183 181
f 183 184 181
f 181 184 182
f 168 185 167
f 167 185 183
f 185 186 183
f 183 186 184
f 169 187 168
f 168 187 185
f 187 188 185
f 185 188 186
f 170 189 169
f 169 189 187
f 189 190 187
f 187 190 188
f 171 191 170
f 170 191 189
f 191 192 189
f 189 192 190
f 172 193 171
f 171 193 191
f 193 194 191
f 191 194 192
f 173 195 172
f 172 195 193
f 173 196 195
f 174 196 173
f 195 196 193
f 193 196 194
f 91 175 89
f 197 175 91
f 90 198 92
f 177 198 90
f 93 197 91
f 199 197 93
f 92 200 94
f 198 200 92
f 97 199 93
f 201 199 97
f 94 202 102
f 200 202 94
f 98 204 97
f 97 204 203
f 203 201 97
f 204 206 203
f 205 201 203
f 203 206 205
f 100 207 98
f 98 207 204
f 207 208 204
f 204 208 206
f 102 209 100
f 100 209 207
f 102 210 209
f 202 210 102
f 209 210 207
f 207 210 208
f 212 106 211
f 213 212 211
f 211 106 105
f 105 213 211
f 214 212 213
f 215 213 105
f 216 109 212
f 214 216 212
f 212 109 106
f 217 216 214
f 218 111 216
f 217 218 216
f 216 111 109
f 218 220 111
f 219 218 217
f 219 220 218
f 107 215 105
f 221 215 107
f 111 222 112
f 220 222 111
f 113 221 107
f 223 221 113
f 112 224 114
f 222 224 112
f 115 223 113
f 225 223 115
f 226 227 114
f 224 226 114
f 114 227 116
f 228 226 224
f 229 230 226
f 228 229 226
f 226 230 227
f 231 229 228
f 232 233 229
f 231 232 229
f 229 233 230
f 234 232 231
f 235 236 232
f 234 235 232
f 232 236 233
f 237 235 234
f 238 239 235
f 237 238 235
f 235 239 236
f 240 238 237
f 241 242 238
f 240 241 238
f 238 242 239
f 243 241 240
f 244 245 241
f 243 244 241
f 241 245 242
f 246 244 243
f 247 248 244
f 246 247 244
f 244 248 245
f 249 247 246
f 250 251 247
f 249 250 247
f 247 251 248
f 252 250 249
f 253 254 250
f 252 253 250
f 250 254 251
f 253 256 254
f 255 253 252
f 255 256 253
f 117 225 115
f 257 225 117
f 227 122 116
f 116 122 118
f 230 125 227
f 227 125 122
f 233 128 230
f 230 128 125
f 236 131 233
f 233 131 128
f 239 134 236
f 236 134 131
f 242 137 239
f 239 137 134
f 245 140 242
f 242 140 137
f 248 143 245
f 245 143 140
f 251 146 248
f 248 146 143
f 254 149 251
f 251 149 146
f 254 258 149
f 256 258 254
f 119 257 117
f 259 257 119
f 149 260 150
f 258 260 149
f 151 259 119
f 261 259 151
f 150 262 162
f 260 262 150
f 163 261 151
f 263 261 163
f 162 264 174
f 262 264 162
f 175 263 163
f 265 263 175
f 174 266 196
f 264 266 174
f 197 265 175
f 267 265 197
f 178 268 177
f 177 268 198
f 180 269 178
f 178 269 268
f 182 270 180
f 180 270 269
f 184 271 182
f 182 271 270
f 186 272 184
f 184 272 271
f 188 273 186
f 186 273 272
f 190 274 188
f 188 274 273
f 192 275 190
f 190 275 274
f 194 276 192
f 192 276 275
f 196 277 194
f 194 277 276
f 196 278 277
f 266 278 196
f 199 267 197
f 279 267 199
f 268 280 198
f 198 280 200
f 280 282 200
f 200 282 281
f 269 283 268
f 268 283 280
f 283 284 280
f 280 284 282
f 270 285 269
f 269 285 283
f 285 286 283
f 283 286 284
f 271 287 270
f 270 287 285
f 287 288 285
f 285 288 286
f 272 289 271
f 271 289 287
f 289 290 287
f 287 290 288
f 273 291 272
f 272 291 289
f 291 292 289
f 289 292 290
f 274 293 273
f 273 293 291
f 293 294 291
f 291 294 292
f 275 295 274
f 274 295 293
f 295 296 293
f 293 296 294
f 276 297 275
f 275 297 295
f 297 298 295
f 295 298 296
f 277 299 276
f 276 299 297
f 277 300 299
f 278 300 277
f 299 300 297
f 297 300 298
f 201 279 199
f 301 279 201
f 200 302 202
f 281 302 200
f 205 301 201
f 303 301 205
f 202 304 210
f 302 304 202
f 206 306 205
f 205 306 305
f 305 303 205
f 306 308 305
f 307 303 305
f 305 308 307
f 208 309 206
f 206 309 306
f 309 310 306
f 306 310 308
f 210 311 208
f 208 311 309
f 210 312 311
f 304 312 210
f 311 312 309
f 309 312 310
f 313 214 213
f 215 313 213
f 314 214 313
f 315 313 215
f 314 217 214
f 316 217 314
f 316 219 217
f 219 318 220
f 317 219 316
f 317 318 219
f 221 315 215
f 319 315 221
f 220 320 222
f 318 320 220
f 223 319 221
f 321 319 223
f 322 228 222
f 320 322 222
f 222 228 224
f 323 322 320
f 324 231 322
f 323 324 322
f 322 231 228
f 325 324 323
f 326 234 324
f 325 326 324
f 324 234 231
f 327 326 325
f 328 237 326
f 327 328 326
f 326 237 234
f 329 328 327
f 330 240 328
f 329 330 328
f 328 240 237
f 331 330 329
f 332 243 330
f 331 332 330
f 330 243 240
f 333 332 331
f 334 246 332
f 333 334 332
f 332 246 243
f 335 334 333
f 336 249 334
f 335 336 334
f 334 249 246
f 337 336 335
f 338 252 336
f 337 338 336
f 336 252 249
f 339 338 337
f 340 255 338
f 339 340 338
f 338 255 252
f 340 342 255
f 341 340 339
f 341 342 340
f 225 321 223
f 343 321 225
f 255 344 256
f 342 344 255
f 257 343 225
f 345 343 257
f 256 346 258
f 344 346 256
f 259 345 257
f 347 345 259
f 258 348 260
f 346 348 258
f 261 347 259
f 349 347 261
f 260 350 262
f 348 350 260
f 263 349 261
f 351 349 263
f 262 352 264
f 350 352 262
f 265 351 263
f 353 351 265
f 264 354 266
f 352 354 264
f 267 353 265
f 355 353 267
f 266 356 278
f 354 356 266
f 279 355 267
f 357 355 279
f 282 359 281
f 281 359 358
f 284 360 282
f 282 360 359
f 286 361 284
f 284 361 360
f 288 362 286
f 286 362 361
f 290 363 288
f 288 363 362
f 292 364 290
f 290 364 363
f 294 365 292
f 292 365 364
f 296 366 294
f 294 366 365
f 298 367 296
f 296 367 366
f 278 368 300
f 356 368 278
f 300 368 298
f 298 368 367
f 301 357 279
f 369 357 301
f 281 370 302
f 358 370 281
f 303 369 301
f 371 369 303
f 302 372 304
f 370 372 302
f 307 371 303
f 308 374 307
f 373 371 307
f 307 374 373
f 310 375 308
f 308 375 374
f 304 376 312
f 372 376 304
f 312 376 310
f 310 376 375
f 377 314 313
f 315 377 313
f 378 314 377
f 379 377 315
f 378 316 314
f 380 316 378
f 380 317 316
f 317 382 318
f 381 317 380
f 381 382 317
f 319 379 315
f 383 379 319
f 318 384 320
f 382 384 318
f 321 383 319
f 385 383 321
f 384 323 320
f 386 323 384
f 386 325 323
f 387 325 386
f 387 327 325
f 388 327 387
f 388 329 327
f 389 329 388
f 389 331 329
f 390 331 389
f 390 333 331
f 391 333 390
f 391 335 333
f 392 335 391
f 392 337 335
f 393 337 392
f 393 339 337
f 394 339 393
f 394 341 339
f 341 396 342
f 395 341 394
f 395 396 341
f 343 385 321
f 397 385 343
f 342 398 344
f 396 398 342
f 345 397 343
f 399 397 345
f 344 400 346
f 398 400 344
f 347 399 345
f 401 399 347
f 346 402 348
f 400 402 346
f 349 401 347
f 403 401 349
f 348 404 350
f 402 404 348
f 351 403 349
f 405 403 351
f 350 406 352
f 404 406 350
f 353 405 351
f 407 405 353
f 352 408 354
f 406 408 352
f 355 407 353
f 409 407 355
f 354 410 356
f 408 410 354
f 357 409 355
f 411 409 357
f 356 412 368
f 410 412 356
f 369 411 357
f 413 411 369
f 359 414 358
f 358 414 370
f 414 416 370
f 370 416 415
f 360 417 359
f 359 417 414
f 417 418 414
f 414 418 416
f 361 419 360
f 360 419 417
f 419 420 417
f 417 420 418
f 362 421 361
f 361 421 419
f 421 422 419
f 419 422 420
f 363 423 362
f 362 423 421
f 423 424 421
f 421 424 422
f 364 425 363
f 363 425 423
f 425 426 423
f 423 426 424
f 365 427 364
f 364 427 425
f 427 428 425
f 425 428 426
f 366 429 365
f 365 429 427
f 429 430 427
f 427 430 428
f 367 431 366
f 366 431 429
f 431 432 429
f 429 432 430
f 368 433 367
f 367 433 431
f 368 434 433
f 412 434 368
f 433 434 431
f 431 434 432
f 371 413 369
f 435 413 371
f 370 436 372
f 415 436 370
f 373 435 371
f 374 438 373
f 437 435 373
f 373 438 437
f 375 439 374
f 374 439 438
f 372 440 376
f 436 440 372
f 376 440 375
f 375 440 439
f 442 378 441
f 443 442 441
f 441 378 377
f 377 443 441
f 444 442 443
f 445 443 377
f 446 380 442
f 444 446 442
f 442 380 378
f 447 446 444
f 448 381 446
f 447 448 446
f 446 381 380
f 448 450 381
f 449 448 447
f 449 450 448
f 379 445 377
f 451 445 379
f 381 452 382
f 450 452 381
f 383 451 379
f 453 451 383
f 382 454 384
f 452 454 382
f 385 453 383
f 455 453 385
f 454 386 384
f 456 386 454
f 456 387 386
f 457 387 456
f 457 388 387
f 458 388 457
f 458 389 388
f 459 389 458
f 459 390 389
f 460 390 459
f 460 391 390
f 461 391 460
f 461 392 391
f 462 392 461
f 462 393 392
f 463 393 462
f 463 394 393
f 464 394 463
f 464 395 394
f 395 466 396
f 465 395 464
f 465 466 395
f 397 455 385
f 467 455 397
f 396 468 398
f 466 468 396
f 399 467 397
f 469 467 399
f 398 470 400
f 468 470 398
f 401 469 399
f 471 469 401
f 400 472 402
f 470 472 400
f 403 471 401
f 473 471 403
f 402 474 404
f 472 474 402
f 405 473 403
f 475 473 405
f 404 476 406
f 474 476 404
f 407 475 405
f 477 475 407
f 406 478 408
f 476 478 406
f 409 477 407
f 479 477 409
f 408 480 410
f 478 480 408
f 411 479 409
f 481 479 411
f 410 482 412
f 480 482 410
f 413 481 411
f 483 481 413
f 416 485 415
f 415 485 484
f 418 486 416
f 416 486 485
f 420 487 418
f 418 487 486
f 422 488 420
f 420 488 487
f 424 489 422
f 422 489 488
f 426 490 424
f 424 490 489
f 428 491 426
f 426 491 490
f 430 492 428
f 428 492 491
f 432 493 430
f 430 493 492
f 412 494 434
f 482 494 412
f 434 494 432
f 432 494 493
f 435 483 413
f 495 483 435
f 415 496 436
f 484 496 415
f 437 495 435
f 438 498 437
f 497 495 437
f 437 498 497
f 439 499 438
f 438 499 498
f 436 500 440
f 496 500 436
f 440 500 439
f 439 500 499
f 501 444 443
f 445 501 443
f 502 444 501
f 503 501 445
f 502 447 444
f 504 447 502
f 504 449 447
f 449 506 450
f 505 449 504
f 505 506 449
f 451 503 445
f 507 503 451
f 450 508 452
f 506 508 450
f 453 507 451
f 509 507 453
f 452 510 454
f 508 510 452
f 455 509 453
f 511 509 455
f 510 456 454
f 512 456 510
f 512 457 456
f 513 457 512
f 513 458 457
f 514 458 513
f 514 459 458
f 515 459 514
f 515 460 459
f 516 460 515
f 516 461 460
f 517 461 516
f 517 462 461
f 518 462 517
f 518 463 462
f 519 463 518
f 519 464 463
f 520 464 519
f 520 465 464
f 465 522 466
f 521 465 520
f 521 522 465
f 467 511 455
f 523 511 467
f 466 524 468
f 522 524 466
f 469 523 467
f 525 523 469
f 468 526 470
f 524 526 468
f 471 525 469
f 527 525 471
f 470 528 472
f 526 528 470
f 473 527 471
f 529 527 473
f 472 530 474
f 528 530 472
f 475 529 473
f 531 529 475
f 474 532 476
f 530 532 474
f 477 531 475
f 533 531 477
f 476 534 478
f 532 534 476
f 479 533 477
f 535 533 479
f 478 536 480
f 534 536 478
f 481 535 479
f 537 535 481
f 480 538 482
f 536 538 480
f 483 537 481
f 539 537 483
f 485 541 484
f 484 541 540
f 486 542 485
f 485 542 541
f 487 543 486
f 486 543 542
f 488 544 487
f 487 544 543
f 489 545 488
f 488 545 544
f 490 546 489
f 489 546 545
f 491 547 490
f 490 547 546
f 492 548 491
f 491 548 547
f 493 549 492
f 492 549 548
f 482 550 494
f 538 550 482
f 494 550 493
f 493 550 549
f 495 539 483
f 551 539 495
f 484 552 496
f 540 552 484
f 497 551 495
f 498 554 497
f 553 551 497
f 497 554 553
f 499 555 498
f 498 555 554
f 496 556 500
f 552 556 496
f 500 556 499
f 499 556 555
f 557 502 501
f 503 557 501
f 558 502 557
f 559 557 503
f 558 504 502
f 560 504 558
f 560 505 504
f 505 562 506
f 561 505 560
f 561 562 505
f 507 559 503
f 563 559 507
f 506 564 508
f 562 564 506
f 509 563 507
f 565 563 509
f 508 566 510
f 564 566 508
f 511 565 509
f 567 565 511
f 566 512 510
f 568 512 566
f 568 513 512
f 569 513 568
f 569 514 513
f 570 514 569
f 570 515 514
f 571 515 570
f 571 516 515
f 572 516 571
f 572 517 516
f 573 517 572
f 573 518 517
f 574 518 573
f 574 519 518
f 575 519 574
f 575 520 519
f 576 520 575
f 576 521 520
f 521 578 522
f 577 521 576
f 577 578 521
f 523 567 511
f 579 567 523
f 522 580 524
f 578 580 522
f 525 579 523
f 581 579 525
f 524 582 526
f 580 582 524
f 527 581 525
f 583 581 527
f 526 584 528
f 582 584 526
f 529 583 527
f 585 583 529
f 528 586 530
f 584 586 528
f 531 585 529
f 587 585 531
f 530 588 532
f 586 588 530
f 533 587 531
f 589 587 533
f 532 590 534
f 588 590 532
f 535 589 533
f 591 589 535
f 534 592 536
f 590 592 534
f 537 591 535
f 593 591 537
f 536 594 538
f 592 594 536
f 539 593 537
f 595 593 539
f 541 597 540
f 540 597 596
f 542 598 541
f 541 598 597
f 543 599 542
f 542 599 598
f 544 600 543
f 543 600 599
f 545 601 544
f 544 601 600
f 546 602 545
f 545 602 601
f 547 603 546
f 546 603 602
f 548 604 547
f 547 604 603
f 549 605 548
f 548 605 604
f 538 606 550
f 594 606 538
f 550 606 549
f 549 606 605
f 551 595 539
f 607 595 551
f 540 608 552
f 596 608 540
f 553 607 551
f 554 610 553
f 609 607 553
f 553 610 609
f 555 611 554
f 554 611 610
f 552 612 556
f 608 612 552
f 556 612 555
f 555 612 611
f 613 558 557
f 559 613 557
f 614 558 613
f 615 613 559
f 615 614 613
f 616 614 615
f 614 560 558
f 617 560 614
f 616 617 614
f 618 617 616
f 617 561 560
f 561 620 562
f 619 561 617
f 619 620 561
f 618 619 617
f 620 619 618
f 563 615 559
f 621 615 563
f 562 622 564
f 620 622 562
f 565 621 563
f 623 621 565
f 564 624 566
f 622 624 564
f 567 623 565
f 625 623 567
f 624 568 566
f 626 568 624
f 626 569 568
f 627 569 626
f 627 570 569
f 628 570 627
f 628 571 570
f 629 571 628
f 629 572 571
f 630 572 629
f 630 573 572
f 631 573 630
f 631 574 573
f 632 574 631
f 632 575 574
f 633 575 632
f 633 576 575
f 634 576 633
f 634 577 576
f 577 636 578
f 635 577 634
f 635 636 577
f 579 625 567
f 637 625 579
f 578 638 580
f 636 638 578
f 581 637 579
f 639 637 581
f 580 640 582
f 638 640 580
f 583 639 581
f 641 639 583
f 582 642 584
f 640 642 582
f 585 641 583
f 643 641 585
f 584 644 586
f 642 644 584
f 587 643 585
f 645 643 587
f 586 646 588
f 644 646 586
f 589 645 587
f 647 645 589
f 588 648 590
f 646 648 588
f 591 647 589
f 649 647 591
f 590 650 592
f 648 650 590
f 593 649 591
f 651 649 593
f 592 652 594
f 650 652 592
f 595 651 593
f 653 651 595
f 597 655 596
f 596 655 654
f 598 656 597
f 597 656 655
f 599 657 598
f 598 657 656
f 600 658 599
f 599 658 657
f 601 659 600
f 600 659 658
f 602 660 601
f 601 660 659
f 603 661 602
f 602 661 660
f 604 662 603
f 603 662 661
f 605 663 604
f 604 663 662
f 594 664 606
f 652 664 594
f 606 664 605
f 605 664 663
f 607 653 595
f 665 653 607
f 596 666 608
f 654 666 596
f 609 665 607
f 610 668 609
f 667 665 609
f 609 668 667
f 611 669 610
f 610 669 668
f 608 670 612
f 666 670 608
f 612 670 611
f 611 670 669
f 671 616 615
f 621 671 615
f 672 616 671
f 673 671 621
f 672 618 616
f 674 618 672
f 674 620 618
f 620 676 622
f 675 620 674
f 675 676 620
f 623 673 621
f 677 673 623
f 622 678 624
f 676 678 622
f 625 677 623
f 679 677 625
f 678 626 624
f 680 626 678
f 681 680 678
f 682 680 681
f 680 627 626
f 683 627 680
f 682 683 680
f 684 683 682
f 683 628 627
f 685 628 683
f 684 685 683
f 686 685 684
f 685 629 628
f 687 629 685
f 686 687 685
f 688 687 686
f 687 630 629
f 689 630 687
f 688 689 687
f 690 689 688
f 689 631 630
f 691 631 689
f 690 691 689
f 692 691 690
f 691 632 631
f 693 632 691
f 692 693 691
f 694 693 692
f 693 633 632
f 695 633 693
f 694 695 693
f 696 695 694
f 695 634 633
f 697 634 695
f 696 697 695
f 698 697 696
f 697 635 634
f 635 700 636
f 699 635 697
f 699 700 635
f 698 699 697
f 700 699 698
f 637 679 625
f 701 679 637
f 636 702 638
f 700 702 636
f 639 701 637
f 703 701 639
f 638 704 640
f 702 704 638
f 641 703 639
f 705 703 641
f 640 706 642
f 704 706 640
f 643 705 641
f 707 705 643
f 642 708 644
f 706 708 642
f 645 707 643
f 709 707 645
f 644 710 646
f 708 710 644
f 647 709 645
f 711 709 647
f 646 712 648
f 710 712 646
f 649 711 647
f 713 711 649
f 648 714 650
f 712 714 648
f 651 713 649
f 715 713 651
f 650 716 652
f 714 716 650
f 653 715 651
f 717 715 653
f 655 721 654
f 654 721 720
f 720 719 718
f 721 719 720
f 656 723 655
f 655 723 721
f 721 722 719
f 723 722 721
f 657 725 656
f 656 725 723
f 723 724 722
f 725 724 723
f 658 727 657
f 657 727 725
f 725 726 724
f 727 726 725
f 659 729 658
f 658 729 727
f 727 728 726
f 729 728 727
f 660 731 659
f 659 731 729
f 729 730 728
f 731 730 729
f 661 733 660
f 660 733 731
f 731 732 730
f 733 732 731
f 662 735 661
f 661 735 733
f 733 734 732
f 735 734 733
f 663 737 662
f 662 737 735
f 735 736 734
f 737 736 735
f 652 738 664
f 716 738 652
f 664 738 663
f 663 738 737
f 737 716 736
f 738 716 737
f 665 717 653
f 739 717 665
f 654 740 666
f 720 740 654
f 667 739 665
f 668 742 667
f 741 739 667
f 667 742 741
f 669 743 668
f 668 743 742
f 666 744 670
f 740 744 666
f 670 744 669
f 669 744 743
f 745 672 671
f 673 745 671
f 746 672 745
f 747 745 673
f 747 746 745
f 748 746 747
f 746 674 672
f 749 674 746
f 748 749 746
f 750 749 748
f 749 675 674
f 675 752 676
f 751 675 749
f 751 752 675
f 750 751 749
f 752 751 750
f 677 747 673
f 753 747 677
f 676 754 678
f 752 754 676
f 679 753 677
f 755 753 679
f 678 756 681
f 754 756 678
f 701 755 679
f 757 755 701
f 756 682 681
f 758 682 756
f 759 758 756
f 760 758 759
f 758 684 682
f 761 684 758
f 760 761 758
f 762 761 760
f 761 686 684
f 763 686 761
f 762 763 761
f 764 763 762
f 763 688 686
f 765 688 763
f 764 765 763
f 766 765 764
f 765 690 688
f 767 690 765
f 766 767 765
f 768 767 766
f 767 692 690
f 769 692 767
f 768 769 767
f 770 769 768
f 769 694 692
f 771 694 769
f 770 771 769
f 772 771 770
f 771 696 694
f 773 696 771
f 772 773 771
f 774 773 772
f 773 698 696
f 775 698 773
f 774 775 773
f 776 775 774
f 775 700 698
f 700 778 702
f 777 700 775
f 777 778 700
f 776 777 775
f 778 777 776
f 703 757 701
f 779 757 703
f 702 780 704
f 778 780 702
f 705 779 703
f 781 779 705
f 704 782 706
f 780 782 704
f 707 781 705
f 783 781 707
f 706 784 708
f 782 784 706
f 709 783 707
f 785 783 709
f 708 786 710
f 784 786 708
f 711 785 709
f 787 785 711
f 710 788 712
f 786 788 710
f 713 787 711
f 789 787 713
f 712 790 714
f 788 790 712
f 715 789 713
f 791 789 715
f 719 795 718
f 718 795 794
f 794 793 792
f 795 793 794
f 722 797 719
f 719 797 795
f 795 796 793
f 797 796 795
f 724 799 722
f 722 799 797
f 797 798 796
f 799 798 797
f 726 801 724
f 724 801 799
f 799 800 798
f 801 800 799
f 728 803 726
f 726 803 801
f 801 802 800
f 803 802 801
f 730 805 728
f 728 805 803
f 803 804 802
f 805 804 803
f 732 807 730
f 730 807 805
f 805 806 804
f 807 806 805
f 734 809 732
f 732 809 807
f 807 808 806
f 809 808 807
f 736 811 734
f 734 811 809
f 809 810 808
f 811 810 809
f 714 812 716
f 790 812 714
f 716 812 736
f 736 812 811
f 811 790 810
f 812 790 811
f 717 791 715
f 813 791 717
f 718 814 720
f 794 814 718
f 739 813 717
f 815 813 739
f 720 816 740
f 814 816 720
f 741 815 739
f 742 819 741
f 818 815 741
f 741 819 818
f 818 817 815
f 819 817 818
f 743 821 742
f 742 821 819
f 819 820 817
f 821 820 819
f 740 822 744
f 816 822 740
f 744 822 743
f 743 822 821
f 821 816 820
f 822 816 821
f 823 748 747
f 753 823 747
f 824 748 823
f 825 823 753
f 825 824 823
f 826 824 825
f 824 750 748
f 827 750 824
f 826 827 824
f 828 827 826
f 827 752 750
f 752 830 754
f 829 752 827
f 829 830 752
f 828 829 827
f 830 829 828
f 755 825 753
f 831 825 755
f 754 832 756
f 830 832 754
f 757 831 755
f 833 831 757
f 756 834 759
f 832 834 756
f 779 833 757
f 835 833 779
f 834 760 759
f 836 760 834
f 837 836 834
f 838 836 837
f 836 762 760
f 839 762 836
f 838 839 836
f 840 839 838
f 839 764 762
f 841 764 839
f 840 841 839
f 842 841 840
f 841 766 764
f 843 766 841
f 842 843 841
f 844 843 842
f 843 768 766
f 845 768 843
f 844 845 843
f 846 845 844
f 845 770 768
f 847 770 845
f 846 847 845
f 848 847 846
f 847 772 770
f 849 772 847
f 848 849 847
f 850 849 848
f 849 774 772
f 851 774 849
f 850 851 849
f 852 851 850
f 851 776 774
f 853 776 851
f 852 853 851
f 854 853 852
f 853 778 776
f 778 856 780
f 855 778 853
f 855 856 778
f 854 855 853
f 856 855 854
f 781 835 779
f 857 835 781
f 858 838 837
f 859 838 858
f 859 840 838
f 860 840 859
f 860 842 840
f 861 842 860
f 861 844 842
f 862 844 861
f 862 846 844
f 863 846 862
f 863 848 846
f 864 848 863
f 864 850 848
f 865 850 864
f 865 852 850
f 866 852 865
f 866 854 852
f 867 854 866
f 780 868 782
f 856 868 780
f 867 856 854
f 868 856 867
f 783 857 781
f 869 857 783
f 870 859 858
f 871 859 870
f 871 860 859
f 872 860 871
f 872 861 860
f 873 861 872
f 873 862 861
f 874 862 873
f 874 863 862
f 875 863 874
f 875 864 863
f 876 864 875
f 876 865 864
f 877 865 876
f 877 866 865
f 878 866 877
f 878 867 866
f 879 867 878
f 782 880 784
f 868 880 782
f 879 868 867
f 880 868 879
f 785 869 783
f 881 869 785
f 882 871 870
f 883 871 882
f 883 872 871
f 884 872 883
f 884 873 872
f 885 873 884
f 885 874 873
f 886 874 885
f 886 875 874
f 887 875 886
f 887 876 875
f 888 876 887
f 888 877 876
f 889 877 888
f 889 878 877
f 890 878 889
f 890 879 878
f 891 879 890
f 784 892 786
f 880 892 784
f 891 880 879
f 892 880 891
f 787 881 785
f 893 881 787
f 894 883 882
f 895 883 894
f 895 884 883
f 896 884 895
f 896 885 884
f 897 885 896
f 897 886 885
f 898 886 897
f 898 887 886
f 899 887 898
f 899 888 887
f 900 888 899
f 900 889 888
f 901 889 900
f 901 890 889
f 902 890 901
f 902 891 890
f 903 891 902
f 786 904 788
f 892 904 786
f 903 892 891
f 904 892 903
f 789 893 787
f 905 893 789
f 793 907 792
f 792 907 906
f 906 895 894
f 907 895 906
f 796 908 793
f 793 908 907
f 907 896 895
f 908 896 907
f 798 909 796
f 796 909 908
f 908 897 896
f 909 897 908
f 800 910 798
f 798 910 909
f 909 898 897
f 910 898 909
f 802 911 800
f 800 911 910
f 910 899 898
f 911 899 910
f 804 912 802
f 802 912 911
f 911 900 899
f 912 900 911
f 806 913 804
f 804 913 912
f 912 901 900
f 913 901 912
f 808 914 806
f 806 914 913
f 913 902 901
f 914 902 913
f 810 915 808
f 808 915 914
f 914 903 902
f 915 903 914
f 788 916 790
f 904 916 788
f 790 916 810
f 810 916 915
f 915 904 903
f 916 904 915
f 791 905 789
f 917 905 791
f 792 918 794
f 906 918 792
f 813 917 791
f 919 917 813
f 794 920 814
f 918 920 794
f 815 919 813
f 817 923 815
f 922 919 815
f 815 923 922
f 922 921 919
f 923 921 922
f 820 925 817
f 817 925 923
f 923 924 921
f 925 924 923
f 814 926 816
f 920 926 814
f 816 926 820
f 820 926 925
f 925 920 924
f 926 920 925
f 927 826 825
f 831 927 825
f 928 826 927
f 929 927 831
f 929 928 927
f 930 928 929
f 928 828 826
f 931 828 928
f 930 931 928
f 932 931 930
f 931 830 828
f 830 934 832
f 933 830 931
f 933 934 830
f 932 933 931
f 934 933 932
f 833 929 831
f 935 929 833
f 832 936 834
f 934 936 832
f 835 935 833
f 937 935 835
f 834 938 837
f 936 938 834
f 857 937 835
f 939 937 857
f 837 940 858
f 938 940 837
f 869 939 857
f 941 939 869
f 858 942 870
f 940 942 858
f 881 941 869
f 943 941 881
f 870 944 882
f 942 944 870
f 893 943 881
f 945 943 893
f 882 946 894
f 944 946 882
f 905 945 893
f 947 945 905
f 894 948 906
f 946 948 894
f 917 947 905
f 949 947 917
f 906 950 918
f 948 950 906
f 919 949 917
f 921 953 919
f 952 949 919
f 919 953 952
f 952 951 949
f 953 951 952
f 924 955 921
f 921 955 953
f 953 954 951
f 955 954 953
f 918 956 920
f 950 956 918
f 920 956 924
f 924 956 955
f 955 950 954
f 956 950 955
f 957 930 929
f 935 957 929
f 958 930 957
f 959 957 935
f 959 958 957
f 960 958 959
f 958 932 930
f 961 932 958
f 960 961 958
f 962 961 960
f 961 934 932
f 934 964 936
f 963 934 961
f 963 964 934
f 962 963 961
f 964 963 962
f 937 959 935
f 965 959 937
f 936 966 938
f 964 966 936
f 939 965 937
f 967 965 939
f 938 968 940
f 966 968 938
f 941 967 939
f 969 967 941
f 940 970 942
f 968 970 940
f 943 969 941
f 971 969 943
f 942 972 944
f 970 972 942
f 945 971 943
f 973 971 945
f 944 974 946
f 972 974 944
f 947 973 945
f 975 973 947
f 946 976 948
f 974 976 946
f 949 975 947
f 951 979 949
f 978 975 949
f 949 979 978
f 978 977 975
f 979 977 978
f 954 981 951
f 951 981 979
f 979 980 977
f 981 980 979
f 948 982 950
f 976 982 948
f 950 982 954
f 954 982 981
f 981 976 980
f 982 976 981
f 983 960 959
f 965 983 959
f 984 960 983
f 985 983 965
f 985 984 983
f 986 984 985
f 984 962 960
f 987 962 984
f 986 987 984
f 988 987 986
f 987 964 962
f 964 990 966
f 989 964 987
f 989 990 964
f 988 989 987
f 990 989 988
f 967 985 965
f 991 985 967
f 991 986 985
f 992 986 991
f 992 988 986
f 993 988 992
f 966 994 968
f 990 994 966
f 993 990 988
f 994 990 993
f 969 991 967
f 995 991 969
f 995 992 991
f 996 992 995
f 996 993 992
f 997 993 996
f 968 998 970
f 994 998 968
f 997 994 993
f 998 994 997
f 971 995 969
f 999 995 971
f 999 996 995
f 1000 996 999
f 1000 997 996
f 1001 997 1000
f 970 1002 972
f 998 1002 970
f 1001 998 997
f 1002 998 1001
f 973 999 971
f 1003 999 973
f 1003 1000 999
f 1004 1000 1003
f 1004 1001 1000
f 1005 1001 1004
f 972 1006 974
f 1002 1006 972
f 1005 1002 1001
f 1006 1002 1005
f 975 1003 973
f 977 1008 975
f 1007 1003 975
f 975 1008 1007
f 1007 1004 1003
f 1008 1004 1007
f 980 1009 977
f 977 1009 1008
f 1008 1005 1004
f 1009 1005 1008
f 974 1010 976
f 1006 1010 974
f 976 1010 980
f 980 1010 1009
f 1009 1006 1005
f 1010 1006 1009

