# https://github.com/mikedh/trimesh

o 0.obj
v 0.33597416 0.09002160 0.50000000
v 0.33597416 -0.09002603 0.50000000
v 0.34782607 0.00000032 0.50000000
v 0.30122575 0.17391319 0.50000000
v 0.34782607 0.00000032 -0.50000000
v 0.33597416 0.09002160 -0.50000000
v 0.30122575 0.17391319 -0.50000000
v 0.31382616 0.00000032 0.50000000
v 0.33597416 -0.09002603 -0.50000000
v 0.24594781 0.24594781 -0.50000000
v 0.30313463 0.08122188 0.50000000
v 0.30122575 -0.17391319 0.50000000
v 0.24594781 0.24594781 0.50000000
v 0.27178261 0.15691292 -0.50000000
v 0.27178261 0.15691292 0.50000000
v 0.31382616 0.00000032 -0.45652210
v 0.30313463 -0.08122567 0.50000000
v 0.30122575 -0.17391319 -0.50000000
v 0.31382616 0.00000032 -0.50000000
v 0.17391319 0.30122575 0.50000000
v 0.30313463 0.08122188 -0.50000000
v 0.22190801 0.22190864 -0.50000000
v 0.30313463 0.08122188 -0.45652210
v 0.30313463 -0.08122567 -0.45652210
v 0.27178261 -0.15691735 0.50000000
v 0.24594781 -0.24595224 0.50000000
v 0.17391319 0.30122575 -0.50000000
v 0.22190801 0.22190864 0.50000000
v 0.27178261 0.15691292 -0.45652210
v 0.27178261 -0.15691735 -0.45652210
v 0.24594781 -0.24595224 -0.50000000
v 0.30313463 -0.08122567 -0.50000000
v 0.09002160 0.33597416 0.50000000
v 0.15691292 0.27178261 0.50000000
v 0.15691292 0.27178261 -0.50000000
v 0.22190801 0.22190864 -0.45652210
v 0.22190801 -0.22191307 -0.45652210
v 0.22190801 -0.22191307 0.50000000
v 0.17391319 -0.30122638 -0.50000000
v 0.27178261 -0.15691735 -0.50000000
v 0.09002160 0.33597416 -0.50000000
v 0.15691292 0.27178261 -0.45652210
v 0.17391319 -0.30122638 0.50000000
v 0.22190801 -0.22191307 -0.50000000
v -0.00000032 0.34782607 0.50000000
v 0.08122188 0.30313463 0.50000000
v 0.08122188 0.30313463 -0.45652210
v 0.08122188 0.30313463 -0.50000000
v 0.15691292 -0.27178261 0.50000000
v 0.09002160 -0.33597416 -0.50000000
v 0.15691292 -0.27178261 -0.50000000
v -0.00000032 0.34782607 -0.50000000
v 0.08122188 -0.30313527 -0.45652210
v 0.15691292 -0.27178261 -0.45652210
v 0.09002160 -0.33597416 0.50000000
v -0.09002603 0.33597416 0.50000000
v -0.00000032 0.31382616 0.50000000
v -0.00000032 0.31382616 -0.45652210
v -0.00000032 -0.31382996 -0.45652210
v -0.00000032 0.31382616 -0.50000000
v 0.08122188 -0.30313527 0.50000000
v -0.00000032 -0.34782607 -0.50000000
v 0.08122188 -0.30313527 -0.50000000
v -0.09002603 0.33597416 -0.50000000
v -0.00000032 -0.31382996 0.50000000
v -0.00000032 -0.31382996 -0.50000000
v -0.00000032 -0.34782607 0.50000000
v -0.17391319 0.30122575 0.50000000
v -0.08122631 0.30313463 0.50000000
v -0.08122631 0.30313463 -0.45652210
v -0.08122631 -0.30313527 -0.45652210
v -0.08122631 -0.30313527 0.50000000
v -0.08122631 -0.30313527 -0.50000000
v -0.08122631 0.30313463 -0.50000000
v -0.09002603 -0.33597416 -0.50000000
v -0.17391319 0.30122575 -0.50000000
v -0.15691735 0.27178261 0.50000000
v -0.15691735 0.27178261 -0.50000000
v -0.09002603 -0.33597416 0.50000000
v -0.24595224 0.24594781 0.50000000
v -0.22191307 0.22190864 0.50000000
v -0.15691735 0.27178261 -0.45652210
v -0.15691735 -0.27178261 -0.45652210
v -0.15691735 -0.27178261 0.50000000
v -0.15691735 -0.27178261 -0.50000000
v -0.17391319 -0.30122638 -0.50000000
v -0.22191307 0.22190864 -0.50000000
v -0.24595224 0.24594781 -0.50000000
v -0.22191307 0.22190864 -0.45652210
v -0.17391319 -0.30122638 0.50000000
v -0.30122638 0.17391319 -0.50000000
v -0.27178704 0.15691292 0.50000000
v -0.22191307 -0.22191307 -0.45652210
v -0.22191307 -0.22191307 0.50000000
v -0.22191307 -0.22191307 -0.50000000
v -0.24595224 -0.24595224 -0.50000000
v -0.27178704 0.15691292 -0.50000000
v -0.30122638 0.17391319 0.50000000
v -0.27178704 0.15691292 -0.45652210
v -0.27178704 -0.15691735 -0.45652210
v -0.24595224 -0.24595224 0.50000000
v -0.33597795 0.09002160 -0.50000000
v -0.30313527 0.08122188 -0.50000000
v -0.30313527 0.08122188 0.50000000
v -0.30122638 -0.17391319 0.50000000
v -0.27178704 -0.15691735 -0.50000000
v -0.33597795 0.09002160 0.50000000
v -0.30313527 0.08122188 -0.45652210
v -0.30313527 -0.08122567 -0.45652210
v -0.27178704 -0.15691735 0.50000000
v -0.30122638 -0.17391319 -0.50000000
v -0.34782607 0.00000032 -0.50000000
v -0.31383059 0.00000032 -0.50000000
v -0.31383059 0.00000032 0.50000000
v -0.33597795 -0.09002603 0.50000000
v -0.30313527 -0.08122567 0.50000000
v -0.30313527 -0.08122567 -0.50000000
v -0.34782607 0.00000032 0.50000000
v -0.33597795 -0.09002603 -0.50000000
v -0.31383059 0.00000032 -0.45652210
f 1 2 3
f 2 1 4
f 3 2 1
f 4 1 2
f 2 5 3
f 3 5 2
f 3 6 1
f 1 6 3
f 1 7 4
f 4 7 1
f 2 4 8
f 8 4 2
f 5 2 9
f 9 2 5
f 6 3 5
f 5 3 6
f 7 1 6
f 6 1 7
f 10 4 7
f 7 4 10
f 8 4 11
f 11 4 8
f 8 12 2
f 2 12 8
f 12 9 2
f 2 9 12
f 4 10 13
f 13 10 4
f 11 4 15
f 15 4 11
f 11 16 8
f 8 16 11
f 12 8 17
f 17 8 12
f 9 12 18
f 18 12 9
f 10 20 13
f 13 20 10
f 15 4 13
f 13 4 15
f 15 23 11
f 11 23 15
f 16 11 23
f 23 11 16
f 24 8 16
f 16 8 24
f 8 24 17
f 17 24 8
f 12 17 25
f 25 17 12
f 26 18 12
f 12 18 26
f 20 10 27
f 27 10 20
f 28 13 20
f 20 13 28
f 15 13 28
f 28 13 15
f 23 15 29
f 29 15 23
f 24 23 16
f 16 23 24
f 30 17 24
f 24 17 30
f 17 30 25
f 25 30 17
f 12 25 26
f 26 25 12
f 18 26 31
f 31 26 18
f 27 33 20
f 20 33 27
f 28 20 34
f 34 20 28
f 28 29 15
f 15 29 28
f 23 30 29
f 29 30 23
f 23 24 30
f 30 24 23
f 37 25 30
f 30 25 37
f 26 25 38
f 38 25 26
f 26 39 31
f 31 39 26
f 33 27 41
f 41 27 33
f 34 20 33
f 33 20 34
f 42 28 34
f 34 28 42
f 29 28 36
f 36 28 29
f 29 37 36
f 36 37 29
f 29 30 37
f 37 30 29
f 25 37 38
f 38 37 25
f 26 38 43
f 43 38 26
f 39 26 43
f 43 26 39
f 41 45 33
f 33 45 41
f 34 33 46
f 46 33 34
f 28 42 36
f 36 42 28
f 34 47 42
f 42 47 34
f 36 37 42
f 42 37 36
f 37 49 38
f 38 49 37
f 43 38 49
f 49 38 43
f 43 50 39
f 39 50 43
f 45 41 52
f 52 41 45
f 46 33 45
f 45 33 46
f 47 34 46
f 46 34 47
f 42 53 47
f 47 53 42
f 42 37 54
f 54 37 42
f 49 37 54
f 54 37 49
f 43 49 55
f 55 49 43
f 50 43 55
f 55 43 50
f 52 56 45
f 45 56 52
f 46 45 57
f 57 45 46
f 46 58 47
f 47 58 46
f 42 54 53
f 53 54 42
f 47 53 59
f 59 53 47
f 54 61 49
f 49 61 54
f 55 49 61
f 61 49 55
f 55 62 50
f 50 62 55
f 56 52 64
f 64 52 56
f 57 45 56
f 56 45 57
f 58 46 57
f 57 46 58
f 47 59 58
f 58 59 47
f 61 54 53
f 53 54 61
f 65 53 59
f 59 53 65
f 55 61 67
f 67 61 55
f 62 55 67
f 67 55 62
f 64 68 56
f 56 68 64
f 57 56 69
f 69 56 57
f 57 70 58
f 58 70 57
f 58 59 71
f 71 59 58
f 53 65 61
f 61 65 53
f 59 72 65
f 65 72 59
f 67 61 65
f 65 61 67
f 67 75 62
f 62 75 67
f 68 64 76
f 76 64 68
f 77 56 68
f 68 56 77
f 69 56 77
f 77 56 69
f 70 57 69
f 69 57 70
f 58 71 70
f 70 71 58
f 72 59 71
f 71 59 72
f 67 65 72
f 72 65 67
f 75 67 79
f 79 67 75
f 76 80 68
f 68 80 76
f 77 68 81
f 81 68 77
f 82 69 77
f 77 69 82
f 69 82 70
f 70 82 69
f 70 71 83
f 83 71 70
f 71 84 72
f 72 84 71
f 67 72 79
f 79 72 67
f 79 86 75
f 75 86 79
f 80 76 88
f 88 76 80
f 81 68 80
f 80 68 81
f 89 77 81
f 81 77 89
f 77 89 82
f 82 89 77
f 70 83 82
f 82 83 70
f 84 71 83
f 83 71 84
f 79 72 84
f 84 72 79
f 86 79 90
f 90 79 86
f 91 80 88
f 88 80 91
f 81 80 92
f 92 80 81
f 92 89 81
f 81 89 92
f 82 93 89
f 89 93 82
f 82 83 93
f 93 83 82
f 83 94 84
f 84 94 83
f 79 84 90
f 90 84 79
f 90 96 86
f 86 96 90
f 80 91 98
f 98 91 80
f 92 80 98
f 98 80 92
f 89 92 99
f 99 92 89
f 89 93 100
f 100 93 89
f 94 83 93
f 93 83 94
f 90 84 94
f 94 84 90
f 96 90 101
f 101 90 96
f 102 98 91
f 91 98 102
f 92 98 104
f 104 98 92
f 104 99 92
f 92 99 104
f 89 100 99
f 99 100 89
f 100 94 93
f 93 94 100
f 90 94 101
f 101 94 90
f 105 96 101
f 101 96 105
f 98 102 107
f 107 102 98
f 104 98 107
f 107 98 104
f 99 104 108
f 108 104 99
f 99 100 109
f 109 100 99
f 94 100 110
f 110 100 94
f 101 94 110
f 110 94 101
f 96 105 111
f 111 105 96
f 101 110 105
f 105 110 101
f 112 107 102
f 102 107 112
f 104 107 114
f 114 107 104
f 114 108 104
f 104 108 114
f 99 109 108
f 108 109 99
f 109 110 100
f 100 110 109
f 115 111 105
f 105 111 115
f 105 110 116
f 116 110 105
f 107 112 118
f 118 112 107
f 114 107 115
f 115 107 114
f 108 114 120
f 120 114 108
f 108 109 120
f 120 109 108
f 110 109 116
f 116 109 110
f 111 115 119
f 119 115 111
f 105 116 115
f 115 116 105
f 119 118 112
f 112 118 119
f 115 107 118
f 118 107 115
f 115 116 114
f 114 116 115
f 116 120 114
f 114 120 116
f 120 116 109
f 109 116 120
f 118 119 115
f 115 119 118
f 6 9 5
f 5 9 6
f 9 6 7
f 7 6 9
f 14 7 10
f 10 7 14
f 9 7 19
f 19 7 9
f 21 7 14
f 14 7 21
f 14 10 22
f 22 10 14
f 19 18 9
f 9 18 19
f 19 7 21
f 21 7 19
f 14 23 21
f 21 23 14
f 22 10 27
f 27 10 22
f 22 29 14
f 14 29 22
f 16 21 23
f 23 21 16
f 24 19 16
f 16 19 24
f 18 19 32
f 32 19 18
f 21 16 19
f 19 16 21
f 23 14 29
f 29 14 23
f 22 27 35
f 35 27 22
f 29 22 36
f 36 22 29
f 19 24 32
f 32 24 19
f 30 32 24
f 24 32 30
f 18 40 31
f 31 40 18
f 18 32 40
f 40 32 18
f 35 27 41
f 41 27 35
f 42 22 35
f 35 22 42
f 22 42 36
f 36 42 22
f 32 30 40
f 40 30 32
f 37 40 30
f 30 40 37
f 31 44 39
f 39 44 31
f 31 40 44
f 44 40 31
f 35 41 48
f 48 41 35
f 35 47 42
f 42 47 35
f 40 37 44
f 44 37 40
f 39 44 51
f 51 44 39
f 48 41 52
f 52 41 48
f 47 35 48
f 48 35 47
f 37 51 44
f 44 51 37
f 39 51 50
f 50 51 39
f 48 52 60
f 60 52 48
f 48 58 47
f 47 58 48
f 51 37 54
f 54 37 51
f 50 51 63
f 63 51 50
f 63 54 53
f 53 54 63
f 66 53 59
f 59 53 66
f 60 52 64
f 64 52 60
f 58 48 60
f 60 48 58
f 54 63 51
f 51 63 54
f 50 63 62
f 62 63 50
f 53 66 63
f 63 66 53
f 59 73 66
f 66 73 59
f 60 64 74
f 74 64 60
f 60 70 58
f 58 70 60
f 62 63 66
f 66 63 62
f 73 59 71
f 71 59 73
f 62 66 73
f 73 66 62
f 74 64 78
f 78 64 74
f 70 60 74
f 74 60 70
f 62 73 75
f 75 73 62
f 78 64 76
f 76 64 78
f 71 85 73
f 73 85 71
f 82 74 78
f 78 74 82
f 74 82 70
f 70 82 74
f 75 73 85
f 85 73 75
f 78 76 87
f 87 76 78
f 85 71 83
f 83 71 85
f 78 89 82
f 82 89 78
f 75 85 86
f 86 85 75
f 87 76 88
f 88 76 87
f 89 78 87
f 87 78 89
f 83 95 85
f 85 95 83
f 86 85 95
f 95 85 86
f 87 88 97
f 97 88 87
f 97 89 87
f 87 89 97
f 97 88 91
f 91 88 97
f 95 83 93
f 93 83 95
f 86 95 96
f 96 95 86
f 89 97 99
f 99 97 89
f 97 91 103
f 103 91 97
f 100 95 93
f 93 95 100
f 96 95 106
f 106 95 96
f 103 99 97
f 97 99 103
f 103 91 102
f 102 91 103
f 95 100 106
f 106 100 95
f 96 106 111
f 111 106 96
f 99 103 108
f 108 103 99
f 103 102 113
f 113 102 103
f 109 106 100
f 100 106 109
f 111 106 117
f 117 106 111
f 113 108 103
f 103 108 113
f 119 102 112
f 112 102 119
f 113 102 119
f 119 102 113
f 106 109 117
f 117 109 106
f 111 117 119
f 119 117 111
f 108 113 120
f 120 113 108
f 119 117 113
f 113 117 119
f 120 117 109
f 109 117 120
f 117 120 113
f 113 120 117

