# https://github.com/mikedh/trimesh
v 0.19400000 0.16600000 0.19400000
v 0.19400000 0.16600000 0.19800000
v 0.19400000 0.17000000 0.19400000
v 0.19400000 0.17000000 0.19800000
v 0.19800000 0.16600000 0.19400000
v 0.19800000 0.16600000 0.19800000
v 0.19800000 0.17000000 0.19400000
v 0.19800000 0.17000000 0.19800000
v 0.19400000 0.16600000 0.20200000
v 0.19400000 0.17000000 0.20200000
v 0.19800000 0.16600000 0.20200000
v 0.19800000 0.17000000 0.20200000
v 0.19400000 0.16600000 0.20600000
v 0.19400000 0.17000000 0.20600000
v 0.19800000 0.16600000 0.20600000
v 0.19800000 0.17000000 0.20600000
v 0.19400000 0.16600000 0.21000000
v 0.19400000 0.17000000 0.21000000
v 0.19800000 0.16600000 0.21000000
v 0.19800000 0.17000000 0.21000000
v 0.19400000 0.16600000 0.21400000
v 0.19400000 0.17000000 0.21400000
v 0.19800000 0.16600000 0.21400000
v 0.19800000 0.17000000 0.21400000
v 0.19400000 0.16600000 0.21800000
v 0.19400000 0.17000000 0.21800000
v 0.19800000 0.16600000 0.21800000
v 0.19800000 0.17000000 0.21800000
v 0.19400000 0.16600000 0.22200000
v 0.19400000 0.17000000 0.22200000
v 0.19800000 0.16600000 0.22200000
v 0.19800000 0.17000000 0.22200000
v 0.19400000 0.16600000 0.22600000
v 0.19400000 0.17000000 0.22600000
v 0.19800000 0.16600000 0.22600000
v 0.19800000 0.17000000 0.22600000
v 0.19400000 0.16600000 0.23000000
v 0.19400000 0.17000000 0.23000000
v 0.19800000 0.16600000 0.23000000
v 0.19800000 0.17000000 0.23000000
v 0.19400000 0.16600000 0.23400000
v 0.19400000 0.17000000 0.23400000
v 0.19800000 0.16600000 0.23400000
v 0.19800000 0.17000000 0.23400000
v 0.19400000 0.16600000 0.23800000
v 0.19400000 0.17000000 0.23800000
v 0.19800000 0.16600000 0.23800000
v 0.19800000 0.17000000 0.23800000
v 0.19400000 0.16600000 0.24200000
v 0.19400000 0.17000000 0.24200000
v 0.19800000 0.16600000 0.24200000
v 0.19800000 0.17000000 0.24200000
v 0.19400000 0.16600000 0.24600000
v 0.19400000 0.17000000 0.24600000
v 0.19800000 0.16600000 0.24600000
v 0.19800000 0.17000000 0.24600000
v 0.19400000 0.16600000 0.25000000
v 0.19400000 0.17000000 0.25000000
v 0.19800000 0.16600000 0.25000000
v 0.19800000 0.17000000 0.25000000
v 0.19400000 0.16600000 0.25400000
v 0.19400000 0.17000000 0.25400000
v 0.19800000 0.16600000 0.25400000
v 0.19800000 0.17000000 0.25400000
v 0.19400000 0.16600000 0.25800000
v 0.19400000 0.17000000 0.25800000
v 0.19800000 0.16600000 0.25800000
v 0.19800000 0.17000000 0.25800000
v 0.19400000 0.16600000 0.26200000
v 0.19400000 0.17000000 0.26200000
v 0.19800000 0.16600000 0.26200000
v 0.19800000 0.17000000 0.26200000
v 0.19400000 0.16600000 0.26600000
v 0.19400000 0.17000000 0.26600000
v 0.19800000 0.16600000 0.26600000
v 0.19800000 0.17000000 0.26600000
v 0.19400000 0.16600000 0.27000000
v 0.19400000 0.17000000 0.27000000
v 0.19800000 0.16600000 0.27000000
v 0.19800000 0.17000000 0.27000000
v 0.19400000 0.16600000 0.27400000
v 0.19400000 0.17000000 0.27400000
v 0.19800000 0.16600000 0.27400000
v 0.19800000 0.17000000 0.27400000
v 0.19400000 0.16600000 0.27800000
v 0.19400000 0.17000000 0.27800000
v 0.19800000 0.16600000 0.27800000
v 0.19800000 0.17000000 0.27800000
v 0.20200000 0.16600000 0.19400000
v 0.20200000 0.16600000 0.19800000
v 0.20200000 0.17000000 0.19400000
v 0.20200000 0.17000000 0.19800000
v 0.20200000 0.16600000 0.20200000
v 0.20200000 0.17000000 0.20200000
v 0.20200000 0.16600000 0.20600000
v 0.20200000 0.17000000 0.20600000
v 0.20200000 0.16600000 0.21000000
v 0.20200000 0.17000000 0.21000000
v 0.20200000 0.16600000 0.21400000
v 0.20200000 0.17000000 0.21400000
v 0.20200000 0.16600000 0.21800000
v 0.20200000 0.17000000 0.21800000
v 0.20200000 0.16600000 0.22200000
v 0.20200000 0.17000000 0.22200000
v 0.20200000 0.16600000 0.22600000
v 0.20200000 0.17000000 0.22600000
v 0.20200000 0.16600000 0.23000000
v 0.20200000 0.17000000 0.23000000
v 0.20200000 0.16600000 0.23400000
v 0.20200000 0.17000000 0.23400000
v 0.20200000 0.16600000 0.23800000
v 0.20200000 0.17000000 0.23800000
v 0.20200000 0.16600000 0.24200000
v 0.20200000 0.17000000 0.24200000
v 0.20200000 0.16600000 0.24600000
v 0.20200000 0.17000000 0.24600000
v 0.20200000 0.16600000 0.25000000
v 0.20200000 0.17000000 0.25000000
v 0.20200000 0.16600000 0.25400000
v 0.20200000 0.17000000 0.25400000
v 0.20200000 0.16600000 0.25800000
v 0.20200000 0.17000000 0.25800000
v 0.20200000 0.16600000 0.26200000
v 0.20200000 0.17000000 0.26200000
v 0.20200000 0.16600000 0.26600000
v 0.20200000 0.17000000 0.26600000
v 0.20200000 0.16600000 0.27000000
v 0.20200000 0.17000000 0.27000000
v 0.20200000 0.16600000 0.27400000
v 0.20200000 0.17000000 0.27400000
v 0.20200000 0.16600000 0.27800000
v 0.20200000 0.17000000 0.27800000
v 0.20600000 0.16600000 0.19400000
v 0.20600000 0.16600000 0.19800000
v 0.20600000 0.17000000 0.19400000
v 0.20600000 0.17000000 0.19800000
v 0.20600000 0.16600000 0.20200000
v 0.20600000 0.17000000 0.20200000
v 0.20600000 0.16600000 0.20600000
v 0.20600000 0.17000000 0.20600000
v 0.20600000 0.16600000 0.21000000
v 0.20600000 0.17000000 0.21000000
v 0.20600000 0.16600000 0.21400000
v 0.20600000 0.17000000 0.21400000
v 0.20600000 0.16600000 0.21800000
v 0.20600000 0.17000000 0.21800000
v 0.20600000 0.16600000 0.22200000
v 0.20600000 0.17000000 0.22200000
v 0.20600000 0.16600000 0.22600000
v 0.20600000 0.17000000 0.22600000
v 0.20600000 0.16600000 0.23000000
v 0.20600000 0.17000000 0.23000000
v 0.20600000 0.16600000 0.23400000
v 0.20600000 0.17000000 0.23400000
v 0.20600000 0.16600000 0.23800000
v 0.20600000 0.17000000 0.23800000
v 0.20600000 0.16600000 0.24200000
v 0.20600000 0.17000000 0.24200000
v 0.20600000 0.16600000 0.24600000
v 0.20600000 0.17000000 0.24600000
v 0.20600000 0.16600000 0.25000000
v 0.20600000 0.17000000 0.25000000
v 0.20600000 0.16600000 0.25400000
v 0.20600000 0.17000000 0.25400000
v 0.20600000 0.16600000 0.25800000
v 0.20600000 0.17000000 0.25800000
v 0.20600000 0.16600000 0.26200000
v 0.20600000 0.17000000 0.26200000
v 0.20600000 0.16600000 0.26600000
v 0.20600000 0.17000000 0.26600000
v 0.20600000 0.16600000 0.27000000
v 0.20600000 0.17000000 0.27000000
v 0.20600000 0.16600000 0.27400000
v 0.20600000 0.17000000 0.27400000
v 0.20600000 0.16600000 0.27800000
v 0.20600000 0.17000000 0.27800000
v 0.21000000 0.16600000 0.19400000
v 0.21000000 0.16600000 0.19800000
v 0.21000000 0.17000000 0.19400000
v 0.21000000 0.17000000 0.19800000
v 0.21000000 0.16600000 0.20200000
v 0.21000000 0.17000000 0.20200000
v 0.21000000 0.16600000 0.20600000
v 0.21000000 0.17000000 0.20600000
v 0.21000000 0.16600000 0.21000000
v 0.21000000 0.17000000 0.21000000
v 0.21000000 0.16600000 0.21400000
v 0.21000000 0.17000000 0.21400000
v 0.21000000 0.16600000 0.21800000
v 0.21000000 0.17000000 0.21800000
v 0.21000000 0.16600000 0.22200000
v 0.21000000 0.17000000 0.22200000
v 0.21000000 0.16600000 0.22600000
v 0.21000000 0.17000000 0.22600000
v 0.21000000 0.16600000 0.23000000
v 0.21000000 0.17000000 0.23000000
v 0.21000000 0.16600000 0.23400000
v 0.21000000 0.17000000 0.23400000
v 0.21000000 0.16600000 0.23800000
v 0.21000000 0.17000000 0.23800000
v 0.21000000 0.16600000 0.24200000
v 0.21000000 0.17000000 0.24200000
v 0.21000000 0.16600000 0.24600000
v 0.21000000 0.17000000 0.24600000
v 0.21000000 0.16600000 0.25000000
v 0.21000000 0.17000000 0.25000000
v 0.21000000 0.16600000 0.25400000
v 0.21000000 0.17000000 0.25400000
v 0.21000000 0.16600000 0.25800000
v 0.21000000 0.17000000 0.25800000
v 0.21000000 0.16600000 0.26200000
v 0.21000000 0.17000000 0.26200000
v 0.21000000 0.16600000 0.26600000
v 0.21000000 0.17000000 0.26600000
v 0.21000000 0.16600000 0.27000000
v 0.21000000 0.17000000 0.27000000
v 0.21000000 0.16600000 0.27400000
v 0.21000000 0.17000000 0.27400000
v 0.21000000 0.16600000 0.27800000
v 0.21000000 0.17000000 0.27800000
v 0.21400000 0.16600000 0.19400000
v 0.21400000 0.16600000 0.19800000
v 0.21400000 0.17000000 0.19400000
v 0.21400000 0.17000000 0.19800000
v 0.21400000 0.16600000 0.20200000
v 0.21400000 0.17000000 0.20200000
v 0.21400000 0.16600000 0.20600000
v 0.21400000 0.17000000 0.20600000
v 0.21400000 0.16600000 0.21000000
v 0.21400000 0.17000000 0.21000000
v 0.21400000 0.16600000 0.21400000
v 0.21400000 0.17000000 0.21400000
v 0.21400000 0.16600000 0.21800000
v 0.21400000 0.17000000 0.21800000
v 0.21400000 0.16600000 0.22200000
v 0.21400000 0.17000000 0.22200000
v 0.21400000 0.16600000 0.22600000
v 0.21400000 0.17000000 0.22600000
v 0.21400000 0.16600000 0.23000000
v 0.21400000 0.17000000 0.23000000
v 0.21400000 0.16600000 0.23400000
v 0.21400000 0.17000000 0.23400000
v 0.21400000 0.16600000 0.23800000
v 0.21400000 0.17000000 0.23800000
v 0.21400000 0.16600000 0.24200000
v 0.21400000 0.17000000 0.24200000
v 0.21400000 0.16600000 0.24600000
v 0.21400000 0.17000000 0.24600000
v 0.21400000 0.16600000 0.25000000
v 0.21400000 0.17000000 0.25000000
v 0.21400000 0.16600000 0.25400000
v 0.21400000 0.17000000 0.25400000
v 0.21400000 0.16600000 0.25800000
v 0.21400000 0.17000000 0.25800000
v 0.21400000 0.16600000 0.26200000
v 0.21400000 0.17000000 0.26200000
v 0.21400000 0.16600000 0.26600000
v 0.21400000 0.17000000 0.26600000
v 0.21400000 0.16600000 0.27000000
v 0.21400000 0.17000000 0.27000000
v 0.21400000 0.16600000 0.27400000
v 0.21400000 0.17000000 0.27400000
v 0.21400000 0.16600000 0.27800000
v 0.21400000 0.17000000 0.27800000
v 0.21800000 0.16600000 0.19400000
v 0.21800000 0.16600000 0.19800000
v 0.21800000 0.17000000 0.19400000
v 0.21800000 0.17000000 0.19800000
v 0.21800000 0.16600000 0.20200000
v 0.21800000 0.17000000 0.20200000
v 0.21800000 0.16600000 0.20600000
v 0.21800000 0.17000000 0.20600000
v 0.21800000 0.16600000 0.21000000
v 0.21800000 0.17000000 0.21000000
v 0.21800000 0.16600000 0.21400000
v 0.21800000 0.17000000 0.21400000
v 0.21800000 0.16600000 0.21800000
v 0.21800000 0.17000000 0.21800000
v 0.21800000 0.16600000 0.22200000
v 0.21800000 0.17000000 0.22200000
v 0.21800000 0.16600000 0.22600000
v 0.21800000 0.17000000 0.22600000
v 0.21800000 0.16600000 0.23000000
v 0.21800000 0.17000000 0.23000000
v 0.21800000 0.16600000 0.23400000
v 0.21800000 0.17000000 0.23400000
v 0.21800000 0.16600000 0.23800000
v 0.21800000 0.17000000 0.23800000
v 0.21800000 0.16600000 0.24200000
v 0.21800000 0.17000000 0.24200000
v 0.21800000 0.16600000 0.24600000
v 0.21800000 0.17000000 0.24600000
v 0.21800000 0.16600000 0.25000000
v 0.21800000 0.17000000 0.25000000
v 0.21800000 0.16600000 0.25400000
v 0.21800000 0.17000000 0.25400000
v 0.21800000 0.16600000 0.25800000
v 0.21800000 0.17000000 0.25800000
v 0.21800000 0.16600000 0.26200000
v 0.21800000 0.17000000 0.26200000
v 0.21800000 0.16600000 0.26600000
v 0.21800000 0.17000000 0.26600000
v 0.21800000 0.16600000 0.27000000
v 0.21800000 0.17000000 0.27000000
v 0.21800000 0.16600000 0.27400000
v 0.21800000 0.17000000 0.27400000
v 0.21800000 0.16600000 0.27800000
v 0.21800000 0.17000000 0.27800000
v 0.22200000 0.16600000 0.19400000
v 0.22200000 0.16600000 0.19800000
v 0.22200000 0.17000000 0.19400000
v 0.22200000 0.17000000 0.19800000
v 0.22200000 0.16600000 0.20200000
v 0.22200000 0.17000000 0.20200000
v 0.22200000 0.16600000 0.20600000
v 0.22200000 0.17000000 0.20600000
v 0.22200000 0.16600000 0.21000000
v 0.22200000 0.17000000 0.21000000
v 0.22200000 0.16600000 0.21400000
v 0.22200000 0.17000000 0.21400000
v 0.22200000 0.16600000 0.21800000
v 0.22200000 0.17000000 0.21800000
v 0.22200000 0.16600000 0.22200000
v 0.22200000 0.17000000 0.22200000
v 0.22200000 0.16600000 0.22600000
v 0.22200000 0.17000000 0.22600000
v 0.22200000 0.16600000 0.23000000
v 0.22200000 0.17000000 0.23000000
v 0.22200000 0.16600000 0.23400000
v 0.22200000 0.17000000 0.23400000
v 0.22200000 0.16600000 0.23800000
v 0.22200000 0.17000000 0.23800000
v 0.22200000 0.16600000 0.24200000
v 0.22200000 0.17000000 0.24200000
v 0.22200000 0.16600000 0.24600000
v 0.22200000 0.17000000 0.24600000
v 0.22200000 0.16600000 0.25000000
v 0.22200000 0.17000000 0.25000000
v 0.22200000 0.16600000 0.25400000
v 0.22200000 0.17000000 0.25400000
v 0.22200000 0.16600000 0.25800000
v 0.22200000 0.17000000 0.25800000
v 0.22200000 0.16600000 0.26200000
v 0.22200000 0.17000000 0.26200000
v 0.22200000 0.16600000 0.26600000
v 0.22200000 0.17000000 0.26600000
v 0.22200000 0.16600000 0.27000000
v 0.22200000 0.17000000 0.27000000
v 0.22200000 0.16600000 0.27400000
v 0.22200000 0.17000000 0.27400000
v 0.22200000 0.16600000 0.27800000
v 0.22200000 0.17000000 0.27800000
v 0.22600000 0.16600000 0.19400000
v 0.22600000 0.16600000 0.19800000
v 0.22600000 0.17000000 0.19400000
v 0.22600000 0.17000000 0.19800000
v 0.22600000 0.16600000 0.20200000
v 0.22600000 0.17000000 0.20200000
v 0.22600000 0.16600000 0.20600000
v 0.22600000 0.17000000 0.20600000
v 0.22600000 0.16600000 0.21000000
v 0.22600000 0.17000000 0.21000000
v 0.22600000 0.16600000 0.21400000
v 0.22600000 0.17000000 0.21400000
v 0.22600000 0.16600000 0.21800000
v 0.22600000 0.17000000 0.21800000
v 0.22600000 0.16600000 0.22200000
v 0.22600000 0.17000000 0.22200000
v 0.22600000 0.16600000 0.22600000
v 0.22600000 0.17000000 0.22600000
v 0.22600000 0.16600000 0.23000000
v 0.22600000 0.17000000 0.23000000
v 0.22600000 0.16600000 0.23400000
v 0.22600000 0.17000000 0.23400000
v 0.22600000 0.16600000 0.23800000
v 0.22600000 0.17000000 0.23800000
v 0.22600000 0.16600000 0.24200000
v 0.22600000 0.17000000 0.24200000
v 0.22600000 0.16600000 0.24600000
v 0.22600000 0.17000000 0.24600000
v 0.22600000 0.16600000 0.25000000
v 0.22600000 0.17000000 0.25000000
v 0.22600000 0.16600000 0.25400000
v 0.22600000 0.17000000 0.25400000
v 0.22600000 0.16600000 0.25800000
v 0.22600000 0.17000000 0.25800000
v 0.22600000 0.16600000 0.26200000
v 0.22600000 0.17000000 0.26200000
v 0.22600000 0.16600000 0.26600000
v 0.22600000 0.17000000 0.26600000
v 0.22600000 0.16600000 0.27000000
v 0.22600000 0.17000000 0.27000000
v 0.22600000 0.16600000 0.27400000
v 0.22600000 0.17000000 0.27400000
v 0.22600000 0.16600000 0.27800000
v 0.22600000 0.17000000 0.27800000
v 0.23000000 0.16600000 0.19400000
v 0.23000000 0.16600000 0.19800000
v 0.23000000 0.17000000 0.19400000
v 0.23000000 0.17000000 0.19800000
v 0.23000000 0.16600000 0.20200000
v 0.23000000 0.17000000 0.20200000
v 0.23000000 0.16600000 0.20600000
v 0.23000000 0.17000000 0.20600000
v 0.23000000 0.16600000 0.21000000
v 0.23000000 0.17000000 0.21000000
v 0.23000000 0.16600000 0.21400000
v 0.23000000 0.17000000 0.21400000
v 0.23000000 0.16600000 0.21800000
v 0.23000000 0.17000000 0.21800000
v 0.23000000 0.16600000 0.22200000
v 0.23000000 0.17000000 0.22200000
v 0.23000000 0.16600000 0.22600000
v 0.23000000 0.17000000 0.22600000
v 0.23000000 0.16600000 0.23000000
v 0.23000000 0.17000000 0.23000000
v 0.23000000 0.16600000 0.23400000
v 0.23000000 0.17000000 0.23400000
v 0.23000000 0.16600000 0.23800000
v 0.23000000 0.17000000 0.23800000
v 0.23000000 0.16600000 0.24200000
v 0.23000000 0.17000000 0.24200000
v 0.23000000 0.16600000 0.24600000
v 0.23000000 0.17000000 0.24600000
v 0.23000000 0.16600000 0.25000000
v 0.23000000 0.17000000 0.25000000
v 0.23000000 0.16600000 0.25400000
v 0.23000000 0.17000000 0.25400000
v 0.23000000 0.16600000 0.25800000
v 0.23000000 0.17000000 0.25800000
v 0.23000000 0.16600000 0.26200000
v 0.23000000 0.17000000 0.26200000
v 0.23000000 0.16600000 0.26600000
v 0.23000000 0.17000000 0.26600000
v 0.23000000 0.16600000 0.27000000
v 0.23000000 0.17000000 0.27000000
v 0.23000000 0.16600000 0.27400000
v 0.23000000 0.17000000 0.27400000
v 0.23000000 0.16600000 0.27800000
v 0.23000000 0.17000000 0.27800000
v 0.23400000 0.16600000 0.19400000
v 0.23400000 0.16600000 0.19800000
v 0.23400000 0.17000000 0.19400000
v 0.23400000 0.17000000 0.19800000
v 0.23400000 0.16600000 0.20200000
v 0.23400000 0.17000000 0.20200000
v 0.23400000 0.16600000 0.20600000
v 0.23400000 0.17000000 0.20600000
v 0.23400000 0.16600000 0.21000000
v 0.23400000 0.17000000 0.21000000
v 0.23400000 0.16600000 0.21400000
v 0.23400000 0.17000000 0.21400000
v 0.23400000 0.16600000 0.21800000
v 0.23400000 0.17000000 0.21800000
v 0.23400000 0.16600000 0.22200000
v 0.23400000 0.17000000 0.22200000
v 0.23400000 0.16600000 0.22600000
v 0.23400000 0.17000000 0.22600000
v 0.23400000 0.16600000 0.23000000
v 0.23400000 0.17000000 0.23000000
v 0.23400000 0.16600000 0.23400000
v 0.23400000 0.17000000 0.23400000
v 0.23400000 0.16600000 0.23800000
v 0.23400000 0.17000000 0.23800000
v 0.23400000 0.16600000 0.24200000
v 0.23400000 0.17000000 0.24200000
v 0.23400000 0.16600000 0.24600000
v 0.23400000 0.17000000 0.24600000
v 0.23400000 0.16600000 0.25000000
v 0.23400000 0.17000000 0.25000000
v 0.23400000 0.16600000 0.25400000
v 0.23400000 0.17000000 0.25400000
v 0.23400000 0.16600000 0.25800000
v 0.23400000 0.17000000 0.25800000
v 0.23400000 0.16600000 0.26200000
v 0.23400000 0.17000000 0.26200000
v 0.23400000 0.16600000 0.26600000
v 0.23400000 0.17000000 0.26600000
v 0.23400000 0.16600000 0.27000000
v 0.23400000 0.17000000 0.27000000
v 0.23400000 0.16600000 0.27400000
v 0.23400000 0.17000000 0.27400000
v 0.23400000 0.16600000 0.27800000
v 0.23400000 0.17000000 0.27800000
v 0.23800000 0.16600000 0.19400000
v 0.23800000 0.16600000 0.19800000
v 0.23800000 0.17000000 0.19400000
v 0.23800000 0.17000000 0.19800000
v 0.23800000 0.16600000 0.20200000
v 0.23800000 0.17000000 0.20200000
v 0.23800000 0.16600000 0.20600000
v 0.23800000 0.17000000 0.20600000
v 0.23800000 0.16600000 0.21000000
v 0.23800000 0.17000000 0.21000000
v 0.23800000 0.16600000 0.21400000
v 0.23800000 0.17000000 0.21400000
v 0.23800000 0.16600000 0.21800000
v 0.23800000 0.17000000 0.21800000
v 0.23800000 0.16600000 0.22200000
v 0.23800000 0.17000000 0.22200000
v 0.23800000 0.16600000 0.22600000
v 0.23800000 0.17000000 0.22600000
v 0.23800000 0.16600000 0.23000000
v 0.23800000 0.17000000 0.23000000
v 0.23800000 0.16600000 0.23400000
v 0.23800000 0.17000000 0.23400000
v 0.23800000 0.16600000 0.23800000
v 0.23800000 0.17000000 0.23800000
v 0.23800000 0.16600000 0.24200000
v 0.23800000 0.17000000 0.24200000
v 0.23800000 0.16600000 0.24600000
v 0.23800000 0.17000000 0.24600000
v 0.23800000 0.16600000 0.25000000
v 0.23800000 0.17000000 0.25000000
v 0.23800000 0.16600000 0.25400000
v 0.23800000 0.17000000 0.25400000
v 0.23800000 0.16600000 0.25800000
v 0.23800000 0.17000000 0.25800000
v 0.23800000 0.16600000 0.26200000
v 0.23800000 0.17000000 0.26200000
v 0.23800000 0.16600000 0.26600000
v 0.23800000 0.17000000 0.26600000
v 0.23800000 0.16600000 0.27000000
v 0.23800000 0.17000000 0.27000000
v 0.23800000 0.16600000 0.27400000
v 0.23800000 0.17000000 0.27400000
v 0.23800000 0.16600000 0.27800000
v 0.23800000 0.17000000 0.27800000
v 0.24200000 0.16600000 0.19400000
v 0.24200000 0.16600000 0.19800000
v 0.24200000 0.17000000 0.19400000
v 0.24200000 0.17000000 0.19800000
v 0.24200000 0.16600000 0.20200000
v 0.24200000 0.17000000 0.20200000
v 0.24200000 0.16600000 0.20600000
v 0.24200000 0.17000000 0.20600000
v 0.24200000 0.16600000 0.21000000
v 0.24200000 0.17000000 0.21000000
v 0.24200000 0.16600000 0.21400000
v 0.24200000 0.17000000 0.21400000
v 0.24200000 0.16600000 0.21800000
v 0.24200000 0.17000000 0.21800000
v 0.24200000 0.16600000 0.22200000
v 0.24200000 0.17000000 0.22200000
v 0.24200000 0.16600000 0.22600000
v 0.24200000 0.17000000 0.22600000
v 0.24200000 0.16600000 0.23000000
v 0.24200000 0.17000000 0.23000000
v 0.24200000 0.16600000 0.23400000
v 0.24200000 0.17000000 0.23400000
v 0.24200000 0.16600000 0.23800000
v 0.24200000 0.17000000 0.23800000
v 0.24200000 0.16600000 0.24200000
v 0.24200000 0.17000000 0.24200000
v 0.24200000 0.16600000 0.24600000
v 0.24200000 0.17000000 0.24600000
v 0.24200000 0.16600000 0.25000000
v 0.24200000 0.17000000 0.25000000
v 0.24200000 0.16600000 0.25400000
v 0.24200000 0.17000000 0.25400000
v 0.24200000 0.16600000 0.25800000
v 0.24200000 0.17000000 0.25800000
v 0.24200000 0.16600000 0.26200000
v 0.24200000 0.17000000 0.26200000
v 0.24200000 0.16600000 0.26600000
v 0.24200000 0.17000000 0.26600000
v 0.24200000 0.16600000 0.27000000
v 0.24200000 0.17000000 0.27000000
v 0.24200000 0.16600000 0.27400000
v 0.24200000 0.17000000 0.27400000
v 0.24200000 0.16600000 0.27800000
v 0.24200000 0.17000000 0.27800000
v 0.24600000 0.16600000 0.19400000
v 0.24600000 0.16600000 0.19800000
v 0.24600000 0.17000000 0.19400000
v 0.24600000 0.17000000 0.19800000
v 0.24600000 0.16600000 0.20200000
v 0.24600000 0.17000000 0.20200000
v 0.24600000 0.16600000 0.20600000
v 0.24600000 0.17000000 0.20600000
v 0.24600000 0.16600000 0.21000000
v 0.24600000 0.17000000 0.21000000
v 0.24600000 0.16600000 0.21400000
v 0.24600000 0.17000000 0.21400000
v 0.24600000 0.16600000 0.21800000
v 0.24600000 0.17000000 0.21800000
v 0.24600000 0.16600000 0.22200000
v 0.24600000 0.17000000 0.22200000
v 0.24600000 0.16600000 0.22600000
v 0.24600000 0.17000000 0.22600000
v 0.24600000 0.16600000 0.23000000
v 0.24600000 0.17000000 0.23000000
v 0.24600000 0.16600000 0.23400000
v 0.24600000 0.17000000 0.23400000
v 0.24600000 0.16600000 0.23800000
v 0.24600000 0.17000000 0.23800000
v 0.24600000 0.16600000 0.24200000
v 0.24600000 0.17000000 0.24200000
v 0.24600000 0.16600000 0.24600000
v 0.24600000 0.17000000 0.24600000
v 0.24600000 0.16600000 0.25000000
v 0.24600000 0.17000000 0.25000000
v 0.24600000 0.16600000 0.25400000
v 0.24600000 0.17000000 0.25400000
v 0.24600000 0.16600000 0.25800000
v 0.24600000 0.17000000 0.25800000
v 0.24600000 0.16600000 0.26200000
v 0.24600000 0.17000000 0.26200000
v 0.24600000 0.16600000 0.26600000
v 0.24600000 0.17000000 0.26600000
v 0.24600000 0.16600000 0.27000000
v 0.24600000 0.17000000 0.27000000
v 0.24600000 0.16600000 0.27400000
v 0.24600000 0.17000000 0.27400000
v 0.24600000 0.16600000 0.27800000
v 0.24600000 0.17000000 0.27800000
v 0.25000000 0.16600000 0.19400000
v 0.25000000 0.16600000 0.19800000
v 0.25000000 0.17000000 0.19400000
v 0.25000000 0.17000000 0.19800000
v 0.25000000 0.16600000 0.20200000
v 0.25000000 0.17000000 0.20200000
v 0.25000000 0.16600000 0.20600000
v 0.25000000 0.17000000 0.20600000
v 0.25000000 0.16600000 0.21000000
v 0.25000000 0.17000000 0.21000000
v 0.25000000 0.16600000 0.21400000
v 0.25000000 0.17000000 0.21400000
v 0.25000000 0.16600000 0.21800000
v 0.25000000 0.17000000 0.21800000
v 0.25000000 0.16600000 0.22200000
v 0.25000000 0.17000000 0.22200000
v 0.25000000 0.16600000 0.22600000
v 0.25000000 0.17000000 0.22600000
v 0.25000000 0.16600000 0.23000000
v 0.25000000 0.17000000 0.23000000
v 0.25000000 0.16600000 0.23400000
v 0.25000000 0.17000000 0.23400000
v 0.25000000 0.16600000 0.23800000
v 0.25000000 0.17000000 0.23800000
v 0.25000000 0.16600000 0.24200000
v 0.25000000 0.17000000 0.24200000
v 0.25000000 0.16600000 0.24600000
v 0.25000000 0.17000000 0.24600000
v 0.25000000 0.16600000 0.25000000
v 0.25000000 0.17000000 0.25000000
v 0.25000000 0.16600000 0.25400000
v 0.25000000 0.17000000 0.25400000
v 0.25000000 0.16600000 0.25800000
v 0.25000000 0.17000000 0.25800000
v 0.25000000 0.16600000 0.26200000
v 0.25000000 0.17000000 0.26200000
v 0.25000000 0.16600000 0.26600000
v 0.25000000 0.17000000 0.26600000
v 0.25000000 0.16600000 0.27000000
v 0.25000000 0.17000000 0.27000000
v 0.25000000 0.16600000 0.27400000
v 0.25000000 0.17000000 0.27400000
v 0.25000000 0.16600000 0.27800000
v 0.25000000 0.17000000 0.27800000
v 0.25400000 0.16600000 0.19400000
v 0.25400000 0.16600000 0.19800000
v 0.25400000 0.17000000 0.19400000
v 0.25400000 0.17000000 0.19800000
v 0.25400000 0.16600000 0.20200000
v 0.25400000 0.17000000 0.20200000
v 0.25400000 0.16600000 0.20600000
v 0.25400000 0.17000000 0.20600000
v 0.25400000 0.16600000 0.21000000
v 0.25400000 0.17000000 0.21000000
v 0.25400000 0.16600000 0.21400000
v 0.25400000 0.17000000 0.21400000
v 0.25400000 0.16600000 0.21800000
v 0.25400000 0.17000000 0.21800000
v 0.25400000 0.16600000 0.22200000
v 0.25400000 0.17000000 0.22200000
v 0.25400000 0.16600000 0.22600000
v 0.25400000 0.17000000 0.22600000
v 0.25400000 0.16600000 0.23000000
v 0.25400000 0.17000000 0.23000000
v 0.25400000 0.16600000 0.23400000
v 0.25400000 0.17000000 0.23400000
v 0.25400000 0.16600000 0.23800000
v 0.25400000 0.17000000 0.23800000
v 0.25400000 0.16600000 0.24200000
v 0.25400000 0.17000000 0.24200000
v 0.25400000 0.16600000 0.24600000
v 0.25400000 0.17000000 0.24600000
v 0.25400000 0.16600000 0.25000000
v 0.25400000 0.17000000 0.25000000
v 0.25400000 0.16600000 0.25400000
v 0.25400000 0.17000000 0.25400000
v 0.25400000 0.16600000 0.25800000
v 0.25400000 0.17000000 0.25800000
v 0.25400000 0.16600000 0.26200000
v 0.25400000 0.17000000 0.26200000
v 0.25400000 0.16600000 0.26600000
v 0.25400000 0.17000000 0.26600000
v 0.25400000 0.16600000 0.27000000
v 0.25400000 0.17000000 0.27000000
v 0.25400000 0.16600000 0.27400000
v 0.25400000 0.17000000 0.27400000
v 0.25400000 0.16600000 0.27800000
v 0.25400000 0.17000000 0.27800000
v 0.25800000 0.16600000 0.19400000
v 0.25800000 0.16600000 0.19800000
v 0.25800000 0.17000000 0.19400000
v 0.25800000 0.17000000 0.19800000
v 0.25800000 0.16600000 0.20200000
v 0.25800000 0.17000000 0.20200000
v 0.25800000 0.16600000 0.20600000
v 0.25800000 0.17000000 0.20600000
v 0.25800000 0.16600000 0.21000000
v 0.25800000 0.17000000 0.21000000
v 0.25800000 0.16600000 0.21400000
v 0.25800000 0.17000000 0.21400000
v 0.25800000 0.16600000 0.21800000
v 0.25800000 0.17000000 0.21800000
v 0.25800000 0.16600000 0.22200000
v 0.25800000 0.17000000 0.22200000
v 0.25800000 0.16600000 0.22600000
v 0.25800000 0.17000000 0.22600000
v 0.25800000 0.16600000 0.23000000
v 0.25800000 0.17000000 0.23000000
v 0.25800000 0.16600000 0.23400000
v 0.25800000 0.17000000 0.23400000
v 0.25800000 0.16600000 0.23800000
v 0.25800000 0.17000000 0.23800000
v 0.25800000 0.16600000 0.24200000
v 0.25800000 0.17000000 0.24200000
v 0.25800000 0.16600000 0.24600000
v 0.25800000 0.17000000 0.24600000
v 0.25800000 0.16600000 0.25000000
v 0.25800000 0.17000000 0.25000000
v 0.25800000 0.16600000 0.25400000
v 0.25800000 0.17000000 0.25400000
v 0.25800000 0.16600000 0.25800000
v 0.25800000 0.17000000 0.25800000
v 0.25800000 0.16600000 0.26200000
v 0.25800000 0.17000000 0.26200000
v 0.25800000 0.16600000 0.26600000
v 0.25800000 0.17000000 0.26600000
v 0.25800000 0.16600000 0.27000000
v 0.25800000 0.17000000 0.27000000
v 0.25800000 0.16600000 0.27400000
v 0.25800000 0.17000000 0.27400000
v 0.25800000 0.16600000 0.27800000
v 0.25800000 0.17000000 0.27800000
v 0.26200000 0.16600000 0.19400000
v 0.26200000 0.16600000 0.19800000
v 0.26200000 0.17000000 0.19400000
v 0.26200000 0.17000000 0.19800000
v 0.26200000 0.16600000 0.20200000
v 0.26200000 0.17000000 0.20200000
v 0.26200000 0.16600000 0.20600000
v 0.26200000 0.17000000 0.20600000
v 0.26200000 0.16600000 0.21000000
v 0.26200000 0.17000000 0.21000000
v 0.26200000 0.16600000 0.21400000
v 0.26200000 0.17000000 0.21400000
v 0.26200000 0.16600000 0.21800000
v 0.26200000 0.17000000 0.21800000
v 0.26200000 0.16600000 0.22200000
v 0.26200000 0.17000000 0.22200000
v 0.26200000 0.16600000 0.22600000
v 0.26200000 0.17000000 0.22600000
v 0.26200000 0.16600000 0.23000000
v 0.26200000 0.17000000 0.23000000
v 0.26200000 0.16600000 0.23400000
v 0.26200000 0.17000000 0.23400000
v 0.26200000 0.16600000 0.23800000
v 0.26200000 0.17000000 0.23800000
v 0.26200000 0.16600000 0.24200000
v 0.26200000 0.17000000 0.24200000
v 0.26200000 0.16600000 0.24600000
v 0.26200000 0.17000000 0.24600000
v 0.26200000 0.16600000 0.25000000
v 0.26200000 0.17000000 0.25000000
v 0.26200000 0.16600000 0.25400000
v 0.26200000 0.17000000 0.25400000
v 0.26200000 0.16600000 0.25800000
v 0.26200000 0.17000000 0.25800000
v 0.26200000 0.16600000 0.26200000
v 0.26200000 0.17000000 0.26200000
v 0.26200000 0.16600000 0.26600000
v 0.26200000 0.17000000 0.26600000
v 0.26200000 0.16600000 0.27000000
v 0.26200000 0.17000000 0.27000000
v 0.26200000 0.16600000 0.27400000
v 0.26200000 0.17000000 0.27400000
v 0.26200000 0.16600000 0.27800000
v 0.26200000 0.17000000 0.27800000
v 0.26600000 0.16600000 0.19400000
v 0.26600000 0.16600000 0.19800000
v 0.26600000 0.17000000 0.19400000
v 0.26600000 0.17000000 0.19800000
v 0.26600000 0.16600000 0.20200000
v 0.26600000 0.17000000 0.20200000
v 0.26600000 0.16600000 0.20600000
v 0.26600000 0.17000000 0.20600000
v 0.26600000 0.16600000 0.21000000
v 0.26600000 0.17000000 0.21000000
v 0.26600000 0.16600000 0.21400000
v 0.26600000 0.17000000 0.21400000
v 0.26600000 0.16600000 0.21800000
v 0.26600000 0.17000000 0.21800000
v 0.26600000 0.16600000 0.22200000
v 0.26600000 0.17000000 0.22200000
v 0.26600000 0.16600000 0.22600000
v 0.26600000 0.17000000 0.22600000
v 0.26600000 0.16600000 0.23000000
v 0.26600000 0.17000000 0.23000000
v 0.26600000 0.16600000 0.23400000
v 0.26600000 0.17000000 0.23400000
v 0.26600000 0.16600000 0.23800000
v 0.26600000 0.17000000 0.23800000
v 0.26600000 0.16600000 0.24200000
v 0.26600000 0.17000000 0.24200000
v 0.26600000 0.16600000 0.24600000
v 0.26600000 0.17000000 0.24600000
v 0.26600000 0.16600000 0.25000000
v 0.26600000 0.17000000 0.25000000
v 0.26600000 0.16600000 0.25400000
v 0.26600000 0.17000000 0.25400000
v 0.26600000 0.16600000 0.25800000
v 0.26600000 0.17000000 0.25800000
v 0.26600000 0.16600000 0.26200000
v 0.26600000 0.17000000 0.26200000
v 0.26600000 0.16600000 0.26600000
v 0.26600000 0.17000000 0.26600000
v 0.26600000 0.16600000 0.27000000
v 0.26600000 0.17000000 0.27000000
v 0.26600000 0.16600000 0.27400000
v 0.26600000 0.17000000 0.27400000
v 0.26600000 0.16600000 0.27800000
v 0.26600000 0.17000000 0.27800000
f 2 4 1
f 5 2 1
f 1 4 3
f 3 5 1
f 6 2 5
f 4 8 3
f 7 5 3
f 3 8 7
f 9 10 2
f 6 9 2
f 2 10 4
f 11 9 6
f 10 12 4
f 4 12 8
f 13 14 9
f 11 13 9
f 9 14 10
f 15 13 11
f 14 16 10
f 10 16 12
f 17 18 13
f 15 17 13
f 13 18 14
f 19 17 15
f 18 20 14
f 14 20 16
f 21 22 17
f 19 21 17
f 17 22 18
f 23 21 19
f 22 24 18
f 18 24 20
f 25 26 21
f 23 25 21
f 21 26 22
f 27 25 23
f 26 28 22
f 22 28 24
f 29 30 25
f 27 29 25
f 25 30 26
f 31 29 27
f 30 32 26
f 26 32 28
f 33 34 29
f 31 33 29
f 29 34 30
f 35 33 31
f 34 36 30
f 30 36 32
f 37 38 33
f 35 37 33
f 33 38 34
f 39 37 35
f 38 40 34
f 34 40 36
f 41 42 37
f 39 41 37
f 37 42 38
f 43 41 39
f 42 44 38
f 38 44 40
f 45 46 41
f 43 45 41
f 41 46 42
f 47 45 43
f 46 48 42
f 42 48 44
f 49 50 45
f 47 49 45
f 45 50 46
f 51 49 47
f 50 52 46
f 46 52 48
f 53 54 49
f 51 53 49
f 49 54 50
f 55 53 51
f 54 56 50
f 50 56 52
f 57 58 53
f 55 57 53
f 53 58 54
f 59 57 55
f 58 60 54
f 54 60 56
f 61 62 57
f 59 61 57
f 57 62 58
f 63 61 59
f 62 64 58
f 58 64 60
f 65 66 61
f 63 65 61
f 61 66 62
f 67 65 63
f 66 68 62
f 62 68 64
f 69 70 65
f 67 69 65
f 65 70 66
f 71 69 67
f 70 72 66
f 66 72 68
f 73 74 69
f 71 73 69
f 69 74 70
f 75 73 71
f 74 76 70
f 70 76 72
f 77 78 73
f 75 77 73
f 73 78 74
f 79 77 75
f 78 80 74
f 74 80 76
f 81 82 77
f 79 81 77
f 77 82 78
f 83 81 79
f 82 84 78
f 78 84 80
f 85 86 81
f 83 85 81
f 81 86 82
f 85 88 86
f 87 85 83
f 87 88 85
f 86 88 82
f 82 88 84
f 89 6 5
f 7 89 5
f 90 6 89
f 8 92 7
f 91 89 7
f 7 92 91
f 90 11 6
f 93 11 90
f 12 94 8
f 8 94 92
f 93 15 11
f 95 15 93
f 16 96 12
f 12 96 94
f 95 19 15
f 97 19 95
f 20 98 16
f 16 98 96
f 97 23 19
f 99 23 97
f 24 100 20
f 20 100 98
f 99 27 23
f 101 27 99
f 28 102 24
f 24 102 100
f 101 31 27
f 103 31 101
f 32 104 28
f 28 104 102
f 103 35 31
f 105 35 103
f 36 106 32
f 32 106 104
f 105 39 35
f 107 39 105
f 40 108 36
f 36 108 106
f 107 43 39
f 109 43 107
f 44 110 40
f 40 110 108
f 109 47 43
f 111 47 109
f 48 112 44
f 44 112 110
f 111 51 47
f 113 51 111
f 52 114 48
f 48 114 112
f 113 55 51
f 115 55 113
f 56 116 52
f 52 116 114
f 115 59 55
f 117 59 115
f 60 118 56
f 56 118 116
f 117 63 59
f 119 63 117
f 64 120 60
f 60 120 118
f 119 67 63
f 121 67 119
f 68 122 64
f 64 122 120
f 121 71 67
f 123 71 121
f 72 124 68
f 68 124 122
f 123 75 71
f 125 75 123
f 76 126 72
f 72 126 124
f 125 79 75
f 127 79 125
f 80 128 76
f 76 128 126
f 127 83 79
f 129 83 127
f 84 130 80
f 80 130 128
f 129 87 83
f 87 132 88
f 131 87 129
f 131 132 87
f 88 132 84
f 84 132 130
f 133 90 89
f 91 133 89
f 134 90 133
f 92 136 91
f 135 133 91
f 91 136 135
f 134 93 90
f 137 93 134
f 94 138 92
f 92 138 136
f 137 95 93
f 139 95 137
f 96 140 94
f 94 140 138
f 139 97 95
f 141 97 139
f 98 142 96
f 96 142 140
f 141 99 97
f 143 99 141
f 100 144 98
f 98 144 142
f 143 101 99
f 145 101 143
f 102 146 100
f 100 146 144
f 145 103 101
f 147 103 145
f 104 148 102
f 102 148 146
f 147 105 103
f 149 105 147
f 106 150 104
f 104 150 148
f 149 107 105
f 151 107 149
f 108 152 106
f 106 152 150
f 151 109 107
f 153 109 151
f 110 154 108
f 108 154 152
f 153 111 109
f 155 111 153
f 112 156 110
f 110 156 154
f 155 113 111
f 157 113 155
f 114 158 112
f 112 158 156
f 157 115 113
f 159 115 157
f 116 160 114
f 114 160 158
f 159 117 115
f 161 117 159
f 118 162 116
f 116 162 160
f 161 119 117
f 163 119 161
f 120 164 118
f 118 164 162
f 163 121 119
f 165 121 163
f 122 166 120
f 120 166 164
f 165 123 121
f 167 123 165
f 124 168 122
f 122 168 166
f 167 125 123
f 169 125 167
f 126 170 124
f 124 170 168
f 169 127 125
f 171 127 169
f 128 172 126
f 126 172 170
f 171 129 127
f 173 129 171
f 130 174 128
f 128 174 172
f 173 131 129
f 131 176 132
f 175 131 173
f 175 176 131
f 132 176 130
f 130 176 174
f 177 134 133
f 135 177 133
f 178 134 177
f 136 180 135
f 179 177 135
f 135 180 179
f 178 137 134
f 181 137 178
f 138 182 136
f 136 182 180
f 181 139 137
f 183 139 181
f 140 184 138
f 138 184 182
f 183 141 139
f 185 141 183
f 142 186 140
f 140 186 184
f 185 143 141
f 187 143 185
f 144 188 142
f 142 188 186
f 187 145 143
f 189 145 187
f 146 190 144
f 144 190 188
f 189 147 145
f 191 147 189
f 148 192 146
f 146 192 190
f 191 149 147
f 193 149 191
f 150 194 148
f 148 194 192
f 193 151 149
f 195 151 193
f 152 196 150
f 150 196 194
f 195 153 151
f 197 153 195
f 154 198 152
f 152 198 196
f 197 155 153
f 199 155 197
f 156 200 154
f 154 200 198
f 199 157 155
f 201 157 199
f 158 202 156
f 156 202 200
f 201 159 157
f 203 159 201
f 160 204 158
f 158 204 202
f 203 161 159
f 205 161 203
f 162 206 160
f 160 206 204
f 205 163 161
f 207 163 205
f 164 208 162
f 162 208 206
f 207 165 163
f 209 165 207
f 166 210 164
f 164 210 208
f 209 167 165
f 211 167 209
f 168 212 166
f 166 212 210
f 211 169 167
f 213 169 211
f 170 214 168
f 168 214 212
f 213 171 169
f 215 171 213
f 172 216 170
f 170 216 214
f 215 173 171
f 217 173 215
f 174 218 172
f 172 218 216
f 217 175 173
f 175 220 176
f 219 175 217
f 219 220 175
f 176 220 174
f 174 220 218
f 221 178 177
f 179 221 177
f 222 178 221
f 180 224 179
f 223 221 179
f 179 224 223
f 222 181 178
f 225 181 222
f 182 226 180
f 180 226 224
f 225 183 181
f 227 183 225
f 184 228 182
f 182 228 226
f 227 185 183
f 229 185 227
f 186 230 184
f 184 230 228
f 229 187 185
f 231 187 229
f 188 232 186
f 186 232 230
f 231 189 187
f 233 189 231
f 190 234 188
f 188 234 232
f 233 191 189
f 235 191 233
f 192 236 190
f 190 236 234
f 235 193 191
f 237 193 235
f 194 238 192
f 192 238 236
f 237 195 193
f 239 195 237
f 196 240 194
f 194 240 238
f 239 197 195
f 241 197 239
f 198 242 196
f 196 242 240
f 241 199 197
f 243 199 241
f 200 244 198
f 198 244 242
f 243 201 199
f 245 201 243
f 202 246 200
f 200 246 244
f 245 203 201
f 247 203 245
f 204 248 202
f 202 248 246
f 247 205 203
f 249 205 247
f 206 250 204
f 204 250 248
f 249 207 205
f 251 207 249
f 208 252 206
f 206 252 250
f 251 209 207
f 253 209 251
f 210 254 208
f 208 254 252
f 253 211 209
f 255 211 253
f 212 256 210
f 210 256 254
f 255 213 211
f 257 213 255
f 214 258 212
f 212 258 256
f 257 215 213
f 259 215 257
f 216 260 214
f 214 260 258
f 259 217 215
f 261 217 259
f 218 262 216
f 216 262 260
f 261 219 217
f 219 264 220
f 263 219 261
f 263 264 219
f 220 264 218
f 218 264 262
f 265 222 221
f 223 265 221
f 266 222 265
f 224 268 223
f 267 265 223
f 223 268 267
f 266 225 222
f 269 225 266
f 226 270 224
f 224 270 268
f 269 227 225
f 271 227 269
f 228 272 226
f 226 272 270
f 271 229 227
f 273 229 271
f 230 274 228
f 228 274 272
f 273 231 229
f 275 231 273
f 232 276 230
f 230 276 274
f 275 233 231
f 277 233 275
f 234 278 232
f 232 278 276
f 277 235 233
f 279 235 277
f 236 280 234
f 234 280 278
f 279 237 235
f 281 237 279
f 238 282 236
f 236 282 280
f 281 239 237
f 283 239 281
f 240 284 238
f 238 284 282
f 283 241 239
f 285 241 283
f 242 286 240
f 240 286 284
f 285 243 241
f 287 243 285
f 244 288 242
f 242 288 286
f 287 245 243
f 289 245 287
f 246 290 244
f 244 290 288
f 289 247 245
f 291 247 289
f 248 292 246
f 246 292 290
f 291 249 247
f 293 249 291
f 250 294 248
f 248 294 292
f 293 251 249
f 295 251 293
f 252 296 250
f 250 296 294
f 295 253 251
f 297 253 295
f 254 298 252
f 252 298 296
f 297 255 253
f 299 255 297
f 256 300 254
f 254 300 298
f 299 257 255
f 301 257 299
f 258 302 256
f 256 302 300
f 301 259 257
f 303 259 301
f 260 304 258
f 258 304 302
f 303 261 259
f 305 261 303
f 262 306 260
f 260 306 304
f 305 263 261
f 263 308 264
f 307 263 305
f 307 308 263
f 264 308 262
f 262 308 306
f 309 266 265
f 267 309 265
f 310 266 309
f 268 312 267
f 311 309 267
f 267 312 311
f 310 269 266
f 313 269 310
f 270 314 268
f 268 314 312
f 313 271 269
f 315 271 313
f 272 316 270
f 270 316 314
f 315 273 271
f 317 273 315
f 274 318 272
f 272 318 316
f 317 275 273
f 319 275 317
f 276 320 274
f 274 320 318
f 319 277 275
f 321 277 319
f 278 322 276
f 276 322 320
f 321 279 277
f 323 279 321
f 280 324 278
f 278 324 322
f 323 281 279
f 325 281 323
f 282 326 280
f 280 326 324
f 325 283 281
f 327 283 325
f 284 328 282
f 282 328 326
f 327 285 283
f 329 285 327
f 286 330 284
f 284 330 328
f 329 287 285
f 331 287 329
f 288 332 286
f 286 332 330
f 331 289 287
f 333 289 331
f 290 334 288
f 288 334 332
f 333 291 289
f 335 291 333
f 292 336 290
f 290 336 334
f 335 293 291
f 337 293 335
f 294 338 292
f 292 338 336
f 337 295 293
f 339 295 337
f 296 340 294
f 294 340 338
f 339 297 295
f 341 297 339
f 298 342 296
f 296 342 340
f 341 299 297
f 343 299 341
f 300 344 298
f 298 344 342
f 343 301 299
f 345 301 343
f 302 346 300
f 300 346 344
f 345 303 301
f 347 303 345
f 304 348 302
f 302 348 346
f 347 305 303
f 349 305 347
f 306 350 304
f 304 350 348
f 349 307 305
f 307 352 308
f 351 307 349
f 351 352 307
f 308 352 306
f 306 352 350
f 353 310 309
f 311 353 309
f 354 310 353
f 312 356 311
f 355 353 311
f 311 356 355
f 354 313 310
f 357 313 354
f 314 358 312
f 312 358 356
f 357 315 313
f 359 315 357
f 316 360 314
f 314 360 358
f 359 317 315
f 361 317 359
f 318 362 316
f 316 362 360
f 361 319 317
f 363 319 361
f 320 364 318
f 318 364 362
f 363 321 319
f 365 321 363
f 322 366 320
f 320 366 364
f 365 323 321
f 367 323 365
f 324 368 322
f 322 368 366
f 367 325 323
f 369 325 367
f 326 370 324
f 324 370 368
f 369 327 325
f 371 327 369
f 328 372 326
f 326 372 370
f 371 329 327
f 373 329 371
f 330 374 328
f 328 374 372
f 373 331 329
f 375 331 373
f 332 376 330
f 330 376 374
f 375 333 331
f 377 333 375
f 334 378 332
f 332 378 376
f 377 335 333
f 379 335 377
f 336 380 334
f 334 380 378
f 379 337 335
f 381 337 379
f 338 382 336
f 336 382 380
f 381 339 337
f 383 339 381
f 340 384 338
f 338 384 382
f 383 341 339
f 385 341 383
f 342 386 340
f 340 386 384
f 385 343 341
f 387 343 385
f 344 388 342
f 342 388 386
f 387 345 343
f 389 345 387
f 346 390 344
f 344 390 388
f 389 347 345
f 391 347 389
f 348 392 346
f 346 392 390
f 391 349 347
f 393 349 391
f 350 394 348
f 348 394 392
f 393 351 349
f 351 396 352
f 395 351 393
f 395 396 351
f 352 396 350
f 350 396 394
f 397 354 353
f 355 397 353
f 398 354 397
f 356 400 355
f 399 397 355
f 355 400 399
f 398 357 354
f 401 357 398
f 358 402 356
f 356 402 400
f 401 359 357
f 403 359 401
f 360 404 358
f 358 404 402
f 403 361 359
f 405 361 403
f 362 406 360
f 360 406 404
f 405 363 361
f 407 363 405
f 364 408 362
f 362 408 406
f 407 365 363
f 409 365 407
f 366 410 364
f 364 410 408
f 409 367 365
f 411 367 409
f 368 412 366
f 366 412 410
f 411 369 367
f 413 369 411
f 370 414 368
f 368 414 412
f 413 371 369
f 415 371 413
f 372 416 370
f 370 416 414
f 415 373 371
f 417 373 415
f 374 418 372
f 372 418 416
f 417 375 373
f 419 375 417
f 376 420 374
f 374 420 418
f 419 377 375
f 421 377 419
f 378 422 376
f 376 422 420
f 421 379 377
f 423 379 421
f 380 424 378
f 378 424 422
f 423 381 379
f 425 381 423
f 382 426 380
f 380 426 424
f 425 383 381
f 427 383 425
f 384 428 382
f 382 428 426
f 427 385 383
f 429 385 427
f 386 430 384
f 384 430 428
f 429 387 385
f 431 387 429
f 388 432 386
f 386 432 430
f 431 389 387
f 433 389 431
f 390 434 388
f 388 434 432
f 433 391 389
f 435 391 433
f 392 436 390
f 390 436 434
f 435 393 391
f 437 393 435
f 394 438 392
f 392 438 436
f 437 395 393
f 395 440 396
f 439 395 437
f 439 440 395
f 396 440 394
f 394 440 438
f 441 398 397
f 399 441 397
f 442 398 441
f 400 444 399
f 443 441 399
f 399 444 443
f 442 401 398
f 445 401 442
f 402 446 400
f 400 446 444
f 445 403 401
f 447 403 445
f 404 448 402
f 402 448 446
f 447 405 403
f 449 405 447
f 406 450 404
f 404 450 448
f 449 407 405
f 451 407 449
f 408 452 406
f 406 452 450
f 451 409 407
f 453 409 451
f 410 454 408
f 408 454 452
f 453 411 409
f 455 411 453
f 412 456 410
f 410 456 454
f 455 413 411
f 457 413 455
f 414 458 412
f 412 458 456
f 457 415 413
f 459 415 457
f 416 460 414
f 414 460 458
f 459 417 415
f 461 417 459
f 418 462 416
f 416 462 460
f 461 419 417
f 463 419 461
f 420 464 418
f 418 464 462
f 463 421 419
f 465 421 463
f 422 466 420
f 420 466 464
f 465 423 421
f 467 423 465
f 424 468 422
f 422 468 466
f 467 425 423
f 469 425 467
f 426 470 424
f 424 470 468
f 469 427 425
f 471 427 469
f 428 472 426
f 426 472 470
f 471 429 427
f 473 429 471
f 430 474 428
f 428 474 472
f 473 431 429
f 475 431 473
f 432 476 430
f 430 476 474
f 475 433 431
f 477 433 475
f 434 478 432
f 432 478 476
f 477 435 433
f 479 435 477
f 436 480 434
f 434 480 478
f 479 437 435
f 481 437 479
f 438 482 436
f 436 482 480
f 481 439 437
f 439 484 440
f 483 439 481
f 483 484 439
f 440 484 438
f 438 484 482
f 485 442 441
f 443 485 441
f 486 442 485
f 444 488 443
f 487 485 443
f 443 488 487
f 486 445 442
f 489 445 486
f 446 490 444
f 444 490 488
f 489 447 445
f 491 447 489
f 448 492 446
f 446 492 490
f 491 449 447
f 493 449 491
f 450 494 448
f 448 494 492
f 493 451 449
f 495 451 493
f 452 496 450
f 450 496 494
f 495 453 451
f 497 453 495
f 454 498 452
f 452 498 496
f 497 455 453
f 499 455 497
f 456 500 454
f 454 500 498
f 499 457 455
f 501 457 499
f 458 502 456
f 456 502 500
f 501 459 457
f 503 459 501
f 460 504 458
f 458 504 502
f 503 461 459
f 505 461 503
f 462 506 460
f 460 506 504
f 505 463 461
f 507 463 505
f 464 508 462
f 462 508 506
f 507 465 463
f 509 465 507
f 466 510 464
f 464 510 508
f 509 467 465
f 511 467 509
f 468 512 466
f 466 512 510
f 511 469 467
f 513 469 511
f 470 514 468
f 468 514 512
f 513 471 469
f 515 471 513
f 472 516 470
f 470 516 514
f 515 473 471
f 517 473 515
f 474 518 472
f 472 518 516
f 517 475 473
f 519 475 517
f 476 520 474
f 474 520 518
f 519 477 475
f 521 477 519
f 478 522 476
f 476 522 520
f 521 479 477
f 523 479 521
f 480 524 478
f 478 524 522
f 523 481 479
f 525 481 523
f 482 526 480
f 480 526 524
f 525 483 481
f 483 528 484
f 527 483 525
f 527 528 483
f 484 528 482
f 482 528 526
f 529 486 485
f 487 529 485
f 530 486 529
f 488 532 487
f 531 529 487
f 487 532 531
f 530 489 486
f 533 489 530
f 490 534 488
f 488 534 532
f 533 491 489
f 535 491 533
f 492 536 490
f 490 536 534
f 535 493 491
f 537 493 535
f 494 538 492
f 492 538 536
f 537 495 493
f 539 495 537
f 496 540 494
f 494 540 538
f 539 497 495
f 541 497 539
f 498 542 496
f 496 542 540
f 541 499 497
f 543 499 541
f 500 544 498
f 498 544 542
f 543 501 499
f 545 501 543
f 502 546 500
f 500 546 544
f 545 503 501
f 547 503 545
f 504 548 502
f 502 548 546
f 547 505 503
f 549 505 547
f 506 550 504
f 504 550 548
f 549 507 505
f 551 507 549
f 508 552 506
f 506 552 550
f 551 509 507
f 553 509 551
f 510 554 508
f 508 554 552
f 553 511 509
f 555 511 553
f 512 556 510
f 510 556 554
f 555 513 511
f 557 513 555
f 514 558 512
f 512 558 556
f 557 515 513
f 559 515 557
f 516 560 514
f 514 560 558
f 559 517 515
f 561 517 559
f 518 562 516
f 516 562 560
f 561 519 517
f 563 519 561
f 520 564 518
f 518 564 562
f 563 521 519
f 565 521 563
f 522 566 520
f 520 566 564
f 565 523 521
f 567 523 565
f 524 568 522
f 522 568 566
f 567 525 523
f 569 525 567
f 526 570 524
f 524 570 568
f 569 527 525
f 527 572 528
f 571 527 569
f 571 572 527
f 528 572 526
f 526 572 570
f 573 530 529
f 531 573 529
f 574 530 573
f 532 576 531
f 575 573 531
f 531 576 575
f 574 533 530
f 577 533 574
f 534 578 532
f 532 578 576
f 577 535 533
f 579 535 577
f 536 580 534
f 534 580 578
f 579 537 535
f 581 537 579
f 538 582 536
f 536 582 580
f 581 539 537
f 583 539 581
f 540 584 538
f 538 584 582
f 583 541 539
f 585 541 583
f 542 586 540
f 540 586 584
f 585 543 541
f 587 543 585
f 544 588 542
f 542 588 586
f 587 545 543
f 589 545 587
f 546 590 544
f 544 590 588
f 589 547 545
f 591 547 589
f 548 592 546
f 546 592 590
f 591 549 547
f 593 549 591
f 550 594 548
f 548 594 592
f 593 551 549
f 595 551 593
f 552 596 550
f 550 596 594
f 595 553 551
f 597 553 595
f 554 598 552
f 552 598 596
f 597 555 553
f 599 555 597
f 556 600 554
f 554 600 598
f 599 557 555
f 601 557 599
f 558 602 556
f 556 602 600
f 601 559 557
f 603 559 601
f 560 604 558
f 558 604 602
f 603 561 559
f 605 561 603
f 562 606 560
f 560 606 604
f 605 563 561
f 607 563 605
f 564 608 562
f 562 608 606
f 607 565 563
f 609 565 607
f 566 610 564
f 564 610 608
f 609 567 565
f 611 567 609
f 568 612 566
f 566 612 610
f 611 569 567
f 613 569 611
f 570 614 568
f 568 614 612
f 613 571 569
f 571 616 572
f 615 571 613
f 615 616 571
f 572 616 570
f 570 616 614
f 617 574 573
f 575 617 573
f 618 574 617
f 576 620 575
f 619 617 575
f 575 620 619
f 618 577 574
f 621 577 618
f 578 622 576
f 576 622 620
f 621 579 577
f 623 579 621
f 580 624 578
f 578 624 622
f 623 581 579
f 625 581 623
f 582 626 580
f 580 626 624
f 625 583 581
f 627 583 625
f 584 628 582
f 582 628 626
f 627 585 583
f 629 585 627
f 586 630 584
f 584 630 628
f 629 587 585
f 631 587 629
f 588 632 586
f 586 632 630
f 631 589 587
f 633 589 631
f 590 634 588
f 588 634 632
f 633 591 589
f 635 591 633
f 592 636 590
f 590 636 634
f 635 593 591
f 637 593 635
f 594 638 592
f 592 638 636
f 637 595 593
f 639 595 637
f 596 640 594
f 594 640 638
f 639 597 595
f 641 597 639
f 598 642 596
f 596 642 640
f 641 599 597
f 643 599 641
f 600 644 598
f 598 644 642
f 643 601 599
f 645 601 643
f 602 646 600
f 600 646 644
f 645 603 601
f 647 603 645
f 604 648 602
f 602 648 646
f 647 605 603
f 649 605 647
f 606 650 604
f 604 650 648
f 649 607 605
f 651 607 649
f 608 652 606
f 606 652 650
f 651 609 607
f 653 609 651
f 610 654 608
f 608 654 652
f 653 611 609
f 655 611 653
f 612 656 610
f 610 656 654
f 655 613 611
f 657 613 655
f 614 658 612
f 612 658 656
f 657 615 613
f 615 660 616
f 659 615 657
f 659 660 615
f 616 660 614
f 614 660 658
f 661 618 617
f 619 661 617
f 662 618 661
f 620 664 619
f 663 661 619
f 619 664 663
f 662 621 618
f 665 621 662
f 622 666 620
f 620 666 664
f 665 623 621
f 667 623 665
f 624 668 622
f 622 668 666
f 667 625 623
f 669 625 667
f 626 670 624
f 624 670 668
f 669 627 625
f 671 627 669
f 628 672 626
f 626 672 670
f 671 629 627
f 673 629 671
f 630 674 628
f 628 674 672
f 673 631 629
f 675 631 673
f 632 676 630
f 630 676 674
f 675 633 631
f 677 633 675
f 634 678 632
f 632 678 676
f 677 635 633
f 679 635 677
f 636 680 634
f 634 680 678
f 679 637 635
f 681 637 679
f 638 682 636
f 636 682 680
f 681 639 637
f 683 639 681
f 640 684 638
f 638 684 682
f 683 641 639
f 685 641 683
f 642 686 640
f 640 686 684
f 685 643 641
f 687 643 685
f 644 688 642
f 642 688 686
f 687 645 643
f 689 645 687
f 646 690 644
f 644 690 688
f 689 647 645
f 691 647 689
f 648 692 646
f 646 692 690
f 691 649 647
f 693 649 691
f 650 694 648
f 648 694 692
f 693 651 649
f 695 651 693
f 652 696 650
f 650 696 694
f 695 653 651
f 697 653 695
f 654 698 652
f 652 698 696
f 697 655 653
f 699 655 697
f 656 700 654
f 654 700 698
f 699 657 655
f 701 657 699
f 658 702 656
f 656 702 700
f 701 659 657
f 659 704 660
f 703 659 701
f 703 704 659
f 660 704 658
f 658 704 702
f 705 662 661
f 663 705 661
f 706 662 705
f 664 708 663
f 707 705 663
f 663 708 707
f 706 665 662
f 709 665 706
f 666 710 664
f 664 710 708
f 709 667 665
f 711 667 709
f 668 712 666
f 666 712 710
f 711 669 667
f 713 669 711
f 670 714 668
f 668 714 712
f 713 671 669
f 715 671 713
f 672 716 670
f 670 716 714
f 715 673 671
f 717 673 715
f 674 718 672
f 672 718 716
f 717 675 673
f 719 675 717
f 676 720 674
f 674 720 718
f 719 677 675
f 721 677 719
f 678 722 676
f 676 722 720
f 721 679 677
f 723 679 721
f 680 724 678
f 678 724 722
f 723 681 679
f 725 681 723
f 682 726 680
f 680 726 724
f 725 683 681
f 727 683 725
f 684 728 682
f 682 728 726
f 727 685 683
f 729 685 727
f 686 730 684
f 684 730 728
f 729 687 685
f 731 687 729
f 688 732 686
f 686 732 730
f 731 689 687
f 733 689 731
f 690 734 688
f 688 734 732
f 733 691 689
f 735 691 733
f 692 736 690
f 690 736 734
f 735 693 691
f 737 693 735
f 694 738 692
f 692 738 736
f 737 695 693
f 739 695 737
f 696 740 694
f 694 740 738
f 739 697 695
f 741 697 739
f 698 742 696
f 696 742 740
f 741 699 697
f 743 699 741
f 700 744 698
f 698 744 742
f 743 701 699
f 745 701 743
f 702 746 700
f 700 746 744
f 745 703 701
f 703 748 704
f 747 703 745
f 747 748 703
f 704 748 702
f 702 748 746
f 749 706 705
f 707 749 705
f 750 706 749
f 708 752 707
f 751 749 707
f 707 752 751
f 750 709 706
f 753 709 750
f 710 754 708
f 708 754 752
f 753 711 709
f 755 711 753
f 712 756 710
f 710 756 754
f 755 713 711
f 757 713 755
f 714 758 712
f 712 758 756
f 757 715 713
f 759 715 757
f 716 760 714
f 714 760 758
f 759 717 715
f 761 717 759
f 718 762 716
f 716 762 760
f 761 719 717
f 763 719 761
f 720 764 718
f 718 764 762
f 763 721 719
f 765 721 763
f 722 766 720
f 720 766 764
f 765 723 721
f 767 723 765
f 724 768 722
f 722 768 766
f 767 725 723
f 769 725 767
f 726 770 724
f 724 770 768
f 769 727 725
f 771 727 769
f 728 772 726
f 726 772 770
f 771 729 727
f 773 729 771
f 730 774 728
f 728 774 772
f 773 731 729
f 775 731 773
f 732 776 730
f 730 776 774
f 775 733 731
f 777 733 775
f 734 778 732
f 732 778 776
f 777 735 733
f 779 735 777
f 736 780 734
f 734 780 778
f 779 737 735
f 781 737 779
f 738 782 736
f 736 782 780
f 781 739 737
f 783 739 781
f 740 784 738
f 738 784 782
f 783 741 739
f 785 741 783
f 742 786 740
f 740 786 784
f 785 743 741
f 787 743 785
f 744 788 742
f 742 788 786
f 787 745 743
f 789 745 787
f 746 790 744
f 744 790 788
f 789 747 745
f 747 792 748
f 791 747 789
f 791 792 747
f 748 792 746
f 746 792 790
f 793 750 749
f 751 793 749
f 794 750 793
f 752 796 751
f 795 793 751
f 751 796 795
f 795 794 793
f 796 794 795
f 794 753 750
f 797 753 794
f 754 798 752
f 752 798 796
f 796 797 794
f 798 797 796
f 797 755 753
f 799 755 797
f 756 800 754
f 754 800 798
f 798 799 797
f 800 799 798
f 799 757 755
f 801 757 799
f 758 802 756
f 756 802 800
f 800 801 799
f 802 801 800
f 801 759 757
f 803 759 801
f 760 804 758
f 758 804 802
f 802 803 801
f 804 803 802
f 803 761 759
f 805 761 803
f 762 806 760
f 760 806 804
f 804 805 803
f 806 805 804
f 805 763 761
f 807 763 805
f 764 808 762
f 762 808 806
f 806 807 805
f 808 807 806
f 807 765 763
f 809 765 807
f 766 810 764
f 764 810 808
f 808 809 807
f 810 809 808
f 809 767 765
f 811 767 809
f 768 812 766
f 766 812 810
f 810 811 809
f 812 811 810
f 811 769 767
f 813 769 811
f 770 814 768
f 768 814 812
f 812 813 811
f 814 813 812
f 813 771 769
f 815 771 813
f 772 816 770
f 770 816 814
f 814 815 813
f 816 815 814
f 815 773 771
f 817 773 815
f 774 818 772
f 772 818 816
f 816 817 815
f 818 817 816
f 817 775 773
f 819 775 817
f 776 820 774
f 774 820 818
f 818 819 817
f 820 819 818
f 819 777 775
f 821 777 819
f 778 822 776
f 776 822 820
f 820 821 819
f 822 821 820
f 821 779 777
f 823 779 821
f 780 824 778
f 778 824 822
f 822 823 821
f 824 823 822
f 823 781 779
f 825 781 823
f 782 826 780
f 780 826 824
f 824 825 823
f 826 825 824
f 825 783 781
f 827 783 825
f 784 828 782
f 782 828 826
f 826 827 825
f 828 827 826
f 827 785 783
f 829 785 827
f 786 830 784
f 784 830 828
f 828 829 827
f 830 829 828
f 829 787 785
f 831 787 829
f 788 832 786
f 786 832 830
f 830 831 829
f 832 831 830
f 831 789 787
f 833 789 831
f 790 834 788
f 788 834 832
f 832 833 831
f 834 833 832
f 833 791 789
f 791 836 792
f 835 791 833
f 835 836 791
f 792 836 790
f 790 836 834
f 834 835 833
f 836 835 834

