# https://github.com/mikedh/trimesh
v -0.40133336 -0.26666661 0.50000000
v -0.40133336 0.26666661 0.47333361
v -0.40133336 0.26666661 0.50000000
v -0.40133336 -0.26666661 0.47333361
v 0.39866646 0.26666661 0.50000000
v 0.39866646 -0.26666661 0.50000000
v 0.39866646 -0.26666661 0.47333361
v 0.39866646 0.26666661 0.47333361
v -0.03414156 -0.25710764 0.46747468
v -0.03000003 0.25715080 0.47065411
v -0.03000003 -0.25710764 0.47065411
v -0.03414156 0.25715080 0.46747468
v -0.02517603 0.25715080 0.47265115
v -0.00585758 -0.25710764 0.46747468
v -0.37250000 -0.25710764 0.47333361
v -0.03732009 0.25715080 0.46333405
v -0.37250000 0.25715080 0.47333361
v -0.02517603 -0.25710764 0.47265115
v -0.00267905 -0.25710764 0.46333405
v -0.01000001 -0.25710764 0.47065411
v -0.03732009 -0.25710764 0.46333405
v -0.02000047 0.25715080 0.47333361
v 0.00585848 -0.25710764 0.46747468
v -0.00585758 0.25715080 0.46747468
v 0.01000001 -0.25710764 0.47065411
v -0.03931892 -0.25710764 0.45851006
v -0.02000047 -0.25710764 0.47333361
v -0.03931892 0.25715080 0.45851006
v -0.01482400 -0.25710764 0.47265115
v -0.00068201 -0.25710764 0.45851006
v 0.00267995 -0.25710764 0.46333405
v -0.00267905 0.25715080 0.46333405
v 0.01482400 -0.25710764 0.47265115
v -0.01000001 0.25715080 0.47065411
v -0.04000049 -0.25710764 0.45333359
v -0.04000049 0.25715080 0.45333359
v -0.01482400 0.25715080 0.47265115
v 0.03732099 -0.25710764 0.46333405
v 0.00267995 0.25715080 0.46333405
v 0.03414246 -0.25710764 0.46747468
v 0.01000001 0.25715080 0.47065411
v 0.00585848 0.25715080 0.46747468
v 0.03000003 -0.25710764 0.47065411
v 0.01482400 0.25715080 0.47265115
v -0.03931892 -0.25710764 0.44815623
v -0.00000045 -0.25710764 0.45333359
v 0.01999957 -0.25710764 0.47333361
v -0.03931892 0.25715080 0.44815623
v 0.01999957 0.25715080 0.47333361
v 0.00068111 -0.25710764 0.45851006
v -0.00068201 0.25715080 0.45851006
v 0.03931802 -0.25710764 0.45851006
v 0.00068111 0.25715080 0.45851006
v 0.02517603 -0.25710764 0.47265115
v -0.03732009 -0.25710764 0.44333403
v -0.00068201 -0.25710764 0.44815623
v -0.00000045 -0.25710764 0.47333361
v -0.03732009 0.25715080 0.44333403
v -0.00000045 0.25715080 0.47333361
v 0.03732099 0.25715080 0.46333405
v 0.37250000 -0.25710764 0.47333361
v 0.03414246 0.25715080 0.46747468
v 0.03000003 0.25715080 0.47065411
v -0.03414156 -0.25710764 0.43919070
v -0.00267905 -0.25710764 0.44333403
v 0.00068111 -0.25710764 0.44815623
v -0.00000045 0.25715080 0.45333359
v 0.03999959 -0.25710764 0.45333359
v -0.03414156 0.25715080 0.43919070
v 0.02517603 0.25715080 0.47265115
v 0.03931802 0.25715080 0.45851006
v -0.03000003 -0.25710764 0.43601217
v -0.00585758 -0.25710764 0.43919070
v 0.00267995 -0.25710764 0.44333403
v -0.00068201 0.25715080 0.44815623
v 0.03931802 -0.25710764 0.44815623
v 0.00068111 0.25715080 0.44815623
v -0.03000003 0.25715080 0.43601217
v 0.37250000 0.25715080 0.47333361
v -0.02517603 -0.25710764 0.43401514
v -0.01000001 -0.25710764 0.43601217
v -0.00267905 0.25715080 0.44333403
v 0.00585848 -0.25710764 0.43919070
v 0.03732099 -0.25710764 0.44333403
v 0.00267995 0.25715080 0.44333403
v 0.03999959 0.25715080 0.45333359
v -0.02517603 0.25715080 0.43401514
v -0.02000047 -0.25710764 0.43333357
v -0.01482400 -0.25710764 0.43401514
v -0.01000001 0.25715080 0.43601217
v 0.01000001 -0.25710764 0.43601217
v -0.00585758 0.25715080 0.43919070
v 0.03414246 -0.25710764 0.43919070
v 0.00585848 0.25715080 0.43919070
v 0.03931802 0.25715080 0.44815623
v -0.02000047 0.25715080 0.43333357
v -0.37250000 -0.25710764 0.41333356
v -0.01482400 0.25715080 0.43401514
v 0.01482400 -0.25710764 0.43401514
v 0.03000003 -0.25710764 0.43601217
v 0.03732099 0.25715080 0.44333403
v -0.37250000 0.25715080 0.41333356
v 0.37250000 -0.25710764 0.41333356
v 0.01999957 -0.25710764 0.43333357
v 0.01000001 0.25715080 0.43601217
v 0.01482400 0.25715080 0.43401514
v 0.02517603 -0.25710764 0.43401514
v 0.03000003 0.25715080 0.43601217
v 0.03414246 0.25715080 0.43919070
v 0.37250000 0.25715080 0.41333356
v 0.01999957 0.25715080 0.43333357
v 0.02517603 0.25715080 0.43401514
v -0.39046342 -0.23914511 0.42000083
v -0.39046342 0.23918827 0.47333361
v -0.39046342 0.23918827 0.42000083
v -0.39046342 -0.23914511 0.47333361
v 0.38666627 -0.23864518 0.47333361
v 0.38666627 0.23868834 0.41333356
v 0.38666627 0.23868834 0.47333361
v 0.38666627 -0.23864518 0.41333356
v 0.39866646 0.29333300 0.10700140
v 0.39866646 0.26666661 0.10700140
v 0.39866646 0.29333300 0.11333329
v 0.39811707 0.29333300 0.10261799
v 0.39811707 0.26666661 0.10261799
v 0.39866646 0.29333300 0.47333361
v -0.40133336 0.29333300 0.47333361
v 0.39667482 0.29333300 0.09743524
v 0.39667482 0.26666661 0.09743524
v 0.39449076 0.29333300 0.09252043
v 0.39449076 0.26666661 0.09252043
v -0.40133336 0.29333300 0.11333329
v 0.39160895 0.29333300 0.08797787
v 0.39160895 0.26666661 0.08797787
v -0.40133336 0.26666661 0.10700140
v -0.40133336 0.29333300 0.10700140
v 0.38809413 0.29333300 0.08390467
v 0.38809413 0.26666661 0.08390467
v -0.40078398 0.26666661 0.10261799
v -0.40078398 0.29333300 0.10261799
v 0.38402273 0.29333300 0.08039076
v 0.38402273 0.26666661 0.08039076
v -0.39934172 0.26666661 0.09743524
v -0.39934172 0.29333300 0.09743524
v 0.37948018 0.29333300 0.07750985
v 0.37948018 0.26666661 0.07750985
v -0.39715677 0.26666661 0.09252043
v -0.39715677 0.29333300 0.09252043
v 0.37456357 0.29333300 0.07532399
v 0.37456357 0.26666661 0.07532399
v -0.39427676 0.26666661 0.08797787
v -0.39427676 0.29333300 0.08797787
v 0.36938261 0.29333300 0.07388174
v 0.36938261 0.26666661 0.07388174
v -0.39076194 0.26666661 0.08390467
v -0.39076194 0.29333300 0.08390467
v 0.36499831 0.29333300 0.07333415
v 0.36499831 0.26666661 0.07333415
v -0.38668964 0.26666661 0.08039076
v -0.38668964 0.29333300 0.08039076
v 0.35866642 0.29333300 0.07333415
v -0.36766431 0.26666661 0.07333415
v -0.38214529 0.26666661 0.07750985
v -0.38214529 0.29333300 0.07750985
v -0.36133333 0.29333300 0.07333415
v -0.36766431 0.29333300 0.07333415
v -0.37204862 0.26666661 0.07388174
v -0.37723138 0.26666661 0.07532399
v -0.37723138 0.29333300 0.07532399
v -0.37204862 0.29333300 0.07388174
v -0.03184331 0.26666661 0.14504396
v -0.00517602 0.26666661 0.21171129
v -0.00517602 0.26666661 0.14504396
v -0.03184331 0.26666661 0.21171129
v -0.00517602 0.25333386 0.18171081
v -0.00517602 0.23666703 0.14504396
v -0.03184331 0.25333386 0.21171129
v -0.00517602 0.25333386 0.21171129
v -0.00517602 0.25418267 0.17814744
v -0.03184331 0.23666703 0.14504396
v -0.00517602 0.23990940 0.14674697
v -0.03184331 0.25333386 0.18171081
v -0.00517602 0.25459898 0.17450854
v -0.03184331 0.23990940 0.14674697
v -0.00517602 0.24292518 0.14882673
v -0.03184331 0.25418267 0.17814744
v -0.03184331 0.25459898 0.17450854
v -0.00517602 0.25457470 0.17084446
v -0.03184331 0.24292518 0.14882673
v -0.00517602 0.24567122 0.15125356
v -0.00517602 0.25411343 0.16721096
v -0.03184331 0.24567122 0.15125356
v -0.00517602 0.24810435 0.15399061
v -0.03184331 0.25457470 0.17084446
v -0.00517602 0.25321967 0.16365748
v -0.03184331 0.24810435 0.15399061
v -0.00517602 0.25019309 0.15700010
v -0.03184331 0.25411343 0.16721096
v -0.00517602 0.25190689 0.16023797
v -0.03184331 0.25019309 0.15700010
v -0.03184331 0.25321967 0.16365748
v -0.03184331 0.25190689 0.16023797
v -0.40133336 -0.29333300 0.11333329
v -0.40133336 -0.29333300 0.47333361
v -0.40133336 -0.26666661 0.10700140
v 0.39866646 -0.29333300 0.47333361
v -0.40133336 -0.29333300 0.10700140
v -0.40078398 -0.26666661 0.10261799
v 0.39811707 -0.29333300 0.10261799
v -0.40078398 -0.29333300 0.10261799
v -0.39934172 -0.26666661 0.09743524
v 0.39866646 -0.26666661 0.10700140
v 0.39866646 -0.29333300 0.11333329
v 0.39667482 -0.29333300 0.09743524
v -0.39934172 -0.29333300 0.09743524
v -0.39715677 -0.26666661 0.09252043
v 0.39811707 -0.26666661 0.10261799
v 0.39866646 -0.29333300 0.10700140
v 0.39667482 -0.26666661 0.09743524
v 0.39449076 -0.29333300 0.09252043
v -0.39715677 -0.29333300 0.09252043
v -0.39427676 -0.26666661 0.08797787
v 0.39449076 -0.26666661 0.09252043
v 0.39160895 -0.29333300 0.08797787
v -0.39427676 -0.29333300 0.08797787
v -0.39076194 -0.26666661 0.08390467
v 0.39160895 -0.26666661 0.08797787
v 0.38809413 -0.29333300 0.08390467
v -0.39076194 -0.29333300 0.08390467
v -0.38668964 -0.26666661 0.08039076
v 0.38809413 -0.26666661 0.08390467
v 0.38402273 -0.29333300 0.08039076
v -0.38668964 -0.29333300 0.08039076
v -0.38214529 -0.26666661 0.07750985
v 0.37948018 -0.29333300 0.07750985
v -0.38214529 -0.29333300 0.07750985
v -0.37723138 -0.26666661 0.07532399
v 0.38402273 -0.26666661 0.08039076
v 0.37456357 -0.29333300 0.07532399
v -0.37723138 -0.29333300 0.07532399
v -0.37204862 -0.26666661 0.07388174
v 0.37948018 -0.26666661 0.07750985
v 0.36938261 -0.29333300 0.07388174
v -0.37204862 -0.29333300 0.07388174
v -0.36766431 -0.26666661 0.07333415
v 0.37456357 -0.26666661 0.07532399
v 0.36499831 -0.29333300 0.07333415
v -0.36766431 -0.29333300 0.07333415
v 0.36499831 -0.26666661 0.07333415
v 0.36938261 -0.26666661 0.07388174
v 0.35866642 -0.29333300 0.07333415
v -0.36133333 -0.29333300 0.07333415
v 0.03333321 -0.26666661 0.13333330
v 0.00666682 -0.26666661 0.20000063
v 0.00666682 -0.26666661 0.13333330
v 0.03333321 -0.26666661 0.20000063
v 0.00666682 -0.25333296 0.17000015
v 0.03333321 -0.23666703 0.13333330
v 0.03333321 -0.25333296 0.20000063
v 0.00666682 -0.25333296 0.20000063
v 0.00666682 -0.25418267 0.16643678
v 0.00666682 -0.23666703 0.13333330
v 0.03333321 -0.23990940 0.13503631
v 0.03333321 -0.25333296 0.17000015
v 0.00666682 -0.25459718 0.16279608
v 0.00666682 -0.23990940 0.13503631
v 0.03333321 -0.24292518 0.13711607
v 0.03333321 -0.25418267 0.16643678
v 0.03333321 -0.25459718 0.16279608
v 0.00666682 -0.25457470 0.15913380
v 0.00666682 -0.24292518 0.13711607
v 0.03333321 -0.24566942 0.13954290
v 0.00666682 -0.25411343 0.15549940
v 0.00666682 -0.24566942 0.13954290
v 0.03333321 -0.24810435 0.14227995
v 0.03333321 -0.25457470 0.15913380
v 0.00666682 -0.25321877 0.15194682
v 0.00666682 -0.24810435 0.14227995
v 0.03333321 -0.25019309 0.14528944
v 0.03333321 -0.25411343 0.15549940
v 0.00666682 -0.25190689 0.14852731
v 0.00666682 -0.25019309 0.14528944
v 0.03333321 -0.25190689 0.14852731
v 0.03333321 -0.25321877 0.15194682
v -0.37250000 0.24955919 0.47333361
v -0.37200006 0.25335454 0.47333361
v -0.37396563 0.26068809 0.47333361
v -0.37200006 0.25335454 -0.50000000
v -0.37250000 0.25715080 -0.50000000
v -0.37396563 0.26068809 -0.50000000
v -0.37396563 0.24602099 0.47333361
v -0.37250000 0.24955919 -0.50000000
v -0.37629625 0.26372545 -0.50000000
v -0.37629625 0.26372545 0.47333361
v -0.37396563 0.24602099 -0.50000000
v -0.37629625 0.24298453 -0.50000000
v -0.37629625 0.24298453 0.47333361
v -0.37933361 0.26605608 0.47333361
v -0.37933361 0.24065301 -0.50000000
v -0.37933361 0.26605608 -0.50000000
v -0.37933361 0.24065301 0.47333361
v -0.38287091 0.26752171 0.47333361
v -0.38287091 0.23918827 -0.50000000
v -0.38287091 0.26752171 -0.50000000
v -0.38287091 0.23918827 0.47333361
v -0.38666716 0.26802164 0.47333361
v -0.38666716 0.23868834 -0.50000000
v -0.38666716 0.26802164 -0.50000000
v -0.38666716 0.23868834 0.47333361
v -0.39046342 0.26752171 0.47333361
v -0.39046342 0.23918827 -0.50000000
v -0.39046342 0.26752171 -0.50000000
v -0.39400071 0.26605608 0.47333361
v -0.39400071 0.24065301 -0.50000000
v -0.39400071 0.26605608 -0.50000000
v -0.39400071 0.24065301 0.47333361
v -0.39703808 0.26372545 0.47333361
v -0.39703808 0.24298453 -0.50000000
v -0.39703808 0.26372545 -0.50000000
v -0.39703808 0.24298453 0.47333361
v -0.39936870 0.26068809 -0.50000000
v -0.39936870 0.24602099 -0.50000000
v -0.39936870 0.26068809 0.47333361
v -0.39936870 0.24602099 0.47333361
v -0.40083343 0.25715080 -0.50000000
v -0.40083343 0.24955919 -0.50000000
v -0.40083343 0.24955919 0.47333361
v -0.40083343 0.25715080 0.47333361
v -0.40133336 0.25335454 -0.50000000
v -0.40133336 0.25335454 0.47333361
v 0.40083343 0.25715080 0.47333361
v 0.40083343 0.24955919 0.47333361
v 0.40133336 0.25335454 0.47333361
v 0.39936780 0.26068809 0.47333361
v 0.40133336 0.25335454 -0.50000000
v 0.40083343 0.25715080 -0.50000000
v 0.39936780 0.26068809 -0.50000000
v 0.39936780 0.24602099 0.47333361
v 0.40083343 0.24955919 -0.50000000
v 0.39703718 0.26372545 -0.50000000
v 0.39703718 0.26372545 0.47333361
v 0.39936780 0.24602099 -0.50000000
v 0.39703718 0.24298453 -0.50000000
v 0.39703718 0.24298453 0.47333361
v 0.39399981 0.26605608 0.47333361
v 0.39399981 0.24065301 -0.50000000
v 0.39399981 0.26605608 -0.50000000
v 0.39399981 0.24065301 0.47333361
v 0.39046252 0.26752171 0.47333361
v 0.39046252 0.23918827 -0.50000000
v 0.39046252 0.26752171 -0.50000000
v 0.39046252 0.23918827 0.47333361
v 0.38666627 0.26802164 0.47333361
v 0.38666627 0.23868834 -0.50000000
v 0.38666627 0.26802164 -0.50000000
v 0.38287001 0.26752171 0.47333361
v 0.38287001 0.23918827 -0.50000000
v 0.38287001 0.26752171 -0.50000000
v 0.38287001 0.23918827 0.47333361
v 0.37933272 0.26605608 0.47333361
v 0.37933272 0.24065301 -0.50000000
v 0.37933272 0.26605608 -0.50000000
v 0.37933272 0.24065301 0.47333361
v 0.37629535 0.26372545 0.47333361
v 0.37629535 0.24298453 -0.50000000
v 0.37629535 0.26372545 -0.50000000
v 0.37629535 0.24298453 0.47333361
v 0.37396473 0.26068809 -0.50000000
v 0.37396473 0.24602099 -0.50000000
v 0.37396473 0.26068809 0.47333361
v 0.37396473 0.24602099 0.47333361
v 0.37250000 0.25715080 -0.50000000
v 0.37250000 0.24955919 -0.50000000
v 0.37250000 0.24955919 0.47333361
v 0.37200006 0.25335454 -0.50000000
v 0.37200006 0.25335454 0.47333361
v 0.40083343 -0.24951603 0.47333361
v 0.40083343 -0.25710764 0.47333361
v 0.40133336 -0.25331228 0.47333361
v 0.39936780 -0.24597873 0.47333361
v 0.40133336 -0.25331228 -0.50000000
v 0.40083343 -0.24951603 -0.50000000
v 0.39936780 -0.24597873 -0.50000000
v 0.39936780 -0.26064493 0.47333361
v 0.40083343 -0.25710764 -0.50000000
v 0.39703718 -0.24294137 -0.50000000
v 0.39703718 -0.24294137 0.47333361
v 0.39936780 -0.26064493 -0.50000000
v 0.39703718 -0.26368229 -0.50000000
v 0.39703718 -0.26368229 0.47333361
v 0.39399981 -0.24061075 0.47333361
v 0.39399981 -0.26601292 -0.50000000
v 0.39399981 -0.24061075 -0.50000000
v 0.39399981 -0.26601292 0.47333361
v 0.39046252 -0.23914511 0.47333361
v 0.39046252 -0.26747855 -0.50000000
v 0.39046252 -0.23914511 -0.50000000
v 0.39046252 -0.26747855 0.47333361
v 0.38666627 -0.26797848 -0.50000000
v 0.38666627 -0.23864518 -0.50000000
v 0.38666627 -0.26797848 0.47333361
v 0.38287001 -0.23914511 0.47333361
v 0.38287001 -0.26747855 -0.50000000
v 0.38287001 -0.23914511 -0.50000000
v 0.38287001 -0.26747855 0.47333361
v 0.37933272 -0.24061075 0.47333361
v 0.37933272 -0.26601292 -0.50000000
v 0.37933272 -0.24061075 -0.50000000
v 0.37933272 -0.26601292 0.47333361
v 0.37629535 -0.24294137 0.47333361
v 0.37629535 -0.26368229 -0.50000000
v 0.37629535 -0.24294137 -0.50000000
v 0.37629535 -0.26368229 0.47333361
v 0.37396473 -0.24597873 -0.50000000
v 0.37396473 -0.26064493 -0.50000000
v 0.37396473 -0.24597873 0.47333361
v 0.37396473 -0.26064493 0.47333361
v 0.37250000 -0.24951603 -0.50000000
v 0.37250000 -0.25710764 -0.50000000
v 0.37250000 -0.24951603 0.47333361
v 0.37200006 -0.25331228 -0.50000000
v 0.37200006 -0.25331228 0.47333361
v -0.37250000 -0.24951603 0.47333361
v -0.37200006 -0.25331228 0.47333361
v -0.37396563 -0.24597873 0.47333361
v -0.37200006 -0.25331228 -0.50000000
v -0.37250000 -0.24951603 -0.50000000
v -0.37396563 -0.24597873 -0.50000000
v -0.37396563 -0.26064493 0.47333361
v -0.37250000 -0.25710764 -0.50000000
v -0.37629625 -0.24294137 -0.50000000
v -0.37629625 -0.24294137 0.47333361
v -0.37396563 -0.26064493 -0.50000000
v -0.37629625 -0.26368229 -0.50000000
v -0.37629625 -0.26368229 0.47333361
v -0.37933361 -0.24061075 0.47333361
v -0.37933361 -0.26601292 -0.50000000
v -0.37933361 -0.24061075 -0.50000000
v -0.37933361 -0.26601292 0.47333361
v -0.38287091 -0.23914511 0.47333361
v -0.38287091 -0.26747855 -0.50000000
v -0.38287091 -0.23914511 -0.50000000
v -0.38287091 -0.26747855 0.47333361
v -0.38666716 -0.23864518 0.47333361
v -0.38666716 -0.26797848 -0.50000000
v -0.38666716 -0.23864518 -0.50000000
v -0.38666716 -0.26797848 0.47333361
v -0.39046342 -0.26747855 -0.50000000
v -0.39046342 -0.23914511 -0.50000000
v -0.39046342 -0.26747855 0.47333361
v -0.39400071 -0.24061075 0.47333361
v -0.39400071 -0.26601292 -0.50000000
v -0.39400071 -0.24061075 -0.50000000
v -0.39400071 -0.26601292 0.47333361
v -0.39703808 -0.24294137 0.47333361
v -0.39703808 -0.26368229 -0.50000000
v -0.39703808 -0.24294137 -0.50000000
v -0.39703808 -0.26368229 0.47333361
v -0.39936870 -0.24597873 -0.50000000
v -0.39936870 -0.26064493 -0.50000000
v -0.39936870 -0.24597873 0.47333361
v -0.39936870 -0.26064493 0.47333361
v -0.40083343 -0.24951603 -0.50000000
v -0.40083343 -0.25710764 -0.50000000
v -0.40083343 -0.25710764 0.47333361
v -0.40083343 -0.24951603 0.47333361
v -0.40133336 -0.25331228 -0.50000000
v -0.40133336 -0.25331228 0.47333361
f 1 2 3
f 2 1 4
f 3 2 1
f 4 1 2
f 2 5 3
f 3 5 2
f 5 1 3
f 3 1 5
f 4 6 1
f 1 6 4
f 7 2 4
f 4 2 7
f 5 2 8
f 8 2 5
f 1 5 6
f 6 5 1
f 6 4 7
f 7 4 6
f 2 7 8
f 8 7 2
f 7 5 8
f 8 5 7
f 5 7 6
f 6 7 5
f 9 10 11
f 10 9 12
f 11 10 9
f 12 9 10
f 13 11 10
f 10 11 13
f 14 9 11
f 11 9 14
f 9 15 11
f 11 15 9
f 9 16 12
f 12 16 9
f 12 17 10
f 10 17 12
f 11 13 18
f 18 13 11
f 10 17 13
f 13 17 10
f 19 9 14
f 14 9 19
f 14 11 20
f 20 11 14
f 21 15 9
f 9 15 21
f 11 15 18
f 18 15 11
f 16 9 21
f 21 9 16
f 16 17 12
f 12 17 16
f 22 18 13
f 13 18 22
f 20 11 18
f 18 11 20
f 13 17 22
f 22 17 13
f 19 21 9
f 9 21 19
f 23 19 14
f 14 19 23
f 24 19 14
f 14 19 24
f 25 14 20
f 20 14 25
f 20 24 14
f 14 24 20
f 26 15 21
f 21 15 26
f 18 15 27
f 27 15 18
f 21 28 16
f 16 28 21
f 28 17 16
f 16 17 28
f 18 22 27
f 27 22 18
f 20 18 29
f 29 18 20
f 30 21 19
f 19 21 30
f 31 19 23
f 23 19 31
f 23 14 25
f 25 14 23
f 19 24 32
f 32 24 19
f 25 20 33
f 33 20 25
f 24 20 34
f 34 20 24
f 35 15 26
f 26 15 35
f 28 21 26
f 26 21 28
f 30 26 21
f 21 26 30
f 29 18 27
f 27 18 29
f 36 17 28
f 28 17 36
f 37 27 22
f 22 27 37
f 33 20 29
f 29 20 33
f 29 34 20
f 20 34 29
f 31 30 19
f 19 30 31
f 32 30 19
f 19 30 32
f 38 31 23
f 23 31 38
f 39 23 31
f 31 23 39
f 38 31 23
f 23 31 38
f 40 23 25
f 25 23 40
f 23 41 25
f 25 41 23
f 40 23 25
f 25 23 40
f 42 32 24
f 24 32 42
f 43 25 33
f 33 25 43
f 43 25 33
f 33 25 43
f 25 44 33
f 33 44 25
f 41 24 34
f 34 24 41
f 45 15 35
f 35 15 45
f 36 26 35
f 35 26 36
f 46 35 26
f 26 35 46
f 26 36 28
f 28 36 26
f 46 26 30
f 30 26 46
f 47 29 27
f 27 29 47
f 27 37 29
f 29 37 27
f 48 17 36
f 36 17 48
f 49 37 22
f 22 37 49
f 33 29 47
f 47 29 33
f 34 29 37
f 37 29 34
f 50 30 31
f 31 30 50
f 30 32 51
f 51 32 30
f 52 31 38
f 38 31 52
f 52 31 38
f 38 31 52
f 38 23 40
f 40 23 38
f 38 23 40
f 40 23 38
f 23 39 42
f 42 39 23
f 31 53 39
f 39 53 31
f 40 25 43
f 43 25 40
f 40 25 43
f 43 25 40
f 41 23 42
f 42 23 41
f 44 25 41
f 41 25 44
f 39 32 42
f 42 32 39
f 42 24 41
f 41 24 42
f 43 33 54
f 54 33 43
f 43 33 54
f 54 33 43
f 49 33 44
f 44 33 49
f 41 34 44
f 44 34 41
f 55 15 45
f 45 15 55
f 48 35 45
f 45 35 48
f 56 45 35
f 35 45 56
f 35 48 36
f 36 48 35
f 56 35 46
f 46 35 56
f 30 50 46
f 46 50 30
f 51 46 30
f 30 46 51
f 47 27 57
f 57 27 47
f 58 17 48
f 48 17 58
f 44 37 49
f 49 37 44
f 49 22 59
f 59 22 49
f 33 49 47
f 47 49 33
f 54 33 47
f 47 33 54
f 54 33 47
f 47 33 54
f 44 34 37
f 37 34 44
f 53 31 50
f 50 31 53
f 52 50 31
f 31 50 52
f 52 50 31
f 31 50 52
f 39 51 32
f 32 51 39
f 60 52 38
f 38 52 60
f 61 52 38
f 38 52 61
f 62 38 40
f 40 38 62
f 61 38 40
f 40 38 61
f 53 51 39
f 39 51 53
f 43 62 40
f 40 62 43
f 61 40 43
f 43 40 61
f 54 63 43
f 43 63 54
f 61 43 54
f 54 43 61
f 64 15 55
f 55 15 64
f 58 45 55
f 55 45 58
f 65 55 45
f 45 55 65
f 45 58 48
f 48 58 45
f 65 45 56
f 56 45 65
f 66 56 46
f 46 56 66
f 67 56 46
f 46 56 67
f 67 50 46
f 46 50 67
f 68 46 50
f 50 46 68
f 68 46 50
f 50 46 68
f 46 51 67
f 67 51 46
f 69 17 58
f 58 17 69
f 70 47 49
f 49 47 70
f 47 70 54
f 54 70 47
f 61 54 47
f 47 54 61
f 50 67 53
f 53 67 50
f 68 50 52
f 52 50 68
f 68 50 52
f 52 50 68
f 52 60 71
f 71 60 52
f 38 62 60
f 60 62 38
f 61 68 52
f 52 68 61
f 51 53 67
f 67 53 51
f 62 43 63
f 63 43 62
f 63 54 70
f 70 54 63
f 72 15 64
f 64 15 72
f 69 55 64
f 64 55 69
f 73 64 55
f 55 64 73
f 55 69 58
f 58 69 55
f 73 55 65
f 65 55 73
f 74 65 56
f 56 65 74
f 75 65 56
f 56 65 75
f 74 56 66
f 66 56 74
f 76 66 46
f 46 66 76
f 77 46 66
f 66 46 77
f 76 66 46
f 46 66 76
f 56 67 75
f 75 67 56
f 46 77 67
f 67 77 46
f 76 46 68
f 68 46 76
f 76 46 68
f 68 46 76
f 78 17 69
f 69 17 78
f 79 70 49
f 49 70 79
f 71 68 52
f 52 68 71
f 79 71 60
f 60 71 79
f 79 60 62
f 62 60 79
f 61 76 68
f 68 76 61
f 79 62 63
f 63 62 79
f 79 63 70
f 70 63 79
f 80 15 72
f 72 15 80
f 72 69 64
f 64 69 72
f 81 72 64
f 64 72 81
f 81 64 73
f 73 64 81
f 82 73 65
f 65 73 82
f 83 73 65
f 65 73 83
f 83 65 74
f 74 65 83
f 65 75 82
f 82 75 65
f 84 74 66
f 66 74 84
f 85 66 74
f 74 66 85
f 84 74 66
f 66 74 84
f 84 66 76
f 76 66 84
f 84 66 76
f 76 66 84
f 66 85 77
f 77 85 66
f 77 75 67
f 67 75 77
f 86 76 68
f 68 76 86
f 87 17 78
f 78 17 87
f 69 72 78
f 78 72 69
f 68 71 86
f 86 71 68
f 79 86 71
f 71 86 79
f 61 84 76
f 76 84 61
f 88 15 80
f 80 15 88
f 80 78 72
f 72 78 80
f 89 80 72
f 72 80 89
f 89 72 81
f 81 72 89
f 73 90 81
f 81 90 73
f 91 81 73
f 73 81 91
f 73 82 92
f 92 82 73
f 91 73 83
f 83 73 91
f 93 83 74
f 74 83 93
f 94 74 83
f 83 74 94
f 93 83 74
f 74 83 93
f 85 82 75
f 75 82 85
f 93 74 84
f 84 74 93
f 93 74 84
f 84 74 93
f 74 94 85
f 85 94 74
f 95 84 76
f 76 84 95
f 85 75 77
f 77 75 85
f 76 86 95
f 95 86 76
f 96 17 87
f 87 17 96
f 78 80 87
f 87 80 78
f 79 95 86
f 86 95 79
f 61 93 84
f 84 93 61
f 88 97 15
f 15 97 88
f 88 87 80
f 80 87 88
f 80 89 88
f 88 89 80
f 81 98 89
f 89 98 81
f 99 89 81
f 81 89 99
f 90 73 92
f 92 73 90
f 98 81 90
f 90 81 98
f 99 81 91
f 91 81 99
f 94 92 82
f 82 92 94
f 100 91 83
f 83 91 100
f 91 94 83
f 83 94 91
f 100 91 83
f 83 91 100
f 100 83 93
f 93 83 100
f 100 83 93
f 93 83 100
f 94 82 85
f 85 82 94
f 101 93 84
f 84 93 101
f 84 95 101
f 101 95 84
f 96 102 17
f 17 102 96
f 87 88 96
f 96 88 87
f 79 101 95
f 95 101 79
f 61 100 93
f 93 100 61
f 97 88 103
f 103 88 97
f 89 96 88
f 88 96 89
f 89 104 88
f 88 104 89
f 96 89 98
f 98 89 96
f 104 89 99
f 99 89 104
f 105 90 92
f 92 90 105
f 106 98 90
f 90 98 106
f 107 99 91
f 91 99 107
f 99 105 91
f 91 105 99
f 107 99 91
f 91 99 107
f 105 92 94
f 94 92 105
f 107 91 100
f 100 91 107
f 107 91 100
f 100 91 107
f 94 91 105
f 105 91 94
f 93 108 100
f 100 108 93
f 93 101 109
f 109 101 93
f 102 96 110
f 110 96 102
f 79 109 101
f 101 109 79
f 61 107 100
f 100 107 61
f 104 103 88
f 88 103 104
f 98 111 96
f 96 111 98
f 99 107 104
f 104 107 99
f 104 106 99
f 99 106 104
f 99 107 104
f 104 107 99
f 106 90 105
f 105 90 106
f 111 98 106
f 106 98 111
f 105 99 106
f 106 99 105
f 100 112 107
f 107 112 100
f 108 93 109
f 109 93 108
f 112 100 108
f 108 100 112
f 111 110 96
f 96 110 111
f 79 108 109
f 109 108 79
f 61 104 107
f 107 104 61
f 103 104 61
f 61 104 103
f 107 111 104
f 104 111 107
f 106 104 111
f 111 104 106
f 111 107 112
f 112 107 111
f 79 112 108
f 108 112 79
f 110 111 79
f 79 111 110
f 79 111 112
f 112 111 79
f 113 114 115
f 114 113 116
f 115 114 113
f 116 113 114
f 117 118 119
f 118 117 120
f 119 118 117
f 120 117 118
f 8 121 122
f 121 8 123
f 122 121 8
f 123 8 121
f 124 122 121
f 121 122 124
f 125 8 122
f 122 8 125
f 123 8 126
f 126 8 123
f 123 127 121
f 121 127 123
f 122 124 125
f 125 124 122
f 121 127 124
f 124 127 121
f 8 125 2
f 2 125 8
f 8 127 126
f 126 127 8
f 127 123 126
f 126 123 127
f 128 125 124
f 124 125 128
f 124 127 128
f 128 127 124
f 2 125 129
f 129 125 2
f 127 8 2
f 2 8 127
f 125 128 129
f 129 128 125
f 128 127 130
f 130 127 128
f 2 129 131
f 131 129 2
f 2 132 127
f 127 132 2
f 130 129 128
f 128 129 130
f 130 127 133
f 133 127 130
f 129 130 131
f 131 130 129
f 2 131 134
f 134 131 2
f 135 132 2
f 2 132 135
f 136 127 132
f 132 127 136
f 133 127 137
f 137 127 133
f 133 131 130
f 130 131 133
f 131 133 134
f 134 133 131
f 2 134 138
f 138 134 2
f 132 135 136
f 136 135 132
f 2 139 135
f 135 139 2
f 140 127 136
f 136 127 140
f 137 127 141
f 141 127 137
f 137 134 133
f 133 134 137
f 134 137 138
f 138 137 134
f 2 138 142
f 142 138 2
f 139 136 135
f 135 136 139
f 2 143 139
f 139 143 2
f 144 127 140
f 140 127 144
f 136 139 140
f 140 139 136
f 141 127 145
f 145 127 141
f 142 137 141
f 141 137 142
f 137 142 138
f 138 142 137
f 2 142 146
f 146 142 2
f 2 147 143
f 143 147 2
f 143 140 139
f 139 140 143
f 148 127 144
f 144 127 148
f 140 143 144
f 144 143 140
f 145 127 149
f 149 127 145
f 146 141 145
f 145 141 146
f 141 146 142
f 142 146 141
f 2 146 150
f 150 146 2
f 2 151 147
f 147 151 2
f 147 144 143
f 143 144 147
f 152 127 148
f 148 127 152
f 144 147 148
f 148 147 144
f 149 127 153
f 153 127 149
f 150 145 149
f 149 145 150
f 145 150 146
f 146 150 145
f 2 150 154
f 154 150 2
f 2 155 151
f 151 155 2
f 151 148 147
f 147 148 151
f 156 127 152
f 152 127 156
f 148 151 152
f 152 151 148
f 153 127 157
f 157 127 153
f 154 149 153
f 153 149 154
f 149 154 150
f 150 154 149
f 2 154 158
f 158 154 2
f 2 159 155
f 155 159 2
f 155 152 151
f 151 152 155
f 160 127 156
f 156 127 160
f 152 155 156
f 156 155 152
f 157 127 161
f 161 127 157
f 158 153 157
f 157 153 158
f 153 158 154
f 154 158 153
f 2 158 162
f 162 158 2
f 2 163 159
f 159 163 2
f 160 155 159
f 159 155 160
f 164 127 160
f 160 127 164
f 155 160 156
f 156 160 155
f 161 127 165
f 165 127 161
f 166 157 161
f 161 157 166
f 157 162 158
f 158 162 157
f 2 162 167
f 167 162 2
f 2 168 163
f 163 168 2
f 164 159 163
f 163 159 164
f 159 164 160
f 160 164 159
f 169 127 164
f 164 127 169
f 165 127 166
f 166 127 165
f 166 161 165
f 165 161 166
f 162 157 166
f 166 157 162
f 166 167 162
f 162 167 166
f 2 167 168
f 168 167 2
f 169 163 168
f 168 163 169
f 163 169 164
f 164 169 163
f 170 127 169
f 169 127 170
f 166 127 170
f 170 127 166
f 167 166 170
f 170 166 167
f 170 168 167
f 167 168 170
f 168 170 169
f 169 170 168
f 171 172 173
f 172 171 174
f 173 172 171
f 174 171 172
f 173 175 172
f 173 171 176
f 174 177 171
f 174 172 177
f 178 172 175
f 179 175 173
f 180 176 171
f 176 181 173
f 182 171 177
f 178 177 172
f 178 175 177
f 175 179 182
f 183 179 173
f 176 180 181
f 180 171 184
f 181 185 173
f 186 171 182
f 182 177 175
f 186 182 179
f 183 187 179
f 188 183 173
f 184 181 180
f 184 171 189
f 185 190 173
f 181 184 185
f 187 171 186
f 186 179 187
f 183 188 187
f 191 188 173
f 189 171 192
f 189 185 184
f 190 193 173
f 185 189 190
f 194 171 187
f 194 187 188
f 188 191 194
f 195 191 173
f 192 171 196
f 192 190 189
f 193 197 173
f 193 190 196
f 198 171 194
f 198 194 191
f 191 195 198
f 199 195 173
f 196 171 200
f 192 196 190
f 197 199 173
f 197 193 200
f 196 200 193
f 201 171 198
f 201 198 195
f 195 199 201
f 200 171 202
f 199 197 202
f 200 202 197
f 202 171 201
f 202 201 199
f 172 175 173
f 176 171 173
f 171 177 174
f 177 172 174
f 175 172 178
f 173 175 179
f 171 176 180
f 173 181 176
f 177 171 182
f 172 177 178
f 177 175 178
f 182 179 175
f 173 179 183
f 181 180 176
f 184 171 180
f 173 185 181
f 182 171 186
f 175 177 182
f 179 182 186
f 179 187 183
f 173 183 188
f 180 181 184
f 189 171 184
f 173 190 185
f 185 184 181
f 186 171 187
f 187 179 186
f 187 188 183
f 173 188 191
f 192 171 189
f 184 185 189
f 173 193 190
f 190 189 185
f 187 171 194
f 188 187 194
f 194 191 188
f 173 191 195
f 196 171 192
f 189 190 192
f 173 197 193
f 196 190 193
f 194 171 198
f 191 194 198
f 198 195 191
f 173 195 199
f 200 171 196
f 190 196 192
f 173 199 197
f 200 193 197
f 193 200 196
f 198 171 201
f 195 198 201
f 201 199 195
f 202 171 200
f 202 197 199
f 197 202 200
f 201 171 202
f 199 201 202
f 203 4 204
f 4 203 205
f 204 4 203
f 205 203 4
f 4 206 204
f 204 206 4
f 204 207 203
f 203 207 204
f 205 203 207
f 207 203 205
f 208 4 205
f 205 4 208
f 206 4 7
f 7 4 206
f 206 209 204
f 204 209 206
f 204 210 207
f 207 210 204
f 210 205 207
f 207 205 210
f 211 4 208
f 208 4 211
f 205 210 208
f 208 210 205
f 4 212 7
f 7 212 4
f 212 206 7
f 7 206 212
f 213 209 206
f 206 209 213
f 204 209 214
f 214 209 204
f 204 215 210
f 210 215 204
f 216 4 211
f 211 4 216
f 208 215 211
f 211 215 208
f 215 208 210
f 210 208 215
f 212 4 217
f 217 4 212
f 206 212 213
f 213 212 206
f 209 213 218
f 218 213 209
f 209 219 214
f 214 219 209
f 204 214 220
f 220 214 204
f 204 221 215
f 215 221 204
f 222 4 216
f 216 4 222
f 211 221 216
f 216 221 211
f 221 211 215
f 215 211 221
f 217 4 219
f 219 4 217
f 217 218 212
f 212 218 217
f 213 212 218
f 218 212 213
f 218 217 209
f 209 217 218
f 219 209 217
f 217 209 219
f 223 214 219
f 219 214 223
f 214 223 220
f 220 223 214
f 204 220 224
f 224 220 204
f 204 225 221
f 221 225 204
f 226 4 222
f 222 4 226
f 216 225 222
f 222 225 216
f 225 216 221
f 221 216 225
f 219 4 223
f 223 4 219
f 227 220 223
f 223 220 227
f 220 227 224
f 224 227 220
f 204 224 228
f 228 224 204
f 204 229 225
f 225 229 204
f 230 4 226
f 226 4 230
f 222 229 226
f 226 229 222
f 229 222 225
f 225 222 229
f 223 4 227
f 227 4 223
f 231 224 227
f 227 224 231
f 224 231 228
f 228 231 224
f 204 228 232
f 232 228 204
f 204 233 229
f 229 233 204
f 234 4 230
f 230 4 234
f 229 230 226
f 226 230 229
f 227 4 231
f 231 4 227
f 231 232 228
f 228 232 231
f 204 232 235
f 235 232 204
f 204 236 233
f 233 236 204
f 230 229 233
f 233 229 230
f 237 4 234
f 234 4 237
f 233 234 230
f 230 234 233
f 231 4 238
f 238 4 231
f 232 231 238
f 238 231 232
f 238 235 232
f 232 235 238
f 204 235 239
f 239 235 204
f 204 240 236
f 236 240 204
f 234 233 236
f 236 233 234
f 241 4 237
f 237 4 241
f 236 237 234
f 234 237 236
f 238 4 242
f 242 4 238
f 235 238 242
f 242 238 235
f 242 239 235
f 235 239 242
f 204 239 243
f 243 239 204
f 204 244 240
f 240 244 204
f 237 236 240
f 240 236 237
f 245 4 241
f 241 4 245
f 240 241 237
f 237 241 240
f 242 4 246
f 246 4 242
f 239 242 246
f 246 242 239
f 246 243 239
f 239 243 246
f 204 243 247
f 247 243 204
f 204 248 244
f 244 248 204
f 241 240 244
f 244 240 241
f 249 4 245
f 245 4 249
f 244 245 241
f 241 245 244
f 246 4 250
f 250 4 246
f 243 246 250
f 250 246 243
f 250 247 243
f 243 247 250
f 204 247 251
f 251 247 204
f 204 252 248
f 248 252 204
f 245 244 248
f 248 244 245
f 250 4 249
f 249 4 250
f 248 249 245
f 245 249 248
f 247 250 249
f 249 250 247
f 247 252 251
f 251 252 247
f 204 251 252
f 252 251 204
f 247 248 252
f 252 248 247
f 249 248 247
f 247 248 249
f 253 254 255
f 254 253 256
f 255 254 253
f 256 253 254
f 255 257 254
f 253 258 255
f 256 259 253
f 256 254 259
f 260 254 257
f 261 257 255
f 262 255 258
f 258 253 263
f 264 253 259
f 260 259 254
f 260 257 259
f 257 261 264
f 265 261 255
f 262 266 255
f 262 258 266
f 263 253 267
f 263 266 258
f 268 253 264
f 264 259 257
f 268 264 261
f 265 269 261
f 270 265 255
f 266 271 255
f 267 253 272
f 267 271 263
f 266 263 271
f 269 253 268
f 268 261 269
f 265 270 269
f 273 270 255
f 271 274 255
f 272 253 275
f 272 274 267
f 271 267 274
f 276 253 269
f 276 269 270
f 270 273 276
f 277 273 255
f 274 278 255
f 275 253 279
f 272 275 274
f 280 253 276
f 280 276 273
f 273 277 280
f 281 277 255
f 278 282 255
f 278 274 275
f 279 253 283
f 275 279 278
f 284 253 280
f 284 280 277
f 277 281 284
f 282 281 255
f 282 278 279
f 283 253 284
f 279 283 282
f 283 284 281
f 281 282 283
f 254 257 255
f 255 258 253
f 253 259 256
f 259 254 256
f 257 254 260
f 255 257 261
f 258 255 262
f 263 253 258
f 259 253 264
f 254 259 260
f 259 257 260
f 264 261 257
f 255 261 265
f 255 266 262
f 266 258 262
f 267 253 263
f 258 266 263
f 264 253 268
f 257 259 264
f 261 264 268
f 261 269 265
f 255 265 270
f 255 271 266
f 272 253 267
f 263 271 267
f 271 263 266
f 268 253 269
f 269 261 268
f 269 270 265
f 255 270 273
f 255 274 271
f 275 253 272
f 267 274 272
f 274 267 271
f 269 253 276
f 270 269 276
f 276 273 270
f 255 273 277
f 255 278 274
f 279 253 275
f 274 275 272
f 276 253 280
f 273 276 280
f 280 277 273
f 255 277 281
f 255 282 278
f 275 274 278
f 283 253 279
f 278 279 275
f 280 253 284
f 277 280 284
f 284 281 277
f 255 281 282
f 279 278 282
f 284 253 283
f 282 283 279
f 281 284 283
f 283 282 281
f 17 285 286
f 285 17 287
f 286 285 17
f 287 17 285
f 285 288 286
f 286 288 285
f 286 289 17
f 17 289 286
f 17 290 287
f 287 290 17
f 285 287 291
f 291 287 285
f 288 285 292
f 292 285 288
f 289 286 288
f 288 286 289
f 290 17 289
f 289 17 290
f 293 287 290
f 290 287 293
f 291 287 294
f 294 287 291
f 291 292 285
f 285 292 291
f 292 289 288
f 288 289 292
f 289 295 290
f 290 295 289
f 287 293 294
f 294 293 287
f 290 296 293
f 293 296 290
f 291 294 297
f 297 294 291
f 292 291 295
f 295 291 292
f 289 292 295
f 295 292 289
f 290 295 296
f 296 295 290
f 293 298 294
f 294 298 293
f 293 296 299
f 299 296 293
f 297 294 298
f 298 294 297
f 297 295 291
f 291 295 297
f 295 297 296
f 296 297 295
f 298 293 300
f 300 293 298
f 297 299 296
f 296 299 297
f 293 299 300
f 300 299 293
f 297 298 301
f 301 298 297
f 300 302 298
f 298 302 300
f 299 297 301
f 301 297 299
f 300 299 303
f 303 299 300
f 301 298 302
f 302 298 301
f 302 300 304
f 304 300 302
f 301 303 299
f 299 303 301
f 300 303 304
f 304 303 300
f 301 302 305
f 305 302 301
f 304 306 302
f 302 306 304
f 303 301 305
f 305 301 303
f 304 303 307
f 307 303 304
f 305 302 306
f 306 302 305
f 306 304 308
f 308 304 306
f 305 307 303
f 303 307 305
f 304 307 308
f 308 307 304
f 305 306 309
f 309 306 305
f 308 310 306
f 306 310 308
f 307 305 309
f 309 305 307
f 308 307 311
f 311 307 308
f 309 306 310
f 310 306 309
f 310 308 312
f 312 308 310
f 309 311 307
f 307 311 309
f 308 311 312
f 312 311 308
f 309 310 114
f 114 310 309
f 312 313 310
f 310 313 312
f 311 309 114
f 114 309 311
f 312 311 314
f 314 311 312
f 114 310 313
f 313 310 114
f 313 312 315
f 315 312 313
f 114 314 311
f 311 314 114
f 312 314 315
f 315 314 312
f 114 313 316
f 316 313 114
f 315 317 313
f 313 317 315
f 314 114 316
f 316 114 314
f 315 314 318
f 318 314 315
f 316 313 317
f 317 313 316
f 317 315 319
f 319 315 317
f 316 318 314
f 314 318 316
f 315 318 319
f 319 318 315
f 316 317 320
f 320 317 316
f 321 317 319
f 319 317 321
f 318 316 320
f 320 316 318
f 319 318 322
f 322 318 319
f 320 317 323
f 323 317 320
f 317 321 323
f 323 321 317
f 319 322 321
f 321 322 319
f 324 318 320
f 320 318 324
f 318 324 322
f 322 324 318
f 320 323 324
f 324 323 320
f 325 323 321
f 321 323 325
f 321 322 326
f 326 322 321
f 327 322 324
f 324 322 327
f 324 323 328
f 328 323 324
f 323 325 328
f 328 325 323
f 321 326 325
f 325 326 321
f 322 327 326
f 326 327 322
f 324 328 327
f 327 328 324
f 329 328 325
f 325 328 329
f 325 326 329
f 329 326 325
f 330 326 327
f 327 326 330
f 327 328 330
f 330 328 327
f 328 329 330
f 330 329 328
f 326 330 329
f 329 330 326
f 331 332 333
f 332 331 334
f 333 332 331
f 334 331 332
f 332 335 333
f 333 335 332
f 333 336 331
f 331 336 333
f 331 337 334
f 334 337 331
f 332 334 338
f 338 334 332
f 335 332 339
f 339 332 335
f 336 333 335
f 335 333 336
f 337 331 336
f 336 331 337
f 340 334 337
f 337 334 340
f 338 334 341
f 341 334 338
f 338 339 332
f 332 339 338
f 339 336 335
f 335 336 339
f 336 342 337
f 337 342 336
f 334 340 341
f 341 340 334
f 337 343 340
f 340 343 337
f 338 341 344
f 344 341 338
f 339 338 342
f 342 338 339
f 336 339 342
f 342 339 336
f 337 342 343
f 343 342 337
f 340 345 341
f 341 345 340
f 340 343 346
f 346 343 340
f 344 341 345
f 345 341 344
f 344 342 338
f 338 342 344
f 342 344 343
f 343 344 342
f 345 340 347
f 347 340 345
f 344 346 343
f 343 346 344
f 340 346 347
f 347 346 340
f 344 345 348
f 348 345 344
f 347 349 345
f 345 349 347
f 346 344 348
f 348 344 346
f 347 346 350
f 350 346 347
f 348 345 349
f 349 345 348
f 349 347 351
f 351 347 349
f 348 350 346
f 346 350 348
f 347 350 351
f 351 350 347
f 348 349 352
f 352 349 348
f 351 353 349
f 349 353 351
f 350 348 352
f 352 348 350
f 351 350 354
f 354 350 351
f 352 349 353
f 353 349 352
f 353 351 355
f 355 351 353
f 352 354 350
f 350 354 352
f 351 354 355
f 355 354 351
f 352 353 119
f 119 353 352
f 355 356 353
f 353 356 355
f 354 352 119
f 119 352 354
f 355 354 357
f 357 354 355
f 119 353 356
f 356 353 119
f 356 355 358
f 358 355 356
f 119 357 354
f 354 357 119
f 355 357 358
f 358 357 355
f 119 356 359
f 359 356 119
f 358 360 356
f 356 360 358
f 357 119 359
f 359 119 357
f 358 357 361
f 361 357 358
f 359 356 360
f 360 356 359
f 360 358 362
f 362 358 360
f 359 361 357
f 357 361 359
f 358 361 362
f 362 361 358
f 359 360 363
f 363 360 359
f 362 364 360
f 360 364 362
f 361 359 363
f 363 359 361
f 362 361 365
f 365 361 362
f 363 360 364
f 364 360 363
f 364 362 366
f 366 362 364
f 363 365 361
f 361 365 363
f 362 365 366
f 366 365 362
f 363 364 367
f 367 364 363
f 368 364 366
f 366 364 368
f 365 363 367
f 367 363 365
f 366 365 369
f 369 365 366
f 367 364 370
f 370 364 367
f 364 368 370
f 370 368 364
f 366 369 368
f 368 369 366
f 371 365 367
f 367 365 371
f 365 371 369
f 369 371 365
f 367 370 371
f 371 370 367
f 372 370 368
f 368 370 372
f 368 369 373
f 373 369 368
f 374 369 371
f 371 369 374
f 371 370 79
f 79 370 371
f 370 372 79
f 79 372 370
f 368 373 372
f 372 373 368
f 369 374 373
f 373 374 369
f 371 79 374
f 374 79 371
f 375 79 372
f 372 79 375
f 372 373 375
f 375 373 372
f 376 373 374
f 374 373 376
f 374 79 376
f 376 79 374
f 79 375 376
f 376 375 79
f 373 376 375
f 375 376 373
f 377 378 379
f 378 377 380
f 379 378 377
f 380 377 378
f 378 381 379
f 379 381 378
f 379 382 377
f 377 382 379
f 377 383 380
f 380 383 377
f 378 380 384
f 384 380 378
f 381 378 385
f 385 378 381
f 382 379 381
f 381 379 382
f 383 377 382
f 382 377 383
f 386 380 383
f 383 380 386
f 384 380 387
f 387 380 384
f 384 385 378
f 378 385 384
f 385 382 381
f 381 382 385
f 382 388 383
f 383 388 382
f 380 386 387
f 387 386 380
f 383 389 386
f 386 389 383
f 384 387 390
f 390 387 384
f 385 384 388
f 388 384 385
f 382 385 388
f 388 385 382
f 383 388 389
f 389 388 383
f 386 391 387
f 387 391 386
f 386 389 392
f 392 389 386
f 390 387 391
f 391 387 390
f 390 388 384
f 384 388 390
f 388 390 389
f 389 390 388
f 391 386 393
f 393 386 391
f 390 392 389
f 389 392 390
f 386 392 393
f 393 392 386
f 390 391 394
f 394 391 390
f 393 395 391
f 391 395 393
f 392 390 394
f 394 390 392
f 393 392 396
f 396 392 393
f 394 391 395
f 395 391 394
f 395 393 397
f 397 393 395
f 394 396 392
f 392 396 394
f 393 396 397
f 397 396 393
f 394 395 398
f 398 395 394
f 397 117 395
f 395 117 397
f 396 394 398
f 398 394 396
f 397 396 399
f 399 396 397
f 398 395 117
f 117 395 398
f 117 397 400
f 400 397 117
f 398 399 396
f 396 399 398
f 397 399 400
f 400 399 397
f 398 117 401
f 401 117 398
f 400 402 117
f 117 402 400
f 399 398 401
f 401 398 399
f 400 399 403
f 403 399 400
f 401 117 402
f 402 117 401
f 402 400 404
f 404 400 402
f 401 403 399
f 399 403 401
f 400 403 404
f 404 403 400
f 401 402 405
f 405 402 401
f 404 406 402
f 402 406 404
f 403 401 405
f 405 401 403
f 404 403 407
f 407 403 404
f 405 402 406
f 406 402 405
f 406 404 408
f 408 404 406
f 405 407 403
f 403 407 405
f 404 407 408
f 408 407 404
f 405 406 409
f 409 406 405
f 408 410 406
f 406 410 408
f 407 405 409
f 409 405 407
f 408 407 411
f 411 407 408
f 409 406 410
f 410 406 409
f 410 408 412
f 412 408 410
f 409 411 407
f 407 411 409
f 408 411 412
f 412 411 408
f 409 410 413
f 413 410 409
f 414 410 412
f 412 410 414
f 411 409 413
f 413 409 411
f 412 411 415
f 415 411 412
f 413 410 416
f 416 410 413
f 410 414 416
f 416 414 410
f 412 415 414
f 414 415 412
f 417 411 413
f 413 411 417
f 411 417 415
f 415 417 411
f 413 416 417
f 417 416 413
f 418 416 414
f 414 416 418
f 414 415 419
f 419 415 414
f 61 415 417
f 417 415 61
f 417 416 420
f 420 416 417
f 416 418 420
f 420 418 416
f 414 419 418
f 418 419 414
f 415 61 419
f 419 61 415
f 417 420 61
f 61 420 417
f 421 420 418
f 418 420 421
f 418 419 421
f 421 419 418
f 422 419 61
f 61 419 422
f 61 420 422
f 422 420 61
f 420 421 422
f 422 421 420
f 419 422 421
f 421 422 419
f 423 15 424
f 15 423 425
f 424 15 423
f 425 423 15
f 15 426 424
f 424 426 15
f 424 427 423
f 423 427 424
f 423 428 425
f 425 428 423
f 15 425 429
f 429 425 15
f 426 15 430
f 430 15 426
f 427 424 426
f 426 424 427
f 428 423 427
f 427 423 428
f 431 425 428
f 428 425 431
f 429 425 432
f 432 425 429
f 429 430 15
f 15 430 429
f 430 427 426
f 426 427 430
f 427 433 428
f 428 433 427
f 425 431 432
f 432 431 425
f 428 434 431
f 431 434 428
f 429 432 435
f 435 432 429
f 430 429 433
f 433 429 430
f 427 430 433
f 433 430 427
f 428 433 434
f 434 433 428
f 431 436 432
f 432 436 431
f 431 434 437
f 437 434 431
f 435 432 436
f 436 432 435
f 435 433 429
f 429 433 435
f 433 435 434
f 434 435 433
f 436 431 438
f 438 431 436
f 435 437 434
f 434 437 435
f 431 437 438
f 438 437 431
f 435 436 439
f 439 436 435
f 438 440 436
f 436 440 438
f 437 435 439
f 439 435 437
f 438 437 441
f 441 437 438
f 439 436 440
f 440 436 439
f 440 438 442
f 442 438 440
f 439 441 437
f 437 441 439
f 438 441 442
f 442 441 438
f 439 440 443
f 443 440 439
f 442 444 440
f 440 444 442
f 441 439 443
f 443 439 441
f 442 441 445
f 445 441 442
f 443 440 444
f 444 440 443
f 444 442 446
f 446 442 444
f 443 445 441
f 441 445 443
f 442 445 446
f 446 445 442
f 443 444 447
f 447 444 443
f 446 116 444
f 444 116 446
f 445 443 447
f 447 443 445
f 446 445 448
f 448 445 446
f 447 444 116
f 116 444 447
f 116 446 449
f 449 446 116
f 447 448 445
f 445 448 447
f 446 448 449
f 449 448 446
f 447 116 450
f 450 116 447
f 449 451 116
f 116 451 449
f 448 447 450
f 450 447 448
f 449 448 452
f 452 448 449
f 450 116 451
f 451 116 450
f 451 449 453
f 453 449 451
f 450 452 448
f 448 452 450
f 449 452 453
f 453 452 449
f 450 451 454
f 454 451 450
f 453 455 451
f 451 455 453
f 452 450 454
f 454 450 452
f 453 452 456
f 456 452 453
f 454 451 455
f 455 451 454
f 455 453 457
f 457 453 455
f 454 456 452
f 452 456 454
f 453 456 457
f 457 456 453
f 454 455 458
f 458 455 454
f 459 455 457
f 457 455 459
f 456 454 458
f 458 454 456
f 457 456 460
f 460 456 457
f 458 455 461
f 461 455 458
f 455 459 461
f 461 459 455
f 457 460 459
f 459 460 457
f 462 456 458
f 458 456 462
f 456 462 460
f 460 462 456
f 458 461 462
f 462 461 458
f 463 461 459
f 459 461 463
f 459 460 464
f 464 460 459
f 465 460 462
f 462 460 465
f 462 461 466
f 466 461 462
f 461 463 466
f 466 463 461
f 459 464 463
f 463 464 459
f 460 465 464
f 464 465 460
f 462 466 465
f 465 466 462
f 467 466 463
f 463 466 467
f 463 464 467
f 467 464 463
f 468 464 465
f 465 464 468
f 465 466 468
f 468 466 465
f 466 467 468
f 468 467 466
f 464 468 467
f 467 468 464

