# https://github.com/mikedh/trimesh
v -0.06784523 0.09641165 -0.01785401
v -0.06784523 0.09641165 -0.01071241
v -0.06784523 0.10355325 -0.01785401
v -0.06784523 0.10355325 -0.01071241
v -0.06070363 0.09641165 -0.01785401
v -0.06070363 0.09641165 -0.01071241
v -0.06070363 0.10355325 -0.01785401
v -0.06070363 0.10355325 -0.01071241
v -0.06784523 0.11069485 -0.01785401
v -0.06784523 0.11069485 -0.01071241
v -0.06070363 0.11069485 -0.01785401
v -0.06070363 0.11069485 -0.01071241
v -0.06784523 0.10355325 -0.00357080
v -0.06784523 0.11069485 -0.00357080
v -0.06070363 0.10355325 -0.00357080
v -0.06784523 0.10355325 0.00357080
v -0.06784523 0.11069485 0.00357080
v -0.06070363 0.10355325 0.00357080
v -0.06070363 0.11069485 0.00357080
v -0.06784523 0.11783646 -0.01071241
v -0.06784523 0.11783646 -0.00357080
v -0.06070363 0.11783646 -0.01071241
v -0.06070363 0.11783646 -0.00357080
v -0.06784523 0.11783646 0.00357080
v -0.06070363 0.11783646 0.00357080
v -0.06784523 0.11069485 0.01071241
v -0.06784523 0.11783646 0.01071241
v -0.06070363 0.11069485 0.01071241
v -0.06070363 0.11783646 0.01071241
v -0.05356203 0.09641165 -0.01785401
v -0.05356203 0.09641165 -0.01071241
v -0.05356203 0.10355325 -0.01785401
v -0.05356203 0.10355325 -0.01071241
v -0.05356203 0.11069485 -0.01785401
v -0.05356203 0.11069485 -0.01071241
v -0.05356203 0.10355325 -0.00357080
v -0.05356203 0.10355325 0.00357080
v -0.05356203 0.11069485 0.00357080
v -0.05356203 0.11783646 -0.01071241
v -0.05356203 0.11783646 -0.00357080
v -0.05356203 0.11783646 0.00357080
v -0.05356203 0.11069485 0.01071241
v -0.05356203 0.11783646 0.01071241
v -0.04642042 0.09641165 -0.01785401
v -0.04642042 0.09641165 -0.01071241
v -0.04642042 0.10355325 -0.01785401
v -0.04642042 0.10355325 -0.01071241
v -0.04642042 0.11069485 -0.01785401
v -0.04642042 0.11069485 -0.01071241
v -0.04642042 0.10355325 -0.00357080
v -0.04642042 0.10355325 0.00357080
v -0.04642042 0.11069485 0.00357080
v -0.04642042 0.11783646 -0.01071241
v -0.04642042 0.11783646 -0.00357080
v -0.04642042 0.11783646 0.00357080
v -0.04642042 0.11069485 0.01071241
v -0.04642042 0.11783646 0.01071241
v -0.03927882 0.09641165 -0.01785401
v -0.03927882 0.09641165 -0.01071241
v -0.03927882 0.10355325 -0.01785401
v -0.03927882 0.10355325 -0.01071241
v -0.03927882 0.11069485 -0.01785401
v -0.03927882 0.11069485 -0.01071241
v -0.03927882 0.10355325 -0.00357080
v -0.03927882 0.10355325 0.00357080
v -0.03927882 0.11069485 0.00357080
v -0.03927882 0.11783646 -0.01071241
v -0.03927882 0.11783646 -0.00357080
v -0.03927882 0.11783646 0.00357080
v -0.03927882 0.11069485 0.01071241
v -0.03927882 0.11783646 0.01071241
v -0.03213722 0.09641165 -0.01785401
v -0.03213722 0.09641165 -0.01071241
v -0.03213722 0.10355325 -0.01785401
v -0.03213722 0.10355325 -0.01071241
v -0.03213722 0.11069485 -0.01785401
v -0.03213722 0.11069485 -0.01071241
v -0.03213722 0.10355325 -0.00357080
v -0.03213722 0.10355325 0.00357080
v -0.03213722 0.11069485 0.00357080
v -0.03213722 0.11783646 -0.01071241
v -0.03213722 0.11783646 -0.00357080
v -0.03213722 0.11783646 0.00357080
v -0.03213722 0.11069485 0.01071241
v -0.03927882 0.11069485 0.01785401
v -0.03927882 0.11783646 0.01785401
v -0.03213722 0.11069485 0.01785401
v -0.03213722 0.11783646 0.01071241
v -0.03213722 0.11783646 0.01785401
v -0.03927882 0.12497806 0.00357080
v -0.03927882 0.12497806 0.01071241
v -0.03213722 0.12497806 0.00357080
v -0.03213722 0.12497806 0.01071241
v -0.03927882 0.12497806 0.01785401
v -0.03213722 0.12497806 0.01785401
v -0.02499561 0.10355325 -0.01785401
v -0.02499561 0.10355325 -0.01071241
v -0.02499561 0.11069485 -0.01785401
v -0.02499561 0.11069485 -0.01071241
v -0.02499561 0.10355325 -0.00357080
v -0.02499561 0.10355325 0.00357080
v -0.02499561 0.11069485 -0.00357080
v -0.02499561 0.11069485 0.00357080
v -0.02499561 0.11783646 -0.01071241
v -0.02499561 0.11783646 -0.00357080
v -0.02499561 0.11783646 0.00357080
v -0.02499561 0.11069485 0.01071241
v -0.02499561 0.11783646 0.01071241
v -0.02499561 0.09641165 -0.01785401
v -0.02499561 0.09641165 -0.01071241
v -0.01785401 0.09641165 -0.01785401
v -0.01785401 0.09641165 -0.01071241
v -0.01785401 0.10355325 -0.01785401
v -0.01785401 0.10355325 -0.01071241
v -0.01785401 0.11069485 -0.01785401
v -0.01785401 0.11069485 -0.01071241
v -0.01785401 0.10355325 -0.00357080
v -0.01785401 0.11069485 -0.00357080
v -0.01785401 0.11069485 0.00357080
v -0.01785401 0.11783646 -0.00357080
v -0.01785401 0.11783646 0.00357080
v -0.01785401 0.11069485 0.01071241
v -0.01785401 0.11783646 0.01071241
v -0.01071241 0.09641165 -0.01785401
v -0.01071241 0.09641165 -0.01071241
v -0.01071241 0.10355325 -0.01785401
v -0.01071241 0.10355325 -0.01071241
v -0.01071241 0.11069485 -0.01785401
v -0.01071241 0.11069485 -0.01071241
v -0.01071241 0.10355325 -0.00357080
v -0.01785401 0.10355325 0.00357080
v -0.01071241 0.10355325 0.00357080
v -0.01071241 0.11069485 0.00357080
v -0.01785401 0.11783646 -0.01071241
v -0.01071241 0.11783646 -0.01071241
v -0.01071241 0.11783646 -0.00357080
v -0.01071241 0.11783646 0.00357080
v -0.01071241 0.11069485 0.01071241
v -0.01071241 0.11783646 0.01071241
v -0.00357080 0.10355325 -0.01071241
v -0.00357080 0.10355325 -0.00357080
v -0.00357080 0.11069485 -0.01071241
v -0.00357080 0.10355325 0.00357080
v -0.00357080 0.11069485 0.00357080
v -0.00357080 0.11783646 -0.01071241
v -0.00357080 0.11783646 -0.00357080
v -0.00357080 0.11783646 0.00357080
v -0.00357080 0.11069485 0.01071241
v -0.00357080 0.11783646 0.01071241
v -0.00357080 0.09641165 -0.02499561
v -0.00357080 0.09641165 -0.01785401
v -0.00357080 0.10355325 -0.02499561
v -0.00357080 0.10355325 -0.01785401
v 0.00357080 0.09641165 -0.02499561
v 0.00357080 0.09641165 -0.01785401
v 0.00357080 0.10355325 -0.02499561
v 0.00357080 0.10355325 -0.01785401
v -0.00357080 0.09641165 -0.01071241
v 0.00357080 0.09641165 -0.01071241
v 0.00357080 0.10355325 -0.01071241
v -0.00357080 0.11069485 -0.01785401
v 0.00357080 0.11069485 -0.01785401
v 0.00357080 0.11069485 -0.01071241
v 0.00357080 0.10355325 -0.00357080
v 0.00357080 0.10355325 0.00357080
v 0.00357080 0.11069485 0.00357080
v 0.00357080 0.11783646 -0.01071241
v 0.00357080 0.11783646 -0.00357080
v 0.00357080 0.11783646 0.00357080
v 0.01071241 0.09641165 -0.02499561
v 0.01071241 0.09641165 -0.01785401
v 0.01071241 0.10355325 -0.02499561
v 0.01071241 0.10355325 -0.01785401
v 0.01071241 0.09641165 -0.01071241
v 0.01071241 0.10355325 -0.01071241
v 0.01071241 0.11069485 -0.01785401
v 0.01071241 0.11069485 -0.01071241
v 0.01071241 0.10355325 -0.00357080
v 0.01071241 0.10355325 0.00357080
v 0.01071241 0.11069485 0.00357080
v 0.01071241 0.11783646 -0.01071241
v 0.01071241 0.11783646 -0.00357080
v 0.01071241 0.11783646 0.00357080
v 0.00357080 0.11069485 0.01071241
v 0.00357080 0.11783646 0.01071241
v 0.01071241 0.11069485 0.01071241
v 0.01071241 0.11783646 0.01071241
v 0.01785401 0.10355325 -0.01785401
v 0.01785401 0.10355325 -0.01071241
v 0.01785401 0.11069485 -0.01785401
v 0.01785401 0.11069485 -0.01071241
v 0.01785401 0.10355325 -0.00357080
v 0.01785401 0.10355325 0.00357080
v 0.01785401 0.11069485 -0.00357080
v 0.01785401 0.11069485 0.00357080
v 0.01785401 0.11783646 -0.01071241
v 0.01785401 0.11783646 -0.00357080
v 0.01785401 0.11783646 0.00357080
v 0.01785401 0.11069485 0.01071241
v 0.01785401 0.11783646 0.01071241
v 0.01785401 0.09641165 -0.01785401
v 0.01785401 0.09641165 -0.01071241
v 0.02499561 0.09641165 -0.01785401
v 0.02499561 0.09641165 -0.01071241
v 0.02499561 0.10355325 -0.01785401
v 0.02499561 0.10355325 -0.01071241
v 0.02499561 0.11069485 -0.01785401
v 0.02499561 0.11069485 -0.01071241
v 0.02499561 0.10355325 -0.00357080
v 0.02499561 0.11069485 -0.00357080
v 0.02499561 0.11069485 0.00357080
v 0.02499561 0.11783646 -0.00357080
v 0.02499561 0.11783646 0.00357080
v 0.02499561 0.11069485 0.01071241
v 0.02499561 0.11783646 0.01071241
v 0.03213722 0.09641165 -0.01785401
v 0.03213722 0.09641165 -0.01071241
v 0.03213722 0.10355325 -0.01785401
v 0.03213722 0.10355325 -0.01071241
v 0.03213722 0.11069485 -0.01785401
v 0.03213722 0.11069485 -0.01071241
v 0.03213722 0.10355325 -0.00357080
v 0.03213722 0.11069485 -0.00357080
v 0.02499561 0.10355325 0.00357080
v 0.03213722 0.10355325 0.00357080
v 0.03213722 0.11069485 0.00357080
v 0.02499561 0.11783646 -0.01071241
v 0.03213722 0.11783646 -0.01071241
v 0.03213722 0.11783646 -0.00357080
v 0.03213722 0.11783646 0.00357080
v 0.03213722 0.11069485 0.01071241
v 0.03213722 0.11783646 0.01071241
v 0.03927882 0.11069485 0.00357080
v 0.03927882 0.11069485 0.01071241
v 0.03927882 0.11783646 0.00357080
v 0.03213722 0.11069485 0.01785401
v 0.03213722 0.11783646 0.01785401
v 0.03927882 0.11069485 0.01785401
v 0.03927882 0.11783646 0.01785401
v 0.03213722 0.12497806 0.00357080
v 0.03213722 0.12497806 0.01071241
v 0.03927882 0.12497806 0.00357080
v 0.03927882 0.12497806 0.01071241
v 0.03213722 0.12497806 0.01785401
v 0.03927882 0.12497806 0.01785401
v 0.03927882 0.09641165 -0.01785401
v 0.03927882 0.09641165 -0.01071241
v 0.03927882 0.10355325 -0.01785401
v 0.03927882 0.10355325 -0.01071241
v 0.04642042 0.09641165 -0.01785401
v 0.04642042 0.09641165 -0.01071241
v 0.04642042 0.10355325 -0.01785401
v 0.04642042 0.10355325 -0.01071241
v 0.03927882 0.11069485 -0.01785401
v 0.03927882 0.11069485 -0.01071241
v 0.04642042 0.11069485 -0.01785401
v 0.04642042 0.11069485 -0.01071241
v 0.03927882 0.10355325 -0.00357080
v 0.03927882 0.11069485 -0.00357080
v 0.04642042 0.10355325 -0.00357080
v 0.03927882 0.10355325 0.00357080
v 0.04642042 0.10355325 0.00357080
v 0.04642042 0.11069485 0.00357080
v 0.03927882 0.11783646 -0.01071241
v 0.03927882 0.11783646 -0.00357080
v 0.04642042 0.11783646 -0.01071241
v 0.04642042 0.11783646 -0.00357080
v 0.04642042 0.11783646 0.00357080
v 0.04642042 0.11069485 0.01071241
v 0.04642042 0.11069485 0.01785401
v 0.04642042 0.11783646 0.01785401
v 0.04642042 0.12497806 0.00357080
v 0.04642042 0.12497806 0.01071241
v 0.04642042 0.12497806 0.01785401
v 0.05356203 0.09641165 -0.01785401
v 0.05356203 0.09641165 -0.01071241
v 0.05356203 0.10355325 -0.01785401
v 0.05356203 0.10355325 -0.01071241
v 0.05356203 0.11069485 -0.01785401
v 0.05356203 0.11069485 -0.01071241
v 0.05356203 0.10355325 -0.00357080
v 0.05356203 0.11069485 -0.00357080
v 0.05356203 0.10355325 0.00357080
v 0.05356203 0.11069485 0.00357080
v 0.05356203 0.11783646 -0.01071241
v 0.05356203 0.11783646 -0.00357080
v 0.05356203 0.11783646 0.00357080
v 0.05356203 0.11069485 0.01071241
v 0.05356203 0.11069485 0.01785401
v 0.05356203 0.11783646 0.01785401
v 0.05356203 0.12497806 0.00357080
v 0.05356203 0.12497806 0.01071241
v 0.05356203 0.12497806 0.01785401
v 0.06070363 0.11069485 0.00357080
v 0.06070363 0.11069485 0.01071241
v 0.06070363 0.11783646 0.00357080
v 0.06070363 0.11783646 0.01071241
v 0.06070363 0.11069485 0.01785401
v 0.06070363 0.11783646 0.01785401
v 0.06070363 0.12497806 0.00357080
v 0.06070363 0.12497806 0.01071241
v 0.06070363 0.12497806 0.01785401
v 0.06070363 -0.12497806 -0.06070363
v 0.06070363 -0.12497806 -0.05356203
v 0.06070363 -0.11783646 -0.06070363
v 0.06070363 -0.11783646 -0.05356203
v 0.06784523 -0.12497806 -0.06070363
v 0.06784523 -0.12497806 -0.05356203
v 0.06784523 -0.11783646 -0.06070363
v 0.06784523 -0.11783646 -0.05356203
v 0.06070363 -0.11069485 -0.06070363
v 0.06070363 -0.11069485 -0.05356203
v 0.06784523 -0.11069485 -0.06070363
v 0.06784523 -0.11069485 -0.05356203
v 0.07498684 -0.12497806 -0.06070363
v 0.07498684 -0.12497806 -0.05356203
v 0.07498684 -0.11783646 -0.06070363
v 0.07498684 -0.11783646 -0.05356203
v 0.07498684 -0.11069485 -0.06070363
v 0.07498684 -0.11069485 -0.05356203
v 0.06784523 -0.10355325 -0.06070363
v 0.06784523 -0.10355325 -0.05356203
v 0.07498684 -0.10355325 -0.06070363
v 0.07498684 -0.10355325 -0.05356203
v 0.08212844 -0.12497806 -0.06070363
v 0.08212844 -0.12497806 -0.05356203
v 0.08212844 -0.11783646 -0.06070363
v 0.08212844 -0.11783646 -0.05356203
v 0.08212844 -0.11069485 -0.06070363
v 0.08212844 -0.11069485 -0.05356203
v 0.08212844 -0.14640287 -0.06070363
v 0.08212844 -0.14640287 -0.05356203
v 0.08212844 -0.13926127 -0.06070363
v 0.08212844 -0.13926127 -0.05356203
v 0.08927004 -0.14640287 -0.06070363
v 0.08927004 -0.14640287 -0.05356203
v 0.08927004 -0.13926127 -0.06070363
v 0.08927004 -0.13926127 -0.05356203
v 0.08212844 -0.13211966 -0.06070363
v 0.08212844 -0.13211966 -0.05356203
v 0.08927004 -0.13211966 -0.06070363
v 0.08927004 -0.13211966 -0.05356203
v 0.08927004 -0.12497806 -0.06070363
v 0.08927004 -0.12497806 -0.05356203
v 0.08927004 -0.11783646 -0.06070363
v 0.08927004 -0.11783646 -0.05356203
v 0.08927004 -0.11069485 -0.06070363
v 0.08927004 -0.11069485 -0.05356203
v 0.09641165 -0.14640287 -0.06070363
v 0.09641165 -0.14640287 -0.05356203
v 0.09641165 -0.13926127 -0.06070363
v 0.09641165 -0.13926127 -0.05356203
v 0.09641165 -0.13211966 -0.06070363
v 0.09641165 -0.13211966 -0.05356203
v 0.09641165 -0.12497806 -0.06070363
v 0.09641165 -0.12497806 -0.05356203
v 0.09641165 -0.11783646 -0.06070363
v 0.09641165 -0.11783646 -0.05356203
v 0.09641165 -0.11069485 -0.06070363
v 0.09641165 -0.11069485 -0.05356203
v 0.10355325 -0.14640287 -0.06070363
v 0.10355325 -0.14640287 -0.05356203
v 0.10355325 -0.13926127 -0.06070363
v 0.10355325 -0.13926127 -0.05356203
v 0.10355325 -0.13211966 -0.06070363
v 0.10355325 -0.13211966 -0.05356203
v 0.11069485 -0.14640287 -0.06070363
v 0.11069485 -0.14640287 -0.05356203
v 0.11069485 -0.13926127 -0.06070363
v 0.11069485 -0.13926127 -0.05356203
v 0.11069485 -0.13211966 -0.06070363
v 0.11069485 -0.13211966 -0.05356203
v 0.11783646 -0.14640287 -0.06070363
v 0.11783646 -0.14640287 -0.05356203
v 0.11783646 -0.13926127 -0.06070363
v 0.11783646 -0.13926127 -0.05356203
v 0.11783646 -0.13211966 -0.06070363
v 0.11783646 -0.13211966 -0.05356203
v 0.12497806 -0.14640287 -0.06070363
v 0.12497806 -0.14640287 -0.05356203
v 0.12497806 -0.13926127 -0.06070363
v 0.12497806 -0.13926127 -0.05356203
v 0.12497806 -0.13211966 -0.06070363
v 0.12497806 -0.13211966 -0.05356203
f 2 4 1
f 5 2 1
f 1 4 3
f 3 5 1
f 2 8 4
f 6 2 5
f 6 8 2
f 7 5 3
f 4 10 3
f 3 10 9
f 9 7 3
f 10 12 9
f 11 7 9
f 9 12 11
f 13 14 4
f 8 13 4
f 4 14 10
f 15 13 8
f 16 17 13
f 15 16 13
f 13 17 14
f 16 19 17
f 18 16 15
f 18 19 16
f 14 21 10
f 10 21 20
f 20 12 10
f 21 23 20
f 22 12 20
f 20 23 22
f 17 24 14
f 14 24 21
f 24 25 21
f 21 25 23
f 26 27 17
f 19 26 17
f 17 27 24
f 26 29 27
f 28 26 19
f 28 29 26
f 27 29 24
f 24 29 25
f 30 6 5
f 7 30 5
f 6 33 8
f 31 6 30
f 31 33 6
f 32 30 7
f 11 32 7
f 12 35 11
f 34 32 11
f 11 35 34
f 33 15 8
f 36 15 33
f 36 18 15
f 18 38 19
f 37 18 36
f 37 38 18
f 22 35 12
f 23 40 22
f 39 35 22
f 22 40 39
f 25 41 23
f 23 41 40
f 38 28 19
f 28 43 29
f 42 28 38
f 42 43 28
f 29 43 25
f 25 43 41
f 44 31 30
f 32 44 30
f 31 47 33
f 45 31 44
f 45 47 31
f 46 44 32
f 34 46 32
f 35 49 34
f 48 46 34
f 34 49 48
f 47 36 33
f 50 36 47
f 50 37 36
f 37 52 38
f 51 37 50
f 51 52 37
f 39 49 35
f 40 54 39
f 53 49 39
f 39 54 53
f 41 55 40
f 40 55 54
f 52 42 38
f 42 57 43
f 56 42 52
f 56 57 42
f 43 57 41
f 41 57 55
f 58 45 44
f 46 58 44
f 45 61 47
f 59 45 58
f 59 61 45
f 60 58 46
f 48 60 46
f 49 63 48
f 62 60 48
f 48 63 62
f 61 50 47
f 64 50 61
f 64 51 50
f 51 66 52
f 65 51 64
f 65 66 51
f 53 63 49
f 54 68 53
f 67 63 53
f 53 68 67
f 55 69 54
f 54 69 68
f 66 56 52
f 56 71 57
f 70 56 66
f 70 71 56
f 57 71 55
f 55 71 69
f 72 59 58
f 60 72 58
f 59 75 61
f 73 59 72
f 73 75 59
f 74 72 60
f 74 73 72
f 75 73 74
f 62 74 60
f 63 77 62
f 76 74 62
f 62 77 76
f 75 64 61
f 78 64 75
f 78 65 64
f 65 80 66
f 79 65 78
f 79 80 65
f 67 77 63
f 68 82 67
f 81 77 67
f 67 82 81
f 69 83 68
f 68 83 82
f 80 70 66
f 84 70 80
f 85 86 70
f 84 85 70
f 70 86 71
f 85 89 86
f 87 85 84
f 87 89 85
f 88 87 84
f 89 87 88
f 71 91 69
f 69 91 90
f 90 83 69
f 91 93 90
f 92 83 90
f 90 93 92
f 92 88 83
f 93 88 92
f 86 94 71
f 71 94 91
f 86 95 94
f 89 95 86
f 94 95 91
f 91 95 93
f 93 89 88
f 95 89 93
f 96 75 74
f 76 96 74
f 97 75 96
f 77 99 76
f 98 96 76
f 76 99 98
f 97 78 75
f 100 78 97
f 100 79 78
f 79 103 80
f 101 79 100
f 101 103 79
f 102 101 100
f 103 101 102
f 81 99 77
f 82 105 81
f 104 99 81
f 81 105 104
f 104 102 99
f 105 102 104
f 83 106 82
f 82 106 105
f 103 84 80
f 84 108 88
f 107 84 103
f 107 108 84
f 88 108 83
f 83 108 106
f 110 97 109
f 111 110 109
f 109 97 96
f 96 111 109
f 110 114 97
f 112 110 111
f 112 114 110
f 113 111 96
f 98 113 96
f 99 116 98
f 115 113 98
f 98 116 115
f 114 100 97
f 100 118 102
f 117 100 114
f 117 118 100
f 102 118 99
f 99 118 116
f 118 103 102
f 105 118 102
f 119 103 118
f 106 121 105
f 120 118 105
f 105 121 120
f 119 107 103
f 107 123 108
f 122 107 119
f 122 123 107
f 108 123 106
f 106 123 121
f 124 112 111
f 113 124 111
f 112 127 114
f 125 112 124
f 125 127 112
f 126 124 113
f 126 125 124
f 127 125 126
f 115 126 113
f 116 129 115
f 128 126 115
f 115 129 128
f 128 127 126
f 129 127 128
f 127 117 114
f 130 117 127
f 131 119 117
f 130 131 117
f 117 119 118
f 131 133 119
f 132 131 130
f 132 133 131
f 118 120 116
f 116 120 134
f 134 129 116
f 120 136 134
f 135 129 134
f 134 136 135
f 121 137 120
f 120 137 136
f 133 122 119
f 122 139 123
f 138 122 133
f 138 139 122
f 123 139 121
f 121 139 137
f 140 130 127
f 129 140 127
f 141 130 140
f 142 140 129
f 141 132 130
f 132 144 133
f 143 132 141
f 143 144 132
f 135 142 129
f 136 146 135
f 145 142 135
f 135 146 145
f 137 147 136
f 136 147 146
f 144 138 133
f 138 149 139
f 148 138 144
f 148 149 138
f 139 149 137
f 137 149 147
f 147 148 144
f 149 148 147
f 151 153 150
f 154 151 150
f 150 153 152
f 152 154 150
f 155 151 154
f 153 157 152
f 156 154 152
f 152 157 156
f 158 140 151
f 155 158 151
f 151 140 153
f 158 160 140
f 159 158 155
f 159 160 158
f 140 142 153
f 153 142 161
f 161 157 153
f 142 163 161
f 162 157 161
f 161 163 162
f 160 141 140
f 164 141 160
f 164 143 141
f 143 166 144
f 165 143 164
f 165 166 143
f 145 163 142
f 146 168 145
f 167 163 145
f 145 168 167
f 144 169 147
f 166 169 144
f 147 169 146
f 146 169 168
f 170 155 154
f 156 170 154
f 171 155 170
f 157 173 156
f 172 170 156
f 156 173 172
f 172 171 170
f 173 171 172
f 171 159 155
f 159 175 160
f 174 159 171
f 174 175 159
f 173 174 171
f 175 174 173
f 162 173 157
f 163 177 162
f 176 173 162
f 162 177 176
f 175 164 160
f 178 164 175
f 178 165 164
f 165 180 166
f 179 165 178
f 179 180 165
f 167 177 163
f 168 182 167
f 181 177 167
f 167 182 181
f 169 183 168
f 168 183 182
f 184 185 166
f 180 184 166
f 166 185 169
f 184 187 185
f 186 184 180
f 186 187 184
f 185 187 169
f 169 187 183
f 188 175 173
f 176 188 173
f 189 175 188
f 177 191 176
f 190 188 176
f 176 191 190
f 189 178 175
f 192 178 189
f 192 179 178
f 179 195 180
f 193 179 192
f 193 195 179
f 194 193 192
f 195 193 194
f 181 191 177
f 182 197 181
f 196 191 181
f 181 197 196
f 196 194 191
f 197 194 196
f 183 198 182
f 182 198 197
f 195 186 180
f 186 200 187
f 199 186 195
f 199 200 186
f 187 200 183
f 183 200 198
f 202 189 201
f 203 202 201
f 201 189 188
f 188 203 201
f 202 206 189
f 204 202 203
f 204 206 202
f 205 203 188
f 190 205 188
f 191 208 190
f 207 205 190
f 190 208 207
f 206 192 189
f 192 210 194
f 209 192 206
f 209 210 192
f 194 210 191
f 191 210 208
f 210 195 194
f 197 210 194
f 211 195 210
f 198 213 197
f 212 210 197
f 197 213 212
f 211 199 195
f 199 215 200
f 214 199 211
f 214 215 199
f 200 215 198
f 198 215 213
f 216 204 203
f 205 216 203
f 204 219 206
f 217 204 216
f 217 219 204
f 218 216 205
f 218 217 216
f 219 217 218
f 207 218 205
f 208 221 207
f 220 218 207
f 207 221 220
f 220 219 218
f 221 219 220
f 219 209 206
f 222 209 219
f 221 222 219
f 223 222 221
f 224 211 209
f 222 224 209
f 209 211 210
f 224 226 211
f 225 224 222
f 225 226 224
f 223 225 222
f 226 225 223
f 210 212 208
f 208 212 227
f 227 221 208
f 212 229 227
f 228 221 227
f 227 229 228
f 228 223 221
f 229 223 228
f 213 230 212
f 212 230 229
f 229 226 223
f 230 226 229
f 226 214 211
f 214 232 215
f 231 214 226
f 231 232 214
f 215 232 213
f 213 232 230
f 233 231 226
f 230 233 226
f 234 231 233
f 235 233 230
f 236 237 231
f 234 236 231
f 231 237 232
f 236 239 237
f 238 236 234
f 238 239 236
f 232 241 230
f 230 241 240
f 240 235 230
f 241 243 240
f 242 235 240
f 240 243 242
f 237 244 232
f 232 244 241
f 237 245 244
f 239 245 237
f 244 245 241
f 241 245 243
f 247 249 246
f 250 247 246
f 246 249 248
f 248 250 246
f 247 253 249
f 251 247 250
f 251 253 247
f 252 250 248
f 249 255 248
f 248 255 254
f 254 252 248
f 255 257 254
f 256 252 254
f 254 257 256
f 258 259 249
f 253 258 249
f 249 259 255
f 260 258 253
f 261 233 258
f 260 261 258
f 258 233 259
f 261 263 233
f 262 261 260
f 262 263 261
f 259 265 255
f 255 265 264
f 264 257 255
f 265 267 264
f 266 257 264
f 264 267 266
f 233 235 259
f 259 235 265
f 235 268 265
f 265 268 267
f 263 234 233
f 269 234 263
f 269 238 234
f 238 271 239
f 270 238 269
f 270 271 238
f 242 268 235
f 243 273 242
f 272 268 242
f 242 273 272
f 239 274 245
f 271 274 239
f 245 274 243
f 243 274 273
f 275 251 250
f 252 275 250
f 251 278 253
f 276 251 275
f 276 278 251
f 277 275 252
f 277 276 275
f 278 276 277
f 256 277 252
f 257 280 256
f 279 277 256
f 256 280 279
f 279 278 277
f 280 278 279
f 278 260 253
f 281 260 278
f 280 281 278
f 282 281 280
f 281 262 260
f 262 284 263
f 283 262 281
f 283 284 262
f 282 283 281
f 284 283 282
f 266 280 257
f 267 286 266
f 285 280 266
f 266 286 285
f 285 282 280
f 286 282 285
f 268 287 267
f 267 287 286
f 286 284 282
f 287 284 286
f 284 269 263
f 288 269 284
f 288 270 269
f 270 290 271
f 289 270 288
f 289 290 270
f 272 287 268
f 273 292 272
f 291 287 272
f 272 292 291
f 271 293 274
f 290 293 271
f 274 293 273
f 273 293 292
f 294 288 284
f 287 294 284
f 295 288 294
f 296 294 287
f 296 295 294
f 297 295 296
f 295 289 288
f 289 299 290
f 298 289 295
f 298 299 289
f 297 298 295
f 299 298 297
f 291 296 287
f 292 301 291
f 300 296 291
f 291 301 300
f 300 297 296
f 301 297 300
f 290 302 293
f 299 302 290
f 293 302 292
f 292 302 301
f 301 299 297
f 302 299 301
f 304 306 303
f 307 304 303
f 303 306 305
f 305 307 303
f 304 310 306
f 308 304 307
f 308 310 304
f 309 307 305
f 306 312 305
f 305 312 311
f 311 309 305
f 306 314 312
f 310 314 306
f 312 314 311
f 313 309 311
f 311 314 313
f 315 308 307
f 309 315 307
f 308 318 310
f 316 308 315
f 316 318 308
f 317 315 309
f 313 317 309
f 310 320 314
f 318 320 310
f 319 317 313
f 314 322 313
f 313 322 321
f 321 319 313
f 314 324 322
f 320 324 314
f 322 324 321
f 323 319 321
f 321 324 323
f 323 320 319
f 324 320 323
f 325 316 315
f 317 325 315
f 316 328 318
f 326 316 325
f 326 328 316
f 327 325 317
f 319 327 317
f 318 330 320
f 328 330 318
f 320 330 319
f 329 327 319
f 319 330 329
f 332 334 331
f 335 332 331
f 331 334 333
f 333 335 331
f 332 338 334
f 336 332 335
f 336 338 332
f 337 335 333
f 334 340 333
f 333 340 339
f 339 337 333
f 334 342 340
f 338 342 334
f 340 342 339
f 341 337 339
f 339 342 341
f 343 326 325
f 327 343 325
f 326 346 328
f 344 326 343
f 344 346 326
f 345 343 327
f 329 345 327
f 328 348 330
f 346 348 328
f 330 348 329
f 347 345 329
f 329 348 347
f 349 336 335
f 337 349 335
f 336 352 338
f 350 336 349
f 350 352 336
f 351 349 337
f 341 351 337
f 338 354 342
f 352 354 338
f 353 351 341
f 342 344 341
f 341 344 343
f 343 353 341
f 342 356 344
f 354 356 342
f 355 353 343
f 355 354 353
f 356 354 355
f 345 355 343
f 344 358 346
f 356 358 344
f 357 355 345
f 357 356 355
f 358 356 357
f 347 357 345
f 346 360 348
f 358 360 346
f 348 360 347
f 359 357 347
f 347 360 359
f 359 358 357
f 360 358 359
f 361 350 349
f 351 361 349
f 350 364 352
f 362 350 361
f 362 364 350
f 363 361 351
f 353 363 351
f 352 366 354
f 364 366 352
f 354 366 353
f 365 363 353
f 353 366 365
f 367 362 361
f 363 367 361
f 362 370 364
f 368 362 367
f 368 370 362
f 369 367 363
f 365 369 363
f 364 372 366
f 370 372 364
f 366 372 365
f 371 369 365
f 365 372 371
f 373 368 367
f 369 373 367
f 368 376 370
f 374 368 373
f 374 376 368
f 375 373 369
f 371 375 369
f 370 378 372
f 376 378 370
f 372 378 371
f 377 375 371
f 371 378 377
f 379 374 373
f 375 379 373
f 374 382 376
f 380 374 379
f 380 382 374
f 381 379 375
f 381 380 379
f 382 380 381
f 377 381 375
f 376 384 378
f 382 384 376
f 378 384 377
f 383 381 377
f 377 384 383
f 383 382 381
f 384 382 383

