# https://github.com/mikedh/trimesh
v -0.01400000 -0.01800000 -0.14600000
v -0.01400000 -0.01800000 -0.14200000
v -0.01400000 -0.01400000 -0.14600000
v -0.01400000 -0.01400000 -0.14200000
v -0.01000000 -0.01800000 -0.14600000
v -0.01000000 -0.01800000 -0.14200000
v -0.01000000 -0.01400000 -0.14600000
v -0.01400000 -0.01800000 -0.13800000
v -0.01400000 -0.01400000 -0.13800000
v -0.01000000 -0.01800000 -0.13800000
v -0.01000000 -0.01400000 -0.13800000
v -0.01400000 -0.01400000 -0.15000000
v -0.01400000 -0.01000000 -0.15000000
v -0.01400000 -0.01000000 -0.14600000
v -0.01000000 -0.01400000 -0.15000000
v -0.01000000 -0.01000000 -0.15000000
v -0.01400000 -0.01000000 -0.14200000
v -0.01000000 -0.01400000 -0.14200000
v -0.01000000 -0.01000000 -0.14600000
v -0.01000000 -0.01000000 -0.14200000
v -0.01400000 -0.01000000 -0.13800000
v -0.01400000 -0.01400000 -0.13400000
v -0.01400000 -0.01000000 -0.13400000
v -0.01000000 -0.01400000 -0.13400000
v -0.01000000 -0.01000000 -0.13400000
v -0.01400000 -0.00600000 -0.15000000
v -0.01400000 -0.00600000 -0.14600000
v -0.01000000 -0.00600000 -0.15000000
v -0.01400000 -0.00600000 -0.14200000
v -0.01000000 -0.00600000 -0.14600000
v -0.01000000 -0.00600000 -0.14200000
v -0.01400000 -0.00600000 -0.13800000
v -0.01000000 -0.01000000 -0.13800000
v -0.01000000 -0.00600000 -0.13800000
v -0.01400000 -0.00600000 -0.13400000
v -0.01000000 -0.00600000 -0.13400000
v -0.01400000 -0.00200000 -0.15000000
v -0.01400000 -0.00200000 -0.14600000
v -0.01000000 -0.00200000 -0.15000000
v -0.01400000 -0.00200000 -0.14200000
v -0.01400000 -0.00200000 -0.13800000
v -0.01400000 -0.00200000 -0.13400000
v -0.01000000 -0.00200000 -0.13800000
v -0.01000000 -0.00200000 -0.13400000
v -0.01400000 0.00200000 -0.15000000
v -0.01400000 0.00200000 -0.14600000
v -0.01000000 0.00200000 -0.15000000
v -0.01000000 0.00200000 -0.14600000
v -0.01400000 0.00200000 -0.14200000
v -0.01000000 0.00200000 -0.14200000
v -0.01400000 0.00200000 -0.13800000
v -0.01000000 0.00200000 -0.13800000
v -0.01400000 0.00200000 -0.13400000
v -0.01000000 0.00200000 -0.13400000
v -0.01400000 -0.00200000 -0.13000000
v -0.01400000 0.00200000 -0.13000000
v -0.01000000 -0.00200000 -0.13000000
v -0.01000000 0.00200000 -0.13000000
v -0.01400000 0.00600000 -0.13800000
v -0.01400000 0.00600000 -0.13400000
v -0.01000000 0.00600000 -0.13800000
v -0.01000000 0.00600000 -0.13400000
v -0.01400000 0.00600000 -0.13000000
v -0.01000000 0.00600000 -0.13000000
v -0.01000000 -0.03000000 -0.14600000
v -0.01000000 -0.03000000 -0.14200000
v -0.01000000 -0.02600000 -0.14600000
v -0.01000000 -0.02600000 -0.14200000
v -0.00600000 -0.03000000 -0.14600000
v -0.00600000 -0.03000000 -0.14200000
v -0.00600000 -0.02600000 -0.14600000
v -0.01000000 -0.03000000 -0.13800000
v -0.01000000 -0.02600000 -0.13800000
v -0.00600000 -0.03000000 -0.13800000
v -0.01000000 -0.03000000 -0.13400000
v -0.01000000 -0.02600000 -0.13400000
v -0.00600000 -0.03000000 -0.13400000
v -0.00600000 -0.02600000 -0.13400000
v -0.01000000 -0.02200000 -0.14600000
v -0.01000000 -0.02200000 -0.14200000
v -0.00600000 -0.02200000 -0.14600000
v -0.01000000 -0.02200000 -0.13800000
v -0.00600000 -0.02600000 -0.14200000
v -0.00600000 -0.02600000 -0.13800000
v -0.00600000 -0.02200000 -0.14200000
v -0.00600000 -0.02200000 -0.13800000
v -0.01000000 -0.02200000 -0.13400000
v -0.00600000 -0.02200000 -0.13400000
v -0.01000000 -0.02600000 -0.13000000
v -0.01000000 -0.02200000 -0.13000000
v -0.00600000 -0.02600000 -0.13000000
v -0.00600000 -0.02200000 -0.13000000
v -0.00600000 -0.01800000 -0.14600000
v -0.00600000 -0.01800000 -0.14200000
v -0.00600000 -0.01800000 -0.13800000
v -0.01000000 -0.01800000 -0.13400000
v -0.00600000 -0.01800000 -0.13400000
v -0.01000000 -0.01800000 -0.15000000
v -0.00600000 -0.01800000 -0.15000000
v -0.00600000 -0.01400000 -0.15000000
v -0.00600000 -0.01400000 -0.14600000
v -0.00600000 -0.01400000 -0.14200000
v -0.00600000 -0.01400000 -0.13800000
v -0.00600000 -0.01400000 -0.13400000
v -0.00600000 -0.01000000 -0.15000000
v -0.00600000 -0.01000000 -0.14600000
v -0.00600000 -0.01000000 -0.14200000
v -0.00600000 -0.01000000 -0.13800000
v -0.00600000 -0.01000000 -0.13400000
v -0.00600000 -0.00600000 -0.15000000
v -0.00600000 -0.00600000 -0.14600000
v -0.00600000 -0.00200000 -0.15000000
v -0.00600000 -0.00600000 -0.14200000
v -0.00600000 -0.00600000 -0.13800000
v -0.00600000 -0.00200000 -0.13800000
v -0.00600000 0.00200000 -0.15000000
v -0.00600000 0.00200000 -0.13800000
v -0.01000000 0.00600000 -0.15000000
v -0.01000000 0.00600000 -0.14600000
v -0.00600000 0.00600000 -0.15000000
v -0.00600000 0.00600000 -0.14600000
v -0.01000000 0.00600000 -0.14200000
v -0.00600000 0.00200000 -0.14200000
v -0.00600000 0.00600000 -0.14200000
v -0.00600000 0.00600000 -0.13800000
v -0.00600000 0.00200000 -0.13400000
v -0.00600000 0.00600000 -0.13400000
v -0.00600000 0.00200000 -0.13000000
v -0.00600000 0.00600000 -0.13000000
v -0.01000000 0.01000000 -0.14600000
v -0.01000000 0.01000000 -0.14200000
v -0.00600000 0.01000000 -0.14600000
v -0.00600000 0.01000000 -0.14200000
v -0.01000000 0.01000000 -0.13800000
v -0.00600000 0.01000000 -0.13800000
v -0.01000000 0.01000000 -0.13400000
v -0.00600000 0.01000000 -0.13400000
v -0.01000000 0.01000000 -0.13000000
v -0.00600000 0.01000000 -0.13000000
v -0.00600000 -0.03400000 -0.14600000
v -0.00600000 -0.03400000 -0.14200000
v -0.00200000 -0.03400000 -0.14600000
v -0.00200000 -0.03400000 -0.14200000
v -0.00200000 -0.03000000 -0.14600000
v -0.00600000 -0.03400000 -0.13800000
v -0.00200000 -0.03400000 -0.13800000
v -0.00200000 -0.03000000 -0.13800000
v -0.00200000 -0.02600000 -0.14600000
v -0.00200000 -0.03000000 -0.14200000
v -0.00200000 -0.02600000 -0.14200000
v -0.00200000 -0.02600000 -0.13800000
v -0.00200000 -0.03000000 -0.13400000
v -0.00200000 -0.02600000 -0.13400000
v -0.00600000 -0.03000000 -0.13000000
v -0.00200000 -0.03000000 -0.13000000
v -0.00200000 -0.02600000 -0.13000000
v -0.00200000 -0.02200000 -0.14600000
v -0.00200000 -0.02200000 -0.14200000
v -0.00200000 -0.02200000 -0.13400000
v -0.00200000 -0.02200000 -0.13000000
v -0.00200000 -0.01800000 -0.14600000
v -0.00200000 -0.01800000 -0.14200000
v -0.00200000 -0.01800000 -0.15000000
v -0.00200000 -0.01400000 -0.15000000
v -0.00200000 -0.01400000 -0.14600000
v -0.00200000 -0.01400000 -0.14200000
v -0.00200000 -0.01000000 -0.15000000
v -0.00200000 -0.01000000 -0.14600000
v -0.00200000 -0.00600000 -0.15000000
v -0.00200000 -0.00600000 -0.14600000
v -0.00200000 -0.00200000 -0.15000000
v -0.00200000 -0.00600000 -0.14200000
v -0.00200000 -0.00600000 -0.13800000
v -0.00200000 -0.00200000 -0.13800000
v -0.00200000 0.00200000 -0.15000000
v -0.00200000 0.00200000 -0.14200000
v -0.00200000 0.00200000 -0.13800000
v -0.00600000 0.00200000 -0.15400000
v -0.00600000 0.00600000 -0.15400000
v -0.00200000 0.00200000 -0.15400000
v -0.00200000 0.00600000 -0.15400000
v -0.00200000 0.00600000 -0.15000000
v -0.00200000 0.00600000 -0.14600000
v -0.00200000 0.00200000 -0.14600000
v -0.00200000 0.00600000 -0.14200000
v -0.00200000 0.01000000 -0.14600000
v -0.00200000 0.01000000 -0.14200000
v -0.00200000 0.00600000 -0.13800000
v -0.00200000 0.01000000 -0.13800000
v -0.00200000 0.00600000 -0.13400000
v -0.00200000 0.01000000 -0.13400000
v -0.00200000 0.00600000 -0.13000000
v -0.00200000 0.01000000 -0.13000000
v 0.00200000 -0.03400000 -0.14600000
v 0.00200000 -0.03400000 -0.14200000
v 0.00200000 -0.03000000 -0.14600000
v 0.00200000 -0.03400000 -0.13800000
v 0.00200000 -0.03000000 -0.14200000
v 0.00200000 -0.03000000 -0.13800000
v 0.00200000 -0.02600000 -0.14600000
v 0.00200000 -0.02600000 -0.14200000
v 0.00200000 -0.03000000 -0.13400000
v 0.00200000 -0.02600000 -0.13800000
v 0.00200000 -0.02600000 -0.13400000
v 0.00200000 -0.03000000 -0.13000000
v 0.00200000 -0.02600000 -0.13000000
v 0.00200000 -0.02200000 -0.14600000
v 0.00200000 -0.02200000 -0.14200000
v 0.00200000 -0.01800000 -0.14600000
v 0.00200000 -0.01800000 -0.14200000
v 0.00200000 -0.01800000 -0.15000000
v 0.00200000 -0.01400000 -0.15000000
v 0.00200000 -0.01400000 -0.14600000
v 0.00200000 -0.01400000 -0.14200000
v 0.00200000 -0.01000000 -0.15000000
v 0.00200000 -0.01000000 -0.14600000
v 0.00200000 -0.00600000 -0.15000000
v 0.00200000 -0.00600000 -0.14600000
v 0.00200000 -0.00200000 -0.15000000
v 0.00200000 -0.00600000 -0.14200000
v 0.00200000 -0.00600000 -0.13800000
v 0.00200000 -0.00200000 -0.13800000
v 0.00200000 0.00200000 -0.15000000
v 0.00200000 0.00200000 -0.14600000
v 0.00200000 0.00200000 -0.14200000
v 0.00200000 0.00200000 -0.13800000
v 0.00200000 0.00200000 -0.15400000
v 0.00200000 0.00600000 -0.15400000
v 0.00200000 0.00600000 -0.15000000
v 0.00200000 0.00600000 -0.14600000
v 0.00200000 0.00600000 -0.14200000
v 0.00200000 0.01000000 -0.14600000
v 0.00200000 0.01000000 -0.14200000
v 0.00200000 0.00600000 -0.13800000
v 0.00200000 0.01000000 -0.13800000
v 0.00200000 0.00600000 -0.13400000
v 0.00200000 0.01000000 -0.13400000
v 0.00600000 -0.03400000 -0.14600000
v 0.00600000 -0.03400000 -0.14200000
v 0.00600000 -0.03000000 -0.14600000
v 0.00600000 -0.03000000 -0.14200000
v 0.00600000 -0.03400000 -0.13800000
v 0.00600000 -0.03000000 -0.13800000
v 0.00600000 -0.02600000 -0.14600000
v 0.00600000 -0.02600000 -0.14200000
v 0.00600000 -0.02600000 -0.13800000
v 0.00600000 -0.03000000 -0.13400000
v 0.00600000 -0.02600000 -0.13400000
v 0.00600000 -0.03000000 -0.13000000
v 0.00600000 -0.02600000 -0.13000000
v 0.00600000 -0.02200000 -0.14600000
v 0.00600000 -0.02200000 -0.14200000
v 0.00200000 -0.02200000 -0.13400000
v 0.00200000 -0.02200000 -0.13000000
v 0.00600000 -0.02200000 -0.13400000
v 0.00600000 -0.02200000 -0.13000000
v 0.00600000 -0.01800000 -0.14600000
v 0.00600000 -0.01800000 -0.14200000
v 0.00600000 -0.01800000 -0.15000000
v 0.00600000 -0.01400000 -0.15000000
v 0.00600000 -0.01400000 -0.14600000
v 0.00600000 -0.01400000 -0.14200000
v 0.00600000 -0.01000000 -0.15000000
v 0.00600000 -0.01000000 -0.14600000
v 0.00600000 -0.00600000 -0.15000000
v 0.00600000 -0.00600000 -0.14600000
v 0.00600000 -0.00200000 -0.15000000
v 0.00600000 -0.00600000 -0.14200000
v 0.00600000 -0.00600000 -0.13800000
v 0.00600000 -0.00200000 -0.13800000
v 0.00600000 0.00200000 -0.15000000
v 0.00600000 0.00200000 -0.14200000
v 0.00600000 0.00200000 -0.13800000
v 0.00600000 0.00200000 -0.15400000
v 0.00600000 0.00600000 -0.15400000
v 0.00600000 0.00600000 -0.15000000
v 0.00600000 0.00600000 -0.14600000
v 0.00600000 0.00600000 -0.14200000
v 0.00600000 0.01000000 -0.14600000
v 0.00600000 0.01000000 -0.14200000
v 0.00600000 0.00600000 -0.13800000
v 0.00600000 0.01000000 -0.13800000
v 0.00600000 0.00600000 -0.13400000
v 0.00600000 0.01000000 -0.13400000
v 0.00200000 0.00600000 -0.13000000
v 0.00200000 0.01000000 -0.13000000
v 0.00600000 0.00600000 -0.13000000
v 0.00600000 0.01000000 -0.13000000
v 0.01000000 -0.03000000 -0.14600000
v 0.01000000 -0.03000000 -0.14200000
v 0.01000000 -0.02600000 -0.14600000
v 0.01000000 -0.02600000 -0.14200000
v 0.01000000 -0.03000000 -0.13800000
v 0.01000000 -0.02600000 -0.13800000
v 0.01000000 -0.03000000 -0.13400000
v 0.01000000 -0.02600000 -0.13400000
v 0.01000000 -0.02200000 -0.14600000
v 0.01000000 -0.02200000 -0.14200000
v 0.00600000 -0.02200000 -0.13800000
v 0.01000000 -0.02200000 -0.13800000
v 0.01000000 -0.02200000 -0.13400000
v 0.01000000 -0.02600000 -0.13000000
v 0.01000000 -0.02200000 -0.13000000
v 0.01000000 -0.01800000 -0.14600000
v 0.01000000 -0.01800000 -0.14200000
v 0.00600000 -0.01800000 -0.13800000
v 0.01000000 -0.01800000 -0.13800000
v 0.00600000 -0.01800000 -0.13400000
v 0.01000000 -0.01800000 -0.13400000
v 0.01000000 -0.01800000 -0.15000000
v 0.01000000 -0.01400000 -0.15000000
v 0.01000000 -0.01400000 -0.14600000
v 0.01000000 -0.01400000 -0.14200000
v 0.00600000 -0.01400000 -0.13800000
v 0.00600000 -0.01400000 -0.13400000
v 0.01000000 -0.01400000 -0.13800000
v 0.01000000 -0.01400000 -0.13400000
v 0.01000000 -0.01000000 -0.15000000
v 0.01000000 -0.01000000 -0.14600000
v 0.00600000 -0.01000000 -0.14200000
v 0.00600000 -0.01000000 -0.13800000
v 0.01000000 -0.01000000 -0.14200000
v 0.01000000 -0.01000000 -0.13800000
v 0.00600000 -0.01000000 -0.13400000
v 0.01000000 -0.01000000 -0.13400000
v 0.01000000 -0.00600000 -0.15000000
v 0.01000000 -0.00600000 -0.14600000
v 0.01000000 -0.00200000 -0.15000000
v 0.01000000 -0.00600000 -0.14200000
v 0.01000000 -0.00600000 -0.13800000
v 0.01000000 -0.00200000 -0.13800000
v 0.01000000 0.00200000 -0.15000000
v 0.01000000 0.00200000 -0.13800000
v 0.01000000 0.00200000 -0.14600000
v 0.01000000 0.00600000 -0.15000000
v 0.01000000 0.00600000 -0.14600000
v 0.01000000 0.00200000 -0.14200000
v 0.01000000 0.00600000 -0.14200000
v 0.01000000 0.00600000 -0.13800000
v 0.00600000 0.00200000 -0.13400000
v 0.01000000 0.00200000 -0.13400000
v 0.00600000 0.00200000 -0.13000000
v 0.01000000 0.00200000 -0.13000000
v 0.01000000 0.00600000 -0.13000000
v 0.01000000 0.01000000 -0.14600000
v 0.01000000 0.01000000 -0.14200000
v 0.01000000 0.01000000 -0.13800000
v 0.01000000 0.00600000 -0.13400000
v 0.01000000 0.01000000 -0.13400000
v 0.01000000 0.01000000 -0.13000000
v 0.01400000 -0.01800000 -0.14600000
v 0.01400000 -0.01800000 -0.14200000
v 0.01400000 -0.01400000 -0.14600000
v 0.01400000 -0.01400000 -0.14200000
v 0.01400000 -0.01800000 -0.13800000
v 0.01400000 -0.01400000 -0.13800000
v 0.01400000 -0.01400000 -0.15000000
v 0.01400000 -0.01000000 -0.15000000
v 0.01400000 -0.01000000 -0.14600000
v 0.01400000 -0.01000000 -0.14200000
v 0.01400000 -0.01000000 -0.13800000
v 0.01400000 -0.01400000 -0.13400000
v 0.01400000 -0.01000000 -0.13400000
v 0.01400000 -0.00600000 -0.15000000
v 0.01400000 -0.00600000 -0.14600000
v 0.01400000 -0.00600000 -0.14200000
v 0.01400000 -0.00600000 -0.13800000
v 0.01000000 -0.00600000 -0.13400000
v 0.01400000 -0.00600000 -0.13400000
v 0.01400000 -0.00200000 -0.15000000
v 0.01400000 -0.00200000 -0.14600000
v 0.01400000 -0.00200000 -0.14200000
v 0.01400000 -0.00200000 -0.13800000
v 0.01000000 -0.00200000 -0.13400000
v 0.01400000 -0.00200000 -0.13400000
v 0.01400000 0.00200000 -0.15000000
v 0.01400000 0.00200000 -0.14600000
v 0.01400000 0.00200000 -0.14200000
v 0.01400000 0.00200000 -0.13800000
v 0.01400000 0.00200000 -0.13400000
v 0.01000000 -0.00200000 -0.13000000
v 0.01400000 -0.00200000 -0.13000000
v 0.01400000 0.00200000 -0.13000000
v 0.01400000 0.00600000 -0.13800000
v 0.01400000 0.00600000 -0.13400000
v 0.01400000 0.00600000 -0.13000000
f 2 4 1
f 5 2 1
f 1 4 3
f 3 5 1
f 6 2 5
f 7 5 3
f 8 9 2
f 6 8 2
f 2 9 4
f 8 11 9
f 10 8 6
f 10 11 8
f 3 14 12
f 15 3 12
f 12 14 13
f 13 15 12
f 7 3 15
f 16 15 13
f 4 17 3
f 3 17 14
f 19 18 7
f 20 18 19
f 9 21 4
f 4 21 17
f 22 23 9
f 11 22 9
f 9 23 21
f 22 25 23
f 24 22 11
f 24 25 22
f 14 27 13
f 13 27 26
f 26 16 13
f 28 16 26
f 17 29 14
f 14 29 27
f 30 20 19
f 31 20 30
f 21 32 17
f 17 32 29
f 31 33 20
f 34 33 31
f 23 35 21
f 21 35 32
f 23 36 35
f 25 36 23
f 34 25 33
f 36 25 34
f 27 38 26
f 26 38 37
f 37 28 26
f 39 28 37
f 29 40 27
f 27 40 38
f 32 41 29
f 29 41 40
f 35 42 32
f 32 42 41
f 35 44 42
f 36 44 35
f 43 36 34
f 44 36 43
f 38 46 37
f 37 46 45
f 45 39 37
f 46 48 45
f 47 39 45
f 45 48 47
f 40 49 38
f 38 49 46
f 49 50 46
f 46 50 48
f 41 51 40
f 40 51 49
f 51 52 49
f 49 52 50
f 42 53 41
f 41 53 51
f 52 44 43
f 54 44 52
f 55 56 42
f 44 55 42
f 42 56 53
f 55 58 56
f 57 55 44
f 57 58 55
f 54 57 44
f 58 57 54
f 53 60 51
f 51 60 59
f 59 52 51
f 60 62 59
f 61 52 59
f 59 62 61
f 56 63 53
f 53 63 60
f 56 64 63
f 58 64 56
f 63 64 60
f 60 64 62
f 66 68 65
f 69 66 65
f 65 68 67
f 67 69 65
f 70 66 69
f 71 69 67
f 72 73 66
f 70 72 66
f 66 73 68
f 74 72 70
f 75 76 72
f 74 75 72
f 72 76 73
f 75 78 76
f 77 75 74
f 77 78 75
f 68 80 67
f 67 80 79
f 79 71 67
f 81 71 79
f 73 82 68
f 68 82 80
f 85 84 83
f 86 84 85
f 76 87 73
f 73 87 82
f 86 78 84
f 88 78 86
f 89 90 76
f 78 89 76
f 76 90 87
f 89 92 90
f 91 89 78
f 91 92 89
f 90 92 87
f 87 92 88
f 80 6 79
f 79 6 5
f 5 81 79
f 93 81 5
f 82 10 80
f 80 10 6
f 94 86 85
f 95 86 94
f 87 96 82
f 82 96 10
f 87 97 96
f 88 97 87
f 95 88 86
f 97 88 95
f 5 7 98
f 99 5 98
f 98 7 15
f 15 99 98
f 93 5 99
f 100 99 15
f 18 102 7
f 7 102 101
f 102 95 94
f 103 95 102
f 96 24 10
f 10 24 11
f 96 104 24
f 97 104 96
f 103 97 95
f 104 97 103
f 16 100 15
f 7 106 19
f 101 106 7
f 105 100 16
f 20 102 18
f 33 108 20
f 107 102 20
f 20 108 107
f 107 103 102
f 108 103 107
f 24 109 25
f 104 109 24
f 25 109 33
f 33 109 108
f 108 104 103
f 109 104 108
f 28 105 16
f 19 111 30
f 106 111 19
f 110 105 28
f 39 110 28
f 112 110 39
f 111 31 30
f 113 31 111
f 113 34 31
f 34 115 43
f 114 34 113
f 114 115 34
f 47 112 39
f 116 112 47
f 43 117 52
f 115 117 43
f 48 119 47
f 47 119 118
f 118 116 47
f 119 121 118
f 120 116 118
f 118 121 120
f 50 122 48
f 48 122 119
f 52 61 50
f 50 61 122
f 124 117 123
f 125 117 124
f 117 54 52
f 126 54 117
f 125 126 117
f 127 126 125
f 126 58 54
f 58 129 64
f 128 58 126
f 128 129 58
f 127 128 126
f 129 128 127
f 122 131 119
f 119 131 130
f 130 121 119
f 131 133 130
f 132 121 130
f 130 133 132
f 61 134 122
f 122 134 131
f 134 135 131
f 131 135 133
f 62 136 61
f 61 136 134
f 136 137 134
f 134 137 135
f 64 138 62
f 62 138 136
f 64 139 138
f 129 139 64
f 138 139 136
f 136 139 137
f 141 70 140
f 142 141 140
f 140 70 69
f 69 142 140
f 143 141 142
f 144 142 69
f 145 74 141
f 143 145 141
f 141 74 70
f 145 147 74
f 146 145 143
f 146 147 145
f 71 144 69
f 148 144 71
f 84 151 83
f 83 151 150
f 150 147 149
f 151 147 150
f 147 77 74
f 152 77 147
f 78 153 84
f 84 153 151
f 154 91 77
f 152 154 77
f 77 91 78
f 154 156 91
f 155 154 152
f 155 156 154
f 81 148 71
f 83 158 85
f 150 158 83
f 157 148 81
f 88 153 78
f 91 160 92
f 156 160 91
f 92 160 88
f 159 153 88
f 88 160 159
f 159 156 153
f 160 156 159
f 93 157 81
f 85 162 94
f 158 162 85
f 161 157 93
f 163 93 99
f 100 163 99
f 161 93 163
f 164 163 100
f 94 166 102
f 162 166 94
f 102 166 101
f 101 166 165
f 105 164 100
f 101 168 106
f 165 168 101
f 167 164 105
f 110 167 105
f 106 170 111
f 168 170 106
f 169 167 110
f 112 169 110
f 171 169 112
f 170 113 111
f 172 113 170
f 172 114 113
f 114 174 115
f 173 114 172
f 173 174 114
f 116 171 112
f 175 171 116
f 115 177 117
f 174 177 115
f 117 177 123
f 123 177 176
f 116 120 178
f 180 116 178
f 178 120 179
f 179 180 178
f 175 116 180
f 120 182 179
f 181 180 179
f 179 182 181
f 121 183 120
f 120 183 182
f 123 185 124
f 176 185 123
f 183 176 184
f 185 176 183
f 132 183 121
f 133 187 132
f 186 183 132
f 132 187 186
f 185 125 124
f 188 125 185
f 135 189 133
f 133 189 187
f 188 127 125
f 190 127 188
f 137 191 135
f 135 191 189
f 190 129 127
f 129 193 139
f 192 129 190
f 192 193 129
f 139 193 137
f 137 193 191
f 191 192 190
f 193 192 191
f 194 143 142
f 144 194 142
f 195 143 194
f 196 194 144
f 195 146 143
f 146 199 147
f 197 146 195
f 197 199 146
f 147 199 149
f 149 199 198
f 148 196 144
f 149 201 150
f 198 201 149
f 200 196 148
f 199 152 147
f 151 199 147
f 202 152 199
f 153 204 151
f 203 199 151
f 151 204 203
f 202 155 152
f 155 206 156
f 205 155 202
f 205 206 155
f 156 206 153
f 153 206 204
f 157 200 148
f 150 208 158
f 201 208 150
f 207 200 157
f 161 207 157
f 158 210 162
f 208 210 158
f 209 207 161
f 211 161 163
f 164 211 163
f 209 161 211
f 212 211 164
f 162 214 166
f 210 214 162
f 166 214 165
f 165 214 213
f 167 212 164
f 165 216 168
f 213 216 165
f 215 212 167
f 169 215 167
f 168 218 170
f 216 218 168
f 217 215 169
f 171 217 169
f 219 217 171
f 218 172 170
f 220 172 218
f 220 173 172
f 173 222 174
f 221 173 220
f 221 222 173
f 175 219 171
f 223 219 175
f 176 225 184
f 184 225 224
f 174 226 177
f 222 226 174
f 177 226 176
f 176 226 225
f 227 175 180
f 181 227 180
f 223 175 227
f 182 229 181
f 228 227 181
f 181 229 228
f 184 230 183
f 224 230 184
f 183 230 182
f 182 230 229
f 230 185 183
f 186 230 183
f 231 185 230
f 187 233 186
f 232 230 186
f 186 233 232
f 231 188 185
f 234 188 231
f 189 235 187
f 187 235 233
f 234 190 188
f 190 237 191
f 236 190 234
f 236 237 190
f 191 237 189
f 189 237 235
f 238 195 194
f 196 238 194
f 239 195 238
f 240 238 196
f 240 239 238
f 241 239 240
f 239 197 195
f 197 243 199
f 242 197 239
f 242 243 197
f 241 242 239
f 243 242 241
f 200 240 196
f 244 240 200
f 199 203 198
f 198 203 201
f 203 246 201
f 201 246 245
f 243 202 199
f 247 202 243
f 204 248 203
f 203 248 246
f 247 205 202
f 205 250 206
f 249 205 247
f 249 250 205
f 248 249 247
f 250 249 248
f 207 244 200
f 201 252 208
f 245 252 201
f 251 244 207
f 206 254 204
f 204 254 253
f 253 248 204
f 206 256 254
f 250 256 206
f 254 256 253
f 255 248 253
f 253 256 255
f 209 251 207
f 208 258 210
f 252 258 208
f 257 251 209
f 259 209 211
f 212 259 211
f 257 209 259
f 260 259 212
f 210 262 214
f 258 262 210
f 214 262 213
f 213 262 261
f 215 260 212
f 213 264 216
f 261 264 213
f 263 260 215
f 217 263 215
f 216 266 218
f 264 266 216
f 265 263 217
f 219 265 217
f 267 265 219
f 266 220 218
f 268 220 266
f 268 221 220
f 221 270 222
f 269 221 268
f 269 270 221
f 223 267 219
f 271 267 223
f 222 273 226
f 270 273 222
f 226 273 225
f 225 273 272
f 274 223 227
f 228 274 227
f 271 223 274
f 229 276 228
f 275 274 228
f 228 276 275
f 275 271 274
f 276 271 275
f 230 277 229
f 229 277 276
f 225 231 224
f 224 231 230
f 225 278 231
f 272 278 225
f 232 277 230
f 233 280 232
f 279 277 232
f 232 280 279
f 278 234 231
f 281 234 278
f 235 282 233
f 233 282 280
f 281 236 234
f 283 236 281
f 237 284 235
f 235 284 282
f 285 286 236
f 283 285 236
f 236 286 237
f 285 288 286
f 287 285 283
f 287 288 285
f 286 288 237
f 237 288 284
f 289 241 240
f 244 289 240
f 290 241 289
f 291 289 244
f 291 290 289
f 292 290 291
f 290 243 241
f 293 243 290
f 292 293 290
f 294 293 292
f 293 247 243
f 247 296 248
f 295 247 293
f 295 296 247
f 294 295 293
f 296 295 294
f 251 291 244
f 297 291 251
f 297 292 291
f 298 292 297
f 246 299 245
f 245 299 252
f 298 294 292
f 300 294 298
f 248 255 246
f 246 255 299
f 300 296 294
f 301 296 300
f 296 250 248
f 250 303 256
f 302 250 296
f 302 303 250
f 256 303 255
f 255 303 301
f 301 302 296
f 303 302 301
f 257 297 251
f 304 297 257
f 304 298 297
f 305 298 304
f 299 306 252
f 252 306 258
f 305 300 298
f 307 300 305
f 255 308 299
f 299 308 306
f 255 309 308
f 301 309 255
f 307 301 300
f 309 301 307
f 310 257 259
f 260 310 259
f 304 257 310
f 311 310 260
f 311 304 310
f 312 304 311
f 262 313 261
f 261 313 312
f 306 314 258
f 258 314 262
f 308 315 306
f 306 315 314
f 308 317 315
f 309 317 308
f 316 309 307
f 317 309 316
f 263 311 260
f 261 319 264
f 312 319 261
f 318 311 263
f 314 321 262
f 262 321 320
f 320 313 262
f 321 323 320
f 322 313 320
f 320 323 322
f 315 324 314
f 314 324 321
f 315 325 324
f 317 325 315
f 324 325 321
f 321 325 323
f 265 318 263
f 264 327 266
f 319 327 264
f 326 318 265
f 267 326 265
f 328 326 267
f 327 268 266
f 329 268 327
f 329 269 268
f 269 331 270
f 330 269 329
f 330 331 269
f 271 328 267
f 332 328 271
f 270 333 273
f 331 333 270
f 276 332 271
f 277 336 276
f 335 332 276
f 276 336 335
f 335 334 332
f 336 334 335
f 336 337 334
f 338 337 336
f 273 281 272
f 272 281 278
f 338 333 337
f 339 333 338
f 340 283 273
f 333 340 273
f 273 283 281
f 341 340 333
f 342 287 340
f 341 342 340
f 340 287 283
f 342 344 287
f 343 342 341
f 343 344 342
f 279 336 277
f 280 346 279
f 345 336 279
f 279 346 345
f 345 338 336
f 346 338 345
f 282 347 280
f 280 347 346
f 346 339 338
f 347 339 346
f 284 349 282
f 282 349 347
f 347 348 339
f 349 348 347
f 287 350 288
f 344 350 287
f 288 350 284
f 284 350 349
f 349 344 348
f 350 344 349
f 351 305 304
f 312 351 304
f 352 305 351
f 353 351 312
f 353 352 351
f 354 352 353
f 352 307 305
f 307 356 316
f 355 307 352
f 355 356 307
f 354 355 352
f 356 355 354
f 357 312 311
f 318 357 311
f 353 312 357
f 358 357 318
f 358 353 357
f 359 353 358
f 313 322 312
f 312 322 319
f 359 354 353
f 360 354 359
f 360 356 354
f 361 356 360
f 356 317 316
f 317 363 325
f 362 317 356
f 362 363 317
f 361 362 356
f 363 362 361
f 326 358 318
f 364 358 326
f 364 359 358
f 365 359 364
f 322 329 319
f 319 329 327
f 365 360 359
f 366 360 365
f 323 330 322
f 322 330 329
f 366 361 360
f 367 361 366
f 325 368 323
f 323 368 330
f 325 369 368
f 363 369 325
f 367 363 361
f 369 363 367
f 328 364 326
f 370 364 328
f 370 365 364
f 371 365 370
f 371 366 365
f 372 366 371
f 372 367 366
f 373 367 372
f 368 374 330
f 330 374 331
f 368 375 374
f 369 375 368
f 373 369 367
f 375 369 373
f 332 370 328
f 334 377 332
f 376 370 332
f 332 377 376
f 376 371 370
f 377 371 376
f 337 378 334
f 334 378 377
f 377 372 371
f 378 372 377
f 333 379 337
f 337 379 378
f 378 373 372
f 379 373 378
f 374 341 331
f 331 341 333
f 379 375 373
f 380 375 379
f 381 343 374
f 375 381 374
f 374 343 341
f 381 383 343
f 382 381 375
f 382 383 381
f 380 382 375
f 383 382 380
f 339 379 333
f 348 385 339
f 384 379 339
f 339 385 384
f 384 380 379
f 385 380 384
f 343 386 344
f 383 386 343
f 344 386 348
f 348 386 385
f 385 383 380
f 386 383 385

