# https://github.com/mikedh/trimesh
v -0.05000000 0.07400000 -0.07800000
v -0.05000000 0.07400000 -0.07400000
v -0.05000000 0.07800000 -0.07800000
v -0.05000000 0.07800000 -0.07400000
v -0.04600000 0.07400000 -0.07800000
v -0.04600000 0.07400000 -0.07400000
v -0.04600000 0.07800000 -0.07800000
v -0.04600000 0.07800000 -0.07400000
v -0.05000000 0.07800000 -0.08200000
v -0.05000000 0.08200000 -0.08200000
v -0.05000000 0.08200000 -0.07800000
v -0.04600000 0.07800000 -0.08200000
v -0.04600000 0.08200000 -0.08200000
v -0.05000000 0.08200000 -0.07400000
v -0.04600000 0.08200000 -0.07400000
v -0.05000000 0.08600000 -0.08200000
v -0.05000000 0.08600000 -0.07800000
v -0.04600000 0.08600000 -0.08200000
v -0.04600000 0.08600000 -0.07800000
v -0.05000000 0.08600000 -0.07400000
v -0.05000000 0.08200000 -0.07000000
v -0.05000000 0.08600000 -0.07000000
v -0.04600000 0.08200000 -0.07000000
v -0.04600000 0.08600000 -0.07400000
v -0.04600000 0.08600000 -0.07000000
v -0.05000000 0.09000000 -0.07800000
v -0.05000000 0.09000000 -0.07400000
v -0.04600000 0.09000000 -0.07800000
v -0.04600000 0.09000000 -0.07400000
v -0.04600000 0.06600000 -0.07800000
v -0.04600000 0.06600000 -0.07400000
v -0.04600000 0.07000000 -0.07800000
v -0.04600000 0.07000000 -0.07400000
v -0.04200000 0.06600000 -0.07800000
v -0.04200000 0.06600000 -0.07400000
v -0.04200000 0.07000000 -0.07800000
v -0.04200000 0.07000000 -0.07400000
v -0.04600000 0.07000000 -0.08200000
v -0.04600000 0.07400000 -0.08200000
v -0.04200000 0.07000000 -0.08200000
v -0.04200000 0.07400000 -0.08200000
v -0.04600000 0.07000000 -0.07000000
v -0.04600000 0.07400000 -0.07000000
v -0.04200000 0.07000000 -0.07000000
v -0.04200000 0.07400000 -0.07000000
v -0.04600000 0.07400000 -0.08600000
v -0.04600000 0.07800000 -0.08600000
v -0.04200000 0.07400000 -0.08600000
v -0.04200000 0.07800000 -0.08600000
v -0.04600000 0.07800000 -0.07000000
v -0.04200000 0.07800000 -0.07000000
v -0.04600000 0.08200000 -0.08600000
v -0.04200000 0.08200000 -0.08600000
v -0.04200000 0.08200000 -0.07000000
v -0.04600000 0.08600000 -0.08600000
v -0.04200000 0.08600000 -0.08600000
v -0.04200000 0.08600000 -0.07000000
v -0.04600000 0.09000000 -0.08600000
v -0.04600000 0.09000000 -0.08200000
v -0.04200000 0.09000000 -0.08600000
v -0.04200000 0.09000000 -0.08200000
v -0.04600000 0.09000000 -0.07000000
v -0.04200000 0.09000000 -0.07000000
v -0.04600000 0.09400000 -0.08200000
v -0.04600000 0.09400000 -0.07800000
v -0.04200000 0.09400000 -0.08200000
v -0.04200000 0.09400000 -0.07800000
v -0.04600000 0.09400000 -0.07400000
v -0.04600000 0.09400000 -0.07000000
v -0.04200000 0.09400000 -0.07000000
v -0.04600000 0.09800000 -0.07800000
v -0.04600000 0.09800000 -0.07400000
v -0.04200000 0.09800000 -0.07800000
v -0.04200000 0.09800000 -0.07400000
v -0.04600000 0.09800000 -0.07000000
v -0.04200000 0.09800000 -0.07000000
v -0.04200000 0.06600000 -0.08200000
v -0.03800000 0.06600000 -0.08200000
v -0.03800000 0.06600000 -0.07800000
v -0.03800000 0.07000000 -0.08200000
v -0.03800000 0.06600000 -0.07400000
v -0.04200000 0.06600000 -0.07000000
v -0.03800000 0.06600000 -0.07000000
v -0.03800000 0.07000000 -0.07000000
v -0.04200000 0.07000000 -0.09000000
v -0.04200000 0.07000000 -0.08600000
v -0.04200000 0.07400000 -0.09000000
v -0.03800000 0.07000000 -0.09000000
v -0.03800000 0.07000000 -0.08600000
v -0.03800000 0.07400000 -0.09000000
v -0.04200000 0.07000000 -0.06600000
v -0.04200000 0.07400000 -0.06600000
v -0.03800000 0.07000000 -0.06600000
v -0.03800000 0.07400000 -0.07000000
v -0.03800000 0.07400000 -0.06600000
v -0.04200000 0.07400000 -0.09400000
v -0.04200000 0.07800000 -0.09400000
v -0.04200000 0.07800000 -0.09000000
v -0.03800000 0.07400000 -0.09400000
v -0.03800000 0.07800000 -0.09400000
v -0.03800000 0.07800000 -0.07000000
v -0.04200000 0.08200000 -0.09400000
v -0.04200000 0.08200000 -0.09000000
v -0.03800000 0.08200000 -0.09400000
v -0.03800000 0.07800000 -0.07800000
v -0.03800000 0.07800000 -0.07400000
v -0.03800000 0.08200000 -0.07800000
v -0.03800000 0.08200000 -0.07400000
v -0.03800000 0.08200000 -0.07000000
v -0.04200000 0.08600000 -0.09400000
v -0.04200000 0.08600000 -0.09000000
v -0.03800000 0.08600000 -0.09400000
v -0.03800000 0.08600000 -0.07800000
v -0.03800000 0.08600000 -0.07400000
v -0.03800000 0.08600000 -0.07000000
v -0.04200000 0.09000000 -0.09400000
v -0.04200000 0.09000000 -0.09000000
v -0.03800000 0.09000000 -0.09400000
v -0.03800000 0.09000000 -0.09000000
v -0.03800000 0.09000000 -0.07000000
v -0.04200000 0.09400000 -0.09000000
v -0.04200000 0.09400000 -0.08600000
v -0.03800000 0.09400000 -0.09000000
v -0.03800000 0.09400000 -0.08600000
v -0.03800000 0.09400000 -0.08200000
v -0.04200000 0.09000000 -0.06600000
v -0.04200000 0.09400000 -0.06600000
v -0.03800000 0.09000000 -0.06600000
v -0.03800000 0.09400000 -0.06600000
v -0.04200000 0.09800000 -0.08200000
v -0.03800000 0.09800000 -0.08200000
v -0.03800000 0.09800000 -0.07800000
v -0.03800000 0.09800000 -0.07400000
v -0.03800000 0.09800000 -0.07000000
v -0.04200000 0.09800000 -0.06600000
v -0.03800000 0.09800000 -0.06600000
v -0.03800000 0.06600000 -0.08600000
v -0.03400000 0.06600000 -0.08600000
v -0.03400000 0.06600000 -0.08200000
v -0.03400000 0.07000000 -0.08600000
v -0.03400000 0.06600000 -0.07800000
v -0.03400000 0.06600000 -0.07400000
v -0.03400000 0.06600000 -0.07000000
v -0.03800000 0.06600000 -0.06600000
v -0.03400000 0.06600000 -0.06600000
v -0.03400000 0.07000000 -0.06600000
v -0.03800000 0.07000000 -0.09400000
v -0.03400000 0.07000000 -0.09400000
v -0.03400000 0.07000000 -0.09000000
v -0.03400000 0.07400000 -0.09400000
v -0.03400000 0.07400000 -0.06600000
v -0.03800000 0.07400000 -0.09800000
v -0.03800000 0.07800000 -0.09800000
v -0.03400000 0.07400000 -0.09800000
v -0.03400000 0.07800000 -0.09800000
v -0.03400000 0.07800000 -0.07800000
v -0.03400000 0.07800000 -0.07400000
v -0.03400000 0.07400000 -0.07400000
v -0.03400000 0.07400000 -0.07000000
v -0.03400000 0.07800000 -0.07000000
v -0.03800000 0.07800000 -0.06600000
v -0.03400000 0.07800000 -0.06600000
v -0.03800000 0.07800000 -0.10200000
v -0.03800000 0.08200000 -0.10200000
v -0.03800000 0.08200000 -0.09800000
v -0.03400000 0.07800000 -0.10200000
v -0.03400000 0.08200000 -0.10200000
v -0.03400000 0.07800000 -0.08200000
v -0.03400000 0.08200000 -0.08200000
v -0.03400000 0.08200000 -0.07800000
v -0.03400000 0.08200000 -0.07400000
v -0.03400000 0.08200000 -0.07000000
v -0.03800000 0.08200000 -0.06600000
v -0.03400000 0.08200000 -0.06600000
v -0.03800000 0.08600000 -0.10200000
v -0.03800000 0.08600000 -0.09800000
v -0.03400000 0.08600000 -0.10200000
v -0.03400000 0.08200000 -0.08600000
v -0.03400000 0.08600000 -0.08600000
v -0.03400000 0.08600000 -0.08200000
v -0.03400000 0.08600000 -0.07800000
v -0.03400000 0.08600000 -0.07400000
v -0.03400000 0.08600000 -0.07000000
v -0.03800000 0.08600000 -0.06600000
v -0.03400000 0.08600000 -0.06600000
v -0.03800000 0.09000000 -0.10200000
v -0.03800000 0.09000000 -0.09800000
v -0.03400000 0.09000000 -0.10200000
v -0.03400000 0.09000000 -0.09800000
v -0.03400000 0.09000000 -0.07800000
v -0.03400000 0.09000000 -0.07400000
v -0.03400000 0.09000000 -0.07000000
v -0.03400000 0.09000000 -0.06600000
v -0.03800000 0.09400000 -0.09800000
v -0.03800000 0.09400000 -0.09400000
v -0.03400000 0.09400000 -0.09800000
v -0.03400000 0.09400000 -0.09400000
v -0.03800000 0.09000000 -0.06200000
v -0.03800000 0.09400000 -0.06200000
v -0.03400000 0.09000000 -0.06200000
v -0.03400000 0.09400000 -0.06600000
v -0.03400000 0.09400000 -0.06200000
v -0.03800000 0.09800000 -0.09400000
v -0.03800000 0.09800000 -0.09000000
v -0.03400000 0.09800000 -0.09400000
v -0.03400000 0.09800000 -0.09000000
v -0.03800000 0.09800000 -0.08600000
v -0.03400000 0.09800000 -0.08600000
v -0.03400000 0.09800000 -0.08200000
v -0.03400000 0.09800000 -0.07800000
v -0.03400000 0.09800000 -0.07400000
v -0.03400000 0.09800000 -0.07000000
v -0.03400000 0.09800000 -0.06600000
v -0.03400000 0.06600000 -0.09400000
v -0.03400000 0.06600000 -0.09000000
v -0.03000000 0.06600000 -0.09400000
v -0.03000000 0.06600000 -0.09000000
v -0.03000000 0.07000000 -0.09400000
v -0.03000000 0.06600000 -0.08600000
v -0.03000000 0.06600000 -0.08200000
v -0.03000000 0.06600000 -0.07800000
v -0.03000000 0.06600000 -0.07400000
v -0.03000000 0.06600000 -0.07000000
v -0.03000000 0.06600000 -0.06600000
v -0.03000000 0.07000000 -0.06600000
v -0.03400000 0.07000000 -0.10200000
v -0.03400000 0.07000000 -0.09800000
v -0.03400000 0.07400000 -0.10200000
v -0.03000000 0.07000000 -0.10200000
v -0.03000000 0.07000000 -0.09800000
v -0.03000000 0.07400000 -0.10200000
v -0.03000000 0.07400000 -0.07400000
v -0.03000000 0.07400000 -0.07000000
v -0.03400000 0.07000000 -0.06200000
v -0.03400000 0.07400000 -0.06200000
v -0.03000000 0.07000000 -0.06200000
v -0.03000000 0.07400000 -0.06600000
v -0.03000000 0.07400000 -0.06200000
v -0.03400000 0.07400000 -0.10600000
v -0.03400000 0.07800000 -0.10600000
v -0.03000000 0.07400000 -0.10600000
v -0.03000000 0.07800000 -0.10600000
v -0.03000000 0.07400000 -0.08200000
v -0.03000000 0.07400000 -0.07800000
v -0.03000000 0.07800000 -0.08200000
v -0.03000000 0.07800000 -0.07800000
v -0.03000000 0.07800000 -0.07400000
v -0.03000000 0.07800000 -0.07000000
v -0.03000000 0.07800000 -0.06600000
v -0.03400000 0.08200000 -0.10600000
v -0.03000000 0.08200000 -0.10600000
v -0.03000000 0.07800000 -0.09000000
v -0.03000000 0.07800000 -0.08600000
v -0.03000000 0.08200000 -0.09000000
v -0.03000000 0.08200000 -0.08600000
v -0.03000000 0.08200000 -0.08200000
v -0.03000000 0.08200000 -0.07000000
v -0.03000000 0.08200000 -0.06600000
v -0.03400000 0.08200000 -0.11000000
v -0.03400000 0.08600000 -0.11000000
v -0.03400000 0.08600000 -0.10600000
v -0.03000000 0.08200000 -0.11000000
v -0.03000000 0.08600000 -0.11000000
v -0.03000000 0.08200000 -0.09400000
v -0.03000000 0.08600000 -0.09400000
v -0.03000000 0.08600000 -0.09000000
v -0.03000000 0.08600000 -0.08600000
v -0.03000000 0.08600000 -0.07000000
v -0.03000000 0.08600000 -0.06600000
v -0.03400000 0.09000000 -0.11000000
v -0.03400000 0.09000000 -0.10600000
v -0.03000000 0.09000000 -0.11000000
v -0.03000000 0.09000000 -0.10600000
v -0.03000000 0.08600000 -0.08200000
v -0.03000000 0.09000000 -0.08600000
v -0.03000000 0.09000000 -0.08200000
v -0.03000000 0.08600000 -0.07800000
v -0.03000000 0.09000000 -0.07800000
v -0.03000000 0.09000000 -0.07000000
v -0.03000000 0.09000000 -0.06600000
v -0.03400000 0.09400000 -0.10600000
v -0.03400000 0.09400000 -0.10200000
v -0.03000000 0.09400000 -0.10600000
v -0.03000000 0.09400000 -0.10200000
v -0.03000000 0.09400000 -0.09800000
v -0.03000000 0.09000000 -0.07400000
v -0.03000000 0.09000000 -0.06200000
v -0.03000000 0.09400000 -0.06200000
v -0.03400000 0.09800000 -0.09800000
v -0.03000000 0.09800000 -0.09800000
v -0.03000000 0.09800000 -0.09400000
v -0.03000000 0.09800000 -0.09000000
v -0.03400000 0.09800000 -0.06200000
v -0.03000000 0.09800000 -0.06600000
v -0.03000000 0.09800000 -0.06200000
v -0.03400000 0.10200000 -0.09000000
v -0.03400000 0.10200000 -0.08600000
v -0.03000000 0.10200000 -0.09000000
v -0.03000000 0.10200000 -0.08600000
v -0.03400000 0.10200000 -0.08200000
v -0.03000000 0.10200000 -0.08200000
v -0.03400000 0.10200000 -0.07800000
v -0.03000000 0.10200000 -0.07800000
v -0.03400000 0.10200000 -0.07400000
v -0.03000000 0.10200000 -0.07400000
v -0.03400000 0.10200000 -0.07000000
v -0.03000000 0.10200000 -0.07000000
v -0.03400000 0.10200000 -0.06600000
v -0.03000000 0.09800000 -0.07000000
v -0.03000000 0.10200000 -0.06600000
v -0.03000000 0.06600000 -0.09800000
v -0.02600000 0.06600000 -0.09800000
v -0.02600000 0.06600000 -0.09400000
v -0.02600000 0.07000000 -0.09800000
v -0.02600000 0.06600000 -0.09000000
v -0.02600000 0.06600000 -0.08600000
v -0.02600000 0.06600000 -0.08200000
v -0.02600000 0.06600000 -0.07800000
v -0.02600000 0.06600000 -0.07400000
v -0.02600000 0.06600000 -0.07000000
v -0.02600000 0.06600000 -0.06600000
v -0.03000000 0.06600000 -0.06200000
v -0.02600000 0.06600000 -0.06200000
v -0.02600000 0.07000000 -0.06200000
v -0.03000000 0.07000000 -0.10600000
v -0.02600000 0.07000000 -0.10600000
v -0.02600000 0.07000000 -0.10200000
v -0.02600000 0.07400000 -0.10600000
v -0.02600000 0.07400000 -0.08200000
v -0.02600000 0.07400000 -0.07800000
v -0.02600000 0.07400000 -0.07400000
v -0.02600000 0.07400000 -0.06200000
v -0.03000000 0.07400000 -0.11400000
v -0.03000000 0.07400000 -0.11000000
v -0.03000000 0.07800000 -0.11400000
v -0.03000000 0.07800000 -0.11000000
v -0.02600000 0.07400000 -0.11400000
v -0.02600000 0.07400000 -0.11000000
v -0.02600000 0.07800000 -0.11400000
v -0.02600000 0.07800000 -0.09000000
v -0.02600000 0.07800000 -0.08600000
v -0.02600000 0.07800000 -0.08200000
v -0.02600000 0.07800000 -0.07400000
v -0.02600000 0.07800000 -0.07000000
v -0.03000000 0.07800000 -0.06200000
v -0.03000000 0.07400000 -0.05800000
v -0.03000000 0.07800000 -0.05800000
v -0.02600000 0.07400000 -0.05800000
v -0.02600000 0.07800000 -0.05800000
v -0.03000000 0.08200000 -0.11400000
v -0.02600000 0.08200000 -0.11400000
v -0.02600000 0.07800000 -0.09800000
v -0.02600000 0.07800000 -0.09400000
v -0.02600000 0.08200000 -0.09800000
v -0.02600000 0.08200000 -0.09400000
v -0.02600000 0.08200000 -0.09000000
v -0.02600000 0.08200000 -0.07000000
v -0.02600000 0.08200000 -0.06600000
v -0.03000000 0.08200000 -0.06200000
v -0.03000000 0.08200000 -0.05800000
v -0.02600000 0.08200000 -0.05800000
v -0.03000000 0.08200000 -0.11800000
v -0.03000000 0.08600000 -0.11800000
v -0.03000000 0.08600000 -0.11400000
v -0.02600000 0.08200000 -0.11800000
v -0.02600000 0.08600000 -0.11800000
v -0.02600000 0.08600000 -0.11400000
v -0.02600000 0.08600000 -0.09800000
v -0.02600000 0.08600000 -0.09400000
v -0.03000000 0.08600000 -0.06200000
v -0.02600000 0.08600000 -0.06600000
v -0.03000000 0.08600000 -0.05800000
v -0.02600000 0.08600000 -0.05800000
v -0.03000000 0.09000000 -0.11400000
v -0.02600000 0.09000000 -0.11400000
v -0.02600000 0.09000000 -0.09800000
v -0.02600000 0.09000000 -0.09400000
v -0.02600000 0.08600000 -0.09000000
v -0.02600000 0.09000000 -0.09000000
v -0.02600000 0.08600000 -0.08600000
v -0.02600000 0.09000000 -0.08600000
v -0.02600000 0.08600000 -0.07000000
v -0.02600000 0.09000000 -0.07000000
v -0.03000000 0.09000000 -0.05800000
v -0.02600000 0.09000000 -0.06200000
v -0.02600000 0.09000000 -0.05800000
v -0.03000000 0.09400000 -0.11400000
v -0.03000000 0.09400000 -0.11000000
v -0.02600000 0.09400000 -0.11400000
v -0.02600000 0.09400000 -0.11000000
v -0.02600000 0.09000000 -0.08200000
v -0.02600000 0.09000000 -0.07800000
v -0.02600000 0.09000000 -0.07400000
v -0.02600000 0.09400000 -0.06200000
v -0.03000000 0.09800000 -0.11000000
v -0.03000000 0.09800000 -0.10600000
v -0.02600000 0.09800000 -0.11000000
v -0.02600000 0.09800000 -0.10600000
v -0.03000000 0.09800000 -0.10200000
v -0.02600000 0.09800000 -0.10200000
v -0.02600000 0.09800000 -0.09800000
v -0.02600000 0.09800000 -0.07000000
v -0.02600000 0.09800000 -0.06600000
v -0.02600000 0.09800000 -0.06200000
v -0.03000000 0.10200000 -0.09800000
v -0.03000000 0.10200000 -0.09400000
v -0.02600000 0.10200000 -0.09800000
v -0.02600000 0.10200000 -0.09400000
v -0.02600000 0.10200000 -0.09000000
v -0.02600000 0.10200000 -0.08600000
v -0.02600000 0.10200000 -0.08200000
v -0.02600000 0.10200000 -0.07800000
v -0.02600000 0.10200000 -0.07400000
v -0.02600000 0.09800000 -0.07400000
v -0.02600000 0.10200000 -0.07000000
v -0.02600000 0.06600000 -0.10600000
v -0.02600000 0.06600000 -0.10200000
v -0.02200000 0.06600000 -0.10600000
v -0.02200000 0.06600000 -0.10200000
v -0.02200000 0.07000000 -0.10600000
v -0.02200000 0.06600000 -0.09800000
v -0.02200000 0.06600000 -0.09400000
v -0.02200000 0.06600000 -0.09000000
v -0.02200000 0.06600000 -0.08600000
v -0.02200000 0.06600000 -0.08200000
v -0.02200000 0.06600000 -0.07800000
v -0.02200000 0.06600000 -0.07400000
v -0.02200000 0.06600000 -0.07000000
v -0.02200000 0.06600000 -0.06600000
v -0.02200000 0.07000000 -0.07000000
v -0.02200000 0.07000000 -0.06600000
v -0.02200000 0.06600000 -0.06200000
v -0.02200000 0.07000000 -0.06200000
v -0.02600000 0.07000000 -0.11400000
v -0.02600000 0.07000000 -0.11000000
v -0.02200000 0.07000000 -0.11400000
v -0.02200000 0.07000000 -0.11000000
v -0.02200000 0.07400000 -0.11400000
v -0.02200000 0.07400000 -0.06200000
v -0.02600000 0.07400000 -0.11800000
v -0.02600000 0.07800000 -0.11800000
v -0.02200000 0.07400000 -0.11800000
v -0.02200000 0.07800000 -0.11800000
v -0.02200000 0.07800000 -0.09800000
v -0.02200000 0.07800000 -0.09400000
v -0.02200000 0.07800000 -0.09000000
v -0.02200000 0.07800000 -0.08600000
v -0.02200000 0.07800000 -0.08200000
v -0.02600000 0.07800000 -0.07800000
v -0.02200000 0.07800000 -0.07800000
v -0.02200000 0.07800000 -0.07400000
v -0.02200000 0.07400000 -0.05800000
v -0.02200000 0.07800000 -0.05800000
v -0.02600000 0.07800000 -0.12200000
v -0.02600000 0.08200000 -0.12200000
v -0.02200000 0.07800000 -0.12200000
v -0.02200000 0.08200000 -0.12200000
v -0.02200000 0.07800000 -0.10200000
v -0.02200000 0.08200000 -0.10200000
v -0.02200000 0.08200000 -0.09800000
v -0.02600000 0.08200000 -0.07400000
v -0.02200000 0.08200000 -0.07400000
v -0.02200000 0.08200000 -0.05800000
v -0.02600000 0.08600000 -0.12200000
v -0.02200000 0.08600000 -0.12200000
v -0.02200000 0.08200000 -0.10600000
v -0.02200000 0.08600000 -0.10600000
v -0.02200000 0.08600000 -0.10200000
v -0.02200000 0.08600000 -0.09800000
v -0.02600000 0.08600000 -0.07400000
v -0.02200000 0.08600000 -0.07400000
v -0.02200000 0.08600000 -0.05800000
v -0.02600000 0.09000000 -0.12200000
v -0.02600000 0.09000000 -0.11800000
v -0.02200000 0.09000000 -0.12200000
v -0.02200000 0.09000000 -0.10600000
v -0.02200000 0.09000000 -0.10200000
v -0.02200000 0.09000000 -0.09800000
v -0.02600000 0.08600000 -0.07800000
v -0.02200000 0.08600000 -0.07800000
v -0.02200000 0.09000000 -0.07800000
v -0.02200000 0.09000000 -0.05800000
v -0.02600000 0.09400000 -0.12200000
v -0.02600000 0.09400000 -0.11800000
v -0.02200000 0.09400000 -0.12200000
v -0.02200000 0.09400000 -0.11800000
v -0.02200000 0.09000000 -0.09400000
v -0.02200000 0.09000000 -0.09000000
v -0.02200000 0.09000000 -0.08600000
v -0.02200000 0.09000000 -0.08200000
v -0.02600000 0.09400000 -0.05800000
v -0.02200000 0.09400000 -0.06200000
v -0.02200000 0.09400000 -0.05800000
v -0.02600000 0.09800000 -0.11800000
v -0.02600000 0.09800000 -0.11400000
v -0.02200000 0.09800000 -0.11800000
v -0.02200000 0.09800000 -0.11400000
v -0.02200000 0.09800000 -0.11000000
v -0.02200000 0.09800000 -0.10600000
v -0.02200000 0.09800000 -0.07400000
v -0.02200000 0.09800000 -0.07000000
v -0.02200000 0.09800000 -0.06600000
v -0.02200000 0.09400000 -0.06600000
v -0.02200000 0.09800000 -0.06200000
v -0.02600000 0.10200000 -0.10600000
v -0.02600000 0.10200000 -0.10200000
v -0.02200000 0.10200000 -0.10600000
v -0.02200000 0.10200000 -0.10200000
v -0.02200000 0.10200000 -0.09800000
v -0.02200000 0.10200000 -0.09400000
v -0.02200000 0.10200000 -0.09000000
v -0.02200000 0.10200000 -0.08600000
v -0.02200000 0.10200000 -0.08200000
v -0.02200000 0.10200000 -0.07800000
v -0.02200000 0.09800000 -0.07800000
v -0.02200000 0.10200000 -0.07400000
v -0.02200000 0.06600000 -0.11000000
v -0.01800000 0.06600000 -0.11000000
v -0.01800000 0.06600000 -0.10600000
v -0.01800000 0.07000000 -0.11000000
v -0.01800000 0.06600000 -0.10200000
v -0.01800000 0.06600000 -0.09800000
v -0.01800000 0.06600000 -0.09400000
v -0.01800000 0.06600000 -0.09000000
v -0.01800000 0.06600000 -0.08600000
v -0.01800000 0.06600000 -0.08200000
v -0.01800000 0.06600000 -0.07800000
v -0.01800000 0.06600000 -0.07400000
v -0.01800000 0.07000000 -0.07800000
v -0.01800000 0.07000000 -0.07400000
v -0.01800000 0.06600000 -0.07000000
v -0.01800000 0.07000000 -0.07000000
v -0.02200000 0.07000000 -0.11800000
v -0.01800000 0.07000000 -0.11800000
v -0.01800000 0.07000000 -0.11400000
v -0.01800000 0.07400000 -0.11800000
v -0.01800000 0.07000000 -0.06600000
v -0.01800000 0.07400000 -0.07000000
v -0.01800000 0.07400000 -0.06600000
v -0.01800000 0.07000000 -0.06200000
v -0.01800000 0.07400000 -0.06200000
v -0.02200000 0.07400000 -0.12200000
v -0.01800000 0.07400000 -0.12200000
v -0.01800000 0.07800000 -0.12200000
v -0.01800000 0.07800000 -0.10200000
v -0.01800000 0.07800000 -0.09800000
v -0.01800000 0.07800000 -0.09400000
v -0.01800000 0.07800000 -0.09000000
v -0.01800000 0.07800000 -0.08600000
v -0.01800000 0.07800000 -0.08200000
v -0.01800000 0.07800000 -0.06600000
v -0.01800000 0.07800000 -0.06200000
v -0.01800000 0.07400000 -0.05800000
v -0.01800000 0.07800000 -0.05800000
v -0.01800000 0.08200000 -0.12200000
v -0.01800000 0.07800000 -0.11000000
v -0.01800000 0.07800000 -0.10600000
v -0.01800000 0.08200000 -0.11000000
v -0.01800000 0.08200000 -0.10600000
v -0.01800000 0.08200000 -0.10200000
v -0.02200000 0.08200000 -0.08200000
v -0.02200000 0.08200000 -0.07800000
v -0.01800000 0.08200000 -0.08200000
v -0.01800000 0.08200000 -0.07800000
v -0.01800000 0.08200000 -0.06200000
v -0.01800000 0.08200000 -0.05800000
v -0.01800000 0.08600000 -0.12200000
v -0.01800000 0.08200000 -0.11400000
v -0.01800000 0.08600000 -0.11400000
v -0.01800000 0.08600000 -0.11000000
v -0.01800000 0.08600000 -0.10600000
v -0.01800000 0.08600000 -0.07800000
v -0.01800000 0.08600000 -0.06200000
v -0.01800000 0.08600000 -0.05800000
v -0.01800000 0.09000000 -0.12200000
v -0.01800000 0.09000000 -0.11400000
v -0.01800000 0.09000000 -0.11000000
v -0.01800000 0.09000000 -0.10600000
v -0.02200000 0.08600000 -0.08200000
v -0.01800000 0.08600000 -0.08200000
v -0.01800000 0.09000000 -0.08200000
v -0.01800000 0.09000000 -0.06200000
v -0.01800000 0.09000000 -0.05800000
v -0.01800000 0.09000000 -0.11800000
v -0.01800000 0.09400000 -0.12200000
v -0.01800000 0.09400000 -0.11800000
v -0.01800000 0.09000000 -0.10200000
v -0.01800000 0.09000000 -0.09800000
v -0.01800000 0.09000000 -0.09400000
v -0.01800000 0.09000000 -0.09000000
v -0.01800000 0.09000000 -0.08600000
v -0.01800000 0.09000000 -0.06600000
v -0.01800000 0.09400000 -0.06600000
v -0.01800000 0.09400000 -0.06200000
v -0.01800000 0.09400000 -0.05800000
v -0.02200000 0.09800000 -0.12200000
v -0.01800000 0.09800000 -0.12200000
v -0.01800000 0.09800000 -0.11800000
v -0.01800000 0.09800000 -0.07800000
v -0.01800000 0.09800000 -0.07400000
v -0.01800000 0.09400000 -0.07400000
v -0.01800000 0.09400000 -0.07000000
v -0.01800000 0.09800000 -0.07000000
v -0.01800000 0.09800000 -0.06600000
v -0.02200000 0.10200000 -0.11800000
v -0.02200000 0.10200000 -0.11400000
v -0.01800000 0.10200000 -0.11800000
v -0.01800000 0.10200000 -0.11400000
v -0.02200000 0.10200000 -0.11000000
v -0.01800000 0.10200000 -0.11000000
v -0.01800000 0.10200000 -0.10600000
v -0.01800000 0.10200000 -0.10200000
v -0.01800000 0.10200000 -0.09800000
v -0.01800000 0.10200000 -0.09400000
v -0.01800000 0.10200000 -0.09000000
v -0.01800000 0.10200000 -0.08600000
v -0.01800000 0.10200000 -0.08200000
v -0.01800000 0.09800000 -0.08200000
v -0.01800000 0.10200000 -0.07800000
v -0.01800000 0.06600000 -0.11400000
v -0.01400000 0.06600000 -0.11400000
v -0.01400000 0.06600000 -0.11000000
v -0.01400000 0.07000000 -0.11400000
v -0.01400000 0.06600000 -0.10600000
v -0.01400000 0.06600000 -0.10200000
v -0.01400000 0.06600000 -0.09800000
v -0.01400000 0.06600000 -0.09400000
v -0.01400000 0.06600000 -0.09000000
v -0.01400000 0.06600000 -0.08600000
v -0.01400000 0.06600000 -0.08200000
v -0.01400000 0.07000000 -0.08600000
v -0.01400000 0.07000000 -0.08200000
v -0.01400000 0.06600000 -0.07800000
v -0.01400000 0.07000000 -0.07800000
v -0.01800000 0.07000000 -0.12200000
v -0.01400000 0.07000000 -0.12200000
v -0.01400000 0.07000000 -0.11800000
v -0.01400000 0.07400000 -0.12200000
v -0.01400000 0.07400000 -0.11800000
v -0.01400000 0.07000000 -0.07400000
v -0.01400000 0.07400000 -0.07800000
v -0.01400000 0.07400000 -0.07400000
v -0.01400000 0.07000000 -0.07000000
v -0.01400000 0.07400000 -0.07000000
v -0.01400000 0.07800000 -0.12200000
v -0.01400000 0.07800000 -0.11800000
v -0.01400000 0.07800000 -0.11000000
v -0.01400000 0.07800000 -0.10600000
v -0.01400000 0.07800000 -0.10200000
v -0.01400000 0.07800000 -0.09800000
v -0.01400000 0.07800000 -0.09400000
v -0.01400000 0.07800000 -0.09000000
v -0.01400000 0.07800000 -0.07400000
v -0.01400000 0.07800000 -0.07000000
v -0.01400000 0.07400000 -0.06600000
v -0.01400000 0.07800000 -0.06600000
v -0.01400000 0.08200000 -0.12200000
v -0.01400000 0.08200000 -0.11800000
v -0.01400000 0.07800000 -0.11400000
v -0.01400000 0.08200000 -0.11400000
v -0.01400000 0.08200000 -0.11000000
v -0.01800000 0.08200000 -0.09000000
v -0.01800000 0.08200000 -0.08600000
v -0.01400000 0.08200000 -0.09000000
v -0.01400000 0.08200000 -0.08600000
v -0.01400000 0.08200000 -0.07000000
v -0.01400000 0.08200000 -0.06600000
v -0.01400000 0.07800000 -0.06200000
v -0.01400000 0.08200000 -0.06200000
v -0.01400000 0.08600000 -0.12200000
v -0.01400000 0.08600000 -0.11800000
v -0.01400000 0.08600000 -0.11400000
v -0.01800000 0.08600000 -0.08600000
v -0.01400000 0.08600000 -0.08600000
v -0.01400000 0.08600000 -0.07000000
v -0.01400000 0.08600000 -0.06600000
v -0.01400000 0.08600000 -0.06200000
v -0.01400000 0.09000000 -0.12200000
v -0.01400000 0.09000000 -0.11800000
v -0.01400000 0.09000000 -0.11400000
v -0.01800000 0.08600000 -0.09000000
v -0.01400000 0.08600000 -0.09000000
v -0.01400000 0.09000000 -0.09000000
v -0.01400000 0.09000000 -0.07000000
v -0.01400000 0.09000000 -0.06600000
v -0.01400000 0.09000000 -0.06200000
v -0.01400000 0.09400000 -0.11800000
v -0.01400000 0.09000000 -0.11000000
v -0.01400000 0.09000000 -0.10600000
v -0.01400000 0.09400000 -0.11000000
v -0.01400000 0.09400000 -0.10600000
v -0.01400000 0.09000000 -0.10200000
v -0.01400000 0.09000000 -0.09800000
v -0.01400000 0.09000000 -0.09400000
v -0.01400000 0.09000000 -0.07400000
v -0.01400000 0.09400000 -0.07400000
v -0.01400000 0.09400000 -0.07000000
v -0.01400000 0.09400000 -0.06600000
v -0.01400000 0.09800000 -0.11800000
v -0.01400000 0.09800000 -0.08200000
v -0.01400000 0.09800000 -0.07800000
v -0.01400000 0.09400000 -0.07800000
v -0.01400000 0.09800000 -0.07400000
v -0.01400000 0.10200000 -0.11800000
v -0.01400000 0.10200000 -0.11400000
v -0.01400000 0.10200000 -0.11000000
v -0.01400000 0.10200000 -0.10600000
v -0.01400000 0.10200000 -0.10200000
v -0.01400000 0.10200000 -0.09800000
v -0.01400000 0.10200000 -0.09400000
v -0.01400000 0.10200000 -0.09000000
v -0.01400000 0.09800000 -0.09000000
v -0.01400000 0.09800000 -0.08600000
v -0.01400000 0.10200000 -0.08600000
v -0.01400000 0.10200000 -0.08200000
v -0.01000000 0.06600000 -0.11400000
v -0.01000000 0.06600000 -0.11000000
v -0.01000000 0.07000000 -0.11400000
v -0.01000000 0.06600000 -0.10600000
v -0.01000000 0.06600000 -0.10200000
v -0.01000000 0.06600000 -0.09800000
v -0.01000000 0.06600000 -0.09400000
v -0.01000000 0.07000000 -0.09800000
v -0.01000000 0.07000000 -0.09400000
v -0.01000000 0.06600000 -0.09000000
v -0.01000000 0.07000000 -0.09000000
v -0.01000000 0.06600000 -0.08600000
v -0.01000000 0.07000000 -0.08600000
v -0.01000000 0.07000000 -0.11800000
v -0.01000000 0.07400000 -0.11800000
v -0.01000000 0.07000000 -0.08200000
v -0.01000000 0.07400000 -0.08600000
v -0.01000000 0.07400000 -0.08200000
v -0.01000000 0.07000000 -0.07800000
v -0.01000000 0.07400000 -0.07800000
v -0.01000000 0.07800000 -0.11800000
v -0.01000000 0.07800000 -0.11400000
v -0.01000000 0.07800000 -0.11000000
v -0.01000000 0.07800000 -0.10600000
v -0.01000000 0.07800000 -0.10200000
v -0.01000000 0.07800000 -0.09800000
v -0.01000000 0.07400000 -0.07400000
v -0.01000000 0.07800000 -0.07800000
v -0.01000000 0.07800000 -0.07400000
v -0.01400000 0.08200000 -0.09800000
v -0.01400000 0.08200000 -0.09400000
v -0.01000000 0.08200000 -0.09800000
v -0.01000000 0.08200000 -0.09400000
v -0.01000000 0.08200000 -0.07800000
v -0.01000000 0.08200000 -0.07400000
v -0.01000000 0.07800000 -0.07000000
v -0.01000000 0.08200000 -0.07000000
v -0.01400000 0.08600000 -0.09400000
v -0.01000000 0.08600000 -0.09400000
v -0.01000000 0.08600000 -0.07800000
v -0.01000000 0.08600000 -0.07400000
v -0.01000000 0.08600000 -0.07000000
v -0.01000000 0.09000000 -0.09400000
v -0.01000000 0.09000000 -0.07800000
v -0.01000000 0.09000000 -0.07400000
v -0.01000000 0.09000000 -0.07000000
v -0.01000000 0.09000000 -0.11800000
v -0.01000000 0.09000000 -0.11400000
v -0.01000000 0.09400000 -0.11800000
v -0.01000000 0.09400000 -0.11400000
v -0.01000000 0.09000000 -0.11000000
v -0.01000000 0.09400000 -0.11000000
v -0.01000000 0.09000000 -0.10600000
v -0.01000000 0.09000000 -0.10200000
v -0.01000000 0.09400000 -0.10600000
v -0.01000000 0.09000000 -0.09800000
v -0.01000000 0.09400000 -0.07800000
v -0.01000000 0.09400000 -0.07400000
v -0.01000000 0.09800000 -0.11800000
v -0.01000000 0.09800000 -0.11400000
v -0.01000000 0.09800000 -0.09000000
v -0.01000000 0.09800000 -0.08600000
v -0.01000000 0.09400000 -0.08600000
v -0.01000000 0.09400000 -0.08200000
v -0.01000000 0.09800000 -0.08200000
v -0.01000000 0.09800000 -0.07800000
v -0.01000000 0.10200000 -0.11800000
v -0.01000000 0.10200000 -0.11400000
v -0.01000000 0.10200000 -0.11000000
v -0.01000000 0.10200000 -0.10600000
v -0.01000000 0.10200000 -0.10200000
v -0.01000000 0.10200000 -0.09800000
v -0.01000000 0.10200000 -0.09400000
v -0.01000000 0.09800000 -0.09400000
v -0.01000000 0.10200000 -0.09000000
v -0.00600000 0.06600000 -0.11400000
v -0.00600000 0.06600000 -0.11000000
v -0.00600000 0.07000000 -0.11400000
v -0.00600000 0.06600000 -0.10600000
v -0.00600000 0.07000000 -0.11000000
v -0.00600000 0.07000000 -0.10600000
v -0.00600000 0.06600000 -0.10200000
v -0.00600000 0.07000000 -0.10200000
v -0.00600000 0.06600000 -0.09800000
v -0.00600000 0.07000000 -0.09800000
v -0.00600000 0.07000000 -0.11800000
v -0.00600000 0.07400000 -0.11800000
v -0.00600000 0.07400000 -0.11400000
v -0.00600000 0.07000000 -0.09400000
v -0.00600000 0.07000000 -0.09000000
v -0.00600000 0.07400000 -0.09400000
v -0.00600000 0.07400000 -0.09000000
v -0.00600000 0.07000000 -0.08600000
v -0.00600000 0.07400000 -0.08600000
v -0.00600000 0.07800000 -0.11800000
v -0.00600000 0.07800000 -0.11400000
v -0.00600000 0.07800000 -0.11000000
v -0.00600000 0.07800000 -0.10600000
v -0.00600000 0.07400000 -0.08200000
v -0.00600000 0.07800000 -0.08600000
v -0.00600000 0.07800000 -0.08200000
v -0.00600000 0.07400000 -0.07800000
v -0.00600000 0.07800000 -0.07800000
v -0.01000000 0.08200000 -0.10600000
v -0.01000000 0.08200000 -0.10200000
v -0.00600000 0.08200000 -0.10600000
v -0.00600000 0.08200000 -0.10200000
v -0.00600000 0.08200000 -0.09800000
v -0.00600000 0.08200000 -0.08200000
v -0.00600000 0.08200000 -0.07800000
v -0.01000000 0.08600000 -0.09800000
v -0.00600000 0.08600000 -0.09800000
v -0.00600000 0.08600000 -0.08200000
v -0.00600000 0.08600000 -0.07800000
v -0.01000000 0.08600000 -0.10200000
v -0.00600000 0.08600000 -0.10200000
v -0.00600000 0.09000000 -0.10200000
v -0.00600000 0.09000000 -0.08200000
v -0.00600000 0.09000000 -0.07800000
v -0.00600000 0.09000000 -0.11000000
v -0.00600000 0.09000000 -0.10600000
v -0.00600000 0.09400000 -0.11000000
v -0.00600000 0.09000000 -0.08600000
v -0.00600000 0.09400000 -0.08600000
v -0.00600000 0.09400000 -0.08200000
v -0.00600000 0.09400000 -0.07800000
v -0.00600000 0.09400000 -0.11400000
v -0.00600000 0.09800000 -0.11400000
v -0.00600000 0.09800000 -0.09400000
v -0.00600000 0.09800000 -0.09000000
v -0.00600000 0.09400000 -0.09000000
v -0.00600000 0.09800000 -0.08600000
v -0.00600000 0.10200000 -0.11400000
v -0.00600000 0.10200000 -0.11000000
v -0.00600000 0.10200000 -0.10600000
v -0.00600000 0.10200000 -0.10200000
v -0.00600000 0.10200000 -0.09800000
v -0.00600000 0.09800000 -0.09800000
v -0.00600000 0.10200000 -0.09400000
v -0.00200000 0.06600000 -0.11400000
v -0.00200000 0.06600000 -0.11000000
v -0.00200000 0.07000000 -0.11400000
v -0.00200000 0.07000000 -0.11000000
v -0.00200000 0.07400000 -0.11400000
v -0.00200000 0.07000000 -0.10600000
v -0.00200000 0.07000000 -0.10200000
v -0.00200000 0.07000000 -0.09800000
v -0.00200000 0.07000000 -0.09400000
v -0.00200000 0.07400000 -0.09800000
v -0.00200000 0.07400000 -0.09400000
v -0.00200000 0.07400000 -0.11000000
v -0.00200000 0.07800000 -0.11400000
v -0.00200000 0.07800000 -0.11000000
v -0.00200000 0.07400000 -0.09000000
v -0.00200000 0.07800000 -0.09400000
v -0.00200000 0.07800000 -0.09000000
v -0.00200000 0.07400000 -0.08600000
v -0.00200000 0.07800000 -0.08600000
v -0.00600000 0.08200000 -0.11000000
v -0.00200000 0.08200000 -0.11000000
v -0.00200000 0.08200000 -0.10600000
v -0.00200000 0.08200000 -0.09000000
v -0.00200000 0.08200000 -0.08600000
v -0.00200000 0.07800000 -0.08200000
v -0.00200000 0.08200000 -0.08200000
v -0.00600000 0.08600000 -0.10600000
v -0.00200000 0.08600000 -0.10600000
v -0.00200000 0.08600000 -0.09000000
v -0.00200000 0.08600000 -0.08600000
v -0.00200000 0.08600000 -0.08200000
v -0.00600000 0.08600000 -0.11000000
v -0.00200000 0.08600000 -0.11000000
v -0.00200000 0.09000000 -0.11000000
v -0.00200000 0.09000000 -0.09000000
v -0.00200000 0.09000000 -0.08600000
v -0.00200000 0.09000000 -0.08200000
v -0.00200000 0.09400000 -0.11000000
v -0.00200000 0.09000000 -0.09400000
v -0.00200000 0.09400000 -0.09400000
v -0.00200000 0.09400000 -0.09000000
v -0.00200000 0.09400000 -0.08600000
v -0.00200000 0.09400000 -0.11400000
v -0.00200000 0.09800000 -0.11400000
v -0.00200000 0.09800000 -0.11000000
v -0.00200000 0.09400000 -0.09800000
v -0.00200000 0.09800000 -0.09800000
v -0.00200000 0.09800000 -0.09400000
v -0.00200000 0.09800000 -0.09000000
v -0.00200000 0.10200000 -0.11400000
v -0.00200000 0.10200000 -0.11000000
v -0.00200000 0.10200000 -0.10600000
v -0.00200000 0.10200000 -0.10200000
v -0.00200000 0.09800000 -0.10200000
v -0.00200000 0.10200000 -0.09800000
v 0.00200000 0.07000000 -0.11400000
v 0.00200000 0.07000000 -0.11000000
v 0.00200000 0.07400000 -0.11400000
v 0.00200000 0.07400000 -0.11000000
v 0.00200000 0.07000000 -0.10600000
v 0.00200000 0.07400000 -0.10600000
v 0.00200000 0.07000000 -0.10200000
v 0.00200000 0.07400000 -0.10200000
v 0.00200000 0.07000000 -0.09800000
v 0.00200000 0.07400000 -0.09800000
v 0.00200000 0.07800000 -0.11000000
v 0.00200000 0.07800000 -0.10200000
v 0.00200000 0.07800000 -0.09800000
v 0.00200000 0.07400000 -0.09400000
v 0.00200000 0.07800000 -0.09400000
v 0.00200000 0.08200000 -0.11000000
v 0.00200000 0.08200000 -0.09800000
v 0.00200000 0.08200000 -0.09400000
v 0.00200000 0.07800000 -0.09000000
v 0.00200000 0.08200000 -0.09000000
v 0.00200000 0.08600000 -0.11000000
v 0.00200000 0.08600000 -0.09800000
v 0.00200000 0.08600000 -0.09400000
v 0.00200000 0.08600000 -0.09000000
v 0.00200000 0.09000000 -0.11000000
v 0.00200000 0.09000000 -0.09800000
v 0.00200000 0.09000000 -0.09400000
v 0.00200000 0.09000000 -0.09000000
v 0.00200000 0.09400000 -0.11000000
v 0.00200000 0.09400000 -0.09800000
v 0.00200000 0.09400000 -0.09400000
v 0.00200000 0.09400000 -0.10600000
v 0.00200000 0.09800000 -0.11000000
v 0.00200000 0.09800000 -0.10600000
v 0.00200000 0.09400000 -0.10200000
v 0.00200000 0.09800000 -0.10200000
v 0.00200000 0.09800000 -0.09800000
v 0.00200000 0.10200000 -0.11000000
v 0.00200000 0.10200000 -0.10600000
v 0.00200000 0.10200000 -0.10200000
v 0.00600000 0.07400000 -0.11000000
v 0.00600000 0.07400000 -0.10600000
v 0.00600000 0.07800000 -0.11000000
v 0.00600000 0.07800000 -0.10600000
v 0.00600000 0.07400000 -0.10200000
v 0.00600000 0.07800000 -0.10200000
v 0.00600000 0.08200000 -0.11000000
v 0.00600000 0.08200000 -0.10600000
v 0.00600000 0.08200000 -0.10200000
v 0.00600000 0.07800000 -0.09800000
v 0.00600000 0.08200000 -0.09800000
v 0.00600000 0.08600000 -0.11000000
v 0.00600000 0.08600000 -0.10600000
v 0.00600000 0.08600000 -0.10200000
v 0.00600000 0.08600000 -0.09800000
v 0.00600000 0.09000000 -0.11000000
v 0.00600000 0.09000000 -0.10600000
v 0.00600000 0.09000000 -0.10200000
v 0.00600000 0.09000000 -0.09800000
v 0.00600000 0.09400000 -0.11000000
v 0.00600000 0.09400000 -0.10600000
v 0.00600000 0.09400000 -0.10200000
v 0.00600000 0.09400000 -0.09800000
v 0.00600000 0.09800000 -0.10600000
v 0.00600000 0.09800000 -0.10200000
f 2 4 1
f 5 2 1
f 1 4 3
f 3 5 1
f 2 8 4
f 6 2 5
f 6 8 2
f 7 5 3
f 3 11 9
f 12 3 9
f 9 11 10
f 10 12 9
f 7 3 12
f 13 12 10
f 4 14 3
f 3 14 11
f 4 15 14
f 8 15 4
f 11 17 10
f 10 17 16
f 16 13 10
f 17 19 16
f 18 13 16
f 16 19 18
f 14 20 11
f 11 20 17
f 21 22 14
f 15 21 14
f 14 22 20
f 21 25 22
f 23 21 15
f 23 25 21
f 22 25 20
f 20 25 24
f 20 27 17
f 17 27 26
f 26 19 17
f 20 29 27
f 24 29 20
f 27 29 26
f 28 19 26
f 26 29 28
f 31 33 30
f 34 31 30
f 30 33 32
f 32 34 30
f 31 37 33
f 35 31 34
f 35 37 31
f 36 34 32
f 32 5 38
f 40 32 38
f 38 5 39
f 39 40 38
f 36 32 40
f 41 40 39
f 33 6 32
f 32 6 5
f 42 43 33
f 37 42 33
f 33 43 6
f 42 45 43
f 44 42 37
f 44 45 42
f 39 12 46
f 48 39 46
f 46 12 47
f 47 48 46
f 41 39 48
f 49 48 47
f 5 7 39
f 39 7 12
f 43 50 6
f 6 50 8
f 43 51 50
f 45 51 43
f 12 13 47
f 47 13 52
f 52 49 47
f 53 49 52
f 50 23 8
f 8 23 15
f 50 54 23
f 51 54 50
f 13 18 52
f 52 18 55
f 55 53 52
f 56 53 55
f 23 57 25
f 54 57 23
f 18 59 55
f 55 59 58
f 58 56 55
f 59 61 58
f 60 56 58
f 58 61 60
f 19 28 18
f 18 28 59
f 25 62 24
f 24 62 29
f 25 63 62
f 57 63 25
f 28 65 59
f 59 65 64
f 64 61 59
f 65 67 64
f 66 61 64
f 64 67 66
f 29 68 28
f 28 68 65
f 62 69 29
f 29 69 68
f 62 70 69
f 63 70 62
f 68 72 65
f 65 72 71
f 71 67 65
f 72 74 71
f 73 67 71
f 71 74 73
f 69 75 68
f 68 75 72
f 69 76 75
f 70 76 69
f 75 76 72
f 72 76 74
f 34 36 77
f 78 34 77
f 77 36 40
f 40 78 77
f 79 34 78
f 80 78 40
f 79 35 34
f 81 35 79
f 82 44 35
f 81 82 35
f 35 44 37
f 82 84 44
f 83 82 81
f 83 84 82
f 86 48 85
f 88 86 85
f 85 48 87
f 87 88 85
f 89 86 88
f 90 88 87
f 40 41 86
f 89 40 86
f 86 41 48
f 80 40 89
f 91 92 44
f 84 91 44
f 44 92 45
f 91 95 92
f 93 91 84
f 93 95 91
f 92 95 45
f 45 95 94
f 87 98 96
f 99 87 96
f 96 98 97
f 97 99 96
f 90 87 99
f 100 99 97
f 48 49 87
f 87 49 98
f 45 101 51
f 94 101 45
f 98 103 97
f 97 103 102
f 102 100 97
f 104 100 102
f 49 53 98
f 98 53 103
f 107 106 105
f 108 106 107
f 51 109 54
f 101 109 51
f 103 111 102
f 102 111 110
f 110 104 102
f 112 104 110
f 53 56 103
f 103 56 111
f 113 108 107
f 114 108 113
f 54 115 57
f 109 115 54
f 111 117 110
f 110 117 116
f 116 112 110
f 117 119 116
f 118 112 116
f 116 119 118
f 56 60 111
f 111 60 117
f 57 120 63
f 115 120 57
f 60 122 117
f 117 122 121
f 121 119 117
f 122 124 121
f 123 119 121
f 121 124 123
f 61 66 60
f 60 66 122
f 66 125 122
f 122 125 124
f 126 127 63
f 120 126 63
f 63 127 70
f 126 129 127
f 128 126 120
f 128 129 126
f 67 73 66
f 66 73 130
f 130 125 66
f 73 132 130
f 131 125 130
f 130 132 131
f 74 133 73
f 73 133 132
f 76 134 74
f 74 134 133
f 127 135 70
f 70 135 76
f 127 136 135
f 129 136 127
f 135 136 76
f 76 136 134
f 78 80 137
f 138 78 137
f 137 80 89
f 89 138 137
f 139 78 138
f 140 138 89
f 139 79 78
f 141 79 139
f 141 81 79
f 142 81 141
f 142 83 81
f 143 83 142
f 144 93 83
f 143 144 83
f 83 93 84
f 144 146 93
f 145 144 143
f 145 146 144
f 88 90 147
f 148 88 147
f 147 90 99
f 99 148 147
f 149 88 148
f 150 148 99
f 149 89 88
f 140 89 149
f 93 151 95
f 146 151 93
f 99 100 152
f 154 99 152
f 152 100 153
f 153 154 152
f 150 99 154
f 155 154 153
f 106 157 105
f 105 157 156
f 157 159 158
f 160 159 157
f 95 161 94
f 94 161 101
f 95 162 161
f 151 162 95
f 153 165 163
f 166 153 163
f 163 165 164
f 164 166 163
f 155 153 166
f 167 166 164
f 100 104 153
f 153 104 165
f 105 170 107
f 156 170 105
f 169 156 168
f 170 156 169
f 108 157 106
f 171 157 108
f 171 160 157
f 172 160 171
f 161 173 101
f 101 173 109
f 161 174 173
f 162 174 161
f 165 176 164
f 164 176 175
f 175 167 164
f 177 167 175
f 104 112 165
f 165 112 176
f 179 169 178
f 180 169 179
f 107 181 113
f 170 181 107
f 180 170 169
f 181 170 180
f 114 171 108
f 182 171 114
f 182 172 171
f 183 172 182
f 173 184 109
f 109 184 115
f 173 185 184
f 174 185 173
f 176 187 175
f 175 187 186
f 186 177 175
f 187 189 186
f 188 177 186
f 186 189 188
f 112 118 176
f 176 118 187
f 181 114 113
f 182 114 181
f 190 182 181
f 191 182 190
f 191 183 182
f 192 183 191
f 184 128 115
f 115 128 120
f 184 193 128
f 185 193 184
f 118 195 187
f 187 195 194
f 194 189 187
f 195 197 194
f 196 189 194
f 194 197 196
f 119 123 118
f 118 123 195
f 198 199 128
f 193 198 128
f 128 199 129
f 198 202 199
f 200 198 193
f 200 202 198
f 199 202 129
f 129 202 201
f 123 204 195
f 195 204 203
f 203 197 195
f 204 206 203
f 205 197 203
f 203 206 205
f 124 207 123
f 123 207 204
f 207 208 204
f 204 208 206
f 125 131 124
f 124 131 207
f 131 209 207
f 207 209 208
f 132 210 131
f 131 210 209
f 133 211 132
f 132 211 210
f 134 212 133
f 133 212 211
f 129 213 136
f 201 213 129
f 136 213 134
f 134 213 212
f 215 149 214
f 216 215 214
f 214 149 148
f 148 216 214
f 217 215 216
f 218 216 148
f 138 140 215
f 217 138 215
f 215 140 149
f 219 138 217
f 219 139 138
f 220 139 219
f 220 141 139
f 221 141 220
f 221 142 141
f 222 142 221
f 222 143 142
f 223 143 222
f 223 145 143
f 145 225 146
f 224 145 223
f 224 225 145
f 227 154 226
f 229 227 226
f 226 154 228
f 228 229 226
f 230 227 229
f 231 229 228
f 148 150 227
f 230 148 227
f 227 150 154
f 218 148 230
f 159 233 158
f 158 233 232
f 234 235 146
f 225 234 146
f 146 235 151
f 234 238 235
f 236 234 225
f 236 238 234
f 235 238 151
f 151 238 237
f 228 166 239
f 241 228 239
f 239 166 240
f 240 241 239
f 231 228 241
f 242 241 240
f 154 155 228
f 228 155 166
f 156 246 168
f 168 246 245
f 245 244 243
f 246 244 245
f 158 247 157
f 232 247 158
f 157 247 156
f 156 247 246
f 246 232 244
f 247 232 246
f 160 233 159
f 151 249 162
f 237 249 151
f 248 233 160
f 166 167 240
f 240 167 250
f 250 242 240
f 251 242 250
f 254 253 252
f 255 253 254
f 168 256 169
f 245 256 168
f 169 256 178
f 178 256 255
f 255 245 253
f 256 245 255
f 172 248 160
f 162 258 174
f 249 258 162
f 257 248 172
f 250 261 259
f 262 250 259
f 259 261 260
f 260 262 259
f 251 250 262
f 263 262 260
f 167 177 250
f 250 177 261
f 265 254 264
f 266 254 265
f 178 267 179
f 255 267 178
f 266 255 254
f 267 255 266
f 183 257 172
f 174 269 185
f 258 269 174
f 268 257 183
f 268 258 257
f 269 258 268
f 261 271 260
f 260 271 270
f 270 263 260
f 271 273 270
f 272 263 270
f 270 273 272
f 177 188 261
f 261 188 271
f 267 180 179
f 274 180 267
f 275 274 267
f 276 274 275
f 274 181 180
f 181 278 190
f 277 181 274
f 277 278 181
f 276 277 274
f 278 277 276
f 192 268 183
f 185 280 193
f 269 280 185
f 279 268 192
f 188 282 271
f 271 282 281
f 281 273 271
f 282 284 281
f 283 273 281
f 281 284 283
f 189 196 188
f 188 196 282
f 196 285 282
f 282 285 284
f 278 191 190
f 286 191 278
f 286 192 191
f 279 192 286
f 280 200 193
f 200 288 202
f 287 200 280
f 287 288 200
f 197 205 196
f 196 205 289
f 289 285 196
f 205 291 289
f 290 285 289
f 289 291 290
f 206 292 205
f 205 292 291
f 202 293 201
f 201 293 213
f 202 295 293
f 288 295 202
f 293 295 213
f 213 295 294
f 208 297 206
f 206 297 296
f 296 292 206
f 297 299 296
f 298 292 296
f 296 299 298
f 209 300 208
f 208 300 297
f 300 301 297
f 297 301 299
f 210 302 209
f 209 302 300
f 302 303 300
f 300 303 301
f 211 304 210
f 210 304 302
f 304 305 302
f 302 305 303
f 212 306 211
f 211 306 304
f 306 307 304
f 304 307 305
f 213 308 212
f 212 308 306
f 213 310 308
f 294 310 213
f 308 310 306
f 306 310 307
f 307 294 309
f 310 294 307
f 216 218 311
f 312 216 311
f 311 218 230
f 230 312 311
f 313 216 312
f 314 312 230
f 313 217 216
f 315 217 313
f 315 219 217
f 316 219 315
f 316 220 219
f 317 220 316
f 317 221 220
f 318 221 317
f 318 222 221
f 319 222 318
f 319 223 222
f 320 223 319
f 320 224 223
f 321 224 320
f 322 236 224
f 321 322 224
f 224 236 225
f 322 324 236
f 323 322 321
f 323 324 322
f 229 231 325
f 326 229 325
f 325 231 241
f 241 326 325
f 327 229 326
f 328 326 241
f 327 230 229
f 314 230 327
f 244 330 243
f 243 330 329
f 232 331 244
f 244 331 330
f 236 332 238
f 324 332 236
f 334 336 333
f 337 334 333
f 333 336 335
f 335 337 333
f 338 334 337
f 339 337 335
f 241 242 334
f 338 241 334
f 334 242 336
f 328 241 338
f 253 341 252
f 252 341 340
f 243 342 245
f 329 342 243
f 245 342 253
f 253 342 341
f 233 248 232
f 232 248 247
f 247 331 232
f 248 344 247
f 343 331 247
f 247 344 343
f 238 345 237
f 237 345 249
f 346 347 238
f 332 346 238
f 238 347 345
f 346 349 347
f 348 346 332
f 348 349 346
f 336 262 335
f 335 262 350
f 350 339 335
f 351 339 350
f 242 251 336
f 336 251 262
f 354 353 352
f 355 353 354
f 252 356 254
f 340 356 252
f 254 356 264
f 264 356 355
f 355 340 353
f 356 340 355
f 257 344 248
f 258 358 257
f 357 344 257
f 257 358 357
f 345 359 249
f 249 359 258
f 347 360 345
f 345 360 359
f 347 361 360
f 349 361 347
f 350 364 362
f 365 350 362
f 362 364 363
f 363 365 362
f 351 350 365
f 364 367 363
f 366 365 363
f 363 367 366
f 262 263 350
f 350 263 364
f 264 369 265
f 355 369 264
f 368 355 354
f 369 355 368
f 359 370 258
f 258 370 269
f 269 358 258
f 371 358 269
f 360 372 359
f 359 372 370
f 360 373 372
f 361 373 360
f 263 272 364
f 364 272 374
f 374 367 364
f 375 367 374
f 376 369 368
f 377 369 376
f 369 266 265
f 378 266 369
f 377 378 369
f 379 378 377
f 378 267 266
f 267 381 275
f 380 267 378
f 380 381 267
f 379 380 378
f 381 380 379
f 382 269 268
f 279 382 268
f 371 269 382
f 383 382 279
f 370 287 269
f 269 287 280
f 372 384 370
f 370 384 287
f 372 386 384
f 373 386 372
f 384 386 287
f 287 386 385
f 272 388 374
f 374 388 387
f 387 375 374
f 388 390 387
f 389 375 387
f 387 390 389
f 273 283 272
f 272 283 388
f 381 276 275
f 391 276 381
f 391 278 276
f 392 278 391
f 392 286 278
f 393 286 392
f 393 279 286
f 383 279 393
f 287 394 288
f 385 394 287
f 283 396 388
f 388 396 395
f 395 390 388
f 396 398 395
f 397 390 395
f 395 398 397
f 284 399 283
f 283 399 396
f 399 400 396
f 396 400 398
f 285 290 284
f 284 290 399
f 290 401 399
f 399 401 400
f 294 403 309
f 309 403 402
f 288 404 295
f 394 404 288
f 295 404 294
f 294 404 403
f 291 406 290
f 290 406 405
f 405 401 290
f 406 408 405
f 407 401 405
f 405 408 407
f 292 298 291
f 291 298 406
f 298 409 406
f 406 409 408
f 299 410 298
f 298 410 409
f 301 411 299
f 299 411 410
f 303 412 301
f 301 412 411
f 305 413 303
f 303 413 412
f 309 415 307
f 402 415 309
f 307 415 305
f 305 415 413
f 413 402 414
f 415 402 413
f 417 327 416
f 418 417 416
f 416 327 326
f 326 418 416
f 419 417 418
f 420 418 326
f 312 314 417
f 419 312 417
f 417 314 327
f 421 312 419
f 421 313 312
f 422 313 421
f 422 315 313
f 423 315 422
f 423 316 315
f 424 316 423
f 424 317 316
f 425 317 424
f 425 318 317
f 426 318 425
f 426 319 318
f 427 319 426
f 427 320 319
f 428 320 427
f 428 321 320
f 429 321 428
f 430 429 428
f 431 429 430
f 429 323 321
f 323 433 324
f 432 323 429
f 432 433 323
f 431 432 429
f 433 432 431
f 435 338 434
f 436 435 434
f 434 338 337
f 337 436 434
f 437 435 436
f 438 436 337
f 326 328 435
f 437 326 435
f 435 328 338
f 420 326 437
f 324 439 332
f 433 439 324
f 337 339 440
f 442 337 440
f 440 339 441
f 441 442 440
f 438 337 442
f 443 442 441
f 353 445 352
f 352 445 444
f 340 446 353
f 353 446 445
f 341 447 340
f 340 447 446
f 342 448 341
f 341 448 447
f 330 449 329
f 329 449 342
f 449 450 342
f 342 450 448
f 331 343 330
f 330 343 449
f 343 451 449
f 449 451 450
f 439 348 332
f 348 453 349
f 452 348 439
f 452 453 348
f 441 365 454
f 456 441 454
f 454 365 455
f 455 456 454
f 443 441 456
f 457 456 455
f 339 351 441
f 441 351 365
f 352 460 354
f 444 460 352
f 459 444 458
f 460 444 459
f 344 357 343
f 343 357 461
f 461 451 343
f 462 451 461
f 349 463 361
f 453 463 349
f 365 366 455
f 455 366 464
f 464 457 455
f 465 457 464
f 467 459 466
f 468 459 467
f 354 469 368
f 460 469 354
f 468 460 459
f 469 460 468
f 357 382 461
f 461 382 470
f 470 462 461
f 471 462 470
f 358 371 357
f 357 371 382
f 361 472 373
f 463 472 361
f 366 474 464
f 464 474 473
f 473 465 464
f 475 465 473
f 367 375 366
f 366 375 474
f 476 468 467
f 477 468 476
f 368 478 376
f 469 478 368
f 477 469 468
f 478 469 477
f 470 393 479
f 480 470 479
f 479 393 392
f 392 480 479
f 471 470 480
f 481 480 392
f 382 383 470
f 470 383 393
f 373 482 386
f 472 482 373
f 474 484 473
f 473 484 483
f 483 475 473
f 484 486 483
f 485 475 483
f 483 486 485
f 375 389 474
f 474 389 484
f 478 377 376
f 487 377 478
f 487 379 377
f 488 379 487
f 488 381 379
f 489 381 488
f 489 391 381
f 490 391 489
f 490 392 391
f 481 392 490
f 386 491 385
f 385 491 394
f 386 493 491
f 482 493 386
f 491 493 394
f 394 493 492
f 389 495 484
f 484 495 494
f 494 486 484
f 495 497 494
f 496 486 494
f 494 497 496
f 390 397 389
f 389 397 495
f 397 498 495
f 495 498 497
f 398 499 397
f 397 499 498
f 402 501 414
f 414 501 500
f 403 502 402
f 402 502 501
f 394 504 404
f 492 504 394
f 404 504 403
f 403 504 502
f 502 492 503
f 504 492 502
f 400 506 398
f 398 506 505
f 505 499 398
f 506 508 505
f 507 499 505
f 505 508 507
f 401 407 400
f 400 407 506
f 407 509 506
f 506 509 508
f 408 510 407
f 407 510 509
f 409 511 408
f 408 511 510
f 410 512 409
f 409 512 511
f 411 513 410
f 410 513 512
f 412 514 411
f 411 514 513
f 414 516 413
f 500 516 414
f 413 516 412
f 412 516 514
f 514 500 515
f 516 500 514
f 418 420 517
f 518 418 517
f 517 420 437
f 437 518 517
f 519 418 518
f 520 518 437
f 519 419 418
f 521 419 519
f 521 421 419
f 522 421 521
f 522 422 421
f 523 422 522
f 523 423 422
f 524 423 523
f 524 424 423
f 525 424 524
f 525 425 424
f 526 425 525
f 526 426 425
f 527 426 526
f 527 427 426
f 528 427 527
f 529 528 527
f 530 528 529
f 528 428 427
f 428 532 430
f 531 428 528
f 531 532 428
f 530 531 528
f 532 531 530
f 436 438 533
f 534 436 533
f 533 438 442
f 442 534 533
f 535 436 534
f 536 534 442
f 535 437 436
f 520 437 535
f 532 431 430
f 537 431 532
f 538 537 532
f 539 537 538
f 537 433 431
f 433 541 439
f 540 433 537
f 540 541 433
f 539 540 537
f 541 540 539
f 442 443 542
f 543 442 542
f 542 443 456
f 456 543 542
f 536 442 543
f 544 543 456
f 444 546 458
f 458 546 545
f 445 547 444
f 444 547 546
f 446 548 445
f 445 548 547
f 447 549 446
f 446 549 548
f 448 550 447
f 447 550 549
f 551 541 539
f 552 541 551
f 541 452 439
f 452 554 453
f 553 452 541
f 553 554 452
f 552 553 541
f 554 553 552
f 457 544 456
f 555 544 457
f 558 557 556
f 559 557 558
f 458 560 459
f 545 560 458
f 459 560 466
f 466 560 559
f 559 545 557
f 560 545 559
f 450 562 448
f 448 562 561
f 561 550 448
f 562 564 561
f 563 550 561
f 561 564 563
f 451 462 450
f 450 462 562
f 453 566 463
f 554 566 453
f 565 554 552
f 566 554 565
f 465 555 457
f 567 555 465
f 569 558 568
f 570 558 569
f 466 571 467
f 559 571 466
f 570 559 558
f 571 559 570
f 462 471 562
f 562 471 480
f 480 564 562
f 572 564 480
f 463 574 472
f 566 574 463
f 573 566 565
f 574 566 573
f 475 567 465
f 575 567 475
f 576 570 569
f 577 570 576
f 467 578 476
f 571 578 467
f 577 571 570
f 578 571 577
f 480 481 579
f 580 480 579
f 579 481 490
f 490 580 579
f 572 480 580
f 581 580 490
f 472 583 482
f 574 583 472
f 582 574 573
f 583 574 582
f 485 575 475
f 585 575 485
f 585 584 575
f 586 584 585
f 578 477 476
f 587 477 578
f 587 478 477
f 588 478 587
f 588 487 478
f 589 487 588
f 589 488 487
f 590 488 589
f 590 489 488
f 591 489 590
f 591 490 489
f 581 490 591
f 492 594 503
f 503 594 593
f 593 582 592
f 594 582 593
f 482 595 493
f 583 595 482
f 493 595 492
f 492 595 594
f 594 583 582
f 595 583 594
f 486 496 485
f 485 496 596
f 596 585 485
f 496 598 596
f 597 585 596
f 596 598 597
f 597 586 585
f 598 586 597
f 500 600 515
f 515 600 599
f 501 603 500
f 500 603 600
f 600 602 601
f 603 602 600
f 503 604 502
f 593 604 503
f 502 604 501
f 501 604 603
f 603 593 602
f 604 593 603
f 497 606 496
f 496 606 605
f 605 598 496
f 606 608 605
f 607 598 605
f 605 608 607
f 498 609 497
f 497 609 606
f 609 610 606
f 606 610 608
f 499 507 498
f 498 507 609
f 507 611 609
f 609 611 610
f 508 612 507
f 507 612 611
f 509 613 508
f 508 613 612
f 510 614 509
f 509 614 613
f 511 615 510
f 510 615 614
f 512 616 511
f 511 616 615
f 513 617 512
f 512 617 616
f 515 619 514
f 599 619 515
f 514 619 513
f 513 619 617
f 617 599 618
f 619 599 617
f 518 520 620
f 621 518 620
f 620 520 535
f 535 621 620
f 622 518 621
f 623 621 535
f 622 519 518
f 624 519 622
f 624 521 519
f 625 521 624
f 625 522 521
f 626 522 625
f 626 523 522
f 627 523 626
f 627 524 523
f 628 524 627
f 628 525 524
f 629 525 628
f 629 526 525
f 630 526 629
f 631 630 629
f 632 630 631
f 630 527 526
f 527 634 529
f 633 527 630
f 633 634 527
f 632 633 630
f 634 633 632
f 534 536 635
f 636 534 635
f 635 536 543
f 543 636 635
f 637 534 636
f 638 636 543
f 638 637 636
f 639 637 638
f 637 535 534
f 623 535 637
f 634 530 529
f 640 530 634
f 641 640 634
f 642 640 641
f 640 532 530
f 532 644 538
f 643 532 640
f 643 644 532
f 642 643 640
f 644 643 642
f 544 638 543
f 645 638 544
f 645 639 638
f 646 639 645
f 557 648 556
f 556 648 647
f 545 649 557
f 557 649 648
f 546 650 545
f 545 650 649
f 547 651 546
f 546 651 650
f 548 652 547
f 547 652 651
f 653 644 642
f 654 644 653
f 644 539 538
f 539 656 551
f 655 539 644
f 655 656 539
f 654 655 644
f 656 655 654
f 555 645 544
f 657 645 555
f 657 646 645
f 658 646 657
f 658 659 646
f 660 659 658
f 556 661 558
f 647 661 556
f 558 661 568
f 568 661 660
f 660 647 659
f 661 647 660
f 549 663 548
f 548 663 662
f 662 652 548
f 663 665 662
f 664 652 662
f 662 665 664
f 550 563 549
f 549 563 663
f 666 656 654
f 667 656 666
f 656 552 551
f 552 669 565
f 668 552 656
f 668 669 552
f 667 668 656
f 669 668 667
f 567 657 555
f 670 657 567
f 670 658 657
f 671 658 670
f 568 672 569
f 660 672 568
f 671 660 658
f 672 660 671
f 563 580 663
f 663 580 673
f 673 665 663
f 674 665 673
f 564 572 563
f 563 572 580
f 675 667 666
f 676 667 675
f 565 677 573
f 669 677 565
f 676 669 667
f 677 669 676
f 575 670 567
f 584 679 575
f 678 670 575
f 575 679 678
f 678 671 670
f 679 671 678
f 569 680 576
f 672 680 569
f 679 672 671
f 680 672 679
f 673 591 681
f 682 673 681
f 681 591 590
f 590 682 681
f 674 673 682
f 683 682 590
f 580 581 673
f 673 581 591
f 684 676 675
f 685 676 684
f 573 686 582
f 677 686 573
f 582 686 592
f 592 686 685
f 685 677 676
f 686 677 685
f 586 679 584
f 687 679 586
f 680 577 576
f 688 577 680
f 688 578 577
f 689 578 688
f 690 689 688
f 691 689 690
f 689 587 578
f 692 587 689
f 692 588 587
f 693 588 692
f 693 589 588
f 694 589 693
f 694 590 589
f 683 590 694
f 602 697 601
f 601 697 696
f 696 684 695
f 697 684 696
f 592 698 593
f 685 698 592
f 593 698 602
f 602 698 697
f 697 685 684
f 698 685 697
f 598 687 586
f 699 687 598
f 599 701 618
f 618 701 700
f 601 703 600
f 696 703 601
f 600 703 599
f 599 703 701
f 701 696 702
f 703 696 701
f 607 699 598
f 608 705 607
f 704 699 607
f 607 705 704
f 610 706 608
f 608 706 705
f 611 707 610
f 610 707 706
f 612 708 611
f 611 708 707
f 613 709 612
f 612 709 708
f 614 710 613
f 613 710 709
f 615 711 614
f 614 711 710
f 616 714 615
f 615 714 711
f 711 713 712
f 714 713 711
f 618 715 617
f 700 715 618
f 617 715 616
f 616 715 714
f 714 700 713
f 715 700 714
f 716 622 621
f 623 716 621
f 717 622 716
f 718 716 623
f 717 624 622
f 719 624 717
f 719 625 624
f 720 625 719
f 720 626 625
f 721 626 720
f 721 627 626
f 722 627 721
f 723 722 721
f 724 722 723
f 722 628 627
f 725 628 722
f 724 725 722
f 726 725 724
f 725 629 628
f 629 728 631
f 727 629 725
f 727 728 629
f 726 727 725
f 728 727 726
f 729 623 637
f 639 729 637
f 718 623 729
f 730 729 639
f 728 632 631
f 731 632 728
f 732 731 728
f 733 731 732
f 731 634 632
f 634 735 641
f 734 634 731
f 734 735 634
f 733 734 731
f 735 734 733
f 646 730 639
f 659 737 646
f 736 730 646
f 646 737 736
f 647 738 659
f 659 738 737
f 648 739 647
f 647 739 738
f 649 740 648
f 648 740 739
f 650 741 649
f 649 741 740
f 735 642 641
f 642 744 653
f 742 642 735
f 742 744 642
f 743 742 735
f 744 742 743
f 651 746 650
f 650 746 745
f 745 741 650
f 746 748 745
f 747 741 745
f 745 748 747
f 652 664 651
f 651 664 746
f 749 744 743
f 750 744 749
f 744 654 653
f 654 752 666
f 751 654 744
f 751 752 654
f 750 751 744
f 752 751 750
f 664 682 746
f 746 682 753
f 753 748 746
f 754 748 753
f 665 674 664
f 664 674 682
f 755 750 749
f 756 750 755
f 666 757 675
f 752 757 666
f 756 752 750
f 757 752 756
f 682 683 753
f 753 683 694
f 694 754 753
f 758 754 694
f 759 756 755
f 760 756 759
f 675 761 684
f 757 761 675
f 684 761 695
f 695 761 760
f 760 757 756
f 761 757 760
f 762 680 679
f 687 762 679
f 763 680 762
f 764 762 687
f 764 763 762
f 765 763 764
f 763 688 680
f 688 767 690
f 766 688 763
f 766 767 688
f 765 766 763
f 767 766 765
f 768 692 689
f 691 768 689
f 769 692 768
f 770 768 691
f 769 693 692
f 771 693 769
f 771 694 693
f 758 694 771
f 695 773 696
f 760 773 695
f 696 773 702
f 702 773 772
f 772 760 759
f 773 760 772
f 699 764 687
f 774 764 699
f 774 765 764
f 775 765 774
f 767 691 690
f 770 691 767
f 713 777 712
f 712 777 776
f 700 780 713
f 713 780 777
f 777 779 778
f 780 779 777
f 702 781 701
f 772 781 702
f 701 781 700
f 700 781 780
f 780 772 779
f 781 772 780
f 704 774 699
f 705 783 704
f 782 774 704
f 704 783 782
f 782 775 774
f 783 775 782
f 706 784 705
f 705 784 783
f 707 785 706
f 706 785 784
f 708 786 707
f 707 786 785
f 709 787 708
f 708 787 786
f 710 788 709
f 709 788 787
f 712 790 711
f 776 790 712
f 711 790 710
f 710 790 788
f 788 776 789
f 790 776 788
f 791 717 716
f 718 791 716
f 792 717 791
f 793 791 718
f 792 719 717
f 794 719 792
f 795 794 792
f 796 794 795
f 794 720 719
f 797 720 794
f 796 797 794
f 798 797 796
f 797 721 720
f 721 800 723
f 799 721 797
f 799 800 721
f 798 799 797
f 800 799 798
f 801 718 729
f 730 801 729
f 793 718 801
f 802 801 730
f 802 793 801
f 803 793 802
f 800 724 723
f 804 724 800
f 804 726 724
f 805 726 804
f 806 805 804
f 807 805 806
f 805 728 726
f 728 809 732
f 808 728 805
f 808 809 728
f 807 808 805
f 809 808 807
f 736 802 730
f 737 811 736
f 810 802 736
f 736 811 810
f 810 803 802
f 811 803 810
f 738 812 737
f 737 812 811
f 739 813 738
f 738 813 812
f 809 733 732
f 814 733 809
f 815 814 809
f 816 814 815
f 814 735 733
f 735 818 743
f 817 735 814
f 817 818 735
f 816 817 814
f 818 817 816
f 740 820 739
f 739 820 819
f 819 813 739
f 820 822 819
f 821 813 819
f 819 822 821
f 741 747 740
f 740 747 820
f 747 823 820
f 820 823 822
f 743 825 749
f 818 825 743
f 824 818 816
f 825 818 824
f 748 754 747
f 747 754 826
f 826 823 747
f 827 823 826
f 749 829 755
f 825 829 749
f 828 825 824
f 829 825 828
f 826 771 830
f 831 826 830
f 830 771 769
f 769 831 830
f 827 826 831
f 832 831 769
f 754 758 826
f 826 758 771
f 755 834 759
f 829 834 755
f 833 829 828
f 834 829 833
f 768 770 766
f 835 768 766
f 766 770 767
f 767 835 766
f 836 768 835
f 837 835 767
f 836 769 768
f 832 769 836
f 779 840 778
f 778 840 839
f 839 833 838
f 840 833 839
f 759 841 772
f 834 841 759
f 772 841 779
f 779 841 840
f 840 834 833
f 841 834 840
f 842 767 765
f 775 842 765
f 837 767 842
f 843 842 775
f 776 845 789
f 789 845 844
f 778 847 777
f 839 847 778
f 777 847 776
f 776 847 845
f 845 839 846
f 847 839 845
f 783 843 775
f 784 849 783
f 848 843 783
f 783 849 848
f 785 850 784
f 784 850 849
f 786 851 785
f 785 851 850
f 787 852 786
f 786 852 851
f 789 854 788
f 844 854 789
f 788 854 787
f 787 854 852
f 852 844 853
f 854 844 852
f 855 792 791
f 793 855 791
f 792 858 795
f 856 792 855
f 856 858 792
f 857 855 793
f 857 856 855
f 858 856 857
f 803 857 793
f 859 857 803
f 858 796 795
f 860 796 858
f 860 798 796
f 861 798 860
f 861 800 798
f 862 800 861
f 862 804 800
f 804 865 806
f 863 804 862
f 863 865 804
f 864 863 862
f 865 863 864
f 811 859 803
f 812 868 811
f 867 859 811
f 811 868 867
f 867 866 859
f 868 866 867
f 865 807 806
f 869 807 865
f 870 869 865
f 871 869 870
f 869 809 807
f 809 873 815
f 872 809 869
f 872 873 809
f 871 872 869
f 873 872 871
f 813 821 812
f 812 821 874
f 874 868 812
f 821 876 874
f 875 868 874
f 874 876 875
f 877 873 871
f 878 873 877
f 873 816 815
f 816 880 824
f 879 816 873
f 879 880 816
f 878 879 873
f 880 879 878
f 822 831 821
f 821 831 881
f 881 876 821
f 882 876 881
f 823 827 822
f 822 827 831
f 883 878 877
f 884 878 883
f 824 885 828
f 880 885 824
f 884 880 878
f 885 880 884
f 881 836 886
f 887 881 886
f 886 836 835
f 835 887 886
f 882 881 887
f 888 887 835
f 831 832 881
f 881 832 836
f 889 884 883
f 890 884 889
f 828 891 833
f 885 891 828
f 833 891 838
f 838 891 890
f 890 885 884
f 891 885 890
f 837 888 835
f 892 888 837
f 894 889 893
f 895 889 894
f 838 896 839
f 890 896 838
f 839 896 846
f 846 896 895
f 895 890 889
f 896 890 895
f 897 837 842
f 843 897 842
f 892 837 897
f 898 897 843
f 898 892 897
f 899 892 898
f 844 902 853
f 853 902 901
f 901 894 900
f 902 894 901
f 846 903 845
f 895 903 846
f 845 903 844
f 844 903 902
f 902 895 894
f 903 895 902
f 848 898 843
f 849 905 848
f 904 898 848
f 848 905 904
f 904 899 898
f 905 899 904
f 850 906 849
f 849 906 905
f 851 907 850
f 850 907 906
f 853 909 852
f 901 909 853
f 852 909 851
f 851 909 907
f 907 901 908
f 909 901 907
f 910 858 857
f 859 910 857
f 911 858 910
f 866 913 859
f 912 910 859
f 859 913 912
f 912 911 910
f 913 911 912
f 911 860 858
f 914 860 911
f 913 914 911
f 915 914 913
f 914 861 860
f 916 861 914
f 915 916 914
f 917 916 915
f 916 862 861
f 862 919 864
f 918 862 916
f 918 919 862
f 917 918 916
f 919 918 917
f 868 913 866
f 920 913 868
f 921 919 917
f 922 919 921
f 919 865 864
f 865 924 870
f 923 865 919
f 923 924 865
f 922 923 919
f 924 923 922
f 875 920 868
f 925 920 875
f 926 924 922
f 927 924 926
f 924 871 870
f 871 929 877
f 928 871 924
f 928 929 871
f 927 928 924
f 929 928 927
f 876 882 875
f 875 882 887
f 887 925 875
f 930 925 887
f 931 927 926
f 932 927 931
f 877 933 883
f 929 933 877
f 932 929 927
f 933 929 932
f 888 930 887
f 934 930 888
f 935 932 931
f 936 932 935
f 883 937 889
f 933 937 883
f 889 937 893
f 893 937 936
f 936 933 932
f 937 933 936
f 892 934 888
f 938 934 892
f 893 940 894
f 936 940 893
f 894 940 900
f 900 940 939
f 939 936 935
f 940 936 939
f 899 938 892
f 942 938 899
f 942 941 938
f 943 941 942
f 900 946 901
f 939 946 900
f 901 946 908
f 908 946 945
f 945 939 944
f 946 939 945
f 905 942 899
f 906 948 905
f 947 942 905
f 905 948 947
f 947 943 942
f 948 943 947
f 908 949 907
f 945 949 908
f 907 949 906
f 906 949 948
f 948 945 943
f 949 945 948
f 950 915 913
f 920 950 913
f 951 915 950
f 952 950 920
f 952 951 950
f 953 951 952
f 951 917 915
f 917 955 921
f 954 917 951
f 954 955 917
f 953 954 951
f 955 954 953
f 925 952 920
f 956 952 925
f 956 953 952
f 957 953 956
f 957 955 953
f 958 955 957
f 955 922 921
f 922 960 926
f 959 922 955
f 959 960 922
f 958 959 955
f 960 959 958
f 930 956 925
f 961 956 930
f 961 957 956
f 962 957 961
f 962 958 957
f 963 958 962
f 926 964 931
f 960 964 926
f 963 960 958
f 964 960 963
f 934 961 930
f 965 961 934
f 965 962 961
f 966 962 965
f 966 963 962
f 967 963 966
f 931 968 935
f 964 968 931
f 967 964 963
f 968 964 967
f 938 965 934
f 941 970 938
f 969 965 938
f 938 970 969
f 969 966 965
f 970 966 969
f 970 967 966
f 971 967 970
f 935 972 939
f 968 972 935
f 939 972 944
f 944 972 971
f 971 968 967
f 972 968 971
f 943 970 941
f 944 974 945
f 971 974 944
f 945 974 943
f 973 970 943
f 943 974 973
f 973 971 970
f 974 971 973

