# https://github.com/mikedh/trimesh

o 3.obj
v -0.23635976 -0.28426744 0.07953767
v -0.23613994 -0.28507752 0.09206434
v -0.23616634 -0.28509394 0.10515913
v -0.22345625 -0.28446086 0.07958620
v -0.21029222 -0.28441018 0.07956836
v -0.22342627 -0.28549291 0.09050627
v -0.22522772 -0.28533089 0.10356466
v -0.21024654 -0.28541297 0.08895676
v -0.21418205 -0.28373285 0.09996532
v -0.20514052 -0.24339714 0.10903183
v -0.20904176 -0.25439714 0.10545319
v -0.21496358 -0.24993205 0.11699991
v -0.20902892 -0.24113604 0.12282680
v -0.20903391 -0.26753262 0.10390012
v -0.21676717 -0.26321313 0.11548038
v -0.21501283 -0.24844892 0.13180123
v -0.20722247 -0.23951873 0.13581453
v -0.22049570 -0.26326880 0.13151503
v -0.21070475 -0.24683303 0.14622999
v -0.20327340 -0.23883926 0.14195118
v -0.21866712 -0.26176140 0.14480824
v -0.21325063 -0.26031824 0.16113481
v -0.20735094 -0.24887430 0.16370423
v -0.22706486 -0.28513819 0.11834172
v -0.22705487 -0.28512605 0.13144437
v -0.20920806 -0.27841271 0.10362248
v -0.21696274 -0.27455643 0.11549180
v -0.21800621 -0.28220761 0.11091037
v -0.22054138 -0.27452431 0.13155428
v -0.22163410 -0.28201705 0.12715842
v -0.22705487 -0.28512605 0.14456486
v -0.22518776 -0.28528807 0.15940972
v -0.22065557 -0.27454501 0.14451918
v -0.22161768 -0.28199564 0.14019041
v -0.21713332 -0.27474985 0.16092069
v -0.21975913 -0.28214980 0.15500958
v -0.20740304 -0.26041317 0.17091790
v -0.20334477 -0.25256928 0.17206201
v -0.22340914 -0.28550576 0.17258731
v -0.22349265 -0.28556214 0.18404410
v -0.20918023 -0.27480909 0.17276860
v -0.21283310 -0.28292277 0.17156240
v -0.21022727 -0.28550647 0.18574634
v -0.22347124 -0.28556357 0.19716602
v -0.22345839 -0.28551290 0.21018445
v -0.21031149 -0.28556357 0.19717958
v -0.21029151 -0.28547649 0.21018373
v -0.19263883 -0.24111677 0.10696487
v -0.19690551 -0.24990849 0.09971409
v -0.19690622 -0.26322669 0.09657582
v -0.17960399 -0.24114247 0.10698771
v -0.18399200 -0.24996131 0.09976976
v -0.18399842 -0.26325310 0.09664434
v -0.16645852 -0.24114247 0.10698771
v -0.17084510 -0.24996131 0.09976976
v -0.17085081 -0.26325238 0.09664434
v -0.15331447 -0.24114247 0.10698771
v -0.15770105 -0.24996131 0.09976976
v -0.15770605 -0.26325238 0.09664434
v -0.19714960 -0.28439448 0.07957550
v -0.18400627 -0.28435237 0.07958049
v -0.19714461 -0.28532804 0.08901671
v -0.19691050 -0.27484478 0.09635671
v -0.20136703 -0.28235393 0.09469871
v -0.18400056 -0.28529449 0.08902028
v -0.18400128 -0.27483693 0.09643165
v -0.18838928 -0.28230468 0.09480649
v -0.17086365 -0.28434166 0.07958406
v -0.15772032 -0.28433096 0.07958692
v -0.17085723 -0.28529449 0.08902099
v -0.17085366 -0.27483693 0.09643165
v -0.17524167 -0.28230254 0.09480863
v -0.15771319 -0.28529449 0.08902099
v -0.15770962 -0.27483693 0.09643165
v -0.16209763 -0.28230254 0.09480863
v -0.14024251 -0.24114033 0.10697986
v -0.14469333 -0.24996131 0.09974978
v -0.14469476 -0.26326095 0.09662650
v -0.12732829 -0.24098902 0.10849154
v -0.13131233 -0.24991706 0.10288519
v -0.13138442 -0.26327094 0.09973265
v -0.12159561 -0.24322656 0.11218223
v -0.12274686 -0.24985782 0.10848726
v -0.12255130 -0.26322383 0.10696630
v -0.14456986 -0.28432097 0.07959691
v -0.13142510 -0.28431240 0.07962260
v -0.14459698 -0.28529663 0.08902385
v -0.14466478 -0.27484692 0.09641809
v -0.14898856 -0.28230468 0.09480363
v -0.13121812 -0.28534517 0.09063973
v -0.13120027 -0.27489260 0.09957135
v -0.13562611 -0.28235821 0.09640881
v -0.11828676 -0.28430384 0.07964616
v -0.11804410 -0.28541511 0.09218924
v -0.12226937 -0.27491258 0.10690278
v -0.11982842 -0.28314189 0.10301366
v -0.10575082 -0.28489052 0.09215855
v -0.10552456 -0.28498759 0.10520838
v -0.19687910 -0.23649894 0.11858796
v -0.19685340 -0.23647039 0.13115674
v -0.18398272 -0.23657745 0.11861437
v -0.18390849 -0.23661599 0.13128449
v -0.19695618 -0.23803632 0.14040310
v -0.18581843 -0.23818763 0.14056226
v -0.19691407 -0.24164065 0.15805578
v -0.19699972 -0.23980993 0.14922337
v -0.18576776 -0.24313805 0.15966238
v -0.18768697 -0.23983634 0.14915700
v -0.17083511 -0.23657745 0.11861365
v -0.17076016 -0.23655461 0.13143866
v -0.15769106 -0.23657745 0.11861365
v -0.15778456 -0.23653891 0.13139084
v -0.17346377 -0.23761878 0.14630993
v -0.15786521 -0.23634192 0.14449848
v -0.16803372 -0.23941381 0.16331097
v -0.15771961 -0.23598791 0.15748551
v -0.18004721 -0.23896416 0.14793438
v -0.17691109 -0.24140155 0.15541855
v -0.19694191 -0.24896708 0.16928132
v -0.19694833 -0.26041031 0.17678547
v -0.18397487 -0.25051302 0.17101925
v -0.18398557 -0.26042387 0.17676049
v -0.16405539 -0.24327081 0.17205772
v -0.15698804 -0.23937242 0.16766615
v -0.17210840 -0.24679877 0.16915427
v -0.17085081 -0.26191771 0.17845774
v -0.15660833 -0.24845820 0.17341595
v -0.15739772 -0.26339441 0.17848415
v -0.19690908 -0.27478268 0.18027489
v -0.19707323 -0.28533161 0.18731869
v -0.19694976 -0.28229183 0.18171805
v -0.18400556 -0.27478911 0.18020281
v -0.18400627 -0.28529378 0.18726016
v -0.18400841 -0.28209199 0.18149680
v -0.19716745 -0.28556214 0.19720099
v -0.19714889 -0.28544438 0.21018445
v -0.18401769 -0.28556143 0.19720956
v -0.18400556 -0.28544438 0.21018516
v -0.17083653 -0.27468919 0.18014642
v -0.17084867 -0.28517673 0.18724660
v -0.17085438 -0.28206487 0.18155818
v -0.15782381 -0.27471559 0.18017497
v -0.15770748 -0.28510678 0.18718522
v -0.15770462 -0.28186360 0.18149394
v -0.17086936 -0.28556143 0.19720170
v -0.17086151 -0.28544438 0.21018516
v -0.15772104 -0.28544295 0.19718957
v -0.15771319 -0.28544438 0.21017731
v -0.14454702 -0.23657745 0.11861365
v -0.14464266 -0.23660101 0.13123596
v -0.13170417 -0.23647111 0.11861722
v -0.13163779 -0.23655319 0.13123881
v -0.14371909 -0.23851523 0.14510587
v -0.14788941 -0.23799206 0.15738202
v -0.13159282 -0.23984062 0.14037812
v -0.13730052 -0.24092835 0.15146520
v -0.14066219 -0.24862878 0.15888013
v -0.13190187 -0.24969509 0.16018769
v -0.13063571 -0.24322941 0.14912987
v -0.12290459 -0.24092835 0.11856012
v -0.12278897 -0.24111106 0.13131304
v -0.11840096 -0.24981785 0.11855370
v -0.11796559 -0.26317387 0.11860152
v -0.11841024 -0.24991206 0.13139726
v -0.11806979 -0.26316531 0.13147506
v -0.12498083 -0.23993270 0.13770164
v -0.12240070 -0.25214104 0.15779455
v -0.12163701 -0.24734906 0.14472973
v -0.11805052 -0.26320385 0.14454345
v -0.11789278 -0.26334374 0.15738344
v -0.11771578 -0.27487904 0.11859438
v -0.11340414 -0.28237962 0.11851658
v -0.10536612 -0.28492835 0.11838454
v -0.11781427 -0.27487690 0.13147363
v -0.11353047 -0.28234394 0.13146293
v -0.10544677 -0.28489338 0.13146221
v -0.11781427 -0.27487690 0.14462267
v -0.11353118 -0.28234322 0.14461125
v -0.10544748 -0.28489266 0.14460840
v -0.11773291 -0.27490259 0.15755046
v -0.11349835 -0.28235607 0.15768178
v -0.10544748 -0.28489266 0.15775244
v -0.15043600 -0.23724693 0.16390408
v -0.14824342 -0.24379254 0.16761547
v -0.14750257 -0.25617290 0.17163020
v -0.13720345 -0.25896215 0.16479624
v -0.12788500 -0.26076361 0.16822571
v -0.12613850 -0.25514727 0.16695598
v -0.14100478 -0.26267426 0.16700951
v -0.12451620 -0.24978145 0.16374420
v -0.12337708 -0.25785016 0.16593607
v -0.14348856 -0.27221611 0.17545865
v -0.14455701 -0.28499830 0.18718522
v -0.14468477 -0.28193425 0.18154319
v -0.13792717 -0.26721501 0.16865181
v -0.13341212 -0.27256798 0.17068308
v -0.13952093 -0.27045463 0.17106207
v -0.13145936 -0.28489266 0.18719307
v -0.13130591 -0.28213267 0.17989376
v -0.14456986 -0.28532447 0.19717815
v -0.14456914 -0.28544438 0.21016589
v -0.13142653 -0.28520456 0.19717886
v -0.13142438 -0.28544366 0.21015376
v -0.12337851 -0.27135750 0.16767114
v -0.11814259 -0.28512677 0.18555721
v -0.11810548 -0.28190214 0.17313902
v -0.10541608 -0.28490551 0.17082369
v -0.10558523 -0.28484556 0.18397058
v -0.11830603 -0.28532376 0.19717244
v -0.11829319 -0.28532518 0.21016161
v -0.10577722 -0.28477418 0.19717244
v -0.10576152 -0.28483342 0.21023298
f 1 6 2
f 1 4 6
f 2 7 3
f 2 6 7
f 4 8 6
f 4 5 8
f 6 9 7
f 6 8 9
f 10 12 11
f 10 13 12
f 11 15 14
f 11 12 15
f 13 16 12
f 13 17 16
f 12 18 15
f 12 16 18
f 17 19 16
f 17 20 19
f 16 21 18
f 16 19 21
f 19 22 21
f 19 23 22
f 3 7 24
f 14 27 26
f 14 15 27
f 26 28 9
f 26 27 28
f 7 28 24
f 7 9 28
f 15 29 27
f 15 18 29
f 27 30 28
f 27 29 30
f 24 30 25
f 24 28 30
f 18 33 29
f 18 21 33
f 29 34 30
f 29 33 34
f 25 34 31
f 25 30 34
f 21 35 33
f 21 22 35
f 33 36 34
f 33 35 36
f 31 36 32
f 31 34 36
f 23 37 22
f 23 38 37
f 22 41 35
f 22 37 41
f 35 42 36
f 35 41 42
f 32 42 39
f 32 36 42
f 39 43 40
f 39 42 43
f 40 46 44
f 40 43 46
f 44 47 45
f 44 46 47
f 10 49 48
f 10 11 49
f 11 50 49
f 11 14 50
f 48 52 51
f 48 49 52
f 49 53 52
f 49 50 53
f 51 55 54
f 51 52 55
f 52 56 55
f 52 53 56
f 54 58 57
f 54 55 58
f 55 59 58
f 55 56 59
f 5 62 8
f 5 60 62
f 14 63 50
f 14 26 63
f 26 64 63
f 26 9 64
f 8 64 9
f 8 62 64
f 60 65 62
f 60 61 65
f 50 66 53
f 50 63 66
f 63 67 66
f 63 64 67
f 62 67 64
f 62 65 67
f 61 70 65
f 61 68 70
f 53 71 56
f 53 66 71
f 66 72 71
f 66 67 72
f 65 72 67
f 65 70 72
f 68 73 70
f 68 69 73
f 56 74 59
f 56 71 74
f 71 75 74
f 71 72 75
f 70 75 72
f 70 73 75
f 57 77 76
f 57 58 77
f 58 78 77
f 58 59 78
f 76 80 79
f 76 77 80
f 77 81 80
f 77 78 81
f 79 83 82
f 79 80 83
f 80 84 83
f 80 81 84
f 69 87 73
f 69 85 87
f 59 88 78
f 59 74 88
f 74 89 88
f 74 75 89
f 73 89 75
f 73 87 89
f 85 90 87
f 85 86 90
f 78 91 81
f 78 88 91
f 88 92 91
f 88 89 92
f 87 92 89
f 87 90 92
f 86 94 90
f 86 93 94
f 81 95 84
f 81 91 95
f 91 96 95
f 91 92 96
f 90 96 92
f 90 94 96
f 93 97 94
f 94 98 96
f 94 97 98
f 10 99 13
f 10 48 99
f 13 100 17
f 13 99 100
f 48 101 99
f 48 51 101
f 99 102 100
f 99 101 102
f 17 103 20
f 17 100 103
f 100 104 103
f 100 102 104
f 19 105 23
f 19 106 105
f 20 106 19
f 20 103 106
f 106 107 105
f 106 108 107
f 103 108 106
f 103 104 108
f 51 109 101
f 51 54 109
f 101 110 102
f 101 109 110
f 54 111 109
f 54 57 111
f 109 112 110
f 109 111 112
f 102 113 104
f 102 110 113
f 110 114 113
f 110 112 114
f 113 116 115
f 113 114 116
f 113 118 117
f 113 115 118
f 108 118 107
f 108 117 118
f 104 117 108
f 104 113 117
f 23 119 38
f 23 105 119
f 38 120 37
f 38 119 120
f 105 121 119
f 105 107 121
f 119 122 120
f 119 121 122
f 115 124 123
f 115 116 124
f 115 125 118
f 115 123 125
f 107 125 121
f 107 118 125
f 121 126 122
f 121 125 126
f 123 127 125
f 123 124 127
f 125 128 126
f 125 127 128
f 37 129 41
f 37 120 129
f 42 130 43
f 42 131 130
f 41 131 42
f 41 129 131
f 120 132 129
f 120 122 132
f 131 133 130
f 131 134 133
f 129 134 131
f 129 132 134
f 43 135 46
f 43 130 135
f 46 136 47
f 46 135 136
f 130 137 135
f 130 133 137
f 135 138 136
f 135 137 138
f 122 139 132
f 122 126 139
f 134 140 133
f 134 141 140
f 132 141 134
f 132 139 141
f 126 142 139
f 126 128 142
f 141 143 140
f 141 144 143
f 139 144 141
f 139 142 144
f 133 145 137
f 133 140 145
f 137 146 138
f 137 145 146
f 140 147 145
f 140 143 147
f 145 148 146
f 145 147 148
f 57 149 111
f 57 76 149
f 111 150 112
f 111 149 150
f 76 151 149
f 76 79 151
f 149 152 150
f 149 151 152
f 112 153 114
f 112 150 153
f 114 154 116
f 114 153 154
f 150 155 153
f 150 152 155
f 156 158 157
f 156 159 158
f 153 157 154
f 153 156 157
f 153 159 156
f 153 155 159
f 79 160 151
f 79 82 160
f 151 161 152
f 151 160 161
f 82 162 160
f 82 83 162
f 83 163 162
f 83 84 163
f 160 164 161
f 160 162 164
f 162 165 164
f 162 163 165
f 152 166 155
f 152 161 166
f 159 167 158
f 159 168 167
f 155 168 159
f 155 166 168
f 161 168 166
f 161 164 168
f 164 169 168
f 164 165 169
f 168 170 167
f 168 169 170
f 84 171 163
f 84 95 171
f 96 173 172
f 96 98 173
f 95 172 171
f 95 96 172
f 163 174 165
f 163 171 174
f 172 176 175
f 172 173 176
f 171 175 174
f 171 172 175
f 165 177 169
f 165 174 177
f 175 179 178
f 175 176 179
f 174 178 177
f 174 175 178
f 169 180 170
f 169 177 180
f 178 182 181
f 178 179 182
f 177 181 180
f 177 178 181
f 116 183 124
f 116 154 183
f 124 184 127
f 124 183 184
f 127 185 128
f 127 184 185
f 154 184 183
f 154 157 184
f 158 187 186
f 158 188 187
f 157 185 184
f 157 189 185
f 157 186 189
f 157 158 186
f 158 190 188
f 158 167 190
f 188 191 187
f 188 190 191
f 167 191 190
f 167 170 191
f 128 192 142
f 128 185 192
f 144 193 143
f 144 194 193
f 142 194 144
f 142 192 194
f 186 196 195
f 186 187 196
f 197 196 192
f 197 195 196
f 189 192 185
f 189 197 192
f 189 195 197
f 189 186 195
f 194 198 193
f 194 199 198
f 192 199 194
f 192 196 199
f 143 200 147
f 143 193 200
f 147 201 148
f 147 200 201
f 193 202 200
f 193 198 202
f 200 203 201
f 200 202 203
f 187 204 196
f 187 191 204
f 199 205 198
f 199 206 205
f 196 206 199
f 196 204 206
f 170 204 191
f 170 180 204
f 181 207 206
f 181 182 207
f 180 206 204
f 180 181 206
f 206 208 205
f 206 207 208
f 198 209 202
f 198 205 209
f 202 210 203
f 202 209 210
f 205 211 209
f 205 208 211
f 209 212 210
f 209 211 212

