# https://github.com/mikedh/trimesh
v -0.24275373 0.35416679 0.46376816
v 0.24275373 0.35416679 -0.34782653
v -0.24275373 0.35416679 -0.34782653
v 0.24275373 0.35416679 0.46376816
v -0.24275373 0.34692003 -0.34782653
v 0.24275373 0.34692003 0.46376816
v 0.24275373 0.34692003 -0.34782653
v -0.24275373 0.34692003 0.46376816
v 0.24275307 -0.29800767 -0.33333366
v -0.24275373 0.34692003 -0.33333366
v -0.24275373 -0.29800767 -0.33333366
v 0.24275307 0.34692003 -0.33333366
v -0.24275373 -0.29800767 -0.34782653
v 0.24275307 0.34692003 -0.34782653
v 0.24275307 -0.29800767 -0.34782653
v 0.25362322 0.37590576 -0.36956550
v 0.24275373 0.37590576 -0.36956550
v 0.25362322 0.37590576 0.50000000
v 0.24275373 0.37590576 0.50000000
v 0.25362322 -0.22916671 -0.36956550
v 0.24275373 -0.22916671 0.50000000
v 0.25362322 -0.22916671 0.50000000
v 0.24275373 -0.22916671 -0.36956550
v 0.25362322 -0.29800767 0.50000000
v 0.24275373 -0.29800767 0.50000000
v 0.25362322 -0.29800767 -0.36956550
v 0.24275373 -0.29800767 -0.36956550
v -0.25362322 0.37590576 0.50000000
v -0.24275373 0.37590576 -0.36956550
v -0.25362322 0.37590576 -0.36956550
v -0.24275373 0.37590576 0.50000000
v -0.25362322 -0.22916671 -0.36956550
v -0.24275373 -0.22916671 0.50000000
v -0.25362322 -0.22916671 0.50000000
v -0.24275373 -0.22916671 -0.36956550
v -0.24275373 -0.29800767 0.50000000
v -0.25362322 -0.29800767 0.50000000
v -0.25362322 -0.29800767 -0.36956550
v -0.24275373 -0.29800767 -0.36956550
v 0.21739138 -0.31974664 0.50000000
v -0.21739138 -0.31974664 0.45652140
v 0.21739138 -0.31974664 0.45652140
v -0.21739138 -0.31974664 0.50000000
v 0.21739138 -0.29800767 0.45652140
v -0.21739138 -0.29800767 0.50000000
v -0.21739138 -0.29800767 0.45652140
v 0.21739138 -0.29800767 0.50000000
v 0.26086932 -0.29800767 -0.36956550
v 0.21739138 -0.31974664 -0.36956550
v 0.21739138 -0.29800767 -0.36956550
v 0.26086932 -0.31974664 -0.36956550
v 0.26086932 -0.31974664 0.50000000
v 0.26086932 -0.29800767 0.50000000
v -0.21739138 -0.29800767 -0.36956550
v -0.26086932 -0.31974664 -0.36956550
v -0.26086932 -0.29800767 -0.36956550
v -0.21739138 -0.31974664 -0.36956550
v -0.26086932 -0.29800767 0.50000000
v -0.26086932 -0.31974664 0.50000000
v 0.24275307 0.37590576 0.41304345
v -0.24275373 0.37590576 0.41304345
v 0.24275307 0.37590576 0.50000000
v -0.24275373 0.35416679 0.41304345
v 0.24275307 0.35416679 0.50000000
v 0.24275307 0.35416679 0.41304345
v -0.24275373 0.35416679 0.50000000
v 0.24275307 0.35416679 0.46376816
v 0.21739138 -0.31974664 -0.32608690
v -0.21739138 -0.31974664 -0.32608690
v -0.21739138 -0.29800767 -0.32608690
v 0.21739138 -0.29800767 -0.32608690
v 0.24275373 -0.21105112 0.47826037
v 0.15579718 -0.29800767 0.47826037
v 0.24275373 -0.29800767 0.47826037
v 0.15579718 -0.29800767 0.46376816
v 0.24275373 -0.29800767 0.46376816
v 0.24275373 -0.21105112 0.46376816
v -0.15579718 -0.29800767 0.47826037
v -0.24275373 -0.21105112 0.47826037
v -0.24275373 -0.29800767 0.47826037
v -0.24275373 -0.21105112 0.46376816
v -0.24275373 -0.29800767 0.46376816
v -0.15579718 -0.29800767 0.46376816
v 0.15579718 0.35416679 0.47826037
v 0.24275373 0.26721024 0.47826037
v 0.24275373 0.35416679 0.47826037
v 0.24275373 0.26721024 0.46376816
v 0.15579718 0.35416679 0.46376816
v -0.24275373 0.26721024 0.47826037
v -0.15579718 0.35416679 0.47826037
v -0.24275373 0.35416679 0.47826037
v -0.15579718 0.35416679 0.46376816
v -0.24275373 0.26721024 0.46376816
v -0.24275373 0.37590576 -0.50000000
v -0.25362322 0.37590576 -0.50000000
v -0.25362322 -0.22916671 -0.50000000
v -0.24275373 -0.22916671 -0.50000000
v -0.24275373 0.35416679 -0.32971028
v 0.24275307 0.37590576 -0.32971028
v -0.24275373 0.37590576 -0.32971028
v 0.24275307 0.35416679 -0.32971028
v 0.24275307 0.37590576 -0.50000000
v -0.24275373 0.35416679 -0.50000000
v 0.24275307 0.35416679 -0.50000000
v 0.25362322 0.37590576 -0.50000000
v 0.24275373 0.37590576 -0.50000000
v 0.25362322 -0.22916671 -0.50000000
v 0.24275373 -0.22916671 -0.50000000
v 0.24275307 -0.22916671 -0.34782653
v 0.24275307 -0.22916671 -0.50000000
v -0.24275373 -0.22916671 -0.34782653
v 0.24275307 -0.21829722 -0.50000000
v -0.24275373 -0.21829722 -0.34782653
v -0.24275373 -0.21829722 -0.50000000
v 0.24275307 -0.21829722 -0.34782653
v 0.24275307 0.02083346 0.07608674
v -0.24275373 0.34692068 0.07608674
v -0.24275373 0.02083346 0.07608674
v 0.24275307 0.34692068 0.07608674
v -0.24275373 0.02083346 0.05434776
v 0.24275307 0.02083346 0.05434776
v 0.24275307 0.34692068 0.05434776
v -0.24275373 0.34692068 0.05434776
v -0.16666667 -0.32835168 0.40579669
v 0.16666667 -0.32835168 -0.27536285
v -0.16666667 -0.32835168 -0.27536285
v 0.16666667 -0.32835168 0.40579669
v -0.16666667 -0.33288057 -0.27536285
v 0.16666667 -0.33288057 0.40579669
v 0.16666667 -0.33288057 -0.27536285
v -0.16666667 -0.33288057 0.40579669
v -0.16666667 -0.34148561 0.48913051
v -0.24999984 -0.34148561 -0.35869602
v -0.16666667 -0.34148561 -0.35869602
v -0.24999984 -0.34148561 0.48913051
v -0.16666667 -0.31974664 -0.35869602
v -0.24999984 -0.31974664 0.48913051
v -0.24999984 -0.31974664 -0.35869602
v -0.16666667 -0.31974664 0.48913051
v 0.16666667 -0.31974664 0.48913051
v 0.16666667 -0.34148561 0.48913051
v 0.16666667 -0.34148561 0.40579669
v -0.16666667 -0.31974664 0.40579669
v -0.16666667 -0.34148561 0.40579669
v 0.16666667 -0.31974664 0.40579669
v 0.24999984 -0.34148561 0.48913051
v 0.16666667 -0.34148561 -0.35869602
v 0.24999984 -0.34148561 -0.35869602
v 0.24999984 -0.31974664 -0.35869602
v 0.16666667 -0.31974664 -0.35869602
v 0.24999984 -0.31974664 0.48913051
v 0.16666667 -0.31974664 -0.27536285
v -0.16666667 -0.34148561 -0.27536285
v 0.16666667 -0.34148561 -0.27536285
v -0.16666667 -0.31974664 -0.27536285
v 0.20527467 -0.37504559 0.41318145
v 0.20833358 -0.37334692 0.41888857
v 0.20332301 -0.37334692 0.41789237
v 0.20833358 -0.37504559 0.41378994
v 0.20833358 -0.37085379 0.42365009
v 0.20268166 -0.37504559 0.41144861
v 0.20730518 -0.37590576 0.40827996
v 0.21139183 -0.37504559 0.41318145
v 0.20150081 -0.37085379 0.42229115
v 0.21334349 -0.37334692 0.41789237
v 0.19907602 -0.37334692 0.41505425
v 0.20643318 -0.37590576 0.40769709
v 0.20833358 -0.37590576 0.40848432
v 0.20936198 -0.37590576 0.40827996
v 0.20833358 -0.36901516 0.42481057
v 0.21516570 -0.37085379 0.42229115
v 0.20094882 -0.37504559 0.40885560
v 0.20585031 -0.37590576 0.40682509
v 0.20833358 -0.37590576 0.40310971
v 0.20730518 -0.37590576 0.40331407
v 0.21398485 -0.37504559 0.41144861
v 0.21023332 -0.37590576 0.40769709
v 0.20105725 -0.36901516 0.42336358
v 0.21560991 -0.36901516 0.42336358
v 0.19570892 -0.37085379 0.41842135
v 0.21759048 -0.37334692 0.41505425
v 0.19623790 -0.37334692 0.41080726
v 0.20643318 -0.37590576 0.40389694
v 0.20936198 -0.37590576 0.40331407
v 0.21023332 -0.37590576 0.40389694
v 0.20833358 -0.36684074 0.42481057
v 0.21560991 -0.36684074 0.42336358
v 0.22095759 -0.37085379 0.41842135
v 0.22177834 -0.36901516 0.41924144
v 0.20034032 -0.37504559 0.40579669
v 0.20564594 -0.37590576 0.40579669
v 0.20585031 -0.37590576 0.40476829
v 0.20833358 -0.37504559 0.39780409
v 0.21139183 -0.37504559 0.39841259
v 0.20527467 -0.37504559 0.39841259
v 0.21571768 -0.37504559 0.40885560
v 0.21081619 -0.37590576 0.40682509
v 0.21081619 -0.37590576 0.40476829
v 0.20105725 -0.36684074 0.42336358
v 0.19488817 -0.36901516 0.41924144
v 0.22177834 -0.36684074 0.41924144
v 0.19183911 -0.37085379 0.41262946
v 0.22042860 -0.37334692 0.41080726
v 0.19524170 -0.37334692 0.40579669
v 0.20268166 -0.37504559 0.40014542
v 0.21398485 -0.37504559 0.40014542
v 0.20833358 -0.36500211 0.42365009
v 0.21516570 -0.36500211 0.42229115
v 0.19076669 -0.36901516 0.41307302
v 0.22095759 -0.36500211 0.41842135
v 0.22482805 -0.37085379 0.41262946
v 0.22589982 -0.36901516 0.41307302
v 0.19623790 -0.37334692 0.40078677
v 0.20094882 -0.37504559 0.40273843
v 0.20833358 -0.37334692 0.39270481
v 0.21334349 -0.37334692 0.39370166
v 0.20332301 -0.37334692 0.39370166
v 0.21632618 -0.37504559 0.40579669
v 0.21102056 -0.37590576 0.40579669
v 0.21571768 -0.37504559 0.40273843
v 0.20150081 -0.36500211 0.42229115
v 0.19488817 -0.36684074 0.41924144
v 0.19076669 -0.36684074 0.41307302
v 0.22589982 -0.36684074 0.41307302
v 0.18931970 -0.36901516 0.40579669
v 0.19047952 -0.37085379 0.40579669
v 0.22142546 -0.37334692 0.40579669
v 0.19183911 -0.37085379 0.39896457
v 0.19907602 -0.37334692 0.39653978
v 0.21759048 -0.37334692 0.39653978
v 0.20258900 -0.36280600 0.41966529
v 0.20833358 -0.36280600 0.42080803
v 0.21894810 -0.36280600 0.41641121
v 0.18931970 -0.36684074 0.40579669
v 0.22482805 -0.36500211 0.41262946
v 0.22618698 -0.37085379 0.40579669
v 0.22734746 -0.36901516 0.40579669
v 0.19570892 -0.37085379 0.39317268
v 0.20833358 -0.37085379 0.38794329
v 0.21516570 -0.37085379 0.38930222
v 0.20150081 -0.37085379 0.38930222
v 0.22042860 -0.37334692 0.40078677
v 0.19771906 -0.36280600 0.41641121
v 0.19570892 -0.36500211 0.41842135
v 0.21407816 -0.36280600 0.41966529
v 0.22220218 -0.36280600 0.41154126
v 0.19047952 -0.36500211 0.40579669
v 0.22734746 -0.36684074 0.40579669
v 0.19076669 -0.36684074 0.39852035
v 0.22482805 -0.37085379 0.39896457
v 0.19076669 -0.36901516 0.39852035
v 0.22095759 -0.37085379 0.39317268
v 0.20378103 -0.36101994 0.41678643
v 0.19992239 -0.36101994 0.41420787
v 0.20833358 -0.36101994 0.41769194
v 0.19183911 -0.36500211 0.41262946
v 0.21674477 -0.36101994 0.41420787
v 0.21932332 -0.36101994 0.41034924
v 0.19183911 -0.36500211 0.39896457
v 0.22618698 -0.36500211 0.40579669
v 0.22334426 -0.36280600 0.40579669
v 0.22589982 -0.36901516 0.39852035
v 0.19488817 -0.36901516 0.39235193
v 0.20105725 -0.36901516 0.38823045
v 0.20833358 -0.36901516 0.38678281
v 0.19446498 -0.36280600 0.41154126
v 0.19734384 -0.36101994 0.41034924
v 0.21288548 -0.36101994 0.41678643
v 0.22022818 -0.36101994 0.40579669
v 0.19332224 -0.36280600 0.40579669
v 0.22482805 -0.36500211 0.39896457
v 0.19488817 -0.36684074 0.39235193
v 0.19570892 -0.36500211 0.39317268
v 0.22589982 -0.36684074 0.39852035
v 0.21560991 -0.36901516 0.38823045
v 0.20506176 -0.35818707 0.41369532
v 0.20228804 -0.35818707 0.41184223
v 0.20043495 -0.35818707 0.40906851
v 0.20833358 -0.35818707 0.41434653
v 0.21437846 -0.35818707 0.41184223
v 0.21623221 -0.35818707 0.40906851
v 0.21688276 -0.35818707 0.40579669
v 0.19446498 -0.36280600 0.40005211
v 0.22220218 -0.36280600 0.40005211
v 0.22177834 -0.36901516 0.39235193
v 0.20105725 -0.36684074 0.38823045
v 0.20833358 -0.36684074 0.38678281
v 0.19643832 -0.36101994 0.40579669
v 0.19978374 -0.35818707 0.40579669
v 0.21160474 -0.35818707 0.41369532
v 0.21932332 -0.36101994 0.40124479
v 0.22095759 -0.36500211 0.39317268
v 0.19771906 -0.36280600 0.39518216
v 0.22177834 -0.36684074 0.39235193
v 0.21560991 -0.36684074 0.38823045
v 0.20833358 -0.35409385 0.41277469
v 0.20566303 -0.35409385 0.41224373
v 0.20339924 -0.35409385 0.41073103
v 0.20188654 -0.35409385 0.40846724
v 0.21100347 -0.35409385 0.41224373
v 0.21326727 -0.35409385 0.41073103
v 0.21477997 -0.35409385 0.40846724
v 0.21623221 -0.35818707 0.40252552
v 0.19734384 -0.36101994 0.40124479
v 0.21894810 -0.36280600 0.39518216
v 0.20150081 -0.36500211 0.38930222
v 0.20833358 -0.36500211 0.38794329
v 0.20135558 -0.35409385 0.40579669
v 0.21531092 -0.35409385 0.40579669
v 0.21674477 -0.36101994 0.39738550
v 0.21477997 -0.35409385 0.40312679
v 0.21516570 -0.36500211 0.38930222
v 0.19992239 -0.36101994 0.39738550
v 0.20258900 -0.36280600 0.39192809
v 0.20833358 -0.34974960 0.41336413
v 0.21122887 -0.34974960 0.41278783
v 0.20543763 -0.34974960 0.41278783
v 0.20134244 -0.34974960 0.40869263
v 0.20043495 -0.35818707 0.40252552
v 0.20076614 -0.34974960 0.40579669
v 0.20188654 -0.35409385 0.40312679
v 0.21368388 -0.34974960 0.41114765
v 0.21532472 -0.34974960 0.40869263
v 0.21437846 -0.35818707 0.39975180
v 0.21326727 -0.35409385 0.40086300
v 0.21407816 -0.36280600 0.39192809
v 0.20298262 -0.34974960 0.41114765
v 0.21590036 -0.34974960 0.40579669
v 0.21288548 -0.36101994 0.39480695
v 0.21532472 -0.34974960 0.40290074
v 0.20228804 -0.35818707 0.39975180
v 0.20378103 -0.36101994 0.39480695
v 0.20833358 -0.36280600 0.39078535
v 0.20833358 -0.34622348 0.41596962
v 0.21222638 -0.34622348 0.41519553
v 0.21552646 -0.34622348 0.41299022
v 0.20444012 -0.34622348 0.41519553
v 0.19893474 -0.34622348 0.40969015
v 0.19816064 -0.34622348 0.40579669
v 0.20339924 -0.35409385 0.40086300
v 0.20134244 -0.34974960 0.40290074
v 0.21773177 -0.34622348 0.40969015
v 0.21160474 -0.35818707 0.39789806
v 0.21100347 -0.35409385 0.39935030
v 0.21368388 -0.34974960 0.40044573
v 0.20114004 -0.34622348 0.41299022
v 0.21850586 -0.34622348 0.40579669
v 0.20833358 -0.36101994 0.39390143
v 0.21122887 -0.34974960 0.39880555
v 0.21773177 -0.34622348 0.40190389
v 0.20506176 -0.35818707 0.39789806
v 0.20833358 -0.34622348 0.41697108
v 0.21260949 -0.34622348 0.41612076
v 0.21623484 -0.34622348 0.41369795
v 0.20405702 -0.34622348 0.41612076
v 0.20043166 -0.34622348 0.41369795
v 0.19800951 -0.34622348 0.41007325
v 0.19893474 -0.34622348 0.40190389
v 0.20298262 -0.34974960 0.40044573
v 0.21865700 -0.34622348 0.41007325
v 0.20833358 -0.35818707 0.39724751
v 0.20833358 -0.35409385 0.39881935
v 0.20833358 -0.34974960 0.39822991
v 0.21222638 -0.34622348 0.39639850
v 0.21552646 -0.34622348 0.39860381
v 0.20566303 -0.35409385 0.39935030
v 0.19800951 -0.34622348 0.40152078
v 0.21865700 -0.34622348 0.40152078
v 0.20833358 -0.34622348 0.39562441
v 0.21623484 -0.34622348 0.39789543
v 0.20833358 -0.34490923 0.41697108
v 0.21260949 -0.34490923 0.41612076
v 0.21623484 -0.34490923 0.41369795
v 0.20405702 -0.34490923 0.41612076
v 0.19800951 -0.34490923 0.41007325
v 0.19715919 -0.34622348 0.40579669
v 0.20043166 -0.34622348 0.39789543
v 0.20114004 -0.34622348 0.39860381
v 0.20543763 -0.34974960 0.39880555
v 0.21950731 -0.34622348 0.40579669
v 0.20444012 -0.34622348 0.39639850
v 0.21260949 -0.34622348 0.39547327
v 0.21865700 -0.34490923 0.41007325
v 0.20043166 -0.34490923 0.41369795
v 0.19715919 -0.34490923 0.40579669
v 0.19800951 -0.34490923 0.40152078
v 0.20043166 -0.34490923 0.39789543
v 0.21865700 -0.34490923 0.40152078
v 0.21950731 -0.34490923 0.40579669
v 0.20833358 -0.34622348 0.39462295
v 0.21260949 -0.34490923 0.39547327
v 0.20833358 -0.34490923 0.41765909
v 0.21287299 -0.34490923 0.41675620
v 0.21672111 -0.34490923 0.41418487
v 0.20379351 -0.34490923 0.41675620
v 0.19994539 -0.34490923 0.41418487
v 0.19737407 -0.34490923 0.41033610
v 0.20405702 -0.34622348 0.39547327
v 0.21623484 -0.34490923 0.39789543
v 0.20833358 -0.34490923 0.39462295
v 0.21929244 -0.34490923 0.41033610
v 0.19647118 -0.34490923 0.40579669
v 0.19737407 -0.34490923 0.40125728
v 0.19994539 -0.34490923 0.39740916
v 0.20405702 -0.34490923 0.39547327
v 0.21672111 -0.34490923 0.39740916
v 0.21929244 -0.34490923 0.40125728
v 0.21287299 -0.34490923 0.39483717
v 0.20833358 -0.34428365 0.41765909
v 0.21287299 -0.34428365 0.41675620
v 0.21672111 -0.34428365 0.41418487
v 0.20379351 -0.34428365 0.41675620
v 0.19737407 -0.34428365 0.41033610
v 0.19647118 -0.34428365 0.40579669
v 0.20379351 -0.34490923 0.39483717
v 0.22019598 -0.34490923 0.40579669
v 0.20833358 -0.34490923 0.39393429
v 0.21929244 -0.34428365 0.41033610
v 0.19994539 -0.34428365 0.41418487
v 0.19737407 -0.34428365 0.40125728
v 0.19994539 -0.34428365 0.39740916
v 0.21287299 -0.34428365 0.39483717
v 0.21929244 -0.34428365 0.40125728
v 0.22019598 -0.34428365 0.40579669
v 0.20833358 -0.34428365 0.39393429
v 0.20833358 -0.34428365 0.41809345
v 0.21303924 -0.34428365 0.41715770
v 0.21702864 -0.34428365 0.41449175
v 0.20362726 -0.34428365 0.41715770
v 0.19963852 -0.34428365 0.41449175
v 0.19697256 -0.34428365 0.41050301
v 0.19697256 -0.34428365 0.40109102
v 0.20379351 -0.34428365 0.39483717
v 0.21672111 -0.34428365 0.39740916
v 0.21969394 -0.34428365 0.41050301
v 0.19603682 -0.34428365 0.40579669
v 0.19963852 -0.34428365 0.39710162
v 0.20362726 -0.34428365 0.39443633
v 0.21303924 -0.34428365 0.39443633
v 0.21702864 -0.34428365 0.39710162
v 0.21969394 -0.34428365 0.40109102
v 0.20833358 -0.34428365 0.39349993
v 0.20833358 -0.34237470 0.41809345
v 0.21303924 -0.34237470 0.41715770
v 0.21702864 -0.34237470 0.41449175
v 0.20362726 -0.34237470 0.41715770
v 0.19697256 -0.34237470 0.41050301
v 0.19603682 -0.34237470 0.40579669
v 0.19697256 -0.34237470 0.40109102
v 0.19963852 -0.34237470 0.39710162
v 0.22063034 -0.34428365 0.40579669
v 0.21969394 -0.34237470 0.41050301
v 0.19963852 -0.34237470 0.41449175
v 0.20362726 -0.34237470 0.39443633
v 0.21303924 -0.34237470 0.39443633
v 0.20833358 -0.34237470 0.39349993
v 0.21969394 -0.34237470 0.40109102
v 0.22063034 -0.34237470 0.40579669
v 0.20379351 -0.34237470 0.41675620
v 0.20833358 -0.34237470 0.41765909
v 0.21672111 -0.34237470 0.41418487
v 0.21929244 -0.34237470 0.41033610
v 0.19994539 -0.34237470 0.41418487
v 0.19737407 -0.34237470 0.41033610
v 0.19647118 -0.34237470 0.40579669
v 0.19737407 -0.34237470 0.40125728
v 0.21702864 -0.34237470 0.39710162
v 0.21287299 -0.34237470 0.41675620
v 0.22019598 -0.34237470 0.40579669
v 0.19994539 -0.34237470 0.39740916
v 0.20379351 -0.34237470 0.39483717
v 0.21672111 -0.34237470 0.39740916
v 0.21287299 -0.34237470 0.39483717
v 0.21929244 -0.34237470 0.40125728
v 0.20379351 -0.34148561 0.41675620
v 0.20833358 -0.34148561 0.41765909
v 0.21287299 -0.34148561 0.41675620
v 0.21672111 -0.34148561 0.41418487
v 0.21929244 -0.34148561 0.41033610
v 0.19737407 -0.34148561 0.41033610
v 0.19647118 -0.34148561 0.40579669
v 0.19737407 -0.34148561 0.40125728
v 0.19994539 -0.34148561 0.39740916
v 0.20833358 -0.34237470 0.39393429
v 0.19994539 -0.34148561 0.41418487
v 0.22019598 -0.34148561 0.40579669
v 0.20379351 -0.34148561 0.39483717
v 0.21287299 -0.34148561 0.39483717
v 0.21929244 -0.34148561 0.40125728
v 0.20833358 -0.34148561 0.39393429
v 0.21672111 -0.34148561 0.39740916
f 1 2 3
f 2 1 4
f 2 5 3
f 5 1 3
f 1 6 4
f 6 2 4
f 5 2 7
f 1 5 8
f 6 1 8
f 2 6 7
f 6 5 7
f 5 6 8
f 3 2 1
f 4 1 2
f 3 5 2
f 3 1 5
f 4 6 1
f 4 2 6
f 7 2 5
f 8 5 1
f 8 1 6
f 7 6 2
f 7 5 6
f 8 6 5
f 9 10 11
f 10 9 12
f 10 13 11
f 11 13 10
f 13 9 11
f 11 9 13
f 9 14 12
f 12 14 9
f 14 10 12
f 12 10 14
f 13 10 5
f 5 10 13
f 9 13 15
f 15 13 9
f 14 9 15
f 15 9 14
f 10 14 5
f 5 14 10
f 14 13 5
f 5 13 14
f 13 14 15
f 15 14 13
f 11 10 9
f 12 9 10
f 16 17 18
f 19 18 17
f 19 21 18
f 19 17 21
f 22 18 21
f 23 21 17
f 18 17 16
f 17 18 19
f 20 18 16
f 18 21 19
f 21 17 19
f 18 20 22
f 21 18 22
f 17 21 23
f 16 18 20
f 22 20 18
f 24 22 25
f 21 25 22
f 21 23 25
f 20 26 23
f 27 25 23
f 27 23 26
f 25 22 24
f 22 26 24
f 22 25 21
f 26 22 20
f 25 23 21
f 23 26 20
f 23 25 27
f 26 23 27
f 24 26 22
f 20 22 26
f 28 29 30
f 29 28 31
f 28 33 31
f 33 29 31
f 33 28 34
f 29 33 35
f 30 29 28
f 31 28 29
f 30 28 32
f 31 33 28
f 31 29 33
f 34 32 28
f 34 28 33
f 35 33 29
f 32 28 30
f 28 32 34
f 36 34 37
f 34 36 33
f 36 35 33
f 35 36 39
f 35 38 32
f 38 35 39
f 37 34 36
f 33 36 34
f 37 38 34
f 33 35 36
f 32 34 38
f 39 36 35
f 32 38 35
f 39 35 38
f 34 38 37
f 38 34 32
f 40 41 42
f 41 40 43
f 41 44 42
f 40 45 43
f 44 41 46
f 45 40 47
f 42 41 40
f 43 40 41
f 42 44 41
f 43 45 40
f 46 41 44
f 47 40 45
f 46 44 45
f 47 45 44
f 45 44 46
f 44 45 47
f 48 49 50
f 49 48 51
f 47 48 50
f 48 47 53
f 52 47 40
f 47 52 53
f 50 49 48
f 51 48 49
f 50 47 49
f 50 48 47
f 51 52 48
f 51 49 52
f 40 49 47
f 53 47 48
f 53 48 52
f 40 52 49
f 40 47 52
f 53 52 47
f 49 47 50
f 48 52 51
f 52 49 51
f 47 49 40
f 52 48 53
f 49 52 40
f 54 55 56
f 55 54 57
f 58 54 56
f 54 58 45
f 43 58 59
f 58 43 45
f 56 55 54
f 57 54 55
f 56 58 55
f 56 54 58
f 57 43 54
f 57 55 43
f 59 55 58
f 45 58 54
f 45 54 43
f 59 43 55
f 59 58 43
f 45 43 58
f 55 58 56
f 54 43 57
f 43 55 57
f 58 55 59
f 43 54 45
f 55 43 59
f 31 60 61
f 60 31 62
f 60 63 61
f 31 64 62
f 63 60 65
f 64 31 66
f 1 64 66
f 64 1 67
f 61 60 31
f 62 31 60
f 61 63 60
f 62 64 31
f 65 60 63
f 66 31 64
f 66 64 1
f 67 1 64
f 68 57 49
f 57 68 69
f 57 50 49
f 68 70 69
f 50 57 54
f 70 68 71
f 49 57 68
f 69 68 57
f 49 50 57
f 69 70 68
f 54 57 50
f 71 68 70
f 54 50 70
f 71 70 50
f 70 50 54
f 50 70 71
f 72 73 74
f 72 75 73
f 73 76 74
f 76 72 74
f 75 72 77
f 76 73 75
f 72 76 77
f 77 76 75
f 74 73 72
f 73 75 72
f 74 76 73
f 74 72 76
f 77 72 75
f 75 73 76
f 77 76 72
f 75 76 77
f 78 79 80
f 78 81 79
f 79 82 80
f 82 78 80
f 81 78 83
f 82 79 81
f 78 82 83
f 83 82 81
f 80 79 78
f 79 81 78
f 80 82 79
f 80 78 82
f 83 78 81
f 81 79 82
f 83 82 78
f 81 82 83
f 84 85 86
f 84 87 85
f 85 4 86
f 4 84 86
f 87 84 88
f 4 85 87
f 84 4 88
f 88 4 87
f 86 85 84
f 85 87 84
f 86 4 85
f 86 84 4
f 88 84 87
f 87 85 4
f 88 4 84
f 87 4 88
f 89 90 91
f 89 92 90
f 90 1 91
f 1 89 91
f 92 89 93
f 1 90 92
f 89 1 93
f 93 1 92
f 91 90 89
f 90 92 89
f 91 1 90
f 91 89 1
f 93 89 92
f 92 90 1
f 93 1 89
f 92 1 93
f 30 94 95
f 94 30 29
f 94 96 95
f 35 94 29
f 96 94 97
f 94 35 97
f 95 94 30
f 29 30 94
f 95 96 94
f 95 30 96
f 29 35 30
f 29 94 35
f 97 94 96
f 32 96 30
f 32 30 35
f 97 35 94
f 97 96 35
f 32 35 96
f 96 30 95
f 30 35 29
f 30 96 32
f 35 30 32
f 35 96 97
f 96 35 32
f 98 99 100
f 99 98 101
f 102 100 99
f 94 98 100
f 103 101 98
f 104 99 101
f 100 102 94
f 99 104 102
f 98 94 103
f 101 103 104
f 102 103 94
f 103 102 104
f 100 99 98
f 101 98 99
f 99 100 102
f 100 98 94
f 98 101 103
f 101 99 104
f 94 102 100
f 102 104 99
f 103 94 98
f 104 103 101
f 94 103 102
f 104 102 103
f 105 106 16
f 105 107 106
f 17 16 106
f 108 106 107
f 17 106 23
f 108 23 106
f 16 106 105
f 106 107 105
f 106 16 17
f 107 16 105
f 107 106 108
f 16 23 17
f 23 106 17
f 16 107 20
f 106 23 108
f 23 107 108
f 23 16 20
f 107 23 20
f 105 16 107
f 17 23 16
f 20 107 16
f 108 107 23
f 20 16 23
f 20 23 107
f 109 97 110
f 97 109 111
f 110 97 109
f 111 109 97
f 110 112 97
f 110 109 112
f 111 113 109
f 111 97 113
f 114 97 112
f 115 112 109
f 115 109 113
f 114 113 97
f 114 112 113
f 115 113 112
f 97 112 110
f 112 109 110
f 109 113 111
f 113 97 111
f 112 97 114
f 109 112 115
f 113 109 115
f 97 113 114
f 113 112 114
f 112 113 115
f 116 117 118
f 117 116 119
f 120 116 118
f 116 120 121
f 120 122 121
f 122 120 123
f 118 117 116
f 119 116 117
f 118 116 120
f 121 120 116
f 121 122 120
f 123 120 122
f 124 125 126
f 125 124 127
f 125 128 126
f 128 124 126
f 124 129 127
f 129 125 127
f 128 125 130
f 124 128 131
f 129 124 131
f 125 129 130
f 129 128 130
f 128 129 131
f 126 125 124
f 127 124 125
f 126 128 125
f 126 124 128
f 127 129 124
f 127 125 129
f 130 125 128
f 131 128 124
f 131 124 129
f 130 129 125
f 130 128 129
f 131 129 128
f 132 133 134
f 133 132 135
f 133 136 134
f 136 132 134
f 132 137 135
f 137 133 135
f 136 133 138
f 132 136 139
f 137 132 139
f 133 137 138
f 137 136 138
f 136 137 139
f 134 133 132
f 135 132 133
f 134 136 133
f 134 132 136
f 135 137 132
f 135 133 137
f 138 133 136
f 139 136 132
f 139 132 137
f 138 137 133
f 138 136 137
f 139 137 136
f 140 132 141
f 132 140 139
f 132 142 141
f 140 143 139
f 142 132 144
f 143 140 145
f 143 142 144
f 142 143 145
f 141 132 140
f 139 140 132
f 141 142 132
f 139 143 140
f 144 132 142
f 145 140 143
f 144 142 143
f 145 143 142
f 146 147 148
f 147 146 141
f 147 149 148
f 149 146 148
f 146 140 141
f 140 147 141
f 149 147 150
f 146 149 151
f 140 146 151
f 147 140 150
f 140 149 150
f 149 140 151
f 148 147 146
f 141 146 147
f 148 149 147
f 148 146 149
f 141 140 146
f 141 147 140
f 150 147 149
f 151 149 146
f 151 146 140
f 150 140 147
f 150 149 140
f 151 140 149
f 152 153 154
f 153 152 155
f 153 147 154
f 152 136 155
f 147 153 134
f 136 152 150
f 136 147 134
f 147 136 150
f 154 153 152
f 155 152 153
f 154 147 153
f 155 136 152
f 134 153 147
f 150 152 136
f 134 147 136
f 150 136 147
f 156 157 158
f 157 156 159
f 160 158 157
f 158 161 156
f 162 159 156
f 163 157 159
f 158 160 164
f 165 160 157
f 161 158 166
f 167 156 161
f 159 162 168
f 156 167 162
f 157 163 165
f 159 169 163
f 170 164 160
f 164 166 158
f 160 165 171
f 166 172 161
f 161 173 167
f 162 174 168
f 169 159 168
f 167 175 162
f 176 165 163
f 177 163 169
f 164 170 178
f 160 179 170
f 166 164 180
f 181 171 165
f 179 160 171
f 172 166 182
f 173 161 172
f 173 183 167
f 162 175 174
f 168 174 184
f 168 184 169
f 167 183 175
f 165 176 181
f 163 177 176
f 169 185 177
f 186 178 170
f 178 180 164
f 187 170 179
f 180 182 166
f 171 181 188
f 171 189 179
f 182 190 172
f 172 191 173
f 173 192 183
f 175 193 174
f 174 194 184
f 169 184 185
f 183 195 175
f 196 181 176
f 197 176 177
f 177 185 198
f 178 186 199
f 170 187 186
f 180 178 200
f 179 201 187
f 182 180 202
f 203 188 181
f 189 171 188
f 201 179 189
f 190 182 204
f 191 172 190
f 192 173 191
f 192 205 183
f 193 175 195
f 194 174 193
f 194 185 184
f 195 183 205
f 181 196 203
f 176 197 196
f 177 198 197
f 206 198 185
f 207 199 186
f 199 200 178
f 208 186 187
f 209 180 200
f 210 187 201
f 180 209 202
f 202 204 182
f 188 203 211
f 188 212 189
f 212 201 189
f 213 190 204
f 214 191 190
f 191 214 192
f 205 192 214
f 195 215 193
f 193 216 194
f 185 194 206
f 205 217 195
f 218 203 196
f 219 196 197
f 197 198 219
f 198 206 220
f 199 207 221
f 186 208 207
f 200 199 222
f 187 210 208
f 200 223 209
f 224 210 201
f 225 202 209
f 204 202 226
f 227 211 203
f 212 188 211
f 201 212 224
f 190 213 214
f 204 228 213
f 214 229 205
f 215 195 217
f 216 193 215
f 216 206 194
f 217 205 229
f 203 218 227
f 196 219 218
f 220 219 198
f 230 220 206
f 207 231 221
f 221 222 199
f 208 232 207
f 223 200 222
f 233 208 210
f 234 209 223
f 210 224 235
f 202 225 226
f 209 234 225
f 228 204 226
f 211 227 236
f 236 212 211
f 237 224 212
f 229 214 213
f 238 213 228
f 217 239 215
f 215 240 216
f 206 216 230
f 229 241 217
f 218 242 227
f 219 220 218
f 220 230 242
f 231 207 232
f 243 221 231
f 222 221 244
f 232 208 245
f 244 223 222
f 208 233 245
f 210 246 233
f 223 247 234
f 248 235 224
f 246 210 235
f 225 228 226
f 249 225 234
f 227 250 236
f 212 236 237
f 224 237 248
f 213 238 229
f 251 238 228
f 239 217 241
f 240 215 239
f 240 230 216
f 241 229 238
f 242 218 220
f 250 227 242
f 252 242 230
f 232 253 231
f 221 243 244
f 231 254 243
f 245 255 232
f 223 244 256
f 257 245 233
f 258 233 246
f 247 223 256
f 259 234 247
f 235 248 260
f 235 261 246
f 228 225 251
f 225 249 251
f 234 259 249
f 250 237 236
f 262 248 237
f 238 251 263
f 264 239 241
f 265 240 239
f 230 240 252
f 263 241 238
f 242 252 250
f 253 232 255
f 254 231 253
f 266 244 243
f 267 243 254
f 255 245 268
f 244 266 256
f 245 257 268
f 233 258 257
f 246 269 258
f 256 270 247
f 270 259 247
f 248 271 260
f 261 235 260
f 269 246 261
f 272 251 249
f 273 249 259
f 237 250 262
f 248 262 274
f 251 272 263
f 239 264 265
f 241 263 264
f 240 265 275
f 275 252 240
f 252 262 250
f 255 276 253
f 253 277 254
f 243 267 266
f 254 278 267
f 268 279 255
f 270 256 266
f 280 268 257
f 281 257 258
f 282 258 269
f 259 270 283
f 271 248 274
f 271 261 260
f 284 269 261
f 249 273 272
f 283 273 259
f 285 274 262
f 272 264 263
f 286 265 264
f 287 275 265
f 252 275 285
f 262 252 285
f 276 255 279
f 277 253 276
f 278 254 277
f 288 266 267
f 289 267 278
f 279 268 290
f 266 288 270
f 268 280 290
f 257 281 280
f 258 282 281
f 291 282 269
f 288 283 270
f 274 292 271
f 261 271 284
f 269 284 291
f 273 286 272
f 273 283 293
f 274 285 294
f 264 272 286
f 265 286 287
f 275 287 295
f 295 285 275
f 296 276 279
f 297 277 276
f 298 278 277
f 267 289 288
f 299 289 278
f 300 279 290
f 301 290 280
f 281 301 280
f 282 302 281
f 282 291 303
f 283 288 304
f 292 274 294
f 292 284 271
f 305 291 284
f 286 273 306
f 304 293 283
f 293 306 273
f 285 295 294
f 306 287 286
f 307 295 287
f 276 296 297
f 279 300 296
f 277 297 298
f 278 298 299
f 289 304 288
f 289 299 308
f 290 301 300
f 301 281 302
f 302 282 309
f 310 303 291
f 311 282 303
f 294 312 292
f 284 292 305
f 291 305 310
f 293 304 313
f 306 293 314
f 312 294 295
f 287 306 307
f 295 307 312
f 315 297 296
f 316 296 300
f 317 298 297
f 298 318 299
f 304 289 319
f 299 320 308
f 321 289 308
f 322 300 301
f 323 301 302
f 282 311 309
f 309 323 302
f 303 310 324
f 303 325 311
f 312 305 292
f 326 310 305
f 319 313 304
f 313 314 293
f 314 307 306
f 307 326 312
f 297 315 317
f 296 316 315
f 300 322 316
f 298 317 327
f 318 298 327
f 320 299 318
f 289 321 319
f 320 321 308
f 301 323 322
f 311 328 309
f 323 309 328
f 329 324 310
f 325 303 324
f 325 330 311
f 305 312 326
f 310 326 329
f 313 319 331
f 314 313 332
f 307 314 333
f 326 307 333
f 334 317 315
f 335 315 316
f 336 316 322
f 337 327 317
f 327 338 318
f 318 339 320
f 340 319 321
f 321 320 341
f 342 322 323
f 328 311 330
f 328 342 323
f 324 329 343
f 324 344 325
f 330 325 345
f 333 329 326
f 319 340 331
f 331 332 313
f 332 333 314
f 317 334 337
f 315 335 334
f 316 336 335
f 322 342 336
f 327 337 346
f 338 327 346
f 339 318 338
f 339 341 320
f 341 340 321
f 330 347 328
f 342 328 347
f 348 343 329
f 344 324 343
f 349 325 344
f 325 349 345
f 345 350 330
f 329 333 348
f 340 351 331
f 332 331 351
f 333 332 348
f 352 337 334
f 352 334 335
f 353 335 336
f 354 336 342
f 355 346 337
f 356 338 346
f 338 357 339
f 341 339 358
f 340 341 359
f 347 330 350
f 360 342 347
f 343 348 361
f 343 362 344
f 344 363 349
f 364 345 349
f 350 345 365
f 351 340 366
f 351 348 332
f 355 337 352
f 352 335 353
f 353 336 354
f 354 342 360
f 356 346 355
f 357 338 356
f 357 367 339
f 339 367 358
f 358 359 341
f 359 366 340
f 350 368 347
f 360 347 368
f 348 351 361
f 362 343 361
f 363 344 362
f 369 349 363
f 345 364 365
f 349 369 364
f 365 370 350
f 366 361 351
f 371 355 352
f 372 352 353
f 373 353 354
f 360 373 354
f 374 356 355
f 356 375 357
f 367 357 376
f 358 367 377
f 359 358 378
f 366 359 379
f 350 370 368
f 360 368 380
f 361 366 362
f 362 379 363
f 363 381 369
f 364 382 365
f 369 382 364
f 365 382 370
f 355 371 374
f 352 372 371
f 353 373 372
f 373 360 383
f 356 374 384
f 375 356 384
f 385 357 375
f 357 385 376
f 376 386 367
f 367 387 377
f 358 377 378
f 378 379 359
f 379 362 366
f 370 388 368
f 368 389 380
f 380 383 360
f 381 363 379
f 381 390 369
f 369 390 382
f 391 370 382
f 392 374 371
f 392 371 372
f 393 372 373
f 394 373 383
f 395 384 374
f 396 375 384
f 397 385 375
f 386 376 385
f 387 367 386
f 387 398 377
f 378 377 398
f 379 378 381
f 388 370 399
f 389 368 388
f 383 380 389
f 381 398 390
f 400 382 390
f 370 391 399
f 382 400 391
f 395 374 392
f 392 372 393
f 393 373 394
f 394 383 401
f 396 384 395
f 397 375 396
f 385 397 402
f 385 403 386
f 386 404 387
f 398 387 405
f 378 398 381
f 399 406 388
f 388 407 389
f 401 383 389
f 405 390 398
f 390 405 400
f 391 408 399
f 400 408 391
f 409 395 392
f 410 392 393
f 411 393 394
f 401 411 394
f 412 396 395
f 396 413 397
f 397 414 402
f 403 385 402
f 386 403 404
f 387 404 415
f 387 415 405
f 399 408 406
f 388 406 407
f 389 407 416
f 401 389 416
f 405 417 400
f 400 417 408
f 395 409 412
f 392 410 409
f 393 411 410
f 411 401 418
f 396 412 419
f 413 396 419
f 414 397 413
f 420 402 414
f 402 420 403
f 403 421 404
f 421 415 404
f 405 415 417
f 422 406 408
f 406 423 407
f 407 424 416
f 416 418 401
f 425 408 417
f 426 412 409
f 426 409 410
f 427 410 411
f 428 411 418
f 429 419 412
f 430 413 419
f 431 414 413
f 414 432 420
f 421 403 420
f 415 421 433
f 433 417 415
f 406 422 434
f 408 425 422
f 423 406 434
f 424 407 423
f 418 416 424
f 417 433 425
f 429 412 426
f 426 410 427
f 427 411 428
f 428 418 435
f 430 419 429
f 431 413 430
f 414 431 436
f 432 414 436
f 420 432 437
f 420 437 421
f 421 438 433
f 422 439 434
f 425 439 422
f 434 440 423
f 423 441 424
f 435 418 424
f 433 442 425
f 443 429 426
f 444 426 427
f 445 427 428
f 435 445 428
f 446 430 429
f 430 447 431
f 431 448 436
f 436 449 432
f 432 450 437
f 421 437 438
f 433 438 442
f 434 439 440
f 425 442 439
f 423 440 441
f 424 441 451
f 435 424 451
f 429 443 446
f 426 444 443
f 427 445 444
f 445 435 452
f 430 446 453
f 447 430 453
f 448 431 447
f 449 436 448
f 450 432 449
f 450 438 437
f 454 442 438
f 455 440 439
f 456 439 442
f 440 457 441
f 441 458 451
f 451 452 435
f 459 446 443
f 460 443 444
f 461 444 445
f 462 445 452
f 463 453 446
f 464 447 453
f 447 465 448
f 465 449 448
f 449 466 450
f 438 450 454
f 442 454 456
f 440 455 467
f 439 456 455
f 457 440 467
f 458 441 457
f 452 451 458
f 463 446 459
f 459 443 460
f 460 444 468
f 468 444 461
f 461 445 462
f 462 452 469
f 464 453 463
f 465 447 464
f 449 465 466
f 450 466 470
f 450 470 454
f 454 471 456
f 455 472 467
f 456 473 455
f 467 474 457
f 457 469 458
f 469 452 458
f 475 463 459
f 476 459 460
f 477 460 468
f 478 468 461
f 462 478 461
f 469 479 462
f 463 480 464
f 464 481 465
f 465 482 466
f 466 483 470
f 454 470 471
f 456 471 484
f 455 473 472
f 467 472 474
f 456 484 473
f 457 474 469
f 463 475 485
f 459 476 475
f 460 477 476
f 468 478 477
f 478 462 479
f 479 469 486
f 480 463 485
f 481 464 480
f 482 465 481
f 483 466 482
f 483 471 470
f 487 484 471
f 488 472 473
f 472 489 474
f 490 473 484
f 474 486 469
f 471 483 487
f 484 487 490
f 472 488 491
f 473 490 488
f 489 472 491
f 486 474 489
f 158 157 156
f 159 156 157
f 157 158 160
f 156 161 158
f 156 159 162
f 159 157 163
f 164 160 158
f 157 160 165
f 166 158 161
f 161 156 167
f 168 162 159
f 162 167 156
f 165 163 157
f 163 169 159
f 160 164 170
f 158 166 164
f 171 165 160
f 161 172 166
f 167 173 161
f 168 174 162
f 168 159 169
f 162 175 167
f 163 165 176
f 169 163 177
f 178 170 164
f 170 179 160
f 180 164 166
f 165 171 181
f 171 160 179
f 182 166 172
f 172 161 173
f 167 183 173
f 174 175 162
f 184 174 168
f 169 184 168
f 175 183 167
f 181 176 165
f 176 177 163
f 177 185 169
f 170 178 186
f 164 180 178
f 179 170 187
f 166 182 180
f 188 181 171
f 179 189 171
f 172 190 182
f 173 191 172
f 183 192 173
f 174 193 175
f 184 194 174
f 185 184 169
f 175 195 183
f 176 181 196
f 177 176 197
f 198 185 177
f 199 186 178
f 186 187 170
f 200 178 180
f 187 201 179
f 202 180 182
f 181 188 203
f 188 171 189
f 189 179 201
f 204 182 190
f 190 172 191
f 191 173 192
f 183 205 192
f 195 175 193
f 193 174 194
f 184 185 194
f 205 183 195
f 203 196 181
f 196 197 176
f 197 198 177
f 185 198 206
f 186 199 207
f 178 200 199
f 187 186 208
f 200 180 209
f 201 187 210
f 202 209 180
f 182 204 202
f 211 203 188
f 189 212 188
f 189 201 212
f 204 190 213
f 190 191 214
f 192 214 191
f 214 192 205
f 193 215 195
f 194 216 193
f 206 194 185
f 195 217 205
f 196 203 218
f 197 196 219
f 219 198 197
f 220 206 198
f 221 207 199
f 207 208 186
f 222 199 200
f 208 210 187
f 209 223 200
f 201 210 224
f 209 202 225
f 226 202 204
f 203 211 227
f 211 188 212
f 224 212 201
f 214 213 190
f 213 228 204
f 205 229 214
f 217 195 215
f 215 193 216
f 194 206 216
f 229 205 217
f 227 218 203
f 218 219 196
f 198 219 220
f 206 220 230
f 221 231 207
f 199 222 221
f 207 232 208
f 222 200 223
f 210 208 233
f 223 209 234
f 235 224 210
f 226 225 202
f 225 234 209
f 226 204 228
f 236 227 211
f 211 212 236
f 212 224 237
f 213 214 229
f 228 213 238
f 215 239 217
f 216 240 215
f 230 216 206
f 217 241 229
f 227 242 218
f 218 220 219
f 242 230 220
f 232 207 231
f 231 221 243
f 244 221 222
f 245 208 232
f 222 223 244
f 245 233 208
f 233 246 210
f 234 247 223
f 224 235 248
f 235 210 246
f 226 228 225
f 234 225 249
f 236 250 227
f 237 236 212
f 248 237 224
f 229 238 213
f 228 238 251
f 241 217 239
f 239 215 240
f 216 230 240
f 238 229 241
f 220 218 242
f 242 227 250
f 230 242 252
f 231 253 232
f 244 243 221
f 243 254 231
f 232 255 245
f 256 244 223
f 233 245 257
f 246 233 258
f 256 223 247
f 247 234 259
f 260 248 235
f 246 261 235
f 251 225 228
f 251 249 225
f 249 259 234
f 236 237 250
f 237 248 262
f 263 251 238
f 241 239 264
f 239 240 265
f 252 240 230
f 238 241 263
f 250 252 242
f 255 232 253
f 253 231 254
f 243 244 266
f 254 243 267
f 268 245 255
f 256 266 244
f 268 257 245
f 257 258 233
f 258 269 246
f 247 270 256
f 247 259 270
f 260 271 248
f 260 235 261
f 261 246 269
f 249 251 272
f 259 249 273
f 262 250 237
f 274 262 248
f 263 272 251
f 265 264 239
f 264 263 241
f 275 265 240
f 240 252 275
f 250 262 252
f 253 276 255
f 254 277 253
f 266 267 243
f 267 278 254
f 255 279 268
f 266 256 270
f 257 268 280
f 258 257 281
f 269 258 282
f 283 270 259
f 274 248 271
f 260 261 271
f 261 269 284
f 272 273 249
f 259 273 283
f 262 274 285
f 263 264 272
f 264 265 286
f 265 275 287
f 285 275 252
f 285 252 262
f 279 255 276
f 276 253 277
f 277 254 278
f 267 266 288
f 278 267 289
f 290 268 279
f 270 288 266
f 290 280 268
f 280 281 257
f 281 282 258
f 269 282 291
f 270 283 288
f 271 292 274
f 284 271 261
f 291 284 269
f 272 286 273
f 293 283 273
f 294 285 274
f 286 272 264
f 287 286 265
f 295 287 275
f 275 285 295
f 279 276 296
f 276 277 297
f 277 278 298
f 288 289 267
f 278 289 299
f 290 279 300
f 280 290 301
f 280 301 281
f 281 302 282
f 303 291 282
f 304 288 283
f 294 274 292
f 271 284 292
f 284 291 305
f 306 273 286
f 283 293 304
f 273 306 293
f 294 295 285
f 286 287 306
f 287 295 307
f 297 296 276
f 296 300 279
f 298 297 277
f 299 298 278
f 288 304 289
f 308 299 289
f 300 301 290
f 302 281 301
f 309 282 302
f 291 303 310
f 303 282 311
f 292 312 294
f 305 292 284
f 310 305 291
f 313 304 293
f 314 293 306
f 295 294 312
f 307 306 287
f 312 307 295
f 296 297 315
f 300 296 316
f 297 298 317
f 299 318 298
f 319 289 304
f 308 320 299
f 308 289 321
f 301 300 322
f 302 301 323
f 309 311 282
f 302 323 309
f 324 310 303
f 311 325 303
f 292 305 312
f 305 310 326
f 304 313 319
f 293 314 313
f 306 307 314
f 312 326 307
f 317 315 297
f 315 316 296
f 316 322 300
f 327 317 298
f 327 298 318
f 318 299 320
f 319 321 289
f 308 321 320
f 322 323 301
f 309 328 311
f 328 309 323
f 310 324 329
f 324 303 325
f 311 330 325
f 326 312 305
f 329 326 310
f 331 319 313
f 332 313 314
f 333 314 307
f 333 307 326
f 315 317 334
f 316 315 335
f 322 316 336
f 317 327 337
f 318 338 327
f 320 339 318
f 321 319 340
f 341 320 321
f 323 322 342
f 330 311 328
f 323 342 328
f 343 329 324
f 325 344 324
f 345 325 330
f 326 329 333
f 331 340 319
f 313 332 331
f 314 333 332
f 337 334 317
f 334 335 315
f 335 336 316
f 336 342 322
f 346 337 327
f 346 327 338
f 338 318 339
f 320 341 339
f 321 340 341
f 328 347 330
f 347 328 342
f 329 343 348
f 343 324 344
f 344 325 349
f 345 349 325
f 330 350 345
f 348 333 329
f 331 351 340
f 351 331 332
f 348 332 333
f 334 337 352
f 335 334 352
f 336 335 353
f 342 336 354
f 337 346 355
f 346 338 356
f 339 357 338
f 358 339 341
f 359 341 340
f 350 330 347
f 347 342 360
f 361 348 343
f 344 362 343
f 349 363 344
f 349 345 364
f 365 345 350
f 366 340 351
f 332 348 351
f 352 337 355
f 353 335 352
f 354 336 353
f 360 342 354
f 355 346 356
f 356 338 357
f 339 367 357
f 358 367 339
f 341 359 358
f 340 366 359
f 347 368 350
f 368 347 360
f 361 351 348
f 361 343 362
f 362 344 363
f 363 349 369
f 365 364 345
f 364 369 349
f 350 370 365
f 351 361 366
f 352 355 371
f 353 352 372
f 354 353 373
f 354 373 360
f 355 356 374
f 357 375 356
f 376 357 367
f 377 367 358
f 378 358 359
f 379 359 366
f 368 370 350
f 380 368 360
f 362 366 361
f 363 379 362
f 369 381 363
f 365 382 364
f 364 382 369
f 370 382 365
f 374 371 355
f 371 372 352
f 372 373 353
f 383 360 373
f 384 374 356
f 384 356 375
f 375 357 385
f 376 385 357
f 367 386 376
f 377 387 367
f 378 377 358
f 359 379 378
f 366 362 379
f 368 388 370
f 380 389 368
f 360 383 380
f 379 363 381
f 369 390 381
f 382 390 369
f 382 370 391
f 371 374 392
f 372 371 392
f 373 372 393
f 383 373 394
f 374 384 395
f 384 375 396
f 375 385 397
f 385 376 386
f 386 367 387
f 377 398 387
f 398 377 378
f 381 378 379
f 399 370 388
f 388 368 389
f 389 380 383
f 390 398 381
f 390 382 400
f 399 391 370
f 391 400 382
f 392 374 395
f 393 372 392
f 394 373 393
f 401 383 394
f 395 384 396
f 396 375 397
f 402 397 385
f 386 403 385
f 387 404 386
f 405 387 398
f 381 398 378
f 388 406 399
f 389 407 388
f 389 383 401
f 398 390 405
f 400 405 390
f 399 408 391
f 391 408 400
f 392 395 409
f 393 392 410
f 394 393 411
f 394 411 401
f 395 396 412
f 397 413 396
f 402 414 397
f 402 385 403
f 404 403 386
f 415 404 387
f 405 415 387
f 406 408 399
f 407 406 388
f 416 407 389
f 416 389 401
f 400 417 405
f 408 417 400
f 412 409 395
f 409 410 392
f 410 411 393
f 418 401 411
f 419 412 396
f 419 396 413
f 413 397 414
f 414 402 420
f 403 420 402
f 404 421 403
f 404 415 421
f 417 415 405
f 408 406 422
f 407 423 406
f 416 424 407
f 401 418 416
f 417 408 425
f 409 412 426
f 410 409 426
f 411 410 427
f 418 411 428
f 412 419 429
f 419 413 430
f 413 414 431
f 420 432 414
f 420 403 421
f 433 421 415
f 415 417 433
f 434 422 406
f 422 425 408
f 434 406 423
f 423 407 424
f 424 416 418
f 425 433 417
f 426 412 429
f 427 410 426
f 428 411 427
f 435 418 428
f 429 419 430
f 430 413 431
f 436 431 414
f 436 414 432
f 437 432 420
f 421 437 420
f 433 438 421
f 434 439 422
f 422 439 425
f 423 440 434
f 424 441 423
f 424 418 435
f 425 442 433
f 426 429 443
f 427 426 444
f 428 427 445
f 428 445 435
f 429 430 446
f 431 447 430
f 436 448 431
f 432 449 436
f 437 450 432
f 438 437 421
f 442 438 433
f 440 439 434
f 439 442 425
f 441 440 423
f 451 441 424
f 451 424 435
f 446 443 429
f 443 444 426
f 444 445 427
f 452 435 445
f 453 446 430
f 453 430 447
f 447 431 448
f 448 436 449
f 449 432 450
f 437 438 450
f 438 442 454
f 439 440 455
f 442 439 456
f 441 457 440
f 451 458 441
f 435 452 451
f 443 446 459
f 444 443 460
f 445 444 461
f 452 445 462
f 446 453 463
f 453 447 464
f 448 465 447
f 448 449 465
f 450 466 449
f 454 450 438
f 456 454 442
f 467 455 440
f 455 456 439
f 467 440 457
f 457 441 458
f 458 451 452
f 459 446 463
f 460 443 459
f 468 444 460
f 461 444 468
f 462 445 461
f 469 452 462
f 463 453 464
f 464 447 465
f 466 465 449
f 470 466 450
f 454 470 450
f 456 471 454
f 467 472 455
f 455 473 456
f 457 474 467
f 458 469 457
f 458 452 469
f 459 463 475
f 460 459 476
f 468 460 477
f 461 468 478
f 461 478 462
f 462 479 469
f 464 480 463
f 465 481 464
f 466 482 465
f 470 483 466
f 471 470 454
f 484 471 456
f 472 473 455
f 474 472 467
f 473 484 456
f 469 474 457
f 485 475 463
f 475 476 459
f 476 477 460
f 477 478 468
f 479 462 478
f 486 469 479
f 485 463 480
f 480 464 481
f 481 465 482
f 482 466 483
f 470 471 483
f 471 484 487
f 473 472 488
f 474 489 472
f 484 473 490
f 469 486 474
f 475 485 483
f 476 475 487
f 477 476 490
f 478 477 488
f 479 478 491
f 486 479 489
f 485 480 482
f 481 482 480
f 483 485 482
f 487 483 471
f 490 487 484
f 491 488 472
f 488 490 473
f 491 472 489
f 489 474 486
f 487 475 483
f 490 476 487
f 488 477 490
f 491 478 488
f 489 479 491
f 483 485 475
f 487 475 476
f 490 476 477
f 488 477 478
f 491 478 479
f 489 479 486
f 482 480 485
f 480 482 481
f 482 485 483
f 483 475 487
f 487 476 490
f 490 477 488
f 488 478 491
f 491 479 489

