# https://github.com/mikedh/trimesh
v 0.50000000 0.26923087 0.09615369
v 0.50000000 -0.26923087 0.11153850
v 0.50000000 -0.26923087 0.09615369
v 0.50000000 0.26923087 0.11153850
v -0.50000000 -0.26923087 0.09615369
v -0.50000000 0.26923087 0.11153850
v -0.50000000 -0.26923087 0.11153850
v -0.50000000 0.26923087 0.09615369
v -0.22193235 -0.01253486 0.01370912
v -0.22500723 -0.01273290 0.01369541
v -0.22194552 -0.01284152 0.01369541
v -0.22499790 -0.01242514 0.01370912
v -0.22498912 -0.01212396 0.01454683
v -0.22196362 -0.01327436 0.01273921
v -0.21886954 -0.01268462 0.01370912
v -0.22806839 -0.01266378 0.01369541
v -0.22192028 -0.01223313 0.01454683
v -0.22805906 -0.01205538 0.01454683
v -0.22501930 -0.01316519 0.01273921
v -0.21891014 -0.01342358 0.01273921
v -0.21888600 -0.01299074 0.01369541
v -0.22806400 -0.01235711 0.01370912
v 0.34941276 0.06892992 0.01454683
v -0.22197569 -0.01355634 0.01178246
v -0.21892550 -0.01370556 0.01178246
v -0.21580783 -0.01287444 0.01370912
v -0.21585830 -0.01361285 0.01273921
v -0.21885254 -0.01238290 0.01454683
v -0.23101874 -0.01202741 0.01454683
v -0.23103410 -0.01263635 0.01369541
v -0.22807552 -0.01309717 0.01273921
v -0.22502753 -0.01344772 0.01178246
v -0.21587750 -0.01389373 0.01178246
v -0.21582923 -0.01318055 0.01369541
v -0.23102642 -0.01232913 0.01370912
v -0.21578698 -0.01257326 0.01454683
v -0.24399905 -0.01147552 0.01454683
v -0.22200257 -0.01418009 0.01112634
v -0.22504563 -0.01407147 0.01112634
v -0.21896006 -0.01432821 0.01112634
v -0.21593236 -0.01468974 0.01056238
v -0.21896994 -0.01450157 0.01056238
v -0.21592084 -0.01451748 0.01112634
v -0.21274941 -0.01310485 0.01370912
v -0.21281031 -0.01384216 0.01273921
v -0.21283335 -0.01412304 0.01178246
v -0.24401002 -0.01208446 0.01369541
v -0.23104562 -0.01306919 0.01273921
v -0.22807991 -0.01337860 0.01178246
v -0.21272473 -0.01280367 0.01454683
v -0.36885607 -0.00967558 0.01454683
v -0.22200915 -0.01435290 0.01056238
v -0.22505057 -0.01424538 0.01056238
v -0.21896774 -0.01446920 0.01024310
v -0.22200751 -0.01432053 0.01024310
v -0.21593017 -0.01465792 0.01024310
v -0.21895403 -0.01421630 0.00928141
v -0.21289753 -0.01491850 0.01056238
v -0.21288382 -0.01474624 0.01112634
v -0.21277465 -0.01341096 0.01369541
v -0.24400454 -0.01177670 0.01370912
v -0.20966521 -0.01307467 0.01454683
v 0.22076275 0.05924556 0.01454683
v -0.25705288 -0.01157152 0.01454683
v -0.22504947 -0.01421246 0.01024310
v -0.22808979 -0.01400399 0.01112634
v -0.22199708 -0.01406763 0.00928141
v -0.21591316 -0.01440557 0.00928141
v -0.21289534 -0.01488614 0.01024310
v -0.20969483 -0.01337476 0.01370912
v -0.20976450 -0.01411152 0.01273921
v -0.20979084 -0.01439240 0.01178246
v -0.20985009 -0.01501451 0.01112634
v -0.25705233 -0.01187325 0.01370912
v -0.24401716 -0.01251785 0.01273921
v -0.23105220 -0.01335171 0.01178246
v -0.20661008 -0.01338518 0.01454683
v -0.20917476 -0.01312460 0.01454683
v 0.25320393 0.06245978 0.01454683
v 0.18822007 0.05731450 0.01454683
v -0.36885607 -0.02695633 0.01454683
v -0.22809308 -0.01417680 0.01056238
v -0.22504234 -0.01395901 0.00928141
v -0.21594608 -0.01488998 0.00714134
v -0.21898091 -0.01470236 0.00714134
v -0.20986709 -0.01518677 0.01056238
v -0.21287449 -0.01463378 0.00928141
v -0.20972336 -0.01368087 0.01369541
v -0.25705069 -0.01217992 0.01369541
v -0.25704904 -0.01261331 0.01273921
v -0.20355934 -0.01373628 0.01454683
v -0.20664300 -0.01368526 0.01370912
v -0.20920494 -0.01342468 0.01370912
v 0.25320393 0.06245978 0.00012371
v 0.22076275 0.05924556 0.00012371
v 0.18822007 0.05731450 0.00012371
v 0.15562582 0.05667100 0.01454683
v -0.36885607 -0.00967558 0.00012371
v -0.22809253 -0.01414444 0.01024310
v -0.23106866 -0.01397602 0.01112634
v -0.22808869 -0.01389098 0.00928141
v -0.22201793 -0.01455369 0.00714134
v -0.21291454 -0.01511819 0.00714134
v -0.20986380 -0.01515440 0.01024310
v -0.20928009 -0.01416089 0.01273921
v -0.20923621 -0.01372970 0.01369541
v -0.20672309 -0.01442148 0.01273921
v -0.20930862 -0.01444177 0.01178246
v -0.20675326 -0.01470126 0.01178246
v -0.20938927 -0.01523559 0.01056238
v -0.20937171 -0.01506278 0.01112634
v -0.20683939 -0.01549453 0.01056238
v -0.20682074 -0.01532227 0.01112634
v -0.36885607 -0.02725751 0.01370912
v -0.36885607 -0.02756472 0.01369541
v -0.25704849 -0.01289528 0.01178246
v -0.24402209 -0.01279928 0.01178246
v -0.20051299 -0.01412743 0.01454683
v -0.20359610 -0.01403636 0.01370912
v -0.20667646 -0.01399083 0.01369541
v 0.34941276 0.06892992 0.00012371
v 0.15562582 0.05667100 0.00012371
v 0.12303212 0.05731450 0.01454683
v -0.36885607 0.06892992 0.00012371
v -0.23107305 -0.01414937 0.01056238
v -0.22505605 -0.01444561 0.00714134
v -0.21595376 -0.01499915 0.00504790
v -0.21292332 -0.01522791 0.00504790
v -0.21898694 -0.01481153 0.00504790
v -0.20983911 -0.01490205 0.00928141
v -0.20988520 -0.01538591 0.00714134
v -0.20938597 -0.01520322 0.01024310
v -0.36885607 -0.02799757 0.01273921
v -0.19759392 -0.01454162 0.01454683
v -0.20055414 -0.01442696 0.01370912
v -0.20368552 -0.01477093 0.01273921
v -0.20363285 -0.01434083 0.01369541
v 0.34941276 -0.07727460 0.01370912
v 0.12303212 0.05731450 0.00012371
v -0.36885607 0.06892992 0.01454683
v -0.23107250 -0.01411701 0.01024310
v -0.24403306 -0.01342468 0.01112634
v -0.23106646 -0.01386301 0.00928141
v -0.22809637 -0.01437704 0.00714134
v -0.22202232 -0.01466286 0.00504790
v -0.20989617 -0.01549563 0.00504790
v -0.20936019 -0.01495087 0.00928141
v -0.20683555 -0.01546216 0.01024310
v -0.20371953 -0.01505071 0.01178246
v -0.20379469 -0.01567063 0.01112634
v -0.20381608 -0.01584289 0.01056238
v -0.25704630 -0.01352013 0.01112634
v -0.36885607 -0.02828009 0.01178246
v -0.19435227 -0.01504358 0.01454683
v -0.19747322 -0.01455917 0.01454683
v -0.19763616 -0.01484060 0.01370912
v -0.20065288 -0.01515989 0.01273921
v -0.20059473 -0.01473088 0.01369541
v 0.34941276 -0.07697232 0.01454683
v 0.34941276 -0.07758126 0.01369541
v 0.34941276 -0.07801466 0.01273921
v 0.09048999 0.05924556 0.01454683
v 0.09048999 0.05924556 0.00012371
v -0.28060408 0.07428914 0.01454683
v -0.24403636 -0.01359749 0.01056238
v -0.22505934 -0.01455478 0.00504790
v -0.21600642 -0.01576828 0.00317280
v -0.21298641 -0.01599540 0.00317280
v -0.20996913 -0.01626201 0.00317280
v -0.21902918 -0.01558066 0.00317280
v -0.20940901 -0.01543473 0.00714134
v -0.20686079 -0.01569367 0.00714134
v -0.20680867 -0.01521090 0.00928141
v -0.20942108 -0.01554390 0.00504790
v -0.20687231 -0.01580284 0.00504790
v -0.25704520 -0.01369294 0.01056238
v -0.36885607 -0.02890439 0.01112634
v -0.18271162 -0.01744095 0.01454683
v -0.19440603 -0.01534092 0.01370912
v -0.19751711 -0.01485761 0.01370912
v -0.19767950 -0.01514452 0.01369541
v -0.19773984 -0.01557298 0.01273921
v -0.20069074 -0.01543912 0.01178246
v -0.09915450 -0.07697232 0.01454683
v -0.09947488 -0.07758126 0.01369541
v 0.34941276 -0.07829608 0.01178246
v -0.24407476 -0.01575621 0.00012371
v 0.05804825 0.06245978 0.01454683
v -0.36885607 -0.02907775 0.01056238
v -0.28060408 0.07428914 0.00012371
v -0.00632723 0.07271906 0.01454683
v 0.05804825 0.06245978 0.00012371
v -0.24403526 -0.01356512 0.01024310
v -0.24403142 -0.01331167 0.00928141
v -0.23107853 -0.01434906 0.00714134
v -0.22809747 -0.01448676 0.00504790
v -0.22205469 -0.01543309 0.00317280
v -0.20949844 -0.01631084 0.00317280
v -0.20695570 -0.01656923 0.00317280
v -0.20381224 -0.01581052 0.01024310
v -0.20077467 -0.01605848 0.01112634
v -0.20079771 -0.01623074 0.01056238
v -0.25704520 -0.01366057 0.01024310
v -0.17123336 -0.02084224 0.01454683
v -0.18278568 -0.01773390 0.01370912
v -0.19756210 -0.01516153 0.01369541
v -0.19453769 -0.01606946 0.01273921
v -0.19446089 -0.01564320 0.01369541
v -0.19762628 -0.01558944 0.01273921
v -0.19777934 -0.01585221 0.01178246
v -0.10439249 -0.06936715 0.01454683
v -0.09931415 -0.07727460 0.01370912
v -0.09970255 -0.07801466 0.01273921
v 0.34941276 -0.07892093 0.01112634
v 0.34941276 -0.07909484 0.01056238
v -0.23112900 -0.01630700 0.00012371
v -0.25703752 -0.01585166 0.00012371
v 0.02575902 0.06695387 0.01454683
v -0.36885607 -0.02904538 0.01024310
v -0.17760255 0.08080865 0.01454683
v -0.00632723 0.07271906 0.00012371
v -0.01584097 0.07450310 0.01454683
v 0.02575902 0.06695387 0.00012371
v -0.22508184 -0.01532556 0.00317280
v -0.21600917 -0.01580942 0.00099982
v -0.21298915 -0.01603599 0.00099982
v -0.20997297 -0.01630316 0.00099982
v -0.20950337 -0.01635143 0.00099982
v -0.20696008 -0.01660982 0.00099982
v -0.21903138 -0.01562125 0.00099982
v -0.20385339 -0.01615065 0.00504790
v -0.20384022 -0.01604148 0.00714134
v -0.20378152 -0.01555926 0.00928141
v -0.20394720 -0.01691539 0.00317280
v -0.20079332 -0.01619838 0.01024310
v -0.25704685 -0.01340767 0.00928141
v -0.16008535 -0.02520522 0.01454683
v -0.17133156 -0.02112860 0.01370912
v -0.18286029 -0.01803233 0.01369541
v -0.18296562 -0.01845310 0.01273921
v -0.19458761 -0.01634705 0.01178246
v -0.19766798 -0.01586867 0.01178246
v -0.19786712 -0.01647048 0.01112634
v -0.19789180 -0.01664219 0.01056238
v -0.11199383 -0.06011783 0.01454683
v -0.10463333 -0.06954818 0.01370912
v -0.10487855 -0.06973306 0.01369541
v -0.10522526 -0.06999364 0.01273921
v -0.09985067 -0.07829608 0.01178246
v -0.10017928 -0.07892093 0.01112634
v 0.34941276 -0.07906138 0.01024310
v 0.34941276 -0.07880847 0.00928141
v -0.22812709 -0.01633443 0.00012371
v -0.23110212 -0.01527070 0.00099982
v -0.24407256 -0.01563716 0.00057685
v -0.23112626 -0.01618740 0.00057685
v -0.36885607 -0.03123593 0.00012371
v -0.25704136 -0.01481482 0.00099982
v -0.25703752 -0.01573207 0.00057685
v -0.17760255 0.08080865 0.00012371
v -0.01584097 0.07450310 0.00012371
v -0.24404020 -0.01379827 0.00714134
v -0.23108182 -0.01445933 0.00504790
v -0.22811008 -0.01525754 0.00317280
v -0.22205688 -0.01547368 0.00099982
v -0.20395159 -0.01695599 0.00099982
v -0.36885607 -0.02879248 0.00928141
v -0.14934714 -0.03049916 0.01454683
v -0.16020714 -0.02548226 0.01370912
v -0.17143140 -0.02141936 0.01369541
v -0.17157184 -0.02182916 0.01273921
v -0.18303364 -0.01872630 0.01178246
v -0.19775904 -0.01648639 0.01112634
v -0.19469953 -0.01696147 0.01112634
v -0.19473025 -0.01713209 0.01056238
v -0.19778483 -0.01665755 0.01056238
v -0.20075931 -0.01594712 0.00928141
v -0.19788687 -0.01661092 0.01024310
v -0.12035333 -0.05154767 0.01454683
v -0.10545073 -0.07016371 0.01178246
v -0.10026980 -0.07909484 0.01056238
v -0.10012003 -0.07880847 0.00928141
v 0.34941276 -0.07929453 0.00714134
v -0.22511311 -0.01640245 0.00012371
v -0.22811063 -0.01529868 0.00099982
v -0.22812544 -0.01621538 0.00057685
v -0.24405611 -0.01471936 0.00099982
v -0.36885607 -0.03019908 0.00099982
v -0.36885607 -0.03111688 0.00057685
v -0.14972677 0.08173852 0.01454683
v -0.02539640 0.07605617 0.01454683
v -0.02539640 0.07605617 0.00012371
v -0.25704465 -0.01389373 0.00714134
v -0.22508293 -0.01536616 0.00099982
v -0.21908240 -0.01653741 0.00057685
v -0.21607225 -0.01672393 0.00057685
v -0.21306485 -0.01695050 0.00057685
v -0.21006020 -0.01721602 0.00057685
v -0.20705938 -0.01752159 0.00057685
v -0.22209528 -0.01639093 0.00057685
v -0.20083941 -0.01653741 0.00504790
v -0.20094254 -0.01730160 0.00317280
v -0.20082459 -0.01642934 0.00714134
v -0.20094748 -0.01734220 0.00099982
v -0.36885607 -0.02927854 0.00714134
v -0.13909719 -0.03668457 0.01454683
v -0.14949252 -0.03076468 0.01370912
v -0.16050612 -0.02615977 0.01273921
v -0.16033057 -0.02576314 0.01369541
v -0.17166401 -0.02209633 0.01178246
v -0.18322840 -0.01950147 0.01056238
v -0.18318615 -0.01933305 0.01112634
v -0.19777989 -0.01662518 0.01024310
v -0.19472366 -0.01709972 0.01024310
v -0.19785176 -0.01636021 0.00928141
v -0.12940954 -0.04371757 0.01454683
v -0.12056015 -0.05176766 0.01370912
v -0.11221876 -0.06031971 0.01370912
v -0.11244752 -0.06052434 0.01369541
v -0.11277064 -0.06081399 0.01273921
v -0.10594996 -0.07054004 0.01112634
v -0.10025334 -0.07906138 0.01024310
v 0.34941276 -0.07940480 0.00504790
v -0.22210022 -0.01650998 0.00012371
v -0.22510982 -0.01628286 0.00057685
v -0.24405556 -0.01467822 0.00317280
v -0.23110157 -0.01522901 0.00317280
v -0.36885607 -0.03015848 0.00317280
v -0.14972677 0.08173852 0.00012371
v -0.09395327 0.08133256 0.01454683
v -0.03498530 0.07737609 0.01454683
v -0.25704465 -0.01400290 0.00504790
v -0.24404184 -0.01390744 0.00504790
v -0.20959554 -0.01726375 0.00057685
v -0.20406240 -0.01786666 0.00057685
v -0.36885607 -0.02938771 0.00504790
v -0.13926396 -0.03693693 0.01370912
v -0.14984801 -0.03141477 0.01273921
v -0.14964009 -0.03103404 0.01369541
v -0.16062023 -0.02641761 0.01178246
v -0.17186644 -0.02268771 0.01112634
v -0.19467923 -0.01685066 0.00928141
v -0.18322017 -0.01947020 0.01024310
v -0.17192294 -0.02285174 0.01056238
v -0.19774258 -0.01637557 0.00928141
v -0.19791978 -0.01684078 0.00714134
v -0.11298075 -0.06100216 0.01178246
v -0.10608875 -0.07064482 0.01056238
v -0.10606242 -0.07062453 0.01024310
v -0.11344596 -0.06141910 0.01112634
v -0.10585999 -0.07047202 0.00928141
v -0.10037568 -0.07929453 0.00714134
v 0.34941276 -0.08017557 0.00317280
v -0.21908953 -0.01665700 0.00012371
v -0.25704136 -0.01477367 0.00317280
v -0.12183783 0.08191297 0.01454683
v -0.09395327 0.08133256 0.00012371
v -0.06870911 0.08012236 0.01454683
v -0.09543228 0.08136328 0.01454683
v -0.03498530 0.07737609 0.00012371
v -0.04460492 0.07846231 0.01454683
v -0.21607993 -0.01684298 0.00012371
v -0.21307363 -0.01706900 0.00012371
v -0.21007062 -0.01733561 0.00012371
v -0.20960761 -0.01738225 0.00012371
v -0.20707145 -0.01764063 0.00012371
v -0.20407722 -0.01798515 0.00012371
v -0.19793569 -0.01694940 0.00504790
v -0.19804322 -0.01771250 0.00317280
v -0.19804925 -0.01775310 0.00099982
v -0.20107091 -0.01825067 0.00057685
v -0.12959716 -0.04395456 0.01370912
v -0.13967376 -0.03755355 0.01273921
v -0.13943403 -0.03719312 0.01369541
v -0.14998297 -0.03166164 0.01178246
v -0.16087258 -0.02698980 0.01112634
v -0.18315872 -0.01922388 0.00928141
v -0.17191252 -0.02282047 0.01024310
v -0.19476536 -0.01732903 0.00714134
v -0.19781390 -0.01685614 0.00714134
v -0.12077081 -0.05199148 0.01369541
v -0.12106760 -0.05230693 0.01273921
v -0.12126180 -0.05251210 0.01178246
v -0.10624839 -0.07076552 0.00714134
v -0.10043328 -0.07940480 0.00504790
v 0.34941276 -0.08021617 0.00099982
v -0.12183783 0.08191297 0.00012371
v -0.06870911 0.08012236 0.00012371
v -0.09543228 0.08136328 0.00012371
v -0.06390780 0.07993254 0.01454683
v -0.04460492 0.07846231 0.00012371
v -0.05424703 0.07931483 0.01454683
v -0.20108682 -0.01836917 0.00012371
v -0.12978752 -0.04419539 0.01369541
v -0.13005688 -0.04453552 0.01273921
v -0.13982956 -0.03778945 0.01178246
v -0.15028305 -0.03221078 0.01112634
v -0.16094226 -0.02714834 0.01056238
v -0.18327722 -0.01969512 0.00714134
v -0.17183023 -0.02258074 0.00928141
v -0.19478456 -0.01743765 0.00504790
v -0.19782981 -0.01696476 0.00504790
v -0.12169026 -0.05296743 0.01112634
v -0.11357543 -0.06153540 0.01056238
v -0.11336258 -0.06134449 0.00928141
v -0.11372520 -0.06166926 0.00714134
v -0.10633617 -0.07083080 0.00504790
v -0.10083869 -0.08017557 0.00317280
v 0.34941276 -0.08113287 0.00057685
v -0.06390780 0.07993254 0.00012371
v -0.06101615 0.07974767 0.01454683
v -0.05424703 0.07931483 0.00012371
v -0.19819463 -0.01877897 0.00012371
v -0.19492171 -0.01819636 0.00317280
v -0.19794337 -0.01772676 0.00317280
v -0.19492939 -0.01823586 0.00099982
v -0.19794941 -0.01776791 0.00099982
v -0.19817762 -0.01866157 0.00057685
v -0.13023243 -0.04475606 0.01178246
v -0.14017463 -0.03831061 0.01112634
v -0.15036643 -0.03236219 0.01056238
v -0.16092909 -0.02711927 0.01024310
v -0.14027063 -0.03845544 0.01056238
v -0.17198768 -0.02304101 0.00714134
v -0.18330410 -0.01980210 0.00504790
v -0.12180930 -0.05309361 0.01056238
v -0.11355184 -0.06151291 0.01024310
v -0.10695224 -0.07129546 0.00317280
v -0.10086009 -0.08021617 0.00099982
v -0.10134175 -0.08113287 0.00057685
v 0.34941276 -0.08125247 0.00012371
v -0.10781408 -0.07194390 0.00012371
v -0.06101615 0.07974767 0.00012371
v -0.19511317 -0.01925680 0.00012371
v -0.19810137 -0.01879214 0.00012371
v -0.19808381 -0.01867474 0.00057685
v -0.13062084 -0.04524595 0.01112634
v -0.13072836 -0.04538201 0.01056238
v -0.16082705 -0.02688666 0.00928141
v -0.15035107 -0.03233366 0.01024310
v -0.15022929 -0.03211148 0.00928141
v -0.14025308 -0.03842746 0.01024310
v -0.17202334 -0.02314469 0.00504790
v -0.16102290 -0.02733212 0.00714134
v -0.18349172 -0.02055093 0.00317280
v -0.12178681 -0.05307057 0.01024310
v -0.12161290 -0.05288624 0.00928141
v -0.11380694 -0.06174222 0.00504790
v -0.10698570 -0.07132015 0.00099982
v -0.10140484 -0.08125247 0.00012371
v -0.11518446 -0.06297601 0.00012371
v -0.18375340 -0.02159601 0.00012371
v -0.19509232 -0.01913940 0.00057685
v -0.19827033 -0.01931330 0.00012371
v -0.19818091 -0.01932537 0.00012371
v -0.18350160 -0.02058988 0.00099982
v -0.14011319 -0.03821680 0.00928141
v -0.16106788 -0.02743251 0.00504790
v -0.17227404 -0.02387432 0.00317280
v -0.12194645 -0.05324009 0.00714134
v -0.12202161 -0.05332018 0.00504790
v -0.11438187 -0.06225680 0.00317280
v -0.11441259 -0.06228368 0.00099982
v -0.10771863 -0.07187203 0.00057685
v -0.11509559 -0.06289701 0.00057685
v -0.12328996 -0.05466698 0.00012371
v -0.17262405 -0.02489471 0.00012371
v -0.18372488 -0.02148080 0.00057685
v -0.13070862 -0.04535677 0.01024310
v -0.15046244 -0.03253829 0.00714134
v -0.14038145 -0.03862221 0.00714134
v -0.16137949 -0.02813856 0.00317280
v -0.15051565 -0.03263484 0.00504790
v -0.17228721 -0.02391327 0.00099982
v -0.13055062 -0.04515763 0.00928141
v -0.12255100 -0.05388139 0.00317280
v -0.12320767 -0.05457976 0.00057685
v -0.13207078 -0.04707442 0.00012371
v -0.16181452 -0.02912548 0.00012371
v -0.17258565 -0.02478170 0.00057685
v -0.13085290 -0.04553945 0.00714134
v -0.15088541 -0.03331126 0.00317280
v -0.16139540 -0.02817586 0.00099982
v -0.13092147 -0.04562558 0.00504790
v -0.12257843 -0.05391157 0.00099982
v -0.13199672 -0.04698061 0.00057685
v -0.14146493 -0.04025538 0.00012371
v -0.15140328 -0.03425759 0.00012371
v -0.16176625 -0.02901631 0.00057685
v -0.14044234 -0.03871383 0.00504790
v -0.15090570 -0.03334747 0.00099982
v -0.14086860 -0.03935678 0.00317280
v -0.13140094 -0.04623013 0.00317280
v -0.13142618 -0.04626140 0.00099982
v -0.14139855 -0.04015609 0.00057685
v -0.15134568 -0.03415281 0.00057685
v -0.14089164 -0.03939080 0.00099982
v 0.26923060 0.06353777 0.01550852
v 0.25384579 0.06353777 0.00012371
v 0.26923060 0.06353777 0.00012371
v 0.25384579 0.06353777 0.01550852
v 0.26923060 -0.09030868 0.00012371
v 0.26923060 0.19230792 -0.11153850
v 0.25384579 -0.09030868 0.01550852
v 0.25384579 0.19230792 0.09615369
v 0.25384579 -0.09030868 0.00012371
v 0.26923060 0.19230792 0.09615369
v 0.26923060 -0.09030868 0.01550852
v 0.25384579 0.19230792 -0.11153850
v 0.26923060 -0.19230738 -0.11153850
v 0.25384579 -0.19230738 0.09615369
v 0.25384579 -0.19230738 -0.11153850
v 0.26923060 -0.19230738 0.09615369
v -0.26923060 -0.03646239 0.01550852
v -0.25384634 -0.03646239 0.00012371
v -0.26923060 -0.03646239 0.00012371
v -0.25384634 -0.03646239 0.01550852
v -0.26923060 0.08661444 0.00012371
v -0.26923060 -0.19230738 -0.11153850
v -0.25384634 0.08661444 0.01550852
v -0.25384634 -0.19230738 0.09615369
v -0.25384634 0.08661444 0.00012371
v -0.26923060 0.19230792 -0.11153850
v -0.26923060 -0.19230738 0.09615369
v -0.26923060 0.08661444 0.01550852
v -0.25384634 0.19230792 0.09615369
v -0.25384634 -0.19230738 -0.11153850
v -0.25384634 0.19230792 -0.11153850
v -0.26923060 0.19230792 0.09615369
f 1 2 3
f 2 1 4
f 3 2 1
f 4 1 2
f 2 5 3
f 3 5 2
f 1 5 3
f 3 5 1
f 1 6 4
f 4 6 1
f 4 7 2
f 2 7 4
f 5 2 7
f 7 2 5
f 5 1 8
f 8 1 5
f 6 1 8
f 8 1 6
f 7 4 6
f 6 4 7
f 6 5 7
f 7 5 6
f 5 6 8
f 8 6 5
f 9 10 11
f 10 9 12
f 11 10 9
f 12 9 10
f 9 13 12
f 12 13 9
f 10 14 11
f 11 14 10
f 11 15 9
f 9 15 11
f 12 16 10
f 10 16 12
f 13 9 17
f 17 9 13
f 18 12 13
f 13 12 18
f 14 10 19
f 19 10 14
f 20 11 14
f 14 11 20
f 15 11 21
f 21 11 15
f 11 20 21
f 21 20 11
f 15 17 9
f 9 17 15
f 12 18 22
f 22 18 12
f 16 12 22
f 22 12 16
f 16 19 10
f 10 19 16
f 17 23 13
f 13 23 17
f 13 23 18
f 18 23 13
f 19 24 14
f 14 24 19
f 14 25 20
f 20 25 14
f 21 26 15
f 15 26 21
f 27 21 20
f 20 21 27
f 17 15 28
f 28 15 17
f 29 22 18
f 18 22 29
f 22 30 16
f 16 30 22
f 19 16 31
f 31 16 19
f 28 23 17
f 17 23 28
f 18 23 29
f 29 23 18
f 24 19 32
f 32 19 24
f 25 14 24
f 24 14 25
f 33 20 25
f 25 20 33
f 26 28 15
f 15 28 26
f 26 21 34
f 34 21 26
f 21 27 34
f 34 27 21
f 20 33 27
f 27 33 20
f 22 29 35
f 35 29 22
f 30 22 35
f 35 22 30
f 30 31 16
f 16 31 30
f 31 32 19
f 19 32 31
f 36 23 28
f 28 23 36
f 29 23 37
f 37 23 29
f 38 32 39
f 32 38 24
f 39 32 38
f 24 38 32
f 24 40 25
f 25 40 24
f 41 40 42
f 40 41 43
f 42 40 41
f 43 41 40
f 43 25 40
f 25 43 33
f 40 25 43
f 33 43 25
f 28 26 36
f 36 26 28
f 34 44 26
f 26 44 34
f 45 34 27
f 27 34 45
f 46 27 33
f 33 27 46
f 37 35 29
f 29 35 37
f 35 47 30
f 30 47 35
f 31 30 48
f 48 30 31
f 32 31 49
f 49 31 32
f 50 23 36
f 36 23 50
f 37 23 51
f 51 23 37
f 52 39 53
f 32 39 49
f 42 38 52
f 38 42 40
f 52 38 42
f 40 42 38
f 40 24 38
f 38 24 40
f 54 55 42
f 54 41 42
f 42 41 54
f 41 54 56
f 56 54 41
f 57 56 54
f 54 56 57
f 58 43 41
f 41 43 58
f 59 33 43
f 42 55 54
f 43 33 59
f 44 36 26
f 26 36 44
f 44 34 60
f 60 34 44
f 34 45 60
f 60 45 34
f 27 46 45
f 45 46 27
f 33 59 46
f 46 59 33
f 35 37 61
f 61 37 35
f 47 35 61
f 61 35 47
f 47 48 30
f 30 48 47
f 48 49 31
f 31 49 48
f 49 39 32
f 62 23 50
f 50 23 62
f 36 44 50
f 50 44 36
f 51 23 63
f 63 23 51
f 51 64 37
f 37 64 51
f 39 52 38
f 53 39 52
f 38 52 39
f 65 52 53
f 39 49 66
f 66 49 39
f 66 53 39
f 55 65 52
f 55 42 52
f 52 42 55
f 67 54 55
f 55 54 67
f 52 65 55
f 56 58 41
f 41 58 56
f 56 57 68
f 68 57 56
f 54 67 57
f 57 67 54
f 43 58 59
f 59 58 43
f 68 69 56
f 56 69 68
f 58 56 69
f 69 56 58
f 60 70 44
f 44 70 60
f 71 60 45
f 45 60 71
f 72 45 46
f 46 45 72
f 73 46 59
f 59 46 73
f 37 74 61
f 61 74 37
f 74 47 61
f 61 47 74
f 48 47 75
f 75 47 48
f 49 48 76
f 76 48 49
f 77 23 78
f 78 23 62
f 78 23 77
f 62 23 78
f 50 70 62
f 62 70 50
f 70 50 44
f 44 50 70
f 63 23 79
f 79 23 63
f 51 63 80
f 80 63 51
f 64 51 81
f 81 51 64
f 74 37 64
f 64 37 74
f 53 52 65
f 39 53 66
f 53 66 82
f 49 66 76
f 82 66 53
f 83 55 65
f 65 55 83
f 55 83 67
f 67 83 55
f 57 84 68
f 68 84 57
f 67 85 57
f 57 85 67
f 58 59 86
f 69 68 87
f 87 68 69
f 69 86 58
f 58 86 69
f 86 59 58
f 60 71 88
f 88 71 60
f 70 60 88
f 88 60 70
f 45 72 71
f 71 72 45
f 59 86 73
f 73 86 59
f 46 73 72
f 72 73 46
f 47 74 89
f 89 74 47
f 90 47 89
f 89 47 90
f 47 90 75
f 75 90 47
f 75 76 48
f 48 76 75
f 76 66 49
f 91 23 77
f 77 23 91
f 78 92 77
f 77 92 78
f 62 93 78
f 78 93 62
f 93 62 70
f 78 93 92
f 70 62 93
f 92 93 78
f 23 94 79
f 79 94 23
f 79 95 63
f 63 95 79
f 63 96 80
f 80 96 63
f 51 80 97
f 97 80 51
f 98 81 51
f 51 81 98
f 81 74 64
f 64 74 81
f 99 53 82
f 66 76 100
f 100 76 66
f 100 82 66
f 65 101 83
f 83 101 65
f 83 102 67
f 67 102 83
f 84 57 85
f 85 57 84
f 103 68 84
f 84 68 103
f 85 67 102
f 102 67 85
f 86 69 104
f 104 69 86
f 87 104 69
f 69 104 87
f 68 103 87
f 87 103 68
f 105 88 71
f 88 105 106
f 106 105 107
f 71 88 105
f 106 105 88
f 107 105 106
f 106 92 88
f 88 92 93
f 88 93 70
f 88 92 106
f 93 92 88
f 70 93 88
f 108 71 72
f 71 108 105
f 105 108 109
f 72 71 108
f 105 108 71
f 109 108 105
f 110 73 86
f 73 110 111
f 111 110 112
f 86 73 110
f 111 110 73
f 112 110 111
f 111 72 73
f 72 111 108
f 108 111 113
f 73 72 111
f 108 111 72
f 113 111 108
f 114 89 74
f 74 89 114
f 115 90 89
f 89 90 115
f 116 75 90
f 90 75 116
f 76 75 117
f 117 75 76
f 118 23 91
f 91 23 118
f 77 119 91
f 91 119 77
f 119 77 92
f 92 77 119
f 106 107 120
f 120 107 106
f 92 106 120
f 120 106 92
f 94 23 121
f 121 23 94
f 95 79 94
f 94 79 95
f 96 63 95
f 95 63 96
f 122 80 96
f 96 80 122
f 80 122 97
f 97 122 80
f 123 51 97
f 97 51 123
f 81 98 114
f 114 98 81
f 51 124 98
f 98 124 51
f 74 81 114
f 114 81 74
f 82 53 99
f 66 82 100
f 82 100 125
f 76 100 117
f 125 100 82
f 101 65 99
f 99 65 101
f 101 126 83
f 83 126 101
f 102 83 126
f 126 83 102
f 85 127 84
f 84 127 85
f 84 128 103
f 103 128 84
f 102 129 85
f 85 129 102
f 104 87 130
f 130 87 104
f 131 87 103
f 103 87 131
f 105 109 107
f 107 109 105
f 108 113 109
f 109 113 108
f 112 132 110
f 111 112 113
f 104 110 86
f 110 104 132
f 110 132 112
f 86 110 104
f 132 104 110
f 130 132 104
f 104 132 130
f 113 112 111
f 89 114 115
f 115 114 89
f 90 115 133
f 133 115 90
f 75 116 117
f 117 116 75
f 133 116 90
f 90 116 133
f 117 100 76
f 134 23 118
f 118 23 134
f 91 135 118
f 118 135 91
f 135 91 119
f 119 91 135
f 120 136 137
f 137 136 120
f 119 120 137
f 120 119 92
f 137 120 119
f 92 119 120
f 136 120 107
f 107 120 136
f 23 138 121
f 121 138 23
f 121 95 94
f 94 95 121
f 95 98 96
f 96 98 95
f 96 98 122
f 122 98 96
f 139 97 122
f 122 97 139
f 51 123 140
f 140 123 51
f 97 139 123
f 123 139 97
f 114 98 115
f 115 98 133
f 115 98 114
f 133 98 115
f 124 51 140
f 140 51 124
f 139 98 124
f 124 98 139
f 53 99 65
f 65 99 53
f 141 82 125
f 100 117 142
f 142 117 100
f 142 125 100
f 99 143 101
f 101 143 99
f 126 101 144
f 144 101 126
f 126 145 102
f 102 145 126
f 127 85 129
f 129 85 127
f 128 84 127
f 127 84 128
f 146 103 128
f 128 103 146
f 129 102 145
f 145 102 129
f 87 131 130
f 130 131 87
f 132 130 147
f 132 147 148
f 147 130 132
f 148 147 132
f 103 146 131
f 131 146 103
f 149 107 109
f 109 107 149
f 113 109 150
f 112 132 148
f 148 132 112
f 151 113 112
f 112 113 151
f 150 109 113
f 152 117 116
f 117 152 142
f 116 117 152
f 116 133 153
f 153 133 116
f 154 23 155
f 155 23 134
f 155 23 154
f 134 23 155
f 118 156 134
f 134 156 118
f 156 118 135
f 135 118 156
f 137 157 158
f 158 157 137
f 135 137 158
f 137 135 119
f 158 137 135
f 119 135 137
f 157 137 136
f 136 137 157
f 107 149 136
f 136 149 107
f 138 23 159
f 159 23 138
f 121 138 160
f 121 160 161
f 160 138 121
f 161 160 121
f 121 98 95
f 95 98 121
f 98 139 122
f 122 139 98
f 140 123 162
f 162 123 140
f 163 123 139
f 139 123 163
f 133 98 153
f 153 98 133
f 164 124 140
f 140 124 164
f 139 124 163
f 163 124 139
f 125 82 141
f 100 125 142
f 125 142 165
f 142 152 117
f 165 142 125
f 143 99 141
f 141 99 143
f 143 144 101
f 101 144 143
f 144 166 126
f 126 166 144
f 145 126 166
f 166 126 145
f 129 167 127
f 127 167 129
f 127 168 128
f 128 168 127
f 128 169 146
f 146 169 128
f 145 170 129
f 129 170 145
f 171 130 131
f 130 171 147
f 147 171 172
f 131 130 171
f 147 171 130
f 172 171 147
f 148 147 173
f 173 147 148
f 174 131 146
f 131 174 171
f 171 174 175
f 146 131 174
f 171 174 131
f 175 174 171
f 149 150 109
f 113 151 150
f 150 151 113
f 109 150 149
f 148 151 112
f 112 151 148
f 142 176 165
f 152 153 177
f 153 152 116
f 177 153 152
f 116 152 153
f 177 176 152
f 178 23 154
f 154 23 178
f 155 179 154
f 154 179 155
f 134 180 155
f 155 180 134
f 179 155 180
f 180 155 179
f 134 156 180
f 180 156 134
f 156 158 181
f 158 156 135
f 181 158 156
f 135 156 158
f 158 182 181
f 181 182 158
f 182 158 157
f 157 158 182
f 136 183 157
f 157 183 136
f 183 136 149
f 149 136 183
f 23 184 159
f 159 184 23
f 184 138 159
f 159 138 184
f 138 185 160
f 160 185 138
f 185 161 160
f 160 161 185
f 121 161 186
f 186 161 121
f 121 187 98
f 98 187 121
f 123 163 162
f 162 163 123
f 140 162 188
f 188 162 140
f 153 98 177
f 177 98 189
f 177 98 153
f 124 164 190
f 190 164 124
f 140 191 164
f 164 191 140
f 163 124 192
f 192 124 163
f 82 141 99
f 99 141 82
f 193 125 165
f 152 142 176
f 141 194 143
f 143 194 141
f 144 143 195
f 195 143 144
f 166 144 196
f 196 144 166
f 166 197 145
f 145 197 166
f 167 129 170
f 170 129 167
f 168 127 167
f 167 127 168
f 169 128 168
f 168 128 169
f 198 146 169
f 146 198 174
f 174 198 199
f 169 146 198
f 174 198 146
f 199 198 174
f 170 145 197
f 197 145 170
f 171 175 172
f 172 175 171
f 147 172 173
f 173 172 147
f 173 200 148
f 148 200 173
f 174 199 175
f 175 199 174
f 201 149 150
f 150 149 201
f 202 150 151
f 151 148 200
f 200 148 151
f 176 142 152
f 152 176 177
f 176 177 189
f 189 177 176
f 203 176 193
f 189 203 176
f 176 203 189
f 204 23 178
f 178 23 204
f 154 205 178
f 178 205 154
f 205 154 179
f 179 154 205
f 206 207 208
f 208 207 206
f 179 206 208
f 206 179 180
f 208 206 179
f 180 179 206
f 181 209 206
f 206 209 181
f 207 206 209
f 209 206 207
f 181 182 209
f 209 182 181
f 157 210 182
f 182 210 157
f 210 157 183
f 183 157 210
f 150 202 201
f 151 150 202
f 201 202 150
f 149 201 183
f 183 201 149
f 184 23 211
f 211 23 184
f 138 184 212
f 212 184 138
f 185 138 212
f 212 138 185
f 161 185 213
f 213 185 161
f 213 186 161
f 161 186 213
f 121 186 214
f 121 214 215
f 214 186 121
f 215 214 121
f 121 216 187
f 187 216 121
f 217 98 187
f 187 98 217
f 192 162 163
f 163 162 192
f 162 192 188
f 188 192 162
f 140 188 218
f 218 188 140
f 189 98 219
f 220 190 164
f 164 190 220
f 221 124 190
f 190 124 221
f 140 218 191
f 191 218 140
f 164 191 222
f 222 191 164
f 192 124 223
f 223 124 192
f 165 125 193
f 165 176 142
f 193 176 203
f 194 141 193
f 193 141 194
f 194 195 143
f 143 195 194
f 195 196 144
f 144 196 195
f 196 224 166
f 166 224 196
f 197 166 224
f 224 166 197
f 170 225 167
f 167 225 170
f 167 226 168
f 168 226 167
f 168 227 169
f 169 227 168
f 169 228 198
f 198 228 169
f 198 229 199
f 199 229 198
f 197 230 170
f 170 230 197
f 231 172 175
f 175 172 231
f 232 173 172
f 172 173 232
f 200 173 233
f 233 173 200
f 234 175 199
f 199 175 234
f 151 202 200
f 235 200 202
f 203 189 219
f 219 189 203
f 189 98 177
f 219 98 189
f 176 193 165
f 165 193 176
f 203 194 193
f 219 236 203
f 203 236 219
f 237 23 204
f 204 23 237
f 178 238 204
f 204 238 178
f 238 178 205
f 205 178 238
f 205 208 239
f 208 205 179
f 239 208 205
f 179 205 208
f 208 240 239
f 239 240 208
f 240 208 207
f 207 208 240
f 209 241 207
f 207 241 209
f 182 242 209
f 209 242 182
f 182 210 242
f 242 210 182
f 241 209 242
f 242 209 241
f 243 183 201
f 183 243 210
f 201 183 243
f 210 243 183
f 202 200 235
f 235 244 202
f 202 244 235
f 211 23 245
f 245 23 211
f 246 184 211
f 211 184 246
f 184 246 212
f 212 246 184
f 212 247 185
f 185 247 212
f 185 248 213
f 213 248 185
f 186 213 249
f 249 213 186
f 214 215 250
f 121 215 251
f 251 215 121
f 249 214 186
f 186 214 249
f 121 251 252
f 252 251 121
f 121 253 216
f 216 253 121
f 254 255 256
f 256 255 254
f 216 255 187
f 255 216 256
f 187 255 216
f 256 216 255
f 98 217 257
f 257 217 98
f 255 258 259
f 259 258 255
f 217 255 259
f 255 217 187
f 259 255 217
f 187 217 255
f 223 188 192
f 192 188 223
f 188 223 218
f 218 223 188
f 190 220 260
f 260 220 190
f 164 222 220
f 220 222 164
f 223 124 221
f 221 124 223
f 221 190 261
f 261 190 221
f 218 221 191
f 191 221 218
f 191 261 222
f 222 261 191
f 125 193 141
f 141 193 125
f 193 194 203
f 195 194 262
f 262 194 195
f 196 195 263
f 263 195 196
f 224 196 264
f 264 196 224
f 224 265 197
f 197 265 224
f 225 170 230
f 230 170 225
f 226 167 225
f 225 167 226
f 227 168 226
f 226 168 227
f 228 169 227
f 198 228 229
f 227 169 228
f 229 228 198
f 266 199 229
f 229 199 266
f 230 197 265
f 265 197 230
f 172 231 232
f 232 231 172
f 175 234 231
f 231 234 175
f 173 232 233
f 233 232 173
f 233 235 200
f 200 235 233
f 199 266 234
f 234 266 199
f 200 202 151
f 219 98 267
f 267 98 219
f 194 203 236
f 236 203 194
f 236 219 267
f 267 219 236
f 268 23 237
f 237 23 268
f 204 269 237
f 237 269 204
f 269 204 238
f 238 204 269
f 238 239 270
f 239 238 205
f 270 239 238
f 205 238 239
f 239 271 270
f 270 271 239
f 271 239 240
f 240 239 271
f 207 272 240
f 240 272 207
f 272 207 241
f 241 207 272
f 273 242 274
f 210 243 273
f 210 273 242
f 273 243 210
f 242 273 210
f 242 274 241
f 241 274 242
f 244 201 202
f 202 201 244
f 201 244 243
f 243 244 201
f 275 273 276
f 276 273 275
f 243 244 276
f 243 276 273
f 276 244 243
f 273 276 243
f 274 242 273
f 277 278 235
f 235 278 277
f 244 235 278
f 278 235 244
f 245 23 279
f 279 23 245
f 245 246 211
f 211 246 245
f 247 212 246
f 246 212 247
f 248 185 247
f 247 185 248
f 280 213 248
f 248 213 280
f 213 280 249
f 249 280 213
f 215 250 281
f 250 215 214
f 281 250 215
f 214 249 250
f 250 249 214
f 251 282 252
f 252 282 251
f 121 252 283
f 283 252 121
f 121 284 253
f 253 284 121
f 285 256 286
f 286 256 285
f 253 256 216
f 256 253 286
f 216 256 253
f 286 253 256
f 255 254 287
f 287 254 255
f 256 285 254
f 254 285 256
f 259 288 289
f 289 288 259
f 217 289 257
f 289 217 259
f 257 289 217
f 259 217 289
f 288 98 289
f 289 98 257
f 289 98 288
f 257 98 289
f 258 255 287
f 287 255 258
f 288 259 258
f 258 259 288
f 221 218 223
f 223 218 221
f 290 260 220
f 220 260 290
f 261 190 260
f 260 190 261
f 220 222 291
f 291 222 220
f 261 191 221
f 221 191 261
f 292 222 261
f 261 222 292
f 194 293 262
f 262 293 194
f 262 263 195
f 195 263 262
f 263 264 196
f 196 264 263
f 264 294 224
f 224 294 264
f 265 224 294
f 294 224 265
f 295 225 230
f 230 225 295
f 296 226 225
f 225 226 296
f 297 227 226
f 226 227 297
f 298 228 227
f 227 228 298
f 298 229 228
f 228 229 298
f 299 266 229
f 229 266 299
f 300 230 265
f 265 230 300
f 301 232 231
f 231 232 301
f 302 231 234
f 234 231 302
f 303 233 232
f 232 233 303
f 235 233 277
f 277 233 235
f 304 234 266
f 266 234 304
f 267 98 305
f 305 98 267
f 293 194 236
f 236 194 293
f 267 293 236
f 236 293 267
f 306 23 268
f 268 23 306
f 237 307 268
f 268 307 237
f 307 237 269
f 269 237 307
f 270 308 309
f 309 308 270
f 269 270 309
f 270 269 238
f 309 270 269
f 238 269 270
f 308 270 271
f 271 270 308
f 240 310 271
f 271 310 240
f 310 240 272
f 272 240 310
f 311 274 275
f 274 311 312
f 275 274 311
f 312 311 274
f 312 241 274
f 241 312 272
f 274 241 312
f 272 312 241
f 273 275 274
f 274 275 273
f 275 313 314
f 278 277 315
f 315 277 278
f 278 315 313
f 313 315 278
f 313 275 276
f 276 275 313
f 279 23 316
f 316 23 279
f 317 245 279
f 279 245 317
f 246 245 318
f 318 245 246
f 246 319 247
f 247 319 246
f 319 248 247
f 247 248 319
f 320 280 248
f 248 280 320
f 321 249 280
f 280 249 321
f 281 215 322
f 251 322 215
f 282 251 322
f 215 322 251
f 249 321 250
f 250 321 249
f 322 251 282
f 282 283 252
f 252 283 282
f 121 283 323
f 323 283 121
f 121 324 284
f 284 324 121
f 294 286 325
f 325 286 294
f 284 286 253
f 286 284 325
f 253 286 284
f 325 284 286
f 286 294 285
f 285 294 286
f 254 326 287
f 287 326 254
f 285 327 254
f 254 327 285
f 328 98 288
f 288 98 328
f 326 258 287
f 287 258 326
f 258 328 288
f 288 328 258
f 260 290 329
f 329 290 260
f 220 330 290
f 290 330 220
f 261 260 292
f 292 260 261
f 222 292 291
f 291 292 222
f 220 291 331
f 331 291 220
f 332 262 293
f 293 262 332
f 263 262 333
f 333 262 263
f 264 263 327
f 327 263 264
f 294 264 285
f 285 264 294
f 325 265 294
f 294 265 325
f 225 295 296
f 296 295 225
f 230 300 295
f 295 300 230
f 226 296 297
f 297 296 226
f 227 297 298
f 298 297 227
f 229 334 299
f 334 229 298
f 299 334 229
f 298 229 334
f 266 299 335
f 335 299 266
f 265 325 300
f 300 325 265
f 232 301 303
f 303 301 232
f 231 302 301
f 301 302 231
f 234 304 302
f 302 304 234
f 233 303 277
f 277 303 233
f 335 304 266
f 266 304 335
f 305 98 336
f 336 98 305
f 293 267 305
f 305 267 293
f 316 23 306
f 306 23 316
f 268 337 306
f 306 337 268
f 337 268 307
f 307 268 337
f 309 338 339
f 339 338 309
f 307 309 339
f 309 307 269
f 339 309 307
f 269 307 309
f 338 309 308
f 308 309 338
f 271 340 308
f 308 340 271
f 340 271 310
f 310 271 340
f 272 341 310
f 314 313 275
f 314 311 275
f 275 311 314
f 342 343 314
f 314 343 342
f 311 314 343
f 343 314 311
f 341 272 312
f 312 272 341
f 343 344 311
f 311 344 343
f 344 312 311
f 345 314 313
f 313 314 345
f 277 346 315
f 315 346 277
f 313 315 345
f 345 315 313
f 316 317 279
f 279 317 316
f 245 317 318
f 318 317 245
f 319 246 318
f 318 246 319
f 248 319 320
f 320 319 248
f 280 320 347
f 347 320 280
f 348 250 321
f 250 348 281
f 321 250 348
f 281 348 250
f 348 281 349
f 280 350 321
f 322 215 281
f 281 349 322
f 322 349 281
f 322 351 282
f 282 351 322
f 283 282 352
f 352 282 283
f 352 323 283
f 283 323 352
f 121 323 353
f 353 323 121
f 121 354 324
f 324 354 121
f 324 325 284
f 325 324 300
f 284 325 324
f 300 324 325
f 326 254 327
f 327 254 326
f 327 285 264
f 264 285 327
f 336 98 328
f 328 98 336
f 258 326 355
f 355 326 258
f 328 258 355
f 355 258 328
f 356 329 290
f 290 329 356
f 357 260 329
f 329 260 357
f 220 358 330
f 330 358 220
f 290 330 359
f 359 330 290
f 292 260 360
f 360 260 292
f 360 291 292
f 292 291 360
f 291 360 331
f 331 360 291
f 220 331 361
f 361 331 220
f 262 332 333
f 333 332 262
f 305 332 293
f 293 332 305
f 333 327 263
f 263 327 333
f 362 295 354
f 295 362 296
f 354 295 362
f 296 362 295
f 121 362 354
f 354 362 121
f 354 300 324
f 300 354 295
f 324 300 354
f 295 354 300
f 363 296 362
f 296 363 297
f 362 296 363
f 297 363 296
f 121 363 362
f 362 363 121
f 364 297 363
f 297 364 298
f 363 297 364
f 298 364 297
f 121 364 363
f 363 364 121
f 334 365 366
f 334 366 299
f 366 365 334
f 299 366 334
f 121 366 365
f 365 366 121
f 365 298 364
f 298 365 334
f 364 298 365
f 334 365 298
f 121 365 364
f 364 365 121
f 367 299 366
f 299 367 335
f 366 299 367
f 335 367 299
f 121 367 366
f 366 367 121
f 368 303 301
f 301 303 368
f 369 301 302
f 302 301 369
f 370 302 304
f 304 302 370
f 346 277 303
f 303 277 346
f 304 335 371
f 371 335 304
f 332 305 336
f 336 305 332
f 306 372 316
f 316 372 306
f 372 306 337
f 337 306 372
f 339 373 374
f 374 373 339
f 337 339 374
f 339 337 307
f 374 339 337
f 307 337 339
f 373 339 338
f 338 339 373
f 308 375 338
f 338 375 308
f 375 308 340
f 340 308 375
f 340 341 376
f 341 340 310
f 376 341 340
f 310 340 341
f 310 341 272
f 312 344 341
f 341 344 312
f 343 342 377
f 377 342 343
f 314 345 342
f 342 345 314
f 344 343 378
f 378 343 344
f 343 378 377
f 377 378 343
f 311 312 344
f 379 345 380
f 380 345 379
f 315 346 380
f 315 380 345
f 380 346 315
f 345 380 315
f 317 316 372
f 372 316 317
f 318 381 319
f 381 318 317
f 319 381 318
f 317 318 381
f 382 319 381
f 381 319 382
f 319 382 320
f 320 382 319
f 320 383 347
f 347 383 320
f 350 280 347
f 347 280 350
f 321 350 280
f 351 322 349
f 349 322 351
f 349 281 348
f 384 282 351
f 351 282 384
f 282 384 352
f 352 384 282
f 323 352 385
f 385 352 323
f 385 353 323
f 323 353 385
f 121 353 386
f 386 353 121
f 327 333 326
f 326 333 327
f 355 336 328
f 328 336 355
f 333 355 326
f 326 355 333
f 329 356 387
f 387 356 329
f 290 359 356
f 356 359 290
f 388 260 357
f 357 260 388
f 357 329 389
f 389 329 357
f 220 390 358
f 358 390 220
f 358 357 330
f 330 357 358
f 330 389 359
f 359 389 330
f 360 260 391
f 391 260 360
f 391 331 360
f 360 331 391
f 331 391 361
f 361 391 331
f 220 361 392
f 392 361 220
f 355 333 332
f 332 333 355
f 393 335 367
f 367 335 393
f 121 393 367
f 367 393 121
f 303 368 346
f 346 368 303
f 301 369 368
f 368 369 301
f 302 370 369
f 369 370 302
f 371 370 304
f 304 370 371
f 335 393 371
f 371 393 335
f 336 355 332
f 332 355 336
f 372 374 394
f 374 372 337
f 394 374 372
f 337 372 374
f 374 395 394
f 394 395 374
f 395 374 373
f 373 374 395
f 338 396 373
f 373 396 338
f 396 338 375
f 375 338 396
f 375 376 397
f 376 375 340
f 397 376 375
f 340 375 376
f 341 398 376
f 344 341 398
f 376 398 341
f 398 341 344
f 378 398 344
f 344 398 378
f 342 399 377
f 377 399 342
f 345 379 342
f 342 379 345
f 378 377 400
f 400 377 378
f 380 401 379
f 379 401 380
f 346 402 380
f 380 402 346
f 317 394 381
f 394 317 372
f 381 394 317
f 372 317 394
f 394 382 381
f 381 382 394
f 383 320 382
f 382 320 383
f 347 403 350
f 403 347 383
f 383 347 403
f 348 350 404
f 350 403 347
f 350 348 321
f 349 405 351
f 351 405 349
f 351 406 384
f 384 406 351
f 407 352 384
f 384 352 407
f 352 407 385
f 385 407 352
f 353 385 408
f 408 385 353
f 408 386 353
f 353 386 408
f 121 386 409
f 409 386 121
f 359 387 356
f 356 387 359
f 389 329 387
f 387 329 389
f 410 260 388
f 388 260 410
f 357 358 388
f 388 358 357
f 389 330 357
f 357 330 389
f 220 411 390
f 390 411 220
f 390 388 358
f 358 388 390
f 387 359 389
f 389 359 387
f 391 260 412
f 412 260 391
f 412 361 391
f 391 361 412
f 361 412 392
f 392 412 361
f 220 392 411
f 411 392 220
f 121 413 393
f 393 413 121
f 401 380 402
f 402 380 401
f 346 368 402
f 402 368 346
f 414 402 415
f 415 402 414
f 368 369 415
f 368 415 402
f 415 369 368
f 402 415 368
f 416 415 417
f 417 415 416
f 369 370 417
f 369 417 415
f 417 370 369
f 415 417 369
f 418 417 371
f 371 417 370
f 371 417 418
f 370 417 371
f 413 371 393
f 393 371 413
f 382 394 395
f 395 394 382
f 373 419 395
f 395 419 373
f 419 373 396
f 396 373 419
f 396 397 420
f 397 396 375
f 420 397 396
f 375 396 397
f 421 376 398
f 376 421 397
f 398 376 421
f 397 421 376
f 398 378 422
f 423 397 421
f 421 397 423
f 422 378 398
f 400 422 378
f 378 422 400
f 399 342 379
f 379 342 399
f 424 377 399
f 399 377 424
f 377 424 400
f 400 424 377
f 425 379 401
f 401 379 425
f 395 383 382
f 382 383 395
f 404 350 348
f 350 426 404
f 403 350 426
f 321 348 350
f 427 348 404
f 405 349 427
f 427 349 405
f 406 351 405
f 405 351 406
f 406 407 384
f 384 407 406
f 428 385 407
f 407 385 428
f 385 428 408
f 408 428 385
f 386 408 429
f 429 408 386
f 386 430 409
f 409 430 386
f 121 409 431
f 431 409 121
f 431 432 121
f 121 432 431
f 433 260 410
f 410 260 433
f 388 390 410
f 410 390 388
f 411 410 390
f 390 410 411
f 412 260 433
f 433 260 412
f 433 392 412
f 412 392 433
f 392 433 411
f 411 433 392
f 121 434 435
f 121 435 413
f 435 434 121
f 413 435 121
f 371 413 418
f 418 413 371
f 402 414 401
f 401 414 402
f 415 416 414
f 414 416 415
f 436 416 417
f 417 416 436
f 417 418 436
f 436 418 417
f 383 395 419
f 419 395 383
f 419 420 437
f 420 419 396
f 396 419 420
f 397 423 420
f 420 423 397
f 423 420 438
f 438 420 423
f 439 440 422
f 422 440 439
f 422 421 398
f 421 422 440
f 440 422 421
f 441 442 440
f 440 442 441
f 440 423 421
f 423 440 442
f 421 423 440
f 442 440 423
f 398 421 422
f 422 400 439
f 439 400 422
f 379 425 399
f 399 425 379
f 399 443 424
f 424 443 399
f 444 400 424
f 424 400 444
f 401 445 425
f 425 445 401
f 426 350 403
f 427 426 446
f 404 348 427
f 404 426 350
f 348 427 349
f 349 427 348
f 446 405 427
f 427 405 446
f 447 406 405
f 405 406 447
f 407 406 448
f 448 406 407
f 448 428 407
f 407 428 448
f 449 408 428
f 428 408 449
f 408 449 429
f 429 449 408
f 430 386 429
f 429 386 430
f 431 430 450
f 430 431 409
f 450 430 431
f 409 431 430
f 432 431 450
f 450 431 432
f 121 432 451
f 451 432 121
f 410 411 433
f 433 411 410
f 121 452 434
f 434 452 121
f 416 436 453
f 453 436 416
f 434 436 435
f 436 434 453
f 435 436 434
f 453 434 436
f 454 435 455
f 435 454 413
f 455 435 454
f 413 454 435
f 445 401 414
f 414 401 445
f 456 414 416
f 416 414 456
f 383 437 403
f 437 383 419
f 403 437 383
f 419 383 437
f 437 426 403
f 438 437 426
f 420 438 437
f 437 420 419
f 442 438 423
f 423 438 442
f 437 438 420
f 440 439 441
f 441 439 440
f 442 441 457
f 457 441 442
f 400 444 439
f 439 444 400
f 443 399 425
f 425 399 443
f 458 424 443
f 443 424 458
f 424 458 444
f 444 458 424
f 459 425 445
f 445 425 459
f 426 427 404
f 404 427 426
f 446 426 427
f 405 446 447
f 447 446 405
f 406 447 460
f 460 447 406
f 406 461 448
f 448 461 406
f 428 448 462
f 462 448 428
f 428 463 449
f 449 463 428
f 429 464 430
f 464 429 449
f 430 464 429
f 449 429 464
f 430 432 450
f 450 432 430
f 432 430 464
f 464 430 432
f 451 464 465
f 464 451 432
f 465 464 451
f 432 451 464
f 121 451 466
f 466 451 121
f 121 467 452
f 452 467 121
f 452 453 434
f 453 452 468
f 434 453 452
f 468 452 453
f 456 453 468
f 468 453 456
f 453 456 416
f 416 456 453
f 414 456 445
f 445 456 414
f 403 426 437
f 426 437 438
f 426 469 446
f 446 469 426
f 469 426 438
f 438 442 469
f 469 442 438
f 457 469 442
f 442 469 457
f 438 426 469
f 439 470 441
f 441 470 439
f 441 471 457
f 457 471 441
f 470 439 444
f 444 439 470
f 425 459 443
f 443 459 425
f 443 472 458
f 458 472 443
f 473 444 458
f 458 444 473
f 445 474 459
f 459 474 445
f 446 475 447
f 447 475 446
f 475 460 447
f 447 460 475
f 461 406 460
f 460 406 461
f 476 448 461
f 461 448 476
f 448 476 462
f 462 476 448
f 463 428 462
f 462 428 463
f 449 465 464
f 465 449 463
f 464 465 449
f 463 449 465
f 477 451 465
f 465 451 477
f 451 477 466
f 466 477 451
f 121 466 478
f 478 466 121
f 121 479 467
f 467 479 121
f 474 468 480
f 480 468 474
f 467 468 452
f 468 467 480
f 452 468 467
f 480 467 468
f 468 474 456
f 456 474 468
f 474 445 456
f 456 445 474
f 475 446 469
f 469 446 475
f 469 457 475
f 475 457 469
f 471 441 470
f 470 441 471
f 481 457 471
f 471 457 481
f 444 473 470
f 470 473 444
f 472 443 459
f 459 443 472
f 482 458 472
f 472 458 482
f 458 482 473
f 473 482 458
f 483 459 474
f 474 459 483
f 460 475 481
f 481 475 460
f 481 461 460
f 460 461 481
f 484 476 461
f 461 476 484
f 476 463 462
f 462 463 476
f 477 463 485
f 485 463 477
f 477 486 485
f 485 486 477
f 486 466 477
f 477 466 486
f 478 486 466
f 121 478 487
f 487 478 121
f 466 486 478
f 121 488 479
f 479 488 121
f 483 480 489
f 489 480 483
f 479 480 467
f 480 479 489
f 467 480 479
f 489 479 480
f 480 483 474
f 474 483 480
f 457 481 475
f 475 481 457
f 470 490 471
f 471 490 470
f 471 484 481
f 481 484 471
f 490 470 473
f 473 470 490
f 459 483 472
f 472 483 459
f 472 491 482
f 482 491 472
f 492 473 482
f 482 473 492
f 461 481 484
f 484 481 461
f 476 484 493
f 493 484 476
f 463 476 485
f 485 476 463
f 463 477 465
f 465 477 463
f 494 485 486
f 485 493 494
f 494 493 485
f 486 485 494
f 494 495 486
f 495 478 486
f 486 478 495
f 487 495 478
f 121 487 488
f 488 487 121
f 478 495 487
f 486 495 494
f 488 489 479
f 489 488 496
f 479 489 488
f 496 488 489
f 491 489 496
f 496 489 491
f 489 491 483
f 483 491 489
f 484 471 490
f 490 471 484
f 473 492 490
f 490 492 473
f 491 472 483
f 483 472 491
f 497 482 491
f 491 482 497
f 482 497 492
f 492 497 482
f 490 493 484
f 484 493 490
f 493 485 476
f 476 485 493
f 492 494 493
f 493 494 492
f 494 492 497
f 497 492 494
f 495 494 497
f 497 494 495
f 496 487 495
f 495 487 496
f 497 496 495
f 487 496 488
f 488 496 487
f 495 496 497
f 496 497 491
f 491 497 496
f 493 490 492
f 492 490 493
f 498 499 500
f 499 498 501
f 500 499 498
f 501 498 499
f 499 502 500
f 500 502 499
f 500 503 498
f 498 503 500
f 498 504 501
f 501 504 498
f 501 505 499
f 499 505 501
f 502 499 506
f 506 499 502
f 502 503 500
f 500 503 502
f 507 498 503
f 503 498 507
f 504 498 508
f 508 498 504
f 504 505 501
f 501 505 504
f 509 499 505
f 505 499 509
f 509 506 499
f 499 506 509
f 504 502 506
f 506 502 504
f 502 510 503
f 503 510 502
f 507 508 498
f 498 508 507
f 503 505 507
f 507 505 503
f 502 504 508
f 508 504 502
f 504 511 505
f 505 511 504
f 505 503 509
f 509 503 505
f 512 506 509
f 509 506 512
f 506 512 504
f 504 512 506
f 510 502 513
f 513 502 510
f 512 503 510
f 510 503 512
f 513 508 507
f 507 508 513
f 505 513 507
f 507 513 505
f 508 513 502
f 502 513 508
f 511 504 512
f 512 504 511
f 513 505 511
f 511 505 513
f 503 512 509
f 509 512 503
f 513 512 510
f 510 512 513
f 512 513 511
f 511 513 512
f 514 515 516
f 515 514 517
f 516 515 514
f 517 514 515
f 515 518 516
f 516 518 515
f 516 519 514
f 514 519 516
f 514 520 517
f 517 520 514
f 517 521 515
f 515 521 517
f 518 515 522
f 522 515 518
f 523 516 518
f 518 516 523
f 519 516 523
f 523 516 519
f 524 514 519
f 519 514 524
f 520 514 525
f 525 514 520
f 526 517 520
f 520 517 526
f 521 517 526
f 526 517 521
f 527 515 521
f 521 515 527
f 515 528 522
f 522 528 515
f 520 518 522
f 522 518 520
f 523 518 529
f 529 518 523
f 528 519 523
f 523 519 528
f 514 524 529
f 529 524 514
f 519 521 524
f 524 521 519
f 514 529 525
f 525 529 514
f 518 520 525
f 525 520 518
f 526 520 528
f 528 520 526
f 529 521 526
f 526 521 529
f 515 527 528
f 528 527 515
f 521 519 527
f 527 519 521
f 522 528 520
f 520 528 522
f 525 529 518
f 518 529 525
f 529 528 523
f 523 528 529
f 519 528 527
f 527 528 519
f 521 529 524
f 524 529 521
f 528 529 526
f 526 529 528

