# https://github.com/mikedh/trimesh
v -0.49981317 0.02864912 0.34986566
v -0.49981317 -0.02864912 0.34986566
v -0.50000000 0.00000037 0.34986566
v -0.49925486 -0.05729422 0.34986566
v -0.49925486 0.05729422 0.34986566
v -0.49832361 -0.08592906 0.34986566
v -0.49832361 0.08592906 0.34986566
v -0.49702017 -0.11454924 0.34986566
v -0.49702017 0.11454924 0.34986566
v -0.49534451 -0.14315037 0.34986566
v -0.49534451 0.14315037 0.34986566
v -0.49329739 -0.17172733 0.34986566
v -0.49329739 0.17172733 0.34986566
v 0.49329739 -0.17172733 0.34986566
v 0.49329739 0.17172733 0.34986566
v -0.49329739 -0.17172733 0.36863268
v -0.49329739 0.17172733 0.36863268
v 0.49534451 -0.14315037 0.34986566
v 0.49329739 -0.17172733 0.36863268
v 0.49329739 0.17172733 0.36863268
v 0.49534451 0.14315037 0.34986566
v -0.45040228 -0.12883149 0.36863268
v -0.45040228 0.12883149 0.36863268
v 0.49702017 -0.11454924 0.34986566
v 0.45040155 -0.12883149 0.36863268
v -0.45244867 0.10741874 0.36863268
v 0.45040155 0.12883149 0.36863268
v 0.49702017 0.11454924 0.34986566
v -0.49534451 0.14315037 0.36863268
v -0.45244867 -0.10741874 0.36863268
v 0.45244867 -0.10741874 0.36863268
v -0.44503975 -0.12346969 0.36863268
v -0.45412433 0.08597375 0.36863268
v -0.45155626 0.02061742 0.36863268
v -0.44503975 0.12346969 0.36863268
v 0.45244867 0.10741874 0.36863268
v 0.49832361 -0.08592906 0.34986566
v -0.49534451 -0.14315037 0.36863268
v -0.45155626 -0.02061742 0.36863268
v -0.45412433 -0.08597375 0.36863268
v 0.45412433 -0.08597375 0.36863268
v 0.45099722 -0.04122861 0.36863268
v 0.44503975 -0.12346969 0.36863268
v -0.44708688 -0.10295302 0.36863268
v -0.45542778 0.06450312 0.36863268
v -0.45174236 0.00000037 0.36863268
v -0.45099722 0.04122861 0.36863268
v 0.44503975 0.12346969 0.36863268
v -0.44708688 0.10295302 0.36863268
v 0.45099722 0.04122861 0.36863268
v 0.45412433 0.08597375 0.36863268
v 0.49832361 0.08592906 0.34986566
v -0.49702017 0.11454924 0.36863268
v -0.45099722 -0.04122861 0.36863268
v -0.45542778 -0.06450312 0.36863268
v 0.45542778 -0.06450312 0.36863268
v 0.45006525 -0.06182588 0.36863268
v 0.45155626 -0.02061742 0.36863268
v 0.44708614 -0.10295302 0.36863268
v -0.44876180 -0.08240264 0.36863268
v -0.45635902 0.04301270 0.36863268
v -0.45006525 0.06182588 0.36863268
v 0.44708614 0.10295302 0.36863268
v -0.44876180 0.08240264 0.36863268
v 0.45006525 0.06182588 0.36863268
v 0.45155626 0.02061742 0.36863268
v 0.45542778 0.06450312 0.36863268
v 0.49925486 -0.05729422 0.34986566
v -0.49702017 -0.11454924 0.36863268
v -0.45006525 -0.06182588 0.36863268
v -0.45635902 -0.04301270 0.36863268
v 0.45635902 -0.04301270 0.36863268
v 0.44876180 -0.08240264 0.36863268
v 0.45174236 0.00000037 0.36863268
v -0.45691806 0.02150983 0.36863268
v 0.44876180 0.08240264 0.36863268
v 0.45635902 0.04301270 0.36863268
v 0.49925486 0.05729422 0.34986566
v -0.49832361 0.08592906 0.36863268
v -0.45691806 -0.02150983 0.36863268
v 0.45691806 -0.02150983 0.36863268
v -0.45710416 0.00000037 0.36863268
v 0.45691806 0.02150983 0.36863268
v 0.49981317 -0.02864912 0.34986566
v -0.49832361 -0.08592906 0.36863268
v 0.45710416 0.00000037 0.36863268
v 0.49981317 0.02864912 0.34986566
v -0.49925486 0.05729422 0.36863268
v 0.50000000 0.00000037 0.34986566
v -0.49925486 -0.05729422 0.36863268
v 0.49534451 -0.14315037 0.36863268
v -0.49981317 0.02864912 0.36863268
v 0.49534451 0.14315037 0.36863268
v -0.49981317 -0.02864912 0.36863268
v 0.49702017 0.11454924 0.36863268
v -0.50000000 0.00000037 0.36863268
v 0.49702017 -0.11454924 0.36863268
v 0.49832361 0.08592906 0.36863268
v 0.49832361 -0.08592906 0.36863268
v 0.49925486 0.05729422 0.36863268
v 0.49925486 -0.05729422 0.36863268
v 0.49981317 0.02864912 0.36863268
v 0.49981317 -0.02864912 0.36863268
v 0.50000000 0.00000037 0.36863268
v -0.37612257 -0.09193708 -0.12920406
v -0.34462512 -0.09193782 -0.12922824
v -0.37612257 -0.09193782 -0.12922824
v -0.34398549 -0.09129818 -0.09927090
v -0.34519662 -0.09250931 -0.15004458
v -0.37632186 -0.09275989 -0.15917312
v -0.37622075 -0.09129818 -0.09927090
v -0.34462512 -0.12343452 -0.12920406
v -0.34544720 -0.12363455 -0.15917312
v -0.37612257 -0.12343452 -0.12920406
v -0.37622075 -0.09129745 -0.09924233
v -0.34352903 -0.09084098 -0.06930990
v -0.34398549 -0.12353270 -0.09927090
v -0.34462512 -0.12343452 -0.12922824
v -0.34544720 -0.09275989 -0.15918118
v -0.34519662 -0.12357373 -0.15003213
v -0.37623393 -0.12354663 -0.14597012
v -0.37622075 -0.12353270 -0.09924233
v -0.34494384 -0.12351219 -0.14082739
v -0.34615204 -0.09346473 -0.18017557
v -0.37632186 -0.12363455 -0.15916579
v -0.37661640 -0.09084098 -0.06930990
v -0.34398549 -0.12353270 -0.09924233
v -0.37682008 -0.09376440 -0.18912606
v -0.34645244 -0.09376440 -0.18912826
v -0.37646107 -0.12377376 -0.16753600
v -0.37661640 -0.09084098 -0.06928280
v -0.34352903 -0.12392836 -0.06930990
v -0.37716664 -0.09428168 -0.20216128
v -0.34584212 -0.12383018 -0.17093566
v -0.37661640 -0.12392909 -0.06928280
v -0.37682082 -0.09076039 -0.06048250
v -0.34352829 -0.12392909 -0.06928280
v -0.37739817 -0.09462751 -0.21088610
v -0.34615204 -0.12398331 -0.18016897
v -0.37660174 -0.12391370 -0.17598973
v -0.37731098 -0.09056696 -0.03933792
v -0.34342499 -0.09073694 -0.05793569
v -0.34345209 -0.12412252 -0.06092578
v -0.34716461 -0.09447731 -0.20708859
v -0.37761578 -0.09495209 -0.21907240
v -0.37682008 -0.12413204 -0.18912386
v -0.34645244 -0.12413204 -0.18912606
v -0.37691973 -0.12423169 -0.05620362
v -0.37700765 -0.09068639 -0.05241636
v -0.34325500 -0.09056696 -0.03934744
v -0.34343964 -0.12415402 -0.05957764
v -0.37808617 -0.09554190 -0.23194790
v -0.34764013 -0.09495209 -0.21906874
v -0.37710290 -0.12441559 -0.04828621
v -0.34325500 -0.09894889 -0.03934524
v -0.34335831 -0.12435991 -0.05068869
v -0.37841001 -0.09594781 -0.24081633
v -0.37761578 -0.12492774 -0.21907534
v -0.34803212 -0.09534407 -0.22763531
v -0.37739817 -0.12471086 -0.21088684
v -0.37731098 -0.12462294 -0.03932912
v -0.35160469 -0.09056696 -0.03934524
v -0.34325500 -0.12462294 -0.03933792
v -0.34316342 -0.09047537 -0.00938351
v -0.34764013 -0.12492774 -0.21907240
v -0.37870895 -0.09632221 -0.24900923
v -0.34845194 -0.09576463 -0.23681367
v -0.37746118 -0.09055304 -0.03478427
v -0.34901025 -0.09632221 -0.24900190
v -0.34323962 -0.12478999 -0.03427725
v -0.37781727 -0.09052007 -0.02404383
v -0.37841001 -0.12572270 -0.24082366
v -0.34944547 -0.09675742 -0.25738822
v -0.37753006 -0.12484201 -0.03270564
v -0.34322569 -0.12493726 -0.02982985
v -0.34901025 -0.12602164 -0.24900923
v -0.37870895 -0.12602164 -0.24901728
v -0.34991805 -0.09723001 -0.26649991
v -0.37906064 -0.09671566 -0.25658007
v -0.37789200 -0.09051347 -0.02177983
v -0.37781727 -0.12512923 -0.02404383
v -0.34320811 -0.12512923 -0.02404383
v -0.37929803 -0.09698016 -0.26167810
v -0.37804074 -0.09047537 -0.00938351
v -0.34320152 -0.12520396 -0.02177983
v -0.35056281 -0.09787477 -0.27892553
v -0.34965355 -0.12659680 -0.26140188
v -0.37971639 -0.09744761 -0.27069234
v -0.37789200 -0.12520396 -0.02177983
v -0.37814551 -0.09047537 -0.00066601
v -0.34316342 -0.09047537 0.34986566
v -0.34316342 -0.12535343 -0.00938351
v -0.38010032 -0.09787624 -0.27894678
v -0.37951271 -0.12682466 -0.26630355
v -0.38009959 -0.09787477 -0.27892553
v -0.34316342 -0.12507647 0.02056577
v -0.35012393 -0.12701882 -0.27047326
v -0.37814551 -0.12545820 -0.00066601
v -0.37776452 -0.09047537 0.02056577
v -0.34316342 -0.13337121 0.34986566
v -0.34316342 -0.12545820 -0.00066601
v -0.35015764 -0.12704887 -0.27112389
v -0.38010032 -0.12741301 -0.27894678
v -0.37776452 -0.12507647 0.02056577
v -0.38605852 -0.09047537 0.34986566
v -0.38605852 -0.13337121 0.34986566
v -0.35056281 -0.12741154 -0.27892553
v -0.35229781 -0.09961050 -0.30883964
v -0.38178916 -0.09961124 -0.30886162
v -0.38178770 -0.09961050 -0.30883964
v -0.38178916 -0.12910112 -0.30886162
v -0.35056428 -0.12741301 -0.27894678
v -0.38259365 -0.10038788 -0.32096633
v -0.35229781 -0.12910039 -0.30883964
v -0.38321204 -0.10098429 -0.33026704
v -0.35229928 -0.12910112 -0.30886162
v -0.35338292 -0.10069488 -0.32575736
v -0.38377547 -0.10152794 -0.33875008
v -0.38321204 -0.13052473 -0.33027877
v -0.35421525 -0.13108743 -0.33875008
v -0.35421525 -0.10152794 -0.33874202
v -0.35574583 -0.10305852 -0.36053137
v -0.38377547 -0.13108743 -0.33875741
v -0.35631513 -0.10362782 -0.36863268
v -0.38605852 -0.10362782 -0.36863268
v -0.35514796 -0.13210147 -0.35201976
v -0.38516538 -0.13247734 -0.35693828
v -0.35574657 -0.13275209 -0.36053504
v -0.38605852 -0.13337121 -0.36863268
v -0.35631513 -0.13337121 -0.36863268
v -0.34462512 0.12210763 -0.12920406
v -0.34462512 0.09061092 -0.12922824
v -0.34462512 0.12210836 -0.12922824
v -0.34398549 0.08997129 -0.09927090
v -0.34519662 0.09118242 -0.15004458
v -0.34544720 0.12230765 -0.15917312
v -0.34398549 0.12220581 -0.09927090
v -0.37612257 0.09061019 -0.12920406
v -0.37632186 0.09143299 -0.15917312
v -0.37612257 0.12210763 -0.12920406
v -0.34398549 0.12220581 -0.09924233
v -0.34352903 0.08951409 -0.06930990
v -0.37622075 0.08997129 -0.09927090
v -0.37612257 0.09061092 -0.12922824
v -0.34544720 0.09143299 -0.15918118
v -0.37626104 0.09118168 -0.15003213
v -0.37623393 0.12221973 -0.14597012
v -0.37622075 0.12220581 -0.09924233
v -0.37620023 0.09092891 -0.14082739
v -0.34615204 0.09213784 -0.18017557
v -0.37632186 0.12230765 -0.15916579
v -0.34352903 0.12260146 -0.06930990
v -0.37622075 0.08997055 -0.09924233
v -0.34645244 0.12280515 -0.18912606
v -0.34645244 0.09243824 -0.18912826
v -0.37646107 0.12244686 -0.16753600
v -0.34352829 0.12260219 -0.06928280
v -0.37661640 0.08951409 -0.06930990
v -0.34696972 0.12315171 -0.20216128
v -0.37651748 0.09182791 -0.17093566
v -0.37661640 0.12260219 -0.06928280
v -0.34344843 0.12280588 -0.06048250
v -0.37661640 0.08951409 -0.06928280
v -0.34731555 0.12338397 -0.21088610
v -0.37667135 0.09213711 -0.18016897
v -0.37660174 0.12258754 -0.17598973
v -0.34325500 0.12329605 -0.03933792
v -0.34342499 0.08941005 -0.05793569
v -0.37681056 0.08943789 -0.06092578
v -0.34716461 0.09315041 -0.20708859
v -0.34764013 0.12360084 -0.21907240
v -0.37682008 0.12280515 -0.18912386
v -0.37682008 0.09243824 -0.18912606
v -0.37691973 0.12290553 -0.05620362
v -0.34337443 0.12299271 -0.05241636
v -0.34325500 0.08924007 -0.03934744
v -0.37684133 0.08942543 -0.05957764
v -0.34822921 0.12407123 -0.23194790
v -0.34764013 0.09362519 -0.21906874
v -0.37710363 0.12308870 -0.04828621
v -0.35163693 0.08924007 -0.03934524
v -0.37704722 0.08934411 -0.05068869
v -0.34863512 0.12439508 -0.24081633
v -0.37761578 0.12360084 -0.21907534
v -0.34803212 0.09401791 -0.22763531
v -0.37739817 0.12338397 -0.21088684
v -0.37731098 0.12329605 -0.03932912
v -0.34325500 0.09759049 -0.03934524
v -0.37731098 0.08924007 -0.03933792
v -0.34316342 0.08914921 -0.00938351
v -0.37761578 0.09362519 -0.21907240
v -0.34901025 0.12469474 -0.24900923
v -0.34845194 0.09443774 -0.23681367
v -0.34324108 0.12344698 -0.03478427
v -0.34901025 0.09499531 -0.24900190
v -0.37747804 0.08922468 -0.03427725
v -0.34320811 0.12380233 -0.02404383
v -0.37841001 0.12439508 -0.24082366
v -0.34944473 0.09543053 -0.25738822
v -0.37753006 0.12351585 -0.03270564
v -0.37762531 0.08921149 -0.02982985
v -0.37870895 0.09499531 -0.24900923
v -0.37870895 0.12469474 -0.24901728
v -0.34991805 0.09590385 -0.26649991
v -0.34940297 0.12504643 -0.25658007
v -0.34320152 0.12387707 -0.02177983
v -0.37781727 0.12380233 -0.02404383
v -0.37781727 0.08919391 -0.02404383
v -0.34966747 0.12528309 -0.26167810
v -0.34316342 0.12402653 -0.00938351
v -0.37789200 0.08918658 -0.02177983
v -0.35056281 0.09654788 -0.27892553
v -0.37928484 0.09563861 -0.26140188
v -0.35013566 0.12570219 -0.27069234
v -0.37789200 0.12387707 -0.02177983
v -0.34316342 0.12413131 -0.00066601
v -0.34316342 0.08914921 0.34986566
v -0.37804074 0.08914921 -0.00938351
v -0.35056428 0.12608612 -0.27894678
v -0.37951271 0.12549850 -0.26630355
v -0.35056281 0.12608465 -0.27892553
v -0.37776452 0.08914921 0.02056577
v -0.37970613 0.09610973 -0.27047326
v -0.37814551 0.12413131 -0.00066601
v -0.34316342 0.12374958 0.02056577
v -0.38605852 0.08914921 0.34986566
v -0.37814551 0.08914921 -0.00066601
v -0.37973691 0.09614343 -0.27112389
v -0.38010032 0.12608612 -0.27894678
v -0.37776452 0.12374958 0.02056577
v -0.34316342 0.13204432 0.34986566
v -0.38605852 0.13204432 0.34986566
v -0.38009959 0.09654788 -0.27892553
v -0.35229781 0.09828361 -0.30883964
v -0.35229928 0.12777496 -0.30886162
v -0.35229781 0.12777349 -0.30883964
v -0.38178916 0.12777496 -0.30886162
v -0.38010032 0.09654934 -0.27894678
v -0.35307519 0.12857945 -0.32096633
v -0.38178770 0.09828361 -0.30883964
v -0.35367160 0.12919710 -0.33026704
v -0.38178916 0.09828507 -0.30886162
v -0.35338292 0.09936798 -0.32575736
v -0.35421525 0.12976054 -0.33875008
v -0.38321277 0.12919783 -0.33027877
v -0.38377547 0.10020105 -0.33875008
v -0.35421525 0.10020105 -0.33874202
v -0.35574583 0.10173163 -0.36053137
v -0.38377547 0.12976054 -0.33875741
v -0.35631513 0.10230093 -0.36863268
v -0.35631513 0.13204432 -0.36863268
v -0.38478951 0.10113303 -0.35201976
v -0.38516538 0.13115044 -0.35693828
v -0.38544014 0.10173163 -0.36053504
v -0.38605852 0.13204432 -0.36863268
v -0.38605852 0.10230093 -0.36863268
v 0.32573062 -0.12423682 -0.12920406
v 0.32512175 -0.09274597 -0.12922824
v 0.32573062 -0.12423755 -0.12922824
v 0.32447040 -0.09211879 -0.09927090
v 0.32570424 -0.09330647 -0.15004458
v 0.32655709 -0.12442072 -0.15917312
v 0.32509318 -0.12434745 -0.09927090
v 0.35661333 -0.09213637 -0.12920406
v 0.35682874 -0.09295478 -0.15917312
v 0.35722220 -0.12362795 -0.12920406
v 0.32509318 -0.12434745 -0.09924233
v 0.32400441 -0.09167112 -0.06930990
v 0.35669906 -0.09149527 -0.09927090
v 0.35661333 -0.09213711 -0.12922824
v 0.32595995 -0.09355192 -0.15918118
v 0.35676280 -0.09270567 -0.15003213
v 0.35733576 -0.12373786 -0.14597012
v 0.35732184 -0.12372467 -0.09924233
v 0.35669686 -0.09245363 -0.14082739
v 0.32667798 -0.09424285 -0.18017557
v 0.35742588 -0.12382431 -0.15916579
v 0.32464404 -0.12475189 -0.06930990
v 0.35669906 -0.09149527 -0.09924233
v 0.32757112 -0.12489916 -0.18912606
v 0.32698424 -0.09453739 -0.18912826
v 0.35756729 -0.12396059 -0.16753600
v 0.32464404 -0.12475263 -0.06928280
v 0.35708592 -0.09103148 -0.06930990
v 0.32809499 -0.12523547 -0.20216128
v 0.35703170 -0.09334604 -0.17093566
v 0.35772555 -0.12411299 -0.06928280
v 0.32456711 -0.12495778 -0.06048250
v 0.35708592 -0.09103075 -0.06928280
v 0.32844522 -0.12546040 -0.21088610
v 0.35719142 -0.09365230 -0.18016897
v 0.35771090 -0.12409834 -0.17598973
v 0.32438394 -0.12545161 -0.03933792
v 0.32389817 -0.09156854 -0.05793569
v 0.35727788 -0.09095089 -0.06092578
v 0.32771033 -0.09523564 -0.20708859
v 0.32877419 -0.12567215 -0.21907240
v 0.35793290 -0.12431228 -0.18912386
v 0.35734602 -0.09395050 -0.18912606
v 0.35803475 -0.12440973 -0.05620362
v 0.32449751 -0.12514608 -0.05241636
v 0.32372525 -0.09140222 -0.03934744
v 0.35730939 -0.09093770 -0.05957764
v 0.32937207 -0.12613081 -0.23194790
v 0.32819464 -0.09570162 -0.21906874
v 0.35822158 -0.12458997 -0.04828621
v 0.33210572 -0.09124030 -0.03934524
v 0.35751381 -0.09085271 -0.05068869
v 0.32978457 -0.12644660 -0.24081633
v 0.35874399 -0.12509186 -0.21907534
v 0.32859395 -0.09608628 -0.22763531
v 0.35852271 -0.12487865 -0.21088684
v 0.35843333 -0.12479292 -0.03932912
v 0.32388645 -0.09975045 -0.03934524
v 0.35777464 -0.09074354 -0.03933792
v 0.32363220 -0.09131283 -0.00938351
v 0.35816443 -0.09512207 -0.21907240
v 0.33016483 -0.12673894 -0.24900923
v 0.32902184 -0.09649805 -0.23681367
v 0.32437295 -0.12560254 -0.03478427
v 0.32959041 -0.09704537 -0.24900190
v 0.35794169 -0.09072522 -0.03427725
v 0.32434657 -0.12595863 -0.02404383
v 0.35955360 -0.12587071 -0.24082366
v 0.33003368 -0.09747179 -0.25738822
v 0.35865680 -0.12500833 -0.03270564
v 0.35808896 -0.09070837 -0.02982985
v 0.35928398 -0.09647094 -0.24900923
v 0.35985840 -0.12616451 -0.24901728
v 0.33051579 -0.09793558 -0.26649991
v 0.33056488 -0.12708257 -0.25658007
v 0.32434144 -0.12603409 -0.02177983
v 0.35894914 -0.12528969 -0.02404383
v 0.35828020 -0.09068712 -0.02404383
v 0.33083377 -0.12731410 -0.26167810
v 0.32430627 -0.12618356 -0.00938351
v 0.35835493 -0.09067906 -0.02177983
v 0.33117301 -0.09856716 -0.27892553
v 0.35987232 -0.09710252 -0.26140188
v 0.33131002 -0.12772440 -0.27069234
v 0.35902534 -0.12536295 -0.02177983
v 0.32430847 -0.12628834 -0.00066601
v 0.32363220 -0.09131283 0.34986566
v 0.35850293 -0.09063803 -0.00938351
v 0.33174524 -0.12809954 -0.27894678
v 0.36067754 -0.12695215 -0.26630355
v 0.33174377 -0.12809880 -0.27892553
v 0.35822671 -0.09064316 0.02056577
v 0.36030314 -0.09756558 -0.27047326
v 0.35928398 -0.12561207 -0.00066601
v 0.32430115 -0.12590661 0.02056577
v 0.36651925 -0.09048343 0.34986566
v 0.35860771 -0.09063583 -0.00066601
v 0.36033391 -0.09759855 -0.27112389
v 0.36127615 -0.12752877 -0.27894678
v 0.35889565 -0.12523767 0.02056577
v 0.32446160 -0.13419988 0.34986566
v 0.36734865 -0.13337048 0.34986566
v 0.36070392 -0.09799640 -0.27892553
v 0.33294171 -0.10026846 -0.30883964
v 0.33351321 -0.12975467 -0.30886162
v 0.33351174 -0.12975321 -0.30883964
v 0.36299723 -0.12918391 -0.30886162
v 0.36070539 -0.09799786 -0.27894678
v 0.33430451 -0.13054378 -0.32096633
v 0.36242573 -0.09969843 -0.30883964
v 0.33491264 -0.13115044 -0.33026704
v 0.36242720 -0.09969989 -0.30886162
v 0.33404734 -0.10133232 -0.32575736
v 0.33546728 -0.13170289 -0.33875008
v 0.36444795 -0.13057968 -0.33027877
v 0.36445014 -0.10157703 -0.33875008
v 0.33489579 -0.10214853 -0.33874202
v 0.33645568 -0.10364980 -0.36053137
v 0.36502164 -0.13113139 -0.33875741
v 0.33703596 -0.10420738 -0.36863268
v 0.33761112 -0.13394564 -0.36863268
v 0.36548177 -0.10248996 -0.35201976
v 0.36643792 -0.13249419 -0.35693828
v 0.36614411 -0.10307538 -0.36053504
v 0.36734865 -0.13337048 -0.36863268
v 0.36677349 -0.10363222 -0.36863268
v 0.35817322 0.09002184 -0.12920406
v 0.32667651 0.09012368 -0.12922824
v 0.35817322 0.09002257 -0.12922824
v 0.32603468 0.08948625 -0.09927090
v 0.32724947 0.09069298 -0.15004458
v 0.35837544 0.09084392 -0.15917312
v 0.35826920 0.08938221 -0.09927090
v 0.32677689 0.12162039 -0.12920406
v 0.32760043 0.12181749 -0.15917312
v 0.35827433 0.12151928 -0.12920406
v 0.35826920 0.08938221 -0.09924233
v 0.32557602 0.08903052 -0.06930990
v 0.32613799 0.12172077 -0.09927090
v 0.32677762 0.12162039 -0.12922824
v 0.32750079 0.09094283 -0.15918118
v 0.32734912 0.12175741 -0.15003213
v 0.35838643 0.12163065 -0.14597012
v 0.35837251 0.12161673 -0.09924233
v 0.32709634 0.12169659 -0.14082739
v 0.32820783 0.09164547 -0.18017557
v 0.35847509 0.12171857 -0.15916579
v 0.35866339 0.08892428 -0.06930990
v 0.32613799 0.12172077 -0.09924233
v 0.35887660 0.09184696 -0.18912606
v 0.32850896 0.09194441 -0.18912826
v 0.35861430 0.12185705 -0.16753600
v 0.35866412 0.08892428 -0.06928280
v 0.32568299 0.12211789 -0.06930990
v 0.35922463 0.09236277 -0.20216128
v 0.32799535 0.12201165 -0.17093566
v 0.35877036 0.12201165 -0.06928280
v 0.35886781 0.08884295 -0.06048250
v 0.32568226 0.12211789 -0.06928280
v 0.35945762 0.09270787 -0.21088610
v 0.32830601 0.12216405 -0.18016897
v 0.35875498 0.12199699 -0.17598973
v 0.35935724 0.08864805 -0.03933792
v 0.32547198 0.08892721 -0.05793569
v 0.32560679 0.12231205 -0.06092578
v 0.32922406 0.09265512 -0.20708859
v 0.35967596 0.09303245 -0.21907240
v 0.35897405 0.12221460 -0.18912386
v 0.32860714 0.12231205 -0.18912606
v 0.35907443 0.12231351 -0.05620362
v 0.35905391 0.08876822 -0.05241636
v 0.32530126 0.08875723 -0.03934744
v 0.32559434 0.12234356 -0.05957764
v 0.36014854 0.09362006 -0.23194790
v 0.32970031 0.09312843 -0.21906874
v 0.35925833 0.12249669 -0.04828621
v 0.32532837 0.09713915 -0.03934524
v 0.32551374 0.12254944 -0.05068869
v 0.36047386 0.09402451 -0.24081633
v 0.35977268 0.12300737 -0.21907534
v 0.33009376 0.09351895 -0.22763531
v 0.35955434 0.12279123 -0.21088684
v 0.35946641 0.12270330 -0.03932912
v 0.33365095 0.08873085 -0.03934524
v 0.32541117 0.12281321 -0.03933792
v 0.32520968 0.08866637 -0.00938351
v 0.32979702 0.12310408 -0.21907240
v 0.36077426 0.09439891 -0.24900923
v 0.33051506 0.09393805 -0.23681367
v 0.35950744 0.08863340 -0.03478427
v 0.33107483 0.09449416 -0.24900190
v 0.32539578 0.12298026 -0.03427725
v 0.35986280 0.08859970 -0.02404383
v 0.36056911 0.12379940 -0.24082366
v 0.33151151 0.09492791 -0.25738822
v 0.35968695 0.12292238 -0.03270564
v 0.32538259 0.12312753 -0.02982985
v 0.33117081 0.12419285 -0.24900923
v 0.36086951 0.12409761 -0.24901728
v 0.33198629 0.09539902 -0.26649991
v 0.36112668 0.09479090 -0.25658007
v 0.35993826 0.08859237 -0.02177983
v 0.35997417 0.12320812 -0.02404383
v 0.32536574 0.12331949 -0.02404383
v 0.36136480 0.09505466 -0.26167810
v 0.36008700 0.08855427 -0.00938351
v 0.32535914 0.12339423 -0.02177983
v 0.33263252 0.09604159 -0.27892553
v 0.33181557 0.12476655 -0.26140188
v 0.36178537 0.09552065 -0.27069234
v 0.36004963 0.12328286 -0.02177983
v 0.36019177 0.08855354 -0.00066601
v 0.32520968 0.08866637 0.34986566
v 0.32532178 0.12354369 -0.00938351
v 0.36217003 0.09594781 -0.27894678
v 0.36167546 0.12489843 -0.26630355
v 0.36216929 0.09594707 -0.27892553
v 0.32532104 0.12326674 0.02056577
v 0.33228816 0.12518711 -0.27047326
v 0.36030461 0.12353637 -0.00066601
v 0.35981004 0.08855500 0.02056577
v 0.32534742 0.13156148 0.34986566
v 0.32532178 0.12364847 -0.00066601
v 0.33232186 0.12521715 -0.27112389
v 0.36226527 0.12548458 -0.27894678
v 0.35992141 0.12315610 0.02056577
v 0.36810478 0.08852863 0.34986566
v 0.36824253 0.13142373 0.34986566
v 0.33272777 0.12557836 -0.27892553
v 0.33437338 0.09777146 -0.30883964
v 0.36386473 0.09767768 -0.30886162
v 0.36386326 0.09767621 -0.30883964
v 0.36395925 0.12716756 -0.30886162
v 0.33272923 0.12557910 -0.27894678
v 0.36467142 0.09845139 -0.32096633
v 0.33446790 0.12726134 -0.30883964
v 0.36529127 0.09904634 -0.33026704
v 0.33446936 0.12726281 -0.30886162
v 0.33546215 0.09885291 -0.32575736
v 0.36585690 0.09958779 -0.33875008
v 0.36538652 0.12858604 -0.33027877
v 0.33639193 0.12924253 -0.33875008
v 0.33629741 0.09968304 -0.33874202
v 0.33783239 0.10120849 -0.36053137
v 0.36595215 0.12914728 -0.33875741
v 0.33840389 0.10177559 -0.36863268
v 0.36814728 0.10168034 -0.36863268
v 0.33732757 0.13025363 -0.35201976
v 0.36734645 0.13053279 -0.35693828
v 0.33792837 0.13090206 -0.36053504
v 0.36824253 0.13142373 -0.36863268
v 0.33849914 0.13151898 -0.36863268
v 0.35230221 0.08858358 0.22182218
v 0.35101708 0.08913236 0.22156500
v 0.35101708 0.08858797 0.22156500
v 0.35230221 0.08913236 0.22182218
v 0.34972315 0.08913236 0.22135399
v 0.35230221 -0.09078383 0.22182218
v 0.35357782 0.08857918 0.22212477
v 0.34057264 0.08913236 0.34986566
v 0.34972315 0.08859164 0.22135399
v 0.35101708 -0.09080875 0.22156500
v 0.35357782 -0.09075966 0.22212477
v 0.35357782 0.08913236 0.22212477
v 0.34842264 0.08913236 0.22118913
v 0.35484170 0.08857552 0.22247280
v 0.35484170 -0.09073474 0.22247280
v 0.35484170 0.08913236 0.22247280
v 0.34842264 0.08859603 0.22118913
v 0.34972315 -0.09083366 0.22135399
v 0.34057264 0.08913236 0.22117961
v 0.35609166 0.08913236 0.22286552
v 0.34711772 0.08913236 0.22107117
v 0.34057264 0.08862095 0.22117961
v 0.35609166 0.08857112 0.22286552
v 0.35609166 -0.09071057 0.22286552
v 0.35681116 0.08913236 0.22457488
v 0.34711772 0.08860043 0.22107117
v 0.34842264 -0.09085930 0.22118913
v 0.34187902 0.08913236 0.22106458
v 0.34057264 0.08862095 0.34986566
v 0.34187902 0.08861728 0.22106458
v 0.35747644 0.08913236 0.22630695
v 0.34580841 0.08913236 0.22099937
v 0.36284336 0.08854988 0.34986566
v 0.34057264 -0.09101097 0.34986566
v 0.34187902 -0.09098532 0.22106458
v 0.35681116 -0.09069665 0.22457488
v 0.35681116 0.08856892 0.22457488
v 0.35808530 0.08913236 0.22805880
v 0.34580841 0.08860409 0.22099937
v 0.34711772 -0.09088421 0.22107117
v 0.34318759 0.08913236 0.22099571
v 0.34318759 0.08861289 0.22099571
v 0.36284336 0.08913236 0.34986566
v 0.36284336 -0.09058015 0.34986566
v 0.34057264 -0.09101097 0.22117961
v 0.34318759 -0.09096041 0.22099571
v 0.35609166 -0.09101097 0.22286552
v 0.35747644 0.08856673 0.22630695
v 0.35863848 0.08913236 0.22982897
v 0.34449837 0.08913236 0.22097446
v 0.36308588 0.08913236 0.33913547
v 0.36308588 -0.09057575 0.33913547
v 0.34842264 -0.09101097 0.22118913
v 0.36284336 -0.09101097 0.34986566
v 0.35747644 -0.09068419 0.22630695
v 0.35681116 -0.09101097 0.22457488
v 0.35808530 0.08856526 0.22805880
v 0.35913451 0.08913236 0.23161672
v 0.34449837 0.08860849 0.22097446
v 0.34580841 -0.09090986 0.22099937
v 0.34449837 -0.09093477 0.22097446
v 0.36323169 0.08913236 0.32840309
v 0.36308588 0.08854914 0.33913547
v 0.36308588 -0.09101097 0.33913547
v 0.34711772 -0.09101097 0.22107117
v 0.34972315 -0.09101097 0.22135399
v 0.35808530 -0.09067247 0.22805880
v 0.35863848 0.08856306 0.22982897
v 0.35957339 0.08913236 0.23341913
v 0.36328005 0.08913236 0.31767070
v 0.36323169 -0.09057282 0.32840309
v 0.36323169 -0.09101097 0.32840309
v 0.34187902 -0.09101097 0.22106458
v 0.35101708 -0.09101097 0.22156500
v 0.35747644 -0.09101097 0.22630695
v 0.35484170 -0.09101097 0.22247280
v 0.35863848 -0.09066148 0.22982897
v 0.35913451 0.08856160 0.23161672
v 0.35995438 0.08913236 0.23523399
v 0.36323169 0.08913236 0.30693758
v 0.36323169 0.08854841 0.32840309
v 0.34580841 -0.09101097 0.22099937
v 0.35230221 -0.09101097 0.22182218
v 0.36328005 -0.09101097 0.31767070
v 0.35357782 -0.09101097 0.22212477
v 0.35808530 -0.09101097 0.22805880
v 0.35913451 -0.09065195 0.23161672
v 0.35957339 0.08856013 0.23341913
v 0.36027750 0.08913236 0.23706058
v 0.36308515 0.08913236 0.29620520
v 0.36323169 0.08854841 0.30693758
v 0.36328005 0.08854841 0.31767070
v 0.36328005 -0.09057136 0.31767070
v 0.34318759 -0.09101097 0.22099571
v 0.36323169 -0.09101097 0.30693758
v 0.35863848 -0.09101097 0.22982897
v 0.35957339 -0.09064316 0.23341913
v 0.35995438 0.08855867 0.23523399
v 0.36054273 0.08913236 0.23889669
v 0.36284190 0.08913236 0.28547501
v 0.36308515 0.08854914 0.29620520
v 0.34449837 -0.09101097 0.22097446
v 0.36308515 -0.09101097 0.29620520
v 0.35913451 -0.09101097 0.23161672
v 0.35995438 -0.09063583 0.23523399
v 0.36027750 0.08855793 0.23706058
v 0.36074861 0.08913236 0.24074013
v 0.36250120 0.08913236 0.27474702
v 0.36284190 0.08854988 0.28547501
v 0.36323169 -0.09057282 0.30693758
v 0.36284190 -0.09101097 0.28547501
v 0.35957339 -0.09101097 0.23341913
v 0.36027750 -0.09062997 0.23706058
v 0.36054273 0.08855720 0.23889669
v 0.36089588 0.08913236 0.24258870
v 0.36206305 0.08913236 0.26402343
v 0.36250120 0.08855061 0.27474702
v 0.36308515 -0.09057575 0.29620520
v 0.36250120 -0.09101097 0.27474702
v 0.35995438 -0.09101097 0.23523399
v 0.36054273 -0.09062484 0.23889669
v 0.36074861 0.08855647 0.24074013
v 0.36152819 0.08913236 0.25330350
v 0.36206305 0.08855207 0.26402343
v 0.36284190 -0.09058015 0.28547501
v 0.36206305 -0.09101097 0.26402343
v 0.36027750 -0.09101097 0.23706058
v 0.36074861 -0.09062045 0.24074013
v 0.36089588 0.08855574 0.24258870
v 0.36152819 0.08855354 0.25330350
v 0.36250120 -0.09058674 0.27474702
v 0.36152819 -0.09101097 0.25330350
v 0.36054273 -0.09101097 0.23889669
v 0.36089588 -0.09061752 0.24258870
v 0.36206305 -0.09059553 0.26402343
v 0.36089588 -0.09101097 0.24258870
v 0.36074861 -0.09101097 0.24074013
v 0.36152819 -0.09060579 0.25330350
v -0.34316342 -0.12922055 0.32840309
v -0.34316342 -0.12921981 0.30693758
v -0.34316342 -0.12926890 0.31767070
v -0.34316342 -0.12907474 0.33913547
v 0.32363220 -0.12926890 0.31767070
v 0.32363220 -0.12922055 0.32840309
v 0.32363220 -0.12907474 0.33913547
v -0.34316342 -0.12907401 0.29620520
v 0.32363220 -0.12921981 0.30693758
v 0.32363220 -0.12883149 0.34986566
v -0.34316342 -0.12883149 0.34986566
v 0.32363220 -0.12907401 0.29620520
v -0.34316342 -0.12883002 0.28547501
v -0.34316342 -0.10656150 0.34986566
v 0.32363220 -0.12883002 0.28547501
v 0.32363220 -0.10656150 0.34986566
v -0.34316342 -0.12848933 0.27474702
v -0.34316342 -0.10656150 0.22117961
v 0.32363220 -0.12848933 0.27474702
v -0.34316342 -0.12805191 0.26402343
v 0.32363220 -0.10656150 0.22117961
v -0.34316342 -0.10786714 0.22106458
v 0.32363220 -0.12805191 0.26402343
v -0.34316342 -0.12751632 0.25330350
v 0.32363220 -0.10786714 0.22106458
v -0.34316342 -0.10917645 0.22099571
v 0.32363220 -0.12751632 0.25330350
v -0.34316342 -0.12688401 0.24258870
v 0.32363220 -0.10917645 0.22099571
v -0.34316342 -0.11048650 0.22097446
v 0.32363220 -0.12688401 0.24258870
v -0.34316342 -0.12673674 0.24074013
v 0.32363220 -0.11048650 0.22097446
v -0.34316342 -0.11179727 0.22099937
v 0.32363220 -0.12673674 0.24074013
v -0.34316342 -0.12653086 0.23889669
v 0.32363220 -0.11179727 0.22099937
v -0.34316342 -0.11310585 0.22107117
v 0.32363220 -0.12653086 0.23889669
v -0.34316342 -0.12626636 0.23706058
v 0.32363220 -0.11310585 0.22107117
v -0.34316342 -0.11441150 0.22118913
v 0.32363220 -0.12626636 0.23706058
v -0.34316342 -0.12594324 0.23523399
v 0.32363220 -0.11441150 0.22118913
v -0.34316342 -0.11571201 0.22135399
v 0.32363220 -0.12594324 0.23523399
v -0.34316342 -0.12556151 0.23341913
v 0.32363220 -0.11571201 0.22135399
v -0.34316342 -0.11700520 0.22156500
v 0.32363220 -0.12556151 0.23341913
v -0.34316342 -0.12512263 0.23161672
v 0.32363220 -0.11700520 0.22156500
v -0.34316342 -0.11829107 0.22182218
v 0.32363220 -0.12512263 0.23161672
v -0.34316342 -0.12462660 0.22982897
v 0.32363220 -0.11829107 0.22182218
v -0.34316342 -0.11956594 0.22212477
v 0.32363220 -0.12462660 0.22982897
v -0.34316342 -0.12407343 0.22805880
v 0.32363220 -0.11956594 0.22212477
v -0.34316342 -0.12082983 0.22247280
v 0.32363220 -0.12407343 0.22805880
v -0.34316342 -0.12346456 0.22630695
v 0.32363220 -0.12082983 0.22247280
v -0.34316342 -0.12208052 0.22286552
v 0.32363220 -0.12346456 0.22630695
v -0.34316342 -0.12280002 0.22457488
v 0.32363220 -0.12208052 0.22286552
v 0.32363220 -0.12280002 0.22457488
v -0.37151983 -0.09092305 0.22156500
v -0.37280570 0.08921955 0.22182218
v -0.37280570 -0.09092305 0.22182218
v -0.37151983 0.08921955 0.22156500
v -0.37408057 0.08921955 0.22212477
v -0.36107613 -0.09092305 0.34986566
v -0.37022664 -0.09092305 0.22135399
v -0.36107613 0.08921955 0.34986566
v -0.37408057 -0.09092305 0.22212477
v -0.37022664 0.08921955 0.22135399
v -0.37534445 0.08921955 0.22247280
v -0.36892612 -0.09092305 0.22118913
v -0.37534445 -0.09092305 0.22247280
v -0.36892612 0.08921955 0.22118913
v -0.37659515 0.08921955 0.22286552
v -0.36107613 -0.09092305 0.22117961
v -0.37659515 -0.09092305 0.22286552
v -0.36107613 0.08921955 0.22117961
v -0.37731465 0.08921955 0.22457488
v -0.36762048 -0.09092305 0.22107117
v -0.37731465 -0.09092305 0.22457488
v -0.36762048 0.08921955 0.22107117
v -0.37797919 0.08921955 0.22630695
v -0.36238177 -0.09092305 0.22106458
v -0.38334612 0.08921955 0.34986566
v -0.37797919 -0.09092305 0.22630695
v -0.36238177 0.08921955 0.22106458
v -0.37858806 0.08921955 0.22805880
v -0.36631190 -0.09092305 0.22099937
v -0.38334612 -0.09092305 0.34986566
v -0.38358937 0.08921955 0.33913547
v -0.37858806 -0.09092305 0.22805880
v -0.36631190 0.08921955 0.22099937
v -0.37914123 0.08921955 0.22982897
v -0.36369035 -0.09092305 0.22099571
v -0.36369035 0.08921955 0.22099571
v -0.38358937 -0.09092305 0.33913547
v -0.38373518 0.08921955 0.32840309
v -0.37914123 -0.09092305 0.22982897
v -0.37963726 0.08921955 0.23161672
v -0.36500112 -0.09092305 0.22097446
v -0.38373518 -0.09092305 0.32840309
v -0.38378353 0.08921955 0.31767070
v -0.37963726 -0.09092305 0.23161672
v -0.36500112 0.08921955 0.22097446
v -0.38007614 0.08921955 0.23341913
v -0.38378353 -0.09092305 0.31767070
v -0.38373444 0.08921955 0.30693758
v -0.38007614 -0.09092305 0.23341913
v -0.38045787 0.08921955 0.23523399
v -0.38373444 -0.09092305 0.30693758
v -0.38358864 0.08921955 0.29620520
v -0.38045787 -0.09092305 0.23523399
v -0.38078098 0.08921955 0.23706058
v -0.38358864 -0.09092305 0.29620520
v -0.38334465 0.08921955 0.28547501
v -0.38078098 -0.09092305 0.23706058
v -0.38104548 0.08921955 0.23889669
v -0.38334465 -0.09092305 0.28547501
v -0.38300395 0.08921955 0.27474702
v -0.38104548 -0.09092305 0.23889669
v -0.38125137 0.08921955 0.24074013
v -0.38300395 -0.09092305 0.27474702
v -0.38256581 0.08921955 0.26402343
v -0.38125137 -0.09092305 0.24074013
v -0.38139864 0.08921955 0.24258870
v -0.38256581 -0.09092305 0.26402343
v -0.38203095 0.08921955 0.25330350
v -0.38139864 -0.09092305 0.24258870
v -0.38203095 -0.09092305 0.25330350
v 0.32534742 0.12907474 0.33913547
v -0.34244172 0.12922055 0.32840309
v 0.32534742 0.12922055 0.32840309
v -0.34244172 0.12907474 0.33913547
v -0.34244172 0.12926890 0.31767070
v 0.32534742 0.12921981 0.30693758
v 0.32534742 0.12883149 0.34986566
v -0.34244172 0.12921981 0.30693758
v 0.32534742 0.12926890 0.31767070
v 0.32534742 0.12907401 0.29620520
v -0.34244172 0.12883149 0.34986566
v -0.34244172 0.12907401 0.29620520
v 0.32534742 0.10656150 0.34986566
v 0.32534742 0.12883002 0.28547501
v -0.34244172 0.12883002 0.28547501
v -0.34244172 0.10656150 0.34986566
v 0.32534742 0.10656150 0.22117961
v 0.32534742 0.12848933 0.27474702
v -0.34244172 0.10656150 0.22117961
v 0.32534742 0.10786714 0.22106458
v -0.34244172 0.12848933 0.27474702
v 0.32534742 0.12805191 0.26402343
v -0.34244172 0.10786714 0.22106458
v 0.32534742 0.10917645 0.22099571
v -0.34244172 0.12805191 0.26402343
v 0.32534742 0.12751632 0.25330350
v -0.34244172 0.10896251 0.22100230
v 0.32534742 0.11048650 0.22097446
v -0.34218308 0.10917645 0.22099790
v -0.34244172 0.12751632 0.25330350
v 0.32534742 0.12688401 0.24258870
v -0.34244172 0.10917645 0.22099571
v 0.32534742 0.11179727 0.22099937
v -0.34244172 0.12688401 0.24258870
v 0.32534742 0.12673674 0.24074013
v -0.34244172 0.11048650 0.22097446
v 0.32534742 0.11310585 0.22107117
v -0.34218308 0.11179727 0.22099937
v -0.34244172 0.12673674 0.24074013
v 0.32534742 0.12653086 0.23889669
v -0.34244172 0.11179727 0.22099937
v 0.32534742 0.11441150 0.22118913
v -0.34244172 0.12653086 0.23889669
v 0.32534742 0.12626636 0.23706058
v -0.34244172 0.11310585 0.22107117
v 0.32534742 0.11571201 0.22135399
v -0.34244172 0.11441150 0.22118913
v -0.34244172 0.12626636 0.23706058
v 0.32534742 0.12594324 0.23523399
v 0.32534742 0.11700520 0.22156500
v -0.34244172 0.11571201 0.22135399
v -0.34244172 0.12594324 0.23523399
v 0.32534742 0.12556151 0.23341913
v 0.32534742 0.11829107 0.22182218
v -0.34244172 0.11700520 0.22156500
v -0.34244172 0.12556151 0.23341913
v 0.32534742 0.12512263 0.23161672
v 0.32534742 0.11956594 0.22212477
v -0.34244172 0.11829107 0.22182218
v -0.34244172 0.12512263 0.23161672
v 0.32534742 0.12462660 0.22982897
v 0.32534742 0.12082983 0.22247280
v -0.34244172 0.11956594 0.22212477
v -0.34244172 0.12462660 0.22982897
v 0.32534742 0.12407343 0.22805880
v 0.32534742 0.12208052 0.22286552
v -0.34244172 0.12082983 0.22247280
v -0.34244172 0.12407343 0.22805880
v 0.32534742 0.12346456 0.22630695
v 0.32534742 0.12280002 0.22457488
v -0.34244172 0.12208052 0.22286552
v -0.34244172 0.12346456 0.22630695
v -0.34244172 0.12280002 0.22457488
f 1 2 3
f 2 1 4
f 3 2 1
f 4 1 2
f 4 1 5
f 5 1 4
f 4 5 6
f 6 5 4
f 6 5 7
f 7 5 6
f 6 7 8
f 8 7 6
f 8 7 9
f 9 7 8
f 8 9 10
f 10 9 8
f 10 9 11
f 11 9 10
f 10 11 12
f 12 11 10
f 12 11 13
f 13 11 12
f 12 13 14
f 14 13 12
f 14 13 15
f 15 13 14
f 14 16 12
f 12 16 14
f 17 15 13
f 13 15 17
f 14 15 18
f 18 15 14
f 16 14 19
f 19 14 16
f 15 17 20
f 20 17 15
f 18 15 21
f 21 15 18
f 22 16 19
f 19 16 22
f 17 23 20
f 20 23 17
f 18 21 24
f 24 21 18
f 17 16 22
f 22 16 17
f 22 19 25
f 25 19 22
f 23 17 26
f 26 17 23
f 20 23 27
f 27 23 20
f 24 21 28
f 28 21 24
f 29 16 17
f 17 16 29
f 17 22 30
f 30 22 17
f 25 19 31
f 31 19 25
f 25 32 22
f 22 32 25
f 26 17 33
f 33 17 26
f 26 34 23
f 23 34 26
f 35 27 23
f 23 27 35
f 20 27 36
f 36 27 20
f 24 28 37
f 37 28 24
f 29 38 16
f 16 38 29
f 39 30 22
f 22 30 39
f 17 30 40
f 40 30 17
f 31 19 41
f 41 19 31
f 42 25 31
f 31 25 42
f 32 25 43
f 43 25 32
f 44 22 32
f 32 22 44
f 33 17 45
f 45 17 33
f 33 30 26
f 26 30 33
f 34 26 46
f 46 26 34
f 23 34 47
f 47 34 23
f 27 35 48
f 48 35 27
f 23 49 35
f 35 49 23
f 27 50 36
f 36 50 27
f 20 36 51
f 51 36 20
f 37 28 52
f 52 28 37
f 53 38 29
f 29 38 53
f 46 30 39
f 39 30 46
f 39 22 54
f 54 22 39
f 33 40 30
f 30 40 33
f 17 40 55
f 55 40 17
f 41 19 56
f 56 19 41
f 51 31 41
f 41 31 51
f 57 25 42
f 42 25 57
f 42 31 58
f 58 31 42
f 25 59 43
f 43 59 25
f 35 32 43
f 43 32 35
f 60 22 44
f 44 22 60
f 49 44 32
f 32 44 49
f 45 17 61
f 61 17 45
f 45 40 33
f 33 40 45
f 26 30 46
f 46 30 26
f 39 34 46
f 46 34 39
f 34 54 47
f 47 54 34
f 23 47 62
f 62 47 23
f 35 43 48
f 48 43 35
f 63 27 48
f 48 27 63
f 23 64 49
f 49 64 23
f 49 32 35
f 35 32 49
f 27 65 50
f 50 65 27
f 36 50 66
f 66 50 36
f 36 31 51
f 51 31 36
f 20 51 67
f 67 51 20
f 37 52 68
f 68 52 37
f 53 69 38
f 38 69 53
f 54 22 70
f 70 22 54
f 34 39 54
f 54 39 34
f 45 55 40
f 40 55 45
f 17 55 71
f 71 55 17
f 56 19 72
f 72 19 56
f 67 41 56
f 56 41 67
f 51 41 67
f 67 41 51
f 73 25 57
f 57 25 73
f 65 57 42
f 42 57 65
f 58 31 74
f 74 31 58
f 50 42 58
f 58 42 50
f 59 25 73
f 73 25 59
f 48 43 59
f 59 43 48
f 70 22 60
f 60 22 70
f 64 60 44
f 44 60 64
f 64 44 49
f 49 44 64
f 61 17 75
f 75 17 61
f 61 55 45
f 45 55 61
f 47 54 70
f 70 54 47
f 47 70 62
f 62 70 47
f 23 62 64
f 64 62 23
f 27 63 76
f 76 63 27
f 48 59 63
f 63 59 48
f 27 76 65
f 65 76 27
f 65 42 50
f 50 42 65
f 50 58 66
f 66 58 50
f 36 66 74
f 74 66 36
f 74 31 36
f 36 31 74
f 20 67 77
f 77 67 20
f 68 52 78
f 78 52 68
f 79 69 53
f 53 69 79
f 61 71 55
f 55 71 61
f 17 71 80
f 80 71 17
f 72 19 81
f 81 19 72
f 67 56 72
f 72 56 67
f 65 73 57
f 57 73 65
f 66 58 74
f 74 58 66
f 76 59 73
f 73 59 76
f 62 70 60
f 60 70 62
f 62 60 64
f 64 60 62
f 75 17 82
f 82 17 75
f 75 71 61
f 61 71 75
f 63 59 76
f 76 59 63
f 76 73 65
f 65 73 76
f 67 72 77
f 77 72 67
f 20 77 83
f 83 77 20
f 68 78 84
f 84 78 68
f 79 85 69
f 69 85 79
f 75 80 71
f 71 80 75
f 17 80 82
f 82 80 17
f 81 19 86
f 86 19 81
f 77 72 81
f 81 72 77
f 80 75 82
f 82 75 80
f 77 81 83
f 83 81 77
f 20 83 86
f 86 83 20
f 84 78 87
f 87 78 84
f 88 85 79
f 79 85 88
f 20 86 19
f 19 86 20
f 83 81 86
f 86 81 83
f 84 87 89
f 89 87 84
f 88 90 85
f 85 90 88
f 20 19 91
f 91 19 20
f 92 90 88
f 88 90 92
f 20 91 93
f 93 91 20
f 92 94 90
f 90 94 92
f 93 91 95
f 95 91 93
f 94 92 96
f 96 92 94
f 95 91 97
f 97 91 95
f 95 97 98
f 98 97 95
f 98 97 99
f 99 97 98
f 98 99 100
f 100 99 98
f 100 99 101
f 101 99 100
f 100 101 102
f 102 101 100
f 102 101 103
f 103 101 102
f 102 103 104
f 104 103 102
f 105 106 107
f 106 105 108
f 107 106 105
f 108 105 106
f 109 107 106
f 106 107 109
f 110 105 107
f 107 105 110
f 108 105 111
f 111 105 108
f 108 112 106
f 106 112 108
f 107 109 110
f 110 109 107
f 113 109 106
f 106 109 113
f 105 110 114
f 114 110 105
f 105 115 111
f 111 115 105
f 111 116 108
f 108 116 111
f 112 108 117
f 117 108 112
f 106 112 118
f 118 112 106
f 109 119 110
f 110 119 109
f 109 113 119
f 119 113 109
f 106 120 113
f 113 120 106
f 110 121 114
f 114 121 110
f 114 115 105
f 105 115 114
f 116 111 115
f 115 111 116
f 116 117 108
f 108 117 116
f 122 112 117
f 117 112 122
f 114 118 112
f 112 118 114
f 123 106 118
f 118 106 123
f 124 110 119
f 119 110 124
f 113 124 119
f 119 124 113
f 120 106 123
f 123 106 120
f 120 125 113
f 113 125 120
f 121 110 125
f 125 110 121
f 123 114 121
f 121 114 123
f 115 114 122
f 122 114 115
f 116 115 126
f 126 115 116
f 116 127 117
f 117 127 116
f 112 122 114
f 114 122 112
f 122 117 127
f 127 117 122
f 114 123 118
f 118 123 114
f 110 124 128
f 128 124 110
f 124 113 129
f 129 113 124
f 121 120 123
f 123 120 121
f 120 121 125
f 125 121 120
f 125 130 113
f 113 130 125
f 110 128 125
f 125 128 110
f 122 131 115
f 115 131 122
f 115 131 126
f 126 131 115
f 131 116 126
f 126 116 131
f 127 116 132
f 132 116 127
f 132 122 127
f 127 122 132
f 124 129 128
f 128 129 124
f 133 110 128
f 128 110 133
f 133 110 128
f 128 110 133
f 134 129 113
f 113 129 134
f 134 129 113
f 113 129 134
f 134 129 113
f 113 129 134
f 128 130 125
f 125 130 128
f 130 134 113
f 113 134 130
f 131 122 135
f 135 122 131
f 116 131 136
f 136 131 116
f 116 137 132
f 132 137 116
f 122 132 135
f 135 132 122
f 129 133 128
f 128 133 129
f 138 110 133
f 133 110 138
f 138 110 133
f 133 110 138
f 138 128 133
f 133 128 138
f 139 129 134
f 134 129 139
f 139 129 134
f 134 129 139
f 139 129 134
f 134 129 139
f 128 140 130
f 130 140 128
f 134 130 140
f 140 130 134
f 141 131 135
f 135 131 141
f 131 141 136
f 136 141 131
f 136 142 116
f 116 142 136
f 137 116 143
f 143 116 137
f 135 132 137
f 137 132 135
f 133 129 144
f 144 129 133
f 145 110 138
f 138 110 145
f 145 110 138
f 138 110 145
f 144 138 133
f 133 138 144
f 138 146 128
f 128 146 138
f 129 139 147
f 147 139 129
f 129 139 147
f 147 139 129
f 129 139 147
f 147 139 129
f 140 139 134
f 134 139 140
f 140 128 146
f 146 128 140
f 148 141 135
f 135 141 148
f 136 141 149
f 149 141 136
f 142 136 149
f 149 136 142
f 150 116 142
f 142 116 150
f 116 151 143
f 143 151 116
f 143 135 137
f 137 135 143
f 147 144 129
f 129 144 147
f 152 110 145
f 145 110 152
f 152 110 145
f 145 110 152
f 146 138 145
f 145 138 146
f 138 153 145
f 145 153 138
f 138 144 153
f 153 144 138
f 139 146 147
f 147 146 139
f 139 140 146
f 146 140 139
f 154 141 148
f 148 141 154
f 151 148 135
f 135 148 151
f 150 149 141
f 141 149 150
f 149 150 142
f 142 150 149
f 155 116 150
f 150 116 155
f 116 156 151
f 151 156 116
f 135 143 151
f 151 143 135
f 144 147 153
f 153 147 144
f 157 110 152
f 152 110 157
f 157 110 152
f 152 110 157
f 152 158 145
f 145 158 152
f 159 152 145
f 145 152 159
f 145 160 146
f 146 160 145
f 153 159 145
f 145 159 153
f 160 147 146
f 146 147 160
f 141 154 161
f 161 154 141
f 156 154 148
f 148 154 156
f 148 151 156
f 156 151 148
f 150 141 162
f 162 141 150
f 116 155 163
f 163 155 116
f 164 155 150
f 150 155 164
f 156 116 163
f 163 116 156
f 153 147 165
f 165 147 153
f 110 157 166
f 166 157 110
f 110 157 166
f 166 157 110
f 157 158 152
f 152 158 157
f 167 157 152
f 152 157 167
f 160 145 158
f 158 145 160
f 152 159 167
f 167 159 152
f 153 167 159
f 159 167 153
f 147 160 165
f 165 160 147
f 161 154 163
f 163 154 161
f 168 141 161
f 161 141 168
f 154 156 163
f 163 156 154
f 164 162 141
f 141 162 164
f 162 164 150
f 150 164 162
f 164 163 155
f 155 163 164
f 165 167 153
f 153 167 165
f 158 157 166
f 166 157 158
f 157 169 166
f 166 169 157
f 157 167 169
f 169 167 157
f 160 158 165
f 165 158 160
f 170 161 163
f 163 161 170
f 164 141 168
f 168 141 164
f 161 171 168
f 168 171 161
f 164 170 163
f 163 170 164
f 167 165 169
f 169 165 167
f 166 172 158
f 158 172 166
f 169 173 166
f 166 173 169
f 172 165 158
f 158 165 172
f 170 174 161
f 161 174 170
f 164 168 171
f 171 168 164
f 174 171 161
f 161 171 174
f 164 175 170
f 170 175 164
f 169 165 176
f 176 165 169
f 172 166 177
f 177 166 172
f 169 178 173
f 173 178 169
f 173 179 166
f 166 179 173
f 165 172 176
f 176 172 165
f 174 170 175
f 175 170 174
f 164 171 180
f 180 171 164
f 171 174 181
f 181 174 171
f 164 182 175
f 175 182 164
f 176 178 169
f 169 178 176
f 166 179 177
f 177 179 166
f 172 177 176
f 176 177 172
f 183 173 178
f 178 173 183
f 173 183 179
f 179 183 173
f 175 181 174
f 174 181 175
f 181 180 171
f 171 180 181
f 164 180 184
f 184 180 164
f 164 185 182
f 182 185 164
f 181 175 182
f 182 175 181
f 178 176 186
f 186 176 178
f 183 177 179
f 179 177 183
f 177 187 176
f 176 187 177
f 178 188 183
f 183 188 178
f 180 181 189
f 189 181 180
f 180 190 184
f 184 190 180
f 184 191 164
f 164 191 184
f 185 164 192
f 192 164 185
f 189 182 185
f 185 182 189
f 182 189 181
f 181 189 182
f 187 186 176
f 176 186 187
f 188 178 186
f 186 178 188
f 193 177 183
f 183 177 193
f 187 177 194
f 194 177 187
f 195 183 188
f 188 183 195
f 189 190 180
f 180 190 189
f 191 184 190
f 190 184 191
f 191 196 164
f 164 196 191
f 196 192 164
f 164 192 196
f 192 189 185
f 185 189 192
f 197 186 187
f 187 186 197
f 188 186 195
f 195 186 188
f 193 194 177
f 177 194 193
f 193 183 195
f 195 183 193
f 194 197 187
f 187 197 194
f 190 189 198
f 198 189 190
f 191 190 199
f 199 190 191
f 196 191 200
f 200 191 196
f 192 196 201
f 201 196 192
f 189 192 198
f 198 192 189
f 186 197 202
f 202 197 186
f 186 193 195
f 195 193 186
f 194 193 203
f 203 193 194
f 197 194 203
f 203 194 197
f 204 190 198
f 198 190 204
f 190 204 199
f 199 204 190
f 191 199 205
f 205 199 191
f 191 206 200
f 200 206 191
f 206 196 200
f 200 196 206
f 204 201 196
f 196 201 204
f 198 192 201
f 201 192 198
f 203 202 197
f 197 202 203
f 186 202 207
f 207 202 186
f 208 193 186
f 186 193 208
f 209 203 193
f 193 203 209
f 201 204 198
f 198 204 201
f 204 205 199
f 199 205 204
f 206 191 205
f 205 191 206
f 196 206 204
f 204 206 196
f 203 207 202
f 202 207 203
f 207 208 186
f 186 208 207
f 193 208 210
f 210 208 193
f 203 209 211
f 211 209 203
f 209 193 210
f 210 193 209
f 205 204 206
f 206 204 205
f 207 203 212
f 212 203 207
f 212 208 207
f 207 208 212
f 208 209 210
f 210 209 208
f 213 211 209
f 209 211 213
f 211 214 203
f 203 214 211
f 203 214 212
f 212 214 203
f 208 212 214
f 214 212 208
f 208 213 209
f 209 213 208
f 215 211 213
f 213 211 215
f 214 211 216
f 216 211 214
f 216 208 214
f 214 208 216
f 213 208 217
f 217 208 213
f 211 215 218
f 218 215 211
f 217 215 213
f 213 215 217
f 219 216 211
f 211 216 219
f 208 216 220
f 220 216 208
f 220 217 208
f 208 217 220
f 215 221 218
f 218 221 215
f 218 219 211
f 211 219 218
f 215 217 221
f 221 217 215
f 216 219 220
f 220 219 216
f 217 220 221
f 221 220 217
f 222 218 221
f 221 218 222
f 219 218 223
f 223 218 219
f 219 223 220
f 220 223 219
f 224 221 220
f 220 221 224
f 218 222 225
f 225 222 218
f 221 224 222
f 222 224 221
f 218 225 223
f 223 225 218
f 223 226 220
f 220 226 223
f 226 224 220
f 220 224 226
f 222 224 225
f 225 224 222
f 225 227 223
f 223 227 225
f 226 223 227
f 227 223 226
f 228 224 226
f 226 224 228
f 224 229 225
f 225 229 224
f 227 225 229
f 229 225 227
f 227 228 226
f 226 228 227
f 224 228 230
f 230 228 224
f 229 224 230
f 230 224 229
f 228 227 229
f 229 227 228
f 228 229 230
f 230 229 228
f 231 232 233
f 232 231 234
f 233 232 231
f 234 231 232
f 235 233 232
f 232 233 235
f 236 231 233
f 233 231 236
f 234 231 237
f 237 231 234
f 234 238 232
f 232 238 234
f 233 235 236
f 236 235 233
f 239 235 232
f 232 235 239
f 231 236 240
f 240 236 231
f 231 241 237
f 237 241 231
f 237 242 234
f 234 242 237
f 238 234 243
f 243 234 238
f 232 238 244
f 244 238 232
f 235 245 236
f 236 245 235
f 235 239 245
f 245 239 235
f 232 246 239
f 239 246 232
f 236 247 240
f 240 247 236
f 240 241 231
f 231 241 240
f 242 237 241
f 241 237 242
f 242 243 234
f 234 243 242
f 248 238 243
f 243 238 248
f 240 244 238
f 238 244 240
f 249 232 244
f 244 232 249
f 250 236 245
f 245 236 250
f 239 250 245
f 245 250 239
f 246 232 249
f 249 232 246
f 246 251 239
f 239 251 246
f 247 236 251
f 251 236 247
f 249 240 247
f 247 240 249
f 241 240 248
f 248 240 241
f 242 241 252
f 252 241 242
f 242 253 243
f 243 253 242
f 238 248 240
f 240 248 238
f 248 243 253
f 253 243 248
f 240 249 244
f 244 249 240
f 236 250 254
f 254 250 236
f 250 239 255
f 255 239 250
f 247 246 249
f 249 246 247
f 246 247 251
f 251 247 246
f 251 256 239
f 239 256 251
f 236 254 251
f 251 254 236
f 248 257 241
f 241 257 248
f 241 257 252
f 252 257 241
f 257 242 252
f 252 242 257
f 253 242 258
f 258 242 253
f 258 248 253
f 253 248 258
f 250 255 254
f 254 255 250
f 259 236 254
f 254 236 259
f 259 236 254
f 254 236 259
f 260 255 239
f 239 255 260
f 260 255 239
f 239 255 260
f 260 255 239
f 239 255 260
f 254 256 251
f 251 256 254
f 256 260 239
f 239 260 256
f 257 248 261
f 261 248 257
f 242 257 262
f 262 257 242
f 242 263 258
f 258 263 242
f 248 258 261
f 261 258 248
f 255 259 254
f 254 259 255
f 264 236 259
f 259 236 264
f 264 236 259
f 259 236 264
f 264 254 259
f 259 254 264
f 265 255 260
f 260 255 265
f 265 255 260
f 260 255 265
f 265 255 260
f 260 255 265
f 254 266 256
f 256 266 254
f 260 256 266
f 266 256 260
f 267 257 261
f 261 257 267
f 257 267 262
f 262 267 257
f 262 268 242
f 242 268 262
f 263 242 269
f 269 242 263
f 261 258 263
f 263 258 261
f 259 255 270
f 270 255 259
f 271 236 264
f 264 236 271
f 271 236 264
f 264 236 271
f 270 264 259
f 259 264 270
f 264 272 254
f 254 272 264
f 255 265 273
f 273 265 255
f 255 265 273
f 273 265 255
f 255 265 273
f 273 265 255
f 266 265 260
f 260 265 266
f 266 254 272
f 272 254 266
f 274 267 261
f 261 267 274
f 262 267 275
f 275 267 262
f 268 262 275
f 275 262 268
f 276 242 268
f 268 242 276
f 242 277 269
f 269 277 242
f 269 261 263
f 263 261 269
f 273 270 255
f 255 270 273
f 278 236 271
f 271 236 278
f 278 236 271
f 271 236 278
f 272 264 271
f 271 264 272
f 264 279 271
f 271 279 264
f 264 270 279
f 279 270 264
f 265 272 273
f 273 272 265
f 265 266 272
f 272 266 265
f 280 267 274
f 274 267 280
f 277 274 261
f 261 274 277
f 276 275 267
f 267 275 276
f 275 276 268
f 268 276 275
f 281 242 276
f 276 242 281
f 242 282 277
f 277 282 242
f 261 269 277
f 277 269 261
f 270 273 279
f 279 273 270
f 283 236 278
f 278 236 283
f 283 236 278
f 278 236 283
f 278 284 271
f 271 284 278
f 285 278 271
f 271 278 285
f 271 286 272
f 272 286 271
f 279 285 271
f 271 285 279
f 286 273 272
f 272 273 286
f 267 280 287
f 287 280 267
f 282 280 274
f 274 280 282
f 274 277 282
f 282 277 274
f 276 267 288
f 288 267 276
f 242 281 289
f 289 281 242
f 290 281 276
f 276 281 290
f 282 242 289
f 289 242 282
f 279 273 291
f 291 273 279
f 236 283 292
f 292 283 236
f 236 283 292
f 292 283 236
f 283 284 278
f 278 284 283
f 293 283 278
f 278 283 293
f 286 271 284
f 284 271 286
f 278 285 293
f 293 285 278
f 279 293 285
f 285 293 279
f 273 286 291
f 291 286 273
f 287 280 289
f 289 280 287
f 294 267 287
f 287 267 294
f 280 282 289
f 289 282 280
f 290 288 267
f 267 288 290
f 288 290 276
f 276 290 288
f 290 289 281
f 281 289 290
f 291 293 279
f 279 293 291
f 284 283 292
f 292 283 284
f 283 295 292
f 292 295 283
f 283 293 295
f 295 293 283
f 286 284 291
f 291 284 286
f 296 287 289
f 289 287 296
f 290 267 294
f 294 267 290
f 287 297 294
f 294 297 287
f 290 296 289
f 289 296 290
f 293 291 295
f 295 291 293
f 292 298 284
f 284 298 292
f 295 299 292
f 292 299 295
f 298 291 284
f 284 291 298
f 296 300 287
f 287 300 296
f 290 294 297
f 297 294 290
f 300 297 287
f 287 297 300
f 290 301 296
f 296 301 290
f 295 291 302
f 302 291 295
f 298 292 303
f 303 292 298
f 295 304 299
f 299 304 295
f 299 305 292
f 292 305 299
f 291 298 302
f 302 298 291
f 300 296 301
f 301 296 300
f 290 297 306
f 306 297 290
f 297 300 307
f 307 300 297
f 290 308 301
f 301 308 290
f 302 304 295
f 295 304 302
f 292 305 303
f 303 305 292
f 298 303 302
f 302 303 298
f 309 299 304
f 304 299 309
f 299 309 305
f 305 309 299
f 301 307 300
f 300 307 301
f 307 306 297
f 297 306 307
f 290 306 310
f 310 306 290
f 290 311 308
f 308 311 290
f 307 301 308
f 308 301 307
f 304 302 312
f 312 302 304
f 309 303 305
f 305 303 309
f 303 313 302
f 302 313 303
f 304 314 309
f 309 314 304
f 306 307 315
f 315 307 306
f 306 316 310
f 310 316 306
f 310 317 290
f 290 317 310
f 311 290 318
f 318 290 311
f 315 308 311
f 311 308 315
f 308 315 307
f 307 315 308
f 313 312 302
f 302 312 313
f 314 304 312
f 312 304 314
f 319 303 309
f 309 303 319
f 313 303 320
f 320 303 313
f 321 309 314
f 314 309 321
f 315 316 306
f 306 316 315
f 317 310 316
f 316 310 317
f 317 322 290
f 290 322 317
f 322 318 290
f 290 318 322
f 318 315 311
f 311 315 318
f 323 312 313
f 313 312 323
f 314 312 321
f 321 312 314
f 319 320 303
f 303 320 319
f 319 309 321
f 321 309 319
f 320 323 313
f 313 323 320
f 316 315 324
f 324 315 316
f 317 316 325
f 325 316 317
f 322 317 326
f 326 317 322
f 318 322 327
f 327 322 318
f 315 318 324
f 324 318 315
f 312 323 328
f 328 323 312
f 312 319 321
f 321 319 312
f 320 319 329
f 329 319 320
f 323 320 329
f 329 320 323
f 330 316 324
f 324 316 330
f 316 330 325
f 325 330 316
f 317 325 331
f 331 325 317
f 317 332 326
f 326 332 317
f 332 322 326
f 326 322 332
f 330 327 322
f 322 327 330
f 324 318 327
f 327 318 324
f 329 328 323
f 323 328 329
f 312 328 333
f 333 328 312
f 334 319 312
f 312 319 334
f 335 329 319
f 319 329 335
f 327 330 324
f 324 330 327
f 330 331 325
f 325 331 330
f 332 317 331
f 331 317 332
f 322 332 330
f 330 332 322
f 329 333 328
f 328 333 329
f 333 334 312
f 312 334 333
f 319 334 336
f 336 334 319
f 329 335 337
f 337 335 329
f 335 319 336
f 336 319 335
f 331 330 332
f 332 330 331
f 333 329 338
f 338 329 333
f 338 334 333
f 333 334 338
f 334 335 336
f 336 335 334
f 339 337 335
f 335 337 339
f 337 340 329
f 329 340 337
f 329 340 338
f 338 340 329
f 334 338 340
f 340 338 334
f 334 339 335
f 335 339 334
f 341 337 339
f 339 337 341
f 340 337 342
f 342 337 340
f 342 334 340
f 340 334 342
f 339 334 343
f 343 334 339
f 337 341 344
f 344 341 337
f 343 341 339
f 339 341 343
f 345 342 337
f 337 342 345
f 334 342 346
f 346 342 334
f 346 343 334
f 334 343 346
f 341 347 344
f 344 347 341
f 344 345 337
f 337 345 344
f 341 343 347
f 347 343 341
f 342 345 346
f 346 345 342
f 343 346 347
f 347 346 343
f 348 344 347
f 347 344 348
f 345 344 349
f 349 344 345
f 345 349 346
f 346 349 345
f 350 347 346
f 346 347 350
f 344 348 351
f 351 348 344
f 347 350 348
f 348 350 347
f 344 351 349
f 349 351 344
f 349 352 346
f 346 352 349
f 352 350 346
f 346 350 352
f 348 350 351
f 351 350 348
f 351 353 349
f 349 353 351
f 352 349 353
f 353 349 352
f 354 350 352
f 352 350 354
f 350 355 351
f 351 355 350
f 353 351 355
f 355 351 353
f 353 354 352
f 352 354 353
f 350 354 356
f 356 354 350
f 355 350 356
f 356 350 355
f 354 353 355
f 355 353 354
f 354 355 356
f 356 355 354
f 357 358 359
f 358 357 360
f 359 358 357
f 360 357 358
f 361 359 358
f 358 359 361
f 362 357 359
f 359 357 362
f 360 357 363
f 363 357 360
f 360 364 358
f 358 364 360
f 359 361 362
f 362 361 359
f 365 361 358
f 358 361 365
f 357 362 366
f 366 362 357
f 357 367 363
f 363 367 357
f 363 368 360
f 360 368 363
f 364 360 369
f 369 360 364
f 358 364 370
f 370 364 358
f 361 371 362
f 362 371 361
f 361 365 371
f 371 365 361
f 358 372 365
f 365 372 358
f 362 373 366
f 366 373 362
f 366 367 357
f 357 367 366
f 368 363 367
f 367 363 368
f 368 369 360
f 360 369 368
f 374 364 369
f 369 364 374
f 366 370 364
f 364 370 366
f 375 358 370
f 370 358 375
f 376 362 371
f 371 362 376
f 365 376 371
f 371 376 365
f 372 358 375
f 375 358 372
f 372 377 365
f 365 377 372
f 373 362 377
f 377 362 373
f 375 366 373
f 373 366 375
f 367 366 374
f 374 366 367
f 368 367 378
f 378 367 368
f 368 379 369
f 369 379 368
f 364 374 366
f 366 374 364
f 374 369 379
f 379 369 374
f 366 375 370
f 370 375 366
f 362 376 380
f 380 376 362
f 376 365 381
f 381 365 376
f 373 372 375
f 375 372 373
f 372 373 377
f 377 373 372
f 377 382 365
f 365 382 377
f 362 380 377
f 377 380 362
f 374 383 367
f 367 383 374
f 367 383 378
f 378 383 367
f 383 368 378
f 378 368 383
f 379 368 384
f 384 368 379
f 384 374 379
f 379 374 384
f 376 381 380
f 380 381 376
f 385 362 380
f 380 362 385
f 385 362 380
f 380 362 385
f 386 381 365
f 365 381 386
f 386 381 365
f 365 381 386
f 386 381 365
f 365 381 386
f 380 382 377
f 377 382 380
f 382 386 365
f 365 386 382
f 383 374 387
f 387 374 383
f 368 383 388
f 388 383 368
f 368 389 384
f 384 389 368
f 374 384 387
f 387 384 374
f 381 385 380
f 380 385 381
f 390 362 385
f 385 362 390
f 390 362 385
f 385 362 390
f 390 380 385
f 385 380 390
f 391 381 386
f 386 381 391
f 391 381 386
f 386 381 391
f 391 381 386
f 386 381 391
f 380 392 382
f 382 392 380
f 386 382 392
f 392 382 386
f 393 383 387
f 387 383 393
f 383 393 388
f 388 393 383
f 388 394 368
f 368 394 388
f 389 368 395
f 395 368 389
f 387 384 389
f 389 384 387
f 385 381 396
f 396 381 385
f 397 362 390
f 390 362 397
f 397 362 390
f 390 362 397
f 396 390 385
f 385 390 396
f 390 398 380
f 380 398 390
f 381 391 399
f 399 391 381
f 381 391 399
f 399 391 381
f 381 391 399
f 399 391 381
f 392 391 386
f 386 391 392
f 392 380 398
f 398 380 392
f 400 393 387
f 387 393 400
f 388 393 401
f 401 393 388
f 394 388 401
f 401 388 394
f 402 368 394
f 394 368 402
f 368 403 395
f 395 403 368
f 395 387 389
f 389 387 395
f 399 396 381
f 381 396 399
f 404 362 397
f 397 362 404
f 404 362 397
f 397 362 404
f 398 390 397
f 397 390 398
f 390 405 397
f 397 405 390
f 390 396 405
f 405 396 390
f 391 398 399
f 399 398 391
f 391 392 398
f 398 392 391
f 406 393 400
f 400 393 406
f 403 400 387
f 387 400 403
f 402 401 393
f 393 401 402
f 401 402 394
f 394 402 401
f 407 368 402
f 402 368 407
f 368 408 403
f 403 408 368
f 387 395 403
f 403 395 387
f 396 399 405
f 405 399 396
f 409 362 404
f 404 362 409
f 409 362 404
f 404 362 409
f 404 410 397
f 397 410 404
f 411 404 397
f 397 404 411
f 397 412 398
f 398 412 397
f 405 411 397
f 397 411 405
f 412 399 398
f 398 399 412
f 393 406 413
f 413 406 393
f 408 406 400
f 400 406 408
f 400 403 408
f 408 403 400
f 402 393 414
f 414 393 402
f 368 407 415
f 415 407 368
f 416 407 402
f 402 407 416
f 408 368 415
f 415 368 408
f 405 399 417
f 417 399 405
f 362 409 418
f 418 409 362
f 362 409 418
f 418 409 362
f 409 410 404
f 404 410 409
f 419 409 404
f 404 409 419
f 412 397 410
f 410 397 412
f 404 411 419
f 419 411 404
f 405 419 411
f 411 419 405
f 399 412 417
f 417 412 399
f 413 406 415
f 415 406 413
f 420 393 413
f 413 393 420
f 406 408 415
f 415 408 406
f 416 414 393
f 393 414 416
f 414 416 402
f 402 416 414
f 416 415 407
f 407 415 416
f 417 419 405
f 405 419 417
f 410 409 418
f 418 409 410
f 409 421 418
f 418 421 409
f 409 419 421
f 421 419 409
f 412 410 417
f 417 410 412
f 422 413 415
f 415 413 422
f 416 393 420
f 420 393 416
f 413 423 420
f 420 423 413
f 416 422 415
f 415 422 416
f 419 417 421
f 421 417 419
f 418 424 410
f 410 424 418
f 421 425 418
f 418 425 421
f 424 417 410
f 410 417 424
f 422 426 413
f 413 426 422
f 416 420 423
f 423 420 416
f 426 423 413
f 413 423 426
f 416 427 422
f 422 427 416
f 421 417 428
f 428 417 421
f 424 418 429
f 429 418 424
f 421 430 425
f 425 430 421
f 425 431 418
f 418 431 425
f 417 424 428
f 428 424 417
f 426 422 427
f 427 422 426
f 416 423 432
f 432 423 416
f 423 426 433
f 433 426 423
f 416 434 427
f 427 434 416
f 428 430 421
f 421 430 428
f 418 431 429
f 429 431 418
f 424 429 428
f 428 429 424
f 435 425 430
f 430 425 435
f 425 435 431
f 431 435 425
f 427 433 426
f 426 433 427
f 433 432 423
f 423 432 433
f 416 432 436
f 436 432 416
f 416 437 434
f 434 437 416
f 433 427 434
f 434 427 433
f 430 428 438
f 438 428 430
f 435 429 431
f 431 429 435
f 429 439 428
f 428 439 429
f 430 440 435
f 435 440 430
f 432 433 441
f 441 433 432
f 432 442 436
f 436 442 432
f 436 443 416
f 416 443 436
f 437 416 444
f 444 416 437
f 441 434 437
f 437 434 441
f 434 441 433
f 433 441 434
f 439 438 428
f 428 438 439
f 440 430 438
f 438 430 440
f 445 429 435
f 435 429 445
f 439 429 446
f 446 429 439
f 447 435 440
f 440 435 447
f 441 442 432
f 432 442 441
f 443 436 442
f 442 436 443
f 443 448 416
f 416 448 443
f 448 444 416
f 416 444 448
f 444 441 437
f 437 441 444
f 449 438 439
f 439 438 449
f 440 438 447
f 447 438 440
f 445 446 429
f 429 446 445
f 445 435 447
f 447 435 445
f 446 449 439
f 439 449 446
f 442 441 450
f 450 441 442
f 443 442 451
f 451 442 443
f 448 443 452
f 452 443 448
f 444 448 453
f 453 448 444
f 441 444 450
f 450 444 441
f 438 449 454
f 454 449 438
f 438 445 447
f 447 445 438
f 446 445 455
f 455 445 446
f 449 446 455
f 455 446 449
f 456 442 450
f 450 442 456
f 442 456 451
f 451 456 442
f 443 451 457
f 457 451 443
f 443 458 452
f 452 458 443
f 458 448 452
f 452 448 458
f 456 453 448
f 448 453 456
f 450 444 453
f 453 444 450
f 455 454 449
f 449 454 455
f 438 454 459
f 459 454 438
f 460 445 438
f 438 445 460
f 461 455 445
f 445 455 461
f 453 456 450
f 450 456 453
f 456 457 451
f 451 457 456
f 458 443 457
f 457 443 458
f 448 458 456
f 456 458 448
f 455 459 454
f 454 459 455
f 459 460 438
f 438 460 459
f 445 460 462
f 462 460 445
f 455 461 463
f 463 461 455
f 461 445 462
f 462 445 461
f 457 456 458
f 458 456 457
f 459 455 464
f 464 455 459
f 464 460 459
f 459 460 464
f 460 461 462
f 462 461 460
f 465 463 461
f 461 463 465
f 463 466 455
f 455 466 463
f 455 466 464
f 464 466 455
f 460 464 466
f 466 464 460
f 460 465 461
f 461 465 460
f 467 463 465
f 465 463 467
f 466 463 468
f 468 463 466
f 468 460 466
f 466 460 468
f 465 460 469
f 469 460 465
f 463 467 470
f 470 467 463
f 469 467 465
f 465 467 469
f 471 468 463
f 463 468 471
f 460 468 472
f 472 468 460
f 472 469 460
f 460 469 472
f 467 473 470
f 470 473 467
f 470 471 463
f 463 471 470
f 467 469 473
f 473 469 467
f 468 471 472
f 472 471 468
f 469 472 473
f 473 472 469
f 474 470 473
f 473 470 474
f 471 470 475
f 475 470 471
f 471 475 472
f 472 475 471
f 476 473 472
f 472 473 476
f 470 474 477
f 477 474 470
f 473 476 474
f 474 476 473
f 470 477 475
f 475 477 470
f 475 478 472
f 472 478 475
f 478 476 472
f 472 476 478
f 474 476 477
f 477 476 474
f 477 479 475
f 475 479 477
f 478 475 479
f 479 475 478
f 480 476 478
f 478 476 480
f 476 481 477
f 477 481 476
f 479 477 481
f 481 477 479
f 479 480 478
f 478 480 479
f 476 480 482
f 482 480 476
f 481 476 482
f 482 476 481
f 480 479 481
f 481 479 480
f 480 481 482
f 482 481 480
f 483 484 485
f 484 483 486
f 485 484 483
f 486 483 484
f 487 485 484
f 484 485 487
f 488 483 485
f 485 483 488
f 486 483 489
f 489 483 486
f 486 490 484
f 484 490 486
f 485 487 488
f 488 487 485
f 491 487 484
f 484 487 491
f 483 488 492
f 492 488 483
f 483 493 489
f 489 493 483
f 489 494 486
f 486 494 489
f 490 486 495
f 495 486 490
f 484 490 496
f 496 490 484
f 487 497 488
f 488 497 487
f 487 491 497
f 497 491 487
f 484 498 491
f 491 498 484
f 488 499 492
f 492 499 488
f 492 493 483
f 483 493 492
f 494 489 493
f 493 489 494
f 494 495 486
f 486 495 494
f 500 490 495
f 495 490 500
f 492 496 490
f 490 496 492
f 501 484 496
f 496 484 501
f 502 488 497
f 497 488 502
f 491 502 497
f 497 502 491
f 498 484 501
f 501 484 498
f 498 503 491
f 491 503 498
f 499 488 503
f 503 488 499
f 501 492 499
f 499 492 501
f 493 492 500
f 500 492 493
f 494 493 504
f 504 493 494
f 494 505 495
f 495 505 494
f 490 500 492
f 492 500 490
f 500 495 505
f 505 495 500
f 492 501 496
f 496 501 492
f 488 502 506
f 506 502 488
f 502 491 507
f 507 491 502
f 499 498 501
f 501 498 499
f 498 499 503
f 503 499 498
f 503 508 491
f 491 508 503
f 488 506 503
f 503 506 488
f 500 509 493
f 493 509 500
f 493 509 504
f 504 509 493
f 509 494 504
f 504 494 509
f 505 494 510
f 510 494 505
f 510 500 505
f 505 500 510
f 502 507 506
f 506 507 502
f 511 488 506
f 506 488 511
f 511 488 506
f 506 488 511
f 512 507 491
f 491 507 512
f 512 507 491
f 491 507 512
f 512 507 491
f 491 507 512
f 506 508 503
f 503 508 506
f 508 512 491
f 491 512 508
f 509 500 513
f 513 500 509
f 494 509 514
f 514 509 494
f 494 515 510
f 510 515 494
f 500 510 513
f 513 510 500
f 507 511 506
f 506 511 507
f 516 488 511
f 511 488 516
f 516 488 511
f 511 488 516
f 516 506 511
f 511 506 516
f 517 507 512
f 512 507 517
f 517 507 512
f 512 507 517
f 517 507 512
f 512 507 517
f 506 518 508
f 508 518 506
f 512 508 518
f 518 508 512
f 519 509 513
f 513 509 519
f 509 519 514
f 514 519 509
f 514 520 494
f 494 520 514
f 515 494 521
f 521 494 515
f 513 510 515
f 515 510 513
f 511 507 522
f 522 507 511
f 523 488 516
f 516 488 523
f 523 488 516
f 516 488 523
f 522 516 511
f 511 516 522
f 516 524 506
f 506 524 516
f 507 517 525
f 525 517 507
f 507 517 525
f 525 517 507
f 507 517 525
f 525 517 507
f 518 517 512
f 512 517 518
f 518 506 524
f 524 506 518
f 526 519 513
f 513 519 526
f 514 519 527
f 527 519 514
f 520 514 527
f 527 514 520
f 528 494 520
f 520 494 528
f 494 529 521
f 521 529 494
f 521 513 515
f 515 513 521
f 525 522 507
f 507 522 525
f 530 488 523
f 523 488 530
f 530 488 523
f 523 488 530
f 524 516 523
f 523 516 524
f 516 531 523
f 523 531 516
f 516 522 531
f 531 522 516
f 517 524 525
f 525 524 517
f 517 518 524
f 524 518 517
f 532 519 526
f 526 519 532
f 529 526 513
f 513 526 529
f 528 527 519
f 519 527 528
f 527 528 520
f 520 528 527
f 533 494 528
f 528 494 533
f 494 534 529
f 529 534 494
f 513 521 529
f 529 521 513
f 522 525 531
f 531 525 522
f 535 488 530
f 530 488 535
f 535 488 530
f 530 488 535
f 530 536 523
f 523 536 530
f 537 530 523
f 523 530 537
f 523 538 524
f 524 538 523
f 531 537 523
f 523 537 531
f 538 525 524
f 524 525 538
f 519 532 539
f 539 532 519
f 534 532 526
f 526 532 534
f 526 529 534
f 534 529 526
f 528 519 540
f 540 519 528
f 494 533 541
f 541 533 494
f 542 533 528
f 528 533 542
f 534 494 541
f 541 494 534
f 531 525 543
f 543 525 531
f 488 535 544
f 544 535 488
f 488 535 544
f 544 535 488
f 535 536 530
f 530 536 535
f 545 535 530
f 530 535 545
f 538 523 536
f 536 523 538
f 530 537 545
f 545 537 530
f 531 545 537
f 537 545 531
f 525 538 543
f 543 538 525
f 539 532 541
f 541 532 539
f 546 519 539
f 539 519 546
f 532 534 541
f 541 534 532
f 542 540 519
f 519 540 542
f 540 542 528
f 528 542 540
f 542 541 533
f 533 541 542
f 543 545 531
f 531 545 543
f 536 535 544
f 544 535 536
f 535 547 544
f 544 547 535
f 535 545 547
f 547 545 535
f 538 536 543
f 543 536 538
f 548 539 541
f 541 539 548
f 542 519 546
f 546 519 542
f 539 549 546
f 546 549 539
f 542 548 541
f 541 548 542
f 545 543 547
f 547 543 545
f 544 550 536
f 536 550 544
f 547 551 544
f 544 551 547
f 550 543 536
f 536 543 550
f 548 552 539
f 539 552 548
f 542 546 549
f 549 546 542
f 552 549 539
f 539 549 552
f 542 553 548
f 548 553 542
f 547 543 554
f 554 543 547
f 550 544 555
f 555 544 550
f 547 556 551
f 551 556 547
f 551 557 544
f 544 557 551
f 543 550 554
f 554 550 543
f 552 548 553
f 553 548 552
f 542 549 558
f 558 549 542
f 549 552 559
f 559 552 549
f 542 560 553
f 553 560 542
f 554 556 547
f 547 556 554
f 544 557 555
f 555 557 544
f 550 555 554
f 554 555 550
f 561 551 556
f 556 551 561
f 551 561 557
f 557 561 551
f 553 559 552
f 552 559 553
f 559 558 549
f 549 558 559
f 542 558 562
f 562 558 542
f 542 563 560
f 560 563 542
f 559 553 560
f 560 553 559
f 556 554 564
f 564 554 556
f 561 555 557
f 557 555 561
f 555 565 554
f 554 565 555
f 556 566 561
f 561 566 556
f 558 559 567
f 567 559 558
f 558 568 562
f 562 568 558
f 562 569 542
f 542 569 562
f 563 542 570
f 570 542 563
f 567 560 563
f 563 560 567
f 560 567 559
f 559 567 560
f 565 564 554
f 554 564 565
f 566 556 564
f 564 556 566
f 571 555 561
f 561 555 571
f 565 555 572
f 572 555 565
f 573 561 566
f 566 561 573
f 567 568 558
f 558 568 567
f 569 562 568
f 568 562 569
f 569 574 542
f 542 574 569
f 574 570 542
f 542 570 574
f 570 567 563
f 563 567 570
f 575 564 565
f 565 564 575
f 566 564 573
f 573 564 566
f 571 572 555
f 555 572 571
f 571 561 573
f 573 561 571
f 572 575 565
f 565 575 572
f 568 567 576
f 576 567 568
f 569 568 577
f 577 568 569
f 574 569 578
f 578 569 574
f 570 574 579
f 579 574 570
f 567 570 576
f 576 570 567
f 564 575 580
f 580 575 564
f 564 571 573
f 573 571 564
f 572 571 581
f 581 571 572
f 575 572 581
f 581 572 575
f 582 568 576
f 576 568 582
f 568 582 577
f 577 582 568
f 569 577 583
f 583 577 569
f 569 584 578
f 578 584 569
f 584 574 578
f 578 574 584
f 582 579 574
f 574 579 582
f 576 570 579
f 579 570 576
f 581 580 575
f 575 580 581
f 564 580 585
f 585 580 564
f 586 571 564
f 564 571 586
f 587 581 571
f 571 581 587
f 579 582 576
f 576 582 579
f 582 583 577
f 577 583 582
f 584 569 583
f 583 569 584
f 574 584 582
f 582 584 574
f 581 585 580
f 580 585 581
f 585 586 564
f 564 586 585
f 571 586 588
f 588 586 571
f 581 587 589
f 589 587 581
f 587 571 588
f 588 571 587
f 583 582 584
f 584 582 583
f 585 581 590
f 590 581 585
f 590 586 585
f 585 586 590
f 586 587 588
f 588 587 586
f 591 589 587
f 587 589 591
f 589 592 581
f 581 592 589
f 581 592 590
f 590 592 581
f 586 590 592
f 592 590 586
f 586 591 587
f 587 591 586
f 593 589 591
f 591 589 593
f 592 589 594
f 594 589 592
f 594 586 592
f 592 586 594
f 591 586 595
f 595 586 591
f 589 593 596
f 596 593 589
f 595 593 591
f 591 593 595
f 597 594 589
f 589 594 597
f 586 594 598
f 598 594 586
f 598 595 586
f 586 595 598
f 593 599 596
f 596 599 593
f 596 597 589
f 589 597 596
f 593 595 599
f 599 595 593
f 594 597 598
f 598 597 594
f 595 598 599
f 599 598 595
f 600 596 599
f 599 596 600
f 597 596 601
f 601 596 597
f 597 601 598
f 598 601 597
f 602 599 598
f 598 599 602
f 596 600 603
f 603 600 596
f 599 602 600
f 600 602 599
f 596 603 601
f 601 603 596
f 601 604 598
f 598 604 601
f 604 602 598
f 598 602 604
f 600 602 603
f 603 602 600
f 603 605 601
f 601 605 603
f 604 601 605
f 605 601 604
f 606 602 604
f 604 602 606
f 602 607 603
f 603 607 602
f 605 603 607
f 607 603 605
f 605 606 604
f 604 606 605
f 602 606 608
f 608 606 602
f 607 602 608
f 608 602 607
f 606 605 607
f 607 605 606
f 606 607 608
f 608 607 606
f 609 610 611
f 610 609 612
f 613 611 610
f 611 614 609
f 615 612 609
f 616 610 612
f 611 613 617
f 616 613 610
f 614 611 618
f 619 609 614
f 612 615 620
f 609 619 615
f 616 612 620
f 621 617 613
f 617 618 611
f 616 621 613
f 622 620 615
f 623 615 619
f 616 620 624
f 617 621 625
f 618 617 626
f 627 621 616
f 620 622 624
f 615 623 622
f 616 624 628
f 629 625 621
f 625 626 617
f 627 629 621
f 616 630 627
f 631 624 622
f 632 622 623
f 624 631 628
f 616 628 633
f 625 629 634
f 626 625 635
f 636 629 627
f 630 616 637
f 638 627 630
f 622 632 631
f 631 633 628
f 616 633 639
f 640 634 629
f 634 635 625
f 636 640 629
f 627 638 636
f 616 641 637
f 642 630 637
f 630 643 638
f 644 631 632
f 633 631 645
f 645 639 633
f 616 639 646
f 634 640 647
f 635 634 648
f 649 640 636
f 650 636 638
f 641 616 651
f 652 637 641
f 630 642 653
f 637 652 642
f 643 630 653
f 654 638 643
f 631 644 645
f 655 644 632
f 639 645 656
f 656 646 639
f 616 646 657
f 658 647 640
f 647 648 634
f 640 649 658
f 636 650 649
f 638 654 650
f 616 659 651
f 659 641 651
f 641 660 652
f 661 653 642
f 652 662 642
f 663 645 644
f 644 655 664
f 645 663 656
f 646 656 665
f 665 657 646
f 616 657 666
f 647 658 667
f 648 647 668
f 649 667 658
f 667 649 650
f 669 650 654
f 616 670 659
f 641 659 671
f 660 641 671
f 672 652 660
f 673 653 661
f 661 642 674
f 652 672 662
f 672 642 662
f 664 663 644
f 655 642 664
f 675 656 663
f 656 675 665
f 657 665 676
f 676 666 657
f 616 666 677
f 667 668 647
f 650 669 667
f 616 678 670
f 670 671 659
f 671 679 660
f 660 680 672
f 673 681 653
f 674 642 682
f 680 642 672
f 663 664 683
f 684 642 655
f 664 642 683
f 683 675 663
f 685 665 675
f 665 685 676
f 666 676 686
f 686 677 666
f 616 677 687
f 668 667 669
f 616 688 678
f 678 689 670
f 671 670 689
f 679 671 689
f 680 660 679
f 690 681 673
f 682 642 691
f 692 642 680
f 693 642 684
f 683 642 694
f 675 683 694
f 694 685 675
f 695 676 685
f 676 695 686
f 677 686 696
f 696 687 677
f 616 687 697
f 616 698 688
f 699 678 688
f 689 678 700
f 689 701 679
f 679 692 680
f 690 702 681
f 691 642 693
f 703 642 692
f 694 642 704
f 685 694 704
f 704 695 685
f 705 686 695
f 686 705 696
f 687 696 706
f 706 697 687
f 616 697 707
f 616 708 698
f 709 688 698
f 678 699 700
f 688 709 699
f 701 689 700
f 692 679 701
f 702 690 710
f 711 642 703
f 701 703 692
f 704 642 712
f 695 704 712
f 712 705 695
f 713 696 705
f 696 713 706
f 697 706 714
f 714 707 697
f 616 707 715
f 616 716 708
f 717 698 708
f 698 717 709
f 699 701 700
f 709 718 699
f 719 642 711
f 718 711 703
f 703 701 718
f 712 642 720
f 705 712 720
f 720 713 705
f 721 706 713
f 706 721 714
f 707 714 722
f 722 715 707
f 616 715 723
f 616 724 716
f 725 708 716
f 708 725 717
f 717 726 709
f 701 699 718
f 718 709 726
f 727 642 719
f 726 719 711
f 711 718 726
f 720 642 728
f 713 720 728
f 728 721 713
f 729 714 721
f 714 729 722
f 715 722 730
f 730 723 715
f 616 723 731
f 616 731 724
f 732 716 724
f 716 732 725
f 725 733 717
f 726 717 733
f 734 642 727
f 733 727 719
f 719 726 733
f 728 642 735
f 721 728 735
f 735 729 721
f 736 722 729
f 722 736 730
f 723 730 737
f 737 731 723
f 738 724 731
f 724 738 732
f 732 739 725
f 733 725 739
f 740 642 734
f 739 734 727
f 727 733 739
f 735 642 741
f 729 735 741
f 741 736 729
f 742 730 736
f 730 742 737
f 731 737 738
f 738 743 732
f 739 732 743
f 744 642 740
f 743 740 734
f 734 739 743
f 741 642 745
f 736 741 745
f 745 742 736
f 746 737 742
f 737 746 738
f 743 738 746
f 745 642 744
f 746 744 740
f 740 743 746
f 742 745 744
f 744 746 742
f 611 610 609
f 612 609 610
f 610 611 613
f 609 614 611
f 609 612 615
f 612 610 616
f 617 613 611
f 610 613 616
f 618 611 614
f 614 609 619
f 620 615 612
f 615 619 609
f 620 612 616
f 613 617 621
f 611 618 617
f 613 621 616
f 615 620 622
f 619 615 623
f 624 620 616
f 625 621 617
f 626 617 618
f 616 621 627
f 624 622 620
f 622 623 615
f 628 624 616
f 621 625 629
f 617 626 625
f 621 629 627
f 627 630 616
f 622 624 631
f 623 622 632
f 628 631 624
f 633 628 616
f 634 629 625
f 635 625 626
f 627 629 636
f 637 616 630
f 630 627 638
f 631 632 622
f 628 633 631
f 639 633 616
f 629 634 640
f 625 635 634
f 629 640 636
f 636 638 627
f 637 641 616
f 637 630 642
f 638 643 630
f 632 631 644
f 645 631 633
f 633 639 645
f 646 639 616
f 647 640 634
f 648 634 635
f 636 640 649
f 638 636 650
f 651 616 641
f 641 637 652
f 653 642 630
f 642 652 637
f 653 630 643
f 643 638 654
f 645 644 631
f 632 644 655
f 656 645 639
f 639 646 656
f 657 646 616
f 640 647 658
f 634 648 647
f 658 649 640
f 649 650 636
f 650 654 638
f 651 659 616
f 651 641 659
f 652 660 641
f 642 653 661
f 642 662 652
f 644 645 663
f 664 655 644
f 656 663 645
f 665 656 646
f 646 657 665
f 666 657 616
f 667 658 647
f 668 647 648
f 658 667 649
f 650 649 667
f 654 650 669
f 659 670 616
f 671 659 641
f 671 641 660
f 660 652 672
f 661 653 673
f 674 642 661
f 662 672 652
f 662 642 672
f 644 663 664
f 664 642 655
f 663 656 675
f 665 675 656
f 676 665 657
f 657 666 676
f 677 666 616
f 647 668 667
f 667 669 650
f 670 678 616
f 659 671 670
f 660 679 671
f 672 680 660
f 653 681 673
f 682 642 674
f 672 642 680
f 683 664 663
f 655 642 684
f 683 642 664
f 663 675 683
f 675 665 685
f 676 685 665
f 686 676 666
f 666 677 686
f 687 677 616
f 669 667 668
f 678 688 616
f 670 689 678
f 689 670 671
f 689 671 679
f 679 660 680
f 673 681 690
f 691 642 682
f 680 642 692
f 684 642 693
f 694 642 683
f 694 683 675
f 675 685 694
f 685 676 695
f 686 695 676
f 696 686 677
f 677 687 696
f 697 687 616
f 688 698 616
f 688 678 699
f 700 678 689
f 679 701 689
f 680 692 679
f 681 702 690
f 693 642 691
f 692 642 703
f 704 642 694
f 704 694 685
f 685 695 704
f 695 686 705
f 696 705 686
f 706 696 687
f 687 697 706
f 707 697 616
f 698 708 616
f 698 688 709
f 700 699 678
f 699 709 688
f 700 689 701
f 701 679 692
f 710 690 702
f 703 642 711
f 692 703 701
f 712 642 704
f 712 704 695
f 695 705 712
f 705 696 713
f 706 713 696
f 714 706 697
f 697 707 714
f 715 707 616
f 708 716 616
f 708 698 717
f 709 717 698
f 700 701 699
f 699 718 709
f 711 642 719
f 703 711 718
f 718 701 703
f 720 642 712
f 720 712 705
f 705 713 720
f 713 706 721
f 714 721 706
f 722 714 707
f 707 715 722
f 723 715 616
f 716 724 616
f 716 708 725
f 717 725 708
f 709 726 717
f 718 699 701
f 726 709 718
f 719 642 727
f 711 719 726
f 726 718 711
f 728 642 720
f 728 720 713
f 713 721 728
f 721 714 729
f 722 729 714
f 730 722 715
f 715 723 730
f 731 723 616
f 724 731 616
f 724 716 732
f 725 732 716
f 717 733 725
f 733 717 726
f 727 642 734
f 719 727 733
f 733 726 719
f 735 642 728
f 735 728 721
f 721 729 735
f 729 722 736
f 730 736 722
f 737 730 723
f 723 731 737
f 731 724 738
f 732 738 724
f 725 739 732
f 739 725 733
f 734 642 740
f 727 734 739
f 739 733 727
f 741 642 735
f 741 735 729
f 729 736 741
f 736 730 742
f 737 742 730
f 738 737 731
f 732 743 738
f 743 732 739
f 740 642 744
f 734 740 743
f 743 739 734
f 745 642 741
f 745 741 736
f 736 742 745
f 742 737 746
f 738 746 737
f 746 738 743
f 744 642 745
f 740 744 746
f 746 743 740
f 744 745 742
f 742 746 744
f 747 748 749
f 748 747 750
f 748 751 749
f 749 752 747
f 747 753 750
f 748 750 754
f 751 748 755
f 752 749 751
f 753 747 752
f 756 750 753
f 754 750 757
f 754 755 748
f 755 752 751
f 752 755 753
f 750 756 757
f 753 758 756
f 754 757 759
f 755 754 758
f 753 755 758
f 756 760 757
f 756 758 761
f 759 757 760
f 759 758 754
f 760 756 762
f 758 759 761
f 756 761 762
f 759 760 763
f 762 764 760
f 763 761 759
f 762 761 765
f 763 760 766
f 764 762 767
f 768 760 764
f 761 763 765
f 762 765 769
f 766 760 770
f 766 765 763
f 762 771 767
f 767 768 764
f 772 760 768
f 765 766 769
f 762 769 773
f 770 760 774
f 770 769 766
f 762 775 771
f 768 767 771
f 776 760 772
f 771 772 768
f 769 770 773
f 762 773 777
f 774 760 778
f 774 773 770
f 762 779 775
f 772 771 775
f 780 760 776
f 775 776 772
f 773 774 777
f 762 777 781
f 778 760 782
f 778 777 774
f 762 783 779
f 776 775 779
f 784 760 780
f 779 780 776
f 777 778 781
f 762 781 785
f 782 760 786
f 782 781 778
f 762 787 783
f 780 779 783
f 788 760 784
f 783 784 780
f 781 782 785
f 762 785 789
f 786 760 790
f 786 785 782
f 762 791 787
f 784 783 787
f 792 760 788
f 787 788 784
f 785 786 789
f 762 789 793
f 790 760 794
f 790 789 786
f 762 795 791
f 788 787 791
f 796 760 792
f 791 792 788
f 789 790 793
f 762 793 797
f 794 760 798
f 794 793 790
f 762 799 795
f 792 791 795
f 800 760 796
f 795 796 792
f 793 794 797
f 762 797 801
f 798 760 802
f 798 797 794
f 762 803 799
f 796 795 799
f 804 760 800
f 799 800 796
f 797 798 801
f 762 801 805
f 802 760 806
f 802 801 798
f 762 807 803
f 800 799 803
f 808 760 804
f 803 804 800
f 801 802 805
f 762 805 809
f 806 760 810
f 806 805 802
f 762 811 807
f 804 803 807
f 812 760 808
f 807 808 804
f 805 806 809
f 762 809 813
f 810 760 814
f 810 809 806
f 762 815 811
f 808 807 811
f 814 760 812
f 811 812 808
f 809 810 813
f 762 813 816
f 814 813 810
f 762 816 815
f 812 811 815
f 812 816 814
f 813 814 816
f 816 812 815
f 749 748 747
f 750 747 748
f 749 751 748
f 747 752 749
f 750 753 747
f 754 750 748
f 755 748 751
f 751 749 752
f 752 747 753
f 753 750 756
f 757 750 754
f 748 755 754
f 751 752 755
f 753 755 752
f 757 756 750
f 756 758 753
f 759 757 754
f 758 754 755
f 758 755 753
f 757 760 756
f 761 758 756
f 760 757 759
f 754 758 759
f 762 756 760
f 761 759 758
f 762 761 756
f 763 760 759
f 760 764 762
f 759 761 763
f 765 761 762
f 766 760 763
f 767 762 764
f 764 760 768
f 765 763 761
f 769 765 762
f 770 760 766
f 763 765 766
f 767 771 762
f 764 768 767
f 768 760 772
f 769 766 765
f 773 769 762
f 774 760 770
f 766 769 770
f 771 775 762
f 771 767 768
f 772 760 776
f 768 772 771
f 773 770 769
f 777 773 762
f 778 760 774
f 770 773 774
f 775 779 762
f 775 771 772
f 776 760 780
f 772 776 775
f 777 774 773
f 781 777 762
f 782 760 778
f 774 777 778
f 779 783 762
f 779 775 776
f 780 760 784
f 776 780 779
f 781 778 777
f 785 781 762
f 786 760 782
f 778 781 782
f 783 787 762
f 783 779 780
f 784 760 788
f 780 784 783
f 785 782 781
f 789 785 762
f 790 760 786
f 782 785 786
f 787 791 762
f 787 783 784
f 788 760 792
f 784 788 787
f 789 786 785
f 793 789 762
f 794 760 790
f 786 789 790
f 791 795 762
f 791 787 788
f 792 760 796
f 788 792 791
f 793 790 789
f 797 793 762
f 798 760 794
f 790 793 794
f 795 799 762
f 795 791 792
f 796 760 800
f 792 796 795
f 797 794 793
f 801 797 762
f 802 760 798
f 794 797 798
f 799 803 762
f 799 795 796
f 800 760 804
f 796 800 799
f 801 798 797
f 805 801 762
f 806 760 802
f 798 801 802
f 803 807 762
f 803 799 800
f 804 760 808
f 800 804 803
f 805 802 801
f 809 805 762
f 810 760 806
f 802 805 806
f 807 811 762
f 807 803 804
f 808 760 812
f 804 808 807
f 809 806 805
f 813 809 762
f 814 760 810
f 806 809 810
f 811 815 762
f 811 807 808
f 812 760 814
f 808 812 811
f 813 810 809
f 816 813 762
f 810 813 814
f 815 816 762
f 815 811 812
f 814 816 812
f 816 814 813
f 815 812 816
f 817 818 819
f 818 817 820
f 821 819 818
f 822 817 819
f 823 820 817
f 820 824 818
f 819 821 825
f 818 824 821
f 822 823 817
f 822 819 825
f 820 823 826
f 826 824 820
f 827 825 821
f 821 824 827
f 822 828 823
f 822 825 829
f 828 826 823
f 830 824 826
f 825 827 829
f 827 824 831
f 832 828 822
f 822 829 833
f 826 828 830
f 830 834 824
f 831 829 827
f 831 824 835
f 832 836 828
f 824 832 822
f 829 831 833
f 822 833 837
f 836 830 828
f 838 834 830
f 832 824 834
f 835 824 839
f 837 831 835
f 840 836 832
f 822 841 824
f 831 837 833
f 822 837 842
f 830 836 838
f 838 843 834
f 843 832 834
f 839 824 844
f 842 835 839
f 835 842 837
f 840 845 836
f 832 843 840
f 841 822 846
f 847 824 841
f 822 842 848
f 845 838 836
f 849 843 838
f 844 824 850
f 848 839 844
f 839 848 842
f 851 845 840
f 852 840 843
f 822 853 846
f 846 847 841
f 854 824 847
f 822 848 855
f 838 845 849
f 849 852 843
f 850 824 856
f 855 844 850
f 844 855 848
f 845 851 857
f 840 852 851
f 822 858 853
f 847 846 853
f 859 824 854
f 853 854 847
f 822 855 860
f 857 849 845
f 852 849 861
f 856 824 862
f 860 850 856
f 850 860 855
f 851 861 857
f 861 851 852
f 822 863 858
f 854 853 858
f 864 824 859
f 858 859 854
f 822 860 865
f 849 857 861
f 862 824 866
f 865 856 862
f 856 865 860
f 822 867 863
f 859 858 863
f 868 824 864
f 863 864 859
f 822 865 869
f 866 824 870
f 869 862 866
f 862 869 865
f 822 871 867
f 864 863 867
f 872 824 868
f 867 868 864
f 822 869 873
f 870 824 874
f 873 866 870
f 866 873 869
f 822 875 871
f 868 867 871
f 876 824 872
f 871 872 868
f 822 873 877
f 874 824 878
f 877 870 874
f 870 877 873
f 822 879 875
f 872 871 875
f 880 824 876
f 875 876 872
f 822 877 881
f 878 824 882
f 881 874 878
f 874 881 877
f 822 883 879
f 876 875 879
f 884 824 880
f 879 880 876
f 822 881 885
f 882 824 884
f 885 878 882
f 878 885 881
f 822 886 883
f 880 879 883
f 883 884 880
f 822 885 886
f 886 882 884
f 882 886 885
f 884 883 886
f 819 818 817
f 820 817 818
f 818 819 821
f 819 817 822
f 817 820 823
f 818 824 820
f 825 821 819
f 821 824 818
f 817 823 822
f 825 819 822
f 826 823 820
f 820 824 826
f 821 825 827
f 827 824 821
f 823 828 822
f 829 825 822
f 823 826 828
f 826 824 830
f 829 827 825
f 831 824 827
f 822 828 832
f 833 829 822
f 830 828 826
f 824 834 830
f 827 829 831
f 835 824 831
f 828 836 832
f 822 832 824
f 833 831 829
f 837 833 822
f 828 830 836
f 830 834 838
f 834 824 832
f 839 824 835
f 835 831 837
f 832 836 840
f 824 841 822
f 833 837 831
f 842 837 822
f 838 836 830
f 834 843 838
f 834 832 843
f 844 824 839
f 839 835 842
f 837 842 835
f 836 845 840
f 840 843 832
f 846 822 841
f 841 824 847
f 848 842 822
f 836 838 845
f 838 843 849
f 850 824 844
f 844 839 848
f 842 848 839
f 840 845 851
f 843 840 852
f 846 853 822
f 841 847 846
f 847 824 854
f 855 848 822
f 849 845 838
f 843 852 849
f 856 824 850
f 850 844 855
f 848 855 844
f 857 851 845
f 851 852 840
f 853 858 822
f 853 846 847
f 854 824 859
f 847 854 853
f 860 855 822
f 845 849 857
f 861 849 852
f 862 824 856
f 856 850 860
f 855 860 850
f 857 861 851
f 852 851 861
f 858 863 822
f 858 853 854
f 859 824 864
f 854 859 858
f 865 860 822
f 861 857 849
f 866 824 862
f 862 856 865
f 860 865 856
f 863 867 822
f 863 858 859
f 864 824 868
f 859 864 863
f 869 865 822
f 870 824 866
f 866 862 869
f 865 869 862
f 867 871 822
f 867 863 864
f 868 824 872
f 864 868 867
f 873 869 822
f 874 824 870
f 870 866 873
f 869 873 866
f 871 875 822
f 871 867 868
f 872 824 876
f 868 872 871
f 877 873 822
f 878 824 874
f 874 870 877
f 873 877 870
f 875 879 822
f 875 871 872
f 876 824 880
f 872 876 875
f 881 877 822
f 882 824 878
f 878 874 881
f 877 881 874
f 879 883 822
f 879 875 876
f 880 824 884
f 876 880 879
f 885 881 822
f 884 824 882
f 882 878 885
f 881 885 878
f 883 886 822
f 883 879 880
f 880 884 883
f 886 885 822
f 884 882 886
f 885 886 882
f 886 883 884
f 887 888 889
f 888 887 890
f 891 889 888
f 892 887 889
f 893 890 887
f 890 894 888
f 889 891 895
f 888 894 891
f 896 887 892
f 892 889 895
f 890 893 897
f 896 893 887
f 890 898 894
f 894 895 891
f 892 898 896
f 895 894 892
f 899 897 893
f 897 898 890
f 900 893 896
f 898 892 894
f 901 896 898
f 897 899 902
f 893 903 899
f 897 901 898
f 904 893 900
f 896 901 900
f 899 905 902
f 905 897 902
f 903 893 906
f 905 899 903
f 897 907 901
f 908 893 904
f 900 907 904
f 907 900 901
f 897 905 909
f 906 893 910
f 906 905 903
f 897 911 907
f 912 893 908
f 904 911 908
f 911 904 907
f 905 906 909
f 897 909 913
f 910 893 914
f 906 910 915
f 897 916 911
f 917 893 912
f 908 916 912
f 916 908 911
f 906 913 909
f 897 913 918
f 914 893 919
f 914 915 910
f 906 915 913
f 897 920 916
f 921 893 917
f 912 920 917
f 920 912 916
f 897 918 922
f 919 893 923
f 924 914 919
f 914 918 915
f 897 925 920
f 926 893 921
f 917 925 921
f 925 917 920
f 918 914 922
f 897 922 927
f 923 893 928
f 923 924 919
f 924 922 914
f 897 929 925
f 930 893 926
f 921 929 926
f 929 921 925
f 922 924 927
f 897 927 931
f 928 893 932
f 933 923 928
f 931 924 923
f 897 934 929
f 935 893 930
f 926 934 930
f 934 926 929
f 924 931 927
f 897 931 933
f 932 893 936
f 937 928 932
f 923 933 931
f 928 937 933
f 897 938 934
f 939 893 935
f 930 938 935
f 938 930 934
f 897 933 937
f 936 893 940
f 941 932 936
f 932 941 937
f 897 942 938
f 943 893 939
f 935 942 939
f 942 935 938
f 897 937 941
f 940 893 944
f 945 936 940
f 936 945 941
f 897 946 942
f 947 893 943
f 939 946 943
f 946 939 942
f 897 941 945
f 944 893 948
f 949 940 944
f 940 949 945
f 897 950 946
f 951 893 947
f 943 950 947
f 950 943 946
f 897 945 949
f 948 893 952
f 953 944 948
f 944 953 949
f 897 954 950
f 955 893 951
f 947 954 951
f 954 947 950
f 897 949 953
f 952 893 956
f 957 948 952
f 948 957 953
f 897 958 954
f 956 893 955
f 951 958 955
f 958 951 954
f 897 953 957
f 956 957 952
f 897 959 958
f 955 959 956
f 959 955 958
f 897 957 959
f 957 956 959
f 889 888 887
f 890 887 888
f 888 889 891
f 889 887 892
f 887 890 893
f 888 894 890
f 895 891 889
f 891 894 888
f 892 887 896
f 895 889 892
f 897 893 890
f 887 893 896
f 894 898 890
f 891 895 894
f 896 898 892
f 892 894 895
f 893 897 899
f 890 898 897
f 896 893 900
f 894 892 898
f 898 896 901
f 902 899 897
f 899 903 893
f 898 901 897
f 900 893 904
f 900 901 896
f 902 905 899
f 902 897 905
f 906 893 903
f 903 899 905
f 901 907 897
f 904 893 908
f 904 907 900
f 901 900 907
f 909 905 897
f 910 893 906
f 903 905 906
f 907 911 897
f 908 893 912
f 908 911 904
f 907 904 911
f 909 906 905
f 913 909 897
f 914 893 910
f 915 910 906
f 911 916 897
f 912 893 917
f 912 916 908
f 911 908 916
f 909 913 906
f 918 913 897
f 919 893 914
f 910 915 914
f 913 915 906
f 916 920 897
f 917 893 921
f 917 920 912
f 916 912 920
f 922 918 897
f 923 893 919
f 919 914 924
f 915 918 914
f 920 925 897
f 921 893 926
f 921 925 917
f 920 917 925
f 922 914 918
f 927 922 897
f 928 893 923
f 919 924 923
f 914 922 924
f 925 929 897
f 926 893 930
f 926 929 921
f 925 921 929
f 927 924 922
f 931 927 897
f 932 893 928
f 928 923 933
f 923 924 931
f 929 934 897
f 930 893 935
f 930 934 926
f 929 926 934
f 927 931 924
f 933 931 897
f 936 893 932
f 932 928 937
f 931 933 923
f 933 937 928
f 934 938 897
f 935 893 939
f 935 938 930
f 934 930 938
f 937 933 897
f 940 893 936
f 936 932 941
f 937 941 932
f 938 942 897
f 939 893 943
f 939 942 935
f 938 935 942
f 941 937 897
f 944 893 940
f 940 936 945
f 941 945 936
f 942 946 897
f 943 893 947
f 943 946 939
f 942 939 946
f 945 941 897
f 948 893 944
f 944 940 949
f 945 949 940
f 946 950 897
f 947 893 951
f 947 950 943
f 946 943 950
f 949 945 897
f 952 893 948
f 948 944 953
f 949 953 944
f 950 954 897
f 951 893 955
f 951 954 947
f 950 947 954
f 953 949 897
f 956 893 952
f 952 948 957
f 953 957 948
f 954 958 897
f 955 893 956
f 955 958 951
f 954 951 958
f 957 953 897
f 952 957 956
f 958 959 897
f 956 959 955
f 958 955 959
f 959 957 897
f 959 956 957

