# https://github.com/mikedh/trimesh
v -0.04600000 -0.16200000 -0.09400000
v -0.04600000 -0.16200000 -0.09000000
v -0.04600000 -0.15800000 -0.09400000
v -0.04600000 -0.15800000 -0.09000000
v -0.04200000 -0.16200000 -0.09400000
v -0.04200000 -0.16200000 -0.09000000
v -0.04200000 -0.15800000 -0.09400000
v -0.04200000 -0.15800000 -0.09000000
v -0.04600000 -0.15400000 -0.09400000
v -0.04600000 -0.15400000 -0.09000000
v -0.04200000 -0.15400000 -0.09400000
v -0.04200000 -0.15400000 -0.09000000
v -0.04600000 -0.15000000 -0.09400000
v -0.04600000 -0.15000000 -0.09000000
v -0.04200000 -0.15000000 -0.09400000
v -0.04200000 -0.15000000 -0.09000000
v -0.04600000 -0.14600000 -0.09400000
v -0.04600000 -0.14600000 -0.09000000
v -0.04200000 -0.14600000 -0.09400000
v -0.04200000 -0.14600000 -0.09000000
v -0.04600000 -0.14200000 -0.09400000
v -0.04600000 -0.14200000 -0.09000000
v -0.04200000 -0.14200000 -0.09400000
v -0.04200000 -0.14200000 -0.09000000
v -0.04600000 -0.13800000 -0.09400000
v -0.04600000 -0.13800000 -0.09000000
v -0.04200000 -0.13800000 -0.09400000
v -0.04200000 -0.13800000 -0.09000000
v -0.04600000 -0.13400000 -0.09400000
v -0.04600000 -0.13400000 -0.09000000
v -0.04200000 -0.13400000 -0.09400000
v -0.04200000 -0.13400000 -0.09000000
v -0.04600000 -0.13000000 -0.09400000
v -0.04600000 -0.13000000 -0.09000000
v -0.04200000 -0.13000000 -0.09400000
v -0.04200000 -0.13000000 -0.09000000
v -0.03800000 -0.16200000 -0.09400000
v -0.03800000 -0.16200000 -0.09000000
v -0.03800000 -0.15800000 -0.09400000
v -0.03800000 -0.15800000 -0.09000000
v -0.03800000 -0.15400000 -0.09400000
v -0.03800000 -0.15400000 -0.09000000
v -0.03800000 -0.15000000 -0.09400000
v -0.03800000 -0.15000000 -0.09000000
v -0.03800000 -0.14600000 -0.09400000
v -0.03800000 -0.14600000 -0.09000000
v -0.03800000 -0.14200000 -0.09400000
v -0.03800000 -0.14200000 -0.09000000
v -0.03800000 -0.13800000 -0.09400000
v -0.03800000 -0.13800000 -0.09000000
v -0.03800000 -0.13400000 -0.09400000
v -0.03800000 -0.13400000 -0.09000000
v -0.03800000 -0.13000000 -0.09400000
v -0.03800000 -0.13000000 -0.09000000
v -0.04200000 -0.12600000 -0.09400000
v -0.04200000 -0.12600000 -0.09000000
v -0.03800000 -0.12600000 -0.09400000
v -0.03800000 -0.12600000 -0.09000000
v -0.04200000 -0.12200000 -0.09400000
v -0.04200000 -0.12200000 -0.09000000
v -0.03800000 -0.12200000 -0.09400000
v -0.03800000 -0.12200000 -0.09000000
v -0.04200000 -0.11800000 -0.09400000
v -0.04200000 -0.11800000 -0.09000000
v -0.03800000 -0.11800000 -0.09400000
v -0.03800000 -0.11800000 -0.09000000
v -0.04200000 -0.11400000 -0.09400000
v -0.04200000 -0.11400000 -0.09000000
v -0.03800000 -0.11400000 -0.09400000
v -0.03800000 -0.11400000 -0.09000000
v -0.04200000 -0.11000000 -0.09400000
v -0.04200000 -0.11000000 -0.09000000
v -0.03800000 -0.11000000 -0.09400000
v -0.03800000 -0.11000000 -0.09000000
v -0.04200000 -0.10600000 -0.09400000
v -0.04200000 -0.10600000 -0.09000000
v -0.03800000 -0.10600000 -0.09400000
v -0.03800000 -0.10600000 -0.09000000
v -0.04200000 -0.10200000 -0.09400000
v -0.04200000 -0.10200000 -0.09000000
v -0.03800000 -0.10200000 -0.09400000
v -0.03800000 -0.10200000 -0.09000000
v -0.04200000 -0.09800000 -0.09400000
v -0.04200000 -0.09800000 -0.09000000
v -0.03800000 -0.09800000 -0.09400000
v -0.03800000 -0.09800000 -0.09000000
v -0.04200000 -0.09400000 -0.09400000
v -0.04200000 -0.09400000 -0.09000000
v -0.03800000 -0.09400000 -0.09400000
v -0.03800000 -0.09400000 -0.09000000
v -0.04200000 -0.09000000 -0.09400000
v -0.04200000 -0.09000000 -0.09000000
v -0.03800000 -0.09000000 -0.09400000
v -0.03800000 -0.09000000 -0.09000000
v -0.04200000 -0.08600000 -0.09400000
v -0.04200000 -0.08600000 -0.09000000
v -0.03800000 -0.08600000 -0.09400000
v -0.03800000 -0.08600000 -0.09000000
v -0.04200000 -0.08200000 -0.09400000
v -0.04200000 -0.08200000 -0.09000000
v -0.03800000 -0.08200000 -0.09400000
v -0.03800000 -0.08200000 -0.09000000
v -0.03400000 -0.16200000 -0.09400000
v -0.03400000 -0.16200000 -0.09000000
v -0.03400000 -0.15800000 -0.09400000
v -0.03400000 -0.15800000 -0.09000000
v -0.03400000 -0.15400000 -0.09400000
v -0.03400000 -0.15400000 -0.09000000
v -0.03400000 -0.15000000 -0.09400000
v -0.03400000 -0.15000000 -0.09000000
v -0.03400000 -0.14600000 -0.09400000
v -0.03400000 -0.14600000 -0.09000000
v -0.03400000 -0.14200000 -0.09400000
v -0.03400000 -0.14200000 -0.09000000
v -0.03400000 -0.13800000 -0.09400000
v -0.03400000 -0.13800000 -0.09000000
v -0.03400000 -0.13400000 -0.09400000
v -0.03400000 -0.13400000 -0.09000000
v -0.03800000 -0.13400000 -0.09800000
v -0.03800000 -0.13000000 -0.09800000
v -0.03400000 -0.13400000 -0.09800000
v -0.03400000 -0.13000000 -0.09800000
v -0.03400000 -0.13000000 -0.09000000
v -0.03800000 -0.12600000 -0.09800000
v -0.03400000 -0.12600000 -0.09800000
v -0.03400000 -0.13000000 -0.09400000
v -0.03400000 -0.12600000 -0.09400000
v -0.03400000 -0.12600000 -0.09000000
v -0.03800000 -0.12200000 -0.09800000
v -0.03400000 -0.12200000 -0.09800000
v -0.03400000 -0.12200000 -0.09400000
v -0.03400000 -0.12200000 -0.09000000
v -0.03800000 -0.11800000 -0.09800000
v -0.03400000 -0.11800000 -0.09800000
v -0.03400000 -0.11800000 -0.09400000
v -0.03400000 -0.11800000 -0.09000000
v -0.03800000 -0.11400000 -0.09800000
v -0.03400000 -0.11400000 -0.09800000
v -0.03400000 -0.11400000 -0.09400000
v -0.03400000 -0.11400000 -0.09000000
v -0.03800000 -0.11000000 -0.09800000
v -0.03400000 -0.11000000 -0.09800000
v -0.03400000 -0.11000000 -0.09400000
v -0.03400000 -0.11000000 -0.09000000
v -0.03800000 -0.10600000 -0.09800000
v -0.03400000 -0.10600000 -0.09800000
v -0.03400000 -0.10600000 -0.09400000
v -0.03400000 -0.10600000 -0.09000000
v -0.03800000 -0.10200000 -0.09800000
v -0.03400000 -0.10200000 -0.09800000
v -0.03400000 -0.10200000 -0.09400000
v -0.03400000 -0.10200000 -0.09000000
v -0.03800000 -0.09800000 -0.09800000
v -0.03400000 -0.09800000 -0.09800000
v -0.03400000 -0.09800000 -0.09400000
v -0.03400000 -0.09800000 -0.09000000
v -0.03800000 -0.09400000 -0.09800000
v -0.03400000 -0.09400000 -0.09800000
v -0.03400000 -0.09400000 -0.09400000
v -0.03400000 -0.09400000 -0.09000000
v -0.03800000 -0.09000000 -0.09800000
v -0.03400000 -0.09000000 -0.09800000
v -0.03400000 -0.09000000 -0.09400000
v -0.03400000 -0.09000000 -0.09000000
v -0.03800000 -0.08600000 -0.09800000
v -0.03400000 -0.08600000 -0.09800000
v -0.03400000 -0.08600000 -0.09400000
v -0.03400000 -0.08600000 -0.09000000
v -0.03400000 -0.08200000 -0.09400000
v -0.03400000 -0.08200000 -0.09000000
v -0.03000000 -0.16200000 -0.09400000
v -0.03000000 -0.16200000 -0.09000000
v -0.03000000 -0.15800000 -0.09400000
v -0.03000000 -0.15800000 -0.09000000
v -0.03000000 -0.15400000 -0.09400000
v -0.03000000 -0.15400000 -0.09000000
v -0.03000000 -0.15000000 -0.09400000
v -0.03000000 -0.15000000 -0.09000000
v -0.03000000 -0.14600000 -0.09400000
v -0.03000000 -0.14600000 -0.09000000
v -0.03000000 -0.14200000 -0.09400000
v -0.03000000 -0.14200000 -0.09000000
v -0.03000000 -0.13800000 -0.09400000
v -0.03000000 -0.13800000 -0.09000000
v -0.03000000 -0.13400000 -0.09400000
v -0.03000000 -0.13400000 -0.09000000
v -0.03000000 -0.13400000 -0.09800000
v -0.03000000 -0.13000000 -0.09800000
v -0.03000000 -0.13000000 -0.09400000
v -0.03000000 -0.13000000 -0.09000000
v -0.03000000 -0.12600000 -0.09800000
v -0.03000000 -0.12600000 -0.09400000
v -0.03000000 -0.12200000 -0.09800000
v -0.03000000 -0.12200000 -0.09400000
v -0.03000000 -0.11800000 -0.09800000
v -0.03000000 -0.11800000 -0.09400000
v -0.03000000 -0.11400000 -0.09800000
v -0.03000000 -0.11400000 -0.09400000
v -0.03000000 -0.11000000 -0.09800000
v -0.03000000 -0.11000000 -0.09400000
v -0.03000000 -0.10600000 -0.09800000
v -0.03000000 -0.10600000 -0.09400000
v -0.03000000 -0.10200000 -0.09800000
v -0.03000000 -0.10200000 -0.09400000
v -0.03000000 -0.09800000 -0.09800000
v -0.03000000 -0.09800000 -0.09400000
v -0.03000000 -0.09400000 -0.09800000
v -0.03000000 -0.09400000 -0.09400000
v -0.03000000 -0.09000000 -0.09800000
v -0.03000000 -0.09000000 -0.09400000
v -0.03000000 -0.08600000 -0.09800000
v -0.03000000 -0.08600000 -0.09400000
v -0.03400000 -0.08200000 -0.09800000
v -0.03000000 -0.08200000 -0.09800000
v -0.03000000 -0.08200000 -0.09400000
v -0.03000000 -0.08600000 -0.09000000
v -0.03000000 -0.08200000 -0.09000000
v -0.02600000 -0.16200000 -0.09400000
v -0.02600000 -0.16200000 -0.09000000
v -0.02600000 -0.15800000 -0.09400000
v -0.02600000 -0.15800000 -0.09000000
v -0.02600000 -0.15400000 -0.09400000
v -0.02600000 -0.15400000 -0.09000000
v -0.02600000 -0.15000000 -0.09400000
v -0.02600000 -0.15000000 -0.09000000
v -0.02600000 -0.14600000 -0.09400000
v -0.02600000 -0.14600000 -0.09000000
v -0.02600000 -0.14200000 -0.09400000
v -0.02600000 -0.14200000 -0.09000000
v -0.02600000 -0.13800000 -0.09400000
v -0.02600000 -0.13800000 -0.09000000
v -0.02600000 -0.13400000 -0.09400000
v -0.02600000 -0.13400000 -0.09000000
v -0.02600000 -0.13400000 -0.09800000
v -0.02600000 -0.13000000 -0.09800000
v -0.02600000 -0.13000000 -0.09400000
v -0.02600000 -0.13000000 -0.09000000
v -0.02600000 -0.12600000 -0.09800000
v -0.02600000 -0.12600000 -0.09400000
v -0.02600000 -0.12200000 -0.09800000
v -0.02600000 -0.12200000 -0.09400000
v -0.02600000 -0.11800000 -0.09800000
v -0.02600000 -0.11800000 -0.09400000
v -0.02600000 -0.11400000 -0.09800000
v -0.02600000 -0.11400000 -0.09400000
v -0.02600000 -0.11000000 -0.09800000
v -0.02600000 -0.11000000 -0.09400000
v -0.02600000 -0.10600000 -0.09800000
v -0.02600000 -0.10600000 -0.09400000
v -0.02600000 -0.10200000 -0.09800000
v -0.02600000 -0.10200000 -0.09400000
v -0.02600000 -0.09800000 -0.09800000
v -0.02600000 -0.09800000 -0.09400000
v -0.02600000 -0.09400000 -0.09800000
v -0.02600000 -0.09400000 -0.09400000
v -0.02600000 -0.09000000 -0.09800000
v -0.02600000 -0.09000000 -0.09400000
v -0.02600000 -0.08600000 -0.09800000
v -0.02600000 -0.08600000 -0.09400000
v -0.02600000 -0.08200000 -0.09800000
v -0.02600000 -0.08200000 -0.09400000
v -0.02600000 -0.08600000 -0.09000000
v -0.02600000 -0.08200000 -0.09000000
v -0.02200000 -0.16200000 -0.09400000
v -0.02200000 -0.16200000 -0.09000000
v -0.02200000 -0.15800000 -0.09400000
v -0.02200000 -0.15800000 -0.09000000
v -0.02200000 -0.15400000 -0.09400000
v -0.02200000 -0.15400000 -0.09000000
v -0.02200000 -0.15000000 -0.09400000
v -0.02200000 -0.15000000 -0.09000000
v -0.02200000 -0.14600000 -0.09400000
v -0.02200000 -0.14600000 -0.09000000
v -0.02200000 -0.14200000 -0.09400000
v -0.02200000 -0.14200000 -0.09000000
v -0.02200000 -0.13800000 -0.09400000
v -0.02200000 -0.13800000 -0.09000000
v -0.02200000 -0.13400000 -0.09400000
v -0.02200000 -0.13400000 -0.09000000
v -0.02200000 -0.13400000 -0.09800000
v -0.02200000 -0.13000000 -0.09800000
v -0.02200000 -0.13000000 -0.09400000
v -0.02200000 -0.13000000 -0.09000000
v -0.02200000 -0.12600000 -0.09800000
v -0.02200000 -0.12600000 -0.09400000
v -0.02200000 -0.12200000 -0.09800000
v -0.02200000 -0.12200000 -0.09400000
v -0.02200000 -0.11800000 -0.09800000
v -0.02200000 -0.11800000 -0.09400000
v -0.02200000 -0.11400000 -0.09800000
v -0.02200000 -0.11400000 -0.09400000
v -0.02200000 -0.11000000 -0.09800000
v -0.02200000 -0.11000000 -0.09400000
v -0.02200000 -0.10600000 -0.09800000
v -0.02200000 -0.10600000 -0.09400000
v -0.02200000 -0.10200000 -0.09800000
v -0.02200000 -0.10200000 -0.09400000
v -0.02200000 -0.09800000 -0.09800000
v -0.02200000 -0.09800000 -0.09400000
v -0.02200000 -0.09400000 -0.09800000
v -0.02200000 -0.09400000 -0.09400000
v -0.02200000 -0.09000000 -0.09800000
v -0.02200000 -0.09000000 -0.09400000
v -0.02200000 -0.08600000 -0.09800000
v -0.02200000 -0.08600000 -0.09400000
v -0.02200000 -0.08200000 -0.09800000
v -0.02200000 -0.08200000 -0.09400000
v -0.02200000 -0.08600000 -0.09000000
v -0.02200000 -0.08200000 -0.09000000
v -0.02600000 -0.07800000 -0.09400000
v -0.02600000 -0.07800000 -0.09000000
v -0.02200000 -0.07800000 -0.09400000
v -0.02200000 -0.07800000 -0.09000000
v -0.01800000 -0.16200000 -0.09400000
v -0.01800000 -0.16200000 -0.09000000
v -0.01800000 -0.15800000 -0.09400000
v -0.01800000 -0.15800000 -0.09000000
v -0.01800000 -0.15400000 -0.09400000
v -0.01800000 -0.15400000 -0.09000000
v -0.01800000 -0.15000000 -0.09400000
v -0.01800000 -0.15000000 -0.09000000
v -0.01800000 -0.14600000 -0.09400000
v -0.01800000 -0.14600000 -0.09000000
v -0.01800000 -0.14200000 -0.09400000
v -0.01800000 -0.14200000 -0.09000000
v -0.01800000 -0.13800000 -0.09400000
v -0.01800000 -0.13800000 -0.09000000
v -0.01800000 -0.13400000 -0.09400000
v -0.01800000 -0.13400000 -0.09000000
v -0.01800000 -0.13400000 -0.09800000
v -0.01800000 -0.13000000 -0.09800000
v -0.01800000 -0.13000000 -0.09400000
v -0.01800000 -0.13000000 -0.09000000
v -0.01800000 -0.12600000 -0.09800000
v -0.01800000 -0.12600000 -0.09400000
v -0.01800000 -0.12200000 -0.09800000
v -0.01800000 -0.12200000 -0.09400000
v -0.01800000 -0.11800000 -0.09800000
v -0.01800000 -0.11800000 -0.09400000
v -0.01800000 -0.11400000 -0.09800000
v -0.01800000 -0.11400000 -0.09400000
v -0.01800000 -0.11000000 -0.09800000
v -0.01800000 -0.11000000 -0.09400000
v -0.01800000 -0.10600000 -0.09800000
v -0.01800000 -0.10600000 -0.09400000
v -0.01800000 -0.10200000 -0.09800000
v -0.01800000 -0.10200000 -0.09400000
v -0.01800000 -0.09800000 -0.09800000
v -0.01800000 -0.09800000 -0.09400000
v -0.01800000 -0.09400000 -0.09800000
v -0.01800000 -0.09400000 -0.09400000
v -0.01800000 -0.09000000 -0.09800000
v -0.01800000 -0.09000000 -0.09400000
v -0.01800000 -0.08600000 -0.09800000
v -0.01800000 -0.08600000 -0.09400000
v -0.01800000 -0.08200000 -0.09800000
v -0.01800000 -0.08200000 -0.09400000
v -0.01800000 -0.08600000 -0.09000000
v -0.01800000 -0.08200000 -0.09000000
v -0.01800000 -0.07800000 -0.09400000
v -0.01800000 -0.07800000 -0.09000000
v -0.01400000 -0.16200000 -0.09400000
v -0.01400000 -0.16200000 -0.09000000
v -0.01400000 -0.15800000 -0.09400000
v -0.01400000 -0.15800000 -0.09000000
v -0.01400000 -0.15400000 -0.09400000
v -0.01400000 -0.15400000 -0.09000000
v -0.01400000 -0.15000000 -0.09400000
v -0.01400000 -0.15000000 -0.09000000
v -0.01400000 -0.14600000 -0.09400000
v -0.01400000 -0.14600000 -0.09000000
v -0.01400000 -0.14200000 -0.09400000
v -0.01400000 -0.14200000 -0.09000000
v -0.01400000 -0.13800000 -0.09400000
v -0.01400000 -0.13800000 -0.09000000
v -0.01400000 -0.13400000 -0.09400000
v -0.01400000 -0.13400000 -0.09000000
v -0.01400000 -0.13400000 -0.09800000
v -0.01400000 -0.13000000 -0.09800000
v -0.01400000 -0.13000000 -0.09400000
v -0.01400000 -0.13000000 -0.09000000
v -0.01400000 -0.12600000 -0.09800000
v -0.01400000 -0.12600000 -0.09400000
v -0.01400000 -0.12200000 -0.09800000
v -0.01400000 -0.12200000 -0.09400000
v -0.01400000 -0.11800000 -0.09800000
v -0.01400000 -0.11800000 -0.09400000
v -0.01400000 -0.11400000 -0.09800000
v -0.01400000 -0.11400000 -0.09400000
v -0.01400000 -0.11000000 -0.09800000
v -0.01400000 -0.11000000 -0.09400000
v -0.01400000 -0.10600000 -0.09800000
v -0.01400000 -0.10600000 -0.09400000
v -0.01400000 -0.10200000 -0.09800000
v -0.01400000 -0.10200000 -0.09400000
v -0.01400000 -0.09800000 -0.09800000
v -0.01400000 -0.09800000 -0.09400000
v -0.01400000 -0.09400000 -0.09800000
v -0.01400000 -0.09400000 -0.09400000
v -0.01400000 -0.09000000 -0.09800000
v -0.01400000 -0.09000000 -0.09400000
v -0.01400000 -0.08600000 -0.09800000
v -0.01400000 -0.08600000 -0.09400000
v -0.01400000 -0.08200000 -0.09800000
v -0.01400000 -0.08200000 -0.09400000
v -0.01400000 -0.08600000 -0.09000000
v -0.01400000 -0.08200000 -0.09000000
v -0.01400000 -0.07800000 -0.09400000
v -0.01400000 -0.07800000 -0.09000000
v -0.01000000 -0.16200000 -0.09400000
v -0.01000000 -0.16200000 -0.09000000
v -0.01000000 -0.15800000 -0.09400000
v -0.01000000 -0.15800000 -0.09000000
v -0.01000000 -0.15400000 -0.09400000
v -0.01000000 -0.15400000 -0.09000000
v -0.01000000 -0.15000000 -0.09400000
v -0.01000000 -0.15000000 -0.09000000
v -0.01000000 -0.14600000 -0.09400000
v -0.01000000 -0.14600000 -0.09000000
v -0.01000000 -0.14200000 -0.09400000
v -0.01000000 -0.14200000 -0.09000000
v -0.01000000 -0.13800000 -0.09400000
v -0.01000000 -0.13800000 -0.09000000
v -0.01000000 -0.13400000 -0.09400000
v -0.01000000 -0.13400000 -0.09000000
v -0.01000000 -0.13400000 -0.09800000
v -0.01000000 -0.13000000 -0.09800000
v -0.01000000 -0.13000000 -0.09400000
v -0.01000000 -0.13000000 -0.09000000
v -0.01000000 -0.12600000 -0.09800000
v -0.01000000 -0.12600000 -0.09400000
v -0.01000000 -0.12200000 -0.09800000
v -0.01000000 -0.12200000 -0.09400000
v -0.01000000 -0.11800000 -0.09800000
v -0.01000000 -0.11800000 -0.09400000
v -0.01000000 -0.11400000 -0.09800000
v -0.01000000 -0.11400000 -0.09400000
v -0.01000000 -0.11000000 -0.09800000
v -0.01000000 -0.11000000 -0.09400000
v -0.01000000 -0.10600000 -0.09800000
v -0.01000000 -0.10600000 -0.09400000
v -0.01000000 -0.10200000 -0.09800000
v -0.01000000 -0.10200000 -0.09400000
v -0.01000000 -0.09800000 -0.09800000
v -0.01000000 -0.09800000 -0.09400000
v -0.01000000 -0.09400000 -0.09800000
v -0.01000000 -0.09400000 -0.09400000
v -0.01000000 -0.09000000 -0.09800000
v -0.01000000 -0.09000000 -0.09400000
v -0.01000000 -0.08600000 -0.09800000
v -0.01000000 -0.08600000 -0.09400000
v -0.01000000 -0.08200000 -0.09800000
v -0.01000000 -0.08200000 -0.09400000
v -0.01000000 -0.08600000 -0.09000000
v -0.01000000 -0.08200000 -0.09000000
v -0.01000000 -0.07800000 -0.09400000
v -0.01000000 -0.07800000 -0.09000000
v -0.00600000 -0.16200000 -0.09400000
v -0.00600000 -0.16200000 -0.09000000
v -0.00600000 -0.15800000 -0.09400000
v -0.00600000 -0.15800000 -0.09000000
v -0.00600000 -0.15400000 -0.09400000
v -0.00600000 -0.15400000 -0.09000000
v -0.00600000 -0.15000000 -0.09400000
v -0.00600000 -0.15000000 -0.09000000
v -0.00600000 -0.14600000 -0.09400000
v -0.00600000 -0.14600000 -0.09000000
v -0.00600000 -0.14200000 -0.09400000
v -0.00600000 -0.14200000 -0.09000000
v -0.00600000 -0.13800000 -0.09400000
v -0.00600000 -0.13800000 -0.09000000
v -0.00600000 -0.13400000 -0.09400000
v -0.00600000 -0.13400000 -0.09000000
v -0.00600000 -0.13400000 -0.09800000
v -0.00600000 -0.13000000 -0.09800000
v -0.00600000 -0.13000000 -0.09400000
v -0.00600000 -0.13000000 -0.09000000
v -0.00600000 -0.12600000 -0.09800000
v -0.00600000 -0.12600000 -0.09400000
v -0.00600000 -0.12200000 -0.09800000
v -0.00600000 -0.12200000 -0.09400000
v -0.00600000 -0.11800000 -0.09800000
v -0.00600000 -0.11800000 -0.09400000
v -0.00600000 -0.11400000 -0.09800000
v -0.00600000 -0.11400000 -0.09400000
v -0.00600000 -0.11000000 -0.09800000
v -0.00600000 -0.11000000 -0.09400000
v -0.00600000 -0.10600000 -0.09800000
v -0.00600000 -0.10600000 -0.09400000
v -0.00600000 -0.10200000 -0.09800000
v -0.00600000 -0.10200000 -0.09400000
v -0.00600000 -0.09800000 -0.09800000
v -0.00600000 -0.09800000 -0.09400000
v -0.00600000 -0.09400000 -0.09800000
v -0.00600000 -0.09400000 -0.09400000
v -0.00600000 -0.09000000 -0.09800000
v -0.00600000 -0.09000000 -0.09400000
v -0.00600000 -0.08600000 -0.09800000
v -0.00600000 -0.08600000 -0.09400000
v -0.00600000 -0.08200000 -0.09800000
v -0.00600000 -0.08200000 -0.09400000
v -0.00600000 -0.08600000 -0.09000000
v -0.00600000 -0.08200000 -0.09000000
v -0.00600000 -0.07800000 -0.09400000
v -0.00600000 -0.07800000 -0.09000000
v -0.00200000 -0.16200000 -0.09400000
v -0.00200000 -0.16200000 -0.09000000
v -0.00200000 -0.15800000 -0.09400000
v -0.00200000 -0.15800000 -0.09000000
v -0.00200000 -0.15400000 -0.09400000
v -0.00200000 -0.15400000 -0.09000000
v -0.00200000 -0.15000000 -0.09400000
v -0.00200000 -0.15000000 -0.09000000
v -0.00200000 -0.14600000 -0.09400000
v -0.00200000 -0.14600000 -0.09000000
v -0.00200000 -0.14200000 -0.09400000
v -0.00200000 -0.14200000 -0.09000000
v -0.00200000 -0.13800000 -0.09400000
v -0.00200000 -0.13800000 -0.09000000
v -0.00200000 -0.13400000 -0.09400000
v -0.00200000 -0.13400000 -0.09000000
v -0.00200000 -0.13400000 -0.09800000
v -0.00200000 -0.13000000 -0.09800000
v -0.00200000 -0.13000000 -0.09400000
v -0.00200000 -0.13000000 -0.09000000
v -0.00200000 -0.12600000 -0.09800000
v -0.00200000 -0.12600000 -0.09400000
v -0.00200000 -0.12200000 -0.09800000
v -0.00200000 -0.12200000 -0.09400000
v -0.00200000 -0.11800000 -0.09800000
v -0.00200000 -0.11800000 -0.09400000
v -0.00200000 -0.11400000 -0.09800000
v -0.00200000 -0.11400000 -0.09400000
v -0.00200000 -0.11000000 -0.09800000
v -0.00200000 -0.11000000 -0.09400000
v -0.00200000 -0.10600000 -0.09800000
v -0.00200000 -0.10600000 -0.09400000
v -0.00200000 -0.10200000 -0.09800000
v -0.00200000 -0.10200000 -0.09400000
v -0.00200000 -0.09800000 -0.09800000
v -0.00200000 -0.09800000 -0.09400000
v -0.00200000 -0.09400000 -0.09800000
v -0.00200000 -0.09400000 -0.09400000
v -0.00200000 -0.09000000 -0.09800000
v -0.00200000 -0.09000000 -0.09400000
v -0.00200000 -0.08600000 -0.09800000
v -0.00200000 -0.08600000 -0.09400000
v -0.00200000 -0.08200000 -0.09800000
v -0.00200000 -0.08200000 -0.09400000
v -0.00200000 -0.08600000 -0.09000000
v -0.00200000 -0.08200000 -0.09000000
v -0.00200000 -0.07800000 -0.09400000
v -0.00200000 -0.07800000 -0.09000000
v 0.00200000 -0.16200000 -0.09400000
v 0.00200000 -0.16200000 -0.09000000
v 0.00200000 -0.15800000 -0.09400000
v 0.00200000 -0.15800000 -0.09000000
v 0.00200000 -0.15400000 -0.09400000
v 0.00200000 -0.15400000 -0.09000000
v 0.00200000 -0.15000000 -0.09400000
v 0.00200000 -0.15000000 -0.09000000
v 0.00200000 -0.14600000 -0.09400000
v 0.00200000 -0.14600000 -0.09000000
v 0.00200000 -0.14200000 -0.09400000
v 0.00200000 -0.14200000 -0.09000000
v 0.00200000 -0.13800000 -0.09400000
v 0.00200000 -0.13800000 -0.09000000
v 0.00200000 -0.13400000 -0.09400000
v 0.00200000 -0.13400000 -0.09000000
v 0.00200000 -0.13400000 -0.09800000
v 0.00200000 -0.13000000 -0.09800000
v 0.00200000 -0.13000000 -0.09400000
v 0.00200000 -0.13000000 -0.09000000
v 0.00200000 -0.12600000 -0.09800000
v 0.00200000 -0.12600000 -0.09400000
v 0.00200000 -0.12200000 -0.09800000
v 0.00200000 -0.12200000 -0.09400000
v 0.00200000 -0.11800000 -0.09800000
v 0.00200000 -0.11800000 -0.09400000
v 0.00200000 -0.11400000 -0.09800000
v 0.00200000 -0.11400000 -0.09400000
v 0.00200000 -0.11000000 -0.09800000
v 0.00200000 -0.11000000 -0.09400000
v 0.00200000 -0.10600000 -0.09800000
v 0.00200000 -0.10600000 -0.09400000
v 0.00200000 -0.10200000 -0.09800000
v 0.00200000 -0.10200000 -0.09400000
v 0.00200000 -0.09800000 -0.09800000
v 0.00200000 -0.09800000 -0.09400000
v 0.00200000 -0.09400000 -0.09800000
v 0.00200000 -0.09400000 -0.09400000
v 0.00200000 -0.09000000 -0.09800000
v 0.00200000 -0.09000000 -0.09400000
v 0.00200000 -0.08600000 -0.09800000
v 0.00200000 -0.08600000 -0.09400000
v 0.00200000 -0.08200000 -0.09800000
v 0.00200000 -0.08200000 -0.09400000
v 0.00200000 -0.08600000 -0.09000000
v 0.00200000 -0.08200000 -0.09000000
v 0.00200000 -0.07800000 -0.09400000
v 0.00200000 -0.07800000 -0.09000000
v 0.00600000 -0.16200000 -0.09400000
v 0.00600000 -0.16200000 -0.09000000
v 0.00600000 -0.15800000 -0.09400000
v 0.00600000 -0.15800000 -0.09000000
v 0.00600000 -0.15400000 -0.09400000
v 0.00600000 -0.15400000 -0.09000000
v 0.00600000 -0.15000000 -0.09400000
v 0.00600000 -0.15000000 -0.09000000
v 0.00600000 -0.14600000 -0.09400000
v 0.00600000 -0.14600000 -0.09000000
v 0.00600000 -0.14200000 -0.09400000
v 0.00600000 -0.14200000 -0.09000000
v 0.00600000 -0.13800000 -0.09400000
v 0.00600000 -0.13800000 -0.09000000
v 0.00600000 -0.13400000 -0.09400000
v 0.00600000 -0.13400000 -0.09000000
v 0.00600000 -0.13400000 -0.09800000
v 0.00600000 -0.13000000 -0.09800000
v 0.00600000 -0.13000000 -0.09400000
v 0.00600000 -0.13000000 -0.09000000
v 0.00600000 -0.12600000 -0.09800000
v 0.00600000 -0.12600000 -0.09400000
v 0.00600000 -0.12200000 -0.09800000
v 0.00600000 -0.12200000 -0.09400000
v 0.00600000 -0.11800000 -0.09800000
v 0.00600000 -0.11800000 -0.09400000
v 0.00600000 -0.11400000 -0.09800000
v 0.00600000 -0.11400000 -0.09400000
v 0.00600000 -0.11000000 -0.09800000
v 0.00600000 -0.11000000 -0.09400000
v 0.00600000 -0.10600000 -0.09800000
v 0.00600000 -0.10600000 -0.09400000
v 0.00600000 -0.10200000 -0.09800000
v 0.00600000 -0.10200000 -0.09400000
v 0.00600000 -0.09800000 -0.09800000
v 0.00600000 -0.09800000 -0.09400000
v 0.00600000 -0.09400000 -0.09800000
v 0.00600000 -0.09400000 -0.09400000
v 0.00600000 -0.09000000 -0.09800000
v 0.00600000 -0.09000000 -0.09400000
v 0.00600000 -0.08600000 -0.09800000
v 0.00600000 -0.08600000 -0.09400000
v 0.00600000 -0.08200000 -0.09800000
v 0.00600000 -0.08200000 -0.09400000
v 0.00600000 -0.08600000 -0.09000000
v 0.00600000 -0.08200000 -0.09000000
v 0.00600000 -0.07800000 -0.09400000
v 0.00600000 -0.07800000 -0.09000000
v 0.01000000 -0.16200000 -0.09400000
v 0.01000000 -0.16200000 -0.09000000
v 0.01000000 -0.15800000 -0.09400000
v 0.01000000 -0.15800000 -0.09000000
v 0.01000000 -0.15400000 -0.09400000
v 0.01000000 -0.15400000 -0.09000000
v 0.01000000 -0.15000000 -0.09400000
v 0.01000000 -0.15000000 -0.09000000
v 0.01000000 -0.14600000 -0.09400000
v 0.01000000 -0.14600000 -0.09000000
v 0.01000000 -0.14200000 -0.09400000
v 0.01000000 -0.14200000 -0.09000000
v 0.01000000 -0.13800000 -0.09400000
v 0.01000000 -0.13800000 -0.09000000
v 0.01000000 -0.13400000 -0.09400000
v 0.01000000 -0.13400000 -0.09000000
v 0.01000000 -0.13400000 -0.09800000
v 0.01000000 -0.13000000 -0.09800000
v 0.01000000 -0.13000000 -0.09400000
v 0.01000000 -0.13000000 -0.09000000
v 0.01000000 -0.12600000 -0.09800000
v 0.01000000 -0.12600000 -0.09400000
v 0.01000000 -0.12200000 -0.09800000
v 0.01000000 -0.12200000 -0.09400000
v 0.01000000 -0.11800000 -0.09800000
v 0.01000000 -0.11800000 -0.09400000
v 0.01000000 -0.11400000 -0.09800000
v 0.01000000 -0.11400000 -0.09400000
v 0.01000000 -0.11000000 -0.09800000
v 0.01000000 -0.11000000 -0.09400000
v 0.01000000 -0.10600000 -0.09800000
v 0.01000000 -0.10600000 -0.09400000
v 0.01000000 -0.10200000 -0.09800000
v 0.01000000 -0.10200000 -0.09400000
v 0.01000000 -0.09800000 -0.09800000
v 0.01000000 -0.09800000 -0.09400000
v 0.01000000 -0.09400000 -0.09800000
v 0.01000000 -0.09400000 -0.09400000
v 0.01000000 -0.09000000 -0.09800000
v 0.01000000 -0.09000000 -0.09400000
v 0.01000000 -0.08600000 -0.09800000
v 0.01000000 -0.08600000 -0.09400000
v 0.01000000 -0.08200000 -0.09800000
v 0.01000000 -0.08200000 -0.09400000
v 0.01000000 -0.08600000 -0.09000000
v 0.01000000 -0.08200000 -0.09000000
v 0.01000000 -0.07800000 -0.09400000
v 0.01000000 -0.07800000 -0.09000000
v 0.01400000 -0.16200000 -0.09400000
v 0.01400000 -0.16200000 -0.09000000
v 0.01400000 -0.15800000 -0.09400000
v 0.01400000 -0.15800000 -0.09000000
v 0.01400000 -0.15400000 -0.09400000
v 0.01400000 -0.15400000 -0.09000000
v 0.01400000 -0.15000000 -0.09400000
v 0.01400000 -0.15000000 -0.09000000
v 0.01400000 -0.14600000 -0.09400000
v 0.01400000 -0.14600000 -0.09000000
v 0.01400000 -0.14200000 -0.09400000
v 0.01400000 -0.14200000 -0.09000000
v 0.01400000 -0.13800000 -0.09400000
v 0.01400000 -0.13800000 -0.09000000
v 0.01400000 -0.13400000 -0.09400000
v 0.01400000 -0.13400000 -0.09000000
v 0.01400000 -0.13400000 -0.09800000
v 0.01400000 -0.13000000 -0.09800000
v 0.01400000 -0.13000000 -0.09400000
v 0.01400000 -0.13000000 -0.09000000
v 0.01400000 -0.12600000 -0.09800000
v 0.01400000 -0.12600000 -0.09400000
v 0.01400000 -0.12200000 -0.09800000
v 0.01400000 -0.12200000 -0.09400000
v 0.01400000 -0.11800000 -0.09800000
v 0.01400000 -0.11800000 -0.09400000
v 0.01400000 -0.11400000 -0.09800000
v 0.01400000 -0.11400000 -0.09400000
v 0.01400000 -0.11000000 -0.09800000
v 0.01400000 -0.11000000 -0.09400000
v 0.01400000 -0.10600000 -0.09800000
v 0.01400000 -0.10600000 -0.09400000
v 0.01400000 -0.10200000 -0.09800000
v 0.01400000 -0.10200000 -0.09400000
v 0.01400000 -0.09800000 -0.09800000
v 0.01400000 -0.09800000 -0.09400000
v 0.01400000 -0.09400000 -0.09800000
v 0.01400000 -0.09400000 -0.09400000
v 0.01400000 -0.09000000 -0.09800000
v 0.01400000 -0.09000000 -0.09400000
v 0.01400000 -0.08600000 -0.09800000
v 0.01400000 -0.08600000 -0.09400000
v 0.01400000 -0.08200000 -0.09800000
v 0.01400000 -0.08200000 -0.09400000
v 0.01400000 -0.08600000 -0.09000000
v 0.01400000 -0.08200000 -0.09000000
v 0.01400000 -0.07800000 -0.09400000
v 0.01400000 -0.07800000 -0.09000000
v 0.01800000 -0.16200000 -0.09400000
v 0.01800000 -0.16200000 -0.09000000
v 0.01800000 -0.15800000 -0.09400000
v 0.01800000 -0.15800000 -0.09000000
v 0.01800000 -0.15400000 -0.09400000
v 0.01800000 -0.15400000 -0.09000000
v 0.01800000 -0.15000000 -0.09400000
v 0.01800000 -0.15000000 -0.09000000
v 0.01800000 -0.14600000 -0.09400000
v 0.01800000 -0.14600000 -0.09000000
v 0.01800000 -0.14200000 -0.09400000
v 0.01800000 -0.14200000 -0.09000000
v 0.01800000 -0.13800000 -0.09400000
v 0.01800000 -0.13800000 -0.09000000
v 0.01800000 -0.13400000 -0.09400000
v 0.01800000 -0.13400000 -0.09000000
v 0.01800000 -0.13400000 -0.09800000
v 0.01800000 -0.13000000 -0.09800000
v 0.01800000 -0.13000000 -0.09400000
v 0.01800000 -0.13000000 -0.09000000
v 0.01800000 -0.12600000 -0.09800000
v 0.01800000 -0.12600000 -0.09400000
v 0.01800000 -0.12200000 -0.09800000
v 0.01800000 -0.12200000 -0.09400000
v 0.01800000 -0.11800000 -0.09800000
v 0.01800000 -0.11800000 -0.09400000
v 0.01800000 -0.11400000 -0.09800000
v 0.01800000 -0.11400000 -0.09400000
v 0.01800000 -0.11000000 -0.09800000
v 0.01800000 -0.11000000 -0.09400000
v 0.01800000 -0.10600000 -0.09800000
v 0.01800000 -0.10600000 -0.09400000
v 0.01800000 -0.10200000 -0.09800000
v 0.01800000 -0.10200000 -0.09400000
v 0.01800000 -0.09800000 -0.09800000
v 0.01800000 -0.09800000 -0.09400000
v 0.01800000 -0.09400000 -0.09800000
v 0.01800000 -0.09400000 -0.09400000
v 0.01800000 -0.09000000 -0.09800000
v 0.01800000 -0.09000000 -0.09400000
v 0.01800000 -0.08600000 -0.09800000
v 0.01800000 -0.08600000 -0.09400000
v 0.01800000 -0.08200000 -0.09800000
v 0.01800000 -0.08200000 -0.09400000
v 0.01800000 -0.08600000 -0.09000000
v 0.01800000 -0.08200000 -0.09000000
v 0.01800000 -0.07800000 -0.09400000
v 0.01800000 -0.07800000 -0.09000000
v 0.02200000 -0.16200000 -0.09400000
v 0.02200000 -0.16200000 -0.09000000
v 0.02200000 -0.15800000 -0.09400000
v 0.02200000 -0.15800000 -0.09000000
v 0.02200000 -0.15400000 -0.09400000
v 0.02200000 -0.15400000 -0.09000000
v 0.02200000 -0.15000000 -0.09400000
v 0.02200000 -0.15000000 -0.09000000
v 0.02200000 -0.14600000 -0.09400000
v 0.02200000 -0.14600000 -0.09000000
v 0.02200000 -0.14200000 -0.09400000
v 0.02200000 -0.14200000 -0.09000000
v 0.02200000 -0.13800000 -0.09400000
v 0.02200000 -0.13800000 -0.09000000
v 0.02200000 -0.13400000 -0.09400000
v 0.02200000 -0.13400000 -0.09000000
v 0.02200000 -0.13400000 -0.09800000
v 0.02200000 -0.13000000 -0.09800000
v 0.02200000 -0.13000000 -0.09400000
v 0.02200000 -0.13000000 -0.09000000
v 0.02200000 -0.12600000 -0.09800000
v 0.02200000 -0.12600000 -0.09400000
v 0.02200000 -0.12200000 -0.09800000
v 0.02200000 -0.12200000 -0.09400000
v 0.02200000 -0.11800000 -0.09800000
v 0.02200000 -0.11800000 -0.09400000
v 0.02200000 -0.11400000 -0.09800000
v 0.02200000 -0.11400000 -0.09400000
v 0.02200000 -0.11000000 -0.09800000
v 0.02200000 -0.11000000 -0.09400000
v 0.02200000 -0.10600000 -0.09800000
v 0.02200000 -0.10600000 -0.09400000
v 0.02200000 -0.10200000 -0.09800000
v 0.02200000 -0.10200000 -0.09400000
v 0.02200000 -0.09800000 -0.09800000
v 0.02200000 -0.09800000 -0.09400000
v 0.02200000 -0.09400000 -0.09800000
v 0.02200000 -0.09400000 -0.09400000
v 0.02200000 -0.09000000 -0.09800000
v 0.02200000 -0.09000000 -0.09400000
v 0.02200000 -0.08600000 -0.09800000
v 0.02200000 -0.08600000 -0.09400000
v 0.02200000 -0.08200000 -0.09800000
v 0.02200000 -0.08200000 -0.09400000
v 0.02200000 -0.08600000 -0.09000000
v 0.02200000 -0.08200000 -0.09000000
v 0.02200000 -0.07800000 -0.09400000
v 0.02200000 -0.07800000 -0.09000000
v 0.02600000 -0.16200000 -0.09400000
v 0.02600000 -0.16200000 -0.09000000
v 0.02600000 -0.15800000 -0.09400000
v 0.02600000 -0.15800000 -0.09000000
v 0.02600000 -0.15400000 -0.09400000
v 0.02600000 -0.15400000 -0.09000000
v 0.02600000 -0.15000000 -0.09400000
v 0.02600000 -0.15000000 -0.09000000
v 0.02600000 -0.14600000 -0.09400000
v 0.02600000 -0.14600000 -0.09000000
v 0.02600000 -0.14200000 -0.09400000
v 0.02600000 -0.14200000 -0.09000000
v 0.02600000 -0.13800000 -0.09400000
v 0.02600000 -0.13800000 -0.09000000
v 0.02600000 -0.13400000 -0.09400000
v 0.02600000 -0.13400000 -0.09000000
v 0.02600000 -0.13400000 -0.09800000
v 0.02600000 -0.13000000 -0.09800000
v 0.02600000 -0.13000000 -0.09400000
v 0.02600000 -0.13000000 -0.09000000
v 0.02600000 -0.12600000 -0.09800000
v 0.02600000 -0.12600000 -0.09400000
v 0.02600000 -0.12200000 -0.09800000
v 0.02600000 -0.12200000 -0.09400000
v 0.02600000 -0.11800000 -0.09800000
v 0.02600000 -0.11800000 -0.09400000
v 0.02600000 -0.11400000 -0.09800000
v 0.02600000 -0.11400000 -0.09400000
v 0.02600000 -0.11000000 -0.09800000
v 0.02600000 -0.11000000 -0.09400000
v 0.02600000 -0.10600000 -0.09800000
v 0.02600000 -0.10600000 -0.09400000
v 0.02600000 -0.10200000 -0.09800000
v 0.02600000 -0.10200000 -0.09400000
v 0.02600000 -0.09800000 -0.09800000
v 0.02600000 -0.09800000 -0.09400000
v 0.02600000 -0.09400000 -0.09800000
v 0.02600000 -0.09400000 -0.09400000
v 0.02600000 -0.09000000 -0.09800000
v 0.02600000 -0.09000000 -0.09400000
v 0.02600000 -0.08600000 -0.09800000
v 0.02600000 -0.08600000 -0.09400000
v 0.02600000 -0.08200000 -0.09800000
v 0.02600000 -0.08200000 -0.09400000
v 0.02600000 -0.08600000 -0.09000000
v 0.02600000 -0.08200000 -0.09000000
v 0.02600000 -0.07800000 -0.09400000
v 0.02600000 -0.07800000 -0.09000000
v 0.03000000 -0.16200000 -0.09400000
v 0.03000000 -0.16200000 -0.09000000
v 0.03000000 -0.15800000 -0.09400000
v 0.03000000 -0.15800000 -0.09000000
v 0.03000000 -0.15400000 -0.09400000
v 0.03000000 -0.15400000 -0.09000000
v 0.03000000 -0.15000000 -0.09400000
v 0.03000000 -0.15000000 -0.09000000
v 0.03000000 -0.14600000 -0.09400000
v 0.03000000 -0.14600000 -0.09000000
v 0.03000000 -0.14200000 -0.09400000
v 0.03000000 -0.14200000 -0.09000000
v 0.03000000 -0.13800000 -0.09400000
v 0.03000000 -0.13800000 -0.09000000
v 0.03000000 -0.13400000 -0.09400000
v 0.03000000 -0.13400000 -0.09000000
v 0.03000000 -0.13400000 -0.09800000
v 0.03000000 -0.13000000 -0.09800000
v 0.03000000 -0.13000000 -0.09400000
v 0.03000000 -0.13000000 -0.09000000
v 0.03000000 -0.12600000 -0.09800000
v 0.03000000 -0.12600000 -0.09400000
v 0.03000000 -0.12200000 -0.09800000
v 0.03000000 -0.12200000 -0.09400000
v 0.03000000 -0.11800000 -0.09800000
v 0.03000000 -0.11800000 -0.09400000
v 0.03000000 -0.11400000 -0.09800000
v 0.03000000 -0.11400000 -0.09400000
v 0.03000000 -0.11000000 -0.09800000
v 0.03000000 -0.11000000 -0.09400000
v 0.03000000 -0.10600000 -0.09800000
v 0.03000000 -0.10600000 -0.09400000
v 0.03000000 -0.10200000 -0.09800000
v 0.03000000 -0.10200000 -0.09400000
v 0.03000000 -0.09800000 -0.09800000
v 0.03000000 -0.09800000 -0.09400000
v 0.03000000 -0.09400000 -0.09800000
v 0.03000000 -0.09400000 -0.09400000
v 0.03000000 -0.09000000 -0.09800000
v 0.03000000 -0.09000000 -0.09400000
v 0.03000000 -0.08600000 -0.09800000
v 0.03000000 -0.08600000 -0.09400000
v 0.03000000 -0.08200000 -0.09800000
v 0.03000000 -0.08200000 -0.09400000
v 0.03000000 -0.08600000 -0.09000000
v 0.03000000 -0.08200000 -0.09000000
v 0.03000000 -0.07800000 -0.09400000
v 0.03000000 -0.07800000 -0.09000000
v 0.03400000 -0.16200000 -0.09400000
v 0.03400000 -0.16200000 -0.09000000
v 0.03400000 -0.15800000 -0.09400000
v 0.03400000 -0.15800000 -0.09000000
v 0.03400000 -0.15400000 -0.09400000
v 0.03400000 -0.15400000 -0.09000000
v 0.03400000 -0.15000000 -0.09400000
v 0.03400000 -0.15000000 -0.09000000
v 0.03400000 -0.14600000 -0.09400000
v 0.03400000 -0.14600000 -0.09000000
v 0.03400000 -0.14200000 -0.09400000
v 0.03400000 -0.14200000 -0.09000000
v 0.03400000 -0.13800000 -0.09400000
v 0.03400000 -0.13800000 -0.09000000
v 0.03400000 -0.13400000 -0.09400000
v 0.03400000 -0.13400000 -0.09000000
v 0.03400000 -0.13400000 -0.09800000
v 0.03400000 -0.13000000 -0.09800000
v 0.03400000 -0.13000000 -0.09400000
v 0.03400000 -0.13000000 -0.09000000
v 0.03400000 -0.12600000 -0.09800000
v 0.03400000 -0.12600000 -0.09400000
v 0.03400000 -0.12200000 -0.09800000
v 0.03400000 -0.12200000 -0.09400000
v 0.03400000 -0.11800000 -0.09800000
v 0.03400000 -0.11800000 -0.09400000
v 0.03400000 -0.11400000 -0.09800000
v 0.03400000 -0.11400000 -0.09400000
v 0.03400000 -0.11000000 -0.09800000
v 0.03400000 -0.11000000 -0.09400000
v 0.03400000 -0.10600000 -0.09800000
v 0.03400000 -0.10600000 -0.09400000
v 0.03400000 -0.10200000 -0.09800000
v 0.03400000 -0.10200000 -0.09400000
v 0.03400000 -0.09800000 -0.09800000
v 0.03400000 -0.09800000 -0.09400000
v 0.03400000 -0.09400000 -0.09800000
v 0.03400000 -0.09400000 -0.09400000
v 0.03400000 -0.09000000 -0.09800000
v 0.03400000 -0.09000000 -0.09400000
v 0.03400000 -0.08600000 -0.09800000
v 0.03400000 -0.08600000 -0.09400000
v 0.03400000 -0.08200000 -0.09800000
v 0.03400000 -0.08200000 -0.09400000
v 0.03400000 -0.08600000 -0.09000000
v 0.03400000 -0.08200000 -0.09000000
v 0.03400000 -0.07800000 -0.09400000
v 0.03400000 -0.07800000 -0.09000000
v 0.03800000 -0.16200000 -0.09400000
v 0.03800000 -0.16200000 -0.09000000
v 0.03800000 -0.15800000 -0.09400000
v 0.03800000 -0.15800000 -0.09000000
v 0.03800000 -0.15400000 -0.09400000
v 0.03800000 -0.15400000 -0.09000000
v 0.03800000 -0.15000000 -0.09400000
v 0.03800000 -0.15000000 -0.09000000
v 0.03800000 -0.14600000 -0.09400000
v 0.03800000 -0.14600000 -0.09000000
v 0.03800000 -0.14200000 -0.09400000
v 0.03800000 -0.14200000 -0.09000000
v 0.03800000 -0.13800000 -0.09400000
v 0.03800000 -0.13800000 -0.09000000
v 0.03800000 -0.13400000 -0.09400000
v 0.03800000 -0.13400000 -0.09000000
v 0.03800000 -0.13400000 -0.09800000
v 0.03800000 -0.13000000 -0.09800000
v 0.03800000 -0.13000000 -0.09400000
v 0.03800000 -0.13000000 -0.09000000
v 0.03800000 -0.12600000 -0.09800000
v 0.03800000 -0.12600000 -0.09400000
v 0.03800000 -0.12200000 -0.09800000
v 0.03800000 -0.12200000 -0.09400000
v 0.03800000 -0.11800000 -0.09800000
v 0.03800000 -0.11800000 -0.09400000
v 0.03800000 -0.11400000 -0.09800000
v 0.03800000 -0.11400000 -0.09400000
v 0.03800000 -0.11000000 -0.09800000
v 0.03800000 -0.11000000 -0.09400000
v 0.03800000 -0.10600000 -0.09800000
v 0.03800000 -0.10600000 -0.09400000
v 0.03800000 -0.10200000 -0.09800000
v 0.03800000 -0.10200000 -0.09400000
v 0.03800000 -0.09800000 -0.09800000
v 0.03800000 -0.09800000 -0.09400000
v 0.03800000 -0.09400000 -0.09800000
v 0.03800000 -0.09400000 -0.09400000
v 0.03800000 -0.09000000 -0.09800000
v 0.03800000 -0.09000000 -0.09400000
v 0.03800000 -0.08600000 -0.09800000
v 0.03400000 -0.09000000 -0.09000000
v 0.03800000 -0.09000000 -0.09000000
v 0.03800000 -0.08600000 -0.09000000
v 0.03800000 -0.08600000 -0.09400000
v 0.03800000 -0.08200000 -0.09800000
v 0.03800000 -0.08200000 -0.09400000
v 0.03800000 -0.08200000 -0.09000000
v 0.03800000 -0.07800000 -0.09400000
v 0.03800000 -0.07800000 -0.09000000
v 0.04200000 -0.16200000 -0.09400000
v 0.04200000 -0.16200000 -0.09000000
v 0.04200000 -0.15800000 -0.09400000
v 0.04200000 -0.15800000 -0.09000000
v 0.04200000 -0.15400000 -0.09400000
v 0.04200000 -0.15400000 -0.09000000
v 0.04200000 -0.15000000 -0.09400000
v 0.04200000 -0.15000000 -0.09000000
v 0.04200000 -0.14600000 -0.09400000
v 0.04200000 -0.14600000 -0.09000000
v 0.04200000 -0.14200000 -0.09400000
v 0.04200000 -0.14200000 -0.09000000
v 0.04200000 -0.13800000 -0.09400000
v 0.04200000 -0.13800000 -0.09000000
v 0.04200000 -0.13400000 -0.09400000
v 0.04200000 -0.13400000 -0.09000000
v 0.04200000 -0.13000000 -0.09400000
v 0.04200000 -0.13000000 -0.09000000
v 0.04200000 -0.13000000 -0.09800000
v 0.04200000 -0.12600000 -0.09800000
v 0.04200000 -0.12600000 -0.09400000
v 0.03800000 -0.12600000 -0.09000000
v 0.04200000 -0.12600000 -0.09000000
v 0.04200000 -0.12200000 -0.09800000
v 0.04200000 -0.12200000 -0.09400000
v 0.03800000 -0.12200000 -0.09000000
v 0.04200000 -0.12200000 -0.09000000
v 0.04200000 -0.11800000 -0.09800000
v 0.04200000 -0.11800000 -0.09400000
v 0.03800000 -0.11800000 -0.09000000
v 0.04200000 -0.11800000 -0.09000000
v 0.04200000 -0.11400000 -0.09800000
v 0.04200000 -0.11400000 -0.09400000
v 0.03800000 -0.11400000 -0.09000000
v 0.04200000 -0.11400000 -0.09000000
v 0.04200000 -0.11000000 -0.09800000
v 0.04200000 -0.11000000 -0.09400000
v 0.03800000 -0.11000000 -0.09000000
v 0.04200000 -0.11000000 -0.09000000
v 0.04200000 -0.10600000 -0.09800000
v 0.04200000 -0.10600000 -0.09400000
v 0.03800000 -0.10600000 -0.09000000
v 0.04200000 -0.10600000 -0.09000000
v 0.04200000 -0.10200000 -0.09800000
v 0.04200000 -0.10200000 -0.09400000
v 0.03800000 -0.10200000 -0.09000000
v 0.04200000 -0.10200000 -0.09000000
v 0.04200000 -0.09800000 -0.09800000
v 0.04200000 -0.09800000 -0.09400000
v 0.03800000 -0.09800000 -0.09000000
v 0.04200000 -0.09800000 -0.09000000
v 0.04200000 -0.09400000 -0.09800000
v 0.04200000 -0.09400000 -0.09400000
v 0.03800000 -0.09400000 -0.09000000
v 0.04200000 -0.09400000 -0.09000000
v 0.04200000 -0.09000000 -0.09800000
v 0.04200000 -0.09000000 -0.09400000
v 0.04200000 -0.09000000 -0.09000000
v 0.04200000 -0.08600000 -0.09800000
v 0.04200000 -0.08600000 -0.09400000
v 0.04200000 -0.08600000 -0.09000000
v 0.04200000 -0.08200000 -0.09400000
v 0.04200000 -0.08200000 -0.09000000
v 0.04200000 -0.07800000 -0.09400000
v 0.04200000 -0.07800000 -0.09000000
v 0.04600000 -0.16200000 -0.09400000
v 0.04600000 -0.16200000 -0.09000000
v 0.04600000 -0.15800000 -0.09400000
v 0.04600000 -0.15800000 -0.09000000
v 0.04600000 -0.15400000 -0.09400000
v 0.04600000 -0.15400000 -0.09000000
v 0.04600000 -0.15000000 -0.09400000
v 0.04600000 -0.15000000 -0.09000000
v 0.04600000 -0.14600000 -0.09400000
v 0.04600000 -0.14600000 -0.09000000
v 0.04600000 -0.14200000 -0.09400000
v 0.04600000 -0.14200000 -0.09000000
v 0.04600000 -0.13800000 -0.09400000
v 0.04600000 -0.13800000 -0.09000000
v 0.04600000 -0.13400000 -0.09400000
v 0.04600000 -0.13400000 -0.09000000
v 0.04600000 -0.13000000 -0.09400000
v 0.04600000 -0.13000000 -0.09000000
v 0.04600000 -0.12600000 -0.09400000
v 0.04600000 -0.12600000 -0.09000000
v 0.04600000 -0.16600000 -0.09400000
v 0.04600000 -0.16600000 -0.09000000
v 0.05000000 -0.16600000 -0.09400000
v 0.05000000 -0.16600000 -0.09000000
v 0.05000000 -0.16200000 -0.09400000
v 0.05000000 -0.16200000 -0.09000000
v 0.05000000 -0.15800000 -0.09400000
v 0.05000000 -0.15800000 -0.09000000
v 0.05000000 -0.15400000 -0.09400000
v 0.05000000 -0.15400000 -0.09000000
v 0.05000000 -0.15000000 -0.09400000
v 0.05000000 -0.15000000 -0.09000000
v 0.05000000 -0.14600000 -0.09400000
v 0.05000000 -0.14600000 -0.09000000
v 0.05000000 -0.14200000 -0.09400000
v 0.05000000 -0.14200000 -0.09000000
v 0.05000000 -0.13800000 -0.09400000
v 0.05000000 -0.13800000 -0.09000000
v 0.05000000 -0.13400000 -0.09400000
v 0.05000000 -0.13400000 -0.09000000
v 0.05000000 -0.13000000 -0.09400000
v 0.05000000 -0.13000000 -0.09000000
f 2 4 1
f 5 2 1
f 1 4 3
f 3 5 1
f 2 8 4
f 6 2 5
f 6 8 2
f 7 5 3
f 4 10 3
f 3 10 9
f 9 7 3
f 4 12 10
f 8 12 4
f 11 7 9
f 10 14 9
f 9 14 13
f 13 11 9
f 10 16 14
f 12 16 10
f 15 11 13
f 14 18 13
f 13 18 17
f 17 15 13
f 14 20 18
f 16 20 14
f 19 15 17
f 18 22 17
f 17 22 21
f 21 19 17
f 18 24 22
f 20 24 18
f 23 19 21
f 22 26 21
f 21 26 25
f 25 23 21
f 22 28 26
f 24 28 22
f 27 23 25
f 26 30 25
f 25 30 29
f 29 27 25
f 26 32 30
f 28 32 26
f 31 27 29
f 30 34 29
f 29 34 33
f 33 31 29
f 30 36 34
f 32 36 30
f 34 36 33
f 35 31 33
f 33 36 35
f 37 6 5
f 7 37 5
f 6 40 8
f 38 6 37
f 38 40 6
f 39 37 7
f 11 39 7
f 8 42 12
f 40 42 8
f 41 39 11
f 15 41 11
f 12 44 16
f 42 44 12
f 43 41 15
f 19 43 15
f 16 46 20
f 44 46 16
f 45 43 19
f 23 45 19
f 20 48 24
f 46 48 20
f 47 45 23
f 27 47 23
f 24 50 28
f 48 50 24
f 49 47 27
f 31 49 27
f 28 52 32
f 50 52 28
f 51 49 31
f 35 51 31
f 32 54 36
f 52 54 32
f 53 51 35
f 36 56 35
f 35 56 55
f 55 53 35
f 36 58 56
f 54 58 36
f 57 53 55
f 56 60 55
f 55 60 59
f 59 57 55
f 56 62 60
f 58 62 56
f 61 57 59
f 60 64 59
f 59 64 63
f 63 61 59
f 60 66 64
f 62 66 60
f 65 61 63
f 64 68 63
f 63 68 67
f 67 65 63
f 64 70 68
f 66 70 64
f 69 65 67
f 68 72 67
f 67 72 71
f 71 69 67
f 68 74 72
f 70 74 68
f 73 69 71
f 72 76 71
f 71 76 75
f 75 73 71
f 72 78 76
f 74 78 72
f 77 73 75
f 76 80 75
f 75 80 79
f 79 77 75
f 76 82 80
f 78 82 76
f 81 77 79
f 80 84 79
f 79 84 83
f 83 81 79
f 80 86 84
f 82 86 80
f 85 81 83
f 84 88 83
f 83 88 87
f 87 85 83
f 84 90 88
f 86 90 84
f 89 85 87
f 88 92 87
f 87 92 91
f 91 89 87
f 88 94 92
f 90 94 88
f 93 89 91
f 92 96 91
f 91 96 95
f 95 93 91
f 92 98 96
f 94 98 92
f 97 93 95
f 96 100 95
f 95 100 99
f 99 97 95
f 96 102 100
f 98 102 96
f 100 102 99
f 101 97 99
f 99 102 101
f 103 38 37
f 39 103 37
f 38 106 40
f 104 38 103
f 104 106 38
f 105 103 39
f 41 105 39
f 40 108 42
f 106 108 40
f 107 105 41
f 43 107 41
f 42 110 44
f 108 110 42
f 109 107 43
f 45 109 43
f 44 112 46
f 110 112 44
f 111 109 45
f 47 111 45
f 46 114 48
f 112 114 46
f 113 111 47
f 49 113 47
f 48 116 50
f 114 116 48
f 115 113 49
f 51 115 49
f 50 118 52
f 116 118 50
f 117 115 51
f 51 53 119
f 121 51 119
f 119 53 120
f 120 121 119
f 117 51 121
f 122 121 120
f 52 123 54
f 118 123 52
f 53 57 120
f 120 57 124
f 124 122 120
f 125 122 124
f 54 128 58
f 123 128 54
f 127 123 126
f 128 123 127
f 57 61 124
f 124 61 129
f 129 125 124
f 130 125 129
f 58 132 62
f 128 132 58
f 131 128 127
f 132 128 131
f 61 65 129
f 129 65 133
f 133 130 129
f 134 130 133
f 62 136 66
f 132 136 62
f 135 132 131
f 136 132 135
f 65 69 133
f 133 69 137
f 137 134 133
f 138 134 137
f 66 140 70
f 136 140 66
f 139 136 135
f 140 136 139
f 69 73 137
f 137 73 141
f 141 138 137
f 142 138 141
f 70 144 74
f 140 144 70
f 143 140 139
f 144 140 143
f 73 77 141
f 141 77 145
f 145 142 141
f 146 142 145
f 74 148 78
f 144 148 74
f 147 144 143
f 148 144 147
f 77 81 145
f 145 81 149
f 149 146 145
f 150 146 149
f 78 152 82
f 148 152 78
f 151 148 147
f 152 148 151
f 81 85 149
f 149 85 153
f 153 150 149
f 154 150 153
f 82 156 86
f 152 156 82
f 155 152 151
f 156 152 155
f 85 89 153
f 153 89 157
f 157 154 153
f 158 154 157
f 86 160 90
f 156 160 86
f 159 156 155
f 160 156 159
f 89 93 157
f 157 93 161
f 161 158 157
f 162 158 161
f 90 164 94
f 160 164 90
f 163 160 159
f 164 160 163
f 93 97 161
f 161 97 165
f 165 162 161
f 97 167 165
f 166 162 165
f 165 167 166
f 94 168 98
f 164 168 94
f 167 164 163
f 168 164 167
f 101 167 97
f 98 170 102
f 168 170 98
f 102 170 101
f 169 167 101
f 101 170 169
f 171 104 103
f 105 171 103
f 104 174 106
f 172 104 171
f 172 174 104
f 173 171 105
f 107 173 105
f 106 176 108
f 174 176 106
f 175 173 107
f 109 175 107
f 108 178 110
f 176 178 108
f 177 175 109
f 111 177 109
f 110 180 112
f 178 180 110
f 179 177 111
f 113 179 111
f 112 182 114
f 180 182 112
f 181 179 113
f 115 181 113
f 114 184 116
f 182 184 114
f 183 181 115
f 117 183 115
f 116 186 118
f 184 186 116
f 185 183 117
f 187 117 121
f 122 187 121
f 185 117 187
f 188 187 122
f 118 190 123
f 186 190 118
f 123 190 126
f 126 190 189
f 125 188 122
f 126 192 127
f 189 192 126
f 191 188 125
f 130 191 125
f 127 194 131
f 192 194 127
f 193 191 130
f 134 193 130
f 131 196 135
f 194 196 131
f 195 193 134
f 138 195 134
f 135 198 139
f 196 198 135
f 197 195 138
f 142 197 138
f 139 200 143
f 198 200 139
f 199 197 142
f 146 199 142
f 143 202 147
f 200 202 143
f 201 199 146
f 150 201 146
f 147 204 151
f 202 204 147
f 203 201 150
f 154 203 150
f 151 206 155
f 204 206 151
f 205 203 154
f 158 205 154
f 155 208 159
f 206 208 155
f 207 205 158
f 162 207 158
f 159 210 163
f 208 210 159
f 209 207 162
f 166 209 162
f 163 212 167
f 210 212 163
f 211 209 166
f 167 169 166
f 166 169 213
f 213 211 166
f 169 215 213
f 214 211 213
f 213 215 214
f 212 168 167
f 168 217 170
f 216 168 212
f 216 217 168
f 170 217 169
f 169 217 215
f 218 172 171
f 173 218 171
f 172 221 174
f 219 172 218
f 219 221 172
f 220 218 173
f 175 220 173
f 174 223 176
f 221 223 174
f 222 220 175
f 177 222 175
f 176 225 178
f 223 225 176
f 224 222 177
f 179 224 177
f 178 227 180
f 225 227 178
f 226 224 179
f 181 226 179
f 180 229 182
f 227 229 180
f 228 226 181
f 183 228 181
f 182 231 184
f 229 231 182
f 230 228 183
f 185 230 183
f 184 233 186
f 231 233 184
f 232 230 185
f 234 185 187
f 188 234 187
f 232 185 234
f 235 234 188
f 186 237 190
f 233 237 186
f 190 237 189
f 189 237 236
f 191 235 188
f 189 239 192
f 236 239 189
f 238 235 191
f 193 238 191
f 192 241 194
f 239 241 192
f 240 238 193
f 195 240 193
f 194 243 196
f 241 243 194
f 242 240 195
f 197 242 195
f 196 245 198
f 243 245 196
f 244 242 197
f 199 244 197
f 198 247 200
f 245 247 198
f 246 244 199
f 201 246 199
f 200 249 202
f 247 249 200
f 248 246 201
f 203 248 201
f 202 251 204
f 249 251 202
f 250 248 203
f 205 250 203
f 204 253 206
f 251 253 204
f 252 250 205
f 207 252 205
f 206 255 208
f 253 255 206
f 254 252 207
f 209 254 207
f 208 257 210
f 255 257 208
f 256 254 209
f 211 256 209
f 210 259 212
f 257 259 210
f 258 256 211
f 214 258 211
f 215 261 214
f 260 258 214
f 214 261 260
f 259 216 212
f 216 263 217
f 262 216 259
f 262 263 216
f 217 263 215
f 215 263 261
f 264 219 218
f 220 264 218
f 219 267 221
f 265 219 264
f 265 267 219
f 266 264 220
f 222 266 220
f 221 269 223
f 267 269 221
f 268 266 222
f 224 268 222
f 223 271 225
f 269 271 223
f 270 268 224
f 226 270 224
f 225 273 227
f 271 273 225
f 272 270 226
f 228 272 226
f 227 275 229
f 273 275 227
f 274 272 228
f 230 274 228
f 229 277 231
f 275 277 229
f 276 274 230
f 232 276 230
f 231 279 233
f 277 279 231
f 278 276 232
f 280 232 234
f 235 280 234
f 278 232 280
f 281 280 235
f 233 283 237
f 279 283 233
f 237 283 236
f 236 283 282
f 238 281 235
f 236 285 239
f 282 285 236
f 284 281 238
f 240 284 238
f 239 287 241
f 285 287 239
f 286 284 240
f 242 286 240
f 241 289 243
f 287 289 241
f 288 286 242
f 244 288 242
f 243 291 245
f 289 291 243
f 290 288 244
f 246 290 244
f 245 293 247
f 291 293 245
f 292 290 246
f 248 292 246
f 247 295 249
f 293 295 247
f 294 292 248
f 250 294 248
f 249 297 251
f 295 297 249
f 296 294 250
f 252 296 250
f 251 299 253
f 297 299 251
f 298 296 252
f 254 298 252
f 253 301 255
f 299 301 253
f 300 298 254
f 256 300 254
f 255 303 257
f 301 303 255
f 302 300 256
f 258 302 256
f 257 305 259
f 303 305 257
f 304 302 258
f 260 304 258
f 261 307 260
f 306 304 260
f 260 307 306
f 305 262 259
f 262 309 263
f 308 262 305
f 308 309 262
f 263 311 261
f 261 311 310
f 310 307 261
f 263 313 311
f 309 313 263
f 311 313 310
f 312 307 310
f 310 313 312
f 314 265 264
f 266 314 264
f 265 317 267
f 315 265 314
f 315 317 265
f 316 314 266
f 268 316 266
f 267 319 269
f 317 319 267
f 318 316 268
f 270 318 268
f 269 321 271
f 319 321 269
f 320 318 270
f 272 320 270
f 271 323 273
f 321 323 271
f 322 320 272
f 274 322 272
f 273 325 275
f 323 325 273
f 324 322 274
f 276 324 274
f 275 327 277
f 325 327 275
f 326 324 276
f 278 326 276
f 277 329 279
f 327 329 277
f 328 326 278
f 330 278 280
f 281 330 280
f 328 278 330
f 331 330 281
f 279 333 283
f 329 333 279
f 283 333 282
f 282 333 332
f 284 331 281
f 282 335 285
f 332 335 282
f 334 331 284
f 286 334 284
f 285 337 287
f 335 337 285
f 336 334 286
f 288 336 286
f 287 339 289
f 337 339 287
f 338 336 288
f 290 338 288
f 289 341 291
f 339 341 289
f 340 338 290
f 292 340 290
f 291 343 293
f 341 343 291
f 342 340 292
f 294 342 292
f 293 345 295
f 343 345 293
f 344 342 294
f 296 344 294
f 295 347 297
f 345 347 295
f 346 344 296
f 298 346 296
f 297 349 299
f 347 349 297
f 348 346 298
f 300 348 298
f 299 351 301
f 349 351 299
f 350 348 300
f 302 350 300
f 301 353 303
f 351 353 301
f 352 350 302
f 304 352 302
f 303 355 305
f 353 355 303
f 354 352 304
f 306 354 304
f 307 357 306
f 356 354 306
f 306 357 356
f 355 308 305
f 308 359 309
f 358 308 355
f 358 359 308
f 312 357 307
f 309 361 313
f 359 361 309
f 313 361 312
f 360 357 312
f 312 361 360
f 362 315 314
f 316 362 314
f 315 365 317
f 363 315 362
f 363 365 315
f 364 362 316
f 318 364 316
f 317 367 319
f 365 367 317
f 366 364 318
f 320 366 318
f 319 369 321
f 367 369 319
f 368 366 320
f 322 368 320
f 321 371 323
f 369 371 321
f 370 368 322
f 324 370 322
f 323 373 325
f 371 373 323
f 372 370 324
f 326 372 324
f 325 375 327
f 373 375 325
f 374 372 326
f 328 374 326
f 327 377 329
f 375 377 327
f 376 374 328
f 378 328 330
f 331 378 330
f 376 328 378
f 379 378 331
f 329 381 333
f 377 381 329
f 333 381 332
f 332 381 380
f 334 379 331
f 332 383 335
f 380 383 332
f 382 379 334
f 336 382 334
f 335 385 337
f 383 385 335
f 384 382 336
f 338 384 336
f 337 387 339
f 385 387 337
f 386 384 338
f 340 386 338
f 339 389 341
f 387 389 339
f 388 386 340
f 342 388 340
f 341 391 343
f 389 391 341
f 390 388 342
f 344 390 342
f 343 393 345
f 391 393 343
f 392 390 344
f 346 392 344
f 345 395 347
f 393 395 345
f 394 392 346
f 348 394 346
f 347 397 349
f 395 397 347
f 396 394 348
f 350 396 348
f 349 399 351
f 397 399 349
f 398 396 350
f 352 398 350
f 351 401 353
f 399 401 351
f 400 398 352
f 354 400 352
f 353 403 355
f 401 403 353
f 402 400 354
f 356 402 354
f 357 405 356
f 404 402 356
f 356 405 404
f 403 358 355
f 358 407 359
f 406 358 403
f 406 407 358
f 360 405 357
f 359 409 361
f 407 409 359
f 361 409 360
f 408 405 360
f 360 409 408
f 410 363 362
f 364 410 362
f 363 413 365
f 411 363 410
f 411 413 363
f 412 410 364
f 366 412 364
f 365 415 367
f 413 415 365
f 414 412 366
f 368 414 366
f 367 417 369
f 415 417 367
f 416 414 368
f 370 416 368
f 369 419 371
f 417 419 369
f 418 416 370
f 372 418 370
f 371 421 373
f 419 421 371
f 420 418 372
f 374 420 372
f 373 423 375
f 421 423 373
f 422 420 374
f 376 422 374
f 375 425 377
f 423 425 375
f 424 422 376
f 426 376 378
f 379 426 378
f 424 376 426
f 427 426 379
f 377 429 381
f 425 429 377
f 381 429 380
f 380 429 428
f 382 427 379
f 380 431 383
f 428 431 380
f 430 427 382
f 384 430 382
f 383 433 385
f 431 433 383
f 432 430 384
f 386 432 384
f 385 435 387
f 433 435 385
f 434 432 386
f 388 434 386
f 387 437 389
f 435 437 387
f 436 434 388
f 390 436 388
f 389 439 391
f 437 439 389
f 438 436 390
f 392 438 390
f 391 441 393
f 439 441 391
f 440 438 392
f 394 440 392
f 393 443 395
f 441 443 393
f 442 440 394
f 396 442 394
f 395 445 397
f 443 445 395
f 444 442 396
f 398 444 396
f 397 447 399
f 445 447 397
f 446 444 398
f 400 446 398
f 399 449 401
f 447 449 399
f 448 446 400
f 402 448 400
f 401 451 403
f 449 451 401
f 450 448 402
f 404 450 402
f 405 453 404
f 452 450 404
f 404 453 452
f 451 406 403
f 406 455 407
f 454 406 451
f 454 455 406
f 408 453 405
f 407 457 409
f 455 457 407
f 409 457 408
f 456 453 408
f 408 457 456
f 458 411 410
f 412 458 410
f 411 461 413
f 459 411 458
f 459 461 411
f 460 458 412
f 414 460 412
f 413 463 415
f 461 463 413
f 462 460 414
f 416 462 414
f 415 465 417
f 463 465 415
f 464 462 416
f 418 464 416
f 417 467 419
f 465 467 417
f 466 464 418
f 420 466 418
f 419 469 421
f 467 469 419
f 468 466 420
f 422 468 420
f 421 471 423
f 469 471 421
f 470 468 422
f 424 470 422
f 423 473 425
f 471 473 423
f 472 470 424
f 474 424 426
f 427 474 426
f 472 424 474
f 475 474 427
f 425 477 429
f 473 477 425
f 429 477 428
f 428 477 476
f 430 475 427
f 428 479 431
f 476 479 428
f 478 475 430
f 432 478 430
f 431 481 433
f 479 481 431
f 480 478 432
f 434 480 432
f 433 483 435
f 481 483 433
f 482 480 434
f 436 482 434
f 435 485 437
f 483 485 435
f 484 482 436
f 438 484 436
f 437 487 439
f 485 487 437
f 486 484 438
f 440 486 438
f 439 489 441
f 487 489 439
f 488 486 440
f 442 488 440
f 441 491 443
f 489 491 441
f 490 488 442
f 444 490 442
f 443 493 445
f 491 493 443
f 492 490 444
f 446 492 444
f 445 495 447
f 493 495 445
f 494 492 446
f 448 494 446
f 447 497 449
f 495 497 447
f 496 494 448
f 450 496 448
f 449 499 451
f 497 499 449
f 498 496 450
f 452 498 450
f 453 501 452
f 500 498 452
f 452 501 500
f 499 454 451
f 454 503 455
f 502 454 499
f 502 503 454
f 456 501 453
f 455 505 457
f 503 505 455
f 457 505 456
f 504 501 456
f 456 505 504
f 506 459 458
f 460 506 458
f 459 509 461
f 507 459 506
f 507 509 459
f 508 506 460
f 462 508 460
f 461 511 463
f 509 511 461
f 510 508 462
f 464 510 462
f 463 513 465
f 511 513 463
f 512 510 464
f 466 512 464
f 465 515 467
f 513 515 465
f 514 512 466
f 468 514 466
f 467 517 469
f 515 517 467
f 516 514 468
f 470 516 468
f 469 519 471
f 517 519 469
f 518 516 470
f 472 518 470
f 471 521 473
f 519 521 471
f 520 518 472
f 522 472 474
f 475 522 474
f 520 472 522
f 523 522 475
f 473 525 477
f 521 525 473
f 477 525 476
f 476 525 524
f 478 523 475
f 476 527 479
f 524 527 476
f 526 523 478
f 480 526 478
f 479 529 481
f 527 529 479
f 528 526 480
f 482 528 480
f 481 531 483
f 529 531 481
f 530 528 482
f 484 530 482
f 483 533 485
f 531 533 483
f 532 530 484
f 486 532 484
f 485 535 487
f 533 535 485
f 534 532 486
f 488 534 486
f 487 537 489
f 535 537 487
f 536 534 488
f 490 536 488
f 489 539 491
f 537 539 489
f 538 536 490
f 492 538 490
f 491 541 493
f 539 541 491
f 540 538 492
f 494 540 492
f 493 543 495
f 541 543 493
f 542 540 494
f 496 542 494
f 495 545 497
f 543 545 495
f 544 542 496
f 498 544 496
f 497 547 499
f 545 547 497
f 546 544 498
f 500 546 498
f 501 549 500
f 548 546 500
f 500 549 548
f 547 502 499
f 502 551 503
f 550 502 547
f 550 551 502
f 504 549 501
f 503 553 505
f 551 553 503
f 505 553 504
f 552 549 504
f 504 553 552
f 554 507 506
f 508 554 506
f 507 557 509
f 555 507 554
f 555 557 507
f 556 554 508
f 510 556 508
f 509 559 511
f 557 559 509
f 558 556 510
f 512 558 510
f 511 561 513
f 559 561 511
f 560 558 512
f 514 560 512
f 513 563 515
f 561 563 513
f 562 560 514
f 516 562 514
f 515 565 517
f 563 565 515
f 564 562 516
f 518 564 516
f 517 567 519
f 565 567 517
f 566 564 518
f 520 566 518
f 519 569 521
f 567 569 519
f 568 566 520
f 570 520 522
f 523 570 522
f 568 520 570
f 571 570 523
f 521 573 525
f 569 573 521
f 525 573 524
f 524 573 572
f 526 571 523
f 524 575 527
f 572 575 524
f 574 571 526
f 528 574 526
f 527 577 529
f 575 577 527
f 576 574 528
f 530 576 528
f 529 579 531
f 577 579 529
f 578 576 530
f 532 578 530
f 531 581 533
f 579 581 531
f 580 578 532
f 534 580 532
f 533 583 535
f 581 583 533
f 582 580 534
f 536 582 534
f 535 585 537
f 583 585 535
f 584 582 536
f 538 584 536
f 537 587 539
f 585 587 537
f 586 584 538
f 540 586 538
f 539 589 541
f 587 589 539
f 588 586 540
f 542 588 540
f 541 591 543
f 589 591 541
f 590 588 542
f 544 590 542
f 543 593 545
f 591 593 543
f 592 590 544
f 546 592 544
f 545 595 547
f 593 595 545
f 594 592 546
f 548 594 546
f 549 597 548
f 596 594 548
f 548 597 596
f 595 550 547
f 550 599 551
f 598 550 595
f 598 599 550
f 552 597 549
f 551 601 553
f 599 601 551
f 553 601 552
f 600 597 552
f 552 601 600
f 602 555 554
f 556 602 554
f 555 605 557
f 603 555 602
f 603 605 555
f 604 602 556
f 558 604 556
f 557 607 559
f 605 607 557
f 606 604 558
f 560 606 558
f 559 609 561
f 607 609 559
f 608 606 560
f 562 608 560
f 561 611 563
f 609 611 561
f 610 608 562
f 564 610 562
f 563 613 565
f 611 613 563
f 612 610 564
f 566 612 564
f 565 615 567
f 613 615 565
f 614 612 566
f 568 614 566
f 567 617 569
f 615 617 567
f 616 614 568
f 618 568 570
f 571 618 570
f 616 568 618
f 619 618 571
f 569 621 573
f 617 621 569
f 573 621 572
f 572 621 620
f 574 619 571
f 572 623 575
f 620 623 572
f 622 619 574
f 576 622 574
f 575 625 577
f 623 625 575
f 624 622 576
f 578 624 576
f 577 627 579
f 625 627 577
f 626 624 578
f 580 626 578
f 579 629 581
f 627 629 579
f 628 626 580
f 582 628 580
f 581 631 583
f 629 631 581
f 630 628 582
f 584 630 582
f 583 633 585
f 631 633 583
f 632 630 584
f 586 632 584
f 585 635 587
f 633 635 585
f 634 632 586
f 588 634 586
f 587 637 589
f 635 637 587
f 636 634 588
f 590 636 588
f 589 639 591
f 637 639 589
f 638 636 590
f 592 638 590
f 591 641 593
f 639 641 591
f 640 638 592
f 594 640 592
f 593 643 595
f 641 643 593
f 642 640 594
f 596 642 594
f 597 645 596
f 644 642 596
f 596 645 644
f 643 598 595
f 598 647 599
f 646 598 643
f 646 647 598
f 600 645 597
f 599 649 601
f 647 649 599
f 601 649 600
f 648 645 600
f 600 649 648
f 650 603 602
f 604 650 602
f 603 653 605
f 651 603 650
f 651 653 603
f 652 650 604
f 606 652 604
f 605 655 607
f 653 655 605
f 654 652 606
f 608 654 606
f 607 657 609
f 655 657 607
f 656 654 608
f 610 656 608
f 609 659 611
f 657 659 609
f 658 656 610
f 612 658 610
f 611 661 613
f 659 661 611
f 660 658 612
f 614 660 612
f 613 663 615
f 661 663 613
f 662 660 614
f 616 662 614
f 615 665 617
f 663 665 615
f 664 662 616
f 666 616 618
f 619 666 618
f 664 616 666
f 667 666 619
f 617 669 621
f 665 669 617
f 621 669 620
f 620 669 668
f 622 667 619
f 620 671 623
f 668 671 620
f 670 667 622
f 624 670 622
f 623 673 625
f 671 673 623
f 672 670 624
f 626 672 624
f 625 675 627
f 673 675 625
f 674 672 626
f 628 674 626
f 627 677 629
f 675 677 627
f 676 674 628
f 630 676 628
f 629 679 631
f 677 679 629
f 678 676 630
f 632 678 630
f 631 681 633
f 679 681 631
f 680 678 632
f 634 680 632
f 633 683 635
f 681 683 633
f 682 680 634
f 636 682 634
f 635 685 637
f 683 685 635
f 684 682 636
f 638 684 636
f 637 687 639
f 685 687 637
f 686 684 638
f 640 686 638
f 639 689 641
f 687 689 639
f 688 686 640
f 642 688 640
f 641 691 643
f 689 691 641
f 690 688 642
f 644 690 642
f 645 693 644
f 692 690 644
f 644 693 692
f 691 646 643
f 646 695 647
f 694 646 691
f 694 695 646
f 648 693 645
f 647 697 649
f 695 697 647
f 649 697 648
f 696 693 648
f 648 697 696
f 698 651 650
f 652 698 650
f 651 701 653
f 699 651 698
f 699 701 651
f 700 698 652
f 654 700 652
f 653 703 655
f 701 703 653
f 702 700 654
f 656 702 654
f 655 705 657
f 703 705 655
f 704 702 656
f 658 704 656
f 657 707 659
f 705 707 657
f 706 704 658
f 660 706 658
f 659 709 661
f 707 709 659
f 708 706 660
f 662 708 660
f 661 711 663
f 709 711 661
f 710 708 662
f 664 710 662
f 663 713 665
f 711 713 663
f 712 710 664
f 714 664 666
f 667 714 666
f 712 664 714
f 715 714 667
f 665 717 669
f 713 717 665
f 669 717 668
f 668 717 716
f 670 715 667
f 668 719 671
f 716 719 668
f 718 715 670
f 672 718 670
f 671 721 673
f 719 721 671
f 720 718 672
f 674 720 672
f 673 723 675
f 721 723 673
f 722 720 674
f 676 722 674
f 675 725 677
f 723 725 675
f 724 722 676
f 678 724 676
f 677 727 679
f 725 727 677
f 726 724 678
f 680 726 678
f 679 729 681
f 727 729 679
f 728 726 680
f 682 728 680
f 681 731 683
f 729 731 681
f 730 728 682
f 684 730 682
f 683 733 685
f 731 733 683
f 732 730 684
f 686 732 684
f 685 735 687
f 733 735 685
f 734 732 686
f 688 734 686
f 687 737 689
f 735 737 687
f 736 734 688
f 690 736 688
f 689 739 691
f 737 739 689
f 738 736 690
f 692 738 690
f 693 741 692
f 740 738 692
f 692 741 740
f 739 694 691
f 694 743 695
f 742 694 739
f 742 743 694
f 696 741 693
f 695 745 697
f 743 745 695
f 697 745 696
f 744 741 696
f 696 745 744
f 746 699 698
f 700 746 698
f 699 749 701
f 747 699 746
f 747 749 699
f 748 746 700
f 702 748 700
f 701 751 703
f 749 751 701
f 750 748 702
f 704 750 702
f 703 753 705
f 751 753 703
f 752 750 704
f 706 752 704
f 705 755 707
f 753 755 705
f 754 752 706
f 708 754 706
f 707 757 709
f 755 757 707
f 756 754 708
f 710 756 708
f 709 759 711
f 757 759 709
f 758 756 710
f 712 758 710
f 711 761 713
f 759 761 711
f 760 758 712
f 762 712 714
f 715 762 714
f 760 712 762
f 763 762 715
f 713 765 717
f 761 765 713
f 717 765 716
f 716 765 764
f 718 763 715
f 716 767 719
f 764 767 716
f 766 763 718
f 720 766 718
f 719 769 721
f 767 769 719
f 768 766 720
f 722 768 720
f 721 771 723
f 769 771 721
f 770 768 722
f 724 770 722
f 723 773 725
f 771 773 723
f 772 770 724
f 726 772 724
f 725 775 727
f 773 775 725
f 774 772 726
f 728 774 726
f 727 777 729
f 775 777 727
f 776 774 728
f 730 776 728
f 729 779 731
f 777 779 729
f 778 776 730
f 732 778 730
f 731 781 733
f 779 781 731
f 780 778 732
f 734 780 732
f 733 783 735
f 781 783 733
f 782 780 734
f 736 782 734
f 735 785 737
f 783 785 735
f 784 782 736
f 738 784 736
f 737 787 739
f 785 787 737
f 786 784 738
f 740 786 738
f 741 789 740
f 788 786 740
f 740 789 788
f 787 742 739
f 742 791 743
f 790 742 787
f 790 791 742
f 744 789 741
f 743 793 745
f 791 793 743
f 745 793 744
f 792 789 744
f 744 793 792
f 794 747 746
f 748 794 746
f 747 797 749
f 795 747 794
f 795 797 747
f 796 794 748
f 750 796 748
f 749 799 751
f 797 799 749
f 798 796 750
f 752 798 750
f 751 801 753
f 799 801 751
f 800 798 752
f 754 800 752
f 753 803 755
f 801 803 753
f 802 800 754
f 756 802 754
f 755 805 757
f 803 805 755
f 804 802 756
f 758 804 756
f 757 807 759
f 805 807 757
f 806 804 758
f 760 806 758
f 759 809 761
f 807 809 759
f 808 806 760
f 810 760 762
f 763 810 762
f 808 760 810
f 811 810 763
f 761 813 765
f 809 813 761
f 765 813 764
f 764 813 812
f 766 811 763
f 764 815 767
f 812 815 764
f 814 811 766
f 768 814 766
f 767 817 769
f 815 817 767
f 816 814 768
f 770 816 768
f 769 819 771
f 817 819 769
f 818 816 770
f 772 818 770
f 771 821 773
f 819 821 771
f 820 818 772
f 774 820 772
f 773 823 775
f 821 823 773
f 822 820 774
f 776 822 774
f 775 825 777
f 823 825 775
f 824 822 776
f 778 824 776
f 777 827 779
f 825 827 777
f 826 824 778
f 780 826 778
f 779 829 781
f 827 829 779
f 828 826 780
f 782 828 780
f 781 831 783
f 829 831 781
f 830 828 782
f 784 830 782
f 783 833 785
f 831 833 783
f 832 830 784
f 786 832 784
f 785 835 787
f 833 835 785
f 834 832 786
f 788 834 786
f 789 837 788
f 836 834 788
f 788 837 836
f 835 790 787
f 790 839 791
f 838 790 835
f 838 839 790
f 792 837 789
f 791 841 793
f 839 841 791
f 793 841 792
f 840 837 792
f 792 841 840
f 842 795 794
f 796 842 794
f 795 845 797
f 843 795 842
f 843 845 795
f 844 842 796
f 798 844 796
f 797 847 799
f 845 847 797
f 846 844 798
f 800 846 798
f 799 849 801
f 847 849 799
f 848 846 800
f 802 848 800
f 801 851 803
f 849 851 801
f 850 848 802
f 804 850 802
f 803 853 805
f 851 853 803
f 852 850 804
f 806 852 804
f 805 855 807
f 853 855 805
f 854 852 806
f 808 854 806
f 807 857 809
f 855 857 807
f 856 854 808
f 858 808 810
f 811 858 810
f 856 808 858
f 859 858 811
f 809 861 813
f 857 861 809
f 813 861 812
f 812 861 860
f 814 859 811
f 812 863 815
f 860 863 812
f 862 859 814
f 816 862 814
f 815 865 817
f 863 865 815
f 864 862 816
f 818 864 816
f 817 867 819
f 865 867 817
f 866 864 818
f 820 866 818
f 819 869 821
f 867 869 819
f 868 866 820
f 822 868 820
f 821 871 823
f 869 871 821
f 870 868 822
f 824 870 822
f 823 873 825
f 871 873 823
f 872 870 824
f 826 872 824
f 825 875 827
f 873 875 825
f 874 872 826
f 828 874 826
f 827 877 829
f 875 877 827
f 876 874 828
f 830 876 828
f 829 879 831
f 877 879 829
f 878 876 830
f 832 878 830
f 831 881 833
f 879 881 831
f 880 878 832
f 834 880 832
f 833 883 835
f 881 883 833
f 882 880 834
f 836 882 834
f 837 885 836
f 884 882 836
f 836 885 884
f 883 838 835
f 838 887 839
f 886 838 883
f 886 887 838
f 840 885 837
f 839 889 841
f 887 889 839
f 841 889 840
f 888 885 840
f 840 889 888
f 890 843 842
f 844 890 842
f 843 893 845
f 891 843 890
f 891 893 843
f 892 890 844
f 846 892 844
f 845 895 847
f 893 895 845
f 894 892 846
f 848 894 846
f 847 897 849
f 895 897 847
f 896 894 848
f 850 896 848
f 849 899 851
f 897 899 849
f 898 896 850
f 852 898 850
f 851 901 853
f 899 901 851
f 900 898 852
f 854 900 852
f 853 903 855
f 901 903 853
f 902 900 854
f 856 902 854
f 855 905 857
f 903 905 855
f 904 902 856
f 906 856 858
f 859 906 858
f 904 856 906
f 907 906 859
f 857 909 861
f 905 909 857
f 861 909 860
f 860 909 908
f 862 907 859
f 860 911 863
f 908 911 860
f 910 907 862
f 864 910 862
f 863 913 865
f 911 913 863
f 912 910 864
f 866 912 864
f 865 915 867
f 913 915 865
f 914 912 866
f 868 914 866
f 867 917 869
f 915 917 867
f 916 914 868
f 870 916 868
f 869 919 871
f 917 919 869
f 918 916 870
f 872 918 870
f 871 921 873
f 919 921 871
f 920 918 872
f 874 920 872
f 873 923 875
f 921 923 873
f 922 920 874
f 876 922 874
f 875 925 877
f 923 925 875
f 924 922 876
f 878 924 876
f 877 927 879
f 925 927 877
f 926 924 878
f 880 926 878
f 879 929 881
f 927 929 879
f 928 926 880
f 882 928 880
f 881 931 883
f 929 931 881
f 930 928 882
f 884 930 882
f 885 933 884
f 932 930 884
f 884 933 932
f 931 886 883
f 886 935 887
f 934 886 931
f 934 935 886
f 888 933 885
f 887 937 889
f 935 937 887
f 889 937 888
f 936 933 888
f 888 937 936
f 938 891 890
f 892 938 890
f 891 941 893
f 939 891 938
f 939 941 891
f 940 938 892
f 894 940 892
f 893 943 895
f 941 943 893
f 942 940 894
f 896 942 894
f 895 945 897
f 943 945 895
f 944 942 896
f 898 944 896
f 897 947 899
f 945 947 897
f 946 944 898
f 900 946 898
f 899 949 901
f 947 949 899
f 948 946 900
f 902 948 900
f 901 951 903
f 949 951 901
f 950 948 902
f 904 950 902
f 903 953 905
f 951 953 903
f 952 950 904
f 954 904 906
f 907 954 906
f 952 904 954
f 955 954 907
f 905 957 909
f 953 957 905
f 909 957 908
f 908 957 956
f 910 955 907
f 908 959 911
f 956 959 908
f 958 955 910
f 912 958 910
f 911 961 913
f 959 961 911
f 960 958 912
f 914 960 912
f 913 963 915
f 961 963 913
f 962 960 914
f 916 962 914
f 915 965 917
f 963 965 915
f 964 962 916
f 918 964 916
f 917 967 919
f 965 967 917
f 966 964 918
f 920 966 918
f 919 969 921
f 967 969 919
f 968 966 920
f 922 968 920
f 921 971 923
f 969 971 921
f 970 968 922
f 924 970 922
f 923 973 925
f 971 973 923
f 972 970 924
f 926 972 924
f 925 975 927
f 973 975 925
f 974 972 926
f 928 974 926
f 927 977 929
f 975 977 927
f 976 974 928
f 930 976 928
f 929 979 931
f 977 979 929
f 978 976 930
f 932 978 930
f 933 981 932
f 980 978 932
f 932 981 980
f 979 934 931
f 934 983 935
f 982 934 979
f 982 983 934
f 936 981 933
f 935 985 937
f 983 985 935
f 937 985 936
f 984 981 936
f 936 985 984
f 986 939 938
f 940 986 938
f 939 989 941
f 987 939 986
f 987 989 939
f 988 986 940
f 942 988 940
f 941 991 943
f 989 991 941
f 990 988 942
f 944 990 942
f 943 993 945
f 991 993 943
f 992 990 944
f 946 992 944
f 945 995 947
f 993 995 945
f 994 992 946
f 948 994 946
f 947 997 949
f 995 997 947
f 996 994 948
f 950 996 948
f 949 999 951
f 997 999 949
f 998 996 950
f 952 998 950
f 951 1001 953
f 999 1001 951
f 1000 998 952
f 1002 952 954
f 955 1002 954
f 1000 952 1002
f 1003 1002 955
f 1003 1000 1002
f 1004 1000 1003
f 953 1005 957
f 1001 1005 953
f 957 1005 956
f 956 1005 1004
f 958 1003 955
f 956 1007 959
f 1004 1007 956
f 1006 1003 958
f 960 1006 958
f 959 1009 961
f 1007 1009 959
f 1008 1006 960
f 962 1008 960
f 961 1011 963
f 1009 1011 961
f 1010 1008 962
f 964 1010 962
f 963 1013 965
f 1011 1013 963
f 1012 1010 964
f 966 1012 964
f 965 1015 967
f 1013 1015 965
f 1014 1012 966
f 968 1014 966
f 967 1017 969
f 1015 1017 967
f 1016 1014 968
f 970 1016 968
f 969 1019 971
f 1017 1019 969
f 1018 1016 970
f 972 1018 970
f 971 1021 973
f 1019 1021 971
f 1020 1018 972
f 974 1020 972
f 973 1023 975
f 1021 1023 973
f 1022 1020 974
f 976 1022 974
f 975 1025 977
f 1023 1025 975
f 1024 1022 976
f 978 1024 976
f 1026 1024 978
f 1027 982 977
f 1025 1027 977
f 977 982 979
f 1027 1029 982
f 1028 1027 1025
f 1028 1029 1027
f 980 1026 978
f 981 1032 980
f 1031 1026 980
f 980 1032 1031
f 1031 1030 1026
f 1032 1030 1031
f 982 1033 983
f 1029 1033 982
f 984 1032 981
f 983 1035 985
f 1033 1035 983
f 985 1035 984
f 1034 1032 984
f 984 1035 1034
f 1036 987 986
f 988 1036 986
f 987 1039 989
f 1037 987 1036
f 1037 1039 987
f 1038 1036 988
f 990 1038 988
f 989 1041 991
f 1039 1041 989
f 1040 1038 990
f 992 1040 990
f 991 1043 993
f 1041 1043 991
f 1042 1040 992
f 994 1042 992
f 993 1045 995
f 1043 1045 993
f 1044 1042 994
f 996 1044 994
f 995 1047 997
f 1045 1047 995
f 1046 1044 996
f 998 1046 996
f 997 1049 999
f 1047 1049 997
f 1048 1046 998
f 1000 1048 998
f 999 1051 1001
f 1049 1051 999
f 1050 1048 1000
f 1004 1050 1000
f 1001 1053 1005
f 1051 1053 1001
f 1052 1050 1004
f 1054 1004 1003
f 1006 1054 1003
f 1052 1004 1054
f 1055 1054 1006
f 1055 1052 1054
f 1056 1052 1055
f 1005 1057 1004
f 1004 1057 1007
f 1005 1058 1057
f 1053 1058 1005
f 1008 1055 1006
f 1059 1055 1008
f 1059 1056 1055
f 1060 1056 1059
f 1057 1061 1007
f 1007 1061 1009
f 1057 1062 1061
f 1058 1062 1057
f 1060 1058 1056
f 1062 1058 1060
f 1010 1059 1008
f 1063 1059 1010
f 1063 1060 1059
f 1064 1060 1063
f 1061 1065 1009
f 1009 1065 1011
f 1061 1066 1065
f 1062 1066 1061
f 1064 1062 1060
f 1066 1062 1064
f 1012 1063 1010
f 1067 1063 1012
f 1067 1064 1063
f 1068 1064 1067
f 1065 1069 1011
f 1011 1069 1013
f 1065 1070 1069
f 1066 1070 1065
f 1068 1066 1064
f 1070 1066 1068
f 1014 1067 1012
f 1071 1067 1014
f 1071 1068 1067
f 1072 1068 1071
f 1069 1073 1013
f 1013 1073 1015
f 1069 1074 1073
f 1070 1074 1069
f 1072 1070 1068
f 1074 1070 1072
f 1016 1071 1014
f 1075 1071 1016
f 1075 1072 1071
f 1076 1072 1075
f 1073 1077 1015
f 1015 1077 1017
f 1073 1078 1077
f 1074 1078 1073
f 1076 1074 1072
f 1078 1074 1076
f 1018 1075 1016
f 1079 1075 1018
f 1079 1076 1075
f 1080 1076 1079
f 1077 1081 1017
f 1017 1081 1019
f 1077 1082 1081
f 1078 1082 1077
f 1080 1078 1076
f 1082 1078 1080
f 1020 1079 1018
f 1083 1079 1020
f 1083 1080 1079
f 1084 1080 1083
f 1081 1085 1019
f 1019 1085 1021
f 1081 1086 1085
f 1082 1086 1081
f 1084 1082 1080
f 1086 1082 1084
f 1022 1083 1020
f 1087 1083 1022
f 1087 1084 1083
f 1088 1084 1087
f 1085 1089 1021
f 1021 1089 1023
f 1085 1090 1089
f 1086 1090 1085
f 1088 1086 1084
f 1090 1086 1088
f 1024 1087 1022
f 1091 1087 1024
f 1091 1088 1087
f 1092 1088 1091
f 1089 1028 1023
f 1023 1028 1025
f 1089 1093 1028
f 1090 1093 1089
f 1092 1090 1088
f 1093 1090 1092
f 1026 1091 1024
f 1030 1095 1026
f 1094 1091 1026
f 1026 1095 1094
f 1094 1092 1091
f 1095 1092 1094
f 1028 1096 1029
f 1093 1096 1028
f 1095 1093 1092
f 1096 1093 1095
f 1032 1095 1030
f 1029 1098 1033
f 1096 1098 1029
f 1097 1095 1032
f 1097 1096 1095
f 1098 1096 1097
f 1034 1097 1032
f 1033 1100 1035
f 1098 1100 1033
f 1035 1100 1034
f 1099 1097 1034
f 1034 1100 1099
f 1099 1098 1097
f 1100 1098 1099
f 1101 1037 1036
f 1038 1101 1036
f 1037 1104 1039
f 1102 1037 1101
f 1102 1104 1037
f 1103 1101 1038
f 1040 1103 1038
f 1039 1106 1041
f 1104 1106 1039
f 1105 1103 1040
f 1042 1105 1040
f 1041 1108 1043
f 1106 1108 1041
f 1107 1105 1042
f 1044 1107 1042
f 1043 1110 1045
f 1108 1110 1043
f 1109 1107 1044
f 1046 1109 1044
f 1045 1112 1047
f 1110 1112 1045
f 1111 1109 1046
f 1048 1111 1046
f 1047 1114 1049
f 1112 1114 1047
f 1113 1111 1048
f 1050 1113 1048
f 1049 1116 1051
f 1114 1116 1049
f 1115 1113 1050
f 1052 1115 1050
f 1051 1118 1053
f 1116 1118 1051
f 1117 1115 1052
f 1056 1117 1052
f 1053 1120 1058
f 1118 1120 1053
f 1058 1120 1056
f 1119 1117 1056
f 1056 1120 1119
f 1119 1118 1117
f 1120 1118 1119
f 1122 1102 1121
f 1123 1122 1121
f 1121 1102 1101
f 1101 1123 1121
f 1122 1126 1102
f 1124 1122 1123
f 1124 1126 1122
f 1125 1123 1101
f 1125 1124 1123
f 1126 1124 1125
f 1103 1125 1101
f 1102 1128 1104
f 1126 1128 1102
f 1127 1125 1103
f 1127 1126 1125
f 1128 1126 1127
f 1105 1127 1103
f 1104 1130 1106
f 1128 1130 1104
f 1129 1127 1105
f 1129 1128 1127
f 1130 1128 1129
f 1107 1129 1105
f 1106 1132 1108
f 1130 1132 1106
f 1131 1129 1107
f 1131 1130 1129
f 1132 1130 1131
f 1109 1131 1107
f 1108 1134 1110
f 1132 1134 1108
f 1133 1131 1109
f 1133 1132 1131
f 1134 1132 1133
f 1111 1133 1109
f 1110 1136 1112
f 1134 1136 1110
f 1135 1133 1111
f 1135 1134 1133
f 1136 1134 1135
f 1113 1135 1111
f 1112 1138 1114
f 1136 1138 1112
f 1137 1135 1113
f 1137 1136 1135
f 1138 1136 1137
f 1115 1137 1113
f 1114 1140 1116
f 1138 1140 1114
f 1139 1137 1115
f 1139 1138 1137
f 1140 1138 1139
f 1117 1139 1115
f 1116 1142 1118
f 1140 1142 1116
f 1118 1142 1117
f 1141 1139 1117
f 1117 1142 1141
f 1141 1140 1139
f 1142 1140 1141

