# https://github.com/mikedh/trimesh

o 1.obj
v 0.01333207 -0.13387145 -0.06499993
v 0.07733256 -0.13387145 -0.06499993
v 0.01333207 -0.06976122 -0.06499993
v 0.07733256 -0.06976122 -0.06499993
v 0.07916410 -0.13533333 -0.06519429
v 0.01177133 -0.13533333 -0.06519429
v 0.07916410 -0.06898545 -0.06519429
v 0.01177133 -0.06898545 -0.06519429
v 0.01441843 -0.11024417 -0.06499993
v 0.01441843 -0.09374286 -0.06499993
v 0.01333207 -0.10199352 -0.06499993
v 0.01760296 -0.11793248 -0.06499993
v 0.01333207 -0.10199352 -0.06519429
v 0.01441843 -0.11024417 -0.06519429
v 0.01760296 -0.11793248 -0.06519429
v 0.01760296 -0.08605434 -0.06499993
v 0.01441843 -0.09374286 -0.06519429
v 0.02266909 -0.12453464 -0.06519429
v 0.02266909 -0.12453464 -0.06499993
v 0.01760296 -0.08605434 -0.06519429
v 0.02266909 -0.07945219 -0.06519429
v 0.02266909 -0.07945219 -0.06499993
v 0.02927125 -0.12960077 -0.06499993
v 0.02927125 -0.07438627 -0.06519429
v 0.02927125 -0.12960077 -0.06519429
v 0.02927125 -0.07438627 -0.06499993
v 0.03695977 -0.13278530 -0.06499993
v 0.03695977 -0.07120153 -0.06519429
v 0.03695977 -0.13278530 -0.06519429
v 0.03695977 -0.07120153 -0.06499993
v 0.04521021 -0.13387145 -0.06499993
v 0.03820970 -0.10208462 -0.06519429
v 0.04521021 -0.13387145 -0.06519429
v 0.04521021 -0.07011538 -0.06519429
v 0.03833474 -0.10013495 -0.06519429
v 0.03859360 -0.10400016 -0.06519429
v 0.04194233 -0.10223375 -0.06499993
v 0.05346087 -0.13278530 -0.06499993
v 0.04521021 -0.07011538 -0.06499993
v 0.04223764 -0.10317811 -0.06499993
v 0.04190170 -0.10124498 -0.06499993
v 0.03946005 -0.10575128 -0.06519429
v 0.05346087 -0.13278530 -0.06519429
v 0.04533713 -0.10536005 -0.06499993
v 0.05346087 -0.07120153 -0.06519429
v 0.03896033 -0.09828414 -0.06519429
v 0.04276710 -0.10401398 -0.06499993
v 0.04194233 -0.10223375 -0.06519429
v 0.04190170 -0.10124498 -0.06519429
v 0.04075041 -0.10721819 -0.06519429
v 0.04617656 -0.10905184 -0.06519429
v 0.06114939 -0.12960077 -0.06499993
v 0.04437141 -0.10514349 -0.06499993
v 0.04632569 -0.10531921 -0.06499993
v 0.04211826 -0.10027947 -0.06499993
v 0.05346087 -0.07120153 -0.06499993
v 0.04712679 -0.09424280 -0.06519429
v 0.04004334 -0.09665826 -0.06519429
v 0.04349490 -0.10468440 -0.06499993
v 0.04223764 -0.10317811 -0.06519429
v 0.04211826 -0.10027947 -0.06519429
v 0.04237629 -0.10830141 -0.06519429
v 0.04422710 -0.10892680 -0.06519429
v 0.04809231 -0.10866814 -0.06519429
v 0.06114939 -0.12960077 -0.06519429
v 0.04533713 -0.10536005 -0.06519429
v 0.04727026 -0.10502411 -0.06499993
v 0.04632569 -0.10531921 -0.06519429
v 0.04257735 -0.09940296 -0.06499993
v 0.04601655 -0.09780955 -0.06499993
v 0.06114939 -0.07438627 -0.06519429
v 0.04517691 -0.09411755 -0.06519429
v 0.04897740 -0.09486818 -0.06519429
v 0.04151046 -0.09536790 -0.06519429
v 0.04349490 -0.10468440 -0.06519429
v 0.04276710 -0.10401398 -0.06519429
v 0.04326138 -0.09450145 -0.06519429
v 0.04437141 -0.10514349 -0.06519429
v 0.04984322 -0.10780148 -0.06519429
v 0.06775154 -0.12453464 -0.06499993
v 0.04945220 -0.10192440 -0.06499993
v 0.06114939 -0.07438627 -0.06499993
v 0.04810613 -0.10449443 -0.06499993
v 0.04727026 -0.10502411 -0.06519429
v 0.04257735 -0.09940296 -0.06519429
v 0.04324755 -0.09867516 -0.06499993
v 0.04502800 -0.09785018 -0.06499993
v 0.04698207 -0.09802611 -0.06499993
v 0.04601655 -0.09780955 -0.06519429
v 0.05060348 -0.09595119 -0.06519429
v 0.04785878 -0.09848520 -0.06519429
v 0.04810613 -0.10449443 -0.06519429
v 0.05131034 -0.10651134 -0.06519429
v 0.06775154 -0.07945219 -0.06519429
v 0.06775154 -0.12453464 -0.06519429
v 0.04941136 -0.10093585 -0.06499993
v 0.04923543 -0.10289013 -0.06499993
v 0.04877634 -0.10376663 -0.06499993
v 0.04324755 -0.09867516 -0.06519429
v 0.04408343 -0.09814549 -0.06499993
v 0.04502800 -0.09785018 -0.06519429
v 0.04785878 -0.09848520 -0.06499993
v 0.05314398 -0.10108476 -0.06519429
v 0.04408343 -0.09814549 -0.06519429
v 0.04698207 -0.09802611 -0.06519429
v 0.05189342 -0.09741832 -0.06519429
v 0.04911626 -0.09999128 -0.06519429
v 0.04858658 -0.09915562 -0.06519429
v 0.04877634 -0.10376663 -0.06519429
v 0.05239335 -0.10488546 -0.06519429
v 0.07281746 -0.11793248 -0.06519429
v 0.06775154 -0.07945219 -0.06499993
v 0.04911626 -0.09999128 -0.06499993
v 0.04945220 -0.10192440 -0.06519429
v 0.04923543 -0.10289013 -0.06519429
v 0.04858658 -0.09915562 -0.06499993
v 0.05301895 -0.10303464 -0.06519429
v 0.05276029 -0.09916923 -0.06519429
v 0.04941136 -0.10093585 -0.06519429
v 0.07281746 -0.08605434 -0.06519429
v 0.07281746 -0.11793248 -0.06499993
v 0.07281746 -0.08605434 -0.06499993
v 0.07600220 -0.11024417 -0.06519429
v 0.07600220 -0.09374286 -0.06519429
v 0.07600220 -0.09374286 -0.06499993
v 0.07600220 -0.11024417 -0.06499993
v 0.07708835 -0.10199352 -0.06519429
v 0.07708835 -0.10199352 -0.06499993
f 1 2 3
f 1 3 2
f 4 3 2
f 4 2 3
f 5 6 7
f 5 7 6
f 8 7 6
f 8 6 7
f 9 10 11
f 10 9 12
f 10 13 11
f 11 14 9
f 9 15 12
f 10 12 16
f 13 10 17
f 14 11 13
f 15 9 14
f 18 12 15
f 16 12 19
f 16 17 10
f 12 18 19
f 16 19 22
f 17 16 20
f 18 23 19
f 22 19 23
f 22 20 16
f 20 22 21
f 23 18 25
f 22 24 21
f 22 23 26
f 25 27 23
f 24 22 26
f 26 23 27
f 27 25 29
f 26 28 24
f 26 27 30
f 29 31 27
f 28 26 30
f 30 27 31
f 31 29 33
f 30 34 28
f 30 31 37
f 33 38 31
f 34 30 39
f 37 31 40
f 30 37 41
f 38 33 43
f 44 31 38
f 41 39 30
f 39 45 34
f 40 31 47
f 43 52 38
f 53 31 44
f 44 38 54
f 39 41 55
f 45 39 56
f 47 31 59
f 52 43 65
f 56 38 52
f 59 31 53
f 54 38 67
f 39 55 69
f 39 70 56
f 56 71 45
f 65 80 52
f 56 81 38
f 56 52 82
f 67 38 83
f 39 69 86
f 39 87 70
f 56 70 88
f 71 56 82
f 80 65 95
f 82 52 80
f 56 96 81
f 97 38 81
f 83 38 98
f 39 86 100
f 39 100 87
f 56 88 102
f 82 94 71
f 111 80 95
f 82 80 112
f 56 113 96
f 98 38 97
f 56 102 116
f 94 82 112
f 80 111 121
f 112 80 121
f 56 116 113
f 122 94 112
f 94 122 120
f 123 121 111
f 112 121 122
f 125 120 122
f 121 123 126
f 120 125 124
f 122 121 126
f 122 126 125
f 127 126 123
f 128 124 125
f 125 126 128
f 126 127 128
f 124 128 127
f 11 10 9
f 12 9 10
f 11 13 10
f 9 14 11
f 12 15 9
f 16 12 10
f 17 10 13
f 13 11 14
f 14 9 15
f 15 12 18
f 19 12 16
f 10 17 16
f 17 14 13
f 13 14 17
f 14 20 15
f 15 20 14
f 19 18 12
f 15 21 18
f 18 21 15
f 22 19 16
f 20 16 17
f 14 17 20
f 20 17 14
f 15 20 21
f 21 20 15
f 19 23 18
f 18 21 24
f 24 21 18
f 23 19 22
f 16 20 22
f 21 22 20
f 25 18 23
f 21 24 22
f 18 24 25
f 25 24 18
f 26 23 22
f 23 27 25
f 26 22 24
f 25 24 28
f 28 24 25
f 27 23 26
f 29 25 27
f 24 28 26
f 25 28 29
f 29 28 25
f 30 27 26
f 27 31 29
f 30 26 28
f 29 28 32
f 32 28 29
f 31 27 30
f 33 29 31
f 28 34 30
f 32 28 35
f 35 28 32
f 36 29 32
f 32 29 36
f 37 31 30
f 29 36 33
f 33 36 29
f 31 38 33
f 39 30 34
f 35 28 34
f 34 28 35
f 40 31 37
f 41 37 30
f 33 36 42
f 42 36 33
f 43 33 38
f 38 31 44
f 30 39 41
f 34 45 39
f 35 34 46
f 46 34 35
f 47 31 40
f 40 48 37
f 37 48 40
f 37 49 41
f 41 49 37
f 33 42 50
f 50 42 33
f 33 51 43
f 43 51 33
f 38 52 43
f 44 31 53
f 54 38 44
f 55 41 39
f 56 39 45
f 57 34 45
f 45 34 57
f 46 34 58
f 58 34 46
f 59 31 47
f 47 60 40
f 40 60 47
f 48 40 60
f 60 40 48
f 49 37 48
f 48 37 49
f 61 41 49
f 49 41 61
f 33 50 62
f 62 50 33
f 33 63 51
f 51 63 33
f 43 51 64
f 64 51 43
f 65 43 52
f 52 38 56
f 53 31 59
f 66 53 44
f 44 53 66
f 67 38 54
f 68 44 54
f 54 44 68
f 41 61 55
f 55 61 41
f 69 55 39
f 56 70 39
f 45 71 56
f 72 34 57
f 57 34 72
f 57 45 73
f 73 45 57
f 58 34 74
f 74 34 58
f 75 47 59
f 59 47 75
f 60 47 76
f 76 47 60
f 33 62 63
f 63 62 33
f 43 64 79
f 79 64 43
f 43 71 65
f 65 71 43
f 52 80 65
f 38 81 56
f 82 52 56
f 78 59 53
f 53 59 78
f 53 66 78
f 78 66 53
f 44 68 66
f 66 68 44
f 83 38 67
f 84 54 67
f 67 54 84
f 54 84 68
f 68 84 54
f 85 55 61
f 61 55 85
f 55 85 69
f 69 85 55
f 86 69 39
f 70 87 39
f 88 70 56
f 82 56 71
f 43 45 71
f 71 45 43
f 77 34 72
f 72 34 77
f 73 45 90
f 90 45 73
f 74 34 77
f 77 34 74
f 47 75 76
f 76 75 47
f 59 78 75
f 75 78 59
f 43 79 93
f 93 79 43
f 65 71 94
f 94 71 65
f 95 65 80
f 80 52 82
f 81 96 56
f 81 38 97
f 98 38 83
f 92 67 83
f 83 67 92
f 67 92 84
f 84 92 67
f 99 69 85
f 85 69 99
f 69 99 86
f 86 99 69
f 100 86 39
f 87 100 39
f 101 70 87
f 87 70 101
f 89 88 70
f 70 88 89
f 102 88 56
f 71 94 82
f 43 103 45
f 45 103 43
f 90 45 106
f 106 45 90
f 43 93 110
f 110 93 43
f 65 94 95
f 95 94 65
f 95 80 111
f 112 80 82
f 96 113 56
f 96 114 81
f 81 114 96
f 97 38 98
f 81 115 97
f 97 115 81
f 98 92 83
f 83 92 98
f 99 100 86
f 86 100 99
f 104 87 100
f 100 87 104
f 70 101 89
f 89 101 70
f 87 104 101
f 101 104 87
f 88 89 105
f 105 89 88
f 105 102 88
f 88 102 105
f 116 102 56
f 112 82 94
f 43 117 103
f 103 117 43
f 118 45 103
f 103 45 118
f 106 45 118
f 118 45 106
f 102 105 91
f 91 105 102
f 116 91 108
f 108 91 116
f 92 98 109
f 109 98 92
f 43 110 117
f 117 110 43
f 95 94 120
f 120 94 95
f 121 111 80
f 95 120 111
f 111 120 95
f 121 80 112
f 113 116 56
f 113 119 96
f 96 119 113
f 114 96 119
f 119 96 114
f 115 81 114
f 114 81 115
f 97 109 98
f 98 109 97
f 109 97 115
f 115 97 109
f 100 99 104
f 104 99 100
f 91 116 102
f 102 116 91
f 112 94 122
f 107 116 108
f 108 116 107
f 119 113 107
f 107 113 119
f 120 122 94
f 111 121 123
f 111 120 124
f 124 120 111
f 122 121 112
f 116 107 113
f 113 107 116
f 122 120 125
f 126 123 121
f 111 124 123
f 123 124 111
f 124 125 120
f 126 121 122
f 125 126 122
f 123 126 127
f 123 124 127
f 127 124 123
f 125 124 128
f 128 126 125
f 128 127 126
f 127 128 124
f 35 36 32
f 32 36 35
f 36 35 46
f 46 35 36
f 36 46 42
f 42 46 36
f 42 46 58
f 58 46 42
f 42 58 50
f 50 58 42
f 62 48 60
f 60 48 62
f 48 74 49
f 49 74 48
f 49 77 61
f 61 77 49
f 50 58 74
f 74 58 50
f 50 48 62
f 62 48 50
f 63 78 51
f 51 78 63
f 51 68 64
f 64 68 51
f 89 72 57
f 57 72 89
f 91 57 73
f 73 57 91
f 62 60 76
f 76 60 62
f 50 74 48
f 48 74 50
f 77 49 74
f 74 49 77
f 61 77 85
f 85 77 61
f 62 76 63
f 63 76 62
f 63 75 78
f 78 75 63
f 51 78 66
f 66 78 51
f 51 66 68
f 68 66 51
f 64 68 84
f 84 68 64
f 64 92 79
f 79 92 64
f 104 77 72
f 72 77 104
f 101 72 89
f 89 72 101
f 89 57 105
f 105 57 89
f 107 73 90
f 90 73 107
f 105 57 91
f 91 57 105
f 91 73 108
f 108 73 91
f 63 76 75
f 75 76 63
f 85 77 99
f 99 77 85
f 64 84 92
f 92 84 64
f 79 92 109
f 109 92 79
f 79 90 93
f 93 90 79
f 99 77 104
f 104 77 99
f 104 72 101
f 101 72 104
f 93 90 106
f 106 90 93
f 108 73 107
f 107 73 108
f 107 90 119
f 119 90 107
f 79 109 115
f 115 109 79
f 114 90 79
f 79 90 114
f 93 106 110
f 110 106 93
f 117 118 103
f 103 118 117
f 110 106 118
f 118 106 110
f 119 90 114
f 114 90 119
f 79 115 114
f 114 115 79
f 110 118 117
f 117 118 110

