# https://github.com/mikedh/trimesh

o 0.obj
v 0.10476849 0.03197982 -0.07401294
v 0.10538508 0.03467049 -0.07345164
v 0.10453999 0.03605384 -0.07161863
v 0.10665260 0.03619437 -0.07152627
v 0.10861337 0.03619248 -0.07186640
v 0.10814214 0.03442377 -0.07034775
v 0.10660946 0.03614222 -0.07259441
v 0.10852855 0.03468326 -0.07404184
v 0.10981325 0.03614494 -0.07313225
v 0.10849776 0.03193668 -0.07407054
v 0.10478021 0.02810121 -0.07400059
v 0.10477959 0.02428774 -0.07400059
v 0.10598805 0.02997151 -0.06978394
v 0.10972654 0.03038201 -0.07014502
v 0.10978561 0.02659849 -0.07031759
v 0.10567326 0.02592975 -0.06990772
v 0.10851787 0.02810038 -0.07402656
v 0.11016825 0.02226016 -0.07029100
v 0.10576625 0.02241787 -0.07015318
v 0.10851745 0.02428816 -0.07402656
v 0.11233134 0.03617950 -0.07186535
v 0.11290918 0.03439466 -0.07061102
v 0.11232569 0.03465143 -0.07408792
v 0.11359929 0.03614410 -0.07315675
v 0.11382737 0.03039457 -0.07027822
v 0.11232527 0.03190589 -0.07409106
v 0.11614398 0.03617929 -0.07186326
v 0.11630483 0.03464619 -0.07061374
v 0.11614083 0.03465311 -0.07408792
v 0.11741150 0.03614431 -0.07315634
v 0.11682046 0.03126207 -0.07030147
v 0.11614021 0.03190715 -0.07409106
v 0.11377459 0.02631302 -0.07027194
v 0.11233029 0.02809723 -0.07402635
v 0.11448920 0.02154492 -0.07023696
v 0.11233050 0.02428816 -0.07402656
v 0.11739203 0.02669902 -0.07027529
v 0.11614251 0.02809682 -0.07402635
v 0.11725673 0.02282523 -0.07031047
v 0.11614251 0.02428816 -0.07402656
v 0.11995556 0.03617950 -0.07186472
v 0.11992142 0.03498193 -0.07062170
v 0.11995263 0.03465311 -0.07408792
v 0.12122309 0.03614452 -0.07315801
v 0.12102643 0.03136365 -0.07025267
v 0.11995221 0.03190715 -0.07409106
v 0.12374265 0.03620568 -0.07187540
v 0.12370767 0.03500727 -0.07063406
v 0.12376464 0.03465311 -0.07408792
v 0.12503551 0.03614452 -0.07315822
v 0.12396130 0.03302220 -0.07024597
v 0.12376422 0.03190715 -0.07409106
v 0.11976937 0.02725131 -0.07021958
v 0.11995452 0.02809682 -0.07402635
v 0.11949919 0.02336370 -0.07022858
v 0.11995452 0.02428816 -0.07402656
v 0.12376652 0.02809682 -0.07402635
v 0.12376652 0.02428816 -0.07402656
v 0.10216474 0.02189888 -0.06865653
v 0.10606094 0.01785083 -0.06997872
v 0.10220348 0.01809190 -0.06903478
v 0.10477959 0.02047594 -0.07400059
v 0.10604984 0.01352779 -0.06983442
v 0.10228223 0.01377598 -0.06865485
v 0.10477959 0.01666394 -0.07400059
v 0.11070630 0.01773501 -0.07027235
v 0.10851745 0.02047615 -0.07402656
v 0.11142719 0.01284837 -0.07027215
v 0.10851745 0.01666415 -0.07402656
v 0.10629781 0.00939681 -0.06995841
v 0.10217353 0.01058224 -0.06900336
v 0.10477959 0.01285193 -0.07400059
v 0.10502149 0.00667557 -0.06993997
v 0.10194985 0.00910716 -0.06889215
v 0.10477959 0.00903993 -0.07400059
v 0.11158867 0.00864178 -0.07023822
v 0.10851745 0.01285214 -0.07402656
v 0.11175999 0.00508445 -0.07024282
v 0.10851745 0.00904035 -0.07402656
v 0.10477959 0.00522813 -0.07400059
v 0.10477959 0.00141612 -0.07400059
v 0.11083050 0.00258563 -0.07030168
v 0.10622262 0.00350193 -0.06992343
v 0.10851745 0.00522834 -0.07402656
v 0.10901445 -0.00041165 -0.07009894
v 0.10570112 0.00182663 -0.06989453
v 0.10851745 0.00141633 -0.07402656
v 0.10477959 -0.00239588 -0.07400059
v 0.10477959 -0.00620768 -0.07400059
v 0.10851745 -0.00239546 -0.07402656
v 0.10851745 -0.00620747 -0.07402656
v 0.11447747 0.01773480 -0.07027256
v 0.11233050 0.02047615 -0.07402656
v 0.11559901 0.01295477 -0.07023717
v 0.11233050 0.01666415 -0.07402656
v 0.11726720 0.01894306 -0.07030189
v 0.11614251 0.02047615 -0.07402656
v 0.11796442 0.01452116 -0.07026586
v 0.11614251 0.01666415 -0.07402656
v 0.11597224 0.00856324 -0.07023654
v 0.11233050 0.01285214 -0.07402656
v 0.11659239 0.00425256 -0.07023675
v 0.11233050 0.00904035 -0.07402656
v 0.11818706 0.01055208 -0.07027529
v 0.11614251 0.01285214 -0.07402656
v 0.11881852 0.00629334 -0.07027529
v 0.11614251 0.00904035 -0.07402656
v 0.11926965 0.01961641 -0.07023717
v 0.11995452 0.02047615 -0.07402656
v 0.11945542 0.01591038 -0.07024597
v 0.11995452 0.01666415 -0.07402656
v 0.12376652 0.02047615 -0.07402656
v 0.12376652 0.01666415 -0.07402656
v 0.11962779 0.01181165 -0.07023759
v 0.11995452 0.01285214 -0.07402656
v 0.11972413 0.00829537 -0.07024492
v 0.11995452 0.00904035 -0.07402656
v 0.12376652 0.01285214 -0.07402656
v 0.12376652 0.00904035 -0.07402656
v 0.11642127 0.00068686 -0.07023717
v 0.11233050 0.00522834 -0.07402656
v 0.11542309 -0.00187480 -0.07024722
v 0.11233050 0.00141633 -0.07402656
v 0.11969586 0.00181155 -0.07025916
v 0.11614251 0.00522834 -0.07402656
v 0.12019977 -0.00262291 -0.07024010
v 0.11614251 0.00141633 -0.07402656
v 0.11300511 -0.00449865 -0.07006564
v 0.10942328 -0.00282146 -0.06982772
v 0.11233050 -0.00239546 -0.07402656
v 0.11233050 -0.00620747 -0.07402656
v 0.11881202 -0.00532761 -0.07024764
v 0.11614251 -0.00239546 -0.07402656
v 0.11683701 -0.00827987 -0.07001621
v 0.11340597 -0.00699894 -0.06978331
v 0.11614251 -0.00620747 -0.07402656
v 0.12070347 0.00453070 -0.07022984
v 0.11995452 0.00522834 -0.07402656
v 0.12245857 0.00030400 -0.07026230
v 0.11995452 0.00141633 -0.07402656
v 0.12376652 0.00522834 -0.07402656
v 0.12376652 0.00141633 -0.07402656
v 0.12270550 -0.00492340 -0.07024618
v 0.11995452 -0.00239546 -0.07402656
v 0.12188220 -0.00790309 -0.07028262
v 0.11995452 -0.00620747 -0.07402656
v 0.12423944 0.00056371 -0.07021120
v 0.12653322 -0.00291969 -0.07025057
v 0.12376652 -0.00239546 -0.07402656
v 0.12551911 -0.00803860 -0.07027822
v 0.12376652 -0.00620747 -0.07402656
v 0.12755549 0.03623228 -0.07198180
v 0.12761686 0.03409076 -0.07056683
v 0.12757664 0.03465311 -0.07408792
v 0.12884773 0.03614264 -0.07314900
v 0.12564017 0.03423883 -0.07027110
v 0.12757601 0.03190715 -0.07409106
v 0.13139305 0.03623207 -0.07208003
v 0.13136582 0.03485626 -0.07070003
v 0.13138844 0.03465311 -0.07408771
v 0.13265932 0.03614054 -0.07314063
v 0.13138802 0.03190715 -0.07409106
v 0.12757832 0.02809682 -0.07402635
v 0.12757832 0.02428816 -0.07402656
v 0.13139032 0.02809682 -0.07402635
v 0.13139032 0.02428816 -0.07402656
v 0.13520212 0.03622830 -0.07206997
v 0.13520296 0.03485731 -0.07079365
v 0.13520045 0.03465311 -0.07408771
v 0.13647132 0.03614054 -0.07314021
v 0.13520003 0.03190715 -0.07409106
v 0.13900973 0.03622893 -0.07207270
v 0.13899968 0.03484349 -0.07078758
v 0.13901245 0.03465311 -0.07408771
v 0.14028249 0.03614138 -0.07314335
v 0.13901203 0.03190715 -0.07409106
v 0.13520233 0.02809682 -0.07402635
v 0.13520233 0.02428816 -0.07402656
v 0.13901434 0.02809682 -0.07402635
v 0.13901434 0.02428816 -0.07402656
v 0.15336408 0.05199510 -0.07107199
v 0.15311191 0.05224853 -0.07008428
v 0.15235835 0.05059312 -0.07047405
v 0.15295881 0.04969567 -0.07116101
v 0.15499875 0.05021613 -0.07144417
v 0.15599736 0.05247305 -0.07116373
v 0.15518243 0.05315498 -0.07043656
v 0.15307882 0.04832342 -0.07106466
v 0.15272193 0.04875675 -0.07044493
v 0.15402590 0.04699013 -0.07053436
v 0.15507519 0.04735058 -0.07121651
v 0.14284373 0.03621322 -0.07197237
v 0.14235280 0.03487008 -0.07072474
v 0.14282446 0.03465311 -0.07408771
v 0.14409450 0.03614348 -0.07315257
v 0.14282383 0.03190715 -0.07409106
v 0.14665908 0.03618767 -0.07186347
v 0.14641509 0.03413621 -0.07062379
v 0.14663625 0.03465311 -0.07408792
v 0.14790734 0.03614452 -0.07315738
v 0.14663584 0.03190715 -0.07409106
v 0.14282613 0.02809682 -0.07402635
v 0.14282613 0.02428816 -0.07402656
v 0.14663814 0.02809682 -0.07402635
v 0.14663814 0.02428816 -0.07402656
v 0.15045119 0.03617929 -0.07186661
v 0.15049245 0.03476872 -0.07063175
v 0.15044763 0.03465227 -0.07408792
v 0.15171998 0.03614620 -0.07315340
v 0.15009598 0.03227995 -0.07026502
v 0.14803447 0.03207826 -0.07025183
v 0.15044784 0.03190715 -0.07409106
v 0.15308762 0.03623898 -0.07214139
v 0.15499121 0.03504580 -0.07072998
v 0.15488817 0.03503617 -0.07406237
v 0.15421105 0.03619353 -0.07294962
v 0.15391972 0.03078958 -0.07031215
v 0.15425000 0.03190694 -0.07409106
v 0.15045015 0.02809682 -0.07402635
v 0.15045015 0.02428816 -0.07402656
v 0.15425252 0.02809682 -0.07402635
v 0.15425252 0.02428816 -0.07402635
v 0.12757832 0.02047615 -0.07402656
v 0.12757832 0.01666415 -0.07402656
v 0.13139032 0.02047615 -0.07402656
v 0.13139032 0.01666415 -0.07402656
v 0.12757832 0.01285214 -0.07402656
v 0.12757832 0.00904035 -0.07402656
v 0.13139032 0.01285214 -0.07402656
v 0.13139032 0.00904035 -0.07402656
v 0.13520233 0.02047615 -0.07402656
v 0.13520233 0.01666415 -0.07402656
v 0.13901434 0.02047615 -0.07402656
v 0.13901434 0.01666415 -0.07402656
v 0.13520233 0.01285214 -0.07402656
v 0.13520233 0.00904035 -0.07402656
v 0.13901434 0.01285214 -0.07402656
v 0.13901434 0.00904035 -0.07402656
v 0.12757832 0.00522834 -0.07402656
v 0.12757832 0.00141633 -0.07402656
v 0.13139032 0.00522834 -0.07402656
v 0.13139032 0.00141633 -0.07402656
v 0.12757832 -0.00239546 -0.07402656
v 0.13019945 -0.00394720 -0.07022858
v 0.12987210 -0.00810352 -0.07024785
v 0.12757832 -0.00620747 -0.07402656
v 0.13139032 -0.00239546 -0.07402656
v 0.13249386 -0.00396940 -0.07020115
v 0.13399345 -0.00682217 -0.07022104
v 0.13139032 -0.00620747 -0.07402656
v 0.13520233 0.00522834 -0.07402656
v 0.13520233 0.00141633 -0.07402656
v 0.13901434 0.00522834 -0.07402656
v 0.13901434 0.00141633 -0.07402656
v 0.13520233 -0.00239546 -0.07402656
v 0.13520233 -0.00620747 -0.07402656
v 0.13901434 -0.00239546 -0.07402656
v 0.13901434 -0.00620747 -0.07402656
v 0.14282613 0.02047615 -0.07402656
v 0.14282613 0.01666415 -0.07402656
v 0.14663814 0.02047615 -0.07402656
v 0.14663814 0.01666415 -0.07402656
v 0.14282613 0.01285214 -0.07402656
v 0.14282613 0.00904035 -0.07402656
v 0.14663814 0.01285214 -0.07402656
v 0.14455631 0.01111840 -0.07011423
v 0.14539972 0.01067439 -0.07022607
v 0.14475528 0.01058370 -0.07034147
v 0.14415565 0.01002639 -0.07015674
v 0.14663814 0.00904035 -0.07402656
v 0.15045015 0.02047615 -0.07402656
v 0.15045015 0.01666415 -0.07402656
v 0.15425252 0.02047615 -0.07399158
v 0.15425315 0.01666541 -0.07395660
v 0.15045015 0.01285214 -0.07402656
v 0.15045015 0.00904035 -0.07402656
v 0.15425356 0.01285466 -0.07395660
v 0.15425356 0.00904265 -0.07399158
v 0.14282613 0.00522834 -0.07402656
v 0.14282613 0.00141633 -0.07402656
v 0.14663814 0.00522834 -0.07402656
v 0.14663814 0.00141633 -0.07402656
v 0.14282613 -0.00239546 -0.07402656
v 0.14282613 -0.00620747 -0.07402656
v 0.14663814 -0.00239546 -0.07402656
v 0.14663814 -0.00620747 -0.07402656
v 0.15045015 0.00522834 -0.07402656
v 0.15045015 0.00141633 -0.07402656
v 0.15425315 0.00522960 -0.07402656
v 0.15179768 0.00387159 -0.07034943
v 0.15557911 0.00445928 -0.07080391
v 0.15387532 0.00032264 -0.07074380
v 0.15146341 0.00163457 -0.07032262
v 0.15425252 0.00141633 -0.07402635
v 0.15045015 -0.00239546 -0.07402656
v 0.15045015 -0.00620747 -0.07402656
v 0.15425252 -0.00239567 -0.07402635
v 0.15425252 -0.00620747 -0.07402635
v 0.15813720 0.05055060 -0.07146197
v 0.15940640 0.05266175 -0.07117420
v 0.15820024 0.05358580 -0.07044828
v 0.15811353 0.04718575 -0.07147747
v 0.16184071 0.05054285 -0.07141966
v 0.16311243 0.05279076 -0.07116436
v 0.16187276 0.05368046 -0.07043027
v 0.16184742 0.04710428 -0.07147789
v 0.15662546 0.04492401 -0.07108666
v 0.15592657 0.04534415 -0.07053688
v 0.15785362 0.04390760 -0.07078758
v 0.15800672 0.04482976 -0.07130259
v 0.16166353 0.04304408 -0.07147160
v 0.16228473 0.03865717 -0.07022418
v 0.16271596 0.03893111 -0.07176796
v 0.16630910 0.05058704 -0.07247838
v 0.16764009 0.05295371 -0.07222349
v 0.16566131 0.05368507 -0.07042462
v 0.16630533 0.04718700 -0.07254121
v 0.16959856 0.05195028 -0.07371679
v 0.17078880 0.05367020 -0.07282668
v 0.16984025 0.05414228 -0.07082925
v 0.16954159 0.04843484 -0.07377292
v 0.16631727 0.04340621 -0.07254226
v 0.16601317 0.03963399 -0.07282018
v 0.16954369 0.04463289 -0.07377523
v 0.16918240 0.04082675 -0.07365773
v 0.15908805 0.03475741 -0.07307319
v 0.15863839 0.03468913 -0.07151014
v 0.15849555 0.03160597 -0.07029665
v 0.15799248 0.03193395 -0.07416520
v 0.16176322 0.03642915 -0.07119766
v 0.16303892 0.03216538 -0.07019863
v 0.16180260 0.03197249 -0.07406237
v 0.16244579 0.03523744 -0.07307591
v 0.15791938 0.02706595 -0.07027989
v 0.15530160 0.02806351 -0.07019109
v 0.15805426 0.02809849 -0.07412332
v 0.15805384 0.02428900 -0.07412353
v 0.16213330 0.02800026 -0.07034629
v 0.16187192 0.02810079 -0.07412332
v 0.16155085 0.02324641 -0.07030670
v 0.15928346 0.02479479 -0.07018439
v 0.16187046 0.02428900 -0.07412332
v 0.16563618 0.03583686 -0.07311905
v 0.16559889 0.03196726 -0.07400645
v 0.16922618 0.03704448 -0.07408080
v 0.16888165 0.03320337 -0.07438805
v 0.16597149 0.03031750 -0.06985390
v 0.16578760 0.02811713 -0.07005014
v 0.16560811 0.02810310 -0.07409441
v 0.16657258 0.02425528 -0.07008847
v 0.16560874 0.02428963 -0.07409483
v 0.16888961 0.02937461 -0.07441004
v 0.16889128 0.02556155 -0.07441067
v 0.17242683 0.05276375 -0.07492107
v 0.17208921 0.04962949 -0.07506475
v 0.17281785 0.05083293 -0.07526099
v 0.17320343 0.05299979 -0.07499249
v 0.17317851 0.05448262 -0.07349709
v 0.17208314 0.04589246 -0.07506935
v 0.17280696 0.04716418 -0.07527670
v 0.17310457 0.05442062 -0.07127159
v 0.17360199 0.05267997 -0.07491458
v 0.17358607 0.05056003 -0.07501113
v 0.17437671 0.05055772 -0.07348851
v 0.17421397 0.05303539 -0.07347887
v 0.17355822 0.04716229 -0.07505323
v 0.17437629 0.04716313 -0.07350924
v 0.17462050 0.05124029 -0.07158345
v 0.17432184 0.05356024 -0.07143558
v 0.17465631 0.04748441 -0.07159622
v 0.17209235 0.04209595 -0.07507627
v 0.17280654 0.04335175 -0.07527649
v 0.17173358 0.03827745 -0.07496128
v 0.17281471 0.03954498 -0.07528194
v 0.17355801 0.04335091 -0.07505302
v 0.17437650 0.04335154 -0.07350987
v 0.17355801 0.03953912 -0.07505302
v 0.17437650 0.03953954 -0.07350987
v 0.17465610 0.04367136 -0.07159727
v 0.17465631 0.03985893 -0.07159685
v 0.17137377 0.03446084 -0.07484881
v 0.17283565 0.03573318 -0.07529366
v 0.17139178 0.03064548 -0.07485971
v 0.17285115 0.03191427 -0.07529681
v 0.17355801 0.03572732 -0.07505323
v 0.17437524 0.03572167 -0.07351008
v 0.17356010 0.03191385 -0.07505176
v 0.17439137 0.03190945 -0.07351133
v 0.17465694 0.03603792 -0.07159538
v 0.17468479 0.03222570 -0.07158847
v 0.17139199 0.02683306 -0.07485991
v 0.17285618 0.02810289 -0.07529052
v 0.17139262 0.02302189 -0.07486033
v 0.17285408 0.02429277 -0.07529304
v 0.17357686 0.02810415 -0.07488463
v 0.17440917 0.02810184 -0.07334357
v 0.17357456 0.02429025 -0.07488819
v 0.17438362 0.02429067 -0.07350317
v 0.17470385 0.02837830 -0.07155412
v 0.17489025 0.02442451 -0.07121085
v 0.15805384 0.02047720 -0.07408855
v 0.15805447 0.01666624 -0.07408855
v 0.16187046 0.02047720 -0.07412332
v 0.16187046 0.01666520 -0.07408834
v 0.15805447 0.01285445 -0.07405378
v 0.15805510 0.00904370 -0.07408855
v 0.16187108 0.01285445 -0.07405357
v 0.16187171 0.00904370 -0.07405357
v 0.16488890 0.01963190 -0.07031068
v 0.16287095 0.02011927 -0.07021308
v 0.16560874 0.02047762 -0.07409483
v 0.16560790 0.01666478 -0.07409420
v 0.16839994 0.02240383 -0.06978771
v 0.16822631 0.02066151 -0.07001328
v 0.16889044 0.02174871 -0.07441004
v 0.16755338 0.01875352 -0.07001789
v 0.16729033 0.01764935 -0.06994102
v 0.16889128 0.01793754 -0.07441067
v 0.16560790 0.01285277 -0.07409420
v 0.16560790 0.00904097 -0.07409420
v 0.16889044 0.01412470 -0.07441004
v 0.16889044 0.01031290 -0.07441004
v 0.15805447 0.00523043 -0.07408855
v 0.15736290 0.00410512 -0.07101796
v 0.15860865 0.00185155 -0.07046085
v 0.15805447 0.00141864 -0.07412353
v 0.16187171 0.00523169 -0.07408834
v 0.16187108 0.00141864 -0.07412332
v 0.15805342 -0.00174076 -0.07066484
v 0.15516588 -0.00214476 -0.07029183
v 0.15805384 -0.00239463 -0.07412353
v 0.15805384 -0.00620642 -0.07412353
v 0.16164971 -0.00095452 -0.07080328
v 0.16002529 -0.00109840 -0.07088706
v 0.16187046 -0.00239463 -0.07412332
v 0.16187046 -0.00620663 -0.07412332
v 0.16560790 0.00522897 -0.07409420
v 0.16560790 0.00141696 -0.07409420
v 0.16889044 0.00650089 -0.07441004
v 0.16889044 0.00268889 -0.07441004
v 0.16560790 -0.00239483 -0.07409420
v 0.16560874 -0.00620600 -0.07409483
v 0.16889044 -0.00112291 -0.07441004
v 0.16889128 -0.00493408 -0.07441067
v 0.17139262 0.01921009 -0.07486033
v 0.17284927 0.02047992 -0.07529932
v 0.17139199 0.01539725 -0.07485971
v 0.17284906 0.01666813 -0.07529953
v 0.17356283 0.02048055 -0.07504862
v 0.17439598 0.02048076 -0.07333813
v 0.17355822 0.01666750 -0.07505260
v 0.17437692 0.01666834 -0.07350987
v 0.17500000 0.02048516 -0.07106152
v 0.17498513 0.01667127 -0.07122363
v 0.17139199 0.01158524 -0.07485971
v 0.17284906 0.01285612 -0.07529953
v 0.17139199 0.00777324 -0.07485971
v 0.17284906 0.00904412 -0.07529953
v 0.17355801 0.01285549 -0.07505302
v 0.17437671 0.01285591 -0.07350819
v 0.17355801 0.00904349 -0.07505302
v 0.17437671 0.00904412 -0.07350840
v 0.17498513 0.01285884 -0.07122174
v 0.17498513 0.00904705 -0.07122174
v 0.17139199 0.00396123 -0.07485971
v 0.17284906 0.00523211 -0.07529953
v 0.17139199 0.00014943 -0.07485971
v 0.17284906 0.00142031 -0.07529953
v 0.17355801 0.00523148 -0.07505302
v 0.17437671 0.00523211 -0.07350840
v 0.17355801 0.00141968 -0.07505302
v 0.17437671 0.00142010 -0.07350840
v 0.17498513 0.00523504 -0.07122174
v 0.17498513 0.00142304 -0.07122174
v 0.17139199 -0.00366257 -0.07485971
v 0.17284906 -0.00239169 -0.07529953
v 0.17139262 -0.00747374 -0.07486033
v 0.17284906 -0.00620370 -0.07529953
v 0.17355801 -0.00239232 -0.07505302
v 0.17437671 -0.00239190 -0.07350840
v 0.17355801 -0.00620433 -0.07505302
v 0.17437671 -0.00620370 -0.07350840
v 0.17498513 -0.00238876 -0.07122174
v 0.17498513 -0.00620077 -0.07122174
v 0.10477959 -0.01001968 -0.07400059
v 0.10477959 -0.01383085 -0.07400059
v 0.10851745 -0.01001947 -0.07402656
v 0.10851745 -0.01383064 -0.07402656
v 0.10477938 -0.01763553 -0.07399472
v 0.10481205 -0.02133339 -0.07132814
v 0.10479404 -0.02015676 -0.07290082
v 0.10851787 -0.01763511 -0.07402090
v 0.10851829 -0.02136543 -0.07134887
v 0.10851787 -0.02017289 -0.07293684
v 0.11233050 -0.01001947 -0.07402656
v 0.11233050 -0.01383064 -0.07402656
v 0.11614251 -0.01001947 -0.07402656
v 0.11614251 -0.01383064 -0.07402656
v 0.11233092 -0.01763511 -0.07402090
v 0.11233176 -0.02136522 -0.07134929
v 0.11233155 -0.02017289 -0.07293705
v 0.11614293 -0.01763511 -0.07402090
v 0.11614377 -0.02136522 -0.07134929
v 0.11614335 -0.02017268 -0.07293705
v 0.12001944 -0.01115757 -0.07007653
v 0.11745004 -0.01024818 -0.06974143
v 0.11995452 -0.01001947 -0.07402656
v 0.11995452 -0.01383064 -0.07402656
v 0.12489540 -0.01108824 -0.07027801
v 0.12376652 -0.01001947 -0.07402656
v 0.12361740 -0.01323646 -0.06997160
v 0.12165893 -0.01334118 -0.06969619
v 0.12376631 -0.01383043 -0.07402656
v 0.11995493 -0.01763511 -0.07402090
v 0.11995577 -0.02136522 -0.07134929
v 0.11995535 -0.02017268 -0.07293705
v 0.12376694 -0.01763448 -0.07402111
v 0.12376778 -0.02136522 -0.07134929
v 0.12376757 -0.02017247 -0.07293726
v 0.12917613 -0.01117788 -0.07029749
v 0.12757832 -0.01001947 -0.07402656
v 0.12773980 -0.01400636 -0.06995924
v 0.12757832 -0.01383001 -0.07402656
v 0.13332973 -0.01158482 -0.07024513
v 0.13139032 -0.01001947 -0.07402656
v 0.13211896 -0.01560648 -0.07007381
v 0.13139053 -0.01383022 -0.07402656
v 0.12757916 -0.01761605 -0.07403933
v 0.12757999 -0.02136481 -0.07134971
v 0.12757916 -0.02015425 -0.07295569
v 0.13139053 -0.01761647 -0.07403933
v 0.13139200 -0.02134575 -0.07136751
v 0.13139137 -0.02017163 -0.07293831
v 0.13763162 -0.00769763 -0.07030440
v 0.13688078 -0.01134816 -0.07030021
v 0.13520233 -0.01001947 -0.07402656
v 0.13618125 -0.01454253 -0.07031843
v 0.13520233 -0.01383064 -0.07402656
v 0.13912450 -0.00758139 -0.07027424
v 0.14031412 -0.00978804 -0.07037498
v 0.13901434 -0.01001947 -0.07402656
v 0.13947322 -0.01509712 -0.06991086
v 0.13901434 -0.01383064 -0.07402656
v 0.13535124 -0.01660320 -0.06996741
v 0.13336618 -0.01666289 -0.06978729
v 0.13520296 -0.01763448 -0.07402111
v 0.13520380 -0.02134554 -0.07136689
v 0.13520296 -0.02015404 -0.07295569
v 0.13725379 -0.01606431 -0.07005202
v 0.13901476 -0.01763511 -0.07402090
v 0.13901476 -0.02136439 -0.07134929
v 0.13901517 -0.02017268 -0.07293726
v 0.14282613 -0.01001947 -0.07402656
v 0.14208660 -0.01241797 -0.07005621
v 0.14084840 -0.01279538 -0.07013643
v 0.14282613 -0.01383064 -0.07402656
v 0.14663814 -0.01001947 -0.07402656
v 0.14663814 -0.01383064 -0.07402656
v 0.14282718 -0.01763553 -0.07402048
v 0.14282697 -0.02136502 -0.07134887
v 0.14282739 -0.02017310 -0.07293642
v 0.14664002 -0.01763574 -0.07402006
v 0.14666243 -0.02136627 -0.07138301
v 0.14666097 -0.02017310 -0.07297014
v 0.15045015 -0.01001947 -0.07402656
v 0.15044973 -0.01383022 -0.07402656
v 0.15425252 -0.01001947 -0.07402635
v 0.15425398 -0.01383127 -0.07402656
v 0.15045056 -0.01763511 -0.07402048
v 0.15036972 -0.02113254 -0.07148480
v 0.15059906 -0.02017331 -0.07300303
v 0.15416455 -0.01763616 -0.07402069
v 0.15394045 -0.02083367 -0.07158428
v 0.15429294 -0.02015802 -0.07295653
v 0.15805384 -0.01001843 -0.07412353
v 0.15805573 -0.01383064 -0.07412353
v 0.16187046 -0.01001843 -0.07412332
v 0.16187046 -0.01382939 -0.07412332
v 0.15796797 -0.01760327 -0.07403556
v 0.15781948 -0.02078822 -0.07158051
v 0.15806829 -0.02011257 -0.07287862
v 0.16187464 -0.01757312 -0.07400184
v 0.16151001 -0.02077817 -0.07146804
v 0.16178312 -0.02011257 -0.07292847
v 0.16560874 -0.01001801 -0.07409483
v 0.16560790 -0.01382981 -0.07409420
v 0.16889044 -0.00874692 -0.07441004
v 0.16889128 -0.01255767 -0.07441067
v 0.16559219 -0.01754421 -0.07401943
v 0.16553669 -0.02092373 -0.07131096
v 0.16559324 -0.02003549 -0.07287820
v 0.16887620 -0.01630768 -0.07437150
v 0.16893422 -0.02136899 -0.07118991
v 0.16958243 -0.02008178 -0.07351992
v 0.17139262 -0.01128554 -0.07486033
v 0.17284906 -0.01001570 -0.07529953
v 0.17139136 -0.01509859 -0.07485971
v 0.17284906 -0.01382750 -0.07529953
v 0.17355801 -0.01001633 -0.07505302
v 0.17437671 -0.01001570 -0.07350840
v 0.17355801 -0.01382834 -0.07505281
v 0.17437671 -0.01382771 -0.07350840
v 0.17498513 -0.01001277 -0.07122174
v 0.17498513 -0.01382478 -0.07122174
v 0.17137356 -0.01882954 -0.07481740
v 0.17286016 -0.01761752 -0.07528948
v 0.17180605 -0.02099200 -0.07483038
v 0.17285806 -0.02030148 -0.07521868
v 0.17356387 -0.01761919 -0.07504129
v 0.17437587 -0.01762108 -0.07350505
v 0.17353267 -0.02028892 -0.07503061
v 0.17429754 -0.02032976 -0.07350003
v 0.17498429 -0.01761898 -0.07122070
v 0.17477946 -0.02033604 -0.07139516
v 0.17244526 -0.02182264 -0.07480148
v 0.17181862 -0.02174117 -0.07330127
v 0.17316657 -0.02196569 -0.07343845
v 0.17286916 -0.02174494 -0.07495332
v 0.17138550 -0.02167394 -0.07119996
v 0.17329558 -0.02194411 -0.07137547
v 0.17344282 -0.02166870 -0.07504967
v 0.17383845 -0.02174871 -0.07418280
v 0.17402485 -0.02179081 -0.07238371
v 0.10348735 0.03511241 -0.06933637
v 0.10295327 0.03314158 -0.06860543
v 0.10626996 0.03361848 -0.06984028
v 0.10565672 0.03556877 -0.06993160
v 0.10263388 0.02949336 -0.06875518
v 0.10251722 0.02601687 -0.06894053
v 0.12277629 0.02933314 -0.07016219
v 0.12441809 0.03041845 -0.07014900
v 0.12513814 0.02706323 -0.07008239
v 0.12210609 0.02749091 -0.07014376
v 0.12435358 0.02397002 -0.07006187
v 0.12172365 0.02392164 -0.07016491
v 0.10052420 0.02017980 -0.06753477
v 0.10042136 0.01581068 -0.06737078
v 0.10052755 0.01183050 -0.06750734
v 0.10096590 0.00804844 -0.06806005
v 0.10132405 0.00379913 -0.06743319
v 0.10163988 0.00011006 -0.06740806
v 0.10177015 -0.00366110 -0.06737162
v 0.10177183 -0.00747416 -0.06737204
v 0.10265755 0.00629418 -0.06878806
v 0.10227720 0.00800928 -0.06917364
v 0.10397136 0.00153613 -0.06889403
v 0.10413996 -0.00261747 -0.06834467
v 0.10451611 -0.00620600 -0.06830677
v 0.10740658 -0.00274942 -0.06955042
v 0.10653176 0.00040474 -0.06979127
v 0.10803344 -0.00669819 -0.06918097
v 0.12419126 0.02030965 -0.07001412
v 0.12145117 0.02041437 -0.07016366
v 0.12410204 0.01667504 -0.07001684
v 0.12137535 0.01650456 -0.07017224
v 0.12407209 0.01286827 -0.07004700
v 0.12138059 0.01269653 -0.07017120
v 0.12401994 0.00904202 -0.07007758
v 0.12144908 0.00914800 -0.07018020
v 0.11159747 -0.00706240 -0.06948235
v 0.10996949 -0.00439833 -0.06982248
v 0.12424153 0.00559318 -0.07009580
v 0.12179612 0.00597353 -0.07019905
v 0.12447778 0.00252343 -0.07017811
v 0.12193246 0.00352162 -0.07022607
v 0.12946181 0.03293277 -0.07017329
v 0.13143242 0.03333594 -0.07031676
v 0.13146656 0.03068842 -0.07009056
v 0.12776346 0.03154063 -0.07018209
v 0.12783719 0.02786329 -0.07009768
v 0.12765372 0.02420166 -0.07001516
v 0.13139598 0.02806603 -0.07008072
v 0.13141001 0.02408836 -0.06978604
v 0.13520422 0.03334202 -0.07041624
v 0.13520212 0.03071355 -0.07009245
v 0.13900030 0.03332945 -0.07041163
v 0.13901036 0.03071439 -0.07009307
v 0.13509489 0.02816342 -0.07003066
v 0.13512924 0.02417381 -0.06980510
v 0.13890710 0.02815734 -0.07003024
v 0.13902230 0.02431204 -0.06999506
v 0.15339109 0.05193541 -0.06954623
v 0.15510242 0.05228539 -0.06969011
v 0.15492817 0.05023539 -0.06919982
v 0.15299839 0.05037865 -0.06972153
v 0.15452542 0.04776631 -0.06966875
v 0.15250181 0.04929250 -0.06996071
v 0.14223866 0.03323269 -0.07047111
v 0.14272120 0.03055563 -0.07010480
v 0.14629508 0.03134857 -0.07019319
v 0.14459820 0.03373241 -0.07042189
v 0.14282550 0.02807420 -0.07004658
v 0.14272267 0.02437885 -0.07002626
v 0.14652944 0.02791000 -0.07006375
v 0.14663981 0.02429235 -0.07004218
v 0.15006017 0.02972960 -0.07019025
v 0.14994749 0.02725571 -0.07009601
v 0.15044281 0.02428418 -0.07004365
v 0.15338062 0.02738807 -0.07018146
v 0.15177548 0.03001591 -0.07022712
v 0.15405083 0.02393882 -0.07006187
v 0.12771843 0.02035971 -0.06973912
v 0.12776221 0.01671986 -0.06957681
v 0.13145274 0.02025373 -0.06943292
v 0.13149253 0.01673180 -0.06928485
v 0.12768136 0.01288691 -0.06973828
v 0.12762000 0.00904872 -0.06996406
v 0.13154070 0.01319939 -0.06927207
v 0.13157002 0.00945525 -0.06956005
v 0.13519374 0.02051909 -0.06954644
v 0.13523207 0.01647796 -0.06893152
v 0.13895025 0.02036536 -0.06956047
v 0.13900889 0.01648885 -0.06925720
v 0.13533930 0.01326599 -0.06889676
v 0.13529281 0.00907700 -0.06949408
v 0.13879233 0.01307938 -0.06924128
v 0.13878395 0.00963222 -0.06933511
v 0.12757874 0.00523944 -0.07004323
v 0.12808076 0.00224529 -0.07009643
v 0.13137713 0.00521598 -0.06999485
v 0.13148520 0.00158640 -0.07006124
v 0.12732469 -0.00027070 -0.07017350
v 0.12523637 0.00044265 -0.07025958
v 0.13179622 -0.00170620 -0.07013077
v 0.13522767 0.00557056 -0.06976886
v 0.13520401 0.00141801 -0.07004281
v 0.13903989 0.00555527 -0.06976844
v 0.13901455 0.00140796 -0.07004281
v 0.13552759 -0.00185658 -0.07007779
v 0.13540549 -0.00460651 -0.07017245
v 0.13359509 -0.00434430 -0.07018669
v 0.13904806 -0.00234331 -0.07006019
v 0.13927530 -0.00554376 -0.07018209
v 0.14273272 0.02058234 -0.06993055
v 0.14281084 0.01670269 -0.06974164
v 0.14664317 0.02048202 -0.07004239
v 0.14662473 0.01669598 -0.06999506
v 0.14195445 0.01373933 -0.06957513
v 0.14282697 0.00935094 -0.06996343
v 0.14612732 0.01283685 -0.07005998
v 0.15044973 0.02047657 -0.07004218
v 0.15045098 0.01666708 -0.07004218
v 0.15425587 0.02047406 -0.07004260
v 0.15426152 0.01666457 -0.07004218
v 0.15054418 0.01306284 -0.07004407
v 0.15002456 0.00945922 -0.07011381
v 0.14622910 0.00947556 -0.07018083
v 0.15426634 0.01286178 -0.07004281
v 0.15460291 0.00958845 -0.07004344
v 0.14260434 0.00544741 -0.06998291
v 0.14281608 0.00139560 -0.07004260
v 0.14567346 0.00531966 -0.07006627
v 0.14649342 0.00122239 -0.07007611
v 0.14282697 -0.00239211 -0.07004218
v 0.14298552 -0.00593373 -0.07007737
v 0.14663332 -0.00239337 -0.07004218
v 0.14662830 -0.00618925 -0.07004260
v 0.14989178 0.00600264 -0.07020450
v 0.14987356 0.00170096 -0.07024115
v 0.15269261 0.00686993 -0.07025183
v 0.15029872 -0.00260972 -0.07004302
v 0.15063424 -0.00645607 -0.06988133
v 0.15360514 -0.00248343 -0.07017497
v 0.15188460 0.00046988 -0.07032702
v 0.15441337 -0.00650403 -0.06975483
v 0.15819270 0.05264751 -0.06967734
v 0.15812715 0.05057364 -0.06911793
v 0.15806159 0.04712648 -0.06914683
v 0.16186920 0.05279956 -0.06967503
v 0.16187255 0.05055835 -0.06915290
v 0.16187318 0.04709736 -0.06908756
v 0.15847021 0.04385503 -0.06971190
v 0.15547564 0.04569873 -0.06996322
v 0.16195591 0.04346045 -0.06911332
v 0.16212220 0.04037478 -0.06953387
v 0.16013860 0.04177509 -0.06927312
v 0.16567471 0.05280522 -0.06968090
v 0.16567429 0.05060129 -0.06913992
v 0.16567366 0.04719936 -0.06907080
v 0.16947289 0.05295099 -0.06942119
v 0.16947038 0.05060233 -0.06888189
v 0.16947143 0.04716962 -0.06881256
v 0.16567325 0.04338380 -0.06907080
v 0.16574048 0.03958792 -0.06908023
v 0.16947143 0.04335385 -0.06881256
v 0.16947101 0.03954163 -0.06881256
v 0.15712226 0.02389169 -0.07016617
v 0.15594395 0.02674090 -0.07028052
v 0.16630533 0.03610515 -0.06914850
v 0.16397721 0.03649135 -0.06972781
v 0.16632733 0.03261442 -0.06953282
v 0.16388861 0.03430125 -0.06986751
v 0.16947855 0.03573612 -0.06881361
v 0.16972150 0.03201082 -0.06885047
v 0.17023295 0.02835610 -0.06889215
v 0.16780492 0.02841223 -0.06967315
v 0.16988277 0.02459834 -0.06934663
v 0.16732447 0.02641481 -0.06985725
v 0.17257323 0.05329363 -0.06951021
v 0.17241280 0.05111965 -0.06901488
v 0.17239855 0.04748755 -0.06896252
v 0.17458573 0.05226340 -0.06941512
v 0.17414905 0.05399148 -0.06983337
v 0.17448855 0.04881163 -0.06950287
v 0.17239667 0.04367136 -0.06896273
v 0.17239688 0.03985893 -0.06896252
v 0.17446740 0.04494265 -0.06952068
v 0.17446740 0.04112981 -0.06952047
v 0.17239876 0.03604420 -0.06896106
v 0.17240819 0.03222487 -0.06895393
v 0.17446907 0.03731550 -0.06951921
v 0.17447682 0.03349218 -0.06951293
v 0.17246139 0.02838710 -0.06891791
v 0.17269344 0.02441780 -0.06874261
v 0.17452248 0.02965421 -0.06948193
v 0.17466992 0.02571863 -0.06932695
v 0.15779937 0.02009058 -0.07005977
v 0.15806389 0.01665766 -0.07004281
v 0.16109637 0.02016702 -0.07016449
v 0.15964034 0.02285518 -0.07022774
v 0.16150687 0.01616694 -0.07007779
v 0.15807353 0.01285277 -0.07004218
v 0.15810285 0.00909564 -0.07004302
v 0.16186689 0.01285277 -0.07004302
v 0.16186857 0.00905145 -0.07004302
v 0.16546255 0.01652718 -0.06993704
v 0.16331077 0.01887436 -0.07025309
v 0.16567262 0.01263830 -0.06977326
v 0.16568833 0.00904830 -0.06975588
v 0.16915811 0.01670981 -0.06954015
v 0.16955332 0.01269569 -0.06915751
v 0.16956819 0.00902631 -0.06920966
v 0.15789530 0.00600641 -0.07024513
v 0.16213288 0.00538982 -0.06993579
v 0.16183464 0.00172463 -0.07023926
v 0.15912889 0.00364016 -0.07099450
v 0.15799248 -0.00426094 -0.06992678
v 0.15780670 -0.00655262 -0.06959817
v 0.16181998 -0.00272051 -0.06992594
v 0.16182438 -0.00678657 -0.06949680
v 0.16581525 0.00517326 -0.06962896
v 0.16573650 0.00161279 -0.06968257
v 0.16948253 0.00524049 -0.06917322
v 0.16961112 0.00136335 -0.06901174
v 0.16608375 -0.00254898 -0.06938517
v 0.16585043 -0.00647513 -0.06916819
v 0.16961594 -0.00245096 -0.06888377
v 0.16946179 -0.00619679 -0.06888314
v 0.17293702 0.02049270 -0.06863454
v 0.17070545 0.02050443 -0.06928317
v 0.17306687 0.01672028 -0.06863244
v 0.17469380 0.02188149 -0.06929553
v 0.17481004 0.01794571 -0.06914578
v 0.17304803 0.01287141 -0.06862742
v 0.17287084 0.00902610 -0.06862532
v 0.17479622 0.01412993 -0.06914536
v 0.17479517 0.01031751 -0.06914536
v 0.17274287 0.00523127 -0.06862574
v 0.17271502 0.00142534 -0.06866051
v 0.17479475 0.00650592 -0.06914536
v 0.17479475 0.00269391 -0.06914536
v 0.17272067 -0.00238248 -0.06862449
v 0.17271795 -0.00619846 -0.06858993
v 0.17479475 -0.00111788 -0.06914536
v 0.17479475 -0.00492989 -0.06914536
v 0.10177183 -0.01128616 -0.06737204
v 0.10177120 -0.01509545 -0.06737120
v 0.10452512 -0.01001173 -0.06830677
v 0.10452554 -0.01382373 -0.06827179
v 0.10852813 -0.01002115 -0.06907562
v 0.10854112 -0.01382289 -0.06910892
v 0.10452365 -0.01756076 -0.06833672
v 0.10332629 -0.02013246 -0.06889068
v 0.10854698 -0.01755699 -0.06913845
v 0.10727464 -0.02010084 -0.06970792
v 0.11188084 -0.01056506 -0.06914243
v 0.11231542 -0.01382960 -0.06910599
v 0.11539879 -0.01066957 -0.06948675
v 0.11422928 -0.00794582 -0.06972781
v 0.11592302 -0.01414480 -0.06907457
v 0.11232673 -0.01755552 -0.06913447
v 0.11105858 -0.02009937 -0.06970268
v 0.11613665 -0.01755908 -0.06913447
v 0.11487058 -0.02009937 -0.06970268
v 0.11954925 -0.01413265 -0.06942999
v 0.11780923 -0.01134313 -0.06972069
v 0.11993085 -0.01763699 -0.06913677
v 0.11868259 -0.02009937 -0.06970268
v 0.12370432 -0.01558260 -0.06953890
v 0.12360693 -0.01793293 -0.06914075
v 0.12249397 -0.02010042 -0.06970268
v 0.12735841 -0.01589865 -0.06952947
v 0.12739904 -0.01836312 -0.06916861
v 0.12630451 -0.02010670 -0.06970289
v 0.13130843 -0.01789691 -0.06952612
v 0.12945992 -0.01545568 -0.06973703
v 0.13013662 -0.02011550 -0.06970687
v 0.13521971 -0.01874283 -0.06965535
v 0.13395512 -0.02014294 -0.06973305
v 0.13903067 -0.01800351 -0.06966331
v 0.13772524 -0.02013163 -0.06973577
v 0.14264895 -0.01029593 -0.06996511
v 0.14011033 -0.00778224 -0.07036179
v 0.14693638 -0.01021530 -0.06973661
v 0.14685658 -0.01426900 -0.06941596
v 0.14299871 -0.01435424 -0.06977054
v 0.14090892 -0.01654812 -0.06939690
v 0.14292268 -0.01873906 -0.06918725
v 0.14153054 -0.02010984 -0.06971043
v 0.14681344 -0.01845234 -0.06914034
v 0.14536768 -0.02011697 -0.06970436
v 0.15067320 -0.01038201 -0.06955712
v 0.15056429 -0.01413370 -0.06939501
v 0.15424540 -0.00999078 -0.06959210
v 0.15448688 -0.01418816 -0.06923333
v 0.15041014 -0.01776287 -0.06923919
v 0.14899224 -0.01986899 -0.06983944
v 0.15395553 -0.01715089 -0.06934957
v 0.15300531 -0.01981391 -0.06988154
v 0.15824883 -0.01026661 -0.06939543
v 0.15825281 -0.01407967 -0.06910599
v 0.16186648 -0.01000586 -0.06926788
v 0.16187464 -0.01381494 -0.06910536
v 0.15778073 -0.01699339 -0.06934475
v 0.15656284 -0.01956928 -0.06992448
v 0.16160363 -0.01702899 -0.06931124
v 0.16035286 -0.01953870 -0.06986793
v 0.16566906 -0.01001340 -0.06910599
v 0.16567346 -0.01382017 -0.06907080
v 0.16946703 -0.01000921 -0.06884838
v 0.16946996 -0.01382101 -0.06881298
v 0.16556936 -0.01722482 -0.06918767
v 0.16428152 -0.01970353 -0.06975295
v 0.16949049 -0.01750379 -0.06881947
v 0.16915727 -0.02034923 -0.06939732
v 0.17271858 -0.01001152 -0.06858972
v 0.17272256 -0.01382331 -0.06858930
v 0.17479475 -0.00874189 -0.06914536
v 0.17479475 -0.01255390 -0.06914536
v 0.17272633 -0.01761835 -0.06858951
v 0.17258139 -0.02020451 -0.06880062
v 0.17479412 -0.01635648 -0.06914578
v 0.17464123 -0.01961494 -0.06931585
v 0.17235352 -0.02165844 -0.06955900
v 0.17094902 -0.02143999 -0.06975274
v 0.17438404 -0.02167938 -0.06956633
v 0.15967323 0.03825190 -0.07175288
v 0.16010844 0.03951796 -0.07212108
v 0.16075749 0.03946372 -0.07068600
v 0.15816443 0.04069606 -0.07068139
v 0.15868048 0.04038881 -0.07199478
v 0.15785215 0.03685389 -0.07262457
v 0.15823103 0.03780119 -0.07109671
v 0.15652368 0.03775742 -0.07160481
v 0.15667322 0.03706019 -0.07299381
v 0.15924890 0.04012241 -0.07015507
v 0.15887840 0.03883917 -0.07274730
v 0.15773780 0.03949220 -0.07183561
v 0.17334333 -0.01251515 -0.07481824
v 0.17334333 -0.00610045 -0.07481824
v 0.17334333 -0.01251515 -0.07089334
v 0.17334333 -0.00610045 -0.07089334
v 0.17334333 -0.01943357 -0.07484421
v 0.17334333 -0.01502193 -0.07484421
v 0.17334333 -0.01943357 -0.07100183
v 0.17334333 -0.01502193 -0.07100183
f 4 6 5
f 4 3 6
f 7 3 4
f 7 2 3
f 7 8 2
f 7 9 8
f 7 5 9
f 7 4 5
f 2 10 1
f 2 8 10
f 13 15 14
f 13 16 15
f 1 17 11
f 1 10 17
f 16 18 15
f 16 19 18
f 11 20 12
f 11 17 20
f 5 22 21
f 5 6 22
f 9 23 8
f 9 24 23
f 9 21 24
f 9 5 21
f 6 25 22
f 6 14 25
f 8 26 10
f 8 23 26
f 21 28 27
f 21 22 28
f 24 29 23
f 24 30 29
f 24 27 30
f 24 21 27
f 22 31 28
f 22 25 31
f 23 32 26
f 23 29 32
f 14 33 25
f 14 15 33
f 10 34 17
f 10 26 34
f 15 35 33
f 15 18 35
f 17 36 20
f 17 34 36
f 25 37 31
f 25 33 37
f 26 38 34
f 26 32 38
f 33 39 37
f 33 35 39
f 34 40 36
f 34 38 40
f 27 42 41
f 27 28 42
f 30 43 29
f 30 44 43
f 30 41 44
f 30 27 41
f 28 45 42
f 28 31 45
f 29 46 32
f 29 43 46
f 41 48 47
f 41 42 48
f 44 49 43
f 44 50 49
f 44 47 50
f 44 41 47
f 42 51 48
f 42 45 51
f 43 52 46
f 43 49 52
f 31 53 45
f 31 37 53
f 32 54 38
f 32 46 54
f 37 55 53
f 37 39 55
f 38 56 40
f 38 54 56
f 46 57 54
f 46 52 57
f 54 58 56
f 54 57 58
f 59 60 19
f 59 61 60
f 61 63 60
f 61 64 63
f 19 66 18
f 19 60 66
f 12 67 62
f 12 20 67
f 60 68 66
f 60 63 68
f 62 69 65
f 62 67 69
f 64 70 63
f 64 71 70
f 71 73 70
f 71 74 73
f 63 76 68
f 63 70 76
f 65 77 72
f 65 69 77
f 70 78 76
f 70 73 78
f 72 79 75
f 72 77 79
f 73 82 78
f 73 83 82
f 75 84 80
f 75 79 84
f 83 85 82
f 83 86 85
f 80 87 81
f 80 84 87
f 81 90 88
f 81 87 90
f 88 91 89
f 88 90 91
f 18 92 35
f 18 66 92
f 20 93 67
f 20 36 93
f 66 94 92
f 66 68 94
f 67 95 69
f 67 93 95
f 35 96 39
f 35 92 96
f 36 97 93
f 36 40 97
f 92 98 96
f 92 94 98
f 93 99 95
f 93 97 99
f 68 100 94
f 68 76 100
f 69 101 77
f 69 95 101
f 76 102 100
f 76 78 102
f 77 103 79
f 77 101 103
f 94 104 98
f 94 100 104
f 95 105 101
f 95 99 105
f 100 106 104
f 100 102 106
f 101 107 103
f 101 105 107
f 39 108 55
f 39 96 108
f 40 109 97
f 40 56 109
f 96 110 108
f 96 98 110
f 97 111 99
f 97 109 111
f 56 112 109
f 56 58 112
f 109 113 111
f 109 112 113
f 98 114 110
f 98 104 114
f 99 115 105
f 99 111 115
f 104 116 114
f 104 106 116
f 105 117 107
f 105 115 117
f 111 118 115
f 111 113 118
f 115 119 117
f 115 118 119
f 78 120 102
f 78 82 120
f 79 121 84
f 79 103 121
f 82 122 120
f 82 85 122
f 84 123 87
f 84 121 123
f 102 124 106
f 102 120 124
f 103 125 121
f 103 107 125
f 120 126 124
f 120 122 126
f 121 127 123
f 121 125 127
f 85 128 122
f 85 129 128
f 87 130 90
f 87 123 130
f 90 131 91
f 90 130 131
f 122 132 126
f 122 128 132
f 123 133 130
f 123 127 133
f 128 134 132
f 128 135 134
f 130 136 131
f 130 133 136
f 106 137 116
f 106 124 137
f 107 138 125
f 107 117 138
f 124 139 137
f 124 126 139
f 125 140 127
f 125 138 140
f 117 141 138
f 117 119 141
f 138 142 140
f 138 141 142
f 126 143 139
f 126 132 143
f 127 144 133
f 127 140 144
f 132 145 143
f 132 134 145
f 133 146 136
f 133 144 146
f 139 148 147
f 139 143 148
f 140 149 144
f 140 142 149
f 143 150 148
f 143 145 150
f 144 151 146
f 144 149 151
f 47 153 152
f 47 48 153
f 50 154 49
f 50 155 154
f 50 152 155
f 50 47 152
f 48 156 153
f 48 51 156
f 49 157 52
f 49 154 157
f 152 159 158
f 152 153 159
f 155 160 154
f 155 161 160
f 155 158 161
f 155 152 158
f 154 162 157
f 154 160 162
f 52 163 57
f 52 157 163
f 57 164 58
f 57 163 164
f 157 165 163
f 157 162 165
f 163 166 164
f 163 165 166
f 158 168 167
f 158 159 168
f 161 169 160
f 161 170 169
f 161 167 170
f 161 158 167
f 160 171 162
f 160 169 171
f 167 173 172
f 167 168 173
f 170 174 169
f 170 175 174
f 170 172 175
f 170 167 172
f 169 176 171
f 169 174 176
f 162 177 165
f 162 171 177
f 165 178 166
f 165 177 178
f 171 179 177
f 171 176 179
f 177 180 178
f 177 179 180
f 181 183 182
f 181 184 183
f 181 185 184
f 181 186 185
f 181 187 186
f 181 182 187
f 188 190 189
f 188 191 190
f 184 189 183
f 184 188 189
f 184 191 188
f 184 185 191
f 172 193 192
f 172 173 193
f 175 194 174
f 175 195 194
f 175 192 195
f 175 172 192
f 174 196 176
f 174 194 196
f 192 198 197
f 192 193 198
f 195 199 194
f 195 200 199
f 195 197 200
f 195 192 197
f 194 201 196
f 194 199 201
f 176 202 179
f 176 196 202
f 179 203 180
f 179 202 203
f 196 204 202
f 196 201 204
f 202 205 203
f 202 204 205
f 197 207 206
f 197 198 207
f 200 208 199
f 200 209 208
f 200 206 209
f 200 197 206
f 198 210 207
f 198 211 210
f 199 212 201
f 199 208 212
f 206 214 213
f 206 207 214
f 209 215 208
f 209 216 215
f 209 213 216
f 209 206 213
f 207 217 214
f 207 210 217
f 208 218 212
f 208 215 218
f 201 219 204
f 201 212 219
f 204 220 205
f 204 219 220
f 212 221 219
f 212 218 221
f 219 222 220
f 219 221 222
f 58 223 112
f 58 164 223
f 112 224 113
f 112 223 224
f 164 225 223
f 164 166 225
f 223 226 224
f 223 225 226
f 113 227 118
f 113 224 227
f 118 228 119
f 118 227 228
f 224 229 227
f 224 226 229
f 227 230 228
f 227 229 230
f 166 231 225
f 166 178 231
f 225 232 226
f 225 231 232
f 178 233 231
f 178 180 233
f 231 234 232
f 231 233 234
f 226 235 229
f 226 232 235
f 229 236 230
f 229 235 236
f 232 237 235
f 232 234 237
f 235 238 236
f 235 237 238
f 119 239 141
f 119 228 239
f 141 240 142
f 141 239 240
f 228 241 239
f 228 230 241
f 239 242 240
f 239 241 242
f 142 243 149
f 142 240 243
f 148 245 244
f 148 150 245
f 149 246 151
f 149 243 246
f 240 247 243
f 240 242 247
f 244 249 248
f 244 245 249
f 243 250 246
f 243 247 250
f 230 251 241
f 230 236 251
f 241 252 242
f 241 251 252
f 236 253 251
f 236 238 253
f 251 254 252
f 251 253 254
f 242 255 247
f 242 252 255
f 247 256 250
f 247 255 256
f 252 257 255
f 252 254 257
f 255 258 256
f 255 257 258
f 180 259 233
f 180 203 259
f 233 260 234
f 233 259 260
f 203 261 259
f 203 205 261
f 259 262 260
f 259 261 262
f 234 263 237
f 234 260 263
f 237 264 238
f 237 263 264
f 260 265 263
f 260 262 265
f 266 268 267
f 266 269 268
f 263 270 264
f 263 265 270
f 205 271 261
f 205 220 271
f 261 272 262
f 261 271 272
f 220 273 271
f 220 222 273
f 271 274 272
f 271 273 274
f 262 275 265
f 262 272 275
f 265 276 270
f 265 275 276
f 272 277 275
f 272 274 277
f 275 278 276
f 275 277 278
f 238 279 253
f 238 264 279
f 253 280 254
f 253 279 280
f 264 281 279
f 264 270 281
f 279 282 280
f 279 281 282
f 254 283 257
f 254 280 283
f 257 284 258
f 257 283 284
f 280 285 283
f 280 282 285
f 283 286 284
f 283 285 286
f 270 287 281
f 270 276 287
f 281 288 282
f 281 287 288
f 276 289 287
f 276 278 289
f 290 292 291
f 290 293 292
f 287 294 288
f 287 289 294
f 282 295 285
f 282 288 295
f 285 296 286
f 285 295 296
f 288 297 295
f 288 294 297
f 295 298 296
f 295 297 298
f 186 299 185
f 186 300 299
f 186 301 300
f 186 187 301
f 185 302 191
f 185 299 302
f 300 303 299
f 300 304 303
f 300 305 304
f 300 301 305
f 299 306 302
f 299 303 306
f 307 309 308
f 307 310 309
f 191 308 190
f 191 307 308
f 191 310 307
f 191 302 310
f 302 311 310
f 302 306 311
f 947 948 949
f 949 948 313
f 949 313 312
f 958 950 951
f 951 950 309
f 951 309 310
f 948 311 313
f 951 311 948
f 310 311 951
f 304 314 303
f 304 315 314
f 304 316 315
f 304 305 316
f 303 317 306
f 303 314 317
f 315 318 314
f 315 319 318
f 315 320 319
f 315 316 320
f 314 321 317
f 314 318 321
f 306 322 311
f 306 317 322
f 311 323 313
f 311 322 323
f 317 324 322
f 317 321 324
f 322 325 323
f 322 324 325
f 952 947 953
f 952 953 327
f 952 327 326
f 953 214 327
f 954 214 953
f 213 214 954
f 955 215 216
f 952 215 955
f 326 215 952
f 958 955 954
f 954 955 216
f 954 216 213
f 214 328 327
f 214 217 328
f 215 329 218
f 215 326 329
f 327 331 330
f 327 328 331
f 326 332 329
f 326 333 332
f 326 330 333
f 326 327 330
f 217 334 328
f 217 335 334
f 218 336 221
f 218 329 336
f 221 337 222
f 221 336 337
f 328 338 331
f 328 334 338
f 329 339 336
f 329 332 339
f 334 340 338
f 334 341 340
f 336 342 337
f 336 339 342
f 313 330 312
f 313 333 330
f 313 343 333
f 313 323 343
f 333 344 332
f 333 343 344
f 323 345 343
f 323 325 345
f 343 346 344
f 343 345 346
f 331 348 347
f 331 338 348
f 332 349 339
f 332 344 349
f 338 350 348
f 338 340 350
f 339 351 342
f 339 349 351
f 344 352 349
f 344 346 352
f 349 353 351
f 349 352 353
f 354 318 319
f 354 355 318
f 354 356 355
f 354 357 356
f 354 358 357
f 354 319 358
f 355 321 318
f 355 359 321
f 355 360 359
f 355 356 360
f 319 361 358
f 319 320 361
f 362 364 363
f 362 365 364
f 357 363 356
f 357 362 363
f 357 365 362
f 357 358 365
f 363 367 366
f 363 364 367
f 356 366 360
f 356 363 366
f 365 368 364
f 365 369 368
f 358 369 365
f 358 361 369
f 364 370 367
f 364 368 370
f 359 324 321
f 359 371 324
f 359 372 371
f 359 360 372
f 371 325 324
f 371 373 325
f 371 374 373
f 371 372 374
f 366 376 375
f 366 367 376
f 360 375 372
f 360 366 375
f 375 378 377
f 375 376 378
f 372 377 374
f 372 375 377
f 367 379 376
f 367 370 379
f 376 380 378
f 376 379 380
f 373 345 325
f 373 381 345
f 373 382 381
f 373 374 382
f 381 346 345
f 381 383 346
f 381 384 383
f 381 382 384
f 377 386 385
f 377 378 386
f 374 385 382
f 374 377 385
f 385 388 387
f 385 386 388
f 382 387 384
f 382 385 387
f 378 389 386
f 378 380 389
f 386 390 388
f 386 389 390
f 383 352 346
f 383 391 352
f 383 392 391
f 383 384 392
f 391 353 352
f 391 393 353
f 391 394 393
f 391 392 394
f 387 396 395
f 387 388 396
f 384 395 392
f 384 387 395
f 395 398 397
f 395 396 398
f 392 397 394
f 392 395 397
f 388 399 396
f 388 390 399
f 396 400 398
f 396 399 400
f 222 401 273
f 222 337 401
f 273 402 274
f 273 401 402
f 337 403 401
f 337 342 403
f 401 404 402
f 401 403 404
f 274 405 277
f 274 402 405
f 277 406 278
f 277 405 406
f 402 407 405
f 402 404 407
f 405 408 406
f 405 407 408
f 340 409 350
f 340 410 409
f 342 411 403
f 342 351 411
f 403 412 404
f 403 411 412
f 350 414 413
f 350 409 414
f 351 415 411
f 351 353 415
f 409 416 414
f 409 417 416
f 411 418 412
f 411 415 418
f 404 419 407
f 404 412 419
f 407 420 408
f 407 419 420
f 412 421 419
f 412 418 421
f 419 422 420
f 419 421 422
f 278 423 289
f 278 406 423
f 291 425 424
f 291 292 425
f 289 426 294
f 289 423 426
f 406 427 423
f 406 408 427
f 423 428 426
f 423 427 428
f 292 429 425
f 292 430 429
f 294 431 297
f 294 426 431
f 297 432 298
f 297 431 432
f 425 434 433
f 425 429 434
f 426 435 431
f 426 428 435
f 431 436 432
f 431 435 436
f 408 437 427
f 408 420 437
f 427 438 428
f 427 437 438
f 420 439 437
f 420 422 439
f 437 440 438
f 437 439 440
f 428 441 435
f 428 438 441
f 435 442 436
f 435 441 442
f 438 443 441
f 438 440 443
f 441 444 442
f 441 443 444
f 393 415 353
f 393 445 415
f 393 446 445
f 393 394 446
f 445 418 415
f 445 447 418
f 445 448 447
f 445 446 448
f 397 450 449
f 397 398 450
f 394 449 446
f 394 397 449
f 449 452 451
f 449 450 452
f 446 451 448
f 446 449 451
f 398 453 450
f 398 400 453
f 450 454 452
f 450 453 454
f 447 421 418
f 447 455 421
f 447 456 455
f 447 448 456
f 455 422 421
f 455 457 422
f 455 458 457
f 455 456 458
f 451 460 459
f 451 452 460
f 448 459 456
f 448 451 459
f 459 462 461
f 459 460 462
f 456 461 458
f 456 459 461
f 452 463 460
f 452 454 463
f 460 464 462
f 460 463 464
f 457 439 422
f 457 465 439
f 457 466 465
f 457 458 466
f 465 440 439
f 465 467 440
f 465 468 467
f 465 466 468
f 461 470 469
f 461 462 470
f 458 469 466
f 458 461 469
f 469 472 471
f 469 470 472
f 466 471 468
f 466 469 471
f 462 473 470
f 462 464 473
f 470 474 472
f 470 473 474
f 467 443 440
f 467 475 443
f 467 476 475
f 467 468 476
f 475 444 443
f 475 477 444
f 475 478 477
f 475 476 478
f 471 480 479
f 471 472 480
f 468 479 476
f 468 471 479
f 479 482 481
f 479 480 482
f 476 481 478
f 476 479 481
f 472 483 480
f 472 474 483
f 480 484 482
f 480 483 484
f 89 487 485
f 89 91 487
f 485 488 486
f 485 487 488
f 486 492 489
f 486 488 492
f 491 493 490
f 491 494 493
f 489 494 491
f 489 492 494
f 91 495 487
f 91 131 495
f 487 496 488
f 487 495 496
f 131 497 495
f 131 136 497
f 495 498 496
f 495 497 498
f 488 499 492
f 488 496 499
f 494 500 493
f 494 501 500
f 492 501 494
f 492 499 501
f 496 502 499
f 496 498 502
f 501 503 500
f 501 504 503
f 499 504 501
f 499 502 504
f 134 505 145
f 134 506 505
f 136 507 497
f 136 146 507
f 497 508 498
f 497 507 508
f 145 509 150
f 145 505 509
f 146 510 507
f 146 151 510
f 505 511 509
f 505 512 511
f 507 513 508
f 507 510 513
f 498 514 502
f 498 508 514
f 504 515 503
f 504 516 515
f 502 516 504
f 502 514 516
f 508 517 514
f 508 513 517
f 516 518 515
f 516 519 518
f 514 519 516
f 514 517 519
f 150 520 245
f 150 509 520
f 151 521 510
f 151 246 521
f 509 522 520
f 509 511 522
f 510 523 513
f 510 521 523
f 245 524 249
f 245 520 524
f 246 525 521
f 246 250 525
f 520 526 524
f 520 522 526
f 521 527 523
f 521 525 527
f 513 528 517
f 513 523 528
f 519 529 518
f 519 530 529
f 517 530 519
f 517 528 530
f 523 531 528
f 523 527 531
f 530 532 529
f 530 533 532
f 528 533 530
f 528 531 533
f 249 535 534
f 249 524 535
f 250 536 525
f 250 256 536
f 524 537 535
f 524 526 537
f 525 538 527
f 525 536 538
f 534 540 539
f 534 535 540
f 256 541 536
f 256 258 541
f 535 542 540
f 535 537 542
f 536 543 538
f 536 541 543
f 526 544 537
f 526 545 544
f 527 546 531
f 527 538 546
f 533 547 532
f 533 548 547
f 531 548 533
f 531 546 548
f 537 549 542
f 537 544 549
f 538 550 546
f 538 543 550
f 548 551 547
f 548 552 551
f 546 552 548
f 546 550 552
f 258 553 541
f 258 284 553
f 540 555 554
f 540 542 555
f 541 556 543
f 541 553 556
f 284 557 553
f 284 286 557
f 553 558 556
f 553 557 558
f 543 559 550
f 543 556 559
f 552 560 551
f 552 561 560
f 550 561 552
f 550 559 561
f 556 562 559
f 556 558 562
f 561 563 560
f 561 564 563
f 559 564 561
f 559 562 564
f 286 565 557
f 286 296 565
f 557 566 558
f 557 565 566
f 296 567 565
f 296 298 567
f 565 568 566
f 565 567 568
f 558 569 562
f 558 566 569
f 564 570 563
f 564 571 570
f 562 571 564
f 562 569 571
f 566 572 569
f 566 568 572
f 571 573 570
f 571 574 573
f 569 574 571
f 569 572 574
f 298 575 567
f 298 432 575
f 567 576 568
f 567 575 576
f 432 577 575
f 432 436 577
f 575 578 576
f 575 577 578
f 568 579 572
f 568 576 579
f 574 580 573
f 574 581 580
f 572 581 574
f 572 579 581
f 576 582 579
f 576 578 582
f 581 583 580
f 581 584 583
f 579 584 581
f 579 582 584
f 436 585 577
f 436 442 585
f 577 586 578
f 577 585 586
f 442 587 585
f 442 444 587
f 585 588 586
f 585 587 588
f 578 589 582
f 578 586 589
f 584 590 583
f 584 591 590
f 582 591 584
f 582 589 591
f 586 592 589
f 586 588 592
f 591 593 590
f 591 594 593
f 589 594 591
f 589 592 594
f 477 587 444
f 477 595 587
f 477 596 595
f 477 478 596
f 595 588 587
f 595 597 588
f 595 598 597
f 595 596 598
f 481 600 599
f 481 482 600
f 478 599 596
f 478 481 599
f 599 602 601
f 599 600 602
f 596 601 598
f 596 599 601
f 482 603 600
f 482 484 603
f 600 604 602
f 600 603 604
f 597 592 588
f 597 605 592
f 597 606 605
f 597 598 606
f 605 594 592
f 605 607 594
f 605 608 607
f 605 606 608
f 601 610 609
f 601 602 610
f 598 609 606
f 598 601 609
f 609 612 611
f 609 610 612
f 606 611 608
f 606 609 611
f 602 613 610
f 602 604 613
f 610 614 612
f 610 613 614
f 615 617 616
f 615 618 617
f 607 616 594
f 607 615 616
f 607 618 615
f 607 608 618
f 616 620 619
f 616 617 620
f 594 619 593
f 594 616 619
f 611 622 621
f 611 612 622
f 618 622 617
f 618 621 622
f 608 621 618
f 608 611 621
f 612 623 622
f 612 614 623
f 617 623 620
f 617 622 623
f 6 626 14
f 6 627 626
f 624 626 627
f 624 625 626
f 13 626 625
f 13 14 626
f 3 627 6
f 3 624 627
f 13 628 16
f 13 625 628
f 16 629 19
f 16 628 629
f 59 19 629
f 630 632 631
f 630 633 632
f 45 633 630
f 45 53 633
f 45 631 51
f 45 630 631
f 633 634 632
f 633 635 634
f 53 635 633
f 53 55 635
f 59 636 61
f 61 637 64
f 61 636 637
f 64 638 71
f 64 637 638
f 71 639 74
f 71 638 639
f 73 644 83
f 73 645 644
f 639 644 645
f 639 640 644
f 74 645 73
f 74 639 645
f 83 646 86
f 83 644 646
f 640 646 644
f 640 641 646
f 641 647 646
f 641 642 647
f 642 648 647
f 642 643 648
f 85 649 129
f 85 650 649
f 646 649 650
f 646 647 649
f 86 650 85
f 86 646 650
f 647 651 649
f 647 648 651
f 635 652 634
f 635 653 652
f 55 653 635
f 55 108 653
f 653 654 652
f 653 655 654
f 108 655 653
f 108 110 655
f 655 656 654
f 655 657 656
f 110 657 655
f 110 114 657
f 657 658 656
f 657 659 658
f 114 659 657
f 114 116 659
f 128 660 135
f 128 661 660
f 649 660 661
f 649 651 660
f 129 661 128
f 129 649 661
f 659 662 658
f 659 663 662
f 116 663 659
f 116 137 663
f 663 664 662
f 663 665 664
f 139 664 665
f 139 147 664
f 137 665 663
f 137 139 665
f 666 668 667
f 666 669 668
f 153 669 666
f 153 156 669
f 153 667 159
f 153 666 667
f 631 670 669
f 631 632 670
f 51 669 156
f 51 631 669
f 632 671 670
f 632 634 671
f 669 672 668
f 669 670 672
f 670 673 672
f 670 671 673
f 667 675 674
f 667 668 675
f 159 674 168
f 159 667 674
f 674 677 676
f 674 675 677
f 168 676 173
f 168 674 676
f 668 678 675
f 668 672 678
f 672 679 678
f 672 673 679
f 675 680 677
f 675 678 680
f 678 681 680
f 678 679 681
f 682 684 683
f 682 685 684
f 182 685 682
f 182 183 685
f 182 683 187
f 182 682 683
f 685 686 684
f 685 687 686
f 189 686 687
f 189 190 686
f 183 687 685
f 183 189 687
f 676 689 688
f 676 677 689
f 173 688 193
f 173 676 688
f 198 690 211
f 198 691 690
f 688 690 691
f 688 689 690
f 193 691 198
f 193 688 691
f 677 692 689
f 677 680 692
f 680 693 692
f 680 681 693
f 689 694 690
f 689 692 694
f 692 695 694
f 692 693 695
f 690 697 696
f 690 694 697
f 211 696 210
f 211 690 696
f 694 698 697
f 694 695 698
f 217 699 335
f 217 700 699
f 696 699 700
f 696 697 699
f 210 700 217
f 210 696 700
f 697 701 699
f 697 698 701
f 634 702 671
f 634 652 702
f 652 703 702
f 652 654 703
f 671 704 673
f 671 702 704
f 702 705 704
f 702 703 705
f 654 706 703
f 654 656 706
f 656 707 706
f 656 658 707
f 703 708 705
f 703 706 708
f 706 709 708
f 706 707 709
f 673 710 679
f 673 704 710
f 704 711 710
f 704 705 711
f 679 712 681
f 679 710 712
f 710 713 712
f 710 711 713
f 705 714 711
f 705 708 714
f 708 715 714
f 708 709 715
f 711 716 713
f 711 714 716
f 714 717 716
f 714 715 717
f 658 718 707
f 658 662 718
f 662 719 718
f 662 664 719
f 707 720 709
f 707 718 720
f 718 721 720
f 718 719 721
f 664 722 719
f 664 723 722
f 148 722 723
f 148 244 722
f 147 723 664
f 147 148 723
f 719 724 721
f 719 722 724
f 244 724 722
f 244 248 724
f 709 725 715
f 709 720 725
f 720 726 725
f 720 721 726
f 715 727 717
f 715 725 727
f 725 728 727
f 725 726 728
f 721 729 726
f 721 724 729
f 724 730 729
f 724 731 730
f 249 730 731
f 249 534 730
f 248 731 724
f 248 249 731
f 726 732 728
f 726 729 732
f 729 733 732
f 729 730 733
f 534 733 730
f 534 539 733
f 681 734 693
f 681 712 734
f 712 735 734
f 712 713 735
f 693 736 695
f 693 734 736
f 734 737 736
f 734 735 737
f 713 738 735
f 713 716 738
f 266 739 269
f 266 738 739
f 716 739 738
f 716 717 739
f 735 740 737
f 735 738 740
f 266 740 738
f 266 267 740
f 695 741 698
f 695 736 741
f 736 742 741
f 736 737 742
f 698 743 701
f 698 741 743
f 741 744 743
f 741 742 744
f 737 745 742
f 737 740 745
f 740 746 745
f 740 747 746
f 267 747 740
f 267 268 747
f 742 748 744
f 742 745 748
f 745 749 748
f 745 746 749
f 717 750 739
f 717 727 750
f 727 751 750
f 727 728 751
f 739 752 747
f 739 750 752
f 269 747 268
f 269 739 747
f 750 753 752
f 750 751 753
f 728 754 751
f 728 732 754
f 732 755 754
f 732 733 755
f 751 756 753
f 751 754 756
f 754 757 756
f 754 755 757
f 747 758 746
f 747 752 758
f 290 759 293
f 290 758 759
f 752 759 758
f 752 753 759
f 746 760 749
f 746 758 760
f 290 760 758
f 290 291 760
f 753 761 759
f 753 756 761
f 756 762 761
f 756 757 762
f 292 763 430
f 292 764 763
f 759 763 764
f 759 761 763
f 293 764 292
f 293 759 764
f 761 765 763
f 761 762 765
f 683 767 766
f 683 684 767
f 187 766 301
f 187 683 766
f 684 768 767
f 684 686 768
f 766 770 769
f 766 767 770
f 301 769 305
f 301 766 769
f 767 771 770
f 767 768 771
f 686 772 768
f 686 773 772
f 308 772 773
f 308 309 772
f 190 773 686
f 190 308 773
f 768 774 771
f 768 772 774
f 772 775 774
f 772 776 775
f 956 775 776
f 949 775 956
f 312 775 949
f 950 772 309
f 956 772 950
f 776 772 956
f 769 778 777
f 769 770 778
f 305 777 316
f 305 769 777
f 770 779 778
f 770 771 779
f 777 781 780
f 777 778 781
f 316 780 320
f 316 777 780
f 778 782 781
f 778 779 782
f 771 783 779
f 771 774 783
f 774 784 783
f 774 775 784
f 779 785 782
f 779 783 785
f 783 786 785
f 783 784 786
f 334 787 341
f 334 788 787
f 699 787 788
f 699 701 787
f 335 788 334
f 335 699 788
f 775 789 784
f 775 790 789
f 312 790 775
f 312 330 790
f 790 791 789
f 790 792 791
f 331 791 792
f 331 347 791
f 330 792 790
f 330 331 792
f 784 793 786
f 784 789 793
f 789 794 793
f 789 791 794
f 791 795 794
f 791 796 795
f 347 796 791
f 347 348 796
f 796 797 795
f 796 798 797
f 350 797 798
f 350 413 797
f 348 798 796
f 348 350 798
f 780 800 799
f 780 781 800
f 320 799 361
f 320 780 799
f 781 801 800
f 781 782 801
f 369 802 368
f 369 803 802
f 799 802 803
f 799 800 802
f 361 803 369
f 361 799 803
f 368 804 370
f 368 802 804
f 800 804 802
f 800 801 804
f 782 805 801
f 782 785 805
f 785 806 805
f 785 786 806
f 370 807 379
f 370 804 807
f 801 807 804
f 801 805 807
f 379 808 380
f 379 807 808
f 805 808 807
f 805 806 808
f 786 809 806
f 786 793 809
f 793 810 809
f 793 794 810
f 380 811 389
f 380 808 811
f 806 811 808
f 806 809 811
f 389 812 390
f 389 811 812
f 809 812 811
f 809 810 812
f 794 813 810
f 794 795 813
f 795 814 813
f 795 797 814
f 390 815 399
f 390 812 815
f 810 815 812
f 810 813 815
f 399 816 400
f 399 815 816
f 813 816 815
f 813 814 816
f 701 817 787
f 701 743 817
f 743 818 817
f 743 744 818
f 340 819 410
f 340 820 819
f 787 819 820
f 787 817 819
f 341 820 340
f 341 787 820
f 817 821 819
f 817 818 821
f 744 822 818
f 744 748 822
f 748 823 822
f 748 749 823
f 818 824 821
f 818 822 824
f 822 825 824
f 822 823 825
f 409 826 417
f 409 827 826
f 819 826 827
f 819 821 826
f 410 827 409
f 410 819 827
f 821 828 826
f 821 824 828
f 824 829 828
f 824 825 829
f 826 831 830
f 826 828 831
f 417 830 416
f 417 826 830
f 828 832 831
f 828 829 832
f 749 833 823
f 749 760 833
f 291 833 760
f 291 424 833
f 823 834 825
f 823 833 834
f 833 835 834
f 833 836 835
f 425 835 836
f 425 433 835
f 424 836 833
f 424 425 836
f 763 838 837
f 763 765 838
f 430 837 429
f 430 763 837
f 837 840 839
f 837 838 840
f 429 839 434
f 429 837 839
f 825 841 829
f 825 834 841
f 834 842 841
f 834 835 842
f 829 843 832
f 829 841 843
f 841 844 843
f 841 842 844
f 835 845 842
f 835 839 845
f 433 839 835
f 433 434 839
f 839 846 845
f 839 840 846
f 842 847 844
f 842 845 847
f 845 848 847
f 845 846 848
f 797 849 814
f 797 850 849
f 413 850 797
f 413 414 850
f 850 851 849
f 850 830 851
f 414 830 850
f 414 416 830
f 400 852 453
f 400 816 852
f 814 852 816
f 814 849 852
f 453 853 454
f 453 852 853
f 849 853 852
f 849 851 853
f 830 854 851
f 830 831 854
f 831 855 854
f 831 832 855
f 454 856 463
f 454 853 856
f 851 856 853
f 851 854 856
f 463 857 464
f 463 856 857
f 854 857 856
f 854 855 857
f 832 858 855
f 832 843 858
f 843 859 858
f 843 844 859
f 464 860 473
f 464 857 860
f 855 860 857
f 855 858 860
f 473 861 474
f 473 860 861
f 858 861 860
f 858 859 861
f 844 862 859
f 844 847 862
f 847 863 862
f 847 848 863
f 474 864 483
f 474 861 864
f 859 864 861
f 859 862 864
f 483 865 484
f 483 864 865
f 862 865 864
f 862 863 865
f 643 868 648
f 643 866 868
f 866 869 868
f 866 867 869
f 648 870 651
f 648 868 870
f 868 871 870
f 868 869 871
f 867 872 869
f 869 874 871
f 869 872 874
f 872 875 874
f 872 873 875
f 490 875 873
f 490 493 875
f 651 876 660
f 651 870 876
f 870 877 876
f 870 871 877
f 134 878 506
f 134 879 878
f 660 878 879
f 660 876 878
f 135 879 134
f 135 660 879
f 876 880 878
f 876 877 880
f 871 881 877
f 871 874 881
f 874 882 881
f 874 875 882
f 493 882 875
f 493 500 882
f 877 883 880
f 877 881 883
f 881 884 883
f 881 882 884
f 500 884 882
f 500 503 884
f 505 885 512
f 505 886 885
f 878 885 886
f 878 880 885
f 506 886 505
f 506 878 886
f 880 887 885
f 880 883 887
f 883 888 887
f 883 884 888
f 503 888 884
f 503 515 888
f 885 890 889
f 885 887 890
f 512 889 511
f 512 885 889
f 887 891 890
f 887 888 891
f 515 891 888
f 515 518 891
f 889 893 892
f 889 890 893
f 511 892 522
f 511 889 892
f 890 894 893
f 890 891 894
f 518 894 891
f 518 529 894
f 526 895 545
f 526 896 895
f 892 895 896
f 892 893 895
f 522 896 526
f 522 892 896
f 893 897 895
f 893 894 897
f 529 897 894
f 529 532 897
f 895 899 898
f 895 897 899
f 532 899 897
f 532 547 899
f 545 898 544
f 545 895 898
f 898 901 900
f 898 899 901
f 547 901 899
f 547 551 901
f 544 900 549
f 544 898 900
f 733 902 755
f 733 903 902
f 540 902 903
f 540 554 902
f 539 903 733
f 539 540 903
f 755 904 757
f 755 902 904
f 902 905 904
f 902 906 905
f 554 906 902
f 554 555 906
f 907 908 906
f 907 900 908
f 542 900 907
f 542 549 900
f 542 906 555
f 542 907 906
f 900 909 908
f 900 901 909
f 551 909 901
f 551 560 909
f 906 910 905
f 906 908 910
f 908 911 910
f 908 909 911
f 560 911 909
f 560 563 911
f 757 912 762
f 757 904 912
f 904 913 912
f 904 905 913
f 762 914 765
f 762 912 914
f 912 915 914
f 912 913 915
f 905 916 913
f 905 910 916
f 910 917 916
f 910 911 917
f 563 917 911
f 563 570 917
f 913 918 915
f 913 916 918
f 916 919 918
f 916 917 919
f 570 919 917
f 570 573 919
f 765 920 838
f 765 914 920
f 914 921 920
f 914 915 921
f 838 922 840
f 838 920 922
f 920 923 922
f 920 921 923
f 915 924 921
f 915 918 924
f 918 925 924
f 918 919 925
f 573 925 919
f 573 580 925
f 921 926 923
f 921 924 926
f 924 927 926
f 924 925 927
f 580 927 925
f 580 583 927
f 840 928 846
f 840 922 928
f 922 929 928
f 922 923 929
f 846 930 848
f 846 928 930
f 928 931 930
f 928 929 931
f 923 932 929
f 923 926 932
f 926 933 932
f 926 927 933
f 583 933 927
f 583 590 933
f 929 934 931
f 929 932 934
f 932 935 934
f 932 933 935
f 590 935 933
f 590 593 935
f 848 936 863
f 848 930 936
f 930 937 936
f 930 931 937
f 484 938 603
f 484 865 938
f 863 938 865
f 863 936 938
f 603 939 604
f 603 938 939
f 936 939 938
f 936 937 939
f 931 940 937
f 931 934 940
f 934 941 940
f 934 935 941
f 604 942 613
f 604 939 942
f 937 942 939
f 937 940 942
f 613 943 614
f 613 942 943
f 940 943 942
f 940 941 943
f 935 944 941
f 935 945 944
f 619 944 945
f 619 620 944
f 593 945 935
f 593 619 945
f 614 946 623
f 614 943 946
f 941 946 943
f 941 944 946
f 620 946 944
f 620 623 946
f 955 951 957
f 955 957 952
f 955 958 951
f 948 957 951
f 948 952 957
f 948 947 952
f 954 950 958
f 954 956 950
f 954 953 956
f 949 953 947
f 949 956 953
f 959 960 961
f 959 961 960
f 962 961 960
f 962 960 961
f 963 964 965
f 963 965 964
f 966 965 964
f 966 964 965

