# https://github.com/mikedh/trimesh
v 0.07000000 -0.09000000 -0.10600000
v 0.07000000 -0.09000000 -0.10200000
v 0.07000000 -0.08600000 -0.10600000
v 0.07000000 -0.08600000 -0.10200000
v 0.07400000 -0.09000000 -0.10600000
v 0.07400000 -0.09000000 -0.10200000
v 0.07400000 -0.08600000 -0.10600000
v 0.07000000 -0.09000000 -0.09800000
v 0.07000000 -0.08600000 -0.09800000
v 0.07400000 -0.09000000 -0.09800000
v 0.07400000 -0.08600000 -0.09800000
v 0.07000000 -0.08200000 -0.10600000
v 0.07000000 -0.08200000 -0.10200000
v 0.07400000 -0.08200000 -0.10600000
v 0.07400000 -0.08200000 -0.10200000
v 0.07000000 -0.08200000 -0.09800000
v 0.07400000 -0.08200000 -0.09800000
v 0.07000000 -0.08600000 -0.09400000
v 0.07000000 -0.08200000 -0.09400000
v 0.07400000 -0.08600000 -0.09400000
v 0.07400000 -0.08200000 -0.09400000
v 0.07800000 -0.09000000 -0.10600000
v 0.07800000 -0.09000000 -0.10200000
v 0.07800000 -0.08600000 -0.10600000
v 0.07800000 -0.08600000 -0.10200000
v 0.07800000 -0.09000000 -0.09800000
v 0.07800000 -0.08600000 -0.09800000
v 0.07800000 -0.08200000 -0.10600000
v 0.07800000 -0.08200000 -0.10200000
v 0.07800000 -0.08200000 -0.09800000
v 0.07800000 -0.08600000 -0.09400000
v 0.07800000 -0.08200000 -0.09400000
v 0.07400000 -0.07800000 -0.10600000
v 0.07400000 -0.07800000 -0.10200000
v 0.07800000 -0.07800000 -0.10600000
v 0.07800000 -0.07800000 -0.10200000
v 0.07400000 -0.07800000 -0.09800000
v 0.07800000 -0.07800000 -0.09800000
v 0.07400000 -0.07800000 -0.09400000
v 0.07800000 -0.07800000 -0.09400000
v 0.07400000 -0.08200000 -0.09000000
v 0.07400000 -0.07800000 -0.09000000
v 0.07800000 -0.08200000 -0.09000000
v 0.07800000 -0.07800000 -0.09000000
v 0.07400000 -0.07800000 -0.11400000
v 0.07400000 -0.07800000 -0.11000000
v 0.07400000 -0.07400000 -0.11400000
v 0.07400000 -0.07400000 -0.11000000
v 0.07800000 -0.07800000 -0.11400000
v 0.07800000 -0.07800000 -0.11000000
v 0.07800000 -0.07400000 -0.11400000
v 0.07800000 -0.07400000 -0.11000000
v 0.07400000 -0.07400000 -0.10600000
v 0.07800000 -0.07400000 -0.10600000
v 0.07400000 -0.07400000 -0.10200000
v 0.07800000 -0.07400000 -0.10200000
v 0.07400000 -0.07400000 -0.09800000
v 0.07800000 -0.07400000 -0.09800000
v 0.07400000 -0.07400000 -0.09400000
v 0.07800000 -0.07400000 -0.09400000
v 0.07400000 -0.07400000 -0.09000000
v 0.07800000 -0.07400000 -0.09000000
v 0.07400000 -0.07800000 -0.08600000
v 0.07400000 -0.07400000 -0.08600000
v 0.07800000 -0.07800000 -0.08600000
v 0.07800000 -0.07400000 -0.08600000
v 0.07400000 -0.07000000 -0.11400000
v 0.07400000 -0.07000000 -0.11000000
v 0.07800000 -0.07000000 -0.11400000
v 0.07800000 -0.07000000 -0.11000000
v 0.07400000 -0.07000000 -0.10600000
v 0.07800000 -0.07000000 -0.10600000
v 0.07400000 -0.07000000 -0.10200000
v 0.07800000 -0.07000000 -0.10200000
v 0.07400000 -0.07000000 -0.09800000
v 0.07800000 -0.07000000 -0.09800000
v 0.07400000 -0.07000000 -0.09400000
v 0.07800000 -0.07000000 -0.09400000
v 0.07400000 -0.07000000 -0.09000000
v 0.07800000 -0.07000000 -0.09000000
v 0.07400000 -0.06600000 -0.11000000
v 0.07400000 -0.06600000 -0.10600000
v 0.07800000 -0.06600000 -0.11000000
v 0.07800000 -0.06600000 -0.10600000
v 0.07400000 -0.06600000 -0.10200000
v 0.07400000 -0.06600000 -0.09800000
v 0.07400000 -0.06600000 -0.09400000
v 0.07400000 -0.06600000 -0.09000000
v 0.07800000 -0.06600000 -0.09400000
v 0.07800000 -0.06600000 -0.09000000
v 0.07400000 -0.06200000 -0.10600000
v 0.07400000 -0.06200000 -0.10200000
v 0.07800000 -0.06200000 -0.10600000
v 0.07800000 -0.06200000 -0.10200000
v 0.07400000 -0.06200000 -0.09800000
v 0.07800000 -0.06200000 -0.09800000
v 0.07400000 -0.06200000 -0.09400000
v 0.07800000 -0.06200000 -0.09400000
v 0.07400000 -0.05800000 -0.06600000
v 0.07400000 -0.05800000 -0.06200000
v 0.07400000 -0.05400000 -0.06600000
v 0.07400000 -0.05400000 -0.06200000
v 0.07800000 -0.05800000 -0.06600000
v 0.07800000 -0.05800000 -0.06200000
v 0.07800000 -0.05400000 -0.06600000
v 0.07400000 -0.05800000 -0.05800000
v 0.07400000 -0.05400000 -0.05800000
v 0.07800000 -0.05800000 -0.05800000
v 0.07400000 -0.05800000 -0.05400000
v 0.07400000 -0.05400000 -0.05400000
v 0.07800000 -0.05800000 -0.05400000
v 0.07800000 -0.05400000 -0.05400000
v 0.07400000 -0.05000000 -0.06600000
v 0.07400000 -0.05000000 -0.06200000
v 0.07800000 -0.05000000 -0.06600000
v 0.07800000 -0.05000000 -0.06200000
v 0.07400000 -0.05000000 -0.05800000
v 0.07800000 -0.05000000 -0.05800000
v 0.07400000 -0.05000000 -0.05400000
v 0.07800000 -0.05000000 -0.05400000
v 0.07400000 -0.05400000 -0.05000000
v 0.07400000 -0.05000000 -0.05000000
v 0.07800000 -0.05400000 -0.05000000
v 0.07800000 -0.05000000 -0.05000000
v 0.08200000 -0.07000000 -0.10600000
v 0.08200000 -0.07000000 -0.10200000
v 0.08200000 -0.06600000 -0.10600000
v 0.08200000 -0.06600000 -0.10200000
v 0.08200000 -0.07000000 -0.09800000
v 0.08200000 -0.06600000 -0.09800000
v 0.08200000 -0.07000000 -0.09400000
v 0.08200000 -0.06600000 -0.09400000
v 0.08200000 -0.06200000 -0.10600000
v 0.08200000 -0.06200000 -0.10200000
v 0.08200000 -0.06200000 -0.09800000
v 0.08200000 -0.06200000 -0.09400000
v 0.07800000 -0.06200000 -0.06200000
v 0.07800000 -0.06200000 -0.05800000
v 0.08200000 -0.06200000 -0.06200000
v 0.08200000 -0.06200000 -0.05800000
v 0.08200000 -0.05800000 -0.06200000
v 0.08200000 -0.05800000 -0.05800000
v 0.08200000 -0.05800000 -0.06600000
v 0.08200000 -0.05400000 -0.06600000
v 0.08200000 -0.05400000 -0.06200000
v 0.08200000 -0.05400000 -0.05800000
v 0.08200000 -0.05800000 -0.05400000
v 0.08200000 -0.05400000 -0.05400000
v 0.08200000 -0.05000000 -0.06600000
v 0.08200000 -0.05000000 -0.06200000
v 0.08200000 -0.05000000 -0.05800000
v 0.08200000 -0.05000000 -0.05400000
v 0.08200000 -0.05400000 -0.05000000
v 0.08200000 -0.05000000 -0.05000000
v 0.07800000 -0.05400000 -0.04600000
v 0.07800000 -0.05000000 -0.04600000
v 0.08200000 -0.05400000 -0.04600000
v 0.08200000 -0.05000000 -0.04600000
v 0.07800000 -0.05000000 -0.07000000
v 0.07800000 -0.04600000 -0.07000000
v 0.07800000 -0.04600000 -0.06600000
v 0.08200000 -0.05000000 -0.07000000
v 0.08200000 -0.04600000 -0.07000000
v 0.08200000 -0.04600000 -0.06600000
v 0.07800000 -0.04600000 -0.06200000
v 0.08200000 -0.04600000 -0.06200000
v 0.07800000 -0.04600000 -0.05800000
v 0.08200000 -0.04600000 -0.05800000
v 0.07800000 -0.04600000 -0.05400000
v 0.08200000 -0.04600000 -0.05400000
v 0.07800000 -0.04600000 -0.05000000
v 0.08200000 -0.04600000 -0.05000000
v 0.07800000 -0.04600000 -0.04600000
v 0.08200000 -0.04600000 -0.04600000
v 0.07800000 -0.05000000 -0.04200000
v 0.07800000 -0.04600000 -0.04200000
v 0.08200000 -0.05000000 -0.04200000
v 0.08200000 -0.04600000 -0.04200000
v 0.07800000 -0.04600000 -0.07400000
v 0.07800000 -0.04200000 -0.07400000
v 0.07800000 -0.04200000 -0.07000000
v 0.08200000 -0.04600000 -0.07400000
v 0.08200000 -0.04200000 -0.07400000
v 0.08200000 -0.04200000 -0.07000000
v 0.07800000 -0.04200000 -0.06600000
v 0.08200000 -0.04200000 -0.06600000
v 0.07800000 -0.04200000 -0.06200000
v 0.08200000 -0.04200000 -0.06200000
v 0.07800000 -0.04200000 -0.05800000
v 0.07800000 -0.04200000 -0.05400000
v 0.08200000 -0.04200000 -0.05800000
v 0.08200000 -0.04200000 -0.05400000
v 0.07800000 -0.04200000 -0.05000000
v 0.08200000 -0.04200000 -0.05000000
v 0.07800000 -0.04200000 -0.04600000
v 0.08200000 -0.04200000 -0.04600000
v 0.07800000 -0.04200000 -0.04200000
v 0.08200000 -0.04200000 -0.04200000
v 0.07800000 -0.03800000 -0.07000000
v 0.07800000 -0.03800000 -0.06600000
v 0.08200000 -0.03800000 -0.07000000
v 0.08200000 -0.03800000 -0.06600000
v 0.07800000 -0.03800000 -0.06200000
v 0.07800000 -0.03800000 -0.05800000
v 0.08200000 -0.03800000 -0.06200000
v 0.08200000 -0.03800000 -0.05800000
v 0.07800000 -0.03800000 -0.05400000
v 0.08200000 -0.03800000 -0.05400000
v 0.07800000 -0.03800000 -0.05000000
v 0.08200000 -0.03800000 -0.05000000
v 0.07800000 -0.03800000 -0.04600000
v 0.08200000 -0.03800000 -0.04600000
v 0.07800000 -0.03800000 -0.04200000
v 0.08200000 -0.03800000 -0.04200000
v 0.07800000 -0.04200000 -0.03800000
v 0.07800000 -0.03800000 -0.03800000
v 0.08200000 -0.04200000 -0.03800000
v 0.08200000 -0.03800000 -0.03800000
v 0.07800000 -0.04200000 -0.03400000
v 0.07800000 -0.04200000 -0.03000000
v 0.07800000 -0.03800000 -0.03400000
v 0.07800000 -0.03800000 -0.03000000
v 0.08200000 -0.04200000 -0.03400000
v 0.08200000 -0.04200000 -0.03000000
v 0.08200000 -0.03800000 -0.03400000
v 0.08200000 -0.03800000 -0.03000000
v 0.07800000 -0.03400000 -0.06600000
v 0.07800000 -0.03400000 -0.06200000
v 0.08200000 -0.03400000 -0.06600000
v 0.08200000 -0.03400000 -0.06200000
v 0.07800000 -0.03400000 -0.05800000
v 0.08200000 -0.03400000 -0.05800000
v 0.07800000 -0.03400000 -0.05400000
v 0.08200000 -0.03400000 -0.05400000
v 0.07800000 -0.03400000 -0.05000000
v 0.07800000 -0.03400000 -0.04600000
v 0.07800000 -0.03400000 -0.04200000
v 0.08200000 -0.03400000 -0.04200000
v 0.07800000 -0.03400000 -0.03800000
v 0.07800000 -0.03400000 -0.03400000
v 0.08200000 -0.03400000 -0.03800000
v 0.07800000 -0.03400000 -0.03000000
v 0.08200000 -0.03400000 -0.03000000
v 0.07800000 -0.03000000 -0.05400000
v 0.07800000 -0.03000000 -0.05000000
v 0.08200000 -0.03000000 -0.05400000
v 0.07800000 -0.03000000 -0.04600000
v 0.07800000 -0.03000000 -0.04200000
v 0.08200000 -0.03400000 -0.04600000
v 0.08200000 -0.03000000 -0.04600000
v 0.08200000 -0.03000000 -0.04200000
v 0.07800000 -0.03000000 -0.03800000
v 0.07800000 -0.03000000 -0.03400000
v 0.07800000 -0.03000000 -0.03000000
v 0.08200000 -0.03000000 -0.03400000
v 0.08200000 -0.03000000 -0.03000000
v 0.07800000 -0.02600000 -0.05400000
v 0.07800000 -0.02600000 -0.05000000
v 0.08200000 -0.02600000 -0.05400000
v 0.08200000 -0.02600000 -0.05000000
v 0.07800000 -0.02600000 -0.04600000
v 0.08200000 -0.02600000 -0.04600000
v 0.07800000 -0.02600000 -0.04200000
v 0.07800000 -0.02600000 -0.03800000
v 0.07800000 -0.02600000 -0.03400000
v 0.08200000 -0.02600000 -0.03400000
v 0.07800000 -0.03000000 -0.02600000
v 0.07800000 -0.03000000 -0.02200000
v 0.07800000 -0.02600000 -0.02600000
v 0.07800000 -0.02600000 -0.02200000
v 0.08200000 -0.03000000 -0.02600000
v 0.08200000 -0.03000000 -0.02200000
v 0.08200000 -0.02600000 -0.02600000
v 0.07800000 -0.03000000 -0.01800000
v 0.07800000 -0.02600000 -0.01800000
v 0.08200000 -0.03000000 -0.01800000
v 0.08200000 -0.02600000 -0.01800000
v 0.07800000 -0.02200000 -0.04600000
v 0.07800000 -0.02200000 -0.04200000
v 0.08200000 -0.02200000 -0.04600000
v 0.08200000 -0.02200000 -0.04200000
v 0.07800000 -0.02200000 -0.03800000
v 0.08200000 -0.02200000 -0.03800000
v 0.07800000 -0.02200000 -0.03400000
v 0.08200000 -0.02200000 -0.03400000
v 0.07800000 -0.02200000 -0.02600000
v 0.07800000 -0.02200000 -0.02200000
v 0.08200000 -0.02200000 -0.02600000
v 0.08200000 -0.02200000 -0.02200000
v 0.07800000 -0.02200000 -0.01800000
v 0.08200000 -0.02200000 -0.01800000
v 0.07800000 -0.02600000 -0.01400000
v 0.07800000 -0.02600000 -0.01000000
v 0.07800000 -0.02200000 -0.01400000
v 0.07800000 -0.02200000 -0.01000000
v 0.08200000 -0.02600000 -0.01400000
v 0.08200000 -0.02600000 -0.01000000
v 0.08200000 -0.02200000 -0.01400000
v 0.08200000 -0.02200000 -0.01000000
v 0.08600000 -0.03800000 -0.06600000
v 0.08600000 -0.03800000 -0.06200000
v 0.08600000 -0.03400000 -0.06600000
v 0.08600000 -0.03400000 -0.06200000
v 0.08600000 -0.03800000 -0.05800000
v 0.08600000 -0.03400000 -0.05800000
v 0.08600000 -0.03800000 -0.05400000
v 0.08600000 -0.03800000 -0.05000000
v 0.08600000 -0.03400000 -0.05400000
v 0.08600000 -0.03400000 -0.05000000
v 0.08600000 -0.03800000 -0.04600000
v 0.08600000 -0.03400000 -0.04600000
v 0.08600000 -0.03800000 -0.04200000
v 0.08600000 -0.03400000 -0.04200000
v 0.08600000 -0.03800000 -0.03800000
v 0.08600000 -0.03800000 -0.03400000
v 0.08600000 -0.03400000 -0.03800000
v 0.08600000 -0.03400000 -0.03400000
v 0.08600000 -0.03800000 -0.03000000
v 0.08600000 -0.03400000 -0.03000000
v 0.08600000 -0.03000000 -0.05400000
v 0.08600000 -0.03000000 -0.05000000
v 0.08600000 -0.03000000 -0.04600000
v 0.08600000 -0.03000000 -0.04200000
v 0.08600000 -0.03000000 -0.03800000
v 0.08600000 -0.03000000 -0.03400000
v 0.08600000 -0.03000000 -0.03000000
v 0.08200000 -0.03400000 -0.02200000
v 0.08200000 -0.03400000 -0.01800000
v 0.08600000 -0.03400000 -0.02200000
v 0.08600000 -0.03400000 -0.01800000
v 0.08600000 -0.03000000 -0.02200000
v 0.08600000 -0.03000000 -0.01800000
v 0.08600000 -0.02600000 -0.05400000
v 0.08600000 -0.02600000 -0.05000000
v 0.08600000 -0.02600000 -0.04600000
v 0.08600000 -0.02600000 -0.04200000
v 0.08600000 -0.02600000 -0.03800000
v 0.08600000 -0.02600000 -0.03400000
v 0.08600000 -0.03000000 -0.02600000
v 0.08600000 -0.02600000 -0.02600000
v 0.08600000 -0.02600000 -0.02200000
v 0.08600000 -0.02600000 -0.01800000
v 0.08600000 -0.02200000 -0.04600000
v 0.08600000 -0.02200000 -0.04200000
v 0.08600000 -0.02200000 -0.03800000
v 0.08600000 -0.02200000 -0.03400000
v 0.08200000 -0.02600000 -0.03000000
v 0.08200000 -0.02200000 -0.03000000
v 0.08600000 -0.02600000 -0.03000000
v 0.08600000 -0.02200000 -0.03000000
v 0.08600000 -0.02200000 -0.02600000
v 0.08600000 -0.02200000 -0.02200000
v 0.08600000 -0.02200000 -0.01800000
v 0.08600000 -0.02600000 -0.01400000
v 0.08600000 -0.02600000 -0.01000000
v 0.08600000 -0.02200000 -0.01400000
v 0.08600000 -0.02200000 -0.01000000
v 0.08200000 -0.01800000 -0.04200000
v 0.08200000 -0.01800000 -0.03800000
v 0.08600000 -0.01800000 -0.04200000
v 0.08600000 -0.01800000 -0.03800000
v 0.08200000 -0.01800000 -0.03400000
v 0.08600000 -0.01800000 -0.03400000
v 0.08200000 -0.01800000 -0.03000000
v 0.08600000 -0.01800000 -0.03000000
v 0.08200000 -0.01800000 -0.02600000
v 0.08600000 -0.01800000 -0.02600000
v 0.08200000 -0.01800000 -0.02200000
v 0.08600000 -0.01800000 -0.02200000
v 0.08200000 -0.01800000 -0.01800000
v 0.08200000 -0.01800000 -0.01400000
v 0.08600000 -0.01800000 -0.01800000
v 0.08600000 -0.01800000 -0.01400000
v 0.08200000 -0.01800000 -0.01000000
v 0.08600000 -0.01800000 -0.01000000
v 0.08200000 -0.02200000 -0.00600000
v 0.08200000 -0.01800000 -0.00600000
v 0.08600000 -0.02200000 -0.00600000
v 0.08600000 -0.01800000 -0.00600000
v 0.08200000 -0.02200000 -0.00200000
v 0.08200000 -0.01800000 -0.00200000
v 0.08600000 -0.02200000 -0.00200000
v 0.08600000 -0.01800000 -0.00200000
v 0.08200000 -0.01400000 -0.03800000
v 0.08200000 -0.01400000 -0.03400000
v 0.08600000 -0.01400000 -0.03800000
v 0.08600000 -0.01400000 -0.03400000
v 0.08200000 -0.01400000 -0.03000000
v 0.08600000 -0.01400000 -0.03000000
v 0.08200000 -0.01400000 -0.02600000
v 0.08600000 -0.01400000 -0.02600000
v 0.08200000 -0.01400000 -0.02200000
v 0.08600000 -0.01400000 -0.02200000
v 0.08200000 -0.01400000 -0.01800000
v 0.08600000 -0.01400000 -0.01800000
v 0.08200000 -0.01400000 -0.01400000
v 0.08600000 -0.01400000 -0.01400000
v 0.08200000 -0.01400000 -0.01000000
v 0.08600000 -0.01400000 -0.01000000
v 0.08200000 -0.01400000 -0.00600000
v 0.08600000 -0.01400000 -0.00600000
v 0.08200000 -0.01400000 -0.00200000
v 0.08600000 -0.01400000 -0.00200000
v 0.08200000 -0.01800000 0.00200000
v 0.08200000 -0.01400000 0.00200000
v 0.08600000 -0.01800000 0.00200000
v 0.08600000 -0.01400000 0.00200000
v 0.08200000 -0.01000000 -0.03400000
v 0.08200000 -0.01000000 -0.03000000
v 0.08600000 -0.01000000 -0.03400000
v 0.08600000 -0.01000000 -0.03000000
v 0.08200000 -0.01000000 -0.02600000
v 0.08600000 -0.01000000 -0.02600000
v 0.08200000 -0.01000000 -0.02200000
v 0.08600000 -0.01000000 -0.02200000
v 0.08200000 -0.01000000 -0.01800000
v 0.08600000 -0.01000000 -0.01800000
v 0.08200000 -0.01000000 -0.01400000
v 0.08600000 -0.01000000 -0.01400000
v 0.08200000 -0.01000000 -0.01000000
v 0.08600000 -0.01000000 -0.01000000
v 0.08200000 -0.01000000 -0.00600000
v 0.08600000 -0.01000000 -0.00600000
v 0.08200000 -0.01000000 -0.00200000
v 0.08600000 -0.01000000 -0.00200000
v 0.08200000 -0.01000000 0.00200000
v 0.08600000 -0.01000000 0.00200000
v 0.08200000 -0.01400000 0.00600000
v 0.08200000 -0.01000000 0.00600000
v 0.08600000 -0.01400000 0.00600000
v 0.08600000 -0.01000000 0.00600000
v 0.08200000 -0.00600000 -0.02600000
v 0.08200000 -0.00600000 -0.02200000
v 0.08600000 -0.00600000 -0.02600000
v 0.08600000 -0.00600000 -0.02200000
v 0.08200000 -0.00600000 -0.01800000
v 0.08200000 -0.00600000 -0.01400000
v 0.08200000 -0.00600000 -0.01000000
v 0.08200000 -0.00600000 -0.00600000
v 0.08200000 -0.00600000 -0.00200000
v 0.08200000 -0.00600000 0.00200000
v 0.08600000 -0.00600000 -0.00200000
v 0.08600000 -0.00600000 0.00200000
v 0.08200000 -0.01000000 0.01000000
v 0.08200000 -0.00600000 0.00600000
v 0.08200000 -0.00600000 0.01000000
v 0.08600000 -0.01000000 0.01000000
v 0.08600000 -0.00600000 0.00600000
v 0.08200000 -0.01000000 0.01400000
v 0.08200000 -0.00600000 0.01400000
v 0.08600000 -0.01000000 0.01400000
v 0.08600000 -0.00600000 0.01400000
v 0.08200000 -0.00200000 -0.02200000
v 0.08200000 -0.00200000 -0.01800000
v 0.08600000 -0.00200000 -0.02200000
v 0.08600000 -0.00200000 -0.01800000
v 0.08200000 -0.00200000 -0.01400000
v 0.08600000 -0.00200000 -0.01400000
v 0.08200000 -0.00200000 -0.01000000
v 0.08200000 -0.00200000 -0.00600000
v 0.08200000 -0.00200000 -0.00200000
v 0.08600000 -0.00200000 -0.00200000
v 0.08200000 -0.00200000 0.00200000
v 0.08200000 -0.00200000 0.00600000
v 0.08600000 -0.00200000 0.00200000
v 0.08200000 -0.00200000 0.01000000
v 0.08200000 -0.00200000 0.01400000
v 0.08600000 -0.00200000 0.01000000
v 0.08600000 -0.00200000 0.01400000
v 0.08200000 0.00200000 -0.01400000
v 0.08200000 0.00200000 -0.01000000
v 0.08600000 0.00200000 -0.01400000
v 0.08600000 0.00200000 -0.01000000
v 0.08200000 0.00200000 -0.00600000
v 0.08200000 0.00200000 -0.00200000
v 0.08600000 0.00200000 -0.00600000
v 0.08600000 0.00200000 -0.00200000
v 0.08200000 0.00200000 0.00200000
v 0.08200000 0.00200000 0.00600000
v 0.08200000 0.00200000 0.01000000
v 0.08600000 0.00200000 0.01000000
v 0.08200000 -0.00200000 0.01800000
v 0.08200000 -0.00200000 0.02200000
v 0.08200000 0.00200000 0.01800000
v 0.08200000 0.00200000 0.02200000
v 0.08600000 -0.00200000 0.01800000
v 0.08600000 -0.00200000 0.02200000
v 0.08600000 0.00200000 0.01800000
v 0.08200000 -0.00200000 0.02600000
v 0.08200000 0.00200000 0.02600000
v 0.08600000 -0.00200000 0.02600000
v 0.08600000 0.00200000 0.02600000
v 0.08200000 0.00600000 -0.01000000
v 0.08200000 0.00600000 -0.00600000
v 0.08600000 0.00600000 -0.01000000
v 0.08600000 0.00600000 -0.00600000
v 0.08200000 0.00600000 -0.00200000
v 0.08200000 0.00600000 0.00200000
v 0.08600000 0.00600000 -0.00200000
v 0.08200000 0.00600000 0.00600000
v 0.08200000 0.00600000 0.01000000
v 0.08200000 0.00200000 0.01400000
v 0.08200000 0.00600000 0.01400000
v 0.08600000 0.00200000 0.01400000
v 0.08200000 0.00600000 0.01800000
v 0.08200000 0.00600000 0.02200000
v 0.08200000 0.00600000 0.02600000
v 0.08600000 0.00600000 0.02200000
v 0.08600000 0.00600000 0.02600000
v 0.08200000 0.01000000 -0.00600000
v 0.08200000 0.01000000 -0.00200000
v 0.08600000 0.01000000 -0.00600000
v 0.08600000 0.01000000 -0.00200000
v 0.08200000 0.01000000 0.00200000
v 0.08600000 0.01000000 0.00200000
v 0.08200000 0.01000000 0.00600000
v 0.08600000 0.01000000 0.00600000
v 0.08200000 0.01000000 0.01000000
v 0.08600000 0.01000000 0.01000000
v 0.08200000 0.01000000 0.01400000
v 0.08600000 0.01000000 0.01400000
v 0.08200000 0.01000000 0.01800000
v 0.08600000 0.01000000 0.01800000
v 0.08200000 0.01000000 0.02200000
v 0.08600000 0.01000000 0.02200000
v 0.08200000 0.00600000 0.03000000
v 0.08200000 0.01000000 0.02600000
v 0.08200000 0.01000000 0.03000000
v 0.08600000 0.00600000 0.03000000
v 0.08600000 0.01000000 0.02600000
v 0.08600000 0.01000000 0.03000000
v 0.08200000 0.00600000 0.03400000
v 0.08200000 0.01000000 0.03400000
v 0.08600000 0.00600000 0.03400000
v 0.08600000 0.01000000 0.03400000
v 0.09000000 -0.01000000 -0.02200000
v 0.09000000 -0.01000000 -0.01800000
v 0.09000000 -0.00600000 -0.02200000
v 0.09000000 -0.00600000 -0.01800000
v 0.09000000 -0.01000000 -0.01400000
v 0.09000000 -0.00600000 -0.01400000
v 0.09000000 -0.01000000 -0.01000000
v 0.09000000 -0.00600000 -0.01000000
v 0.09000000 -0.01000000 -0.00600000
v 0.09000000 -0.00600000 -0.00600000
v 0.09000000 -0.01000000 -0.00200000
v 0.09000000 -0.00600000 -0.00200000
v 0.09000000 -0.01000000 0.00600000
v 0.09000000 -0.01000000 0.01000000
v 0.09000000 -0.00600000 0.00600000
v 0.09000000 -0.00600000 0.01000000
v 0.09000000 -0.01000000 0.01400000
v 0.09000000 -0.00600000 0.01400000
v 0.09000000 -0.00200000 -0.02200000
v 0.09000000 -0.00200000 -0.01800000
v 0.09000000 -0.00200000 -0.01400000
v 0.09000000 -0.00200000 -0.01000000
v 0.09000000 -0.00200000 -0.00600000
v 0.09000000 -0.00200000 -0.00200000
v 0.09000000 -0.00600000 0.00200000
v 0.09000000 -0.00200000 0.00200000
v 0.09000000 -0.00200000 0.00600000
v 0.09000000 -0.00200000 0.01000000
v 0.09000000 -0.00200000 0.01400000
v 0.09000000 0.00200000 -0.01400000
v 0.09000000 0.00200000 -0.01000000
v 0.09000000 0.00200000 -0.00600000
v 0.09000000 0.00200000 -0.00200000
v 0.09000000 0.00200000 0.00200000
v 0.09000000 0.00200000 0.00600000
v 0.09000000 0.00200000 0.01000000
v 0.09000000 -0.00200000 0.01800000
v 0.09000000 -0.00200000 0.02200000
v 0.09000000 0.00200000 0.01800000
v 0.09000000 0.00200000 0.02200000
v 0.09000000 -0.00200000 0.02600000
v 0.09000000 0.00200000 0.02600000
v 0.09000000 0.00600000 -0.01000000
v 0.09000000 0.00600000 -0.00600000
v 0.09000000 0.00600000 -0.00200000
v 0.09000000 0.00600000 0.00200000
v 0.09000000 0.00600000 0.00600000
v 0.09000000 0.00600000 0.01000000
v 0.09000000 0.00200000 0.01400000
v 0.09000000 0.00600000 0.01400000
v 0.09000000 0.00600000 0.01800000
v 0.09000000 0.00600000 0.02200000
v 0.09000000 0.00600000 0.02600000
v 0.09000000 0.01000000 -0.00600000
v 0.09000000 0.01000000 -0.00200000
v 0.09000000 0.01000000 0.00200000
v 0.09000000 0.01000000 0.00600000
v 0.09000000 0.01000000 0.01000000
v 0.09000000 0.01000000 0.01400000
v 0.09000000 0.01000000 0.01800000
v 0.09000000 0.01000000 0.02200000
v 0.09000000 0.00600000 0.03000000
v 0.09000000 0.01000000 0.02600000
v 0.09000000 0.01000000 0.03000000
v 0.09000000 0.00600000 0.03400000
v 0.09000000 0.01000000 0.03400000
v 0.08600000 0.01400000 0.01000000
v 0.08600000 0.01400000 0.01400000
v 0.09000000 0.01400000 0.01000000
v 0.09000000 0.01400000 0.01400000
v 0.08600000 0.01400000 0.01800000
v 0.09000000 0.01400000 0.01800000
v 0.08600000 0.01400000 0.02200000
v 0.08600000 0.01400000 0.02600000
v 0.09000000 0.01400000 0.02200000
v 0.09000000 0.01400000 0.02600000
v 0.08600000 0.01400000 0.03000000
v 0.09000000 0.01400000 0.03000000
v 0.08600000 0.01400000 0.03400000
v 0.09000000 0.01400000 0.03400000
v 0.08600000 0.01000000 0.03800000
v 0.08600000 0.01400000 0.03800000
v 0.09000000 0.01000000 0.03800000
v 0.09000000 0.01400000 0.03800000
v 0.08600000 0.01000000 0.04200000
v 0.08600000 0.01400000 0.04200000
v 0.09000000 0.01000000 0.04200000
v 0.09000000 0.01400000 0.04200000
v 0.08600000 0.01400000 0.00600000
v 0.08600000 0.01800000 0.00600000
v 0.08600000 0.01800000 0.01000000
v 0.09000000 0.01400000 0.00600000
v 0.09000000 0.01800000 0.00600000
v 0.09000000 0.01800000 0.01000000
v 0.08600000 0.01800000 0.01400000
v 0.09000000 0.01800000 0.01400000
v 0.08600000 0.01800000 0.01800000
v 0.09000000 0.01800000 0.01800000
v 0.08600000 0.01800000 0.02200000
v 0.09000000 0.01800000 0.02200000
v 0.08600000 0.01800000 0.02600000
v 0.09000000 0.01800000 0.02600000
v 0.08600000 0.01800000 0.03000000
v 0.09000000 0.01800000 0.03000000
v 0.08600000 0.01800000 0.03400000
v 0.09000000 0.01800000 0.03400000
v 0.08600000 0.01800000 0.03800000
v 0.09000000 0.01800000 0.03800000
v 0.08600000 0.01800000 0.04200000
v 0.09000000 0.01800000 0.04200000
v 0.08600000 0.01400000 0.04600000
v 0.08600000 0.01800000 0.04600000
v 0.09000000 0.01400000 0.04600000
v 0.09000000 0.01800000 0.04600000
v 0.08600000 0.02200000 0.01800000
v 0.08600000 0.02200000 0.02200000
v 0.09000000 0.02200000 0.01800000
v 0.09000000 0.02200000 0.02200000
v 0.08600000 0.02200000 0.02600000
v 0.09000000 0.02200000 0.02600000
v 0.08600000 0.02200000 0.03000000
v 0.09000000 0.02200000 0.03000000
v 0.08600000 0.02200000 0.03400000
v 0.09000000 0.02200000 0.03400000
v 0.08600000 0.02200000 0.03800000
v 0.09000000 0.02200000 0.03800000
v 0.08600000 0.02200000 0.04200000
v 0.09000000 0.02200000 0.04200000
v 0.08600000 0.02200000 0.04600000
v 0.09000000 0.02200000 0.04600000
v 0.08600000 0.01800000 0.05000000
v 0.08600000 0.01800000 0.05400000
v 0.08600000 0.02200000 0.05000000
v 0.08600000 0.02200000 0.05400000
v 0.09000000 0.01800000 0.05000000
v 0.09000000 0.01800000 0.05400000
v 0.09000000 0.02200000 0.05000000
v 0.09000000 0.02200000 0.05400000
v 0.08600000 0.02600000 0.01800000
v 0.08600000 0.02600000 0.02200000
v 0.09000000 0.02600000 0.01800000
v 0.09000000 0.02600000 0.02200000
v 0.08600000 0.02600000 0.02600000
v 0.08600000 0.02600000 0.03000000
v 0.08600000 0.02600000 0.03400000
v 0.08600000 0.02600000 0.03800000
v 0.09000000 0.02600000 0.03800000
v 0.08600000 0.02600000 0.04600000
v 0.08600000 0.02600000 0.05000000
v 0.09000000 0.02600000 0.04600000
v 0.09000000 0.02600000 0.05000000
v 0.08600000 0.02600000 0.05400000
v 0.08600000 0.02200000 0.05800000
v 0.08600000 0.02600000 0.05800000
v 0.09000000 0.02200000 0.05800000
v 0.09000000 0.02600000 0.05800000
v 0.08600000 0.03000000 0.02200000
v 0.08600000 0.03000000 0.02600000
v 0.09000000 0.03000000 0.02200000
v 0.09000000 0.03000000 0.02600000
v 0.08600000 0.03000000 0.03000000
v 0.09000000 0.03000000 0.03000000
v 0.08600000 0.03000000 0.03400000
v 0.08600000 0.03000000 0.03800000
v 0.09000000 0.03000000 0.03800000
v 0.08600000 0.03000000 0.05000000
v 0.08600000 0.03000000 0.05400000
v 0.09000000 0.03000000 0.05000000
v 0.08600000 0.03000000 0.05800000
v 0.08600000 0.02600000 0.06200000
v 0.08600000 0.03000000 0.06200000
v 0.09000000 0.02600000 0.06200000
v 0.09000000 0.03000000 0.06200000
v 0.08600000 0.03400000 0.03000000
v 0.08600000 0.03400000 0.03400000
v 0.09000000 0.03400000 0.03000000
v 0.09000000 0.03400000 0.03400000
v 0.08600000 0.03400000 0.03800000
v 0.09000000 0.03400000 0.03800000
v 0.08600000 0.03400000 0.05000000
v 0.08600000 0.03400000 0.05400000
v 0.09000000 0.03400000 0.05000000
v 0.08600000 0.03400000 0.05800000
v 0.08600000 0.03400000 0.06200000
v 0.08600000 0.03000000 0.06600000
v 0.08600000 0.03400000 0.06600000
v 0.09000000 0.03000000 0.06600000
v 0.09000000 0.03400000 0.06600000
v 0.08600000 0.03400000 0.04600000
v 0.08600000 0.03800000 0.04600000
v 0.08600000 0.03800000 0.05000000
v 0.09000000 0.03400000 0.04600000
v 0.09000000 0.03800000 0.04600000
v 0.09000000 0.03800000 0.05000000
v 0.08600000 0.03800000 0.05400000
v 0.08600000 0.03800000 0.05800000
v 0.09000000 0.03800000 0.05400000
v 0.09000000 0.03800000 0.05800000
v 0.08600000 0.03800000 0.06200000
v 0.09000000 0.03800000 0.06200000
v 0.08600000 0.03800000 0.06600000
v 0.09000000 0.03800000 0.06600000
v 0.08600000 0.03400000 0.07000000
v 0.08600000 0.03400000 0.07400000
v 0.08600000 0.03800000 0.07000000
v 0.08600000 0.03800000 0.07400000
v 0.09000000 0.03400000 0.07000000
v 0.09000000 0.03400000 0.07400000
v 0.09000000 0.03800000 0.07000000
v 0.09000000 0.03800000 0.07400000
v 0.08600000 0.04200000 0.05000000
v 0.08600000 0.04200000 0.05400000
v 0.09000000 0.04200000 0.05000000
v 0.09000000 0.04200000 0.05400000
v 0.08600000 0.04200000 0.07000000
v 0.08600000 0.04200000 0.07400000
v 0.09000000 0.04200000 0.07000000
v 0.09000000 0.04200000 0.07400000
v 0.09400000 0.02200000 0.02200000
v 0.09400000 0.02200000 0.02600000
v 0.09400000 0.02600000 0.02200000
v 0.09400000 0.02600000 0.02600000
v 0.09400000 0.02200000 0.03000000
v 0.09400000 0.02600000 0.03000000
v 0.09400000 0.02200000 0.03400000
v 0.09400000 0.02600000 0.03400000
v 0.09400000 0.02200000 0.03800000
v 0.09400000 0.02600000 0.03800000
v 0.09400000 0.02200000 0.04600000
v 0.09400000 0.02200000 0.05000000
v 0.09400000 0.02600000 0.04600000
v 0.09400000 0.02600000 0.05000000
v 0.09400000 0.02200000 0.05400000
v 0.09400000 0.02600000 0.05400000
v 0.09400000 0.02200000 0.05800000
v 0.09400000 0.02600000 0.05800000
v 0.09400000 0.03000000 0.02200000
v 0.09400000 0.03000000 0.02600000
v 0.09400000 0.03000000 0.03000000
v 0.09400000 0.03000000 0.03400000
v 0.09400000 0.03000000 0.03800000
v 0.09400000 0.03000000 0.05000000
v 0.09400000 0.03000000 0.05400000
v 0.09400000 0.03000000 0.05800000
v 0.09400000 0.02600000 0.06200000
v 0.09400000 0.03000000 0.06200000
v 0.09400000 0.03400000 0.03000000
v 0.09400000 0.03400000 0.03400000
v 0.09400000 0.03400000 0.03800000
v 0.09400000 0.03400000 0.05000000
v 0.09400000 0.03400000 0.05400000
v 0.09400000 0.03400000 0.05800000
v 0.09400000 0.03400000 0.06200000
v 0.09400000 0.03000000 0.06600000
v 0.09400000 0.03400000 0.06600000
v 0.09400000 0.03400000 0.04600000
v 0.09400000 0.03800000 0.04600000
v 0.09400000 0.03800000 0.05000000
v 0.09400000 0.03800000 0.05400000
v 0.09400000 0.03800000 0.05800000
v 0.09400000 0.03800000 0.06200000
v 0.09400000 0.03800000 0.06600000
v 0.09400000 0.03400000 0.07000000
v 0.09400000 0.03400000 0.07400000
v 0.09400000 0.03800000 0.07000000
v 0.09400000 0.03800000 0.07400000
v 0.09000000 0.03800000 0.04200000
v 0.09000000 0.04200000 0.04200000
v 0.09000000 0.04200000 0.04600000
v 0.09400000 0.03800000 0.04200000
v 0.09400000 0.04200000 0.04200000
v 0.09400000 0.04200000 0.04600000
v 0.09400000 0.04200000 0.05000000
v 0.09400000 0.04200000 0.05400000
v 0.09000000 0.04200000 0.06600000
v 0.09400000 0.04200000 0.06600000
v 0.09400000 0.04200000 0.07000000
v 0.09400000 0.04200000 0.07400000
v 0.09000000 0.03800000 0.07800000
v 0.09000000 0.04200000 0.07800000
v 0.09400000 0.03800000 0.07800000
v 0.09400000 0.04200000 0.07800000
v 0.09000000 0.03800000 0.08200000
v 0.09000000 0.04200000 0.08200000
v 0.09400000 0.03800000 0.08200000
v 0.09400000 0.04200000 0.08200000
v 0.09000000 0.04600000 0.04600000
v 0.09000000 0.04600000 0.05000000
v 0.09400000 0.04600000 0.04600000
v 0.09400000 0.04600000 0.05000000
v 0.09000000 0.04600000 0.05400000
v 0.09400000 0.04600000 0.05400000
v 0.09000000 0.04200000 0.06200000
v 0.09000000 0.04600000 0.06200000
v 0.09000000 0.04600000 0.06600000
v 0.09400000 0.04200000 0.06200000
v 0.09400000 0.04600000 0.06200000
v 0.09400000 0.04600000 0.06600000
v 0.09000000 0.04600000 0.07000000
v 0.09400000 0.04600000 0.07000000
v 0.09000000 0.04600000 0.07400000
v 0.09400000 0.04600000 0.07400000
v 0.09000000 0.04600000 0.07800000
v 0.09400000 0.04600000 0.07800000
v 0.09000000 0.04600000 0.08200000
v 0.09400000 0.04600000 0.08200000
v 0.09000000 0.04200000 0.08600000
v 0.09000000 0.04600000 0.08600000
v 0.09400000 0.04200000 0.08600000
v 0.09400000 0.04600000 0.08600000
v 0.09000000 0.05000000 0.06200000
v 0.09000000 0.05000000 0.06600000
v 0.09400000 0.05000000 0.06200000
v 0.09400000 0.05000000 0.06600000
v 0.09000000 0.05000000 0.07000000
v 0.09400000 0.05000000 0.07000000
v 0.09000000 0.05000000 0.07400000
v 0.09400000 0.05000000 0.07400000
v 0.09000000 0.05000000 0.07800000
v 0.09400000 0.05000000 0.07800000
v 0.09000000 0.05000000 0.08200000
v 0.09400000 0.05000000 0.08200000
v 0.09000000 0.05000000 0.08600000
v 0.09400000 0.05000000 0.08600000
v 0.09000000 0.04600000 0.09000000
v 0.09000000 0.05000000 0.09000000
v 0.09400000 0.04600000 0.09000000
v 0.09400000 0.05000000 0.09000000
v 0.09000000 0.05000000 0.05800000
v 0.09000000 0.05400000 0.05800000
v 0.09000000 0.05400000 0.06200000
v 0.09400000 0.05000000 0.05800000
v 0.09400000 0.05400000 0.05800000
v 0.09400000 0.05400000 0.06200000
v 0.09000000 0.05400000 0.06600000
v 0.09400000 0.05400000 0.06600000
v 0.09000000 0.05400000 0.07000000
v 0.09400000 0.05400000 0.07000000
v 0.09000000 0.05400000 0.07400000
v 0.09400000 0.05400000 0.07400000
v 0.09000000 0.05400000 0.07800000
v 0.09400000 0.05400000 0.07800000
v 0.09000000 0.05400000 0.08200000
v 0.09400000 0.05400000 0.08200000
v 0.09000000 0.05400000 0.08600000
v 0.09400000 0.05400000 0.08600000
v 0.09000000 0.05000000 0.09400000
v 0.09000000 0.05400000 0.09000000
v 0.09000000 0.05400000 0.09400000
v 0.09400000 0.05000000 0.09400000
v 0.09400000 0.05400000 0.09000000
v 0.09400000 0.05400000 0.09400000
v 0.09000000 0.05000000 0.09800000
v 0.09000000 0.05400000 0.09800000
v 0.09400000 0.05000000 0.09800000
v 0.09400000 0.05400000 0.09800000
v 0.09000000 0.05800000 0.06200000
v 0.09000000 0.05800000 0.06600000
v 0.09400000 0.05800000 0.06200000
v 0.09400000 0.05800000 0.06600000
v 0.09000000 0.05800000 0.07000000
v 0.09000000 0.05800000 0.07400000
v 0.09000000 0.05800000 0.07800000
v 0.09400000 0.05800000 0.07800000
v 0.09000000 0.05800000 0.08600000
v 0.09000000 0.05800000 0.09000000
v 0.09400000 0.05800000 0.08600000
v 0.09000000 0.05800000 0.09400000
v 0.09000000 0.05800000 0.09800000
v 0.09000000 0.05400000 0.10200000
v 0.09000000 0.05800000 0.10200000
v 0.09400000 0.05400000 0.10200000
v 0.09400000 0.05800000 0.10200000
v 0.09000000 0.06200000 0.06600000
v 0.09000000 0.06200000 0.07000000
v 0.09400000 0.06200000 0.06600000
v 0.09400000 0.06200000 0.07000000
v 0.09000000 0.06200000 0.07400000
v 0.09400000 0.06200000 0.07400000
v 0.09000000 0.06200000 0.07800000
v 0.09000000 0.05800000 0.08200000
v 0.09000000 0.06200000 0.08200000
v 0.09400000 0.05800000 0.08200000
v 0.09400000 0.06200000 0.07800000
v 0.09400000 0.06200000 0.08200000
v 0.09000000 0.06200000 0.08600000
v 0.09000000 0.06200000 0.09000000
v 0.09400000 0.06200000 0.08600000
v 0.09000000 0.06200000 0.09400000
v 0.09000000 0.06200000 0.09800000
v 0.09000000 0.06200000 0.10200000
v 0.09000000 0.05800000 0.10600000
v 0.09000000 0.06200000 0.10600000
v 0.09400000 0.05800000 0.10600000
v 0.09000000 0.05800000 0.11000000
v 0.09000000 0.06200000 0.11000000
v 0.09400000 0.05800000 0.11000000
v 0.09400000 0.06200000 0.11000000
v 0.09000000 0.06600000 0.07400000
v 0.09000000 0.06600000 0.07800000
v 0.09400000 0.06600000 0.07400000
v 0.09400000 0.06600000 0.07800000
v 0.09000000 0.06600000 0.08200000
v 0.09000000 0.06600000 0.08600000
v 0.09400000 0.06600000 0.08200000
v 0.09000000 0.06600000 0.09000000
v 0.09000000 0.06600000 0.09400000
v 0.09000000 0.06600000 0.09800000
v 0.09000000 0.06600000 0.10200000
v 0.09000000 0.06600000 0.10600000
v 0.09000000 0.06600000 0.11000000
v 0.09400000 0.06600000 0.10600000
v 0.09400000 0.06600000 0.11000000
v 0.09000000 0.07000000 0.07800000
v 0.09000000 0.07000000 0.08200000
v 0.09400000 0.07000000 0.07800000
v 0.09400000 0.07000000 0.08200000
v 0.09000000 0.07000000 0.08600000
v 0.09400000 0.07000000 0.08600000
v 0.09000000 0.07000000 0.09000000
v 0.09400000 0.07000000 0.09000000
v 0.09000000 0.07000000 0.09400000
v 0.09400000 0.07000000 0.09400000
v 0.09000000 0.07000000 0.09800000
v 0.09400000 0.07000000 0.09800000
v 0.09000000 0.07000000 0.10200000
v 0.09400000 0.07000000 0.10200000
v 0.09000000 0.07000000 0.10600000
v 0.09400000 0.07000000 0.10600000
v 0.09000000 0.06600000 0.11400000
v 0.09000000 0.07000000 0.11000000
v 0.09000000 0.07000000 0.11400000
v 0.09400000 0.06600000 0.11400000
v 0.09400000 0.07000000 0.11000000
v 0.09400000 0.07000000 0.11400000
v 0.09000000 0.06600000 0.11800000
v 0.09000000 0.07000000 0.11800000
v 0.09400000 0.06600000 0.11800000
v 0.09400000 0.07000000 0.11800000
v 0.09800000 0.05400000 0.06200000
v 0.09800000 0.05400000 0.06600000
v 0.09800000 0.05800000 0.06200000
v 0.09800000 0.05800000 0.06600000
v 0.09800000 0.05400000 0.07000000
v 0.09800000 0.05800000 0.07000000
v 0.09800000 0.05400000 0.07400000
v 0.09800000 0.05800000 0.07400000
v 0.09800000 0.05400000 0.07800000
v 0.09800000 0.05800000 0.07800000
v 0.09800000 0.05400000 0.08600000
v 0.09800000 0.05400000 0.09000000
v 0.09800000 0.05800000 0.08600000
v 0.09800000 0.05800000 0.09000000
v 0.09800000 0.05400000 0.09400000
v 0.09800000 0.05800000 0.09400000
v 0.09800000 0.05400000 0.09800000
v 0.09800000 0.05800000 0.09800000
v 0.09800000 0.05400000 0.10200000
v 0.09800000 0.05800000 0.10200000
v 0.09800000 0.06200000 0.06600000
v 0.09800000 0.06200000 0.07000000
v 0.09800000 0.06200000 0.07400000
v 0.09800000 0.06200000 0.07800000
v 0.09800000 0.05800000 0.08200000
v 0.09800000 0.06200000 0.08200000
v 0.09800000 0.06200000 0.08600000
v 0.09800000 0.06200000 0.09000000
v 0.09800000 0.06200000 0.09400000
v 0.09800000 0.06200000 0.09800000
v 0.09800000 0.06200000 0.10200000
v 0.09800000 0.05800000 0.10600000
v 0.09800000 0.06200000 0.10600000
v 0.09800000 0.05800000 0.11000000
v 0.09800000 0.06200000 0.11000000
v 0.09800000 0.06600000 0.07400000
v 0.09800000 0.06600000 0.07800000
v 0.09800000 0.06600000 0.08200000
v 0.09800000 0.06600000 0.08600000
v 0.09800000 0.06600000 0.09000000
v 0.09800000 0.06600000 0.09400000
v 0.09800000 0.06600000 0.09800000
v 0.09800000 0.06600000 0.10200000
v 0.09800000 0.06600000 0.10600000
v 0.09800000 0.06600000 0.11000000
v 0.09800000 0.07000000 0.07800000
v 0.09800000 0.07000000 0.08200000
v 0.09800000 0.07000000 0.08600000
v 0.09800000 0.07000000 0.09000000
v 0.09800000 0.07000000 0.09400000
v 0.09800000 0.07000000 0.09800000
v 0.09800000 0.07000000 0.10200000
v 0.09800000 0.07000000 0.10600000
v 0.09800000 0.06600000 0.11400000
v 0.09800000 0.07000000 0.11000000
v 0.09800000 0.07000000 0.11400000
v 0.09800000 0.06600000 0.11800000
v 0.09800000 0.07000000 0.11800000
v 0.09400000 0.07400000 0.08200000
v 0.09400000 0.07400000 0.08600000
v 0.09800000 0.07400000 0.08200000
v 0.09800000 0.07400000 0.08600000
v 0.09400000 0.07400000 0.09000000
v 0.09800000 0.07400000 0.09000000
v 0.09400000 0.07400000 0.09400000
v 0.09800000 0.07400000 0.09400000
v 0.09400000 0.07400000 0.09800000
v 0.09800000 0.07400000 0.09800000
v 0.09400000 0.07400000 0.10200000
v 0.09800000 0.07400000 0.10200000
v 0.09400000 0.07400000 0.10600000
v 0.09400000 0.07400000 0.11000000
v 0.09800000 0.07400000 0.10600000
v 0.09800000 0.07400000 0.11000000
v 0.09400000 0.07400000 0.11400000
v 0.09800000 0.07400000 0.11400000
v 0.09400000 0.07400000 0.11800000
v 0.09800000 0.07400000 0.11800000
v 0.09400000 0.07000000 0.12200000
v 0.09400000 0.07400000 0.12200000
v 0.09800000 0.07000000 0.12200000
v 0.09800000 0.07400000 0.12200000
v 0.09400000 0.07000000 0.12600000
v 0.09400000 0.07400000 0.12600000
v 0.09800000 0.07000000 0.12600000
v 0.09800000 0.07400000 0.12600000
v 0.09400000 0.07800000 0.09000000
v 0.09400000 0.07800000 0.09400000
v 0.09800000 0.07800000 0.09000000
v 0.09800000 0.07800000 0.09400000
v 0.09400000 0.07800000 0.09800000
v 0.09800000 0.07800000 0.09800000
v 0.09400000 0.07800000 0.10200000
v 0.09800000 0.07800000 0.10200000
v 0.09400000 0.07800000 0.10600000
v 0.09400000 0.07800000 0.11000000
v 0.09800000 0.07800000 0.10600000
v 0.09800000 0.07800000 0.11000000
v 0.09400000 0.07800000 0.11400000
v 0.09800000 0.07800000 0.11400000
v 0.09400000 0.07800000 0.11800000
v 0.09800000 0.07800000 0.11800000
v 0.09400000 0.07800000 0.12200000
v 0.09800000 0.07800000 0.12200000
v 0.09400000 0.07800000 0.12600000
v 0.09800000 0.07800000 0.12600000
v 0.09400000 0.08200000 0.09400000
v 0.09400000 0.08200000 0.09800000
v 0.09800000 0.08200000 0.09400000
v 0.09800000 0.08200000 0.09800000
v 0.09400000 0.08200000 0.10200000
v 0.09400000 0.08200000 0.10600000
v 0.09800000 0.08200000 0.10200000
v 0.09800000 0.08200000 0.10600000
v 0.09400000 0.08200000 0.11000000
v 0.09800000 0.08200000 0.11000000
v 0.09400000 0.08200000 0.11400000
v 0.09800000 0.08200000 0.11400000
v 0.09400000 0.08200000 0.11800000
v 0.09800000 0.08200000 0.11800000
v 0.09400000 0.08200000 0.12200000
v 0.09800000 0.08200000 0.12200000
v 0.09400000 0.08200000 0.12600000
v 0.09800000 0.08200000 0.12600000
v 0.09400000 0.07800000 0.13000000
v 0.09400000 0.08200000 0.13000000
v 0.09800000 0.07800000 0.13000000
v 0.09800000 0.08200000 0.13000000
v 0.09400000 0.08600000 0.10200000
v 0.09400000 0.08600000 0.10600000
v 0.09800000 0.08600000 0.10200000
v 0.09800000 0.08600000 0.10600000
v 0.09400000 0.08600000 0.11000000
v 0.09800000 0.08600000 0.11000000
v 0.09400000 0.08600000 0.11400000
v 0.09400000 0.08600000 0.11800000
v 0.09800000 0.08600000 0.11400000
v 0.09800000 0.08600000 0.11800000
v 0.09400000 0.08600000 0.12200000
v 0.09400000 0.08600000 0.12600000
v 0.09800000 0.08600000 0.12200000
v 0.09800000 0.08600000 0.12600000
v 0.09400000 0.08600000 0.13000000
v 0.09800000 0.08600000 0.13000000
v 0.09400000 0.08200000 0.13400000
v 0.09400000 0.08600000 0.13400000
v 0.09800000 0.08200000 0.13400000
v 0.09400000 0.08200000 0.13800000
v 0.09400000 0.08600000 0.13800000
v 0.09800000 0.08200000 0.13800000
v 0.09400000 0.08200000 0.14200000
v 0.09400000 0.08600000 0.14200000
v 0.09800000 0.08200000 0.14200000
v 0.09800000 0.08600000 0.14200000
v 0.09400000 0.09000000 0.11400000
v 0.09400000 0.09000000 0.11800000
v 0.09800000 0.09000000 0.11400000
v 0.09400000 0.09000000 0.12200000
v 0.09400000 0.09000000 0.12600000
v 0.09800000 0.09000000 0.12200000
v 0.09800000 0.09000000 0.12600000
v 0.09400000 0.09000000 0.13000000
v 0.09400000 0.09000000 0.13400000
v 0.09800000 0.09000000 0.13000000
v 0.09400000 0.09000000 0.13800000
v 0.09400000 0.09000000 0.14200000
v 0.09400000 0.08600000 0.14600000
v 0.09400000 0.09000000 0.14600000
v 0.09800000 0.08600000 0.14600000
v 0.09800000 0.09000000 0.14600000
v 0.09400000 0.09400000 0.11400000
v 0.09400000 0.09400000 0.11800000
v 0.09800000 0.09400000 0.11400000
v 0.09800000 0.09400000 0.11800000
v 0.09400000 0.09400000 0.12200000
v 0.09800000 0.09400000 0.12200000
v 0.09400000 0.09400000 0.12600000
v 0.09400000 0.09400000 0.13000000
v 0.09800000 0.09400000 0.12600000
v 0.09400000 0.09400000 0.13400000
v 0.09400000 0.09400000 0.13800000
v 0.09400000 0.09400000 0.14200000
v 0.09400000 0.09400000 0.14600000
v 0.09400000 0.09000000 0.15000000
v 0.09400000 0.09400000 0.15000000
v 0.09800000 0.09000000 0.15000000
v 0.09400000 0.09000000 0.15400000
v 0.09400000 0.09400000 0.15400000
v 0.09800000 0.09000000 0.15400000
v 0.09800000 0.09400000 0.15000000
v 0.09800000 0.09400000 0.15400000
v 0.09400000 0.09800000 0.12200000
v 0.09400000 0.09800000 0.12600000
v 0.09800000 0.09800000 0.12200000
v 0.09400000 0.09800000 0.13000000
v 0.09400000 0.09800000 0.13400000
v 0.09400000 0.09800000 0.13800000
v 0.09400000 0.09800000 0.14200000
v 0.09400000 0.09800000 0.14600000
v 0.09400000 0.09800000 0.15000000
v 0.09800000 0.09800000 0.14600000
v 0.09800000 0.09800000 0.15000000
v 0.09400000 0.10200000 0.12200000
v 0.09400000 0.10200000 0.12600000
v 0.09800000 0.10200000 0.12200000
v 0.09800000 0.10200000 0.12600000
v 0.09400000 0.10200000 0.13000000
v 0.09800000 0.10200000 0.13000000
v 0.09400000 0.10200000 0.13400000
v 0.09800000 0.10200000 0.13400000
v 0.09400000 0.10200000 0.13800000
v 0.09800000 0.10200000 0.13800000
v 0.09400000 0.10200000 0.14200000
v 0.09800000 0.10200000 0.14200000
v 0.09400000 0.10200000 0.14600000
v 0.09800000 0.10200000 0.14600000
v 0.10200000 0.08200000 0.11800000
v 0.10200000 0.08200000 0.12200000
v 0.10200000 0.08600000 0.11800000
v 0.10200000 0.08600000 0.12200000
v 0.10200000 0.08200000 0.13000000
v 0.10200000 0.08200000 0.13400000
v 0.10200000 0.08600000 0.13000000
v 0.10200000 0.08600000 0.13400000
v 0.10200000 0.08200000 0.13800000
v 0.10200000 0.08600000 0.13800000
v 0.10200000 0.08200000 0.14200000
v 0.10200000 0.08600000 0.14200000
v 0.10200000 0.08600000 0.11400000
v 0.10200000 0.09000000 0.11400000
v 0.10200000 0.09000000 0.11800000
v 0.10200000 0.09000000 0.12200000
v 0.10200000 0.08600000 0.12600000
v 0.10200000 0.09000000 0.12600000
v 0.10200000 0.09000000 0.13000000
v 0.10200000 0.09000000 0.13400000
v 0.10200000 0.09000000 0.13800000
v 0.10200000 0.09000000 0.14200000
v 0.10200000 0.08600000 0.14600000
v 0.10200000 0.09000000 0.14600000
v 0.10200000 0.09400000 0.11400000
v 0.10200000 0.09400000 0.11800000
v 0.10200000 0.09400000 0.12200000
v 0.10200000 0.09400000 0.12600000
v 0.10200000 0.09400000 0.13000000
v 0.10200000 0.09400000 0.13400000
v 0.10200000 0.09400000 0.13800000
v 0.10200000 0.09400000 0.14200000
v 0.10200000 0.09400000 0.14600000
v 0.10200000 0.09000000 0.15000000
v 0.10200000 0.09400000 0.15000000
v 0.10200000 0.09000000 0.15400000
v 0.10200000 0.09400000 0.15400000
v 0.10200000 0.09800000 0.12200000
v 0.10200000 0.09800000 0.12600000
v 0.10200000 0.09800000 0.13000000
v 0.10200000 0.09800000 0.13400000
v 0.10200000 0.09800000 0.13800000
v 0.10200000 0.09800000 0.14200000
v 0.10200000 0.09800000 0.14600000
v 0.10200000 0.09800000 0.15000000
v 0.10200000 0.10200000 0.12200000
v 0.10200000 0.10200000 0.12600000
v 0.10200000 0.10200000 0.13000000
v 0.10200000 0.10200000 0.13400000
v 0.10200000 0.10200000 0.13800000
v 0.10200000 0.10200000 0.14200000
v 0.10200000 0.10200000 0.14600000
v 0.09800000 0.10600000 0.13000000
v 0.09800000 0.10600000 0.13400000
v 0.10200000 0.10600000 0.13000000
v 0.10200000 0.10600000 0.13400000
v 0.09800000 0.10600000 0.13800000
v 0.10200000 0.10600000 0.13800000
v 0.09800000 0.10600000 0.14200000
v 0.10200000 0.10600000 0.14200000
v 0.09800000 0.10600000 0.14600000
v 0.10200000 0.10600000 0.14600000
v 0.09800000 0.11000000 0.13400000
v 0.09800000 0.11000000 0.13800000
v 0.10200000 0.11000000 0.13400000
v 0.10200000 0.11000000 0.13800000
v 0.09800000 0.11000000 0.14200000
v 0.10200000 0.11000000 0.14200000
f 2 4 1
f 5 2 1
f 1 4 3
f 3 5 1
f 6 2 5
f 7 5 3
f 8 9 2
f 6 8 2
f 2 9 4
f 8 11 9
f 10 8 6
f 10 11 8
f 4 13 3
f 3 13 12
f 12 7 3
f 13 15 12
f 14 7 12
f 12 15 14
f 9 16 4
f 4 16 13
f 16 17 13
f 13 17 15
f 18 19 9
f 11 18 9
f 9 19 16
f 18 21 19
f 20 18 11
f 20 21 18
f 19 21 16
f 16 21 17
f 22 6 5
f 7 22 5
f 23 6 22
f 24 22 7
f 24 23 22
f 25 23 24
f 23 10 6
f 10 27 11
f 26 10 23
f 26 27 10
f 25 26 23
f 27 26 25
f 14 24 7
f 28 24 14
f 28 25 24
f 29 25 28
f 29 27 25
f 30 27 29
f 27 20 11
f 20 32 21
f 31 20 27
f 31 32 20
f 30 31 27
f 32 31 30
f 15 34 14
f 14 34 33
f 33 28 14
f 35 28 33
f 35 29 28
f 36 29 35
f 17 37 15
f 15 37 34
f 36 30 29
f 38 30 36
f 21 39 17
f 17 39 37
f 38 32 30
f 40 32 38
f 41 42 21
f 32 41 21
f 21 42 39
f 41 44 42
f 43 41 32
f 43 44 41
f 40 43 32
f 44 43 40
f 46 48 45
f 49 46 45
f 45 48 47
f 47 49 45
f 50 46 49
f 51 49 47
f 51 50 49
f 52 50 51
f 33 53 46
f 50 33 46
f 46 53 48
f 35 33 50
f 52 35 50
f 54 35 52
f 34 55 33
f 33 55 53
f 54 36 35
f 56 36 54
f 37 57 34
f 34 57 55
f 56 38 36
f 58 38 56
f 39 59 37
f 37 59 57
f 58 40 38
f 60 40 58
f 42 61 39
f 39 61 59
f 60 44 40
f 62 44 60
f 63 64 42
f 44 63 42
f 42 64 61
f 63 66 64
f 65 63 44
f 65 66 63
f 64 66 61
f 61 66 62
f 62 65 44
f 66 65 62
f 48 68 47
f 47 68 67
f 67 51 47
f 68 70 67
f 69 51 67
f 67 70 69
f 69 52 51
f 70 52 69
f 53 71 48
f 48 71 68
f 70 54 52
f 72 54 70
f 55 73 53
f 53 73 71
f 72 56 54
f 74 56 72
f 57 75 55
f 55 75 73
f 74 58 56
f 76 58 74
f 59 77 57
f 57 77 75
f 76 60 58
f 78 60 76
f 61 79 59
f 59 79 77
f 61 80 79
f 62 80 61
f 78 62 60
f 80 62 78
f 71 82 68
f 68 82 81
f 81 70 68
f 82 84 81
f 83 70 81
f 81 84 83
f 83 72 70
f 84 72 83
f 73 85 71
f 71 85 82
f 75 86 73
f 73 86 85
f 77 87 75
f 75 87 86
f 79 88 77
f 77 88 87
f 79 90 88
f 80 90 79
f 88 90 87
f 87 90 89
f 89 80 78
f 90 80 89
f 85 92 82
f 82 92 91
f 91 84 82
f 92 94 91
f 93 84 91
f 91 94 93
f 86 95 85
f 85 95 92
f 95 96 92
f 92 96 94
f 87 97 86
f 86 97 95
f 87 98 97
f 89 98 87
f 97 98 95
f 95 98 96
f 100 102 99
f 103 100 99
f 99 102 101
f 101 103 99
f 104 100 103
f 105 103 101
f 106 107 100
f 104 106 100
f 100 107 102
f 108 106 104
f 109 110 106
f 108 109 106
f 106 110 107
f 109 112 110
f 111 109 108
f 111 112 109
f 102 114 101
f 101 114 113
f 113 105 101
f 114 116 113
f 115 105 113
f 113 116 115
f 107 117 102
f 102 117 114
f 117 118 114
f 114 118 116
f 110 119 107
f 107 119 117
f 119 120 117
f 117 120 118
f 121 122 110
f 112 121 110
f 110 122 119
f 121 124 122
f 123 121 112
f 123 124 121
f 122 124 119
f 119 124 120
f 125 74 72
f 84 125 72
f 126 74 125
f 127 125 84
f 127 126 125
f 128 126 127
f 126 76 74
f 129 76 126
f 128 129 126
f 130 129 128
f 129 78 76
f 78 132 89
f 131 78 129
f 131 132 78
f 130 131 129
f 132 131 130
f 93 127 84
f 94 134 93
f 133 127 93
f 93 134 133
f 133 128 127
f 134 128 133
f 96 135 94
f 94 135 134
f 134 130 128
f 135 130 134
f 89 136 98
f 132 136 89
f 98 136 96
f 96 136 135
f 135 132 130
f 136 132 135
f 138 108 137
f 139 138 137
f 137 108 104
f 104 139 137
f 138 142 108
f 140 138 139
f 140 142 138
f 141 139 104
f 141 140 139
f 142 140 141
f 143 104 103
f 105 143 103
f 141 104 143
f 144 143 105
f 144 141 143
f 145 141 144
f 145 142 141
f 146 142 145
f 142 111 108
f 111 148 112
f 147 111 142
f 147 148 111
f 146 147 142
f 148 147 146
f 115 144 105
f 149 144 115
f 149 145 144
f 150 145 149
f 150 146 145
f 151 146 150
f 151 148 146
f 152 148 151
f 148 123 112
f 153 123 148
f 152 153 148
f 154 153 152
f 155 156 123
f 153 155 123
f 123 156 124
f 155 158 156
f 157 155 153
f 157 158 155
f 154 157 153
f 158 157 154
f 115 161 159
f 162 115 159
f 159 161 160
f 160 162 159
f 149 115 162
f 163 162 160
f 163 149 162
f 164 149 163
f 116 165 115
f 115 165 161
f 164 150 149
f 166 150 164
f 118 167 116
f 116 167 165
f 167 168 165
f 165 168 166
f 166 151 150
f 168 151 166
f 120 169 118
f 118 169 167
f 168 152 151
f 170 152 168
f 124 171 120
f 120 171 169
f 170 154 152
f 172 154 170
f 156 173 124
f 124 173 171
f 172 158 154
f 174 158 172
f 175 176 156
f 158 175 156
f 156 176 173
f 175 178 176
f 177 175 158
f 177 178 175
f 174 177 158
f 178 177 174
f 160 181 179
f 182 160 179
f 179 181 180
f 180 182 179
f 163 160 182
f 181 184 180
f 183 182 180
f 180 184 183
f 183 163 182
f 184 163 183
f 161 185 160
f 160 185 181
f 184 164 163
f 186 164 184
f 165 187 161
f 161 187 185
f 165 188 187
f 166 188 165
f 187 188 185
f 185 188 186
f 186 166 164
f 188 166 186
f 169 190 167
f 167 190 189
f 189 168 167
f 191 168 189
f 191 170 168
f 192 170 191
f 171 193 169
f 169 193 190
f 192 172 170
f 194 172 192
f 173 195 171
f 171 195 193
f 194 174 172
f 196 174 194
f 176 197 173
f 173 197 195
f 176 198 197
f 178 198 176
f 196 178 174
f 198 178 196
f 185 200 181
f 181 200 199
f 199 184 181
f 185 202 200
f 186 202 185
f 200 202 199
f 201 184 199
f 199 202 201
f 201 186 184
f 202 186 201
f 189 204 187
f 188 189 187
f 187 204 203
f 203 188 187
f 191 189 188
f 205 188 203
f 205 191 188
f 206 191 205
f 190 207 189
f 189 207 204
f 206 192 191
f 208 192 206
f 193 209 190
f 190 209 207
f 208 194 192
f 210 194 208
f 195 211 193
f 193 211 209
f 210 196 194
f 212 196 210
f 197 213 195
f 195 213 211
f 212 198 196
f 214 198 212
f 215 216 197
f 198 215 197
f 197 216 213
f 215 218 216
f 217 215 198
f 217 218 215
f 216 218 213
f 213 218 214
f 214 217 198
f 218 217 214
f 220 222 219
f 223 220 219
f 219 222 221
f 221 223 219
f 220 226 222
f 224 220 223
f 224 226 220
f 225 223 221
f 225 224 223
f 226 224 225
f 203 228 200
f 202 203 200
f 200 228 227
f 227 202 200
f 205 203 202
f 228 230 227
f 229 202 227
f 227 230 229
f 204 231 203
f 203 231 228
f 231 232 228
f 228 232 230
f 207 233 204
f 204 233 231
f 233 234 231
f 231 234 232
f 232 208 206
f 234 208 232
f 209 235 207
f 207 235 233
f 211 236 209
f 209 236 235
f 213 237 211
f 211 237 236
f 213 238 237
f 214 238 213
f 221 240 216
f 218 221 216
f 216 240 239
f 239 218 216
f 225 221 218
f 241 218 239
f 222 242 221
f 221 242 240
f 222 243 242
f 226 243 222
f 235 245 233
f 233 245 244
f 244 234 233
f 246 234 244
f 236 247 235
f 235 247 245
f 237 248 236
f 236 248 247
f 250 238 249
f 251 238 250
f 239 252 237
f 238 239 237
f 237 252 248
f 241 239 238
f 240 253 239
f 239 253 252
f 242 254 240
f 240 254 253
f 242 256 254
f 243 256 242
f 254 256 253
f 253 256 255
f 245 258 244
f 244 258 257
f 257 246 244
f 258 260 257
f 259 246 257
f 257 260 259
f 247 261 245
f 245 261 258
f 261 262 258
f 258 262 260
f 248 263 247
f 247 263 261
f 252 264 248
f 248 264 263
f 253 265 252
f 252 265 264
f 253 266 265
f 255 266 253
f 268 270 267
f 271 268 267
f 267 270 269
f 269 271 267
f 272 268 271
f 273 271 269
f 274 275 268
f 272 274 268
f 268 275 270
f 274 277 275
f 276 274 272
f 276 277 274
f 263 279 261
f 261 279 278
f 278 262 261
f 279 281 278
f 280 262 278
f 278 281 280
f 264 282 263
f 263 282 279
f 282 283 279
f 279 283 281
f 265 284 264
f 264 284 282
f 265 285 284
f 266 285 265
f 284 285 282
f 282 285 283
f 270 287 269
f 269 287 286
f 286 273 269
f 287 289 286
f 288 273 286
f 286 289 288
f 275 290 270
f 270 290 287
f 275 291 290
f 277 291 275
f 290 291 287
f 287 291 289
f 293 295 292
f 296 293 292
f 292 295 294
f 294 296 292
f 293 299 295
f 297 293 296
f 297 299 293
f 295 299 294
f 298 296 294
f 294 299 298
f 300 205 202
f 229 300 202
f 301 205 300
f 230 303 229
f 302 300 229
f 229 303 302
f 302 301 300
f 303 301 302
f 301 206 205
f 206 305 232
f 304 206 301
f 304 305 206
f 232 305 230
f 230 305 303
f 303 304 301
f 305 304 303
f 306 210 208
f 234 306 208
f 307 210 306
f 308 306 234
f 308 307 306
f 309 307 308
f 307 212 210
f 310 212 307
f 309 310 307
f 311 310 309
f 310 214 212
f 214 313 238
f 312 214 310
f 312 313 214
f 238 313 249
f 249 313 311
f 311 312 310
f 313 312 311
f 314 225 218
f 241 314 218
f 315 225 314
f 316 314 241
f 316 315 314
f 317 315 316
f 315 226 225
f 226 319 243
f 318 226 315
f 318 319 226
f 317 318 315
f 319 318 317
f 246 308 234
f 320 308 246
f 320 309 308
f 321 309 320
f 249 322 250
f 311 322 249
f 321 311 309
f 322 311 321
f 313 241 238
f 251 313 238
f 316 241 313
f 323 313 251
f 323 316 313
f 324 316 323
f 324 317 316
f 325 317 324
f 243 326 256
f 319 326 243
f 256 326 255
f 255 326 325
f 325 319 317
f 326 319 325
f 328 276 327
f 329 328 327
f 327 276 272
f 272 329 327
f 328 332 276
f 330 328 329
f 330 332 328
f 331 329 272
f 331 330 329
f 332 330 331
f 259 320 246
f 260 334 259
f 333 320 259
f 259 334 333
f 333 321 320
f 334 321 333
f 262 335 260
f 260 335 334
f 334 322 321
f 335 322 334
f 322 251 250
f 323 251 322
f 335 323 322
f 336 323 335
f 336 324 323
f 337 324 336
f 255 338 266
f 325 338 255
f 337 325 324
f 338 325 337
f 339 272 271
f 273 339 271
f 331 272 339
f 340 339 273
f 340 331 339
f 341 331 340
f 276 342 277
f 332 342 276
f 341 332 331
f 342 332 341
f 280 335 262
f 281 344 280
f 343 335 280
f 280 344 343
f 343 336 335
f 344 336 343
f 344 337 336
f 345 337 344
f 266 346 285
f 338 346 266
f 345 338 337
f 346 338 345
f 273 288 347
f 349 273 347
f 347 288 348
f 348 349 347
f 340 273 349
f 350 349 348
f 350 340 349
f 351 340 350
f 351 341 340
f 352 341 351
f 277 353 291
f 342 353 277
f 291 353 289
f 289 353 352
f 352 342 341
f 353 342 352
f 354 297 296
f 298 354 296
f 297 357 299
f 355 297 354
f 355 357 297
f 356 354 298
f 356 355 354
f 357 355 356
f 283 359 281
f 281 359 358
f 358 344 281
f 359 361 358
f 360 344 358
f 358 361 360
f 360 345 344
f 361 345 360
f 285 362 283
f 283 362 359
f 361 346 345
f 363 346 361
f 348 364 285
f 346 348 285
f 285 364 362
f 350 348 346
f 363 350 346
f 365 350 363
f 288 366 348
f 348 366 364
f 365 351 350
f 367 351 365
f 289 368 288
f 288 368 366
f 289 369 368
f 352 369 289
f 367 352 351
f 369 352 367
f 298 371 291
f 353 298 291
f 291 371 370
f 370 353 291
f 356 298 353
f 372 353 370
f 372 356 353
f 373 356 372
f 299 374 298
f 298 374 371
f 373 357 356
f 375 357 373
f 376 377 299
f 357 376 299
f 299 377 374
f 378 376 357
f 375 378 357
f 379 378 375
f 380 381 376
f 378 380 376
f 376 381 377
f 380 383 381
f 382 380 378
f 382 383 380
f 379 382 378
f 383 382 379
f 362 385 359
f 359 385 384
f 384 361 359
f 385 387 384
f 386 361 384
f 384 387 386
f 386 363 361
f 387 363 386
f 364 388 362
f 362 388 385
f 387 365 363
f 389 365 387
f 366 390 364
f 364 390 388
f 389 367 365
f 391 367 389
f 368 392 366
f 366 392 390
f 391 369 367
f 393 369 391
f 370 394 368
f 369 370 368
f 368 394 392
f 372 370 369
f 393 372 369
f 395 372 393
f 371 396 370
f 370 396 394
f 395 373 372
f 397 373 395
f 374 398 371
f 371 398 396
f 397 375 373
f 399 375 397
f 377 400 374
f 374 400 398
f 399 379 375
f 401 379 399
f 381 402 377
f 377 402 400
f 401 383 379
f 403 383 401
f 404 405 381
f 383 404 381
f 381 405 402
f 404 407 405
f 406 404 383
f 406 407 404
f 403 406 383
f 407 406 403
f 388 409 385
f 385 409 408
f 408 387 385
f 409 411 408
f 410 387 408
f 408 411 410
f 410 389 387
f 411 389 410
f 390 412 388
f 388 412 409
f 412 413 409
f 409 413 411
f 411 391 389
f 413 391 411
f 392 414 390
f 390 414 412
f 413 393 391
f 415 393 413
f 394 416 392
f 392 416 414
f 415 395 393
f 417 395 415
f 396 418 394
f 394 418 416
f 417 397 395
f 419 397 417
f 398 420 396
f 396 420 418
f 419 399 397
f 421 399 419
f 400 422 398
f 398 422 420
f 421 401 399
f 423 401 421
f 402 424 400
f 400 424 422
f 423 403 401
f 425 403 423
f 405 426 402
f 402 426 424
f 425 407 403
f 427 407 425
f 428 429 405
f 407 428 405
f 405 429 426
f 428 431 429
f 430 428 407
f 430 431 428
f 429 431 426
f 426 431 427
f 427 430 407
f 431 430 427
f 414 433 412
f 412 433 432
f 432 413 412
f 433 435 432
f 434 413 432
f 432 435 434
f 434 415 413
f 435 415 434
f 416 436 414
f 414 436 433
f 418 437 416
f 416 437 436
f 420 438 418
f 418 438 437
f 422 439 420
f 420 439 438
f 424 440 422
f 422 440 439
f 426 441 424
f 424 441 440
f 426 443 441
f 427 443 426
f 441 443 440
f 440 443 442
f 442 427 425
f 443 427 442
f 444 446 429
f 431 444 429
f 429 446 445
f 445 431 429
f 447 444 431
f 448 431 445
f 449 450 444
f 447 449 444
f 444 450 446
f 449 452 450
f 451 449 447
f 451 452 449
f 436 454 433
f 433 454 453
f 453 435 433
f 454 456 453
f 455 435 453
f 453 456 455
f 437 457 436
f 436 457 454
f 457 458 454
f 454 458 456
f 438 459 437
f 437 459 457
f 439 460 438
f 438 460 459
f 440 461 439
f 439 461 460
f 440 462 461
f 442 462 440
f 445 464 441
f 443 445 441
f 441 464 463
f 463 443 441
f 448 445 443
f 465 443 463
f 446 466 445
f 445 466 464
f 450 467 446
f 446 467 466
f 450 469 467
f 452 469 450
f 467 469 466
f 466 469 468
f 459 471 457
f 457 471 470
f 470 458 457
f 471 473 470
f 472 458 470
f 470 473 472
f 460 474 459
f 459 474 471
f 461 475 460
f 460 475 474
f 475 477 474
f 474 477 476
f 463 478 461
f 462 463 461
f 461 478 475
f 465 463 462
f 464 479 463
f 463 479 478
f 466 480 464
f 464 480 479
f 466 481 480
f 468 481 466
f 483 485 482
f 486 483 482
f 482 485 484
f 484 486 482
f 487 483 486
f 488 486 484
f 489 490 483
f 487 489 483
f 483 490 485
f 489 492 490
f 491 489 487
f 491 492 489
f 474 494 471
f 471 494 493
f 493 473 471
f 474 496 494
f 476 496 474
f 494 496 493
f 495 473 493
f 493 496 495
f 478 498 475
f 475 498 497
f 497 477 475
f 499 477 497
f 479 500 478
f 478 500 498
f 480 501 479
f 479 501 500
f 502 503 480
f 481 502 480
f 480 503 501
f 504 502 481
f 484 505 502
f 504 484 502
f 502 505 503
f 488 484 504
f 485 506 484
f 484 506 505
f 490 507 485
f 485 507 506
f 490 509 507
f 492 509 490
f 507 509 506
f 506 509 508
f 497 511 494
f 496 497 494
f 494 511 510
f 510 496 494
f 499 497 496
f 511 513 510
f 512 496 510
f 510 513 512
f 498 514 497
f 497 514 511
f 514 515 511
f 511 515 513
f 500 516 498
f 498 516 514
f 516 517 514
f 514 517 515
f 501 518 500
f 500 518 516
f 518 519 516
f 516 519 517
f 503 520 501
f 501 520 518
f 520 521 518
f 518 521 519
f 505 522 503
f 503 522 520
f 522 523 520
f 520 523 521
f 506 524 505
f 505 524 522
f 506 525 524
f 508 525 506
f 524 525 522
f 522 525 523
f 526 528 507
f 509 526 507
f 507 528 527
f 527 509 507
f 529 526 509
f 528 531 527
f 530 509 527
f 527 531 530
f 532 533 526
f 529 532 526
f 526 533 528
f 532 535 533
f 534 532 529
f 534 535 532
f 533 535 528
f 528 535 531
f 536 417 415
f 435 536 415
f 537 417 536
f 538 536 435
f 538 537 536
f 539 537 538
f 537 419 417
f 540 419 537
f 539 540 537
f 541 540 539
f 540 421 419
f 542 421 540
f 541 542 540
f 543 542 541
f 542 423 421
f 544 423 542
f 543 544 542
f 545 544 543
f 544 425 423
f 425 547 442
f 546 425 544
f 546 547 425
f 545 546 544
f 547 546 545
f 548 447 431
f 448 548 431
f 549 447 548
f 550 548 448
f 550 549 548
f 551 549 550
f 549 451 447
f 451 553 452
f 552 451 549
f 552 553 451
f 551 552 549
f 553 552 551
f 455 538 435
f 456 555 455
f 554 538 455
f 455 555 554
f 554 539 538
f 555 539 554
f 458 556 456
f 456 556 555
f 555 541 539
f 556 541 555
f 556 543 541
f 557 543 556
f 557 545 543
f 558 545 557
f 442 559 462
f 547 559 442
f 558 547 545
f 559 547 558
f 560 448 443
f 465 560 443
f 550 448 560
f 561 560 465
f 561 550 560
f 562 550 561
f 562 551 550
f 563 551 562
f 452 564 469
f 553 564 452
f 469 564 468
f 468 564 563
f 563 553 551
f 564 553 563
f 472 556 458
f 473 566 472
f 565 556 472
f 472 566 565
f 565 557 556
f 566 557 565
f 566 558 557
f 567 558 566
f 477 568 476
f 476 568 567
f 567 559 558
f 568 559 567
f 559 465 462
f 561 465 559
f 568 561 559
f 569 561 568
f 569 562 561
f 570 562 569
f 468 571 481
f 563 571 468
f 570 563 562
f 571 563 570
f 572 487 486
f 488 572 486
f 573 487 572
f 574 572 488
f 574 573 572
f 575 573 574
f 573 491 487
f 491 577 492
f 576 491 573
f 576 577 491
f 575 576 573
f 577 576 575
f 495 566 473
f 476 579 496
f 567 579 476
f 496 579 495
f 578 566 495
f 495 579 578
f 578 567 566
f 579 567 578
f 499 568 477
f 580 568 499
f 580 569 568
f 581 569 580
f 581 570 569
f 582 570 581
f 582 571 570
f 583 571 582
f 571 504 481
f 584 504 571
f 583 584 571
f 585 584 583
f 584 488 504
f 574 488 584
f 585 574 584
f 586 574 585
f 586 575 574
f 587 575 586
f 492 588 509
f 577 588 492
f 509 588 508
f 508 588 587
f 587 577 575
f 588 577 587
f 579 499 496
f 512 579 496
f 580 499 579
f 513 590 512
f 589 579 512
f 512 590 589
f 589 580 579
f 590 580 589
f 515 591 513
f 513 591 590
f 590 581 580
f 591 581 590
f 517 592 515
f 515 592 591
f 591 582 581
f 592 582 591
f 519 593 517
f 517 593 592
f 592 583 582
f 593 583 592
f 593 585 583
f 594 585 593
f 594 586 585
f 595 586 594
f 508 596 525
f 587 596 508
f 525 596 523
f 523 596 595
f 595 587 586
f 596 587 595
f 588 529 509
f 530 588 509
f 597 529 588
f 598 588 530
f 598 597 588
f 599 597 598
f 597 534 529
f 534 601 535
f 600 534 597
f 600 601 534
f 599 600 597
f 601 600 599
f 521 603 519
f 519 603 602
f 602 593 519
f 604 593 602
f 604 594 593
f 605 594 604
f 523 606 521
f 521 606 603
f 523 607 606
f 595 607 523
f 605 595 594
f 607 595 605
f 530 609 525
f 596 530 525
f 525 609 608
f 608 596 525
f 598 530 596
f 610 596 608
f 610 598 596
f 611 598 610
f 531 612 530
f 530 612 609
f 611 599 598
f 613 599 611
f 535 614 531
f 531 614 612
f 613 601 599
f 615 601 613
f 616 617 535
f 601 616 535
f 535 617 614
f 618 616 601
f 615 618 601
f 619 618 615
f 620 621 616
f 618 620 616
f 616 621 617
f 620 623 621
f 622 620 618
f 622 623 620
f 619 622 618
f 623 622 619
f 602 626 624
f 627 602 624
f 624 626 625
f 625 627 624
f 604 602 627
f 626 629 625
f 628 627 625
f 625 629 628
f 628 604 627
f 629 604 628
f 603 630 602
f 602 630 626
f 630 631 626
f 626 631 629
f 629 605 604
f 631 605 629
f 606 632 603
f 603 632 630
f 632 633 630
f 630 633 631
f 631 607 605
f 633 607 631
f 608 634 606
f 607 608 606
f 606 634 632
f 610 608 607
f 633 610 607
f 635 610 633
f 609 636 608
f 608 636 634
f 635 611 610
f 637 611 635
f 612 638 609
f 609 638 636
f 637 613 611
f 639 613 637
f 614 640 612
f 612 640 638
f 639 615 613
f 641 615 639
f 617 642 614
f 614 642 640
f 641 619 615
f 643 619 641
f 621 644 617
f 617 644 642
f 643 623 619
f 645 623 643
f 646 647 621
f 623 646 621
f 621 647 644
f 646 649 647
f 648 646 623
f 648 649 646
f 645 648 623
f 649 648 645
f 634 651 632
f 632 651 650
f 650 633 632
f 652 633 650
f 652 635 633
f 653 635 652
f 636 654 634
f 634 654 651
f 653 637 635
f 655 637 653
f 638 656 636
f 636 656 654
f 655 639 637
f 657 639 655
f 640 658 638
f 638 658 656
f 657 641 639
f 659 641 657
f 642 660 640
f 640 660 658
f 659 643 641
f 661 643 659
f 644 662 642
f 642 662 660
f 662 663 660
f 660 663 661
f 661 645 643
f 663 645 661
f 647 664 644
f 644 664 662
f 647 665 664
f 649 665 647
f 664 665 662
f 662 665 663
f 663 649 645
f 665 649 663
f 667 669 666
f 670 667 666
f 666 669 668
f 668 670 666
f 667 673 669
f 671 667 670
f 671 673 667
f 672 670 668
f 672 671 670
f 673 671 672
f 651 675 650
f 650 675 674
f 674 652 650
f 675 677 674
f 676 652 674
f 674 677 676
f 676 653 652
f 677 653 676
f 654 678 651
f 651 678 675
f 656 679 654
f 654 679 678
f 658 680 656
f 656 680 679
f 660 681 658
f 658 681 680
f 660 682 681
f 661 682 660
f 668 684 664
f 665 668 664
f 664 684 683
f 683 665 664
f 672 668 665
f 684 686 683
f 685 665 683
f 683 686 685
f 669 687 668
f 668 687 684
f 688 689 669
f 673 688 669
f 669 689 687
f 688 691 689
f 690 688 673
f 690 691 688
f 678 693 675
f 675 693 692
f 692 677 675
f 693 695 692
f 694 677 692
f 692 695 694
f 679 696 678
f 678 696 693
f 696 697 693
f 693 697 695
f 680 698 679
f 679 698 696
f 681 699 680
f 680 699 698
f 681 700 699
f 682 700 681
f 687 702 684
f 684 702 701
f 701 686 684
f 703 686 701
f 689 704 687
f 687 704 702
f 705 706 689
f 691 705 689
f 689 706 704
f 705 708 706
f 707 705 691
f 707 708 705
f 698 710 696
f 696 710 709
f 709 697 696
f 710 712 709
f 711 697 709
f 709 712 711
f 699 713 698
f 698 713 710
f 699 714 713
f 700 714 699
f 713 714 710
f 710 714 712
f 702 716 701
f 701 716 715
f 715 703 701
f 717 703 715
f 704 718 702
f 702 718 716
f 706 719 704
f 704 719 718
f 720 721 706
f 708 720 706
f 706 721 719
f 720 723 721
f 722 720 708
f 722 723 720
f 715 726 724
f 727 715 724
f 724 726 725
f 725 727 724
f 717 715 727
f 726 729 725
f 728 727 725
f 725 729 728
f 716 730 715
f 715 730 726
f 718 731 716
f 716 731 730
f 731 733 730
f 730 733 732
f 719 734 718
f 718 734 731
f 734 735 731
f 731 735 733
f 721 736 719
f 719 736 734
f 721 737 736
f 723 737 721
f 736 737 734
f 734 737 735
f 739 741 738
f 742 739 738
f 738 741 740
f 740 742 738
f 739 745 741
f 743 739 742
f 743 745 739
f 744 742 740
f 730 747 726
f 726 747 746
f 746 729 726
f 730 749 747
f 732 749 730
f 747 749 746
f 748 729 746
f 746 749 748
f 741 751 740
f 740 751 750
f 750 744 740
f 741 753 751
f 745 753 741
f 751 753 750
f 752 744 750
f 750 753 752
f 754 655 653
f 677 754 653
f 755 655 754
f 756 754 677
f 756 755 754
f 757 755 756
f 755 657 655
f 758 657 755
f 757 758 755
f 759 758 757
f 758 659 657
f 760 659 758
f 759 760 758
f 761 760 759
f 760 661 659
f 661 763 682
f 762 661 760
f 762 763 661
f 761 762 760
f 763 762 761
f 764 672 665
f 685 764 665
f 765 672 764
f 686 767 685
f 766 764 685
f 685 767 766
f 766 765 764
f 767 765 766
f 765 673 672
f 768 673 765
f 767 768 765
f 769 768 767
f 768 690 673
f 690 771 691
f 770 690 768
f 770 771 690
f 769 770 768
f 771 770 769
f 694 756 677
f 695 773 694
f 772 756 694
f 694 773 772
f 772 757 756
f 773 757 772
f 697 774 695
f 695 774 773
f 773 759 757
f 774 759 773
f 774 761 759
f 775 761 774
f 682 776 700
f 763 776 682
f 775 763 761
f 776 763 775
f 703 767 686
f 777 767 703
f 777 769 767
f 778 769 777
f 778 771 769
f 779 771 778
f 771 707 691
f 707 781 708
f 780 707 771
f 780 781 707
f 779 780 771
f 781 780 779
f 711 774 697
f 712 783 711
f 782 774 711
f 711 783 782
f 782 775 774
f 783 775 782
f 700 784 714
f 776 784 700
f 714 784 712
f 712 784 783
f 783 776 775
f 784 776 783
f 717 777 703
f 785 777 717
f 785 778 777
f 786 778 785
f 786 779 778
f 787 779 786
f 787 781 779
f 788 781 787
f 781 722 708
f 722 790 723
f 789 722 781
f 789 790 722
f 788 789 781
f 790 789 788
f 791 717 727
f 728 791 727
f 785 717 791
f 792 791 728
f 792 785 791
f 793 785 792
f 793 786 785
f 794 786 793
f 733 795 732
f 732 795 794
f 794 787 786
f 795 787 794
f 735 796 733
f 733 796 795
f 795 788 787
f 796 788 795
f 723 797 737
f 790 797 723
f 737 797 735
f 735 797 796
f 796 790 788
f 797 790 796
f 798 743 742
f 744 798 742
f 743 801 745
f 799 743 798
f 799 801 743
f 800 798 744
f 800 799 798
f 801 799 800
f 728 804 802
f 805 728 802
f 802 804 803
f 803 805 802
f 792 728 805
f 804 807 803
f 806 805 803
f 803 807 806
f 806 792 805
f 807 792 806
f 729 748 728
f 728 748 804
f 807 793 792
f 808 793 807
f 732 809 749
f 794 809 732
f 808 794 793
f 809 794 808
f 744 752 737
f 797 744 737
f 737 752 810
f 810 797 737
f 800 744 797
f 811 797 810
f 811 800 797
f 812 800 811
f 812 801 800
f 813 801 812
f 814 815 745
f 801 814 745
f 745 815 753
f 816 814 801
f 813 816 801
f 817 816 813
f 818 819 814
f 816 818 814
f 814 819 815
f 818 821 819
f 820 818 816
f 820 821 818
f 817 820 816
f 821 820 817
f 748 823 804
f 804 823 822
f 822 807 804
f 823 825 822
f 824 807 822
f 822 825 824
f 824 808 807
f 825 808 824
f 749 826 748
f 748 826 823
f 749 827 826
f 809 827 749
f 826 827 823
f 823 827 825
f 825 809 808
f 827 809 825
f 810 830 828
f 831 810 828
f 828 830 829
f 829 831 828
f 811 810 831
f 832 831 829
f 832 811 831
f 833 811 832
f 752 834 810
f 810 834 830
f 833 812 811
f 835 812 833
f 753 836 752
f 752 836 834
f 835 813 812
f 837 813 835
f 815 838 753
f 753 838 836
f 837 817 813
f 839 817 837
f 819 840 815
f 815 840 838
f 839 821 817
f 841 821 839
f 842 843 819
f 821 842 819
f 819 843 840
f 842 845 843
f 844 842 821
f 844 845 842
f 841 844 821
f 845 844 841
f 830 847 829
f 829 847 846
f 846 832 829
f 848 832 846
f 848 833 832
f 849 833 848
f 834 850 830
f 830 850 847
f 849 835 833
f 851 835 849
f 836 852 834
f 834 852 850
f 851 837 835
f 853 837 851
f 838 854 836
f 836 854 852
f 853 839 837
f 855 839 853
f 840 856 838
f 838 856 854
f 855 841 839
f 857 841 855
f 843 858 840
f 840 858 856
f 857 845 841
f 859 845 857
f 860 861 843
f 845 860 843
f 843 861 858
f 860 863 861
f 862 860 845
f 862 863 860
f 861 863 858
f 858 863 859
f 859 862 845
f 863 862 859
f 846 866 864
f 867 846 864
f 864 866 865
f 865 867 864
f 848 846 867
f 866 869 865
f 868 867 865
f 865 869 868
f 868 848 867
f 869 848 868
f 847 870 846
f 846 870 866
f 869 849 848
f 871 849 869
f 850 872 847
f 847 872 870
f 871 851 849
f 873 851 871
f 852 874 850
f 850 874 872
f 873 853 851
f 875 853 873
f 854 876 852
f 852 876 874
f 875 855 853
f 877 855 875
f 856 878 854
f 854 878 876
f 878 879 876
f 876 879 877
f 877 857 855
f 879 857 877
f 858 880 856
f 856 880 878
f 858 881 880
f 859 881 858
f 880 881 878
f 878 881 879
f 879 859 857
f 881 859 879
f 882 884 861
f 863 882 861
f 861 884 883
f 883 863 861
f 885 882 863
f 886 863 883
f 886 885 863
f 887 885 886
f 888 889 882
f 885 888 882
f 882 889 884
f 888 891 889
f 890 888 885
f 890 891 888
f 887 890 885
f 891 890 887
f 870 893 866
f 866 893 892
f 892 869 866
f 893 895 892
f 894 869 892
f 892 895 894
f 872 896 870
f 870 896 893
f 874 897 872
f 872 897 896
f 876 898 874
f 874 898 897
f 876 899 898
f 877 899 876
f 883 901 880
f 881 883 880
f 880 901 900
f 900 881 880
f 886 883 881
f 902 881 900
f 884 903 883
f 883 903 901
f 889 904 884
f 884 904 903
f 905 906 889
f 891 905 889
f 889 906 904
f 905 908 906
f 907 905 891
f 907 908 905
f 896 910 893
f 893 910 909
f 909 895 893
f 910 912 909
f 911 895 909
f 909 912 911
f 897 913 896
f 896 913 910
f 913 914 910
f 910 914 912
f 898 915 897
f 897 915 913
f 916 917 898
f 899 916 898
f 898 917 915
f 916 920 917
f 918 916 899
f 918 920 916
f 917 920 915
f 915 920 919
f 901 922 900
f 900 922 921
f 921 902 900
f 923 902 921
f 903 924 901
f 901 924 922
f 904 925 903
f 903 925 924
f 906 926 904
f 904 926 925
f 927 928 906
f 908 927 906
f 906 928 926
f 929 927 908
f 930 931 927
f 929 930 927
f 927 931 928
f 930 933 931
f 932 930 929
f 932 933 930
f 915 935 913
f 913 935 934
f 934 914 913
f 915 937 935
f 919 937 915
f 935 937 934
f 936 914 934
f 934 937 936
f 921 939 917
f 920 921 917
f 917 939 938
f 938 920 917
f 923 921 920
f 940 920 938
f 922 941 921
f 921 941 939
f 924 942 922
f 922 942 941
f 925 943 924
f 924 943 942
f 926 944 925
f 925 944 943
f 928 945 926
f 926 945 944
f 931 946 928
f 928 946 945
f 931 948 946
f 933 948 931
f 946 948 945
f 945 948 947
f 938 950 935
f 937 938 935
f 935 950 949
f 949 937 935
f 940 938 937
f 950 952 949
f 951 937 949
f 949 952 951
f 939 953 938
f 938 953 950
f 953 954 950
f 950 954 952
f 941 955 939
f 939 955 953
f 955 956 953
f 953 956 954
f 942 957 941
f 941 957 955
f 957 958 955
f 955 958 956
f 943 959 942
f 942 959 957
f 959 960 957
f 957 960 958
f 944 961 943
f 943 961 959
f 961 962 959
f 959 962 960
f 945 963 944
f 944 963 961
f 945 964 963
f 947 964 945
f 963 964 961
f 961 964 962
f 965 967 946
f 948 965 946
f 946 967 966
f 966 948 946
f 968 965 948
f 967 970 966
f 969 948 966
f 966 970 969
f 971 972 965
f 968 971 965
f 965 972 967
f 971 974 972
f 973 971 968
f 973 974 971
f 972 974 967
f 967 974 970
f 975 871 869
f 894 975 869
f 976 871 975
f 895 978 894
f 977 975 894
f 894 978 977
f 977 976 975
f 978 976 977
f 976 873 871
f 979 873 976
f 978 979 976
f 980 979 978
f 979 875 873
f 981 875 979
f 980 981 979
f 982 981 980
f 981 877 875
f 877 984 899
f 983 877 981
f 983 984 877
f 982 983 981
f 984 983 982
f 985 886 881
f 902 985 881
f 986 886 985
f 987 985 902
f 987 986 985
f 988 986 987
f 986 887 886
f 989 887 986
f 988 989 986
f 990 989 988
f 989 891 887
f 991 891 989
f 990 991 989
f 992 991 990
f 991 907 891
f 907 994 908
f 993 907 991
f 993 994 907
f 992 993 991
f 994 993 992
f 911 978 895
f 912 996 911
f 995 978 911
f 911 996 995
f 995 980 978
f 996 980 995
f 914 997 912
f 912 997 996
f 996 982 980
f 997 982 996
f 997 984 982
f 998 984 997
f 984 918 899
f 918 1000 920
f 999 918 984
f 999 1000 918
f 920 1000 919
f 919 1000 998
f 998 999 984
f 1000 999 998
f 923 987 902
f 1001 987 923
f 1001 988 987
f 1002 988 1001
f 1002 990 988
f 1003 990 1002
f 1003 992 990
f 1004 992 1003
f 1004 994 992
f 1005 994 1004
f 994 929 908
f 1006 929 994
f 1005 1006 994
f 1007 1006 1005
f 1006 932 929
f 932 1009 933
f 1008 932 1006
f 1008 1009 932
f 1007 1008 1006
f 1009 1008 1007
f 936 997 914
f 919 1011 937
f 998 1011 919
f 937 1011 936
f 1010 997 936
f 936 1011 1010
f 1010 998 997
f 1011 998 1010
f 1000 923 920
f 940 1000 920
f 1001 923 1000
f 1012 1000 940
f 1012 1001 1000
f 1013 1001 1012
f 1013 1002 1001
f 1014 1002 1013
f 1014 1003 1002
f 1015 1003 1014
f 1015 1004 1003
f 1016 1004 1015
f 1016 1005 1004
f 1017 1005 1016
f 1017 1007 1005
f 1018 1007 1017
f 933 1019 948
f 1009 1019 933
f 948 1019 947
f 947 1019 1018
f 1018 1009 1007
f 1019 1009 1018
f 1011 940 937
f 951 1011 937
f 1012 940 1011
f 952 1021 951
f 1020 1011 951
f 951 1021 1020
f 1020 1012 1011
f 1021 1012 1020
f 1021 1013 1012
f 1022 1013 1021
f 1022 1014 1013
f 1023 1014 1022
f 1023 1015 1014
f 1024 1015 1023
f 1024 1016 1015
f 1025 1016 1024
f 1025 1017 1016
f 1026 1017 1025
f 947 1027 964
f 1018 1027 947
f 964 1027 962
f 962 1027 1026
f 1026 1018 1017
f 1027 1018 1026
f 1019 968 948
f 969 1019 948
f 1028 968 1019
f 1029 1019 969
f 1029 1028 1019
f 1030 1028 1029
f 1028 973 968
f 973 1032 974
f 1031 973 1028
f 1031 1032 973
f 1030 1031 1028
f 1032 1031 1030
f 954 1034 952
f 952 1034 1033
f 1033 1021 952
f 1034 1036 1033
f 1035 1021 1033
f 1033 1036 1035
f 1035 1022 1021
f 1036 1022 1035
f 956 1037 954
f 954 1037 1034
f 1037 1038 1034
f 1034 1038 1036
f 1036 1023 1022
f 1038 1023 1036
f 958 1039 956
f 956 1039 1037
f 1038 1024 1023
f 1040 1024 1038
f 960 1041 958
f 958 1041 1039
f 1040 1025 1024
f 1042 1025 1040
f 962 1043 960
f 960 1043 1041
f 962 1044 1043
f 1026 1044 962
f 1042 1026 1025
f 1044 1026 1042
f 969 1046 964
f 1027 969 964
f 964 1046 1045
f 1045 1027 964
f 1029 969 1027
f 1047 1027 1045
f 1047 1029 1027
f 1048 1029 1047
f 970 1049 969
f 969 1049 1046
f 1048 1030 1029
f 1050 1030 1048
f 974 1051 970
f 970 1051 1049
f 1050 1032 1030
f 1052 1032 1050
f 1053 1054 974
f 1032 1053 974
f 974 1054 1051
f 1055 1053 1032
f 1052 1055 1032
f 1056 1055 1052
f 1057 1058 1053
f 1055 1057 1053
f 1053 1058 1054
f 1057 1060 1058
f 1059 1057 1055
f 1059 1060 1057
f 1056 1059 1055
f 1060 1059 1056
f 1039 1062 1037
f 1037 1062 1061
f 1061 1038 1037
f 1062 1064 1061
f 1063 1038 1061
f 1061 1064 1063
f 1063 1040 1038
f 1064 1040 1063
f 1041 1065 1039
f 1039 1065 1062
f 1064 1042 1040
f 1066 1042 1064
f 1043 1067 1041
f 1041 1067 1065
f 1043 1068 1067
f 1044 1068 1043
f 1067 1068 1065
f 1065 1068 1066
f 1066 1044 1042
f 1068 1044 1066
f 1046 1070 1045
f 1045 1070 1069
f 1069 1047 1045
f 1071 1047 1069
f 1071 1048 1047
f 1072 1048 1071
f 1049 1073 1046
f 1046 1073 1070
f 1072 1050 1048
f 1074 1050 1072
f 1051 1075 1049
f 1049 1075 1073
f 1074 1052 1050
f 1076 1052 1074
f 1054 1077 1051
f 1051 1077 1075
f 1076 1056 1052
f 1078 1056 1076
f 1058 1079 1054
f 1054 1079 1077
f 1058 1080 1079
f 1060 1080 1058
f 1078 1060 1056
f 1080 1060 1078
f 1065 1082 1062
f 1062 1082 1081
f 1081 1064 1062
f 1065 1084 1082
f 1066 1084 1065
f 1082 1084 1081
f 1083 1064 1081
f 1081 1084 1083
f 1083 1066 1064
f 1084 1066 1083
f 1069 1086 1067
f 1068 1069 1067
f 1067 1086 1085
f 1085 1068 1067
f 1071 1069 1068
f 1087 1068 1085
f 1087 1071 1068
f 1088 1071 1087
f 1070 1089 1069
f 1069 1089 1086
f 1088 1072 1071
f 1090 1072 1088
f 1073 1091 1070
f 1070 1091 1089
f 1091 1092 1089
f 1089 1092 1090
f 1090 1074 1072
f 1092 1074 1090
f 1075 1093 1073
f 1073 1093 1091
f 1092 1076 1074
f 1094 1076 1092
f 1077 1095 1075
f 1075 1095 1093
f 1094 1078 1076
f 1096 1078 1094
f 1079 1097 1077
f 1077 1097 1095
f 1096 1080 1078
f 1098 1080 1096
f 1099 1100 1079
f 1080 1099 1079
f 1079 1100 1097
f 1099 1102 1100
f 1101 1099 1080
f 1101 1102 1099
f 1098 1101 1080
f 1102 1101 1098
f 1086 1104 1085
f 1085 1104 1103
f 1103 1087 1085
f 1104 1106 1103
f 1105 1087 1103
f 1103 1106 1105
f 1105 1088 1087
f 1106 1088 1105
f 1089 1107 1086
f 1086 1107 1104
f 1089 1108 1107
f 1090 1108 1089
f 1107 1108 1104
f 1104 1108 1106
f 1106 1090 1088
f 1108 1090 1106
f 1093 1110 1091
f 1091 1110 1109
f 1109 1092 1091
f 1111 1092 1109
f 1111 1094 1092
f 1112 1094 1111
f 1095 1113 1093
f 1093 1113 1110
f 1097 1114 1095
f 1095 1114 1113
f 1115 1098 1096
f 1116 1098 1115
f 1100 1117 1097
f 1097 1117 1114
f 1117 1118 1114
f 1114 1118 1116
f 1116 1102 1098
f 1118 1102 1116
f 1119 1120 1100
f 1102 1119 1100
f 1100 1120 1117
f 1121 1119 1102
f 1122 1123 1119
f 1121 1122 1119
f 1119 1123 1120
f 1124 1122 1121
f 1125 1126 1122
f 1124 1125 1122
f 1122 1126 1123
f 1125 1128 1126
f 1127 1125 1124
f 1127 1128 1125
f 1110 1130 1109
f 1109 1130 1129
f 1129 1111 1109
f 1131 1111 1129
f 1113 1132 1110
f 1110 1132 1130
f 1114 1133 1113
f 1113 1133 1132
f 1114 1135 1133
f 1116 1135 1114
f 1133 1135 1132
f 1132 1135 1134
f 1120 1137 1117
f 1117 1137 1136
f 1136 1118 1117
f 1138 1118 1136
f 1123 1139 1120
f 1120 1139 1137
f 1126 1140 1123
f 1123 1140 1139
f 1141 1142 1126
f 1128 1141 1126
f 1126 1142 1140
f 1141 1144 1142
f 1143 1141 1128
f 1143 1144 1141
f 1130 1146 1129
f 1129 1146 1145
f 1145 1131 1129
f 1146 1148 1145
f 1147 1131 1145
f 1145 1148 1147
f 1132 1149 1130
f 1130 1149 1146
f 1132 1150 1149
f 1134 1150 1132
f 1149 1150 1146
f 1146 1150 1148
f 1136 1152 1133
f 1135 1136 1133
f 1133 1152 1151
f 1151 1135 1133
f 1138 1136 1135
f 1153 1135 1151
f 1137 1154 1136
f 1136 1154 1152
f 1139 1155 1137
f 1137 1155 1154
f 1140 1156 1139
f 1139 1156 1155
f 1142 1157 1140
f 1140 1157 1156
f 1158 1159 1142
f 1144 1158 1142
f 1142 1159 1157
f 1160 1158 1144
f 1161 1162 1158
f 1160 1161 1158
f 1158 1162 1159
f 1161 1165 1162
f 1163 1161 1160
f 1163 1165 1161
f 1162 1165 1159
f 1159 1165 1164
f 1151 1167 1149
f 1150 1151 1149
f 1149 1167 1166
f 1166 1150 1149
f 1153 1151 1150
f 1168 1150 1166
f 1152 1169 1151
f 1151 1169 1167
f 1154 1170 1152
f 1152 1170 1169
f 1155 1171 1154
f 1154 1171 1170
f 1156 1172 1155
f 1155 1172 1171
f 1157 1173 1156
f 1156 1173 1172
f 1159 1174 1157
f 1157 1174 1173
f 1159 1176 1174
f 1164 1176 1159
f 1174 1176 1173
f 1173 1176 1175
f 1167 1178 1166
f 1166 1178 1177
f 1177 1168 1166
f 1178 1180 1177
f 1179 1168 1177
f 1177 1180 1179
f 1169 1181 1167
f 1167 1181 1178
f 1181 1182 1178
f 1178 1182 1180
f 1170 1183 1169
f 1169 1183 1181
f 1183 1184 1181
f 1181 1184 1182
f 1171 1185 1170
f 1170 1185 1183
f 1185 1186 1183
f 1183 1186 1184
f 1172 1187 1171
f 1171 1187 1185
f 1187 1188 1185
f 1185 1188 1186
f 1173 1189 1172
f 1172 1189 1187
f 1173 1190 1189
f 1175 1190 1173
f 1189 1190 1187
f 1187 1190 1188
f 1191 1096 1094
f 1112 1191 1094
f 1096 1194 1115
f 1192 1096 1191
f 1192 1194 1096
f 1193 1191 1112
f 1193 1192 1191
f 1194 1192 1193
f 1195 1121 1102
f 1118 1195 1102
f 1196 1121 1195
f 1197 1195 1118
f 1197 1196 1195
f 1198 1196 1197
f 1196 1124 1121
f 1199 1124 1196
f 1198 1199 1196
f 1200 1199 1198
f 1199 1127 1124
f 1127 1202 1128
f 1201 1127 1199
f 1201 1202 1127
f 1200 1201 1199
f 1202 1201 1200
f 1203 1112 1111
f 1131 1203 1111
f 1193 1112 1203
f 1204 1203 1131
f 1204 1193 1203
f 1205 1193 1204
f 1205 1194 1193
f 1206 1194 1205
f 1194 1116 1115
f 1116 1208 1135
f 1207 1116 1194
f 1207 1208 1116
f 1135 1208 1134
f 1134 1208 1206
f 1206 1207 1194
f 1208 1207 1206
f 1138 1197 1118
f 1209 1197 1138
f 1209 1198 1197
f 1210 1198 1209
f 1210 1200 1198
f 1211 1200 1210
f 1211 1202 1200
f 1212 1202 1211
f 1202 1143 1128
f 1143 1214 1144
f 1213 1143 1202
f 1213 1214 1143
f 1212 1213 1202
f 1214 1213 1212
f 1147 1204 1131
f 1148 1216 1147
f 1215 1204 1147
f 1147 1216 1215
f 1215 1205 1204
f 1216 1205 1215
f 1134 1217 1150
f 1206 1217 1134
f 1150 1217 1148
f 1148 1217 1216
f 1216 1206 1205
f 1217 1206 1216
f 1208 1138 1135
f 1153 1208 1135
f 1209 1138 1208
f 1218 1208 1153
f 1218 1209 1208
f 1219 1209 1218
f 1219 1210 1209
f 1220 1210 1219
f 1220 1211 1210
f 1221 1211 1220
f 1221 1212 1211
f 1222 1212 1221
f 1222 1214 1212
f 1223 1214 1222
f 1214 1160 1144
f 1224 1160 1214
f 1223 1224 1214
f 1225 1224 1223
f 1224 1163 1160
f 1163 1227 1165
f 1226 1163 1224
f 1226 1227 1163
f 1165 1227 1164
f 1164 1227 1225
f 1225 1226 1224
f 1227 1226 1225
f 1217 1153 1150
f 1168 1217 1150
f 1218 1153 1217
f 1228 1217 1168
f 1228 1218 1217
f 1229 1218 1228
f 1229 1219 1218
f 1230 1219 1229
f 1230 1220 1219
f 1231 1220 1230
f 1231 1221 1220
f 1232 1221 1231
f 1232 1222 1221
f 1233 1222 1232
f 1233 1223 1222
f 1234 1223 1233
f 1164 1235 1176
f 1225 1235 1164
f 1176 1235 1175
f 1175 1235 1234
f 1234 1225 1223
f 1235 1225 1234
f 1179 1228 1168
f 1180 1237 1179
f 1236 1228 1179
f 1179 1237 1236
f 1236 1229 1228
f 1237 1229 1236
f 1182 1238 1180
f 1180 1238 1237
f 1237 1230 1229
f 1238 1230 1237
f 1238 1231 1230
f 1239 1231 1238
f 1239 1232 1231
f 1240 1232 1239
f 1240 1233 1232
f 1241 1233 1240
f 1175 1242 1190
f 1234 1242 1175
f 1241 1234 1233
f 1242 1234 1241
f 1184 1244 1182
f 1182 1244 1243
f 1243 1238 1182
f 1244 1246 1243
f 1245 1238 1243
f 1243 1246 1245
f 1245 1239 1238
f 1246 1239 1245
f 1186 1247 1184
f 1184 1247 1244
f 1246 1240 1239
f 1248 1240 1246
f 1188 1249 1186
f 1186 1249 1247
f 1248 1241 1240
f 1250 1241 1248
f 1190 1251 1188
f 1188 1251 1249
f 1190 1252 1251
f 1242 1252 1190
f 1251 1252 1249
f 1249 1252 1250
f 1250 1242 1241
f 1252 1242 1250
f 1247 1254 1244
f 1244 1254 1253
f 1253 1246 1244
f 1254 1256 1253
f 1255 1246 1253
f 1253 1256 1255
f 1255 1248 1246
f 1256 1248 1255
f 1249 1257 1247
f 1247 1257 1254
f 1249 1258 1257
f 1250 1258 1249
f 1257 1258 1254
f 1254 1258 1256
f 1256 1250 1248
f 1258 1250 1256

