# https://github.com/mikedh/trimesh
v 0.08200000 0.00000000 0.07800000
v 0.06200000 0.00000000 0.05400000
v 0.04000000 0.00000000 0.02400000
v 0.01800000 0.00000000 0.01700000
v 0.00000000 0.00000000 0.00000000
v 0.05600000 0.00000000 0.00000000
v 0.07400000 0.00000000 0.02000000
v 0.09400000 0.00000000 0.04700000
v 0.10800000 0.00000000 0.07800000
v 0.08168797 0.00714677 0.07800000
v 0.06176407 0.00540366 0.05400000
v 0.03984779 0.00348623 0.02400000
v 0.01793150 0.00156880 0.01700000
v 0.05578690 0.00488072 0.00000000
v 0.07371841 0.00644952 0.02000000
v 0.09364230 0.00819264 0.04700000
v 0.10758903 0.00941282 0.07800000
v 0.08075424 0.01423915 0.07800000
v 0.06105808 0.01076619 0.05400000
v 0.03939231 0.00694593 0.02400000
v 0.01772654 0.00312567 0.01700000
v 0.05514923 0.00972430 0.00000000
v 0.07287577 0.01284997 0.02000000
v 0.09257193 0.01632293 0.04700000
v 0.10635924 0.01875400 0.07800000
v 0.07920592 0.02122316 0.07800000
v 0.05988740 0.01604678 0.05400000
v 0.03863703 0.01035276 0.02400000
v 0.01738666 0.00465874 0.01700000
v 0.05409185 0.01449387 0.00000000
v 0.07147851 0.01915261 0.02000000
v 0.09079703 0.02432899 0.04700000
v 0.10431999 0.02795246 0.07800000
v 0.07705479 0.02804565 0.07800000
v 0.05826094 0.02120525 0.05400000
v 0.03758770 0.01368081 0.02400000
v 0.01691447 0.00615636 0.01700000
v 0.05262279 0.01915313 0.00000000
v 0.06953725 0.02530949 0.02000000
v 0.08833111 0.03214989 0.04700000
v 0.10148680 0.03693818 0.07800000
v 0.07431724 0.03465470 0.07800000
v 0.05619108 0.02620233 0.05400000
v 0.03625231 0.01690473 0.02400000
v 0.01631354 0.00760713 0.01700000
v 0.05075324 0.02366662 0.00000000
v 0.06706678 0.03127375 0.02000000
v 0.08519293 0.03972612 0.04700000
v 0.09788124 0.04564277 0.07800000
v 0.07101408 0.04100000 0.07800000
v 0.05369358 0.03100000 0.05400000
v 0.03464102 0.02000000 0.02400000
v 0.01558846 0.00900000 0.01700000
v 0.04849742 0.02800000 0.00000000
v 0.06408588 0.03700000 0.02000000
v 0.08140639 0.04700000 0.04700000
v 0.09353074 0.05400000 0.07800000
v 0.06717047 0.04703327 0.07800000
v 0.05078743 0.03556174 0.05400000
v 0.03276608 0.02294306 0.02400000
v 0.01474474 0.01032438 0.01700000
v 0.04587251 0.03212028 0.00000000
v 0.06061725 0.04244466 0.02000000
v 0.07700029 0.05391619 0.04700000
v 0.08846842 0.06194626 0.07800000
v 0.06281564 0.05270858 0.07800000
v 0.04749476 0.03985283 0.05400000
v 0.03064178 0.02571150 0.02400000
v 0.01378880 0.01157018 0.01700000
v 0.04289849 0.03599611 0.00000000
v 0.05668729 0.04756628 0.02000000
v 0.07200818 0.06042204 0.04700000
v 0.08273280 0.06942106 0.07800000
v 0.05798276 0.05798276 0.07800000
v 0.04384062 0.04384062 0.05400000
v 0.02828427 0.02828427 0.02400000
v 0.01272792 0.01272792 0.01700000
v 0.03959798 0.03959798 0.00000000
v 0.05232590 0.05232590 0.02000000
v 0.06646804 0.06646804 0.04700000
v 0.07636753 0.07636753 0.07800000
v 0.05270858 0.06281564 0.07800000
v 0.03985283 0.04749476 0.05400000
v 0.02571150 0.03064178 0.02400000
v 0.01157018 0.01378880 0.01700000
v 0.03599611 0.04289849 0.00000000
v 0.04756628 0.05668729 0.02000000
v 0.06042204 0.07200818 0.04700000
v 0.06942106 0.08273280 0.07800000
v 0.04703327 0.06717047 0.07800000
v 0.03556174 0.05078743 0.05400000
v 0.02294306 0.03276608 0.02400000
v 0.01032438 0.01474474 0.01700000
v 0.03212028 0.04587251 0.00000000
v 0.04244466 0.06061725 0.02000000
v 0.05391619 0.07700029 0.04700000
v 0.06194626 0.08846842 0.07800000
v 0.04100000 0.07101408 0.07800000
v 0.03100000 0.05369358 0.05400000
v 0.02000000 0.03464102 0.02400000
v 0.00900000 0.01558846 0.01700000
v 0.02800000 0.04849742 0.00000000
v 0.03700000 0.06408588 0.02000000
v 0.04700000 0.08140639 0.04700000
v 0.05400000 0.09353074 0.07800000
v 0.03465470 0.07431724 0.07800000
v 0.02620233 0.05619108 0.05400000
v 0.01690473 0.03625231 0.02400000
v 0.00760713 0.01631354 0.01700000
v 0.02366662 0.05075324 0.00000000
v 0.03127375 0.06706678 0.02000000
v 0.03972612 0.08519293 0.04700000
v 0.04564277 0.09788124 0.07800000
v 0.02804565 0.07705479 0.07800000
v 0.02120525 0.05826094 0.05400000
v 0.01368081 0.03758770 0.02400000
v 0.00615636 0.01691447 0.01700000
v 0.01915313 0.05262279 0.00000000
v 0.02530949 0.06953725 0.02000000
v 0.03214989 0.08833111 0.04700000
v 0.03693818 0.10148680 0.07800000
v 0.02122316 0.07920592 0.07800000
v 0.01604678 0.05988740 0.05400000
v 0.01035276 0.03863703 0.02400000
v 0.00465874 0.01738666 0.01700000
v 0.01449387 0.05409185 0.00000000
v 0.01915261 0.07147851 0.02000000
v 0.02432899 0.09079703 0.04700000
v 0.02795246 0.10431999 0.07800000
v 0.01423915 0.08075424 0.07800000
v 0.01076619 0.06105808 0.05400000
v 0.00694593 0.03939231 0.02400000
v 0.00312567 0.01772654 0.01700000
v 0.00972430 0.05514923 0.00000000
v 0.01284997 0.07287577 0.02000000
v 0.01632293 0.09257193 0.04700000
v 0.01875400 0.10635924 0.07800000
v 0.00714677 0.08168797 0.07800000
v 0.00540366 0.06176407 0.05400000
v 0.00348623 0.03984779 0.02400000
v 0.00156880 0.01793150 0.01700000
v 0.00488072 0.05578690 0.00000000
v 0.00644952 0.07371841 0.02000000
v 0.00819264 0.09364230 0.04700000
v 0.00941282 0.10758903 0.07800000
v 0.00000000 0.08200000 0.07800000
v 0.00000000 0.06200000 0.05400000
v 0.00000000 0.04000000 0.02400000
v 0.00000000 0.01800000 0.01700000
v 0.00000000 0.05600000 0.00000000
v 0.00000000 0.07400000 0.02000000
v 0.00000000 0.09400000 0.04700000
v 0.00000000 0.10800000 0.07800000
v -0.00714677 0.08168797 0.07800000
v -0.00540366 0.06176407 0.05400000
v -0.00348623 0.03984779 0.02400000
v -0.00156880 0.01793150 0.01700000
v -0.00488072 0.05578690 0.00000000
v -0.00644952 0.07371841 0.02000000
v -0.00819264 0.09364230 0.04700000
v -0.00941282 0.10758903 0.07800000
v -0.01423915 0.08075424 0.07800000
v -0.01076619 0.06105808 0.05400000
v -0.00694593 0.03939231 0.02400000
v -0.00312567 0.01772654 0.01700000
v -0.00972430 0.05514923 0.00000000
v -0.01284997 0.07287577 0.02000000
v -0.01632293 0.09257193 0.04700000
v -0.01875400 0.10635924 0.07800000
v -0.02122316 0.07920592 0.07800000
v -0.01604678 0.05988740 0.05400000
v -0.01035276 0.03863703 0.02400000
v -0.00465874 0.01738666 0.01700000
v -0.01449387 0.05409185 0.00000000
v -0.01915261 0.07147851 0.02000000
v -0.02432899 0.09079703 0.04700000
v -0.02795246 0.10431999 0.07800000
v -0.02804565 0.07705479 0.07800000
v -0.02120525 0.05826094 0.05400000
v -0.01368081 0.03758770 0.02400000
v -0.00615636 0.01691447 0.01700000
v -0.01915313 0.05262279 0.00000000
v -0.02530949 0.06953725 0.02000000
v -0.03214989 0.08833111 0.04700000
v -0.03693818 0.10148680 0.07800000
v -0.03465470 0.07431724 0.07800000
v -0.02620233 0.05619108 0.05400000
v -0.01690473 0.03625231 0.02400000
v -0.00760713 0.01631354 0.01700000
v -0.02366662 0.05075324 0.00000000
v -0.03127375 0.06706678 0.02000000
v -0.03972612 0.08519293 0.04700000
v -0.04564277 0.09788124 0.07800000
v -0.04100000 0.07101408 0.07800000
v -0.03100000 0.05369358 0.05400000
v -0.02000000 0.03464102 0.02400000
v -0.00900000 0.01558846 0.01700000
v -0.02800000 0.04849742 0.00000000
v -0.03700000 0.06408588 0.02000000
v -0.04700000 0.08140639 0.04700000
v -0.05400000 0.09353074 0.07800000
v -0.04703327 0.06717047 0.07800000
v -0.03556174 0.05078743 0.05400000
v -0.02294306 0.03276608 0.02400000
v -0.01032438 0.01474474 0.01700000
v -0.03212028 0.04587251 0.00000000
v -0.04244466 0.06061725 0.02000000
v -0.05391619 0.07700029 0.04700000
v -0.06194626 0.08846842 0.07800000
v -0.05270858 0.06281564 0.07800000
v -0.03985283 0.04749476 0.05400000
v -0.02571150 0.03064178 0.02400000
v -0.01157018 0.01378880 0.01700000
v -0.03599611 0.04289849 0.00000000
v -0.04756628 0.05668729 0.02000000
v -0.06042204 0.07200818 0.04700000
v -0.06942106 0.08273280 0.07800000
v -0.05798276 0.05798276 0.07800000
v -0.04384062 0.04384062 0.05400000
v -0.02828427 0.02828427 0.02400000
v -0.01272792 0.01272792 0.01700000
v -0.03959798 0.03959798 0.00000000
v -0.05232590 0.05232590 0.02000000
v -0.06646804 0.06646804 0.04700000
v -0.07636753 0.07636753 0.07800000
v -0.06281564 0.05270858 0.07800000
v -0.04749476 0.03985283 0.05400000
v -0.03064178 0.02571150 0.02400000
v -0.01378880 0.01157018 0.01700000
v -0.04289849 0.03599611 0.00000000
v -0.05668729 0.04756628 0.02000000
v -0.07200818 0.06042204 0.04700000
v -0.08273280 0.06942106 0.07800000
v -0.06717047 0.04703327 0.07800000
v -0.05078743 0.03556174 0.05400000
v -0.03276608 0.02294306 0.02400000
v -0.01474474 0.01032438 0.01700000
v -0.04587251 0.03212028 0.00000000
v -0.06061725 0.04244466 0.02000000
v -0.07700029 0.05391619 0.04700000
v -0.08846842 0.06194626 0.07800000
v -0.07101408 0.04100000 0.07800000
v -0.05369358 0.03100000 0.05400000
v -0.03464102 0.02000000 0.02400000
v -0.01558846 0.00900000 0.01700000
v -0.04849742 0.02800000 0.00000000
v -0.06408588 0.03700000 0.02000000
v -0.08140639 0.04700000 0.04700000
v -0.09353074 0.05400000 0.07800000
v -0.07431724 0.03465470 0.07800000
v -0.05619108 0.02620233 0.05400000
v -0.03625231 0.01690473 0.02400000
v -0.01631354 0.00760713 0.01700000
v -0.05075324 0.02366662 0.00000000
v -0.06706678 0.03127375 0.02000000
v -0.08519293 0.03972612 0.04700000
v -0.09788124 0.04564277 0.07800000
v -0.07705479 0.02804565 0.07800000
v -0.05826094 0.02120525 0.05400000
v -0.03758770 0.01368081 0.02400000
v -0.01691447 0.00615636 0.01700000
v -0.05262279 0.01915313 0.00000000
v -0.06953725 0.02530949 0.02000000
v -0.08833111 0.03214989 0.04700000
v -0.10148680 0.03693818 0.07800000
v -0.07920592 0.02122316 0.07800000
v -0.05988740 0.01604678 0.05400000
v -0.03863703 0.01035276 0.02400000
v -0.01738666 0.00465874 0.01700000
v -0.05409185 0.01449387 0.00000000
v -0.07147851 0.01915261 0.02000000
v -0.09079703 0.02432899 0.04700000
v -0.10431999 0.02795246 0.07800000
v -0.08075424 0.01423915 0.07800000
v -0.06105808 0.01076619 0.05400000
v -0.03939231 0.00694593 0.02400000
v -0.01772654 0.00312567 0.01700000
v -0.05514923 0.00972430 0.00000000
v -0.07287577 0.01284997 0.02000000
v -0.09257193 0.01632293 0.04700000
v -0.10635924 0.01875400 0.07800000
v -0.08168797 0.00714677 0.07800000
v -0.06176407 0.00540366 0.05400000
v -0.03984779 0.00348623 0.02400000
v -0.01793150 0.00156880 0.01700000
v -0.05578690 0.00488072 0.00000000
v -0.07371841 0.00644952 0.02000000
v -0.09364230 0.00819264 0.04700000
v -0.10758903 0.00941282 0.07800000
v -0.08200000 0.00000000 0.07800000
v -0.06200000 0.00000000 0.05400000
v -0.04000000 0.00000000 0.02400000
v -0.01800000 0.00000000 0.01700000
v -0.05600000 0.00000000 0.00000000
v -0.07400000 0.00000000 0.02000000
v -0.09400000 0.00000000 0.04700000
v -0.10800000 0.00000000 0.07800000
v -0.08168797 -0.00714677 0.07800000
v -0.06176407 -0.00540366 0.05400000
v -0.03984779 -0.00348623 0.02400000
v -0.01793150 -0.00156880 0.01700000
v -0.05578690 -0.00488072 0.00000000
v -0.07371841 -0.00644952 0.02000000
v -0.09364230 -0.00819264 0.04700000
v -0.10758903 -0.00941282 0.07800000
v -0.08075424 -0.01423915 0.07800000
v -0.06105808 -0.01076619 0.05400000
v -0.03939231 -0.00694593 0.02400000
v -0.01772654 -0.00312567 0.01700000
v -0.05514923 -0.00972430 0.00000000
v -0.07287577 -0.01284997 0.02000000
v -0.09257193 -0.01632293 0.04700000
v -0.10635924 -0.01875400 0.07800000
v -0.07920592 -0.02122316 0.07800000
v -0.05988740 -0.01604678 0.05400000
v -0.03863703 -0.01035276 0.02400000
v -0.01738666 -0.00465874 0.01700000
v -0.05409185 -0.01449387 0.00000000
v -0.07147851 -0.01915261 0.02000000
v -0.09079703 -0.02432899 0.04700000
v -0.10431999 -0.02795246 0.07800000
v -0.07705479 -0.02804565 0.07800000
v -0.05826094 -0.02120525 0.05400000
v -0.03758770 -0.01368081 0.02400000
v -0.01691447 -0.00615636 0.01700000
v -0.05262279 -0.01915313 0.00000000
v -0.06953725 -0.02530949 0.02000000
v -0.08833111 -0.03214989 0.04700000
v -0.10148680 -0.03693818 0.07800000
v -0.07431724 -0.03465470 0.07800000
v -0.05619108 -0.02620233 0.05400000
v -0.03625231 -0.01690473 0.02400000
v -0.01631354 -0.00760713 0.01700000
v -0.05075324 -0.02366662 0.00000000
v -0.06706678 -0.03127375 0.02000000
v -0.08519293 -0.03972612 0.04700000
v -0.09788124 -0.04564277 0.07800000
v -0.07101408 -0.04100000 0.07800000
v -0.05369358 -0.03100000 0.05400000
v -0.03464102 -0.02000000 0.02400000
v -0.01558846 -0.00900000 0.01700000
v -0.04849742 -0.02800000 0.00000000
v -0.06408588 -0.03700000 0.02000000
v -0.08140639 -0.04700000 0.04700000
v -0.09353074 -0.05400000 0.07800000
v -0.06717047 -0.04703327 0.07800000
v -0.05078743 -0.03556174 0.05400000
v -0.03276608 -0.02294306 0.02400000
v -0.01474474 -0.01032438 0.01700000
v -0.04587251 -0.03212028 0.00000000
v -0.06061725 -0.04244466 0.02000000
v -0.07700029 -0.05391619 0.04700000
v -0.08846842 -0.06194626 0.07800000
v -0.06281564 -0.05270858 0.07800000
v -0.04749476 -0.03985283 0.05400000
v -0.03064178 -0.02571150 0.02400000
v -0.01378880 -0.01157018 0.01700000
v -0.04289849 -0.03599611 0.00000000
v -0.05668729 -0.04756628 0.02000000
v -0.07200818 -0.06042204 0.04700000
v -0.08273280 -0.06942106 0.07800000
v -0.05798276 -0.05798276 0.07800000
v -0.04384062 -0.04384062 0.05400000
v -0.02828427 -0.02828427 0.02400000
v -0.01272792 -0.01272792 0.01700000
v -0.03959798 -0.03959798 0.00000000
v -0.05232590 -0.05232590 0.02000000
v -0.06646804 -0.06646804 0.04700000
v -0.07636753 -0.07636753 0.07800000
v -0.05270858 -0.06281564 0.07800000
v -0.03985283 -0.04749476 0.05400000
v -0.02571150 -0.03064178 0.02400000
v -0.01157018 -0.01378880 0.01700000
v -0.03599611 -0.04289849 0.00000000
v -0.04756628 -0.05668729 0.02000000
v -0.06042204 -0.07200818 0.04700000
v -0.06942106 -0.08273280 0.07800000
v -0.04703327 -0.06717047 0.07800000
v -0.03556174 -0.05078743 0.05400000
v -0.02294306 -0.03276608 0.02400000
v -0.01032438 -0.01474474 0.01700000
v -0.03212028 -0.04587251 0.00000000
v -0.04244466 -0.06061725 0.02000000
v -0.05391619 -0.07700029 0.04700000
v -0.06194626 -0.08846842 0.07800000
v -0.04100000 -0.07101408 0.07800000
v -0.03100000 -0.05369358 0.05400000
v -0.02000000 -0.03464102 0.02400000
v -0.00900000 -0.01558846 0.01700000
v -0.02800000 -0.04849742 0.00000000
v -0.03700000 -0.06408588 0.02000000
v -0.04700000 -0.08140639 0.04700000
v -0.05400000 -0.09353074 0.07800000
v -0.03465470 -0.07431724 0.07800000
v -0.02620233 -0.05619108 0.05400000
v -0.01690473 -0.03625231 0.02400000
v -0.00760713 -0.01631354 0.01700000
v -0.02366662 -0.05075324 0.00000000
v -0.03127375 -0.06706678 0.02000000
v -0.03972612 -0.08519293 0.04700000
v -0.04564277 -0.09788124 0.07800000
v -0.02804565 -0.07705479 0.07800000
v -0.02120525 -0.05826094 0.05400000
v -0.01368081 -0.03758770 0.02400000
v -0.00615636 -0.01691447 0.01700000
v -0.01915313 -0.05262279 0.00000000
v -0.02530949 -0.06953725 0.02000000
v -0.03214989 -0.08833111 0.04700000
v -0.03693818 -0.10148680 0.07800000
v -0.02122316 -0.07920592 0.07800000
v -0.01604678 -0.05988740 0.05400000
v -0.01035276 -0.03863703 0.02400000
v -0.00465874 -0.01738666 0.01700000
v -0.01449387 -0.05409185 0.00000000
v -0.01915261 -0.07147851 0.02000000
v -0.02432899 -0.09079703 0.04700000
v -0.02795246 -0.10431999 0.07800000
v -0.01423915 -0.08075424 0.07800000
v -0.01076619 -0.06105808 0.05400000
v -0.00694593 -0.03939231 0.02400000
v -0.00312567 -0.01772654 0.01700000
v -0.00972430 -0.05514923 0.00000000
v -0.01284997 -0.07287577 0.02000000
v -0.01632293 -0.09257193 0.04700000
v -0.01875400 -0.10635924 0.07800000
v -0.00714677 -0.08168797 0.07800000
v -0.00540366 -0.06176407 0.05400000
v -0.00348623 -0.03984779 0.02400000
v -0.00156880 -0.01793150 0.01700000
v -0.00488072 -0.05578690 0.00000000
v -0.00644952 -0.07371841 0.02000000
v -0.00819264 -0.09364230 0.04700000
v -0.00941282 -0.10758903 0.07800000
v -0.00000000 -0.08200000 0.07800000
v -0.00000000 -0.06200000 0.05400000
v -0.00000000 -0.04000000 0.02400000
v -0.00000000 -0.01800000 0.01700000
v -0.00000000 -0.05600000 0.00000000
v -0.00000000 -0.07400000 0.02000000
v -0.00000000 -0.09400000 0.04700000
v -0.00000000 -0.10800000 0.07800000
v 0.00714677 -0.08168797 0.07800000
v 0.00540366 -0.06176407 0.05400000
v 0.00348623 -0.03984779 0.02400000
v 0.00156880 -0.01793150 0.01700000
v 0.00488072 -0.05578690 0.00000000
v 0.00644952 -0.07371841 0.02000000
v 0.00819264 -0.09364230 0.04700000
v 0.00941282 -0.10758903 0.07800000
v 0.01423915 -0.08075424 0.07800000
v 0.01076619 -0.06105808 0.05400000
v 0.00694593 -0.03939231 0.02400000
v 0.00312567 -0.01772654 0.01700000
v 0.00972430 -0.05514923 0.00000000
v 0.01284997 -0.07287577 0.02000000
v 0.01632293 -0.09257193 0.04700000
v 0.01875400 -0.10635924 0.07800000
v 0.02122316 -0.07920592 0.07800000
v 0.01604678 -0.05988740 0.05400000
v 0.01035276 -0.03863703 0.02400000
v 0.00465874 -0.01738666 0.01700000
v 0.01449387 -0.05409185 0.00000000
v 0.01915261 -0.07147851 0.02000000
v 0.02432899 -0.09079703 0.04700000
v 0.02795246 -0.10431999 0.07800000
v 0.02804565 -0.07705479 0.07800000
v 0.02120525 -0.05826094 0.05400000
v 0.01368081 -0.03758770 0.02400000
v 0.00615636 -0.01691447 0.01700000
v 0.01915313 -0.05262279 0.00000000
v 0.02530949 -0.06953725 0.02000000
v 0.03214989 -0.08833111 0.04700000
v 0.03693818 -0.10148680 0.07800000
v 0.03465470 -0.07431724 0.07800000
v 0.02620233 -0.05619108 0.05400000
v 0.01690473 -0.03625231 0.02400000
v 0.00760713 -0.01631354 0.01700000
v 0.02366662 -0.05075324 0.00000000
v 0.03127375 -0.06706678 0.02000000
v 0.03972612 -0.08519293 0.04700000
v 0.04564277 -0.09788124 0.07800000
v 0.04100000 -0.07101408 0.07800000
v 0.03100000 -0.05369358 0.05400000
v 0.02000000 -0.03464102 0.02400000
v 0.00900000 -0.01558846 0.01700000
v 0.02800000 -0.04849742 0.00000000
v 0.03700000 -0.06408588 0.02000000
v 0.04700000 -0.08140639 0.04700000
v 0.05400000 -0.09353074 0.07800000
v 0.04703327 -0.06717047 0.07800000
v 0.03556174 -0.05078743 0.05400000
v 0.02294306 -0.03276608 0.02400000
v 0.01032438 -0.01474474 0.01700000
v 0.03212028 -0.04587251 0.00000000
v 0.04244466 -0.06061725 0.02000000
v 0.05391619 -0.07700029 0.04700000
v 0.06194626 -0.08846842 0.07800000
v 0.05270858 -0.06281564 0.07800000
v 0.03985283 -0.04749476 0.05400000
v 0.02571150 -0.03064178 0.02400000
v 0.01157018 -0.01378880 0.01700000
v 0.03599611 -0.04289849 0.00000000
v 0.04756628 -0.05668729 0.02000000
v 0.06042204 -0.07200818 0.04700000
v 0.06942106 -0.08273280 0.07800000
v 0.05798276 -0.05798276 0.07800000
v 0.04384062 -0.04384062 0.05400000
v 0.02828427 -0.02828427 0.02400000
v 0.01272792 -0.01272792 0.01700000
v 0.03959798 -0.03959798 0.00000000
v 0.05232590 -0.05232590 0.02000000
v 0.06646804 -0.06646804 0.04700000
v 0.07636753 -0.07636753 0.07800000
v 0.06281564 -0.05270858 0.07800000
v 0.04749476 -0.03985283 0.05400000
v 0.03064178 -0.02571150 0.02400000
v 0.01378880 -0.01157018 0.01700000
v 0.04289849 -0.03599611 0.00000000
v 0.05668729 -0.04756628 0.02000000
v 0.07200818 -0.06042204 0.04700000
v 0.08273280 -0.06942106 0.07800000
v 0.06717047 -0.04703327 0.07800000
v 0.05078743 -0.03556174 0.05400000
v 0.03276608 -0.02294306 0.02400000
v 0.01474474 -0.01032438 0.01700000
v 0.04587251 -0.03212028 0.00000000
v 0.06061725 -0.04244466 0.02000000
v 0.07700029 -0.05391619 0.04700000
v 0.08846842 -0.06194626 0.07800000
v 0.07101408 -0.04100000 0.07800000
v 0.05369358 -0.03100000 0.05400000
v 0.03464102 -0.02000000 0.02400000
v 0.01558846 -0.00900000 0.01700000
v 0.04849742 -0.02800000 0.00000000
v 0.06408588 -0.03700000 0.02000000
v 0.08140639 -0.04700000 0.04700000
v 0.09353074 -0.05400000 0.07800000
v 0.07431724 -0.03465470 0.07800000
v 0.05619108 -0.02620233 0.05400000
v 0.03625231 -0.01690473 0.02400000
v 0.01631354 -0.00760713 0.01700000
v 0.05075324 -0.02366662 0.00000000
v 0.06706678 -0.03127375 0.02000000
v 0.08519293 -0.03972612 0.04700000
v 0.09788124 -0.04564277 0.07800000
v 0.07705479 -0.02804565 0.07800000
v 0.05826094 -0.02120525 0.05400000
v 0.03758770 -0.01368081 0.02400000
v 0.01691447 -0.00615636 0.01700000
v 0.05262279 -0.01915313 0.00000000
v 0.06953725 -0.02530949 0.02000000
v 0.08833111 -0.03214989 0.04700000
v 0.10148680 -0.03693818 0.07800000
v 0.07920592 -0.02122316 0.07800000
v 0.05988740 -0.01604678 0.05400000
v 0.03863703 -0.01035276 0.02400000
v 0.01738666 -0.00465874 0.01700000
v 0.05409185 -0.01449387 0.00000000
v 0.07147851 -0.01915261 0.02000000
v 0.09079703 -0.02432899 0.04700000
v 0.10431999 -0.02795246 0.07800000
v 0.08075424 -0.01423915 0.07800000
v 0.06105808 -0.01076619 0.05400000
v 0.03939231 -0.00694593 0.02400000
v 0.01772654 -0.00312567 0.01700000
v 0.05514923 -0.00972430 0.00000000
v 0.07287577 -0.01284997 0.02000000
v 0.09257193 -0.01632293 0.04700000
v 0.10635924 -0.01875400 0.07800000
v 0.08168797 -0.00714677 0.07800000
v 0.06176407 -0.00540366 0.05400000
v 0.03984779 -0.00348623 0.02400000
v 0.01793150 -0.00156880 0.01700000
v 0.05578690 -0.00488072 0.00000000
v 0.07371841 -0.00644952 0.02000000
v 0.09364230 -0.00819264 0.04700000
v 0.10758903 -0.00941282 0.07800000
f 1 10 2
f 2 10 11
f 2 11 3
f 3 11 12
f 3 12 4
f 4 12 13
f 4 13 5
f 6 5 14
f 6 14 7
f 7 14 15
f 7 15 8
f 8 15 16
f 8 16 9
f 9 16 17
f 10 18 11
f 11 18 19
f 11 19 12
f 12 19 20
f 12 20 13
f 13 20 21
f 13 21 5
f 14 5 22
f 14 22 15
f 15 22 23
f 15 23 16
f 16 23 24
f 16 24 17
f 17 24 25
f 18 26 19
f 19 26 27
f 19 27 20
f 20 27 28
f 20 28 21
f 21 28 29
f 21 29 5
f 22 5 30
f 22 30 23
f 23 30 31
f 23 31 24
f 24 31 32
f 24 32 25
f 25 32 33
f 26 34 27
f 27 34 35
f 27 35 28
f 28 35 36
f 28 36 29
f 29 36 37
f 29 37 5
f 30 5 38
f 30 38 31
f 31 38 39
f 31 39 32
f 32 39 40
f 32 40 33
f 33 40 41
f 34 42 35
f 35 42 43
f 35 43 36
f 36 43 44
f 36 44 37
f 37 44 45
f 37 45 5
f 38 5 46
f 38 46 39
f 39 46 47
f 39 47 40
f 40 47 48
f 40 48 41
f 41 48 49
f 42 50 43
f 43 50 51
f 43 51 44
f 44 51 52
f 44 52 45
f 45 52 53
f 45 53 5
f 46 5 54
f 46 54 47
f 47 54 55
f 47 55 48
f 48 55 56
f 48 56 49
f 49 56 57
f 50 58 51
f 51 58 59
f 51 59 52
f 52 59 60
f 52 60 53
f 53 60 61
f 53 61 5
f 54 5 62
f 54 62 55
f 55 62 63
f 55 63 56
f 56 63 64
f 56 64 57
f 57 64 65
f 58 66 59
f 59 66 67
f 59 67 60
f 60 67 68
f 60 68 61
f 61 68 69
f 61 69 5
f 62 5 70
f 62 70 63
f 63 70 71
f 63 71 64
f 64 71 72
f 64 72 65
f 65 72 73
f 66 74 67
f 67 74 75
f 67 75 68
f 68 75 76
f 68 76 69
f 69 76 77
f 69 77 5
f 70 5 78
f 70 78 71
f 71 78 79
f 71 79 72
f 72 79 80
f 72 80 73
f 73 80 81
f 74 82 75
f 75 82 83
f 75 83 76
f 76 83 84
f 76 84 77
f 77 84 85
f 77 85 5
f 78 5 86
f 78 86 79
f 79 86 87
f 79 87 80
f 80 87 88
f 80 88 81
f 81 88 89
f 82 90 83
f 83 90 91
f 83 91 84
f 84 91 92
f 84 92 85
f 85 92 93
f 85 93 5
f 86 5 94
f 86 94 87
f 87 94 95
f 87 95 88
f 88 95 96
f 88 96 89
f 89 96 97
f 90 98 91
f 91 98 99
f 91 99 92
f 92 99 100
f 92 100 93
f 93 100 101
f 93 101 5
f 94 5 102
f 94 102 95
f 95 102 103
f 95 103 96
f 96 103 104
f 96 104 97
f 97 104 105
f 98 106 99
f 99 106 107
f 99 107 100
f 100 107 108
f 100 108 101
f 101 108 109
f 101 109 5
f 102 5 110
f 102 110 103
f 103 110 111
f 103 111 104
f 104 111 112
f 104 112 105
f 105 112 113
f 106 114 107
f 107 114 115
f 107 115 108
f 108 115 116
f 108 116 109
f 109 116 117
f 109 117 5
f 110 5 118
f 110 118 111
f 111 118 119
f 111 119 112
f 112 119 120
f 112 120 113
f 113 120 121
f 114 122 115
f 115 122 123
f 115 123 116
f 116 123 124
f 116 124 117
f 117 124 125
f 117 125 5
f 118 5 126
f 118 126 119
f 119 126 127
f 119 127 120
f 120 127 128
f 120 128 121
f 121 128 129
f 122 130 123
f 123 130 131
f 123 131 124
f 124 131 132
f 124 132 125
f 125 132 133
f 125 133 5
f 126 5 134
f 126 134 127
f 127 134 135
f 127 135 128
f 128 135 136
f 128 136 129
f 129 136 137
f 130 138 131
f 131 138 139
f 131 139 132
f 132 139 140
f 132 140 133
f 133 140 141
f 133 141 5
f 134 5 142
f 134 142 135
f 135 142 143
f 135 143 136
f 136 143 144
f 136 144 137
f 137 144 145
f 138 146 139
f 139 146 147
f 139 147 140
f 140 147 148
f 140 148 141
f 141 148 149
f 141 149 5
f 142 5 150
f 142 150 143
f 143 150 151
f 143 151 144
f 144 151 152
f 144 152 145
f 145 152 153
f 146 154 147
f 147 154 155
f 147 155 148
f 148 155 156
f 148 156 149
f 149 156 157
f 149 157 5
f 150 5 158
f 150 158 151
f 151 158 159
f 151 159 152
f 152 159 160
f 152 160 153
f 153 160 161
f 154 162 155
f 155 162 163
f 155 163 156
f 156 163 164
f 156 164 157
f 157 164 165
f 157 165 5
f 158 5 166
f 158 166 159
f 159 166 167
f 159 167 160
f 160 167 168
f 160 168 161
f 161 168 169
f 162 170 163
f 163 170 171
f 163 171 164
f 164 171 172
f 164 172 165
f 165 172 173
f 165 173 5
f 166 5 174
f 166 174 167
f 167 174 175
f 167 175 168
f 168 175 176
f 168 176 169
f 169 176 177
f 170 178 171
f 171 178 179
f 171 179 172
f 172 179 180
f 172 180 173
f 173 180 181
f 173 181 5
f 174 5 182
f 174 182 175
f 175 182 183
f 175 183 176
f 176 183 184
f 176 184 177
f 177 184 185
f 178 186 179
f 179 186 187
f 179 187 180
f 180 187 188
f 180 188 181
f 181 188 189
f 181 189 5
f 182 5 190
f 182 190 183
f 183 190 191
f 183 191 184
f 184 191 192
f 184 192 185
f 185 192 193
f 186 194 187
f 187 194 195
f 187 195 188
f 188 195 196
f 188 196 189
f 189 196 197
f 189 197 5
f 190 5 198
f 190 198 191
f 191 198 199
f 191 199 192
f 192 199 200
f 192 200 193
f 193 200 201
f 194 202 195
f 195 202 203
f 195 203 196
f 196 203 204
f 196 204 197
f 197 204 205
f 197 205 5
f 198 5 206
f 198 206 199
f 199 206 207
f 199 207 200
f 200 207 208
f 200 208 201
f 201 208 209
f 202 210 203
f 203 210 211
f 203 211 204
f 204 211 212
f 204 212 205
f 205 212 213
f 205 213 5
f 206 5 214
f 206 214 207
f 207 214 215
f 207 215 208
f 208 215 216
f 208 216 209
f 209 216 217
f 210 218 211
f 211 218 219
f 211 219 212
f 212 219 220
f 212 220 213
f 213 220 221
f 213 221 5
f 214 5 222
f 214 222 215
f 215 222 223
f 215 223 216
f 216 223 224
f 216 224 217
f 217 224 225
f 218 226 219
f 219 226 227
f 219 227 220
f 220 227 228
f 220 228 221
f 221 228 229
f 221 229 5
f 222 5 230
f 222 230 223
f 223 230 231
f 223 231 224
f 224 231 232
f 224 232 225
f 225 232 233
f 226 234 227
f 227 234 235
f 227 235 228
f 228 235 236
f 228 236 229
f 229 236 237
f 229 237 5
f 230 5 238
f 230 238 231
f 231 238 239
f 231 239 232
f 232 239 240
f 232 240 233
f 233 240 241
f 234 242 235
f 235 242 243
f 235 243 236
f 236 243 244
f 236 244 237
f 237 244 245
f 237 245 5
f 238 5 246
f 238 246 239
f 239 246 247
f 239 247 240
f 240 247 248
f 240 248 241
f 241 248 249
f 242 250 243
f 243 250 251
f 243 251 244
f 244 251 252
f 244 252 245
f 245 252 253
f 245 253 5
f 246 5 254
f 246 254 247
f 247 254 255
f 247 255 248
f 248 255 256
f 248 256 249
f 249 256 257
f 250 258 251
f 251 258 259
f 251 259 252
f 252 259 260
f 252 260 253
f 253 260 261
f 253 261 5
f 254 5 262
f 254 262 255
f 255 262 263
f 255 263 256
f 256 263 264
f 256 264 257
f 257 264 265
f 258 266 259
f 259 266 267
f 259 267 260
f 260 267 268
f 260 268 261
f 261 268 269
f 261 269 5
f 262 5 270
f 262 270 263
f 263 270 271
f 263 271 264
f 264 271 272
f 264 272 265
f 265 272 273
f 266 274 267
f 267 274 275
f 267 275 268
f 268 275 276
f 268 276 269
f 269 276 277
f 269 277 5
f 270 5 278
f 270 278 271
f 271 278 279
f 271 279 272
f 272 279 280
f 272 280 273
f 273 280 281
f 274 282 275
f 275 282 283
f 275 283 276
f 276 283 284
f 276 284 277
f 277 284 285
f 277 285 5
f 278 5 286
f 278 286 279
f 279 286 287
f 279 287 280
f 280 287 288
f 280 288 281
f 281 288 289
f 282 290 283
f 283 290 291
f 283 291 284
f 284 291 292
f 284 292 285
f 285 292 293
f 285 293 5
f 286 5 294
f 286 294 287
f 287 294 295
f 287 295 288
f 288 295 296
f 288 296 289
f 289 296 297
f 290 298 291
f 291 298 299
f 291 299 292
f 292 299 300
f 292 300 293
f 293 300 301
f 293 301 5
f 294 5 302
f 294 302 295
f 295 302 303
f 295 303 296
f 296 303 304
f 296 304 297
f 297 304 305
f 298 306 299
f 299 306 307
f 299 307 300
f 300 307 308
f 300 308 301
f 301 308 309
f 301 309 5
f 302 5 310
f 302 310 303
f 303 310 311
f 303 311 304
f 304 311 312
f 304 312 305
f 305 312 313
f 306 314 307
f 307 314 315
f 307 315 308
f 308 315 316
f 308 316 309
f 309 316 317
f 309 317 5
f 310 5 318
f 310 318 311
f 311 318 319
f 311 319 312
f 312 319 320
f 312 320 313
f 313 320 321
f 314 322 315
f 315 322 323
f 315 323 316
f 316 323 324
f 316 324 317
f 317 324 325
f 317 325 5
f 318 5 326
f 318 326 319
f 319 326 327
f 319 327 320
f 320 327 328
f 320 328 321
f 321 328 329
f 322 330 323
f 323 330 331
f 323 331 324
f 324 331 332
f 324 332 325
f 325 332 333
f 325 333 5
f 326 5 334
f 326 334 327
f 327 334 335
f 327 335 328
f 328 335 336
f 328 336 329
f 329 336 337
f 330 338 331
f 331 338 339
f 331 339 332
f 332 339 340
f 332 340 333
f 333 340 341
f 333 341 5
f 334 5 342
f 334 342 335
f 335 342 343
f 335 343 336
f 336 343 344
f 336 344 337
f 337 344 345
f 338 346 339
f 339 346 347
f 339 347 340
f 340 347 348
f 340 348 341
f 341 348 349
f 341 349 5
f 342 5 350
f 342 350 343
f 343 350 351
f 343 351 344
f 344 351 352
f 344 352 345
f 345 352 353
f 346 354 347
f 347 354 355
f 347 355 348
f 348 355 356
f 348 356 349
f 349 356 357
f 349 357 5
f 350 5 358
f 350 358 351
f 351 358 359
f 351 359 352
f 352 359 360
f 352 360 353
f 353 360 361
f 354 362 355
f 355 362 363
f 355 363 356
f 356 363 364
f 356 364 357
f 357 364 365
f 357 365 5
f 358 5 366
f 358 366 359
f 359 366 367
f 359 367 360
f 360 367 368
f 360 368 361
f 361 368 369
f 362 370 363
f 363 370 371
f 363 371 364
f 364 371 372
f 364 372 365
f 365 372 373
f 365 373 5
f 366 5 374
f 366 374 367
f 367 374 375
f 367 375 368
f 368 375 376
f 368 376 369
f 369 376 377
f 370 378 371
f 371 378 379
f 371 379 372
f 372 379 380
f 372 380 373
f 373 380 381
f 373 381 5
f 374 5 382
f 374 382 375
f 375 382 383
f 375 383 376
f 376 383 384
f 376 384 377
f 377 384 385
f 378 386 379
f 379 386 387
f 379 387 380
f 380 387 388
f 380 388 381
f 381 388 389
f 381 389 5
f 382 5 390
f 382 390 383
f 383 390 391
f 383 391 384
f 384 391 392
f 384 392 385
f 385 392 393
f 386 394 387
f 387 394 395
f 387 395 388
f 388 395 396
f 388 396 389
f 389 396 397
f 389 397 5
f 390 5 398
f 390 398 391
f 391 398 399
f 391 399 392
f 392 399 400
f 392 400 393
f 393 400 401
f 394 402 395
f 395 402 403
f 395 403 396
f 396 403 404
f 396 404 397
f 397 404 405
f 397 405 5
f 398 5 406
f 398 406 399
f 399 406 407
f 399 407 400
f 400 407 408
f 400 408 401
f 401 408 409
f 402 410 403
f 403 410 411
f 403 411 404
f 404 411 412
f 404 412 405
f 405 412 413
f 405 413 5
f 406 5 414
f 406 414 407
f 407 414 415
f 407 415 408
f 408 415 416
f 408 416 409
f 409 416 417
f 410 418 411
f 411 418 419
f 411 419 412
f 412 419 420
f 412 420 413
f 413 420 421
f 413 421 5
f 414 5 422
f 414 422 415
f 415 422 423
f 415 423 416
f 416 423 424
f 416 424 417
f 417 424 425
f 418 426 419
f 419 426 427
f 419 427 420
f 420 427 428
f 420 428 421
f 421 428 429
f 421 429 5
f 422 5 430
f 422 430 423
f 423 430 431
f 423 431 424
f 424 431 432
f 424 432 425
f 425 432 433
f 426 434 427
f 427 434 435
f 427 435 428
f 428 435 436
f 428 436 429
f 429 436 437
f 429 437 5
f 430 5 438
f 430 438 431
f 431 438 439
f 431 439 432
f 432 439 440
f 432 440 433
f 433 440 441
f 434 442 435
f 435 442 443
f 435 443 436
f 436 443 444
f 436 444 437
f 437 444 445
f 437 445 5
f 438 5 446
f 438 446 439
f 439 446 447
f 439 447 440
f 440 447 448
f 440 448 441
f 441 448 449
f 442 450 443
f 443 450 451
f 443 451 444
f 444 451 452
f 444 452 445
f 445 452 453
f 445 453 5
f 446 5 454
f 446 454 447
f 447 454 455
f 447 455 448
f 448 455 456
f 448 456 449
f 449 456 457
f 450 458 451
f 451 458 459
f 451 459 452
f 452 459 460
f 452 460 453
f 453 460 461
f 453 461 5
f 454 5 462
f 454 462 455
f 455 462 463
f 455 463 456
f 456 463 464
f 456 464 457
f 457 464 465
f 458 466 459
f 459 466 467
f 459 467 460
f 460 467 468
f 460 468 461
f 461 468 469
f 461 469 5
f 462 5 470
f 462 470 463
f 463 470 471
f 463 471 464
f 464 471 472
f 464 472 465
f 465 472 473
f 466 474 467
f 467 474 475
f 467 475 468
f 468 475 476
f 468 476 469
f 469 476 477
f 469 477 5
f 470 5 478
f 470 478 471
f 471 478 479
f 471 479 472
f 472 479 480
f 472 480 473
f 473 480 481
f 474 482 475
f 475 482 483
f 475 483 476
f 476 483 484
f 476 484 477
f 477 484 485
f 477 485 5
f 478 5 486
f 478 486 479
f 479 486 487
f 479 487 480
f 480 487 488
f 480 488 481
f 481 488 489
f 482 490 483
f 483 490 491
f 483 491 484
f 484 491 492
f 484 492 485
f 485 492 493
f 485 493 5
f 486 5 494
f 486 494 487
f 487 494 495
f 487 495 488
f 488 495 496
f 488 496 489
f 489 496 497
f 490 498 491
f 491 498 499
f 491 499 492
f 492 499 500
f 492 500 493
f 493 500 501
f 493 501 5
f 494 5 502
f 494 502 495
f 495 502 503
f 495 503 496
f 496 503 504
f 496 504 497
f 497 504 505
f 498 506 499
f 499 506 507
f 499 507 500
f 500 507 508
f 500 508 501
f 501 508 509
f 501 509 5
f 502 5 510
f 502 510 503
f 503 510 511
f 503 511 504
f 504 511 512
f 504 512 505
f 505 512 513
f 506 514 507
f 507 514 515
f 507 515 508
f 508 515 516
f 508 516 509
f 509 516 517
f 509 517 5
f 510 5 518
f 510 518 511
f 511 518 519
f 511 519 512
f 512 519 520
f 512 520 513
f 513 520 521
f 514 522 515
f 515 522 523
f 515 523 516
f 516 523 524
f 516 524 517
f 517 524 525
f 517 525 5
f 518 5 526
f 518 526 519
f 519 526 527
f 519 527 520
f 520 527 528
f 520 528 521
f 521 528 529
f 522 530 523
f 523 530 531
f 523 531 524
f 524 531 532
f 524 532 525
f 525 532 533
f 525 533 5
f 526 5 534
f 526 534 527
f 527 534 535
f 527 535 528
f 528 535 536
f 528 536 529
f 529 536 537
f 530 538 531
f 531 538 539
f 531 539 532
f 532 539 540
f 532 540 533
f 533 540 541
f 533 541 5
f 534 5 542
f 534 542 535
f 535 542 543
f 535 543 536
f 536 543 544
f 536 544 537
f 537 544 545
f 538 546 539
f 539 546 547
f 539 547 540
f 540 547 548
f 540 548 541
f 541 548 549
f 541 549 5
f 542 5 550
f 542 550 543
f 543 550 551
f 543 551 544
f 544 551 552
f 544 552 545
f 545 552 553
f 546 554 547
f 547 554 555
f 547 555 548
f 548 555 556
f 548 556 549
f 549 556 557
f 549 557 5
f 550 5 558
f 550 558 551
f 551 558 559
f 551 559 552
f 552 559 560
f 552 560 553
f 553 560 561
f 554 562 555
f 555 562 563
f 555 563 556
f 556 563 564
f 556 564 557
f 557 564 565
f 557 565 5
f 558 5 566
f 558 566 559
f 559 566 567
f 559 567 560
f 560 567 568
f 560 568 561
f 561 568 569
f 562 570 563
f 563 570 571
f 563 571 564
f 564 571 572
f 564 572 565
f 565 572 573
f 565 573 5
f 566 5 574
f 566 574 567
f 567 574 575
f 567 575 568
f 568 575 576
f 568 576 569
f 569 576 577
f 570 1 571
f 571 1 2
f 571 2 572
f 572 2 3
f 572 3 573
f 573 3 4
f 573 4 5
f 574 5 6
f 574 6 575
f 575 6 7
f 575 7 576
f 576 7 8
f 576 8 577
f 577 8 9

