# https://github.com/mikedh/trimesh
v -0.18253428 0.20833582 -0.00863027
v -0.18253428 0.12170002 -0.00863027
v -0.18253428 0.13719841 -0.00863027
v 0.18105262 0.20833582 -0.00863027
v -0.18253428 0.19983346 0.49977340
v -0.18253428 0.27097087 0.49977340
v -0.16588147 0.12170002 -0.00863027
v -0.18239274 0.19787068 0.50000000
v 0.18105262 0.27097087 0.49977340
v 0.16439980 0.12170002 -0.00863027
v 0.18105262 0.19983346 0.49977340
v -0.18253428 0.13682572 -0.01165139
v 0.16659048 0.12187987 -0.00863027
v 0.16439980 0.18236709 0.48379584
v -0.18239274 0.13488306 -0.01126376
v 0.18091107 0.19787068 0.50000000
v 0.18105262 0.13719841 -0.00863027
v 0.16873701 0.12231294 -0.00863027
v -0.16588147 0.18236709 0.48379584
v -0.18197070 0.19590075 0.49990001
v 0.18091107 0.13520771 -0.00863027
v 0.17080433 0.12299209 -0.00863027
v 0.16659048 0.18285016 0.48625987
v -0.16807215 0.18285016 0.48625987
v -0.18197070 0.13297287 -0.01088199
v 0.18048904 0.19590075 0.49990001
v 0.18048904 0.13325012 -0.00863027
v 0.18105262 0.13682572 -0.01165139
v 0.17275867 0.12390693 -0.00863027
v 0.16873701 0.18357476 0.48862456
v -0.16807215 0.12187532 -0.00866533
v -0.18127467 0.19395615 0.49947538
v 0.17979301 0.13135746 -0.00863027
v 0.18091107 0.13488306 -0.01126376
v 0.17456758 0.12504188 -0.00863027
v 0.17080433 0.12296158 -0.00888219
v 0.17080433 0.18452856 0.49085095
v -0.17021868 0.18357476 0.48862456
v -0.18127467 0.13112566 -0.01051319
v 0.17979301 0.19395615 0.49947538
v 0.17883532 0.12956219 -0.00863027
v 0.18048904 0.13297287 -0.01088199
v 0.17620052 0.12637810 -0.00863027
v 0.17275867 0.12385434 -0.00906075
v 0.17275867 0.18569597 0.49290269
v -0.17228665 0.18452856 0.49085095
v -0.17021868 0.12229801 -0.00874974
v -0.18031698 0.19206933 0.49873260
v 0.17763090 0.12789288 -0.00863027
v 0.17979301 0.13112566 -0.01051319
v 0.17883532 0.19206933 0.49873260
v 0.17456758 0.12496137 -0.00928215
v 0.17456758 0.18705751 0.49474470
v -0.17424099 0.18569597 0.49290269
v -0.18031698 0.12937325 -0.01016323
v 0.17883532 0.12937325 -0.01016323
v 0.17763090 0.19027082 0.49768401
v 0.17763090 0.12774420 -0.00983794
v 0.17620052 0.18859112 0.49634778
v 0.17620052 0.12626578 -0.00954252
v -0.17604924 0.18705751 0.49474470
v -0.17228665 0.12296158 -0.00888219
v -0.17911256 0.19027082 0.49768401
v -0.17424099 0.12385434 -0.00906075
v -0.17911256 0.12774420 -0.00983794
v -0.17768219 0.18859112 0.49634778
v -0.17604924 0.12496137 -0.00928215
v -0.17768219 0.12626578 -0.00954252
v -0.20574161 0.20899744 -0.11893764
v 0.23094354 -0.29151225 -0.11893764
v -0.23094354 -0.29151225 -0.11893764
v 0.20574161 0.20899744 -0.11893764
v 0.23094354 -0.29151225 -0.03420359
v -0.21158451 0.09296080 -0.03420359
v -0.00003376 0.20899744 -0.06377519
v 0.22510064 -0.17547560 -0.03420359
v -0.23094354 -0.29151225 -0.03420359
v -0.20574161 0.20899744 -0.03420359
v -0.00000000 0.20899744 -0.06378428
v 0.20574161 0.20899744 -0.03420359
v 0.23072408 -0.29129603 -0.03091497
v -0.20553449 0.20898640 -0.03091497
v -0.23072473 -0.29129603 -0.03091497
v -0.19309942 0.20899744 -0.01201953
v 0.20553319 0.20899744 -0.03091497
v 0.23007090 -0.29065065 -0.02768024
v -0.23007155 -0.29065065 -0.02768024
v -0.20491313 0.20899744 -0.02768024
v 0.20491248 0.20899744 -0.02768024
v 0.20491507 0.20895264 -0.02768024
v -0.20491507 0.20895264 -0.02768024
v -0.20388986 0.20899744 -0.02455459
v 0.20388921 0.20899744 -0.02455459
v 0.22899439 -0.28958712 -0.02455459
v -0.22899504 -0.28958712 -0.02455459
v -0.20248091 0.20899744 -0.02158867
v 0.20248091 0.20899744 -0.02158867
v 0.20389440 0.20889680 -0.02455459
v -0.20389505 0.20889680 -0.02455459
v -0.20071032 0.20899744 -0.01883181
v 0.20071032 0.20899744 -0.01883181
v 0.22751208 -0.28812299 -0.02158867
v -0.22751273 -0.28812299 -0.02158867
v -0.19860729 0.20899744 -0.01633077
v 0.19860664 0.20899744 -0.01633077
v 0.20249000 0.20882019 -0.02158867
v -0.20249000 0.20882019 -0.02158867
v -0.19620624 0.20899744 -0.01412581
v 0.19620624 0.20899744 -0.01412581
v 0.22564863 -0.28628292 -0.01883181
v -0.22564928 -0.28628292 -0.01883181
v -0.19354742 0.20899744 -0.01225457
v 0.19354742 0.20899744 -0.01225457
v 0.20072395 0.20872409 -0.01883181
v -0.20072460 0.20872409 -0.01883181
v 0.19067435 0.20899744 -0.01074758
v 0.22343523 -0.28409678 -0.01633077
v -0.22343588 -0.28409678 -0.01633077
v -0.19067499 0.20899744 -0.01074758
v 0.19862677 0.20860917 -0.01633077
v -0.19862677 0.20860917 -0.01633077
v -0.18763635 0.20899744 -0.00963017
v -0.22090952 -0.28160094 -0.01412581
v 0.22090887 -0.28160094 -0.01412581
v 0.18763635 0.20899744 -0.00963017
v 0.19623221 0.20847866 -0.01412581
v -0.19623221 0.20847866 -0.01412581
v -0.18448213 0.20899744 -0.00892050
v -0.21811111 -0.27883759 -0.01225457
v 0.21811111 -0.27883759 -0.01225457
v 0.18448213 0.20899744 -0.00892050
v 0.19358054 0.20833387 -0.01225457
v -0.19358119 0.20833387 -0.01225457
v -0.18133181 0.20899744 -0.00863027
v -0.21508869 -0.27585218 -0.01074758
v 0.21508804 -0.27585218 -0.01074758
v -0.18126493 0.20899744 -0.00863027
v 0.19071590 0.20817805 -0.01074758
v -0.19071655 0.20817805 -0.01074758
v 0.20518518 -0.26607138 -0.00863027
v 0.18133181 0.20899744 -0.00863027
v -0.21189097 -0.27269407 -0.00963017
v 0.21189032 -0.27269407 -0.00963017
v -0.18133181 0.20766576 -0.00863027
v 0.18126428 0.20899744 -0.00863027
v 0.18768569 0.20801248 -0.00963017
v -0.18768569 0.20801248 -0.00963017
v -0.20518582 -0.26607138 -0.00863027
v 0.18133181 0.20766576 -0.00863027
v -0.20857184 -0.26941519 -0.00892050
v 0.20857119 -0.26941519 -0.00892050
v -0.18454057 0.20784107 -0.00892050
v 0.18453992 0.20784107 -0.00892050
v -0.19819759 0.17064493 -0.18409516
v -0.16380181 0.17064493 -0.18409516
v -0.19819759 0.16672586 -0.15156023
v -0.16380181 0.17541067 -0.21652166
v -0.16380181 0.16672586 -0.15156023
v -0.19819759 0.19945558 -0.11893764
v -0.19819759 0.17541067 -0.21652166
v -0.16380181 0.19945558 -0.11893764
v -0.19819759 0.16365605 -0.11893764
v -0.16380181 0.18101983 -0.24881766
v -0.16380181 0.16365605 -0.11893764
v -0.19819759 0.18101983 -0.24881766
v -0.16380181 0.18746916 -0.28096237
v -0.19819759 0.18746916 -0.28096237
v -0.16380181 0.19475477 -0.31293567
v -0.19819759 0.19475477 -0.31293567
v -0.16380181 0.20287081 -0.34471548
v -0.19819759 0.20287081 -0.34471548
v -0.16380181 0.20252539 -0.15156023
v -0.19819759 0.20252539 -0.15156023
v -0.16380181 0.20644446 -0.18409516
v -0.16380181 0.21181273 -0.37628169
v -0.19819759 0.20644446 -0.18409516
v -0.19819759 0.21181273 -0.37628169
v -0.16380181 0.21121020 -0.21652166
v -0.16380181 0.22157471 -0.40761349
v -0.19819759 0.21121020 -0.21652166
v -0.16380181 0.21682001 -0.24881766
v -0.19819759 0.22157471 -0.40761349
v -0.19819759 0.21682001 -0.24881766
v -0.16380181 0.23214958 -0.43869079
v -0.16380181 0.22326934 -0.28096237
v -0.19819759 0.23214958 -0.43869079
v -0.19819759 0.22326934 -0.28096237
v -0.16380181 0.24353152 -0.46949278
v -0.16380181 0.23055429 -0.31293567
v -0.19819759 0.24353152 -0.46949278
v -0.16380181 0.23867033 -0.34471548
v -0.19819759 0.23055429 -0.31293567
v -0.16380181 0.25571272 -0.50000000
v -0.19819759 0.23867033 -0.34471548
v -0.16380181 0.24761226 -0.37628169
v -0.19819759 0.25571272 -0.50000000
v -0.19819759 0.24761226 -0.37628169
v -0.19819759 0.29151225 -0.50000000
v -0.16380181 0.25737423 -0.40761349
v -0.19819759 0.27933104 -0.46949278
v -0.16380181 0.29151225 -0.50000000
v -0.19819759 0.25737423 -0.40761349
v -0.16380181 0.26794976 -0.43869079
v -0.19819759 0.26794976 -0.43869079
v -0.16380181 0.27933104 -0.46949278
v 0.19826187 0.16544093 -0.15156023
v 0.16386609 0.16935935 -0.18409516
v 0.19826187 0.16935935 -0.18409516
v 0.16386609 0.16544093 -0.15156023
v 0.16386609 0.17412574 -0.21652166
v 0.19826187 0.19817064 -0.11893764
v 0.19826187 0.16237112 -0.11893764
v 0.16386609 0.19817064 -0.11893764
v 0.19826187 0.17412574 -0.21652166
v 0.16386609 0.16237112 -0.11893764
v 0.16386609 0.17973490 -0.24881766
v 0.19826187 0.17973490 -0.24881766
v 0.16386609 0.18618423 -0.28096237
v 0.19826187 0.18618423 -0.28096237
v 0.16386609 0.19346919 -0.31293567
v 0.19826187 0.19346919 -0.31293567
v 0.16386609 0.20158587 -0.34471548
v 0.19826187 0.20158587 -0.34471548
v 0.16386609 0.20124046 -0.15156023
v 0.19826187 0.20124046 -0.15156023
v 0.16386609 0.20515953 -0.18409516
v 0.16386609 0.21052780 -0.37628169
v 0.19826187 0.20515953 -0.18409516
v 0.19826187 0.21052780 -0.37628169
v 0.16386609 0.20992527 -0.21652166
v 0.16386609 0.22028913 -0.40761349
v 0.19826187 0.20992527 -0.21652166
v 0.16386609 0.21553442 -0.24881766
v 0.19826187 0.22028913 -0.40761349
v 0.19826187 0.21553442 -0.24881766
v 0.16386609 0.23086465 -0.43869079
v 0.16386609 0.22198375 -0.28096237
v 0.19826187 0.23086465 -0.43869079
v 0.19826187 0.22198375 -0.28096237
v 0.16386609 0.24224658 -0.46949278
v 0.16386609 0.22926936 -0.31293567
v 0.19826187 0.24224658 -0.46949278
v 0.16386609 0.23738540 -0.34471548
v 0.19826187 0.22926936 -0.31293567
v 0.16386609 0.25442714 -0.50000000
v 0.19826187 0.23738540 -0.34471548
v 0.16386609 0.24632733 -0.37628169
v 0.19826187 0.25442714 -0.50000000
v 0.19826187 0.24632733 -0.37628169
v 0.19826187 0.29022731 -0.50000000
v 0.16386609 0.25608930 -0.40761349
v 0.16386609 0.29022731 -0.50000000
v 0.19826187 0.27804611 -0.46949278
v 0.19826187 0.25608930 -0.40761349
v 0.16386609 0.26666418 -0.43869079
v 0.16386609 0.27804611 -0.46949278
v 0.19826187 0.26666418 -0.43869079
v 0.18672021 -0.24548391 -0.11893764
v 0.18672021 -0.28128344 -0.50000000
v 0.18672021 -0.28128344 -0.11893764
v 0.18672021 -0.24548391 -0.50000000
v 0.22111599 -0.28128344 -0.11893764
v 0.22111599 -0.24548391 -0.50000000
v 0.22111599 -0.28128344 -0.50000000
v 0.22111599 -0.24548391 -0.11893764
v -0.18672021 -0.28128344 -0.11893764
v -0.18672021 -0.28128344 -0.50000000
v -0.18672021 -0.24548391 -0.11893764
v -0.22111664 -0.28128344 -0.11893764
v -0.18672021 -0.24548391 -0.50000000
v -0.22111664 -0.28128344 -0.50000000
v -0.22111664 -0.24548391 -0.50000000
v -0.22111664 -0.24548391 -0.11893764
f 1 2 3
f 2 1 4
f 5 1 3
f 3 1 5
f 6 4 1
f 2 4 7
f 1 5 6
f 6 5 1
f 8 3 5
f 5 3 8
f 4 6 9
f 7 4 10
f 6 11 5
f 5 11 6
f 8 12 3
f 3 12 8
f 11 8 5
f 5 8 11
f 11 6 9
f 9 6 11
f 11 4 9
f 9 4 11
f 10 4 13
f 10 7 14
f 12 8 15
f 15 8 12
f 8 11 16
f 16 11 8
f 4 11 17
f 17 11 4
f 13 4 18
f 10 13 14
f 19 14 7
f 20 15 8
f 8 15 20
f 17 16 11
f 11 16 17
f 16 20 8
f 8 20 16
f 21 4 17
f 18 4 22
f 23 18 13
f 13 18 23
f 23 14 13
f 19 14 24
f 19 24 7
f 15 20 25
f 25 20 15
f 16 17 21
f 21 17 16
f 20 16 26
f 26 16 20
f 27 4 21
f 28 21 17
f 22 4 29
f 30 22 18
f 18 22 30
f 18 23 30
f 30 23 18
f 23 24 14
f 31 7 24
f 32 25 20
f 20 25 32
f 21 26 16
f 16 26 21
f 26 32 20
f 20 32 26
f 33 4 27
f 34 27 21
f 26 21 27
f 27 21 26
f 21 28 34
f 29 4 35
f 29 36 22
f 37 29 22
f 22 29 37
f 22 30 37
f 37 30 22
f 23 38 30
f 30 38 23
f 38 23 24
f 24 23 38
f 31 38 24
f 24 38 31
f 25 32 39
f 39 32 25
f 32 26 40
f 40 26 32
f 41 4 33
f 42 33 27
f 40 27 33
f 33 27 40
f 27 34 42
f 27 40 26
f 26 40 27
f 35 4 43
f 35 44 29
f 45 35 29
f 29 35 45
f 36 29 44
f 29 37 45
f 45 37 29
f 30 46 37
f 37 46 30
f 46 30 38
f 38 30 46
f 38 31 47
f 47 31 38
f 48 39 32
f 32 39 48
f 40 48 32
f 32 48 40
f 49 4 41
f 50 41 33
f 51 33 41
f 41 33 51
f 33 42 50
f 33 51 40
f 40 51 33
f 43 4 49
f 43 52 35
f 53 43 35
f 35 43 53
f 44 35 52
f 35 45 53
f 53 45 35
f 37 54 45
f 45 54 37
f 54 37 46
f 46 37 54
f 47 46 38
f 38 46 47
f 39 48 55
f 55 48 39
f 48 40 51
f 51 40 48
f 56 49 41
f 57 41 49
f 49 41 57
f 41 50 56
f 41 57 51
f 51 57 41
f 58 43 49
f 59 49 43
f 43 49 59
f 52 43 60
f 43 53 59
f 59 53 43
f 45 61 53
f 53 61 45
f 61 45 54
f 54 45 61
f 62 54 46
f 46 54 62
f 46 47 62
f 62 47 46
f 63 55 48
f 48 55 63
f 51 63 48
f 48 63 51
f 49 56 58
f 49 59 57
f 57 59 49
f 63 51 57
f 57 51 63
f 43 58 60
f 61 59 53
f 53 59 61
f 64 61 54
f 54 61 64
f 54 62 64
f 64 62 54
f 55 63 65
f 65 63 55
f 66 57 59
f 59 57 66
f 57 66 63
f 63 66 57
f 59 61 66
f 66 61 59
f 61 64 67
f 67 64 61
f 66 65 63
f 63 65 66
f 67 66 61
f 61 66 67
f 65 66 68
f 68 66 65
f 66 67 68
f 68 67 66
f 3 2 1
f 4 1 2
f 1 4 6
f 7 4 2
f 9 6 4
f 10 4 7
f 13 4 10
f 18 4 13
f 14 13 10
f 17 4 21
f 22 4 18
f 13 14 23
f 24 14 19
f 7 24 19
f 21 4 27
f 17 21 28
f 29 4 22
f 14 24 23
f 24 7 31
f 27 4 33
f 21 27 34
f 34 28 21
f 35 4 29
f 22 36 29
f 33 4 41
f 27 33 42
f 42 34 27
f 43 4 35
f 29 44 35
f 44 29 36
f 41 4 49
f 33 41 50
f 50 42 33
f 49 4 43
f 35 52 43
f 52 35 44
f 41 49 56
f 56 50 41
f 49 43 58
f 60 43 52
f 58 56 49
f 60 58 43
f 14 7 10
f 7 14 19
f 69 70 71
f 70 69 72
f 73 71 70
f 74 69 71
f 75 72 69
f 76 70 72
f 71 73 77
f 70 76 73
f 69 74 78
f 74 71 77
f 72 75 79
f 78 75 69
f 80 76 72
f 81 77 73
f 76 81 73
f 74 82 78
f 83 74 77
f 80 79 75
f 79 80 72
f 75 78 84
f 85 76 80
f 77 81 83
f 81 76 85
f 74 83 82
f 84 78 82
f 80 75 84
f 80 84 85
f 86 83 81
f 85 86 81
f 87 82 83
f 84 82 88
f 85 84 89
f 83 86 87
f 86 85 90
f 82 87 91
f 84 88 92
f 89 84 93
f 94 87 86
f 90 94 86
f 95 91 87
f 84 92 96
f 93 84 97
f 87 94 95
f 94 90 98
f 91 95 99
f 84 96 100
f 97 84 101
f 102 95 94
f 98 102 94
f 103 99 95
f 84 100 104
f 101 84 105
f 95 102 103
f 102 98 106
f 99 103 107
f 84 104 108
f 105 84 109
f 110 103 102
f 106 110 102
f 111 107 103
f 84 108 112
f 109 84 113
f 103 110 111
f 110 106 114
f 107 111 115
f 113 84 116
f 117 111 110
f 114 117 110
f 118 115 111
f 116 84 119
f 111 117 118
f 117 114 120
f 115 118 121
f 116 119 122
f 117 123 118
f 120 124 117
f 123 121 118
f 116 122 125
f 123 117 124
f 124 120 126
f 121 123 127
f 125 122 128
f 124 129 123
f 126 130 124
f 129 127 123
f 125 128 131
f 129 124 130
f 130 126 132
f 127 129 133
f 131 128 134
f 130 135 129
f 132 136 130
f 135 133 129
f 131 134 137
f 135 130 136
f 136 132 138
f 133 135 139
f 137 141 131
f 136 142 135
f 138 143 136
f 142 139 135
f 141 137 145
f 142 136 143
f 143 138 146
f 139 142 147
f 143 150 142
f 146 151 143
f 150 147 142
f 152 148 144
f 148 151 140
f 140 153 149
f 150 143 151
f 151 146 153
f 147 150 152
f 148 152 150
f 151 148 150
f 153 140 151
f 71 70 69
f 72 69 70
f 70 71 73
f 71 69 74
f 69 72 75
f 72 70 76
f 77 73 71
f 73 76 70
f 78 74 69
f 77 71 74
f 79 75 72
f 69 75 78
f 72 76 80
f 73 77 81
f 73 81 76
f 78 82 74
f 77 74 83
f 75 79 80
f 72 80 79
f 84 78 75
f 80 76 85
f 83 81 77
f 85 76 81
f 82 83 74
f 82 78 84
f 84 75 80
f 85 84 80
f 81 83 86
f 81 86 85
f 83 82 87
f 88 82 84
f 89 84 85
f 87 86 83
f 90 85 86
f 91 87 82
f 92 88 84
f 93 84 89
f 86 87 94
f 86 94 90
f 87 91 95
f 96 92 84
f 97 84 93
f 95 94 87
f 98 90 94
f 99 95 91
f 100 96 84
f 101 84 97
f 94 95 102
f 94 102 98
f 95 99 103
f 104 100 84
f 105 84 101
f 103 102 95
f 106 98 102
f 107 103 99
f 108 104 84
f 109 84 105
f 102 103 110
f 102 110 106
f 103 107 111
f 112 108 84
f 113 84 109
f 111 110 103
f 114 106 110
f 115 111 107
f 116 84 113
f 110 111 117
f 110 117 114
f 111 115 118
f 119 84 116
f 118 117 111
f 120 114 117
f 121 118 115
f 122 119 116
f 118 123 117
f 117 124 120
f 118 121 123
f 125 122 116
f 124 117 123
f 126 120 124
f 127 123 121
f 128 122 125
f 123 129 124
f 124 130 126
f 123 127 129
f 131 128 125
f 130 124 129
f 132 126 130
f 133 129 127
f 134 128 131
f 129 135 130
f 130 136 132
f 129 133 135
f 137 134 131
f 136 130 135
f 138 132 136
f 139 135 133
f 137 140 134
f 131 141 137
f 135 142 136
f 136 143 138
f 135 139 142
f 134 140 144
f 145 140 137
f 145 137 141
f 143 136 142
f 146 138 143
f 147 142 139
f 148 144 140
f 149 140 145
f 149 145 141
f 142 150 143
f 143 151 146
f 142 147 150
f 144 148 152
f 140 151 148
f 149 153 140
f 151 143 150
f 153 146 151
f 152 150 147
f 150 152 148
f 150 148 151
f 151 140 153
f 134 140 137
f 144 140 134
f 137 140 145
f 140 144 148
f 145 140 149
f 141 145 149
f 154 155 156
f 156 155 154
f 155 154 157
f 157 154 155
f 158 156 155
f 155 156 158
f 154 156 159
f 159 156 154
f 160 157 154
f 154 157 160
f 157 161 155
f 155 161 157
f 156 158 162
f 162 158 156
f 155 161 158
f 158 161 155
f 162 159 156
f 156 159 162
f 160 154 159
f 159 154 160
f 157 160 163
f 163 160 157
f 163 161 157
f 157 161 163
f 164 162 158
f 158 162 164
f 164 158 161
f 161 158 164
f 165 160 159
f 159 160 165
f 165 163 160
f 160 163 165
f 166 161 163
f 163 161 166
f 167 165 159
f 159 165 167
f 163 165 166
f 166 165 163
f 168 161 166
f 166 161 168
f 167 166 165
f 165 166 167
f 169 167 159
f 159 167 169
f 170 161 168
f 168 161 170
f 166 167 168
f 168 167 166
f 169 168 167
f 167 168 169
f 171 169 159
f 159 169 171
f 172 161 170
f 170 161 172
f 168 169 170
f 170 169 168
f 171 170 169
f 169 170 171
f 173 171 159
f 159 171 173
f 161 172 159
f 159 172 161
f 174 172 170
f 170 172 174
f 170 171 175
f 175 171 170
f 176 171 173
f 173 171 176
f 173 159 172
f 172 159 173
f 172 174 173
f 173 174 172
f 175 174 170
f 170 174 175
f 177 175 171
f 171 175 177
f 177 171 176
f 176 171 177
f 176 173 174
f 174 173 176
f 178 174 175
f 175 174 178
f 175 177 179
f 179 177 175
f 180 177 176
f 176 177 180
f 174 178 176
f 176 178 174
f 181 178 175
f 175 178 181
f 182 179 177
f 177 179 182
f 179 181 175
f 175 181 179
f 183 177 180
f 180 177 183
f 180 176 178
f 178 176 180
f 178 181 180
f 180 181 178
f 179 182 184
f 184 182 179
f 182 177 183
f 183 177 182
f 185 181 179
f 179 181 185
f 183 180 181
f 181 180 183
f 186 184 182
f 182 184 186
f 184 185 179
f 179 185 184
f 187 182 183
f 183 182 187
f 181 185 183
f 183 185 181
f 184 186 188
f 188 186 184
f 186 182 187
f 187 182 186
f 189 185 184
f 184 185 189
f 187 183 185
f 185 183 187
f 190 188 186
f 186 188 190
f 188 191 184
f 184 191 188
f 192 186 187
f 187 186 192
f 185 189 187
f 187 189 185
f 191 189 184
f 184 189 191
f 188 190 193
f 193 190 188
f 190 186 194
f 194 186 190
f 195 191 188
f 188 191 195
f 194 186 192
f 192 186 194
f 192 187 189
f 189 187 192
f 189 191 192
f 192 191 189
f 196 193 190
f 190 193 196
f 193 195 188
f 188 195 193
f 197 190 194
f 194 190 197
f 191 195 194
f 194 195 191
f 194 192 191
f 191 192 194
f 196 198 193
f 193 198 196
f 196 190 197
f 197 190 196
f 199 195 193
f 193 195 199
f 197 194 195
f 195 194 197
f 198 196 200
f 200 196 198
f 201 193 198
f 198 193 201
f 202 196 197
f 197 196 202
f 195 199 197
f 197 199 195
f 203 199 193
f 193 199 203
f 200 196 204
f 204 196 200
f 198 200 201
f 201 200 198
f 201 205 193
f 193 205 201
f 204 196 202
f 202 196 204
f 202 197 199
f 199 197 202
f 199 203 202
f 202 203 199
f 205 203 193
f 193 203 205
f 200 204 205
f 205 204 200
f 205 201 200
f 200 201 205
f 204 202 203
f 203 202 204
f 203 205 204
f 204 205 203
f 206 207 208
f 207 206 209
f 208 207 206
f 209 206 207
f 210 208 207
f 207 208 210
f 211 206 208
f 208 206 211
f 212 209 206
f 206 209 212
f 209 213 207
f 207 213 209
f 208 210 214
f 214 210 208
f 207 213 210
f 210 213 207
f 206 211 212
f 212 211 206
f 211 208 214
f 214 208 211
f 209 212 215
f 215 212 209
f 213 209 215
f 215 209 213
f 216 214 210
f 210 214 216
f 210 213 216
f 216 213 210
f 211 214 217
f 217 214 211
f 214 216 217
f 217 216 214
f 216 213 218
f 218 213 216
f 211 217 219
f 219 217 211
f 218 217 216
f 216 217 218
f 218 213 220
f 220 213 218
f 217 218 219
f 219 218 217
f 211 219 221
f 221 219 211
f 220 213 222
f 222 213 220
f 220 219 218
f 218 219 220
f 219 220 221
f 221 220 219
f 211 221 223
f 223 221 211
f 222 213 224
f 224 213 222
f 222 221 220
f 220 221 222
f 221 222 223
f 223 222 221
f 211 223 225
f 225 223 211
f 211 224 213
f 213 224 211
f 222 224 226
f 226 224 222
f 227 223 222
f 222 223 227
f 225 223 228
f 228 223 225
f 224 211 225
f 225 211 224
f 225 226 224
f 224 226 225
f 222 226 227
f 227 226 222
f 223 227 229
f 229 227 223
f 228 223 229
f 229 223 228
f 226 225 228
f 228 225 226
f 227 226 230
f 230 226 227
f 231 229 227
f 227 229 231
f 228 229 232
f 232 229 228
f 228 230 226
f 226 230 228
f 227 230 233
f 233 230 227
f 229 231 234
f 234 231 229
f 227 233 231
f 231 233 227
f 232 229 235
f 235 229 232
f 230 228 232
f 232 228 230
f 232 233 230
f 230 233 232
f 236 234 231
f 231 234 236
f 235 229 234
f 234 229 235
f 231 233 237
f 237 233 231
f 233 232 235
f 235 232 233
f 234 236 238
f 238 236 234
f 231 237 236
f 236 237 231
f 235 234 239
f 239 234 235
f 235 237 233
f 233 237 235
f 240 238 236
f 236 238 240
f 239 234 238
f 238 234 239
f 236 237 241
f 241 237 236
f 237 235 239
f 239 235 237
f 238 240 242
f 242 240 238
f 236 243 240
f 240 243 236
f 239 238 244
f 244 238 239
f 239 241 237
f 237 241 239
f 236 241 243
f 243 241 236
f 245 242 240
f 240 242 245
f 246 238 242
f 242 238 246
f 240 243 247
f 247 243 240
f 244 238 246
f 246 238 244
f 241 239 244
f 244 239 241
f 244 243 241
f 241 243 244
f 242 245 248
f 248 245 242
f 240 247 245
f 245 247 240
f 246 242 249
f 249 242 246
f 246 247 243
f 243 247 246
f 243 244 246
f 246 244 243
f 245 250 248
f 248 250 245
f 249 242 248
f 248 242 249
f 245 247 251
f 251 247 245
f 247 246 249
f 249 246 247
f 250 245 252
f 252 245 250
f 253 248 250
f 250 248 253
f 249 248 254
f 254 248 249
f 249 251 247
f 247 251 249
f 245 251 255
f 255 251 245
f 245 256 252
f 252 256 245
f 252 253 250
f 250 253 252
f 257 248 253
f 253 248 257
f 254 248 257
f 257 248 254
f 251 249 254
f 254 249 251
f 254 255 251
f 251 255 254
f 245 255 256
f 256 255 245
f 253 252 256
f 256 252 253
f 256 257 253
f 253 257 256
f 255 254 257
f 257 254 255
f 257 256 255
f 255 256 257
f 258 259 260
f 259 258 261
f 260 259 258
f 261 258 259
f 259 262 260
f 260 262 259
f 258 263 261
f 261 263 258
f 261 264 259
f 259 264 261
f 262 259 264
f 264 259 262
f 263 258 265
f 265 258 263
f 264 261 263
f 263 261 264
f 263 262 264
f 264 262 263
f 262 263 265
f 265 263 262
f 266 267 268
f 268 267 266
f 266 269 267
f 267 269 266
f 270 268 267
f 267 268 270
f 271 267 269
f 269 267 271
f 270 272 268
f 268 272 270
f 267 271 270
f 270 271 267
f 271 269 272
f 272 269 271
f 272 270 271
f 271 270 272
f 273 268 272
f 272 268 273
f 273 272 269
f 269 272 273

