# https://github.com/mikedh/trimesh

o 3.obj
v 0.08222433 -0.01653757 0.00187905
v 0.08515999 0.01653769 0.00187905
v 0.08515999 -0.01653757 0.00187905
v 0.08222433 0.01653769 0.00187905
v 0.08662783 -0.01800540 0.00187905
v 0.08515999 0.01653769 -0.00252445
v 0.08515999 -0.01653757 -0.00252445
v 0.07488516 -0.01800540 0.00187905
v 0.08219891 -0.01653757 0.00187905
v 0.08219891 0.01653769 0.00187905
v 0.07488516 0.01800552 0.00187905
v 0.08662783 0.01800552 0.00187905
v 0.08220365 -0.01653757 -0.00252445
v 0.08662783 -0.01800540 -0.00252445
v 0.08515999 0.01506985 -0.00289141
v 0.08220365 0.01653769 -0.00252445
v 0.07633232 -0.01653757 -0.00546012
v 0.07488516 -0.01800540 -0.00252445
v 0.07488516 -0.01653757 0.00187905
v 0.07488516 0.01653769 0.00187905
v 0.08662783 0.01800552 -0.00252445
v 0.08515999 0.01506985 -0.00546012
v 0.08515999 -0.01506973 -0.00289141
v 0.07633232 0.01653769 -0.00546012
v 0.07488516 0.01800552 -0.00252445
v 0.08515999 -0.01653757 -0.00546012
v 0.07633232 -0.01653757 -0.00252445
v 0.08515999 0.01653769 -0.00546012
v 0.08515999 0.01506985 -0.00509316
v 0.08476859 0.01506985 -0.00289141
v 0.07633232 0.01653769 -0.00252445
v 0.08220365 -0.01653757 -0.00546012
v 0.07633232 -0.01506973 -0.00546012
v 0.08476859 0.01506985 -0.00546012
v 0.08515999 -0.01506973 -0.00546012
v 0.08476859 0.01506985 -0.00509316
v 0.08515999 0.01506985 -0.00472620
v 0.08476859 -0.01506973 -0.00289141
v 0.08515999 0.01506985 -0.00325837
v 0.08515999 -0.01506973 -0.00325837
v 0.08220365 0.01653769 -0.00546012
v 0.07633232 0.01506985 -0.00289141
v 0.08515999 -0.01653757 -0.01353332
v 0.07488516 -0.01800540 -0.00545999
v 0.07633232 -0.01506973 -0.00509316
v 0.08476859 -0.01506973 -0.00546012
v 0.08515999 -0.01506973 -0.00509316
v 0.08515999 0.01506985 -0.00435924
v 0.08476859 -0.01506973 -0.00325837
v 0.08476859 0.01506985 -0.00325837
v 0.08515999 0.01506985 -0.00362532
v 0.08515999 -0.01506973 -0.00362532
v 0.07488516 0.01800552 -0.00545999
v 0.08515999 0.01653769 -0.01353332
v 0.07633232 0.01506985 -0.00546012
v 0.08221326 -0.01653757 -0.01353332
v 0.08662783 -0.01800540 -0.00546012
v 0.08259517 -0.01506973 -0.00546012
v 0.07633232 -0.01506973 -0.00472620
v 0.08259517 -0.01506973 -0.00509316
v 0.07633232 -0.01506973 -0.00289141
v 0.08259517 0.01506985 -0.00546012
v 0.08662783 0.01800552 -0.00546012
v 0.08476859 -0.01506973 -0.00509316
v 0.08515999 -0.01506973 -0.00472620
v 0.08476859 0.01506985 -0.00435924
v 0.08515999 0.01506985 -0.00399228
v 0.08515999 -0.01506973 -0.00399228
v 0.08221326 0.01653769 -0.01353332
v 0.07633232 0.01506985 -0.00325837
v 0.08663014 -0.01800540 -0.01500079
v 0.07633232 -0.01506973 -0.00435924
v 0.07633232 0.01506985 -0.00509316
v 0.07633232 -0.01506973 -0.00325837
v 0.08259517 -0.01506973 -0.00289141
v 0.08476859 -0.01506973 -0.00472620
v 0.08476859 0.01506985 -0.00472620
v 0.08515999 -0.01506973 -0.00435924
v 0.08476859 0.01506985 -0.00362532
v 0.08476859 -0.01506973 -0.00399228
v 0.08663014 0.01800552 -0.01500079
v 0.08259517 0.01506985 -0.00509316
v 0.07488504 0.01029271 -0.01181830
v 0.08259517 0.01506985 -0.00289141
v 0.07633232 0.01506985 -0.00362532
v 0.08662928 0.00038349 -0.01500079
v 0.07488492 -0.01800540 -0.01500225
v 0.08662928 -0.00038337 -0.01500079
v 0.07633232 -0.01506973 -0.00399228
v 0.08259517 -0.01506973 -0.00435924
v 0.07633232 0.01506985 -0.00472620
v 0.07633232 -0.01506973 -0.00362532
v 0.08476859 -0.01506973 -0.00435924
v 0.08476859 0.01506985 -0.00399228
v 0.08476859 -0.01506973 -0.00362532
v 0.07488479 0.01800552 -0.01500225
v 0.07488479 -0.00000000 -0.01046330
v 0.08259517 0.01506985 -0.00325837
v 0.07633232 0.01506985 -0.00399228
v 0.07488516 -0.01797950 -0.01500225
v 0.07633232 0.01506985 -0.00435924
v 0.08259517 -0.01506973 -0.00472620
v 0.08259517 0.01506985 -0.00472620
v 0.08259517 -0.01506973 -0.00325837
v 0.07488516 0.01797938 -0.01500225
v 0.07488504 -0.01029259 -0.01181830
v 0.08259517 0.01506985 -0.00362532
v 0.08259517 -0.01506973 -0.00362532
v 0.08259517 0.01506985 -0.00435924
v 0.08259517 0.01506985 -0.00399228
v 0.08259517 -0.01506973 -0.00399228
f 1 2 3
f 2 1 4
f 3 2 1
f 4 1 2
f 2 5 3
f 3 6 2
f 2 6 3
f 7 1 3
f 3 1 7
f 1 3 8
f 9 4 1
f 1 4 9
f 2 10 4
f 4 10 2
f 4 11 2
f 8 3 5
f 5 2 12
f 6 3 7
f 7 3 6
f 6 10 2
f 2 10 6
f 1 7 13
f 13 7 1
f 9 1 8
f 4 9 10
f 10 9 4
f 10 11 4
f 11 12 2
f 14 8 5
f 12 14 5
f 14 6 7
f 7 6 14
f 6 13 7
f 7 13 6
f 6 15 7
f 10 6 16
f 16 6 10
f 7 17 13
f 18 7 13
f 13 7 18
f 19 9 8
f 20 9 10
f 10 9 20
f 20 11 10
f 12 11 21
f 8 14 18
f 14 12 21
f 21 6 14
f 14 6 21
f 7 18 14
f 14 18 7
f 13 6 16
f 16 6 13
f 6 22 15
f 7 15 23
f 6 25 16
f 16 25 6
f 26 17 7
f 27 13 17
f 18 13 27
f 27 13 18
f 9 20 19
f 19 20 9
f 18 19 8
f 20 25 11
f 25 21 11
f 6 21 25
f 25 21 6
f 13 16 27
f 27 16 13
f 22 6 28
f 15 22 29
f 30 23 15
f 7 23 26
f 16 25 31
f 31 25 16
f 17 26 32
f 33 27 17
f 18 27 31
f 31 27 18
f 18 20 19
f 25 20 18
f 27 16 31
f 31 16 27
f 34 28 22
f 22 28 34
f 28 35 22
f 22 36 29
f 15 29 37
f 23 30 38
f 39 30 15
f 40 26 23
f 31 42 24
f 18 31 25
f 25 31 18
f 43 32 26
f 26 32 43
f 32 35 26
f 26 35 32
f 26 44 32
f 33 32 17
f 17 32 33
f 32 44 17
f 45 27 33
f 17 44 33
f 42 31 27
f 28 34 41
f 41 34 28
f 36 22 34
f 22 46 34
f 28 26 35
f 46 22 35
f 36 47 29
f 47 37 29
f 15 37 48
f 30 49 38
f 49 23 38
f 30 39 50
f 15 51 39
f 52 26 40
f 23 49 40
f 53 28 41
f 54 41 28
f 28 41 54
f 41 55 24
f 24 55 41
f 53 41 24
f 42 55 24
f 32 43 56
f 56 43 32
f 35 32 46
f 46 32 35
f 26 47 35
f 26 57 44
f 58 32 33
f 33 32 58
f 59 27 45
f 33 60 45
f 33 44 55
f 42 27 61
f 41 34 62
f 62 34 41
f 46 36 34
f 46 58 34
f 34 58 46
f 28 63 26
f 47 46 35
f 47 36 64
f 37 47 65
f 37 66 48
f 15 48 67
f 49 30 50
f 39 49 50
f 15 67 51
f 52 39 51
f 68 26 52
f 39 52 40
f 49 39 40
f 63 28 53
f 41 54 69
f 69 54 41
f 41 62 55
f 55 62 41
f 55 44 24
f 53 24 44
f 55 42 70
f 46 32 58
f 58 32 46
f 47 26 65
f 57 26 63
f 71 44 57
f 60 33 58
f 33 62 58
f 72 27 59
f 73 59 45
f 60 73 45
f 62 33 55
f 61 27 74
f 75 42 61
f 62 34 58
f 58 34 62
f 36 46 64
f 46 47 64
f 76 37 65
f 66 37 77
f 66 78 48
f 78 67 48
f 67 79 51
f 79 52 51
f 78 26 68
f 52 80 68
f 63 53 81
f 55 82 62
f 83 53 44
f 84 70 42
f 55 70 85
f 65 26 78
f 57 63 86
f 44 71 87
f 71 57 88
f 62 60 58
f 89 27 72
f 59 90 72
f 59 73 91
f 73 60 82
f 74 27 92
f 74 75 61
f 42 75 84
f 37 76 77
f 78 76 65
f 76 66 77
f 78 66 93
f 67 78 68
f 79 67 94
f 52 79 95
f 80 52 95
f 80 67 68
f 96 81 53
f 81 86 63
f 82 55 73
f 60 62 82
f 53 83 96
f 83 44 97
f 70 84 98
f 74 85 70
f 55 85 99
f 88 57 86
f 100 44 87
f 92 27 89
f 101 89 72
f 90 59 102
f 90 101 72
f 55 91 73
f 103 59 91
f 85 74 92
f 75 74 104
f 75 98 84
f 76 78 93
f 66 76 93
f 67 80 94
f 80 79 94
f 79 80 95
f 96 83 105
f 97 44 106
f 98 74 70
f 107 99 85
f 55 99 101
f 106 44 100
f 89 108 92
f 89 101 99
f 59 103 102
f 103 90 102
f 101 90 109
f 55 101 91
f 91 109 103
f 108 85 92
f 74 98 104
f 98 75 104
f 99 107 110
f 85 108 107
f 108 89 111
f 110 89 99
f 90 103 109
f 109 91 101
f 108 110 107
f 89 110 111
f 110 108 111
f 3 5 2
f 8 3 1
f 2 11 4
f 5 3 8
f 12 2 5
f 8 1 9
f 4 11 10
f 2 12 11
f 5 8 14
f 5 14 12
f 8 9 19
f 10 11 20
f 21 11 12
f 18 14 8
f 21 12 14
f 8 19 18
f 11 25 20
f 11 21 25
f 19 20 18
f 18 20 25
f 22 35 28
f 32 44 26
f 17 44 32
f 33 44 17
f 35 26 28
f 41 28 53
f 24 41 53
f 44 57 26
f 55 44 33
f 26 63 28
f 53 28 63
f 24 44 55
f 44 24 53
f 63 26 57
f 57 44 71
f 58 62 33
f 55 33 62
f 81 53 63
f 44 53 83
f 86 63 57
f 87 71 44
f 88 57 71
f 53 81 96
f 63 86 81
f 96 83 53
f 97 44 83
f 86 57 88
f 87 44 100
f 105 83 96
f 106 44 97
f 100 44 106
f 7 15 6
f 13 17 7
f 15 22 6
f 23 15 7
f 6 24 16
f 16 24 6
f 7 17 26
f 17 13 27
f 28 6 22
f 29 22 15
f 15 23 30
f 26 23 7
f 28 24 6
f 6 24 28
f 31 16 24
f 24 16 31
f 32 26 17
f 17 27 33
f 29 36 22
f 37 29 15
f 38 30 23
f 15 30 39
f 23 26 40
f 24 28 41
f 41 28 24
f 24 42 31
f 33 27 45
f 27 31 42
f 34 22 36
f 29 47 36
f 29 37 47
f 48 37 15
f 38 49 30
f 38 23 49
f 50 39 30
f 39 51 15
f 40 26 52
f 40 49 23
f 24 55 42
f 35 47 26
f 45 27 59
f 45 60 33
f 61 27 42
f 34 36 46
f 35 46 47
f 64 36 47
f 65 47 37
f 48 66 37
f 67 48 15
f 50 30 49
f 50 49 39
f 51 67 15
f 51 39 52
f 52 26 68
f 40 52 39
f 40 39 49
f 70 42 55
f 65 26 47
f 58 33 60
f 59 27 72
f 45 59 73
f 45 73 60
f 74 27 61
f 61 42 75
f 64 46 36
f 64 47 46
f 65 37 76
f 77 37 66
f 48 78 66
f 48 67 78
f 51 79 67
f 51 52 79
f 68 26 78
f 68 80 52
f 62 82 55
f 42 70 84
f 85 70 55
f 78 26 65
f 58 60 62
f 72 27 89
f 72 90 59
f 91 73 59
f 82 60 73
f 92 27 74
f 61 75 74
f 84 75 42
f 77 76 37
f 65 76 78
f 77 66 76
f 93 66 78
f 68 78 67
f 94 67 79
f 95 79 52
f 95 52 80
f 68 67 80
f 73 55 82
f 82 62 60
f 98 84 70
f 70 85 74
f 99 85 55
f 89 27 92
f 72 89 101
f 102 59 90
f 72 101 90
f 73 91 55
f 91 59 103
f 92 74 85
f 104 74 75
f 84 98 75
f 93 78 76
f 93 76 66
f 94 80 67
f 94 79 80
f 95 80 79
f 70 74 98
f 85 99 107
f 101 99 55
f 92 108 89
f 99 101 89
f 102 103 59
f 102 90 103
f 109 90 101
f 91 101 55
f 103 109 91
f 92 85 108
f 104 98 74
f 104 75 98
f 110 107 99
f 107 108 85
f 111 89 108
f 99 89 110
f 109 103 90
f 101 91 109
f 107 110 108
f 111 110 89
f 111 108 110
f 34 46 22
f 35 22 46

