# https://github.com/mikedh/trimesh

o 5.obj
v -0.06564858 0.03284058 -0.04143359
v -0.06678630 0.03471623 -0.05023293
v -0.06565028 0.03399909 -0.05023317
v -0.06678447 0.03353328 -0.04124780
v -0.06565211 0.03284058 -0.05903287
v -0.06488670 0.03289372 -0.05023341
v -0.06564700 0.02944397 -0.03323368
v -0.06811248 0.03493035 -0.05023268
v -0.06678812 0.03353328 -0.05921818
v -0.06488500 0.03177290 -0.04171981
v -0.06678289 0.03006505 -0.03287487
v -0.06811065 0.03374011 -0.04119211
v -0.06565369 0.02944397 -0.06723278
v -0.06488828 0.03177302 -0.05874689
v -0.06461774 0.03157872 -0.05023341
v -0.06564554 0.02404100 -0.02619229
v -0.06488342 0.02848681 -0.03378643
v -0.06941641 0.03460704 -0.05023244
v -0.06811430 0.03374011 -0.05927338
v -0.06678970 0.03006517 -0.06759110
v -0.06461616 0.03050265 -0.04206026
v -0.06678143 0.02454803 -0.02568490
v -0.06810907 0.03025048 -0.03276751
v -0.06941471 0.03342786 -0.04127552
v -0.06941823 0.03342786 -0.05918948
v -0.06565503 0.02404100 -0.07427417
v -0.06488998 0.02848681 -0.06668027
v -0.06461932 0.03050265 -0.05840656
v -0.06488670 0.03026130 -0.05023341
v -0.06678034 0.01735805 -0.02016788
v -0.06488208 0.02325942 -0.02697399
v -0.06941300 0.02997058 -0.03292898
v -0.06461458 0.02734800 -0.03444411
v -0.07048908 0.03379835 -0.05023220
v -0.07088424 0.03460704 -0.05023220
v -0.07049078 0.03264665 -0.05897986
v -0.07088607 0.03342786 -0.05918912
v -0.06941981 0.02997058 -0.06753602
v -0.06811600 0.03025060 -0.06769786
v -0.06679116 0.02454815 -0.07478108
v -0.06488512 0.02923021 -0.04240120
v -0.06564445 0.01699949 -0.02078920
v -0.06810652 0.01746517 -0.01998221
v -0.06810762 0.02469941 -0.02553327
v -0.06941167 0.02447094 -0.02576162
v -0.07048579 0.02927022 -0.03333314
v -0.07088254 0.03342786 -0.04127528
v -0.07048822 0.03322250 -0.04585836
v -0.07049005 0.03322250 -0.05460615
v -0.07049248 0.02927022 -0.06713137
v -0.07088765 0.02997058 -0.06753578
v -0.06565612 0.01699961 -0.07967726
v -0.06489132 0.02325942 -0.07349271
v -0.06462090 0.02734800 -0.06602283
v -0.06488828 0.02923021 -0.05806563
v -0.06565028 0.02915604 -0.05023317
v -0.06677961 0.00898525 -0.01669977
v -0.06810579 0.00904070 -0.01649270
v -0.06461336 0.02232950 -0.02790391
v -0.06488111 0.01644686 -0.02174660
v -0.07048433 0.02389898 -0.02633321
v -0.07088084 0.02997058 -0.03292861
v -0.06488366 0.02620700 -0.03510264
v -0.07048737 0.03264665 -0.04148465
v -0.07195691 0.03379835 -0.05023195
v -0.07195788 0.03322250 -0.05460579
v -0.08663707 0.03264665 -0.05897670
v -0.08663865 0.02927022 -0.06712821
v -0.06942127 0.02447094 -0.07470338
v -0.07049382 0.02389898 -0.07413130
v -0.07088911 0.02447094 -0.07470314
v -0.06811746 0.02469953 -0.07493221
v -0.06679213 0.01735818 -0.08029810
v -0.06564882 0.02816265 -0.04268706
v -0.06564384 0.00879958 -0.01739271
v -0.06941057 0.01730358 -0.02026186
v -0.06940984 0.00895692 -0.01680458
v -0.07048324 0.01689917 -0.02096210
v -0.07087950 0.02447094 -0.02576125
v -0.08663366 0.03264665 -0.04148137
v -0.08663208 0.02927022 -0.03332986
v -0.07195606 0.03322250 -0.04585812
v -0.08664011 0.02389898 -0.07412814
v -0.06565685 0.00879970 -0.08307375
v -0.06489229 0.01644698 -0.07872023
v -0.06462212 0.02232962 -0.07256291
v -0.06488962 0.02620712 -0.06536406
v -0.06565186 0.02816265 -0.05777940
v -0.06678630 0.02843891 -0.05023293
v -0.06677949 0.00069355 -0.01560813
v -0.06810555 0.00072127 -0.01539742
v -0.06940960 0.00067944 -0.01571489
v -0.07087841 0.01730358 -0.02026162
v -0.06488244 0.02139800 -0.02883541
v -0.06461239 0.01578942 -0.02288541
v -0.06488038 0.00851348 -0.01846051
v -0.08662953 0.01689917 -0.02095894
v -0.06564736 0.02524985 -0.03565515
v -0.08663451 0.03322250 -0.04585520
v -0.08663062 0.02389898 -0.02633005
v -0.07195606 0.03467781 -0.04566650
v -0.07195788 0.03470298 -0.05460579
v -0.08663622 0.03322250 -0.05460287
v -0.06811844 0.01746517 -0.08048328
v -0.06942237 0.01730358 -0.08020314
v -0.07049491 0.01689917 -0.07950241
v -0.06679286 0.00898525 -0.08376633
v -0.06678776 0.02746996 -0.05759349
v -0.06678484 0.02746996 -0.04287248
v -0.06564360 0.00060078 -0.01631335
v -0.07048263 0.00874766 -0.01758567
v -0.07087768 0.00895692 -0.01680433
v -0.07048251 0.00057476 -0.01650960
v -0.06940960 -0.00000000 -0.01562540
v -0.08662892 0.00874766 -0.01758239
v -0.06678350 0.02462877 -0.03601359
v -0.08663451 0.03467781 -0.04566358
v -0.07089020 0.01730358 -0.08020277
v -0.08664120 0.01689917 -0.07949925
v -0.06565697 -0.00000000 -0.08423226
v -0.06489302 0.00851360 -0.08200631
v -0.06462321 0.01578942 -0.07758141
v -0.06489095 0.02139800 -0.07163141
v -0.06565320 0.02524985 -0.06481131
v -0.06678909 0.02462889 -0.06445250
v -0.06811248 0.02822479 -0.05023268
v -0.06811406 0.02726301 -0.05753780
v -0.06677937 -0.00000000 -0.01551682
v -0.06810555 -0.00000000 -0.01530245
v -0.07087743 -0.00000000 -0.01562515
v -0.07048239 -0.00000000 -0.01643397
v -0.06564627 0.02061642 -0.02961675
v -0.06488147 0.01513065 -0.02402629
v -0.06461178 0.00817315 -0.01973076
v -0.06488013 0.00045766 -0.01739988
v -0.08664181 0.00874766 -0.08287568
v -0.06678229 0.02010927 -0.03012366
v -0.07195691 0.03527883 -0.05023195
v -0.07195521 0.03407667 -0.04110116
v -0.08663622 0.03470298 -0.05460287
v -0.06811917 0.00904070 -0.08397291
v -0.06942310 0.00895704 -0.08366030
v -0.07049552 0.00874766 -0.08287897
v -0.06679323 -0.00000000 -0.08494928
v -0.06811540 0.02444334 -0.06434514
v -0.06811102 0.02726301 -0.04292768
v -0.06810968 0.02444334 -0.03612035
v -0.06564360 -0.00000000 -0.01623420
v -0.08662868 -0.00000000 -0.01643081
v -0.07048324 -0.00000000 -0.02087553
v -0.06940984 -0.00895704 -0.01680470
v -0.06488013 -0.00000000 -0.01733969
v -0.08664436 0.00469191 -0.08340971
v -0.06810859 0.01995789 -0.03027479
v -0.08663354 0.03407667 -0.04109824
v -0.08663719 0.03407667 -0.05935995
v -0.07089093 0.00895704 -0.08366006
v -0.06679286 -0.00898513 -0.08376633
v -0.06489314 -0.00000000 -0.08312713
v -0.06462382 0.00817327 -0.08073606
v -0.06489181 0.01513065 -0.07644041
v -0.06565442 0.02061642 -0.07084971
v -0.06679019 0.02010939 -0.07034232
v -0.06811637 0.01995801 -0.07019069
v -0.06941641 0.02854797 -0.05023244
v -0.06941787 0.02757525 -0.05762122
v -0.06564384 -0.00879958 -0.01739271
v -0.06677961 -0.00898525 -0.01669977
v -0.06810579 -0.00904057 -0.01649270
v -0.06461154 0.00028756 -0.01869262
v -0.07048263 -0.00874766 -0.01758567
v -0.06488074 0.00011709 -0.01998744
v -0.07087768 -0.00895704 -0.01680433
v -0.06678143 0.01421945 -0.02560416
v -0.06564530 0.01457802 -0.02498332
v -0.06488086 0.00783221 -0.02100320
v -0.06461154 -0.00000000 -0.01865481
v -0.08664205 -0.00000000 -0.08402738
v -0.06810762 0.01411233 -0.02578934
v -0.07195350 0.03055238 -0.03259254
v -0.07195873 0.03407667 -0.05936275
v -0.06811941 -0.00000000 -0.08516303
v -0.06942322 -0.00000000 -0.08483960
v -0.07049588 -0.00000000 -0.08403054
v -0.06565685 -0.00879958 -0.08307375
v -0.06811917 -0.00904057 -0.08397291
v -0.06489302 -0.00851348 -0.08200631
v -0.06941933 0.02472336 -0.06450649
v -0.06941507 0.02757525 -0.04284366
v -0.06941361 0.02472324 -0.03595851
v -0.06488038 -0.00851360 -0.01846051
v -0.08662892 -0.00874766 -0.01758251
v -0.06550571 -0.00000000 -0.02087650
v -0.06941057 -0.01730358 -0.02026186
v -0.06810652 -0.01746517 -0.01998221
v -0.06461178 -0.00817327 -0.01973076
v -0.08664181 -0.00874754 -0.08287580
v -0.06941155 0.01427393 -0.02550920
v -0.08663184 0.03055238 -0.03258962
v -0.08663889 0.03055238 -0.06786845
v -0.07089105 -0.00000000 -0.08483924
v -0.06679213 -0.01735805 -0.08029810
v -0.06811844 -0.01746517 -0.08048328
v -0.06462382 -0.00817315 -0.08073619
v -0.06462406 -0.00000000 -0.08181214
v -0.06489241 0.00783221 -0.07946363
v -0.06565527 0.01457814 -0.07548314
v -0.06679116 0.01421945 -0.07486181
v -0.06942054 0.02018648 -0.07041892
v -0.07048908 0.02935679 -0.05023220
v -0.06941240 0.02018648 -0.03004596
v -0.07049066 0.02835647 -0.05783035
v -0.06564445 -0.01699949 -0.02078920
v -0.06488111 -0.01644698 -0.02174660
v -0.06678034 -0.01735818 -0.02016800
v -0.06488074 -0.00000000 -0.01997212
v -0.07048324 -0.01689917 -0.02096210
v -0.06564457 -0.00002602 -0.02107372
v -0.06564457 -0.00000000 -0.02107725
v -0.07087841 -0.01730358 -0.02026162
v -0.08664229 -0.01466593 -0.08042431
v -0.06678083 0.00736045 -0.02276321
v -0.06810713 0.00730512 -0.02296979
v -0.06564469 0.00754611 -0.02207064
v -0.06488086 -0.00783221 -0.02100320
v -0.06941094 0.00738865 -0.02265719
v -0.07195204 0.02494587 -0.02528608
v -0.07196043 0.03055238 -0.06787137
v -0.06942310 -0.00895692 -0.08366042
v -0.07049552 -0.00874754 -0.08287897
v -0.07089093 -0.00895692 -0.08366006
v -0.06565612 -0.01699949 -0.07967726
v -0.06489229 -0.01644686 -0.07872023
v -0.06942237 -0.01730346 -0.08020314
v -0.06462309 -0.01578930 -0.07758141
v -0.06811734 0.01411245 -0.07467615
v -0.07049199 0.02542372 -0.06491065
v -0.07048762 0.02835647 -0.04263416
v -0.07048616 0.02542372 -0.03555386
v -0.06461239 -0.01578930 -0.02288553
v -0.08662953 -0.01689917 -0.02095894
v -0.06941082 -0.00010469 -0.02167073
v -0.06941167 -0.02447094 -0.02576162
v -0.06810762 -0.02469953 -0.02553327
v -0.06678143 -0.02454803 -0.02568502
v -0.08664120 -0.01689905 -0.07949925
v -0.06488147 -0.01513065 -0.02402629
v -0.07048409 0.01467833 -0.02480860
v -0.07048348 0.00759803 -0.02187585
v -0.08663038 0.02494587 -0.02528316
v -0.08664023 0.02494587 -0.07517491
v -0.06679116 -0.02454803 -0.07478108
v -0.06811746 -0.02469941 -0.07493221
v -0.06942127 -0.02447082 -0.07470338
v -0.06489241 -0.00783209 -0.07946363
v -0.06489181 -0.01513053 -0.07644054
v -0.06489266 -0.00000000 -0.08049471
v -0.06565588 0.00754623 -0.07839582
v -0.06679177 0.00736057 -0.07770288
v -0.06942139 0.01427405 -0.07495580
v -0.07049321 0.02075832 -0.07099063
v -0.07195691 0.02935679 -0.05023195
v -0.07195849 0.02835647 -0.05783011
v -0.07048494 0.02075832 -0.02947388
v -0.07195983 0.02542372 -0.06491041
v -0.06564554 -0.02404100 -0.02619229
v -0.06488208 -0.02325942 -0.02697399
v -0.06461336 -0.02232962 -0.02790391
v -0.06564469 -0.00754623 -0.02207064
v -0.07048433 -0.02389898 -0.02633333
v -0.06678058 -0.00011879 -0.02177846
v -0.06941094 -0.00738878 -0.02265731
v -0.06941082 -0.00010469 -0.02168447
v -0.06678058 -0.00000000 -0.02179414
v -0.07087950 -0.02447094 -0.02576138
v -0.06810689 -0.00000000 -0.02200802
v -0.06941082 -0.00000000 -0.02168447
v -0.06564530 -0.01457802 -0.02498332
v -0.08662941 0.01763941 -0.01967677
v -0.07196189 0.02494587 -0.07517783
v -0.07049491 -0.01689905 -0.07950254
v -0.07089020 -0.01730346 -0.08020277
v -0.06565503 -0.02404088 -0.07427417
v -0.06489132 -0.02325930 -0.07349283
v -0.06462212 -0.02232950 -0.07256303
v -0.07049382 -0.02389898 -0.07413130
v -0.07088911 -0.02447082 -0.07470314
v -0.06489095 -0.02139788 -0.07163141
v -0.06811795 0.00730512 -0.07749582
v -0.07196104 0.02075832 -0.07099039
v -0.07195545 0.02835647 -0.04263392
v -0.07195399 0.02542372 -0.03555362
v -0.06488244 -0.02139800 -0.02883541
v -0.08663062 -0.02389898 -0.02633017
v -0.08664011 -0.02389898 -0.07412814
v -0.06810689 -0.00014652 -0.02198868
v -0.07048348 -0.00759815 -0.02187585
v -0.07088084 -0.02997058 -0.03292874
v -0.06810907 -0.03025060 -0.03276763
v -0.06678289 -0.03006517 -0.03287499
v -0.06941300 -0.02997058 -0.03292898
v -0.06564627 -0.02061642 -0.02961687
v -0.07195192 0.01467833 -0.02480823
v -0.07049418 0.01467846 -0.07565604
v -0.07195132 0.00759803 -0.02187548
v -0.07049479 0.00759815 -0.07858879
v -0.07195119 -0.00000000 -0.02087516
v -0.07049491 -0.00000000 -0.07958911
v -0.07195095 0.01763941 -0.01967969
v -0.07196311 0.01763953 -0.08078434
v -0.06678970 -0.03006517 -0.06759110
v -0.06811600 -0.03025048 -0.06769798
v -0.06941981 -0.02997058 -0.06753614
v -0.06565588 -0.00754611 -0.07839582
v -0.06565527 -0.01457802 -0.07548314
v -0.06565442 -0.02061642 -0.07084971
v -0.06565612 -0.00000000 -0.07938933
v -0.06679189 -0.00000000 -0.07867195
v -0.06942188 0.00738878 -0.07780769
v -0.07195290 0.02075832 -0.02947364
v -0.06488342 -0.02848681 -0.03378655
v -0.06461458 -0.02734800 -0.03444411
v -0.06488366 -0.02620712 -0.03510276
v -0.06678083 -0.00736057 -0.02276321
v -0.08663208 -0.02927022 -0.03332998
v -0.07049479 -0.00759803 -0.07858879
v -0.06941155 -0.01427405 -0.02550920
v -0.06564700 -0.02944397 -0.03323381
v -0.07048579 -0.02927022 -0.03333314
v -0.06810713 -0.00730512 -0.02296979
v -0.06678143 -0.01421945 -0.02560428
v -0.08662868 0.00913079 -0.01615237
v -0.08664144 0.01763953 -0.08078142
v -0.06565369 -0.02944397 -0.06723278
v -0.06488998 -0.02848681 -0.06668027
v -0.06462090 -0.02734800 -0.06602283
v -0.06488962 -0.02620700 -0.06536406
v -0.07049248 -0.02927022 -0.06713149
v -0.07088765 -0.02997058 -0.06753578
v -0.06565320 -0.02524985 -0.06481131
v -0.06811807 -0.00000000 -0.07845747
v -0.07196202 0.01467846 -0.07565567
v -0.06564736 -0.02524985 -0.03565527
v -0.08663865 -0.02927022 -0.06712833
v -0.07195132 -0.00759815 -0.02187548
v -0.07049418 -0.01467833 -0.07565604
v -0.07048409 -0.01467846 -0.02480860
v -0.06810762 -0.01411245 -0.02578946
v -0.07088254 -0.03342786 -0.04127528
v -0.06811065 -0.03374011 -0.04119211
v -0.06678447 -0.03353328 -0.04124792
v -0.06941471 -0.03342786 -0.04127552
v -0.06678229 -0.02010939 -0.03012378
v -0.07196262 0.00759815 -0.07858842
v -0.07196274 -0.00000000 -0.07958874
v -0.06942212 -0.00000000 -0.07878053
v -0.07196262 -0.00759803 -0.07858854
v -0.07195022 0.00913079 -0.01615529
v -0.07196372 0.00913092 -0.08430874
v -0.06678812 -0.03353328 -0.05921830
v -0.06811430 -0.03374011 -0.05927338
v -0.06941823 -0.03342786 -0.05918948
v -0.06679177 -0.00736045 -0.07770288
v -0.06679116 -0.01421933 -0.07486181
v -0.06679019 -0.02010927 -0.07034244
v -0.06811795 -0.00730512 -0.07749582
v -0.06488500 -0.03177302 -0.04171993
v -0.06461616 -0.03050265 -0.04206026
v -0.06488512 -0.02923021 -0.04240120
v -0.06564882 -0.02816253 -0.04268718
v -0.08663366 -0.03264665 -0.04148149
v -0.08663707 -0.03264665 -0.05897682
v -0.07196202 -0.01467833 -0.07565580
v -0.06942188 -0.00738865 -0.07780781
v -0.06941240 -0.02018648 -0.03004608
v -0.06810859 -0.01995801 -0.03027491
v -0.06564858 -0.03284046 -0.04143371
v -0.07048737 -0.03264665 -0.04148465
v -0.08662831 -0.00000000 -0.01495033
v -0.08664205 0.00913092 -0.08430582
v -0.06565211 -0.03284046 -0.05903287
v -0.06488828 -0.03177290 -0.05874702
v -0.06461932 -0.03050265 -0.05840669
v -0.06488828 -0.02923009 -0.05806563
v -0.06565186 -0.02816253 -0.05777940
v -0.07049078 -0.03264665 -0.05897998
v -0.07088607 -0.03342786 -0.05918924
v -0.06678909 -0.02462877 -0.06445250
v -0.06678350 -0.02462877 -0.03601359
v -0.07195192 -0.01467846 -0.02480823
v -0.07049321 -0.02075832 -0.07099076
v -0.07196104 -0.02075832 -0.07099039
v -0.06942139 -0.01427393 -0.07495580
v -0.07048494 -0.02075832 -0.02947388
v -0.07088424 -0.03460704 -0.05023220
v -0.06941641 -0.03460704 -0.05023256
v -0.06811248 -0.03493035 -0.05023280
v -0.06678630 -0.03471623 -0.05023305
v -0.07048822 -0.03322250 -0.04585849
v -0.08662928 0.00038337 -0.01500079
v -0.07194998 -0.00000000 -0.01495325
v -0.07196396 -0.00000000 -0.08551078
v -0.06811734 -0.01411233 -0.07467615
v -0.06811637 -0.01995789 -0.07019069
v -0.06488670 -0.03289372 -0.05023341
v -0.06461774 -0.03157860 -0.05023341
v -0.06488670 -0.03026130 -0.05023341
v -0.06565028 -0.02915604 -0.05023329
v -0.06678484 -0.02746984 -0.04287248
v -0.08663451 -0.03322250 -0.04585532
v -0.08663622 -0.03322250 -0.05460299
v -0.07049005 -0.03322250 -0.05460615
v -0.07048616 -0.02542372 -0.03555398
v -0.06941361 -0.02472336 -0.03595851
v -0.07048908 -0.03379835 -0.05023232
v -0.06565028 -0.03399897 -0.05023329
v -0.07195606 -0.03322250 -0.04585824
v -0.07195022 -0.00913079 -0.01615529
v -0.08664229 -0.00000000 -0.08550786
v -0.06678776 -0.02746984 -0.05759361
v -0.06811540 -0.02444334 -0.06434514
v -0.06810968 -0.02444334 -0.03612035
v -0.06678630 -0.02843891 -0.05023305
v -0.07195788 -0.03322250 -0.05460591
v -0.07195290 -0.02075832 -0.02947364
v -0.07049199 -0.02542372 -0.06491077
v -0.06942054 -0.02018636 -0.07041904
v -0.07195399 -0.02542372 -0.03555362
v -0.07195691 -0.03379835 -0.05023207
v -0.08662868 -0.00913079 -0.01615237
v -0.08664205 -0.00913079 -0.08430582
v -0.06941933 -0.02472324 -0.06450649
v -0.06811102 -0.02726301 -0.04292768
v -0.06811248 -0.02822479 -0.05023280
v -0.08663451 -0.03467769 -0.04566370
v -0.07195788 -0.03467769 -0.05479741
v -0.07195983 -0.02542372 -0.06491041
v -0.07048762 -0.02835647 -0.04263429
v -0.07195545 -0.02835647 -0.04263392
v -0.07049066 -0.02835647 -0.05783047
v -0.06941507 -0.02757525 -0.04284379
v -0.08662928 -0.00038349 -0.01500079
v -0.07195095 -0.01763941 -0.01967969
v -0.07196372 -0.00913079 -0.08430874
v -0.06811406 -0.02726301 -0.05753793
v -0.06941787 -0.02757525 -0.05762134
v -0.07195606 -0.03467769 -0.04566662
v -0.08663622 -0.03467769 -0.05479449
v -0.07195849 -0.02835647 -0.05783011
v -0.08662941 -0.01763941 -0.01967677
v -0.08664132 -0.01763941 -0.08078142
v -0.06941641 -0.02854797 -0.05023256
v -0.07195521 -0.03407667 -0.04110116
v -0.08663719 -0.03407667 -0.05935995
v -0.07048908 -0.02935679 -0.05023232
v -0.07195691 -0.02935679 -0.05023207
v -0.07195691 -0.03527883 -0.05023207
v -0.07195204 -0.02494587 -0.02528620
v -0.07196299 -0.01763941 -0.08078434
v -0.08663354 -0.03407667 -0.04109836
v -0.07195873 -0.03407667 -0.05936287
v -0.08663038 -0.02494587 -0.02528328
v -0.08664023 -0.02494587 -0.07517503
v -0.07195350 -0.03055226 -0.03259266
v -0.08663889 -0.03055226 -0.06786857
v -0.08663184 -0.03055226 -0.03258974
v -0.07196189 -0.02494587 -0.07517795
v -0.07196043 -0.03055226 -0.06787149
f 1 2 3
f 2 1 4
f 2 5 3
f 6 1 3
f 7 4 1
f 4 8 2
f 5 2 9
f 5 6 3
f 1 6 10
f 4 7 11
f 10 7 1
f 8 4 12
f 8 9 2
f 9 13 5
f 6 5 14
f 15 10 6
f 16 11 7
f 11 12 4
f 7 10 17
f 12 18 8
f 9 8 19
f 13 9 20
f 13 14 5
f 14 15 6
f 10 15 21
f 11 16 22
f 17 16 7
f 12 11 23
f 21 17 10
f 18 12 24
f 25 8 18
f 8 25 19
f 19 20 9
f 20 26 13
f 14 13 27
f 15 14 28
f 29 21 15
f 16 30 22
f 22 23 11
f 16 17 31
f 32 12 23
f 17 21 33
f 12 32 24
f 24 34 18
f 24 35 18
f 18 36 25
f 18 37 25
f 38 19 25
f 20 19 39
f 26 20 40
f 26 27 13
f 27 28 14
f 28 29 15
f 21 29 41
f 30 16 42
f 43 22 30
f 23 22 44
f 33 31 17
f 31 42 16
f 23 45 32
f 41 33 21
f 46 24 32
f 32 47 24
f 34 24 48
f 49 18 34
f 35 24 47
f 37 18 35
f 36 18 49
f 50 25 36
f 51 25 37
f 19 38 39
f 25 50 38
f 25 51 38
f 39 40 20
f 40 52 26
f 27 26 53
f 28 27 54
f 29 28 55
f 56 41 29
f 42 57 30
f 22 43 44
f 30 58 43
f 45 23 44
f 31 33 59
f 42 31 60
f 61 32 45
f 45 62 32
f 33 41 63
f 24 46 64
f 32 61 46
f 47 32 62
f 48 24 64
f 48 65 34
f 34 66 49
f 49 67 36
f 36 68 50
f 69 39 38
f 70 38 50
f 71 38 51
f 40 39 72
f 52 40 73
f 52 53 26
f 53 54 27
f 54 55 28
f 55 56 29
f 41 56 74
f 57 42 75
f 58 30 57
f 76 44 43
f 77 43 58
f 44 76 45
f 63 59 33
f 59 60 31
f 60 75 42
f 45 78 61
f 62 45 79
f 74 63 41
f 46 80 64
f 61 81 46
f 64 82 48
f 65 48 82
f 66 34 65
f 67 49 66
f 68 36 67
f 83 50 68
f 39 69 72
f 38 70 69
f 38 71 69
f 50 83 70
f 72 73 40
f 73 84 52
f 53 52 85
f 54 53 86
f 55 54 87
f 56 55 88
f 89 74 56
f 75 90 57
f 57 91 58
f 43 77 76
f 58 92 77
f 78 45 76
f 93 45 76
f 59 63 94
f 60 59 95
f 75 60 96
f 97 61 78
f 45 93 79
f 63 74 98
f 80 46 81
f 99 64 80
f 81 61 100
f 82 64 99
f 101 65 82
f 65 102 66
f 67 66 103
f 80 68 67
f 81 83 68
f 69 104 72
f 70 105 69
f 71 105 69
f 83 106 70
f 73 72 104
f 84 73 107
f 84 85 52
f 85 86 53
f 86 87 54
f 87 88 55
f 108 56 88
f 74 89 109
f 56 108 89
f 90 75 110
f 91 57 90
f 92 58 91
f 111 76 77
f 112 76 77
f 113 77 92
f 114 77 92
f 76 111 78
f 76 112 93
f 98 94 63
f 94 95 59
f 95 96 60
f 96 110 75
f 61 97 100
f 78 115 97
f 74 116 98
f 81 68 80
f 80 67 99
f 100 83 81
f 117 82 99
f 102 65 101
f 82 117 101
f 102 103 66
f 99 67 103
f 104 69 105
f 105 70 106
f 105 71 118
f 106 83 119
f 104 107 73
f 107 120 84
f 85 84 121
f 86 85 122
f 87 86 123
f 88 87 124
f 88 125 108
f 126 109 89
f 116 74 109
f 127 89 108
f 110 128 90
f 110 92 90
f 90 129 91
f 90 92 91
f 91 114 92
f 77 113 111
f 77 130 112
f 110 113 92
f 92 131 113
f 130 77 114
f 131 92 114
f 115 78 111
f 94 98 132
f 95 94 133
f 96 95 134
f 110 96 135
f 97 119 100
f 115 136 97
f 137 98 116
f 100 119 83
f 102 101 138
f 117 139 101
f 101 139 117
f 103 102 140
f 105 141 104
f 106 142 105
f 118 142 105
f 119 143 106
f 107 104 141
f 120 107 144
f 120 121 84
f 121 122 85
f 122 123 86
f 123 124 87
f 125 88 124
f 145 108 125
f 109 126 146
f 89 127 126
f 109 147 116
f 108 145 127
f 128 110 148
f 129 90 128
f 114 91 129
f 149 111 113
f 135 113 110
f 149 113 131
f 113 150 131
f 131 150 113
f 151 130 114
f 151 131 114
f 111 149 115
f 98 137 132
f 132 133 94
f 133 134 95
f 134 135 96
f 152 110 135
f 97 136 119
f 115 153 136
f 116 154 137
f 139 117 155
f 155 117 139
f 102 156 140
f 140 156 102
f 141 105 142
f 142 106 143
f 142 118 157
f 143 119 136
f 141 144 107
f 158 120 144
f 121 120 159
f 122 121 160
f 123 122 161
f 124 123 162
f 124 163 125
f 125 164 145
f 165 146 126
f 147 109 146
f 127 165 126
f 154 116 147
f 145 166 127
f 110 152 148
f 167 128 148
f 168 129 128
f 169 114 129
f 170 113 135
f 171 149 131
f 172 150 113
f 130 151 173
f 114 169 151
f 131 151 171
f 149 153 115
f 174 132 137
f 133 132 175
f 134 133 176
f 135 134 170
f 135 177 152
f 178 136 153
f 179 137 154
f 155 180 139
f 139 180 155
f 156 102 181
f 181 102 156
f 142 182 141
f 143 183 142
f 157 183 142
f 136 184 143
f 144 141 182
f 120 158 185
f 144 186 158
f 120 187 159
f 159 160 121
f 160 161 122
f 161 162 123
f 163 124 162
f 164 125 163
f 164 188 145
f 146 165 189
f 189 147 146
f 165 127 166
f 190 154 147
f 166 145 188
f 191 148 152
f 128 167 168
f 148 191 167
f 129 168 169
f 172 113 170
f 177 135 170
f 149 171 192
f 193 150 172
f 194 173 151
f 195 151 169
f 194 171 151
f 192 153 149
f 132 174 175
f 137 179 174
f 175 176 133
f 176 170 134
f 196 152 177
f 136 178 184
f 153 197 178
f 154 198 179
f 180 155 199
f 199 155 180
f 181 200 156
f 156 200 181
f 182 142 183
f 183 143 184
f 183 157 201
f 186 144 182
f 202 185 158
f 187 120 185
f 203 158 186
f 204 159 187
f 160 159 205
f 161 160 206
f 162 161 207
f 207 163 162
f 208 164 163
f 188 164 209
f 210 189 165
f 147 189 190
f 166 210 165
f 154 190 211
f 188 212 166
f 152 196 191
f 213 168 167
f 214 167 191
f 215 169 168
f 170 176 172
f 216 170 172
f 170 216 177
f 217 192 171
f 218 150 193
f 172 219 193
f 172 193 216
f 173 194 220
f 151 195 194
f 169 215 195
f 171 194 217
f 192 221 153
f 222 175 174
f 223 174 179
f 176 175 224
f 177 225 196
f 197 184 178
f 197 153 221
f 198 154 211
f 226 179 198
f 199 227 180
f 180 227 199
f 200 181 228
f 228 181 200
f 229 182 183
f 230 183 184
f 231 183 201
f 182 229 186
f 185 202 232
f 158 203 202
f 185 233 187
f 186 234 203
f 159 204 205
f 187 235 204
f 205 206 160
f 206 207 161
f 163 207 208
f 164 208 236
f 236 209 164
f 209 237 188
f 189 210 238
f 238 190 189
f 210 166 212
f 239 211 190
f 212 188 237
f 240 191 196
f 168 213 215
f 167 214 213
f 191 240 214
f 224 172 176
f 225 177 216
f 192 217 241
f 218 242 150
f 219 172 224
f 219 216 193
f 243 220 194
f 244 194 195
f 245 195 215
f 243 217 194
f 192 246 221
f 175 222 224
f 174 223 222
f 179 226 223
f 247 196 225
f 184 197 230
f 246 197 221
f 211 248 198
f 198 249 226
f 227 199 250
f 250 199 227
f 228 251 200
f 200 251 228
f 183 230 229
f 183 231 229
f 234 186 229
f 252 232 202
f 233 185 232
f 253 202 203
f 235 187 233
f 254 203 234
f 255 205 204
f 256 204 235
f 206 205 257
f 207 206 258
f 258 208 207
f 259 236 208
f 209 236 260
f 237 209 261
f 262 238 210
f 190 238 239
f 263 210 212
f 211 239 264
f 265 212 237
f 196 247 240
f 266 215 213
f 267 213 214
f 268 214 240
f 216 269 225
f 270 241 217
f 241 246 192
f 271 242 218
f 150 272 273
f 224 274 219
f 218 216 219
f 220 243 275
f 194 244 243
f 195 245 244
f 215 266 245
f 217 243 270
f 274 224 222
f 276 222 223
f 277 223 226
f 225 278 247
f 197 246 230
f 248 211 264
f 249 198 248
f 150 226 249
f 279 227 250
f 250 227 279
f 251 228 280
f 280 228 251
f 281 229 230
f 282 229 231
f 229 281 234
f 229 282 234
f 232 252 283
f 202 253 252
f 232 284 233
f 203 254 253
f 233 285 235
f 234 286 254
f 234 287 254
f 205 255 257
f 204 256 255
f 235 288 256
f 257 258 206
f 208 258 259
f 236 259 289
f 289 260 236
f 260 261 209
f 290 237 261
f 238 262 291
f 210 263 262
f 291 239 238
f 212 265 263
f 292 264 239
f 237 290 265
f 293 240 247
f 213 267 266
f 214 268 267
f 240 293 268
f 269 216 218
f 278 225 269
f 241 270 294
f 241 295 246
f 242 271 296
f 272 150 297
f 274 269 219
f 219 269 218
f 243 298 275
f 299 243 244
f 245 299 244
f 266 300 245
f 301 270 243
f 222 276 274
f 223 277 276
f 226 150 277
f 302 247 278
f 230 246 281
f 264 303 248
f 248 305 249
f 249 307 150
f 227 279 309
f 309 279 227
f 310 251 280
f 280 251 310
f 286 234 281
f 287 234 282
f 311 283 252
f 284 232 283
f 312 252 253
f 285 233 284
f 254 312 253
f 288 235 285
f 286 313 254
f 287 313 254
f 314 257 255
f 315 255 256
f 316 256 288
f 258 257 317
f 317 259 258
f 318 289 259
f 260 289 319
f 261 260 304
f 304 290 261
f 262 263 291
f 239 291 292
f 263 265 291
f 264 292 320
f 265 290 292
f 247 302 293
f 321 266 267
f 322 267 268
f 323 268 293
f 324 278 269
f 270 325 294
f 294 295 241
f 295 281 246
f 307 297 150
f 297 327 272
f 269 274 324
f 298 243 301
f 243 299 301
f 299 245 300
f 300 266 328
f 270 301 329
f 276 324 274
f 277 330 276
f 331 302 278
f 303 264 320
f 305 248 303
f 307 249 305
f 332 309 279
f 279 309 332
f 251 310 333
f 333 310 251
f 281 295 286
f 283 311 334
f 252 312 311
f 283 335 284
f 284 336 285
f 312 254 313
f 285 337 288
f 313 286 338
f 313 287 339
f 257 314 317
f 255 315 314
f 256 316 315
f 288 340 316
f 259 317 318
f 289 318 341
f 341 319 289
f 319 304 260
f 290 304 342
f 291 265 292
f 292 290 320
f 343 293 302
f 266 321 328
f 267 322 321
f 268 323 322
f 293 343 323
f 278 324 331
f 325 270 329
f 325 344 294
f 294 344 295
f 297 307 345
f 327 297 347
f 348 272 327
f 301 349 298
f 350 301 299
f 300 350 299
f 328 351 300
f 352 329 301
f 324 276 330
f 330 277 272
f 302 331 353
f 320 342 303
f 303 354 305
f 306 342 304
f 304 319 306
f 305 355 307
f 308 354 306
f 306 356 308
f 357 308 326
f 356 326 308
f 309 332 358
f 358 332 309
f 359 333 310
f 310 333 359
f 295 338 286
f 360 334 311
f 335 283 334
f 361 311 312
f 336 284 335
f 337 285 336
f 313 361 312
f 340 288 337
f 338 362 313
f 339 362 313
f 363 317 314
f 364 314 315
f 365 315 316
f 340 365 316
f 317 363 318
f 318 366 341
f 319 341 356
f 290 342 320
f 353 343 302
f 367 328 321
f 368 321 322
f 369 322 323
f 370 323 343
f 330 331 324
f 329 371 325
f 325 372 344
f 338 295 344
f 307 357 345
f 345 347 297
f 373 326 346
f 374 346 326
f 347 375 327
f 272 348 330
f 327 376 348
f 349 301 352
f 301 350 352
f 350 300 351
f 351 328 377
f 329 352 378
f 348 353 331
f 342 354 303
f 354 355 305
f 342 306 354
f 356 306 319
f 355 357 307
f 354 308 355
f 308 357 355
f 326 373 357
f 326 356 374
f 332 379 358
f 358 379 332
f 333 359 380
f 380 359 333
f 334 360 381
f 311 361 360
f 334 382 335
f 335 383 336
f 336 384 337
f 361 313 362
f 337 385 340
f 362 338 386
f 362 339 387
f 314 364 363
f 315 365 364
f 365 340 388
f 366 318 363
f 374 341 366
f 341 374 356
f 343 353 389
f 328 367 377
f 321 368 367
f 322 369 368
f 323 370 369
f 389 370 343
f 331 330 348
f 371 329 378
f 371 372 325
f 386 344 372
f 344 386 338
f 357 373 345
f 347 345 390
f 346 392 373
f 346 374 393
f 375 347 394
f 376 327 375
f 353 348 376
f 352 395 349
f 350 396 352
f 351 397 350
f 377 398 351
f 352 399 378
f 379 332 400
f 400 332 379
f 358 379 401
f 401 379 358
f 402 380 359
f 359 380 402
f 398 381 360
f 382 334 381
f 397 360 361
f 383 335 382
f 384 336 383
f 385 337 384
f 362 397 361
f 385 388 340
f 386 396 362
f 387 396 362
f 403 363 364
f 404 364 365
f 388 404 365
f 363 403 366
f 366 393 374
f 376 389 353
f 405 377 367
f 406 367 368
f 407 368 369
f 408 369 370
f 370 389 409
f 378 410 371
f 371 411 372
f 372 412 386
f 345 373 390
f 390 394 347
f 392 346 391
f 393 391 346
f 373 392 390
f 413 375 394
f 414 376 375
f 395 352 396
f 396 350 397
f 415 352 396
f 397 351 398
f 398 377 416
f 352 415 399
f 417 378 399
f 379 418 401
f 401 418 379
f 380 402 419
f 419 402 380
f 381 398 416
f 360 397 398
f 381 405 382
f 382 406 383
f 383 407 384
f 384 408 385
f 397 362 396
f 388 385 420
f 396 386 412
f 396 387 395
f 364 404 403
f 404 388 421
f 393 366 403
f 389 376 422
f 377 405 416
f 367 406 405
f 368 407 406
f 369 408 407
f 370 423 408
f 422 409 389
f 423 370 409
f 378 417 410
f 411 371 410
f 424 372 411
f 412 372 424
f 394 390 425
f 426 392 391
f 391 393 427
f 390 392 425
f 375 413 414
f 394 428 413
f 376 414 422
f 396 412 415
f 429 399 415
f 399 429 417
f 379 430 418
f 418 430 379
f 402 431 419
f 419 431 402
f 405 381 416
f 406 382 405
f 407 383 406
f 408 384 407
f 408 420 385
f 420 421 388
f 427 403 404
f 432 404 421
f 403 427 393
f 420 408 423
f 409 422 433
f 409 434 423
f 417 435 410
f 411 436 424
f 424 415 412
f 428 394 425
f 427 426 391
f 392 426 437
f 392 437 425
f 438 414 413
f 439 413 428
f 441 422 414
f 415 424 429
f 436 417 429
f 430 379 442
f 442 379 430
f 430 443 418
f 418 443 430
f 431 402 444
f 444 402 431
f 421 420 445
f 404 432 427
f 421 446 432
f 423 445 420
f 422 441 433
f 434 409 433
f 445 423 434
f 435 417 447
f 436 411 448
f 424 436 429
f 425 437 428
f 426 427 432
f 440 437 426
f 414 438 441
f 413 439 438
f 428 449 439
f 432 440 426
f 436 447 417
f 443 430 450
f 450 430 443
f 444 451 431
f 431 451 444
f 446 421 445
f 440 432 446
f 452 433 441
f 433 452 434
f 452 445 434
f 453 435 447
f 447 435 453
f 454 436 448
f 448 436 454
f 437 449 428
f 437 440 449
f 455 441 438
f 456 438 439
f 456 439 449
f 447 436 457
f 450 458 443
f 443 458 450
f 451 444 459
f 459 444 451
f 445 452 446
f 446 455 440
f 441 455 452
f 435 453 460
f 460 453 435
f 436 454 461
f 461 454 436
f 455 449 440
f 438 456 455
f 449 455 456
f 458 450 462
f 462 450 458
f 459 463 451
f 451 463 459
f 455 446 452
f 464 460 453
f 453 460 464
f 465 461 454
f 454 461 465
f 466 458 462
f 462 458 466
f 463 459 467
f 467 459 463
f 460 464 466
f 466 464 460
f 461 465 468
f 468 465 461
f 458 466 464
f 464 466 458
f 468 463 467
f 467 463 468
f 463 468 465
f 465 468 463
f 3 2 1
f 4 1 2
f 3 5 2
f 3 1 6
f 1 4 7
f 2 8 4
f 9 2 5
f 3 6 5
f 10 6 1
f 11 7 4
f 1 7 10
f 12 4 8
f 2 9 8
f 5 13 9
f 14 5 6
f 6 10 15
f 7 11 16
f 4 12 11
f 17 10 7
f 8 18 12
f 19 8 9
f 20 9 13
f 5 14 13
f 6 15 14
f 21 15 10
f 22 16 11
f 7 16 17
f 23 11 12
f 10 17 21
f 24 12 18
f 18 8 25
f 19 25 8
f 9 20 19
f 13 26 20
f 27 13 14
f 28 14 15
f 15 21 29
f 22 30 16
f 11 23 22
f 31 17 16
f 23 12 32
f 33 21 17
f 24 32 12
f 18 35 24
f 25 37 18
f 25 19 38
f 39 19 20
f 40 20 26
f 13 27 26
f 14 28 27
f 15 29 28
f 41 29 21
f 42 16 30
f 30 22 43
f 44 22 23
f 17 31 33
f 16 42 31
f 32 45 23
f 21 33 41
f 24 47 32
f 47 24 35
f 35 18 37
f 37 25 51
f 39 38 19
f 38 51 25
f 20 40 39
f 26 52 40
f 53 26 27
f 54 27 28
f 55 28 29
f 29 41 56
f 30 57 42
f 44 43 22
f 43 58 30
f 44 23 45
f 59 33 31
f 60 31 42
f 32 62 45
f 63 41 33
f 62 32 47
f 38 39 69
f 51 38 71
f 72 39 40
f 73 40 52
f 26 53 52
f 27 54 53
f 28 55 54
f 29 56 55
f 74 56 41
f 75 42 57
f 57 30 58
f 43 44 76
f 58 43 77
f 45 76 44
f 33 59 63
f 31 60 59
f 42 75 60
f 79 45 62
f 41 63 74
f 72 69 39
f 69 71 38
f 40 73 72
f 52 84 73
f 85 52 53
f 86 53 54
f 87 54 55
f 88 55 56
f 56 74 89
f 57 90 75
f 58 91 57
f 76 77 43
f 77 92 58
f 76 45 93
f 94 63 59
f 95 59 60
f 96 60 75
f 79 93 45
f 98 74 63
f 72 104 69
f 69 105 71
f 104 72 73
f 107 73 84
f 52 85 84
f 53 86 85
f 54 87 86
f 55 88 87
f 88 56 108
f 109 89 74
f 89 108 56
f 110 75 90
f 90 57 91
f 91 58 92
f 77 76 112
f 92 77 114
f 93 112 76
f 63 94 98
f 59 95 94
f 60 96 95
f 75 110 96
f 98 116 74
f 105 69 104
f 118 71 105
f 73 107 104
f 84 120 107
f 121 84 85
f 122 85 86
f 123 86 87
f 124 87 88
f 108 125 88
f 89 109 126
f 109 74 116
f 108 89 127
f 90 128 110
f 90 92 110
f 91 129 90
f 91 92 90
f 92 114 91
f 112 130 77
f 92 113 110
f 114 77 130
f 132 98 94
f 133 94 95
f 134 95 96
f 135 96 110
f 116 98 137
f 104 141 105
f 105 142 118
f 141 104 107
f 144 107 120
f 84 121 120
f 85 122 121
f 86 123 122
f 87 124 123
f 124 88 125
f 125 108 145
f 146 126 109
f 126 127 89
f 116 147 109
f 127 145 108
f 148 110 128
f 128 90 129
f 129 91 114
f 110 113 135
f 114 130 151
f 132 137 98
f 94 133 132
f 95 134 133
f 96 135 134
f 135 110 152
f 137 154 116
f 142 105 141
f 157 118 142
f 107 144 141
f 144 120 158
f 159 120 121
f 160 121 122
f 161 122 123
f 162 123 124
f 125 163 124
f 145 164 125
f 126 146 165
f 146 109 147
f 126 165 127
f 147 116 154
f 127 166 145
f 148 152 110
f 148 128 167
f 128 129 168
f 129 114 169
f 135 113 170
f 113 150 172
f 173 151 130
f 151 169 114
f 137 132 174
f 175 132 133
f 176 133 134
f 170 134 135
f 152 177 135
f 154 137 179
f 141 182 142
f 142 183 157
f 182 141 144
f 185 158 120
f 158 186 144
f 159 187 120
f 121 160 159
f 122 161 160
f 123 162 161
f 162 124 163
f 163 125 164
f 145 188 164
f 189 165 146
f 146 147 189
f 166 127 165
f 147 154 190
f 188 145 166
f 152 148 191
f 168 167 128
f 167 191 148
f 169 168 129
f 170 113 172
f 170 135 177
f 172 150 193
f 151 173 194
f 169 151 195
f 175 174 132
f 174 179 137
f 133 176 175
f 134 170 176
f 177 152 196
f 179 198 154
f 183 142 182
f 201 157 183
f 182 144 186
f 158 185 202
f 185 120 187
f 186 158 203
f 187 159 204
f 205 159 160
f 206 160 161
f 207 161 162
f 162 163 207
f 163 164 208
f 209 164 188
f 165 189 210
f 190 189 147
f 165 210 166
f 211 190 154
f 166 212 188
f 191 196 152
f 167 168 213
f 191 167 214
f 168 169 215
f 172 176 170
f 172 170 216
f 177 216 170
f 193 150 218
f 193 219 172
f 216 193 172
f 220 194 173
f 194 195 151
f 195 215 169
f 174 175 222
f 179 174 223
f 224 175 176
f 196 225 177
f 211 154 198
f 198 179 226
f 183 182 229
f 201 183 231
f 186 229 182
f 232 202 185
f 202 203 158
f 187 233 185
f 203 234 186
f 205 204 159
f 204 235 187
f 160 206 205
f 161 207 206
f 208 207 163
f 236 208 164
f 164 209 236
f 188 237 209
f 238 210 189
f 189 190 238
f 212 166 210
f 190 211 239
f 237 188 212
f 196 191 240
f 215 213 168
f 213 214 167
f 214 240 191
f 176 172 224
f 216 177 225
f 150 242 218
f 224 172 219
f 193 216 219
f 194 220 243
f 195 194 244
f 215 195 245
f 224 222 175
f 222 223 174
f 223 226 179
f 225 196 247
f 198 248 211
f 226 249 198
f 229 231 183
f 229 186 234
f 202 232 252
f 232 185 233
f 203 202 253
f 233 187 235
f 234 203 254
f 204 205 255
f 235 204 256
f 257 205 206
f 258 206 207
f 207 208 258
f 208 236 259
f 260 236 209
f 261 209 237
f 210 238 262
f 239 238 190
f 212 210 263
f 264 239 211
f 237 212 265
f 240 247 196
f 213 215 266
f 214 213 267
f 240 214 268
f 225 269 216
f 218 242 271
f 273 272 150
f 219 274 224
f 219 216 218
f 275 243 220
f 243 244 194
f 244 245 195
f 245 266 215
f 222 224 274
f 223 222 276
f 226 223 277
f 247 278 225
f 264 211 248
f 248 198 249
f 249 226 150
f 231 229 282
f 234 282 229
f 283 252 232
f 252 253 202
f 233 284 232
f 253 254 203
f 235 285 233
f 254 287 234
f 257 255 205
f 255 256 204
f 256 288 235
f 206 258 257
f 259 258 208
f 289 259 236
f 236 260 289
f 209 261 260
f 261 237 290
f 291 262 238
f 262 263 210
f 238 239 291
f 263 265 212
f 239 264 292
f 265 290 237
f 247 240 293
f 266 267 213
f 267 268 214
f 268 293 240
f 218 216 269
f 269 225 278
f 296 271 242
f 297 150 272
f 219 269 274
f 218 269 219
f 275 298 243
f 244 243 299
f 244 299 245
f 245 300 266
f 274 276 222
f 276 277 223
f 277 150 226
f 278 247 302
f 248 303 264
f 249 305 248
f 150 307 249
f 282 234 287
f 252 283 311
f 283 232 284
f 253 252 312
f 284 233 285
f 253 312 254
f 285 235 288
f 254 313 287
f 255 257 314
f 256 255 315
f 288 256 316
f 317 257 258
f 258 259 317
f 259 289 318
f 319 289 260
f 304 260 261
f 261 290 304
f 291 263 262
f 292 291 239
f 291 265 263
f 320 292 264
f 292 290 265
f 293 302 247
f 267 266 321
f 268 267 322
f 293 268 323
f 269 278 324
f 150 297 307
f 272 327 297
f 324 274 269
f 301 243 298
f 301 299 243
f 300 245 299
f 328 266 300
f 274 324 276
f 276 330 277
f 278 302 331
f 320 264 303
f 303 248 305
f 305 249 307
f 334 311 283
f 311 312 252
f 284 335 283
f 285 336 284
f 313 254 312
f 288 337 285
f 339 287 313
f 317 314 257
f 314 315 255
f 315 316 256
f 316 340 288
f 318 317 259
f 341 318 289
f 289 319 341
f 260 304 319
f 342 304 290
f 292 265 291
f 320 290 292
f 302 293 343
f 328 321 266
f 321 322 267
f 322 323 268
f 323 343 293
f 331 324 278
f 345 307 297
f 347 297 327
f 327 272 348
f 298 349 301
f 299 301 350
f 299 350 300
f 300 351 328
f 330 276 324
f 272 277 330
f 353 331 302
f 303 342 320
f 305 354 303
f 304 342 306
f 306 319 304
f 307 355 305
f 306 354 308
f 308 356 306
f 326 308 357
f 308 326 356
f 311 334 360
f 334 283 335
f 312 311 361
f 335 284 336
f 336 285 337
f 312 361 313
f 337 288 340
f 313 362 339
f 314 317 363
f 315 314 364
f 316 315 365
f 316 365 340
f 318 363 317
f 341 366 318
f 356 341 319
f 320 342 290
f 302 343 353
f 321 328 367
f 322 321 368
f 323 322 369
f 343 323 370
f 324 331 330
f 345 357 307
f 297 347 345
f 346 326 373
f 326 346 374
f 327 375 347
f 330 348 272
f 348 376 327
f 352 301 349
f 352 350 301
f 351 300 350
f 377 328 351
f 331 353 348
f 303 354 342
f 305 355 354
f 354 306 342
f 319 306 356
f 307 357 355
f 355 308 354
f 355 357 308
f 357 373 326
f 374 356 326
f 381 360 334
f 360 361 311
f 335 382 334
f 336 383 335
f 337 384 336
f 362 313 361
f 340 385 337
f 387 339 362
f 363 364 314
f 364 365 315
f 388 340 365
f 363 318 366
f 366 341 374
f 356 374 341
f 389 353 343
f 377 367 328
f 367 368 321
f 368 369 322
f 369 370 323
f 343 370 389
f 348 330 331
f 345 373 357
f 390 345 347
f 373 392 346
f 393 374 346
f 394 347 375
f 375 327 376
f 376 348 353
f 349 395 352
f 352 396 350
f 350 397 351
f 351 398 377
f 360 381 398
f 381 334 382
f 361 360 397
f 382 335 383
f 383 336 384
f 384 337 385
f 361 397 362
f 340 388 385
f 362 396 387
f 364 363 403
f 365 364 404
f 365 404 388
f 366 403 363
f 374 393 366
f 353 389 376
f 367 377 405
f 368 367 406
f 369 368 407
f 370 369 408
f 409 389 370
f 390 373 345
f 347 394 390
f 391 346 392
f 346 391 393
f 390 392 373
f 394 375 413
f 375 376 414
f 396 352 395
f 397 350 396
f 398 351 397
f 416 377 398
f 416 398 381
f 398 397 360
f 382 405 381
f 383 406 382
f 384 407 383
f 385 408 384
f 396 362 397
f 420 385 388
f 395 387 396
f 403 404 364
f 421 388 404
f 403 366 393
f 422 376 389
f 416 405 377
f 405 406 367
f 406 407 368
f 407 408 369
f 408 423 370
f 389 409 422
f 409 370 423
f 425 390 394
f 391 392 426
f 427 393 391
f 425 392 390
f 414 413 375
f 413 428 394
f 422 414 376
f 416 381 405
f 405 382 406
f 406 383 407
f 407 384 408
f 385 420 408
f 388 421 420
f 404 403 427
f 421 404 432
f 393 427 403
f 423 408 420
f 433 422 409
f 423 434 409
f 425 394 428
f 391 426 427
f 437 426 392
f 425 437 392
f 413 414 438
f 428 413 439
f 414 422 441
f 445 420 421
f 427 432 404
f 432 446 421
f 420 445 423
f 433 441 422
f 433 409 434
f 434 423 445
f 428 437 425
f 432 427 426
f 426 437 440
f 441 438 414
f 438 439 413
f 439 449 428
f 426 440 432
f 445 421 446
f 446 432 440
f 441 433 452
f 434 452 433
f 434 445 452
f 428 449 437
f 449 440 437
f 438 441 455
f 439 438 456
f 449 439 456
f 446 452 445
f 440 455 446
f 452 455 441
f 440 449 455
f 455 456 438
f 456 455 449
f 452 446 455
f 18 34 24
f 25 36 18
f 32 24 46
f 48 24 34
f 34 18 49
f 49 18 36
f 36 25 50
f 38 50 25
f 45 32 61
f 64 46 24
f 46 61 32
f 64 24 48
f 34 65 48
f 49 66 34
f 36 67 49
f 50 68 36
f 50 38 70
f 61 78 45
f 64 80 46
f 46 81 61
f 48 82 64
f 82 48 65
f 65 34 66
f 66 49 67
f 67 36 68
f 68 50 83
f 69 70 38
f 70 83 50
f 76 45 78
f 78 61 97
f 81 46 80
f 80 64 99
f 100 61 81
f 99 64 82
f 82 65 101
f 66 102 65
f 103 66 67
f 67 68 80
f 68 83 81
f 69 105 70
f 70 106 83
f 77 76 111
f 92 77 113
f 78 111 76
f 100 97 61
f 97 115 78
f 80 68 81
f 99 67 80
f 81 83 100
f 101 65 102
f 103 67 99
f 106 70 105
f 119 83 106
f 111 113 77
f 113 131 92
f 114 92 131
f 111 78 115
f 100 119 97
f 97 136 115
f 83 119 100
f 138 101 102
f 105 142 106
f 106 143 119
f 113 111 149
f 131 113 149
f 114 131 151
f 115 149 111
f 119 136 97
f 136 153 115
f 143 106 142
f 136 119 143
f 131 149 171
f 171 151 131
f 115 153 149
f 153 136 178
f 142 183 143
f 143 184 136
f 192 171 149
f 151 171 194
f 149 153 192
f 184 178 136
f 178 197 153
f 184 143 183
f 171 192 217
f 217 194 171
f 153 221 192
f 178 184 197
f 221 153 197
f 184 183 230
f 241 217 192
f 194 217 243
f 221 246 192
f 230 197 184
f 221 197 246
f 229 230 183
f 217 241 270
f 192 246 241
f 270 243 217
f 230 246 197
f 230 229 281
f 234 281 229
f 254 286 234
f 294 270 241
f 246 295 241
f 243 270 301
f 281 246 230
f 281 234 286
f 254 313 286
f 294 325 270
f 241 295 294
f 246 281 295
f 329 301 270
f 286 295 281
f 338 286 313
f 329 270 325
f 294 344 325
f 295 344 294
f 301 329 352
f 286 338 295
f 313 362 338
f 325 371 329
f 344 372 325
f 344 295 338
f 378 352 329
f 386 338 362
f 378 329 371
f 325 372 371
f 372 344 386
f 338 386 344
f 378 399 352
f 362 396 386
f 371 410 378
f 372 411 371
f 386 412 372
f 396 352 415
f 399 415 352
f 399 378 417
f 412 386 396
f 410 417 378
f 410 371 411
f 411 372 424
f 424 372 412
f 415 412 396
f 415 399 429
f 417 429 399
f 412 415 424
f 429 424 415
f 429 417 436
f 429 436 424
f 417 447 436
f 457 436 447
f 99 82 117
f 101 117 82
f 66 103 102
f 140 102 103
f 410 435 417
f 424 436 411
f 447 417 435
f 448 411 436
f 238 212 210
f 210 212 238
f 238 237 212
f 212 237 238
f 239 261 237
f 237 261 239
f 239 237 238
f 238 237 239
f 264 261 239
f 239 261 264
f 248 304 264
f 264 304 248
f 249 306 248
f 248 306 249
f 150 308 249
f 249 308 150
f 264 304 261
f 261 304 264
f 297 326 150
f 150 326 297
f 248 306 304
f 304 306 248
f 249 308 306
f 306 308 249
f 150 326 308
f 308 326 150
f 297 346 326
f 326 346 297
f 347 346 297
f 297 346 347
f 347 391 346
f 346 391 347
f 394 391 347
f 347 391 394
f 394 426 391
f 391 426 394
f 413 426 394
f 394 426 413
f 413 440 426
f 426 440 413
f 438 440 413
f 413 440 438
f 440 438 455
f 455 438 440

