# https://github.com/mikedh/trimesh

o 0.obj
v -0.18750032 -0.21248673 -0.37636091
v -0.00000032 -0.25000000 -0.50000000
v -0.00000032 -0.21248673 -0.37636091
v -0.37500032 -0.25000000 -0.50000000
v -0.37500032 -0.21248673 -0.37636091
v -0.37500032 0.00000000 -0.50000000
v -0.00000032 0.00000000 -0.50000000
v 0.37500032 -0.25000000 -0.50000000
v 0.37500032 -0.21248673 -0.37636091
v -0.08967597 -0.18657082 -0.11742028
v -0.27717597 -0.18657082 -0.11742028
v -0.32850002 0.00000000 -0.25736386
v -0.37500032 0.25000000 -0.50000000
v -0.00000032 0.25000000 -0.50000000
v 0.37500032 0.00000000 -0.50000000
v 0.32850002 0.00000000 -0.25736386
v -0.00000032 -0.16657087 -0.11742028
v -0.18750032 -0.23465498 0.14152035
v -0.37500032 -0.22357053 -0.11742028
v -0.37500032 -0.23465498 0.14152035
v -0.00000032 0.21248673 -0.37636091
v -0.37500032 0.21248673 -0.37636091
v 0.37500032 0.25000000 -0.50000000
v 0.34699988 -0.15807099 -0.11742028
v -0.00000032 -0.17765467 0.14152035
v -0.32850002 0.00000000 0.05396597
v -0.18750032 0.22357117 -0.11742028
v 0.37500032 0.21248673 -0.37636091
v 0.34699988 -0.16915479 0.14152035
v -0.37500032 -0.21011609 0.28078283
v -0.34350031 0.20355963 0.14152035
v -0.34350031 0.19354741 -0.09237491
v -0.00000032 0.23465498 0.14152035
v 0.37500032 0.23465498 0.14152035
v 0.32850002 0.00000000 0.05396597
v 0.37500032 -0.21011609 0.28078283
v -0.00000032 -0.15451407 0.27838964
v -0.32850002 0.00000000 0.20030492
v -0.37500032 0.21011609 0.28078283
v 0.37500032 0.21011609 0.28078283
v 0.12822604 -0.15454886 0.27920799
v -0.00000032 -0.09078912 0.36581838
v -0.37500032 -0.08960670 0.36042758
v 0.07654501 0.17553470 0.27887807
v 0.32850002 0.00000000 0.20030492
v -0.00000032 0.17551408 0.27838964
v -0.00000032 0.09078912 0.36581838
v 0.37500032 -0.08960670 0.36042758
v -0.37500032 -0.11500003 0.50000000
v 0.37500032 0.08960670 0.36042758
v 0.35175017 -0.05749969 0.35015246
v 0.37500032 -0.11500003 0.50000000
v -0.13330109 -0.03350014 0.50000000
v -0.37500032 0.08960670 0.36042758
v 0.37500032 0.11500003 0.50000000
v 0.34664676 0.04487842 0.31725996
v 0.27549997 0.00000000 0.35399032
v 0.13946578 -0.03350014 0.50000000
v -0.37500032 0.08500010 0.50000000
v 0.18750032 0.08149989 0.50000000
v 0.32200027 -0.05001920 0.50000000
v -0.12628326 0.08500010 0.50000000
v -0.00000032 0.08149989 0.50000000
v -0.35334434 -0.06144259 0.36042758
v -0.28917285 0.00000000 0.35399032
v -0.33567315 0.01527479 0.50000000
f 1 2 3
f 2 1 4
f 4 1 5
f 5 1 4
f 4 1 2
f 3 2 1
f 6 2 4
f 2 6 7
f 7 6 2
f 4 2 6
f 3 8 9
f 8 3 2
f 2 3 8
f 9 8 3
f 10 1 3
f 1 10 11
f 11 10 1
f 3 1 10
f 5 1 11
f 11 1 5
f 12 4 5
f 5 4 12
f 13 7 6
f 7 13 14
f 14 13 7
f 6 7 13
f 7 8 2
f 8 7 15
f 15 7 8
f 2 8 7
f 12 6 4
f 4 6 12
f 16 9 8
f 8 9 16
f 3 9 17
f 17 9 3
f 10 3 17
f 17 3 10
f 11 10 18
f 18 10 11
f 5 11 19
f 19 11 5
f 19 12 5
f 12 19 20
f 20 19 12
f 5 12 19
f 12 13 6
f 6 13 12
f 13 21 14
f 21 13 22
f 22 13 21
f 14 21 13
f 14 15 7
f 15 14 23
f 23 14 15
f 7 15 14
f 16 8 15
f 15 8 16
f 24 9 16
f 16 9 24
f 17 9 24
f 24 9 17
f 10 17 25
f 25 17 10
f 18 10 25
f 25 10 18
f 20 11 18
f 18 11 20
f 19 11 20
f 20 11 19
f 20 26 12
f 12 26 20
f 12 22 13
f 13 22 12
f 22 27 21
f 21 27 22
f 14 28 23
f 28 14 21
f 21 14 28
f 23 28 14
f 16 15 23
f 23 15 16
f 29 24 16
f 16 24 29
f 25 24 29
f 24 25 17
f 17 25 24
f 29 24 25
f 30 18 25
f 25 18 30
f 20 18 30
f 30 18 20
f 30 26 20
f 20 26 30
f 31 12 26
f 26 12 31
f 32 22 12
f 12 22 32
f 22 32 27
f 27 32 22
f 27 33 21
f 21 33 27
f 21 34 28
f 34 21 33
f 33 21 34
f 28 34 21
f 16 23 28
f 28 23 16
f 29 16 35
f 35 16 29
f 25 29 36
f 36 29 25
f 30 25 37
f 37 25 30
f 30 38 26
f 26 38 30
f 39 31 26
f 26 31 39
f 31 32 12
f 12 32 31
f 31 27 32
f 32 27 31
f 31 33 27
f 27 33 31
f 33 40 34
f 34 40 33
f 34 16 28
f 28 16 34
f 36 29 35
f 35 29 36
f 34 35 16
f 16 35 34
f 25 36 41
f 41 36 25
f 30 37 42
f 42 37 30
f 25 41 37
f 37 41 25
f 43 38 30
f 30 38 43
f 39 26 38
f 38 26 39
f 39 33 31
f 31 33 39
f 33 44 40
f 40 44 33
f 40 35 34
f 34 35 40
f 36 35 45
f 45 35 36
f 42 41 36
f 36 41 42
f 43 30 42
f 42 30 43
f 37 41 42
f 42 41 37
f 39 46 33
f 33 46 39
f 46 44 33
f 33 44 46
f 47 40 44
f 44 40 47
f 40 45 35
f 35 45 40
f 48 36 45
f 45 36 48
f 48 42 36
f 36 42 48
f 49 42 43
f 43 42 49
f 39 47 46
f 46 47 39
f 47 44 46
f 46 44 47
f 40 47 50
f 50 47 40
f 50 45 40
f 40 45 50
f 48 45 51
f 51 45 48
f 42 52 48
f 48 52 42
f 49 53 42
f 42 53 49
f 39 54 47
f 47 54 39
f 47 50 55
f 55 50 47
f 50 56 45
f 45 56 50
f 51 57 52
f 57 51 45
f 45 51 57
f 52 57 51
f 42 58 52
f 52 58 42
f 53 58 42
f 42 58 53
f 54 47 59
f 59 47 54
f 47 55 60
f 60 55 47
f 55 56 50
f 50 56 55
f 57 56 55
f 56 57 45
f 45 57 56
f 55 56 57
f 61 57 52
f 52 57 61
f 59 47 62
f 62 47 59
f 47 60 63
f 63 60 47
f 55 57 61
f 61 57 55
f 62 47 63
f 63 47 62
f 39 38 54
f 54 38 59
f 49 64 43
f 64 38 43
f 49 65 66
f 66 65 49
f 65 64 49
f 64 65 38
f 38 65 64
f 49 64 65
f 66 65 59
f 59 65 66
f 59 38 65
f 65 38 59
f 52 48 51

