# https://github.com/mikedh/trimesh
v 0.18200000 -0.17800000 -0.75400000
v 0.18200000 -0.17800000 -0.75000000
v 0.18200000 -0.17400000 -0.75400000
v 0.18200000 -0.17400000 -0.75000000
v 0.18600000 -0.17800000 -0.75400000
v 0.18600000 -0.17800000 -0.75000000
v 0.18600000 -0.17400000 -0.75400000
v 0.18200000 -0.17800000 -0.74600000
v 0.18200000 -0.17400000 -0.74600000
v 0.18600000 -0.17800000 -0.74600000
v 0.18200000 -0.17800000 -0.74200000
v 0.18200000 -0.17400000 -0.74200000
v 0.18600000 -0.17800000 -0.74200000
v 0.18600000 -0.17400000 -0.74200000
v 0.18200000 -0.17000000 -0.75400000
v 0.18200000 -0.17000000 -0.75000000
v 0.18600000 -0.17000000 -0.75400000
v 0.18200000 -0.17000000 -0.74600000
v 0.18200000 -0.17000000 -0.74200000
v 0.18600000 -0.17000000 -0.74200000
v 0.18200000 -0.16600000 -0.75400000
v 0.18200000 -0.16600000 -0.75000000
v 0.18600000 -0.16600000 -0.75400000
v 0.18200000 -0.16600000 -0.74600000
v 0.18200000 -0.16600000 -0.74200000
v 0.18600000 -0.16600000 -0.74200000
v 0.18200000 -0.16200000 -0.75400000
v 0.18200000 -0.16200000 -0.75000000
v 0.18600000 -0.16200000 -0.75400000
v 0.18600000 -0.16200000 -0.75000000
v 0.18200000 -0.16200000 -0.74600000
v 0.18600000 -0.16200000 -0.74600000
v 0.18200000 -0.16200000 -0.74200000
v 0.18600000 -0.16200000 -0.74200000
v 0.18600000 -0.18600000 -0.75400000
v 0.18600000 -0.18600000 -0.75000000
v 0.18600000 -0.18200000 -0.75400000
v 0.18600000 -0.18200000 -0.75000000
v 0.19000000 -0.18600000 -0.75400000
v 0.19000000 -0.18600000 -0.75000000
v 0.19000000 -0.18200000 -0.75400000
v 0.19000000 -0.18200000 -0.75000000
v 0.18600000 -0.18600000 -0.74600000
v 0.18600000 -0.18600000 -0.74200000
v 0.18600000 -0.18200000 -0.74600000
v 0.18600000 -0.18200000 -0.74200000
v 0.19000000 -0.18600000 -0.74600000
v 0.19000000 -0.18600000 -0.74200000
v 0.19000000 -0.18200000 -0.74600000
v 0.19000000 -0.18200000 -0.74200000
v 0.19000000 -0.17800000 -0.75400000
v 0.19000000 -0.17800000 -0.74200000
v 0.19000000 -0.17400000 -0.75400000
v 0.19000000 -0.17400000 -0.74200000
v 0.19000000 -0.17000000 -0.75400000
v 0.19000000 -0.17000000 -0.74200000
v 0.19000000 -0.16600000 -0.75400000
v 0.19000000 -0.16600000 -0.74200000
v 0.19000000 -0.16200000 -0.75400000
v 0.19000000 -0.16200000 -0.74200000
v 0.18600000 -0.15800000 -0.75400000
v 0.18600000 -0.15800000 -0.75000000
v 0.19000000 -0.15800000 -0.75400000
v 0.18600000 -0.15800000 -0.74600000
v 0.18600000 -0.15800000 -0.74200000
v 0.19000000 -0.15800000 -0.74200000
v 0.18600000 -0.15400000 -0.75400000
v 0.18600000 -0.15400000 -0.75000000
v 0.19000000 -0.15400000 -0.75400000
v 0.19000000 -0.15400000 -0.75000000
v 0.18600000 -0.15400000 -0.74600000
v 0.19000000 -0.15400000 -0.74600000
v 0.18600000 -0.15400000 -0.74200000
v 0.19000000 -0.15400000 -0.74200000
v 0.19400000 -0.18600000 -0.75400000
v 0.19400000 -0.18600000 -0.75000000
v 0.19400000 -0.18200000 -0.75400000
v 0.19400000 -0.18600000 -0.74600000
v 0.19400000 -0.18600000 -0.74200000
v 0.19400000 -0.18200000 -0.74200000
v 0.19400000 -0.17800000 -0.75400000
v 0.19400000 -0.17800000 -0.74200000
v 0.19400000 -0.17400000 -0.75400000
v 0.19400000 -0.17400000 -0.74200000
v 0.19400000 -0.17000000 -0.75400000
v 0.19000000 -0.17400000 -0.73800000
v 0.19000000 -0.17000000 -0.73800000
v 0.19400000 -0.17400000 -0.73800000
v 0.19000000 -0.17400000 -0.73400000
v 0.19000000 -0.17000000 -0.73400000
v 0.19400000 -0.17400000 -0.73400000
v 0.19000000 -0.17400000 -0.73000000
v 0.19000000 -0.17000000 -0.73000000
v 0.19400000 -0.17400000 -0.73000000
v 0.19000000 -0.17400000 -0.72600000
v 0.19000000 -0.17000000 -0.72600000
v 0.19400000 -0.17400000 -0.72600000
v 0.19000000 -0.17400000 -0.72200000
v 0.19000000 -0.17000000 -0.72200000
v 0.19400000 -0.17400000 -0.72200000
v 0.19000000 -0.17400000 -0.71800000
v 0.19000000 -0.17000000 -0.71800000
v 0.19400000 -0.17400000 -0.71800000
v 0.19000000 -0.17400000 -0.71400000
v 0.19000000 -0.17000000 -0.71400000
v 0.19400000 -0.17400000 -0.71400000
v 0.19000000 -0.17400000 -0.71000000
v 0.19000000 -0.17000000 -0.71000000
v 0.19400000 -0.17400000 -0.71000000
v 0.19400000 -0.17000000 -0.71000000
v 0.19400000 -0.16600000 -0.75400000
v 0.19000000 -0.16600000 -0.73800000
v 0.19000000 -0.16600000 -0.73400000
v 0.19000000 -0.16600000 -0.73000000
v 0.19000000 -0.16600000 -0.72600000
v 0.19000000 -0.16600000 -0.72200000
v 0.19000000 -0.16600000 -0.71800000
v 0.19000000 -0.16600000 -0.71400000
v 0.19000000 -0.16600000 -0.71000000
v 0.19400000 -0.16600000 -0.71000000
v 0.19400000 -0.16200000 -0.75400000
v 0.19000000 -0.16200000 -0.73800000
v 0.19400000 -0.16200000 -0.74200000
v 0.19400000 -0.16200000 -0.73800000
v 0.19000000 -0.16200000 -0.73400000
v 0.19400000 -0.16200000 -0.73400000
v 0.19000000 -0.16200000 -0.73000000
v 0.19400000 -0.16200000 -0.73000000
v 0.19000000 -0.16200000 -0.72600000
v 0.19400000 -0.16200000 -0.72600000
v 0.19000000 -0.16200000 -0.72200000
v 0.19400000 -0.16200000 -0.72200000
v 0.19000000 -0.16200000 -0.71800000
v 0.19400000 -0.16200000 -0.71800000
v 0.19000000 -0.16200000 -0.71400000
v 0.19400000 -0.16200000 -0.71400000
v 0.19000000 -0.16200000 -0.71000000
v 0.19400000 -0.16200000 -0.71000000
v 0.19400000 -0.15800000 -0.75400000
v 0.19400000 -0.15800000 -0.74200000
v 0.19400000 -0.15400000 -0.75400000
v 0.19400000 -0.15400000 -0.74200000
v 0.19000000 -0.15000000 -0.75400000
v 0.19000000 -0.15000000 -0.75000000
v 0.19400000 -0.15000000 -0.75400000
v 0.19400000 -0.15000000 -0.75000000
v 0.19000000 -0.15000000 -0.74600000
v 0.19400000 -0.15000000 -0.74600000
v 0.19000000 -0.15000000 -0.74200000
v 0.19400000 -0.15000000 -0.74200000
v 0.19400000 -0.19000000 -0.75400000
v 0.19400000 -0.19000000 -0.75000000
v 0.19800000 -0.19000000 -0.75400000
v 0.19800000 -0.19000000 -0.75000000
v 0.19800000 -0.18600000 -0.75400000
v 0.19400000 -0.19000000 -0.74600000
v 0.19800000 -0.19000000 -0.74600000
v 0.19400000 -0.19000000 -0.74200000
v 0.19800000 -0.19000000 -0.74200000
v 0.19800000 -0.18600000 -0.74200000
v 0.19800000 -0.18200000 -0.75400000
v 0.19800000 -0.18200000 -0.74200000
v 0.19800000 -0.17800000 -0.75400000
v 0.19400000 -0.18200000 -0.73800000
v 0.19400000 -0.17800000 -0.73800000
v 0.19800000 -0.18200000 -0.73800000
v 0.19400000 -0.18200000 -0.73400000
v 0.19400000 -0.17800000 -0.73400000
v 0.19800000 -0.18200000 -0.73400000
v 0.19400000 -0.18200000 -0.73000000
v 0.19400000 -0.17800000 -0.73000000
v 0.19800000 -0.18200000 -0.73000000
v 0.19400000 -0.18200000 -0.72600000
v 0.19400000 -0.17800000 -0.72600000
v 0.19800000 -0.18200000 -0.72600000
v 0.19400000 -0.18200000 -0.72200000
v 0.19400000 -0.17800000 -0.72200000
v 0.19800000 -0.18200000 -0.72200000
v 0.19400000 -0.18200000 -0.71800000
v 0.19400000 -0.17800000 -0.71800000
v 0.19800000 -0.18200000 -0.71800000
v 0.19400000 -0.18200000 -0.71400000
v 0.19400000 -0.17800000 -0.71400000
v 0.19800000 -0.18200000 -0.71400000
v 0.19400000 -0.18200000 -0.71000000
v 0.19400000 -0.17800000 -0.71000000
v 0.19800000 -0.18200000 -0.71000000
v 0.19800000 -0.17800000 -0.71000000
v 0.19800000 -0.17400000 -0.75400000
v 0.19800000 -0.17400000 -0.71000000
v 0.19800000 -0.17000000 -0.75400000
v 0.19800000 -0.17000000 -0.71000000
v 0.19800000 -0.16600000 -0.75400000
v 0.19800000 -0.16600000 -0.71000000
v 0.19800000 -0.16200000 -0.75400000
v 0.19800000 -0.16200000 -0.71000000
v 0.19800000 -0.15800000 -0.75400000
v 0.19400000 -0.15800000 -0.73800000
v 0.19800000 -0.15800000 -0.74200000
v 0.19800000 -0.15800000 -0.73800000
v 0.19400000 -0.15800000 -0.73400000
v 0.19800000 -0.15800000 -0.73400000
v 0.19400000 -0.15800000 -0.73000000
v 0.19800000 -0.15800000 -0.73000000
v 0.19400000 -0.15800000 -0.72600000
v 0.19800000 -0.15800000 -0.72600000
v 0.19400000 -0.15800000 -0.72200000
v 0.19800000 -0.15800000 -0.72200000
v 0.19400000 -0.15800000 -0.71800000
v 0.19800000 -0.15800000 -0.71800000
v 0.19400000 -0.15800000 -0.71400000
v 0.19800000 -0.15800000 -0.71400000
v 0.19400000 -0.15800000 -0.71000000
v 0.19800000 -0.15800000 -0.71000000
v 0.19800000 -0.15400000 -0.75400000
v 0.19800000 -0.15400000 -0.74200000
v 0.19800000 -0.15000000 -0.75400000
v 0.19800000 -0.15000000 -0.74200000
v 0.19400000 -0.14600000 -0.75400000
v 0.19400000 -0.14600000 -0.75000000
v 0.19800000 -0.14600000 -0.75400000
v 0.19800000 -0.14600000 -0.75000000
v 0.19400000 -0.14600000 -0.74600000
v 0.19800000 -0.14600000 -0.74600000
v 0.19400000 -0.14600000 -0.74200000
v 0.19800000 -0.14600000 -0.74200000
v 0.19800000 -0.19400000 -0.75400000
v 0.19800000 -0.19400000 -0.75000000
v 0.20200000 -0.19400000 -0.75400000
v 0.20200000 -0.19400000 -0.75000000
v 0.20200000 -0.19000000 -0.75400000
v 0.19800000 -0.19400000 -0.74600000
v 0.20200000 -0.19400000 -0.74600000
v 0.19800000 -0.19400000 -0.74200000
v 0.20200000 -0.19400000 -0.74200000
v 0.20200000 -0.19000000 -0.74200000
v 0.20200000 -0.18600000 -0.75400000
v 0.20200000 -0.18600000 -0.74200000
v 0.20200000 -0.18200000 -0.75400000
v 0.19800000 -0.18600000 -0.73800000
v 0.20200000 -0.18600000 -0.73800000
v 0.19800000 -0.18600000 -0.73400000
v 0.20200000 -0.18600000 -0.73400000
v 0.19800000 -0.18600000 -0.73000000
v 0.20200000 -0.18600000 -0.73000000
v 0.19800000 -0.18600000 -0.72600000
v 0.20200000 -0.18600000 -0.72600000
v 0.19800000 -0.18600000 -0.72200000
v 0.20200000 -0.18600000 -0.72200000
v 0.19800000 -0.18600000 -0.71800000
v 0.20200000 -0.18600000 -0.71800000
v 0.19800000 -0.18600000 -0.71400000
v 0.20200000 -0.18600000 -0.71400000
v 0.19800000 -0.18600000 -0.71000000
v 0.20200000 -0.18600000 -0.71000000
v 0.20200000 -0.18200000 -0.71000000
v 0.20200000 -0.17800000 -0.75400000
v 0.20200000 -0.17800000 -0.71000000
v 0.20200000 -0.17400000 -0.75400000
v 0.20200000 -0.17400000 -0.71000000
v 0.20200000 -0.17000000 -0.75400000
v 0.20200000 -0.17000000 -0.71000000
v 0.20200000 -0.16600000 -0.75400000
v 0.20200000 -0.16600000 -0.71000000
v 0.20200000 -0.16200000 -0.75400000
v 0.20200000 -0.16200000 -0.71000000
v 0.20200000 -0.15800000 -0.75400000
v 0.20200000 -0.15800000 -0.71000000
v 0.20200000 -0.15400000 -0.75400000
v 0.19800000 -0.15400000 -0.73800000
v 0.20200000 -0.15400000 -0.74200000
v 0.20200000 -0.15400000 -0.73800000
v 0.19800000 -0.15400000 -0.73400000
v 0.20200000 -0.15400000 -0.73400000
v 0.19800000 -0.15400000 -0.73000000
v 0.20200000 -0.15400000 -0.73000000
v 0.19800000 -0.15400000 -0.72600000
v 0.20200000 -0.15400000 -0.72600000
v 0.19800000 -0.15400000 -0.72200000
v 0.20200000 -0.15400000 -0.72200000
v 0.19800000 -0.15400000 -0.71800000
v 0.20200000 -0.15400000 -0.71800000
v 0.19800000 -0.15400000 -0.71400000
v 0.20200000 -0.15400000 -0.71400000
v 0.19800000 -0.15400000 -0.71000000
v 0.20200000 -0.15400000 -0.71000000
v 0.20200000 -0.15000000 -0.75400000
v 0.20200000 -0.15000000 -0.74200000
v 0.20200000 -0.14600000 -0.75400000
v 0.20200000 -0.14600000 -0.75000000
v 0.20200000 -0.14600000 -0.74600000
v 0.20200000 -0.14600000 -0.74200000
v 0.20600000 -0.19400000 -0.75400000
v 0.20600000 -0.19400000 -0.75000000
v 0.20600000 -0.19000000 -0.75400000
v 0.20600000 -0.19400000 -0.74600000
v 0.20600000 -0.19400000 -0.74200000
v 0.20600000 -0.19000000 -0.74200000
v 0.20600000 -0.18600000 -0.75400000
v 0.20600000 -0.18600000 -0.74200000
v 0.20600000 -0.18200000 -0.75400000
v 0.20600000 -0.18600000 -0.73800000
v 0.20600000 -0.18600000 -0.73400000
v 0.20600000 -0.18600000 -0.73000000
v 0.20600000 -0.18600000 -0.72600000
v 0.20600000 -0.18600000 -0.72200000
v 0.20600000 -0.18600000 -0.71800000
v 0.20600000 -0.18600000 -0.71400000
v 0.20600000 -0.18600000 -0.71000000
v 0.20600000 -0.18200000 -0.71000000
v 0.20600000 -0.17800000 -0.75400000
v 0.20600000 -0.17800000 -0.71000000
v 0.20600000 -0.17400000 -0.75400000
v 0.20600000 -0.17400000 -0.71000000
v 0.20600000 -0.17000000 -0.75400000
v 0.20600000 -0.17000000 -0.71000000
v 0.20600000 -0.16600000 -0.75400000
v 0.20600000 -0.16600000 -0.71000000
v 0.20600000 -0.16200000 -0.75400000
v 0.20600000 -0.16200000 -0.71000000
v 0.20600000 -0.15800000 -0.75400000
v 0.20600000 -0.15800000 -0.71000000
v 0.20600000 -0.15400000 -0.75400000
v 0.20600000 -0.15400000 -0.71000000
v 0.20600000 -0.15000000 -0.75400000
v 0.20200000 -0.15000000 -0.73800000
v 0.20600000 -0.15000000 -0.74200000
v 0.20600000 -0.15000000 -0.73800000
v 0.20200000 -0.15000000 -0.73400000
v 0.20600000 -0.15000000 -0.73400000
v 0.20200000 -0.15000000 -0.73000000
v 0.20600000 -0.15000000 -0.73000000
v 0.20200000 -0.15000000 -0.72600000
v 0.20600000 -0.15000000 -0.72600000
v 0.20200000 -0.15000000 -0.72200000
v 0.20600000 -0.15000000 -0.72200000
v 0.20200000 -0.15000000 -0.71800000
v 0.20600000 -0.15000000 -0.71800000
v 0.20200000 -0.15000000 -0.71400000
v 0.20600000 -0.15000000 -0.71400000
v 0.20200000 -0.15000000 -0.71000000
v 0.20600000 -0.15000000 -0.71000000
v 0.20600000 -0.14600000 -0.75400000
v 0.20600000 -0.14600000 -0.74200000
v 0.20200000 -0.14200000 -0.75400000
v 0.20200000 -0.14200000 -0.75000000
v 0.20600000 -0.14200000 -0.75400000
v 0.20600000 -0.14200000 -0.75000000
v 0.20200000 -0.14200000 -0.74600000
v 0.20600000 -0.14200000 -0.74600000
v 0.20200000 -0.14200000 -0.74200000
v 0.20600000 -0.14200000 -0.74200000
v 0.21000000 -0.19400000 -0.75400000
v 0.21000000 -0.19400000 -0.75000000
v 0.21000000 -0.19000000 -0.75400000
v 0.21000000 -0.19400000 -0.74600000
v 0.21000000 -0.19400000 -0.74200000
v 0.21000000 -0.19000000 -0.74200000
v 0.21000000 -0.18600000 -0.75400000
v 0.21000000 -0.18600000 -0.74200000
v 0.21000000 -0.18200000 -0.75400000
v 0.21000000 -0.18600000 -0.73800000
v 0.21000000 -0.18600000 -0.73400000
v 0.21000000 -0.18600000 -0.73000000
v 0.21000000 -0.18600000 -0.72600000
v 0.21000000 -0.18600000 -0.72200000
v 0.21000000 -0.18600000 -0.71800000
v 0.21000000 -0.18600000 -0.71400000
v 0.21000000 -0.18600000 -0.71000000
v 0.21000000 -0.18200000 -0.71000000
v 0.21000000 -0.17800000 -0.75400000
v 0.21000000 -0.17800000 -0.71000000
v 0.21000000 -0.17400000 -0.75400000
v 0.21000000 -0.17400000 -0.71000000
v 0.21000000 -0.17000000 -0.75400000
v 0.21000000 -0.17000000 -0.71000000
v 0.21000000 -0.16600000 -0.75400000
v 0.21000000 -0.16600000 -0.71000000
v 0.21000000 -0.16200000 -0.75400000
v 0.21000000 -0.16200000 -0.71000000
v 0.21000000 -0.15800000 -0.75400000
v 0.21000000 -0.15800000 -0.71000000
v 0.21000000 -0.15400000 -0.75400000
v 0.21000000 -0.15400000 -0.71000000
v 0.21000000 -0.15000000 -0.75400000
v 0.21000000 -0.15000000 -0.74200000
v 0.21000000 -0.15000000 -0.73800000
v 0.21000000 -0.15000000 -0.73400000
v 0.21000000 -0.15000000 -0.73000000
v 0.21000000 -0.15000000 -0.72600000
v 0.21000000 -0.15000000 -0.72200000
v 0.21000000 -0.15000000 -0.71800000
v 0.21000000 -0.15000000 -0.71400000
v 0.21000000 -0.15000000 -0.71000000
v 0.21000000 -0.14600000 -0.75400000
v 0.21000000 -0.14600000 -0.74200000
v 0.21000000 -0.14200000 -0.75400000
v 0.21000000 -0.14200000 -0.75000000
v 0.21000000 -0.14200000 -0.74600000
v 0.21000000 -0.14200000 -0.74200000
v 0.21400000 -0.19400000 -0.75400000
v 0.21400000 -0.19400000 -0.75000000
v 0.21400000 -0.19000000 -0.75400000
v 0.21400000 -0.19400000 -0.74600000
v 0.21400000 -0.19400000 -0.74200000
v 0.21400000 -0.19000000 -0.74200000
v 0.21400000 -0.18600000 -0.75400000
v 0.21400000 -0.18600000 -0.74200000
v 0.21400000 -0.18200000 -0.75400000
v 0.21400000 -0.18600000 -0.73800000
v 0.21400000 -0.18600000 -0.73400000
v 0.21400000 -0.18600000 -0.73000000
v 0.21400000 -0.18600000 -0.72600000
v 0.21400000 -0.18600000 -0.72200000
v 0.21400000 -0.18600000 -0.71800000
v 0.21400000 -0.18600000 -0.71400000
v 0.21400000 -0.18600000 -0.71000000
v 0.21400000 -0.18200000 -0.71000000
v 0.21400000 -0.17800000 -0.75400000
v 0.21400000 -0.17800000 -0.71000000
v 0.21400000 -0.17400000 -0.75400000
v 0.21400000 -0.17400000 -0.71000000
v 0.21400000 -0.17000000 -0.75400000
v 0.21400000 -0.17000000 -0.71000000
v 0.21400000 -0.16600000 -0.75400000
v 0.21400000 -0.16600000 -0.71000000
v 0.21400000 -0.16200000 -0.75400000
v 0.21400000 -0.16200000 -0.71000000
v 0.21400000 -0.15800000 -0.75400000
v 0.21400000 -0.15800000 -0.71000000
v 0.21400000 -0.15400000 -0.75400000
v 0.21400000 -0.15400000 -0.71000000
v 0.21400000 -0.15000000 -0.75400000
v 0.21400000 -0.15000000 -0.74200000
v 0.21400000 -0.15000000 -0.73800000
v 0.21400000 -0.15000000 -0.73400000
v 0.21400000 -0.15000000 -0.73000000
v 0.21400000 -0.15000000 -0.72600000
v 0.21400000 -0.15000000 -0.72200000
v 0.21400000 -0.15000000 -0.71800000
v 0.21400000 -0.15000000 -0.71400000
v 0.21400000 -0.15000000 -0.71000000
v 0.21400000 -0.14600000 -0.75400000
v 0.21400000 -0.14600000 -0.74200000
v 0.21400000 -0.14200000 -0.75400000
v 0.21400000 -0.14200000 -0.75000000
v 0.21400000 -0.14200000 -0.74600000
v 0.21400000 -0.14200000 -0.74200000
v 0.21800000 -0.19400000 -0.75400000
v 0.21800000 -0.19400000 -0.75000000
v 0.21800000 -0.19000000 -0.75400000
v 0.21800000 -0.19400000 -0.74600000
v 0.21800000 -0.19400000 -0.74200000
v 0.21800000 -0.19000000 -0.74200000
v 0.21800000 -0.18600000 -0.75400000
v 0.21800000 -0.18600000 -0.74200000
v 0.21800000 -0.18200000 -0.75400000
v 0.21800000 -0.18600000 -0.73800000
v 0.21800000 -0.18600000 -0.73400000
v 0.21800000 -0.18600000 -0.73000000
v 0.21800000 -0.18600000 -0.72600000
v 0.21800000 -0.18600000 -0.72200000
v 0.21800000 -0.18600000 -0.71800000
v 0.21800000 -0.18600000 -0.71400000
v 0.21800000 -0.18600000 -0.71000000
v 0.21800000 -0.18200000 -0.71000000
v 0.21800000 -0.17800000 -0.75400000
v 0.21800000 -0.17800000 -0.71000000
v 0.21800000 -0.17400000 -0.75400000
v 0.21800000 -0.17400000 -0.71000000
v 0.21800000 -0.17000000 -0.75400000
v 0.21800000 -0.17000000 -0.71000000
v 0.21800000 -0.16600000 -0.75400000
v 0.21800000 -0.16600000 -0.71000000
v 0.21800000 -0.16200000 -0.75400000
v 0.21800000 -0.16200000 -0.71000000
v 0.21800000 -0.15800000 -0.75400000
v 0.21800000 -0.15800000 -0.71000000
v 0.21800000 -0.15400000 -0.75400000
v 0.21800000 -0.15400000 -0.71000000
v 0.21800000 -0.15000000 -0.75400000
v 0.21800000 -0.15400000 -0.74200000
v 0.21800000 -0.15400000 -0.73800000
v 0.21800000 -0.15000000 -0.74200000
v 0.21800000 -0.15000000 -0.73800000
v 0.21800000 -0.15400000 -0.73400000
v 0.21800000 -0.15000000 -0.73400000
v 0.21800000 -0.15400000 -0.73000000
v 0.21800000 -0.15000000 -0.73000000
v 0.21800000 -0.15400000 -0.72600000
v 0.21800000 -0.15000000 -0.72600000
v 0.21800000 -0.15400000 -0.72200000
v 0.21800000 -0.15000000 -0.72200000
v 0.21800000 -0.15400000 -0.71800000
v 0.21800000 -0.15000000 -0.71800000
v 0.21800000 -0.15400000 -0.71400000
v 0.21800000 -0.15000000 -0.71400000
v 0.21800000 -0.15000000 -0.71000000
v 0.21800000 -0.14600000 -0.75400000
v 0.21800000 -0.14600000 -0.74200000
v 0.21800000 -0.14600000 -0.75000000
v 0.21800000 -0.14200000 -0.75400000
v 0.21800000 -0.14200000 -0.75000000
v 0.21800000 -0.14600000 -0.74600000
v 0.21800000 -0.14200000 -0.74600000
v 0.21800000 -0.14200000 -0.74200000
v 0.22200000 -0.19400000 -0.75400000
v 0.22200000 -0.19400000 -0.75000000
v 0.22200000 -0.19000000 -0.75400000
v 0.22200000 -0.19000000 -0.75000000
v 0.22200000 -0.19400000 -0.74600000
v 0.22200000 -0.19000000 -0.74600000
v 0.22200000 -0.19400000 -0.74200000
v 0.22200000 -0.19000000 -0.74200000
v 0.22200000 -0.18600000 -0.75400000
v 0.22200000 -0.18600000 -0.74200000
v 0.22200000 -0.18200000 -0.75400000
v 0.22200000 -0.18600000 -0.73800000
v 0.22200000 -0.18200000 -0.74200000
v 0.22200000 -0.18200000 -0.73800000
v 0.22200000 -0.18600000 -0.73400000
v 0.22200000 -0.18200000 -0.73400000
v 0.22200000 -0.18600000 -0.73000000
v 0.22200000 -0.18200000 -0.73000000
v 0.22200000 -0.18600000 -0.72600000
v 0.22200000 -0.18200000 -0.72600000
v 0.22200000 -0.18600000 -0.72200000
v 0.22200000 -0.18200000 -0.72200000
v 0.22200000 -0.18600000 -0.71800000
v 0.22200000 -0.18200000 -0.71800000
v 0.22200000 -0.18600000 -0.71400000
v 0.22200000 -0.18200000 -0.71400000
v 0.22200000 -0.18600000 -0.71000000
v 0.22200000 -0.18200000 -0.71000000
v 0.22200000 -0.17800000 -0.75400000
v 0.22200000 -0.17800000 -0.71000000
v 0.22200000 -0.17400000 -0.75400000
v 0.22200000 -0.17400000 -0.71000000
v 0.22200000 -0.17000000 -0.75400000
v 0.22200000 -0.17000000 -0.71000000
v 0.22200000 -0.16600000 -0.75400000
v 0.22200000 -0.16600000 -0.71000000
v 0.22200000 -0.16200000 -0.75400000
v 0.22200000 -0.16200000 -0.71000000
v 0.22200000 -0.15800000 -0.75400000
v 0.22200000 -0.15800000 -0.71000000
v 0.22200000 -0.15400000 -0.75400000
v 0.22200000 -0.15400000 -0.74200000
v 0.22200000 -0.15400000 -0.73800000
v 0.22200000 -0.15400000 -0.73400000
v 0.22200000 -0.15400000 -0.73000000
v 0.22200000 -0.15400000 -0.72600000
v 0.22200000 -0.15400000 -0.72200000
v 0.22200000 -0.15400000 -0.71800000
v 0.22200000 -0.15400000 -0.71400000
v 0.22200000 -0.15400000 -0.71000000
v 0.22200000 -0.15000000 -0.75400000
v 0.22200000 -0.15000000 -0.74200000
v 0.22200000 -0.14600000 -0.75400000
v 0.22200000 -0.14600000 -0.75000000
v 0.22200000 -0.14600000 -0.74600000
v 0.22200000 -0.14600000 -0.74200000
v 0.22600000 -0.19000000 -0.75400000
v 0.22600000 -0.19000000 -0.75000000
v 0.22600000 -0.18600000 -0.75400000
v 0.22600000 -0.19000000 -0.74600000
v 0.22600000 -0.19000000 -0.74200000
v 0.22600000 -0.18600000 -0.74200000
v 0.22600000 -0.18200000 -0.75400000
v 0.22600000 -0.18200000 -0.74200000
v 0.22600000 -0.17800000 -0.75400000
v 0.22600000 -0.18200000 -0.73800000
v 0.22600000 -0.17800000 -0.74200000
v 0.22600000 -0.17800000 -0.73800000
v 0.22600000 -0.18200000 -0.73400000
v 0.22600000 -0.17800000 -0.73400000
v 0.22600000 -0.18200000 -0.73000000
v 0.22600000 -0.17800000 -0.73000000
v 0.22600000 -0.18200000 -0.72600000
v 0.22600000 -0.17800000 -0.72600000
v 0.22600000 -0.18200000 -0.72200000
v 0.22600000 -0.17800000 -0.72200000
v 0.22600000 -0.18200000 -0.71800000
v 0.22600000 -0.17800000 -0.71800000
v 0.22600000 -0.18200000 -0.71400000
v 0.22600000 -0.17800000 -0.71400000
v 0.22600000 -0.18200000 -0.71000000
v 0.22600000 -0.17800000 -0.71000000
v 0.22600000 -0.17400000 -0.75400000
v 0.22600000 -0.17400000 -0.71000000
v 0.22600000 -0.17000000 -0.75400000
v 0.22600000 -0.17000000 -0.71000000
v 0.22600000 -0.16600000 -0.75400000
v 0.22600000 -0.16600000 -0.71000000
v 0.22600000 -0.16200000 -0.75400000
v 0.22600000 -0.16200000 -0.71000000
v 0.22600000 -0.15800000 -0.75400000
v 0.22600000 -0.16200000 -0.74200000
v 0.22600000 -0.16200000 -0.73800000
v 0.22600000 -0.15800000 -0.74200000
v 0.22600000 -0.15800000 -0.73800000
v 0.22600000 -0.16200000 -0.73400000
v 0.22600000 -0.15800000 -0.73400000
v 0.22600000 -0.16200000 -0.73000000
v 0.22600000 -0.15800000 -0.73000000
v 0.22600000 -0.16200000 -0.72600000
v 0.22600000 -0.15800000 -0.72600000
v 0.22600000 -0.16200000 -0.72200000
v 0.22600000 -0.15800000 -0.72200000
v 0.22600000 -0.16200000 -0.71800000
v 0.22600000 -0.15800000 -0.71800000
v 0.22600000 -0.16200000 -0.71400000
v 0.22600000 -0.15800000 -0.71400000
v 0.22600000 -0.15800000 -0.71000000
v 0.22600000 -0.15400000 -0.75400000
v 0.22600000 -0.15400000 -0.74200000
v 0.22600000 -0.15400000 -0.73800000
v 0.22600000 -0.15400000 -0.73400000
v 0.22600000 -0.15400000 -0.73000000
v 0.22600000 -0.15400000 -0.72600000
v 0.22600000 -0.15400000 -0.72200000
v 0.22600000 -0.15400000 -0.71800000
v 0.22600000 -0.15400000 -0.71400000
v 0.22600000 -0.15400000 -0.71000000
v 0.22600000 -0.15000000 -0.75400000
v 0.22600000 -0.15000000 -0.74200000
v 0.22600000 -0.15000000 -0.75000000
v 0.22600000 -0.14600000 -0.75400000
v 0.22600000 -0.14600000 -0.75000000
v 0.22600000 -0.15000000 -0.74600000
v 0.22600000 -0.14600000 -0.74600000
v 0.22600000 -0.14600000 -0.74200000
v 0.23000000 -0.19000000 -0.75400000
v 0.23000000 -0.19000000 -0.75000000
v 0.23000000 -0.18600000 -0.75400000
v 0.23000000 -0.18600000 -0.75000000
v 0.23000000 -0.19000000 -0.74600000
v 0.23000000 -0.18600000 -0.74600000
v 0.23000000 -0.19000000 -0.74200000
v 0.23000000 -0.18600000 -0.74200000
v 0.23000000 -0.18200000 -0.75400000
v 0.23000000 -0.18200000 -0.74200000
v 0.23000000 -0.17800000 -0.75400000
v 0.23000000 -0.17800000 -0.74200000
v 0.23000000 -0.17400000 -0.75400000
v 0.23000000 -0.17800000 -0.73800000
v 0.23000000 -0.17400000 -0.74200000
v 0.23000000 -0.17400000 -0.73800000
v 0.23000000 -0.17800000 -0.73400000
v 0.23000000 -0.17400000 -0.73400000
v 0.23000000 -0.17800000 -0.73000000
v 0.23000000 -0.17400000 -0.73000000
v 0.23000000 -0.17800000 -0.72600000
v 0.23000000 -0.17400000 -0.72600000
v 0.23000000 -0.17800000 -0.72200000
v 0.23000000 -0.17400000 -0.72200000
v 0.23000000 -0.17800000 -0.71800000
v 0.23000000 -0.17400000 -0.71800000
v 0.23000000 -0.17800000 -0.71400000
v 0.23000000 -0.17400000 -0.71400000
v 0.23000000 -0.17800000 -0.71000000
v 0.23000000 -0.17400000 -0.71000000
v 0.23000000 -0.17000000 -0.75400000
v 0.23000000 -0.17000000 -0.74200000
v 0.23000000 -0.17000000 -0.73800000
v 0.23000000 -0.17000000 -0.73400000
v 0.23000000 -0.17000000 -0.73000000
v 0.23000000 -0.17000000 -0.72600000
v 0.23000000 -0.17000000 -0.72200000
v 0.23000000 -0.17000000 -0.71800000
v 0.23000000 -0.17000000 -0.71400000
v 0.23000000 -0.17000000 -0.71000000
v 0.23000000 -0.16600000 -0.75400000
v 0.23000000 -0.16600000 -0.74200000
v 0.23000000 -0.16600000 -0.73800000
v 0.23000000 -0.16600000 -0.73400000
v 0.23000000 -0.16600000 -0.73000000
v 0.23000000 -0.16600000 -0.72600000
v 0.23000000 -0.16600000 -0.72200000
v 0.23000000 -0.16600000 -0.71800000
v 0.23000000 -0.16600000 -0.71400000
v 0.23000000 -0.16600000 -0.71000000
v 0.23000000 -0.16200000 -0.75400000
v 0.23000000 -0.16200000 -0.74200000
v 0.23000000 -0.16200000 -0.73800000
v 0.23000000 -0.16200000 -0.73400000
v 0.23000000 -0.16200000 -0.73000000
v 0.23000000 -0.16200000 -0.72600000
v 0.23000000 -0.16200000 -0.72200000
v 0.23000000 -0.16200000 -0.71800000
v 0.23000000 -0.16200000 -0.71400000
v 0.23000000 -0.16200000 -0.71000000
v 0.23000000 -0.15800000 -0.75400000
v 0.23000000 -0.15800000 -0.74200000
v 0.23000000 -0.15400000 -0.75400000
v 0.23000000 -0.15400000 -0.74200000
v 0.23000000 -0.15000000 -0.75400000
v 0.23000000 -0.15000000 -0.75000000
v 0.23000000 -0.15000000 -0.74600000
v 0.23000000 -0.15000000 -0.74200000
v 0.23400000 -0.18600000 -0.75400000
v 0.23400000 -0.18600000 -0.75000000
v 0.23400000 -0.18200000 -0.75400000
v 0.23400000 -0.18200000 -0.75000000
v 0.23400000 -0.18600000 -0.74600000
v 0.23400000 -0.18200000 -0.74600000
v 0.23400000 -0.18600000 -0.74200000
v 0.23400000 -0.18200000 -0.74200000
v 0.23400000 -0.17800000 -0.75400000
v 0.23400000 -0.17800000 -0.75000000
v 0.23400000 -0.17800000 -0.74600000
v 0.23400000 -0.17800000 -0.74200000
v 0.23400000 -0.17400000 -0.75400000
v 0.23400000 -0.17400000 -0.74200000
v 0.23400000 -0.17000000 -0.75400000
v 0.23400000 -0.17000000 -0.74200000
v 0.23400000 -0.16600000 -0.75400000
v 0.23400000 -0.16600000 -0.74200000
v 0.23400000 -0.16200000 -0.75400000
v 0.23400000 -0.16200000 -0.74200000
v 0.23400000 -0.15800000 -0.75400000
v 0.23400000 -0.15800000 -0.74200000
v 0.23400000 -0.15800000 -0.75000000
v 0.23400000 -0.15400000 -0.75400000
v 0.23400000 -0.15400000 -0.75000000
v 0.23400000 -0.15800000 -0.74600000
v 0.23400000 -0.15400000 -0.74600000
v 0.23400000 -0.15400000 -0.74200000
v 0.23400000 -0.15000000 -0.75400000
v 0.23400000 -0.15000000 -0.75000000
v 0.23400000 -0.15000000 -0.74600000
v 0.23400000 -0.15000000 -0.74200000
v 0.23800000 -0.17800000 -0.75400000
v 0.23800000 -0.17800000 -0.75000000
v 0.23800000 -0.17400000 -0.75400000
v 0.23800000 -0.17400000 -0.75000000
v 0.23800000 -0.17800000 -0.74600000
v 0.23800000 -0.17400000 -0.74600000
v 0.23800000 -0.17800000 -0.74200000
v 0.23800000 -0.17400000 -0.74200000
v 0.23800000 -0.17000000 -0.75400000
v 0.23800000 -0.17000000 -0.75000000
v 0.23800000 -0.17000000 -0.74600000
v 0.23800000 -0.17000000 -0.74200000
v 0.23800000 -0.16600000 -0.75400000
v 0.23800000 -0.16600000 -0.75000000
v 0.23800000 -0.16600000 -0.74600000
v 0.23800000 -0.16600000 -0.74200000
v 0.23800000 -0.16200000 -0.75400000
v 0.23800000 -0.16200000 -0.75000000
v 0.23800000 -0.16200000 -0.74600000
v 0.23800000 -0.16200000 -0.74200000
v 0.23800000 -0.15800000 -0.75400000
v 0.23800000 -0.15800000 -0.75000000
v 0.23800000 -0.15800000 -0.74600000
v 0.23800000 -0.15800000 -0.74200000
f 2 4 1
f 5 2 1
f 1 4 3
f 3 5 1
f 6 2 5
f 7 5 3
f 8 9 2
f 6 8 2
f 2 9 4
f 10 8 6
f 11 12 8
f 10 11 8
f 8 12 9
f 11 14 12
f 13 11 10
f 13 14 11
f 4 16 3
f 3 16 15
f 15 7 3
f 17 7 15
f 9 18 4
f 4 18 16
f 12 19 9
f 9 19 18
f 12 20 19
f 14 20 12
f 16 22 15
f 15 22 21
f 21 17 15
f 23 17 21
f 18 24 16
f 16 24 22
f 19 25 18
f 18 25 24
f 19 26 25
f 20 26 19
f 22 28 21
f 21 28 27
f 27 23 21
f 28 30 27
f 29 23 27
f 27 30 29
f 24 31 22
f 22 31 28
f 31 32 28
f 28 32 30
f 25 33 24
f 24 33 31
f 25 34 33
f 26 34 25
f 33 34 31
f 31 34 32
f 36 38 35
f 39 36 35
f 35 38 37
f 37 39 35
f 36 42 38
f 40 36 39
f 40 42 36
f 41 39 37
f 44 46 43
f 47 44 43
f 43 46 45
f 45 47 43
f 44 50 46
f 48 44 47
f 48 50 44
f 49 47 45
f 38 6 37
f 37 6 5
f 5 41 37
f 51 41 5
f 45 10 38
f 42 45 38
f 38 10 6
f 49 45 42
f 46 13 45
f 45 13 10
f 46 52 13
f 50 52 46
f 7 51 5
f 53 51 7
f 13 54 14
f 52 54 13
f 17 53 7
f 55 53 17
f 14 56 20
f 54 56 14
f 23 55 17
f 57 55 23
f 20 58 26
f 56 58 20
f 29 57 23
f 59 57 29
f 26 60 34
f 58 60 26
f 30 62 29
f 29 62 61
f 61 59 29
f 63 59 61
f 32 64 30
f 30 64 62
f 34 65 32
f 32 65 64
f 34 66 65
f 60 66 34
f 62 68 61
f 61 68 67
f 67 63 61
f 68 70 67
f 69 63 67
f 67 70 69
f 64 71 62
f 62 71 68
f 71 72 68
f 68 72 70
f 65 73 64
f 64 73 71
f 65 74 73
f 66 74 65
f 73 74 71
f 71 74 72
f 75 40 39
f 41 75 39
f 76 40 75
f 77 75 41
f 47 49 40
f 76 47 40
f 40 49 42
f 78 47 76
f 78 48 47
f 48 80 50
f 79 48 78
f 79 80 48
f 51 77 41
f 81 77 51
f 50 82 52
f 80 82 50
f 53 81 51
f 83 81 53
f 52 84 54
f 82 84 52
f 55 83 53
f 85 83 55
f 86 87 54
f 84 86 54
f 54 87 56
f 88 86 84
f 89 90 86
f 88 89 86
f 86 90 87
f 91 89 88
f 92 93 89
f 91 92 89
f 89 93 90
f 94 92 91
f 95 96 92
f 94 95 92
f 92 96 93
f 97 95 94
f 98 99 95
f 97 98 95
f 95 99 96
f 100 98 97
f 101 102 98
f 100 101 98
f 98 102 99
f 103 101 100
f 104 105 101
f 103 104 101
f 101 105 102
f 106 104 103
f 107 108 104
f 106 107 104
f 104 108 105
f 107 110 108
f 109 107 106
f 109 110 107
f 57 85 55
f 111 85 57
f 87 112 56
f 56 112 58
f 90 113 87
f 87 113 112
f 93 114 90
f 90 114 113
f 96 115 93
f 93 115 114
f 99 116 96
f 96 116 115
f 102 117 99
f 99 117 116
f 105 118 102
f 102 118 117
f 108 119 105
f 105 119 118
f 108 120 119
f 110 120 108
f 59 111 57
f 121 111 59
f 112 122 58
f 58 122 60
f 122 124 60
f 60 124 123
f 113 125 112
f 112 125 122
f 125 126 122
f 122 126 124
f 114 127 113
f 113 127 125
f 127 128 125
f 125 128 126
f 115 129 114
f 114 129 127
f 129 130 127
f 127 130 128
f 116 131 115
f 115 131 129
f 131 132 129
f 129 132 130
f 117 133 116
f 116 133 131
f 133 134 131
f 131 134 132
f 118 135 117
f 117 135 133
f 135 136 133
f 133 136 134
f 119 137 118
f 118 137 135
f 119 138 137
f 120 138 119
f 137 138 135
f 135 138 136
f 63 121 59
f 139 121 63
f 60 140 66
f 123 140 60
f 69 139 63
f 141 139 69
f 66 142 74
f 140 142 66
f 70 144 69
f 69 144 143
f 143 141 69
f 144 146 143
f 145 141 143
f 143 146 145
f 72 147 70
f 70 147 144
f 147 148 144
f 144 148 146
f 74 149 72
f 72 149 147
f 74 150 149
f 142 150 74
f 149 150 147
f 147 150 148
f 152 76 151
f 153 152 151
f 151 76 75
f 75 153 151
f 154 152 153
f 155 153 75
f 156 78 152
f 154 156 152
f 152 78 76
f 157 156 154
f 158 79 156
f 157 158 156
f 156 79 78
f 158 160 79
f 159 158 157
f 159 160 158
f 77 155 75
f 161 155 77
f 79 162 80
f 160 162 79
f 81 161 77
f 163 161 81
f 164 165 80
f 162 164 80
f 80 165 82
f 166 164 162
f 167 168 164
f 166 167 164
f 164 168 165
f 169 167 166
f 170 171 167
f 169 170 167
f 167 171 168
f 172 170 169
f 173 174 170
f 172 173 170
f 170 174 171
f 175 173 172
f 176 177 173
f 175 176 173
f 173 177 174
f 178 176 175
f 179 180 176
f 178 179 176
f 176 180 177
f 181 179 178
f 182 183 179
f 181 182 179
f 179 183 180
f 184 182 181
f 185 186 182
f 184 185 182
f 182 186 183
f 185 188 186
f 187 185 184
f 187 188 185
f 83 163 81
f 189 163 83
f 165 88 82
f 82 88 84
f 168 91 165
f 165 91 88
f 171 94 168
f 168 94 91
f 174 97 171
f 171 97 94
f 177 100 174
f 174 100 97
f 180 103 177
f 177 103 100
f 183 106 180
f 180 106 103
f 186 109 183
f 183 109 106
f 186 190 109
f 188 190 186
f 85 189 83
f 191 189 85
f 109 192 110
f 190 192 109
f 111 191 85
f 193 191 111
f 110 194 120
f 192 194 110
f 121 193 111
f 195 193 121
f 120 196 138
f 194 196 120
f 139 195 121
f 197 195 139
f 124 198 123
f 123 198 140
f 198 200 140
f 140 200 199
f 126 201 124
f 124 201 198
f 201 202 198
f 198 202 200
f 128 203 126
f 126 203 201
f 203 204 201
f 201 204 202
f 130 205 128
f 128 205 203
f 205 206 203
f 203 206 204
f 132 207 130
f 130 207 205
f 207 208 205
f 205 208 206
f 134 209 132
f 132 209 207
f 209 210 207
f 207 210 208
f 136 211 134
f 134 211 209
f 211 212 209
f 209 212 210
f 138 213 136
f 136 213 211
f 138 214 213
f 196 214 138
f 213 214 211
f 211 214 212
f 141 197 139
f 215 197 141
f 140 216 142
f 199 216 140
f 145 215 141
f 217 215 145
f 142 218 150
f 216 218 142
f 146 220 145
f 145 220 219
f 219 217 145
f 220 222 219
f 221 217 219
f 219 222 221
f 148 223 146
f 146 223 220
f 223 224 220
f 220 224 222
f 150 225 148
f 148 225 223
f 150 226 225
f 218 226 150
f 225 226 223
f 223 226 224
f 228 154 227
f 229 228 227
f 227 154 153
f 153 229 227
f 230 228 229
f 231 229 153
f 232 157 228
f 230 232 228
f 228 157 154
f 233 232 230
f 234 159 232
f 233 234 232
f 232 159 157
f 234 236 159
f 235 234 233
f 235 236 234
f 155 231 153
f 237 231 155
f 159 238 160
f 236 238 159
f 161 237 155
f 239 237 161
f 240 166 160
f 238 240 160
f 160 166 162
f 241 240 238
f 242 169 240
f 241 242 240
f 240 169 166
f 243 242 241
f 244 172 242
f 243 244 242
f 242 172 169
f 245 244 243
f 246 175 244
f 245 246 244
f 244 175 172
f 247 246 245
f 248 178 246
f 247 248 246
f 246 178 175
f 249 248 247
f 250 181 248
f 249 250 248
f 248 181 178
f 251 250 249
f 252 184 250
f 251 252 250
f 250 184 181
f 253 252 251
f 254 187 252
f 253 254 252
f 252 187 184
f 254 256 187
f 255 254 253
f 255 256 254
f 163 239 161
f 257 239 163
f 187 258 188
f 256 258 187
f 189 257 163
f 259 257 189
f 188 260 190
f 258 260 188
f 191 259 189
f 261 259 191
f 190 262 192
f 260 262 190
f 193 261 191
f 263 261 193
f 192 264 194
f 262 264 192
f 195 263 193
f 265 263 195
f 194 266 196
f 264 266 194
f 197 265 195
f 267 265 197
f 196 268 214
f 266 268 196
f 215 267 197
f 269 267 215
f 200 270 199
f 199 270 216
f 270 272 216
f 216 272 271
f 202 273 200
f 200 273 270
f 273 274 270
f 270 274 272
f 204 275 202
f 202 275 273
f 275 276 273
f 273 276 274
f 206 277 204
f 204 277 275
f 277 278 275
f 275 278 276
f 208 279 206
f 206 279 277
f 279 280 277
f 277 280 278
f 210 281 208
f 208 281 279
f 281 282 279
f 279 282 280
f 212 283 210
f 210 283 281
f 283 284 281
f 281 284 282
f 214 285 212
f 212 285 283
f 214 286 285
f 268 286 214
f 285 286 283
f 283 286 284
f 217 269 215
f 287 269 217
f 216 288 218
f 271 288 216
f 221 287 217
f 222 290 221
f 289 287 221
f 221 290 289
f 224 291 222
f 222 291 290
f 218 292 226
f 288 292 218
f 226 292 224
f 224 292 291
f 293 230 229
f 231 293 229
f 294 230 293
f 295 293 231
f 294 233 230
f 296 233 294
f 296 235 233
f 235 298 236
f 297 235 296
f 297 298 235
f 237 295 231
f 299 295 237
f 236 300 238
f 298 300 236
f 239 299 237
f 301 299 239
f 300 241 238
f 302 241 300
f 302 243 241
f 303 243 302
f 303 245 243
f 304 245 303
f 304 247 245
f 305 247 304
f 305 249 247
f 306 249 305
f 306 251 249
f 307 251 306
f 307 253 251
f 308 253 307
f 308 255 253
f 255 310 256
f 309 255 308
f 309 310 255
f 257 301 239
f 311 301 257
f 256 312 258
f 310 312 256
f 259 311 257
f 313 311 259
f 258 314 260
f 312 314 258
f 261 313 259
f 315 313 261
f 260 316 262
f 314 316 260
f 263 315 261
f 317 315 263
f 262 318 264
f 316 318 262
f 265 317 263
f 319 317 265
f 264 320 266
f 318 320 264
f 267 319 265
f 321 319 267
f 266 322 268
f 320 322 266
f 269 321 267
f 323 321 269
f 268 324 286
f 322 324 268
f 287 323 269
f 325 323 287
f 272 326 271
f 271 326 288
f 326 328 288
f 288 328 327
f 274 329 272
f 272 329 326
f 329 330 326
f 326 330 328
f 276 331 274
f 274 331 329
f 331 332 329
f 329 332 330
f 278 333 276
f 276 333 331
f 333 334 331
f 331 334 332
f 280 335 278
f 278 335 333
f 335 336 333
f 333 336 334
f 282 337 280
f 280 337 335
f 337 338 335
f 335 338 336
f 284 339 282
f 282 339 337
f 339 340 337
f 337 340 338
f 286 341 284
f 284 341 339
f 286 342 341
f 324 342 286
f 341 342 339
f 339 342 340
f 289 325 287
f 343 325 289
f 288 344 292
f 327 344 288
f 290 346 289
f 289 346 345
f 345 343 289
f 346 348 345
f 347 343 345
f 345 348 347
f 291 349 290
f 290 349 346
f 349 350 346
f 346 350 348
f 292 351 291
f 291 351 349
f 292 352 351
f 344 352 292
f 351 352 349
f 349 352 350
f 353 294 293
f 295 353 293
f 354 294 353
f 355 353 295
f 354 296 294
f 356 296 354
f 356 297 296
f 297 358 298
f 357 297 356
f 357 358 297
f 299 355 295
f 359 355 299
f 298 360 300
f 358 360 298
f 301 359 299
f 361 359 301
f 360 302 300
f 362 302 360
f 362 303 302
f 363 303 362
f 363 304 303
f 364 304 363
f 364 305 304
f 365 305 364
f 365 306 305
f 366 306 365
f 366 307 306
f 367 307 366
f 367 308 307
f 368 308 367
f 368 309 308
f 309 370 310
f 369 309 368
f 369 370 309
f 311 361 301
f 371 361 311
f 310 372 312
f 370 372 310
f 313 371 311
f 373 371 313
f 312 374 314
f 372 374 312
f 315 373 313
f 375 373 315
f 314 376 316
f 374 376 314
f 317 375 315
f 377 375 317
f 316 378 318
f 376 378 316
f 319 377 317
f 379 377 319
f 318 380 320
f 378 380 318
f 321 379 319
f 381 379 321
f 320 382 322
f 380 382 320
f 323 381 321
f 383 381 323
f 322 384 324
f 382 384 322
f 325 383 323
f 385 383 325
f 328 387 327
f 327 387 386
f 330 388 328
f 328 388 387
f 332 389 330
f 330 389 388
f 334 390 332
f 332 390 389
f 336 391 334
f 334 391 390
f 338 392 336
f 336 392 391
f 340 393 338
f 338 393 392
f 324 394 342
f 384 394 324
f 342 394 340
f 340 394 393
f 343 385 325
f 395 385 343
f 327 396 344
f 386 396 327
f 347 395 343
f 348 398 347
f 397 395 347
f 347 398 397
f 350 399 348
f 348 399 398
f 344 400 352
f 396 400 344
f 352 400 350
f 350 400 399
f 401 354 353
f 355 401 353
f 402 354 401
f 403 401 355
f 402 356 354
f 404 356 402
f 404 357 356
f 357 406 358
f 405 357 404
f 405 406 357
f 359 403 355
f 407 403 359
f 358 408 360
f 406 408 358
f 361 407 359
f 409 407 361
f 408 362 360
f 410 362 408
f 410 363 362
f 411 363 410
f 411 364 363
f 412 364 411
f 412 365 364
f 413 365 412
f 413 366 365
f 414 366 413
f 414 367 366
f 415 367 414
f 415 368 367
f 416 368 415
f 416 369 368
f 369 418 370
f 417 369 416
f 417 418 369
f 371 409 361
f 419 409 371
f 370 420 372
f 418 420 370
f 373 419 371
f 421 419 373
f 372 422 374
f 420 422 372
f 375 421 373
f 423 421 375
f 374 424 376
f 422 424 374
f 377 423 375
f 425 423 377
f 376 426 378
f 424 426 376
f 379 425 377
f 427 425 379
f 378 428 380
f 426 428 378
f 381 427 379
f 429 427 381
f 380 430 382
f 428 430 380
f 383 429 381
f 431 429 383
f 382 432 384
f 430 432 382
f 385 431 383
f 433 431 385
f 387 435 386
f 386 435 434
f 388 436 387
f 387 436 435
f 389 437 388
f 388 437 436
f 390 438 389
f 389 438 437
f 391 439 390
f 390 439 438
f 392 440 391
f 391 440 439
f 393 441 392
f 392 441 440
f 384 442 394
f 432 442 384
f 394 442 393
f 393 442 441
f 395 433 385
f 443 433 395
f 386 444 396
f 434 444 386
f 397 443 395
f 398 446 397
f 445 443 397
f 397 446 445
f 399 447 398
f 398 447 446
f 396 448 400
f 444 448 396
f 400 448 399
f 399 448 447
f 449 402 401
f 403 449 401
f 450 402 449
f 451 449 403
f 450 404 402
f 452 404 450
f 452 405 404
f 405 454 406
f 453 405 452
f 453 454 405
f 407 451 403
f 455 451 407
f 406 456 408
f 454 456 406
f 409 455 407
f 457 455 409
f 456 410 408
f 458 410 456
f 458 411 410
f 459 411 458
f 459 412 411
f 460 412 459
f 460 413 412
f 461 413 460
f 461 414 413
f 462 414 461
f 462 415 414
f 463 415 462
f 463 416 415
f 464 416 463
f 464 417 416
f 417 466 418
f 465 417 464
f 465 466 417
f 419 457 409
f 467 457 419
f 418 468 420
f 466 468 418
f 421 467 419
f 469 467 421
f 420 470 422
f 468 470 420
f 423 469 421
f 471 469 423
f 422 472 424
f 470 472 422
f 425 471 423
f 473 471 425
f 424 474 426
f 472 474 424
f 427 473 425
f 475 473 427
f 426 476 428
f 474 476 426
f 429 475 427
f 477 475 429
f 428 478 430
f 476 478 428
f 431 477 429
f 479 477 431
f 430 480 432
f 478 480 430
f 433 479 431
f 481 479 433
f 435 485 434
f 434 485 484
f 484 483 482
f 485 483 484
f 436 487 435
f 435 487 485
f 485 486 483
f 487 486 485
f 437 489 436
f 436 489 487
f 487 488 486
f 489 488 487
f 438 491 437
f 437 491 489
f 489 490 488
f 491 490 489
f 439 493 438
f 438 493 491
f 491 492 490
f 493 492 491
f 440 495 439
f 439 495 493
f 493 494 492
f 495 494 493
f 441 497 440
f 440 497 495
f 495 496 494
f 497 496 495
f 432 498 442
f 480 498 432
f 442 498 441
f 441 498 497
f 497 480 496
f 498 480 497
f 443 481 433
f 499 481 443
f 434 500 444
f 484 500 434
f 445 499 443
f 446 503 445
f 502 499 445
f 445 503 502
f 502 501 499
f 503 501 502
f 447 505 446
f 446 505 503
f 503 504 501
f 505 504 503
f 444 506 448
f 500 506 444
f 448 506 447
f 447 506 505
f 505 500 504
f 506 500 505
f 507 450 449
f 451 507 449
f 508 450 507
f 509 507 451
f 509 508 507
f 510 508 509
f 508 452 450
f 511 452 508
f 510 511 508
f 512 511 510
f 511 453 452
f 453 514 454
f 513 453 511
f 513 514 453
f 512 513 511
f 514 513 512
f 455 509 451
f 515 509 455
f 454 516 456
f 514 516 454
f 457 515 455
f 517 515 457
f 516 458 456
f 518 458 516
f 519 518 516
f 520 518 519
f 518 459 458
f 521 459 518
f 520 521 518
f 522 521 520
f 521 460 459
f 523 460 521
f 522 523 521
f 524 523 522
f 523 461 460
f 525 461 523
f 524 525 523
f 526 525 524
f 525 462 461
f 527 462 525
f 526 527 525
f 528 527 526
f 527 463 462
f 529 463 527
f 528 529 527
f 530 529 528
f 529 464 463
f 531 464 529
f 530 531 529
f 532 531 530
f 531 465 464
f 465 534 466
f 533 465 531
f 533 534 465
f 532 533 531
f 534 533 532
f 467 517 457
f 535 517 467
f 466 536 468
f 534 536 466
f 469 535 467
f 537 535 469
f 468 538 470
f 536 538 468
f 471 537 469
f 539 537 471
f 470 540 472
f 538 540 470
f 473 539 471
f 541 539 473
f 472 542 474
f 540 542 472
f 475 541 473
f 543 541 475
f 474 544 476
f 542 544 474
f 477 543 475
f 545 543 477
f 476 546 478
f 544 546 476
f 479 545 477
f 547 545 479
f 483 549 482
f 482 549 548
f 486 550 483
f 483 550 549
f 488 551 486
f 486 551 550
f 490 552 488
f 488 552 551
f 492 553 490
f 490 553 552
f 494 554 492
f 492 554 553
f 496 555 494
f 494 555 554
f 478 556 480
f 546 556 478
f 480 556 496
f 496 556 555
f 481 547 479
f 557 547 481
f 482 558 484
f 548 558 482
f 499 557 481
f 501 560 499
f 559 557 499
f 499 560 559
f 504 561 501
f 501 561 560
f 484 562 500
f 558 562 484
f 500 562 504
f 504 562 561
f 563 510 509
f 515 563 509
f 564 510 563
f 565 563 515
f 564 512 510
f 566 512 564
f 566 514 512
f 514 568 516
f 567 514 566
f 567 568 514
f 517 565 515
f 569 565 517
f 516 570 519
f 568 570 516
f 535 569 517
f 571 569 535
f 570 520 519
f 572 520 570
f 573 572 570
f 574 572 573
f 572 522 520
f 575 522 572
f 574 575 572
f 576 575 574
f 575 524 522
f 577 524 575
f 576 577 575
f 578 577 576
f 577 526 524
f 579 526 577
f 578 579 577
f 580 579 578
f 579 528 526
f 581 528 579
f 580 581 579
f 582 581 580
f 581 530 528
f 583 530 581
f 582 583 581
f 584 583 582
f 583 532 530
f 585 532 583
f 584 585 583
f 586 585 584
f 585 534 532
f 534 588 536
f 587 534 585
f 587 588 534
f 586 587 585
f 588 587 586
f 537 571 535
f 589 571 537
f 536 590 538
f 588 590 536
f 539 589 537
f 591 589 539
f 538 592 540
f 590 592 538
f 541 591 539
f 593 591 541
f 540 594 542
f 592 594 540
f 543 593 541
f 595 593 543
f 542 596 544
f 594 596 542
f 545 595 543
f 597 595 545
f 600 599 598
f 601 599 600
f 601 602 599
f 603 602 601
f 603 604 602
f 605 604 603
f 605 606 604
f 607 606 605
f 607 608 606
f 609 608 607
f 609 610 608
f 611 610 609
f 611 612 610
f 613 612 611
f 544 614 546
f 596 614 544
f 613 596 612
f 614 596 613
f 547 597 545
f 615 597 547
f 549 617 548
f 548 617 616
f 616 601 600
f 617 601 616
f 550 618 549
f 549 618 617
f 617 603 601
f 618 603 617
f 551 619 550
f 550 619 618
f 618 605 603
f 619 605 618
f 552 620 551
f 551 620 619
f 619 607 605
f 620 607 619
f 553 621 552
f 552 621 620
f 620 609 607
f 621 609 620
f 554 622 553
f 553 622 621
f 621 611 609
f 622 611 621
f 555 623 554
f 554 623 622
f 622 613 611
f 623 613 622
f 546 624 556
f 614 624 546
f 556 624 555
f 555 624 623
f 623 614 613
f 624 614 623
f 557 615 547
f 625 615 557
f 548 626 558
f 616 626 548
f 559 625 557
f 560 629 559
f 628 625 559
f 559 629 628
f 628 627 625
f 629 627 628
f 561 631 560
f 560 631 629
f 629 630 627
f 631 630 629
f 558 632 562
f 626 632 558
f 562 632 561
f 561 632 631
f 631 626 630
f 632 626 631
f 633 564 563
f 565 633 563
f 634 564 633
f 635 633 565
f 635 634 633
f 636 634 635
f 634 566 564
f 637 566 634
f 636 637 634
f 638 637 636
f 637 567 566
f 567 640 568
f 639 567 637
f 639 640 567
f 638 639 637
f 640 639 638
f 569 635 565
f 641 635 569
f 568 642 570
f 640 642 568
f 571 641 569
f 643 641 571
f 570 644 573
f 642 644 570
f 589 643 571
f 645 643 589
f 644 574 573
f 646 574 644
f 647 646 644
f 648 646 647
f 646 576 574
f 649 576 646
f 648 649 646
f 650 649 648
f 649 578 576
f 651 578 649
f 650 651 649
f 652 651 650
f 651 580 578
f 653 580 651
f 652 653 651
f 654 653 652
f 653 582 580
f 655 582 653
f 654 655 653
f 656 655 654
f 655 584 582
f 657 584 655
f 656 657 655
f 658 657 656
f 657 586 584
f 659 586 657
f 658 659 657
f 660 659 658
f 659 588 586
f 588 662 590
f 661 588 659
f 661 662 588
f 660 661 659
f 662 661 660
f 591 645 589
f 663 645 591
f 664 648 647
f 665 648 664
f 665 650 648
f 666 650 665
f 666 652 650
f 667 652 666
f 667 654 652
f 668 654 667
f 668 656 654
f 669 656 668
f 669 658 656
f 670 658 669
f 670 660 658
f 671 660 670
f 590 672 592
f 662 672 590
f 671 662 660
f 672 662 671
f 593 663 591
f 673 663 593
f 674 665 664
f 675 665 674
f 675 666 665
f 676 666 675
f 676 667 666
f 677 667 676
f 677 668 667
f 678 668 677
f 678 669 668
f 679 669 678
f 679 670 669
f 680 670 679
f 680 671 670
f 681 671 680
f 592 682 594
f 672 682 592
f 681 672 671
f 682 672 681
f 595 673 593
f 683 673 595
f 599 685 598
f 598 685 684
f 684 675 674
f 685 675 684
f 602 686 599
f 599 686 685
f 685 676 675
f 686 676 685
f 604 687 602
f 602 687 686
f 686 677 676
f 687 677 686
f 606 688 604
f 604 688 687
f 687 678 677
f 688 678 687
f 608 689 606
f 606 689 688
f 688 679 678
f 689 679 688
f 610 690 608
f 608 690 689
f 689 680 679
f 690 680 689
f 612 691 610
f 610 691 690
f 690 681 680
f 691 681 690
f 594 692 596
f 682 692 594
f 596 692 612
f 612 692 691
f 691 682 681
f 692 682 691
f 597 683 595
f 693 683 597
f 598 694 600
f 684 694 598
f 615 693 597
f 695 693 615
f 600 696 616
f 694 696 600
f 625 695 615
f 627 698 625
f 697 695 625
f 625 698 697
f 630 699 627
f 627 699 698
f 616 700 626
f 696 700 616
f 626 700 630
f 630 700 699
f 701 636 635
f 641 701 635
f 702 636 701
f 703 701 641
f 703 702 701
f 704 702 703
f 702 638 636
f 705 638 702
f 704 705 702
f 706 705 704
f 705 640 638
f 640 708 642
f 707 640 705
f 707 708 640
f 706 707 705
f 708 707 706
f 643 703 641
f 709 703 643
f 709 704 703
f 710 704 709
f 710 706 704
f 711 706 710
f 642 712 644
f 708 712 642
f 711 708 706
f 712 708 711
f 645 709 643
f 713 709 645
f 644 714 647
f 712 714 644
f 663 713 645
f 715 713 663
f 647 716 664
f 714 716 647
f 673 715 663
f 717 715 673
f 664 718 674
f 716 718 664
f 683 717 673
f 719 717 683
f 674 720 684
f 718 720 674
f 693 719 683
f 721 719 693
f 684 722 694
f 720 722 684
f 695 721 693
f 724 721 695
f 724 723 721
f 725 723 724
f 725 726 723
f 727 726 725
f 694 728 696
f 722 728 694
f 727 722 726
f 728 722 727
f 697 724 695
f 698 730 697
f 729 724 697
f 697 730 729
f 729 725 724
f 730 725 729
f 699 731 698
f 698 731 730
f 730 727 725
f 731 727 730
f 696 732 700
f 728 732 696
f 700 732 699
f 699 732 731
f 731 728 727
f 732 728 731
f 733 710 709
f 713 733 709
f 734 710 733
f 735 733 713
f 735 734 733
f 736 734 735
f 734 711 710
f 737 711 734
f 736 737 734
f 738 737 736
f 737 712 711
f 712 740 714
f 739 712 737
f 739 740 712
f 738 739 737
f 740 739 738
f 715 735 713
f 741 735 715
f 741 736 735
f 742 736 741
f 742 738 736
f 743 738 742
f 714 744 716
f 740 744 714
f 743 740 738
f 744 740 743
f 717 741 715
f 745 741 717
f 745 742 741
f 746 742 745
f 746 743 742
f 747 743 746
f 716 748 718
f 744 748 716
f 747 744 743
f 748 744 747
f 719 745 717
f 749 745 719
f 749 746 745
f 750 746 749
f 750 747 746
f 751 747 750
f 718 752 720
f 748 752 718
f 751 748 747
f 752 748 751
f 721 749 719
f 723 754 721
f 753 749 721
f 721 754 753
f 753 750 749
f 754 750 753
f 726 755 723
f 723 755 754
f 754 751 750
f 755 751 754
f 720 756 722
f 752 756 720
f 722 756 726
f 726 756 755
f 755 752 751
f 756 752 755

