# https://github.com/mikedh/trimesh
v -0.00000026 0.12652006 0.10402793
v 0.09045737 0.09045712 0.10543339
v -0.00000026 0.12792603 0.10543339
v 0.08946333 0.08946308 0.10402793
v 0.11828998 0.11829023 0.10543339
v -0.08946333 0.08946308 0.10402793
v -0.00000026 0.12511410 0.10543339
v 0.12651981 0.00000000 0.10402793
v -0.00000026 0.16728745 0.10543339
v 0.16728771 0.00000000 0.10543339
v -0.09045737 0.09045712 0.10543339
v -0.08846929 0.08846904 0.10543339
v 0.08846929 0.08846904 0.10543339
v 0.12792577 0.00000000 0.10543339
v 0.12511435 0.00000000 0.10543339
v 0.11928402 0.11928427 0.10402793
v -0.12792577 0.00000000 0.10543339
v -0.12511435 0.00000000 0.10543339
v -0.00000026 0.08575267 0.10543339
v -0.06063618 0.06063592 0.10543339
v 0.08946333 -0.08946308 0.10402793
v 0.08846929 -0.08846904 0.10543339
v -0.00000026 0.16869342 0.10402793
v -0.11829049 0.11829023 0.10543339
v 0.09045737 -0.09045712 0.10543339
v 0.16869316 0.00000000 0.10402793
v -0.12652032 0.00000000 0.10402793
v -0.16728771 0.00000000 0.10543339
v 0.06063618 0.06063592 0.10543339
v 0.06063618 -0.06063643 0.10543339
v 0.12027806 0.12027831 0.10543339
v -0.11928453 0.11928427 0.10402793
v 0.11828998 -0.11829023 0.10543339
v -0.09045737 -0.09045712 0.10543339
v -0.11829049 -0.11829023 0.10543339
v -0.08946333 -0.08946308 0.10402793
v -0.08575242 0.00000000 0.10543339
v -0.00000026 0.08434671 0.10402793
v -0.05964214 0.05964239 0.10402793
v 0.08575242 0.00000000 0.10543339
v -0.00000026 -0.12792603 0.10543339
v -0.00000026 -0.12652006 0.10402793
v -0.00000026 -0.12511410 0.10543339
v -0.00000026 0.17009938 0.10543339
v -0.00000026 -0.16728796 0.10543339
v 0.11928402 -0.11928427 0.10402793
v 0.17009913 0.00000000 0.10543339
v -0.16869367 0.00000000 0.10402793
v -0.08846929 -0.08846904 0.10543339
v 0.05964214 0.05964239 0.10402793
v 0.08434645 0.00000000 0.10402793
v 0.05964214 -0.05964239 0.10402793
v -0.00000026 -0.08575267 0.10543339
v 0.14811117 0.14811143 0.10543339
v -0.12027857 0.12027831 0.10543339
v -0.11928453 -0.11928427 0.10402793
v -0.06063618 -0.06063643 0.10543339
v -0.08434696 0.00000000 0.10402793
v -0.00000026 0.08294074 0.10543339
v -0.00000026 0.20946132 0.10543339
v -0.17009913 0.00000000 0.10543339
v -0.00000026 -0.16869342 0.10402793
v 0.12027806 -0.12027831 0.10543339
v 0.20946106 0.00000000 0.10543339
v -0.12027857 -0.12027831 0.10543339
v -0.05864810 0.05864835 0.10543339
v 0.05864810 0.05864835 0.10543339
v 0.05864810 -0.05864835 0.10543339
v -0.00000026 -0.08434671 0.10402793
v 0.14910521 0.14910547 0.10402793
v -0.14811168 0.14811143 0.10543339
v -0.20946106 0.00000000 0.10543339
v -0.00000026 -0.17009938 0.10543339
v -0.05964214 -0.05964239 0.10402793
v -0.08294100 0.00000000 0.10543339
v -0.00000026 0.04357932 0.10543339
v 0.08294100 0.00000000 0.10543339
v -0.03081498 0.03081524 0.10543339
v -0.00000026 -0.08294074 0.10543339
v -0.00000026 0.21086677 0.10402793
v -0.14811168 -0.14811143 0.10543339
v -0.00000026 -0.20946132 0.10543339
v 0.14811117 -0.14811143 0.10543339
v 0.21086703 0.00000000 0.10402793
v 0.03081498 0.03081524 0.10543339
v 0.04357906 0.00000000 0.10543339
v 0.03081498 -0.03081524 0.10543339
v -0.05864810 -0.05864835 0.10543339
v -0.00000026 0.21227274 0.10543339
v -0.14910521 0.14910547 0.10402793
v -0.21086703 0.00000000 0.10402793
v -0.14910521 -0.14910547 0.10402793
v 0.21227248 0.00000000 0.10543339
v -0.04357906 0.00000000 0.10543339
v -0.00000026 0.04217335 0.10402793
v -0.02982094 0.02982120 0.10402793
v -0.00000026 -0.04357932 0.10543339
v -0.03081498 -0.03081524 0.10543339
v 0.15009925 0.15009951 0.10543339
v -0.15009925 0.15009951 0.10543339
v -0.00000026 -0.21086677 0.10402793
v 0.14910521 -0.14910547 0.10402793
v 0.02982094 0.02982120 0.10402793
v 0.02982094 -0.02982120 0.10402793
v 0.17793237 0.17793262 0.10543339
v -0.00000026 0.25163467 0.10543339
v -0.15009925 -0.15009951 0.10543339
v 0.15009925 -0.15009951 0.10543339
v -0.04217361 0.00000000 0.10402793
v -0.00000026 0.04076739 0.10543339
v 0.04217310 0.00000000 0.10402793
v -0.00000026 -0.04217335 0.10402793
v -0.02982094 -0.02982120 0.10402793
v -0.17793237 0.17793262 0.10543339
v -0.21227248 0.00000000 0.10543339
v -0.00000026 -0.21227274 0.10543339
v 0.25163442 0.00000000 0.10543339
v -0.02882690 0.02882716 0.10543339
v 0.02882690 0.02882716 0.10543339
v 0.02882690 -0.02882716 0.10543339
v 0.17892641 0.17892666 0.10402793
v -0.00000026 0.25304013 0.10402793
v -0.25163442 0.00000000 0.10543339
v -0.17793237 -0.17793262 0.10543339
v -0.00000026 -0.25163467 0.10543339
v 0.25304038 0.00000000 0.10402793
v 0.17793237 -0.17793262 0.10543339
v -0.04076764 0.00000000 0.10543339
v -0.00000026 0.00702881 0.10543339
v -0.00497045 0.00497020 0.10543339
v 0.04076764 0.00000000 0.10543339
v -0.00000026 -0.04076739 0.10543339
v -0.02882690 -0.02882716 0.10543339
v -0.17892641 0.17892666 0.10402793
v 0.00181917 0.00678962 0.10543339
v -0.00181917 0.00678962 0.10543339
v -0.00351440 0.00608741 0.10543339
v 0.00608715 0.00351466 0.10543339
v 0.00496994 -0.00497020 0.10543339
v 0.17992045 0.17992070 0.10543339
v -0.17992045 0.17992070 0.10543339
v -0.25304038 0.00000000 0.10402793
v -0.17892641 -0.17892666 0.10402793
v 0.17892641 -0.17892666 0.10402793
v -0.00000026 -0.25304013 0.10402793
v -0.00608715 0.00351466 0.10543339
v 0.00181917 0.00678962 0.08996981
v 0.00351440 0.00608741 0.10543339
v -0.00181917 0.00678962 0.08996981
v -0.00497045 0.00497020 0.08996981
v 0.00496994 0.00497020 0.10543339
v 0.00678937 0.00181943 0.10543339
v 0.00608715 -0.00351466 0.10543339
v 0.00351440 -0.00608741 0.10543339
v -0.00351440 -0.00608741 0.10543339
v -0.00702906 0.00000000 0.10543339
v -0.00000026 0.25444609 0.10543339
v 0.25444584 0.00000000 0.10543339
v -0.25444584 0.00000000 0.10543339
v -0.00678937 0.00181943 0.10543339
v -0.00608715 0.00351466 0.08996981
v -0.00000026 0.00702881 0.08996981
v 0.00351440 0.00608741 0.08996981
v -0.00351440 0.00608741 0.08996981
v 0.00608715 0.00351466 0.08996981
v 0.00678937 0.00181943 0.08996981
v 0.00702906 0.00000000 0.10543339
v 0.00678937 -0.00181943 0.10543339
v 0.00608715 -0.00351466 0.08996981
v 0.00181917 -0.00678962 0.10543339
v 0.00496994 -0.00497020 0.08996981
v -0.00497045 -0.00497020 0.10543339
v -0.00181917 -0.00678962 0.10543339
v -0.00678937 -0.00181943 0.10543339
v 0.20775356 0.20775331 0.10543339
v -0.00000026 0.29380803 0.10543339
v -0.29380777 0.00000000 0.10543339
v -0.17992045 -0.17992070 0.10543339
v -0.00000026 -0.25444609 0.10543339
v 0.17992045 -0.17992070 0.10543339
v -0.00678937 0.00181943 0.08996981
v 0.02882690 0.02882716 0.08996981
v 0.00496994 0.00497020 0.08996981
v -0.00000026 0.04076739 0.08996981
v -0.04076764 0.00000000 0.08996981
v 0.00702906 0.00000000 0.08996981
v 0.00678937 -0.00181943 0.08996981
v -0.00000026 -0.00702881 0.10543339
v 0.00351440 -0.00608741 0.08996981
v -0.00497045 -0.00497020 0.08996981
v -0.00608715 -0.00351466 0.10543339
v -0.00351440 -0.00608741 0.08996981
v -0.00702906 0.00000000 0.08996981
v 0.29380777 0.00000000 0.10543339
v -0.20775356 0.20775331 0.10543339
v -0.20775356 -0.20775331 0.10543339
v -0.02882690 0.02882716 0.08996981
v 0.04076764 0.00000000 0.08996981
v 0.00181917 -0.00678962 0.08996981
v -0.00000026 -0.04076739 0.08996981
v -0.00608715 -0.00351466 0.08996981
v -0.00181917 -0.00678962 0.08996981
v -0.00678937 -0.00181943 0.08996981
v 0.20874760 0.20874735 0.10402793
v -0.00000026 0.29521348 0.10402793
v -0.29521374 0.00000000 0.10402793
v -0.20874760 -0.20874735 0.10402793
v -0.00000026 -0.29380803 0.10543339
v 0.20775356 -0.20775331 0.10543339
v 0.02982094 0.02982120 0.09137577
v -0.00000026 0.04217335 0.09137577
v -0.02982094 0.02982120 0.09137577
v 0.02882690 -0.02882716 0.08996981
v -0.00000026 -0.00702881 0.08996981
v -0.02882690 -0.02882716 0.08996981
v 0.29521374 0.00000000 0.10402793
v -0.20874760 0.20874735 0.10402793
v -0.00000026 -0.29521348 0.10402793
v 0.04217310 0.00000000 0.09137577
v -0.04217361 0.00000000 0.09137577
v 0.02982094 -0.02982120 0.09137577
v 0.20974164 0.20974139 0.10543339
v -0.20974164 0.20974139 0.10543339
v -0.29661970 0.00000000 0.10543339
v -0.20974164 -0.20974139 0.10543339
v -0.00000026 -0.29661945 0.10543339
v 0.20874760 -0.20874735 0.10402793
v -0.02982094 -0.02982120 0.09137577
v 0.03081498 0.03081524 0.08996981
v -0.00000026 0.04357932 0.08996981
v -0.04357906 0.00000000 0.08996981
v -0.00000026 -0.04217335 0.09137577
v -0.00000026 0.29661945 0.10543339
v 0.29661919 0.00000000 0.10543339
v 0.04357906 0.00000000 0.08996981
v -0.03081498 0.03081524 0.08996981
v -0.03081498 -0.03081524 0.08996981
v 0.03081498 -0.03081524 0.08996981
v 0.23757476 0.23757450 0.10543339
v 0.33598112 0.00000000 0.10543339
v -0.00000026 0.33598138 0.10543339
v -0.33598112 0.00000000 0.10543339
v -0.23757476 -0.23757450 0.10543339
v 0.20974164 -0.20974139 0.10543339
v 0.05864810 0.05864835 0.08996981
v 0.08294100 0.00000000 0.08996981
v -0.00000026 0.08294074 0.08996981
v -0.08294100 0.00000000 0.08996981
v -0.05864810 -0.05864835 0.08996981
v -0.00000026 -0.04357932 0.08996981
v -0.23757476 0.23757450 0.10543339
v -0.00000026 -0.33598138 0.10543339
v -0.05864810 0.05864835 0.08996981
v -0.00000026 -0.08294074 0.08996981
v 0.23856829 0.23856854 0.10402793
v 0.33738709 0.00000000 0.10402793
v 0.23757476 -0.23757450 0.10543339
v -0.23856880 0.23856854 0.10402793
v -0.33738709 0.00000000 0.10402793
v -0.23856880 -0.23856854 0.10402793
v -0.00000026 -0.33738684 0.10402793
v -0.00000026 0.08434671 0.09137577
v 0.08434645 0.00000000 0.09137577
v 0.05864810 -0.05864835 0.08996981
v -0.05964214 0.05964239 0.09137577
v -0.05964214 -0.05964239 0.09137577
v -0.00000026 0.33738684 0.10402793
v 0.23856829 -0.23856854 0.10402793
v 0.05964214 0.05964239 0.09137577
v 0.05964214 -0.05964239 0.09137577
v -0.08434696 0.00000000 0.09137577
v -0.00000026 -0.08434671 0.09137577
v 0.23856829 0.23856854 0.09137577
v 0.33738709 0.00000000 0.09137577
v -0.23856880 0.23856854 0.09137577
v -0.33738709 0.00000000 0.09137577
v -0.23856880 -0.23856854 0.09137577
v -0.00000026 -0.33738684 0.09137577
v 0.23856829 -0.23856854 0.09137577
v 0.06063618 0.06063592 0.08996981
v 0.08575242 0.00000000 0.08996981
v -0.00000026 0.08575267 0.08996981
v -0.06063618 0.06063592 0.08996981
v -0.06063618 -0.06063643 0.08996981
v -0.00000026 0.33738684 0.09137577
v 0.06063618 -0.06063643 0.08996981
v -0.08575242 0.00000000 0.08996981
v -0.00000026 -0.08575267 0.08996981
v -0.00000026 0.33598138 0.08996981
v 0.23757476 0.23757450 0.08996981
v -0.23757476 0.23757450 0.08996981
v -0.33598112 0.00000000 0.08996981
v -0.00000026 -0.33598138 0.08996981
v 0.33598112 0.00000000 0.08996981
v 0.08846929 0.08846904 0.08996981
v 0.12511435 0.00000000 0.08996981
v -0.00000026 0.12511410 0.08996981
v -0.12511435 0.00000000 0.08996981
v -0.08846929 -0.08846904 0.08996981
v -0.00000026 -0.12511410 0.08996981
v -0.23757476 -0.23757450 0.08996981
v 0.23757476 -0.23757450 0.08996981
v 0.08846929 -0.08846904 0.08996981
v -0.08846929 0.08846904 0.08996981
v -0.00000026 0.29661945 0.08996981
v -0.20974164 0.20974139 0.08996981
v 0.29661919 0.00000000 0.08996981
v -0.29661970 0.00000000 0.08996981
v -0.20974164 -0.20974139 0.08996981
v 0.20974164 -0.20974139 0.08996981
v 0.08946333 0.08946308 0.09137577
v 0.12651981 0.00000000 0.09137577
v 0.08946333 -0.08946308 0.09137577
v -0.00000026 0.12652006 0.09137577
v -0.08946333 0.08946308 0.09137577
v -0.08946333 -0.08946308 0.09137577
v -0.00000026 -0.12652006 0.09137577
v 0.20974164 0.20974139 0.08996981
v -0.00000026 -0.29661945 0.08996981
v -0.12652032 0.00000000 0.09137577
v -0.00000026 0.29521348 0.09137577
v -0.20874760 0.20874735 0.09137577
v 0.29521374 0.00000000 0.09137577
v 0.20874760 -0.20874735 0.09137577
v -0.20874760 -0.20874735 0.09137577
v -0.00000026 -0.29521348 0.09137577
v -0.00000026 0.12792603 0.08996981
v 0.09045737 0.09045712 0.08996981
v 0.12792577 0.00000000 0.08996981
v -0.12792577 0.00000000 0.08996981
v -0.09045737 -0.09045712 0.08996981
v -0.00000026 -0.12792603 0.08996981
v 0.20874760 0.20874735 0.09137577
v -0.29521374 0.00000000 0.09137577
v 0.09045737 -0.09045712 0.08996981
v -0.09045737 0.09045712 0.08996981
v -0.00000026 0.29380803 0.08996981
v -0.20775356 0.20775331 0.08996981
v 0.20775356 0.20775331 0.08996981
v 0.20775356 -0.20775331 0.08996981
v -0.20775356 -0.20775331 0.08996981
v -0.00000026 -0.29380803 0.08996981
v 0.11828998 0.11829023 0.08996981
v 0.16728771 0.00000000 0.08996981
v -0.00000026 0.16728745 0.08996981
v -0.16728771 0.00000000 0.08996981
v -0.11829049 -0.11829023 0.08996981
v -0.00000026 -0.16728796 0.08996981
v 0.29380777 0.00000000 0.08996981
v -0.29380777 0.00000000 0.08996981
v 0.11828998 -0.11829023 0.08996981
v -0.11829049 0.11829023 0.08996981
v -0.00000026 0.25444609 0.08996981
v -0.17992045 0.17992070 0.08996981
v 0.17992045 0.17992070 0.08996981
v 0.17992045 -0.17992070 0.08996981
v -0.25444584 0.00000000 0.08996981
v -0.17992045 -0.17992070 0.08996981
v 0.11928402 0.11928427 0.09137577
v 0.16869316 0.00000000 0.09137577
v -0.00000026 0.16869342 0.09137577
v -0.16869367 0.00000000 0.09137577
v -0.11928453 -0.11928427 0.09137577
v -0.00000026 -0.16869342 0.09137577
v 0.25444584 0.00000000 0.08996981
v -0.00000026 -0.25444609 0.08996981
v 0.11928402 -0.11928427 0.09137577
v -0.11928453 0.11928427 0.09137577
v -0.00000026 0.25304013 0.09137577
v -0.17892641 0.17892666 0.09137577
v 0.25304038 0.00000000 0.09137577
v 0.17892641 -0.17892666 0.09137577
v -0.25304038 0.00000000 0.09137577
v -0.00000026 -0.25304013 0.09137577
v 0.12027806 0.12027831 0.08996981
v 0.17009913 0.00000000 0.08996981
v 0.12027806 -0.12027831 0.08996981
v -0.00000026 0.17009938 0.08996981
v -0.12027857 0.12027831 0.08996981
v -0.12027857 -0.12027831 0.08996981
v -0.00000026 -0.17009938 0.08996981
v 0.17892641 0.17892666 0.09137577
v -0.17892641 -0.17892666 0.09137577
v -0.17009913 0.00000000 0.08996981
v -0.00000026 0.25163467 0.08996981
v -0.17793237 0.17793262 0.08996981
v 0.17793237 0.17793262 0.08996981
v 0.17793237 -0.17793262 0.08996981
v -0.25163442 0.00000000 0.08996981
v -0.17793237 -0.17793262 0.08996981
v 0.14811117 0.14811143 0.08996981
v 0.20946106 0.00000000 0.08996981
v -0.00000026 0.20946132 0.08996981
v -0.20946106 0.00000000 0.08996981
v -0.14811168 -0.14811143 0.08996981
v -0.00000026 -0.20946132 0.08996981
v 0.25163442 0.00000000 0.08996981
v -0.00000026 -0.25163467 0.08996981
v 0.14811117 -0.14811143 0.08996981
v -0.14811168 0.14811143 0.08996981
v -0.00000026 0.21227274 0.08996981
v -0.15009925 0.15009951 0.08996981
v 0.15009925 0.15009951 0.08996981
v 0.15009925 -0.15009951 0.08996981
v -0.21227248 0.00000000 0.08996981
v -0.00000026 -0.21227274 0.08996981
v 0.14910521 0.14910547 0.09137577
v 0.21086703 0.00000000 0.09137577
v 0.14910521 -0.14910547 0.09137577
v -0.00000026 0.21086677 0.09137577
v -0.21086703 0.00000000 0.09137577
v -0.14910521 -0.14910547 0.09137577
v -0.00000026 -0.21086677 0.09137577
v 0.21227248 0.00000000 0.08996981
v -0.15009925 -0.15009951 0.08996981
v -0.14910521 0.14910547 0.09137577
v -0.37275089 0.27155533 -0.00140571
v -0.45702554 0.07177070 0.00000026
v -0.37391563 0.27241649 0.00000026
v -0.45559351 0.07155554 -0.00140571
v -0.45845808 0.07198586 -0.00140571
v -0.37391563 0.27241649 0.01124645
v -0.34012849 0.24745459 -0.00140571
v -0.41405184 0.06531532 0.00000026
v -0.37508088 0.27327714 -0.00140571
v -0.49856720 0.07801143 -0.00140571
v -0.45702554 0.07177070 0.01124645
v -0.40886801 0.29823853 0.01124645
v -0.33896376 0.24659394 0.00000026
v -0.41548387 0.06553048 -0.00140571
v -0.41405184 0.06531532 0.01124645
v -0.40886801 0.29823853 0.00000026
v -0.49999974 0.07822659 0.00000026
v -0.37275089 0.27155533 0.01265190
v -0.45845808 0.07198586 0.01265190
v -0.40770276 0.29737788 0.01265190
v -0.33896376 0.24659394 0.01124645
v -0.40770276 0.29737788 -0.00140571
v -0.41548387 0.06553048 0.01265190
v -0.49999974 0.07822659 0.01124645
v -0.45559351 0.07155554 0.01265190
v -0.37508088 0.27327714 0.01265190
v -0.49856720 0.07801143 0.01265190
v -0.34012849 0.24745459 0.01265190
v -0.42362989 0.14872216 -0.00140571
v -0.44756095 0.09407859 -0.00140571
v -0.44645396 0.09362016 -0.00140571
v -0.42473687 0.14918059 -0.00140571
v -0.43457352 0.08869902 -0.00140571
v -0.38492724 0.24528968 -0.10543339
v -0.41796871 0.16552016 -0.06178916
v -0.41796871 0.16552016 -0.07873383
v -0.41174945 0.14380102 -0.00140571
v -0.37193981 0.23991011 -0.10543339
v -0.41258914 0.17850809 -0.06178916
v -0.40498129 0.16014059 -0.07873383
v -0.40775131 0.19018768 -0.10543339
v -0.40498129 0.16014059 -0.05560209
v -0.39960172 0.17312852 -0.05560209
v -0.39476389 0.18480811 -0.10543339
v -0.41258914 0.17850809 -0.09279145
v -0.39960172 0.17312852 -0.09279145
v -0.38319010 0.25369992 -0.00140571
v -0.41751130 0.20336011 -0.00140571
v -0.40601417 0.19859741 -0.00140571
v -0.39468723 0.25846212 -0.00140571
v -0.44433351 0.10187094 -0.10543339
v -0.38169929 0.25308255 -0.00140571
v -0.42557708 0.18388766 -0.08212430
v -0.45732094 0.10725102 -0.10543339
v -0.40452337 0.19798003 -0.00140571
v -0.41258914 0.17850809 -0.08212430
v -0.42557708 0.18388766 -0.06797674
v -0.43095665 0.17090024 -0.06797674
v -0.42150944 0.15697346 -0.10543339
v -0.43449686 0.16235303 -0.10543339
v -0.43095665 0.17090024 -0.09618243
v -0.41796871 0.16552016 -0.09618243
v -0.07155579 0.45559325 -0.00140571
v -0.27241624 0.37391588 0.00000026
v -0.07177095 0.45702579 0.00000026
v -0.27155559 0.37275063 -0.00140571
v -0.27327689 0.37508062 -0.00140571
v -0.07177095 0.45702579 0.01124645
v -0.06553074 0.41548413 -0.00140571
v -0.24659369 0.33896350 0.00000026
v -0.07198612 0.45845833 -0.00140571
v -0.29737814 0.40770251 -0.00140571
v -0.27241624 0.37391588 0.01124645
v -0.07822685 0.50000000 0.01124645
v -0.06531557 0.41405158 0.00000026
v -0.24745485 0.34012875 -0.00140571
v -0.24659369 0.33896350 0.01124645
v -0.07822685 0.50000000 0.00000026
v -0.29823879 0.40886776 0.00000026
v -0.07155579 0.45559325 0.01265190
v -0.27327689 0.37508062 0.01265190
v -0.07801169 0.49856746 0.01265190
v -0.06531557 0.41405158 0.01124645
v -0.07801169 0.49856746 -0.00140571
v -0.24745485 0.34012875 0.01265190
v -0.29823879 0.40886776 0.01124645
v -0.27155559 0.37275063 0.01265190
v -0.07198612 0.45845833 0.01265190
v -0.29737814 0.40770251 0.01265190
v -0.06553074 0.41548413 0.01265190
v -0.09156334 0.45034911 -0.00140571
v -0.15142804 0.43902217 -0.00140571
v -0.14666585 0.42752504 -0.00140571
v -0.09632604 0.46184625 -0.00140571
v -0.24215705 0.38622460 -0.10543339
v -0.09094596 0.44885831 -0.00140571
v -0.17089998 0.43095639 -0.08212430
v -0.24753713 0.39921254 -0.10543339
v -0.14604847 0.42603424 -0.00140571
v -0.16552041 0.41796897 -0.08212430
v -0.17089998 0.43095639 -0.06797674
v -0.18388792 0.42557682 -0.06797674
v -0.18705505 0.40904868 -0.10543339
v -0.17850835 0.41258889 -0.06178916
v -0.19243462 0.42203661 -0.10543339
v -0.16552041 0.41796897 -0.06178916
v -0.18388792 0.42557682 -0.09618192
v -0.17850835 0.41258889 -0.09618192
v -0.19438896 0.40471374 -0.00140571
v -0.24994991 0.38299717 -0.00140571
v -0.24949148 0.38189018 -0.00140571
v -0.19484791 0.40582124 -0.00140571
v -0.24457034 0.37000923 -0.00140571
v -0.09873882 0.44563088 -0.10543339
v -0.17850835 0.41258889 -0.07873383
v -0.18946783 0.39283330 -0.00140571
v -0.09335925 0.43264294 -0.10543339
v -0.17312827 0.39960146 -0.07873383
v -0.15384083 0.42280680 -0.10543339
v -0.17312827 0.39960146 -0.05560209
v -0.16014084 0.40498103 -0.05560209
v -0.14846126 0.40981886 -0.10543339
v -0.16552041 0.41796897 -0.09279145
v -0.16014084 0.40498103 -0.09279145
v 0.27155559 0.37275063 -0.00140571
v 0.07177095 0.45702579 0.00000026
v 0.27241624 0.37391588 0.00000026
v 0.07155579 0.45559325 -0.00140571
v 0.07198612 0.45845833 -0.00140571
v 0.27241624 0.37391588 0.01124645
v 0.24745434 0.34012875 -0.00140571
v 0.06531506 0.41405158 0.00000026
v 0.27327689 0.37508062 -0.00140571
v 0.07801117 0.49856746 -0.00140571
v 0.07177095 0.45702579 0.01124645
v 0.29823879 0.40886776 0.01124645
v 0.24659369 0.33896350 0.00000026
v 0.06553022 0.41548413 -0.00140571
v 0.06531506 0.41405158 0.01124645
v 0.29823879 0.40886776 0.00000026
v 0.07822634 0.50000000 0.00000026
v 0.27155559 0.37275063 0.01265190
v 0.07198612 0.45845833 0.01265190
v 0.29737814 0.40770251 0.01265190
v 0.24659369 0.33896350 0.01124645
v 0.29737814 0.40770251 -0.00140571
v 0.06553022 0.41548413 0.01265190
v 0.07822634 0.50000000 0.01124645
v 0.07155579 0.45559325 0.01265190
v 0.27327689 0.37508062 0.01265190
v 0.07801117 0.49856746 0.01265190
v 0.24745434 0.34012875 0.01265190
v 0.25369967 0.38318984 -0.00140571
v 0.20335985 0.41751105 -0.00140571
v 0.19859766 0.40601392 -0.00140571
v 0.25846186 0.39468697 -0.00140571
v 0.10187120 0.44433326 -0.10543339
v 0.25308229 0.38169955 -0.00140571
v 0.18388741 0.42557682 -0.08212430
v 0.10725077 0.45732068 -0.10543339
v 0.19798028 0.40452362 -0.00140571
v 0.17850784 0.41258889 -0.08212430
v 0.18388741 0.42557682 -0.06797674
v 0.17089998 0.43095639 -0.06797674
v 0.15697320 0.42150918 -0.10543339
v 0.16552041 0.41796897 -0.06178916
v 0.16235277 0.43449661 -0.10543339
v 0.17850784 0.41258889 -0.06178916
v 0.17089998 0.43095639 -0.09618192
v 0.16552041 0.41796897 -0.09618192
v 0.14872190 0.42362963 -0.00140571
v 0.09407833 0.44756120 -0.00140571
v 0.09361990 0.44645371 -0.00140571
v 0.14918085 0.42473713 -0.00140571
v 0.08869876 0.43457327 -0.00140571
v 0.24528943 0.38492749 -0.10543339
v 0.16552041 0.41796897 -0.07873383
v 0.14380077 0.41174919 -0.00140571
v 0.23990986 0.37193956 -0.10543339
v 0.16014033 0.40498103 -0.07873383
v 0.19018742 0.40775106 -0.10543339
v 0.16014033 0.40498103 -0.05560209
v 0.17312827 0.39960146 -0.05560209
v 0.18480785 0.39476363 -0.10543339
v 0.17850784 0.41258889 -0.09279145
v 0.17312827 0.39960146 -0.09279145
v 0.45559299 0.07155554 -0.00140571
v 0.37391563 0.27241649 0.00000026
v 0.45702554 0.07177070 0.00000026
v 0.37275038 0.27155533 -0.00140571
v 0.37508088 0.27327714 -0.00140571
v 0.45702554 0.07177070 0.01124645
v 0.41548387 0.06553048 -0.00140571
v 0.33896376 0.24659394 0.00000026
v 0.45845808 0.07198586 -0.00140571
v 0.40770276 0.29737788 -0.00140571
v 0.37391563 0.27241649 0.01124645
v 0.49999974 0.07822659 0.01124645
v 0.41405133 0.06531532 0.00000026
v 0.34012849 0.24745459 -0.00140571
v 0.33896376 0.24659394 0.01124645
v 0.49999974 0.07822659 0.00000026
v 0.40886750 0.29823853 0.00000026
v 0.45559299 0.07155554 0.01265190
v 0.37508088 0.27327714 0.01265190
v 0.49856720 0.07801143 0.01265190
v 0.41405133 0.06531532 0.01124645
v 0.49856720 0.07801143 -0.00140571
v 0.34012849 0.24745459 0.01265190
v 0.40886750 0.29823853 0.01124645
v 0.37275038 0.27155533 0.01265190
v 0.45845808 0.07198586 0.01265190
v 0.40770276 0.29737788 0.01265190
v 0.41548387 0.06553048 0.01265190
v 0.40471400 0.19438922 -0.00140571
v 0.38299691 0.24994966 -0.00140571
v 0.38188992 0.24949123 -0.00140571
v 0.40582098 0.19484765 -0.00140571
v 0.37000897 0.24457009 -0.00140571
v 0.44563062 0.09873857 -0.10543339
v 0.41258914 0.17850809 -0.06178916
v 0.41258914 0.17850809 -0.07873383
v 0.39283305 0.18946808 -0.00140571
v 0.43264268 0.09335900 -0.10543339
v 0.41796871 0.16552016 -0.06178916
v 0.39960121 0.17312852 -0.07873383
v 0.42280655 0.15384057 -0.10543339
v 0.39960121 0.17312852 -0.05560209
v 0.40498129 0.16014059 -0.05560209
v 0.40981912 0.14846100 -0.10543339
v 0.41796871 0.16552016 -0.09279145
v 0.40498129 0.16014059 -0.09279145
v 0.45034886 0.09156359 -0.00140571
v 0.43902192 0.15142779 -0.00140571
v 0.42752478 0.14666560 -0.00140571
v 0.46184599 0.09632578 -0.00140571
v 0.38622486 0.24215731 -0.10543339
v 0.44885857 0.09094621 -0.00140571
v 0.43095665 0.17090024 -0.08212430
v 0.39921228 0.24753688 -0.10543339
v 0.42603449 0.14604822 -0.00140571
v 0.41796871 0.16552016 -0.08212430
v 0.43095665 0.17090024 -0.06797674
v 0.42557657 0.18388766 -0.06797674
v 0.40904893 0.18705479 -0.10543339
v 0.42203636 0.19243487 -0.10543339
v 0.42557657 0.18388766 -0.09618192
v 0.41258914 0.17850809 -0.09618192
v 0.37275038 -0.27155533 -0.00140571
v 0.45702554 -0.07177070 0.00000026
v 0.37391563 -0.27241649 0.00000026
v 0.45559299 -0.07155554 -0.00140571
v 0.45845808 -0.07198637 -0.00140571
v 0.37391563 -0.27241649 0.01124645
v 0.34012849 -0.24745459 -0.00140571
v 0.41405133 -0.06531532 0.00000026
v 0.37508088 -0.27327714 -0.00140571
v 0.49856720 -0.07801143 -0.00140571
v 0.45702554 -0.07177070 0.01124645
v 0.40886750 -0.29823853 0.01124645
v 0.33896376 -0.24659394 0.00000026
v 0.41548387 -0.06553048 -0.00140571
v 0.41405133 -0.06531532 0.01124645
v 0.40886750 -0.29823853 0.00000026
v 0.49999974 -0.07822659 0.00000026
v 0.37275038 -0.27155533 0.01265190
v 0.45845808 -0.07198637 0.01265190
v 0.40770276 -0.29737788 0.01265190
v 0.33896376 -0.24659394 0.01124645
v 0.40770276 -0.29737788 -0.00140571
v 0.41548387 -0.06553048 0.01265190
v 0.49999974 -0.07822659 0.01124645
v 0.45559299 -0.07155554 0.01265190
v 0.37508088 -0.27327714 0.01265190
v 0.49856720 -0.07801143 0.01265190
v 0.34012849 -0.24745459 0.01265190
v 0.42362989 -0.14872216 -0.00140571
v 0.44756095 -0.09407859 -0.00140571
v 0.44645396 -0.09362016 -0.00140571
v 0.42473687 -0.14918059 -0.00140571
v 0.43457301 -0.08869902 -0.00140571
v 0.38492724 -0.24528968 -0.10543339
v 0.41796871 -0.16552016 -0.06178916
v 0.41796871 -0.16552016 -0.07873383
v 0.41174894 -0.14380102 -0.00140571
v 0.37193930 -0.23991011 -0.10543339
v 0.41258914 -0.17850809 -0.06178916
v 0.40498129 -0.16014059 -0.07873383
v 0.40775131 -0.19018768 -0.10543339
v 0.40498129 -0.16014059 -0.05560209
v 0.39960121 -0.17312852 -0.05560209
v 0.39476338 -0.18480811 -0.10543339
v 0.41258914 -0.17850809 -0.09279145
v 0.39960121 -0.17312852 -0.09279145
v 0.38319010 -0.25369992 -0.00140571
v 0.41751130 -0.20336011 -0.00140571
v 0.40601417 -0.19859741 -0.00140571
v 0.39468723 -0.25846212 -0.00140571
v 0.44433300 -0.10187094 -0.10543339
v 0.38169929 -0.25308255 -0.00140571
v 0.42557657 -0.18388766 -0.08212430
v 0.45732094 -0.10725102 -0.10543339
v 0.40452337 -0.19798003 -0.00140571
v 0.41258914 -0.17850809 -0.08212430
v 0.42557657 -0.18388766 -0.06797674
v 0.43095665 -0.17090024 -0.06797674
v 0.42150893 -0.15697346 -0.10543339
v 0.43449686 -0.16235303 -0.10543339
v 0.43095665 -0.17090024 -0.09618192
v 0.41796871 -0.16552016 -0.09618192
v 0.07155579 -0.45559325 -0.00140571
v 0.27241624 -0.37391588 0.00000026
v 0.07177095 -0.45702579 0.00000026
v 0.27155559 -0.37275063 -0.00140571
v 0.27327689 -0.37508062 -0.00140571
v 0.07177095 -0.45702579 0.01124645
v 0.06553022 -0.41548413 -0.00140571
v 0.24659369 -0.33896350 0.00000026
v 0.07198612 -0.45845833 -0.00140571
v 0.29737814 -0.40770251 -0.00140571
v 0.27241624 -0.37391588 0.01124645
v 0.07822634 -0.50000000 0.01124645
v 0.06531506 -0.41405158 0.00000026
v 0.24745434 -0.34012875 -0.00140571
v 0.24659369 -0.33896350 0.01124645
v 0.07822634 -0.50000000 0.00000026
v 0.29823879 -0.40886776 0.00000026
v 0.07155579 -0.45559325 0.01265190
v 0.27327689 -0.37508062 0.01265190
v 0.07801117 -0.49856746 0.01265190
v 0.06531506 -0.41405158 0.01124645
v 0.07801117 -0.49856746 -0.00140571
v 0.24745434 -0.34012875 0.01265190
v 0.29823879 -0.40886776 0.01124645
v 0.27155559 -0.37275063 0.01265190
v 0.07198612 -0.45845833 0.01265190
v 0.29737814 -0.40770251 0.01265190
v 0.06553022 -0.41548413 0.01265190
v 0.09156334 -0.45034911 -0.00140571
v 0.15142753 -0.43902217 -0.00140571
v 0.14666534 -0.42752504 -0.00140571
v 0.09632553 -0.46184625 -0.00140571
v 0.24215705 -0.38622460 -0.10543339
v 0.09094596 -0.44885831 -0.00140571
v 0.17089998 -0.43095639 -0.08212430
v 0.24753662 -0.39921254 -0.10543339
v 0.14604796 -0.42603424 -0.00140571
v 0.16552041 -0.41796897 -0.08212430
v 0.17089998 -0.43095639 -0.06797674
v 0.18388741 -0.42557682 -0.06797674
v 0.18705505 -0.40904868 -0.10543339
v 0.17850784 -0.41258940 -0.06178916
v 0.19243462 -0.42203661 -0.10543339
v 0.16552041 -0.41796897 -0.06178916
v 0.18388741 -0.42557682 -0.09618243
v 0.17850784 -0.41258940 -0.09618243
v 0.19438896 -0.40471425 -0.00140571
v 0.24994991 -0.38299717 -0.00140571
v 0.24949097 -0.38189018 -0.00140571
v 0.19484740 -0.40582124 -0.00140571
v 0.24456983 -0.37000923 -0.00140571
v 0.09873882 -0.44563088 -0.10543339
v 0.17850784 -0.41258940 -0.07873383
v 0.18946783 -0.39283330 -0.00140571
v 0.09335874 -0.43264294 -0.10543339
v 0.17312827 -0.39960146 -0.07873383
v 0.15384083 -0.42280680 -0.10543339
v 0.17312827 -0.39960146 -0.05560209
v 0.16014033 -0.40498103 -0.05560209
v 0.14846126 -0.40981886 -0.10543339
v 0.16552041 -0.41796897 -0.09279145
v 0.16014033 -0.40498103 -0.09279145
v -0.14872242 -0.42363014 -0.00140571
v -0.09407884 -0.44756120 -0.00140571
v -0.09361990 -0.44645371 -0.00140571
v -0.14918085 -0.42473713 -0.00140571
v -0.08869876 -0.43457327 -0.00140571
v -0.24528994 -0.38492749 -0.10543339
v -0.16552041 -0.41796897 -0.06178916
v -0.16552041 -0.41796897 -0.07873383
v -0.14380128 -0.41174919 -0.00140571
v -0.23991037 -0.37193956 -0.10543339
v -0.17850835 -0.41258940 -0.06178916
v -0.16014084 -0.40498103 -0.07873383
v -0.19018742 -0.40775157 -0.10543339
v -0.16014084 -0.40498103 -0.05560209
v -0.17312827 -0.39960146 -0.05560209
v -0.18480785 -0.39476363 -0.10543339
v -0.17850835 -0.41258940 -0.09279145
v -0.17312827 -0.39960146 -0.09279145
v -0.25369967 -0.38318984 -0.00140571
v -0.20335985 -0.41751105 -0.00140571
v -0.19859766 -0.40601392 -0.00140571
v -0.25846186 -0.39468697 -0.00140571
v -0.10187120 -0.44433326 -0.10543339
v -0.25308229 -0.38169955 -0.00140571
v -0.18388792 -0.42557682 -0.08212430
v -0.10725077 -0.45732068 -0.10543339
v -0.19798028 -0.40452362 -0.00140571
v -0.17850835 -0.41258940 -0.08212430
v -0.18388792 -0.42557682 -0.06797674
v -0.17089998 -0.43095639 -0.06797674
v -0.15697320 -0.42150918 -0.10543339
v -0.16235328 -0.43449661 -0.10543339
v -0.17089998 -0.43095639 -0.09618243
v -0.16552041 -0.41796897 -0.09618243
v -0.27155559 -0.37275063 -0.00140571
v -0.07177095 -0.45702579 0.00000026
v -0.27241624 -0.37391588 0.00000026
v -0.07155579 -0.45559325 -0.00140571
v -0.07198612 -0.45845833 -0.00140571
v -0.27241624 -0.37391588 0.01124645
v -0.24745485 -0.34012875 -0.00140571
v -0.06531557 -0.41405158 0.00000026
v -0.27327689 -0.37508062 -0.00140571
v -0.07801169 -0.49856746 -0.00140571
v -0.07177095 -0.45702579 0.01124645
v -0.29823879 -0.40886776 0.01124645
v -0.24659369 -0.33896350 0.00000026
v -0.06553074 -0.41548413 -0.00140571
v -0.06531557 -0.41405158 0.01124645
v -0.29823879 -0.40886776 0.00000026
v -0.07822685 -0.50000000 0.00000026
v -0.27155559 -0.37275063 0.01265190
v -0.07198612 -0.45845833 0.01265190
v -0.29737814 -0.40770251 0.01265190
v -0.24659369 -0.33896350 0.01124645
v -0.29737814 -0.40770251 -0.00140571
v -0.06553074 -0.41548413 0.01265190
v -0.07822685 -0.50000000 0.01124645
v -0.07155579 -0.45559325 0.01265190
v -0.27327689 -0.37508062 0.01265190
v -0.07801169 -0.49856746 0.01265190
v -0.24745485 -0.34012875 0.01265190
v -0.45559351 -0.07155554 -0.00140571
v -0.37391563 -0.27241649 0.00000026
v -0.45702554 -0.07177070 0.00000026
v -0.37275089 -0.27155533 -0.00140571
v -0.37508088 -0.27327714 -0.00140571
v -0.45702554 -0.07177070 0.01124645
v -0.41548387 -0.06553048 -0.00140571
v -0.33896376 -0.24659394 0.00000026
v -0.45845808 -0.07198637 -0.00140571
v -0.40770276 -0.29737788 -0.00140571
v -0.37391563 -0.27241649 0.01124645
v -0.49999974 -0.07822659 0.01124645
v -0.41405184 -0.06531532 0.00000026
v -0.34012849 -0.24745459 -0.00140571
v -0.33896376 -0.24659394 0.01124645
v -0.49999974 -0.07822659 0.00000026
v -0.40886801 -0.29823853 0.00000026
v -0.45559351 -0.07155554 0.01265190
v -0.37508088 -0.27327714 0.01265190
v -0.49856720 -0.07801143 0.01265190
v -0.41405184 -0.06531532 0.01124645
v -0.49856720 -0.07801143 -0.00140571
v -0.34012849 -0.24745459 0.01265190
v -0.40886801 -0.29823853 0.01124645
v -0.37275089 -0.27155533 0.01265190
v -0.45845808 -0.07198637 0.01265190
v -0.40770276 -0.29737788 0.01265190
v -0.41548387 -0.06553048 0.01265190
v -0.40471400 -0.19438922 -0.00140571
v -0.38299691 -0.24994966 -0.00140571
v -0.38188992 -0.24949123 -0.00140571
v -0.40582098 -0.19484765 -0.00140571
v -0.37000949 -0.24457009 -0.00140571
v -0.44563062 -0.09873857 -0.10543339
v -0.41258914 -0.17850809 -0.06178916
v -0.41258914 -0.17850809 -0.07873383
v -0.39283356 -0.18946808 -0.00140571
v -0.43264320 -0.09335900 -0.10543339
v -0.41796871 -0.16552016 -0.06178916
v -0.39960172 -0.17312852 -0.07873383
v -0.42280655 -0.15384057 -0.10543339
v -0.39960172 -0.17312852 -0.05560209
v -0.40498129 -0.16014059 -0.05560209
v -0.40981912 -0.14846100 -0.10543339
v -0.41796871 -0.16552016 -0.09279145
v -0.40498129 -0.16014059 -0.09279145
v -0.45034886 -0.09156359 -0.00140571
v -0.43902243 -0.15142779 -0.00140571
v -0.42752478 -0.14666560 -0.00140571
v -0.46184650 -0.09632578 -0.00140571
v -0.38622486 -0.24215731 -0.10543339
v -0.44885857 -0.09094621 -0.00140571
v -0.43095665 -0.17090024 -0.08212430
v -0.39921279 -0.24753688 -0.10543339
v -0.42603449 -0.14604822 -0.00140571
v -0.41796871 -0.16552016 -0.08212430
v -0.43095665 -0.17090024 -0.06797674
v -0.42557708 -0.18388766 -0.06797674
v -0.40904893 -0.18705479 -0.10543339
v -0.42203687 -0.19243487 -0.10543339
v -0.42557708 -0.18388766 -0.09618243
v -0.41258914 -0.17850809 -0.09618243
v -0.02912792 -0.03488901 0.08996981
v -0.08045667 -0.05615022 0.04779645
v -0.02912792 -0.03488901 0.07224932
v -0.26190957 -0.13131036 0.08996981
v -0.08583624 -0.04316279 0.04779645
v -0.03450749 -0.02190159 0.07224932
v -0.26728965 -0.11832294 0.08996981
v -0.17717802 -0.09621335 0.04779645
v -0.18255759 -0.08322592 0.04779645
v -0.03450749 -0.02190159 0.08996981
v -0.40748095 -0.17639224 -0.10543339
v -0.03988706 -0.00891365 0.07224932
v -0.41286052 -0.16340431 -0.10543339
v -0.03988706 -0.00891365 0.08996981
v -0.44802909 -0.19318768 -0.10543339
v -0.45340866 -0.18020026 -0.07867302
v -0.09941088 -0.03356942 0.08996981
v -0.44802909 -0.19318768 -0.07867302
v -0.45340866 -0.18020026 -0.10543339
v -0.09403131 -0.04655735 0.08996981
v -0.04526663 -0.00407377 0.08996981
v -0.09659589 0.01718692 0.04779645
v -0.04526663 -0.00407377 0.07224932
v -0.27804879 0.09234758 0.08996981
v -0.09121581 0.03017486 0.04779645
v -0.03988706 0.00891365 0.07224932
v -0.27266922 0.10533500 0.08996981
v -0.19331673 0.05725056 0.04779645
v -0.18793716 0.07023799 0.04779645
v -0.03988706 0.00891365 0.08996981
v -0.41286052 0.16340431 -0.10543339
v -0.03450749 0.02190159 0.07224932
v -0.40748095 0.17639224 -0.10543339
v -0.03450749 0.02190159 0.08996981
v -0.45340866 0.18020026 -0.10543339
v -0.44802909 0.19318768 -0.07867302
v -0.09403131 0.04655684 0.08996981
v -0.45340866 0.18020026 -0.07867302
v -0.44802909 0.19318768 -0.10543339
v -0.09941088 0.03356942 0.08996981
v -0.03488927 0.02912767 0.08996981
v -0.05615047 0.08045641 0.04779645
v -0.03488927 0.02912767 0.07224932
v -0.13131062 0.26190982 0.08996981
v -0.04316254 0.08583598 0.04779645
v -0.02190133 0.03450724 0.07224932
v -0.11832320 0.26728939 0.08996981
v -0.09621360 0.17717776 0.04779645
v -0.08322567 0.18255733 0.04779645
v -0.02190133 0.03450724 0.08996981
v -0.17639199 0.40748070 -0.10543339
v -0.00891391 0.03988681 0.07224932
v -0.16340456 0.41286078 -0.10543339
v -0.00891391 0.03988681 0.08996981
v -0.19318794 0.44802884 -0.10543339
v -0.18020000 0.45340892 -0.07867302
v -0.03356967 0.09941114 0.08996981
v -0.19318794 0.44802884 -0.07867302
v -0.18020000 0.45340892 -0.10543339
v -0.04655710 0.09403157 0.08996981
v -0.00407403 0.04526689 0.08996981
v 0.01718718 0.09659563 0.04779645
v -0.00407403 0.04526689 0.07224932
v 0.09234732 0.27804853 0.08996981
v 0.03017460 0.09121606 0.04779645
v 0.00891339 0.03988681 0.07224932
v 0.10533526 0.27266896 0.08996981
v 0.05725031 0.19331699 0.04779645
v 0.07023824 0.18793690 0.04779645
v 0.00891339 0.03988681 0.08996981
v 0.16340456 0.41286078 -0.10543339
v 0.02190133 0.03450724 0.07224932
v 0.17639199 0.40748070 -0.10543339
v 0.02190133 0.03450724 0.08996981
v 0.18020000 0.45340892 -0.10543339
v 0.19318743 0.44802884 -0.07867302
v 0.04655710 0.09403157 0.08996981
v 0.18020000 0.45340892 -0.07867302
v 0.19318743 0.44802884 -0.10543339
v 0.03356916 0.09941114 0.08996981
v 0.02912741 0.03488901 0.08996981
v 0.08045667 0.05615022 0.04779645
v 0.02912741 0.03488901 0.07224932
v 0.26190957 0.13131036 0.08996981
v 0.08583624 0.04316279 0.04779645
v 0.03450698 0.02190159 0.07224932
v 0.26728914 0.11832294 0.08996981
v 0.17717751 0.09621335 0.04779645
v 0.18255759 0.08322592 0.04779645
v 0.03450698 0.02190159 0.08996981
v 0.40748095 0.17639224 -0.10543339
v 0.03988706 0.00891365 0.07224932
v 0.41286052 0.16340431 -0.10543339
v 0.03988706 0.00891365 0.08996981
v 0.44802909 0.19318768 -0.10543339
v 0.45340866 0.18020026 -0.07867302
v 0.09941088 0.03356942 0.08996981
v 0.44802909 0.19318768 -0.07867302
v 0.45340866 0.18020026 -0.10543339
v 0.09403131 0.04655684 0.08996981
v 0.04526663 0.00407377 0.08996981
v 0.09659538 -0.01718692 0.04779645
v 0.04526663 0.00407377 0.07224932
v 0.27804879 -0.09234758 0.08996981
v 0.09121581 -0.03017486 0.04779645
v 0.03988706 -0.00891365 0.07224932
v 0.27266871 -0.10533500 0.08996981
v 0.19331673 -0.05725056 0.04779645
v 0.18793716 -0.07023799 0.04779645
v 0.03988706 -0.00891365 0.08996981
v 0.41286052 -0.16340431 -0.10543339
v 0.03450698 -0.02190159 0.07224932
v 0.40748095 -0.17639224 -0.10543339
v 0.03450698 -0.02190159 0.08996981
v 0.45340866 -0.18020026 -0.10543339
v 0.44802909 -0.19318768 -0.07867302
v 0.09403131 -0.04655735 0.08996981
v 0.45340866 -0.18020026 -0.07867302
v 0.44802909 -0.19318768 -0.10543339
v 0.09941088 -0.03356942 0.08996981
v 0.03488927 -0.02912767 0.08996981
v 0.05614996 -0.08045641 0.04779645
v 0.03488927 -0.02912767 0.07224932
v 0.13131062 -0.26190982 0.08996981
v 0.04316254 -0.08583598 0.04779645
v 0.02190133 -0.03450724 0.07224932
v 0.11832268 -0.26728939 0.08996981
v 0.09621360 -0.17717776 0.04779645
v 0.08322567 -0.18255733 0.04779645
v 0.02190133 -0.03450724 0.08996981
v 0.17639199 -0.40748121 -0.10543339
v 0.00891339 -0.03988681 0.07224932
v 0.16340456 -0.41286078 -0.10543339
v 0.00891339 -0.03988681 0.08996981
v 0.19318743 -0.44802884 -0.10543339
v 0.18020000 -0.45340892 -0.07867302
v 0.03356916 -0.09941114 0.08996981
v 0.19318743 -0.44802884 -0.07867302
v 0.18020000 -0.45340892 -0.10543339
v 0.04655710 -0.09403157 0.08996981
v -0.16340456 -0.41286078 -0.10543339
v -0.02190133 -0.03450724 0.07224932
v -0.00891391 -0.03988681 0.07224932
v -0.17639199 -0.40748121 -0.10543339
v -0.02190133 -0.03450724 0.08996981
v -0.18020000 -0.45340892 -0.10543339
v -0.19318794 -0.44802884 -0.07867302
v -0.00891391 -0.03988681 0.08996981
v -0.04655710 -0.09403157 0.08996981
v -0.18020000 -0.45340892 -0.07867302
v -0.19318794 -0.44802884 -0.10543339
v -0.03356967 -0.09941114 0.08996981
v 0.00407403 -0.04526689 0.08996981
v -0.01718718 -0.09659563 0.04779645
v 0.00407403 -0.04526689 0.07224932
v -0.09234732 -0.27804853 0.08996981
v -0.03017511 -0.09121606 0.04779645
v -0.10533526 -0.27266896 0.08996981
v -0.05725031 -0.19331699 0.04779645
v -0.07023824 -0.18793690 0.04779645
f 1 2 3
f 2 1 4
f 3 2 1
f 4 1 2
f 5 3 2
f 2 3 5
f 3 6 1
f 1 6 3
f 7 4 1
f 1 4 7
f 8 2 4
f 4 2 8
f 3 5 9
f 9 5 3
f 2 10 5
f 5 10 2
f 6 3 11
f 11 3 6
f 12 1 6
f 6 1 12
f 4 7 13
f 13 7 4
f 1 12 7
f 7 12 1
f 2 8 14
f 14 8 2
f 4 15 8
f 8 15 4
f 16 9 5
f 5 9 16
f 9 11 3
f 3 11 9
f 10 2 14
f 14 2 10
f 10 16 5
f 5 16 10
f 17 6 11
f 11 6 17
f 6 18 12
f 12 18 6
f 19 13 7
f 7 13 19
f 15 4 13
f 13 4 15
f 20 7 12
f 12 7 20
f 21 14 8
f 8 14 21
f 22 8 15
f 15 8 22
f 9 16 23
f 23 16 9
f 11 9 24
f 24 9 11
f 25 10 14
f 14 10 25
f 16 10 26
f 26 10 16
f 6 17 27
f 27 17 6
f 11 28 17
f 17 28 11
f 18 6 27
f 27 6 18
f 18 20 12
f 12 20 18
f 13 19 29
f 29 19 13
f 7 20 19
f 19 20 7
f 29 15 13
f 13 15 29
f 14 21 25
f 25 21 14
f 8 22 21
f 21 22 8
f 15 30 22
f 22 30 15
f 31 23 16
f 16 23 31
f 32 9 23
f 23 9 32
f 9 32 24
f 24 32 9
f 28 11 24
f 24 11 28
f 10 25 33
f 33 25 10
f 33 26 10
f 10 26 33
f 26 31 16
f 16 31 26
f 34 27 17
f 17 27 34
f 35 17 28
f 28 17 35
f 36 18 27
f 27 18 36
f 20 18 37
f 37 18 20
f 38 29 19
f 19 29 38
f 39 19 20
f 20 19 39
f 15 29 40
f 40 29 15
f 21 41 25
f 25 41 21
f 22 42 21
f 21 42 22
f 30 15 40
f 40 15 30
f 30 43 22
f 22 43 30
f 23 31 44
f 44 31 23
f 44 32 23
f 23 32 44
f 32 28 24
f 24 28 32
f 25 45 33
f 33 45 25
f 26 33 46
f 46 33 26
f 31 26 47
f 47 26 31
f 27 34 36
f 36 34 27
f 17 35 34
f 34 35 17
f 48 35 28
f 28 35 48
f 18 36 49
f 49 36 18
f 49 37 18
f 18 37 49
f 37 39 20
f 20 39 37
f 29 38 50
f 50 38 29
f 19 39 38
f 38 39 19
f 29 51 40
f 40 51 29
f 41 21 42
f 42 21 41
f 45 25 41
f 41 25 45
f 42 22 43
f 43 22 42
f 40 52 30
f 30 52 40
f 43 30 53
f 53 30 43
f 54 44 31
f 31 44 54
f 32 44 55
f 55 44 32
f 28 32 48
f 48 32 28
f 45 46 33
f 33 46 45
f 46 47 26
f 26 47 46
f 47 54 31
f 31 54 47
f 41 36 34
f 34 36 41
f 35 41 34
f 34 41 35
f 35 48 56
f 56 48 35
f 42 49 36
f 36 49 42
f 37 49 57
f 57 49 37
f 39 37 58
f 58 37 39
f 59 50 38
f 38 50 59
f 51 29 50
f 50 29 51
f 39 59 38
f 38 59 39
f 52 40 51
f 51 40 52
f 36 41 42
f 42 41 36
f 41 35 45
f 45 35 41
f 49 42 43
f 43 42 49
f 52 53 30
f 30 53 52
f 53 49 43
f 43 49 53
f 44 54 60
f 60 54 44
f 60 55 44
f 44 55 60
f 61 32 55
f 55 32 61
f 32 61 48
f 48 61 32
f 46 45 62
f 62 45 46
f 47 46 63
f 63 46 47
f 54 47 64
f 64 47 54
f 48 65 56
f 56 65 48
f 62 35 56
f 56 35 62
f 49 53 57
f 57 53 49
f 57 58 37
f 37 58 57
f 58 66 39
f 39 66 58
f 50 59 67
f 67 59 50
f 67 51 50
f 50 51 67
f 59 39 66
f 66 39 59
f 51 68 52
f 52 68 51
f 35 62 45
f 45 62 35
f 53 52 69
f 69 52 53
f 70 60 54
f 54 60 70
f 55 60 71
f 71 60 55
f 55 72 61
f 61 72 55
f 65 48 61
f 61 48 65
f 73 46 62
f 62 46 73
f 46 73 63
f 63 73 46
f 63 64 47
f 47 64 63
f 64 70 54
f 54 70 64
f 73 56 65
f 65 56 73
f 56 73 62
f 62 73 56
f 53 74 57
f 57 74 53
f 58 57 74
f 74 57 58
f 66 58 75
f 75 58 66
f 76 67 59
f 59 67 76
f 51 67 77
f 77 67 51
f 78 59 66
f 66 59 78
f 68 51 77
f 77 51 68
f 79 52 68
f 68 52 79
f 52 79 69
f 69 79 52
f 74 53 69
f 69 53 74
f 60 70 80
f 80 70 60
f 80 71 60
f 60 71 80
f 72 55 71
f 71 55 72
f 81 61 72
f 72 61 81
f 61 81 65
f 65 81 61
f 82 63 73
f 73 63 82
f 64 63 83
f 83 63 64
f 70 64 84
f 84 64 70
f 81 73 65
f 65 73 81
f 74 75 58
f 58 75 74
f 75 78 66
f 66 78 75
f 67 76 85
f 85 76 67
f 59 78 76
f 76 78 59
f 67 86 77
f 77 86 67
f 77 87 68
f 68 87 77
f 87 79 68
f 68 79 87
f 88 69 79
f 79 69 88
f 69 88 74
f 74 88 69
f 70 89 80
f 80 89 70
f 71 80 90
f 90 80 71
f 71 91 72
f 72 91 71
f 72 92 81
f 81 92 72
f 63 82 83
f 83 82 63
f 73 81 82
f 82 81 73
f 83 84 64
f 64 84 83
f 93 70 84
f 84 70 93
f 75 74 88
f 88 74 75
f 78 75 94
f 94 75 78
f 95 85 76
f 76 85 95
f 86 67 85
f 85 67 86
f 96 76 78
f 78 76 96
f 87 77 86
f 86 77 87
f 79 87 97
f 97 87 79
f 79 98 88
f 88 98 79
f 89 70 99
f 99 70 89
f 100 80 89
f 89 80 100
f 80 100 90
f 90 100 80
f 91 71 90
f 90 71 91
f 92 72 91
f 91 72 92
f 101 81 92
f 92 81 101
f 101 83 82
f 82 83 101
f 81 101 82
f 82 101 81
f 84 83 102
f 102 83 84
f 70 93 99
f 99 93 70
f 102 93 84
f 84 93 102
f 88 94 75
f 75 94 88
f 94 96 78
f 78 96 94
f 85 95 103
f 103 95 85
f 76 96 95
f 95 96 76
f 103 86 85
f 85 86 103
f 86 104 87
f 87 104 86
f 104 97 87
f 87 97 104
f 98 79 97
f 97 79 98
f 94 88 98
f 98 88 94
f 105 89 99
f 99 89 105
f 106 100 89
f 89 100 106
f 100 91 90
f 90 91 100
f 91 107 92
f 92 107 91
f 107 101 92
f 92 101 107
f 83 101 102
f 102 101 83
f 93 105 99
f 99 105 93
f 93 102 108
f 108 102 93
f 96 94 109
f 109 94 96
f 110 103 95
f 95 103 110
f 96 110 95
f 95 110 96
f 86 103 111
f 111 103 86
f 104 86 111
f 111 86 104
f 97 104 112
f 112 104 97
f 97 113 98
f 98 113 97
f 98 109 94
f 94 109 98
f 89 105 106
f 106 105 89
f 100 106 114
f 114 106 100
f 91 100 115
f 115 100 91
f 107 91 115
f 115 91 107
f 101 107 116
f 116 107 101
f 101 108 102
f 102 108 101
f 105 93 117
f 117 93 105
f 108 117 93
f 93 117 108
f 109 118 96
f 96 118 109
f 103 110 119
f 119 110 103
f 110 96 118
f 118 96 110
f 119 111 103
f 103 111 119
f 111 120 104
f 104 120 111
f 120 112 104
f 104 112 120
f 113 97 112
f 112 97 113
f 109 98 113
f 113 98 109
f 121 106 105
f 105 106 121
f 122 114 106
f 106 114 122
f 123 100 114
f 114 100 123
f 100 123 115
f 115 123 100
f 115 124 107
f 107 124 115
f 107 125 116
f 116 125 107
f 108 101 116
f 116 101 108
f 126 105 117
f 117 105 126
f 117 108 127
f 127 108 117
f 118 109 128
f 128 109 118
f 129 119 110
f 110 119 129
f 130 110 118
f 118 110 130
f 111 119 131
f 131 119 111
f 120 111 131
f 131 111 120
f 112 120 132
f 132 120 112
f 112 133 113
f 113 133 112
f 113 128 109
f 109 128 113
f 106 121 122
f 122 121 106
f 105 126 121
f 121 126 105
f 114 122 134
f 134 122 114
f 134 123 114
f 114 123 134
f 124 115 123
f 123 115 124
f 125 107 124
f 124 107 125
f 125 108 116
f 116 108 125
f 127 126 117
f 117 126 127
f 108 125 127
f 127 125 108
f 128 130 118
f 118 130 128
f 119 129 135
f 135 129 119
f 110 136 129
f 129 136 110
f 110 130 137
f 137 130 110
f 119 138 131
f 131 138 119
f 131 139 120
f 120 139 131
f 139 132 120
f 120 132 139
f 133 112 132
f 132 112 133
f 128 113 133
f 133 113 128
f 140 122 121
f 121 122 140
f 126 140 121
f 121 140 126
f 122 141 134
f 134 141 122
f 123 134 142
f 142 134 123
f 123 143 124
f 124 143 123
f 143 125 124
f 124 125 143
f 126 127 144
f 144 127 126
f 145 127 125
f 125 127 145
f 130 128 146
f 146 128 130
f 147 129 135
f 135 129 147
f 119 135 148
f 148 135 119
f 110 137 136
f 136 137 110
f 129 149 136
f 136 149 129
f 137 150 130
f 130 150 137
f 138 119 151
f 151 119 138
f 131 138 152
f 152 138 131
f 131 153 139
f 139 153 131
f 154 132 139
f 139 132 154
f 155 133 132
f 132 133 155
f 133 156 128
f 128 156 133
f 122 140 157
f 157 140 122
f 140 126 158
f 158 126 140
f 141 122 157
f 157 122 141
f 159 134 141
f 141 134 159
f 134 159 142
f 142 159 134
f 143 123 142
f 142 123 143
f 125 143 145
f 145 143 125
f 127 145 144
f 144 145 127
f 144 158 126
f 126 158 144
f 146 128 160
f 160 128 146
f 130 161 146
f 146 161 130
f 129 147 162
f 162 147 129
f 135 163 147
f 147 163 135
f 163 135 148
f 148 135 163
f 119 148 151
f 151 148 119
f 136 164 137
f 137 164 136
f 149 129 162
f 162 129 149
f 164 136 149
f 149 136 164
f 150 137 164
f 164 137 150
f 161 130 150
f 150 130 161
f 165 151 138
f 138 151 165
f 166 138 152
f 152 138 166
f 131 152 167
f 167 152 131
f 131 168 153
f 153 168 131
f 139 169 153
f 153 169 139
f 170 132 154
f 154 132 170
f 154 171 139
f 139 171 154
f 133 155 172
f 172 155 133
f 155 132 173
f 173 132 155
f 156 133 174
f 174 133 156
f 160 128 156
f 156 128 160
f 175 157 140
f 140 157 175
f 158 175 140
f 140 175 158
f 176 141 157
f 157 141 176
f 141 177 159
f 159 177 141
f 178 142 159
f 159 142 178
f 142 178 143
f 143 178 142
f 178 145 143
f 143 145 178
f 179 144 145
f 145 144 179
f 158 144 180
f 180 144 158
f 146 181 160
f 160 181 146
f 181 146 161
f 161 146 181
f 162 182 147
f 147 182 162
f 147 182 163
f 163 182 147
f 148 183 163
f 163 183 148
f 183 148 151
f 151 148 183
f 149 184 162
f 162 184 149
f 164 184 149
f 149 184 164
f 150 184 164
f 164 184 150
f 185 150 161
f 161 150 185
f 151 165 183
f 183 165 151
f 138 166 165
f 165 166 138
f 152 186 166
f 166 186 152
f 186 152 167
f 167 152 186
f 168 131 167
f 167 131 168
f 153 187 168
f 168 187 153
f 169 139 171
f 171 139 169
f 187 153 169
f 169 153 187
f 132 170 188
f 188 170 132
f 170 189 154
f 154 189 170
f 171 154 189
f 189 154 171
f 190 155 172
f 172 155 190
f 191 133 172
f 172 133 191
f 173 132 188
f 188 132 173
f 192 173 155
f 155 173 192
f 174 133 191
f 191 133 174
f 193 174 156
f 156 174 193
f 160 193 156
f 156 193 160
f 157 175 176
f 176 175 157
f 175 158 194
f 194 158 175
f 141 176 195
f 195 176 141
f 177 141 195
f 195 141 177
f 196 159 177
f 177 159 196
f 159 196 178
f 178 196 159
f 145 178 179
f 179 178 145
f 144 179 180
f 180 179 144
f 180 194 158
f 158 194 180
f 193 160 181
f 181 160 193
f 185 161 181
f 181 161 185
f 182 162 184
f 184 162 182
f 163 182 183
f 183 182 163
f 184 150 197
f 197 150 184
f 150 185 197
f 197 185 150
f 182 165 183
f 183 165 182
f 165 198 166
f 166 198 165
f 166 198 186
f 186 198 166
f 168 186 167
f 167 186 168
f 186 168 187
f 187 168 186
f 169 198 171
f 171 198 169
f 187 198 169
f 169 198 187
f 188 199 170
f 170 199 188
f 189 170 199
f 199 170 189
f 200 189 171
f 171 189 200
f 155 190 192
f 192 190 155
f 172 201 190
f 190 201 172
f 201 172 191
f 191 172 201
f 202 188 173
f 173 188 202
f 173 192 202
f 202 192 173
f 203 191 174
f 174 191 203
f 174 193 203
f 203 193 174
f 204 176 175
f 175 176 204
f 194 204 175
f 175 204 194
f 205 195 176
f 176 195 205
f 195 206 177
f 177 206 195
f 177 207 196
f 196 207 177
f 196 179 178
f 178 179 196
f 208 180 179
f 179 180 208
f 194 180 209
f 209 180 194
f 185 181 193
f 193 181 185
f 184 210 182
f 182 210 184
f 197 211 184
f 184 211 197
f 185 212 197
f 197 212 185
f 165 182 198
f 198 182 165
f 198 187 186
f 186 187 198
f 171 198 213
f 213 198 171
f 199 188 214
f 214 188 199
f 200 199 189
f 189 199 200
f 200 171 213
f 213 171 200
f 192 215 190
f 190 215 192
f 215 201 190
f 190 201 215
f 191 203 201
f 201 203 191
f 188 202 214
f 214 202 188
f 200 192 202
f 202 192 200
f 215 193 203
f 203 193 215
f 176 204 205
f 205 204 176
f 204 194 216
f 216 194 204
f 195 205 217
f 217 205 195
f 206 195 217
f 217 195 206
f 207 177 206
f 206 177 207
f 218 196 207
f 207 196 218
f 179 196 208
f 208 196 179
f 180 208 209
f 209 208 180
f 209 216 194
f 194 216 209
f 193 215 185
f 185 215 193
f 210 184 211
f 211 184 210
f 219 182 210
f 210 182 219
f 211 197 212
f 212 197 211
f 212 185 220
f 220 185 212
f 182 219 198
f 198 219 182
f 198 221 213
f 213 221 198
f 199 200 214
f 214 200 199
f 221 200 213
f 213 200 221
f 215 192 200
f 200 192 215
f 215 203 201
f 201 203 215
f 200 202 214
f 214 202 200
f 222 205 204
f 204 205 222
f 216 222 204
f 204 222 216
f 205 223 217
f 217 223 205
f 217 224 206
f 206 224 217
f 206 225 207
f 207 225 206
f 196 218 208
f 208 218 196
f 207 226 218
f 218 226 207
f 218 209 208
f 208 209 218
f 216 209 227
f 227 209 216
f 228 185 215
f 215 185 228
f 211 229 210
f 210 229 211
f 229 219 210
f 210 219 229
f 212 230 211
f 211 230 212
f 185 228 220
f 220 228 185
f 231 212 220
f 220 212 231
f 221 198 219
f 219 198 221
f 200 221 232
f 232 221 200
f 232 215 200
f 200 215 232
f 205 222 233
f 233 222 205
f 222 216 234
f 234 216 222
f 223 205 233
f 233 205 223
f 224 217 223
f 223 217 224
f 225 206 224
f 224 206 225
f 226 207 225
f 225 207 226
f 226 227 218
f 218 227 226
f 209 218 227
f 227 218 209
f 227 234 216
f 216 234 227
f 215 232 228
f 228 232 215
f 229 211 230
f 230 211 229
f 219 229 235
f 235 229 219
f 230 212 236
f 236 212 230
f 237 220 228
f 228 220 237
f 212 231 236
f 236 231 212
f 220 237 231
f 231 237 220
f 219 238 221
f 221 238 219
f 238 232 221
f 221 232 238
f 239 233 222
f 222 233 239
f 240 222 234
f 234 222 240
f 241 223 233
f 233 223 241
f 223 242 224
f 224 242 223
f 224 243 225
f 225 243 224
f 243 226 225
f 225 226 243
f 227 226 244
f 244 226 227
f 234 227 244
f 244 227 234
f 232 237 228
f 228 237 232
f 230 245 229
f 229 245 230
f 229 246 235
f 235 246 229
f 238 219 235
f 235 219 238
f 236 247 230
f 230 247 236
f 248 236 231
f 231 236 248
f 249 231 237
f 237 231 249
f 232 238 250
f 250 238 232
f 233 239 241
f 241 239 233
f 222 240 239
f 239 240 222
f 244 240 234
f 234 240 244
f 223 241 251
f 251 241 223
f 242 223 251
f 251 223 242
f 243 224 242
f 242 224 243
f 226 243 252
f 252 243 226
f 252 244 226
f 226 244 252
f 237 232 250
f 250 232 237
f 245 230 247
f 247 230 245
f 246 229 245
f 245 229 246
f 246 238 235
f 235 238 246
f 247 236 253
f 253 236 247
f 236 248 253
f 253 248 236
f 231 249 248
f 248 249 231
f 250 249 237
f 237 249 250
f 238 254 250
f 250 254 238
f 255 241 239
f 239 241 255
f 256 239 240
f 240 239 256
f 240 244 257
f 257 244 240
f 241 258 251
f 251 258 241
f 251 259 242
f 242 259 251
f 242 260 243
f 243 260 242
f 243 261 252
f 252 261 243
f 244 252 257
f 257 252 244
f 262 245 247
f 247 245 262
f 245 263 246
f 246 263 245
f 238 246 264
f 264 246 238
f 253 262 247
f 247 262 253
f 248 265 253
f 253 265 248
f 266 248 249
f 249 248 266
f 249 250 254
f 254 250 249
f 254 238 264
f 264 238 254
f 241 255 267
f 267 255 241
f 239 256 255
f 255 256 239
f 257 256 240
f 240 256 257
f 258 241 267
f 267 241 258
f 259 251 258
f 258 251 259
f 260 242 259
f 259 242 260
f 261 243 260
f 260 243 261
f 268 252 261
f 261 252 268
f 252 268 257
f 257 268 252
f 245 262 269
f 269 262 245
f 263 245 269
f 269 245 263
f 270 246 263
f 263 246 270
f 246 270 264
f 264 270 246
f 262 253 265
f 265 253 262
f 265 248 271
f 271 248 265
f 248 266 271
f 271 266 248
f 249 272 266
f 266 272 249
f 272 249 254
f 254 249 272
f 270 254 264
f 264 254 270
f 273 267 255
f 255 267 273
f 274 255 256
f 256 255 274
f 256 257 268
f 268 257 256
f 267 275 258
f 258 275 267
f 258 276 259
f 259 276 258
f 259 277 260
f 260 277 259
f 260 278 261
f 261 278 260
f 261 279 268
f 268 279 261
f 262 280 269
f 269 280 262
f 280 263 269
f 269 263 280
f 281 270 263
f 263 270 281
f 265 282 262
f 262 282 265
f 271 283 265
f 265 283 271
f 284 271 266
f 266 271 284
f 272 284 266
f 266 284 272
f 254 270 272
f 272 270 254
f 267 273 285
f 285 273 267
f 255 274 273
f 273 274 255
f 268 274 256
f 256 274 268
f 275 267 285
f 285 267 275
f 276 258 275
f 275 258 276
f 277 259 276
f 276 259 277
f 278 260 277
f 277 260 278
f 279 261 278
f 278 261 279
f 274 268 279
f 279 268 274
f 280 262 282
f 282 262 280
f 263 280 281
f 281 280 263
f 270 281 286
f 286 281 270
f 282 265 283
f 283 265 282
f 283 271 287
f 287 271 283
f 271 284 287
f 287 284 271
f 284 272 288
f 288 272 284
f 270 288 272
f 272 288 270
f 273 289 285
f 285 289 273
f 274 290 273
f 273 290 274
f 285 291 275
f 275 291 285
f 291 276 275
f 275 276 291
f 292 277 276
f 276 277 292
f 277 293 278
f 278 293 277
f 293 279 278
f 278 279 293
f 279 294 274
f 274 294 279
f 282 295 280
f 280 295 282
f 295 281 280
f 280 281 295
f 296 286 281
f 281 286 296
f 288 270 286
f 286 270 288
f 283 297 282
f 282 297 283
f 298 283 287
f 287 283 298
f 299 287 284
f 284 287 299
f 300 284 288
f 288 284 300
f 289 273 290
f 290 273 289
f 291 285 289
f 289 285 291
f 290 274 294
f 294 274 290
f 276 291 292
f 292 291 276
f 277 292 301
f 301 292 277
f 293 277 301
f 301 277 293
f 279 293 302
f 302 293 279
f 294 279 302
f 302 279 294
f 295 282 297
f 297 282 295
f 281 295 296
f 296 295 281
f 286 296 303
f 303 296 286
f 286 300 288
f 288 300 286
f 297 283 304
f 304 283 297
f 283 298 304
f 304 298 283
f 287 299 298
f 298 299 287
f 284 300 299
f 299 300 284
f 290 305 289
f 289 305 290
f 289 306 291
f 291 306 289
f 307 290 294
f 294 290 307
f 306 292 291
f 291 292 306
f 308 301 292
f 292 301 308
f 309 293 301
f 301 293 309
f 293 310 302
f 302 310 293
f 310 294 302
f 302 294 310
f 297 311 295
f 295 311 297
f 295 312 296
f 296 312 295
f 296 313 303
f 303 313 296
f 300 286 303
f 303 286 300
f 304 314 297
f 297 314 304
f 298 315 304
f 304 315 298
f 316 298 299
f 299 298 316
f 317 299 300
f 300 299 317
f 305 290 318
f 318 290 305
f 306 289 305
f 305 289 306
f 290 307 318
f 318 307 290
f 294 310 307
f 307 310 294
f 292 306 308
f 308 306 292
f 301 308 309
f 309 308 301
f 293 309 319
f 319 309 293
f 310 293 319
f 319 293 310
f 311 297 314
f 314 297 311
f 312 295 311
f 311 295 312
f 313 296 312
f 312 296 313
f 313 300 303
f 303 300 313
f 314 304 315
f 315 304 314
f 315 298 320
f 320 298 315
f 298 316 320
f 320 316 298
f 299 317 316
f 316 317 299
f 300 313 317
f 317 313 300
f 318 321 305
f 305 321 318
f 305 322 306
f 306 322 305
f 323 318 307
f 307 318 323
f 324 307 310
f 310 307 324
f 322 308 306
f 306 308 322
f 308 325 309
f 309 325 308
f 309 326 319
f 319 326 309
f 319 324 310
f 310 324 319
f 327 311 314
f 314 311 327
f 328 312 311
f 311 312 328
f 329 313 312
f 312 313 329
f 315 327 314
f 314 327 315
f 330 315 320
f 320 315 330
f 331 320 316
f 316 320 331
f 317 331 316
f 316 331 317
f 313 332 317
f 317 332 313
f 321 318 333
f 333 318 321
f 322 305 321
f 321 305 322
f 318 323 333
f 333 323 318
f 307 324 323
f 323 324 307
f 308 322 334
f 334 322 308
f 325 308 334
f 334 308 325
f 326 309 325
f 325 309 326
f 324 319 326
f 326 319 324
f 311 327 328
f 328 327 311
f 312 328 329
f 329 328 312
f 313 329 335
f 335 329 313
f 327 315 336
f 336 315 327
f 315 330 336
f 336 330 315
f 320 331 330
f 330 331 320
f 331 317 332
f 332 317 331
f 332 313 335
f 335 313 332
f 333 337 321
f 321 337 333
f 321 338 322
f 322 338 321
f 323 339 333
f 333 339 323
f 340 323 324
f 324 323 340
f 338 334 322
f 322 334 338
f 334 341 325
f 325 341 334
f 325 342 326
f 326 342 325
f 326 340 324
f 324 340 326
f 327 343 328
f 328 343 327
f 343 329 328
f 328 329 343
f 344 335 329
f 329 335 344
f 336 345 327
f 327 345 336
f 346 336 330
f 330 336 346
f 347 330 331
f 331 330 347
f 348 331 332
f 332 331 348
f 335 348 332
f 332 348 335
f 337 333 339
f 339 333 337
f 338 321 337
f 337 321 338
f 339 323 349
f 349 323 339
f 323 340 349
f 349 340 323
f 334 338 350
f 350 338 334
f 341 334 350
f 350 334 341
f 342 325 341
f 341 325 342
f 340 326 342
f 342 326 340
f 343 327 345
f 345 327 343
f 329 343 344
f 344 343 329
f 335 344 351
f 351 344 335
f 345 336 352
f 352 336 345
f 336 346 352
f 352 346 336
f 330 347 346
f 346 347 330
f 331 348 347
f 347 348 331
f 348 335 351
f 351 335 348
f 339 353 337
f 337 353 339
f 337 354 338
f 338 354 337
f 349 355 339
f 339 355 349
f 356 349 340
f 340 349 356
f 354 350 338
f 338 350 354
f 357 341 350
f 350 341 357
f 358 342 341
f 341 342 358
f 342 356 340
f 340 356 342
f 345 359 343
f 343 359 345
f 343 360 344
f 344 360 343
f 360 351 344
f 344 351 360
f 352 361 345
f 345 361 352
f 362 352 346
f 346 352 362
f 363 346 347
f 347 346 363
f 364 347 348
f 348 347 364
f 351 364 348
f 348 364 351
f 353 339 355
f 355 339 353
f 354 337 353
f 353 337 354
f 355 349 365
f 365 349 355
f 349 356 365
f 365 356 349
f 350 354 357
f 357 354 350
f 341 357 358
f 358 357 341
f 342 358 366
f 366 358 342
f 356 342 366
f 366 342 356
f 359 345 361
f 361 345 359
f 360 343 359
f 359 343 360
f 351 360 367
f 367 360 351
f 361 352 368
f 368 352 361
f 352 362 368
f 368 362 352
f 346 363 362
f 362 363 346
f 347 364 363
f 363 364 347
f 364 351 367
f 367 351 364
f 355 369 353
f 353 369 355
f 353 370 354
f 354 370 353
f 371 355 365
f 365 355 371
f 372 365 356
f 356 365 372
f 370 357 354
f 354 357 370
f 373 358 357
f 357 358 373
f 358 374 366
f 366 374 358
f 366 372 356
f 356 372 366
f 361 375 359
f 359 375 361
f 359 376 360
f 360 376 359
f 360 377 367
f 367 377 360
f 368 378 361
f 361 378 368
f 362 379 368
f 368 379 362
f 380 362 363
f 363 362 380
f 381 363 364
f 364 363 381
f 377 364 367
f 367 364 377
f 369 355 382
f 382 355 369
f 370 353 369
f 369 353 370
f 355 371 382
f 382 371 355
f 365 372 371
f 371 372 365
f 357 370 373
f 373 370 357
f 358 373 383
f 383 373 358
f 374 358 383
f 383 358 374
f 372 366 374
f 374 366 372
f 375 361 378
f 378 361 375
f 376 359 375
f 375 359 376
f 377 360 376
f 376 360 377
f 378 368 379
f 379 368 378
f 379 362 384
f 384 362 379
f 362 380 384
f 384 380 362
f 363 381 380
f 380 381 363
f 364 377 381
f 381 377 364
f 382 385 369
f 369 385 382
f 369 386 370
f 370 386 369
f 371 387 382
f 382 387 371
f 388 371 372
f 372 371 388
f 386 373 370
f 370 373 386
f 389 383 373
f 373 383 389
f 390 374 383
f 383 374 390
f 374 388 372
f 372 388 374
f 378 391 375
f 375 391 378
f 375 392 376
f 376 392 375
f 392 377 376
f 376 377 392
f 379 393 378
f 378 393 379
f 394 379 384
f 384 379 394
f 395 384 380
f 380 384 395
f 381 395 380
f 380 395 381
f 377 396 381
f 381 396 377
f 385 382 387
f 387 382 385
f 386 369 385
f 385 369 386
f 387 371 397
f 397 371 387
f 371 388 397
f 397 388 371
f 373 386 389
f 389 386 373
f 383 389 390
f 390 389 383
f 374 390 398
f 398 390 374
f 388 374 398
f 398 374 388
f 391 378 393
f 393 378 391
f 392 375 391
f 391 375 392
f 377 392 399
f 399 392 377
f 393 379 400
f 400 379 393
f 379 394 400
f 400 394 379
f 384 395 394
f 394 395 384
f 395 381 396
f 396 381 395
f 396 377 399
f 399 377 396
f 387 401 385
f 385 401 387
f 385 402 386
f 386 402 385
f 397 403 387
f 387 403 397
f 404 397 388
f 388 397 404
f 402 389 386
f 386 389 402
f 405 390 389
f 389 390 405
f 390 406 398
f 398 406 390
f 398 404 388
f 388 404 398
f 393 407 391
f 391 407 393
f 391 408 392
f 392 408 391
f 392 409 399
f 399 409 392
f 400 410 393
f 393 410 400
f 411 400 394
f 394 400 411
f 412 394 395
f 395 394 412
f 413 395 396
f 396 395 413
f 409 396 399
f 399 396 409
f 401 387 403
f 403 387 401
f 402 385 401
f 401 385 402
f 403 397 414
f 414 397 403
f 397 404 414
f 414 404 397
f 389 402 405
f 405 402 389
f 390 405 415
f 415 405 390
f 406 390 415
f 415 390 406
f 404 398 406
f 406 398 404
f 407 393 410
f 410 393 407
f 408 391 407
f 407 391 408
f 409 392 408
f 408 392 409
f 410 400 416
f 416 400 410
f 400 411 416
f 416 411 400
f 394 412 411
f 411 412 394
f 395 413 412
f 412 413 395
f 396 409 413
f 413 409 396
f 403 410 401
f 401 410 403
f 401 416 402
f 402 416 401
f 408 403 414
f 414 403 408
f 404 408 414
f 414 408 404
f 416 405 402
f 402 405 416
f 411 415 405
f 405 415 411
f 412 406 415
f 415 406 412
f 413 404 406
f 406 404 413
f 410 403 407
f 407 403 410
f 403 408 407
f 407 408 403
f 408 404 409
f 409 404 408
f 416 401 410
f 410 401 416
f 405 416 411
f 411 416 405
f 415 411 412
f 412 411 415
f 406 412 413
f 413 412 406
f 404 413 409
f 409 413 404
f 417 418 419
f 418 417 420
f 419 418 417
f 420 417 418
f 421 419 418
f 418 419 421
f 418 422 419
f 419 422 418
f 419 423 417
f 417 423 419
f 423 420 417
f 417 420 423
f 420 424 418
f 418 424 420
f 419 421 425
f 425 421 419
f 418 426 421
f 421 426 418
f 422 418 427
f 427 418 422
f 419 428 422
f 422 428 419
f 429 419 422
f 422 419 429
f 423 419 429
f 429 419 423
f 420 423 430
f 430 423 420
f 424 420 430
f 430 420 424
f 418 424 431
f 431 424 418
f 426 425 421
f 421 425 426
f 425 432 419
f 419 432 425
f 426 418 433
f 433 418 426
f 418 431 427
f 427 431 418
f 433 418 427
f 427 418 433
f 427 434 422
f 422 434 427
f 422 435 427
f 427 435 422
f 419 432 428
f 428 432 419
f 422 428 436
f 436 428 422
f 429 422 437
f 437 422 429
f 429 430 423
f 423 430 429
f 430 429 424
f 424 429 430
f 429 431 424
f 424 431 429
f 425 426 438
f 438 426 425
f 432 425 438
f 438 425 432
f 433 438 426
f 426 438 433
f 427 431 439
f 439 431 427
f 433 427 440
f 440 427 433
f 434 427 441
f 441 427 434
f 437 422 434
f 434 422 437
f 435 422 442
f 442 422 435
f 440 427 435
f 435 427 440
f 433 428 432
f 432 428 433
f 428 443 436
f 436 443 428
f 422 436 442
f 442 436 422
f 431 429 437
f 437 429 431
f 438 433 432
f 432 433 438
f 437 439 431
f 431 439 437
f 427 439 441
f 441 439 427
f 428 433 440
f 440 433 428
f 441 444 434
f 434 444 441
f 437 434 444
f 444 434 437
f 442 443 435
f 435 443 442
f 440 435 443
f 443 435 440
f 443 428 440
f 440 428 443
f 443 442 436
f 436 442 443
f 439 437 444
f 444 437 439
f 444 441 439
f 439 441 444
f 445 446 447
f 446 445 448
f 447 446 445
f 448 445 446
f 446 449 447
f 447 449 446
f 449 445 447
f 447 445 449
f 445 450 448
f 448 450 445
f 451 446 448
f 448 446 451
f 452 449 446
f 446 449 452
f 445 449 453
f 453 449 445
f 445 454 450
f 450 454 445
f 450 455 448
f 448 455 450
f 446 451 452
f 452 451 446
f 448 455 451
f 451 455 448
f 449 452 456
f 456 452 449
f 456 453 449
f 449 453 456
f 454 445 453
f 453 445 454
f 454 457 450
f 450 457 454
f 455 450 457
f 457 450 455
f 458 452 451
f 451 452 458
f 455 458 451
f 451 458 455
f 452 458 456
f 456 458 452
f 458 453 456
f 456 453 458
f 459 454 453
f 453 454 459
f 457 454 460
f 460 454 457
f 455 457 461
f 461 457 455
f 458 455 459
f 459 455 458
f 459 453 458
f 458 453 459
f 454 459 460
f 460 459 454
f 462 457 460
f 460 457 462
f 457 462 461
f 461 462 457
f 461 459 455
f 455 459 461
f 460 459 462
f 462 459 460
f 459 461 462
f 462 461 459
f 463 464 465
f 464 463 466
f 465 464 463
f 466 463 464
f 464 467 465
f 465 467 464
f 465 468 463
f 463 468 465
f 468 466 463
f 463 466 468
f 469 464 466
f 466 464 469
f 467 464 470
f 470 464 467
f 471 465 467
f 467 465 471
f 468 465 471
f 471 465 468
f 472 466 468
f 468 466 472
f 464 469 473
f 473 469 464
f 466 472 469
f 469 472 466
f 464 474 470
f 470 474 464
f 470 475 467
f 467 475 470
f 451 471 467
f 467 471 451
f 471 472 468
f 468 472 471
f 472 473 469
f 469 473 472
f 464 473 474
f 474 473 464
f 470 474 476
f 476 474 470
f 475 470 476
f 476 470 475
f 451 467 475
f 475 467 451
f 455 471 451
f 451 471 455
f 472 471 455
f 455 471 472
f 473 472 455
f 455 472 473
f 473 451 474
f 474 451 473
f 476 474 477
f 477 474 476
f 476 478 475
f 475 478 476
f 475 478 451
f 451 478 475
f 451 473 455
f 455 473 451
f 478 474 451
f 451 474 478
f 474 478 477
f 477 478 474
f 478 476 477
f 477 476 478
f 479 480 481
f 480 479 482
f 481 480 479
f 482 479 480
f 483 481 480
f 480 481 483
f 480 484 481
f 481 484 480
f 481 485 479
f 479 485 481
f 485 482 479
f 479 482 485
f 482 486 480
f 480 486 482
f 481 483 487
f 487 483 481
f 480 488 483
f 483 488 480
f 484 480 489
f 489 480 484
f 481 490 484
f 484 490 481
f 491 481 484
f 484 481 491
f 485 481 491
f 491 481 485
f 482 485 492
f 492 485 482
f 486 482 492
f 492 482 486
f 480 486 493
f 493 486 480
f 488 487 483
f 483 487 488
f 487 494 481
f 481 494 487
f 488 480 495
f 495 480 488
f 480 493 489
f 489 493 480
f 495 480 489
f 489 480 495
f 489 496 484
f 484 496 489
f 484 497 489
f 489 497 484
f 481 494 490
f 490 494 481
f 484 490 498
f 498 490 484
f 491 484 499
f 499 484 491
f 491 492 485
f 485 492 491
f 492 491 486
f 486 491 492
f 491 493 486
f 486 493 491
f 487 488 500
f 500 488 487
f 494 487 500
f 500 487 494
f 495 500 488
f 488 500 495
f 489 493 501
f 501 493 489
f 495 489 502
f 502 489 495
f 496 489 503
f 503 489 496
f 499 484 496
f 496 484 499
f 497 484 504
f 504 484 497
f 502 489 497
f 497 489 502
f 495 490 494
f 494 490 495
f 490 505 498
f 498 505 490
f 484 498 504
f 504 498 484
f 493 491 499
f 499 491 493
f 500 495 494
f 494 495 500
f 499 501 493
f 493 501 499
f 489 501 503
f 503 501 489
f 490 495 502
f 502 495 490
f 503 506 496
f 496 506 503
f 499 496 506
f 506 496 499
f 504 505 497
f 497 505 504
f 502 497 505
f 505 497 502
f 505 490 502
f 502 490 505
f 505 504 498
f 498 504 505
f 501 499 506
f 506 499 501
f 506 503 501
f 501 503 506
f 507 508 509
f 508 507 510
f 509 508 507
f 510 507 508
f 508 511 509
f 509 511 508
f 509 512 507
f 507 512 509
f 512 510 507
f 507 510 512
f 513 508 510
f 510 508 513
f 511 508 514
f 514 508 511
f 515 509 511
f 511 509 515
f 512 509 515
f 515 509 512
f 516 510 512
f 512 510 516
f 508 513 517
f 517 513 508
f 510 516 513
f 513 516 510
f 508 518 514
f 514 518 508
f 514 519 511
f 511 519 514
f 520 515 511
f 511 515 520
f 515 516 512
f 512 516 515
f 516 517 513
f 513 517 516
f 508 517 518
f 518 517 508
f 514 518 521
f 521 518 514
f 519 514 521
f 521 514 519
f 520 511 519
f 519 511 520
f 522 515 520
f 520 515 522
f 516 515 522
f 522 515 516
f 517 516 522
f 522 516 517
f 517 520 518
f 518 520 517
f 521 518 523
f 523 518 521
f 521 524 519
f 519 524 521
f 519 524 520
f 520 524 519
f 520 517 522
f 522 517 520
f 524 518 520
f 520 518 524
f 518 524 523
f 523 524 518
f 524 521 523
f 523 521 524
f 525 526 527
f 526 525 528
f 527 526 525
f 528 525 526
f 526 529 527
f 527 529 526
f 529 525 527
f 527 525 529
f 525 530 528
f 528 530 525
f 520 526 528
f 528 526 520
f 531 529 526
f 526 529 531
f 525 529 532
f 532 529 525
f 525 533 530
f 530 533 525
f 530 522 528
f 528 522 530
f 526 520 531
f 531 520 526
f 528 522 520
f 520 522 528
f 529 531 534
f 534 531 529
f 534 532 529
f 529 532 534
f 533 525 532
f 532 525 533
f 533 535 530
f 530 535 533
f 522 530 535
f 535 530 522
f 536 531 520
f 520 531 536
f 522 536 520
f 520 536 522
f 531 536 534
f 534 536 531
f 536 532 534
f 534 532 536
f 537 533 532
f 532 533 537
f 535 533 538
f 538 533 535
f 522 535 539
f 539 535 522
f 536 522 537
f 537 522 536
f 537 532 536
f 536 532 537
f 533 537 538
f 538 537 533
f 540 535 538
f 538 535 540
f 535 540 539
f 539 540 535
f 539 537 522
f 522 537 539
f 538 537 540
f 540 537 538
f 537 539 540
f 540 539 537
f 541 542 543
f 542 541 544
f 543 542 541
f 544 541 542
f 545 543 542
f 542 543 545
f 542 546 543
f 543 546 542
f 543 547 541
f 541 547 543
f 547 544 541
f 541 544 547
f 544 548 542
f 542 548 544
f 543 545 549
f 549 545 543
f 542 550 545
f 545 550 542
f 546 542 551
f 551 542 546
f 543 552 546
f 546 552 543
f 553 543 546
f 546 543 553
f 547 543 553
f 553 543 547
f 544 547 554
f 554 547 544
f 548 544 554
f 554 544 548
f 542 548 555
f 555 548 542
f 550 549 545
f 545 549 550
f 549 556 543
f 543 556 549
f 550 542 557
f 557 542 550
f 542 555 551
f 551 555 542
f 557 542 551
f 551 542 557
f 551 558 546
f 546 558 551
f 546 559 551
f 551 559 546
f 543 556 552
f 552 556 543
f 546 552 560
f 560 552 546
f 553 546 561
f 561 546 553
f 553 554 547
f 547 554 553
f 554 553 548
f 548 553 554
f 553 555 548
f 548 555 553
f 549 550 562
f 562 550 549
f 556 549 562
f 562 549 556
f 557 562 550
f 550 562 557
f 551 555 563
f 563 555 551
f 557 551 564
f 564 551 557
f 558 551 565
f 565 551 558
f 561 546 558
f 558 546 561
f 559 546 566
f 566 546 559
f 564 551 559
f 559 551 564
f 557 552 556
f 556 552 557
f 552 567 560
f 560 567 552
f 546 560 566
f 566 560 546
f 555 553 561
f 561 553 555
f 562 557 556
f 556 557 562
f 561 563 555
f 555 563 561
f 551 563 565
f 565 563 551
f 552 557 564
f 564 557 552
f 565 568 558
f 558 568 565
f 561 558 568
f 568 558 561
f 566 567 559
f 559 567 566
f 564 559 567
f 567 559 564
f 567 552 564
f 564 552 567
f 567 566 560
f 560 566 567
f 563 561 568
f 568 561 563
f 568 565 563
f 563 565 568
f 569 570 571
f 570 569 572
f 571 570 569
f 572 569 570
f 570 573 571
f 571 573 570
f 571 574 569
f 569 574 571
f 574 572 569
f 569 572 574
f 575 570 572
f 572 570 575
f 573 570 576
f 576 570 573
f 577 571 573
f 573 571 577
f 574 571 577
f 577 571 574
f 578 572 574
f 574 572 578
f 570 575 579
f 579 575 570
f 572 578 575
f 575 578 572
f 570 580 576
f 576 580 570
f 576 581 573
f 573 581 576
f 582 577 573
f 573 577 582
f 577 578 574
f 574 578 577
f 578 579 575
f 575 579 578
f 570 579 580
f 580 579 570
f 576 580 583
f 583 580 576
f 581 576 583
f 583 576 581
f 582 573 581
f 581 573 582
f 584 577 582
f 582 577 584
f 578 577 584
f 584 577 578
f 579 578 584
f 584 578 579
f 579 582 580
f 580 582 579
f 583 580 585
f 585 580 583
f 583 586 581
f 581 586 583
f 581 586 582
f 582 586 581
f 582 579 584
f 584 579 582
f 586 580 582
f 582 580 586
f 580 586 585
f 585 586 580
f 586 583 585
f 585 583 586
f 587 588 589
f 588 587 590
f 589 588 587
f 590 587 588
f 588 591 589
f 589 591 588
f 591 587 589
f 589 587 591
f 587 592 590
f 590 592 587
f 582 588 590
f 590 588 582
f 593 591 588
f 588 591 593
f 587 591 594
f 594 591 587
f 587 595 592
f 592 595 587
f 592 584 590
f 590 584 592
f 588 582 593
f 593 582 588
f 590 584 582
f 582 584 590
f 591 593 596
f 596 593 591
f 596 594 591
f 591 594 596
f 595 587 594
f 594 587 595
f 595 597 592
f 592 597 595
f 584 592 597
f 597 592 584
f 598 593 582
f 582 593 598
f 584 598 582
f 582 598 584
f 593 598 596
f 596 598 593
f 598 594 596
f 596 594 598
f 599 595 594
f 594 595 599
f 597 595 600
f 600 595 597
f 584 597 601
f 601 597 584
f 598 584 599
f 599 584 598
f 599 594 598
f 598 594 599
f 595 599 600
f 600 599 595
f 602 597 600
f 600 597 602
f 597 602 601
f 601 602 597
f 601 599 584
f 584 599 601
f 600 599 602
f 602 599 600
f 599 601 602
f 602 601 599
f 603 604 605
f 604 603 606
f 605 604 603
f 606 603 604
f 607 605 604
f 604 605 607
f 604 608 605
f 605 608 604
f 605 609 603
f 603 609 605
f 609 606 603
f 603 606 609
f 606 610 604
f 604 610 606
f 605 607 611
f 611 607 605
f 604 612 607
f 607 612 604
f 608 604 613
f 613 604 608
f 605 614 608
f 608 614 605
f 615 605 608
f 608 605 615
f 609 605 615
f 615 605 609
f 606 609 616
f 616 609 606
f 610 606 616
f 616 606 610
f 604 610 617
f 617 610 604
f 612 611 607
f 607 611 612
f 611 618 605
f 605 618 611
f 612 604 619
f 619 604 612
f 604 617 613
f 613 617 604
f 619 604 613
f 613 604 619
f 613 620 608
f 608 620 613
f 608 621 613
f 613 621 608
f 605 618 614
f 614 618 605
f 608 614 622
f 622 614 608
f 615 608 623
f 623 608 615
f 615 616 609
f 609 616 615
f 616 615 610
f 610 615 616
f 615 617 610
f 610 617 615
f 611 612 624
f 624 612 611
f 618 611 624
f 624 611 618
f 619 624 612
f 612 624 619
f 613 617 625
f 625 617 613
f 619 613 626
f 626 613 619
f 620 613 627
f 627 613 620
f 623 608 620
f 620 608 623
f 621 608 628
f 628 608 621
f 626 613 621
f 621 613 626
f 619 614 618
f 618 614 619
f 614 629 622
f 622 629 614
f 608 622 628
f 628 622 608
f 617 615 623
f 623 615 617
f 624 619 618
f 618 619 624
f 623 625 617
f 617 625 623
f 613 625 627
f 627 625 613
f 614 619 626
f 626 619 614
f 627 630 620
f 620 630 627
f 623 620 630
f 630 620 623
f 628 629 621
f 621 629 628
f 626 621 629
f 629 621 626
f 629 614 626
f 626 614 629
f 629 628 622
f 622 628 629
f 625 623 630
f 630 623 625
f 630 627 625
f 625 627 630
f 631 632 633
f 632 631 634
f 633 632 631
f 634 631 632
f 632 635 633
f 633 635 632
f 635 631 633
f 633 631 635
f 631 636 634
f 634 636 631
f 637 632 634
f 634 632 637
f 638 635 632
f 632 635 638
f 631 635 639
f 639 635 631
f 631 640 636
f 636 640 631
f 636 641 634
f 634 641 636
f 632 637 638
f 638 637 632
f 634 641 637
f 637 641 634
f 635 638 642
f 642 638 635
f 642 639 635
f 635 639 642
f 640 631 639
f 639 631 640
f 640 643 636
f 636 643 640
f 641 636 643
f 643 636 641
f 644 638 637
f 637 638 644
f 641 644 637
f 637 644 641
f 638 644 642
f 642 644 638
f 644 639 642
f 642 639 644
f 645 640 639
f 639 640 645
f 643 640 646
f 646 640 643
f 641 643 647
f 647 643 641
f 644 641 645
f 645 641 644
f 645 639 644
f 644 639 645
f 640 645 646
f 646 645 640
f 648 643 646
f 646 643 648
f 643 648 647
f 647 648 643
f 647 645 641
f 641 645 647
f 646 645 648
f 648 645 646
f 645 647 648
f 648 647 645
f 649 650 651
f 650 649 652
f 651 650 649
f 652 649 650
f 650 653 651
f 651 653 650
f 651 654 649
f 649 654 651
f 654 652 649
f 649 652 654
f 655 650 652
f 652 650 655
f 653 650 656
f 656 650 653
f 657 651 653
f 653 651 657
f 654 651 657
f 657 651 654
f 658 652 654
f 654 652 658
f 650 655 659
f 659 655 650
f 652 658 655
f 655 658 652
f 650 660 656
f 656 660 650
f 656 661 653
f 653 661 656
f 637 657 653
f 653 657 637
f 657 658 654
f 654 658 657
f 658 659 655
f 655 659 658
f 650 659 660
f 660 659 650
f 656 660 662
f 662 660 656
f 661 656 662
f 662 656 661
f 637 653 661
f 661 653 637
f 641 657 637
f 637 657 641
f 658 657 641
f 641 657 658
f 659 658 641
f 641 658 659
f 659 637 660
f 660 637 659
f 662 660 663
f 663 660 662
f 662 664 661
f 661 664 662
f 661 664 637
f 637 664 661
f 637 659 641
f 641 659 637
f 664 660 637
f 637 660 664
f 660 664 663
f 663 664 660
f 664 662 663
f 663 662 664
f 665 666 667
f 666 665 668
f 667 666 665
f 668 665 666
f 669 667 666
f 666 667 669
f 666 670 667
f 667 670 666
f 667 671 665
f 665 671 667
f 671 668 665
f 665 668 671
f 668 672 666
f 666 672 668
f 667 669 673
f 673 669 667
f 666 674 669
f 669 674 666
f 670 666 675
f 675 666 670
f 667 676 670
f 670 676 667
f 677 667 670
f 670 667 677
f 671 667 677
f 677 667 671
f 668 671 678
f 678 671 668
f 672 668 678
f 678 668 672
f 666 672 679
f 679 672 666
f 674 673 669
f 669 673 674
f 673 680 667
f 667 680 673
f 674 666 681
f 681 666 674
f 666 679 675
f 675 679 666
f 681 666 675
f 675 666 681
f 675 682 670
f 670 682 675
f 670 683 675
f 675 683 670
f 667 680 676
f 676 680 667
f 670 676 684
f 684 676 670
f 677 670 685
f 685 670 677
f 677 678 671
f 671 678 677
f 678 677 672
f 672 677 678
f 677 679 672
f 672 679 677
f 673 674 686
f 686 674 673
f 680 673 686
f 686 673 680
f 681 686 674
f 674 686 681
f 675 679 687
f 687 679 675
f 681 675 688
f 688 675 681
f 682 675 689
f 689 675 682
f 685 670 682
f 682 670 685
f 683 670 690
f 690 670 683
f 688 675 683
f 683 675 688
f 681 676 680
f 680 676 681
f 676 691 684
f 684 691 676
f 670 684 690
f 690 684 670
f 679 677 685
f 685 677 679
f 686 681 680
f 680 681 686
f 685 687 679
f 679 687 685
f 675 687 689
f 689 687 675
f 676 681 688
f 688 681 676
f 689 692 682
f 682 692 689
f 685 682 692
f 692 682 685
f 690 691 683
f 683 691 690
f 688 683 691
f 691 683 688
f 691 676 688
f 688 676 691
f 691 690 684
f 684 690 691
f 687 685 692
f 692 685 687
f 692 689 687
f 687 689 692
f 693 694 695
f 694 693 696
f 695 694 693
f 696 693 694
f 694 697 695
f 695 697 694
f 697 693 695
f 695 693 697
f 693 698 696
f 696 698 693
f 699 694 696
f 696 694 699
f 700 697 694
f 694 697 700
f 693 697 701
f 701 697 693
f 693 702 698
f 698 702 693
f 698 703 696
f 696 703 698
f 694 699 700
f 700 699 694
f 696 703 699
f 699 703 696
f 697 700 704
f 704 700 697
f 704 701 697
f 697 701 704
f 702 693 701
f 701 693 702
f 702 705 698
f 698 705 702
f 703 698 705
f 705 698 703
f 706 700 699
f 699 700 706
f 703 706 699
f 699 706 703
f 700 706 704
f 704 706 700
f 706 701 704
f 704 701 706
f 707 702 701
f 701 702 707
f 705 702 708
f 708 702 705
f 703 705 709
f 709 705 703
f 706 703 707
f 707 703 706
f 707 701 706
f 706 701 707
f 702 707 708
f 708 707 702
f 710 705 708
f 708 705 710
f 705 710 709
f 709 710 705
f 709 707 703
f 703 707 709
f 708 707 710
f 710 707 708
f 707 709 710
f 710 709 707
f 711 712 713
f 712 711 714
f 713 712 711
f 714 711 712
f 712 715 713
f 713 715 712
f 713 716 711
f 711 716 713
f 716 714 711
f 711 714 716
f 717 712 714
f 714 712 717
f 715 712 718
f 718 712 715
f 719 713 715
f 715 713 719
f 716 713 719
f 719 713 716
f 720 714 716
f 716 714 720
f 712 717 721
f 721 717 712
f 714 720 717
f 717 720 714
f 712 722 718
f 718 722 712
f 718 723 715
f 715 723 718
f 699 719 715
f 715 719 699
f 719 720 716
f 716 720 719
f 720 721 717
f 717 721 720
f 712 721 722
f 722 721 712
f 718 722 724
f 724 722 718
f 723 718 724
f 724 718 723
f 699 715 723
f 723 715 699
f 703 719 699
f 699 719 703
f 720 719 703
f 703 719 720
f 721 720 703
f 703 720 721
f 721 699 722
f 722 699 721
f 724 722 725
f 725 722 724
f 724 726 723
f 723 726 724
f 723 726 699
f 699 726 723
f 699 721 703
f 703 721 699
f 726 722 699
f 699 722 726
f 722 726 725
f 725 726 722
f 726 724 725
f 725 724 726
f 727 728 729
f 728 727 730
f 729 728 727
f 730 727 728
f 731 729 728
f 728 729 731
f 728 732 729
f 729 732 728
f 729 733 727
f 727 733 729
f 733 730 727
f 727 730 733
f 730 734 728
f 728 734 730
f 729 731 735
f 735 731 729
f 728 736 731
f 731 736 728
f 732 728 737
f 737 728 732
f 729 738 732
f 732 738 729
f 739 729 732
f 732 729 739
f 733 729 739
f 739 729 733
f 730 733 740
f 740 733 730
f 734 730 740
f 740 730 734
f 728 734 741
f 741 734 728
f 736 735 731
f 731 735 736
f 735 742 729
f 729 742 735
f 736 728 743
f 743 728 736
f 728 741 737
f 737 741 728
f 743 728 737
f 737 728 743
f 737 744 732
f 732 744 737
f 732 745 737
f 737 745 732
f 729 742 738
f 738 742 729
f 732 738 746
f 746 738 732
f 739 732 747
f 747 732 739
f 739 740 733
f 733 740 739
f 740 739 734
f 734 739 740
f 739 741 734
f 734 741 739
f 735 736 748
f 748 736 735
f 742 735 748
f 748 735 742
f 743 748 736
f 736 748 743
f 737 741 749
f 749 741 737
f 743 737 750
f 750 737 743
f 744 737 751
f 751 737 744
f 747 732 744
f 744 732 747
f 745 732 752
f 752 732 745
f 750 737 745
f 745 737 750
f 743 738 742
f 742 738 743
f 738 753 746
f 746 753 738
f 732 746 752
f 752 746 732
f 741 739 747
f 747 739 741
f 748 743 742
f 742 743 748
f 747 749 741
f 741 749 747
f 737 749 751
f 751 749 737
f 738 743 750
f 750 743 738
f 751 754 744
f 744 754 751
f 747 744 754
f 754 744 747
f 752 753 745
f 745 753 752
f 750 745 753
f 753 745 750
f 753 738 750
f 750 738 753
f 753 752 746
f 746 752 753
f 749 747 754
f 754 747 749
f 754 751 749
f 749 751 754
f 755 756 757
f 756 755 758
f 757 756 755
f 758 755 756
f 756 759 757
f 757 759 756
f 757 760 755
f 755 760 757
f 760 758 755
f 755 758 760
f 761 756 758
f 758 756 761
f 759 756 762
f 762 756 759
f 763 757 759
f 759 757 763
f 760 757 763
f 763 757 760
f 764 758 760
f 760 758 764
f 756 761 765
f 765 761 756
f 758 764 761
f 761 764 758
f 756 766 762
f 762 766 756
f 762 767 759
f 759 767 762
f 768 763 759
f 759 763 768
f 763 764 760
f 760 764 763
f 764 765 761
f 761 765 764
f 756 765 766
f 766 765 756
f 762 766 769
f 769 766 762
f 767 762 769
f 769 762 767
f 768 759 767
f 767 759 768
f 770 763 768
f 768 763 770
f 764 763 770
f 770 763 764
f 765 764 770
f 770 764 765
f 765 768 766
f 766 768 765
f 769 766 771
f 771 766 769
f 769 772 767
f 767 772 769
f 767 772 768
f 768 772 767
f 768 765 770
f 770 765 768
f 772 766 768
f 768 766 772
f 766 772 771
f 771 772 766
f 772 769 771
f 771 769 772
f 773 774 775
f 774 773 776
f 775 774 773
f 776 773 774
f 774 777 775
f 775 777 774
f 777 773 775
f 775 773 777
f 773 778 776
f 776 778 773
f 768 774 776
f 776 774 768
f 779 777 774
f 774 777 779
f 773 777 780
f 780 777 773
f 773 781 778
f 778 781 773
f 778 770 776
f 776 770 778
f 774 768 779
f 779 768 774
f 776 770 768
f 768 770 776
f 777 779 782
f 782 779 777
f 782 780 777
f 777 780 782
f 781 773 780
f 780 773 781
f 781 783 778
f 778 783 781
f 770 778 783
f 783 778 770
f 784 779 768
f 768 779 784
f 770 784 768
f 768 784 770
f 779 784 782
f 782 784 779
f 784 780 782
f 782 780 784
f 785 781 780
f 780 781 785
f 783 781 786
f 786 781 783
f 770 783 787
f 787 783 770
f 784 770 785
f 785 770 784
f 785 780 784
f 784 780 785
f 781 785 786
f 786 785 781
f 788 783 786
f 786 783 788
f 783 788 787
f 787 788 783
f 787 785 770
f 770 785 787
f 786 785 788
f 788 785 786
f 785 787 788
f 788 787 785
f 789 790 791
f 790 789 792
f 791 790 789
f 792 789 790
f 790 793 791
f 791 793 790
f 793 789 791
f 791 789 793
f 789 794 792
f 792 794 789
f 795 790 792
f 792 790 795
f 796 793 790
f 790 793 796
f 789 793 797
f 797 793 789
f 789 798 794
f 794 798 789
f 794 799 792
f 792 799 794
f 790 795 796
f 796 795 790
f 792 799 795
f 795 799 792
f 793 796 800
f 800 796 793
f 800 797 793
f 793 797 800
f 798 789 797
f 797 789 798
f 798 801 794
f 794 801 798
f 799 794 801
f 801 794 799
f 802 796 795
f 795 796 802
f 799 802 795
f 795 802 799
f 796 802 800
f 800 802 796
f 802 797 800
f 800 797 802
f 803 798 797
f 797 798 803
f 801 798 804
f 804 798 801
f 799 801 805
f 805 801 799
f 802 799 803
f 803 799 802
f 803 797 802
f 802 797 803
f 798 803 804
f 804 803 798
f 806 801 804
f 804 801 806
f 801 806 805
f 805 806 801
f 805 803 799
f 799 803 805
f 804 803 806
f 806 803 804
f 803 805 806
f 806 805 803
f 807 808 809
f 808 807 810
f 809 808 807
f 810 807 808
f 808 811 809
f 809 811 808
f 809 812 807
f 807 812 809
f 812 810 807
f 807 810 812
f 813 808 810
f 810 808 813
f 811 808 814
f 814 808 811
f 815 809 811
f 811 809 815
f 812 809 815
f 815 809 812
f 816 810 812
f 812 810 816
f 808 813 817
f 817 813 808
f 810 816 813
f 813 816 810
f 808 818 814
f 814 818 808
f 814 819 811
f 811 819 814
f 795 815 811
f 811 815 795
f 815 816 812
f 812 816 815
f 816 817 813
f 813 817 816
f 808 817 818
f 818 817 808
f 814 818 820
f 820 818 814
f 819 814 820
f 820 814 819
f 795 811 819
f 819 811 795
f 799 815 795
f 795 815 799
f 816 815 799
f 799 815 816
f 817 816 799
f 799 816 817
f 817 795 818
f 818 795 817
f 820 818 821
f 821 818 820
f 820 822 819
f 819 822 820
f 819 822 795
f 795 822 819
f 795 817 799
f 799 817 795
f 822 818 795
f 795 818 822
f 818 822 821
f 821 822 818
f 822 820 821
f 821 820 822
f 823 824 825
f 824 823 826
f 825 824 823
f 826 823 824
f 827 825 824
f 824 825 827
f 824 828 825
f 825 828 824
f 825 829 823
f 823 829 825
f 829 826 823
f 823 826 829
f 826 830 824
f 824 830 826
f 825 827 831
f 831 827 825
f 824 832 827
f 827 832 824
f 828 824 833
f 833 824 828
f 825 834 828
f 828 834 825
f 835 825 828
f 828 825 835
f 829 825 835
f 835 825 829
f 826 829 836
f 836 829 826
f 830 826 836
f 836 826 830
f 824 830 837
f 837 830 824
f 832 831 827
f 827 831 832
f 831 838 825
f 825 838 831
f 832 824 839
f 839 824 832
f 824 837 833
f 833 837 824
f 839 824 833
f 833 824 839
f 833 840 828
f 828 840 833
f 828 841 833
f 833 841 828
f 825 838 834
f 834 838 825
f 828 834 842
f 842 834 828
f 835 828 843
f 843 828 835
f 835 836 829
f 829 836 835
f 836 835 830
f 830 835 836
f 835 837 830
f 830 837 835
f 831 832 844
f 844 832 831
f 838 831 844
f 844 831 838
f 839 844 832
f 832 844 839
f 833 837 845
f 845 837 833
f 839 833 846
f 846 833 839
f 840 833 847
f 847 833 840
f 843 828 840
f 840 828 843
f 841 828 848
f 848 828 841
f 846 833 841
f 841 833 846
f 839 834 838
f 838 834 839
f 834 849 842
f 842 849 834
f 828 842 848
f 848 842 828
f 837 835 843
f 843 835 837
f 844 839 838
f 838 839 844
f 843 845 837
f 837 845 843
f 833 845 847
f 847 845 833
f 834 839 846
f 846 839 834
f 847 850 840
f 840 850 847
f 843 840 850
f 850 840 843
f 848 849 841
f 841 849 848
f 846 841 849
f 849 841 846
f 849 834 846
f 846 834 849
f 849 848 842
f 842 848 849
f 845 843 850
f 850 843 845
f 850 847 845
f 845 847 850
f 851 852 853
f 852 851 854
f 853 852 851
f 854 851 852
f 855 853 852
f 852 853 855
f 852 856 853
f 853 856 852
f 853 857 851
f 851 857 853
f 857 854 851
f 851 854 857
f 854 858 852
f 852 858 854
f 853 855 859
f 859 855 853
f 852 860 855
f 855 860 852
f 856 852 861
f 861 852 856
f 853 862 856
f 856 862 853
f 863 853 856
f 856 853 863
f 857 853 863
f 863 853 857
f 854 857 864
f 864 857 854
f 858 854 864
f 864 854 858
f 852 858 865
f 865 858 852
f 860 859 855
f 855 859 860
f 859 866 853
f 853 866 859
f 860 852 867
f 867 852 860
f 852 865 861
f 861 865 852
f 867 852 861
f 861 852 867
f 861 868 856
f 856 868 861
f 856 869 861
f 861 869 856
f 853 866 862
f 862 866 853
f 856 862 870
f 870 862 856
f 863 856 871
f 871 856 863
f 863 864 857
f 857 864 863
f 864 863 858
f 858 863 864
f 863 865 858
f 858 865 863
f 859 860 872
f 872 860 859
f 866 859 872
f 872 859 866
f 867 872 860
f 860 872 867
f 861 865 873
f 873 865 861
f 867 861 874
f 874 861 867
f 868 861 875
f 875 861 868
f 871 856 868
f 868 856 871
f 869 856 876
f 876 856 869
f 874 861 869
f 869 861 874
f 867 862 866
f 866 862 867
f 862 877 870
f 870 877 862
f 856 870 876
f 876 870 856
f 865 863 871
f 871 863 865
f 872 867 866
f 866 867 872
f 871 873 865
f 865 873 871
f 861 873 875
f 875 873 861
f 862 867 874
f 874 867 862
f 875 878 868
f 868 878 875
f 871 868 878
f 878 868 871
f 876 877 869
f 869 877 876
f 874 869 877
f 877 869 874
f 877 862 874
f 874 862 877
f 877 876 870
f 870 876 877
f 873 871 878
f 878 871 873
f 878 875 873
f 873 875 878
f 879 880 881
f 880 879 882
f 881 880 879
f 882 879 880
f 880 883 881
f 881 883 880
f 883 879 881
f 881 879 883
f 879 884 882
f 882 884 879
f 885 880 882
f 882 880 885
f 886 883 880
f 880 883 886
f 879 883 887
f 887 883 879
f 879 888 884
f 884 888 879
f 884 889 882
f 882 889 884
f 880 885 886
f 886 885 880
f 882 889 885
f 885 889 882
f 883 886 890
f 890 886 883
f 890 887 883
f 883 887 890
f 888 879 887
f 887 879 888
f 888 891 884
f 884 891 888
f 889 884 891
f 891 884 889
f 892 886 885
f 885 886 892
f 889 892 885
f 885 892 889
f 886 892 890
f 890 892 886
f 892 887 890
f 890 887 892
f 893 888 887
f 887 888 893
f 891 888 894
f 894 888 891
f 889 891 895
f 895 891 889
f 892 889 893
f 893 889 892
f 893 887 892
f 892 887 893
f 888 893 894
f 894 893 888
f 896 891 894
f 894 891 896
f 891 896 895
f 895 896 891
f 895 893 889
f 889 893 895
f 894 893 896
f 896 893 894
f 893 895 896
f 896 895 893
f 897 898 899
f 898 897 900
f 899 898 897
f 900 897 898
f 898 901 899
f 899 901 898
f 899 902 897
f 897 902 899
f 902 900 897
f 897 900 902
f 903 898 900
f 900 898 903
f 901 898 904
f 904 898 901
f 905 899 901
f 901 899 905
f 902 899 905
f 905 899 902
f 906 900 902
f 902 900 906
f 898 903 907
f 907 903 898
f 900 906 903
f 903 906 900
f 898 908 904
f 904 908 898
f 904 909 901
f 901 909 904
f 885 905 901
f 901 905 885
f 905 906 902
f 902 906 905
f 906 907 903
f 903 907 906
f 898 907 908
f 908 907 898
f 904 908 910
f 910 908 904
f 909 904 910
f 910 904 909
f 885 901 909
f 909 901 885
f 889 905 885
f 885 905 889
f 906 905 889
f 889 905 906
f 907 906 889
f 889 906 907
f 907 885 908
f 908 885 907
f 910 908 911
f 911 908 910
f 910 912 909
f 909 912 910
f 909 912 885
f 885 912 909
f 885 907 889
f 889 907 885
f 912 908 885
f 885 908 912
f 908 912 911
f 911 912 908
f 912 910 911
f 911 910 912
f 913 914 915
f 914 913 916
f 915 914 913
f 916 913 914
f 917 915 914
f 914 915 917
f 918 913 915
f 915 913 918
f 913 919 916
f 916 919 913
f 914 916 920
f 920 916 914
f 915 917 918
f 918 917 915
f 914 921 917
f 917 921 914
f 913 918 922
f 922 918 913
f 919 913 922
f 922 913 919
f 921 916 919
f 919 916 921
f 916 921 920
f 920 921 916
f 921 914 920
f 920 914 921
f 919 918 917
f 917 918 919
f 919 917 921
f 921 917 919
f 918 919 922
f 922 919 918
f 923 924 918
f 924 923 925
f 918 924 923
f 925 923 924
f 926 918 924
f 924 918 926
f 918 927 923
f 923 927 918
f 927 925 923
f 923 925 927
f 925 928 924
f 924 928 925
f 918 926 922
f 922 926 918
f 924 929 926
f 926 929 924
f 927 918 930
f 930 918 927
f 925 927 931
f 931 927 925
f 928 925 931
f 931 925 928
f 924 928 929
f 929 928 924
f 926 932 922
f 922 932 926
f 932 918 922
f 922 918 932
f 932 926 929
f 929 926 932
f 930 918 932
f 932 918 930
f 928 927 930
f 930 927 928
f 927 928 931
f 931 928 927
f 930 929 928
f 928 929 930
f 929 930 932
f 932 930 929
f 933 934 935
f 934 933 936
f 935 934 933
f 936 933 934
f 937 935 934
f 934 935 937
f 938 933 935
f 935 933 938
f 933 939 936
f 936 939 933
f 934 936 940
f 940 936 934
f 935 937 938
f 938 937 935
f 934 941 937
f 937 941 934
f 933 938 942
f 942 938 933
f 939 933 942
f 942 933 939
f 941 936 939
f 939 936 941
f 936 941 940
f 940 941 936
f 941 934 940
f 940 934 941
f 939 938 937
f 937 938 939
f 939 937 941
f 941 937 939
f 938 939 942
f 942 939 938
f 943 944 938
f 944 943 945
f 938 944 943
f 945 943 944
f 946 938 944
f 944 938 946
f 938 947 943
f 943 947 938
f 947 945 943
f 943 945 947
f 945 948 944
f 944 948 945
f 938 946 942
f 942 946 938
f 944 949 946
f 946 949 944
f 947 938 950
f 950 938 947
f 945 947 951
f 951 947 945
f 948 945 951
f 951 945 948
f 944 948 949
f 949 948 944
f 946 952 942
f 942 952 946
f 952 938 942
f 942 938 952
f 952 946 949
f 949 946 952
f 950 938 952
f 952 938 950
f 948 947 950
f 950 947 948
f 947 948 951
f 951 948 947
f 950 949 948
f 948 949 950
f 949 950 952
f 952 950 949
f 953 954 955
f 954 953 956
f 955 954 953
f 956 953 954
f 957 955 954
f 954 955 957
f 958 953 955
f 955 953 958
f 953 959 956
f 956 959 953
f 954 956 960
f 960 956 954
f 955 957 958
f 958 957 955
f 954 961 957
f 957 961 954
f 953 958 962
f 962 958 953
f 959 953 962
f 962 953 959
f 961 956 959
f 959 956 961
f 956 961 960
f 960 961 956
f 961 954 960
f 960 954 961
f 959 958 957
f 957 958 959
f 959 957 961
f 961 957 959
f 958 959 962
f 962 959 958
f 963 964 958
f 964 963 965
f 958 964 963
f 965 963 964
f 966 958 964
f 964 958 966
f 958 967 963
f 963 967 958
f 967 965 963
f 963 965 967
f 965 968 964
f 964 968 965
f 958 966 962
f 962 966 958
f 964 969 966
f 966 969 964
f 967 958 970
f 970 958 967
f 965 967 971
f 971 967 965
f 968 965 971
f 971 965 968
f 964 968 969
f 969 968 964
f 966 972 962
f 962 972 966
f 972 958 962
f 962 958 972
f 972 966 969
f 969 966 972
f 970 958 972
f 972 958 970
f 968 967 970
f 970 967 968
f 967 968 971
f 971 968 967
f 970 969 968
f 968 969 970
f 969 970 972
f 972 970 969
f 973 974 975
f 974 973 976
f 975 974 973
f 976 973 974
f 977 975 974
f 974 975 977
f 978 973 975
f 975 973 978
f 973 979 976
f 976 979 973
f 974 976 980
f 980 976 974
f 975 977 978
f 978 977 975
f 974 981 977
f 977 981 974
f 973 978 982
f 982 978 973
f 979 973 982
f 982 973 979
f 981 976 979
f 979 976 981
f 976 981 980
f 980 981 976
f 981 974 980
f 980 974 981
f 979 978 977
f 977 978 979
f 979 977 981
f 981 977 979
f 978 979 982
f 982 979 978
f 983 984 978
f 984 983 985
f 978 984 983
f 985 983 984
f 986 978 984
f 984 978 986
f 978 987 983
f 983 987 978
f 987 985 983
f 983 985 987
f 985 988 984
f 984 988 985
f 978 986 982
f 982 986 978
f 984 989 986
f 986 989 984
f 987 978 990
f 990 978 987
f 985 987 991
f 991 987 985
f 988 985 991
f 991 985 988
f 984 988 989
f 989 988 984
f 986 992 982
f 982 992 986
f 992 978 982
f 982 978 992
f 992 986 989
f 989 986 992
f 990 978 992
f 992 978 990
f 988 987 990
f 990 987 988
f 987 988 991
f 991 988 987
f 990 989 988
f 988 989 990
f 989 990 992
f 992 990 989
f 993 994 995
f 994 993 996
f 995 994 993
f 996 993 994
f 997 995 994
f 994 995 997
f 998 993 995
f 995 993 998
f 993 999 996
f 996 999 993
f 994 996 1000
f 1000 996 994
f 995 997 998
f 998 997 995
f 994 1001 997
f 997 1001 994
f 993 998 1002
f 1002 998 993
f 999 993 1002
f 1002 993 999
f 1001 996 999
f 999 996 1001
f 996 1001 1000
f 1000 1001 996
f 1001 994 1000
f 1000 994 1001
f 999 998 997
f 997 998 999
f 999 997 1001
f 1001 997 999
f 998 999 1002
f 1002 999 998
f 1003 1004 998
f 1004 1003 1005
f 998 1004 1003
f 1005 1003 1004
f 1006 998 1004
f 1004 998 1006
f 998 1007 1003
f 1003 1007 998
f 1007 1005 1003
f 1003 1005 1007
f 1005 1008 1004
f 1004 1008 1005
f 998 1006 1002
f 1002 1006 998
f 1004 1009 1006
f 1006 1009 1004
f 1007 998 1010
f 1010 998 1007
f 1005 1007 1011
f 1011 1007 1005
f 1008 1005 1011
f 1011 1005 1008
f 1004 1008 1009
f 1009 1008 1004
f 1006 1012 1002
f 1002 1012 1006
f 1012 998 1002
f 1002 998 1012
f 1012 1006 1009
f 1009 1006 1012
f 1010 998 1012
f 1012 998 1010
f 1008 1007 1010
f 1010 1007 1008
f 1007 1008 1011
f 1011 1008 1007
f 1010 1009 1008
f 1008 1009 1010
f 1009 1010 1012
f 1012 1010 1009
f 1013 1014 1015
f 1014 1013 1016
f 1015 1014 1013
f 1016 1013 1014
f 1017 1015 1014
f 1014 1015 1017
f 1018 1013 1015
f 1015 1013 1018
f 1013 1019 1016
f 1016 1019 1013
f 1014 1016 1020
f 1020 1016 1014
f 1015 1017 1018
f 1018 1017 1015
f 1014 1021 1017
f 1017 1021 1014
f 1013 1018 1022
f 1022 1018 1013
f 1019 1013 1022
f 1022 1013 1019
f 1021 1016 1019
f 1019 1016 1021
f 1016 1021 1020
f 1020 1021 1016
f 1021 1014 1020
f 1020 1014 1021
f 1019 1018 1017
f 1017 1018 1019
f 1019 1017 1021
f 1021 1017 1019
f 1018 1019 1022
f 1022 1019 1018
f 1023 1024 1018
f 1024 1023 1025
f 1018 1024 1023
f 1025 1023 1024
f 1026 1018 1024
f 1024 1018 1026
f 1018 1027 1023
f 1023 1027 1018
f 1027 1025 1023
f 1023 1025 1027
f 1025 1028 1024
f 1024 1028 1025
f 1018 1026 1022
f 1022 1026 1018
f 1024 1029 1026
f 1026 1029 1024
f 1027 1018 1030
f 1030 1018 1027
f 1025 1027 1031
f 1031 1027 1025
f 1028 1025 1031
f 1031 1025 1028
f 1024 1028 1029
f 1029 1028 1024
f 1026 1032 1022
f 1022 1032 1026
f 1032 1018 1022
f 1022 1018 1032
f 1032 1026 1029
f 1029 1026 1032
f 1030 1018 1032
f 1032 1018 1030
f 1028 1027 1030
f 1030 1027 1028
f 1027 1028 1031
f 1031 1028 1027
f 1030 1029 1028
f 1028 1029 1030
f 1029 1030 1032
f 1032 1030 1029
f 1033 1034 1035
f 1034 1033 1036
f 1035 1034 1033
f 1036 1033 1034
f 1037 1035 1034
f 1034 1035 1037
f 1038 1033 1035
f 1035 1033 1038
f 1033 1039 1036
f 1036 1039 1033
f 1034 1036 1040
f 1040 1036 1034
f 1035 1037 1038
f 1038 1037 1035
f 1034 1041 1037
f 1037 1041 1034
f 1033 1038 1042
f 1042 1038 1033
f 1039 1033 1042
f 1042 1033 1039
f 1041 1036 1039
f 1039 1036 1041
f 1036 1041 1040
f 1040 1041 1036
f 1041 1034 1040
f 1040 1034 1041
f 1039 1038 1037
f 1037 1038 1039
f 1039 1037 1041
f 1041 1037 1039
f 1038 1039 1042
f 1042 1039 1038
f 1043 1044 1038
f 1044 1043 1045
f 1038 1044 1043
f 1045 1043 1044
f 1046 1038 1044
f 1044 1038 1046
f 1038 1047 1043
f 1043 1047 1038
f 1047 1045 1043
f 1043 1045 1047
f 1045 1048 1044
f 1044 1048 1045
f 1038 1046 1042
f 1042 1046 1038
f 1044 1049 1046
f 1046 1049 1044
f 1047 1038 1050
f 1050 1038 1047
f 1045 1047 1051
f 1051 1047 1045
f 1048 1045 1051
f 1051 1045 1048
f 1044 1048 1049
f 1049 1048 1044
f 1046 1052 1042
f 1042 1052 1046
f 1052 1038 1042
f 1042 1038 1052
f 1052 1046 1049
f 1049 1046 1052
f 1050 1038 1052
f 1052 1038 1050
f 1048 1047 1050
f 1050 1047 1048
f 1047 1048 1051
f 1051 1048 1047
f 1050 1049 1048
f 1048 1049 1050
f 1049 1050 1052
f 1052 1050 1049
f 1053 1054 1055
f 1054 1053 1056
f 1055 1054 1053
f 1056 1053 1054
f 1057 1055 1054
f 1054 1055 1057
f 1055 1058 1053
f 1053 1058 1055
f 1058 1056 1053
f 1053 1056 1058
f 1056 1059 1054
f 1054 1059 1056
f 1055 1057 1060
f 1060 1057 1055
f 1054 1061 1057
f 1057 1061 1054
f 1058 1055 1062
f 1062 1055 1058
f 1056 1058 1063
f 1063 1058 1056
f 1059 1056 1063
f 1063 1056 1059
f 1054 1059 1061
f 1061 1059 1054
f 1057 1064 1060
f 1060 1064 1057
f 1064 1055 1060
f 1060 1055 1064
f 1064 1057 1061
f 1061 1057 1064
f 1062 1055 1064
f 1064 1055 1062
f 1059 1058 1062
f 1062 1058 1059
f 1058 1059 1063
f 1063 1059 1058
f 1062 1061 1059
f 1059 1061 1062
f 1061 1062 1064
f 1064 1062 1061
f 1065 1066 1067
f 1066 1065 1068
f 1067 1066 1065
f 1068 1065 1066
f 1069 1067 1066
f 1066 1067 1069
f 1055 1065 1067
f 1067 1065 1055
f 1065 1070 1068
f 1068 1070 1065
f 1066 1068 1071
f 1071 1068 1066
f 1067 1069 1055
f 1055 1069 1067
f 1066 1072 1069
f 1069 1072 1066
f 1065 1055 1060
f 1060 1055 1065
f 1070 1065 1060
f 1060 1065 1070
f 1072 1068 1070
f 1070 1068 1072
f 1068 1072 1071
f 1071 1072 1068
f 1072 1066 1071
f 1071 1066 1072
f 1070 1055 1069
f 1069 1055 1070
f 1070 1069 1072
f 1072 1069 1070
f 1055 1070 1060
f 1060 1070 1055

