# https://github.com/mikedh/trimesh

o 0.obj
v -0.15065534 0.08670685 -0.07538776
v -0.15576595 0.08468150 -0.08069465
v -0.15321348 0.08860193 -0.07002398
v -0.15065477 0.09265235 -0.05941134
v -0.15576395 0.09058205 -0.06470344
v -0.14299596 0.08670572 -0.07539117
v -0.14810088 0.08477082 -0.08072565
v -0.13533574 0.08670543 -0.07539203
v -0.14043810 0.08481491 -0.08074215
v -0.14555241 0.08860193 -0.07002398
v -0.14299539 0.09260798 -0.05939371
v -0.14810287 0.09058205 -0.06470344
v -0.13789133 0.08860193 -0.07002398
v -0.13533289 0.09256360 -0.05937806
v -0.14044208 0.09058205 -0.06470344
v -0.12767466 0.08670543 -0.07539203
v -0.13278015 0.08481463 -0.08074301
v -0.12001386 0.08670543 -0.07539203
v -0.12511992 0.08481491 -0.08074130
v -0.13023025 0.08860193 -0.07002398
v -0.12767039 0.09256332 -0.05937920
v -0.13278100 0.09058205 -0.06470344
v -0.12256945 0.08860193 -0.07002398
v -0.12000931 0.09256332 -0.05937920
v -0.12511992 0.09058205 -0.06470344
v -0.15320580 0.09466463 -0.05415196
v -0.15320097 0.09715337 -0.04753513
v -0.15064538 0.10122769 -0.03678140
v -0.15320438 0.10315377 -0.03148163
v -0.15830674 0.10958427 -0.01405759
v -0.15320239 0.10559842 -0.02484631
v -0.15064765 0.10967331 -0.01409030
v -0.15575684 0.10760329 -0.01938098
v -0.15319727 0.11160821 -0.00875582
v -0.15064168 0.11561369 0.00187104
v -0.15575542 0.11354510 -0.00341480
v -0.14554814 0.09466491 -0.05415025
v -0.14554472 0.09724212 -0.04756728
v -0.13788706 0.09462082 -0.05413119
v -0.13788763 0.09715422 -0.04753087
v -0.14298601 0.10127235 -0.03679790
v -0.14809121 0.09929137 -0.04212129
v -0.14554245 0.10324224 -0.03151662
v -0.13532720 0.10127263 -0.03679648
v -0.14043867 0.09929222 -0.04211816
v -0.13788507 0.10324224 -0.03151662
v -0.13022370 0.09453207 -0.05409820
v -0.13022427 0.09711070 -0.04751209
v -0.12255949 0.09453178 -0.05409990
v -0.12256092 0.09702081 -0.04748194
v -0.12767238 0.10127377 -0.03679363
v -0.13277702 0.09924842 -0.04209825
v -0.13022427 0.10324224 -0.03151662
v -0.12001415 0.10118417 -0.03676206
v -0.12512134 0.09915910 -0.04206696
v -0.12257002 0.10324280 -0.03151434
v -0.14554529 0.10568660 -0.02488272
v -0.14298828 0.10971769 -0.01410680
v -0.14809349 0.10773699 -0.01943019
v -0.13788905 0.10568632 -0.02488272
v -0.13532891 0.10971769 -0.01410680
v -0.14043952 0.10773699 -0.01943019
v -0.14553619 0.11169667 -0.00879081
v -0.14298629 0.11565807 0.00185454
v -0.14809150 0.11367709 -0.00346999
v -0.13787909 0.11169667 -0.00879081
v -0.13532663 0.11565778 0.00185454
v -0.14043753 0.11367680 -0.00346999
v -0.13022825 0.10568632 -0.02488272
v -0.12766783 0.10971769 -0.01410680
v -0.13277844 0.10773699 -0.01943019
v -0.12256718 0.10568632 -0.02488272
v -0.12000675 0.10971769 -0.01410680
v -0.12511736 0.10773699 -0.01943019
v -0.13021801 0.11169667 -0.00879053
v -0.12766584 0.11565778 0.00185454
v -0.13277645 0.11367680 -0.00346999
v -0.12255722 0.11169667 -0.00879053
v -0.12000476 0.11565778 0.00185454
v -0.12511537 0.11367680 -0.00346999
v -0.11235278 0.08670543 -0.07539203
v -0.11745884 0.08481548 -0.08073902
v -0.10469170 0.08670543 -0.07539203
v -0.10979719 0.08481576 -0.08073817
v -0.11490837 0.08860193 -0.07002398
v -0.11234823 0.09256332 -0.05937920
v -0.11745913 0.09058205 -0.06470344
v -0.10724729 0.08860193 -0.07002398
v -0.10468744 0.09256332 -0.05937920
v -0.10979805 0.09058205 -0.06470344
v -0.09703091 0.08670543 -0.07539203
v -0.10213611 0.08481576 -0.08073817
v -0.08936983 0.08670543 -0.07539203
v -0.09447503 0.08481576 -0.08073817
v -0.09958650 0.08860193 -0.07002398
v -0.09702636 0.09256332 -0.05937920
v -0.10213697 0.09058205 -0.06470344
v -0.09192542 0.08860193 -0.07002398
v -0.08936528 0.09256332 -0.05937920
v -0.09447589 0.09058205 -0.06470344
v -0.08170875 0.08670543 -0.07539203
v -0.08681424 0.08481576 -0.08073817
v -0.07404767 0.08670543 -0.07539203
v -0.07915316 0.08481576 -0.08073817
v -0.08426434 0.08860193 -0.07002398
v -0.08170448 0.09256332 -0.05937920
v -0.08681509 0.09058205 -0.06470344
v -0.07660354 0.08860193 -0.07002398
v -0.07404340 0.09256332 -0.05937920
v -0.07915401 0.09058205 -0.06470344
v -0.06638687 0.08670543 -0.07539203
v -0.07149208 0.08481576 -0.08073817
v -0.05872579 0.08670543 -0.07539203
v -0.06383128 0.08481576 -0.08073817
v -0.06894246 0.08860193 -0.07002398
v -0.06638232 0.09256332 -0.05937920
v -0.07149293 0.09058205 -0.06470344
v -0.06128138 0.08860193 -0.07002398
v -0.05872153 0.09256332 -0.05937920
v -0.06383214 0.09058205 -0.06470344
v -0.11489842 0.09453178 -0.05409990
v -0.11489671 0.09697473 -0.04747056
v -0.10723762 0.09453178 -0.05409990
v -0.10723335 0.09697444 -0.04747141
v -0.11235193 0.10113894 -0.03674698
v -0.11746368 0.09911472 -0.04205131
v -0.11491634 0.10319871 -0.03149699
v -0.10468971 0.10104962 -0.03671427
v -0.10979975 0.09902426 -0.04202230
v -0.10725327 0.10310996 -0.03146086
v -0.09957654 0.09453178 -0.05409990
v -0.09957227 0.09697444 -0.04747141
v -0.09191546 0.09453178 -0.05409990
v -0.09191148 0.09697444 -0.04747141
v -0.09702152 0.10100496 -0.03669863
v -0.10213071 0.09902398 -0.04202315
v -0.09958451 0.10311053 -0.03145830
v -0.08935902 0.10100496 -0.03669976
v -0.09446963 0.09902398 -0.04202315
v -0.09192257 0.10302178 -0.03142445
v -0.11490695 0.10568689 -0.02488101
v -0.11234595 0.10971769 -0.01410680
v -0.11745656 0.10773699 -0.01943019
v -0.10724672 0.10568745 -0.02487675
v -0.10468488 0.10971769 -0.01410680
v -0.10979549 0.10773699 -0.01942991
v -0.11489614 0.11169667 -0.00879053
v -0.11234368 0.11565778 0.00185454
v -0.11745457 0.11367680 -0.00346999
v -0.10723506 0.11169667 -0.00879053
v -0.10468288 0.11565778 0.00185454
v -0.10979349 0.11367680 -0.00346999
v -0.09958422 0.10564365 -0.02485854
v -0.09702380 0.10971769 -0.01410680
v -0.10213526 0.10773727 -0.01942848
v -0.09192314 0.10555547 -0.02482298
v -0.08936357 0.10971825 -0.01410510
v -0.09447503 0.10773813 -0.01942450
v -0.09957398 0.11169667 -0.00879053
v -0.09702180 0.11565778 0.00185454
v -0.10213241 0.11367680 -0.00346999
v -0.09191319 0.11169667 -0.00879053
v -0.08936072 0.11565778 0.00185454
v -0.09447133 0.11367680 -0.00346999
v -0.08425467 0.09453178 -0.05409990
v -0.08425040 0.09697444 -0.04747141
v -0.07659359 0.09453178 -0.05409990
v -0.07658932 0.09697444 -0.04747141
v -0.08169794 0.10100496 -0.03669976
v -0.08680883 0.09902398 -0.04202315
v -0.08425836 0.10297683 -0.03140966
v -0.07403714 0.10100496 -0.03669976
v -0.07914775 0.09902398 -0.04202315
v -0.07659586 0.10297683 -0.03141051
v -0.06893251 0.09453178 -0.05409990
v -0.06892852 0.09697444 -0.04747141
v -0.06127171 0.09453178 -0.05409990
v -0.06126744 0.09697444 -0.04747141
v -0.06637606 0.10100496 -0.03669976
v -0.07148667 0.09902398 -0.04202315
v -0.06893478 0.10297683 -0.03141051
v -0.05871498 0.10100496 -0.03669976
v -0.06382588 0.09902398 -0.04202315
v -0.06127399 0.10297683 -0.03141051
v -0.08425836 0.10555603 -0.02482156
v -0.08170818 0.10971939 -0.01410254
v -0.08681253 0.10769432 -0.01940630
v -0.07659728 0.10546614 -0.02479141
v -0.07405023 0.10962950 -0.01407096
v -0.07915714 0.10760472 -0.01937586
v -0.08425211 0.11169667 -0.00879081
v -0.08169993 0.11565778 0.00185454
v -0.08681054 0.11367680 -0.00346999
v -0.07659757 0.11169724 -0.00878854
v -0.07403885 0.11565778 0.00185454
v -0.07914946 0.11367680 -0.00346999
v -0.06893308 0.10542006 -0.02478032
v -0.06638801 0.10953990 -0.01403939
v -0.07149919 0.10756034 -0.01936021
v -0.06126972 0.10541978 -0.02478117
v -0.05872437 0.10945058 -0.01400753
v -0.06383583 0.10746988 -0.01933091
v -0.06894417 0.11160906 -0.00875298
v -0.06637862 0.11565835 0.00185596
v -0.07149009 0.11367765 -0.00346657
v -0.06128480 0.11156525 -0.00873364
v -0.05872295 0.11565920 0.00185852
v -0.06383384 0.11363385 -0.00344666
v -0.05106471 0.08670543 -0.07539203
v -0.05617020 0.08481576 -0.08073817
v -0.04340392 0.08670543 -0.07539203
v -0.04850912 0.08481576 -0.08073817
v -0.05362059 0.08860193 -0.07002398
v -0.05106045 0.09256332 -0.05937920
v -0.05617106 0.09058205 -0.06470344
v -0.04595951 0.08860193 -0.07002398
v -0.04339937 0.09256332 -0.05937920
v -0.04850998 0.09058205 -0.06470344
v -0.03574284 0.08670543 -0.07539203
v -0.04084833 0.08481576 -0.08073817
v -0.02808261 0.08670600 -0.07539032
v -0.03319294 0.08481662 -0.08073419
v -0.03829843 0.08860193 -0.07002398
v -0.03573829 0.09256332 -0.05937920
v -0.04084918 0.09058205 -0.06470344
v -0.03063763 0.08860193 -0.07002398
v -0.02807749 0.09256332 -0.05937920
v -0.03318810 0.09058205 -0.06470344
v -0.02042153 0.08670685 -0.07538804
v -0.02553869 0.08477196 -0.08071940
v -0.01275988 0.08670685 -0.07538748
v -0.01787618 0.08472644 -0.08070915
v -0.02297655 0.08860193 -0.07002398
v -0.02041641 0.09256332 -0.05937920
v -0.02552702 0.09058205 -0.06470344
v -0.01531547 0.08860193 -0.07002398
v -0.01275533 0.09256332 -0.05937920
v -0.01786623 0.09058205 -0.06470344
v -0.00509881 0.08670685 -0.07538748
v -0.01020942 0.08472616 -0.08071058
v 0.00256199 0.08666248 -0.07537069
v -0.00254862 0.08468178 -0.08069408
v -0.00765468 0.08860193 -0.07002398
v -0.00509454 0.09256332 -0.05937920
v -0.01020515 0.09058205 -0.06470344
v 0.00000640 0.08860193 -0.07002398
v 0.00256654 0.09256332 -0.05937920
v -0.00254407 0.09058205 -0.06470344
v -0.05361063 0.09453178 -0.05409990
v -0.05360636 0.09697444 -0.04747141
v -0.04594955 0.09453178 -0.05409990
v -0.04594557 0.09697444 -0.04747141
v -0.05105419 0.10100496 -0.03669976
v -0.05616480 0.09902398 -0.04202315
v -0.05361291 0.10297683 -0.03141051
v -0.04339311 0.10100496 -0.03669976
v -0.04850372 0.09902398 -0.04202315
v -0.04595183 0.10297683 -0.03141051
v -0.03828876 0.09453178 -0.05409990
v -0.03828449 0.09697444 -0.04747141
v -0.03062768 0.09453178 -0.05409990
v -0.03062341 0.09697444 -0.04747141
v -0.03573203 0.10100496 -0.03669976
v -0.04084292 0.09902398 -0.04202315
v -0.03829103 0.10297683 -0.03141051
v -0.02807123 0.10100496 -0.03669976
v -0.03318184 0.09902398 -0.04202315
v -0.03062995 0.10297683 -0.03141051
v -0.05360893 0.10541978 -0.02478117
v -0.05105646 0.10945029 -0.01400838
v -0.05616707 0.10746931 -0.01933177
v -0.04594785 0.10541978 -0.02478117
v -0.04339538 0.10945029 -0.01400838
v -0.04850600 0.10746931 -0.01933177
v -0.05362571 0.11147650 -0.00869950
v -0.05107097 0.11557074 0.00189351
v -0.05617476 0.11354567 -0.00341253
v -0.04596065 0.11143241 -0.00868243
v -0.04341075 0.11552807 0.00191627
v -0.04851055 0.11350186 -0.00339432
v -0.03828677 0.10541978 -0.02478117
v -0.03573431 0.10945029 -0.01400838
v -0.04084520 0.10746931 -0.01933177
v -0.03062569 0.10541978 -0.02478117
v -0.02807351 0.10945029 -0.01400838
v -0.03318412 0.10746931 -0.01933177
v -0.03829331 0.11143298 -0.00868044
v -0.03575052 0.11543932 0.00194926
v -0.04085146 0.11341282 -0.00336189
v -0.03063223 0.11143298 -0.00868044
v -0.02808574 0.11539323 0.00195808
v -0.03318298 0.11341339 -0.00335990
v -0.02296660 0.09453178 -0.05409990
v -0.02296233 0.09697444 -0.04747141
v -0.01530552 0.09453178 -0.05409990
v -0.01530154 0.09697444 -0.04747141
v -0.02041015 0.10100496 -0.03669976
v -0.02552077 0.09902398 -0.04202315
v -0.02296887 0.10297683 -0.03141051
v -0.01274908 0.10100496 -0.03669976
v -0.01785997 0.09902398 -0.04202315
v -0.01530808 0.10297683 -0.03141051
v -0.00764472 0.09453178 -0.05409990
v -0.00764046 0.09697444 -0.04747141
v 0.00001636 0.09453178 -0.05409990
v 0.00002062 0.09697444 -0.04747141
v -0.00508828 0.10100496 -0.03669976
v -0.01019889 0.09902398 -0.04202315
v -0.00764700 0.10297683 -0.03141051
v 0.00257280 0.10100496 -0.03669976
v -0.00253781 0.09902398 -0.04202315
v 0.00001408 0.10297683 -0.03141051
v -0.02296489 0.10541978 -0.02478117
v -0.02041243 0.10945029 -0.01400838
v -0.02552304 0.10746931 -0.01933177
v -0.01530381 0.10541978 -0.02478117
v -0.01275135 0.10945029 -0.01400838
v -0.01786225 0.10746931 -0.01933177
v -0.02297143 0.11143298 -0.00868044
v -0.02041954 0.11539266 0.00195524
v -0.02552190 0.11341339 -0.00335990
v -0.01531035 0.11143298 -0.00868044
v -0.01275875 0.11539266 0.00195524
v -0.01786082 0.11341339 -0.00335990
v -0.00764273 0.10541978 -0.02478117
v -0.00509056 0.10945029 -0.01400838
v -0.01020117 0.10746931 -0.01933177
v 0.00001806 0.10541978 -0.02478117
v 0.00257052 0.10945029 -0.01400838
v -0.00254009 0.10746931 -0.01933177
v -0.00764927 0.11143298 -0.00868044
v -0.00509767 0.11539266 0.00195524
v -0.01020003 0.11341339 -0.00335990
v 0.00001152 0.11143298 -0.00868044
v 0.00256341 0.11539266 0.00195524
v -0.00253895 0.11341339 -0.00335990
v -0.15321462 0.12581358 0.02993388
v -0.15066415 0.12384454 0.02465288
v -0.15831670 0.13228590 0.04734710
v -0.15321348 0.12825368 0.03656664
v -0.15065277 0.13228590 0.04734710
v -0.15576339 0.13030492 0.04202343
v -0.15320296 0.13426460 0.05266310
v -0.15065135 0.13822400 0.06329906
v -0.15575371 0.13624501 0.05798364
v -0.14555354 0.12581358 0.02993388
v -0.14300336 0.12384454 0.02465288
v -0.13789246 0.12581358 0.02993388
v -0.13534228 0.12384454 0.02465288
v -0.13023167 0.12581358 0.02993388
v -0.12768120 0.12384454 0.02465288
v -0.12257059 0.12581358 0.02993388
v -0.12002040 0.12384454 0.02465288
v -0.14555241 0.12825368 0.03656664
v -0.14299170 0.13228590 0.04734710
v -0.14810231 0.13030492 0.04202343
v -0.13789133 0.12825368 0.03656664
v -0.13533062 0.13228590 0.04734710
v -0.14044151 0.13030492 0.04202343
v -0.14554188 0.13426460 0.05266310
v -0.14299027 0.13822400 0.06329906
v -0.14809263 0.13624501 0.05798364
v -0.13788109 0.13426460 0.05266310
v -0.13532948 0.13822400 0.06329906
v -0.14043155 0.13624501 0.05798364
v -0.13023025 0.12825368 0.03656664
v -0.12766982 0.13228590 0.04734710
v -0.13278043 0.13030492 0.04202343
v -0.12256945 0.12825368 0.03656664
v -0.12000874 0.13228590 0.04734710
v -0.12511935 0.13030492 0.04202343
v -0.13022001 0.13426460 0.05266310
v -0.12766840 0.13822400 0.06329906
v -0.13277047 0.13624501 0.05798364
v -0.12255893 0.13426460 0.05266310
v -0.12000732 0.13822400 0.06329906
v -0.12510968 0.13624501 0.05798364
v -0.15320154 0.14019503 0.06858660
v -0.15065363 0.14666962 0.08599016
v -0.15066131 0.15512150 0.10868780
v -0.14554046 0.14019503 0.06858660
v -0.14554472 0.14263996 0.07522192
v -0.13787966 0.14019503 0.06858660
v -0.13788365 0.14263996 0.07522192
v -0.14299255 0.14666962 0.08599016
v -0.14809491 0.14469063 0.08067559
v -0.14554273 0.14864008 0.09127599
v -0.13533175 0.14666962 0.08599016
v -0.14043383 0.14469063 0.08067559
v -0.13788194 0.14864008 0.09127599
v -0.13021858 0.14019503 0.06858660
v -0.13022257 0.14263996 0.07522192
v -0.12255750 0.14019503 0.06858660
v -0.12256177 0.14263996 0.07522192
v -0.12767067 0.14666962 0.08599016
v -0.13277275 0.14469063 0.08067559
v -0.13022086 0.14864008 0.09127599
v -0.12000959 0.14666962 0.08599016
v -0.12511196 0.14469063 0.08067559
v -0.12255978 0.14864008 0.09127599
v -0.14300051 0.15512150 0.10868780
v -0.13533943 0.15512150 0.10868780
v -0.12767693 0.15516701 0.10867329
v -0.12001727 0.15516872 0.10867613
v -0.14554700 0.15108558 0.09791302
v -0.14810259 0.15314251 0.10337351
v -0.13788592 0.15108558 0.09791302
v -0.14044151 0.15314251 0.10337351
v -0.13022427 0.15108700 0.09791672
v -0.13277986 0.15314393 0.10337721
v -0.12256319 0.15108928 0.09792212
v -0.12511964 0.15318916 0.10336242
v -0.15320324 0.11745102 0.00720466
v -0.15320609 0.11985300 0.01386075
v -0.14553960 0.11754062 0.00717366
v -0.14554160 0.11989766 0.01384567
v -0.13788222 0.11754034 0.00717366
v -0.13788365 0.11989737 0.01384482
v -0.14810487 0.12186470 0.01933461
v -0.14044464 0.12186470 0.01933376
v -0.13022143 0.11754034 0.00717366
v -0.13022285 0.11989737 0.01384482
v -0.12256035 0.11754034 0.00717366
v -0.12256177 0.11989737 0.01384482
v -0.13278356 0.12186470 0.01933376
v -0.12512248 0.12186470 0.01933376
v -0.11490951 0.12581358 0.02993388
v -0.11235932 0.12384454 0.02465288
v -0.10724843 0.12581358 0.02993388
v -0.10469824 0.12384454 0.02465288
v -0.09958763 0.12581358 0.02993388
v -0.09703745 0.12384454 0.02465288
v -0.09192655 0.12581358 0.02993388
v -0.08937637 0.12384454 0.02465288
v -0.11490837 0.12825368 0.03656664
v -0.11234766 0.13228590 0.04734710
v -0.11745827 0.13030492 0.04202343
v -0.10724729 0.12825368 0.03656664
v -0.10468687 0.13228590 0.04734710
v -0.10979748 0.13030492 0.04202343
v -0.11489813 0.13426460 0.05266310
v -0.11234652 0.13822400 0.06329906
v -0.11744860 0.13624501 0.05798364
v -0.10723705 0.13426460 0.05266310
v -0.10468544 0.13822400 0.06329906
v -0.10978752 0.13624501 0.05798364
v -0.09958650 0.12825368 0.03656664
v -0.09702579 0.13228590 0.04734710
v -0.10213640 0.13030492 0.04202343
v -0.09192542 0.12825368 0.03656664
v -0.08936471 0.13228590 0.04734710
v -0.09447532 0.13030492 0.04202343
v -0.09957597 0.13426460 0.05266310
v -0.09702436 0.13822400 0.06329906
v -0.10212673 0.13624501 0.05798364
v -0.09191518 0.13426460 0.05266310
v -0.08936328 0.13822400 0.06329906
v -0.09446565 0.13624501 0.05798364
v -0.08426548 0.12581358 0.02993388
v -0.08171529 0.12384454 0.02465288
v -0.07660468 0.12581358 0.02993388
v -0.07405450 0.12384454 0.02465288
v -0.06894360 0.12581358 0.02993388
v -0.06639256 0.12384397 0.02465117
v -0.06128252 0.12581358 0.02993388
v -0.05873148 0.12384312 0.02464889
v -0.08426434 0.12825368 0.03656664
v -0.08170363 0.13228590 0.04734710
v -0.08681452 0.13030492 0.04202343
v -0.07660354 0.12825368 0.03656664
v -0.07404283 0.13228590 0.04734710
v -0.07915344 0.13030492 0.04202343
v -0.08425410 0.13426460 0.05266310
v -0.08170249 0.13822400 0.06329906
v -0.08680457 0.13624501 0.05798364
v -0.07659302 0.13426460 0.05266310
v -0.07404141 0.13822400 0.06329906
v -0.07914377 0.13624501 0.05798364
v -0.06894246 0.12825368 0.03656664
v -0.06638175 0.13228590 0.04734710
v -0.07149236 0.13030492 0.04202343
v -0.06128138 0.12825368 0.03656692
v -0.05872067 0.13228590 0.04734710
v -0.06383157 0.13030492 0.04202343
v -0.06893194 0.13426460 0.05266310
v -0.06638033 0.13822400 0.06329906
v -0.07148269 0.13624501 0.05798364
v -0.06127114 0.13426460 0.05266310
v -0.05871954 0.13822400 0.06329906
v -0.06382161 0.13624501 0.05798364
v -0.11489671 0.14019503 0.06858660
v -0.11490069 0.14263996 0.07522192
v -0.10723563 0.14019503 0.06858660
v -0.10723961 0.14263996 0.07522192
v -0.11234880 0.14666962 0.08599016
v -0.11745088 0.14469063 0.08067559
v -0.11489898 0.14864008 0.09127599
v -0.10468772 0.14666962 0.08599016
v -0.10978980 0.14469063 0.08067559
v -0.10723790 0.14864008 0.09127599
v -0.09957455 0.14019503 0.06858660
v -0.09957882 0.14263996 0.07522192
v -0.09191375 0.14019503 0.06858660
v -0.09191774 0.14263996 0.07522192
v -0.09702664 0.14666962 0.08599016
v -0.10212900 0.14469063 0.08067559
v -0.09957682 0.14864008 0.09127599
v -0.08936584 0.14666962 0.08599016
v -0.09446792 0.14469063 0.08067559
v -0.09191603 0.14864008 0.09127599
v -0.11235790 0.15521395 0.10866049
v -0.10469824 0.15521395 0.10866049
v -0.09703717 0.15521395 0.10866049
v -0.08937637 0.15521395 0.10866049
v -0.11490297 0.15108985 0.09792411
v -0.11745941 0.15323496 0.10334962
v -0.10724217 0.15108985 0.09792411
v -0.10980061 0.15323581 0.10335161
v -0.09958109 0.15108985 0.09792411
v -0.10213953 0.15323581 0.10335161
v -0.09192001 0.15108985 0.09792411
v -0.09447845 0.15323581 0.10335161
v -0.08425267 0.14019503 0.06858660
v -0.08425666 0.14263996 0.07522192
v -0.07659159 0.14019503 0.06858660
v -0.07659586 0.14263996 0.07522192
v -0.08170477 0.14666962 0.08599016
v -0.08680684 0.14469063 0.08067559
v -0.08425495 0.14864008 0.09127599
v -0.07404369 0.14666962 0.08599016
v -0.07914605 0.14469063 0.08067559
v -0.07659387 0.14864008 0.09127599
v -0.06893080 0.14019503 0.06858660
v -0.06893478 0.14263996 0.07522192
v -0.06126972 0.14019503 0.06858660
v -0.06127370 0.14263996 0.07522192
v -0.06638261 0.14666962 0.08599016
v -0.07148497 0.14469063 0.08067559
v -0.06893308 0.14864008 0.09127599
v -0.05872181 0.14666962 0.08599016
v -0.06382389 0.14469063 0.08067559
v -0.06127200 0.14864008 0.09127599
v -0.08171529 0.15521395 0.10866049
v -0.07405421 0.15521395 0.10866049
v -0.06639342 0.15521395 0.10866049
v -0.05873234 0.15521395 0.10866049
v -0.08425922 0.15108985 0.09792411
v -0.08681765 0.15323581 0.10335161
v -0.07659814 0.15108985 0.09792411
v -0.07915657 0.15323581 0.10335161
v -0.06893706 0.15108985 0.09792411
v -0.07149549 0.15323581 0.10335161
v -0.06127598 0.15108985 0.09792411
v -0.06383470 0.15323581 0.10335161
v -0.05362173 0.12581358 0.02993388
v -0.05107154 0.12384284 0.02464804
v -0.04596065 0.12581358 0.02993388
v -0.04341046 0.12384284 0.02464804
v -0.03829957 0.12581358 0.02993388
v -0.03574938 0.12384284 0.02464804
v -0.03063877 0.12581358 0.02993388
v -0.02808859 0.12384284 0.02464804
v -0.05362059 0.12825368 0.03656692
v -0.05105988 0.13228590 0.04734710
v -0.05617049 0.13030492 0.04202343
v -0.04595951 0.12825368 0.03656692
v -0.04339880 0.13228590 0.04734710
v -0.04850941 0.13030492 0.04202343
v -0.05361006 0.13426460 0.05266310
v -0.05105846 0.13822400 0.06329906
v -0.05616082 0.13624501 0.05798364
v -0.04594898 0.13426460 0.05266310
v -0.04339738 0.13822400 0.06329906
v -0.04849974 0.13624501 0.05798364
v -0.03829843 0.12825368 0.03656692
v -0.03573772 0.13228590 0.04734710
v -0.04084861 0.13030492 0.04202343
v -0.03063763 0.12825368 0.03656692
v -0.02807692 0.13228590 0.04734710
v -0.03318753 0.13030492 0.04202343
v -0.03828819 0.13426460 0.05266310
v -0.03573658 0.13822400 0.06329906
v -0.04083866 0.13624501 0.05798364
v -0.03062711 0.13426460 0.05266310
v -0.02807550 0.13822400 0.06329906
v -0.03317786 0.13624501 0.05798364
v -0.02297769 0.12581358 0.02993388
v -0.02042836 0.12384341 0.02464975
v -0.01531661 0.12581358 0.02993388
v -0.01276728 0.12384426 0.02465202
v -0.00765582 0.12581358 0.02993388
v -0.00510535 0.12384454 0.02465288
v 0.00000526 0.12581358 0.02993388
v 0.00255545 0.12384454 0.02465288
v -0.02297655 0.12825368 0.03656692
v -0.02041584 0.13228590 0.04734710
v -0.02552645 0.13030492 0.04202343
v -0.01531547 0.12825368 0.03656692
v -0.01275476 0.13228590 0.04734710
v -0.01786537 0.13030492 0.04202343
v -0.02296603 0.13426460 0.05266310
v -0.02041442 0.13822400 0.06329906
v -0.02551678 0.13624501 0.05798364
v -0.01530523 0.13426460 0.05266310
v -0.01275363 0.13822400 0.06329906
v -0.01785570 0.13624501 0.05798364
v -0.00765468 0.12825368 0.03656692
v -0.00509397 0.13228590 0.04734710
v -0.01020458 0.13030492 0.04202343
v 0.00000640 0.12825368 0.03656692
v 0.00256711 0.13228590 0.04734710
v -0.00254350 0.13030492 0.04202343
v -0.00764415 0.13426460 0.05266310
v -0.00509255 0.13822400 0.06329906
v -0.01019491 0.13624501 0.05798364
v 0.00001693 0.13426460 0.05266310
v 0.00256853 0.13822400 0.06329906
v -0.00253383 0.13624501 0.05798364
v -0.05360864 0.14019503 0.06858660
v -0.05361291 0.14263996 0.07522192
v -0.04594785 0.14019503 0.06858660
v -0.04595183 0.14263996 0.07522192
v -0.05106073 0.14666962 0.08599016
v -0.05616309 0.14469063 0.08067559
v -0.05361092 0.14864008 0.09127599
v -0.04339965 0.14666962 0.08599016
v -0.04850201 0.14469063 0.08067559
v -0.04595012 0.14864008 0.09127599
v -0.03828677 0.14019503 0.06858660
v -0.03829075 0.14263996 0.07522192
v -0.03062569 0.14019503 0.06858660
v -0.03062967 0.14263996 0.07522192
v -0.03573886 0.14666962 0.08599016
v -0.04084093 0.14469063 0.08067559
v -0.03828904 0.14864008 0.09127599
v -0.02807778 0.14666962 0.08599016
v -0.03318014 0.14469063 0.08067559
v -0.03062796 0.14864008 0.09127599
v -0.05107126 0.15521395 0.10866049
v -0.04341046 0.15521395 0.10866049
v -0.03574938 0.15521395 0.10866049
v -0.02808830 0.15521395 0.10866049
v -0.05361518 0.15108985 0.09792411
v -0.05617362 0.15323581 0.10335161
v -0.04595410 0.15108985 0.09792411
v -0.04851254 0.15323581 0.10335161
v -0.03829302 0.15108985 0.09792411
v -0.04085174 0.15323581 0.10335161
v -0.03063223 0.15108985 0.09792411
v -0.03319066 0.15323581 0.10335161
v -0.02296461 0.14019503 0.06858660
v -0.02296887 0.14263996 0.07522192
v -0.01530381 0.14019503 0.06858660
v -0.01530779 0.14263996 0.07522192
v -0.02041670 0.14666962 0.08599016
v -0.02551906 0.14469063 0.08067559
v -0.02296717 0.14864008 0.09127599
v -0.01275590 0.14666962 0.08599016
v -0.01785798 0.14469063 0.08067559
v -0.01530609 0.14864008 0.09127599
v -0.00764273 0.14019503 0.06858660
v -0.00764671 0.14263996 0.07522192
v 0.00001835 0.14019503 0.06858660
v 0.00001408 0.14263996 0.07522192
v -0.00509482 0.14666962 0.08599016
v -0.01019690 0.14469063 0.08067559
v -0.00764501 0.14864008 0.09127599
v 0.00256626 0.14666962 0.08599016
v -0.00253610 0.14469063 0.08067559
v 0.00001607 0.14864008 0.09127599
v -0.02042751 0.15521395 0.10866049
v -0.01276870 0.15521395 0.10866561
v -0.00511161 0.15521281 0.10866533
v 0.00255203 0.15512207 0.10869036
v -0.02297115 0.15108985 0.09792411
v -0.02552958 0.15323581 0.10335161
v -0.01531092 0.15108843 0.09792041
v -0.01786936 0.15323411 0.10334791
v -0.00764984 0.15108615 0.09791472
v -0.01020771 0.15318916 0.10336242
v 0.00001181 0.15108558 0.09791302
v -0.00254606 0.15314308 0.10337522
v -0.11489927 0.11754034 0.00717366
v -0.11490069 0.11989737 0.01384482
v -0.10723847 0.11754034 0.00717366
v -0.10723961 0.11989737 0.01384482
v -0.11746169 0.12186470 0.01933376
v -0.10980061 0.12186470 0.01933376
v -0.09957739 0.11754034 0.00717366
v -0.09957882 0.11989737 0.01384482
v -0.09191631 0.11754034 0.00717366
v -0.09191774 0.11989737 0.01384482
v -0.10213953 0.12186442 0.01933376
v -0.09447873 0.12186442 0.01933376
v -0.08425552 0.11754034 0.00717366
v -0.08425666 0.11989737 0.01384482
v -0.07659444 0.11754034 0.00717366
v -0.07659586 0.11989737 0.01384482
v -0.08681765 0.12186442 0.01933376
v -0.07915657 0.12186442 0.01933376
v -0.06893336 0.11758471 0.00715716
v -0.06893393 0.11994147 0.01382661
v -0.06127399 0.11762937 0.00714123
v -0.06127456 0.11994061 0.01382519
v -0.07149492 0.12186385 0.01933205
v -0.06383470 0.12190822 0.01931470
v -0.05361547 0.11762994 0.00714379
v -0.05361433 0.11998470 0.01380784
v -0.04595865 0.11758614 0.00716370
v -0.04595581 0.11998527 0.01381040
v -0.05617447 0.12195203 0.01929763
v -0.04851567 0.12195203 0.01929763
v -0.03830042 0.11749682 0.00719499
v -0.03830042 0.11998670 0.01381722
v -0.03063706 0.11749767 0.00719784
v -0.03064560 0.11994204 0.01383258
v -0.04085487 0.12195203 0.01929763
v -0.03319465 0.12195231 0.01929934
v -0.02297798 0.11740778 0.00722657
v -0.02298395 0.11985243 0.01386075
v -0.01531064 0.11736255 0.00723965
v -0.01531547 0.11985271 0.01386046
v -0.02553442 0.12195345 0.01930332
v -0.01787192 0.12190936 0.01932124
v -0.00764785 0.11736255 0.00723880
v -0.00765383 0.11980862 0.01387781
v 0.00001294 0.11736255 0.00723880
v 0.00000896 0.11980834 0.01387696
v -0.01020998 0.12186527 0.01933859
v -0.00254663 0.12186555 0.01933859
v 0.01022478 0.08661839 -0.07535306
v 0.00511388 0.08468207 -0.08069323
v 0.01788728 0.08661896 -0.07535192
v 0.01277496 0.08463769 -0.08067644
v 0.00766748 0.08860193 -0.07002398
v 0.01022762 0.09256332 -0.05937920
v 0.00511673 0.09058205 -0.06470344
v 0.01532856 0.08860193 -0.07002398
v 0.01788842 0.09256332 -0.05937920
v 0.01277781 0.09058205 -0.06470344
v 0.02554836 0.08661896 -0.07535192
v 0.02043746 0.08463798 -0.08067530
v 0.03320915 0.08661896 -0.07535192
v 0.02809854 0.08463798 -0.08067530
v 0.02298935 0.08860193 -0.07002398
v 0.02554950 0.09256332 -0.05937920
v 0.02043889 0.09058205 -0.06470344
v 0.03065043 0.08860193 -0.07002398
v 0.03321058 0.09256332 -0.05937920
v 0.02809968 0.09058205 -0.06470344
v 0.04087023 0.08661896 -0.07535192
v 0.03575962 0.08463798 -0.08067530
v 0.04853131 0.08661896 -0.07535192
v 0.04342042 0.08463798 -0.08067530
v 0.03831151 0.08860193 -0.07002398
v 0.04087137 0.09256332 -0.05937920
v 0.03576076 0.09058205 -0.06470344
v 0.04597231 0.08860193 -0.07002398
v 0.04853245 0.09256332 -0.05937920
v 0.04342184 0.09058205 -0.06470344
v 0.05619211 0.08661896 -0.07535192
v 0.05108150 0.08463798 -0.08067530
v 0.06385319 0.08661896 -0.07535192
v 0.05874258 0.08463798 -0.08067530
v 0.05363339 0.08860193 -0.07002398
v 0.05619353 0.09256332 -0.05937920
v 0.05108292 0.09058205 -0.06470344
v 0.06129447 0.08860193 -0.07002398
v 0.06385432 0.09256332 -0.05937920
v 0.05874371 0.09058205 -0.06470344
v 0.00767715 0.09453178 -0.05409990
v 0.00768142 0.09697444 -0.04747141
v 0.01533823 0.09453178 -0.05409990
v 0.01534250 0.09697444 -0.04747141
v 0.01023388 0.10100496 -0.03669976
v 0.00512298 0.09902398 -0.04202315
v 0.00767488 0.10297683 -0.03141051
v 0.01789467 0.10100496 -0.03669976
v 0.01278406 0.09902398 -0.04202315
v 0.01533596 0.10297683 -0.03141051
v 0.02299931 0.09453178 -0.05409990
v 0.02300358 0.09697444 -0.04747141
v 0.03066039 0.09453178 -0.05409990
v 0.03066437 0.09697444 -0.04747141
v 0.02555575 0.10100496 -0.03669976
v 0.02044514 0.09902398 -0.04202315
v 0.02299704 0.10297683 -0.03141051
v 0.03321683 0.10100496 -0.03669976
v 0.02810622 0.09902398 -0.04202315
v 0.03065811 0.10297683 -0.03141051
v 0.00767914 0.10541978 -0.02478117
v 0.01023160 0.10945029 -0.01400838
v 0.00512071 0.10746931 -0.01933177
v 0.01534022 0.10541978 -0.02478117
v 0.01789240 0.10945029 -0.01400838
v 0.01278179 0.10746931 -0.01933177
v 0.00767260 0.11143298 -0.00868044
v 0.01022421 0.11539266 0.00195524
v 0.00512213 0.11341339 -0.00335990
v 0.01533368 0.11143298 -0.00868044
v 0.01788529 0.11539266 0.00195524
v 0.01278293 0.11341339 -0.00335990
v 0.02300102 0.10541978 -0.02478117
v 0.02555348 0.10945029 -0.01400838
v 0.02044287 0.10746931 -0.01933177
v 0.03066210 0.10541978 -0.02478117
v 0.03321456 0.10945029 -0.01400838
v 0.02810366 0.10746931 -0.01933177
v 0.02299476 0.11143298 -0.00868044
v 0.02554637 0.11539266 0.00195524
v 0.02044401 0.11341339 -0.00335990
v 0.03065555 0.11143298 -0.00868044
v 0.03320716 0.11539266 0.00195524
v 0.02810509 0.11341339 -0.00335990
v 0.03832119 0.09453178 -0.05409990
v 0.03832545 0.09697444 -0.04747141
v 0.04598227 0.09453178 -0.05409990
v 0.04598653 0.09697444 -0.04747141
v 0.04087763 0.10100496 -0.03669976
v 0.03576702 0.09902398 -0.04202315
v 0.03831891 0.10297683 -0.03141051
v 0.04853871 0.10100496 -0.03669976
v 0.04342810 0.09902398 -0.04202315
v 0.04597999 0.10297683 -0.03141051
v 0.05364334 0.09453178 -0.05409990
v 0.05364733 0.09697444 -0.04747141
v 0.06130414 0.09453178 -0.05409990
v 0.06130841 0.09697444 -0.04747141
v 0.05619979 0.10100496 -0.03669976
v 0.05108918 0.09902398 -0.04202315
v 0.05364107 0.10297683 -0.03141051
v 0.06386087 0.10100496 -0.03669976
v 0.05874997 0.09902398 -0.04202315
v 0.06130186 0.10297683 -0.03141051
v 0.03832318 0.10541978 -0.02478117
v 0.04087535 0.10945029 -0.01400838
v 0.03576474 0.10746931 -0.01933177
v 0.04598397 0.10541978 -0.02478117
v 0.04853643 0.10945029 -0.01400838
v 0.04342582 0.10746931 -0.01933177
v 0.03831663 0.11143298 -0.00868044
v 0.04086824 0.11539266 0.00195524
v 0.03576588 0.11341339 -0.00335990
v 0.04597771 0.11143298 -0.00868044
v 0.04852932 0.11539266 0.00195524
v 0.04342696 0.11341339 -0.00335990
v 0.05364505 0.10541978 -0.02478117
v 0.05619751 0.10945029 -0.01400838
v 0.05108690 0.10746931 -0.01933177
v 0.06130613 0.10541978 -0.02478117
v 0.06385831 0.10945029 -0.01400838
v 0.05874770 0.10746931 -0.01933177
v 0.05363851 0.11143298 -0.00868044
v 0.05619012 0.11539266 0.00195524
v 0.05108804 0.11341339 -0.00335990
v 0.06129959 0.11143298 -0.00868044
v 0.06385120 0.11539266 0.00195524
v 0.05874912 0.11341339 -0.00335990
v 0.07151427 0.08661896 -0.07535192
v 0.06640366 0.08463798 -0.08067530
v 0.07917506 0.08661896 -0.07535192
v 0.07406445 0.08463798 -0.08067530
v 0.06895526 0.08860193 -0.07002398
v 0.07151540 0.09256332 -0.05937920
v 0.06640479 0.09058205 -0.06470344
v 0.07661634 0.08860193 -0.07002398
v 0.07917648 0.09256332 -0.05937920
v 0.07406587 0.09058205 -0.06470344
v 0.08683614 0.08661896 -0.07535192
v 0.08172553 0.08463798 -0.08067530
v 0.09449637 0.08661810 -0.07535277
v 0.08938433 0.08463798 -0.08067559
v 0.08427742 0.08860193 -0.07002398
v 0.08683728 0.09256332 -0.05937920
v 0.08172667 0.09058205 -0.06470344
v 0.09193822 0.08860193 -0.07002398
v 0.09449836 0.09256332 -0.05937920
v 0.08938775 0.09058205 -0.06470344
v 0.10219300 0.08651029 -0.07577662
v 0.09708382 0.08453017 -0.08110114
v 0.10990756 0.08638314 -0.07625252
v 0.10475571 0.08450741 -0.08116429
v 0.09960072 0.08860107 -0.07002483
v 0.10215944 0.09256332 -0.05937920
v 0.09704883 0.09058205 -0.06470344
v 0.10726180 0.08859908 -0.07002682
v 0.10982052 0.09256332 -0.05937920
v 0.10470962 0.09058205 -0.06470344
v 0.11756409 0.08640590 -0.07618965
v 0.11244068 0.08444170 -0.08147720
v 0.12519246 0.08649322 -0.07595583
v 0.12010034 0.08446645 -0.08140978
v 0.11492089 0.08859766 -0.07002825
v 0.11748131 0.09256332 -0.05937920
v 0.11237070 0.09058205 -0.06470344
v 0.12258140 0.08859823 -0.07002768
v 0.12514239 0.09256332 -0.05937920
v 0.12003178 0.09058205 -0.06470344
v 0.06896522 0.09453178 -0.05409990
v 0.06896949 0.09697444 -0.04747141
v 0.07662630 0.09453178 -0.05409990
v 0.07663028 0.09697444 -0.04747141
v 0.07152166 0.10100496 -0.03669976
v 0.06641105 0.09902398 -0.04202315
v 0.06896294 0.10297683 -0.03141051
v 0.07918274 0.10100496 -0.03669976
v 0.07407213 0.09902398 -0.04202315
v 0.07662402 0.10297683 -0.03141051
v 0.08428709 0.09453178 -0.05409990
v 0.08429136 0.09697444 -0.04747141
v 0.09194817 0.09453178 -0.05409990
v 0.09195244 0.09697444 -0.04747141
v 0.08684382 0.10100496 -0.03669976
v 0.08173293 0.09902398 -0.04202315
v 0.08428482 0.10297683 -0.03141051
v 0.09450462 0.10100496 -0.03669976
v 0.08939401 0.09902398 -0.04202315
v 0.09194590 0.10297683 -0.03141051
v 0.06896693 0.10541978 -0.02478117
v 0.07151939 0.10945029 -0.01400838
v 0.06640878 0.10746931 -0.01933177
v 0.07662801 0.10541978 -0.02478117
v 0.07918047 0.10945029 -0.01400838
v 0.07406986 0.10746931 -0.01933177
v 0.06896067 0.11143298 -0.00868044
v 0.07151228 0.11539266 0.00195524
v 0.06640991 0.11341339 -0.00335990
v 0.07662146 0.11143298 -0.00868044
v 0.07917307 0.11539266 0.00195524
v 0.07407099 0.11341339 -0.00335990
v 0.08428909 0.10541978 -0.02478117
v 0.08684126 0.10945029 -0.01400838
v 0.08173065 0.10746931 -0.01933177
v 0.09194988 0.10541978 -0.02478117
v 0.09450234 0.10945029 -0.01400838
v 0.08939173 0.10746931 -0.01933177
v 0.08428254 0.11143298 -0.00868044
v 0.08683415 0.11539266 0.00195524
v 0.08173207 0.11341339 -0.00335990
v 0.09194362 0.11143298 -0.00868044
v 0.09449523 0.11539266 0.00195524
v 0.08939287 0.11341339 -0.00335990
v 0.09960925 0.09453178 -0.05409990
v 0.09961324 0.09697444 -0.04747141
v 0.10727005 0.09453178 -0.05409990
v 0.10727432 0.09697444 -0.04747141
v 0.10216570 0.10100496 -0.03669976
v 0.09705509 0.09902398 -0.04202315
v 0.09960698 0.10297683 -0.03141051
v 0.10982678 0.10100496 -0.03669976
v 0.10471588 0.09902398 -0.04202315
v 0.10726777 0.10297683 -0.03141051
v 0.11493113 0.09453178 -0.05409990
v 0.11493540 0.09697444 -0.04747141
v 0.12259221 0.09453178 -0.05409990
v 0.12259647 0.09697444 -0.04747141
v 0.11748757 0.10100496 -0.03669976
v 0.11237696 0.09902398 -0.04202315
v 0.11492885 0.10297683 -0.03141051
v 0.12514865 0.10100496 -0.03669976
v 0.12003804 0.09902398 -0.04202315
v 0.12258993 0.10297683 -0.03141051
v 0.09961096 0.10541978 -0.02478117
v 0.10216342 0.10945029 -0.01400838
v 0.09705281 0.10746931 -0.01933177
v 0.10727204 0.10541978 -0.02478117
v 0.10982450 0.10945029 -0.01400838
v 0.10471361 0.10746931 -0.01933177
v 0.09960442 0.11143298 -0.00868044
v 0.10215602 0.11539266 0.00195524
v 0.09705395 0.11341339 -0.00335990
v 0.10726550 0.11143298 -0.00868044
v 0.10981710 0.11539266 0.00195524
v 0.10471503 0.11341339 -0.00335990
v 0.11493312 0.10541978 -0.02478117
v 0.11748530 0.10945029 -0.01400838
v 0.11237469 0.10746931 -0.01933177
v 0.12259391 0.10541978 -0.02478117
v 0.12514638 0.10945029 -0.01400838
v 0.12003576 0.10746931 -0.01933177
v 0.11492658 0.11143298 -0.00868044
v 0.11747818 0.11539266 0.00195524
v 0.11237582 0.11341339 -0.00335990
v 0.12258737 0.11143298 -0.00868044
v 0.12513926 0.11539266 0.00195524
v 0.12003690 0.11341339 -0.00335990
v 0.13282993 0.08658141 -0.07572143
v 0.12773610 0.08455491 -0.08117026
v 0.14047138 0.08662152 -0.07547936
v 0.13536959 0.08459616 -0.08092335
v 0.13024248 0.08859937 -0.07002654
v 0.13280347 0.09256332 -0.05937920
v 0.12769258 0.09058205 -0.06470344
v 0.13790356 0.08860051 -0.07002540
v 0.14046427 0.09256332 -0.05937920
v 0.13535366 0.09058205 -0.06470344
v 0.14812222 0.08661810 -0.07535334
v 0.14302384 0.08464139 -0.08080246
v 0.15578586 0.08661839 -0.07535362
v 0.15067354 0.08463741 -0.08067786
v 0.14556492 0.08860136 -0.07002455
v 0.14812535 0.09256332 -0.05937920
v 0.14301474 0.09058205 -0.06470344
v 0.15322629 0.08860193 -0.07002398
v 0.15067553 0.09058205 -0.06470344
v 0.13025300 0.09453178 -0.05409990
v 0.13025727 0.09697444 -0.04747141
v 0.13791408 0.09453178 -0.05409990
v 0.13791835 0.09697444 -0.04747141
v 0.13280973 0.10100496 -0.03669976
v 0.12769884 0.09902398 -0.04202315
v 0.13025073 0.10297683 -0.03141051
v 0.14047053 0.10100496 -0.03669976
v 0.13535992 0.09902398 -0.04202315
v 0.13791181 0.10297683 -0.03141051
v 0.14557516 0.09453178 -0.05409990
v 0.14557943 0.09697444 -0.04747141
v 0.14813161 0.10100496 -0.03669976
v 0.14302099 0.09902398 -0.04202315
v 0.14557289 0.10297683 -0.03141051
v 0.13025499 0.10541978 -0.02478117
v 0.13280745 0.10945029 -0.01400838
v 0.12769656 0.10746931 -0.01933177
v 0.13791607 0.10541978 -0.02478117
v 0.14046825 0.10945029 -0.01400838
v 0.13535764 0.10746931 -0.01933177
v 0.13024845 0.11143298 -0.00868044
v 0.13280006 0.11539266 0.00195524
v 0.12769798 0.11341339 -0.00335990
v 0.13790953 0.11143298 -0.00868044
v 0.14046114 0.11539266 0.00195524
v 0.13535878 0.11341339 -0.00335990
v 0.14557687 0.10541978 -0.02478117
v 0.14301872 0.10746931 -0.01933177
v 0.14557033 0.11143298 -0.00868044
v 0.14812222 0.11539266 0.00195524
v 0.14301986 0.11341339 -0.00335990
v 0.00766720 0.12581329 0.02993217
v 0.01022222 0.12393244 0.02461590
v 0.01532742 0.12585738 0.02991454
v 0.01788472 0.12397596 0.02459542
v 0.02299248 0.12594670 0.02988296
v 0.02554665 0.12406585 0.02456697
v 0.03064987 0.12599079 0.02986390
v 0.03320887 0.12411137 0.02455588
v 0.00766748 0.12825368 0.03656664
v 0.01022819 0.13228590 0.04734710
v 0.00511730 0.13030492 0.04202343
v 0.01532913 0.12825339 0.03656493
v 0.01788898 0.13228590 0.04734710
v 0.01277837 0.13030492 0.04202343
v 0.00767772 0.13426460 0.05266310
v 0.01022933 0.13822400 0.06329906
v 0.00512725 0.13624501 0.05798364
v 0.01533880 0.13426460 0.05266310
v 0.01789041 0.13822400 0.06329906
v 0.01278833 0.13624501 0.05798364
v 0.02299106 0.12825254 0.03656066
v 0.02555006 0.13228590 0.04734710
v 0.02043945 0.13030492 0.04202343
v 0.03065555 0.12834157 0.03652909
v 0.03321200 0.13228533 0.04734540
v 0.02810196 0.13030406 0.04202030
v 0.02299988 0.13426460 0.05266310
v 0.02555149 0.13822400 0.06329906
v 0.02044913 0.13624501 0.05798364
v 0.03066067 0.13426460 0.05266310
v 0.03321257 0.13822400 0.06329906
v 0.02811021 0.13624501 0.05798364
v 0.03831265 0.12608040 0.02983546
v 0.04086824 0.12411137 0.02455673
v 0.04597060 0.12608068 0.02983745
v 0.04852932 0.12411137 0.02455673
v 0.05363168 0.12608068 0.02983716
v 0.05619040 0.12411137 0.02455673
v 0.06129248 0.12608068 0.02983716
v 0.06385120 0.12411137 0.02455673
v 0.03831834 0.12838595 0.03651515
v 0.04087279 0.13228447 0.04734312
v 0.03576218 0.13034759 0.04200068
v 0.04598113 0.12847385 0.03647902
v 0.04853899 0.13237209 0.04730529
v 0.04342668 0.13043520 0.04196370
v 0.03832175 0.13426460 0.05266310
v 0.04087336 0.13822400 0.06329906
v 0.03577129 0.13624501 0.05798364
v 0.04598369 0.13426403 0.05266139
v 0.04853444 0.13822400 0.06329906
v 0.04343208 0.13624501 0.05798364
v 0.05364334 0.12851794 0.03646195
v 0.05620121 0.13241533 0.04728481
v 0.05108292 0.13047986 0.04194805
v 0.06130186 0.12851822 0.03646281
v 0.06385888 0.13250436 0.04725181
v 0.05874770 0.13056804 0.04191278
v 0.05364391 0.13430841 0.05264404
v 0.05619552 0.13822400 0.06329877
v 0.05109401 0.13624444 0.05798193
v 0.06130499 0.13439631 0.05260763
v 0.06385717 0.13822343 0.06329735
v 0.05875566 0.13624359 0.05797795
v 0.00767914 0.14019503 0.06858660
v 0.00767516 0.14263996 0.07522192
v 0.01534022 0.14019503 0.06858660
v 0.01533624 0.14263996 0.07522192
v 0.01022705 0.14666962 0.08599016
v 0.00512498 0.14469063 0.08067559
v 0.00767687 0.14864008 0.09127599
v 0.01788813 0.14666962 0.08599016
v 0.01278606 0.14469063 0.08067559
v 0.01533795 0.14864008 0.09127599
v 0.02300130 0.14019503 0.06858660
v 0.02299704 0.14263996 0.07522192
v 0.03066210 0.14019503 0.06858660
v 0.03065811 0.14263996 0.07522192
v 0.02554921 0.14666962 0.08599016
v 0.02044685 0.14469063 0.08067559
v 0.02299903 0.14864008 0.09127599
v 0.03321001 0.14666962 0.08599016
v 0.02810793 0.14469063 0.08067559
v 0.03065982 0.14864008 0.09127599
v 0.01021937 0.15512150 0.10868780
v 0.01788045 0.15512150 0.10868780
v 0.02554153 0.15512150 0.10868780
v 0.03320233 0.15512150 0.10868780
v 0.00767288 0.15108558 0.09791302
v 0.00511701 0.15314251 0.10337351
v 0.01533368 0.15108558 0.09791302
v 0.01277809 0.15314251 0.10337351
v 0.02299476 0.15108558 0.09791302
v 0.02043917 0.15314251 0.10337351
v 0.03065584 0.15108558 0.09791302
v 0.02810025 0.15314251 0.10337351
v 0.03832318 0.14019503 0.06858660
v 0.03831919 0.14263996 0.07522192
v 0.04598426 0.14019503 0.06858660
v 0.04597999 0.14263996 0.07522192
v 0.04087109 0.14666962 0.08599016
v 0.03576901 0.14469063 0.08067559
v 0.03832090 0.14864008 0.09127599
v 0.04853217 0.14666962 0.08599016
v 0.04342980 0.14469063 0.08067559
v 0.04598198 0.14864008 0.09127599
v 0.05364505 0.14019503 0.06858660
v 0.05364107 0.14263996 0.07522192
v 0.06130613 0.14019503 0.06858660
v 0.06130215 0.14263996 0.07522192
v 0.05619325 0.14666962 0.08599016
v 0.05109088 0.14469063 0.08067559
v 0.05364278 0.14864008 0.09127599
v 0.06385404 0.14666962 0.08599016
v 0.05875196 0.14469063 0.08067559
v 0.06130386 0.14864008 0.09127599
v 0.04086341 0.15512150 0.10868780
v 0.04852449 0.15512150 0.10868780
v 0.05618528 0.15512150 0.10868780
v 0.06384636 0.15512150 0.10868780
v 0.03831663 0.15108558 0.09791302
v 0.03576104 0.15314251 0.10337351
v 0.04597771 0.15108558 0.09791302
v 0.04342212 0.15314251 0.10337351
v 0.05363879 0.15108558 0.09791302
v 0.05108320 0.15314251 0.10337351
v 0.06129959 0.15108558 0.09791302
v 0.05874400 0.15314251 0.10337351
v 0.06895356 0.12608068 0.02983716
v 0.07151228 0.12411137 0.02455673
v 0.07661464 0.12608068 0.02983716
v 0.07917335 0.12411137 0.02455673
v 0.08427543 0.12608068 0.02983716
v 0.08683415 0.12411137 0.02455673
v 0.09193651 0.12608068 0.02983716
v 0.09449523 0.12411137 0.02455673
v 0.06896294 0.12851822 0.03646281
v 0.07151711 0.13254874 0.04723617
v 0.06640479 0.13056804 0.04191363
v 0.07662402 0.12851822 0.03646281
v 0.07917648 0.13254902 0.04723702
v 0.07406587 0.13056804 0.04191363
v 0.06896209 0.13443983 0.05258885
v 0.07151825 0.13826696 0.06327858
v 0.06641503 0.13633177 0.05794324
v 0.07662146 0.13452943 0.05255756
v 0.07917848 0.13835628 0.06324558
v 0.07407469 0.13637672 0.05792874
v 0.08428482 0.12851822 0.03646281
v 0.08683728 0.13254902 0.04723702
v 0.08172667 0.13056804 0.04191363
v 0.09194590 0.12851822 0.03646281
v 0.09449836 0.13254902 0.04723702
v 0.08938775 0.13056804 0.04191363
v 0.08427941 0.13453114 0.05256297
v 0.08683643 0.13835741 0.06324757
v 0.08173236 0.13646632 0.05789745
v 0.09193964 0.13453199 0.05256496
v 0.09449580 0.13844673 0.06321543
v 0.08939116 0.13651155 0.05788379
v 0.09959759 0.12608068 0.02983716
v 0.10215631 0.12411137 0.02455673
v 0.10725839 0.12608068 0.02983716
v 0.10981710 0.12411137 0.02455673
v 0.11491947 0.12608068 0.02983716
v 0.11747818 0.12411137 0.02455673
v 0.12258054 0.12608068 0.02983716
v 0.12513926 0.12411137 0.02455673
v 0.09960698 0.12851822 0.03646281
v 0.10215944 0.13254902 0.04723702
v 0.09704883 0.13056804 0.04191363
v 0.10726777 0.12851822 0.03646281
v 0.10982052 0.13254902 0.04723702
v 0.10470962 0.13056804 0.04191363
v 0.09960044 0.13453199 0.05256496
v 0.10215375 0.13849139 0.06319978
v 0.09704997 0.13651212 0.05788550
v 0.10726151 0.13453199 0.05256496
v 0.10981312 0.13849139 0.06320064
v 0.10471105 0.13651212 0.05788550
v 0.11492885 0.12851822 0.03646281
v 0.11748131 0.13254902 0.04723702
v 0.11237070 0.13056804 0.04191363
v 0.12258993 0.12851822 0.03646281
v 0.12514239 0.13254902 0.04723702
v 0.12003178 0.13056804 0.04191363
v 0.11492259 0.13453199 0.05256496
v 0.11747420 0.13849139 0.06320064
v 0.11237184 0.13651212 0.05788550
v 0.12258339 0.13453199 0.05256496
v 0.12513528 0.13849139 0.06320064
v 0.12003292 0.13651212 0.05788550
v 0.06896721 0.14019503 0.06858660
v 0.06896294 0.14263996 0.07522192
v 0.07662886 0.14019474 0.06858490
v 0.07662402 0.14263996 0.07522192
v 0.07151512 0.14666962 0.08599016
v 0.06641276 0.14469063 0.08067559
v 0.06896494 0.14864008 0.09127599
v 0.07917620 0.14666962 0.08599016
v 0.07407384 0.14469063 0.08067559
v 0.07662573 0.14864008 0.09127599
v 0.08428909 0.14023912 0.06856754
v 0.08428596 0.14263968 0.07522021
v 0.09195017 0.14032730 0.06853113
v 0.09194760 0.14263882 0.07521595
v 0.08683699 0.14666962 0.08599016
v 0.08173492 0.14469063 0.08067559
v 0.08428681 0.14864008 0.09127599
v 0.09449807 0.14666962 0.08599016
v 0.08939571 0.14469063 0.08067559
v 0.09194789 0.14864008 0.09127599
v 0.07150744 0.15512150 0.10868780
v 0.07916823 0.15512150 0.10868780
v 0.08682931 0.15512150 0.10868780
v 0.09449039 0.15512150 0.10868780
v 0.06896067 0.15108558 0.09791302
v 0.06640508 0.15314251 0.10337351
v 0.07662175 0.15108558 0.09791302
v 0.07406616 0.15314251 0.10337351
v 0.08428283 0.15108558 0.09791302
v 0.08172695 0.15314251 0.10337351
v 0.09194362 0.15108558 0.09791302
v 0.08938803 0.15314251 0.10337351
v 0.09960755 0.14037111 0.06851207
v 0.09960783 0.14272672 0.07517953
v 0.10726607 0.14045986 0.06847908
v 0.10726664 0.14277024 0.07516076
v 0.10215972 0.14666905 0.08598873
v 0.09705850 0.14468978 0.08067246
v 0.09960868 0.14864008 0.09127599
v 0.10982080 0.14666820 0.08598617
v 0.10471873 0.14473330 0.08065255
v 0.10726976 0.14864008 0.09127599
v 0.11492402 0.14046014 0.06848078
v 0.11492515 0.14286013 0.07513089
v 0.12258510 0.14046014 0.06848078
v 0.12258311 0.14290650 0.07511980
v 0.11748274 0.14675780 0.08595460
v 0.11237895 0.14482291 0.08062183
v 0.11493170 0.14863979 0.09127429
v 0.12514069 0.14680332 0.08593981
v 0.12003520 0.14486757 0.08060618
v 0.12259192 0.14868417 0.09125694
v 0.10215119 0.15512150 0.10868780
v 0.10981227 0.15512150 0.10868780
v 0.11747335 0.15512150 0.10868780
v 0.12513414 0.15512150 0.10868780
v 0.09960470 0.15108558 0.09791302
v 0.09704911 0.15314251 0.10337351
v 0.10726578 0.15108558 0.09791302
v 0.10470991 0.15314251 0.10337351
v 0.11492658 0.15108558 0.09791302
v 0.11237099 0.15314251 0.10337351
v 0.12258851 0.15108530 0.09791103
v 0.12003207 0.15314251 0.10337351
v 0.00767402 0.11736255 0.00723880
v 0.00767488 0.11985215 0.01385819
v 0.01533510 0.11736255 0.00723880
v 0.01533852 0.11989624 0.01384026
v 0.00511929 0.12190936 0.01931982
v 0.01277809 0.12195402 0.01930417
v 0.02299618 0.11736255 0.00723880
v 0.02299732 0.11989624 0.01384112
v 0.03065698 0.11736255 0.00723880
v 0.03065811 0.11989624 0.01384112
v 0.02044258 0.12204220 0.01926890
v 0.02809968 0.12204220 0.01926975
v 0.03831806 0.11736255 0.00723880
v 0.03831919 0.11989624 0.01384112
v 0.04597914 0.11736255 0.00723880
v 0.04598027 0.11989624 0.01384112
v 0.03576076 0.12204220 0.01926975
v 0.04342184 0.12204220 0.01926975
v 0.05363993 0.11736255 0.00723880
v 0.05364107 0.11989624 0.01384112
v 0.06130101 0.11736255 0.00723880
v 0.06130215 0.11989624 0.01384112
v 0.05108292 0.12204220 0.01926975
v 0.05874371 0.12204220 0.01926975
v 0.06896209 0.11736255 0.00723880
v 0.06896323 0.11989624 0.01384112
v 0.07662289 0.11736255 0.00723880
v 0.07662402 0.11989624 0.01384112
v 0.06640479 0.12204220 0.01926975
v 0.07406587 0.12204220 0.01926975
v 0.08428397 0.11736255 0.00723880
v 0.08428510 0.11989624 0.01384112
v 0.09194504 0.11736255 0.00723880
v 0.09194618 0.11989624 0.01384112
v 0.08172667 0.12204220 0.01926975
v 0.08938775 0.12204220 0.01926975
v 0.09960584 0.11736255 0.00723880
v 0.09960698 0.11989624 0.01384112
v 0.10726692 0.11736255 0.00723880
v 0.10726806 0.11989624 0.01384112
v 0.09704883 0.12204220 0.01926975
v 0.10470962 0.12204220 0.01926975
v 0.11492800 0.11736255 0.00723880
v 0.11492914 0.11989624 0.01384112
v 0.12258879 0.11736255 0.00723880
v 0.12259022 0.11989624 0.01384112
v 0.11237070 0.12204220 0.01926975
v 0.12003178 0.12204220 0.01926975
v 0.13024134 0.12608068 0.02983716
v 0.13280034 0.12411137 0.02455673
v 0.13790242 0.12608068 0.02983716
v 0.14046114 0.12411137 0.02455673
v 0.14555895 0.12608125 0.02983944
v 0.14811255 0.12411194 0.02455901
v 0.13025073 0.12851822 0.03646281
v 0.13280347 0.13254902 0.04723702
v 0.12769258 0.13056804 0.04191363
v 0.13791181 0.12851822 0.03646281
v 0.14046427 0.13254902 0.04723702
v 0.13535366 0.13056804 0.04191363
v 0.13024447 0.13453199 0.05256496
v 0.13279608 0.13849139 0.06320064
v 0.12769400 0.13651212 0.05788550
v 0.13790555 0.13453199 0.05256496
v 0.14045716 0.13849139 0.06320064
v 0.13535479 0.13651212 0.05788550
v 0.14556805 0.12851822 0.03646281
v 0.14812080 0.13254902 0.04723702
v 0.14300990 0.13056804 0.04191363
v 0.15321491 0.12843061 0.03650121
v 0.15066671 0.13052424 0.04193184
v 0.14556663 0.13453199 0.05256496
v 0.14811824 0.13849139 0.06320064
v 0.14301587 0.13651212 0.05788550
v 0.15067525 0.13646689 0.05790001
v 0.13024589 0.14046014 0.06848078
v 0.13024162 0.14290678 0.07512065
v 0.13790697 0.14046014 0.06848078
v 0.13790270 0.14290678 0.07512065
v 0.13280262 0.14689349 0.08591136
v 0.12769542 0.14495774 0.08057688
v 0.13025699 0.14877320 0.09122508
v 0.14046484 0.14693901 0.08590027
v 0.13535252 0.14495803 0.08057773
v 0.13791437 0.14881701 0.09120630
v 0.14556805 0.14046014 0.06848078
v 0.14556350 0.14290678 0.07512065
v 0.14811880 0.14693957 0.08590397
v 0.14301360 0.14495803 0.08057773
v 0.14557175 0.14890747 0.09118042
v 0.13279522 0.15512150 0.10868780
v 0.14045716 0.15512093 0.10868609
v 0.14811795 0.15512008 0.10868382
v 0.13025016 0.15108444 0.09790704
v 0.12769315 0.15314251 0.10337323
v 0.13791465 0.15117348 0.09787518
v 0.13535565 0.15314166 0.10337010
v 0.14557744 0.15121785 0.09786125
v 0.14301587 0.15318518 0.10335047
v 0.15322828 0.15121899 0.09786637
v 0.15067439 0.15322956 0.10333397
v 0.13024987 0.11736255 0.00723880
v 0.13025101 0.11989624 0.01384112
v 0.13791095 0.11736255 0.00723880
v 0.13791209 0.11989624 0.01384112
v 0.12769258 0.12204220 0.01926975
v 0.13535366 0.12204220 0.01926975
v 0.14557175 0.11736255 0.00723880
v 0.14556805 0.11989624 0.01384112
v 0.14300962 0.12204220 0.01926975
f 1 7 6
f 1 2 7
f 6 9 8
f 6 7 9
f 1 10 3
f 1 6 10
f 4 12 11
f 4 5 12
f 3 12 5
f 3 10 12
f 6 13 10
f 6 8 13
f 11 15 14
f 11 12 15
f 10 15 12
f 10 13 15
f 8 17 16
f 8 9 17
f 16 19 18
f 16 17 19
f 8 20 13
f 8 16 20
f 14 22 21
f 14 15 22
f 13 22 15
f 13 20 22
f 16 23 20
f 16 18 23
f 21 25 24
f 21 22 25
f 20 25 22
f 20 23 25
f 30 33 32
f 30 32 34
f 4 37 26
f 4 11 37
f 26 38 27
f 26 37 38
f 11 39 37
f 11 14 39
f 37 40 38
f 37 39 40
f 28 42 41
f 27 38 42
f 28 43 29
f 28 41 43
f 41 45 44
f 41 42 45
f 38 45 42
f 38 40 45
f 41 46 43
f 41 44 46
f 14 47 39
f 14 21 47
f 39 48 40
f 39 47 48
f 21 49 47
f 21 24 49
f 47 50 48
f 47 49 50
f 44 52 51
f 44 45 52
f 40 52 45
f 40 48 52
f 44 53 46
f 44 51 53
f 51 55 54
f 51 52 55
f 48 55 52
f 48 50 55
f 51 56 53
f 51 54 56
f 29 57 31
f 29 43 57
f 32 59 58
f 32 33 59
f 31 59 33
f 31 57 59
f 43 60 57
f 43 46 60
f 58 62 61
f 58 59 62
f 57 62 59
f 57 60 62
f 32 63 34
f 32 58 63
f 35 65 64
f 35 36 65
f 34 65 36
f 34 63 65
f 58 66 63
f 58 61 66
f 64 68 67
f 64 65 68
f 63 68 65
f 63 66 68
f 46 69 60
f 46 53 69
f 61 71 70
f 61 62 71
f 60 71 62
f 60 69 71
f 53 72 69
f 53 56 72
f 70 74 73
f 70 71 74
f 69 74 71
f 69 72 74
f 61 75 66
f 61 70 75
f 67 77 76
f 67 68 77
f 66 77 68
f 66 75 77
f 70 78 75
f 70 73 78
f 76 80 79
f 76 77 80
f 75 80 77
f 75 78 80
f 18 82 81
f 18 19 82
f 81 84 83
f 81 82 84
f 18 85 23
f 18 81 85
f 24 87 86
f 24 25 87
f 23 87 25
f 23 85 87
f 81 88 85
f 81 83 88
f 86 90 89
f 86 87 90
f 85 90 87
f 85 88 90
f 83 92 91
f 83 84 92
f 91 94 93
f 91 92 94
f 83 95 88
f 83 91 95
f 89 97 96
f 89 90 97
f 88 97 90
f 88 95 97
f 91 98 95
f 91 93 98
f 96 100 99
f 96 97 100
f 95 100 97
f 95 98 100
f 93 102 101
f 93 94 102
f 101 104 103
f 101 102 104
f 93 105 98
f 93 101 105
f 99 107 106
f 99 100 107
f 98 107 100
f 98 105 107
f 101 108 105
f 101 103 108
f 106 110 109
f 106 107 110
f 105 110 107
f 105 108 110
f 103 112 111
f 103 104 112
f 111 114 113
f 111 112 114
f 103 115 108
f 103 111 115
f 109 117 116
f 109 110 117
f 108 117 110
f 108 115 117
f 111 118 115
f 111 113 118
f 116 120 119
f 116 117 120
f 115 120 117
f 115 118 120
f 24 121 49
f 24 86 121
f 49 122 50
f 49 121 122
f 86 123 121
f 86 89 123
f 121 124 122
f 121 123 124
f 54 126 125
f 54 55 126
f 50 126 55
f 50 122 126
f 54 127 56
f 54 125 127
f 125 129 128
f 125 126 129
f 122 129 126
f 122 124 129
f 125 130 127
f 125 128 130
f 89 131 123
f 89 96 131
f 123 132 124
f 123 131 132
f 96 133 131
f 96 99 133
f 131 134 132
f 131 133 134
f 128 136 135
f 128 129 136
f 124 136 129
f 124 132 136
f 128 137 130
f 128 135 137
f 135 139 138
f 135 136 139
f 132 139 136
f 132 134 139
f 135 140 137
f 135 138 140
f 56 141 72
f 56 127 141
f 73 143 142
f 73 74 143
f 72 143 74
f 72 141 143
f 127 144 141
f 127 130 144
f 142 146 145
f 142 143 146
f 141 146 143
f 141 144 146
f 73 147 78
f 73 142 147
f 79 149 148
f 79 80 149
f 78 149 80
f 78 147 149
f 142 150 147
f 142 145 150
f 148 152 151
f 148 149 152
f 147 152 149
f 147 150 152
f 130 153 144
f 130 137 153
f 145 155 154
f 145 146 155
f 144 155 146
f 144 153 155
f 137 156 153
f 137 140 156
f 154 158 157
f 154 155 158
f 153 158 155
f 153 156 158
f 145 159 150
f 145 154 159
f 151 161 160
f 151 152 161
f 150 161 152
f 150 159 161
f 154 162 159
f 154 157 162
f 160 164 163
f 160 161 164
f 159 164 161
f 159 162 164
f 99 165 133
f 99 106 165
f 133 166 134
f 133 165 166
f 106 167 165
f 106 109 167
f 165 168 166
f 165 167 168
f 138 170 169
f 138 139 170
f 134 170 139
f 134 166 170
f 138 171 140
f 138 169 171
f 169 173 172
f 169 170 173
f 166 173 170
f 166 168 173
f 169 174 171
f 169 172 174
f 109 175 167
f 109 116 175
f 167 176 168
f 167 175 176
f 116 177 175
f 116 119 177
f 175 178 176
f 175 177 178
f 172 180 179
f 172 173 180
f 168 180 173
f 168 176 180
f 172 181 174
f 172 179 181
f 179 183 182
f 179 180 183
f 176 183 180
f 176 178 183
f 179 184 181
f 179 182 184
f 140 185 156
f 140 171 185
f 157 187 186
f 157 158 187
f 156 187 158
f 156 185 187
f 171 188 185
f 171 174 188
f 186 190 189
f 186 187 190
f 185 190 187
f 185 188 190
f 157 191 162
f 157 186 191
f 163 193 192
f 163 164 193
f 162 193 164
f 162 191 193
f 186 194 191
f 186 189 194
f 192 196 195
f 192 193 196
f 191 196 193
f 191 194 196
f 174 197 188
f 174 181 197
f 189 199 198
f 189 190 199
f 188 199 190
f 188 197 199
f 181 200 197
f 181 184 200
f 198 202 201
f 198 199 202
f 197 202 199
f 197 200 202
f 189 203 194
f 189 198 203
f 195 205 204
f 195 196 205
f 194 205 196
f 194 203 205
f 198 206 203
f 198 201 206
f 204 208 207
f 204 205 208
f 203 208 205
f 203 206 208
f 113 210 209
f 113 114 210
f 209 212 211
f 209 210 212
f 113 213 118
f 113 209 213
f 119 215 214
f 119 120 215
f 118 215 120
f 118 213 215
f 209 216 213
f 209 211 216
f 214 218 217
f 214 215 218
f 213 218 215
f 213 216 218
f 211 220 219
f 211 212 220
f 219 222 221
f 219 220 222
f 211 223 216
f 211 219 223
f 217 225 224
f 217 218 225
f 216 225 218
f 216 223 225
f 219 226 223
f 219 221 226
f 224 228 227
f 224 225 228
f 223 228 225
f 223 226 228
f 221 230 229
f 221 222 230
f 229 232 231
f 229 230 232
f 221 233 226
f 221 229 233
f 227 235 234
f 227 228 235
f 226 235 228
f 226 233 235
f 229 236 233
f 229 231 236
f 234 238 237
f 234 235 238
f 233 238 235
f 233 236 238
f 231 240 239
f 231 232 240
f 239 242 241
f 239 240 242
f 231 243 236
f 231 239 243
f 237 245 244
f 237 238 245
f 236 245 238
f 236 243 245
f 239 246 243
f 239 241 246
f 244 248 247
f 244 245 248
f 243 248 245
f 243 246 248
f 119 249 177
f 119 214 249
f 177 250 178
f 177 249 250
f 214 251 249
f 214 217 251
f 249 252 250
f 249 251 252
f 182 254 253
f 182 183 254
f 178 254 183
f 178 250 254
f 182 255 184
f 182 253 255
f 253 257 256
f 253 254 257
f 250 257 254
f 250 252 257
f 253 258 255
f 253 256 258
f 217 259 251
f 217 224 259
f 251 260 252
f 251 259 260
f 224 261 259
f 224 227 261
f 259 262 260
f 259 261 262
f 256 264 263
f 256 257 264
f 252 264 257
f 252 260 264
f 256 265 258
f 256 263 265
f 263 267 266
f 263 264 267
f 260 267 264
f 260 262 267
f 263 268 265
f 263 266 268
f 184 269 200
f 184 255 269
f 201 271 270
f 201 202 271
f 200 271 202
f 200 269 271
f 255 272 269
f 255 258 272
f 270 274 273
f 270 271 274
f 269 274 271
f 269 272 274
f 201 275 206
f 201 270 275
f 207 277 276
f 207 208 277
f 206 277 208
f 206 275 277
f 270 278 275
f 270 273 278
f 276 280 279
f 276 277 280
f 275 280 277
f 275 278 280
f 258 281 272
f 258 265 281
f 273 283 282
f 273 274 283
f 272 283 274
f 272 281 283
f 265 284 281
f 265 268 284
f 282 286 285
f 282 283 286
f 281 286 283
f 281 284 286
f 273 287 278
f 273 282 287
f 279 289 288
f 279 280 289
f 278 289 280
f 278 287 289
f 282 290 287
f 282 285 290
f 288 292 291
f 288 289 292
f 287 292 289
f 287 290 292
f 227 293 261
f 227 234 293
f 261 294 262
f 261 293 294
f 234 295 293
f 234 237 295
f 293 296 294
f 293 295 296
f 266 298 297
f 266 267 298
f 262 298 267
f 262 294 298
f 266 299 268
f 266 297 299
f 297 301 300
f 297 298 301
f 294 301 298
f 294 296 301
f 297 302 299
f 297 300 302
f 237 303 295
f 237 244 303
f 295 304 296
f 295 303 304
f 244 305 303
f 244 247 305
f 303 306 304
f 303 305 306
f 300 308 307
f 300 301 308
f 296 308 301
f 296 304 308
f 300 309 302
f 300 307 309
f 307 311 310
f 307 308 311
f 304 311 308
f 304 306 311
f 307 312 309
f 307 310 312
f 268 313 284
f 268 299 313
f 285 315 314
f 285 286 315
f 284 315 286
f 284 313 315
f 299 316 313
f 299 302 316
f 314 318 317
f 314 315 318
f 313 318 315
f 313 316 318
f 285 319 290
f 285 314 319
f 291 321 320
f 291 292 321
f 290 321 292
f 290 319 321
f 314 322 319
f 314 317 322
f 320 324 323
f 320 321 324
f 319 324 321
f 319 322 324
f 302 325 316
f 302 309 325
f 317 327 326
f 317 318 327
f 316 327 318
f 316 325 327
f 309 328 325
f 309 312 328
f 326 330 329
f 326 327 330
f 325 330 327
f 325 328 330
f 317 331 322
f 317 326 331
f 323 333 332
f 323 324 333
f 322 333 324
f 322 331 333
f 326 334 331
f 326 329 334
f 332 336 335
f 332 333 336
f 331 336 333
f 331 334 336
f 339 342 341
f 339 341 343
f 338 346 337
f 338 347 346
f 347 348 346
f 347 349 348
f 349 350 348
f 349 351 350
f 351 352 350
f 351 353 352
f 337 354 340
f 337 346 354
f 341 356 355
f 341 342 356
f 340 356 342
f 340 354 356
f 346 357 354
f 346 348 357
f 355 359 358
f 355 356 359
f 354 359 356
f 354 357 359
f 341 360 343
f 341 355 360
f 344 362 361
f 344 345 362
f 343 362 345
f 343 360 362
f 355 363 360
f 355 358 363
f 361 365 364
f 361 362 365
f 360 365 362
f 360 363 365
f 348 366 357
f 348 350 366
f 358 368 367
f 358 359 368
f 357 368 359
f 357 366 368
f 350 369 366
f 350 352 369
f 367 371 370
f 367 368 371
f 366 371 368
f 366 369 371
f 358 372 363
f 358 367 372
f 364 374 373
f 364 365 374
f 363 374 365
f 363 372 374
f 367 375 372
f 367 370 375
f 373 377 376
f 373 374 377
f 372 377 374
f 372 375 377
f 344 381 378
f 344 361 381
f 378 381 382
f 361 383 381
f 361 364 383
f 381 384 382
f 381 383 384
f 379 386 385
f 379 385 387
f 385 389 388
f 385 386 389
f 382 389 386
f 382 384 389
f 385 390 387
f 385 388 390
f 364 391 383
f 364 373 391
f 383 392 384
f 383 391 392
f 373 393 391
f 373 376 393
f 391 394 392
f 391 393 394
f 388 396 395
f 388 389 396
f 384 396 389
f 384 392 396
f 388 397 390
f 388 395 397
f 395 399 398
f 395 396 399
f 392 399 396
f 392 394 399
f 395 400 397
f 395 398 400
f 380 406 401
f 387 407 405
f 387 390 407
f 401 408 402
f 401 406 408
f 405 408 406
f 405 407 408
f 390 409 407
f 390 397 409
f 402 410 403
f 402 408 410
f 407 410 408
f 407 409 410
f 397 411 409
f 397 400 411
f 403 412 404
f 403 410 412
f 409 412 410
f 409 411 412
f 35 415 413
f 35 64 415
f 413 416 414
f 413 415 416
f 64 417 415
f 64 67 417
f 415 418 416
f 415 417 418
f 338 419 347
f 414 416 419
f 347 420 349
f 347 419 420
f 416 420 419
f 416 418 420
f 67 421 417
f 67 76 421
f 417 422 418
f 417 421 422
f 76 423 421
f 76 79 423
f 421 424 422
f 421 423 424
f 349 425 351
f 349 420 425
f 418 425 420
f 418 422 425
f 351 426 353
f 351 425 426
f 422 426 425
f 422 424 426
f 353 427 352
f 353 428 427
f 428 429 427
f 428 430 429
f 430 431 429
f 430 432 431
f 432 433 431
f 432 434 433
f 352 435 369
f 352 427 435
f 370 437 436
f 370 371 437
f 369 437 371
f 369 435 437
f 427 438 435
f 427 429 438
f 436 440 439
f 436 437 440
f 435 440 437
f 435 438 440
f 370 441 375
f 370 436 441
f 376 443 442
f 376 377 443
f 375 443 377
f 375 441 443
f 436 444 441
f 436 439 444
f 442 446 445
f 442 443 446
f 441 446 443
f 441 444 446
f 429 447 438
f 429 431 447
f 439 449 448
f 439 440 449
f 438 449 440
f 438 447 449
f 431 450 447
f 431 433 450
f 448 452 451
f 448 449 452
f 447 452 449
f 447 450 452
f 439 453 444
f 439 448 453
f 445 455 454
f 445 446 455
f 444 455 446
f 444 453 455
f 448 456 453
f 448 451 456
f 454 458 457
f 454 455 458
f 453 458 455
f 453 456 458
f 434 459 433
f 434 460 459
f 460 461 459
f 460 462 461
f 462 463 461
f 462 464 463
f 464 465 463
f 464 466 465
f 433 467 450
f 433 459 467
f 451 469 468
f 451 452 469
f 450 469 452
f 450 467 469
f 459 470 467
f 459 461 470
f 468 472 471
f 468 469 472
f 467 472 469
f 467 470 472
f 451 473 456
f 451 468 473
f 457 475 474
f 457 458 475
f 456 475 458
f 456 473 475
f 468 476 473
f 468 471 476
f 474 478 477
f 474 475 478
f 473 478 475
f 473 476 478
f 461 479 470
f 461 463 479
f 471 481 480
f 471 472 481
f 470 481 472
f 470 479 481
f 463 482 479
f 463 465 482
f 480 484 483
f 480 481 484
f 479 484 481
f 479 482 484
f 471 485 476
f 471 480 485
f 477 487 486
f 477 478 487
f 476 487 478
f 476 485 487
f 480 488 485
f 480 483 488
f 486 490 489
f 486 487 490
f 485 490 487
f 485 488 490
f 376 491 393
f 376 442 491
f 393 492 394
f 393 491 492
f 442 493 491
f 442 445 493
f 491 494 492
f 491 493 494
f 398 496 495
f 398 399 496
f 394 496 399
f 394 492 496
f 398 497 400
f 398 495 497
f 495 499 498
f 495 496 499
f 492 499 496
f 492 494 499
f 495 500 497
f 495 498 500
f 445 501 493
f 445 454 501
f 493 502 494
f 493 501 502
f 454 503 501
f 454 457 503
f 501 504 502
f 501 503 504
f 498 506 505
f 498 499 506
f 494 506 499
f 494 502 506
f 498 507 500
f 498 505 507
f 505 509 508
f 505 506 509
f 502 509 506
f 502 504 509
f 505 510 507
f 505 508 510
f 400 515 411
f 400 497 515
f 404 516 511
f 404 412 516
f 411 516 412
f 411 515 516
f 497 517 515
f 497 500 517
f 511 518 512
f 511 516 518
f 515 518 516
f 515 517 518
f 500 519 517
f 500 507 519
f 512 520 513
f 512 518 520
f 517 520 518
f 517 519 520
f 507 521 519
f 507 510 521
f 513 522 514
f 513 520 522
f 519 522 520
f 519 521 522
f 457 523 503
f 457 474 523
f 503 524 504
f 503 523 524
f 474 525 523
f 474 477 525
f 523 526 524
f 523 525 526
f 508 528 527
f 508 509 528
f 504 528 509
f 504 524 528
f 508 529 510
f 508 527 529
f 527 531 530
f 527 528 531
f 524 531 528
f 524 526 531
f 527 532 529
f 527 530 532
f 477 533 525
f 477 486 533
f 525 534 526
f 525 533 534
f 486 535 533
f 486 489 535
f 533 536 534
f 533 535 536
f 530 538 537
f 530 531 538
f 526 538 531
f 526 534 538
f 530 539 532
f 530 537 539
f 537 541 540
f 537 538 541
f 534 541 538
f 534 536 541
f 537 542 539
f 537 540 542
f 510 547 521
f 510 529 547
f 514 548 543
f 514 522 548
f 521 548 522
f 521 547 548
f 529 549 547
f 529 532 549
f 543 550 544
f 543 548 550
f 547 550 548
f 547 549 550
f 532 551 549
f 532 539 551
f 544 552 545
f 544 550 552
f 549 552 550
f 549 551 552
f 539 553 551
f 539 542 553
f 545 554 546
f 545 552 554
f 551 554 552
f 551 553 554
f 466 555 465
f 466 556 555
f 556 557 555
f 556 558 557
f 558 559 557
f 558 560 559
f 560 561 559
f 560 562 561
f 465 563 482
f 465 555 563
f 483 565 564
f 483 484 565
f 482 565 484
f 482 563 565
f 555 566 563
f 555 557 566
f 564 568 567
f 564 565 568
f 563 568 565
f 563 566 568
f 483 569 488
f 483 564 569
f 489 571 570
f 489 490 571
f 488 571 490
f 488 569 571
f 564 572 569
f 564 567 572
f 570 574 573
f 570 571 574
f 569 574 571
f 569 572 574
f 557 575 566
f 557 559 575
f 567 577 576
f 567 568 577
f 566 577 568
f 566 575 577
f 559 578 575
f 559 561 578
f 576 580 579
f 576 577 580
f 575 580 577
f 575 578 580
f 567 581 572
f 567 576 581
f 573 583 582
f 573 574 583
f 572 583 574
f 572 581 583
f 576 584 581
f 576 579 584
f 582 586 585
f 582 583 586
f 581 586 583
f 581 584 586
f 562 587 561
f 562 588 587
f 588 589 587
f 588 590 589
f 590 591 589
f 590 592 591
f 592 593 591
f 592 594 593
f 561 595 578
f 561 587 595
f 579 597 596
f 579 580 597
f 578 597 580
f 578 595 597
f 587 598 595
f 587 589 598
f 596 600 599
f 596 597 600
f 595 600 597
f 595 598 600
f 579 601 584
f 579 596 601
f 585 603 602
f 585 586 603
f 584 603 586
f 584 601 603
f 596 604 601
f 596 599 604
f 602 606 605
f 602 603 606
f 601 606 603
f 601 604 606
f 589 607 598
f 589 591 607
f 599 609 608
f 599 600 609
f 598 609 600
f 598 607 609
f 591 610 607
f 591 593 610
f 608 612 611
f 608 609 612
f 607 612 609
f 607 610 612
f 599 613 604
f 599 608 613
f 605 615 614
f 605 606 615
f 604 615 606
f 604 613 615
f 608 616 613
f 608 611 616
f 614 618 617
f 614 615 618
f 613 618 615
f 613 616 618
f 489 619 535
f 489 570 619
f 535 620 536
f 535 619 620
f 570 621 619
f 570 573 621
f 619 622 620
f 619 621 622
f 540 624 623
f 540 541 624
f 536 624 541
f 536 620 624
f 540 625 542
f 540 623 625
f 623 627 626
f 623 624 627
f 620 627 624
f 620 622 627
f 623 628 625
f 623 626 628
f 573 629 621
f 573 582 629
f 621 630 622
f 621 629 630
f 582 631 629
f 582 585 631
f 629 632 630
f 629 631 632
f 626 634 633
f 626 627 634
f 622 634 627
f 622 630 634
f 626 635 628
f 626 633 635
f 633 637 636
f 633 634 637
f 630 637 634
f 630 632 637
f 633 638 635
f 633 636 638
f 542 643 553
f 542 625 643
f 546 644 639
f 546 554 644
f 553 644 554
f 553 643 644
f 625 645 643
f 625 628 645
f 639 646 640
f 639 644 646
f 643 646 644
f 643 645 646
f 628 647 645
f 628 635 647
f 640 648 641
f 640 646 648
f 645 648 646
f 645 647 648
f 635 649 647
f 635 638 649
f 641 650 642
f 641 648 650
f 647 650 648
f 647 649 650
f 585 651 631
f 585 602 651
f 631 652 632
f 631 651 652
f 602 653 651
f 602 605 653
f 651 654 652
f 651 653 654
f 636 656 655
f 636 637 656
f 632 656 637
f 632 652 656
f 636 657 638
f 636 655 657
f 655 659 658
f 655 656 659
f 652 659 656
f 652 654 659
f 655 660 657
f 655 658 660
f 605 661 653
f 605 614 661
f 653 662 654
f 653 661 662
f 614 663 661
f 614 617 663
f 661 664 662
f 661 663 664
f 658 666 665
f 658 659 666
f 654 666 659
f 654 662 666
f 658 667 660
f 658 665 667
f 665 669 668
f 665 666 669
f 662 669 666
f 662 664 669
f 665 670 667
f 665 668 670
f 638 675 649
f 638 657 675
f 642 676 671
f 642 650 676
f 649 676 650
f 649 675 676
f 657 677 675
f 657 660 677
f 671 678 672
f 671 676 678
f 675 678 676
f 675 677 678
f 660 679 677
f 660 667 679
f 672 680 673
f 672 678 680
f 677 680 678
f 677 679 680
f 667 681 679
f 667 670 681
f 673 682 674
f 673 680 682
f 679 682 680
f 679 681 682
f 79 683 423
f 79 148 683
f 423 684 424
f 423 683 684
f 148 685 683
f 148 151 685
f 683 686 684
f 683 685 686
f 353 687 428
f 353 426 687
f 424 687 426
f 424 684 687
f 428 688 430
f 428 687 688
f 684 688 687
f 684 686 688
f 151 689 685
f 151 160 689
f 685 690 686
f 685 689 690
f 160 691 689
f 160 163 691
f 689 692 690
f 689 691 692
f 430 693 432
f 430 688 693
f 686 693 688
f 686 690 693
f 432 694 434
f 432 693 694
f 690 694 693
f 690 692 694
f 163 695 691
f 163 192 695
f 691 696 692
f 691 695 696
f 192 697 695
f 192 195 697
f 695 698 696
f 695 697 698
f 434 699 460
f 434 694 699
f 692 699 694
f 692 696 699
f 460 700 462
f 460 699 700
f 696 700 699
f 696 698 700
f 195 701 697
f 195 204 701
f 697 702 698
f 697 701 702
f 204 703 701
f 204 207 703
f 701 704 702
f 701 703 704
f 462 705 464
f 462 700 705
f 698 705 700
f 698 702 705
f 464 706 466
f 464 705 706
f 702 706 705
f 702 704 706
f 207 707 703
f 207 276 707
f 703 708 704
f 703 707 708
f 276 709 707
f 276 279 709
f 707 710 708
f 707 709 710
f 466 711 556
f 466 706 711
f 704 711 706
f 704 708 711
f 556 712 558
f 556 711 712
f 708 712 711
f 708 710 712
f 279 713 709
f 279 288 713
f 709 714 710
f 709 713 714
f 288 715 713
f 288 291 715
f 713 716 714
f 713 715 716
f 558 717 560
f 558 712 717
f 710 717 712
f 710 714 717
f 560 718 562
f 560 717 718
f 714 718 717
f 714 716 718
f 291 719 715
f 291 320 719
f 715 720 716
f 715 719 720
f 320 721 719
f 320 323 721
f 719 722 720
f 719 721 722
f 562 723 588
f 562 718 723
f 716 723 718
f 716 720 723
f 588 724 590
f 588 723 724
f 720 724 723
f 720 722 724
f 323 725 721
f 323 332 725
f 721 726 722
f 721 725 726
f 332 727 725
f 332 335 727
f 725 728 726
f 725 727 728
f 590 729 592
f 590 724 729
f 722 729 724
f 722 726 729
f 592 730 594
f 592 729 730
f 726 730 729
f 726 728 730
f 241 732 731
f 241 242 732
f 731 734 733
f 731 732 734
f 241 735 246
f 241 731 735
f 247 737 736
f 247 248 737
f 246 737 248
f 246 735 737
f 731 738 735
f 731 733 738
f 736 740 739
f 736 737 740
f 735 740 737
f 735 738 740
f 733 742 741
f 733 734 742
f 741 744 743
f 741 742 744
f 733 745 738
f 733 741 745
f 739 747 746
f 739 740 747
f 738 747 740
f 738 745 747
f 741 748 745
f 741 743 748
f 746 750 749
f 746 747 750
f 745 750 747
f 745 748 750
f 743 752 751
f 743 744 752
f 751 754 753
f 751 752 754
f 743 755 748
f 743 751 755
f 749 757 756
f 749 750 757
f 748 757 750
f 748 755 757
f 751 758 755
f 751 753 758
f 756 760 759
f 756 757 760
f 755 760 757
f 755 758 760
f 753 762 761
f 753 754 762
f 761 764 763
f 761 762 764
f 753 765 758
f 753 761 765
f 759 767 766
f 759 760 767
f 758 767 760
f 758 765 767
f 761 768 765
f 761 763 768
f 766 770 769
f 766 767 770
f 765 770 767
f 765 768 770
f 247 771 305
f 247 736 771
f 305 772 306
f 305 771 772
f 736 773 771
f 736 739 773
f 771 774 772
f 771 773 774
f 310 776 775
f 310 311 776
f 306 776 311
f 306 772 776
f 310 777 312
f 310 775 777
f 775 779 778
f 775 776 779
f 772 779 776
f 772 774 779
f 775 780 777
f 775 778 780
f 739 781 773
f 739 746 781
f 773 782 774
f 773 781 782
f 746 783 781
f 746 749 783
f 781 784 782
f 781 783 784
f 778 786 785
f 778 779 786
f 774 786 779
f 774 782 786
f 778 787 780
f 778 785 787
f 785 789 788
f 785 786 789
f 782 789 786
f 782 784 789
f 785 790 787
f 785 788 790
f 312 791 328
f 312 777 791
f 329 793 792
f 329 330 793
f 328 793 330
f 328 791 793
f 777 794 791
f 777 780 794
f 792 796 795
f 792 793 796
f 791 796 793
f 791 794 796
f 329 797 334
f 329 792 797
f 335 799 798
f 335 336 799
f 334 799 336
f 334 797 799
f 792 800 797
f 792 795 800
f 798 802 801
f 798 799 802
f 797 802 799
f 797 800 802
f 780 803 794
f 780 787 803
f 795 805 804
f 795 796 805
f 794 805 796
f 794 803 805
f 787 806 803
f 787 790 806
f 804 808 807
f 804 805 808
f 803 808 805
f 803 806 808
f 795 809 800
f 795 804 809
f 801 811 810
f 801 802 811
f 800 811 802
f 800 809 811
f 804 812 809
f 804 807 812
f 810 814 813
f 810 811 814
f 809 814 811
f 809 812 814
f 749 815 783
f 749 756 815
f 783 816 784
f 783 815 816
f 756 817 815
f 756 759 817
f 815 818 816
f 815 817 818
f 788 820 819
f 788 789 820
f 784 820 789
f 784 816 820
f 788 821 790
f 788 819 821
f 819 823 822
f 819 820 823
f 816 823 820
f 816 818 823
f 819 824 821
f 819 822 824
f 759 825 817
f 759 766 825
f 817 826 818
f 817 825 826
f 766 827 825
f 766 769 827
f 825 828 826
f 825 827 828
f 822 830 829
f 822 823 830
f 818 830 823
f 818 826 830
f 822 831 824
f 822 829 831
f 829 833 832
f 829 830 833
f 826 833 830
f 826 828 833
f 829 834 831
f 829 832 834
f 790 835 806
f 790 821 835
f 807 837 836
f 807 808 837
f 806 837 808
f 806 835 837
f 821 838 835
f 821 824 838
f 836 840 839
f 836 837 840
f 835 840 837
f 835 838 840
f 807 841 812
f 807 836 841
f 813 843 842
f 813 814 843
f 812 843 814
f 812 841 843
f 836 844 841
f 836 839 844
f 842 846 845
f 842 843 846
f 841 846 843
f 841 844 846
f 824 847 838
f 824 831 847
f 839 849 848
f 839 840 849
f 838 849 840
f 838 847 849
f 831 850 847
f 831 834 850
f 848 852 851
f 848 849 852
f 847 852 849
f 847 850 852
f 839 853 844
f 839 848 853
f 845 855 854
f 845 846 855
f 844 855 846
f 844 853 855
f 848 856 853
f 848 851 856
f 854 858 857
f 854 855 858
f 853 858 855
f 853 856 858
f 763 860 859
f 763 764 860
f 859 862 861
f 859 860 862
f 763 863 768
f 763 859 863
f 769 865 864
f 769 770 865
f 768 865 770
f 768 863 865
f 859 866 863
f 859 861 866
f 864 868 867
f 864 865 868
f 863 868 865
f 863 866 868
f 861 870 869
f 861 862 870
f 869 872 871
f 869 870 872
f 861 873 866
f 861 869 873
f 867 875 874
f 867 868 875
f 866 875 868
f 866 873 875
f 869 876 873
f 869 871 876
f 874 878 877
f 874 875 878
f 873 878 875
f 873 876 878
f 871 880 879
f 871 872 880
f 879 882 881
f 879 880 882
f 871 883 876
f 871 879 883
f 877 885 884
f 877 878 885
f 876 885 878
f 876 883 885
f 879 886 883
f 879 881 886
f 884 888 887
f 884 885 888
f 883 888 885
f 883 886 888
f 881 890 889
f 881 882 890
f 889 892 891
f 889 890 892
f 881 893 886
f 881 889 893
f 887 895 894
f 887 888 895
f 886 895 888
f 886 893 895
f 889 896 893
f 889 891 896
f 894 898 897
f 894 895 898
f 893 898 895
f 893 896 898
f 769 899 827
f 769 864 899
f 827 900 828
f 827 899 900
f 864 901 899
f 864 867 901
f 899 902 900
f 899 901 902
f 832 904 903
f 832 833 904
f 828 904 833
f 828 900 904
f 832 905 834
f 832 903 905
f 903 907 906
f 903 904 907
f 900 907 904
f 900 902 907
f 903 908 905
f 903 906 908
f 867 909 901
f 867 874 909
f 901 910 902
f 901 909 910
f 874 911 909
f 874 877 911
f 909 912 910
f 909 911 912
f 906 914 913
f 906 907 914
f 902 914 907
f 902 910 914
f 906 915 908
f 906 913 915
f 913 917 916
f 913 914 917
f 910 917 914
f 910 912 917
f 913 918 915
f 913 916 918
f 834 919 850
f 834 905 919
f 851 921 920
f 851 852 921
f 850 921 852
f 850 919 921
f 905 922 919
f 905 908 922
f 920 924 923
f 920 921 924
f 919 924 921
f 919 922 924
f 851 925 856
f 851 920 925
f 857 927 926
f 857 858 927
f 856 927 858
f 856 925 927
f 920 928 925
f 920 923 928
f 926 930 929
f 926 927 930
f 925 930 927
f 925 928 930
f 908 931 922
f 908 915 931
f 923 933 932
f 923 924 933
f 922 933 924
f 922 931 933
f 915 934 931
f 915 918 934
f 932 936 935
f 932 933 936
f 931 936 933
f 931 934 936
f 923 937 928
f 923 932 937
f 929 939 938
f 929 930 939
f 928 939 930
f 928 937 939
f 932 940 937
f 932 935 940
f 938 942 941
f 938 939 942
f 937 942 939
f 937 940 942
f 877 943 911
f 877 884 943
f 911 944 912
f 911 943 944
f 884 945 943
f 884 887 945
f 943 946 944
f 943 945 946
f 916 948 947
f 916 917 948
f 912 948 917
f 912 944 948
f 916 949 918
f 916 947 949
f 947 951 950
f 947 948 951
f 944 951 948
f 944 946 951
f 947 952 949
f 947 950 952
f 887 953 945
f 887 894 953
f 945 954 946
f 945 953 954
f 894 955 953
f 894 897 955
f 953 956 954
f 953 955 956
f 950 958 957
f 950 951 958
f 946 958 951
f 946 954 958
f 950 959 952
f 950 957 959
f 957 961 960
f 957 958 961
f 954 961 958
f 954 956 961
f 957 962 959
f 957 960 962
f 918 963 934
f 918 949 963
f 935 965 964
f 935 936 965
f 934 965 936
f 934 963 965
f 949 966 963
f 949 952 966
f 964 968 967
f 964 965 968
f 963 968 965
f 963 966 968
f 935 969 940
f 935 964 969
f 941 971 970
f 941 942 971
f 940 971 942
f 940 969 971
f 964 972 969
f 964 967 972
f 970 974 973
f 970 971 974
f 969 974 971
f 969 972 974
f 952 975 966
f 952 959 975
f 967 977 976
f 967 968 977
f 966 977 968
f 966 975 977
f 959 978 975
f 959 962 978
f 976 980 979
f 976 977 980
f 975 980 977
f 975 978 980
f 967 981 972
f 967 976 981
f 973 983 982
f 973 974 983
f 972 983 974
f 972 981 983
f 976 984 981
f 976 979 984
f 982 986 985
f 982 983 986
f 981 986 983
f 981 984 986
f 891 988 987
f 891 892 988
f 987 990 989
f 987 988 990
f 891 991 896
f 891 987 991
f 897 993 992
f 897 898 993
f 896 993 898
f 896 991 993
f 987 994 991
f 987 989 994
f 992 996 995
f 992 993 996
f 991 996 993
f 991 994 996
f 989 998 997
f 989 990 998
f 997 1000 999
f 997 998 1000
f 989 1001 994
f 989 997 1001
f 995 1003 1002
f 995 996 1003
f 994 1003 996
f 994 1001 1003
f 997 1004 1001
f 997 999 1004
f 1001 1005 1003
f 1001 1004 1005
f 897 1006 955
f 897 992 1006
f 955 1007 956
f 955 1006 1007
f 992 1008 1006
f 992 995 1008
f 1006 1009 1007
f 1006 1008 1009
f 960 1011 1010
f 960 961 1011
f 956 1011 961
f 956 1007 1011
f 960 1012 962
f 960 1010 1012
f 1010 1014 1013
f 1010 1011 1014
f 1007 1014 1011
f 1007 1009 1014
f 1010 1015 1012
f 1010 1013 1015
f 995 1016 1008
f 995 1002 1016
f 1008 1017 1009
f 1008 1016 1017
f 1013 1019 1018
f 1013 1014 1019
f 1009 1019 1014
f 1009 1017 1019
f 1013 1020 1015
f 1013 1018 1020
f 962 1021 978
f 962 1012 1021
f 979 1023 1022
f 979 980 1023
f 978 1023 980
f 978 1021 1023
f 1012 1024 1021
f 1012 1015 1024
f 1022 1026 1025
f 1022 1023 1026
f 1021 1026 1023
f 1021 1024 1026
f 979 1027 984
f 979 1022 1027
f 985 1029 1028
f 985 986 1029
f 984 1029 986
f 984 1027 1029
f 1022 1030 1027
f 1022 1025 1030
f 1028 1032 1031
f 1028 1029 1032
f 1027 1032 1029
f 1027 1030 1032
f 1015 1033 1024
f 1015 1020 1033
f 1025 1026 1034
f 1024 1034 1026
f 1024 1033 1034
f 1025 1035 1030
f 1031 1037 1036
f 1031 1032 1037
f 1030 1037 1032
f 1030 1035 1037
f 594 1038 593
f 594 1039 1038
f 1039 1040 1038
f 1039 1041 1040
f 1041 1042 1040
f 1041 1043 1042
f 1043 1044 1042
f 1043 1045 1044
f 593 1046 610
f 593 1038 1046
f 611 1048 1047
f 611 612 1048
f 610 1048 612
f 610 1046 1048
f 1038 1049 1046
f 1038 1040 1049
f 1047 1051 1050
f 1047 1048 1051
f 1046 1051 1048
f 1046 1049 1051
f 611 1052 616
f 611 1047 1052
f 617 1054 1053
f 617 618 1054
f 616 1054 618
f 616 1052 1054
f 1047 1055 1052
f 1047 1050 1055
f 1053 1057 1056
f 1053 1054 1057
f 1052 1057 1054
f 1052 1055 1057
f 1040 1058 1049
f 1040 1042 1058
f 1050 1060 1059
f 1050 1051 1060
f 1049 1060 1051
f 1049 1058 1060
f 1042 1061 1058
f 1042 1044 1061
f 1059 1063 1062
f 1059 1060 1063
f 1058 1063 1060
f 1058 1061 1063
f 1050 1064 1055
f 1050 1059 1064
f 1056 1066 1065
f 1056 1057 1066
f 1055 1066 1057
f 1055 1064 1066
f 1059 1067 1064
f 1059 1062 1067
f 1065 1069 1068
f 1065 1066 1069
f 1064 1069 1066
f 1064 1067 1069
f 1045 1070 1044
f 1045 1071 1070
f 1071 1072 1070
f 1071 1073 1072
f 1073 1074 1072
f 1073 1075 1074
f 1075 1076 1074
f 1075 1077 1076
f 1044 1078 1061
f 1044 1070 1078
f 1062 1080 1079
f 1062 1063 1080
f 1061 1080 1063
f 1061 1078 1080
f 1070 1081 1078
f 1070 1072 1081
f 1079 1083 1082
f 1079 1080 1083
f 1078 1083 1080
f 1078 1081 1083
f 1062 1084 1067
f 1062 1079 1084
f 1068 1086 1085
f 1068 1069 1086
f 1067 1086 1069
f 1067 1084 1086
f 1079 1087 1084
f 1079 1082 1087
f 1085 1089 1088
f 1085 1086 1089
f 1084 1089 1086
f 1084 1087 1089
f 1072 1090 1081
f 1072 1074 1090
f 1082 1092 1091
f 1082 1083 1092
f 1081 1092 1083
f 1081 1090 1092
f 1074 1093 1090
f 1074 1076 1093
f 1091 1095 1094
f 1091 1092 1095
f 1090 1095 1092
f 1090 1093 1095
f 1082 1096 1087
f 1082 1091 1096
f 1088 1098 1097
f 1088 1089 1098
f 1087 1098 1089
f 1087 1096 1098
f 1091 1099 1096
f 1091 1094 1099
f 1097 1101 1100
f 1097 1098 1101
f 1096 1101 1098
f 1096 1099 1101
f 617 1102 663
f 617 1053 1102
f 663 1103 664
f 663 1102 1103
f 1053 1104 1102
f 1053 1056 1104
f 1102 1105 1103
f 1102 1104 1105
f 668 1107 1106
f 668 669 1107
f 664 1107 669
f 664 1103 1107
f 668 1108 670
f 668 1106 1108
f 1106 1110 1109
f 1106 1107 1110
f 1103 1110 1107
f 1103 1105 1110
f 1106 1111 1108
f 1106 1109 1111
f 1056 1112 1104
f 1056 1065 1112
f 1104 1113 1105
f 1104 1112 1113
f 1065 1114 1112
f 1065 1068 1114
f 1112 1115 1113
f 1112 1114 1115
f 1109 1117 1116
f 1109 1110 1117
f 1105 1117 1110
f 1105 1113 1117
f 1109 1118 1111
f 1109 1116 1118
f 1116 1120 1119
f 1116 1117 1120
f 1113 1120 1117
f 1113 1115 1120
f 1116 1121 1118
f 1116 1119 1121
f 670 1126 681
f 670 1108 1126
f 674 1127 1122
f 674 682 1127
f 681 1127 682
f 681 1126 1127
f 1108 1128 1126
f 1108 1111 1128
f 1122 1129 1123
f 1122 1127 1129
f 1126 1129 1127
f 1126 1128 1129
f 1111 1130 1128
f 1111 1118 1130
f 1123 1131 1124
f 1123 1129 1131
f 1128 1131 1129
f 1128 1130 1131
f 1118 1132 1130
f 1118 1121 1132
f 1124 1133 1125
f 1124 1131 1133
f 1130 1133 1131
f 1130 1132 1133
f 1068 1134 1114
f 1068 1085 1134
f 1114 1135 1115
f 1114 1134 1135
f 1085 1136 1134
f 1085 1088 1136
f 1134 1137 1135
f 1134 1136 1137
f 1119 1139 1138
f 1119 1120 1139
f 1115 1139 1120
f 1115 1135 1139
f 1119 1140 1121
f 1119 1138 1140
f 1138 1142 1141
f 1138 1139 1142
f 1135 1142 1139
f 1135 1137 1142
f 1138 1143 1140
f 1138 1141 1143
f 1088 1144 1136
f 1088 1097 1144
f 1136 1145 1137
f 1136 1144 1145
f 1097 1146 1144
f 1097 1100 1146
f 1144 1147 1145
f 1144 1146 1147
f 1141 1149 1148
f 1141 1142 1149
f 1137 1149 1142
f 1137 1145 1149
f 1141 1150 1143
f 1141 1148 1150
f 1148 1152 1151
f 1148 1149 1152
f 1145 1152 1149
f 1145 1147 1152
f 1148 1153 1150
f 1148 1151 1153
f 1121 1158 1132
f 1121 1140 1158
f 1125 1159 1154
f 1125 1133 1159
f 1132 1159 1133
f 1132 1158 1159
f 1140 1160 1158
f 1140 1143 1160
f 1154 1161 1155
f 1154 1159 1161
f 1158 1161 1159
f 1158 1160 1161
f 1143 1162 1160
f 1143 1150 1162
f 1155 1163 1156
f 1155 1161 1163
f 1160 1163 1161
f 1160 1162 1163
f 1150 1164 1162
f 1150 1153 1164
f 1156 1165 1157
f 1156 1163 1165
f 1162 1165 1163
f 1162 1164 1165
f 1077 1166 1076
f 1077 1167 1166
f 1167 1168 1166
f 1167 1169 1168
f 1169 1170 1168
f 1169 1171 1170
f 1171 1172 1170
f 1171 1173 1172
f 1076 1174 1093
f 1076 1166 1174
f 1094 1176 1175
f 1094 1095 1176
f 1093 1176 1095
f 1093 1174 1176
f 1166 1177 1174
f 1166 1168 1177
f 1175 1179 1178
f 1175 1176 1179
f 1174 1179 1176
f 1174 1177 1179
f 1094 1180 1099
f 1094 1175 1180
f 1100 1182 1181
f 1100 1101 1182
f 1099 1182 1101
f 1099 1180 1182
f 1175 1183 1180
f 1175 1178 1183
f 1181 1185 1184
f 1181 1182 1185
f 1180 1185 1182
f 1180 1183 1185
f 1168 1186 1177
f 1168 1170 1186
f 1178 1188 1187
f 1178 1179 1188
f 1177 1188 1179
f 1177 1186 1188
f 1170 1189 1186
f 1170 1172 1189
f 1187 1191 1190
f 1187 1188 1191
f 1186 1191 1188
f 1186 1189 1191
f 1178 1192 1183
f 1178 1187 1192
f 1184 1194 1193
f 1184 1185 1194
f 1183 1194 1185
f 1183 1192 1194
f 1187 1195 1192
f 1187 1190 1195
f 1193 1197 1196
f 1193 1194 1197
f 1192 1197 1194
f 1192 1195 1197
f 1173 1198 1172
f 1173 1199 1198
f 1199 1200 1198
f 1199 1201 1200
f 1201 1202 1200
f 1201 1203 1202
f 1203 1204 1202
f 1203 1205 1204
f 1172 1206 1189
f 1172 1198 1206
f 1190 1208 1207
f 1190 1191 1208
f 1189 1208 1191
f 1189 1206 1208
f 1198 1209 1206
f 1198 1200 1209
f 1207 1211 1210
f 1207 1208 1211
f 1206 1211 1208
f 1206 1209 1211
f 1190 1212 1195
f 1190 1207 1212
f 1196 1214 1213
f 1196 1197 1214
f 1195 1214 1197
f 1195 1212 1214
f 1207 1215 1212
f 1207 1210 1215
f 1213 1217 1216
f 1213 1214 1217
f 1212 1217 1214
f 1212 1215 1217
f 1200 1218 1209
f 1200 1202 1218
f 1210 1220 1219
f 1210 1211 1220
f 1209 1220 1211
f 1209 1218 1220
f 1202 1221 1218
f 1202 1204 1221
f 1219 1223 1222
f 1219 1220 1223
f 1218 1223 1220
f 1218 1221 1223
f 1210 1224 1215
f 1210 1219 1224
f 1216 1226 1225
f 1216 1217 1226
f 1215 1226 1217
f 1215 1224 1226
f 1219 1227 1224
f 1219 1222 1227
f 1225 1229 1228
f 1225 1226 1229
f 1224 1229 1226
f 1224 1227 1229
f 1100 1230 1146
f 1100 1181 1230
f 1146 1231 1147
f 1146 1230 1231
f 1181 1232 1230
f 1181 1184 1232
f 1230 1233 1231
f 1230 1232 1233
f 1151 1235 1234
f 1151 1152 1235
f 1147 1235 1152
f 1147 1231 1235
f 1151 1236 1153
f 1151 1234 1236
f 1234 1238 1237
f 1234 1235 1238
f 1231 1238 1235
f 1231 1233 1238
f 1234 1239 1236
f 1234 1237 1239
f 1184 1240 1232
f 1184 1193 1240
f 1232 1241 1233
f 1232 1240 1241
f 1193 1242 1240
f 1193 1196 1242
f 1240 1243 1241
f 1240 1242 1243
f 1237 1245 1244
f 1237 1238 1245
f 1233 1245 1238
f 1233 1241 1245
f 1237 1246 1239
f 1237 1244 1246
f 1244 1248 1247
f 1244 1245 1248
f 1241 1248 1245
f 1241 1243 1248
f 1244 1249 1246
f 1244 1247 1249
f 1153 1254 1164
f 1153 1236 1254
f 1157 1255 1250
f 1157 1165 1255
f 1164 1255 1165
f 1164 1254 1255
f 1236 1256 1254
f 1236 1239 1256
f 1250 1257 1251
f 1250 1255 1257
f 1254 1257 1255
f 1254 1256 1257
f 1239 1258 1256
f 1239 1246 1258
f 1251 1259 1252
f 1251 1257 1259
f 1256 1259 1257
f 1256 1258 1259
f 1246 1260 1258
f 1246 1249 1260
f 1252 1261 1253
f 1252 1259 1261
f 1258 1261 1259
f 1258 1260 1261
f 1196 1262 1242
f 1196 1213 1262
f 1242 1263 1243
f 1242 1262 1263
f 1213 1264 1262
f 1213 1216 1264
f 1262 1265 1263
f 1262 1264 1265
f 1247 1267 1266
f 1247 1248 1267
f 1243 1267 1248
f 1243 1263 1267
f 1247 1268 1249
f 1247 1266 1268
f 1266 1270 1269
f 1266 1267 1270
f 1263 1270 1267
f 1263 1265 1270
f 1266 1271 1268
f 1266 1269 1271
f 1216 1272 1264
f 1216 1225 1272
f 1264 1273 1265
f 1264 1272 1273
f 1225 1274 1272
f 1225 1228 1274
f 1272 1275 1273
f 1272 1274 1275
f 1269 1277 1276
f 1269 1270 1277
f 1265 1277 1270
f 1265 1273 1277
f 1269 1278 1271
f 1269 1276 1278
f 1276 1280 1279
f 1276 1277 1280
f 1273 1280 1277
f 1273 1275 1280
f 1276 1281 1278
f 1276 1279 1281
f 1249 1286 1260
f 1249 1268 1286
f 1253 1287 1282
f 1253 1261 1287
f 1260 1287 1261
f 1260 1286 1287
f 1268 1288 1286
f 1268 1271 1288
f 1282 1289 1283
f 1282 1287 1289
f 1286 1289 1287
f 1286 1288 1289
f 1271 1290 1288
f 1271 1278 1290
f 1283 1291 1284
f 1283 1289 1291
f 1288 1291 1289
f 1288 1290 1291
f 1278 1292 1290
f 1278 1281 1292
f 1284 1293 1285
f 1284 1291 1293
f 1290 1293 1291
f 1290 1292 1293
f 335 1294 727
f 335 798 1294
f 727 1295 728
f 727 1294 1295
f 798 1296 1294
f 798 801 1296
f 1294 1297 1295
f 1294 1296 1297
f 594 1298 1039
f 594 730 1298
f 728 1298 730
f 728 1295 1298
f 1039 1299 1041
f 1039 1298 1299
f 1295 1299 1298
f 1295 1297 1299
f 801 1300 1296
f 801 810 1300
f 1296 1301 1297
f 1296 1300 1301
f 810 1302 1300
f 810 813 1302
f 1300 1303 1301
f 1300 1302 1303
f 1041 1304 1043
f 1041 1299 1304
f 1297 1304 1299
f 1297 1301 1304
f 1043 1305 1045
f 1043 1304 1305
f 1301 1305 1304
f 1301 1303 1305
f 813 1306 1302
f 813 842 1306
f 1302 1307 1303
f 1302 1306 1307
f 842 1308 1306
f 842 845 1308
f 1306 1309 1307
f 1306 1308 1309
f 1045 1310 1071
f 1045 1305 1310
f 1303 1310 1305
f 1303 1307 1310
f 1071 1311 1073
f 1071 1310 1311
f 1307 1311 1310
f 1307 1309 1311
f 845 1312 1308
f 845 854 1312
f 1308 1313 1309
f 1308 1312 1313
f 854 1314 1312
f 854 857 1314
f 1312 1315 1313
f 1312 1314 1315
f 1073 1316 1075
f 1073 1311 1316
f 1309 1316 1311
f 1309 1313 1316
f 1075 1317 1077
f 1075 1316 1317
f 1313 1317 1316
f 1313 1315 1317
f 857 1318 1314
f 857 926 1318
f 1314 1319 1315
f 1314 1318 1319
f 926 1320 1318
f 926 929 1320
f 1318 1321 1319
f 1318 1320 1321
f 1077 1322 1167
f 1077 1317 1322
f 1315 1322 1317
f 1315 1319 1322
f 1167 1323 1169
f 1167 1322 1323
f 1319 1323 1322
f 1319 1321 1323
f 929 1324 1320
f 929 938 1324
f 1320 1325 1321
f 1320 1324 1325
f 938 1326 1324
f 938 941 1326
f 1324 1327 1325
f 1324 1326 1327
f 1169 1328 1171
f 1169 1323 1328
f 1321 1328 1323
f 1321 1325 1328
f 1171 1329 1173
f 1171 1328 1329
f 1325 1329 1328
f 1325 1327 1329
f 941 1330 1326
f 941 970 1330
f 1326 1331 1327
f 1326 1330 1331
f 970 1332 1330
f 970 973 1332
f 1330 1333 1331
f 1330 1332 1333
f 1173 1334 1199
f 1173 1329 1334
f 1327 1334 1329
f 1327 1331 1334
f 1199 1335 1201
f 1199 1334 1335
f 1331 1335 1334
f 1331 1333 1335
f 973 1336 1332
f 973 982 1336
f 1332 1337 1333
f 1332 1336 1337
f 982 1338 1336
f 982 985 1338
f 1336 1339 1337
f 1336 1338 1339
f 1201 1340 1203
f 1201 1335 1340
f 1333 1340 1335
f 1333 1337 1340
f 1203 1341 1205
f 1203 1340 1341
f 1337 1341 1340
f 1337 1339 1341
f 1205 1342 1204
f 1205 1343 1342
f 1343 1344 1342
f 1343 1345 1344
f 1345 1346 1344
f 1345 1347 1346
f 1204 1348 1221
f 1204 1342 1348
f 1222 1350 1349
f 1222 1223 1350
f 1221 1350 1223
f 1221 1348 1350
f 1342 1351 1348
f 1342 1344 1351
f 1349 1353 1352
f 1349 1350 1353
f 1348 1353 1350
f 1348 1351 1353
f 1222 1354 1227
f 1222 1349 1354
f 1228 1356 1355
f 1228 1229 1356
f 1227 1356 1229
f 1227 1354 1356
f 1349 1357 1354
f 1349 1352 1357
f 1355 1359 1358
f 1355 1356 1359
f 1354 1359 1356
f 1354 1357 1359
f 1344 1360 1351
f 1344 1346 1360
f 1352 1362 1361
f 1352 1353 1362
f 1351 1362 1353
f 1351 1360 1362
f 1346 1363 1360
f 1361 1362 1364
f 1360 1364 1362
f 1360 1363 1364
f 1352 1365 1357
f 1352 1361 1365
f 1358 1367 1366
f 1358 1359 1367
f 1357 1367 1359
f 1357 1365 1367
f 1366 1367 1368
f 1365 1368 1367
f 1228 1369 1274
f 1228 1355 1369
f 1274 1370 1275
f 1274 1369 1370
f 1355 1371 1369
f 1355 1358 1371
f 1369 1372 1370
f 1369 1371 1372
f 1279 1374 1373
f 1279 1280 1374
f 1275 1374 1280
f 1275 1370 1374
f 1279 1375 1281
f 1279 1373 1375
f 1373 1377 1376
f 1373 1374 1377
f 1370 1377 1374
f 1370 1372 1377
f 1373 1378 1375
f 1373 1376 1378
f 1358 1379 1371
f 1358 1366 1379
f 1371 1380 1372
f 1371 1379 1380
f 1376 1382 1381
f 1376 1377 1382
f 1372 1382 1377
f 1372 1380 1382
f 1376 1383 1378
f 1376 1381 1383
f 1281 1387 1292
f 1281 1375 1387
f 1285 1388 1384
f 1285 1293 1388
f 1292 1388 1293
f 1292 1387 1388
f 1375 1389 1387
f 1375 1378 1389
f 1384 1390 1385
f 1384 1388 1390
f 1387 1390 1388
f 1387 1389 1390
f 1378 1391 1389
f 1378 1383 1391
f 1385 1392 1386
f 1385 1390 1392
f 1389 1392 1390
f 1389 1391 1392
f 1383 1393 1391
f 1386 1392 1394
f 1391 1394 1392
f 1391 1393 1394
f 985 1395 1338
f 985 1028 1395
f 1338 1396 1339
f 1338 1395 1396
f 1028 1397 1395
f 1028 1031 1397
f 1395 1398 1396
f 1395 1397 1398
f 1205 1399 1343
f 1205 1341 1399
f 1339 1399 1341
f 1339 1396 1399
f 1343 1400 1345
f 1343 1399 1400
f 1396 1400 1399
f 1396 1398 1400
f 1031 1401 1397
f 1031 1036 1401
f 1397 1402 1398
f 1397 1401 1402
f 1345 1403 1347
f 1345 1400 1403
f 1398 1403 1400
f 1398 1402 1403

