# https://github.com/mikedh/trimesh

o 4.obj
v -0.05677494 -0.02602092 -0.03768032
v -0.05718242 -0.02450808 -0.03454158
v -0.05671667 -0.02668038 -0.03718346
v -0.05722935 -0.02390220 -0.03510370
v -0.05760628 -0.02206710 -0.03213771
v -0.05764273 -0.02152168 -0.03275930
v -0.05628474 -0.02785460 -0.04046090
v -0.05621391 -0.02856044 -0.04003454
v -0.06145271 -0.02241271 -0.04116707
v -0.06184405 -0.02058776 -0.03894784
v -0.05798353 -0.01938441 -0.02999836
v -0.05801060 -0.01890534 -0.03067277
v -0.06220013 -0.01853736 -0.03692854
v -0.05576376 -0.02938294 -0.04341500
v -0.05567984 -0.03012763 -0.04306350
v -0.06103039 -0.02399201 -0.04356210
v -0.05831004 -0.01648935 -0.02814690
v -0.05832903 -0.01608187 -0.02886703
v -0.06251704 -0.01628375 -0.03513131
v -0.05521801 -0.03058945 -0.04651030
v -0.05512023 -0.03136470 -0.04623727
v -0.06058176 -0.02530853 -0.04610664
v -0.05858221 -0.01341369 -0.02660350
v -0.05859443 -0.01308216 -0.02736183
v -0.06279128 -0.01385173 -0.03357602
v -0.05465327 -0.03146084 -0.04971278
v -0.05454120 -0.03225813 -0.04952093
v -0.06011164 -0.02634765 -0.04877264
v -0.05879697 -0.01019103 -0.02538519
v -0.05880396 -0.00993916 -0.02617364
v -0.06301979 -0.01126801 -0.03227947
v -0.05407588 -0.03198749 -0.05298749
v -0.05394918 -0.03279821 -0.05287858
v -0.05962525 -0.02709823 -0.05153107
v -0.05895215 -0.00685662 -0.02450540
v -0.05895521 -0.00668715 -0.02531557
v -0.06320029 -0.00856087 -0.03125606
v -0.05349215 -0.03216363 -0.05629843
v -0.05335050 -0.03297881 -0.05627344
v -0.05912796 -0.02755177 -0.05435170
v -0.05904589 -0.00344724 -0.02397351
v -0.05904666 -0.00336202 -0.02479689
v -0.06333059 -0.00575989 -0.03051694
v -0.05275194 -0.03279821 -0.05966831
v -0.05290832 -0.03198749 -0.05960938
v -0.05862510 -0.02770356 -0.05720343
v -0.05906161 -0.00172357 -0.02388458
v -0.05906194 -0.00168101 -0.02471013
v -0.05907721 -0.00000000 -0.02379564
v -0.05907721 -0.00000000 -0.02462337
v -0.06340938 -0.00289582 -0.03007028
v -0.05215992 -0.03225813 -0.06302596
v -0.05233092 -0.03146084 -0.06288398
v -0.05812223 -0.02755177 -0.06005527
v -0.06342258 -0.00144791 -0.02999553
v -0.06343579 -0.00000000 -0.02992077
v -0.05904666 0.00336202 -0.02479689
v -0.05904589 0.00344724 -0.02397351
v -0.05158088 -0.03136470 -0.06630962
v -0.05176618 -0.03058945 -0.06608656
v -0.05762483 -0.02709823 -0.06287591
v -0.06340938 0.00289582 -0.03007028
v -0.05895521 0.00668726 -0.02531557
v -0.05895215 0.00685673 -0.02450540
v -0.05102127 -0.03012763 -0.06948339
v -0.05122043 -0.02938294 -0.06918176
v -0.05713845 -0.02634765 -0.06563433
v -0.06333059 0.00575989 -0.03051694
v -0.05880396 0.00993916 -0.02617364
v -0.05879697 0.01019103 -0.02538519
v -0.05048720 -0.02856044 -0.07251235
v -0.05069957 -0.02785460 -0.07213596
v -0.05666843 -0.02530853 -0.06830033
v -0.06320029 0.00856087 -0.03125606
v -0.05859443 0.01308216 -0.02736183
v -0.05858221 0.01341369 -0.02660350
v -0.04998445 -0.02668038 -0.07536342
v -0.05020925 -0.02602092 -0.07491654
v -0.05621970 -0.02399201 -0.07084487
v -0.06301979 0.01126801 -0.03227947
v -0.05832903 0.01608187 -0.02886703
v -0.05831004 0.01648946 -0.02814690
v -0.04951858 -0.02450808 -0.07800530
v -0.04975484 -0.02390220 -0.07749317
v -0.05579748 -0.02241271 -0.07323990
v -0.06279128 0.01385184 -0.03357602
v -0.05801060 0.01890534 -0.03067277
v -0.05798353 0.01938452 -0.02999836
v -0.04909473 -0.02206710 -0.08040918
v -0.04934158 -0.02152168 -0.07983756
v -0.05540615 -0.02058776 -0.07545913
v -0.06251704 0.01628375 -0.03513131
v -0.05764273 0.02152168 -0.03275930
v -0.05760628 0.02206710 -0.03213771
v -0.04871758 -0.01938441 -0.08254852
v -0.04897360 -0.01890534 -0.08192398
v -0.05505006 -0.01853736 -0.07747843
v -0.06220013 0.01853736 -0.03692854
v -0.05722935 0.02390231 -0.03510370
v -0.05718242 0.02450808 -0.03454158
v -0.04839107 -0.01648935 -0.08440010
v -0.04865516 -0.01608187 -0.08372972
v -0.05473315 -0.01628375 -0.07927566
v -0.06184405 0.02058776 -0.03894784
v -0.05677494 0.02602092 -0.03768032
v -0.05671667 0.02668038 -0.03718346
v -0.04811891 -0.01341369 -0.08594338
v -0.04838976 -0.01308216 -0.08523493
v -0.05445892 -0.01385173 -0.08083096
v -0.06145271 0.02241271 -0.04116707
v -0.05628474 0.02785460 -0.04046090
v -0.05621391 0.02856055 -0.04003454
v -0.04790414 -0.01019103 -0.08716169
v -0.04818034 -0.00993916 -0.08642311
v -0.05423029 -0.01126801 -0.08212751
v -0.06103039 0.02399201 -0.04356210
v -0.05576376 0.02938294 -0.04341500
v -0.05567984 0.03012763 -0.04306350
v -0.04774896 -0.00685662 -0.08804148
v -0.04802898 -0.00668715 -0.08728129
v -0.05404980 -0.00856087 -0.08315091
v -0.06058176 0.02530853 -0.04610664
v -0.05521801 0.03058945 -0.04651030
v -0.05512023 0.03136470 -0.04623727
v -0.04765522 -0.00344724 -0.08857337
v -0.04793754 -0.00336202 -0.08779987
v -0.05391950 -0.00575989 -0.08389003
v -0.06011164 0.02634765 -0.04877264
v -0.05465327 0.03146084 -0.04971278
v -0.05454120 0.03225813 -0.04952093
v -0.04762379 -0.00000000 -0.08875125
v -0.04790698 -0.00000000 -0.08797338
v -0.05384071 -0.00289582 -0.08433669
v -0.05962525 0.02709823 -0.05153107
v -0.05407588 0.03198749 -0.05298749
v -0.05394918 0.03279821 -0.05287858
v -0.04793754 0.00336202 -0.08779987
v -0.04765522 0.00344724 -0.08857337
v -0.05381441 -0.00000000 -0.08448620
v -0.05912796 0.02755177 -0.05435170
v -0.05349215 0.03216363 -0.05629843
v -0.05335050 0.03297881 -0.05627344
v -0.04802898 0.00668726 -0.08728129
v -0.04774896 0.00685673 -0.08804148
v -0.05384071 0.00289582 -0.08433669
v -0.05862510 0.02770356 -0.05720343
v -0.05275194 0.03279821 -0.05966831
v -0.05290832 0.03198749 -0.05960938
v -0.04818034 0.00993916 -0.08642311
v -0.04790414 0.01019103 -0.08716169
v -0.05391950 0.00575989 -0.08389003
v -0.05812223 0.02755177 -0.06005527
v -0.05215992 0.03225813 -0.06302596
v -0.05233092 0.03146084 -0.06288398
v -0.04838976 0.01308216 -0.08523493
v -0.04811891 0.01341369 -0.08594338
v -0.05404980 0.00856087 -0.08315091
v -0.05762483 0.02709823 -0.06287591
v -0.05158088 0.03136470 -0.06630962
v -0.05176618 0.03058945 -0.06608656
v -0.04865516 0.01608187 -0.08372972
v -0.04839107 0.01648946 -0.08440010
v -0.05423029 0.01126801 -0.08212751
v -0.05713845 0.02634765 -0.06563433
v -0.05102127 0.03012763 -0.06948339
v -0.05122043 0.02938294 -0.06918176
v -0.04897360 0.01890534 -0.08192398
v -0.04871758 0.01938452 -0.08254852
v -0.05445892 0.01385184 -0.08083096
v -0.05666843 0.02530853 -0.06830033
v -0.05048720 0.02856055 -0.07251235
v -0.05069957 0.02785460 -0.07213596
v -0.04934158 0.02152168 -0.07983756
v -0.04909473 0.02206710 -0.08040918
v -0.05473315 0.01628375 -0.07927566
v -0.05621970 0.02399201 -0.07084487
v -0.04998445 0.02668038 -0.07536342
v -0.05020925 0.02602092 -0.07491654
v -0.04975484 0.02390231 -0.07749317
v -0.04951858 0.02450808 -0.07800530
v -0.05505006 0.01853736 -0.07747843
v -0.05579748 0.02241271 -0.07323990
v -0.05540615 0.02058776 -0.07545913
v -0.05420912 -0.03136470 -0.04607663
v -0.05476873 -0.03012763 -0.04290286
v -0.05363009 -0.03225813 -0.04936029
v -0.05124881 -0.03225813 -0.06286532
v -0.05243950 -0.03242826 -0.05611281
v -0.05184094 -0.03279821 -0.05950767
v -0.05185087 -0.03225060 -0.05945103
v -0.05066988 -0.03136470 -0.06614898
v -0.05126867 -0.03171958 -0.06275259
v -0.05069935 -0.03084110 -0.06598147
v -0.05011027 -0.03012763 -0.06932275
v -0.05014912 -0.02962465 -0.06910220
v -0.04957609 -0.02856044 -0.07235171
v -0.04962389 -0.02808366 -0.07208063
v -0.04907345 -0.02668038 -0.07520279
v -0.04912965 -0.02623503 -0.07488402
v -0.04860758 -0.02450808 -0.07784467
v -0.04867153 -0.02409885 -0.07748193
v -0.04818373 -0.02206710 -0.08024854
v -0.04825477 -0.02169869 -0.07984553
v -0.04780647 -0.01938441 -0.08238788
v -0.04788384 -0.01906084 -0.08194919
v -0.04747996 -0.01648935 -0.08423935
v -0.04756279 -0.01621413 -0.08376977
v -0.04720791 -0.01341369 -0.08578275
v -0.04729521 -0.01318976 -0.08528742
v -0.04699303 -0.01019103 -0.08700105
v -0.04708394 -0.01002090 -0.08648531
v -0.04683796 -0.00685662 -0.08788084
v -0.04693148 -0.00674226 -0.08735048
v -0.04674411 -0.00344724 -0.08841262
v -0.04683927 -0.00338963 -0.08787342
v -0.04671279 -0.00000000 -0.08859061
v -0.04680839 -0.00000000 -0.08804835
v -0.04683927 0.00338973 -0.08787342
v -0.04674411 0.00344724 -0.08841262
v -0.04693148 0.00674226 -0.08735048
v -0.04683796 0.00685673 -0.08788084
v -0.04708394 0.01002090 -0.08648531
v -0.04699303 0.01019103 -0.08700105
v -0.04729521 0.01318976 -0.08528742
v -0.04720791 0.01341369 -0.08578275
v -0.04756279 0.01621413 -0.08376977
v -0.04747996 0.01648946 -0.08423935
v -0.04788384 0.01906084 -0.08194919
v -0.04780647 0.01938452 -0.08238788
v -0.04825477 0.02169869 -0.07984553
v -0.04818373 0.02206710 -0.08024854
v -0.04867153 0.02409885 -0.07748193
v -0.04860758 0.02450808 -0.07784467
v -0.04912965 0.02623503 -0.07488402
v -0.04907345 0.02668038 -0.07520279
v -0.04962389 0.02808366 -0.07208063
v -0.04957609 0.02856055 -0.07235171
v -0.05014912 0.02962465 -0.06910220
v -0.05011027 0.03012763 -0.06932275
v -0.05069935 0.03084110 -0.06598147
v -0.05066988 0.03136470 -0.06614898
v -0.05126867 0.03171958 -0.06275259
v -0.05124881 0.03225813 -0.06286532
v -0.05185087 0.03225060 -0.05945103
v -0.05243950 0.03242826 -0.05611281
v -0.05184094 0.03279821 -0.05950767
v -0.05303807 -0.03279821 -0.05271794
v -0.05243950 -0.03297881 -0.05611281
v -0.05302814 -0.03225060 -0.05277458
v -0.05361023 -0.03171958 -0.04947302
v -0.05417966 -0.03084110 -0.04624414
v -0.05472988 -0.02962465 -0.04312341
v -0.05530280 -0.02856044 -0.03987390
v -0.05525500 -0.02808366 -0.04014498
v -0.05580556 -0.02668038 -0.03702282
v -0.05574935 -0.02623503 -0.03734159
v -0.05627142 -0.02450808 -0.03438094
v -0.05620747 -0.02409885 -0.03474369
v -0.05669528 -0.02206710 -0.03197707
v -0.05662423 -0.02169869 -0.03238008
v -0.05707253 -0.01938441 -0.02983773
v -0.05699516 -0.01906084 -0.03027642
v -0.05739893 -0.01648935 -0.02798626
v -0.05731621 -0.01621413 -0.02845573
v -0.05767110 -0.01341369 -0.02644286
v -0.05758380 -0.01318976 -0.02693820
v -0.05788597 -0.01019103 -0.02522456
v -0.05779496 -0.01002090 -0.02574030
v -0.05804104 -0.00685662 -0.02434477
v -0.05794752 -0.00674226 -0.02487513
v -0.05813478 -0.00344724 -0.02381288
v -0.05803973 -0.00338963 -0.02435219
v -0.05815050 -0.00172357 -0.02372394
v -0.05805523 -0.00169487 -0.02426467
v -0.05816621 -0.00000000 -0.02363500
v -0.05807062 -0.00000000 -0.02417726
v -0.05813478 0.00344724 -0.02381288
v -0.05803973 0.00338973 -0.02435219
v -0.05794752 0.00674226 -0.02487513
v -0.05804104 0.00685673 -0.02434477
v -0.05779496 0.01002090 -0.02574030
v -0.05788597 0.01019103 -0.02522456
v -0.05758380 0.01318976 -0.02693820
v -0.05767110 0.01341369 -0.02644286
v -0.05731621 0.01621413 -0.02845573
v -0.05739893 0.01648946 -0.02798626
v -0.05699516 0.01906084 -0.03027642
v -0.05707253 0.01938452 -0.02983773
v -0.05662423 0.02169869 -0.03238008
v -0.05669528 0.02206710 -0.03197707
v -0.05620747 0.02409885 -0.03474369
v -0.05627142 0.02450808 -0.03438094
v -0.05574935 0.02623503 -0.03734159
v -0.05580556 0.02668038 -0.03702282
v -0.05525500 0.02808366 -0.04014498
v -0.05530280 0.02856055 -0.03987390
v -0.05472988 0.02962465 -0.04312341
v -0.05476873 0.03012763 -0.04290286
v -0.05417966 0.03084110 -0.04624414
v -0.05420912 0.03136470 -0.04607663
v -0.05361023 0.03171958 -0.04947302
v -0.05363009 0.03225813 -0.04936029
v -0.05302814 0.03225060 -0.05277458
v -0.05303807 0.03279821 -0.05271794
v -0.05243950 0.03297881 -0.05611281
v -0.05862510 -0.02118011 -0.05720343
v -0.05824064 -0.02106411 -0.05938381
v -0.05786044 -0.02071730 -0.06154018
v -0.05748853 -0.02014350 -0.06364908
v -0.05712917 -0.01934894 -0.06568737
v -0.05678607 -0.01834256 -0.06763269
v -0.05646327 -0.01713506 -0.06946374
v -0.05616404 -0.01573986 -0.07116047
v -0.05589188 -0.01417224 -0.07270430
v -0.05564961 -0.01244932 -0.07407822
v -0.05543998 -0.01059000 -0.07526728
v -0.05526515 -0.00861467 -0.07625849
v -0.05512722 -0.00654495 -0.07704094
v -0.05502758 -0.00440353 -0.07760600
v -0.05496734 -0.00221388 -0.07794757
v -0.05494715 -0.00000000 -0.07806183
v -0.05496734 0.00221388 -0.07794757
v -0.05502758 0.00440364 -0.07760600
v -0.05512722 0.00654506 -0.07704094
v -0.05526515 0.00861478 -0.07625849
v -0.05543998 0.01059011 -0.07526728
v -0.05564961 0.01244932 -0.07407822
v -0.05589188 0.01417224 -0.07270430
v -0.05616404 0.01573986 -0.07116047
v -0.05646327 0.01713506 -0.06946374
v -0.05678607 0.01834256 -0.06763269
v -0.05712917 0.01934905 -0.06568737
v -0.05748853 0.02014350 -0.06364908
v -0.05786044 0.02071730 -0.06154018
v -0.05824064 0.02106411 -0.05938381
v -0.05862510 0.02118011 -0.05720343
v -0.05900955 -0.02106411 -0.05502316
v -0.05938976 -0.02071730 -0.05286679
v -0.05976156 -0.02014350 -0.05075789
v -0.06012102 -0.01934894 -0.04871960
v -0.06046401 -0.01834256 -0.04677429
v -0.06078692 -0.01713506 -0.04494323
v -0.06108604 -0.01573986 -0.04324650
v -0.06135832 -0.01417224 -0.04170267
v -0.06160058 -0.01244932 -0.04032875
v -0.06181022 -0.01059000 -0.03913969
v -0.06198504 -0.00861467 -0.03814848
v -0.06212298 -0.00654495 -0.03736603
v -0.06222261 -0.00440353 -0.03680097
v -0.06228285 -0.00221388 -0.03645940
v -0.06230293 -0.00000000 -0.03634514
v -0.06228285 0.00221388 -0.03645940
v -0.06222261 0.00440364 -0.03680097
v -0.06212298 0.00654506 -0.03736603
v -0.06198504 0.00861478 -0.03814848
v -0.06181022 0.01059011 -0.03913969
v -0.06160058 0.01244932 -0.04032875
v -0.06135832 0.01417224 -0.04170267
v -0.06108604 0.01573986 -0.04324650
v -0.06078692 0.01713506 -0.04494323
v -0.06046401 0.01834256 -0.04677429
v -0.06012102 0.01934905 -0.04871960
v -0.05976156 0.02014350 -0.05075789
v -0.05938976 0.02071730 -0.05286679
v -0.05900955 0.02106411 -0.05502316
v -0.06611663 -0.00506158 -0.03434417
v -0.06618592 -0.00254476 -0.03395153
v -0.06861009 -0.00506158 -0.03478384
v -0.06867928 -0.00254476 -0.03439120
v -0.06600215 -0.00752296 -0.03499370
v -0.06620906 -0.00000000 -0.03382024
v -0.06849551 -0.00752296 -0.03543327
v -0.06870241 -0.00000000 -0.03425992
v -0.06584359 -0.00990195 -0.03589302
v -0.06618592 0.00254476 -0.03395153
v -0.06833694 -0.00990195 -0.03633270
v -0.06867928 0.00254476 -0.03439120
v -0.06564268 -0.01217247 -0.03703232
v -0.06611663 0.00506158 -0.03434417
v -0.06813604 -0.01217247 -0.03747189
v -0.06861009 0.00506158 -0.03478384
v -0.06540162 -0.01430963 -0.03839904
v -0.06600215 0.00752296 -0.03499370
v -0.06789508 -0.01430963 -0.03883871
v -0.06849551 0.00752296 -0.03543327
v -0.06512323 -0.01628997 -0.03997834
v -0.06584359 0.00990195 -0.03589302
v -0.06761659 -0.01628997 -0.04041801
v -0.06833694 0.00990195 -0.03633270
v -0.06481036 -0.01809179 -0.04175287
v -0.06564268 0.01217247 -0.03703232
v -0.06730372 -0.01809179 -0.04219255
v -0.06813604 0.01217247 -0.03747189
v -0.06446639 -0.01969542 -0.04370310
v -0.06540162 0.01430963 -0.03839904
v -0.06695986 -0.01969542 -0.04414277
v -0.06789508 0.01430963 -0.03883871
v -0.06409536 -0.02108331 -0.04580774
v -0.06512323 0.01628997 -0.03997834
v -0.06658871 -0.02108331 -0.04624742
v -0.06761659 0.01628997 -0.04041801
v -0.06370108 -0.02224018 -0.04804377
v -0.06481036 0.01809179 -0.04175287
v -0.06619443 -0.02224018 -0.04848345
v -0.06730372 0.01809179 -0.04219255
v -0.06328792 -0.02315347 -0.05038664
v -0.06446639 0.01969553 -0.04370310
v -0.06578138 -0.02315347 -0.05082632
v -0.06695986 0.01969553 -0.04414277
v -0.06286046 -0.02381293 -0.05281059
v -0.06409536 0.02108331 -0.04580774
v -0.06535393 -0.02381293 -0.05325027
v -0.06658871 0.02108331 -0.04624742
v -0.06242351 -0.02421158 -0.05528922
v -0.06370108 0.02224018 -0.04804377
v -0.06491687 -0.02421158 -0.05572889
v -0.06619443 0.02224018 -0.04848345
v -0.06198155 -0.02434493 -0.05779534
v -0.06328792 0.02315347 -0.05038664
v -0.06447501 -0.02434493 -0.05823502
v -0.06578138 0.02315347 -0.05082632
v -0.06153969 -0.02421158 -0.06030136
v -0.06286046 0.02381293 -0.05281059
v -0.06403315 -0.02421158 -0.06074103
v -0.06535393 0.02381293 -0.05325027
v -0.06110263 -0.02381293 -0.06277998
v -0.06242351 0.02421158 -0.05528922
v -0.06359610 -0.02381293 -0.06321966
v -0.06491687 0.02421158 -0.05572889
v -0.06067518 -0.02315347 -0.06520404
v -0.06198155 0.02434493 -0.05779534
v -0.06316864 -0.02315347 -0.06564372
v -0.06447501 0.02434493 -0.05823502
v -0.06026213 -0.02224018 -0.06754691
v -0.06153969 0.02421158 -0.06030136
v -0.06275548 -0.02224018 -0.06798659
v -0.06403315 0.02421158 -0.06074103
v -0.05986785 -0.02108331 -0.06978284
v -0.06110263 0.02381293 -0.06277998
v -0.06236131 -0.02108331 -0.07022251
v -0.06359610 0.02381293 -0.06321966
v -0.05949670 -0.01969542 -0.07188759
v -0.06067518 0.02315347 -0.06520404
v -0.06199017 -0.01969542 -0.07232715
v -0.06316864 0.02315347 -0.06564372
v -0.05915284 -0.01809179 -0.07383781
v -0.06026213 0.02224018 -0.06754691
v -0.06164631 -0.01809179 -0.07427749
v -0.06275548 0.02224018 -0.06798659
v -0.05883997 -0.01628997 -0.07561234
v -0.05986785 0.02108331 -0.06978284
v -0.06133344 -0.01628997 -0.07605191
v -0.06236131 0.02108331 -0.07022251
v -0.05856147 -0.01430963 -0.07719165
v -0.05949670 0.01969553 -0.07188759
v -0.06105494 -0.01430963 -0.07763121
v -0.06199017 0.01969553 -0.07232715
v -0.05832052 -0.01217247 -0.07855836
v -0.05915284 0.01809179 -0.07383781
v -0.06081388 -0.01217247 -0.07899804
v -0.06164631 0.01809179 -0.07427749
v -0.05811962 -0.00990195 -0.07969766
v -0.05883997 0.01628997 -0.07561234
v -0.06061297 -0.00990195 -0.08013734
v -0.06133344 0.01628997 -0.07605191
v -0.05796105 -0.00752296 -0.08059698
v -0.05856147 0.01430963 -0.07719165
v -0.06045441 -0.00752296 -0.08103666
v -0.06105494 0.01430963 -0.07763121
v -0.05784647 -0.00506158 -0.08124651
v -0.05832052 0.01217247 -0.07855836
v -0.06033993 -0.00506158 -0.08168619
v -0.06081388 0.01217247 -0.07899804
v -0.05777728 -0.00254476 -0.08163905
v -0.05811962 0.00990195 -0.07969766
v -0.06027064 -0.00254476 -0.08207872
v -0.06061297 0.00990195 -0.08013734
v -0.05775415 -0.00000000 -0.08177044
v -0.05796105 0.00752296 -0.08059698
v -0.06024750 -0.00000000 -0.08221012
v -0.06045441 0.00752296 -0.08103666
v -0.05777728 0.00254476 -0.08163905
v -0.05784647 0.00506158 -0.08124651
v -0.06027064 0.00254476 -0.08207872
v -0.06033993 0.00506158 -0.08168619
v -0.06447501 -0.00357820 -0.05823502
v -0.06532316 -0.00354873 -0.05342476
v -0.06525408 -0.00403992 -0.05381642
v -0.06463576 -0.00345619 -0.05732293
v -0.06538296 -0.00301881 -0.05308570
v -0.06478570 -0.00309880 -0.05647304
v -0.06491436 -0.00253013 -0.05574330
v -0.06543272 -0.00245571 -0.05280317
v -0.06501312 -0.00178904 -0.05518325
v -0.06547212 -0.00186565 -0.05258011
v -0.06550049 -0.00125530 -0.05241904
v -0.06507522 -0.00092606 -0.05483121
v -0.06551762 -0.00063109 -0.05232170
v -0.06509628 -0.00000000 -0.05471117
v -0.06552341 -0.00000000 -0.05228918
v -0.06507522 0.00092606 -0.05483121
v -0.06551762 0.00063109 -0.05232170
v -0.06550049 0.00125530 -0.05241904
v -0.06501312 0.00178904 -0.05518325
v -0.06547212 0.00186576 -0.05258011
v -0.06491436 0.00253013 -0.05574330
v -0.06543272 0.00245571 -0.05280317
v -0.06538296 0.00301881 -0.05308570
v -0.06478570 0.00309880 -0.05647304
v -0.06535306 0.00328377 -0.05325518
v -0.06463576 0.00345630 -0.05732293
v -0.06647238 0.00328377 -0.04690742
v -0.06436545 -0.00600444 -0.05885650
v -0.06458458 -0.00600444 -0.05761353
v -0.06447501 -0.00603751 -0.05823502
v -0.06425697 -0.00590557 -0.05947122
v -0.06469294 -0.00590557 -0.05699882
v -0.06415101 -0.00574199 -0.06007230
v -0.06479901 -0.00574199 -0.05639763
v -0.06404854 -0.00551555 -0.06065340
v -0.06490138 -0.00551555 -0.05581663
v -0.06395076 -0.00522865 -0.06120788
v -0.06499915 -0.00522865 -0.05526204
v -0.06385877 -0.00488446 -0.06172984
v -0.06509126 -0.00488446 -0.05474008
v -0.06377343 -0.00448680 -0.06221350
v -0.06517649 -0.00448680 -0.05425643
v -0.06369584 -0.00403992 -0.06265361
v -0.06362687 -0.00354873 -0.06304527
v -0.06431416 -0.00345619 -0.05914700
v -0.06356707 -0.00301881 -0.06338422
v -0.06416432 -0.00309880 -0.05999689
v -0.06403566 -0.00253013 -0.06072674
v -0.06351720 -0.00245571 -0.06366676
v -0.06393690 -0.00178904 -0.06128667
v -0.06347791 -0.00186565 -0.06388981
v -0.06344954 -0.00125530 -0.06405089
v -0.06387481 -0.00092606 -0.06163872
v -0.06343229 -0.00063109 -0.06414823
v -0.06385364 -0.00000000 -0.06175876
v -0.06342662 -0.00000000 -0.06418075
v -0.06343229 0.00063109 -0.06414823
v -0.06387481 0.00092606 -0.06163872
v -0.06344954 0.00125530 -0.06405089
v -0.06393690 0.00178904 -0.06128667
v -0.06347791 0.00186576 -0.06388981
v -0.06403566 0.00253013 -0.06072674
v -0.06351720 0.00245571 -0.06366676
v -0.06356707 0.00301881 -0.06338422
v -0.06416432 0.00309880 -0.05999689
v -0.06362687 0.00354873 -0.06304527
v -0.06431416 0.00345630 -0.05914700
v -0.06447501 0.00357820 -0.05823502
v -0.06369584 0.00403992 -0.06265361
v -0.06434439 -0.01195410 -0.05897567
v -0.06408521 -0.01176553 -0.06044530
v -0.06383225 -0.01139144 -0.06188011
v -0.06358944 -0.01083772 -0.06325742
v -0.06336049 -0.01011311 -0.06455549
v -0.06314922 -0.00922896 -0.06575383
v -0.06295879 -0.00819933 -0.06683376
v -0.06279226 -0.00704028 -0.06777794
v -0.06265236 -0.00577025 -0.06857173
v -0.06254115 -0.00440932 -0.06920238
v -0.06246040 -0.00297876 -0.06966018
v -0.06241151 -0.00150116 -0.06993769
v -0.06239503 -0.00000000 -0.07003077
v -0.06241151 0.00150116 -0.06993769
v -0.06246040 0.00297876 -0.06966018
v -0.06254115 0.00440932 -0.06920238
v -0.06265236 0.00577036 -0.06857173
v -0.06279226 0.00704028 -0.06777794
v -0.06295879 0.00819933 -0.06683376
v -0.06314922 0.00922896 -0.06575383
v -0.06336049 0.01011311 -0.06455549
v -0.06358944 0.01083772 -0.06325742
v -0.06383225 0.01139155 -0.06188011
v -0.06408521 0.01176553 -0.06044530
v -0.06434439 0.01195410 -0.05897567
v -0.06460564 0.01195410 -0.05749437
v -0.06460564 -0.01195410 -0.05749437
v -0.06486471 -0.01176553 -0.05602474
v -0.06511778 -0.01139144 -0.05458992
v -0.06536059 -0.01083772 -0.05321262
v -0.06558943 -0.01011311 -0.05191454
v -0.06580081 -0.00922896 -0.05071610
v -0.06599113 -0.00819933 -0.04963628
v -0.06615766 -0.00704028 -0.04869199
v -0.06629767 -0.00577025 -0.04789830
v -0.06640887 -0.00440932 -0.04726754
v -0.06648952 -0.00297876 -0.04680986
v -0.06653851 -0.00150116 -0.04653224
v -0.06655488 -0.00000000 -0.04643926
v -0.06653851 0.00150116 -0.04653224
v -0.06648952 0.00297876 -0.04680986
v -0.06377343 0.00448680 -0.06221350
v -0.06385877 0.00488446 -0.06172984
v -0.06395076 0.00522865 -0.06120788
v -0.06626820 0.00603751 -0.04806527
v -0.06404854 0.00551555 -0.06065340
v -0.06415101 0.00574210 -0.06007230
v -0.06425697 0.00590557 -0.05947122
v -0.06436545 0.00600444 -0.05885650
v -0.06447501 0.00603751 -0.05823502
v -0.06615766 0.00704028 -0.04869199
v -0.06599113 0.00819933 -0.04963628
v -0.06580081 0.00922896 -0.05071610
v -0.06558943 0.01011311 -0.05191454
v -0.06536059 0.01083772 -0.05321262
v -0.06511778 0.01139155 -0.05458992
v -0.06486471 0.01176553 -0.05602474
v -0.06333201 -0.00000000 -0.03331291
v -0.06330887 0.00254476 -0.03344430
v -0.06323968 0.00506158 -0.03383683
v -0.06330887 -0.00254476 -0.03344430
v -0.06312510 0.00752296 -0.03448636
v -0.06323968 -0.00506158 -0.03383683
v -0.06296654 0.00990195 -0.03538569
v -0.06312510 -0.00752296 -0.03448636
v -0.06276563 0.01217247 -0.03652498
v -0.06296654 -0.00990195 -0.03538569
v -0.06252468 0.01430963 -0.03789181
v -0.06276563 -0.01217247 -0.03652498
v -0.06224618 0.01628997 -0.03947111
v -0.06252468 -0.01430963 -0.03789181
v -0.06193331 0.01809179 -0.04124553
v -0.06224618 -0.01628997 -0.03947111
v -0.06158945 0.01969553 -0.04319587
v -0.06193331 -0.01809179 -0.04124553
v -0.06121831 0.02108331 -0.04530051
v -0.06158945 -0.01969542 -0.04319587
v -0.06082403 0.02224018 -0.04753644
v -0.06121831 -0.02108331 -0.04530051
v -0.06041098 0.02315347 -0.04987930
v -0.06082403 -0.02224018 -0.04753644
v -0.05998352 0.02381293 -0.05230336
v -0.06041098 -0.02315347 -0.04987930
v -0.05954646 0.02421158 -0.05478199
v -0.05998352 -0.02381293 -0.05230336
v -0.05910460 0.02434493 -0.05728801
v -0.05954646 -0.02421158 -0.05478199
v -0.05866264 0.02421158 -0.05979413
v -0.05910460 -0.02434493 -0.05728801
v -0.05822569 0.02381293 -0.06227275
v -0.05866264 -0.02421158 -0.05979413
v -0.05779823 0.02315347 -0.06469671
v -0.05822569 -0.02381293 -0.06227275
v -0.05738507 0.02224018 -0.06703958
v -0.05779823 -0.02315347 -0.06469671
v -0.05699080 0.02108331 -0.06927561
v -0.05738507 -0.02224018 -0.06703958
v -0.05661976 0.01969553 -0.07138025
v -0.05699080 -0.02108331 -0.06927561
v -0.05627590 0.01809179 -0.07333048
v -0.05661976 -0.01969542 -0.07138025
v -0.05596292 0.01628997 -0.07510501
v -0.05627590 -0.01809179 -0.07333048
v -0.05568453 0.01430963 -0.07668431
v -0.05596292 -0.01628997 -0.07510501
v -0.05544347 0.01217247 -0.07805103
v -0.05568453 -0.01430963 -0.07668431
v -0.05524256 0.00990195 -0.07919032
v -0.05544347 -0.01217247 -0.07805103
v -0.05508400 0.00752296 -0.08008976
v -0.05524256 -0.00990195 -0.07919032
v -0.05496953 0.00506158 -0.08073918
v -0.05508400 -0.00752296 -0.08008976
v -0.05490023 0.00254476 -0.08113182
v -0.05496953 -0.00506158 -0.08073918
v -0.05487709 -0.00000000 -0.08126310
v -0.05490023 -0.00254476 -0.08113182
v -0.04817063 0.02623503 -0.07471498
v -0.04866498 0.02808366 -0.07191149
v -0.04919011 0.02962465 -0.06893306
v -0.04771251 0.02409885 -0.07731278
v -0.04974033 0.03084110 -0.06581232
v -0.04729575 0.02169869 -0.07967649
v -0.05030976 0.03171958 -0.06258344
v -0.04692483 0.01906084 -0.08178015
v -0.05089185 0.03225060 -0.05928188
v -0.04660377 0.01621413 -0.08360073
v -0.05148049 0.03242826 -0.05594366
v -0.04633619 0.01318976 -0.08511827
v -0.05206912 0.03225060 -0.05260554
v -0.04612503 0.01002090 -0.08631627
v -0.05265121 0.03171958 -0.04930387
v -0.04597247 0.00674226 -0.08718144
v -0.05322064 0.03084110 -0.04607510
v -0.04588025 0.00338973 -0.08770438
v -0.05377086 0.02962465 -0.04295437
v -0.04584937 -0.00000000 -0.08787932
v -0.05429599 0.02808366 -0.03997594
v -0.04588025 -0.00338963 -0.08770438
v -0.05479034 0.02623503 -0.03717244
v -0.04597247 -0.00674226 -0.08718144
v -0.05524846 0.02409885 -0.03457465
v -0.04612503 -0.01002090 -0.08631627
v -0.05566522 0.02169869 -0.03221093
v -0.04633619 -0.01318976 -0.08511827
v -0.05603614 0.01906084 -0.03010727
v -0.04660377 -0.01621413 -0.08360073
v -0.05635720 0.01621413 -0.02828669
v -0.04692483 -0.01906084 -0.08178015
v -0.05662478 0.01318976 -0.02676905
v -0.04729575 -0.02169869 -0.07967649
v -0.05683594 0.01002090 -0.02557115
v -0.04771251 -0.02409885 -0.07731278
v -0.05698850 0.00674226 -0.02470598
v -0.04817063 -0.02623503 -0.07471498
v -0.05708072 0.00338973 -0.02418304
v -0.04866498 -0.02808366 -0.07191149
v -0.05711160 -0.00000000 -0.02400811
v -0.04919011 -0.02962465 -0.06893306
v -0.05709621 -0.00169487 -0.02409563
v -0.04974033 -0.03084110 -0.06581232
v -0.05708072 -0.00338963 -0.02418304
v -0.05030976 -0.03171958 -0.06258344
v -0.05698850 -0.00674226 -0.02470598
v -0.05089185 -0.03225060 -0.05928188
v -0.05683594 -0.01002090 -0.02557115
v -0.05148049 -0.03242826 -0.05594366
v -0.05662478 -0.01318976 -0.02676905
v -0.05206912 -0.03225060 -0.05260554
v -0.05635720 -0.01621413 -0.02828669
v -0.05265121 -0.03171958 -0.04930387
v -0.05603614 -0.01906084 -0.03010727
v -0.05322064 -0.03084110 -0.04607510
v -0.05566522 -0.02169869 -0.03221093
v -0.05377086 -0.02962465 -0.04295437
v -0.05524846 -0.02409885 -0.03457465
v -0.05429599 -0.02808366 -0.03997594
v -0.05479034 -0.02623503 -0.03717244
v -0.05267118 -0.03225813 -0.04919114
v -0.05207905 -0.03279821 -0.05254879
v -0.05325011 -0.03136470 -0.04590748
v -0.05380971 -0.03012763 -0.04273382
v -0.05434390 -0.02856044 -0.03970475
v -0.05484654 -0.02668038 -0.03685378
v -0.05531241 -0.02450808 -0.03421180
v -0.05573626 -0.02206710 -0.03180803
v -0.05611351 -0.01938441 -0.02966858
v -0.05643992 -0.01648935 -0.02781711
v -0.05671208 -0.01341369 -0.02627371
v -0.05692696 -0.01019103 -0.02505552
v -0.05708203 -0.00685662 -0.02417562
v -0.05717588 -0.00344724 -0.02364384
v -0.05719148 -0.00172357 -0.02355490
v -0.05720720 -0.00000000 -0.02346596
v -0.05717588 0.00344724 -0.02364384
v -0.05708203 0.00685673 -0.02417562
v -0.05692696 0.01019103 -0.02505552
v -0.05671208 0.01341369 -0.02627371
v -0.05643992 0.01648946 -0.02781711
v -0.05611351 0.01938452 -0.02966858
v -0.05573626 0.02206710 -0.03180803
v -0.05531241 0.02450808 -0.03421180
v -0.05484654 0.02668038 -0.03685378
v -0.05434390 0.02856055 -0.03970475
v -0.05380971 0.03012763 -0.04273382
v -0.05325011 0.03136470 -0.04590748
v -0.05267118 0.03225813 -0.04919114
v -0.05207905 0.03279821 -0.05254879
v -0.05088192 0.03279821 -0.05933852
v -0.05148049 0.03297881 -0.05594366
v -0.05088192 -0.03279821 -0.05933852
v -0.05148049 -0.03297881 -0.05594366
v -0.05028979 -0.03225813 -0.06269617
v -0.04971087 -0.03136470 -0.06597994
v -0.04915126 -0.03012763 -0.06915360
v -0.04861718 -0.02856044 -0.07218256
v -0.04811443 -0.02668038 -0.07503364
v -0.04764856 -0.02450808 -0.07767563
v -0.04722471 -0.02206710 -0.08007939
v -0.04684746 -0.01938441 -0.08221885
v -0.04652105 -0.01648935 -0.08407031
v -0.04624889 -0.01341369 -0.08561360
v -0.04603402 -0.01019103 -0.08683190
v -0.04587894 -0.00685662 -0.08771180
v -0.04578509 -0.00344724 -0.08824358
v -0.04575377 -0.00000000 -0.08842146
v -0.04578509 0.00344724 -0.08824358
v -0.04587894 0.00685673 -0.08771180
v -0.04603402 0.01019103 -0.08683190
v -0.04624889 0.01341369 -0.08561360
v -0.04652105 0.01648946 -0.08407031
v -0.04684746 0.01938452 -0.08221885
v -0.04722471 0.02206710 -0.08007939
v -0.04764856 0.02450808 -0.07767563
v -0.04811443 0.02668038 -0.07503364
v -0.04861718 0.02856055 -0.07218256
v -0.04915126 0.03012763 -0.06915360
v -0.04971087 0.03136470 -0.06597994
v -0.05028979 0.03225813 -0.06269617
f 1 2 3
f 2 1 4
f 4 5 2
f 5 4 6
f 7 3 8
f 3 7 1
f 9 4 1
f 4 9 10
f 6 11 5
f 11 6 12
f 10 6 4
f 6 10 13
f 14 8 15
f 8 14 7
f 16 1 7
f 1 16 9
f 12 17 11
f 17 12 18
f 13 12 6
f 12 13 19
f 20 15 21
f 15 20 14
f 22 7 14
f 7 22 16
f 18 23 17
f 23 18 24
f 19 18 12
f 18 19 25
f 26 21 27
f 21 26 20
f 22 20 28
f 20 22 14
f 24 29 23
f 29 24 30
f 25 24 18
f 24 25 31
f 32 27 33
f 27 32 26
f 28 26 34
f 26 28 20
f 30 35 29
f 35 30 36
f 31 30 24
f 30 31 37
f 38 33 39
f 33 38 32
f 34 32 40
f 32 34 26
f 36 41 35
f 41 36 42
f 37 36 30
f 36 37 43
f 44 38 39
f 38 44 45
f 40 38 46
f 38 40 32
f 42 47 41
f 47 42 48
f 47 48 49
f 49 48 50
f 43 42 36
f 42 43 51
f 52 45 44
f 45 52 53
f 46 45 54
f 45 46 38
f 51 48 42
f 48 51 55
f 48 55 50
f 50 55 56
f 57 49 50
f 49 57 58
f 59 53 52
f 53 59 60
f 61 45 53
f 45 61 54
f 56 57 50
f 57 56 62
f 63 58 57
f 58 63 64
f 65 60 59
f 60 65 66
f 67 53 60
f 53 67 61
f 68 57 62
f 57 68 63
f 69 64 63
f 64 69 70
f 71 66 65
f 66 71 72
f 73 60 66
f 60 73 67
f 74 63 68
f 63 74 69
f 75 70 69
f 70 75 76
f 77 72 71
f 72 77 78
f 79 66 72
f 66 79 73
f 80 69 74
f 69 80 75
f 81 76 75
f 76 81 82
f 83 78 77
f 78 83 84
f 85 72 78
f 72 85 79
f 86 75 80
f 75 86 81
f 87 82 81
f 82 87 88
f 89 84 83
f 84 89 90
f 91 78 84
f 78 91 85
f 92 81 86
f 81 92 87
f 93 88 87
f 88 93 94
f 95 90 89
f 90 95 96
f 84 97 91
f 97 84 90
f 98 87 92
f 87 98 93
f 99 94 93
f 94 99 100
f 101 96 95
f 96 101 102
f 90 103 97
f 103 90 96
f 104 93 98
f 93 104 99
f 105 100 99
f 100 105 106
f 107 102 101
f 102 107 108
f 96 109 103
f 109 96 102
f 110 99 104
f 99 110 105
f 111 106 105
f 106 111 112
f 113 108 107
f 108 113 114
f 102 115 109
f 115 102 108
f 116 105 110
f 105 116 111
f 117 112 111
f 112 117 118
f 119 114 113
f 114 119 120
f 108 121 115
f 121 108 114
f 122 111 116
f 111 122 117
f 123 118 117
f 118 123 124
f 125 120 119
f 120 125 126
f 114 127 121
f 127 114 120
f 123 122 128
f 122 123 117
f 129 124 123
f 124 129 130
f 131 126 125
f 126 131 132
f 120 133 127
f 133 120 126
f 129 128 134
f 128 129 123
f 135 130 129
f 130 135 136
f 131 137 132
f 137 131 138
f 126 139 133
f 139 126 132
f 135 134 140
f 134 135 129
f 141 136 135
f 136 141 142
f 138 143 137
f 143 138 144
f 139 137 145
f 137 139 132
f 141 140 146
f 140 141 135
f 147 141 148
f 141 147 142
f 144 149 143
f 149 144 150
f 145 143 151
f 143 145 137
f 148 146 152
f 146 148 141
f 153 148 154
f 148 153 147
f 150 155 149
f 155 150 156
f 151 149 157
f 149 151 143
f 148 158 154
f 158 148 152
f 159 154 160
f 154 159 153
f 156 161 155
f 161 156 162
f 157 155 163
f 155 157 149
f 154 164 160
f 164 154 158
f 165 160 166
f 160 165 159
f 162 167 161
f 167 162 168
f 163 161 169
f 161 163 155
f 160 170 166
f 170 160 164
f 171 166 172
f 166 171 165
f 168 173 167
f 173 168 174
f 169 167 175
f 167 169 161
f 166 176 172
f 176 166 170
f 177 172 178
f 172 177 171
f 174 179 173
f 179 174 180
f 175 173 181
f 173 175 167
f 172 182 178
f 182 172 176
f 180 178 179
f 178 180 177
f 181 179 183
f 179 181 173
f 178 183 179
f 183 178 182
f 184 15 21
f 15 184 185
f 15 28 21
f 28 15 22
f 186 21 27
f 21 186 184
f 187 188 189
f 188 187 190
f 190 187 191
f 190 191 192
f 192 191 193
f 193 191 194
f 193 194 195
f 195 194 196
f 195 196 197
f 197 196 198
f 197 198 199
f 199 198 200
f 199 200 201
f 201 200 202
f 201 202 203
f 203 202 204
f 203 204 205
f 205 204 206
f 205 206 207
f 207 206 208
f 207 208 209
f 209 208 210
f 209 210 211
f 211 210 212
f 211 212 213
f 213 212 214
f 213 214 215
f 215 214 216
f 215 216 217
f 217 216 218
f 218 216 219
f 218 219 220
f 220 219 221
f 220 221 222
f 222 221 223
f 222 223 224
f 224 223 225
f 224 225 226
f 226 225 227
f 226 227 228
f 228 227 229
f 228 229 230
f 230 229 231
f 230 231 232
f 232 231 233
f 232 233 234
f 234 233 235
f 234 235 236
f 236 235 237
f 236 237 238
f 238 237 239
f 238 239 240
f 240 239 241
f 240 241 242
f 242 241 243
f 242 243 244
f 244 243 245
f 245 243 246
f 189 247 248
f 247 189 186
f 186 189 188
f 186 188 249
f 186 249 184
f 184 249 250
f 184 250 251
f 184 251 185
f 185 251 252
f 185 252 253
f 253 252 254
f 253 254 255
f 255 254 256
f 255 256 257
f 257 256 258
f 257 258 259
f 259 258 260
f 259 260 261
f 261 260 262
f 261 262 263
f 263 262 264
f 263 264 265
f 265 264 266
f 265 266 267
f 267 266 268
f 267 268 269
f 269 268 270
f 269 270 271
f 271 270 272
f 271 272 273
f 273 272 274
f 273 274 275
f 275 274 276
f 275 276 277
f 277 276 278
f 277 278 279
f 277 279 280
f 280 279 281
f 280 281 282
f 282 281 283
f 282 283 284
f 284 283 285
f 284 285 286
f 286 285 287
f 286 287 288
f 288 287 289
f 288 289 290
f 290 289 291
f 290 291 292
f 292 291 293
f 292 293 294
f 294 293 295
f 294 295 296
f 296 295 297
f 296 297 298
f 298 297 299
f 298 299 300
f 300 299 301
f 300 301 302
f 302 301 303
f 302 303 245
f 302 245 304
f 304 245 246
f 304 246 305
f 185 8 15
f 8 185 253
f 21 34 27
f 34 21 28
f 8 22 15
f 22 8 16
f 146 152 140
f 140 152 134
f 152 158 134
f 158 164 134
f 134 164 128
f 128 164 122
f 164 170 122
f 122 170 116
f 170 176 116
f 116 176 110
f 176 182 110
f 182 336 110
f 336 365 110
f 365 364 110
f 110 364 104
f 364 363 104
f 363 362 104
f 104 362 98
f 362 361 98
f 361 360 98
f 98 360 92
f 360 359 92
f 359 358 92
f 92 358 86
f 358 357 86
f 86 357 80
f 357 356 80
f 356 355 80
f 80 355 74
f 355 354 74
f 74 354 68
f 354 353 68
f 68 353 62
f 353 352 62
f 62 352 56
f 352 351 56
f 56 351 55
f 351 350 55
f 55 350 51
f 350 349 51
f 51 349 43
f 349 348 43
f 43 348 37
f 348 347 37
f 347 346 37
f 37 346 31
f 346 345 31
f 31 345 25
f 345 344 25
f 344 343 25
f 25 343 19
f 343 342 19
f 342 341 19
f 19 341 13
f 341 340 13
f 340 339 13
f 13 339 10
f 339 338 10
f 338 337 10
f 337 306 10
f 9 10 306
f 336 182 335
f 335 182 334
f 182 183 334
f 334 183 333
f 333 183 332
f 183 181 332
f 332 181 331
f 331 181 330
f 181 175 330
f 330 175 329
f 329 175 328
f 175 169 328
f 328 169 327
f 169 163 327
f 327 163 326
f 326 163 325
f 163 157 325
f 325 157 324
f 157 151 324
f 324 151 323
f 151 145 323
f 323 145 322
f 322 145 321
f 145 139 321
f 321 139 320
f 139 133 320
f 320 133 319
f 133 127 319
f 319 127 318
f 127 121 318
f 318 121 317
f 317 121 316
f 121 115 316
f 316 115 315
f 115 109 315
f 315 109 314
f 314 109 313
f 109 103 313
f 313 103 312
f 312 103 311
f 103 97 311
f 311 97 310
f 310 97 309
f 97 91 309
f 309 91 308
f 308 91 307
f 307 91 306
f 306 91 9
f 91 85 9
f 85 79 9
f 9 79 16
f 16 79 22
f 79 73 22
f 73 67 22
f 22 67 28
f 28 67 34
f 67 61 34
f 34 61 40
f 61 54 40
f 46 40 54
f 247 27 33
f 27 247 186
f 165 237 171
f 237 165 239
f 159 239 165
f 239 159 241
f 153 241 159
f 241 153 243
f 147 243 153
f 243 147 246
f 142 246 147
f 246 142 305
f 136 305 142
f 305 136 304
f 130 304 136
f 304 130 302
f 124 302 130
f 302 124 300
f 118 300 124
f 300 118 298
f 112 298 118
f 298 112 296
f 106 296 112
f 296 106 294
f 100 294 106
f 294 100 292
f 94 292 100
f 292 94 290
f 288 94 88
f 94 288 290
f 286 88 82
f 88 286 288
f 284 82 76
f 82 284 286
f 282 76 70
f 76 282 284
f 280 70 64
f 70 280 282
f 277 64 58
f 64 277 280
f 275 58 49
f 58 275 277
f 47 275 49
f 275 47 273
f 41 273 47
f 273 41 271
f 35 271 41
f 271 35 269
f 29 269 35
f 269 29 267
f 23 267 29
f 267 23 265
f 17 265 23
f 265 17 263
f 11 263 17
f 263 11 261
f 5 261 11
f 261 5 259
f 257 5 2
f 5 257 259
f 255 2 3
f 2 255 257
f 253 3 8
f 3 253 255
f 248 33 39
f 33 248 247
f 189 39 44
f 39 189 248
f 187 44 52
f 44 187 189
f 191 52 59
f 52 191 187
f 194 59 65
f 59 194 191
f 196 65 71
f 65 196 194
f 198 71 77
f 71 198 196
f 200 77 83
f 77 200 198
f 202 83 89
f 83 202 200
f 95 202 89
f 202 95 204
f 101 204 95
f 204 101 206
f 107 206 101
f 206 107 208
f 113 208 107
f 208 113 210
f 119 210 113
f 210 119 212
f 125 212 119
f 212 125 214
f 131 214 125
f 214 131 216
f 219 131 138
f 131 219 216
f 221 138 144
f 138 221 219
f 223 144 150
f 144 223 221
f 225 150 156
f 150 225 223
f 227 156 162
f 156 227 225
f 229 162 168
f 162 229 227
f 231 168 174
f 168 231 229
f 180 231 174
f 231 180 233
f 177 233 180
f 233 177 235
f 171 235 177
f 235 171 237
f 27 40 33
f 40 27 34
f 3 16 8
f 16 3 9
f 47 51 41
f 51 47 55
f 55 47 49
f 55 49 56
f 41 43 35
f 43 41 51
f 35 37 29
f 37 35 43
f 29 31 23
f 31 29 37
f 23 25 17
f 25 23 31
f 17 19 11
f 19 17 25
f 11 13 5
f 13 11 19
f 5 10 2
f 10 5 13
f 2 9 3
f 9 2 10
f 39 40 46
f 40 39 33
f 44 46 54
f 46 44 39
f 44 61 52
f 61 44 54
f 52 67 59
f 67 52 61
f 59 73 65
f 73 59 67
f 65 79 71
f 79 65 73
f 79 77 71
f 77 79 85
f 85 83 77
f 83 85 91
f 97 83 91
f 83 97 89
f 103 89 97
f 89 103 95
f 109 95 103
f 95 109 101
f 115 101 109
f 101 115 107
f 121 107 115
f 107 121 113
f 127 113 121
f 113 127 119
f 133 119 127
f 119 133 125
f 139 125 133
f 125 139 131
f 138 139 145
f 139 138 131
f 144 145 151
f 145 144 138
f 150 151 157
f 151 150 144
f 156 157 163
f 157 156 150
f 162 163 169
f 163 162 156
f 168 169 175
f 169 168 162
f 174 175 181
f 175 174 168
f 180 181 183
f 181 180 174
f 182 180 183
f 180 182 177
f 176 177 182
f 177 176 171
f 176 165 171
f 165 176 170
f 170 159 165
f 159 170 164
f 164 153 159
f 153 164 158
f 158 147 153
f 147 158 152
f 146 147 152
f 147 146 142
f 140 142 146
f 142 140 136
f 130 140 134
f 140 130 136
f 124 134 128
f 134 124 130
f 118 128 122
f 128 118 124
f 112 122 116
f 122 112 118
f 106 116 110
f 116 106 112
f 100 110 104
f 110 100 106
f 94 104 98
f 104 94 100
f 88 98 92
f 98 88 94
f 82 92 86
f 92 82 88
f 76 86 80
f 86 76 82
f 70 80 74
f 80 70 76
f 64 74 68
f 74 64 70
f 58 68 62
f 68 58 64
f 58 56 49
f 56 58 62
f 54 40 46
f 40 54 61
f 40 61 34
f 34 61 67
f 34 67 28
f 28 67 22
f 22 67 73
f 22 73 79
f 22 79 16
f 16 79 9
f 9 79 85
f 9 85 91
f 9 91 306
f 306 91 307
f 307 91 308
f 308 91 309
f 309 91 97
f 309 97 310
f 310 97 311
f 311 97 103
f 311 103 312
f 312 103 313
f 313 103 109
f 313 109 314
f 314 109 315
f 315 109 115
f 315 115 316
f 316 115 121
f 316 121 317
f 317 121 318
f 318 121 127
f 318 127 319
f 319 127 133
f 319 133 320
f 320 133 139
f 320 139 321
f 321 139 145
f 321 145 322
f 322 145 323
f 323 145 151
f 323 151 324
f 324 151 157
f 324 157 325
f 325 157 163
f 325 163 326
f 326 163 327
f 327 163 169
f 327 169 328
f 328 169 175
f 328 175 329
f 329 175 330
f 330 175 181
f 330 181 331
f 331 181 332
f 332 181 183
f 332 183 333
f 333 183 334
f 334 183 182
f 334 182 335
f 335 182 336
f 306 10 9
f 10 306 337
f 10 337 338
f 10 338 339
f 10 339 13
f 13 339 340
f 13 340 341
f 13 341 19
f 19 341 342
f 19 342 343
f 19 343 25
f 25 343 344
f 25 344 345
f 25 345 31
f 31 345 346
f 31 346 37
f 37 346 347
f 37 347 348
f 37 348 43
f 43 348 349
f 43 349 51
f 51 349 350
f 51 350 55
f 55 350 351
f 55 351 56
f 56 351 352
f 56 352 62
f 62 352 353
f 62 353 68
f 68 353 354
f 68 354 74
f 74 354 355
f 74 355 80
f 80 355 356
f 80 356 357
f 80 357 86
f 86 357 358
f 86 358 92
f 92 358 359
f 92 359 360
f 92 360 98
f 98 360 361
f 98 361 362
f 98 362 104
f 104 362 363
f 104 363 364
f 104 364 110
f 110 364 365
f 110 365 336
f 110 336 182
f 110 182 176
f 110 176 116
f 116 176 170
f 116 170 122
f 122 170 164
f 122 164 128
f 128 164 134
f 134 164 158
f 134 158 152
f 134 152 140
f 140 152 146
f 367 368 369
f 368 367 366
f 366 372 368
f 372 366 370
f 371 369 373
f 369 371 367
f 370 376 372
f 376 370 374
f 377 371 373
f 371 377 375
f 374 380 376
f 380 374 378
f 381 375 377
f 375 381 379
f 378 384 380
f 384 378 382
f 385 379 381
f 379 385 383
f 382 388 384
f 388 382 386
f 389 383 385
f 383 389 387
f 388 390 392
f 390 388 386
f 393 387 389
f 387 393 391
f 392 394 396
f 394 392 390
f 397 391 393
f 391 397 395
f 396 398 400
f 398 396 394
f 401 395 397
f 395 401 399
f 400 402 404
f 402 400 398
f 403 401 405
f 401 403 399
f 404 406 408
f 406 404 402
f 407 405 409
f 405 407 403
f 408 410 412
f 410 408 406
f 411 409 413
f 409 411 407
f 412 414 416
f 414 412 410
f 415 413 417
f 413 415 411
f 416 418 420
f 418 416 414
f 419 417 421
f 417 419 415
f 420 422 424
f 422 420 418
f 423 421 425
f 421 423 419
f 424 426 428
f 426 424 422
f 427 425 429
f 425 427 423
f 428 430 432
f 430 428 426
f 431 429 433
f 429 431 427
f 432 434 436
f 434 432 430
f 435 433 437
f 433 435 431
f 436 438 440
f 438 436 434
f 439 437 441
f 437 439 435
f 440 442 444
f 442 440 438
f 443 441 445
f 441 443 439
f 444 446 448
f 446 444 442
f 447 445 449
f 445 447 443
f 448 450 452
f 450 448 446
f 451 449 453
f 449 451 447
f 450 456 452
f 456 450 454
f 455 453 457
f 453 455 451
f 454 460 456
f 460 454 458
f 459 457 461
f 457 459 455
f 458 464 460
f 464 458 462
f 463 461 465
f 461 463 459
f 462 468 464
f 468 462 466
f 469 463 465
f 463 469 467
f 466 472 468
f 472 466 470
f 473 467 469
f 467 473 471
f 470 476 472
f 476 470 474
f 477 471 473
f 471 477 475
f 474 480 476
f 480 474 478
f 481 475 477
f 475 481 479
f 480 482 484
f 482 480 478
f 485 479 481
f 479 485 483
f 484 483 485
f 483 484 482
f 366 350 367
f 350 366 349
f 366 367 368
f 369 368 367
f 370 349 366
f 349 370 348
f 367 351 371
f 351 367 350
f 370 366 372
f 368 372 366
f 367 371 369
f 373 369 371
f 374 348 370
f 348 374 347
f 351 375 371
f 375 351 352
f 374 370 376
f 372 376 370
f 375 377 371
f 373 371 377
f 378 347 374
f 347 378 346
f 352 379 375
f 379 352 353
f 378 374 380
f 376 380 374
f 379 381 375
f 377 375 381
f 382 346 378
f 346 382 345
f 353 383 379
f 383 353 354
f 382 378 384
f 380 384 378
f 383 385 379
f 381 379 385
f 386 345 382
f 345 386 344
f 354 387 383
f 387 354 355
f 386 382 388
f 384 388 382
f 387 389 383
f 385 383 389
f 390 344 386
f 344 390 343
f 355 391 387
f 391 355 356
f 386 388 390
f 392 390 388
f 391 393 387
f 389 387 393
f 342 390 394
f 390 342 343
f 356 395 391
f 395 356 357
f 390 392 394
f 396 394 392
f 395 397 391
f 393 391 397
f 342 398 341
f 398 342 394
f 357 399 395
f 399 357 358
f 394 396 398
f 400 398 396
f 399 401 395
f 397 395 401
f 341 402 340
f 402 341 398
f 358 403 399
f 403 358 359
f 398 400 402
f 404 402 400
f 399 403 401
f 405 401 403
f 340 406 339
f 406 340 402
f 360 403 359
f 403 360 407
f 402 404 406
f 408 406 404
f 403 407 405
f 409 405 407
f 339 410 338
f 410 339 406
f 411 360 361
f 360 411 407
f 406 408 410
f 412 410 408
f 407 411 409
f 413 409 411
f 337 410 414
f 410 337 338
f 415 361 362
f 361 415 411
f 410 412 414
f 416 414 412
f 411 415 413
f 417 413 415
f 306 414 418
f 414 306 337
f 419 362 363
f 362 419 415
f 414 416 418
f 420 418 416
f 415 419 417
f 421 417 419
f 307 418 422
f 418 307 306
f 423 363 364
f 363 423 419
f 418 420 422
f 424 422 420
f 419 423 421
f 425 421 423
f 308 422 426
f 422 308 307
f 423 365 427
f 365 423 364
f 422 424 426
f 428 426 424
f 423 427 425
f 429 425 427
f 309 426 430
f 426 309 308
f 427 336 431
f 336 427 365
f 426 428 430
f 432 430 428
f 427 431 429
f 433 429 431
f 434 309 430
f 309 434 310
f 431 335 435
f 335 431 336
f 430 432 434
f 436 434 432
f 431 435 433
f 437 433 435
f 438 310 434
f 310 438 311
f 435 334 439
f 334 435 335
f 434 436 438
f 440 438 436
f 435 439 437
f 441 437 439
f 442 311 438
f 311 442 312
f 439 333 443
f 333 439 334
f 438 440 442
f 444 442 440
f 439 443 441
f 445 441 443
f 446 312 442
f 312 446 313
f 447 333 332
f 333 447 443
f 442 444 446
f 448 446 444
f 443 447 445
f 449 445 447
f 450 313 446
f 313 450 314
f 451 332 331
f 332 451 447
f 446 448 450
f 452 450 448
f 447 451 449
f 453 449 451
f 454 314 450
f 314 454 315
f 455 331 330
f 331 455 451
f 454 450 456
f 452 456 450
f 451 455 453
f 457 453 455
f 458 315 454
f 315 458 316
f 459 330 329
f 330 459 455
f 458 454 460
f 456 460 454
f 455 459 457
f 461 457 459
f 462 316 458
f 316 462 317
f 463 329 328
f 329 463 459
f 462 458 464
f 460 464 458
f 459 463 461
f 465 461 463
f 466 317 462
f 317 466 318
f 467 328 327
f 328 467 463
f 466 462 468
f 464 468 462
f 467 469 463
f 465 463 469
f 470 318 466
f 318 470 319
f 471 327 326
f 327 471 467
f 470 466 472
f 468 472 466
f 471 473 467
f 469 467 473
f 474 319 470
f 319 474 320
f 475 326 325
f 326 475 471
f 474 470 476
f 472 476 470
f 475 477 471
f 473 471 477
f 478 320 474
f 320 478 321
f 479 325 324
f 325 479 475
f 478 474 480
f 476 480 474
f 479 481 475
f 477 475 481
f 478 322 321
f 322 478 482
f 483 324 323
f 324 483 479
f 478 480 482
f 484 482 480
f 483 485 479
f 481 479 485
f 482 323 322
f 323 482 483
f 482 484 483
f 485 483 484
f 433 437 429
f 429 437 425
f 437 441 425
f 425 441 421
f 441 445 421
f 421 445 417
f 445 449 417
f 449 453 417
f 417 453 413
f 453 457 413
f 413 457 409
f 409 457 405
f 457 461 405
f 461 465 405
f 405 465 401
f 401 465 397
f 465 469 397
f 397 469 393
f 469 473 393
f 473 580 393
f 580 611 393
f 611 610 393
f 610 609 393
f 609 608 393
f 393 608 389
f 608 607 389
f 607 606 389
f 389 606 385
f 606 605 385
f 605 599 385
f 604 603 599
f 603 602 599
f 602 601 599
f 601 600 599
f 600 598 599
f 385 599 381
f 599 598 381
f 598 597 381
f 597 596 381
f 596 554 381
f 554 553 381
f 553 511 381
f 511 512 381
f 512 595 381
f 381 595 377
f 595 594 377
f 594 593 377
f 377 593 373
f 593 592 373
f 373 592 369
f 592 591 369
f 591 590 369
f 369 590 368
f 590 589 368
f 589 588 368
f 368 588 372
f 588 587 372
f 587 586 372
f 372 586 376
f 586 585 376
f 585 584 376
f 584 583 376
f 583 582 376
f 582 581 376
f 555 460 581
f 376 581 380
f 581 460 380
f 460 456 380
f 380 456 384
f 384 456 388
f 456 452 388
f 388 452 392
f 452 448 392
f 448 444 392
f 392 444 396
f 444 440 396
f 396 440 400
f 400 440 404
f 440 436 404
f 404 436 408
f 436 432 408
f 432 428 408
f 408 428 412
f 412 428 416
f 428 424 416
f 420 416 424
f 580 473 579
f 579 473 578
f 578 473 577
f 577 473 576
f 576 473 575
f 473 477 575
f 575 477 574
f 574 477 573
f 477 481 573
f 573 481 572
f 572 481 571
f 481 485 571
f 571 485 570
f 570 485 569
f 485 484 569
f 569 484 568
f 568 484 567
f 484 480 567
f 567 480 566
f 480 476 566
f 566 476 565
f 565 476 564
f 476 472 564
f 564 472 563
f 563 472 562
f 472 468 562
f 562 468 561
f 561 468 560
f 468 464 560
f 560 464 559
f 559 464 558
f 558 464 557
f 557 464 556
f 556 464 555
f 460 555 464
f 554 551 553
f 553 551 552
f 552 551 550
f 551 549 550
f 550 549 547
f 549 548 547
f 548 546 547
f 547 546 545
f 546 544 545
f 545 544 543
f 544 542 543
f 543 542 540
f 542 541 540
f 541 539 540
f 540 539 538
f 539 537 538
f 538 537 535
f 537 536 535
f 536 534 535
f 535 534 533
f 534 531 533
f 533 531 532
f 532 531 530
f 531 529 530
f 530 529 486
f 486 529 488
f 529 528 488
f 488 528 527
f 528 526 527
f 527 526 525
f 526 524 525
f 525 524 523
f 524 522 523
f 523 522 521
f 522 520 521
f 521 520 519
f 520 518 519
f 519 518 517
f 518 516 517
f 517 516 514
f 516 513 514
f 515 514 513
f 512 511 510
f 511 509 510
f 510 509 508
f 509 506 508
f 508 506 507
f 507 506 505
f 506 504 505
f 505 504 503
f 504 501 503
f 503 501 502
f 502 501 500
f 501 499 500
f 500 499 498
f 499 497 498
f 498 497 496
f 497 494 496
f 496 494 495
f 495 494 493
f 494 492 493
f 493 492 490
f 492 491 490
f 491 489 490
f 490 489 487
f 489 486 487
f 488 487 486
f 486 487 488
f 487 486 489
f 487 489 490
f 490 489 491
f 490 491 492
f 490 492 493
f 493 492 494
f 493 494 495
f 495 494 496
f 496 494 497
f 496 497 498
f 498 497 499
f 498 499 500
f 500 499 501
f 500 501 502
f 502 501 503
f 503 501 504
f 503 504 505
f 505 504 506
f 505 506 507
f 507 506 508
f 508 506 509
f 508 509 510
f 510 509 511
f 510 511 512
f 513 514 515
f 514 513 516
f 514 516 517
f 517 516 518
f 517 518 519
f 519 518 520
f 519 520 521
f 521 520 522
f 521 522 523
f 523 522 524
f 523 524 525
f 525 524 526
f 525 526 527
f 527 526 528
f 527 528 488
f 488 528 529
f 488 529 486
f 486 529 530
f 530 529 531
f 530 531 532
f 532 531 533
f 533 531 534
f 533 534 535
f 535 534 536
f 535 536 537
f 535 537 538
f 538 537 539
f 538 539 540
f 540 539 541
f 540 541 542
f 540 542 543
f 543 542 544
f 543 544 545
f 545 544 546
f 545 546 547
f 547 546 548
f 547 548 549
f 547 549 550
f 550 549 551
f 550 551 552
f 552 551 553
f 553 551 554
f 464 555 460
f 555 464 556
f 556 464 557
f 557 464 558
f 558 464 559
f 559 464 560
f 560 464 468
f 560 468 561
f 561 468 562
f 562 468 472
f 562 472 563
f 563 472 564
f 564 472 476
f 564 476 565
f 565 476 566
f 566 476 480
f 566 480 567
f 567 480 484
f 567 484 568
f 568 484 569
f 569 484 485
f 569 485 570
f 570 485 571
f 571 485 481
f 571 481 572
f 572 481 573
f 573 481 477
f 573 477 574
f 574 477 575
f 575 477 473
f 575 473 576
f 576 473 577
f 577 473 578
f 578 473 579
f 579 473 580
f 424 416 420
f 416 424 428
f 416 428 412
f 412 428 408
f 408 428 432
f 408 432 436
f 408 436 404
f 404 436 440
f 404 440 400
f 400 440 396
f 396 440 444
f 396 444 392
f 392 444 448
f 392 448 452
f 392 452 388
f 388 452 456
f 388 456 384
f 384 456 380
f 380 456 460
f 380 460 581
f 380 581 376
f 581 460 555
f 376 581 582
f 376 582 583
f 376 583 584
f 376 584 585
f 376 585 586
f 376 586 372
f 372 586 587
f 372 587 588
f 372 588 368
f 368 588 589
f 368 589 590
f 368 590 369
f 369 590 591
f 369 591 592
f 369 592 373
f 373 592 593
f 373 593 377
f 377 593 594
f 377 594 595
f 377 595 381
f 381 595 512
f 381 512 511
f 381 511 553
f 381 553 554
f 381 554 596
f 381 596 597
f 381 597 598
f 381 598 599
f 381 599 385
f 599 598 600
f 599 600 601
f 599 601 602
f 599 602 603
f 599 603 604
f 385 599 605
f 385 605 606
f 385 606 389
f 389 606 607
f 389 607 608
f 389 608 393
f 393 608 609
f 393 609 610
f 393 610 611
f 393 611 580
f 393 580 473
f 393 473 469
f 393 469 397
f 397 469 465
f 397 465 401
f 401 465 405
f 405 465 461
f 405 461 457
f 405 457 409
f 409 457 413
f 413 457 453
f 413 453 417
f 417 453 449
f 417 449 445
f 417 445 421
f 421 445 441
f 421 441 425
f 425 441 437
f 425 437 429
f 429 437 433
f 530 489 486
f 489 530 532
f 489 532 491
f 491 532 533
f 491 533 492
f 492 533 535
f 492 535 494
f 494 535 497
f 497 535 538
f 497 538 540
f 497 540 499
f 499 540 543
f 499 543 501
f 501 543 545
f 501 545 504
f 504 545 506
f 506 545 547
f 506 547 550
f 506 550 509
f 509 550 552
f 509 552 511
f 511 552 553
f 553 552 511
f 511 552 509
f 552 550 509
f 509 550 506
f 550 547 506
f 547 545 506
f 506 545 504
f 504 545 501
f 545 543 501
f 501 543 499
f 543 540 499
f 499 540 497
f 540 538 497
f 538 535 497
f 497 535 494
f 494 535 492
f 535 533 492
f 492 533 491
f 533 532 491
f 491 532 489
f 532 530 489
f 486 489 530
f 556 581 555
f 581 556 582
f 582 556 557
f 582 557 583
f 583 557 558
f 583 558 584
f 584 558 559
f 584 559 585
f 585 559 586
f 586 559 560
f 586 560 587
f 587 560 561
f 587 561 562
f 587 562 588
f 588 562 563
f 588 563 515
f 515 563 513
f 513 563 516
f 516 563 518
f 518 563 564
f 518 564 520
f 520 564 522
f 522 564 524
f 524 564 526
f 526 564 528
f 528 564 565
f 528 565 529
f 529 565 531
f 531 565 534
f 534 565 566
f 534 566 536
f 536 566 537
f 537 566 567
f 537 567 539
f 539 567 541
f 541 567 568
f 541 568 542
f 542 568 544
f 544 568 546
f 546 568 569
f 546 569 548
f 548 569 549
f 549 569 570
f 549 570 551
f 551 570 554
f 554 570 596
f 596 570 571
f 596 571 597
f 597 571 598
f 598 571 600
f 600 571 601
f 601 571 602
f 602 571 572
f 602 572 603
f 603 572 604
f 604 572 599
f 599 572 605
f 605 572 573
f 605 573 606
f 606 573 574
f 606 574 607
f 607 574 575
f 607 575 608
f 608 575 576
f 608 576 609
f 609 576 577
f 609 577 610
f 610 577 578
f 610 578 611
f 611 578 579
f 611 579 580
f 515 589 588
f 589 515 514
f 589 514 517
f 589 517 519
f 589 519 590
f 590 519 521
f 590 521 523
f 590 523 525
f 590 525 527
f 590 527 488
f 590 488 591
f 591 488 487
f 591 487 490
f 591 490 493
f 591 493 592
f 592 493 495
f 592 495 496
f 592 496 593
f 593 496 498
f 593 498 500
f 593 500 502
f 593 502 594
f 594 502 503
f 594 503 505
f 594 505 595
f 595 505 507
f 595 507 508
f 595 508 512
f 512 508 510
f 510 508 512
f 512 508 595
f 508 507 595
f 507 505 595
f 595 505 594
f 505 503 594
f 503 502 594
f 594 502 593
f 502 500 593
f 500 498 593
f 498 496 593
f 593 496 592
f 496 495 592
f 495 493 592
f 592 493 591
f 493 490 591
f 490 487 591
f 487 488 591
f 591 488 590
f 488 527 590
f 527 525 590
f 525 523 590
f 523 521 590
f 521 519 590
f 590 519 589
f 519 517 589
f 517 514 589
f 514 515 589
f 588 589 515
f 580 579 611
f 579 578 611
f 611 578 610
f 578 577 610
f 610 577 609
f 577 576 609
f 609 576 608
f 576 575 608
f 608 575 607
f 575 574 607
f 607 574 606
f 574 573 606
f 606 573 605
f 573 572 605
f 605 572 599
f 599 572 604
f 604 572 603
f 603 572 602
f 572 571 602
f 602 571 601
f 601 571 600
f 600 571 598
f 598 571 597
f 597 571 596
f 571 570 596
f 596 570 554
f 554 570 551
f 551 570 549
f 570 569 549
f 549 569 548
f 548 569 546
f 569 568 546
f 546 568 544
f 544 568 542
f 542 568 541
f 568 567 541
f 541 567 539
f 539 567 537
f 567 566 537
f 537 566 536
f 536 566 534
f 566 565 534
f 534 565 531
f 531 565 529
f 529 565 528
f 565 564 528
f 528 564 526
f 526 564 524
f 524 564 522
f 522 564 520
f 520 564 518
f 564 563 518
f 518 563 516
f 516 563 513
f 513 563 515
f 515 563 588
f 563 562 588
f 588 562 587
f 562 561 587
f 561 560 587
f 587 560 586
f 560 559 586
f 586 559 585
f 585 559 584
f 559 558 584
f 584 558 583
f 558 557 583
f 583 557 582
f 557 556 582
f 582 556 581
f 555 581 556
f 375 612 371
f 612 375 613
f 379 613 375
f 613 379 614
f 612 367 371
f 367 612 615
f 383 614 379
f 614 383 616
f 615 366 367
f 366 615 617
f 387 616 383
f 616 387 618
f 617 370 366
f 370 617 619
f 391 618 387
f 618 391 620
f 619 374 370
f 374 619 621
f 395 620 391
f 620 395 622
f 621 378 374
f 378 621 623
f 399 622 395
f 622 399 624
f 623 382 378
f 382 623 625
f 626 399 403
f 399 626 624
f 625 386 382
f 386 625 627
f 628 403 407
f 403 628 626
f 386 629 390
f 629 386 627
f 630 407 411
f 407 630 628
f 390 631 394
f 631 390 629
f 632 411 415
f 411 632 630
f 394 633 398
f 633 394 631
f 634 415 419
f 415 634 632
f 398 635 402
f 635 398 633
f 636 419 423
f 419 636 634
f 402 637 406
f 637 402 635
f 638 423 427
f 423 638 636
f 406 639 410
f 639 406 637
f 640 427 431
f 427 640 638
f 410 641 414
f 641 410 639
f 642 431 435
f 431 642 640
f 414 643 418
f 643 414 641
f 644 435 439
f 435 644 642
f 418 645 422
f 645 418 643
f 646 439 443
f 439 646 644
f 422 647 426
f 647 422 645
f 648 443 447
f 443 648 646
f 426 649 430
f 649 426 647
f 650 447 451
f 447 650 648
f 430 651 434
f 651 430 649
f 652 451 455
f 451 652 650
f 434 653 438
f 653 434 651
f 654 455 459
f 455 654 652
f 438 655 442
f 655 438 653
f 656 459 463
f 459 656 654
f 442 657 446
f 657 442 655
f 467 656 463
f 656 467 658
f 446 659 450
f 659 446 657
f 471 658 467
f 658 471 660
f 659 454 450
f 454 659 661
f 475 660 471
f 660 475 662
f 661 458 454
f 458 661 663
f 479 662 475
f 662 479 664
f 663 462 458
f 462 663 665
f 483 664 479
f 664 483 666
f 665 466 462
f 466 665 667
f 482 666 483
f 666 482 668
f 667 470 466
f 470 667 669
f 478 668 482
f 668 478 670
f 669 474 470
f 474 669 671
f 671 478 474
f 478 671 670
f 236 672 234
f 672 236 673
f 238 673 236
f 673 238 674
f 234 675 232
f 675 234 672
f 240 674 238
f 674 240 676
f 232 677 230
f 677 232 675
f 242 676 240
f 676 242 678
f 677 228 230
f 228 677 679
f 244 678 242
f 678 244 680
f 679 226 228
f 226 679 681
f 245 680 244
f 680 245 682
f 681 224 226
f 224 681 683
f 303 682 245
f 682 303 684
f 683 222 224
f 222 683 685
f 301 684 303
f 684 301 686
f 685 220 222
f 220 685 687
f 299 686 301
f 686 299 688
f 687 218 220
f 218 687 689
f 297 688 299
f 688 297 690
f 689 217 218
f 217 689 691
f 295 690 297
f 690 295 692
f 217 693 215
f 693 217 691
f 293 692 295
f 692 293 694
f 215 695 213
f 695 215 693
f 291 694 293
f 694 291 696
f 213 697 211
f 697 213 695
f 289 696 291
f 696 289 698
f 211 699 209
f 699 211 697
f 700 289 287
f 289 700 698
f 209 701 207
f 701 209 699
f 702 287 285
f 287 702 700
f 207 703 205
f 703 207 701
f 704 285 283
f 285 704 702
f 205 705 203
f 705 205 703
f 706 283 281
f 283 706 704
f 705 201 203
f 201 705 707
f 708 281 279
f 281 708 706
f 707 199 201
f 199 707 709
f 710 279 278
f 279 710 708
f 709 197 199
f 197 709 711
f 712 278 276
f 278 712 710
f 711 195 197
f 195 711 713
f 274 712 276
f 712 274 714
f 713 193 195
f 193 713 715
f 272 714 274
f 714 272 716
f 715 192 193
f 192 715 717
f 270 716 272
f 716 270 718
f 717 190 192
f 190 717 719
f 268 718 270
f 718 268 720
f 719 188 190
f 188 719 721
f 266 720 268
f 720 266 722
f 721 249 188
f 249 721 723
f 264 722 266
f 722 264 724
f 723 250 249
f 250 723 725
f 262 724 264
f 724 262 726
f 725 251 250
f 251 725 727
f 260 726 262
f 726 260 728
f 727 252 251
f 252 727 729
f 730 260 258
f 260 730 728
f 729 254 252
f 254 729 731
f 732 258 256
f 258 732 730
f 731 256 254
f 256 731 732
f 733 721 734
f 721 733 723
f 723 733 735
f 723 735 725
f 725 735 727
f 727 735 736
f 727 736 729
f 729 736 737
f 729 737 731
f 731 737 738
f 731 738 732
f 732 738 739
f 732 739 730
f 730 739 740
f 730 740 728
f 728 740 741
f 728 741 726
f 726 741 742
f 726 742 724
f 724 742 743
f 724 743 722
f 722 743 744
f 722 744 720
f 720 744 745
f 720 745 718
f 718 745 746
f 718 746 716
f 716 746 747
f 716 747 714
f 714 747 748
f 714 748 712
f 712 748 710
f 710 748 749
f 710 749 708
f 708 749 750
f 708 750 706
f 706 750 751
f 706 751 704
f 704 751 752
f 704 752 702
f 702 752 753
f 702 753 700
f 700 753 754
f 700 754 698
f 698 754 755
f 698 755 696
f 696 755 756
f 696 756 694
f 694 756 757
f 694 757 692
f 692 757 758
f 692 758 690
f 690 758 759
f 690 759 688
f 688 759 760
f 688 760 686
f 686 760 761
f 686 761 684
f 684 761 682
f 682 761 762
f 682 762 763
f 763 762 764
f 734 765 766
f 765 734 767
f 767 734 721
f 767 721 719
f 767 719 768
f 768 719 717
f 768 717 715
f 768 715 769
f 769 715 713
f 769 713 770
f 770 713 711
f 770 711 771
f 771 711 709
f 771 709 772
f 772 709 707
f 772 707 773
f 773 707 705
f 773 705 774
f 774 705 703
f 774 703 775
f 775 703 701
f 775 701 776
f 776 701 699
f 776 699 777
f 777 699 697
f 777 697 778
f 778 697 695
f 778 695 779
f 779 695 693
f 779 693 780
f 780 693 691
f 780 691 689
f 780 689 781
f 781 689 687
f 781 687 782
f 782 687 685
f 782 685 783
f 783 685 683
f 783 683 784
f 784 683 681
f 784 681 785
f 785 681 679
f 785 679 786
f 786 679 677
f 786 677 787
f 787 677 675
f 787 675 788
f 788 675 672
f 788 672 789
f 789 672 673
f 789 673 790
f 790 673 674
f 790 674 791
f 791 674 676
f 791 676 792
f 792 676 678
f 792 678 793
f 793 678 680
f 793 680 682
f 793 682 763

