# https://github.com/mikedh/trimesh

o 6.obj
v -0.07086817 0.01334068 0.02071430
v -0.06981388 -0.01295186 -0.01337620
v -0.07086817 -0.01295186 0.02071430
v -0.06981388 0.01334068 -0.01337620
v -0.06794256 -0.01295186 0.02062023
v -0.06693683 -0.01295186 -0.01286898
v -0.06690038 -0.01295186 -0.01307588
v -0.06796002 -0.01295186 0.02043657
v -0.06794823 -0.01295186 0.02080466
v -0.06794823 0.01334068 0.02080466
v -0.06693683 0.01334068 -0.01286898
v -0.06796002 0.01334068 0.02043657
v -0.06794256 0.01334068 0.02062023
v -0.06690038 0.01334068 -0.01307588
v -0.06901256 -0.01295186 -0.01792040
v -0.06564268 -0.01217247 -0.03703232
v -0.06584359 -0.00990195 -0.03589302
v -0.06600215 -0.00752296 -0.03499370
v -0.06611663 -0.00506158 -0.03434417
v -0.06618592 -0.00254476 -0.03395153
v -0.06620906 -0.00000000 -0.03382024
v -0.06618592 0.00254476 -0.03395153
v -0.06611663 0.00506158 -0.03434417
v -0.06600215 0.00752296 -0.03499370
v -0.06584359 0.00990195 -0.03589302
v -0.06564268 0.01217247 -0.03703232
v -0.06901256 0.01334068 -0.01792040
v -0.06540162 0.01430963 -0.03839904
v -0.06878513 0.01350317 -0.01921040
v -0.06855902 0.01371946 -0.02049266
v -0.06833465 0.01398923 -0.02176498
v -0.06811247 0.01431192 -0.02302541
v -0.06512323 0.01628997 -0.03997834
v -0.06789268 0.01468710 -0.02427165
v -0.06767585 0.01511412 -0.02550153
v -0.06746217 0.01559210 -0.02671317
v -0.06725221 0.01612039 -0.02790431
v -0.06704607 0.01669800 -0.02907307
v -0.06481036 0.01809179 -0.04175287
v -0.06684429 0.01732407 -0.03021738
v -0.06664721 0.01799739 -0.03133529
v -0.06645503 0.01871698 -0.03242504
v -0.06446639 0.01969553 -0.04370310
v -0.06609087 0.02130724 -0.03449073
v -0.06409536 0.02108331 -0.04580774
v -0.06370108 0.02224018 -0.04804377
v -0.06568153 0.02366408 -0.03681177
v -0.06328792 0.02315347 -0.05038664
v -0.06286046 0.02381293 -0.05281059
v -0.06523171 0.02576174 -0.03936275
v -0.06242351 0.02421158 -0.05528922
v -0.06198155 0.02434493 -0.05779534
v -0.06255960 -0.03166873 -0.05451735
v -0.06140360 -0.03166873 -0.06107333
v -0.06198155 -0.03184323 -0.05779534
v -0.06083188 -0.03114732 -0.06431530
v -0.06313121 -0.03114732 -0.05127538
v -0.06027282 -0.03028466 -0.06748591
v -0.06369027 -0.03028466 -0.04810477
v -0.05973253 -0.02909025 -0.07055033
v -0.06423067 -0.02909025 -0.04504035
v -0.05921679 -0.02757698 -0.07347507
v -0.06474630 -0.02757698 -0.04211561
v -0.05873139 -0.02576174 -0.07622794
v -0.06523171 -0.02576174 -0.03936275
v -0.05828167 -0.02366408 -0.07877891
v -0.06198155 -0.02434493 -0.05779534
v -0.06153969 -0.02421158 -0.06030136
v -0.06110263 -0.02381293 -0.06277998
v -0.06067518 -0.02315347 -0.06520404
v -0.05787233 -0.02130724 -0.08109996
v -0.06026213 -0.02224018 -0.06754691
v -0.05986785 -0.02108331 -0.06978284
v -0.05750806 -0.01871698 -0.08316564
v -0.05949670 -0.01969542 -0.07188759
v -0.05915284 -0.01809179 -0.07383781
v -0.05719290 -0.01592156 -0.08495338
v -0.05883997 -0.01628997 -0.07561234
v -0.05856147 -0.01430963 -0.07719165
v -0.05693012 -0.01295175 -0.08644363
v -0.05832052 -0.01217247 -0.07855836
v -0.05672267 -0.00984007 -0.08761992
v -0.05811962 -0.00990195 -0.07969766
v -0.05796105 -0.00752296 -0.08059698
v -0.05657294 -0.00662058 -0.08846948
v -0.05784647 -0.00506158 -0.08124651
v -0.05648237 -0.00332851 -0.08898293
v -0.05777728 -0.00254476 -0.08163905
v -0.05645203 -0.00000000 -0.08915480
v -0.05775415 -0.00000000 -0.08177044
v -0.05777728 0.00254476 -0.08163905
v -0.05648237 0.00332851 -0.08898293
v -0.05784647 0.00506158 -0.08124651
v -0.05657294 0.00662058 -0.08846948
v -0.05796105 0.00752296 -0.08059698
v -0.05672267 0.00984007 -0.08761992
v -0.05811962 0.00990195 -0.07969766
v -0.05693012 0.01295175 -0.08644363
v -0.05832052 0.01217247 -0.07855836
v -0.05856147 0.01430963 -0.07719165
v -0.05719290 0.01592156 -0.08495338
v -0.05883997 0.01628997 -0.07561234
v -0.05750806 0.01871698 -0.08316564
v -0.05915284 0.01809179 -0.07383781
v -0.05949670 0.01969553 -0.07188759
v -0.05787233 0.02130724 -0.08109996
v -0.05986785 0.02108331 -0.06978284
v -0.06026213 0.02224018 -0.06754691
v -0.05828167 0.02366408 -0.07877891
v -0.06067518 0.02315347 -0.06520404
v -0.06110263 0.02381293 -0.06277998
v -0.05873139 0.02576174 -0.07622794
v -0.06153969 0.02421158 -0.06030136
v -0.06474630 0.02757698 -0.04211561
v -0.05921679 0.02757698 -0.07347507
v -0.06423067 0.02909025 -0.04504035
v -0.05973253 0.02909025 -0.07055033
v -0.06369027 0.03028466 -0.04810477
v -0.06027282 0.03028466 -0.06748591
v -0.06313121 0.03114732 -0.05127538
v -0.06083188 0.03114732 -0.06431530
v -0.06255960 0.03166873 -0.05451735
v -0.06140360 0.03166873 -0.06107333
v -0.06198155 0.03184323 -0.05779534
v -0.06568153 -0.02366408 -0.03681177
v -0.06242351 -0.02421158 -0.05528922
v -0.06286046 -0.02381293 -0.05281059
v -0.06328792 -0.02315347 -0.05038664
v -0.06609087 -0.02130724 -0.03449073
v -0.06370108 -0.02224018 -0.04804377
v -0.06409536 -0.02108331 -0.04580774
v -0.06645503 -0.01871698 -0.03242504
v -0.06446639 -0.01969542 -0.04370310
v -0.06481036 -0.01809179 -0.04175287
v -0.06664611 -0.01796782 -0.03134129
v -0.06512323 -0.01628997 -0.03997834
v -0.06684233 -0.01726416 -0.03022840
v -0.06704345 -0.01660732 -0.02908813
v -0.06724894 -0.01599828 -0.02792231
v -0.06540162 -0.01430963 -0.03839904
v -0.06745868 -0.01543801 -0.02673303
v -0.06767214 -0.01492762 -0.02552226
v -0.06788919 -0.01446776 -0.02429195
v -0.06810919 -0.01405929 -0.02304418
v -0.06833192 -0.01370299 -0.02178102
v -0.06855695 -0.01339928 -0.02050455
v -0.06878393 -0.01314873 -0.01921706
v -0.06689383 0.01334068 -0.01328595
v -0.06689383 -0.01295186 -0.01328595
v -0.06613561 0.01334068 -0.01741318
v -0.06590808 0.01350317 -0.01870307
v -0.06568208 0.01371946 -0.01998532
v -0.06545771 0.01398923 -0.02125775
v -0.06523542 0.01431192 -0.02251807
v -0.06501574 0.01468710 -0.02376432
v -0.06479880 0.01511412 -0.02499430
v -0.06458523 0.01559210 -0.02620584
v -0.06437516 0.01612039 -0.02739708
v -0.06416913 0.01669800 -0.02856573
v -0.06396735 0.01732407 -0.02971005
v -0.06377015 0.01799739 -0.03082806
v -0.06357809 0.01871698 -0.03191771
v -0.06321382 0.02130724 -0.03398339
v -0.06280459 0.02366408 -0.03630443
v -0.06235476 0.02576174 -0.03885541
v -0.06186936 0.02757698 -0.04160827
v -0.06135362 0.02909025 -0.04453301
v -0.06081333 0.03028466 -0.04759744
v -0.06025427 0.03114732 -0.05076804
v -0.05968255 0.03166873 -0.05401013
v -0.05910460 0.03184323 -0.05728801
v -0.05852655 0.03166873 -0.06056599
v -0.05795494 0.03114732 -0.06380808
v -0.05739588 0.03028466 -0.06697868
v -0.05685548 0.02909025 -0.07004311
v -0.05633985 0.02757698 -0.07296774
v -0.05585445 0.02576174 -0.07572060
v -0.05540462 0.02366408 -0.07827158
v -0.05499528 0.02130724 -0.08059262
v -0.05463112 0.01871698 -0.08265830
v -0.05431585 0.01592156 -0.08444615
v -0.05405307 0.01295175 -0.08593629
v -0.05384573 0.00984007 -0.08711258
v -0.05369589 0.00662058 -0.08796214
v -0.05360532 0.00332851 -0.08847570
v -0.05357509 -0.00000000 -0.08864747
v -0.05360532 -0.00332851 -0.08847570
v -0.05369589 -0.00662058 -0.08796214
v -0.05384573 -0.00984007 -0.08711258
v -0.05405307 -0.01295175 -0.08593629
v -0.05431585 -0.01592156 -0.08444615
v -0.05463112 -0.01871698 -0.08265830
v -0.05499528 -0.02130724 -0.08059262
v -0.05540462 -0.02366408 -0.07827158
v -0.05585445 -0.02576174 -0.07572060
v -0.05633985 -0.02757698 -0.07296774
v -0.05685548 -0.02909025 -0.07004311
v -0.05739588 -0.03028466 -0.06697868
v -0.05795494 -0.03114732 -0.06380808
v -0.05852655 -0.03166873 -0.06056599
v -0.05910460 -0.03184323 -0.05728801
v -0.05968255 -0.03166873 -0.05401013
v -0.06025427 -0.03114732 -0.05076804
v -0.06081333 -0.03028466 -0.04759744
v -0.06135362 -0.02909025 -0.04453301
v -0.06186936 -0.02757698 -0.04160827
v -0.06235476 -0.02576174 -0.03885541
v -0.06280459 -0.02366408 -0.03630443
v -0.06321382 -0.02130724 -0.03398339
v -0.06357809 -0.01871698 -0.03191771
v -0.06376917 -0.01796782 -0.03083407
v -0.06396538 -0.01726416 -0.02972107
v -0.06416640 -0.01660732 -0.02858079
v -0.06437200 -0.01599828 -0.02741508
v -0.06458163 -0.01543801 -0.02622581
v -0.06479519 -0.01492762 -0.02501503
v -0.06501214 -0.01446776 -0.02378472
v -0.06523214 -0.01405929 -0.02253684
v -0.06545487 -0.01370299 -0.02127369
v -0.06567989 -0.01339928 -0.01999733
v -0.06590699 -0.01314873 -0.01870972
v -0.06613561 -0.01295186 -0.01741318
v -0.05910460 -0.02434493 -0.05728801
v -0.05954646 -0.02421158 -0.05478199
v -0.05998352 -0.02381293 -0.05230336
v -0.06041098 -0.02315347 -0.04987930
v -0.06082403 -0.02224018 -0.04753644
v -0.06121831 -0.02108331 -0.04530051
v -0.06158945 -0.01969542 -0.04319587
v -0.06193331 -0.01809179 -0.04124553
v -0.06224618 -0.01628997 -0.03947111
v -0.06252468 -0.01430963 -0.03789181
v -0.06276563 -0.01217247 -0.03652498
v -0.05866264 -0.02421158 -0.05979413
v -0.05822569 -0.02381293 -0.06227275
v -0.05779823 -0.02315347 -0.06469671
v -0.05738507 -0.02224018 -0.06703958
v -0.05699080 -0.02108331 -0.06927561
v -0.05661976 -0.01969542 -0.07138025
v -0.05627590 -0.01809179 -0.07333048
v -0.05596292 -0.01628997 -0.07510501
v -0.05568453 -0.01430963 -0.07668431
v -0.05544347 -0.01217247 -0.07805103
v -0.05524256 -0.00990195 -0.07919032
v -0.05508400 -0.00752296 -0.08008976
v -0.05496953 -0.00506158 -0.08073918
v -0.05490023 -0.00254476 -0.08113182
v -0.05487709 -0.00000000 -0.08126310
v -0.05490023 0.00254476 -0.08113182
v -0.05496953 0.00506158 -0.08073918
v -0.05508400 0.00752296 -0.08008976
v -0.05524256 0.00990195 -0.07919032
v -0.05544347 0.01217247 -0.07805103
v -0.05568453 0.01430963 -0.07668431
v -0.05596292 0.01628997 -0.07510501
v -0.05627590 0.01809179 -0.07333048
v -0.05661976 0.01969553 -0.07138025
v -0.05699080 0.02108331 -0.06927561
v -0.05738507 0.02224018 -0.06703958
v -0.05779823 0.02315347 -0.06469671
v -0.05822569 0.02381293 -0.06227275
v -0.05866264 0.02421158 -0.05979413
v -0.05910460 0.02434493 -0.05728801
v -0.06252468 0.01430963 -0.03789181
v -0.06276563 0.01217247 -0.03652498
v -0.06224618 0.01628997 -0.03947111
v -0.06193331 0.01809179 -0.04124553
v -0.06158945 0.01969553 -0.04319587
v -0.06121831 0.02108331 -0.04530051
v -0.06082403 0.02224018 -0.04753644
v -0.06041098 0.02315347 -0.04987930
v -0.05998352 0.02381293 -0.05230336
v -0.05954646 0.02421158 -0.05478199
v -0.06296654 -0.00990195 -0.03538569
v -0.06312510 -0.00752296 -0.03448636
v -0.06323968 -0.00506158 -0.03383683
v -0.06330887 -0.00254476 -0.03344430
v -0.06333201 -0.00000000 -0.03331291
v -0.06330887 0.00254476 -0.03344430
v -0.06323968 0.00506158 -0.03383683
v -0.06312510 0.00752296 -0.03448636
v -0.06296654 0.00990195 -0.03538569
v -0.07230724 0.01334068 -0.01381588
v -0.07150602 -0.01295186 -0.01836008
v -0.07230724 -0.01295186 -0.01381588
v -0.06822029 -0.01220684 -0.03699423
v -0.06841846 -0.00992454 -0.03587076
v -0.06857473 -0.00753693 -0.03498431
v -0.06868757 -0.00506943 -0.03434439
v -0.06875578 -0.00254825 -0.03395764
v -0.06877858 -0.00000000 -0.03382832
v -0.06875578 0.00254825 -0.03395764
v -0.06868757 0.00506943 -0.03434439
v -0.06857473 0.00753693 -0.03498431
v -0.06841846 0.00992454 -0.03587076
v -0.06822029 0.01220695 -0.03699423
v -0.07150602 0.01334068 -0.01836008
v -0.06798250 0.01435994 -0.03834284
v -0.07127860 0.01350317 -0.01965008
v -0.07105249 0.01371946 -0.02093234
v -0.07082812 0.01398923 -0.02220466
v -0.07060582 0.01431192 -0.02346509
v -0.07038615 0.01468710 -0.02471133
v -0.06770749 0.01636069 -0.03990238
v -0.07016931 0.01511412 -0.02594120
v -0.06995564 0.01559210 -0.02715285
v -0.06974557 0.01612039 -0.02834398
v -0.06953953 0.01669800 -0.02951274
v -0.06739822 0.01818804 -0.04165618
v -0.06933776 0.01732407 -0.03065706
v -0.06914056 0.01799739 -0.03177497
v -0.06894850 0.01871698 -0.03286472
v -0.06705807 0.01982256 -0.04358578
v -0.06858423 0.02130724 -0.03493040
v -0.06669042 0.02124701 -0.04567056
v -0.06629931 0.02244621 -0.04788870
v -0.06817500 0.02366408 -0.03725145
v -0.06588887 0.02340741 -0.05021640
v -0.06546349 0.02412056 -0.05262911
v -0.06772517 0.02576174 -0.03980242
v -0.06502753 0.02457803 -0.05510119
v -0.06458578 0.02477501 -0.05760655
v -0.06505295 -0.03166873 -0.05495703
v -0.06389696 -0.03166873 -0.06151290
v -0.06447501 -0.03184323 -0.05823502
v -0.06332535 -0.03114732 -0.06475498
v -0.06562468 -0.03114732 -0.05171495
v -0.06276629 -0.03028466 -0.06792559
v -0.06618374 -0.03028466 -0.04854434
v -0.06222599 -0.02909025 -0.07099001
v -0.06672403 -0.02909025 -0.04547992
v -0.06171025 -0.02757698 -0.07391475
v -0.06723977 -0.02757698 -0.04255529
v -0.06122485 -0.02576174 -0.07666761
v -0.06772517 -0.02576174 -0.03980242
v -0.06414283 -0.02470920 -0.06011857
v -0.06077503 -0.02366408 -0.07921859
v -0.06458578 -0.02477490 -0.05760655
v -0.06370348 -0.02438160 -0.06261061
v -0.06327220 -0.02379558 -0.06505628
v -0.06285370 -0.02295726 -0.06742971
v -0.06036580 -0.02130724 -0.08153963
v -0.06245243 -0.02187558 -0.06970557
v -0.06207256 -0.02056201 -0.07185987
v -0.06000153 -0.01871698 -0.08360532
v -0.06171811 -0.01903051 -0.07386968
v -0.06139302 -0.01729723 -0.07571383
v -0.05968626 -0.01592156 -0.08539305
v -0.06110045 -0.01538061 -0.07737269
v -0.05942359 -0.01295175 -0.08688319
v -0.06084378 -0.01330107 -0.07882867
v -0.06062552 -0.01108042 -0.08006640
v -0.05921613 -0.00984007 -0.08805959
v -0.06044808 -0.00874235 -0.08107267
v -0.05906630 -0.00662058 -0.08890916
v -0.06031331 -0.00631153 -0.08183690
v -0.05897572 -0.00332851 -0.08942260
v -0.06022273 -0.00381391 -0.08235089
v -0.06017711 -0.00127582 -0.08260931
v -0.05894550 -0.00000000 -0.08959437
v -0.06017711 0.00127582 -0.08260931
v -0.05897572 0.00332851 -0.08942260
v -0.06022273 0.00381391 -0.08235089
v -0.05906630 0.00662058 -0.08890916
v -0.06031331 0.00631153 -0.08183690
v -0.06044808 0.00874235 -0.08107267
v -0.05921613 0.00984007 -0.08805959
v -0.06062552 0.01108042 -0.08006640
v -0.05942359 0.01295175 -0.08688319
v -0.06084378 0.01330107 -0.07882867
v -0.05968626 0.01592156 -0.08539305
v -0.06110045 0.01538072 -0.07737269
v -0.06139302 0.01729723 -0.07571383
v -0.06000153 0.01871698 -0.08360532
v -0.06171811 0.01903051 -0.07386968
v -0.06036580 0.02130724 -0.08153963
v -0.06207256 0.02056201 -0.07185987
v -0.06245243 0.02187558 -0.06970557
v -0.06077503 0.02366408 -0.07921859
v -0.06285370 0.02295726 -0.06742971
v -0.06327220 0.02379558 -0.06505628
v -0.06122485 0.02576174 -0.07666761
v -0.06370348 0.02438160 -0.06261061
v -0.06414283 0.02470920 -0.06011857
v -0.06723977 0.02757698 -0.04255529
v -0.06171025 0.02757698 -0.07391475
v -0.06672403 0.02909025 -0.04547992
v -0.06222599 0.02909025 -0.07099001
v -0.06618374 0.03028466 -0.04854434
v -0.06276629 0.03028466 -0.06792559
v -0.06562468 0.03114732 -0.05171495
v -0.06332535 0.03114732 -0.06475498
v -0.06505295 0.03166873 -0.05495703
v -0.06389696 0.03166873 -0.06151290
v -0.06447501 0.03184323 -0.05823502
v -0.06817500 -0.02366408 -0.03725145
v -0.06502753 -0.02457803 -0.05510119
v -0.06546349 -0.02412056 -0.05262911
v -0.06588887 -0.02340741 -0.05021640
v -0.06858423 -0.02130724 -0.03493040
v -0.06629931 -0.02244610 -0.04788870
v -0.06669042 -0.02124701 -0.04567056
v -0.06894850 -0.01871698 -0.03286472
v -0.06705807 -0.01982256 -0.04358578
v -0.06739822 -0.01818804 -0.04165618
v -0.06913958 -0.01796782 -0.03178097
v -0.06770749 -0.01636069 -0.03990238
v -0.06933579 -0.01726416 -0.03066808
v -0.06953681 -0.01660732 -0.02952780
v -0.06974240 -0.01599828 -0.02836199
v -0.06798250 -0.01435983 -0.03834284
v -0.06995215 -0.01543801 -0.02717271
v -0.07016560 -0.01492762 -0.02596194
v -0.07038255 -0.01446776 -0.02473163
v -0.07060255 -0.01405929 -0.02348386
v -0.07082528 -0.01370299 -0.02222070
v -0.07105041 -0.01339928 -0.02094423
v -0.07127740 -0.01314873 -0.01965663
v -0.07336163 0.01334068 0.02027462
v -0.07336163 -0.01295186 0.02027462
v -0.07340005 -0.01295186 0.02071430
v -0.07340005 0.01334068 0.02071430
f 1 2 3
f 2 1 4
f 5 6 7
f 6 5 8
f 6 3 2
f 3 6 8
f 9 1 3
f 1 9 10
f 1 11 4
f 11 1 12
f 11 13 14
f 13 11 12
f 4 15 2
f 15 4 16
f 16 4 17
f 17 4 18
f 18 4 19
f 19 4 20
f 20 4 21
f 21 4 22
f 22 4 23
f 23 4 24
f 24 4 25
f 25 4 26
f 26 4 27
f 26 27 28
f 28 27 29
f 28 29 30
f 28 30 31
f 28 31 32
f 28 32 33
f 33 32 34
f 33 34 35
f 33 35 36
f 33 36 37
f 33 37 38
f 33 38 39
f 39 38 40
f 39 40 41
f 39 41 42
f 39 42 43
f 43 42 44
f 43 44 45
f 45 44 46
f 46 44 47
f 46 47 48
f 48 47 49
f 49 47 50
f 49 50 51
f 51 50 52
f 53 54 55
f 54 53 56
f 56 53 57
f 56 57 58
f 58 57 59
f 58 59 60
f 60 59 61
f 60 61 62
f 62 61 63
f 62 63 64
f 64 63 65
f 64 65 66
f 66 65 67
f 66 67 68
f 66 68 69
f 66 69 70
f 66 70 71
f 71 70 72
f 71 72 73
f 71 73 74
f 74 73 75
f 74 75 76
f 74 76 77
f 77 76 78
f 77 78 79
f 77 79 80
f 80 79 81
f 80 81 82
f 82 81 83
f 82 83 84
f 82 84 85
f 85 84 86
f 85 86 87
f 87 86 88
f 87 88 89
f 89 88 90
f 89 90 91
f 89 91 92
f 92 91 93
f 92 93 94
f 94 93 95
f 94 95 96
f 96 95 97
f 96 97 98
f 98 97 99
f 98 99 100
f 98 100 101
f 101 100 102
f 101 102 103
f 103 102 104
f 103 104 105
f 103 105 106
f 106 105 107
f 106 107 108
f 106 108 109
f 109 108 110
f 109 110 111
f 109 111 112
f 112 111 113
f 112 113 52
f 112 52 50
f 112 50 114
f 112 114 115
f 115 114 116
f 115 116 117
f 117 116 118
f 117 118 119
f 119 118 120
f 119 120 121
f 121 120 122
f 121 122 123
f 123 122 124
f 125 67 65
f 67 125 126
f 126 125 127
f 127 125 128
f 128 125 129
f 128 129 130
f 130 129 131
f 131 129 132
f 131 132 133
f 133 132 134
f 134 132 135
f 134 135 136
f 136 135 137
f 136 137 138
f 136 138 139
f 136 139 140
f 140 139 141
f 140 141 142
f 140 142 143
f 140 143 144
f 140 144 16
f 16 144 145
f 16 145 146
f 16 146 147
f 16 147 15
f 148 2 4
f 2 148 149
f 5 10 9
f 10 5 7
f 10 7 149
f 10 149 14
f 14 149 148
f 10 14 13
f 149 6 2
f 6 149 7
f 1 13 12
f 13 1 10
f 11 148 4
f 148 11 14
f 4 150 27
f 150 4 148
f 150 148 14
f 27 151 29
f 151 27 150
f 29 152 30
f 152 29 151
f 30 153 31
f 153 30 152
f 31 154 32
f 154 31 153
f 32 155 34
f 155 32 154
f 34 156 35
f 156 34 155
f 35 157 36
f 157 35 156
f 36 158 37
f 158 36 157
f 37 159 38
f 159 37 158
f 38 160 40
f 160 38 159
f 40 161 41
f 161 40 160
f 41 162 42
f 162 41 161
f 162 44 42
f 44 162 163
f 44 164 47
f 164 44 163
f 47 165 50
f 165 47 164
f 50 166 114
f 166 50 165
f 114 167 116
f 167 114 166
f 116 168 118
f 168 116 167
f 118 169 120
f 169 118 168
f 120 170 122
f 170 120 169
f 122 171 124
f 171 122 170
f 124 172 123
f 172 124 171
f 123 173 121
f 173 123 172
f 121 174 119
f 174 121 173
f 119 175 117
f 175 119 174
f 117 176 115
f 176 117 175
f 115 177 112
f 177 115 176
f 112 178 109
f 178 112 177
f 109 179 106
f 179 109 178
f 179 103 106
f 103 179 180
f 180 101 103
f 101 180 181
f 181 98 101
f 98 181 182
f 182 96 98
f 96 182 183
f 183 94 96
f 94 183 184
f 184 92 94
f 92 184 185
f 185 89 92
f 89 185 186
f 89 187 87
f 187 89 186
f 87 188 85
f 188 87 187
f 85 189 82
f 189 85 188
f 82 190 80
f 190 82 189
f 80 191 77
f 191 80 190
f 77 192 74
f 192 77 191
f 74 193 71
f 193 74 192
f 193 66 71
f 66 193 194
f 194 64 66
f 64 194 195
f 195 62 64
f 62 195 196
f 196 60 62
f 60 196 197
f 197 58 60
f 58 197 198
f 198 56 58
f 56 198 199
f 199 54 56
f 54 199 200
f 200 55 54
f 55 200 201
f 201 53 55
f 53 201 202
f 202 57 53
f 57 202 203
f 203 59 57
f 59 203 204
f 204 61 59
f 61 204 205
f 205 63 61
f 63 205 206
f 206 65 63
f 65 206 207
f 207 125 65
f 125 207 208
f 208 129 125
f 129 208 209
f 129 210 132
f 210 129 209
f 210 135 132
f 135 210 211
f 211 137 135
f 137 211 212
f 212 138 137
f 138 212 213
f 213 139 138
f 139 213 214
f 214 141 139
f 141 214 215
f 215 142 141
f 142 215 216
f 216 143 142
f 143 216 217
f 217 144 143
f 144 217 218
f 218 145 144
f 145 218 219
f 219 146 145
f 146 219 220
f 220 147 146
f 147 220 221
f 221 15 147
f 15 221 222
f 222 2 15
f 2 222 149
f 149 222 7
f 6 4 2
f 4 6 11
f 223 208 207
f 208 223 224
f 208 224 225
f 208 225 226
f 208 226 209
f 209 226 227
f 209 227 228
f 209 228 210
f 210 228 229
f 210 229 230
f 210 230 211
f 211 230 231
f 211 231 212
f 212 231 213
f 213 231 214
f 214 231 232
f 214 232 215
f 215 232 216
f 216 232 217
f 217 232 218
f 218 232 233
f 218 233 219
f 219 233 220
f 220 233 221
f 221 233 222
f 200 202 201
f 202 200 199
f 202 199 203
f 203 199 198
f 203 198 204
f 204 198 197
f 204 197 205
f 205 197 196
f 205 196 206
f 206 196 195
f 206 195 207
f 207 195 194
f 207 194 223
f 223 194 234
f 234 194 235
f 235 194 236
f 236 194 193
f 236 193 237
f 237 193 238
f 238 193 192
f 238 192 239
f 239 192 240
f 240 192 191
f 240 191 241
f 241 191 242
f 242 191 190
f 242 190 243
f 243 190 189
f 243 189 244
f 244 189 245
f 245 189 188
f 245 188 246
f 246 188 187
f 246 187 247
f 247 187 186
f 247 186 248
f 248 186 185
f 248 185 249
f 249 185 250
f 250 185 184
f 250 184 251
f 251 184 183
f 251 183 252
f 252 183 182
f 252 182 253
f 253 182 254
f 254 182 181
f 254 181 255
f 255 181 180
f 255 180 256
f 256 180 257
f 257 180 179
f 257 179 258
f 258 179 259
f 259 179 178
f 259 178 260
f 260 178 261
f 261 178 177
f 261 177 262
f 262 177 263
f 263 177 165
f 165 177 166
f 166 177 176
f 166 176 167
f 167 176 175
f 167 175 168
f 168 175 174
f 168 174 169
f 169 174 173
f 169 173 170
f 170 173 172
f 170 172 171
f 264 150 265
f 150 264 151
f 151 264 152
f 152 264 153
f 153 264 154
f 154 264 266
f 154 266 155
f 155 266 156
f 156 266 157
f 157 266 158
f 158 266 159
f 159 266 267
f 159 267 160
f 160 267 161
f 161 267 162
f 162 267 268
f 162 268 163
f 163 268 269
f 163 269 270
f 163 270 164
f 164 270 271
f 164 271 272
f 164 272 165
f 165 272 273
f 165 273 263
f 222 6 7
f 6 222 11
f 11 222 233
f 11 233 274
f 11 274 275
f 11 275 276
f 11 276 277
f 11 277 278
f 11 278 279
f 11 279 280
f 11 280 281
f 11 281 282
f 11 282 265
f 11 265 150
f 11 150 14
f 283 284 285
f 284 283 286
f 286 283 287
f 287 283 288
f 288 283 289
f 289 283 290
f 290 283 291
f 291 283 292
f 292 283 293
f 293 283 294
f 294 283 295
f 295 283 296
f 296 283 297
f 296 297 298
f 298 297 299
f 298 299 300
f 298 300 301
f 298 301 302
f 298 302 303
f 298 303 304
f 304 303 305
f 304 305 306
f 304 306 307
f 304 307 308
f 304 308 309
f 309 308 310
f 309 310 311
f 309 311 312
f 309 312 313
f 313 312 314
f 313 314 315
f 315 314 316
f 316 314 317
f 316 317 318
f 318 317 319
f 319 317 320
f 319 320 321
f 321 320 322
f 323 324 325
f 324 323 326
f 326 323 327
f 326 327 328
f 328 327 329
f 328 329 330
f 330 329 331
f 330 331 332
f 332 331 333
f 332 333 334
f 334 333 335
f 334 335 336
f 334 336 337
f 336 335 338
f 337 336 339
f 337 339 340
f 337 340 341
f 337 341 342
f 342 341 343
f 342 343 344
f 342 344 345
f 345 344 346
f 345 346 347
f 345 347 348
f 348 347 349
f 348 349 350
f 350 349 351
f 350 351 352
f 350 352 353
f 353 352 354
f 353 354 355
f 355 354 356
f 355 356 357
f 357 356 358
f 357 358 359
f 357 359 360
f 360 359 361
f 360 361 362
f 362 361 363
f 362 363 364
f 364 363 365
f 364 365 366
f 364 366 367
f 367 366 368
f 367 368 369
f 369 368 370
f 369 370 371
f 371 370 372
f 371 372 373
f 371 373 374
f 374 373 375
f 374 375 376
f 376 375 377
f 376 377 378
f 376 378 379
f 379 378 380
f 379 380 381
f 379 381 382
f 382 381 383
f 382 383 384
f 382 384 322
f 382 322 320
f 382 320 385
f 382 385 386
f 386 385 387
f 386 387 388
f 388 387 389
f 388 389 390
f 390 389 391
f 390 391 392
f 392 391 393
f 392 393 394
f 394 393 395
f 396 338 335
f 338 396 397
f 397 396 398
f 398 396 399
f 399 396 400
f 399 400 401
f 401 400 402
f 402 400 403
f 402 403 404
f 404 403 405
f 405 403 406
f 405 406 407
f 407 406 408
f 407 408 409
f 407 409 410
f 407 410 411
f 411 410 412
f 411 412 413
f 411 413 414
f 411 414 415
f 411 415 286
f 286 415 416
f 286 416 417
f 286 417 418
f 286 418 284
f 15 285 284
f 285 15 2
f 283 285 419
f 420 419 285
f 283 27 297
f 27 283 4
f 297 29 299
f 29 297 27
f 299 30 300
f 30 299 29
f 300 31 301
f 31 300 30
f 301 32 302
f 32 301 31
f 302 34 303
f 34 302 32
f 303 35 305
f 35 303 34
f 305 36 306
f 36 305 35
f 306 37 307
f 37 306 36
f 307 38 308
f 38 307 37
f 308 40 310
f 40 308 38
f 310 41 311
f 41 310 40
f 311 42 312
f 42 311 41
f 42 314 312
f 314 42 44
f 314 47 317
f 47 314 44
f 317 50 320
f 50 317 47
f 320 114 385
f 114 320 50
f 385 116 387
f 116 385 114
f 387 118 389
f 118 387 116
f 389 120 391
f 120 389 118
f 391 122 393
f 122 391 120
f 393 124 395
f 124 393 122
f 395 123 394
f 123 395 124
f 394 121 392
f 121 394 123
f 392 119 390
f 119 392 121
f 390 117 388
f 117 390 119
f 388 115 386
f 115 388 117
f 386 112 382
f 112 386 115
f 382 109 379
f 109 382 112
f 379 106 376
f 106 379 109
f 106 374 376
f 374 106 103
f 103 371 374
f 371 103 101
f 101 369 371
f 369 101 98
f 98 367 369
f 367 98 96
f 96 364 367
f 364 96 94
f 94 362 364
f 362 94 92
f 92 360 362
f 360 92 89
f 360 87 357
f 87 360 89
f 357 85 355
f 85 357 87
f 355 82 353
f 82 355 85
f 353 80 350
f 80 353 82
f 350 77 348
f 77 350 80
f 348 74 345
f 74 348 77
f 345 71 342
f 71 345 74
f 71 337 342
f 337 71 66
f 66 334 337
f 334 66 64
f 64 332 334
f 332 64 62
f 62 330 332
f 330 62 60
f 60 328 330
f 328 60 58
f 58 326 328
f 326 58 56
f 56 324 326
f 324 56 54
f 54 325 324
f 325 54 55
f 55 323 325
f 323 55 53
f 53 327 323
f 327 53 57
f 57 329 327
f 329 57 59
f 59 331 329
f 331 59 61
f 61 333 331
f 333 61 63
f 63 335 333
f 335 63 65
f 65 396 335
f 396 65 125
f 125 400 396
f 400 125 129
f 400 132 403
f 132 400 129
f 132 406 403
f 406 132 135
f 135 408 406
f 408 135 137
f 137 409 408
f 409 137 138
f 138 410 409
f 410 138 139
f 139 412 410
f 412 139 141
f 141 413 412
f 413 141 142
f 142 414 413
f 414 142 143
f 143 415 414
f 415 143 144
f 144 416 415
f 416 144 145
f 145 417 416
f 417 145 146
f 146 418 417
f 418 146 147
f 147 284 418
f 284 147 15
f 2 420 285
f 420 2 3
f 1 4 419
f 283 419 4
f 285 419 420
f 419 285 283
f 4 419 283
f 419 4 1
f 2 283 285
f 283 2 4
f 3 419 420
f 419 3 1
f 422 419 1
f 421 420 3
f 422 420 421
f 420 422 419
f 1 419 422
f 5 3 8
f 3 5 9

