# https://github.com/mikedh/trimesh
v -0.05000017 -0.14493439 0.11354135
v -0.14687519 -0.14493439 -0.15937538
v -0.05000017 -0.14493439 -0.15937538
v -0.14687519 -0.14493439 0.11354135
v -0.00000000 -0.14910112 0.16354211
v -0.05000017 -0.14910112 -0.20937497
v -0.00000000 -0.14910112 -0.20937497
v -0.05000017 -0.14910112 0.16354211
v -0.00000000 -0.13660093 -0.20937497
v -0.05000017 -0.13660093 0.16354211
v -0.05000017 -0.13660093 -0.20937497
v -0.00000000 -0.13660093 0.16354211
v -0.14687519 -0.14910112 0.16354211
v -0.19687536 -0.14910112 -0.20937497
v -0.14687519 -0.14910112 -0.20937497
v -0.19687536 -0.14910112 0.16354211
v -0.14687519 -0.13660093 -0.20937497
v -0.19687536 -0.13660093 0.16354211
v -0.19687536 -0.13660093 -0.20937497
v -0.14687519 -0.13660093 0.16354211
v -0.05000017 -0.13660093 0.16354152
v -0.14687519 -0.14910112 0.16354152
v -0.05000017 -0.14910112 0.16354152
v -0.14687519 -0.13660093 0.16354152
v -0.05000017 -0.14910112 0.11354193
v -0.14687519 -0.13660093 0.11354193
v -0.14687519 -0.14910112 0.11354193
v -0.05000017 -0.13660093 0.11354193
v -0.05000017 -0.13660093 -0.15937538
v -0.14687519 -0.14910112 -0.15937538
v -0.05000017 -0.14910112 -0.15937538
v -0.14687519 -0.13660093 -0.15937538
v -0.14687519 -0.13660093 0.11354135
v -0.05000017 -0.13660093 0.11354135
v -0.01615963 -0.14841657 0.16353336
v -0.05053486 -0.14984397 0.16294036
v -0.05053486 -0.14841657 0.16353336
v -0.01615963 -0.14984397 0.16294036
v -0.05053486 -0.14868071 0.16486396
v -0.01615963 -0.13660093 0.16354152
v -0.01615963 -0.14868071 0.16486396
v -0.01615963 -0.15581301 0.15695557
v -0.05053486 -0.15059556 0.16406863
v -0.05053486 -0.13527382 0.16487329
v -0.05053486 -0.13660093 0.16354152
v -0.01615963 -0.13527382 0.16487329
v -0.01615963 -0.15059556 0.16406863
v -0.05053486 -0.15581301 0.15695557
v -0.01615963 -0.13660093 0.15096087
v -0.01615963 -0.13527382 0.15096087
v -0.01615963 -0.15556520 0.15482206
v -0.01615963 -0.15675120 0.15789609
v -0.05053486 -0.15675120 0.15789609
v -0.05053486 -0.13660093 0.15096087
v -0.05053486 -0.15556520 0.15482206
v -0.05053486 -0.13527382 0.15096087
v -0.01615963 -0.15715761 0.15192704
v -0.05053486 -0.15715761 0.15192704
v -0.01615963 -0.15887888 0.15814506
v -0.05053486 -0.15887888 0.15814506
v -0.05053486 -0.16003747 0.15029032
v -0.01615963 -0.16003747 0.15029032
v -0.01615963 -0.16176632 0.15654858
v -0.05053486 -0.16176632 0.15654858
v -0.05053486 -0.16222346 0.15037312
v -0.01615963 -0.16222346 0.15037312
v -0.01615963 -0.16339896 0.15366055
v -0.01615963 -0.16331616 0.15146873
v -0.05053486 -0.16331616 0.15146873
v -0.05053486 -0.16339896 0.15366055
v -0.25312505 -0.14493439 0.11354135
v -0.44687507 -0.14493439 -0.15937538
v -0.25312505 -0.14493439 -0.15937538
v -0.44687507 -0.14493439 0.11354135
v -0.20312487 -0.14910112 0.16354211
v -0.25312505 -0.14910112 -0.20937497
v -0.20312487 -0.14910112 -0.20937497
v -0.25312505 -0.14910112 0.16354211
v -0.20312487 -0.13660093 -0.20937497
v -0.25312505 -0.13660093 0.16354211
v -0.25312505 -0.13660093 -0.20937497
v -0.20312487 -0.13660093 0.16354211
v -0.25312505 -0.13660093 0.16354152
v -0.44687507 -0.14910112 0.16354152
v -0.25312505 -0.14910112 0.16354152
v -0.44687507 -0.13660093 0.16354152
v -0.25312505 -0.14910112 0.11354193
v -0.44687507 -0.13660093 0.11354193
v -0.44687507 -0.14910112 0.11354193
v -0.25312505 -0.13660093 0.11354193
v -0.44687507 -0.14910112 0.16354211
v -0.49687524 -0.14910112 -0.20937497
v -0.44687507 -0.14910112 -0.20937497
v -0.49687524 -0.14910112 0.16354211
v -0.44687507 -0.13660093 -0.20937497
v -0.49687524 -0.13660093 0.16354211
v -0.49687524 -0.13660093 -0.20937497
v -0.44687507 -0.13660093 0.16354211
v -0.25312505 -0.13660093 -0.15937538
v -0.44687507 -0.14910112 -0.15937538
v -0.25312505 -0.14910112 -0.15937538
v -0.44687507 -0.13660093 -0.15937538
v -0.44687507 -0.13660093 0.11354135
v -0.25312505 -0.13660093 0.11354135
v -0.21928451 -0.14841657 0.16353336
v -0.25365974 -0.14984397 0.16294036
v -0.25365974 -0.14841657 0.16353336
v -0.21928451 -0.14984397 0.16294036
v -0.25365974 -0.14868071 0.16486396
v -0.21928451 -0.13660093 0.16354152
v -0.21928451 -0.14868071 0.16486396
v -0.21928451 -0.15581301 0.15695557
v -0.25365974 -0.15059556 0.16406863
v -0.25365974 -0.13527382 0.16487329
v -0.25365974 -0.13660093 0.16354152
v -0.21928451 -0.13527382 0.16487329
v -0.21928451 -0.15059556 0.16406863
v -0.25365974 -0.15581301 0.15695557
v -0.21928451 -0.13660093 0.15096087
v -0.21928451 -0.13527382 0.15096087
v -0.21928451 -0.15556520 0.15482206
v -0.21928451 -0.15675120 0.15789609
v -0.25365974 -0.15675120 0.15789609
v -0.25365974 -0.13660093 0.15096087
v -0.25365974 -0.15556520 0.15482206
v -0.25365974 -0.13527382 0.15096087
v -0.21928451 -0.15715761 0.15192704
v -0.25365974 -0.15715761 0.15192704
v -0.21928451 -0.15887888 0.15814506
v -0.25365974 -0.15887888 0.15814506
v -0.25365974 -0.16003747 0.15029032
v -0.21928451 -0.16003747 0.15029032
v -0.21928451 -0.16176632 0.15654858
v -0.25365974 -0.16176632 0.15654858
v -0.25365974 -0.16222346 0.15037312
v -0.21928451 -0.16222346 0.15037312
v -0.21928451 -0.16339896 0.15366055
v -0.21928451 -0.16331616 0.15146873
v -0.25365974 -0.16331616 0.15146873
v -0.25365974 -0.16339896 0.15366055
v 0.45104180 -0.12410132 0.19895814
v 0.24895832 -0.13660093 0.19895814
v 0.24895832 -0.12410132 0.19895814
v 0.45104180 -0.13660093 0.19895814
v 0.24895832 -0.12410132 0.24895832
v 0.45104180 -0.13660093 0.24895832
v 0.45104180 -0.12410132 0.24895832
v 0.24895832 -0.13660093 0.24895832
v 0.49687524 -0.14910112 0.28437494
v 0.44687507 -0.14910112 0.16979162
v 0.49687524 -0.14910112 0.16979162
v 0.44687507 -0.14910112 0.28437494
v 0.49687524 -0.13660093 0.16979162
v 0.44687507 -0.13660093 0.28437494
v 0.44687507 -0.13660093 0.16979162
v 0.49687524 -0.13660093 0.28437494
v 0.25312505 -0.14910112 0.28437494
v 0.25312505 -0.13660093 0.28437494
v 0.44687507 -0.14910112 0.24270822
v 0.25312505 -0.13660093 0.24270822
v 0.25312505 -0.14910112 0.24270822
v 0.44687507 -0.13660093 0.24270822
v 0.20312487 -0.14910112 0.16979162
v 0.25312505 -0.14910112 0.16979162
v 0.20312487 -0.14910112 0.28437494
v 0.25312505 -0.13660093 0.16979162
v 0.20312487 -0.13660093 0.28437494
v 0.20312487 -0.13660093 0.16979162
v 0.44687507 -0.13660093 0.21145833
v 0.25312505 -0.14910112 0.21145833
v 0.44687507 -0.14910112 0.21145833
v 0.25312505 -0.13660093 0.21145833
v 0.44687507 -0.14493439 0.24270822
v 0.25312505 -0.14493439 0.21145833
v 0.44687507 -0.14493439 0.21145833
v 0.25312505 -0.14493439 0.24270822
v 0.23645813 0.09673245 0.24895832
v 0.23645813 -0.13660093 0.19895814
v 0.23645813 -0.13660093 0.24895832
v 0.23645813 0.09673245 0.19895814
v 0.24895832 0.09673245 0.19895814
v 0.24895832 0.09673245 0.24895832
v 0.45104180 0.09673245 0.24895832
v 0.45104180 0.09673245 0.19895814
v 0.46354199 -0.13660093 0.24895832
v 0.46354199 0.09673245 0.19895814
v 0.46354199 -0.13660093 0.19895814
v 0.46354199 0.09673245 0.24895832
v 0.45102489 -0.02410097 0.23645813
v 0.45102489 -0.07410114 0.22120811
v 0.45102489 -0.07410114 0.23645813
v 0.45102489 -0.02410097 0.22120811
v 0.24895832 0.08423226 0.19895814
v 0.45104180 0.08423226 0.19895814
v 0.45104180 0.08423226 0.24895832
v 0.24895832 0.08423226 0.24895832
v 0.45104180 0.08423226 0.20729160
v 0.24895832 -0.12410132 0.20729160
v 0.24895832 0.08423226 0.20729160
v 0.45104180 -0.12410132 0.20729160
v 0.45104180 -0.12410132 0.21041694
v 0.24895832 0.08423226 0.21041694
v 0.24895832 -0.12410132 0.21041694
v 0.45104180 0.08423226 0.21041694
v 0.36717368 -0.16222346 0.27120653
v 0.33279903 -0.16331616 0.27230215
v 0.33279903 -0.16222346 0.27120653
v 0.36717368 -0.16331616 0.27230215
v 0.33279903 -0.16176632 0.27738199
v 0.36717368 -0.16003747 0.27112315
v 0.36717368 -0.16176632 0.27738199
v 0.33279903 -0.16339896 0.27449397
v 0.33279903 -0.16003747 0.27112315
v 0.36717368 -0.16339896 0.27449397
v 0.33279903 -0.15887888 0.27897790
v 0.36717368 -0.15715761 0.27275987
v 0.36717368 -0.15887888 0.27897790
v 0.33279903 -0.15715761 0.27275987
v 0.33279903 -0.15675120 0.27872950
v 0.33279903 -0.15556520 0.27565548
v 0.36717368 -0.15675120 0.27872950
v 0.36717368 -0.15556520 0.27565548
v 0.33279903 -0.15581301 0.27778840
v 0.36717368 -0.15581301 0.27778840
v 0.33279903 -0.15059556 0.28490205
v 0.36717368 -0.15059556 0.28490205
v 0.33279903 -0.14984397 0.28377378
v 0.36717368 -0.14984397 0.28377378
v 0.33279903 -0.14868071 0.28569738
v 0.36717368 -0.14868071 0.28569738
v 0.33279903 -0.14841657 0.28436677
v 0.36717368 -0.14841657 0.28436677
v 0.33279903 -0.13527382 0.28570671
v 0.36717368 -0.13527382 0.28570671
v 0.33279903 -0.13660093 0.28437494
v 0.36717368 -0.13660093 0.28437494
v 0.36717368 -0.13527382 0.27179428
v 0.33279903 -0.13660093 0.27179428
v 0.33279903 -0.13527382 0.27179428
v 0.36717368 -0.13660093 0.27179428
v -0.20312487 -0.14910112 0.28437494
v -0.25312505 -0.14910112 0.16979162
v -0.20312487 -0.14910112 0.16979162
v -0.25312505 -0.14910112 0.28437494
v -0.20312487 -0.13660093 0.16979162
v -0.25312505 -0.13660093 0.28437494
v -0.25312505 -0.13660093 0.16979162
v -0.20312487 -0.13660093 0.28437494
v -0.44687507 -0.14910112 0.28437494
v -0.44687507 -0.13660093 0.28437494
v -0.25312505 -0.14910112 0.24270822
v -0.44687507 -0.13660093 0.24270822
v -0.44687507 -0.14910112 0.24270822
v -0.25312505 -0.13660093 0.24270822
v -0.49687524 -0.14910112 0.16979162
v -0.44687507 -0.14910112 0.16979162
v -0.49687524 -0.14910112 0.28437494
v -0.44687507 -0.13660093 0.16979162
v -0.49687524 -0.13660093 0.28437494
v -0.49687524 -0.13660093 0.16979162
v -0.25312505 -0.14493439 0.24270822
v -0.44687507 -0.14493439 0.21145833
v -0.25312505 -0.14493439 0.21145833
v -0.44687507 -0.14493439 0.24270822
v -0.25312505 -0.13660093 0.21145833
v -0.44687507 -0.14910112 0.21145833
v -0.25312505 -0.14910112 0.21145833
v -0.44687507 -0.13660093 0.21145833
v -0.24895832 -0.12410132 0.19895814
v -0.45104180 -0.13660093 0.19895814
v -0.45104180 -0.12410132 0.19895814
v -0.24895832 -0.13660093 0.19895814
v -0.45104180 -0.12410132 0.24895832
v -0.24895832 -0.13660093 0.24895832
v -0.24895832 -0.12410132 0.24895832
v -0.45104180 -0.13660093 0.24895832
v -0.46354199 0.09673245 0.24895832
v -0.46354199 -0.13660093 0.19895814
v -0.46354199 -0.13660093 0.24895832
v -0.46354199 0.09673245 0.19895814
v -0.45104180 0.09673245 0.19895814
v -0.45104180 0.09673245 0.24895832
v -0.24897523 -0.02410097 0.23645813
v -0.24897523 -0.07410114 0.22120811
v -0.24897523 -0.07410114 0.23645813
v -0.24897523 -0.02410097 0.22120811
v -0.24895832 0.09673245 0.24895832
v -0.24895832 0.09673245 0.19895814
v -0.23645871 -0.13660093 0.24895832
v -0.23645871 0.09673245 0.19895814
v -0.23645871 -0.13660093 0.19895814
v -0.23645871 0.09673245 0.24895832
v -0.45104180 0.08423226 0.19895814
v -0.24895832 0.08423226 0.19895814
v -0.24895832 0.08423226 0.24895832
v -0.45104180 0.08423226 0.24895832
v -0.24895832 -0.12410132 0.21041694
v -0.45104180 0.08423226 0.21041694
v -0.45104180 -0.12410132 0.21041694
v -0.24895832 0.08423226 0.21041694
v -0.24895832 0.08423226 0.20729160
v -0.45104180 -0.12410132 0.20729160
v -0.45104180 0.08423226 0.20729160
v -0.24895832 -0.12410132 0.20729160
v -0.33282644 -0.16222346 0.27120653
v -0.36720167 -0.16331616 0.27230215
v -0.36720167 -0.16222346 0.27120653
v -0.33282644 -0.16331616 0.27230215
v -0.36720167 -0.16176632 0.27738199
v -0.33282644 -0.16003747 0.27112315
v -0.33282644 -0.16176632 0.27738199
v -0.36720167 -0.16339896 0.27449397
v -0.36720167 -0.16003747 0.27112315
v -0.33282644 -0.16339896 0.27449397
v -0.36720167 -0.15887888 0.27897790
v -0.33282644 -0.15715761 0.27275987
v -0.33282644 -0.15887888 0.27897790
v -0.36720167 -0.15715761 0.27275987
v -0.36720167 -0.15675120 0.27872950
v -0.36720167 -0.15556520 0.27565548
v -0.33282644 -0.15675120 0.27872950
v -0.33282644 -0.15556520 0.27565548
v -0.36720167 -0.15581301 0.27778840
v -0.33282644 -0.15581301 0.27778840
v -0.36720167 -0.15059556 0.28490205
v -0.33282644 -0.15059556 0.28490205
v -0.36720167 -0.14984397 0.28377378
v -0.33282644 -0.14984397 0.28377378
v -0.36720167 -0.14868071 0.28569738
v -0.33282644 -0.14868071 0.28569738
v -0.36720167 -0.14841657 0.28436677
v -0.33282644 -0.14841657 0.28436677
v -0.36720167 -0.13527382 0.28570671
v -0.33282644 -0.13527382 0.28570671
v -0.36720167 -0.13660093 0.28437494
v -0.33282644 -0.13660093 0.28437494
v -0.33282644 -0.13527382 0.27179428
v -0.36720167 -0.13660093 0.27179428
v -0.36720167 -0.13527382 0.27179428
v -0.33282644 -0.13660093 0.27179428
v 0.44687507 -0.14493439 0.11354135
v 0.25312505 -0.14493439 -0.15937538
v 0.44687507 -0.14493439 -0.15937538
v 0.25312505 -0.14493439 0.11354135
v 0.49687524 -0.14910112 0.16354211
v 0.44687507 -0.13660093 0.16354211
v 0.44687507 -0.14910112 0.16354211
v 0.49687524 -0.13660093 0.16354211
v 0.44687507 -0.14910112 -0.20937497
v 0.49687524 -0.13660093 -0.20937497
v 0.44687507 -0.13660093 -0.20937497
v 0.49687524 -0.14910112 -0.20937497
v 0.44687507 -0.13660093 -0.15937538
v 0.25312505 -0.13660093 -0.20937497
v 0.25312505 -0.13660093 -0.15937538
v 0.25312505 -0.14910112 -0.15937538
v 0.44687507 -0.14910112 -0.15937538
v 0.25312505 -0.14910112 -0.20937497
v 0.25312505 -0.14910112 0.16354211
v 0.20312487 -0.13660093 0.16354211
v 0.20312487 -0.14910112 0.16354211
v 0.25312505 -0.13660093 0.16354211
v 0.20312487 -0.14910112 -0.20937497
v 0.20312487 -0.13660093 -0.20937497
v 0.44687507 -0.13660093 0.16354152
v 0.25312505 -0.13660093 0.11354193
v 0.25312505 -0.13660093 0.16354152
v 0.44687507 -0.13660093 0.11354193
v 0.25312505 -0.14910112 0.16354152
v 0.44687507 -0.14910112 0.11354193
v 0.44687507 -0.14910112 0.16354152
v 0.25312505 -0.14910112 0.11354193
v 0.25312505 -0.13660093 0.11354135
v 0.44687507 -0.13660093 0.11354135
v 0.25364574 -0.13660093 0.16354152
v 0.21927110 -0.14841657 0.16353336
v 0.21927110 -0.13660093 0.16354152
v 0.25364574 -0.14841657 0.16353336
v 0.21927110 -0.13527382 0.16487329
v 0.25364574 -0.13660093 0.15096087
v 0.25364574 -0.13527382 0.16487329
v 0.21927110 -0.14984397 0.16294036
v 0.21927110 -0.14868129 0.16486396
v 0.21927110 -0.13660093 0.15096087
v 0.25364574 -0.13527382 0.15096087
v 0.25364574 -0.14868129 0.16486396
v 0.25364574 -0.14984397 0.16294036
v 0.21927110 -0.13527382 0.15096087
v 0.25364574 -0.15581301 0.15695557
v 0.21927110 -0.15059556 0.16406863
v 0.25364574 -0.15059556 0.16406863
v 0.21927110 -0.15581301 0.15695557
v 0.25364574 -0.15556520 0.15482206
v 0.25364574 -0.15675120 0.15789609
v 0.21927110 -0.15675120 0.15789609
v 0.21927110 -0.15556520 0.15482206
v 0.25364574 -0.15715761 0.15192704
v 0.21927110 -0.15715761 0.15192704
v 0.25364574 -0.15887888 0.15814506
v 0.21927110 -0.15887888 0.15814506
v 0.21927110 -0.16003747 0.15029032
v 0.25364574 -0.16003747 0.15029032
v 0.25364574 -0.16176632 0.15654858
v 0.21927110 -0.16176632 0.15654858
v 0.21927110 -0.16222346 0.15037312
v 0.25364574 -0.16222346 0.15037312
v 0.25364574 -0.16339896 0.15366055
v 0.25364574 -0.16331616 0.15146873
v 0.21927110 -0.16331616 0.15146873
v 0.21927110 -0.16339896 0.15366055
v 0.14687519 -0.14493439 0.11354135
v 0.05000017 -0.14493439 -0.15937538
v 0.14687519 -0.14493439 -0.15937538
v 0.05000017 -0.14493439 0.11354135
v 0.14687519 -0.13660093 0.16354152
v 0.05000017 -0.13660093 0.11354193
v 0.05000017 -0.13660093 0.16354152
v 0.14687519 -0.13660093 0.11354193
v 0.05000017 -0.14910112 0.16354152
v 0.14687519 -0.14910112 0.11354193
v 0.14687519 -0.14910112 0.16354152
v 0.05000017 -0.14910112 0.11354193
v 0.05000017 -0.14910112 0.16354211
v 0.05000017 -0.13660093 0.16354211
v 0.05000017 -0.13660093 -0.20937497
v 0.05000017 -0.14910112 -0.20937497
v 0.19687478 -0.14910112 0.16354211
v 0.14687519 -0.13660093 0.16354211
v 0.14687519 -0.14910112 0.16354211
v 0.19687478 -0.13660093 0.16354211
v 0.14687519 -0.14910112 -0.20937497
v 0.19687478 -0.13660093 -0.20937497
v 0.14687519 -0.13660093 -0.20937497
v 0.19687478 -0.14910112 -0.20937497
v 0.14687519 -0.13660093 -0.15937538
v 0.05000017 -0.13660093 -0.15937538
v 0.05000017 -0.14910112 -0.15937538
v 0.14687519 -0.14910112 -0.15937538
v 0.05000017 -0.13660093 0.11354135
v 0.14687519 -0.13660093 0.11354135
v 0.05052087 -0.13660093 0.16354152
v 0.01614564 -0.14841657 0.16353336
v 0.01614564 -0.13660093 0.16354152
v 0.05052087 -0.14841657 0.16353336
v 0.01614564 -0.13527382 0.16487329
v 0.05052087 -0.13660093 0.15096087
v 0.05052087 -0.13527382 0.16487329
v 0.01614564 -0.14984397 0.16294036
v 0.01614564 -0.14868129 0.16486396
v 0.01614564 -0.13660093 0.15096087
v 0.05052087 -0.13527382 0.15096087
v 0.05052087 -0.14868129 0.16486396
v 0.05052087 -0.14984397 0.16294036
v 0.01614564 -0.13527382 0.15096087
v 0.05052087 -0.15581301 0.15695557
v 0.01614564 -0.15059556 0.16406863
v 0.05052087 -0.15059556 0.16406863
v 0.01614564 -0.15581301 0.15695557
v 0.05052087 -0.15556520 0.15482206
v 0.05052087 -0.15675120 0.15789609
v 0.01614564 -0.15675120 0.15789609
v 0.01614564 -0.15556520 0.15482206
v 0.05052087 -0.15715761 0.15192704
v 0.01614564 -0.15715761 0.15192704
v 0.05052087 -0.15887888 0.15814506
v 0.01614564 -0.15887888 0.15814506
v 0.01614564 -0.16003747 0.15029032
v 0.05052087 -0.16003747 0.15029032
v 0.05052087 -0.16176632 0.15654858
v 0.01614564 -0.16176632 0.15654858
v 0.01614564 -0.16222346 0.15037312
v 0.05052087 -0.16222346 0.15037312
v 0.05052087 -0.16339896 0.15366055
v 0.05052087 -0.16331616 0.15146873
v 0.01614564 -0.16331616 0.15146873
v 0.01614564 -0.16339896 0.15366055
v 0.49583327 0.16339896 -0.21250031
v 0.48749981 0.16339896 -0.21250031
v 0.49583327 0.16339896 0.28750028
v 0.48749981 0.16339896 0.28750028
v 0.49583327 -0.08451797 -0.21250031
v 0.48749981 -0.08451797 0.28750028
v 0.49583327 -0.08451797 0.28750028
v 0.48749981 -0.08451797 -0.21250031
v -0.49583327 0.16339896 0.28750028
v -0.48750039 0.16339896 -0.21250031
v -0.49583327 0.16339896 -0.21250031
v -0.48750039 0.16339896 0.28750028
v -0.49583327 -0.08451797 -0.21250031
v -0.48750039 -0.08451797 0.28750028
v -0.49583327 -0.08451797 0.28750028
v -0.48750039 -0.08451797 -0.21250031
v -0.48750039 0.15089877 0.26666663
v 0.48750039 0.15089877 -0.20000012
v -0.48750039 0.15089877 -0.20000012
v 0.48750039 0.15089877 0.26666663
v 0.48750039 0.14464867 0.26666663
v -0.48750039 0.14464867 0.26666663
v -0.48750039 0.14464867 -0.20000012
v 0.48750039 0.14464867 -0.20000012
v 0.48750039 -0.12410132 -0.19166666
v -0.48750039 0.14464926 -0.19166666
v -0.48750039 -0.12410132 -0.19166666
v 0.48750039 0.14464926 -0.19166666
v -0.17500032 -0.13660093 0.26249990
v -0.22499991 -0.13660093 0.17916647
v -0.17500032 -0.13660093 0.17916647
v -0.22499991 -0.13660093 0.26249990
v -0.17500032 -0.12410132 0.17916647
v -0.22499991 -0.12410132 0.26249990
v -0.17500032 -0.12410132 0.26249990
v -0.22499991 -0.12410132 0.17916647
v -0.17500032 -0.12410132 -0.18749993
v -0.17500032 -0.13660093 0.15416667
v -0.17500032 -0.13660093 -0.18749993
v -0.17500032 -0.12410132 0.15416667
v -0.22499991 -0.13660093 -0.18749993
v -0.22499991 -0.12410132 0.15416667
v -0.22499991 -0.13660093 0.15416667
v -0.22499991 -0.12410132 -0.18749993
v -0.47500020 -0.12410132 -0.21250031
v -0.50000000 -0.13660093 -0.21250031
v -0.50000000 -0.12410132 -0.21250031
v -0.47500020 -0.13660093 -0.21250031
v -0.50000000 -0.12410132 0.28750028
v -0.47500020 -0.13660093 0.28750028
v -0.50000000 -0.13660093 0.28750028
v -0.47500020 -0.12410132 0.28750028
v 0.47500020 -0.13660093 0.17916647
v -0.47500020 -0.13660093 0.15416667
v 0.47500020 -0.13660093 0.15416667
v -0.47500020 -0.13660093 0.17916647
v 0.47500020 -0.12410132 0.15416667
v -0.47500020 -0.12410132 0.17916647
v -0.47500020 -0.12410132 0.15416667
v 0.47500020 -0.12410132 0.17916647
v 0.47500020 -0.13660093 0.28750028
v -0.47500020 -0.13660093 0.26249990
v 0.47500020 -0.13660093 0.26249990
v 0.47500020 -0.12410132 0.26249990
v -0.47500020 -0.12410132 0.26249990
v 0.47500020 -0.12410132 0.28750028
v 0.48749981 -0.12410132 0.27500009
v 0.48749981 0.15089877 0.27500009
v 0.43750022 -0.12410132 0.27500009
v 0.43750022 0.15089877 0.27500009
v 0.43750022 0.15089877 0.26666663
v 0.43750022 -0.12410132 0.26666663
v 0.48749981 0.15089877 0.26666663
v 0.48749981 -0.12410132 0.26666663
v -0.43750022 -0.12410132 0.27500009
v -0.48750039 0.15089877 0.27500009
v -0.48750039 -0.12410132 0.27500009
v -0.43750022 0.15089877 0.27500009
v -0.43750022 0.15089877 0.26666663
v -0.43750022 -0.12410132 0.26666663
v -0.48750039 -0.12410132 0.26666663
v -0.48750039 -0.12410132 0.28750028
v -0.49583327 -0.12410132 0.28750028
v -0.49583327 -0.12410132 -0.21250031
v -0.48750039 -0.12410132 -0.21250031
v 0.49583327 -0.12410132 0.28750028
v 0.48749981 -0.12410132 0.28750028
v 0.49583327 -0.12410132 -0.21250031
v 0.48749981 -0.12410132 -0.21250031
v 0.50000000 -0.12410132 -0.21250031
v 0.47500020 -0.13660093 -0.21250031
v 0.47500020 -0.12410132 -0.21250031
v 0.50000000 -0.13660093 -0.21250031
v 0.50000000 -0.13660093 0.28750028
v 0.50000000 -0.12410132 0.28750028
v 0.22499991 -0.13660093 0.26249990
v 0.17499974 -0.13660093 0.17916647
v 0.22499991 -0.13660093 0.17916647
v 0.17499974 -0.13660093 0.26249990
v 0.22499991 -0.12410132 0.17916647
v 0.17499974 -0.12410132 0.26249990
v 0.22499991 -0.12410132 0.26249990
v 0.17499974 -0.12410132 0.17916647
v 0.22499991 -0.12410132 -0.18749993
v 0.22499991 -0.13660093 0.15416667
v 0.22499991 -0.13660093 -0.18749993
v 0.22499991 -0.12410132 0.15416667
v 0.17499974 -0.13660093 -0.18749993
v 0.17499974 -0.12410132 0.15416667
v 0.17499974 -0.13660093 0.15416667
v 0.17499974 -0.12410132 -0.18749993
v 0.48750039 0.16339896 0.23750010
v -0.48750039 0.16339896 0.23750010
v 0.48750039 0.16339896 0.28750028
v -0.48750039 0.15089877 0.23750010
v 0.48750039 0.15089877 0.28750028
v 0.48750039 0.15089877 0.23750010
v -0.48750039 0.15089877 0.28750028
v 0.47500020 -0.13660093 -0.18749993
v -0.47500020 -0.13660093 -0.18749993
v -0.47500020 -0.12410132 -0.18749993
v 0.47500020 -0.12410132 -0.18749993
v -0.33749987 0.15089877 -0.18958329
v -0.48750039 0.15089877 -0.18958329
v -0.33749987 0.15089877 -0.14383323
v -0.48750039 0.15089877 -0.14383323
v 0.48750039 -0.08451797 -0.20000012
v -0.48750039 -0.08451797 -0.28750028
v 0.48750039 -0.08451797 -0.28750028
v -0.48750039 -0.08451797 -0.20000012
v 0.49583327 0.16339896 -0.28750028
v 0.48749981 0.16339896 -0.28750028
v 0.49583327 -0.08451797 -0.28750028
v 0.48749981 -0.08451797 -0.28750028
v 0.48750039 0.16339896 -0.18958329
v -0.48750039 0.16339896 -0.18958329
v 0.48750039 0.15089877 -0.18958329
v 0.48750039 0.16339896 -0.28750028
v -0.48750039 0.16339896 -0.28750028
v -0.49583327 0.16339896 -0.28750028
v -0.49583327 -0.08451797 -0.28750028
v 0.14687519 -0.14493439 0.24270822
v -0.14687519 -0.14493439 0.21145833
v 0.14687519 -0.14493439 0.21145833
v -0.14687519 -0.14493439 0.24270822
v 0.14687519 -0.13660093 0.28437494
v -0.14687519 -0.14910112 0.28437494
v 0.14687519 -0.14910112 0.28437494
v -0.14687519 -0.13660093 0.28437494
v 0.14687519 -0.14910112 0.24270822
v -0.14687519 -0.13660093 0.24270822
v -0.14687519 -0.14910112 0.24270822
v 0.14687519 -0.13660093 0.24270822
v -0.19687536 -0.14910112 0.16979162
v -0.14687519 -0.14910112 0.16979162
v -0.19687536 -0.14910112 0.28437494
v -0.14687519 -0.13660093 0.16979162
v -0.19687536 -0.13660093 0.28437494
v -0.19687536 -0.13660093 0.16979162
v 0.19687478 -0.14910112 0.28437494
v 0.14687519 -0.14910112 0.16979162
v 0.19687478 -0.14910112 0.16979162
v 0.19687478 -0.13660093 0.16979162
v 0.14687519 -0.13660093 0.16979162
v 0.19687478 -0.13660093 0.28437494
v 0.14687519 -0.13660093 0.21145833
v -0.14687519 -0.14910112 0.21145833
v 0.14687519 -0.14910112 0.21145833
v -0.14687519 -0.13660093 0.21145833
f 1 2 3
f 2 1 4
f 3 2 1
f 4 1 2
f 5 6 7
f 6 5 8
f 6 9 7
f 9 5 7
f 5 10 8
f 10 6 8
f 9 6 11
f 5 9 12
f 10 5 12
f 6 10 11
f 10 9 11
f 9 10 12
f 7 6 5
f 8 5 6
f 7 9 6
f 7 5 9
f 8 10 5
f 8 6 10
f 11 6 9
f 12 9 5
f 12 5 10
f 11 10 6
f 11 9 10
f 12 10 9
f 13 14 15
f 14 13 16
f 14 17 15
f 17 13 15
f 13 18 16
f 18 14 16
f 17 14 19
f 13 17 20
f 18 13 20
f 14 18 19
f 18 17 19
f 17 18 20
f 15 14 13
f 16 13 14
f 15 17 14
f 15 13 17
f 16 18 13
f 16 14 18
f 19 14 17
f 20 17 13
f 20 13 18
f 19 18 14
f 19 17 18
f 20 18 17
f 21 22 23
f 22 21 24
f 22 25 23
f 21 26 24
f 25 22 27
f 26 21 28
f 26 25 27
f 25 26 28
f 23 22 21
f 24 21 22
f 23 25 22
f 24 26 21
f 27 22 25
f 28 21 26
f 27 25 26
f 28 26 25
f 29 30 31
f 30 29 32
f 30 6 31
f 29 17 32
f 6 30 15
f 17 29 11
f 17 6 15
f 6 17 11
f 31 30 29
f 32 29 30
f 31 6 30
f 32 17 29
f 15 30 6
f 11 29 17
f 15 6 17
f 11 17 6
f 33 29 32
f 29 33 34
f 32 29 33
f 34 33 29
f 35 36 37
f 36 35 38
f 36 39 37
f 37 40 35
f 41 38 35
f 42 36 38
f 36 43 39
f 37 39 44
f 40 37 45
f 46 35 40
f 47 38 41
f 41 35 46
f 36 42 48
f 47 42 38
f 48 43 36
f 47 39 43
f 41 44 39
f 37 44 45
f 45 49 40
f 46 40 50
f 39 47 41
f 44 41 46
f 51 48 42
f 42 47 52
f 43 48 53
f 43 52 47
f 45 44 54
f 49 45 54
f 50 40 49
f 50 44 46
f 48 51 55
f 52 51 42
f 55 53 48
f 52 43 53
f 54 44 56
f 54 50 49
f 44 50 56
f 57 55 51
f 52 57 51
f 58 53 55
f 53 59 52
f 50 54 56
f 55 57 58
f 59 57 52
f 58 60 53
f 59 53 60
f 57 61 58
f 59 62 57
f 61 60 58
f 60 63 59
f 61 57 62
f 63 62 59
f 61 64 60
f 63 60 64
f 62 65 61
f 63 66 62
f 65 64 61
f 64 67 63
f 65 62 66
f 63 68 66
f 69 64 65
f 67 64 70
f 68 63 67
f 66 69 65
f 69 66 68
f 64 69 70
f 70 68 67
f 68 70 69
f 37 36 35
f 38 35 36
f 37 39 36
f 35 40 37
f 35 38 41
f 38 36 42
f 39 43 36
f 44 39 37
f 45 37 40
f 40 35 46
f 41 38 47
f 46 35 41
f 48 42 36
f 38 42 47
f 36 43 48
f 43 39 47
f 39 44 41
f 45 44 37
f 40 49 45
f 50 40 46
f 41 47 39
f 46 41 44
f 42 48 51
f 52 47 42
f 53 48 43
f 47 52 43
f 54 44 45
f 54 45 49
f 49 40 50
f 46 44 50
f 55 51 48
f 42 51 52
f 48 53 55
f 53 43 52
f 56 44 54
f 49 50 54
f 56 50 44
f 51 55 57
f 51 57 52
f 55 53 58
f 52 59 53
f 56 54 50
f 58 57 55
f 52 57 59
f 53 60 58
f 60 53 59
f 58 61 57
f 57 62 59
f 58 60 61
f 59 63 60
f 62 57 61
f 59 62 63
f 60 64 61
f 64 60 63
f 61 65 62
f 62 66 63
f 61 64 65
f 63 67 64
f 66 62 65
f 66 68 63
f 65 64 69
f 70 64 67
f 67 63 68
f 65 69 66
f 68 66 69
f 70 69 64
f 67 68 70
f 69 70 68
f 71 72 73
f 72 71 74
f 73 72 71
f 74 71 72
f 75 76 77
f 76 75 78
f 76 79 77
f 79 75 77
f 75 80 78
f 80 76 78
f 79 76 81
f 75 79 82
f 80 75 82
f 76 80 81
f 80 79 81
f 79 80 82
f 77 76 75
f 78 75 76
f 77 79 76
f 77 75 79
f 78 80 75
f 78 76 80
f 81 76 79
f 82 79 75
f 82 75 80
f 81 80 76
f 81 79 80
f 82 80 79
f 83 84 85
f 84 83 86
f 84 87 85
f 83 88 86
f 87 84 89
f 88 83 90
f 88 87 89
f 87 88 90
f 85 84 83
f 86 83 84
f 85 87 84
f 86 88 83
f 89 84 87
f 90 83 88
f 89 87 88
f 90 88 87
f 91 92 93
f 92 91 94
f 92 95 93
f 95 91 93
f 91 96 94
f 96 92 94
f 95 92 97
f 91 95 98
f 96 91 98
f 92 96 97
f 96 95 97
f 95 96 98
f 93 92 91
f 94 91 92
f 93 95 92
f 93 91 95
f 94 96 91
f 94 92 96
f 97 92 95
f 98 95 91
f 98 91 96
f 97 96 92
f 97 95 96
f 98 96 95
f 99 100 101
f 100 99 102
f 100 76 101
f 99 95 102
f 76 100 93
f 95 99 81
f 95 76 93
f 76 95 81
f 101 100 99
f 102 99 100
f 101 76 100
f 102 95 99
f 93 100 76
f 81 99 95
f 93 76 95
f 81 95 76
f 103 99 102
f 99 103 104
f 102 99 103
f 104 103 99
f 105 106 107
f 106 105 108
f 106 109 107
f 107 110 105
f 111 108 105
f 112 106 108
f 106 113 109
f 107 109 114
f 110 107 115
f 116 105 110
f 117 108 111
f 111 105 116
f 106 112 118
f 117 112 108
f 118 113 106
f 117 109 113
f 111 114 109
f 107 114 115
f 115 119 110
f 116 110 120
f 109 117 111
f 114 111 116
f 121 118 112
f 112 117 122
f 113 118 123
f 113 122 117
f 115 114 124
f 119 115 124
f 120 110 119
f 120 114 116
f 118 121 125
f 122 121 112
f 125 123 118
f 122 113 123
f 124 114 126
f 124 120 119
f 114 120 126
f 127 125 121
f 122 127 121
f 128 123 125
f 123 129 122
f 120 124 126
f 125 127 128
f 129 127 122
f 128 130 123
f 129 123 130
f 127 131 128
f 129 132 127
f 131 130 128
f 130 133 129
f 131 127 132
f 133 132 129
f 131 134 130
f 133 130 134
f 132 135 131
f 133 136 132
f 135 134 131
f 134 137 133
f 135 132 136
f 133 138 136
f 139 134 135
f 137 134 140
f 138 133 137
f 136 139 135
f 139 136 138
f 134 139 140
f 140 138 137
f 138 140 139
f 107 106 105
f 108 105 106
f 107 109 106
f 105 110 107
f 105 108 111
f 108 106 112
f 109 113 106
f 114 109 107
f 115 107 110
f 110 105 116
f 111 108 117
f 116 105 111
f 118 112 106
f 108 112 117
f 106 113 118
f 113 109 117
f 109 114 111
f 115 114 107
f 110 119 115
f 120 110 116
f 111 117 109
f 116 111 114
f 112 118 121
f 122 117 112
f 123 118 113
f 117 122 113
f 124 114 115
f 124 115 119
f 119 110 120
f 116 114 120
f 125 121 118
f 112 121 122
f 118 123 125
f 123 113 122
f 126 114 124
f 119 120 124
f 126 120 114
f 121 125 127
f 121 127 122
f 125 123 128
f 122 129 123
f 126 124 120
f 128 127 125
f 122 127 129
f 123 130 128
f 130 123 129
f 128 131 127
f 127 132 129
f 128 130 131
f 129 133 130
f 132 127 131
f 129 132 133
f 130 134 131
f 134 130 133
f 131 135 132
f 132 136 133
f 131 134 135
f 133 137 134
f 136 132 135
f 136 138 133
f 135 134 139
f 140 134 137
f 137 133 138
f 135 139 136
f 138 136 139
f 140 139 134
f 137 138 140
f 139 140 138
f 141 142 143
f 142 141 144
f 145 141 143
f 146 142 144
f 141 145 147
f 142 146 148
f 145 146 147
f 146 145 148
f 143 142 141
f 144 141 142
f 143 141 145
f 144 142 146
f 147 145 141
f 148 146 142
f 147 146 145
f 148 145 146
f 149 150 151
f 150 149 152
f 150 153 151
f 153 149 151
f 149 154 152
f 154 150 152
f 153 150 155
f 149 153 156
f 154 149 156
f 150 154 155
f 154 153 155
f 153 154 156
f 151 150 149
f 152 149 150
f 151 153 150
f 151 149 153
f 152 154 149
f 152 150 154
f 155 150 153
f 156 153 149
f 156 149 154
f 155 154 150
f 155 153 154
f 156 154 153
f 154 157 152
f 157 154 158
f 157 159 152
f 154 160 158
f 159 157 161
f 160 154 162
f 160 159 161
f 159 160 162
f 152 157 154
f 158 154 157
f 152 159 157
f 158 160 154
f 161 157 159
f 162 154 160
f 161 159 160
f 162 160 159
f 157 163 164
f 163 157 165
f 163 166 164
f 166 157 164
f 157 167 165
f 167 163 165
f 166 163 168
f 157 166 158
f 167 157 158
f 163 167 168
f 167 166 168
f 166 167 158
f 164 163 157
f 165 157 163
f 164 166 163
f 164 157 166
f 165 167 157
f 165 163 167
f 168 163 166
f 158 166 157
f 158 157 167
f 168 167 163
f 168 166 167
f 158 167 166
f 169 170 171
f 170 169 172
f 170 150 171
f 169 166 172
f 150 170 164
f 166 169 155
f 166 150 164
f 150 166 155
f 171 170 169
f 172 169 170
f 171 150 170
f 172 166 169
f 164 170 150
f 155 169 166
f 164 150 166
f 155 166 150
f 173 174 175
f 174 173 176
f 175 174 173
f 176 173 174
f 160 169 172
f 169 160 162
f 172 169 160
f 162 160 169
f 177 178 179
f 178 177 180
f 178 148 179
f 148 177 179
f 177 181 180
f 181 178 180
f 148 178 142
f 177 148 182
f 181 177 182
f 178 181 142
f 181 148 142
f 148 181 182
f 179 178 177
f 180 177 178
f 179 148 178
f 179 177 148
f 180 181 177
f 180 178 181
f 142 178 148
f 182 148 177
f 182 177 181
f 142 181 178
f 142 148 181
f 182 181 148
f 183 144 146
f 144 183 184
f 144 185 146
f 185 183 146
f 183 186 184
f 186 144 184
f 185 144 187
f 183 185 188
f 186 183 188
f 144 186 187
f 186 185 187
f 185 186 188
f 146 144 183
f 184 183 144
f 146 185 144
f 146 183 185
f 184 186 183
f 184 144 186
f 187 144 185
f 188 185 183
f 188 183 186
f 187 186 144
f 187 185 186
f 188 186 185
f 189 190 191
f 190 189 192
f 191 190 189
f 192 189 190
f 184 193 181
f 193 184 194
f 182 184 181
f 195 193 194
f 184 182 183
f 193 195 196
f 182 195 183
f 195 182 196
f 181 193 184
f 194 184 193
f 181 184 182
f 194 193 195
f 183 182 184
f 196 195 193
f 183 195 182
f 196 182 195
f 197 198 199
f 198 197 200
f 199 198 197
f 200 197 198
f 201 202 203
f 202 201 204
f 203 202 201
f 204 201 202
f 205 206 207
f 206 205 208
f 206 209 207
f 207 210 205
f 211 208 205
f 208 212 206
f 209 206 212
f 207 209 213
f 210 207 213
f 211 205 210
f 208 211 214
f 212 208 214
f 214 209 212
f 213 209 215
f 213 216 210
f 211 210 217
f 209 214 211
f 211 215 209
f 213 215 218
f 216 213 218
f 217 210 216
f 215 211 217
f 218 215 219
f 220 216 218
f 217 216 221
f 217 219 215
f 218 219 220
f 216 220 222
f 221 216 222
f 219 217 221
f 220 219 223
f 223 222 220
f 221 222 224
f 221 225 219
f 225 223 219
f 222 223 224
f 224 226 221
f 225 221 226
f 223 225 227
f 227 224 223
f 226 224 228
f 226 229 225
f 227 225 229
f 224 227 228
f 226 228 230
f 229 226 230
f 227 229 231
f 227 232 228
f 230 228 232
f 230 233 229
f 231 229 233
f 232 227 231
f 230 232 234
f 233 230 234
f 231 233 235
f 231 236 232
f 234 232 236
f 237 233 234
f 235 233 238
f 236 231 235
f 234 236 237
f 233 237 239
f 238 233 239
f 240 235 238
f 235 240 236
f 237 236 240
f 237 238 239
f 238 237 240
f 207 206 205
f 208 205 206
f 207 209 206
f 205 210 207
f 205 208 211
f 206 212 208
f 212 206 209
f 213 209 207
f 213 207 210
f 210 205 211
f 214 211 208
f 214 208 212
f 212 209 214
f 215 209 213
f 210 216 213
f 217 210 211
f 211 214 209
f 209 215 211
f 218 215 213
f 218 213 216
f 216 210 217
f 217 211 215
f 219 215 218
f 218 216 220
f 221 216 217
f 215 219 217
f 220 219 218
f 222 220 216
f 222 216 221
f 221 217 219
f 223 219 220
f 220 222 223
f 224 222 221
f 219 225 221
f 219 223 225
f 224 223 222
f 221 226 224
f 226 221 225
f 227 225 223
f 223 224 227
f 228 224 226
f 225 229 226
f 229 225 227
f 228 227 224
f 230 228 226
f 230 226 229
f 231 229 227
f 228 232 227
f 232 228 230
f 229 233 230
f 233 229 231
f 231 227 232
f 234 232 230
f 234 230 233
f 235 233 231
f 232 236 231
f 236 232 234
f 234 233 237
f 238 233 235
f 235 231 236
f 237 236 234
f 239 237 233
f 239 233 238
f 238 235 240
f 236 240 235
f 240 236 237
f 239 238 237
f 240 237 238
f 241 242 243
f 242 241 244
f 242 245 243
f 245 241 243
f 241 246 244
f 246 242 244
f 245 242 247
f 241 245 248
f 246 241 248
f 242 246 247
f 246 245 247
f 245 246 248
f 243 242 241
f 244 241 242
f 243 245 242
f 243 241 245
f 244 246 241
f 244 242 246
f 247 242 245
f 248 245 241
f 248 241 246
f 247 246 242
f 247 245 246
f 248 246 245
f 246 249 244
f 249 246 250
f 249 251 244
f 246 252 250
f 251 249 253
f 252 246 254
f 252 251 253
f 251 252 254
f 244 249 246
f 250 246 249
f 244 251 249
f 250 252 246
f 253 249 251
f 254 246 252
f 253 251 252
f 254 252 251
f 249 255 256
f 255 249 257
f 255 258 256
f 258 249 256
f 249 259 257
f 259 255 257
f 258 255 260
f 249 258 250
f 259 249 250
f 255 259 260
f 259 258 260
f 258 259 250
f 256 255 249
f 257 249 255
f 256 258 255
f 256 249 258
f 257 259 249
f 257 255 259
f 260 255 258
f 250 258 249
f 250 249 259
f 260 259 255
f 260 258 259
f 250 259 258
f 261 262 263
f 262 261 264
f 263 262 261
f 264 261 262
f 265 266 267
f 266 265 268
f 266 242 267
f 265 258 268
f 242 266 256
f 258 265 247
f 258 242 256
f 242 258 247
f 267 266 265
f 268 265 266
f 267 242 266
f 268 258 265
f 256 266 242
f 247 265 258
f 256 242 258
f 247 258 242
f 269 270 271
f 270 269 272
f 273 269 271
f 274 270 272
f 269 273 275
f 270 274 276
f 273 274 275
f 274 273 276
f 271 270 269
f 272 269 270
f 271 269 273
f 272 270 274
f 275 273 269
f 276 274 270
f 275 274 273
f 276 273 274
f 252 265 268
f 265 252 254
f 268 265 252
f 254 252 265
f 277 278 279
f 278 277 280
f 278 276 279
f 276 277 279
f 277 281 280
f 281 278 280
f 276 278 270
f 277 276 282
f 281 277 282
f 278 281 270
f 281 276 270
f 276 281 282
f 279 278 277
f 280 277 278
f 279 276 278
f 279 277 276
f 280 281 277
f 280 278 281
f 270 278 276
f 282 276 277
f 282 277 281
f 270 281 278
f 270 276 281
f 282 281 276
f 283 284 285
f 284 283 286
f 285 284 283
f 286 283 284
f 287 272 274
f 272 287 288
f 272 289 274
f 289 287 274
f 287 290 288
f 290 272 288
f 289 272 291
f 287 289 292
f 290 287 292
f 272 290 291
f 290 289 291
f 289 290 292
f 274 272 287
f 288 287 272
f 274 289 272
f 274 287 289
f 288 290 287
f 288 272 290
f 291 272 289
f 292 289 287
f 292 287 290
f 291 290 272
f 291 289 290
f 292 290 289
f 288 293 281
f 293 288 294
f 282 288 281
f 295 293 294
f 288 282 287
f 293 295 296
f 282 295 287
f 295 282 296
f 281 293 288
f 294 288 293
f 281 288 282
f 294 293 295
f 287 282 288
f 296 295 293
f 287 295 282
f 296 282 295
f 297 298 299
f 298 297 300
f 299 298 297
f 300 297 298
f 301 302 303
f 302 301 304
f 303 302 301
f 304 301 302
f 305 306 307
f 306 305 308
f 306 309 307
f 307 310 305
f 311 308 305
f 308 312 306
f 309 306 312
f 307 309 313
f 310 307 313
f 311 305 310
f 308 311 314
f 312 308 314
f 314 309 312
f 313 309 315
f 313 316 310
f 311 310 317
f 309 314 311
f 311 315 309
f 313 315 318
f 316 313 318
f 317 310 316
f 315 311 317
f 318 315 319
f 320 316 318
f 317 316 321
f 317 319 315
f 318 319 320
f 316 320 322
f 321 316 322
f 319 317 321
f 320 319 323
f 323 322 320
f 321 322 324
f 321 325 319
f 325 323 319
f 322 323 324
f 324 326 321
f 325 321 326
f 323 325 327
f 327 324 323
f 326 324 328
f 326 329 325
f 327 325 329
f 324 327 328
f 326 328 330
f 329 326 330
f 327 329 331
f 327 332 328
f 330 328 332
f 330 333 329
f 331 329 333
f 332 327 331
f 330 332 334
f 333 330 334
f 331 333 335
f 331 336 332
f 334 332 336
f 337 333 334
f 335 333 338
f 336 331 335
f 334 336 337
f 333 337 339
f 338 333 339
f 340 335 338
f 335 340 336
f 337 336 340
f 337 338 339
f 338 337 340
f 307 306 305
f 308 305 306
f 307 309 306
f 305 310 307
f 305 308 311
f 306 312 308
f 312 306 309
f 313 309 307
f 313 307 310
f 310 305 311
f 314 311 308
f 314 308 312
f 312 309 314
f 315 309 313
f 310 316 313
f 317 310 311
f 311 314 309
f 309 315 311
f 318 315 313
f 318 313 316
f 316 310 317
f 317 311 315
f 319 315 318
f 318 316 320
f 321 316 317
f 315 319 317
f 320 319 318
f 322 320 316
f 322 316 321
f 321 317 319
f 323 319 320
f 320 322 323
f 324 322 321
f 319 325 321
f 319 323 325
f 324 323 322
f 321 326 324
f 326 321 325
f 327 325 323
f 323 324 327
f 328 324 326
f 325 329 326
f 329 325 327
f 328 327 324
f 330 328 326
f 330 326 329
f 331 329 327
f 328 332 327
f 332 328 330
f 329 333 330
f 333 329 331
f 331 327 332
f 334 332 330
f 334 330 333
f 335 333 331
f 332 336 331
f 336 332 334
f 334 333 337
f 338 333 335
f 335 331 336
f 337 336 334
f 339 337 333
f 339 333 338
f 338 335 340
f 336 340 335
f 340 336 337
f 339 338 337
f 340 337 338
f 341 342 343
f 342 341 344
f 343 342 341
f 344 341 342
f 345 346 347
f 346 345 348
f 346 349 347
f 349 345 347
f 345 350 348
f 350 346 348
f 349 346 351
f 345 349 352
f 350 345 352
f 346 350 351
f 350 349 351
f 349 350 352
f 347 346 345
f 348 345 346
f 347 349 346
f 347 345 349
f 348 350 345
f 348 346 350
f 351 346 349
f 352 349 345
f 352 345 350
f 351 350 346
f 351 349 350
f 352 350 349
f 353 354 355
f 354 353 351
f 356 353 355
f 349 354 351
f 353 356 357
f 354 349 358
f 356 349 357
f 349 356 358
f 355 354 353
f 351 353 354
f 355 353 356
f 351 354 349
f 357 356 353
f 358 349 354
f 357 349 356
f 358 356 349
f 359 360 361
f 360 359 362
f 360 363 361
f 363 359 361
f 359 354 362
f 354 360 362
f 363 360 364
f 359 363 358
f 354 359 358
f 360 354 364
f 354 363 364
f 363 354 358
f 361 360 359
f 362 359 360
f 361 363 360
f 361 359 363
f 362 354 359
f 362 360 354
f 364 360 363
f 358 363 359
f 358 359 354
f 364 354 360
f 364 363 354
f 358 354 363
f 365 366 367
f 366 365 368
f 369 365 367
f 370 366 368
f 365 369 371
f 366 370 372
f 369 370 371
f 370 369 372
f 367 366 365
f 368 365 366
f 367 365 369
f 368 366 370
f 371 369 365
f 372 370 366
f 371 370 369
f 372 369 370
f 373 353 355
f 353 373 374
f 355 353 373
f 374 373 353
f 375 376 377
f 376 375 378
f 376 379 377
f 377 380 375
f 381 378 375
f 378 382 376
f 376 383 379
f 377 379 384
f 380 377 384
f 385 375 380
f 386 378 381
f 381 375 385
f 382 378 387
f 382 383 376
f 386 379 383
f 384 379 388
f 384 385 380
f 386 387 378
f 379 386 381
f 385 379 381
f 389 382 387
f 382 390 383
f 383 391 386
f 379 385 388
f 385 384 388
f 391 387 386
f 382 389 392
f 391 389 387
f 392 390 382
f 391 383 390
f 393 392 389
f 389 391 394
f 390 392 395
f 390 394 391
f 392 393 396
f 394 393 389
f 396 395 392
f 394 390 395
f 397 396 393
f 394 397 393
f 398 395 396
f 395 399 394
f 396 397 398
f 399 397 394
f 398 400 395
f 399 395 400
f 397 401 398
f 399 402 397
f 401 400 398
f 400 403 399
f 401 397 402
f 403 402 399
f 401 404 400
f 403 400 404
f 402 405 401
f 403 406 402
f 405 404 401
f 404 407 403
f 405 402 406
f 403 408 406
f 409 404 405
f 407 404 410
f 408 403 407
f 406 409 405
f 409 406 408
f 404 409 410
f 410 408 407
f 408 410 409
f 377 376 375
f 378 375 376
f 377 379 376
f 375 380 377
f 375 378 381
f 376 382 378
f 379 383 376
f 384 379 377
f 384 377 380
f 380 375 385
f 381 378 386
f 385 375 381
f 387 378 382
f 376 383 382
f 383 379 386
f 388 379 384
f 380 385 384
f 378 387 386
f 381 386 379
f 381 379 385
f 387 382 389
f 383 390 382
f 386 391 383
f 388 385 379
f 388 384 385
f 386 387 391
f 392 389 382
f 387 389 391
f 382 390 392
f 390 383 391
f 389 392 393
f 394 391 389
f 395 392 390
f 391 394 390
f 396 393 392
f 389 393 394
f 392 395 396
f 395 390 394
f 393 396 397
f 393 397 394
f 396 395 398
f 394 399 395
f 398 397 396
f 394 397 399
f 395 400 398
f 400 395 399
f 398 401 397
f 397 402 399
f 398 400 401
f 399 403 400
f 402 397 401
f 399 402 403
f 400 404 401
f 404 400 403
f 401 405 402
f 402 406 403
f 401 404 405
f 403 407 404
f 406 402 405
f 406 408 403
f 405 404 409
f 410 404 407
f 407 403 408
f 405 409 406
f 408 406 409
f 410 409 404
f 407 408 410
f 409 410 408
f 411 412 413
f 412 411 414
f 413 412 411
f 414 411 412
f 415 416 417
f 416 415 418
f 419 415 417
f 420 416 418
f 415 419 421
f 416 420 422
f 419 420 421
f 420 419 422
f 417 416 415
f 418 415 416
f 417 415 419
f 418 416 420
f 421 419 415
f 422 420 416
f 421 420 419
f 422 419 420
f 423 12 5
f 12 423 424
f 12 7 5
f 7 423 5
f 423 425 424
f 425 12 424
f 7 12 9
f 423 7 426
f 425 423 426
f 12 425 9
f 425 7 9
f 7 425 426
f 5 12 423
f 424 423 12
f 5 7 12
f 5 423 7
f 424 425 423
f 424 12 425
f 9 12 7
f 426 7 423
f 426 423 425
f 9 425 12
f 9 7 425
f 426 425 7
f 427 428 429
f 428 427 430
f 428 431 429
f 431 427 429
f 427 432 430
f 432 428 430
f 431 428 433
f 427 431 434
f 432 427 434
f 428 432 433
f 432 431 433
f 431 432 434
f 429 428 427
f 430 427 428
f 429 431 428
f 429 427 431
f 430 432 427
f 430 428 432
f 433 428 431
f 434 431 427
f 434 427 432
f 433 432 428
f 433 431 432
f 434 432 431
f 435 425 436
f 425 435 433
f 437 435 436
f 431 425 433
f 435 437 438
f 425 431 426
f 437 431 438
f 431 437 426
f 436 425 435
f 433 435 425
f 436 435 437
f 433 425 431
f 438 437 435
f 426 431 425
f 438 431 437
f 426 437 431
f 439 435 436
f 435 439 440
f 436 435 439
f 440 439 435
f 441 442 443
f 442 441 444
f 442 445 443
f 443 446 441
f 447 444 441
f 444 448 442
f 442 449 445
f 443 445 450
f 446 443 450
f 451 441 446
f 452 444 447
f 447 441 451
f 448 444 453
f 448 449 442
f 452 445 449
f 450 445 454
f 450 451 446
f 452 453 444
f 445 452 447
f 451 445 447
f 455 448 453
f 448 456 449
f 449 457 452
f 445 451 454
f 451 450 454
f 457 453 452
f 448 455 458
f 457 455 453
f 458 456 448
f 457 449 456
f 459 458 455
f 455 457 460
f 456 458 461
f 456 460 457
f 458 459 462
f 460 459 455
f 462 461 458
f 460 456 461
f 463 462 459
f 460 463 459
f 464 461 462
f 461 465 460
f 462 463 464
f 465 463 460
f 464 466 461
f 465 461 466
f 463 467 464
f 465 468 463
f 467 466 464
f 466 469 465
f 467 463 468
f 469 468 465
f 467 470 466
f 469 466 470
f 468 471 467
f 469 472 468
f 471 470 467
f 470 473 469
f 471 468 472
f 469 474 472
f 475 470 471
f 473 470 476
f 474 469 473
f 472 475 471
f 475 472 474
f 470 475 476
f 476 474 473
f 474 476 475
f 443 442 441
f 444 441 442
f 443 445 442
f 441 446 443
f 441 444 447
f 442 448 444
f 445 449 442
f 450 445 443
f 450 443 446
f 446 441 451
f 447 444 452
f 451 441 447
f 453 444 448
f 442 449 448
f 449 445 452
f 454 445 450
f 446 451 450
f 444 453 452
f 447 452 445
f 447 445 451
f 453 448 455
f 449 456 448
f 452 457 449
f 454 451 445
f 454 450 451
f 452 453 457
f 458 455 448
f 453 455 457
f 448 456 458
f 456 449 457
f 455 458 459
f 460 457 455
f 461 458 456
f 457 460 456
f 462 459 458
f 455 459 460
f 458 461 462
f 461 456 460
f 459 462 463
f 459 463 460
f 462 461 464
f 460 465 461
f 464 463 462
f 460 463 465
f 461 466 464
f 466 461 465
f 464 467 463
f 463 468 465
f 464 466 467
f 465 469 466
f 468 463 467
f 465 468 469
f 466 470 467
f 470 466 469
f 467 471 468
f 468 472 469
f 467 470 471
f 469 473 470
f 472 468 471
f 472 474 469
f 471 470 475
f 476 470 473
f 473 469 474
f 471 475 472
f 474 472 475
f 476 475 470
f 473 474 476
f 475 476 474
f 477 478 479
f 480 479 478
f 480 482 479
f 480 478 482
f 483 479 482
f 484 482 478
f 479 478 477
f 478 479 480
f 481 479 477
f 479 482 480
f 482 478 480
f 479 481 483
f 482 479 483
f 478 482 484
f 477 479 481
f 483 481 479
f 485 486 487
f 486 485 488
f 485 490 488
f 490 486 488
f 490 485 491
f 486 490 492
f 487 486 485
f 488 485 486
f 487 485 489
f 488 490 485
f 488 486 490
f 491 489 485
f 491 485 490
f 492 490 486
f 489 485 487
f 485 489 491
f 493 494 495
f 494 493 496
f 493 497 496
f 497 493 498
f 499 497 498
f 497 499 500
f 495 494 493
f 496 493 494
f 496 497 493
f 498 493 497
f 498 497 499
f 500 499 497
f 501 502 503
f 502 501 504
f 503 502 501
f 504 501 502
f 505 506 507
f 506 505 508
f 509 505 507
f 510 506 508
f 505 509 511
f 506 510 512
f 507 506 505
f 508 505 506
f 507 505 509
f 508 506 510
f 511 509 505
f 512 510 506
f 511 510 509
f 512 509 510
f 509 510 511
f 510 509 512
f 513 514 515
f 514 513 516
f 514 517 515
f 517 514 519
f 518 517 519
f 517 518 520
f 515 514 513
f 516 513 514
f 515 517 514
f 516 518 513
f 519 514 517
f 520 513 518
f 519 517 518
f 520 518 517
f 513 518 516
f 518 513 520
f 521 522 523
f 522 521 524
f 525 521 523
f 521 525 528
f 526 525 527
f 525 526 528
f 523 522 521
f 524 521 522
f 523 525 522
f 523 521 525
f 524 526 521
f 524 522 526
f 527 522 525
f 528 525 521
f 528 521 526
f 527 526 522
f 527 525 526
f 528 526 525
f 522 525 523
f 521 526 524
f 526 522 524
f 525 522 527
f 526 521 528
f 522 526 527
f 529 530 531
f 530 529 532
f 530 533 531
f 529 534 532
f 533 530 535
f 534 529 536
f 531 530 529
f 532 529 530
f 531 533 530
f 532 534 529
f 535 530 533
f 536 529 534
f 535 533 534
f 536 534 533
f 534 533 535
f 533 534 536
f 537 538 539
f 538 537 526
f 538 540 539
f 537 528 526
f 540 538 541
f 528 537 542
f 539 538 537
f 526 537 538
f 539 540 538
f 526 528 537
f 541 538 540
f 542 537 528
f 541 540 528
f 542 528 540
f 528 540 541
f 540 528 542
f 543 544 545
f 546 545 544
f 546 547 545
f 548 545 547
f 547 549 548
f 550 548 549
f 545 544 543
f 544 545 546
f 545 547 546
f 547 545 548
f 548 549 547
f 549 548 550
f 551 552 553
f 552 551 554
f 551 555 554
f 555 551 556
f 556 493 555
f 493 556 557
f 553 552 551
f 554 551 552
f 554 555 551
f 556 551 555
f 555 493 556
f 557 556 493
f 558 491 559
f 491 558 490
f 558 492 490
f 492 558 561
f 492 560 489
f 560 492 561
f 559 491 558
f 490 558 491
f 559 560 491
f 490 492 558
f 489 491 560
f 561 558 492
f 489 560 492
f 561 492 560
f 491 560 559
f 560 491 489
f 562 483 563
f 482 563 483
f 482 484 563
f 481 564 484
f 565 563 484
f 565 484 564
f 563 483 562
f 483 564 562
f 483 563 482
f 564 483 481
f 563 484 482
f 484 564 481
f 484 563 565
f 564 484 565
f 562 564 483
f 481 483 564
f 566 567 568
f 567 566 569
f 542 566 568
f 566 542 571
f 570 542 537
f 542 570 571
f 568 567 566
f 569 566 567
f 568 542 567
f 568 566 542
f 569 570 566
f 569 567 570
f 537 567 542
f 571 542 566
f 571 566 570
f 537 570 567
f 537 542 570
f 571 570 542
f 567 542 568
f 566 570 569
f 570 567 569
f 542 567 537
f 570 566 571
f 567 570 537
f 572 573 574
f 573 572 575
f 576 572 574
f 577 573 575
f 572 576 578
f 573 577 579
f 574 573 572
f 575 572 573
f 574 572 576
f 575 573 577
f 578 576 572
f 579 577 573
f 578 577 576
f 579 576 577
f 576 577 578
f 577 576 579
f 580 581 582
f 581 580 583
f 581 584 582
f 584 581 586
f 585 584 586
f 584 585 587
f 582 581 580
f 583 580 581
f 582 584 581
f 583 585 580
f 586 581 584
f 587 580 585
f 586 584 585
f 587 585 584
f 580 585 583
f 585 580 587
f 488 588 589
f 588 488 590
f 588 591 589
f 488 592 590
f 591 588 593
f 592 488 594
f 493 592 594
f 592 493 496
f 589 588 488
f 590 488 588
f 589 591 588
f 590 592 488
f 593 588 591
f 594 488 592
f 594 592 493
f 496 493 592
f 595 524 567
f 524 595 596
f 524 568 567
f 595 597 596
f 568 524 521
f 597 595 598
f 567 524 595
f 596 595 524
f 567 568 524
f 596 597 595
f 521 524 568
f 598 595 597
f 521 568 597
f 598 597 568
f 597 568 521
f 568 597 598
f 599 600 601
f 599 601 600
f 602 601 600
f 602 600 601
f 603 604 605
f 604 603 606
f 605 604 603
f 606 603 604
f 607 608 477
f 478 477 608
f 477 608 607
f 608 477 478
f 609 477 607
f 477 609 481
f 609 484 481
f 484 609 610
f 607 477 609
f 481 609 477
f 481 484 609
f 610 609 484
f 600 611 612
f 611 600 613
f 614 612 611
f 612 614 615
f 612 611 600
f 613 600 611
f 611 612 614
f 615 614 612
f 487 615 616
f 615 487 486
f 616 615 487
f 486 487 615
f 616 487 617
f 489 617 487
f 489 492 617
f 604 617 492
f 617 487 616
f 487 617 489
f 617 492 489
f 492 617 604
f 618 619 620
f 619 618 621
f 620 619 618
f 621 618 619
f 622 623 624
f 623 622 625
f 623 626 624
f 622 627 625
f 626 623 628
f 627 622 629
f 627 626 628
f 626 627 629
f 624 623 622
f 625 622 623
f 624 626 623
f 625 627 622
f 628 623 626
f 629 622 627
f 628 626 627
f 629 627 626
f 623 630 631
f 630 623 632
f 630 633 631
f 633 623 631
f 623 634 632
f 634 630 632
f 633 630 635
f 623 633 625
f 634 623 625
f 630 634 635
f 634 633 635
f 633 634 625
f 631 630 623
f 632 623 630
f 631 633 630
f 631 623 633
f 632 634 623
f 632 630 634
f 635 630 633
f 625 633 623
f 625 623 634
f 635 634 630
f 635 633 634
f 625 634 633
f 636 637 638
f 637 636 624
f 637 639 638
f 639 636 638
f 636 622 624
f 622 637 624
f 639 637 640
f 636 639 641
f 622 636 641
f 637 622 640
f 622 639 640
f 639 622 641
f 638 637 636
f 624 636 637
f 638 639 637
f 638 636 639
f 624 622 636
f 624 637 622
f 640 637 639
f 641 639 636
f 641 636 622
f 640 622 637
f 640 639 622
f 641 622 639
f 642 643 644
f 643 642 645
f 643 637 644
f 642 633 645
f 637 643 631
f 633 642 640
f 633 637 631
f 637 633 640
f 644 643 642
f 645 642 643
f 644 637 643
f 645 633 642
f 631 643 637
f 640 642 633
f 631 637 633
f 640 633 637
f 627 642 645
f 642 627 629
f 645 642 627
f 629 627 642

