# https://github.com/mikedh/trimesh
v -0.09474389 -0.01052710 0.06947885
v -0.09474389 -0.01052710 0.07368969
v -0.09474389 -0.00631626 0.06947885
v -0.09474389 -0.00631626 0.07368969
v -0.09053305 -0.01052710 0.06947885
v -0.09053305 -0.01052710 0.07368969
v -0.09053305 -0.00631626 0.06947885
v -0.09053305 -0.00631626 0.07368969
v -0.09474389 -0.01052710 0.07790053
v -0.09474389 -0.00631626 0.07790053
v -0.09053305 -0.01052710 0.07790053
v -0.09474389 -0.01052710 0.08211137
v -0.09474389 -0.00631626 0.08211137
v -0.09053305 -0.01052710 0.08211137
v -0.09053305 -0.00631626 0.08211137
v -0.09474389 -0.00210542 0.07368969
v -0.09474389 -0.00210542 0.07790053
v -0.09053305 -0.00210542 0.07368969
v -0.09053305 -0.00210542 0.07790053
v -0.09474389 -0.00210542 0.08211137
v -0.09053305 -0.00210542 0.08211137
v -0.09474389 0.01052710 0.06947885
v -0.09474389 0.01052710 0.07368969
v -0.09474389 0.01473794 0.06947885
v -0.09474389 0.01473794 0.07368969
v -0.09053305 0.01052710 0.06947885
v -0.09053305 0.01052710 0.07368969
v -0.09053305 0.01473794 0.06947885
v -0.09053305 0.01473794 0.07368969
v -0.09474389 0.01052710 0.07790053
v -0.09474389 0.01473794 0.07790053
v -0.09053305 0.01052710 0.07790053
v -0.09053305 0.01473794 0.07790053
v -0.09474389 0.01052710 0.08211137
v -0.09474389 0.01473794 0.08211137
v -0.09053305 0.01052710 0.08211137
v -0.09053305 0.01473794 0.08211137
v -0.09053305 -0.01894878 0.06105717
v -0.09053305 -0.01894878 0.06526801
v -0.09053305 -0.01473794 0.06105717
v -0.09053305 -0.01473794 0.06526801
v -0.08632221 -0.01894878 0.06105717
v -0.08632221 -0.01894878 0.06526801
v -0.08632221 -0.01473794 0.06105717
v -0.08632221 -0.01473794 0.06526801
v -0.09053305 -0.01052710 0.06105717
v -0.09053305 -0.01052710 0.06526801
v -0.08632221 -0.01052710 0.06105717
v -0.08632221 -0.01052710 0.06526801
v -0.09053305 -0.01473794 0.06947885
v -0.08632221 -0.01473794 0.06947885
v -0.08632221 -0.01052710 0.06947885
v -0.09053305 -0.00631626 0.06526801
v -0.08632221 -0.00631626 0.06526801
v -0.08632221 -0.00631626 0.06947885
v -0.08632221 -0.01052710 0.07368969
v -0.08632221 -0.00631626 0.07368969
v -0.08632221 -0.01052710 0.07790053
v -0.08632221 -0.00631626 0.07790053
v -0.08632221 -0.01052710 0.08211137
v -0.08632221 -0.00631626 0.08211137
v -0.09053305 -0.00210542 0.06947885
v -0.08632221 -0.00210542 0.06947885
v -0.08632221 -0.00210542 0.07368969
v -0.08632221 -0.00210542 0.07790053
v -0.08632221 -0.00210542 0.08211137
v -0.09053305 0.00210542 0.07790053
v -0.09053305 0.00210542 0.08211137
v -0.08632221 0.00210542 0.07790053
v -0.08632221 0.00210542 0.08211137
v -0.09053305 0.00631626 0.07790053
v -0.09053305 0.00631626 0.08211137
v -0.08632221 0.00631626 0.07790053
v -0.08632221 0.00631626 0.08211137
v -0.08632221 0.01052710 0.07790053
v -0.08632221 0.01052710 0.08211137
v -0.09053305 0.01052710 0.06526801
v -0.09053305 0.01473794 0.06526801
v -0.08632221 0.01052710 0.06526801
v -0.08632221 0.01052710 0.06947885
v -0.08632221 0.01473794 0.06526801
v -0.08632221 0.01473794 0.06947885
v -0.08632221 0.01052710 0.07368969
v -0.08632221 0.01473794 0.07368969
v -0.08632221 0.01473794 0.07790053
v -0.08632221 0.01473794 0.08211137
v -0.09053305 0.01894878 0.06526801
v -0.09053305 0.01894878 0.06947885
v -0.08632221 0.01894878 0.06526801
v -0.08632221 0.01894878 0.06947885
v -0.09053305 0.01894878 0.07368969
v -0.08632221 0.01894878 0.07368969
v -0.09053305 0.01894878 0.06105717
v -0.09053305 0.02315962 0.06105717
v -0.09053305 0.02315962 0.06526801
v -0.08632221 0.01894878 0.06105717
v -0.08632221 0.02315962 0.06105717
v -0.09053305 0.02315962 0.06947885
v -0.08632221 0.02315962 0.06526801
v -0.08632221 0.02315962 0.06947885
v -0.09053305 0.02737046 0.06105717
v -0.09053305 0.02737046 0.06526801
v -0.08632221 0.02737046 0.06105717
v -0.08632221 0.02737046 0.06526801
v -0.08632221 -0.02737046 0.04842465
v -0.08632221 -0.02737046 0.05263549
v -0.08632221 -0.02315962 0.04842465
v -0.08632221 -0.02315962 0.05263549
v -0.08211137 -0.02737046 0.04842465
v -0.08211137 -0.02737046 0.05263549
v -0.08211137 -0.02315962 0.04842465
v -0.08211137 -0.02315962 0.05263549
v -0.08632221 -0.02737046 0.05684633
v -0.08632221 -0.02315962 0.05684633
v -0.08211137 -0.02737046 0.05684633
v -0.08211137 -0.02315962 0.05684633
v -0.08632221 -0.02737046 0.06105717
v -0.08632221 -0.02315962 0.06105717
v -0.08211137 -0.02737046 0.06105717
v -0.08211137 -0.02315962 0.06105717
v -0.08632221 -0.01894878 0.05684633
v -0.08211137 -0.01894878 0.05684633
v -0.08211137 -0.01894878 0.06105717
v -0.08632221 -0.02315962 0.06526801
v -0.08211137 -0.02315962 0.06526801
v -0.08211137 -0.01894878 0.06526801
v -0.08632221 -0.01894878 0.01894878
v -0.08632221 -0.01894878 0.02315962
v -0.08632221 -0.01473794 0.01894878
v -0.08632221 -0.01473794 0.02315962
v -0.08211137 -0.01894878 0.01894878
v -0.08211137 -0.01894878 0.02315962
v -0.08211137 -0.01473794 0.01894878
v -0.08632221 -0.01894878 0.02737046
v -0.08632221 -0.01473794 0.02737046
v -0.08211137 -0.01894878 0.02737046
v -0.08632221 -0.01894878 0.03158130
v -0.08632221 -0.01473794 0.03158130
v -0.08211137 -0.01894878 0.03158130
v -0.08632221 -0.01894878 0.03579214
v -0.08632221 -0.01473794 0.03579214
v -0.08211137 -0.01894878 0.03579214
v -0.08632221 -0.01894878 0.04000298
v -0.08632221 -0.01473794 0.04000298
v -0.08211137 -0.01894878 0.04000298
v -0.08632221 -0.01894878 0.04421381
v -0.08632221 -0.01473794 0.04421381
v -0.08211137 -0.01894878 0.04421381
v -0.08632221 -0.01894878 0.04842465
v -0.08632221 -0.01473794 0.04842465
v -0.08211137 -0.01894878 0.04842465
v -0.08632221 -0.01894878 0.05263549
v -0.08632221 -0.01473794 0.05263549
v -0.08211137 -0.01894878 0.05263549
v -0.08632221 -0.01473794 0.05684633
v -0.08211137 -0.01473794 0.06105717
v -0.08211137 -0.01473794 0.06526801
v -0.08632221 -0.01473794 0.01473794
v -0.08632221 -0.01052710 0.01473794
v -0.08632221 -0.01052710 0.01894878
v -0.08211137 -0.01473794 0.01473794
v -0.08211137 -0.01052710 0.01473794
v -0.08632221 -0.01052710 0.02315962
v -0.08632221 -0.01052710 0.02737046
v -0.08632221 -0.01052710 0.03158130
v -0.08632221 -0.01052710 0.03579214
v -0.08632221 -0.01052710 0.04000298
v -0.08632221 -0.01052710 0.04421381
v -0.08632221 -0.01052710 0.04842465
v -0.08632221 -0.01052710 0.05263549
v -0.08632221 -0.01052710 0.05684633
v -0.08211137 -0.01052710 0.06105717
v -0.08211137 -0.01052710 0.06526801
v -0.08211137 -0.01473794 0.06947885
v -0.08211137 -0.01052710 0.06947885
v -0.08632221 -0.01052710 0.01052710
v -0.08632221 -0.00631626 0.01052710
v -0.08632221 -0.00631626 0.01473794
v -0.08211137 -0.01052710 0.01052710
v -0.08211137 -0.00631626 0.01052710
v -0.08632221 -0.00631626 0.01894878
v -0.08632221 -0.00631626 0.02315962
v -0.08632221 -0.00631626 0.02737046
v -0.08632221 -0.00631626 0.03158130
v -0.08632221 -0.00631626 0.03579214
v -0.08632221 -0.00631626 0.04000298
v -0.08632221 -0.00631626 0.04421381
v -0.08632221 -0.00631626 0.04842465
v -0.08632221 -0.00631626 0.05263549
v -0.08632221 -0.00631626 0.05684633
v -0.08632221 -0.00631626 0.06105717
v -0.08211137 -0.00631626 0.06105717
v -0.08632221 -0.01052710 0.09053305
v -0.08632221 -0.01052710 0.09474389
v -0.08632221 -0.00631626 0.09053305
v -0.08632221 -0.00631626 0.09474389
v -0.08211137 -0.01052710 0.09053305
v -0.08211137 -0.01052710 0.09474389
v -0.08211137 -0.00631626 0.09053305
v -0.08632221 -0.01052710 0.09895473
v -0.08632221 -0.00631626 0.09895473
v -0.08211137 -0.01052710 0.09895473
v -0.08632221 -0.01052710 0.10316557
v -0.08632221 -0.00631626 0.10316557
v -0.08211137 -0.01052710 0.10316557
v -0.08632221 -0.01052710 0.10737641
v -0.08632221 -0.00631626 0.10737641
v -0.08211137 -0.01052710 0.10737641
v -0.08211137 -0.00631626 0.10737641
v -0.08632221 -0.00210542 0.01052710
v -0.08632221 -0.00210542 0.01473794
v -0.08211137 -0.00210542 0.01052710
v -0.08632221 -0.00210542 0.01894878
v -0.08632221 -0.00210542 0.02315962
v -0.08632221 -0.00210542 0.02737046
v -0.08632221 -0.00210542 0.03158130
v -0.08632221 -0.00210542 0.03579214
v -0.08632221 -0.00210542 0.04000298
v -0.08632221 -0.00210542 0.04421381
v -0.08632221 -0.00210542 0.04842465
v -0.08632221 -0.00210542 0.05263549
v -0.08632221 -0.00210542 0.05684633
v -0.08632221 -0.00210542 0.06105717
v -0.08632221 -0.00210542 0.06526801
v -0.08211137 -0.00631626 0.06526801
v -0.08211137 -0.00210542 0.06526801
v -0.08211137 -0.00631626 0.07790053
v -0.08211137 -0.00631626 0.08211137
v -0.08211137 -0.00210542 0.07790053
v -0.08211137 -0.00210542 0.08211137
v -0.08632221 -0.00210542 0.09053305
v -0.08632221 -0.00210542 0.09474389
v -0.08211137 -0.00210542 0.09053305
v -0.08632221 -0.00210542 0.09895473
v -0.08632221 -0.00210542 0.10316557
v -0.08632221 -0.00210542 0.10737641
v -0.08632221 -0.00631626 0.11158725
v -0.08632221 -0.00210542 0.11158725
v -0.08211137 -0.00631626 0.11158725
v -0.08211137 -0.00210542 0.11158725
v -0.08632221 0.00210542 0.01052710
v -0.08632221 0.00210542 0.01473794
v -0.08211137 0.00210542 0.01052710
v -0.08632221 0.00210542 0.01894878
v -0.08632221 0.00210542 0.02315962
v -0.08632221 0.00210542 0.02737046
v -0.08632221 0.00210542 0.03158130
v -0.08632221 0.00210542 0.03579214
v -0.08632221 0.00210542 0.04000298
v -0.08632221 0.00210542 0.04421381
v -0.08632221 0.00210542 0.04842465
v -0.08632221 0.00210542 0.05263549
v -0.08632221 0.00210542 0.05684633
v -0.08632221 0.00210542 0.06105717
v -0.08632221 0.00210542 0.06526801
v -0.08211137 0.00210542 0.06526801
v -0.08211137 0.00210542 0.07790053
v -0.08211137 0.00210542 0.08211137
v -0.08632221 -0.00210542 0.08632221
v -0.08632221 0.00210542 0.08632221
v -0.08211137 -0.00210542 0.08632221
v -0.08632221 0.00210542 0.09053305
v -0.08632221 0.00210542 0.09474389
v -0.08632221 0.00210542 0.09895473
v -0.08632221 0.00210542 0.10316557
v -0.08632221 0.00210542 0.10737641
v -0.08632221 0.00210542 0.11158725
v -0.08211137 0.00210542 0.11158725
v -0.08632221 0.00631626 0.01052710
v -0.08632221 0.00631626 0.01473794
v -0.08211137 0.00631626 0.01052710
v -0.08632221 0.00631626 0.01894878
v -0.08632221 0.00631626 0.02315962
v -0.08632221 0.00631626 0.02737046
v -0.08632221 0.00631626 0.03158130
v -0.08632221 0.00631626 0.03579214
v -0.08632221 0.00631626 0.04000298
v -0.08632221 0.00631626 0.04421381
v -0.08632221 0.00631626 0.04842465
v -0.08632221 0.00631626 0.05263549
v -0.08632221 0.00631626 0.05684633
v -0.08632221 0.00631626 0.06105717
v -0.08632221 0.00631626 0.06526801
v -0.08211137 0.00631626 0.06526801
v -0.08632221 0.00631626 0.08632221
v -0.08211137 0.00631626 0.08211137
v -0.08632221 0.00631626 0.09053305
v -0.08632221 0.00631626 0.09474389
v -0.08632221 0.00631626 0.09895473
v -0.08632221 0.00631626 0.10316557
v -0.08632221 0.00631626 0.10737641
v -0.08632221 0.00631626 0.11158725
v -0.08211137 0.00631626 0.11158725
v -0.08632221 0.01052710 0.01052710
v -0.08632221 0.01052710 0.01473794
v -0.08211137 0.01052710 0.01052710
v -0.08632221 0.01052710 0.01894878
v -0.08632221 0.01052710 0.02315962
v -0.08632221 0.01052710 0.02737046
v -0.08632221 0.01052710 0.03158130
v -0.08632221 0.01052710 0.03579214
v -0.08632221 0.01052710 0.04000298
v -0.08632221 0.01052710 0.04421381
v -0.08632221 0.01052710 0.04842465
v -0.08632221 0.01052710 0.05263549
v -0.08632221 0.01052710 0.05684633
v -0.08632221 0.01052710 0.06105717
v -0.08211137 0.01052710 0.06526801
v -0.08211137 0.00631626 0.07790053
v -0.08211137 0.01052710 0.07790053
v -0.08211137 0.01052710 0.08211137
v -0.08632221 0.01052710 0.08632221
v -0.08211137 0.01052710 0.08632221
v -0.08632221 0.01052710 0.09053305
v -0.08211137 0.01052710 0.09053305
v -0.08632221 0.01052710 0.09474389
v -0.08632221 0.01052710 0.09895473
v -0.08632221 0.01052710 0.10316557
v -0.08632221 0.01052710 0.10737641
v -0.08632221 0.01052710 0.11158725
v -0.08211137 0.01052710 0.11158725
v -0.08632221 0.01473794 0.01052710
v -0.08632221 0.01473794 0.01473794
v -0.08211137 0.01473794 0.01052710
v -0.08211137 0.01473794 0.01473794
v -0.08632221 0.01473794 0.01894878
v -0.08632221 0.01473794 0.02315962
v -0.08632221 0.01473794 0.02737046
v -0.08632221 0.01473794 0.03158130
v -0.08632221 0.01473794 0.03579214
v -0.08632221 0.01473794 0.04000298
v -0.08632221 0.01473794 0.04421381
v -0.08632221 0.01473794 0.04842465
v -0.08632221 0.01473794 0.05263549
v -0.08632221 0.01473794 0.05684633
v -0.08632221 0.01473794 0.06105717
v -0.08211137 0.01473794 0.06105717
v -0.08211137 0.01473794 0.06526801
v -0.08632221 0.01473794 0.09053305
v -0.08632221 0.01473794 0.09474389
v -0.08211137 0.01473794 0.09053305
v -0.08632221 0.01473794 0.09895473
v -0.08632221 0.01473794 0.10316557
v -0.08632221 0.01473794 0.10737641
v -0.08632221 0.01473794 0.11158725
v -0.08211137 0.01473794 0.10737641
v -0.08211137 0.01473794 0.11158725
v -0.08632221 0.01894878 0.01473794
v -0.08632221 0.01894878 0.01894878
v -0.08211137 0.01894878 0.01473794
v -0.08211137 0.01894878 0.01894878
v -0.08632221 0.01894878 0.02315962
v -0.08632221 0.01894878 0.02737046
v -0.08632221 0.01894878 0.03158130
v -0.08632221 0.01894878 0.03579214
v -0.08632221 0.01894878 0.04000298
v -0.08632221 0.01894878 0.04421381
v -0.08632221 0.01894878 0.04842465
v -0.08632221 0.01894878 0.05263549
v -0.08632221 0.01894878 0.05684633
v -0.08211137 0.01894878 0.05684633
v -0.08211137 0.01894878 0.06105717
v -0.08632221 0.01894878 0.09053305
v -0.08632221 0.01894878 0.09474389
v -0.08211137 0.01894878 0.09053305
v -0.08211137 0.01894878 0.09474389
v -0.08632221 0.01894878 0.09895473
v -0.08211137 0.01894878 0.09895473
v -0.08632221 0.01894878 0.10316557
v -0.08211137 0.01894878 0.10316557
v -0.08632221 0.01894878 0.10737641
v -0.08211137 0.01894878 0.10737641
v -0.08632221 0.02315962 0.01894878
v -0.08632221 0.02315962 0.02315962
v -0.08211137 0.02315962 0.01894878
v -0.08211137 0.02315962 0.02315962
v -0.08632221 0.02315962 0.02737046
v -0.08211137 0.02315962 0.02737046
v -0.08632221 0.02315962 0.03158130
v -0.08632221 0.02315962 0.03579214
v -0.08632221 0.02315962 0.04000298
v -0.08632221 0.02315962 0.04421381
v -0.08632221 0.02315962 0.04842465
v -0.08632221 0.02315962 0.05263549
v -0.08632221 0.02315962 0.05684633
v -0.08211137 0.02315962 0.05263549
v -0.08211137 0.02315962 0.05684633
v -0.08211137 0.01894878 0.06526801
v -0.08211137 0.02315962 0.06105717
v -0.08211137 0.02315962 0.06526801
v -0.08211137 0.01894878 0.06947885
v -0.08211137 0.02315962 0.06947885
v -0.08632221 0.02737046 0.02737046
v -0.08632221 0.02737046 0.03158130
v -0.08211137 0.02737046 0.02737046
v -0.08211137 0.02737046 0.03158130
v -0.08632221 0.02737046 0.03579214
v -0.08211137 0.02737046 0.03579214
v -0.08632221 0.02737046 0.04000298
v -0.08211137 0.02737046 0.04000298
v -0.08632221 0.02737046 0.04421381
v -0.08211137 0.02737046 0.04421381
v -0.08632221 0.02737046 0.04842465
v -0.08211137 0.02737046 0.04842465
v -0.08632221 0.02737046 0.05263549
v -0.08211137 0.02737046 0.05263549
v -0.08632221 0.02737046 0.05684633
v -0.08211137 0.02737046 0.05684633
v -0.08211137 0.02737046 0.06105717
v -0.08211137 0.02737046 0.06526801
v -0.08632221 0.03158130 0.04842465
v -0.08632221 0.03158130 0.05263549
v -0.08211137 0.03158130 0.04842465
v -0.08632221 0.03158130 0.05684633
v -0.08632221 0.03158130 0.06105717
v -0.08211137 0.03158130 0.05684633
v -0.08211137 0.03158130 0.06105717
v -0.08632221 0.03579214 0.04842465
v -0.08632221 0.03579214 0.05263549
v -0.08211137 0.03579214 0.04842465
v -0.08211137 0.03579214 0.05263549
v -0.08632221 0.03579214 0.05684633
v -0.08211137 0.03579214 0.05684633
v -0.08211137 -0.02737046 0.03579214
v -0.08211137 -0.02737046 0.04000298
v -0.08211137 -0.02315962 0.03579214
v -0.08211137 -0.02315962 0.04000298
v -0.07790053 -0.02737046 0.03579214
v -0.07790053 -0.02737046 0.04000298
v -0.07790053 -0.02315962 0.03579214
v -0.08211137 -0.02737046 0.04421381
v -0.08211137 -0.02315962 0.04421381
v -0.07790053 -0.02737046 0.04421381
v -0.07790053 -0.02737046 0.04842465
v -0.07790053 -0.02737046 0.05263549
v -0.07790053 -0.02315962 0.04842465
v -0.07790053 -0.02315962 0.05263549
v -0.07790053 -0.02737046 0.05684633
v -0.07790053 -0.02315962 0.05684633
v -0.08211137 -0.02315962 0.01473794
v -0.08211137 -0.02315962 0.01894878
v -0.08211137 -0.01894878 0.01473794
v -0.07790053 -0.02315962 0.01473794
v -0.07790053 -0.02315962 0.01894878
v -0.07790053 -0.01894878 0.01473794
v -0.08211137 -0.02315962 0.02315962
v -0.07790053 -0.02315962 0.02315962
v -0.08211137 -0.02315962 0.02737046
v -0.07790053 -0.02315962 0.02737046
v -0.08211137 -0.02315962 0.03158130
v -0.07790053 -0.02315962 0.03158130
v -0.07790053 -0.01894878 0.05263549
v -0.08211137 -0.01894878 0.00631626
v -0.08211137 -0.01894878 0.01052710
v -0.08211137 -0.01473794 0.00631626
v -0.08211137 -0.01473794 0.01052710
v -0.07790053 -0.01894878 0.00631626
v -0.07790053 -0.01894878 0.01052710
v -0.07790053 -0.01473794 0.00631626
v -0.07790053 -0.01894878 0.05684633
v -0.07790053 -0.01894878 0.06105717
v -0.07790053 -0.01473794 0.06105717
v -0.08211137 -0.01052710 0.00631626
v -0.07790053 -0.01052710 0.00631626
v -0.07790053 -0.01052710 0.06105717
v -0.08211137 -0.01473794 0.07790053
v -0.08211137 -0.01473794 0.08211137
v -0.08211137 -0.01052710 0.07790053
v -0.08211137 -0.01052710 0.08211137
v -0.07790053 -0.01473794 0.07790053
v -0.07790053 -0.01473794 0.08211137
v -0.07790053 -0.01052710 0.07790053
v -0.08211137 -0.01473794 0.08632221
v -0.08211137 -0.01052710 0.08632221
v -0.07790053 -0.01473794 0.08632221
v -0.07790053 -0.01052710 0.08632221
v -0.08211137 -0.01052710 0.00210542
v -0.08211137 -0.00631626 0.00210542
v -0.08211137 -0.00631626 0.00631626
v -0.07790053 -0.01052710 0.00210542
v -0.07790053 -0.00631626 0.00210542
v -0.07790053 -0.01052710 0.06526801
v -0.07790053 -0.00631626 0.06526801
v -0.07790053 -0.00631626 0.07790053
v -0.08211137 -0.00631626 0.08632221
v -0.07790053 -0.01052710 0.09053305
v -0.07790053 -0.01052710 0.09474389
v -0.07790053 -0.01052710 0.09895473
v -0.07790053 -0.01052710 0.10316557
v -0.07790053 -0.01052710 0.10737641
v -0.07790053 -0.00631626 0.10737641
v -0.08211137 -0.00210542 0.00210542
v -0.08211137 -0.00210542 0.00631626
v -0.07790053 -0.00210542 0.00210542
v -0.07790053 -0.00210542 0.06526801
v -0.08211137 -0.00631626 0.07368969
v -0.08211137 -0.00210542 0.07368969
v -0.07790053 -0.00631626 0.07368969
v -0.07790053 -0.00210542 0.07368969
v -0.07790053 -0.00631626 0.11158725
v -0.07790053 -0.00210542 0.11158725
v -0.08211137 0.00210542 0.00210542
v -0.08211137 0.00210542 0.00631626
v -0.07790053 0.00210542 0.00210542
v -0.07790053 0.00210542 0.06526801
v -0.08211137 0.00210542 0.07368969
v -0.07790053 0.00210542 0.07368969
v -0.07790053 0.00210542 0.11158725
v -0.08211137 0.00631626 0.00210542
v -0.08211137 0.00631626 0.00631626
v -0.07790053 0.00631626 0.00210542
v -0.07790053 0.00631626 0.06526801
v -0.08211137 0.00631626 0.07368969
v -0.07790053 0.00631626 0.07368969
v -0.07790053 0.00631626 0.11158725
v -0.08211137 0.01052710 0.00210542
v -0.08211137 0.01052710 0.00631626
v -0.07790053 0.01052710 0.00210542
v -0.07790053 0.01052710 0.06526801
v -0.08211137 0.01052710 0.07368969
v -0.07790053 0.01052710 0.07368969
v -0.07790053 0.01052710 0.11158725
v -0.08211137 0.01473794 0.00210542
v -0.08211137 0.01473794 0.00631626
v -0.07790053 0.01473794 0.00210542
v -0.07790053 0.01473794 0.06526801
v -0.08211137 0.01473794 0.07368969
v -0.08211137 0.01473794 0.07790053
v -0.07790053 0.01473794 0.07368969
v -0.07790053 0.01473794 0.07790053
v -0.08211137 0.01473794 0.08211137
v -0.08211137 0.01473794 0.08632221
v -0.07790053 0.01473794 0.08632221
v -0.07790053 0.01473794 0.09053305
v -0.07790053 0.01473794 0.10737641
v -0.07790053 0.01473794 0.11158725
v -0.08211137 0.01894878 0.00210542
v -0.08211137 0.01894878 0.00631626
v -0.07790053 0.01894878 0.00210542
v -0.07790053 0.01894878 0.00631626
v -0.08211137 0.01894878 0.01052710
v -0.07790053 0.01894878 0.06105717
v -0.07790053 0.01894878 0.06526801
v -0.08211137 0.01894878 0.07790053
v -0.08211137 0.01894878 0.08211137
v -0.07790053 0.01894878 0.07790053
v -0.08211137 0.01894878 0.08632221
v -0.07790053 0.01894878 0.08632221
v -0.07790053 0.01894878 0.09053305
v -0.07790053 0.01894878 0.09474389
v -0.07790053 0.01894878 0.09895473
v -0.07790053 0.01894878 0.10316557
v -0.07790053 0.01894878 0.10737641
v -0.08211137 0.02315962 0.00631626
v -0.08211137 0.02315962 0.01052710
v -0.07790053 0.02315962 0.00631626
v -0.07790053 0.02315962 0.01052710
v -0.08211137 0.02315962 0.01473794
v -0.07790053 0.02315962 0.05684633
v -0.07790053 0.02315962 0.06105717
v -0.08211137 0.02315962 0.07790053
v -0.08211137 0.02315962 0.08211137
v -0.07790053 0.02315962 0.07790053
v -0.07790053 0.02315962 0.08211137
v -0.08211137 0.02315962 0.08632221
v -0.07790053 0.02315962 0.08632221
v -0.08211137 0.02737046 0.01052710
v -0.08211137 0.02737046 0.01473794
v -0.07790053 0.02737046 0.01052710
v -0.07790053 0.02737046 0.01473794
v -0.08211137 0.02737046 0.01894878
v -0.07790053 0.02737046 0.01894878
v -0.08211137 0.02737046 0.02315962
v -0.07790053 0.02737046 0.05684633
v -0.08211137 0.03158130 0.01894878
v -0.08211137 0.03158130 0.02315962
v -0.07790053 0.03158130 0.01894878
v -0.07790053 0.03158130 0.02315962
v -0.08211137 0.03158130 0.02737046
v -0.07790053 0.03158130 0.02737046
v -0.08211137 0.03158130 0.03158130
v -0.07790053 0.03158130 0.03158130
v -0.08211137 0.03158130 0.03579214
v -0.07790053 0.03158130 0.03579214
v -0.08211137 0.03158130 0.04000298
v -0.08211137 0.03158130 0.04421381
v -0.07790053 0.02737046 0.04842465
v -0.07790053 0.02737046 0.05263549
v -0.07790053 0.03158130 0.04842465
v -0.07790053 0.03158130 0.05263549
v -0.07790053 0.03158130 0.05684633
v -0.08211137 0.03579214 0.03579214
v -0.08211137 0.03579214 0.04000298
v -0.07790053 0.03579214 0.03579214
v -0.07790053 0.03579214 0.04000298
v -0.08211137 0.03579214 0.04421381
v -0.07790053 0.03579214 0.04421381
v -0.07790053 0.03579214 0.04842465
v -0.07790053 0.03579214 0.05263549
v -0.07790053 0.03579214 0.05684633
v -0.07790053 -0.02737046 0.02315962
v -0.07790053 -0.02737046 0.02737046
v -0.07368969 -0.02737046 0.02315962
v -0.07368969 -0.02737046 0.02737046
v -0.07368969 -0.02315962 0.02315962
v -0.07790053 -0.02737046 0.03158130
v -0.07368969 -0.02737046 0.03158130
v -0.07368969 -0.02737046 0.03579214
v -0.07368969 -0.02737046 0.04000298
v -0.07368969 -0.02315962 0.03579214
v -0.07368969 -0.02315962 0.04000298
v -0.07368969 -0.02737046 0.04421381
v -0.07368969 -0.02315962 0.04421381
v -0.07368969 -0.02737046 0.04842465
v -0.07368969 -0.02315962 0.04842465
v -0.07790053 -0.02315962 0.01052710
v -0.07368969 -0.02315962 0.01052710
v -0.07368969 -0.02315962 0.01473794
v -0.07368969 -0.01894878 0.01052710
v -0.07368969 -0.02315962 0.01894878
v -0.07368969 -0.02315962 0.05263549
v -0.07368969 -0.01894878 0.05263549
v -0.07790053 -0.01894878 0.00210542
v -0.07790053 -0.01473794 0.00210542
v -0.07368969 -0.01894878 0.00210542
v -0.07368969 -0.01894878 0.00631626
v -0.07368969 -0.01473794 0.00210542
v -0.07368969 -0.01894878 0.05684633
v -0.07368969 -0.01894878 0.06105717
v -0.07368969 -0.01473794 0.06105717
v -0.07368969 -0.01052710 0.00210542
v -0.07790053 -0.01473794 0.06526801
v -0.07368969 -0.01473794 0.06526801
v -0.07368969 -0.01052710 0.06526801
v -0.07368969 -0.01473794 0.07790053
v -0.07368969 -0.01473794 0.08211137
v -0.07368969 -0.01052710 0.07790053
v -0.07368969 -0.01052710 0.08211137
v -0.07368969 -0.01473794 0.08632221
v -0.07368969 -0.01052710 0.08632221
v -0.07790053 -0.01473794 0.09053305
v -0.07368969 -0.01473794 0.09053305
v -0.07368969 -0.01052710 0.09053305
v -0.07790053 -0.01473794 0.09474389
v -0.07368969 -0.01473794 0.09474389
v -0.07368969 -0.01052710 0.09474389
v -0.07790053 -0.01473794 0.09895473
v -0.07368969 -0.01473794 0.09895473
v -0.07368969 -0.01052710 0.09895473
v -0.07790053 -0.01052710 -0.00210542
v -0.07790053 -0.00631626 -0.00210542
v -0.07368969 -0.01052710 -0.00210542
v -0.07368969 -0.00631626 -0.00210542
v -0.07368969 -0.00631626 0.06526801
v -0.07368969 -0.00631626 0.07790053
v -0.07368969 -0.00631626 0.08211137
v -0.07368969 -0.00631626 0.08632221
v -0.07368969 -0.00631626 0.09053305
v -0.07368969 -0.00631626 0.09474389
v -0.07368969 -0.00631626 0.09895473
v -0.07368969 -0.01052710 0.10316557
v -0.07368969 -0.01052710 0.10737641
v -0.07368969 -0.00631626 0.10737641
v -0.07790053 -0.00210542 -0.00210542
v -0.07368969 -0.00210542 -0.00210542
v -0.07368969 -0.00210542 0.06526801
v -0.07368969 -0.00631626 0.07368969
v -0.07368969 -0.00210542 0.07368969
v -0.07368969 -0.00210542 0.07790053
v -0.07368969 -0.00210542 0.08211137
v -0.07368969 -0.00210542 0.08632221
v -0.07368969 -0.00210542 0.09053305
v -0.07368969 -0.00210542 0.09474389
v -0.07368969 -0.00210542 0.09895473
v -0.07368969 -0.00631626 0.11158725
v -0.07368969 -0.00210542 0.11158725
v -0.07790053 0.00210542 -0.00210542
v -0.07368969 0.00210542 -0.00210542
v -0.07368969 -0.00210542 0.04842465
v -0.07368969 -0.00210542 0.05263549
v -0.07368969 0.00210542 0.04842465
v -0.07368969 0.00210542 0.05263549
v -0.07790053 -0.00210542 0.06947885
v -0.07790053 0.00210542 0.06947885
v -0.07368969 -0.00210542 0.06947885
v -0.07368969 0.00210542 0.06947885
v -0.07368969 0.00210542 0.07368969
v -0.07368969 0.00210542 0.07790053
v -0.07368969 0.00210542 0.08211137
v -0.07368969 0.00210542 0.08632221
v -0.07368969 0.00210542 0.09053305
v -0.07368969 0.00210542 0.09474389
v -0.07368969 0.00210542 0.09895473
v -0.07368969 0.00210542 0.11158725
v -0.07790053 0.00631626 -0.00210542
v -0.07368969 0.00631626 -0.00210542
v -0.07368969 0.00631626 0.04842465
v -0.07368969 0.00631626 0.05263549
v -0.07790053 0.00631626 0.06947885
v -0.07368969 0.00631626 0.06947885
v -0.07368969 0.00631626 0.07368969
v -0.07368969 0.00631626 0.07790053
v -0.07368969 0.00631626 0.08211137
v -0.07368969 0.00631626 0.08632221
v -0.07368969 0.00631626 0.09053305
v -0.07368969 0.00631626 0.09474389
v -0.07368969 0.00631626 0.09895473
v -0.07790053 0.00210542 0.11579809
v -0.07790053 0.00631626 0.11579809
v -0.07368969 0.00210542 0.11579809
v -0.07368969 0.00631626 0.11158725
v -0.07368969 0.00631626 0.11579809
v -0.07790053 0.01052710 -0.00210542
v -0.07368969 0.01052710 -0.00210542
v -0.07790053 0.01052710 0.06947885
v -0.07368969 0.01052710 0.06526801
v -0.07368969 0.01052710 0.06947885
v -0.07368969 0.01052710 0.07368969
v -0.07368969 0.01052710 0.07790053
v -0.07368969 0.01052710 0.08211137
v -0.07368969 0.01052710 0.08632221
v -0.07368969 0.01052710 0.09053305
v -0.07368969 0.01052710 0.09474389
v -0.07368969 0.01052710 0.09895473
v -0.07368969 0.01052710 0.11158725
v -0.07790053 0.01473794 -0.00210542
v -0.07368969 0.01473794 -0.00210542
v -0.07368969 0.01473794 0.06526801
v -0.07368969 0.01473794 0.07368969
v -0.07368969 0.01473794 0.07790053
v -0.07368969 0.01473794 0.08211137
v -0.07368969 0.01473794 0.08632221
v -0.07368969 0.01473794 0.09053305
v -0.07368969 0.01473794 0.09474389
v -0.07368969 0.01473794 0.09895473
v -0.07368969 0.01473794 0.10737641
v -0.07368969 0.01473794 0.11158725
v -0.07790053 0.01894878 -0.00210542
v -0.07368969 0.01894878 -0.00210542
v -0.07368969 0.01894878 0.00210542
v -0.07368969 0.01894878 0.06105717
v -0.07368969 0.01894878 0.06526801
v -0.07368969 0.01894878 0.07790053
v -0.07368969 0.01894878 0.08211137
v -0.07368969 0.01894878 0.08632221
v -0.07368969 0.01894878 0.09053305
v -0.07368969 0.01894878 0.09474389
v -0.07368969 0.01894878 0.09895473
v -0.07368969 0.01894878 0.10316557
v -0.07368969 0.01894878 0.10737641
v -0.07790053 0.02315962 0.00210542
v -0.07368969 0.02315962 0.00210542
v -0.07368969 0.02315962 0.00631626
v -0.07368969 0.02315962 0.05684633
v -0.07368969 0.02315962 0.06105717
v -0.07368969 0.02315962 0.07790053
v -0.07368969 0.02315962 0.08211137
v -0.07368969 0.02315962 0.08632221
v -0.07790053 0.02315962 0.09053305
v -0.07368969 0.02315962 0.09053305
v -0.07790053 0.02315962 0.09474389
v -0.07368969 0.02315962 0.09474389
v -0.07790053 0.02315962 0.09895473
v -0.07368969 0.02315962 0.09895473
v -0.07790053 0.02737046 0.00631626
v -0.07368969 0.02737046 0.00631626
v -0.07368969 0.02737046 0.01052710
v -0.07368969 0.02737046 0.01473794
v -0.07368969 0.02737046 0.01894878
v -0.07368969 0.02737046 0.04842465
v -0.07368969 0.02737046 0.05263549
v -0.07368969 0.02737046 0.05684633
v -0.07368969 0.03158130 0.01894878
v -0.07368969 0.03158130 0.02315962
v -0.07368969 0.03158130 0.04842465
v -0.07790053 0.03579214 0.02315962
v -0.07790053 0.03579214 0.02737046
v -0.07368969 0.03579214 0.02315962
v -0.07368969 0.03579214 0.02737046
v -0.07790053 0.03579214 0.03158130
v -0.07368969 0.03579214 0.03158130
v -0.07368969 0.03579214 0.03579214
v -0.07368969 0.03158130 0.03579214
v -0.07368969 0.03158130 0.04000298
v -0.07368969 0.03579214 0.04000298
v -0.07368969 0.03158130 0.04421381
v -0.07368969 0.03579214 0.04421381
v -0.07368969 0.03579214 0.04842465
v -0.07368969 -0.02737046 0.01894878
v -0.06947885 -0.02737046 0.01894878
v -0.06947885 -0.02737046 0.02315962
v -0.06947885 -0.02315962 0.01894878
v -0.06947885 -0.02737046 0.02737046
v -0.06947885 -0.02737046 0.03158130
v -0.06947885 -0.02737046 0.03579214
v -0.06947885 -0.02315962 0.03579214
v -0.06947885 -0.02315962 0.01052710
v -0.06947885 -0.02315962 0.01473794
v -0.06947885 -0.01894878 0.01052710
v -0.06947885 -0.02315962 0.04000298
v -0.06947885 -0.02315962 0.04421381
v -0.06947885 -0.02315962 0.04842465
v -0.06947885 -0.02315962 0.05263549
v -0.06947885 -0.01894878 0.05263549
v -0.06947885 -0.01894878 0.00210542
v -0.06947885 -0.01894878 0.00631626
v -0.06947885 -0.01473794 0.00210542
v -0.06947885 -0.01894878 0.05684633
v -0.06947885 -0.01894878 0.06105717
v -0.06947885 -0.01473794 0.06105717
v -0.06947885 -0.01052710 0.00210542
v -0.06947885 -0.01473794 0.06526801
v -0.06947885 -0.01052710 0.06526801
v -0.06947885 -0.01052710 -0.00210542
v -0.06947885 -0.00631626 -0.00210542
v -0.06947885 -0.01052710 0.02737046
v -0.06947885 -0.01052710 0.03158130
v -0.06947885 -0.00631626 0.02737046
v -0.06947885 -0.00631626 0.03158130
v -0.06947885 -0.01052710 0.03579214
v -0.06947885 -0.00631626 0.03579214
v -0.06947885 -0.01052710 0.04000298
v -0.06947885 -0.00631626 0.04000298
v -0.06947885 -0.00631626 0.06526801
v -0.06947885 -0.01052710 0.09895473
v -0.06947885 -0.01052710 0.10316557
v -0.06947885 -0.00631626 0.09895473
v -0.06947885 -0.00631626 0.10316557
v -0.06947885 -0.01052710 0.10737641
v -0.06947885 -0.00631626 0.10737641
v -0.06947885 -0.00210542 -0.00210542
v -0.06947885 -0.00210542 0.02737046
v -0.06947885 -0.00210542 0.03158130
v -0.06947885 -0.00210542 0.03579214
v -0.06947885 -0.00210542 0.04000298
v -0.06947885 -0.00631626 0.04421381
v -0.06947885 -0.00210542 0.04421381
v -0.06947885 -0.00631626 0.04842465
v -0.06947885 -0.00210542 0.04842465
v -0.06947885 -0.00210542 0.05263549
v -0.06947885 -0.00210542 0.06526801
v -0.06947885 -0.00210542 0.09895473
v -0.06947885 -0.00210542 0.10316557
v -0.06947885 -0.00210542 0.10737641
v -0.06947885 -0.00631626 0.11158725
v -0.06947885 -0.00210542 0.11158725
v -0.06947885 0.00210542 -0.00210542
v -0.06947885 0.00210542 0.02737046
v -0.06947885 0.00210542 0.03158130
v -0.06947885 0.00210542 0.03579214
v -0.06947885 0.00210542 0.04000298
v -0.06947885 0.00210542 0.04421381
v -0.06947885 0.00210542 0.04842465
v -0.06947885 0.00210542 0.05263549
v -0.06947885 -0.00210542 0.06947885
v -0.06947885 0.00210542 0.06947885
v -0.06947885 0.00210542 0.09895473
v -0.06947885 0.00210542 0.10316557
v -0.06947885 0.00210542 0.10737641
v -0.06947885 0.00210542 0.11158725
v -0.06947885 0.00631626 -0.00210542
v -0.06947885 0.00631626 0.02737046
v -0.06947885 0.00631626 0.03158130
v -0.06947885 0.00631626 0.03579214
v -0.06947885 0.00631626 0.04000298
v -0.06947885 0.00631626 0.04421381
v -0.06947885 0.00631626 0.04842465
v -0.06947885 0.00631626 0.05263549
v -0.06947885 0.00631626 0.06947885
v -0.06947885 0.00631626 0.09895473
v -0.06947885 0.00631626 0.10316557
v -0.06947885 0.00631626 0.10737641
v -0.06947885 0.00631626 0.11158725
v -0.06947885 0.01052710 -0.00210542
v -0.06947885 0.01052710 0.02737046
v -0.06947885 0.01052710 0.03158130
v -0.06947885 0.01052710 0.03579214
v -0.06947885 0.01052710 0.04000298
v -0.06947885 0.01052710 0.04421381
v -0.06947885 0.01052710 0.04842465
v -0.06947885 0.01052710 0.05263549
v -0.06947885 0.01052710 0.06526801
v -0.06947885 0.01052710 0.06947885
v -0.06947885 0.01052710 0.09895473
v -0.06947885 0.01052710 0.10316557
v -0.06947885 0.01052710 0.10737641
v -0.06947885 0.01052710 0.11158725
v -0.06947885 0.01473794 -0.00210542
v -0.06947885 0.01473794 0.02737046
v -0.06947885 0.01473794 0.03158130
v -0.06947885 0.01473794 0.03579214
v -0.06947885 0.01473794 0.04000298
v -0.06947885 0.01473794 0.04421381
v -0.06947885 0.01473794 0.06526801
v -0.06947885 0.01473794 0.09895473
v -0.06947885 0.01473794 0.10316557
v -0.06947885 0.01473794 0.10737641
v -0.06947885 0.01473794 0.11158725
v -0.06947885 0.01894878 -0.00210542
v -0.06947885 0.01894878 0.00210542
v -0.06947885 0.01894878 0.06105717
v -0.06947885 0.01894878 0.06526801
v -0.06947885 0.01894878 0.09895473
v -0.06947885 0.01894878 0.10316557
v -0.06947885 0.01894878 0.10737641
v -0.06947885 0.02315962 0.00210542
v -0.06947885 0.02315962 0.00631626
v -0.06947885 0.02315962 0.05684633
v -0.06947885 0.02315962 0.06105717
v -0.06947885 0.02737046 0.00631626
v -0.06947885 0.02737046 0.01052710
v -0.06947885 0.02737046 0.01473794
v -0.06947885 0.02737046 0.04842465
v -0.06947885 0.02737046 0.05263549
v -0.06947885 0.02737046 0.05684633
v -0.07368969 0.03158130 0.01473794
v -0.06947885 0.03158130 0.01473794
v -0.06947885 0.03158130 0.01894878
v -0.06947885 0.03158130 0.03579214
v -0.06947885 0.03158130 0.04000298
v -0.06947885 0.03158130 0.04421381
v -0.06947885 0.03158130 0.04842465
v -0.07368969 0.03579214 0.01894878
v -0.06947885 0.03579214 0.01894878
v -0.06947885 0.03579214 0.02315962
v -0.06947885 0.03579214 0.02737046
v -0.06947885 0.03579214 0.03158130
v -0.06947885 0.03579214 0.03579214
v -0.06526801 -0.02737046 0.01894878
v -0.06526801 -0.02737046 0.02315962
v -0.06526801 -0.02315962 0.01894878
v -0.06526801 -0.02315962 0.02315962
v -0.06526801 -0.02737046 0.02737046
v -0.06526801 -0.02737046 0.03158130
v -0.06526801 -0.02737046 0.03579214
v -0.06526801 -0.02315962 0.03579214
v -0.06526801 -0.02315962 0.01052710
v -0.06526801 -0.02315962 0.01473794
v -0.06526801 -0.01894878 0.01052710
v -0.06526801 -0.02315962 0.04000298
v -0.06526801 -0.02315962 0.04421381
v -0.06526801 -0.02315962 0.04842465
v -0.06526801 -0.02315962 0.05263549
v -0.06526801 -0.01894878 0.05263549
v -0.06526801 -0.01894878 0.00210542
v -0.06526801 -0.01894878 0.00631626
v -0.06526801 -0.01473794 0.00210542
v -0.06526801 -0.01894878 0.05684633
v -0.06526801 -0.01894878 0.06105717
v -0.06526801 -0.01473794 0.06105717
v -0.06526801 -0.01052710 0.00210542
v -0.06526801 -0.01052710 0.02737046
v -0.06526801 -0.01052710 0.03158130
v -0.06526801 -0.01052710 0.03579214
v -0.06526801 -0.01052710 0.04000298
v -0.06526801 -0.01473794 0.06526801
v -0.06526801 -0.01052710 0.06526801
v -0.06526801 -0.01052710 -0.00210542
v -0.06526801 -0.00631626 -0.00210542
v -0.06526801 -0.01052710 0.02315962
v -0.06526801 -0.00631626 0.02315962
v -0.06526801 -0.00631626 0.02737046
v -0.06526801 -0.01052710 0.04421381
v -0.06526801 -0.00631626 0.04000298
v -0.06526801 -0.00631626 0.04421381
v -0.06526801 -0.00631626 0.04842465
v -0.06526801 -0.00631626 0.06526801
v -0.06526801 -0.00210542 -0.00210542
v -0.06526801 -0.00631626 0.01473794
v -0.06526801 -0.00631626 0.01894878
v -0.06526801 -0.00210542 0.01473794
v -0.06526801 -0.00210542 0.01894878
v -0.06526801 -0.00210542 0.02315962
v -0.06526801 -0.00210542 0.02737046
v -0.06526801 -0.00210542 0.04842465
v -0.06526801 -0.00210542 0.05263549
v -0.06947885 -0.00631626 0.06947885
v -0.06526801 -0.00631626 0.06947885
v -0.06526801 -0.00210542 0.06947885
v -0.06526801 0.00210542 -0.00210542
v -0.06526801 -0.00210542 0.01052710
v -0.06526801 0.00210542 0.01052710
v -0.06526801 0.00210542 0.01473794
v -0.06526801 0.00210542 0.01894878
v -0.06526801 0.00210542 0.02315962
v -0.06526801 0.00210542 0.02737046
v -0.06526801 0.00210542 0.05263549
v -0.06526801 0.00210542 0.06947885
v -0.06526801 0.00631626 -0.00210542
v -0.06526801 0.00631626 0.01052710
v -0.06526801 0.00631626 0.01473794
v -0.06526801 0.00631626 0.01894878
v -0.06526801 0.00631626 0.02315962
v -0.06526801 0.00631626 0.02737046
v -0.06526801 0.00631626 0.05263549
v -0.06526801 0.00631626 0.06947885
v -0.06526801 0.01052710 -0.00210542
v -0.06526801 0.01052710 0.01473794
v -0.06526801 0.01052710 0.01894878
v -0.06526801 0.01052710 0.02315962
v -0.06526801 0.01052710 0.02737046
v -0.06526801 0.01052710 0.05263549
v -0.06526801 0.01052710 0.06947885
v -0.06526801 0.01473794 -0.00210542
v -0.06526801 0.01473794 0.01894878
v -0.06526801 0.01473794 0.02315962
v -0.06526801 0.01473794 0.02737046
v -0.06526801 0.01052710 0.04421381
v -0.06526801 0.01052710 0.04842465
v -0.06526801 0.01473794 0.04421381
v -0.06526801 0.01473794 0.04842465
v -0.06947885 0.01473794 0.06947885
v -0.06526801 0.01473794 0.06526801
v -0.06526801 0.01473794 0.06947885
v -0.06526801 0.01894878 -0.00210542
v -0.06526801 0.01894878 0.00210542
v -0.06526801 0.01473794 0.03158130
v -0.06526801 0.01473794 0.03579214
v -0.06526801 0.01473794 0.04000298
v -0.06526801 0.01894878 0.06105717
v -0.06526801 0.01894878 0.06526801
v -0.06526801 0.02315962 0.00210542
v -0.06526801 0.02315962 0.00631626
v -0.06526801 0.02315962 0.05684633
v -0.06526801 0.02315962 0.06105717
v -0.06526801 0.02737046 0.00631626
v -0.06526801 0.02737046 0.01052710
v -0.06526801 0.02737046 0.01473794
v -0.06526801 0.02737046 0.04842465
v -0.06526801 0.02737046 0.05263549
v -0.06526801 0.02737046 0.05684633
v -0.06526801 0.03158130 0.01473794
v -0.06526801 0.03158130 0.01894878
v -0.06526801 0.03158130 0.03579214
v -0.06526801 0.03158130 0.04000298
v -0.06526801 0.03158130 0.04421381
v -0.06526801 0.03158130 0.04842465
v -0.06526801 0.03158130 0.02315962
v -0.06526801 0.03579214 0.01894878
v -0.06526801 0.03579214 0.02315962
v -0.06526801 0.03579214 0.02737046
v -0.06526801 0.03579214 0.03158130
v -0.06526801 0.03579214 0.03579214
v -0.06105717 -0.02737046 0.02315962
v -0.06105717 -0.02737046 0.02737046
v -0.06105717 -0.02315962 0.02315962
v -0.06105717 -0.02315962 0.02737046
v -0.06105717 -0.02737046 0.03158130
v -0.06105717 -0.02315962 0.03158130
v -0.06105717 -0.02737046 0.03579214
v -0.06105717 -0.02315962 0.03579214
v -0.06105717 -0.02315962 0.01052710
v -0.06105717 -0.02315962 0.01473794
v -0.06105717 -0.01894878 0.01052710
v -0.06105717 -0.02315962 0.01894878
v -0.06105717 -0.02315962 0.04000298
v -0.06105717 -0.02315962 0.04421381
v -0.06105717 -0.02315962 0.04842465
v -0.06105717 -0.02315962 0.05263549
v -0.06526801 -0.02315962 0.05684633
v -0.06105717 -0.02315962 0.05684633
v -0.06105717 -0.01894878 0.05263549
v -0.06105717 -0.01894878 0.05684633
v -0.06105717 -0.01894878 0.00210542
v -0.06105717 -0.01894878 0.00631626
v -0.06105717 -0.01473794 0.00210542
v -0.06105717 -0.01473794 0.00631626
v -0.06105717 -0.01894878 0.06105717
v -0.06105717 -0.01473794 0.06105717
v -0.06526801 -0.01473794 -0.00210542
v -0.06105717 -0.01473794 -0.00210542
v -0.06105717 -0.01052710 -0.00210542
v -0.06105717 -0.01052710 0.00210542
v -0.06105717 -0.01052710 0.02315962
v -0.06105717 -0.01052710 0.02737046
v -0.06105717 -0.01052710 0.03158130
v -0.06105717 -0.01052710 0.03579214
v -0.06105717 -0.01052710 0.04000298
v -0.06105717 -0.01052710 0.04421381
v -0.06105717 -0.01473794 0.06526801
v -0.06105717 -0.01052710 0.06105717
v -0.06105717 -0.01052710 0.06526801
v -0.06105717 -0.00631626 -0.00210542
v -0.06105717 -0.00631626 0.01473794
v -0.06105717 -0.00631626 0.01894878
v -0.06105717 -0.00631626 0.02315962
v -0.06105717 -0.00631626 0.04421381
v -0.06105717 -0.00631626 0.04842465
v -0.06526801 -0.01052710 0.06947885
v -0.06105717 -0.01052710 0.06947885
v -0.06105717 -0.00631626 0.06526801
v -0.06105717 -0.00631626 0.06947885
v -0.06105717 -0.00210542 -0.00210542
v -0.06105717 -0.00210542 0.01052710
v -0.06105717 -0.00210542 0.01473794
v -0.06105717 -0.00631626 0.05263549
v -0.06105717 -0.00210542 0.04842465
v -0.06105717 -0.00210542 0.05263549
v -0.06105717 -0.00631626 0.06105717
v -0.06105717 -0.00210542 0.06105717
v -0.06105717 -0.00210542 0.06526801
v -0.06105717 -0.00210542 0.06947885
v -0.06105717 0.00210542 -0.00210542
v -0.06105717 0.00210542 0.01052710
v -0.06105717 0.00210542 0.05263549
v -0.06105717 0.00210542 0.06105717
v -0.06105717 0.00210542 0.06526801
v -0.06105717 0.00210542 0.06947885
v -0.06105717 0.00631626 -0.00210542
v -0.06105717 0.00631626 0.01052710
v -0.06105717 0.00631626 0.05263549
v -0.06105717 0.00631626 0.06105717
v -0.06105717 0.00631626 0.06526801
v -0.06105717 0.00631626 0.06947885
v -0.06105717 0.01052710 -0.00210542
v -0.06105717 0.00631626 0.01473794
v -0.06105717 0.01052710 0.01473794
v -0.06105717 0.01052710 0.05263549
v -0.06105717 0.01052710 0.06105717
v -0.06105717 0.01052710 0.06526801
v -0.06105717 0.01052710 0.06947885
v -0.06105717 0.01473794 -0.00210542
v -0.06105717 0.01052710 0.01894878
v -0.06105717 0.01473794 0.01894878
v -0.06105717 0.01052710 0.04842465
v -0.06105717 0.01473794 0.04842465
v -0.06105717 0.01473794 0.06105717
v -0.06105717 0.01473794 0.06526801
v -0.06105717 0.01473794 0.06947885
v -0.06105717 0.01894878 -0.00210542
v -0.06105717 0.01894878 0.00210542
v -0.06105717 0.01473794 0.02315962
v -0.06105717 0.01473794 0.02737046
v -0.06105717 0.01473794 0.03158130
v -0.06105717 0.01473794 0.03579214
v -0.06105717 0.01473794 0.04000298
v -0.06105717 0.01473794 0.04421381
v -0.06105717 0.01894878 0.06105717
v -0.06105717 0.01894878 0.06526801
v -0.06105717 0.02315962 0.00210542
v -0.06105717 0.02315962 0.00631626
v -0.06105717 0.02315962 0.05684633
v -0.06105717 0.02315962 0.06105717
v -0.06105717 0.02737046 0.00631626
v -0.06105717 0.02737046 0.01052710
v -0.06105717 0.02737046 0.01473794
v -0.06105717 0.02737046 0.04842465
v -0.06105717 0.02737046 0.05263549
v -0.06105717 0.02737046 0.05684633
v -0.06105717 0.03158130 0.01473794
v -0.06105717 0.03158130 0.01894878
v -0.06105717 0.03158130 0.02315962
v -0.06105717 0.03158130 0.03579214
v -0.06105717 0.03158130 0.04000298
v -0.06105717 0.03158130 0.04421381
v -0.06105717 0.03158130 0.04842465
v -0.06105717 0.03158130 0.02737046
v -0.06105717 0.03579214 0.02315962
v -0.06105717 0.03579214 0.02737046
v -0.06105717 0.03158130 0.03158130
v -0.06105717 0.03579214 0.03158130
v -0.06105717 0.03579214 0.03579214
v -0.05684633 -0.02315962 0.01052710
v -0.05684633 -0.02315962 0.01473794
v -0.05684633 -0.01894878 0.01052710
v -0.05684633 -0.02315962 0.01894878
v -0.05684633 -0.02315962 0.02315962
v -0.05684633 -0.02315962 0.02737046
v -0.05684633 -0.02315962 0.03158130
v -0.05684633 -0.02315962 0.03579214
v -0.05684633 -0.02315962 0.04000298
v -0.05684633 -0.02315962 0.04421381
v -0.05684633 -0.01894878 0.04000298
v -0.05684633 -0.01894878 0.04421381
v -0.05684633 -0.02315962 0.04842465
v -0.05684633 -0.01894878 0.04842465
v -0.05684633 -0.02315962 0.05263549
v -0.05684633 -0.01894878 0.05263549
v -0.05684633 -0.01894878 0.00631626
v -0.05684633 -0.01473794 0.00631626
v -0.05684633 -0.01473794 0.04000298
v -0.05684633 -0.01473794 0.04421381
v -0.05684633 -0.01473794 0.04842465
v -0.05684633 -0.01473794 0.05263549
v -0.05684633 -0.01894878 0.05684633
v -0.05684633 -0.01473794 0.05684633
v -0.05684633 -0.01894878 0.06105717
v -0.05684633 -0.01473794 0.06105717
v -0.05684633 -0.01473794 0.00210542
v -0.05684633 -0.01052710 0.00210542
v -0.05684633 -0.01052710 0.02315962
v -0.05684633 -0.01052710 0.02737046
v -0.05684633 -0.01052710 0.03158130
v -0.05684633 -0.01052710 0.03579214
v -0.05684633 -0.01052710 0.04000298
v -0.05684633 -0.01052710 0.04421381
v -0.05684633 -0.01052710 0.04842465
v -0.05684633 -0.01052710 0.05263549
v -0.05684633 -0.01052710 0.05684633
v -0.05684633 -0.01052710 0.06105717
v -0.05684633 -0.01052710 -0.00210542
v -0.05684633 -0.00631626 -0.00210542
v -0.05684633 -0.00631626 0.01473794
v -0.05684633 -0.00631626 0.01894878
v -0.05684633 -0.00631626 0.02315962
v -0.05684633 -0.00631626 0.04421381
v -0.05684633 -0.00631626 0.04842465
v -0.05684633 -0.00631626 0.05263549
v -0.05684633 -0.00631626 0.05684633
v -0.05684633 -0.00631626 0.06105717
v -0.05684633 -0.01052710 0.06526801
v -0.05684633 -0.00631626 0.06526801
v -0.05684633 -0.00210542 -0.00210542
v -0.05684633 -0.00210542 0.01473794
v -0.05684633 -0.00210542 0.05263549
v -0.05684633 -0.00210542 0.05684633
v -0.05684633 -0.00210542 0.06105717
v -0.05684633 0.00210542 -0.00210542
v -0.06105717 0.00210542 0.01473794
v -0.05684633 0.00210542 0.01473794
v -0.05684633 0.00210542 0.05263549
v -0.05684633 0.00210542 0.05684633
v -0.05684633 0.00210542 0.06105717
v -0.05684633 0.00631626 -0.00210542
v -0.05684633 0.00631626 0.01473794
v -0.05684633 0.00631626 0.05263549
v -0.05684633 0.00631626 0.05684633
v -0.05684633 0.00631626 0.06105717
v -0.05684633 0.01052710 -0.00210542
v -0.05684633 0.01052710 0.01473794
v -0.05684633 0.01052710 0.05263549
v -0.05684633 0.01052710 0.05684633
v -0.05684633 0.01052710 0.06105717
v -0.05684633 0.01473794 -0.00210542
v -0.05684633 0.01052710 0.01894878
v -0.05684633 0.01473794 0.01894878
v -0.05684633 0.01052710 0.04842465
v -0.05684633 0.01473794 0.04842465
v -0.05684633 0.01473794 0.05263549
v -0.05684633 0.01473794 0.05684633
v -0.05684633 0.01473794 0.06105717
v -0.05684633 0.01473794 0.00210542
v -0.05684633 0.01894878 -0.00210542
v -0.05684633 0.01894878 0.00210542
v -0.05684633 0.01473794 0.02315962
v -0.05684633 0.01473794 0.02737046
v -0.05684633 0.01473794 0.03158130
v -0.05684633 0.01473794 0.03579214
v -0.05684633 0.01473794 0.04000298
v -0.05684633 0.01473794 0.04421381
v -0.05684633 0.01894878 0.04000298
v -0.05684633 0.01894878 0.04421381
v -0.05684633 0.01894878 0.04842465
v -0.05684633 0.01894878 0.05263549
v -0.05684633 0.01894878 0.05684633
v -0.05684633 0.01894878 0.06105717
v -0.05684633 0.02315962 0.00210542
v -0.05684633 0.02315962 0.00631626
v -0.05684633 0.02315962 0.04000298
v -0.05684633 0.02315962 0.04421381
v -0.05684633 0.02315962 0.04842465
v -0.05684633 0.02315962 0.05263549
v -0.05684633 0.02315962 0.05684633
v -0.05684633 0.02315962 0.06105717
v -0.05684633 0.02737046 0.00631626
v -0.05684633 0.02737046 0.01052710
v -0.05684633 0.02737046 0.01473794
v -0.05684633 0.02737046 0.04000298
v -0.05684633 0.02737046 0.04421381
v -0.05684633 0.02737046 0.04842465
v -0.05684633 0.02737046 0.05263549
v -0.05684633 0.02737046 0.05684633
v -0.05684633 0.02737046 0.01894878
v -0.05684633 0.03158130 0.01473794
v -0.05684633 0.03158130 0.01894878
v -0.05684633 0.03158130 0.02315962
v -0.05684633 0.03158130 0.02737046
v -0.05684633 0.03158130 0.03158130
v -0.05684633 0.03158130 0.03579214
v -0.05684633 0.03158130 0.04000298
v -0.05684633 0.03158130 0.04421381
v -0.05684633 0.03158130 0.04842465
v -0.05263549 -0.02315962 0.01052710
v -0.05263549 -0.02315962 0.01473794
v -0.05263549 -0.01894878 0.01052710
v -0.05263549 -0.01894878 0.01473794
v -0.05263549 -0.02315962 0.01894878
v -0.05263549 -0.01894878 0.01894878
v -0.05263549 -0.02315962 0.02315962
v -0.05263549 -0.01894878 0.02315962
v -0.05263549 -0.02315962 0.02737046
v -0.05263549 -0.01894878 0.02737046
v -0.05263549 -0.02315962 0.03158130
v -0.05263549 -0.01894878 0.03158130
v -0.05263549 -0.02315962 0.03579214
v -0.05263549 -0.01894878 0.03579214
v -0.05263549 -0.02315962 0.04000298
v -0.05263549 -0.01894878 0.04000298
v -0.05263549 -0.01894878 0.00631626
v -0.05263549 -0.01473794 0.00631626
v -0.05263549 -0.01473794 0.01894878
v -0.05263549 -0.01473794 0.02315962
v -0.05263549 -0.01473794 0.02737046
v -0.05263549 -0.01473794 0.03158130
v -0.05263549 -0.01473794 0.03579214
v -0.05263549 -0.01473794 0.04000298
v -0.05263549 -0.01473794 0.00210542
v -0.05263549 -0.01052710 0.00210542
v -0.05263549 -0.01052710 0.01894878
v -0.05263549 -0.01052710 0.02315962
v -0.05263549 -0.01052710 0.02737046
v -0.05263549 -0.01052710 0.03158130
v -0.05263549 -0.01052710 0.03579214
v -0.05263549 -0.01052710 0.04000298
v -0.05263549 -0.01052710 -0.00210542
v -0.05263549 -0.00631626 -0.00210542
v -0.05263549 -0.00631626 0.00210542
v -0.05263549 -0.00631626 0.01894878
v -0.05263549 -0.00631626 0.02315962
v -0.05263549 -0.00210542 -0.00210542
v -0.05684633 -0.00210542 0.01894878
v -0.05263549 -0.00631626 0.01473794
v -0.05263549 -0.00210542 0.01473794
v -0.05263549 -0.00210542 0.01894878
v -0.05263549 0.00210542 -0.00210542
v -0.05263549 0.00210542 0.01473794
v -0.05263549 0.00631626 -0.00210542
v -0.05263549 0.00631626 0.01473794
v -0.05263549 0.01052710 -0.00210542
v -0.05263549 0.01052710 0.01473794
v -0.05263549 0.01473794 -0.00210542
v -0.05263549 0.01473794 0.00210542
v -0.05263549 0.01052710 0.01894878
v -0.05263549 0.01473794 0.01894878
v -0.05263549 0.01894878 0.00210542
v -0.05263549 0.01473794 0.02315962
v -0.05263549 0.01894878 0.01894878
v -0.05263549 0.01894878 0.02315962
v -0.05263549 0.01473794 0.02737046
v -0.05263549 0.01894878 0.02737046
v -0.05263549 0.01473794 0.03158130
v -0.05263549 0.01894878 0.03158130
v -0.05263549 0.01473794 0.03579214
v -0.05263549 0.01894878 0.03579214
v -0.05263549 0.01473794 0.04000298
v -0.05263549 0.01894878 0.04000298
v -0.05263549 0.01894878 0.00631626
v -0.05263549 0.02315962 0.00210542
v -0.05263549 0.02315962 0.00631626
v -0.05263549 0.02315962 0.01894878
v -0.05263549 0.02315962 0.02315962
v -0.05263549 0.02315962 0.02737046
v -0.05263549 0.02315962 0.03158130
v -0.05263549 0.02315962 0.03579214
v -0.05263549 0.02315962 0.04000298
v -0.05263549 0.02315962 0.01052710
v -0.05263549 0.02737046 0.00631626
v -0.05263549 0.02737046 0.01052710
v -0.05263549 0.02737046 0.01473794
v -0.05263549 0.02737046 0.01894878
v -0.05263549 0.02737046 0.02315962
v -0.05263549 0.02737046 0.02737046
v -0.05263549 0.02737046 0.03158130
v -0.05263549 0.02737046 0.03579214
v -0.05263549 0.02737046 0.04000298
v -0.05263549 0.03158130 0.01894878
v -0.05263549 0.03158130 0.02315962
v -0.05263549 0.03158130 0.02737046
v -0.05263549 0.03158130 0.03158130
v -0.05263549 0.03158130 0.03579214
v -0.05263549 0.03158130 0.04000298
v -0.04842465 -0.01894878 0.00631626
v -0.04842465 -0.01894878 0.01052710
v -0.04842465 -0.01473794 0.00631626
v -0.04842465 -0.01473794 0.01052710
v -0.04842465 -0.01894878 0.01473794
v -0.04842465 -0.01473794 0.01473794
v -0.04842465 -0.01894878 0.01894878
v -0.04842465 -0.01473794 0.01894878
v -0.04842465 -0.01473794 0.00210542
v -0.04842465 -0.01052710 0.00210542
v -0.04842465 -0.01052710 0.00631626
v -0.04842465 -0.01052710 0.01052710
v -0.04842465 -0.01052710 0.01473794
v -0.04842465 -0.01052710 0.01894878
v -0.04842465 -0.00631626 0.00210542
v -0.04842465 -0.00631626 0.00631626
v -0.04842465 -0.00631626 0.01052710
v -0.04842465 -0.00631626 0.01473794
v -0.04842465 -0.00631626 0.01894878
v -0.04842465 -0.00631626 -0.00210542
v -0.04842465 -0.00210542 -0.00210542
v -0.04842465 -0.00210542 0.00210542
v -0.04842465 -0.00210542 0.00631626
v -0.04842465 -0.00210542 0.01052710
v -0.04842465 -0.00210542 0.01473794
v -0.04842465 0.00210542 -0.00210542
v -0.04842465 0.00210542 0.00210542
v -0.04842465 0.00210542 0.00631626
v -0.04842465 0.00210542 0.01052710
v -0.04842465 0.00210542 0.01473794
v -0.04842465 0.00631626 -0.00210542
v -0.04842465 0.00631626 0.00210542
v -0.04842465 0.00631626 0.00631626
v -0.04842465 0.00631626 0.01052710
v -0.04842465 0.00631626 0.01473794
v -0.04842465 0.01052710 -0.00210542
v -0.04842465 0.01052710 0.00210542
v -0.04842465 0.01052710 0.00631626
v -0.04842465 0.01052710 0.01052710
v -0.04842465 0.01052710 0.01473794
v -0.04842465 0.01473794 -0.00210542
v -0.04842465 0.01473794 0.00210542
v -0.04842465 0.01473794 0.00631626
v -0.04842465 0.01473794 0.01052710
v -0.04842465 0.01473794 0.01473794
v -0.04842465 0.01052710 0.01894878
v -0.04842465 0.01473794 0.01894878
v -0.04842465 0.01894878 0.00210542
v -0.04842465 0.01894878 0.00631626
v -0.04842465 0.01894878 0.01052710
v -0.04842465 0.01894878 0.01473794
v -0.04842465 0.01894878 0.01894878
v -0.04842465 0.02315962 0.00631626
v -0.04842465 0.02315962 0.01052710
v -0.04842465 0.02315962 0.01473794
v -0.04842465 0.02315962 0.01894878
v -0.04842465 0.02737046 0.01052710
v -0.04842465 0.02737046 0.01473794
v -0.04842465 0.02737046 0.01894878
f 2 4 1
f 5 2 1
f 1 4 3
f 3 5 1
f 6 2 5
f 4 8 3
f 7 5 3
f 3 8 7
f 9 10 2
f 6 9 2
f 2 10 4
f 11 9 6
f 12 13 9
f 11 12 9
f 9 13 10
f 12 15 13
f 14 12 11
f 14 15 12
f 10 17 4
f 4 17 16
f 16 8 4
f 17 19 16
f 18 8 16
f 16 19 18
f 13 20 10
f 10 20 17
f 13 21 20
f 15 21 13
f 20 21 17
f 17 21 19
f 23 25 22
f 26 23 22
f 22 25 24
f 24 26 22
f 27 23 26
f 25 29 24
f 28 26 24
f 24 29 28
f 30 31 23
f 27 30 23
f 23 31 25
f 32 30 27
f 31 33 25
f 25 33 29
f 34 35 30
f 32 34 30
f 30 35 31
f 34 37 35
f 36 34 32
f 36 37 34
f 35 37 31
f 31 37 33
f 39 41 38
f 42 39 38
f 38 41 40
f 40 42 38
f 39 45 41
f 43 39 42
f 43 45 39
f 44 42 40
f 41 47 40
f 40 47 46
f 46 44 40
f 47 49 46
f 48 44 46
f 46 49 48
f 50 5 41
f 45 50 41
f 41 5 47
f 50 52 5
f 51 50 45
f 51 52 50
f 5 7 47
f 47 7 53
f 53 49 47
f 7 55 53
f 54 49 53
f 53 55 54
f 54 52 49
f 55 52 54
f 52 6 5
f 56 6 52
f 55 56 52
f 57 56 55
f 56 11 6
f 58 11 56
f 57 58 56
f 59 58 57
f 58 14 11
f 14 61 15
f 60 14 58
f 60 61 14
f 59 60 58
f 61 60 59
f 8 18 7
f 7 18 62
f 62 55 7
f 18 64 62
f 63 55 62
f 62 64 63
f 63 57 55
f 64 57 63
f 19 65 18
f 18 65 64
f 64 59 57
f 65 59 64
f 15 66 21
f 61 66 15
f 21 68 19
f 19 68 67
f 67 65 19
f 21 70 68
f 66 70 21
f 68 70 67
f 69 65 67
f 67 70 69
f 72 36 71
f 73 72 71
f 71 36 32
f 32 73 71
f 72 76 36
f 74 72 73
f 74 76 72
f 75 73 32
f 26 28 77
f 79 26 77
f 77 28 78
f 78 79 77
f 80 26 79
f 81 79 78
f 81 80 79
f 82 80 81
f 80 27 26
f 83 27 80
f 82 83 80
f 84 83 82
f 83 32 27
f 75 32 83
f 33 85 29
f 29 85 84
f 84 75 83
f 85 75 84
f 36 86 37
f 76 86 36
f 37 86 33
f 33 86 85
f 85 76 75
f 86 76 85
f 28 88 78
f 78 88 87
f 87 81 78
f 89 81 87
f 89 82 81
f 90 82 89
f 29 91 28
f 28 91 88
f 29 92 91
f 84 92 29
f 91 92 88
f 88 92 90
f 90 84 82
f 92 84 90
f 87 95 93
f 96 87 93
f 93 95 94
f 94 96 93
f 89 87 96
f 97 96 94
f 88 98 87
f 87 98 95
f 88 100 98
f 90 100 88
f 98 100 95
f 95 100 99
f 95 102 94
f 94 102 101
f 101 97 94
f 95 104 102
f 99 104 95
f 102 104 101
f 103 97 101
f 101 104 103
f 106 108 105
f 109 106 105
f 105 108 107
f 107 109 105
f 110 106 109
f 108 112 107
f 111 109 107
f 107 112 111
f 113 114 106
f 110 113 106
f 106 114 108
f 115 113 110
f 114 116 108
f 108 116 112
f 117 118 113
f 115 117 113
f 113 118 114
f 117 120 118
f 119 117 115
f 119 120 117
f 116 119 115
f 120 119 116
f 118 42 114
f 114 42 121
f 121 116 114
f 122 116 121
f 122 120 116
f 123 120 122
f 124 43 118
f 120 124 118
f 118 43 42
f 124 126 43
f 125 124 120
f 125 126 124
f 123 125 120
f 126 125 123
f 128 130 127
f 131 128 127
f 127 130 129
f 129 131 127
f 132 128 131
f 133 131 129
f 134 135 128
f 132 134 128
f 128 135 130
f 136 134 132
f 137 138 134
f 136 137 134
f 134 138 135
f 139 137 136
f 140 141 137
f 139 140 137
f 137 141 138
f 142 140 139
f 143 144 140
f 142 143 140
f 140 144 141
f 145 143 142
f 146 147 143
f 145 146 143
f 143 147 144
f 148 146 145
f 149 150 146
f 148 149 146
f 146 150 147
f 151 149 148
f 152 153 149
f 151 152 149
f 149 153 150
f 154 152 151
f 121 155 152
f 154 121 152
f 152 155 153
f 122 121 154
f 42 44 121
f 121 44 155
f 43 157 45
f 126 157 43
f 156 126 123
f 157 126 156
f 129 160 158
f 161 129 158
f 158 160 159
f 159 161 158
f 133 129 161
f 162 161 159
f 130 163 129
f 129 163 160
f 135 164 130
f 130 164 163
f 138 165 135
f 135 165 164
f 141 166 138
f 138 166 165
f 144 167 141
f 141 167 166
f 147 168 144
f 144 168 167
f 150 169 147
f 147 169 168
f 153 170 150
f 150 170 169
f 155 171 153
f 153 171 170
f 44 48 155
f 155 48 171
f 49 173 48
f 48 173 172
f 172 157 156
f 173 157 172
f 157 51 45
f 51 175 52
f 174 51 157
f 174 175 51
f 52 175 49
f 49 175 173
f 173 174 157
f 175 174 173
f 159 178 176
f 179 159 176
f 176 178 177
f 177 179 176
f 162 159 179
f 180 179 177
f 160 181 159
f 159 181 178
f 163 182 160
f 160 182 181
f 164 183 163
f 163 183 182
f 165 184 164
f 164 184 183
f 166 185 165
f 165 185 184
f 167 186 166
f 166 186 185
f 168 187 167
f 167 187 186
f 169 188 168
f 168 188 187
f 170 189 169
f 169 189 188
f 171 190 170
f 170 190 189
f 48 191 171
f 171 191 190
f 48 192 191
f 172 192 48
f 194 196 193
f 197 194 193
f 193 196 195
f 195 197 193
f 198 194 197
f 199 197 195
f 200 201 194
f 198 200 194
f 194 201 196
f 202 200 198
f 203 204 200
f 202 203 200
f 200 204 201
f 205 203 202
f 206 207 203
f 205 206 203
f 203 207 204
f 206 209 207
f 208 206 205
f 208 209 206
f 178 211 177
f 177 211 210
f 210 180 177
f 212 180 210
f 181 213 178
f 178 213 211
f 182 214 181
f 181 214 213
f 183 215 182
f 182 215 214
f 184 216 183
f 183 216 215
f 185 217 184
f 184 217 216
f 186 218 185
f 185 218 217
f 187 219 186
f 186 219 218
f 188 220 187
f 187 220 219
f 189 221 188
f 188 221 220
f 190 222 189
f 189 222 221
f 191 223 190
f 190 223 222
f 54 224 191
f 192 54 191
f 191 224 223
f 54 226 224
f 225 54 192
f 225 226 54
f 227 61 59
f 65 227 59
f 61 230 66
f 228 61 227
f 228 230 61
f 229 227 65
f 196 232 195
f 195 232 231
f 231 199 195
f 233 199 231
f 201 234 196
f 196 234 232
f 204 235 201
f 201 235 234
f 207 236 204
f 204 236 235
f 237 238 207
f 209 237 207
f 207 238 236
f 237 240 238
f 239 237 209
f 239 240 237
f 211 242 210
f 210 242 241
f 241 212 210
f 243 212 241
f 213 244 211
f 211 244 242
f 214 245 213
f 213 245 244
f 215 246 214
f 214 246 245
f 216 247 215
f 215 247 246
f 217 248 216
f 216 248 247
f 218 249 217
f 217 249 248
f 219 250 218
f 218 250 249
f 220 251 219
f 219 251 250
f 221 252 220
f 220 252 251
f 222 253 221
f 221 253 252
f 223 254 222
f 222 254 253
f 224 255 223
f 223 255 254
f 224 256 255
f 226 256 224
f 69 229 65
f 70 258 69
f 257 229 69
f 69 258 257
f 259 260 66
f 230 259 66
f 66 260 70
f 261 259 230
f 231 262 259
f 261 231 259
f 259 262 260
f 233 231 261
f 232 263 231
f 231 263 262
f 234 264 232
f 232 264 263
f 235 265 234
f 234 265 264
f 236 266 235
f 235 266 265
f 238 267 236
f 236 267 266
f 238 268 267
f 240 268 238
f 242 270 241
f 241 270 269
f 269 243 241
f 271 243 269
f 244 272 242
f 242 272 270
f 245 273 244
f 244 273 272
f 246 274 245
f 245 274 273
f 247 275 246
f 246 275 274
f 248 276 247
f 247 276 275
f 249 277 248
f 248 277 276
f 250 278 249
f 249 278 277
f 251 279 250
f 250 279 278
f 252 280 251
f 251 280 279
f 253 281 252
f 252 281 280
f 254 282 253
f 253 282 281
f 255 283 254
f 254 283 282
f 255 284 283
f 256 284 255
f 260 285 70
f 70 285 74
f 74 258 70
f 286 258 74
f 262 287 260
f 260 287 285
f 263 288 262
f 262 288 287
f 264 289 263
f 263 289 288
f 265 290 264
f 264 290 289
f 266 291 265
f 265 291 290
f 267 292 266
f 266 292 291
f 267 293 292
f 268 293 267
f 270 295 269
f 269 295 294
f 294 271 269
f 296 271 294
f 272 297 270
f 270 297 295
f 273 298 272
f 272 298 297
f 274 299 273
f 273 299 298
f 275 300 274
f 274 300 299
f 276 301 275
f 275 301 300
f 277 302 276
f 276 302 301
f 278 303 277
f 277 303 302
f 279 304 278
f 278 304 303
f 280 305 279
f 279 305 304
f 281 306 280
f 280 306 305
f 282 307 281
f 281 307 306
f 283 79 282
f 282 79 307
f 283 308 79
f 284 308 283
f 309 74 73
f 75 309 73
f 286 74 309
f 76 311 75
f 310 309 75
f 75 311 310
f 285 312 74
f 74 312 76
f 312 313 76
f 76 313 311
f 287 314 285
f 285 314 312
f 314 315 312
f 312 315 313
f 288 316 287
f 287 316 314
f 289 317 288
f 288 317 316
f 290 318 289
f 289 318 317
f 291 319 290
f 290 319 318
f 292 320 291
f 291 320 319
f 292 321 320
f 293 321 292
f 295 323 294
f 294 323 322
f 322 296 294
f 323 325 322
f 324 296 322
f 322 325 324
f 297 326 295
f 295 326 323
f 298 327 297
f 297 327 326
f 299 328 298
f 298 328 327
f 300 329 299
f 299 329 328
f 301 330 300
f 300 330 329
f 302 331 301
f 301 331 330
f 303 332 302
f 302 332 331
f 304 333 303
f 303 333 332
f 305 334 304
f 304 334 333
f 306 335 305
f 305 335 334
f 307 336 306
f 306 336 335
f 79 81 307
f 307 81 336
f 79 338 81
f 308 338 79
f 81 338 336
f 336 338 337
f 316 340 314
f 314 340 339
f 339 315 314
f 341 315 339
f 317 342 316
f 316 342 340
f 318 343 317
f 317 343 342
f 319 344 318
f 318 344 343
f 320 345 319
f 319 345 344
f 320 347 345
f 321 347 320
f 345 347 344
f 344 347 346
f 326 349 323
f 323 349 348
f 348 325 323
f 349 351 348
f 350 325 348
f 348 351 350
f 327 352 326
f 326 352 349
f 328 353 327
f 327 353 352
f 329 354 328
f 328 354 353
f 330 355 329
f 329 355 354
f 331 356 330
f 330 356 355
f 332 357 331
f 331 357 356
f 333 358 332
f 332 358 357
f 334 359 333
f 333 359 358
f 335 360 334
f 334 360 359
f 336 96 335
f 335 96 360
f 336 362 96
f 337 362 336
f 96 362 360
f 360 362 361
f 340 364 339
f 339 364 363
f 363 341 339
f 364 366 363
f 365 341 363
f 363 366 365
f 342 367 340
f 340 367 364
f 367 368 364
f 364 368 366
f 343 369 342
f 342 369 367
f 369 370 367
f 367 370 368
f 344 371 343
f 343 371 369
f 344 372 371
f 346 372 344
f 371 372 369
f 369 372 370
f 352 374 349
f 349 374 373
f 373 351 349
f 374 376 373
f 375 351 373
f 373 376 375
f 353 377 352
f 352 377 374
f 377 378 374
f 374 378 376
f 354 379 353
f 353 379 377
f 355 380 354
f 354 380 379
f 356 381 355
f 355 381 380
f 357 382 356
f 356 382 381
f 358 383 357
f 357 383 382
f 359 384 358
f 358 384 383
f 360 385 359
f 359 385 384
f 360 387 385
f 361 387 360
f 385 387 384
f 384 387 386
f 362 89 96
f 97 362 96
f 388 89 362
f 389 362 97
f 389 388 362
f 390 388 389
f 388 90 89
f 90 392 100
f 391 90 388
f 391 392 90
f 100 392 99
f 99 392 390
f 390 391 388
f 392 391 390
f 379 394 377
f 377 394 393
f 393 378 377
f 394 396 393
f 395 378 393
f 393 396 395
f 380 397 379
f 379 397 394
f 397 398 394
f 394 398 396
f 381 399 380
f 380 399 397
f 399 400 397
f 397 400 398
f 382 401 381
f 381 401 399
f 401 402 399
f 399 402 400
f 383 403 382
f 382 403 401
f 403 404 401
f 401 404 402
f 384 405 383
f 383 405 403
f 384 406 405
f 386 406 384
f 97 103 385
f 387 97 385
f 385 103 407
f 407 387 385
f 389 97 387
f 408 387 407
f 408 389 387
f 409 389 408
f 99 410 104
f 390 410 99
f 104 410 103
f 103 410 409
f 409 390 389
f 410 390 409
f 405 412 403
f 403 412 411
f 411 404 403
f 413 404 411
f 407 414 405
f 406 407 405
f 405 414 412
f 408 407 406
f 103 415 407
f 407 415 414
f 103 417 415
f 409 417 103
f 415 417 414
f 414 417 416
f 416 409 408
f 417 409 416
f 412 419 411
f 411 419 418
f 418 413 411
f 419 421 418
f 420 413 418
f 418 421 420
f 414 422 412
f 412 422 419
f 414 423 422
f 416 423 414
f 422 423 419
f 419 423 421
f 425 427 424
f 428 425 424
f 424 427 426
f 426 428 424
f 429 425 428
f 430 428 426
f 431 432 425
f 429 431 425
f 425 432 427
f 433 431 429
f 109 111 431
f 433 109 431
f 431 111 432
f 434 109 433
f 434 110 109
f 435 110 434
f 436 435 434
f 437 435 436
f 435 115 110
f 115 439 116
f 438 115 435
f 438 439 115
f 116 439 112
f 112 439 437
f 437 438 435
f 439 438 437
f 441 131 440
f 443 441 440
f 440 131 442
f 442 443 440
f 444 441 443
f 445 443 442
f 446 132 441
f 444 446 441
f 441 132 131
f 447 446 444
f 448 136 446
f 447 448 446
f 446 136 132
f 449 448 447
f 450 139 448
f 449 450 448
f 448 139 136
f 451 450 449
f 426 142 450
f 451 426 450
f 450 142 139
f 430 426 451
f 427 145 426
f 426 145 142
f 432 148 427
f 427 148 145
f 111 151 432
f 432 151 148
f 112 154 111
f 111 154 151
f 112 452 154
f 437 452 112
f 454 456 453
f 457 454 453
f 453 456 455
f 455 457 453
f 458 454 457
f 459 457 455
f 442 161 454
f 458 442 454
f 454 161 456
f 445 442 458
f 131 133 442
f 442 133 161
f 452 122 154
f 460 122 452
f 460 123 122
f 123 462 156
f 461 123 460
f 461 462 123
f 456 179 455
f 455 179 463
f 463 459 455
f 464 459 463
f 161 162 456
f 456 162 179
f 156 465 172
f 462 465 156
f 467 469 466
f 470 467 466
f 466 469 468
f 468 470 466
f 471 467 470
f 472 470 468
f 473 474 467
f 471 473 467
f 467 474 469
f 473 476 474
f 475 473 471
f 475 476 473
f 463 479 477
f 480 463 477
f 477 479 478
f 478 480 477
f 464 463 480
f 481 480 478
f 179 180 463
f 463 180 479
f 173 225 172
f 465 173 172
f 172 225 192
f 173 483 225
f 482 173 465
f 482 483 173
f 469 228 468
f 468 228 227
f 227 472 468
f 484 472 227
f 474 485 469
f 469 485 228
f 197 199 474
f 476 197 474
f 474 199 485
f 486 197 476
f 486 198 197
f 487 198 486
f 487 202 198
f 488 202 487
f 488 205 202
f 489 205 488
f 489 208 205
f 208 491 209
f 490 208 489
f 490 491 208
f 479 493 478
f 478 493 492
f 492 481 478
f 494 481 492
f 180 212 479
f 479 212 493
f 225 495 226
f 483 495 225
f 227 229 496
f 498 227 496
f 496 229 497
f 497 498 496
f 484 227 498
f 499 498 497
f 485 261 228
f 228 261 230
f 199 233 485
f 485 233 261
f 491 239 209
f 239 501 240
f 500 239 491
f 500 501 239
f 493 503 492
f 492 503 502
f 502 494 492
f 504 494 502
f 212 243 493
f 493 243 503
f 226 505 256
f 495 505 226
f 229 257 497
f 497 257 506
f 506 499 497
f 507 499 506
f 240 508 268
f 501 508 240
f 503 510 502
f 502 510 509
f 509 504 502
f 511 504 509
f 243 271 503
f 503 271 510
f 256 512 284
f 505 512 256
f 257 309 506
f 506 309 513
f 513 507 506
f 514 507 513
f 258 286 257
f 257 286 309
f 268 515 293
f 508 515 268
f 510 517 509
f 509 517 516
f 516 511 509
f 518 511 516
f 271 296 510
f 510 296 517
f 284 519 308
f 512 519 284
f 309 310 513
f 513 310 520
f 520 514 513
f 521 514 520
f 293 522 321
f 515 522 293
f 517 524 516
f 516 524 523
f 523 518 516
f 525 518 523
f 296 324 517
f 517 324 524
f 308 526 338
f 519 526 308
f 310 528 520
f 520 528 527
f 527 521 520
f 528 530 527
f 529 521 527
f 527 530 529
f 311 531 310
f 310 531 528
f 313 532 311
f 311 532 531
f 315 341 313
f 313 341 532
f 341 534 532
f 532 534 533
f 321 536 347
f 522 536 321
f 347 536 346
f 346 536 535
f 524 538 523
f 523 538 537
f 537 525 523
f 538 540 537
f 539 525 537
f 537 540 539
f 324 541 524
f 524 541 538
f 325 350 324
f 324 350 541
f 338 388 337
f 337 388 362
f 338 543 388
f 526 543 338
f 388 543 362
f 362 543 542
f 531 545 528
f 528 545 544
f 544 530 528
f 546 530 544
f 532 547 531
f 531 547 545
f 532 548 547
f 533 548 532
f 365 534 341
f 366 550 365
f 549 534 365
f 365 550 549
f 368 551 366
f 366 551 550
f 370 552 368
f 368 552 551
f 346 553 372
f 535 553 346
f 372 553 370
f 370 553 552
f 541 555 538
f 538 555 554
f 554 540 538
f 555 557 554
f 556 540 554
f 554 557 556
f 350 558 541
f 541 558 555
f 351 375 350
f 350 375 558
f 362 389 361
f 361 389 387
f 362 560 389
f 542 560 362
f 389 560 387
f 387 560 559
f 545 562 544
f 544 562 561
f 561 546 544
f 562 564 561
f 563 546 561
f 561 564 563
f 547 565 545
f 545 565 562
f 547 566 565
f 548 566 547
f 565 566 562
f 562 566 564
f 558 568 555
f 555 568 567
f 567 557 555
f 568 570 567
f 569 557 567
f 567 570 569
f 375 571 558
f 558 571 568
f 571 572 568
f 568 572 570
f 376 573 375
f 375 573 571
f 378 395 376
f 376 395 573
f 387 408 386
f 386 408 406
f 387 574 408
f 559 574 387
f 573 576 571
f 571 576 575
f 575 572 571
f 576 578 575
f 577 572 575
f 575 578 577
f 395 579 573
f 573 579 576
f 579 580 576
f 576 580 578
f 396 581 395
f 395 581 579
f 581 582 579
f 579 582 580
f 398 583 396
f 396 583 581
f 583 584 581
f 581 584 582
f 400 585 398
f 398 585 583
f 402 586 400
f 400 586 585
f 404 413 402
f 402 413 586
f 589 588 587
f 590 588 589
f 408 591 416
f 574 591 408
f 590 574 588
f 591 574 590
f 585 593 583
f 583 593 592
f 592 584 583
f 593 595 592
f 594 584 592
f 592 595 594
f 586 596 585
f 585 596 593
f 596 597 593
f 593 597 595
f 413 420 586
f 586 420 596
f 420 598 596
f 596 598 597
f 421 599 420
f 420 599 598
f 598 590 589
f 599 590 598
f 416 600 423
f 591 600 416
f 423 600 421
f 421 600 599
f 599 591 590
f 600 591 599
f 602 449 601
f 603 602 601
f 601 449 447
f 447 603 601
f 604 602 603
f 605 603 447
f 606 451 602
f 604 606 602
f 602 451 449
f 607 606 604
f 428 430 606
f 607 428 606
f 606 430 451
f 608 428 607
f 608 429 428
f 609 429 608
f 610 609 608
f 611 609 610
f 609 433 429
f 612 433 609
f 611 612 609
f 613 612 611
f 612 434 433
f 434 615 436
f 614 434 612
f 614 615 434
f 613 614 612
f 615 614 613
f 443 445 616
f 617 443 616
f 616 445 458
f 458 617 616
f 618 443 617
f 619 617 458
f 618 444 443
f 620 444 618
f 620 447 444
f 605 447 620
f 615 437 436
f 437 622 452
f 621 437 615
f 621 622 437
f 457 459 623
f 625 457 623
f 623 459 624
f 624 625 623
f 626 457 625
f 627 625 624
f 626 458 457
f 619 458 626
f 622 460 452
f 628 460 622
f 628 461 460
f 461 630 462
f 629 461 628
f 629 630 461
f 459 464 624
f 624 464 480
f 480 627 624
f 631 627 480
f 632 482 462
f 630 632 462
f 462 482 465
f 632 634 482
f 633 632 630
f 633 634 632
f 635 471 470
f 472 635 470
f 636 471 635
f 637 635 472
f 637 636 635
f 638 636 637
f 636 475 471
f 639 475 636
f 638 639 636
f 640 639 638
f 641 486 475
f 639 641 475
f 475 486 476
f 642 641 639
f 640 642 639
f 643 642 640
f 644 487 641
f 642 644 641
f 641 487 486
f 645 644 642
f 643 645 642
f 646 645 643
f 647 488 644
f 645 647 644
f 644 488 487
f 647 649 488
f 648 647 645
f 648 649 647
f 646 648 645
f 649 648 646
f 480 481 650
f 652 480 650
f 650 481 651
f 651 652 650
f 631 480 652
f 653 652 651
f 482 654 483
f 634 654 482
f 484 637 472
f 655 637 484
f 655 638 637
f 656 638 655
f 656 640 638
f 657 640 656
f 657 643 640
f 658 643 657
f 658 646 643
f 659 646 658
f 659 649 646
f 660 649 659
f 649 489 488
f 661 489 649
f 661 490 489
f 490 663 491
f 662 490 661
f 662 663 490
f 481 494 651
f 651 494 664
f 664 653 651
f 665 653 664
f 483 666 495
f 654 666 483
f 667 484 498
f 499 667 498
f 655 484 667
f 668 667 499
f 668 655 667
f 669 655 668
f 669 656 655
f 670 656 669
f 670 657 656
f 671 657 670
f 671 658 657
f 672 658 671
f 672 659 658
f 673 659 672
f 673 660 659
f 674 660 673
f 663 500 491
f 500 676 501
f 675 500 663
f 675 676 500
f 494 504 664
f 664 504 677
f 677 665 664
f 678 665 677
f 681 680 679
f 682 680 681
f 683 684 495
f 666 683 495
f 495 684 505
f 683 686 684
f 685 683 666
f 685 686 683
f 507 668 499
f 687 668 507
f 687 669 668
f 688 669 687
f 688 670 669
f 689 670 688
f 689 671 670
f 690 671 689
f 690 672 671
f 691 672 690
f 691 673 672
f 692 673 691
f 692 674 673
f 693 674 692
f 501 694 508
f 676 694 501
f 504 511 677
f 677 511 695
f 695 678 677
f 696 678 695
f 697 682 681
f 698 682 697
f 684 699 505
f 505 699 512
f 684 700 699
f 686 700 684
f 514 687 507
f 701 687 514
f 701 688 687
f 702 688 701
f 702 689 688
f 703 689 702
f 703 690 689
f 704 690 703
f 704 691 690
f 705 691 704
f 705 692 691
f 706 692 705
f 706 693 692
f 707 693 706
f 708 709 508
f 694 708 508
f 508 709 515
f 708 712 709
f 710 708 694
f 710 712 708
f 709 712 515
f 515 712 711
f 711 710 694
f 712 710 711
f 511 518 695
f 695 518 713
f 713 696 695
f 714 696 713
f 699 715 512
f 512 715 519
f 699 717 715
f 700 717 699
f 715 717 519
f 519 717 716
f 521 701 514
f 718 701 521
f 718 702 701
f 719 702 718
f 719 703 702
f 720 703 719
f 720 704 703
f 721 704 720
f 721 705 704
f 722 705 721
f 722 706 705
f 723 706 722
f 723 707 706
f 724 707 723
f 515 725 522
f 711 725 515
f 518 525 713
f 713 525 726
f 726 714 713
f 727 714 726
f 519 728 526
f 716 728 519
f 529 718 521
f 530 730 529
f 729 718 529
f 529 730 729
f 729 719 718
f 730 719 729
f 730 720 719
f 731 720 730
f 731 721 720
f 732 721 731
f 732 722 721
f 733 722 732
f 733 723 722
f 734 723 733
f 734 724 723
f 735 724 734
f 522 737 536
f 725 737 522
f 536 737 535
f 535 737 736
f 525 539 726
f 726 539 738
f 738 727 726
f 539 740 738
f 739 727 738
f 738 740 739
f 526 742 543
f 728 742 526
f 543 742 542
f 542 742 741
f 546 730 530
f 743 730 546
f 743 731 730
f 744 731 743
f 744 732 731
f 745 732 744
f 534 549 533
f 533 549 548
f 745 733 732
f 746 733 745
f 746 734 733
f 747 734 746
f 747 735 734
f 748 735 747
f 552 749 551
f 551 749 748
f 535 750 553
f 736 750 535
f 553 750 552
f 552 750 749
f 540 556 539
f 539 556 751
f 751 740 539
f 556 753 751
f 752 740 751
f 751 753 752
f 542 755 560
f 741 755 542
f 560 755 559
f 559 755 754
f 563 743 546
f 564 757 563
f 756 743 563
f 563 757 756
f 756 744 743
f 757 744 756
f 566 758 564
f 564 758 757
f 757 745 744
f 758 745 757
f 549 759 548
f 548 759 566
f 759 760 566
f 566 760 758
f 758 746 745
f 760 746 758
f 550 761 549
f 549 761 759
f 761 762 759
f 759 762 760
f 760 747 746
f 762 747 760
f 551 763 550
f 550 763 761
f 551 764 763
f 748 764 551
f 763 764 761
f 761 764 762
f 762 748 747
f 764 748 762
f 557 569 556
f 556 569 765
f 765 753 556
f 569 767 765
f 766 753 765
f 765 767 766
f 570 768 569
f 569 768 767
f 572 769 570
f 570 769 768
f 588 771 587
f 587 771 770
f 559 772 574
f 754 772 559
f 574 772 588
f 588 772 771
f 577 769 572
f 578 774 577
f 773 769 577
f 577 774 773
f 587 775 589
f 770 775 587
f 580 777 578
f 578 777 776
f 776 774 578
f 777 779 776
f 778 774 776
f 776 779 778
f 582 780 580
f 580 780 777
f 780 781 777
f 777 781 779
f 584 594 582
f 582 594 780
f 594 782 780
f 780 782 781
f 595 785 594
f 594 785 782
f 782 784 783
f 785 784 782
f 597 787 595
f 595 787 785
f 785 786 784
f 787 786 785
f 589 788 598
f 775 788 589
f 598 788 597
f 597 788 787
f 787 775 786
f 788 775 787
f 603 605 789
f 790 603 789
f 789 605 620
f 620 790 789
f 791 603 790
f 792 790 620
f 791 604 603
f 793 604 791
f 793 607 604
f 794 607 793
f 794 608 607
f 608 796 610
f 795 608 794
f 795 796 608
f 797 618 617
f 619 797 617
f 798 618 797
f 799 797 619
f 798 620 618
f 792 620 798
f 796 611 610
f 800 611 796
f 800 613 611
f 801 613 800
f 801 615 613
f 802 615 801
f 802 621 615
f 621 804 622
f 803 621 802
f 803 804 621
f 805 626 625
f 627 805 625
f 806 626 805
f 807 805 627
f 806 619 626
f 799 619 806
f 804 628 622
f 808 628 804
f 808 629 628
f 629 810 630
f 809 629 808
f 809 810 629
f 631 807 627
f 811 807 631
f 810 633 630
f 633 813 634
f 812 633 810
f 812 813 633
f 814 631 652
f 653 814 652
f 811 631 814
f 815 814 653
f 818 817 816
f 819 817 818
f 819 820 817
f 821 820 819
f 821 822 820
f 823 822 821
f 634 824 654
f 813 824 634
f 825 661 649
f 660 825 649
f 826 661 825
f 827 825 660
f 827 826 825
f 828 826 827
f 826 662 661
f 662 830 663
f 829 662 826
f 829 830 662
f 828 829 826
f 830 829 828
f 665 815 653
f 831 815 665
f 832 819 818
f 833 819 832
f 833 821 819
f 834 821 833
f 834 823 821
f 835 823 834
f 835 836 823
f 837 836 835
f 837 838 836
f 839 838 837
f 680 840 679
f 679 840 839
f 654 841 666
f 824 841 654
f 674 827 660
f 842 827 674
f 842 828 827
f 843 828 842
f 843 830 828
f 844 830 843
f 830 675 663
f 675 846 676
f 845 675 830
f 845 846 675
f 844 845 830
f 846 845 844
f 678 831 665
f 847 831 678
f 848 833 832
f 849 833 848
f 849 834 833
f 850 834 849
f 850 835 834
f 851 835 850
f 851 837 835
f 852 837 851
f 679 853 681
f 839 853 679
f 852 839 837
f 853 839 852
f 682 840 680
f 854 840 682
f 841 685 666
f 685 856 686
f 855 685 841
f 855 856 685
f 693 842 674
f 857 842 693
f 857 843 842
f 858 843 857
f 858 844 843
f 859 844 858
f 676 860 694
f 846 860 676
f 859 846 844
f 860 846 859
f 696 847 678
f 861 847 696
f 862 849 848
f 863 849 862
f 863 850 849
f 864 850 863
f 864 851 850
f 865 851 864
f 865 852 851
f 866 852 865
f 681 867 697
f 853 867 681
f 866 853 852
f 867 853 866
f 698 854 682
f 868 854 698
f 686 869 700
f 856 869 686
f 707 857 693
f 870 857 707
f 870 858 857
f 871 858 870
f 871 859 858
f 872 859 871
f 694 873 711
f 860 873 694
f 872 860 859
f 873 860 872
f 714 861 696
f 874 861 714
f 875 863 862
f 876 863 875
f 876 864 863
f 877 864 876
f 877 865 864
f 878 865 877
f 878 866 865
f 879 866 878
f 879 867 866
f 880 867 879
f 867 698 697
f 868 698 867
f 880 868 867
f 881 868 880
f 700 883 717
f 869 883 700
f 717 883 716
f 716 883 882
f 724 870 707
f 884 870 724
f 884 871 870
f 885 871 884
f 885 872 871
f 886 872 885
f 711 887 725
f 873 887 711
f 886 873 872
f 887 873 886
f 727 874 714
f 888 874 727
f 889 876 875
f 890 876 889
f 890 877 876
f 891 877 890
f 891 878 877
f 892 878 891
f 892 879 878
f 893 879 892
f 716 894 728
f 882 894 716
f 735 884 724
f 895 884 735
f 895 885 884
f 896 885 895
f 896 886 885
f 897 886 896
f 725 898 737
f 887 898 725
f 737 898 736
f 736 898 897
f 897 887 886
f 898 887 897
f 739 888 727
f 740 900 739
f 899 888 739
f 739 900 899
f 728 902 742
f 894 902 728
f 742 902 741
f 741 902 901
f 748 895 735
f 749 904 748
f 903 895 748
f 748 904 903
f 903 896 895
f 904 896 903
f 736 905 750
f 897 905 736
f 750 905 749
f 749 905 904
f 904 897 896
f 905 897 904
f 752 900 740
f 753 907 752
f 906 900 752
f 752 907 906
f 741 909 755
f 901 909 741
f 755 909 754
f 754 909 908
f 766 907 753
f 767 911 766
f 910 907 766
f 766 911 910
f 768 912 767
f 767 912 911
f 771 914 770
f 770 914 913
f 754 915 772
f 908 915 754
f 772 915 771
f 771 915 914
f 769 773 768
f 768 773 916
f 916 912 768
f 773 918 916
f 917 912 916
f 916 918 917
f 784 920 783
f 783 920 919
f 786 921 784
f 784 921 920
f 770 922 775
f 913 922 770
f 775 922 786
f 786 922 921
f 774 778 773
f 773 778 923
f 923 918 773
f 778 925 923
f 924 918 923
f 923 925 924
f 779 926 778
f 778 926 925
f 781 927 779
f 779 927 926
f 783 928 782
f 919 928 783
f 782 928 781
f 781 928 927
f 929 791 790
f 792 929 790
f 930 791 929
f 931 929 792
f 931 930 929
f 932 930 931
f 930 793 791
f 933 793 930
f 933 794 793
f 934 794 933
f 934 795 794
f 795 936 796
f 935 795 934
f 935 936 795
f 937 798 797
f 799 937 797
f 938 798 937
f 939 937 799
f 938 792 798
f 931 792 938
f 936 800 796
f 940 800 936
f 940 801 800
f 941 801 940
f 941 802 801
f 942 802 941
f 942 803 802
f 803 944 804
f 943 803 942
f 943 944 803
f 945 806 805
f 807 945 805
f 946 806 945
f 947 945 807
f 946 799 806
f 939 799 946
f 944 808 804
f 948 808 944
f 948 809 808
f 809 950 810
f 949 809 948
f 949 950 809
f 811 947 807
f 951 947 811
f 817 953 816
f 816 953 952
f 820 954 817
f 817 954 953
f 822 955 820
f 820 955 954
f 950 812 810
f 812 957 813
f 956 812 950
f 956 957 812
f 958 811 814
f 815 958 814
f 951 811 958
f 959 958 815
f 816 962 818
f 952 962 816
f 961 952 960
f 962 952 961
f 823 955 822
f 836 965 823
f 964 955 823
f 823 965 964
f 964 963 955
f 965 963 964
f 838 966 836
f 836 966 965
f 813 967 824
f 957 967 813
f 831 959 815
f 968 959 831
f 971 970 969
f 972 970 971
f 972 961 970
f 973 961 972
f 818 974 832
f 962 974 818
f 973 962 961
f 974 962 973
f 839 966 838
f 840 976 839
f 975 966 839
f 839 976 975
f 977 855 824
f 967 977 824
f 824 855 841
f 977 979 855
f 978 977 967
f 978 979 977
f 847 968 831
f 980 968 847
f 982 971 981
f 983 971 982
f 983 972 971
f 984 972 983
f 984 973 972
f 985 973 984
f 832 986 848
f 974 986 832
f 985 974 973
f 986 974 985
f 854 976 840
f 987 976 854
f 855 988 856
f 979 988 855
f 861 980 847
f 989 980 861
f 990 983 982
f 991 983 990
f 991 984 983
f 992 984 991
f 992 985 984
f 993 985 992
f 848 994 862
f 986 994 848
f 993 986 985
f 994 986 993
f 868 987 854
f 995 987 868
f 856 996 869
f 988 996 856
f 874 989 861
f 997 989 874
f 998 992 991
f 999 992 998
f 999 993 992
f 1000 993 999
f 862 1001 875
f 994 1001 862
f 1000 994 993
f 1001 994 1000
f 881 995 868
f 1002 995 881
f 869 1003 883
f 996 1003 869
f 888 997 874
f 1004 997 888
f 1005 1000 999
f 1006 1000 1005
f 875 1007 889
f 1001 1007 875
f 1006 1001 1000
f 1007 1001 1006
f 1008 880 879
f 893 1008 879
f 1009 880 1008
f 1010 1008 893
f 1010 1009 1008
f 1011 1009 1010
f 1009 881 880
f 1002 881 1009
f 883 1012 882
f 882 1012 894
f 883 1014 1012
f 1003 1014 883
f 1012 1014 894
f 894 1014 1013
f 899 1004 888
f 900 1016 899
f 1015 1004 899
f 899 1016 1015
f 1007 890 889
f 1017 890 1007
f 1017 891 890
f 1018 891 1017
f 1018 892 891
f 1019 892 1018
f 1019 893 892
f 1010 893 1019
f 894 1021 902
f 1013 1021 894
f 902 1021 901
f 901 1021 1020
f 906 1016 900
f 907 1023 906
f 1022 1016 906
f 906 1023 1022
f 901 1025 909
f 1020 1025 901
f 909 1025 908
f 908 1025 1024
f 910 1023 907
f 911 1027 910
f 1026 1023 910
f 910 1027 1026
f 912 1028 911
f 911 1028 1027
f 914 1030 913
f 913 1030 1029
f 908 1031 915
f 1024 1031 908
f 915 1031 914
f 914 1031 1030
f 917 1028 912
f 918 1033 917
f 1032 1028 917
f 917 1033 1032
f 920 1035 919
f 919 1035 1034
f 921 1036 920
f 920 1036 1035
f 913 1037 922
f 1029 1037 913
f 922 1037 921
f 921 1037 1036
f 924 1033 918
f 925 1040 924
f 1039 1033 924
f 924 1040 1039
f 1039 1038 1033
f 1040 1038 1039
f 926 1041 925
f 925 1041 1040
f 927 1042 926
f 926 1042 1041
f 919 1043 928
f 1034 1043 919
f 928 1043 927
f 927 1043 1042
f 1044 933 930
f 932 1044 930
f 1045 933 1044
f 1046 1044 932
f 1046 1045 1044
f 1047 1045 1046
f 1045 934 933
f 1048 934 1045
f 1047 1048 1045
f 1049 1048 1047
f 1048 935 934
f 935 1051 936
f 1050 935 1048
f 1050 1051 935
f 1049 1050 1048
f 1051 1050 1049
f 1052 938 937
f 939 1052 937
f 1053 938 1052
f 1054 1052 939
f 1053 931 938
f 1055 931 1053
f 1055 932 931
f 1046 932 1055
f 1051 940 936
f 1056 940 1051
f 1056 941 940
f 1057 941 1056
f 1057 942 941
f 1058 942 1057
f 1058 943 942
f 1059 943 1058
f 1060 948 943
f 1059 1060 943
f 943 948 944
f 1060 1063 948
f 1061 1060 1059
f 1061 1063 1060
f 1062 1061 1059
f 1063 1061 1062
f 1064 946 945
f 947 1064 945
f 1065 946 1064
f 1066 1064 947
f 1066 1065 1064
f 1067 1065 1066
f 1065 939 946
f 1054 939 1065
f 1063 949 948
f 949 1069 950
f 1068 949 1063
f 1068 1069 949
f 947 951 1070
f 1071 947 1070
f 1070 951 958
f 958 1071 1070
f 1066 947 1071
f 1072 1071 958
f 1072 1066 1071
f 1073 1066 1072
f 952 1075 960
f 960 1075 1074
f 953 1076 952
f 952 1076 1075
f 954 1077 953
f 953 1077 1076
f 955 1078 954
f 954 1078 1077
f 963 1079 955
f 955 1079 1078
f 1069 956 950
f 956 1082 957
f 1080 956 1069
f 1080 1082 956
f 1081 1080 1069
f 1082 1080 1081
f 959 1072 958
f 1083 1072 959
f 970 1085 969
f 969 1085 1084
f 960 1086 961
f 1074 1086 960
f 961 1086 970
f 970 1086 1085
f 965 1079 963
f 966 1088 965
f 1087 1079 965
f 965 1088 1087
f 1089 978 957
f 1082 1089 957
f 957 978 967
f 1089 1092 978
f 1090 1089 1082
f 1090 1092 1089
f 1091 1090 1082
f 1092 1090 1091
f 968 1083 959
f 1093 1083 968
f 969 1095 971
f 1084 1095 969
f 971 1095 981
f 981 1095 1094
f 975 1088 966
f 976 1098 975
f 1097 1088 975
f 975 1098 1097
f 1097 1096 1088
f 1098 1096 1097
f 1100 1091 1099
f 1101 1091 1100
f 978 1102 979
f 1092 1102 978
f 1101 1092 1091
f 1102 1092 1101
f 980 1093 968
f 1103 1093 980
f 981 1104 982
f 1094 1104 981
f 987 1098 976
f 1105 1098 987
f 1106 1101 1100
f 1107 1101 1106
f 979 1108 988
f 1102 1108 979
f 1107 1102 1101
f 1108 1102 1107
f 989 1103 980
f 1109 1103 989
f 982 1110 990
f 1104 1110 982
f 995 1105 987
f 1111 1105 995
f 1112 1107 1106
f 1113 1107 1112
f 988 1114 996
f 1108 1114 988
f 1113 1108 1107
f 1114 1108 1113
f 997 1109 989
f 1115 1109 997
f 1110 991 990
f 991 1117 998
f 1116 991 1110
f 1116 1117 991
f 1002 1111 995
f 1118 1111 1002
f 1119 1113 1112
f 1120 1113 1119
f 996 1121 1003
f 1114 1121 996
f 1120 1114 1113
f 1121 1114 1120
f 1004 1115 997
f 1122 1115 1004
f 1117 999 998
f 999 1124 1005
f 1123 999 1117
f 1123 1124 999
f 1125 1002 1009
f 1011 1125 1009
f 1118 1002 1125
f 1126 1125 1011
f 1127 1120 1119
f 1128 1120 1127
f 1003 1129 1014
f 1121 1129 1003
f 1014 1129 1013
f 1013 1129 1128
f 1128 1121 1120
f 1129 1121 1128
f 1015 1122 1004
f 1016 1131 1015
f 1130 1122 1015
f 1015 1131 1130
f 1124 1006 1005
f 1132 1006 1124
f 1132 1007 1006
f 1133 1007 1132
f 1133 1017 1007
f 1134 1017 1133
f 1134 1018 1017
f 1135 1018 1134
f 1135 1019 1018
f 1136 1019 1135
f 1136 1010 1019
f 1137 1010 1136
f 1137 1011 1010
f 1126 1011 1137
f 1013 1139 1021
f 1128 1139 1013
f 1021 1139 1020
f 1020 1139 1138
f 1138 1128 1127
f 1139 1128 1138
f 1022 1131 1016
f 1023 1141 1022
f 1140 1131 1022
f 1022 1141 1140
f 1020 1143 1025
f 1138 1143 1020
f 1025 1143 1024
f 1024 1143 1142
f 1026 1141 1023
f 1027 1145 1026
f 1144 1141 1026
f 1026 1145 1144
f 1028 1146 1027
f 1027 1146 1145
f 1030 1148 1029
f 1029 1148 1147
f 1024 1149 1031
f 1142 1149 1024
f 1031 1149 1030
f 1030 1149 1148
f 1032 1146 1028
f 1033 1151 1032
f 1150 1146 1032
f 1032 1151 1150
f 1038 1152 1033
f 1033 1152 1151
f 1035 1154 1034
f 1034 1154 1153
f 1036 1155 1035
f 1035 1155 1154
f 1029 1156 1037
f 1147 1156 1029
f 1037 1156 1036
f 1036 1156 1155
f 1040 1152 1038
f 1041 1159 1040
f 1158 1152 1040
f 1040 1159 1158
f 1158 1157 1152
f 1159 1157 1158
f 1042 1161 1041
f 1041 1161 1159
f 1159 1160 1157
f 1161 1160 1159
f 1034 1162 1043
f 1153 1162 1034
f 1043 1162 1042
f 1042 1162 1161
f 1161 1153 1160
f 1162 1153 1161
f 1163 1053 1052
f 1054 1163 1052
f 1164 1053 1163
f 1165 1163 1054
f 1164 1055 1053
f 1166 1055 1164
f 1166 1046 1055
f 1167 1046 1166
f 1167 1047 1046
f 1168 1047 1167
f 1168 1049 1047
f 1169 1049 1168
f 1169 1051 1049
f 1170 1051 1169
f 1170 1056 1051
f 1171 1056 1170
f 1171 1057 1056
f 1172 1057 1171
f 1173 1172 1171
f 1174 1172 1173
f 1172 1058 1057
f 1175 1058 1172
f 1174 1175 1172
f 1176 1175 1174
f 1175 1059 1058
f 1059 1178 1062
f 1177 1059 1175
f 1177 1178 1059
f 1176 1177 1175
f 1178 1177 1176
f 1179 1054 1065
f 1067 1179 1065
f 1165 1054 1179
f 1180 1179 1067
f 1181 1174 1173
f 1182 1174 1181
f 1182 1176 1174
f 1183 1176 1182
f 1183 1178 1176
f 1184 1178 1183
f 1178 1063 1062
f 1185 1063 1178
f 1184 1185 1178
f 1186 1185 1184
f 1185 1068 1063
f 1068 1188 1069
f 1187 1068 1185
f 1187 1188 1068
f 1186 1187 1185
f 1188 1187 1186
f 1189 1067 1066
f 1073 1189 1066
f 1180 1067 1189
f 1190 1189 1073
f 1075 1192 1074
f 1074 1192 1191
f 1076 1193 1075
f 1075 1193 1192
f 1077 1194 1076
f 1076 1194 1193
f 1078 1195 1077
f 1077 1195 1194
f 1079 1196 1078
f 1078 1196 1195
f 1195 1182 1181
f 1196 1182 1195
f 1196 1183 1182
f 1197 1183 1196
f 1197 1184 1183
f 1198 1184 1197
f 1198 1186 1184
f 1199 1186 1198
f 1069 1200 1081
f 1188 1200 1069
f 1199 1188 1186
f 1200 1188 1199
f 1201 1073 1072
f 1083 1201 1072
f 1190 1073 1201
f 1202 1201 1083
f 1085 1204 1084
f 1084 1204 1203
f 1074 1205 1086
f 1191 1205 1074
f 1086 1205 1085
f 1085 1205 1204
f 1087 1196 1079
f 1088 1207 1087
f 1206 1196 1087
f 1087 1207 1206
f 1206 1197 1196
f 1207 1197 1206
f 1096 1208 1088
f 1088 1208 1207
f 1207 1198 1197
f 1208 1198 1207
f 1208 1199 1198
f 1209 1199 1208
f 1209 1200 1199
f 1210 1200 1209
f 1200 1082 1081
f 1082 1212 1091
f 1211 1082 1200
f 1211 1212 1082
f 1091 1212 1099
f 1099 1212 1210
f 1210 1211 1200
f 1212 1211 1210
f 1093 1202 1083
f 1213 1202 1093
f 1084 1214 1095
f 1203 1214 1084
f 1098 1208 1096
f 1215 1208 1098
f 1215 1209 1208
f 1216 1209 1215
f 1099 1217 1100
f 1210 1217 1099
f 1216 1210 1209
f 1217 1210 1216
f 1103 1213 1093
f 1218 1213 1103
f 1095 1219 1094
f 1094 1219 1104
f 1095 1220 1219
f 1214 1220 1095
f 1105 1215 1098
f 1221 1215 1105
f 1221 1216 1215
f 1222 1216 1221
f 1100 1223 1106
f 1217 1223 1100
f 1222 1217 1216
f 1223 1217 1222
f 1109 1218 1103
f 1224 1218 1109
f 1219 1116 1104
f 1104 1116 1110
f 1219 1225 1116
f 1220 1225 1219
f 1111 1221 1105
f 1226 1221 1111
f 1226 1222 1221
f 1227 1222 1226
f 1106 1228 1112
f 1223 1228 1106
f 1227 1223 1222
f 1228 1223 1227
f 1115 1224 1109
f 1229 1224 1115
f 1116 1230 1117
f 1225 1230 1116
f 1118 1226 1111
f 1231 1226 1118
f 1231 1227 1226
f 1232 1227 1231
f 1112 1233 1119
f 1228 1233 1112
f 1232 1228 1227
f 1233 1228 1232
f 1122 1229 1115
f 1234 1229 1122
f 1230 1123 1117
f 1123 1236 1124
f 1235 1123 1230
f 1235 1236 1123
f 1237 1118 1125
f 1126 1237 1125
f 1231 1118 1237
f 1238 1237 1126
f 1238 1231 1237
f 1239 1231 1238
f 1239 1232 1231
f 1240 1232 1239
f 1119 1241 1127
f 1233 1241 1119
f 1240 1233 1232
f 1241 1233 1240
f 1130 1234 1122
f 1131 1244 1130
f 1243 1234 1130
f 1130 1244 1243
f 1243 1242 1234
f 1244 1242 1243
f 1236 1132 1124
f 1245 1132 1236
f 1245 1133 1132
f 1246 1133 1245
f 1246 1134 1133
f 1247 1134 1246
f 1247 1135 1134
f 1248 1135 1247
f 1248 1136 1135
f 1249 1136 1248
f 1249 1137 1136
f 1250 1137 1249
f 1251 1250 1249
f 1252 1250 1251
f 1250 1126 1137
f 1238 1126 1250
f 1252 1238 1250
f 1253 1238 1252
f 1253 1239 1238
f 1254 1239 1253
f 1254 1240 1239
f 1255 1240 1254
f 1127 1256 1138
f 1241 1256 1127
f 1255 1241 1240
f 1256 1241 1255
f 1140 1244 1131
f 1141 1258 1140
f 1257 1244 1140
f 1140 1258 1257
f 1259 1252 1251
f 1260 1252 1259
f 1260 1253 1252
f 1261 1253 1260
f 1261 1254 1253
f 1262 1254 1261
f 1262 1255 1254
f 1263 1255 1262
f 1138 1264 1143
f 1256 1264 1138
f 1143 1264 1142
f 1142 1264 1263
f 1263 1256 1255
f 1264 1256 1263
f 1144 1258 1141
f 1145 1266 1144
f 1265 1258 1144
f 1144 1266 1265
f 1146 1267 1145
f 1145 1267 1266
f 1268 1260 1259
f 1269 1260 1268
f 1269 1261 1260
f 1270 1261 1269
f 1148 1271 1147
f 1147 1271 1270
f 1270 1262 1261
f 1271 1262 1270
f 1142 1272 1149
f 1263 1272 1142
f 1149 1272 1148
f 1148 1272 1271
f 1271 1263 1262
f 1272 1263 1271
f 1150 1267 1146
f 1151 1275 1150
f 1274 1267 1150
f 1150 1275 1274
f 1274 1273 1267
f 1275 1273 1274
f 1152 1276 1151
f 1151 1276 1275
f 1157 1277 1152
f 1152 1277 1276
f 1160 1278 1157
f 1157 1278 1277
f 1153 1279 1160
f 1160 1279 1278
f 1154 1280 1153
f 1153 1280 1279
f 1155 1281 1154
f 1154 1281 1280
f 1280 1269 1268
f 1281 1269 1280
f 1147 1282 1156
f 1270 1282 1147
f 1156 1282 1155
f 1155 1282 1281
f 1281 1270 1269
f 1282 1270 1281
f 1283 1164 1163
f 1165 1283 1163
f 1284 1164 1283
f 1285 1283 1165
f 1285 1284 1283
f 1286 1284 1285
f 1284 1166 1164
f 1287 1166 1284
f 1286 1287 1284
f 1288 1287 1286
f 1287 1167 1166
f 1289 1167 1287
f 1288 1289 1287
f 1290 1289 1288
f 1289 1168 1167
f 1291 1168 1289
f 1290 1291 1289
f 1292 1291 1290
f 1291 1169 1168
f 1293 1169 1291
f 1292 1293 1291
f 1294 1293 1292
f 1293 1170 1169
f 1295 1170 1293
f 1294 1295 1293
f 1296 1295 1294
f 1295 1171 1170
f 1171 1298 1173
f 1297 1171 1295
f 1297 1298 1171
f 1296 1297 1295
f 1298 1297 1296
f 1299 1165 1179
f 1180 1299 1179
f 1285 1165 1299
f 1300 1299 1180
f 1301 1290 1288
f 1302 1290 1301
f 1302 1292 1290
f 1303 1292 1302
f 1303 1294 1292
f 1304 1294 1303
f 1304 1296 1294
f 1305 1296 1304
f 1173 1306 1181
f 1298 1306 1173
f 1305 1298 1296
f 1306 1298 1305
f 1307 1180 1189
f 1190 1307 1189
f 1300 1180 1307
f 1308 1307 1190
f 1309 1302 1301
f 1310 1302 1309
f 1192 1311 1191
f 1191 1311 1310
f 1310 1303 1302
f 1311 1303 1310
f 1193 1312 1192
f 1192 1312 1311
f 1311 1304 1303
f 1312 1304 1311
f 1194 1313 1193
f 1193 1313 1312
f 1312 1305 1304
f 1313 1305 1312
f 1181 1314 1195
f 1306 1314 1181
f 1195 1314 1194
f 1194 1314 1313
f 1313 1306 1305
f 1314 1306 1313
f 1315 1190 1201
f 1202 1315 1201
f 1308 1190 1315
f 1316 1315 1202
f 1316 1308 1315
f 1317 1308 1316
f 1191 1319 1205
f 1310 1319 1191
f 1205 1319 1204
f 1204 1319 1318
f 1318 1310 1309
f 1319 1310 1318
f 1213 1316 1202
f 1320 1316 1213
f 1204 1321 1203
f 1203 1321 1214
f 1204 1324 1321
f 1318 1324 1204
f 1321 1324 1214
f 1214 1324 1323
f 1323 1318 1322
f 1324 1318 1323
f 1218 1320 1213
f 1325 1320 1218
f 1214 1326 1220
f 1323 1326 1214
f 1224 1325 1218
f 1327 1325 1224
f 1220 1328 1225
f 1326 1328 1220
f 1229 1327 1224
f 1329 1327 1229
f 1225 1330 1230
f 1328 1330 1225
f 1234 1329 1229
f 1242 1332 1234
f 1331 1329 1234
f 1234 1332 1331
f 1330 1235 1230
f 1235 1334 1236
f 1333 1235 1330
f 1333 1334 1235
f 1244 1332 1242
f 1335 1332 1244
f 1334 1245 1236
f 1336 1245 1334
f 1337 1336 1334
f 1338 1336 1337
f 1336 1246 1245
f 1339 1246 1336
f 1338 1339 1336
f 1340 1339 1338
f 1339 1247 1246
f 1341 1247 1339
f 1340 1341 1339
f 1342 1341 1340
f 1341 1248 1247
f 1343 1248 1341
f 1342 1343 1341
f 1344 1343 1342
f 1343 1249 1248
f 1249 1346 1251
f 1345 1249 1343
f 1345 1346 1249
f 1344 1345 1343
f 1346 1345 1344
f 1257 1335 1244
f 1258 1349 1257
f 1348 1335 1257
f 1257 1349 1348
f 1348 1347 1335
f 1349 1347 1348
f 1350 1338 1337
f 1351 1338 1350
f 1351 1340 1338
f 1352 1340 1351
f 1352 1342 1340
f 1353 1342 1352
f 1353 1344 1342
f 1354 1344 1353
f 1251 1355 1259
f 1346 1355 1251
f 1354 1346 1344
f 1355 1346 1354
f 1265 1349 1258
f 1266 1358 1265
f 1357 1349 1265
f 1265 1358 1357
f 1357 1356 1349
f 1358 1356 1357
f 1267 1359 1266
f 1266 1359 1358
f 1273 1360 1267
f 1267 1360 1359
f 1360 1351 1350
f 1361 1351 1360
f 1361 1352 1351
f 1362 1352 1361
f 1362 1353 1352
f 1363 1353 1362
f 1363 1354 1353
f 1364 1354 1363
f 1259 1365 1268
f 1355 1365 1259
f 1364 1355 1354
f 1365 1355 1364
f 1275 1360 1273
f 1276 1367 1275
f 1366 1360 1275
f 1275 1367 1366
f 1366 1361 1360
f 1367 1361 1366
f 1277 1368 1276
f 1276 1368 1367
f 1367 1362 1361
f 1368 1362 1367
f 1278 1369 1277
f 1277 1369 1368
f 1368 1363 1362
f 1369 1363 1368
f 1279 1370 1278
f 1278 1370 1369
f 1369 1364 1363
f 1370 1364 1369
f 1268 1371 1280
f 1365 1371 1268
f 1280 1371 1279
f 1279 1371 1370
f 1370 1365 1364
f 1371 1365 1370
f 1372 1285 1299
f 1300 1372 1299
f 1373 1285 1372
f 1374 1372 1300
f 1374 1373 1372
f 1375 1373 1374
f 1373 1286 1285
f 1376 1286 1373
f 1375 1376 1373
f 1377 1376 1375
f 1376 1288 1286
f 1288 1379 1301
f 1378 1288 1376
f 1378 1379 1288
f 1377 1378 1376
f 1379 1378 1377
f 1380 1300 1307
f 1308 1380 1307
f 1374 1300 1380
f 1381 1380 1308
f 1381 1374 1380
f 1382 1374 1381
f 1382 1375 1374
f 1383 1375 1382
f 1383 1377 1375
f 1384 1377 1383
f 1301 1385 1309
f 1379 1385 1301
f 1384 1379 1377
f 1385 1379 1384
f 1317 1381 1308
f 1386 1381 1317
f 1386 1382 1381
f 1387 1382 1386
f 1387 1383 1382
f 1388 1383 1387
f 1388 1384 1383
f 1389 1384 1388
f 1309 1390 1318
f 1385 1390 1309
f 1318 1390 1322
f 1322 1390 1389
f 1389 1385 1384
f 1390 1385 1389
f 1391 1317 1316
f 1320 1391 1316
f 1386 1317 1391
f 1392 1391 1320
f 1392 1386 1391
f 1393 1386 1392
f 1393 1387 1386
f 1394 1387 1393
f 1394 1388 1387
f 1395 1388 1394
f 1322 1396 1323
f 1389 1396 1322
f 1395 1389 1388
f 1396 1389 1395
f 1325 1392 1320
f 1397 1392 1325
f 1397 1393 1392
f 1398 1393 1397
f 1398 1394 1393
f 1399 1394 1398
f 1399 1395 1394
f 1400 1395 1399
f 1323 1401 1326
f 1396 1401 1323
f 1400 1396 1395
f 1401 1396 1400
f 1327 1397 1325
f 1402 1397 1327
f 1402 1398 1397
f 1403 1398 1402
f 1403 1399 1398
f 1404 1399 1403
f 1404 1400 1399
f 1405 1400 1404
f 1326 1406 1328
f 1401 1406 1326
f 1405 1401 1400
f 1406 1401 1405
f 1329 1402 1327
f 1407 1402 1329
f 1407 1403 1402
f 1408 1403 1407
f 1408 1404 1403
f 1409 1404 1408
f 1409 1405 1404
f 1410 1405 1409
f 1328 1411 1330
f 1406 1411 1328
f 1410 1406 1405
f 1411 1406 1410
f 1331 1407 1329
f 1332 1413 1331
f 1412 1407 1331
f 1331 1413 1412
f 1412 1408 1407
f 1413 1408 1412
f 1413 1409 1408
f 1414 1409 1413
f 1414 1410 1409
f 1415 1410 1414
f 1415 1411 1410
f 1416 1411 1415
f 1411 1333 1330
f 1333 1418 1334
f 1417 1333 1411
f 1417 1418 1333
f 1416 1417 1411
f 1418 1417 1416
f 1335 1413 1332
f 1347 1420 1335
f 1419 1413 1335
f 1335 1420 1419
f 1419 1414 1413
f 1420 1414 1419
f 1420 1415 1414
f 1421 1415 1420
f 1421 1416 1415
f 1422 1416 1421
f 1334 1423 1337
f 1418 1423 1334
f 1422 1418 1416
f 1423 1418 1422
f 1349 1420 1347
f 1356 1425 1349
f 1424 1420 1349
f 1349 1425 1424
f 1424 1421 1420
f 1425 1421 1424
f 1425 1422 1421
f 1426 1422 1425
f 1337 1427 1350
f 1423 1427 1337
f 1426 1423 1422
f 1427 1423 1426
f 1358 1425 1356
f 1359 1429 1358
f 1428 1425 1358
f 1358 1429 1428
f 1428 1426 1425
f 1429 1426 1428
f 1350 1430 1360
f 1427 1430 1350
f 1360 1430 1359
f 1359 1430 1429
f 1429 1427 1426
f 1430 1427 1429

