# https://github.com/mikedh/trimesh
v -0.05400000 0.12200000 -0.07000000
v -0.05400000 0.12200000 -0.06600000
v -0.05400000 0.12600000 -0.07000000
v -0.05400000 0.12600000 -0.06600000
v -0.05000000 0.12200000 -0.07000000
v -0.05000000 0.12200000 -0.06600000
v -0.05000000 0.12600000 -0.07000000
v -0.05000000 0.12600000 -0.06600000
v -0.05400000 0.12200000 -0.06200000
v -0.05400000 0.12600000 -0.06200000
v -0.05000000 0.12200000 -0.06200000
v -0.05000000 0.12600000 -0.06200000
v -0.05400000 0.12200000 -0.05800000
v -0.05400000 0.12600000 -0.05800000
v -0.05000000 0.12200000 -0.05800000
v -0.05000000 0.12600000 -0.05800000
v -0.05400000 0.12200000 -0.05400000
v -0.05400000 0.12600000 -0.05400000
v -0.05000000 0.12200000 -0.05400000
v -0.05000000 0.12600000 -0.05400000
v -0.04600000 0.12200000 -0.07000000
v -0.04600000 0.12200000 -0.06600000
v -0.04600000 0.12600000 -0.07000000
v -0.04600000 0.12600000 -0.06600000
v -0.04600000 0.12200000 -0.06200000
v -0.04600000 0.12600000 -0.06200000
v -0.04600000 0.12200000 -0.05800000
v -0.04600000 0.12600000 -0.05800000
v -0.04600000 0.12200000 -0.05400000
v -0.04600000 0.12600000 -0.05400000
v -0.04200000 0.12200000 -0.07000000
v -0.04200000 0.12200000 -0.06600000
v -0.04200000 0.12600000 -0.07000000
v -0.04200000 0.12600000 -0.06600000
v -0.04200000 0.12200000 -0.06200000
v -0.04200000 0.12600000 -0.06200000
v -0.04200000 0.12200000 -0.05800000
v -0.04200000 0.12600000 -0.05800000
v -0.04200000 0.12200000 -0.05400000
v -0.04200000 0.12600000 -0.05400000
v -0.04600000 0.13000000 -0.06200000
v -0.04600000 0.13000000 -0.05800000
v -0.04200000 0.13000000 -0.06200000
v -0.04200000 0.13000000 -0.05800000
v -0.04600000 0.13000000 -0.05400000
v -0.04200000 0.13000000 -0.05400000
v -0.03800000 0.12200000 -0.07000000
v -0.03800000 0.12200000 -0.06600000
v -0.03800000 0.12600000 -0.07000000
v -0.03800000 0.12600000 -0.06600000
v -0.03800000 0.12200000 -0.06200000
v -0.03800000 0.12600000 -0.06200000
v -0.04200000 0.13000000 -0.06600000
v -0.03800000 0.13000000 -0.06600000
v -0.03800000 0.13000000 -0.06200000
v -0.03800000 0.12600000 -0.05800000
v -0.03800000 0.13000000 -0.05800000
v -0.03800000 0.12600000 -0.05400000
v -0.03800000 0.13000000 -0.05400000
v -0.03800000 0.11800000 -0.07000000
v -0.03800000 0.11800000 -0.06600000
v -0.03400000 0.11800000 -0.07000000
v -0.03400000 0.11800000 -0.06600000
v -0.03400000 0.12200000 -0.07000000
v -0.03400000 0.12200000 -0.06600000
v -0.03800000 0.11800000 -0.06200000
v -0.03400000 0.11800000 -0.06200000
v -0.03400000 0.12200000 -0.06200000
v -0.03400000 0.12600000 -0.07000000
v -0.03800000 0.12200000 -0.05800000
v -0.03400000 0.12200000 -0.05800000
v -0.03800000 0.12200000 -0.05400000
v -0.03400000 0.12200000 -0.05400000
v -0.03400000 0.12600000 -0.05400000
v -0.03800000 0.13000000 -0.07000000
v -0.03400000 0.13000000 -0.07000000
v -0.03400000 0.13000000 -0.06600000
v -0.03400000 0.13000000 -0.06200000
v -0.03400000 0.13000000 -0.05800000
v -0.03400000 0.13000000 -0.05400000
v -0.03000000 0.12200000 -0.07000000
v -0.03000000 0.12200000 -0.06600000
v -0.03000000 0.12600000 -0.07000000
v -0.03000000 0.12200000 -0.06200000
v -0.03000000 0.12200000 -0.05800000
v -0.03000000 0.12200000 -0.05400000
v -0.03000000 0.12600000 -0.05800000
v -0.03000000 0.12600000 -0.05400000
v -0.03000000 0.13000000 -0.07000000
v -0.03000000 0.13000000 -0.06600000
v -0.03000000 0.13000000 -0.06200000
v -0.03000000 0.13000000 -0.05800000
v -0.03000000 0.13000000 -0.05400000
v -0.02600000 0.12200000 -0.07000000
v -0.02600000 0.12200000 -0.06600000
v -0.02600000 0.12600000 -0.07000000
v -0.02600000 0.12200000 -0.06200000
v -0.02600000 0.12200000 -0.05800000
v -0.02600000 0.12600000 -0.06200000
v -0.02600000 0.12600000 -0.05800000
v -0.02600000 0.13000000 -0.07000000
v -0.02600000 0.13000000 -0.06600000
v -0.02600000 0.13000000 -0.06200000
v -0.02600000 0.12600000 -0.05400000
v -0.02600000 0.13000000 -0.05800000
v -0.02600000 0.13000000 -0.05400000
v -0.03000000 0.13400000 -0.06200000
v -0.03000000 0.13400000 -0.05800000
v -0.02600000 0.13400000 -0.06200000
v -0.02600000 0.13400000 -0.05800000
v -0.02200000 0.12200000 -0.07000000
v -0.02200000 0.12200000 -0.06600000
v -0.02200000 0.12600000 -0.07000000
v -0.02200000 0.12600000 -0.06600000
v -0.02200000 0.12200000 -0.06200000
v -0.02200000 0.12600000 -0.06200000
v -0.02200000 0.13000000 -0.07000000
v -0.02200000 0.13000000 -0.06600000
v -0.02200000 0.12600000 -0.05800000
v -0.02200000 0.12600000 -0.05400000
v -0.02200000 0.13000000 -0.05400000
v -0.02600000 0.13400000 -0.06600000
v -0.02200000 0.13400000 -0.06600000
v -0.02200000 0.13400000 -0.06200000
v -0.02200000 0.13400000 -0.05800000
v -0.02600000 0.13400000 -0.05400000
v -0.02200000 0.13400000 -0.05400000
v -0.01800000 0.12600000 -0.07000000
v -0.01800000 0.12600000 -0.06600000
v -0.01800000 0.13000000 -0.07000000
v -0.01800000 0.12600000 -0.06200000
v -0.01800000 0.12600000 -0.05800000
v -0.01800000 0.12600000 -0.05400000
v -0.01800000 0.13000000 -0.05800000
v -0.01800000 0.13000000 -0.05400000
v -0.02200000 0.13400000 -0.07000000
v -0.01800000 0.13400000 -0.07000000
v -0.01800000 0.13400000 -0.06600000
v -0.01800000 0.13400000 -0.06200000
v -0.01800000 0.13400000 -0.05800000
v -0.01800000 0.13400000 -0.05400000
v -0.01400000 0.12600000 -0.07000000
v -0.01400000 0.12600000 -0.06600000
v -0.01400000 0.13000000 -0.07000000
v -0.01400000 0.12600000 -0.06200000
v -0.01400000 0.12600000 -0.05800000
v -0.01400000 0.13000000 -0.05800000
v -0.01400000 0.13400000 -0.07000000
v -0.01400000 0.13400000 -0.06600000
v -0.01400000 0.13400000 -0.06200000
v -0.01400000 0.13400000 -0.05800000
v -0.01400000 0.13000000 -0.05400000
v -0.01400000 0.13400000 -0.05400000
v -0.01000000 0.12600000 -0.07000000
v -0.01000000 0.12600000 -0.06600000
v -0.01000000 0.13000000 -0.07000000
v -0.01000000 0.12600000 -0.06200000
v -0.01000000 0.12600000 -0.05800000
v -0.01000000 0.13000000 -0.06200000
v -0.01000000 0.13000000 -0.05800000
v -0.01000000 0.13400000 -0.07000000
v -0.01000000 0.13400000 -0.06600000
v -0.01000000 0.13400000 -0.06200000
v -0.01000000 0.13400000 -0.05800000
v -0.01000000 0.13000000 -0.05400000
v -0.01000000 0.13400000 -0.05400000
v -0.00600000 0.12600000 -0.07000000
v -0.00600000 0.12600000 -0.06600000
v -0.00600000 0.13000000 -0.07000000
v -0.00600000 0.12600000 -0.06200000
v -0.00600000 0.13000000 -0.06200000
v -0.00600000 0.13400000 -0.07000000
v -0.00600000 0.13400000 -0.06600000
v -0.00600000 0.13400000 -0.06200000
v -0.00600000 0.13000000 -0.05800000
v -0.00600000 0.13400000 -0.05800000
v -0.00200000 0.12600000 -0.07000000
v -0.00200000 0.12600000 -0.06600000
v -0.00200000 0.13000000 -0.07000000
v -0.00200000 0.12600000 -0.06200000
v -0.00200000 0.13000000 -0.06600000
v -0.00200000 0.13000000 -0.06200000
v -0.00200000 0.13400000 -0.07000000
v -0.00200000 0.13400000 -0.06600000
v -0.00200000 0.13400000 -0.06200000
v -0.00200000 0.13000000 -0.05800000
v -0.00200000 0.13400000 -0.05800000
v -0.00600000 0.13800000 -0.06200000
v -0.00600000 0.13800000 -0.05800000
v -0.00200000 0.13800000 -0.06200000
v -0.00200000 0.13800000 -0.05800000
v 0.00200000 0.12600000 -0.07000000
v 0.00200000 0.12600000 -0.06600000
v 0.00200000 0.13000000 -0.07000000
v 0.00200000 0.13000000 -0.06600000
v 0.00200000 0.13400000 -0.07000000
v 0.00200000 0.13400000 -0.06600000
v 0.00200000 0.13000000 -0.06200000
v 0.00200000 0.13400000 -0.06200000
v 0.00200000 0.13000000 -0.05800000
v 0.00200000 0.13400000 -0.05800000
v 0.00200000 0.13800000 -0.06200000
v 0.00200000 0.13800000 -0.05800000
v 0.00600000 0.12600000 -0.07000000
v 0.00600000 0.12600000 -0.06600000
v 0.00600000 0.13000000 -0.07000000
v 0.00600000 0.13000000 -0.06600000
v 0.00600000 0.13400000 -0.07000000
v 0.00600000 0.13400000 -0.06600000
v 0.00600000 0.13000000 -0.06200000
v 0.00600000 0.13400000 -0.06200000
v 0.00600000 0.13000000 -0.05800000
v 0.00600000 0.13400000 -0.05800000
v 0.00600000 0.13800000 -0.06200000
v 0.00600000 0.13800000 -0.05800000
v 0.01000000 0.12600000 -0.07000000
v 0.01000000 0.12600000 -0.06600000
v 0.01000000 0.13000000 -0.07000000
v 0.01000000 0.13000000 -0.06600000
v 0.01000000 0.13400000 -0.07000000
v 0.01000000 0.13400000 -0.06600000
v 0.01000000 0.13000000 -0.06200000
v 0.01000000 0.13400000 -0.06200000
v 0.01000000 0.13000000 -0.05800000
v 0.01000000 0.13400000 -0.05800000
v 0.01400000 0.12600000 -0.07000000
v 0.01400000 0.12600000 -0.06600000
v 0.01400000 0.13000000 -0.07000000
v 0.01400000 0.13000000 -0.06600000
v 0.01400000 0.13400000 -0.07000000
v 0.01400000 0.13400000 -0.06600000
v 0.01400000 0.13000000 -0.06200000
v 0.01400000 0.13400000 -0.06200000
v 0.01400000 0.13000000 -0.05800000
v 0.01400000 0.13400000 -0.05800000
v 0.01800000 0.12600000 -0.07000000
v 0.01800000 0.12600000 -0.06600000
v 0.01800000 0.13000000 -0.07000000
v 0.01800000 0.13000000 -0.06600000
v 0.01400000 0.12600000 -0.06200000
v 0.01800000 0.12600000 -0.06200000
v 0.01800000 0.13000000 -0.06200000
v 0.01800000 0.13400000 -0.06600000
v 0.01800000 0.13400000 -0.06200000
v 0.01800000 0.13000000 -0.05800000
v 0.01800000 0.13400000 -0.05800000
v 0.02200000 0.12600000 -0.07000000
v 0.02200000 0.12600000 -0.06600000
v 0.02200000 0.13000000 -0.07000000
v 0.02200000 0.13000000 -0.06600000
v 0.02200000 0.12600000 -0.06200000
v 0.01800000 0.12600000 -0.05800000
v 0.02200000 0.12600000 -0.05800000
v 0.02200000 0.13000000 -0.05800000
v 0.02200000 0.13000000 -0.06200000
v 0.02200000 0.13400000 -0.06600000
v 0.02200000 0.13400000 -0.06200000
v 0.02200000 0.13400000 -0.05800000
v 0.01800000 0.13000000 -0.05400000
v 0.01800000 0.13400000 -0.05400000
v 0.02200000 0.13000000 -0.05400000
v 0.02200000 0.13400000 -0.05400000
v 0.02200000 0.12200000 -0.07000000
v 0.02200000 0.12200000 -0.06600000
v 0.02600000 0.12200000 -0.07000000
v 0.02600000 0.12200000 -0.06600000
v 0.02600000 0.12600000 -0.07000000
v 0.02600000 0.12600000 -0.06600000
v 0.02600000 0.13000000 -0.07000000
v 0.02600000 0.13000000 -0.06600000
v 0.02600000 0.12600000 -0.06200000
v 0.02600000 0.13000000 -0.06200000
v 0.02600000 0.12600000 -0.05800000
v 0.02600000 0.13000000 -0.05800000
v 0.02200000 0.12600000 -0.05400000
v 0.02600000 0.12600000 -0.05400000
v 0.02600000 0.13000000 -0.05400000
v 0.02600000 0.13400000 -0.05800000
v 0.02600000 0.13400000 -0.05400000
v 0.03000000 0.12200000 -0.07000000
v 0.03000000 0.12200000 -0.06600000
v 0.03000000 0.12600000 -0.07000000
v 0.03000000 0.12600000 -0.06600000
v 0.02600000 0.12200000 -0.06200000
v 0.03000000 0.12200000 -0.06200000
v 0.02600000 0.12200000 -0.05800000
v 0.03000000 0.12200000 -0.05800000
v 0.03000000 0.12600000 -0.05800000
v 0.03000000 0.13000000 -0.06600000
v 0.03000000 0.13000000 -0.06200000
v 0.03000000 0.13000000 -0.05800000
v 0.03000000 0.12600000 -0.05400000
v 0.03000000 0.13000000 -0.05400000
v 0.03000000 0.11800000 -0.07000000
v 0.03000000 0.11800000 -0.06600000
v 0.03400000 0.11800000 -0.07000000
v 0.03400000 0.11800000 -0.06600000
v 0.03400000 0.12200000 -0.07000000
v 0.03400000 0.12200000 -0.06600000
v 0.03400000 0.12600000 -0.07000000
v 0.03400000 0.12600000 -0.06600000
v 0.03400000 0.12200000 -0.06200000
v 0.03400000 0.12200000 -0.05800000
v 0.03000000 0.12200000 -0.05400000
v 0.03400000 0.12200000 -0.05400000
v 0.03400000 0.12600000 -0.05400000
v 0.03400000 0.12600000 -0.06200000
v 0.03400000 0.13000000 -0.06600000
v 0.03400000 0.13000000 -0.06200000
v 0.03400000 0.12600000 -0.05800000
v 0.03400000 0.13000000 -0.05800000
v 0.03400000 0.13000000 -0.05400000
v 0.03800000 0.11800000 -0.07000000
v 0.03800000 0.11800000 -0.06600000
v 0.03800000 0.12200000 -0.07000000
v 0.03800000 0.12200000 -0.06600000
v 0.03400000 0.11800000 -0.06200000
v 0.03800000 0.11800000 -0.06200000
v 0.03800000 0.12200000 -0.06200000
v 0.03400000 0.11800000 -0.05800000
v 0.03800000 0.11800000 -0.05800000
v 0.03800000 0.12200000 -0.05800000
v 0.03800000 0.12600000 -0.06600000
v 0.03800000 0.12600000 -0.06200000
v 0.03800000 0.12600000 -0.05800000
v 0.03800000 0.12200000 -0.05400000
v 0.03800000 0.12600000 -0.05400000
f 2 4 1
f 5 2 1
f 1 4 3
f 3 5 1
f 6 2 5
f 4 8 3
f 7 5 3
f 3 8 7
f 9 10 2
f 6 9 2
f 2 10 4
f 11 9 6
f 10 12 4
f 4 12 8
f 13 14 9
f 11 13 9
f 9 14 10
f 15 13 11
f 14 16 10
f 10 16 12
f 17 18 13
f 15 17 13
f 13 18 14
f 17 20 18
f 19 17 15
f 19 20 17
f 18 20 14
f 14 20 16
f 21 6 5
f 7 21 5
f 22 6 21
f 8 24 7
f 23 21 7
f 7 24 23
f 22 11 6
f 25 11 22
f 12 26 8
f 8 26 24
f 25 15 11
f 27 15 25
f 16 28 12
f 12 28 26
f 27 19 15
f 19 30 20
f 29 19 27
f 29 30 19
f 20 30 16
f 16 30 28
f 31 22 21
f 23 31 21
f 32 22 31
f 24 34 23
f 33 31 23
f 23 34 33
f 32 25 22
f 35 25 32
f 26 36 24
f 24 36 34
f 35 27 25
f 37 27 35
f 36 37 35
f 38 37 36
f 37 29 27
f 29 40 30
f 39 29 37
f 39 40 29
f 38 39 37
f 40 39 38
f 28 42 26
f 26 42 41
f 41 36 26
f 42 44 41
f 43 36 41
f 41 44 43
f 30 45 28
f 28 45 42
f 30 46 45
f 40 46 30
f 45 46 42
f 42 46 44
f 47 32 31
f 33 47 31
f 48 32 47
f 34 50 33
f 49 47 33
f 33 50 49
f 48 35 32
f 35 52 36
f 51 35 48
f 51 52 35
f 36 43 34
f 34 43 53
f 53 50 34
f 43 55 53
f 54 50 53
f 53 55 54
f 52 38 36
f 56 38 52
f 44 57 43
f 43 57 55
f 56 40 38
f 40 59 46
f 58 40 56
f 58 59 40
f 46 59 44
f 44 59 57
f 61 48 60
f 62 61 60
f 60 48 47
f 47 62 60
f 63 61 62
f 64 62 47
f 64 63 62
f 65 63 64
f 66 51 61
f 63 66 61
f 61 51 48
f 66 68 51
f 67 66 63
f 67 68 66
f 65 67 63
f 68 67 65
f 49 64 47
f 69 64 49
f 70 56 51
f 68 70 51
f 51 56 52
f 71 70 68
f 72 58 70
f 71 72 70
f 70 58 56
f 72 74 58
f 73 72 71
f 73 74 72
f 50 54 49
f 49 54 75
f 75 69 49
f 54 77 75
f 76 69 75
f 75 77 76
f 55 78 54
f 54 78 77
f 57 79 55
f 55 79 78
f 58 80 59
f 74 80 58
f 59 80 57
f 57 80 79
f 81 65 64
f 69 81 64
f 82 65 81
f 83 81 69
f 82 68 65
f 84 68 82
f 84 71 68
f 85 71 84
f 85 73 71
f 73 88 74
f 86 73 85
f 86 88 73
f 87 86 85
f 88 86 87
f 76 83 69
f 77 90 76
f 89 83 76
f 76 90 89
f 78 91 77
f 77 91 90
f 79 92 78
f 78 92 91
f 74 93 80
f 88 93 74
f 80 93 79
f 79 93 92
f 94 82 81
f 83 94 81
f 95 82 94
f 96 94 83
f 95 84 82
f 97 84 95
f 97 85 84
f 85 100 87
f 98 85 97
f 98 100 85
f 99 98 97
f 100 98 99
f 89 96 83
f 90 102 89
f 101 96 89
f 89 102 101
f 91 103 90
f 90 103 102
f 100 88 87
f 88 106 93
f 104 88 100
f 104 106 88
f 93 106 92
f 92 106 105
f 92 108 91
f 91 108 107
f 107 103 91
f 92 110 108
f 105 110 92
f 108 110 107
f 109 103 107
f 107 110 109
f 111 95 94
f 96 111 94
f 112 95 111
f 113 111 96
f 113 112 111
f 114 112 113
f 112 97 95
f 97 116 99
f 115 97 112
f 115 116 97
f 114 115 112
f 116 115 114
f 101 113 96
f 102 118 101
f 117 113 101
f 101 118 117
f 116 100 99
f 119 100 116
f 119 104 100
f 104 121 106
f 120 104 119
f 120 121 104
f 103 109 102
f 102 109 122
f 122 118 102
f 109 124 122
f 123 118 122
f 122 124 123
f 110 125 109
f 109 125 124
f 106 126 105
f 105 126 110
f 106 127 126
f 121 127 106
f 126 127 110
f 110 127 125
f 128 114 113
f 117 128 113
f 129 114 128
f 130 128 117
f 129 116 114
f 131 116 129
f 131 119 116
f 132 119 131
f 132 120 119
f 120 135 121
f 133 120 132
f 133 135 120
f 134 133 132
f 135 133 134
f 118 123 117
f 117 123 136
f 136 130 117
f 123 138 136
f 137 130 136
f 136 138 137
f 124 139 123
f 123 139 138
f 125 140 124
f 124 140 139
f 121 141 127
f 135 141 121
f 127 141 125
f 125 141 140
f 142 129 128
f 130 142 128
f 143 129 142
f 144 142 130
f 143 131 129
f 145 131 143
f 145 132 131
f 132 147 134
f 146 132 145
f 146 147 132
f 137 144 130
f 138 149 137
f 148 144 137
f 137 149 148
f 139 150 138
f 138 150 149
f 140 151 139
f 139 151 150
f 147 135 134
f 135 153 141
f 152 135 147
f 152 153 135
f 141 153 140
f 140 153 151
f 154 143 142
f 144 154 142
f 155 143 154
f 156 154 144
f 155 145 143
f 157 145 155
f 157 146 145
f 146 160 147
f 158 146 157
f 158 160 146
f 159 158 157
f 160 158 159
f 148 156 144
f 149 162 148
f 161 156 148
f 148 162 161
f 150 163 149
f 149 163 162
f 151 164 150
f 150 164 163
f 160 152 147
f 152 166 153
f 165 152 160
f 165 166 152
f 153 166 151
f 151 166 164
f 164 165 160
f 166 165 164
f 167 155 154
f 156 167 154
f 168 155 167
f 169 167 156
f 168 157 155
f 157 171 159
f 170 157 168
f 170 171 157
f 161 169 156
f 162 173 161
f 172 169 161
f 161 173 172
f 163 174 162
f 162 174 173
f 171 160 159
f 160 176 164
f 175 160 171
f 175 176 160
f 164 176 163
f 163 176 174
f 177 168 167
f 169 177 167
f 178 168 177
f 179 177 169
f 178 170 168
f 170 182 171
f 180 170 178
f 180 182 170
f 181 180 178
f 182 180 181
f 172 179 169
f 173 184 172
f 183 179 172
f 172 184 183
f 174 185 173
f 173 185 184
f 182 175 171
f 175 187 176
f 186 175 182
f 186 187 175
f 176 189 174
f 174 189 188
f 188 185 174
f 176 191 189
f 187 191 176
f 189 191 188
f 190 185 188
f 188 191 190
f 192 178 177
f 179 192 177
f 178 195 181
f 193 178 192
f 193 195 178
f 194 192 179
f 183 194 179
f 184 197 183
f 196 194 183
f 183 197 196
f 195 182 181
f 198 182 195
f 185 199 184
f 184 199 197
f 198 186 182
f 186 201 187
f 200 186 198
f 200 201 186
f 190 199 185
f 187 203 191
f 201 203 187
f 191 203 190
f 202 199 190
f 190 203 202
f 204 193 192
f 194 204 192
f 193 207 195
f 205 193 204
f 205 207 193
f 206 204 194
f 196 206 194
f 197 209 196
f 208 206 196
f 196 209 208
f 207 198 195
f 210 198 207
f 199 211 197
f 197 211 209
f 210 200 198
f 200 213 201
f 212 200 210
f 212 213 200
f 202 211 199
f 201 215 203
f 213 215 201
f 203 215 202
f 214 211 202
f 202 215 214
f 214 213 211
f 215 213 214
f 216 205 204
f 206 216 204
f 205 219 207
f 217 205 216
f 217 219 205
f 218 216 206
f 208 218 206
f 209 221 208
f 220 218 208
f 208 221 220
f 219 210 207
f 222 210 219
f 211 223 209
f 209 223 221
f 222 212 210
f 212 225 213
f 224 212 222
f 224 225 212
f 213 225 211
f 211 225 223
f 226 217 216
f 218 226 216
f 217 229 219
f 227 217 226
f 227 229 217
f 228 226 218
f 220 228 218
f 221 231 220
f 230 228 220
f 220 231 230
f 230 229 228
f 231 229 230
f 229 222 219
f 232 222 229
f 223 233 221
f 221 233 231
f 232 224 222
f 224 235 225
f 234 224 232
f 234 235 224
f 225 235 223
f 223 235 233
f 236 227 226
f 228 236 226
f 237 227 236
f 229 239 228
f 238 236 228
f 228 239 238
f 240 232 227
f 237 240 227
f 227 232 229
f 240 242 232
f 241 240 237
f 241 242 240
f 231 239 229
f 233 244 231
f 243 239 231
f 231 244 243
f 242 234 232
f 234 246 235
f 245 234 242
f 245 246 234
f 235 246 233
f 233 246 244
f 247 237 236
f 238 247 236
f 248 237 247
f 239 250 238
f 249 247 238
f 238 250 249
f 248 241 237
f 251 241 248
f 252 245 241
f 251 252 241
f 241 245 242
f 252 254 245
f 253 252 251
f 253 254 252
f 243 250 239
f 244 257 243
f 256 250 243
f 243 257 256
f 256 255 250
f 257 255 256
f 246 258 244
f 244 258 257
f 257 254 255
f 258 254 257
f 259 260 245
f 254 259 245
f 245 260 246
f 259 262 260
f 261 259 254
f 261 262 259
f 260 262 246
f 246 262 258
f 264 248 263
f 265 264 263
f 263 248 247
f 247 265 263
f 264 268 248
f 266 264 265
f 266 268 264
f 267 265 247
f 249 267 247
f 250 270 249
f 269 267 249
f 249 270 269
f 269 268 267
f 270 268 269
f 268 251 248
f 271 251 268
f 255 272 250
f 250 272 270
f 271 253 251
f 273 253 271
f 254 274 255
f 255 274 272
f 275 261 253
f 273 275 253
f 253 261 254
f 275 277 261
f 276 275 273
f 276 277 275
f 258 274 254
f 261 279 262
f 277 279 261
f 262 279 258
f 278 274 258
f 258 279 278
f 278 277 274
f 279 277 278
f 280 266 265
f 267 280 265
f 281 266 280
f 268 283 267
f 282 280 267
f 267 283 282
f 284 271 266
f 281 284 266
f 266 271 268
f 285 284 281
f 286 273 284
f 285 286 284
f 284 273 271
f 286 288 273
f 287 286 285
f 287 288 286
f 270 283 268
f 272 290 270
f 289 283 270
f 270 290 289
f 274 291 272
f 272 291 290
f 288 276 273
f 276 293 277
f 292 276 288
f 292 293 276
f 277 293 274
f 274 293 291
f 295 281 294
f 296 295 294
f 294 281 280
f 280 296 294
f 295 299 281
f 297 295 296
f 297 299 295
f 298 296 280
f 282 298 280
f 283 301 282
f 300 298 282
f 282 301 300
f 300 299 298
f 301 299 300
f 299 285 281
f 302 285 299
f 302 287 285
f 303 287 302
f 304 292 287
f 303 304 287
f 287 292 288
f 304 306 292
f 305 304 303
f 305 306 304
f 289 301 283
f 290 309 289
f 308 301 289
f 289 309 308
f 308 307 301
f 309 307 308
f 291 311 290
f 290 311 309
f 309 310 307
f 311 310 309
f 292 312 293
f 306 312 292
f 293 312 291
f 291 312 311
f 311 306 310
f 312 306 311
f 313 297 296
f 298 313 296
f 314 297 313
f 299 316 298
f 315 313 298
f 298 316 315
f 315 314 313
f 316 314 315
f 317 302 297
f 314 317 297
f 297 302 299
f 318 317 314
f 316 318 314
f 319 318 316
f 320 303 317
f 318 320 317
f 317 303 302
f 320 322 303
f 321 320 318
f 321 322 320
f 319 321 318
f 322 321 319
f 301 316 299
f 307 324 301
f 323 316 301
f 301 324 323
f 323 319 316
f 324 319 323
f 310 325 307
f 307 325 324
f 324 322 319
f 325 322 324
f 322 305 303
f 305 327 306
f 326 305 322
f 326 327 305
f 306 327 310
f 310 327 325
f 325 326 322
f 327 326 325

