# https://github.com/mikedh/trimesh
v 0.50000000 0.30007141 0.24991664
v -0.50000000 -0.29992897 0.25008822
v -0.50000000 0.30007141 0.24991664
v 0.50000000 -0.29992897 0.25008822
v -0.50000000 -0.29992574 0.26080237
v -0.50000000 0.30007465 0.26063079
v 0.50000000 -0.29992574 0.26080237
v 0.50000000 0.30007465 0.26063079
v 0.41071474 0.26435433 0.23920831
v 0.37500024 0.30006818 0.23919795
v 0.37500024 0.26435433 0.23920831
v 0.41071474 0.30006818 0.23919795
v 0.37500024 0.29992509 -0.26080237
v 0.37500024 0.26421124 -0.26079201
v 0.41071474 0.29992509 -0.26080237
v 0.41071474 0.26421124 -0.26079201
v 0.41071474 -0.29993156 0.23920831
v 0.37500024 -0.26421772 0.23919795
v 0.37500024 -0.29993156 0.23920831
v 0.41071474 -0.26421772 0.23919795
v 0.37500024 -0.26436081 -0.26080237
v 0.37500024 -0.30007465 -0.26079201
v 0.41071474 -0.26436081 -0.26080237
v 0.41071474 -0.30007465 -0.26079201
v -0.37500024 0.26435433 0.23920831
v -0.41071474 0.30006818 0.23919795
v -0.41071474 0.26435433 0.23920831
v -0.37500024 0.30006818 0.23919795
v -0.41071474 0.29992509 -0.26080237
v -0.41071474 0.26421124 -0.26079201
v -0.37500024 0.29992509 -0.26080237
v -0.37500024 0.26421124 -0.26079201
v -0.37500024 -0.29993156 0.23920831
v -0.41071474 -0.26421772 0.23919795
v -0.41071474 -0.29993156 0.23920831
v -0.37500024 -0.26421772 0.23919795
v -0.41071474 -0.26436081 -0.26080237
v -0.41071474 -0.30007465 -0.26079201
v -0.37500024 -0.26436081 -0.26080237
v -0.37500024 -0.30007465 -0.26079201
v 0.37500024 0.29648967 0.18919598
v -0.37500024 0.28514942 0.18919922
v -0.37500024 0.29648967 0.18919598
v 0.37500024 0.28514942 0.18919922
v -0.37500024 0.29650391 0.23919601
v 0.37500024 0.28516367 0.23919925
v -0.37500024 0.28516367 0.23919925
v 0.37500024 0.29650391 0.23919601
v -0.40714335 0.21793281 0.22134103
v -0.39580246 0.20364662 0.22134103
v -0.39580246 0.21793281 0.22134103
v -0.40714335 0.20364662 0.22134103
v -0.39580246 0.21793281 0.22071623
v -0.39580246 0.21793281 0.23919795
v -0.40714335 0.21793281 0.22128276
v -0.40714335 0.20364662 0.23919795
v -0.39580246 0.20364662 0.22071623
v -0.39580246 0.26435239 0.18919792
v -0.40714335 0.21793281 0.23919795
v -0.40714335 0.20364662 0.22128276
v -0.40714335 0.26435239 0.23919795
v -0.39580246 0.20364662 0.23919795
v -0.40714335 -0.26421772 0.18919792
v -0.39580246 -0.18921022 0.23919795
v -0.39580246 -0.26421772 0.18919792
v -0.39580246 0.26435239 0.23919795
v -0.40714335 0.26435239 0.18919792
v -0.40714335 -0.18921022 0.22128276
v -0.39580246 -0.18921022 0.22071623
v -0.40714335 -0.18921022 0.23919795
v -0.40714335 -0.20349641 0.22128276
v -0.39580246 -0.18921022 0.22134103
v -0.39580246 -0.20349641 0.22071623
v -0.40714335 -0.18921022 0.22134103
v -0.40714335 -0.20349641 0.22134103
v -0.39580246 -0.20349641 0.22134103
v -0.39580246 -0.26421772 0.23919795
v -0.40714335 -0.26421772 0.23919795
v -0.40714335 -0.20349641 0.23919795
v -0.39580246 -0.20349641 0.23919795
v -0.37500024 -0.29633881 0.18920828
v 0.37500024 -0.28499857 0.18921152
v 0.37500024 -0.29633881 0.18920828
v -0.37500024 -0.28499857 0.18921152
v 0.37500024 -0.29635306 0.23920831
v -0.37500024 -0.28501281 0.23921155
v 0.37500024 -0.28501281 0.23921155
v -0.37500024 -0.29635306 0.23920831
v 0.40714465 -0.21780072 0.22156958
v 0.39580440 -0.20351519 0.22156958
v 0.39580440 -0.21780072 0.22156958
v 0.40714465 -0.20351519 0.22156958
v 0.39580440 -0.21780072 0.22094479
v 0.39580440 -0.21780072 0.23942715
v 0.40714465 -0.21780072 0.22151196
v 0.40714465 -0.20351519 0.23942715
v 0.39580440 -0.20351519 0.22094479
v 0.39580440 -0.26422095 0.18942712
v 0.40714465 -0.21780072 0.23942715
v 0.40714465 -0.20351519 0.22151196
v 0.40714465 -0.26422095 0.23942715
v 0.39580440 -0.20351519 0.23942715
v 0.40714465 0.26434915 0.18942712
v 0.39580440 0.18934230 0.23942715
v 0.39580440 0.26434915 0.18942712
v 0.39580440 -0.26422095 0.23942715
v 0.40714465 -0.26422095 0.18942712
v 0.40714465 0.18934230 0.22151196
v 0.39580440 0.18934230 0.22094479
v 0.40714465 0.18934230 0.23942715
v 0.40714465 0.20362784 0.22151196
v 0.39580440 0.18934230 0.22156958
v 0.39580440 0.20362784 0.22094479
v 0.40714465 0.18934230 0.22156958
v 0.40714465 0.20362784 0.22156958
v 0.39580440 0.20362784 0.22156958
v 0.39580440 0.26434915 0.23942715
v 0.40714465 0.26434915 0.23942715
v 0.40714465 0.20362784 0.23942715
v 0.39580440 0.20362784 0.23942715
v 0.04285694 0.30006818 0.23920249
v -0.04285694 0.30007141 0.24991664
v 0.04285694 0.30007141 0.24991664
v -0.04285694 0.30006818 0.23920249
v 0.04285694 -0.29992897 0.25008822
v -0.04285694 -0.29993156 0.23937406
v -0.04285694 -0.29992897 0.25008822
v 0.04285694 -0.29993156 0.23937406
v 0.28496911 -0.29993156 0.23925040
v -0.00074490 0.30006818 0.23907882
v 0.28496911 0.30006818 0.23907882
v -0.00074490 -0.29993156 0.23925040
v -0.00074490 0.30007141 0.24979297
v 0.28496911 0.30007141 0.24979297
v 0.28496911 -0.29992897 0.24996455
v -0.00074490 -0.29992897 0.24996455
v -0.32857160 0.30006818 0.23896228
v -0.04285694 -0.29993156 0.23913386
v -0.32857160 -0.29993156 0.23913386
v -0.04285694 0.30006818 0.23896228
v -0.04285694 -0.29992897 0.24984801
v -0.32857160 -0.29992897 0.24984801
v -0.32857160 0.30007141 0.24967643
v -0.04285694 0.30007141 0.24967643
v -0.31301380 0.20363885 0.22080040
v -0.03250018 0.20363885 0.23895775
v -0.31301380 0.20363885 0.23895775
v 0.27622129 0.20363885 0.19133842
v -0.03250018 0.21792439 0.23895775
v -0.31857159 0.20363885 0.23895775
v -0.31301380 0.21792439 0.22080040
v 0.27622129 0.21792439 0.19133842
v 0.27782634 0.20363885 0.22344139
v -0.31301380 0.21792439 0.23895775
v -0.31946314 0.20363885 0.22112284
v -0.31857159 0.21792439 0.23895775
v -0.31946314 0.21792439 0.22112284
v 0.27782634 0.21792439 0.22344139
v 0.00714309 0.16373530 0.23205324
v -0.00714309 0.18444946 0.23205324
v -0.00714309 0.16373530 0.23205324
v 0.00714309 0.18444946 0.23205324
v -0.00714309 0.16373530 0.23133909
v 0.00714309 0.18444946 0.23133909
v 0.00714309 0.18516360 0.23205324
v -0.00714309 0.18444946 0.23133909
v 0.00714309 0.16373530 0.23133909
v 0.00714309 0.18516101 0.19491045
v -0.00714309 0.18516360 0.23205324
v 0.00714309 0.18444946 0.19419631
v -0.00714309 0.18444946 0.19419631
v 0.00714309 0.22159224 0.19419631
v -0.00714309 0.18516101 0.19491045
v 0.00714309 0.22087551 0.19491045
v -0.00714309 0.22087551 0.19491045
v -0.00714309 0.22159224 0.19419631
v 0.00714309 0.22087810 0.23205324
v -0.00714309 0.22159224 0.23133909
v 0.00714309 0.22159224 0.23205324
v -0.00714309 0.22087810 0.23205324
v 0.00714309 0.22159224 0.23133909
v -0.00714309 0.22159224 0.23205324
v 0.00714309 0.24230640 0.23133909
v -0.00714309 0.24230640 0.23205324
v -0.00714309 0.24230640 0.23133909
v 0.00714309 0.24230640 0.23205324
v 0.26941196 0.20363043 0.22080040
v -0.01110166 0.20364079 0.23895775
v 0.26941196 0.20364079 0.23895775
v -0.31982313 0.20361360 0.19133842
v -0.01110166 0.18935461 0.23896616
v 0.27496910 0.20364079 0.23895775
v 0.26941196 0.18934489 0.22080882
v -0.31982313 0.18932741 0.19134684
v -0.32142883 0.20363173 0.22344139
v 0.26941196 0.18935525 0.23896616
v 0.27586130 0.20363043 0.22112284
v 0.27496910 0.18935525 0.23896616
v 0.27586130 0.18934489 0.22113125
v -0.32142883 0.18934619 0.22344916
v 0.26941196 -0.20351260 0.22103349
v -0.01110166 -0.20350224 0.23919083
v 0.26941196 -0.20350224 0.23919083
v -0.31982313 -0.20352943 0.19157151
v -0.01110166 -0.21778777 0.23919925
v 0.27496910 -0.20350224 0.23919083
v 0.26941196 -0.21779813 0.22104190
v -0.31982313 -0.21781562 0.19157992
v -0.32142883 -0.20351130 0.22367447
v 0.26941196 -0.21778777 0.23919925
v 0.27586130 -0.20351260 0.22135592
v 0.27496910 -0.21778777 0.23919925
v 0.27586130 -0.21779813 0.22136434
v -0.32142883 -0.21779684 0.22368224
v -0.31301380 -0.20350418 0.22080040
v -0.03250018 -0.20350418 0.23895775
v -0.31301380 -0.20350418 0.23895775
v 0.27622129 -0.20350418 0.19133842
v -0.03250018 -0.18921864 0.23895775
v -0.31857159 -0.20350418 0.23895775
v -0.31301380 -0.18921864 0.22080040
v 0.27622129 -0.18921864 0.19133842
v 0.27782634 -0.20350418 0.22344139
v -0.31301380 -0.18921864 0.23895775
v -0.31946314 -0.20350418 0.22112284
v -0.31857159 -0.18921864 0.23895775
v -0.31946314 -0.18921864 0.22112284
v 0.27782634 -0.18921864 0.22344139
v 0.00714309 -0.24340773 0.23205324
v -0.00714309 -0.22269357 0.23205324
v -0.00714309 -0.24340773 0.23205324
v 0.00714309 -0.22269357 0.23205324
v -0.00714309 -0.24340773 0.23133909
v 0.00714309 -0.22269357 0.23133909
v 0.00714309 -0.22197943 0.23205324
v -0.00714309 -0.22269357 0.23133909
v 0.00714309 -0.24340773 0.23133909
v 0.00714309 -0.22198201 0.19491045
v -0.00714309 -0.22197943 0.23205324
v 0.00714309 -0.22269357 0.19419631
v -0.00714309 -0.22269357 0.19419631
v 0.00714309 -0.18555078 0.19419631
v -0.00714309 -0.22198201 0.19491045
v 0.00714309 -0.18626752 0.19491045
v -0.00714309 -0.18626752 0.19491045
v -0.00714309 -0.18555078 0.19419631
v 0.00714309 -0.18626493 0.23205324
v -0.00714309 -0.18555078 0.23133909
v 0.00714309 -0.18555078 0.23205324
v -0.00714309 -0.18626493 0.23205324
v 0.00714309 -0.18555078 0.23133909
v -0.00714309 -0.18555078 0.23205324
v 0.00714309 -0.16483662 0.23133909
v -0.00714309 -0.16483662 0.23205324
v -0.00714309 -0.16483662 0.23133909
v 0.00714309 -0.16483662 0.23205324
f 1 2 3
f 2 1 4
f 5 3 2
f 6 1 3
f 1 7 4
f 7 2 4
f 3 5 6
f 2 7 5
f 1 6 8
f 7 1 8
f 7 6 5
f 6 7 8
f 3 2 1
f 4 1 2
f 2 3 5
f 3 1 6
f 4 7 1
f 4 2 7
f 6 5 3
f 5 7 2
f 8 6 1
f 8 1 7
f 5 6 7
f 8 7 6
f 9 10 11
f 10 9 12
f 13 11 10
f 14 9 11
f 9 15 12
f 15 10 12
f 11 13 14
f 10 15 13
f 9 14 16
f 15 9 16
f 15 14 13
f 14 15 16
f 11 10 9
f 12 9 10
f 10 11 13
f 11 9 14
f 12 15 9
f 12 10 15
f 14 13 11
f 13 15 10
f 16 14 9
f 16 9 15
f 13 14 15
f 16 15 14
f 17 18 19
f 18 17 20
f 21 19 18
f 22 17 19
f 17 23 20
f 23 18 20
f 19 21 22
f 18 23 21
f 17 22 24
f 23 17 24
f 23 22 21
f 22 23 24
f 19 18 17
f 20 17 18
f 18 19 21
f 19 17 22
f 20 23 17
f 20 18 23
f 22 21 19
f 21 23 18
f 24 22 17
f 24 17 23
f 21 22 23
f 24 23 22
f 25 26 27
f 26 25 28
f 29 27 26
f 30 25 27
f 25 31 28
f 31 26 28
f 27 29 30
f 26 31 29
f 25 30 32
f 31 25 32
f 31 30 29
f 30 31 32
f 27 26 25
f 28 25 26
f 26 27 29
f 27 25 30
f 28 31 25
f 28 26 31
f 30 29 27
f 29 31 26
f 32 30 25
f 32 25 31
f 29 30 31
f 32 31 30
f 33 34 35
f 34 33 36
f 37 35 34
f 38 33 35
f 33 39 36
f 39 34 36
f 35 37 38
f 34 39 37
f 33 38 40
f 39 33 40
f 39 38 37
f 38 39 40
f 35 34 33
f 36 33 34
f 34 35 37
f 35 33 38
f 36 39 33
f 36 34 39
f 38 37 35
f 37 39 34
f 40 38 33
f 40 33 39
f 37 38 39
f 40 39 38
f 41 42 43
f 42 41 44
f 42 45 43
f 45 41 43
f 41 46 44
f 46 42 44
f 45 42 47
f 41 45 48
f 46 41 48
f 42 46 47
f 46 45 47
f 45 46 48
f 43 42 41
f 44 41 42
f 43 45 42
f 43 41 45
f 44 46 41
f 44 42 46
f 47 42 45
f 48 45 41
f 48 41 46
f 47 46 42
f 47 45 46
f 48 46 45
f 49 50 51
f 50 49 52
f 50 53 51
f 54 49 51
f 55 52 49
f 56 50 52
f 53 50 57
f 53 58 51
f 49 54 59
f 58 54 51
f 52 55 60
f 61 55 49
f 50 56 62
f 52 63 56
f 50 64 57
f 65 53 57
f 58 53 65
f 54 61 59
f 59 61 49
f 54 58 66
f 55 63 60
f 60 63 52
f 67 55 61
f 56 64 62
f 64 50 62
f 56 63 68
f 69 57 64
f 65 57 69
f 65 67 58
f 61 54 66
f 58 61 66
f 55 67 63
f 61 58 67
f 64 56 70
f 68 63 71
f 68 70 56
f 69 64 72
f 65 69 73
f 67 65 63
f 74 64 70
f 71 63 75
f 71 74 68
f 70 68 74
f 64 74 72
f 76 69 72
f 69 76 73
f 65 73 76
f 77 63 65
f 78 75 63
f 74 71 75
f 75 72 74
f 72 75 76
f 65 76 77
f 63 77 78
f 75 78 79
f 79 76 75
f 77 76 80
f 77 79 78
f 76 79 80
f 79 77 80
f 51 50 49
f 52 49 50
f 51 53 50
f 51 49 54
f 49 52 55
f 52 50 56
f 57 50 53
f 51 58 53
f 59 54 49
f 51 54 58
f 60 55 52
f 49 55 61
f 62 56 50
f 56 63 52
f 57 64 50
f 57 53 65
f 65 53 58
f 59 61 54
f 49 61 59
f 66 58 54
f 60 63 55
f 52 63 60
f 61 55 67
f 62 64 56
f 62 50 64
f 68 63 56
f 64 57 69
f 69 57 65
f 58 67 65
f 66 54 61
f 66 61 58
f 63 67 55
f 67 58 61
f 70 56 64
f 71 63 68
f 56 70 68
f 72 64 69
f 73 69 65
f 63 65 67
f 70 64 74
f 75 63 71
f 68 74 71
f 74 68 70
f 72 74 64
f 72 69 76
f 73 76 69
f 76 73 65
f 65 63 77
f 63 75 78
f 75 71 74
f 74 72 75
f 76 75 72
f 77 76 65
f 78 77 63
f 79 78 75
f 75 76 79
f 80 76 77
f 78 79 77
f 80 79 76
f 80 77 79
f 81 82 83
f 82 81 84
f 82 85 83
f 85 81 83
f 81 86 84
f 86 82 84
f 85 82 87
f 81 85 88
f 86 81 88
f 82 86 87
f 86 85 87
f 85 86 88
f 83 82 81
f 84 81 82
f 83 85 82
f 83 81 85
f 84 86 81
f 84 82 86
f 87 82 85
f 88 85 81
f 88 81 86
f 87 86 82
f 87 85 86
f 88 86 85
f 89 90 91
f 90 89 92
f 90 93 91
f 94 89 91
f 95 92 89
f 96 90 92
f 93 90 97
f 93 98 91
f 89 94 99
f 98 94 91
f 92 95 100
f 101 95 89
f 90 96 102
f 92 103 96
f 90 104 97
f 105 93 97
f 98 93 105
f 94 101 99
f 99 101 89
f 94 98 106
f 95 103 100
f 100 103 92
f 107 95 101
f 96 104 102
f 104 90 102
f 96 103 108
f 109 97 104
f 105 97 109
f 105 107 98
f 101 94 106
f 98 101 106
f 95 107 103
f 101 98 107
f 104 96 110
f 108 103 111
f 108 110 96
f 109 104 112
f 105 109 113
f 107 105 103
f 114 104 110
f 111 103 115
f 111 114 108
f 110 108 114
f 104 114 112
f 116 109 112
f 109 116 113
f 105 113 116
f 117 103 105
f 118 115 103
f 114 111 115
f 115 112 114
f 112 115 116
f 105 116 117
f 103 117 118
f 115 118 119
f 119 116 115
f 117 116 120
f 117 119 118
f 116 119 120
f 119 117 120
f 91 90 89
f 92 89 90
f 91 93 90
f 91 89 94
f 89 92 95
f 92 90 96
f 97 90 93
f 91 98 93
f 99 94 89
f 91 94 98
f 100 95 92
f 89 95 101
f 102 96 90
f 96 103 92
f 97 104 90
f 97 93 105
f 105 93 98
f 99 101 94
f 89 101 99
f 106 98 94
f 100 103 95
f 92 103 100
f 101 95 107
f 102 104 96
f 102 90 104
f 108 103 96
f 104 97 109
f 109 97 105
f 98 107 105
f 106 94 101
f 106 101 98
f 103 107 95
f 107 98 101
f 110 96 104
f 111 103 108
f 96 110 108
f 112 104 109
f 113 109 105
f 103 105 107
f 110 104 114
f 115 103 111
f 108 114 111
f 114 108 110
f 112 114 104
f 112 109 116
f 113 116 109
f 116 113 105
f 105 103 117
f 103 115 118
f 115 111 114
f 114 112 115
f 116 115 112
f 117 116 105
f 118 117 103
f 119 118 115
f 115 116 119
f 120 116 117
f 118 119 117
f 120 119 116
f 120 117 119
f 121 122 123
f 122 121 124
f 122 125 123
f 125 121 123
f 121 126 124
f 124 127 122
f 125 122 127
f 121 125 128
f 126 121 128
f 127 124 126
f 126 125 127
f 125 126 128
f 123 122 121
f 124 121 122
f 123 125 122
f 123 121 125
f 124 126 121
f 122 127 124
f 127 122 125
f 128 125 121
f 128 121 126
f 126 124 127
f 127 125 126
f 128 126 125
f 129 130 131
f 130 129 132
f 133 131 130
f 134 129 131
f 135 132 129
f 132 133 130
f 131 133 134
f 129 134 135
f 132 135 136
f 133 132 136
f 133 135 134
f 135 133 136
f 131 130 129
f 132 129 130
f 130 131 133
f 131 129 134
f 129 132 135
f 130 133 132
f 134 133 131
f 135 134 129
f 136 135 132
f 136 132 133
f 134 135 133
f 136 133 135
f 137 138 139
f 138 137 140
f 141 139 138
f 142 137 139
f 143 140 137
f 140 141 138
f 139 141 142
f 137 142 143
f 140 143 144
f 141 140 144
f 141 143 142
f 143 141 144
f 139 138 137
f 140 137 138
f 138 139 141
f 139 137 142
f 137 140 143
f 138 141 140
f 142 141 139
f 143 142 137
f 144 143 140
f 144 140 141
f 142 143 141
f 144 141 143
f 145 146 147
f 146 145 148
f 149 147 146
f 150 145 147
f 147 151 145
f 145 152 148
f 146 148 153
f 147 149 154
f 153 149 146
f 145 150 155
f 147 156 150
f 151 147 154
f 152 145 151
f 145 157 151
f 152 153 148
f 149 151 154
f 156 147 154
f 149 153 158
f 150 157 155
f 157 145 155
f 157 150 156
f 157 154 151
f 151 149 152
f 153 152 158
f 154 157 156
f 152 149 158
f 147 146 145
f 148 145 146
f 146 147 149
f 147 145 150
f 145 151 147
f 148 152 145
f 153 148 146
f 154 149 147
f 146 149 153
f 155 150 145
f 150 156 147
f 154 147 151
f 151 145 152
f 151 157 145
f 148 153 152
f 154 151 149
f 154 147 156
f 158 153 149
f 155 157 150
f 155 145 157
f 156 150 157
f 151 154 157
f 152 149 151
f 158 152 153
f 156 157 154
f 158 149 152
f 159 160 161
f 160 159 162
f 160 163 161
f 163 159 161
f 159 164 162
f 160 165 162
f 163 160 166
f 159 163 167
f 164 159 167
f 164 168 162
f 165 160 169
f 165 162 168
f 166 160 169
f 164 163 166
f 163 164 167
f 170 168 164
f 168 169 165
f 166 169 171
f 171 164 166
f 168 170 172
f 164 171 170
f 169 168 173
f 171 169 173
f 171 172 170
f 168 172 174
f 168 175 173
f 173 176 171
f 172 171 176
f 174 172 177
f 175 168 174
f 176 173 175
f 178 172 176
f 177 172 179
f 177 175 174
f 176 175 180
f 172 178 181
f 176 182 178
f 179 172 181
f 180 179 177
f 175 177 180
f 176 180 182
f 178 183 181
f 184 178 182
f 179 181 183
f 179 180 182
f 183 178 185
f 178 184 185
f 179 184 182
f 179 183 186
f 184 183 185
f 184 179 186
f 183 184 186
f 161 160 159
f 162 159 160
f 161 163 160
f 161 159 163
f 162 164 159
f 162 165 160
f 166 160 163
f 167 163 159
f 167 159 164
f 162 168 164
f 169 160 165
f 168 162 165
f 169 160 166
f 166 163 164
f 167 164 163
f 164 168 170
f 165 169 168
f 171 169 166
f 166 164 171
f 172 170 168
f 170 171 164
f 173 168 169
f 173 169 171
f 170 172 171
f 174 172 168
f 173 175 168
f 171 176 173
f 176 171 172
f 177 172 174
f 174 168 175
f 175 173 176
f 176 172 178
f 179 172 177
f 174 175 177
f 180 175 176
f 181 178 172
f 178 182 176
f 181 172 179
f 177 179 180
f 180 177 175
f 182 180 176
f 181 183 178
f 182 178 184
f 183 181 179
f 182 180 179
f 185 178 183
f 185 184 178
f 182 184 179
f 186 183 179
f 185 183 184
f 186 179 184
f 186 184 183
f 187 188 189
f 188 187 190
f 191 189 188
f 192 187 189
f 189 193 187
f 187 194 190
f 188 190 195
f 189 191 196
f 195 191 188
f 187 192 197
f 189 198 192
f 193 189 196
f 194 187 193
f 187 199 193
f 194 195 190
f 191 193 196
f 198 189 196
f 191 195 200
f 192 199 197
f 199 187 197
f 199 192 198
f 199 196 193
f 193 191 194
f 195 194 200
f 196 199 198
f 194 191 200
f 189 188 187
f 190 187 188
f 188 189 191
f 189 187 192
f 187 193 189
f 190 194 187
f 195 190 188
f 196 191 189
f 188 191 195
f 197 192 187
f 192 198 189
f 196 189 193
f 193 187 194
f 193 199 187
f 190 195 194
f 196 193 191
f 196 189 198
f 200 195 191
f 197 199 192
f 197 187 199
f 198 192 199
f 193 196 199
f 194 191 193
f 200 194 195
f 198 199 196
f 200 191 194
f 201 202 203
f 202 201 204
f 205 203 202
f 206 201 203
f 203 207 201
f 201 208 204
f 202 204 209
f 203 205 210
f 209 205 202
f 201 206 211
f 203 212 206
f 207 203 210
f 208 201 207
f 201 213 207
f 208 209 204
f 205 207 210
f 212 203 210
f 205 209 214
f 206 213 211
f 213 201 211
f 213 206 212
f 213 210 207
f 207 205 208
f 209 208 214
f 210 213 212
f 208 205 214
f 203 202 201
f 204 201 202
f 202 203 205
f 203 201 206
f 201 207 203
f 204 208 201
f 209 204 202
f 210 205 203
f 202 205 209
f 211 206 201
f 206 212 203
f 210 203 207
f 207 201 208
f 207 213 201
f 204 209 208
f 210 207 205
f 210 203 212
f 214 209 205
f 211 213 206
f 211 201 213
f 212 206 213
f 207 210 213
f 208 205 207
f 214 208 209
f 212 213 210
f 214 205 208
f 215 216 217
f 216 215 218
f 219 217 216
f 220 215 217
f 217 221 215
f 215 222 218
f 216 218 223
f 217 219 224
f 223 219 216
f 215 220 225
f 217 226 220
f 221 217 224
f 222 215 221
f 215 227 221
f 222 223 218
f 219 221 224
f 226 217 224
f 219 223 228
f 220 227 225
f 227 215 225
f 227 220 226
f 227 224 221
f 221 219 222
f 223 222 228
f 224 227 226
f 222 219 228
f 217 216 215
f 218 215 216
f 216 217 219
f 217 215 220
f 215 221 217
f 218 222 215
f 223 218 216
f 224 219 217
f 216 219 223
f 225 220 215
f 220 226 217
f 224 217 221
f 221 215 222
f 221 227 215
f 218 223 222
f 224 221 219
f 224 217 226
f 228 223 219
f 225 227 220
f 225 215 227
f 226 220 227
f 221 224 227
f 222 219 221
f 228 222 223
f 226 227 224
f 228 219 222
f 229 230 231
f 230 229 232
f 230 233 231
f 233 229 231
f 229 234 232
f 230 235 232
f 233 230 236
f 229 233 237
f 234 229 237
f 234 238 232
f 235 230 239
f 235 232 238
f 236 230 239
f 234 233 236
f 233 234 237
f 240 238 234
f 238 239 235
f 236 239 241
f 241 234 236
f 238 240 242
f 234 241 240
f 239 238 243
f 241 239 243
f 241 242 240
f 238 242 244
f 238 245 243
f 243 246 241
f 242 241 246
f 244 242 247
f 245 238 244
f 246 243 245
f 248 242 246
f 247 242 249
f 247 245 244
f 246 245 250
f 242 248 251
f 246 252 248
f 249 242 251
f 250 249 247
f 245 247 250
f 246 250 252
f 248 253 251
f 254 248 252
f 249 251 253
f 249 250 252
f 253 248 255
f 248 254 255
f 249 254 252
f 249 253 256
f 254 253 255
f 254 249 256
f 253 254 256
f 231 230 229
f 232 229 230
f 231 233 230
f 231 229 233
f 232 234 229
f 232 235 230
f 236 230 233
f 237 233 229
f 237 229 234
f 232 238 234
f 239 230 235
f 238 232 235
f 239 230 236
f 236 233 234
f 237 234 233
f 234 238 240
f 235 239 238
f 241 239 236
f 236 234 241
f 242 240 238
f 240 241 234
f 243 238 239
f 243 239 241
f 240 242 241
f 244 242 238
f 243 245 238
f 241 246 243
f 246 241 242
f 247 242 244
f 244 238 245
f 245 243 246
f 246 242 248
f 249 242 247
f 244 245 247
f 250 245 246
f 251 248 242
f 248 252 246
f 251 242 249
f 247 249 250
f 250 247 245
f 252 250 246
f 251 253 248
f 252 248 254
f 253 251 249
f 252 250 249
f 255 248 253
f 255 254 248
f 252 254 249
f 256 253 249
f 255 253 254
f 256 249 254
f 256 254 253

