# https://github.com/mikedh/trimesh
v -0.00600000 -0.01800000 -0.02200000
v -0.00600000 -0.01800000 -0.01800000
v -0.00600000 -0.01400000 -0.02200000
v -0.00600000 -0.01400000 -0.01800000
v -0.00200000 -0.01800000 -0.02200000
v -0.00200000 -0.01800000 -0.01800000
v -0.00200000 -0.01400000 -0.02200000
v -0.00600000 -0.01800000 -0.01400000
v -0.00600000 -0.01400000 -0.01400000
v -0.00200000 -0.01800000 -0.01400000
v -0.00600000 -0.01800000 -0.01000000
v -0.00600000 -0.01400000 -0.01000000
v -0.00200000 -0.01800000 -0.01000000
v -0.00600000 -0.01800000 -0.00600000
v -0.00600000 -0.01400000 -0.00600000
v -0.00200000 -0.01800000 -0.00600000
v -0.00600000 -0.01800000 -0.00200000
v -0.00600000 -0.01400000 -0.00200000
v -0.00200000 -0.01800000 -0.00200000
v -0.00600000 -0.01800000 0.00200000
v -0.00600000 -0.01400000 0.00200000
v -0.00200000 -0.01800000 0.00200000
v -0.00200000 -0.01400000 0.00200000
v -0.00600000 -0.01000000 -0.02200000
v -0.00600000 -0.01000000 -0.01800000
v -0.00200000 -0.01400000 -0.01800000
v -0.00200000 -0.01000000 -0.02200000
v -0.00200000 -0.01000000 -0.01800000
v -0.00600000 -0.01000000 -0.01400000
v -0.00200000 -0.01400000 -0.01400000
v -0.00200000 -0.01000000 -0.01400000
v -0.00600000 -0.01000000 -0.01000000
v -0.00200000 -0.01400000 -0.01000000
v -0.00200000 -0.01000000 -0.01000000
v -0.00600000 -0.01000000 -0.00600000
v -0.00200000 -0.01400000 -0.00600000
v -0.00200000 -0.01000000 -0.00600000
v -0.00600000 -0.01000000 -0.00200000
v -0.00200000 -0.01400000 -0.00200000
v -0.00200000 -0.01000000 -0.00200000
v -0.00600000 -0.01000000 0.00200000
v -0.00200000 -0.01000000 0.00200000
v -0.00600000 -0.00600000 -0.02200000
v -0.00600000 -0.00600000 -0.01800000
v -0.00200000 -0.00600000 -0.02200000
v -0.00200000 -0.00600000 -0.01800000
v -0.00600000 -0.00600000 -0.01400000
v -0.00200000 -0.00600000 -0.01400000
v -0.00600000 -0.00600000 -0.01000000
v -0.00200000 -0.00600000 -0.01000000
v -0.00600000 -0.00600000 -0.00600000
v -0.00200000 -0.00600000 -0.00600000
v -0.00600000 -0.00600000 -0.00200000
v -0.00200000 -0.00600000 -0.00200000
v -0.00600000 -0.00600000 0.00200000
v -0.00200000 -0.00600000 0.00200000
v -0.00600000 -0.00200000 -0.02200000
v -0.00600000 -0.00200000 -0.01800000
v -0.00200000 -0.00200000 -0.02200000
v -0.00200000 -0.00200000 -0.01800000
v -0.00600000 -0.00200000 -0.01400000
v -0.00200000 -0.00200000 -0.01400000
v -0.00600000 -0.00200000 -0.01000000
v -0.00200000 -0.00200000 -0.01000000
v -0.00600000 -0.00200000 -0.00600000
v -0.00200000 -0.00200000 -0.00600000
v -0.00600000 -0.00200000 -0.00200000
v -0.00200000 -0.00200000 -0.00200000
v -0.00600000 -0.00200000 0.00200000
v -0.00200000 -0.00200000 0.00200000
v -0.00600000 0.00200000 -0.02200000
v -0.00600000 0.00200000 -0.01800000
v -0.00200000 0.00200000 -0.02200000
v -0.00200000 0.00200000 -0.01800000
v -0.00600000 0.00200000 -0.01400000
v -0.00200000 0.00200000 -0.01400000
v -0.00600000 0.00200000 -0.01000000
v -0.00200000 0.00200000 -0.01000000
v -0.00600000 0.00200000 -0.00600000
v -0.00200000 0.00200000 -0.00600000
v -0.00600000 0.00200000 -0.00200000
v -0.00200000 0.00200000 -0.00200000
v -0.00600000 0.00200000 0.00200000
v -0.00200000 0.00200000 0.00200000
v -0.00600000 0.00600000 -0.02200000
v -0.00600000 0.00600000 -0.01800000
v -0.00200000 0.00600000 -0.02200000
v -0.00200000 0.00600000 -0.01800000
v -0.00600000 0.00600000 -0.01400000
v -0.00200000 0.00600000 -0.01400000
v -0.00600000 0.00600000 -0.01000000
v -0.00200000 0.00600000 -0.01000000
v -0.00600000 0.00600000 -0.00600000
v -0.00200000 0.00600000 -0.00600000
v -0.00600000 0.00600000 -0.00200000
v -0.00200000 0.00600000 -0.00200000
v -0.00600000 0.00600000 0.00200000
v -0.00200000 0.00600000 0.00200000
v -0.00600000 0.01000000 -0.02200000
v -0.00600000 0.01000000 -0.01800000
v -0.00200000 0.01000000 -0.02200000
v -0.00200000 0.01000000 -0.01800000
v -0.00600000 0.01000000 -0.01400000
v -0.00200000 0.01000000 -0.01400000
v -0.00600000 0.01000000 -0.01000000
v -0.00200000 0.01000000 -0.01000000
v -0.00600000 0.01000000 -0.00600000
v -0.00200000 0.01000000 -0.00600000
v -0.00600000 0.01000000 -0.00200000
v -0.00200000 0.01000000 -0.00200000
v -0.00600000 0.01000000 0.00200000
v -0.00200000 0.01000000 0.00200000
v -0.00600000 0.01400000 -0.02200000
v -0.00600000 0.01400000 -0.01800000
v -0.00200000 0.01400000 -0.02200000
v -0.00200000 0.01400000 -0.01800000
v -0.00600000 0.01400000 -0.01400000
v -0.00200000 0.01400000 -0.01400000
v -0.00600000 0.01400000 -0.01000000
v -0.00200000 0.01400000 -0.01000000
v -0.00600000 0.01400000 -0.00600000
v -0.00200000 0.01400000 -0.00600000
v -0.00600000 0.01400000 -0.00200000
v -0.00200000 0.01400000 -0.00200000
v -0.00600000 0.01400000 0.00200000
v -0.00200000 0.01400000 0.00200000
v -0.00600000 0.01800000 -0.02200000
v -0.00600000 0.01800000 -0.01800000
v -0.00200000 0.01800000 -0.02200000
v -0.00200000 0.01800000 -0.01800000
v -0.00600000 0.01800000 -0.00200000
v -0.00600000 0.01800000 0.00200000
v -0.00200000 0.01800000 -0.00200000
v -0.00200000 0.01800000 0.00200000
v 0.00200000 -0.01800000 -0.02200000
v 0.00200000 -0.01800000 -0.01800000
v 0.00200000 -0.01400000 -0.02200000
v 0.00200000 -0.01400000 -0.01800000
v 0.00200000 -0.01800000 -0.01400000
v 0.00200000 -0.01400000 -0.01400000
v 0.00200000 -0.01800000 -0.01000000
v 0.00200000 -0.01400000 -0.01000000
v 0.00200000 -0.01800000 -0.00600000
v 0.00200000 -0.01400000 -0.00600000
v 0.00200000 -0.01800000 -0.00200000
v 0.00200000 -0.01400000 -0.00200000
v 0.00200000 -0.01800000 0.00200000
v 0.00200000 -0.01400000 0.00200000
v 0.00200000 0.01000000 -0.01800000
v 0.00200000 0.01000000 -0.01400000
v 0.00200000 0.01400000 -0.01800000
v 0.00200000 0.01000000 -0.01000000
v 0.00200000 0.01000000 -0.00600000
v 0.00200000 0.01000000 -0.00200000
v 0.00200000 0.01400000 -0.00200000
v 0.00200000 0.01400000 -0.02200000
v 0.00200000 0.01800000 -0.02200000
v 0.00200000 0.01800000 -0.01800000
v -0.00200000 0.01800000 -0.01400000
v 0.00200000 0.01400000 -0.01400000
v 0.00200000 0.01800000 -0.01400000
v -0.00200000 0.01800000 -0.01000000
v 0.00200000 0.01400000 -0.01000000
v 0.00200000 0.01800000 -0.01000000
v -0.00200000 0.01800000 -0.00600000
v 0.00200000 0.01400000 -0.00600000
v 0.00200000 0.01800000 -0.00600000
v 0.00200000 0.01800000 -0.00200000
v 0.00200000 0.01400000 0.00200000
v 0.00200000 0.01800000 0.00200000
v 0.00600000 -0.01800000 -0.01800000
v 0.00600000 -0.01800000 -0.01400000
v 0.00600000 -0.01400000 -0.01800000
v 0.00600000 -0.01400000 -0.01400000
v 0.00600000 -0.01800000 -0.01000000
v 0.00600000 -0.01400000 -0.01000000
v 0.00600000 -0.01800000 -0.00600000
v 0.00600000 -0.01400000 -0.00600000
v 0.00600000 -0.01800000 -0.00200000
v 0.00600000 -0.01400000 -0.00200000
v 0.00600000 -0.01800000 0.00200000
v 0.00600000 -0.01400000 0.00200000
v 0.00200000 -0.01000000 -0.02200000
v 0.00200000 -0.01000000 -0.01800000
v 0.00600000 -0.01400000 -0.02200000
v 0.00600000 -0.01000000 -0.02200000
v 0.00600000 -0.01000000 -0.01800000
v 0.00200000 -0.01000000 -0.01400000
v 0.00600000 -0.01000000 -0.01400000
v 0.00200000 -0.01000000 -0.01000000
v 0.00600000 -0.01000000 -0.01000000
v 0.00200000 -0.01000000 -0.00600000
v 0.00600000 -0.01000000 -0.00600000
v 0.00200000 -0.01000000 -0.00200000
v 0.00600000 -0.01000000 -0.00200000
v 0.00200000 -0.01000000 0.00200000
v 0.00600000 -0.01000000 0.00200000
v 0.00200000 -0.00600000 -0.02200000
v 0.00200000 -0.00600000 -0.01800000
v 0.00600000 -0.00600000 -0.02200000
v 0.00600000 -0.00600000 -0.01800000
v 0.00200000 -0.00600000 -0.01400000
v 0.00600000 -0.00600000 -0.01400000
v 0.00200000 -0.00600000 -0.01000000
v 0.00600000 -0.00600000 -0.01000000
v 0.00200000 -0.00600000 -0.00600000
v 0.00600000 -0.00600000 -0.00600000
v 0.00200000 -0.00600000 -0.00200000
v 0.00600000 -0.00600000 -0.00200000
v 0.00200000 -0.00600000 0.00200000
v 0.00600000 -0.00600000 0.00200000
v 0.00200000 -0.00200000 -0.02200000
v 0.00200000 -0.00200000 -0.01800000
v 0.00600000 -0.00200000 -0.02200000
v 0.00600000 -0.00200000 -0.01800000
v 0.00200000 -0.00200000 -0.01400000
v 0.00600000 -0.00200000 -0.01400000
v 0.00200000 -0.00200000 -0.01000000
v 0.00600000 -0.00200000 -0.01000000
v 0.00200000 -0.00200000 -0.00600000
v 0.00600000 -0.00200000 -0.00600000
v 0.00200000 -0.00200000 -0.00200000
v 0.00600000 -0.00200000 -0.00200000
v 0.00200000 -0.00200000 0.00200000
v 0.00600000 -0.00200000 0.00200000
v 0.00200000 0.00200000 -0.02200000
v 0.00200000 0.00200000 -0.01800000
v 0.00600000 0.00200000 -0.02200000
v 0.00600000 0.00200000 -0.01800000
v 0.00200000 0.00200000 -0.01400000
v 0.00600000 0.00200000 -0.01400000
v 0.00200000 0.00200000 -0.01000000
v 0.00600000 0.00200000 -0.01000000
v 0.00200000 0.00200000 -0.00600000
v 0.00600000 0.00200000 -0.00600000
v 0.00200000 0.00200000 -0.00200000
v 0.00600000 0.00200000 -0.00200000
v 0.00200000 0.00200000 0.00200000
v 0.00600000 0.00200000 0.00200000
v 0.00200000 0.00600000 -0.02200000
v 0.00200000 0.00600000 -0.01800000
v 0.00600000 0.00600000 -0.02200000
v 0.00600000 0.00600000 -0.01800000
v 0.00200000 0.00600000 -0.01400000
v 0.00600000 0.00600000 -0.01400000
v 0.00200000 0.00600000 -0.01000000
v 0.00600000 0.00600000 -0.01000000
v 0.00200000 0.00600000 -0.00600000
v 0.00600000 0.00600000 -0.00600000
v 0.00200000 0.00600000 -0.00200000
v 0.00600000 0.00600000 -0.00200000
v 0.00200000 0.00600000 0.00200000
v 0.00600000 0.00600000 0.00200000
v 0.00200000 0.01000000 -0.02200000
v 0.00600000 0.01000000 -0.02200000
v 0.00600000 0.01000000 -0.01800000
v 0.00600000 0.01000000 -0.01400000
v 0.00600000 0.01000000 -0.01000000
v 0.00600000 0.01000000 -0.00600000
v 0.00600000 0.01000000 -0.00200000
v 0.00200000 0.01000000 0.00200000
v 0.00600000 0.01000000 0.00200000
v 0.00600000 0.01400000 -0.02200000
v 0.00600000 0.01400000 -0.01800000
v 0.00600000 0.01400000 -0.01400000
v 0.00600000 0.01400000 -0.01000000
v 0.00600000 0.01400000 -0.00600000
v 0.00600000 0.01400000 -0.00200000
v 0.00600000 0.01400000 0.00200000
f 2 4 1
f 5 2 1
f 1 4 3
f 3 5 1
f 6 2 5
f 7 5 3
f 8 9 2
f 6 8 2
f 2 9 4
f 10 8 6
f 11 12 8
f 10 11 8
f 8 12 9
f 13 11 10
f 14 15 11
f 13 14 11
f 11 15 12
f 16 14 13
f 17 18 14
f 16 17 14
f 14 18 15
f 19 17 16
f 20 21 17
f 19 20 17
f 17 21 18
f 20 23 21
f 22 20 19
f 22 23 20
f 4 25 3
f 3 25 24
f 24 7 3
f 27 7 24
f 27 26 7
f 28 26 27
f 9 29 4
f 4 29 25
f 28 30 26
f 31 30 28
f 12 32 9
f 9 32 29
f 31 33 30
f 34 33 31
f 15 35 12
f 12 35 32
f 34 36 33
f 37 36 34
f 18 38 15
f 15 38 35
f 37 39 36
f 40 39 37
f 21 41 18
f 18 41 38
f 21 42 41
f 23 42 21
f 40 23 39
f 42 23 40
f 25 44 24
f 24 44 43
f 43 27 24
f 45 27 43
f 45 28 27
f 46 28 45
f 29 47 25
f 25 47 44
f 46 31 28
f 48 31 46
f 32 49 29
f 29 49 47
f 48 34 31
f 50 34 48
f 35 51 32
f 32 51 49
f 50 37 34
f 52 37 50
f 38 53 35
f 35 53 51
f 52 40 37
f 54 40 52
f 41 55 38
f 38 55 53
f 41 56 55
f 42 56 41
f 54 42 40
f 56 42 54
f 44 58 43
f 43 58 57
f 57 45 43
f 59 45 57
f 59 46 45
f 60 46 59
f 47 61 44
f 44 61 58
f 60 48 46
f 62 48 60
f 49 63 47
f 47 63 61
f 62 50 48
f 64 50 62
f 51 65 49
f 49 65 63
f 64 52 50
f 66 52 64
f 53 67 51
f 51 67 65
f 66 54 52
f 68 54 66
f 55 69 53
f 53 69 67
f 55 70 69
f 56 70 55
f 68 56 54
f 70 56 68
f 58 72 57
f 57 72 71
f 71 59 57
f 73 59 71
f 73 60 59
f 74 60 73
f 61 75 58
f 58 75 72
f 74 62 60
f 76 62 74
f 63 77 61
f 61 77 75
f 76 64 62
f 78 64 76
f 65 79 63
f 63 79 77
f 78 66 64
f 80 66 78
f 67 81 65
f 65 81 79
f 80 68 66
f 82 68 80
f 69 83 67
f 67 83 81
f 69 84 83
f 70 84 69
f 82 70 68
f 84 70 82
f 72 86 71
f 71 86 85
f 85 73 71
f 87 73 85
f 87 74 73
f 88 74 87
f 75 89 72
f 72 89 86
f 88 76 74
f 90 76 88
f 77 91 75
f 75 91 89
f 90 78 76
f 92 78 90
f 79 93 77
f 77 93 91
f 92 80 78
f 94 80 92
f 81 95 79
f 79 95 93
f 94 82 80
f 96 82 94
f 83 97 81
f 81 97 95
f 83 98 97
f 84 98 83
f 96 84 82
f 98 84 96
f 86 100 85
f 85 100 99
f 99 87 85
f 101 87 99
f 101 88 87
f 102 88 101
f 89 103 86
f 86 103 100
f 102 90 88
f 104 90 102
f 91 105 89
f 89 105 103
f 104 92 90
f 106 92 104
f 93 107 91
f 91 107 105
f 106 94 92
f 108 94 106
f 95 109 93
f 93 109 107
f 108 96 94
f 110 96 108
f 97 111 95
f 95 111 109
f 97 112 111
f 98 112 97
f 110 98 96
f 112 98 110
f 100 114 99
f 99 114 113
f 113 101 99
f 115 101 113
f 115 102 101
f 116 102 115
f 103 117 100
f 100 117 114
f 117 118 114
f 114 118 116
f 105 119 103
f 103 119 117
f 119 120 117
f 117 120 118
f 107 121 105
f 105 121 119
f 121 122 119
f 119 122 120
f 109 123 107
f 107 123 121
f 123 124 121
f 121 124 122
f 111 125 109
f 109 125 123
f 111 126 125
f 112 126 111
f 124 112 110
f 126 112 124
f 114 128 113
f 113 128 127
f 127 115 113
f 114 130 128
f 116 130 114
f 128 130 127
f 129 115 127
f 127 130 129
f 125 132 123
f 123 132 131
f 131 124 123
f 125 134 132
f 126 134 125
f 132 134 131
f 133 124 131
f 131 134 133
f 135 6 5
f 7 135 5
f 136 6 135
f 26 138 7
f 137 135 7
f 7 138 137
f 137 136 135
f 138 136 137
f 136 10 6
f 139 10 136
f 30 140 26
f 26 140 138
f 139 13 10
f 141 13 139
f 33 142 30
f 30 142 140
f 141 16 13
f 143 16 141
f 36 144 33
f 33 144 142
f 143 19 16
f 145 19 143
f 39 146 36
f 36 146 144
f 145 22 19
f 22 148 23
f 147 22 145
f 147 148 22
f 23 148 39
f 39 148 146
f 149 104 102
f 116 149 102
f 150 104 149
f 151 149 116
f 150 106 104
f 152 106 150
f 152 108 106
f 153 108 152
f 153 110 108
f 110 155 124
f 154 110 153
f 154 155 110
f 156 116 115
f 129 156 115
f 151 116 156
f 130 158 129
f 157 156 129
f 129 158 157
f 157 151 156
f 158 151 157
f 118 159 116
f 116 159 130
f 159 161 130
f 130 161 158
f 158 160 151
f 161 160 158
f 120 162 118
f 118 162 159
f 162 164 159
f 159 164 161
f 161 163 160
f 164 163 161
f 122 165 120
f 120 165 162
f 165 167 162
f 162 167 164
f 164 166 163
f 167 166 164
f 124 133 122
f 122 133 165
f 133 168 165
f 165 168 167
f 167 155 166
f 168 155 167
f 155 126 124
f 126 170 134
f 169 126 155
f 169 170 126
f 134 170 133
f 133 170 168
f 168 169 155
f 170 169 168
f 171 139 136
f 138 171 136
f 172 139 171
f 173 171 138
f 173 172 171
f 174 172 173
f 172 141 139
f 175 141 172
f 174 175 172
f 176 175 174
f 175 143 141
f 177 143 175
f 176 177 175
f 178 177 176
f 177 145 143
f 179 145 177
f 178 179 177
f 180 179 178
f 179 147 145
f 147 182 148
f 181 147 179
f 181 182 147
f 180 181 179
f 182 181 180
f 138 184 137
f 185 138 137
f 137 184 183
f 183 185 137
f 173 138 185
f 186 185 183
f 186 173 185
f 187 173 186
f 140 188 138
f 138 188 184
f 187 174 173
f 189 174 187
f 142 190 140
f 140 190 188
f 189 176 174
f 191 176 189
f 144 192 142
f 142 192 190
f 191 178 176
f 193 178 191
f 146 194 144
f 144 194 192
f 193 180 178
f 195 180 193
f 148 196 146
f 146 196 194
f 148 197 196
f 182 197 148
f 195 182 180
f 197 182 195
f 184 199 183
f 183 199 198
f 198 186 183
f 200 186 198
f 200 187 186
f 201 187 200
f 188 202 184
f 184 202 199
f 201 189 187
f 203 189 201
f 190 204 188
f 188 204 202
f 203 191 189
f 205 191 203
f 192 206 190
f 190 206 204
f 205 193 191
f 207 193 205
f 194 208 192
f 192 208 206
f 207 195 193
f 209 195 207
f 196 210 194
f 194 210 208
f 196 211 210
f 197 211 196
f 209 197 195
f 211 197 209
f 199 213 198
f 198 213 212
f 212 200 198
f 214 200 212
f 214 201 200
f 215 201 214
f 202 216 199
f 199 216 213
f 215 203 201
f 217 203 215
f 204 218 202
f 202 218 216
f 217 205 203
f 219 205 217
f 206 220 204
f 204 220 218
f 219 207 205
f 221 207 219
f 208 222 206
f 206 222 220
f 221 209 207
f 223 209 221
f 210 224 208
f 208 224 222
f 210 225 224
f 211 225 210
f 223 211 209
f 225 211 223
f 213 227 212
f 212 227 226
f 226 214 212
f 228 214 226
f 228 215 214
f 229 215 228
f 216 230 213
f 213 230 227
f 229 217 215
f 231 217 229
f 218 232 216
f 216 232 230
f 231 219 217
f 233 219 231
f 220 234 218
f 218 234 232
f 233 221 219
f 235 221 233
f 222 236 220
f 220 236 234
f 235 223 221
f 237 223 235
f 224 238 222
f 222 238 236
f 224 239 238
f 225 239 224
f 237 225 223
f 239 225 237
f 227 241 226
f 226 241 240
f 240 228 226
f 242 228 240
f 242 229 228
f 243 229 242
f 230 244 227
f 227 244 241
f 243 231 229
f 245 231 243
f 232 246 230
f 230 246 244
f 245 233 231
f 247 233 245
f 234 248 232
f 232 248 246
f 247 235 233
f 249 235 247
f 236 250 234
f 234 250 248
f 249 237 235
f 251 237 249
f 238 252 236
f 236 252 250
f 238 253 252
f 239 253 238
f 251 239 237
f 253 239 251
f 241 149 240
f 240 149 254
f 254 242 240
f 255 242 254
f 255 243 242
f 256 243 255
f 244 150 241
f 241 150 149
f 256 245 243
f 257 245 256
f 246 152 244
f 244 152 150
f 257 247 245
f 258 247 257
f 248 153 246
f 246 153 152
f 258 249 247
f 259 249 258
f 250 154 248
f 248 154 153
f 259 251 249
f 260 251 259
f 252 261 250
f 250 261 154
f 252 262 261
f 253 262 252
f 260 253 251
f 262 253 260
f 149 151 254
f 254 151 156
f 156 255 254
f 151 264 156
f 263 255 156
f 156 264 263
f 263 256 255
f 264 256 263
f 160 265 151
f 151 265 264
f 264 257 256
f 265 257 264
f 163 266 160
f 160 266 265
f 265 258 257
f 266 258 265
f 166 267 163
f 163 267 266
f 266 259 258
f 267 259 266
f 155 268 166
f 166 268 267
f 267 260 259
f 268 260 267
f 261 169 154
f 154 169 155
f 261 269 169
f 262 269 261
f 169 269 155
f 155 269 268
f 268 262 260
f 269 262 268

