<svg xmlns="http://www.w3.org/2000/svg" width="1800" height="900" viewBox="0 0 1800 900">
<rect width="100%" height="100%" fill="#ffffff"/>
<text x="900.00" y="42" text-anchor="middle" font-size="32" fill="#111827">VideoPhy2-PC (↑)</text>
<text x="900.00" y="68" text-anchor="middle" font-size="18" fill="#6b7280">Red point marks the best value under the metric direction.</text>
<line x1="110" y1="610.00" x2="1760" y2="610.00" stroke="#d9dde3" stroke-width="1"/><line x1="110" y1="504.00" x2="1760" y2="504.00" stroke="#d9dde3" stroke-width="1"/><line x1="110" y1="398.00" x2="1760" y2="398.00" stroke="#d9dde3" stroke-width="1"/><line x1="110" y1="292.00" x2="1760" y2="292.00" stroke="#d9dde3" stroke-width="1"/><line x1="110" y1="186.00" x2="1760" y2="186.00" stroke="#d9dde3" stroke-width="1"/><line x1="110" y1="80.00" x2="1760" y2="80.00" stroke="#d9dde3" stroke-width="1"/>
<line x1="110" y1="80" x2="110" y2="610" stroke="#4b5563" stroke-width="2"/>
<line x1="110" y1="610" x2="1760" y2="610" stroke="#4b5563" stroke-width="2"/>
<text x="98" y="615.00" text-anchor="end" font-size="20" fill="#384152">3.5106</text><text x="98" y="509.00" text-anchor="end" font-size="20" fill="#384152">3.5652</text><text x="98" y="403.00" text-anchor="end" font-size="20" fill="#384152">3.6198</text><text x="98" y="297.00" text-anchor="end" font-size="20" fill="#384152">3.6744</text><text x="98" y="191.00" text-anchor="end" font-size="20" fill="#384152">3.7289</text><text x="98" y="85.00" text-anchor="end" font-size="20" fill="#384152">3.7835</text>
<line x1="110.00" y1="610" x2="110.00" y2="618" stroke="#4b5563" stroke-width="1.2"/><line x1="220.00" y1="610" x2="220.00" y2="618" stroke="#4b5563" stroke-width="1.2"/><line x1="330.00" y1="610" x2="330.00" y2="618" stroke="#4b5563" stroke-width="1.2"/><line x1="440.00" y1="610" x2="440.00" y2="618" stroke="#4b5563" stroke-width="1.2"/><line x1="550.00" y1="610" x2="550.00" y2="618" stroke="#4b5563" stroke-width="1.2"/><line x1="660.00" y1="610" x2="660.00" y2="618" stroke="#4b5563" stroke-width="1.2"/><line x1="770.00" y1="610" x2="770.00" y2="618" stroke="#4b5563" stroke-width="1.2"/><line x1="880.00" y1="610" x2="880.00" y2="618" stroke="#4b5563" stroke-width="1.2"/><line x1="990.00" y1="610" x2="990.00" y2="618" stroke="#4b5563" stroke-width="1.2"/><line x1="1100.00" y1="610" x2="1100.00" y2="618" stroke="#4b5563" stroke-width="1.2"/><line x1="1210.00" y1="610" x2="1210.00" y2="618" stroke="#4b5563" stroke-width="1.2"/><line x1="1320.00" y1="610" x2="1320.00" y2="618" stroke="#4b5563" stroke-width="1.2"/><line x1="1430.00" y1="610" x2="1430.00" y2="618" stroke="#4b5563" stroke-width="1.2"/><line x1="1540.00" y1="610" x2="1540.00" y2="618" stroke="#4b5563" stroke-width="1.2"/><line x1="1650.00" y1="610" x2="1650.00" y2="618" stroke="#4b5563" stroke-width="1.2"/><line x1="1760.00" y1="610" x2="1760.00" y2="618" stroke="#4b5563" stroke-width="1.2"/>
<polyline fill="none" stroke="#1565c0" stroke-width="3" points="110.00,573.45 220.00,573.45 330.00,459.22 440.00,345.00 550.00,345.00 660.00,459.22 770.00,116.55 880.00,459.22 990.00,230.78 1100.00,345.00 1210.00,230.78 1320.00,230.78 1430.00,573.45 1540.00,116.55 1650.00,345.00 1760.00,345.00"/>
<circle cx="110.00" cy="573.45" r="5" fill="#1565c0" /><circle cx="220.00" cy="573.45" r="5" fill="#1565c0" /><circle cx="330.00" cy="459.22" r="5" fill="#1565c0" /><circle cx="440.00" cy="345.00" r="5" fill="#1565c0" /><circle cx="550.00" cy="345.00" r="5" fill="#1565c0" /><circle cx="660.00" cy="459.22" r="5" fill="#1565c0" /><circle cx="770.00" cy="116.55" r="7" fill="#c62828" /><circle cx="880.00" cy="459.22" r="5" fill="#1565c0" /><circle cx="990.00" cy="230.78" r="5" fill="#1565c0" /><circle cx="1100.00" cy="345.00" r="5" fill="#1565c0" /><circle cx="1210.00" cy="230.78" r="5" fill="#1565c0" /><circle cx="1320.00" cy="230.78" r="5" fill="#1565c0" /><circle cx="1430.00" cy="573.45" r="5" fill="#1565c0" /><circle cx="1540.00" cy="116.55" r="5" fill="#1565c0" /><circle cx="1650.00" cy="345.00" r="5" fill="#1565c0" /><circle cx="1760.00" cy="345.00" r="5" fill="#1565c0" />
<text x="110.00" y="561.45" text-anchor="middle" font-size="16" fill="#1f2937">3.5294</text><text x="220.00" y="561.45" text-anchor="middle" font-size="16" fill="#1f2937">3.5294</text><text x="330.00" y="447.22" text-anchor="middle" font-size="16" fill="#1f2937">3.5882</text><text x="440.00" y="333.00" text-anchor="middle" font-size="16" fill="#1f2937">3.6471</text><text x="550.00" y="333.00" text-anchor="middle" font-size="16" fill="#1f2937">3.6471</text><text x="660.00" y="447.22" text-anchor="middle" font-size="16" fill="#1f2937">3.5882</text><text x="770.00" y="104.55" text-anchor="middle" font-size="16" fill="#1f2937">3.7647</text><text x="880.00" y="447.22" text-anchor="middle" font-size="16" fill="#1f2937">3.5882</text><text x="990.00" y="218.78" text-anchor="middle" font-size="16" fill="#1f2937">3.7059</text><text x="1100.00" y="333.00" text-anchor="middle" font-size="16" fill="#1f2937">3.6471</text><text x="1210.00" y="218.78" text-anchor="middle" font-size="16" fill="#1f2937">3.7059</text><text x="1320.00" y="218.78" text-anchor="middle" font-size="16" fill="#1f2937">3.7059</text><text x="1430.00" y="561.45" text-anchor="middle" font-size="16" fill="#1f2937">3.5294</text><text x="1540.00" y="104.55" text-anchor="middle" font-size="16" fill="#1f2937">3.7647</text><text x="1650.00" y="333.00" text-anchor="middle" font-size="16" fill="#1f2937">3.6471</text><text x="1760.00" y="333.00" text-anchor="middle" font-size="16" fill="#1f2937">3.6471</text>
<text transform="translate(110.00,638.00) rotate(45)" text-anchor="start" font-size="18" fill="#111827">wan2p2_base</text><text transform="translate(220.00,638.00) rotate(45)" text-anchor="start" font-size="18" fill="#111827">openvid_lora_10000</text><text transform="translate(330.00,638.00) rotate(45)" text-anchor="start" font-size="18" fill="#111827">0613pybullet_lora_000500</text><text transform="translate(440.00,638.00) rotate(45)" text-anchor="start" font-size="18" fill="#111827">step-001000</text><text transform="translate(550.00,638.00) rotate(45)" text-anchor="start" font-size="18" fill="#111827">step-001500</text><text transform="translate(660.00,638.00) rotate(45)" text-anchor="start" font-size="18" fill="#111827">step-002000</text><text transform="translate(770.00,638.00) rotate(45)" text-anchor="start" font-size="18" fill="#111827">step-002500</text><text transform="translate(880.00,638.00) rotate(45)" text-anchor="start" font-size="18" fill="#111827">step-003000</text><text transform="translate(990.00,638.00) rotate(45)" text-anchor="start" font-size="18" fill="#111827">step-003500</text><text transform="translate(1100.00,638.00) rotate(45)" text-anchor="start" font-size="18" fill="#111827">step-004000</text><text transform="translate(1210.00,638.00) rotate(45)" text-anchor="start" font-size="18" fill="#111827">step-004500</text><text transform="translate(1320.00,638.00) rotate(45)" text-anchor="start" font-size="18" fill="#111827">step-005000</text><text transform="translate(1430.00,638.00) rotate(45)" text-anchor="start" font-size="18" fill="#111827">step-005500</text><text transform="translate(1540.00,638.00) rotate(45)" text-anchor="start" font-size="18" fill="#111827">step-006000</text><text transform="translate(1650.00,638.00) rotate(45)" text-anchor="start" font-size="18" fill="#111827">step-006500</text><text transform="translate(1760.00,638.00) rotate(45)" text-anchor="start" font-size="18" fill="#111827">step-007000</text>
</svg>
