# https://github.com/mikedh/trimesh
v 0.01415313 -0.00112661 -0.07097512
v 0.04282419 0.00789700 -0.06817571
v 0.01396255 0.00257460 -0.07097512
v 0.04340921 -0.00345596 -0.06817571
v 0.03932122 0.01871142 -0.06817571
v 0.04103541 -0.01457337 -0.06817571
v 0.08621117 0.01589771 -0.06138897
v 0.01282010 0.00610055 -0.07097512
v 0.07915926 0.03766912 -0.06138897
v 0.01337906 -0.00475169 -0.07097512
v 0.08261011 -0.02933783 -0.06138897
v 0.08738836 -0.00695688 -0.06138897
v 0.03313841 0.02825107 -0.06817571
v 0.06671240 0.05687359 -0.06138897
v 0.03586527 -0.02469753 -0.06817571
v 0.07220187 -0.04971950 -0.06138897
v 0.12926349 0.02383660 -0.05206341
v 0.11868971 0.05648069 -0.05206341
v 0.01080447 0.00921112 -0.07097512
v 0.10002682 0.08527488 -0.05206341
v 0.01169349 -0.00805232 -0.07097512
v 0.12386394 -0.04398835 -0.05206341
v 0.10825848 -0.07454782 -0.05206341
v 0.13102825 -0.01043123 -0.05206341
v 0.02469727 0.03586552 -0.06817571
v 0.04971924 0.07220213 -0.06138897
v 0.07454808 0.10825823 -0.05206341
v 0.02825133 -0.03313867 -0.06817571
v 0.05687334 -0.06671214 -0.06138897
v 0.08527514 -0.10002708 -0.05206341
v 0.17187641 0.03169477 -0.04022200
v 0.15781652 0.07509963 -0.04022200
v 0.13300199 0.11338647 -0.04022200
v 0.00805206 0.01169324 -0.07097512
v 0.09912298 0.14394645 -0.04022200
v 0.00921086 -0.01080472 -0.07097512
v 0.16469676 -0.05848968 -0.04022200
v 0.14394620 -0.09912324 -0.04022200
v 0.11338673 -0.13300174 -0.04022200
v 0.17422312 -0.01387032 -0.04022200
v 0.01457311 0.04103566 -0.06817571
v 0.02933757 0.08260985 -0.06138897
v 0.04398861 0.12386419 -0.05206341
v 0.05848942 0.16469651 -0.04022200
v 0.01871168 -0.03932148 -0.06817571
v 0.03766886 -0.07915900 -0.06138897
v 0.05648043 -0.11868997 -0.05206341
v 0.07509938 -0.15781678 -0.04022200
v 0.21394518 0.03945228 -0.02589286
v 0.19644415 0.09348150 -0.02589286
v 0.16555564 0.14113938 -0.02589286
v 0.12338519 0.17917944 -0.02589286
v 0.00475143 0.01337932 -0.07097512
v 0.07280579 0.20500817 -0.02589286
v 0.00610081 -0.01282036 -0.07097512
v 0.20500843 -0.07280605 -0.02589286
v 0.17917918 -0.12338494 -0.02589286
v 0.14113964 -0.16555590 -0.02589286
v 0.09348125 -0.19644441 -0.02589286
v 0.21686619 -0.01726497 -0.02589286
v 0.00345570 0.04340895 -0.06817571
v 0.00695713 0.08738811 -0.06138897
v 0.01043097 0.13102851 -0.05206341
v 0.01387007 0.17422287 -0.04022200
v 0.01726471 0.21686644 -0.02589286
v 0.00789674 -0.04282444 -0.06817571
v 0.01589797 -0.08621142 -0.06138897
v 0.02383686 -0.12926374 -0.05206341
v 0.03169451 -0.17187615 -0.04022200
v 0.03945253 -0.21394543 -0.02589286
v 0.25536813 0.04709125 -0.00911123
v 0.23447859 0.11158083 -0.00911123
v 0.19760960 0.16846618 -0.00911123
v 0.14727391 0.21387084 -0.00911123
v 0.08690195 0.24470110 -0.00911123
v 0.00112686 0.01415287 -0.07097512
v 0.02060776 0.25885500 -0.00911123
v 0.00257434 -0.01396229 -0.07097512
v 0.24470085 -0.08690221 -0.00911123
v 0.21387109 -0.14727417 -0.00911123
v 0.16846643 -0.19760985 -0.00911123
v 0.11158057 -0.23447885 -0.00911123
v 0.04709100 -0.25536838 -0.00911123
v 0.25885474 -0.02060750 -0.00911123
v -0.00257485 0.01396229 -0.07097512
v -0.00789725 0.04282444 -0.06817571
v -0.01589797 0.08621142 -0.06138897
v -0.02383686 0.12926374 -0.05206341
v -0.03169502 0.17187615 -0.04022200
v -0.03945253 0.21394543 -0.02589286
v -0.00112686 -0.01415338 -0.07097512
v -0.00345570 -0.04340895 -0.06817571
v -0.00695713 -0.08738862 -0.06138897
v -0.01043148 -0.13102851 -0.05206341
v -0.01387007 -0.17422287 -0.04022200
v -0.01726523 -0.21686644 -0.02589286
v 0.29604409 0.05459176 0.01008149
v 0.27182684 0.12935367 0.01008149
v 0.22908568 0.19529992 0.01008149
v 0.17073242 0.24793685 0.01008149
v 0.10074366 0.28367770 0.01008149
v 0.02389000 0.30008584 0.01008149
v -0.04709100 0.25536838 -0.00911123
v 0.28367745 -0.10074392 0.01008149
v 0.24793710 -0.17073268 0.01008149
v 0.19529966 -0.22908594 0.01008149
v 0.12935341 -0.27182710 0.01008149
v 0.05459202 -0.29604384 0.01008149
v -0.02060776 -0.25885500 -0.00911123
v 0.30008609 -0.02389025 0.01008149
v -0.00610081 0.01282036 -0.07097512
v -0.01871168 0.03932097 -0.06817571
v -0.03766937 0.07915900 -0.06138897
v -0.05648043 0.11868945 -0.05206341
v -0.07509989 0.15781627 -0.04022200
v -0.09348125 0.19644441 -0.02589286
v -0.00475143 -0.01337932 -0.07097512
v -0.01457311 -0.04103566 -0.06817571
v -0.02933809 -0.08261036 -0.06138897
v -0.04398861 -0.12386419 -0.05206341
v -0.05848993 -0.16469651 -0.04022200
v -0.07280579 -0.20500869 -0.02589286
v 0.33587344 0.06193644 0.03163933
v 0.30839848 0.14675659 0.03163933
v 0.25990624 0.22157521 0.03163933
v 0.19370248 0.28129420 0.03163933
v 0.11429772 0.32184294 0.03163933
v 0.02710428 0.34045882 0.03163933
v -0.05459202 0.29604384 0.01008149
v -0.11158057 0.23447885 -0.00911123
v 0.32184319 -0.11429798 0.03163933
v 0.28129394 -0.19370274 0.03163933
v 0.22157546 -0.25990650 0.03163933
v 0.14675634 -0.30839822 0.03163933
v 0.06193670 -0.33587319 0.03163933
v -0.02389000 -0.30008584 0.01008149
v -0.08690195 -0.24470110 -0.00911123
v 0.34045907 -0.02710403 0.03163933
v -0.00921086 0.01080421 -0.07097512
v -0.02825133 0.03313867 -0.06817571
v -0.05687385 0.06671214 -0.06138897
v -0.08527514 0.10002708 -0.05206341
v -0.11338673 0.13300174 -0.04022200
v -0.14113964 0.16555590 -0.02589286
v -0.00805258 -0.01169375 -0.07097512
v -0.02469727 -0.03586552 -0.06817571
v -0.04971924 -0.07220213 -0.06138897
v -0.07454808 -0.10825823 -0.05206341
v -0.09912349 -0.14394645 -0.04022200
v -0.12338519 -0.17917944 -0.02589286
v 0.37475909 0.06910740 0.05550863
v 0.34410306 0.16374719 0.05550863
v 0.28999719 0.24722818 0.05550863
v 0.21612840 0.31386113 0.05550863
v 0.12753091 0.35910433 0.05550863
v 0.03024193 0.37987584 0.05550863
v -0.06193670 0.33587319 0.03163933
v -0.12935392 0.27182710 0.01008149
v -0.16846643 0.19760985 -0.00911123
v 0.35910459 -0.12753066 0.05550863
v 0.31386087 -0.21612865 0.05550863
v 0.24722793 -0.28999745 0.05550863
v 0.16374745 -0.34410331 0.05550863
v 0.06910714 -0.37475935 0.05550863
v -0.02710428 -0.34045933 0.03163933
v -0.10074418 -0.28367770 0.01008149
v -0.14727442 -0.21387135 -0.00911123
v 0.37987559 -0.03024218 0.05550863
v -0.01169349 0.00805232 -0.07097512
v -0.03586527 0.02469753 -0.06817571
v -0.07220238 0.04971899 -0.06138897
v -0.10825848 0.07454782 -0.05206341
v -0.14394671 0.09912324 -0.04022200
v -0.17917970 0.12338494 -0.02589286
v -0.01080447 -0.00921112 -0.07097512
v -0.03313841 -0.02825107 -0.06817571
v -0.06671240 -0.05687359 -0.06138897
v -0.10002733 -0.08527539 -0.05206341
v -0.13300199 -0.11338647 -0.04022200
v -0.16555615 -0.14113989 -0.02589286
v 0.41260653 0.07608676 0.08163218
v 0.37885474 0.18028459 0.08163218
v 0.31928444 0.27219599 0.08163218
v 0.23795550 0.34555794 0.08163218
v 0.14041002 0.39537094 0.08163218
v 0.03329629 0.41823983 0.08163218
v -0.06910765 0.37475884 0.05550863
v -0.14675685 0.30839822 0.03163933
v -0.19530017 0.22908543 0.01008149
v -0.21387109 0.14727417 -0.00911123
v 0.39537068 -0.14041028 0.08163218
v 0.34555820 -0.23795575 0.08163218
v 0.27219625 -0.31928469 0.08163218
v 0.18028433 -0.37885449 0.08163218
v 0.07608650 -0.41260627 0.08163218
v -0.03024244 -0.37987584 0.05550863
v -0.11429823 -0.32184345 0.03163933
v -0.17073242 -0.24793685 0.01008149
v -0.19761011 -0.16846618 -0.00911123
v 0.41823958 -0.03329655 0.08163218
v -0.01337906 0.00475118 -0.07097512
v -0.04103541 0.01457286 -0.06817571
v -0.08261011 0.02933783 -0.06138897
v -0.12386394 0.04398835 -0.05206341
v -0.16469676 0.05848968 -0.04022200
v -0.20500843 0.07280554 -0.02589286
v -0.01282061 -0.00610106 -0.07097512
v -0.03932122 -0.01871194 -0.06817571
v -0.07915926 -0.03766912 -0.06138897
v -0.11868971 -0.05648069 -0.05206341
v -0.15781652 -0.07509963 -0.04022200
v -0.19644415 -0.09348150 -0.02589286
v 0.44932327 0.08285714 0.10994610
v 0.41256770 0.19632741 0.10994610
v 0.34769645 0.29641784 0.10994610
v 0.25913013 0.37630850 0.10994610
v 0.15290492 0.43055385 0.10994610
v 0.03625920 0.45545780 0.10994610
v -0.07608650 0.41260627 0.08163218
v -0.16374745 0.34410331 0.05550863
v -0.22157546 0.25990650 0.03163933
v -0.24793710 0.17073217 0.01008149
v -0.24470136 0.08690221 -0.00911123
v 0.43055411 -0.15290517 0.10994610
v 0.37630825 -0.25913039 0.10994610
v 0.29641810 -0.34769671 0.10994610
v 0.19632715 -0.41256795 0.10994610
v 0.08285740 -0.44932301 0.10994610
v -0.03329629 -0.41823983 0.08163218
v -0.12753091 -0.35910484 0.05550863
v -0.19370248 -0.28129420 0.03163933
v -0.22908568 -0.19529992 0.01008149
v -0.23447910 -0.11158083 -0.00911123
v 0.45545754 -0.03625945 0.10994610
v 0.43305513 0.20607654 0.12715231
v 0.36496296 0.31113785 0.12715231
v 0.27199852 0.39499540 0.12715231
v 0.16049791 0.45193491 0.12715231
v 0.03805973 0.47807531 0.12715231
v -0.01415313 0.00112661 -0.07097512
v -0.04340921 0.00345596 -0.06817571
v -0.08738836 0.00695688 -0.06138897
v -0.13102877 0.01043123 -0.05206341
v -0.17422312 0.01386981 -0.04022200
v -0.21686670 0.01726497 -0.02589286
v -0.01396255 -0.00257460 -0.07097512
v -0.04282470 -0.00789700 -0.06817571
v -0.08621168 -0.01589771 -0.06138897
v -0.12926349 -0.02383711 -0.05206341
v -0.17187641 -0.03169477 -0.04022200
v 0.45193465 -0.16049816 0.12715231
v 0.39499566 -0.27199877 0.12715231
v 0.31113759 -0.36496270 0.12715231
v 0.20607679 -0.43305539 0.12715231
v 0.08697195 -0.47163601 0.12715231
v -0.21394569 -0.03945279 -0.02589286
v 0.47163576 0.08697169 0.12715231
v -0.18028433 0.37885449 0.08163218
v -0.24722844 0.28999693 0.05550863
v -0.28129445 0.19370223 0.03163933
v -0.28367796 0.10074392 0.01008149
v -0.25885525 0.02060750 -0.00911123
v -0.14041054 -0.39537094 0.08163218
v -0.03625920 -0.45545780 0.10994610
v -0.21612840 -0.31386113 0.05550863
v -0.25990675 -0.22157521 0.03163933
v -0.27182736 -0.12935367 0.01008149
v -0.25536864 -0.04709125 -0.00911123
v 0.47807557 -0.03805998 0.12715231
v 0.45291513 0.21552728 0.12715231
v 0.38169962 0.32540670 0.12715231
v 0.28447246 0.41310954 0.12715231
v 0.16785842 0.47266043 0.12715231
v 0.03980559 0.50000000 0.12715231
v -0.08285740 0.44932301 0.10994610
v -0.08697195 0.47163601 0.12715231
v 0.41310980 -0.28447221 0.12715231
v 0.32540645 -0.38169988 0.12715231
v 0.21552754 -0.45291539 0.12715231
v 0.09096030 -0.49326538 0.12715231
v -0.03806024 -0.47807531 0.12715231
v 0.49326512 0.09096056 0.12715231
v -0.19632766 0.41256795 0.10994610
v -0.27219625 0.31928418 0.08163218
v -0.31386087 0.21612814 0.05550863
v -0.32184319 0.11429798 0.03163933
v -0.30008609 0.02389025 0.01008149
v -0.29604409 -0.05459176 0.01008149
v 0.47266018 -0.16785868 0.12715231
v -0.23795550 -0.34555845 0.08163218
v -0.28999719 -0.24722818 0.05550863
v -0.30839848 -0.14675659 0.03163933
v 0.49999974 -0.03980533 0.12715231
v 0.41980866 0.19977315 0.09623774
v 0.45720902 0.08431126 0.09623774
v 0.35379905 0.30162068 0.09623774
v 0.26367847 0.38291283 0.09623774
v 0.15558834 0.43811057 0.09623774
v -0.09096030 0.49326487 0.12715231
v -0.20607679 0.43305539 0.12715231
v 0.38291309 -0.26367872 0.09623774
v 0.43811031 -0.15558860 0.09623774
v 0.30162043 -0.35379879 0.09623774
v 0.19977289 -0.41980891 0.09623774
v -0.03980559 -0.50000000 0.12715231
v -0.15290492 -0.43055385 0.10994610
v 0.46345161 -0.03689557 0.09623774
v 0.03689582 0.46345136 0.09623774
v -0.08431152 0.45720928 0.09623774
v -0.29641810 0.34769671 0.10994610
v -0.34555820 0.23795524 0.08163218
v -0.35910459 0.12753066 0.05550863
v -0.34045907 0.02710403 0.03163933
v -0.33587344 -0.06193695 0.03163933
v 0.08431152 -0.45720928 0.09623774
v -0.16049842 -0.45193491 0.12715231
v -0.03689582 -0.46345187 0.09623774
v -0.31928444 -0.27219599 0.08163218
v -0.34410306 -0.16374719 0.05550863
v 0.38556382 0.18347742 0.06747777
v 0.41991391 0.07743409 0.06747777
v 0.42564710 -0.03388616 0.06747777
v 0.32493894 0.27701666 0.06747777
v 0.24216968 0.35167791 0.06747777
v 0.14289674 0.40237278 0.06747777
v -0.21552754 0.45291539 0.12715231
v -0.19977340 0.41980840 0.09623774
v -0.31113811 0.36496270 0.12715231
v 0.35167816 -0.24216994 0.06747777
v 0.40237303 -0.14289700 0.06747777
v 0.27701640 -0.32493920 0.06747777
v 0.18347716 -0.38556407 0.06747777
v -0.16785842 -0.47266043 0.12715231
v -0.15558885 -0.43811057 0.09623774
v -0.27199852 -0.39499540 0.12715231
v -0.25913065 -0.37630850 0.10994610
v 0.03388591 0.42564684 0.06747777
v -0.07743434 0.41991365 0.06747777
v -0.18347716 0.38556407 0.06747777
v -0.37630825 0.25913039 0.10994610
v -0.39537119 0.14041028 0.08163218
v -0.37987610 0.03024218 0.05550863
v -0.37475909 -0.06910740 0.05550863
v -0.03388642 -0.42564684 0.06747777
v 0.07743383 -0.41991365 0.06747777
v -0.14289725 -0.40237329 0.06747777
v -0.37885474 -0.18028459 0.08163218
v -0.34769697 -0.29641835 0.10994610
v 0.35026492 0.16667944 0.04094242
v 0.38146970 0.07034488 0.04094242
v 0.38667816 -0.03078377 0.04094242
v 0.29519032 0.25165543 0.04094242
v 0.21999872 0.31948140 0.04094242
v 0.12981428 0.36553495 0.04094242
v -0.32540696 0.38169988 0.12715231
v -0.30162043 0.35379879 0.09623774
v -0.27701691 0.32493869 0.06747777
v -0.39499566 0.27199877 0.12715231
v 0.31948115 -0.21999847 0.04094242
v 0.36553469 -0.12981453 0.04094242
v 0.25165517 -0.29519007 0.04094242
v 0.16667970 -0.35026517 0.04094242
v -0.28447246 -0.41311006 0.12715231
v -0.26367847 -0.38291283 0.09623774
v -0.24216968 -0.35167791 0.06747777
v -0.36496296 -0.31113785 0.12715231
v 0.03078352 0.38667791 0.04094242
v -0.07034514 0.38146996 0.04094242
v -0.16667970 0.35026517 0.04094242
v -0.25165568 0.29519007 0.04094242
v -0.43055411 0.15290517 0.10994610
v -0.41824009 0.03329655 0.08163218
v -0.41260653 -0.07608676 0.08163218
v -0.03078403 -0.38667842 0.04094242
v -0.12981479 -0.36553495 0.04094242
v 0.07034462 -0.38146996 0.04094242
v -0.21999872 -0.31948140 0.04094242
v 0.31399729 0.14942111 0.01669656
v 0.34197093 0.06306101 0.01669656
v 0.34664035 -0.02759657 0.01669656
v 0.26462523 0.22559830 0.01669656
v 0.19721924 0.28640098 0.01669656
v 0.11637314 0.32768649 0.01669656
v -0.41310980 0.28447221 0.12715231
v -0.38291309 0.26367821 0.09623774
v -0.35167816 0.24216943 0.06747777
v -0.31948115 0.21999847 0.04094242
v -0.45193465 0.16049816 0.12715231
v 0.28640073 -0.19721950 0.01669656
v 0.32768624 -0.11637288 0.01669656
v 0.22559805 -0.26462549 0.01669656
v 0.14942086 -0.31399755 0.01669656
v -0.38170013 -0.32540670 0.12715231
v -0.35379905 -0.30162068 0.09623774
v -0.32493894 -0.27701666 0.06747777
v -0.29519032 -0.25165543 0.04094242
v -0.41256770 -0.19632741 0.10994610
v 0.02759631 0.34664010 0.01669656
v -0.06306126 0.34197118 0.01669656
v -0.14942137 0.31399755 0.01669656
v -0.22559805 0.26462497 0.01669656
v -0.28640124 0.19721899 0.01669656
v -0.44932327 -0.08285714 0.10994610
v -0.02759631 -0.34664010 0.01669656
v -0.11637314 -0.32768649 0.01669656
v -0.19721924 -0.28640098 0.01669656
v 0.06306126 -0.34197118 0.01669656
v -0.43305564 -0.20607705 0.12715231
v -0.26462523 -0.22559830 0.01669656
v 0.27684984 0.13174382 -0.00520054
v 0.30151415 0.05560035 -0.00520054
v 0.30563075 -0.02433170 -0.00520054
v 0.23331877 0.19890865 -0.00520054
v 0.17388693 0.25251839 -0.00520054
v 0.10260551 0.28891937 -0.00520054
v -0.47266018 0.16785868 0.12715231
v -0.43811082 0.15558860 0.09623774
v -0.40237303 0.14289700 0.06747777
v -0.36553520 0.12981453 0.04094242
v -0.32768624 0.11637288 0.01669656
v -0.45545805 0.03625945 0.10994610
v 0.25251814 -0.17388719 -0.00520054
v 0.28891912 -0.10260576 -0.00520054
v 0.19890839 -0.23331852 -0.00520054
v 0.13174356 -0.27684958 -0.00520054
v -0.45291513 -0.21552728 0.12715231
v -0.41980866 -0.19977315 0.09623774
v -0.38556433 -0.18347742 0.06747777
v -0.35026492 -0.16667944 0.04094242
v -0.31399729 -0.14942111 0.01669656
v 0.02433144 0.30563049 -0.00520054
v -0.05560060 0.30151390 -0.00520054
v -0.13174356 0.27684958 -0.00520054
v -0.19890890 0.23331852 -0.00520054
v -0.25251814 0.17388719 -0.00520054
v -0.47807557 0.03805998 0.12715231
v -0.28891912 0.10260525 -0.00520054
v -0.47163627 -0.08697221 0.12715231
v -0.02433144 -0.30563100 -0.00520054
v -0.10260551 -0.28891937 -0.00520054
v -0.17388693 -0.25251839 -0.00520054
v -0.23331877 -0.19890865 -0.00520054
v 0.05560060 -0.30151441 -0.00520054
v -0.27684984 -0.13174382 -0.00520054
v 0.23891248 0.11369048 -0.02469625
v 0.26019697 0.04798181 -0.02469625
v 0.26375000 -0.02099734 -0.02469625
v 0.20134657 0.17165185 -0.02469625
v 0.15005901 0.21791539 -0.02469625
v 0.08854512 0.24932812 -0.02469625
v -0.49326512 -0.09096056 0.12715231
v -0.46345161 0.03689557 0.09623774
v -0.42564710 0.03388616 0.06747777
v -0.38667816 0.03078377 0.04094242
v -0.34664035 0.02759606 0.01669656
v -0.30563075 0.02433170 -0.00520054
v 0.21791513 -0.15005927 -0.02469625
v 0.24932838 -0.08854537 -0.02469625
v 0.17165211 -0.20134682 -0.02469625
v 0.11369073 -0.23891273 -0.02469625
v -0.45720953 -0.08431177 0.09623774
v -0.41991391 -0.07743409 0.06747777
v -0.38147021 -0.07034488 0.04094242
v -0.34197144 -0.06306101 0.01669656
v -0.30151415 -0.05560086 -0.00520054
v 0.02099709 0.26374974 -0.02469625
v -0.04798156 0.26019722 -0.02469625
v -0.11369073 0.23891273 -0.02469625
v -0.17165211 0.20134682 -0.02469625
v -0.21791564 0.15005927 -0.02469625
v -0.24932838 0.08854537 -0.02469625
v -0.49999974 0.03980533 0.12715231
v -0.26375000 0.02099734 -0.02469625
v -0.02099760 -0.26374974 -0.02469625
v -0.08854563 -0.24932812 -0.02469625
v -0.15005901 -0.21791539 -0.02469625
v -0.20134657 -0.17165185 -0.02469625
v -0.23891299 -0.11369099 -0.02469625
v 0.04798156 -0.26019722 -0.02469625
v -0.26019748 -0.04798181 -0.02469625
v 0.20027871 0.09530605 -0.04174203
v 0.21812155 0.04022277 -0.04174203
v 0.22109927 -0.01760219 -0.04174203
v 0.16878730 0.14389434 -0.04174203
v 0.12579323 0.18267678 -0.04174203
v 0.07422670 0.20900981 -0.04174203
v 0.18267704 -0.12579348 -0.04174203
v 0.20901007 -0.07422696 -0.04174203
v 0.14389459 -0.16878755 -0.04174203
v 0.09530579 -0.20027897 -0.04174203
v 0.01760193 0.22109953 -0.04174203
v -0.04022251 0.21812130 -0.04174203
v -0.09530630 0.20027897 -0.04174203
v -0.14389459 0.16878755 -0.04174203
v -0.18267704 0.12579348 -0.04174203
v -0.20901007 0.07422696 -0.04174203
v -0.22109979 0.01760168 -0.04174203
v -0.01760193 -0.22109953 -0.04174203
v -0.07422721 -0.20901032 -0.04174203
v -0.12579374 -0.18267678 -0.04174203
v -0.16878730 -0.14389485 -0.04174203
v -0.20027871 -0.09530605 -0.04174203
v -0.21812155 -0.04022277 -0.04174203
v 0.04022251 -0.21812130 -0.04174203
v 0.16104205 0.07663448 -0.05629701
v 0.17538908 0.03234263 -0.05629701
v 0.17778382 -0.01415338 -0.05629701
v 0.13572016 0.11570407 -0.05629701
v 0.10114935 0.14688841 -0.05629701
v 0.05968501 0.16806305 -0.05629701
v 0.14688867 -0.10114909 -0.05629701
v 0.16806279 -0.05968526 -0.05629701
v 0.11570381 -0.13572042 -0.05629701
v 0.07663473 -0.16104231 -0.05629701
v 0.01415364 0.17778408 -0.05629701
v -0.03234289 0.17538933 -0.05629701
v -0.07663473 0.16104231 -0.05629701
v -0.11570432 0.13572042 -0.05629701
v -0.14688867 0.10114909 -0.05629701
v -0.16806279 0.05968526 -0.05629701
v -0.17778382 0.01415338 -0.05629701
v -0.01415364 -0.17778408 -0.05629701
v -0.05968501 -0.16806305 -0.05629701
v -0.10114935 -0.14688892 -0.05629701
v -0.13572016 -0.11570407 -0.05629701
v -0.16104205 -0.07663448 -0.05629701
v -0.17538959 -0.03234263 -0.05629701
v 0.03234238 -0.17538933 -0.05629701
v 0.12171699 0.05792101 -0.06819870
v 0.13256055 0.02444461 -0.06819870
v 0.13437027 -0.01069742 -0.06819870
v 0.10257843 0.08744993 -0.06819870
v 0.07644926 0.11101982 -0.06819870
v 0.04511062 0.12702330 -0.06819870
v 0.11101957 -0.07644952 -0.06819870
v 0.12702355 -0.04511036 -0.06819870
v 0.08745018 -0.10257868 -0.06819870
v 0.05792127 -0.12171725 -0.06819870
v 0.13381949 -0.00000000 -0.06819870
v 0.01069717 0.13437053 -0.06819870
v -0.02444487 0.13256080 -0.06819870
v -0.05792127 0.12171725 -0.06819870
v -0.08745018 0.10257868 -0.06819870
v -0.11102008 0.07644952 -0.06819870
v -0.12702355 0.04511036 -0.06819870
v -0.13437078 0.01069742 -0.06819870
v -0.01069768 -0.13437053 -0.06819870
v -0.04511062 -0.12702330 -0.06819870
v -0.07644978 -0.11101982 -0.06819870
v -0.10257843 -0.08745044 -0.06819870
v -0.12171699 -0.05792101 -0.06819870
v -0.13256106 -0.02444513 -0.06819870
v 0.02444487 -0.13256080 -0.06819870
v -0.00000026 -0.00000000 -0.08898861
v -0.13474121 0.04785152 -0.12715231
v -0.14061491 -0.02592990 -0.12715231
v -0.14253449 0.01134733 -0.12715231
v -0.12911225 -0.06144032 -0.12715231
v -0.11776492 0.08109442 -0.12715231
v -0.10881080 -0.09276364 -0.12715231
v -0.09276339 0.10881106 -0.12715231
v -0.08109468 -0.11776517 -0.12715231
v -0.06144058 0.12911200 -0.12715231
v -0.04785127 -0.13474096 -0.12715231
v -0.02593016 0.14061465 -0.12715231
v -0.01134759 -0.14253474 -0.12715231
v 0.01134708 0.14253474 -0.12715231
v 0.02593016 -0.14061465 -0.12715231
v 0.04785127 0.13474096 -0.12715231
v 0.06144007 -0.12911251 -0.12715231
v 0.08109417 0.11776466 -0.12715231
v 0.09276339 -0.10881106 -0.12715231
v 0.10881080 0.09276364 -0.12715231
v 0.11776492 -0.08109442 -0.12715231
v 0.12911225 0.06144032 -0.12715231
v 0.13474070 -0.04785152 -0.12715231
v 0.14061440 0.02592990 -0.12715231
v 0.14253449 -0.01134733 -0.12715231
v 0.14862840 0.02740752 -0.11917663
v 0.14717479 -0.01171674 -0.12353541
v 0.15065783 -0.01199418 -0.11917663
v 0.14519237 0.02677396 -0.12353541
v 0.13912758 -0.04940936 -0.12353541
v 0.15140635 0.02791999 -0.11419809
v 0.13331520 0.06344012 -0.12353541
v 0.14312155 -0.01139383 -0.12715231
v 0.14242004 -0.05057838 -0.11917663
v 0.15347307 -0.01221796 -0.11419809
v 0.13647072 0.06494175 -0.11917663
v 0.14119329 0.02603669 -0.12715231
v 0.12159846 -0.08373442 -0.12353541
v 0.13529558 -0.04804823 -0.12715231
v 0.15344753 0.02829655 -0.10873927
v 0.13902080 0.06615522 -0.11419809
v 0.11235311 0.09578326 -0.12353541
v 0.12964362 0.06169324 -0.12715231
v 0.12447655 -0.08571633 -0.11917663
v 0.14508149 -0.05152361 -0.11419809
v 0.15554236 -0.01238300 -0.10873927
v 0.11501201 0.09805028 -0.11917663
v 0.09805002 -0.11501226 -0.11917663
v 0.11824980 -0.08142806 -0.12715231
v 0.15469574 0.02852647 -0.10295192
v 0.14089541 0.06704731 -0.10873927
v 0.11716151 0.09988249 -0.11419809
v 0.08571607 0.12447629 -0.11917663
v 0.10925889 0.09314531 -0.12715231
v 0.09578301 -0.11235336 -0.12353541
v 0.12680283 -0.08731811 -0.11419809
v 0.14703786 -0.05221848 -0.10873927
v 0.15680794 -0.01248365 -0.10295192
v 0.08373416 0.12159871 -0.12353541
v 0.06494150 -0.13647047 -0.11917663
v 0.09988223 -0.11716176 -0.11419809
v 0.09314505 -0.10925915 -0.12715231
v 0.15511573 0.02860413 -0.09699852
v 0.14204144 0.06759299 -0.10295192
v 0.11874131 0.10122931 -0.10873927
v 0.08731785 0.12680258 -0.11419809
v 0.04940910 0.13912732 -0.12353541
v 0.08142832 0.11824954 -0.12715231
v 0.06344037 -0.13331545 -0.12353541
v 0.06615548 -0.13902105 -0.11419809
v 0.12851242 -0.08849530 -0.10873927
v 0.14823345 -0.05264306 -0.10295192
v 0.15723355 -0.01251737 -0.09699852
v 0.05057812 0.14241978 -0.11917663
v 0.02740778 -0.14862865 -0.11917663
v 0.02791973 -0.15140609 -0.11419809
v 0.06704757 -0.14089516 -0.10873927
v 0.10122905 -0.11874157 -0.10873927
v 0.06169298 -0.12964388 -0.12715231
v 0.15680794 -0.01248365 -0.09104460
v 0.14242668 0.06777642 -0.09699852
v 0.11970698 0.10205242 -0.10295192
v 0.08849504 0.12851216 -0.10873927
v 0.05152335 0.14508175 -0.11419809
v 0.01171648 0.14717454 -0.12353541
v 0.04804849 0.13529583 -0.12715231
v 0.02677422 -0.14519262 -0.12353541
v 0.02829629 -0.15344778 -0.10873927
v 0.12955779 -0.08921521 -0.10295192
v 0.14863606 -0.05278612 -0.09699852
v 0.15469574 0.02852647 -0.09104460
v 0.14823345 -0.05264306 -0.09104460
v 0.14204144 0.06759299 -0.09104460
v 0.01199392 0.15065757 -0.11917663
v -0.01199392 -0.15065808 -0.11917663
v -0.01221822 -0.15347333 -0.11419809
v -0.01238274 -0.15554261 -0.10873927
v 0.06759273 -0.14204118 -0.10295192
v 0.02852672 -0.15469548 -0.10295192
v 0.10205268 -0.11970723 -0.10295192
v 0.02603694 -0.14119354 -0.12715231
v 0.15554236 -0.01238300 -0.08525777
v 0.14703786 -0.05221848 -0.08525777
v 0.11970698 0.10205242 -0.09104460
v 0.12003193 0.10232935 -0.09699852
v 0.08921495 0.12955753 -0.10295192
v 0.05221822 0.14703760 -0.10873927
v 0.01221822 0.15347333 -0.11419809
v -0.02677422 0.14519262 -0.12353541
v 0.01139408 0.14312130 -0.12715231
v -0.01171699 -0.14717505 -0.12353541
v -0.01248391 -0.15680768 -0.10295192
v 0.12990931 -0.08945739 -0.09699852
v -0.01139408 -0.14312130 -0.12715231
v 0.12955779 -0.08921521 -0.09104460
v 0.15344753 0.02829655 -0.08525777
v 0.14089541 0.06704731 -0.08525777
v 0.12851242 -0.08849530 -0.08525777
v 0.11874131 0.10122931 -0.08525777
v -0.02740778 0.14862865 -0.11917663
v -0.02603694 0.14119354 -0.12715231
v -0.05057863 -0.14242029 -0.11917663
v -0.05152386 -0.14508175 -0.11419809
v -0.05221822 -0.14703760 -0.10873927
v -0.05264332 -0.14823370 -0.10295192
v 0.06777616 -0.14242694 -0.09699852
v 0.02860387 -0.15511547 -0.09699852
v -0.01251763 -0.15723329 -0.09699852
v 0.10232960 -0.12003219 -0.09699852
v 0.15347307 -0.01221796 -0.07979844
v 0.14508149 -0.05152361 -0.07979844
v 0.12680283 -0.08731811 -0.07979844
v 0.08945713 0.12990956 -0.09699852
v 0.08921495 0.12955753 -0.09104460
v 0.05264281 0.14823370 -0.10295192
v 0.01238274 0.15554261 -0.10873927
v -0.02792024 0.15140609 -0.11419809
v -0.06344037 0.13331545 -0.12353541
v -0.06169349 0.12964388 -0.12715231
v -0.04804849 -0.13529583 -0.12715231
v -0.04940910 -0.13912732 -0.12353541
v -0.05278587 -0.14863632 -0.09699852
v 0.10205268 -0.11970723 -0.09104460
v 0.10122905 -0.11874157 -0.08525777
v 0.15140635 0.02791999 -0.07979844
v 0.13902080 0.06615522 -0.07979844
v 0.11716151 0.09988249 -0.07979844
v 0.09988223 -0.11716176 -0.07979844
v 0.08849504 0.12851216 -0.08525777
v -0.06494201 0.13647047 -0.11917663
v -0.08571607 -0.12447680 -0.11917663
v -0.08731785 -0.12680309 -0.11419809
v -0.08849555 -0.12851267 -0.10873927
v -0.08921495 -0.12955753 -0.10295192
v -0.08945713 -0.12990956 -0.09699852
v 0.06759273 -0.14204118 -0.09104460
v 0.02852672 -0.15469548 -0.09104460
v -0.01248391 -0.15680768 -0.09104460
v -0.05264332 -0.14823370 -0.09104460
v 0.15065783 -0.01199418 -0.07481990
v 0.14242004 -0.05057838 -0.07481990
v 0.12447655 -0.08571633 -0.07481990
v 0.09805002 -0.11501226 -0.07481990
v 0.05278587 0.14863581 -0.09699852
v 0.05264281 0.14823370 -0.09104460
v 0.01248339 0.15680768 -0.10295192
v -0.02829680 0.15344778 -0.10873927
v -0.06615548 0.13902105 -0.11419809
v -0.09578352 0.11235336 -0.12353541
v -0.09314557 0.10925863 -0.12715231
v -0.08142832 -0.11825005 -0.12715231
v -0.08373467 -0.12159871 -0.12353541
v -0.08921495 -0.12955753 -0.09104460
v 0.06704757 -0.14089516 -0.08525777
v 0.06615548 -0.13902105 -0.07979844
v 0.14862840 0.02740752 -0.07481990
v 0.13647072 0.06494175 -0.07481990
v 0.11501201 0.09805028 -0.07481990
v 0.08731785 0.12680258 -0.07979844
v 0.06494150 -0.13647047 -0.07481990
v 0.05221822 0.14703760 -0.08525777
v -0.09805002 0.11501226 -0.11917663
v -0.11235311 -0.09578326 -0.12353541
v -0.11716151 -0.09988249 -0.11419809
v -0.11874131 -0.10122931 -0.10873927
v -0.11970698 -0.10205293 -0.10295192
v -0.12003193 -0.10232986 -0.09699852
v -0.11970698 -0.10205293 -0.09104460
v 0.02829629 -0.15344778 -0.08525777
v -0.01238274 -0.15554261 -0.08525777
v -0.05221822 -0.14703760 -0.08525777
v -0.08849555 -0.12851267 -0.08525777
v 0.14717479 -0.01171674 -0.07046163
v 0.13912758 -0.04940936 -0.07046163
v 0.12159846 -0.08373442 -0.07046163
v 0.06344037 -0.13331545 -0.07046163
v 0.01251763 0.15723329 -0.09699852
v 0.01248339 0.15680768 -0.09104460
v -0.02852672 0.15469548 -0.10295192
v -0.06704757 0.14089516 -0.10873927
v -0.09988274 0.11716176 -0.11419809
v -0.12159897 0.08373442 -0.12353541
v -0.11824980 0.08142806 -0.12715231
v -0.10925889 -0.09314531 -0.12715231
v -0.11501252 -0.09805028 -0.11917663
v -0.11874131 -0.10122931 -0.08525777
v 0.02791973 -0.15140609 -0.07979844
v 0.02740778 -0.14862865 -0.07481990
v 0.14519237 0.02677396 -0.07046163
v 0.13331520 0.06344012 -0.07046163
v 0.11235311 0.09578326 -0.07046163
v 0.08571607 0.12447629 -0.07481990
v 0.09578301 -0.11235336 -0.07046163
v 0.05152335 0.14508175 -0.07979844
v 0.02677422 -0.14519262 -0.07046163
v 0.01238274 0.15554261 -0.08525777
v -0.12680283 0.08731811 -0.11419809
v -0.12447655 0.08571582 -0.11917663
v -0.13647072 -0.06494175 -0.11917663
v -0.12964413 -0.06169324 -0.12715231
v -0.13902080 -0.06615573 -0.11419809
v -0.14089541 -0.06704731 -0.10873927
v -0.14204144 -0.06759299 -0.10295192
v -0.14242719 -0.06777642 -0.09699852
v -0.14204144 -0.06759299 -0.09104460
v -0.01221822 -0.15347333 -0.07979844
v -0.05152386 -0.14508175 -0.07979844
v -0.08731785 -0.12680309 -0.07979844
v -0.11716151 -0.09988249 -0.07979844
v 0.14312155 -0.01139383 -0.06684473
v 0.13529558 -0.04804823 -0.06684473
v 0.11824980 -0.08142806 -0.06684473
v 0.09314505 -0.10925915 -0.06684473
v 0.06169298 -0.12964388 -0.06684473
v -0.02860438 0.15511547 -0.09699852
v -0.02852672 0.15469548 -0.09104460
v -0.06759273 0.14204118 -0.10295192
v -0.10122956 0.11874106 -0.10873927
v -0.12851242 0.08849530 -0.10873927
v -0.14242004 0.05057838 -0.11917663
v -0.13529558 0.04804823 -0.12715231
v -0.13331571 -0.06344063 -0.12353541
v -0.14089541 -0.06704731 -0.08525777
v -0.01199392 -0.15065808 -0.07481990
v -0.01171699 -0.14717505 -0.07046163
v 0.14253449 -0.00000000 -0.06684473
v 0.14119329 0.02603669 -0.06684473
v 0.12964362 0.06169324 -0.06684473
v 0.08373416 0.12159871 -0.07046163
v 0.05057812 0.14241978 -0.07481990
v 0.01221822 0.15347333 -0.07979844
v 0.02603694 -0.14119354 -0.06684473
v -0.02829680 0.15344778 -0.08525777
v -0.14508149 0.05152361 -0.11419809
v -0.14703786 0.05221848 -0.10873927
v -0.13912758 0.04940885 -0.12353541
v -0.14862891 -0.02740803 -0.11917663
v -0.15140635 -0.02791999 -0.11419809
v -0.14119380 -0.02603669 -0.12715231
v -0.15344753 -0.02829655 -0.10873927
v -0.15469574 -0.02852647 -0.10295192
v -0.15511573 -0.02860413 -0.09699852
v -0.15469574 -0.02852647 -0.09104460
v -0.05057863 -0.14242029 -0.07481990
v -0.08571607 -0.12447680 -0.07481990
v -0.11501252 -0.09805028 -0.07481990
v -0.13902080 -0.06615573 -0.07979844
v -0.01139408 -0.14312130 -0.06684473
v 0.10925889 0.09314531 -0.06684473
v -0.06777616 0.14242694 -0.09699852
v -0.06759273 0.14204118 -0.09104460
v -0.10205268 0.11970723 -0.10295192
v -0.12955779 0.08921521 -0.10295192
v -0.14823396 0.05264306 -0.10295192
v -0.15065783 0.01199418 -0.11917663
v -0.15347358 0.01221796 -0.11419809
v -0.14312155 0.01139383 -0.12715231
v -0.14519237 -0.02677447 -0.12353541
v -0.15344753 -0.02829655 -0.08525777
v -0.04940910 -0.13912732 -0.07046163
v -0.04804849 -0.13529583 -0.06684473
v 0.08142832 0.11824954 -0.06684473
v 0.04940910 0.13912732 -0.07046163
v 0.01199392 0.15065757 -0.07481990
v -0.02792024 0.15140609 -0.07979844
v -0.06704757 0.14089516 -0.08525777
v -0.15554287 0.01238300 -0.10873927
v -0.15680794 0.01248365 -0.10295192
v -0.14717479 0.01171674 -0.12353541
v -0.15723355 0.01251737 -0.09699852
v -0.15680794 0.01248365 -0.09104460
v -0.08373467 -0.12159871 -0.07046163
v -0.11235311 -0.09578326 -0.07046163
v -0.13647072 -0.06494175 -0.07481990
v -0.15140635 -0.02791999 -0.07979844
v -0.10232960 0.12003219 -0.09699852
v -0.10205268 0.11970723 -0.09104460
v -0.12990931 0.08945739 -0.09699852
v -0.14863606 0.05278612 -0.09699852
v -0.15554287 0.01238300 -0.08525777
v -0.08142832 -0.11825005 -0.06684473
v 0.04804849 0.13529583 -0.06684473
v 0.01171648 0.14717454 -0.07046163
v -0.02740778 0.14862865 -0.07481990
v -0.06615548 0.13902105 -0.07979844
v -0.10122956 0.11874106 -0.08525777
v -0.14823396 0.05264306 -0.09104460
v -0.14703786 0.05221848 -0.08525777
v -0.10925889 -0.09314531 -0.06684473
v -0.13331571 -0.06344063 -0.07046163
v -0.14862891 -0.02740803 -0.07481990
v -0.15347358 0.01221796 -0.07979844
v -0.12955779 0.08921521 -0.09104460
v -0.14508149 0.05152361 -0.07979844
v -0.12964413 -0.06169324 -0.06684473
v 0.01139408 0.14312130 -0.06684473
v -0.02677422 0.14519262 -0.07046163
v -0.06494201 0.13647047 -0.07481990
v -0.09988274 0.11716176 -0.07979844
v -0.12851242 0.08849530 -0.08525777
v -0.12680283 0.08731811 -0.07979844
v -0.14519237 -0.02677447 -0.07046163
v -0.14119380 -0.02603669 -0.06684473
v -0.15065783 0.01199418 -0.07481990
v -0.14242004 0.05057838 -0.07481990
v -0.02603694 0.14119354 -0.06684473
v -0.12447655 0.08571582 -0.07481990
v -0.06169349 0.12964388 -0.06684473
v -0.06344037 0.13331545 -0.07046163
v -0.09805002 0.11501226 -0.07481990
v -0.14717479 0.01171674 -0.07046163
v -0.14312155 0.01139383 -0.06684473
v -0.13912758 0.04940885 -0.07046163
v -0.12159897 0.08373442 -0.07046163
v -0.09314557 0.10925863 -0.06684473
v -0.09578352 0.11235336 -0.07046163
v -0.13529558 0.04804823 -0.06684473
v -0.11824980 0.08142806 -0.06684473
f 1 2 3
f 2 1 4
f 5 3 2
f 1 6 4
f 4 7 2
f 3 5 8
f 2 9 5
f 6 1 10
f 11 4 6
f 7 4 12
f 9 2 7
f 13 8 5
f 14 5 9
f 10 15 6
f 4 11 12
f 6 16 11
f 12 17 7
f 7 18 9
f 8 13 19
f 5 14 13
f 9 20 14
f 15 10 21
f 16 6 15
f 22 12 11
f 23 11 16
f 17 12 24
f 18 7 17
f 20 9 18
f 25 19 13
f 26 13 14
f 27 14 20
f 21 28 15
f 15 29 16
f 12 22 24
f 11 23 22
f 16 30 23
f 24 31 17
f 17 32 18
f 18 33 20
f 19 25 34
f 13 26 25
f 14 27 26
f 20 35 27
f 28 21 36
f 29 15 28
f 30 16 29
f 37 24 22
f 38 22 23
f 39 23 30
f 31 24 40
f 32 17 31
f 33 18 32
f 35 20 33
f 41 34 25
f 42 25 26
f 43 26 27
f 44 27 35
f 36 45 28
f 28 46 29
f 29 47 30
f 24 37 40
f 22 38 37
f 23 39 38
f 30 48 39
f 40 49 31
f 31 50 32
f 32 51 33
f 33 52 35
f 34 41 53
f 25 42 41
f 26 43 42
f 27 44 43
f 35 54 44
f 45 36 55
f 46 28 45
f 47 29 46
f 48 30 47
f 56 40 37
f 57 37 38
f 58 38 39
f 59 39 48
f 49 40 60
f 50 31 49
f 51 32 50
f 52 33 51
f 54 35 52
f 61 53 41
f 62 41 42
f 63 42 43
f 64 43 44
f 65 44 54
f 55 66 45
f 45 67 46
f 46 68 47
f 47 69 48
f 40 56 60
f 37 57 56
f 38 58 57
f 39 59 58
f 48 70 59
f 60 71 49
f 49 72 50
f 50 73 51
f 51 74 52
f 52 75 54
f 53 61 76
f 41 62 61
f 42 63 62
f 43 64 63
f 44 65 64
f 54 77 65
f 66 55 78
f 67 45 66
f 68 46 67
f 69 47 68
f 70 48 69
f 79 60 56
f 80 56 57
f 81 57 58
f 82 58 59
f 83 59 70
f 71 60 84
f 72 49 71
f 73 50 72
f 74 51 73
f 75 52 74
f 77 54 75
f 61 85 76
f 62 86 61
f 63 87 62
f 64 88 63
f 65 89 64
f 77 90 65
f 91 66 78
f 92 67 66
f 93 68 67
f 94 69 68
f 95 70 69
f 60 79 84
f 56 80 79
f 57 81 80
f 58 82 81
f 59 83 82
f 96 83 70
f 84 97 71
f 71 98 72
f 72 99 73
f 73 100 74
f 74 101 75
f 75 102 77
f 85 61 86
f 86 62 87
f 87 63 88
f 88 64 89
f 89 65 90
f 90 77 103
f 66 91 92
f 67 92 93
f 68 93 94
f 69 94 95
f 70 95 96
f 104 84 79
f 105 79 80
f 106 80 81
f 107 81 82
f 108 82 83
f 83 96 109
f 97 84 110
f 98 71 97
f 99 72 98
f 100 73 99
f 101 74 100
f 102 75 101
f 102 103 77
f 86 111 85
f 87 112 86
f 88 113 87
f 89 114 88
f 90 115 89
f 103 116 90
f 117 92 91
f 118 93 92
f 119 94 93
f 120 95 94
f 121 96 95
f 84 104 110
f 79 105 104
f 80 106 105
f 81 107 106
f 82 108 107
f 109 108 83
f 122 109 96
f 110 123 97
f 97 124 98
f 98 125 99
f 99 126 100
f 100 127 101
f 101 128 102
f 103 102 129
f 111 86 112
f 112 87 113
f 113 88 114
f 114 89 115
f 115 90 116
f 116 103 130
f 92 117 118
f 93 118 119
f 94 119 120
f 95 120 121
f 96 121 122
f 131 110 104
f 132 104 105
f 133 105 106
f 134 106 107
f 135 107 108
f 108 109 136
f 109 122 137
f 123 110 138
f 124 97 123
f 125 98 124
f 126 99 125
f 127 100 126
f 128 101 127
f 128 129 102
f 129 130 103
f 112 139 111
f 113 140 112
f 114 141 113
f 115 142 114
f 116 143 115
f 130 144 116
f 145 118 117
f 146 119 118
f 147 120 119
f 148 121 120
f 149 122 121
f 110 131 138
f 104 132 131
f 105 133 132
f 106 134 133
f 107 135 134
f 136 135 108
f 137 136 109
f 150 137 122
f 138 151 123
f 123 152 124
f 124 153 125
f 125 154 126
f 126 155 127
f 127 156 128
f 129 128 157
f 130 129 158
f 139 112 140
f 140 113 141
f 141 114 142
f 142 115 143
f 143 116 144
f 144 130 159
f 118 145 146
f 119 146 147
f 120 147 148
f 121 148 149
f 122 149 150
f 160 138 131
f 161 131 132
f 162 132 133
f 163 133 134
f 164 134 135
f 135 136 165
f 136 137 166
f 137 150 167
f 151 138 168
f 152 123 151
f 153 124 152
f 154 125 153
f 155 126 154
f 156 127 155
f 156 157 128
f 157 158 129
f 158 159 130
f 140 169 139
f 141 170 140
f 142 171 141
f 143 172 142
f 144 173 143
f 159 174 144
f 175 146 145
f 176 147 146
f 177 148 147
f 178 149 148
f 179 150 149
f 138 160 168
f 131 161 160
f 132 162 161
f 133 163 162
f 134 164 163
f 165 164 135
f 166 165 136
f 167 166 137
f 180 167 150
f 168 181 151
f 151 182 152
f 152 183 153
f 153 184 154
f 154 185 155
f 155 186 156
f 157 156 187
f 158 157 188
f 159 158 189
f 169 140 170
f 170 141 171
f 171 142 172
f 172 143 173
f 173 144 174
f 174 159 190
f 146 175 176
f 147 176 177
f 148 177 178
f 149 178 179
f 150 179 180
f 191 168 160
f 192 160 161
f 193 161 162
f 194 162 163
f 195 163 164
f 164 165 196
f 165 166 197
f 166 167 198
f 167 180 199
f 181 168 200
f 182 151 181
f 183 152 182
f 184 153 183
f 185 154 184
f 186 155 185
f 186 187 156
f 187 188 157
f 188 189 158
f 189 190 159
f 170 201 169
f 171 202 170
f 172 203 171
f 173 204 172
f 174 205 173
f 190 206 174
f 207 176 175
f 208 177 176
f 209 178 177
f 210 179 178
f 211 180 179
f 168 191 200
f 160 192 191
f 161 193 192
f 162 194 193
f 163 195 194
f 196 195 164
f 197 196 165
f 198 197 166
f 199 198 167
f 212 199 180
f 200 213 181
f 181 214 182
f 182 215 183
f 183 216 184
f 184 217 185
f 185 218 186
f 187 186 219
f 188 187 220
f 189 188 221
f 190 189 222
f 201 170 202
f 202 171 203
f 203 172 204
f 204 173 205
f 205 174 206
f 206 190 223
f 176 207 208
f 177 208 209
f 178 209 210
f 179 210 211
f 180 211 212
f 224 200 191
f 225 191 192
f 226 192 193
f 227 193 194
f 228 194 195
f 195 196 229
f 196 197 230
f 197 198 231
f 198 199 232
f 199 212 233
f 213 200 234
f 235 181 213
f 214 181 235
f 236 182 214
f 215 182 236
f 237 183 215
f 216 183 237
f 237 184 216
f 217 184 238
f 238 185 217
f 218 185 239
f 218 219 186
f 219 220 187
f 220 221 188
f 221 222 189
f 222 223 190
f 202 240 201
f 203 241 202
f 204 242 203
f 205 243 204
f 206 244 205
f 223 245 206
f 246 208 207
f 247 209 208
f 248 210 209
f 249 211 210
f 250 212 211
f 200 224 234
f 191 251 224
f 191 225 252
f 192 252 225
f 192 226 253
f 193 253 226
f 193 227 254
f 194 254 227
f 194 228 255
f 195 255 228
f 230 229 196
f 229 255 195
f 231 230 197
f 232 231 198
f 233 232 199
f 256 233 212
f 213 234 257
f 235 213 257
f 236 214 235
f 237 215 236
f 238 184 237
f 239 185 238
f 239 219 218
f 220 219 258
f 221 220 259
f 222 221 260
f 223 222 261
f 240 202 241
f 241 203 242
f 242 204 243
f 243 205 244
f 244 206 245
f 245 223 262
f 208 246 247
f 209 247 248
f 210 248 249
f 211 249 250
f 212 250 256
f 234 224 251
f 191 252 251
f 192 253 252
f 193 254 253
f 194 255 254
f 229 230 263
f 264 255 229
f 230 231 265
f 231 232 266
f 232 233 267
f 233 256 268
f 257 234 269
f 270 235 257
f 271 236 235
f 272 237 236
f 273 238 237
f 274 239 238
f 239 275 219
f 276 258 219
f 258 259 220
f 259 260 221
f 260 261 222
f 261 262 223
f 247 240 241
f 248 241 242
f 249 242 243
f 250 243 244
f 256 244 245
f 268 245 262
f 240 247 246
f 241 248 247
f 242 249 248
f 243 250 249
f 244 256 250
f 234 251 269
f 252 277 251
f 253 278 252
f 254 279 253
f 255 280 254
f 265 263 230
f 263 264 229
f 255 264 281
f 266 265 231
f 267 266 232
f 268 267 233
f 245 268 256
f 282 257 269
f 271 235 270
f 270 257 282
f 272 236 271
f 273 237 272
f 274 238 273
f 274 276 239
f 275 239 276
f 276 219 275
f 276 283 258
f 259 258 284
f 260 259 285
f 261 260 286
f 262 261 287
f 262 288 268
f 251 289 269
f 252 278 277
f 251 277 289
f 253 279 278
f 254 280 279
f 281 280 255
f 263 265 290
f 263 281 264
f 265 266 291
f 266 267 292
f 267 268 288
f 269 293 282
f 294 271 270
f 295 270 282
f 296 272 271
f 297 273 272
f 298 274 273
f 299 276 274
f 283 276 300
f 300 258 283
f 300 284 258
f 284 285 259
f 285 286 260
f 286 287 261
f 288 262 287
f 269 289 293
f 278 301 277
f 277 302 289
f 279 303 278
f 280 304 279
f 281 305 280
f 291 290 265
f 290 306 263
f 306 281 263
f 292 291 266
f 288 292 267
f 307 282 293
f 271 294 296
f 270 295 294
f 282 307 295
f 272 296 297
f 273 297 298
f 274 298 308
f 299 300 276
f 274 309 299
f 300 310 284
f 285 284 311
f 286 285 312
f 287 286 313
f 287 314 288
f 289 307 293
f 301 278 303
f 302 277 301
f 307 289 302
f 303 279 304
f 304 280 315
f 316 305 281
f 317 280 305
f 290 291 318
f 290 316 306
f 281 306 316
f 291 292 319
f 292 288 314
f 320 296 294
f 321 294 295
f 322 295 307
f 323 297 296
f 324 298 297
f 325 308 298
f 309 274 308
f 326 300 299
f 327 299 309
f 310 300 328
f 328 284 310
f 328 311 284
f 311 312 285
f 312 313 286
f 314 287 313
f 303 329 301
f 301 330 302
f 302 322 307
f 304 331 303
f 280 317 315
f 315 332 304
f 316 333 305
f 305 334 317
f 319 318 291
f 318 335 290
f 336 316 290
f 314 319 292
f 296 320 323
f 294 321 320
f 295 322 321
f 297 323 324
f 298 324 325
f 308 325 337
f 308 338 309
f 326 328 300
f 299 327 326
f 309 339 327
f 328 340 311
f 312 311 341
f 313 312 342
f 313 343 314
f 329 303 331
f 330 301 329
f 322 302 330
f 331 304 332
f 344 315 317
f 332 315 345
f 335 333 316
f 334 305 333
f 346 317 334
f 318 319 347
f 348 335 318
f 290 335 336
f 316 336 335
f 319 314 343
f 349 323 320
f 350 320 321
f 351 321 322
f 352 324 323
f 353 325 324
f 354 337 325
f 338 308 337
f 339 309 338
f 355 328 326
f 356 326 327
f 357 327 339
f 340 328 358
f 358 311 340
f 358 341 311
f 341 342 312
f 343 313 342
f 331 359 329
f 329 360 330
f 330 351 322
f 332 361 331
f 315 344 345
f 317 346 344
f 345 362 332
f 335 363 333
f 333 364 334
f 334 365 346
f 343 347 319
f 347 348 318
f 335 348 366
f 323 349 352
f 320 350 349
f 321 351 350
f 324 352 353
f 325 353 354
f 337 354 367
f 337 368 338
f 338 369 339
f 355 358 328
f 326 356 355
f 327 357 356
f 339 370 357
f 358 371 341
f 342 341 372
f 342 373 343
f 359 331 361
f 360 329 359
f 351 330 360
f 361 332 362
f 374 345 344
f 375 344 346
f 362 345 376
f 366 363 335
f 364 333 363
f 365 334 364
f 377 346 365
f 347 343 373
f 347 366 348
f 378 352 349
f 379 349 350
f 380 350 351
f 381 353 352
f 382 354 353
f 383 367 354
f 368 337 367
f 369 338 368
f 370 339 369
f 384 358 355
f 385 355 356
f 386 356 357
f 387 357 370
f 371 358 388
f 371 372 341
f 373 342 372
f 361 389 359
f 359 390 360
f 360 380 351
f 362 391 361
f 345 374 376
f 344 375 374
f 346 377 375
f 376 392 362
f 366 393 363
f 363 394 364
f 364 395 365
f 365 396 377
f 373 397 347
f 397 366 347
f 352 378 381
f 349 379 378
f 350 380 379
f 353 381 382
f 354 382 383
f 367 383 398
f 367 399 368
f 368 400 369
f 369 401 370
f 384 388 358
f 355 385 384
f 356 386 385
f 357 387 386
f 370 402 387
f 388 372 371
f 372 403 373
f 389 361 391
f 390 359 389
f 380 360 390
f 391 362 392
f 404 376 374
f 405 374 375
f 406 375 377
f 392 376 407
f 408 393 366
f 394 363 393
f 395 364 394
f 396 365 395
f 409 377 396
f 373 408 397
f 366 397 408
f 410 381 378
f 411 378 379
f 412 379 380
f 413 382 381
f 414 383 382
f 415 398 383
f 399 367 398
f 400 368 399
f 401 369 400
f 402 370 401
f 416 388 384
f 417 384 385
f 418 385 386
f 419 386 387
f 420 387 402
f 388 421 372
f 421 403 372
f 403 408 373
f 391 422 389
f 389 423 390
f 390 412 380
f 392 424 391
f 376 404 407
f 374 405 404
f 375 406 405
f 377 409 406
f 407 425 392
f 408 426 393
f 393 427 394
f 394 428 395
f 395 429 396
f 396 430 409
f 381 410 413
f 378 411 410
f 379 412 411
f 382 413 414
f 383 414 415
f 398 415 431
f 398 432 399
f 399 433 400
f 400 434 401
f 401 435 402
f 416 436 388
f 384 417 416
f 385 418 417
f 386 419 418
f 387 420 419
f 402 437 420
f 421 388 436
f 421 438 403
f 408 403 438
f 422 391 424
f 423 389 422
f 412 390 423
f 424 392 425
f 439 407 404
f 440 404 405
f 441 405 406
f 442 406 409
f 425 407 443
f 438 426 408
f 427 393 426
f 428 394 427
f 429 395 428
f 430 396 429
f 444 409 430
f 445 413 410
f 446 410 411
f 447 411 412
f 448 414 413
f 449 415 414
f 450 431 415
f 432 398 431
f 433 399 432
f 434 400 433
f 435 401 434
f 437 402 435
f 416 451 436
f 452 416 417
f 453 417 418
f 454 418 419
f 455 419 420
f 456 420 437
f 438 421 436
f 424 457 422
f 422 458 423
f 423 447 412
f 425 459 424
f 407 439 443
f 404 440 439
f 405 441 440
f 406 442 441
f 409 444 442
f 443 460 425
f 438 451 426
f 426 461 427
f 427 462 428
f 428 463 429
f 429 464 430
f 430 465 444
f 413 445 448
f 410 446 445
f 411 447 446
f 414 448 449
f 415 449 450
f 431 450 466
f 431 467 432
f 432 468 433
f 433 469 434
f 434 470 435
f 435 471 437
f 451 416 472
f 451 438 436
f 416 452 472
f 417 453 452
f 418 454 453
f 419 455 454
f 420 456 455
f 437 473 456
f 457 424 459
f 458 422 457
f 447 423 458
f 459 425 460
f 474 443 439
f 475 439 440
f 476 440 441
f 477 441 442
f 478 442 444
f 460 443 479
f 461 426 451
f 462 427 461
f 463 428 462
f 464 429 463
f 465 430 464
f 480 444 465
f 481 448 445
f 482 445 446
f 483 446 447
f 484 449 448
f 485 450 449
f 486 466 450
f 467 431 466
f 468 432 467
f 469 433 468
f 470 434 469
f 471 435 470
f 473 437 471
f 452 451 472
f 453 461 452
f 454 462 453
f 455 463 454
f 456 464 455
f 473 465 456
f 459 487 457
f 457 488 458
f 458 483 447
f 460 489 459
f 443 474 479
f 439 475 474
f 440 476 475
f 441 477 476
f 442 478 477
f 444 480 478
f 479 490 460
f 451 452 461
f 461 453 462
f 462 454 463
f 463 455 464
f 464 456 465
f 465 473 480
f 448 481 484
f 445 482 481
f 446 483 482
f 449 484 485
f 450 485 486
f 466 486 491
f 466 492 467
f 467 493 468
f 468 494 469
f 469 495 470
f 470 496 471
f 471 497 473
f 487 459 489
f 488 457 487
f 483 458 488
f 489 460 490
f 498 479 474
f 499 474 475
f 500 475 476
f 501 476 477
f 502 477 478
f 503 478 480
f 490 479 504
f 497 480 473
f 505 484 481
f 506 481 482
f 507 482 483
f 508 485 484
f 509 486 485
f 510 491 486
f 492 466 491
f 493 467 492
f 494 468 493
f 495 469 494
f 496 470 495
f 497 471 496
f 489 511 487
f 487 512 488
f 488 507 483
f 490 513 489
f 479 498 504
f 474 499 498
f 475 500 499
f 476 501 500
f 477 502 501
f 478 503 502
f 480 497 503
f 504 514 490
f 484 505 508
f 481 506 505
f 482 507 506
f 485 508 509
f 486 509 510
f 491 510 515
f 491 516 492
f 492 517 493
f 493 518 494
f 494 519 495
f 495 520 496
f 496 521 497
f 511 489 513
f 512 487 511
f 507 488 512
f 513 490 514
f 522 504 498
f 523 498 499
f 524 499 500
f 525 500 501
f 526 501 502
f 527 502 503
f 521 503 497
f 514 504 528
f 529 508 505
f 530 505 506
f 531 506 507
f 532 509 508
f 533 510 509
f 534 515 510
f 516 491 515
f 517 492 516
f 518 493 517
f 519 494 518
f 520 495 519
f 521 496 520
f 513 535 511
f 511 536 512
f 512 531 507
f 514 537 513
f 504 522 528
f 498 523 522
f 499 524 523
f 500 525 524
f 501 526 525
f 502 527 526
f 503 521 527
f 528 538 514
f 508 529 532
f 505 530 529
f 506 539 530
f 539 506 531
f 509 532 533
f 510 533 534
f 515 534 540
f 515 541 516
f 516 542 517
f 517 543 518
f 518 544 519
f 519 545 520
f 520 546 521
f 535 513 537
f 536 511 535
f 531 512 536
f 537 514 538
f 547 528 522
f 548 522 523
f 549 523 524
f 550 524 525
f 551 525 526
f 552 526 527
f 546 527 521
f 538 528 553
f 529 554 532
f 530 554 529
f 539 554 530
f 554 539 531
f 532 554 533
f 533 554 534
f 534 554 540
f 541 515 540
f 542 516 541
f 543 517 542
f 544 518 543
f 545 519 544
f 546 520 545
f 535 537 554
f 536 535 554
f 531 536 554
f 537 538 554
f 528 547 553
f 522 548 547
f 523 549 548
f 524 550 549
f 525 551 550
f 526 552 551
f 527 546 552
f 538 553 554
f 540 554 541
f 554 542 541
f 554 543 542
f 554 544 543
f 554 545 544
f 554 546 545
f 553 547 554
f 554 547 548
f 554 548 549
f 554 549 550
f 554 550 551
f 554 551 552
f 554 552 546
f 3 2 1
f 4 1 2
f 2 3 5
f 4 6 1
f 2 7 4
f 8 5 3
f 5 9 2
f 10 1 6
f 6 4 11
f 12 4 7
f 7 2 9
f 5 8 13
f 9 5 14
f 6 15 10
f 12 11 4
f 11 16 6
f 7 17 12
f 9 18 7
f 19 13 8
f 13 14 5
f 14 20 9
f 21 10 15
f 15 6 16
f 11 12 22
f 16 11 23
f 24 12 17
f 17 7 18
f 18 9 20
f 13 19 25
f 14 13 26
f 20 14 27
f 15 28 21
f 16 29 15
f 24 22 12
f 22 23 11
f 23 30 16
f 17 31 24
f 18 32 17
f 20 33 18
f 34 25 19
f 25 26 13
f 26 27 14
f 27 35 20
f 36 21 28
f 28 15 29
f 29 16 30
f 22 24 37
f 23 22 38
f 30 23 39
f 40 24 31
f 31 17 32
f 32 18 33
f 33 20 35
f 25 34 41
f 26 25 42
f 27 26 43
f 35 27 44
f 28 45 36
f 29 46 28
f 30 47 29
f 40 37 24
f 37 38 22
f 38 39 23
f 39 48 30
f 31 49 40
f 32 50 31
f 33 51 32
f 35 52 33
f 53 41 34
f 41 42 25
f 42 43 26
f 43 44 27
f 44 54 35
f 55 36 45
f 45 28 46
f 46 29 47
f 47 30 48
f 37 40 56
f 38 37 57
f 39 38 58
f 48 39 59
f 60 40 49
f 49 31 50
f 50 32 51
f 51 33 52
f 52 35 54
f 41 53 61
f 42 41 62
f 43 42 63
f 44 43 64
f 54 44 65
f 45 66 55
f 46 67 45
f 47 68 46
f 48 69 47
f 60 56 40
f 56 57 37
f 57 58 38
f 58 59 39
f 59 70 48
f 49 71 60
f 50 72 49
f 51 73 50
f 52 74 51
f 54 75 52
f 76 61 53
f 61 62 41
f 62 63 42
f 63 64 43
f 64 65 44
f 65 77 54
f 78 55 66
f 66 45 67
f 67 46 68
f 68 47 69
f 69 48 70
f 56 60 79
f 57 56 80
f 58 57 81
f 59 58 82
f 70 59 83
f 84 60 71
f 71 49 72
f 72 50 73
f 73 51 74
f 74 52 75
f 75 54 77
f 76 85 61
f 61 86 62
f 62 87 63
f 63 88 64
f 64 89 65
f 65 90 77
f 78 66 91
f 66 67 92
f 67 68 93
f 68 69 94
f 69 70 95
f 84 79 60
f 79 80 56
f 80 81 57
f 81 82 58
f 82 83 59
f 70 83 96
f 71 97 84
f 72 98 71
f 73 99 72
f 74 100 73
f 75 101 74
f 77 102 75
f 86 61 85
f 87 62 86
f 88 63 87
f 89 64 88
f 90 65 89
f 103 77 90
f 92 91 66
f 93 92 67
f 94 93 68
f 95 94 69
f 96 95 70
f 79 84 104
f 80 79 105
f 81 80 106
f 82 81 107
f 83 82 108
f 109 96 83
f 110 84 97
f 97 71 98
f 98 72 99
f 99 73 100
f 100 74 101
f 101 75 102
f 77 103 102
f 85 111 86
f 86 112 87
f 87 113 88
f 88 114 89
f 89 115 90
f 90 116 103
f 91 92 117
f 92 93 118
f 93 94 119
f 94 95 120
f 95 96 121
f 110 104 84
f 104 105 79
f 105 106 80
f 106 107 81
f 107 108 82
f 83 108 109
f 96 109 122
f 97 123 110
f 98 124 97
f 99 125 98
f 100 126 99
f 101 127 100
f 102 128 101
f 129 102 103
f 112 86 111
f 113 87 112
f 114 88 113
f 115 89 114
f 116 90 115
f 130 103 116
f 118 117 92
f 119 118 93
f 120 119 94
f 121 120 95
f 122 121 96
f 104 110 131
f 105 104 132
f 106 105 133
f 107 106 134
f 108 107 135
f 136 109 108
f 137 122 109
f 138 110 123
f 123 97 124
f 124 98 125
f 125 99 126
f 126 100 127
f 127 101 128
f 102 129 128
f 103 130 129
f 111 139 112
f 112 140 113
f 113 141 114
f 114 142 115
f 115 143 116
f 116 144 130
f 117 118 145
f 118 119 146
f 119 120 147
f 120 121 148
f 121 122 149
f 138 131 110
f 131 132 104
f 132 133 105
f 133 134 106
f 134 135 107
f 108 135 136
f 109 136 137
f 122 137 150
f 123 151 138
f 124 152 123
f 125 153 124
f 126 154 125
f 127 155 126
f 128 156 127
f 157 128 129
f 158 129 130
f 140 112 139
f 141 113 140
f 142 114 141
f 143 115 142
f 144 116 143
f 159 130 144
f 146 145 118
f 147 146 119
f 148 147 120
f 149 148 121
f 150 149 122
f 131 138 160
f 132 131 161
f 133 132 162
f 134 133 163
f 135 134 164
f 165 136 135
f 166 137 136
f 167 150 137
f 168 138 151
f 151 123 152
f 152 124 153
f 153 125 154
f 154 126 155
f 155 127 156
f 128 157 156
f 129 158 157
f 130 159 158
f 139 169 140
f 140 170 141
f 141 171 142
f 142 172 143
f 143 173 144
f 144 174 159
f 145 146 175
f 146 147 176
f 147 148 177
f 148 149 178
f 149 150 179
f 168 160 138
f 160 161 131
f 161 162 132
f 162 163 133
f 163 164 134
f 135 164 165
f 136 165 166
f 137 166 167
f 150 167 180
f 151 181 168
f 152 182 151
f 153 183 152
f 154 184 153
f 155 185 154
f 156 186 155
f 187 156 157
f 188 157 158
f 189 158 159
f 170 140 169
f 171 141 170
f 172 142 171
f 173 143 172
f 174 144 173
f 190 159 174
f 176 175 146
f 177 176 147
f 178 177 148
f 179 178 149
f 180 179 150
f 160 168 191
f 161 160 192
f 162 161 193
f 163 162 194
f 164 163 195
f 196 165 164
f 197 166 165
f 198 167 166
f 199 180 167
f 200 168 181
f 181 151 182
f 182 152 183
f 183 153 184
f 184 154 185
f 185 155 186
f 156 187 186
f 157 188 187
f 158 189 188
f 159 190 189
f 169 201 170
f 170 202 171
f 171 203 172
f 172 204 173
f 173 205 174
f 174 206 190
f 175 176 207
f 176 177 208
f 177 178 209
f 178 179 210
f 179 180 211
f 200 191 168
f 191 192 160
f 192 193 161
f 193 194 162
f 194 195 163
f 164 195 196
f 165 196 197
f 166 197 198
f 167 198 199
f 180 199 212
f 181 213 200
f 182 214 181
f 183 215 182
f 184 216 183
f 185 217 184
f 186 218 185
f 219 186 187
f 220 187 188
f 221 188 189
f 222 189 190
f 202 170 201
f 203 171 202
f 204 172 203
f 205 173 204
f 206 174 205
f 223 190 206
f 208 207 176
f 209 208 177
f 210 209 178
f 211 210 179
f 212 211 180
f 191 200 224
f 192 191 225
f 193 192 226
f 194 193 227
f 195 194 228
f 229 196 195
f 230 197 196
f 231 198 197
f 232 199 198
f 233 212 199
f 234 200 213
f 213 181 235
f 235 181 214
f 214 182 236
f 236 182 215
f 215 183 237
f 237 183 216
f 216 184 237
f 238 184 217
f 217 185 238
f 239 185 218
f 186 219 218
f 187 220 219
f 188 221 220
f 189 222 221
f 190 223 222
f 201 240 202
f 202 241 203
f 203 242 204
f 204 243 205
f 205 244 206
f 206 245 223
f 207 208 246
f 208 209 247
f 209 210 248
f 210 211 249
f 211 212 250
f 234 224 200
f 224 251 191
f 252 225 191
f 225 252 192
f 253 226 192
f 226 253 193
f 254 227 193
f 227 254 194
f 255 228 194
f 228 255 195
f 196 229 230
f 195 255 229
f 197 230 231
f 198 231 232
f 199 232 233
f 212 233 256
f 257 234 213
f 257 213 235
f 235 214 236
f 236 215 237
f 237 184 238
f 238 185 239
f 218 219 239
f 258 219 220
f 259 220 221
f 260 221 222
f 261 222 223
f 241 202 240
f 242 203 241
f 243 204 242
f 244 205 243
f 245 206 244
f 262 223 245
f 247 246 208
f 248 247 209
f 249 248 210
f 250 249 211
f 256 250 212
f 251 224 234
f 251 252 191
f 252 253 192
f 253 254 193
f 254 255 194
f 263 230 229
f 229 255 264
f 265 231 230
f 266 232 231
f 267 233 232
f 268 256 233
f 269 234 257
f 257 235 270
f 235 236 271
f 236 237 272
f 237 238 273
f 238 239 274
f 219 275 239
f 219 258 276
f 220 259 258
f 221 260 259
f 222 261 260
f 223 262 261
f 241 240 247
f 242 241 248
f 243 242 249
f 244 243 250
f 245 244 256
f 262 245 268
f 246 247 240
f 247 248 241
f 248 249 242
f 249 250 243
f 250 256 244
f 269 251 234
f 251 277 252
f 252 278 253
f 253 279 254
f 254 280 255
f 230 263 265
f 229 264 263
f 281 264 255
f 231 265 266
f 232 266 267
f 233 267 268
f 256 268 245
f 269 257 282
f 270 235 271
f 282 257 270
f 271 236 272
f 272 237 273
f 273 238 274
f 239 276 274
f 276 239 275
f 275 219 276
f 258 283 276
f 284 258 259
f 285 259 260
f 286 260 261
f 287 261 262
f 268 288 262
f 269 289 251
f 277 278 252
f 289 277 251
f 278 279 253
f 279 280 254
f 255 280 281
f 290 265 263
f 264 281 263
f 291 266 265
f 292 267 266
f 288 268 267
f 282 293 269
f 270 271 294
f 282 270 295
f 271 272 296
f 272 273 297
f 273 274 298
f 274 276 299
f 300 276 283
f 283 258 300
f 258 284 300
f 259 285 284
f 260 286 285
f 261 287 286
f 287 262 288
f 293 289 269
f 277 301 278
f 289 302 277
f 278 303 279
f 279 304 280
f 280 305 281
f 265 290 291
f 263 306 290
f 263 281 306
f 266 291 292
f 267 292 288
f 293 282 307
f 296 294 271
f 294 295 270
f 295 307 282
f 297 296 272
f 298 297 273
f 308 298 274
f 276 300 299
f 299 309 274
f 284 310 300
f 311 284 285
f 312 285 286
f 313 286 287
f 288 314 287
f 293 307 289
f 303 278 301
f 301 277 302
f 302 289 307
f 304 279 303
f 315 280 304
f 281 305 316
f 305 280 317
f 318 291 290
f 306 316 290
f 316 306 281
f 319 292 291
f 314 288 292
f 294 296 320
f 295 294 321
f 307 295 322
f 296 297 323
f 297 298 324
f 298 308 325
f 308 274 309
f 299 300 326
f 309 299 327
f 328 300 310
f 310 284 328
f 284 311 328
f 285 312 311
f 286 313 312
f 313 287 314
f 301 329 303
f 302 330 301
f 307 322 302
f 303 331 304
f 315 317 280
f 304 332 315
f 305 333 316
f 317 334 305
f 291 318 319
f 290 335 318
f 290 316 336
f 292 319 314
f 323 320 296
f 320 321 294
f 321 322 295
f 324 323 297
f 325 324 298
f 337 325 308
f 309 338 308
f 300 328 326
f 326 327 299
f 327 339 309
f 311 340 328
f 341 311 312
f 342 312 313
f 314 343 313
f 331 303 329
f 329 301 330
f 330 302 322
f 332 304 331
f 317 315 344
f 345 315 332
f 316 333 335
f 333 305 334
f 334 317 346
f 347 319 318
f 318 335 348
f 336 335 290
f 335 336 316
f 343 314 319
f 320 323 349
f 321 320 350
f 322 321 351
f 323 324 352
f 324 325 353
f 325 337 354
f 337 308 338
f 338 309 339
f 326 328 355
f 327 326 356
f 339 327 357
f 358 328 340
f 340 311 358
f 311 341 358
f 312 342 341
f 342 313 343
f 329 359 331
f 330 360 329
f 322 351 330
f 331 361 332
f 345 344 315
f 344 346 317
f 332 362 345
f 333 363 335
f 334 364 333
f 346 365 334
f 319 347 343
f 318 348 347
f 366 348 335
f 352 349 323
f 349 350 320
f 350 351 321
f 353 352 324
f 354 353 325
f 367 354 337
f 338 368 337
f 339 369 338
f 328 358 355
f 355 356 326
f 356 357 327
f 357 370 339
f 341 371 358
f 372 341 342
f 343 373 342
f 361 331 359
f 359 329 360
f 360 330 351
f 362 332 361
f 344 345 374
f 346 344 375
f 376 345 362
f 335 363 366
f 363 333 364
f 364 334 365
f 365 346 377
f 373 343 347
f 348 366 347
f 349 352 378
f 350 349 379
f 351 350 380
f 352 353 381
f 353 354 382
f 354 367 383
f 367 337 368
f 368 338 369
f 369 339 370
f 355 358 384
f 356 355 385
f 357 356 386
f 370 357 387
f 388 358 371
f 341 372 371
f 372 342 373
f 359 389 361
f 360 390 359
f 351 380 360
f 361 391 362
f 376 374 345
f 374 375 344
f 375 377 346
f 362 392 376
f 363 393 366
f 364 394 363
f 365 395 364
f 377 396 365
f 347 397 373
f 347 366 397
f 381 378 352
f 378 379 349
f 379 380 350
f 382 381 353
f 383 382 354
f 398 383 367
f 368 399 367
f 369 400 368
f 370 401 369
f 358 388 384
f 384 385 355
f 385 386 356
f 386 387 357
f 387 402 370
f 371 372 388
f 373 403 372
f 391 361 389
f 389 359 390
f 390 360 380
f 392 362 391
f 374 376 404
f 375 374 405
f 377 375 406
f 407 376 392
f 366 393 408
f 393 363 394
f 394 364 395
f 395 365 396
f 396 377 409
f 397 408 373
f 408 397 366
f 378 381 410
f 379 378 411
f 380 379 412
f 381 382 413
f 382 383 414
f 383 398 415
f 398 367 399
f 399 368 400
f 400 369 401
f 401 370 402
f 384 388 416
f 385 384 417
f 386 385 418
f 387 386 419
f 402 387 420
f 372 421 388
f 372 403 421
f 373 408 403
f 389 422 391
f 390 423 389
f 380 412 390
f 391 424 392
f 407 404 376
f 404 405 374
f 405 406 375
f 406 409 377
f 392 425 407
f 393 426 408
f 394 427 393
f 395 428 394
f 396 429 395
f 409 430 396
f 413 410 381
f 410 411 378
f 411 412 379
f 414 413 382
f 415 414 383
f 431 415 398
f 399 432 398
f 400 433 399
f 401 434 400
f 402 435 401
f 388 436 416
f 416 417 384
f 417 418 385
f 418 419 386
f 419 420 387
f 420 437 402
f 436 388 421
f 403 438 421
f 438 403 408
f 424 391 422
f 422 389 423
f 423 390 412
f 425 392 424
f 404 407 439
f 405 404 440
f 406 405 441
f 409 406 442
f 443 407 425
f 408 426 438
f 426 393 427
f 427 394 428
f 428 395 429
f 429 396 430
f 430 409 444
f 410 413 445
f 411 410 446
f 412 411 447
f 413 414 448
f 414 415 449
f 415 431 450
f 431 398 432
f 432 399 433
f 433 400 434
f 434 401 435
f 435 402 437
f 436 451 416
f 417 416 452
f 418 417 453
f 419 418 454
f 420 419 455
f 437 420 456
f 436 421 438
f 422 457 424
f 423 458 422
f 412 447 423
f 424 459 425
f 443 439 407
f 439 440 404
f 440 441 405
f 441 442 406
f 442 444 409
f 425 460 443
f 426 451 438
f 427 461 426
f 428 462 427
f 429 463 428
f 430 464 429
f 444 465 430
f 448 445 413
f 445 446 410
f 446 447 411
f 449 448 414
f 450 449 415
f 466 450 431
f 432 467 431
f 433 468 432
f 434 469 433
f 435 470 434
f 437 471 435
f 472 416 451
f 436 438 451
f 472 452 416
f 452 453 417
f 453 454 418
f 454 455 419
f 455 456 420
f 456 473 437
f 459 424 457
f 457 422 458
f 458 423 447
f 460 425 459
f 439 443 474
f 440 439 475
f 441 440 476
f 442 441 477
f 444 442 478
f 479 443 460
f 451 426 461
f 461 427 462
f 462 428 463
f 463 429 464
f 464 430 465
f 465 444 480
f 445 448 481
f 446 445 482
f 447 446 483
f 448 449 484
f 449 450 485
f 450 466 486
f 466 431 467
f 467 432 468
f 468 433 469
f 469 434 470
f 470 435 471
f 471 437 473
f 472 451 452
f 452 461 453
f 453 462 454
f 454 463 455
f 455 464 456
f 456 465 473
f 457 487 459
f 458 488 457
f 447 483 458
f 459 489 460
f 479 474 443
f 474 475 439
f 475 476 440
f 476 477 441
f 477 478 442
f 478 480 444
f 460 490 479
f 461 452 451
f 462 453 461
f 463 454 462
f 464 455 463
f 465 456 464
f 480 473 465
f 484 481 448
f 481 482 445
f 482 483 446
f 485 484 449
f 486 485 450
f 491 486 466
f 467 492 466
f 468 493 467
f 469 494 468
f 470 495 469
f 471 496 470
f 473 497 471
f 489 459 487
f 487 457 488
f 488 458 483
f 490 460 489
f 474 479 498
f 475 474 499
f 476 475 500
f 477 476 501
f 478 477 502
f 480 478 503
f 504 479 490
f 473 480 497
f 481 484 505
f 482 481 506
f 483 482 507
f 484 485 508
f 485 486 509
f 486 491 510
f 491 466 492
f 492 467 493
f 493 468 494
f 494 469 495
f 495 470 496
f 496 471 497
f 487 511 489
f 488 512 487
f 483 507 488
f 489 513 490
f 504 498 479
f 498 499 474
f 499 500 475
f 500 501 476
f 501 502 477
f 502 503 478
f 503 497 480
f 490 514 504
f 508 505 484
f 505 506 481
f 506 507 482
f 509 508 485
f 510 509 486
f 515 510 491
f 492 516 491
f 493 517 492
f 494 518 493
f 495 519 494
f 496 520 495
f 497 521 496
f 513 489 511
f 511 487 512
f 512 488 507
f 514 490 513
f 498 504 522
f 499 498 523
f 500 499 524
f 501 500 525
f 502 501 526
f 503 502 527
f 497 503 521
f 528 504 514
f 505 508 529
f 506 505 530
f 507 506 531
f 508 509 532
f 509 510 533
f 510 515 534
f 515 491 516
f 516 492 517
f 517 493 518
f 518 494 519
f 519 495 520
f 520 496 521
f 511 535 513
f 512 536 511
f 507 531 512
f 513 537 514
f 528 522 504
f 522 523 498
f 523 524 499
f 524 525 500
f 525 526 501
f 526 527 502
f 527 521 503
f 514 538 528
f 532 529 508
f 529 530 505
f 530 539 506
f 531 506 539
f 533 532 509
f 534 533 510
f 540 534 515
f 516 541 515
f 517 542 516
f 518 543 517
f 519 544 518
f 520 545 519
f 521 546 520
f 537 513 535
f 535 511 536
f 536 512 531
f 538 514 537
f 522 528 547
f 523 522 548
f 524 523 549
f 525 524 550
f 526 525 551
f 527 526 552
f 521 527 546
f 553 528 538
f 532 554 529
f 529 554 530
f 530 554 539
f 531 539 554
f 533 554 532
f 534 554 533
f 540 554 534
f 540 515 541
f 541 516 542
f 542 517 543
f 543 518 544
f 544 519 545
f 545 520 546
f 554 537 535
f 554 535 536
f 554 536 531
f 554 538 537
f 553 547 528
f 547 548 522
f 548 549 523
f 549 550 524
f 550 551 525
f 551 552 526
f 552 546 527
f 554 553 538
f 541 554 540
f 541 542 554
f 542 543 554
f 543 544 554
f 544 545 554
f 545 546 554
f 554 547 553
f 548 547 554
f 549 548 554
f 550 549 554
f 551 550 554
f 552 551 554
f 546 552 554
f 555 556 557
f 556 555 558
f 558 555 559
f 558 559 560
f 560 559 561
f 560 561 562
f 562 561 563
f 562 563 564
f 564 563 565
f 564 565 566
f 566 565 567
f 566 567 568
f 568 567 569
f 568 569 570
f 570 569 571
f 570 571 572
f 572 571 573
f 572 573 574
f 574 573 575
f 574 575 576
f 576 575 577
f 576 577 578
f 557 556 555
f 558 555 556
f 559 555 558
f 560 559 558
f 561 559 560
f 562 561 560
f 563 561 562
f 564 563 562
f 565 563 564
f 566 565 564
f 567 565 566
f 568 567 566
f 569 567 568
f 570 569 568
f 571 569 570
f 572 571 570
f 573 571 572
f 574 573 572
f 575 573 574
f 576 575 574
f 577 575 576
f 578 577 576
f 579 580 581
f 580 579 582
f 583 581 580
f 581 584 579
f 579 585 582
f 582 586 580
f 581 583 587
f 586 583 580
f 584 581 588
f 584 589 579
f 585 579 589
f 585 590 582
f 586 582 590
f 591 587 583
f 587 588 581
f 583 586 592
f 588 593 584
f 589 584 594
f 589 595 585
f 590 585 596
f 587 591 597
f 592 591 583
f 588 587 598
f 593 588 599
f 593 594 584
f 594 600 589
f 595 589 600
f 595 596 585
f 591 601 597
f 597 598 587
f 591 592 602
f 598 599 588
f 599 603 593
f 594 593 604
f 600 594 605
f 606 595 600
f 596 595 607
f 601 591 608
f 601 609 597
f 598 597 609
f 602 608 591
f 599 598 610
f 603 599 611
f 603 604 593
f 604 605 594
f 605 606 600
f 595 606 612
f 612 607 595
f 608 613 601
f 609 601 614
f 609 610 598
f 608 602 615
f 610 611 599
f 611 616 603
f 604 603 617
f 605 604 618
f 606 605 619
f 606 620 612
f 607 612 621
f 613 608 622
f 623 601 613
f 601 623 614
f 614 624 609
f 610 609 624
f 615 622 608
f 611 610 625
f 616 611 626
f 616 617 603
f 617 618 604
f 618 619 605
f 619 627 606
f 620 606 627
f 620 621 612
f 622 628 613
f 613 629 623
f 630 614 623
f 624 614 631
f 624 625 610
f 622 615 632
f 625 626 611
f 633 616 626
f 617 616 634
f 618 617 635
f 619 618 636
f 627 619 637
f 627 638 620
f 621 620 639
f 628 622 640
f 629 613 628
f 641 623 629
f 614 630 631
f 623 641 630
f 631 642 624
f 625 624 642
f 632 640 622
f 626 625 643
f 616 633 644
f 626 645 633
f 616 646 634
f 634 635 617
f 635 636 618
f 636 637 619
f 637 647 627
f 638 627 647
f 638 639 620
f 640 648 628
f 628 649 629
f 629 650 641
f 651 631 630
f 652 630 641
f 642 631 653
f 642 643 625
f 640 632 654
f 645 626 643
f 655 644 633
f 646 616 644
f 656 633 645
f 657 634 646
f 635 634 658
f 636 635 659
f 637 636 660
f 647 637 661
f 647 662 638
f 639 638 663
f 648 640 664
f 649 628 648
f 650 629 649
f 665 641 650
f 631 651 653
f 630 652 651
f 641 665 652
f 653 666 642
f 643 642 666
f 667 640 654
f 643 668 645
f 644 655 669
f 633 656 655
f 644 670 646
f 645 671 656
f 634 657 658
f 646 672 657
f 658 659 635
f 659 660 636
f 660 661 637
f 661 673 647
f 662 647 673
f 674 638 662
f 638 674 663
f 640 667 664
f 664 675 648
f 648 676 649
f 649 677 650
f 650 678 665
f 679 653 651
f 680 651 652
f 681 652 665
f 666 653 682
f 668 643 666
f 671 645 668
f 683 669 655
f 670 644 669
f 684 655 656
f 672 646 670
f 685 656 671
f 657 686 658
f 672 687 657
f 659 658 686
f 660 659 688
f 661 660 689
f 673 661 690
f 673 691 662
f 662 692 674
f 693 664 667
f 675 664 694
f 676 648 675
f 677 649 676
f 678 650 677
f 695 665 678
f 653 679 682
f 651 680 679
f 652 681 680
f 665 695 681
f 696 666 682
f 666 696 668
f 668 697 671
f 669 683 698
f 655 684 683
f 669 699 670
f 656 685 684
f 670 700 672
f 671 701 685
f 686 657 687
f 687 672 702
f 686 688 659
f 688 689 660
f 689 690 661
f 690 703 673
f 691 673 703
f 692 662 691
f 664 693 694
f 694 704 675
f 675 705 676
f 676 706 677
f 677 707 678
f 678 708 695
f 709 682 679
f 710 679 680
f 711 680 681
f 712 681 695
f 682 709 696
f 697 668 696
f 701 671 697
f 713 698 683
f 699 669 698
f 714 683 684
f 700 670 699
f 715 684 685
f 700 702 672
f 716 685 701
f 687 717 686
f 702 718 687
f 688 686 717
f 689 688 719
f 690 689 720
f 703 690 721
f 703 722 691
f 691 723 692
f 724 694 693
f 704 694 725
f 705 675 704
f 706 676 705
f 707 677 706
f 708 678 707
f 726 695 708
f 679 710 709
f 680 711 710
f 681 712 711
f 695 726 712
f 727 696 709
f 696 727 697
f 697 728 701
f 698 713 729
f 683 714 713
f 698 730 699
f 684 715 714
f 699 731 700
f 685 716 715
f 702 700 732
f 701 733 716
f 717 687 718
f 718 702 734
f 717 719 688
f 719 720 689
f 720 721 690
f 721 735 703
f 722 703 735
f 723 691 722
f 694 724 725
f 736 704 725
f 704 737 705
f 705 738 706
f 706 739 707
f 707 740 708
f 708 741 726
f 742 709 710
f 743 710 711
f 744 711 712
f 745 712 726
f 709 742 727
f 728 697 727
f 733 701 728
f 746 729 713
f 730 698 729
f 747 713 714
f 731 699 730
f 748 714 715
f 731 732 700
f 716 748 715
f 732 734 702
f 749 716 733
f 718 750 717
f 734 751 718
f 719 717 750
f 720 719 752
f 721 720 753
f 735 721 754
f 735 755 722
f 722 756 723
f 757 725 724
f 704 736 758
f 725 757 736
f 737 704 758
f 738 705 737
f 739 706 738
f 740 707 739
f 741 708 740
f 759 726 741
f 710 743 742
f 711 744 743
f 712 745 744
f 726 759 745
f 760 727 742
f 727 760 728
f 728 761 733
f 729 746 762
f 713 747 746
f 729 763 730
f 714 748 747
f 730 764 731
f 732 731 765
f 748 716 766
f 734 732 767
f 716 749 766
f 733 768 749
f 750 718 751
f 751 734 769
f 750 752 719
f 752 753 720
f 753 754 721
f 770 735 754
f 755 735 771
f 756 722 755
f 736 772 758
f 773 736 757
f 758 774 737
f 737 775 738
f 738 776 739
f 739 777 740
f 777 741 740
f 778 759 741
f 779 742 743
f 780 743 744
f 781 744 745
f 782 745 759
f 742 779 760
f 761 728 760
f 768 733 761
f 783 762 746
f 763 729 762
f 747 783 746
f 764 730 763
f 748 784 747
f 764 765 731
f 765 767 732
f 766 785 748
f 767 769 734
f 749 786 766
f 768 787 749
f 751 788 750
f 769 789 751
f 752 750 788
f 753 752 790
f 754 753 791
f 735 770 771
f 754 792 770
f 793 755 771
f 755 794 756
f 772 736 795
f 774 758 772
f 736 773 795
f 775 737 774
f 776 738 775
f 777 739 776
f 741 777 778
f 759 778 796
f 743 780 779
f 744 781 780
f 745 782 781
f 796 782 759
f 797 760 779
f 760 797 761
f 761 798 768
f 799 762 783
f 800 763 762
f 783 747 784
f 801 764 763
f 784 748 785
f 765 764 802
f 767 765 803
f 785 766 786
f 769 767 804
f 786 749 787
f 787 768 805
f 788 751 789
f 789 769 806
f 788 790 752
f 790 791 753
f 792 754 791
f 807 771 770
f 808 770 792
f 755 793 809
f 771 807 793
f 794 755 809
f 795 810 772
f 772 811 774
f 812 795 773
f 774 813 775
f 775 814 776
f 776 815 777
f 815 778 777
f 816 796 778
f 817 779 780
f 818 780 781
f 819 781 782
f 782 796 820
f 779 817 797
f 798 761 797
f 821 768 798
f 762 799 800
f 763 800 801
f 764 801 822
f 822 802 764
f 802 803 765
f 803 804 767
f 804 806 769
f 768 821 805
f 789 823 788
f 806 824 789
f 790 788 823
f 791 790 825
f 791 826 792
f 770 808 807
f 792 827 808
f 828 809 793
f 829 793 807
f 809 830 794
f 810 795 831
f 811 772 810
f 813 774 811
f 795 812 831
f 814 775 813
f 815 776 814
f 778 815 816
f 796 816 832
f 780 818 817
f 781 819 818
f 820 819 782
f 832 820 796
f 833 797 817
f 797 833 798
f 798 834 821
f 802 822 835
f 803 802 836
f 804 803 837
f 806 804 838
f 823 789 824
f 824 806 839
f 823 825 790
f 826 791 825
f 827 792 826
f 840 807 808
f 841 808 827
f 809 828 842
f 793 829 828
f 807 840 829
f 830 809 842
f 831 828 810
f 810 829 811
f 811 840 813
f 830 831 812
f 813 841 814
f 814 843 815
f 843 816 815
f 844 832 816
f 845 817 818
f 846 818 819
f 819 820 847
f 820 832 848
f 817 845 833
f 834 798 833
f 835 836 802
f 836 837 803
f 837 838 804
f 838 839 806
f 824 849 823
f 839 850 824
f 825 823 849
f 825 851 826
f 826 852 827
f 808 841 840
f 827 843 841
f 828 831 842
f 829 810 828
f 840 811 829
f 831 830 842
f 841 813 840
f 843 814 841
f 816 843 844
f 832 844 853
f 818 846 845
f 847 846 819
f 848 847 820
f 853 848 832
f 854 833 845
f 833 854 834
f 836 835 855
f 837 836 856
f 838 837 857
f 839 838 858
f 849 824 850
f 850 839 859
f 851 825 849
f 852 826 851
f 843 827 852
f 843 860 844
f 844 861 853
f 862 845 846
f 846 847 863
f 847 848 864
f 848 853 865
f 845 862 854
f 855 856 836
f 856 857 837
f 857 858 838
f 858 859 839
f 850 851 849
f 859 866 850
f 866 852 851
f 860 843 852
f 861 844 860
f 867 853 861
f 846 868 862
f 864 863 847
f 868 846 863
f 865 864 848
f 853 867 865
f 856 855 869
f 857 856 870
f 858 857 871
f 859 858 872
f 851 850 866
f 866 859 873
f 852 866 860
f 860 873 861
f 861 874 867
f 863 864 875
f 863 876 868
f 864 865 877
f 878 865 867
f 879 856 869
f 856 879 870
f 870 871 857
f 871 872 858
f 872 873 859
f 873 860 866
f 874 861 873
f 880 867 874
f 877 875 864
f 876 863 875
f 865 878 877
f 867 880 878
f 881 870 879
f 871 870 882
f 872 871 883
f 873 872 874
f 874 883 880
f 875 877 884
f 875 885 876
f 886 877 878
f 887 878 880
f 870 881 882
f 882 883 871
f 883 874 872
f 883 887 880
f 877 886 884
f 885 875 884
f 878 887 886
f 888 882 881
f 883 882 889
f 887 883 889
f 886 885 884
f 887 890 886
f 882 888 889
f 889 891 887
f 885 886 890
f 890 887 891
f 891 889 888
f 581 580 579
f 582 579 580
f 580 581 583
f 579 584 581
f 582 585 579
f 580 586 582
f 587 583 581
f 580 583 586
f 588 581 584
f 579 589 584
f 589 579 585
f 582 590 585
f 590 582 586
f 583 587 591
f 581 588 587
f 592 586 583
f 584 593 588
f 594 584 589
f 585 595 589
f 596 585 590
f 597 591 587
f 583 591 592
f 598 587 588
f 599 588 593
f 584 594 593
f 589 600 594
f 600 589 595
f 585 596 595
f 597 601 591
f 587 598 597
f 602 592 591
f 588 599 598
f 593 603 599
f 604 593 594
f 605 594 600
f 600 595 606
f 607 595 596
f 608 591 601
f 597 609 601
f 609 597 598
f 591 608 602
f 610 598 599
f 611 599 603
f 593 604 603
f 594 605 604
f 600 606 605
f 612 606 595
f 595 607 612
f 601 613 608
f 614 601 609
f 598 610 609
f 615 602 608
f 599 611 610
f 603 616 611
f 617 603 604
f 618 604 605
f 619 605 606
f 612 620 606
f 621 612 607
f 622 608 613
f 613 601 623
f 614 623 601
f 609 624 614
f 624 609 610
f 608 622 615
f 625 610 611
f 626 611 616
f 603 617 616
f 604 618 617
f 605 619 618
f 606 627 619
f 627 606 620
f 612 621 620
f 613 628 622
f 623 629 613
f 623 614 630
f 631 614 624
f 610 625 624
f 632 615 622
f 611 626 625
f 626 616 633
f 634 616 617
f 635 617 618
f 636 618 619
f 637 619 627
f 620 638 627
f 639 620 621
f 640 622 628
f 628 613 629
f 629 623 641
f 631 630 614
f 630 641 623
f 624 642 631
f 642 624 625
f 622 640 632
f 643 625 626
f 644 633 616
f 633 645 626
f 634 646 616
f 617 635 634
f 618 636 635
f 619 637 636
f 627 647 637
f 647 627 638
f 620 639 638
f 628 648 640
f 629 649 628
f 641 650 629
f 630 631 651
f 641 630 652
f 653 631 642
f 625 643 642
f 654 632 640
f 643 626 645
f 633 644 655
f 644 616 646
f 645 633 656
f 646 634 657
f 658 634 635
f 659 635 636
f 660 636 637
f 661 637 647
f 638 662 647
f 663 638 639
f 664 640 648
f 648 628 649
f 649 629 650
f 650 641 665
f 653 651 631
f 651 652 630
f 652 665 641
f 642 666 653
f 666 642 643
f 654 640 667
f 645 668 643
f 669 655 644
f 655 656 633
f 646 670 644
f 656 671 645
f 658 657 634
f 657 672 646
f 635 659 658
f 636 660 659
f 637 661 660
f 647 673 661
f 673 647 662
f 662 638 674
f 663 674 638
f 664 667 640
f 648 675 664
f 649 676 648
f 650 677 649
f 665 678 650
f 651 653 679
f 652 651 680
f 665 652 681
f 682 653 666
f 666 643 668
f 668 645 671
f 655 669 683
f 669 644 670
f 656 655 684
f 670 646 672
f 671 656 685
f 658 686 657
f 657 687 672
f 686 658 659
f 688 659 660
f 689 660 661
f 690 661 673
f 662 691 673
f 674 692 662
f 667 664 693
f 694 664 675
f 675 648 676
f 676 649 677
f 677 650 678
f 678 665 695
f 682 679 653
f 679 680 651
f 680 681 652
f 681 695 665
f 682 666 696
f 668 696 666
f 671 697 668
f 698 683 669
f 683 684 655
f 670 699 669
f 684 685 656
f 672 700 670
f 685 701 671
f 687 657 686
f 702 672 687
f 659 688 686
f 660 689 688
f 661 690 689
f 673 703 690
f 703 673 691
f 691 662 692
f 694 693 664
f 675 704 694
f 676 705 675
f 677 706 676
f 678 707 677
f 695 708 678
f 679 682 709
f 680 679 710
f 681 680 711
f 695 681 712
f 696 709 682
f 696 668 697
f 697 671 701
f 683 698 713
f 698 669 699
f 684 683 714
f 699 670 700
f 685 684 715
f 672 702 700
f 701 685 716
f 686 717 687
f 687 718 702
f 717 686 688
f 719 688 689
f 720 689 690
f 721 690 703
f 691 722 703
f 692 723 691
f 693 694 724
f 725 694 704
f 704 675 705
f 705 676 706
f 706 677 707
f 707 678 708
f 708 695 726
f 709 710 679
f 710 711 680
f 711 712 681
f 712 726 695
f 709 696 727
f 697 727 696
f 701 728 697
f 729 713 698
f 713 714 683
f 699 730 698
f 714 715 684
f 700 731 699
f 715 716 685
f 732 700 702
f 716 733 701
f 718 687 717
f 734 702 718
f 688 719 717
f 689 720 719
f 690 721 720
f 703 735 721
f 735 703 722
f 722 691 723
f 725 724 694
f 725 704 736
f 705 737 704
f 706 738 705
f 707 739 706
f 708 740 707
f 726 741 708
f 710 709 742
f 711 710 743
f 712 711 744
f 726 712 745
f 727 742 709
f 727 697 728
f 728 701 733
f 713 729 746
f 729 698 730
f 714 713 747
f 730 699 731
f 715 714 748
f 700 732 731
f 715 748 716
f 702 734 732
f 733 716 749
f 717 750 718
f 718 751 734
f 750 717 719
f 752 719 720
f 753 720 721
f 754 721 735
f 722 755 735
f 723 756 722
f 724 725 757
f 758 736 704
f 736 757 725
f 758 704 737
f 737 705 738
f 738 706 739
f 739 707 740
f 740 708 741
f 741 726 759
f 742 743 710
f 743 744 711
f 744 745 712
f 745 759 726
f 742 727 760
f 728 760 727
f 733 761 728
f 762 746 729
f 746 747 713
f 730 763 729
f 747 748 714
f 731 764 730
f 765 731 732
f 766 716 748
f 767 732 734
f 766 749 716
f 749 768 733
f 751 718 750
f 769 734 751
f 719 752 750
f 720 753 752
f 721 754 753
f 754 735 770
f 771 735 755
f 755 722 756
f 758 772 736
f 757 736 773
f 737 774 758
f 738 775 737
f 739 776 738
f 740 777 739
f 740 741 777
f 741 759 778
f 743 742 779
f 744 743 780
f 745 744 781
f 759 745 782
f 760 779 742
f 760 728 761
f 761 733 768
f 746 762 783
f 762 729 763
f 746 783 747
f 763 730 764
f 747 784 748
f 731 765 764
f 732 767 765
f 748 785 766
f 734 769 767
f 766 786 749
f 749 787 768
f 750 788 751
f 751 789 769
f 788 750 752
f 790 752 753
f 791 753 754
f 771 770 735
f 770 792 754
f 771 755 793
f 756 794 755
f 795 736 772
f 772 758 774
f 795 773 736
f 774 737 775
f 775 738 776
f 776 739 777
f 778 777 741
f 796 778 759
f 779 780 743
f 780 781 744
f 781 782 745
f 759 782 796
f 779 760 797
f 761 797 760
f 768 798 761
f 783 762 799
f 762 763 800
f 784 747 783
f 763 764 801
f 785 748 784
f 802 764 765
f 803 765 767
f 786 766 785
f 804 767 769
f 787 749 786
f 805 768 787
f 789 751 788
f 806 769 789
f 752 790 788
f 753 791 790
f 791 754 792
f 770 771 807
f 792 770 808
f 809 793 755
f 793 807 771
f 809 755 794
f 772 810 795
f 774 811 772
f 773 795 812
f 775 813 774
f 776 814 775
f 777 815 776
f 777 778 815
f 778 796 816
f 780 779 817
f 781 780 818
f 782 781 819
f 820 796 782
f 797 817 779
f 797 761 798
f 798 768 821
f 800 799 762
f 801 800 763
f 822 801 764
f 764 802 822
f 765 803 802
f 767 804 803
f 769 806 804
f 805 821 768
f 788 823 789
f 789 824 806
f 823 788 790
f 825 790 791
f 792 826 791
f 807 808 770
f 808 827 792
f 793 809 828
f 807 793 829
f 794 830 809
f 831 795 810
f 810 772 811
f 811 774 813
f 831 812 795
f 813 775 814
f 814 776 815
f 816 815 778
f 832 816 796
f 817 818 780
f 818 819 781
f 782 819 820
f 796 820 832
f 817 797 833
f 798 833 797
f 821 834 798
f 835 822 802
f 836 802 803
f 837 803 804
f 838 804 806
f 824 789 823
f 839 806 824
f 790 825 823
f 825 791 826
f 826 792 827
f 808 807 840
f 827 808 841
f 842 828 809
f 828 829 793
f 829 840 807
f 842 809 830
f 810 828 831
f 811 829 810
f 813 840 811
f 812 831 830
f 814 841 813
f 815 843 814
f 815 816 843
f 816 832 844
f 818 817 845
f 819 818 846
f 847 820 819
f 848 832 820
f 833 845 817
f 833 798 834
f 802 836 835
f 803 837 836
f 804 838 837
f 806 839 838
f 823 849 824
f 824 850 839
f 849 823 825
f 826 851 825
f 827 852 826
f 840 841 808
f 841 843 827
f 842 831 828
f 828 810 829
f 829 811 840
f 842 830 831
f 840 813 841
f 841 814 843
f 844 843 816
f 853 844 832
f 845 846 818
f 819 846 847
f 820 847 848
f 832 848 853
f 845 833 854
f 834 854 833
f 855 835 836
f 856 836 837
f 857 837 838
f 858 838 839
f 850 824 849
f 859 839 850
f 849 825 851
f 851 826 852
f 852 827 843
f 844 860 843
f 853 861 844
f 846 845 862
f 863 847 846
f 864 848 847
f 865 853 848
f 854 862 845
f 836 856 855
f 837 857 856
f 838 858 857
f 839 859 858
f 849 851 850
f 850 866 859
f 851 852 866
f 852 843 860
f 860 844 861
f 861 853 867
f 862 868 846
f 847 863 864
f 863 846 868
f 848 864 865
f 865 867 853
f 869 855 856
f 870 856 857
f 871 857 858
f 872 858 859
f 866 850 851
f 873 859 866
f 860 866 852
f 861 873 860
f 867 874 861
f 875 864 863
f 868 876 863
f 877 865 864
f 867 865 878
f 869 856 879
f 870 879 856
f 857 871 870
f 858 872 871
f 859 873 872
f 866 860 873
f 873 861 874
f 874 867 880
f 864 875 877
f 875 863 876
f 877 878 865
f 878 880 867
f 879 870 881
f 882 870 871
f 883 871 872
f 874 872 873
f 880 883 874
f 884 877 875
f 876 885 875
f 878 877 886
f 880 878 887
f 882 881 870
f 871 883 882
f 872 874 883
f 880 887 883
f 884 886 877
f 884 875 885
f 886 887 878
f 881 882 888
f 889 882 883
f 889 883 887
f 884 885 886
f 886 890 887
f 889 888 882
f 887 891 889
f 890 886 885
f 891 887 890
f 888 889 891

