# https://github.com/mikedh/trimesh
v 0.14139375 0.17930223 -0.50000000
v 0.14139375 -0.16496042 -0.48360663
v 0.14139375 -0.16496042 -0.50000000
v 0.14139375 0.17930223 -0.48360663
v -0.14549149 -0.16496042 -0.50000000
v -0.14549149 0.17930223 -0.48360663
v 0.12500037 0.17930223 -0.48360663
v -0.14549149 -0.16496042 -0.48360663
v -0.14549149 0.17930223 -0.50000000
v 0.12500037 0.16290886 -0.48360663
v 0.12500037 -0.16496042 -0.48360663
v -0.14549149 -0.14856704 -0.48360663
v -0.14549149 0.16290886 -0.48360663
v -0.12909812 0.16290886 -0.48360663
v 0.12500037 -0.14856704 -0.48360663
v 0.12500037 -0.14856704 0.10655723
v -0.12909812 0.16290886 0.10655723
v -0.12909812 -0.14856704 -0.48360663
v 0.12500037 0.16290886 0.10655723
v -0.12909812 -0.14856704 0.10655723
v -0.22131145 0.29508223 0.12295060
v -0.20491807 0.27868826 0.12295060
v -0.22131145 -0.29508223 0.12295060
v 0.22131145 0.29508223 0.12295060
v -0.20491807 -0.27868885 0.12295060
v -0.22131145 0.29508223 0.50000000
v 0.20491807 0.27868826 0.12295060
v 0.22131145 -0.29508223 0.12295060
v -0.20491807 -0.27868885 0.50000000
v -0.22131145 -0.29508223 0.50000000
v 0.22131145 0.29508223 0.50000000
v 0.20491807 -0.27868885 0.12295060
v 0.20491807 0.27868826 0.50000000
v 0.22131145 -0.29508223 0.50000000
v -0.20491807 0.27868826 0.50000000
v 0.20491807 -0.27868885 0.50000000
f 1 2 3
f 2 1 4
f 3 2 1
f 4 1 2
f 2 5 3
f 3 5 2
f 5 1 3
f 3 1 5
f 1 6 4
f 4 6 1
f 7 2 4
f 4 2 7
f 5 2 8
f 8 2 5
f 1 5 9
f 9 5 1
f 6 1 9
f 9 1 6
f 4 6 7
f 7 6 4
f 10 2 7
f 7 2 10
f 8 2 11
f 11 2 8
f 12 5 8
f 8 5 12
f 5 12 9
f 9 12 5
f 9 13 6
f 6 13 9
f 6 14 7
f 7 14 6
f 15 2 10
f 10 2 15
f 7 14 10
f 10 14 7
f 2 15 11
f 11 15 2
f 11 12 8
f 8 12 11
f 9 12 13
f 13 12 9
f 14 6 13
f 13 6 14
f 14 15 10
f 10 15 14
f 10 16 15
f 15 16 10
f 17 10 14
f 14 10 17
f 18 11 15
f 15 11 18
f 12 11 18
f 18 11 12
f 18 13 12
f 12 13 18
f 13 18 14
f 14 18 13
f 15 14 18
f 18 14 15
f 16 10 19
f 19 10 16
f 16 18 15
f 15 18 16
f 10 17 19
f 19 17 10
f 18 17 14
f 14 17 18
f 17 16 19
f 19 16 17
f 18 16 20
f 20 16 18
f 17 18 20
f 20 18 17
f 16 17 20
f 20 17 16
f 21 22 23
f 22 21 24
f 23 22 21
f 24 21 22
f 25 23 22
f 22 23 25
f 23 26 21
f 21 26 23
f 26 24 21
f 21 24 26
f 22 24 27
f 27 24 22
f 23 25 28
f 28 25 23
f 22 29 25
f 25 29 22
f 26 23 30
f 30 23 26
f 24 26 31
f 31 26 24
f 27 24 32
f 32 24 27
f 33 22 27
f 27 22 33
f 28 25 32
f 32 25 28
f 34 23 28
f 28 23 34
f 29 22 35
f 35 22 29
f 29 32 25
f 25 32 29
f 23 34 30
f 30 34 23
f 30 29 26
f 26 29 30
f 26 35 31
f 31 35 26
f 34 24 31
f 31 24 34
f 28 32 24
f 24 32 28
f 32 33 27
f 27 33 32
f 22 33 35
f 35 33 22
f 24 34 28
f 28 34 24
f 35 26 29
f 29 26 35
f 32 29 36
f 36 29 32
f 29 30 34
f 34 30 29
f 31 35 33
f 33 35 31
f 31 33 34
f 34 33 31
f 33 32 36
f 36 32 33
f 29 34 36
f 36 34 29
f 36 34 33
f 33 34 36

