# https://github.com/mikedh/trimesh
v 0.45434775 -0.23340831 0.31340571
v 0.46920290 -0.22725498 0.28441995
v 0.46920290 -0.22725498 0.31340571
v 0.45434775 -0.23340831 0.28441995
v 0.48195943 -0.21746636 0.28441995
v -0.45434701 -0.23340831 0.31340571
v 0.43840581 -0.23550693 0.31340571
v -0.46920290 -0.22725498 0.28441995
v 0.48195943 -0.21746636 0.31340571
v -0.43840506 -0.23550693 0.31340571
v -0.46920290 -0.22725498 0.31340571
v 0.43840581 -0.23550693 0.28441995
v -0.45434701 -0.23340831 0.28441995
v 0.49174805 -0.20470983 0.31340571
v -0.48195943 -0.21746636 0.28441995
v -0.43840506 -0.23550693 0.28441995
v 0.49174805 -0.20470983 0.28441995
v -0.48195943 -0.21746636 0.31340571
v 0.49790138 -0.18985469 0.31340571
v -0.49174730 -0.20470983 0.31340571
v -0.49174730 -0.20470983 0.28441995
v 0.49790138 -0.18985469 0.28441995
v 0.50000000 -0.17391274 0.31340571
v -0.49790064 -0.18985469 0.31340571
v -0.49790064 -0.18985469 0.28441995
v 0.50000000 -0.17391274 0.28441995
v 0.50000000 0.17391274 0.31340571
v -0.50000000 -0.17391274 0.31340571
v -0.50000000 -0.17391274 0.28441995
v 0.50000000 0.17391274 0.28441995
v 0.49790138 0.18985469 0.31340571
v -0.50000000 0.17391274 0.31340571
v -0.50000000 0.17391274 0.28441995
v 0.49790138 0.18985469 0.28441995
v -0.49790064 0.18985469 0.28441995
v 0.49174805 0.20470983 0.31340571
v -0.49790064 0.18985469 0.31340571
v -0.49174730 0.20470983 0.28441995
v 0.49174805 0.20470983 0.28441995
v -0.49174730 0.20470983 0.31340571
v 0.48195943 0.21746636 0.31340571
v -0.48195943 0.21746636 0.31340571
v -0.48195943 0.21746636 0.28441995
v 0.48195943 0.21746636 0.28441995
v 0.46920290 0.22725498 0.28441995
v 0.46920290 0.22725498 0.31340571
v -0.46920290 0.22725498 0.31340571
v -0.46920290 0.22725498 0.28441995
v 0.45434775 0.23340831 0.28441995
v -0.45434701 0.23340831 0.28441995
v 0.45434775 0.23340831 0.31340571
v -0.45434701 0.23340831 0.31340571
v 0.43840581 0.23550693 0.28441995
v -0.43840506 0.23550693 0.28441995
v -0.43840506 0.23550693 0.31340571
v 0.43840581 0.23550693 0.31340571
v 0.46376891 0.17391274 0.28441995
v 0.35507340 0.15942060 0.28441995
v 0.46376891 0.15942060 0.28441995
v 0.35507340 0.17391274 0.28441995
v 0.46376891 0.15942060 -0.31340571
v 0.35507340 0.17391274 -0.31340571
v 0.35507340 0.15942060 -0.31340571
v 0.46376891 0.17391274 -0.31340571
v 0.43310543 0.18659429 0.23182005
v 0.43310543 0.18659429 0.23557114
v 0.43335189 0.18659429 0.23369523
v 0.43238090 0.18659429 0.23007256
v 0.43335189 0.17340571 0.23369523
v 0.43310543 0.17340571 0.23182005
v 0.43238090 0.17340571 0.23007256
v 0.43238090 0.18659429 0.23731863
v 0.43310543 0.17340571 0.23557114
v 0.43122952 0.17340571 0.22857153
v 0.43122952 0.18659429 0.22857153
v 0.43238090 0.17340571 0.23731863
v 0.43122952 0.17340571 0.23881966
v 0.43122952 0.18659429 0.23881966
v 0.42972923 0.18659429 0.22742015
v 0.42972923 0.17340571 0.23997105
v 0.42972923 0.17340571 0.22742015
v 0.42972923 0.18659429 0.23997105
v 0.42798100 0.18659429 0.22669562
v 0.42798100 0.17340571 0.22669562
v 0.42798100 0.17340571 0.24069484
v 0.42798100 0.18659429 0.24069484
v 0.42610582 0.18659429 0.22644916
v 0.42610582 0.17340571 0.24094204
v 0.42610582 0.17340571 0.22644916
v 0.42610582 0.18659429 0.24094204
v 0.42422991 0.18659429 0.22669562
v 0.42422991 0.17340571 0.24069484
v 0.42422991 0.17340571 0.22669562
v 0.42422991 0.18659429 0.24069484
v 0.42248242 0.18659429 0.22742015
v 0.42248242 0.17340571 0.23997105
v 0.42248242 0.17340571 0.22742015
v 0.42248242 0.18659429 0.23997105
v 0.42098139 0.18659429 0.22857153
v 0.42098139 0.17340571 0.22857153
v 0.42098139 0.17340571 0.23881966
v 0.42098139 0.18659429 0.23881966
v 0.41983000 0.17340571 0.23007256
v 0.41983000 0.17340571 0.23731863
v 0.41983000 0.18659429 0.23007256
v 0.41983000 0.18659429 0.23731863
v 0.41910621 0.17340571 0.23182005
v 0.41910621 0.17340571 0.23557114
v 0.41910621 0.18659429 0.23557114
v 0.41910621 0.18659429 0.23182005
v 0.41885901 0.17340571 0.23369523
v 0.41885901 0.18659429 0.23369523
v 0.46376891 -0.15942060 0.28441995
v 0.35507340 -0.17391274 0.28441995
v 0.46376891 -0.17391274 0.28441995
v 0.35507340 -0.15942060 0.28441995
v 0.46376891 -0.17391274 -0.31340571
v 0.35507340 -0.15942060 -0.31340571
v 0.35507340 -0.17391274 -0.31340571
v 0.46376891 -0.15942060 -0.31340571
v 0.38238071 -0.17391274 0.23182005
v 0.38238071 -0.17391274 0.23557114
v 0.38262717 -0.17391274 0.23369523
v 0.38165692 -0.17391274 0.23007256
v 0.38262717 -0.18710131 0.23369523
v 0.38238071 -0.18710131 0.23182005
v 0.38165692 -0.18710131 0.23007256
v 0.38165692 -0.17391274 0.23731863
v 0.38238071 -0.18710131 0.23557114
v 0.38050480 -0.18710131 0.22857153
v 0.38050480 -0.17391274 0.22857153
v 0.38165692 -0.18710131 0.23731863
v 0.38050480 -0.18710131 0.23881966
v 0.38050480 -0.17391274 0.23881966
v 0.37900451 -0.17391274 0.22742015
v 0.37900451 -0.18710131 0.23997105
v 0.37900451 -0.18710131 0.22742015
v 0.37900451 -0.17391274 0.23997105
v 0.37725628 -0.17391274 0.22669562
v 0.37725628 -0.18710131 0.22669562
v 0.37725628 -0.18710131 0.24069484
v 0.37725628 -0.17391274 0.24069484
v 0.37538110 -0.17391274 0.22644916
v 0.37538110 -0.18710131 0.24094204
v 0.37538110 -0.18710131 0.22644916
v 0.37538110 -0.17391274 0.24094204
v 0.37350519 -0.17391274 0.22669562
v 0.37350519 -0.18710131 0.24069484
v 0.37350519 -0.18710131 0.22669562
v 0.37350519 -0.17391274 0.24069484
v 0.37175770 -0.17391274 0.22742015
v 0.37175770 -0.18710131 0.23997105
v 0.37175770 -0.18710131 0.22742015
v 0.37175770 -0.17391274 0.23997105
v 0.37025741 -0.17391274 0.22857153
v 0.37025741 -0.18710131 0.22857153
v 0.37025741 -0.18710131 0.23881966
v 0.37025741 -0.17391274 0.23881966
v 0.36910528 -0.18710131 0.23007256
v 0.36910528 -0.18710131 0.23731863
v 0.36910528 -0.17391274 0.23007256
v 0.36910528 -0.17391274 0.23731863
v 0.36838149 -0.18710131 0.23182005
v 0.36838149 -0.18710131 0.23557114
v 0.36838149 -0.17391274 0.23557114
v 0.36838149 -0.17391274 0.23182005
v 0.36813503 -0.18710131 0.23369523
v 0.36813503 -0.17391274 0.23369523
v 0.31884231 0.17391274 -0.31340571
v 0.31884231 -0.17391274 -0.31340571
v 0.31884231 -0.17391274 0.28441995
v 0.31884231 0.17391274 0.28441995
v 0.50000000 -0.17391274 -0.31340571
v 0.50000000 0.17391274 -0.31340571
v 0.35507340 -0.15942060 -0.29891357
v 0.46376891 0.15942060 -0.29891357
v 0.46376891 -0.15942060 -0.29891357
v 0.35507340 0.15942060 -0.29891357
v -0.41666611 0.16013102 -0.31340571
v -0.41142290 0.16230240 0.28441995
v -0.41142290 0.16230240 -0.31340571
v -0.41666611 0.16013102 0.28441995
v -0.40579663 0.16304326 0.28441995
v -0.40017037 0.16230240 -0.31340571
v -0.42116846 0.15667613 -0.31340571
v -0.40017037 0.16230240 0.28441995
v -0.40579663 0.16304326 -0.31340571
v -0.39492716 0.16013102 -0.31340571
v -0.42116846 0.15667613 0.28441995
v -0.39042481 0.15667613 -0.31340571
v -0.39492716 0.16013102 0.28441995
v -0.42462335 0.15217378 0.28441995
v -0.38696992 0.15217378 -0.31340571
v -0.39042481 0.15667613 0.28441995
v -0.42462335 0.15217378 -0.31340571
v -0.42679546 0.14693057 0.28441995
v -0.38696992 0.15217378 0.28441995
v -0.38479854 0.14693057 -0.31340571
v -0.42679546 0.14693057 -0.31340571
v -0.42753559 0.14130431 0.28441995
v -0.38479854 0.14693057 0.28441995
v -0.38405768 0.14130431 -0.31340571
v -0.42753559 0.14130431 -0.31340571
v -0.42679546 0.13567804 0.28441995
v -0.38405768 0.14130431 0.28441995
v -0.38479854 0.13567804 -0.31340571
v -0.42679546 0.13567804 -0.31340571
v -0.42462335 0.13043483 0.28441995
v -0.38479854 0.13567804 0.28441995
v -0.38696992 0.13043483 -0.31340571
v -0.42462335 0.13043483 -0.31340571
v -0.42116846 0.12593248 0.28441995
v -0.38696992 0.13043483 0.28441995
v -0.39042481 0.12593248 -0.31340571
v -0.42116846 0.12593248 -0.31340571
v -0.41666611 0.12247759 -0.31340571
v -0.39042481 0.12593248 0.28441995
v -0.39492716 0.12247759 -0.31340571
v -0.41666611 0.12247759 0.28441995
v -0.39492716 0.12247759 0.28441995
v -0.41142290 0.12030622 -0.31340571
v -0.40017037 0.12030622 -0.31340571
v -0.40017037 0.12030622 0.28441995
v -0.41142290 0.12030622 0.28441995
v -0.40579663 0.11956535 -0.31340571
v -0.40579663 0.11956535 0.28441995
v -0.42753559 0.16304326 -0.31340571
v -0.41666611 -0.12247759 -0.31340571
v -0.41142290 -0.12030622 0.28441995
v -0.41142290 -0.12030622 -0.31340571
v -0.41666611 -0.12247759 0.28441995
v -0.40579663 -0.11956535 0.28441995
v -0.40017037 -0.12030622 -0.31340571
v -0.42116846 -0.12593248 -0.31340571
v -0.40017037 -0.12030622 0.28441995
v -0.40579663 -0.11956535 -0.31340571
v -0.39492716 -0.12247759 -0.31340571
v -0.42116846 -0.12593248 0.28441995
v -0.39042481 -0.12593248 -0.31340571
v -0.39492716 -0.12247759 0.28441995
v -0.42462335 -0.13043483 0.28441995
v -0.38696992 -0.13043483 -0.31340571
v -0.39042481 -0.12593248 0.28441995
v -0.42462335 -0.13043483 -0.31340571
v -0.42679546 -0.13567804 0.28441995
v -0.38696992 -0.13043483 0.28441995
v -0.38479854 -0.13567804 -0.31340571
v -0.42679546 -0.13567804 -0.31340571
v -0.42753559 -0.14130431 0.28441995
v -0.38479854 -0.13567804 0.28441995
v -0.38405768 -0.14130431 -0.31340571
v -0.42753559 -0.14130431 -0.31340571
v -0.42679546 -0.14693057 0.28441995
v -0.38405768 -0.14130431 0.28441995
v -0.38479854 -0.14693057 -0.31340571
v -0.42679546 -0.14693057 -0.31340571
v -0.42462335 -0.15217378 0.28441995
v -0.38479854 -0.14693057 0.28441995
v -0.38696992 -0.15217378 -0.31340571
v -0.42462335 -0.15217378 -0.31340571
v -0.42116846 -0.15667613 0.28441995
v -0.38696992 -0.15217378 0.28441995
v -0.39042481 -0.15667613 -0.31340571
v -0.42116846 -0.15667613 -0.31340571
v -0.41666611 -0.16013102 -0.31340571
v -0.39042481 -0.15667613 0.28441995
v -0.39492716 -0.16013102 -0.31340571
v -0.41666611 -0.16013102 0.28441995
v -0.39492716 -0.16013102 0.28441995
v -0.41142290 -0.16230240 -0.31340571
v -0.40017037 -0.16230240 -0.31340571
v -0.40017037 -0.16230240 0.28441995
v -0.41142290 -0.16230240 0.28441995
v -0.40579663 -0.16304326 -0.31340571
v -0.40579663 -0.16304326 0.28441995
v -0.42753559 -0.16304326 -0.31340571
v 0.35507340 0.15942060 -0.02355103
v 0.46376891 -0.15942060 -0.02355103
v 0.35507340 -0.15942060 -0.02355103
v 0.46376891 0.15942060 -0.02355103
v 0.35507340 -0.15942060 -0.00905814
v 0.46376891 0.15942060 -0.00905814
v 0.46376891 -0.15942060 -0.00905814
v 0.35507340 0.15942060 -0.00905814
f 1 2 3
f 2 1 4
f 5 3 2
f 6 1 3
f 7 4 1
f 4 8 2
f 3 5 9
f 2 8 5
f 10 1 6
f 6 3 11
f 4 7 12
f 1 10 7
f 4 13 8
f 5 14 9
f 11 3 9
f 5 8 15
f 6 16 10
f 11 13 6
f 10 12 7
f 12 13 4
f 13 11 8
f 14 5 17
f 18 9 14
f 11 9 18
f 8 18 15
f 5 15 17
f 16 6 13
f 12 10 16
f 13 12 16
f 18 8 11
f 17 19 14
f 18 14 20
f 18 21 15
f 17 15 21
f 19 17 22
f 20 14 19
f 21 18 20
f 17 21 22
f 22 23 19
f 20 19 24
f 20 25 21
f 22 21 25
f 23 22 26
f 24 19 23
f 25 20 24
f 22 25 26
f 26 27 23
f 24 23 28
f 24 29 25
f 26 25 29
f 27 26 30
f 28 23 27
f 29 24 28
f 26 29 30
f 30 31 27
f 28 27 32
f 28 33 29
f 30 29 33
f 31 30 34
f 32 27 31
f 33 28 32
f 30 33 35
f 30 35 34
f 34 36 31
f 32 31 37
f 32 35 33
f 34 35 38
f 36 34 39
f 40 31 36
f 37 31 40
f 35 32 37
f 37 38 35
f 34 38 39
f 39 41 36
f 40 36 42
f 38 37 40
f 39 38 43
f 41 39 44
f 42 36 41
f 43 40 42
f 40 43 38
f 39 43 44
f 45 41 44
f 42 41 46
f 47 43 42
f 44 43 48
f 41 45 46
f 44 48 45
f 42 46 47
f 43 47 48
f 49 46 45
f 45 48 50
f 47 46 51
f 52 48 47
f 46 49 51
f 45 50 49
f 48 52 50
f 47 51 52
f 53 51 49
f 49 50 54
f 55 50 52
f 52 51 55
f 51 53 56
f 49 54 53
f 50 55 54
f 55 51 56
f 54 56 53
f 56 54 55
f 3 2 1
f 4 1 2
f 2 3 5
f 3 1 6
f 1 4 7
f 2 8 4
f 9 5 3
f 5 8 2
f 6 1 10
f 11 3 6
f 12 7 4
f 7 10 1
f 8 13 4
f 9 14 5
f 9 3 11
f 15 8 5
f 10 16 6
f 6 13 11
f 7 12 10
f 4 13 12
f 8 11 13
f 17 5 14
f 14 9 18
f 18 9 11
f 15 18 8
f 17 15 5
f 13 6 16
f 16 10 12
f 16 12 13
f 11 8 18
f 14 19 17
f 20 14 18
f 15 21 18
f 21 15 17
f 22 17 19
f 19 14 20
f 20 18 21
f 22 21 17
f 19 23 22
f 24 19 20
f 21 25 20
f 25 21 22
f 26 22 23
f 23 19 24
f 24 20 25
f 26 25 22
f 23 27 26
f 28 23 24
f 25 29 24
f 29 25 26
f 30 26 27
f 27 23 28
f 28 24 29
f 30 29 26
f 27 31 30
f 32 27 28
f 29 33 28
f 33 29 30
f 34 30 31
f 31 27 32
f 32 28 33
f 35 33 30
f 34 35 30
f 31 36 34
f 37 31 32
f 33 35 32
f 38 35 34
f 39 34 36
f 36 31 40
f 40 31 37
f 37 32 35
f 35 38 37
f 39 38 34
f 36 41 39
f 42 36 40
f 40 37 38
f 43 38 39
f 44 39 41
f 41 36 42
f 42 40 43
f 38 43 40
f 44 43 39
f 44 41 45
f 46 41 42
f 42 43 47
f 48 43 44
f 46 45 41
f 45 48 44
f 47 46 42
f 48 47 43
f 45 46 49
f 50 48 45
f 51 46 47
f 47 48 52
f 51 49 46
f 49 50 45
f 50 52 48
f 52 51 47
f 49 51 53
f 54 50 49
f 52 50 55
f 55 51 52
f 56 53 51
f 53 54 49
f 54 55 50
f 56 51 55
f 53 56 54
f 55 54 56
f 57 58 59
f 58 57 60
f 59 58 57
f 60 57 58
f 58 61 59
f 59 61 58
f 61 57 59
f 59 57 61
f 57 62 60
f 60 62 57
f 62 58 60
f 60 58 62
f 61 58 63
f 63 58 61
f 57 61 64
f 64 61 57
f 62 57 64
f 64 57 62
f 58 62 63
f 63 62 58
f 62 61 63
f 63 61 62
f 61 62 64
f 64 62 61
f 65 66 67
f 66 65 68
f 67 66 65
f 68 65 66
f 66 69 67
f 67 69 66
f 67 70 65
f 65 70 67
f 65 71 68
f 68 71 65
f 66 68 72
f 72 68 66
f 69 66 73
f 73 66 69
f 70 67 69
f 69 67 70
f 71 65 70
f 70 65 71
f 74 68 71
f 71 68 74
f 72 68 75
f 75 68 72
f 72 73 66
f 66 73 72
f 73 70 69
f 69 70 73
f 70 76 71
f 71 76 70
f 68 74 75
f 75 74 68
f 71 77 74
f 74 77 71
f 72 75 78
f 78 75 72
f 73 72 76
f 76 72 73
f 70 73 76
f 76 73 70
f 71 76 77
f 77 76 71
f 74 79 75
f 75 79 74
f 74 77 80
f 80 77 74
f 78 75 79
f 79 75 78
f 78 76 72
f 72 76 78
f 76 78 77
f 77 78 76
f 79 74 81
f 81 74 79
f 78 80 77
f 77 80 78
f 74 80 81
f 81 80 74
f 78 79 82
f 82 79 78
f 81 83 79
f 79 83 81
f 80 78 82
f 82 78 80
f 81 80 84
f 84 80 81
f 82 79 83
f 83 79 82
f 83 81 84
f 84 81 83
f 82 85 80
f 80 85 82
f 84 80 85
f 85 80 84
f 82 83 86
f 86 83 82
f 84 87 83
f 83 87 84
f 85 82 86
f 86 82 85
f 84 85 88
f 88 85 84
f 86 83 87
f 87 83 86
f 87 84 89
f 89 84 87
f 86 88 85
f 85 88 86
f 84 88 89
f 89 88 84
f 86 87 90
f 90 87 86
f 89 91 87
f 87 91 89
f 88 86 90
f 90 86 88
f 89 88 92
f 92 88 89
f 90 87 91
f 91 87 90
f 91 89 93
f 93 89 91
f 90 92 88
f 88 92 90
f 89 92 93
f 93 92 89
f 90 91 94
f 94 91 90
f 93 95 91
f 91 95 93
f 92 90 94
f 94 90 92
f 93 92 96
f 96 92 93
f 94 91 95
f 95 91 94
f 95 93 97
f 97 93 95
f 94 96 92
f 92 96 94
f 93 96 97
f 97 96 93
f 94 95 98
f 98 95 94
f 97 99 95
f 95 99 97
f 96 94 98
f 98 94 96
f 97 96 100
f 100 96 97
f 98 95 99
f 99 95 98
f 99 97 100
f 100 97 99
f 98 101 96
f 96 101 98
f 100 96 101
f 101 96 100
f 98 99 102
f 102 99 98
f 103 99 100
f 100 99 103
f 101 98 102
f 102 98 101
f 100 101 104
f 104 101 100
f 102 99 105
f 105 99 102
f 99 103 105
f 105 103 99
f 100 104 103
f 103 104 100
f 106 101 102
f 102 101 106
f 101 106 104
f 104 106 101
f 102 105 106
f 106 105 102
f 107 105 103
f 103 105 107
f 103 104 108
f 108 104 103
f 109 104 106
f 106 104 109
f 106 105 110
f 110 105 106
f 105 107 110
f 110 107 105
f 103 108 107
f 107 108 103
f 104 109 108
f 108 109 104
f 106 110 109
f 109 110 106
f 111 110 107
f 107 110 111
f 107 108 111
f 111 108 107
f 112 108 109
f 109 108 112
f 109 110 112
f 112 110 109
f 110 111 112
f 112 111 110
f 108 112 111
f 111 112 108
f 113 114 115
f 114 113 116
f 115 114 113
f 116 113 114
f 114 117 115
f 115 117 114
f 117 113 115
f 115 113 117
f 113 118 116
f 116 118 113
f 118 114 116
f 116 114 118
f 117 114 119
f 119 114 117
f 113 117 120
f 120 117 113
f 118 113 120
f 120 113 118
f 114 118 119
f 119 118 114
f 118 117 119
f 119 117 118
f 117 118 120
f 120 118 117
f 121 122 123
f 122 121 124
f 123 122 121
f 124 121 122
f 122 125 123
f 123 125 122
f 123 126 121
f 121 126 123
f 121 127 124
f 124 127 121
f 122 124 128
f 128 124 122
f 125 122 129
f 129 122 125
f 126 123 125
f 125 123 126
f 127 121 126
f 126 121 127
f 130 124 127
f 127 124 130
f 128 124 131
f 131 124 128
f 128 129 122
f 122 129 128
f 129 126 125
f 125 126 129
f 126 132 127
f 127 132 126
f 124 130 131
f 131 130 124
f 127 133 130
f 130 133 127
f 128 131 134
f 134 131 128
f 129 128 132
f 132 128 129
f 126 129 132
f 132 129 126
f 127 132 133
f 133 132 127
f 130 135 131
f 131 135 130
f 130 133 136
f 136 133 130
f 134 131 135
f 135 131 134
f 134 132 128
f 128 132 134
f 132 134 133
f 133 134 132
f 135 130 137
f 137 130 135
f 134 136 133
f 133 136 134
f 130 136 137
f 137 136 130
f 134 135 138
f 138 135 134
f 137 139 135
f 135 139 137
f 136 134 138
f 138 134 136
f 137 136 140
f 140 136 137
f 138 135 139
f 139 135 138
f 139 137 140
f 140 137 139
f 138 141 136
f 136 141 138
f 140 136 141
f 141 136 140
f 138 139 142
f 142 139 138
f 140 143 139
f 139 143 140
f 141 138 142
f 142 138 141
f 140 141 144
f 144 141 140
f 142 139 143
f 143 139 142
f 143 140 145
f 145 140 143
f 142 144 141
f 141 144 142
f 140 144 145
f 145 144 140
f 142 143 146
f 146 143 142
f 145 147 143
f 143 147 145
f 144 142 146
f 146 142 144
f 145 144 148
f 148 144 145
f 146 143 147
f 147 143 146
f 147 145 149
f 149 145 147
f 146 148 144
f 144 148 146
f 145 148 149
f 149 148 145
f 146 147 150
f 150 147 146
f 149 151 147
f 147 151 149
f 148 146 150
f 150 146 148
f 149 148 152
f 152 148 149
f 150 147 151
f 151 147 150
f 151 149 153
f 153 149 151
f 150 152 148
f 148 152 150
f 149 152 153
f 153 152 149
f 150 151 154
f 154 151 150
f 153 155 151
f 151 155 153
f 152 150 154
f 154 150 152
f 153 152 156
f 156 152 153
f 154 151 155
f 155 151 154
f 155 153 156
f 156 153 155
f 154 157 152
f 152 157 154
f 156 152 157
f 157 152 156
f 154 155 158
f 158 155 154
f 159 155 156
f 156 155 159
f 157 154 158
f 158 154 157
f 156 157 160
f 160 157 156
f 158 155 161
f 161 155 158
f 155 159 161
f 161 159 155
f 156 160 159
f 159 160 156
f 162 157 158
f 158 157 162
f 157 162 160
f 160 162 157
f 158 161 162
f 162 161 158
f 163 161 159
f 159 161 163
f 159 160 164
f 164 160 159
f 165 160 162
f 162 160 165
f 162 161 166
f 166 161 162
f 161 163 166
f 166 163 161
f 159 164 163
f 163 164 159
f 160 165 164
f 164 165 160
f 162 166 165
f 165 166 162
f 167 166 163
f 163 166 167
f 163 164 167
f 167 164 163
f 168 164 165
f 165 164 168
f 165 166 168
f 168 166 165
f 166 167 168
f 168 167 166
f 164 168 167
f 167 168 164
f 169 119 170
f 119 169 62
f 170 119 169
f 62 169 119
f 119 171 170
f 170 171 119
f 171 169 170
f 170 169 171
f 169 60 62
f 62 60 169
f 60 119 62
f 62 119 60
f 171 119 114
f 114 119 171
f 169 171 172
f 172 171 169
f 60 169 172
f 172 169 60
f 119 60 114
f 114 60 119
f 60 171 114
f 114 171 60
f 171 60 172
f 172 60 171
f 64 173 117
f 173 64 174
f 117 173 64
f 174 64 173
f 173 115 117
f 117 115 173
f 115 64 117
f 117 64 115
f 64 30 174
f 174 30 64
f 30 173 174
f 174 173 30
f 115 173 26
f 26 173 115
f 64 115 57
f 57 115 64
f 30 64 57
f 57 64 30
f 173 30 26
f 26 30 173
f 30 115 26
f 26 115 30
f 115 30 57
f 57 30 115
f 63 120 118
f 120 63 61
f 118 120 63
f 61 63 120
f 120 175 118
f 118 175 120
f 175 63 118
f 118 63 175
f 63 176 61
f 61 176 63
f 176 120 61
f 61 120 176
f 175 120 177
f 177 120 175
f 63 175 178
f 178 175 63
f 176 63 178
f 178 63 176
f 120 176 177
f 177 176 120
f 176 175 177
f 177 175 176
f 175 176 178
f 178 176 175
f 179 180 181
f 180 179 182
f 181 180 179
f 182 179 180
f 183 181 180
f 180 181 183
f 184 179 181
f 181 179 184
f 185 182 179
f 179 182 185
f 182 186 180
f 180 186 182
f 181 183 187
f 187 183 181
f 180 186 183
f 183 186 180
f 188 179 184
f 184 179 188
f 184 181 187
f 187 181 184
f 182 185 189
f 189 185 182
f 190 185 179
f 179 185 190
f 182 191 186
f 186 191 182
f 186 187 183
f 183 187 186
f 190 179 188
f 188 179 190
f 184 191 188
f 188 191 184
f 187 186 184
f 184 186 187
f 185 192 189
f 189 192 185
f 189 191 182
f 182 191 189
f 193 185 190
f 190 185 193
f 191 184 186
f 186 184 191
f 188 194 190
f 190 194 188
f 194 188 191
f 191 188 194
f 192 185 195
f 195 185 192
f 192 194 189
f 189 194 192
f 189 194 191
f 191 194 189
f 193 195 185
f 185 195 193
f 194 193 190
f 190 193 194
f 195 196 192
f 192 196 195
f 192 197 194
f 194 197 192
f 198 195 193
f 193 195 198
f 193 194 197
f 197 194 193
f 196 195 199
f 199 195 196
f 196 197 192
f 192 197 196
f 198 199 195
f 195 199 198
f 197 198 193
f 193 198 197
f 199 200 196
f 196 200 199
f 196 201 197
f 197 201 196
f 202 199 198
f 198 199 202
f 198 197 201
f 201 197 198
f 200 199 203
f 203 199 200
f 200 201 196
f 196 201 200
f 202 203 199
f 199 203 202
f 201 202 198
f 198 202 201
f 203 204 200
f 200 204 203
f 200 205 201
f 201 205 200
f 206 203 202
f 202 203 206
f 202 201 205
f 205 201 202
f 204 203 207
f 207 203 204
f 204 205 200
f 200 205 204
f 206 207 203
f 203 207 206
f 205 206 202
f 202 206 205
f 207 208 204
f 204 208 207
f 204 209 205
f 205 209 204
f 210 207 206
f 206 207 210
f 206 205 209
f 209 205 206
f 208 207 211
f 211 207 208
f 208 209 204
f 204 209 208
f 210 211 207
f 207 211 210
f 209 210 206
f 206 210 209
f 211 212 208
f 208 212 211
f 208 213 209
f 209 213 208
f 214 211 210
f 210 211 214
f 210 209 213
f 213 209 210
f 212 211 215
f 215 211 212
f 212 213 208
f 208 213 212
f 214 215 211
f 211 215 214
f 213 214 210
f 210 214 213
f 216 212 215
f 215 212 216
f 212 217 213
f 213 217 212
f 218 215 214
f 214 215 218
f 214 213 217
f 217 213 214
f 212 216 219
f 219 216 212
f 218 216 215
f 215 216 218
f 219 217 212
f 212 217 219
f 214 220 218
f 218 220 214
f 220 214 217
f 217 214 220
f 221 219 216
f 216 219 221
f 222 216 218
f 218 216 222
f 219 220 217
f 217 220 219
f 223 218 220
f 220 218 223
f 219 221 224
f 224 221 219
f 222 221 216
f 216 221 222
f 218 223 222
f 222 223 218
f 224 220 219
f 219 220 224
f 224 223 220
f 220 223 224
f 225 224 221
f 221 224 225
f 221 222 225
f 225 222 221
f 226 222 223
f 223 222 226
f 223 224 226
f 226 224 223
f 224 225 226
f 226 225 224
f 222 226 225
f 225 226 222
f 221 222 225
f 222 221 216
f 225 222 221
f 216 221 222
f 222 216 218
f 218 216 222
f 218 216 215
f 215 216 218
f 218 215 214
f 214 215 218
f 214 215 211
f 211 215 214
f 214 211 210
f 210 211 214
f 210 211 206
f 206 211 210
f 206 211 207
f 207 211 206
f 206 207 203
f 203 207 206
f 206 203 202
f 202 203 206
f 202 203 199
f 199 203 202
f 227 199 203
f 203 199 227
f 202 199 198
f 198 199 202
f 199 227 195
f 195 227 199
f 198 199 195
f 195 199 198
f 195 227 185
f 185 227 195
f 198 195 193
f 193 195 198
f 185 227 179
f 179 227 185
f 193 195 185
f 185 195 193
f 179 227 181
f 181 227 179
f 190 185 179
f 179 185 190
f 193 185 190
f 190 185 193
f 181 227 187
f 187 227 181
f 188 179 181
f 181 179 188
f 190 179 188
f 188 179 190
f 184 181 187
f 187 181 184
f 188 181 184
f 184 181 188
f 228 229 230
f 229 228 231
f 230 229 228
f 231 228 229
f 232 230 229
f 229 230 232
f 233 228 230
f 230 228 233
f 234 231 228
f 228 231 234
f 231 235 229
f 229 235 231
f 230 232 236
f 236 232 230
f 229 235 232
f 232 235 229
f 237 228 233
f 233 228 237
f 233 230 236
f 236 230 233
f 231 234 238
f 238 234 231
f 239 234 228
f 228 234 239
f 231 240 235
f 235 240 231
f 235 236 232
f 232 236 235
f 239 228 237
f 237 228 239
f 233 240 237
f 237 240 233
f 236 235 233
f 233 235 236
f 234 241 238
f 238 241 234
f 238 240 231
f 231 240 238
f 242 234 239
f 239 234 242
f 240 233 235
f 235 233 240
f 237 243 239
f 239 243 237
f 243 237 240
f 240 237 243
f 241 234 244
f 244 234 241
f 241 243 238
f 238 243 241
f 238 243 240
f 240 243 238
f 242 244 234
f 234 244 242
f 243 242 239
f 239 242 243
f 244 245 241
f 241 245 244
f 241 246 243
f 243 246 241
f 247 244 242
f 242 244 247
f 242 243 246
f 246 243 242
f 245 244 248
f 248 244 245
f 245 246 241
f 241 246 245
f 247 248 244
f 244 248 247
f 246 247 242
f 242 247 246
f 248 249 245
f 245 249 248
f 245 250 246
f 246 250 245
f 251 248 247
f 247 248 251
f 247 246 250
f 250 246 247
f 249 248 252
f 252 248 249
f 249 250 245
f 245 250 249
f 251 252 248
f 248 252 251
f 250 251 247
f 247 251 250
f 252 253 249
f 249 253 252
f 249 254 250
f 250 254 249
f 255 252 251
f 251 252 255
f 251 250 254
f 254 250 251
f 253 252 256
f 256 252 253
f 253 254 249
f 249 254 253
f 255 256 252
f 252 256 255
f 254 255 251
f 251 255 254
f 256 257 253
f 253 257 256
f 253 258 254
f 254 258 253
f 259 256 255
f 255 256 259
f 255 254 258
f 258 254 255
f 257 256 260
f 260 256 257
f 257 258 253
f 253 258 257
f 259 260 256
f 256 260 259
f 258 259 255
f 255 259 258
f 260 261 257
f 257 261 260
f 257 262 258
f 258 262 257
f 263 260 259
f 259 260 263
f 259 258 262
f 262 258 259
f 261 260 264
f 264 260 261
f 261 262 257
f 257 262 261
f 263 264 260
f 260 264 263
f 262 263 259
f 259 263 262
f 265 261 264
f 264 261 265
f 261 266 262
f 262 266 261
f 267 264 263
f 263 264 267
f 263 262 266
f 266 262 263
f 261 265 268
f 268 265 261
f 267 265 264
f 264 265 267
f 268 266 261
f 261 266 268
f 263 269 267
f 267 269 263
f 269 263 266
f 266 263 269
f 270 268 265
f 265 268 270
f 271 265 267
f 267 265 271
f 268 269 266
f 266 269 268
f 272 267 269
f 269 267 272
f 268 270 273
f 273 270 268
f 271 270 265
f 265 270 271
f 267 272 271
f 271 272 267
f 273 269 268
f 268 269 273
f 273 272 269
f 269 272 273
f 274 273 270
f 270 273 274
f 270 271 274
f 274 271 270
f 275 271 272
f 272 271 275
f 272 273 275
f 275 273 272
f 273 274 275
f 275 274 273
f 271 275 274
f 274 275 271
f 270 271 274
f 271 270 265
f 274 271 270
f 265 270 271
f 276 270 274
f 274 270 276
f 270 276 265
f 265 276 270
f 271 265 267
f 267 265 271
f 265 276 264
f 264 276 265
f 267 265 264
f 264 265 267
f 264 276 260
f 260 276 264
f 267 264 263
f 263 264 267
f 260 276 256
f 256 276 260
f 263 264 260
f 260 264 263
f 256 276 252
f 252 276 256
f 259 260 256
f 256 260 259
f 263 260 259
f 259 260 263
f 255 256 252
f 252 256 255
f 259 256 255
f 255 256 259
f 255 252 251
f 251 252 255
f 251 252 248
f 248 252 251
f 251 248 247
f 247 248 251
f 247 248 244
f 244 248 247
f 247 244 242
f 242 244 247
f 242 244 234
f 234 244 242
f 242 234 239
f 239 234 242
f 239 234 228
f 228 234 239
f 239 228 237
f 237 228 239
f 237 228 233
f 233 228 237
f 233 228 230
f 230 228 233
f 233 230 236
f 236 230 233
f 277 278 279
f 278 277 280
f 279 278 277
f 280 277 278
f 278 281 279
f 279 281 278
f 281 277 279
f 279 277 281
f 277 282 280
f 280 282 277
f 282 278 280
f 280 278 282
f 281 278 283
f 283 278 281
f 277 281 284
f 284 281 277
f 282 277 284
f 284 277 282
f 278 282 283
f 283 282 278
f 282 281 283
f 283 281 282
f 281 282 284
f 284 282 281

