# https://github.com/mikedh/trimesh
v -0.01000000 -0.01800000 -0.10600000
v -0.01000000 -0.01800000 -0.10200000
v -0.01000000 -0.01400000 -0.10600000
v -0.01000000 -0.01400000 -0.10200000
v -0.00600000 -0.01800000 -0.10600000
v -0.00600000 -0.01800000 -0.10200000
v -0.00600000 -0.01400000 -0.10600000
v -0.01000000 -0.01800000 -0.09800000
v -0.01000000 -0.01400000 -0.09800000
v -0.00600000 -0.01800000 -0.09800000
v -0.01000000 -0.01800000 -0.09400000
v -0.01000000 -0.01400000 -0.09400000
v -0.00600000 -0.01800000 -0.09400000
v -0.01000000 -0.01800000 -0.09000000
v -0.01000000 -0.01400000 -0.09000000
v -0.00600000 -0.01800000 -0.09000000
v -0.01000000 -0.01800000 -0.08600000
v -0.01000000 -0.01400000 -0.08600000
v -0.00600000 -0.01800000 -0.08600000
v -0.01000000 -0.01800000 -0.08200000
v -0.01000000 -0.01400000 -0.08200000
v -0.00600000 -0.01800000 -0.08200000
v -0.01000000 -0.01800000 -0.07800000
v -0.01000000 -0.01400000 -0.07800000
v -0.00600000 -0.01800000 -0.07800000
v -0.01000000 -0.01800000 -0.07400000
v -0.01000000 -0.01400000 -0.07400000
v -0.00600000 -0.01800000 -0.07400000
v -0.01000000 -0.01800000 -0.07000000
v -0.01000000 -0.01400000 -0.07000000
v -0.00600000 -0.01800000 -0.07000000
v -0.01000000 -0.01800000 -0.06600000
v -0.01000000 -0.01400000 -0.06600000
v -0.00600000 -0.01800000 -0.06600000
v -0.01000000 -0.01800000 -0.06200000
v -0.01000000 -0.01400000 -0.06200000
v -0.00600000 -0.01800000 -0.06200000
v -0.01000000 -0.01800000 -0.05800000
v -0.01000000 -0.01400000 -0.05800000
v -0.00600000 -0.01800000 -0.05800000
v -0.01000000 -0.01800000 -0.05400000
v -0.01000000 -0.01400000 -0.05400000
v -0.00600000 -0.01800000 -0.05400000
v -0.01000000 -0.01800000 -0.05000000
v -0.01000000 -0.01400000 -0.05000000
v -0.00600000 -0.01800000 -0.05000000
v -0.01000000 -0.01800000 -0.04600000
v -0.01000000 -0.01400000 -0.04600000
v -0.00600000 -0.01800000 -0.04600000
v -0.01000000 -0.01800000 -0.04200000
v -0.01000000 -0.01400000 -0.04200000
v -0.00600000 -0.01800000 -0.04200000
v -0.01000000 -0.01800000 -0.03800000
v -0.01000000 -0.01400000 -0.03800000
v -0.00600000 -0.01800000 -0.03800000
v -0.01000000 -0.01800000 -0.03400000
v -0.01000000 -0.01400000 -0.03400000
v -0.00600000 -0.01800000 -0.03400000
v -0.01000000 -0.01800000 -0.03000000
v -0.01000000 -0.01400000 -0.03000000
v -0.00600000 -0.01800000 -0.03000000
v -0.01000000 -0.01800000 -0.02600000
v -0.01000000 -0.01400000 -0.02600000
v -0.00600000 -0.01800000 -0.02600000
v -0.01000000 -0.01800000 -0.02200000
v -0.01000000 -0.01400000 -0.02200000
v -0.00600000 -0.01800000 -0.02200000
v -0.01000000 -0.01800000 -0.01800000
v -0.01000000 -0.01400000 -0.01800000
v -0.00600000 -0.01800000 -0.01800000
v -0.00600000 -0.01400000 -0.01800000
v -0.01000000 -0.01400000 -0.11000000
v -0.01000000 -0.01000000 -0.11000000
v -0.01000000 -0.01000000 -0.10600000
v -0.00600000 -0.01400000 -0.11000000
v -0.00600000 -0.01000000 -0.11000000
v -0.01000000 -0.01000000 -0.10200000
v -0.01000000 -0.01000000 -0.09800000
v -0.00600000 -0.01400000 -0.10200000
v -0.00600000 -0.01400000 -0.09800000
v -0.00600000 -0.01000000 -0.10200000
v -0.00600000 -0.01000000 -0.09800000
v -0.01000000 -0.01000000 -0.09400000
v -0.00600000 -0.01400000 -0.09400000
v -0.00600000 -0.01000000 -0.09400000
v -0.01000000 -0.01000000 -0.09000000
v -0.00600000 -0.01400000 -0.09000000
v -0.00600000 -0.01000000 -0.09000000
v -0.01000000 -0.01000000 -0.08600000
v -0.00600000 -0.01400000 -0.08600000
v -0.00600000 -0.01000000 -0.08600000
v -0.01000000 -0.01000000 -0.08200000
v -0.00600000 -0.01400000 -0.08200000
v -0.00600000 -0.01000000 -0.08200000
v -0.01000000 -0.01000000 -0.07800000
v -0.00600000 -0.01400000 -0.07800000
v -0.00600000 -0.01000000 -0.07800000
v -0.01000000 -0.01000000 -0.07400000
v -0.00600000 -0.01400000 -0.07400000
v -0.00600000 -0.01000000 -0.07400000
v -0.01000000 -0.01000000 -0.07000000
v -0.00600000 -0.01400000 -0.07000000
v -0.00600000 -0.01000000 -0.07000000
v -0.01000000 -0.01000000 -0.06600000
v -0.00600000 -0.01400000 -0.06600000
v -0.00600000 -0.01000000 -0.06600000
v -0.01000000 -0.01000000 -0.06200000
v -0.00600000 -0.01400000 -0.06200000
v -0.00600000 -0.01000000 -0.06200000
v -0.01000000 -0.01000000 -0.05800000
v -0.00600000 -0.01400000 -0.05800000
v -0.00600000 -0.01000000 -0.05800000
v -0.01000000 -0.01000000 -0.05400000
v -0.00600000 -0.01400000 -0.05400000
v -0.00600000 -0.01000000 -0.05400000
v -0.01000000 -0.01000000 -0.05000000
v -0.00600000 -0.01400000 -0.05000000
v -0.00600000 -0.01000000 -0.05000000
v -0.01000000 -0.01000000 -0.04600000
v -0.00600000 -0.01400000 -0.04600000
v -0.00600000 -0.01000000 -0.04600000
v -0.01000000 -0.01000000 -0.04200000
v -0.00600000 -0.01400000 -0.04200000
v -0.00600000 -0.01000000 -0.04200000
v -0.01000000 -0.01000000 -0.03800000
v -0.00600000 -0.01400000 -0.03800000
v -0.00600000 -0.01000000 -0.03800000
v -0.01000000 -0.01000000 -0.03400000
v -0.00600000 -0.01400000 -0.03400000
v -0.00600000 -0.01000000 -0.03400000
v -0.01000000 -0.01000000 -0.03000000
v -0.00600000 -0.01400000 -0.03000000
v -0.00600000 -0.01000000 -0.03000000
v -0.01000000 -0.01000000 -0.02600000
v -0.00600000 -0.01400000 -0.02600000
v -0.00600000 -0.01000000 -0.02600000
v -0.01000000 -0.01000000 -0.02200000
v -0.00600000 -0.01400000 -0.02200000
v -0.00600000 -0.01000000 -0.02200000
v -0.01000000 -0.01000000 -0.01800000
v -0.00600000 -0.01000000 -0.01800000
v -0.01000000 -0.00600000 -0.11000000
v -0.01000000 -0.00600000 -0.10600000
v -0.00600000 -0.00600000 -0.11000000
v -0.01000000 -0.00600000 -0.10200000
v -0.01000000 -0.00600000 -0.09800000
v -0.00600000 -0.00600000 -0.10200000
v -0.00600000 -0.00600000 -0.09800000
v -0.01000000 -0.00600000 -0.09400000
v -0.00600000 -0.00600000 -0.09400000
v -0.01000000 -0.00600000 -0.09000000
v -0.00600000 -0.00600000 -0.09000000
v -0.01000000 -0.00600000 -0.08600000
v -0.01000000 -0.00600000 -0.08200000
v -0.00600000 -0.00600000 -0.08600000
v -0.00600000 -0.00600000 -0.08200000
v -0.01000000 -0.00600000 -0.07800000
v -0.00600000 -0.00600000 -0.07800000
v -0.01000000 -0.00600000 -0.07400000
v -0.00600000 -0.00600000 -0.07400000
v -0.01000000 -0.00600000 -0.07000000
v -0.00600000 -0.00600000 -0.07000000
v -0.01000000 -0.00600000 -0.06600000
v -0.00600000 -0.00600000 -0.06600000
v -0.01000000 -0.00600000 -0.06200000
v -0.00600000 -0.00600000 -0.06200000
v -0.01000000 -0.00600000 -0.05800000
v -0.00600000 -0.00600000 -0.05800000
v -0.01000000 -0.00600000 -0.05400000
v -0.00600000 -0.00600000 -0.05400000
v -0.01000000 -0.00600000 -0.05000000
v -0.00600000 -0.00600000 -0.05000000
v -0.01000000 -0.00600000 -0.04600000
v -0.00600000 -0.00600000 -0.04600000
v -0.01000000 -0.00600000 -0.04200000
v -0.00600000 -0.00600000 -0.04200000
v -0.01000000 -0.00600000 -0.03800000
v -0.00600000 -0.00600000 -0.03800000
v -0.01000000 -0.00600000 -0.03400000
v -0.00600000 -0.00600000 -0.03400000
v -0.01000000 -0.00600000 -0.03000000
v -0.00600000 -0.00600000 -0.03000000
v -0.01000000 -0.00600000 -0.02600000
v -0.00600000 -0.00600000 -0.02600000
v -0.01000000 -0.00600000 -0.02200000
v -0.00600000 -0.00600000 -0.02200000
v -0.01000000 -0.00600000 -0.01800000
v -0.00600000 -0.00600000 -0.01800000
v -0.01000000 -0.00200000 -0.11000000
v -0.01000000 -0.00200000 -0.10600000
v -0.00600000 -0.00200000 -0.11000000
v -0.01000000 -0.00200000 -0.10200000
v -0.00600000 -0.00200000 -0.10200000
v -0.01000000 -0.00200000 -0.09000000
v -0.01000000 -0.00200000 -0.08600000
v -0.00600000 -0.00200000 -0.09000000
v -0.00600000 -0.00200000 -0.08600000
v -0.01000000 -0.00200000 -0.08200000
v -0.00600000 -0.00200000 -0.08200000
v -0.01000000 -0.00200000 -0.07800000
v -0.00600000 -0.00200000 -0.07800000
v -0.01000000 -0.00200000 -0.07400000
v -0.00600000 -0.00200000 -0.07400000
v -0.01000000 -0.00200000 -0.07000000
v -0.00600000 -0.00200000 -0.07000000
v -0.01000000 -0.00200000 -0.06600000
v -0.00600000 -0.00200000 -0.06600000
v -0.01000000 -0.00200000 -0.06200000
v -0.00600000 -0.00200000 -0.06200000
v -0.01000000 -0.00200000 -0.05800000
v -0.00600000 -0.00200000 -0.05800000
v -0.01000000 -0.00200000 -0.05400000
v -0.00600000 -0.00200000 -0.05400000
v -0.01000000 -0.00200000 -0.05000000
v -0.00600000 -0.00200000 -0.05000000
v -0.01000000 -0.00200000 -0.04600000
v -0.00600000 -0.00200000 -0.04600000
v -0.01000000 -0.00200000 -0.04200000
v -0.00600000 -0.00200000 -0.04200000
v -0.01000000 -0.00200000 -0.03800000
v -0.00600000 -0.00200000 -0.03800000
v -0.01000000 -0.00200000 -0.03400000
v -0.00600000 -0.00200000 -0.03400000
v -0.01000000 -0.00200000 -0.03000000
v -0.00600000 -0.00200000 -0.03000000
v -0.01000000 -0.00200000 -0.02600000
v -0.00600000 -0.00200000 -0.02600000
v -0.01000000 -0.00200000 -0.02200000
v -0.00600000 -0.00200000 -0.02200000
v -0.01000000 -0.00200000 -0.01800000
v -0.00600000 -0.00200000 -0.01800000
v -0.01000000 0.00200000 -0.11000000
v -0.01000000 0.00200000 -0.10600000
v -0.00600000 0.00200000 -0.11000000
v -0.01000000 0.00200000 -0.10200000
v -0.00600000 0.00200000 -0.10200000
v -0.01000000 0.00200000 -0.08600000
v -0.01000000 0.00200000 -0.08200000
v -0.00600000 0.00200000 -0.08600000
v -0.01000000 0.00200000 -0.07800000
v -0.00600000 0.00200000 -0.08200000
v -0.00600000 0.00200000 -0.07800000
v -0.01000000 0.00200000 -0.07400000
v -0.00600000 0.00200000 -0.07400000
v -0.01000000 0.00200000 -0.07000000
v -0.00600000 0.00200000 -0.07000000
v -0.01000000 0.00200000 -0.06600000
v -0.00600000 0.00200000 -0.06600000
v -0.01000000 0.00200000 -0.06200000
v -0.00600000 0.00200000 -0.06200000
v -0.01000000 0.00200000 -0.05800000
v -0.00600000 0.00200000 -0.05800000
v -0.01000000 0.00200000 -0.05400000
v -0.00600000 0.00200000 -0.05400000
v -0.01000000 0.00200000 -0.05000000
v -0.00600000 0.00200000 -0.05000000
v -0.01000000 0.00200000 -0.04600000
v -0.00600000 0.00200000 -0.04600000
v -0.01000000 0.00200000 -0.04200000
v -0.00600000 0.00200000 -0.04200000
v -0.01000000 0.00200000 -0.03800000
v -0.00600000 0.00200000 -0.03800000
v -0.01000000 0.00200000 -0.03400000
v -0.00600000 0.00200000 -0.03400000
v -0.01000000 0.00200000 -0.03000000
v -0.00600000 0.00200000 -0.03000000
v -0.01000000 0.00200000 -0.02600000
v -0.00600000 0.00200000 -0.02600000
v -0.01000000 0.00200000 -0.02200000
v -0.00600000 0.00200000 -0.02200000
v -0.01000000 0.00200000 -0.01800000
v -0.00600000 0.00200000 -0.01800000
v -0.01000000 0.00600000 -0.11000000
v -0.01000000 0.00600000 -0.10600000
v -0.00600000 0.00600000 -0.11000000
v -0.01000000 0.00600000 -0.10200000
v -0.01000000 0.00200000 -0.09800000
v -0.01000000 0.00600000 -0.09800000
v -0.00600000 0.00200000 -0.09800000
v -0.00600000 0.00600000 -0.09800000
v -0.01000000 0.00200000 -0.09000000
v -0.01000000 0.00600000 -0.09000000
v -0.01000000 0.00600000 -0.08600000
v -0.00600000 0.00200000 -0.09000000
v -0.00600000 0.00600000 -0.09000000
v -0.01000000 0.00600000 -0.08200000
v -0.00600000 0.00600000 -0.08600000
v -0.00600000 0.00600000 -0.08200000
v -0.01000000 0.00600000 -0.07800000
v -0.00600000 0.00600000 -0.07800000
v -0.01000000 0.00600000 -0.07400000
v -0.00600000 0.00600000 -0.07400000
v -0.01000000 0.00600000 -0.07000000
v -0.00600000 0.00600000 -0.07000000
v -0.01000000 0.00600000 -0.06600000
v -0.00600000 0.00600000 -0.06600000
v -0.01000000 0.00600000 -0.06200000
v -0.00600000 0.00600000 -0.06200000
v -0.01000000 0.00600000 -0.05800000
v -0.00600000 0.00600000 -0.05800000
v -0.01000000 0.00600000 -0.05400000
v -0.00600000 0.00600000 -0.05400000
v -0.01000000 0.00600000 -0.05000000
v -0.00600000 0.00600000 -0.05000000
v -0.01000000 0.00600000 -0.04600000
v -0.00600000 0.00600000 -0.04600000
v -0.01000000 0.00600000 -0.04200000
v -0.00600000 0.00600000 -0.04200000
v -0.01000000 0.00600000 -0.03800000
v -0.00600000 0.00600000 -0.03800000
v -0.01000000 0.00600000 -0.03400000
v -0.00600000 0.00600000 -0.03400000
v -0.01000000 0.00600000 -0.03000000
v -0.00600000 0.00600000 -0.03000000
v -0.01000000 0.00600000 -0.02600000
v -0.00600000 0.00600000 -0.02600000
v -0.01000000 0.00600000 -0.02200000
v -0.00600000 0.00600000 -0.02200000
v -0.01000000 0.00600000 -0.01800000
v -0.00600000 0.00600000 -0.01800000
v -0.01000000 0.01000000 -0.11000000
v -0.01000000 0.01000000 -0.10600000
v -0.00600000 0.01000000 -0.11000000
v -0.00600000 0.01000000 -0.10600000
v -0.01000000 0.01000000 -0.10200000
v -0.01000000 0.01000000 -0.09800000
v -0.01000000 0.00600000 -0.09400000
v -0.01000000 0.01000000 -0.09400000
v -0.00600000 0.00600000 -0.09400000
v -0.01000000 0.01000000 -0.09000000
v -0.01000000 0.01000000 -0.08600000
v -0.01000000 0.01000000 -0.08200000
v -0.00600000 0.01000000 -0.08600000
v -0.00600000 0.01000000 -0.08200000
v -0.01000000 0.01000000 -0.07800000
v -0.00600000 0.01000000 -0.07800000
v -0.01000000 0.01000000 -0.07400000
v -0.00600000 0.01000000 -0.07400000
v -0.01000000 0.01000000 -0.07000000
v -0.00600000 0.01000000 -0.07000000
v -0.01000000 0.01000000 -0.06600000
v -0.00600000 0.01000000 -0.06600000
v -0.01000000 0.01000000 -0.06200000
v -0.00600000 0.01000000 -0.06200000
v -0.01000000 0.01000000 -0.05800000
v -0.00600000 0.01000000 -0.05800000
v -0.01000000 0.01000000 -0.05400000
v -0.00600000 0.01000000 -0.05400000
v -0.01000000 0.01000000 -0.05000000
v -0.00600000 0.01000000 -0.05000000
v -0.01000000 0.01000000 -0.04600000
v -0.00600000 0.01000000 -0.04600000
v -0.01000000 0.01000000 -0.04200000
v -0.00600000 0.01000000 -0.04200000
v -0.01000000 0.01000000 -0.03800000
v -0.00600000 0.01000000 -0.03800000
v -0.01000000 0.01000000 -0.03400000
v -0.00600000 0.01000000 -0.03400000
v -0.01000000 0.01000000 -0.03000000
v -0.00600000 0.01000000 -0.03000000
v -0.01000000 0.01000000 -0.02600000
v -0.00600000 0.01000000 -0.02600000
v -0.01000000 0.01000000 -0.02200000
v -0.00600000 0.01000000 -0.02200000
v -0.01000000 0.01000000 -0.01800000
v -0.00600000 0.01000000 -0.01800000
v -0.01000000 0.01400000 -0.10600000
v -0.01000000 0.01400000 -0.10200000
v -0.00600000 0.01400000 -0.10600000
v -0.00600000 0.01400000 -0.10200000
v -0.01000000 0.01400000 -0.09800000
v -0.00600000 0.01400000 -0.09800000
v -0.01000000 0.01400000 -0.09400000
v -0.00600000 0.01000000 -0.09800000
v -0.00600000 0.01000000 -0.09400000
v -0.00600000 0.01400000 -0.09400000
v -0.01000000 0.01400000 -0.09000000
v -0.00600000 0.01000000 -0.09000000
v -0.00600000 0.01400000 -0.09000000
v -0.01000000 0.01400000 -0.08600000
v -0.00600000 0.01400000 -0.08600000
v -0.01000000 0.01400000 -0.08200000
v -0.00600000 0.01400000 -0.08200000
v -0.01000000 0.01400000 -0.07800000
v -0.00600000 0.01400000 -0.07800000
v -0.01000000 0.01400000 -0.07400000
v -0.00600000 0.01400000 -0.07400000
v -0.01000000 0.01400000 -0.07000000
v -0.00600000 0.01400000 -0.07000000
v -0.01000000 0.01400000 -0.06600000
v -0.00600000 0.01400000 -0.06600000
v -0.01000000 0.01400000 -0.06200000
v -0.00600000 0.01400000 -0.06200000
v -0.01000000 0.01400000 -0.05800000
v -0.00600000 0.01400000 -0.05800000
v -0.01000000 0.01400000 -0.05400000
v -0.00600000 0.01400000 -0.05400000
v -0.01000000 0.01400000 -0.05000000
v -0.00600000 0.01400000 -0.05000000
v -0.01000000 0.01400000 -0.04600000
v -0.00600000 0.01400000 -0.04600000
v -0.01000000 0.01400000 -0.04200000
v -0.00600000 0.01400000 -0.04200000
v -0.01000000 0.01400000 -0.03800000
v -0.00600000 0.01400000 -0.03800000
v -0.01000000 0.01400000 -0.03400000
v -0.00600000 0.01400000 -0.03400000
v -0.01000000 0.01400000 -0.03000000
v -0.00600000 0.01400000 -0.03000000
v -0.01000000 0.01400000 -0.02600000
v -0.00600000 0.01400000 -0.02600000
v -0.01000000 0.01400000 -0.02200000
v -0.00600000 0.01400000 -0.02200000
v -0.01000000 0.01400000 -0.01800000
v -0.00600000 0.01400000 -0.01800000
v -0.01000000 0.01800000 -0.09800000
v -0.01000000 0.01800000 -0.09400000
v -0.00600000 0.01800000 -0.09800000
v -0.00600000 0.01800000 -0.09400000
v -0.01000000 0.01800000 -0.09000000
v -0.00600000 0.01800000 -0.09000000
v -0.01000000 0.01800000 -0.08600000
v -0.00600000 0.01800000 -0.08600000
v -0.01000000 0.01800000 -0.08200000
v -0.00600000 0.01800000 -0.08200000
v -0.01000000 0.01800000 -0.07800000
v -0.00600000 0.01800000 -0.07800000
v -0.01000000 0.01800000 -0.07400000
v -0.00600000 0.01800000 -0.07400000
v -0.01000000 0.01800000 -0.07000000
v -0.00600000 0.01800000 -0.07000000
v -0.01000000 0.01800000 -0.06600000
v -0.00600000 0.01800000 -0.06600000
v -0.01000000 0.01800000 -0.06200000
v -0.00600000 0.01800000 -0.06200000
v -0.01000000 0.01800000 -0.05800000
v -0.00600000 0.01800000 -0.05800000
v -0.01000000 0.01800000 -0.05400000
v -0.00600000 0.01800000 -0.05400000
v -0.01000000 0.01800000 -0.05000000
v -0.00600000 0.01800000 -0.05000000
v -0.01000000 0.01800000 -0.04600000
v -0.00600000 0.01800000 -0.04600000
v -0.01000000 0.01800000 -0.04200000
v -0.00600000 0.01800000 -0.04200000
v -0.01000000 0.01800000 -0.03800000
v -0.00600000 0.01800000 -0.03800000
v -0.01000000 0.01800000 -0.03400000
v -0.00600000 0.01800000 -0.03400000
v -0.01000000 0.01800000 -0.03000000
v -0.00600000 0.01800000 -0.03000000
v -0.01000000 0.01800000 -0.02600000
v -0.00600000 0.01800000 -0.02600000
v -0.01000000 0.01800000 -0.02200000
v -0.00600000 0.01800000 -0.02200000
v -0.01000000 0.01800000 -0.01800000
v -0.00600000 0.01800000 -0.01800000
v -0.00200000 -0.01800000 -0.10600000
v -0.00200000 -0.01800000 -0.10200000
v -0.00200000 -0.01400000 -0.10600000
v -0.00200000 -0.01800000 -0.09800000
v -0.00200000 -0.01400000 -0.10200000
v -0.00200000 -0.01400000 -0.09800000
v -0.00200000 -0.01800000 -0.09400000
v -0.00200000 -0.01400000 -0.09400000
v -0.00200000 -0.01800000 -0.09000000
v -0.00200000 -0.01400000 -0.09000000
v -0.00200000 -0.01800000 -0.08600000
v -0.00200000 -0.01400000 -0.08600000
v -0.00200000 -0.01800000 -0.08200000
v -0.00200000 -0.01400000 -0.08200000
v -0.00200000 -0.01800000 -0.07800000
v -0.00200000 -0.01400000 -0.07800000
v -0.00200000 -0.01800000 -0.07400000
v -0.00200000 -0.01400000 -0.07400000
v -0.00200000 -0.01800000 -0.07000000
v -0.00200000 -0.01400000 -0.07000000
v -0.00200000 -0.01800000 -0.06600000
v -0.00200000 -0.01400000 -0.06600000
v -0.00200000 -0.01800000 -0.06200000
v -0.00200000 -0.01400000 -0.06200000
v -0.00200000 -0.01800000 -0.05800000
v -0.00200000 -0.01400000 -0.05800000
v -0.00200000 -0.01800000 -0.05400000
v -0.00200000 -0.01400000 -0.05400000
v -0.00200000 -0.01800000 -0.05000000
v -0.00200000 -0.01400000 -0.05000000
v -0.00200000 -0.01800000 -0.04600000
v -0.00200000 -0.01400000 -0.04600000
v -0.00200000 -0.01800000 -0.04200000
v -0.00200000 -0.01400000 -0.04200000
v -0.00200000 -0.01800000 -0.03800000
v -0.00200000 -0.01400000 -0.03800000
v -0.00200000 -0.01800000 -0.03400000
v -0.00200000 -0.01400000 -0.03400000
v -0.00200000 -0.01800000 -0.03000000
v -0.00200000 -0.01400000 -0.03000000
v -0.00200000 -0.01800000 -0.02600000
v -0.00200000 -0.01400000 -0.02600000
v -0.00200000 -0.01800000 -0.02200000
v -0.00200000 -0.01400000 -0.02200000
v -0.00200000 -0.01800000 -0.01800000
v -0.00200000 -0.01400000 -0.01800000
v -0.00200000 -0.01400000 -0.11000000
v -0.00200000 -0.01000000 -0.11000000
v -0.00200000 -0.01000000 -0.10200000
v -0.00200000 -0.01000000 -0.02200000
v -0.00200000 -0.01000000 -0.01800000
v -0.00200000 -0.00600000 -0.11000000
v -0.00200000 -0.01000000 -0.09800000
v -0.00200000 -0.00600000 -0.10200000
v -0.00200000 -0.00600000 -0.09800000
v -0.00200000 -0.01000000 -0.09400000
v -0.00200000 -0.00600000 -0.09400000
v -0.00200000 -0.01000000 -0.09000000
v -0.00200000 -0.00600000 -0.09000000
v -0.00200000 -0.01000000 -0.08600000
v -0.00200000 -0.00600000 -0.08600000
v -0.00200000 -0.00600000 -0.02200000
v -0.00200000 -0.00600000 -0.01800000
v -0.00200000 -0.00200000 -0.11000000
v -0.00200000 -0.00200000 -0.10200000
v -0.00200000 -0.00200000 -0.09000000
v -0.00200000 -0.00200000 -0.08600000
v -0.00200000 -0.00200000 -0.02200000
v -0.00200000 -0.00200000 -0.01800000
v -0.00600000 -0.00200000 -0.11400000
v -0.00600000 0.00200000 -0.11400000
v -0.00200000 -0.00200000 -0.11400000
v -0.00200000 0.00200000 -0.11400000
v -0.00200000 0.00200000 -0.11000000
v -0.00200000 0.00200000 -0.10200000
v -0.00200000 0.00200000 -0.09000000
v -0.00200000 -0.00200000 -0.08200000
v -0.00200000 0.00200000 -0.08600000
v -0.00200000 0.00200000 -0.08200000
v -0.00200000 0.00200000 -0.02200000
v -0.00200000 0.00200000 -0.01800000
v -0.00200000 0.00600000 -0.11000000
v -0.00200000 0.00200000 -0.09800000
v -0.00200000 0.00600000 -0.09800000
v -0.00200000 0.00600000 -0.09000000
v -0.00200000 0.00600000 -0.08600000
v -0.00200000 0.00600000 -0.02200000
v -0.00200000 0.00600000 -0.01800000
v -0.00200000 0.01000000 -0.11000000
v -0.00200000 0.01000000 -0.10600000
v -0.00200000 0.00600000 -0.09400000
v -0.00200000 0.01000000 -0.09800000
v -0.00200000 0.01000000 -0.09400000
v -0.00200000 0.01000000 -0.09000000
v -0.00200000 0.01000000 -0.08600000
v -0.00200000 0.01000000 -0.02200000
v -0.00200000 0.01000000 -0.01800000
v -0.00200000 0.01400000 -0.10600000
v -0.00200000 0.01400000 -0.10200000
v -0.00200000 0.01400000 -0.09800000
v -0.00200000 0.01400000 -0.02200000
v -0.00200000 0.01400000 -0.01800000
v -0.00200000 0.01400000 -0.09400000
v -0.00200000 0.01800000 -0.09800000
v -0.00200000 0.01800000 -0.09400000
v -0.00200000 0.01400000 -0.09000000
v -0.00200000 0.01800000 -0.09000000
v -0.00200000 0.01400000 -0.08600000
v -0.00200000 0.01800000 -0.08600000
v -0.00200000 0.01400000 -0.08200000
v -0.00200000 0.01800000 -0.08200000
v -0.00200000 0.01400000 -0.07800000
v -0.00200000 0.01800000 -0.07800000
v -0.00200000 0.01400000 -0.07400000
v -0.00200000 0.01800000 -0.07400000
v -0.00200000 0.01400000 -0.07000000
v -0.00200000 0.01800000 -0.07000000
v -0.00200000 0.01400000 -0.06600000
v -0.00200000 0.01800000 -0.06600000
v -0.00200000 0.01400000 -0.06200000
v -0.00200000 0.01800000 -0.06200000
v -0.00200000 0.01400000 -0.05800000
v -0.00200000 0.01800000 -0.05800000
v -0.00200000 0.01400000 -0.05400000
v -0.00200000 0.01800000 -0.05400000
v -0.00200000 0.01400000 -0.05000000
v -0.00200000 0.01800000 -0.05000000
v -0.00200000 0.01400000 -0.04600000
v -0.00200000 0.01800000 -0.04600000
v -0.00200000 0.01400000 -0.04200000
v -0.00200000 0.01800000 -0.04200000
v -0.00200000 0.01400000 -0.03800000
v -0.00200000 0.01800000 -0.03800000
v -0.00200000 0.01400000 -0.03400000
v -0.00200000 0.01800000 -0.03400000
v -0.00200000 0.01400000 -0.03000000
v -0.00200000 0.01800000 -0.03000000
v -0.00200000 0.01400000 -0.02600000
v -0.00200000 0.01800000 -0.02600000
v -0.00200000 0.01800000 -0.02200000
v -0.00200000 0.01800000 -0.01800000
v 0.00200000 -0.01800000 -0.10600000
v 0.00200000 -0.01800000 -0.10200000
v 0.00200000 -0.01400000 -0.10600000
v 0.00200000 -0.01800000 -0.09800000
v 0.00200000 -0.01400000 -0.10200000
v 0.00200000 -0.01400000 -0.09800000
v 0.00200000 -0.01800000 -0.09400000
v 0.00200000 -0.01400000 -0.09400000
v 0.00200000 -0.01800000 -0.09000000
v 0.00200000 -0.01400000 -0.09000000
v 0.00200000 -0.01800000 -0.08600000
v 0.00200000 -0.01400000 -0.08600000
v 0.00200000 -0.01800000 -0.08200000
v 0.00200000 -0.01400000 -0.08200000
v 0.00200000 -0.01800000 -0.07800000
v 0.00200000 -0.01400000 -0.07800000
v 0.00200000 -0.01800000 -0.07400000
v 0.00200000 -0.01400000 -0.07400000
v 0.00200000 -0.01800000 -0.07000000
v 0.00200000 -0.01400000 -0.07000000
v 0.00200000 -0.01800000 -0.06600000
v 0.00200000 -0.01400000 -0.06600000
v 0.00200000 -0.01800000 -0.06200000
v 0.00200000 -0.01400000 -0.06200000
v 0.00200000 -0.01800000 -0.05800000
v 0.00200000 -0.01400000 -0.05800000
v 0.00200000 -0.01800000 -0.05400000
v 0.00200000 -0.01400000 -0.05400000
v 0.00200000 -0.01800000 -0.05000000
v 0.00200000 -0.01400000 -0.05000000
v 0.00200000 -0.01800000 -0.04600000
v 0.00200000 -0.01400000 -0.04600000
v 0.00200000 -0.01800000 -0.04200000
v 0.00200000 -0.01400000 -0.04200000
v 0.00200000 -0.01800000 -0.03800000
v 0.00200000 -0.01400000 -0.03800000
v 0.00200000 -0.01800000 -0.03400000
v 0.00200000 -0.01400000 -0.03400000
v 0.00200000 -0.01800000 -0.03000000
v 0.00200000 -0.01400000 -0.03000000
v 0.00200000 -0.01800000 -0.02600000
v 0.00200000 -0.01400000 -0.02600000
v 0.00200000 -0.01800000 -0.02200000
v 0.00200000 -0.01400000 -0.02200000
v 0.00200000 -0.01800000 -0.01800000
v 0.00200000 -0.01400000 -0.01800000
v -0.00200000 -0.01800000 -0.01400000
v -0.00200000 -0.01400000 -0.01400000
v 0.00200000 -0.01800000 -0.01400000
v 0.00200000 -0.01400000 -0.01400000
v 0.00200000 -0.01400000 -0.11000000
v 0.00200000 -0.01000000 -0.11000000
v 0.00200000 -0.01000000 -0.10200000
v 0.00200000 -0.00600000 -0.11000000
v 0.00200000 -0.01000000 -0.09800000
v 0.00200000 -0.00600000 -0.10200000
v 0.00200000 -0.00600000 -0.09800000
v 0.00200000 -0.01000000 -0.09400000
v 0.00200000 -0.00600000 -0.09400000
v 0.00200000 -0.01000000 -0.09000000
v 0.00200000 -0.00600000 -0.09000000
v 0.00200000 -0.01000000 -0.08600000
v 0.00200000 -0.00600000 -0.08600000
v 0.00200000 -0.00200000 -0.11000000
v 0.00200000 -0.00200000 -0.10200000
v 0.00200000 -0.00200000 -0.09000000
v 0.00200000 -0.00200000 -0.08600000
v 0.00200000 -0.00200000 -0.11400000
v 0.00200000 0.00200000 -0.11400000
v 0.00200000 0.00200000 -0.11000000
v 0.00200000 0.00200000 -0.10200000
v 0.00200000 0.00200000 -0.09000000
v 0.00200000 -0.00200000 -0.08200000
v 0.00200000 0.00200000 -0.08600000
v 0.00200000 0.00200000 -0.08200000
v 0.00200000 0.00600000 -0.11000000
v 0.00200000 0.00200000 -0.09800000
v 0.00200000 0.00600000 -0.09800000
v 0.00200000 0.00600000 -0.09000000
v 0.00200000 0.00600000 -0.08600000
v 0.00200000 0.01000000 -0.11000000
v 0.00200000 0.01000000 -0.10600000
v 0.00200000 0.00600000 -0.09400000
v 0.00200000 0.01000000 -0.09800000
v 0.00200000 0.01000000 -0.09400000
v 0.00200000 0.01000000 -0.09000000
v 0.00200000 0.01000000 -0.08600000
v 0.00200000 0.01400000 -0.10600000
v 0.00200000 0.01400000 -0.10200000
v 0.00200000 0.01400000 -0.09800000
v 0.00200000 0.01400000 -0.09400000
v 0.00200000 0.01800000 -0.09800000
v 0.00200000 0.01800000 -0.09400000
v 0.00200000 0.01400000 -0.09000000
v 0.00200000 0.01800000 -0.09000000
v 0.00200000 0.01400000 -0.08600000
v 0.00200000 0.01800000 -0.08600000
v 0.00200000 0.01400000 -0.08200000
v 0.00200000 0.01800000 -0.08200000
v 0.00200000 0.01400000 -0.07800000
v 0.00200000 0.01800000 -0.07800000
v 0.00200000 0.01400000 -0.07400000
v 0.00200000 0.01800000 -0.07400000
v 0.00200000 0.01400000 -0.07000000
v 0.00200000 0.01800000 -0.07000000
v 0.00200000 0.01400000 -0.06600000
v 0.00200000 0.01800000 -0.06600000
v 0.00200000 0.01400000 -0.06200000
v 0.00200000 0.01800000 -0.06200000
v 0.00200000 0.01400000 -0.05800000
v 0.00200000 0.01800000 -0.05800000
v 0.00200000 0.01400000 -0.05400000
v 0.00200000 0.01800000 -0.05400000
v 0.00200000 0.01400000 -0.05000000
v 0.00200000 0.01800000 -0.05000000
v 0.00200000 0.01400000 -0.04600000
v 0.00200000 0.01800000 -0.04600000
v 0.00200000 0.01400000 -0.04200000
v 0.00200000 0.01800000 -0.04200000
v 0.00200000 0.01400000 -0.03800000
v 0.00200000 0.01800000 -0.03800000
v 0.00200000 0.01400000 -0.03400000
v 0.00200000 0.01800000 -0.03400000
v 0.00200000 0.01400000 -0.03000000
v 0.00200000 0.01800000 -0.03000000
v 0.00200000 0.01400000 -0.02600000
v 0.00200000 0.01800000 -0.02600000
v 0.00200000 0.01400000 -0.02200000
v 0.00200000 0.01800000 -0.02200000
v 0.00200000 0.01400000 -0.01800000
v 0.00200000 0.01800000 -0.01800000
v 0.00600000 -0.01800000 -0.10600000
v 0.00600000 -0.01800000 -0.10200000
v 0.00600000 -0.01400000 -0.10600000
v 0.00600000 -0.01800000 -0.09800000
v 0.00600000 -0.01400000 -0.10200000
v 0.00600000 -0.01400000 -0.09800000
v 0.00600000 -0.01800000 -0.09400000
v 0.00600000 -0.01400000 -0.09400000
v 0.00600000 -0.01800000 -0.09000000
v 0.00600000 -0.01400000 -0.09000000
v 0.00600000 -0.01800000 -0.08600000
v 0.00600000 -0.01400000 -0.08600000
v 0.00600000 -0.01800000 -0.08200000
v 0.00600000 -0.01400000 -0.08200000
v 0.00600000 -0.01800000 -0.07800000
v 0.00600000 -0.01400000 -0.07800000
v 0.00600000 -0.01800000 -0.07400000
v 0.00600000 -0.01400000 -0.07400000
v 0.00600000 -0.01800000 -0.07000000
v 0.00600000 -0.01400000 -0.07000000
v 0.00600000 -0.01800000 -0.06600000
v 0.00600000 -0.01400000 -0.06600000
v 0.00600000 -0.01800000 -0.06200000
v 0.00600000 -0.01400000 -0.06200000
v 0.00600000 -0.01800000 -0.05800000
v 0.00600000 -0.01400000 -0.05800000
v 0.00600000 -0.01800000 -0.05400000
v 0.00600000 -0.01400000 -0.05400000
v 0.00600000 -0.01800000 -0.05000000
v 0.00600000 -0.01400000 -0.05000000
v 0.00600000 -0.01800000 -0.04600000
v 0.00600000 -0.01400000 -0.04600000
v 0.00600000 -0.01800000 -0.04200000
v 0.00600000 -0.01400000 -0.04200000
v 0.00600000 -0.01800000 -0.03800000
v 0.00600000 -0.01400000 -0.03800000
v 0.00600000 -0.01800000 -0.03400000
v 0.00600000 -0.01400000 -0.03400000
v 0.00600000 -0.01800000 -0.03000000
v 0.00600000 -0.01400000 -0.03000000
v 0.00600000 -0.01800000 -0.02600000
v 0.00600000 -0.01400000 -0.02600000
v 0.00600000 -0.01800000 -0.02200000
v 0.00600000 -0.01400000 -0.02200000
v 0.00600000 -0.01800000 -0.01800000
v 0.00600000 -0.01800000 -0.01400000
v 0.00600000 -0.01400000 -0.01800000
v 0.00600000 -0.01400000 -0.01400000
v 0.00600000 -0.01400000 -0.11000000
v 0.00600000 -0.01000000 -0.11000000
v 0.00600000 -0.01000000 -0.10200000
v 0.00200000 -0.01000000 -0.02200000
v 0.00200000 -0.01000000 -0.01800000
v 0.00600000 -0.01000000 -0.02200000
v 0.00200000 -0.01000000 -0.01400000
v 0.00600000 -0.01000000 -0.01800000
v 0.00600000 -0.01000000 -0.01400000
v 0.00600000 -0.00600000 -0.11000000
v 0.00600000 -0.01000000 -0.09800000
v 0.00600000 -0.00600000 -0.10200000
v 0.00600000 -0.00600000 -0.09800000
v 0.00600000 -0.01000000 -0.09400000
v 0.00600000 -0.00600000 -0.09400000
v 0.00600000 -0.01000000 -0.09000000
v 0.00600000 -0.00600000 -0.09000000
v 0.00600000 -0.01000000 -0.08600000
v 0.00600000 -0.00600000 -0.08600000
v 0.00200000 -0.00600000 -0.02200000
v 0.00200000 -0.00600000 -0.01800000
v 0.00600000 -0.00600000 -0.02200000
v 0.00600000 -0.00600000 -0.01800000
v 0.00600000 -0.00200000 -0.11000000
v 0.00600000 -0.00200000 -0.10200000
v 0.00600000 -0.00200000 -0.09000000
v 0.00600000 -0.00200000 -0.08600000
v 0.00200000 -0.00200000 -0.02200000
v 0.00200000 -0.00200000 -0.01800000
v 0.00600000 -0.00200000 -0.02200000
v 0.00600000 -0.00200000 -0.01800000
v 0.00600000 -0.00200000 -0.11400000
v 0.00600000 0.00200000 -0.11400000
v 0.00600000 0.00200000 -0.11000000
v 0.00600000 0.00200000 -0.10200000
v 0.00600000 0.00200000 -0.09000000
v 0.00600000 -0.00200000 -0.08200000
v 0.00600000 0.00200000 -0.08600000
v 0.00600000 0.00200000 -0.08200000
v 0.00200000 0.00200000 -0.02200000
v 0.00200000 0.00200000 -0.01800000
v 0.00600000 0.00200000 -0.02200000
v 0.00600000 0.00200000 -0.01800000
v 0.00600000 0.00600000 -0.11000000
v 0.00600000 0.00200000 -0.09800000
v 0.00600000 0.00600000 -0.09800000
v 0.00600000 0.00600000 -0.09000000
v 0.00600000 0.00600000 -0.08600000
v 0.00200000 0.00600000 -0.02200000
v 0.00200000 0.00600000 -0.01800000
v 0.00600000 0.00600000 -0.02200000
v 0.00600000 0.00600000 -0.01800000
v 0.00600000 0.01000000 -0.11000000
v 0.00600000 0.01000000 -0.10600000
v 0.00600000 0.00600000 -0.09400000
v 0.00600000 0.01000000 -0.09800000
v 0.00600000 0.01000000 -0.09400000
v 0.00600000 0.01000000 -0.09000000
v 0.00600000 0.01000000 -0.08600000
v 0.00200000 0.01000000 -0.02200000
v 0.00200000 0.01000000 -0.01800000
v 0.00600000 0.01000000 -0.02200000
v 0.00600000 0.01000000 -0.01800000
v 0.00600000 0.01400000 -0.10600000
v 0.00600000 0.01400000 -0.10200000
v 0.00600000 0.01400000 -0.09800000
v 0.00600000 0.01400000 -0.02200000
v 0.00600000 0.01400000 -0.01800000
v 0.00600000 0.01400000 -0.09400000
v 0.00600000 0.01800000 -0.09800000
v 0.00600000 0.01800000 -0.09400000
v 0.00600000 0.01400000 -0.09000000
v 0.00600000 0.01800000 -0.09000000
v 0.00600000 0.01400000 -0.08600000
v 0.00600000 0.01800000 -0.08600000
v 0.00600000 0.01400000 -0.08200000
v 0.00600000 0.01800000 -0.08200000
v 0.00600000 0.01400000 -0.07800000
v 0.00600000 0.01800000 -0.07800000
v 0.00600000 0.01400000 -0.07400000
v 0.00600000 0.01800000 -0.07400000
v 0.00600000 0.01400000 -0.07000000
v 0.00600000 0.01800000 -0.07000000
v 0.00600000 0.01400000 -0.06600000
v 0.00600000 0.01800000 -0.06600000
v 0.00600000 0.01400000 -0.06200000
v 0.00600000 0.01800000 -0.06200000
v 0.00600000 0.01400000 -0.05800000
v 0.00600000 0.01800000 -0.05800000
v 0.00600000 0.01400000 -0.05400000
v 0.00600000 0.01800000 -0.05400000
v 0.00600000 0.01400000 -0.05000000
v 0.00600000 0.01800000 -0.05000000
v 0.00600000 0.01400000 -0.04600000
v 0.00600000 0.01800000 -0.04600000
v 0.00600000 0.01400000 -0.04200000
v 0.00600000 0.01800000 -0.04200000
v 0.00600000 0.01400000 -0.03800000
v 0.00600000 0.01800000 -0.03800000
v 0.00600000 0.01400000 -0.03400000
v 0.00600000 0.01800000 -0.03400000
v 0.00600000 0.01400000 -0.03000000
v 0.00600000 0.01800000 -0.03000000
v 0.00600000 0.01400000 -0.02600000
v 0.00600000 0.01800000 -0.02600000
v 0.00600000 0.01800000 -0.02200000
v 0.00600000 0.01800000 -0.01800000
v 0.01000000 -0.01800000 -0.10600000
v 0.01000000 -0.01800000 -0.10200000
v 0.01000000 -0.01400000 -0.10600000
v 0.01000000 -0.01400000 -0.10200000
v 0.01000000 -0.01800000 -0.09800000
v 0.01000000 -0.01400000 -0.09800000
v 0.01000000 -0.01800000 -0.09400000
v 0.01000000 -0.01400000 -0.09400000
v 0.01000000 -0.01800000 -0.09000000
v 0.01000000 -0.01400000 -0.09000000
v 0.01000000 -0.01800000 -0.08600000
v 0.01000000 -0.01400000 -0.08600000
v 0.01000000 -0.01800000 -0.08200000
v 0.01000000 -0.01400000 -0.08200000
v 0.01000000 -0.01800000 -0.07800000
v 0.01000000 -0.01400000 -0.07800000
v 0.01000000 -0.01800000 -0.07400000
v 0.01000000 -0.01400000 -0.07400000
v 0.01000000 -0.01800000 -0.07000000
v 0.01000000 -0.01400000 -0.07000000
v 0.01000000 -0.01800000 -0.06600000
v 0.01000000 -0.01400000 -0.06600000
v 0.01000000 -0.01800000 -0.06200000
v 0.01000000 -0.01400000 -0.06200000
v 0.01000000 -0.01800000 -0.05800000
v 0.01000000 -0.01400000 -0.05800000
v 0.01000000 -0.01800000 -0.05400000
v 0.01000000 -0.01400000 -0.05400000
v 0.01000000 -0.01800000 -0.05000000
v 0.01000000 -0.01400000 -0.05000000
v 0.01000000 -0.01800000 -0.04600000
v 0.01000000 -0.01400000 -0.04600000
v 0.01000000 -0.01800000 -0.04200000
v 0.01000000 -0.01400000 -0.04200000
v 0.01000000 -0.01800000 -0.03800000
v 0.01000000 -0.01400000 -0.03800000
v 0.01000000 -0.01800000 -0.03400000
v 0.01000000 -0.01400000 -0.03400000
v 0.01000000 -0.01800000 -0.03000000
v 0.01000000 -0.01400000 -0.03000000
v 0.01000000 -0.01800000 -0.02600000
v 0.01000000 -0.01400000 -0.02600000
v 0.01000000 -0.01800000 -0.02200000
v 0.01000000 -0.01400000 -0.02200000
v 0.01000000 -0.01800000 -0.01800000
v 0.01000000 -0.01400000 -0.01800000
v 0.01000000 -0.01400000 -0.11000000
v 0.01000000 -0.01000000 -0.11000000
v 0.01000000 -0.01000000 -0.10600000
v 0.01000000 -0.01000000 -0.10200000
v 0.01000000 -0.01000000 -0.09800000
v 0.01000000 -0.01000000 -0.09400000
v 0.01000000 -0.01000000 -0.09000000
v 0.01000000 -0.01000000 -0.08600000
v 0.00600000 -0.01000000 -0.08200000
v 0.01000000 -0.01000000 -0.08200000
v 0.00600000 -0.01000000 -0.07800000
v 0.01000000 -0.01000000 -0.07800000
v 0.00600000 -0.01000000 -0.07400000
v 0.01000000 -0.01000000 -0.07400000
v 0.00600000 -0.01000000 -0.07000000
v 0.01000000 -0.01000000 -0.07000000
v 0.00600000 -0.01000000 -0.06600000
v 0.01000000 -0.01000000 -0.06600000
v 0.00600000 -0.01000000 -0.06200000
v 0.01000000 -0.01000000 -0.06200000
v 0.00600000 -0.01000000 -0.05800000
v 0.01000000 -0.01000000 -0.05800000
v 0.00600000 -0.01000000 -0.05400000
v 0.01000000 -0.01000000 -0.05400000
v 0.00600000 -0.01000000 -0.05000000
v 0.01000000 -0.01000000 -0.05000000
v 0.00600000 -0.01000000 -0.04600000
v 0.01000000 -0.01000000 -0.04600000
v 0.00600000 -0.01000000 -0.04200000
v 0.01000000 -0.01000000 -0.04200000
v 0.00600000 -0.01000000 -0.03800000
v 0.01000000 -0.01000000 -0.03800000
v 0.00600000 -0.01000000 -0.03400000
v 0.01000000 -0.01000000 -0.03400000
v 0.00600000 -0.01000000 -0.03000000
v 0.01000000 -0.01000000 -0.03000000
v 0.00600000 -0.01000000 -0.02600000
v 0.01000000 -0.01000000 -0.02600000
v 0.01000000 -0.01000000 -0.02200000
v 0.01000000 -0.01000000 -0.01800000
v 0.01000000 -0.00600000 -0.11000000
v 0.01000000 -0.00600000 -0.10600000
v 0.01000000 -0.00600000 -0.10200000
v 0.01000000 -0.00600000 -0.09800000
v 0.01000000 -0.00600000 -0.09400000
v 0.01000000 -0.00600000 -0.09000000
v 0.01000000 -0.00600000 -0.08600000
v 0.00600000 -0.00600000 -0.08200000
v 0.01000000 -0.00600000 -0.08200000
v 0.00600000 -0.00600000 -0.07800000
v 0.01000000 -0.00600000 -0.07800000
v 0.00600000 -0.00600000 -0.07400000
v 0.01000000 -0.00600000 -0.07400000
v 0.00600000 -0.00600000 -0.07000000
v 0.01000000 -0.00600000 -0.07000000
v 0.00600000 -0.00600000 -0.06600000
v 0.01000000 -0.00600000 -0.06600000
v 0.00600000 -0.00600000 -0.06200000
v 0.01000000 -0.00600000 -0.06200000
v 0.00600000 -0.00600000 -0.05800000
v 0.01000000 -0.00600000 -0.05800000
v 0.00600000 -0.00600000 -0.05400000
v 0.01000000 -0.00600000 -0.05400000
v 0.00600000 -0.00600000 -0.05000000
v 0.01000000 -0.00600000 -0.05000000
v 0.00600000 -0.00600000 -0.04600000
v 0.01000000 -0.00600000 -0.04600000
v 0.00600000 -0.00600000 -0.04200000
v 0.01000000 -0.00600000 -0.04200000
v 0.00600000 -0.00600000 -0.03800000
v 0.01000000 -0.00600000 -0.03800000
v 0.00600000 -0.00600000 -0.03400000
v 0.01000000 -0.00600000 -0.03400000
v 0.00600000 -0.00600000 -0.03000000
v 0.01000000 -0.00600000 -0.03000000
v 0.00600000 -0.00600000 -0.02600000
v 0.01000000 -0.00600000 -0.02600000
v 0.01000000 -0.00600000 -0.02200000
v 0.01000000 -0.00600000 -0.01800000
v 0.01000000 -0.00200000 -0.11000000
v 0.01000000 -0.00200000 -0.10600000
v 0.01000000 -0.00200000 -0.10200000
v 0.01000000 -0.00200000 -0.09000000
v 0.01000000 -0.00200000 -0.08600000
v 0.01000000 -0.00200000 -0.08200000
v 0.00600000 -0.00200000 -0.07800000
v 0.01000000 -0.00200000 -0.07800000
v 0.00600000 -0.00200000 -0.07400000
v 0.01000000 -0.00200000 -0.07400000
v 0.00600000 -0.00200000 -0.07000000
v 0.01000000 -0.00200000 -0.07000000
v 0.00600000 -0.00200000 -0.06600000
v 0.01000000 -0.00200000 -0.06600000
v 0.00600000 -0.00200000 -0.06200000
v 0.01000000 -0.00200000 -0.06200000
v 0.00600000 -0.00200000 -0.05800000
v 0.01000000 -0.00200000 -0.05800000
v 0.00600000 -0.00200000 -0.05400000
v 0.01000000 -0.00200000 -0.05400000
v 0.00600000 -0.00200000 -0.05000000
v 0.01000000 -0.00200000 -0.05000000
v 0.00600000 -0.00200000 -0.04600000
v 0.01000000 -0.00200000 -0.04600000
v 0.00600000 -0.00200000 -0.04200000
v 0.01000000 -0.00200000 -0.04200000
v 0.00600000 -0.00200000 -0.03800000
v 0.01000000 -0.00200000 -0.03800000
v 0.00600000 -0.00200000 -0.03400000
v 0.01000000 -0.00200000 -0.03400000
v 0.00600000 -0.00200000 -0.03000000
v 0.01000000 -0.00200000 -0.03000000
v 0.00600000 -0.00200000 -0.02600000
v 0.01000000 -0.00200000 -0.02600000
v 0.01000000 -0.00200000 -0.02200000
v 0.01000000 -0.00200000 -0.01800000
v 0.01000000 0.00200000 -0.11000000
v 0.01000000 0.00200000 -0.10600000
v 0.01000000 0.00200000 -0.10200000
v 0.01000000 0.00200000 -0.09000000
v 0.01000000 0.00200000 -0.08600000
v 0.01000000 0.00200000 -0.08200000
v 0.00600000 0.00200000 -0.07800000
v 0.01000000 0.00200000 -0.07800000
v 0.00600000 0.00200000 -0.07400000
v 0.01000000 0.00200000 -0.07400000
v 0.00600000 0.00200000 -0.07000000
v 0.01000000 0.00200000 -0.07000000
v 0.00600000 0.00200000 -0.06600000
v 0.01000000 0.00200000 -0.06600000
v 0.00600000 0.00200000 -0.06200000
v 0.01000000 0.00200000 -0.06200000
v 0.00600000 0.00200000 -0.05800000
v 0.01000000 0.00200000 -0.05800000
v 0.00600000 0.00200000 -0.05400000
v 0.01000000 0.00200000 -0.05400000
v 0.00600000 0.00200000 -0.05000000
v 0.01000000 0.00200000 -0.05000000
v 0.00600000 0.00200000 -0.04600000
v 0.01000000 0.00200000 -0.04600000
v 0.00600000 0.00200000 -0.04200000
v 0.01000000 0.00200000 -0.04200000
v 0.00600000 0.00200000 -0.03800000
v 0.01000000 0.00200000 -0.03800000
v 0.00600000 0.00200000 -0.03400000
v 0.01000000 0.00200000 -0.03400000
v 0.00600000 0.00200000 -0.03000000
v 0.01000000 0.00200000 -0.03000000
v 0.00600000 0.00200000 -0.02600000
v 0.01000000 0.00200000 -0.02600000
v 0.01000000 0.00200000 -0.02200000
v 0.01000000 0.00200000 -0.01800000
v 0.01000000 0.00600000 -0.11000000
v 0.01000000 0.00600000 -0.10600000
v 0.01000000 0.00600000 -0.10200000
v 0.01000000 0.00200000 -0.09800000
v 0.01000000 0.00600000 -0.09800000
v 0.01000000 0.00600000 -0.09000000
v 0.01000000 0.00600000 -0.08600000
v 0.00600000 0.00600000 -0.08200000
v 0.01000000 0.00600000 -0.08200000
v 0.00600000 0.00600000 -0.07800000
v 0.01000000 0.00600000 -0.07800000
v 0.00600000 0.00600000 -0.07400000
v 0.01000000 0.00600000 -0.07400000
v 0.00600000 0.00600000 -0.07000000
v 0.01000000 0.00600000 -0.07000000
v 0.00600000 0.00600000 -0.06600000
v 0.01000000 0.00600000 -0.06600000
v 0.00600000 0.00600000 -0.06200000
v 0.01000000 0.00600000 -0.06200000
v 0.00600000 0.00600000 -0.05800000
v 0.01000000 0.00600000 -0.05800000
v 0.00600000 0.00600000 -0.05400000
v 0.01000000 0.00600000 -0.05400000
v 0.00600000 0.00600000 -0.05000000
v 0.01000000 0.00600000 -0.05000000
v 0.00600000 0.00600000 -0.04600000
v 0.01000000 0.00600000 -0.04600000
v 0.00600000 0.00600000 -0.04200000
v 0.01000000 0.00600000 -0.04200000
v 0.00600000 0.00600000 -0.03800000
v 0.01000000 0.00600000 -0.03800000
v 0.00600000 0.00600000 -0.03400000
v 0.01000000 0.00600000 -0.03400000
v 0.00600000 0.00600000 -0.03000000
v 0.01000000 0.00600000 -0.03000000
v 0.00600000 0.00600000 -0.02600000
v 0.01000000 0.00600000 -0.02600000
v 0.01000000 0.00600000 -0.02200000
v 0.01000000 0.00600000 -0.01800000
v 0.01000000 0.01000000 -0.11000000
v 0.01000000 0.01000000 -0.10600000
v 0.01000000 0.01000000 -0.10200000
v 0.01000000 0.01000000 -0.09800000
v 0.01000000 0.00600000 -0.09400000
v 0.01000000 0.01000000 -0.09400000
v 0.01000000 0.01000000 -0.09000000
v 0.01000000 0.01000000 -0.08600000
v 0.00600000 0.01000000 -0.08200000
v 0.01000000 0.01000000 -0.08200000
v 0.00600000 0.01000000 -0.07800000
v 0.01000000 0.01000000 -0.07800000
v 0.00600000 0.01000000 -0.07400000
v 0.01000000 0.01000000 -0.07400000
v 0.00600000 0.01000000 -0.07000000
v 0.01000000 0.01000000 -0.07000000
v 0.00600000 0.01000000 -0.06600000
v 0.01000000 0.01000000 -0.06600000
v 0.00600000 0.01000000 -0.06200000
v 0.01000000 0.01000000 -0.06200000
v 0.00600000 0.01000000 -0.05800000
v 0.01000000 0.01000000 -0.05800000
v 0.00600000 0.01000000 -0.05400000
v 0.01000000 0.01000000 -0.05400000
v 0.00600000 0.01000000 -0.05000000
v 0.01000000 0.01000000 -0.05000000
v 0.00600000 0.01000000 -0.04600000
v 0.01000000 0.01000000 -0.04600000
v 0.00600000 0.01000000 -0.04200000
v 0.01000000 0.01000000 -0.04200000
v 0.00600000 0.01000000 -0.03800000
v 0.01000000 0.01000000 -0.03800000
v 0.00600000 0.01000000 -0.03400000
v 0.01000000 0.01000000 -0.03400000
v 0.00600000 0.01000000 -0.03000000
v 0.01000000 0.01000000 -0.03000000
v 0.00600000 0.01000000 -0.02600000
v 0.01000000 0.01000000 -0.02600000
v 0.01000000 0.01000000 -0.02200000
v 0.01000000 0.01000000 -0.01800000
v 0.01000000 0.01400000 -0.10600000
v 0.01000000 0.01400000 -0.10200000
v 0.01000000 0.01400000 -0.09800000
v 0.01000000 0.01400000 -0.09400000
v 0.01000000 0.01400000 -0.09000000
v 0.01000000 0.01400000 -0.08600000
v 0.01000000 0.01400000 -0.08200000
v 0.01000000 0.01400000 -0.07800000
v 0.01000000 0.01400000 -0.07400000
v 0.01000000 0.01400000 -0.07000000
v 0.01000000 0.01400000 -0.06600000
v 0.01000000 0.01400000 -0.06200000
v 0.01000000 0.01400000 -0.05800000
v 0.01000000 0.01400000 -0.05400000
v 0.01000000 0.01400000 -0.05000000
v 0.01000000 0.01400000 -0.04600000
v 0.01000000 0.01400000 -0.04200000
v 0.01000000 0.01400000 -0.03800000
v 0.01000000 0.01400000 -0.03400000
v 0.01000000 0.01400000 -0.03000000
v 0.01000000 0.01400000 -0.02600000
v 0.01000000 0.01400000 -0.02200000
v 0.01000000 0.01400000 -0.01800000
v 0.01000000 0.01800000 -0.09800000
v 0.01000000 0.01800000 -0.09400000
v 0.01000000 0.01800000 -0.09000000
v 0.01000000 0.01800000 -0.08600000
v 0.01000000 0.01800000 -0.08200000
v 0.01000000 0.01800000 -0.07800000
v 0.01000000 0.01800000 -0.07400000
v 0.01000000 0.01800000 -0.07000000
v 0.01000000 0.01800000 -0.06600000
v 0.01000000 0.01800000 -0.06200000
v 0.01000000 0.01800000 -0.05800000
v 0.01000000 0.01800000 -0.05400000
v 0.01000000 0.01800000 -0.05000000
v 0.01000000 0.01800000 -0.04600000
v 0.01000000 0.01800000 -0.04200000
v 0.01000000 0.01800000 -0.03800000
v 0.01000000 0.01800000 -0.03400000
v 0.01000000 0.01800000 -0.03000000
v 0.01000000 0.01800000 -0.02600000
v 0.01000000 0.01800000 -0.02200000
v 0.01000000 0.01800000 -0.01800000
f 2 4 1
f 5 2 1
f 1 4 3
f 3 5 1
f 6 2 5
f 7 5 3
f 8 9 2
f 6 8 2
f 2 9 4
f 10 8 6
f 11 12 8
f 10 11 8
f 8 12 9
f 13 11 10
f 14 15 11
f 13 14 11
f 11 15 12
f 16 14 13
f 17 18 14
f 16 17 14
f 14 18 15
f 19 17 16
f 20 21 17
f 19 20 17
f 17 21 18
f 22 20 19
f 23 24 20
f 22 23 20
f 20 24 21
f 25 23 22
f 26 27 23
f 25 26 23
f 23 27 24
f 28 26 25
f 29 30 26
f 28 29 26
f 26 30 27
f 31 29 28
f 32 33 29
f 31 32 29
f 29 33 30
f 34 32 31
f 35 36 32
f 34 35 32
f 32 36 33
f 37 35 34
f 38 39 35
f 37 38 35
f 35 39 36
f 40 38 37
f 41 42 38
f 40 41 38
f 38 42 39
f 43 41 40
f 44 45 41
f 43 44 41
f 41 45 42
f 46 44 43
f 47 48 44
f 46 47 44
f 44 48 45
f 49 47 46
f 50 51 47
f 49 50 47
f 47 51 48
f 52 50 49
f 53 54 50
f 52 53 50
f 50 54 51
f 55 53 52
f 56 57 53
f 55 56 53
f 53 57 54
f 58 56 55
f 59 60 56
f 58 59 56
f 56 60 57
f 61 59 58
f 62 63 59
f 61 62 59
f 59 63 60
f 64 62 61
f 65 66 62
f 64 65 62
f 62 66 63
f 67 65 64
f 68 69 65
f 67 68 65
f 65 69 66
f 68 71 69
f 70 68 67
f 70 71 68
f 3 74 72
f 75 3 72
f 72 74 73
f 73 75 72
f 7 3 75
f 76 75 73
f 4 77 3
f 3 77 74
f 9 78 4
f 4 78 77
f 81 80 79
f 82 80 81
f 12 83 9
f 9 83 78
f 82 84 80
f 85 84 82
f 15 86 12
f 12 86 83
f 85 87 84
f 88 87 85
f 18 89 15
f 15 89 86
f 88 90 87
f 91 90 88
f 21 92 18
f 18 92 89
f 91 93 90
f 94 93 91
f 24 95 21
f 21 95 92
f 94 96 93
f 97 96 94
f 27 98 24
f 24 98 95
f 97 99 96
f 100 99 97
f 30 101 27
f 27 101 98
f 100 102 99
f 103 102 100
f 33 104 30
f 30 104 101
f 103 105 102
f 106 105 103
f 36 107 33
f 33 107 104
f 106 108 105
f 109 108 106
f 39 110 36
f 36 110 107
f 109 111 108
f 112 111 109
f 42 113 39
f 39 113 110
f 112 114 111
f 115 114 112
f 45 116 42
f 42 116 113
f 115 117 114
f 118 117 115
f 48 119 45
f 45 119 116
f 118 120 117
f 121 120 118
f 51 122 48
f 48 122 119
f 121 123 120
f 124 123 121
f 54 125 51
f 51 125 122
f 124 126 123
f 127 126 124
f 57 128 54
f 54 128 125
f 127 129 126
f 130 129 127
f 60 131 57
f 57 131 128
f 130 132 129
f 133 132 130
f 63 134 60
f 60 134 131
f 133 135 132
f 136 135 133
f 66 137 63
f 63 137 134
f 136 138 135
f 139 138 136
f 69 140 66
f 66 140 137
f 69 141 140
f 71 141 69
f 74 143 73
f 73 143 142
f 142 76 73
f 144 76 142
f 77 145 74
f 74 145 143
f 78 146 77
f 77 146 145
f 146 148 145
f 145 148 147
f 83 149 78
f 78 149 146
f 149 150 146
f 146 150 148
f 86 151 83
f 83 151 149
f 151 152 149
f 149 152 150
f 89 153 86
f 86 153 151
f 92 154 89
f 89 154 153
f 155 94 91
f 156 94 155
f 95 157 92
f 92 157 154
f 156 97 94
f 158 97 156
f 98 159 95
f 95 159 157
f 158 100 97
f 160 100 158
f 101 161 98
f 98 161 159
f 160 103 100
f 162 103 160
f 104 163 101
f 101 163 161
f 162 106 103
f 164 106 162
f 107 165 104
f 104 165 163
f 164 109 106
f 166 109 164
f 110 167 107
f 107 167 165
f 166 112 109
f 168 112 166
f 113 169 110
f 110 169 167
f 168 115 112
f 170 115 168
f 116 171 113
f 113 171 169
f 170 118 115
f 172 118 170
f 119 173 116
f 116 173 171
f 172 121 118
f 174 121 172
f 122 175 119
f 119 175 173
f 174 124 121
f 176 124 174
f 125 177 122
f 122 177 175
f 176 127 124
f 178 127 176
f 128 179 125
f 125 179 177
f 178 130 127
f 180 130 178
f 131 181 128
f 128 181 179
f 180 133 130
f 182 133 180
f 134 183 131
f 131 183 181
f 182 136 133
f 184 136 182
f 137 185 134
f 134 185 183
f 184 139 136
f 186 139 184
f 140 187 137
f 137 187 185
f 140 188 187
f 141 188 140
f 143 190 142
f 142 190 189
f 189 144 142
f 191 144 189
f 145 192 143
f 143 192 190
f 145 193 192
f 147 193 145
f 153 195 151
f 151 195 194
f 194 152 151
f 195 197 194
f 196 152 194
f 194 197 196
f 154 198 153
f 153 198 195
f 197 156 155
f 199 156 197
f 157 200 154
f 154 200 198
f 199 158 156
f 201 158 199
f 159 202 157
f 157 202 200
f 201 160 158
f 203 160 201
f 161 204 159
f 159 204 202
f 203 162 160
f 205 162 203
f 163 206 161
f 161 206 204
f 205 164 162
f 207 164 205
f 165 208 163
f 163 208 206
f 207 166 164
f 209 166 207
f 167 210 165
f 165 210 208
f 209 168 166
f 211 168 209
f 169 212 167
f 167 212 210
f 211 170 168
f 213 170 211
f 171 214 169
f 169 214 212
f 213 172 170
f 215 172 213
f 173 216 171
f 171 216 214
f 215 174 172
f 217 174 215
f 175 218 173
f 173 218 216
f 217 176 174
f 219 176 217
f 177 220 175
f 175 220 218
f 219 178 176
f 221 178 219
f 179 222 177
f 177 222 220
f 221 180 178
f 223 180 221
f 181 224 179
f 179 224 222
f 223 182 180
f 225 182 223
f 183 226 181
f 181 226 224
f 225 184 182
f 227 184 225
f 185 228 183
f 183 228 226
f 227 186 184
f 229 186 227
f 187 230 185
f 185 230 228
f 187 231 230
f 188 231 187
f 190 233 189
f 189 233 232
f 232 191 189
f 234 191 232
f 192 235 190
f 190 235 233
f 192 236 235
f 193 236 192
f 198 238 195
f 195 238 237
f 237 197 195
f 239 197 237
f 200 240 198
f 198 240 238
f 241 201 199
f 242 201 241
f 202 243 200
f 200 243 240
f 242 203 201
f 244 203 242
f 204 245 202
f 202 245 243
f 244 205 203
f 246 205 244
f 206 247 204
f 204 247 245
f 246 207 205
f 248 207 246
f 208 249 206
f 206 249 247
f 248 209 207
f 250 209 248
f 210 251 208
f 208 251 249
f 250 211 209
f 252 211 250
f 212 253 210
f 210 253 251
f 252 213 211
f 254 213 252
f 214 255 212
f 212 255 253
f 254 215 213
f 256 215 254
f 216 257 214
f 214 257 255
f 256 217 215
f 258 217 256
f 218 259 216
f 216 259 257
f 258 219 217
f 260 219 258
f 220 261 218
f 218 261 259
f 260 221 219
f 262 221 260
f 222 263 220
f 220 263 261
f 262 223 221
f 264 223 262
f 224 265 222
f 222 265 263
f 264 225 223
f 266 225 264
f 226 267 224
f 224 267 265
f 266 227 225
f 268 227 266
f 228 269 226
f 226 269 267
f 268 229 227
f 270 229 268
f 230 271 228
f 228 271 269
f 230 272 271
f 231 272 230
f 233 274 232
f 232 274 273
f 273 234 232
f 275 234 273
f 235 276 233
f 233 276 274
f 277 278 235
f 236 277 235
f 235 278 276
f 277 280 278
f 279 277 236
f 279 280 277
f 237 283 281
f 284 237 281
f 281 283 282
f 282 284 281
f 239 237 284
f 285 284 282
f 238 286 237
f 237 286 283
f 287 241 239
f 288 241 287
f 240 289 238
f 238 289 286
f 288 242 241
f 290 242 288
f 243 291 240
f 240 291 289
f 290 244 242
f 292 244 290
f 245 293 243
f 243 293 291
f 292 246 244
f 294 246 292
f 247 295 245
f 245 295 293
f 294 248 246
f 296 248 294
f 249 297 247
f 247 297 295
f 296 250 248
f 298 250 296
f 251 299 249
f 249 299 297
f 298 252 250
f 300 252 298
f 253 301 251
f 251 301 299
f 300 254 252
f 302 254 300
f 255 303 253
f 253 303 301
f 302 256 254
f 304 256 302
f 257 305 255
f 255 305 303
f 304 258 256
f 306 258 304
f 259 307 257
f 257 307 305
f 306 260 258
f 308 260 306
f 261 309 259
f 259 309 307
f 308 262 260
f 310 262 308
f 263 311 261
f 261 311 309
f 310 264 262
f 312 264 310
f 265 313 263
f 263 313 311
f 312 266 264
f 314 266 312
f 267 315 265
f 265 315 313
f 314 268 266
f 316 268 314
f 269 317 267
f 267 317 315
f 316 270 268
f 318 270 316
f 271 319 269
f 269 319 317
f 271 320 319
f 272 320 271
f 274 322 273
f 273 322 321
f 321 275 273
f 322 324 321
f 323 275 321
f 321 324 323
f 276 325 274
f 274 325 322
f 278 326 276
f 276 326 325
f 327 328 278
f 280 327 278
f 278 328 326
f 329 327 280
f 282 330 327
f 329 282 327
f 327 330 328
f 285 282 329
f 283 331 282
f 282 331 330
f 286 332 283
f 283 332 331
f 333 288 287
f 334 288 333
f 289 335 286
f 286 335 332
f 334 290 288
f 336 290 334
f 291 337 289
f 289 337 335
f 336 292 290
f 338 292 336
f 293 339 291
f 291 339 337
f 338 294 292
f 340 294 338
f 295 341 293
f 293 341 339
f 340 296 294
f 342 296 340
f 297 343 295
f 295 343 341
f 342 298 296
f 344 298 342
f 299 345 297
f 297 345 343
f 344 300 298
f 346 300 344
f 301 347 299
f 299 347 345
f 346 302 300
f 348 302 346
f 303 349 301
f 301 349 347
f 348 304 302
f 350 304 348
f 305 351 303
f 303 351 349
f 350 306 304
f 352 306 350
f 307 353 305
f 305 353 351
f 352 308 306
f 354 308 352
f 309 355 307
f 307 355 353
f 354 310 308
f 356 310 354
f 311 357 309
f 309 357 355
f 356 312 310
f 358 312 356
f 313 359 311
f 311 359 357
f 358 314 312
f 360 314 358
f 315 361 313
f 313 361 359
f 360 316 314
f 362 316 360
f 317 363 315
f 315 363 361
f 362 318 316
f 364 318 362
f 319 365 317
f 317 365 363
f 319 366 365
f 320 366 319
f 325 368 322
f 322 368 367
f 367 324 322
f 368 370 367
f 369 324 367
f 367 370 369
f 326 371 325
f 325 371 368
f 371 372 368
f 368 372 370
f 328 373 326
f 326 373 371
f 372 375 374
f 376 375 372
f 330 377 328
f 328 377 373
f 376 378 375
f 379 378 376
f 331 380 330
f 330 380 377
f 379 333 378
f 381 333 379
f 332 382 331
f 331 382 380
f 381 334 333
f 383 334 381
f 335 384 332
f 332 384 382
f 383 336 334
f 385 336 383
f 337 386 335
f 335 386 384
f 385 338 336
f 387 338 385
f 339 388 337
f 337 388 386
f 387 340 338
f 389 340 387
f 341 390 339
f 339 390 388
f 389 342 340
f 391 342 389
f 343 392 341
f 341 392 390
f 391 344 342
f 393 344 391
f 345 394 343
f 343 394 392
f 393 346 344
f 395 346 393
f 347 396 345
f 345 396 394
f 395 348 346
f 397 348 395
f 349 398 347
f 347 398 396
f 397 350 348
f 399 350 397
f 351 400 349
f 349 400 398
f 399 352 350
f 401 352 399
f 353 402 351
f 351 402 400
f 401 354 352
f 403 354 401
f 355 404 353
f 353 404 402
f 403 356 354
f 405 356 403
f 357 406 355
f 355 406 404
f 405 358 356
f 407 358 405
f 359 408 357
f 357 408 406
f 407 360 358
f 409 360 407
f 361 410 359
f 359 410 408
f 409 362 360
f 411 362 409
f 363 412 361
f 361 412 410
f 411 364 362
f 413 364 411
f 365 414 363
f 363 414 412
f 365 415 414
f 366 415 365
f 373 417 371
f 371 417 416
f 416 372 371
f 417 419 416
f 418 372 416
f 416 419 418
f 377 420 373
f 373 420 417
f 420 421 417
f 417 421 419
f 380 422 377
f 377 422 420
f 422 423 420
f 420 423 421
f 382 424 380
f 380 424 422
f 424 425 422
f 422 425 423
f 384 426 382
f 382 426 424
f 426 427 424
f 424 427 425
f 386 428 384
f 384 428 426
f 428 429 426
f 426 429 427
f 388 430 386
f 386 430 428
f 430 431 428
f 428 431 429
f 390 432 388
f 388 432 430
f 432 433 430
f 430 433 431
f 392 434 390
f 390 434 432
f 434 435 432
f 432 435 433
f 394 436 392
f 392 436 434
f 436 437 434
f 434 437 435
f 396 438 394
f 394 438 436
f 438 439 436
f 436 439 437
f 398 440 396
f 396 440 438
f 440 441 438
f 438 441 439
f 400 442 398
f 398 442 440
f 442 443 440
f 440 443 441
f 402 444 400
f 400 444 442
f 444 445 442
f 442 445 443
f 404 446 402
f 402 446 444
f 446 447 444
f 444 447 445
f 406 448 404
f 404 448 446
f 448 449 446
f 446 449 447
f 408 450 406
f 406 450 448
f 450 451 448
f 448 451 449
f 410 452 408
f 408 452 450
f 452 453 450
f 450 453 451
f 412 454 410
f 410 454 452
f 454 455 452
f 452 455 453
f 414 456 412
f 412 456 454
f 414 457 456
f 415 457 414
f 456 457 454
f 454 457 455
f 458 6 5
f 7 458 5
f 459 6 458
f 460 458 7
f 459 10 6
f 461 10 459
f 80 463 79
f 79 463 462
f 461 13 10
f 464 13 461
f 84 465 80
f 80 465 463
f 464 16 13
f 466 16 464
f 87 467 84
f 84 467 465
f 466 19 16
f 468 19 466
f 90 469 87
f 87 469 467
f 468 22 19
f 470 22 468
f 93 471 90
f 90 471 469
f 470 25 22
f 472 25 470
f 96 473 93
f 93 473 471
f 472 28 25
f 474 28 472
f 99 475 96
f 96 475 473
f 474 31 28
f 476 31 474
f 102 477 99
f 99 477 475
f 476 34 31
f 478 34 476
f 105 479 102
f 102 479 477
f 478 37 34
f 480 37 478
f 108 481 105
f 105 481 479
f 480 40 37
f 482 40 480
f 111 483 108
f 108 483 481
f 482 43 40
f 484 43 482
f 114 485 111
f 111 485 483
f 484 46 43
f 486 46 484
f 117 487 114
f 114 487 485
f 486 49 46
f 488 49 486
f 120 489 117
f 117 489 487
f 488 52 49
f 490 52 488
f 123 491 120
f 120 491 489
f 490 55 52
f 492 55 490
f 126 493 123
f 123 493 491
f 492 58 55
f 494 58 492
f 129 495 126
f 126 495 493
f 494 61 58
f 496 61 494
f 132 497 129
f 129 497 495
f 496 64 61
f 498 64 496
f 135 499 132
f 132 499 497
f 498 67 64
f 500 67 498
f 138 501 135
f 135 501 499
f 500 70 67
f 70 503 71
f 502 70 500
f 502 503 70
f 504 7 75
f 76 504 75
f 460 7 504
f 505 504 76
f 79 506 81
f 462 506 79
f 139 501 138
f 71 508 141
f 503 508 71
f 507 501 139
f 507 503 501
f 508 503 507
f 144 505 76
f 509 505 144
f 506 82 81
f 510 82 506
f 148 512 147
f 147 512 511
f 510 85 82
f 513 85 510
f 150 514 148
f 148 514 512
f 513 88 85
f 515 88 513
f 152 516 150
f 150 516 514
f 515 91 88
f 91 518 155
f 517 91 515
f 517 518 91
f 186 507 139
f 141 520 188
f 508 520 141
f 519 507 186
f 519 508 507
f 520 508 519
f 191 509 144
f 521 509 191
f 147 522 193
f 511 522 147
f 196 516 152
f 155 524 197
f 518 524 155
f 523 516 196
f 229 519 186
f 188 526 231
f 520 526 188
f 525 519 229
f 525 520 519
f 526 520 525
f 191 234 527
f 529 191 527
f 527 234 528
f 528 529 527
f 521 191 529
f 234 531 528
f 530 529 528
f 528 531 530
f 193 532 236
f 522 532 193
f 197 239 196
f 196 239 284
f 284 523 196
f 533 523 284
f 524 199 197
f 199 536 241
f 534 199 524
f 534 536 199
f 241 536 239
f 239 536 535
f 270 525 229
f 231 538 272
f 526 538 231
f 537 525 270
f 537 526 525
f 538 526 537
f 275 531 234
f 539 531 275
f 532 279 236
f 279 541 280
f 540 279 532
f 540 541 279
f 285 533 284
f 239 543 287
f 535 543 239
f 542 533 285
f 318 537 270
f 272 545 320
f 538 545 272
f 544 537 318
f 544 538 537
f 545 538 544
f 323 539 275
f 324 547 323
f 546 539 323
f 323 547 546
f 541 329 280
f 548 329 541
f 375 550 374
f 374 550 549
f 548 285 329
f 542 285 548
f 378 551 375
f 375 551 550
f 287 552 333
f 543 552 287
f 333 552 378
f 378 552 551
f 364 544 318
f 320 554 366
f 545 554 320
f 553 544 364
f 553 545 544
f 554 545 553
f 369 547 324
f 370 556 369
f 555 547 369
f 369 556 555
f 374 557 372
f 549 557 374
f 372 557 370
f 370 557 556
f 413 553 364
f 366 559 415
f 554 559 366
f 558 553 413
f 558 554 553
f 559 554 558
f 557 376 372
f 418 557 372
f 560 376 557
f 419 562 418
f 561 557 418
f 418 562 561
f 560 379 376
f 563 379 560
f 421 564 419
f 419 564 562
f 563 381 379
f 565 381 563
f 423 566 421
f 421 566 564
f 565 383 381
f 567 383 565
f 425 568 423
f 423 568 566
f 567 385 383
f 569 385 567
f 427 570 425
f 425 570 568
f 569 387 385
f 571 387 569
f 429 572 427
f 427 572 570
f 571 389 387
f 573 389 571
f 431 574 429
f 429 574 572
f 573 391 389
f 575 391 573
f 433 576 431
f 431 576 574
f 575 393 391
f 577 393 575
f 435 578 433
f 433 578 576
f 577 395 393
f 579 395 577
f 437 580 435
f 435 580 578
f 579 397 395
f 581 397 579
f 439 582 437
f 437 582 580
f 581 399 397
f 583 399 581
f 441 584 439
f 439 584 582
f 583 401 399
f 585 401 583
f 443 586 441
f 441 586 584
f 585 403 401
f 587 403 585
f 445 588 443
f 443 588 586
f 587 405 403
f 589 405 587
f 447 590 445
f 445 590 588
f 589 407 405
f 591 407 589
f 449 592 447
f 447 592 590
f 591 409 407
f 593 409 591
f 451 594 449
f 449 594 592
f 593 411 409
f 595 411 593
f 453 596 451
f 451 596 594
f 595 413 411
f 558 413 595
f 455 597 453
f 453 597 596
f 415 598 457
f 559 598 415
f 457 598 455
f 455 598 597
f 599 459 458
f 460 599 458
f 600 459 599
f 601 599 460
f 600 461 459
f 602 461 600
f 463 604 462
f 462 604 603
f 602 464 461
f 605 464 602
f 465 606 463
f 463 606 604
f 605 466 464
f 607 466 605
f 467 608 465
f 465 608 606
f 607 468 466
f 609 468 607
f 469 610 467
f 467 610 608
f 609 470 468
f 611 470 609
f 471 612 469
f 469 612 610
f 611 472 470
f 613 472 611
f 473 614 471
f 471 614 612
f 613 474 472
f 615 474 613
f 475 616 473
f 473 616 614
f 615 476 474
f 617 476 615
f 477 618 475
f 475 618 616
f 617 478 476
f 619 478 617
f 479 620 477
f 477 620 618
f 619 480 478
f 621 480 619
f 481 622 479
f 479 622 620
f 621 482 480
f 623 482 621
f 483 624 481
f 481 624 622
f 623 484 482
f 625 484 623
f 485 626 483
f 483 626 624
f 625 486 484
f 627 486 625
f 487 628 485
f 485 628 626
f 627 488 486
f 629 488 627
f 489 630 487
f 487 630 628
f 629 490 488
f 631 490 629
f 491 632 489
f 489 632 630
f 631 492 490
f 633 492 631
f 493 634 491
f 491 634 632
f 633 494 492
f 635 494 633
f 495 636 493
f 493 636 634
f 635 496 494
f 637 496 635
f 497 638 495
f 495 638 636
f 637 498 496
f 639 498 637
f 499 640 497
f 497 640 638
f 639 500 498
f 641 500 639
f 501 642 499
f 499 642 640
f 641 502 500
f 643 502 641
f 503 644 501
f 501 644 642
f 645 646 502
f 643 645 502
f 502 646 503
f 645 648 646
f 647 645 643
f 647 648 645
f 646 648 503
f 503 648 644
f 649 460 504
f 505 649 504
f 601 460 649
f 650 649 505
f 462 651 506
f 603 651 462
f 509 650 505
f 652 650 509
f 651 510 506
f 653 510 651
f 512 655 511
f 511 655 654
f 653 513 510
f 656 513 653
f 514 657 512
f 512 657 655
f 656 515 513
f 658 515 656
f 516 659 514
f 514 659 657
f 658 517 515
f 517 661 518
f 660 517 658
f 660 661 517
f 521 652 509
f 662 652 521
f 511 663 522
f 654 663 511
f 523 659 516
f 518 665 524
f 661 665 518
f 664 659 523
f 666 521 529
f 530 666 529
f 662 521 666
f 531 668 530
f 667 666 530
f 530 668 667
f 522 669 532
f 663 669 522
f 533 664 523
f 670 664 533
f 665 534 524
f 534 673 536
f 671 534 665
f 671 673 534
f 536 673 535
f 535 673 672
f 539 668 531
f 674 668 539
f 669 540 532
f 540 676 541
f 675 540 669
f 675 676 540
f 542 670 533
f 535 678 543
f 672 678 535
f 677 670 542
f 546 674 539
f 547 680 546
f 679 674 546
f 546 680 679
f 676 548 541
f 681 548 676
f 550 683 549
f 549 683 682
f 681 542 548
f 677 542 681
f 551 684 550
f 550 684 683
f 543 685 552
f 678 685 543
f 552 685 551
f 551 685 684
f 555 680 547
f 556 687 555
f 686 680 555
f 555 687 686
f 549 688 557
f 682 688 549
f 557 688 556
f 556 688 687
f 688 560 557
f 561 688 557
f 689 560 688
f 562 691 561
f 690 688 561
f 561 691 690
f 689 563 560
f 692 563 689
f 564 693 562
f 562 693 691
f 692 565 563
f 694 565 692
f 566 695 564
f 564 695 693
f 694 567 565
f 696 567 694
f 568 697 566
f 566 697 695
f 696 569 567
f 698 569 696
f 570 699 568
f 568 699 697
f 698 571 569
f 700 571 698
f 572 701 570
f 570 701 699
f 700 573 571
f 702 573 700
f 574 703 572
f 572 703 701
f 702 575 573
f 704 575 702
f 576 705 574
f 574 705 703
f 704 577 575
f 706 577 704
f 578 707 576
f 576 707 705
f 706 579 577
f 708 579 706
f 580 709 578
f 578 709 707
f 708 581 579
f 710 581 708
f 582 711 580
f 580 711 709
f 710 583 581
f 712 583 710
f 584 713 582
f 582 713 711
f 712 585 583
f 714 585 712
f 586 715 584
f 584 715 713
f 714 587 585
f 716 587 714
f 588 717 586
f 586 717 715
f 716 589 587
f 718 589 716
f 590 719 588
f 588 719 717
f 718 591 589
f 720 591 718
f 592 721 590
f 590 721 719
f 720 593 591
f 722 593 720
f 594 723 592
f 592 723 721
f 722 595 593
f 724 595 722
f 596 725 594
f 594 725 723
f 724 558 595
f 726 558 724
f 597 727 596
f 596 727 725
f 726 559 558
f 559 729 598
f 728 559 726
f 728 729 559
f 598 729 597
f 597 729 727
f 730 600 599
f 601 730 599
f 731 600 730
f 732 730 601
f 731 602 600
f 733 602 731
f 604 735 603
f 603 735 734
f 733 605 602
f 736 605 733
f 606 737 604
f 604 737 735
f 736 607 605
f 738 607 736
f 608 739 606
f 606 739 737
f 738 609 607
f 740 609 738
f 610 741 608
f 608 741 739
f 740 611 609
f 742 611 740
f 612 743 610
f 610 743 741
f 742 613 611
f 744 613 742
f 614 745 612
f 612 745 743
f 744 615 613
f 746 615 744
f 616 747 614
f 614 747 745
f 746 617 615
f 748 617 746
f 618 749 616
f 616 749 747
f 748 619 617
f 750 619 748
f 620 751 618
f 618 751 749
f 750 621 619
f 752 621 750
f 622 753 620
f 620 753 751
f 752 623 621
f 754 623 752
f 624 755 622
f 622 755 753
f 754 625 623
f 756 625 754
f 626 757 624
f 624 757 755
f 756 627 625
f 758 627 756
f 628 759 626
f 626 759 757
f 758 629 627
f 760 629 758
f 630 761 628
f 628 761 759
f 760 631 629
f 762 631 760
f 632 763 630
f 630 763 761
f 762 633 631
f 764 633 762
f 634 765 632
f 632 765 763
f 764 635 633
f 766 635 764
f 636 767 634
f 634 767 765
f 766 637 635
f 768 637 766
f 638 769 636
f 636 769 767
f 768 639 637
f 770 639 768
f 640 771 638
f 638 771 769
f 770 641 639
f 772 641 770
f 642 773 640
f 640 773 771
f 772 643 641
f 774 643 772
f 774 647 643
f 647 777 648
f 775 647 774
f 775 777 647
f 776 775 774
f 777 775 776
f 778 601 649
f 650 778 649
f 732 601 778
f 779 778 650
f 603 780 651
f 734 780 603
f 644 782 642
f 642 782 781
f 781 773 642
f 783 773 781
f 648 784 644
f 644 784 782
f 648 786 784
f 777 786 648
f 784 786 782
f 782 786 785
f 785 777 776
f 786 777 785
f 652 779 650
f 787 779 652
f 780 653 651
f 788 653 780
f 655 790 654
f 654 790 789
f 788 656 653
f 791 656 788
f 657 792 655
f 655 792 790
f 791 658 656
f 793 658 791
f 659 794 657
f 657 794 792
f 793 660 658
f 660 796 661
f 795 660 793
f 795 796 660
f 782 798 781
f 781 798 797
f 797 783 781
f 782 800 798
f 785 800 782
f 799 783 797
f 662 787 652
f 801 787 662
f 654 802 663
f 789 802 654
f 664 794 659
f 661 804 665
f 796 804 661
f 803 794 664
f 798 806 797
f 797 806 805
f 805 799 797
f 798 808 806
f 800 808 798
f 807 799 805
f 809 662 666
f 667 809 666
f 801 662 809
f 668 811 667
f 810 809 667
f 667 811 810
f 810 801 809
f 811 801 810
f 663 812 669
f 802 812 663
f 670 803 664
f 813 803 670
f 804 671 665
f 671 816 673
f 814 671 804
f 814 816 671
f 673 816 672
f 672 816 815
f 806 818 805
f 805 818 817
f 817 807 805
f 806 820 818
f 808 820 806
f 819 807 817
f 674 811 668
f 821 811 674
f 812 675 669
f 675 823 676
f 822 675 812
f 822 823 675
f 677 813 670
f 672 825 678
f 815 825 672
f 824 813 677
f 818 827 817
f 817 827 826
f 826 819 817
f 818 829 827
f 820 829 818
f 828 819 826
f 679 821 674
f 680 831 679
f 830 821 679
f 679 831 830
f 823 681 676
f 832 681 823
f 683 834 682
f 682 834 833
f 832 677 681
f 824 677 832
f 684 835 683
f 683 835 834
f 678 836 685
f 825 836 678
f 685 836 684
f 684 836 835
f 827 838 826
f 826 838 837
f 837 828 826
f 827 840 838
f 829 840 827
f 839 828 837
f 686 831 680
f 687 842 686
f 841 831 686
f 686 842 841
f 682 843 688
f 833 843 682
f 688 843 687
f 687 843 842
f 838 728 837
f 837 728 726
f 726 839 837
f 838 845 728
f 840 845 838
f 844 839 726
f 843 689 688
f 690 843 688
f 846 689 843
f 691 848 690
f 847 843 690
f 690 848 847
f 846 692 689
f 849 692 846
f 693 850 691
f 691 850 848
f 849 694 692
f 851 694 849
f 695 852 693
f 693 852 850
f 851 696 694
f 853 696 851
f 697 854 695
f 695 854 852
f 853 698 696
f 855 698 853
f 699 856 697
f 697 856 854
f 855 700 698
f 857 700 855
f 701 858 699
f 699 858 856
f 857 702 700
f 859 702 857
f 703 860 701
f 701 860 858
f 859 704 702
f 861 704 859
f 705 862 703
f 703 862 860
f 861 706 704
f 863 706 861
f 707 864 705
f 705 864 862
f 863 708 706
f 865 708 863
f 709 866 707
f 707 866 864
f 865 710 708
f 867 710 865
f 711 868 709
f 709 868 866
f 867 712 710
f 869 712 867
f 713 870 711
f 711 870 868
f 869 714 712
f 871 714 869
f 715 872 713
f 713 872 870
f 871 716 714
f 873 716 871
f 717 874 715
f 715 874 872
f 873 718 716
f 875 718 873
f 719 876 717
f 717 876 874
f 875 720 718
f 877 720 875
f 721 878 719
f 719 878 876
f 877 722 720
f 879 722 877
f 723 880 721
f 721 880 878
f 879 724 722
f 881 724 879
f 725 882 723
f 723 882 880
f 881 726 724
f 844 726 881
f 727 883 725
f 725 883 882
f 728 884 729
f 845 884 728
f 729 884 727
f 727 884 883
f 885 731 730
f 732 885 730
f 886 731 885
f 887 885 732
f 887 886 885
f 888 886 887
f 886 733 731
f 889 733 886
f 888 889 886
f 890 889 888
f 889 736 733
f 891 736 889
f 890 891 889
f 892 891 890
f 891 738 736
f 893 738 891
f 892 893 891
f 894 893 892
f 893 740 738
f 895 740 893
f 894 895 893
f 896 895 894
f 895 742 740
f 897 742 895
f 896 897 895
f 898 897 896
f 897 744 742
f 899 744 897
f 898 899 897
f 900 899 898
f 899 746 744
f 901 746 899
f 900 901 899
f 902 901 900
f 901 748 746
f 903 748 901
f 902 903 901
f 904 903 902
f 903 750 748
f 905 750 903
f 904 905 903
f 906 905 904
f 905 752 750
f 907 752 905
f 906 907 905
f 908 907 906
f 907 754 752
f 909 754 907
f 908 909 907
f 910 909 908
f 909 756 754
f 911 756 909
f 910 911 909
f 912 911 910
f 911 758 756
f 913 758 911
f 912 913 911
f 914 913 912
f 913 760 758
f 915 760 913
f 914 915 913
f 916 915 914
f 915 762 760
f 917 762 915
f 916 917 915
f 918 917 916
f 917 764 762
f 919 764 917
f 918 919 917
f 920 919 918
f 919 766 764
f 921 766 919
f 920 921 919
f 922 921 920
f 921 768 766
f 923 768 921
f 922 923 921
f 924 923 922
f 923 770 768
f 925 770 923
f 924 925 923
f 926 925 924
f 925 772 770
f 927 772 925
f 926 927 925
f 928 927 926
f 927 774 772
f 774 930 776
f 929 774 927
f 929 930 774
f 928 929 927
f 930 929 928
f 931 732 778
f 779 931 778
f 887 732 931
f 932 931 779
f 932 887 931
f 933 887 932
f 933 888 887
f 934 888 933
f 735 788 734
f 734 788 780
f 934 890 888
f 935 890 934
f 737 791 735
f 735 791 788
f 935 892 890
f 936 892 935
f 739 793 737
f 737 793 791
f 936 894 892
f 937 894 936
f 741 795 739
f 739 795 793
f 937 896 894
f 938 896 937
f 743 939 741
f 741 939 795
f 938 898 896
f 940 898 938
f 745 941 743
f 743 941 939
f 940 900 898
f 942 900 940
f 747 943 745
f 745 943 941
f 942 902 900
f 944 902 942
f 749 945 747
f 747 945 943
f 944 904 902
f 946 904 944
f 751 947 749
f 749 947 945
f 946 906 904
f 948 906 946
f 753 949 751
f 751 949 947
f 948 908 906
f 950 908 948
f 755 951 753
f 753 951 949
f 950 910 908
f 952 910 950
f 757 953 755
f 755 953 951
f 952 912 910
f 954 912 952
f 759 955 757
f 757 955 953
f 954 914 912
f 956 914 954
f 761 957 759
f 759 957 955
f 956 916 914
f 958 916 956
f 763 959 761
f 761 959 957
f 958 918 916
f 960 918 958
f 765 961 763
f 763 961 959
f 960 920 918
f 962 920 960
f 767 963 765
f 765 963 961
f 962 922 920
f 964 922 962
f 769 965 767
f 767 965 963
f 964 924 922
f 966 924 964
f 771 967 769
f 769 967 965
f 966 926 924
f 968 926 966
f 773 783 771
f 771 783 967
f 968 928 926
f 969 928 968
f 776 970 785
f 930 970 776
f 969 930 928
f 970 930 969
f 787 932 779
f 971 932 787
f 971 933 932
f 972 933 971
f 972 934 933
f 973 934 972
f 790 974 789
f 789 974 973
f 973 935 934
f 974 935 973
f 792 975 790
f 790 975 974
f 974 936 935
f 975 936 974
f 794 976 792
f 792 976 975
f 975 937 936
f 976 937 975
f 976 938 937
f 977 938 976
f 939 978 795
f 795 978 796
f 977 940 938
f 979 940 977
f 941 980 939
f 939 980 978
f 979 942 940
f 981 942 979
f 943 982 941
f 941 982 980
f 981 944 942
f 983 944 981
f 945 984 943
f 943 984 982
f 983 946 944
f 985 946 983
f 947 986 945
f 945 986 984
f 985 948 946
f 987 948 985
f 949 988 947
f 947 988 986
f 987 950 948
f 989 950 987
f 951 990 949
f 949 990 988
f 989 952 950
f 991 952 989
f 953 992 951
f 951 992 990
f 991 954 952
f 993 954 991
f 955 994 953
f 953 994 992
f 993 956 954
f 995 956 993
f 957 996 955
f 955 996 994
f 995 958 956
f 997 958 995
f 959 998 957
f 957 998 996
f 997 960 958
f 999 960 997
f 961 1000 959
f 959 1000 998
f 999 962 960
f 1001 962 999
f 963 1002 961
f 961 1002 1000
f 1001 964 962
f 1003 964 1001
f 965 1004 963
f 963 1004 1002
f 1003 966 964
f 1005 966 1003
f 967 1006 965
f 965 1006 1004
f 1005 968 966
f 1007 968 1005
f 783 799 967
f 967 799 1006
f 1007 969 968
f 1008 969 1007
f 785 1009 800
f 970 1009 785
f 1008 970 969
f 1009 970 1008
f 801 971 787
f 1010 971 801
f 1010 972 971
f 1011 972 1010
f 789 1012 802
f 973 1012 789
f 1011 973 972
f 1012 973 1011
f 803 976 794
f 1013 976 803
f 1013 977 976
f 1014 977 1013
f 978 814 796
f 796 814 804
f 1014 979 977
f 1015 979 1014
f 980 1016 978
f 978 1016 814
f 1015 981 979
f 1017 981 1015
f 982 1018 980
f 980 1018 1016
f 1017 983 981
f 1019 983 1017
f 984 1020 982
f 982 1020 1018
f 1019 985 983
f 1021 985 1019
f 986 1022 984
f 984 1022 1020
f 1021 987 985
f 1023 987 1021
f 988 1024 986
f 986 1024 1022
f 1023 989 987
f 1025 989 1023
f 990 1026 988
f 988 1026 1024
f 1025 991 989
f 1027 991 1025
f 992 1028 990
f 990 1028 1026
f 1027 993 991
f 1029 993 1027
f 994 1030 992
f 992 1030 1028
f 1029 995 993
f 1031 995 1029
f 996 1032 994
f 994 1032 1030
f 1031 997 995
f 1033 997 1031
f 998 1034 996
f 996 1034 1032
f 1033 999 997
f 1035 999 1033
f 1000 1036 998
f 998 1036 1034
f 1035 1001 999
f 1037 1001 1035
f 1002 1038 1000
f 1000 1038 1036
f 1037 1003 1001
f 1039 1003 1037
f 1004 1040 1002
f 1002 1040 1038
f 1039 1005 1003
f 1041 1005 1039
f 1006 1042 1004
f 1004 1042 1040
f 1041 1007 1005
f 1043 1007 1041
f 799 807 1006
f 1006 807 1042
f 1043 1008 1007
f 1044 1008 1043
f 800 1045 808
f 1009 1045 800
f 1044 1009 1008
f 1045 1009 1044
f 811 1010 801
f 1046 1010 811
f 1046 1011 1010
f 1047 1011 1046
f 802 1048 812
f 1012 1048 802
f 1047 1012 1011
f 1048 1012 1047
f 813 1013 803
f 1049 1013 813
f 1049 1014 1013
f 1050 1014 1049
f 1050 1015 1014
f 1051 1015 1050
f 1016 1052 814
f 814 1052 816
f 1051 1017 1015
f 1053 1017 1051
f 1018 1054 1016
f 1016 1054 1052
f 1053 1019 1017
f 1055 1019 1053
f 1020 1056 1018
f 1018 1056 1054
f 1055 1021 1019
f 1057 1021 1055
f 1022 1058 1020
f 1020 1058 1056
f 1057 1023 1021
f 1059 1023 1057
f 1024 1060 1022
f 1022 1060 1058
f 1059 1025 1023
f 1061 1025 1059
f 1026 1062 1024
f 1024 1062 1060
f 1061 1027 1025
f 1063 1027 1061
f 1028 1064 1026
f 1026 1064 1062
f 1063 1029 1027
f 1065 1029 1063
f 1030 1066 1028
f 1028 1066 1064
f 1065 1031 1029
f 1067 1031 1065
f 1032 1068 1030
f 1030 1068 1066
f 1067 1033 1031
f 1069 1033 1067
f 1034 1070 1032
f 1032 1070 1068
f 1069 1035 1033
f 1071 1035 1069
f 1036 1072 1034
f 1034 1072 1070
f 1071 1037 1035
f 1073 1037 1071
f 1038 1074 1036
f 1036 1074 1072
f 1073 1039 1037
f 1075 1039 1073
f 1040 1076 1038
f 1038 1076 1074
f 1075 1041 1039
f 1077 1041 1075
f 1042 1078 1040
f 1040 1078 1076
f 1077 1043 1041
f 1079 1043 1077
f 807 819 1042
f 1042 819 1078
f 1079 1044 1043
f 1080 1044 1079
f 808 1081 820
f 1045 1081 808
f 1080 1045 1044
f 1081 1045 1080
f 821 1046 811
f 1082 1046 821
f 1082 1047 1046
f 1083 1047 1082
f 1083 1048 1047
f 1084 1048 1083
f 1048 822 812
f 822 1086 823
f 1085 822 1048
f 1085 1086 822
f 1084 1085 1048
f 1086 1085 1084
f 824 1049 813
f 1087 1049 824
f 1087 1050 1049
f 1088 1050 1087
f 816 1089 815
f 815 1089 825
f 1088 1051 1050
f 1090 1051 1088
f 1052 1091 816
f 816 1091 1089
f 1090 1053 1051
f 1092 1053 1090
f 1054 1093 1052
f 1052 1093 1091
f 1092 1055 1053
f 1094 1055 1092
f 1056 1095 1054
f 1054 1095 1093
f 1094 1057 1055
f 1096 1057 1094
f 1058 1097 1056
f 1056 1097 1095
f 1096 1059 1057
f 1098 1059 1096
f 1060 1099 1058
f 1058 1099 1097
f 1098 1061 1059
f 1100 1061 1098
f 1062 1101 1060
f 1060 1101 1099
f 1100 1063 1061
f 1102 1063 1100
f 1064 1103 1062
f 1062 1103 1101
f 1102 1065 1063
f 1104 1065 1102
f 1066 1105 1064
f 1064 1105 1103
f 1104 1067 1065
f 1106 1067 1104
f 1068 1107 1066
f 1066 1107 1105
f 1106 1069 1067
f 1108 1069 1106
f 1070 1109 1068
f 1068 1109 1107
f 1108 1071 1069
f 1110 1071 1108
f 1072 1111 1070
f 1070 1111 1109
f 1110 1073 1071
f 1112 1073 1110
f 1074 1113 1072
f 1072 1113 1111
f 1112 1075 1073
f 1114 1075 1112
f 1076 1115 1074
f 1074 1115 1113
f 1114 1077 1075
f 1116 1077 1114
f 1078 1117 1076
f 1076 1117 1115
f 1116 1079 1077
f 1118 1079 1116
f 819 828 1078
f 1078 828 1117
f 1118 1080 1079
f 1119 1080 1118
f 820 1120 829
f 1081 1120 820
f 1119 1081 1080
f 1120 1081 1119
f 830 1082 821
f 831 1122 830
f 1121 1082 830
f 830 1122 1121
f 1121 1083 1082
f 1122 1083 1121
f 1122 1084 1083
f 1123 1084 1122
f 1123 1086 1084
f 1124 1086 1123
f 1086 832 823
f 1125 832 1086
f 1124 1125 1086
f 1126 1125 1124
f 1125 824 832
f 1087 824 1125
f 1126 1087 1125
f 1127 1087 1126
f 1127 1088 1087
f 1128 1088 1127
f 1089 1129 825
f 825 1129 836
f 1128 1090 1088
f 1130 1090 1128
f 1091 1131 1089
f 1089 1131 1129
f 1130 1092 1090
f 1132 1092 1130
f 1093 1133 1091
f 1091 1133 1131
f 1132 1094 1092
f 1134 1094 1132
f 1095 1135 1093
f 1093 1135 1133
f 1134 1096 1094
f 1136 1096 1134
f 1097 1137 1095
f 1095 1137 1135
f 1136 1098 1096
f 1138 1098 1136
f 1099 1139 1097
f 1097 1139 1137
f 1138 1100 1098
f 1140 1100 1138
f 1101 1141 1099
f 1099 1141 1139
f 1140 1102 1100
f 1142 1102 1140
f 1103 1143 1101
f 1101 1143 1141
f 1142 1104 1102
f 1144 1104 1142
f 1105 1145 1103
f 1103 1145 1143
f 1144 1106 1104
f 1146 1106 1144
f 1107 1147 1105
f 1105 1147 1145
f 1146 1108 1106
f 1148 1108 1146
f 1109 1149 1107
f 1107 1149 1147
f 1148 1110 1108
f 1150 1110 1148
f 1111 1151 1109
f 1109 1151 1149
f 1150 1112 1110
f 1152 1112 1150
f 1113 1153 1111
f 1111 1153 1151
f 1152 1114 1112
f 1154 1114 1152
f 1115 1155 1113
f 1113 1155 1153
f 1154 1116 1114
f 1156 1116 1154
f 1117 1157 1115
f 1115 1157 1155
f 1156 1118 1116
f 1158 1118 1156
f 828 839 1117
f 1117 839 1157
f 1158 1119 1118
f 1159 1119 1158
f 829 1160 840
f 1120 1160 829
f 1159 1120 1119
f 1160 1120 1159
f 841 1122 831
f 842 1162 841
f 1161 1122 841
f 841 1162 1161
f 1161 1123 1122
f 1162 1123 1161
f 843 1163 842
f 842 1163 1162
f 1162 1124 1123
f 1163 1124 1162
f 834 846 833
f 833 846 843
f 1163 1126 1124
f 1164 1126 1163
f 835 849 834
f 834 849 846
f 1164 1127 1126
f 1165 1127 1164
f 836 851 835
f 835 851 849
f 1165 1128 1127
f 1166 1128 1165
f 1129 853 836
f 836 853 851
f 1166 1130 1128
f 1167 1130 1166
f 1131 855 1129
f 1129 855 853
f 1167 1132 1130
f 1168 1132 1167
f 1133 857 1131
f 1131 857 855
f 1168 1134 1132
f 1169 1134 1168
f 1135 859 1133
f 1133 859 857
f 1169 1136 1134
f 1170 1136 1169
f 1137 861 1135
f 1135 861 859
f 1170 1138 1136
f 1171 1138 1170
f 1139 863 1137
f 1137 863 861
f 1171 1140 1138
f 1172 1140 1171
f 1141 865 1139
f 1139 865 863
f 1172 1142 1140
f 1173 1142 1172
f 1143 867 1141
f 1141 867 865
f 1173 1144 1142
f 1174 1144 1173
f 1145 869 1143
f 1143 869 867
f 1174 1146 1144
f 1175 1146 1174
f 1147 871 1145
f 1145 871 869
f 1175 1148 1146
f 1176 1148 1175
f 1149 873 1147
f 1147 873 871
f 1176 1150 1148
f 1177 1150 1176
f 1151 875 1149
f 1149 875 873
f 1177 1152 1150
f 1178 1152 1177
f 1153 877 1151
f 1151 877 875
f 1178 1154 1152
f 1179 1154 1178
f 1155 879 1153
f 1153 879 877
f 1179 1156 1154
f 1180 1156 1179
f 1157 881 1155
f 1155 881 879
f 1180 1158 1156
f 1181 1158 1180
f 839 844 1157
f 1157 844 881
f 1181 1159 1158
f 1182 1159 1181
f 840 1183 845
f 1160 1183 840
f 1182 1160 1159
f 1183 1160 1182
f 847 1163 843
f 848 1185 847
f 1184 1163 847
f 847 1185 1184
f 1184 1164 1163
f 1185 1164 1184
f 850 1186 848
f 848 1186 1185
f 1185 1165 1164
f 1186 1165 1185
f 852 1187 850
f 850 1187 1186
f 1186 1166 1165
f 1187 1166 1186
f 854 1188 852
f 852 1188 1187
f 1187 1167 1166
f 1188 1167 1187
f 856 1189 854
f 854 1189 1188
f 1188 1168 1167
f 1189 1168 1188
f 858 1190 856
f 856 1190 1189
f 1189 1169 1168
f 1190 1169 1189
f 860 1191 858
f 858 1191 1190
f 1190 1170 1169
f 1191 1170 1190
f 862 1192 860
f 860 1192 1191
f 1191 1171 1170
f 1192 1171 1191
f 864 1193 862
f 862 1193 1192
f 1192 1172 1171
f 1193 1172 1192
f 866 1194 864
f 864 1194 1193
f 1193 1173 1172
f 1194 1173 1193
f 868 1195 866
f 866 1195 1194
f 1194 1174 1173
f 1195 1174 1194
f 870 1196 868
f 868 1196 1195
f 1195 1175 1174
f 1196 1175 1195
f 872 1197 870
f 870 1197 1196
f 1196 1176 1175
f 1197 1176 1196
f 874 1198 872
f 872 1198 1197
f 1197 1177 1176
f 1198 1177 1197
f 876 1199 874
f 874 1199 1198
f 1198 1178 1177
f 1199 1178 1198
f 878 1200 876
f 876 1200 1199
f 1199 1179 1178
f 1200 1179 1199
f 880 1201 878
f 878 1201 1200
f 1200 1180 1179
f 1201 1180 1200
f 882 1202 880
f 880 1202 1201
f 1201 1181 1180
f 1202 1181 1201
f 883 1203 882
f 882 1203 1202
f 1202 1182 1181
f 1203 1182 1202
f 845 1204 884
f 1183 1204 845
f 884 1204 883
f 883 1204 1203
f 1203 1183 1182
f 1204 1183 1203

