# https://github.com/mikedh/trimesh

o 3.obj
v -0.04592774 -0.06131970 -0.10508159
v -0.03825909 -0.06132073 -0.10547625
v -0.03061313 -0.06095906 -0.10567293
v -0.02296149 -0.06060049 -0.10582682
v -0.01531011 -0.06060462 -0.10578378
v -0.00764996 -0.06060307 -0.10574098
v 0.00000889 -0.06060024 -0.10574098
v -0.04592774 -0.06897726 -0.10512464
v -0.04592878 -0.07663200 -0.10512438
v -0.04593496 -0.08428698 -0.10508159
v -0.04572281 -0.09208581 -0.10500451
v -0.03825677 -0.06897340 -0.10551904
v -0.03825858 -0.07662323 -0.10543320
v -0.03060668 -0.06897366 -0.10586987
v -0.03060204 -0.07661550 -0.10587013
v -0.03826502 -0.08478862 -0.10527956
v -0.03806009 -0.09270861 -0.10494986
v -0.03060359 -0.08528871 -0.10552033
v -0.03062292 -0.09267406 -0.10512567
v -0.02295298 -0.06897726 -0.10626402
v -0.02294989 -0.07661240 -0.10626402
v -0.01531269 -0.06898190 -0.10617766
v -0.01531346 -0.07661524 -0.10626324
v -0.02294602 -0.08527917 -0.10582889
v -0.02295040 -0.09317570 -0.10532338
v -0.01530521 -0.08527789 -0.10587116
v -0.01530521 -0.09317364 -0.10536617
v -0.00765228 -0.06898268 -0.10609182
v -0.00765589 -0.07661962 -0.10613435
v 0.00000864 -0.06898216 -0.10604877
v 0.00000657 -0.07662014 -0.10604851
v -0.00765125 -0.08528253 -0.10582811
v -0.00765048 -0.09317493 -0.10536617
v 0.00000812 -0.08528613 -0.10578506
v 0.00000683 -0.09317673 -0.10532313
v 0.00766569 -0.06059972 -0.10582682
v 0.01530392 -0.06060075 -0.10587013
v 0.02367089 -0.06059714 -0.10547573
v 0.03134006 -0.06095855 -0.10527905
v 0.03901335 -0.06131815 -0.10508159
v 0.04596512 -0.06131635 -0.10516743
v 0.05361676 -0.06131531 -0.10516743
v 0.00766904 -0.06897855 -0.10613487
v 0.00766904 -0.07661679 -0.10600546
v 0.01530650 -0.06897701 -0.10613513
v 0.01531114 -0.07661601 -0.10604877
v 0.00766775 -0.08528820 -0.10569897
v 0.00766517 -0.09317931 -0.10527982
v 0.01531939 -0.08528974 -0.10569871
v 0.01532222 -0.09318189 -0.10527956
v 0.02366265 -0.06897804 -0.10582708
v 0.02366574 -0.07661962 -0.10578378
v 0.03132666 -0.06897933 -0.10547625
v 0.03132537 -0.07662581 -0.10547599
v 0.02367579 -0.08478011 -0.10554404
v 0.02332702 -0.09267071 -0.10527930
v 0.03133207 -0.08427642 -0.10547573
v 0.03098665 -0.09256219 -0.10526667
v 0.03900510 -0.06897649 -0.10508159
v 0.03900098 -0.07663174 -0.10512464
v 0.04596512 -0.06897443 -0.10516743
v 0.04596358 -0.07663251 -0.10512464
v 0.03899969 -0.08428776 -0.10512464
v 0.03900304 -0.09194043 -0.10516743
v 0.04596229 -0.08429059 -0.10512464
v 0.04596100 -0.09194868 -0.10516743
v 0.05361599 -0.06897417 -0.10516743
v 0.05361753 -0.07663096 -0.10512438
v 0.05361753 -0.08429059 -0.10512438
v 0.05361599 -0.09194868 -0.10508159
v 0.00766569 -0.10084126 -0.10481788
v 0.00766234 -0.10748859 -0.10466218
v 0.01532377 -0.10084178 -0.10481788
v 0.01531965 -0.10748859 -0.10466218
v 0.02297850 -0.10084281 -0.10481762
v 0.02297695 -0.10748859 -0.10466218
v 0.03100005 -0.10021305 -0.10503570
v 0.03058322 -0.10750071 -0.10480422
v 0.03865736 -0.09970910 -0.10511226
v 0.03824002 -0.10738858 -0.10493646
v 0.04596203 -0.09960392 -0.10516743
v 0.04596950 -0.10725505 -0.10516794
v 0.05361470 -0.09960702 -0.10508159
v 0.05361470 -0.10726433 -0.10508159
v -0.04573286 -0.09974132 -0.10492769
v -0.04596022 -0.10725633 -0.10501379
v -0.03829956 -0.09970858 -0.10487201
v -0.03808251 -0.10739399 -0.10477380
v -0.03040665 -0.10035973 -0.10479571
v -0.03041773 -0.10750870 -0.10464104
v -0.02296432 -0.10084332 -0.10481814
v -0.02297644 -0.10748627 -0.10470523
v -0.01530521 -0.10083920 -0.10481814
v -0.01531655 -0.10749014 -0.10470523
v -0.00764867 -0.10083868 -0.10481814
v -0.00765795 -0.10749117 -0.10466244
v 0.00000812 -0.10083971 -0.10481814
v 0.00000477 -0.10748859 -0.10466218
f 1 12 2
f 1 8 12
f 8 13 12
f 8 9 13
f 2 14 3
f 2 12 14
f 12 15 14
f 12 13 15
f 9 16 13
f 9 10 16
f 10 17 16
f 10 11 17
f 13 18 15
f 13 16 18
f 16 19 18
f 16 17 19
f 3 20 4
f 3 14 20
f 14 21 20
f 14 15 21
f 4 22 5
f 4 20 22
f 20 23 22
f 20 21 23
f 15 24 21
f 15 18 24
f 18 25 24
f 18 19 25
f 21 26 23
f 21 24 26
f 24 27 26
f 24 25 27
f 5 28 6
f 5 22 28
f 22 29 28
f 22 23 29
f 6 30 7
f 6 28 30
f 28 31 30
f 28 29 31
f 23 32 29
f 23 26 32
f 26 33 32
f 26 27 33
f 29 34 31
f 29 32 34
f 32 35 34
f 32 33 35
f 7 43 36
f 7 30 43
f 30 44 43
f 30 31 44
f 36 45 37
f 36 43 45
f 43 46 45
f 43 44 46
f 31 47 44
f 31 34 47
f 34 48 47
f 34 35 48
f 44 49 46
f 44 47 49
f 47 50 49
f 47 48 50
f 37 51 38
f 37 45 51
f 45 52 51
f 45 46 52
f 38 53 39
f 38 51 53
f 51 54 53
f 51 52 54
f 46 55 52
f 46 49 55
f 49 56 55
f 49 50 56
f 52 57 54
f 52 55 57
f 55 58 57
f 55 56 58
f 39 59 40
f 39 53 59
f 53 60 59
f 53 54 60
f 40 61 41
f 40 59 61
f 59 62 61
f 59 60 62
f 54 63 60
f 54 57 63
f 57 64 63
f 57 58 64
f 60 65 62
f 60 63 65
f 63 66 65
f 63 64 66
f 41 67 42
f 41 61 67
f 61 68 67
f 61 62 68
f 62 69 68
f 62 65 69
f 65 70 69
f 65 66 70
f 48 73 50
f 48 71 73
f 71 74 73
f 71 72 74
f 50 75 56
f 50 73 75
f 73 76 75
f 73 74 76
f 56 77 58
f 56 75 77
f 75 78 77
f 75 76 78
f 58 79 64
f 58 77 79
f 77 80 79
f 77 78 80
f 64 81 66
f 64 79 81
f 79 82 81
f 79 80 82
f 66 83 70
f 66 81 83
f 81 84 83
f 81 82 84
f 11 87 17
f 11 85 87
f 85 88 87
f 85 86 88
f 17 89 19
f 17 87 89
f 87 90 89
f 87 88 90
f 19 91 25
f 19 89 91
f 89 92 91
f 89 90 92
f 25 93 27
f 25 91 93
f 91 94 93
f 91 92 94
f 27 95 33
f 27 93 95
f 93 96 95
f 93 94 96
f 33 97 35
f 33 95 97
f 95 98 97
f 95 96 98
f 35 71 48
f 35 97 71
f 97 72 71
f 97 98 72

