# https://github.com/mikedh/trimesh

o 2.obj
v -0.12312793 0.06211542 -0.08861584
v -0.12287190 0.05440428 -0.08804548
v -0.12312111 0.04667135 -0.08836558
v -0.12284958 0.03891899 -0.08804653
v -0.12315708 0.03094394 -0.08832147
v -0.12312426 0.02342371 -0.08831989
v -0.12284827 0.01526432 -0.08802368
v -0.12282201 0.00776983 -0.08802473
v -0.12282096 0.00005554 -0.08802605
v -0.11546223 0.06212277 -0.08823192
v -0.10775450 0.06213196 -0.08823271
v -0.10005623 0.06213196 -0.08823271
v -0.09235796 0.06213196 -0.08823271
v -0.08465969 0.06213196 -0.08823271
v -0.07696142 0.06213196 -0.08823271
v -0.06926263 0.06213354 -0.08823271
v -0.06156436 0.06213564 -0.08823271
v -0.11542835 0.05442503 -0.08798035
v -0.11511113 0.04669840 -0.08740973
v -0.10775660 0.05442897 -0.08764029
v -0.10776238 0.04669131 -0.08704630
v -0.11511560 0.03895811 -0.08736745
v -0.11540866 0.03119341 -0.08764160
v -0.10776474 0.03897150 -0.08704604
v -0.10776186 0.03127324 -0.08704604
v -0.10005361 0.05443107 -0.08764055
v -0.10005124 0.04669367 -0.08704656
v -0.09235534 0.05443107 -0.08764055
v -0.09235271 0.04669367 -0.08704656
v -0.10005124 0.03897098 -0.08704604
v -0.10005124 0.03127271 -0.08704604
v -0.09235271 0.03897098 -0.08704604
v -0.09235271 0.03127271 -0.08704604
v -0.11545120 0.02320444 -0.08764003
v -0.11544621 0.01546573 -0.08764003
v -0.10776422 0.02357260 -0.08704604
v -0.10776606 0.01587670 -0.08704604
v -0.11509643 0.00776904 -0.08734382
v -0.11478657 -0.00015349 -0.08709199
v -0.10776080 0.00818053 -0.08704604
v -0.10775949 0.00047884 -0.08708963
v -0.10005124 0.02357444 -0.08704604
v -0.10005124 0.01587617 -0.08704604
v -0.09235271 0.02357444 -0.08704604
v -0.09235271 0.01587617 -0.08704604
v -0.10005124 0.00817790 -0.08704604
v -0.10005256 0.00047884 -0.08704604
v -0.09235271 0.00817790 -0.08704604
v -0.09235271 0.00047963 -0.08708989
v -0.08465707 0.05443107 -0.08764055
v -0.08465444 0.04669367 -0.08704656
v -0.07695880 0.05443107 -0.08764055
v -0.07695617 0.04669367 -0.08704656
v -0.08465444 0.03897098 -0.08704604
v -0.08465444 0.03127271 -0.08704604
v -0.07695617 0.03897098 -0.08704604
v -0.07695617 0.03127271 -0.08704604
v -0.06926053 0.05443107 -0.08764055
v -0.06925790 0.04669367 -0.08704656
v -0.06156226 0.05443133 -0.08764055
v -0.06155963 0.04669367 -0.08704656
v -0.06925790 0.03897098 -0.08704604
v -0.06925790 0.03127271 -0.08704604
v -0.06155963 0.03897098 -0.08704604
v -0.06155963 0.03127271 -0.08704604
v -0.08465444 0.02357444 -0.08704604
v -0.08465444 0.01587617 -0.08704604
v -0.07695617 0.02357444 -0.08704604
v -0.07695617 0.01587617 -0.08704604
v -0.08465444 0.00817790 -0.08704604
v -0.08465602 0.00047884 -0.08708989
v -0.07695617 0.00817790 -0.08704604
v -0.07695775 0.00047884 -0.08704604
v -0.06925790 0.02357444 -0.08704604
v -0.06925790 0.01587617 -0.08704604
v -0.06155963 0.02357444 -0.08704604
v -0.06155963 0.01587617 -0.08704604
v -0.06925790 0.00817790 -0.08704604
v -0.06925790 0.00047963 -0.08704604
v -0.06155963 0.00817790 -0.08704604
v -0.06155963 0.00047963 -0.08704604
v -0.05386662 0.06213643 -0.08823271
v -0.04616913 0.06213485 -0.08823271
v -0.03847086 0.06213275 -0.08823271
v -0.03077181 0.06213196 -0.08823271
v -0.02307196 0.06213590 -0.08823271
v -0.01534008 0.06189405 -0.08825477
v -0.00764759 0.06189274 -0.08825477
v 0.00001654 0.06213511 -0.08827656
v -0.05386399 0.05443133 -0.08764055
v -0.05386136 0.04669367 -0.08704656
v -0.04616572 0.05443107 -0.08764055
v -0.04616309 0.04669367 -0.08704656
v -0.05386136 0.03897098 -0.08704604
v -0.05386136 0.03127271 -0.08704604
v -0.04616309 0.03897098 -0.08704604
v -0.04616309 0.03127271 -0.08704604
v -0.03846745 0.05443107 -0.08764055
v -0.03846483 0.04669367 -0.08704656
v -0.03076918 0.05443107 -0.08764055
v -0.03076656 0.04669367 -0.08704656
v -0.03846483 0.03897098 -0.08704604
v -0.03846483 0.03127271 -0.08704604
v -0.03076656 0.03897098 -0.08704604
v -0.03076656 0.03127271 -0.08704604
v -0.05386136 0.02357444 -0.08704604
v -0.05386136 0.01587617 -0.08704604
v -0.04616309 0.02357444 -0.08704604
v -0.04616309 0.01587617 -0.08704604
v -0.05386136 0.00817790 -0.08704604
v -0.05386136 0.00047963 -0.08704604
v -0.04616309 0.00817790 -0.08708989
v -0.04616257 0.00048094 -0.08713348
v -0.03846483 0.02357444 -0.08704604
v -0.03846483 0.01587617 -0.08704604
v -0.03076656 0.02357444 -0.08704604
v -0.03076656 0.01587617 -0.08704604
v -0.03846640 0.00817711 -0.08708989
v -0.03846771 0.00048042 -0.08708989
v -0.03076813 0.00817711 -0.08704604
v -0.03076892 0.00047963 -0.08708989
v -0.02307091 0.05443133 -0.08764055
v -0.02306829 0.04669367 -0.08704656
v -0.01537264 0.05443159 -0.08764055
v -0.01537002 0.04669367 -0.08709015
v -0.02306829 0.03897098 -0.08704604
v -0.02306829 0.03127271 -0.08704604
v -0.01536949 0.03897255 -0.08708989
v -0.01536949 0.03127402 -0.08704604
v -0.00767437 0.05443185 -0.08764055
v -0.00767332 0.04669315 -0.08709015
v 0.00002363 0.05443159 -0.08764055
v 0.00002495 0.04669315 -0.08704656
v -0.00767332 0.03897255 -0.08704604
v -0.00767254 0.03127350 -0.08708989
v 0.00002573 0.03897177 -0.08708989
v 0.00002573 0.03127350 -0.08708989
v -0.02306829 0.02357444 -0.08704604
v -0.02306829 0.01587617 -0.08704604
v -0.01537002 0.02357444 -0.08708989
v -0.01536949 0.01587748 -0.08708989
v -0.02306829 0.00817790 -0.08704604
v -0.02306986 0.00047884 -0.08704604
v -0.01536949 0.00817921 -0.08704604
v -0.01537002 0.00047963 -0.08704604
v -0.00767254 0.02357523 -0.08708989
v -0.00767332 0.01587748 -0.08704604
v 0.00002495 0.02357602 -0.08704604
v 0.00002573 0.01587696 -0.08708989
v -0.00767254 0.00817869 -0.08708989
v -0.00767122 0.00048094 -0.08704604
v 0.00002573 0.00817869 -0.08708989
v 0.00002652 0.00048173 -0.08704604
v -0.12285877 -0.00784808 -0.08802473
v -0.12310404 -0.01510729 -0.08832094
v -0.12284696 -0.02315849 -0.08802368
v -0.12279050 -0.03038015 -0.08797983
v -0.12249508 -0.03825199 -0.08764055
v -0.12249271 -0.04574281 -0.08764029
v -0.12250059 -0.05365378 -0.08764003
v -0.12249455 -0.06113068 -0.08763977
v -0.12249061 -0.06904349 -0.08764003
v -0.12247486 -0.07648337 -0.08763924
v -0.12251661 -0.08358476 -0.08768415
v -0.11509538 -0.00765297 -0.08738925
v -0.11543518 -0.01533470 -0.08764108
v -0.10776080 -0.00721759 -0.08704604
v -0.10776448 -0.01491796 -0.08708989
v -0.11542861 -0.02301012 -0.08764003
v -0.11507778 -0.03064117 -0.08734382
v -0.10776527 -0.02261334 -0.08704604
v -0.10776186 -0.03031135 -0.08704604
v -0.10005177 -0.00721785 -0.08708989
v -0.10005177 -0.01491612 -0.08708989
v -0.09235350 -0.00721785 -0.08708989
v -0.09235429 -0.01491559 -0.08704604
v -0.10005124 -0.02261308 -0.08704604
v -0.10005124 -0.03031345 -0.08704604
v -0.09235350 -0.02261439 -0.08704604
v -0.09235271 -0.03031345 -0.08704604
v -0.11476293 -0.03825278 -0.08704682
v -0.11475269 -0.04570027 -0.08704604
v -0.10775503 -0.03800961 -0.08704604
v -0.10774873 -0.04570762 -0.08704604
v -0.11476582 -0.05344607 -0.08704682
v -0.11477580 -0.06139275 -0.08704761
v -0.10775135 -0.05341009 -0.08704604
v -0.10775870 -0.06110836 -0.08704604
v -0.10005098 -0.03801172 -0.08708989
v -0.10005046 -0.04570841 -0.08708989
v -0.09235429 -0.03801250 -0.08708989
v -0.09235429 -0.04570867 -0.08704604
v -0.10005046 -0.05340694 -0.08704604
v -0.10005098 -0.06110652 -0.08704604
v -0.09235350 -0.05340747 -0.08708989
v -0.09235219 -0.06110521 -0.08704604
v -0.08465602 -0.00721732 -0.08704604
v -0.08465523 -0.01491612 -0.08708989
v -0.07695696 -0.00721785 -0.08713348
v -0.07695617 -0.01491481 -0.08713348
v -0.08465392 -0.02261386 -0.08704604
v -0.08465444 -0.03031345 -0.08704604
v -0.07695565 -0.02261150 -0.08704604
v -0.07695617 -0.03031345 -0.08704604
v -0.06926079 -0.00722021 -0.08708989
v -0.06926158 -0.01491559 -0.08704604
v -0.06156121 -0.00721943 -0.08704604
v -0.06156042 -0.01491612 -0.08708989
v -0.06925948 -0.02261386 -0.08708963
v -0.06925738 -0.03031213 -0.08708989
v -0.06156042 -0.02261439 -0.08708989
v -0.06156121 -0.03031187 -0.08708989
v -0.08465602 -0.03801250 -0.08704604
v -0.08465523 -0.04570920 -0.08708989
v -0.07695617 -0.03801172 -0.08704604
v -0.07695775 -0.04571077 -0.08704604
v -0.08465523 -0.05340747 -0.08708989
v -0.08465444 -0.06110442 -0.08704604
v -0.07695854 -0.05340825 -0.08704604
v -0.07695696 -0.06110574 -0.08704604
v -0.06925738 -0.03801040 -0.08708989
v -0.06925738 -0.04570867 -0.08704604
v -0.06156121 -0.03801040 -0.08704604
v -0.06156042 -0.04570920 -0.08708989
v -0.06925790 -0.05340825 -0.08704604
v -0.06925790 -0.06110652 -0.08704604
v -0.06155911 -0.05340694 -0.08704604
v -0.06155963 -0.06110652 -0.08704604
v -0.11476346 -0.06904481 -0.08704682
v -0.11474639 -0.07648232 -0.08704577
v -0.10775608 -0.06880243 -0.08704604
v -0.10774846 -0.07649282 -0.08704604
v -0.11475689 -0.08359841 -0.08708989
v -0.10775214 -0.08360183 -0.08708989
v -0.10005098 -0.06880479 -0.08704604
v -0.10005098 -0.07649545 -0.08704604
v -0.09235271 -0.06880479 -0.08704604
v -0.09235271 -0.07649545 -0.08704604
v -0.10005676 -0.08360183 -0.08708963
v -0.09235849 -0.08360183 -0.08708963
v -0.08465444 -0.06880479 -0.08704604
v -0.08465444 -0.07649545 -0.08704604
v -0.07695617 -0.06880479 -0.08704604
v -0.07695617 -0.07649545 -0.08704604
v -0.08466022 -0.08360183 -0.08708963
v -0.07696195 -0.08360183 -0.08708963
v -0.06925790 -0.06880479 -0.08708989
v -0.06925738 -0.07649387 -0.08708963
v -0.06156121 -0.06880558 -0.08708989
v -0.06156121 -0.07649387 -0.08704604
v -0.06926289 -0.08360051 -0.08708963
v -0.06156620 -0.08360104 -0.08713348
v -0.05386136 -0.00721864 -0.08704604
v -0.05386294 -0.01491769 -0.08704604
v -0.04616178 -0.00721575 -0.08708989
v -0.04616257 -0.01491559 -0.08704604
v -0.05386373 -0.02261518 -0.08704604
v -0.05386373 -0.03031345 -0.08704604
v -0.04616309 -0.02261518 -0.08704604
v -0.04616309 -0.03031345 -0.08704604
v -0.03846719 -0.00721654 -0.08708963
v -0.03846483 -0.01491481 -0.08708989
v -0.03076813 -0.00721732 -0.08713348
v -0.03076734 -0.01491402 -0.08708989
v -0.03846430 -0.02261386 -0.08704604
v -0.03846483 -0.03031345 -0.08704604
v -0.03076656 -0.02261308 -0.08704604
v -0.03076656 -0.03031345 -0.08704604
v -0.05386215 -0.03801093 -0.08708989
v -0.05386215 -0.04570920 -0.08708989
v -0.04616467 -0.03801250 -0.08704604
v -0.04616546 -0.04570999 -0.08704604
v -0.05386136 -0.05340615 -0.08704604
v -0.05386136 -0.06110652 -0.08704604
v -0.04616388 -0.05340747 -0.08704604
v -0.04616309 -0.06110652 -0.08704604
v -0.03846483 -0.03801172 -0.08704604
v -0.03846483 -0.04570999 -0.08704604
v -0.03076656 -0.03801172 -0.08704604
v -0.03076656 -0.04570999 -0.08704604
v -0.03846483 -0.05340825 -0.08704604
v -0.03846483 -0.06110652 -0.08704604
v -0.03076656 -0.05340825 -0.08704604
v -0.03076656 -0.06110652 -0.08704604
v -0.02307196 -0.00721943 -0.08704604
v -0.02307144 -0.01491612 -0.08704604
v -0.01537002 -0.00721864 -0.08708989
v -0.01536949 -0.01491559 -0.08713348
v -0.02306907 -0.02261439 -0.08704604
v -0.02306829 -0.03031345 -0.08704604
v -0.01536870 -0.02261229 -0.08708989
v -0.01536949 -0.03031213 -0.08704604
v -0.00767332 -0.00721943 -0.08708989
v -0.00767490 -0.01491612 -0.08708989
v 0.00002495 -0.00721943 -0.08704604
v 0.00002416 -0.01491691 -0.08708989
v -0.00767411 -0.02261308 -0.08708963
v -0.00767175 -0.03031135 -0.08708989
v 0.00002495 -0.02261386 -0.08713348
v 0.00002573 -0.03031056 -0.08708989
v -0.02306829 -0.03801172 -0.08704604
v -0.02306829 -0.04570999 -0.08704604
v -0.01537002 -0.03801172 -0.08704604
v -0.01537002 -0.04570999 -0.08704604
v -0.02306829 -0.05340825 -0.08704604
v -0.02306829 -0.06110652 -0.08704604
v -0.01537002 -0.05340825 -0.08704604
v -0.01537002 -0.06110652 -0.08704604
v -0.00767122 -0.03801040 -0.08704604
v -0.00767175 -0.04570999 -0.08704604
v 0.00002652 -0.03800961 -0.08704604
v 0.00002652 -0.04570999 -0.08704604
v -0.00767175 -0.05340825 -0.08704604
v -0.00767175 -0.06110652 -0.08704604
v 0.00002652 -0.05340825 -0.08704604
v 0.00002652 -0.06110652 -0.08704604
v -0.05386294 -0.06880558 -0.08704604
v -0.05386215 -0.07649466 -0.08708963
v -0.04616309 -0.06880479 -0.08704604
v -0.04616467 -0.07649597 -0.08704604
v -0.05386793 -0.08360104 -0.08713348
v -0.04617124 -0.08360183 -0.08708963
v -0.03846483 -0.06880479 -0.08704604
v -0.03846483 -0.07649545 -0.08704604
v -0.03076656 -0.06880479 -0.08704604
v -0.03076656 -0.07649545 -0.08704604
v -0.03847060 -0.08360183 -0.08708963
v -0.03077233 -0.08360183 -0.08708963
v -0.02306829 -0.06880479 -0.08704604
v -0.02306829 -0.07649545 -0.08704604
v -0.01537002 -0.06880479 -0.08708989
v -0.01536949 -0.07649387 -0.08708963
v -0.02307406 -0.08360183 -0.08708963
v -0.01537501 -0.08360051 -0.08708963
v -0.00767332 -0.06880558 -0.08713348
v -0.00767254 -0.07649256 -0.08708963
v 0.00002337 -0.06880637 -0.08713348
v 0.00002495 -0.07649177 -0.08713348
v -0.00767752 -0.08359972 -0.08713348
v 0.00001996 -0.08359894 -0.08717733
v 0.00771796 0.06213117 -0.08827630
v 0.01541623 0.06213117 -0.08832015
v 0.02311319 0.06213065 -0.08832015
v 0.03081146 0.06213065 -0.08832015
v 0.03850973 0.06213065 -0.08832015
v 0.04620800 0.06213065 -0.08827630
v 0.05390758 0.06213117 -0.08827630
v 0.06160743 0.06213406 -0.08823271
v 0.00772217 0.05443107 -0.08768441
v 0.00772479 0.04669367 -0.08709015
v 0.01541886 0.05443054 -0.08772800
v 0.01542149 0.04669315 -0.08709015
v 0.00772400 0.03897177 -0.08713348
v 0.00772400 0.03127560 -0.08708989
v 0.01542017 0.03897177 -0.08708989
v 0.01542070 0.03127481 -0.08708963
v 0.02311582 0.05442975 -0.08772774
v 0.02311976 0.04669315 -0.08704656
v 0.03081409 0.05442975 -0.08772774
v 0.03081934 0.04669367 -0.08709015
v 0.02311897 0.03897098 -0.08708989
v 0.02311976 0.03127402 -0.08713348
v 0.03081881 0.03897177 -0.08708989
v 0.03081645 0.03127350 -0.08704604
v 0.00772479 0.02357654 -0.08708989
v 0.00772400 0.01587696 -0.08713348
v 0.01542149 0.02357602 -0.08717733
v 0.01542149 0.01587985 -0.08713348
v 0.00772400 0.00818079 -0.08708989
v 0.00772479 0.00048173 -0.08704604
v 0.01542149 0.00818158 -0.08708963
v 0.01542306 0.00048173 -0.08708989
v 0.02311765 0.02357602 -0.08713348
v 0.02311765 0.01587985 -0.08708963
v 0.03081514 0.02357444 -0.08708963
v 0.03081724 0.01587827 -0.08713348
v 0.02311897 0.00818000 -0.08717733
v 0.02312107 0.00048410 -0.08708963
v 0.03081592 0.00817948 -0.08708963
v 0.03081645 0.00048252 -0.08704604
v 0.03851236 0.05442975 -0.08772774
v 0.03851629 0.04669315 -0.08709015
v 0.04621062 0.05442975 -0.08772774
v 0.04621456 0.04669315 -0.08704656
v 0.03851629 0.03897255 -0.08704604
v 0.03851708 0.03127350 -0.08708989
v 0.04621535 0.03897177 -0.08708989
v 0.04621535 0.03127350 -0.08708989
v 0.05390889 0.05442975 -0.08768415
v 0.05391415 0.04669367 -0.08709015
v 0.06160848 0.05443054 -0.08764055
v 0.06161110 0.04669315 -0.08709015
v 0.05391362 0.03897177 -0.08708989
v 0.05391283 0.03127402 -0.08704604
v 0.06161110 0.03897255 -0.08704604
v 0.06161189 0.03127350 -0.08708989
v 0.03851708 0.02357523 -0.08708989
v 0.03851472 0.01587696 -0.08704604
v 0.04621456 0.02357602 -0.08704604
v 0.04621535 0.01587696 -0.08708989
v 0.03851472 0.00817869 -0.08708963
v 0.03851787 0.00048173 -0.08704604
v 0.04621535 0.00817869 -0.08708989
v 0.04621614 0.00048173 -0.08704604
v 0.05391362 0.02357523 -0.08708989
v 0.05391362 0.01587696 -0.08708989
v 0.06161189 0.02357523 -0.08708989
v 0.06161110 0.01587748 -0.08704604
v 0.05391283 0.00817921 -0.08704604
v 0.05391362 0.00048042 -0.08704604
v 0.06161189 0.00817869 -0.08708989
v 0.06161320 0.00048094 -0.08704604
v 0.06930622 0.06213774 -0.08827683
v 0.07700318 0.06213931 -0.08832068
v 0.08469935 0.06213931 -0.08832068
v 0.09239762 0.06213931 -0.08832068
v 0.10009589 0.06213931 -0.08836453
v 0.10779258 0.06213853 -0.08836453
v 0.11549085 0.06213853 -0.08840812
v 0.12319279 0.06213012 -0.08836374
v 0.06930885 0.05443264 -0.08764082
v 0.06930937 0.04669315 -0.08709015
v 0.07700712 0.05443474 -0.08764108
v 0.07700764 0.04669315 -0.08709015
v 0.06931095 0.03897334 -0.08713348
v 0.06931095 0.03127481 -0.08708989
v 0.07700607 0.03897177 -0.08704604
v 0.07700607 0.03127350 -0.08708963
v 0.08470486 0.05443553 -0.08764108
v 0.08470591 0.04669315 -0.08704656
v 0.09240313 0.05443553 -0.08764108
v 0.09240549 0.04669367 -0.08709015
v 0.08470670 0.03897177 -0.08708989
v 0.08470670 0.03127350 -0.08708989
v 0.09240497 0.03897177 -0.08708989
v 0.09240418 0.03127402 -0.08704604
v 0.06930937 0.02357602 -0.08708989
v 0.06931095 0.01587827 -0.08713348
v 0.07700764 0.02357602 -0.08708989
v 0.07700607 0.01587696 -0.08704604
v 0.06931095 0.00818000 -0.08708989
v 0.06931095 0.00048173 -0.08704604
v 0.07700607 0.00817869 -0.08708963
v 0.07700922 0.00048173 -0.08704604
v 0.08470591 0.02357602 -0.08704604
v 0.08470670 0.01587696 -0.08708989
v 0.09240497 0.02357523 -0.08708989
v 0.09240497 0.01587696 -0.08708989
v 0.08470670 0.00817869 -0.08708989
v 0.08470749 0.00048173 -0.08704604
v 0.09240418 0.00817921 -0.08704604
v 0.09240497 0.00048042 -0.08704604
v 0.10010140 0.05443553 -0.08764108
v 0.10010245 0.04669315 -0.08709015
v 0.10779967 0.05443553 -0.08768493
v 0.10780072 0.04669315 -0.08709015
v 0.10010245 0.03897255 -0.08704604
v 0.10010324 0.03127350 -0.08708989
v 0.10780230 0.03897334 -0.08717733
v 0.10780282 0.03127639 -0.08713348
v 0.11549636 0.05443474 -0.08772852
v 0.11549899 0.04669315 -0.08709015
v 0.12319332 0.05443422 -0.08772852
v 0.12319726 0.04669315 -0.08704656
v 0.11549610 0.03897098 -0.08708963
v 0.11549610 0.03127481 -0.08708963
v 0.12319647 0.03897098 -0.08708989
v 0.12319726 0.03127402 -0.08713348
v 0.10010324 0.02357523 -0.08708989
v 0.10010245 0.01587748 -0.08704604
v 0.10780151 0.02357733 -0.08708989
v 0.10780230 0.01587827 -0.08717733
v 0.10010324 0.00817869 -0.08708989
v 0.10010455 0.00048094 -0.08704604
v 0.10780282 0.00818158 -0.08713348
v 0.10780282 0.00048331 -0.08704604
v 0.11549820 0.02357654 -0.08713348
v 0.11549689 0.01587748 -0.08708963
v 0.12319647 0.02357654 -0.08708963
v 0.12319647 0.01587827 -0.08708963
v 0.11549610 0.00818000 -0.08708963
v 0.11549978 0.00048252 -0.08708963
v 0.12319726 0.00817921 -0.08713348
v 0.12319805 0.00048252 -0.08708989
v 0.13089632 0.06211332 -0.08870354
v 0.13091916 0.05442424 -0.08836532
v 0.13092441 0.04669918 -0.08772852
v 0.13092284 0.03897571 -0.08772800
v 0.13092074 0.03127744 -0.08772800
v 0.13092153 0.02358074 -0.08772800
v 0.13092205 0.01588169 -0.08772800
v 0.13092074 0.00818263 -0.08772800
v 0.13092153 0.00048593 -0.08772800
v 0.00772479 -0.00721864 -0.08708989
v 0.00772400 -0.01491612 -0.08713348
v 0.01542227 -0.00721785 -0.08713348
v 0.01542070 -0.01491481 -0.08713348
v 0.00772243 -0.02261308 -0.08708963
v 0.00772243 -0.03031135 -0.08704604
v 0.01542149 -0.02261150 -0.08708963
v 0.01542306 -0.03031135 -0.08708989
v 0.02311844 -0.00721785 -0.08708989
v 0.02311765 -0.01491559 -0.08708963
v 0.03081724 -0.00721864 -0.08708989
v 0.03081802 -0.01491559 -0.08717733
v 0.02311897 -0.02261308 -0.08717733
v 0.02312107 -0.03030898 -0.08708963
v 0.03081645 -0.02261229 -0.08713348
v 0.03081724 -0.03030898 -0.08704604
v 0.00772400 -0.03801093 -0.08708989
v 0.00772532 -0.04570867 -0.08708989
v 0.01542227 -0.03801093 -0.08713348
v 0.01542227 -0.04570710 -0.08708989
v 0.00772532 -0.05340694 -0.08704604
v 0.00772479 -0.06110652 -0.08704604
v 0.01542306 -0.05340615 -0.08708989
v 0.01542359 -0.06110495 -0.08704604
v 0.02311844 -0.03801093 -0.08708989
v 0.02311897 -0.04570788 -0.08708963
v 0.03081724 -0.03801172 -0.08708989
v 0.03081802 -0.04570867 -0.08713348
v 0.02311976 -0.05340668 -0.08713348
v 0.02312186 -0.06110285 -0.08704604
v 0.03081724 -0.05340615 -0.08708963
v 0.03081881 -0.06110364 -0.08704604
v 0.03851629 -0.00721943 -0.08708989
v 0.03851341 -0.01491691 -0.08708963
v 0.04621456 -0.00721943 -0.08704604
v 0.04621378 -0.01491691 -0.08708989
v 0.03851341 -0.02261308 -0.08708963
v 0.03851708 -0.03031056 -0.08708963
v 0.04621456 -0.02261386 -0.08713348
v 0.04621535 -0.03031056 -0.08708989
v 0.05391441 -0.00721864 -0.08708989
v 0.05391362 -0.01491612 -0.08708989
v 0.06161110 -0.00721943 -0.08708989
v 0.06161110 -0.01491559 -0.08704604
v 0.05391126 -0.02261439 -0.08704604
v 0.05391126 -0.03031266 -0.08704604
v 0.06161189 -0.02261439 -0.08708989
v 0.06161320 -0.03031213 -0.08704604
v 0.03851708 -0.03801093 -0.08708989
v 0.03851472 -0.04570920 -0.08704604
v 0.04621456 -0.03801040 -0.08704604
v 0.04621535 -0.04570920 -0.08708989
v 0.03851472 -0.05340747 -0.08708963
v 0.03851787 -0.06110442 -0.08704604
v 0.04621535 -0.05340747 -0.08708989
v 0.04621614 -0.06110442 -0.08708989
v 0.05391362 -0.03801093 -0.08708989
v 0.05391362 -0.04570920 -0.08708989
v 0.06161110 -0.03801250 -0.08708989
v 0.06161110 -0.04570867 -0.08704604
v 0.05391283 -0.05340668 -0.08704604
v 0.05391205 -0.06110652 -0.08708989
v 0.06161189 -0.05340747 -0.08708989
v 0.06161189 -0.06110574 -0.08708989
v 0.00772164 -0.06880637 -0.08708989
v 0.00772112 -0.07649387 -0.08708963
v 0.01542149 -0.06880558 -0.08704604
v 0.01542070 -0.07649545 -0.08708963
v 0.00771534 -0.08360051 -0.08717733
v 0.01541440 -0.08360104 -0.08713348
v 0.02312133 -0.06880479 -0.08704604
v 0.02311976 -0.07649597 -0.08704604
v 0.03081960 -0.06880479 -0.08704604
v 0.03081960 -0.07649545 -0.08704604
v 0.02311319 -0.08360183 -0.08708963
v 0.03081382 -0.08360183 -0.08708963
v 0.03851787 -0.06880479 -0.08704604
v 0.03851787 -0.07649545 -0.08704604
v 0.04621666 -0.06880322 -0.08708989
v 0.04621666 -0.07649387 -0.08704604
v 0.03851209 -0.08360183 -0.08708963
v 0.04621036 -0.08360183 -0.08708963
v 0.05391283 -0.06880348 -0.08704604
v 0.05391362 -0.07649466 -0.08708963
v 0.06161268 -0.06880269 -0.08713348
v 0.06161268 -0.07649308 -0.08708963
v 0.05390942 -0.08360051 -0.08708963
v 0.06160690 -0.08359972 -0.08708963
v 0.06930937 -0.00721943 -0.08708989
v 0.06931095 -0.01491481 -0.08717733
v 0.07700764 -0.00721943 -0.08708989
v 0.07700475 -0.01491691 -0.08708963
v 0.06931147 -0.02261150 -0.08713348
v 0.06931147 -0.03030977 -0.08704604
v 0.07700475 -0.02261308 -0.08708963
v 0.07700843 -0.03031056 -0.08708963
v 0.08470591 -0.00721943 -0.08704604
v 0.08470512 -0.01491691 -0.08708989
v 0.09240576 -0.00721864 -0.08708989
v 0.09240497 -0.01491612 -0.08713348
v 0.08470591 -0.02261386 -0.08713348
v 0.08470670 -0.03031056 -0.08708989
v 0.09240339 -0.02261308 -0.08708963
v 0.09240339 -0.03031135 -0.08704604
v 0.06930937 -0.03801250 -0.08704604
v 0.06931016 -0.04570920 -0.08708989
v 0.07700974 -0.03801040 -0.08704604
v 0.07700764 -0.04571077 -0.08704604
v 0.06931016 -0.05340747 -0.08708989
v 0.06930937 -0.06110495 -0.08708989
v 0.07700685 -0.05340825 -0.08704604
v 0.07700685 -0.06110652 -0.08704604
v 0.08470749 -0.03800961 -0.08704604
v 0.08470749 -0.04570999 -0.08704604
v 0.09240497 -0.03801093 -0.08704604
v 0.09240576 -0.04570999 -0.08704604
v 0.08470749 -0.05340825 -0.08704604
v 0.08470749 -0.06110652 -0.08708989
v 0.09240576 -0.05340825 -0.08704604
v 0.09240418 -0.06110731 -0.08708989
v 0.10010245 -0.00721943 -0.08708989
v 0.10010087 -0.01491612 -0.08708989
v 0.10780072 -0.00721943 -0.08708989
v 0.10780072 -0.01491559 -0.08717733
v 0.10010166 -0.02261308 -0.08708963
v 0.10010403 -0.03031135 -0.08708989
v 0.10780203 -0.02261071 -0.08717733
v 0.10780230 -0.03030898 -0.08708963
v 0.11549978 -0.00721785 -0.08708989
v 0.11549610 -0.01491691 -0.08708963
v 0.12319726 -0.00721732 -0.08704604
v 0.12319647 -0.01491691 -0.08708989
v 0.11549452 -0.02261360 -0.08708963
v 0.11549741 -0.03031056 -0.08708963
v 0.12319726 -0.02261386 -0.08713348
v 0.12319805 -0.03031056 -0.08708989
v 0.10010455 -0.03801040 -0.08704604
v 0.10010403 -0.04570999 -0.08704604
v 0.10780230 -0.03800961 -0.08704604
v 0.10780230 -0.04570999 -0.08704604
v 0.10010403 -0.05340825 -0.08704604
v 0.10010245 -0.06110731 -0.08704604
v 0.10780230 -0.05340825 -0.08704604
v 0.10780230 -0.06110652 -0.08704604
v 0.11550030 -0.03800961 -0.08704604
v 0.11550056 -0.04570999 -0.08704604
v 0.12319883 -0.03800961 -0.08704604
v 0.12319883 -0.04570999 -0.08704604
v 0.11550056 -0.05340825 -0.08704604
v 0.11550056 -0.06110652 -0.08704604
v 0.12319883 -0.05340825 -0.08704604
v 0.12319883 -0.06110652 -0.08704604
v 0.06930780 -0.06880401 -0.08704604
v 0.06930780 -0.07649466 -0.08708963
v 0.07700843 -0.06880401 -0.08708989
v 0.07700843 -0.07649466 -0.08708963
v 0.06930517 -0.08359972 -0.08708963
v 0.07700344 -0.08359972 -0.08708963
v 0.08470670 -0.06880401 -0.08708989
v 0.08470591 -0.07649387 -0.08704577
v 0.09240418 -0.06880348 -0.08704604
v 0.09240497 -0.07649440 -0.08708963
v 0.08470092 -0.08360104 -0.08708963
v 0.09240050 -0.08360025 -0.08708963
v 0.10010324 -0.06880401 -0.08708989
v 0.10010298 -0.07649413 -0.08708963
v 0.10780072 -0.06880558 -0.08704604
v 0.10779993 -0.07649466 -0.08704577
v 0.10009772 -0.08359946 -0.08708963
v 0.10779520 -0.08360051 -0.08708963
v 0.11550056 -0.06880479 -0.08704604
v 0.11550056 -0.07649440 -0.08704604
v 0.12319883 -0.06880479 -0.08704604
v 0.12320015 -0.07649624 -0.08704604
v 0.11549452 -0.08360104 -0.08708963
v 0.12319595 -0.08360156 -0.08708963
v 0.13092363 -0.00721234 -0.08772800
v 0.13092284 -0.01491218 -0.08772800
v 0.13092074 -0.02261045 -0.08768441
v 0.13092074 -0.03030872 -0.08764055
v 0.13092231 -0.03800830 -0.08764029
v 0.13092310 -0.04570736 -0.08764055
v 0.13092310 -0.05340563 -0.08764055
v 0.13092310 -0.06110390 -0.08764055
v 0.13092310 -0.06880217 -0.08764055
v 0.13092441 -0.07649781 -0.08764055
v 0.13092153 -0.08389803 -0.08766209
f 1 18 10
f 1 2 18
f 2 19 18
f 2 3 19
f 10 20 11
f 10 18 20
f 18 21 20
f 18 19 21
f 3 22 19
f 3 4 22
f 4 23 22
f 4 5 23
f 19 24 21
f 19 22 24
f 22 25 24
f 22 23 25
f 11 26 12
f 11 20 26
f 20 27 26
f 20 21 27
f 12 28 13
f 12 26 28
f 26 29 28
f 26 27 29
f 21 30 27
f 21 24 30
f 24 31 30
f 24 25 31
f 27 32 29
f 27 30 32
f 30 33 32
f 30 31 33
f 5 34 23
f 5 6 34
f 6 35 34
f 6 7 35
f 23 36 25
f 23 34 36
f 34 37 36
f 34 35 37
f 7 38 35
f 7 8 38
f 8 39 38
f 8 9 39
f 35 40 37
f 35 38 40
f 38 41 40
f 38 39 41
f 25 42 31
f 25 36 42
f 36 43 42
f 36 37 43
f 31 44 33
f 31 42 44
f 42 45 44
f 42 43 45
f 37 46 43
f 37 40 46
f 40 47 46
f 40 41 47
f 43 48 45
f 43 46 48
f 46 49 48
f 46 47 49
f 13 50 14
f 13 28 50
f 28 51 50
f 28 29 51
f 14 52 15
f 14 50 52
f 50 53 52
f 50 51 53
f 29 54 51
f 29 32 54
f 32 55 54
f 32 33 55
f 51 56 53
f 51 54 56
f 54 57 56
f 54 55 57
f 15 58 16
f 15 52 58
f 52 59 58
f 52 53 59
f 16 60 17
f 16 58 60
f 58 61 60
f 58 59 61
f 53 62 59
f 53 56 62
f 56 63 62
f 56 57 63
f 59 64 61
f 59 62 64
f 62 65 64
f 62 63 65
f 33 66 55
f 33 44 66
f 44 67 66
f 44 45 67
f 55 68 57
f 55 66 68
f 66 69 68
f 66 67 69
f 45 70 67
f 45 48 70
f 48 71 70
f 48 49 71
f 67 72 69
f 67 70 72
f 70 73 72
f 70 71 73
f 57 74 63
f 57 68 74
f 68 75 74
f 68 69 75
f 63 76 65
f 63 74 76
f 74 77 76
f 74 75 77
f 69 78 75
f 69 72 78
f 72 79 78
f 72 73 79
f 75 80 77
f 75 78 80
f 78 81 80
f 78 79 81
f 17 90 82
f 17 60 90
f 60 91 90
f 60 61 91
f 82 92 83
f 82 90 92
f 90 93 92
f 90 91 93
f 61 94 91
f 61 64 94
f 64 95 94
f 64 65 95
f 91 96 93
f 91 94 96
f 94 97 96
f 94 95 97
f 83 98 84
f 83 92 98
f 92 99 98
f 92 93 99
f 84 100 85
f 84 98 100
f 98 101 100
f 98 99 101
f 93 102 99
f 93 96 102
f 96 103 102
f 96 97 103
f 99 104 101
f 99 102 104
f 102 105 104
f 102 103 105
f 65 106 95
f 65 76 106
f 76 107 106
f 76 77 107
f 95 108 97
f 95 106 108
f 106 109 108
f 106 107 109
f 77 110 107
f 77 80 110
f 80 111 110
f 80 81 111
f 107 112 109
f 107 110 112
f 110 113 112
f 110 111 113
f 97 114 103
f 97 108 114
f 108 115 114
f 108 109 115
f 103 116 105
f 103 114 116
f 114 117 116
f 114 115 117
f 109 118 115
f 109 112 118
f 112 119 118
f 112 113 119
f 115 120 117
f 115 118 120
f 118 121 120
f 118 119 121
f 85 122 86
f 85 100 122
f 100 123 122
f 100 101 123
f 86 124 87
f 86 122 124
f 122 125 124
f 122 123 125
f 101 126 123
f 101 104 126
f 104 127 126
f 104 105 127
f 123 128 125
f 123 126 128
f 126 129 128
f 126 127 129
f 87 130 88
f 87 124 130
f 124 131 130
f 124 125 131
f 88 132 89
f 88 130 132
f 130 133 132
f 130 131 133
f 125 134 131
f 125 128 134
f 128 135 134
f 128 129 135
f 131 136 133
f 131 134 136
f 134 137 136
f 134 135 137
f 105 138 127
f 105 116 138
f 116 139 138
f 116 117 139
f 127 140 129
f 127 138 140
f 138 141 140
f 138 139 141
f 117 142 139
f 117 120 142
f 120 143 142
f 120 121 143
f 139 144 141
f 139 142 144
f 142 145 144
f 142 143 145
f 129 146 135
f 129 140 146
f 140 147 146
f 140 141 147
f 135 148 137
f 135 146 148
f 146 149 148
f 146 147 149
f 141 150 147
f 141 144 150
f 144 151 150
f 144 145 151
f 147 152 149
f 147 150 152
f 150 153 152
f 150 151 153
f 9 165 39
f 9 154 165
f 154 166 165
f 154 155 166
f 39 167 41
f 39 165 167
f 165 168 167
f 165 166 168
f 155 169 166
f 155 156 169
f 156 170 169
f 156 157 170
f 166 171 168
f 166 169 171
f 169 172 171
f 169 170 172
f 41 173 47
f 41 167 173
f 167 174 173
f 167 168 174
f 47 175 49
f 47 173 175
f 173 176 175
f 173 174 176
f 168 177 174
f 168 171 177
f 171 178 177
f 171 172 178
f 174 179 176
f 174 177 179
f 177 180 179
f 177 178 180
f 157 181 170
f 157 158 181
f 158 182 181
f 158 159 182
f 170 183 172
f 170 181 183
f 181 184 183
f 181 182 184
f 159 185 182
f 159 160 185
f 160 186 185
f 160 161 186
f 182 187 184
f 182 185 187
f 185 188 187
f 185 186 188
f 172 189 178
f 172 183 189
f 183 190 189
f 183 184 190
f 178 191 180
f 178 189 191
f 189 192 191
f 189 190 192
f 184 193 190
f 184 187 193
f 187 194 193
f 187 188 194
f 190 195 192
f 190 193 195
f 193 196 195
f 193 194 196
f 49 197 71
f 49 175 197
f 175 198 197
f 175 176 198
f 71 199 73
f 71 197 199
f 197 200 199
f 197 198 200
f 176 201 198
f 176 179 201
f 179 202 201
f 179 180 202
f 198 203 200
f 198 201 203
f 201 204 203
f 201 202 204
f 73 205 79
f 73 199 205
f 199 206 205
f 199 200 206
f 79 207 81
f 79 205 207
f 205 208 207
f 205 206 208
f 200 209 206
f 200 203 209
f 203 210 209
f 203 204 210
f 206 211 208
f 206 209 211
f 209 212 211
f 209 210 212
f 180 213 202
f 180 191 213
f 191 214 213
f 191 192 214
f 202 215 204
f 202 213 215
f 213 216 215
f 213 214 216
f 192 217 214
f 192 195 217
f 195 218 217
f 195 196 218
f 214 219 216
f 214 217 219
f 217 220 219
f 217 218 220
f 204 221 210
f 204 215 221
f 215 222 221
f 215 216 222
f 210 223 212
f 210 221 223
f 221 224 223
f 221 222 224
f 216 225 222
f 216 219 225
f 219 226 225
f 219 220 226
f 222 227 224
f 222 225 227
f 225 228 227
f 225 226 228
f 161 229 186
f 161 162 229
f 162 230 229
f 162 163 230
f 186 231 188
f 186 229 231
f 229 232 231
f 229 230 232
f 163 233 230
f 163 164 233
f 230 234 232
f 230 233 234
f 188 235 194
f 188 231 235
f 231 236 235
f 231 232 236
f 194 237 196
f 194 235 237
f 235 238 237
f 235 236 238
f 232 239 236
f 232 234 239
f 236 240 238
f 236 239 240
f 196 241 218
f 196 237 241
f 237 242 241
f 237 238 242
f 218 243 220
f 218 241 243
f 241 244 243
f 241 242 244
f 238 245 242
f 238 240 245
f 242 246 244
f 242 245 246
f 220 247 226
f 220 243 247
f 243 248 247
f 243 244 248
f 226 249 228
f 226 247 249
f 247 250 249
f 247 248 250
f 244 251 248
f 244 246 251
f 248 252 250
f 248 251 252
f 81 253 111
f 81 207 253
f 207 254 253
f 207 208 254
f 111 255 113
f 111 253 255
f 253 256 255
f 253 254 256
f 208 257 254
f 208 211 257
f 211 258 257
f 211 212 258
f 254 259 256
f 254 257 259
f 257 260 259
f 257 258 260
f 113 261 119
f 113 255 261
f 255 262 261
f 255 256 262
f 119 263 121
f 119 261 263
f 261 264 263
f 261 262 264
f 256 265 262
f 256 259 265
f 259 266 265
f 259 260 266
f 262 267 264
f 262 265 267
f 265 268 267
f 265 266 268
f 212 269 258
f 212 223 269
f 223 270 269
f 223 224 270
f 258 271 260
f 258 269 271
f 269 272 271
f 269 270 272
f 224 273 270
f 224 227 273
f 227 274 273
f 227 228 274
f 270 275 272
f 270 273 275
f 273 276 275
f 273 274 276
f 260 277 266
f 260 271 277
f 271 278 277
f 271 272 278
f 266 279 268
f 266 277 279
f 277 280 279
f 277 278 280
f 272 281 278
f 272 275 281
f 275 282 281
f 275 276 282
f 278 283 280
f 278 281 283
f 281 284 283
f 281 282 284
f 121 285 143
f 121 263 285
f 263 286 285
f 263 264 286
f 143 287 145
f 143 285 287
f 285 288 287
f 285 286 288
f 264 289 286
f 264 267 289
f 267 290 289
f 267 268 290
f 286 291 288
f 286 289 291
f 289 292 291
f 289 290 292
f 145 293 151
f 145 287 293
f 287 294 293
f 287 288 294
f 151 295 153
f 151 293 295
f 293 296 295
f 293 294 296
f 288 297 294
f 288 291 297
f 291 298 297
f 291 292 298
f 294 299 296
f 294 297 299
f 297 300 299
f 297 298 300
f 268 301 290
f 268 279 301
f 279 302 301
f 279 280 302
f 290 303 292
f 290 301 303
f 301 304 303
f 301 302 304
f 280 305 302
f 280 283 305
f 283 306 305
f 283 284 306
f 302 307 304
f 302 305 307
f 305 308 307
f 305 306 308
f 292 309 298
f 292 303 309
f 303 310 309
f 303 304 310
f 298 311 300
f 298 309 311
f 309 312 311
f 309 310 312
f 304 313 310
f 304 307 313
f 307 314 313
f 307 308 314
f 310 315 312
f 310 313 315
f 313 316 315
f 313 314 316
f 228 317 274
f 228 249 317
f 249 318 317
f 249 250 318
f 274 319 276
f 274 317 319
f 317 320 319
f 317 318 320
f 250 321 318
f 250 252 321
f 318 322 320
f 318 321 322
f 276 323 282
f 276 319 323
f 319 324 323
f 319 320 324
f 282 325 284
f 282 323 325
f 323 326 325
f 323 324 326
f 320 327 324
f 320 322 327
f 324 328 326
f 324 327 328
f 284 329 306
f 284 325 329
f 325 330 329
f 325 326 330
f 306 331 308
f 306 329 331
f 329 332 331
f 329 330 332
f 326 333 330
f 326 328 333
f 330 334 332
f 330 333 334
f 308 335 314
f 308 331 335
f 331 336 335
f 331 332 336
f 314 337 316
f 314 335 337
f 335 338 337
f 335 336 338
f 332 339 336
f 332 334 339
f 336 340 338
f 336 339 340
f 89 349 341
f 89 132 349
f 132 350 349
f 132 133 350
f 341 351 342
f 341 349 351
f 349 352 351
f 349 350 352
f 133 353 350
f 133 136 353
f 136 354 353
f 136 137 354
f 350 355 352
f 350 353 355
f 353 356 355
f 353 354 356
f 342 357 343
f 342 351 357
f 351 358 357
f 351 352 358
f 343 359 344
f 343 357 359
f 357 360 359
f 357 358 360
f 352 361 358
f 352 355 361
f 355 362 361
f 355 356 362
f 358 363 360
f 358 361 363
f 361 364 363
f 361 362 364
f 137 365 354
f 137 148 365
f 148 366 365
f 148 149 366
f 354 367 356
f 354 365 367
f 365 368 367
f 365 366 368
f 149 369 366
f 149 152 369
f 152 370 369
f 152 153 370
f 366 371 368
f 366 369 371
f 369 372 371
f 369 370 372
f 356 373 362
f 356 367 373
f 367 374 373
f 367 368 374
f 362 375 364
f 362 373 375
f 373 376 375
f 373 374 376
f 368 377 374
f 368 371 377
f 371 378 377
f 371 372 378
f 374 379 376
f 374 377 379
f 377 380 379
f 377 378 380
f 344 381 345
f 344 359 381
f 359 382 381
f 359 360 382
f 345 383 346
f 345 381 383
f 381 384 383
f 381 382 384
f 360 385 382
f 360 363 385
f 363 386 385
f 363 364 386
f 382 387 384
f 382 385 387
f 385 388 387
f 385 386 388
f 346 389 347
f 346 383 389
f 383 390 389
f 383 384 390
f 347 391 348
f 347 389 391
f 389 392 391
f 389 390 392
f 384 393 390
f 384 387 393
f 387 394 393
f 387 388 394
f 390 395 392
f 390 393 395
f 393 396 395
f 393 394 396
f 364 397 386
f 364 375 397
f 375 398 397
f 375 376 398
f 386 399 388
f 386 397 399
f 397 400 399
f 397 398 400
f 376 401 398
f 376 379 401
f 379 402 401
f 379 380 402
f 398 403 400
f 398 401 403
f 401 404 403
f 401 402 404
f 388 405 394
f 388 399 405
f 399 406 405
f 399 400 406
f 394 407 396
f 394 405 407
f 405 408 407
f 405 406 408
f 400 409 406
f 400 403 409
f 403 410 409
f 403 404 410
f 406 411 408
f 406 409 411
f 409 412 411
f 409 410 412
f 348 421 413
f 348 391 421
f 391 422 421
f 391 392 422
f 413 423 414
f 413 421 423
f 421 424 423
f 421 422 424
f 392 425 422
f 392 395 425
f 395 426 425
f 395 396 426
f 422 427 424
f 422 425 427
f 425 428 427
f 425 426 428
f 414 429 415
f 414 423 429
f 423 430 429
f 423 424 430
f 415 431 416
f 415 429 431
f 429 432 431
f 429 430 432
f 424 433 430
f 424 427 433
f 427 434 433
f 427 428 434
f 430 435 432
f 430 433 435
f 433 436 435
f 433 434 436
f 396 437 426
f 396 407 437
f 407 438 437
f 407 408 438
f 426 439 428
f 426 437 439
f 437 440 439
f 437 438 440
f 408 441 438
f 408 411 441
f 411 442 441
f 411 412 442
f 438 443 440
f 438 441 443
f 441 444 443
f 441 442 444
f 428 445 434
f 428 439 445
f 439 446 445
f 439 440 446
f 434 447 436
f 434 445 447
f 445 448 447
f 445 446 448
f 440 449 446
f 440 443 449
f 443 450 449
f 443 444 450
f 446 451 448
f 446 449 451
f 449 452 451
f 449 450 452
f 416 453 417
f 416 431 453
f 431 454 453
f 431 432 454
f 417 455 418
f 417 453 455
f 453 456 455
f 453 454 456
f 432 457 454
f 432 435 457
f 435 458 457
f 435 436 458
f 454 459 456
f 454 457 459
f 457 460 459
f 457 458 460
f 418 461 419
f 418 455 461
f 455 462 461
f 455 456 462
f 419 463 420
f 419 461 463
f 461 464 463
f 461 462 464
f 456 465 462
f 456 459 465
f 459 466 465
f 459 460 466
f 462 467 464
f 462 465 467
f 465 468 467
f 465 466 468
f 436 469 458
f 436 447 469
f 447 470 469
f 447 448 470
f 458 471 460
f 458 469 471
f 469 472 471
f 469 470 472
f 448 473 470
f 448 451 473
f 451 474 473
f 451 452 474
f 470 475 472
f 470 473 475
f 473 476 475
f 473 474 476
f 460 477 466
f 460 471 477
f 471 478 477
f 471 472 478
f 466 479 468
f 466 477 479
f 477 480 479
f 477 478 480
f 472 481 478
f 472 475 481
f 475 482 481
f 475 476 482
f 478 483 480
f 478 481 483
f 481 484 483
f 481 482 484
f 420 486 485
f 420 463 486
f 463 487 486
f 463 464 487
f 464 488 487
f 464 467 488
f 467 489 488
f 467 468 489
f 468 490 489
f 468 479 490
f 479 491 490
f 479 480 491
f 480 492 491
f 480 483 492
f 483 493 492
f 483 484 493
f 153 494 370
f 153 295 494
f 295 495 494
f 295 296 495
f 370 496 372
f 370 494 496
f 494 497 496
f 494 495 497
f 296 498 495
f 296 299 498
f 299 499 498
f 299 300 499
f 495 500 497
f 495 498 500
f 498 501 500
f 498 499 501
f 372 502 378
f 372 496 502
f 496 503 502
f 496 497 503
f 378 504 380
f 378 502 504
f 502 505 504
f 502 503 505
f 497 506 503
f 497 500 506
f 500 507 506
f 500 501 507
f 503 508 505
f 503 506 508
f 506 509 508
f 506 507 509
f 300 510 499
f 300 311 510
f 311 511 510
f 311 312 511
f 499 512 501
f 499 510 512
f 510 513 512
f 510 511 513
f 312 514 511
f 312 315 514
f 315 515 514
f 315 316 515
f 511 516 513
f 511 514 516
f 514 517 516
f 514 515 517
f 501 518 507
f 501 512 518
f 512 519 518
f 512 513 519
f 507 520 509
f 507 518 520
f 518 521 520
f 518 519 521
f 513 522 519
f 513 516 522
f 516 523 522
f 516 517 523
f 519 524 521
f 519 522 524
f 522 525 524
f 522 523 525
f 380 526 402
f 380 504 526
f 504 527 526
f 504 505 527
f 402 528 404
f 402 526 528
f 526 529 528
f 526 527 529
f 505 530 527
f 505 508 530
f 508 531 530
f 508 509 531
f 527 532 529
f 527 530 532
f 530 533 532
f 530 531 533
f 404 534 410
f 404 528 534
f 528 535 534
f 528 529 535
f 410 536 412
f 410 534 536
f 534 537 536
f 534 535 537
f 529 538 535
f 529 532 538
f 532 539 538
f 532 533 539
f 535 540 537
f 535 538 540
f 538 541 540
f 538 539 541
f 509 542 531
f 509 520 542
f 520 543 542
f 520 521 543
f 531 544 533
f 531 542 544
f 542 545 544
f 542 543 545
f 521 546 543
f 521 524 546
f 524 547 546
f 524 525 547
f 543 548 545
f 543 546 548
f 546 549 548
f 546 547 549
f 533 550 539
f 533 544 550
f 544 551 550
f 544 545 551
f 539 552 541
f 539 550 552
f 550 553 552
f 550 551 553
f 545 554 551
f 545 548 554
f 548 555 554
f 548 549 555
f 551 556 553
f 551 554 556
f 554 557 556
f 554 555 557
f 316 558 515
f 316 337 558
f 337 559 558
f 337 338 559
f 515 560 517
f 515 558 560
f 558 561 560
f 558 559 561
f 338 562 559
f 338 340 562
f 559 563 561
f 559 562 563
f 517 564 523
f 517 560 564
f 560 565 564
f 560 561 565
f 523 566 525
f 523 564 566
f 564 567 566
f 564 565 567
f 561 568 565
f 561 563 568
f 565 569 567
f 565 568 569
f 525 570 547
f 525 566 570
f 566 571 570
f 566 567 571
f 547 572 549
f 547 570 572
f 570 573 572
f 570 571 573
f 567 574 571
f 567 569 574
f 571 575 573
f 571 574 575
f 549 576 555
f 549 572 576
f 572 577 576
f 572 573 577
f 555 578 557
f 555 576 578
f 576 579 578
f 576 577 579
f 573 580 577
f 573 575 580
f 577 581 579
f 577 580 581
f 412 582 442
f 412 536 582
f 536 583 582
f 536 537 583
f 442 584 444
f 442 582 584
f 582 585 584
f 582 583 585
f 537 586 583
f 537 540 586
f 540 587 586
f 540 541 587
f 583 588 585
f 583 586 588
f 586 589 588
f 586 587 589
f 444 590 450
f 444 584 590
f 584 591 590
f 584 585 591
f 450 592 452
f 450 590 592
f 590 593 592
f 590 591 593
f 585 594 591
f 585 588 594
f 588 595 594
f 588 589 595
f 591 596 593
f 591 594 596
f 594 597 596
f 594 595 597
f 541 598 587
f 541 552 598
f 552 599 598
f 552 553 599
f 587 600 589
f 587 598 600
f 598 601 600
f 598 599 601
f 553 602 599
f 553 556 602
f 556 603 602
f 556 557 603
f 599 604 601
f 599 602 604
f 602 605 604
f 602 603 605
f 589 606 595
f 589 600 606
f 600 607 606
f 600 601 607
f 595 608 597
f 595 606 608
f 606 609 608
f 606 607 609
f 601 610 607
f 601 604 610
f 604 611 610
f 604 605 611
f 607 612 609
f 607 610 612
f 610 613 612
f 610 611 613
f 452 614 474
f 452 592 614
f 592 615 614
f 592 593 615
f 474 616 476
f 474 614 616
f 614 617 616
f 614 615 617
f 593 618 615
f 593 596 618
f 596 619 618
f 596 597 619
f 615 620 617
f 615 618 620
f 618 621 620
f 618 619 621
f 476 622 482
f 476 616 622
f 616 623 622
f 616 617 623
f 482 624 484
f 482 622 624
f 622 625 624
f 622 623 625
f 617 626 623
f 617 620 626
f 620 627 626
f 620 621 627
f 623 628 625
f 623 626 628
f 626 629 628
f 626 627 629
f 597 630 619
f 597 608 630
f 608 631 630
f 608 609 631
f 619 632 621
f 619 630 632
f 630 633 632
f 630 631 633
f 609 634 631
f 609 612 634
f 612 635 634
f 612 613 635
f 631 636 633
f 631 634 636
f 634 637 636
f 634 635 637
f 621 638 627
f 621 632 638
f 632 639 638
f 632 633 639
f 627 640 629
f 627 638 640
f 638 641 640
f 638 639 641
f 633 642 639
f 633 636 642
f 636 643 642
f 636 637 643
f 639 644 641
f 639 642 644
f 642 645 644
f 642 643 645
f 557 646 603
f 557 578 646
f 578 647 646
f 578 579 647
f 603 648 605
f 603 646 648
f 646 649 648
f 646 647 649
f 579 650 647
f 579 581 650
f 647 651 649
f 647 650 651
f 605 652 611
f 605 648 652
f 648 653 652
f 648 649 653
f 611 654 613
f 611 652 654
f 652 655 654
f 652 653 655
f 649 656 653
f 649 651 656
f 653 657 655
f 653 656 657
f 613 658 635
f 613 654 658
f 654 659 658
f 654 655 659
f 635 660 637
f 635 658 660
f 658 661 660
f 658 659 661
f 655 662 659
f 655 657 662
f 659 663 661
f 659 662 663
f 637 664 643
f 637 660 664
f 660 665 664
f 660 661 665
f 643 666 645
f 643 664 666
f 664 667 666
f 664 665 667
f 661 668 665
f 661 663 668
f 665 669 667
f 665 668 669
f 484 670 493
f 484 624 670
f 624 671 670
f 624 625 671
f 625 672 671
f 625 628 672
f 628 673 672
f 628 629 673
f 629 674 673
f 629 640 674
f 640 675 674
f 640 641 675
f 641 676 675
f 641 644 676
f 644 677 676
f 644 645 677
f 645 678 677
f 645 666 678
f 666 679 678
f 666 667 679
f 667 680 679
f 667 669 680

