# https://github.com/mikedh/trimesh

o 3.obj
v -0.05359115 -0.07610073 -0.10422656
v -0.04593143 -0.07610073 -0.10422656
v -0.05359416 -0.08376183 -0.10427196
v -0.05359799 -0.09141964 -0.10431736
v -0.04593307 -0.08376101 -0.10422656
v -0.04593526 -0.09142046 -0.10427196
v -0.03827115 -0.07609909 -0.10427196
v -0.03061334 -0.07609772 -0.10427196
v -0.03827143 -0.08375855 -0.10422656
v -0.03827361 -0.09142046 -0.10422656
v -0.03061252 -0.08375800 -0.10427196
v -0.03061170 -0.09141827 -0.10422656
v -0.05360155 -0.09907773 -0.10440844
v -0.05360155 -0.10673253 -0.10440844
v -0.04593826 -0.09907910 -0.10436304
v -0.04593826 -0.10673417 -0.10440844
v -0.05360155 -0.11439226 -0.10440844
v -0.05360155 -0.12205171 -0.10440844
v -0.04593772 -0.11439226 -0.10440844
v -0.04593772 -0.12205171 -0.10436277
v -0.03827744 -0.09908074 -0.10427196
v -0.03827963 -0.10673800 -0.10427196
v -0.03061416 -0.09907992 -0.10422656
v -0.03061471 -0.10673882 -0.10427196
v -0.03828045 -0.11439664 -0.10431736
v -0.03827826 -0.12205390 -0.10427169
v -0.03061553 -0.11439746 -0.10431764
v -0.03061416 -0.12205390 -0.10431736
v -0.02295388 -0.07609526 -0.10431736
v -0.01529662 -0.07609526 -0.10436304
v -0.02295388 -0.08375718 -0.10431764
v -0.02295224 -0.09141581 -0.10422629
v -0.01529580 -0.08375554 -0.10431736
v -0.01529361 -0.09141527 -0.10427196
v -0.00763716 -0.07609307 -0.10440844
v 0.00002010 -0.07609089 -0.10440844
v -0.00763634 -0.08375335 -0.10431736
v -0.00763552 -0.09141581 -0.10427196
v 0.00002256 -0.08375253 -0.10431736
v 0.00002393 -0.09141581 -0.10422629
v -0.02295306 -0.09907910 -0.10422656
v -0.02295443 -0.10673937 -0.10422656
v -0.01529279 -0.09907773 -0.10431764
v -0.01529197 -0.10673581 -0.10427196
v -0.02295689 -0.11439910 -0.10422629
v -0.02295744 -0.12205773 -0.10422629
v -0.01529279 -0.11439664 -0.10422656
v -0.01529361 -0.12205773 -0.10422656
v -0.00763716 -0.09907855 -0.10427196
v -0.00763634 -0.10673636 -0.10427196
v 0.00002311 -0.09907910 -0.10427196
v 0.00002393 -0.10673718 -0.10436304
v -0.00763416 -0.11439582 -0.10431764
v -0.00763251 -0.12205472 -0.10427196
v 0.00002393 -0.11439445 -0.10440871
v 0.00002557 -0.12205089 -0.10427196
v 0.00767901 -0.07609007 -0.10440844
v 0.01533764 -0.07609143 -0.10436277
v 0.00768202 -0.08375253 -0.10431736
v 0.00768503 -0.09141527 -0.10422629
v 0.01534065 -0.08375417 -0.10431736
v 0.01534448 -0.09141527 -0.10422629
v 0.02299792 -0.07609472 -0.10436277
v 0.03065983 -0.07609472 -0.10431736
v 0.02300093 -0.08375499 -0.10431736
v 0.02300394 -0.09141527 -0.10427196
v 0.03065983 -0.08375636 -0.10431736
v 0.03066202 -0.09141581 -0.10427196
v 0.00768339 -0.09907992 -0.10422656
v 0.00767983 -0.10674019 -0.10427196
v 0.01534448 -0.09907910 -0.10422656
v 0.01534311 -0.10673937 -0.10427196
v 0.00767737 -0.11439746 -0.10427169
v 0.00768120 -0.12205390 -0.10431736
v 0.01534284 -0.11439664 -0.10436304
v 0.01534311 -0.12205390 -0.10440871
v 0.02300476 -0.09907773 -0.10422656
v 0.02300257 -0.10673937 -0.10431764
v 0.03066366 -0.09907691 -0.10427196
v 0.03066120 -0.10673882 -0.10431764
v 0.02300011 -0.11439664 -0.10436304
v 0.02299792 -0.12205390 -0.10440844
v 0.03065901 -0.11439582 -0.10440871
v 0.03065819 -0.12205254 -0.10449979
v 0.03832011 -0.07609307 -0.10427169
v 0.03831929 -0.08375855 -0.10436304
v 0.03832230 -0.09141444 -0.10436304
v 0.03832312 -0.09907472 -0.10436304
v 0.03832148 -0.10673499 -0.10431764
v 0.03831710 -0.11439664 -0.10440871
v 0.03831409 -0.12205308 -0.10449952
v 0.00002557 -0.12971500 -0.10427196
v 0.00002612 -0.13737527 -0.10422656
v 0.00002585 -0.14502844 -0.10422629
v 0.00768421 -0.12971418 -0.10431764
v 0.00768585 -0.13737308 -0.10422629
v 0.01534311 -0.12971117 -0.10431736
v 0.01534448 -0.13737226 -0.10422629
v 0.00768503 -0.14502926 -0.10422629
v 0.01534448 -0.14502926 -0.10422629
v 0.02300093 -0.12970953 -0.10431736
v 0.02300394 -0.13737226 -0.10427196
v 0.03066202 -0.12970652 -0.10445412
v 0.03066421 -0.13736844 -0.10436304
v 0.02300476 -0.14502762 -0.10422629
v 0.03066503 -0.14502379 -0.10422629
v 0.03831546 -0.12970734 -0.10449952
v 0.03831929 -0.13736625 -0.10436277
v 0.04597355 -0.12970816 -0.10449952
v 0.04597792 -0.13736543 -0.10440844
v 0.03832312 -0.14502242 -0.10427169
v 0.04598175 -0.14502160 -0.10431736
v -0.05359717 -0.12970898 -0.10436277
v -0.05359252 -0.13737062 -0.10431736
v -0.04593690 -0.12971199 -0.10431736
v -0.04593526 -0.13737281 -0.10427196
v -0.05359033 -0.14502543 -0.10422629
v -0.04593225 -0.14502625 -0.10422629
v -0.03827662 -0.12971500 -0.10427196
v -0.03827443 -0.13737445 -0.10422629
v -0.03061334 -0.12971418 -0.10427196
v -0.03061252 -0.13737445 -0.10422629
v -0.03827279 -0.14502844 -0.10422629
v -0.03061252 -0.14502926 -0.10422629
v -0.02295607 -0.12971637 -0.10422629
v -0.02295388 -0.13737609 -0.10422629
v -0.01529361 -0.12971719 -0.10422656
v -0.01529361 -0.13737664 -0.10422656
v -0.02295306 -0.14502926 -0.10422629
v -0.01529388 -0.14502871 -0.10422629
v -0.00763333 -0.12971582 -0.10422656
v -0.00763416 -0.13737664 -0.10422656
v -0.00763388 -0.14502816 -0.10422629
f 1 5 2
f 1 3 5
f 3 6 5
f 3 4 6
f 2 9 7
f 2 5 9
f 5 10 9
f 5 6 10
f 7 11 8
f 7 9 11
f 9 12 11
f 9 10 12
f 4 15 6
f 4 13 15
f 13 16 15
f 13 14 16
f 14 19 16
f 14 17 19
f 17 20 19
f 17 18 20
f 6 21 10
f 6 15 21
f 15 22 21
f 15 16 22
f 10 23 12
f 10 21 23
f 21 24 23
f 21 22 24
f 16 25 22
f 16 19 25
f 19 26 25
f 19 20 26
f 22 27 24
f 22 25 27
f 25 28 27
f 25 26 28
f 8 31 29
f 8 11 31
f 11 32 31
f 11 12 32
f 29 33 30
f 29 31 33
f 31 34 33
f 31 32 34
f 30 37 35
f 30 33 37
f 33 38 37
f 33 34 38
f 35 39 36
f 35 37 39
f 37 40 39
f 37 38 40
f 12 41 32
f 12 23 41
f 23 42 41
f 23 24 42
f 32 43 34
f 32 41 43
f 41 44 43
f 41 42 44
f 24 45 42
f 24 27 45
f 27 46 45
f 27 28 46
f 42 47 44
f 42 45 47
f 45 48 47
f 45 46 48
f 34 49 38
f 34 43 49
f 43 50 49
f 43 44 50
f 38 51 40
f 38 49 51
f 49 52 51
f 49 50 52
f 44 53 50
f 44 47 53
f 47 54 53
f 47 48 54
f 50 55 52
f 50 53 55
f 53 56 55
f 53 54 56
f 36 59 57
f 36 39 59
f 39 60 59
f 39 40 60
f 57 61 58
f 57 59 61
f 59 62 61
f 59 60 62
f 58 65 63
f 58 61 65
f 61 66 65
f 61 62 66
f 63 67 64
f 63 65 67
f 65 68 67
f 65 66 68
f 40 69 60
f 40 51 69
f 51 70 69
f 51 52 70
f 60 71 62
f 60 69 71
f 69 72 71
f 69 70 72
f 52 73 70
f 52 55 73
f 55 74 73
f 55 56 74
f 70 75 72
f 70 73 75
f 73 76 75
f 73 74 76
f 62 77 66
f 62 71 77
f 71 78 77
f 71 72 78
f 66 79 68
f 66 77 79
f 77 80 79
f 77 78 80
f 72 81 78
f 72 75 81
f 75 82 81
f 75 76 82
f 78 83 80
f 78 81 83
f 81 84 83
f 81 82 84
f 64 86 85
f 64 67 86
f 67 87 86
f 67 68 87
f 68 88 87
f 68 79 88
f 79 89 88
f 79 80 89
f 80 90 89
f 80 83 90
f 83 91 90
f 83 84 91
f 92 96 95
f 92 93 96
f 95 98 97
f 95 96 98
f 93 99 96
f 93 94 99
f 96 100 98
f 96 99 100
f 97 102 101
f 97 98 102
f 101 104 103
f 101 102 104
f 98 105 102
f 98 100 105
f 102 106 104
f 102 105 106
f 103 108 107
f 103 104 108
f 107 110 109
f 107 108 110
f 104 111 108
f 104 106 111
f 108 112 110
f 108 111 112
f 113 116 115
f 113 114 116
f 114 118 116
f 114 117 118
f 115 120 119
f 115 116 120
f 119 122 121
f 119 120 122
f 116 123 120
f 116 118 123
f 120 124 122
f 120 123 124
f 121 126 125
f 121 122 126
f 125 128 127
f 125 126 128
f 122 129 126
f 122 124 129
f 126 130 128
f 126 129 130
f 127 132 131
f 127 128 132
f 128 133 132
f 128 130 133

