# https://github.com/mikedh/trimesh

o 0.obj
v -0.15319114 0.08901446 -0.07787946
v -0.15317938 0.09106518 -0.07074677
v -0.15061610 0.09403269 -0.05979762
v -0.15572651 0.09258449 -0.06520287
v -0.14552512 0.08897042 -0.07786770
v -0.13786320 0.08888235 -0.07784390
v -0.14551910 0.09097766 -0.07072024
v -0.14295720 0.09403296 -0.05979598
v -0.14806842 0.09258504 -0.06519986
v -0.13786266 0.09093417 -0.07070602
v -0.13530294 0.09403351 -0.05979379
v -0.14041335 0.09254155 -0.06518509
v -0.13020074 0.08888208 -0.07784555
v -0.12254129 0.08888208 -0.07784555
v -0.13020867 0.09084638 -0.07068141
v -0.12765771 0.09394654 -0.05976480
v -0.13275581 0.09245403 -0.06515965
v -0.12254539 0.09080317 -0.07066718
v -0.12000290 0.09385929 -0.05973773
v -0.12509334 0.09241082 -0.06514488
v -0.15061857 0.10029071 -0.03644265
v -0.15317609 0.10173426 -0.03106147
v -0.15317473 0.10357740 -0.02405651
v -0.15318129 0.10549903 -0.01687924
v -0.15318266 0.10991255 -0.00055904
v -0.15063361 0.10847174 -0.00592927
v -0.15573554 0.10702518 -0.01132549
v -0.14551418 0.09547679 -0.05441399
v -0.14551254 0.09732348 -0.04739070
v -0.13785445 0.09547679 -0.05441399
v -0.13785308 0.09732348 -0.04739070
v -0.14295911 0.10029071 -0.03644265
v -0.14806952 0.09884252 -0.04184789
v -0.14551664 0.10173426 -0.03106147
v -0.13529966 0.10029071 -0.03644265
v -0.14041006 0.09884252 -0.04184789
v -0.13785719 0.10173426 -0.03106147
v -0.13020129 0.09547761 -0.05440961
v -0.13019363 0.09732348 -0.04739070
v -0.12254457 0.09538899 -0.05438855
v -0.12254101 0.09732457 -0.04738469
v -0.12763993 0.10029071 -0.03644265
v -0.13275061 0.09884252 -0.04184789
v -0.13019746 0.10173426 -0.03106147
v -0.11998048 0.10029071 -0.03644265
v -0.12509088 0.09884252 -0.04184789
v -0.12253800 0.10173426 -0.03106147
v -0.14551527 0.10357740 -0.02405651
v -0.14552184 0.10549903 -0.01687924
v -0.13785582 0.10357740 -0.02405651
v -0.13786211 0.10549903 -0.01687924
v -0.14552320 0.10991255 -0.00055904
v -0.14297415 0.10847174 -0.00592927
v -0.13786375 0.10991255 -0.00055904
v -0.13531470 0.10847174 -0.00592927
v -0.14807608 0.10702518 -0.01132549
v -0.14041663 0.10702518 -0.01132549
v -0.13019609 0.10357740 -0.02405651
v -0.13020265 0.10549903 -0.01687924
v -0.12253664 0.10357740 -0.02405651
v -0.12254320 0.10549903 -0.01687924
v -0.13020430 0.10991255 -0.00055904
v -0.12765525 0.10847174 -0.00592927
v -0.12254457 0.10991255 -0.00055904
v -0.11999579 0.10847174 -0.00592927
v -0.13275717 0.10702518 -0.01132549
v -0.12509772 0.10702518 -0.01132549
v -0.11488156 0.08888208 -0.07784555
v -0.10722210 0.08888208 -0.07784555
v -0.11487964 0.09080399 -0.07066390
v -0.11233360 0.09377095 -0.05971831
v -0.11743608 0.09232302 -0.06512081
v -0.10722019 0.09080399 -0.07066390
v -0.10466731 0.09377040 -0.05972104
v -0.10976924 0.09232384 -0.06511781
v -0.09956265 0.08888208 -0.07784555
v -0.09190319 0.08888208 -0.07784555
v -0.09956073 0.09080399 -0.07066390
v -0.09700786 0.09377040 -0.05972104
v -0.10210978 0.09232384 -0.06511781
v -0.09190128 0.09080399 -0.07066390
v -0.08934813 0.09377040 -0.05972104
v -0.09445033 0.09232384 -0.06511781
v -0.08424374 0.08888208 -0.07784555
v -0.07658401 0.08888208 -0.07784555
v -0.08424183 0.09080399 -0.07066390
v -0.08168867 0.09377040 -0.05972104
v -0.08679060 0.09232384 -0.06511781
v -0.07658210 0.09080399 -0.07066390
v -0.07402922 0.09377040 -0.05972104
v -0.07913115 0.09232384 -0.06511781
v -0.06892456 0.08888208 -0.07784555
v -0.06126510 0.08888208 -0.07784555
v -0.06892264 0.09080399 -0.07066390
v -0.06636977 0.09377040 -0.05972104
v -0.07147169 0.09232384 -0.06511781
v -0.06126319 0.09080399 -0.07066390
v -0.05871031 0.09377040 -0.05972104
v -0.06381224 0.09232384 -0.06511781
v -0.11488457 0.09534550 -0.05437324
v -0.11488922 0.09728054 -0.04737210
v -0.10722484 0.09525689 -0.05435327
v -0.10723250 0.09719192 -0.04735296
v -0.11232102 0.10029071 -0.03644237
v -0.11743225 0.09884279 -0.04184625
v -0.11487855 0.10173426 -0.03106147
v -0.10466704 0.10029099 -0.03644101
v -0.10977826 0.09884334 -0.04184269
v -0.10721909 0.10173426 -0.03106147
v -0.09955827 0.09521231 -0.05434507
v -0.09957332 0.09714816 -0.04734092
v -0.09189718 0.09521231 -0.05434589
v -0.09191085 0.09706119 -0.04731330
v -0.09701661 0.10020401 -0.03641283
v -0.10212072 0.09875609 -0.04181671
v -0.09956019 0.10173454 -0.03106011
v -0.08935825 0.10016189 -0.03639178
v -0.09445990 0.09866884 -0.04178963
v -0.09190511 0.10169105 -0.03104479
v -0.11487718 0.10357740 -0.02405651
v -0.11488375 0.10549903 -0.01687924
v -0.10721773 0.10357740 -0.02405651
v -0.10722429 0.10549903 -0.01687924
v -0.11488511 0.10991255 -0.00055904
v -0.11233606 0.10847174 -0.00592927
v -0.10722566 0.10991255 -0.00055904
v -0.10467661 0.10847174 -0.00592927
v -0.11743799 0.10702518 -0.01132549
v -0.10977854 0.10702518 -0.01132549
v -0.09955827 0.10357740 -0.02405651
v -0.09956456 0.10549903 -0.01687924
v -0.09189937 0.10357767 -0.02405487
v -0.09190511 0.10549903 -0.01687924
v -0.09956620 0.10991255 -0.00055904
v -0.09701716 0.10847174 -0.00592927
v -0.09190675 0.10991255 -0.00055904
v -0.08935770 0.10847174 -0.00592927
v -0.10211908 0.10702518 -0.01132549
v -0.09445963 0.10702518 -0.01132549
v -0.08423772 0.09521231 -0.05434589
v -0.08424429 0.09706174 -0.04731111
v -0.07657827 0.09521231 -0.05434589
v -0.07658483 0.09706174 -0.04731111
v -0.08170016 0.10007410 -0.03636716
v -0.08680017 0.09858105 -0.04176529
v -0.08424866 0.10160271 -0.03102318
v -0.07403688 0.10002897 -0.03636333
v -0.07913388 0.09858187 -0.04176256
v -0.07658702 0.10155895 -0.03100869
v -0.06891881 0.09521231 -0.05434589
v -0.06892538 0.09706174 -0.04731111
v -0.06125936 0.09521231 -0.05434589
v -0.06126592 0.09706174 -0.04731111
v -0.06637223 0.10002842 -0.03636607
v -0.07147415 0.09858187 -0.04176256
v -0.06892784 0.10147006 -0.03099009
v -0.05871277 0.10002842 -0.03636607
v -0.06381470 0.09858187 -0.04176256
v -0.06126182 0.10146951 -0.03099364
v -0.08424593 0.10357877 -0.02404831
v -0.08424566 0.10549903 -0.01687897
v -0.07659331 0.10349070 -0.02402424
v -0.07658757 0.10549958 -0.01687596
v -0.08424702 0.10991255 -0.00055904
v -0.08169797 0.10847174 -0.00592927
v -0.07658757 0.10991255 -0.00055904
v -0.07403852 0.10847174 -0.00592927
v -0.08680017 0.10702518 -0.01132549
v -0.07914045 0.10702518 -0.01132549
v -0.06893523 0.10344639 -0.02401521
v -0.06893194 0.10545637 -0.01685900
v -0.06127604 0.10335750 -0.02399579
v -0.06127413 0.10536803 -0.01683740
v -0.06892811 0.10991255 -0.00055904
v -0.06637907 0.10847174 -0.00592927
v -0.06126866 0.10991255 -0.00055904
v -0.05872508 0.10847229 -0.00592791
v -0.07148181 0.10702545 -0.01132412
v -0.06382755 0.10702655 -0.01131811
v -0.05360565 0.08888208 -0.07784555
v -0.04594620 0.08888208 -0.07784555
v -0.05360374 0.09080399 -0.07066390
v -0.05105058 0.09377040 -0.05972104
v -0.05615278 0.09232384 -0.06511781
v -0.04594428 0.09080399 -0.07066390
v -0.04339113 0.09377040 -0.05972104
v -0.04849306 0.09232384 -0.06511781
v -0.03828647 0.08888208 -0.07784555
v -0.03062701 0.08888208 -0.07784555
v -0.03828455 0.09080399 -0.07066390
v -0.03573168 0.09377040 -0.05972104
v -0.04083360 0.09232384 -0.06511781
v -0.03062510 0.09080399 -0.07066390
v -0.02807222 0.09377040 -0.05972104
v -0.03317415 0.09232384 -0.06511781
v -0.02296756 0.08888208 -0.07784555
v -0.01530811 0.08888208 -0.07784555
v -0.02296564 0.09080399 -0.07066390
v -0.02041277 0.09377040 -0.05972104
v -0.02551469 0.09232384 -0.06511781
v -0.01530619 0.09080399 -0.07066390
v -0.01275304 0.09377040 -0.05972104
v -0.01785524 0.09232384 -0.06511781
v -0.00764865 0.08888208 -0.07784555
v 0.00001108 0.08888208 -0.07784555
v -0.00764674 0.09080399 -0.07066390
v -0.00509358 0.09377040 -0.05972104
v -0.01019551 0.09232384 -0.06511781
v 0.00001299 0.09080399 -0.07066390
v 0.00256587 0.09377040 -0.05972104
v -0.00253606 0.09232384 -0.06511781
v -0.05359963 0.09521231 -0.05434589
v -0.05360647 0.09706174 -0.04731111
v -0.04594018 0.09521231 -0.05434589
v -0.04594674 0.09706174 -0.04731111
v -0.05105332 0.10002842 -0.03636607
v -0.05615525 0.09858187 -0.04176256
v -0.05360237 0.10146951 -0.03099364
v -0.04339386 0.10002842 -0.03636607
v -0.04849579 0.09858187 -0.04176256
v -0.04594291 0.10146951 -0.03099364
v -0.03828072 0.09521231 -0.05434589
v -0.03828729 0.09706174 -0.04731111
v -0.03062127 0.09521231 -0.05434589
v -0.03062783 0.09706174 -0.04731111
v -0.03573414 0.10002842 -0.03636607
v -0.04083634 0.09858187 -0.04176256
v -0.03828319 0.10146951 -0.03099364
v -0.02807468 0.10002842 -0.03636607
v -0.03317661 0.09858187 -0.04176256
v -0.03062373 0.10146951 -0.03099364
v -0.05361331 0.10331238 -0.02399197
v -0.05361331 0.10532344 -0.01682810
v -0.04594948 0.10331183 -0.02399415
v -0.04595413 0.10523319 -0.01681415
v -0.05361468 0.10991255 -0.00055740
v -0.05106946 0.10838394 -0.00590521
v -0.04596151 0.10986907 -0.00054482
v -0.04340781 0.10833882 -0.00589563
v -0.05617904 0.10693711 -0.01130060
v -0.04852342 0.10684822 -0.01128364
v -0.03829002 0.10331183 -0.02399415
v -0.03828811 0.10523264 -0.01681716
v -0.03063030 0.10331183 -0.02399415
v -0.03062838 0.10523264 -0.01681716
v -0.03830096 0.10978127 -0.00051801
v -0.03574754 0.10825075 -0.00587184
v -0.03063440 0.10973751 -0.00050379
v -0.02808179 0.10820644 -0.00586090
v -0.04085712 0.10675879 -0.01126587
v -0.03319056 0.10675852 -0.01126669
v -0.02296182 0.09521231 -0.05434589
v -0.02296838 0.09706174 -0.04731111
v -0.01530209 0.09521231 -0.05434589
v -0.01530893 0.09706174 -0.04731111
v -0.02041523 0.10002842 -0.03636607
v -0.02551716 0.09858187 -0.04176256
v -0.02296428 0.10146951 -0.03099364
v -0.01275577 0.10002842 -0.03636607
v -0.01785770 0.09858187 -0.04176256
v -0.01530482 0.10146951 -0.03099364
v -0.00764263 0.09521231 -0.05434589
v -0.00764920 0.09706174 -0.04731111
v 0.00001682 0.09521231 -0.05434589
v 0.00001026 0.09706174 -0.04731111
v -0.00509632 0.10002842 -0.03636607
v -0.01019825 0.09858187 -0.04176256
v -0.00764537 0.10146951 -0.03099364
v 0.00256341 0.10002842 -0.03636607
v -0.00253879 0.09858187 -0.04176256
v 0.00001436 0.10146951 -0.03099364
v -0.02297084 0.10331183 -0.02399415
v -0.02296893 0.10523264 -0.01681716
v -0.01531139 0.10331183 -0.02399415
v -0.01530947 0.10523264 -0.01681716
v -0.02297276 0.10964944 -0.00048027
v -0.02042070 0.10820644 -0.00586172
v -0.01531029 0.10964944 -0.00048191
v -0.01276124 0.10820644 -0.00586172
v -0.02553110 0.10675852 -0.01126669
v -0.01787165 0.10675852 -0.01126669
v -0.00765193 0.10331183 -0.02399415
v -0.00765002 0.10523264 -0.01681716
v 0.00000752 0.10331183 -0.02399415
v 0.00000944 0.10523264 -0.01681716
v -0.00765057 0.10964944 -0.00048191
v -0.00510152 0.10820644 -0.00586172
v 0.00000889 0.10964944 -0.00048191
v 0.00255794 0.10820644 -0.00586172
v -0.01021192 0.10675852 -0.01126669
v -0.00255247 0.10675852 -0.01126669
v -0.15318348 0.12599344 0.06051229
v -0.15063443 0.12455290 0.05514287
v -0.14552402 0.12599344 0.06051229
v -0.14297498 0.12455290 0.05514287
v -0.13786430 0.12599344 0.06051229
v -0.13531552 0.12455290 0.05514287
v -0.13020484 0.12599344 0.06051229
v -0.12765579 0.12455290 0.05514287
v -0.12254539 0.12599344 0.06051229
v -0.11999634 0.12455290 0.05514287
v -0.15828568 0.13080026 0.07847351
v -0.15317609 0.12783330 0.06752655
v -0.15062294 0.13080026 0.07847351
v -0.15572487 0.12935370 0.07307702
v -0.16084704 0.13224463 0.08385796
v -0.16084813 0.13408831 0.09086484
v -0.15318047 0.13224463 0.08385878
v -0.15317883 0.13408804 0.09086539
v -0.15317691 0.13600995 0.09804648
v -0.14551664 0.12783330 0.06752655
v -0.14296321 0.13080026 0.07847351
v -0.14806541 0.12935370 0.07307702
v -0.13785719 0.12783330 0.06752655
v -0.13530376 0.13080026 0.07847351
v -0.14040569 0.12935370 0.07307702
v -0.14552102 0.13224463 0.08385878
v -0.14551937 0.13408804 0.09086539
v -0.13786129 0.13224463 0.08385878
v -0.13785992 0.13408804 0.09086539
v -0.13019746 0.12783330 0.06752655
v -0.12764431 0.13080026 0.07847351
v -0.13274623 0.12935370 0.07307702
v -0.12253800 0.12783330 0.06752655
v -0.11998485 0.13080026 0.07847351
v -0.12508678 0.12935370 0.07307702
v -0.13020183 0.13224463 0.08385878
v -0.13020019 0.13408804 0.09086539
v -0.12254238 0.13224463 0.08385878
v -0.12254074 0.13408804 0.09086539
v -0.14551746 0.13600995 0.09804648
v -0.14806651 0.13752953 0.10359258
v -0.13785801 0.13600995 0.09804648
v -0.14040678 0.13752953 0.10359258
v -0.13019828 0.13600995 0.09804648
v -0.13274733 0.13752953 0.10359258
v -0.12253882 0.13600995 0.09804648
v -0.12508787 0.13752953 0.10359258
v -0.15061939 0.11637188 0.02462950
v -0.15317691 0.11781515 0.03000985
v -0.15317555 0.11965829 0.03701454
v -0.14552129 0.11166024 0.00645604
v -0.14551637 0.11349161 0.01365109
v -0.13786183 0.11166024 0.00645604
v -0.13785691 0.11349161 0.01365109
v -0.14295966 0.11637188 0.02462950
v -0.14807034 0.11492313 0.01921961
v -0.14551746 0.11781515 0.03000985
v -0.13530020 0.11637188 0.02462950
v -0.14041061 0.11492313 0.01921961
v -0.13785773 0.11781515 0.03000985
v -0.13020238 0.11166024 0.00645604
v -0.13019718 0.11349161 0.01365109
v -0.12254265 0.11166024 0.00645604
v -0.12253773 0.11349161 0.01365109
v -0.12764075 0.11637188 0.02462950
v -0.13275116 0.11492313 0.01921961
v -0.13019828 0.11781515 0.03000985
v -0.11998130 0.11637188 0.02462950
v -0.12509170 0.11492313 0.01921961
v -0.12253882 0.11781515 0.03000985
v -0.14551609 0.11965829 0.03701454
v -0.14552238 0.12158020 0.04419290
v -0.13785636 0.11965829 0.03701454
v -0.13786293 0.12158020 0.04419290
v -0.14807690 0.12310634 0.04974666
v -0.14041745 0.12310634 0.04974666
v -0.13019691 0.11965829 0.03701454
v -0.13020347 0.12158020 0.04419290
v -0.12253746 0.11965829 0.03701454
v -0.12254402 0.12158020 0.04419290
v -0.13275799 0.12310634 0.04974666
v -0.12509827 0.12310634 0.04974666
v -0.11488593 0.12599344 0.06051229
v -0.11233688 0.12455290 0.05514287
v -0.10722648 0.12599344 0.06051229
v -0.10467743 0.12455290 0.05514287
v -0.09956675 0.12599344 0.06051229
v -0.09701798 0.12455290 0.05514287
v -0.09190730 0.12599344 0.06051229
v -0.08935825 0.12455290 0.05514287
v -0.08424784 0.12599344 0.06051229
v -0.08169879 0.12455290 0.05514287
v -0.07658839 0.12599344 0.06051229
v -0.07403934 0.12455290 0.05514287
v -0.06892893 0.12599344 0.06051229
v -0.06637989 0.12455290 0.05514287
v -0.06126921 0.12599344 0.06051229
v -0.05872043 0.12455290 0.05514287
v -0.11487855 0.12783330 0.06752655
v -0.11232540 0.13080026 0.07847351
v -0.11742732 0.12935370 0.07307702
v -0.10721909 0.12783330 0.06752655
v -0.10466567 0.13080026 0.07847351
v -0.10976787 0.12935370 0.07307702
v -0.11488293 0.13224463 0.08385878
v -0.11488128 0.13408804 0.09086539
v -0.10722347 0.13224463 0.08385878
v -0.10722183 0.13408804 0.09086539
v -0.09955964 0.12783330 0.06752655
v -0.09700622 0.13080026 0.07847351
v -0.10210814 0.12935370 0.07307702
v -0.09189991 0.12783330 0.06752655
v -0.08934676 0.13080026 0.07847351
v -0.09444869 0.12935370 0.07307702
v -0.09956374 0.13224463 0.08385878
v -0.09956238 0.13408804 0.09086539
v -0.09190429 0.13224463 0.08385878
v -0.09190265 0.13408804 0.09086539
v -0.11487937 0.13600995 0.09804648
v -0.11742842 0.13752953 0.10359258
v -0.10721992 0.13600995 0.09804648
v -0.10976896 0.13752953 0.10359258
v -0.09956019 0.13600995 0.09804648
v -0.10210924 0.13752953 0.10359258
v -0.09190073 0.13600995 0.09804648
v -0.09444978 0.13752953 0.10359258
v -0.08424046 0.12783330 0.06752655
v -0.08168731 0.13080026 0.07847351
v -0.08678923 0.12935370 0.07307702
v -0.07658100 0.12783330 0.06752655
v -0.07402785 0.13080026 0.07847351
v -0.07912978 0.12935370 0.07307702
v -0.08424483 0.13224463 0.08385878
v -0.08424319 0.13408804 0.09086539
v -0.07658538 0.13224463 0.08385878
v -0.07658374 0.13408804 0.09086539
v -0.06892155 0.12783330 0.06752655
v -0.06636813 0.13080026 0.07847351
v -0.07147033 0.12935370 0.07307702
v -0.06126210 0.12783330 0.06752655
v -0.05870867 0.13080026 0.07847351
v -0.06381060 0.12935370 0.07307702
v -0.06892593 0.13224463 0.08385878
v -0.06892428 0.13408804 0.09086539
v -0.06126620 0.13224463 0.08385878
v -0.06126483 0.13408804 0.09086539
v -0.08424128 0.13600995 0.09804648
v -0.08679033 0.13752953 0.10359258
v -0.07658182 0.13600995 0.09804648
v -0.07913087 0.13752953 0.10359258
v -0.06892237 0.13600995 0.09804648
v -0.07147142 0.13752953 0.10359258
v -0.06126264 0.13600995 0.09804648
v -0.06381169 0.13752953 0.10359258
v -0.05360975 0.12599344 0.06051229
v -0.05106070 0.12455290 0.05514287
v -0.04595030 0.12599344 0.06051229
v -0.04340125 0.12455290 0.05514287
v -0.03829084 0.12599344 0.06051229
v -0.03574180 0.12455290 0.05514287
v -0.03063139 0.12599344 0.06051229
v -0.02808234 0.12455290 0.05514287
v -0.02297166 0.12599344 0.06051229
v -0.02042261 0.12455290 0.05514287
v -0.01531221 0.12599344 0.06051229
v -0.01276316 0.12455290 0.05514287
v -0.00765275 0.12599344 0.06051229
v -0.00510370 0.12455290 0.05514287
v 0.00000670 0.12599344 0.06051229
v 0.00255575 0.12455290 0.05514287
v -0.05360237 0.12783330 0.06752655
v -0.05104922 0.13080026 0.07847351
v -0.05615114 0.12935370 0.07307702
v -0.04594291 0.12783330 0.06752655
v -0.04338976 0.13080026 0.07847351
v -0.04849169 0.12935370 0.07307702
v -0.05360674 0.13224463 0.08385878
v -0.05360510 0.13408804 0.09086539
v -0.04594729 0.13224463 0.08385878
v -0.04594565 0.13408804 0.09086539
v -0.03828346 0.12783330 0.06752655
v -0.03573031 0.13080026 0.07847351
v -0.04083223 0.12935370 0.07307702
v -0.03062401 0.12783330 0.06752655
v -0.02807058 0.13080026 0.07847351
v -0.03317251 0.12935370 0.07307702
v -0.03828784 0.13224463 0.08385878
v -0.03828619 0.13408804 0.09086539
v -0.03062838 0.13224463 0.08385878
v -0.03062674 0.13408804 0.09086539
v -0.05360319 0.13600995 0.09804648
v -0.05615224 0.13752953 0.10359258
v -0.04594373 0.13600995 0.09804648
v -0.04849278 0.13752953 0.10359258
v -0.03828428 0.13600995 0.09804648
v -0.04083333 0.13752953 0.10359258
v -0.03062483 0.13600995 0.09804648
v -0.03317387 0.13752953 0.10359258
v -0.02296455 0.12783330 0.06752655
v -0.02041113 0.13080026 0.07847351
v -0.02551305 0.12935370 0.07307702
v -0.01530482 0.12783330 0.06752655
v -0.01275167 0.13080026 0.07847351
v -0.01785360 0.12935370 0.07307702
v -0.02296865 0.13224463 0.08385878
v -0.02296729 0.13408804 0.09086539
v -0.01530920 0.13224463 0.08385878
v -0.01530756 0.13408804 0.09086539
v -0.00764537 0.12783330 0.06752655
v -0.00509222 0.13080026 0.07847351
v -0.01019414 0.12935370 0.07307702
v 0.00001409 0.12783330 0.06752655
v 0.00256724 0.13080026 0.07847351
v -0.00253469 0.12935370 0.07307702
v -0.00764974 0.13224463 0.08385878
v -0.00764810 0.13408804 0.09086539
v 0.00000971 0.13224463 0.08385878
v 0.00001135 0.13408804 0.09086539
v -0.02296510 0.13600995 0.09804648
v -0.02551415 0.13752953 0.10359258
v -0.01530564 0.13600995 0.09804648
v -0.01785469 0.13752953 0.10359258
v -0.00764619 0.13600995 0.09804648
v -0.01019524 0.13752953 0.10359258
v 0.00001326 0.13600995 0.09804648
v -0.00253578 0.13752953 0.10359258
v -0.11488320 0.11166024 0.00645604
v -0.11487828 0.11349161 0.01365109
v -0.10722374 0.11166024 0.00645604
v -0.10721882 0.11349161 0.01365109
v -0.11232184 0.11637188 0.02462950
v -0.11743225 0.11492313 0.01921961
v -0.11487937 0.11781515 0.03000985
v -0.10466211 0.11637188 0.02462950
v -0.10977279 0.11492313 0.01921961
v -0.10721992 0.11781515 0.03000985
v -0.09956429 0.11166024 0.00645604
v -0.09955937 0.11349161 0.01365109
v -0.09190484 0.11166024 0.00645604
v -0.09189964 0.11349161 0.01365109
v -0.09700266 0.11637188 0.02462950
v -0.10211307 0.11492313 0.01921961
v -0.09956019 0.11781515 0.03000985
v -0.08934321 0.11637188 0.02462950
v -0.09445361 0.11492313 0.01921961
v -0.09190073 0.11781515 0.03000985
v -0.11487800 0.11965829 0.03701454
v -0.11488457 0.12158020 0.04419290
v -0.10721827 0.11965829 0.03701454
v -0.10722484 0.12158020 0.04419290
v -0.11743881 0.12310634 0.04974666
v -0.10977936 0.12310634 0.04974666
v -0.09955882 0.11965829 0.03701454
v -0.09956538 0.12158020 0.04419290
v -0.09189937 0.11965829 0.03701454
v -0.09190593 0.12158020 0.04419290
v -0.10211990 0.12310634 0.04974666
v -0.09446018 0.12310634 0.04974666
v -0.08424511 0.11166024 0.00645604
v -0.08424018 0.11349161 0.01365109
v -0.07658565 0.11166024 0.00645604
v -0.07658073 0.11349161 0.01365109
v -0.08168375 0.11637188 0.02462950
v -0.08679416 0.11492313 0.01921961
v -0.08424128 0.11781515 0.03000985
v -0.07402430 0.11637188 0.02462950
v -0.07913470 0.11492313 0.01921961
v -0.07658182 0.11781515 0.03000985
v -0.06892620 0.11166024 0.00645604
v -0.06892128 0.11349161 0.01365109
v -0.06126675 0.11166024 0.00645604
v -0.06126182 0.11349161 0.01365109
v -0.06636457 0.11637188 0.02462950
v -0.07147525 0.11492313 0.01921961
v -0.06892237 0.11781515 0.03000985
v -0.05870512 0.11637188 0.02462950
v -0.06381552 0.11492313 0.01921961
v -0.06126264 0.11781515 0.03000985
v -0.08423991 0.11965829 0.03701454
v -0.08424648 0.12158020 0.04419290
v -0.07658046 0.11965829 0.03701454
v -0.07658702 0.12158020 0.04419290
v -0.08680072 0.12310634 0.04974666
v -0.07914127 0.12310634 0.04974666
v -0.06892073 0.11965829 0.03701454
v -0.06892729 0.12158020 0.04419290
v -0.06126128 0.11965829 0.03701454
v -0.06126784 0.12158020 0.04419290
v -0.07148181 0.12310634 0.04974666
v -0.06382236 0.12310634 0.04974666
v -0.05360729 0.11166024 0.00645604
v -0.05360209 0.11349161 0.01365109
v -0.04594838 0.11166051 0.00645768
v -0.04594264 0.11349161 0.01365109
v -0.05104566 0.11637188 0.02462950
v -0.05615607 0.11492313 0.01921961
v -0.05360319 0.11781515 0.03000985
v -0.04338621 0.11637188 0.02462950
v -0.04849661 0.11492313 0.01921961
v -0.04594373 0.11781515 0.03000985
v -0.03828975 0.11166106 0.00646178
v -0.03828319 0.11349161 0.01365109
v -0.03062948 0.11157354 0.00648859
v -0.03062510 0.11349216 0.01365410
v -0.03572675 0.11637188 0.02462950
v -0.04083716 0.11492313 0.01921961
v -0.03828428 0.11781515 0.03000985
v -0.02806702 0.11637188 0.02462950
v -0.03317770 0.11492313 0.01921961
v -0.03062455 0.11781515 0.03000985
v -0.05360182 0.11965829 0.03701454
v -0.05360838 0.12158020 0.04419290
v -0.04594237 0.11965829 0.03701454
v -0.04594893 0.12158020 0.04419290
v -0.05616263 0.12310634 0.04974666
v -0.04850318 0.12310634 0.04974666
v -0.03828291 0.11965829 0.03701454
v -0.03828948 0.12158020 0.04419290
v -0.03062318 0.11965829 0.03701454
v -0.03062975 0.12158020 0.04419290
v -0.04084372 0.12310634 0.04974666
v -0.03318427 0.12310634 0.04974666
v -0.02296756 0.11152978 0.00650254
v -0.02296482 0.11344840 0.01366914
v -0.01530510 0.11148574 0.00651512
v -0.01530400 0.11340464 0.01368227
v -0.02040757 0.11637188 0.02462950
v -0.02551880 0.11492313 0.01922098
v -0.02296510 0.11781515 0.03000985
v -0.01274812 0.11637188 0.02462950
v -0.01785934 0.11492340 0.01922344
v -0.01530564 0.11781515 0.03000985
v -0.00764400 0.11148574 0.00651430
v -0.00764209 0.11340464 0.01368227
v 0.00001956 0.11153060 0.00650664
v 0.00002229 0.11344922 0.01367324
v -0.00508866 0.11637188 0.02462950
v -0.01019907 0.11492368 0.01922426
v -0.00764619 0.11781515 0.03000985
v 0.00257161 0.11637133 0.02462813
v -0.00253879 0.11492340 0.01922262
v 0.00001326 0.11781515 0.03000985
v -0.02296373 0.11965829 0.03701454
v -0.02297029 0.12158020 0.04419290
v -0.01530428 0.11965829 0.03701454
v -0.01531084 0.12158020 0.04419290
v -0.02552481 0.12310634 0.04974666
v -0.01786509 0.12310634 0.04974666
v -0.00764482 0.11965829 0.03701454
v -0.00765139 0.12158020 0.04419290
v 0.00001463 0.11965829 0.03701454
v 0.00000807 0.12158020 0.04419290
v -0.01020563 0.12310634 0.04974666
v -0.00254618 0.12310634 0.04974666
v 0.00767053 0.08888208 -0.07784555
v 0.01532999 0.08888208 -0.07784555
v 0.00767245 0.09080399 -0.07066390
v 0.01022532 0.09377040 -0.05972104
v 0.00512340 0.09232384 -0.06511781
v 0.01533190 0.09080399 -0.07066390
v 0.01788478 0.09377040 -0.05972104
v 0.01278285 0.09232384 -0.06511781
v 0.02298944 0.08888208 -0.07784555
v 0.03064889 0.08888208 -0.07784555
v 0.02299135 0.09080399 -0.07066390
v 0.02554451 0.09377040 -0.05972104
v 0.02044231 0.09232384 -0.06511781
v 0.03065081 0.09080399 -0.07066390
v 0.03320396 0.09377040 -0.05972104
v 0.02810203 0.09232384 -0.06511781
v 0.03830862 0.08888208 -0.07784555
v 0.04596808 0.08888208 -0.07784555
v 0.03831054 0.09080399 -0.07066390
v 0.04086341 0.09377040 -0.05972104
v 0.03576149 0.09232384 -0.06511781
v 0.04596999 0.09080399 -0.07066390
v 0.04852287 0.09377040 -0.05972104
v 0.04342094 0.09232384 -0.06511781
v 0.05362753 0.08888208 -0.07784555
v 0.06128698 0.08888208 -0.07784555
v 0.05362944 0.09080399 -0.07066390
v 0.05618232 0.09377040 -0.05972104
v 0.05108040 0.09232384 -0.06511781
v 0.06128890 0.09080399 -0.07066390
v 0.06384205 0.09377040 -0.05972104
v 0.05873985 0.09232384 -0.06511781
v 0.00767627 0.09521231 -0.05434589
v 0.00766971 0.09706174 -0.04731111
v 0.01533600 0.09521231 -0.05434589
v 0.01532916 0.09706174 -0.04731111
v 0.01022286 0.10002842 -0.03636607
v 0.00512094 0.09858187 -0.04176256
v 0.00767381 0.10146951 -0.03099364
v 0.01788232 0.10002842 -0.03636607
v 0.01278039 0.09858187 -0.04176256
v 0.01533327 0.10146951 -0.03099364
v 0.02299546 0.09521231 -0.05434589
v 0.02298862 0.09706174 -0.04731111
v 0.03065491 0.09521231 -0.05434589
v 0.03064835 0.09706174 -0.04731111
v 0.02554177 0.10002842 -0.03636607
v 0.02043984 0.09858187 -0.04176256
v 0.02299272 0.10146951 -0.03099364
v 0.03320122 0.10002842 -0.03636607
v 0.02809930 0.09858187 -0.04176256
v 0.03065245 0.10146951 -0.03099364
v 0.00766698 0.10331183 -0.02399415
v 0.00766916 0.10523264 -0.01681716
v 0.01532670 0.10331183 -0.02399415
v 0.01532862 0.10523264 -0.01681716
v 0.00766834 0.10964944 -0.00048191
v 0.01021739 0.10820644 -0.00586172
v 0.01532780 0.10964944 -0.00048191
v 0.01787685 0.10820644 -0.00586172
v 0.00510699 0.10675852 -0.01126669
v 0.01276644 0.10675852 -0.01126669
v 0.02298616 0.10331183 -0.02399415
v 0.02298807 0.10523264 -0.01681716
v 0.03064561 0.10331183 -0.02399415
v 0.03064753 0.10523264 -0.01681716
v 0.02298725 0.10964944 -0.00048191
v 0.02553630 0.10820644 -0.00586172
v 0.03064698 0.10964944 -0.00048191
v 0.03319603 0.10820644 -0.00586172
v 0.02042590 0.10675852 -0.01126669
v 0.02808562 0.10675852 -0.01126669
v 0.03831437 0.09521231 -0.05434589
v 0.03830780 0.09706174 -0.04731111
v 0.04597382 0.09521231 -0.05434589
v 0.04596726 0.09706174 -0.04731111
v 0.04086095 0.10002842 -0.03636607
v 0.03575875 0.09858187 -0.04176256
v 0.03831190 0.10146951 -0.03099364
v 0.04852041 0.10002842 -0.03636607
v 0.04341848 0.09858187 -0.04176256
v 0.04597136 0.10146951 -0.03099364
v 0.05363355 0.09521231 -0.05434589
v 0.05362671 0.09706174 -0.04731111
v 0.06129300 0.09521231 -0.05434589
v 0.06128644 0.09706174 -0.04731111
v 0.05617986 0.10002842 -0.03636607
v 0.05107793 0.09858187 -0.04176256
v 0.05363081 0.10146951 -0.03099364
v 0.06383932 0.10002842 -0.03636607
v 0.05873739 0.09858187 -0.04176256
v 0.06129027 0.10146951 -0.03099364
v 0.03830507 0.10331183 -0.02399415
v 0.03830698 0.10523264 -0.01681716
v 0.04596479 0.10331183 -0.02399415
v 0.04596671 0.10523264 -0.01681716
v 0.03830643 0.10964944 -0.00048191
v 0.04085548 0.10820644 -0.00586172
v 0.04596589 0.10964944 -0.00048191
v 0.04851494 0.10820644 -0.00586172
v 0.03574508 0.10675852 -0.01126669
v 0.04340453 0.10675852 -0.01126669
v 0.05362425 0.10331183 -0.02399415
v 0.05362616 0.10523264 -0.01681716
v 0.06128370 0.10331183 -0.02399415
v 0.06128562 0.10523264 -0.01681716
v 0.05362534 0.10964944 -0.00048191
v 0.05617439 0.10820644 -0.00586172
v 0.06128480 0.10964944 -0.00048191
v 0.06383385 0.10820644 -0.00586172
v 0.05106399 0.10675852 -0.01126669
v 0.05872344 0.10675852 -0.01126669
v 0.06894644 0.08888208 -0.07784555
v 0.07660617 0.08888208 -0.07784555
v 0.06894863 0.09080399 -0.07066390
v 0.07150150 0.09377040 -0.05972104
v 0.06639958 0.09232384 -0.06511781
v 0.07660808 0.09080399 -0.07066390
v 0.07916096 0.09377040 -0.05972104
v 0.07405903 0.09232384 -0.06511781
v 0.08426562 0.08888208 -0.07784555
v 0.09192507 0.08888208 -0.07784555
v 0.08426754 0.09080399 -0.07066390
v 0.08682041 0.09377040 -0.05972104
v 0.08171849 0.09232384 -0.06511781
v 0.09192699 0.09080399 -0.07066390
v 0.09447987 0.09377040 -0.05972104
v 0.08937794 0.09232384 -0.06511781
v 0.09958453 0.08888208 -0.07784555
v 0.10724398 0.08888208 -0.07784555
v 0.09958644 0.09080399 -0.07066390
v 0.10213960 0.09377040 -0.05972104
v 0.09703767 0.09232384 -0.06511781
v 0.10724617 0.09080399 -0.07066390
v 0.10979905 0.09377040 -0.05972104
v 0.10469712 0.09232384 -0.06511781
v 0.11490371 0.08888208 -0.07784555
v 0.12256317 0.08888208 -0.07784555
v 0.11490563 0.09080399 -0.07066390
v 0.11745850 0.09377040 -0.05972104
v 0.11235658 0.09232384 -0.06511781
v 0.12256508 0.09080399 -0.07066390
v 0.12511796 0.09377040 -0.05972104
v 0.12001603 0.09232384 -0.06511781
v 0.06895246 0.09521231 -0.05434589
v 0.06894589 0.09706174 -0.04731111
v 0.07661191 0.09521231 -0.05434589
v 0.07660535 0.09706174 -0.04731111
v 0.07149877 0.10002842 -0.03636607
v 0.06639684 0.09858187 -0.04176256
v 0.06894999 0.10146951 -0.03099364
v 0.07915850 0.10002842 -0.03636607
v 0.07405657 0.09858187 -0.04176256
v 0.07660945 0.10146951 -0.03099364
v 0.08427136 0.09521231 -0.05434589
v 0.08426480 0.09706174 -0.04731111
v 0.09193109 0.09521231 -0.05434589
v 0.09192425 0.09706174 -0.04731111
v 0.08681795 0.10002842 -0.03636607
v 0.08171602 0.09858187 -0.04176256
v 0.08426890 0.10146951 -0.03099364
v 0.09447741 0.10002842 -0.03636607
v 0.08937548 0.09858187 -0.04176256
v 0.09192836 0.10146951 -0.03099364
v 0.06894316 0.10331183 -0.02399415
v 0.06894507 0.10523264 -0.01681716
v 0.07660261 0.10331183 -0.02399415
v 0.07660453 0.10523264 -0.01681716
v 0.06894452 0.10964944 -0.00048191
v 0.07149357 0.10820644 -0.00586172
v 0.07660398 0.10964944 -0.00048191
v 0.07915303 0.10820644 -0.00586172
v 0.06638317 0.10675852 -0.01126669
v 0.07404262 0.10675852 -0.01126669
v 0.08426234 0.10331183 -0.02399415
v 0.08426425 0.10523264 -0.01681716
v 0.09192179 0.10331183 -0.02399415
v 0.09192371 0.10523264 -0.01681716
v 0.08426343 0.10964944 -0.00048191
v 0.08681248 0.10820644 -0.00586172
v 0.09192289 0.10964944 -0.00048191
v 0.09447194 0.10820644 -0.00586172
v 0.08170208 0.10675852 -0.01126669
v 0.08936153 0.10675852 -0.01126669
v 0.09959055 0.09521231 -0.05434589
v 0.09958398 0.09706174 -0.04731111
v 0.10725000 0.09521231 -0.05434589
v 0.10724344 0.09706174 -0.04731111
v 0.10213686 0.10002842 -0.03636607
v 0.09703493 0.09858187 -0.04176256
v 0.09958781 0.10146951 -0.03099364
v 0.10979631 0.10002842 -0.03636607
v 0.10469439 0.09858187 -0.04176256
v 0.10724754 0.10146951 -0.03099364
v 0.11490945 0.09521231 -0.05434589
v 0.11490289 0.09706174 -0.04731111
v 0.12256891 0.09521231 -0.05434589
v 0.12256235 0.09706174 -0.04731111
v 0.11745604 0.10002842 -0.03636607
v 0.11235412 0.09858187 -0.04176256
v 0.11490699 0.10146951 -0.03099364
v 0.12511550 0.10002842 -0.03636607
v 0.12001357 0.09858187 -0.04176256
v 0.12256645 0.10146951 -0.03099364
v 0.09958125 0.10331183 -0.02399415
v 0.09958316 0.10523264 -0.01681716
v 0.10724070 0.10331183 -0.02399415
v 0.10724262 0.10523264 -0.01681716
v 0.09958261 0.10964944 -0.00048191
v 0.10213139 0.10820644 -0.00586172
v 0.10724207 0.10964944 -0.00048191
v 0.10979112 0.10820644 -0.00586172
v 0.09702098 0.10675852 -0.01126669
v 0.10468071 0.10675852 -0.01126669
v 0.11490016 0.10331183 -0.02399415
v 0.11490207 0.10523264 -0.01681716
v 0.12255988 0.10331183 -0.02399415
v 0.12256180 0.10523264 -0.01681716
v 0.11490152 0.10964944 -0.00048191
v 0.11745057 0.10820644 -0.00586172
v 0.12256098 0.10964944 -0.00048191
v 0.12511003 0.10820644 -0.00586172
v 0.11234017 0.10675852 -0.01126669
v 0.11999962 0.10675852 -0.01126669
v 0.13022262 0.08888208 -0.07784555
v 0.13788207 0.08888208 -0.07784555
v 0.13022453 0.09080399 -0.07066390
v 0.13277741 0.09377040 -0.05972104
v 0.12767549 0.09232384 -0.06511781
v 0.13788399 0.09080399 -0.07066390
v 0.14043714 0.09377040 -0.05972104
v 0.13533521 0.09232384 -0.06511781
v 0.14554180 0.08888208 -0.07784555
v 0.14554372 0.09080399 -0.07066390
v 0.14809659 0.09377040 -0.05972104
v 0.14299467 0.09232384 -0.06511781
v 0.15320317 0.09080399 -0.07066390
v 0.15065412 0.09232384 -0.06511781
v 0.13022864 0.09521231 -0.05434589
v 0.13022180 0.09706174 -0.04731111
v 0.13788809 0.09521231 -0.05434589
v 0.13788153 0.09706174 -0.04731111
v 0.13277495 0.10002842 -0.03636607
v 0.12767302 0.09858187 -0.04176256
v 0.13022590 0.10146951 -0.03099364
v 0.14043440 0.10002842 -0.03636607
v 0.13533248 0.09858187 -0.04176256
v 0.13788536 0.10146951 -0.03099364
v 0.14554755 0.09521231 -0.05434589
v 0.14554098 0.09706174 -0.04731111
v 0.15320700 0.09521231 -0.05434589
v 0.15320044 0.09706174 -0.04731111
v 0.14809386 0.10002842 -0.03636607
v 0.14299193 0.09858187 -0.04176256
v 0.14554508 0.10146951 -0.03099364
v 0.15065166 0.09858187 -0.04176256
v 0.13021934 0.10331183 -0.02399415
v 0.13022125 0.10523264 -0.01681716
v 0.13787879 0.10331183 -0.02399415
v 0.13788071 0.10523264 -0.01681716
v 0.13022043 0.10964944 -0.00048191
v 0.13276948 0.10820644 -0.00586172
v 0.13788016 0.10964944 -0.00048191
v 0.14042893 0.10820644 -0.00586172
v 0.12765908 0.10675852 -0.01126669
v 0.13531853 0.10675852 -0.01126669
v 0.14553825 0.10331183 -0.02399415
v 0.14554016 0.10523264 -0.01681716
v 0.15319989 0.10523264 -0.01681716
v 0.14553961 0.10964944 -0.00048191
v 0.14808866 0.10820644 -0.00586172
v 0.15319907 0.10964944 -0.00048191
v 0.15574812 0.10820644 -0.00586172
v 0.14297826 0.10675852 -0.01126669
v 0.15063771 0.10675852 -0.01126669
v 0.15829552 0.10675852 -0.01126669
v 0.00766616 0.12599344 0.06051229
v 0.01021520 0.12455290 0.05514287
v 0.01532588 0.12599344 0.06051229
v 0.01787466 0.12455290 0.05514287
v 0.02298534 0.12599344 0.06051229
v 0.02553439 0.12455290 0.05514287
v 0.03064479 0.12599344 0.06051229
v 0.03319384 0.12455290 0.05514287
v 0.03830425 0.12599344 0.06051229
v 0.04085329 0.12455290 0.05514287
v 0.04596370 0.12599344 0.06051229
v 0.04851357 0.12455263 0.05514123
v 0.05362343 0.12599344 0.06051229
v 0.05617740 0.12459393 0.05511853
v 0.06128370 0.12599317 0.06051065
v 0.06384041 0.12468035 0.05508681
v 0.00767354 0.12783330 0.06752655
v 0.01022696 0.13080026 0.07847351
v 0.00512476 0.12935370 0.07307702
v 0.01533299 0.12783330 0.06752655
v 0.01788642 0.13080026 0.07847351
v 0.01278449 0.12935370 0.07307702
v 0.00766916 0.13224463 0.08385878
v 0.00767080 0.13408804 0.09086539
v 0.01532889 0.13224463 0.08385878
v 0.01533026 0.13408804 0.09086539
v 0.02299272 0.12783330 0.06752655
v 0.02554587 0.13080026 0.07847351
v 0.02044395 0.12935370 0.07307702
v 0.03065218 0.12783330 0.06752655
v 0.03320533 0.13080026 0.07847351
v 0.02810340 0.12935370 0.07307702
v 0.02298835 0.13224463 0.08385878
v 0.02298999 0.13408804 0.09086539
v 0.03064780 0.13224463 0.08385878
v 0.03064944 0.13408804 0.09086539
v 0.00767272 0.13600995 0.09804648
v 0.00512394 0.13752953 0.10359258
v 0.01533245 0.13600995 0.09804648
v 0.01278340 0.13752953 0.10359258
v 0.02299190 0.13600995 0.09804648
v 0.02044285 0.13752953 0.10359258
v 0.03065136 0.13600995 0.09804648
v 0.02810231 0.13752953 0.10359258
v 0.03831163 0.12783330 0.06752655
v 0.04086506 0.13080026 0.07847351
v 0.03576285 0.12935370 0.07307702
v 0.04597108 0.12783330 0.06752655
v 0.04852451 0.13080026 0.07847351
v 0.04342258 0.12935370 0.07307702
v 0.03830725 0.13224463 0.08385878
v 0.03830890 0.13408804 0.09086539
v 0.04596671 0.13224463 0.08385878
v 0.04596835 0.13408804 0.09086539
v 0.05363054 0.12783330 0.06752655
v 0.05618396 0.13080026 0.07847351
v 0.05108204 0.12935370 0.07307702
v 0.06129027 0.12783330 0.06752655
v 0.06384342 0.13080026 0.07847351
v 0.05874149 0.12935370 0.07307702
v 0.05362644 0.13224463 0.08385878
v 0.05362808 0.13408804 0.09086539
v 0.06128589 0.13224463 0.08385878
v 0.06128753 0.13408804 0.09086539
v 0.03831081 0.13600995 0.09804648
v 0.03576176 0.13752953 0.10359258
v 0.04597026 0.13600995 0.09804648
v 0.04342149 0.13752953 0.10359258
v 0.05362999 0.13600995 0.09804648
v 0.05108094 0.13752953 0.10359258
v 0.06128945 0.13600995 0.09804648
v 0.05874040 0.13752953 0.10359258
v 0.06894726 0.12608151 0.06048931
v 0.07150123 0.12472575 0.05508216
v 0.07660480 0.12616930 0.06046278
v 0.07916205 0.12481492 0.05506575
v 0.08426425 0.12625792 0.06044282
v 0.08681877 0.12481519 0.05506657
v 0.09192070 0.12625792 0.06044446
v 0.09447823 0.12481519 0.05506657
v 0.09958015 0.12625792 0.06044446
v 0.10213768 0.12481519 0.05506657
v 0.10723961 0.12625792 0.06044446
v 0.10979713 0.12481519 0.05506657
v 0.11489934 0.12625792 0.06044446
v 0.11745686 0.12481519 0.05506657
v 0.12255879 0.12625792 0.06044446
v 0.12511632 0.12481519 0.05506657
v 0.06895109 0.12783275 0.06752327
v 0.07150287 0.13080026 0.07847351
v 0.06640095 0.12935370 0.07307702
v 0.07661492 0.12792082 0.06749947
v 0.07916315 0.13079998 0.07847214
v 0.07406204 0.12935315 0.07307401
v 0.06894534 0.13224463 0.08385878
v 0.06894699 0.13408804 0.09086539
v 0.07660480 0.13224463 0.08385878
v 0.07660644 0.13408804 0.09086539
v 0.08427574 0.12796485 0.06748935
v 0.08682260 0.13079944 0.07846968
v 0.08172067 0.12939664 0.07305924
v 0.09193273 0.12805374 0.06746966
v 0.09448288 0.13088833 0.07844835
v 0.08937958 0.12948526 0.07303873
v 0.08426453 0.13224463 0.08385878
v 0.08426589 0.13408804 0.09086539
v 0.09192480 0.13224435 0.08385714
v 0.09192562 0.13408804 0.09086539
v 0.06894890 0.13600995 0.09804648
v 0.06639985 0.13752953 0.10359258
v 0.07660835 0.13600995 0.09804648
v 0.07405931 0.13752953 0.10359258
v 0.08426781 0.13600995 0.09804648
v 0.08171903 0.13752953 0.10359258
v 0.09192754 0.13600995 0.09804648
v 0.08937849 0.13752953 0.10359258
v 0.09958918 0.12809914 0.06746392
v 0.10214370 0.13097776 0.07843221
v 0.09703439 0.12952929 0.07302779
v 0.10724645 0.12809914 0.06746474
v 0.10980315 0.13106665 0.07841389
v 0.10469329 0.12961845 0.07300864
v 0.09958836 0.13233297 0.08383581
v 0.09958644 0.13408777 0.09086211
v 0.10724590 0.13237646 0.08382077
v 0.10724945 0.13413207 0.09085171
v 0.11490617 0.12809914 0.06746474
v 0.11745960 0.13106665 0.07841471
v 0.11234919 0.12961845 0.07300946
v 0.12256563 0.12809914 0.06746474
v 0.12511933 0.13106665 0.07841471
v 0.12000892 0.12961845 0.07300946
v 0.11490672 0.13246507 0.08380026
v 0.11491246 0.13422014 0.09082956
v 0.12256317 0.13250911 0.08379014
v 0.12256809 0.13426390 0.09081643
v 0.09958699 0.13600995 0.09804648
v 0.09703794 0.13752953 0.10359258
v 0.10724727 0.13600967 0.09804512
v 0.10469740 0.13752953 0.10359258
v 0.11490754 0.13600912 0.09804129
v 0.11235685 0.13752953 0.10359258
v 0.12256617 0.13609665 0.09801448
v 0.12001795 0.13752898 0.10358957
v 0.00768174 0.11157545 0.00649980
v 0.00768038 0.11349298 0.01366011
v 0.01533983 0.11157545 0.00650062
v 0.01534257 0.11358214 0.01364316
v 0.01023107 0.11641509 0.02461391
v 0.00512422 0.11501202 0.01920265
v 0.00767299 0.11781515 0.03000985
v 0.01788997 0.11650343 0.02459121
v 0.01278641 0.11505742 0.01919746
v 0.01533327 0.11781488 0.03000821
v 0.02299929 0.11157545 0.00650062
v 0.02299901 0.11358351 0.01364917
v 0.03065901 0.11157545 0.00650062
v 0.03065792 0.11358406 0.01365163
v 0.02554642 0.11654829 0.02458246
v 0.02044285 0.11514576 0.01917612
v 0.02299272 0.11790267 0.02998223
v 0.03320314 0.11663690 0.02456113
v 0.02810039 0.11519062 0.01916764
v 0.03065436 0.11799101 0.02995980
v 0.00767436 0.11965829 0.03701454
v 0.00766780 0.12158020 0.04419290
v 0.01533381 0.11965829 0.03701454
v 0.01532725 0.12158020 0.04419290
v 0.00511328 0.12310634 0.04974666
v 0.01277273 0.12310634 0.04974666
v 0.02299491 0.11965774 0.03701126
v 0.02298670 0.12158020 0.04419263
v 0.03065847 0.11974608 0.03698719
v 0.03064780 0.12157965 0.04418962
v 0.02043246 0.12310634 0.04974666
v 0.02809191 0.12310634 0.04974666
v 0.03831847 0.11157545 0.00650062
v 0.03831737 0.11358406 0.01365163
v 0.04597792 0.11157545 0.00650062
v 0.04597683 0.11358406 0.01365163
v 0.04085959 0.11663690 0.02456195
v 0.03575766 0.11519116 0.01916983
v 0.03831382 0.11807963 0.02993956
v 0.04851931 0.11663690 0.02456195
v 0.04341739 0.11519116 0.01916983
v 0.04597026 0.11807963 0.02994120
v 0.05363738 0.11157545 0.00650062
v 0.05363628 0.11358406 0.01365163
v 0.06129683 0.11157545 0.00650062
v 0.06129574 0.11358406 0.01365163
v 0.05617877 0.11663690 0.02456195
v 0.05107684 0.11519116 0.01916983
v 0.05362972 0.11807963 0.02994120
v 0.06383822 0.11663690 0.02456195
v 0.05873629 0.11519116 0.01916983
v 0.06128917 0.11807963 0.02994120
v 0.03831491 0.11978957 0.03697242
v 0.03831081 0.12162396 0.04417896
v 0.04597573 0.11987819 0.03695246
v 0.04597382 0.12171202 0.04415680
v 0.03575219 0.12310607 0.04974502
v 0.04341246 0.12310525 0.04974119
v 0.05363218 0.11992222 0.03694206
v 0.05363382 0.12175360 0.04413465
v 0.06129027 0.11992249 0.03694288
v 0.06129601 0.12184002 0.04410456
v 0.05107465 0.12319113 0.04970755
v 0.05873274 0.12323544 0.04969770
v 0.06895656 0.11157545 0.00650062
v 0.06895546 0.11358406 0.01365163
v 0.07661601 0.11157545 0.00650062
v 0.07661492 0.11358406 0.01365163
v 0.07149768 0.11663690 0.02456195
v 0.06639575 0.11519116 0.01916983
v 0.06894863 0.11807963 0.02994120
v 0.07915713 0.11663690 0.02456195
v 0.07405520 0.11519116 0.01916983
v 0.07660835 0.11807963 0.02994120
v 0.08427547 0.11157545 0.00650062
v 0.08427437 0.11358406 0.01365163
v 0.09193492 0.11157545 0.00650062
v 0.09193383 0.11358406 0.01365163
v 0.08681686 0.11663690 0.02456195
v 0.08171493 0.11519116 0.01916983
v 0.08426781 0.11807963 0.02994120
v 0.09447631 0.11663690 0.02456195
v 0.08937439 0.11519116 0.01916983
v 0.09192726 0.11807963 0.02994120
v 0.06894972 0.11992249 0.03694288
v 0.06895246 0.12184139 0.04411058
v 0.07660918 0.11992249 0.03694288
v 0.07661109 0.12184166 0.04411304
v 0.06639329 0.12332186 0.04966789
v 0.07405083 0.12336644 0.04965886
v 0.08426863 0.11992249 0.03694288
v 0.08427082 0.12184166 0.04411304
v 0.09192836 0.11992249 0.03694288
v 0.09193027 0.12184166 0.04411304
v 0.08170837 0.12336699 0.04966133
v 0.08936782 0.12336699 0.04966133
v 0.09959438 0.11157545 0.00650062
v 0.09959328 0.11358406 0.01365163
v 0.10725410 0.11157545 0.00650062
v 0.10725301 0.11358406 0.01365163
v 0.10213577 0.11663690 0.02456195
v 0.09703384 0.11519116 0.01916983
v 0.09958672 0.11807963 0.02994120
v 0.10979522 0.11663690 0.02456195
v 0.10469329 0.11519116 0.01916983
v 0.10724617 0.11807963 0.02994120
v 0.11491356 0.11157545 0.00650062
v 0.11491246 0.11358406 0.01365163
v 0.12257301 0.11157545 0.00650062
v 0.12257192 0.11358406 0.01365163
v 0.11745467 0.11663690 0.02456195
v 0.11235275 0.11519116 0.01916983
v 0.11490590 0.11807963 0.02994120
v 0.12511440 0.11663690 0.02456195
v 0.12001248 0.11519116 0.01916983
v 0.12256535 0.11807963 0.02994120
v 0.09958781 0.11992249 0.03694288
v 0.09958973 0.12184166 0.04411304
v 0.10724727 0.11992249 0.03694288
v 0.10724918 0.12184166 0.04411304
v 0.09702728 0.12336699 0.04966133
v 0.10468673 0.12336699 0.04966133
v 0.11490672 0.11992249 0.03694288
v 0.11490863 0.12184166 0.04411304
v 0.12256617 0.11992249 0.03694288
v 0.12256836 0.12184166 0.04411304
v 0.11234618 0.12336699 0.04966133
v 0.12000591 0.12336699 0.04966133
v 0.13021824 0.12625792 0.06044446
v 0.13277577 0.12481519 0.05506657
v 0.13787770 0.12625792 0.06044446
v 0.14043523 0.12481519 0.05506657
v 0.13022508 0.12809914 0.06746474
v 0.13277878 0.13106665 0.07841471
v 0.12766837 0.12961845 0.07300946
v 0.13788454 0.12809914 0.06746474
v 0.13532783 0.12961845 0.07300946
v 0.13022125 0.13250911 0.08379096
v 0.13022535 0.13435197 0.09079264
v 0.13788071 0.13250911 0.08379096
v 0.13788180 0.13435224 0.09079428
v 0.13022344 0.13613986 0.09800054
v 0.12767685 0.13757247 0.10357453
v 0.13788508 0.13622683 0.09797182
v 0.13533986 0.13765917 0.10354526
v 0.14299467 0.13770320 0.10353432
v 0.13023247 0.11157545 0.00650062
v 0.13023137 0.11358406 0.01365163
v 0.13789192 0.11157545 0.00650062
v 0.13789083 0.11358406 0.01365163
v 0.13277386 0.11663690 0.02456195
v 0.12767193 0.11519116 0.01916983
v 0.13022481 0.11807963 0.02994120
v 0.14043331 0.11663690 0.02456195
v 0.13533138 0.11519116 0.01916983
v 0.13788426 0.11807963 0.02994120
v 0.14555165 0.11157545 0.00650062
v 0.14555055 0.11358406 0.01365163
v 0.15321110 0.11157545 0.00650062
v 0.15321001 0.11358406 0.01365163
v 0.14809277 0.11663690 0.02456195
v 0.14299084 0.11519116 0.01916983
v 0.14554372 0.11807963 0.02994120
v 0.15065029 0.11519116 0.01916983
v 0.13022590 0.11992249 0.03694288
v 0.13022782 0.12184166 0.04411304
v 0.13788536 0.11992249 0.03694288
v 0.13788727 0.12184166 0.04411304
v 0.12766537 0.12336699 0.04966133
v 0.13532482 0.12336699 0.04966133
v 0.14554481 0.11992249 0.03694288
v 0.14554672 0.12184166 0.04411304
v 0.14298427 0.12336699 0.04966133
f 1 7 2
f 1 5 7
f 3 9 8
f 3 4 9
f 2 9 4
f 2 7 9
f 5 10 7
f 5 6 10
f 8 12 11
f 8 9 12
f 7 12 9
f 7 10 12
f 6 15 10
f 6 13 15
f 11 17 16
f 11 12 17
f 10 17 12
f 10 15 17
f 13 18 15
f 13 14 18
f 16 20 19
f 16 17 20
f 15 20 17
f 15 18 20
f 3 8 28
f 8 30 28
f 8 11 30
f 28 31 29
f 28 30 31
f 21 33 32
f 21 34 22
f 21 32 34
f 32 36 35
f 32 33 36
f 29 36 33
f 29 31 36
f 32 37 34
f 32 35 37
f 11 38 30
f 11 16 38
f 30 39 31
f 30 38 39
f 16 40 38
f 16 19 40
f 38 41 39
f 38 40 41
f 35 43 42
f 35 36 43
f 31 43 36
f 31 39 43
f 35 44 37
f 35 42 44
f 42 46 45
f 42 43 46
f 39 46 43
f 39 41 46
f 42 47 44
f 42 45 47
f 22 48 23
f 22 34 48
f 23 49 24
f 23 48 49
f 34 50 48
f 34 37 50
f 48 51 49
f 48 50 51
f 26 52 25
f 26 53 52
f 53 54 52
f 53 55 54
f 26 56 53
f 26 27 56
f 24 56 27
f 24 49 56
f 53 57 55
f 53 56 57
f 49 57 56
f 49 51 57
f 37 58 50
f 37 44 58
f 50 59 51
f 50 58 59
f 44 60 58
f 44 47 60
f 58 61 59
f 58 60 61
f 55 62 54
f 55 63 62
f 63 64 62
f 63 65 64
f 55 66 63
f 55 57 66
f 51 66 57
f 51 59 66
f 63 67 65
f 63 66 67
f 59 67 66
f 59 61 67
f 14 70 18
f 14 68 70
f 19 72 71
f 19 20 72
f 18 72 20
f 18 70 72
f 68 73 70
f 68 69 73
f 71 75 74
f 71 72 75
f 70 75 72
f 70 73 75
f 69 78 73
f 69 76 78
f 74 80 79
f 74 75 80
f 73 80 75
f 73 78 80
f 76 81 78
f 76 77 81
f 79 83 82
f 79 80 83
f 78 83 80
f 78 81 83
f 77 86 81
f 77 84 86
f 82 88 87
f 82 83 88
f 81 88 83
f 81 86 88
f 84 89 86
f 84 85 89
f 87 91 90
f 87 88 91
f 86 91 88
f 86 89 91
f 85 94 89
f 85 92 94
f 90 96 95
f 90 91 96
f 89 96 91
f 89 94 96
f 92 97 94
f 92 93 97
f 95 99 98
f 95 96 99
f 94 99 96
f 94 97 99
f 19 100 40
f 19 71 100
f 40 101 41
f 40 100 101
f 71 102 100
f 71 74 102
f 100 103 101
f 100 102 103
f 45 105 104
f 45 46 105
f 41 105 46
f 41 101 105
f 45 106 47
f 45 104 106
f 104 108 107
f 104 105 108
f 101 108 105
f 101 103 108
f 104 109 106
f 104 107 109
f 74 110 102
f 74 79 110
f 102 111 103
f 102 110 111
f 79 112 110
f 79 82 112
f 110 113 111
f 110 112 113
f 107 115 114
f 107 108 115
f 103 115 108
f 103 111 115
f 107 116 109
f 107 114 116
f 114 118 117
f 114 115 118
f 111 118 115
f 111 113 118
f 114 119 116
f 114 117 119
f 47 120 60
f 47 106 120
f 60 121 61
f 60 120 121
f 106 122 120
f 106 109 122
f 120 123 121
f 120 122 123
f 65 124 64
f 65 125 124
f 125 126 124
f 125 127 126
f 65 128 125
f 65 67 128
f 61 128 67
f 61 121 128
f 125 129 127
f 125 128 129
f 121 129 128
f 121 123 129
f 109 130 122
f 109 116 130
f 122 131 123
f 122 130 131
f 116 132 130
f 116 119 132
f 130 133 131
f 130 132 133
f 127 134 126
f 127 135 134
f 135 136 134
f 135 137 136
f 127 138 135
f 127 129 138
f 123 138 129
f 123 131 138
f 135 139 137
f 135 138 139
f 131 139 138
f 131 133 139
f 82 140 112
f 82 87 140
f 112 141 113
f 112 140 141
f 87 142 140
f 87 90 142
f 140 143 141
f 140 142 143
f 117 145 144
f 117 118 145
f 113 145 118
f 113 141 145
f 117 146 119
f 117 144 146
f 144 148 147
f 144 145 148
f 141 148 145
f 141 143 148
f 144 149 146
f 144 147 149
f 90 150 142
f 90 95 150
f 142 151 143
f 142 150 151
f 95 152 150
f 95 98 152
f 150 153 151
f 150 152 153
f 147 155 154
f 147 148 155
f 143 155 148
f 143 151 155
f 147 156 149
f 147 154 156
f 154 158 157
f 154 155 158
f 151 158 155
f 151 153 158
f 154 159 156
f 154 157 159
f 119 160 132
f 119 146 160
f 132 161 133
f 132 160 161
f 146 162 160
f 146 149 162
f 160 163 161
f 160 162 163
f 137 164 136
f 137 165 164
f 165 166 164
f 165 167 166
f 137 168 165
f 137 139 168
f 133 168 139
f 133 161 168
f 165 169 167
f 165 168 169
f 161 169 168
f 161 163 169
f 149 170 162
f 149 156 170
f 162 171 163
f 162 170 171
f 156 172 170
f 156 159 172
f 170 173 171
f 170 172 173
f 167 174 166
f 167 175 174
f 175 176 174
f 175 177 176
f 167 178 175
f 167 169 178
f 163 178 169
f 163 171 178
f 175 179 177
f 175 178 179
f 171 179 178
f 171 173 179
f 93 182 97
f 93 180 182
f 98 184 183
f 98 99 184
f 97 184 99
f 97 182 184
f 180 185 182
f 180 181 185
f 183 187 186
f 183 184 187
f 182 187 184
f 182 185 187
f 181 190 185
f 181 188 190
f 186 192 191
f 186 187 192
f 185 192 187
f 185 190 192
f 188 193 190
f 188 189 193
f 191 195 194
f 191 192 195
f 190 195 192
f 190 193 195
f 189 198 193
f 189 196 198
f 194 200 199
f 194 195 200
f 193 200 195
f 193 198 200
f 196 201 198
f 196 197 201
f 199 203 202
f 199 200 203
f 198 203 200
f 198 201 203
f 197 206 201
f 197 204 206
f 202 208 207
f 202 203 208
f 201 208 203
f 201 206 208
f 204 209 206
f 204 205 209
f 207 211 210
f 207 208 211
f 206 211 208
f 206 209 211
f 98 212 152
f 98 183 212
f 152 213 153
f 152 212 213
f 183 214 212
f 183 186 214
f 212 215 213
f 212 214 215
f 157 217 216
f 157 158 217
f 153 217 158
f 153 213 217
f 157 218 159
f 157 216 218
f 216 220 219
f 216 217 220
f 213 220 217
f 213 215 220
f 216 221 218
f 216 219 221
f 186 222 214
f 186 191 222
f 214 223 215
f 214 222 223
f 191 224 222
f 191 194 224
f 222 225 223
f 222 224 225
f 219 227 226
f 219 220 227
f 215 227 220
f 215 223 227
f 219 228 221
f 219 226 228
f 226 230 229
f 226 227 230
f 223 230 227
f 223 225 230
f 226 231 228
f 226 229 231
f 159 232 172
f 159 218 232
f 172 233 173
f 172 232 233
f 218 234 232
f 218 221 234
f 232 235 233
f 232 234 235
f 177 236 176
f 177 237 236
f 237 238 236
f 237 239 238
f 177 240 237
f 177 179 240
f 173 240 179
f 173 233 240
f 237 241 239
f 237 240 241
f 233 241 240
f 233 235 241
f 221 242 234
f 221 228 242
f 234 243 235
f 234 242 243
f 228 244 242
f 228 231 244
f 242 245 243
f 242 244 245
f 239 246 238
f 239 247 246
f 247 248 246
f 247 249 248
f 239 250 247
f 239 241 250
f 235 250 241
f 235 243 250
f 247 251 249
f 247 250 251
f 243 251 250
f 243 245 251
f 194 252 224
f 194 199 252
f 224 253 225
f 224 252 253
f 199 254 252
f 199 202 254
f 252 255 253
f 252 254 255
f 229 257 256
f 229 230 257
f 225 257 230
f 225 253 257
f 229 258 231
f 229 256 258
f 256 260 259
f 256 257 260
f 253 260 257
f 253 255 260
f 256 261 258
f 256 259 261
f 202 262 254
f 202 207 262
f 254 263 255
f 254 262 263
f 207 264 262
f 207 210 264
f 262 265 263
f 262 264 265
f 259 267 266
f 259 260 267
f 255 267 260
f 255 263 267
f 259 268 261
f 259 266 268
f 266 270 269
f 266 267 270
f 263 270 267
f 263 265 270
f 266 271 268
f 266 269 271
f 231 272 244
f 231 258 272
f 244 273 245
f 244 272 273
f 258 274 272
f 258 261 274
f 272 275 273
f 272 274 275
f 249 276 248
f 249 277 276
f 277 278 276
f 277 279 278
f 249 280 277
f 249 251 280
f 245 280 251
f 245 273 280
f 277 281 279
f 277 280 281
f 273 281 280
f 273 275 281
f 261 282 274
f 261 268 282
f 274 283 275
f 274 282 283
f 268 284 282
f 268 271 284
f 282 285 283
f 282 284 285
f 279 286 278
f 279 287 286
f 287 288 286
f 287 289 288
f 279 290 287
f 279 281 290
f 275 290 281
f 275 283 290
f 287 291 289
f 287 290 291
f 283 291 290
f 283 285 291
f 293 294 292
f 293 295 294
f 295 296 294
f 295 297 296
f 297 298 296
f 297 299 298
f 299 300 298
f 299 301 300
f 302 305 304
f 302 308 306
f 302 304 308
f 306 309 307
f 306 308 309
f 307 309 310
f 292 311 303
f 292 294 311
f 304 313 312
f 304 305 313
f 303 313 305
f 303 311 313
f 294 314 311
f 294 296 314
f 312 316 315
f 312 313 316
f 311 316 313
f 311 314 316
f 304 317 308
f 304 312 317
f 308 318 309
f 308 317 318
f 312 319 317
f 312 315 319
f 317 320 318
f 317 319 320
f 296 321 314
f 296 298 321
f 315 323 322
f 315 316 323
f 314 323 316
f 314 321 323
f 298 324 321
f 298 300 324
f 322 326 325
f 322 323 326
f 321 326 323
f 321 324 326
f 315 327 319
f 315 322 327
f 319 328 320
f 319 327 328
f 322 329 327
f 322 325 329
f 327 330 328
f 327 329 330
f 309 331 310
f 309 318 331
f 310 331 332
f 318 333 331
f 318 320 333
f 331 334 332
f 331 333 334
f 320 335 333
f 320 328 335
f 333 336 334
f 333 335 336
f 328 337 335
f 328 330 337
f 335 338 336
f 335 337 338
f 25 52 342
f 52 344 342
f 52 54 344
f 342 345 343
f 342 344 345
f 339 347 346
f 339 348 340
f 339 346 348
f 346 350 349
f 346 347 350
f 343 350 347
f 343 345 350
f 346 351 348
f 346 349 351
f 54 352 344
f 54 62 352
f 344 353 345
f 344 352 353
f 62 354 352
f 62 64 354
f 352 355 353
f 352 354 355
f 349 357 356
f 349 350 357
f 345 357 350
f 345 353 357
f 349 358 351
f 349 356 358
f 356 360 359
f 356 357 360
f 353 360 357
f 353 355 360
f 356 361 358
f 356 359 361
f 340 362 341
f 340 348 362
f 341 362 363
f 348 364 362
f 348 351 364
f 362 365 363
f 362 364 365
f 293 366 295
f 295 367 297
f 295 366 367
f 363 367 366
f 363 365 367
f 351 368 364
f 351 358 368
f 364 369 365
f 364 368 369
f 358 370 368
f 358 361 370
f 368 371 369
f 368 370 371
f 297 372 299
f 297 367 372
f 365 372 367
f 365 369 372
f 299 373 301
f 299 372 373
f 369 373 372
f 369 371 373
f 301 374 300
f 301 375 374
f 375 376 374
f 375 377 376
f 377 378 376
f 377 379 378
f 379 380 378
f 379 381 380
f 381 382 380
f 381 383 382
f 383 384 382
f 383 385 384
f 385 386 384
f 385 387 386
f 387 388 386
f 387 389 388
f 300 390 324
f 300 374 390
f 325 392 391
f 325 326 392
f 324 392 326
f 324 390 392
f 374 393 390
f 374 376 393
f 391 395 394
f 391 392 395
f 390 395 392
f 390 393 395
f 325 396 329
f 325 391 396
f 329 397 330
f 329 396 397
f 391 398 396
f 391 394 398
f 396 399 397
f 396 398 399
f 376 400 393
f 376 378 400
f 394 402 401
f 394 395 402
f 393 402 395
f 393 400 402
f 378 403 400
f 378 380 403
f 401 405 404
f 401 402 405
f 400 405 402
f 400 403 405
f 394 406 398
f 394 401 406
f 398 407 399
f 398 406 407
f 401 408 406
f 401 404 408
f 406 409 407
f 406 408 409
f 330 410 337
f 330 397 410
f 337 411 338
f 337 410 411
f 397 412 410
f 397 399 412
f 410 413 411
f 410 412 413
f 399 414 412
f 399 407 414
f 412 415 413
f 412 414 415
f 407 416 414
f 407 409 416
f 414 417 415
f 414 416 417
f 380 418 403
f 380 382 418
f 404 420 419
f 404 405 420
f 403 420 405
f 403 418 420
f 382 421 418
f 382 384 421
f 419 423 422
f 419 420 423
f 418 423 420
f 418 421 423
f 404 424 408
f 404 419 424
f 408 425 409
f 408 424 425
f 419 426 424
f 419 422 426
f 424 427 425
f 424 426 427
f 384 428 421
f 384 386 428
f 422 430 429
f 422 423 430
f 421 430 423
f 421 428 430
f 386 431 428
f 386 388 431
f 429 433 432
f 429 430 433
f 428 433 430
f 428 431 433
f 422 434 426
f 422 429 434
f 426 435 427
f 426 434 435
f 429 436 434
f 429 432 436
f 434 437 435
f 434 436 437
f 409 438 416
f 409 425 438
f 416 439 417
f 416 438 439
f 425 440 438
f 425 427 440
f 438 441 439
f 438 440 441
f 427 442 440
f 427 435 442
f 440 443 441
f 440 442 443
f 435 444 442
f 435 437 444
f 442 445 443
f 442 444 445
f 389 446 388
f 389 447 446
f 447 448 446
f 447 449 448
f 449 450 448
f 449 451 450
f 451 452 450
f 451 453 452
f 453 454 452
f 453 455 454
f 455 456 454
f 455 457 456
f 457 458 456
f 457 459 458
f 459 460 458
f 459 461 460
f 388 462 431
f 388 446 462
f 432 464 463
f 432 433 464
f 431 464 433
f 431 462 464
f 446 465 462
f 446 448 465
f 463 467 466
f 463 464 467
f 462 467 464
f 462 465 467
f 432 468 436
f 432 463 468
f 436 469 437
f 436 468 469
f 463 470 468
f 463 466 470
f 468 471 469
f 468 470 471
f 448 472 465
f 448 450 472
f 466 474 473
f 466 467 474
f 465 474 467
f 465 472 474
f 450 475 472
f 450 452 475
f 473 477 476
f 473 474 477
f 472 477 474
f 472 475 477
f 466 478 470
f 466 473 478
f 470 479 471
f 470 478 479
f 473 480 478
f 473 476 480
f 478 481 479
f 478 480 481
f 437 482 444
f 437 469 482
f 444 483 445
f 444 482 483
f 469 484 482
f 469 471 484
f 482 485 483
f 482 484 485
f 471 486 484
f 471 479 486
f 484 487 485
f 484 486 487
f 479 488 486
f 479 481 488
f 486 489 487
f 486 488 489
f 452 490 475
f 452 454 490
f 476 492 491
f 476 477 492
f 475 492 477
f 475 490 492
f 454 493 490
f 454 456 493
f 491 495 494
f 491 492 495
f 490 495 492
f 490 493 495
f 476 496 480
f 476 491 496
f 480 497 481
f 480 496 497
f 491 498 496
f 491 494 498
f 496 499 497
f 496 498 499
f 456 500 493
f 456 458 500
f 494 502 501
f 494 495 502
f 493 502 495
f 493 500 502
f 458 503 500
f 458 460 503
f 501 505 504
f 501 502 505
f 500 505 502
f 500 503 505
f 494 506 498
f 494 501 506
f 498 507 499
f 498 506 507
f 501 508 506
f 501 504 508
f 506 509 507
f 506 508 509
f 481 510 488
f 481 497 510
f 488 511 489
f 488 510 511
f 497 512 510
f 497 499 512
f 510 513 511
f 510 512 513
f 499 514 512
f 499 507 514
f 512 515 513
f 512 514 515
f 507 516 514
f 507 509 516
f 514 517 515
f 514 516 517
f 64 518 354
f 64 124 518
f 354 519 355
f 354 518 519
f 124 520 518
f 124 126 520
f 518 521 519
f 518 520 521
f 359 523 522
f 359 360 523
f 355 523 360
f 355 519 523
f 359 524 361
f 359 522 524
f 522 526 525
f 522 523 526
f 519 526 523
f 519 521 526
f 522 527 524
f 522 525 527
f 126 528 520
f 126 134 528
f 520 529 521
f 520 528 529
f 134 530 528
f 134 136 530
f 528 531 529
f 528 530 531
f 525 533 532
f 525 526 533
f 521 533 526
f 521 529 533
f 525 534 527
f 525 532 534
f 532 536 535
f 532 533 536
f 529 536 533
f 529 531 536
f 532 537 534
f 532 535 537
f 361 538 370
f 361 524 538
f 370 539 371
f 370 538 539
f 524 540 538
f 524 527 540
f 538 541 539
f 538 540 541
f 301 542 375
f 301 373 542
f 371 542 373
f 371 539 542
f 375 543 377
f 375 542 543
f 539 543 542
f 539 541 543
f 527 544 540
f 527 534 544
f 540 545 541
f 540 544 545
f 534 546 544
f 534 537 546
f 544 547 545
f 544 546 547
f 377 548 379
f 377 543 548
f 541 548 543
f 541 545 548
f 379 549 381
f 379 548 549
f 545 549 548
f 545 547 549
f 136 550 530
f 136 164 550
f 530 551 531
f 530 550 551
f 164 552 550
f 164 166 552
f 550 553 551
f 550 552 553
f 535 555 554
f 535 536 555
f 531 555 536
f 531 551 555
f 535 556 537
f 535 554 556
f 554 558 557
f 554 555 558
f 551 558 555
f 551 553 558
f 554 559 556
f 554 557 559
f 166 560 552
f 166 174 560
f 552 561 553
f 552 560 561
f 174 562 560
f 174 176 562
f 560 563 561
f 560 562 563
f 557 565 564
f 557 558 565
f 553 565 558
f 553 561 565
f 557 566 559
f 557 564 566
f 564 568 567
f 564 565 568
f 561 568 565
f 561 563 568
f 564 569 566
f 564 567 569
f 537 570 546
f 537 556 570
f 546 571 547
f 546 570 571
f 556 572 570
f 556 559 572
f 570 573 571
f 570 572 573
f 381 574 383
f 381 549 574
f 547 574 549
f 547 571 574
f 383 575 385
f 383 574 575
f 571 575 574
f 571 573 575
f 559 576 572
f 559 566 576
f 572 577 573
f 572 576 577
f 566 578 576
f 566 569 578
f 576 579 577
f 576 578 579
f 385 580 387
f 385 575 580
f 573 580 575
f 573 577 580
f 387 581 389
f 387 580 581
f 577 581 580
f 577 579 581
f 176 582 562
f 176 236 582
f 562 583 563
f 562 582 583
f 236 584 582
f 236 238 584
f 582 585 583
f 582 584 585
f 567 587 586
f 567 568 587
f 563 587 568
f 563 583 587
f 567 588 569
f 567 586 588
f 586 590 589
f 586 587 590
f 583 590 587
f 583 585 590
f 586 591 588
f 586 589 591
f 238 592 584
f 238 246 592
f 584 593 585
f 584 592 593
f 246 594 592
f 246 248 594
f 592 595 593
f 592 594 595
f 589 597 596
f 589 590 597
f 585 597 590
f 585 593 597
f 589 598 591
f 589 596 598
f 596 600 599
f 596 597 600
f 593 600 597
f 593 595 600
f 596 601 598
f 596 599 601
f 569 602 578
f 569 588 602
f 578 603 579
f 578 602 603
f 588 604 602
f 588 591 604
f 602 605 603
f 602 604 605
f 389 606 447
f 389 581 606
f 579 606 581
f 579 603 606
f 447 607 449
f 447 606 607
f 603 607 606
f 603 605 607
f 591 608 604
f 591 598 608
f 604 609 605
f 604 608 609
f 598 610 608
f 598 601 610
f 608 611 609
f 608 610 611
f 449 612 451
f 449 607 612
f 605 612 607
f 605 609 612
f 451 613 453
f 451 612 613
f 609 613 612
f 609 611 613
f 248 614 594
f 248 276 614
f 594 615 595
f 594 614 615
f 276 616 614
f 276 278 616
f 614 617 615
f 614 616 617
f 599 619 618
f 599 600 619
f 595 619 600
f 595 615 619
f 599 620 601
f 599 618 620
f 618 622 621
f 618 619 622
f 615 622 619
f 615 617 622
f 618 623 620
f 618 621 623
f 278 624 616
f 278 286 624
f 616 625 617
f 616 624 625
f 286 626 624
f 286 288 626
f 624 627 625
f 624 626 627
f 621 629 628
f 621 622 629
f 617 629 622
f 617 625 629
f 621 630 623
f 621 628 630
f 628 632 631
f 628 629 632
f 625 632 629
f 625 627 632
f 628 633 630
f 628 631 633
f 601 634 610
f 601 620 634
f 610 635 611
f 610 634 635
f 620 636 634
f 620 623 636
f 634 637 635
f 634 636 637
f 453 638 455
f 453 613 638
f 611 638 613
f 611 635 638
f 455 639 457
f 455 638 639
f 635 639 638
f 635 637 639
f 623 640 636
f 623 630 640
f 636 641 637
f 636 640 641
f 630 642 640
f 630 633 642
f 640 643 641
f 640 642 643
f 457 644 459
f 457 639 644
f 637 644 639
f 637 641 644
f 459 645 461
f 459 644 645
f 641 645 644
f 641 643 645
f 205 648 209
f 205 646 648
f 210 650 649
f 210 211 650
f 209 650 211
f 209 648 650
f 646 651 648
f 646 647 651
f 649 653 652
f 649 650 653
f 648 653 650
f 648 651 653
f 647 656 651
f 647 654 656
f 652 658 657
f 652 653 658
f 651 658 653
f 651 656 658
f 654 659 656
f 654 655 659
f 657 661 660
f 657 658 661
f 656 661 658
f 656 659 661
f 655 664 659
f 655 662 664
f 660 666 665
f 660 661 666
f 659 666 661
f 659 664 666
f 662 667 664
f 662 663 667
f 665 669 668
f 665 666 669
f 664 669 666
f 664 667 669
f 663 672 667
f 663 670 672
f 668 674 673
f 668 669 674
f 667 674 669
f 667 672 674
f 670 675 672
f 670 671 675
f 673 677 676
f 673 674 677
f 672 677 674
f 672 675 677
f 210 678 264
f 210 649 678
f 264 679 265
f 264 678 679
f 649 680 678
f 649 652 680
f 678 681 679
f 678 680 681
f 269 683 682
f 269 270 683
f 265 683 270
f 265 679 683
f 269 684 271
f 269 682 684
f 682 686 685
f 682 683 686
f 679 686 683
f 679 681 686
f 682 687 684
f 682 685 687
f 652 688 680
f 652 657 688
f 680 689 681
f 680 688 689
f 657 690 688
f 657 660 690
f 688 691 689
f 688 690 691
f 685 693 692
f 685 686 693
f 681 693 686
f 681 689 693
f 685 694 687
f 685 692 694
f 692 696 695
f 692 693 696
f 689 696 693
f 689 691 696
f 692 697 694
f 692 695 697
f 271 698 284
f 271 684 698
f 284 699 285
f 284 698 699
f 684 700 698
f 684 687 700
f 698 701 699
f 698 700 701
f 289 702 288
f 289 703 702
f 703 704 702
f 703 705 704
f 289 706 703
f 289 291 706
f 285 706 291
f 285 699 706
f 703 707 705
f 703 706 707
f 699 707 706
f 699 701 707
f 687 708 700
f 687 694 708
f 700 709 701
f 700 708 709
f 694 710 708
f 694 697 710
f 708 711 709
f 708 710 711
f 705 712 704
f 705 713 712
f 713 714 712
f 713 715 714
f 705 716 713
f 705 707 716
f 701 716 707
f 701 709 716
f 713 717 715
f 713 716 717
f 709 717 716
f 709 711 717
f 660 718 690
f 660 665 718
f 690 719 691
f 690 718 719
f 665 720 718
f 665 668 720
f 718 721 719
f 718 720 721
f 695 723 722
f 695 696 723
f 691 723 696
f 691 719 723
f 695 724 697
f 695 722 724
f 722 726 725
f 722 723 726
f 719 726 723
f 719 721 726
f 722 727 724
f 722 725 727
f 668 728 720
f 668 673 728
f 720 729 721
f 720 728 729
f 673 730 728
f 673 676 730
f 728 731 729
f 728 730 731
f 725 733 732
f 725 726 733
f 721 733 726
f 721 729 733
f 725 734 727
f 725 732 734
f 732 736 735
f 732 733 736
f 729 736 733
f 729 731 736
f 732 737 734
f 732 735 737
f 697 738 710
f 697 724 738
f 710 739 711
f 710 738 739
f 724 740 738
f 724 727 740
f 738 741 739
f 738 740 741
f 715 742 714
f 715 743 742
f 743 744 742
f 743 745 744
f 715 746 743
f 715 717 746
f 711 746 717
f 711 739 746
f 743 747 745
f 743 746 747
f 739 747 746
f 739 741 747
f 727 748 740
f 727 734 748
f 740 749 741
f 740 748 749
f 734 750 748
f 734 737 750
f 748 751 749
f 748 750 751
f 745 752 744
f 745 753 752
f 753 754 752
f 753 755 754
f 745 756 753
f 745 747 756
f 741 756 747
f 741 749 756
f 753 757 755
f 753 756 757
f 749 757 756
f 749 751 757
f 671 760 675
f 671 758 760
f 676 762 761
f 676 677 762
f 675 762 677
f 675 760 762
f 758 763 760
f 758 759 763
f 761 765 764
f 761 762 765
f 760 765 762
f 760 763 765
f 759 768 763
f 759 766 768
f 764 770 769
f 764 765 770
f 763 770 765
f 763 768 770
f 766 771 768
f 766 767 771
f 769 773 772
f 769 770 773
f 768 773 770
f 768 771 773
f 767 776 771
f 767 774 776
f 772 778 777
f 772 773 778
f 771 778 773
f 771 776 778
f 774 779 776
f 774 775 779
f 777 781 780
f 777 778 781
f 776 781 778
f 776 779 781
f 775 784 779
f 775 782 784
f 780 786 785
f 780 781 786
f 779 786 781
f 779 784 786
f 782 787 784
f 782 783 787
f 785 789 788
f 785 786 789
f 784 789 786
f 784 787 789
f 676 790 730
f 676 761 790
f 730 791 731
f 730 790 791
f 761 792 790
f 761 764 792
f 790 793 791
f 790 792 793
f 735 795 794
f 735 736 795
f 731 795 736
f 731 791 795
f 735 796 737
f 735 794 796
f 794 798 797
f 794 795 798
f 791 798 795
f 791 793 798
f 794 799 796
f 794 797 799
f 764 800 792
f 764 769 800
f 792 801 793
f 792 800 801
f 769 802 800
f 769 772 802
f 800 803 801
f 800 802 803
f 797 805 804
f 797 798 805
f 793 805 798
f 793 801 805
f 797 806 799
f 797 804 806
f 804 808 807
f 804 805 808
f 801 808 805
f 801 803 808
f 804 809 806
f 804 807 809
f 737 810 750
f 737 796 810
f 750 811 751
f 750 810 811
f 796 812 810
f 796 799 812
f 810 813 811
f 810 812 813
f 755 814 754
f 755 815 814
f 815 816 814
f 815 817 816
f 755 818 815
f 755 757 818
f 751 818 757
f 751 811 818
f 815 819 817
f 815 818 819
f 811 819 818
f 811 813 819
f 799 820 812
f 799 806 820
f 812 821 813
f 812 820 821
f 806 822 820
f 806 809 822
f 820 823 821
f 820 822 823
f 817 824 816
f 817 825 824
f 825 826 824
f 825 827 826
f 817 828 825
f 817 819 828
f 813 828 819
f 813 821 828
f 825 829 827
f 825 828 829
f 821 829 828
f 821 823 829
f 772 830 802
f 772 777 830
f 802 831 803
f 802 830 831
f 777 832 830
f 777 780 832
f 830 833 831
f 830 832 833
f 807 835 834
f 807 808 835
f 803 835 808
f 803 831 835
f 807 836 809
f 807 834 836
f 834 838 837
f 834 835 838
f 831 838 835
f 831 833 838
f 834 839 836
f 834 837 839
f 780 840 832
f 780 785 840
f 832 841 833
f 832 840 841
f 785 842 840
f 785 788 842
f 840 843 841
f 840 842 843
f 837 845 844
f 837 838 845
f 833 845 838
f 833 841 845
f 837 846 839
f 837 844 846
f 844 848 847
f 844 845 848
f 841 848 845
f 841 843 848
f 844 849 846
f 844 847 849
f 809 850 822
f 809 836 850
f 822 851 823
f 822 850 851
f 836 852 850
f 836 839 852
f 850 853 851
f 850 852 853
f 827 854 826
f 827 855 854
f 855 856 854
f 855 857 856
f 827 858 855
f 827 829 858
f 823 858 829
f 823 851 858
f 855 859 857
f 855 858 859
f 851 859 858
f 851 853 859
f 839 860 852
f 839 846 860
f 852 861 853
f 852 860 861
f 846 862 860
f 846 849 862
f 860 863 861
f 860 862 863
f 857 864 856
f 857 865 864
f 865 866 864
f 865 867 866
f 857 868 865
f 857 859 868
f 853 868 859
f 853 861 868
f 865 869 867
f 865 868 869
f 861 869 868
f 861 863 869
f 783 872 787
f 783 870 872
f 788 874 873
f 788 789 874
f 787 874 789
f 787 872 874
f 870 875 872
f 870 871 875
f 873 877 876
f 873 874 877
f 872 877 874
f 872 875 877
f 871 879 875
f 871 878 879
f 876 881 880
f 876 877 881
f 875 881 877
f 875 879 881
f 878 882 879
f 880 881 883
f 879 883 881
f 879 882 883
f 788 884 842
f 788 873 884
f 842 885 843
f 842 884 885
f 873 886 884
f 873 876 886
f 884 887 885
f 884 886 887
f 847 889 888
f 847 848 889
f 843 889 848
f 843 885 889
f 847 890 849
f 847 888 890
f 888 892 891
f 888 889 892
f 885 892 889
f 885 887 892
f 888 893 890
f 888 891 893
f 876 894 886
f 876 880 894
f 886 895 887
f 886 894 895
f 880 896 894
f 894 897 895
f 894 896 897
f 891 899 898
f 891 892 899
f 887 899 892
f 887 895 899
f 891 900 893
f 891 898 900
f 898 899 901
f 895 901 899
f 895 897 901
f 849 902 862
f 849 890 902
f 862 903 863
f 862 902 903
f 890 904 902
f 890 893 904
f 902 905 903
f 902 904 905
f 867 906 866
f 867 907 906
f 907 908 906
f 907 909 908
f 867 910 907
f 867 869 910
f 863 910 869
f 863 903 910
f 907 911 909
f 907 910 911
f 903 911 910
f 903 905 911
f 893 912 904
f 893 900 912
f 904 913 905
f 904 912 913
f 912 914 913
f 909 915 908
f 909 916 915
f 916 917 915
f 916 918 917
f 909 919 916
f 909 911 919
f 905 919 911
f 905 913 919
f 916 920 918
f 916 919 920
f 913 920 919
f 913 914 920
f 918 920 921
f 914 921 920
f 461 922 460
f 461 923 922
f 923 924 922
f 923 925 924
f 925 926 924
f 925 927 926
f 927 928 926
f 927 929 928
f 929 930 928
f 929 931 930
f 931 932 930
f 931 933 932
f 933 934 932
f 933 935 934
f 935 936 934
f 935 937 936
f 460 938 503
f 460 922 938
f 504 940 939
f 504 505 940
f 503 940 505
f 503 938 940
f 922 941 938
f 922 924 941
f 939 943 942
f 939 940 943
f 938 943 940
f 938 941 943
f 504 944 508
f 504 939 944
f 508 945 509
f 508 944 945
f 939 946 944
f 939 942 946
f 944 947 945
f 944 946 947
f 924 948 941
f 924 926 948
f 942 950 949
f 942 943 950
f 941 950 943
f 941 948 950
f 926 951 948
f 926 928 951
f 949 953 952
f 949 950 953
f 948 953 950
f 948 951 953
f 942 954 946
f 942 949 954
f 946 955 947
f 946 954 955
f 949 956 954
f 949 952 956
f 954 957 955
f 954 956 957
f 509 958 516
f 509 945 958
f 516 959 517
f 516 958 959
f 945 960 958
f 945 947 960
f 958 961 959
f 958 960 961
f 947 962 960
f 947 955 962
f 960 963 961
f 960 962 963
f 955 964 962
f 955 957 964
f 962 965 963
f 962 964 965
f 928 966 951
f 928 930 966
f 952 968 967
f 952 953 968
f 951 968 953
f 951 966 968
f 930 969 966
f 930 932 969
f 967 971 970
f 967 968 971
f 966 971 968
f 966 969 971
f 952 972 956
f 952 967 972
f 956 973 957
f 956 972 973
f 967 974 972
f 967 970 974
f 972 975 973
f 972 974 975
f 932 976 969
f 932 934 976
f 970 978 977
f 970 971 978
f 969 978 971
f 969 976 978
f 934 979 976
f 934 936 979
f 977 981 980
f 977 978 981
f 976 981 978
f 976 979 981
f 970 982 974
f 970 977 982
f 974 983 975
f 974 982 983
f 977 984 982
f 977 980 984
f 982 985 983
f 982 984 985
f 957 986 964
f 957 973 986
f 964 987 965
f 964 986 987
f 973 988 986
f 973 975 988
f 986 989 987
f 986 988 989
f 975 990 988
f 975 983 990
f 988 991 989
f 988 990 991
f 983 992 990
f 983 985 992
f 990 993 991
f 990 992 993
f 937 994 936
f 937 995 994
f 995 996 994
f 995 997 996
f 997 998 996
f 997 999 998
f 999 1000 998
f 999 1001 1000
f 1001 1002 1000
f 1001 1003 1002
f 1003 1004 1002
f 1003 1005 1004
f 1005 1006 1004
f 1005 1007 1006
f 1007 1008 1006
f 1007 1009 1008
f 936 1010 979
f 936 994 1010
f 980 1012 1011
f 980 981 1012
f 979 1012 981
f 979 1010 1012
f 994 1013 1010
f 994 996 1013
f 1011 1015 1014
f 1011 1012 1015
f 1010 1015 1012
f 1010 1013 1015
f 980 1016 984
f 980 1011 1016
f 984 1017 985
f 984 1016 1017
f 1011 1018 1016
f 1011 1014 1018
f 1016 1019 1017
f 1016 1018 1019
f 996 1020 1013
f 996 998 1020
f 1014 1022 1021
f 1014 1015 1022
f 1013 1022 1015
f 1013 1020 1022
f 998 1023 1020
f 998 1000 1023
f 1021 1025 1024
f 1021 1022 1025
f 1020 1025 1022
f 1020 1023 1025
f 1014 1026 1018
f 1014 1021 1026
f 1018 1027 1019
f 1018 1026 1027
f 1021 1028 1026
f 1021 1024 1028
f 1026 1029 1027
f 1026 1028 1029
f 985 1030 992
f 985 1017 1030
f 992 1031 993
f 992 1030 1031
f 1017 1032 1030
f 1017 1019 1032
f 1030 1033 1031
f 1030 1032 1033
f 1019 1034 1032
f 1019 1027 1034
f 1032 1035 1033
f 1032 1034 1035
f 1027 1036 1034
f 1027 1029 1036
f 1034 1037 1035
f 1034 1036 1037
f 1000 1038 1023
f 1000 1002 1038
f 1024 1040 1039
f 1024 1025 1040
f 1023 1040 1025
f 1023 1038 1040
f 1002 1041 1038
f 1002 1004 1041
f 1039 1043 1042
f 1039 1040 1043
f 1038 1043 1040
f 1038 1041 1043
f 1024 1044 1028
f 1024 1039 1044
f 1028 1045 1029
f 1028 1044 1045
f 1039 1046 1044
f 1039 1042 1046
f 1044 1047 1045
f 1044 1046 1047
f 1004 1048 1041
f 1004 1006 1048
f 1042 1050 1049
f 1042 1043 1050
f 1041 1050 1043
f 1041 1048 1050
f 1006 1051 1048
f 1006 1008 1051
f 1049 1053 1052
f 1049 1050 1053
f 1048 1053 1050
f 1048 1051 1053
f 1042 1054 1046
f 1042 1049 1054
f 1046 1055 1047
f 1046 1054 1055
f 1049 1056 1054
f 1049 1052 1056
f 1054 1057 1055
f 1054 1056 1057
f 1029 1058 1036
f 1029 1045 1058
f 1036 1059 1037
f 1036 1058 1059
f 1045 1060 1058
f 1045 1047 1060
f 1058 1061 1059
f 1058 1060 1061
f 1047 1062 1060
f 1047 1055 1062
f 1060 1063 1061
f 1060 1062 1063
f 1055 1064 1062
f 1055 1057 1064
f 1062 1065 1063
f 1062 1064 1065
f 288 1066 626
f 288 702 1066
f 626 1067 627
f 626 1066 1067
f 702 1068 1066
f 702 704 1068
f 1066 1069 1067
f 1066 1068 1069
f 631 1071 1070
f 631 632 1071
f 627 1071 632
f 627 1067 1071
f 631 1072 633
f 631 1070 1072
f 1070 1074 1073
f 1070 1071 1074
f 1067 1074 1071
f 1067 1069 1074
f 1070 1075 1072
f 1070 1073 1075
f 704 1076 1068
f 704 712 1076
f 1068 1077 1069
f 1068 1076 1077
f 712 1078 1076
f 712 714 1078
f 1076 1079 1077
f 1076 1078 1079
f 1073 1081 1080
f 1073 1074 1081
f 1069 1081 1074
f 1069 1077 1081
f 1073 1082 1075
f 1073 1080 1082
f 1080 1084 1083
f 1080 1081 1084
f 1077 1084 1081
f 1077 1079 1084
f 1080 1085 1082
f 1080 1083 1085
f 633 1086 642
f 633 1072 1086
f 642 1087 643
f 642 1086 1087
f 1072 1088 1086
f 1072 1075 1088
f 1086 1089 1087
f 1086 1088 1089
f 461 1090 923
f 461 645 1090
f 643 1090 645
f 643 1087 1090
f 923 1091 925
f 923 1090 1091
f 1087 1091 1090
f 1087 1089 1091
f 1075 1092 1088
f 1075 1082 1092
f 1088 1093 1089
f 1088 1092 1093
f 1082 1094 1092
f 1082 1085 1094
f 1092 1095 1093
f 1092 1094 1095
f 925 1096 927
f 925 1091 1096
f 1089 1096 1091
f 1089 1093 1096
f 927 1097 929
f 927 1096 1097
f 1093 1097 1096
f 1093 1095 1097
f 714 1098 1078
f 714 742 1098
f 1078 1099 1079
f 1078 1098 1099
f 742 1100 1098
f 742 744 1100
f 1098 1101 1099
f 1098 1100 1101
f 1083 1103 1102
f 1083 1084 1103
f 1079 1103 1084
f 1079 1099 1103
f 1083 1104 1085
f 1083 1102 1104
f 1102 1106 1105
f 1102 1103 1106
f 1099 1106 1103
f 1099 1101 1106
f 1102 1107 1104
f 1102 1105 1107
f 744 1108 1100
f 744 752 1108
f 1100 1109 1101
f 1100 1108 1109
f 752 1110 1108
f 752 754 1110
f 1108 1111 1109
f 1108 1110 1111
f 1105 1113 1112
f 1105 1106 1113
f 1101 1113 1106
f 1101 1109 1113
f 1105 1114 1107
f 1105 1112 1114
f 1112 1116 1115
f 1112 1113 1116
f 1109 1116 1113
f 1109 1111 1116
f 1112 1117 1114
f 1112 1115 1117
f 1085 1118 1094
f 1085 1104 1118
f 1094 1119 1095
f 1094 1118 1119
f 1104 1120 1118
f 1104 1107 1120
f 1118 1121 1119
f 1118 1120 1121
f 929 1122 931
f 929 1097 1122
f 1095 1122 1097
f 1095 1119 1122
f 931 1123 933
f 931 1122 1123
f 1119 1123 1122
f 1119 1121 1123
f 1107 1124 1120
f 1107 1114 1124
f 1120 1125 1121
f 1120 1124 1125
f 1114 1126 1124
f 1114 1117 1126
f 1124 1127 1125
f 1124 1126 1127
f 933 1128 935
f 933 1123 1128
f 1121 1128 1123
f 1121 1125 1128
f 935 1129 937
f 935 1128 1129
f 1125 1129 1128
f 1125 1127 1129
f 754 1130 1110
f 754 814 1130
f 1110 1131 1111
f 1110 1130 1131
f 814 1132 1130
f 814 816 1132
f 1130 1133 1131
f 1130 1132 1133
f 1115 1135 1134
f 1115 1116 1135
f 1111 1135 1116
f 1111 1131 1135
f 1115 1136 1117
f 1115 1134 1136
f 1134 1138 1137
f 1134 1135 1138
f 1131 1138 1135
f 1131 1133 1138
f 1134 1139 1136
f 1134 1137 1139
f 816 1140 1132
f 816 824 1140
f 1132 1141 1133
f 1132 1140 1141
f 824 1142 1140
f 824 826 1142
f 1140 1143 1141
f 1140 1142 1143
f 1137 1145 1144
f 1137 1138 1145
f 1133 1145 1138
f 1133 1141 1145
f 1137 1146 1139
f 1137 1144 1146
f 1144 1148 1147
f 1144 1145 1148
f 1141 1148 1145
f 1141 1143 1148
f 1144 1149 1146
f 1144 1147 1149
f 1117 1150 1126
f 1117 1136 1150
f 1126 1151 1127
f 1126 1150 1151
f 1136 1152 1150
f 1136 1139 1152
f 1150 1153 1151
f 1150 1152 1153
f 937 1154 995
f 937 1129 1154
f 1127 1154 1129
f 1127 1151 1154
f 995 1155 997
f 995 1154 1155
f 1151 1155 1154
f 1151 1153 1155
f 1139 1156 1152
f 1139 1146 1156
f 1152 1157 1153
f 1152 1156 1157
f 1146 1158 1156
f 1146 1149 1158
f 1156 1159 1157
f 1156 1158 1159
f 997 1160 999
f 997 1155 1160
f 1153 1160 1155
f 1153 1157 1160
f 999 1161 1001
f 999 1160 1161
f 1157 1161 1160
f 1157 1159 1161
f 826 1162 1142
f 826 854 1162
f 1142 1163 1143
f 1142 1162 1163
f 854 1164 1162
f 854 856 1164
f 1162 1165 1163
f 1162 1164 1165
f 1147 1167 1166
f 1147 1148 1167
f 1143 1167 1148
f 1143 1163 1167
f 1147 1168 1149
f 1147 1166 1168
f 1166 1170 1169
f 1166 1167 1170
f 1163 1170 1167
f 1163 1165 1170
f 1166 1171 1168
f 1166 1169 1171
f 856 1172 1164
f 856 864 1172
f 1164 1173 1165
f 1164 1172 1173
f 864 1174 1172
f 864 866 1174
f 1172 1175 1173
f 1172 1174 1175
f 1169 1177 1176
f 1169 1170 1177
f 1165 1177 1170
f 1165 1173 1177
f 1169 1178 1171
f 1169 1176 1178
f 1176 1180 1179
f 1176 1177 1180
f 1173 1180 1177
f 1173 1175 1180
f 1176 1181 1178
f 1176 1179 1181
f 1149 1182 1158
f 1149 1168 1182
f 1158 1183 1159
f 1158 1182 1183
f 1168 1184 1182
f 1168 1171 1184
f 1182 1185 1183
f 1182 1184 1185
f 1001 1186 1003
f 1001 1161 1186
f 1159 1186 1161
f 1159 1183 1186
f 1003 1187 1005
f 1003 1186 1187
f 1183 1187 1186
f 1183 1185 1187
f 1171 1188 1184
f 1171 1178 1188
f 1184 1189 1185
f 1184 1188 1189
f 1178 1190 1188
f 1178 1181 1190
f 1188 1191 1189
f 1188 1190 1191
f 1005 1192 1007
f 1005 1187 1192
f 1185 1192 1187
f 1185 1189 1192
f 1007 1193 1009
f 1007 1192 1193
f 1189 1193 1192
f 1189 1191 1193
f 1009 1194 1008
f 1009 1195 1194
f 1195 1196 1194
f 1195 1197 1196
f 1008 1198 1051
f 1008 1194 1198
f 1052 1200 1199
f 1052 1053 1200
f 1051 1200 1053
f 1051 1198 1200
f 1194 1201 1198
f 1194 1196 1201
f 1199 1200 1202
f 1198 1202 1200
f 1198 1201 1202
f 1052 1203 1056
f 1052 1199 1203
f 1056 1204 1057
f 1056 1203 1204
f 1199 1205 1203
f 1203 1206 1204
f 1203 1205 1206
f 1057 1207 1064
f 1057 1204 1207
f 1064 1208 1065
f 1064 1207 1208
f 1204 1209 1207
f 1204 1206 1209
f 1207 1210 1208
f 1207 1209 1210
f 1209 1211 1210
f 866 1212 1174
f 866 906 1212
f 1174 1213 1175
f 1174 1212 1213
f 906 1214 1212
f 906 908 1214
f 1212 1215 1213
f 1212 1214 1215
f 1179 1217 1216
f 1179 1180 1217
f 1175 1217 1180
f 1175 1213 1217
f 1179 1218 1181
f 1179 1216 1218
f 1216 1220 1219
f 1216 1217 1220
f 1213 1220 1217
f 1213 1215 1220
f 1216 1221 1218
f 1216 1219 1221
f 908 1222 1214
f 908 915 1222
f 1214 1223 1215
f 1214 1222 1223
f 915 1224 1222
f 915 917 1224
f 1222 1225 1223
f 1222 1224 1225
f 1219 1227 1226
f 1219 1220 1227
f 1215 1227 1220
f 1215 1223 1227
f 1219 1228 1221
f 1219 1226 1228
f 1226 1227 1229
f 1223 1229 1227
f 1223 1225 1229
f 1181 1230 1190
f 1181 1218 1230
f 1190 1231 1191
f 1190 1230 1231
f 1218 1232 1230
f 1218 1221 1232
f 1230 1233 1231
f 1230 1232 1233
f 1009 1234 1195
f 1009 1193 1234
f 1191 1234 1193
f 1191 1231 1234
f 1195 1235 1197
f 1195 1234 1235
f 1231 1235 1234
f 1231 1233 1235
f 1221 1236 1232
f 1221 1228 1236
f 1232 1237 1233
f 1232 1236 1237
f 1197 1235 1238
f 1233 1238 1235
f 1233 1237 1238

