# https://github.com/mikedh/trimesh

o 4.obj
v 0.23668318 0.32051319 -0.77600125
v 0.23382218 0.32163032 -0.76403482
v 0.22796110 0.31353772 -0.76836246
v 0.23369408 0.30949371 -0.77776891
v 0.24551139 0.31348374 -0.78114502
v 0.25134227 0.32159830 -0.77772774
v 0.24566418 0.32386642 -0.76856009
v 0.22762624 0.29969933 -0.76842376
v 0.23356050 0.29385655 -0.77782563
v 0.24537232 0.29966090 -0.78137467
v 0.26281738 0.31348923 -0.78132709
v 0.26868761 0.32163124 -0.77776067
v 0.26287777 0.32394694 -0.76857290
v 0.26280274 0.29965633 -0.78168117
v 0.27835481 0.31350570 -0.78102425
v 0.28324880 0.32140708 -0.77755481
v 0.27857165 0.32374291 -0.76856741
v 0.27848748 0.29965999 -0.78137101
v 0.23255591 0.32709066 -0.74857973
v 0.22753383 0.31355236 -0.75411692
v 0.24420943 0.32959849 -0.75416999
v 0.22714498 0.29970848 -0.75401994
v 0.22430777 0.31949944 -0.74320266
v 0.22523277 0.30149077 -0.74303889
v 0.26163163 0.32972658 -0.75416267
v 0.27906663 0.32838712 -0.75424959
v 0.27399789 0.33441197 -0.74274245
v 0.22762715 0.28218381 -0.76842742
v 0.23355684 0.27640874 -0.77781923
v 0.24536957 0.28226067 -0.78137375
v 0.22799129 0.26868669 -0.76850977
v 0.23394661 0.26504982 -0.77757128
v 0.24536134 0.26871231 -0.78101144
v 0.23679937 0.26053187 -0.77582010
v 0.23393563 0.26074780 -0.76856375
v 0.24568980 0.25911373 -0.76860492
v 0.24554615 0.26071486 -0.77751456
v 0.26280640 0.28226890 -0.78168209
v 0.26280915 0.26857324 -0.78131245
v 0.27866223 0.28225518 -0.78135820
v 0.27859818 0.26871780 -0.78117887
v 0.26284392 0.25875141 -0.76859851
v 0.26282287 0.26075512 -0.77773323
v 0.27833651 0.25869560 -0.76854453
v 0.27839598 0.26087955 -0.77776799
v 0.22714498 0.28217649 -0.75402177
v 0.23024112 0.26450727 -0.75417273
v 0.22516597 0.28411067 -0.74303706
v 0.22982574 0.26261061 -0.74309653
v 0.23877838 0.25183084 -0.75429808
v 0.25017206 0.24926079 -0.75438225
v 0.24271351 0.23689178 -0.74191535
v 0.25840465 0.23647549 -0.74341950
v 0.26684218 0.24959566 -0.75441245
v 0.27308844 0.23753864 -0.74348263
v 0.28193953 0.25246581 -0.75435663
v 0.28693324 0.24160827 -0.74345152
v 0.28921143 0.32041346 -0.77585761
v 0.28837975 0.31334742 -0.77754566
v 0.29261133 0.31335291 -0.76856832
v 0.28848680 0.32131467 -0.76853538
v 0.28864051 0.29968286 -0.77778812
v 0.29248415 0.29967280 -0.76862962
v 0.29703321 0.31213330 -0.75432553
v 0.29178972 0.32258734 -0.75434383
v 0.29712653 0.29907351 -0.75432553
v 0.30278175 0.31453500 -0.74292452
v 0.29508348 0.32956738 -0.74133802
v 0.30396750 0.29893536 -0.74290897
v 0.28865332 0.28224877 -0.77778629
v 0.29265433 0.28224145 -0.76856741
v 0.28847308 0.26879008 -0.77780276
v 0.29247134 0.26871139 -0.76855002
v 0.28632755 0.26185579 -0.77848622
v 0.28848772 0.26087955 -0.77297648
v 0.29728756 0.28280322 -0.75428527
v 0.29652725 0.26708738 -0.75429625
v 0.30379092 0.28216826 -0.74288792
v 0.30328496 0.26448073 -0.74287969
v 0.29014283 0.25857208 -0.75982795
v 0.29902594 0.24889939 -0.74372234
f 1 3 2
f 1 4 3
f 1 5 4
f 1 6 5
f 1 7 6
f 1 2 7
f 4 8 3
f 4 9 8
f 4 10 9
f 4 5 10
f 6 11 5
f 6 12 11
f 6 13 12
f 6 7 13
f 5 14 10
f 5 11 14
f 12 15 11
f 12 16 15
f 12 17 16
f 12 13 17
f 11 18 14
f 11 15 18
f 2 20 19
f 2 3 20
f 2 21 7
f 2 19 21
f 3 22 20
f 3 8 22
f 19 20 23
f 20 24 23
f 20 22 24
f 7 25 13
f 7 21 25
f 13 26 17
f 13 25 26
f 25 27 26
f 9 28 8
f 9 29 28
f 9 30 29
f 9 10 30
f 29 31 28
f 29 32 31
f 29 33 32
f 29 30 33
f 34 36 35
f 34 37 36
f 32 35 31
f 32 34 35
f 32 37 34
f 32 33 37
f 10 38 30
f 10 14 38
f 30 39 33
f 30 38 39
f 14 40 38
f 14 18 40
f 38 41 39
f 38 40 41
f 37 42 36
f 37 43 42
f 33 43 37
f 33 39 43
f 43 44 42
f 43 45 44
f 39 45 43
f 39 41 45
f 8 46 22
f 8 28 46
f 28 47 46
f 28 31 47
f 22 48 24
f 22 46 48
f 46 49 48
f 46 47 49
f 35 51 50
f 35 36 51
f 31 50 47
f 31 35 50
f 50 53 52
f 50 51 53
f 47 52 49
f 47 50 52
f 36 54 51
f 36 42 54
f 51 55 53
f 51 54 55
f 42 56 54
f 42 44 56
f 54 57 55
f 54 56 57
f 58 60 59
f 58 61 60
f 16 59 15
f 16 58 59
f 16 61 58
f 16 17 61
f 59 63 62
f 59 60 63
f 15 62 18
f 15 59 62
f 61 64 60
f 61 65 64
f 17 65 61
f 17 26 65
f 60 66 63
f 60 64 66
f 65 67 64
f 65 68 67
f 26 68 65
f 26 27 68
f 64 69 66
f 64 67 69
f 62 71 70
f 62 63 71
f 18 70 40
f 18 62 70
f 70 73 72
f 70 71 73
f 40 72 41
f 40 70 72
f 72 75 74
f 72 73 75
f 45 75 44
f 45 74 75
f 41 74 45
f 41 72 74
f 63 76 71
f 63 66 76
f 71 77 73
f 71 76 77
f 66 78 76
f 66 69 78
f 76 79 77
f 76 78 79
f 73 80 75
f 73 77 80
f 44 80 56
f 44 75 80
f 77 81 80
f 77 79 81
f 56 81 57
f 56 80 81

