# https://github.com/mikedh/trimesh

o 1.obj
v -0.27478107 -0.30130596 0.38705779
v -0.24886554 -0.30130596 0.69175403
v -0.27478107 -0.30130596 0.71829996
v 0.26117873 -0.30130596 0.38705779
v 0.26117873 -0.30130596 0.71829996
v -0.27478107 -0.25639454 0.38705779
v -0.20903750 -0.30130596 0.68045642
v 0.24048656 -0.30130596 0.69175403
v 0.26117873 -0.25639454 0.71829996
v -0.27478107 -0.25639454 0.71829996
v 0.26117873 -0.25639454 0.38705779
v -0.16869161 -0.30130596 0.67117348
v -0.20903750 -0.34192633 0.68045642
v -0.24886554 -0.34192633 0.69175403
v -0.12793125 -0.30130596 0.66392903
v -0.16869161 -0.34192633 0.67117348
v 0.24048656 -0.34192633 0.69175403
v 0.20065761 -0.30130596 0.68045642
v -0.08685799 -0.30130596 0.65874135
v -0.12793125 -0.34192633 0.66392903
v 0.16031263 -0.30130596 0.67117348
v -0.04557612 -0.30130596 0.65562325
v -0.08685799 -0.34192633 0.65874135
v 0.20065761 -0.34192633 0.68045642
v 0.11955228 -0.30130596 0.66392903
v -0.00418995 -0.30130596 0.65458297
v -0.04557612 -0.34192633 0.65562325
v 0.16031263 -0.34192633 0.67117348
v 0.07847901 -0.30130596 0.65874135
v 0.03719714 -0.30130596 0.65562325
v -0.00418995 -0.34192633 0.65458297
v 0.11955228 -0.34192633 0.66392903
v 0.03719714 -0.34192633 0.65562325
v 0.07847901 -0.34192633 0.65874135
f 1 2 3
f 2 1 4
f 2 5 3
f 2 4 7
f 5 2 8
f 7 4 12
f 13 2 7
f 14 8 2
f 5 8 4
f 12 4 15
f 16 7 12
f 2 13 14
f 7 16 13
f 8 14 17
f 18 4 8
f 15 4 19
f 20 12 15
f 12 20 16
f 17 18 8
f 21 4 18
f 19 4 22
f 23 15 19
f 15 23 20
f 18 17 24
f 25 4 21
f 24 21 18
f 22 4 26
f 27 19 22
f 19 27 23
f 29 4 25
f 28 25 21
f 21 24 28
f 26 4 30
f 31 22 26
f 22 31 27
f 30 4 29
f 32 29 25
f 25 28 32
f 33 26 30
f 26 33 31
f 34 30 29
f 29 32 34
f 30 34 33
f 3 2 1
f 4 1 2
f 3 5 2
f 1 6 3
f 1 4 6
f 7 4 2
f 8 2 5
f 5 3 9
f 10 3 6
f 11 6 4
f 12 4 7
f 7 2 13
f 2 8 14
f 4 8 5
f 10 9 3
f 5 9 4
f 11 4 9
f 15 4 12
f 12 7 16
f 14 13 2
f 13 16 7
f 17 14 8
f 8 4 18
f 19 4 15
f 15 12 20
f 16 20 12
f 14 17 13
f 16 13 17
f 8 18 17
f 18 4 21
f 22 4 19
f 19 15 23
f 20 23 15
f 20 16 17
f 24 17 18
f 21 4 25
f 18 21 24
f 26 4 22
f 22 19 27
f 23 27 19
f 23 20 17
f 24 28 17
f 25 4 29
f 21 25 28
f 28 24 21
f 30 4 26
f 26 22 31
f 27 31 22
f 27 23 17
f 28 32 17
f 29 4 30
f 25 29 32
f 32 28 25
f 30 26 33
f 31 33 26
f 31 27 17
f 32 34 17
f 29 30 34
f 34 32 29
f 33 34 30
f 33 31 17
f 34 33 17
f 3 6 1
f 9 3 5
f 6 3 10
f 3 9 10
f 4 9 5
f 9 4 11
f 13 17 14
f 17 13 16
f 17 16 20
f 17 20 23
f 17 28 24
f 17 23 27
f 17 32 28
f 17 27 31
f 17 34 32
f 17 31 33
f 17 33 34
f 6 4 1
f 4 6 11

