# https://github.com/mikedh/trimesh
v -0.13000000 0.02600000 -0.10200000
v -0.13000000 0.02600000 -0.09800000
v -0.13000000 0.03000000 -0.10200000
v -0.13000000 0.03000000 -0.09800000
v -0.12600000 0.02600000 -0.10200000
v -0.12600000 0.02600000 -0.09800000
v -0.12600000 0.03000000 -0.10200000
v -0.12600000 0.03000000 -0.09800000
v -0.13000000 0.03400000 -0.10200000
v -0.13000000 0.03400000 -0.09800000
v -0.12600000 0.03400000 -0.10200000
v -0.12600000 0.03400000 -0.09800000
v -0.13000000 0.03800000 -0.10200000
v -0.13000000 0.03800000 -0.09800000
v -0.12600000 0.03800000 -0.10200000
v -0.12600000 0.03800000 -0.09800000
v -0.13000000 0.04200000 -0.10200000
v -0.13000000 0.04200000 -0.09800000
v -0.12600000 0.04200000 -0.10200000
v -0.12600000 0.04200000 -0.09800000
v -0.13000000 0.04600000 -0.10200000
v -0.13000000 0.04600000 -0.09800000
v -0.12600000 0.04600000 -0.10200000
v -0.12600000 0.04600000 -0.09800000
v -0.13000000 0.05000000 -0.10200000
v -0.13000000 0.05000000 -0.09800000
v -0.12600000 0.05000000 -0.10200000
v -0.12600000 0.05000000 -0.09800000
v -0.12600000 0.02200000 -0.10200000
v -0.12600000 0.02200000 -0.09800000
v -0.12200000 0.02200000 -0.10200000
v -0.12200000 0.02200000 -0.09800000
v -0.12200000 0.02600000 -0.10200000
v -0.12200000 0.02600000 -0.09800000
v -0.12200000 0.03000000 -0.10200000
v -0.12200000 0.03000000 -0.09800000
v -0.12200000 0.03400000 -0.10200000
v -0.12200000 0.03400000 -0.09800000
v -0.12200000 0.03800000 -0.10200000
v -0.12200000 0.03800000 -0.09800000
v -0.12200000 0.04200000 -0.10200000
v -0.12200000 0.04200000 -0.09800000
v -0.12200000 0.04600000 -0.10200000
v -0.12200000 0.04600000 -0.09800000
v -0.12200000 0.05000000 -0.10200000
v -0.12200000 0.05000000 -0.09800000
v -0.11800000 0.02200000 -0.10200000
v -0.11800000 0.02200000 -0.09800000
v -0.11800000 0.02600000 -0.10200000
v -0.11800000 0.02600000 -0.09800000
v -0.11800000 0.03000000 -0.10200000
v -0.11800000 0.03000000 -0.09800000
v -0.11800000 0.03400000 -0.10200000
v -0.11800000 0.03400000 -0.09800000
v -0.11800000 0.03800000 -0.10200000
v -0.11800000 0.03800000 -0.09800000
v -0.11800000 0.04200000 -0.10200000
v -0.11800000 0.04200000 -0.09800000
v -0.11800000 0.04600000 -0.10200000
v -0.11800000 0.04600000 -0.09800000
v -0.11800000 0.05000000 -0.10200000
v -0.11800000 0.05000000 -0.09800000
v -0.11400000 0.02200000 -0.10200000
v -0.11400000 0.02200000 -0.09800000
v -0.11400000 0.02600000 -0.10200000
v -0.11400000 0.02600000 -0.09800000
v -0.11400000 0.03000000 -0.10200000
v -0.11400000 0.03000000 -0.09800000
v -0.11400000 0.03400000 -0.10200000
v -0.11400000 0.03400000 -0.09800000
v -0.11400000 0.03800000 -0.10200000
v -0.11400000 0.03800000 -0.09800000
v -0.11400000 0.04200000 -0.10200000
v -0.11400000 0.04200000 -0.09800000
v -0.11400000 0.04600000 -0.10200000
v -0.11400000 0.04600000 -0.09800000
v -0.11400000 0.05000000 -0.10200000
v -0.11400000 0.05000000 -0.09800000
v -0.11000000 0.02200000 -0.10200000
v -0.11000000 0.02200000 -0.09800000
v -0.11000000 0.02600000 -0.10200000
v -0.11000000 0.02600000 -0.09800000
v -0.11000000 0.03000000 -0.10200000
v -0.11000000 0.03000000 -0.09800000
v -0.11000000 0.03400000 -0.10200000
v -0.11000000 0.03400000 -0.09800000
v -0.11000000 0.03800000 -0.10200000
v -0.11000000 0.03800000 -0.09800000
v -0.11000000 0.04200000 -0.10200000
v -0.11000000 0.04200000 -0.09800000
v -0.11000000 0.04600000 -0.10200000
v -0.11000000 0.04600000 -0.09800000
v -0.11000000 0.05000000 -0.10200000
v -0.11000000 0.05000000 -0.09800000
v -0.02600000 0.02600000 -0.10200000
v -0.02600000 0.02600000 -0.09800000
v -0.02600000 0.03000000 -0.10200000
v -0.02600000 0.03000000 -0.09800000
v -0.02200000 0.02600000 -0.10200000
v -0.02200000 0.02600000 -0.09800000
v -0.02200000 0.03000000 -0.10200000
v -0.02200000 0.03000000 -0.09800000
v -0.02600000 0.03400000 -0.10200000
v -0.02600000 0.03400000 -0.09800000
v -0.02200000 0.03400000 -0.10200000
v -0.02200000 0.03400000 -0.09800000
v -0.02600000 0.03800000 -0.10200000
v -0.02600000 0.03800000 -0.09800000
v -0.02200000 0.03800000 -0.10200000
v -0.02200000 0.03800000 -0.09800000
v -0.02600000 0.04200000 -0.10200000
v -0.02600000 0.04200000 -0.09800000
v -0.02200000 0.04200000 -0.10200000
v -0.02200000 0.04200000 -0.09800000
v -0.02600000 0.04600000 -0.10200000
v -0.02600000 0.04600000 -0.09800000
v -0.02200000 0.04600000 -0.10200000
v -0.02200000 0.04600000 -0.09800000
v -0.02600000 0.05000000 -0.10200000
v -0.02600000 0.05000000 -0.09800000
v -0.02200000 0.05000000 -0.10200000
v -0.02200000 0.05000000 -0.09800000
v -0.02200000 0.02200000 -0.10200000
v -0.02200000 0.02200000 -0.09800000
v -0.01800000 0.02200000 -0.10200000
v -0.01800000 0.02200000 -0.09800000
v -0.01800000 0.02600000 -0.10200000
v -0.01800000 0.02600000 -0.09800000
v -0.01800000 0.03000000 -0.10200000
v -0.01800000 0.03000000 -0.09800000
v -0.01800000 0.03400000 -0.10200000
v -0.01800000 0.03400000 -0.09800000
v -0.01800000 0.03800000 -0.10200000
v -0.01800000 0.03800000 -0.09800000
v -0.01800000 0.04200000 -0.10200000
v -0.01800000 0.04200000 -0.09800000
v -0.01800000 0.04600000 -0.10200000
v -0.01800000 0.04600000 -0.09800000
v -0.01800000 0.05000000 -0.10200000
v -0.01800000 0.05000000 -0.09800000
v -0.01400000 0.02200000 -0.10200000
v -0.01400000 0.02200000 -0.09800000
v -0.01400000 0.02600000 -0.10200000
v -0.01400000 0.02600000 -0.09800000
v -0.01400000 0.03000000 -0.10200000
v -0.01400000 0.03000000 -0.09800000
v -0.01400000 0.03400000 -0.10200000
v -0.01400000 0.03400000 -0.09800000
v -0.01400000 0.03800000 -0.10200000
v -0.01400000 0.03800000 -0.09800000
v -0.01400000 0.04200000 -0.10200000
v -0.01400000 0.04200000 -0.09800000
v -0.01400000 0.04600000 -0.10200000
v -0.01400000 0.04600000 -0.09800000
v -0.01400000 0.05000000 -0.10200000
v -0.01400000 0.05000000 -0.09800000
v -0.01000000 0.02200000 -0.10200000
v -0.01000000 0.02200000 -0.09800000
v -0.01000000 0.02600000 -0.10200000
v -0.01000000 0.02600000 -0.09800000
v -0.01000000 0.03000000 -0.10200000
v -0.01000000 0.03000000 -0.09800000
v -0.01000000 0.03400000 -0.10200000
v -0.01000000 0.03400000 -0.09800000
v -0.01000000 0.03800000 -0.10200000
v -0.01000000 0.03800000 -0.09800000
v -0.01000000 0.04200000 -0.10200000
v -0.01000000 0.04200000 -0.09800000
v -0.01000000 0.04600000 -0.10200000
v -0.01000000 0.04600000 -0.09800000
v -0.01000000 0.05000000 -0.10200000
v -0.01000000 0.05000000 -0.09800000
v -0.00600000 0.02200000 -0.10200000
v -0.00600000 0.02200000 -0.09800000
v -0.00600000 0.02600000 -0.10200000
v -0.00600000 0.02600000 -0.09800000
v -0.00600000 0.03000000 -0.10200000
v -0.00600000 0.03000000 -0.09800000
v -0.00600000 0.03400000 -0.10200000
v -0.00600000 0.03400000 -0.09800000
v -0.00600000 0.03800000 -0.10200000
v -0.00600000 0.03800000 -0.09800000
v -0.00600000 0.04200000 -0.10200000
v -0.00600000 0.04200000 -0.09800000
v -0.00600000 0.04600000 -0.10200000
v -0.00600000 0.04600000 -0.09800000
v -0.00600000 0.05000000 -0.10200000
v -0.00600000 0.05000000 -0.09800000
v 0.00600000 0.03000000 -0.10200000
v 0.00600000 0.03000000 -0.09800000
v 0.00600000 0.03400000 -0.10200000
v 0.00600000 0.03400000 -0.09800000
v 0.01000000 0.03000000 -0.10200000
v 0.01000000 0.03000000 -0.09800000
v 0.01000000 0.03400000 -0.10200000
v 0.01000000 0.03400000 -0.09800000
v 0.00600000 0.03800000 -0.10200000
v 0.00600000 0.03800000 -0.09800000
v 0.01000000 0.03800000 -0.10200000
v 0.01000000 0.03800000 -0.09800000
v 0.00600000 0.04200000 -0.10200000
v 0.00600000 0.04200000 -0.09800000
v 0.01000000 0.04200000 -0.10200000
v 0.01000000 0.04200000 -0.09800000
v 0.00600000 0.04600000 -0.10200000
v 0.00600000 0.04600000 -0.09800000
v 0.01000000 0.04600000 -0.10200000
v 0.01000000 0.04600000 -0.09800000
v 0.01000000 0.02200000 -0.10200000
v 0.01000000 0.02200000 -0.09800000
v 0.01000000 0.02600000 -0.10200000
v 0.01000000 0.02600000 -0.09800000
v 0.01400000 0.02200000 -0.10200000
v 0.01400000 0.02200000 -0.09800000
v 0.01400000 0.02600000 -0.10200000
v 0.01400000 0.02600000 -0.09800000
v 0.01400000 0.03000000 -0.10200000
v 0.01400000 0.03000000 -0.09800000
v 0.01400000 0.03400000 -0.10200000
v 0.01400000 0.03400000 -0.09800000
v 0.01400000 0.03800000 -0.10200000
v 0.01400000 0.03800000 -0.09800000
v 0.01400000 0.04200000 -0.10200000
v 0.01400000 0.04200000 -0.09800000
v 0.01400000 0.04600000 -0.10200000
v 0.01400000 0.04600000 -0.09800000
v 0.01000000 0.05000000 -0.10200000
v 0.01000000 0.05000000 -0.09800000
v 0.01400000 0.05000000 -0.10200000
v 0.01400000 0.05000000 -0.09800000
v 0.01800000 0.02200000 -0.10200000
v 0.01800000 0.02200000 -0.09800000
v 0.01800000 0.02600000 -0.10200000
v 0.01800000 0.02600000 -0.09800000
v 0.01800000 0.03000000 -0.10200000
v 0.01800000 0.03000000 -0.09800000
v 0.01800000 0.03400000 -0.10200000
v 0.01800000 0.03400000 -0.09800000
v 0.01800000 0.03800000 -0.10200000
v 0.01800000 0.03800000 -0.09800000
v 0.01800000 0.04200000 -0.10200000
v 0.01800000 0.04200000 -0.09800000
v 0.01800000 0.04600000 -0.10200000
v 0.01800000 0.04600000 -0.09800000
v 0.01800000 0.05000000 -0.10200000
v 0.01800000 0.05000000 -0.09800000
v 0.02200000 0.02200000 -0.10200000
v 0.02200000 0.02200000 -0.09800000
v 0.02200000 0.02600000 -0.10200000
v 0.02200000 0.02600000 -0.09800000
v 0.02200000 0.03000000 -0.10200000
v 0.02200000 0.03000000 -0.09800000
v 0.02200000 0.03400000 -0.10200000
v 0.02200000 0.03400000 -0.09800000
v 0.02200000 0.03800000 -0.10200000
v 0.02200000 0.03800000 -0.09800000
v 0.02200000 0.04200000 -0.10200000
v 0.02200000 0.04200000 -0.09800000
v 0.02200000 0.04600000 -0.10200000
v 0.02200000 0.04600000 -0.09800000
v 0.02200000 0.05000000 -0.10200000
v 0.02200000 0.05000000 -0.09800000
v 0.02600000 0.02200000 -0.10200000
v 0.02600000 0.02200000 -0.09800000
v 0.02600000 0.02600000 -0.10200000
v 0.02600000 0.02600000 -0.09800000
v 0.02600000 0.03000000 -0.10200000
v 0.02600000 0.03000000 -0.09800000
v 0.02600000 0.03400000 -0.10200000
v 0.02600000 0.03400000 -0.09800000
v 0.02600000 0.03800000 -0.10200000
v 0.02600000 0.03800000 -0.09800000
v 0.02600000 0.04200000 -0.10200000
v 0.02600000 0.04200000 -0.09800000
v 0.02600000 0.04600000 -0.10200000
v 0.02600000 0.04600000 -0.09800000
v 0.02600000 0.05000000 -0.10200000
v 0.02600000 0.05000000 -0.09800000
v 0.03000000 0.02200000 -0.10200000
v 0.03000000 0.02200000 -0.09800000
v 0.03000000 0.02600000 -0.10200000
v 0.03000000 0.02600000 -0.09800000
v 0.03000000 0.03000000 -0.10200000
v 0.03000000 0.03000000 -0.09800000
v 0.03000000 0.03400000 -0.10200000
v 0.03000000 0.03400000 -0.09800000
v 0.03000000 0.03800000 -0.10200000
v 0.03000000 0.03800000 -0.09800000
v 0.03000000 0.04200000 -0.10200000
v 0.03000000 0.04200000 -0.09800000
v 0.03000000 0.04600000 -0.10200000
v 0.03000000 0.04600000 -0.09800000
v 0.03000000 0.05000000 -0.10200000
v 0.03000000 0.05000000 -0.09800000
v 0.03400000 0.02200000 -0.10200000
v 0.03400000 0.02200000 -0.09800000
v 0.03400000 0.02600000 -0.10200000
v 0.03400000 0.02600000 -0.09800000
v 0.03400000 0.03000000 -0.10200000
v 0.03400000 0.03000000 -0.09800000
v 0.03400000 0.03400000 -0.10200000
v 0.03400000 0.03400000 -0.09800000
v 0.03400000 0.03800000 -0.10200000
v 0.03400000 0.03800000 -0.09800000
v 0.03400000 0.04200000 -0.10200000
v 0.03400000 0.04200000 -0.09800000
v 0.03400000 0.04600000 -0.10200000
v 0.03400000 0.04600000 -0.09800000
v 0.03400000 0.05000000 -0.10200000
v 0.03400000 0.05000000 -0.09800000
v 0.03800000 0.02200000 -0.10200000
v 0.03800000 0.02200000 -0.09800000
v 0.03800000 0.02600000 -0.10200000
v 0.03800000 0.02600000 -0.09800000
v 0.03800000 0.03000000 -0.10200000
v 0.03800000 0.03000000 -0.09800000
v 0.03800000 0.03400000 -0.10200000
v 0.03800000 0.03400000 -0.09800000
v 0.03800000 0.03800000 -0.10200000
v 0.03800000 0.03800000 -0.09800000
v 0.03800000 0.04200000 -0.10200000
v 0.03800000 0.04200000 -0.09800000
v 0.03800000 0.04600000 -0.10200000
v 0.03800000 0.04600000 -0.09800000
v 0.03800000 0.05000000 -0.10200000
v 0.03800000 0.05000000 -0.09800000
v 0.04200000 0.02200000 -0.10200000
v 0.04200000 0.02200000 -0.09800000
v 0.04200000 0.02600000 -0.10200000
v 0.04200000 0.02600000 -0.09800000
v 0.04200000 0.03000000 -0.10200000
v 0.04200000 0.03000000 -0.09800000
v 0.04200000 0.03400000 -0.10200000
v 0.04200000 0.03400000 -0.09800000
v 0.04200000 0.03800000 -0.10200000
v 0.04200000 0.03800000 -0.09800000
v 0.04200000 0.04200000 -0.10200000
v 0.04200000 0.04200000 -0.09800000
v 0.04200000 0.04600000 -0.10200000
v 0.04200000 0.04600000 -0.09800000
v 0.04200000 0.05000000 -0.10200000
v 0.04200000 0.05000000 -0.09800000
v 0.04600000 0.02200000 -0.10200000
v 0.04600000 0.02200000 -0.09800000
v 0.04600000 0.02600000 -0.10200000
v 0.04600000 0.02600000 -0.09800000
v 0.04600000 0.03000000 -0.10200000
v 0.04600000 0.03000000 -0.09800000
v 0.04600000 0.03400000 -0.10200000
v 0.04600000 0.03400000 -0.09800000
v 0.04600000 0.03800000 -0.10200000
v 0.04600000 0.03800000 -0.09800000
v 0.04600000 0.04200000 -0.10200000
v 0.04600000 0.04200000 -0.09800000
v 0.04600000 0.04600000 -0.10200000
v 0.04600000 0.04600000 -0.09800000
f 2 4 1
f 5 2 1
f 1 4 3
f 3 5 1
f 2 8 4
f 6 2 5
f 6 8 2
f 7 5 3
f 4 10 3
f 3 10 9
f 9 7 3
f 4 12 10
f 8 12 4
f 11 7 9
f 10 14 9
f 9 14 13
f 13 11 9
f 10 16 14
f 12 16 10
f 15 11 13
f 14 18 13
f 13 18 17
f 17 15 13
f 14 20 18
f 16 20 14
f 19 15 17
f 18 22 17
f 17 22 21
f 21 19 17
f 18 24 22
f 20 24 18
f 23 19 21
f 22 26 21
f 21 26 25
f 25 23 21
f 22 28 26
f 24 28 22
f 26 28 25
f 27 23 25
f 25 28 27
f 30 6 29
f 31 30 29
f 29 6 5
f 5 31 29
f 30 34 6
f 32 30 31
f 32 34 30
f 33 31 5
f 7 33 5
f 6 36 8
f 34 36 6
f 35 33 7
f 11 35 7
f 8 38 12
f 36 38 8
f 37 35 11
f 15 37 11
f 12 40 16
f 38 40 12
f 39 37 15
f 19 39 15
f 16 42 20
f 40 42 16
f 41 39 19
f 23 41 19
f 20 44 24
f 42 44 20
f 43 41 23
f 27 43 23
f 24 46 28
f 44 46 24
f 28 46 27
f 45 43 27
f 27 46 45
f 47 32 31
f 33 47 31
f 32 50 34
f 48 32 47
f 48 50 32
f 49 47 33
f 35 49 33
f 34 52 36
f 50 52 34
f 51 49 35
f 37 51 35
f 36 54 38
f 52 54 36
f 53 51 37
f 39 53 37
f 38 56 40
f 54 56 38
f 55 53 39
f 41 55 39
f 40 58 42
f 56 58 40
f 57 55 41
f 43 57 41
f 42 60 44
f 58 60 42
f 59 57 43
f 45 59 43
f 44 62 46
f 60 62 44
f 46 62 45
f 61 59 45
f 45 62 61
f 63 48 47
f 49 63 47
f 48 66 50
f 64 48 63
f 64 66 48
f 65 63 49
f 51 65 49
f 50 68 52
f 66 68 50
f 67 65 51
f 53 67 51
f 52 70 54
f 68 70 52
f 69 67 53
f 55 69 53
f 54 72 56
f 70 72 54
f 71 69 55
f 57 71 55
f 56 74 58
f 72 74 56
f 73 71 57
f 59 73 57
f 58 76 60
f 74 76 58
f 75 73 59
f 61 75 59
f 60 78 62
f 76 78 60
f 62 78 61
f 77 75 61
f 61 78 77
f 79 64 63
f 65 79 63
f 64 82 66
f 80 64 79
f 80 82 64
f 81 79 65
f 81 80 79
f 82 80 81
f 67 81 65
f 66 84 68
f 82 84 66
f 83 81 67
f 83 82 81
f 84 82 83
f 69 83 67
f 68 86 70
f 84 86 68
f 85 83 69
f 85 84 83
f 86 84 85
f 71 85 69
f 70 88 72
f 86 88 70
f 87 85 71
f 87 86 85
f 88 86 87
f 73 87 71
f 72 90 74
f 88 90 72
f 89 87 73
f 89 88 87
f 90 88 89
f 75 89 73
f 74 92 76
f 90 92 74
f 91 89 75
f 91 90 89
f 92 90 91
f 77 91 75
f 76 94 78
f 92 94 76
f 78 94 77
f 93 91 77
f 77 94 93
f 93 92 91
f 94 92 93
f 96 98 95
f 99 96 95
f 95 98 97
f 97 99 95
f 96 102 98
f 100 96 99
f 100 102 96
f 101 99 97
f 98 104 97
f 97 104 103
f 103 101 97
f 98 106 104
f 102 106 98
f 105 101 103
f 104 108 103
f 103 108 107
f 107 105 103
f 104 110 108
f 106 110 104
f 109 105 107
f 108 112 107
f 107 112 111
f 111 109 107
f 108 114 112
f 110 114 108
f 113 109 111
f 112 116 111
f 111 116 115
f 115 113 111
f 112 118 116
f 114 118 112
f 117 113 115
f 116 120 115
f 115 120 119
f 119 117 115
f 116 122 120
f 118 122 116
f 120 122 119
f 121 117 119
f 119 122 121
f 124 100 123
f 125 124 123
f 123 100 99
f 99 125 123
f 124 128 100
f 126 124 125
f 126 128 124
f 127 125 99
f 101 127 99
f 100 130 102
f 128 130 100
f 129 127 101
f 105 129 101
f 102 132 106
f 130 132 102
f 131 129 105
f 109 131 105
f 106 134 110
f 132 134 106
f 133 131 109
f 113 133 109
f 110 136 114
f 134 136 110
f 135 133 113
f 117 135 113
f 114 138 118
f 136 138 114
f 137 135 117
f 121 137 117
f 118 140 122
f 138 140 118
f 122 140 121
f 139 137 121
f 121 140 139
f 141 126 125
f 127 141 125
f 126 144 128
f 142 126 141
f 142 144 126
f 143 141 127
f 129 143 127
f 128 146 130
f 144 146 128
f 145 143 129
f 131 145 129
f 130 148 132
f 146 148 130
f 147 145 131
f 133 147 131
f 132 150 134
f 148 150 132
f 149 147 133
f 135 149 133
f 134 152 136
f 150 152 134
f 151 149 135
f 137 151 135
f 136 154 138
f 152 154 136
f 153 151 137
f 139 153 137
f 138 156 140
f 154 156 138
f 140 156 139
f 155 153 139
f 139 156 155
f 157 142 141
f 143 157 141
f 142 160 144
f 158 142 157
f 158 160 142
f 159 157 143
f 145 159 143
f 144 162 146
f 160 162 144
f 161 159 145
f 147 161 145
f 146 164 148
f 162 164 146
f 163 161 147
f 149 163 147
f 148 166 150
f 164 166 148
f 165 163 149
f 151 165 149
f 150 168 152
f 166 168 150
f 167 165 151
f 153 167 151
f 152 170 154
f 168 170 152
f 169 167 153
f 155 169 153
f 154 172 156
f 170 172 154
f 156 172 155
f 171 169 155
f 155 172 171
f 173 158 157
f 159 173 157
f 158 176 160
f 174 158 173
f 174 176 158
f 175 173 159
f 175 174 173
f 176 174 175
f 161 175 159
f 160 178 162
f 176 178 160
f 177 175 161
f 177 176 175
f 178 176 177
f 163 177 161
f 162 180 164
f 178 180 162
f 179 177 163
f 179 178 177
f 180 178 179
f 165 179 163
f 164 182 166
f 180 182 164
f 181 179 165
f 181 180 179
f 182 180 181
f 167 181 165
f 166 184 168
f 182 184 166
f 183 181 167
f 183 182 181
f 184 182 183
f 169 183 167
f 168 186 170
f 184 186 168
f 185 183 169
f 185 184 183
f 186 184 185
f 171 185 169
f 170 188 172
f 186 188 170
f 172 188 171
f 187 185 171
f 171 188 187
f 187 186 185
f 188 186 187
f 190 192 189
f 193 190 189
f 189 192 191
f 191 193 189
f 190 196 192
f 194 190 193
f 194 196 190
f 195 193 191
f 192 198 191
f 191 198 197
f 197 195 191
f 192 200 198
f 196 200 192
f 199 195 197
f 198 202 197
f 197 202 201
f 201 199 197
f 198 204 202
f 200 204 198
f 203 199 201
f 202 206 201
f 201 206 205
f 205 203 201
f 202 208 206
f 204 208 202
f 206 208 205
f 207 203 205
f 205 208 207
f 210 212 209
f 213 210 209
f 209 212 211
f 211 213 209
f 210 216 212
f 214 210 213
f 214 216 210
f 215 213 211
f 212 194 211
f 211 194 193
f 193 215 211
f 212 218 194
f 216 218 212
f 217 215 193
f 195 217 193
f 194 220 196
f 218 220 194
f 219 217 195
f 199 219 195
f 196 222 200
f 220 222 196
f 221 219 199
f 203 221 199
f 200 224 204
f 222 224 200
f 223 221 203
f 207 223 203
f 204 226 208
f 224 226 204
f 225 223 207
f 208 228 207
f 207 228 227
f 227 225 207
f 208 230 228
f 226 230 208
f 228 230 227
f 229 225 227
f 227 230 229
f 231 214 213
f 215 231 213
f 214 234 216
f 232 214 231
f 232 234 214
f 233 231 215
f 217 233 215
f 216 236 218
f 234 236 216
f 235 233 217
f 219 235 217
f 218 238 220
f 236 238 218
f 237 235 219
f 221 237 219
f 220 240 222
f 238 240 220
f 239 237 221
f 223 239 221
f 222 242 224
f 240 242 222
f 241 239 223
f 225 241 223
f 224 244 226
f 242 244 224
f 243 241 225
f 229 243 225
f 226 246 230
f 244 246 226
f 230 246 229
f 245 243 229
f 229 246 245
f 247 232 231
f 233 247 231
f 232 250 234
f 248 232 247
f 248 250 232
f 249 247 233
f 235 249 233
f 234 252 236
f 250 252 234
f 251 249 235
f 237 251 235
f 236 254 238
f 252 254 236
f 253 251 237
f 239 253 237
f 238 256 240
f 254 256 238
f 255 253 239
f 241 255 239
f 240 258 242
f 256 258 240
f 257 255 241
f 243 257 241
f 242 260 244
f 258 260 242
f 259 257 243
f 245 259 243
f 244 262 246
f 260 262 244
f 246 262 245
f 261 259 245
f 245 262 261
f 263 248 247
f 249 263 247
f 248 266 250
f 264 248 263
f 264 266 248
f 265 263 249
f 251 265 249
f 250 268 252
f 266 268 250
f 267 265 251
f 253 267 251
f 252 270 254
f 268 270 252
f 269 267 253
f 255 269 253
f 254 272 256
f 270 272 254
f 271 269 255
f 257 271 255
f 256 274 258
f 272 274 256
f 273 271 257
f 259 273 257
f 258 276 260
f 274 276 258
f 275 273 259
f 261 275 259
f 260 278 262
f 276 278 260
f 262 278 261
f 277 275 261
f 261 278 277
f 279 264 263
f 265 279 263
f 264 282 266
f 280 264 279
f 280 282 264
f 281 279 265
f 267 281 265
f 266 284 268
f 282 284 266
f 283 281 267
f 269 283 267
f 268 286 270
f 284 286 268
f 285 283 269
f 271 285 269
f 270 288 272
f 286 288 270
f 287 285 271
f 273 287 271
f 272 290 274
f 288 290 272
f 289 287 273
f 275 289 273
f 274 292 276
f 290 292 274
f 291 289 275
f 277 291 275
f 276 294 278
f 292 294 276
f 278 294 277
f 293 291 277
f 277 294 293
f 295 280 279
f 281 295 279
f 280 298 282
f 296 280 295
f 296 298 280
f 297 295 281
f 283 297 281
f 282 300 284
f 298 300 282
f 299 297 283
f 285 299 283
f 284 302 286
f 300 302 284
f 301 299 285
f 287 301 285
f 286 304 288
f 302 304 286
f 303 301 287
f 289 303 287
f 288 306 290
f 304 306 288
f 305 303 289
f 291 305 289
f 290 308 292
f 306 308 290
f 307 305 291
f 293 307 291
f 292 310 294
f 308 310 292
f 294 310 293
f 309 307 293
f 293 310 309
f 311 296 295
f 297 311 295
f 296 314 298
f 312 296 311
f 312 314 296
f 313 311 297
f 299 313 297
f 298 316 300
f 314 316 298
f 315 313 299
f 301 315 299
f 300 318 302
f 316 318 300
f 317 315 301
f 303 317 301
f 302 320 304
f 318 320 302
f 319 317 303
f 305 319 303
f 304 322 306
f 320 322 304
f 321 319 305
f 307 321 305
f 306 324 308
f 322 324 306
f 323 321 307
f 309 323 307
f 308 326 310
f 324 326 308
f 310 326 309
f 325 323 309
f 309 326 325
f 327 312 311
f 313 327 311
f 312 330 314
f 328 312 327
f 328 330 312
f 329 327 313
f 315 329 313
f 314 332 316
f 330 332 314
f 331 329 315
f 317 331 315
f 316 334 318
f 332 334 316
f 333 331 317
f 319 333 317
f 318 336 320
f 334 336 318
f 335 333 319
f 321 335 319
f 320 338 322
f 336 338 320
f 337 335 321
f 323 337 321
f 322 340 324
f 338 340 322
f 339 337 323
f 325 339 323
f 324 342 326
f 340 342 324
f 326 342 325
f 341 339 325
f 325 342 341
f 341 340 339
f 342 340 341
f 343 328 327
f 329 343 327
f 328 346 330
f 344 328 343
f 344 346 328
f 345 343 329
f 345 344 343
f 346 344 345
f 331 345 329
f 330 348 332
f 346 348 330
f 347 345 331
f 347 346 345
f 348 346 347
f 333 347 331
f 332 350 334
f 348 350 332
f 349 347 333
f 349 348 347
f 350 348 349
f 335 349 333
f 334 352 336
f 350 352 334
f 351 349 335
f 351 350 349
f 352 350 351
f 337 351 335
f 336 354 338
f 352 354 336
f 353 351 337
f 353 352 351
f 354 352 353
f 339 353 337
f 338 356 340
f 354 356 338
f 340 356 339
f 355 353 339
f 339 356 355
f 355 354 353
f 356 354 355

